<?xml version="1.0" encoding="UTF-8" standalone="no"?>
<!DOCTYPE svg PUBLIC "-//W3C//DTD SVG 1.1//EN"
 "http://www.w3.org/Graphics/SVG/1.1/DTD/svg11.dtd">
<!-- Generated by graphviz version 2.43.0 (0)
 -->
<!-- Title: core/network/AsyncNetworkRequest.cpp Pages: 1 -->
<svg width="1402pt" height="203pt"
 viewBox="0.00 0.00 1401.50 203.00" xmlns="http://www.w3.org/2000/svg" xmlns:xlink="http://www.w3.org/1999/xlink">
<g id="graph0" class="graph" transform="scale(1 1) rotate(0) translate(4 199)">
<title>core/network/AsyncNetworkRequest.cpp</title>
<!-- Node1 -->
<g id="Node000001" class="node">
<title>Node1</title>
<g id="a_Node000001"><a xlink:title=" ">
<polygon fill="#999999" stroke="#666666" points="917,-195 763,-195 763,-165 917,-165 917,-195"/>
<text text-anchor="start" x="771" y="-183" font-family="Helvetica,sans-Serif" font-size="10.00">core/network/AsyncNetwork</text>
<text text-anchor="middle" x="840" y="-172" font-family="Helvetica,sans-Serif" font-size="10.00">Request.cpp</text>
</a>
</g>
</g>
<!-- Node2 -->
<g id="Node000002" class="node">
<title>Node2</title>
<g id="a_Node000002"><a xlink:href="AsyncNetworkRequest_8h.html" target="_top" xlink:title=" ">
<polygon fill="white" stroke="#666666" points="812,-129 676,-129 676,-110 812,-110 812,-129"/>
<text text-anchor="middle" x="744" y="-117" font-family="Helvetica,sans-Serif" font-size="10.00">AsyncNetworkRequest.h</text>
</a>
</g>
</g>
<!-- Node1&#45;&gt;Node2 -->
<g id="edge1_Node000001_Node000002" class="edge">
<title>Node1&#45;&gt;Node2</title>
<g id="a_edge1_Node000001_Node000002"><a xlink:title=" ">
<path fill="none" stroke="#63b8ff" d="M816.76,-164.84C801.6,-155.6 781.89,-143.59 766.81,-134.4"/>
<polygon fill="#63b8ff" stroke="#63b8ff" points="768.46,-131.31 758.1,-129.09 764.82,-137.29 768.46,-131.31"/>
</a>
</g>
</g>
<!-- Node10 -->
<g id="Node000010" class="node">
<title>Node10</title>
<g id="a_Node000010"><a xlink:title=" ">
<polygon fill="#e0e0e0" stroke="#999999" points="351.5,-74 258.5,-74 258.5,-55 351.5,-55 351.5,-74"/>
<text text-anchor="middle" x="305" y="-62" font-family="Helvetica,sans-Serif" font-size="10.00">QNetworkReply</text>
</a>
</g>
</g>
<!-- Node1&#45;&gt;Node10 -->
<g id="edge27_Node000001_Node000010" class="edge">
<title>Node1&#45;&gt;Node10</title>
<g id="a_edge27_Node000001_Node000010"><a xlink:title=" ">
<path fill="none" stroke="#63b8ff" d="M773.86,-164.97C665.45,-141.97 452.31,-96.75 355.26,-76.16"/>
<polygon fill="#63b8ff" stroke="#63b8ff" points="355.91,-72.72 345.41,-74.07 354.46,-79.57 355.91,-72.72"/>
</a>
</g>
</g>
<!-- Node14 -->
<g id="Node000014" class="node">
<title>Node14</title>
<g id="a_Node000014"><a xlink:title=" ">
<polygon fill="#e0e0e0" stroke="#999999" points="1322.5,-74 1217.5,-74 1217.5,-55 1322.5,-55 1322.5,-74"/>
<text text-anchor="middle" x="1270" y="-62" font-family="Helvetica,sans-Serif" font-size="10.00">QNetworkRequest</text>
</a>
</g>
</g>
<!-- Node1&#45;&gt;Node14 -->
<g id="edge28_Node000001_Node000014" class="edge">
<title>Node1&#45;&gt;Node14</title>
<g id="a_edge28_Node000001_Node000014"><a xlink:title=" ">
<path fill="none" stroke="#63b8ff" d="M840.64,-164.84C842.19,-148.82 847.31,-123.25 864,-110 923.34,-62.9 1127.75,-82.77 1203,-74 1204.46,-73.83 1205.93,-73.66 1207.41,-73.48"/>
<polygon fill="#63b8ff" stroke="#63b8ff" points="1207.84,-76.96 1217.35,-72.28 1207,-70.01 1207.84,-76.96"/>
</a>
</g>
</g>
<!-- Node17 -->
<g id="Node000017" class="node">
<title>Node17</title>
<g id="a_Node000017"><a xlink:title=" ">
<polygon fill="#e0e0e0" stroke="#999999" points="1393.5,-74 1340.5,-74 1340.5,-55 1393.5,-55 1393.5,-74"/>
<text text-anchor="middle" x="1367" y="-62" font-family="Helvetica,sans-Serif" font-size="10.00">QTimer</text>
</a>
</g>
</g>
<!-- Node1&#45;&gt;Node17 -->
<g id="edge30_Node000001_Node000017" class="edge">
<title>Node1&#45;&gt;Node17</title>
<g id="a_edge30_Node000001_Node000017"><a xlink:title=" ">
<path fill="none" stroke="#63b8ff" d="M847.21,-164.72C856.34,-148.34 873.73,-122.16 897,-110 980.28,-66.49 1220.58,-88.03 1330.15,-73.91"/>
<polygon fill="#63b8ff" stroke="#63b8ff" points="1330.94,-77.33 1340.33,-72.43 1329.93,-70.4 1330.94,-77.33"/>
</a>
</g>
</g>
<!-- Node18 -->
<g id="Node000018" class="node">
<title>Node18</title>
<g id="a_Node000018"><a xlink:href="GzipUtils_8h.html" target="_top" xlink:title=" ">
<polygon fill="white" stroke="#666666" points="118,-129 0,-129 0,-110 118,-110 118,-129"/>
<text text-anchor="middle" x="59" y="-117" font-family="Helvetica,sans-Serif" font-size="10.00">core/utils/GzipUtils.h</text>
</a>
</g>
</g>
<!-- Node1&#45;&gt;Node18 -->
<g id="edge19_Node000001_Node000018" class="edge">
<title>Node1&#45;&gt;Node18</title>
<g id="a_edge19_Node000001_Node000018"><a xlink:title=" ">
<path fill="none" stroke="#63b8ff" d="M762.95,-173.83C635.84,-165.21 374.25,-147.05 153,-129 144.99,-128.35 136.6,-127.63 128.26,-126.9"/>
<polygon fill="#63b8ff" stroke="#63b8ff" points="128.43,-123.4 118.16,-126.01 127.81,-130.38 128.43,-123.4"/>
</a>
</g>
</g>
<!-- Node19 -->
<g id="Node000019" class="node">
<title>Node19</title>
<g id="a_Node000019"><a xlink:href="UrlUtils_8h.html" target="_top" xlink:title=" ">
<polygon fill="white" stroke="#666666" points="272,-129 162,-129 162,-110 272,-110 272,-129"/>
<text text-anchor="middle" x="217" y="-117" font-family="Helvetica,sans-Serif" font-size="10.00">core/utils/UrlUtils.h</text>
</a>
</g>
</g>
<!-- Node1&#45;&gt;Node19 -->
<g id="edge21_Node000001_Node000019" class="edge">
<title>Node1&#45;&gt;Node19</title>
<g id="a_edge21_Node000001_Node000019"><a xlink:title=" ">
<path fill="none" stroke="#63b8ff" d="M762.98,-171.77C639.26,-160.15 398.41,-137.53 282.46,-126.65"/>
<polygon fill="#63b8ff" stroke="#63b8ff" points="282.6,-123.14 272.31,-125.69 281.94,-130.11 282.6,-123.14"/>
</a>
</g>
</g>
<!-- Node22 -->
<g id="Node000022" class="node">
<title>Node22</title>
<g id="a_Node000022"><a xlink:title=" ">
<polygon fill="#e0e0e0" stroke="#999999" points="962,-129 906,-129 906,-110 962,-110 962,-129"/>
<text text-anchor="middle" x="934" y="-117" font-family="Helvetica,sans-Serif" font-size="10.00">QDebug</text>
</a>
</g>
</g>
<!-- Node1&#45;&gt;Node22 -->
<g id="edge25_Node000001_Node000022" class="edge">
<title>Node1&#45;&gt;Node22</title>
<g id="a_edge25_Node000001_Node000022"><a xlink:title=" ">
<path fill="none" stroke="#63b8ff" d="M862.75,-164.84C877.6,-155.6 896.9,-143.59 911.66,-134.4"/>
<polygon fill="#63b8ff" stroke="#63b8ff" points="913.55,-137.35 920.19,-129.09 909.85,-131.41 913.55,-137.35"/>
</a>
</g>
</g>
<!-- Node23 -->
<g id="Node000023" class="node">
<title>Node23</title>
<g id="a_Node000023"><a xlink:title=" ">
<polygon fill="#e0e0e0" stroke="#999999" points="1071.5,-129 980.5,-129 980.5,-110 1071.5,-110 1071.5,-129"/>
<text text-anchor="middle" x="1026" y="-117" font-family="Helvetica,sans-Serif" font-size="10.00">QElapsedTimer</text>
</a>
</g>
</g>
<!-- Node1&#45;&gt;Node23 -->
<g id="edge26_Node000001_Node000023" class="edge">
<title>Node1&#45;&gt;Node23</title>
<g id="a_edge26_Node000001_Node000023"><a xlink:title=" ">
<path fill="none" stroke="#63b8ff" d="M884.55,-164.99C916.51,-154.94 959.06,-141.55 989.12,-132.1"/>
<polygon fill="#63b8ff" stroke="#63b8ff" points="990.31,-135.39 998.8,-129.05 988.21,-128.72 990.31,-135.39"/>
</a>
</g>
</g>
<!-- Node24 -->
<g id="Node000024" class="node">
<title>Node24</title>
<g id="a_Node000024"><a xlink:title=" ">
<polygon fill="#e0e0e0" stroke="#999999" points="1148,-129 1090,-129 1090,-110 1148,-110 1148,-129"/>
<text text-anchor="middle" x="1119" y="-117" font-family="Helvetica,sans-Serif" font-size="10.00">QThread</text>
</a>
</g>
</g>
<!-- Node1&#45;&gt;Node24 -->
<g id="edge29_Node000001_Node000024" class="edge">
<title>Node1&#45;&gt;Node24</title>
<g id="a_edge29_Node000001_Node000024"><a xlink:title=" ">
<path fill="none" stroke="#63b8ff" d="M909.14,-164.95C955,-155.56 1016.76,-142.79 1080.19,-129.15"/>
<polygon fill="#63b8ff" stroke="#63b8ff" points="1080.93,-132.57 1089.96,-127.04 1079.45,-125.73 1080.93,-132.57"/>
</a>
</g>
</g>
<!-- Node3 -->
<g id="Node000003" class="node">
<title>Node3</title>
<g id="a_Node000003"><a xlink:href="INetworkClient_8h.html" target="_top" xlink:title=" ">
<polygon fill="white" stroke="#666666" points="1160.5,-74 995.5,-74 995.5,-55 1160.5,-55 1160.5,-74"/>
<text text-anchor="middle" x="1078" y="-62" font-family="Helvetica,sans-Serif" font-size="10.00">core/network/INetworkClient.h</text>
</a>
</g>
</g>
<!-- Node2&#45;&gt;Node3 -->
<g id="edge2_Node000002_Node000003" class="edge">
<title>Node2&#45;&gt;Node3</title>
<g id="a_edge2_Node000002_Node000003"><a xlink:title=" ">
<path fill="none" stroke="#63b8ff" d="M797.66,-109.98C856.62,-100.63 951.25,-85.61 1014.02,-75.65"/>
<polygon fill="#63b8ff" stroke="#63b8ff" points="1014.87,-79.06 1024.19,-74.04 1013.77,-72.15 1014.87,-79.06"/>
</a>
</g>
</g>
<!-- Node4 -->
<g id="Node000004" class="node">
<title>Node4</title>
<g id="a_Node000004"><a xlink:title=" ">
<polygon fill="#e0e0e0" stroke="#999999" points="416.5,-19 343.5,-19 343.5,0 416.5,0 416.5,-19"/>
<text text-anchor="middle" x="380" y="-7" font-family="Helvetica,sans-Serif" font-size="10.00">QByteArray</text>
</a>
</g>
</g>
<!-- Node2&#45;&gt;Node4 -->
<g id="edge11_Node000002_Node000004" class="edge">
<title>Node2&#45;&gt;Node4</title>
<g id="a_edge11_Node000002_Node000004"><a xlink:title=" ">
<path fill="none" stroke="#63b8ff" d="M675.85,-118.26C587.38,-116.54 439.5,-108.41 399,-74 386.13,-63.07 381.77,-43.8 380.4,-29.35"/>
<polygon fill="#63b8ff" stroke="#63b8ff" points="383.87,-28.83 379.83,-19.04 376.88,-29.22 383.87,-28.83"/>
</a>
</g>
</g>
<!-- Node6 -->
<g id="Node000006" class="node">
<title>Node6</title>
<g id="a_Node000006"><a xlink:title=" ">
<polygon fill="#e0e0e0" stroke="#999999" points="1196,-19 1158,-19 1158,0 1196,0 1196,-19"/>
<text text-anchor="middle" x="1177" y="-7" font-family="Helvetica,sans-Serif" font-size="10.00">QUrl</text>
</a>
</g>
</g>
<!-- Node2&#45;&gt;Node6 -->
<g id="edge18_Node000002_Node000006" class="edge">
<title>Node2&#45;&gt;Node6</title>
<g id="a_edge18_Node000002_Node000006"><a xlink:title=" ">
<path fill="none" stroke="#63b8ff" d="M812.16,-112.48C930.89,-101.84 1163.72,-80.24 1170,-74 1181.42,-62.65 1182.14,-43.75 1180.62,-29.51"/>
<polygon fill="#63b8ff" stroke="#63b8ff" points="1184.04,-28.7 1179.08,-19.33 1177.11,-29.74 1184.04,-28.7"/>
</a>
</g>
</g>
<!-- Node9 -->
<g id="Node000009" class="node">
<title>Node9</title>
<g id="a_Node000009"><a xlink:title=" ">
<polygon fill="#e0e0e0" stroke="#999999" points="550,-74 408,-74 408,-55 550,-55 550,-74"/>
<text text-anchor="middle" x="479" y="-62" font-family="Helvetica,sans-Serif" font-size="10.00">QNetworkAccessManager</text>
</a>
</g>
</g>
<!-- Node2&#45;&gt;Node9 -->
<g id="edge8_Node000002_Node000009" class="edge">
<title>Node2&#45;&gt;Node9</title>
<g id="a_edge8_Node000002_Node000009"><a xlink:title=" ">
<path fill="none" stroke="#63b8ff" d="M701.42,-109.98C655.3,-100.76 581.64,-86.03 531.84,-76.07"/>
<polygon fill="#63b8ff" stroke="#63b8ff" points="532.4,-72.61 521.91,-74.08 531.03,-79.48 532.4,-72.61"/>
</a>
</g>
</g>
<!-- Node2&#45;&gt;Node10 -->
<g id="edge9_Node000002_Node000010" class="edge">
<title>Node2&#45;&gt;Node10</title>
<g id="a_edge9_Node000002_Node000010"><a xlink:title=" ">
<path fill="none" stroke="#63b8ff" d="M675.66,-110.9C599.91,-102.37 474.14,-87.9 366,-74 364.54,-73.81 363.06,-73.62 361.57,-73.43"/>
<polygon fill="#63b8ff" stroke="#63b8ff" points="361.99,-69.95 351.61,-72.1 361.06,-76.89 361.99,-69.95"/>
</a>
</g>
</g>
<!-- Node11 -->
<g id="Node000011" class="node">
<title>Node11</title>
<g id="a_Node000011"><a xlink:title=" ">
<polygon fill="#e0e0e0" stroke="#999999" points="639.5,-74 568.5,-74 568.5,-55 639.5,-55 639.5,-74"/>
<text text-anchor="middle" x="604" y="-62" font-family="Helvetica,sans-Serif" font-size="10.00">QAtomicInt</text>
</a>
</g>
</g>
<!-- Node2&#45;&gt;Node11 -->
<g id="edge10_Node000002_Node000011" class="edge">
<title>Node2&#45;&gt;Node11</title>
<g id="a_edge10_Node000002_Node000011"><a xlink:title=" ">
<path fill="none" stroke="#63b8ff" d="M721.51,-109.98C698.48,-101.27 662.46,-87.63 636.37,-77.75"/>
<polygon fill="#63b8ff" stroke="#63b8ff" points="637.49,-74.44 626.9,-74.17 635.02,-80.98 637.49,-74.44"/>
</a>
</g>
</g>
<!-- Node12 -->
<g id="Node000012" class="node">
<title>Node12</title>
<g id="a_Node000012"><a xlink:title=" ">
<polygon fill="#e0e0e0" stroke="#999999" points="698.5,-74 657.5,-74 657.5,-55 698.5,-55 698.5,-74"/>
<text text-anchor="middle" x="678" y="-62" font-family="Helvetica,sans-Serif" font-size="10.00">QList</text>
</a>
</g>
</g>
<!-- Node2&#45;&gt;Node12 -->
<g id="edge12_Node000002_Node000012" class="edge">
<title>Node2&#45;&gt;Node12</title>
<g id="a_edge12_Node000002_Node000012"><a xlink:title=" ">
<path fill="none" stroke="#63b8ff" d="M733.4,-109.98C723.54,-102.07 708.65,-90.11 696.78,-80.58"/>
<polygon fill="#63b8ff" stroke="#63b8ff" points="698.79,-77.7 688.8,-74.17 694.4,-83.16 698.79,-77.7"/>
</a>
</g>
</g>
<!-- Node13 -->
<g id="Node000013" class="node">
<title>Node13</title>
<g id="a_Node000013"><a xlink:title=" ">
<polygon fill="#e0e0e0" stroke="#999999" points="771.5,-74 716.5,-74 716.5,-55 771.5,-55 771.5,-74"/>
<text text-anchor="middle" x="744" y="-62" font-family="Helvetica,sans-Serif" font-size="10.00">QMutex</text>
</a>
</g>
</g>
<!-- Node2&#45;&gt;Node13 -->
<g id="edge13_Node000002_Node000013" class="edge">
<title>Node2&#45;&gt;Node13</title>
<g id="a_edge13_Node000002_Node000013"><a xlink:title=" ">
<path fill="none" stroke="#63b8ff" d="M744,-109.75C744,-102.8 744,-92.85 744,-84.13"/>
<polygon fill="#63b8ff" stroke="#63b8ff" points="747.5,-84.09 744,-74.09 740.5,-84.09 747.5,-84.09"/>
</a>
</g>
</g>
<!-- Node2&#45;&gt;Node14 -->
<g id="edge14_Node000002_Node000014" class="edge">
<title>Node2&#45;&gt;Node14</title>
<g id="a_edge14_Node000002_Node000014"><a xlink:title=" ">
<path fill="none" stroke="#63b8ff" d="M812.01,-111.41C816.74,-110.93 821.44,-110.45 826,-110 993.49,-93.32 1035.71,-92.59 1203,-74 1204.46,-73.84 1205.93,-73.67 1207.42,-73.5"/>
<polygon fill="#63b8ff" stroke="#63b8ff" points="1207.83,-76.98 1217.35,-72.34 1207.01,-70.03 1207.83,-76.98"/>
</a>
</g>
</g>
<!-- Node15 -->
<g id="Node000015" class="node">
<title>Node15</title>
<g id="a_Node000015"><a xlink:title=" ">
<polygon fill="#e0e0e0" stroke="#999999" points="846,-74 790,-74 790,-55 846,-55 846,-74"/>
<text text-anchor="middle" x="818" y="-62" font-family="Helvetica,sans-Serif" font-size="10.00">QObject</text>
</a>
</g>
</g>
<!-- Node2&#45;&gt;Node15 -->
<g id="edge15_Node000002_Node000015" class="edge">
<title>Node2&#45;&gt;Node15</title>
<g id="a_edge15_Node000002_Node000015"><a xlink:title=" ">
<path fill="none" stroke="#63b8ff" d="M755.89,-109.98C767.15,-101.92 784.29,-89.65 797.71,-80.03"/>
<polygon fill="#63b8ff" stroke="#63b8ff" points="799.8,-82.84 805.89,-74.17 795.73,-77.15 799.8,-82.84"/>
</a>
</g>
</g>
<!-- Node16 -->
<g id="Node000016" class="node">
<title>Node16</title>
<g id="a_Node000016"><a xlink:title=" ">
<polygon fill="#e0e0e0" stroke="#999999" points="977.5,-74 864.5,-74 864.5,-55 977.5,-55 977.5,-74"/>
<text text-anchor="middle" x="921" y="-62" font-family="Helvetica,sans-Serif" font-size="10.00">QRandomGenerator</text>
</a>
</g>
</g>
<!-- Node2&#45;&gt;Node16 -->
<g id="edge16_Node000002_Node000016" class="edge">
<title>Node2&#45;&gt;Node16</title>
<g id="a_edge16_Node000002_Node000016"><a xlink:title=" ">
<path fill="none" stroke="#63b8ff" d="M772.44,-109.98C802.28,-101.05 849.38,-86.94 882.53,-77.02"/>
<polygon fill="#63b8ff" stroke="#63b8ff" points="883.76,-80.3 892.34,-74.08 881.76,-73.6 883.76,-80.3"/>
</a>
</g>
</g>
<!-- Node2&#45;&gt;Node17 -->
<g id="edge17_Node000002_Node000017" class="edge">
<title>Node2&#45;&gt;Node17</title>
<g id="a_edge17_Node000002_Node000017"><a xlink:title=" ">
<path fill="none" stroke="#63b8ff" d="M812.19,-113.64C951.99,-103.63 1263.03,-81.16 1330.09,-73.75"/>
<polygon fill="#63b8ff" stroke="#63b8ff" points="1330.86,-77.18 1340.34,-72.45 1329.98,-70.24 1330.86,-77.18"/>
</a>
</g>
</g>
<!-- Node3&#45;&gt;Node4 -->
<g id="edge3_Node000003_Node000004" class="edge">
<title>Node3&#45;&gt;Node4</title>
<g id="a_edge3_Node000003_Node000004"><a xlink:title=" ">
<path fill="none" stroke="#63b8ff" d="M995.18,-55.69C992.42,-55.46 989.69,-55.22 987,-55 778.26,-37.6 528.83,-20.46 426.89,-13.62"/>
<polygon fill="#63b8ff" stroke="#63b8ff" points="426.84,-10.11 416.63,-12.93 426.37,-17.09 426.84,-10.11"/>
</a>
</g>
</g>
<!-- Node5 -->
<g id="Node000005" class="node">
<title>Node5</title>
<g id="a_Node000005"><a xlink:title=" ">
<polygon fill="#e0e0e0" stroke="#999999" points="732.5,-19 679.5,-19 679.5,0 732.5,0 732.5,-19"/>
<text text-anchor="middle" x="706" y="-7" font-family="Helvetica,sans-Serif" font-size="10.00">QString</text>
</a>
</g>
</g>
<!-- Node3&#45;&gt;Node5 -->
<g id="edge4_Node000003_Node000005" class="edge">
<title>Node3&#45;&gt;Node5</title>
<g id="a_edge4_Node000003_Node000005"><a xlink:title=" ">
<path fill="none" stroke="#63b8ff" d="M1018.23,-54.98C940.61,-43.92 807.44,-24.95 743.03,-15.78"/>
<polygon fill="#63b8ff" stroke="#63b8ff" points="743.33,-12.28 732.94,-14.34 742.34,-19.21 743.33,-12.28"/>
</a>
</g>
</g>
<!-- Node3&#45;&gt;Node6 -->
<g id="edge5_Node000003_Node000006" class="edge">
<title>Node3&#45;&gt;Node6</title>
<g id="a_edge5_Node000003_Node000006"><a xlink:title=" ">
<path fill="none" stroke="#63b8ff" d="M1093.91,-54.98C1109.55,-46.61 1133.66,-33.7 1151.88,-23.95"/>
<polygon fill="#63b8ff" stroke="#63b8ff" points="1153.64,-26.98 1160.8,-19.17 1150.34,-20.8 1153.64,-26.98"/>
</a>
</g>
</g>
<!-- Node7 -->
<g id="Node000007" class="node">
<title>Node7</title>
<g id="a_Node000007"><a xlink:title=" ">
<polygon fill="#e0e0e0" stroke="#999999" points="1116.5,-19 1061.5,-19 1061.5,0 1116.5,0 1116.5,-19"/>
<text text-anchor="middle" x="1089" y="-7" font-family="Helvetica,sans-Serif" font-size="10.00">QVector</text>
</a>
</g>
</g>
<!-- Node3&#45;&gt;Node7 -->
<g id="edge6_Node000003_Node000007" class="edge">
<title>Node3&#45;&gt;Node7</title>
<g id="a_edge6_Node000003_Node000007"><a xlink:title=" ">
<path fill="none" stroke="#63b8ff" d="M1079.82,-54.75C1081.26,-47.8 1083.32,-37.85 1085.13,-29.13"/>
<polygon fill="#63b8ff" stroke="#63b8ff" points="1088.61,-29.59 1087.22,-19.09 1081.76,-28.17 1088.61,-29.59"/>
</a>
</g>
</g>
<!-- Node8 -->
<g id="Node000008" class="node">
<title>Node8</title>
<g id="a_Node000008"><a xlink:title=" ">
<polygon fill="#e0e0e0" stroke="#999999" points="1043.5,-19 984.5,-19 984.5,0 1043.5,0 1043.5,-19"/>
<text text-anchor="middle" x="1014" y="-7" font-family="Helvetica,sans-Serif" font-size="10.00">QtGlobal</text>
</a>
</g>
</g>
<!-- Node3&#45;&gt;Node8 -->
<g id="edge7_Node000003_Node000008" class="edge">
<title>Node3&#45;&gt;Node8</title>
<g id="a_edge7_Node000003_Node000008"><a xlink:title=" ">
<path fill="none" stroke="#63b8ff" d="M1067.72,-54.98C1058.16,-47.07 1043.72,-35.11 1032.22,-25.58"/>
<polygon fill="#63b8ff" stroke="#63b8ff" points="1034.4,-22.85 1024.47,-19.17 1029.94,-28.24 1034.4,-22.85"/>
</a>
</g>
</g>
<!-- Node18&#45;&gt;Node4 -->
<g id="edge20_Node000018_Node000004" class="edge">
<title>Node18&#45;&gt;Node4</title>
<g id="a_edge20_Node000018_Node000004"><a xlink:title=" ">
<path fill="none" stroke="#63b8ff" d="M56.82,-109.75C53.99,-96.09 50.93,-69.74 65,-55 100.91,-17.39 254.41,-11.03 333.09,-10.3"/>
<polygon fill="#63b8ff" stroke="#63b8ff" points="333.24,-13.8 343.22,-10.23 333.2,-6.8 333.24,-13.8"/>
</a>
</g>
</g>
<!-- Node19&#45;&gt;Node5 -->
<g id="edge23_Node000019_Node000005" class="edge">
<title>Node19&#45;&gt;Node5</title>
<g id="a_edge23_Node000019_Node000005"><a xlink:title=" ">
<path fill="none" stroke="#63b8ff" d="M218.62,-109.76C221.75,-95.62 230.06,-67.98 249,-55 283.38,-31.45 566.49,-16.68 669.07,-12.06"/>
<polygon fill="#63b8ff" stroke="#63b8ff" points="669.42,-15.55 679.26,-11.61 669.11,-8.56 669.42,-15.55"/>
</a>
</g>
</g>
<!-- Node20 -->
<g id="Node000020" class="node">
<title>Node20</title>
<g id="a_Node000020"><a xlink:title=" ">
<polygon fill="#e0e0e0" stroke="#999999" points="114,-74 74,-74 74,-55 114,-55 114,-74"/>
<text text-anchor="middle" x="94" y="-62" font-family="Helvetica,sans-Serif" font-size="10.00">QSet</text>
</a>
</g>
</g>
<!-- Node19&#45;&gt;Node20 -->
<g id="edge22_Node000019_Node000020" class="edge">
<title>Node19&#45;&gt;Node20</title>
<g id="a_edge22_Node000019_Node000020"><a xlink:title=" ">
<path fill="none" stroke="#63b8ff" d="M197.24,-109.98C177.27,-101.38 146.2,-87.99 123.35,-78.15"/>
<polygon fill="#63b8ff" stroke="#63b8ff" points="124.69,-74.91 114.12,-74.17 121.92,-81.34 124.69,-74.91"/>
</a>
</g>
</g>
<!-- Node21 -->
<g id="Node000021" class="node">
<title>Node21</title>
<g id="a_Node000021"><a xlink:title=" ">
<polygon fill="#e0e0e0" stroke="#999999" points="202,-74 132,-74 132,-55 202,-55 202,-74"/>
<text text-anchor="middle" x="167" y="-62" font-family="Helvetica,sans-Serif" font-size="10.00">QStringList</text>
</a>
</g>
</g>
<!-- Node19&#45;&gt;Node21 -->
<g id="edge24_Node000019_Node000021" class="edge">
<title>Node19&#45;&gt;Node21</title>
<g id="a_edge24_Node000019_Node000021"><a xlink:title=" ">
<path fill="none" stroke="#63b8ff" d="M208.74,-109.75C201.54,-102.11 190.89,-90.82 182.15,-81.56"/>
<polygon fill="#63b8ff" stroke="#63b8ff" points="184.51,-78.96 175.1,-74.09 179.42,-83.76 184.51,-78.96"/>
</a>
</g>
</g>
</g>
</svg>
