<?xml version="1.0" encoding="UTF-8" standalone="no"?>
<!DOCTYPE svg PUBLIC "-//W3C//DTD SVG 1.1//EN"
 "http://www.w3.org/Graphics/SVG/1.1/DTD/svg11.dtd">
<!-- Generated by graphviz version 2.43.0 (0)
 -->
<!-- Title: core/utils/AtomicFileWriter.cpp Pages: 1 -->
<svg width="518pt" height="137pt"
 viewBox="0.00 0.00 518.00 137.00" xmlns="http://www.w3.org/2000/svg" xmlns:xlink="http://www.w3.org/1999/xlink">
<g id="graph0" class="graph" transform="scale(1 1) rotate(0) translate(4 133)">
<title>core/utils/AtomicFileWriter.cpp</title>
<!-- Node1 -->
<g id="Node000001" class="node">
<title>Node1</title>
<g id="a_Node000001"><a xlink:title=" ">
<polygon fill="#999999" stroke="#666666" points="366,-129 200,-129 200,-110 366,-110 366,-129"/>
<text text-anchor="middle" x="283" y="-117" font-family="Helvetica,sans-Serif" font-size="10.00">core/utils/AtomicFileWriter.cpp</text>
</a>
</g>
</g>
<!-- Node2 -->
<g id="Node000002" class="node">
<title>Node2</title>
<g id="a_Node000002"><a xlink:href="AtomicFileWriter_8h.html" target="_top" xlink:title=" ">
<polygon fill="white" stroke="#666666" points="187.5,-74 80.5,-74 80.5,-55 187.5,-55 187.5,-74"/>
<text text-anchor="middle" x="134" y="-62" font-family="Helvetica,sans-Serif" font-size="10.00">AtomicFileWriter.h</text>
</a>
</g>
</g>
<!-- Node1&#45;&gt;Node2 -->
<g id="edge1_Node000001_Node000002" class="edge">
<title>Node1&#45;&gt;Node2</title>
<g id="a_edge1_Node000001_Node000002"><a xlink:title=" ">
<path fill="none" stroke="#63b8ff" d="M259.06,-109.98C234.44,-101.23 195.88,-87.51 168.08,-77.62"/>
<polygon fill="#63b8ff" stroke="#63b8ff" points="168.97,-74.22 158.38,-74.17 166.62,-80.82 168.97,-74.22"/>
</a>
</g>
</g>
<!-- Node3 -->
<g id="Node000003" class="node">
<title>Node3</title>
<g id="a_Node000003"><a xlink:title=" ">
<polygon fill="#e0e0e0" stroke="#999999" points="38,-19 0,-19 0,0 38,0 38,-19"/>
<text text-anchor="middle" x="19" y="-7" font-family="Helvetica,sans-Serif" font-size="10.00">QDir</text>
</a>
</g>
</g>
<!-- Node1&#45;&gt;Node3 -->
<g id="edge9_Node000001_Node000003" class="edge">
<title>Node1&#45;&gt;Node3</title>
<g id="a_edge9_Node000001_Node000003"><a xlink:title=" ">
<path fill="none" stroke="#63b8ff" d="M199.96,-113.74C159.06,-108.34 110.42,-97.11 72,-74 53.23,-62.71 38,-42.32 28.77,-27.69"/>
<polygon fill="#63b8ff" stroke="#63b8ff" points="31.74,-25.83 23.59,-19.06 25.73,-29.43 31.74,-25.83"/>
</a>
</g>
</g>
<!-- Node8 -->
<g id="Node000008" class="node">
<title>Node8</title>
<g id="a_Node000008"><a xlink:title=" ">
<polygon fill="#e0e0e0" stroke="#999999" points="278,-74 206,-74 206,-55 278,-55 278,-74"/>
<text text-anchor="middle" x="242" y="-62" font-family="Helvetica,sans-Serif" font-size="10.00">QDateTime</text>
</a>
</g>
</g>
<!-- Node1&#45;&gt;Node8 -->
<g id="edge7_Node000001_Node000008" class="edge">
<title>Node1&#45;&gt;Node8</title>
<g id="a_edge7_Node000001_Node000008"><a xlink:title=" ">
<path fill="none" stroke="#63b8ff" d="M276.23,-109.75C270.44,-102.26 261.94,-91.28 254.86,-82.13"/>
<polygon fill="#63b8ff" stroke="#63b8ff" points="257.53,-79.86 248.64,-74.09 251.99,-84.14 257.53,-79.86"/>
</a>
</g>
</g>
<!-- Node9 -->
<g id="Node000009" class="node">
<title>Node9</title>
<g id="a_Node000009"><a xlink:title=" ">
<polygon fill="#e0e0e0" stroke="#999999" points="352,-74 296,-74 296,-55 352,-55 352,-74"/>
<text text-anchor="middle" x="324" y="-62" font-family="Helvetica,sans-Serif" font-size="10.00">QDebug</text>
</a>
</g>
</g>
<!-- Node1&#45;&gt;Node9 -->
<g id="edge8_Node000001_Node000009" class="edge">
<title>Node1&#45;&gt;Node9</title>
<g id="a_edge8_Node000001_Node000009"><a xlink:title=" ">
<path fill="none" stroke="#63b8ff" d="M289.77,-109.75C295.56,-102.26 304.06,-91.28 311.14,-82.13"/>
<polygon fill="#63b8ff" stroke="#63b8ff" points="314.01,-84.14 317.36,-74.09 308.47,-79.86 314.01,-84.14"/>
</a>
</g>
</g>
<!-- Node10 -->
<g id="Node000010" class="node">
<title>Node10</title>
<g id="a_Node000010"><a xlink:title=" ">
<polygon fill="#e0e0e0" stroke="#999999" points="434,-74 370,-74 370,-55 434,-55 434,-74"/>
<text text-anchor="middle" x="402" y="-62" font-family="Helvetica,sans-Serif" font-size="10.00">QLockFile</text>
</a>
</g>
</g>
<!-- Node1&#45;&gt;Node10 -->
<g id="edge10_Node000001_Node000010" class="edge">
<title>Node1&#45;&gt;Node10</title>
<g id="a_edge10_Node000001_Node000010"><a xlink:title=" ">
<path fill="none" stroke="#63b8ff" d="M302.12,-109.98C321.35,-101.42 351.23,-88.11 373.31,-78.28"/>
<polygon fill="#63b8ff" stroke="#63b8ff" points="374.82,-81.44 382.53,-74.17 371.97,-75.04 374.82,-81.44"/>
</a>
</g>
</g>
<!-- Node11 -->
<g id="Node000011" class="node">
<title>Node11</title>
<g id="a_Node000011"><a xlink:title=" ">
<polygon fill="#e0e0e0" stroke="#999999" points="510,-74 452,-74 452,-55 510,-55 510,-74"/>
<text text-anchor="middle" x="481" y="-62" font-family="Helvetica,sans-Serif" font-size="10.00">QThread</text>
</a>
</g>
</g>
<!-- Node1&#45;&gt;Node11 -->
<g id="edge11_Node000001_Node000011" class="edge">
<title>Node1&#45;&gt;Node11</title>
<g id="a_edge11_Node000001_Node000011"><a xlink:title=" ">
<path fill="none" stroke="#63b8ff" d="M314.81,-109.98C349.39,-100.73 404.66,-85.94 441.86,-75.98"/>
<polygon fill="#63b8ff" stroke="#63b8ff" points="443.09,-79.27 451.85,-73.3 441.28,-72.51 443.09,-79.27"/>
</a>
</g>
</g>
<!-- Node2&#45;&gt;Node3 -->
<g id="edge2_Node000002_Node000003" class="edge">
<title>Node2&#45;&gt;Node3</title>
<g id="a_edge2_Node000002_Node000003"><a xlink:title=" ">
<path fill="none" stroke="#63b8ff" d="M115.52,-54.98C97.02,-46.46 68.32,-33.23 47.02,-23.41"/>
<polygon fill="#63b8ff" stroke="#63b8ff" points="48.36,-20.18 37.81,-19.17 45.43,-26.53 48.36,-20.18"/>
</a>
</g>
</g>
<!-- Node4 -->
<g id="Node000004" class="node">
<title>Node4</title>
<g id="a_Node000004"><a xlink:title=" ">
<polygon fill="#e0e0e0" stroke="#999999" points="97.5,-19 56.5,-19 56.5,0 97.5,0 97.5,-19"/>
<text text-anchor="middle" x="77" y="-7" font-family="Helvetica,sans-Serif" font-size="10.00">QFile</text>
</a>
</g>
</g>
<!-- Node2&#45;&gt;Node4 -->
<g id="edge3_Node000002_Node000004" class="edge">
<title>Node2&#45;&gt;Node4</title>
<g id="a_edge3_Node000002_Node000004"><a xlink:title=" ">
<path fill="none" stroke="#63b8ff" d="M124.84,-54.98C116.5,-47.23 103.97,-35.58 93.82,-26.14"/>
<polygon fill="#63b8ff" stroke="#63b8ff" points="96.03,-23.42 86.32,-19.17 91.26,-28.54 96.03,-23.42"/>
</a>
</g>
</g>
<!-- Node5 -->
<g id="Node000005" class="node">
<title>Node5</title>
<g id="a_Node000005"><a xlink:title=" ">
<polygon fill="#e0e0e0" stroke="#999999" points="176,-19 116,-19 116,0 176,0 176,-19"/>
<text text-anchor="middle" x="146" y="-7" font-family="Helvetica,sans-Serif" font-size="10.00">QFileInfo</text>
</a>
</g>
</g>
<!-- Node2&#45;&gt;Node5 -->
<g id="edge4_Node000002_Node000005" class="edge">
<title>Node2&#45;&gt;Node5</title>
<g id="a_edge4_Node000002_Node000005"><a xlink:title=" ">
<path fill="none" stroke="#63b8ff" d="M135.98,-54.75C137.57,-47.72 139.86,-37.62 141.85,-28.84"/>
<polygon fill="#63b8ff" stroke="#63b8ff" points="145.26,-29.62 144.06,-19.09 138.43,-28.07 145.26,-29.62"/>
</a>
</g>
</g>
<!-- Node6 -->
<g id="Node000006" class="node">
<title>Node6</title>
<g id="a_Node000006"><a xlink:title=" ">
<polygon fill="#e0e0e0" stroke="#999999" points="247.5,-19 194.5,-19 194.5,0 247.5,0 247.5,-19"/>
<text text-anchor="middle" x="221" y="-7" font-family="Helvetica,sans-Serif" font-size="10.00">QString</text>
</a>
</g>
</g>
<!-- Node2&#45;&gt;Node6 -->
<g id="edge5_Node000002_Node000006" class="edge">
<title>Node2&#45;&gt;Node6</title>
<g id="a_edge5_Node000002_Node000006"><a xlink:title=" ">
<path fill="none" stroke="#63b8ff" d="M147.98,-54.98C161.47,-46.77 182.13,-34.18 198.04,-24.49"/>
<polygon fill="#63b8ff" stroke="#63b8ff" points="200.05,-27.36 206.77,-19.17 196.41,-21.38 200.05,-27.36"/>
</a>
</g>
</g>
<!-- Node7 -->
<g id="Node000007" class="node">
<title>Node7</title>
<g id="a_Node000007"><a xlink:title=" ">
<polygon fill="#e0e0e0" stroke="#999999" points="330.5,-19 265.5,-19 265.5,0 330.5,0 330.5,-19"/>
<text text-anchor="middle" x="298" y="-7" font-family="Helvetica,sans-Serif" font-size="10.00">functional</text>
</a>
</g>
</g>
<!-- Node2&#45;&gt;Node7 -->
<g id="edge6_Node000002_Node000007" class="edge">
<title>Node2&#45;&gt;Node7</title>
<g id="a_edge6_Node000002_Node000007"><a xlink:title=" ">
<path fill="none" stroke="#63b8ff" d="M160.35,-54.98C187.76,-46.13 230.89,-32.19 261.56,-22.28"/>
<polygon fill="#63b8ff" stroke="#63b8ff" points="263,-25.49 271.44,-19.08 260.85,-18.83 263,-25.49"/>
</a>
</g>
</g>
</g>
</svg>
