<?xml version="1.0" encoding="UTF-8" standalone="no"?>
<!DOCTYPE svg PUBLIC "-//W3C//DTD SVG 1.1//EN"
 "http://www.w3.org/Graphics/SVG/1.1/DTD/svg11.dtd">
<!-- Generated by graphviz version 2.43.0 (0)
 -->
<!-- Title: utils/cli/BaseConverter.h Pages: 1 -->
<svg width="768pt" height="137pt"
 viewBox="0.00 0.00 767.50 137.00" xmlns="http://www.w3.org/2000/svg" xmlns:xlink="http://www.w3.org/1999/xlink">
<g id="graph0" class="graph" transform="scale(1 1) rotate(0) translate(4 133)">
<title>utils/cli/BaseConverter.h</title>
<!-- Node1 -->
<g id="Node000001" class="node">
<title>Node1</title>
<g id="a_Node000001"><a xlink:title=" ">
<polygon fill="#999999" stroke="#666666" points="399.5,-129 264.5,-129 264.5,-110 399.5,-110 399.5,-129"/>
<text text-anchor="middle" x="332" y="-117" font-family="Helvetica,sans-Serif" font-size="10.00">utils/cli/BaseConverter.h</text>
</a>
</g>
</g>
<!-- Node2 -->
<g id="Node000002" class="node">
<title>Node2</title>
<g id="a_Node000002"><a xlink:href="BaseConverter_8cpp.html" target="_top" xlink:title=" ">
<polygon fill="white" stroke="#666666" points="146,-74 0,-74 0,-55 146,-55 146,-74"/>
<text text-anchor="middle" x="73" y="-62" font-family="Helvetica,sans-Serif" font-size="10.00">utils/cli/BaseConverter.cpp</text>
</a>
</g>
</g>
<!-- Node1&#45;&gt;Node2 -->
<g id="edge1_Node000001_Node000002" class="edge">
<title>Node1&#45;&gt;Node2</title>
<g id="a_edge1_Node000001_Node000002"><a xlink:title=" ">
<path fill="none" stroke="#63b8ff" d="M280.4,-107.94C231.85,-98.01 160.06,-83.31 114.94,-74.08"/>
<polygon fill="#63b8ff" stroke="#63b8ff" points="279.89,-111.41 290.39,-109.98 281.29,-104.55 279.89,-111.41"/>
</a>
</g>
</g>
<!-- Node3 -->
<g id="Node000003" class="node">
<title>Node3</title>
<g id="a_Node000003"><a xlink:href="BatchConverter_8h.html" target="_top" xlink:title=" ">
<polygon fill="white" stroke="#666666" points="303.5,-74 164.5,-74 164.5,-55 303.5,-55 303.5,-74"/>
<text text-anchor="middle" x="234" y="-62" font-family="Helvetica,sans-Serif" font-size="10.00">utils/cli/BatchConverter.h</text>
</a>
</g>
</g>
<!-- Node1&#45;&gt;Node3 -->
<g id="edge2_Node000001_Node000003" class="edge">
<title>Node1&#45;&gt;Node3</title>
<g id="a_edge2_Node000001_Node000003"><a xlink:title=" ">
<path fill="none" stroke="#63b8ff" d="M306.97,-104.97C289.06,-95.28 265.47,-82.52 250.03,-74.17"/>
<polygon fill="#63b8ff" stroke="#63b8ff" points="305.79,-108.31 316.25,-109.98 309.12,-102.15 305.79,-108.31"/>
</a>
</g>
</g>
<!-- Node5 -->
<g id="Node000005" class="node">
<title>Node5</title>
<g id="a_Node000005"><a xlink:href="CliConverter_8cpp.html" target="_top" xlink:title=" ">
<polygon fill="white" stroke="#666666" points="399.5,-19 264.5,-19 264.5,0 399.5,0 399.5,-19"/>
<text text-anchor="middle" x="332" y="-7" font-family="Helvetica,sans-Serif" font-size="10.00">utils/cli/CliConverter.cpp</text>
</a>
</g>
</g>
<!-- Node1&#45;&gt;Node5 -->
<g id="edge8_Node000001_Node000005" class="edge">
<title>Node1&#45;&gt;Node5</title>
<g id="a_edge8_Node000001_Node000005"><a xlink:title=" ">
<path fill="none" stroke="#63b8ff" d="M332,-99.48C332,-75.84 332,-36.5 332,-19.16"/>
<polygon fill="#63b8ff" stroke="#63b8ff" points="328.5,-99.66 332,-109.66 335.5,-99.66 328.5,-99.66"/>
</a>
</g>
</g>
<!-- Node6 -->
<g id="Node000006" class="node">
<title>Node6</title>
<g id="a_Node000006"><a xlink:href="BomConverter_8h.html" target="_top" xlink:title=" ">
<polygon fill="white" stroke="#666666" points="494,-74 360,-74 360,-55 494,-55 494,-74"/>
<text text-anchor="middle" x="427" y="-62" font-family="Helvetica,sans-Serif" font-size="10.00">utils/cli/BomConverter.h</text>
</a>
</g>
</g>
<!-- Node1&#45;&gt;Node6 -->
<g id="edge5_Node000001_Node000006" class="edge">
<title>Node1&#45;&gt;Node6</title>
<g id="a_edge5_Node000001_Node000006"><a xlink:title=" ">
<path fill="none" stroke="#63b8ff" d="M356.26,-104.97C373.63,-95.28 396.49,-82.52 411.46,-74.17"/>
<polygon fill="#63b8ff" stroke="#63b8ff" points="354.29,-102.06 347.26,-109.98 357.7,-108.17 354.29,-102.06"/>
</a>
</g>
</g>
<!-- Node8 -->
<g id="Node000008" class="node">
<title>Node8</title>
<g id="a_Node000008"><a xlink:href="ComponentConverter_8h.html" target="_top" xlink:title=" ">
<polygon fill="white" stroke="#666666" points="679.5,-74 512.5,-74 512.5,-55 679.5,-55 679.5,-74"/>
<text text-anchor="middle" x="596" y="-62" font-family="Helvetica,sans-Serif" font-size="10.00">utils/cli/ComponentConverter.h</text>
</a>
</g>
</g>
<!-- Node1&#45;&gt;Node8 -->
<g id="edge9_Node000001_Node000008" class="edge">
<title>Node1&#45;&gt;Node8</title>
<g id="a_edge9_Node000001_Node000008"><a xlink:title=" ">
<path fill="none" stroke="#63b8ff" d="M384.29,-108C433.78,-98.07 507.17,-83.33 553.25,-74.08"/>
<polygon fill="#63b8ff" stroke="#63b8ff" points="383.53,-104.58 374.42,-109.98 384.91,-111.45 383.53,-104.58"/>
</a>
</g>
</g>
<!-- Node4 -->
<g id="Node000004" class="node">
<title>Node4</title>
<g id="a_Node000004"><a xlink:href="BatchConverter_8cpp.html" target="_top" xlink:title=" ">
<polygon fill="white" stroke="#666666" points="246,-19 96,-19 96,0 246,0 246,-19"/>
<text text-anchor="middle" x="171" y="-7" font-family="Helvetica,sans-Serif" font-size="10.00">utils/cli/BatchConverter.cpp</text>
</a>
</g>
</g>
<!-- Node3&#45;&gt;Node4 -->
<g id="edge3_Node000003_Node000004" class="edge">
<title>Node3&#45;&gt;Node4</title>
<g id="a_edge3_Node000003_Node000004"><a xlink:title=" ">
<path fill="none" stroke="#63b8ff" d="M215.96,-48.32C204.73,-38.87 190.68,-27.06 181.31,-19.17"/>
<polygon fill="#63b8ff" stroke="#63b8ff" points="213.97,-51.23 223.88,-54.98 218.48,-45.87 213.97,-51.23"/>
</a>
</g>
</g>
<!-- Node3&#45;&gt;Node5 -->
<g id="edge4_Node000003_Node000005" class="edge">
<title>Node3&#45;&gt;Node5</title>
<g id="a_edge4_Node000003_Node000005"><a xlink:title=" ">
<path fill="none" stroke="#63b8ff" d="M259.03,-49.97C276.94,-40.28 300.53,-27.52 315.97,-19.17"/>
<polygon fill="#63b8ff" stroke="#63b8ff" points="256.88,-47.15 249.75,-54.98 260.21,-53.31 256.88,-47.15"/>
</a>
</g>
</g>
<!-- Node6&#45;&gt;Node5 -->
<g id="edge7_Node000006_Node000005" class="edge">
<title>Node6&#45;&gt;Node5</title>
<g id="a_edge7_Node000006_Node000005"><a xlink:title=" ">
<path fill="none" stroke="#63b8ff" d="M402.74,-49.97C385.37,-40.28 362.51,-27.52 347.54,-19.17"/>
<polygon fill="#63b8ff" stroke="#63b8ff" points="401.3,-53.17 411.74,-54.98 404.71,-47.06 401.3,-53.17"/>
</a>
</g>
</g>
<!-- Node7 -->
<g id="Node000007" class="node">
<title>Node7</title>
<g id="a_Node000007"><a xlink:href="BomConverter_8cpp.html" target="_top" xlink:title=" ">
<polygon fill="white" stroke="#666666" points="562.5,-19 417.5,-19 417.5,0 562.5,0 562.5,-19"/>
<text text-anchor="middle" x="490" y="-7" font-family="Helvetica,sans-Serif" font-size="10.00">utils/cli/BomConverter.cpp</text>
</a>
</g>
</g>
<!-- Node6&#45;&gt;Node7 -->
<g id="edge6_Node000006_Node000007" class="edge">
<title>Node6&#45;&gt;Node7</title>
<g id="a_edge6_Node000006_Node000007"><a xlink:title=" ">
<path fill="none" stroke="#63b8ff" d="M445.04,-48.32C456.27,-38.87 470.32,-27.06 479.69,-19.17"/>
<polygon fill="#63b8ff" stroke="#63b8ff" points="442.52,-45.87 437.12,-54.98 447.03,-51.23 442.52,-45.87"/>
</a>
</g>
</g>
<!-- Node8&#45;&gt;Node5 -->
<g id="edge10_Node000008_Node000005" class="edge">
<title>Node8&#45;&gt;Node5</title>
<g id="a_edge10_Node000008_Node000005"><a xlink:title=" ">
<path fill="none" stroke="#63b8ff" d="M543.71,-53C494.22,-43.07 420.83,-28.33 374.75,-19.08"/>
<polygon fill="#63b8ff" stroke="#63b8ff" points="543.09,-56.45 553.58,-54.98 544.47,-49.58 543.09,-56.45"/>
</a>
</g>
</g>
<!-- Node9 -->
<g id="Node000009" class="node">
<title>Node9</title>
<g id="a_Node000009"><a xlink:href="ComponentConverter_8cpp.html" target="_top" xlink:title=" ">
<polygon fill="white" stroke="#666666" points="759.5,-19 580.5,-19 580.5,0 759.5,0 759.5,-19"/>
<text text-anchor="middle" x="670" y="-7" font-family="Helvetica,sans-Serif" font-size="10.00">utils/cli/ComponentConverter.cpp</text>
</a>
</g>
</g>
<!-- Node8&#45;&gt;Node9 -->
<g id="edge11_Node000008_Node000009" class="edge">
<title>Node8&#45;&gt;Node9</title>
<g id="a_edge11_Node000008_Node000009"><a xlink:title=" ">
<path fill="none" stroke="#63b8ff" d="M616.03,-49.15C629.41,-39.57 646.56,-27.29 657.89,-19.17"/>
<polygon fill="#63b8ff" stroke="#63b8ff" points="613.98,-46.32 607.89,-54.98 618.06,-52.01 613.98,-46.32"/>
</a>
</g>
</g>
</g>
</svg>
