<?xml version="1.0" encoding="UTF-8" standalone="no"?>
<!DOCTYPE svg PUBLIC "-//W3C//DTD SVG 1.1//EN"
 "http://www.w3.org/Graphics/SVG/1.1/DTD/svg11.dtd">
<!-- Generated by graphviz version 2.43.0 (0)
 -->
<!-- Title: utils/cli/BatchConverter.h Pages: 1 -->
<svg width="379pt" height="137pt"
 viewBox="0.00 0.00 378.50 137.00" xmlns="http://www.w3.org/2000/svg" xmlns:xlink="http://www.w3.org/1999/xlink">
<g id="graph0" class="graph" transform="scale(1 1) rotate(0) translate(4 133)">
<title>utils/cli/BatchConverter.h</title>
<!-- Node1 -->
<g id="Node000001" class="node">
<title>Node1</title>
<g id="a_Node000001"><a xlink:title=" ">
<polygon fill="#999999" stroke="#666666" points="210.5,-129 71.5,-129 71.5,-110 210.5,-110 210.5,-129"/>
<text text-anchor="middle" x="141" y="-117" font-family="Helvetica,sans-Serif" font-size="10.00">utils/cli/BatchConverter.h</text>
</a>
</g>
</g>
<!-- Node2 -->
<g id="Node000002" class="node">
<title>Node2</title>
<g id="a_Node000002"><a xlink:href="BaseConverter_8h.html" target="_top" xlink:title=" ">
<polygon fill="white" stroke="#666666" points="112.5,-74 15.5,-74 15.5,-55 112.5,-55 112.5,-74"/>
<text text-anchor="middle" x="64" y="-62" font-family="Helvetica,sans-Serif" font-size="10.00">BaseConverter.h</text>
</a>
</g>
</g>
<!-- Node1&#45;&gt;Node2 -->
<g id="edge1_Node000001_Node000002" class="edge">
<title>Node1&#45;&gt;Node2</title>
<g id="a_edge1_Node000001_Node000002"><a xlink:title=" ">
<path fill="none" stroke="#63b8ff" d="M128.63,-109.98C116.91,-101.92 99.08,-89.65 85.11,-80.03"/>
<polygon fill="#63b8ff" stroke="#63b8ff" points="86.82,-76.96 76.6,-74.17 82.85,-82.72 86.82,-76.96"/>
</a>
</g>
</g>
<!-- Node5 -->
<g id="Node000005" class="node">
<title>Node5</title>
<g id="a_Node000005"><a xlink:href="ExportProgress_8h.html" target="_top" xlink:title=" ">
<polygon fill="white" stroke="#666666" points="307.5,-74 130.5,-74 130.5,-55 307.5,-55 307.5,-74"/>
<text text-anchor="middle" x="219" y="-62" font-family="Helvetica,sans-Serif" font-size="10.00">services/export/ExportProgress.h</text>
</a>
</g>
</g>
<!-- Node1&#45;&gt;Node5 -->
<g id="edge4_Node000001_Node000005" class="edge">
<title>Node1&#45;&gt;Node5</title>
<g id="a_edge4_Node000001_Node000005"><a xlink:title=" ">
<path fill="none" stroke="#63b8ff" d="M153.53,-109.98C165.4,-101.92 183.46,-89.65 197.61,-80.03"/>
<polygon fill="#63b8ff" stroke="#63b8ff" points="199.94,-82.69 206.24,-74.17 196,-76.9 199.94,-82.69"/>
</a>
</g>
</g>
<!-- Node3 -->
<g id="Node000003" class="node">
<title>Node3</title>
<g id="a_Node000003"><a xlink:title=" ">
<polygon fill="#e0e0e0" stroke="#999999" points="56,-19 0,-19 0,0 56,0 56,-19"/>
<text text-anchor="middle" x="28" y="-7" font-family="Helvetica,sans-Serif" font-size="10.00">QObject</text>
</a>
</g>
</g>
<!-- Node2&#45;&gt;Node3 -->
<g id="edge2_Node000002_Node000003" class="edge">
<title>Node2&#45;&gt;Node3</title>
<g id="a_edge2_Node000002_Node000003"><a xlink:title=" ">
<path fill="none" stroke="#63b8ff" d="M58.06,-54.75C53.02,-47.34 45.66,-36.5 39.49,-27.41"/>
<polygon fill="#63b8ff" stroke="#63b8ff" points="42.35,-25.39 33.83,-19.09 36.56,-29.33 42.35,-25.39"/>
</a>
</g>
</g>
<!-- Node4 -->
<g id="Node000004" class="node">
<title>Node4</title>
<g id="a_Node000004"><a xlink:title=" ">
<polygon fill="#e0e0e0" stroke="#999999" points="127.5,-19 74.5,-19 74.5,0 127.5,0 127.5,-19"/>
<text text-anchor="middle" x="101" y="-7" font-family="Helvetica,sans-Serif" font-size="10.00">QString</text>
</a>
</g>
</g>
<!-- Node2&#45;&gt;Node4 -->
<g id="edge3_Node000002_Node000004" class="edge">
<title>Node2&#45;&gt;Node4</title>
<g id="a_edge3_Node000002_Node000004"><a xlink:title=" ">
<path fill="none" stroke="#63b8ff" d="M70.11,-54.75C75.28,-47.34 82.85,-36.5 89.19,-27.41"/>
<polygon fill="#63b8ff" stroke="#63b8ff" points="92.15,-29.29 95,-19.09 86.41,-25.29 92.15,-29.29"/>
</a>
</g>
</g>
<!-- Node5&#45;&gt;Node4 -->
<g id="edge8_Node000005_Node000004" class="edge">
<title>Node5&#45;&gt;Node4</title>
<g id="a_edge8_Node000005_Node000004"><a xlink:title=" ">
<path fill="none" stroke="#63b8ff" d="M200.04,-54.98C180.97,-46.42 151.34,-33.11 129.45,-23.28"/>
<polygon fill="#63b8ff" stroke="#63b8ff" points="130.86,-20.07 120.3,-19.17 127.99,-26.46 130.86,-20.07"/>
</a>
</g>
</g>
<!-- Node6 -->
<g id="Node000006" class="node">
<title>Node6</title>
<g id="a_Node000006"><a xlink:title=" ">
<polygon fill="#e0e0e0" stroke="#999999" points="218,-19 146,-19 146,0 218,0 218,-19"/>
<text text-anchor="middle" x="182" y="-7" font-family="Helvetica,sans-Serif" font-size="10.00">QDateTime</text>
</a>
</g>
</g>
<!-- Node5&#45;&gt;Node6 -->
<g id="edge5_Node000005_Node000006" class="edge">
<title>Node5&#45;&gt;Node6</title>
<g id="a_edge5_Node000005_Node000006"><a xlink:title=" ">
<path fill="none" stroke="#63b8ff" d="M212.89,-54.75C207.72,-47.34 200.15,-36.5 193.81,-27.41"/>
<polygon fill="#63b8ff" stroke="#63b8ff" points="196.59,-25.29 188,-19.09 190.85,-29.29 196.59,-25.29"/>
</a>
</g>
</g>
<!-- Node7 -->
<g id="Node000007" class="node">
<title>Node7</title>
<g id="a_Node000007"><a xlink:title=" ">
<polygon fill="#e0e0e0" stroke="#999999" points="281.5,-19 236.5,-19 236.5,0 281.5,0 281.5,-19"/>
<text text-anchor="middle" x="259" y="-7" font-family="Helvetica,sans-Serif" font-size="10.00">QMap</text>
</a>
</g>
</g>
<!-- Node5&#45;&gt;Node7 -->
<g id="edge6_Node000005_Node000007" class="edge">
<title>Node5&#45;&gt;Node7</title>
<g id="a_edge6_Node000005_Node000007"><a xlink:title=" ">
<path fill="none" stroke="#63b8ff" d="M225.61,-54.75C231.26,-47.26 239.54,-36.28 246.45,-27.13"/>
<polygon fill="#63b8ff" stroke="#63b8ff" points="249.29,-29.18 252.52,-19.09 243.7,-24.96 249.29,-29.18"/>
</a>
</g>
</g>
<!-- Node8 -->
<g id="Node000008" class="node">
<title>Node8</title>
<g id="a_Node000008"><a xlink:title=" ">
<polygon fill="#e0e0e0" stroke="#999999" points="370.5,-19 299.5,-19 299.5,0 370.5,0 370.5,-19"/>
<text text-anchor="middle" x="335" y="-7" font-family="Helvetica,sans-Serif" font-size="10.00">QMetaType</text>
</a>
</g>
</g>
<!-- Node5&#45;&gt;Node8 -->
<g id="edge7_Node000005_Node000008" class="edge">
<title>Node5&#45;&gt;Node8</title>
<g id="a_edge7_Node000005_Node000008"><a xlink:title=" ">
<path fill="none" stroke="#63b8ff" d="M237.64,-54.98C256.3,-46.46 285.25,-33.23 306.74,-23.41"/>
<polygon fill="#63b8ff" stroke="#63b8ff" points="308.38,-26.51 316.02,-19.17 305.47,-20.14 308.38,-26.51"/>
</a>
</g>
</g>
</g>
</svg>
