<?xml version="1.0" encoding="UTF-8" standalone="no"?>
<!DOCTYPE svg PUBLIC "-//W3C//DTD SVG 1.1//EN"
 "http://www.w3.org/Graphics/SVG/1.1/DTD/svg11.dtd">
<!-- Generated by graphviz version 2.43.0 (0)
 -->
<!-- Title: services/CadDataLoader.h Pages: 1 -->
<svg width="612pt" height="247pt"
 viewBox="0.00 0.00 611.87 247.00" xmlns="http://www.w3.org/2000/svg" xmlns:xlink="http://www.w3.org/1999/xlink">
<g id="graph0" class="graph" transform="scale(1 1) rotate(0) translate(4 243)">
<title>services/CadDataLoader.h</title>
<!-- Node1 -->
<g id="Node000001" class="node">
<title>Node1</title>
<g id="a_Node000001"><a xlink:title=" ">
<polygon fill="#999999" stroke="#666666" points="372.87,-239 229.87,-239 229.87,-220 372.87,-220 372.87,-239"/>
<text text-anchor="middle" x="301.37" y="-227" font-family="Helvetica,sans-Serif" font-size="10.00">services/CadDataLoader.h</text>
</a>
</g>
</g>
<!-- Node2 -->
<g id="Node000002" class="node">
<title>Node2</title>
<g id="a_Node000002"><a xlink:href="ComponentData_8h.html" target="_top" xlink:title=" ">
<polygon fill="white" stroke="#666666" points="318.37,-184 174.37,-184 174.37,-165 318.37,-165 318.37,-184"/>
<text text-anchor="middle" x="246.37" y="-172" font-family="Helvetica,sans-Serif" font-size="10.00">models/ComponentData.h</text>
</a>
</g>
</g>
<!-- Node1&#45;&gt;Node2 -->
<g id="edge1_Node000001_Node000002" class="edge">
<title>Node1&#45;&gt;Node2</title>
<g id="a_edge1_Node000001_Node000002"><a xlink:title=" ">
<path fill="none" stroke="#63b8ff" d="M292.29,-219.75C284.28,-212.03 272.42,-200.6 262.75,-191.28"/>
<polygon fill="#63b8ff" stroke="#63b8ff" points="264.92,-188.51 255.29,-184.09 260.06,-193.55 264.92,-188.51"/>
</a>
</g>
</g>
<!-- Node3 -->
<g id="Node000003" class="node">
<title>Node3</title>
<g id="a_Node000003"><a xlink:href="FootprintData_8h.html" target="_top" xlink:title=" ">
<polygon fill="white" stroke="#666666" points="400.37,-129 308.37,-129 308.37,-110 400.37,-110 400.37,-129"/>
<text text-anchor="middle" x="354.37" y="-117" font-family="Helvetica,sans-Serif" font-size="10.00">FootprintData.h</text>
</a>
</g>
</g>
<!-- Node1&#45;&gt;Node3 -->
<g id="edge24_Node000001_Node000003" class="edge">
<title>Node1&#45;&gt;Node3</title>
<g id="a_edge24_Node000001_Node000003"><a xlink:title=" ">
<path fill="none" stroke="#63b8ff" d="M306.89,-219.82C312.4,-210.98 320.95,-196.79 327.37,-184 334.85,-169.11 342.17,-151.66 347.3,-138.83"/>
<polygon fill="#63b8ff" stroke="#63b8ff" points="350.65,-139.87 351.05,-129.29 344.13,-137.31 350.65,-139.87"/>
</a>
</g>
</g>
<!-- Node4 -->
<g id="Node000004" class="node">
<title>Node4</title>
<g id="a_Node000004"><a xlink:href="Model3DData_8h.html" target="_top" xlink:title=" ">
<polygon fill="white" stroke="#666666" points="104.37,-74 12.37,-74 12.37,-55 104.37,-55 104.37,-74"/>
<text text-anchor="middle" x="58.37" y="-62" font-family="Helvetica,sans-Serif" font-size="10.00">Model3DData.h</text>
</a>
</g>
</g>
<!-- Node1&#45;&gt;Node4 -->
<g id="edge25_Node000001_Node000004" class="edge">
<title>Node1&#45;&gt;Node4</title>
<g id="a_edge25_Node000001_Node000004"><a xlink:title=" ">
<path fill="none" stroke="#63b8ff" d="M261.51,-219.92C214.4,-207.74 136.82,-180.88 92.37,-129 80.69,-115.36 71.42,-97.04 65.52,-83.58"/>
<polygon fill="#63b8ff" stroke="#63b8ff" points="68.62,-81.91 61.54,-74.02 62.15,-84.59 68.62,-81.91"/>
</a>
</g>
</g>
<!-- Node6 -->
<g id="Node000006" class="node">
<title>Node6</title>
<g id="a_Node000006"><a xlink:title=" ">
<polygon fill="#e0e0e0" stroke="#999999" points="180.37,-19 104.37,-19 104.37,0 180.37,0 180.37,-19"/>
<text text-anchor="middle" x="142.37" y="-7" font-family="Helvetica,sans-Serif" font-size="10.00">QJsonObject</text>
</a>
</g>
</g>
<!-- Node1&#45;&gt;Node6 -->
<g id="edge27_Node000001_Node000006" class="edge">
<title>Node1&#45;&gt;Node6</title>
<g id="a_edge27_Node000001_Node000006"><a xlink:title=" ">
<path fill="none" stroke="#63b8ff" d="M244.85,-219.95C171.09,-205.23 46.35,-167.13 3.37,-74 -0.16,-66.33 -1.6,-61.82 3.37,-55 14.37,-39.94 58.65,-27.49 94.33,-19.62"/>
<polygon fill="#63b8ff" stroke="#63b8ff" points="95.08,-23.04 104.12,-17.53 93.61,-16.2 95.08,-23.04"/>
</a>
</g>
</g>
<!-- Node7 -->
<g id="Node000007" class="node">
<title>Node7</title>
<g id="a_Node000007"><a xlink:title=" ">
<polygon fill="#e0e0e0" stroke="#999999" points="603.87,-19 550.87,-19 550.87,0 603.87,0 603.87,-19"/>
<text text-anchor="middle" x="577.37" y="-7" font-family="Helvetica,sans-Serif" font-size="10.00">QString</text>
</a>
</g>
</g>
<!-- Node1&#45;&gt;Node7 -->
<g id="edge28_Node000001_Node000007" class="edge">
<title>Node1&#45;&gt;Node7</title>
<g id="a_edge28_Node000001_Node000007"><a xlink:title=" ">
<path fill="none" stroke="#63b8ff" d="M335.82,-219.94C385.48,-206.44 478.55,-176.73 545.37,-129 571.78,-110.14 581.98,-104.38 593.37,-74 598.98,-59.05 593.62,-41.39 587.64,-28.49"/>
<polygon fill="#63b8ff" stroke="#63b8ff" points="590.6,-26.6 582.9,-19.32 584.38,-29.81 590.6,-26.6"/>
</a>
</g>
</g>
<!-- Node11 -->
<g id="Node000011" class="node">
<title>Node11</title>
<g id="a_Node000011"><a xlink:href="SymbolData_8h.html" target="_top" xlink:title=" ">
<polygon fill="white" stroke="#666666" points="504.37,-129 418.37,-129 418.37,-110 504.37,-110 504.37,-129"/>
<text text-anchor="middle" x="461.37" y="-117" font-family="Helvetica,sans-Serif" font-size="10.00">SymbolData.h</text>
</a>
</g>
</g>
<!-- Node1&#45;&gt;Node11 -->
<g id="edge26_Node000001_Node000011" class="edge">
<title>Node1&#45;&gt;Node11</title>
<g id="a_edge26_Node000001_Node000011"><a xlink:title=" ">
<path fill="none" stroke="#63b8ff" d="M314.2,-219.84C341.58,-201.36 406.03,-157.86 439.83,-135.05"/>
<polygon fill="#63b8ff" stroke="#63b8ff" points="442.16,-137.69 448.49,-129.2 438.24,-131.89 442.16,-137.69"/>
</a>
</g>
</g>
<!-- Node2&#45;&gt;Node3 -->
<g id="edge2_Node000002_Node000003" class="edge">
<title>Node2&#45;&gt;Node3</title>
<g id="a_edge2_Node000002_Node000003"><a xlink:title=" ">
<path fill="none" stroke="#63b8ff" d="M263.73,-164.98C280.94,-156.54 307.57,-143.47 327.52,-133.68"/>
<polygon fill="#63b8ff" stroke="#63b8ff" points="329.27,-136.72 336.71,-129.17 326.19,-130.43 329.27,-136.72"/>
</a>
</g>
</g>
<!-- Node2&#45;&gt;Node4 -->
<g id="edge12_Node000002_Node000004" class="edge">
<title>Node2&#45;&gt;Node4</title>
<g id="a_edge12_Node000002_Node000004"><a xlink:title=" ">
<path fill="none" stroke="#63b8ff" d="M206.66,-164.94C180.19,-158.02 145.44,-146.51 118.37,-129 99.15,-116.57 81.74,-96.72 70.68,-82.52"/>
<polygon fill="#63b8ff" stroke="#63b8ff" points="73.19,-80.03 64.38,-74.15 67.6,-84.24 73.19,-80.03"/>
</a>
</g>
</g>
<!-- Node2&#45;&gt;Node6 -->
<g id="edge21_Node000002_Node000006" class="edge">
<title>Node2&#45;&gt;Node6</title>
<g id="a_edge21_Node000002_Node000006"><a xlink:title=" ">
<path fill="none" stroke="#63b8ff" d="M228.92,-164.86C214.5,-157.05 194.22,-144.43 180.37,-129 161.92,-108.43 159.88,-100.29 151.37,-74 146.7,-59.56 144.45,-42.5 143.37,-29.7"/>
<polygon fill="#63b8ff" stroke="#63b8ff" points="146.84,-29.08 142.67,-19.34 139.85,-29.55 146.84,-29.08"/>
</a>
</g>
</g>
<!-- Node2&#45;&gt;Node7 -->
<g id="edge23_Node000002_Node000007" class="edge">
<title>Node2&#45;&gt;Node7</title>
<g id="a_edge23_Node000002_Node000007"><a xlink:title=" ">
<path fill="none" stroke="#63b8ff" d="M318.62,-171.94C374.19,-168.31 451.65,-157.87 513.37,-129 547.35,-113.11 561.72,-108.08 577.37,-74 583.78,-60.05 583.22,-42.49 581.37,-29.38"/>
<polygon fill="#63b8ff" stroke="#63b8ff" points="584.76,-28.43 579.56,-19.2 577.87,-29.66 584.76,-28.43"/>
</a>
</g>
</g>
<!-- Node8 -->
<g id="Node000008" class="node">
<title>Node8</title>
<g id="a_Node000008"><a xlink:title=" ">
<polygon fill="#e0e0e0" stroke="#999999" points="231.87,-74 160.87,-74 160.87,-55 231.87,-55 231.87,-74"/>
<text text-anchor="middle" x="196.37" y="-62" font-family="Helvetica,sans-Serif" font-size="10.00">QJsonArray</text>
</a>
</g>
</g>
<!-- Node2&#45;&gt;Node8 -->
<g id="edge20_Node000002_Node000008" class="edge">
<title>Node2&#45;&gt;Node8</title>
<g id="a_edge20_Node000002_Node000008"><a xlink:title=" ">
<path fill="none" stroke="#63b8ff" d="M228.02,-164.88C214.58,-157.46 197.36,-145.36 189.37,-129 182.53,-114.98 185.32,-97.2 189.22,-84.03"/>
<polygon fill="#63b8ff" stroke="#63b8ff" points="192.65,-84.82 192.57,-74.22 186.03,-82.55 192.65,-84.82"/>
</a>
</g>
</g>
<!-- Node2&#45;&gt;Node11 -->
<g id="edge13_Node000002_Node000011" class="edge">
<title>Node2&#45;&gt;Node11</title>
<g id="a_edge13_Node000002_Node000011"><a xlink:title=" ">
<path fill="none" stroke="#63b8ff" d="M280.92,-164.98C317.79,-155.89 376.36,-141.46 416.72,-131.51"/>
<polygon fill="#63b8ff" stroke="#63b8ff" points="417.69,-134.87 426.56,-129.08 416.01,-128.08 417.69,-134.87"/>
</a>
</g>
</g>
<!-- Node13 -->
<g id="Node000013" class="node">
<title>Node13</title>
<g id="a_Node000013"><a xlink:title=" ">
<polygon fill="#e0e0e0" stroke="#999999" points="290.37,-129 198.37,-129 198.37,-110 290.37,-110 290.37,-129"/>
<text text-anchor="middle" x="244.37" y="-117" font-family="Helvetica,sans-Serif" font-size="10.00">QSharedPointer</text>
</a>
</g>
</g>
<!-- Node2&#45;&gt;Node13 -->
<g id="edge22_Node000002_Node000013" class="edge">
<title>Node2&#45;&gt;Node13</title>
<g id="a_edge22_Node000002_Node000013"><a xlink:title=" ">
<path fill="none" stroke="#63b8ff" d="M246.04,-164.75C245.78,-157.8 245.41,-147.85 245.08,-139.13"/>
<polygon fill="#63b8ff" stroke="#63b8ff" points="248.57,-138.95 244.7,-129.09 241.58,-139.21 248.57,-138.95"/>
</a>
</g>
</g>
<!-- Node3&#45;&gt;Node4 -->
<g id="edge3_Node000003_Node000004" class="edge">
<title>Node3&#45;&gt;Node4</title>
<g id="a_edge3_Node000003_Node000004"><a xlink:title=" ">
<path fill="none" stroke="#63b8ff" d="M308.12,-110.22C255.93,-100.87 171,-85.67 114.91,-75.62"/>
<polygon fill="#63b8ff" stroke="#63b8ff" points="115.25,-72.13 104.79,-73.81 114.01,-79.02 115.25,-72.13"/>
</a>
</g>
</g>
<!-- Node3&#45;&gt;Node6 -->
<g id="edge8_Node000003_Node000006" class="edge">
<title>Node3&#45;&gt;Node6</title>
<g id="a_edge8_Node000003_Node000006"><a xlink:title=" ">
<path fill="none" stroke="#63b8ff" d="M339.97,-109.86C318.71,-97.23 277.54,-73.24 241.37,-55 218.49,-43.46 191.97,-31.62 172.15,-23.05"/>
<polygon fill="#63b8ff" stroke="#63b8ff" points="173.29,-19.74 162.72,-19.01 170.53,-26.17 173.29,-19.74"/>
</a>
</g>
</g>
<!-- Node3&#45;&gt;Node7 -->
<g id="edge11_Node000003_Node000007" class="edge">
<title>Node3&#45;&gt;Node7</title>
<g id="a_edge11_Node000003_Node000007"><a xlink:title=" ">
<path fill="none" stroke="#63b8ff" d="M343.11,-109.86C327.71,-97.02 303.59,-72.54 318.37,-55 346.37,-21.79 475.99,-13.36 540.58,-11.23"/>
<polygon fill="#63b8ff" stroke="#63b8ff" points="540.85,-14.72 550.74,-10.92 540.64,-7.72 540.85,-14.72"/>
</a>
</g>
</g>
<!-- Node3&#45;&gt;Node8 -->
<g id="edge7_Node000003_Node000008" class="edge">
<title>Node3&#45;&gt;Node8</title>
<g id="a_edge7_Node000003_Node000008"><a xlink:title=" ">
<path fill="none" stroke="#63b8ff" d="M328.99,-109.98C302.58,-101.13 261.03,-87.19 231.48,-77.28"/>
<polygon fill="#63b8ff" stroke="#63b8ff" points="232.55,-73.94 221.96,-74.08 230.33,-80.58 232.55,-73.94"/>
</a>
</g>
</g>
<!-- Node9 -->
<g id="Node000009" class="node">
<title>Node9</title>
<g id="a_Node000009"><a xlink:title=" ">
<polygon fill="#e0e0e0" stroke="#999999" points="367.87,-74 326.87,-74 326.87,-55 367.87,-55 367.87,-74"/>
<text text-anchor="middle" x="347.37" y="-62" font-family="Helvetica,sans-Serif" font-size="10.00">QList</text>
</a>
</g>
</g>
<!-- Node3&#45;&gt;Node9 -->
<g id="edge9_Node000003_Node000009" class="edge">
<title>Node3&#45;&gt;Node9</title>
<g id="a_edge9_Node000003_Node000009"><a xlink:title=" ">
<path fill="none" stroke="#63b8ff" d="M353.22,-109.75C352.3,-102.8 350.99,-92.85 349.83,-84.13"/>
<polygon fill="#63b8ff" stroke="#63b8ff" points="353.29,-83.54 348.51,-74.09 346.35,-84.46 353.29,-83.54"/>
</a>
</g>
</g>
<!-- Node10 -->
<g id="Node000010" class="node">
<title>Node10</title>
<g id="a_Node000010"><a xlink:title=" ">
<polygon fill="#e0e0e0" stroke="#999999" points="440.87,-74 385.87,-74 385.87,-55 440.87,-55 440.87,-74"/>
<text text-anchor="middle" x="413.37" y="-62" font-family="Helvetica,sans-Serif" font-size="10.00">QPointF</text>
</a>
</g>
</g>
<!-- Node3&#45;&gt;Node10 -->
<g id="edge10_Node000003_Node000010" class="edge">
<title>Node3&#45;&gt;Node10</title>
<g id="a_edge10_Node000003_Node000010"><a xlink:title=" ">
<path fill="none" stroke="#63b8ff" d="M363.85,-109.98C372.57,-102.15 385.72,-90.34 396.27,-80.86"/>
<polygon fill="#63b8ff" stroke="#63b8ff" points="398.62,-83.46 403.72,-74.17 393.94,-78.25 398.62,-83.46"/>
</a>
</g>
</g>
<!-- Node5 -->
<g id="Node000005" class="node">
<title>Node5</title>
<g id="a_Node000005"><a xlink:title=" ">
<polygon fill="#e0e0e0" stroke="#999999" points="85.87,-19 12.87,-19 12.87,0 85.87,0 85.87,-19"/>
<text text-anchor="middle" x="49.37" y="-7" font-family="Helvetica,sans-Serif" font-size="10.00">QByteArray</text>
</a>
</g>
</g>
<!-- Node4&#45;&gt;Node5 -->
<g id="edge4_Node000004_Node000005" class="edge">
<title>Node4&#45;&gt;Node5</title>
<g id="a_edge4_Node000004_Node000005"><a xlink:title=" ">
<path fill="none" stroke="#63b8ff" d="M56.89,-54.75C55.71,-47.8 54.02,-37.85 52.54,-29.13"/>
<polygon fill="#63b8ff" stroke="#63b8ff" points="55.96,-28.36 50.83,-19.09 49.06,-29.53 55.96,-28.36"/>
</a>
</g>
</g>
<!-- Node4&#45;&gt;Node6 -->
<g id="edge5_Node000004_Node000006" class="edge">
<title>Node4&#45;&gt;Node6</title>
<g id="a_edge5_Node000004_Node000006"><a xlink:title=" ">
<path fill="none" stroke="#63b8ff" d="M71.87,-54.98C84.77,-46.84 104.48,-34.41 119.78,-24.76"/>
<polygon fill="#63b8ff" stroke="#63b8ff" points="122.04,-27.47 128.63,-19.17 118.31,-21.55 122.04,-27.47"/>
</a>
</g>
</g>
<!-- Node4&#45;&gt;Node7 -->
<g id="edge6_Node000004_Node000007" class="edge">
<title>Node4&#45;&gt;Node7</title>
<g id="a_edge6_Node000004_Node000007"><a xlink:title=" ">
<path fill="none" stroke="#63b8ff" d="M104.43,-58.8C206.19,-48.4 448.46,-23.66 540.78,-14.24"/>
<polygon fill="#63b8ff" stroke="#63b8ff" points="541.18,-17.71 550.77,-13.22 540.47,-10.75 541.18,-17.71"/>
</a>
</g>
</g>
<!-- Node11&#45;&gt;Node6 -->
<g id="edge15_Node000011_Node000006" class="edge">
<title>Node11&#45;&gt;Node6</title>
<g id="a_edge15_Node000011_Node000006"><a xlink:title=" ">
<path fill="none" stroke="#63b8ff" d="M462.76,-109.66C464.36,-95.88 465.13,-69.35 450.37,-55 414.4,-20.02 268.46,-12.37 191.08,-10.81"/>
<polygon fill="#63b8ff" stroke="#63b8ff" points="190.7,-7.3 180.64,-10.63 190.57,-14.3 190.7,-7.3"/>
</a>
</g>
</g>
<!-- Node11&#45;&gt;Node7 -->
<g id="edge19_Node000011_Node000007" class="edge">
<title>Node11&#45;&gt;Node7</title>
<g id="a_edge19_Node000011_Node000007"><a xlink:title=" ">
<path fill="none" stroke="#63b8ff" d="M497.25,-109.98C517.8,-103.37 542.57,-92.18 558.37,-74 569.11,-61.65 573.78,-43.43 575.81,-29.67"/>
<polygon fill="#63b8ff" stroke="#63b8ff" points="579.33,-29.72 576.97,-19.39 572.37,-28.93 579.33,-29.72"/>
</a>
</g>
</g>
<!-- Node11&#45;&gt;Node8 -->
<g id="edge14_Node000011_Node000008" class="edge">
<title>Node11&#45;&gt;Node8</title>
<g id="a_edge14_Node000011_Node000008"><a xlink:title=" ">
<path fill="none" stroke="#63b8ff" d="M418.8,-109.98C370.34,-100.29 291.51,-84.53 241.87,-74.6"/>
<polygon fill="#63b8ff" stroke="#63b8ff" points="242.54,-71.16 232.05,-72.63 241.17,-78.03 242.54,-71.16"/>
</a>
</g>
</g>
<!-- Node11&#45;&gt;Node9 -->
<g id="edge16_Node000011_Node000009" class="edge">
<title>Node11&#45;&gt;Node9</title>
<g id="a_edge16_Node000011_Node000009"><a xlink:title=" ">
<path fill="none" stroke="#63b8ff" d="M443.06,-109.98C424.72,-101.46 396.26,-88.23 375.15,-78.41"/>
<polygon fill="#63b8ff" stroke="#63b8ff" points="376.57,-75.21 366.02,-74.17 373.62,-81.56 376.57,-75.21"/>
</a>
</g>
</g>
<!-- Node11&#45;&gt;Node10 -->
<g id="edge17_Node000011_Node000010" class="edge">
<title>Node11&#45;&gt;Node10</title>
<g id="a_edge17_Node000011_Node000010"><a xlink:title=" ">
<path fill="none" stroke="#63b8ff" d="M453.45,-109.75C446.53,-102.11 436.31,-90.82 427.92,-81.56"/>
<polygon fill="#63b8ff" stroke="#63b8ff" points="430.46,-79.15 421.15,-74.09 425.27,-83.85 430.46,-79.15"/>
</a>
</g>
</g>
<!-- Node12 -->
<g id="Node000012" class="node">
<title>Node12</title>
<g id="a_Node000012"><a xlink:title=" ">
<polygon fill="#e0e0e0" stroke="#999999" points="549.37,-74 497.37,-74 497.37,-55 549.37,-55 549.37,-74"/>
<text text-anchor="middle" x="523.37" y="-62" font-family="Helvetica,sans-Serif" font-size="10.00">QRectF</text>
</a>
</g>
</g>
<!-- Node11&#45;&gt;Node12 -->
<g id="edge18_Node000011_Node000012" class="edge">
<title>Node11&#45;&gt;Node12</title>
<g id="a_edge18_Node000011_Node000012"><a xlink:title=" ">
<path fill="none" stroke="#63b8ff" d="M471.34,-109.98C480.5,-102.15 494.31,-90.34 505.4,-80.86"/>
<polygon fill="#63b8ff" stroke="#63b8ff" points="507.9,-83.33 513.23,-74.17 503.36,-78.01 507.9,-83.33"/>
</a>
</g>
</g>
</g>
</svg>
