<?xml version="1.0" encoding="UTF-8" standalone="no"?>
<!DOCTYPE svg PUBLIC "-//W3C//DTD SVG 1.1//EN"
 "http://www.w3.org/Graphics/SVG/1.1/DTD/svg11.dtd">
<!-- Generated by graphviz version 2.43.0 (0)
 -->
<!-- Title: EasyKiConverter::NetworkWorker Pages: 1 -->
<svg width="149pt" height="483pt"
 viewBox="0.00 0.00 149.00 483.00" xmlns="http://www.w3.org/2000/svg" xmlns:xlink="http://www.w3.org/1999/xlink">
<g id="graph0" class="graph" transform="scale(1 1) rotate(0) translate(4 479)">
<title>EasyKiConverter::NetworkWorker</title>
<!-- Node1 -->
<g id="Node000001" class="node">
<title>Node1</title>
<g id="a_Node000001"><a xlink:title="网络工作线程">
<polygon fill="#999999" stroke="transparent" points="141,-390 0,-390 0,0 141,0 141,-390"/>
<text text-anchor="start" x="6.5" y="-378" font-family="Helvetica,sans-Serif" font-size="10.00">EasyKiConverter::Network</text>
<text text-anchor="start" x="54" y="-367" font-family="Helvetica,sans-Serif" font-size="10.00">Worker</text>
<text text-anchor="start" x="7" y="-352" font-family="Helvetica,sans-Serif" font-size="10.00">&#45;</text>
<text text-anchor="start" x="17.5" y="-352" font-family="Helvetica,sans-Serif" font-size="10.00">m_componentId</text>
<text text-anchor="start" x="7" y="-337" font-family="Helvetica,sans-Serif" font-size="10.00">&#45;</text>
<text text-anchor="start" x="17.5" y="-337" font-family="Helvetica,sans-Serif" font-size="10.00">m_taskType</text>
<text text-anchor="start" x="7" y="-322" font-family="Helvetica,sans-Serif" font-size="10.00">&#45;</text>
<text text-anchor="start" x="17.5" y="-322" font-family="Helvetica,sans-Serif" font-size="10.00">m_uuid</text>
<text text-anchor="start" x="7" y="-307" font-family="Helvetica,sans-Serif" font-size="10.00">&#45;</text>
<text text-anchor="start" x="17.5" y="-307" font-family="Helvetica,sans-Serif" font-size="10.00">m_currentReply</text>
<text text-anchor="start" x="7" y="-292" font-family="Helvetica,sans-Serif" font-size="10.00">&#45;</text>
<text text-anchor="start" x="17.5" y="-292" font-family="Helvetica,sans-Serif" font-size="10.00">m_mutex</text>
<text text-anchor="start" x="7" y="-277" font-family="Helvetica,sans-Serif" font-size="10.00">&#45;</text>
<text text-anchor="start" x="17.5" y="-277" font-family="Helvetica,sans-Serif" font-size="10.00">DEFAULT_TIMEOUT_MS</text>
<text text-anchor="start" x="7" y="-262" font-family="Helvetica,sans-Serif" font-size="10.00">&#45;</text>
<text text-anchor="start" x="17.5" y="-262" font-family="Helvetica,sans-Serif" font-size="10.00">MODEL_TIMEOUT_MS</text>
<text text-anchor="start" x="7" y="-247" font-family="Helvetica,sans-Serif" font-size="10.00">&#45;</text>
<text text-anchor="start" x="17.5" y="-247" font-family="Helvetica,sans-Serif" font-size="10.00">MAX_RETRIES</text>
<text text-anchor="start" x="7" y="-232" font-family="Helvetica,sans-Serif" font-size="10.00">&#45;</text>
<text text-anchor="start" x="17.5" y="-232" font-family="Helvetica,sans-Serif" font-size="10.00">RETRY_DELAYS_MS</text>
<text text-anchor="start" x="4.5" y="-217" font-family="Helvetica,sans-Serif" font-size="10.00">+</text>
<text text-anchor="start" x="17.5" y="-217" font-family="Helvetica,sans-Serif" font-size="10.00">NetworkWorker()</text>
<text text-anchor="start" x="4.5" y="-202" font-family="Helvetica,sans-Serif" font-size="10.00">+</text>
<text text-anchor="start" x="17.5" y="-202" font-family="Helvetica,sans-Serif" font-size="10.00">~NetworkWorker()</text>
<text text-anchor="start" x="4.5" y="-187" font-family="Helvetica,sans-Serif" font-size="10.00">+</text>
<text text-anchor="start" x="17.5" y="-187" font-family="Helvetica,sans-Serif" font-size="10.00">run()</text>
<text text-anchor="start" x="4.5" y="-172" font-family="Helvetica,sans-Serif" font-size="10.00">+</text>
<text text-anchor="start" x="17.5" y="-172" font-family="Helvetica,sans-Serif" font-size="10.00">componentInfoFetched()</text>
<text text-anchor="start" x="4.5" y="-157" font-family="Helvetica,sans-Serif" font-size="10.00">+</text>
<text text-anchor="start" x="17.5" y="-157" font-family="Helvetica,sans-Serif" font-size="10.00">cadDataFetched()</text>
<text text-anchor="start" x="4.5" y="-142" font-family="Helvetica,sans-Serif" font-size="10.00">+</text>
<text text-anchor="start" x="17.5" y="-142" font-family="Helvetica,sans-Serif" font-size="10.00">model3DFetched()</text>
<text text-anchor="start" x="4.5" y="-127" font-family="Helvetica,sans-Serif" font-size="10.00">+</text>
<text text-anchor="start" x="17.5" y="-127" font-family="Helvetica,sans-Serif" font-size="10.00">fetchError()</text>
<text text-anchor="start" x="4.5" y="-112" font-family="Helvetica,sans-Serif" font-size="10.00">+</text>
<text text-anchor="start" x="17.5" y="-112" font-family="Helvetica,sans-Serif" font-size="10.00">requestProgress()</text>
<text text-anchor="start" x="4.5" y="-97" font-family="Helvetica,sans-Serif" font-size="10.00">+</text>
<text text-anchor="start" x="17.5" y="-97" font-family="Helvetica,sans-Serif" font-size="10.00">abort()</text>
<text text-anchor="start" x="4.5" y="-82" font-family="Helvetica,sans-Serif" font-size="10.00">+</text>
<text text-anchor="start" x="17.5" y="-82" font-family="Helvetica,sans-Serif" font-size="10.00">executeRequest()</text>
<text text-anchor="start" x="7" y="-67" font-family="Helvetica,sans-Serif" font-size="10.00">&#45;</text>
<text text-anchor="start" x="17.5" y="-67" font-family="Helvetica,sans-Serif" font-size="10.00">fetchComponentInfo()</text>
<text text-anchor="start" x="7" y="-52" font-family="Helvetica,sans-Serif" font-size="10.00">&#45;</text>
<text text-anchor="start" x="17.5" y="-52" font-family="Helvetica,sans-Serif" font-size="10.00">fetchCadData()</text>
<text text-anchor="start" x="7" y="-37" font-family="Helvetica,sans-Serif" font-size="10.00">&#45;</text>
<text text-anchor="start" x="17.5" y="-37" font-family="Helvetica,sans-Serif" font-size="10.00">fetch3DModelObj()</text>
<text text-anchor="start" x="7" y="-22" font-family="Helvetica,sans-Serif" font-size="10.00">&#45;</text>
<text text-anchor="start" x="17.5" y="-22" font-family="Helvetica,sans-Serif" font-size="10.00">fetch3DModelMtl()</text>
<text text-anchor="start" x="7" y="-7" font-family="Helvetica,sans-Serif" font-size="10.00">&#45;</text>
<text text-anchor="start" x="17.5" y="-7" font-family="Helvetica,sans-Serif" font-size="10.00">decompressGzip()</text>
<polygon fill="#666666" stroke="#666666" points="0.5,-362 0.5,-362 141.5,-362 141.5,-362 0.5,-362"/>
<polygon fill="#666666" stroke="#666666" points="0.5,-227 0.5,-227 15.5,-227 15.5,-227 0.5,-227"/>
<polygon fill="#666666" stroke="#666666" points="15.5,-227 15.5,-227 141.5,-227 141.5,-227 15.5,-227"/>
<polygon fill="none" stroke="#666666" points="0,0 0,-390 141,-390 141,0 0,0"/>
</a>
</g>
</g>
<!-- Node2 -->
<g id="Node000002" class="node">
<title>Node2</title>
<g id="a_Node000002"><a xlink:title=" ">
<polygon fill="white" stroke="transparent" points="58.5,-475 8.5,-475 8.5,-426 58.5,-426 58.5,-475"/>
<text text-anchor="start" x="13.5" y="-462.5" font-family="Helvetica,sans-Serif" font-size="10.00">QObject</text>
<text text-anchor="start" x="31.5" y="-447.5" font-family="Helvetica,sans-Serif" font-size="10.00"> </text>
<text text-anchor="start" x="31.5" y="-432.5" font-family="Helvetica,sans-Serif" font-size="10.00"> </text>
<polygon fill="#666666" stroke="#666666" points="8.5,-457.5 8.5,-457.5 58.5,-457.5 58.5,-457.5 8.5,-457.5"/>
<polygon fill="#666666" stroke="#666666" points="8.5,-442.5 8.5,-442.5 58.5,-442.5 58.5,-442.5 8.5,-442.5"/>
<polygon fill="none" stroke="#666666" points="8.5,-426 8.5,-475 58.5,-475 58.5,-426 8.5,-426"/>
</a>
</g>
</g>
<!-- Node2&#45;&gt;Node1 -->
<g id="edge1_Node000001_Node000002" class="edge">
<title>Node2&#45;&gt;Node1</title>
<g id="a_edge1_Node000001_Node000002"><a xlink:title=" ">
<path fill="none" stroke="#63b8ff" d="M38.45,-415.57C39.56,-407.95 40.82,-399.34 42.18,-390.04"/>
<polygon fill="none" stroke="#63b8ff" points="34.96,-415.25 36.98,-425.65 41.89,-416.26 34.96,-415.25"/>
</a>
</g>
</g>
<!-- Node3 -->
<g id="Node000003" class="node">
<title>Node3</title>
<g id="a_Node000003"><a xlink:title=" ">
<polygon fill="white" stroke="transparent" points="140.5,-475 76.5,-475 76.5,-426 140.5,-426 140.5,-475"/>
<text text-anchor="start" x="81.5" y="-462.5" font-family="Helvetica,sans-Serif" font-size="10.00">QRunnable</text>
<text text-anchor="start" x="106.5" y="-447.5" font-family="Helvetica,sans-Serif" font-size="10.00"> </text>
<text text-anchor="start" x="106.5" y="-432.5" font-family="Helvetica,sans-Serif" font-size="10.00"> </text>
<polygon fill="#666666" stroke="#666666" points="76.5,-457.5 76.5,-457.5 140.5,-457.5 140.5,-457.5 76.5,-457.5"/>
<polygon fill="#666666" stroke="#666666" points="76.5,-442.5 76.5,-442.5 140.5,-442.5 140.5,-442.5 76.5,-442.5"/>
<polygon fill="none" stroke="#666666" points="76.5,-426 76.5,-475 140.5,-475 140.5,-426 76.5,-426"/>
</a>
</g>
</g>
<!-- Node3&#45;&gt;Node1 -->
<g id="edge2_Node000001_Node000003" class="edge">
<title>Node3&#45;&gt;Node1</title>
<g id="a_edge2_Node000001_Node000003"><a xlink:title=" ">
<path fill="none" stroke="#63b8ff" d="M103.41,-415.57C102.27,-407.95 100.98,-399.34 99.59,-390.04"/>
<polygon fill="none" stroke="#63b8ff" points="99.98,-416.28 104.93,-425.65 106.9,-415.24 99.98,-416.28"/>
</a>
</g>
</g>
</g>
</svg>
