<?xml version="1.0" encoding="UTF-8" standalone="no"?>
<!DOCTYPE svg PUBLIC "-//W3C//DTD SVG 1.1//EN"
 "http://www.w3.org/Graphics/SVG/1.1/DTD/svg11.dtd">
<!-- Generated by graphviz version 2.43.0 (0)
 -->
<!-- Title: EasyKiConverter::MediaFetchWorker Pages: 1 -->
<svg width="162pt" height="363pt"
 viewBox="0.00 0.00 162.00 363.00" xmlns="http://www.w3.org/2000/svg" xmlns:xlink="http://www.w3.org/1999/xlink">
<g id="graph0" class="graph" transform="scale(1 1) rotate(0) translate(4 359)">
<title>EasyKiConverter::MediaFetchWorker</title>
<!-- Node1 -->
<g id="Node000001" class="node">
<title>Node1</title>
<g id="a_Node000001"><a xlink:title="媒体数据获取工作线程">
<polygon fill="#999999" stroke="transparent" points="154,-270 0,-270 0,0 154,0 154,-270"/>
<text text-anchor="start" x="5" y="-258" font-family="Helvetica,sans-Serif" font-size="10.00">EasyKiConverter::MediaFetch</text>
<text text-anchor="start" x="60" y="-247" font-family="Helvetica,sans-Serif" font-size="10.00">Worker</text>
<text text-anchor="start" x="7" y="-232" font-family="Helvetica,sans-Serif" font-size="10.00">&#45;</text>
<text text-anchor="start" x="18" y="-232" font-family="Helvetica,sans-Serif" font-size="10.00">m_componentId</text>
<text text-anchor="start" x="7" y="-217" font-family="Helvetica,sans-Serif" font-size="10.00">&#45;</text>
<text text-anchor="start" x="18" y="-217" font-family="Helvetica,sans-Serif" font-size="10.00">m_previewImageUrls</text>
<text text-anchor="start" x="7" y="-202" font-family="Helvetica,sans-Serif" font-size="10.00">&#45;</text>
<text text-anchor="start" x="18" y="-202" font-family="Helvetica,sans-Serif" font-size="10.00">m_datasheetUrl</text>
<text text-anchor="start" x="7" y="-187" font-family="Helvetica,sans-Serif" font-size="10.00">&#45;</text>
<text text-anchor="start" x="18" y="-187" font-family="Helvetica,sans-Serif" font-size="10.00">m_isAborted</text>
<text text-anchor="start" x="7" y="-172" font-family="Helvetica,sans-Serif" font-size="10.00">&#45;</text>
<text text-anchor="start" x="18" y="-172" font-family="Helvetica,sans-Serif" font-size="10.00">m_pendingOperations</text>
<text text-anchor="start" x="7" y="-157" font-family="Helvetica,sans-Serif" font-size="10.00">&#45;</text>
<text text-anchor="start" x="18" y="-157" font-family="Helvetica,sans-Serif" font-size="10.00">m_previewImageDataList</text>
<text text-anchor="start" x="7" y="-142" font-family="Helvetica,sans-Serif" font-size="10.00">&#45;</text>
<text text-anchor="start" x="18" y="-142" font-family="Helvetica,sans-Serif" font-size="10.00">m_datasheetData</text>
<text text-anchor="start" x="7" y="-127" font-family="Helvetica,sans-Serif" font-size="10.00">&#45;</text>
<text text-anchor="start" x="18" y="-127" font-family="Helvetica,sans-Serif" font-size="10.00">m_diagnostics</text>
<text text-anchor="start" x="4.5" y="-112" font-family="Helvetica,sans-Serif" font-size="10.00">+</text>
<text text-anchor="start" x="18" y="-112" font-family="Helvetica,sans-Serif" font-size="10.00">MediaFetchWorker()</text>
<text text-anchor="start" x="4.5" y="-97" font-family="Helvetica,sans-Serif" font-size="10.00">+</text>
<text text-anchor="start" x="18" y="-97" font-family="Helvetica,sans-Serif" font-size="10.00">~MediaFetchWorker()</text>
<text text-anchor="start" x="4.5" y="-82" font-family="Helvetica,sans-Serif" font-size="10.00">+</text>
<text text-anchor="start" x="18" y="-82" font-family="Helvetica,sans-Serif" font-size="10.00">run()</text>
<text text-anchor="start" x="4.5" y="-67" font-family="Helvetica,sans-Serif" font-size="10.00">+</text>
<text text-anchor="start" x="18" y="-67" font-family="Helvetica,sans-Serif" font-size="10.00">abort()</text>
<text text-anchor="start" x="4.5" y="-52" font-family="Helvetica,sans-Serif" font-size="10.00">+</text>
<text text-anchor="start" x="18" y="-52" font-family="Helvetica,sans-Serif" font-size="10.00">fetchCompleted()</text>
<text text-anchor="start" x="7" y="-37" font-family="Helvetica,sans-Serif" font-size="10.00">&#45;</text>
<text text-anchor="start" x="18" y="-37" font-family="Helvetica,sans-Serif" font-size="10.00">startPreviewDownload()</text>
<text text-anchor="start" x="7" y="-22" font-family="Helvetica,sans-Serif" font-size="10.00">&#45;</text>
<text text-anchor="start" x="18" y="-22" font-family="Helvetica,sans-Serif" font-size="10.00">startDatasheetDownload()</text>
<text text-anchor="start" x="7" y="-7" font-family="Helvetica,sans-Serif" font-size="10.00">&#45;</text>
<text text-anchor="start" x="18" y="-7" font-family="Helvetica,sans-Serif" font-size="10.00">finishAllDownloads()</text>
<polygon fill="#666666" stroke="#666666" points="0,-242 0,-242 154,-242 154,-242 0,-242"/>
<polygon fill="#666666" stroke="#666666" points="0,-122 0,-122 16,-122 16,-122 0,-122"/>
<polygon fill="#666666" stroke="#666666" points="16,-122 16,-122 154,-122 154,-122 16,-122"/>
<polygon fill="none" stroke="#666666" points="0,0 0,-270 154,-270 154,0 0,0"/>
</a>
</g>
</g>
<!-- Node2 -->
<g id="Node000002" class="node">
<title>Node2</title>
<g id="a_Node000002"><a xlink:title=" ">
<polygon fill="white" stroke="transparent" points="65,-355 15,-355 15,-306 65,-306 65,-355"/>
<text text-anchor="start" x="20" y="-342.5" font-family="Helvetica,sans-Serif" font-size="10.00">QObject</text>
<text text-anchor="start" x="38" y="-327.5" font-family="Helvetica,sans-Serif" font-size="10.00"> </text>
<text text-anchor="start" x="38" y="-312.5" font-family="Helvetica,sans-Serif" font-size="10.00"> </text>
<polygon fill="#666666" stroke="#666666" points="15,-337.5 15,-337.5 65,-337.5 65,-337.5 15,-337.5"/>
<polygon fill="#666666" stroke="#666666" points="15,-322.5 15,-322.5 65,-322.5 65,-322.5 15,-322.5"/>
<polygon fill="none" stroke="#666666" points="15,-306 15,-355 65,-355 65,-306 15,-306"/>
</a>
</g>
</g>
<!-- Node2&#45;&gt;Node1 -->
<g id="edge1_Node000001_Node000002" class="edge">
<title>Node2&#45;&gt;Node1</title>
<g id="a_edge1_Node000001_Node000002"><a xlink:title=" ">
<path fill="none" stroke="#63b8ff" d="M46.44,-295.83C47.92,-288.07 49.59,-279.35 51.36,-270.1"/>
<polygon fill="none" stroke="#63b8ff" points="42.98,-295.29 44.54,-305.77 49.85,-296.61 42.98,-295.29"/>
</a>
</g>
</g>
<!-- Node3 -->
<g id="Node000003" class="node">
<title>Node3</title>
<g id="a_Node000003"><a xlink:title=" ">
<polygon fill="white" stroke="transparent" points="147,-355 83,-355 83,-306 147,-306 147,-355"/>
<text text-anchor="start" x="88" y="-342.5" font-family="Helvetica,sans-Serif" font-size="10.00">QRunnable</text>
<text text-anchor="start" x="113" y="-327.5" font-family="Helvetica,sans-Serif" font-size="10.00"> </text>
<text text-anchor="start" x="113" y="-312.5" font-family="Helvetica,sans-Serif" font-size="10.00"> </text>
<polygon fill="#666666" stroke="#666666" points="83,-337.5 83,-337.5 147,-337.5 147,-337.5 83,-337.5"/>
<polygon fill="#666666" stroke="#666666" points="83,-322.5 83,-322.5 147,-322.5 147,-322.5 83,-322.5"/>
<polygon fill="none" stroke="#666666" points="83,-306 83,-355 147,-355 147,-306 83,-306"/>
</a>
</g>
</g>
<!-- Node3&#45;&gt;Node1 -->
<g id="edge2_Node000001_Node000003" class="edge">
<title>Node3&#45;&gt;Node1</title>
<g id="a_edge2_Node000001_Node000003"><a xlink:title=" ">
<path fill="none" stroke="#63b8ff" d="M108.39,-295.83C106.86,-288.07 105.15,-279.35 103.33,-270.1"/>
<polygon fill="none" stroke="#63b8ff" points="104.98,-296.64 110.34,-305.77 111.85,-295.29 104.98,-296.64"/>
</a>
</g>
</g>
</g>
</svg>
