<?xml version="1.0" encoding="UTF-8" standalone="no"?>
<!DOCTYPE svg PUBLIC "-//W3C//DTD SVG 1.1//EN"
 "http://www.w3.org/Graphics/SVG/1.1/DTD/svg11.dtd">
<!-- Generated by graphviz version 2.43.0 (0)
 -->
<!-- Title: EasyKiConverter::ComponentListViewModel Pages: 1 -->
<svg width="772pt" height="2148pt"
 viewBox="0.00 0.00 771.71 2148.00" xmlns="http://www.w3.org/2000/svg" xmlns:xlink="http://www.w3.org/1999/xlink">
<g id="graph0" class="graph" transform="scale(1 1) rotate(0) translate(4 2144)">
<title>EasyKiConverter::ComponentListViewModel</title>
<!-- Node1 -->
<g id="Node000001" class="node">
<title>Node1</title>
<g id="a_Node000001"><a xlink:title="元件列表视图模型">
<polygon fill="#999999" stroke="transparent" points="319.21,-390 145.21,-390 145.21,0 319.21,0 319.21,-390"/>
<text text-anchor="start" x="160.21" y="-378" font-family="Helvetica,sans-Serif" font-size="10.00">EasyKiConverter::Component</text>
<text text-anchor="start" x="196.21" y="-367" font-family="Helvetica,sans-Serif" font-size="10.00">ListViewModel</text>
<text text-anchor="start" x="151.71" y="-352" font-family="Helvetica,sans-Serif" font-size="10.00">&#45;</text>
<text text-anchor="start" x="162.21" y="-352" font-family="Helvetica,sans-Serif" font-size="10.00">m_componentList</text>
<text text-anchor="start" x="151.71" y="-337" font-family="Helvetica,sans-Serif" font-size="10.00">&#45;</text>
<text text-anchor="start" x="162.21" y="-337" font-family="Helvetica,sans-Serif" font-size="10.00">m_componentIdIndex</text>
<text text-anchor="start" x="151.71" y="-322" font-family="Helvetica,sans-Serif" font-size="10.00">&#45;</text>
<text text-anchor="start" x="162.21" y="-322" font-family="Helvetica,sans-Serif" font-size="10.00">m_outputPath</text>
<text text-anchor="start" x="151.71" y="-307" font-family="Helvetica,sans-Serif" font-size="10.00">&#45;</text>
<text text-anchor="start" x="162.21" y="-307" font-family="Helvetica,sans-Serif" font-size="10.00">m_bomFilePath</text>
<text text-anchor="start" x="151.71" y="-292" font-family="Helvetica,sans-Serif" font-size="10.00">&#45;</text>
<text text-anchor="start" x="162.21" y="-292" font-family="Helvetica,sans-Serif" font-size="10.00">m_bomResult</text>
<text text-anchor="start" x="149.21" y="-277" font-family="Helvetica,sans-Serif" font-size="10.00">+</text>
<text text-anchor="start" x="162.21" y="-277" font-family="Helvetica,sans-Serif" font-size="10.00">ComponentListViewModel()</text>
<text text-anchor="start" x="149.21" y="-262" font-family="Helvetica,sans-Serif" font-size="10.00">+</text>
<text text-anchor="start" x="162.21" y="-262" font-family="Helvetica,sans-Serif" font-size="10.00">~ComponentListViewModel()</text>
<text text-anchor="start" x="149.21" y="-247" font-family="Helvetica,sans-Serif" font-size="10.00">+</text>
<text text-anchor="start" x="162.21" y="-247" font-family="Helvetica,sans-Serif" font-size="10.00">rowCount()</text>
<text text-anchor="start" x="149.21" y="-232" font-family="Helvetica,sans-Serif" font-size="10.00">+</text>
<text text-anchor="start" x="162.21" y="-232" font-family="Helvetica,sans-Serif" font-size="10.00">data()</text>
<text text-anchor="start" x="149.21" y="-217" font-family="Helvetica,sans-Serif" font-size="10.00">+</text>
<text text-anchor="start" x="162.21" y="-217" font-family="Helvetica,sans-Serif" font-size="10.00">roleNames()</text>
<text text-anchor="start" x="149.21" y="-202" font-family="Helvetica,sans-Serif" font-size="10.00">+</text>
<text text-anchor="start" x="162.21" y="-202" font-family="Helvetica,sans-Serif" font-size="10.00">componentCount()</text>
<text text-anchor="start" x="149.21" y="-187" font-family="Helvetica,sans-Serif" font-size="10.00">+</text>
<text text-anchor="start" x="162.21" y="-187" font-family="Helvetica,sans-Serif" font-size="10.00">bomFilePath()</text>
<text text-anchor="start" x="149.21" y="-172" font-family="Helvetica,sans-Serif" font-size="10.00">+</text>
<text text-anchor="start" x="162.21" y="-172" font-family="Helvetica,sans-Serif" font-size="10.00">bomResult()</text>
<text text-anchor="start" x="149.21" y="-157" font-family="Helvetica,sans-Serif" font-size="10.00">+</text>
<text text-anchor="start" x="162.21" y="-157" font-family="Helvetica,sans-Serif" font-size="10.00">getPreloadedData()</text>
<text text-anchor="start" x="149.21" y="-142" font-family="Helvetica,sans-Serif" font-size="10.00">+</text>
<text text-anchor="start" x="162.21" y="-142" font-family="Helvetica,sans-Serif" font-size="10.00">addComponent()</text>
<text text-anchor="start" x="162.21" y="-127" font-family="Helvetica,sans-Serif" font-size="10.00">和 21 更多...</text>
<text text-anchor="start" x="151.71" y="-112" font-family="Helvetica,sans-Serif" font-size="10.00">&#45;</text>
<text text-anchor="start" x="162.21" y="-112" font-family="Helvetica,sans-Serif" font-size="10.00">handleComponentInfoReady()</text>
<text text-anchor="start" x="151.71" y="-97" font-family="Helvetica,sans-Serif" font-size="10.00">&#45;</text>
<text text-anchor="start" x="162.21" y="-97" font-family="Helvetica,sans-Serif" font-size="10.00">handleCadDataReady()</text>
<text text-anchor="start" x="151.71" y="-82" font-family="Helvetica,sans-Serif" font-size="10.00">&#45;</text>
<text text-anchor="start" x="162.21" y="-82" font-family="Helvetica,sans-Serif" font-size="10.00">handleModel3DReady()</text>
<text text-anchor="start" x="151.71" y="-67" font-family="Helvetica,sans-Serif" font-size="10.00">&#45;</text>
<text text-anchor="start" x="162.21" y="-67" font-family="Helvetica,sans-Serif" font-size="10.00">handleFetchError()</text>
<text text-anchor="start" x="151.71" y="-52" font-family="Helvetica,sans-Serif" font-size="10.00">&#45;</text>
<text text-anchor="start" x="162.21" y="-52" font-family="Helvetica,sans-Serif" font-size="10.00">componentExists()</text>
<text text-anchor="start" x="151.71" y="-37" font-family="Helvetica,sans-Serif" font-size="10.00">&#45;</text>
<text text-anchor="start" x="162.21" y="-37" font-family="Helvetica,sans-Serif" font-size="10.00">validateComponentId()</text>
<text text-anchor="start" x="151.71" y="-22" font-family="Helvetica,sans-Serif" font-size="10.00">&#45;</text>
<text text-anchor="start" x="162.21" y="-22" font-family="Helvetica,sans-Serif" font-size="10.00">extractComponentIdFromText()</text>
<text text-anchor="start" x="151.71" y="-7" font-family="Helvetica,sans-Serif" font-size="10.00">&#45;</text>
<text text-anchor="start" x="162.21" y="-7" font-family="Helvetica,sans-Serif" font-size="10.00">findItemData()</text>
<polygon fill="#666666" stroke="#666666" points="145.21,-362 145.21,-362 319.21,-362 319.21,-362 145.21,-362"/>
<polygon fill="#666666" stroke="#666666" points="145.21,-287 145.21,-287 160.21,-287 160.21,-287 145.21,-287"/>
<polygon fill="#666666" stroke="#666666" points="160.21,-287 160.21,-287 319.21,-287 319.21,-287 160.21,-287"/>
<polygon fill="none" stroke="#666666" points="145.21,0 145.21,-390 319.21,-390 319.21,0 145.21,0"/>
</a>
</g>
</g>
<!-- Node2 -->
<g id="Node000002" class="node">
<title>Node2</title>
<g id="a_Node000002"><a xlink:title=" ">
<polygon fill="white" stroke="transparent" points="269.21,-746.5 163.21,-746.5 163.21,-697.5 269.21,-697.5 269.21,-746.5"/>
<text text-anchor="start" x="168.21" y="-734" font-family="Helvetica,sans-Serif" font-size="10.00">QAbstractListModel</text>
<text text-anchor="start" x="214.21" y="-719" font-family="Helvetica,sans-Serif" font-size="10.00"> </text>
<text text-anchor="start" x="214.21" y="-704" font-family="Helvetica,sans-Serif" font-size="10.00"> </text>
<polygon fill="#666666" stroke="#666666" points="163.21,-729 163.21,-729 269.21,-729 269.21,-729 163.21,-729"/>
<polygon fill="#666666" stroke="#666666" points="163.21,-714 163.21,-714 269.21,-714 269.21,-714 163.21,-714"/>
<polygon fill="none" stroke="#666666" points="163.21,-697.5 163.21,-746.5 269.21,-746.5 269.21,-697.5 163.21,-697.5"/>
</a>
</g>
</g>
<!-- Node2&#45;&gt;Node1 -->
<g id="edge1_Node000001_Node000002" class="edge">
<title>Node2&#45;&gt;Node1</title>
<g id="a_edge1_Node000001_Node000002"><a xlink:title=" ">
<path fill="none" stroke="#63b8ff" d="M217.24,-687.12C219.06,-627.62 222.94,-500.2 226.3,-390.06"/>
<polygon fill="none" stroke="#63b8ff" points="213.74,-687.32 216.93,-697.42 220.73,-687.53 213.74,-687.32"/>
</a>
</g>
</g>
<!-- Node3 -->
<g id="Node000003" class="node">
<title>Node3</title>
<g id="a_Node000003"><a xlink:href="classEasyKiConverter_1_1ComponentService.html" target="_top" xlink:title="元件服务类">
<polygon fill="white" stroke="transparent" points="470.71,-1007 287.71,-1007 287.71,-437 470.71,-437 470.71,-1007"/>
<text text-anchor="start" x="307.71" y="-995" font-family="Helvetica,sans-Serif" font-size="10.00">EasyKiConverter::Component</text>
<text text-anchor="start" x="361.21" y="-984" font-family="Helvetica,sans-Serif" font-size="10.00">Service</text>
<text text-anchor="start" x="294.71" y="-969" font-family="Helvetica,sans-Serif" font-size="10.00">&#45;</text>
<text text-anchor="start" x="305.21" y="-969" font-family="Helvetica,sans-Serif" font-size="10.00">m_networkManager</text>
<text text-anchor="start" x="294.71" y="-954" font-family="Helvetica,sans-Serif" font-size="10.00">&#45;</text>
<text text-anchor="start" x="305.21" y="-954" font-family="Helvetica,sans-Serif" font-size="10.00">m_componentCache</text>
<text text-anchor="start" x="294.71" y="-939" font-family="Helvetica,sans-Serif" font-size="10.00">&#45;</text>
<text text-anchor="start" x="305.21" y="-939" font-family="Helvetica,sans-Serif" font-size="10.00">m_fetchingComponents</text>
<text text-anchor="start" x="294.71" y="-924" font-family="Helvetica,sans-Serif" font-size="10.00">&#45;</text>
<text text-anchor="start" x="305.21" y="-924" font-family="Helvetica,sans-Serif" font-size="10.00">m_currentComponentId</text>
<text text-anchor="start" x="294.71" y="-909" font-family="Helvetica,sans-Serif" font-size="10.00">&#45;</text>
<text text-anchor="start" x="305.21" y="-909" font-family="Helvetica,sans-Serif" font-size="10.00">m_pendingModelUuid</text>
<text text-anchor="start" x="294.71" y="-894" font-family="Helvetica,sans-Serif" font-size="10.00">&#45;</text>
<text text-anchor="start" x="305.21" y="-894" font-family="Helvetica,sans-Serif" font-size="10.00">m_hasDownloadedWrl</text>
<text text-anchor="start" x="294.71" y="-879" font-family="Helvetica,sans-Serif" font-size="10.00">&#45;</text>
<text text-anchor="start" x="305.21" y="-879" font-family="Helvetica,sans-Serif" font-size="10.00">m_parallelCollectedData</text>
<text text-anchor="start" x="294.71" y="-864" font-family="Helvetica,sans-Serif" font-size="10.00">&#45;</text>
<text text-anchor="start" x="305.21" y="-864" font-family="Helvetica,sans-Serif" font-size="10.00">m_parallelFetchingStatus</text>
<text text-anchor="start" x="294.71" y="-849" font-family="Helvetica,sans-Serif" font-size="10.00">&#45;</text>
<text text-anchor="start" x="305.21" y="-849" font-family="Helvetica,sans-Serif" font-size="10.00">m_parallelPendingComponents</text>
<text text-anchor="start" x="294.71" y="-834" font-family="Helvetica,sans-Serif" font-size="10.00">&#45;</text>
<text text-anchor="start" x="305.21" y="-834" font-family="Helvetica,sans-Serif" font-size="10.00">m_parallelTotalCount</text>
<text text-anchor="start" x="294.71" y="-819" font-family="Helvetica,sans-Serif" font-size="10.00">&#45;</text>
<text text-anchor="start" x="305.21" y="-819" font-family="Helvetica,sans-Serif" font-size="10.00">m_parallelCompletedCount</text>
<text text-anchor="start" x="294.71" y="-804" font-family="Helvetica,sans-Serif" font-size="10.00">&#45;</text>
<text text-anchor="start" x="305.21" y="-804" font-family="Helvetica,sans-Serif" font-size="10.00">m_parallelFetching</text>
<text text-anchor="start" x="294.71" y="-789" font-family="Helvetica,sans-Serif" font-size="10.00">&#45;</text>
<text text-anchor="start" x="305.21" y="-789" font-family="Helvetica,sans-Serif" font-size="10.00">m_outputPath</text>
<text text-anchor="start" x="292.21" y="-774" font-family="Helvetica,sans-Serif" font-size="10.00">+</text>
<text text-anchor="start" x="305.21" y="-774" font-family="Helvetica,sans-Serif" font-size="10.00">ComponentService()</text>
<text text-anchor="start" x="292.21" y="-759" font-family="Helvetica,sans-Serif" font-size="10.00">+</text>
<text text-anchor="start" x="305.21" y="-759" font-family="Helvetica,sans-Serif" font-size="10.00">ComponentService()</text>
<text text-anchor="start" x="292.21" y="-744" font-family="Helvetica,sans-Serif" font-size="10.00">+</text>
<text text-anchor="start" x="305.21" y="-744" font-family="Helvetica,sans-Serif" font-size="10.00">~ComponentService()</text>
<text text-anchor="start" x="292.21" y="-729" font-family="Helvetica,sans-Serif" font-size="10.00">+</text>
<text text-anchor="start" x="305.21" y="-729" font-family="Helvetica,sans-Serif" font-size="10.00">fetchComponentData()</text>
<text text-anchor="start" x="292.21" y="-714" font-family="Helvetica,sans-Serif" font-size="10.00">+</text>
<text text-anchor="start" x="305.21" y="-714" font-family="Helvetica,sans-Serif" font-size="10.00">fetchLcscPreviewImage()</text>
<text text-anchor="start" x="292.21" y="-699" font-family="Helvetica,sans-Serif" font-size="10.00">+</text>
<text text-anchor="start" x="305.21" y="-699" font-family="Helvetica,sans-Serif" font-size="10.00">fetchMultipleComponentsData()</text>
<text text-anchor="start" x="292.21" y="-684" font-family="Helvetica,sans-Serif" font-size="10.00">+</text>
<text text-anchor="start" x="305.21" y="-684" font-family="Helvetica,sans-Serif" font-size="10.00">validateComponentId()</text>
<text text-anchor="start" x="292.21" y="-669" font-family="Helvetica,sans-Serif" font-size="10.00">+</text>
<text text-anchor="start" x="305.21" y="-669" font-family="Helvetica,sans-Serif" font-size="10.00">extractComponentIdFromText()</text>
<text text-anchor="start" x="292.21" y="-654" font-family="Helvetica,sans-Serif" font-size="10.00">+</text>
<text text-anchor="start" x="305.21" y="-654" font-family="Helvetica,sans-Serif" font-size="10.00">parseBomFile()</text>
<text text-anchor="start" x="292.21" y="-639" font-family="Helvetica,sans-Serif" font-size="10.00">+</text>
<text text-anchor="start" x="305.21" y="-639" font-family="Helvetica,sans-Serif" font-size="10.00">getComponentData()</text>
<text text-anchor="start" x="305.21" y="-624" font-family="Helvetica,sans-Serif" font-size="10.00">和 9 更多...</text>
<text text-anchor="start" x="294.71" y="-609" font-family="Helvetica,sans-Serif" font-size="10.00">&#45;</text>
<text text-anchor="start" x="305.21" y="-609" font-family="Helvetica,sans-Serif" font-size="10.00">handleComponentInfoFetched()</text>
<text text-anchor="start" x="294.71" y="-594" font-family="Helvetica,sans-Serif" font-size="10.00">&#45;</text>
<text text-anchor="start" x="305.21" y="-594" font-family="Helvetica,sans-Serif" font-size="10.00">handleCadDataFetched()</text>
<text text-anchor="start" x="294.71" y="-579" font-family="Helvetica,sans-Serif" font-size="10.00">&#45;</text>
<text text-anchor="start" x="305.21" y="-579" font-family="Helvetica,sans-Serif" font-size="10.00">handleModel3DFetched()</text>
<text text-anchor="start" x="294.71" y="-564" font-family="Helvetica,sans-Serif" font-size="10.00">&#45;</text>
<text text-anchor="start" x="305.21" y="-564" font-family="Helvetica,sans-Serif" font-size="10.00">handleFetchError()</text>
<text text-anchor="start" x="294.71" y="-549" font-family="Helvetica,sans-Serif" font-size="10.00">&#45;</text>
<text text-anchor="start" x="305.21" y="-549" font-family="Helvetica,sans-Serif" font-size="10.00">handleImageReady()</text>
<text text-anchor="start" x="294.71" y="-534" font-family="Helvetica,sans-Serif" font-size="10.00">&#45;</text>
<text text-anchor="start" x="305.21" y="-534" font-family="Helvetica,sans-Serif" font-size="10.00">handleFetchErrorWithId()</text>
<text text-anchor="start" x="294.71" y="-519" font-family="Helvetica,sans-Serif" font-size="10.00">&#45;</text>
<text text-anchor="start" x="305.21" y="-519" font-family="Helvetica,sans-Serif" font-size="10.00">initializeApiConnections()</text>
<text text-anchor="start" x="294.71" y="-504" font-family="Helvetica,sans-Serif" font-size="10.00">&#45;</text>
<text text-anchor="start" x="305.21" y="-504" font-family="Helvetica,sans-Serif" font-size="10.00">completeComponentData()</text>
<text text-anchor="start" x="294.71" y="-489" font-family="Helvetica,sans-Serif" font-size="10.00">&#45;</text>
<text text-anchor="start" x="305.21" y="-489" font-family="Helvetica,sans-Serif" font-size="10.00">handleFetchErrorForComponent()</text>
<text text-anchor="start" x="294.71" y="-474" font-family="Helvetica,sans-Serif" font-size="10.00">&#45;</text>
<text text-anchor="start" x="305.21" y="-474" font-family="Helvetica,sans-Serif" font-size="10.00">handleParallelDataCollected()</text>
<text text-anchor="start" x="294.71" y="-459" font-family="Helvetica,sans-Serif" font-size="10.00">&#45;</text>
<text text-anchor="start" x="305.21" y="-459" font-family="Helvetica,sans-Serif" font-size="10.00">handleParallelFetchError()</text>
<text text-anchor="start" x="294.71" y="-444" font-family="Helvetica,sans-Serif" font-size="10.00">&#45;</text>
<text text-anchor="start" x="305.21" y="-444" font-family="Helvetica,sans-Serif" font-size="10.00">fetchComponentDataInternal()</text>
<polygon fill="#666666" stroke="#666666" points="288.21,-979 288.21,-979 471.21,-979 471.21,-979 288.21,-979"/>
<polygon fill="#666666" stroke="#666666" points="288.21,-784 288.21,-784 303.21,-784 303.21,-784 288.21,-784"/>
<polygon fill="#666666" stroke="#666666" points="303.21,-784 303.21,-784 471.21,-784 471.21,-784 303.21,-784"/>
<polygon fill="none" stroke="#666666" points="287.71,-437 287.71,-1007 470.71,-1007 470.71,-437 287.71,-437"/>
</a>
</g>
</g>
<!-- Node3&#45;&gt;Node1 -->
<g id="edge2_Node000001_Node000003" class="edge">
<title>Node3&#45;&gt;Node1</title>
<g id="a_edge2_Node000001_Node000003"><a xlink:title=" ">
<path fill="none" stroke="#63b8ff" d="M299.69,-436.99C296.36,-425.12 293.06,-413.31 289.79,-401.66"/>
<polygon fill="none" stroke="#63b8ff" points="289.78,-401.62 284.31,-396.92 286.55,-390.06 292.02,-394.76 289.78,-401.62"/>
</a>
</g>
<text text-anchor="middle" x="322.21" y="-411" font-family="Helvetica,sans-Serif" font-size="10.00" fill="grey"> &#45;m_service</text>
</g>
<!-- Node4 -->
<g id="Node000004" class="node">
<title>Node4</title>
<g id="a_Node000004"><a xlink:title=" ">
<polygon fill="white" stroke="transparent" points="305.21,-2140 255.21,-2140 255.21,-2091 305.21,-2091 305.21,-2140"/>
<text text-anchor="start" x="260.21" y="-2127.5" font-family="Helvetica,sans-Serif" font-size="10.00">QObject</text>
<text text-anchor="start" x="278.21" y="-2112.5" font-family="Helvetica,sans-Serif" font-size="10.00"> </text>
<text text-anchor="start" x="278.21" y="-2097.5" font-family="Helvetica,sans-Serif" font-size="10.00"> </text>
<polygon fill="#666666" stroke="#666666" points="255.21,-2122.5 255.21,-2122.5 305.21,-2122.5 305.21,-2122.5 255.21,-2122.5"/>
<polygon fill="#666666" stroke="#666666" points="255.21,-2107.5 255.21,-2107.5 305.21,-2107.5 305.21,-2107.5 255.21,-2107.5"/>
<polygon fill="none" stroke="#666666" points="255.21,-2091 255.21,-2140 305.21,-2140 305.21,-2091 255.21,-2091"/>
</a>
</g>
</g>
<!-- Node4&#45;&gt;Node3 -->
<g id="edge3_Node000003_Node000004" class="edge">
<title>Node4&#45;&gt;Node3</title>
<g id="a_edge3_Node000003_Node000004"><a xlink:title=" ">
<path fill="none" stroke="#63b8ff" d="M245.77,-2102.07C225.1,-2092.5 200.82,-2076.98 190.21,-2054 3.76,-1650.16 -104.4,-1418.72 150.21,-1054 184.9,-1004.31 235.58,-1050.07 278.21,-1007 281.43,-1003.75 284.55,-1000.38 287.57,-996.92"/>
<polygon fill="none" stroke="#63b8ff" points="244.38,-2105.28 254.95,-2106.05 247.17,-2098.86 244.38,-2105.28"/>
</a>
</g>
</g>
<!-- Node5 -->
<g id="Node000005" class="node">
<title>Node5</title>
<g id="a_Node000005"><a xlink:href="classEasyKiConverter_1_1EasyedaApi.html" target="_top" xlink:title="EasyEDA API 客户端类">
<polygon fill="white" stroke="transparent" points="343.21,-1553 159.21,-1553 159.21,-1054 343.21,-1054 343.21,-1553"/>
<text text-anchor="start" x="178.71" y="-1540.5" font-family="Helvetica,sans-Serif" font-size="10.00">EasyKiConverter::EasyedaApi</text>
<text text-anchor="start" x="165.71" y="-1525.5" font-family="Helvetica,sans-Serif" font-size="10.00">&#45;</text>
<text text-anchor="start" x="176.21" y="-1525.5" font-family="Helvetica,sans-Serif" font-size="10.00">m_currentLcscId</text>
<text text-anchor="start" x="165.71" y="-1510.5" font-family="Helvetica,sans-Serif" font-size="10.00">&#45;</text>
<text text-anchor="start" x="176.21" y="-1510.5" font-family="Helvetica,sans-Serif" font-size="10.00">m_currentUuid</text>
<text text-anchor="start" x="165.71" y="-1495.5" font-family="Helvetica,sans-Serif" font-size="10.00">&#45;</text>
<text text-anchor="start" x="176.21" y="-1495.5" font-family="Helvetica,sans-Serif" font-size="10.00">m_isFetching</text>
<text text-anchor="start" x="165.71" y="-1480.5" font-family="Helvetica,sans-Serif" font-size="10.00">&#45;</text>
<text text-anchor="start" x="176.21" y="-1480.5" font-family="Helvetica,sans-Serif" font-size="10.00">m_requestType</text>
<text text-anchor="start" x="165.71" y="-1465.5" font-family="Helvetica,sans-Serif" font-size="10.00">&#45;</text>
<text text-anchor="start" x="176.21" y="-1465.5" font-family="Helvetica,sans-Serif" font-size="10.00">m_activeRequests</text>
<text text-anchor="start" x="165.71" y="-1450.5" font-family="Helvetica,sans-Serif" font-size="10.00">&#45;</text>
<text text-anchor="start" x="176.21" y="-1450.5" font-family="Helvetica,sans-Serif" font-size="10.00">m_requestsMutex</text>
<text text-anchor="start" x="163.21" y="-1435.5" font-family="Helvetica,sans-Serif" font-size="10.00">+</text>
<text text-anchor="start" x="176.21" y="-1435.5" font-family="Helvetica,sans-Serif" font-size="10.00">EasyedaApi()</text>
<text text-anchor="start" x="163.21" y="-1420.5" font-family="Helvetica,sans-Serif" font-size="10.00">+</text>
<text text-anchor="start" x="176.21" y="-1420.5" font-family="Helvetica,sans-Serif" font-size="10.00">EasyedaApi()</text>
<text text-anchor="start" x="163.21" y="-1405.5" font-family="Helvetica,sans-Serif" font-size="10.00">+</text>
<text text-anchor="start" x="176.21" y="-1405.5" font-family="Helvetica,sans-Serif" font-size="10.00">~EasyedaApi()</text>
<text text-anchor="start" x="163.21" y="-1390.5" font-family="Helvetica,sans-Serif" font-size="10.00">+</text>
<text text-anchor="start" x="176.21" y="-1390.5" font-family="Helvetica,sans-Serif" font-size="10.00">fetchComponentInfo()</text>
<text text-anchor="start" x="163.21" y="-1375.5" font-family="Helvetica,sans-Serif" font-size="10.00">+</text>
<text text-anchor="start" x="176.21" y="-1375.5" font-family="Helvetica,sans-Serif" font-size="10.00">fetchCadData()</text>
<text text-anchor="start" x="163.21" y="-1360.5" font-family="Helvetica,sans-Serif" font-size="10.00">+</text>
<text text-anchor="start" x="176.21" y="-1360.5" font-family="Helvetica,sans-Serif" font-size="10.00">fetch3DModelObj()</text>
<text text-anchor="start" x="163.21" y="-1345.5" font-family="Helvetica,sans-Serif" font-size="10.00">+</text>
<text text-anchor="start" x="176.21" y="-1345.5" font-family="Helvetica,sans-Serif" font-size="10.00">fetch3DModelStep()</text>
<text text-anchor="start" x="163.21" y="-1330.5" font-family="Helvetica,sans-Serif" font-size="10.00">+</text>
<text text-anchor="start" x="176.21" y="-1330.5" font-family="Helvetica,sans-Serif" font-size="10.00">cancelRequest()</text>
<text text-anchor="start" x="163.21" y="-1315.5" font-family="Helvetica,sans-Serif" font-size="10.00">+</text>
<text text-anchor="start" x="176.21" y="-1315.5" font-family="Helvetica,sans-Serif" font-size="10.00">componentInfoFetched()</text>
<text text-anchor="start" x="163.21" y="-1300.5" font-family="Helvetica,sans-Serif" font-size="10.00">+</text>
<text text-anchor="start" x="176.21" y="-1300.5" font-family="Helvetica,sans-Serif" font-size="10.00">cadDataFetched()</text>
<text text-anchor="start" x="163.21" y="-1285.5" font-family="Helvetica,sans-Serif" font-size="10.00">+</text>
<text text-anchor="start" x="176.21" y="-1285.5" font-family="Helvetica,sans-Serif" font-size="10.00">model3DFetched()</text>
<text text-anchor="start" x="163.21" y="-1270.5" font-family="Helvetica,sans-Serif" font-size="10.00">+</text>
<text text-anchor="start" x="176.21" y="-1270.5" font-family="Helvetica,sans-Serif" font-size="10.00">fetchError()</text>
<text text-anchor="start" x="163.21" y="-1255.5" font-family="Helvetica,sans-Serif" font-size="10.00">+</text>
<text text-anchor="start" x="176.21" y="-1255.5" font-family="Helvetica,sans-Serif" font-size="10.00">fetchError()</text>
<text text-anchor="start" x="165.71" y="-1240.5" font-family="Helvetica,sans-Serif" font-size="10.00">&#45;</text>
<text text-anchor="start" x="176.21" y="-1240.5" font-family="Helvetica,sans-Serif" font-size="10.00">handleComponentInfoResponse()</text>
<text text-anchor="start" x="165.71" y="-1225.5" font-family="Helvetica,sans-Serif" font-size="10.00">&#45;</text>
<text text-anchor="start" x="176.21" y="-1225.5" font-family="Helvetica,sans-Serif" font-size="10.00">handleCadDataResponse()</text>
<text text-anchor="start" x="165.71" y="-1210.5" font-family="Helvetica,sans-Serif" font-size="10.00">&#45;</text>
<text text-anchor="start" x="176.21" y="-1210.5" font-family="Helvetica,sans-Serif" font-size="10.00">handleModel3DResponse()</text>
<text text-anchor="start" x="165.71" y="-1195.5" font-family="Helvetica,sans-Serif" font-size="10.00">&#45;</text>
<text text-anchor="start" x="176.21" y="-1195.5" font-family="Helvetica,sans-Serif" font-size="10.00">handleNetworkError()</text>
<text text-anchor="start" x="165.71" y="-1180.5" font-family="Helvetica,sans-Serif" font-size="10.00">&#45;</text>
<text text-anchor="start" x="176.21" y="-1180.5" font-family="Helvetica,sans-Serif" font-size="10.00">handleRequestSuccess()</text>
<text text-anchor="start" x="165.71" y="-1165.5" font-family="Helvetica,sans-Serif" font-size="10.00">&#45;</text>
<text text-anchor="start" x="176.21" y="-1165.5" font-family="Helvetica,sans-Serif" font-size="10.00">handleRequestError()</text>
<text text-anchor="start" x="165.71" y="-1150.5" font-family="Helvetica,sans-Serif" font-size="10.00">&#45;</text>
<text text-anchor="start" x="176.21" y="-1150.5" font-family="Helvetica,sans-Serif" font-size="10.00">handleBinaryDataFetched()</text>
<text text-anchor="start" x="165.71" y="-1135.5" font-family="Helvetica,sans-Serif" font-size="10.00">&#45;</text>
<text text-anchor="start" x="176.21" y="-1135.5" font-family="Helvetica,sans-Serif" font-size="10.00">handleRequestSuccess()</text>
<text text-anchor="start" x="165.71" y="-1120.5" font-family="Helvetica,sans-Serif" font-size="10.00">&#45;</text>
<text text-anchor="start" x="176.21" y="-1120.5" font-family="Helvetica,sans-Serif" font-size="10.00">resetRequestState()</text>
<text text-anchor="start" x="165.71" y="-1105.5" font-family="Helvetica,sans-Serif" font-size="10.00">&#45;</text>
<text text-anchor="start" x="176.21" y="-1105.5" font-family="Helvetica,sans-Serif" font-size="10.00">buildComponentApiUrl()</text>
<text text-anchor="start" x="165.71" y="-1090.5" font-family="Helvetica,sans-Serif" font-size="10.00">&#45;</text>
<text text-anchor="start" x="176.21" y="-1090.5" font-family="Helvetica,sans-Serif" font-size="10.00">build3DModelObjUrl()</text>
<text text-anchor="start" x="165.71" y="-1075.5" font-family="Helvetica,sans-Serif" font-size="10.00">&#45;</text>
<text text-anchor="start" x="176.21" y="-1075.5" font-family="Helvetica,sans-Serif" font-size="10.00">build3DModelStepUrl()</text>
<text text-anchor="start" x="165.71" y="-1060.5" font-family="Helvetica,sans-Serif" font-size="10.00">&#45;</text>
<text text-anchor="start" x="176.21" y="-1060.5" font-family="Helvetica,sans-Serif" font-size="10.00">validateLcscId()</text>
<polygon fill="#666666" stroke="#666666" points="159.21,-1535.5 159.21,-1535.5 343.21,-1535.5 343.21,-1535.5 159.21,-1535.5"/>
<polygon fill="#666666" stroke="#666666" points="159.21,-1445.5 159.21,-1445.5 174.21,-1445.5 174.21,-1445.5 159.21,-1445.5"/>
<polygon fill="#666666" stroke="#666666" points="174.21,-1445.5 174.21,-1445.5 343.21,-1445.5 343.21,-1445.5 174.21,-1445.5"/>
<polygon fill="none" stroke="#666666" points="159.21,-1054 159.21,-1553 343.21,-1553 343.21,-1054 159.21,-1054"/>
</a>
</g>
</g>
<!-- Node4&#45;&gt;Node5 -->
<g id="edge5_Node000005_Node000004" class="edge">
<title>Node4&#45;&gt;Node5</title>
<g id="a_edge5_Node000005_Node000004"><a xlink:title=" ">
<path fill="none" stroke="#63b8ff" d="M245.84,-2097.97C228.87,-2087.83 209.98,-2073.1 200.21,-2054 190.65,-2035.31 194.76,-1575.35 195.21,-1571 195.82,-1565.12 196.51,-1559.18 197.26,-1553.2"/>
<polygon fill="none" stroke="#63b8ff" points="244.57,-2101.27 255,-2103.13 248.01,-2095.17 244.57,-2101.27"/>
</a>
</g>
</g>
<!-- Node6 -->
<g id="Node000006" class="node">
<title>Node6</title>
<g id="a_Node000006"><a xlink:href="classEasyKiConverter_1_1INetworkAdapter.html" target="_top" xlink:title="网络适配器接口">
<polygon fill="white" stroke="transparent" points="351.21,-2054 209.21,-2054 209.21,-1844 351.21,-1844 351.21,-2054"/>
<text text-anchor="start" x="214.21" y="-2042" font-family="Helvetica,sans-Serif" font-size="10.00">EasyKiConverter::INetwork</text>
<text text-anchor="start" x="260.71" y="-2031" font-family="Helvetica,sans-Serif" font-size="10.00">Adapter</text>
<text text-anchor="start" x="278.21" y="-2016" font-family="Helvetica,sans-Serif" font-size="10.00"> </text>
<text text-anchor="start" x="215.71" y="-2001" font-family="Helvetica,sans-Serif" font-size="10.00">+</text>
<text text-anchor="start" x="231.21" y="-2001" font-family="Helvetica,sans-Serif" font-size="10.00">INetworkAdapter()</text>
<text text-anchor="start" x="215.71" y="-1986" font-family="Helvetica,sans-Serif" font-size="10.00">+</text>
<text text-anchor="start" x="231.21" y="-1986" font-family="Helvetica,sans-Serif" font-size="10.00">~INetworkAdapter()</text>
<text text-anchor="start" x="215.71" y="-1971" font-family="Helvetica,sans-Serif" font-size="10.00">+</text>
<text text-anchor="start" x="231.21" y="-1971" font-family="Helvetica,sans-Serif" font-size="10.00">sendGetRequest()</text>
<text text-anchor="start" x="215.71" y="-1956" font-family="Helvetica,sans-Serif" font-size="10.00">+</text>
<text text-anchor="start" x="231.21" y="-1956" font-family="Helvetica,sans-Serif" font-size="10.00">cancelRequest()</text>
<text text-anchor="start" x="215.71" y="-1941" font-family="Helvetica,sans-Serif" font-size="10.00">+</text>
<text text-anchor="start" x="231.21" y="-1941" font-family="Helvetica,sans-Serif" font-size="10.00">setHeader()</text>
<text text-anchor="start" x="215.71" y="-1926" font-family="Helvetica,sans-Serif" font-size="10.00">+</text>
<text text-anchor="start" x="231.21" y="-1926" font-family="Helvetica,sans-Serif" font-size="10.00">clearHeaders()</text>
<text text-anchor="start" x="215.71" y="-1911" font-family="Helvetica,sans-Serif" font-size="10.00">+</text>
<text text-anchor="start" x="231.21" y="-1911" font-family="Helvetica,sans-Serif" font-size="10.00">setExpectBinaryData()</text>
<text text-anchor="start" x="215.71" y="-1896" font-family="Helvetica,sans-Serif" font-size="10.00">+</text>
<text text-anchor="start" x="231.21" y="-1896" font-family="Helvetica,sans-Serif" font-size="10.00">requestSuccess()</text>
<text text-anchor="start" x="215.71" y="-1881" font-family="Helvetica,sans-Serif" font-size="10.00">+</text>
<text text-anchor="start" x="231.21" y="-1881" font-family="Helvetica,sans-Serif" font-size="10.00">binaryDataFetched()</text>
<text text-anchor="start" x="215.71" y="-1866" font-family="Helvetica,sans-Serif" font-size="10.00">+</text>
<text text-anchor="start" x="231.21" y="-1866" font-family="Helvetica,sans-Serif" font-size="10.00">requestError()</text>
<text text-anchor="start" x="215.71" y="-1851" font-family="Helvetica,sans-Serif" font-size="10.00">+</text>
<text text-anchor="start" x="231.21" y="-1851" font-family="Helvetica,sans-Serif" font-size="10.00">requestProgress()</text>
<polygon fill="#666666" stroke="#666666" points="209.21,-2026 209.21,-2026 351.21,-2026 351.21,-2026 209.21,-2026"/>
<polygon fill="#666666" stroke="#666666" points="209.21,-2011 209.21,-2011 351.21,-2011 351.21,-2011 209.21,-2011"/>
<polygon fill="none" stroke="#666666" points="209.21,-1844 209.21,-2054 351.21,-2054 351.21,-1844 209.21,-1844"/>
</a>
</g>
</g>
<!-- Node4&#45;&gt;Node6 -->
<g id="edge7_Node000006_Node000004" class="edge">
<title>Node4&#45;&gt;Node6</title>
<g id="a_edge7_Node000006_Node000004"><a xlink:title=" ">
<path fill="none" stroke="#63b8ff" d="M280.21,-2080.85C280.21,-2072.7 280.21,-2063.57 280.21,-2054.01"/>
<polygon fill="none" stroke="#63b8ff" points="276.71,-2080.93 280.21,-2090.93 283.71,-2080.93 276.71,-2080.93"/>
</a>
</g>
</g>
<!-- Node7 -->
<g id="Node000007" class="node">
<title>Node7</title>
<g id="a_Node000007"><a xlink:href="classEasyKiConverter_1_1EasyedaImporter.html" target="_top" xlink:title="EasyEDA 数据导入器类">
<polygon fill="white" stroke="transparent" points="448.71,-1751 309.71,-1751 309.71,-1646 448.71,-1646 448.71,-1751"/>
<text text-anchor="start" x="315.21" y="-1738.5" font-family="Helvetica,sans-Serif" font-size="10.00">EasyKiConverter::Easyeda</text>
<text text-anchor="start" x="358.21" y="-1727.5" font-family="Helvetica,sans-Serif" font-size="10.00">Importer</text>
<text text-anchor="start" x="377.71" y="-1712.5" font-family="Helvetica,sans-Serif" font-size="10.00"> </text>
<text text-anchor="start" x="316.71" y="-1697.5" font-family="Helvetica,sans-Serif" font-size="10.00">+</text>
<text text-anchor="start" x="332.21" y="-1697.5" font-family="Helvetica,sans-Serif" font-size="10.00">EasyedaImporter()</text>
<text text-anchor="start" x="316.71" y="-1682.5" font-family="Helvetica,sans-Serif" font-size="10.00">+</text>
<text text-anchor="start" x="332.21" y="-1682.5" font-family="Helvetica,sans-Serif" font-size="10.00">~EasyedaImporter()</text>
<text text-anchor="start" x="316.71" y="-1667.5" font-family="Helvetica,sans-Serif" font-size="10.00">+</text>
<text text-anchor="start" x="332.21" y="-1667.5" font-family="Helvetica,sans-Serif" font-size="10.00">importSymbolData()</text>
<text text-anchor="start" x="316.71" y="-1652.5" font-family="Helvetica,sans-Serif" font-size="10.00">+</text>
<text text-anchor="start" x="332.21" y="-1652.5" font-family="Helvetica,sans-Serif" font-size="10.00">importFootprintData()</text>
<polygon fill="#666666" stroke="#666666" points="310.21,-1722.5 310.21,-1722.5 449.21,-1722.5 449.21,-1722.5 310.21,-1722.5"/>
<polygon fill="#666666" stroke="#666666" points="310.21,-1707.5 310.21,-1707.5 449.21,-1707.5 449.21,-1707.5 310.21,-1707.5"/>
<polygon fill="none" stroke="#666666" points="309.71,-1646 309.71,-1751 448.71,-1751 448.71,-1646 309.71,-1646"/>
</a>
</g>
</g>
<!-- Node4&#45;&gt;Node7 -->
<g id="edge9_Node000007_Node000004" class="edge">
<title>Node4&#45;&gt;Node7</title>
<g id="a_edge9_Node000007_Node000004"><a xlink:title=" ">
<path fill="none" stroke="#63b8ff" d="M314.34,-2097.84C331.24,-2087.66 350.14,-2072.94 360.21,-2054 411.69,-1957.12 400.77,-1823.58 389.33,-1751.19"/>
<polygon fill="none" stroke="#63b8ff" points="312.18,-2095.04 305.22,-2103.02 315.64,-2101.12 312.18,-2095.04"/>
</a>
</g>
</g>
<!-- Node8 -->
<g id="Node000008" class="node">
<title>Node8</title>
<g id="a_Node000008"><a xlink:href="classEasyKiConverter_1_1LcscImageService.html" target="_top" xlink:title="LCSC 图片服务类">
<polygon fill="white" stroke="transparent" points="628.71,-1826 453.71,-1826 453.71,-1571 628.71,-1571 628.71,-1826"/>
<text text-anchor="start" x="472.21" y="-1813.5" font-family="Helvetica,sans-Serif" font-size="10.00">EasyKiConverter::LcscImage</text>
<text text-anchor="start" x="523.21" y="-1802.5" font-family="Helvetica,sans-Serif" font-size="10.00">Service</text>
<text text-anchor="start" x="460.71" y="-1787.5" font-family="Helvetica,sans-Serif" font-size="10.00">&#45;</text>
<text text-anchor="start" x="471.21" y="-1787.5" font-family="Helvetica,sans-Serif" font-size="10.00">m_networkManager</text>
<text text-anchor="start" x="460.71" y="-1772.5" font-family="Helvetica,sans-Serif" font-size="10.00">&#45;</text>
<text text-anchor="start" x="471.21" y="-1772.5" font-family="Helvetica,sans-Serif" font-size="10.00">m_queue</text>
<text text-anchor="start" x="460.71" y="-1757.5" font-family="Helvetica,sans-Serif" font-size="10.00">&#45;</text>
<text text-anchor="start" x="471.21" y="-1757.5" font-family="Helvetica,sans-Serif" font-size="10.00">m_activeRequests</text>
<text text-anchor="start" x="460.71" y="-1742.5" font-family="Helvetica,sans-Serif" font-size="10.00">&#45;</text>
<text text-anchor="start" x="471.21" y="-1742.5" font-family="Helvetica,sans-Serif" font-size="10.00">MAX_CONCURRENT_REQUESTS</text>
<text text-anchor="start" x="458.21" y="-1727.5" font-family="Helvetica,sans-Serif" font-size="10.00">+</text>
<text text-anchor="start" x="471.21" y="-1727.5" font-family="Helvetica,sans-Serif" font-size="10.00">LcscImageService()</text>
<text text-anchor="start" x="458.21" y="-1712.5" font-family="Helvetica,sans-Serif" font-size="10.00">+</text>
<text text-anchor="start" x="471.21" y="-1712.5" font-family="Helvetica,sans-Serif" font-size="10.00">fetchPreviewImage()</text>
<text text-anchor="start" x="458.21" y="-1697.5" font-family="Helvetica,sans-Serif" font-size="10.00">+</text>
<text text-anchor="start" x="471.21" y="-1697.5" font-family="Helvetica,sans-Serif" font-size="10.00">imageReady()</text>
<text text-anchor="start" x="458.21" y="-1682.5" font-family="Helvetica,sans-Serif" font-size="10.00">+</text>
<text text-anchor="start" x="471.21" y="-1682.5" font-family="Helvetica,sans-Serif" font-size="10.00">error()</text>
<text text-anchor="start" x="460.71" y="-1667.5" font-family="Helvetica,sans-Serif" font-size="10.00">&#45;</text>
<text text-anchor="start" x="471.21" y="-1667.5" font-family="Helvetica,sans-Serif" font-size="10.00">processQueue()</text>
<text text-anchor="start" x="460.71" y="-1652.5" font-family="Helvetica,sans-Serif" font-size="10.00">&#45;</text>
<text text-anchor="start" x="471.21" y="-1652.5" font-family="Helvetica,sans-Serif" font-size="10.00">handleSearchResponse()</text>
<text text-anchor="start" x="460.71" y="-1637.5" font-family="Helvetica,sans-Serif" font-size="10.00">&#45;</text>
<text text-anchor="start" x="471.21" y="-1637.5" font-family="Helvetica,sans-Serif" font-size="10.00">handleFallbackResponse()</text>
<text text-anchor="start" x="460.71" y="-1622.5" font-family="Helvetica,sans-Serif" font-size="10.00">&#45;</text>
<text text-anchor="start" x="471.21" y="-1622.5" font-family="Helvetica,sans-Serif" font-size="10.00">handleDownloadResponse()</text>
<text text-anchor="start" x="460.71" y="-1607.5" font-family="Helvetica,sans-Serif" font-size="10.00">&#45;</text>
<text text-anchor="start" x="471.21" y="-1607.5" font-family="Helvetica,sans-Serif" font-size="10.00">performSearch()</text>
<text text-anchor="start" x="460.71" y="-1592.5" font-family="Helvetica,sans-Serif" font-size="10.00">&#45;</text>
<text text-anchor="start" x="471.21" y="-1592.5" font-family="Helvetica,sans-Serif" font-size="10.00">performFallback()</text>
<text text-anchor="start" x="460.71" y="-1577.5" font-family="Helvetica,sans-Serif" font-size="10.00">&#45;</text>
<text text-anchor="start" x="471.21" y="-1577.5" font-family="Helvetica,sans-Serif" font-size="10.00">performDownload()</text>
<polygon fill="#666666" stroke="#666666" points="454.21,-1797.5 454.21,-1797.5 629.21,-1797.5 629.21,-1797.5 454.21,-1797.5"/>
<polygon fill="#666666" stroke="#666666" points="454.21,-1737.5 454.21,-1737.5 469.21,-1737.5 469.21,-1737.5 454.21,-1737.5"/>
<polygon fill="#666666" stroke="#666666" points="469.21,-1737.5 469.21,-1737.5 629.21,-1737.5 629.21,-1737.5 469.21,-1737.5"/>
<polygon fill="none" stroke="#666666" points="453.71,-1571 453.71,-1826 628.71,-1826 628.71,-1571 453.71,-1571"/>
</a>
</g>
</g>
<!-- Node4&#45;&gt;Node8 -->
<g id="edge11_Node000008_Node000004" class="edge">
<title>Node4&#45;&gt;Node8</title>
<g id="a_edge11_Node000008_Node000004"><a xlink:title=" ">
<path fill="none" stroke="#63b8ff" d="M314.87,-2103.62C339.97,-2094.13 373.06,-2078.08 394.21,-2054 451.15,-1989.18 488.1,-1899.22 510.71,-1826.15"/>
<polygon fill="none" stroke="#63b8ff" points="313.57,-2100.37 305.34,-2107.05 315.94,-2106.95 313.57,-2100.37"/>
</a>
</g>
</g>
<!-- Node5&#45;&gt;Node3 -->
<g id="edge4_Node000003_Node000005" class="edge">
<title>Node5&#45;&gt;Node3</title>
<g id="a_edge4_Node000003_Node000005"><a xlink:title=" ">
<path fill="none" stroke="#63b8ff" d="M306.14,-1053.8C308.66,-1042.41 311.2,-1030.93 313.73,-1019.43"/>
<polygon fill="none" stroke="#63b8ff" points="313.79,-1019.17 311.18,-1012.45 316.38,-1007.46 318.99,-1014.18 313.79,-1019.17"/>
</a>
</g>
<text text-anchor="middle" x="330.71" y="-1028" font-family="Helvetica,sans-Serif" font-size="10.00" fill="grey"> &#45;m_api</text>
</g>
<!-- Node6&#45;&gt;Node5 -->
<g id="edge6_Node000005_Node000006" class="edge">
<title>Node6&#45;&gt;Node5</title>
<g id="a_edge6_Node000005_Node000006"><a xlink:title=" ">
<path fill="none" stroke="#63b8ff" d="M220.62,-1843.83C218.53,-1837.9 216.69,-1831.94 215.21,-1826 194.36,-1742.52 193.89,-1649.34 201.57,-1565.1"/>
<polygon fill="none" stroke="#63b8ff" points="201.58,-1564.95 198.18,-1558.59 202.73,-1553 206.14,-1559.36 201.58,-1564.95"/>
</a>
</g>
<text text-anchor="middle" x="257.71" y="-1696" font-family="Helvetica,sans-Serif" font-size="10.00" fill="grey"> &#45;m_networkUtils</text>
</g>
<!-- Node7&#45;&gt;Node3 -->
<g id="edge8_Node000003_Node000007" class="edge">
<title>Node7&#45;&gt;Node3</title>
<g id="a_edge8_Node000003_Node000007"><a xlink:title=" ">
<path fill="none" stroke="#63b8ff" d="M379.21,-1645.79C379.21,-1530.07 379.21,-1242.84 379.21,-1019.3"/>
<polygon fill="none" stroke="#63b8ff" points="379.21,-1019.03 375.21,-1013.03 379.21,-1007.03 383.21,-1013.03 379.21,-1019.03"/>
</a>
</g>
<text text-anchor="middle" x="411.21" y="-1301" font-family="Helvetica,sans-Serif" font-size="10.00" fill="grey"> &#45;m_importer</text>
</g>
<!-- Node8&#45;&gt;Node3 -->
<g id="edge10_Node000003_Node000008" class="edge">
<title>Node8&#45;&gt;Node3</title>
<g id="a_edge10_Node000003_Node000008"><a xlink:title=" ">
<path fill="none" stroke="#63b8ff" d="M493.53,-1570.78C491.94,-1564.81 490.49,-1558.86 489.21,-1553 441.79,-1335.55 478.99,-1274.28 447.21,-1054 445.58,-1042.69 443.8,-1031.18 441.91,-1019.57"/>
<polygon fill="none" stroke="#63b8ff" points="441.86,-1019.28 436.93,-1014.02 439.9,-1007.44 444.83,-1012.71 441.86,-1019.28"/>
</a>
</g>
<text text-anchor="middle" x="533.71" y="-1301" font-family="Helvetica,sans-Serif" font-size="10.00" fill="grey"> &#45;m_imageService</text>
</g>
<!-- Node9 -->
<g id="Node000009" class="node">
<title>Node9</title>
<g id="a_Node000009"><a xlink:href="classEasyKiConverter_1_1ComponentData.html" target="_top" xlink:title="元件数据">
<polygon fill="white" stroke="transparent" points="763.71,-1463 586.71,-1463 586.71,-1144 763.71,-1144 763.71,-1463"/>
<text text-anchor="start" x="592.21" y="-1450.5" font-family="Helvetica,sans-Serif" font-size="10.00">EasyKiConverter::ComponentData</text>
<text text-anchor="start" x="608.71" y="-1435.5" font-family="Helvetica,sans-Serif" font-size="10.00">&#45;</text>
<text text-anchor="start" x="634.21" y="-1435.5" font-family="Helvetica,sans-Serif" font-size="10.00">m_lcscId</text>
<text text-anchor="start" x="608.71" y="-1420.5" font-family="Helvetica,sans-Serif" font-size="10.00">&#45;</text>
<text text-anchor="start" x="634.21" y="-1420.5" font-family="Helvetica,sans-Serif" font-size="10.00">m_name</text>
<text text-anchor="start" x="608.71" y="-1405.5" font-family="Helvetica,sans-Serif" font-size="10.00">&#45;</text>
<text text-anchor="start" x="634.21" y="-1405.5" font-family="Helvetica,sans-Serif" font-size="10.00">m_prefix</text>
<text text-anchor="start" x="608.71" y="-1390.5" font-family="Helvetica,sans-Serif" font-size="10.00">&#45;</text>
<text text-anchor="start" x="634.21" y="-1390.5" font-family="Helvetica,sans-Serif" font-size="10.00">m_package</text>
<text text-anchor="start" x="608.71" y="-1375.5" font-family="Helvetica,sans-Serif" font-size="10.00">&#45;</text>
<text text-anchor="start" x="634.21" y="-1375.5" font-family="Helvetica,sans-Serif" font-size="10.00">m_manufacturer</text>
<text text-anchor="start" x="608.71" y="-1360.5" font-family="Helvetica,sans-Serif" font-size="10.00">&#45;</text>
<text text-anchor="start" x="634.21" y="-1360.5" font-family="Helvetica,sans-Serif" font-size="10.00">m_datasheet</text>
<text text-anchor="start" x="608.71" y="-1345.5" font-family="Helvetica,sans-Serif" font-size="10.00">&#45;</text>
<text text-anchor="start" x="634.21" y="-1345.5" font-family="Helvetica,sans-Serif" font-size="10.00">m_symbolData</text>
<text text-anchor="start" x="608.71" y="-1330.5" font-family="Helvetica,sans-Serif" font-size="10.00">&#45;</text>
<text text-anchor="start" x="634.21" y="-1330.5" font-family="Helvetica,sans-Serif" font-size="10.00">m_footprintData</text>
<text text-anchor="start" x="608.71" y="-1315.5" font-family="Helvetica,sans-Serif" font-size="10.00">&#45;</text>
<text text-anchor="start" x="634.21" y="-1315.5" font-family="Helvetica,sans-Serif" font-size="10.00">m_model3DData</text>
<text text-anchor="start" x="606.21" y="-1300.5" font-family="Helvetica,sans-Serif" font-size="10.00">+</text>
<text text-anchor="start" x="634.21" y="-1300.5" font-family="Helvetica,sans-Serif" font-size="10.00">ComponentData()</text>
<text text-anchor="start" x="606.21" y="-1285.5" font-family="Helvetica,sans-Serif" font-size="10.00">+</text>
<text text-anchor="start" x="634.21" y="-1285.5" font-family="Helvetica,sans-Serif" font-size="10.00">~ComponentData()</text>
<text text-anchor="start" x="606.21" y="-1270.5" font-family="Helvetica,sans-Serif" font-size="10.00">+</text>
<text text-anchor="start" x="634.21" y="-1270.5" font-family="Helvetica,sans-Serif" font-size="10.00">lcscId()</text>
<text text-anchor="start" x="606.21" y="-1255.5" font-family="Helvetica,sans-Serif" font-size="10.00">+</text>
<text text-anchor="start" x="634.21" y="-1255.5" font-family="Helvetica,sans-Serif" font-size="10.00">setLcscId()</text>
<text text-anchor="start" x="606.21" y="-1240.5" font-family="Helvetica,sans-Serif" font-size="10.00">+</text>
<text text-anchor="start" x="634.21" y="-1240.5" font-family="Helvetica,sans-Serif" font-size="10.00">name()</text>
<text text-anchor="start" x="606.21" y="-1225.5" font-family="Helvetica,sans-Serif" font-size="10.00">+</text>
<text text-anchor="start" x="634.21" y="-1225.5" font-family="Helvetica,sans-Serif" font-size="10.00">setName()</text>
<text text-anchor="start" x="606.21" y="-1210.5" font-family="Helvetica,sans-Serif" font-size="10.00">+</text>
<text text-anchor="start" x="634.21" y="-1210.5" font-family="Helvetica,sans-Serif" font-size="10.00">prefix()</text>
<text text-anchor="start" x="606.21" y="-1195.5" font-family="Helvetica,sans-Serif" font-size="10.00">+</text>
<text text-anchor="start" x="634.21" y="-1195.5" font-family="Helvetica,sans-Serif" font-size="10.00">setPrefix()</text>
<text text-anchor="start" x="606.21" y="-1180.5" font-family="Helvetica,sans-Serif" font-size="10.00">+</text>
<text text-anchor="start" x="634.21" y="-1180.5" font-family="Helvetica,sans-Serif" font-size="10.00">package()</text>
<text text-anchor="start" x="606.21" y="-1165.5" font-family="Helvetica,sans-Serif" font-size="10.00">+</text>
<text text-anchor="start" x="634.21" y="-1165.5" font-family="Helvetica,sans-Serif" font-size="10.00">setPackage()</text>
<text text-anchor="start" x="634.21" y="-1150.5" font-family="Helvetica,sans-Serif" font-size="10.00">和 15 更多...</text>
<polygon fill="#666666" stroke="#666666" points="587.21,-1445.5 587.21,-1445.5 764.21,-1445.5 764.21,-1445.5 587.21,-1445.5"/>
<polygon fill="#666666" stroke="#666666" points="587.21,-1310.5 587.21,-1310.5 632.21,-1310.5 632.21,-1310.5 587.21,-1310.5"/>
<polygon fill="#666666" stroke="#666666" points="632.21,-1310.5 632.21,-1310.5 764.21,-1310.5 764.21,-1310.5 632.21,-1310.5"/>
<polygon fill="none" stroke="#666666" points="586.71,-1144 586.71,-1463 763.71,-1463 763.71,-1144 586.71,-1144"/>
</a>
</g>
</g>
<!-- Node9&#45;&gt;Node3 -->
<g id="edge12_Node000003_Node000009" class="edge">
<title>Node9&#45;&gt;Node3</title>
<g id="a_edge12_Node000003_Node000009"><a xlink:title=" ">
<path fill="none" stroke="#63b8ff" d="M613.26,-1143.98C600.41,-1113.77 586.42,-1082.66 572.21,-1054 543.54,-996.19 508.89,-934.67 476.91,-880.55"/>
<polygon fill="none" stroke="#63b8ff" points="476.88,-880.51 470.38,-877.38 470.76,-870.18 477.26,-873.3 476.88,-880.51"/>
</a>
</g>
<text text-anchor="middle" x="632.71" y="-1028" font-family="Helvetica,sans-Serif" font-size="10.00" fill="grey"> &#45;m_pendingComponentData</text>
</g>
</g>
</svg>
