<?xml version="1.0" encoding="UTF-8" standalone="no"?>
<!DOCTYPE svg PUBLIC "-//W3C//DTD SVG 1.1//EN"
 "http://www.w3.org/Graphics/SVG/1.1/DTD/svg11.dtd">
<!-- Generated by graphviz version 2.43.0 (0)
 -->
<!-- Title: EasyKiConverter::SymbolExportWorker Pages: 1 -->
<svg width="476pt" height="554pt"
 viewBox="0.00 0.00 475.50 554.00" xmlns="http://www.w3.org/2000/svg" xmlns:xlink="http://www.w3.org/1999/xlink">
<g id="graph0" class="graph" transform="scale(1 1) rotate(0) translate(4 550)">
<title>EasyKiConverter::SymbolExportWorker</title>
<!-- Node1 -->
<g id="Node000001" class="node">
<title>Node1</title>
<g id="a_Node000001"><a xlink:title="符号导出Worker">
<polygon fill="#999999" stroke="transparent" points="241,-180 75,-180 75,0 241,0 241,-180"/>
<text text-anchor="start" x="80" y="-168" font-family="Helvetica,sans-Serif" font-size="10.00">EasyKiConverter::SymbolExport</text>
<text text-anchor="start" x="141" y="-157" font-family="Helvetica,sans-Serif" font-size="10.00">Worker</text>
<text text-anchor="start" x="90" y="-142" font-family="Helvetica,sans-Serif" font-size="10.00">&#45;</text>
<text text-anchor="start" x="109" y="-142" font-family="Helvetica,sans-Serif" font-size="10.00">m_componentId</text>
<text text-anchor="start" x="90" y="-127" font-family="Helvetica,sans-Serif" font-size="10.00">&#45;</text>
<text text-anchor="start" x="109" y="-127" font-family="Helvetica,sans-Serif" font-size="10.00">m_data</text>
<text text-anchor="start" x="90" y="-112" font-family="Helvetica,sans-Serif" font-size="10.00">&#45;</text>
<text text-anchor="start" x="109" y="-112" font-family="Helvetica,sans-Serif" font-size="10.00">m_cancelled</text>
<text text-anchor="start" x="87.5" y="-97" font-family="Helvetica,sans-Serif" font-size="10.00">+</text>
<text text-anchor="start" x="109" y="-97" font-family="Helvetica,sans-Serif" font-size="10.00">SymbolExportWorker()</text>
<text text-anchor="start" x="87.5" y="-82" font-family="Helvetica,sans-Serif" font-size="10.00">+</text>
<text text-anchor="start" x="109" y="-82" font-family="Helvetica,sans-Serif" font-size="10.00">setData()</text>
<text text-anchor="start" x="87.5" y="-67" font-family="Helvetica,sans-Serif" font-size="10.00">+</text>
<text text-anchor="start" x="109" y="-67" font-family="Helvetica,sans-Serif" font-size="10.00">run()</text>
<text text-anchor="start" x="87.5" y="-52" font-family="Helvetica,sans-Serif" font-size="10.00">+</text>
<text text-anchor="start" x="109" y="-52" font-family="Helvetica,sans-Serif" font-size="10.00">cancel()</text>
<text text-anchor="start" x="87.5" y="-37" font-family="Helvetica,sans-Serif" font-size="10.00">+</text>
<text text-anchor="start" x="109" y="-37" font-family="Helvetica,sans-Serif" font-size="10.00">componentId()</text>
<text text-anchor="start" x="87.5" y="-22" font-family="Helvetica,sans-Serif" font-size="10.00">+</text>
<text text-anchor="start" x="109" y="-22" font-family="Helvetica,sans-Serif" font-size="10.00">setOptions()</text>
<text text-anchor="start" x="87.5" y="-7" font-family="Helvetica,sans-Serif" font-size="10.00">+</text>
<text text-anchor="start" x="109" y="-7" font-family="Helvetica,sans-Serif" font-size="10.00">completed()</text>
<polygon fill="#666666" stroke="#666666" points="75,-152 75,-152 241,-152 241,-152 75,-152"/>
<polygon fill="#666666" stroke="#666666" points="75,-107 75,-107 107,-107 107,-107 75,-107"/>
<polygon fill="#666666" stroke="#666666" points="107,-107 107,-107 241,-107 241,-107 107,-107"/>
<polygon fill="none" stroke="#666666" points="75,0 75,-180 241,-180 241,0 75,0"/>
</a>
</g>
</g>
<!-- Node2 -->
<g id="Node000002" class="node">
<title>Node2</title>
<g id="a_Node000002"><a xlink:title=" ">
<polygon fill="white" stroke="transparent" points="50,-411 0,-411 0,-362 50,-362 50,-411"/>
<text text-anchor="start" x="5" y="-398.5" font-family="Helvetica,sans-Serif" font-size="10.00">QObject</text>
<text text-anchor="start" x="23" y="-383.5" font-family="Helvetica,sans-Serif" font-size="10.00"> </text>
<text text-anchor="start" x="23" y="-368.5" font-family="Helvetica,sans-Serif" font-size="10.00"> </text>
<polygon fill="#666666" stroke="#666666" points="0,-393.5 0,-393.5 50,-393.5 50,-393.5 0,-393.5"/>
<polygon fill="#666666" stroke="#666666" points="0,-378.5 0,-378.5 50,-378.5 50,-378.5 0,-378.5"/>
<polygon fill="none" stroke="#666666" points="0,-362 0,-411 50,-411 50,-362 0,-362"/>
</a>
</g>
</g>
<!-- Node2&#45;&gt;Node1 -->
<g id="edge1_Node000001_Node000002" class="edge">
<title>Node2&#45;&gt;Node1</title>
<g id="a_edge1_Node000001_Node000002"><a xlink:title=" ">
<path fill="none" stroke="#63b8ff" d="M28.1,-351.96C32.07,-318.98 40.76,-267.81 59,-227 66.09,-211.14 75.23,-195.3 85.09,-180.33"/>
<polygon fill="none" stroke="#63b8ff" points="24.61,-351.66 26.96,-361.99 31.56,-352.44 24.61,-351.66"/>
</a>
</g>
</g>
<!-- Node3 -->
<g id="Node000003" class="node">
<title>Node3</title>
<g id="a_Node000003"><a xlink:title=" ">
<polygon fill="white" stroke="transparent" points="132,-411 68,-411 68,-362 132,-362 132,-411"/>
<text text-anchor="start" x="73" y="-398.5" font-family="Helvetica,sans-Serif" font-size="10.00">QRunnable</text>
<text text-anchor="start" x="98" y="-383.5" font-family="Helvetica,sans-Serif" font-size="10.00"> </text>
<text text-anchor="start" x="98" y="-368.5" font-family="Helvetica,sans-Serif" font-size="10.00"> </text>
<polygon fill="#666666" stroke="#666666" points="68,-393.5 68,-393.5 132,-393.5 132,-393.5 68,-393.5"/>
<polygon fill="#666666" stroke="#666666" points="68,-378.5 68,-378.5 132,-378.5 132,-378.5 68,-378.5"/>
<polygon fill="none" stroke="#666666" points="68,-362 68,-411 132,-411 132,-362 68,-362"/>
</a>
</g>
</g>
<!-- Node3&#45;&gt;Node1 -->
<g id="edge2_Node000001_Node000003" class="edge">
<title>Node3&#45;&gt;Node1</title>
<g id="a_edge2_Node000001_Node000003"><a xlink:title=" ">
<path fill="none" stroke="#63b8ff" d="M106.59,-352.05C114.76,-310.57 129,-238.27 140.42,-180.26"/>
<polygon fill="none" stroke="#63b8ff" points="103.15,-351.41 104.65,-361.9 110.01,-352.76 103.15,-351.41"/>
</a>
</g>
</g>
<!-- Node4 -->
<g id="Node000004" class="node">
<title>Node4</title>
<g id="a_Node000004"><a xlink:href="classEasyKiConverter_1_1IExportWorker.html" target="_top" xlink:title="导出Worker接口">
<polygon fill="white" stroke="transparent" points="282,-446.5 150,-446.5 150,-326.5 282,-326.5 282,-446.5"/>
<text text-anchor="start" x="155" y="-434.5" font-family="Helvetica,sans-Serif" font-size="10.00">EasyKiConverter::IExport</text>
<text text-anchor="start" x="199" y="-423.5" font-family="Helvetica,sans-Serif" font-size="10.00">Worker</text>
<text text-anchor="start" x="214" y="-408.5" font-family="Helvetica,sans-Serif" font-size="10.00"> </text>
<text text-anchor="start" x="160.5" y="-393.5" font-family="Helvetica,sans-Serif" font-size="10.00">+</text>
<text text-anchor="start" x="180" y="-393.5" font-family="Helvetica,sans-Serif" font-size="10.00">~IExportWorker()</text>
<text text-anchor="start" x="160.5" y="-378.5" font-family="Helvetica,sans-Serif" font-size="10.00">+</text>
<text text-anchor="start" x="180" y="-378.5" font-family="Helvetica,sans-Serif" font-size="10.00">setData()</text>
<text text-anchor="start" x="160.5" y="-363.5" font-family="Helvetica,sans-Serif" font-size="10.00">+</text>
<text text-anchor="start" x="180" y="-363.5" font-family="Helvetica,sans-Serif" font-size="10.00">cancel()</text>
<text text-anchor="start" x="160.5" y="-348.5" font-family="Helvetica,sans-Serif" font-size="10.00">+</text>
<text text-anchor="start" x="180" y="-348.5" font-family="Helvetica,sans-Serif" font-size="10.00">componentId()</text>
<text text-anchor="start" x="160.5" y="-333.5" font-family="Helvetica,sans-Serif" font-size="10.00">+</text>
<text text-anchor="start" x="180" y="-333.5" font-family="Helvetica,sans-Serif" font-size="10.00">run()</text>
<polygon fill="#666666" stroke="#666666" points="150,-418.5 150,-418.5 282,-418.5 282,-418.5 150,-418.5"/>
<polygon fill="#666666" stroke="#666666" points="150,-403.5 150,-403.5 282,-403.5 282,-403.5 150,-403.5"/>
<polygon fill="none" stroke="#666666" points="150,-326.5 150,-446.5 282,-446.5 282,-326.5 150,-326.5"/>
</a>
</g>
</g>
<!-- Node4&#45;&gt;Node1 -->
<g id="edge3_Node000001_Node000004" class="edge">
<title>Node4&#45;&gt;Node1</title>
<g id="a_edge3_Node000001_Node000004"><a xlink:title=" ">
<path fill="none" stroke="#63b8ff" d="M202.4,-316.43C194.38,-275.73 184.16,-223.81 175.54,-180.06"/>
<polygon fill="none" stroke="#63b8ff" points="198.97,-317.12 204.33,-326.26 205.83,-315.77 198.97,-317.12"/>
</a>
</g>
</g>
<!-- Node5 -->
<g id="Node000005" class="node">
<title>Node5</title>
<g id="a_Node000005"><a xlink:href="structEasyKiConverter_1_1ExportOptions.html" target="_top" xlink:title="导出选项配置">
<polygon fill="white" stroke="transparent" points="467.5,-546 300.5,-546 300.5,-227 467.5,-227 467.5,-546"/>
<text text-anchor="start" x="306" y="-533.5" font-family="Helvetica,sans-Serif" font-size="10.00">EasyKiConverter::ExportOptions</text>
<text text-anchor="start" x="306" y="-518.5" font-family="Helvetica,sans-Serif" font-size="10.00">+</text>
<text text-anchor="start" x="320" y="-518.5" font-family="Helvetica,sans-Serif" font-size="10.00">outputPath</text>
<text text-anchor="start" x="306" y="-503.5" font-family="Helvetica,sans-Serif" font-size="10.00">+</text>
<text text-anchor="start" x="320" y="-503.5" font-family="Helvetica,sans-Serif" font-size="10.00">libName</text>
<text text-anchor="start" x="306" y="-488.5" font-family="Helvetica,sans-Serif" font-size="10.00">+</text>
<text text-anchor="start" x="320" y="-488.5" font-family="Helvetica,sans-Serif" font-size="10.00">exportSymbol</text>
<text text-anchor="start" x="306" y="-473.5" font-family="Helvetica,sans-Serif" font-size="10.00">+</text>
<text text-anchor="start" x="320" y="-473.5" font-family="Helvetica,sans-Serif" font-size="10.00">exportFootprint</text>
<text text-anchor="start" x="306" y="-458.5" font-family="Helvetica,sans-Serif" font-size="10.00">+</text>
<text text-anchor="start" x="320" y="-458.5" font-family="Helvetica,sans-Serif" font-size="10.00">exportModel3D</text>
<text text-anchor="start" x="306" y="-443.5" font-family="Helvetica,sans-Serif" font-size="10.00">+</text>
<text text-anchor="start" x="320" y="-443.5" font-family="Helvetica,sans-Serif" font-size="10.00">exportModel3DFormat</text>
<text text-anchor="start" x="306" y="-428.5" font-family="Helvetica,sans-Serif" font-size="10.00">+</text>
<text text-anchor="start" x="320" y="-428.5" font-family="Helvetica,sans-Serif" font-size="10.00">exportModel3DPathMode</text>
<text text-anchor="start" x="306" y="-413.5" font-family="Helvetica,sans-Serif" font-size="10.00">+</text>
<text text-anchor="start" x="320" y="-413.5" font-family="Helvetica,sans-Serif" font-size="10.00">exportPreviewImages</text>
<text text-anchor="start" x="306" y="-398.5" font-family="Helvetica,sans-Serif" font-size="10.00">+</text>
<text text-anchor="start" x="320" y="-398.5" font-family="Helvetica,sans-Serif" font-size="10.00">exportDatasheet</text>
<text text-anchor="start" x="306" y="-383.5" font-family="Helvetica,sans-Serif" font-size="10.00">+</text>
<text text-anchor="start" x="320" y="-383.5" font-family="Helvetica,sans-Serif" font-size="10.00">overwriteExistingFiles</text>
<text text-anchor="start" x="320" y="-368.5" font-family="Helvetica,sans-Serif" font-size="10.00">和 9 更多...</text>
<text text-anchor="start" x="306" y="-353.5" font-family="Helvetica,sans-Serif" font-size="10.00">+</text>
<text text-anchor="start" x="320" y="-353.5" font-family="Helvetica,sans-Serif" font-size="10.00">MODEL_3D_FORMAT_NONE</text>
<text text-anchor="start" x="306" y="-338.5" font-family="Helvetica,sans-Serif" font-size="10.00">+</text>
<text text-anchor="start" x="320" y="-338.5" font-family="Helvetica,sans-Serif" font-size="10.00">MODEL_3D_FORMAT_WRL</text>
<text text-anchor="start" x="306" y="-323.5" font-family="Helvetica,sans-Serif" font-size="10.00">+</text>
<text text-anchor="start" x="320" y="-323.5" font-family="Helvetica,sans-Serif" font-size="10.00">MODEL_3D_FORMAT_STEP</text>
<text text-anchor="start" x="306" y="-308.5" font-family="Helvetica,sans-Serif" font-size="10.00">+</text>
<text text-anchor="start" x="320" y="-308.5" font-family="Helvetica,sans-Serif" font-size="10.00">MODEL_3D_FORMAT_BOTH</text>
<text text-anchor="start" x="306" y="-293.5" font-family="Helvetica,sans-Serif" font-size="10.00">+</text>
<text text-anchor="start" x="320" y="-293.5" font-family="Helvetica,sans-Serif" font-size="10.00">MODEL_3D_PATH_RELATIVE</text>
<text text-anchor="start" x="306" y="-278.5" font-family="Helvetica,sans-Serif" font-size="10.00">+</text>
<text text-anchor="start" x="320" y="-278.5" font-family="Helvetica,sans-Serif" font-size="10.00">MODEL_3D_PATH_ABSOLUTE</text>
<text text-anchor="start" x="306" y="-263.5" font-family="Helvetica,sans-Serif" font-size="10.00">+</text>
<text text-anchor="start" x="320" y="-263.5" font-family="Helvetica,sans-Serif" font-size="10.00">needsModel3DWrl()</text>
<text text-anchor="start" x="306" y="-248.5" font-family="Helvetica,sans-Serif" font-size="10.00">+</text>
<text text-anchor="start" x="320" y="-248.5" font-family="Helvetica,sans-Serif" font-size="10.00">needsModel3DStep()</text>
<text text-anchor="start" x="306" y="-233.5" font-family="Helvetica,sans-Serif" font-size="10.00">+</text>
<text text-anchor="start" x="320" y="-233.5" font-family="Helvetica,sans-Serif" font-size="10.00">normalizePathMode()</text>
<polygon fill="#666666" stroke="#666666" points="301,-528.5 301,-528.5 468,-528.5 468,-528.5 301,-528.5"/>
<polygon fill="#666666" stroke="#666666" points="301,-273.5 301,-273.5 318,-273.5 318,-273.5 301,-273.5"/>
<polygon fill="#666666" stroke="#666666" points="318,-273.5 318,-273.5 468,-273.5 468,-273.5 318,-273.5"/>
<polygon fill="none" stroke="#666666" points="300.5,-227 300.5,-546 467.5,-546 467.5,-227 300.5,-227"/>
</a>
</g>
</g>
<!-- Node5&#45;&gt;Node1 -->
<g id="edge4_Node000001_Node000005" class="edge">
<title>Node5&#45;&gt;Node1</title>
<g id="a_edge4_Node000001_Node000005"><a xlink:title=" ">
<path fill="none" stroke="#63b8ff" d="M300.22,-239.48C297.17,-235.22 294.1,-231.06 291,-227 278.51,-210.66 264.23,-194.22 249.77,-178.69"/>
<polygon fill="none" stroke="#63b8ff" points="249.48,-178.39 242.45,-176.78 241.24,-169.67 248.27,-171.28 249.48,-178.39"/>
</a>
</g>
<text text-anchor="middle" x="304" y="-201" font-family="Helvetica,sans-Serif" font-size="10.00" fill="grey"> &#45;m_options</text>
</g>
</g>
</svg>
