<?xml version="1.0" encoding="UTF-8" standalone="no"?>
<!DOCTYPE svg PUBLIC "-//W3C//DTD SVG 1.1//EN"
 "http://www.w3.org/Graphics/SVG/1.1/DTD/svg11.dtd">
<!-- Generated by graphviz version 2.43.0 (0)
 -->
<!-- Title: EasyKiConverter::TempFileManager Pages: 1 -->
<svg width="189pt" height="449pt"
 viewBox="0.00 0.00 189.00 449.00" xmlns="http://www.w3.org/2000/svg" xmlns:xlink="http://www.w3.org/1999/xlink">
<g id="graph0" class="graph" transform="scale(1 1) rotate(0) translate(4 445)">
<title>EasyKiConverter::TempFileManager</title>
<!-- Node1 -->
<g id="Node000001" class="node">
<title>Node1</title>
<g id="a_Node000001"><a xlink:title="临时文件管理器">
<polygon fill="#999999" stroke="transparent" points="181,-356 0,-356 0,0 181,0 181,-356"/>
<text text-anchor="start" x="25.5" y="-344" font-family="Helvetica,sans-Serif" font-size="10.00">EasyKiConverter::TempFile</text>
<text text-anchor="start" x="69.5" y="-333" font-family="Helvetica,sans-Serif" font-size="10.00">Manager</text>
<text text-anchor="start" x="7" y="-318" font-family="Helvetica,sans-Serif" font-size="10.00">&#45;</text>
<text text-anchor="start" x="17.5" y="-318" font-family="Helvetica,sans-Serif" font-size="10.00">m_outputPath</text>
<text text-anchor="start" x="7" y="-303" font-family="Helvetica,sans-Serif" font-size="10.00">&#45;</text>
<text text-anchor="start" x="17.5" y="-303" font-family="Helvetica,sans-Serif" font-size="10.00">m_mutex</text>
<text text-anchor="start" x="7" y="-288" font-family="Helvetica,sans-Serif" font-size="10.00">&#45;</text>
<text text-anchor="start" x="17.5" y="-288" font-family="Helvetica,sans-Serif" font-size="10.00">m_tempFiles</text>
<text text-anchor="start" x="7" y="-273" font-family="Helvetica,sans-Serif" font-size="10.00">&#45;</text>
<text text-anchor="start" x="17.5" y="-273" font-family="Helvetica,sans-Serif" font-size="10.00">m_tempDirName</text>
<text text-anchor="start" x="4.5" y="-258" font-family="Helvetica,sans-Serif" font-size="10.00">+</text>
<text text-anchor="start" x="17.5" y="-258" font-family="Helvetica,sans-Serif" font-size="10.00">TempFileManager()</text>
<text text-anchor="start" x="4.5" y="-243" font-family="Helvetica,sans-Serif" font-size="10.00">+</text>
<text text-anchor="start" x="17.5" y="-243" font-family="Helvetica,sans-Serif" font-size="10.00">~TempFileManager()</text>
<text text-anchor="start" x="4.5" y="-228" font-family="Helvetica,sans-Serif" font-size="10.00">+</text>
<text text-anchor="start" x="17.5" y="-228" font-family="Helvetica,sans-Serif" font-size="10.00">setOutputPath()</text>
<text text-anchor="start" x="4.5" y="-213" font-family="Helvetica,sans-Serif" font-size="10.00">+</text>
<text text-anchor="start" x="17.5" y="-213" font-family="Helvetica,sans-Serif" font-size="10.00">tempDirectory()</text>
<text text-anchor="start" x="4.5" y="-198" font-family="Helvetica,sans-Serif" font-size="10.00">+</text>
<text text-anchor="start" x="17.5" y="-198" font-family="Helvetica,sans-Serif" font-size="10.00">createTempFilePath()</text>
<text text-anchor="start" x="4.5" y="-183" font-family="Helvetica,sans-Serif" font-size="10.00">+</text>
<text text-anchor="start" x="17.5" y="-183" font-family="Helvetica,sans-Serif" font-size="10.00">tempFilePath()</text>
<text text-anchor="start" x="4.5" y="-168" font-family="Helvetica,sans-Serif" font-size="10.00">+</text>
<text text-anchor="start" x="17.5" y="-168" font-family="Helvetica,sans-Serif" font-size="10.00">createSymbolTempPath()</text>
<text text-anchor="start" x="4.5" y="-153" font-family="Helvetica,sans-Serif" font-size="10.00">+</text>
<text text-anchor="start" x="17.5" y="-153" font-family="Helvetica,sans-Serif" font-size="10.00">createTempDirectoryPath()</text>
<text text-anchor="start" x="4.5" y="-138" font-family="Helvetica,sans-Serif" font-size="10.00">+</text>
<text text-anchor="start" x="17.5" y="-138" font-family="Helvetica,sans-Serif" font-size="10.00">commit()</text>
<text text-anchor="start" x="4.5" y="-123" font-family="Helvetica,sans-Serif" font-size="10.00">+</text>
<text text-anchor="start" x="17.5" y="-123" font-family="Helvetica,sans-Serif" font-size="10.00">commitDirectory()</text>
<text text-anchor="start" x="17.5" y="-108" font-family="Helvetica,sans-Serif" font-size="10.00">和 10 更多...</text>
<text text-anchor="start" x="4.5" y="-93" font-family="Helvetica,sans-Serif" font-size="10.00">+</text>
<text text-anchor="start" x="17.5" y="-93" font-family="Helvetica,sans-Serif" font-size="10.00">recoverIncompleteTransactions()</text>
<text text-anchor="start" x="7" y="-78" font-family="Helvetica,sans-Serif" font-size="10.00">&#45;</text>
<text text-anchor="start" x="17.5" y="-78" font-family="Helvetica,sans-Serif" font-size="10.00">generateUniqueTempName()</text>
<text text-anchor="start" x="7" y="-63" font-family="Helvetica,sans-Serif" font-size="10.00">&#45;</text>
<text text-anchor="start" x="17.5" y="-63" font-family="Helvetica,sans-Serif" font-size="10.00">ensureTempDirectory()</text>
<text text-anchor="start" x="7" y="-48" font-family="Helvetica,sans-Serif" font-size="10.00">&#45;</text>
<text text-anchor="start" x="17.5" y="-48" font-family="Helvetica,sans-Serif" font-size="10.00">deleteFile()</text>
<text text-anchor="start" x="7" y="-33" font-family="Helvetica,sans-Serif" font-size="10.00">&#45;</text>
<text text-anchor="start" x="17.5" y="-33" font-family="Helvetica,sans-Serif" font-size="10.00">commitBatchLocked()</text>
<text text-anchor="start" x="7" y="-18" font-family="Helvetica,sans-Serif" font-size="10.00">&#45;</text>
<text text-anchor="start" x="17.5" y="-18" font-family="Helvetica,sans-Serif" font-size="10.00">cleanupEmptyTempDirectory</text>
<text text-anchor="start" x="17.5" y="-7" font-family="Helvetica,sans-Serif" font-size="10.00">Locked()</text>
<polygon fill="#666666" stroke="#666666" points="0.5,-328 0.5,-328 181.5,-328 181.5,-328 0.5,-328"/>
<polygon fill="#666666" stroke="#666666" points="0.5,-268 0.5,-268 15.5,-268 15.5,-268 0.5,-268"/>
<polygon fill="#666666" stroke="#666666" points="15.5,-268 15.5,-268 181.5,-268 181.5,-268 15.5,-268"/>
<polygon fill="none" stroke="#666666" points="0,0 0,-356 181,-356 181,0 0,0"/>
</a>
</g>
</g>
<!-- Node2 -->
<g id="Node000002" class="node">
<title>Node2</title>
<g id="a_Node000002"><a xlink:title=" ">
<polygon fill="white" stroke="transparent" points="115.5,-441 65.5,-441 65.5,-392 115.5,-392 115.5,-441"/>
<text text-anchor="start" x="70.5" y="-428.5" font-family="Helvetica,sans-Serif" font-size="10.00">QObject</text>
<text text-anchor="start" x="88.5" y="-413.5" font-family="Helvetica,sans-Serif" font-size="10.00"> </text>
<text text-anchor="start" x="88.5" y="-398.5" font-family="Helvetica,sans-Serif" font-size="10.00"> </text>
<polygon fill="#666666" stroke="#666666" points="65.5,-423.5 65.5,-423.5 115.5,-423.5 115.5,-423.5 65.5,-423.5"/>
<polygon fill="#666666" stroke="#666666" points="65.5,-408.5 65.5,-408.5 115.5,-408.5 115.5,-408.5 65.5,-408.5"/>
<polygon fill="none" stroke="#666666" points="65.5,-392 65.5,-441 115.5,-441 115.5,-392 65.5,-392"/>
</a>
</g>
</g>
<!-- Node2&#45;&gt;Node1 -->
<g id="edge1_Node000001_Node000002" class="edge">
<title>Node2&#45;&gt;Node1</title>
<g id="a_edge1_Node000001_Node000002"><a xlink:title=" ">
<path fill="none" stroke="#63b8ff" d="M90.5,-381.79C90.5,-374.1 90.5,-365.41 90.5,-356.07"/>
<polygon fill="none" stroke="#63b8ff" points="87,-381.96 90.5,-391.96 94,-381.96 87,-381.96"/>
</a>
</g>
</g>
</g>
</svg>
