<?xml version="1.0" encoding="UTF-8" standalone="no"?>
<!DOCTYPE svg PUBLIC "-//W3C//DTD SVG 1.1//EN"
 "http://www.w3.org/Graphics/SVG/1.1/DTD/svg11.dtd">
<!-- Generated by graphviz version 2.43.0 (0)
 -->
<!-- Title: EasyKiConverter::NetworkClient Pages: 1 -->
<svg width="406pt" height="1003pt"
 viewBox="0.00 0.00 406.00 1003.00" xmlns="http://www.w3.org/2000/svg" xmlns:xlink="http://www.w3.org/1999/xlink">
<g id="graph0" class="graph" transform="scale(1 1) rotate(0) translate(4 999)">
<title>EasyKiConverter::NetworkClient</title>
<!-- Node1 -->
<g id="Node000001" class="node">
<title>Node1</title>
<g id="a_Node000001"><a xlink:title="单例网络客户端，统一管理重试/退避行为">
<polygon fill="#999999" stroke="transparent" points="368,-778 172,-778 172,-223 368,-223 368,-778"/>
<text text-anchor="start" x="205.5" y="-765.5" font-family="Helvetica,sans-Serif" font-size="10.00">EasyKiConverter::Network</text>
<text text-anchor="start" x="255.5" y="-754.5" font-family="Helvetica,sans-Serif" font-size="10.00">Client</text>
<text text-anchor="start" x="178.5" y="-739.5" font-family="Helvetica,sans-Serif" font-size="10.00">&#45;</text>
<text text-anchor="start" x="189" y="-739.5" font-family="Helvetica,sans-Serif" font-size="10.00">m_networkThread</text>
<text text-anchor="start" x="178.5" y="-724.5" font-family="Helvetica,sans-Serif" font-size="10.00">&#45;</text>
<text text-anchor="start" x="189" y="-724.5" font-family="Helvetica,sans-Serif" font-size="10.00">m_asyncNetworkManager</text>
<text text-anchor="start" x="178.5" y="-709.5" font-family="Helvetica,sans-Serif" font-size="10.00">&#45;</text>
<text text-anchor="start" x="189" y="-709.5" font-family="Helvetica,sans-Serif" font-size="10.00">m_asyncQueueMutex</text>
<text text-anchor="start" x="178.5" y="-694.5" font-family="Helvetica,sans-Serif" font-size="10.00">&#45;</text>
<text text-anchor="start" x="189" y="-694.5" font-family="Helvetica,sans-Serif" font-size="10.00">m_pendingAsyncRequests</text>
<text text-anchor="start" x="178.5" y="-679.5" font-family="Helvetica,sans-Serif" font-size="10.00">&#45;</text>
<text text-anchor="start" x="189" y="-679.5" font-family="Helvetica,sans-Serif" font-size="10.00">m_liveAsyncRequests</text>
<text text-anchor="start" x="178.5" y="-664.5" font-family="Helvetica,sans-Serif" font-size="10.00">&#45;</text>
<text text-anchor="start" x="189" y="-664.5" font-family="Helvetica,sans-Serif" font-size="10.00">m_activeAsyncRequestsByType</text>
<text text-anchor="start" x="178.5" y="-649.5" font-family="Helvetica,sans-Serif" font-size="10.00">&#45;</text>
<text text-anchor="start" x="189" y="-649.5" font-family="Helvetica,sans-Serif" font-size="10.00">m_resourceStats</text>
<text text-anchor="start" x="178.5" y="-634.5" font-family="Helvetica,sans-Serif" font-size="10.00">&#45;</text>
<text text-anchor="start" x="189" y="-634.5" font-family="Helvetica,sans-Serif" font-size="10.00">m_asyncSequence</text>
<text text-anchor="start" x="178.5" y="-619.5" font-family="Helvetica,sans-Serif" font-size="10.00">&#45;</text>
<text text-anchor="start" x="189" y="-619.5" font-family="Helvetica,sans-Serif" font-size="10.00">m_asyncPumpScheduled</text>
<text text-anchor="start" x="176" y="-604.5" font-family="Helvetica,sans-Serif" font-size="10.00">+</text>
<text text-anchor="start" x="189" y="-604.5" font-family="Helvetica,sans-Serif" font-size="10.00">get()</text>
<text text-anchor="start" x="176" y="-589.5" font-family="Helvetica,sans-Serif" font-size="10.00">+</text>
<text text-anchor="start" x="189" y="-589.5" font-family="Helvetica,sans-Serif" font-size="10.00">get()</text>
<text text-anchor="start" x="176" y="-574.5" font-family="Helvetica,sans-Serif" font-size="10.00">+</text>
<text text-anchor="start" x="189" y="-574.5" font-family="Helvetica,sans-Serif" font-size="10.00">post()</text>
<text text-anchor="start" x="176" y="-559.5" font-family="Helvetica,sans-Serif" font-size="10.00">+</text>
<text text-anchor="start" x="189" y="-559.5" font-family="Helvetica,sans-Serif" font-size="10.00">post()</text>
<text text-anchor="start" x="176" y="-544.5" font-family="Helvetica,sans-Serif" font-size="10.00">+</text>
<text text-anchor="start" x="189" y="-544.5" font-family="Helvetica,sans-Serif" font-size="10.00">getAsync()</text>
<text text-anchor="start" x="176" y="-529.5" font-family="Helvetica,sans-Serif" font-size="10.00">+</text>
<text text-anchor="start" x="189" y="-529.5" font-family="Helvetica,sans-Serif" font-size="10.00">postAsync()</text>
<text text-anchor="start" x="176" y="-514.5" font-family="Helvetica,sans-Serif" font-size="10.00">+</text>
<text text-anchor="start" x="189" y="-514.5" font-family="Helvetica,sans-Serif" font-size="10.00">runtimeStats()</text>
<text text-anchor="start" x="176" y="-499.5" font-family="Helvetica,sans-Serif" font-size="10.00">+</text>
<text text-anchor="start" x="189" y="-499.5" font-family="Helvetica,sans-Serif" font-size="10.00">formatRuntimeStats()</text>
<text text-anchor="start" x="176" y="-484.5" font-family="Helvetica,sans-Serif" font-size="10.00">+</text>
<text text-anchor="start" x="189" y="-484.5" font-family="Helvetica,sans-Serif" font-size="10.00">cancelAllRequests()</text>
<text text-anchor="start" x="176" y="-469.5" font-family="Helvetica,sans-Serif" font-size="10.00">+</text>
<text text-anchor="start" x="189" y="-469.5" font-family="Helvetica,sans-Serif" font-size="10.00">isGzipCompressed()</text>
<text text-anchor="start" x="176" y="-454.5" font-family="Helvetica,sans-Serif" font-size="10.00">+</text>
<text text-anchor="start" x="189" y="-454.5" font-family="Helvetica,sans-Serif" font-size="10.00">decompressGzip()</text>
<text text-anchor="start" x="176" y="-439.5" font-family="Helvetica,sans-Serif" font-size="10.00">#</text>
<text text-anchor="start" x="189" y="-439.5" font-family="Helvetica,sans-Serif" font-size="10.00">NetworkClient()</text>
<text text-anchor="start" x="176" y="-424.5" font-family="Helvetica,sans-Serif" font-size="10.00">#</text>
<text text-anchor="start" x="189" y="-424.5" font-family="Helvetica,sans-Serif" font-size="10.00">~NetworkClient()</text>
<text text-anchor="start" x="178.5" y="-409.5" font-family="Helvetica,sans-Serif" font-size="10.00">&#45;</text>
<text text-anchor="start" x="189" y="-409.5" font-family="Helvetica,sans-Serif" font-size="10.00">executeRequest()</text>
<text text-anchor="start" x="178.5" y="-394.5" font-family="Helvetica,sans-Serif" font-size="10.00">&#45;</text>
<text text-anchor="start" x="189" y="-394.5" font-family="Helvetica,sans-Serif" font-size="10.00">enqueueAsyncRequest()</text>
<text text-anchor="start" x="178.5" y="-379.5" font-family="Helvetica,sans-Serif" font-size="10.00">&#45;</text>
<text text-anchor="start" x="189" y="-379.5" font-family="Helvetica,sans-Serif" font-size="10.00">scheduleAsyncPump()</text>
<text text-anchor="start" x="178.5" y="-364.5" font-family="Helvetica,sans-Serif" font-size="10.00">&#45;</text>
<text text-anchor="start" x="189" y="-364.5" font-family="Helvetica,sans-Serif" font-size="10.00">pumpAsyncQueue()</text>
<text text-anchor="start" x="178.5" y="-349.5" font-family="Helvetica,sans-Serif" font-size="10.00">&#45;</text>
<text text-anchor="start" x="189" y="-349.5" font-family="Helvetica,sans-Serif" font-size="10.00">onAsyncRequestFinished()</text>
<text text-anchor="start" x="178.5" y="-334.5" font-family="Helvetica,sans-Serif" font-size="10.00">&#45;</text>
<text text-anchor="start" x="189" y="-334.5" font-family="Helvetica,sans-Serif" font-size="10.00">updateStatsForEnqueuedRequest()</text>
<text text-anchor="start" x="178.5" y="-319.5" font-family="Helvetica,sans-Serif" font-size="10.00">&#45;</text>
<text text-anchor="start" x="189" y="-319.5" font-family="Helvetica,sans-Serif" font-size="10.00">updateStatsForDequeuedRequest()</text>
<text text-anchor="start" x="178.5" y="-304.5" font-family="Helvetica,sans-Serif" font-size="10.00">&#45;</text>
<text text-anchor="start" x="189" y="-304.5" font-family="Helvetica,sans-Serif" font-size="10.00">updateStatsForStartedRequest()</text>
<text text-anchor="start" x="178.5" y="-289.5" font-family="Helvetica,sans-Serif" font-size="10.00">&#45;</text>
<text text-anchor="start" x="189" y="-289.5" font-family="Helvetica,sans-Serif" font-size="10.00">updateStatsForCompletedRequest()</text>
<text text-anchor="start" x="178.5" y="-274.5" font-family="Helvetica,sans-Serif" font-size="10.00">&#45;</text>
<text text-anchor="start" x="189" y="-274.5" font-family="Helvetica,sans-Serif" font-size="10.00">refreshDynamicStatsLocked()</text>
<text text-anchor="start" x="178.5" y="-259.5" font-family="Helvetica,sans-Serif" font-size="10.00">&#45;</text>
<text text-anchor="start" x="189" y="-259.5" font-family="Helvetica,sans-Serif" font-size="10.00">calculateRetryDelay()</text>
<text text-anchor="start" x="178.5" y="-244.5" font-family="Helvetica,sans-Serif" font-size="10.00">&#45;</text>
<text text-anchor="start" x="189" y="-244.5" font-family="Helvetica,sans-Serif" font-size="10.00">shouldRetry()</text>
<text text-anchor="start" x="178.5" y="-229.5" font-family="Helvetica,sans-Serif" font-size="10.00">&#45;</text>
<text text-anchor="start" x="189" y="-229.5" font-family="Helvetica,sans-Serif" font-size="10.00">populateDiagnostic()</text>
<polygon fill="#666666" stroke="#666666" points="172,-749.5 172,-749.5 368,-749.5 368,-749.5 172,-749.5"/>
<polygon fill="#666666" stroke="#666666" points="172,-614.5 172,-614.5 187,-614.5 187,-614.5 172,-614.5"/>
<polygon fill="#666666" stroke="#666666" points="187,-614.5 187,-614.5 368,-614.5 368,-614.5 187,-614.5"/>
<polygon fill="none" stroke="#666666" points="172,-223 172,-778 368,-778 368,-223 172,-223"/>
</a>
</g>
</g>
<!-- Node4 -->
<g id="Node000004" class="node">
<title>Node4</title>
<g id="a_Node000004"><a xlink:href="classEasyKiConverter_1_1TestableSingleton.html" target="_top" xlink:title=" ">
<polygon fill="white" stroke="transparent" points="262.5,-165 113.5,-165 113.5,0 262.5,0 262.5,-165"/>
<text text-anchor="start" x="119" y="-152.5" font-family="Helvetica,sans-Serif" font-size="10.00">EasyKiConverter::Testable</text>
<text text-anchor="start" x="119" y="-141.5" font-family="Helvetica,sans-Serif" font-size="10.00">Singleton&lt; NetworkClient &gt;</text>
<text text-anchor="start" x="126.5" y="-126.5" font-family="Helvetica,sans-Serif" font-size="10.00">&#45;</text>
<text text-anchor="start" x="143" y="-126.5" font-family="Helvetica,sans-Serif" font-size="10.00">s_mutex</text>
<text text-anchor="start" x="124" y="-111.5" font-family="Helvetica,sans-Serif" font-size="10.00">+</text>
<text text-anchor="start" x="143" y="-111.5" font-family="Helvetica,sans-Serif" font-size="10.00">instance()</text>
<text text-anchor="start" x="124" y="-96.5" font-family="Helvetica,sans-Serif" font-size="10.00">+</text>
<text text-anchor="start" x="143" y="-96.5" font-family="Helvetica,sans-Serif" font-size="10.00">destroyInstance()</text>
<text text-anchor="start" x="124" y="-81.5" font-family="Helvetica,sans-Serif" font-size="10.00">+</text>
<text text-anchor="start" x="143" y="-81.5" font-family="Helvetica,sans-Serif" font-size="10.00">setTestingInstance()</text>
<text text-anchor="start" x="124" y="-66.5" font-family="Helvetica,sans-Serif" font-size="10.00">+</text>
<text text-anchor="start" x="143" y="-66.5" font-family="Helvetica,sans-Serif" font-size="10.00">clearMockInstance()</text>
<text text-anchor="start" x="124" y="-51.5" font-family="Helvetica,sans-Serif" font-size="10.00">+</text>
<text text-anchor="start" x="143" y="-51.5" font-family="Helvetica,sans-Serif" font-size="10.00">hasInstance()</text>
<text text-anchor="start" x="124" y="-36.5" font-family="Helvetica,sans-Serif" font-size="10.00">+</text>
<text text-anchor="start" x="143" y="-36.5" font-family="Helvetica,sans-Serif" font-size="10.00">hasMockInstance()</text>
<text text-anchor="start" x="124" y="-21.5" font-family="Helvetica,sans-Serif" font-size="10.00">#</text>
<text text-anchor="start" x="143" y="-21.5" font-family="Helvetica,sans-Serif" font-size="10.00">TestableSingleton()</text>
<text text-anchor="start" x="124" y="-6.5" font-family="Helvetica,sans-Serif" font-size="10.00">#</text>
<text text-anchor="start" x="143" y="-6.5" font-family="Helvetica,sans-Serif" font-size="10.00">~TestableSingleton()</text>
<polygon fill="#666666" stroke="#666666" points="114,-136.5 114,-136.5 263,-136.5 263,-136.5 114,-136.5"/>
<polygon fill="#666666" stroke="#666666" points="114,-121.5 114,-121.5 141,-121.5 141,-121.5 114,-121.5"/>
<polygon fill="#666666" stroke="#666666" points="141,-121.5 141,-121.5 263,-121.5 263,-121.5 141,-121.5"/>
<polygon fill="none" stroke="#666666" points="113.5,0 113.5,-165 262.5,-165 262.5,0 113.5,0"/>
</a>
</g>
</g>
<!-- Node1&#45;&gt;Node4 -->
<g id="edge4_Node000004_Node000001" class="edge">
<title>Node1&#45;&gt;Node4</title>
<g id="a_edge4_Node000004_Node000001"><a xlink:title=" ">
<path fill="none" stroke="#63b8ff" d="M187.78,-222.91C186.77,-216.9 185.84,-210.93 185,-205 183.63,-195.32 184.85,-192.78 185,-183 185.03,-181.1 185.06,-179.18 185.09,-177.25"/>
<polygon fill="none" stroke="#63b8ff" points="185.1,-177.21 181.22,-171.13 185.34,-165.22 189.22,-171.3 185.1,-177.21"/>
</a>
</g>
<text text-anchor="middle" x="226.5" y="-197" font-family="Helvetica,sans-Serif" font-size="10.00" fill="grey"> &#45;s_instance</text>
<text text-anchor="middle" x="226.5" y="-186" font-family="Helvetica,sans-Serif" font-size="10.00" fill="grey">&#45;s_mockInstance</text>
</g>
<!-- Node2 -->
<g id="Node000002" class="node">
<title>Node2</title>
<g id="a_Node000002"><a xlink:title=" ">
<polygon fill="white" stroke="transparent" points="238,-929.5 188,-929.5 188,-880.5 238,-880.5 238,-929.5"/>
<text text-anchor="start" x="193" y="-917" font-family="Helvetica,sans-Serif" font-size="10.00">QObject</text>
<text text-anchor="start" x="211" y="-902" font-family="Helvetica,sans-Serif" font-size="10.00"> </text>
<text text-anchor="start" x="211" y="-887" font-family="Helvetica,sans-Serif" font-size="10.00"> </text>
<polygon fill="#666666" stroke="#666666" points="188,-912 188,-912 238,-912 238,-912 188,-912"/>
<polygon fill="#666666" stroke="#666666" points="188,-897 188,-897 238,-897 238,-897 188,-897"/>
<polygon fill="none" stroke="#666666" points="188,-880.5 188,-929.5 238,-929.5 238,-880.5 188,-880.5"/>
</a>
</g>
</g>
<!-- Node2&#45;&gt;Node1 -->
<g id="edge1_Node000001_Node000002" class="edge">
<title>Node2&#45;&gt;Node1</title>
<g id="a_edge1_Node000001_Node000002"><a xlink:title=" ">
<path fill="none" stroke="#63b8ff" d="M217.78,-870.21C221.02,-847.34 225.65,-814.7 230.82,-778.2"/>
<polygon fill="none" stroke="#63b8ff" points="214.29,-869.93 216.35,-880.32 221.22,-870.91 214.29,-869.93"/>
</a>
</g>
</g>
<!-- Node3 -->
<g id="Node000003" class="node">
<title>Node3</title>
<g id="a_Node000003"><a xlink:href="classEasyKiConverter_1_1INetworkClient.html" target="_top" xlink:title="网络客户端接口">
<polygon fill="white" stroke="transparent" points="398,-995 256,-995 256,-815 398,-815 398,-995"/>
<text text-anchor="start" x="261" y="-983" font-family="Helvetica,sans-Serif" font-size="10.00">EasyKiConverter::INetwork</text>
<text text-anchor="start" x="312.5" y="-972" font-family="Helvetica,sans-Serif" font-size="10.00">Client</text>
<text text-anchor="start" x="325" y="-957" font-family="Helvetica,sans-Serif" font-size="10.00"> </text>
<text text-anchor="start" x="263.5" y="-942" font-family="Helvetica,sans-Serif" font-size="10.00">+</text>
<text text-anchor="start" x="280" y="-942" font-family="Helvetica,sans-Serif" font-size="10.00">~INetworkClient()</text>
<text text-anchor="start" x="263.5" y="-927" font-family="Helvetica,sans-Serif" font-size="10.00">+</text>
<text text-anchor="start" x="280" y="-927" font-family="Helvetica,sans-Serif" font-size="10.00">get()</text>
<text text-anchor="start" x="263.5" y="-912" font-family="Helvetica,sans-Serif" font-size="10.00">+</text>
<text text-anchor="start" x="280" y="-912" font-family="Helvetica,sans-Serif" font-size="10.00">get()</text>
<text text-anchor="start" x="263.5" y="-897" font-family="Helvetica,sans-Serif" font-size="10.00">+</text>
<text text-anchor="start" x="280" y="-897" font-family="Helvetica,sans-Serif" font-size="10.00">post()</text>
<text text-anchor="start" x="263.5" y="-882" font-family="Helvetica,sans-Serif" font-size="10.00">+</text>
<text text-anchor="start" x="280" y="-882" font-family="Helvetica,sans-Serif" font-size="10.00">post()</text>
<text text-anchor="start" x="263.5" y="-867" font-family="Helvetica,sans-Serif" font-size="10.00">+</text>
<text text-anchor="start" x="280" y="-867" font-family="Helvetica,sans-Serif" font-size="10.00">getAsync()</text>
<text text-anchor="start" x="263.5" y="-852" font-family="Helvetica,sans-Serif" font-size="10.00">+</text>
<text text-anchor="start" x="280" y="-852" font-family="Helvetica,sans-Serif" font-size="10.00">postAsync()</text>
<text text-anchor="start" x="263.5" y="-837" font-family="Helvetica,sans-Serif" font-size="10.00">+</text>
<text text-anchor="start" x="280" y="-837" font-family="Helvetica,sans-Serif" font-size="10.00">runtimeStats()</text>
<text text-anchor="start" x="263.5" y="-822" font-family="Helvetica,sans-Serif" font-size="10.00">+</text>
<text text-anchor="start" x="280" y="-822" font-family="Helvetica,sans-Serif" font-size="10.00">formatRuntimeStats()</text>
<polygon fill="#666666" stroke="#666666" points="256,-967 256,-967 398,-967 398,-967 256,-967"/>
<polygon fill="#666666" stroke="#666666" points="256,-952 256,-952 398,-952 398,-952 256,-952"/>
<polygon fill="none" stroke="#666666" points="256,-815 256,-995 398,-995 398,-815 256,-815"/>
</a>
</g>
</g>
<!-- Node3&#45;&gt;Node1 -->
<g id="edge2_Node000001_Node000003" class="edge">
<title>Node3&#45;&gt;Node1</title>
<g id="a_edge2_Node000001_Node000003"><a xlink:title=" ">
<path fill="none" stroke="#63b8ff" d="M312.94,-804.74C311.72,-796.13 310.46,-787.19 309.16,-778.01"/>
<polygon fill="none" stroke="#63b8ff" points="309.48,-805.26 314.35,-814.67 316.41,-804.28 309.48,-805.26"/>
</a>
</g>
</g>
<!-- Node4&#45;&gt;Node1 -->
<g id="edge3_Node000001_Node000004" class="edge">
<title>Node4&#45;&gt;Node1</title>
<g id="a_edge3_Node000001_Node000004"><a xlink:title=" ">
<path fill="none" stroke="#63b8ff" d="M267.26,-171.82C269.03,-175.5 270.62,-179.23 272,-183 276.72,-195.9 280.5,-209.3 283.47,-222.98"/>
<polygon fill="none" stroke="#63b8ff" points="270.27,-170.03 262.51,-162.82 264.08,-173.3 270.27,-170.03"/>
</a>
</g>
</g>
<!-- Node5 -->
<g id="Node000005" class="node">
<title>Node5</title>
<g id="a_Node000005"><a xlink:href="classEasyKiConverter_1_1TestableSingleton.html" target="_top" xlink:title="Template for testable singleton pattern">
<polygon fill="white" stroke="transparent" points="138,-598 0,-598 0,-403 138,-403 138,-598"/>
<text text-anchor="start" x="5" y="-585.5" font-family="Helvetica,sans-Serif" font-size="10.00">EasyKiConverter::Testable</text>
<text text-anchor="start" x="31.5" y="-574.5" font-family="Helvetica,sans-Serif" font-size="10.00">Singleton&lt; T &gt;</text>
<text text-anchor="start" x="10" y="-559.5" font-family="Helvetica,sans-Serif" font-size="10.00">&#45;</text>
<text text-anchor="start" x="24" y="-559.5" font-family="Helvetica,sans-Serif" font-size="10.00">s_mutex</text>
<text text-anchor="start" x="10" y="-544.5" font-family="Helvetica,sans-Serif" font-size="10.00">&#45;</text>
<text text-anchor="start" x="24" y="-544.5" font-family="Helvetica,sans-Serif" font-size="10.00">s_instance</text>
<text text-anchor="start" x="10" y="-529.5" font-family="Helvetica,sans-Serif" font-size="10.00">&#45;</text>
<text text-anchor="start" x="24" y="-529.5" font-family="Helvetica,sans-Serif" font-size="10.00">s_mockInstance</text>
<text text-anchor="start" x="7.5" y="-514.5" font-family="Helvetica,sans-Serif" font-size="10.00">+</text>
<text text-anchor="start" x="24" y="-514.5" font-family="Helvetica,sans-Serif" font-size="10.00">instance()</text>
<text text-anchor="start" x="7.5" y="-499.5" font-family="Helvetica,sans-Serif" font-size="10.00">+</text>
<text text-anchor="start" x="24" y="-499.5" font-family="Helvetica,sans-Serif" font-size="10.00">destroyInstance()</text>
<text text-anchor="start" x="7.5" y="-484.5" font-family="Helvetica,sans-Serif" font-size="10.00">+</text>
<text text-anchor="start" x="24" y="-484.5" font-family="Helvetica,sans-Serif" font-size="10.00">setTestingInstance()</text>
<text text-anchor="start" x="7.5" y="-469.5" font-family="Helvetica,sans-Serif" font-size="10.00">+</text>
<text text-anchor="start" x="24" y="-469.5" font-family="Helvetica,sans-Serif" font-size="10.00">clearMockInstance()</text>
<text text-anchor="start" x="7.5" y="-454.5" font-family="Helvetica,sans-Serif" font-size="10.00">+</text>
<text text-anchor="start" x="24" y="-454.5" font-family="Helvetica,sans-Serif" font-size="10.00">hasInstance()</text>
<text text-anchor="start" x="7.5" y="-439.5" font-family="Helvetica,sans-Serif" font-size="10.00">+</text>
<text text-anchor="start" x="24" y="-439.5" font-family="Helvetica,sans-Serif" font-size="10.00">hasMockInstance()</text>
<text text-anchor="start" x="7.5" y="-424.5" font-family="Helvetica,sans-Serif" font-size="10.00">#</text>
<text text-anchor="start" x="24" y="-424.5" font-family="Helvetica,sans-Serif" font-size="10.00">TestableSingleton()</text>
<text text-anchor="start" x="7.5" y="-409.5" font-family="Helvetica,sans-Serif" font-size="10.00">#</text>
<text text-anchor="start" x="24" y="-409.5" font-family="Helvetica,sans-Serif" font-size="10.00">~TestableSingleton()</text>
<polygon fill="#666666" stroke="#666666" points="0,-569.5 0,-569.5 138,-569.5 138,-569.5 0,-569.5"/>
<polygon fill="#666666" stroke="#666666" points="0,-524.5 0,-524.5 22,-524.5 22,-524.5 0,-524.5"/>
<polygon fill="#666666" stroke="#666666" points="22,-524.5 22,-524.5 138,-524.5 138,-524.5 22,-524.5"/>
<polygon fill="none" stroke="#666666" points="0,-403 0,-598 138,-598 138,-403 0,-403"/>
</a>
</g>
</g>
<!-- Node5&#45;&gt;Node4 -->
<g id="edge5_Node000004_Node000005" class="edge">
<title>Node5&#45;&gt;Node4</title>
<g id="a_edge5_Node000004_Node000005"><a xlink:title=" ">
<path fill="none" stroke="orange" d="M54.81,-392.67C50.94,-329.03 54.29,-248.22 84,-183 90.99,-167.65 101.53,-153.48 113.25,-140.93"/>
<polygon fill="orange" stroke="orange" points="51.32,-392.99 55.49,-402.73 58.3,-392.51 51.32,-392.99"/>
</a>
</g>
<text text-anchor="middle" x="132" y="-191.5" font-family="Helvetica,sans-Serif" font-size="10.00" fill="grey"> &lt; NetworkClient &gt;</text>
</g>
</g>
</svg>
