<?xml version="1.0" encoding="UTF-8" standalone="no"?>
<!DOCTYPE svg PUBLIC "-//W3C//DTD SVG 1.1//EN"
 "http://www.w3.org/Graphics/SVG/1.1/DTD/svg11.dtd">
<!-- Generated by graphviz version 2.43.0 (0)
 -->
<!-- Title: EasyKiConverter::ThemeSettingsViewModel Pages: 1 -->
<svg width="347pt" height="756pt"
 viewBox="0.00 0.00 346.50 756.00" xmlns="http://www.w3.org/2000/svg" xmlns:xlink="http://www.w3.org/1999/xlink">
<g id="graph0" class="graph" transform="scale(1 1) rotate(0) translate(4 752)">
<title>EasyKiConverter::ThemeSettingsViewModel</title>
<!-- Node1 -->
<g id="Node000001" class="node">
<title>Node1</title>
<g id="a_Node000001"><a xlink:title=" ">
<polygon fill="#999999" stroke="transparent" points="171,-120 0,-120 0,0 171,0 171,-120"/>
<text text-anchor="start" x="5.5" y="-108" font-family="Helvetica,sans-Serif" font-size="10.00">EasyKiConverter::ThemeSettings</text>
<text text-anchor="start" x="58.5" y="-97" font-family="Helvetica,sans-Serif" font-size="10.00">ViewModel</text>
<text text-anchor="start" x="8.5" y="-82" font-family="Helvetica,sans-Serif" font-size="10.00">&#45;</text>
<text text-anchor="start" x="20.5" y="-82" font-family="Helvetica,sans-Serif" font-size="10.00">m_isDarkMode</text>
<text text-anchor="start" x="6" y="-67" font-family="Helvetica,sans-Serif" font-size="10.00">+</text>
<text text-anchor="start" x="20.5" y="-67" font-family="Helvetica,sans-Serif" font-size="10.00">ThemeSettingsViewModel()</text>
<text text-anchor="start" x="6" y="-52" font-family="Helvetica,sans-Serif" font-size="10.00">+</text>
<text text-anchor="start" x="20.5" y="-52" font-family="Helvetica,sans-Serif" font-size="10.00">~ThemeSettingsViewModel()</text>
<text text-anchor="start" x="6" y="-37" font-family="Helvetica,sans-Serif" font-size="10.00">+</text>
<text text-anchor="start" x="20.5" y="-37" font-family="Helvetica,sans-Serif" font-size="10.00">isDarkMode()</text>
<text text-anchor="start" x="6" y="-22" font-family="Helvetica,sans-Serif" font-size="10.00">+</text>
<text text-anchor="start" x="20.5" y="-22" font-family="Helvetica,sans-Serif" font-size="10.00">setDarkMode()</text>
<text text-anchor="start" x="6" y="-7" font-family="Helvetica,sans-Serif" font-size="10.00">+</text>
<text text-anchor="start" x="20.5" y="-7" font-family="Helvetica,sans-Serif" font-size="10.00">darkModeChanged()</text>
<polygon fill="#666666" stroke="#666666" points="0.5,-92 0.5,-92 171.5,-92 171.5,-92 0.5,-92"/>
<polygon fill="#666666" stroke="#666666" points="0.5,-77 0.5,-77 18.5,-77 18.5,-77 0.5,-77"/>
<polygon fill="#666666" stroke="#666666" points="18.5,-77 18.5,-77 171.5,-77 171.5,-77 18.5,-77"/>
<polygon fill="none" stroke="#666666" points="0,0 0,-120 171,-120 171,0 0,0"/>
</a>
</g>
</g>
<!-- Node2 -->
<g id="Node000002" class="node">
<title>Node2</title>
<g id="a_Node000002"><a xlink:title=" ">
<polygon fill="white" stroke="transparent" points="106.5,-748 56.5,-748 56.5,-699 106.5,-699 106.5,-748"/>
<text text-anchor="start" x="61.5" y="-735.5" font-family="Helvetica,sans-Serif" font-size="10.00">QObject</text>
<text text-anchor="start" x="79.5" y="-720.5" font-family="Helvetica,sans-Serif" font-size="10.00"> </text>
<text text-anchor="start" x="79.5" y="-705.5" font-family="Helvetica,sans-Serif" font-size="10.00"> </text>
<polygon fill="#666666" stroke="#666666" points="56.5,-730.5 56.5,-730.5 106.5,-730.5 106.5,-730.5 56.5,-730.5"/>
<polygon fill="#666666" stroke="#666666" points="56.5,-715.5 56.5,-715.5 106.5,-715.5 106.5,-715.5 56.5,-715.5"/>
<polygon fill="none" stroke="#666666" points="56.5,-699 56.5,-748 106.5,-748 106.5,-699 56.5,-699"/>
</a>
</g>
</g>
<!-- Node2&#45;&gt;Node1 -->
<g id="edge1_Node000001_Node000002" class="edge">
<title>Node2&#45;&gt;Node1</title>
<g id="a_edge1_Node000001_Node000002"><a xlink:title=" ">
<path fill="none" stroke="#63b8ff" d="M81.7,-688.84C82.34,-582.9 84.32,-255.33 85.14,-120.21"/>
<polygon fill="none" stroke="#63b8ff" points="78.2,-688.94 81.64,-698.96 85.2,-688.98 78.2,-688.94"/>
</a>
</g>
</g>
<!-- Node3 -->
<g id="Node000003" class="node">
<title>Node3</title>
<g id="a_Node000003"><a xlink:href="classEasyKiConverter_1_1ConfigService.html" target="_top" xlink:title="配置服务">
<polygon fill="white" stroke="transparent" points="261.5,-662 97.5,-662 97.5,-167 261.5,-167 261.5,-662"/>
<text text-anchor="start" x="102.5" y="-649.5" font-family="Helvetica,sans-Serif" font-size="10.00">EasyKiConverter::ConfigService</text>
<text text-anchor="start" x="101.5" y="-634.5" font-family="Helvetica,sans-Serif" font-size="10.00">+</text>
<text text-anchor="start" x="114.5" y="-634.5" font-family="Helvetica,sans-Serif" font-size="10.00">DEFAULT_DISK_CACHE</text>
<text text-anchor="start" x="114.5" y="-623.5" font-family="Helvetica,sans-Serif" font-size="10.00">_LIMIT_MB</text>
<text text-anchor="start" x="101.5" y="-608.5" font-family="Helvetica,sans-Serif" font-size="10.00">+</text>
<text text-anchor="start" x="114.5" y="-608.5" font-family="Helvetica,sans-Serif" font-size="10.00">MAX_DISK_CACHE_LIMIT_MB</text>
<text text-anchor="start" x="104" y="-593.5" font-family="Helvetica,sans-Serif" font-size="10.00">&#45;</text>
<text text-anchor="start" x="114.5" y="-593.5" font-family="Helvetica,sans-Serif" font-size="10.00">m_config</text>
<text text-anchor="start" x="104" y="-578.5" font-family="Helvetica,sans-Serif" font-size="10.00">&#45;</text>
<text text-anchor="start" x="114.5" y="-578.5" font-family="Helvetica,sans-Serif" font-size="10.00">m_configPath</text>
<text text-anchor="start" x="104" y="-563.5" font-family="Helvetica,sans-Serif" font-size="10.00">&#45;</text>
<text text-anchor="start" x="114.5" y="-563.5" font-family="Helvetica,sans-Serif" font-size="10.00">m_configMutex</text>
<text text-anchor="start" x="104" y="-548.5" font-family="Helvetica,sans-Serif" font-size="10.00">&#45;</text>
<text text-anchor="start" x="114.5" y="-548.5" font-family="Helvetica,sans-Serif" font-size="10.00">m_batchUpdateDepth</text>
<text text-anchor="start" x="104" y="-533.5" font-family="Helvetica,sans-Serif" font-size="10.00">&#45;</text>
<text text-anchor="start" x="114.5" y="-533.5" font-family="Helvetica,sans-Serif" font-size="10.00">m_batchDirty</text>
<text text-anchor="start" x="104" y="-518.5" font-family="Helvetica,sans-Serif" font-size="10.00">&#45;</text>
<text text-anchor="start" x="114.5" y="-518.5" font-family="Helvetica,sans-Serif" font-size="10.00">DEFAULT_WINDOW_WIDTH</text>
<text text-anchor="start" x="104" y="-503.5" font-family="Helvetica,sans-Serif" font-size="10.00">&#45;</text>
<text text-anchor="start" x="114.5" y="-503.5" font-family="Helvetica,sans-Serif" font-size="10.00">DEFAULT_WINDOW_HEIGHT</text>
<text text-anchor="start" x="104" y="-488.5" font-family="Helvetica,sans-Serif" font-size="10.00">&#45;</text>
<text text-anchor="start" x="114.5" y="-488.5" font-family="Helvetica,sans-Serif" font-size="10.00">DEFAULT_WINDOW_X</text>
<text text-anchor="start" x="104" y="-473.5" font-family="Helvetica,sans-Serif" font-size="10.00">&#45;</text>
<text text-anchor="start" x="114.5" y="-473.5" font-family="Helvetica,sans-Serif" font-size="10.00">DEFAULT_WINDOW_Y</text>
<text text-anchor="start" x="104" y="-458.5" font-family="Helvetica,sans-Serif" font-size="10.00">&#45;</text>
<text text-anchor="start" x="114.5" y="-458.5" font-family="Helvetica,sans-Serif" font-size="10.00">s_mutex</text>
<text text-anchor="start" x="101.5" y="-443.5" font-family="Helvetica,sans-Serif" font-size="10.00">+</text>
<text text-anchor="start" x="114.5" y="-443.5" font-family="Helvetica,sans-Serif" font-size="10.00">loadConfig()</text>
<text text-anchor="start" x="101.5" y="-428.5" font-family="Helvetica,sans-Serif" font-size="10.00">+</text>
<text text-anchor="start" x="114.5" y="-428.5" font-family="Helvetica,sans-Serif" font-size="10.00">saveConfig()</text>
<text text-anchor="start" x="101.5" y="-413.5" font-family="Helvetica,sans-Serif" font-size="10.00">+</text>
<text text-anchor="start" x="114.5" y="-413.5" font-family="Helvetica,sans-Serif" font-size="10.00">resetToDefaults()</text>
<text text-anchor="start" x="101.5" y="-398.5" font-family="Helvetica,sans-Serif" font-size="10.00">+</text>
<text text-anchor="start" x="114.5" y="-398.5" font-family="Helvetica,sans-Serif" font-size="10.00">beginBatchUpdate()</text>
<text text-anchor="start" x="101.5" y="-383.5" font-family="Helvetica,sans-Serif" font-size="10.00">+</text>
<text text-anchor="start" x="114.5" y="-383.5" font-family="Helvetica,sans-Serif" font-size="10.00">endBatchUpdate()</text>
<text text-anchor="start" x="101.5" y="-368.5" font-family="Helvetica,sans-Serif" font-size="10.00">+</text>
<text text-anchor="start" x="114.5" y="-368.5" font-family="Helvetica,sans-Serif" font-size="10.00">getOutputPath()</text>
<text text-anchor="start" x="101.5" y="-353.5" font-family="Helvetica,sans-Serif" font-size="10.00">+</text>
<text text-anchor="start" x="114.5" y="-353.5" font-family="Helvetica,sans-Serif" font-size="10.00">setOutputPath()</text>
<text text-anchor="start" x="101.5" y="-338.5" font-family="Helvetica,sans-Serif" font-size="10.00">+</text>
<text text-anchor="start" x="114.5" y="-338.5" font-family="Helvetica,sans-Serif" font-size="10.00">getLibName()</text>
<text text-anchor="start" x="101.5" y="-323.5" font-family="Helvetica,sans-Serif" font-size="10.00">+</text>
<text text-anchor="start" x="114.5" y="-323.5" font-family="Helvetica,sans-Serif" font-size="10.00">setLibName()</text>
<text text-anchor="start" x="101.5" y="-308.5" font-family="Helvetica,sans-Serif" font-size="10.00">+</text>
<text text-anchor="start" x="114.5" y="-308.5" font-family="Helvetica,sans-Serif" font-size="10.00">getExportSymbol()</text>
<text text-anchor="start" x="114.5" y="-293.5" font-family="Helvetica,sans-Serif" font-size="10.00">和 36 更多...</text>
<text text-anchor="start" x="101.5" y="-278.5" font-family="Helvetica,sans-Serif" font-size="10.00">+</text>
<text text-anchor="start" x="114.5" y="-278.5" font-family="Helvetica,sans-Serif" font-size="10.00">instance()</text>
<text text-anchor="start" x="101.5" y="-263.5" font-family="Helvetica,sans-Serif" font-size="10.00">+</text>
<text text-anchor="start" x="114.5" y="-263.5" font-family="Helvetica,sans-Serif" font-size="10.00">defaultCacheDir()</text>
<text text-anchor="start" x="104" y="-248.5" font-family="Helvetica,sans-Serif" font-size="10.00">&#45;</text>
<text text-anchor="start" x="114.5" y="-248.5" font-family="Helvetica,sans-Serif" font-size="10.00">ConfigService()</text>
<text text-anchor="start" x="104" y="-233.5" font-family="Helvetica,sans-Serif" font-size="10.00">&#45;</text>
<text text-anchor="start" x="114.5" y="-233.5" font-family="Helvetica,sans-Serif" font-size="10.00">~ConfigService()</text>
<text text-anchor="start" x="104" y="-218.5" font-family="Helvetica,sans-Serif" font-size="10.00">&#45;</text>
<text text-anchor="start" x="114.5" y="-218.5" font-family="Helvetica,sans-Serif" font-size="10.00">initializeDefaultConfig()</text>
<text text-anchor="start" x="104" y="-203.5" font-family="Helvetica,sans-Serif" font-size="10.00">&#45;</text>
<text text-anchor="start" x="114.5" y="-203.5" font-family="Helvetica,sans-Serif" font-size="10.00">getDefaultConfigPath()</text>
<text text-anchor="start" x="104" y="-188.5" font-family="Helvetica,sans-Serif" font-size="10.00">&#45;</text>
<text text-anchor="start" x="114.5" y="-188.5" font-family="Helvetica,sans-Serif" font-size="10.00">buildWindowState_locked()</text>
<text text-anchor="start" x="104" y="-173.5" font-family="Helvetica,sans-Serif" font-size="10.00">&#45;</text>
<text text-anchor="start" x="114.5" y="-173.5" font-family="Helvetica,sans-Serif" font-size="10.00">saveIfNotBatching()</text>
<polygon fill="#666666" stroke="#666666" points="97.5,-644.5 97.5,-644.5 261.5,-644.5 261.5,-644.5 97.5,-644.5"/>
<polygon fill="#666666" stroke="#666666" points="97.5,-453.5 97.5,-453.5 112.5,-453.5 112.5,-453.5 97.5,-453.5"/>
<polygon fill="#666666" stroke="#666666" points="112.5,-453.5 112.5,-453.5 261.5,-453.5 261.5,-453.5 112.5,-453.5"/>
<polygon fill="none" stroke="#666666" points="97.5,-167 97.5,-662 261.5,-662 261.5,-167 97.5,-167"/>
</a>
</g>
</g>
<!-- Node2&#45;&gt;Node3 -->
<g id="edge3_Node000003_Node000002" class="edge">
<title>Node2&#45;&gt;Node3</title>
<g id="a_edge3_Node000003_Node000002"><a xlink:title=" ">
<path fill="none" stroke="#63b8ff" d="M92.14,-689.16C94.68,-681.22 97.58,-672.13 100.75,-662.2"/>
<polygon fill="none" stroke="#63b8ff" points="88.73,-688.33 89.03,-698.92 95.4,-690.46 88.73,-688.33"/>
</a>
</g>
</g>
<!-- Node3&#45;&gt;Node1 -->
<g id="edge2_Node000001_Node000003" class="edge">
<title>Node3&#45;&gt;Node1</title>
<g id="a_edge2_Node000001_Node000003"><a xlink:title=" ">
<path fill="none" stroke="#63b8ff" d="M113.7,-166.76C110.45,-154.57 107.35,-142.92 104.46,-132.1"/>
<polygon fill="none" stroke="#63b8ff" points="104.39,-131.85 98.98,-127.09 101.3,-120.26 106.71,-125.03 104.39,-131.85"/>
</a>
</g>
<text text-anchor="middle" x="151.5" y="-141" font-family="Helvetica,sans-Serif" font-size="10.00" fill="grey"> &#45;m_configService</text>
</g>
<!-- Node3&#45;&gt;Node3 -->
<g id="edge4_Node000003_Node000003" class="edge">
<title>Node3&#45;&gt;Node3</title>
<g id="a_edge4_Node000003_Node000003"><a xlink:title=" ">
<path fill="none" stroke="#63b8ff" d="M261.88,-458.21C272.49,-450.63 279.5,-436.06 279.5,-414.5 279.5,-399.34 276.04,-387.64 270.29,-379.39"/>
<polygon fill="none" stroke="#63b8ff" points="270.27,-379.37 263.22,-377.88 261.88,-370.79 268.94,-372.28 270.27,-379.37"/>
</a>
</g>
<text text-anchor="middle" x="309" y="-412" font-family="Helvetica,sans-Serif" font-size="10.00" fill="grey"> &#45;s_instance</text>
</g>
</g>
</svg>
