<?xml version="1.0" encoding="UTF-8" standalone="no"?>
<!DOCTYPE svg PUBLIC "-//W3C//DTD SVG 1.1//EN"
 "http://www.w3.org/Graphics/SVG/1.1/DTD/svg11.dtd">
<!-- Generated by graphviz version 2.43.0 (0)
 -->
<!-- Title: EasyKiConverter::DatasheetExportWorker Pages: 1 -->
<svg width="290pt" height="389pt"
 viewBox="0.00 0.00 290.00 389.00" xmlns="http://www.w3.org/2000/svg" xmlns:xlink="http://www.w3.org/1999/xlink">
<g id="graph0" class="graph" transform="scale(1 1) rotate(0) translate(4 385)">
<title>EasyKiConverter::DatasheetExportWorker</title>
<!-- Node1 -->
<g id="Node000001" class="node">
<title>Node1</title>
<g id="a_Node000001"><a xlink:title="数据手册导出Worker">
<polygon fill="#999999" stroke="transparent" points="174,-225 26,-225 26,0 174,0 174,-225"/>
<text text-anchor="start" x="31" y="-212.5" font-family="Helvetica,sans-Serif" font-size="10.00">EasyKiConverter::Datasheet</text>
<text text-anchor="start" x="67" y="-201.5" font-family="Helvetica,sans-Serif" font-size="10.00">ExportWorker</text>
<text text-anchor="start" x="33" y="-186.5" font-family="Helvetica,sans-Serif" font-size="10.00">&#45;</text>
<text text-anchor="start" x="44" y="-186.5" font-family="Helvetica,sans-Serif" font-size="10.00">m_componentId</text>
<text text-anchor="start" x="33" y="-171.5" font-family="Helvetica,sans-Serif" font-size="10.00">&#45;</text>
<text text-anchor="start" x="44" y="-171.5" font-family="Helvetica,sans-Serif" font-size="10.00">m_tempPath</text>
<text text-anchor="start" x="33" y="-156.5" font-family="Helvetica,sans-Serif" font-size="10.00">&#45;</text>
<text text-anchor="start" x="44" y="-156.5" font-family="Helvetica,sans-Serif" font-size="10.00">m_data</text>
<text text-anchor="start" x="33" y="-141.5" font-family="Helvetica,sans-Serif" font-size="10.00">&#45;</text>
<text text-anchor="start" x="44" y="-141.5" font-family="Helvetica,sans-Serif" font-size="10.00">m_options</text>
<text text-anchor="start" x="33" y="-126.5" font-family="Helvetica,sans-Serif" font-size="10.00">&#45;</text>
<text text-anchor="start" x="44" y="-126.5" font-family="Helvetica,sans-Serif" font-size="10.00">m_cancelled</text>
<text text-anchor="start" x="30.5" y="-111.5" font-family="Helvetica,sans-Serif" font-size="10.00">+</text>
<text text-anchor="start" x="44" y="-111.5" font-family="Helvetica,sans-Serif" font-size="10.00">DatasheetExportWorker()</text>
<text text-anchor="start" x="30.5" y="-96.5" font-family="Helvetica,sans-Serif" font-size="10.00">+</text>
<text text-anchor="start" x="44" y="-96.5" font-family="Helvetica,sans-Serif" font-size="10.00">setData()</text>
<text text-anchor="start" x="30.5" y="-81.5" font-family="Helvetica,sans-Serif" font-size="10.00">+</text>
<text text-anchor="start" x="44" y="-81.5" font-family="Helvetica,sans-Serif" font-size="10.00">setTempPath()</text>
<text text-anchor="start" x="30.5" y="-66.5" font-family="Helvetica,sans-Serif" font-size="10.00">+</text>
<text text-anchor="start" x="44" y="-66.5" font-family="Helvetica,sans-Serif" font-size="10.00">run()</text>
<text text-anchor="start" x="30.5" y="-51.5" font-family="Helvetica,sans-Serif" font-size="10.00">+</text>
<text text-anchor="start" x="44" y="-51.5" font-family="Helvetica,sans-Serif" font-size="10.00">cancel()</text>
<text text-anchor="start" x="30.5" y="-36.5" font-family="Helvetica,sans-Serif" font-size="10.00">+</text>
<text text-anchor="start" x="44" y="-36.5" font-family="Helvetica,sans-Serif" font-size="10.00">componentId()</text>
<text text-anchor="start" x="30.5" y="-21.5" font-family="Helvetica,sans-Serif" font-size="10.00">+</text>
<text text-anchor="start" x="44" y="-21.5" font-family="Helvetica,sans-Serif" font-size="10.00">setOptions()</text>
<text text-anchor="start" x="30.5" y="-6.5" font-family="Helvetica,sans-Serif" font-size="10.00">+</text>
<text text-anchor="start" x="44" y="-6.5" font-family="Helvetica,sans-Serif" font-size="10.00">completed()</text>
<polygon fill="#666666" stroke="#666666" points="26,-196.5 26,-196.5 174,-196.5 174,-196.5 26,-196.5"/>
<polygon fill="#666666" stroke="#666666" points="26,-121.5 26,-121.5 42,-121.5 42,-121.5 26,-121.5"/>
<polygon fill="#666666" stroke="#666666" points="42,-121.5 42,-121.5 174,-121.5 174,-121.5 42,-121.5"/>
<polygon fill="none" stroke="#666666" points="26,0 26,-225 174,-225 174,0 26,0"/>
</a>
</g>
</g>
<!-- Node2 -->
<g id="Node000002" class="node">
<title>Node2</title>
<g id="a_Node000002"><a xlink:title=" ">
<polygon fill="white" stroke="transparent" points="50,-345.5 0,-345.5 0,-296.5 50,-296.5 50,-345.5"/>
<text text-anchor="start" x="5" y="-333" font-family="Helvetica,sans-Serif" font-size="10.00">QObject</text>
<text text-anchor="start" x="23" y="-318" font-family="Helvetica,sans-Serif" font-size="10.00"> </text>
<text text-anchor="start" x="23" y="-303" font-family="Helvetica,sans-Serif" font-size="10.00"> </text>
<polygon fill="#666666" stroke="#666666" points="0,-328 0,-328 50,-328 50,-328 0,-328"/>
<polygon fill="#666666" stroke="#666666" points="0,-313 0,-313 50,-313 50,-313 0,-313"/>
<polygon fill="none" stroke="#666666" points="0,-296.5 0,-345.5 50,-345.5 50,-296.5 0,-296.5"/>
</a>
</g>
</g>
<!-- Node2&#45;&gt;Node1 -->
<g id="edge1_Node000001_Node000002" class="edge">
<title>Node2&#45;&gt;Node1</title>
<g id="a_edge1_Node000001_Node000002"><a xlink:title=" ">
<path fill="none" stroke="#63b8ff" d="M37.05,-286.82C43.27,-269.68 51.27,-247.67 59.46,-225.13"/>
<polygon fill="none" stroke="#63b8ff" points="33.73,-285.72 33.6,-296.31 40.31,-288.11 33.73,-285.72"/>
</a>
</g>
</g>
<!-- Node3 -->
<g id="Node000003" class="node">
<title>Node3</title>
<g id="a_Node000003"><a xlink:title=" ">
<polygon fill="white" stroke="transparent" points="132,-345.5 68,-345.5 68,-296.5 132,-296.5 132,-345.5"/>
<text text-anchor="start" x="73" y="-333" font-family="Helvetica,sans-Serif" font-size="10.00">QRunnable</text>
<text text-anchor="start" x="98" y="-318" font-family="Helvetica,sans-Serif" font-size="10.00"> </text>
<text text-anchor="start" x="98" y="-303" font-family="Helvetica,sans-Serif" font-size="10.00"> </text>
<polygon fill="#666666" stroke="#666666" points="68,-328 68,-328 132,-328 132,-328 68,-328"/>
<polygon fill="#666666" stroke="#666666" points="68,-313 68,-313 132,-313 132,-313 68,-313"/>
<polygon fill="none" stroke="#666666" points="68,-296.5 68,-345.5 132,-345.5 132,-296.5 68,-296.5"/>
</a>
</g>
</g>
<!-- Node3&#45;&gt;Node1 -->
<g id="edge2_Node000001_Node000003" class="edge">
<title>Node3&#45;&gt;Node1</title>
<g id="a_edge2_Node000001_Node000003"><a xlink:title=" ">
<path fill="none" stroke="#63b8ff" d="M100,-285.85C100,-268.86 100,-247.25 100,-225.13"/>
<polygon fill="none" stroke="#63b8ff" points="96.5,-286.31 100,-296.31 103.5,-286.31 96.5,-286.31"/>
</a>
</g>
</g>
<!-- Node4 -->
<g id="Node000004" class="node">
<title>Node4</title>
<g id="a_Node000004"><a xlink:href="classEasyKiConverter_1_1IExportWorker.html" target="_top" xlink:title="导出Worker接口">
<polygon fill="white" stroke="transparent" points="282,-381 150,-381 150,-261 282,-261 282,-381"/>
<text text-anchor="start" x="155" y="-369" font-family="Helvetica,sans-Serif" font-size="10.00">EasyKiConverter::IExport</text>
<text text-anchor="start" x="199" y="-358" font-family="Helvetica,sans-Serif" font-size="10.00">Worker</text>
<text text-anchor="start" x="214" y="-343" font-family="Helvetica,sans-Serif" font-size="10.00"> </text>
<text text-anchor="start" x="160.5" y="-328" font-family="Helvetica,sans-Serif" font-size="10.00">+</text>
<text text-anchor="start" x="180" y="-328" font-family="Helvetica,sans-Serif" font-size="10.00">~IExportWorker()</text>
<text text-anchor="start" x="160.5" y="-313" font-family="Helvetica,sans-Serif" font-size="10.00">+</text>
<text text-anchor="start" x="180" y="-313" font-family="Helvetica,sans-Serif" font-size="10.00">setData()</text>
<text text-anchor="start" x="160.5" y="-298" font-family="Helvetica,sans-Serif" font-size="10.00">+</text>
<text text-anchor="start" x="180" y="-298" font-family="Helvetica,sans-Serif" font-size="10.00">cancel()</text>
<text text-anchor="start" x="160.5" y="-283" font-family="Helvetica,sans-Serif" font-size="10.00">+</text>
<text text-anchor="start" x="180" y="-283" font-family="Helvetica,sans-Serif" font-size="10.00">componentId()</text>
<text text-anchor="start" x="160.5" y="-268" font-family="Helvetica,sans-Serif" font-size="10.00">+</text>
<text text-anchor="start" x="180" y="-268" font-family="Helvetica,sans-Serif" font-size="10.00">run()</text>
<polygon fill="#666666" stroke="#666666" points="150,-353 150,-353 282,-353 282,-353 150,-353"/>
<polygon fill="#666666" stroke="#666666" points="150,-338 150,-338 282,-338 282,-338 150,-338"/>
<polygon fill="none" stroke="#666666" points="150,-261 150,-381 282,-381 282,-261 150,-261"/>
</a>
</g>
</g>
<!-- Node4&#45;&gt;Node1 -->
<g id="edge3_Node000001_Node000004" class="edge">
<title>Node4&#45;&gt;Node1</title>
<g id="a_edge3_Node000001_Node000004"><a xlink:title=" ">
<path fill="none" stroke="#63b8ff" d="M177.8,-252C172.97,-243.4 167.92,-234.42 162.83,-225.35"/>
<polygon fill="none" stroke="#63b8ff" points="174.81,-253.82 182.76,-260.83 180.91,-250.39 174.81,-253.82"/>
</a>
</g>
</g>
</g>
</svg>
