<?xml version="1.0" encoding="UTF-8" standalone="no"?>
<!DOCTYPE svg PUBLIC "-//W3C//DTD SVG 1.1//EN"
 "http://www.w3.org/Graphics/SVG/1.1/DTD/svg11.dtd">
<!-- Generated by graphviz version 2.43.0 (0)
 -->
<!-- Title: EasyKiConverter::FootprintExportStage Pages: 1 -->
<svg width="160pt" height="819pt"
 viewBox="0.00 0.00 160.00 819.00" xmlns="http://www.w3.org/2000/svg" xmlns:xlink="http://www.w3.org/1999/xlink">
<g id="graph0" class="graph" transform="scale(1 1) rotate(0) translate(4 815)">
<title>EasyKiConverter::FootprintExportStage</title>
<!-- Node1 -->
<g id="Node000001" class="node">
<title>Node1</title>
<g id="a_Node000001"><a xlink:title="封装库导出阶段">
<polygon fill="#999999" stroke="transparent" points="146.5,-210 5.5,-210 5.5,0 146.5,0 146.5,-210"/>
<text text-anchor="start" x="11" y="-198" font-family="Helvetica,sans-Serif" font-size="10.00">EasyKiConverter::Footprint</text>
<text text-anchor="start" x="46.5" y="-187" font-family="Helvetica,sans-Serif" font-size="10.00">ExportStage</text>
<text text-anchor="start" x="12.5" y="-172" font-family="Helvetica,sans-Serif" font-size="10.00">&#45;</text>
<text text-anchor="start" x="23" y="-172" font-family="Helvetica,sans-Serif" font-size="10.00">m_options</text>
<text text-anchor="start" x="12.5" y="-157" font-family="Helvetica,sans-Serif" font-size="10.00">&#45;</text>
<text text-anchor="start" x="23" y="-157" font-family="Helvetica,sans-Serif" font-size="10.00">m_tempManager</text>
<text text-anchor="start" x="12.5" y="-142" font-family="Helvetica,sans-Serif" font-size="10.00">&#45;</text>
<text text-anchor="start" x="23" y="-142" font-family="Helvetica,sans-Serif" font-size="10.00">m_workerThread</text>
<text text-anchor="start" x="10" y="-127" font-family="Helvetica,sans-Serif" font-size="10.00">+</text>
<text text-anchor="start" x="23" y="-127" font-family="Helvetica,sans-Serif" font-size="10.00">FootprintExportStage()</text>
<text text-anchor="start" x="10" y="-112" font-family="Helvetica,sans-Serif" font-size="10.00">+</text>
<text text-anchor="start" x="23" y="-112" font-family="Helvetica,sans-Serif" font-size="10.00">~FootprintExportStage()</text>
<text text-anchor="start" x="10" y="-97" font-family="Helvetica,sans-Serif" font-size="10.00">+</text>
<text text-anchor="start" x="23" y="-97" font-family="Helvetica,sans-Serif" font-size="10.00">setOptions()</text>
<text text-anchor="start" x="10" y="-82" font-family="Helvetica,sans-Serif" font-size="10.00">+</text>
<text text-anchor="start" x="23" y="-82" font-family="Helvetica,sans-Serif" font-size="10.00">start()</text>
<text text-anchor="start" x="10" y="-67" font-family="Helvetica,sans-Serif" font-size="10.00">+</text>
<text text-anchor="start" x="23" y="-67" font-family="Helvetica,sans-Serif" font-size="10.00">cancel()</text>
<text text-anchor="start" x="10" y="-52" font-family="Helvetica,sans-Serif" font-size="10.00">+</text>
<text text-anchor="start" x="23" y="-52" font-family="Helvetica,sans-Serif" font-size="10.00">waitForFinished()</text>
<text text-anchor="start" x="10" y="-37" font-family="Helvetica,sans-Serif" font-size="10.00">#</text>
<text text-anchor="start" x="23" y="-37" font-family="Helvetica,sans-Serif" font-size="10.00">createWorker()</text>
<text text-anchor="start" x="10" y="-22" font-family="Helvetica,sans-Serif" font-size="10.00">#</text>
<text text-anchor="start" x="23" y="-22" font-family="Helvetica,sans-Serif" font-size="10.00">startWorker()</text>
<text text-anchor="start" x="12.5" y="-7" font-family="Helvetica,sans-Serif" font-size="10.00">&#45;</text>
<text text-anchor="start" x="23" y="-7" font-family="Helvetica,sans-Serif" font-size="10.00">doLibraryExport()</text>
<polygon fill="#666666" stroke="#666666" points="6,-182 6,-182 147,-182 147,-182 6,-182"/>
<polygon fill="#666666" stroke="#666666" points="6,-137 6,-137 21,-137 21,-137 6,-137"/>
<polygon fill="#666666" stroke="#666666" points="21,-137 21,-137 147,-137 147,-137 21,-137"/>
<polygon fill="none" stroke="#666666" points="5.5,0 5.5,-210 146.5,-210 146.5,0 5.5,0"/>
</a>
</g>
</g>
<!-- Node2 -->
<g id="Node000002" class="node">
<title>Node2</title>
<g id="a_Node000002"><a xlink:href="classEasyKiConverter_1_1ExportTypeStage.html" target="_top" xlink:title="导出类型阶段基类">
<polygon fill="white" stroke="transparent" points="152,-726 0,-726 0,-246 152,-246 152,-726"/>
<text text-anchor="start" x="5" y="-714" font-family="Helvetica,sans-Serif" font-size="10.00">EasyKiConverter::ExportType</text>
<text text-anchor="start" x="62" y="-703" font-family="Helvetica,sans-Serif" font-size="10.00">Stage</text>
<text text-anchor="start" x="7" y="-688" font-family="Helvetica,sans-Serif" font-size="10.00">+</text>
<text text-anchor="start" x="23" y="-688" font-family="Helvetica,sans-Serif" font-size="10.00">m_typeName</text>
<text text-anchor="start" x="7" y="-673" font-family="Helvetica,sans-Serif" font-size="10.00">+</text>
<text text-anchor="start" x="23" y="-673" font-family="Helvetica,sans-Serif" font-size="10.00">m_threadPool</text>
<text text-anchor="start" x="7" y="-658" font-family="Helvetica,sans-Serif" font-size="10.00">+</text>
<text text-anchor="start" x="23" y="-658" font-family="Helvetica,sans-Serif" font-size="10.00">m_isRunning</text>
<text text-anchor="start" x="7" y="-643" font-family="Helvetica,sans-Serif" font-size="10.00">+</text>
<text text-anchor="start" x="23" y="-643" font-family="Helvetica,sans-Serif" font-size="10.00">m_cancelled</text>
<text text-anchor="start" x="7" y="-628" font-family="Helvetica,sans-Serif" font-size="10.00">+</text>
<text text-anchor="start" x="23" y="-628" font-family="Helvetica,sans-Serif" font-size="10.00">m_isExporting</text>
<text text-anchor="start" x="7" y="-613" font-family="Helvetica,sans-Serif" font-size="10.00">+</text>
<text text-anchor="start" x="23" y="-613" font-family="Helvetica,sans-Serif" font-size="10.00">m_componentIds</text>
<text text-anchor="start" x="7" y="-598" font-family="Helvetica,sans-Serif" font-size="10.00">+</text>
<text text-anchor="start" x="23" y="-598" font-family="Helvetica,sans-Serif" font-size="10.00">m_cachedData</text>
<text text-anchor="start" x="7" y="-583" font-family="Helvetica,sans-Serif" font-size="10.00">+</text>
<text text-anchor="start" x="23" y="-583" font-family="Helvetica,sans-Serif" font-size="10.00">m_progressMutex</text>
<text text-anchor="start" x="7" y="-568" font-family="Helvetica,sans-Serif" font-size="10.00">+</text>
<text text-anchor="start" x="23" y="-568" font-family="Helvetica,sans-Serif" font-size="10.00">m_progress</text>
<text text-anchor="start" x="7" y="-553" font-family="Helvetica,sans-Serif" font-size="10.00">+</text>
<text text-anchor="start" x="23" y="-553" font-family="Helvetica,sans-Serif" font-size="10.00">m_workerMutex</text>
<text text-anchor="start" x="7" y="-538" font-family="Helvetica,sans-Serif" font-size="10.00">+</text>
<text text-anchor="start" x="23" y="-538" font-family="Helvetica,sans-Serif" font-size="10.00">m_activeWorkers</text>
<text text-anchor="start" x="7" y="-523" font-family="Helvetica,sans-Serif" font-size="10.00">+</text>
<text text-anchor="start" x="23" y="-523" font-family="Helvetica,sans-Serif" font-size="10.00">m_pendingComponents</text>
<text text-anchor="start" x="7" y="-508" font-family="Helvetica,sans-Serif" font-size="10.00">+</text>
<text text-anchor="start" x="23" y="-508" font-family="Helvetica,sans-Serif" font-size="10.00">ExportTypeStage()</text>
<text text-anchor="start" x="7" y="-493" font-family="Helvetica,sans-Serif" font-size="10.00">+</text>
<text text-anchor="start" x="23" y="-493" font-family="Helvetica,sans-Serif" font-size="10.00">~ExportTypeStage()</text>
<text text-anchor="start" x="7" y="-478" font-family="Helvetica,sans-Serif" font-size="10.00">+</text>
<text text-anchor="start" x="23" y="-478" font-family="Helvetica,sans-Serif" font-size="10.00">start()</text>
<text text-anchor="start" x="7" y="-463" font-family="Helvetica,sans-Serif" font-size="10.00">+</text>
<text text-anchor="start" x="23" y="-463" font-family="Helvetica,sans-Serif" font-size="10.00">cancel()</text>
<text text-anchor="start" x="7" y="-448" font-family="Helvetica,sans-Serif" font-size="10.00">+</text>
<text text-anchor="start" x="23" y="-448" font-family="Helvetica,sans-Serif" font-size="10.00">waitForFinished()</text>
<text text-anchor="start" x="7" y="-433" font-family="Helvetica,sans-Serif" font-size="10.00">+</text>
<text text-anchor="start" x="23" y="-433" font-family="Helvetica,sans-Serif" font-size="10.00">getProgress()</text>
<text text-anchor="start" x="7" y="-418" font-family="Helvetica,sans-Serif" font-size="10.00">+</text>
<text text-anchor="start" x="23" y="-418" font-family="Helvetica,sans-Serif" font-size="10.00">isRunning()</text>
<text text-anchor="start" x="7" y="-403" font-family="Helvetica,sans-Serif" font-size="10.00">+</text>
<text text-anchor="start" x="23" y="-403" font-family="Helvetica,sans-Serif" font-size="10.00">hasActiveWorkers()</text>
<text text-anchor="start" x="7" y="-388" font-family="Helvetica,sans-Serif" font-size="10.00">+</text>
<text text-anchor="start" x="23" y="-388" font-family="Helvetica,sans-Serif" font-size="10.00">typeName()</text>
<text text-anchor="start" x="7" y="-373" font-family="Helvetica,sans-Serif" font-size="10.00">+</text>
<text text-anchor="start" x="23" y="-373" font-family="Helvetica,sans-Serif" font-size="10.00">progressChanged()</text>
<text text-anchor="start" x="7" y="-358" font-family="Helvetica,sans-Serif" font-size="10.00">+</text>
<text text-anchor="start" x="23" y="-358" font-family="Helvetica,sans-Serif" font-size="10.00">itemStatusChanged()</text>
<text text-anchor="start" x="7" y="-343" font-family="Helvetica,sans-Serif" font-size="10.00">+</text>
<text text-anchor="start" x="23" y="-343" font-family="Helvetica,sans-Serif" font-size="10.00">completed()</text>
<text text-anchor="start" x="7" y="-328" font-family="Helvetica,sans-Serif" font-size="10.00">+</text>
<text text-anchor="start" x="23" y="-328" font-family="Helvetica,sans-Serif" font-size="10.00">completeItemProgress()</text>
<text text-anchor="start" x="7" y="-313" font-family="Helvetica,sans-Serif" font-size="10.00">#</text>
<text text-anchor="start" x="23" y="-313" font-family="Helvetica,sans-Serif" font-size="10.00">createWorker()</text>
<text text-anchor="start" x="7" y="-298" font-family="Helvetica,sans-Serif" font-size="10.00">#</text>
<text text-anchor="start" x="23" y="-298" font-family="Helvetica,sans-Serif" font-size="10.00">startWorker()</text>
<text text-anchor="start" x="7" y="-283" font-family="Helvetica,sans-Serif" font-size="10.00">#</text>
<text text-anchor="start" x="23" y="-283" font-family="Helvetica,sans-Serif" font-size="10.00">startNextWorker()</text>
<text text-anchor="start" x="7" y="-268" font-family="Helvetica,sans-Serif" font-size="10.00">#</text>
<text text-anchor="start" x="23" y="-268" font-family="Helvetica,sans-Serif" font-size="10.00">waitForWorkerThread()</text>
<text text-anchor="start" x="7" y="-253" font-family="Helvetica,sans-Serif" font-size="10.00">#</text>
<text text-anchor="start" x="23" y="-253" font-family="Helvetica,sans-Serif" font-size="10.00">initItemProgress()</text>
<polygon fill="#666666" stroke="#666666" points="0,-698 0,-698 152,-698 152,-698 0,-698"/>
<polygon fill="#666666" stroke="#666666" points="0,-518 0,-518 21,-518 21,-518 0,-518"/>
<polygon fill="#666666" stroke="#666666" points="21,-518 21,-518 152,-518 152,-518 21,-518"/>
<polygon fill="none" stroke="#666666" points="0,-246 0,-726 152,-726 152,-246 0,-246"/>
</a>
</g>
</g>
<!-- Node2&#45;&gt;Node1 -->
<g id="edge1_Node000001_Node000002" class="edge">
<title>Node2&#45;&gt;Node1</title>
<g id="a_edge1_Node000001_Node000002"><a xlink:title=" ">
<path fill="none" stroke="#63b8ff" d="M76,-235.52C76,-226.85 76,-218.36 76,-210.15"/>
<polygon fill="none" stroke="#63b8ff" points="72.5,-235.78 76,-245.78 79.5,-235.78 72.5,-235.78"/>
</a>
</g>
</g>
<!-- Node3 -->
<g id="Node000003" class="node">
<title>Node3</title>
<g id="a_Node000003"><a xlink:title=" ">
<polygon fill="white" stroke="transparent" points="101,-811 51,-811 51,-762 101,-762 101,-811"/>
<text text-anchor="start" x="56" y="-798.5" font-family="Helvetica,sans-Serif" font-size="10.00">QObject</text>
<text text-anchor="start" x="74" y="-783.5" font-family="Helvetica,sans-Serif" font-size="10.00"> </text>
<text text-anchor="start" x="74" y="-768.5" font-family="Helvetica,sans-Serif" font-size="10.00"> </text>
<polygon fill="#666666" stroke="#666666" points="51,-793.5 51,-793.5 101,-793.5 101,-793.5 51,-793.5"/>
<polygon fill="#666666" stroke="#666666" points="51,-778.5 51,-778.5 101,-778.5 101,-778.5 51,-778.5"/>
<polygon fill="none" stroke="#666666" points="51,-762 51,-811 101,-811 101,-762 51,-762"/>
</a>
</g>
</g>
<!-- Node3&#45;&gt;Node2 -->
<g id="edge2_Node000002_Node000003" class="edge">
<title>Node3&#45;&gt;Node2</title>
<g id="a_edge2_Node000002_Node000003"><a xlink:title=" ">
<path fill="none" stroke="#63b8ff" d="M76,-751.81C76,-744.22 76,-735.61 76,-726.24"/>
<polygon fill="none" stroke="#63b8ff" points="72.5,-751.83 76,-761.83 79.5,-751.83 72.5,-751.83"/>
</a>
</g>
</g>
</g>
</svg>
