<?xml version="1.0" encoding="UTF-8" standalone="no"?>
<!DOCTYPE svg PUBLIC "-//W3C//DTD SVG 1.1//EN"
 "http://www.w3.org/Graphics/SVG/1.1/DTD/svg11.dtd">
<!-- Generated by graphviz version 2.43.0 (0)
 -->
<!-- Title: EasyKiConverter::ComponentDataCache Pages: 1 -->
<svg width="162pt" height="333pt"
 viewBox="0.00 0.00 162.00 333.00" xmlns="http://www.w3.org/2000/svg" xmlns:xlink="http://www.w3.org/1999/xlink">
<g id="graph0" class="graph" transform="scale(1 1) rotate(0) translate(4 329)">
<title>EasyKiConverter::ComponentDataCache</title>
<!-- Node1 -->
<g id="Node000001" class="node">
<title>Node1</title>
<g id="a_Node000001"><a xlink:title="元器件数据缓存">
<polygon fill="#999999" stroke="transparent" points="154,-240 0,-240 0,0 154,0 154,-240"/>
<text text-anchor="start" x="5" y="-228" font-family="Helvetica,sans-Serif" font-size="10.00">EasyKiConverter::Component</text>
<text text-anchor="start" x="50" y="-217" font-family="Helvetica,sans-Serif" font-size="10.00">DataCache</text>
<text text-anchor="start" x="8" y="-202" font-family="Helvetica,sans-Serif" font-size="10.00">&#45;</text>
<text text-anchor="start" x="20" y="-202" font-family="Helvetica,sans-Serif" font-size="10.00">m_cacheDir</text>
<text text-anchor="start" x="8" y="-187" font-family="Helvetica,sans-Serif" font-size="10.00">&#45;</text>
<text text-anchor="start" x="20" y="-187" font-family="Helvetica,sans-Serif" font-size="10.00">m_cacheMutex</text>
<text text-anchor="start" x="8" y="-172" font-family="Helvetica,sans-Serif" font-size="10.00">&#45;</text>
<text text-anchor="start" x="20" y="-172" font-family="Helvetica,sans-Serif" font-size="10.00">m_cache</text>
<text text-anchor="start" x="5.5" y="-157" font-family="Helvetica,sans-Serif" font-size="10.00">+</text>
<text text-anchor="start" x="20" y="-157" font-family="Helvetica,sans-Serif" font-size="10.00">ComponentDataCache()</text>
<text text-anchor="start" x="5.5" y="-142" font-family="Helvetica,sans-Serif" font-size="10.00">+</text>
<text text-anchor="start" x="20" y="-142" font-family="Helvetica,sans-Serif" font-size="10.00">~ComponentDataCache()</text>
<text text-anchor="start" x="5.5" y="-127" font-family="Helvetica,sans-Serif" font-size="10.00">+</text>
<text text-anchor="start" x="20" y="-127" font-family="Helvetica,sans-Serif" font-size="10.00">setCacheDir()</text>
<text text-anchor="start" x="5.5" y="-112" font-family="Helvetica,sans-Serif" font-size="10.00">+</text>
<text text-anchor="start" x="20" y="-112" font-family="Helvetica,sans-Serif" font-size="10.00">cacheDir()</text>
<text text-anchor="start" x="5.5" y="-97" font-family="Helvetica,sans-Serif" font-size="10.00">+</text>
<text text-anchor="start" x="20" y="-97" font-family="Helvetica,sans-Serif" font-size="10.00">has()</text>
<text text-anchor="start" x="5.5" y="-82" font-family="Helvetica,sans-Serif" font-size="10.00">+</text>
<text text-anchor="start" x="20" y="-82" font-family="Helvetica,sans-Serif" font-size="10.00">get()</text>
<text text-anchor="start" x="5.5" y="-67" font-family="Helvetica,sans-Serif" font-size="10.00">+</text>
<text text-anchor="start" x="20" y="-67" font-family="Helvetica,sans-Serif" font-size="10.00">put()</text>
<text text-anchor="start" x="5.5" y="-52" font-family="Helvetica,sans-Serif" font-size="10.00">+</text>
<text text-anchor="start" x="20" y="-52" font-family="Helvetica,sans-Serif" font-size="10.00">remove()</text>
<text text-anchor="start" x="5.5" y="-37" font-family="Helvetica,sans-Serif" font-size="10.00">+</text>
<text text-anchor="start" x="20" y="-37" font-family="Helvetica,sans-Serif" font-size="10.00">clear()</text>
<text text-anchor="start" x="5.5" y="-22" font-family="Helvetica,sans-Serif" font-size="10.00">+</text>
<text text-anchor="start" x="20" y="-22" font-family="Helvetica,sans-Serif" font-size="10.00">cachedComponentIds()</text>
<text text-anchor="start" x="20" y="-7" font-family="Helvetica,sans-Serif" font-size="10.00">和 6 更多...</text>
<polygon fill="#666666" stroke="#666666" points="0,-212 0,-212 154,-212 154,-212 0,-212"/>
<polygon fill="#666666" stroke="#666666" points="0,-167 0,-167 18,-167 18,-167 0,-167"/>
<polygon fill="#666666" stroke="#666666" points="18,-167 18,-167 154,-167 154,-167 18,-167"/>
<polygon fill="none" stroke="#666666" points="0,0 0,-240 154,-240 154,0 0,0"/>
</a>
</g>
</g>
<!-- Node2 -->
<g id="Node000002" class="node">
<title>Node2</title>
<g id="a_Node000002"><a xlink:title=" ">
<polygon fill="white" stroke="transparent" points="102,-325 52,-325 52,-276 102,-276 102,-325"/>
<text text-anchor="start" x="57" y="-312.5" font-family="Helvetica,sans-Serif" font-size="10.00">QObject</text>
<text text-anchor="start" x="75" y="-297.5" font-family="Helvetica,sans-Serif" font-size="10.00"> </text>
<text text-anchor="start" x="75" y="-282.5" font-family="Helvetica,sans-Serif" font-size="10.00"> </text>
<polygon fill="#666666" stroke="#666666" points="52,-307.5 52,-307.5 102,-307.5 102,-307.5 52,-307.5"/>
<polygon fill="#666666" stroke="#666666" points="52,-292.5 52,-292.5 102,-292.5 102,-292.5 52,-292.5"/>
<polygon fill="none" stroke="#666666" points="52,-276 52,-325 102,-325 102,-276 52,-276"/>
</a>
</g>
</g>
<!-- Node2&#45;&gt;Node1 -->
<g id="edge1_Node000001_Node000002" class="edge">
<title>Node2&#45;&gt;Node1</title>
<g id="a_edge1_Node000001_Node000002"><a xlink:title=" ">
<path fill="none" stroke="#63b8ff" d="M77,-265.79C77,-258 77,-249.27 77,-240.06"/>
<polygon fill="none" stroke="#63b8ff" points="73.5,-265.8 77,-275.8 80.5,-265.8 73.5,-265.8"/>
</a>
</g>
</g>
</g>
</svg>
