<?xml version="1.0" encoding="UTF-8" standalone="no"?>
<!DOCTYPE svg PUBLIC "-//W3C//DTD SVG 1.1//EN"
 "http://www.w3.org/Graphics/SVG/1.1/DTD/svg11.dtd">
<!-- Generated by graphviz version 2.43.0 (0)
 -->
<!-- Title: EasyKiConverter::Exporter3DModel Pages: 1 -->
<svg width="244pt" height="1078pt"
 viewBox="0.00 0.00 243.50 1078.00" xmlns="http://www.w3.org/2000/svg" xmlns:xlink="http://www.w3.org/1999/xlink">
<g id="graph0" class="graph" transform="scale(1 1) rotate(0) translate(4 1074)">
<title>EasyKiConverter::Exporter3DModel</title>
<!-- Node1 -->
<g id="Node000001" class="node">
<title>Node1</title>
<g id="a_Node000001"><a xlink:title="3D 模型导出器类">
<polygon fill="#999999" stroke="transparent" points="163,-270 0,-270 0,0 163,0 163,-270"/>
<text text-anchor="start" x="14.5" y="-258" font-family="Helvetica,sans-Serif" font-size="10.00">EasyKiConverter::Exporter3</text>
<text text-anchor="start" x="63" y="-247" font-family="Helvetica,sans-Serif" font-size="10.00">DModel</text>
<text text-anchor="start" x="7" y="-232" font-family="Helvetica,sans-Serif" font-size="10.00">&#45;</text>
<text text-anchor="start" x="17.5" y="-232" font-family="Helvetica,sans-Serif" font-size="10.00">m_currentUuid</text>
<text text-anchor="start" x="7" y="-217" font-family="Helvetica,sans-Serif" font-size="10.00">&#45;</text>
<text text-anchor="start" x="17.5" y="-217" font-family="Helvetica,sans-Serif" font-size="10.00">m_savePath</text>
<text text-anchor="start" x="4.5" y="-202" font-family="Helvetica,sans-Serif" font-size="10.00">+</text>
<text text-anchor="start" x="17.5" y="-202" font-family="Helvetica,sans-Serif" font-size="10.00">Exporter3DModel()</text>
<text text-anchor="start" x="4.5" y="-187" font-family="Helvetica,sans-Serif" font-size="10.00">+</text>
<text text-anchor="start" x="17.5" y="-187" font-family="Helvetica,sans-Serif" font-size="10.00">~Exporter3DModel()</text>
<text text-anchor="start" x="4.5" y="-172" font-family="Helvetica,sans-Serif" font-size="10.00">+</text>
<text text-anchor="start" x="17.5" y="-172" font-family="Helvetica,sans-Serif" font-size="10.00">downloadObjModel()</text>
<text text-anchor="start" x="4.5" y="-157" font-family="Helvetica,sans-Serif" font-size="10.00">+</text>
<text text-anchor="start" x="17.5" y="-157" font-family="Helvetica,sans-Serif" font-size="10.00">downloadStepModel()</text>
<text text-anchor="start" x="4.5" y="-142" font-family="Helvetica,sans-Serif" font-size="10.00">+</text>
<text text-anchor="start" x="17.5" y="-142" font-family="Helvetica,sans-Serif" font-size="10.00">exportToWrl()</text>
<text text-anchor="start" x="4.5" y="-127" font-family="Helvetica,sans-Serif" font-size="10.00">+</text>
<text text-anchor="start" x="17.5" y="-127" font-family="Helvetica,sans-Serif" font-size="10.00">exportToStep()</text>
<text text-anchor="start" x="4.5" y="-112" font-family="Helvetica,sans-Serif" font-size="10.00">+</text>
<text text-anchor="start" x="17.5" y="-112" font-family="Helvetica,sans-Serif" font-size="10.00">convertToKiCadCoordinates()</text>
<text text-anchor="start" x="4.5" y="-97" font-family="Helvetica,sans-Serif" font-size="10.00">+</text>
<text text-anchor="start" x="17.5" y="-97" font-family="Helvetica,sans-Serif" font-size="10.00">cancel()</text>
<text text-anchor="start" x="4.5" y="-82" font-family="Helvetica,sans-Serif" font-size="10.00">+</text>
<text text-anchor="start" x="17.5" y="-82" font-family="Helvetica,sans-Serif" font-size="10.00">downloadSuccess()</text>
<text text-anchor="start" x="4.5" y="-67" font-family="Helvetica,sans-Serif" font-size="10.00">+</text>
<text text-anchor="start" x="17.5" y="-67" font-family="Helvetica,sans-Serif" font-size="10.00">downloadError()</text>
<text text-anchor="start" x="4.5" y="-52" font-family="Helvetica,sans-Serif" font-size="10.00">+</text>
<text text-anchor="start" x="17.5" y="-52" font-family="Helvetica,sans-Serif" font-size="10.00">downloadProgress()</text>
<text text-anchor="start" x="7" y="-37" font-family="Helvetica,sans-Serif" font-size="10.00">&#45;</text>
<text text-anchor="start" x="17.5" y="-37" font-family="Helvetica,sans-Serif" font-size="10.00">generateWrlContent()</text>
<text text-anchor="start" x="7" y="-22" font-family="Helvetica,sans-Serif" font-size="10.00">&#45;</text>
<text text-anchor="start" x="17.5" y="-22" font-family="Helvetica,sans-Serif" font-size="10.00">parseObjData()</text>
<text text-anchor="start" x="7" y="-7" font-family="Helvetica,sans-Serif" font-size="10.00">&#45;</text>
<text text-anchor="start" x="17.5" y="-7" font-family="Helvetica,sans-Serif" font-size="10.00">getModelUrl()</text>
<polygon fill="#666666" stroke="#666666" points="0.5,-242 0.5,-242 163.5,-242 163.5,-242 0.5,-242"/>
<polygon fill="#666666" stroke="#666666" points="0.5,-212 0.5,-212 15.5,-212 15.5,-212 0.5,-212"/>
<polygon fill="#666666" stroke="#666666" points="15.5,-212 15.5,-212 163.5,-212 163.5,-212 15.5,-212"/>
<polygon fill="none" stroke="#666666" points="0,0 0,-270 163,-270 163,0 0,0"/>
</a>
</g>
</g>
<!-- Node2 -->
<g id="Node000002" class="node">
<title>Node2</title>
<g id="a_Node000002"><a xlink:title=" ">
<polygon fill="white" stroke="transparent" points="102.5,-1070 52.5,-1070 52.5,-1021 102.5,-1021 102.5,-1070"/>
<text text-anchor="start" x="57.5" y="-1057.5" font-family="Helvetica,sans-Serif" font-size="10.00">QObject</text>
<text text-anchor="start" x="75.5" y="-1042.5" font-family="Helvetica,sans-Serif" font-size="10.00"> </text>
<text text-anchor="start" x="75.5" y="-1027.5" font-family="Helvetica,sans-Serif" font-size="10.00"> </text>
<polygon fill="#666666" stroke="#666666" points="52.5,-1052.5 52.5,-1052.5 102.5,-1052.5 102.5,-1052.5 52.5,-1052.5"/>
<polygon fill="#666666" stroke="#666666" points="52.5,-1037.5 52.5,-1037.5 102.5,-1037.5 102.5,-1037.5 52.5,-1037.5"/>
<polygon fill="none" stroke="#666666" points="52.5,-1021 52.5,-1070 102.5,-1070 102.5,-1021 52.5,-1021"/>
</a>
</g>
</g>
<!-- Node2&#45;&gt;Node1 -->
<g id="edge1_Node000001_Node000002" class="edge">
<title>Node2&#45;&gt;Node1</title>
<g id="a_edge1_Node000001_Node000002"><a xlink:title=" ">
<path fill="none" stroke="#63b8ff" d="M77.65,-1010.63C78.18,-891.01 79.97,-484.02 80.91,-270.01"/>
<polygon fill="none" stroke="#63b8ff" points="74.15,-1010.65 77.6,-1020.67 81.15,-1010.68 74.15,-1010.65"/>
</a>
</g>
</g>
<!-- Node4 -->
<g id="Node000004" class="node">
<title>Node4</title>
<g id="a_Node000004"><a xlink:href="classEasyKiConverter_1_1INetworkAdapter.html" target="_top" xlink:title="网络适配器接口">
<polygon fill="white" stroke="transparent" points="235.5,-984 93.5,-984 93.5,-774 235.5,-774 235.5,-984"/>
<text text-anchor="start" x="98.5" y="-972" font-family="Helvetica,sans-Serif" font-size="10.00">EasyKiConverter::INetwork</text>
<text text-anchor="start" x="145" y="-961" font-family="Helvetica,sans-Serif" font-size="10.00">Adapter</text>
<text text-anchor="start" x="162.5" y="-946" font-family="Helvetica,sans-Serif" font-size="10.00"> </text>
<text text-anchor="start" x="100" y="-931" font-family="Helvetica,sans-Serif" font-size="10.00">+</text>
<text text-anchor="start" x="115.5" y="-931" font-family="Helvetica,sans-Serif" font-size="10.00">INetworkAdapter()</text>
<text text-anchor="start" x="100" y="-916" font-family="Helvetica,sans-Serif" font-size="10.00">+</text>
<text text-anchor="start" x="115.5" y="-916" font-family="Helvetica,sans-Serif" font-size="10.00">~INetworkAdapter()</text>
<text text-anchor="start" x="100" y="-901" font-family="Helvetica,sans-Serif" font-size="10.00">+</text>
<text text-anchor="start" x="115.5" y="-901" font-family="Helvetica,sans-Serif" font-size="10.00">sendGetRequest()</text>
<text text-anchor="start" x="100" y="-886" font-family="Helvetica,sans-Serif" font-size="10.00">+</text>
<text text-anchor="start" x="115.5" y="-886" font-family="Helvetica,sans-Serif" font-size="10.00">cancelRequest()</text>
<text text-anchor="start" x="100" y="-871" font-family="Helvetica,sans-Serif" font-size="10.00">+</text>
<text text-anchor="start" x="115.5" y="-871" font-family="Helvetica,sans-Serif" font-size="10.00">setHeader()</text>
<text text-anchor="start" x="100" y="-856" font-family="Helvetica,sans-Serif" font-size="10.00">+</text>
<text text-anchor="start" x="115.5" y="-856" font-family="Helvetica,sans-Serif" font-size="10.00">clearHeaders()</text>
<text text-anchor="start" x="100" y="-841" font-family="Helvetica,sans-Serif" font-size="10.00">+</text>
<text text-anchor="start" x="115.5" y="-841" font-family="Helvetica,sans-Serif" font-size="10.00">setExpectBinaryData()</text>
<text text-anchor="start" x="100" y="-826" font-family="Helvetica,sans-Serif" font-size="10.00">+</text>
<text text-anchor="start" x="115.5" y="-826" font-family="Helvetica,sans-Serif" font-size="10.00">requestSuccess()</text>
<text text-anchor="start" x="100" y="-811" font-family="Helvetica,sans-Serif" font-size="10.00">+</text>
<text text-anchor="start" x="115.5" y="-811" font-family="Helvetica,sans-Serif" font-size="10.00">binaryDataFetched()</text>
<text text-anchor="start" x="100" y="-796" font-family="Helvetica,sans-Serif" font-size="10.00">+</text>
<text text-anchor="start" x="115.5" y="-796" font-family="Helvetica,sans-Serif" font-size="10.00">requestError()</text>
<text text-anchor="start" x="100" y="-781" font-family="Helvetica,sans-Serif" font-size="10.00">+</text>
<text text-anchor="start" x="115.5" y="-781" font-family="Helvetica,sans-Serif" font-size="10.00">requestProgress()</text>
<polygon fill="#666666" stroke="#666666" points="93.5,-956 93.5,-956 235.5,-956 235.5,-956 93.5,-956"/>
<polygon fill="#666666" stroke="#666666" points="93.5,-941 93.5,-941 235.5,-941 235.5,-941 93.5,-941"/>
<polygon fill="none" stroke="#666666" points="93.5,-774 93.5,-984 235.5,-984 235.5,-774 93.5,-774"/>
</a>
</g>
</g>
<!-- Node2&#45;&gt;Node4 -->
<g id="edge4_Node000004_Node000002" class="edge">
<title>Node2&#45;&gt;Node4</title>
<g id="a_edge4_Node000004_Node000002"><a xlink:title=" ">
<path fill="none" stroke="#63b8ff" d="M94.72,-1011.94C99.17,-1003.52 104.21,-994 109.49,-984.01"/>
<polygon fill="none" stroke="#63b8ff" points="91.55,-1010.45 89.96,-1020.93 97.73,-1013.73 91.55,-1010.45"/>
</a>
</g>
</g>
<!-- Node3 -->
<g id="Node000003" class="node">
<title>Node3</title>
<g id="a_Node000003"><a xlink:href="classEasyKiConverter_1_1NetworkUtils.html" target="_top" xlink:title="网络工具">
<polygon fill="white" stroke="transparent" points="233,-737 94,-737 94,-317 233,-317 233,-737"/>
<text text-anchor="start" x="99.5" y="-725" font-family="Helvetica,sans-Serif" font-size="10.00">EasyKiConverter::Network</text>
<text text-anchor="start" x="152.5" y="-714" font-family="Helvetica,sans-Serif" font-size="10.00">Utils</text>
<text text-anchor="start" x="102.5" y="-699" font-family="Helvetica,sans-Serif" font-size="10.00">&#45;</text>
<text text-anchor="start" x="114.5" y="-699" font-family="Helvetica,sans-Serif" font-size="10.00">m_networkManager</text>
<text text-anchor="start" x="102.5" y="-684" font-family="Helvetica,sans-Serif" font-size="10.00">&#45;</text>
<text text-anchor="start" x="114.5" y="-684" font-family="Helvetica,sans-Serif" font-size="10.00">m_currentReply</text>
<text text-anchor="start" x="102.5" y="-669" font-family="Helvetica,sans-Serif" font-size="10.00">&#45;</text>
<text text-anchor="start" x="114.5" y="-669" font-family="Helvetica,sans-Serif" font-size="10.00">m_timeoutTimer</text>
<text text-anchor="start" x="102.5" y="-654" font-family="Helvetica,sans-Serif" font-size="10.00">&#45;</text>
<text text-anchor="start" x="114.5" y="-654" font-family="Helvetica,sans-Serif" font-size="10.00">m_url</text>
<text text-anchor="start" x="102.5" y="-639" font-family="Helvetica,sans-Serif" font-size="10.00">&#45;</text>
<text text-anchor="start" x="114.5" y="-639" font-family="Helvetica,sans-Serif" font-size="10.00">m_timeout</text>
<text text-anchor="start" x="102.5" y="-624" font-family="Helvetica,sans-Serif" font-size="10.00">&#45;</text>
<text text-anchor="start" x="114.5" y="-624" font-family="Helvetica,sans-Serif" font-size="10.00">m_maxRetries</text>
<text text-anchor="start" x="102.5" y="-609" font-family="Helvetica,sans-Serif" font-size="10.00">&#45;</text>
<text text-anchor="start" x="114.5" y="-609" font-family="Helvetica,sans-Serif" font-size="10.00">m_retryCount</text>
<text text-anchor="start" x="102.5" y="-594" font-family="Helvetica,sans-Serif" font-size="10.00">&#45;</text>
<text text-anchor="start" x="114.5" y="-594" font-family="Helvetica,sans-Serif" font-size="10.00">m_headers</text>
<text text-anchor="start" x="102.5" y="-579" font-family="Helvetica,sans-Serif" font-size="10.00">&#45;</text>
<text text-anchor="start" x="114.5" y="-579" font-family="Helvetica,sans-Serif" font-size="10.00">m_isRequesting</text>
<text text-anchor="start" x="102.5" y="-564" font-family="Helvetica,sans-Serif" font-size="10.00">&#45;</text>
<text text-anchor="start" x="114.5" y="-564" font-family="Helvetica,sans-Serif" font-size="10.00">m_expectBinaryData</text>
<text text-anchor="start" x="102.5" y="-549" font-family="Helvetica,sans-Serif" font-size="10.00">&#45;</text>
<text text-anchor="start" x="114.5" y="-549" font-family="Helvetica,sans-Serif" font-size="10.00">m_replyDeleting</text>
<text text-anchor="start" x="100" y="-534" font-family="Helvetica,sans-Serif" font-size="10.00">+</text>
<text text-anchor="start" x="114.5" y="-534" font-family="Helvetica,sans-Serif" font-size="10.00">NetworkUtils()</text>
<text text-anchor="start" x="100" y="-519" font-family="Helvetica,sans-Serif" font-size="10.00">+</text>
<text text-anchor="start" x="114.5" y="-519" font-family="Helvetica,sans-Serif" font-size="10.00">~NetworkUtils()</text>
<text text-anchor="start" x="100" y="-504" font-family="Helvetica,sans-Serif" font-size="10.00">+</text>
<text text-anchor="start" x="114.5" y="-504" font-family="Helvetica,sans-Serif" font-size="10.00">sendGetRequest()</text>
<text text-anchor="start" x="100" y="-489" font-family="Helvetica,sans-Serif" font-size="10.00">+</text>
<text text-anchor="start" x="114.5" y="-489" font-family="Helvetica,sans-Serif" font-size="10.00">cancelRequest()</text>
<text text-anchor="start" x="100" y="-474" font-family="Helvetica,sans-Serif" font-size="10.00">+</text>
<text text-anchor="start" x="114.5" y="-474" font-family="Helvetica,sans-Serif" font-size="10.00">setHeader()</text>
<text text-anchor="start" x="100" y="-459" font-family="Helvetica,sans-Serif" font-size="10.00">+</text>
<text text-anchor="start" x="114.5" y="-459" font-family="Helvetica,sans-Serif" font-size="10.00">clearHeaders()</text>
<text text-anchor="start" x="100" y="-444" font-family="Helvetica,sans-Serif" font-size="10.00">+</text>
<text text-anchor="start" x="114.5" y="-444" font-family="Helvetica,sans-Serif" font-size="10.00">setExpectBinaryData()</text>
<text text-anchor="start" x="102.5" y="-429" font-family="Helvetica,sans-Serif" font-size="10.00">&#45;</text>
<text text-anchor="start" x="114.5" y="-429" font-family="Helvetica,sans-Serif" font-size="10.00">handleResponse()</text>
<text text-anchor="start" x="102.5" y="-414" font-family="Helvetica,sans-Serif" font-size="10.00">&#45;</text>
<text text-anchor="start" x="114.5" y="-414" font-family="Helvetica,sans-Serif" font-size="10.00">handleError()</text>
<text text-anchor="start" x="102.5" y="-399" font-family="Helvetica,sans-Serif" font-size="10.00">&#45;</text>
<text text-anchor="start" x="114.5" y="-399" font-family="Helvetica,sans-Serif" font-size="10.00">handleTimeout()</text>
<text text-anchor="start" x="102.5" y="-384" font-family="Helvetica,sans-Serif" font-size="10.00">&#45;</text>
<text text-anchor="start" x="114.5" y="-384" font-family="Helvetica,sans-Serif" font-size="10.00">executeRequest()</text>
<text text-anchor="start" x="102.5" y="-369" font-family="Helvetica,sans-Serif" font-size="10.00">&#45;</text>
<text text-anchor="start" x="114.5" y="-369" font-family="Helvetica,sans-Serif" font-size="10.00">retryRequest()</text>
<text text-anchor="start" x="102.5" y="-354" font-family="Helvetica,sans-Serif" font-size="10.00">&#45;</text>
<text text-anchor="start" x="114.5" y="-354" font-family="Helvetica,sans-Serif" font-size="10.00">shouldRetry()</text>
<text text-anchor="start" x="102.5" y="-339" font-family="Helvetica,sans-Serif" font-size="10.00">&#45;</text>
<text text-anchor="start" x="114.5" y="-339" font-family="Helvetica,sans-Serif" font-size="10.00">calculateRetryDelay()</text>
<text text-anchor="start" x="102.5" y="-324" font-family="Helvetica,sans-Serif" font-size="10.00">&#45;</text>
<text text-anchor="start" x="114.5" y="-324" font-family="Helvetica,sans-Serif" font-size="10.00">decompressGzip()</text>
<polygon fill="#666666" stroke="#666666" points="94.5,-709 94.5,-709 233.5,-709 233.5,-709 94.5,-709"/>
<polygon fill="#666666" stroke="#666666" points="94.5,-544 94.5,-544 112.5,-544 112.5,-544 94.5,-544"/>
<polygon fill="#666666" stroke="#666666" points="112.5,-544 112.5,-544 233.5,-544 233.5,-544 112.5,-544"/>
<polygon fill="none" stroke="#666666" points="94,-317 94,-737 233,-737 233,-317 94,-317"/>
</a>
</g>
</g>
<!-- Node3&#45;&gt;Node1 -->
<g id="edge2_Node000001_Node000003" class="edge">
<title>Node3&#45;&gt;Node1</title>
<g id="a_edge2_Node000001_Node000003"><a xlink:title=" ">
<path fill="none" stroke="#63b8ff" d="M119.5,-316.73C117.03,-304.99 114.58,-293.33 112.18,-281.9"/>
<polygon fill="none" stroke="#63b8ff" points="112.16,-281.83 107.01,-276.79 109.69,-270.09 114.84,-275.14 112.16,-281.83"/>
</a>
</g>
<text text-anchor="middle" x="157" y="-291" font-family="Helvetica,sans-Serif" font-size="10.00" fill="grey"> &#45;m_networkUtils</text>
</g>
<!-- Node4&#45;&gt;Node3 -->
<g id="edge3_Node000003_Node000004" class="edge">
<title>Node4&#45;&gt;Node3</title>
<g id="a_edge3_Node000003_Node000004"><a xlink:title=" ">
<path fill="none" stroke="#63b8ff" d="M164.17,-763.87C164.15,-755.21 164.12,-746.31 164.1,-737.29"/>
<polygon fill="none" stroke="#63b8ff" points="160.67,-763.95 164.2,-773.94 167.67,-763.93 160.67,-763.95"/>
</a>
</g>
</g>
</g>
</svg>
