<?xml version="1.0" encoding="UTF-8" standalone="no"?>
<!DOCTYPE svg PUBLIC "-//W3C//DTD SVG 1.1//EN"
 "http://www.w3.org/Graphics/SVG/1.1/DTD/svg11.dtd">
<!-- Generated by graphviz version 2.43.0 (0)
 -->
<!-- Title: EasyKiConverter::NetworkClient Pages: 1 -->
<svg width="407pt" height="1037pt"
 viewBox="0.00 0.00 407.00 1037.00" xmlns="http://www.w3.org/2000/svg" xmlns:xlink="http://www.w3.org/1999/xlink">
<g id="graph0" class="graph" transform="scale(1 1) rotate(0) translate(4 1033)">
<title>EasyKiConverter::NetworkClient</title>
<!-- Node1 -->
<g id="Node000001" class="node">
<title>Node1</title>
<g id="a_Node000001"><a xlink:title="单例网络客户端，统一管理重试/退避行为">
<polygon fill="#999999" stroke="transparent" points="237,-555 41,-555 41,0 237,0 237,-555"/>
<text text-anchor="start" x="74.5" y="-542.5" font-family="Helvetica,sans-Serif" font-size="10.00">EasyKiConverter::Network</text>
<text text-anchor="start" x="124.5" y="-531.5" font-family="Helvetica,sans-Serif" font-size="10.00">Client</text>
<text text-anchor="start" x="47.5" y="-516.5" font-family="Helvetica,sans-Serif" font-size="10.00">&#45;</text>
<text text-anchor="start" x="58" y="-516.5" font-family="Helvetica,sans-Serif" font-size="10.00">m_networkThread</text>
<text text-anchor="start" x="47.5" y="-501.5" font-family="Helvetica,sans-Serif" font-size="10.00">&#45;</text>
<text text-anchor="start" x="58" y="-501.5" font-family="Helvetica,sans-Serif" font-size="10.00">m_asyncNetworkManager</text>
<text text-anchor="start" x="47.5" y="-486.5" font-family="Helvetica,sans-Serif" font-size="10.00">&#45;</text>
<text text-anchor="start" x="58" y="-486.5" font-family="Helvetica,sans-Serif" font-size="10.00">m_asyncQueueMutex</text>
<text text-anchor="start" x="47.5" y="-471.5" font-family="Helvetica,sans-Serif" font-size="10.00">&#45;</text>
<text text-anchor="start" x="58" y="-471.5" font-family="Helvetica,sans-Serif" font-size="10.00">m_pendingAsyncRequests</text>
<text text-anchor="start" x="47.5" y="-456.5" font-family="Helvetica,sans-Serif" font-size="10.00">&#45;</text>
<text text-anchor="start" x="58" y="-456.5" font-family="Helvetica,sans-Serif" font-size="10.00">m_liveAsyncRequests</text>
<text text-anchor="start" x="47.5" y="-441.5" font-family="Helvetica,sans-Serif" font-size="10.00">&#45;</text>
<text text-anchor="start" x="58" y="-441.5" font-family="Helvetica,sans-Serif" font-size="10.00">m_activeAsyncRequestsByType</text>
<text text-anchor="start" x="47.5" y="-426.5" font-family="Helvetica,sans-Serif" font-size="10.00">&#45;</text>
<text text-anchor="start" x="58" y="-426.5" font-family="Helvetica,sans-Serif" font-size="10.00">m_resourceStats</text>
<text text-anchor="start" x="47.5" y="-411.5" font-family="Helvetica,sans-Serif" font-size="10.00">&#45;</text>
<text text-anchor="start" x="58" y="-411.5" font-family="Helvetica,sans-Serif" font-size="10.00">m_asyncSequence</text>
<text text-anchor="start" x="47.5" y="-396.5" font-family="Helvetica,sans-Serif" font-size="10.00">&#45;</text>
<text text-anchor="start" x="58" y="-396.5" font-family="Helvetica,sans-Serif" font-size="10.00">m_asyncPumpScheduled</text>
<text text-anchor="start" x="45" y="-381.5" font-family="Helvetica,sans-Serif" font-size="10.00">+</text>
<text text-anchor="start" x="58" y="-381.5" font-family="Helvetica,sans-Serif" font-size="10.00">get()</text>
<text text-anchor="start" x="45" y="-366.5" font-family="Helvetica,sans-Serif" font-size="10.00">+</text>
<text text-anchor="start" x="58" y="-366.5" font-family="Helvetica,sans-Serif" font-size="10.00">get()</text>
<text text-anchor="start" x="45" y="-351.5" font-family="Helvetica,sans-Serif" font-size="10.00">+</text>
<text text-anchor="start" x="58" y="-351.5" font-family="Helvetica,sans-Serif" font-size="10.00">post()</text>
<text text-anchor="start" x="45" y="-336.5" font-family="Helvetica,sans-Serif" font-size="10.00">+</text>
<text text-anchor="start" x="58" y="-336.5" font-family="Helvetica,sans-Serif" font-size="10.00">post()</text>
<text text-anchor="start" x="45" y="-321.5" font-family="Helvetica,sans-Serif" font-size="10.00">+</text>
<text text-anchor="start" x="58" y="-321.5" font-family="Helvetica,sans-Serif" font-size="10.00">getAsync()</text>
<text text-anchor="start" x="45" y="-306.5" font-family="Helvetica,sans-Serif" font-size="10.00">+</text>
<text text-anchor="start" x="58" y="-306.5" font-family="Helvetica,sans-Serif" font-size="10.00">postAsync()</text>
<text text-anchor="start" x="45" y="-291.5" font-family="Helvetica,sans-Serif" font-size="10.00">+</text>
<text text-anchor="start" x="58" y="-291.5" font-family="Helvetica,sans-Serif" font-size="10.00">runtimeStats()</text>
<text text-anchor="start" x="45" y="-276.5" font-family="Helvetica,sans-Serif" font-size="10.00">+</text>
<text text-anchor="start" x="58" y="-276.5" font-family="Helvetica,sans-Serif" font-size="10.00">formatRuntimeStats()</text>
<text text-anchor="start" x="45" y="-261.5" font-family="Helvetica,sans-Serif" font-size="10.00">+</text>
<text text-anchor="start" x="58" y="-261.5" font-family="Helvetica,sans-Serif" font-size="10.00">cancelAllRequests()</text>
<text text-anchor="start" x="45" y="-246.5" font-family="Helvetica,sans-Serif" font-size="10.00">+</text>
<text text-anchor="start" x="58" y="-246.5" font-family="Helvetica,sans-Serif" font-size="10.00">isGzipCompressed()</text>
<text text-anchor="start" x="45" y="-231.5" font-family="Helvetica,sans-Serif" font-size="10.00">+</text>
<text text-anchor="start" x="58" y="-231.5" font-family="Helvetica,sans-Serif" font-size="10.00">decompressGzip()</text>
<text text-anchor="start" x="45" y="-216.5" font-family="Helvetica,sans-Serif" font-size="10.00">#</text>
<text text-anchor="start" x="58" y="-216.5" font-family="Helvetica,sans-Serif" font-size="10.00">NetworkClient()</text>
<text text-anchor="start" x="45" y="-201.5" font-family="Helvetica,sans-Serif" font-size="10.00">#</text>
<text text-anchor="start" x="58" y="-201.5" font-family="Helvetica,sans-Serif" font-size="10.00">~NetworkClient()</text>
<text text-anchor="start" x="47.5" y="-186.5" font-family="Helvetica,sans-Serif" font-size="10.00">&#45;</text>
<text text-anchor="start" x="58" y="-186.5" font-family="Helvetica,sans-Serif" font-size="10.00">executeRequest()</text>
<text text-anchor="start" x="47.5" y="-171.5" font-family="Helvetica,sans-Serif" font-size="10.00">&#45;</text>
<text text-anchor="start" x="58" y="-171.5" font-family="Helvetica,sans-Serif" font-size="10.00">enqueueAsyncRequest()</text>
<text text-anchor="start" x="47.5" y="-156.5" font-family="Helvetica,sans-Serif" font-size="10.00">&#45;</text>
<text text-anchor="start" x="58" y="-156.5" font-family="Helvetica,sans-Serif" font-size="10.00">scheduleAsyncPump()</text>
<text text-anchor="start" x="47.5" y="-141.5" font-family="Helvetica,sans-Serif" font-size="10.00">&#45;</text>
<text text-anchor="start" x="58" y="-141.5" font-family="Helvetica,sans-Serif" font-size="10.00">pumpAsyncQueue()</text>
<text text-anchor="start" x="47.5" y="-126.5" font-family="Helvetica,sans-Serif" font-size="10.00">&#45;</text>
<text text-anchor="start" x="58" y="-126.5" font-family="Helvetica,sans-Serif" font-size="10.00">onAsyncRequestFinished()</text>
<text text-anchor="start" x="47.5" y="-111.5" font-family="Helvetica,sans-Serif" font-size="10.00">&#45;</text>
<text text-anchor="start" x="58" y="-111.5" font-family="Helvetica,sans-Serif" font-size="10.00">updateStatsForEnqueuedRequest()</text>
<text text-anchor="start" x="47.5" y="-96.5" font-family="Helvetica,sans-Serif" font-size="10.00">&#45;</text>
<text text-anchor="start" x="58" y="-96.5" font-family="Helvetica,sans-Serif" font-size="10.00">updateStatsForDequeuedRequest()</text>
<text text-anchor="start" x="47.5" y="-81.5" font-family="Helvetica,sans-Serif" font-size="10.00">&#45;</text>
<text text-anchor="start" x="58" y="-81.5" font-family="Helvetica,sans-Serif" font-size="10.00">updateStatsForStartedRequest()</text>
<text text-anchor="start" x="47.5" y="-66.5" font-family="Helvetica,sans-Serif" font-size="10.00">&#45;</text>
<text text-anchor="start" x="58" y="-66.5" font-family="Helvetica,sans-Serif" font-size="10.00">updateStatsForCompletedRequest()</text>
<text text-anchor="start" x="47.5" y="-51.5" font-family="Helvetica,sans-Serif" font-size="10.00">&#45;</text>
<text text-anchor="start" x="58" y="-51.5" font-family="Helvetica,sans-Serif" font-size="10.00">refreshDynamicStatsLocked()</text>
<text text-anchor="start" x="47.5" y="-36.5" font-family="Helvetica,sans-Serif" font-size="10.00">&#45;</text>
<text text-anchor="start" x="58" y="-36.5" font-family="Helvetica,sans-Serif" font-size="10.00">calculateRetryDelay()</text>
<text text-anchor="start" x="47.5" y="-21.5" font-family="Helvetica,sans-Serif" font-size="10.00">&#45;</text>
<text text-anchor="start" x="58" y="-21.5" font-family="Helvetica,sans-Serif" font-size="10.00">shouldRetry()</text>
<text text-anchor="start" x="47.5" y="-6.5" font-family="Helvetica,sans-Serif" font-size="10.00">&#45;</text>
<text text-anchor="start" x="58" y="-6.5" font-family="Helvetica,sans-Serif" font-size="10.00">populateDiagnostic()</text>
<polygon fill="#666666" stroke="#666666" points="41,-526.5 41,-526.5 237,-526.5 237,-526.5 41,-526.5"/>
<polygon fill="#666666" stroke="#666666" points="41,-391.5 41,-391.5 56,-391.5 56,-391.5 41,-391.5"/>
<polygon fill="#666666" stroke="#666666" points="56,-391.5 56,-391.5 237,-391.5 237,-391.5 56,-391.5"/>
<polygon fill="none" stroke="#666666" points="41,0 41,-555 237,-555 237,0 41,0"/>
</a>
</g>
</g>
<!-- Node2 -->
<g id="Node000002" class="node">
<title>Node2</title>
<g id="a_Node000002"><a xlink:title=" ">
<polygon fill="white" stroke="transparent" points="50,-714 0,-714 0,-665 50,-665 50,-714"/>
<text text-anchor="start" x="5" y="-701.5" font-family="Helvetica,sans-Serif" font-size="10.00">QObject</text>
<text text-anchor="start" x="23" y="-686.5" font-family="Helvetica,sans-Serif" font-size="10.00"> </text>
<text text-anchor="start" x="23" y="-671.5" font-family="Helvetica,sans-Serif" font-size="10.00"> </text>
<polygon fill="#666666" stroke="#666666" points="0,-696.5 0,-696.5 50,-696.5 50,-696.5 0,-696.5"/>
<polygon fill="#666666" stroke="#666666" points="0,-681.5 0,-681.5 50,-681.5 50,-681.5 0,-681.5"/>
<polygon fill="none" stroke="#666666" points="0,-665 0,-714 50,-714 50,-665 0,-665"/>
</a>
</g>
</g>
<!-- Node2&#45;&gt;Node1 -->
<g id="edge1_Node000001_Node000002" class="edge">
<title>Node2&#45;&gt;Node1</title>
<g id="a_edge1_Node000001_Node000002"><a xlink:title=" ">
<path fill="none" stroke="#63b8ff" d="M34.24,-655.25C41.02,-630.89 50.94,-595.22 62.01,-555.4"/>
<polygon fill="none" stroke="#63b8ff" points="30.85,-654.41 31.54,-664.98 37.59,-656.29 30.85,-654.41"/>
</a>
</g>
</g>
<!-- Node3 -->
<g id="Node000003" class="node">
<title>Node3</title>
<g id="a_Node000003"><a xlink:href="classEasyKiConverter_1_1INetworkClient.html" target="_top" xlink:title="网络客户端接口">
<polygon fill="white" stroke="transparent" points="210,-779.5 68,-779.5 68,-599.5 210,-599.5 210,-779.5"/>
<text text-anchor="start" x="73" y="-767.5" font-family="Helvetica,sans-Serif" font-size="10.00">EasyKiConverter::INetwork</text>
<text text-anchor="start" x="124.5" y="-756.5" font-family="Helvetica,sans-Serif" font-size="10.00">Client</text>
<text text-anchor="start" x="137" y="-741.5" font-family="Helvetica,sans-Serif" font-size="10.00"> </text>
<text text-anchor="start" x="75.5" y="-726.5" font-family="Helvetica,sans-Serif" font-size="10.00">+</text>
<text text-anchor="start" x="92" y="-726.5" font-family="Helvetica,sans-Serif" font-size="10.00">~INetworkClient()</text>
<text text-anchor="start" x="75.5" y="-711.5" font-family="Helvetica,sans-Serif" font-size="10.00">+</text>
<text text-anchor="start" x="92" y="-711.5" font-family="Helvetica,sans-Serif" font-size="10.00">get()</text>
<text text-anchor="start" x="75.5" y="-696.5" font-family="Helvetica,sans-Serif" font-size="10.00">+</text>
<text text-anchor="start" x="92" y="-696.5" font-family="Helvetica,sans-Serif" font-size="10.00">get()</text>
<text text-anchor="start" x="75.5" y="-681.5" font-family="Helvetica,sans-Serif" font-size="10.00">+</text>
<text text-anchor="start" x="92" y="-681.5" font-family="Helvetica,sans-Serif" font-size="10.00">post()</text>
<text text-anchor="start" x="75.5" y="-666.5" font-family="Helvetica,sans-Serif" font-size="10.00">+</text>
<text text-anchor="start" x="92" y="-666.5" font-family="Helvetica,sans-Serif" font-size="10.00">post()</text>
<text text-anchor="start" x="75.5" y="-651.5" font-family="Helvetica,sans-Serif" font-size="10.00">+</text>
<text text-anchor="start" x="92" y="-651.5" font-family="Helvetica,sans-Serif" font-size="10.00">getAsync()</text>
<text text-anchor="start" x="75.5" y="-636.5" font-family="Helvetica,sans-Serif" font-size="10.00">+</text>
<text text-anchor="start" x="92" y="-636.5" font-family="Helvetica,sans-Serif" font-size="10.00">postAsync()</text>
<text text-anchor="start" x="75.5" y="-621.5" font-family="Helvetica,sans-Serif" font-size="10.00">+</text>
<text text-anchor="start" x="92" y="-621.5" font-family="Helvetica,sans-Serif" font-size="10.00">runtimeStats()</text>
<text text-anchor="start" x="75.5" y="-606.5" font-family="Helvetica,sans-Serif" font-size="10.00">+</text>
<text text-anchor="start" x="92" y="-606.5" font-family="Helvetica,sans-Serif" font-size="10.00">formatRuntimeStats()</text>
<polygon fill="#666666" stroke="#666666" points="68,-751.5 68,-751.5 210,-751.5 210,-751.5 68,-751.5"/>
<polygon fill="#666666" stroke="#666666" points="68,-736.5 68,-736.5 210,-736.5 210,-736.5 68,-736.5"/>
<polygon fill="none" stroke="#666666" points="68,-599.5 68,-779.5 210,-779.5 210,-599.5 68,-599.5"/>
</a>
</g>
</g>
<!-- Node3&#45;&gt;Node1 -->
<g id="edge2_Node000001_Node000003" class="edge">
<title>Node3&#45;&gt;Node1</title>
<g id="a_edge2_Node000001_Node000003"><a xlink:title=" ">
<path fill="none" stroke="#63b8ff" d="M139,-589.09C139,-578.29 139,-566.94 139,-555.24"/>
<polygon fill="none" stroke="#63b8ff" points="135.5,-589.28 139,-599.28 142.5,-589.28 135.5,-589.28"/>
</a>
</g>
</g>
<!-- Node4 -->
<g id="Node000004" class="node">
<title>Node4</title>
<g id="a_Node000004"><a xlink:href="classEasyKiConverter_1_1TestableSingleton.html" target="_top" xlink:title=" ">
<polygon fill="white" stroke="transparent" points="377.5,-787 228.5,-787 228.5,-592 377.5,-592 377.5,-787"/>
<text text-anchor="start" x="234" y="-774.5" font-family="Helvetica,sans-Serif" font-size="10.00">EasyKiConverter::Testable</text>
<text text-anchor="start" x="234" y="-763.5" font-family="Helvetica,sans-Serif" font-size="10.00">Singleton&lt; NetworkClient &gt;</text>
<text text-anchor="start" x="241.5" y="-748.5" font-family="Helvetica,sans-Serif" font-size="10.00">&#45;</text>
<text text-anchor="start" x="258" y="-748.5" font-family="Helvetica,sans-Serif" font-size="10.00">s_mutex</text>
<text text-anchor="start" x="241.5" y="-733.5" font-family="Helvetica,sans-Serif" font-size="10.00">&#45;</text>
<text text-anchor="start" x="258" y="-733.5" font-family="Helvetica,sans-Serif" font-size="10.00">s_instance</text>
<text text-anchor="start" x="241.5" y="-718.5" font-family="Helvetica,sans-Serif" font-size="10.00">&#45;</text>
<text text-anchor="start" x="258" y="-718.5" font-family="Helvetica,sans-Serif" font-size="10.00">s_mockInstance</text>
<text text-anchor="start" x="239" y="-703.5" font-family="Helvetica,sans-Serif" font-size="10.00">+</text>
<text text-anchor="start" x="258" y="-703.5" font-family="Helvetica,sans-Serif" font-size="10.00">instance()</text>
<text text-anchor="start" x="239" y="-688.5" font-family="Helvetica,sans-Serif" font-size="10.00">+</text>
<text text-anchor="start" x="258" y="-688.5" font-family="Helvetica,sans-Serif" font-size="10.00">destroyInstance()</text>
<text text-anchor="start" x="239" y="-673.5" font-family="Helvetica,sans-Serif" font-size="10.00">+</text>
<text text-anchor="start" x="258" y="-673.5" font-family="Helvetica,sans-Serif" font-size="10.00">setTestingInstance()</text>
<text text-anchor="start" x="239" y="-658.5" font-family="Helvetica,sans-Serif" font-size="10.00">+</text>
<text text-anchor="start" x="258" y="-658.5" font-family="Helvetica,sans-Serif" font-size="10.00">clearMockInstance()</text>
<text text-anchor="start" x="239" y="-643.5" font-family="Helvetica,sans-Serif" font-size="10.00">+</text>
<text text-anchor="start" x="258" y="-643.5" font-family="Helvetica,sans-Serif" font-size="10.00">hasInstance()</text>
<text text-anchor="start" x="239" y="-628.5" font-family="Helvetica,sans-Serif" font-size="10.00">+</text>
<text text-anchor="start" x="258" y="-628.5" font-family="Helvetica,sans-Serif" font-size="10.00">hasMockInstance()</text>
<text text-anchor="start" x="239" y="-613.5" font-family="Helvetica,sans-Serif" font-size="10.00">#</text>
<text text-anchor="start" x="258" y="-613.5" font-family="Helvetica,sans-Serif" font-size="10.00">TestableSingleton()</text>
<text text-anchor="start" x="239" y="-598.5" font-family="Helvetica,sans-Serif" font-size="10.00">#</text>
<text text-anchor="start" x="258" y="-598.5" font-family="Helvetica,sans-Serif" font-size="10.00">~TestableSingleton()</text>
<polygon fill="#666666" stroke="#666666" points="229,-758.5 229,-758.5 378,-758.5 378,-758.5 229,-758.5"/>
<polygon fill="#666666" stroke="#666666" points="229,-713.5 229,-713.5 256,-713.5 256,-713.5 229,-713.5"/>
<polygon fill="#666666" stroke="#666666" points="256,-713.5 256,-713.5 378,-713.5 378,-713.5 256,-713.5"/>
<polygon fill="none" stroke="#666666" points="228.5,-592 228.5,-787 377.5,-787 377.5,-592 228.5,-592"/>
</a>
</g>
</g>
<!-- Node4&#45;&gt;Node1 -->
<g id="edge3_Node000001_Node000004" class="edge">
<title>Node4&#45;&gt;Node1</title>
<g id="a_edge3_Node000001_Node000004"><a xlink:title=" ">
<path fill="none" stroke="#63b8ff" d="M260.53,-582.33C253.15,-563.88 245.2,-544.01 237.04,-523.6"/>
<polygon fill="none" stroke="#63b8ff" points="257.38,-583.87 264.34,-591.85 263.88,-581.27 257.38,-583.87"/>
</a>
</g>
</g>
<!-- Node5 -->
<g id="Node000005" class="node">
<title>Node5</title>
<g id="a_Node000005"><a xlink:href="classEasyKiConverter_1_1TestableSingleton.html" target="_top" xlink:title="Template for testable singleton pattern">
<polygon fill="white" stroke="transparent" points="372,-1029 234,-1029 234,-834 372,-834 372,-1029"/>
<text text-anchor="start" x="239" y="-1016.5" font-family="Helvetica,sans-Serif" font-size="10.00">EasyKiConverter::Testable</text>
<text text-anchor="start" x="265.5" y="-1005.5" font-family="Helvetica,sans-Serif" font-size="10.00">Singleton&lt; T &gt;</text>
<text text-anchor="start" x="244" y="-990.5" font-family="Helvetica,sans-Serif" font-size="10.00">&#45;</text>
<text text-anchor="start" x="258" y="-990.5" font-family="Helvetica,sans-Serif" font-size="10.00">s_mutex</text>
<text text-anchor="start" x="244" y="-975.5" font-family="Helvetica,sans-Serif" font-size="10.00">&#45;</text>
<text text-anchor="start" x="258" y="-975.5" font-family="Helvetica,sans-Serif" font-size="10.00">s_instance</text>
<text text-anchor="start" x="244" y="-960.5" font-family="Helvetica,sans-Serif" font-size="10.00">&#45;</text>
<text text-anchor="start" x="258" y="-960.5" font-family="Helvetica,sans-Serif" font-size="10.00">s_mockInstance</text>
<text text-anchor="start" x="241.5" y="-945.5" font-family="Helvetica,sans-Serif" font-size="10.00">+</text>
<text text-anchor="start" x="258" y="-945.5" font-family="Helvetica,sans-Serif" font-size="10.00">instance()</text>
<text text-anchor="start" x="241.5" y="-930.5" font-family="Helvetica,sans-Serif" font-size="10.00">+</text>
<text text-anchor="start" x="258" y="-930.5" font-family="Helvetica,sans-Serif" font-size="10.00">destroyInstance()</text>
<text text-anchor="start" x="241.5" y="-915.5" font-family="Helvetica,sans-Serif" font-size="10.00">+</text>
<text text-anchor="start" x="258" y="-915.5" font-family="Helvetica,sans-Serif" font-size="10.00">setTestingInstance()</text>
<text text-anchor="start" x="241.5" y="-900.5" font-family="Helvetica,sans-Serif" font-size="10.00">+</text>
<text text-anchor="start" x="258" y="-900.5" font-family="Helvetica,sans-Serif" font-size="10.00">clearMockInstance()</text>
<text text-anchor="start" x="241.5" y="-885.5" font-family="Helvetica,sans-Serif" font-size="10.00">+</text>
<text text-anchor="start" x="258" y="-885.5" font-family="Helvetica,sans-Serif" font-size="10.00">hasInstance()</text>
<text text-anchor="start" x="241.5" y="-870.5" font-family="Helvetica,sans-Serif" font-size="10.00">+</text>
<text text-anchor="start" x="258" y="-870.5" font-family="Helvetica,sans-Serif" font-size="10.00">hasMockInstance()</text>
<text text-anchor="start" x="241.5" y="-855.5" font-family="Helvetica,sans-Serif" font-size="10.00">#</text>
<text text-anchor="start" x="258" y="-855.5" font-family="Helvetica,sans-Serif" font-size="10.00">TestableSingleton()</text>
<text text-anchor="start" x="241.5" y="-840.5" font-family="Helvetica,sans-Serif" font-size="10.00">#</text>
<text text-anchor="start" x="258" y="-840.5" font-family="Helvetica,sans-Serif" font-size="10.00">~TestableSingleton()</text>
<polygon fill="#666666" stroke="#666666" points="234,-1000.5 234,-1000.5 372,-1000.5 372,-1000.5 234,-1000.5"/>
<polygon fill="#666666" stroke="#666666" points="234,-955.5 234,-955.5 256,-955.5 256,-955.5 234,-955.5"/>
<polygon fill="#666666" stroke="#666666" points="256,-955.5 256,-955.5 372,-955.5 372,-955.5 256,-955.5"/>
<polygon fill="none" stroke="#666666" points="234,-834 234,-1029 372,-1029 372,-834 234,-834"/>
</a>
</g>
</g>
<!-- Node5&#45;&gt;Node4 -->
<g id="edge4_Node000004_Node000005" class="edge">
<title>Node5&#45;&gt;Node4</title>
<g id="a_edge4_Node000004_Node000005"><a xlink:title=" ">
<path fill="none" stroke="orange" d="M303,-823.77C303,-811.62 303,-799.28 303,-787.27"/>
<polygon fill="orange" stroke="orange" points="299.5,-823.92 303,-833.92 306.5,-823.92 299.5,-823.92"/>
</a>
</g>
<text text-anchor="middle" x="351" y="-808" font-family="Helvetica,sans-Serif" font-size="10.00" fill="grey"> &lt; NetworkClient &gt;</text>
</g>
</g>
</svg>
