<?xml version="1.0" encoding="UTF-8" standalone="no"?>
<!DOCTYPE svg PUBLIC "-//W3C//DTD SVG 1.1//EN"
 "http://www.w3.org/Graphics/SVG/1.1/DTD/svg11.dtd">
<!-- Generated by graphviz version 2.43.0 (0)
 -->
<!-- Title: EasyKiConverter::UpdateCheckerService Pages: 1 -->
<svg width="180pt" height="543pt"
 viewBox="0.00 0.00 180.00 543.00" xmlns="http://www.w3.org/2000/svg" xmlns:xlink="http://www.w3.org/1999/xlink">
<g id="graph0" class="graph" transform="scale(1 1) rotate(0) translate(4 539)">
<title>EasyKiConverter::UpdateCheckerService</title>
<!-- Node1 -->
<g id="Node000001" class="node">
<title>Node1</title>
<g id="a_Node000001"><a xlink:title=" ">
<polygon fill="#999999" stroke="transparent" points="172,-450 0,-450 0,0 172,0 172,-450"/>
<text text-anchor="start" x="5" y="-438" font-family="Helvetica,sans-Serif" font-size="10.00">EasyKiConverter::UpdateChecker</text>
<text text-anchor="start" x="67.5" y="-427" font-family="Helvetica,sans-Serif" font-size="10.00">Service</text>
<text text-anchor="start" x="12.5" y="-412" font-family="Helvetica,sans-Serif" font-size="10.00">&#45;</text>
<text text-anchor="start" x="29" y="-412" font-family="Helvetica,sans-Serif" font-size="10.00">m_activeRequest</text>
<text text-anchor="start" x="12.5" y="-397" font-family="Helvetica,sans-Serif" font-size="10.00">&#45;</text>
<text text-anchor="start" x="29" y="-397" font-family="Helvetica,sans-Serif" font-size="10.00">m_checking</text>
<text text-anchor="start" x="12.5" y="-382" font-family="Helvetica,sans-Serif" font-size="10.00">&#45;</text>
<text text-anchor="start" x="29" y="-382" font-family="Helvetica,sans-Serif" font-size="10.00">m_hasUpdate</text>
<text text-anchor="start" x="12.5" y="-367" font-family="Helvetica,sans-Serif" font-size="10.00">&#45;</text>
<text text-anchor="start" x="29" y="-367" font-family="Helvetica,sans-Serif" font-size="10.00">m_dismissed</text>
<text text-anchor="start" x="12.5" y="-352" font-family="Helvetica,sans-Serif" font-size="10.00">&#45;</text>
<text text-anchor="start" x="29" y="-352" font-family="Helvetica,sans-Serif" font-size="10.00">m_latestVersion</text>
<text text-anchor="start" x="12.5" y="-337" font-family="Helvetica,sans-Serif" font-size="10.00">&#45;</text>
<text text-anchor="start" x="29" y="-337" font-family="Helvetica,sans-Serif" font-size="10.00">m_releaseName</text>
<text text-anchor="start" x="12.5" y="-322" font-family="Helvetica,sans-Serif" font-size="10.00">&#45;</text>
<text text-anchor="start" x="29" y="-322" font-family="Helvetica,sans-Serif" font-size="10.00">m_releaseUrl</text>
<text text-anchor="start" x="12.5" y="-307" font-family="Helvetica,sans-Serif" font-size="10.00">&#45;</text>
<text text-anchor="start" x="29" y="-307" font-family="Helvetica,sans-Serif" font-size="10.00">m_error</text>
<text text-anchor="start" x="10" y="-292" font-family="Helvetica,sans-Serif" font-size="10.00">+</text>
<text text-anchor="start" x="29" y="-292" font-family="Helvetica,sans-Serif" font-size="10.00">UpdateCheckerService()</text>
<text text-anchor="start" x="10" y="-277" font-family="Helvetica,sans-Serif" font-size="10.00">+</text>
<text text-anchor="start" x="29" y="-277" font-family="Helvetica,sans-Serif" font-size="10.00">~UpdateCheckerService()</text>
<text text-anchor="start" x="10" y="-262" font-family="Helvetica,sans-Serif" font-size="10.00">+</text>
<text text-anchor="start" x="29" y="-262" font-family="Helvetica,sans-Serif" font-size="10.00">checking()</text>
<text text-anchor="start" x="10" y="-247" font-family="Helvetica,sans-Serif" font-size="10.00">+</text>
<text text-anchor="start" x="29" y="-247" font-family="Helvetica,sans-Serif" font-size="10.00">hasUpdate()</text>
<text text-anchor="start" x="10" y="-232" font-family="Helvetica,sans-Serif" font-size="10.00">+</text>
<text text-anchor="start" x="29" y="-232" font-family="Helvetica,sans-Serif" font-size="10.00">dismissed()</text>
<text text-anchor="start" x="10" y="-217" font-family="Helvetica,sans-Serif" font-size="10.00">+</text>
<text text-anchor="start" x="29" y="-217" font-family="Helvetica,sans-Serif" font-size="10.00">currentVersion()</text>
<text text-anchor="start" x="10" y="-202" font-family="Helvetica,sans-Serif" font-size="10.00">+</text>
<text text-anchor="start" x="29" y="-202" font-family="Helvetica,sans-Serif" font-size="10.00">latestVersion()</text>
<text text-anchor="start" x="10" y="-187" font-family="Helvetica,sans-Serif" font-size="10.00">+</text>
<text text-anchor="start" x="29" y="-187" font-family="Helvetica,sans-Serif" font-size="10.00">releaseName()</text>
<text text-anchor="start" x="10" y="-172" font-family="Helvetica,sans-Serif" font-size="10.00">+</text>
<text text-anchor="start" x="29" y="-172" font-family="Helvetica,sans-Serif" font-size="10.00">releaseUrl()</text>
<text text-anchor="start" x="10" y="-157" font-family="Helvetica,sans-Serif" font-size="10.00">+</text>
<text text-anchor="start" x="29" y="-157" font-family="Helvetica,sans-Serif" font-size="10.00">error()</text>
<text text-anchor="start" x="10" y="-142" font-family="Helvetica,sans-Serif" font-size="10.00">+</text>
<text text-anchor="start" x="29" y="-142" font-family="Helvetica,sans-Serif" font-size="10.00">checkForUpdates()</text>
<text text-anchor="start" x="10" y="-127" font-family="Helvetica,sans-Serif" font-size="10.00">+</text>
<text text-anchor="start" x="29" y="-127" font-family="Helvetica,sans-Serif" font-size="10.00">dismissUpdate()</text>
<text text-anchor="start" x="10" y="-112" font-family="Helvetica,sans-Serif" font-size="10.00">+</text>
<text text-anchor="start" x="29" y="-112" font-family="Helvetica,sans-Serif" font-size="10.00">resetDismissed()</text>
<text text-anchor="start" x="10" y="-97" font-family="Helvetica,sans-Serif" font-size="10.00">+</text>
<text text-anchor="start" x="29" y="-97" font-family="Helvetica,sans-Serif" font-size="10.00">checkingChanged()</text>
<text text-anchor="start" x="10" y="-82" font-family="Helvetica,sans-Serif" font-size="10.00">+</text>
<text text-anchor="start" x="29" y="-82" font-family="Helvetica,sans-Serif" font-size="10.00">updateStateChanged()</text>
<text text-anchor="start" x="12.5" y="-67" font-family="Helvetica,sans-Serif" font-size="10.00">&#45;</text>
<text text-anchor="start" x="29" y="-67" font-family="Helvetica,sans-Serif" font-size="10.00">setChecking()</text>
<text text-anchor="start" x="12.5" y="-52" font-family="Helvetica,sans-Serif" font-size="10.00">&#45;</text>
<text text-anchor="start" x="29" y="-52" font-family="Helvetica,sans-Serif" font-size="10.00">applyUpdateInfo()</text>
<text text-anchor="start" x="12.5" y="-37" font-family="Helvetica,sans-Serif" font-size="10.00">&#45;</text>
<text text-anchor="start" x="29" y="-37" font-family="Helvetica,sans-Serif" font-size="10.00">setError()</text>
<text text-anchor="start" x="12.5" y="-22" font-family="Helvetica,sans-Serif" font-size="10.00">&#45;</text>
<text text-anchor="start" x="29" y="-22" font-family="Helvetica,sans-Serif" font-size="10.00">normalizeVersion()</text>
<text text-anchor="start" x="12.5" y="-7" font-family="Helvetica,sans-Serif" font-size="10.00">&#45;</text>
<text text-anchor="start" x="29" y="-7" font-family="Helvetica,sans-Serif" font-size="10.00">isRemoteVersionNewer()</text>
<polygon fill="#666666" stroke="#666666" points="0,-422 0,-422 172,-422 172,-422 0,-422"/>
<polygon fill="#666666" stroke="#666666" points="0,-302 0,-302 27,-302 27,-302 0,-302"/>
<polygon fill="#666666" stroke="#666666" points="27,-302 27,-302 172,-302 172,-302 27,-302"/>
<polygon fill="none" stroke="#666666" points="0,0 0,-450 172,-450 172,0 0,0"/>
</a>
</g>
</g>
<!-- Node2 -->
<g id="Node000002" class="node">
<title>Node2</title>
<g id="a_Node000002"><a xlink:title=" ">
<polygon fill="white" stroke="transparent" points="111,-535 61,-535 61,-486 111,-486 111,-535"/>
<text text-anchor="start" x="66" y="-522.5" font-family="Helvetica,sans-Serif" font-size="10.00">QObject</text>
<text text-anchor="start" x="84" y="-507.5" font-family="Helvetica,sans-Serif" font-size="10.00"> </text>
<text text-anchor="start" x="84" y="-492.5" font-family="Helvetica,sans-Serif" font-size="10.00"> </text>
<polygon fill="#666666" stroke="#666666" points="61,-517.5 61,-517.5 111,-517.5 111,-517.5 61,-517.5"/>
<polygon fill="#666666" stroke="#666666" points="61,-502.5 61,-502.5 111,-502.5 111,-502.5 61,-502.5"/>
<polygon fill="none" stroke="#666666" points="61,-486 61,-535 111,-535 111,-486 61,-486"/>
</a>
</g>
</g>
<!-- Node2&#45;&gt;Node1 -->
<g id="edge1_Node000001_Node000002" class="edge">
<title>Node2&#45;&gt;Node1</title>
<g id="a_edge1_Node000001_Node000002"><a xlink:title=" ">
<path fill="none" stroke="#63b8ff" d="M86,-475.74C86,-468.11 86,-459.45 86,-450.05"/>
<polygon fill="none" stroke="#63b8ff" points="82.5,-475.82 86,-485.82 89.5,-475.82 82.5,-475.82"/>
</a>
</g>
</g>
</g>
</svg>
