<?xml version="1.0" encoding="UTF-8" standalone="no"?>
<!DOCTYPE svg PUBLIC "-//W3C//DTD SVG 1.1//EN"
 "http://www.w3.org/Graphics/SVG/1.1/DTD/svg11.dtd">
<!-- Generated by graphviz version 2.43.0 (0)
 -->
<!-- Title: EasyKiConverter::ComponentListItemData Pages: 1 -->
<svg width="196pt" height="625pt"
 viewBox="0.00 0.00 196.00 625.00" xmlns="http://www.w3.org/2000/svg" xmlns:xlink="http://www.w3.org/1999/xlink">
<g id="graph0" class="graph" transform="scale(1 1) rotate(0) translate(4 621)">
<title>EasyKiConverter::ComponentListItemData</title>
<!-- Node1 -->
<g id="Node000001" class="node">
<title>Node1</title>
<g id="a_Node000001"><a xlink:title="元器件列表项数据模型">
<polygon fill="#999999" stroke="transparent" points="188,-532 0,-532 0,0 188,0 188,-532"/>
<text text-anchor="start" x="22" y="-520" font-family="Helvetica,sans-Serif" font-size="10.00">EasyKiConverter::Component</text>
<text text-anchor="start" x="62" y="-509" font-family="Helvetica,sans-Serif" font-size="10.00">ListItemData</text>
<text text-anchor="start" x="6.5" y="-494" font-family="Helvetica,sans-Serif" font-size="10.00">&#45;</text>
<text text-anchor="start" x="17" y="-494" font-family="Helvetica,sans-Serif" font-size="10.00">m_componentId</text>
<text text-anchor="start" x="6.5" y="-479" font-family="Helvetica,sans-Serif" font-size="10.00">&#45;</text>
<text text-anchor="start" x="17" y="-479" font-family="Helvetica,sans-Serif" font-size="10.00">m_name</text>
<text text-anchor="start" x="6.5" y="-464" font-family="Helvetica,sans-Serif" font-size="10.00">&#45;</text>
<text text-anchor="start" x="17" y="-464" font-family="Helvetica,sans-Serif" font-size="10.00">m_package</text>
<text text-anchor="start" x="6.5" y="-449" font-family="Helvetica,sans-Serif" font-size="10.00">&#45;</text>
<text text-anchor="start" x="17" y="-449" font-family="Helvetica,sans-Serif" font-size="10.00">m_description</text>
<text text-anchor="start" x="6.5" y="-434" font-family="Helvetica,sans-Serif" font-size="10.00">&#45;</text>
<text text-anchor="start" x="17" y="-434" font-family="Helvetica,sans-Serif" font-size="10.00">m_descriptionEdited</text>
<text text-anchor="start" x="6.5" y="-419" font-family="Helvetica,sans-Serif" font-size="10.00">&#45;</text>
<text text-anchor="start" x="17" y="-419" font-family="Helvetica,sans-Serif" font-size="10.00">m_previewImages</text>
<text text-anchor="start" x="6.5" y="-404" font-family="Helvetica,sans-Serif" font-size="10.00">&#45;</text>
<text text-anchor="start" x="17" y="-404" font-family="Helvetica,sans-Serif" font-size="10.00">m_previewImagesCache</text>
<text text-anchor="start" x="6.5" y="-389" font-family="Helvetica,sans-Serif" font-size="10.00">&#45;</text>
<text text-anchor="start" x="17" y="-389" font-family="Helvetica,sans-Serif" font-size="10.00">m_isValid</text>
<text text-anchor="start" x="6.5" y="-374" font-family="Helvetica,sans-Serif" font-size="10.00">&#45;</text>
<text text-anchor="start" x="17" y="-374" font-family="Helvetica,sans-Serif" font-size="10.00">m_isFetching</text>
<text text-anchor="start" x="6.5" y="-359" font-family="Helvetica,sans-Serif" font-size="10.00">&#45;</text>
<text text-anchor="start" x="17" y="-359" font-family="Helvetica,sans-Serif" font-size="10.00">m_validationPhase</text>
<text text-anchor="start" x="6.5" y="-344" font-family="Helvetica,sans-Serif" font-size="10.00">&#45;</text>
<text text-anchor="start" x="17" y="-344" font-family="Helvetica,sans-Serif" font-size="10.00">m_errorMessage</text>
<text text-anchor="start" x="6.5" y="-329" font-family="Helvetica,sans-Serif" font-size="10.00">&#45;</text>
<text text-anchor="start" x="17" y="-329" font-family="Helvetica,sans-Serif" font-size="10.00">m_retryable</text>
<text text-anchor="start" x="6.5" y="-314" font-family="Helvetica,sans-Serif" font-size="10.00">&#45;</text>
<text text-anchor="start" x="17" y="-314" font-family="Helvetica,sans-Serif" font-size="10.00">m_componentData</text>
<text text-anchor="start" x="6.5" y="-299" font-family="Helvetica,sans-Serif" font-size="10.00">&#45;</text>
<text text-anchor="start" x="17" y="-299" font-family="Helvetica,sans-Serif" font-size="10.00">m_previewImageExported</text>
<text text-anchor="start" x="6.5" y="-284" font-family="Helvetica,sans-Serif" font-size="10.00">&#45;</text>
<text text-anchor="start" x="17" y="-284" font-family="Helvetica,sans-Serif" font-size="10.00">m_datasheetExported</text>
<text text-anchor="start" x="6.5" y="-269" font-family="Helvetica,sans-Serif" font-size="10.00">&#45;</text>
<text text-anchor="start" x="17" y="-269" font-family="Helvetica,sans-Serif" font-size="10.00">s_holdPreviewImageNotifications</text>
<text text-anchor="start" x="6.5" y="-254" font-family="Helvetica,sans-Serif" font-size="10.00">&#45;</text>
<text text-anchor="start" x="17" y="-254" font-family="Helvetica,sans-Serif" font-size="10.00">s_previewImageMutex</text>
<text text-anchor="start" x="4" y="-239" font-family="Helvetica,sans-Serif" font-size="10.00">+</text>
<text text-anchor="start" x="17" y="-239" font-family="Helvetica,sans-Serif" font-size="10.00">ComponentListItemData()</text>
<text text-anchor="start" x="4" y="-224" font-family="Helvetica,sans-Serif" font-size="10.00">+</text>
<text text-anchor="start" x="17" y="-224" font-family="Helvetica,sans-Serif" font-size="10.00">setEncodedPreviewImagesHold</text>
<text text-anchor="start" x="17" y="-213" font-family="Helvetica,sans-Serif" font-size="10.00">Notify()</text>
<text text-anchor="start" x="4" y="-198" font-family="Helvetica,sans-Serif" font-size="10.00">+</text>
<text text-anchor="start" x="17" y="-198" font-family="Helvetica,sans-Serif" font-size="10.00">setEncodedPreviewImagesSilent()</text>
<text text-anchor="start" x="4" y="-183" font-family="Helvetica,sans-Serif" font-size="10.00">+</text>
<text text-anchor="start" x="17" y="-183" font-family="Helvetica,sans-Serif" font-size="10.00">componentId()</text>
<text text-anchor="start" x="4" y="-168" font-family="Helvetica,sans-Serif" font-size="10.00">+</text>
<text text-anchor="start" x="17" y="-168" font-family="Helvetica,sans-Serif" font-size="10.00">name()</text>
<text text-anchor="start" x="4" y="-153" font-family="Helvetica,sans-Serif" font-size="10.00">+</text>
<text text-anchor="start" x="17" y="-153" font-family="Helvetica,sans-Serif" font-size="10.00">package()</text>
<text text-anchor="start" x="4" y="-138" font-family="Helvetica,sans-Serif" font-size="10.00">+</text>
<text text-anchor="start" x="17" y="-138" font-family="Helvetica,sans-Serif" font-size="10.00">description()</text>
<text text-anchor="start" x="4" y="-123" font-family="Helvetica,sans-Serif" font-size="10.00">+</text>
<text text-anchor="start" x="17" y="-123" font-family="Helvetica,sans-Serif" font-size="10.00">previewImages()</text>
<text text-anchor="start" x="4" y="-108" font-family="Helvetica,sans-Serif" font-size="10.00">+</text>
<text text-anchor="start" x="17" y="-108" font-family="Helvetica,sans-Serif" font-size="10.00">previewImageCount()</text>
<text text-anchor="start" x="4" y="-93" font-family="Helvetica,sans-Serif" font-size="10.00">+</text>
<text text-anchor="start" x="17" y="-93" font-family="Helvetica,sans-Serif" font-size="10.00">isValid()</text>
<text text-anchor="start" x="17" y="-78" font-family="Helvetica,sans-Serif" font-size="10.00">和 37 更多...</text>
<text text-anchor="start" x="4" y="-63" font-family="Helvetica,sans-Serif" font-size="10.00">+</text>
<text text-anchor="start" x="17" y="-63" font-family="Helvetica,sans-Serif" font-size="10.00">holdPreviewImageNotifications()</text>
<text text-anchor="start" x="4" y="-48" font-family="Helvetica,sans-Serif" font-size="10.00">+</text>
<text text-anchor="start" x="17" y="-48" font-family="Helvetica,sans-Serif" font-size="10.00">flushPreviewImageNotifications()</text>
<text text-anchor="start" x="6.5" y="-33" font-family="Helvetica,sans-Serif" font-size="10.00">&#45;</text>
<text text-anchor="start" x="17" y="-33" font-family="Helvetica,sans-Serif" font-size="10.00">updatePreviewImagesCache()</text>
<text text-anchor="start" x="6.5" y="-18" font-family="Helvetica,sans-Serif" font-size="10.00">&#45;</text>
<text text-anchor="start" x="17" y="-18" font-family="Helvetica,sans-Serif" font-size="10.00">applyDescriptionToComponent</text>
<text text-anchor="start" x="17" y="-7" font-family="Helvetica,sans-Serif" font-size="10.00">Data()</text>
<polygon fill="#666666" stroke="#666666" points="0,-504 0,-504 188,-504 188,-504 0,-504"/>
<polygon fill="#666666" stroke="#666666" points="0,-249 0,-249 15,-249 15,-249 0,-249"/>
<polygon fill="#666666" stroke="#666666" points="15,-249 15,-249 188,-249 188,-249 15,-249"/>
<polygon fill="none" stroke="#666666" points="0,0 0,-532 188,-532 188,0 0,0"/>
</a>
</g>
</g>
<!-- Node2 -->
<g id="Node000002" class="node">
<title>Node2</title>
<g id="a_Node000002"><a xlink:title=" ">
<polygon fill="white" stroke="transparent" points="119,-617 69,-617 69,-568 119,-568 119,-617"/>
<text text-anchor="start" x="74" y="-604.5" font-family="Helvetica,sans-Serif" font-size="10.00">QObject</text>
<text text-anchor="start" x="92" y="-589.5" font-family="Helvetica,sans-Serif" font-size="10.00"> </text>
<text text-anchor="start" x="92" y="-574.5" font-family="Helvetica,sans-Serif" font-size="10.00"> </text>
<polygon fill="#666666" stroke="#666666" points="69,-599.5 69,-599.5 119,-599.5 119,-599.5 69,-599.5"/>
<polygon fill="#666666" stroke="#666666" points="69,-584.5 69,-584.5 119,-584.5 119,-584.5 69,-584.5"/>
<polygon fill="none" stroke="#666666" points="69,-568 69,-617 119,-617 119,-568 69,-568"/>
</a>
</g>
</g>
<!-- Node2&#45;&gt;Node1 -->
<g id="edge1_Node000001_Node000002" class="edge">
<title>Node2&#45;&gt;Node1</title>
<g id="a_edge1_Node000001_Node000002"><a xlink:title=" ">
<path fill="none" stroke="#63b8ff" d="M94,-557.64C94,-550.12 94,-541.59 94,-532.28"/>
<polygon fill="none" stroke="#63b8ff" points="90.5,-557.9 94,-567.9 97.5,-557.9 90.5,-557.9"/>
</a>
</g>
</g>
</g>
</svg>
