<?xml version="1.0" encoding="UTF-8" standalone="no"?>
<!DOCTYPE svg PUBLIC "-//W3C//DTD SVG 1.1//EN"
 "http://www.w3.org/Graphics/SVG/1.1/DTD/svg11.dtd">
<!-- Generated by graphviz version 2.43.0 (0)
 -->
<!-- Title: EasyKiConverter::ExportTypeStage Pages: 1 -->
<svg width="228pt" height="745pt"
 viewBox="0.00 0.00 228.00 745.00" xmlns="http://www.w3.org/2000/svg" xmlns:xlink="http://www.w3.org/1999/xlink">
<g id="graph0" class="graph" transform="scale(1 1) rotate(0) translate(4 741)">
<title>EasyKiConverter::ExportTypeStage</title>
<!-- Node1 -->
<g id="Node000001" class="node">
<title>Node1</title>
<g id="a_Node000001"><a xlink:title="导出类型阶段基类">
<polygon fill="#999999" stroke="transparent" points="160,-465 8,-465 8,0 160,0 160,-465"/>
<text text-anchor="start" x="13" y="-452.5" font-family="Helvetica,sans-Serif" font-size="10.00">EasyKiConverter::ExportType</text>
<text text-anchor="start" x="70" y="-441.5" font-family="Helvetica,sans-Serif" font-size="10.00">Stage</text>
<text text-anchor="start" x="15" y="-426.5" font-family="Helvetica,sans-Serif" font-size="10.00">+</text>
<text text-anchor="start" x="31" y="-426.5" font-family="Helvetica,sans-Serif" font-size="10.00">m_typeName</text>
<text text-anchor="start" x="15" y="-411.5" font-family="Helvetica,sans-Serif" font-size="10.00">+</text>
<text text-anchor="start" x="31" y="-411.5" font-family="Helvetica,sans-Serif" font-size="10.00">m_threadPool</text>
<text text-anchor="start" x="15" y="-396.5" font-family="Helvetica,sans-Serif" font-size="10.00">+</text>
<text text-anchor="start" x="31" y="-396.5" font-family="Helvetica,sans-Serif" font-size="10.00">m_isRunning</text>
<text text-anchor="start" x="15" y="-381.5" font-family="Helvetica,sans-Serif" font-size="10.00">+</text>
<text text-anchor="start" x="31" y="-381.5" font-family="Helvetica,sans-Serif" font-size="10.00">m_cancelled</text>
<text text-anchor="start" x="15" y="-366.5" font-family="Helvetica,sans-Serif" font-size="10.00">+</text>
<text text-anchor="start" x="31" y="-366.5" font-family="Helvetica,sans-Serif" font-size="10.00">m_isExporting</text>
<text text-anchor="start" x="15" y="-351.5" font-family="Helvetica,sans-Serif" font-size="10.00">+</text>
<text text-anchor="start" x="31" y="-351.5" font-family="Helvetica,sans-Serif" font-size="10.00">m_componentIds</text>
<text text-anchor="start" x="15" y="-336.5" font-family="Helvetica,sans-Serif" font-size="10.00">+</text>
<text text-anchor="start" x="31" y="-336.5" font-family="Helvetica,sans-Serif" font-size="10.00">m_cachedData</text>
<text text-anchor="start" x="15" y="-321.5" font-family="Helvetica,sans-Serif" font-size="10.00">+</text>
<text text-anchor="start" x="31" y="-321.5" font-family="Helvetica,sans-Serif" font-size="10.00">m_progressMutex</text>
<text text-anchor="start" x="15" y="-306.5" font-family="Helvetica,sans-Serif" font-size="10.00">+</text>
<text text-anchor="start" x="31" y="-306.5" font-family="Helvetica,sans-Serif" font-size="10.00">m_workerMutex</text>
<text text-anchor="start" x="15" y="-291.5" font-family="Helvetica,sans-Serif" font-size="10.00">+</text>
<text text-anchor="start" x="31" y="-291.5" font-family="Helvetica,sans-Serif" font-size="10.00">m_activeWorkers</text>
<text text-anchor="start" x="15" y="-276.5" font-family="Helvetica,sans-Serif" font-size="10.00">+</text>
<text text-anchor="start" x="31" y="-276.5" font-family="Helvetica,sans-Serif" font-size="10.00">m_pendingComponents</text>
<text text-anchor="start" x="15" y="-261.5" font-family="Helvetica,sans-Serif" font-size="10.00">+</text>
<text text-anchor="start" x="31" y="-261.5" font-family="Helvetica,sans-Serif" font-size="10.00">ExportTypeStage()</text>
<text text-anchor="start" x="15" y="-246.5" font-family="Helvetica,sans-Serif" font-size="10.00">+</text>
<text text-anchor="start" x="31" y="-246.5" font-family="Helvetica,sans-Serif" font-size="10.00">~ExportTypeStage()</text>
<text text-anchor="start" x="15" y="-231.5" font-family="Helvetica,sans-Serif" font-size="10.00">+</text>
<text text-anchor="start" x="31" y="-231.5" font-family="Helvetica,sans-Serif" font-size="10.00">start()</text>
<text text-anchor="start" x="15" y="-216.5" font-family="Helvetica,sans-Serif" font-size="10.00">+</text>
<text text-anchor="start" x="31" y="-216.5" font-family="Helvetica,sans-Serif" font-size="10.00">cancel()</text>
<text text-anchor="start" x="15" y="-201.5" font-family="Helvetica,sans-Serif" font-size="10.00">+</text>
<text text-anchor="start" x="31" y="-201.5" font-family="Helvetica,sans-Serif" font-size="10.00">waitForFinished()</text>
<text text-anchor="start" x="15" y="-186.5" font-family="Helvetica,sans-Serif" font-size="10.00">+</text>
<text text-anchor="start" x="31" y="-186.5" font-family="Helvetica,sans-Serif" font-size="10.00">getProgress()</text>
<text text-anchor="start" x="15" y="-171.5" font-family="Helvetica,sans-Serif" font-size="10.00">+</text>
<text text-anchor="start" x="31" y="-171.5" font-family="Helvetica,sans-Serif" font-size="10.00">isRunning()</text>
<text text-anchor="start" x="15" y="-156.5" font-family="Helvetica,sans-Serif" font-size="10.00">+</text>
<text text-anchor="start" x="31" y="-156.5" font-family="Helvetica,sans-Serif" font-size="10.00">hasActiveWorkers()</text>
<text text-anchor="start" x="15" y="-141.5" font-family="Helvetica,sans-Serif" font-size="10.00">+</text>
<text text-anchor="start" x="31" y="-141.5" font-family="Helvetica,sans-Serif" font-size="10.00">typeName()</text>
<text text-anchor="start" x="15" y="-126.5" font-family="Helvetica,sans-Serif" font-size="10.00">+</text>
<text text-anchor="start" x="31" y="-126.5" font-family="Helvetica,sans-Serif" font-size="10.00">progressChanged()</text>
<text text-anchor="start" x="15" y="-111.5" font-family="Helvetica,sans-Serif" font-size="10.00">+</text>
<text text-anchor="start" x="31" y="-111.5" font-family="Helvetica,sans-Serif" font-size="10.00">itemStatusChanged()</text>
<text text-anchor="start" x="15" y="-96.5" font-family="Helvetica,sans-Serif" font-size="10.00">+</text>
<text text-anchor="start" x="31" y="-96.5" font-family="Helvetica,sans-Serif" font-size="10.00">completed()</text>
<text text-anchor="start" x="15" y="-81.5" font-family="Helvetica,sans-Serif" font-size="10.00">+</text>
<text text-anchor="start" x="31" y="-81.5" font-family="Helvetica,sans-Serif" font-size="10.00">completeItemProgress()</text>
<text text-anchor="start" x="15" y="-66.5" font-family="Helvetica,sans-Serif" font-size="10.00">#</text>
<text text-anchor="start" x="31" y="-66.5" font-family="Helvetica,sans-Serif" font-size="10.00">createWorker()</text>
<text text-anchor="start" x="15" y="-51.5" font-family="Helvetica,sans-Serif" font-size="10.00">#</text>
<text text-anchor="start" x="31" y="-51.5" font-family="Helvetica,sans-Serif" font-size="10.00">startWorker()</text>
<text text-anchor="start" x="15" y="-36.5" font-family="Helvetica,sans-Serif" font-size="10.00">#</text>
<text text-anchor="start" x="31" y="-36.5" font-family="Helvetica,sans-Serif" font-size="10.00">startNextWorker()</text>
<text text-anchor="start" x="15" y="-21.5" font-family="Helvetica,sans-Serif" font-size="10.00">#</text>
<text text-anchor="start" x="31" y="-21.5" font-family="Helvetica,sans-Serif" font-size="10.00">waitForWorkerThread()</text>
<text text-anchor="start" x="15" y="-6.5" font-family="Helvetica,sans-Serif" font-size="10.00">#</text>
<text text-anchor="start" x="31" y="-6.5" font-family="Helvetica,sans-Serif" font-size="10.00">initItemProgress()</text>
<polygon fill="#666666" stroke="#666666" points="8,-436.5 8,-436.5 160,-436.5 160,-436.5 8,-436.5"/>
<polygon fill="#666666" stroke="#666666" points="8,-271.5 8,-271.5 29,-271.5 29,-271.5 8,-271.5"/>
<polygon fill="#666666" stroke="#666666" points="29,-271.5 29,-271.5 160,-271.5 160,-271.5 29,-271.5"/>
<polygon fill="none" stroke="#666666" points="8,0 8,-465 160,-465 160,0 8,0"/>
</a>
</g>
</g>
<!-- Node2 -->
<g id="Node000002" class="node">
<title>Node2</title>
<g id="a_Node000002"><a xlink:title=" ">
<polygon fill="white" stroke="transparent" points="50,-649 0,-649 0,-600 50,-600 50,-649"/>
<text text-anchor="start" x="5" y="-636.5" font-family="Helvetica,sans-Serif" font-size="10.00">QObject</text>
<text text-anchor="start" x="23" y="-621.5" font-family="Helvetica,sans-Serif" font-size="10.00"> </text>
<text text-anchor="start" x="23" y="-606.5" font-family="Helvetica,sans-Serif" font-size="10.00"> </text>
<polygon fill="#666666" stroke="#666666" points="0,-631.5 0,-631.5 50,-631.5 50,-631.5 0,-631.5"/>
<polygon fill="#666666" stroke="#666666" points="0,-616.5 0,-616.5 50,-616.5 50,-616.5 0,-616.5"/>
<polygon fill="none" stroke="#666666" points="0,-600 0,-649 50,-649 50,-600 0,-600"/>
</a>
</g>
</g>
<!-- Node2&#45;&gt;Node1 -->
<g id="edge1_Node000001_Node000002" class="edge">
<title>Node2&#45;&gt;Node1</title>
<g id="a_edge1_Node000001_Node000002"><a xlink:title=" ">
<path fill="none" stroke="#63b8ff" d="M30.09,-589.85C34.57,-560.27 41.51,-514.38 48.94,-465.26"/>
<polygon fill="none" stroke="#63b8ff" points="26.59,-589.57 28.56,-599.98 33.51,-590.62 26.59,-589.57"/>
</a>
</g>
</g>
<!-- Node3 -->
<g id="Node000003" class="node">
<title>Node3</title>
<g id="a_Node000003"><a xlink:href="structEasyKiConverter_1_1ExportTypeProgress.html" target="_top" xlink:title="单个导出类型的总体进度">
<polygon fill="white" stroke="transparent" points="220,-737 68,-737 68,-512 220,-512 220,-737"/>
<text text-anchor="start" x="73" y="-724.5" font-family="Helvetica,sans-Serif" font-size="10.00">EasyKiConverter::ExportType</text>
<text text-anchor="start" x="122.5" y="-713.5" font-family="Helvetica,sans-Serif" font-size="10.00">Progress</text>
<text text-anchor="start" x="84.5" y="-698.5" font-family="Helvetica,sans-Serif" font-size="10.00">+</text>
<text text-anchor="start" x="110" y="-698.5" font-family="Helvetica,sans-Serif" font-size="10.00">typeName</text>
<text text-anchor="start" x="84.5" y="-683.5" font-family="Helvetica,sans-Serif" font-size="10.00">+</text>
<text text-anchor="start" x="110" y="-683.5" font-family="Helvetica,sans-Serif" font-size="10.00">totalCount</text>
<text text-anchor="start" x="84.5" y="-668.5" font-family="Helvetica,sans-Serif" font-size="10.00">+</text>
<text text-anchor="start" x="110" y="-668.5" font-family="Helvetica,sans-Serif" font-size="10.00">completedCount</text>
<text text-anchor="start" x="84.5" y="-653.5" font-family="Helvetica,sans-Serif" font-size="10.00">+</text>
<text text-anchor="start" x="110" y="-653.5" font-family="Helvetica,sans-Serif" font-size="10.00">successCount</text>
<text text-anchor="start" x="84.5" y="-638.5" font-family="Helvetica,sans-Serif" font-size="10.00">+</text>
<text text-anchor="start" x="110" y="-638.5" font-family="Helvetica,sans-Serif" font-size="10.00">failedCount</text>
<text text-anchor="start" x="84.5" y="-623.5" font-family="Helvetica,sans-Serif" font-size="10.00">+</text>
<text text-anchor="start" x="110" y="-623.5" font-family="Helvetica,sans-Serif" font-size="10.00">skippedCount</text>
<text text-anchor="start" x="84.5" y="-608.5" font-family="Helvetica,sans-Serif" font-size="10.00">+</text>
<text text-anchor="start" x="110" y="-608.5" font-family="Helvetica,sans-Serif" font-size="10.00">inProgressCount</text>
<text text-anchor="start" x="84.5" y="-593.5" font-family="Helvetica,sans-Serif" font-size="10.00">+</text>
<text text-anchor="start" x="110" y="-593.5" font-family="Helvetica,sans-Serif" font-size="10.00">itemStatus</text>
<text text-anchor="start" x="84.5" y="-578.5" font-family="Helvetica,sans-Serif" font-size="10.00">+</text>
<text text-anchor="start" x="110" y="-578.5" font-family="Helvetica,sans-Serif" font-size="10.00">totalBytes</text>
<text text-anchor="start" x="84.5" y="-563.5" font-family="Helvetica,sans-Serif" font-size="10.00">+</text>
<text text-anchor="start" x="110" y="-563.5" font-family="Helvetica,sans-Serif" font-size="10.00">processedBytes</text>
<text text-anchor="start" x="84.5" y="-548.5" font-family="Helvetica,sans-Serif" font-size="10.00">+</text>
<text text-anchor="start" x="110" y="-548.5" font-family="Helvetica,sans-Serif" font-size="10.00">totalTimeMs</text>
<text text-anchor="start" x="84.5" y="-533.5" font-family="Helvetica,sans-Serif" font-size="10.00">+</text>
<text text-anchor="start" x="110" y="-533.5" font-family="Helvetica,sans-Serif" font-size="10.00">percentage()</text>
<text text-anchor="start" x="84.5" y="-518.5" font-family="Helvetica,sans-Serif" font-size="10.00">+</text>
<text text-anchor="start" x="110" y="-518.5" font-family="Helvetica,sans-Serif" font-size="10.00">isComplete()</text>
<polygon fill="#666666" stroke="#666666" points="68,-708.5 68,-708.5 220,-708.5 220,-708.5 68,-708.5"/>
<polygon fill="#666666" stroke="#666666" points="68,-543.5 68,-543.5 108,-543.5 108,-543.5 68,-543.5"/>
<polygon fill="#666666" stroke="#666666" points="108,-543.5 108,-543.5 220,-543.5 220,-543.5 108,-543.5"/>
<polygon fill="none" stroke="#666666" points="68,-512 68,-737 220,-737 220,-512 68,-512"/>
</a>
</g>
</g>
<!-- Node3&#45;&gt;Node1 -->
<g id="edge2_Node000001_Node000003" class="edge">
<title>Node3&#45;&gt;Node1</title>
<g id="a_edge2_Node000001_Node000003"><a xlink:title=" ">
<path fill="none" stroke="#63b8ff" d="M126.81,-511.74C125.09,-500.6 123.31,-489.01 121.49,-477.17"/>
<polygon fill="none" stroke="#63b8ff" points="121.48,-477.11 116.61,-471.78 119.65,-465.25 124.52,-470.57 121.48,-477.11"/>
</a>
</g>
<text text-anchor="middle" x="156.5" y="-486" font-family="Helvetica,sans-Serif" font-size="10.00" fill="grey"> +m_progress</text>
</g>
</g>
</svg>
