<?xml version="1.0" encoding="UTF-8" standalone="no"?>
<!DOCTYPE svg PUBLIC "-//W3C//DTD SVG 1.1//EN"
 "http://www.w3.org/Graphics/SVG/1.1/DTD/svg11.dtd">
<!-- Generated by graphviz version 2.43.0 (0)
 -->
<!-- Title: EasyKiConverter::SymbolGraphicsGenerator Pages: 1 -->
<svg width="185pt" height="359pt"
 viewBox="0.00 0.00 185.00 359.00" xmlns="http://www.w3.org/2000/svg" xmlns:xlink="http://www.w3.org/1999/xlink">
<g id="graph0" class="graph" transform="scale(1 1) rotate(0) translate(4 355)">
<title>EasyKiConverter::SymbolGraphicsGenerator</title>
<!-- Node1 -->
<g id="Node000001" class="node">
<title>Node1</title>
<g id="a_Node000001"><a xlink:title="符号图形元素生成器">
<polygon fill="#999999" stroke="transparent" points="177,-210 0,-210 0,0 177,0 177,-210"/>
<text text-anchor="start" x="5.5" y="-198" font-family="Helvetica,sans-Serif" font-size="10.00">EasyKiConverter::SymbolGraphics</text>
<text text-anchor="start" x="64.5" y="-187" font-family="Helvetica,sans-Serif" font-size="10.00">Generator</text>
<text text-anchor="start" x="87" y="-172" font-family="Helvetica,sans-Serif" font-size="10.00"> </text>
<text text-anchor="start" x="9.5" y="-157" font-family="Helvetica,sans-Serif" font-size="10.00">+</text>
<text text-anchor="start" x="27.5" y="-157" font-family="Helvetica,sans-Serif" font-size="10.00">SymbolGraphicsGenerator()</text>
<text text-anchor="start" x="9.5" y="-142" font-family="Helvetica,sans-Serif" font-size="10.00">+</text>
<text text-anchor="start" x="27.5" y="-142" font-family="Helvetica,sans-Serif" font-size="10.00">setCurrentBBox()</text>
<text text-anchor="start" x="9.5" y="-127" font-family="Helvetica,sans-Serif" font-size="10.00">+</text>
<text text-anchor="start" x="27.5" y="-127" font-family="Helvetica,sans-Serif" font-size="10.00">currentBBox()</text>
<text text-anchor="start" x="9.5" y="-112" font-family="Helvetica,sans-Serif" font-size="10.00">+</text>
<text text-anchor="start" x="27.5" y="-112" font-family="Helvetica,sans-Serif" font-size="10.00">generateDrawings()</text>
<text text-anchor="start" x="9.5" y="-97" font-family="Helvetica,sans-Serif" font-size="10.00">+</text>
<text text-anchor="start" x="27.5" y="-97" font-family="Helvetica,sans-Serif" font-size="10.00">generateDrawings()</text>
<text text-anchor="start" x="9.5" y="-82" font-family="Helvetica,sans-Serif" font-size="10.00">+</text>
<text text-anchor="start" x="27.5" y="-82" font-family="Helvetica,sans-Serif" font-size="10.00">generatePins()</text>
<text text-anchor="start" x="9.5" y="-67" font-family="Helvetica,sans-Serif" font-size="10.00">+</text>
<text text-anchor="start" x="27.5" y="-67" font-family="Helvetica,sans-Serif" font-size="10.00">generatePin()</text>
<text text-anchor="start" x="9.5" y="-52" font-family="Helvetica,sans-Serif" font-size="10.00">+</text>
<text text-anchor="start" x="27.5" y="-52" font-family="Helvetica,sans-Serif" font-size="10.00">generateRectangle()</text>
<text text-anchor="start" x="9.5" y="-37" font-family="Helvetica,sans-Serif" font-size="10.00">+</text>
<text text-anchor="start" x="27.5" y="-37" font-family="Helvetica,sans-Serif" font-size="10.00">generateCircle()</text>
<text text-anchor="start" x="9.5" y="-22" font-family="Helvetica,sans-Serif" font-size="10.00">+</text>
<text text-anchor="start" x="27.5" y="-22" font-family="Helvetica,sans-Serif" font-size="10.00">generateArc()</text>
<text text-anchor="start" x="27.5" y="-7" font-family="Helvetica,sans-Serif" font-size="10.00">和 11 更多...</text>
<polygon fill="#666666" stroke="#666666" points="0.5,-182 0.5,-182 177.5,-182 177.5,-182 0.5,-182"/>
<polygon fill="#666666" stroke="#666666" points="0.5,-167 0.5,-167 177.5,-167 177.5,-167 0.5,-167"/>
<polygon fill="none" stroke="#666666" points="0,0 0,-210 177,-210 177,0 0,0"/>
</a>
</g>
</g>
<!-- Node2 -->
<g id="Node000002" class="node">
<title>Node2</title>
<g id="a_Node000002"><a xlink:href="structEasyKiConverter_1_1SymbolBBox.html" target="_top" xlink:title="边界">
<polygon fill="white" stroke="transparent" points="168.5,-351 8.5,-351 8.5,-257 168.5,-257 168.5,-351"/>
<text text-anchor="start" x="13.5" y="-339" font-family="Helvetica,sans-Serif" font-size="10.00">EasyKiConverter::SymbolBBox</text>
<text text-anchor="start" x="39.5" y="-324" font-family="Helvetica,sans-Serif" font-size="10.00">+</text>
<text text-anchor="start" x="79.5" y="-324" font-family="Helvetica,sans-Serif" font-size="10.00">x</text>
<text text-anchor="start" x="39.5" y="-309" font-family="Helvetica,sans-Serif" font-size="10.00">+</text>
<text text-anchor="start" x="79.5" y="-309" font-family="Helvetica,sans-Serif" font-size="10.00">y</text>
<text text-anchor="start" x="39.5" y="-294" font-family="Helvetica,sans-Serif" font-size="10.00">+</text>
<text text-anchor="start" x="79.5" y="-294" font-family="Helvetica,sans-Serif" font-size="10.00">width</text>
<text text-anchor="start" x="39.5" y="-279" font-family="Helvetica,sans-Serif" font-size="10.00">+</text>
<text text-anchor="start" x="79.5" y="-279" font-family="Helvetica,sans-Serif" font-size="10.00">height</text>
<text text-anchor="start" x="86.5" y="-264" font-family="Helvetica,sans-Serif" font-size="10.00"> </text>
<polygon fill="#666666" stroke="#666666" points="8.5,-334 8.5,-334 168.5,-334 168.5,-334 8.5,-334"/>
<polygon fill="#666666" stroke="#666666" points="8.5,-274 8.5,-274 77.5,-274 77.5,-274 8.5,-274"/>
<polygon fill="#666666" stroke="#666666" points="77.5,-274 77.5,-274 168.5,-274 168.5,-274 77.5,-274"/>
<polygon fill="none" stroke="#666666" points="8.5,-257 8.5,-351 168.5,-351 168.5,-257 8.5,-257"/>
</a>
</g>
</g>
<!-- Node2&#45;&gt;Node1 -->
<g id="edge1_Node000001_Node000002" class="edge">
<title>Node2&#45;&gt;Node1</title>
<g id="a_edge1_Node000001_Node000002"><a xlink:title=" ">
<path fill="none" stroke="#63b8ff" d="M88.5,-256.81C88.5,-246.24 88.5,-234.53 88.5,-222.44"/>
<polygon fill="none" stroke="#63b8ff" points="88.5,-222.26 84.5,-216.26 88.5,-210.26 92.5,-216.26 88.5,-222.26"/>
</a>
</g>
<text text-anchor="middle" x="129.5" y="-231" font-family="Helvetica,sans-Serif" font-size="10.00" fill="grey"> &#45;m_currentBBox</text>
</g>
</g>
</svg>
