<?xml version="1.0" encoding="UTF-8" standalone="no"?>
<!DOCTYPE svg PUBLIC "-//W3C//DTD SVG 1.1//EN"
 "http://www.w3.org/Graphics/SVG/1.1/DTD/svg11.dtd">
<!-- Generated by graphviz version 2.43.0 (0)
 -->
<!-- Title: EasyKiConverter::INetworkAdapter Pages: 1 -->
<svg width="150pt" height="744pt"
 viewBox="0.00 0.00 150.00 744.00" xmlns="http://www.w3.org/2000/svg" xmlns:xlink="http://www.w3.org/1999/xlink">
<g id="graph0" class="graph" transform="scale(1 1) rotate(0) translate(4 740)">
<title>EasyKiConverter::INetworkAdapter</title>
<!-- Node1 -->
<g id="Node000001" class="node">
<title>Node1</title>
<g id="a_Node000001"><a xlink:title="网络适配器接口">
<polygon fill="#999999" stroke="transparent" points="142,-651 0,-651 0,-441 142,-441 142,-651"/>
<text text-anchor="start" x="5" y="-639" font-family="Helvetica,sans-Serif" font-size="10.00">EasyKiConverter::INetwork</text>
<text text-anchor="start" x="51.5" y="-628" font-family="Helvetica,sans-Serif" font-size="10.00">Adapter</text>
<text text-anchor="start" x="69" y="-613" font-family="Helvetica,sans-Serif" font-size="10.00"> </text>
<text text-anchor="start" x="6.5" y="-598" font-family="Helvetica,sans-Serif" font-size="10.00">+</text>
<text text-anchor="start" x="22" y="-598" font-family="Helvetica,sans-Serif" font-size="10.00">INetworkAdapter()</text>
<text text-anchor="start" x="6.5" y="-583" font-family="Helvetica,sans-Serif" font-size="10.00">+</text>
<text text-anchor="start" x="22" y="-583" font-family="Helvetica,sans-Serif" font-size="10.00">~INetworkAdapter()</text>
<text text-anchor="start" x="6.5" y="-568" font-family="Helvetica,sans-Serif" font-size="10.00">+</text>
<text text-anchor="start" x="22" y="-568" font-family="Helvetica,sans-Serif" font-size="10.00">sendGetRequest()</text>
<text text-anchor="start" x="6.5" y="-553" font-family="Helvetica,sans-Serif" font-size="10.00">+</text>
<text text-anchor="start" x="22" y="-553" font-family="Helvetica,sans-Serif" font-size="10.00">cancelRequest()</text>
<text text-anchor="start" x="6.5" y="-538" font-family="Helvetica,sans-Serif" font-size="10.00">+</text>
<text text-anchor="start" x="22" y="-538" font-family="Helvetica,sans-Serif" font-size="10.00">setHeader()</text>
<text text-anchor="start" x="6.5" y="-523" font-family="Helvetica,sans-Serif" font-size="10.00">+</text>
<text text-anchor="start" x="22" y="-523" font-family="Helvetica,sans-Serif" font-size="10.00">clearHeaders()</text>
<text text-anchor="start" x="6.5" y="-508" font-family="Helvetica,sans-Serif" font-size="10.00">+</text>
<text text-anchor="start" x="22" y="-508" font-family="Helvetica,sans-Serif" font-size="10.00">setExpectBinaryData()</text>
<text text-anchor="start" x="6.5" y="-493" font-family="Helvetica,sans-Serif" font-size="10.00">+</text>
<text text-anchor="start" x="22" y="-493" font-family="Helvetica,sans-Serif" font-size="10.00">requestSuccess()</text>
<text text-anchor="start" x="6.5" y="-478" font-family="Helvetica,sans-Serif" font-size="10.00">+</text>
<text text-anchor="start" x="22" y="-478" font-family="Helvetica,sans-Serif" font-size="10.00">binaryDataFetched()</text>
<text text-anchor="start" x="6.5" y="-463" font-family="Helvetica,sans-Serif" font-size="10.00">+</text>
<text text-anchor="start" x="22" y="-463" font-family="Helvetica,sans-Serif" font-size="10.00">requestError()</text>
<text text-anchor="start" x="6.5" y="-448" font-family="Helvetica,sans-Serif" font-size="10.00">+</text>
<text text-anchor="start" x="22" y="-448" font-family="Helvetica,sans-Serif" font-size="10.00">requestProgress()</text>
<polygon fill="#666666" stroke="#666666" points="0,-623 0,-623 142,-623 142,-623 0,-623"/>
<polygon fill="#666666" stroke="#666666" points="0,-608 0,-608 142,-608 142,-608 0,-608"/>
<polygon fill="none" stroke="#666666" points="0,-441 0,-651 142,-651 142,-441 0,-441"/>
</a>
</g>
</g>
<!-- Node3 -->
<g id="Node000003" class="node">
<title>Node3</title>
<g id="a_Node000003"><a xlink:href="classEasyKiConverter_1_1NetworkUtils.html" target="_top" xlink:title="网络工具">
<polygon fill="white" stroke="transparent" points="140.5,-405 1.5,-405 1.5,0 140.5,0 140.5,-405"/>
<text text-anchor="start" x="7" y="-392.5" font-family="Helvetica,sans-Serif" font-size="10.00">EasyKiConverter::Network</text>
<text text-anchor="start" x="60" y="-381.5" font-family="Helvetica,sans-Serif" font-size="10.00">Utils</text>
<text text-anchor="start" x="10" y="-366.5" font-family="Helvetica,sans-Serif" font-size="10.00">&#45;</text>
<text text-anchor="start" x="22" y="-366.5" font-family="Helvetica,sans-Serif" font-size="10.00">m_networkManager</text>
<text text-anchor="start" x="10" y="-351.5" font-family="Helvetica,sans-Serif" font-size="10.00">&#45;</text>
<text text-anchor="start" x="22" y="-351.5" font-family="Helvetica,sans-Serif" font-size="10.00">m_currentReply</text>
<text text-anchor="start" x="10" y="-336.5" font-family="Helvetica,sans-Serif" font-size="10.00">&#45;</text>
<text text-anchor="start" x="22" y="-336.5" font-family="Helvetica,sans-Serif" font-size="10.00">m_timeoutTimer</text>
<text text-anchor="start" x="10" y="-321.5" font-family="Helvetica,sans-Serif" font-size="10.00">&#45;</text>
<text text-anchor="start" x="22" y="-321.5" font-family="Helvetica,sans-Serif" font-size="10.00">m_url</text>
<text text-anchor="start" x="10" y="-306.5" font-family="Helvetica,sans-Serif" font-size="10.00">&#45;</text>
<text text-anchor="start" x="22" y="-306.5" font-family="Helvetica,sans-Serif" font-size="10.00">m_timeout</text>
<text text-anchor="start" x="10" y="-291.5" font-family="Helvetica,sans-Serif" font-size="10.00">&#45;</text>
<text text-anchor="start" x="22" y="-291.5" font-family="Helvetica,sans-Serif" font-size="10.00">m_maxRetries</text>
<text text-anchor="start" x="10" y="-276.5" font-family="Helvetica,sans-Serif" font-size="10.00">&#45;</text>
<text text-anchor="start" x="22" y="-276.5" font-family="Helvetica,sans-Serif" font-size="10.00">m_retryCount</text>
<text text-anchor="start" x="10" y="-261.5" font-family="Helvetica,sans-Serif" font-size="10.00">&#45;</text>
<text text-anchor="start" x="22" y="-261.5" font-family="Helvetica,sans-Serif" font-size="10.00">m_headers</text>
<text text-anchor="start" x="10" y="-246.5" font-family="Helvetica,sans-Serif" font-size="10.00">&#45;</text>
<text text-anchor="start" x="22" y="-246.5" font-family="Helvetica,sans-Serif" font-size="10.00">m_isRequesting</text>
<text text-anchor="start" x="10" y="-231.5" font-family="Helvetica,sans-Serif" font-size="10.00">&#45;</text>
<text text-anchor="start" x="22" y="-231.5" font-family="Helvetica,sans-Serif" font-size="10.00">m_expectBinaryData</text>
<text text-anchor="start" x="7.5" y="-216.5" font-family="Helvetica,sans-Serif" font-size="10.00">+</text>
<text text-anchor="start" x="22" y="-216.5" font-family="Helvetica,sans-Serif" font-size="10.00">NetworkUtils()</text>
<text text-anchor="start" x="7.5" y="-201.5" font-family="Helvetica,sans-Serif" font-size="10.00">+</text>
<text text-anchor="start" x="22" y="-201.5" font-family="Helvetica,sans-Serif" font-size="10.00">~NetworkUtils()</text>
<text text-anchor="start" x="7.5" y="-186.5" font-family="Helvetica,sans-Serif" font-size="10.00">+</text>
<text text-anchor="start" x="22" y="-186.5" font-family="Helvetica,sans-Serif" font-size="10.00">sendGetRequest()</text>
<text text-anchor="start" x="7.5" y="-171.5" font-family="Helvetica,sans-Serif" font-size="10.00">+</text>
<text text-anchor="start" x="22" y="-171.5" font-family="Helvetica,sans-Serif" font-size="10.00">cancelRequest()</text>
<text text-anchor="start" x="7.5" y="-156.5" font-family="Helvetica,sans-Serif" font-size="10.00">+</text>
<text text-anchor="start" x="22" y="-156.5" font-family="Helvetica,sans-Serif" font-size="10.00">setHeader()</text>
<text text-anchor="start" x="7.5" y="-141.5" font-family="Helvetica,sans-Serif" font-size="10.00">+</text>
<text text-anchor="start" x="22" y="-141.5" font-family="Helvetica,sans-Serif" font-size="10.00">clearHeaders()</text>
<text text-anchor="start" x="7.5" y="-126.5" font-family="Helvetica,sans-Serif" font-size="10.00">+</text>
<text text-anchor="start" x="22" y="-126.5" font-family="Helvetica,sans-Serif" font-size="10.00">setExpectBinaryData()</text>
<text text-anchor="start" x="10" y="-111.5" font-family="Helvetica,sans-Serif" font-size="10.00">&#45;</text>
<text text-anchor="start" x="22" y="-111.5" font-family="Helvetica,sans-Serif" font-size="10.00">handleResponse()</text>
<text text-anchor="start" x="10" y="-96.5" font-family="Helvetica,sans-Serif" font-size="10.00">&#45;</text>
<text text-anchor="start" x="22" y="-96.5" font-family="Helvetica,sans-Serif" font-size="10.00">handleError()</text>
<text text-anchor="start" x="10" y="-81.5" font-family="Helvetica,sans-Serif" font-size="10.00">&#45;</text>
<text text-anchor="start" x="22" y="-81.5" font-family="Helvetica,sans-Serif" font-size="10.00">handleTimeout()</text>
<text text-anchor="start" x="10" y="-66.5" font-family="Helvetica,sans-Serif" font-size="10.00">&#45;</text>
<text text-anchor="start" x="22" y="-66.5" font-family="Helvetica,sans-Serif" font-size="10.00">executeRequest()</text>
<text text-anchor="start" x="10" y="-51.5" font-family="Helvetica,sans-Serif" font-size="10.00">&#45;</text>
<text text-anchor="start" x="22" y="-51.5" font-family="Helvetica,sans-Serif" font-size="10.00">retryRequest()</text>
<text text-anchor="start" x="10" y="-36.5" font-family="Helvetica,sans-Serif" font-size="10.00">&#45;</text>
<text text-anchor="start" x="22" y="-36.5" font-family="Helvetica,sans-Serif" font-size="10.00">shouldRetry()</text>
<text text-anchor="start" x="10" y="-21.5" font-family="Helvetica,sans-Serif" font-size="10.00">&#45;</text>
<text text-anchor="start" x="22" y="-21.5" font-family="Helvetica,sans-Serif" font-size="10.00">calculateRetryDelay()</text>
<text text-anchor="start" x="10" y="-6.5" font-family="Helvetica,sans-Serif" font-size="10.00">&#45;</text>
<text text-anchor="start" x="22" y="-6.5" font-family="Helvetica,sans-Serif" font-size="10.00">decompressGzip()</text>
<polygon fill="#666666" stroke="#666666" points="2,-376.5 2,-376.5 141,-376.5 141,-376.5 2,-376.5"/>
<polygon fill="#666666" stroke="#666666" points="2,-226.5 2,-226.5 20,-226.5 20,-226.5 2,-226.5"/>
<polygon fill="#666666" stroke="#666666" points="20,-226.5 20,-226.5 141,-226.5 141,-226.5 20,-226.5"/>
<polygon fill="none" stroke="#666666" points="1.5,0 1.5,-405 140.5,-405 140.5,0 1.5,0"/>
</a>
</g>
</g>
<!-- Node1&#45;&gt;Node3 -->
<g id="edge2_Node000001_Node000003" class="edge">
<title>Node1&#45;&gt;Node3</title>
<g id="a_edge2_Node000001_Node000003"><a xlink:title=" ">
<path fill="none" stroke="#63b8ff" d="M71,-430.62C71,-422.28 71,-413.74 71,-405.09"/>
<polygon fill="none" stroke="#63b8ff" points="67.5,-430.68 71,-440.68 74.5,-430.68 67.5,-430.68"/>
</a>
</g>
</g>
<!-- Node2 -->
<g id="Node000002" class="node">
<title>Node2</title>
<g id="a_Node000002"><a xlink:title=" ">
<polygon fill="white" stroke="transparent" points="96,-736 46,-736 46,-687 96,-687 96,-736"/>
<text text-anchor="start" x="51" y="-723.5" font-family="Helvetica,sans-Serif" font-size="10.00">QObject</text>
<text text-anchor="start" x="69" y="-708.5" font-family="Helvetica,sans-Serif" font-size="10.00"> </text>
<text text-anchor="start" x="69" y="-693.5" font-family="Helvetica,sans-Serif" font-size="10.00"> </text>
<polygon fill="#666666" stroke="#666666" points="46,-718.5 46,-718.5 96,-718.5 96,-718.5 46,-718.5"/>
<polygon fill="#666666" stroke="#666666" points="46,-703.5 46,-703.5 96,-703.5 96,-703.5 46,-703.5"/>
<polygon fill="none" stroke="#666666" points="46,-687 46,-736 96,-736 96,-687 46,-687"/>
</a>
</g>
</g>
<!-- Node2&#45;&gt;Node1 -->
<g id="edge1_Node000001_Node000002" class="edge">
<title>Node2&#45;&gt;Node1</title>
<g id="a_edge1_Node000001_Node000002"><a xlink:title=" ">
<path fill="none" stroke="#63b8ff" d="M71,-676.69C71,-668.89 71,-660.18 71,-651.08"/>
<polygon fill="none" stroke="#63b8ff" points="67.5,-676.73 71,-686.73 74.5,-676.73 67.5,-676.73"/>
</a>
</g>
</g>
</g>
</svg>
