<?xml version="1.0" encoding="UTF-8" standalone="no"?>
<!DOCTYPE svg PUBLIC "-//W3C//DTD SVG 1.1//EN"
 "http://www.w3.org/Graphics/SVG/1.1/DTD/svg11.dtd">
<!-- Generated by graphviz version 2.43.0 (0)
 -->
<!-- Title: EasyKiConverter::ThumbnailGenerator Pages: 1 -->
<svg width="183pt" height="169pt"
 viewBox="0.00 0.00 183.00 169.00" xmlns="http://www.w3.org/2000/svg" xmlns:xlink="http://www.w3.org/1999/xlink">
<g id="graph0" class="graph" transform="scale(1 1) rotate(0) translate(4 165)">
<title>EasyKiConverter::ThumbnailGenerator</title>
<!-- Node1 -->
<g id="Node000001" class="node">
<title>Node1</title>
<g id="a_Node000001"><a xlink:title=" ">
<polygon fill="#999999" stroke="transparent" points="175,-161 0,-161 0,0 175,0 175,-161"/>
<text text-anchor="start" x="18.5" y="-148.5" font-family="Helvetica,sans-Serif" font-size="10.00">EasyKiConverter::Thumbnail</text>
<text text-anchor="start" x="63.5" y="-137.5" font-family="Helvetica,sans-Serif" font-size="10.00">Generator</text>
<text text-anchor="start" x="86" y="-122.5" font-family="Helvetica,sans-Serif" font-size="10.00"> </text>
<text text-anchor="start" x="4.5" y="-107.5" font-family="Helvetica,sans-Serif" font-size="10.00">+</text>
<text text-anchor="start" x="17.5" y="-107.5" font-family="Helvetica,sans-Serif" font-size="10.00">generateThumbnail()</text>
<text text-anchor="start" x="4.5" y="-92.5" font-family="Helvetica,sans-Serif" font-size="10.00">+</text>
<text text-anchor="start" x="17.5" y="-92.5" font-family="Helvetica,sans-Serif" font-size="10.00">generateSymbolThumbnail()</text>
<text text-anchor="start" x="4.5" y="-77.5" font-family="Helvetica,sans-Serif" font-size="10.00">+</text>
<text text-anchor="start" x="17.5" y="-77.5" font-family="Helvetica,sans-Serif" font-size="10.00">generateFootprintThumbnail()</text>
<text text-anchor="start" x="7" y="-62.5" font-family="Helvetica,sans-Serif" font-size="10.00">&#45;</text>
<text text-anchor="start" x="17.5" y="-62.5" font-family="Helvetica,sans-Serif" font-size="10.00">drawSymbol()</text>
<text text-anchor="start" x="7" y="-47.5" font-family="Helvetica,sans-Serif" font-size="10.00">&#45;</text>
<text text-anchor="start" x="17.5" y="-47.5" font-family="Helvetica,sans-Serif" font-size="10.00">drawFootprint()</text>
<text text-anchor="start" x="7" y="-32.5" font-family="Helvetica,sans-Serif" font-size="10.00">&#45;</text>
<text text-anchor="start" x="17.5" y="-32.5" font-family="Helvetica,sans-Serif" font-size="10.00">calculateSymbolBoundingBox()</text>
<text text-anchor="start" x="7" y="-17.5" font-family="Helvetica,sans-Serif" font-size="10.00">&#45;</text>
<text text-anchor="start" x="17.5" y="-17.5" font-family="Helvetica,sans-Serif" font-size="10.00">calculateFootprintBounding</text>
<text text-anchor="start" x="17.5" y="-6.5" font-family="Helvetica,sans-Serif" font-size="10.00">Box()</text>
<polygon fill="#666666" stroke="#666666" points="0.5,-132.5 0.5,-132.5 175.5,-132.5 175.5,-132.5 0.5,-132.5"/>
<polygon fill="#666666" stroke="#666666" points="0.5,-117.5 0.5,-117.5 175.5,-117.5 175.5,-117.5 0.5,-117.5"/>
<polygon fill="none" stroke="#666666" points="0,0 0,-161 175,-161 175,0 0,0"/>
</a>
</g>
</g>
</g>
</svg>
