<?xml version="1.0" encoding="UTF-8" standalone="no"?>
<!DOCTYPE svg PUBLIC "-//W3C//DTD SVG 1.1//EN"
 "http://www.w3.org/Graphics/SVG/1.1/DTD/svg11.dtd">
<!-- Generated by graphviz version 2.43.0 (0)
 -->
<!-- Title: EasyKiConverter::ConfigManager Pages: 1 -->
<svg width="179pt" height="367pt"
 viewBox="0.00 0.00 179.00 367.00" xmlns="http://www.w3.org/2000/svg" xmlns:xlink="http://www.w3.org/1999/xlink">
<g id="graph0" class="graph" transform="scale(1 1) rotate(0) translate(4 363)">
<title>EasyKiConverter::ConfigManager</title>
<!-- Node1 -->
<g id="Node000001" class="node">
<title>Node1</title>
<g id="a_Node000001"><a xlink:title="配置管理">
<polygon fill="#999999" stroke="transparent" points="171,-274 0,-274 0,0 171,0 171,-274"/>
<text text-anchor="start" x="5.5" y="-262" font-family="Helvetica,sans-Serif" font-size="10.00">EasyKiConverter::ConfigManager</text>
<text text-anchor="start" x="21" y="-247" font-family="Helvetica,sans-Serif" font-size="10.00">&#45;</text>
<text text-anchor="start" x="45.5" y="-247" font-family="Helvetica,sans-Serif" font-size="10.00">m_settings</text>
<text text-anchor="start" x="21" y="-232" font-family="Helvetica,sans-Serif" font-size="10.00">&#45;</text>
<text text-anchor="start" x="45.5" y="-232" font-family="Helvetica,sans-Serif" font-size="10.00">m_config</text>
<text text-anchor="start" x="18.5" y="-217" font-family="Helvetica,sans-Serif" font-size="10.00">+</text>
<text text-anchor="start" x="45.5" y="-217" font-family="Helvetica,sans-Serif" font-size="10.00">ConfigManager()</text>
<text text-anchor="start" x="18.5" y="-202" font-family="Helvetica,sans-Serif" font-size="10.00">+</text>
<text text-anchor="start" x="45.5" y="-202" font-family="Helvetica,sans-Serif" font-size="10.00">~ConfigManager()</text>
<text text-anchor="start" x="18.5" y="-187" font-family="Helvetica,sans-Serif" font-size="10.00">+</text>
<text text-anchor="start" x="45.5" y="-187" font-family="Helvetica,sans-Serif" font-size="10.00">save()</text>
<text text-anchor="start" x="18.5" y="-172" font-family="Helvetica,sans-Serif" font-size="10.00">+</text>
<text text-anchor="start" x="45.5" y="-172" font-family="Helvetica,sans-Serif" font-size="10.00">load()</text>
<text text-anchor="start" x="18.5" y="-157" font-family="Helvetica,sans-Serif" font-size="10.00">+</text>
<text text-anchor="start" x="45.5" y="-157" font-family="Helvetica,sans-Serif" font-size="10.00">getConfig()</text>
<text text-anchor="start" x="18.5" y="-142" font-family="Helvetica,sans-Serif" font-size="10.00">+</text>
<text text-anchor="start" x="45.5" y="-142" font-family="Helvetica,sans-Serif" font-size="10.00">setConfig()</text>
<text text-anchor="start" x="18.5" y="-127" font-family="Helvetica,sans-Serif" font-size="10.00">+</text>
<text text-anchor="start" x="45.5" y="-127" font-family="Helvetica,sans-Serif" font-size="10.00">getExportPath()</text>
<text text-anchor="start" x="18.5" y="-112" font-family="Helvetica,sans-Serif" font-size="10.00">+</text>
<text text-anchor="start" x="45.5" y="-112" font-family="Helvetica,sans-Serif" font-size="10.00">setExportPath()</text>
<text text-anchor="start" x="18.5" y="-97" font-family="Helvetica,sans-Serif" font-size="10.00">+</text>
<text text-anchor="start" x="45.5" y="-97" font-family="Helvetica,sans-Serif" font-size="10.00">getLibName()</text>
<text text-anchor="start" x="18.5" y="-82" font-family="Helvetica,sans-Serif" font-size="10.00">+</text>
<text text-anchor="start" x="45.5" y="-82" font-family="Helvetica,sans-Serif" font-size="10.00">setLibName()</text>
<text text-anchor="start" x="18.5" y="-67" font-family="Helvetica,sans-Serif" font-size="10.00">+</text>
<text text-anchor="start" x="45.5" y="-67" font-family="Helvetica,sans-Serif" font-size="10.00">getExportOptions()</text>
<text text-anchor="start" x="18.5" y="-52" font-family="Helvetica,sans-Serif" font-size="10.00">+</text>
<text text-anchor="start" x="45.5" y="-52" font-family="Helvetica,sans-Serif" font-size="10.00">setExportOptions()</text>
<text text-anchor="start" x="18.5" y="-37" font-family="Helvetica,sans-Serif" font-size="10.00">+</text>
<text text-anchor="start" x="45.5" y="-37" font-family="Helvetica,sans-Serif" font-size="10.00">resetToDefaults()</text>
<text text-anchor="start" x="18.5" y="-22" font-family="Helvetica,sans-Serif" font-size="10.00">+</text>
<text text-anchor="start" x="45.5" y="-22" font-family="Helvetica,sans-Serif" font-size="10.00">configChanged()</text>
<text text-anchor="start" x="21" y="-7" font-family="Helvetica,sans-Serif" font-size="10.00">&#45;</text>
<text text-anchor="start" x="45.5" y="-7" font-family="Helvetica,sans-Serif" font-size="10.00">initDefaults()</text>
<polygon fill="#666666" stroke="#666666" points="0.5,-257 0.5,-257 171.5,-257 171.5,-257 0.5,-257"/>
<polygon fill="#666666" stroke="#666666" points="0.5,-227 0.5,-227 43.5,-227 43.5,-227 0.5,-227"/>
<polygon fill="#666666" stroke="#666666" points="43.5,-227 43.5,-227 171.5,-227 171.5,-227 43.5,-227"/>
<polygon fill="none" stroke="#666666" points="0,0 0,-274 171,-274 171,0 0,0"/>
</a>
</g>
</g>
<!-- Node2 -->
<g id="Node000002" class="node">
<title>Node2</title>
<g id="a_Node000002"><a xlink:title=" ">
<polygon fill="white" stroke="transparent" points="110.5,-359 60.5,-359 60.5,-310 110.5,-310 110.5,-359"/>
<text text-anchor="start" x="65.5" y="-346.5" font-family="Helvetica,sans-Serif" font-size="10.00">QObject</text>
<text text-anchor="start" x="83.5" y="-331.5" font-family="Helvetica,sans-Serif" font-size="10.00"> </text>
<text text-anchor="start" x="83.5" y="-316.5" font-family="Helvetica,sans-Serif" font-size="10.00"> </text>
<polygon fill="#666666" stroke="#666666" points="60.5,-341.5 60.5,-341.5 110.5,-341.5 110.5,-341.5 60.5,-341.5"/>
<polygon fill="#666666" stroke="#666666" points="60.5,-326.5 60.5,-326.5 110.5,-326.5 110.5,-326.5 60.5,-326.5"/>
<polygon fill="none" stroke="#666666" points="60.5,-310 60.5,-359 110.5,-359 110.5,-310 60.5,-310"/>
</a>
</g>
</g>
<!-- Node2&#45;&gt;Node1 -->
<g id="edge1_Node000001_Node000002" class="edge">
<title>Node2&#45;&gt;Node1</title>
<g id="a_edge1_Node000001_Node000002"><a xlink:title=" ">
<path fill="none" stroke="#63b8ff" d="M85.5,-299.74C85.5,-292.08 85.5,-283.47 85.5,-274.33"/>
<polygon fill="none" stroke="#63b8ff" points="82,-299.92 85.5,-309.92 89,-299.92 82,-299.92"/>
</a>
</g>
</g>
</g>
</svg>
