<?xml version="1.0" encoding="UTF-8" standalone="no"?>
<!DOCTYPE svg PUBLIC "-//W3C//DTD SVG 1.1//EN"
 "http://www.w3.org/Graphics/SVG/1.1/DTD/svg11.dtd">
<!-- Generated by graphviz version 2.43.0 (0)
 -->
<!-- Title: EasyKiConverter::PipelineQueueManager Pages: 1 -->
<svg width="150pt" height="173pt"
 viewBox="0.00 0.00 150.00 173.00" xmlns="http://www.w3.org/2000/svg" xmlns:xlink="http://www.w3.org/1999/xlink">
<g id="graph0" class="graph" transform="scale(1 1) rotate(0) translate(4 169)">
<title>EasyKiConverter::PipelineQueueManager</title>
<!-- Node1 -->
<g id="Node000001" class="node">
<title>Node1</title>
<g id="a_Node000001"><a xlink:title="流水线队列管理器">
<polygon fill="#999999" stroke="transparent" points="142,-165 0,-165 0,0 142,0 142,-165"/>
<text text-anchor="start" x="7.5" y="-152.5" font-family="Helvetica,sans-Serif" font-size="10.00">EasyKiConverter::Pipeline</text>
<text text-anchor="start" x="33.5" y="-141.5" font-family="Helvetica,sans-Serif" font-size="10.00">QueueManager</text>
<text text-anchor="start" x="6.5" y="-126.5" font-family="Helvetica,sans-Serif" font-size="10.00">&#45;</text>
<text text-anchor="start" x="17" y="-126.5" font-family="Helvetica,sans-Serif" font-size="10.00">m_queueSize</text>
<text text-anchor="start" x="6.5" y="-111.5" font-family="Helvetica,sans-Serif" font-size="10.00">&#45;</text>
<text text-anchor="start" x="17" y="-111.5" font-family="Helvetica,sans-Serif" font-size="10.00">m_fetchProcessQueue</text>
<text text-anchor="start" x="6.5" y="-96.5" font-family="Helvetica,sans-Serif" font-size="10.00">&#45;</text>
<text text-anchor="start" x="17" y="-96.5" font-family="Helvetica,sans-Serif" font-size="10.00">m_processWriteQueue</text>
<text text-anchor="start" x="4" y="-81.5" font-family="Helvetica,sans-Serif" font-size="10.00">+</text>
<text text-anchor="start" x="17" y="-81.5" font-family="Helvetica,sans-Serif" font-size="10.00">PipelineQueueManager()</text>
<text text-anchor="start" x="4" y="-66.5" font-family="Helvetica,sans-Serif" font-size="10.00">+</text>
<text text-anchor="start" x="17" y="-66.5" font-family="Helvetica,sans-Serif" font-size="10.00">reset()</text>
<text text-anchor="start" x="4" y="-51.5" font-family="Helvetica,sans-Serif" font-size="10.00">+</text>
<text text-anchor="start" x="17" y="-51.5" font-family="Helvetica,sans-Serif" font-size="10.00">closeAll()</text>
<text text-anchor="start" x="4" y="-36.5" font-family="Helvetica,sans-Serif" font-size="10.00">+</text>
<text text-anchor="start" x="17" y="-36.5" font-family="Helvetica,sans-Serif" font-size="10.00">fetchProcessQueue()</text>
<text text-anchor="start" x="4" y="-21.5" font-family="Helvetica,sans-Serif" font-size="10.00">+</text>
<text text-anchor="start" x="17" y="-21.5" font-family="Helvetica,sans-Serif" font-size="10.00">processWriteQueue()</text>
<text text-anchor="start" x="4" y="-6.5" font-family="Helvetica,sans-Serif" font-size="10.00">+</text>
<text text-anchor="start" x="17" y="-6.5" font-family="Helvetica,sans-Serif" font-size="10.00">safePush()</text>
<polygon fill="#666666" stroke="#666666" points="0,-136.5 0,-136.5 142,-136.5 142,-136.5 0,-136.5"/>
<polygon fill="#666666" stroke="#666666" points="0,-91.5 0,-91.5 15,-91.5 15,-91.5 0,-91.5"/>
<polygon fill="#666666" stroke="#666666" points="15,-91.5 15,-91.5 142,-91.5 142,-91.5 15,-91.5"/>
<polygon fill="none" stroke="#666666" points="0,0 0,-165 142,-165 142,0 0,0"/>
</a>
</g>
</g>
</g>
</svg>
