<?xml version="1.0" encoding="UTF-8" standalone="no"?>
<!DOCTYPE svg PUBLIC "-//W3C//DTD SVG 1.1//EN"
 "http://www.w3.org/Graphics/SVG/1.1/DTD/svg11.dtd">
<!-- Generated by graphviz version 2.43.0 (0)
 -->
<!-- Title: EasyKiConverter::DatasheetExporter Pages: 1 -->
<svg width="163pt" height="243pt"
 viewBox="0.00 0.00 163.00 243.00" xmlns="http://www.w3.org/2000/svg" xmlns:xlink="http://www.w3.org/1999/xlink">
<g id="graph0" class="graph" transform="scale(1 1) rotate(0) translate(4 239)">
<title>EasyKiConverter::DatasheetExporter</title>
<!-- Node1 -->
<g id="Node000001" class="node">
<title>Node1</title>
<g id="a_Node000001"><a xlink:title=" ">
<polygon fill="#999999" stroke="transparent" points="155,-150 0,-150 0,0 155,0 155,-150"/>
<text text-anchor="start" x="9" y="-138" font-family="Helvetica,sans-Serif" font-size="10.00">EasyKiConverter::Datasheet</text>
<text text-anchor="start" x="57" y="-127" font-family="Helvetica,sans-Serif" font-size="10.00">Exporter</text>
<text text-anchor="start" x="7" y="-112" font-family="Helvetica,sans-Serif" font-size="10.00">&#45;</text>
<text text-anchor="start" x="17.5" y="-112" font-family="Helvetica,sans-Serif" font-size="10.00">m_options</text>
<text text-anchor="start" x="4.5" y="-97" font-family="Helvetica,sans-Serif" font-size="10.00">+</text>
<text text-anchor="start" x="17.5" y="-97" font-family="Helvetica,sans-Serif" font-size="10.00">DatasheetExporter()</text>
<text text-anchor="start" x="4.5" y="-82" font-family="Helvetica,sans-Serif" font-size="10.00">+</text>
<text text-anchor="start" x="17.5" y="-82" font-family="Helvetica,sans-Serif" font-size="10.00">~DatasheetExporter()</text>
<text text-anchor="start" x="4.5" y="-67" font-family="Helvetica,sans-Serif" font-size="10.00">+</text>
<text text-anchor="start" x="17.5" y="-67" font-family="Helvetica,sans-Serif" font-size="10.00">setOptions()</text>
<text text-anchor="start" x="4.5" y="-52" font-family="Helvetica,sans-Serif" font-size="10.00">+</text>
<text text-anchor="start" x="17.5" y="-52" font-family="Helvetica,sans-Serif" font-size="10.00">exportDatasheet()</text>
<text text-anchor="start" x="4.5" y="-37" font-family="Helvetica,sans-Serif" font-size="10.00">+</text>
<text text-anchor="start" x="17.5" y="-37" font-family="Helvetica,sans-Serif" font-size="10.00">exportCompleted()</text>
<text text-anchor="start" x="4.5" y="-22" font-family="Helvetica,sans-Serif" font-size="10.00">+</text>
<text text-anchor="start" x="17.5" y="-22" font-family="Helvetica,sans-Serif" font-size="10.00">exportFailed()</text>
<text text-anchor="start" x="7" y="-7" font-family="Helvetica,sans-Serif" font-size="10.00">&#45;</text>
<text text-anchor="start" x="17.5" y="-7" font-family="Helvetica,sans-Serif" font-size="10.00">createDatasheetDirectory()</text>
<polygon fill="#666666" stroke="#666666" points="0.5,-122 0.5,-122 155.5,-122 155.5,-122 0.5,-122"/>
<polygon fill="#666666" stroke="#666666" points="0.5,-107 0.5,-107 15.5,-107 15.5,-107 0.5,-107"/>
<polygon fill="#666666" stroke="#666666" points="15.5,-107 15.5,-107 155.5,-107 155.5,-107 15.5,-107"/>
<polygon fill="none" stroke="#666666" points="0,0 0,-150 155,-150 155,0 0,0"/>
</a>
</g>
</g>
<!-- Node2 -->
<g id="Node000002" class="node">
<title>Node2</title>
<g id="a_Node000002"><a xlink:title=" ">
<polygon fill="white" stroke="transparent" points="102.5,-235 52.5,-235 52.5,-186 102.5,-186 102.5,-235"/>
<text text-anchor="start" x="57.5" y="-222.5" font-family="Helvetica,sans-Serif" font-size="10.00">QObject</text>
<text text-anchor="start" x="75.5" y="-207.5" font-family="Helvetica,sans-Serif" font-size="10.00"> </text>
<text text-anchor="start" x="75.5" y="-192.5" font-family="Helvetica,sans-Serif" font-size="10.00"> </text>
<polygon fill="#666666" stroke="#666666" points="52.5,-217.5 52.5,-217.5 102.5,-217.5 102.5,-217.5 52.5,-217.5"/>
<polygon fill="#666666" stroke="#666666" points="52.5,-202.5 52.5,-202.5 102.5,-202.5 102.5,-202.5 52.5,-202.5"/>
<polygon fill="none" stroke="#666666" points="52.5,-186 52.5,-235 102.5,-235 102.5,-186 52.5,-186"/>
</a>
</g>
</g>
<!-- Node2&#45;&gt;Node1 -->
<g id="edge1_Node000001_Node000002" class="edge">
<title>Node2&#45;&gt;Node1</title>
<g id="a_edge1_Node000001_Node000002"><a xlink:title=" ">
<path fill="none" stroke="#63b8ff" d="M77.5,-175.69C77.5,-167.75 77.5,-158.98 77.5,-150.03"/>
<polygon fill="none" stroke="#63b8ff" points="74,-175.94 77.5,-185.94 81,-175.94 74,-175.94"/>
</a>
</g>
</g>
</g>
</svg>
