<?xml version="1.0" encoding="UTF-8" standalone="no"?>
<!DOCTYPE svg PUBLIC "-//W3C//DTD SVG 1.1//EN"
 "http://www.w3.org/Graphics/SVG/1.1/DTD/svg11.dtd">
<!-- Generated by graphviz version 2.43.0 (0)
 -->
<!-- Title: EasyKiConverter::UpdateCheckerService Pages: 1 -->
<svg width="430pt" height="1574pt"
 viewBox="0.00 0.00 429.50 1574.00" xmlns="http://www.w3.org/2000/svg" xmlns:xlink="http://www.w3.org/1999/xlink">
<g id="graph0" class="graph" transform="scale(1 1) rotate(0) translate(4 1570)">
<title>EasyKiConverter::UpdateCheckerService</title>
<!-- Node1 -->
<g id="Node000001" class="node">
<title>Node1</title>
<g id="a_Node000001"><a xlink:title=" ">
<polygon fill="#999999" stroke="transparent" points="172,-435 0,-435 0,0 172,0 172,-435"/>
<text text-anchor="start" x="5" y="-422.5" font-family="Helvetica,sans-Serif" font-size="10.00">EasyKiConverter::UpdateChecker</text>
<text text-anchor="start" x="67.5" y="-411.5" font-family="Helvetica,sans-Serif" font-size="10.00">Service</text>
<text text-anchor="start" x="12.5" y="-396.5" font-family="Helvetica,sans-Serif" font-size="10.00">&#45;</text>
<text text-anchor="start" x="29" y="-396.5" font-family="Helvetica,sans-Serif" font-size="10.00">m_checking</text>
<text text-anchor="start" x="12.5" y="-381.5" font-family="Helvetica,sans-Serif" font-size="10.00">&#45;</text>
<text text-anchor="start" x="29" y="-381.5" font-family="Helvetica,sans-Serif" font-size="10.00">m_hasUpdate</text>
<text text-anchor="start" x="12.5" y="-366.5" font-family="Helvetica,sans-Serif" font-size="10.00">&#45;</text>
<text text-anchor="start" x="29" y="-366.5" font-family="Helvetica,sans-Serif" font-size="10.00">m_dismissed</text>
<text text-anchor="start" x="12.5" y="-351.5" font-family="Helvetica,sans-Serif" font-size="10.00">&#45;</text>
<text text-anchor="start" x="29" y="-351.5" font-family="Helvetica,sans-Serif" font-size="10.00">m_latestVersion</text>
<text text-anchor="start" x="12.5" y="-336.5" font-family="Helvetica,sans-Serif" font-size="10.00">&#45;</text>
<text text-anchor="start" x="29" y="-336.5" font-family="Helvetica,sans-Serif" font-size="10.00">m_releaseName</text>
<text text-anchor="start" x="12.5" y="-321.5" font-family="Helvetica,sans-Serif" font-size="10.00">&#45;</text>
<text text-anchor="start" x="29" y="-321.5" font-family="Helvetica,sans-Serif" font-size="10.00">m_releaseUrl</text>
<text text-anchor="start" x="12.5" y="-306.5" font-family="Helvetica,sans-Serif" font-size="10.00">&#45;</text>
<text text-anchor="start" x="29" y="-306.5" font-family="Helvetica,sans-Serif" font-size="10.00">m_error</text>
<text text-anchor="start" x="10" y="-291.5" font-family="Helvetica,sans-Serif" font-size="10.00">+</text>
<text text-anchor="start" x="29" y="-291.5" font-family="Helvetica,sans-Serif" font-size="10.00">UpdateCheckerService()</text>
<text text-anchor="start" x="10" y="-276.5" font-family="Helvetica,sans-Serif" font-size="10.00">+</text>
<text text-anchor="start" x="29" y="-276.5" font-family="Helvetica,sans-Serif" font-size="10.00">~UpdateCheckerService()</text>
<text text-anchor="start" x="10" y="-261.5" font-family="Helvetica,sans-Serif" font-size="10.00">+</text>
<text text-anchor="start" x="29" y="-261.5" font-family="Helvetica,sans-Serif" font-size="10.00">checking()</text>
<text text-anchor="start" x="10" y="-246.5" font-family="Helvetica,sans-Serif" font-size="10.00">+</text>
<text text-anchor="start" x="29" y="-246.5" font-family="Helvetica,sans-Serif" font-size="10.00">hasUpdate()</text>
<text text-anchor="start" x="10" y="-231.5" font-family="Helvetica,sans-Serif" font-size="10.00">+</text>
<text text-anchor="start" x="29" y="-231.5" font-family="Helvetica,sans-Serif" font-size="10.00">dismissed()</text>
<text text-anchor="start" x="10" y="-216.5" font-family="Helvetica,sans-Serif" font-size="10.00">+</text>
<text text-anchor="start" x="29" y="-216.5" font-family="Helvetica,sans-Serif" font-size="10.00">currentVersion()</text>
<text text-anchor="start" x="10" y="-201.5" font-family="Helvetica,sans-Serif" font-size="10.00">+</text>
<text text-anchor="start" x="29" y="-201.5" font-family="Helvetica,sans-Serif" font-size="10.00">latestVersion()</text>
<text text-anchor="start" x="10" y="-186.5" font-family="Helvetica,sans-Serif" font-size="10.00">+</text>
<text text-anchor="start" x="29" y="-186.5" font-family="Helvetica,sans-Serif" font-size="10.00">releaseName()</text>
<text text-anchor="start" x="10" y="-171.5" font-family="Helvetica,sans-Serif" font-size="10.00">+</text>
<text text-anchor="start" x="29" y="-171.5" font-family="Helvetica,sans-Serif" font-size="10.00">releaseUrl()</text>
<text text-anchor="start" x="10" y="-156.5" font-family="Helvetica,sans-Serif" font-size="10.00">+</text>
<text text-anchor="start" x="29" y="-156.5" font-family="Helvetica,sans-Serif" font-size="10.00">error()</text>
<text text-anchor="start" x="10" y="-141.5" font-family="Helvetica,sans-Serif" font-size="10.00">+</text>
<text text-anchor="start" x="29" y="-141.5" font-family="Helvetica,sans-Serif" font-size="10.00">checkForUpdates()</text>
<text text-anchor="start" x="10" y="-126.5" font-family="Helvetica,sans-Serif" font-size="10.00">+</text>
<text text-anchor="start" x="29" y="-126.5" font-family="Helvetica,sans-Serif" font-size="10.00">dismissUpdate()</text>
<text text-anchor="start" x="10" y="-111.5" font-family="Helvetica,sans-Serif" font-size="10.00">+</text>
<text text-anchor="start" x="29" y="-111.5" font-family="Helvetica,sans-Serif" font-size="10.00">resetDismissed()</text>
<text text-anchor="start" x="10" y="-96.5" font-family="Helvetica,sans-Serif" font-size="10.00">+</text>
<text text-anchor="start" x="29" y="-96.5" font-family="Helvetica,sans-Serif" font-size="10.00">checkingChanged()</text>
<text text-anchor="start" x="10" y="-81.5" font-family="Helvetica,sans-Serif" font-size="10.00">+</text>
<text text-anchor="start" x="29" y="-81.5" font-family="Helvetica,sans-Serif" font-size="10.00">updateStateChanged()</text>
<text text-anchor="start" x="12.5" y="-66.5" font-family="Helvetica,sans-Serif" font-size="10.00">&#45;</text>
<text text-anchor="start" x="29" y="-66.5" font-family="Helvetica,sans-Serif" font-size="10.00">setChecking()</text>
<text text-anchor="start" x="12.5" y="-51.5" font-family="Helvetica,sans-Serif" font-size="10.00">&#45;</text>
<text text-anchor="start" x="29" y="-51.5" font-family="Helvetica,sans-Serif" font-size="10.00">applyUpdateInfo()</text>
<text text-anchor="start" x="12.5" y="-36.5" font-family="Helvetica,sans-Serif" font-size="10.00">&#45;</text>
<text text-anchor="start" x="29" y="-36.5" font-family="Helvetica,sans-Serif" font-size="10.00">setError()</text>
<text text-anchor="start" x="12.5" y="-21.5" font-family="Helvetica,sans-Serif" font-size="10.00">&#45;</text>
<text text-anchor="start" x="29" y="-21.5" font-family="Helvetica,sans-Serif" font-size="10.00">normalizeVersion()</text>
<text text-anchor="start" x="12.5" y="-6.5" font-family="Helvetica,sans-Serif" font-size="10.00">&#45;</text>
<text text-anchor="start" x="29" y="-6.5" font-family="Helvetica,sans-Serif" font-size="10.00">isRemoteVersionNewer()</text>
<polygon fill="#666666" stroke="#666666" points="0,-406.5 0,-406.5 172,-406.5 172,-406.5 0,-406.5"/>
<polygon fill="#666666" stroke="#666666" points="0,-301.5 0,-301.5 27,-301.5 27,-301.5 0,-301.5"/>
<polygon fill="#666666" stroke="#666666" points="27,-301.5 27,-301.5 172,-301.5 172,-301.5 27,-301.5"/>
<polygon fill="none" stroke="#666666" points="0,0 0,-435 172,-435 172,0 0,0"/>
</a>
</g>
</g>
<!-- Node2 -->
<g id="Node000002" class="node">
<title>Node2</title>
<g id="a_Node000002"><a xlink:title=" ">
<polygon fill="white" stroke="transparent" points="93,-1258.5 43,-1258.5 43,-1209.5 93,-1209.5 93,-1258.5"/>
<text text-anchor="start" x="48" y="-1246" font-family="Helvetica,sans-Serif" font-size="10.00">QObject</text>
<text text-anchor="start" x="66" y="-1231" font-family="Helvetica,sans-Serif" font-size="10.00"> </text>
<text text-anchor="start" x="66" y="-1216" font-family="Helvetica,sans-Serif" font-size="10.00"> </text>
<polygon fill="#666666" stroke="#666666" points="43,-1241 43,-1241 93,-1241 93,-1241 43,-1241"/>
<polygon fill="#666666" stroke="#666666" points="43,-1226 43,-1226 93,-1226 93,-1226 43,-1226"/>
<polygon fill="none" stroke="#666666" points="43,-1209.5 43,-1258.5 93,-1258.5 93,-1209.5 43,-1209.5"/>
</a>
</g>
</g>
<!-- Node2&#45;&gt;Node1 -->
<g id="edge1_Node000001_Node000002" class="edge">
<title>Node2&#45;&gt;Node1</title>
<g id="a_edge1_Node000001_Node000002"><a xlink:title=" ">
<path fill="none" stroke="#63b8ff" d="M68.6,-1199.28C70.68,-1082.21 77.69,-686.79 82.15,-435.21"/>
<polygon fill="none" stroke="#63b8ff" points="65.1,-1199.36 68.42,-1209.42 72.1,-1199.48 65.1,-1199.36"/>
</a>
</g>
</g>
<!-- Node3 -->
<g id="Node000003" class="node">
<title>Node3</title>
<g id="a_Node000003"><a xlink:href="classEasyKiConverter_1_1AsyncNetworkRequest.html" target="_top" xlink:title="异步网络请求，支持取消">
<polygon fill="white" stroke="transparent" points="270.5,-1112 101.5,-1112 101.5,-482 270.5,-482 270.5,-1112"/>
<text text-anchor="start" x="107.5" y="-1100" font-family="Helvetica,sans-Serif" font-size="10.00">EasyKiConverter::AsyncNetwork</text>
<text text-anchor="start" x="166.5" y="-1089" font-family="Helvetica,sans-Serif" font-size="10.00">Request</text>
<text text-anchor="start" x="108.5" y="-1074" font-family="Helvetica,sans-Serif" font-size="10.00">&#45;</text>
<text text-anchor="start" x="119" y="-1074" font-family="Helvetica,sans-Serif" font-size="10.00">m_url</text>
<text text-anchor="start" x="108.5" y="-1059" font-family="Helvetica,sans-Serif" font-size="10.00">&#45;</text>
<text text-anchor="start" x="119" y="-1059" font-family="Helvetica,sans-Serif" font-size="10.00">m_networkManager</text>
<text text-anchor="start" x="108.5" y="-1044" font-family="Helvetica,sans-Serif" font-size="10.00">&#45;</text>
<text text-anchor="start" x="119" y="-1044" font-family="Helvetica,sans-Serif" font-size="10.00">m_resourceType</text>
<text text-anchor="start" x="108.5" y="-1029" font-family="Helvetica,sans-Serif" font-size="10.00">&#45;</text>
<text text-anchor="start" x="119" y="-1029" font-family="Helvetica,sans-Serif" font-size="10.00">m_postBody</text>
<text text-anchor="start" x="108.5" y="-1014" font-family="Helvetica,sans-Serif" font-size="10.00">&#45;</text>
<text text-anchor="start" x="119" y="-1014" font-family="Helvetica,sans-Serif" font-size="10.00">m_isPostRequest</text>
<text text-anchor="start" x="108.5" y="-999" font-family="Helvetica,sans-Serif" font-size="10.00">&#45;</text>
<text text-anchor="start" x="119" y="-999" font-family="Helvetica,sans-Serif" font-size="10.00">m_cancelled</text>
<text text-anchor="start" x="108.5" y="-984" font-family="Helvetica,sans-Serif" font-size="10.00">&#45;</text>
<text text-anchor="start" x="119" y="-984" font-family="Helvetica,sans-Serif" font-size="10.00">m_finished</text>
<text text-anchor="start" x="108.5" y="-969" font-family="Helvetica,sans-Serif" font-size="10.00">&#45;</text>
<text text-anchor="start" x="119" y="-969" font-family="Helvetica,sans-Serif" font-size="10.00">m_resultMutex</text>
<text text-anchor="start" x="108.5" y="-954" font-family="Helvetica,sans-Serif" font-size="10.00">&#45;</text>
<text text-anchor="start" x="119" y="-954" font-family="Helvetica,sans-Serif" font-size="10.00">m_currentReply</text>
<text text-anchor="start" x="108.5" y="-939" font-family="Helvetica,sans-Serif" font-size="10.00">&#45;</text>
<text text-anchor="start" x="119" y="-939" font-family="Helvetica,sans-Serif" font-size="10.00">m_timeoutTimer</text>
<text text-anchor="start" x="119" y="-924" font-family="Helvetica,sans-Serif" font-size="10.00">和 6 更多...</text>
<text text-anchor="start" x="108.5" y="-909" font-family="Helvetica,sans-Serif" font-size="10.00">&#45;</text>
<text text-anchor="start" x="119" y="-909" font-family="Helvetica,sans-Serif" font-size="10.00">s_emptyReplies</text>
<text text-anchor="start" x="106" y="-894" font-family="Helvetica,sans-Serif" font-size="10.00">+</text>
<text text-anchor="start" x="119" y="-894" font-family="Helvetica,sans-Serif" font-size="10.00">completeWithResultDelayed()</text>
<text text-anchor="start" x="106" y="-879" font-family="Helvetica,sans-Serif" font-size="10.00">+</text>
<text text-anchor="start" x="119" y="-879" font-family="Helvetica,sans-Serif" font-size="10.00">~AsyncNetworkRequest()</text>
<text text-anchor="start" x="106" y="-864" font-family="Helvetica,sans-Serif" font-size="10.00">+</text>
<text text-anchor="start" x="119" y="-864" font-family="Helvetica,sans-Serif" font-size="10.00">cancel()</text>
<text text-anchor="start" x="106" y="-849" font-family="Helvetica,sans-Serif" font-size="10.00">+</text>
<text text-anchor="start" x="119" y="-849" font-family="Helvetica,sans-Serif" font-size="10.00">isCancelled()</text>
<text text-anchor="start" x="106" y="-834" font-family="Helvetica,sans-Serif" font-size="10.00">+</text>
<text text-anchor="start" x="119" y="-834" font-family="Helvetica,sans-Serif" font-size="10.00">isFinished()</text>
<text text-anchor="start" x="106" y="-819" font-family="Helvetica,sans-Serif" font-size="10.00">+</text>
<text text-anchor="start" x="119" y="-819" font-family="Helvetica,sans-Serif" font-size="10.00">result()</text>
<text text-anchor="start" x="106" y="-804" font-family="Helvetica,sans-Serif" font-size="10.00">+</text>
<text text-anchor="start" x="119" y="-804" font-family="Helvetica,sans-Serif" font-size="10.00">setTimeoutMs()</text>
<text text-anchor="start" x="106" y="-789" font-family="Helvetica,sans-Serif" font-size="10.00">+</text>
<text text-anchor="start" x="119" y="-789" font-family="Helvetica,sans-Serif" font-size="10.00">currentRetryCount()</text>
<text text-anchor="start" x="106" y="-774" font-family="Helvetica,sans-Serif" font-size="10.00">+</text>
<text text-anchor="start" x="119" y="-774" font-family="Helvetica,sans-Serif" font-size="10.00">finished()</text>
<text text-anchor="start" x="106" y="-759" font-family="Helvetica,sans-Serif" font-size="10.00">+</text>
<text text-anchor="start" x="119" y="-759" font-family="Helvetica,sans-Serif" font-size="10.00">downloadProgress()</text>
<text text-anchor="start" x="106" y="-744" font-family="Helvetica,sans-Serif" font-size="10.00">+</text>
<text text-anchor="start" x="119" y="-744" font-family="Helvetica,sans-Serif" font-size="10.00">timeout()</text>
<text text-anchor="start" x="106" y="-729" font-family="Helvetica,sans-Serif" font-size="10.00">+</text>
<text text-anchor="start" x="119" y="-729" font-family="Helvetica,sans-Serif" font-size="10.00">retrying()</text>
<text text-anchor="start" x="106" y="-714" font-family="Helvetica,sans-Serif" font-size="10.00">+</text>
<text text-anchor="start" x="119" y="-714" font-family="Helvetica,sans-Serif" font-size="10.00">createFinished()</text>
<text text-anchor="start" x="108.5" y="-699" font-family="Helvetica,sans-Serif" font-size="10.00">&#45;</text>
<text text-anchor="start" x="119" y="-699" font-family="Helvetica,sans-Serif" font-size="10.00">AsyncNetworkRequest()</text>
<text text-anchor="start" x="108.5" y="-684" font-family="Helvetica,sans-Serif" font-size="10.00">&#45;</text>
<text text-anchor="start" x="119" y="-684" font-family="Helvetica,sans-Serif" font-size="10.00">start()</text>
<text text-anchor="start" x="108.5" y="-669" font-family="Helvetica,sans-Serif" font-size="10.00">&#45;</text>
<text text-anchor="start" x="119" y="-669" font-family="Helvetica,sans-Serif" font-size="10.00">startAttempt()</text>
<text text-anchor="start" x="108.5" y="-654" font-family="Helvetica,sans-Serif" font-size="10.00">&#45;</text>
<text text-anchor="start" x="119" y="-654" font-family="Helvetica,sans-Serif" font-size="10.00">handleAttemptFinished()</text>
<text text-anchor="start" x="108.5" y="-639" font-family="Helvetica,sans-Serif" font-size="10.00">&#45;</text>
<text text-anchor="start" x="119" y="-639" font-family="Helvetica,sans-Serif" font-size="10.00">handleTimeout()</text>
<text text-anchor="start" x="108.5" y="-624" font-family="Helvetica,sans-Serif" font-size="10.00">&#45;</text>
<text text-anchor="start" x="119" y="-624" font-family="Helvetica,sans-Serif" font-size="10.00">handleDownloadProgress()</text>
<text text-anchor="start" x="108.5" y="-609" font-family="Helvetica,sans-Serif" font-size="10.00">&#45;</text>
<text text-anchor="start" x="119" y="-609" font-family="Helvetica,sans-Serif" font-size="10.00">processResponse()</text>
<text text-anchor="start" x="108.5" y="-594" font-family="Helvetica,sans-Serif" font-size="10.00">&#45;</text>
<text text-anchor="start" x="119" y="-594" font-family="Helvetica,sans-Serif" font-size="10.00">scheduleRetry()</text>
<text text-anchor="start" x="108.5" y="-579" font-family="Helvetica,sans-Serif" font-size="10.00">&#45;</text>
<text text-anchor="start" x="119" y="-579" font-family="Helvetica,sans-Serif" font-size="10.00">calculateRetryDelay()</text>
<text text-anchor="start" x="108.5" y="-564" font-family="Helvetica,sans-Serif" font-size="10.00">&#45;</text>
<text text-anchor="start" x="119" y="-564" font-family="Helvetica,sans-Serif" font-size="10.00">shouldRetryInternal()</text>
<text text-anchor="start" x="108.5" y="-549" font-family="Helvetica,sans-Serif" font-size="10.00">&#45;</text>
<text text-anchor="start" x="119" y="-549" font-family="Helvetica,sans-Serif" font-size="10.00">cleanupAttempt()</text>
<text text-anchor="start" x="108.5" y="-534" font-family="Helvetica,sans-Serif" font-size="10.00">&#45;</text>
<text text-anchor="start" x="119" y="-534" font-family="Helvetica,sans-Serif" font-size="10.00">completeWithResult()</text>
<text text-anchor="start" x="108.5" y="-519" font-family="Helvetica,sans-Serif" font-size="10.00">&#45;</text>
<text text-anchor="start" x="119" y="-519" font-family="Helvetica,sans-Serif" font-size="10.00">cancelledResult()</text>
<text text-anchor="start" x="108.5" y="-504" font-family="Helvetica,sans-Serif" font-size="10.00">&#45;</text>
<text text-anchor="start" x="119" y="-504" font-family="Helvetica,sans-Serif" font-size="10.00">timeoutResult()</text>
<text text-anchor="start" x="108.5" y="-489" font-family="Helvetica,sans-Serif" font-size="10.00">&#45;</text>
<text text-anchor="start" x="119" y="-489" font-family="Helvetica,sans-Serif" font-size="10.00">hasActiveReply()</text>
<polygon fill="#666666" stroke="#666666" points="102,-1084 102,-1084 271,-1084 271,-1084 102,-1084"/>
<polygon fill="#666666" stroke="#666666" points="102,-904 102,-904 117,-904 117,-904 102,-904"/>
<polygon fill="#666666" stroke="#666666" points="117,-904 117,-904 271,-904 271,-904 117,-904"/>
<polygon fill="none" stroke="#666666" points="101.5,-482 101.5,-1112 270.5,-1112 270.5,-482 101.5,-482"/>
</a>
</g>
</g>
<!-- Node2&#45;&gt;Node3 -->
<g id="edge3_Node000003_Node000002" class="edge">
<title>Node2&#45;&gt;Node3</title>
<g id="a_edge3_Node000003_Node000002"><a xlink:title=" ">
<path fill="none" stroke="#63b8ff" d="M77.1,-1199.47C83.13,-1177.23 91.71,-1145.61 101.44,-1109.74"/>
<polygon fill="none" stroke="#63b8ff" points="73.67,-1198.74 74.43,-1209.3 80.42,-1200.57 73.67,-1198.74"/>
</a>
</g>
</g>
<!-- Node3&#45;&gt;Node1 -->
<g id="edge2_Node000001_Node000003" class="edge">
<title>Node3&#45;&gt;Node1</title>
<g id="a_edge2_Node000001_Node000003"><a xlink:title=" ">
<path fill="none" stroke="#63b8ff" d="M131.61,-481.9C129.59,-470.22 127.57,-458.59 125.58,-447.1"/>
<polygon fill="none" stroke="#63b8ff" points="125.57,-447 120.6,-441.77 123.52,-435.17 128.48,-440.4 125.57,-447"/>
</a>
</g>
<text text-anchor="middle" x="174" y="-456" font-family="Helvetica,sans-Serif" font-size="10.00" fill="grey"> &#45;m_activeRequest</text>
</g>
<!-- Node4 -->
<g id="Node000004" class="node">
<title>Node4</title>
<g id="a_Node000004"><a xlink:href="structEasyKiConverter_1_1RetryPolicy.html" target="_top" xlink:title="网络请求重试策略">
<polygon fill="white" stroke="transparent" points="264.5,-1288.5 111.5,-1288.5 111.5,-1179.5 264.5,-1179.5 264.5,-1288.5"/>
<text text-anchor="start" x="117" y="-1276" font-family="Helvetica,sans-Serif" font-size="10.00">EasyKiConverter::RetryPolicy</text>
<text text-anchor="start" x="122.5" y="-1261" font-family="Helvetica,sans-Serif" font-size="10.00">+</text>
<text text-anchor="start" x="142" y="-1261" font-family="Helvetica,sans-Serif" font-size="10.00">maxRetries</text>
<text text-anchor="start" x="122.5" y="-1246" font-family="Helvetica,sans-Serif" font-size="10.00">+</text>
<text text-anchor="start" x="142" y="-1246" font-family="Helvetica,sans-Serif" font-size="10.00">baseTimeoutMs</text>
<text text-anchor="start" x="122.5" y="-1231" font-family="Helvetica,sans-Serif" font-size="10.00">+</text>
<text text-anchor="start" x="142" y="-1231" font-family="Helvetica,sans-Serif" font-size="10.00">jitterFactor</text>
<text text-anchor="start" x="122.5" y="-1216" font-family="Helvetica,sans-Serif" font-size="10.00">+</text>
<text text-anchor="start" x="142" y="-1216" font-family="Helvetica,sans-Serif" font-size="10.00">delays</text>
<text text-anchor="start" x="122.5" y="-1201" font-family="Helvetica,sans-Serif" font-size="10.00">+</text>
<text text-anchor="start" x="142" y="-1201" font-family="Helvetica,sans-Serif" font-size="10.00">retryableStatusCodes</text>
<text text-anchor="start" x="122.5" y="-1186" font-family="Helvetica,sans-Serif" font-size="10.00">+</text>
<text text-anchor="start" x="142" y="-1186" font-family="Helvetica,sans-Serif" font-size="10.00">fromProfile()</text>
<polygon fill="#666666" stroke="#666666" points="112,-1271 112,-1271 265,-1271 265,-1271 112,-1271"/>
<polygon fill="#666666" stroke="#666666" points="112,-1196 112,-1196 140,-1196 140,-1196 112,-1196"/>
<polygon fill="#666666" stroke="#666666" points="140,-1196 140,-1196 265,-1196 265,-1196 140,-1196"/>
<polygon fill="none" stroke="#666666" points="111.5,-1179.5 111.5,-1288.5 264.5,-1288.5 264.5,-1179.5 111.5,-1179.5"/>
</a>
</g>
</g>
<!-- Node4&#45;&gt;Node3 -->
<g id="edge4_Node000003_Node000004" class="edge">
<title>Node4&#45;&gt;Node3</title>
<g id="a_edge4_Node000003_Node000004"><a xlink:title=" ">
<path fill="none" stroke="#63b8ff" d="M187.75,-1179.22C187.68,-1163.36 187.59,-1144.73 187.5,-1124.39"/>
<polygon fill="none" stroke="#63b8ff" points="187.5,-1124.23 183.47,-1118.25 187.44,-1112.23 191.47,-1118.21 187.5,-1124.23"/>
</a>
</g>
<text text-anchor="middle" x="214" y="-1133" font-family="Helvetica,sans-Serif" font-size="10.00" fill="grey"> &#45;m_policy</text>
</g>
<!-- Node5 -->
<g id="Node000005" class="node">
<title>Node5</title>
<g id="a_Node000005"><a xlink:href="structEasyKiConverter_1_1NetworkResult.html" target="_top" xlink:title="网络请求结果">
<polygon fill="white" stroke="transparent" points="421.5,-1309 282.5,-1309 282.5,-1159 421.5,-1159 421.5,-1309"/>
<text text-anchor="start" x="288" y="-1297" font-family="Helvetica,sans-Serif" font-size="10.00">EasyKiConverter::Network</text>
<text text-anchor="start" x="337" y="-1286" font-family="Helvetica,sans-Serif" font-size="10.00">Result</text>
<text text-anchor="start" x="299.5" y="-1271" font-family="Helvetica,sans-Serif" font-size="10.00">+</text>
<text text-anchor="start" x="325" y="-1271" font-family="Helvetica,sans-Serif" font-size="10.00">data</text>
<text text-anchor="start" x="299.5" y="-1256" font-family="Helvetica,sans-Serif" font-size="10.00">+</text>
<text text-anchor="start" x="325" y="-1256" font-family="Helvetica,sans-Serif" font-size="10.00">statusCode</text>
<text text-anchor="start" x="299.5" y="-1241" font-family="Helvetica,sans-Serif" font-size="10.00">+</text>
<text text-anchor="start" x="325" y="-1241" font-family="Helvetica,sans-Serif" font-size="10.00">error</text>
<text text-anchor="start" x="299.5" y="-1226" font-family="Helvetica,sans-Serif" font-size="10.00">+</text>
<text text-anchor="start" x="325" y="-1226" font-family="Helvetica,sans-Serif" font-size="10.00">retryCount</text>
<text text-anchor="start" x="299.5" y="-1211" font-family="Helvetica,sans-Serif" font-size="10.00">+</text>
<text text-anchor="start" x="325" y="-1211" font-family="Helvetica,sans-Serif" font-size="10.00">elapsedMs</text>
<text text-anchor="start" x="299.5" y="-1196" font-family="Helvetica,sans-Serif" font-size="10.00">+</text>
<text text-anchor="start" x="325" y="-1196" font-family="Helvetica,sans-Serif" font-size="10.00">success</text>
<text text-anchor="start" x="299.5" y="-1181" font-family="Helvetica,sans-Serif" font-size="10.00">+</text>
<text text-anchor="start" x="325" y="-1181" font-family="Helvetica,sans-Serif" font-size="10.00">wasCancelled</text>
<text text-anchor="start" x="350.5" y="-1166" font-family="Helvetica,sans-Serif" font-size="10.00"> </text>
<polygon fill="#666666" stroke="#666666" points="283,-1281 283,-1281 422,-1281 422,-1281 283,-1281"/>
<polygon fill="#666666" stroke="#666666" points="283,-1176 283,-1176 323,-1176 323,-1176 283,-1176"/>
<polygon fill="#666666" stroke="#666666" points="323,-1176 323,-1176 422,-1176 422,-1176 323,-1176"/>
<polygon fill="none" stroke="#666666" points="282.5,-1159 282.5,-1309 421.5,-1309 421.5,-1159 282.5,-1159"/>
</a>
</g>
</g>
<!-- Node5&#45;&gt;Node3 -->
<g id="edge5_Node000003_Node000005" class="edge">
<title>Node5&#45;&gt;Node3</title>
<g id="a_edge5_Node000003_Node000005"><a xlink:title=" ">
<path fill="none" stroke="#63b8ff" d="M323.65,-1158.72C309.92,-1122.74 292.6,-1077.34 274.92,-1031.01"/>
<polygon fill="none" stroke="#63b8ff" points="274.82,-1030.74 268.94,-1026.56 270.54,-1019.53 276.41,-1023.71 274.82,-1030.74"/>
</a>
</g>
<text text-anchor="middle" x="341" y="-1133" font-family="Helvetica,sans-Serif" font-size="10.00" fill="grey"> &#45;m_result</text>
</g>
<!-- Node6 -->
<g id="Node000006" class="node">
<title>Node6</title>
<g id="a_Node000006"><a xlink:href="structEasyKiConverter_1_1NetworkDiagnostic.html" target="_top" xlink:title="网络请求的统一诊断信息">
<polygon fill="white" stroke="transparent" points="421.5,-1566 282.5,-1566 282.5,-1356 421.5,-1356 421.5,-1566"/>
<text text-anchor="start" x="288" y="-1554" font-family="Helvetica,sans-Serif" font-size="10.00">EasyKiConverter::Network</text>
<text text-anchor="start" x="326.5" y="-1543" font-family="Helvetica,sans-Serif" font-size="10.00">Diagnostic</text>
<text text-anchor="start" x="293" y="-1528" font-family="Helvetica,sans-Serif" font-size="10.00">+</text>
<text text-anchor="start" x="312" y="-1528" font-family="Helvetica,sans-Serif" font-size="10.00">url</text>
<text text-anchor="start" x="293" y="-1513" font-family="Helvetica,sans-Serif" font-size="10.00">+</text>
<text text-anchor="start" x="312" y="-1513" font-family="Helvetica,sans-Serif" font-size="10.00">host</text>
<text text-anchor="start" x="293" y="-1498" font-family="Helvetica,sans-Serif" font-size="10.00">+</text>
<text text-anchor="start" x="312" y="-1498" font-family="Helvetica,sans-Serif" font-size="10.00">resourceType</text>
<text text-anchor="start" x="293" y="-1483" font-family="Helvetica,sans-Serif" font-size="10.00">+</text>
<text text-anchor="start" x="312" y="-1483" font-family="Helvetica,sans-Serif" font-size="10.00">profileName</text>
<text text-anchor="start" x="293" y="-1468" font-family="Helvetica,sans-Serif" font-size="10.00">+</text>
<text text-anchor="start" x="312" y="-1468" font-family="Helvetica,sans-Serif" font-size="10.00">statusCode</text>
<text text-anchor="start" x="293" y="-1453" font-family="Helvetica,sans-Serif" font-size="10.00">+</text>
<text text-anchor="start" x="312" y="-1453" font-family="Helvetica,sans-Serif" font-size="10.00">errorType</text>
<text text-anchor="start" x="293" y="-1438" font-family="Helvetica,sans-Serif" font-size="10.00">+</text>
<text text-anchor="start" x="312" y="-1438" font-family="Helvetica,sans-Serif" font-size="10.00">errorMessage</text>
<text text-anchor="start" x="293" y="-1423" font-family="Helvetica,sans-Serif" font-size="10.00">+</text>
<text text-anchor="start" x="312" y="-1423" font-family="Helvetica,sans-Serif" font-size="10.00">retryCount</text>
<text text-anchor="start" x="293" y="-1408" font-family="Helvetica,sans-Serif" font-size="10.00">+</text>
<text text-anchor="start" x="312" y="-1408" font-family="Helvetica,sans-Serif" font-size="10.00">latencyMs</text>
<text text-anchor="start" x="293" y="-1393" font-family="Helvetica,sans-Serif" font-size="10.00">+</text>
<text text-anchor="start" x="312" y="-1393" font-family="Helvetica,sans-Serif" font-size="10.00">totalElapsedMs</text>
<text text-anchor="start" x="312" y="-1378" font-family="Helvetica,sans-Serif" font-size="10.00">和 10 更多...</text>
<text text-anchor="start" x="293" y="-1363" font-family="Helvetica,sans-Serif" font-size="10.00">+</text>
<text text-anchor="start" x="312" y="-1363" font-family="Helvetica,sans-Serif" font-size="10.00">errorTypeToString()</text>
<polygon fill="#666666" stroke="#666666" points="283,-1538 283,-1538 422,-1538 422,-1538 283,-1538"/>
<polygon fill="#666666" stroke="#666666" points="283,-1373 283,-1373 310,-1373 310,-1373 283,-1373"/>
<polygon fill="#666666" stroke="#666666" points="310,-1373 310,-1373 422,-1373 422,-1373 310,-1373"/>
<polygon fill="none" stroke="#666666" points="282.5,-1356 282.5,-1566 421.5,-1566 421.5,-1356 282.5,-1356"/>
</a>
</g>
</g>
<!-- Node6&#45;&gt;Node5 -->
<g id="edge6_Node000005_Node000006" class="edge">
<title>Node6&#45;&gt;Node5</title>
<g id="a_edge6_Node000005_Node000006"><a xlink:title=" ">
<path fill="none" stroke="#63b8ff" d="M352,-1355.73C352,-1344.17 352,-1332.49 352,-1321.18"/>
<polygon fill="none" stroke="#63b8ff" points="352,-1321.08 348,-1315.08 352,-1309.08 356,-1315.08 352,-1321.08"/>
</a>
</g>
<text text-anchor="middle" x="383" y="-1330" font-family="Helvetica,sans-Serif" font-size="10.00" fill="grey"> +diagnostic</text>
</g>
</g>
</svg>
