<?xml version="1.0" encoding="UTF-8" standalone="no"?>
<!DOCTYPE svg PUBLIC "-//W3C//DTD SVG 1.1//EN"
 "http://www.w3.org/Graphics/SVG/1.1/DTD/svg11.dtd">
<!-- Generated by graphviz version 2.43.0 (0)
 -->
<!-- Title: EasyKiConverter::ComponentCacheService Pages: 1 -->
<svg width="170pt" height="663pt"
 viewBox="0.00 0.00 170.00 663.00" xmlns="http://www.w3.org/2000/svg" xmlns:xlink="http://www.w3.org/1999/xlink">
<g id="graph0" class="graph" transform="scale(1 1) rotate(0) translate(4 659)">
<title>EasyKiConverter::ComponentCacheService</title>
<!-- Node1 -->
<g id="Node000001" class="node">
<title>Node1</title>
<g id="a_Node000001"><a xlink:title="元器件缓存服务类（两层缓存架构）">
<polygon fill="#999999" stroke="transparent" points="162,-570 0,-570 0,0 162,0 162,-570"/>
<text text-anchor="start" x="9" y="-558" font-family="Helvetica,sans-Serif" font-size="10.00">EasyKiConverter::Component</text>
<text text-anchor="start" x="47.5" y="-547" font-family="Helvetica,sans-Serif" font-size="10.00">CacheService</text>
<text text-anchor="start" x="6.5" y="-532" font-family="Helvetica,sans-Serif" font-size="10.00">&#45;</text>
<text text-anchor="start" x="17" y="-532" font-family="Helvetica,sans-Serif" font-size="10.00">m_mutex</text>
<text text-anchor="start" x="6.5" y="-517" font-family="Helvetica,sans-Serif" font-size="10.00">&#45;</text>
<text text-anchor="start" x="17" y="-517" font-family="Helvetica,sans-Serif" font-size="10.00">m_diskWriteMutex</text>
<text text-anchor="start" x="6.5" y="-502" font-family="Helvetica,sans-Serif" font-size="10.00">&#45;</text>
<text text-anchor="start" x="17" y="-502" font-family="Helvetica,sans-Serif" font-size="10.00">m_cacheDir</text>
<text text-anchor="start" x="6.5" y="-487" font-family="Helvetica,sans-Serif" font-size="10.00">&#45;</text>
<text text-anchor="start" x="17" y="-487" font-family="Helvetica,sans-Serif" font-size="10.00">m_memoryCacheLimitMB</text>
<text text-anchor="start" x="6.5" y="-472" font-family="Helvetica,sans-Serif" font-size="10.00">&#45;</text>
<text text-anchor="start" x="17" y="-472" font-family="Helvetica,sans-Serif" font-size="10.00">m_diskCacheLimitMB</text>
<text text-anchor="start" x="6.5" y="-457" font-family="Helvetica,sans-Serif" font-size="10.00">&#45;</text>
<text text-anchor="start" x="17" y="-457" font-family="Helvetica,sans-Serif" font-size="10.00">m_lastEnforceTimer</text>
<text text-anchor="start" x="6.5" y="-442" font-family="Helvetica,sans-Serif" font-size="10.00">&#45;</text>
<text text-anchor="start" x="17" y="-442" font-family="Helvetica,sans-Serif" font-size="10.00">m_memoryCache</text>
<text text-anchor="start" x="6.5" y="-427" font-family="Helvetica,sans-Serif" font-size="10.00">&#45;</text>
<text text-anchor="start" x="17" y="-427" font-family="Helvetica,sans-Serif" font-size="10.00">m_memoryCacheSize</text>
<text text-anchor="start" x="6.5" y="-412" font-family="Helvetica,sans-Serif" font-size="10.00">&#45;</text>
<text text-anchor="start" x="17" y="-412" font-family="Helvetica,sans-Serif" font-size="10.00">m_cacheGeneration</text>
<text text-anchor="start" x="6.5" y="-397" font-family="Helvetica,sans-Serif" font-size="10.00">&#45;</text>
<text text-anchor="start" x="17" y="-397" font-family="Helvetica,sans-Serif" font-size="10.00">m_tombstoneMutex</text>
<text text-anchor="start" x="6.5" y="-382" font-family="Helvetica,sans-Serif" font-size="10.00">&#45;</text>
<text text-anchor="start" x="17" y="-382" font-family="Helvetica,sans-Serif" font-size="10.00">m_tombstones</text>
<text text-anchor="start" x="6.5" y="-367" font-family="Helvetica,sans-Serif" font-size="10.00">&#45;</text>
<text text-anchor="start" x="17" y="-367" font-family="Helvetica,sans-Serif" font-size="10.00">m_allTombstoned</text>
<text text-anchor="start" x="6.5" y="-352" font-family="Helvetica,sans-Serif" font-size="10.00">&#45;</text>
<text text-anchor="start" x="17" y="-352" font-family="Helvetica,sans-Serif" font-size="10.00">s_instance</text>
<text text-anchor="start" x="4" y="-337" font-family="Helvetica,sans-Serif" font-size="10.00">+</text>
<text text-anchor="start" x="17" y="-337" font-family="Helvetica,sans-Serif" font-size="10.00">~ComponentCacheService()</text>
<text text-anchor="start" x="4" y="-322" font-family="Helvetica,sans-Serif" font-size="10.00">+</text>
<text text-anchor="start" x="17" y="-322" font-family="Helvetica,sans-Serif" font-size="10.00">setCacheDir()</text>
<text text-anchor="start" x="4" y="-307" font-family="Helvetica,sans-Serif" font-size="10.00">+</text>
<text text-anchor="start" x="17" y="-307" font-family="Helvetica,sans-Serif" font-size="10.00">cacheDir()</text>
<text text-anchor="start" x="4" y="-292" font-family="Helvetica,sans-Serif" font-size="10.00">+</text>
<text text-anchor="start" x="17" y="-292" font-family="Helvetica,sans-Serif" font-size="10.00">componentCacheDir()</text>
<text text-anchor="start" x="4" y="-277" font-family="Helvetica,sans-Serif" font-size="10.00">+</text>
<text text-anchor="start" x="17" y="-277" font-family="Helvetica,sans-Serif" font-size="10.00">previewImagePath()</text>
<text text-anchor="start" x="4" y="-262" font-family="Helvetica,sans-Serif" font-size="10.00">+</text>
<text text-anchor="start" x="17" y="-262" font-family="Helvetica,sans-Serif" font-size="10.00">downloadPreviewImage()</text>
<text text-anchor="start" x="4" y="-247" font-family="Helvetica,sans-Serif" font-size="10.00">+</text>
<text text-anchor="start" x="17" y="-247" font-family="Helvetica,sans-Serif" font-size="10.00">hasCache()</text>
<text text-anchor="start" x="4" y="-232" font-family="Helvetica,sans-Serif" font-size="10.00">+</text>
<text text-anchor="start" x="17" y="-232" font-family="Helvetica,sans-Serif" font-size="10.00">isCacheValid()</text>
<text text-anchor="start" x="4" y="-217" font-family="Helvetica,sans-Serif" font-size="10.00">+</text>
<text text-anchor="start" x="17" y="-217" font-family="Helvetica,sans-Serif" font-size="10.00">hasInMemoryCache()</text>
<text text-anchor="start" x="4" y="-202" font-family="Helvetica,sans-Serif" font-size="10.00">+</text>
<text text-anchor="start" x="17" y="-202" font-family="Helvetica,sans-Serif" font-size="10.00">loadMetadataFromMemory()</text>
<text text-anchor="start" x="17" y="-187" font-family="Helvetica,sans-Serif" font-size="10.00">和 46 更多...</text>
<text text-anchor="start" x="4" y="-172" font-family="Helvetica,sans-Serif" font-size="10.00">+</text>
<text text-anchor="start" x="17" y="-172" font-family="Helvetica,sans-Serif" font-size="10.00">instance()</text>
<text text-anchor="start" x="6.5" y="-157" font-family="Helvetica,sans-Serif" font-size="10.00">&#45;</text>
<text text-anchor="start" x="17" y="-157" font-family="Helvetica,sans-Serif" font-size="10.00">ComponentCacheService()</text>
<text text-anchor="start" x="6.5" y="-142" font-family="Helvetica,sans-Serif" font-size="10.00">&#45;</text>
<text text-anchor="start" x="17" y="-142" font-family="Helvetica,sans-Serif" font-size="10.00">ensureComponentDir()</text>
<text text-anchor="start" x="6.5" y="-127" font-family="Helvetica,sans-Serif" font-size="10.00">&#45;</text>
<text text-anchor="start" x="17" y="-127" font-family="Helvetica,sans-Serif" font-size="10.00">ensureModel3DCacheDir()</text>
<text text-anchor="start" x="6.5" y="-112" font-family="Helvetica,sans-Serif" font-size="10.00">&#45;</text>
<text text-anchor="start" x="17" y="-112" font-family="Helvetica,sans-Serif" font-size="10.00">calculateDirSize()</text>
<text text-anchor="start" x="6.5" y="-97" font-family="Helvetica,sans-Serif" font-size="10.00">&#45;</text>
<text text-anchor="start" x="17" y="-97" font-family="Helvetica,sans-Serif" font-size="10.00">getCacheAccessTime()</text>
<text text-anchor="start" x="6.5" y="-82" font-family="Helvetica,sans-Serif" font-size="10.00">&#45;</text>
<text text-anchor="start" x="17" y="-82" font-family="Helvetica,sans-Serif" font-size="10.00">metadataPath()</text>
<text text-anchor="start" x="6.5" y="-67" font-family="Helvetica,sans-Serif" font-size="10.00">&#45;</text>
<text text-anchor="start" x="17" y="-67" font-family="Helvetica,sans-Serif" font-size="10.00">datasheetPath()</text>
<text text-anchor="start" x="6.5" y="-52" font-family="Helvetica,sans-Serif" font-size="10.00">&#45;</text>
<text text-anchor="start" x="17" y="-52" font-family="Helvetica,sans-Serif" font-size="10.00">saveMetadata()</text>
<text text-anchor="start" x="6.5" y="-37" font-family="Helvetica,sans-Serif" font-size="10.00">&#45;</text>
<text text-anchor="start" x="17" y="-37" font-family="Helvetica,sans-Serif" font-size="10.00">buildMetadata()</text>
<text text-anchor="start" x="6.5" y="-22" font-family="Helvetica,sans-Serif" font-size="10.00">&#45;</text>
<text text-anchor="start" x="17" y="-22" font-family="Helvetica,sans-Serif" font-size="10.00">mergeMetadata()</text>
<text text-anchor="start" x="17" y="-7" font-family="Helvetica,sans-Serif" font-size="10.00">和 8 更多...</text>
<polygon fill="#666666" stroke="#666666" points="0,-542 0,-542 162,-542 162,-542 0,-542"/>
<polygon fill="#666666" stroke="#666666" points="0,-347 0,-347 15,-347 15,-347 0,-347"/>
<polygon fill="#666666" stroke="#666666" points="15,-347 15,-347 162,-347 162,-347 15,-347"/>
<polygon fill="none" stroke="#666666" points="0,0 0,-570 162,-570 162,0 0,0"/>
</a>
</g>
</g>
<!-- Node2 -->
<g id="Node000002" class="node">
<title>Node2</title>
<g id="a_Node000002"><a xlink:title=" ">
<polygon fill="white" stroke="transparent" points="106,-655 56,-655 56,-606 106,-606 106,-655"/>
<text text-anchor="start" x="61" y="-642.5" font-family="Helvetica,sans-Serif" font-size="10.00">QObject</text>
<text text-anchor="start" x="79" y="-627.5" font-family="Helvetica,sans-Serif" font-size="10.00"> </text>
<text text-anchor="start" x="79" y="-612.5" font-family="Helvetica,sans-Serif" font-size="10.00"> </text>
<polygon fill="#666666" stroke="#666666" points="56,-637.5 56,-637.5 106,-637.5 106,-637.5 56,-637.5"/>
<polygon fill="#666666" stroke="#666666" points="56,-622.5 56,-622.5 106,-622.5 106,-622.5 56,-622.5"/>
<polygon fill="none" stroke="#666666" points="56,-606 56,-655 106,-655 106,-606 56,-606"/>
</a>
</g>
</g>
<!-- Node2&#45;&gt;Node1 -->
<g id="edge1_Node000001_Node000002" class="edge">
<title>Node2&#45;&gt;Node1</title>
<g id="a_edge1_Node000001_Node000002"><a xlink:title=" ">
<path fill="none" stroke="#63b8ff" d="M81,-595.89C81,-588.3 81,-579.65 81,-570.19"/>
<polygon fill="none" stroke="#63b8ff" points="77.5,-595.89 81,-605.89 84.5,-595.89 77.5,-595.89"/>
</a>
</g>
</g>
</g>
</svg>
