<?xml version="1.0" encoding="UTF-8" standalone="no"?>
<!DOCTYPE svg PUBLIC "-//W3C//DTD SVG 1.1//EN"
 "http://www.w3.org/Graphics/SVG/1.1/DTD/svg11.dtd">
<!-- Generated by graphviz version 2.43.0 (0)
 -->
<!-- Title: EasyKiConverter::PathSecurity Pages: 1 -->
<svg width="166pt" height="117pt"
 viewBox="0.00 0.00 166.00 117.00" xmlns="http://www.w3.org/2000/svg" xmlns:xlink="http://www.w3.org/1999/xlink">
<g id="graph0" class="graph" transform="scale(1 1) rotate(0) translate(4 113)">
<title>EasyKiConverter::PathSecurity</title>
<!-- Node1 -->
<g id="Node000001" class="node">
<title>Node1</title>
<g id="a_Node000001"><a xlink:title=" ">
<polygon fill="#999999" stroke="transparent" points="158,-109 0,-109 0,0 158,0 158,-109"/>
<text text-anchor="start" x="5" y="-96.5" font-family="Helvetica,sans-Serif" font-size="10.00">EasyKiConverter::PathSecurity</text>
<text text-anchor="start" x="77" y="-81.5" font-family="Helvetica,sans-Serif" font-size="10.00"> </text>
<text text-anchor="start" x="6.5" y="-66.5" font-family="Helvetica,sans-Serif" font-size="10.00">+</text>
<text text-anchor="start" x="22" y="-66.5" font-family="Helvetica,sans-Serif" font-size="10.00">isValidPathComponent()</text>
<text text-anchor="start" x="6.5" y="-51.5" font-family="Helvetica,sans-Serif" font-size="10.00">+</text>
<text text-anchor="start" x="22" y="-51.5" font-family="Helvetica,sans-Serif" font-size="10.00">isSafePath()</text>
<text text-anchor="start" x="6.5" y="-36.5" font-family="Helvetica,sans-Serif" font-size="10.00">+</text>
<text text-anchor="start" x="22" y="-36.5" font-family="Helvetica,sans-Serif" font-size="10.00">safeRemoveRecursively()</text>
<text text-anchor="start" x="6.5" y="-21.5" font-family="Helvetica,sans-Serif" font-size="10.00">+</text>
<text text-anchor="start" x="22" y="-21.5" font-family="Helvetica,sans-Serif" font-size="10.00">sanitizeFilename()</text>
<text text-anchor="start" x="9" y="-6.5" font-family="Helvetica,sans-Serif" font-size="10.00">&#45;</text>
<text text-anchor="start" x="22" y="-6.5" font-family="Helvetica,sans-Serif" font-size="10.00">countFilesRecursively()</text>
<polygon fill="#666666" stroke="#666666" points="0,-91.5 0,-91.5 158,-91.5 158,-91.5 0,-91.5"/>
<polygon fill="#666666" stroke="#666666" points="0,-76.5 0,-76.5 158,-76.5 158,-76.5 0,-76.5"/>
<polygon fill="none" stroke="#666666" points="0,0 0,-109 158,-109 158,0 0,0"/>
</a>
</g>
</g>
</g>
</svg>
