<?xml version="1.0" encoding="UTF-8" standalone="no"?>
<!DOCTYPE svg PUBLIC "-//W3C//DTD SVG 1.1//EN"
 "http://www.w3.org/Graphics/SVG/1.1/DTD/svg11.dtd">
<!-- Generated by graphviz version 2.43.0 (0)
 -->
<!-- Title: EasyKiConverter::ComponentService Pages: 1 -->
<svg width="722pt" height="1711pt"
 viewBox="0.00 0.00 721.54 1711.00" xmlns="http://www.w3.org/2000/svg" xmlns:xlink="http://www.w3.org/1999/xlink">
<g id="graph0" class="graph" transform="scale(1 1) rotate(0) translate(4 1707)">
<title>EasyKiConverter::ComponentService</title>
<!-- Node1 -->
<g id="Node000001" class="node">
<title>Node1</title>
<g id="a_Node000001"><a xlink:title="元件服务类">
<polygon fill="#999999" stroke="transparent" points="420.54,-570 237.54,-570 237.54,0 420.54,0 420.54,-570"/>
<text text-anchor="start" x="257.54" y="-558" font-family="Helvetica,sans-Serif" font-size="10.00">EasyKiConverter::Component</text>
<text text-anchor="start" x="311.04" y="-547" font-family="Helvetica,sans-Serif" font-size="10.00">Service</text>
<text text-anchor="start" x="244.54" y="-532" font-family="Helvetica,sans-Serif" font-size="10.00">&#45;</text>
<text text-anchor="start" x="255.04" y="-532" font-family="Helvetica,sans-Serif" font-size="10.00">m_networkManager</text>
<text text-anchor="start" x="244.54" y="-517" font-family="Helvetica,sans-Serif" font-size="10.00">&#45;</text>
<text text-anchor="start" x="255.04" y="-517" font-family="Helvetica,sans-Serif" font-size="10.00">m_componentCache</text>
<text text-anchor="start" x="244.54" y="-502" font-family="Helvetica,sans-Serif" font-size="10.00">&#45;</text>
<text text-anchor="start" x="255.04" y="-502" font-family="Helvetica,sans-Serif" font-size="10.00">m_fetchingComponents</text>
<text text-anchor="start" x="244.54" y="-487" font-family="Helvetica,sans-Serif" font-size="10.00">&#45;</text>
<text text-anchor="start" x="255.04" y="-487" font-family="Helvetica,sans-Serif" font-size="10.00">m_currentComponentId</text>
<text text-anchor="start" x="244.54" y="-472" font-family="Helvetica,sans-Serif" font-size="10.00">&#45;</text>
<text text-anchor="start" x="255.04" y="-472" font-family="Helvetica,sans-Serif" font-size="10.00">m_pendingModelUuid</text>
<text text-anchor="start" x="244.54" y="-457" font-family="Helvetica,sans-Serif" font-size="10.00">&#45;</text>
<text text-anchor="start" x="255.04" y="-457" font-family="Helvetica,sans-Serif" font-size="10.00">m_hasDownloadedWrl</text>
<text text-anchor="start" x="244.54" y="-442" font-family="Helvetica,sans-Serif" font-size="10.00">&#45;</text>
<text text-anchor="start" x="255.04" y="-442" font-family="Helvetica,sans-Serif" font-size="10.00">m_parallelCollectedData</text>
<text text-anchor="start" x="244.54" y="-427" font-family="Helvetica,sans-Serif" font-size="10.00">&#45;</text>
<text text-anchor="start" x="255.04" y="-427" font-family="Helvetica,sans-Serif" font-size="10.00">m_parallelFetchingStatus</text>
<text text-anchor="start" x="244.54" y="-412" font-family="Helvetica,sans-Serif" font-size="10.00">&#45;</text>
<text text-anchor="start" x="255.04" y="-412" font-family="Helvetica,sans-Serif" font-size="10.00">m_parallelPendingComponents</text>
<text text-anchor="start" x="244.54" y="-397" font-family="Helvetica,sans-Serif" font-size="10.00">&#45;</text>
<text text-anchor="start" x="255.04" y="-397" font-family="Helvetica,sans-Serif" font-size="10.00">m_parallelTotalCount</text>
<text text-anchor="start" x="244.54" y="-382" font-family="Helvetica,sans-Serif" font-size="10.00">&#45;</text>
<text text-anchor="start" x="255.04" y="-382" font-family="Helvetica,sans-Serif" font-size="10.00">m_parallelCompletedCount</text>
<text text-anchor="start" x="244.54" y="-367" font-family="Helvetica,sans-Serif" font-size="10.00">&#45;</text>
<text text-anchor="start" x="255.04" y="-367" font-family="Helvetica,sans-Serif" font-size="10.00">m_parallelFetching</text>
<text text-anchor="start" x="244.54" y="-352" font-family="Helvetica,sans-Serif" font-size="10.00">&#45;</text>
<text text-anchor="start" x="255.04" y="-352" font-family="Helvetica,sans-Serif" font-size="10.00">m_outputPath</text>
<text text-anchor="start" x="242.04" y="-337" font-family="Helvetica,sans-Serif" font-size="10.00">+</text>
<text text-anchor="start" x="255.04" y="-337" font-family="Helvetica,sans-Serif" font-size="10.00">ComponentService()</text>
<text text-anchor="start" x="242.04" y="-322" font-family="Helvetica,sans-Serif" font-size="10.00">+</text>
<text text-anchor="start" x="255.04" y="-322" font-family="Helvetica,sans-Serif" font-size="10.00">ComponentService()</text>
<text text-anchor="start" x="242.04" y="-307" font-family="Helvetica,sans-Serif" font-size="10.00">+</text>
<text text-anchor="start" x="255.04" y="-307" font-family="Helvetica,sans-Serif" font-size="10.00">~ComponentService()</text>
<text text-anchor="start" x="242.04" y="-292" font-family="Helvetica,sans-Serif" font-size="10.00">+</text>
<text text-anchor="start" x="255.04" y="-292" font-family="Helvetica,sans-Serif" font-size="10.00">fetchComponentData()</text>
<text text-anchor="start" x="242.04" y="-277" font-family="Helvetica,sans-Serif" font-size="10.00">+</text>
<text text-anchor="start" x="255.04" y="-277" font-family="Helvetica,sans-Serif" font-size="10.00">fetchLcscPreviewImage()</text>
<text text-anchor="start" x="242.04" y="-262" font-family="Helvetica,sans-Serif" font-size="10.00">+</text>
<text text-anchor="start" x="255.04" y="-262" font-family="Helvetica,sans-Serif" font-size="10.00">fetchMultipleComponentsData()</text>
<text text-anchor="start" x="242.04" y="-247" font-family="Helvetica,sans-Serif" font-size="10.00">+</text>
<text text-anchor="start" x="255.04" y="-247" font-family="Helvetica,sans-Serif" font-size="10.00">validateComponentId()</text>
<text text-anchor="start" x="242.04" y="-232" font-family="Helvetica,sans-Serif" font-size="10.00">+</text>
<text text-anchor="start" x="255.04" y="-232" font-family="Helvetica,sans-Serif" font-size="10.00">extractComponentIdFromText()</text>
<text text-anchor="start" x="242.04" y="-217" font-family="Helvetica,sans-Serif" font-size="10.00">+</text>
<text text-anchor="start" x="255.04" y="-217" font-family="Helvetica,sans-Serif" font-size="10.00">parseBomFile()</text>
<text text-anchor="start" x="242.04" y="-202" font-family="Helvetica,sans-Serif" font-size="10.00">+</text>
<text text-anchor="start" x="255.04" y="-202" font-family="Helvetica,sans-Serif" font-size="10.00">getComponentData()</text>
<text text-anchor="start" x="255.04" y="-187" font-family="Helvetica,sans-Serif" font-size="10.00">和 9 更多...</text>
<text text-anchor="start" x="244.54" y="-172" font-family="Helvetica,sans-Serif" font-size="10.00">&#45;</text>
<text text-anchor="start" x="255.04" y="-172" font-family="Helvetica,sans-Serif" font-size="10.00">handleComponentInfoFetched()</text>
<text text-anchor="start" x="244.54" y="-157" font-family="Helvetica,sans-Serif" font-size="10.00">&#45;</text>
<text text-anchor="start" x="255.04" y="-157" font-family="Helvetica,sans-Serif" font-size="10.00">handleCadDataFetched()</text>
<text text-anchor="start" x="244.54" y="-142" font-family="Helvetica,sans-Serif" font-size="10.00">&#45;</text>
<text text-anchor="start" x="255.04" y="-142" font-family="Helvetica,sans-Serif" font-size="10.00">handleModel3DFetched()</text>
<text text-anchor="start" x="244.54" y="-127" font-family="Helvetica,sans-Serif" font-size="10.00">&#45;</text>
<text text-anchor="start" x="255.04" y="-127" font-family="Helvetica,sans-Serif" font-size="10.00">handleFetchError()</text>
<text text-anchor="start" x="244.54" y="-112" font-family="Helvetica,sans-Serif" font-size="10.00">&#45;</text>
<text text-anchor="start" x="255.04" y="-112" font-family="Helvetica,sans-Serif" font-size="10.00">handleImageReady()</text>
<text text-anchor="start" x="244.54" y="-97" font-family="Helvetica,sans-Serif" font-size="10.00">&#45;</text>
<text text-anchor="start" x="255.04" y="-97" font-family="Helvetica,sans-Serif" font-size="10.00">handleFetchErrorWithId()</text>
<text text-anchor="start" x="244.54" y="-82" font-family="Helvetica,sans-Serif" font-size="10.00">&#45;</text>
<text text-anchor="start" x="255.04" y="-82" font-family="Helvetica,sans-Serif" font-size="10.00">initializeApiConnections()</text>
<text text-anchor="start" x="244.54" y="-67" font-family="Helvetica,sans-Serif" font-size="10.00">&#45;</text>
<text text-anchor="start" x="255.04" y="-67" font-family="Helvetica,sans-Serif" font-size="10.00">completeComponentData()</text>
<text text-anchor="start" x="244.54" y="-52" font-family="Helvetica,sans-Serif" font-size="10.00">&#45;</text>
<text text-anchor="start" x="255.04" y="-52" font-family="Helvetica,sans-Serif" font-size="10.00">handleFetchErrorForComponent()</text>
<text text-anchor="start" x="244.54" y="-37" font-family="Helvetica,sans-Serif" font-size="10.00">&#45;</text>
<text text-anchor="start" x="255.04" y="-37" font-family="Helvetica,sans-Serif" font-size="10.00">handleParallelDataCollected()</text>
<text text-anchor="start" x="244.54" y="-22" font-family="Helvetica,sans-Serif" font-size="10.00">&#45;</text>
<text text-anchor="start" x="255.04" y="-22" font-family="Helvetica,sans-Serif" font-size="10.00">handleParallelFetchError()</text>
<text text-anchor="start" x="244.54" y="-7" font-family="Helvetica,sans-Serif" font-size="10.00">&#45;</text>
<text text-anchor="start" x="255.04" y="-7" font-family="Helvetica,sans-Serif" font-size="10.00">fetchComponentDataInternal()</text>
<polygon fill="#666666" stroke="#666666" points="238.04,-542 238.04,-542 421.04,-542 421.04,-542 238.04,-542"/>
<polygon fill="#666666" stroke="#666666" points="238.04,-347 238.04,-347 253.04,-347 253.04,-347 238.04,-347"/>
<polygon fill="#666666" stroke="#666666" points="253.04,-347 253.04,-347 421.04,-347 421.04,-347 253.04,-347"/>
<polygon fill="none" stroke="#666666" points="237.54,0 237.54,-570 420.54,-570 420.54,0 237.54,0"/>
</a>
</g>
</g>
<!-- Node2 -->
<g id="Node000002" class="node">
<title>Node2</title>
<g id="a_Node000002"><a xlink:title=" ">
<polygon fill="white" stroke="transparent" points="255.04,-1703 205.04,-1703 205.04,-1654 255.04,-1654 255.04,-1703"/>
<text text-anchor="start" x="210.04" y="-1690.5" font-family="Helvetica,sans-Serif" font-size="10.00">QObject</text>
<text text-anchor="start" x="228.04" y="-1675.5" font-family="Helvetica,sans-Serif" font-size="10.00"> </text>
<text text-anchor="start" x="228.04" y="-1660.5" font-family="Helvetica,sans-Serif" font-size="10.00"> </text>
<polygon fill="#666666" stroke="#666666" points="205.04,-1685.5 205.04,-1685.5 255.04,-1685.5 255.04,-1685.5 205.04,-1685.5"/>
<polygon fill="#666666" stroke="#666666" points="205.04,-1670.5 205.04,-1670.5 255.04,-1670.5 255.04,-1670.5 205.04,-1670.5"/>
<polygon fill="none" stroke="#666666" points="205.04,-1654 205.04,-1703 255.04,-1703 255.04,-1654 205.04,-1654"/>
</a>
</g>
</g>
<!-- Node2&#45;&gt;Node1 -->
<g id="edge1_Node000001_Node000002" class="edge">
<title>Node2&#45;&gt;Node1</title>
<g id="a_edge1_Node000001_Node000002"><a xlink:title=" ">
<path fill="none" stroke="#63b8ff" d="M195.59,-1665.07C174.92,-1655.5 150.64,-1639.98 140.04,-1617 -46.41,-1213.16 -32.52,-1041.59 100.04,-617 127.21,-529.95 186.19,-445.64 237.48,-383.89"/>
<polygon fill="none" stroke="#63b8ff" points="194.21,-1668.28 204.77,-1669.05 196.99,-1661.86 194.21,-1668.28"/>
</a>
</g>
</g>
<!-- Node3 -->
<g id="Node000003" class="node">
<title>Node3</title>
<g id="a_Node000003"><a xlink:href="classEasyKiConverter_1_1EasyedaApi.html" target="_top" xlink:title="EasyEDA API 客户端类">
<polygon fill="white" stroke="transparent" points="293.04,-1116 109.04,-1116 109.04,-617 293.04,-617 293.04,-1116"/>
<text text-anchor="start" x="128.54" y="-1103.5" font-family="Helvetica,sans-Serif" font-size="10.00">EasyKiConverter::EasyedaApi</text>
<text text-anchor="start" x="115.54" y="-1088.5" font-family="Helvetica,sans-Serif" font-size="10.00">&#45;</text>
<text text-anchor="start" x="126.04" y="-1088.5" font-family="Helvetica,sans-Serif" font-size="10.00">m_currentLcscId</text>
<text text-anchor="start" x="115.54" y="-1073.5" font-family="Helvetica,sans-Serif" font-size="10.00">&#45;</text>
<text text-anchor="start" x="126.04" y="-1073.5" font-family="Helvetica,sans-Serif" font-size="10.00">m_currentUuid</text>
<text text-anchor="start" x="115.54" y="-1058.5" font-family="Helvetica,sans-Serif" font-size="10.00">&#45;</text>
<text text-anchor="start" x="126.04" y="-1058.5" font-family="Helvetica,sans-Serif" font-size="10.00">m_isFetching</text>
<text text-anchor="start" x="115.54" y="-1043.5" font-family="Helvetica,sans-Serif" font-size="10.00">&#45;</text>
<text text-anchor="start" x="126.04" y="-1043.5" font-family="Helvetica,sans-Serif" font-size="10.00">m_requestType</text>
<text text-anchor="start" x="115.54" y="-1028.5" font-family="Helvetica,sans-Serif" font-size="10.00">&#45;</text>
<text text-anchor="start" x="126.04" y="-1028.5" font-family="Helvetica,sans-Serif" font-size="10.00">m_activeRequests</text>
<text text-anchor="start" x="115.54" y="-1013.5" font-family="Helvetica,sans-Serif" font-size="10.00">&#45;</text>
<text text-anchor="start" x="126.04" y="-1013.5" font-family="Helvetica,sans-Serif" font-size="10.00">m_requestsMutex</text>
<text text-anchor="start" x="113.04" y="-998.5" font-family="Helvetica,sans-Serif" font-size="10.00">+</text>
<text text-anchor="start" x="126.04" y="-998.5" font-family="Helvetica,sans-Serif" font-size="10.00">EasyedaApi()</text>
<text text-anchor="start" x="113.04" y="-983.5" font-family="Helvetica,sans-Serif" font-size="10.00">+</text>
<text text-anchor="start" x="126.04" y="-983.5" font-family="Helvetica,sans-Serif" font-size="10.00">EasyedaApi()</text>
<text text-anchor="start" x="113.04" y="-968.5" font-family="Helvetica,sans-Serif" font-size="10.00">+</text>
<text text-anchor="start" x="126.04" y="-968.5" font-family="Helvetica,sans-Serif" font-size="10.00">~EasyedaApi()</text>
<text text-anchor="start" x="113.04" y="-953.5" font-family="Helvetica,sans-Serif" font-size="10.00">+</text>
<text text-anchor="start" x="126.04" y="-953.5" font-family="Helvetica,sans-Serif" font-size="10.00">fetchComponentInfo()</text>
<text text-anchor="start" x="113.04" y="-938.5" font-family="Helvetica,sans-Serif" font-size="10.00">+</text>
<text text-anchor="start" x="126.04" y="-938.5" font-family="Helvetica,sans-Serif" font-size="10.00">fetchCadData()</text>
<text text-anchor="start" x="113.04" y="-923.5" font-family="Helvetica,sans-Serif" font-size="10.00">+</text>
<text text-anchor="start" x="126.04" y="-923.5" font-family="Helvetica,sans-Serif" font-size="10.00">fetch3DModelObj()</text>
<text text-anchor="start" x="113.04" y="-908.5" font-family="Helvetica,sans-Serif" font-size="10.00">+</text>
<text text-anchor="start" x="126.04" y="-908.5" font-family="Helvetica,sans-Serif" font-size="10.00">fetch3DModelStep()</text>
<text text-anchor="start" x="113.04" y="-893.5" font-family="Helvetica,sans-Serif" font-size="10.00">+</text>
<text text-anchor="start" x="126.04" y="-893.5" font-family="Helvetica,sans-Serif" font-size="10.00">cancelRequest()</text>
<text text-anchor="start" x="113.04" y="-878.5" font-family="Helvetica,sans-Serif" font-size="10.00">+</text>
<text text-anchor="start" x="126.04" y="-878.5" font-family="Helvetica,sans-Serif" font-size="10.00">componentInfoFetched()</text>
<text text-anchor="start" x="113.04" y="-863.5" font-family="Helvetica,sans-Serif" font-size="10.00">+</text>
<text text-anchor="start" x="126.04" y="-863.5" font-family="Helvetica,sans-Serif" font-size="10.00">cadDataFetched()</text>
<text text-anchor="start" x="113.04" y="-848.5" font-family="Helvetica,sans-Serif" font-size="10.00">+</text>
<text text-anchor="start" x="126.04" y="-848.5" font-family="Helvetica,sans-Serif" font-size="10.00">model3DFetched()</text>
<text text-anchor="start" x="113.04" y="-833.5" font-family="Helvetica,sans-Serif" font-size="10.00">+</text>
<text text-anchor="start" x="126.04" y="-833.5" font-family="Helvetica,sans-Serif" font-size="10.00">fetchError()</text>
<text text-anchor="start" x="113.04" y="-818.5" font-family="Helvetica,sans-Serif" font-size="10.00">+</text>
<text text-anchor="start" x="126.04" y="-818.5" font-family="Helvetica,sans-Serif" font-size="10.00">fetchError()</text>
<text text-anchor="start" x="115.54" y="-803.5" font-family="Helvetica,sans-Serif" font-size="10.00">&#45;</text>
<text text-anchor="start" x="126.04" y="-803.5" font-family="Helvetica,sans-Serif" font-size="10.00">handleComponentInfoResponse()</text>
<text text-anchor="start" x="115.54" y="-788.5" font-family="Helvetica,sans-Serif" font-size="10.00">&#45;</text>
<text text-anchor="start" x="126.04" y="-788.5" font-family="Helvetica,sans-Serif" font-size="10.00">handleCadDataResponse()</text>
<text text-anchor="start" x="115.54" y="-773.5" font-family="Helvetica,sans-Serif" font-size="10.00">&#45;</text>
<text text-anchor="start" x="126.04" y="-773.5" font-family="Helvetica,sans-Serif" font-size="10.00">handleModel3DResponse()</text>
<text text-anchor="start" x="115.54" y="-758.5" font-family="Helvetica,sans-Serif" font-size="10.00">&#45;</text>
<text text-anchor="start" x="126.04" y="-758.5" font-family="Helvetica,sans-Serif" font-size="10.00">handleNetworkError()</text>
<text text-anchor="start" x="115.54" y="-743.5" font-family="Helvetica,sans-Serif" font-size="10.00">&#45;</text>
<text text-anchor="start" x="126.04" y="-743.5" font-family="Helvetica,sans-Serif" font-size="10.00">handleRequestSuccess()</text>
<text text-anchor="start" x="115.54" y="-728.5" font-family="Helvetica,sans-Serif" font-size="10.00">&#45;</text>
<text text-anchor="start" x="126.04" y="-728.5" font-family="Helvetica,sans-Serif" font-size="10.00">handleRequestError()</text>
<text text-anchor="start" x="115.54" y="-713.5" font-family="Helvetica,sans-Serif" font-size="10.00">&#45;</text>
<text text-anchor="start" x="126.04" y="-713.5" font-family="Helvetica,sans-Serif" font-size="10.00">handleBinaryDataFetched()</text>
<text text-anchor="start" x="115.54" y="-698.5" font-family="Helvetica,sans-Serif" font-size="10.00">&#45;</text>
<text text-anchor="start" x="126.04" y="-698.5" font-family="Helvetica,sans-Serif" font-size="10.00">handleRequestSuccess()</text>
<text text-anchor="start" x="115.54" y="-683.5" font-family="Helvetica,sans-Serif" font-size="10.00">&#45;</text>
<text text-anchor="start" x="126.04" y="-683.5" font-family="Helvetica,sans-Serif" font-size="10.00">resetRequestState()</text>
<text text-anchor="start" x="115.54" y="-668.5" font-family="Helvetica,sans-Serif" font-size="10.00">&#45;</text>
<text text-anchor="start" x="126.04" y="-668.5" font-family="Helvetica,sans-Serif" font-size="10.00">buildComponentApiUrl()</text>
<text text-anchor="start" x="115.54" y="-653.5" font-family="Helvetica,sans-Serif" font-size="10.00">&#45;</text>
<text text-anchor="start" x="126.04" y="-653.5" font-family="Helvetica,sans-Serif" font-size="10.00">build3DModelObjUrl()</text>
<text text-anchor="start" x="115.54" y="-638.5" font-family="Helvetica,sans-Serif" font-size="10.00">&#45;</text>
<text text-anchor="start" x="126.04" y="-638.5" font-family="Helvetica,sans-Serif" font-size="10.00">build3DModelStepUrl()</text>
<text text-anchor="start" x="115.54" y="-623.5" font-family="Helvetica,sans-Serif" font-size="10.00">&#45;</text>
<text text-anchor="start" x="126.04" y="-623.5" font-family="Helvetica,sans-Serif" font-size="10.00">validateLcscId()</text>
<polygon fill="#666666" stroke="#666666" points="109.04,-1098.5 109.04,-1098.5 293.04,-1098.5 293.04,-1098.5 109.04,-1098.5"/>
<polygon fill="#666666" stroke="#666666" points="109.04,-1008.5 109.04,-1008.5 124.04,-1008.5 124.04,-1008.5 109.04,-1008.5"/>
<polygon fill="#666666" stroke="#666666" points="124.04,-1008.5 124.04,-1008.5 293.04,-1008.5 293.04,-1008.5 124.04,-1008.5"/>
<polygon fill="none" stroke="#666666" points="109.04,-617 109.04,-1116 293.04,-1116 293.04,-617 109.04,-617"/>
</a>
</g>
</g>
<!-- Node2&#45;&gt;Node3 -->
<g id="edge3_Node000003_Node000002" class="edge">
<title>Node2&#45;&gt;Node3</title>
<g id="a_edge3_Node000003_Node000002"><a xlink:title=" ">
<path fill="none" stroke="#63b8ff" d="M195.67,-1660.97C178.69,-1650.83 159.8,-1636.1 150.04,-1617 140.48,-1598.31 144.58,-1138.35 145.04,-1134 145.65,-1128.12 146.33,-1122.18 147.08,-1116.2"/>
<polygon fill="none" stroke="#63b8ff" points="194.4,-1664.27 204.83,-1666.13 197.83,-1658.17 194.4,-1664.27"/>
</a>
</g>
</g>
<!-- Node4 -->
<g id="Node000004" class="node">
<title>Node4</title>
<g id="a_Node000004"><a xlink:href="classEasyKiConverter_1_1INetworkAdapter.html" target="_top" xlink:title="网络适配器接口">
<polygon fill="white" stroke="transparent" points="301.04,-1617 159.04,-1617 159.04,-1407 301.04,-1407 301.04,-1617"/>
<text text-anchor="start" x="164.04" y="-1605" font-family="Helvetica,sans-Serif" font-size="10.00">EasyKiConverter::INetwork</text>
<text text-anchor="start" x="210.54" y="-1594" font-family="Helvetica,sans-Serif" font-size="10.00">Adapter</text>
<text text-anchor="start" x="228.04" y="-1579" font-family="Helvetica,sans-Serif" font-size="10.00"> </text>
<text text-anchor="start" x="165.54" y="-1564" font-family="Helvetica,sans-Serif" font-size="10.00">+</text>
<text text-anchor="start" x="181.04" y="-1564" font-family="Helvetica,sans-Serif" font-size="10.00">INetworkAdapter()</text>
<text text-anchor="start" x="165.54" y="-1549" font-family="Helvetica,sans-Serif" font-size="10.00">+</text>
<text text-anchor="start" x="181.04" y="-1549" font-family="Helvetica,sans-Serif" font-size="10.00">~INetworkAdapter()</text>
<text text-anchor="start" x="165.54" y="-1534" font-family="Helvetica,sans-Serif" font-size="10.00">+</text>
<text text-anchor="start" x="181.04" y="-1534" font-family="Helvetica,sans-Serif" font-size="10.00">sendGetRequest()</text>
<text text-anchor="start" x="165.54" y="-1519" font-family="Helvetica,sans-Serif" font-size="10.00">+</text>
<text text-anchor="start" x="181.04" y="-1519" font-family="Helvetica,sans-Serif" font-size="10.00">cancelRequest()</text>
<text text-anchor="start" x="165.54" y="-1504" font-family="Helvetica,sans-Serif" font-size="10.00">+</text>
<text text-anchor="start" x="181.04" y="-1504" font-family="Helvetica,sans-Serif" font-size="10.00">setHeader()</text>
<text text-anchor="start" x="165.54" y="-1489" font-family="Helvetica,sans-Serif" font-size="10.00">+</text>
<text text-anchor="start" x="181.04" y="-1489" font-family="Helvetica,sans-Serif" font-size="10.00">clearHeaders()</text>
<text text-anchor="start" x="165.54" y="-1474" font-family="Helvetica,sans-Serif" font-size="10.00">+</text>
<text text-anchor="start" x="181.04" y="-1474" font-family="Helvetica,sans-Serif" font-size="10.00">setExpectBinaryData()</text>
<text text-anchor="start" x="165.54" y="-1459" font-family="Helvetica,sans-Serif" font-size="10.00">+</text>
<text text-anchor="start" x="181.04" y="-1459" font-family="Helvetica,sans-Serif" font-size="10.00">requestSuccess()</text>
<text text-anchor="start" x="165.54" y="-1444" font-family="Helvetica,sans-Serif" font-size="10.00">+</text>
<text text-anchor="start" x="181.04" y="-1444" font-family="Helvetica,sans-Serif" font-size="10.00">binaryDataFetched()</text>
<text text-anchor="start" x="165.54" y="-1429" font-family="Helvetica,sans-Serif" font-size="10.00">+</text>
<text text-anchor="start" x="181.04" y="-1429" font-family="Helvetica,sans-Serif" font-size="10.00">requestError()</text>
<text text-anchor="start" x="165.54" y="-1414" font-family="Helvetica,sans-Serif" font-size="10.00">+</text>
<text text-anchor="start" x="181.04" y="-1414" font-family="Helvetica,sans-Serif" font-size="10.00">requestProgress()</text>
<polygon fill="#666666" stroke="#666666" points="159.04,-1589 159.04,-1589 301.04,-1589 301.04,-1589 159.04,-1589"/>
<polygon fill="#666666" stroke="#666666" points="159.04,-1574 159.04,-1574 301.04,-1574 301.04,-1574 159.04,-1574"/>
<polygon fill="none" stroke="#666666" points="159.04,-1407 159.04,-1617 301.04,-1617 301.04,-1407 159.04,-1407"/>
</a>
</g>
</g>
<!-- Node2&#45;&gt;Node4 -->
<g id="edge5_Node000004_Node000002" class="edge">
<title>Node2&#45;&gt;Node4</title>
<g id="a_edge5_Node000004_Node000002"><a xlink:title=" ">
<path fill="none" stroke="#63b8ff" d="M230.04,-1643.85C230.04,-1635.7 230.04,-1626.57 230.04,-1617.01"/>
<polygon fill="none" stroke="#63b8ff" points="226.54,-1643.93 230.04,-1653.93 233.54,-1643.93 226.54,-1643.93"/>
</a>
</g>
</g>
<!-- Node5 -->
<g id="Node000005" class="node">
<title>Node5</title>
<g id="a_Node000005"><a xlink:href="classEasyKiConverter_1_1EasyedaImporter.html" target="_top" xlink:title="EasyEDA 数据导入器类">
<polygon fill="white" stroke="transparent" points="398.54,-1314 259.54,-1314 259.54,-1209 398.54,-1209 398.54,-1314"/>
<text text-anchor="start" x="265.04" y="-1301.5" font-family="Helvetica,sans-Serif" font-size="10.00">EasyKiConverter::Easyeda</text>
<text text-anchor="start" x="308.04" y="-1290.5" font-family="Helvetica,sans-Serif" font-size="10.00">Importer</text>
<text text-anchor="start" x="327.54" y="-1275.5" font-family="Helvetica,sans-Serif" font-size="10.00"> </text>
<text text-anchor="start" x="266.54" y="-1260.5" font-family="Helvetica,sans-Serif" font-size="10.00">+</text>
<text text-anchor="start" x="282.04" y="-1260.5" font-family="Helvetica,sans-Serif" font-size="10.00">EasyedaImporter()</text>
<text text-anchor="start" x="266.54" y="-1245.5" font-family="Helvetica,sans-Serif" font-size="10.00">+</text>
<text text-anchor="start" x="282.04" y="-1245.5" font-family="Helvetica,sans-Serif" font-size="10.00">~EasyedaImporter()</text>
<text text-anchor="start" x="266.54" y="-1230.5" font-family="Helvetica,sans-Serif" font-size="10.00">+</text>
<text text-anchor="start" x="282.04" y="-1230.5" font-family="Helvetica,sans-Serif" font-size="10.00">importSymbolData()</text>
<text text-anchor="start" x="266.54" y="-1215.5" font-family="Helvetica,sans-Serif" font-size="10.00">+</text>
<text text-anchor="start" x="282.04" y="-1215.5" font-family="Helvetica,sans-Serif" font-size="10.00">importFootprintData()</text>
<polygon fill="#666666" stroke="#666666" points="260.04,-1285.5 260.04,-1285.5 399.04,-1285.5 399.04,-1285.5 260.04,-1285.5"/>
<polygon fill="#666666" stroke="#666666" points="260.04,-1270.5 260.04,-1270.5 399.04,-1270.5 399.04,-1270.5 260.04,-1270.5"/>
<polygon fill="none" stroke="#666666" points="259.54,-1209 259.54,-1314 398.54,-1314 398.54,-1209 259.54,-1209"/>
</a>
</g>
</g>
<!-- Node2&#45;&gt;Node5 -->
<g id="edge7_Node000005_Node000002" class="edge">
<title>Node2&#45;&gt;Node5</title>
<g id="a_edge7_Node000005_Node000002"><a xlink:title=" ">
<path fill="none" stroke="#63b8ff" d="M264.16,-1660.84C281.07,-1650.66 299.97,-1635.94 310.04,-1617 361.51,-1520.12 350.59,-1386.58 339.16,-1314.19"/>
<polygon fill="none" stroke="#63b8ff" points="262.01,-1658.04 255.05,-1666.02 265.47,-1664.12 262.01,-1658.04"/>
</a>
</g>
</g>
<!-- Node6 -->
<g id="Node000006" class="node">
<title>Node6</title>
<g id="a_Node000006"><a xlink:href="classEasyKiConverter_1_1LcscImageService.html" target="_top" xlink:title="LCSC 图片服务类">
<polygon fill="white" stroke="transparent" points="578.54,-1389 403.54,-1389 403.54,-1134 578.54,-1134 578.54,-1389"/>
<text text-anchor="start" x="422.04" y="-1376.5" font-family="Helvetica,sans-Serif" font-size="10.00">EasyKiConverter::LcscImage</text>
<text text-anchor="start" x="473.04" y="-1365.5" font-family="Helvetica,sans-Serif" font-size="10.00">Service</text>
<text text-anchor="start" x="410.54" y="-1350.5" font-family="Helvetica,sans-Serif" font-size="10.00">&#45;</text>
<text text-anchor="start" x="421.04" y="-1350.5" font-family="Helvetica,sans-Serif" font-size="10.00">m_networkManager</text>
<text text-anchor="start" x="410.54" y="-1335.5" font-family="Helvetica,sans-Serif" font-size="10.00">&#45;</text>
<text text-anchor="start" x="421.04" y="-1335.5" font-family="Helvetica,sans-Serif" font-size="10.00">m_queue</text>
<text text-anchor="start" x="410.54" y="-1320.5" font-family="Helvetica,sans-Serif" font-size="10.00">&#45;</text>
<text text-anchor="start" x="421.04" y="-1320.5" font-family="Helvetica,sans-Serif" font-size="10.00">m_activeRequests</text>
<text text-anchor="start" x="410.54" y="-1305.5" font-family="Helvetica,sans-Serif" font-size="10.00">&#45;</text>
<text text-anchor="start" x="421.04" y="-1305.5" font-family="Helvetica,sans-Serif" font-size="10.00">MAX_CONCURRENT_REQUESTS</text>
<text text-anchor="start" x="408.04" y="-1290.5" font-family="Helvetica,sans-Serif" font-size="10.00">+</text>
<text text-anchor="start" x="421.04" y="-1290.5" font-family="Helvetica,sans-Serif" font-size="10.00">LcscImageService()</text>
<text text-anchor="start" x="408.04" y="-1275.5" font-family="Helvetica,sans-Serif" font-size="10.00">+</text>
<text text-anchor="start" x="421.04" y="-1275.5" font-family="Helvetica,sans-Serif" font-size="10.00">fetchPreviewImage()</text>
<text text-anchor="start" x="408.04" y="-1260.5" font-family="Helvetica,sans-Serif" font-size="10.00">+</text>
<text text-anchor="start" x="421.04" y="-1260.5" font-family="Helvetica,sans-Serif" font-size="10.00">imageReady()</text>
<text text-anchor="start" x="408.04" y="-1245.5" font-family="Helvetica,sans-Serif" font-size="10.00">+</text>
<text text-anchor="start" x="421.04" y="-1245.5" font-family="Helvetica,sans-Serif" font-size="10.00">error()</text>
<text text-anchor="start" x="410.54" y="-1230.5" font-family="Helvetica,sans-Serif" font-size="10.00">&#45;</text>
<text text-anchor="start" x="421.04" y="-1230.5" font-family="Helvetica,sans-Serif" font-size="10.00">processQueue()</text>
<text text-anchor="start" x="410.54" y="-1215.5" font-family="Helvetica,sans-Serif" font-size="10.00">&#45;</text>
<text text-anchor="start" x="421.04" y="-1215.5" font-family="Helvetica,sans-Serif" font-size="10.00">handleSearchResponse()</text>
<text text-anchor="start" x="410.54" y="-1200.5" font-family="Helvetica,sans-Serif" font-size="10.00">&#45;</text>
<text text-anchor="start" x="421.04" y="-1200.5" font-family="Helvetica,sans-Serif" font-size="10.00">handleFallbackResponse()</text>
<text text-anchor="start" x="410.54" y="-1185.5" font-family="Helvetica,sans-Serif" font-size="10.00">&#45;</text>
<text text-anchor="start" x="421.04" y="-1185.5" font-family="Helvetica,sans-Serif" font-size="10.00">handleDownloadResponse()</text>
<text text-anchor="start" x="410.54" y="-1170.5" font-family="Helvetica,sans-Serif" font-size="10.00">&#45;</text>
<text text-anchor="start" x="421.04" y="-1170.5" font-family="Helvetica,sans-Serif" font-size="10.00">performSearch()</text>
<text text-anchor="start" x="410.54" y="-1155.5" font-family="Helvetica,sans-Serif" font-size="10.00">&#45;</text>
<text text-anchor="start" x="421.04" y="-1155.5" font-family="Helvetica,sans-Serif" font-size="10.00">performFallback()</text>
<text text-anchor="start" x="410.54" y="-1140.5" font-family="Helvetica,sans-Serif" font-size="10.00">&#45;</text>
<text text-anchor="start" x="421.04" y="-1140.5" font-family="Helvetica,sans-Serif" font-size="10.00">performDownload()</text>
<polygon fill="#666666" stroke="#666666" points="404.04,-1360.5 404.04,-1360.5 579.04,-1360.5 579.04,-1360.5 404.04,-1360.5"/>
<polygon fill="#666666" stroke="#666666" points="404.04,-1300.5 404.04,-1300.5 419.04,-1300.5 419.04,-1300.5 404.04,-1300.5"/>
<polygon fill="#666666" stroke="#666666" points="419.04,-1300.5 419.04,-1300.5 579.04,-1300.5 579.04,-1300.5 419.04,-1300.5"/>
<polygon fill="none" stroke="#666666" points="403.54,-1134 403.54,-1389 578.54,-1389 578.54,-1134 403.54,-1134"/>
</a>
</g>
</g>
<!-- Node2&#45;&gt;Node6 -->
<g id="edge9_Node000006_Node000002" class="edge">
<title>Node2&#45;&gt;Node6</title>
<g id="a_edge9_Node000006_Node000002"><a xlink:title=" ">
<path fill="none" stroke="#63b8ff" d="M264.69,-1666.62C289.79,-1657.13 322.89,-1641.08 344.04,-1617 400.98,-1552.18 437.93,-1462.22 460.54,-1389.15"/>
<polygon fill="none" stroke="#63b8ff" points="263.39,-1663.37 255.17,-1670.05 265.76,-1669.95 263.39,-1663.37"/>
</a>
</g>
</g>
<!-- Node3&#45;&gt;Node1 -->
<g id="edge2_Node000001_Node000003" class="edge">
<title>Node3&#45;&gt;Node1</title>
<g id="a_edge2_Node000001_Node000003"><a xlink:title=" ">
<path fill="none" stroke="#63b8ff" d="M255.97,-616.8C258.49,-605.41 261.02,-593.93 263.56,-582.43"/>
<polygon fill="none" stroke="#63b8ff" points="263.62,-582.17 261,-575.45 266.2,-570.46 268.82,-577.18 263.62,-582.17"/>
</a>
</g>
<text text-anchor="middle" x="280.54" y="-591" font-family="Helvetica,sans-Serif" font-size="10.00" fill="grey"> &#45;m_api</text>
</g>
<!-- Node4&#45;&gt;Node3 -->
<g id="edge4_Node000003_Node000004" class="edge">
<title>Node4&#45;&gt;Node3</title>
<g id="a_edge4_Node000003_Node000004"><a xlink:title=" ">
<path fill="none" stroke="#63b8ff" d="M170.45,-1406.83C168.35,-1400.9 166.52,-1394.94 165.04,-1389 144.18,-1305.52 143.72,-1212.34 151.39,-1128.1"/>
<polygon fill="none" stroke="#63b8ff" points="151.41,-1127.95 148,-1121.59 152.56,-1116 155.96,-1122.36 151.41,-1127.95"/>
</a>
</g>
<text text-anchor="middle" x="207.54" y="-1259" font-family="Helvetica,sans-Serif" font-size="10.00" fill="grey"> &#45;m_networkUtils</text>
</g>
<!-- Node5&#45;&gt;Node1 -->
<g id="edge6_Node000001_Node000005" class="edge">
<title>Node5&#45;&gt;Node1</title>
<g id="a_edge6_Node000001_Node000005"><a xlink:title=" ">
<path fill="none" stroke="#63b8ff" d="M329.04,-1208.79C329.04,-1093.07 329.04,-805.84 329.04,-582.3"/>
<polygon fill="none" stroke="#63b8ff" points="329.04,-582.03 325.04,-576.03 329.04,-570.03 333.04,-576.03 329.04,-582.03"/>
</a>
</g>
<text text-anchor="middle" x="361.04" y="-864" font-family="Helvetica,sans-Serif" font-size="10.00" fill="grey"> &#45;m_importer</text>
</g>
<!-- Node6&#45;&gt;Node1 -->
<g id="edge8_Node000001_Node000006" class="edge">
<title>Node6&#45;&gt;Node1</title>
<g id="a_edge8_Node000001_Node000006"><a xlink:title=" ">
<path fill="none" stroke="#63b8ff" d="M443.36,-1133.78C441.77,-1127.81 440.31,-1121.86 439.04,-1116 391.62,-898.55 428.82,-837.28 397.04,-617 395.4,-605.69 393.63,-594.18 391.73,-582.57"/>
<polygon fill="none" stroke="#63b8ff" points="391.69,-582.28 386.76,-577.02 389.72,-570.44 394.65,-575.71 391.69,-582.28"/>
</a>
</g>
<text text-anchor="middle" x="483.54" y="-864" font-family="Helvetica,sans-Serif" font-size="10.00" fill="grey"> &#45;m_imageService</text>
</g>
<!-- Node7 -->
<g id="Node000007" class="node">
<title>Node7</title>
<g id="a_Node000007"><a xlink:href="classEasyKiConverter_1_1ComponentData.html" target="_top" xlink:title="元件数据">
<polygon fill="white" stroke="transparent" points="713.54,-1026 536.54,-1026 536.54,-707 713.54,-707 713.54,-1026"/>
<text text-anchor="start" x="542.04" y="-1013.5" font-family="Helvetica,sans-Serif" font-size="10.00">EasyKiConverter::ComponentData</text>
<text text-anchor="start" x="558.54" y="-998.5" font-family="Helvetica,sans-Serif" font-size="10.00">&#45;</text>
<text text-anchor="start" x="584.04" y="-998.5" font-family="Helvetica,sans-Serif" font-size="10.00">m_lcscId</text>
<text text-anchor="start" x="558.54" y="-983.5" font-family="Helvetica,sans-Serif" font-size="10.00">&#45;</text>
<text text-anchor="start" x="584.04" y="-983.5" font-family="Helvetica,sans-Serif" font-size="10.00">m_name</text>
<text text-anchor="start" x="558.54" y="-968.5" font-family="Helvetica,sans-Serif" font-size="10.00">&#45;</text>
<text text-anchor="start" x="584.04" y="-968.5" font-family="Helvetica,sans-Serif" font-size="10.00">m_prefix</text>
<text text-anchor="start" x="558.54" y="-953.5" font-family="Helvetica,sans-Serif" font-size="10.00">&#45;</text>
<text text-anchor="start" x="584.04" y="-953.5" font-family="Helvetica,sans-Serif" font-size="10.00">m_package</text>
<text text-anchor="start" x="558.54" y="-938.5" font-family="Helvetica,sans-Serif" font-size="10.00">&#45;</text>
<text text-anchor="start" x="584.04" y="-938.5" font-family="Helvetica,sans-Serif" font-size="10.00">m_manufacturer</text>
<text text-anchor="start" x="558.54" y="-923.5" font-family="Helvetica,sans-Serif" font-size="10.00">&#45;</text>
<text text-anchor="start" x="584.04" y="-923.5" font-family="Helvetica,sans-Serif" font-size="10.00">m_datasheet</text>
<text text-anchor="start" x="558.54" y="-908.5" font-family="Helvetica,sans-Serif" font-size="10.00">&#45;</text>
<text text-anchor="start" x="584.04" y="-908.5" font-family="Helvetica,sans-Serif" font-size="10.00">m_symbolData</text>
<text text-anchor="start" x="558.54" y="-893.5" font-family="Helvetica,sans-Serif" font-size="10.00">&#45;</text>
<text text-anchor="start" x="584.04" y="-893.5" font-family="Helvetica,sans-Serif" font-size="10.00">m_footprintData</text>
<text text-anchor="start" x="558.54" y="-878.5" font-family="Helvetica,sans-Serif" font-size="10.00">&#45;</text>
<text text-anchor="start" x="584.04" y="-878.5" font-family="Helvetica,sans-Serif" font-size="10.00">m_model3DData</text>
<text text-anchor="start" x="556.04" y="-863.5" font-family="Helvetica,sans-Serif" font-size="10.00">+</text>
<text text-anchor="start" x="584.04" y="-863.5" font-family="Helvetica,sans-Serif" font-size="10.00">ComponentData()</text>
<text text-anchor="start" x="556.04" y="-848.5" font-family="Helvetica,sans-Serif" font-size="10.00">+</text>
<text text-anchor="start" x="584.04" y="-848.5" font-family="Helvetica,sans-Serif" font-size="10.00">~ComponentData()</text>
<text text-anchor="start" x="556.04" y="-833.5" font-family="Helvetica,sans-Serif" font-size="10.00">+</text>
<text text-anchor="start" x="584.04" y="-833.5" font-family="Helvetica,sans-Serif" font-size="10.00">lcscId()</text>
<text text-anchor="start" x="556.04" y="-818.5" font-family="Helvetica,sans-Serif" font-size="10.00">+</text>
<text text-anchor="start" x="584.04" y="-818.5" font-family="Helvetica,sans-Serif" font-size="10.00">setLcscId()</text>
<text text-anchor="start" x="556.04" y="-803.5" font-family="Helvetica,sans-Serif" font-size="10.00">+</text>
<text text-anchor="start" x="584.04" y="-803.5" font-family="Helvetica,sans-Serif" font-size="10.00">name()</text>
<text text-anchor="start" x="556.04" y="-788.5" font-family="Helvetica,sans-Serif" font-size="10.00">+</text>
<text text-anchor="start" x="584.04" y="-788.5" font-family="Helvetica,sans-Serif" font-size="10.00">setName()</text>
<text text-anchor="start" x="556.04" y="-773.5" font-family="Helvetica,sans-Serif" font-size="10.00">+</text>
<text text-anchor="start" x="584.04" y="-773.5" font-family="Helvetica,sans-Serif" font-size="10.00">prefix()</text>
<text text-anchor="start" x="556.04" y="-758.5" font-family="Helvetica,sans-Serif" font-size="10.00">+</text>
<text text-anchor="start" x="584.04" y="-758.5" font-family="Helvetica,sans-Serif" font-size="10.00">setPrefix()</text>
<text text-anchor="start" x="556.04" y="-743.5" font-family="Helvetica,sans-Serif" font-size="10.00">+</text>
<text text-anchor="start" x="584.04" y="-743.5" font-family="Helvetica,sans-Serif" font-size="10.00">package()</text>
<text text-anchor="start" x="556.04" y="-728.5" font-family="Helvetica,sans-Serif" font-size="10.00">+</text>
<text text-anchor="start" x="584.04" y="-728.5" font-family="Helvetica,sans-Serif" font-size="10.00">setPackage()</text>
<text text-anchor="start" x="584.04" y="-713.5" font-family="Helvetica,sans-Serif" font-size="10.00">和 15 更多...</text>
<polygon fill="#666666" stroke="#666666" points="537.04,-1008.5 537.04,-1008.5 714.04,-1008.5 714.04,-1008.5 537.04,-1008.5"/>
<polygon fill="#666666" stroke="#666666" points="537.04,-873.5 537.04,-873.5 582.04,-873.5 582.04,-873.5 537.04,-873.5"/>
<polygon fill="#666666" stroke="#666666" points="582.04,-873.5 582.04,-873.5 714.04,-873.5 714.04,-873.5 582.04,-873.5"/>
<polygon fill="none" stroke="#666666" points="536.54,-707 536.54,-1026 713.54,-1026 713.54,-707 536.54,-707"/>
</a>
</g>
</g>
<!-- Node7&#45;&gt;Node1 -->
<g id="edge10_Node000001_Node000007" class="edge">
<title>Node7&#45;&gt;Node1</title>
<g id="a_edge10_Node000001_Node000007"><a xlink:title=" ">
<path fill="none" stroke="#63b8ff" d="M563.09,-706.98C550.23,-676.77 536.25,-645.66 522.04,-617 493.37,-559.19 458.71,-497.67 426.73,-443.55"/>
<polygon fill="none" stroke="#63b8ff" points="426.7,-443.51 420.2,-440.38 420.58,-433.18 427.08,-436.3 426.7,-443.51"/>
</a>
</g>
<text text-anchor="middle" x="582.54" y="-591" font-family="Helvetica,sans-Serif" font-size="10.00" fill="grey"> &#45;m_pendingComponentData</text>
</g>
</g>
</svg>
