<?xml version="1.0" encoding="UTF-8" standalone="no"?>
<!DOCTYPE svg PUBLIC "-//W3C//DTD SVG 1.1//EN"
 "http://www.w3.org/Graphics/SVG/1.1/DTD/svg11.dtd">
<!-- Generated by graphviz version 2.43.0 (0)
 -->
<!-- Title: EasyKiConverter::NetworkUtils Pages: 1 -->
<svg width="150pt" height="759pt"
 viewBox="0.00 0.00 150.00 759.00" xmlns="http://www.w3.org/2000/svg" xmlns:xlink="http://www.w3.org/1999/xlink">
<g id="graph0" class="graph" transform="scale(1 1) rotate(0) translate(4 755)">
<title>EasyKiConverter::NetworkUtils</title>
<!-- Node1 -->
<g id="Node000001" class="node">
<title>Node1</title>
<g id="a_Node000001"><a xlink:title="网络工具">
<polygon fill="#999999" stroke="transparent" points="140.5,-420 1.5,-420 1.5,0 140.5,0 140.5,-420"/>
<text text-anchor="start" x="7" y="-408" font-family="Helvetica,sans-Serif" font-size="10.00">EasyKiConverter::Network</text>
<text text-anchor="start" x="60" y="-397" font-family="Helvetica,sans-Serif" font-size="10.00">Utils</text>
<text text-anchor="start" x="10" y="-382" font-family="Helvetica,sans-Serif" font-size="10.00">&#45;</text>
<text text-anchor="start" x="22" y="-382" font-family="Helvetica,sans-Serif" font-size="10.00">m_networkManager</text>
<text text-anchor="start" x="10" y="-367" font-family="Helvetica,sans-Serif" font-size="10.00">&#45;</text>
<text text-anchor="start" x="22" y="-367" font-family="Helvetica,sans-Serif" font-size="10.00">m_currentReply</text>
<text text-anchor="start" x="10" y="-352" font-family="Helvetica,sans-Serif" font-size="10.00">&#45;</text>
<text text-anchor="start" x="22" y="-352" font-family="Helvetica,sans-Serif" font-size="10.00">m_timeoutTimer</text>
<text text-anchor="start" x="10" y="-337" font-family="Helvetica,sans-Serif" font-size="10.00">&#45;</text>
<text text-anchor="start" x="22" y="-337" font-family="Helvetica,sans-Serif" font-size="10.00">m_url</text>
<text text-anchor="start" x="10" y="-322" font-family="Helvetica,sans-Serif" font-size="10.00">&#45;</text>
<text text-anchor="start" x="22" y="-322" font-family="Helvetica,sans-Serif" font-size="10.00">m_timeout</text>
<text text-anchor="start" x="10" y="-307" font-family="Helvetica,sans-Serif" font-size="10.00">&#45;</text>
<text text-anchor="start" x="22" y="-307" font-family="Helvetica,sans-Serif" font-size="10.00">m_maxRetries</text>
<text text-anchor="start" x="10" y="-292" font-family="Helvetica,sans-Serif" font-size="10.00">&#45;</text>
<text text-anchor="start" x="22" y="-292" font-family="Helvetica,sans-Serif" font-size="10.00">m_retryCount</text>
<text text-anchor="start" x="10" y="-277" font-family="Helvetica,sans-Serif" font-size="10.00">&#45;</text>
<text text-anchor="start" x="22" y="-277" font-family="Helvetica,sans-Serif" font-size="10.00">m_headers</text>
<text text-anchor="start" x="10" y="-262" font-family="Helvetica,sans-Serif" font-size="10.00">&#45;</text>
<text text-anchor="start" x="22" y="-262" font-family="Helvetica,sans-Serif" font-size="10.00">m_isRequesting</text>
<text text-anchor="start" x="10" y="-247" font-family="Helvetica,sans-Serif" font-size="10.00">&#45;</text>
<text text-anchor="start" x="22" y="-247" font-family="Helvetica,sans-Serif" font-size="10.00">m_expectBinaryData</text>
<text text-anchor="start" x="10" y="-232" font-family="Helvetica,sans-Serif" font-size="10.00">&#45;</text>
<text text-anchor="start" x="22" y="-232" font-family="Helvetica,sans-Serif" font-size="10.00">m_replyDeleting</text>
<text text-anchor="start" x="7.5" y="-217" font-family="Helvetica,sans-Serif" font-size="10.00">+</text>
<text text-anchor="start" x="22" y="-217" font-family="Helvetica,sans-Serif" font-size="10.00">NetworkUtils()</text>
<text text-anchor="start" x="7.5" y="-202" font-family="Helvetica,sans-Serif" font-size="10.00">+</text>
<text text-anchor="start" x="22" y="-202" font-family="Helvetica,sans-Serif" font-size="10.00">~NetworkUtils()</text>
<text text-anchor="start" x="7.5" y="-187" font-family="Helvetica,sans-Serif" font-size="10.00">+</text>
<text text-anchor="start" x="22" y="-187" font-family="Helvetica,sans-Serif" font-size="10.00">sendGetRequest()</text>
<text text-anchor="start" x="7.5" y="-172" font-family="Helvetica,sans-Serif" font-size="10.00">+</text>
<text text-anchor="start" x="22" y="-172" font-family="Helvetica,sans-Serif" font-size="10.00">cancelRequest()</text>
<text text-anchor="start" x="7.5" y="-157" font-family="Helvetica,sans-Serif" font-size="10.00">+</text>
<text text-anchor="start" x="22" y="-157" font-family="Helvetica,sans-Serif" font-size="10.00">setHeader()</text>
<text text-anchor="start" x="7.5" y="-142" font-family="Helvetica,sans-Serif" font-size="10.00">+</text>
<text text-anchor="start" x="22" y="-142" font-family="Helvetica,sans-Serif" font-size="10.00">clearHeaders()</text>
<text text-anchor="start" x="7.5" y="-127" font-family="Helvetica,sans-Serif" font-size="10.00">+</text>
<text text-anchor="start" x="22" y="-127" font-family="Helvetica,sans-Serif" font-size="10.00">setExpectBinaryData()</text>
<text text-anchor="start" x="10" y="-112" font-family="Helvetica,sans-Serif" font-size="10.00">&#45;</text>
<text text-anchor="start" x="22" y="-112" font-family="Helvetica,sans-Serif" font-size="10.00">handleResponse()</text>
<text text-anchor="start" x="10" y="-97" font-family="Helvetica,sans-Serif" font-size="10.00">&#45;</text>
<text text-anchor="start" x="22" y="-97" font-family="Helvetica,sans-Serif" font-size="10.00">handleError()</text>
<text text-anchor="start" x="10" y="-82" font-family="Helvetica,sans-Serif" font-size="10.00">&#45;</text>
<text text-anchor="start" x="22" y="-82" font-family="Helvetica,sans-Serif" font-size="10.00">handleTimeout()</text>
<text text-anchor="start" x="10" y="-67" font-family="Helvetica,sans-Serif" font-size="10.00">&#45;</text>
<text text-anchor="start" x="22" y="-67" font-family="Helvetica,sans-Serif" font-size="10.00">executeRequest()</text>
<text text-anchor="start" x="10" y="-52" font-family="Helvetica,sans-Serif" font-size="10.00">&#45;</text>
<text text-anchor="start" x="22" y="-52" font-family="Helvetica,sans-Serif" font-size="10.00">retryRequest()</text>
<text text-anchor="start" x="10" y="-37" font-family="Helvetica,sans-Serif" font-size="10.00">&#45;</text>
<text text-anchor="start" x="22" y="-37" font-family="Helvetica,sans-Serif" font-size="10.00">shouldRetry()</text>
<text text-anchor="start" x="10" y="-22" font-family="Helvetica,sans-Serif" font-size="10.00">&#45;</text>
<text text-anchor="start" x="22" y="-22" font-family="Helvetica,sans-Serif" font-size="10.00">calculateRetryDelay()</text>
<text text-anchor="start" x="10" y="-7" font-family="Helvetica,sans-Serif" font-size="10.00">&#45;</text>
<text text-anchor="start" x="22" y="-7" font-family="Helvetica,sans-Serif" font-size="10.00">decompressGzip()</text>
<polygon fill="#666666" stroke="#666666" points="2,-392 2,-392 141,-392 141,-392 2,-392"/>
<polygon fill="#666666" stroke="#666666" points="2,-227 2,-227 20,-227 20,-227 2,-227"/>
<polygon fill="#666666" stroke="#666666" points="20,-227 20,-227 141,-227 141,-227 20,-227"/>
<polygon fill="none" stroke="#666666" points="1.5,0 1.5,-420 140.5,-420 140.5,0 1.5,0"/>
</a>
</g>
</g>
<!-- Node2 -->
<g id="Node000002" class="node">
<title>Node2</title>
<g id="a_Node000002"><a xlink:href="classEasyKiConverter_1_1INetworkAdapter.html" target="_top" xlink:title="网络适配器接口">
<polygon fill="white" stroke="transparent" points="142,-666 0,-666 0,-456 142,-456 142,-666"/>
<text text-anchor="start" x="5" y="-654" font-family="Helvetica,sans-Serif" font-size="10.00">EasyKiConverter::INetwork</text>
<text text-anchor="start" x="51.5" y="-643" font-family="Helvetica,sans-Serif" font-size="10.00">Adapter</text>
<text text-anchor="start" x="69" y="-628" font-family="Helvetica,sans-Serif" font-size="10.00"> </text>
<text text-anchor="start" x="6.5" y="-613" font-family="Helvetica,sans-Serif" font-size="10.00">+</text>
<text text-anchor="start" x="22" y="-613" font-family="Helvetica,sans-Serif" font-size="10.00">INetworkAdapter()</text>
<text text-anchor="start" x="6.5" y="-598" font-family="Helvetica,sans-Serif" font-size="10.00">+</text>
<text text-anchor="start" x="22" y="-598" font-family="Helvetica,sans-Serif" font-size="10.00">~INetworkAdapter()</text>
<text text-anchor="start" x="6.5" y="-583" font-family="Helvetica,sans-Serif" font-size="10.00">+</text>
<text text-anchor="start" x="22" y="-583" font-family="Helvetica,sans-Serif" font-size="10.00">sendGetRequest()</text>
<text text-anchor="start" x="6.5" y="-568" font-family="Helvetica,sans-Serif" font-size="10.00">+</text>
<text text-anchor="start" x="22" y="-568" font-family="Helvetica,sans-Serif" font-size="10.00">cancelRequest()</text>
<text text-anchor="start" x="6.5" y="-553" font-family="Helvetica,sans-Serif" font-size="10.00">+</text>
<text text-anchor="start" x="22" y="-553" font-family="Helvetica,sans-Serif" font-size="10.00">setHeader()</text>
<text text-anchor="start" x="6.5" y="-538" font-family="Helvetica,sans-Serif" font-size="10.00">+</text>
<text text-anchor="start" x="22" y="-538" font-family="Helvetica,sans-Serif" font-size="10.00">clearHeaders()</text>
<text text-anchor="start" x="6.5" y="-523" font-family="Helvetica,sans-Serif" font-size="10.00">+</text>
<text text-anchor="start" x="22" y="-523" font-family="Helvetica,sans-Serif" font-size="10.00">setExpectBinaryData()</text>
<text text-anchor="start" x="6.5" y="-508" font-family="Helvetica,sans-Serif" font-size="10.00">+</text>
<text text-anchor="start" x="22" y="-508" font-family="Helvetica,sans-Serif" font-size="10.00">requestSuccess()</text>
<text text-anchor="start" x="6.5" y="-493" font-family="Helvetica,sans-Serif" font-size="10.00">+</text>
<text text-anchor="start" x="22" y="-493" font-family="Helvetica,sans-Serif" font-size="10.00">binaryDataFetched()</text>
<text text-anchor="start" x="6.5" y="-478" font-family="Helvetica,sans-Serif" font-size="10.00">+</text>
<text text-anchor="start" x="22" y="-478" font-family="Helvetica,sans-Serif" font-size="10.00">requestError()</text>
<text text-anchor="start" x="6.5" y="-463" font-family="Helvetica,sans-Serif" font-size="10.00">+</text>
<text text-anchor="start" x="22" y="-463" font-family="Helvetica,sans-Serif" font-size="10.00">requestProgress()</text>
<polygon fill="#666666" stroke="#666666" points="0,-638 0,-638 142,-638 142,-638 0,-638"/>
<polygon fill="#666666" stroke="#666666" points="0,-623 0,-623 142,-623 142,-623 0,-623"/>
<polygon fill="none" stroke="#666666" points="0,-456 0,-666 142,-666 142,-456 0,-456"/>
</a>
</g>
</g>
<!-- Node2&#45;&gt;Node1 -->
<g id="edge1_Node000001_Node000002" class="edge">
<title>Node2&#45;&gt;Node1</title>
<g id="a_edge1_Node000001_Node000002"><a xlink:title=" ">
<path fill="none" stroke="#63b8ff" d="M71,-445.72C71,-437.39 71,-428.86 71,-420.21"/>
<polygon fill="none" stroke="#63b8ff" points="67.5,-445.76 71,-455.76 74.5,-445.76 67.5,-445.76"/>
</a>
</g>
</g>
<!-- Node3 -->
<g id="Node000003" class="node">
<title>Node3</title>
<g id="a_Node000003"><a xlink:title=" ">
<polygon fill="white" stroke="transparent" points="96,-751 46,-751 46,-702 96,-702 96,-751"/>
<text text-anchor="start" x="51" y="-738.5" font-family="Helvetica,sans-Serif" font-size="10.00">QObject</text>
<text text-anchor="start" x="69" y="-723.5" font-family="Helvetica,sans-Serif" font-size="10.00"> </text>
<text text-anchor="start" x="69" y="-708.5" font-family="Helvetica,sans-Serif" font-size="10.00"> </text>
<polygon fill="#666666" stroke="#666666" points="46,-733.5 46,-733.5 96,-733.5 96,-733.5 46,-733.5"/>
<polygon fill="#666666" stroke="#666666" points="46,-718.5 46,-718.5 96,-718.5 96,-718.5 46,-718.5"/>
<polygon fill="none" stroke="#666666" points="46,-702 46,-751 96,-751 96,-702 46,-702"/>
</a>
</g>
</g>
<!-- Node3&#45;&gt;Node2 -->
<g id="edge2_Node000002_Node000003" class="edge">
<title>Node3&#45;&gt;Node2</title>
<g id="a_edge2_Node000002_Node000003"><a xlink:title=" ">
<path fill="none" stroke="#63b8ff" d="M71,-691.69C71,-683.89 71,-675.18 71,-666.08"/>
<polygon fill="none" stroke="#63b8ff" points="67.5,-691.73 71,-701.73 74.5,-691.73 67.5,-691.73"/>
</a>
</g>
</g>
</g>
</svg>
