<?xml version="1.0" encoding="UTF-8" standalone="no"?>
<!DOCTYPE svg PUBLIC "-//W3C//DTD SVG 1.1//EN"
 "http://www.w3.org/Graphics/SVG/1.1/DTD/svg11.dtd">
<!-- Generated by graphviz version 2.43.0 (0)
 -->
<!-- Title: EasyKiConverter::NetworkWorker Pages: 1 -->
<svg width="506pt" height="1484pt"
 viewBox="0.00 0.00 506.00 1484.00" xmlns="http://www.w3.org/2000/svg" xmlns:xlink="http://www.w3.org/1999/xlink">
<g id="graph0" class="graph" transform="scale(1 1) rotate(0) translate(4 1480)">
<title>EasyKiConverter::NetworkWorker</title>
<!-- Node1 -->
<g id="Node000001" class="node">
<title>Node1</title>
<g id="a_Node000001"><a xlink:title="网络工作线程">
<polygon fill="#999999" stroke="transparent" points="401,-345 260,-345 260,0 401,0 401,-345"/>
<text text-anchor="start" x="266.5" y="-332.5" font-family="Helvetica,sans-Serif" font-size="10.00">EasyKiConverter::Network</text>
<text text-anchor="start" x="314" y="-321.5" font-family="Helvetica,sans-Serif" font-size="10.00">Worker</text>
<text text-anchor="start" x="267" y="-306.5" font-family="Helvetica,sans-Serif" font-size="10.00">&#45;</text>
<text text-anchor="start" x="277.5" y="-306.5" font-family="Helvetica,sans-Serif" font-size="10.00">m_componentId</text>
<text text-anchor="start" x="267" y="-291.5" font-family="Helvetica,sans-Serif" font-size="10.00">&#45;</text>
<text text-anchor="start" x="277.5" y="-291.5" font-family="Helvetica,sans-Serif" font-size="10.00">m_taskType</text>
<text text-anchor="start" x="267" y="-276.5" font-family="Helvetica,sans-Serif" font-size="10.00">&#45;</text>
<text text-anchor="start" x="277.5" y="-276.5" font-family="Helvetica,sans-Serif" font-size="10.00">m_uuid</text>
<text text-anchor="start" x="267" y="-261.5" font-family="Helvetica,sans-Serif" font-size="10.00">&#45;</text>
<text text-anchor="start" x="277.5" y="-261.5" font-family="Helvetica,sans-Serif" font-size="10.00">m_mutex</text>
<text text-anchor="start" x="267" y="-246.5" font-family="Helvetica,sans-Serif" font-size="10.00">&#45;</text>
<text text-anchor="start" x="277.5" y="-246.5" font-family="Helvetica,sans-Serif" font-size="10.00">DEFAULT_TIMEOUT_MS</text>
<text text-anchor="start" x="267" y="-231.5" font-family="Helvetica,sans-Serif" font-size="10.00">&#45;</text>
<text text-anchor="start" x="277.5" y="-231.5" font-family="Helvetica,sans-Serif" font-size="10.00">MODEL_TIMEOUT_MS</text>
<text text-anchor="start" x="267" y="-216.5" font-family="Helvetica,sans-Serif" font-size="10.00">&#45;</text>
<text text-anchor="start" x="277.5" y="-216.5" font-family="Helvetica,sans-Serif" font-size="10.00">MAX_RETRIES</text>
<text text-anchor="start" x="264.5" y="-201.5" font-family="Helvetica,sans-Serif" font-size="10.00">+</text>
<text text-anchor="start" x="277.5" y="-201.5" font-family="Helvetica,sans-Serif" font-size="10.00">NetworkWorker()</text>
<text text-anchor="start" x="264.5" y="-186.5" font-family="Helvetica,sans-Serif" font-size="10.00">+</text>
<text text-anchor="start" x="277.5" y="-186.5" font-family="Helvetica,sans-Serif" font-size="10.00">~NetworkWorker()</text>
<text text-anchor="start" x="264.5" y="-171.5" font-family="Helvetica,sans-Serif" font-size="10.00">+</text>
<text text-anchor="start" x="277.5" y="-171.5" font-family="Helvetica,sans-Serif" font-size="10.00">run()</text>
<text text-anchor="start" x="264.5" y="-156.5" font-family="Helvetica,sans-Serif" font-size="10.00">+</text>
<text text-anchor="start" x="277.5" y="-156.5" font-family="Helvetica,sans-Serif" font-size="10.00">componentInfoFetched()</text>
<text text-anchor="start" x="264.5" y="-141.5" font-family="Helvetica,sans-Serif" font-size="10.00">+</text>
<text text-anchor="start" x="277.5" y="-141.5" font-family="Helvetica,sans-Serif" font-size="10.00">cadDataFetched()</text>
<text text-anchor="start" x="264.5" y="-126.5" font-family="Helvetica,sans-Serif" font-size="10.00">+</text>
<text text-anchor="start" x="277.5" y="-126.5" font-family="Helvetica,sans-Serif" font-size="10.00">model3DFetched()</text>
<text text-anchor="start" x="264.5" y="-111.5" font-family="Helvetica,sans-Serif" font-size="10.00">+</text>
<text text-anchor="start" x="277.5" y="-111.5" font-family="Helvetica,sans-Serif" font-size="10.00">fetchError()</text>
<text text-anchor="start" x="264.5" y="-96.5" font-family="Helvetica,sans-Serif" font-size="10.00">+</text>
<text text-anchor="start" x="277.5" y="-96.5" font-family="Helvetica,sans-Serif" font-size="10.00">requestProgress()</text>
<text text-anchor="start" x="264.5" y="-81.5" font-family="Helvetica,sans-Serif" font-size="10.00">+</text>
<text text-anchor="start" x="277.5" y="-81.5" font-family="Helvetica,sans-Serif" font-size="10.00">abort()</text>
<text text-anchor="start" x="264.5" y="-66.5" font-family="Helvetica,sans-Serif" font-size="10.00">+</text>
<text text-anchor="start" x="277.5" y="-66.5" font-family="Helvetica,sans-Serif" font-size="10.00">executeRequest()</text>
<text text-anchor="start" x="267" y="-51.5" font-family="Helvetica,sans-Serif" font-size="10.00">&#45;</text>
<text text-anchor="start" x="277.5" y="-51.5" font-family="Helvetica,sans-Serif" font-size="10.00">fetchComponentInfo()</text>
<text text-anchor="start" x="267" y="-36.5" font-family="Helvetica,sans-Serif" font-size="10.00">&#45;</text>
<text text-anchor="start" x="277.5" y="-36.5" font-family="Helvetica,sans-Serif" font-size="10.00">fetchCadData()</text>
<text text-anchor="start" x="267" y="-21.5" font-family="Helvetica,sans-Serif" font-size="10.00">&#45;</text>
<text text-anchor="start" x="277.5" y="-21.5" font-family="Helvetica,sans-Serif" font-size="10.00">fetch3DModelObj()</text>
<text text-anchor="start" x="267" y="-6.5" font-family="Helvetica,sans-Serif" font-size="10.00">&#45;</text>
<text text-anchor="start" x="277.5" y="-6.5" font-family="Helvetica,sans-Serif" font-size="10.00">fetch3DModelMtl()</text>
<polygon fill="#666666" stroke="#666666" points="260.5,-316.5 260.5,-316.5 401.5,-316.5 401.5,-316.5 260.5,-316.5"/>
<polygon fill="#666666" stroke="#666666" points="260.5,-211.5 260.5,-211.5 275.5,-211.5 275.5,-211.5 260.5,-211.5"/>
<polygon fill="#666666" stroke="#666666" points="275.5,-211.5 275.5,-211.5 401.5,-211.5 401.5,-211.5 275.5,-211.5"/>
<polygon fill="none" stroke="#666666" points="260,0 260,-345 401,-345 401,0 260,0"/>
</a>
</g>
</g>
<!-- Node2 -->
<g id="Node000002" class="node">
<title>Node2</title>
<g id="a_Node000002"><a xlink:href="classEasyKiConverter_1_1BaseWorker.html" target="_top" xlink:title="Base class for all workers with unified lifecycle management">
<polygon fill="white" stroke="transparent" points="498,-739 343,-739 343,-675 498,-675 498,-739"/>
<text text-anchor="start" x="348.5" y="-727" font-family="Helvetica,sans-Serif" font-size="10.00">EasyKiConverter::BaseWorker</text>
<text text-anchor="start" x="419" y="-712" font-family="Helvetica,sans-Serif" font-size="10.00"> </text>
<text text-anchor="start" x="362.5" y="-697" font-family="Helvetica,sans-Serif" font-size="10.00">+</text>
<text text-anchor="start" x="390.5" y="-697" font-family="Helvetica,sans-Serif" font-size="10.00">~BaseWorker()</text>
<text text-anchor="start" x="362.5" y="-682" font-family="Helvetica,sans-Serif" font-size="10.00">#</text>
<text text-anchor="start" x="390.5" y="-682" font-family="Helvetica,sans-Serif" font-size="10.00">BaseWorker()</text>
<polygon fill="#666666" stroke="#666666" points="343.5,-722 343.5,-722 498.5,-722 498.5,-722 343.5,-722"/>
<polygon fill="#666666" stroke="#666666" points="343.5,-707 343.5,-707 498.5,-707 498.5,-707 343.5,-707"/>
<polygon fill="none" stroke="#666666" points="343,-675 343,-739 498,-739 498,-675 343,-675"/>
</a>
</g>
</g>
<!-- Node2&#45;&gt;Node1 -->
<g id="edge1_Node000001_Node000002" class="edge">
<title>Node2&#45;&gt;Node1</title>
<g id="a_edge1_Node000001_Node000002"><a xlink:title=" ">
<path fill="none" stroke="#63b8ff" d="M416.44,-664.41C409.8,-599.67 395.35,-470.99 375.5,-363 374.41,-357.1 373.26,-351.1 372.06,-345.05"/>
<polygon fill="none" stroke="#63b8ff" points="412.98,-665.02 417.47,-674.62 419.95,-664.32 412.98,-665.02"/>
</a>
</g>
</g>
<!-- Node3 -->
<g id="Node000003" class="node">
<title>Node3</title>
<g id="a_Node000003"><a xlink:title=" ">
<polygon fill="white" stroke="transparent" points="378.5,-1168.5 328.5,-1168.5 328.5,-1119.5 378.5,-1119.5 378.5,-1168.5"/>
<text text-anchor="start" x="333.5" y="-1156" font-family="Helvetica,sans-Serif" font-size="10.00">QObject</text>
<text text-anchor="start" x="351.5" y="-1141" font-family="Helvetica,sans-Serif" font-size="10.00"> </text>
<text text-anchor="start" x="351.5" y="-1126" font-family="Helvetica,sans-Serif" font-size="10.00"> </text>
<polygon fill="#666666" stroke="#666666" points="328.5,-1151 328.5,-1151 378.5,-1151 378.5,-1151 328.5,-1151"/>
<polygon fill="#666666" stroke="#666666" points="328.5,-1136 328.5,-1136 378.5,-1136 378.5,-1136 328.5,-1136"/>
<polygon fill="none" stroke="#666666" points="328.5,-1119.5 328.5,-1168.5 378.5,-1168.5 378.5,-1119.5 328.5,-1119.5"/>
</a>
</g>
</g>
<!-- Node3&#45;&gt;Node2 -->
<g id="edge2_Node000002_Node000003" class="edge">
<title>Node3&#45;&gt;Node2</title>
<g id="a_edge2_Node000002_Node000003"><a xlink:title=" ">
<path fill="none" stroke="#63b8ff" d="M358.7,-1109.27C371.33,-1027.25 403.52,-818.27 415.71,-739.07"/>
<polygon fill="none" stroke="#63b8ff" points="355.21,-1108.89 357.15,-1119.3 362.13,-1109.95 355.21,-1108.89"/>
</a>
</g>
</g>
<!-- Node5 -->
<g id="Node000005" class="node">
<title>Node5</title>
<g id="a_Node000005"><a xlink:href="classEasyKiConverter_1_1AsyncNetworkRequest.html" target="_top" xlink:title="异步网络请求，支持取消">
<polygon fill="white" stroke="transparent" points="325,-1022 156,-1022 156,-392 325,-392 325,-1022"/>
<text text-anchor="start" x="162" y="-1010" font-family="Helvetica,sans-Serif" font-size="10.00">EasyKiConverter::AsyncNetwork</text>
<text text-anchor="start" x="221" y="-999" font-family="Helvetica,sans-Serif" font-size="10.00">Request</text>
<text text-anchor="start" x="163" y="-984" font-family="Helvetica,sans-Serif" font-size="10.00">&#45;</text>
<text text-anchor="start" x="173.5" y="-984" font-family="Helvetica,sans-Serif" font-size="10.00">m_url</text>
<text text-anchor="start" x="163" y="-969" font-family="Helvetica,sans-Serif" font-size="10.00">&#45;</text>
<text text-anchor="start" x="173.5" y="-969" font-family="Helvetica,sans-Serif" font-size="10.00">m_networkManager</text>
<text text-anchor="start" x="163" y="-954" font-family="Helvetica,sans-Serif" font-size="10.00">&#45;</text>
<text text-anchor="start" x="173.5" y="-954" font-family="Helvetica,sans-Serif" font-size="10.00">m_resourceType</text>
<text text-anchor="start" x="163" y="-939" font-family="Helvetica,sans-Serif" font-size="10.00">&#45;</text>
<text text-anchor="start" x="173.5" y="-939" font-family="Helvetica,sans-Serif" font-size="10.00">m_postBody</text>
<text text-anchor="start" x="163" y="-924" font-family="Helvetica,sans-Serif" font-size="10.00">&#45;</text>
<text text-anchor="start" x="173.5" y="-924" font-family="Helvetica,sans-Serif" font-size="10.00">m_isPostRequest</text>
<text text-anchor="start" x="163" y="-909" font-family="Helvetica,sans-Serif" font-size="10.00">&#45;</text>
<text text-anchor="start" x="173.5" y="-909" font-family="Helvetica,sans-Serif" font-size="10.00">m_cancelled</text>
<text text-anchor="start" x="163" y="-894" font-family="Helvetica,sans-Serif" font-size="10.00">&#45;</text>
<text text-anchor="start" x="173.5" y="-894" font-family="Helvetica,sans-Serif" font-size="10.00">m_finished</text>
<text text-anchor="start" x="163" y="-879" font-family="Helvetica,sans-Serif" font-size="10.00">&#45;</text>
<text text-anchor="start" x="173.5" y="-879" font-family="Helvetica,sans-Serif" font-size="10.00">m_resultMutex</text>
<text text-anchor="start" x="163" y="-864" font-family="Helvetica,sans-Serif" font-size="10.00">&#45;</text>
<text text-anchor="start" x="173.5" y="-864" font-family="Helvetica,sans-Serif" font-size="10.00">m_currentReply</text>
<text text-anchor="start" x="163" y="-849" font-family="Helvetica,sans-Serif" font-size="10.00">&#45;</text>
<text text-anchor="start" x="173.5" y="-849" font-family="Helvetica,sans-Serif" font-size="10.00">m_timeoutTimer</text>
<text text-anchor="start" x="173.5" y="-834" font-family="Helvetica,sans-Serif" font-size="10.00">和 6 更多...</text>
<text text-anchor="start" x="163" y="-819" font-family="Helvetica,sans-Serif" font-size="10.00">&#45;</text>
<text text-anchor="start" x="173.5" y="-819" font-family="Helvetica,sans-Serif" font-size="10.00">s_emptyReplies</text>
<text text-anchor="start" x="160.5" y="-804" font-family="Helvetica,sans-Serif" font-size="10.00">+</text>
<text text-anchor="start" x="173.5" y="-804" font-family="Helvetica,sans-Serif" font-size="10.00">completeWithResultDelayed()</text>
<text text-anchor="start" x="160.5" y="-789" font-family="Helvetica,sans-Serif" font-size="10.00">+</text>
<text text-anchor="start" x="173.5" y="-789" font-family="Helvetica,sans-Serif" font-size="10.00">~AsyncNetworkRequest()</text>
<text text-anchor="start" x="160.5" y="-774" font-family="Helvetica,sans-Serif" font-size="10.00">+</text>
<text text-anchor="start" x="173.5" y="-774" font-family="Helvetica,sans-Serif" font-size="10.00">cancel()</text>
<text text-anchor="start" x="160.5" y="-759" font-family="Helvetica,sans-Serif" font-size="10.00">+</text>
<text text-anchor="start" x="173.5" y="-759" font-family="Helvetica,sans-Serif" font-size="10.00">isCancelled()</text>
<text text-anchor="start" x="160.5" y="-744" font-family="Helvetica,sans-Serif" font-size="10.00">+</text>
<text text-anchor="start" x="173.5" y="-744" font-family="Helvetica,sans-Serif" font-size="10.00">isFinished()</text>
<text text-anchor="start" x="160.5" y="-729" font-family="Helvetica,sans-Serif" font-size="10.00">+</text>
<text text-anchor="start" x="173.5" y="-729" font-family="Helvetica,sans-Serif" font-size="10.00">result()</text>
<text text-anchor="start" x="160.5" y="-714" font-family="Helvetica,sans-Serif" font-size="10.00">+</text>
<text text-anchor="start" x="173.5" y="-714" font-family="Helvetica,sans-Serif" font-size="10.00">setTimeoutMs()</text>
<text text-anchor="start" x="160.5" y="-699" font-family="Helvetica,sans-Serif" font-size="10.00">+</text>
<text text-anchor="start" x="173.5" y="-699" font-family="Helvetica,sans-Serif" font-size="10.00">currentRetryCount()</text>
<text text-anchor="start" x="160.5" y="-684" font-family="Helvetica,sans-Serif" font-size="10.00">+</text>
<text text-anchor="start" x="173.5" y="-684" font-family="Helvetica,sans-Serif" font-size="10.00">finished()</text>
<text text-anchor="start" x="160.5" y="-669" font-family="Helvetica,sans-Serif" font-size="10.00">+</text>
<text text-anchor="start" x="173.5" y="-669" font-family="Helvetica,sans-Serif" font-size="10.00">downloadProgress()</text>
<text text-anchor="start" x="160.5" y="-654" font-family="Helvetica,sans-Serif" font-size="10.00">+</text>
<text text-anchor="start" x="173.5" y="-654" font-family="Helvetica,sans-Serif" font-size="10.00">timeout()</text>
<text text-anchor="start" x="160.5" y="-639" font-family="Helvetica,sans-Serif" font-size="10.00">+</text>
<text text-anchor="start" x="173.5" y="-639" font-family="Helvetica,sans-Serif" font-size="10.00">retrying()</text>
<text text-anchor="start" x="160.5" y="-624" font-family="Helvetica,sans-Serif" font-size="10.00">+</text>
<text text-anchor="start" x="173.5" y="-624" font-family="Helvetica,sans-Serif" font-size="10.00">createFinished()</text>
<text text-anchor="start" x="163" y="-609" font-family="Helvetica,sans-Serif" font-size="10.00">&#45;</text>
<text text-anchor="start" x="173.5" y="-609" font-family="Helvetica,sans-Serif" font-size="10.00">AsyncNetworkRequest()</text>
<text text-anchor="start" x="163" y="-594" font-family="Helvetica,sans-Serif" font-size="10.00">&#45;</text>
<text text-anchor="start" x="173.5" y="-594" font-family="Helvetica,sans-Serif" font-size="10.00">start()</text>
<text text-anchor="start" x="163" y="-579" font-family="Helvetica,sans-Serif" font-size="10.00">&#45;</text>
<text text-anchor="start" x="173.5" y="-579" font-family="Helvetica,sans-Serif" font-size="10.00">startAttempt()</text>
<text text-anchor="start" x="163" y="-564" font-family="Helvetica,sans-Serif" font-size="10.00">&#45;</text>
<text text-anchor="start" x="173.5" y="-564" font-family="Helvetica,sans-Serif" font-size="10.00">handleAttemptFinished()</text>
<text text-anchor="start" x="163" y="-549" font-family="Helvetica,sans-Serif" font-size="10.00">&#45;</text>
<text text-anchor="start" x="173.5" y="-549" font-family="Helvetica,sans-Serif" font-size="10.00">handleTimeout()</text>
<text text-anchor="start" x="163" y="-534" font-family="Helvetica,sans-Serif" font-size="10.00">&#45;</text>
<text text-anchor="start" x="173.5" y="-534" font-family="Helvetica,sans-Serif" font-size="10.00">handleDownloadProgress()</text>
<text text-anchor="start" x="163" y="-519" font-family="Helvetica,sans-Serif" font-size="10.00">&#45;</text>
<text text-anchor="start" x="173.5" y="-519" font-family="Helvetica,sans-Serif" font-size="10.00">processResponse()</text>
<text text-anchor="start" x="163" y="-504" font-family="Helvetica,sans-Serif" font-size="10.00">&#45;</text>
<text text-anchor="start" x="173.5" y="-504" font-family="Helvetica,sans-Serif" font-size="10.00">scheduleRetry()</text>
<text text-anchor="start" x="163" y="-489" font-family="Helvetica,sans-Serif" font-size="10.00">&#45;</text>
<text text-anchor="start" x="173.5" y="-489" font-family="Helvetica,sans-Serif" font-size="10.00">calculateRetryDelay()</text>
<text text-anchor="start" x="163" y="-474" font-family="Helvetica,sans-Serif" font-size="10.00">&#45;</text>
<text text-anchor="start" x="173.5" y="-474" font-family="Helvetica,sans-Serif" font-size="10.00">shouldRetryInternal()</text>
<text text-anchor="start" x="163" y="-459" font-family="Helvetica,sans-Serif" font-size="10.00">&#45;</text>
<text text-anchor="start" x="173.5" y="-459" font-family="Helvetica,sans-Serif" font-size="10.00">cleanupAttempt()</text>
<text text-anchor="start" x="163" y="-444" font-family="Helvetica,sans-Serif" font-size="10.00">&#45;</text>
<text text-anchor="start" x="173.5" y="-444" font-family="Helvetica,sans-Serif" font-size="10.00">completeWithResult()</text>
<text text-anchor="start" x="163" y="-429" font-family="Helvetica,sans-Serif" font-size="10.00">&#45;</text>
<text text-anchor="start" x="173.5" y="-429" font-family="Helvetica,sans-Serif" font-size="10.00">cancelledResult()</text>
<text text-anchor="start" x="163" y="-414" font-family="Helvetica,sans-Serif" font-size="10.00">&#45;</text>
<text text-anchor="start" x="173.5" y="-414" font-family="Helvetica,sans-Serif" font-size="10.00">timeoutResult()</text>
<text text-anchor="start" x="163" y="-399" font-family="Helvetica,sans-Serif" font-size="10.00">&#45;</text>
<text text-anchor="start" x="173.5" y="-399" font-family="Helvetica,sans-Serif" font-size="10.00">hasActiveReply()</text>
<polygon fill="#666666" stroke="#666666" points="156.5,-994 156.5,-994 325.5,-994 325.5,-994 156.5,-994"/>
<polygon fill="#666666" stroke="#666666" points="156.5,-814 156.5,-814 171.5,-814 171.5,-814 156.5,-814"/>
<polygon fill="#666666" stroke="#666666" points="171.5,-814 171.5,-814 325.5,-814 325.5,-814 171.5,-814"/>
<polygon fill="none" stroke="#666666" points="156,-392 156,-1022 325,-1022 325,-392 156,-392"/>
</a>
</g>
</g>
<!-- Node3&#45;&gt;Node5 -->
<g id="edge5_Node000005_Node000003" class="edge">
<title>Node3&#45;&gt;Node5</title>
<g id="a_edge5_Node000005_Node000003"><a xlink:title=" ">
<path fill="none" stroke="#63b8ff" d="M344.77,-1109.38C339.13,-1087.67 331.17,-1057.02 322.13,-1022.23"/>
<polygon fill="none" stroke="#63b8ff" points="341.44,-1110.5 347.34,-1119.3 348.22,-1108.74 341.44,-1110.5"/>
</a>
</g>
</g>
<!-- Node4 -->
<g id="Node000004" class="node">
<title>Node4</title>
<g id="a_Node000004"><a xlink:title=" ">
<polygon fill="white" stroke="transparent" points="460.5,-1168.5 396.5,-1168.5 396.5,-1119.5 460.5,-1119.5 460.5,-1168.5"/>
<text text-anchor="start" x="401.5" y="-1156" font-family="Helvetica,sans-Serif" font-size="10.00">QRunnable</text>
<text text-anchor="start" x="426.5" y="-1141" font-family="Helvetica,sans-Serif" font-size="10.00"> </text>
<text text-anchor="start" x="426.5" y="-1126" font-family="Helvetica,sans-Serif" font-size="10.00"> </text>
<polygon fill="#666666" stroke="#666666" points="396.5,-1151 396.5,-1151 460.5,-1151 460.5,-1151 396.5,-1151"/>
<polygon fill="#666666" stroke="#666666" points="396.5,-1136 396.5,-1136 460.5,-1136 460.5,-1136 396.5,-1136"/>
<polygon fill="none" stroke="#666666" points="396.5,-1119.5 396.5,-1168.5 460.5,-1168.5 460.5,-1119.5 396.5,-1119.5"/>
</a>
</g>
</g>
<!-- Node4&#45;&gt;Node2 -->
<g id="edge3_Node000002_Node000004" class="edge">
<title>Node4&#45;&gt;Node2</title>
<g id="a_edge3_Node000002_Node000004"><a xlink:title=" ">
<path fill="none" stroke="#63b8ff" d="M427.88,-1109.27C426.37,-1027.25 422.53,-818.27 421.07,-739.07"/>
<polygon fill="none" stroke="#63b8ff" points="424.38,-1109.37 428.06,-1119.3 431.38,-1109.24 424.38,-1109.37"/>
</a>
</g>
</g>
<!-- Node5&#45;&gt;Node1 -->
<g id="edge4_Node000001_Node000005" class="edge">
<title>Node5&#45;&gt;Node1</title>
<g id="a_edge4_Node000001_Node000005"><a xlink:title=" ">
<path fill="none" stroke="#63b8ff" d="M269.27,-391.63C270.92,-381.96 272.66,-372.4 274.5,-363 274.9,-360.97 275.3,-358.94 275.72,-356.9"/>
<polygon fill="none" stroke="#63b8ff" points="275.73,-356.86 273.08,-350.15 278.25,-345.12 280.9,-351.83 275.73,-356.86"/>
</a>
</g>
<text text-anchor="middle" x="323" y="-366" font-family="Helvetica,sans-Serif" font-size="10.00" fill="grey"> &#45;m_currentRequest</text>
</g>
<!-- Node6 -->
<g id="Node000006" class="node">
<title>Node6</title>
<g id="a_Node000006"><a xlink:href="structEasyKiConverter_1_1RetryPolicy.html" target="_top" xlink:title="网络请求重试策略">
<polygon fill="white" stroke="transparent" points="153,-1198.5 0,-1198.5 0,-1089.5 153,-1089.5 153,-1198.5"/>
<text text-anchor="start" x="5.5" y="-1186" font-family="Helvetica,sans-Serif" font-size="10.00">EasyKiConverter::RetryPolicy</text>
<text text-anchor="start" x="11" y="-1171" font-family="Helvetica,sans-Serif" font-size="10.00">+</text>
<text text-anchor="start" x="30.5" y="-1171" font-family="Helvetica,sans-Serif" font-size="10.00">maxRetries</text>
<text text-anchor="start" x="11" y="-1156" font-family="Helvetica,sans-Serif" font-size="10.00">+</text>
<text text-anchor="start" x="30.5" y="-1156" font-family="Helvetica,sans-Serif" font-size="10.00">baseTimeoutMs</text>
<text text-anchor="start" x="11" y="-1141" font-family="Helvetica,sans-Serif" font-size="10.00">+</text>
<text text-anchor="start" x="30.5" y="-1141" font-family="Helvetica,sans-Serif" font-size="10.00">jitterFactor</text>
<text text-anchor="start" x="11" y="-1126" font-family="Helvetica,sans-Serif" font-size="10.00">+</text>
<text text-anchor="start" x="30.5" y="-1126" font-family="Helvetica,sans-Serif" font-size="10.00">delays</text>
<text text-anchor="start" x="11" y="-1111" font-family="Helvetica,sans-Serif" font-size="10.00">+</text>
<text text-anchor="start" x="30.5" y="-1111" font-family="Helvetica,sans-Serif" font-size="10.00">retryableStatusCodes</text>
<text text-anchor="start" x="11" y="-1096" font-family="Helvetica,sans-Serif" font-size="10.00">+</text>
<text text-anchor="start" x="30.5" y="-1096" font-family="Helvetica,sans-Serif" font-size="10.00">fromProfile()</text>
<polygon fill="#666666" stroke="#666666" points="0.5,-1181 0.5,-1181 153.5,-1181 153.5,-1181 0.5,-1181"/>
<polygon fill="#666666" stroke="#666666" points="0.5,-1106 0.5,-1106 28.5,-1106 28.5,-1106 0.5,-1106"/>
<polygon fill="#666666" stroke="#666666" points="28.5,-1106 28.5,-1106 153.5,-1106 153.5,-1106 28.5,-1106"/>
<polygon fill="none" stroke="#666666" points="0,-1089.5 0,-1198.5 153,-1198.5 153,-1089.5 0,-1089.5"/>
</a>
</g>
</g>
<!-- Node6&#45;&gt;Node5 -->
<g id="edge6_Node000005_Node000006" class="edge">
<title>Node6&#45;&gt;Node5</title>
<g id="a_edge6_Node000005_Node000006"><a xlink:title=" ">
<path fill="none" stroke="#63b8ff" d="M96.77,-1089.22C110.97,-1051.58 131.01,-998.41 151.64,-943.7"/>
<polygon fill="none" stroke="#63b8ff" points="151.68,-943.6 150.05,-936.57 155.91,-932.37 157.54,-939.4 151.68,-943.6"/>
</a>
</g>
<text text-anchor="middle" x="138.5" y="-1043" font-family="Helvetica,sans-Serif" font-size="10.00" fill="grey"> &#45;m_policy</text>
</g>
<!-- Node7 -->
<g id="Node000007" class="node">
<title>Node7</title>
<g id="a_Node000007"><a xlink:href="structEasyKiConverter_1_1NetworkResult.html" target="_top" xlink:title="网络请求结果">
<polygon fill="white" stroke="transparent" points="310,-1219 171,-1219 171,-1069 310,-1069 310,-1219"/>
<text text-anchor="start" x="176.5" y="-1207" font-family="Helvetica,sans-Serif" font-size="10.00">EasyKiConverter::Network</text>
<text text-anchor="start" x="225.5" y="-1196" font-family="Helvetica,sans-Serif" font-size="10.00">Result</text>
<text text-anchor="start" x="188" y="-1181" font-family="Helvetica,sans-Serif" font-size="10.00">+</text>
<text text-anchor="start" x="213.5" y="-1181" font-family="Helvetica,sans-Serif" font-size="10.00">data</text>
<text text-anchor="start" x="188" y="-1166" font-family="Helvetica,sans-Serif" font-size="10.00">+</text>
<text text-anchor="start" x="213.5" y="-1166" font-family="Helvetica,sans-Serif" font-size="10.00">statusCode</text>
<text text-anchor="start" x="188" y="-1151" font-family="Helvetica,sans-Serif" font-size="10.00">+</text>
<text text-anchor="start" x="213.5" y="-1151" font-family="Helvetica,sans-Serif" font-size="10.00">error</text>
<text text-anchor="start" x="188" y="-1136" font-family="Helvetica,sans-Serif" font-size="10.00">+</text>
<text text-anchor="start" x="213.5" y="-1136" font-family="Helvetica,sans-Serif" font-size="10.00">retryCount</text>
<text text-anchor="start" x="188" y="-1121" font-family="Helvetica,sans-Serif" font-size="10.00">+</text>
<text text-anchor="start" x="213.5" y="-1121" font-family="Helvetica,sans-Serif" font-size="10.00">elapsedMs</text>
<text text-anchor="start" x="188" y="-1106" font-family="Helvetica,sans-Serif" font-size="10.00">+</text>
<text text-anchor="start" x="213.5" y="-1106" font-family="Helvetica,sans-Serif" font-size="10.00">success</text>
<text text-anchor="start" x="188" y="-1091" font-family="Helvetica,sans-Serif" font-size="10.00">+</text>
<text text-anchor="start" x="213.5" y="-1091" font-family="Helvetica,sans-Serif" font-size="10.00">wasCancelled</text>
<text text-anchor="start" x="239" y="-1076" font-family="Helvetica,sans-Serif" font-size="10.00"> </text>
<polygon fill="#666666" stroke="#666666" points="171.5,-1191 171.5,-1191 310.5,-1191 310.5,-1191 171.5,-1191"/>
<polygon fill="#666666" stroke="#666666" points="171.5,-1086 171.5,-1086 211.5,-1086 211.5,-1086 171.5,-1086"/>
<polygon fill="#666666" stroke="#666666" points="211.5,-1086 211.5,-1086 310.5,-1086 310.5,-1086 211.5,-1086"/>
<polygon fill="none" stroke="#666666" points="171,-1069 171,-1219 310,-1219 310,-1069 171,-1069"/>
</a>
</g>
</g>
<!-- Node7&#45;&gt;Node5 -->
<g id="edge7_Node000005_Node000007" class="edge">
<title>Node7&#45;&gt;Node5</title>
<g id="a_edge7_Node000005_Node000007"><a xlink:title=" ">
<path fill="none" stroke="#63b8ff" d="M240.5,-1068.72C240.5,-1058.07 240.5,-1046.6 240.5,-1034.52"/>
<polygon fill="none" stroke="#63b8ff" points="240.5,-1034.25 236.5,-1028.25 240.5,-1022.25 244.5,-1028.25 240.5,-1034.25"/>
</a>
</g>
<text text-anchor="middle" x="265.5" y="-1043" font-family="Helvetica,sans-Serif" font-size="10.00" fill="grey"> &#45;m_result</text>
</g>
<!-- Node8 -->
<g id="Node000008" class="node">
<title>Node8</title>
<g id="a_Node000008"><a xlink:href="structEasyKiConverter_1_1NetworkDiagnostic.html" target="_top" xlink:title="网络请求的统一诊断信息">
<polygon fill="white" stroke="transparent" points="310,-1476 171,-1476 171,-1266 310,-1266 310,-1476"/>
<text text-anchor="start" x="176.5" y="-1464" font-family="Helvetica,sans-Serif" font-size="10.00">EasyKiConverter::Network</text>
<text text-anchor="start" x="215" y="-1453" font-family="Helvetica,sans-Serif" font-size="10.00">Diagnostic</text>
<text text-anchor="start" x="181.5" y="-1438" font-family="Helvetica,sans-Serif" font-size="10.00">+</text>
<text text-anchor="start" x="200.5" y="-1438" font-family="Helvetica,sans-Serif" font-size="10.00">url</text>
<text text-anchor="start" x="181.5" y="-1423" font-family="Helvetica,sans-Serif" font-size="10.00">+</text>
<text text-anchor="start" x="200.5" y="-1423" font-family="Helvetica,sans-Serif" font-size="10.00">host</text>
<text text-anchor="start" x="181.5" y="-1408" font-family="Helvetica,sans-Serif" font-size="10.00">+</text>
<text text-anchor="start" x="200.5" y="-1408" font-family="Helvetica,sans-Serif" font-size="10.00">resourceType</text>
<text text-anchor="start" x="181.5" y="-1393" font-family="Helvetica,sans-Serif" font-size="10.00">+</text>
<text text-anchor="start" x="200.5" y="-1393" font-family="Helvetica,sans-Serif" font-size="10.00">profileName</text>
<text text-anchor="start" x="181.5" y="-1378" font-family="Helvetica,sans-Serif" font-size="10.00">+</text>
<text text-anchor="start" x="200.5" y="-1378" font-family="Helvetica,sans-Serif" font-size="10.00">statusCode</text>
<text text-anchor="start" x="181.5" y="-1363" font-family="Helvetica,sans-Serif" font-size="10.00">+</text>
<text text-anchor="start" x="200.5" y="-1363" font-family="Helvetica,sans-Serif" font-size="10.00">errorType</text>
<text text-anchor="start" x="181.5" y="-1348" font-family="Helvetica,sans-Serif" font-size="10.00">+</text>
<text text-anchor="start" x="200.5" y="-1348" font-family="Helvetica,sans-Serif" font-size="10.00">errorMessage</text>
<text text-anchor="start" x="181.5" y="-1333" font-family="Helvetica,sans-Serif" font-size="10.00">+</text>
<text text-anchor="start" x="200.5" y="-1333" font-family="Helvetica,sans-Serif" font-size="10.00">retryCount</text>
<text text-anchor="start" x="181.5" y="-1318" font-family="Helvetica,sans-Serif" font-size="10.00">+</text>
<text text-anchor="start" x="200.5" y="-1318" font-family="Helvetica,sans-Serif" font-size="10.00">latencyMs</text>
<text text-anchor="start" x="181.5" y="-1303" font-family="Helvetica,sans-Serif" font-size="10.00">+</text>
<text text-anchor="start" x="200.5" y="-1303" font-family="Helvetica,sans-Serif" font-size="10.00">totalElapsedMs</text>
<text text-anchor="start" x="200.5" y="-1288" font-family="Helvetica,sans-Serif" font-size="10.00">和 10 更多...</text>
<text text-anchor="start" x="181.5" y="-1273" font-family="Helvetica,sans-Serif" font-size="10.00">+</text>
<text text-anchor="start" x="200.5" y="-1273" font-family="Helvetica,sans-Serif" font-size="10.00">errorTypeToString()</text>
<polygon fill="#666666" stroke="#666666" points="171.5,-1448 171.5,-1448 310.5,-1448 310.5,-1448 171.5,-1448"/>
<polygon fill="#666666" stroke="#666666" points="171.5,-1283 171.5,-1283 198.5,-1283 198.5,-1283 171.5,-1283"/>
<polygon fill="#666666" stroke="#666666" points="198.5,-1283 198.5,-1283 310.5,-1283 310.5,-1283 198.5,-1283"/>
<polygon fill="none" stroke="#666666" points="171,-1266 171,-1476 310,-1476 310,-1266 171,-1266"/>
</a>
</g>
</g>
<!-- Node8&#45;&gt;Node7 -->
<g id="edge8_Node000007_Node000008" class="edge">
<title>Node8&#45;&gt;Node7</title>
<g id="a_edge8_Node000007_Node000008"><a xlink:title=" ">
<path fill="none" stroke="#63b8ff" d="M240.5,-1265.73C240.5,-1254.17 240.5,-1242.49 240.5,-1231.18"/>
<polygon fill="none" stroke="#63b8ff" points="240.5,-1231.08 236.5,-1225.08 240.5,-1219.08 244.5,-1225.08 240.5,-1231.08"/>
</a>
</g>
<text text-anchor="middle" x="271.5" y="-1240" font-family="Helvetica,sans-Serif" font-size="10.00" fill="grey"> +diagnostic</text>
</g>
</g>
</svg>
