<?xml version="1.0" encoding="UTF-8" standalone="no"?>
<!DOCTYPE svg PUBLIC "-//W3C//DTD SVG 1.1//EN"
 "http://www.w3.org/Graphics/SVG/1.1/DTD/svg11.dtd">
<!-- Generated by graphviz version 2.43.0 (0)
 -->
<!-- Title: EasyKiConverter::BatchConverter Pages: 1 -->
<svg width="181pt" height="542pt"
 viewBox="0.00 0.00 181.00 542.00" xmlns="http://www.w3.org/2000/svg" xmlns:xlink="http://www.w3.org/1999/xlink">
<g id="graph0" class="graph" transform="scale(1 1) rotate(0) translate(4 538)">
<title>EasyKiConverter::BatchConverter</title>
<!-- Node1 -->
<g id="Node000001" class="node">
<title>Node1</title>
<g id="a_Node000001"><a xlink:title="批量转换器">
<polygon fill="#999999" stroke="transparent" points="173,-184 0,-184 0,0 173,0 173,-184"/>
<text text-anchor="start" x="5.5" y="-172" font-family="Helvetica,sans-Serif" font-size="10.00">EasyKiConverter::BatchConverter</text>
<text text-anchor="start" x="17.5" y="-157" font-family="Helvetica,sans-Serif" font-size="10.00">&#45;</text>
<text text-anchor="start" x="38.5" y="-157" font-family="Helvetica,sans-Serif" font-size="10.00">m_exportFinished</text>
<text text-anchor="start" x="17.5" y="-142" font-family="Helvetica,sans-Serif" font-size="10.00">&#45;</text>
<text text-anchor="start" x="38.5" y="-142" font-family="Helvetica,sans-Serif" font-size="10.00">m_exportSuccess</text>
<text text-anchor="start" x="17.5" y="-127" font-family="Helvetica,sans-Serif" font-size="10.00">&#45;</text>
<text text-anchor="start" x="38.5" y="-127" font-family="Helvetica,sans-Serif" font-size="10.00">m_successCount</text>
<text text-anchor="start" x="17.5" y="-112" font-family="Helvetica,sans-Serif" font-size="10.00">&#45;</text>
<text text-anchor="start" x="38.5" y="-112" font-family="Helvetica,sans-Serif" font-size="10.00">m_failedCount</text>
<text text-anchor="start" x="15" y="-97" font-family="Helvetica,sans-Serif" font-size="10.00">+</text>
<text text-anchor="start" x="38.5" y="-97" font-family="Helvetica,sans-Serif" font-size="10.00">BatchConverter()</text>
<text text-anchor="start" x="15" y="-82" font-family="Helvetica,sans-Serif" font-size="10.00">+</text>
<text text-anchor="start" x="38.5" y="-82" font-family="Helvetica,sans-Serif" font-size="10.00">~BatchConverter()</text>
<text text-anchor="start" x="15" y="-67" font-family="Helvetica,sans-Serif" font-size="10.00">+</text>
<text text-anchor="start" x="38.5" y="-67" font-family="Helvetica,sans-Serif" font-size="10.00">execute()</text>
<text text-anchor="start" x="17.5" y="-52" font-family="Helvetica,sans-Serif" font-size="10.00">&#45;</text>
<text text-anchor="start" x="38.5" y="-52" font-family="Helvetica,sans-Serif" font-size="10.00">onPreloadCompleted()</text>
<text text-anchor="start" x="17.5" y="-37" font-family="Helvetica,sans-Serif" font-size="10.00">&#45;</text>
<text text-anchor="start" x="38.5" y="-37" font-family="Helvetica,sans-Serif" font-size="10.00">onProgressChanged()</text>
<text text-anchor="start" x="17.5" y="-22" font-family="Helvetica,sans-Serif" font-size="10.00">&#45;</text>
<text text-anchor="start" x="38.5" y="-22" font-family="Helvetica,sans-Serif" font-size="10.00">onExportCompleted()</text>
<text text-anchor="start" x="17.5" y="-7" font-family="Helvetica,sans-Serif" font-size="10.00">&#45;</text>
<text text-anchor="start" x="38.5" y="-7" font-family="Helvetica,sans-Serif" font-size="10.00">onExportFailed()</text>
<polygon fill="#666666" stroke="#666666" points="0.5,-167 0.5,-167 173.5,-167 173.5,-167 0.5,-167"/>
<polygon fill="#666666" stroke="#666666" points="0.5,-107 0.5,-107 36.5,-107 36.5,-107 0.5,-107"/>
<polygon fill="#666666" stroke="#666666" points="36.5,-107 36.5,-107 173.5,-107 173.5,-107 36.5,-107"/>
<polygon fill="none" stroke="#666666" points="0,0 0,-184 173,-184 173,0 0,0"/>
</a>
</g>
</g>
<!-- Node2 -->
<g id="Node000002" class="node">
<title>Node2</title>
<g id="a_Node000002"><a xlink:href="classEasyKiConverter_1_1BaseConverter.html" target="_top" xlink:title="转换器基类">
<polygon fill="white" stroke="transparent" points="171.5,-449 1.5,-449 1.5,-220 171.5,-220 171.5,-449"/>
<text text-anchor="start" x="6.5" y="-436.5" font-family="Helvetica,sans-Serif" font-size="10.00">EasyKiConverter::BaseConverter</text>
<text text-anchor="start" x="19.5" y="-421.5" font-family="Helvetica,sans-Serif" font-size="10.00">&#45;</text>
<text text-anchor="start" x="41.5" y="-421.5" font-family="Helvetica,sans-Serif" font-size="10.00">m_context</text>
<text text-anchor="start" x="19.5" y="-406.5" font-family="Helvetica,sans-Serif" font-size="10.00">&#45;</text>
<text text-anchor="start" x="41.5" y="-406.5" font-family="Helvetica,sans-Serif" font-size="10.00">m_printer</text>
<text text-anchor="start" x="19.5" y="-391.5" font-family="Helvetica,sans-Serif" font-size="10.00">&#45;</text>
<text text-anchor="start" x="41.5" y="-391.5" font-family="Helvetica,sans-Serif" font-size="10.00">m_errorMessage</text>
<text text-anchor="start" x="17" y="-376.5" font-family="Helvetica,sans-Serif" font-size="10.00">+</text>
<text text-anchor="start" x="41.5" y="-376.5" font-family="Helvetica,sans-Serif" font-size="10.00">BaseConverter()</text>
<text text-anchor="start" x="17" y="-361.5" font-family="Helvetica,sans-Serif" font-size="10.00">+</text>
<text text-anchor="start" x="41.5" y="-361.5" font-family="Helvetica,sans-Serif" font-size="10.00">~BaseConverter()</text>
<text text-anchor="start" x="17" y="-346.5" font-family="Helvetica,sans-Serif" font-size="10.00">+</text>
<text text-anchor="start" x="41.5" y="-346.5" font-family="Helvetica,sans-Serif" font-size="10.00">execute()</text>
<text text-anchor="start" x="17" y="-331.5" font-family="Helvetica,sans-Serif" font-size="10.00">+</text>
<text text-anchor="start" x="41.5" y="-331.5" font-family="Helvetica,sans-Serif" font-size="10.00">errorMessage()</text>
<text text-anchor="start" x="17" y="-316.5" font-family="Helvetica,sans-Serif" font-size="10.00">+</text>
<text text-anchor="start" x="41.5" y="-316.5" font-family="Helvetica,sans-Serif" font-size="10.00">progressUpdated()</text>
<text text-anchor="start" x="17" y="-301.5" font-family="Helvetica,sans-Serif" font-size="10.00">+</text>
<text text-anchor="start" x="41.5" y="-301.5" font-family="Helvetica,sans-Serif" font-size="10.00">conversionFinished()</text>
<text text-anchor="start" x="17" y="-286.5" font-family="Helvetica,sans-Serif" font-size="10.00">#</text>
<text text-anchor="start" x="41.5" y="-286.5" font-family="Helvetica,sans-Serif" font-size="10.00">context()</text>
<text text-anchor="start" x="17" y="-271.5" font-family="Helvetica,sans-Serif" font-size="10.00">#</text>
<text text-anchor="start" x="41.5" y="-271.5" font-family="Helvetica,sans-Serif" font-size="10.00">printer()</text>
<text text-anchor="start" x="17" y="-256.5" font-family="Helvetica,sans-Serif" font-size="10.00">#</text>
<text text-anchor="start" x="41.5" y="-256.5" font-family="Helvetica,sans-Serif" font-size="10.00">setError()</text>
<text text-anchor="start" x="17" y="-241.5" font-family="Helvetica,sans-Serif" font-size="10.00">#</text>
<text text-anchor="start" x="41.5" y="-241.5" font-family="Helvetica,sans-Serif" font-size="10.00">printMessage()</text>
<text text-anchor="start" x="17" y="-226.5" font-family="Helvetica,sans-Serif" font-size="10.00">#</text>
<text text-anchor="start" x="41.5" y="-226.5" font-family="Helvetica,sans-Serif" font-size="10.00">printProgressBar()</text>
<polygon fill="#666666" stroke="#666666" points="1.5,-431.5 1.5,-431.5 171.5,-431.5 171.5,-431.5 1.5,-431.5"/>
<polygon fill="#666666" stroke="#666666" points="1.5,-386.5 1.5,-386.5 39.5,-386.5 39.5,-386.5 1.5,-386.5"/>
<polygon fill="#666666" stroke="#666666" points="39.5,-386.5 39.5,-386.5 171.5,-386.5 171.5,-386.5 39.5,-386.5"/>
<polygon fill="none" stroke="#666666" points="1.5,-220 1.5,-449 171.5,-449 171.5,-220 1.5,-220"/>
</a>
</g>
</g>
<!-- Node2&#45;&gt;Node1 -->
<g id="edge1_Node000001_Node000002" class="edge">
<title>Node2&#45;&gt;Node1</title>
<g id="a_edge1_Node000001_Node000002"><a xlink:title=" ">
<path fill="none" stroke="#63b8ff" d="M86.5,-209.77C86.5,-201.11 86.5,-192.47 86.5,-184.03"/>
<polygon fill="none" stroke="#63b8ff" points="83,-209.94 86.5,-219.94 90,-209.94 83,-209.94"/>
</a>
</g>
</g>
<!-- Node3 -->
<g id="Node000003" class="node">
<title>Node3</title>
<g id="a_Node000003"><a xlink:title=" ">
<polygon fill="white" stroke="transparent" points="111.5,-534 61.5,-534 61.5,-485 111.5,-485 111.5,-534"/>
<text text-anchor="start" x="66.5" y="-521.5" font-family="Helvetica,sans-Serif" font-size="10.00">QObject</text>
<text text-anchor="start" x="84.5" y="-506.5" font-family="Helvetica,sans-Serif" font-size="10.00"> </text>
<text text-anchor="start" x="84.5" y="-491.5" font-family="Helvetica,sans-Serif" font-size="10.00"> </text>
<polygon fill="#666666" stroke="#666666" points="61.5,-516.5 61.5,-516.5 111.5,-516.5 111.5,-516.5 61.5,-516.5"/>
<polygon fill="#666666" stroke="#666666" points="61.5,-501.5 61.5,-501.5 111.5,-501.5 111.5,-501.5 61.5,-501.5"/>
<polygon fill="none" stroke="#666666" points="61.5,-485 61.5,-534 111.5,-534 111.5,-485 61.5,-485"/>
</a>
</g>
</g>
<!-- Node3&#45;&gt;Node2 -->
<g id="edge2_Node000002_Node000003" class="edge">
<title>Node3&#45;&gt;Node2</title>
<g id="a_edge2_Node000002_Node000003"><a xlink:title=" ">
<path fill="none" stroke="#63b8ff" d="M86.5,-474.77C86.5,-466.96 86.5,-458.21 86.5,-449.01"/>
<polygon fill="none" stroke="#63b8ff" points="83,-474.81 86.5,-484.81 90,-474.81 83,-474.81"/>
</a>
</g>
</g>
</g>
</svg>
