<?xml version="1.0" encoding="UTF-8" standalone="no"?>
<!DOCTYPE svg PUBLIC "-//W3C//DTD SVG 1.1//EN"
 "http://www.w3.org/Graphics/SVG/1.1/DTD/svg11.dtd">
<!-- Generated by graphviz version 2.43.0 (0)
 -->
<!-- Title: EasyKiConverter::FetchStageHandler Pages: 1 -->
<svg width="172pt" height="478pt"
 viewBox="0.00 0.00 172.00 478.00" xmlns="http://www.w3.org/2000/svg" xmlns:xlink="http://www.w3.org/1999/xlink">
<g id="graph0" class="graph" transform="scale(1 1) rotate(0) translate(4 474)">
<title>EasyKiConverter::FetchStageHandler</title>
<!-- Node1 -->
<g id="Node000001" class="node">
<title>Node1</title>
<g id="a_Node000001"><a xlink:title="抓取阶段处理器">
<polygon fill="#999999" stroke="transparent" points="163.5,-255 0.5,-255 0.5,0 163.5,0 163.5,-255"/>
<text text-anchor="start" x="11.5" y="-242.5" font-family="Helvetica,sans-Serif" font-size="10.00">EasyKiConverter::FetchStage</text>
<text text-anchor="start" x="63" y="-231.5" font-family="Helvetica,sans-Serif" font-size="10.00">Handler</text>
<text text-anchor="start" x="7.5" y="-216.5" font-family="Helvetica,sans-Serif" font-size="10.00">&#45;</text>
<text text-anchor="start" x="18" y="-216.5" font-family="Helvetica,sans-Serif" font-size="10.00">m_networkManager</text>
<text text-anchor="start" x="7.5" y="-201.5" font-family="Helvetica,sans-Serif" font-size="10.00">&#45;</text>
<text text-anchor="start" x="18" y="-201.5" font-family="Helvetica,sans-Serif" font-size="10.00">m_threadPool</text>
<text text-anchor="start" x="7.5" y="-186.5" font-family="Helvetica,sans-Serif" font-size="10.00">&#45;</text>
<text text-anchor="start" x="18" y="-186.5" font-family="Helvetica,sans-Serif" font-size="10.00">m_componentIds</text>
<text text-anchor="start" x="7.5" y="-171.5" font-family="Helvetica,sans-Serif" font-size="10.00">&#45;</text>
<text text-anchor="start" x="18" y="-171.5" font-family="Helvetica,sans-Serif" font-size="10.00">m_options</text>
<text text-anchor="start" x="7.5" y="-156.5" font-family="Helvetica,sans-Serif" font-size="10.00">&#45;</text>
<text text-anchor="start" x="18" y="-156.5" font-family="Helvetica,sans-Serif" font-size="10.00">m_preloadedData</text>
<text text-anchor="start" x="7.5" y="-141.5" font-family="Helvetica,sans-Serif" font-size="10.00">&#45;</text>
<text text-anchor="start" x="18" y="-141.5" font-family="Helvetica,sans-Serif" font-size="10.00">m_activeWorkers</text>
<text text-anchor="start" x="7.5" y="-126.5" font-family="Helvetica,sans-Serif" font-size="10.00">&#45;</text>
<text text-anchor="start" x="18" y="-126.5" font-family="Helvetica,sans-Serif" font-size="10.00">m_workerMutex</text>
<text text-anchor="start" x="5" y="-111.5" font-family="Helvetica,sans-Serif" font-size="10.00">+</text>
<text text-anchor="start" x="18" y="-111.5" font-family="Helvetica,sans-Serif" font-size="10.00">FetchStageHandler()</text>
<text text-anchor="start" x="5" y="-96.5" font-family="Helvetica,sans-Serif" font-size="10.00">+</text>
<text text-anchor="start" x="18" y="-96.5" font-family="Helvetica,sans-Serif" font-size="10.00">start()</text>
<text text-anchor="start" x="5" y="-81.5" font-family="Helvetica,sans-Serif" font-size="10.00">+</text>
<text text-anchor="start" x="18" y="-81.5" font-family="Helvetica,sans-Serif" font-size="10.00">setComponentIds()</text>
<text text-anchor="start" x="5" y="-66.5" font-family="Helvetica,sans-Serif" font-size="10.00">+</text>
<text text-anchor="start" x="18" y="-66.5" font-family="Helvetica,sans-Serif" font-size="10.00">setOptions()</text>
<text text-anchor="start" x="5" y="-51.5" font-family="Helvetica,sans-Serif" font-size="10.00">+</text>
<text text-anchor="start" x="18" y="-51.5" font-family="Helvetica,sans-Serif" font-size="10.00">setPreloadedData()</text>
<text text-anchor="start" x="5" y="-36.5" font-family="Helvetica,sans-Serif" font-size="10.00">+</text>
<text text-anchor="start" x="18" y="-36.5" font-family="Helvetica,sans-Serif" font-size="10.00">stop()</text>
<text text-anchor="start" x="5" y="-21.5" font-family="Helvetica,sans-Serif" font-size="10.00">+</text>
<text text-anchor="start" x="18" y="-21.5" font-family="Helvetica,sans-Serif" font-size="10.00">componentFetchCompleted()</text>
<text text-anchor="start" x="7.5" y="-6.5" font-family="Helvetica,sans-Serif" font-size="10.00">&#45;</text>
<text text-anchor="start" x="18" y="-6.5" font-family="Helvetica,sans-Serif" font-size="10.00">onWorkerCompleted()</text>
<polygon fill="#666666" stroke="#666666" points="1,-226.5 1,-226.5 164,-226.5 164,-226.5 1,-226.5"/>
<polygon fill="#666666" stroke="#666666" points="1,-121.5 1,-121.5 16,-121.5 16,-121.5 1,-121.5"/>
<polygon fill="#666666" stroke="#666666" points="16,-121.5 16,-121.5 164,-121.5 164,-121.5 16,-121.5"/>
<polygon fill="none" stroke="#666666" points="0.5,0 0.5,-255 163.5,-255 163.5,0 0.5,0"/>
</a>
</g>
</g>
<!-- Node2 -->
<g id="Node000002" class="node">
<title>Node2</title>
<g id="a_Node000002"><a xlink:href="classEasyKiConverter_1_1StageHandler.html" target="_top" xlink:title="流水线阶段处理器基类">
<polygon fill="white" stroke="transparent" points="164,-385 0,-385 0,-291 164,-291 164,-385"/>
<text text-anchor="start" x="5" y="-373" font-family="Helvetica,sans-Serif" font-size="10.00">EasyKiConverter::StageHandler</text>
<text text-anchor="start" x="19" y="-358" font-family="Helvetica,sans-Serif" font-size="10.00">#</text>
<text text-anchor="start" x="47" y="-358" font-family="Helvetica,sans-Serif" font-size="10.00">m_isCancelled</text>
<text text-anchor="start" x="19" y="-343" font-family="Helvetica,sans-Serif" font-size="10.00">+</text>
<text text-anchor="start" x="47" y="-343" font-family="Helvetica,sans-Serif" font-size="10.00">StageHandler()</text>
<text text-anchor="start" x="19" y="-328" font-family="Helvetica,sans-Serif" font-size="10.00">+</text>
<text text-anchor="start" x="47" y="-328" font-family="Helvetica,sans-Serif" font-size="10.00">~StageHandler()</text>
<text text-anchor="start" x="19" y="-313" font-family="Helvetica,sans-Serif" font-size="10.00">+</text>
<text text-anchor="start" x="47" y="-313" font-family="Helvetica,sans-Serif" font-size="10.00">start()</text>
<text text-anchor="start" x="19" y="-298" font-family="Helvetica,sans-Serif" font-size="10.00">+</text>
<text text-anchor="start" x="47" y="-298" font-family="Helvetica,sans-Serif" font-size="10.00">stop()</text>
<polygon fill="#666666" stroke="#666666" points="0,-368 0,-368 164,-368 164,-368 0,-368"/>
<polygon fill="#666666" stroke="#666666" points="0,-353 0,-353 45,-353 45,-353 0,-353"/>
<polygon fill="#666666" stroke="#666666" points="45,-353 45,-353 164,-353 164,-353 45,-353"/>
<polygon fill="none" stroke="#666666" points="0,-291 0,-385 164,-385 164,-291 0,-291"/>
</a>
</g>
</g>
<!-- Node2&#45;&gt;Node1 -->
<g id="edge1_Node000001_Node000002" class="edge">
<title>Node2&#45;&gt;Node1</title>
<g id="a_edge1_Node000001_Node000002"><a xlink:title=" ">
<path fill="none" stroke="#63b8ff" d="M82,-280.96C82,-272.81 82,-264.16 82,-255.28"/>
<polygon fill="none" stroke="#63b8ff" points="78.5,-280.99 82,-290.99 85.5,-280.99 78.5,-280.99"/>
</a>
</g>
</g>
<!-- Node3 -->
<g id="Node000003" class="node">
<title>Node3</title>
<g id="a_Node000003"><a xlink:title=" ">
<polygon fill="white" stroke="transparent" points="107,-470 57,-470 57,-421 107,-421 107,-470"/>
<text text-anchor="start" x="62" y="-457.5" font-family="Helvetica,sans-Serif" font-size="10.00">QObject</text>
<text text-anchor="start" x="80" y="-442.5" font-family="Helvetica,sans-Serif" font-size="10.00"> </text>
<text text-anchor="start" x="80" y="-427.5" font-family="Helvetica,sans-Serif" font-size="10.00"> </text>
<polygon fill="#666666" stroke="#666666" points="57,-452.5 57,-452.5 107,-452.5 107,-452.5 57,-452.5"/>
<polygon fill="#666666" stroke="#666666" points="57,-437.5 57,-437.5 107,-437.5 107,-437.5 57,-437.5"/>
<polygon fill="none" stroke="#666666" points="57,-421 57,-470 107,-470 107,-421 57,-421"/>
</a>
</g>
</g>
<!-- Node3&#45;&gt;Node2 -->
<g id="edge2_Node000002_Node000003" class="edge">
<title>Node3&#45;&gt;Node2</title>
<g id="a_edge2_Node000002_Node000003"><a xlink:title=" ">
<path fill="none" stroke="#63b8ff" d="M82,-410.61C82,-402.48 82,-393.66 82,-385.08"/>
<polygon fill="none" stroke="#63b8ff" points="78.5,-410.82 82,-420.82 85.5,-410.82 78.5,-410.82"/>
</a>
</g>
</g>
</g>
</svg>
