<?xml version="1.0" encoding="UTF-8" standalone="no"?>
<!DOCTYPE svg PUBLIC "-//W3C//DTD SVG 1.1//EN"
 "http://www.w3.org/Graphics/SVG/1.1/DTD/svg11.dtd">
<!-- Generated by graphviz version 2.43.0 (0)
 -->
<!-- Title: EasyKiConverter::ProcessStageHandler Pages: 1 -->
<svg width="183pt" height="388pt"
 viewBox="0.00 0.00 183.00 388.00" xmlns="http://www.w3.org/2000/svg" xmlns:xlink="http://www.w3.org/1999/xlink">
<g id="graph0" class="graph" transform="scale(1 1) rotate(0) translate(4 384)">
<title>EasyKiConverter::ProcessStageHandler</title>
<!-- Node1 -->
<g id="Node000001" class="node">
<title>Node1</title>
<g id="a_Node000001"><a xlink:title=" ">
<polygon fill="#999999" stroke="transparent" points="175,-165 0,-165 0,0 175,0 175,-165"/>
<text text-anchor="start" x="25.5" y="-152.5" font-family="Helvetica,sans-Serif" font-size="10.00">EasyKiConverter::Process</text>
<text text-anchor="start" x="54.5" y="-141.5" font-family="Helvetica,sans-Serif" font-size="10.00">StageHandler</text>
<text text-anchor="start" x="7" y="-126.5" font-family="Helvetica,sans-Serif" font-size="10.00">&#45;</text>
<text text-anchor="start" x="17.5" y="-126.5" font-family="Helvetica,sans-Serif" font-size="10.00">m_threadPool</text>
<text text-anchor="start" x="7" y="-111.5" font-family="Helvetica,sans-Serif" font-size="10.00">&#45;</text>
<text text-anchor="start" x="17.5" y="-111.5" font-family="Helvetica,sans-Serif" font-size="10.00">m_inputQueue</text>
<text text-anchor="start" x="7" y="-96.5" font-family="Helvetica,sans-Serif" font-size="10.00">&#45;</text>
<text text-anchor="start" x="17.5" y="-96.5" font-family="Helvetica,sans-Serif" font-size="10.00">m_activeWorkers</text>
<text text-anchor="start" x="7" y="-81.5" font-family="Helvetica,sans-Serif" font-size="10.00">&#45;</text>
<text text-anchor="start" x="17.5" y="-81.5" font-family="Helvetica,sans-Serif" font-size="10.00">m_workerMutex</text>
<text text-anchor="start" x="4.5" y="-66.5" font-family="Helvetica,sans-Serif" font-size="10.00">+</text>
<text text-anchor="start" x="17.5" y="-66.5" font-family="Helvetica,sans-Serif" font-size="10.00">ProcessStageHandler()</text>
<text text-anchor="start" x="4.5" y="-51.5" font-family="Helvetica,sans-Serif" font-size="10.00">+</text>
<text text-anchor="start" x="17.5" y="-51.5" font-family="Helvetica,sans-Serif" font-size="10.00">start()</text>
<text text-anchor="start" x="4.5" y="-36.5" font-family="Helvetica,sans-Serif" font-size="10.00">+</text>
<text text-anchor="start" x="17.5" y="-36.5" font-family="Helvetica,sans-Serif" font-size="10.00">stop()</text>
<text text-anchor="start" x="4.5" y="-21.5" font-family="Helvetica,sans-Serif" font-size="10.00">+</text>
<text text-anchor="start" x="17.5" y="-21.5" font-family="Helvetica,sans-Serif" font-size="10.00">setInputQueue()</text>
<text text-anchor="start" x="4.5" y="-6.5" font-family="Helvetica,sans-Serif" font-size="10.00">+</text>
<text text-anchor="start" x="17.5" y="-6.5" font-family="Helvetica,sans-Serif" font-size="10.00">componentProcessCompleted()</text>
<polygon fill="#666666" stroke="#666666" points="0.5,-136.5 0.5,-136.5 175.5,-136.5 175.5,-136.5 0.5,-136.5"/>
<polygon fill="#666666" stroke="#666666" points="0.5,-76.5 0.5,-76.5 15.5,-76.5 15.5,-76.5 0.5,-76.5"/>
<polygon fill="#666666" stroke="#666666" points="15.5,-76.5 15.5,-76.5 175.5,-76.5 175.5,-76.5 15.5,-76.5"/>
<polygon fill="none" stroke="#666666" points="0,0 0,-165 175,-165 175,0 0,0"/>
</a>
</g>
</g>
<!-- Node2 -->
<g id="Node000002" class="node">
<title>Node2</title>
<g id="a_Node000002"><a xlink:href="classEasyKiConverter_1_1StageHandler.html" target="_top" xlink:title="流水线阶段处理器基类">
<polygon fill="white" stroke="transparent" points="169.5,-295 5.5,-295 5.5,-201 169.5,-201 169.5,-295"/>
<text text-anchor="start" x="10.5" y="-283" font-family="Helvetica,sans-Serif" font-size="10.00">EasyKiConverter::StageHandler</text>
<text text-anchor="start" x="24.5" y="-268" font-family="Helvetica,sans-Serif" font-size="10.00">#</text>
<text text-anchor="start" x="52.5" y="-268" font-family="Helvetica,sans-Serif" font-size="10.00">m_isCancelled</text>
<text text-anchor="start" x="24.5" y="-253" font-family="Helvetica,sans-Serif" font-size="10.00">+</text>
<text text-anchor="start" x="52.5" y="-253" font-family="Helvetica,sans-Serif" font-size="10.00">StageHandler()</text>
<text text-anchor="start" x="24.5" y="-238" font-family="Helvetica,sans-Serif" font-size="10.00">+</text>
<text text-anchor="start" x="52.5" y="-238" font-family="Helvetica,sans-Serif" font-size="10.00">~StageHandler()</text>
<text text-anchor="start" x="24.5" y="-223" font-family="Helvetica,sans-Serif" font-size="10.00">+</text>
<text text-anchor="start" x="52.5" y="-223" font-family="Helvetica,sans-Serif" font-size="10.00">start()</text>
<text text-anchor="start" x="24.5" y="-208" font-family="Helvetica,sans-Serif" font-size="10.00">+</text>
<text text-anchor="start" x="52.5" y="-208" font-family="Helvetica,sans-Serif" font-size="10.00">stop()</text>
<polygon fill="#666666" stroke="#666666" points="5.5,-278 5.5,-278 169.5,-278 169.5,-278 5.5,-278"/>
<polygon fill="#666666" stroke="#666666" points="5.5,-263 5.5,-263 50.5,-263 50.5,-263 5.5,-263"/>
<polygon fill="#666666" stroke="#666666" points="50.5,-263 50.5,-263 169.5,-263 169.5,-263 50.5,-263"/>
<polygon fill="none" stroke="#666666" points="5.5,-201 5.5,-295 169.5,-295 169.5,-201 5.5,-201"/>
</a>
</g>
</g>
<!-- Node2&#45;&gt;Node1 -->
<g id="edge1_Node000001_Node000002" class="edge">
<title>Node2&#45;&gt;Node1</title>
<g id="a_edge1_Node000001_Node000002"><a xlink:title=" ">
<path fill="none" stroke="#63b8ff" d="M87.5,-190.4C87.5,-182.19 87.5,-173.59 87.5,-165"/>
<polygon fill="none" stroke="#63b8ff" points="84,-190.58 87.5,-200.58 91,-190.58 84,-190.58"/>
</a>
</g>
</g>
<!-- Node3 -->
<g id="Node000003" class="node">
<title>Node3</title>
<g id="a_Node000003"><a xlink:title=" ">
<polygon fill="white" stroke="transparent" points="112.5,-380 62.5,-380 62.5,-331 112.5,-331 112.5,-380"/>
<text text-anchor="start" x="67.5" y="-367.5" font-family="Helvetica,sans-Serif" font-size="10.00">QObject</text>
<text text-anchor="start" x="85.5" y="-352.5" font-family="Helvetica,sans-Serif" font-size="10.00"> </text>
<text text-anchor="start" x="85.5" y="-337.5" font-family="Helvetica,sans-Serif" font-size="10.00"> </text>
<polygon fill="#666666" stroke="#666666" points="62.5,-362.5 62.5,-362.5 112.5,-362.5 112.5,-362.5 62.5,-362.5"/>
<polygon fill="#666666" stroke="#666666" points="62.5,-347.5 62.5,-347.5 112.5,-347.5 112.5,-347.5 62.5,-347.5"/>
<polygon fill="none" stroke="#666666" points="62.5,-331 62.5,-380 112.5,-380 112.5,-331 62.5,-331"/>
</a>
</g>
</g>
<!-- Node3&#45;&gt;Node2 -->
<g id="edge2_Node000002_Node000003" class="edge">
<title>Node3&#45;&gt;Node2</title>
<g id="a_edge2_Node000002_Node000003"><a xlink:title=" ">
<path fill="none" stroke="#63b8ff" d="M87.5,-320.61C87.5,-312.48 87.5,-303.66 87.5,-295.08"/>
<polygon fill="none" stroke="#63b8ff" points="84,-320.82 87.5,-330.82 91,-320.82 84,-320.82"/>
</a>
</g>
</g>
</g>
</svg>
