<?xml version="1.0" encoding="UTF-8" standalone="no"?>
<!DOCTYPE svg PUBLIC "-//W3C//DTD SVG 1.1//EN"
 "http://www.w3.org/Graphics/SVG/1.1/DTD/svg11.dtd">
<!-- Generated by graphviz version 2.43.0 (0)
 -->
<!-- Title: EasyKiConverter::ComponentService Pages: 1 -->
<svg width="697pt" height="1981pt"
 viewBox="0.00 0.00 696.69 1981.00" xmlns="http://www.w3.org/2000/svg" xmlns:xlink="http://www.w3.org/1999/xlink">
<g id="graph0" class="graph" transform="scale(1 1) rotate(0) translate(4 1977)">
<title>EasyKiConverter::ComponentService</title>
<!-- Node1 -->
<g id="Node000001" class="node">
<title>Node1</title>
<g id="a_Node000001"><a xlink:title="元件服务类">
<polygon fill="#999999" stroke="transparent" points="393.19,-555 215.19,-555 215.19,0 393.19,0 393.19,-555"/>
<text text-anchor="start" x="232.19" y="-542.5" font-family="Helvetica,sans-Serif" font-size="10.00">EasyKiConverter::Component</text>
<text text-anchor="start" x="285.69" y="-531.5" font-family="Helvetica,sans-Serif" font-size="10.00">Service</text>
<text text-anchor="start" x="221.69" y="-516.5" font-family="Helvetica,sans-Serif" font-size="10.00">&#45;</text>
<text text-anchor="start" x="232.19" y="-516.5" font-family="Helvetica,sans-Serif" font-size="10.00">m_networkManager</text>
<text text-anchor="start" x="221.69" y="-501.5" font-family="Helvetica,sans-Serif" font-size="10.00">&#45;</text>
<text text-anchor="start" x="232.19" y="-501.5" font-family="Helvetica,sans-Serif" font-size="10.00">m_componentCache</text>
<text text-anchor="start" x="221.69" y="-486.5" font-family="Helvetica,sans-Serif" font-size="10.00">&#45;</text>
<text text-anchor="start" x="232.19" y="-486.5" font-family="Helvetica,sans-Serif" font-size="10.00">m_fetchingComponents</text>
<text text-anchor="start" x="221.69" y="-471.5" font-family="Helvetica,sans-Serif" font-size="10.00">&#45;</text>
<text text-anchor="start" x="232.19" y="-471.5" font-family="Helvetica,sans-Serif" font-size="10.00">m_currentComponentId</text>
<text text-anchor="start" x="221.69" y="-456.5" font-family="Helvetica,sans-Serif" font-size="10.00">&#45;</text>
<text text-anchor="start" x="232.19" y="-456.5" font-family="Helvetica,sans-Serif" font-size="10.00">m_pendingModelUuid</text>
<text text-anchor="start" x="221.69" y="-441.5" font-family="Helvetica,sans-Serif" font-size="10.00">&#45;</text>
<text text-anchor="start" x="232.19" y="-441.5" font-family="Helvetica,sans-Serif" font-size="10.00">m_hasDownloadedWrl</text>
<text text-anchor="start" x="221.69" y="-426.5" font-family="Helvetica,sans-Serif" font-size="10.00">&#45;</text>
<text text-anchor="start" x="232.19" y="-426.5" font-family="Helvetica,sans-Serif" font-size="10.00">m_parallelCollectedData</text>
<text text-anchor="start" x="221.69" y="-411.5" font-family="Helvetica,sans-Serif" font-size="10.00">&#45;</text>
<text text-anchor="start" x="232.19" y="-411.5" font-family="Helvetica,sans-Serif" font-size="10.00">m_parallelFetchingStatus</text>
<text text-anchor="start" x="221.69" y="-396.5" font-family="Helvetica,sans-Serif" font-size="10.00">&#45;</text>
<text text-anchor="start" x="232.19" y="-396.5" font-family="Helvetica,sans-Serif" font-size="10.00">m_parallelPendingComponents</text>
<text text-anchor="start" x="221.69" y="-381.5" font-family="Helvetica,sans-Serif" font-size="10.00">&#45;</text>
<text text-anchor="start" x="232.19" y="-381.5" font-family="Helvetica,sans-Serif" font-size="10.00">m_parallelTotalCount</text>
<text text-anchor="start" x="221.69" y="-366.5" font-family="Helvetica,sans-Serif" font-size="10.00">&#45;</text>
<text text-anchor="start" x="232.19" y="-366.5" font-family="Helvetica,sans-Serif" font-size="10.00">m_parallelCompletedCount</text>
<text text-anchor="start" x="221.69" y="-351.5" font-family="Helvetica,sans-Serif" font-size="10.00">&#45;</text>
<text text-anchor="start" x="232.19" y="-351.5" font-family="Helvetica,sans-Serif" font-size="10.00">m_parallelFetching</text>
<text text-anchor="start" x="221.69" y="-336.5" font-family="Helvetica,sans-Serif" font-size="10.00">&#45;</text>
<text text-anchor="start" x="232.19" y="-336.5" font-family="Helvetica,sans-Serif" font-size="10.00">m_outputPath</text>
<text text-anchor="start" x="219.19" y="-321.5" font-family="Helvetica,sans-Serif" font-size="10.00">+</text>
<text text-anchor="start" x="232.19" y="-321.5" font-family="Helvetica,sans-Serif" font-size="10.00">ComponentService()</text>
<text text-anchor="start" x="219.19" y="-306.5" font-family="Helvetica,sans-Serif" font-size="10.00">+</text>
<text text-anchor="start" x="232.19" y="-306.5" font-family="Helvetica,sans-Serif" font-size="10.00">ComponentService()</text>
<text text-anchor="start" x="219.19" y="-291.5" font-family="Helvetica,sans-Serif" font-size="10.00">+</text>
<text text-anchor="start" x="232.19" y="-291.5" font-family="Helvetica,sans-Serif" font-size="10.00">~ComponentService()</text>
<text text-anchor="start" x="219.19" y="-276.5" font-family="Helvetica,sans-Serif" font-size="10.00">+</text>
<text text-anchor="start" x="232.19" y="-276.5" font-family="Helvetica,sans-Serif" font-size="10.00">fetchComponentData()</text>
<text text-anchor="start" x="219.19" y="-261.5" font-family="Helvetica,sans-Serif" font-size="10.00">+</text>
<text text-anchor="start" x="232.19" y="-261.5" font-family="Helvetica,sans-Serif" font-size="10.00">fetchLcscPreviewImage()</text>
<text text-anchor="start" x="219.19" y="-246.5" font-family="Helvetica,sans-Serif" font-size="10.00">+</text>
<text text-anchor="start" x="232.19" y="-246.5" font-family="Helvetica,sans-Serif" font-size="10.00">fetchMultipleComponentsData()</text>
<text text-anchor="start" x="219.19" y="-231.5" font-family="Helvetica,sans-Serif" font-size="10.00">+</text>
<text text-anchor="start" x="232.19" y="-231.5" font-family="Helvetica,sans-Serif" font-size="10.00">validateComponentId()</text>
<text text-anchor="start" x="219.19" y="-216.5" font-family="Helvetica,sans-Serif" font-size="10.00">+</text>
<text text-anchor="start" x="232.19" y="-216.5" font-family="Helvetica,sans-Serif" font-size="10.00">extractComponentIdFromText()</text>
<text text-anchor="start" x="219.19" y="-201.5" font-family="Helvetica,sans-Serif" font-size="10.00">+</text>
<text text-anchor="start" x="232.19" y="-201.5" font-family="Helvetica,sans-Serif" font-size="10.00">parseBomFile()</text>
<text text-anchor="start" x="219.19" y="-186.5" font-family="Helvetica,sans-Serif" font-size="10.00">+</text>
<text text-anchor="start" x="232.19" y="-186.5" font-family="Helvetica,sans-Serif" font-size="10.00">getComponentData()</text>
<text text-anchor="start" x="232.19" y="-171.5" font-family="Helvetica,sans-Serif" font-size="10.00">和 13 更多...</text>
<text text-anchor="start" x="221.69" y="-156.5" font-family="Helvetica,sans-Serif" font-size="10.00">&#45;</text>
<text text-anchor="start" x="232.19" y="-156.5" font-family="Helvetica,sans-Serif" font-size="10.00">handleComponentInfoFetched()</text>
<text text-anchor="start" x="221.69" y="-141.5" font-family="Helvetica,sans-Serif" font-size="10.00">&#45;</text>
<text text-anchor="start" x="232.19" y="-141.5" font-family="Helvetica,sans-Serif" font-size="10.00">handleCadDataFetched()</text>
<text text-anchor="start" x="221.69" y="-126.5" font-family="Helvetica,sans-Serif" font-size="10.00">&#45;</text>
<text text-anchor="start" x="232.19" y="-126.5" font-family="Helvetica,sans-Serif" font-size="10.00">handleModel3DFetched()</text>
<text text-anchor="start" x="221.69" y="-111.5" font-family="Helvetica,sans-Serif" font-size="10.00">&#45;</text>
<text text-anchor="start" x="232.19" y="-111.5" font-family="Helvetica,sans-Serif" font-size="10.00">handleFetchError()</text>
<text text-anchor="start" x="221.69" y="-96.5" font-family="Helvetica,sans-Serif" font-size="10.00">&#45;</text>
<text text-anchor="start" x="232.19" y="-96.5" font-family="Helvetica,sans-Serif" font-size="10.00">handleImageReady()</text>
<text text-anchor="start" x="221.69" y="-81.5" font-family="Helvetica,sans-Serif" font-size="10.00">&#45;</text>
<text text-anchor="start" x="232.19" y="-81.5" font-family="Helvetica,sans-Serif" font-size="10.00">handleLcscDataReady()</text>
<text text-anchor="start" x="221.69" y="-66.5" font-family="Helvetica,sans-Serif" font-size="10.00">&#45;</text>
<text text-anchor="start" x="232.19" y="-66.5" font-family="Helvetica,sans-Serif" font-size="10.00">handleDatasheetReady()</text>
<text text-anchor="start" x="221.69" y="-51.5" font-family="Helvetica,sans-Serif" font-size="10.00">&#45;</text>
<text text-anchor="start" x="232.19" y="-51.5" font-family="Helvetica,sans-Serif" font-size="10.00">handleAllImagesReady()</text>
<text text-anchor="start" x="221.69" y="-36.5" font-family="Helvetica,sans-Serif" font-size="10.00">&#45;</text>
<text text-anchor="start" x="232.19" y="-36.5" font-family="Helvetica,sans-Serif" font-size="10.00">handleFetchErrorWithId()</text>
<text text-anchor="start" x="221.69" y="-21.5" font-family="Helvetica,sans-Serif" font-size="10.00">&#45;</text>
<text text-anchor="start" x="232.19" y="-21.5" font-family="Helvetica,sans-Serif" font-size="10.00">initializeApiConnections()</text>
<text text-anchor="start" x="232.19" y="-6.5" font-family="Helvetica,sans-Serif" font-size="10.00">和 6 更多...</text>
<polygon fill="#666666" stroke="#666666" points="215.19,-526.5 215.19,-526.5 393.19,-526.5 393.19,-526.5 215.19,-526.5"/>
<polygon fill="#666666" stroke="#666666" points="215.19,-331.5 215.19,-331.5 230.19,-331.5 230.19,-331.5 215.19,-331.5"/>
<polygon fill="#666666" stroke="#666666" points="230.19,-331.5 230.19,-331.5 393.19,-331.5 393.19,-331.5 230.19,-331.5"/>
<polygon fill="none" stroke="#666666" points="215.19,0 215.19,-555 393.19,-555 393.19,0 215.19,0"/>
</a>
</g>
</g>
<!-- Node2 -->
<g id="Node000002" class="node">
<title>Node2</title>
<g id="a_Node000002"><a xlink:title=" ">
<polygon fill="white" stroke="transparent" points="230.19,-1973 180.19,-1973 180.19,-1924 230.19,-1924 230.19,-1973"/>
<text text-anchor="start" x="185.19" y="-1960.5" font-family="Helvetica,sans-Serif" font-size="10.00">QObject</text>
<text text-anchor="start" x="203.19" y="-1945.5" font-family="Helvetica,sans-Serif" font-size="10.00"> </text>
<text text-anchor="start" x="203.19" y="-1930.5" font-family="Helvetica,sans-Serif" font-size="10.00"> </text>
<polygon fill="#666666" stroke="#666666" points="180.19,-1955.5 180.19,-1955.5 230.19,-1955.5 230.19,-1955.5 180.19,-1955.5"/>
<polygon fill="#666666" stroke="#666666" points="180.19,-1940.5 180.19,-1940.5 230.19,-1940.5 230.19,-1940.5 180.19,-1940.5"/>
<polygon fill="none" stroke="#666666" points="180.19,-1924 180.19,-1973 230.19,-1973 230.19,-1924 180.19,-1924"/>
</a>
</g>
</g>
<!-- Node2&#45;&gt;Node1 -->
<g id="edge1_Node000001_Node000002" class="edge">
<title>Node2&#45;&gt;Node1</title>
<g id="a_edge1_Node000001_Node000002"><a xlink:title=" ">
<path fill="none" stroke="#63b8ff" d="M170.15,-1937.34C145.96,-1928.33 115.49,-1912.54 100.19,-1887 -46.64,-1642.02 -11.39,-874.17 75.19,-602 102.83,-515.12 163.2,-431.51 215.02,-371.06"/>
<polygon fill="none" stroke="#63b8ff" points="169.14,-1940.7 179.73,-1940.69 171.45,-1934.09 169.14,-1940.7"/>
</a>
</g>
</g>
<!-- Node3 -->
<g id="Node000003" class="node">
<title>Node3</title>
<g id="a_Node000003"><a xlink:href="classEasyKiConverter_1_1EasyedaApi.html" target="_top" xlink:title="EasyEDA API 客户端类">
<polygon fill="white" stroke="transparent" points="268.19,-1101 84.19,-1101 84.19,-602 268.19,-602 268.19,-1101"/>
<text text-anchor="start" x="103.69" y="-1088.5" font-family="Helvetica,sans-Serif" font-size="10.00">EasyKiConverter::EasyedaApi</text>
<text text-anchor="start" x="90.69" y="-1073.5" font-family="Helvetica,sans-Serif" font-size="10.00">&#45;</text>
<text text-anchor="start" x="101.19" y="-1073.5" font-family="Helvetica,sans-Serif" font-size="10.00">m_currentLcscId</text>
<text text-anchor="start" x="90.69" y="-1058.5" font-family="Helvetica,sans-Serif" font-size="10.00">&#45;</text>
<text text-anchor="start" x="101.19" y="-1058.5" font-family="Helvetica,sans-Serif" font-size="10.00">m_currentUuid</text>
<text text-anchor="start" x="90.69" y="-1043.5" font-family="Helvetica,sans-Serif" font-size="10.00">&#45;</text>
<text text-anchor="start" x="101.19" y="-1043.5" font-family="Helvetica,sans-Serif" font-size="10.00">m_isFetching</text>
<text text-anchor="start" x="90.69" y="-1028.5" font-family="Helvetica,sans-Serif" font-size="10.00">&#45;</text>
<text text-anchor="start" x="101.19" y="-1028.5" font-family="Helvetica,sans-Serif" font-size="10.00">m_requestType</text>
<text text-anchor="start" x="90.69" y="-1013.5" font-family="Helvetica,sans-Serif" font-size="10.00">&#45;</text>
<text text-anchor="start" x="101.19" y="-1013.5" font-family="Helvetica,sans-Serif" font-size="10.00">m_activeRequests</text>
<text text-anchor="start" x="90.69" y="-998.5" font-family="Helvetica,sans-Serif" font-size="10.00">&#45;</text>
<text text-anchor="start" x="101.19" y="-998.5" font-family="Helvetica,sans-Serif" font-size="10.00">m_requestsMutex</text>
<text text-anchor="start" x="88.19" y="-983.5" font-family="Helvetica,sans-Serif" font-size="10.00">+</text>
<text text-anchor="start" x="101.19" y="-983.5" font-family="Helvetica,sans-Serif" font-size="10.00">EasyedaApi()</text>
<text text-anchor="start" x="88.19" y="-968.5" font-family="Helvetica,sans-Serif" font-size="10.00">+</text>
<text text-anchor="start" x="101.19" y="-968.5" font-family="Helvetica,sans-Serif" font-size="10.00">EasyedaApi()</text>
<text text-anchor="start" x="88.19" y="-953.5" font-family="Helvetica,sans-Serif" font-size="10.00">+</text>
<text text-anchor="start" x="101.19" y="-953.5" font-family="Helvetica,sans-Serif" font-size="10.00">~EasyedaApi()</text>
<text text-anchor="start" x="88.19" y="-938.5" font-family="Helvetica,sans-Serif" font-size="10.00">+</text>
<text text-anchor="start" x="101.19" y="-938.5" font-family="Helvetica,sans-Serif" font-size="10.00">fetchComponentInfo()</text>
<text text-anchor="start" x="88.19" y="-923.5" font-family="Helvetica,sans-Serif" font-size="10.00">+</text>
<text text-anchor="start" x="101.19" y="-923.5" font-family="Helvetica,sans-Serif" font-size="10.00">fetchCadData()</text>
<text text-anchor="start" x="88.19" y="-908.5" font-family="Helvetica,sans-Serif" font-size="10.00">+</text>
<text text-anchor="start" x="101.19" y="-908.5" font-family="Helvetica,sans-Serif" font-size="10.00">fetch3DModelObj()</text>
<text text-anchor="start" x="88.19" y="-893.5" font-family="Helvetica,sans-Serif" font-size="10.00">+</text>
<text text-anchor="start" x="101.19" y="-893.5" font-family="Helvetica,sans-Serif" font-size="10.00">fetch3DModelStep()</text>
<text text-anchor="start" x="88.19" y="-878.5" font-family="Helvetica,sans-Serif" font-size="10.00">+</text>
<text text-anchor="start" x="101.19" y="-878.5" font-family="Helvetica,sans-Serif" font-size="10.00">cancelRequest()</text>
<text text-anchor="start" x="88.19" y="-863.5" font-family="Helvetica,sans-Serif" font-size="10.00">+</text>
<text text-anchor="start" x="101.19" y="-863.5" font-family="Helvetica,sans-Serif" font-size="10.00">componentInfoFetched()</text>
<text text-anchor="start" x="88.19" y="-848.5" font-family="Helvetica,sans-Serif" font-size="10.00">+</text>
<text text-anchor="start" x="101.19" y="-848.5" font-family="Helvetica,sans-Serif" font-size="10.00">cadDataFetched()</text>
<text text-anchor="start" x="88.19" y="-833.5" font-family="Helvetica,sans-Serif" font-size="10.00">+</text>
<text text-anchor="start" x="101.19" y="-833.5" font-family="Helvetica,sans-Serif" font-size="10.00">model3DFetched()</text>
<text text-anchor="start" x="88.19" y="-818.5" font-family="Helvetica,sans-Serif" font-size="10.00">+</text>
<text text-anchor="start" x="101.19" y="-818.5" font-family="Helvetica,sans-Serif" font-size="10.00">fetchError()</text>
<text text-anchor="start" x="88.19" y="-803.5" font-family="Helvetica,sans-Serif" font-size="10.00">+</text>
<text text-anchor="start" x="101.19" y="-803.5" font-family="Helvetica,sans-Serif" font-size="10.00">fetchError()</text>
<text text-anchor="start" x="90.69" y="-788.5" font-family="Helvetica,sans-Serif" font-size="10.00">&#45;</text>
<text text-anchor="start" x="101.19" y="-788.5" font-family="Helvetica,sans-Serif" font-size="10.00">handleComponentInfoResponse()</text>
<text text-anchor="start" x="90.69" y="-773.5" font-family="Helvetica,sans-Serif" font-size="10.00">&#45;</text>
<text text-anchor="start" x="101.19" y="-773.5" font-family="Helvetica,sans-Serif" font-size="10.00">handleCadDataResponse()</text>
<text text-anchor="start" x="90.69" y="-758.5" font-family="Helvetica,sans-Serif" font-size="10.00">&#45;</text>
<text text-anchor="start" x="101.19" y="-758.5" font-family="Helvetica,sans-Serif" font-size="10.00">handleModel3DResponse()</text>
<text text-anchor="start" x="90.69" y="-743.5" font-family="Helvetica,sans-Serif" font-size="10.00">&#45;</text>
<text text-anchor="start" x="101.19" y="-743.5" font-family="Helvetica,sans-Serif" font-size="10.00">handleNetworkError()</text>
<text text-anchor="start" x="90.69" y="-728.5" font-family="Helvetica,sans-Serif" font-size="10.00">&#45;</text>
<text text-anchor="start" x="101.19" y="-728.5" font-family="Helvetica,sans-Serif" font-size="10.00">handleRequestSuccess()</text>
<text text-anchor="start" x="90.69" y="-713.5" font-family="Helvetica,sans-Serif" font-size="10.00">&#45;</text>
<text text-anchor="start" x="101.19" y="-713.5" font-family="Helvetica,sans-Serif" font-size="10.00">handleRequestError()</text>
<text text-anchor="start" x="90.69" y="-698.5" font-family="Helvetica,sans-Serif" font-size="10.00">&#45;</text>
<text text-anchor="start" x="101.19" y="-698.5" font-family="Helvetica,sans-Serif" font-size="10.00">handleBinaryDataFetched()</text>
<text text-anchor="start" x="90.69" y="-683.5" font-family="Helvetica,sans-Serif" font-size="10.00">&#45;</text>
<text text-anchor="start" x="101.19" y="-683.5" font-family="Helvetica,sans-Serif" font-size="10.00">handleRequestSuccess()</text>
<text text-anchor="start" x="90.69" y="-668.5" font-family="Helvetica,sans-Serif" font-size="10.00">&#45;</text>
<text text-anchor="start" x="101.19" y="-668.5" font-family="Helvetica,sans-Serif" font-size="10.00">resetRequestState()</text>
<text text-anchor="start" x="90.69" y="-653.5" font-family="Helvetica,sans-Serif" font-size="10.00">&#45;</text>
<text text-anchor="start" x="101.19" y="-653.5" font-family="Helvetica,sans-Serif" font-size="10.00">buildComponentApiUrl()</text>
<text text-anchor="start" x="90.69" y="-638.5" font-family="Helvetica,sans-Serif" font-size="10.00">&#45;</text>
<text text-anchor="start" x="101.19" y="-638.5" font-family="Helvetica,sans-Serif" font-size="10.00">build3DModelObjUrl()</text>
<text text-anchor="start" x="90.69" y="-623.5" font-family="Helvetica,sans-Serif" font-size="10.00">&#45;</text>
<text text-anchor="start" x="101.19" y="-623.5" font-family="Helvetica,sans-Serif" font-size="10.00">build3DModelStepUrl()</text>
<text text-anchor="start" x="90.69" y="-608.5" font-family="Helvetica,sans-Serif" font-size="10.00">&#45;</text>
<text text-anchor="start" x="101.19" y="-608.5" font-family="Helvetica,sans-Serif" font-size="10.00">validateLcscId()</text>
<polygon fill="#666666" stroke="#666666" points="84.19,-1083.5 84.19,-1083.5 268.19,-1083.5 268.19,-1083.5 84.19,-1083.5"/>
<polygon fill="#666666" stroke="#666666" points="84.19,-993.5 84.19,-993.5 99.19,-993.5 99.19,-993.5 84.19,-993.5"/>
<polygon fill="#666666" stroke="#666666" points="99.19,-993.5 99.19,-993.5 268.19,-993.5 268.19,-993.5 99.19,-993.5"/>
<polygon fill="none" stroke="#666666" points="84.19,-602 84.19,-1101 268.19,-1101 268.19,-602 84.19,-602"/>
</a>
</g>
</g>
<!-- Node2&#45;&gt;Node3 -->
<g id="edge3_Node000003_Node000002" class="edge">
<title>Node2&#45;&gt;Node3</title>
<g id="a_edge3_Node000003_Node000002"><a xlink:title=" ">
<path fill="none" stroke="#63b8ff" d="M170.75,-1931C153.76,-1920.87 134.87,-1906.14 125.19,-1887 102.71,-1842.56 85.91,-1480.68 122.19,-1119 122.78,-1113.13 123.44,-1107.2 124.16,-1101.22"/>
<polygon fill="none" stroke="#63b8ff" points="169.49,-1934.31 179.93,-1936.16 172.92,-1928.21 169.49,-1934.31"/>
</a>
</g>
</g>
<!-- Node4 -->
<g id="Node000004" class="node">
<title>Node4</title>
<g id="a_Node000004"><a xlink:href="classEasyKiConverter_1_1INetworkAdapter.html" target="_top" xlink:title="网络适配器接口">
<polygon fill="white" stroke="transparent" points="276.19,-1887 134.19,-1887 134.19,-1677 276.19,-1677 276.19,-1887"/>
<text text-anchor="start" x="139.19" y="-1875" font-family="Helvetica,sans-Serif" font-size="10.00">EasyKiConverter::INetwork</text>
<text text-anchor="start" x="185.69" y="-1864" font-family="Helvetica,sans-Serif" font-size="10.00">Adapter</text>
<text text-anchor="start" x="203.19" y="-1849" font-family="Helvetica,sans-Serif" font-size="10.00"> </text>
<text text-anchor="start" x="140.69" y="-1834" font-family="Helvetica,sans-Serif" font-size="10.00">+</text>
<text text-anchor="start" x="156.19" y="-1834" font-family="Helvetica,sans-Serif" font-size="10.00">INetworkAdapter()</text>
<text text-anchor="start" x="140.69" y="-1819" font-family="Helvetica,sans-Serif" font-size="10.00">+</text>
<text text-anchor="start" x="156.19" y="-1819" font-family="Helvetica,sans-Serif" font-size="10.00">~INetworkAdapter()</text>
<text text-anchor="start" x="140.69" y="-1804" font-family="Helvetica,sans-Serif" font-size="10.00">+</text>
<text text-anchor="start" x="156.19" y="-1804" font-family="Helvetica,sans-Serif" font-size="10.00">sendGetRequest()</text>
<text text-anchor="start" x="140.69" y="-1789" font-family="Helvetica,sans-Serif" font-size="10.00">+</text>
<text text-anchor="start" x="156.19" y="-1789" font-family="Helvetica,sans-Serif" font-size="10.00">cancelRequest()</text>
<text text-anchor="start" x="140.69" y="-1774" font-family="Helvetica,sans-Serif" font-size="10.00">+</text>
<text text-anchor="start" x="156.19" y="-1774" font-family="Helvetica,sans-Serif" font-size="10.00">setHeader()</text>
<text text-anchor="start" x="140.69" y="-1759" font-family="Helvetica,sans-Serif" font-size="10.00">+</text>
<text text-anchor="start" x="156.19" y="-1759" font-family="Helvetica,sans-Serif" font-size="10.00">clearHeaders()</text>
<text text-anchor="start" x="140.69" y="-1744" font-family="Helvetica,sans-Serif" font-size="10.00">+</text>
<text text-anchor="start" x="156.19" y="-1744" font-family="Helvetica,sans-Serif" font-size="10.00">setExpectBinaryData()</text>
<text text-anchor="start" x="140.69" y="-1729" font-family="Helvetica,sans-Serif" font-size="10.00">+</text>
<text text-anchor="start" x="156.19" y="-1729" font-family="Helvetica,sans-Serif" font-size="10.00">requestSuccess()</text>
<text text-anchor="start" x="140.69" y="-1714" font-family="Helvetica,sans-Serif" font-size="10.00">+</text>
<text text-anchor="start" x="156.19" y="-1714" font-family="Helvetica,sans-Serif" font-size="10.00">binaryDataFetched()</text>
<text text-anchor="start" x="140.69" y="-1699" font-family="Helvetica,sans-Serif" font-size="10.00">+</text>
<text text-anchor="start" x="156.19" y="-1699" font-family="Helvetica,sans-Serif" font-size="10.00">requestError()</text>
<text text-anchor="start" x="140.69" y="-1684" font-family="Helvetica,sans-Serif" font-size="10.00">+</text>
<text text-anchor="start" x="156.19" y="-1684" font-family="Helvetica,sans-Serif" font-size="10.00">requestProgress()</text>
<polygon fill="#666666" stroke="#666666" points="134.19,-1859 134.19,-1859 276.19,-1859 276.19,-1859 134.19,-1859"/>
<polygon fill="#666666" stroke="#666666" points="134.19,-1844 134.19,-1844 276.19,-1844 276.19,-1844 134.19,-1844"/>
<polygon fill="none" stroke="#666666" points="134.19,-1677 134.19,-1887 276.19,-1887 276.19,-1677 134.19,-1677"/>
</a>
</g>
</g>
<!-- Node2&#45;&gt;Node4 -->
<g id="edge5_Node000004_Node000002" class="edge">
<title>Node2&#45;&gt;Node4</title>
<g id="a_edge5_Node000004_Node000002"><a xlink:title=" ">
<path fill="none" stroke="#63b8ff" d="M205.19,-1913.85C205.19,-1905.7 205.19,-1896.57 205.19,-1887.01"/>
<polygon fill="none" stroke="#63b8ff" points="201.69,-1913.93 205.19,-1923.93 208.69,-1913.93 201.69,-1913.93"/>
</a>
</g>
</g>
<!-- Node5 -->
<g id="Node000005" class="node">
<title>Node5</title>
<g id="a_Node000005"><a xlink:href="classEasyKiConverter_1_1EasyedaImporter.html" target="_top" xlink:title="EasyEDA 数据导入器类">
<polygon fill="white" stroke="transparent" points="373.69,-1441.5 234.69,-1441.5 234.69,-1336.5 373.69,-1336.5 373.69,-1441.5"/>
<text text-anchor="start" x="240.19" y="-1429" font-family="Helvetica,sans-Serif" font-size="10.00">EasyKiConverter::Easyeda</text>
<text text-anchor="start" x="283.19" y="-1418" font-family="Helvetica,sans-Serif" font-size="10.00">Importer</text>
<text text-anchor="start" x="302.69" y="-1403" font-family="Helvetica,sans-Serif" font-size="10.00"> </text>
<text text-anchor="start" x="241.69" y="-1388" font-family="Helvetica,sans-Serif" font-size="10.00">+</text>
<text text-anchor="start" x="257.19" y="-1388" font-family="Helvetica,sans-Serif" font-size="10.00">EasyedaImporter()</text>
<text text-anchor="start" x="241.69" y="-1373" font-family="Helvetica,sans-Serif" font-size="10.00">+</text>
<text text-anchor="start" x="257.19" y="-1373" font-family="Helvetica,sans-Serif" font-size="10.00">~EasyedaImporter()</text>
<text text-anchor="start" x="241.69" y="-1358" font-family="Helvetica,sans-Serif" font-size="10.00">+</text>
<text text-anchor="start" x="257.19" y="-1358" font-family="Helvetica,sans-Serif" font-size="10.00">importSymbolData()</text>
<text text-anchor="start" x="241.69" y="-1343" font-family="Helvetica,sans-Serif" font-size="10.00">+</text>
<text text-anchor="start" x="257.19" y="-1343" font-family="Helvetica,sans-Serif" font-size="10.00">importFootprintData()</text>
<polygon fill="#666666" stroke="#666666" points="235.19,-1413 235.19,-1413 374.19,-1413 374.19,-1413 235.19,-1413"/>
<polygon fill="#666666" stroke="#666666" points="235.19,-1398 235.19,-1398 374.19,-1398 374.19,-1398 235.19,-1398"/>
<polygon fill="none" stroke="#666666" points="234.69,-1336.5 234.69,-1441.5 373.69,-1441.5 373.69,-1336.5 234.69,-1336.5"/>
</a>
</g>
</g>
<!-- Node2&#45;&gt;Node5 -->
<g id="edge7_Node000005_Node000002" class="edge">
<title>Node2&#45;&gt;Node5</title>
<g id="a_edge7_Node000005_Node000002"><a xlink:title=" ">
<path fill="none" stroke="#63b8ff" d="M239.43,-1930.9C256.37,-1920.74 275.27,-1906.02 285.19,-1887 361.46,-1740.77 334.5,-1536.09 315.89,-1441.57"/>
<polygon fill="none" stroke="#63b8ff" points="237.27,-1928.1 230.29,-1936.07 240.72,-1934.19 237.27,-1928.1"/>
</a>
</g>
</g>
<!-- Node6 -->
<g id="Node000006" class="node">
<title>Node6</title>
<g id="a_Node000006"><a xlink:href="classEasyKiConverter_1_1LcscImageService.html" target="_top" xlink:title="LCSC 图片服务类">
<polygon fill="white" stroke="transparent" points="559.69,-1659 378.69,-1659 378.69,-1119 559.69,-1119 559.69,-1659"/>
<text text-anchor="start" x="400.19" y="-1647" font-family="Helvetica,sans-Serif" font-size="10.00">EasyKiConverter::LcscImage</text>
<text text-anchor="start" x="451.19" y="-1636" font-family="Helvetica,sans-Serif" font-size="10.00">Service</text>
<text text-anchor="start" x="385.69" y="-1621" font-family="Helvetica,sans-Serif" font-size="10.00">&#45;</text>
<text text-anchor="start" x="396.19" y="-1621" font-family="Helvetica,sans-Serif" font-size="10.00">m_networkManager</text>
<text text-anchor="start" x="385.69" y="-1606" font-family="Helvetica,sans-Serif" font-size="10.00">&#45;</text>
<text text-anchor="start" x="396.19" y="-1606" font-family="Helvetica,sans-Serif" font-size="10.00">m_queue</text>
<text text-anchor="start" x="385.69" y="-1591" font-family="Helvetica,sans-Serif" font-size="10.00">&#45;</text>
<text text-anchor="start" x="396.19" y="-1591" font-family="Helvetica,sans-Serif" font-size="10.00">m_requestedComponents</text>
<text text-anchor="start" x="385.69" y="-1576" font-family="Helvetica,sans-Serif" font-size="10.00">&#45;</text>
<text text-anchor="start" x="396.19" y="-1576" font-family="Helvetica,sans-Serif" font-size="10.00">m_manufacturerParts</text>
<text text-anchor="start" x="385.69" y="-1561" font-family="Helvetica,sans-Serif" font-size="10.00">&#45;</text>
<text text-anchor="start" x="396.19" y="-1561" font-family="Helvetica,sans-Serif" font-size="10.00">m_pendingDatasheets</text>
<text text-anchor="start" x="385.69" y="-1546" font-family="Helvetica,sans-Serif" font-size="10.00">&#45;</text>
<text text-anchor="start" x="396.19" y="-1546" font-family="Helvetica,sans-Serif" font-size="10.00">m_downloadedDatasheets</text>
<text text-anchor="start" x="385.69" y="-1531" font-family="Helvetica,sans-Serif" font-size="10.00">&#45;</text>
<text text-anchor="start" x="396.19" y="-1531" font-family="Helvetica,sans-Serif" font-size="10.00">m_pendingImages</text>
<text text-anchor="start" x="385.69" y="-1516" font-family="Helvetica,sans-Serif" font-size="10.00">&#45;</text>
<text text-anchor="start" x="396.19" y="-1516" font-family="Helvetica,sans-Serif" font-size="10.00">m_downloadedImages</text>
<text text-anchor="start" x="385.69" y="-1501" font-family="Helvetica,sans-Serif" font-size="10.00">&#45;</text>
<text text-anchor="start" x="396.19" y="-1501" font-family="Helvetica,sans-Serif" font-size="10.00">m_downloadCounts</text>
<text text-anchor="start" x="385.69" y="-1486" font-family="Helvetica,sans-Serif" font-size="10.00">&#45;</text>
<text text-anchor="start" x="396.19" y="-1486" font-family="Helvetica,sans-Serif" font-size="10.00">m_datasheetDownloadStatus</text>
<text text-anchor="start" x="385.69" y="-1471" font-family="Helvetica,sans-Serif" font-size="10.00">&#45;</text>
<text text-anchor="start" x="396.19" y="-1471" font-family="Helvetica,sans-Serif" font-size="10.00">m_activeRequests</text>
<text text-anchor="start" x="385.69" y="-1456" font-family="Helvetica,sans-Serif" font-size="10.00">&#45;</text>
<text text-anchor="start" x="396.19" y="-1456" font-family="Helvetica,sans-Serif" font-size="10.00">MAX_CONCURRENT_REQUESTS</text>
<text text-anchor="start" x="385.69" y="-1441" font-family="Helvetica,sans-Serif" font-size="10.00">&#45;</text>
<text text-anchor="start" x="396.19" y="-1441" font-family="Helvetica,sans-Serif" font-size="10.00">MAX_IMAGES_PER_COMPONENT</text>
<text text-anchor="start" x="385.69" y="-1426" font-family="Helvetica,sans-Serif" font-size="10.00">&#45;</text>
<text text-anchor="start" x="396.19" y="-1426" font-family="Helvetica,sans-Serif" font-size="10.00">MAX_RETRY_COUNT</text>
<text text-anchor="start" x="383.19" y="-1411" font-family="Helvetica,sans-Serif" font-size="10.00">+</text>
<text text-anchor="start" x="396.19" y="-1411" font-family="Helvetica,sans-Serif" font-size="10.00">LcscImageService()</text>
<text text-anchor="start" x="383.19" y="-1396" font-family="Helvetica,sans-Serif" font-size="10.00">+</text>
<text text-anchor="start" x="396.19" y="-1396" font-family="Helvetica,sans-Serif" font-size="10.00">fetchPreviewImages()</text>
<text text-anchor="start" x="383.19" y="-1381" font-family="Helvetica,sans-Serif" font-size="10.00">+</text>
<text text-anchor="start" x="396.19" y="-1381" font-family="Helvetica,sans-Serif" font-size="10.00">fetchBatchPreviewImages()</text>
<text text-anchor="start" x="383.19" y="-1366" font-family="Helvetica,sans-Serif" font-size="10.00">+</text>
<text text-anchor="start" x="396.19" y="-1366" font-family="Helvetica,sans-Serif" font-size="10.00">clearCache()</text>
<text text-anchor="start" x="383.19" y="-1351" font-family="Helvetica,sans-Serif" font-size="10.00">+</text>
<text text-anchor="start" x="396.19" y="-1351" font-family="Helvetica,sans-Serif" font-size="10.00">imageReady()</text>
<text text-anchor="start" x="383.19" y="-1336" font-family="Helvetica,sans-Serif" font-size="10.00">+</text>
<text text-anchor="start" x="396.19" y="-1336" font-family="Helvetica,sans-Serif" font-size="10.00">allImagesReady()</text>
<text text-anchor="start" x="383.19" y="-1321" font-family="Helvetica,sans-Serif" font-size="10.00">+</text>
<text text-anchor="start" x="396.19" y="-1321" font-family="Helvetica,sans-Serif" font-size="10.00">lcscDataReady()</text>
<text text-anchor="start" x="383.19" y="-1306" font-family="Helvetica,sans-Serif" font-size="10.00">+</text>
<text text-anchor="start" x="396.19" y="-1306" font-family="Helvetica,sans-Serif" font-size="10.00">datasheetReady()</text>
<text text-anchor="start" x="383.19" y="-1291" font-family="Helvetica,sans-Serif" font-size="10.00">+</text>
<text text-anchor="start" x="396.19" y="-1291" font-family="Helvetica,sans-Serif" font-size="10.00">error()</text>
<text text-anchor="start" x="385.69" y="-1276" font-family="Helvetica,sans-Serif" font-size="10.00">&#45;</text>
<text text-anchor="start" x="396.19" y="-1276" font-family="Helvetica,sans-Serif" font-size="10.00">processQueue()</text>
<text text-anchor="start" x="385.69" y="-1261" font-family="Helvetica,sans-Serif" font-size="10.00">&#45;</text>
<text text-anchor="start" x="396.19" y="-1261" font-family="Helvetica,sans-Serif" font-size="10.00">handleApiResponse()</text>
<text text-anchor="start" x="385.69" y="-1246" font-family="Helvetica,sans-Serif" font-size="10.00">&#45;</text>
<text text-anchor="start" x="396.19" y="-1246" font-family="Helvetica,sans-Serif" font-size="10.00">handleFallbackResponse()</text>
<text text-anchor="start" x="385.69" y="-1231" font-family="Helvetica,sans-Serif" font-size="10.00">&#45;</text>
<text text-anchor="start" x="396.19" y="-1231" font-family="Helvetica,sans-Serif" font-size="10.00">handleDownloadResponse()</text>
<text text-anchor="start" x="385.69" y="-1216" font-family="Helvetica,sans-Serif" font-size="10.00">&#45;</text>
<text text-anchor="start" x="396.19" y="-1216" font-family="Helvetica,sans-Serif" font-size="10.00">performApiSearch()</text>
<text text-anchor="start" x="385.69" y="-1201" font-family="Helvetica,sans-Serif" font-size="10.00">&#45;</text>
<text text-anchor="start" x="396.19" y="-1201" font-family="Helvetica,sans-Serif" font-size="10.00">performFallback()</text>
<text text-anchor="start" x="385.69" y="-1186" font-family="Helvetica,sans-Serif" font-size="10.00">&#45;</text>
<text text-anchor="start" x="396.19" y="-1186" font-family="Helvetica,sans-Serif" font-size="10.00">performDownload()</text>
<text text-anchor="start" x="385.69" y="-1171" font-family="Helvetica,sans-Serif" font-size="10.00">&#45;</text>
<text text-anchor="start" x="396.19" y="-1171" font-family="Helvetica,sans-Serif" font-size="10.00">performDatasheetDownload()</text>
<text text-anchor="start" x="385.69" y="-1156" font-family="Helvetica,sans-Serif" font-size="10.00">&#45;</text>
<text text-anchor="start" x="396.19" y="-1156" font-family="Helvetica,sans-Serif" font-size="10.00">checkDownloadCompletion()</text>
<text text-anchor="start" x="385.69" y="-1141" font-family="Helvetica,sans-Serif" font-size="10.00">&#45;</text>
<text text-anchor="start" x="396.19" y="-1141" font-family="Helvetica,sans-Serif" font-size="10.00">emitAllImagesReady()</text>
<text text-anchor="start" x="385.69" y="-1126" font-family="Helvetica,sans-Serif" font-size="10.00">&#45;</text>
<text text-anchor="start" x="396.19" y="-1126" font-family="Helvetica,sans-Serif" font-size="10.00">addRandomDelay()</text>
<polygon fill="#666666" stroke="#666666" points="379.19,-1631 379.19,-1631 560.19,-1631 560.19,-1631 379.19,-1631"/>
<polygon fill="#666666" stroke="#666666" points="379.19,-1421 379.19,-1421 394.19,-1421 394.19,-1421 379.19,-1421"/>
<polygon fill="#666666" stroke="#666666" points="394.19,-1421 394.19,-1421 560.19,-1421 560.19,-1421 394.19,-1421"/>
<polygon fill="none" stroke="#666666" points="378.69,-1119 378.69,-1659 559.69,-1659 559.69,-1119 378.69,-1119"/>
</a>
</g>
</g>
<!-- Node2&#45;&gt;Node6 -->
<g id="edge9_Node000006_Node000002" class="edge">
<title>Node2&#45;&gt;Node6</title>
<g id="a_edge9_Node000006_Node000002"><a xlink:title=" ">
<path fill="none" stroke="#63b8ff" d="M240.09,-1938.07C266.77,-1929.13 302.55,-1913.11 324.19,-1887 377.61,-1822.56 411.35,-1739.24 432.66,-1659.29"/>
<polygon fill="none" stroke="#63b8ff" points="238.83,-1934.8 230.36,-1941.16 240.95,-1941.47 238.83,-1934.8"/>
</a>
</g>
</g>
<!-- Node3&#45;&gt;Node1 -->
<g id="edge2_Node000001_Node000003" class="edge">
<title>Node3&#45;&gt;Node1</title>
<g id="a_edge2_Node000001_Node000003"><a xlink:title=" ">
<path fill="none" stroke="#63b8ff" d="M231.87,-601.69C234.42,-590.29 236.99,-578.8 239.56,-567.31"/>
<polygon fill="none" stroke="#63b8ff" points="239.62,-567.05 237.02,-560.32 242.24,-555.34 244.83,-562.07 239.62,-567.05"/>
</a>
</g>
<text text-anchor="middle" x="255.69" y="-576" font-family="Helvetica,sans-Serif" font-size="10.00" fill="grey"> &#45;m_api</text>
</g>
<!-- Node4&#45;&gt;Node3 -->
<g id="edge4_Node000003_Node000004" class="edge">
<title>Node4&#45;&gt;Node3</title>
<g id="a_edge4_Node000003_Node000004"><a xlink:title=" ">
<path fill="none" stroke="#63b8ff" d="M145.6,-1676.83C143.5,-1670.9 141.67,-1664.94 140.19,-1659 111.11,-1542.58 132.14,-1238.73 140.19,-1119 140.31,-1117.18 140.44,-1115.35 140.57,-1113.52"/>
<polygon fill="none" stroke="#63b8ff" points="140.58,-1113.32 137.05,-1107.03 141.5,-1101.35 145.03,-1107.64 140.58,-1113.32"/>
</a>
</g>
<text text-anchor="middle" x="182.69" y="-1386.5" font-family="Helvetica,sans-Serif" font-size="10.00" fill="grey"> &#45;m_networkUtils</text>
</g>
<!-- Node5&#45;&gt;Node1 -->
<g id="edge6_Node000001_Node000005" class="edge">
<title>Node5&#45;&gt;Node1</title>
<g id="a_edge6_Node000001_Node000005"><a xlink:title=" ">
<path fill="none" stroke="#63b8ff" d="M304.19,-1336.34C304.19,-1201.62 304.19,-831.7 304.19,-567.33"/>
<polygon fill="none" stroke="#63b8ff" points="304.19,-567.21 300.19,-561.21 304.19,-555.21 308.19,-561.21 304.19,-567.21"/>
</a>
</g>
<text text-anchor="middle" x="336.19" y="-849" font-family="Helvetica,sans-Serif" font-size="10.00" fill="grey"> &#45;m_importer</text>
</g>
<!-- Node6&#45;&gt;Node1 -->
<g id="edge8_Node000001_Node000006" class="edge">
<title>Node6&#45;&gt;Node1</title>
<g id="a_edge8_Node000001_Node000006"><a xlink:title=" ">
<path fill="none" stroke="#63b8ff" d="M416.74,-1118.89C415.85,-1112.87 415,-1106.91 414.19,-1101 383.87,-880.51 404.47,-822.21 372.19,-602 370.5,-590.5 368.66,-578.8 366.69,-566.99"/>
<polygon fill="none" stroke="#63b8ff" points="366.69,-566.99 361.74,-561.74 364.68,-555.16 369.63,-560.41 366.69,-566.99"/>
</a>
</g>
<text text-anchor="middle" x="458.69" y="-849" font-family="Helvetica,sans-Serif" font-size="10.00" fill="grey"> &#45;m_imageService</text>
</g>
<!-- Node7 -->
<g id="Node000007" class="node">
<title>Node7</title>
<g id="a_Node000007"><a xlink:href="classEasyKiConverter_1_1ComponentData.html" target="_top" xlink:title="元件数据">
<polygon fill="white" stroke="transparent" points="688.69,-1048.5 511.69,-1048.5 511.69,-654.5 688.69,-654.5 688.69,-1048.5"/>
<text text-anchor="start" x="517.19" y="-1036.5" font-family="Helvetica,sans-Serif" font-size="10.00">EasyKiConverter::ComponentData</text>
<text text-anchor="start" x="530.19" y="-1021.5" font-family="Helvetica,sans-Serif" font-size="10.00">&#45;</text>
<text text-anchor="start" x="552.19" y="-1021.5" font-family="Helvetica,sans-Serif" font-size="10.00">m_lcscId</text>
<text text-anchor="start" x="530.19" y="-1006.5" font-family="Helvetica,sans-Serif" font-size="10.00">&#45;</text>
<text text-anchor="start" x="552.19" y="-1006.5" font-family="Helvetica,sans-Serif" font-size="10.00">m_name</text>
<text text-anchor="start" x="530.19" y="-991.5" font-family="Helvetica,sans-Serif" font-size="10.00">&#45;</text>
<text text-anchor="start" x="552.19" y="-991.5" font-family="Helvetica,sans-Serif" font-size="10.00">m_prefix</text>
<text text-anchor="start" x="530.19" y="-976.5" font-family="Helvetica,sans-Serif" font-size="10.00">&#45;</text>
<text text-anchor="start" x="552.19" y="-976.5" font-family="Helvetica,sans-Serif" font-size="10.00">m_package</text>
<text text-anchor="start" x="530.19" y="-961.5" font-family="Helvetica,sans-Serif" font-size="10.00">&#45;</text>
<text text-anchor="start" x="552.19" y="-961.5" font-family="Helvetica,sans-Serif" font-size="10.00">m_manufacturer</text>
<text text-anchor="start" x="530.19" y="-946.5" font-family="Helvetica,sans-Serif" font-size="10.00">&#45;</text>
<text text-anchor="start" x="552.19" y="-946.5" font-family="Helvetica,sans-Serif" font-size="10.00">m_manufacturerPart</text>
<text text-anchor="start" x="530.19" y="-931.5" font-family="Helvetica,sans-Serif" font-size="10.00">&#45;</text>
<text text-anchor="start" x="552.19" y="-931.5" font-family="Helvetica,sans-Serif" font-size="10.00">m_datasheet</text>
<text text-anchor="start" x="530.19" y="-916.5" font-family="Helvetica,sans-Serif" font-size="10.00">&#45;</text>
<text text-anchor="start" x="552.19" y="-916.5" font-family="Helvetica,sans-Serif" font-size="10.00">m_datasheetData</text>
<text text-anchor="start" x="530.19" y="-901.5" font-family="Helvetica,sans-Serif" font-size="10.00">&#45;</text>
<text text-anchor="start" x="552.19" y="-901.5" font-family="Helvetica,sans-Serif" font-size="10.00">m_datasheetFormat</text>
<text text-anchor="start" x="530.19" y="-886.5" font-family="Helvetica,sans-Serif" font-size="10.00">&#45;</text>
<text text-anchor="start" x="552.19" y="-886.5" font-family="Helvetica,sans-Serif" font-size="10.00">m_previewImages</text>
<text text-anchor="start" x="530.19" y="-871.5" font-family="Helvetica,sans-Serif" font-size="10.00">&#45;</text>
<text text-anchor="start" x="552.19" y="-871.5" font-family="Helvetica,sans-Serif" font-size="10.00">m_previewImageData</text>
<text text-anchor="start" x="530.19" y="-856.5" font-family="Helvetica,sans-Serif" font-size="10.00">&#45;</text>
<text text-anchor="start" x="552.19" y="-856.5" font-family="Helvetica,sans-Serif" font-size="10.00">m_symbolData</text>
<text text-anchor="start" x="530.19" y="-841.5" font-family="Helvetica,sans-Serif" font-size="10.00">&#45;</text>
<text text-anchor="start" x="552.19" y="-841.5" font-family="Helvetica,sans-Serif" font-size="10.00">m_footprintData</text>
<text text-anchor="start" x="530.19" y="-826.5" font-family="Helvetica,sans-Serif" font-size="10.00">&#45;</text>
<text text-anchor="start" x="552.19" y="-826.5" font-family="Helvetica,sans-Serif" font-size="10.00">m_model3DData</text>
<text text-anchor="start" x="527.69" y="-811.5" font-family="Helvetica,sans-Serif" font-size="10.00">+</text>
<text text-anchor="start" x="552.19" y="-811.5" font-family="Helvetica,sans-Serif" font-size="10.00">ComponentData()</text>
<text text-anchor="start" x="527.69" y="-796.5" font-family="Helvetica,sans-Serif" font-size="10.00">+</text>
<text text-anchor="start" x="552.19" y="-796.5" font-family="Helvetica,sans-Serif" font-size="10.00">~ComponentData()</text>
<text text-anchor="start" x="527.69" y="-781.5" font-family="Helvetica,sans-Serif" font-size="10.00">+</text>
<text text-anchor="start" x="552.19" y="-781.5" font-family="Helvetica,sans-Serif" font-size="10.00">lcscId()</text>
<text text-anchor="start" x="527.69" y="-766.5" font-family="Helvetica,sans-Serif" font-size="10.00">+</text>
<text text-anchor="start" x="552.19" y="-766.5" font-family="Helvetica,sans-Serif" font-size="10.00">setLcscId()</text>
<text text-anchor="start" x="527.69" y="-751.5" font-family="Helvetica,sans-Serif" font-size="10.00">+</text>
<text text-anchor="start" x="552.19" y="-751.5" font-family="Helvetica,sans-Serif" font-size="10.00">name()</text>
<text text-anchor="start" x="527.69" y="-736.5" font-family="Helvetica,sans-Serif" font-size="10.00">+</text>
<text text-anchor="start" x="552.19" y="-736.5" font-family="Helvetica,sans-Serif" font-size="10.00">setName()</text>
<text text-anchor="start" x="527.69" y="-721.5" font-family="Helvetica,sans-Serif" font-size="10.00">+</text>
<text text-anchor="start" x="552.19" y="-721.5" font-family="Helvetica,sans-Serif" font-size="10.00">prefix()</text>
<text text-anchor="start" x="527.69" y="-706.5" font-family="Helvetica,sans-Serif" font-size="10.00">+</text>
<text text-anchor="start" x="552.19" y="-706.5" font-family="Helvetica,sans-Serif" font-size="10.00">setPrefix()</text>
<text text-anchor="start" x="527.69" y="-691.5" font-family="Helvetica,sans-Serif" font-size="10.00">+</text>
<text text-anchor="start" x="552.19" y="-691.5" font-family="Helvetica,sans-Serif" font-size="10.00">package()</text>
<text text-anchor="start" x="527.69" y="-676.5" font-family="Helvetica,sans-Serif" font-size="10.00">+</text>
<text text-anchor="start" x="552.19" y="-676.5" font-family="Helvetica,sans-Serif" font-size="10.00">setPackage()</text>
<text text-anchor="start" x="552.19" y="-661.5" font-family="Helvetica,sans-Serif" font-size="10.00">和 27 更多...</text>
<polygon fill="#666666" stroke="#666666" points="512.19,-1031.5 512.19,-1031.5 689.19,-1031.5 689.19,-1031.5 512.19,-1031.5"/>
<polygon fill="#666666" stroke="#666666" points="512.19,-821.5 512.19,-821.5 550.19,-821.5 550.19,-821.5 512.19,-821.5"/>
<polygon fill="#666666" stroke="#666666" points="550.19,-821.5 550.19,-821.5 689.19,-821.5 689.19,-821.5 550.19,-821.5"/>
<polygon fill="none" stroke="#666666" points="511.69,-654.5 511.69,-1048.5 688.69,-1048.5 688.69,-654.5 511.69,-654.5"/>
</a>
</g>
</g>
<!-- Node7&#45;&gt;Node1 -->
<g id="edge10_Node000001_Node000007" class="edge">
<title>Node7&#45;&gt;Node1</title>
<g id="a_edge10_Node000001_Node000007"><a xlink:title=" ">
<path fill="none" stroke="#63b8ff" d="M522,-654.29C513.95,-636.46 505.62,-618.8 497.19,-602 467.96,-543.8 432.27,-481.93 399.56,-428.05"/>
<polygon fill="none" stroke="#63b8ff" points="399.52,-427.98 392.98,-424.94 393.28,-417.73 399.82,-420.78 399.52,-427.98"/>
</a>
</g>
<text text-anchor="middle" x="557.69" y="-576" font-family="Helvetica,sans-Serif" font-size="10.00" fill="grey"> &#45;m_pendingComponentData</text>
</g>
</g>
</svg>
