<?xml version="1.0" encoding="UTF-8" standalone="no"?>
<!DOCTYPE svg PUBLIC "-//W3C//DTD SVG 1.1//EN"
 "http://www.w3.org/Graphics/SVG/1.1/DTD/svg11.dtd">
<!-- Generated by graphviz version 2.43.0 (0)
 -->
<!-- Title: EasyKiConverter::ComponentConverter Pages: 1 -->
<svg width="178pt" height="523pt"
 viewBox="0.00 0.00 178.00 523.00" xmlns="http://www.w3.org/2000/svg" xmlns:xlink="http://www.w3.org/1999/xlink">
<g id="graph0" class="graph" transform="scale(1 1) rotate(0) translate(4 519)">
<title>EasyKiConverter::ComponentConverter</title>
<!-- Node1 -->
<g id="Node000001" class="node">
<title>Node1</title>
<g id="a_Node000001"><a xlink:title="单个元器件转换器">
<polygon fill="#999999" stroke="transparent" points="162,-165 8,-165 8,0 162,0 162,-165"/>
<text text-anchor="start" x="13" y="-152.5" font-family="Helvetica,sans-Serif" font-size="10.00">EasyKiConverter::Component</text>
<text text-anchor="start" x="60.5" y="-141.5" font-family="Helvetica,sans-Serif" font-size="10.00">Converter</text>
<text text-anchor="start" x="17.5" y="-126.5" font-family="Helvetica,sans-Serif" font-size="10.00">&#45;</text>
<text text-anchor="start" x="31" y="-126.5" font-family="Helvetica,sans-Serif" font-size="10.00">m_exportFinished</text>
<text text-anchor="start" x="17.5" y="-111.5" font-family="Helvetica,sans-Serif" font-size="10.00">&#45;</text>
<text text-anchor="start" x="31" y="-111.5" font-family="Helvetica,sans-Serif" font-size="10.00">m_exportSuccess</text>
<text text-anchor="start" x="17.5" y="-96.5" font-family="Helvetica,sans-Serif" font-size="10.00">&#45;</text>
<text text-anchor="start" x="31" y="-96.5" font-family="Helvetica,sans-Serif" font-size="10.00">m_successCount</text>
<text text-anchor="start" x="17.5" y="-81.5" font-family="Helvetica,sans-Serif" font-size="10.00">&#45;</text>
<text text-anchor="start" x="31" y="-81.5" font-family="Helvetica,sans-Serif" font-size="10.00">m_failedCount</text>
<text text-anchor="start" x="15" y="-66.5" font-family="Helvetica,sans-Serif" font-size="10.00">+</text>
<text text-anchor="start" x="31" y="-66.5" font-family="Helvetica,sans-Serif" font-size="10.00">ComponentConverter()</text>
<text text-anchor="start" x="15" y="-51.5" font-family="Helvetica,sans-Serif" font-size="10.00">+</text>
<text text-anchor="start" x="31" y="-51.5" font-family="Helvetica,sans-Serif" font-size="10.00">~ComponentConverter()</text>
<text text-anchor="start" x="15" y="-36.5" font-family="Helvetica,sans-Serif" font-size="10.00">+</text>
<text text-anchor="start" x="31" y="-36.5" font-family="Helvetica,sans-Serif" font-size="10.00">execute()</text>
<text text-anchor="start" x="17.5" y="-21.5" font-family="Helvetica,sans-Serif" font-size="10.00">&#45;</text>
<text text-anchor="start" x="31" y="-21.5" font-family="Helvetica,sans-Serif" font-size="10.00">onExportCompleted()</text>
<text text-anchor="start" x="17.5" y="-6.5" font-family="Helvetica,sans-Serif" font-size="10.00">&#45;</text>
<text text-anchor="start" x="31" y="-6.5" font-family="Helvetica,sans-Serif" font-size="10.00">onExportFailed()</text>
<polygon fill="#666666" stroke="#666666" points="8,-136.5 8,-136.5 162,-136.5 162,-136.5 8,-136.5"/>
<polygon fill="#666666" stroke="#666666" points="8,-76.5 8,-76.5 29,-76.5 29,-76.5 8,-76.5"/>
<polygon fill="#666666" stroke="#666666" points="29,-76.5 29,-76.5 162,-76.5 162,-76.5 29,-76.5"/>
<polygon fill="none" stroke="#666666" points="8,0 8,-165 162,-165 162,0 8,0"/>
</a>
</g>
</g>
<!-- Node2 -->
<g id="Node000002" class="node">
<title>Node2</title>
<g id="a_Node000002"><a xlink:href="classEasyKiConverter_1_1BaseConverter.html" target="_top" xlink:title="转换器基类">
<polygon fill="white" stroke="transparent" points="170,-430 0,-430 0,-201 170,-201 170,-430"/>
<text text-anchor="start" x="5" y="-417.5" font-family="Helvetica,sans-Serif" font-size="10.00">EasyKiConverter::BaseConverter</text>
<text text-anchor="start" x="18" y="-402.5" font-family="Helvetica,sans-Serif" font-size="10.00">&#45;</text>
<text text-anchor="start" x="40" y="-402.5" font-family="Helvetica,sans-Serif" font-size="10.00">m_context</text>
<text text-anchor="start" x="18" y="-387.5" font-family="Helvetica,sans-Serif" font-size="10.00">&#45;</text>
<text text-anchor="start" x="40" y="-387.5" font-family="Helvetica,sans-Serif" font-size="10.00">m_printer</text>
<text text-anchor="start" x="18" y="-372.5" font-family="Helvetica,sans-Serif" font-size="10.00">&#45;</text>
<text text-anchor="start" x="40" y="-372.5" font-family="Helvetica,sans-Serif" font-size="10.00">m_errorMessage</text>
<text text-anchor="start" x="15.5" y="-357.5" font-family="Helvetica,sans-Serif" font-size="10.00">+</text>
<text text-anchor="start" x="40" y="-357.5" font-family="Helvetica,sans-Serif" font-size="10.00">BaseConverter()</text>
<text text-anchor="start" x="15.5" y="-342.5" font-family="Helvetica,sans-Serif" font-size="10.00">+</text>
<text text-anchor="start" x="40" y="-342.5" font-family="Helvetica,sans-Serif" font-size="10.00">~BaseConverter()</text>
<text text-anchor="start" x="15.5" y="-327.5" font-family="Helvetica,sans-Serif" font-size="10.00">+</text>
<text text-anchor="start" x="40" y="-327.5" font-family="Helvetica,sans-Serif" font-size="10.00">execute()</text>
<text text-anchor="start" x="15.5" y="-312.5" font-family="Helvetica,sans-Serif" font-size="10.00">+</text>
<text text-anchor="start" x="40" y="-312.5" font-family="Helvetica,sans-Serif" font-size="10.00">errorMessage()</text>
<text text-anchor="start" x="15.5" y="-297.5" font-family="Helvetica,sans-Serif" font-size="10.00">+</text>
<text text-anchor="start" x="40" y="-297.5" font-family="Helvetica,sans-Serif" font-size="10.00">progressUpdated()</text>
<text text-anchor="start" x="15.5" y="-282.5" font-family="Helvetica,sans-Serif" font-size="10.00">+</text>
<text text-anchor="start" x="40" y="-282.5" font-family="Helvetica,sans-Serif" font-size="10.00">conversionFinished()</text>
<text text-anchor="start" x="15.5" y="-267.5" font-family="Helvetica,sans-Serif" font-size="10.00">#</text>
<text text-anchor="start" x="40" y="-267.5" font-family="Helvetica,sans-Serif" font-size="10.00">context()</text>
<text text-anchor="start" x="15.5" y="-252.5" font-family="Helvetica,sans-Serif" font-size="10.00">#</text>
<text text-anchor="start" x="40" y="-252.5" font-family="Helvetica,sans-Serif" font-size="10.00">printer()</text>
<text text-anchor="start" x="15.5" y="-237.5" font-family="Helvetica,sans-Serif" font-size="10.00">#</text>
<text text-anchor="start" x="40" y="-237.5" font-family="Helvetica,sans-Serif" font-size="10.00">setError()</text>
<text text-anchor="start" x="15.5" y="-222.5" font-family="Helvetica,sans-Serif" font-size="10.00">#</text>
<text text-anchor="start" x="40" y="-222.5" font-family="Helvetica,sans-Serif" font-size="10.00">printMessage()</text>
<text text-anchor="start" x="15.5" y="-207.5" font-family="Helvetica,sans-Serif" font-size="10.00">#</text>
<text text-anchor="start" x="40" y="-207.5" font-family="Helvetica,sans-Serif" font-size="10.00">printProgressBar()</text>
<polygon fill="#666666" stroke="#666666" points="0,-412.5 0,-412.5 170,-412.5 170,-412.5 0,-412.5"/>
<polygon fill="#666666" stroke="#666666" points="0,-367.5 0,-367.5 38,-367.5 38,-367.5 0,-367.5"/>
<polygon fill="#666666" stroke="#666666" points="38,-367.5 38,-367.5 170,-367.5 170,-367.5 38,-367.5"/>
<polygon fill="none" stroke="#666666" points="0,-201 0,-430 170,-430 170,-201 0,-201"/>
</a>
</g>
</g>
<!-- Node2&#45;&gt;Node1 -->
<g id="edge1_Node000001_Node000002" class="edge">
<title>Node2&#45;&gt;Node1</title>
<g id="a_edge1_Node000001_Node000002"><a xlink:title=" ">
<path fill="none" stroke="#63b8ff" d="M85,-190.61C85,-182.03 85,-173.52 85,-165.26"/>
<polygon fill="none" stroke="#63b8ff" points="81.5,-190.69 85,-200.69 88.5,-190.69 81.5,-190.69"/>
</a>
</g>
</g>
<!-- Node3 -->
<g id="Node000003" class="node">
<title>Node3</title>
<g id="a_Node000003"><a xlink:title=" ">
<polygon fill="white" stroke="transparent" points="110,-515 60,-515 60,-466 110,-466 110,-515"/>
<text text-anchor="start" x="65" y="-502.5" font-family="Helvetica,sans-Serif" font-size="10.00">QObject</text>
<text text-anchor="start" x="83" y="-487.5" font-family="Helvetica,sans-Serif" font-size="10.00"> </text>
<text text-anchor="start" x="83" y="-472.5" font-family="Helvetica,sans-Serif" font-size="10.00"> </text>
<polygon fill="#666666" stroke="#666666" points="60,-497.5 60,-497.5 110,-497.5 110,-497.5 60,-497.5"/>
<polygon fill="#666666" stroke="#666666" points="60,-482.5 60,-482.5 110,-482.5 110,-482.5 60,-482.5"/>
<polygon fill="none" stroke="#666666" points="60,-466 60,-515 110,-515 110,-466 60,-466"/>
</a>
</g>
</g>
<!-- Node3&#45;&gt;Node2 -->
<g id="edge2_Node000002_Node000003" class="edge">
<title>Node3&#45;&gt;Node2</title>
<g id="a_edge2_Node000002_Node000003"><a xlink:title=" ">
<path fill="none" stroke="#63b8ff" d="M85,-455.77C85,-447.96 85,-439.21 85,-430.01"/>
<polygon fill="none" stroke="#63b8ff" points="81.5,-455.81 85,-465.81 88.5,-455.81 81.5,-455.81"/>
</a>
</g>
</g>
</g>
</svg>
