<?xml version="1.0" encoding="UTF-8" standalone="no"?>
<!DOCTYPE svg PUBLIC "-//W3C//DTD SVG 1.1//EN"
 "http://www.w3.org/Graphics/SVG/1.1/DTD/svg11.dtd">
<!-- Generated by graphviz version 2.43.0 (0)
 -->
<!-- Title: EasyKiConverter::ConfigService Pages: 1 -->
<svg width="172pt" height="427pt"
 viewBox="0.00 0.00 172.00 427.00" xmlns="http://www.w3.org/2000/svg" xmlns:xlink="http://www.w3.org/1999/xlink">
<g id="graph0" class="graph" transform="scale(1 1) rotate(0) translate(4 423)">
<title>EasyKiConverter::ConfigService</title>
<!-- Node1 -->
<g id="Node000001" class="node">
<title>Node1</title>
<g id="a_Node000001"><a xlink:title="配置服务">
<polygon fill="#999999" stroke="transparent" points="164,-334 0,-334 0,0 164,0 164,-334"/>
<text text-anchor="start" x="5" y="-322" font-family="Helvetica,sans-Serif" font-size="10.00">EasyKiConverter::ConfigService</text>
<text text-anchor="start" x="13" y="-307" font-family="Helvetica,sans-Serif" font-size="10.00">&#45;</text>
<text text-anchor="start" x="30" y="-307" font-family="Helvetica,sans-Serif" font-size="10.00">m_config</text>
<text text-anchor="start" x="13" y="-292" font-family="Helvetica,sans-Serif" font-size="10.00">&#45;</text>
<text text-anchor="start" x="30" y="-292" font-family="Helvetica,sans-Serif" font-size="10.00">m_configPath</text>
<text text-anchor="start" x="13" y="-277" font-family="Helvetica,sans-Serif" font-size="10.00">&#45;</text>
<text text-anchor="start" x="30" y="-277" font-family="Helvetica,sans-Serif" font-size="10.00">m_configMutex</text>
<text text-anchor="start" x="13" y="-262" font-family="Helvetica,sans-Serif" font-size="10.00">&#45;</text>
<text text-anchor="start" x="30" y="-262" font-family="Helvetica,sans-Serif" font-size="10.00">s_instance</text>
<text text-anchor="start" x="13" y="-247" font-family="Helvetica,sans-Serif" font-size="10.00">&#45;</text>
<text text-anchor="start" x="30" y="-247" font-family="Helvetica,sans-Serif" font-size="10.00">s_mutex</text>
<text text-anchor="start" x="10.5" y="-232" font-family="Helvetica,sans-Serif" font-size="10.00">+</text>
<text text-anchor="start" x="30" y="-232" font-family="Helvetica,sans-Serif" font-size="10.00">loadConfig()</text>
<text text-anchor="start" x="10.5" y="-217" font-family="Helvetica,sans-Serif" font-size="10.00">+</text>
<text text-anchor="start" x="30" y="-217" font-family="Helvetica,sans-Serif" font-size="10.00">saveConfig()</text>
<text text-anchor="start" x="10.5" y="-202" font-family="Helvetica,sans-Serif" font-size="10.00">+</text>
<text text-anchor="start" x="30" y="-202" font-family="Helvetica,sans-Serif" font-size="10.00">resetToDefaults()</text>
<text text-anchor="start" x="10.5" y="-187" font-family="Helvetica,sans-Serif" font-size="10.00">+</text>
<text text-anchor="start" x="30" y="-187" font-family="Helvetica,sans-Serif" font-size="10.00">getOutputPath()</text>
<text text-anchor="start" x="10.5" y="-172" font-family="Helvetica,sans-Serif" font-size="10.00">+</text>
<text text-anchor="start" x="30" y="-172" font-family="Helvetica,sans-Serif" font-size="10.00">setOutputPath()</text>
<text text-anchor="start" x="10.5" y="-157" font-family="Helvetica,sans-Serif" font-size="10.00">+</text>
<text text-anchor="start" x="30" y="-157" font-family="Helvetica,sans-Serif" font-size="10.00">getLibName()</text>
<text text-anchor="start" x="10.5" y="-142" font-family="Helvetica,sans-Serif" font-size="10.00">+</text>
<text text-anchor="start" x="30" y="-142" font-family="Helvetica,sans-Serif" font-size="10.00">setLibName()</text>
<text text-anchor="start" x="10.5" y="-127" font-family="Helvetica,sans-Serif" font-size="10.00">+</text>
<text text-anchor="start" x="30" y="-127" font-family="Helvetica,sans-Serif" font-size="10.00">getExportSymbol()</text>
<text text-anchor="start" x="10.5" y="-112" font-family="Helvetica,sans-Serif" font-size="10.00">+</text>
<text text-anchor="start" x="30" y="-112" font-family="Helvetica,sans-Serif" font-size="10.00">setExportSymbol()</text>
<text text-anchor="start" x="10.5" y="-97" font-family="Helvetica,sans-Serif" font-size="10.00">+</text>
<text text-anchor="start" x="30" y="-97" font-family="Helvetica,sans-Serif" font-size="10.00">getExportFootprint()</text>
<text text-anchor="start" x="30" y="-82" font-family="Helvetica,sans-Serif" font-size="10.00">和 10 更多...</text>
<text text-anchor="start" x="10.5" y="-67" font-family="Helvetica,sans-Serif" font-size="10.00">+</text>
<text text-anchor="start" x="30" y="-67" font-family="Helvetica,sans-Serif" font-size="10.00">instance()</text>
<text text-anchor="start" x="13" y="-52" font-family="Helvetica,sans-Serif" font-size="10.00">&#45;</text>
<text text-anchor="start" x="30" y="-52" font-family="Helvetica,sans-Serif" font-size="10.00">ConfigService()</text>
<text text-anchor="start" x="13" y="-37" font-family="Helvetica,sans-Serif" font-size="10.00">&#45;</text>
<text text-anchor="start" x="30" y="-37" font-family="Helvetica,sans-Serif" font-size="10.00">~ConfigService()</text>
<text text-anchor="start" x="13" y="-22" font-family="Helvetica,sans-Serif" font-size="10.00">&#45;</text>
<text text-anchor="start" x="30" y="-22" font-family="Helvetica,sans-Serif" font-size="10.00">initializeDefaultConfig()</text>
<text text-anchor="start" x="13" y="-7" font-family="Helvetica,sans-Serif" font-size="10.00">&#45;</text>
<text text-anchor="start" x="30" y="-7" font-family="Helvetica,sans-Serif" font-size="10.00">getDefaultConfigPath()</text>
<polygon fill="#666666" stroke="#666666" points="0,-317 0,-317 164,-317 164,-317 0,-317"/>
<polygon fill="#666666" stroke="#666666" points="0,-242 0,-242 28,-242 28,-242 0,-242"/>
<polygon fill="#666666" stroke="#666666" points="28,-242 28,-242 164,-242 164,-242 28,-242"/>
<polygon fill="none" stroke="#666666" points="0,0 0,-334 164,-334 164,0 0,0"/>
</a>
</g>
</g>
<!-- Node2 -->
<g id="Node000002" class="node">
<title>Node2</title>
<g id="a_Node000002"><a xlink:title=" ">
<polygon fill="white" stroke="transparent" points="107,-419 57,-419 57,-370 107,-370 107,-419"/>
<text text-anchor="start" x="62" y="-406.5" font-family="Helvetica,sans-Serif" font-size="10.00">QObject</text>
<text text-anchor="start" x="80" y="-391.5" font-family="Helvetica,sans-Serif" font-size="10.00"> </text>
<text text-anchor="start" x="80" y="-376.5" font-family="Helvetica,sans-Serif" font-size="10.00"> </text>
<polygon fill="#666666" stroke="#666666" points="57,-401.5 57,-401.5 107,-401.5 107,-401.5 57,-401.5"/>
<polygon fill="#666666" stroke="#666666" points="57,-386.5 57,-386.5 107,-386.5 107,-386.5 57,-386.5"/>
<polygon fill="none" stroke="#666666" points="57,-370 57,-419 107,-419 107,-370 57,-370"/>
</a>
</g>
</g>
<!-- Node2&#45;&gt;Node1 -->
<g id="edge1_Node000001_Node000002" class="edge">
<title>Node2&#45;&gt;Node1</title>
<g id="a_edge1_Node000001_Node000002"><a xlink:title=" ">
<path fill="none" stroke="#63b8ff" d="M82,-359.74C82,-352.15 82,-343.6 82,-334.43"/>
<polygon fill="none" stroke="#63b8ff" points="78.5,-359.79 82,-369.79 85.5,-359.79 78.5,-359.79"/>
</a>
</g>
</g>
</g>
</svg>
