<?xml version="1.0" encoding="UTF-8" standalone="no"?>
<!DOCTYPE svg PUBLIC "-//W3C//DTD SVG 1.1//EN"
 "http://www.w3.org/Graphics/SVG/1.1/DTD/svg11.dtd">
<!-- Generated by graphviz version 2.43.0 (0)
 -->
<!-- Title: EasyKiConverter::ExportTypeStage Pages: 1 -->
<svg width="893pt" height="819pt"
 viewBox="0.00 0.00 893.00 819.00" xmlns="http://www.w3.org/2000/svg" xmlns:xlink="http://www.w3.org/1999/xlink">
<g id="graph0" class="graph" transform="scale(1 1) rotate(0) translate(4 815)">
<title>EasyKiConverter::ExportTypeStage</title>
<!-- Node1 -->
<g id="Node000001" class="node">
<title>Node1</title>
<g id="a_Node000001"><a xlink:title="导出类型阶段基类">
<polygon fill="#999999" stroke="transparent" points="488,-726 336,-726 336,-246 488,-246 488,-726"/>
<text text-anchor="start" x="341" y="-714" font-family="Helvetica,sans-Serif" font-size="10.00">EasyKiConverter::ExportType</text>
<text text-anchor="start" x="398" y="-703" font-family="Helvetica,sans-Serif" font-size="10.00">Stage</text>
<text text-anchor="start" x="343" y="-688" font-family="Helvetica,sans-Serif" font-size="10.00">+</text>
<text text-anchor="start" x="359" y="-688" font-family="Helvetica,sans-Serif" font-size="10.00">m_typeName</text>
<text text-anchor="start" x="343" y="-673" font-family="Helvetica,sans-Serif" font-size="10.00">+</text>
<text text-anchor="start" x="359" y="-673" font-family="Helvetica,sans-Serif" font-size="10.00">m_threadPool</text>
<text text-anchor="start" x="343" y="-658" font-family="Helvetica,sans-Serif" font-size="10.00">+</text>
<text text-anchor="start" x="359" y="-658" font-family="Helvetica,sans-Serif" font-size="10.00">m_isRunning</text>
<text text-anchor="start" x="343" y="-643" font-family="Helvetica,sans-Serif" font-size="10.00">+</text>
<text text-anchor="start" x="359" y="-643" font-family="Helvetica,sans-Serif" font-size="10.00">m_cancelled</text>
<text text-anchor="start" x="343" y="-628" font-family="Helvetica,sans-Serif" font-size="10.00">+</text>
<text text-anchor="start" x="359" y="-628" font-family="Helvetica,sans-Serif" font-size="10.00">m_isExporting</text>
<text text-anchor="start" x="343" y="-613" font-family="Helvetica,sans-Serif" font-size="10.00">+</text>
<text text-anchor="start" x="359" y="-613" font-family="Helvetica,sans-Serif" font-size="10.00">m_componentIds</text>
<text text-anchor="start" x="343" y="-598" font-family="Helvetica,sans-Serif" font-size="10.00">+</text>
<text text-anchor="start" x="359" y="-598" font-family="Helvetica,sans-Serif" font-size="10.00">m_cachedData</text>
<text text-anchor="start" x="343" y="-583" font-family="Helvetica,sans-Serif" font-size="10.00">+</text>
<text text-anchor="start" x="359" y="-583" font-family="Helvetica,sans-Serif" font-size="10.00">m_progressMutex</text>
<text text-anchor="start" x="343" y="-568" font-family="Helvetica,sans-Serif" font-size="10.00">+</text>
<text text-anchor="start" x="359" y="-568" font-family="Helvetica,sans-Serif" font-size="10.00">m_progress</text>
<text text-anchor="start" x="343" y="-553" font-family="Helvetica,sans-Serif" font-size="10.00">+</text>
<text text-anchor="start" x="359" y="-553" font-family="Helvetica,sans-Serif" font-size="10.00">m_workerMutex</text>
<text text-anchor="start" x="343" y="-538" font-family="Helvetica,sans-Serif" font-size="10.00">+</text>
<text text-anchor="start" x="359" y="-538" font-family="Helvetica,sans-Serif" font-size="10.00">m_activeWorkers</text>
<text text-anchor="start" x="343" y="-523" font-family="Helvetica,sans-Serif" font-size="10.00">+</text>
<text text-anchor="start" x="359" y="-523" font-family="Helvetica,sans-Serif" font-size="10.00">m_pendingComponents</text>
<text text-anchor="start" x="343" y="-508" font-family="Helvetica,sans-Serif" font-size="10.00">+</text>
<text text-anchor="start" x="359" y="-508" font-family="Helvetica,sans-Serif" font-size="10.00">ExportTypeStage()</text>
<text text-anchor="start" x="343" y="-493" font-family="Helvetica,sans-Serif" font-size="10.00">+</text>
<text text-anchor="start" x="359" y="-493" font-family="Helvetica,sans-Serif" font-size="10.00">~ExportTypeStage()</text>
<text text-anchor="start" x="343" y="-478" font-family="Helvetica,sans-Serif" font-size="10.00">+</text>
<text text-anchor="start" x="359" y="-478" font-family="Helvetica,sans-Serif" font-size="10.00">start()</text>
<text text-anchor="start" x="343" y="-463" font-family="Helvetica,sans-Serif" font-size="10.00">+</text>
<text text-anchor="start" x="359" y="-463" font-family="Helvetica,sans-Serif" font-size="10.00">cancel()</text>
<text text-anchor="start" x="343" y="-448" font-family="Helvetica,sans-Serif" font-size="10.00">+</text>
<text text-anchor="start" x="359" y="-448" font-family="Helvetica,sans-Serif" font-size="10.00">waitForFinished()</text>
<text text-anchor="start" x="343" y="-433" font-family="Helvetica,sans-Serif" font-size="10.00">+</text>
<text text-anchor="start" x="359" y="-433" font-family="Helvetica,sans-Serif" font-size="10.00">getProgress()</text>
<text text-anchor="start" x="343" y="-418" font-family="Helvetica,sans-Serif" font-size="10.00">+</text>
<text text-anchor="start" x="359" y="-418" font-family="Helvetica,sans-Serif" font-size="10.00">isRunning()</text>
<text text-anchor="start" x="343" y="-403" font-family="Helvetica,sans-Serif" font-size="10.00">+</text>
<text text-anchor="start" x="359" y="-403" font-family="Helvetica,sans-Serif" font-size="10.00">hasActiveWorkers()</text>
<text text-anchor="start" x="343" y="-388" font-family="Helvetica,sans-Serif" font-size="10.00">+</text>
<text text-anchor="start" x="359" y="-388" font-family="Helvetica,sans-Serif" font-size="10.00">typeName()</text>
<text text-anchor="start" x="343" y="-373" font-family="Helvetica,sans-Serif" font-size="10.00">+</text>
<text text-anchor="start" x="359" y="-373" font-family="Helvetica,sans-Serif" font-size="10.00">progressChanged()</text>
<text text-anchor="start" x="343" y="-358" font-family="Helvetica,sans-Serif" font-size="10.00">+</text>
<text text-anchor="start" x="359" y="-358" font-family="Helvetica,sans-Serif" font-size="10.00">itemStatusChanged()</text>
<text text-anchor="start" x="343" y="-343" font-family="Helvetica,sans-Serif" font-size="10.00">+</text>
<text text-anchor="start" x="359" y="-343" font-family="Helvetica,sans-Serif" font-size="10.00">completed()</text>
<text text-anchor="start" x="343" y="-328" font-family="Helvetica,sans-Serif" font-size="10.00">+</text>
<text text-anchor="start" x="359" y="-328" font-family="Helvetica,sans-Serif" font-size="10.00">completeItemProgress()</text>
<text text-anchor="start" x="343" y="-313" font-family="Helvetica,sans-Serif" font-size="10.00">#</text>
<text text-anchor="start" x="359" y="-313" font-family="Helvetica,sans-Serif" font-size="10.00">createWorker()</text>
<text text-anchor="start" x="343" y="-298" font-family="Helvetica,sans-Serif" font-size="10.00">#</text>
<text text-anchor="start" x="359" y="-298" font-family="Helvetica,sans-Serif" font-size="10.00">startWorker()</text>
<text text-anchor="start" x="343" y="-283" font-family="Helvetica,sans-Serif" font-size="10.00">#</text>
<text text-anchor="start" x="359" y="-283" font-family="Helvetica,sans-Serif" font-size="10.00">startNextWorker()</text>
<text text-anchor="start" x="343" y="-268" font-family="Helvetica,sans-Serif" font-size="10.00">#</text>
<text text-anchor="start" x="359" y="-268" font-family="Helvetica,sans-Serif" font-size="10.00">waitForWorkerThread()</text>
<text text-anchor="start" x="343" y="-253" font-family="Helvetica,sans-Serif" font-size="10.00">#</text>
<text text-anchor="start" x="359" y="-253" font-family="Helvetica,sans-Serif" font-size="10.00">initItemProgress()</text>
<polygon fill="#666666" stroke="#666666" points="336,-698 336,-698 488,-698 488,-698 336,-698"/>
<polygon fill="#666666" stroke="#666666" points="336,-518 336,-518 357,-518 357,-518 336,-518"/>
<polygon fill="#666666" stroke="#666666" points="357,-518 357,-518 488,-518 488,-518 357,-518"/>
<polygon fill="none" stroke="#666666" points="336,-246 336,-726 488,-726 488,-246 336,-246"/>
</a>
</g>
</g>
<!-- Node3 -->
<g id="Node000003" class="node">
<title>Node3</title>
<g id="a_Node000003"><a xlink:href="classEasyKiConverter_1_1DatasheetExportStage.html" target="_top" xlink:title="数据手册导出阶段">
<polygon fill="white" stroke="transparent" points="148,-202.5 0,-202.5 0,-7.5 148,-7.5 148,-202.5"/>
<text text-anchor="start" x="5" y="-190" font-family="Helvetica,sans-Serif" font-size="10.00">EasyKiConverter::Datasheet</text>
<text text-anchor="start" x="44" y="-179" font-family="Helvetica,sans-Serif" font-size="10.00">ExportStage</text>
<text text-anchor="start" x="6.5" y="-164" font-family="Helvetica,sans-Serif" font-size="10.00">&#45;</text>
<text text-anchor="start" x="17" y="-164" font-family="Helvetica,sans-Serif" font-size="10.00">m_options</text>
<text text-anchor="start" x="6.5" y="-149" font-family="Helvetica,sans-Serif" font-size="10.00">&#45;</text>
<text text-anchor="start" x="17" y="-149" font-family="Helvetica,sans-Serif" font-size="10.00">m_tempManager</text>
<text text-anchor="start" x="6.5" y="-134" font-family="Helvetica,sans-Serif" font-size="10.00">&#45;</text>
<text text-anchor="start" x="17" y="-134" font-family="Helvetica,sans-Serif" font-size="10.00">m_tempPaths</text>
<text text-anchor="start" x="6.5" y="-119" font-family="Helvetica,sans-Serif" font-size="10.00">&#45;</text>
<text text-anchor="start" x="17" y="-119" font-family="Helvetica,sans-Serif" font-size="10.00">m_finalPaths</text>
<text text-anchor="start" x="4" y="-104" font-family="Helvetica,sans-Serif" font-size="10.00">+</text>
<text text-anchor="start" x="17" y="-104" font-family="Helvetica,sans-Serif" font-size="10.00">DatasheetExportStage()</text>
<text text-anchor="start" x="4" y="-89" font-family="Helvetica,sans-Serif" font-size="10.00">+</text>
<text text-anchor="start" x="17" y="-89" font-family="Helvetica,sans-Serif" font-size="10.00">~DatasheetExportStage()</text>
<text text-anchor="start" x="4" y="-74" font-family="Helvetica,sans-Serif" font-size="10.00">+</text>
<text text-anchor="start" x="17" y="-74" font-family="Helvetica,sans-Serif" font-size="10.00">setOptions()</text>
<text text-anchor="start" x="4" y="-59" font-family="Helvetica,sans-Serif" font-size="10.00">+</text>
<text text-anchor="start" x="17" y="-59" font-family="Helvetica,sans-Serif" font-size="10.00">start()</text>
<text text-anchor="start" x="4" y="-44" font-family="Helvetica,sans-Serif" font-size="10.00">+</text>
<text text-anchor="start" x="17" y="-44" font-family="Helvetica,sans-Serif" font-size="10.00">cancel()</text>
<text text-anchor="start" x="4" y="-29" font-family="Helvetica,sans-Serif" font-size="10.00">#</text>
<text text-anchor="start" x="17" y="-29" font-family="Helvetica,sans-Serif" font-size="10.00">createWorker()</text>
<text text-anchor="start" x="4" y="-14" font-family="Helvetica,sans-Serif" font-size="10.00">#</text>
<text text-anchor="start" x="17" y="-14" font-family="Helvetica,sans-Serif" font-size="10.00">startWorker()</text>
<polygon fill="#666666" stroke="#666666" points="0,-174 0,-174 148,-174 148,-174 0,-174"/>
<polygon fill="#666666" stroke="#666666" points="0,-114 0,-114 15,-114 15,-114 0,-114"/>
<polygon fill="#666666" stroke="#666666" points="15,-114 15,-114 148,-114 148,-114 15,-114"/>
<polygon fill="none" stroke="#666666" points="0,-7.5 0,-202.5 148,-202.5 148,-7.5 0,-7.5"/>
</a>
</g>
</g>
<!-- Node1&#45;&gt;Node3 -->
<g id="edge2_Node000001_Node000003" class="edge">
<title>Node1&#45;&gt;Node3</title>
<g id="a_edge2_Node000001_Node000003"><a xlink:title=" ">
<path fill="none" stroke="#63b8ff" d="M328.87,-398.68C278.19,-345.24 212.67,-274.69 157,-210 154.06,-206.59 151.09,-203.09 148.11,-199.54"/>
<polygon fill="none" stroke="#63b8ff" points="326.5,-401.26 335.93,-406.1 331.58,-396.44 326.5,-401.26"/>
</a>
</g>
</g>
<!-- Node4 -->
<g id="Node000004" class="node">
<title>Node4</title>
<g id="a_Node000004"><a xlink:href="classEasyKiConverter_1_1FootprintExportStage.html" target="_top" xlink:title="封装库导出阶段">
<polygon fill="white" stroke="transparent" points="307.5,-210 166.5,-210 166.5,0 307.5,0 307.5,-210"/>
<text text-anchor="start" x="172" y="-198" font-family="Helvetica,sans-Serif" font-size="10.00">EasyKiConverter::Footprint</text>
<text text-anchor="start" x="207.5" y="-187" font-family="Helvetica,sans-Serif" font-size="10.00">ExportStage</text>
<text text-anchor="start" x="173.5" y="-172" font-family="Helvetica,sans-Serif" font-size="10.00">&#45;</text>
<text text-anchor="start" x="184" y="-172" font-family="Helvetica,sans-Serif" font-size="10.00">m_options</text>
<text text-anchor="start" x="173.5" y="-157" font-family="Helvetica,sans-Serif" font-size="10.00">&#45;</text>
<text text-anchor="start" x="184" y="-157" font-family="Helvetica,sans-Serif" font-size="10.00">m_tempManager</text>
<text text-anchor="start" x="173.5" y="-142" font-family="Helvetica,sans-Serif" font-size="10.00">&#45;</text>
<text text-anchor="start" x="184" y="-142" font-family="Helvetica,sans-Serif" font-size="10.00">m_workerThread</text>
<text text-anchor="start" x="171" y="-127" font-family="Helvetica,sans-Serif" font-size="10.00">+</text>
<text text-anchor="start" x="184" y="-127" font-family="Helvetica,sans-Serif" font-size="10.00">FootprintExportStage()</text>
<text text-anchor="start" x="171" y="-112" font-family="Helvetica,sans-Serif" font-size="10.00">+</text>
<text text-anchor="start" x="184" y="-112" font-family="Helvetica,sans-Serif" font-size="10.00">~FootprintExportStage()</text>
<text text-anchor="start" x="171" y="-97" font-family="Helvetica,sans-Serif" font-size="10.00">+</text>
<text text-anchor="start" x="184" y="-97" font-family="Helvetica,sans-Serif" font-size="10.00">setOptions()</text>
<text text-anchor="start" x="171" y="-82" font-family="Helvetica,sans-Serif" font-size="10.00">+</text>
<text text-anchor="start" x="184" y="-82" font-family="Helvetica,sans-Serif" font-size="10.00">start()</text>
<text text-anchor="start" x="171" y="-67" font-family="Helvetica,sans-Serif" font-size="10.00">+</text>
<text text-anchor="start" x="184" y="-67" font-family="Helvetica,sans-Serif" font-size="10.00">cancel()</text>
<text text-anchor="start" x="171" y="-52" font-family="Helvetica,sans-Serif" font-size="10.00">+</text>
<text text-anchor="start" x="184" y="-52" font-family="Helvetica,sans-Serif" font-size="10.00">waitForFinished()</text>
<text text-anchor="start" x="171" y="-37" font-family="Helvetica,sans-Serif" font-size="10.00">#</text>
<text text-anchor="start" x="184" y="-37" font-family="Helvetica,sans-Serif" font-size="10.00">createWorker()</text>
<text text-anchor="start" x="171" y="-22" font-family="Helvetica,sans-Serif" font-size="10.00">#</text>
<text text-anchor="start" x="184" y="-22" font-family="Helvetica,sans-Serif" font-size="10.00">startWorker()</text>
<text text-anchor="start" x="173.5" y="-7" font-family="Helvetica,sans-Serif" font-size="10.00">&#45;</text>
<text text-anchor="start" x="184" y="-7" font-family="Helvetica,sans-Serif" font-size="10.00">doLibraryExport()</text>
<polygon fill="#666666" stroke="#666666" points="167,-182 167,-182 308,-182 308,-182 167,-182"/>
<polygon fill="#666666" stroke="#666666" points="167,-137 167,-137 182,-137 182,-137 167,-137"/>
<polygon fill="#666666" stroke="#666666" points="182,-137 182,-137 308,-137 308,-137 182,-137"/>
<polygon fill="none" stroke="#666666" points="166.5,0 166.5,-210 307.5,-210 307.5,0 166.5,0"/>
</a>
</g>
</g>
<!-- Node1&#45;&gt;Node4 -->
<g id="edge3_Node000001_Node000004" class="edge">
<title>Node1&#45;&gt;Node4</title>
<g id="a_edge3_Node000001_Node000004"><a xlink:title=" ">
<path fill="none" stroke="#63b8ff" d="M331.63,-310.93C315.73,-276.51 299.52,-241.4 285.11,-210.19"/>
<polygon fill="none" stroke="#63b8ff" points="328.51,-312.53 335.88,-320.14 334.86,-309.6 328.51,-312.53"/>
</a>
</g>
</g>
<!-- Node5 -->
<g id="Node000005" class="node">
<title>Node5</title>
<g id="a_Node000005"><a xlink:href="classEasyKiConverter_1_1Model3DExportStage.html" target="_top" xlink:title="3D模型导出阶段">
<polygon fill="white" stroke="transparent" points="498.5,-195 325.5,-195 325.5,-15 498.5,-15 498.5,-195"/>
<text text-anchor="start" x="331" y="-183" font-family="Helvetica,sans-Serif" font-size="10.00">EasyKiConverter::Model3DExport</text>
<text text-anchor="start" x="398.5" y="-172" font-family="Helvetica,sans-Serif" font-size="10.00">Stage</text>
<text text-anchor="start" x="340.5" y="-157" font-family="Helvetica,sans-Serif" font-size="10.00">&#45;</text>
<text text-anchor="start" x="359" y="-157" font-family="Helvetica,sans-Serif" font-size="10.00">m_options</text>
<text text-anchor="start" x="340.5" y="-142" font-family="Helvetica,sans-Serif" font-size="10.00">&#45;</text>
<text text-anchor="start" x="359" y="-142" font-family="Helvetica,sans-Serif" font-size="10.00">m_tempManager</text>
<text text-anchor="start" x="340.5" y="-127" font-family="Helvetica,sans-Serif" font-size="10.00">&#45;</text>
<text text-anchor="start" x="359" y="-127" font-family="Helvetica,sans-Serif" font-size="10.00">m_componentPaths</text>
<text text-anchor="start" x="338" y="-112" font-family="Helvetica,sans-Serif" font-size="10.00">+</text>
<text text-anchor="start" x="359" y="-112" font-family="Helvetica,sans-Serif" font-size="10.00">Model3DExportStage()</text>
<text text-anchor="start" x="338" y="-97" font-family="Helvetica,sans-Serif" font-size="10.00">+</text>
<text text-anchor="start" x="359" y="-97" font-family="Helvetica,sans-Serif" font-size="10.00">~Model3DExportStage()</text>
<text text-anchor="start" x="338" y="-82" font-family="Helvetica,sans-Serif" font-size="10.00">+</text>
<text text-anchor="start" x="359" y="-82" font-family="Helvetica,sans-Serif" font-size="10.00">setOptions()</text>
<text text-anchor="start" x="338" y="-67" font-family="Helvetica,sans-Serif" font-size="10.00">+</text>
<text text-anchor="start" x="359" y="-67" font-family="Helvetica,sans-Serif" font-size="10.00">start()</text>
<text text-anchor="start" x="338" y="-52" font-family="Helvetica,sans-Serif" font-size="10.00">+</text>
<text text-anchor="start" x="359" y="-52" font-family="Helvetica,sans-Serif" font-size="10.00">cancel()</text>
<text text-anchor="start" x="338" y="-37" font-family="Helvetica,sans-Serif" font-size="10.00">#</text>
<text text-anchor="start" x="359" y="-37" font-family="Helvetica,sans-Serif" font-size="10.00">createWorker()</text>
<text text-anchor="start" x="338" y="-22" font-family="Helvetica,sans-Serif" font-size="10.00">#</text>
<text text-anchor="start" x="359" y="-22" font-family="Helvetica,sans-Serif" font-size="10.00">startWorker()</text>
<polygon fill="#666666" stroke="#666666" points="326,-167 326,-167 499,-167 499,-167 326,-167"/>
<polygon fill="#666666" stroke="#666666" points="326,-122 326,-122 357,-122 357,-122 326,-122"/>
<polygon fill="#666666" stroke="#666666" points="357,-122 357,-122 499,-122 499,-122 357,-122"/>
<polygon fill="none" stroke="#666666" points="325.5,-15 325.5,-195 498.5,-195 498.5,-15 325.5,-15"/>
</a>
</g>
</g>
<!-- Node1&#45;&gt;Node5 -->
<g id="edge4_Node000001_Node000005" class="edge">
<title>Node1&#45;&gt;Node5</title>
<g id="a_edge4_Node000001_Node000005"><a xlink:title=" ">
<path fill="none" stroke="#63b8ff" d="M412,-235.48C412,-221.44 412,-207.9 412,-195.2"/>
<polygon fill="none" stroke="#63b8ff" points="408.5,-235.78 412,-245.78 415.5,-235.78 408.5,-235.78"/>
</a>
</g>
</g>
<!-- Node6 -->
<g id="Node000006" class="node">
<title>Node6</title>
<g id="a_Node000006"><a xlink:href="classEasyKiConverter_1_1PreviewImagesExportStage.html" target="_top" xlink:title="预览图导出阶段">
<polygon fill="white" stroke="transparent" points="701,-210 517,-210 517,0 701,0 701,-210"/>
<text text-anchor="start" x="545.5" y="-198" font-family="Helvetica,sans-Serif" font-size="10.00">EasyKiConverter::Preview</text>
<text text-anchor="start" x="561" y="-187" font-family="Helvetica,sans-Serif" font-size="10.00">ImagesExportStage</text>
<text text-anchor="start" x="523.5" y="-172" font-family="Helvetica,sans-Serif" font-size="10.00">&#45;</text>
<text text-anchor="start" x="534" y="-172" font-family="Helvetica,sans-Serif" font-size="10.00">m_options</text>
<text text-anchor="start" x="523.5" y="-157" font-family="Helvetica,sans-Serif" font-size="10.00">&#45;</text>
<text text-anchor="start" x="534" y="-157" font-family="Helvetica,sans-Serif" font-size="10.00">m_tempManager</text>
<text text-anchor="start" x="523.5" y="-142" font-family="Helvetica,sans-Serif" font-size="10.00">&#45;</text>
<text text-anchor="start" x="534" y="-142" font-family="Helvetica,sans-Serif" font-size="10.00">m_componentTempPaths</text>
<text text-anchor="start" x="523.5" y="-127" font-family="Helvetica,sans-Serif" font-size="10.00">&#45;</text>
<text text-anchor="start" x="534" y="-127" font-family="Helvetica,sans-Serif" font-size="10.00">m_outputDirs</text>
<text text-anchor="start" x="521" y="-112" font-family="Helvetica,sans-Serif" font-size="10.00">+</text>
<text text-anchor="start" x="534" y="-112" font-family="Helvetica,sans-Serif" font-size="10.00">PreviewImagesExportStage()</text>
<text text-anchor="start" x="521" y="-97" font-family="Helvetica,sans-Serif" font-size="10.00">+</text>
<text text-anchor="start" x="534" y="-97" font-family="Helvetica,sans-Serif" font-size="10.00">~PreviewImagesExportStage()</text>
<text text-anchor="start" x="521" y="-82" font-family="Helvetica,sans-Serif" font-size="10.00">+</text>
<text text-anchor="start" x="534" y="-82" font-family="Helvetica,sans-Serif" font-size="10.00">setOptions()</text>
<text text-anchor="start" x="521" y="-67" font-family="Helvetica,sans-Serif" font-size="10.00">+</text>
<text text-anchor="start" x="534" y="-67" font-family="Helvetica,sans-Serif" font-size="10.00">start()</text>
<text text-anchor="start" x="521" y="-52" font-family="Helvetica,sans-Serif" font-size="10.00">+</text>
<text text-anchor="start" x="534" y="-52" font-family="Helvetica,sans-Serif" font-size="10.00">cancel()</text>
<text text-anchor="start" x="521" y="-37" font-family="Helvetica,sans-Serif" font-size="10.00">#</text>
<text text-anchor="start" x="534" y="-37" font-family="Helvetica,sans-Serif" font-size="10.00">createWorker()</text>
<text text-anchor="start" x="521" y="-22" font-family="Helvetica,sans-Serif" font-size="10.00">#</text>
<text text-anchor="start" x="534" y="-22" font-family="Helvetica,sans-Serif" font-size="10.00">startWorker()</text>
<text text-anchor="start" x="523.5" y="-7" font-family="Helvetica,sans-Serif" font-size="10.00">&#45;</text>
<text text-anchor="start" x="534" y="-7" font-family="Helvetica,sans-Serif" font-size="10.00">createTempPathsForComponent()</text>
<polygon fill="#666666" stroke="#666666" points="517,-182 517,-182 701,-182 701,-182 517,-182"/>
<polygon fill="#666666" stroke="#666666" points="517,-122 517,-122 532,-122 532,-122 517,-122"/>
<polygon fill="#666666" stroke="#666666" points="532,-122 532,-122 701,-122 701,-122 532,-122"/>
<polygon fill="none" stroke="#666666" points="517,0 517,-210 701,-210 701,0 517,0"/>
</a>
</g>
</g>
<!-- Node1&#45;&gt;Node6 -->
<g id="edge5_Node000001_Node000006" class="edge">
<title>Node1&#45;&gt;Node6</title>
<g id="a_edge5_Node000001_Node000006"><a xlink:title=" ">
<path fill="none" stroke="#63b8ff" d="M492.75,-329.64C513.69,-289.36 535.73,-246.95 554.93,-210.02"/>
<polygon fill="none" stroke="#63b8ff" points="489.53,-328.25 488.02,-338.74 495.74,-331.48 489.53,-328.25"/>
</a>
</g>
</g>
<!-- Node7 -->
<g id="Node000007" class="node">
<title>Node7</title>
<g id="a_Node000007"><a xlink:href="classEasyKiConverter_1_1SymbolExportStage.html" target="_top" xlink:title="符号库导出阶段">
<polygon fill="white" stroke="transparent" points="885,-210 719,-210 719,0 885,0 885,-210"/>
<text text-anchor="start" x="724" y="-198" font-family="Helvetica,sans-Serif" font-size="10.00">EasyKiConverter::SymbolExport</text>
<text text-anchor="start" x="788" y="-187" font-family="Helvetica,sans-Serif" font-size="10.00">Stage</text>
<text text-anchor="start" x="733.5" y="-172" font-family="Helvetica,sans-Serif" font-size="10.00">&#45;</text>
<text text-anchor="start" x="752" y="-172" font-family="Helvetica,sans-Serif" font-size="10.00">m_options</text>
<text text-anchor="start" x="733.5" y="-157" font-family="Helvetica,sans-Serif" font-size="10.00">&#45;</text>
<text text-anchor="start" x="752" y="-157" font-family="Helvetica,sans-Serif" font-size="10.00">m_tempManager</text>
<text text-anchor="start" x="733.5" y="-142" font-family="Helvetica,sans-Serif" font-size="10.00">&#45;</text>
<text text-anchor="start" x="752" y="-142" font-family="Helvetica,sans-Serif" font-size="10.00">m_workerThread</text>
<text text-anchor="start" x="731" y="-127" font-family="Helvetica,sans-Serif" font-size="10.00">+</text>
<text text-anchor="start" x="752" y="-127" font-family="Helvetica,sans-Serif" font-size="10.00">SymbolExportStage()</text>
<text text-anchor="start" x="731" y="-112" font-family="Helvetica,sans-Serif" font-size="10.00">+</text>
<text text-anchor="start" x="752" y="-112" font-family="Helvetica,sans-Serif" font-size="10.00">~SymbolExportStage()</text>
<text text-anchor="start" x="731" y="-97" font-family="Helvetica,sans-Serif" font-size="10.00">+</text>
<text text-anchor="start" x="752" y="-97" font-family="Helvetica,sans-Serif" font-size="10.00">setOptions()</text>
<text text-anchor="start" x="731" y="-82" font-family="Helvetica,sans-Serif" font-size="10.00">+</text>
<text text-anchor="start" x="752" y="-82" font-family="Helvetica,sans-Serif" font-size="10.00">start()</text>
<text text-anchor="start" x="731" y="-67" font-family="Helvetica,sans-Serif" font-size="10.00">+</text>
<text text-anchor="start" x="752" y="-67" font-family="Helvetica,sans-Serif" font-size="10.00">cancel()</text>
<text text-anchor="start" x="731" y="-52" font-family="Helvetica,sans-Serif" font-size="10.00">+</text>
<text text-anchor="start" x="752" y="-52" font-family="Helvetica,sans-Serif" font-size="10.00">waitForFinished()</text>
<text text-anchor="start" x="731" y="-37" font-family="Helvetica,sans-Serif" font-size="10.00">#</text>
<text text-anchor="start" x="752" y="-37" font-family="Helvetica,sans-Serif" font-size="10.00">createWorker()</text>
<text text-anchor="start" x="731" y="-22" font-family="Helvetica,sans-Serif" font-size="10.00">#</text>
<text text-anchor="start" x="752" y="-22" font-family="Helvetica,sans-Serif" font-size="10.00">startWorker()</text>
<text text-anchor="start" x="733.5" y="-7" font-family="Helvetica,sans-Serif" font-size="10.00">&#45;</text>
<text text-anchor="start" x="752" y="-7" font-family="Helvetica,sans-Serif" font-size="10.00">doLibraryExport()</text>
<polygon fill="#666666" stroke="#666666" points="719,-182 719,-182 885,-182 885,-182 719,-182"/>
<polygon fill="#666666" stroke="#666666" points="719,-137 719,-137 750,-137 750,-137 719,-137"/>
<polygon fill="#666666" stroke="#666666" points="750,-137 750,-137 885,-137 885,-137 750,-137"/>
<polygon fill="none" stroke="#666666" points="719,0 719,-210 885,-210 885,0 719,0"/>
</a>
</g>
</g>
<!-- Node1&#45;&gt;Node7 -->
<g id="edge6_Node000001_Node000007" class="edge">
<title>Node1&#45;&gt;Node7</title>
<g id="a_edge6_Node000001_Node000007"><a xlink:title=" ">
<path fill="none" stroke="#63b8ff" d="M495.75,-411.83C556.67,-357.63 640.33,-281.15 710,-210 712.95,-206.99 715.93,-203.9 718.92,-200.76"/>
<polygon fill="none" stroke="#63b8ff" points="493.22,-409.4 488.06,-418.66 497.87,-414.64 493.22,-409.4"/>
</a>
</g>
</g>
<!-- Node2 -->
<g id="Node000002" class="node">
<title>Node2</title>
<g id="a_Node000002"><a xlink:title=" ">
<polygon fill="white" stroke="transparent" points="437,-811 387,-811 387,-762 437,-762 437,-811"/>
<text text-anchor="start" x="392" y="-798.5" font-family="Helvetica,sans-Serif" font-size="10.00">QObject</text>
<text text-anchor="start" x="410" y="-783.5" font-family="Helvetica,sans-Serif" font-size="10.00"> </text>
<text text-anchor="start" x="410" y="-768.5" font-family="Helvetica,sans-Serif" font-size="10.00"> </text>
<polygon fill="#666666" stroke="#666666" points="387,-793.5 387,-793.5 437,-793.5 437,-793.5 387,-793.5"/>
<polygon fill="#666666" stroke="#666666" points="387,-778.5 387,-778.5 437,-778.5 437,-778.5 387,-778.5"/>
<polygon fill="none" stroke="#666666" points="387,-762 387,-811 437,-811 437,-762 387,-762"/>
</a>
</g>
</g>
<!-- Node2&#45;&gt;Node1 -->
<g id="edge1_Node000001_Node000002" class="edge">
<title>Node2&#45;&gt;Node1</title>
<g id="a_edge1_Node000001_Node000002"><a xlink:title=" ">
<path fill="none" stroke="#63b8ff" d="M412,-751.81C412,-744.22 412,-735.61 412,-726.24"/>
<polygon fill="none" stroke="#63b8ff" points="408.5,-751.83 412,-761.83 415.5,-751.83 408.5,-751.83"/>
</a>
</g>
</g>
</g>
</svg>
