<?xml version="1.0" encoding="UTF-8" standalone="no"?>
<!DOCTYPE svg PUBLIC "-//W3C//DTD SVG 1.1//EN"
 "http://www.w3.org/Graphics/SVG/1.1/DTD/svg11.dtd">
<!-- Generated by graphviz version 2.43.0 (0)
 -->
<!-- Title: EasyKiConverter::NetworkWorker Pages: 1 -->
<svg width="163pt" height="553pt"
 viewBox="0.00 0.00 163.00 553.00" xmlns="http://www.w3.org/2000/svg" xmlns:xlink="http://www.w3.org/1999/xlink">
<g id="graph0" class="graph" transform="scale(1 1) rotate(0) translate(4 549)">
<title>EasyKiConverter::NetworkWorker</title>
<!-- Node1 -->
<g id="Node000001" class="node">
<title>Node1</title>
<g id="a_Node000001"><a xlink:title="网络工作线程">
<polygon fill="#999999" stroke="transparent" points="148,-360 7,-360 7,0 148,0 148,-360"/>
<text text-anchor="start" x="13.5" y="-348" font-family="Helvetica,sans-Serif" font-size="10.00">EasyKiConverter::Network</text>
<text text-anchor="start" x="61" y="-337" font-family="Helvetica,sans-Serif" font-size="10.00">Worker</text>
<text text-anchor="start" x="14" y="-322" font-family="Helvetica,sans-Serif" font-size="10.00">&#45;</text>
<text text-anchor="start" x="24.5" y="-322" font-family="Helvetica,sans-Serif" font-size="10.00">m_componentId</text>
<text text-anchor="start" x="14" y="-307" font-family="Helvetica,sans-Serif" font-size="10.00">&#45;</text>
<text text-anchor="start" x="24.5" y="-307" font-family="Helvetica,sans-Serif" font-size="10.00">m_taskType</text>
<text text-anchor="start" x="14" y="-292" font-family="Helvetica,sans-Serif" font-size="10.00">&#45;</text>
<text text-anchor="start" x="24.5" y="-292" font-family="Helvetica,sans-Serif" font-size="10.00">m_uuid</text>
<text text-anchor="start" x="14" y="-277" font-family="Helvetica,sans-Serif" font-size="10.00">&#45;</text>
<text text-anchor="start" x="24.5" y="-277" font-family="Helvetica,sans-Serif" font-size="10.00">m_currentRequest</text>
<text text-anchor="start" x="14" y="-262" font-family="Helvetica,sans-Serif" font-size="10.00">&#45;</text>
<text text-anchor="start" x="24.5" y="-262" font-family="Helvetica,sans-Serif" font-size="10.00">m_mutex</text>
<text text-anchor="start" x="14" y="-247" font-family="Helvetica,sans-Serif" font-size="10.00">&#45;</text>
<text text-anchor="start" x="24.5" y="-247" font-family="Helvetica,sans-Serif" font-size="10.00">DEFAULT_TIMEOUT_MS</text>
<text text-anchor="start" x="14" y="-232" font-family="Helvetica,sans-Serif" font-size="10.00">&#45;</text>
<text text-anchor="start" x="24.5" y="-232" font-family="Helvetica,sans-Serif" font-size="10.00">MODEL_TIMEOUT_MS</text>
<text text-anchor="start" x="14" y="-217" font-family="Helvetica,sans-Serif" font-size="10.00">&#45;</text>
<text text-anchor="start" x="24.5" y="-217" font-family="Helvetica,sans-Serif" font-size="10.00">MAX_RETRIES</text>
<text text-anchor="start" x="11.5" y="-202" font-family="Helvetica,sans-Serif" font-size="10.00">+</text>
<text text-anchor="start" x="24.5" y="-202" font-family="Helvetica,sans-Serif" font-size="10.00">NetworkWorker()</text>
<text text-anchor="start" x="11.5" y="-187" font-family="Helvetica,sans-Serif" font-size="10.00">+</text>
<text text-anchor="start" x="24.5" y="-187" font-family="Helvetica,sans-Serif" font-size="10.00">~NetworkWorker()</text>
<text text-anchor="start" x="11.5" y="-172" font-family="Helvetica,sans-Serif" font-size="10.00">+</text>
<text text-anchor="start" x="24.5" y="-172" font-family="Helvetica,sans-Serif" font-size="10.00">run()</text>
<text text-anchor="start" x="11.5" y="-157" font-family="Helvetica,sans-Serif" font-size="10.00">+</text>
<text text-anchor="start" x="24.5" y="-157" font-family="Helvetica,sans-Serif" font-size="10.00">componentInfoFetched()</text>
<text text-anchor="start" x="11.5" y="-142" font-family="Helvetica,sans-Serif" font-size="10.00">+</text>
<text text-anchor="start" x="24.5" y="-142" font-family="Helvetica,sans-Serif" font-size="10.00">cadDataFetched()</text>
<text text-anchor="start" x="11.5" y="-127" font-family="Helvetica,sans-Serif" font-size="10.00">+</text>
<text text-anchor="start" x="24.5" y="-127" font-family="Helvetica,sans-Serif" font-size="10.00">model3DFetched()</text>
<text text-anchor="start" x="11.5" y="-112" font-family="Helvetica,sans-Serif" font-size="10.00">+</text>
<text text-anchor="start" x="24.5" y="-112" font-family="Helvetica,sans-Serif" font-size="10.00">fetchError()</text>
<text text-anchor="start" x="11.5" y="-97" font-family="Helvetica,sans-Serif" font-size="10.00">+</text>
<text text-anchor="start" x="24.5" y="-97" font-family="Helvetica,sans-Serif" font-size="10.00">requestProgress()</text>
<text text-anchor="start" x="11.5" y="-82" font-family="Helvetica,sans-Serif" font-size="10.00">+</text>
<text text-anchor="start" x="24.5" y="-82" font-family="Helvetica,sans-Serif" font-size="10.00">abort()</text>
<text text-anchor="start" x="11.5" y="-67" font-family="Helvetica,sans-Serif" font-size="10.00">+</text>
<text text-anchor="start" x="24.5" y="-67" font-family="Helvetica,sans-Serif" font-size="10.00">executeRequest()</text>
<text text-anchor="start" x="14" y="-52" font-family="Helvetica,sans-Serif" font-size="10.00">&#45;</text>
<text text-anchor="start" x="24.5" y="-52" font-family="Helvetica,sans-Serif" font-size="10.00">fetchComponentInfo()</text>
<text text-anchor="start" x="14" y="-37" font-family="Helvetica,sans-Serif" font-size="10.00">&#45;</text>
<text text-anchor="start" x="24.5" y="-37" font-family="Helvetica,sans-Serif" font-size="10.00">fetchCadData()</text>
<text text-anchor="start" x="14" y="-22" font-family="Helvetica,sans-Serif" font-size="10.00">&#45;</text>
<text text-anchor="start" x="24.5" y="-22" font-family="Helvetica,sans-Serif" font-size="10.00">fetch3DModelObj()</text>
<text text-anchor="start" x="14" y="-7" font-family="Helvetica,sans-Serif" font-size="10.00">&#45;</text>
<text text-anchor="start" x="24.5" y="-7" font-family="Helvetica,sans-Serif" font-size="10.00">fetch3DModelMtl()</text>
<polygon fill="#666666" stroke="#666666" points="7.5,-332 7.5,-332 148.5,-332 148.5,-332 7.5,-332"/>
<polygon fill="#666666" stroke="#666666" points="7.5,-212 7.5,-212 22.5,-212 22.5,-212 7.5,-212"/>
<polygon fill="#666666" stroke="#666666" points="22.5,-212 22.5,-212 148.5,-212 148.5,-212 22.5,-212"/>
<polygon fill="none" stroke="#666666" points="7,0 7,-360 148,-360 148,0 7,0"/>
</a>
</g>
</g>
<!-- Node2 -->
<g id="Node000002" class="node">
<title>Node2</title>
<g id="a_Node000002"><a xlink:href="classEasyKiConverter_1_1BaseWorker.html" target="_top" xlink:title="Base class for all workers with unified lifecycle management">
<polygon fill="white" stroke="transparent" points="155,-460 0,-460 0,-396 155,-396 155,-460"/>
<text text-anchor="start" x="5.5" y="-448" font-family="Helvetica,sans-Serif" font-size="10.00">EasyKiConverter::BaseWorker</text>
<text text-anchor="start" x="76" y="-433" font-family="Helvetica,sans-Serif" font-size="10.00"> </text>
<text text-anchor="start" x="19.5" y="-418" font-family="Helvetica,sans-Serif" font-size="10.00">+</text>
<text text-anchor="start" x="47.5" y="-418" font-family="Helvetica,sans-Serif" font-size="10.00">~BaseWorker()</text>
<text text-anchor="start" x="19.5" y="-403" font-family="Helvetica,sans-Serif" font-size="10.00">#</text>
<text text-anchor="start" x="47.5" y="-403" font-family="Helvetica,sans-Serif" font-size="10.00">BaseWorker()</text>
<polygon fill="#666666" stroke="#666666" points="0.5,-443 0.5,-443 155.5,-443 155.5,-443 0.5,-443"/>
<polygon fill="#666666" stroke="#666666" points="0.5,-428 0.5,-428 155.5,-428 155.5,-428 0.5,-428"/>
<polygon fill="none" stroke="#666666" points="0,-396 0,-460 155,-460 155,-396 0,-396"/>
</a>
</g>
</g>
<!-- Node2&#45;&gt;Node1 -->
<g id="edge1_Node000001_Node000002" class="edge">
<title>Node2&#45;&gt;Node1</title>
<g id="a_edge1_Node000001_Node000002"><a xlink:title=" ">
<path fill="none" stroke="#63b8ff" d="M77.5,-385.72C77.5,-377.91 77.5,-369.3 77.5,-360.16"/>
<polygon fill="none" stroke="#63b8ff" points="74,-385.84 77.5,-395.84 81,-385.84 74,-385.84"/>
</a>
</g>
</g>
<!-- Node3 -->
<g id="Node000003" class="node">
<title>Node3</title>
<g id="a_Node000003"><a xlink:title=" ">
<polygon fill="white" stroke="transparent" points="65.5,-545 15.5,-545 15.5,-496 65.5,-496 65.5,-545"/>
<text text-anchor="start" x="20.5" y="-532.5" font-family="Helvetica,sans-Serif" font-size="10.00">QObject</text>
<text text-anchor="start" x="38.5" y="-517.5" font-family="Helvetica,sans-Serif" font-size="10.00"> </text>
<text text-anchor="start" x="38.5" y="-502.5" font-family="Helvetica,sans-Serif" font-size="10.00"> </text>
<polygon fill="#666666" stroke="#666666" points="15.5,-527.5 15.5,-527.5 65.5,-527.5 65.5,-527.5 15.5,-527.5"/>
<polygon fill="#666666" stroke="#666666" points="15.5,-512.5 15.5,-512.5 65.5,-512.5 65.5,-512.5 15.5,-512.5"/>
<polygon fill="none" stroke="#666666" points="15.5,-496 15.5,-545 65.5,-545 65.5,-496 15.5,-496"/>
</a>
</g>
</g>
<!-- Node3&#45;&gt;Node2 -->
<g id="edge2_Node000002_Node000003" class="edge">
<title>Node3&#45;&gt;Node2</title>
<g id="a_edge2_Node000002_Node000003"><a xlink:title=" ">
<path fill="none" stroke="#63b8ff" d="M54.04,-486.37C57.55,-477.79 61.32,-468.59 64.78,-460.11"/>
<polygon fill="none" stroke="#63b8ff" points="50.77,-485.14 50.22,-495.72 57.25,-487.79 50.77,-485.14"/>
</a>
</g>
</g>
<!-- Node4 -->
<g id="Node000004" class="node">
<title>Node4</title>
<g id="a_Node000004"><a xlink:title=" ">
<polygon fill="white" stroke="transparent" points="147.5,-545 83.5,-545 83.5,-496 147.5,-496 147.5,-545"/>
<text text-anchor="start" x="88.5" y="-532.5" font-family="Helvetica,sans-Serif" font-size="10.00">QRunnable</text>
<text text-anchor="start" x="113.5" y="-517.5" font-family="Helvetica,sans-Serif" font-size="10.00"> </text>
<text text-anchor="start" x="113.5" y="-502.5" font-family="Helvetica,sans-Serif" font-size="10.00"> </text>
<polygon fill="#666666" stroke="#666666" points="83.5,-527.5 83.5,-527.5 147.5,-527.5 147.5,-527.5 83.5,-527.5"/>
<polygon fill="#666666" stroke="#666666" points="83.5,-512.5 83.5,-512.5 147.5,-512.5 147.5,-512.5 83.5,-512.5"/>
<polygon fill="none" stroke="#666666" points="83.5,-496 83.5,-545 147.5,-545 147.5,-496 83.5,-496"/>
</a>
</g>
</g>
<!-- Node4&#45;&gt;Node2 -->
<g id="edge3_Node000002_Node000004" class="edge">
<title>Node4&#45;&gt;Node2</title>
<g id="a_edge3_Node000002_Node000004"><a xlink:title=" ">
<path fill="none" stroke="#63b8ff" d="M101.59,-486.37C97.99,-477.79 94.12,-468.59 90.56,-460.11"/>
<polygon fill="none" stroke="#63b8ff" points="98.42,-487.86 105.52,-495.72 104.87,-485.15 98.42,-487.86"/>
</a>
</g>
</g>
</g>
</svg>
