<?xml version="1.0" encoding="UTF-8" standalone="no"?>
<!DOCTYPE svg PUBLIC "-//W3C//DTD SVG 1.1//EN"
 "http://www.w3.org/Graphics/SVG/1.1/DTD/svg11.dtd">
<!-- Generated by graphviz version 2.43.0 (0)
 -->
<!-- Title: EasyKiConverter::PipelineCompletionHandler Pages: 1 -->
<svg width="209pt" height="310pt"
 viewBox="0.00 0.00 209.00 310.00" xmlns="http://www.w3.org/2000/svg" xmlns:xlink="http://www.w3.org/1999/xlink">
<g id="graph0" class="graph" transform="scale(1 1) rotate(0) translate(4 306)">
<title>EasyKiConverter::PipelineCompletionHandler</title>
<!-- Node1 -->
<g id="Node000001" class="node">
<title>Node1</title>
<g id="a_Node000001"><a xlink:title=" ">
<polygon fill="#999999" stroke="transparent" points="201,-217 0,-217 0,0 201,0 201,-217"/>
<text text-anchor="start" x="37.5" y="-204.5" font-family="Helvetica,sans-Serif" font-size="10.00">EasyKiConverter::Pipeline</text>
<text text-anchor="start" x="53.5" y="-193.5" font-family="Helvetica,sans-Serif" font-size="10.00">CompletionHandler</text>
<text text-anchor="start" x="7" y="-178.5" font-family="Helvetica,sans-Serif" font-size="10.00">&#45;</text>
<text text-anchor="start" x="17.5" y="-178.5" font-family="Helvetica,sans-Serif" font-size="10.00">INVALID_FILENAME_CHARS</text>
<text text-anchor="start" x="4.5" y="-163.5" font-family="Helvetica,sans-Serif" font-size="10.00">+</text>
<text text-anchor="start" x="17.5" y="-163.5" font-family="Helvetica,sans-Serif" font-size="10.00">PipelineCompletionHandler()</text>
<text text-anchor="start" x="4.5" y="-148.5" font-family="Helvetica,sans-Serif" font-size="10.00">+</text>
<text text-anchor="start" x="17.5" y="-148.5" font-family="Helvetica,sans-Serif" font-size="10.00">~PipelineCompletionHandler()</text>
<text text-anchor="start" x="4.5" y="-133.5" font-family="Helvetica,sans-Serif" font-size="10.00">+</text>
<text text-anchor="start" x="17.5" y="-133.5" font-family="Helvetica,sans-Serif" font-size="10.00">exportPreviewImages()</text>
<text text-anchor="start" x="4.5" y="-118.5" font-family="Helvetica,sans-Serif" font-size="10.00">+</text>
<text text-anchor="start" x="17.5" y="-118.5" font-family="Helvetica,sans-Serif" font-size="10.00">exportDatasheets()</text>
<text text-anchor="start" x="4.5" y="-103.5" font-family="Helvetica,sans-Serif" font-size="10.00">+</text>
<text text-anchor="start" x="17.5" y="-103.5" font-family="Helvetica,sans-Serif" font-size="10.00">exportPreviewImagesFromView</text>
<text text-anchor="start" x="17.5" y="-92.5" font-family="Helvetica,sans-Serif" font-size="10.00">Model()</text>
<text text-anchor="start" x="4.5" y="-77.5" font-family="Helvetica,sans-Serif" font-size="10.00">+</text>
<text text-anchor="start" x="17.5" y="-77.5" font-family="Helvetica,sans-Serif" font-size="10.00">exportDatasheetsFromView</text>
<text text-anchor="start" x="17.5" y="-66.5" font-family="Helvetica,sans-Serif" font-size="10.00">Model()</text>
<text text-anchor="start" x="4.5" y="-51.5" font-family="Helvetica,sans-Serif" font-size="10.00">+</text>
<text text-anchor="start" x="17.5" y="-51.5" font-family="Helvetica,sans-Serif" font-size="10.00">previewImagesExported()</text>
<text text-anchor="start" x="4.5" y="-36.5" font-family="Helvetica,sans-Serif" font-size="10.00">+</text>
<text text-anchor="start" x="17.5" y="-36.5" font-family="Helvetica,sans-Serif" font-size="10.00">datasheetsExported()</text>
<text text-anchor="start" x="7" y="-21.5" font-family="Helvetica,sans-Serif" font-size="10.00">&#45;</text>
<text text-anchor="start" x="17.5" y="-21.5" font-family="Helvetica,sans-Serif" font-size="10.00">exportPreviewImagesFromMemory()</text>
<text text-anchor="start" x="7" y="-6.5" font-family="Helvetica,sans-Serif" font-size="10.00">&#45;</text>
<text text-anchor="start" x="17.5" y="-6.5" font-family="Helvetica,sans-Serif" font-size="10.00">exportDatasheetFromMemory()</text>
<polygon fill="#666666" stroke="#666666" points="0.5,-188.5 0.5,-188.5 201.5,-188.5 201.5,-188.5 0.5,-188.5"/>
<polygon fill="#666666" stroke="#666666" points="0.5,-173.5 0.5,-173.5 15.5,-173.5 15.5,-173.5 0.5,-173.5"/>
<polygon fill="#666666" stroke="#666666" points="15.5,-173.5 15.5,-173.5 201.5,-173.5 201.5,-173.5 15.5,-173.5"/>
<polygon fill="none" stroke="#666666" points="0,0 0,-217 201,-217 201,0 0,0"/>
</a>
</g>
</g>
<!-- Node2 -->
<g id="Node000002" class="node">
<title>Node2</title>
<g id="a_Node000002"><a xlink:title=" ">
<polygon fill="white" stroke="transparent" points="125.5,-302 75.5,-302 75.5,-253 125.5,-253 125.5,-302"/>
<text text-anchor="start" x="80.5" y="-289.5" font-family="Helvetica,sans-Serif" font-size="10.00">QObject</text>
<text text-anchor="start" x="98.5" y="-274.5" font-family="Helvetica,sans-Serif" font-size="10.00"> </text>
<text text-anchor="start" x="98.5" y="-259.5" font-family="Helvetica,sans-Serif" font-size="10.00"> </text>
<polygon fill="#666666" stroke="#666666" points="75.5,-284.5 75.5,-284.5 125.5,-284.5 125.5,-284.5 75.5,-284.5"/>
<polygon fill="#666666" stroke="#666666" points="75.5,-269.5 75.5,-269.5 125.5,-269.5 125.5,-269.5 75.5,-269.5"/>
<polygon fill="none" stroke="#666666" points="75.5,-253 75.5,-302 125.5,-302 125.5,-253 75.5,-253"/>
</a>
</g>
</g>
<!-- Node2&#45;&gt;Node1 -->
<g id="edge1_Node000001_Node000002" class="edge">
<title>Node2&#45;&gt;Node1</title>
<g id="a_edge1_Node000001_Node000002"><a xlink:title=" ">
<path fill="none" stroke="#63b8ff" d="M100.5,-242.91C100.5,-235.11 100.5,-226.4 100.5,-217.26"/>
<polygon fill="none" stroke="#63b8ff" points="97,-242.93 100.5,-252.93 104,-242.93 97,-242.93"/>
</a>
</g>
</g>
</g>
</svg>
