<?xml version="1.0" encoding="UTF-8" standalone="no"?>
<!DOCTYPE svg PUBLIC "-//W3C//DTD SVG 1.1//EN"
 "http://www.w3.org/Graphics/SVG/1.1/DTD/svg11.dtd">
<!-- Generated by graphviz version 2.43.0 (0)
 -->
<!-- Title: EasyKiConverter::WriteWorker Pages: 1 -->
<svg width="655pt" height="1625pt"
 viewBox="0.00 0.00 655.19 1625.00" xmlns="http://www.w3.org/2000/svg" xmlns:xlink="http://www.w3.org/1999/xlink">
<g id="graph0" class="graph" transform="scale(1 1) rotate(0) translate(4 1621)">
<title>EasyKiConverter::WriteWorker</title>
<!-- Node1 -->
<g id="Node000001" class="node">
<title>Node1</title>
<g id="a_Node000001"><a xlink:title="写入工作线程">
<polygon fill="#999999" stroke="transparent" points="448.19,-319 290.19,-319 290.19,0 448.19,0 448.19,-319"/>
<text text-anchor="start" x="295.19" y="-306.5" font-family="Helvetica,sans-Serif" font-size="10.00">EasyKiConverter::WriteWorker</text>
<text text-anchor="start" x="301.69" y="-291.5" font-family="Helvetica,sans-Serif" font-size="10.00">&#45;</text>
<text text-anchor="start" x="317.19" y="-291.5" font-family="Helvetica,sans-Serif" font-size="10.00">m_status</text>
<text text-anchor="start" x="301.69" y="-276.5" font-family="Helvetica,sans-Serif" font-size="10.00">&#45;</text>
<text text-anchor="start" x="317.19" y="-276.5" font-family="Helvetica,sans-Serif" font-size="10.00">m_outputPath</text>
<text text-anchor="start" x="301.69" y="-261.5" font-family="Helvetica,sans-Serif" font-size="10.00">&#45;</text>
<text text-anchor="start" x="317.19" y="-261.5" font-family="Helvetica,sans-Serif" font-size="10.00">m_libName</text>
<text text-anchor="start" x="301.69" y="-246.5" font-family="Helvetica,sans-Serif" font-size="10.00">&#45;</text>
<text text-anchor="start" x="317.19" y="-246.5" font-family="Helvetica,sans-Serif" font-size="10.00">m_exportSymbol</text>
<text text-anchor="start" x="301.69" y="-231.5" font-family="Helvetica,sans-Serif" font-size="10.00">&#45;</text>
<text text-anchor="start" x="317.19" y="-231.5" font-family="Helvetica,sans-Serif" font-size="10.00">m_exportFootprint</text>
<text text-anchor="start" x="301.69" y="-216.5" font-family="Helvetica,sans-Serif" font-size="10.00">&#45;</text>
<text text-anchor="start" x="317.19" y="-216.5" font-family="Helvetica,sans-Serif" font-size="10.00">m_exportModel3D</text>
<text text-anchor="start" x="301.69" y="-201.5" font-family="Helvetica,sans-Serif" font-size="10.00">&#45;</text>
<text text-anchor="start" x="317.19" y="-201.5" font-family="Helvetica,sans-Serif" font-size="10.00">m_debugMode</text>
<text text-anchor="start" x="301.69" y="-186.5" font-family="Helvetica,sans-Serif" font-size="10.00">&#45;</text>
<text text-anchor="start" x="317.19" y="-186.5" font-family="Helvetica,sans-Serif" font-size="10.00">m_tempDir</text>
<text text-anchor="start" x="301.69" y="-171.5" font-family="Helvetica,sans-Serif" font-size="10.00">&#45;</text>
<text text-anchor="start" x="317.19" y="-171.5" font-family="Helvetica,sans-Serif" font-size="10.00">m_isAborted</text>
<text text-anchor="start" x="301.69" y="-156.5" font-family="Helvetica,sans-Serif" font-size="10.00">&#45;</text>
<text text-anchor="start" x="317.19" y="-156.5" font-family="Helvetica,sans-Serif" font-size="10.00">s_fileWriteMutex</text>
<text text-anchor="start" x="299.19" y="-141.5" font-family="Helvetica,sans-Serif" font-size="10.00">+</text>
<text text-anchor="start" x="317.19" y="-141.5" font-family="Helvetica,sans-Serif" font-size="10.00">WriteWorker()</text>
<text text-anchor="start" x="299.19" y="-126.5" font-family="Helvetica,sans-Serif" font-size="10.00">+</text>
<text text-anchor="start" x="317.19" y="-126.5" font-family="Helvetica,sans-Serif" font-size="10.00">~WriteWorker()</text>
<text text-anchor="start" x="299.19" y="-111.5" font-family="Helvetica,sans-Serif" font-size="10.00">+</text>
<text text-anchor="start" x="317.19" y="-111.5" font-family="Helvetica,sans-Serif" font-size="10.00">run()</text>
<text text-anchor="start" x="299.19" y="-96.5" font-family="Helvetica,sans-Serif" font-size="10.00">+</text>
<text text-anchor="start" x="317.19" y="-96.5" font-family="Helvetica,sans-Serif" font-size="10.00">abort()</text>
<text text-anchor="start" x="299.19" y="-81.5" font-family="Helvetica,sans-Serif" font-size="10.00">+</text>
<text text-anchor="start" x="317.19" y="-81.5" font-family="Helvetica,sans-Serif" font-size="10.00">writeCompleted()</text>
<text text-anchor="start" x="301.69" y="-66.5" font-family="Helvetica,sans-Serif" font-size="10.00">&#45;</text>
<text text-anchor="start" x="317.19" y="-66.5" font-family="Helvetica,sans-Serif" font-size="10.00">writeSymbolFile()</text>
<text text-anchor="start" x="301.69" y="-51.5" font-family="Helvetica,sans-Serif" font-size="10.00">&#45;</text>
<text text-anchor="start" x="317.19" y="-51.5" font-family="Helvetica,sans-Serif" font-size="10.00">writeFootprintFile()</text>
<text text-anchor="start" x="301.69" y="-36.5" font-family="Helvetica,sans-Serif" font-size="10.00">&#45;</text>
<text text-anchor="start" x="317.19" y="-36.5" font-family="Helvetica,sans-Serif" font-size="10.00">write3DModelFile()</text>
<text text-anchor="start" x="301.69" y="-21.5" font-family="Helvetica,sans-Serif" font-size="10.00">&#45;</text>
<text text-anchor="start" x="317.19" y="-21.5" font-family="Helvetica,sans-Serif" font-size="10.00">createOutputDirectory()</text>
<text text-anchor="start" x="301.69" y="-6.5" font-family="Helvetica,sans-Serif" font-size="10.00">&#45;</text>
<text text-anchor="start" x="317.19" y="-6.5" font-family="Helvetica,sans-Serif" font-size="10.00">exportDebugData()</text>
<polygon fill="#666666" stroke="#666666" points="290.19,-301.5 290.19,-301.5 448.19,-301.5 448.19,-301.5 290.19,-301.5"/>
<polygon fill="#666666" stroke="#666666" points="290.19,-151.5 290.19,-151.5 315.19,-151.5 315.19,-151.5 290.19,-151.5"/>
<polygon fill="#666666" stroke="#666666" points="315.19,-151.5 315.19,-151.5 448.19,-151.5 448.19,-151.5 315.19,-151.5"/>
<polygon fill="none" stroke="#666666" points="290.19,0 290.19,-319 448.19,-319 448.19,0 290.19,0"/>
</a>
</g>
</g>
<!-- Node2 -->
<g id="Node000002" class="node">
<title>Node2</title>
<g id="a_Node000002"><a xlink:title=" ">
<polygon fill="white" stroke="transparent" points="356.19,-1536.5 306.19,-1536.5 306.19,-1487.5 356.19,-1487.5 356.19,-1536.5"/>
<text text-anchor="start" x="311.19" y="-1524" font-family="Helvetica,sans-Serif" font-size="10.00">QObject</text>
<text text-anchor="start" x="329.19" y="-1509" font-family="Helvetica,sans-Serif" font-size="10.00"> </text>
<text text-anchor="start" x="329.19" y="-1494" font-family="Helvetica,sans-Serif" font-size="10.00"> </text>
<polygon fill="#666666" stroke="#666666" points="306.19,-1519 306.19,-1519 356.19,-1519 356.19,-1519 306.19,-1519"/>
<polygon fill="#666666" stroke="#666666" points="306.19,-1504 306.19,-1504 356.19,-1504 356.19,-1504 306.19,-1504"/>
<polygon fill="none" stroke="#666666" points="306.19,-1487.5 306.19,-1536.5 356.19,-1536.5 356.19,-1487.5 306.19,-1487.5"/>
</a>
</g>
</g>
<!-- Node2&#45;&gt;Node1 -->
<g id="edge1_Node000001_Node000002" class="edge">
<title>Node2&#45;&gt;Node1</title>
<g id="a_edge1_Node000001_Node000002"><a xlink:title=" ">
<path fill="none" stroke="#63b8ff" d="M295.94,-1503.61C232.26,-1488.38 98.09,-1447.33 27.19,-1360 -2.9,-1322.92 0.19,-1303.75 0.19,-1256 0.19,-1256 0.19,-1256 0.19,-500 0.19,-343.74 181.61,-239.7 290.03,-191.47"/>
<polygon fill="none" stroke="#63b8ff" points="295.37,-1507.07 305.9,-1505.92 296.95,-1500.25 295.37,-1507.07"/>
</a>
</g>
</g>
<!-- Node4 -->
<g id="Node000004" class="node">
<title>Node4</title>
<g id="a_Node000004"><a xlink:href="classEasyKiConverter_1_1ExporterSymbol.html" target="_top" xlink:title="KiCad 符号导出器类">
<polygon fill="white" stroke="transparent" points="276.19,-583.5 128.19,-583.5 128.19,-418.5 276.19,-418.5 276.19,-583.5"/>
<text text-anchor="start" x="137.69" y="-571" font-family="Helvetica,sans-Serif" font-size="10.00">EasyKiConverter::Exporter</text>
<text text-anchor="start" x="183.69" y="-560" font-family="Helvetica,sans-Serif" font-size="10.00">Symbol</text>
<text text-anchor="start" x="200.19" y="-545" font-family="Helvetica,sans-Serif" font-size="10.00"> </text>
<text text-anchor="start" x="132.19" y="-530" font-family="Helvetica,sans-Serif" font-size="10.00">+</text>
<text text-anchor="start" x="145.19" y="-530" font-family="Helvetica,sans-Serif" font-size="10.00">ExporterSymbol()</text>
<text text-anchor="start" x="132.19" y="-515" font-family="Helvetica,sans-Serif" font-size="10.00">+</text>
<text text-anchor="start" x="145.19" y="-515" font-family="Helvetica,sans-Serif" font-size="10.00">~ExporterSymbol()</text>
<text text-anchor="start" x="132.19" y="-500" font-family="Helvetica,sans-Serif" font-size="10.00">+</text>
<text text-anchor="start" x="145.19" y="-500" font-family="Helvetica,sans-Serif" font-size="10.00">exportSymbol()</text>
<text text-anchor="start" x="132.19" y="-485" font-family="Helvetica,sans-Serif" font-size="10.00">+</text>
<text text-anchor="start" x="145.19" y="-485" font-family="Helvetica,sans-Serif" font-size="10.00">exportSymbolLibrary()</text>
<text text-anchor="start" x="134.69" y="-470" font-family="Helvetica,sans-Serif" font-size="10.00">&#45;</text>
<text text-anchor="start" x="145.19" y="-470" font-family="Helvetica,sans-Serif" font-size="10.00">generateHeader()</text>
<text text-anchor="start" x="134.69" y="-455" font-family="Helvetica,sans-Serif" font-size="10.00">&#45;</text>
<text text-anchor="start" x="145.19" y="-455" font-family="Helvetica,sans-Serif" font-size="10.00">generateSymbolContent()</text>
<text text-anchor="start" x="134.69" y="-440" font-family="Helvetica,sans-Serif" font-size="10.00">&#45;</text>
<text text-anchor="start" x="145.19" y="-440" font-family="Helvetica,sans-Serif" font-size="10.00">generateSubSymbol()</text>
<text text-anchor="start" x="134.69" y="-425" font-family="Helvetica,sans-Serif" font-size="10.00">&#45;</text>
<text text-anchor="start" x="145.19" y="-425" font-family="Helvetica,sans-Serif" font-size="10.00">generateSubSymbol()</text>
<polygon fill="#666666" stroke="#666666" points="128.19,-555 128.19,-555 276.19,-555 276.19,-555 128.19,-555"/>
<polygon fill="#666666" stroke="#666666" points="128.19,-540 128.19,-540 276.19,-540 276.19,-540 128.19,-540"/>
<polygon fill="none" stroke="#666666" points="128.19,-418.5 128.19,-583.5 276.19,-583.5 276.19,-418.5 128.19,-418.5"/>
</a>
</g>
</g>
<!-- Node2&#45;&gt;Node4 -->
<g id="edge4_Node000004_Node000002" class="edge">
<title>Node2&#45;&gt;Node4</title>
<g id="a_edge4_Node000004_Node000002"><a xlink:title=" ">
<path fill="none" stroke="#63b8ff" d="M308.64,-1478.69C289.46,-1449.26 263.18,-1403.83 251.19,-1360 209.76,-1208.5 230.09,-810.61 218.19,-654 216.46,-631.11 214.07,-606.34 211.66,-583.57"/>
<polygon fill="none" stroke="#63b8ff" points="305.9,-1480.89 314.34,-1487.29 311.73,-1477.02 305.9,-1480.89"/>
</a>
</g>
</g>
<!-- Node7 -->
<g id="Node000007" class="node">
<title>Node7</title>
<g id="a_Node000007"><a xlink:href="classEasyKiConverter_1_1ExporterFootprint.html" target="_top" xlink:title="KiCad 封装导出器类">
<polygon fill="white" stroke="transparent" points="612.19,-1337.5 458.19,-1337.5 458.19,-1172.5 612.19,-1172.5 612.19,-1337.5"/>
<text text-anchor="start" x="470.69" y="-1325" font-family="Helvetica,sans-Serif" font-size="10.00">EasyKiConverter::Exporter</text>
<text text-anchor="start" x="513.19" y="-1314" font-family="Helvetica,sans-Serif" font-size="10.00">Footprint</text>
<text text-anchor="start" x="533.19" y="-1299" font-family="Helvetica,sans-Serif" font-size="10.00"> </text>
<text text-anchor="start" x="462.19" y="-1284" font-family="Helvetica,sans-Serif" font-size="10.00">+</text>
<text text-anchor="start" x="475.19" y="-1284" font-family="Helvetica,sans-Serif" font-size="10.00">ExporterFootprint()</text>
<text text-anchor="start" x="462.19" y="-1269" font-family="Helvetica,sans-Serif" font-size="10.00">+</text>
<text text-anchor="start" x="475.19" y="-1269" font-family="Helvetica,sans-Serif" font-size="10.00">~ExporterFootprint()</text>
<text text-anchor="start" x="462.19" y="-1254" font-family="Helvetica,sans-Serif" font-size="10.00">+</text>
<text text-anchor="start" x="475.19" y="-1254" font-family="Helvetica,sans-Serif" font-size="10.00">exportFootprint()</text>
<text text-anchor="start" x="462.19" y="-1239" font-family="Helvetica,sans-Serif" font-size="10.00">+</text>
<text text-anchor="start" x="475.19" y="-1239" font-family="Helvetica,sans-Serif" font-size="10.00">exportFootprint()</text>
<text text-anchor="start" x="462.19" y="-1224" font-family="Helvetica,sans-Serif" font-size="10.00">+</text>
<text text-anchor="start" x="475.19" y="-1224" font-family="Helvetica,sans-Serif" font-size="10.00">exportFootprintLibrary()</text>
<text text-anchor="start" x="464.69" y="-1209" font-family="Helvetica,sans-Serif" font-size="10.00">&#45;</text>
<text text-anchor="start" x="475.19" y="-1209" font-family="Helvetica,sans-Serif" font-size="10.00">generateHeader()</text>
<text text-anchor="start" x="464.69" y="-1194" font-family="Helvetica,sans-Serif" font-size="10.00">&#45;</text>
<text text-anchor="start" x="475.19" y="-1194" font-family="Helvetica,sans-Serif" font-size="10.00">generateFootprintContent()</text>
<text text-anchor="start" x="464.69" y="-1179" font-family="Helvetica,sans-Serif" font-size="10.00">&#45;</text>
<text text-anchor="start" x="475.19" y="-1179" font-family="Helvetica,sans-Serif" font-size="10.00">generateFootprintContent()</text>
<polygon fill="#666666" stroke="#666666" points="458.19,-1309 458.19,-1309 612.19,-1309 612.19,-1309 458.19,-1309"/>
<polygon fill="#666666" stroke="#666666" points="458.19,-1294 458.19,-1294 612.19,-1294 612.19,-1294 458.19,-1294"/>
<polygon fill="none" stroke="#666666" points="458.19,-1172.5 458.19,-1337.5 612.19,-1337.5 612.19,-1172.5 458.19,-1172.5"/>
</a>
</g>
</g>
<!-- Node2&#45;&gt;Node7 -->
<g id="edge8_Node000007_Node000002" class="edge">
<title>Node2&#45;&gt;Node7</title>
<g id="a_edge8_Node000007_Node000002"><a xlink:title=" ">
<path fill="none" stroke="#63b8ff" d="M362.52,-1479.77C385.99,-1455.78 418.36,-1421.37 444.19,-1389 457.11,-1372.82 470.16,-1354.88 482.19,-1337.55"/>
<polygon fill="none" stroke="#63b8ff" points="359.75,-1477.6 355.24,-1487.18 364.74,-1482.5 359.75,-1477.6"/>
</a>
</g>
</g>
<!-- Node9 -->
<g id="Node000009" class="node">
<title>Node9</title>
<g id="a_Node000009"><a xlink:href="classEasyKiConverter_1_1Exporter3DModel.html" target="_top" xlink:title="3D 模型导出器类">
<polygon fill="white" stroke="transparent" points="457.69,-636 294.69,-636 294.69,-366 457.69,-366 457.69,-636"/>
<text text-anchor="start" x="309.19" y="-624" font-family="Helvetica,sans-Serif" font-size="10.00">EasyKiConverter::Exporter3</text>
<text text-anchor="start" x="357.69" y="-613" font-family="Helvetica,sans-Serif" font-size="10.00">DModel</text>
<text text-anchor="start" x="301.69" y="-598" font-family="Helvetica,sans-Serif" font-size="10.00">&#45;</text>
<text text-anchor="start" x="312.19" y="-598" font-family="Helvetica,sans-Serif" font-size="10.00">m_currentUuid</text>
<text text-anchor="start" x="301.69" y="-583" font-family="Helvetica,sans-Serif" font-size="10.00">&#45;</text>
<text text-anchor="start" x="312.19" y="-583" font-family="Helvetica,sans-Serif" font-size="10.00">m_savePath</text>
<text text-anchor="start" x="299.19" y="-568" font-family="Helvetica,sans-Serif" font-size="10.00">+</text>
<text text-anchor="start" x="312.19" y="-568" font-family="Helvetica,sans-Serif" font-size="10.00">Exporter3DModel()</text>
<text text-anchor="start" x="299.19" y="-553" font-family="Helvetica,sans-Serif" font-size="10.00">+</text>
<text text-anchor="start" x="312.19" y="-553" font-family="Helvetica,sans-Serif" font-size="10.00">~Exporter3DModel()</text>
<text text-anchor="start" x="299.19" y="-538" font-family="Helvetica,sans-Serif" font-size="10.00">+</text>
<text text-anchor="start" x="312.19" y="-538" font-family="Helvetica,sans-Serif" font-size="10.00">downloadObjModel()</text>
<text text-anchor="start" x="299.19" y="-523" font-family="Helvetica,sans-Serif" font-size="10.00">+</text>
<text text-anchor="start" x="312.19" y="-523" font-family="Helvetica,sans-Serif" font-size="10.00">downloadStepModel()</text>
<text text-anchor="start" x="299.19" y="-508" font-family="Helvetica,sans-Serif" font-size="10.00">+</text>
<text text-anchor="start" x="312.19" y="-508" font-family="Helvetica,sans-Serif" font-size="10.00">exportToWrl()</text>
<text text-anchor="start" x="299.19" y="-493" font-family="Helvetica,sans-Serif" font-size="10.00">+</text>
<text text-anchor="start" x="312.19" y="-493" font-family="Helvetica,sans-Serif" font-size="10.00">exportToStep()</text>
<text text-anchor="start" x="299.19" y="-478" font-family="Helvetica,sans-Serif" font-size="10.00">+</text>
<text text-anchor="start" x="312.19" y="-478" font-family="Helvetica,sans-Serif" font-size="10.00">convertToKiCadCoordinates()</text>
<text text-anchor="start" x="299.19" y="-463" font-family="Helvetica,sans-Serif" font-size="10.00">+</text>
<text text-anchor="start" x="312.19" y="-463" font-family="Helvetica,sans-Serif" font-size="10.00">cancel()</text>
<text text-anchor="start" x="299.19" y="-448" font-family="Helvetica,sans-Serif" font-size="10.00">+</text>
<text text-anchor="start" x="312.19" y="-448" font-family="Helvetica,sans-Serif" font-size="10.00">downloadSuccess()</text>
<text text-anchor="start" x="299.19" y="-433" font-family="Helvetica,sans-Serif" font-size="10.00">+</text>
<text text-anchor="start" x="312.19" y="-433" font-family="Helvetica,sans-Serif" font-size="10.00">downloadError()</text>
<text text-anchor="start" x="299.19" y="-418" font-family="Helvetica,sans-Serif" font-size="10.00">+</text>
<text text-anchor="start" x="312.19" y="-418" font-family="Helvetica,sans-Serif" font-size="10.00">downloadProgress()</text>
<text text-anchor="start" x="301.69" y="-403" font-family="Helvetica,sans-Serif" font-size="10.00">&#45;</text>
<text text-anchor="start" x="312.19" y="-403" font-family="Helvetica,sans-Serif" font-size="10.00">generateWrlContent()</text>
<text text-anchor="start" x="301.69" y="-388" font-family="Helvetica,sans-Serif" font-size="10.00">&#45;</text>
<text text-anchor="start" x="312.19" y="-388" font-family="Helvetica,sans-Serif" font-size="10.00">parseObjData()</text>
<text text-anchor="start" x="301.69" y="-373" font-family="Helvetica,sans-Serif" font-size="10.00">&#45;</text>
<text text-anchor="start" x="312.19" y="-373" font-family="Helvetica,sans-Serif" font-size="10.00">getModelUrl()</text>
<polygon fill="#666666" stroke="#666666" points="295.19,-608 295.19,-608 458.19,-608 458.19,-608 295.19,-608"/>
<polygon fill="#666666" stroke="#666666" points="295.19,-578 295.19,-578 310.19,-578 310.19,-578 295.19,-578"/>
<polygon fill="#666666" stroke="#666666" points="310.19,-578 310.19,-578 458.19,-578 458.19,-578 310.19,-578"/>
<polygon fill="none" stroke="#666666" points="294.69,-366 294.69,-636 457.69,-636 457.69,-366 294.69,-366"/>
</a>
</g>
</g>
<!-- Node2&#45;&gt;Node9 -->
<g id="edge11_Node000009_Node000002" class="edge">
<title>Node2&#45;&gt;Node9</title>
<g id="a_edge11_Node000009_Node000002"><a xlink:title=" ">
<path fill="none" stroke="#63b8ff" d="M354.17,-1478.8C373.63,-1449.44 400.08,-1404.06 411.19,-1360 486.78,-1060.49 415.08,-973.89 416.19,-665 416.21,-660.11 416.82,-658.85 416.19,-654 415.44,-648.18 414.53,-642.27 413.5,-636.32"/>
<polygon fill="none" stroke="#63b8ff" points="351.07,-1477.13 348.38,-1487.38 356.88,-1481.05 351.07,-1477.13"/>
</a>
</g>
</g>
<!-- Node11 -->
<g id="Node000011" class="node">
<title>Node11</title>
<g id="a_Node000011"><a xlink:href="classEasyKiConverter_1_1INetworkAdapter.html" target="_top" xlink:title="网络适配器接口">
<polygon fill="white" stroke="transparent" points="402.19,-1360 260.19,-1360 260.19,-1150 402.19,-1150 402.19,-1360"/>
<text text-anchor="start" x="265.19" y="-1348" font-family="Helvetica,sans-Serif" font-size="10.00">EasyKiConverter::INetwork</text>
<text text-anchor="start" x="311.69" y="-1337" font-family="Helvetica,sans-Serif" font-size="10.00">Adapter</text>
<text text-anchor="start" x="329.19" y="-1322" font-family="Helvetica,sans-Serif" font-size="10.00"> </text>
<text text-anchor="start" x="266.69" y="-1307" font-family="Helvetica,sans-Serif" font-size="10.00">+</text>
<text text-anchor="start" x="282.19" y="-1307" font-family="Helvetica,sans-Serif" font-size="10.00">INetworkAdapter()</text>
<text text-anchor="start" x="266.69" y="-1292" font-family="Helvetica,sans-Serif" font-size="10.00">+</text>
<text text-anchor="start" x="282.19" y="-1292" font-family="Helvetica,sans-Serif" font-size="10.00">~INetworkAdapter()</text>
<text text-anchor="start" x="266.69" y="-1277" font-family="Helvetica,sans-Serif" font-size="10.00">+</text>
<text text-anchor="start" x="282.19" y="-1277" font-family="Helvetica,sans-Serif" font-size="10.00">sendGetRequest()</text>
<text text-anchor="start" x="266.69" y="-1262" font-family="Helvetica,sans-Serif" font-size="10.00">+</text>
<text text-anchor="start" x="282.19" y="-1262" font-family="Helvetica,sans-Serif" font-size="10.00">cancelRequest()</text>
<text text-anchor="start" x="266.69" y="-1247" font-family="Helvetica,sans-Serif" font-size="10.00">+</text>
<text text-anchor="start" x="282.19" y="-1247" font-family="Helvetica,sans-Serif" font-size="10.00">setHeader()</text>
<text text-anchor="start" x="266.69" y="-1232" font-family="Helvetica,sans-Serif" font-size="10.00">+</text>
<text text-anchor="start" x="282.19" y="-1232" font-family="Helvetica,sans-Serif" font-size="10.00">clearHeaders()</text>
<text text-anchor="start" x="266.69" y="-1217" font-family="Helvetica,sans-Serif" font-size="10.00">+</text>
<text text-anchor="start" x="282.19" y="-1217" font-family="Helvetica,sans-Serif" font-size="10.00">setExpectBinaryData()</text>
<text text-anchor="start" x="266.69" y="-1202" font-family="Helvetica,sans-Serif" font-size="10.00">+</text>
<text text-anchor="start" x="282.19" y="-1202" font-family="Helvetica,sans-Serif" font-size="10.00">requestSuccess()</text>
<text text-anchor="start" x="266.69" y="-1187" font-family="Helvetica,sans-Serif" font-size="10.00">+</text>
<text text-anchor="start" x="282.19" y="-1187" font-family="Helvetica,sans-Serif" font-size="10.00">binaryDataFetched()</text>
<text text-anchor="start" x="266.69" y="-1172" font-family="Helvetica,sans-Serif" font-size="10.00">+</text>
<text text-anchor="start" x="282.19" y="-1172" font-family="Helvetica,sans-Serif" font-size="10.00">requestError()</text>
<text text-anchor="start" x="266.69" y="-1157" font-family="Helvetica,sans-Serif" font-size="10.00">+</text>
<text text-anchor="start" x="282.19" y="-1157" font-family="Helvetica,sans-Serif" font-size="10.00">requestProgress()</text>
<polygon fill="#666666" stroke="#666666" points="260.19,-1332 260.19,-1332 402.19,-1332 402.19,-1332 260.19,-1332"/>
<polygon fill="#666666" stroke="#666666" points="260.19,-1317 260.19,-1317 402.19,-1317 402.19,-1317 260.19,-1317"/>
<polygon fill="none" stroke="#666666" points="260.19,-1150 260.19,-1360 402.19,-1360 402.19,-1150 260.19,-1150"/>
</a>
</g>
</g>
<!-- Node2&#45;&gt;Node11 -->
<g id="edge14_Node000011_Node000002" class="edge">
<title>Node2&#45;&gt;Node11</title>
<g id="a_edge14_Node000011_Node000002"><a xlink:title=" ">
<path fill="none" stroke="#63b8ff" d="M331.19,-1477.18C331.19,-1447.26 331.19,-1402 331.19,-1360.2"/>
<polygon fill="none" stroke="#63b8ff" points="327.69,-1477.47 331.19,-1487.47 334.69,-1477.47 327.69,-1477.47"/>
</a>
</g>
</g>
<!-- Node3 -->
<g id="Node000003" class="node">
<title>Node3</title>
<g id="a_Node000003"><a xlink:title=" ">
<polygon fill="white" stroke="transparent" points="584.19,-525.5 520.19,-525.5 520.19,-476.5 584.19,-476.5 584.19,-525.5"/>
<text text-anchor="start" x="525.19" y="-513" font-family="Helvetica,sans-Serif" font-size="10.00">QRunnable</text>
<text text-anchor="start" x="550.19" y="-498" font-family="Helvetica,sans-Serif" font-size="10.00"> </text>
<text text-anchor="start" x="550.19" y="-483" font-family="Helvetica,sans-Serif" font-size="10.00"> </text>
<polygon fill="#666666" stroke="#666666" points="520.19,-508 520.19,-508 584.19,-508 584.19,-508 520.19,-508"/>
<polygon fill="#666666" stroke="#666666" points="520.19,-493 520.19,-493 584.19,-493 584.19,-493 520.19,-493"/>
<polygon fill="none" stroke="#666666" points="520.19,-476.5 520.19,-525.5 584.19,-525.5 584.19,-476.5 520.19,-476.5"/>
</a>
</g>
</g>
<!-- Node3&#45;&gt;Node1 -->
<g id="edge2_Node000001_Node000003" class="edge">
<title>Node3&#45;&gt;Node1</title>
<g id="a_edge2_Node000001_Node000003"><a xlink:title=" ">
<path fill="none" stroke="#63b8ff" d="M546.63,-466.4C540.13,-432.44 527.45,-379.1 506.19,-337 490.72,-306.36 469.57,-275.8 448.52,-248.95"/>
<polygon fill="none" stroke="#63b8ff" points="543.2,-467.09 548.46,-476.29 550.09,-465.82 543.2,-467.09"/>
</a>
</g>
</g>
<!-- Node4&#45;&gt;Node1 -->
<g id="edge3_Node000001_Node000004" class="edge">
<title>Node4&#45;&gt;Node1</title>
<g id="a_edge3_Node000001_Node000004"><a xlink:title=" ">
<path fill="none" stroke="#63b8ff" d="M230.71,-418.47C240.73,-392.08 252.64,-362.94 265.19,-337 271.06,-324.87 277.48,-312.46 284.14,-300.12"/>
<polygon fill="none" stroke="#63b8ff" points="284.3,-299.83 283.67,-292.65 290.05,-289.31 290.68,-296.49 284.3,-299.83"/>
</a>
</g>
<text text-anchor="middle" x="315.19" y="-340" font-family="Helvetica,sans-Serif" font-size="10.00" fill="grey"> &#45;m_symbolExporter</text>
</g>
<!-- Node5 -->
<g id="Node000005" class="node">
<title>Node5</title>
<g id="a_Node000005"><a xlink:href="classEasyKiConverter_1_1SymbolGraphicsGenerator.html" target="_top" xlink:title="符号图形元素生成器">
<polygon fill="white" stroke="transparent" points="204.69,-998 27.69,-998 27.69,-788 204.69,-788 204.69,-998"/>
<text text-anchor="start" x="33.19" y="-986" font-family="Helvetica,sans-Serif" font-size="10.00">EasyKiConverter::SymbolGraphics</text>
<text text-anchor="start" x="92.19" y="-975" font-family="Helvetica,sans-Serif" font-size="10.00">Generator</text>
<text text-anchor="start" x="114.69" y="-960" font-family="Helvetica,sans-Serif" font-size="10.00"> </text>
<text text-anchor="start" x="37.19" y="-945" font-family="Helvetica,sans-Serif" font-size="10.00">+</text>
<text text-anchor="start" x="55.19" y="-945" font-family="Helvetica,sans-Serif" font-size="10.00">SymbolGraphicsGenerator()</text>
<text text-anchor="start" x="37.19" y="-930" font-family="Helvetica,sans-Serif" font-size="10.00">+</text>
<text text-anchor="start" x="55.19" y="-930" font-family="Helvetica,sans-Serif" font-size="10.00">setCurrentBBox()</text>
<text text-anchor="start" x="37.19" y="-915" font-family="Helvetica,sans-Serif" font-size="10.00">+</text>
<text text-anchor="start" x="55.19" y="-915" font-family="Helvetica,sans-Serif" font-size="10.00">currentBBox()</text>
<text text-anchor="start" x="37.19" y="-900" font-family="Helvetica,sans-Serif" font-size="10.00">+</text>
<text text-anchor="start" x="55.19" y="-900" font-family="Helvetica,sans-Serif" font-size="10.00">generateDrawings()</text>
<text text-anchor="start" x="37.19" y="-885" font-family="Helvetica,sans-Serif" font-size="10.00">+</text>
<text text-anchor="start" x="55.19" y="-885" font-family="Helvetica,sans-Serif" font-size="10.00">generateDrawings()</text>
<text text-anchor="start" x="37.19" y="-870" font-family="Helvetica,sans-Serif" font-size="10.00">+</text>
<text text-anchor="start" x="55.19" y="-870" font-family="Helvetica,sans-Serif" font-size="10.00">generatePins()</text>
<text text-anchor="start" x="37.19" y="-855" font-family="Helvetica,sans-Serif" font-size="10.00">+</text>
<text text-anchor="start" x="55.19" y="-855" font-family="Helvetica,sans-Serif" font-size="10.00">generatePin()</text>
<text text-anchor="start" x="37.19" y="-840" font-family="Helvetica,sans-Serif" font-size="10.00">+</text>
<text text-anchor="start" x="55.19" y="-840" font-family="Helvetica,sans-Serif" font-size="10.00">generateRectangle()</text>
<text text-anchor="start" x="37.19" y="-825" font-family="Helvetica,sans-Serif" font-size="10.00">+</text>
<text text-anchor="start" x="55.19" y="-825" font-family="Helvetica,sans-Serif" font-size="10.00">generateCircle()</text>
<text text-anchor="start" x="37.19" y="-810" font-family="Helvetica,sans-Serif" font-size="10.00">+</text>
<text text-anchor="start" x="55.19" y="-810" font-family="Helvetica,sans-Serif" font-size="10.00">generateArc()</text>
<text text-anchor="start" x="55.19" y="-795" font-family="Helvetica,sans-Serif" font-size="10.00">和 11 更多...</text>
<polygon fill="#666666" stroke="#666666" points="28.19,-970 28.19,-970 205.19,-970 205.19,-970 28.19,-970"/>
<polygon fill="#666666" stroke="#666666" points="28.19,-955 28.19,-955 205.19,-955 205.19,-955 28.19,-955"/>
<polygon fill="none" stroke="#666666" points="27.69,-788 27.69,-998 204.69,-998 204.69,-788 27.69,-788"/>
</a>
</g>
</g>
<!-- Node5&#45;&gt;Node4 -->
<g id="edge5_Node000004_Node000005" class="edge">
<title>Node5&#45;&gt;Node4</title>
<g id="a_edge5_Node000004_Node000005"><a xlink:title=" ">
<path fill="none" stroke="#63b8ff" d="M97.53,-787.77C93.62,-745.51 93.84,-696.71 106.19,-654 112.16,-633.38 121.85,-612.87 132.83,-593.9"/>
<polygon fill="none" stroke="#63b8ff" points="132.87,-593.82 132.53,-586.62 139.04,-583.53 139.39,-590.74 132.87,-593.82"/>
</a>
</g>
<text text-anchor="middle" x="162.19" y="-657" font-family="Helvetica,sans-Serif" font-size="10.00" fill="grey"> &#45;m_graphicsGenerator</text>
</g>
<!-- Node6 -->
<g id="Node000006" class="node">
<title>Node6</title>
<g id="a_Node000006"><a xlink:href="structEasyKiConverter_1_1SymbolBBox.html" target="_top" xlink:title="边界">
<polygon fill="white" stroke="transparent" points="196.19,-1302 36.19,-1302 36.19,-1208 196.19,-1208 196.19,-1302"/>
<text text-anchor="start" x="41.19" y="-1290" font-family="Helvetica,sans-Serif" font-size="10.00">EasyKiConverter::SymbolBBox</text>
<text text-anchor="start" x="67.19" y="-1275" font-family="Helvetica,sans-Serif" font-size="10.00">+</text>
<text text-anchor="start" x="107.19" y="-1275" font-family="Helvetica,sans-Serif" font-size="10.00">x</text>
<text text-anchor="start" x="67.19" y="-1260" font-family="Helvetica,sans-Serif" font-size="10.00">+</text>
<text text-anchor="start" x="107.19" y="-1260" font-family="Helvetica,sans-Serif" font-size="10.00">y</text>
<text text-anchor="start" x="67.19" y="-1245" font-family="Helvetica,sans-Serif" font-size="10.00">+</text>
<text text-anchor="start" x="107.19" y="-1245" font-family="Helvetica,sans-Serif" font-size="10.00">width</text>
<text text-anchor="start" x="67.19" y="-1230" font-family="Helvetica,sans-Serif" font-size="10.00">+</text>
<text text-anchor="start" x="107.19" y="-1230" font-family="Helvetica,sans-Serif" font-size="10.00">height</text>
<text text-anchor="start" x="114.19" y="-1215" font-family="Helvetica,sans-Serif" font-size="10.00"> </text>
<polygon fill="#666666" stroke="#666666" points="36.19,-1285 36.19,-1285 196.19,-1285 196.19,-1285 36.19,-1285"/>
<polygon fill="#666666" stroke="#666666" points="36.19,-1225 36.19,-1225 105.19,-1225 105.19,-1225 36.19,-1225"/>
<polygon fill="#666666" stroke="#666666" points="105.19,-1225 105.19,-1225 196.19,-1225 196.19,-1225 105.19,-1225"/>
<polygon fill="none" stroke="#666666" points="36.19,-1208 36.19,-1302 196.19,-1302 196.19,-1208 36.19,-1208"/>
</a>
</g>
</g>
<!-- Node6&#45;&gt;Node5 -->
<g id="edge6_Node000005_Node000006" class="edge">
<title>Node6&#45;&gt;Node5</title>
<g id="a_edge6_Node000005_Node000006"><a xlink:title=" ">
<path fill="none" stroke="#63b8ff" d="M116.19,-1207.67C116.19,-1158.15 116.19,-1077.71 116.19,-1010.68"/>
<polygon fill="none" stroke="#63b8ff" points="116.19,-1010.34 112.19,-1004.34 116.19,-998.34 120.19,-1004.34 116.19,-1010.34"/>
</a>
</g>
<text text-anchor="middle" x="157.19" y="-1124" font-family="Helvetica,sans-Serif" font-size="10.00" fill="grey"> &#45;m_currentBBox</text>
</g>
<!-- Node7&#45;&gt;Node1 -->
<g id="edge7_Node000001_Node000007" class="edge">
<title>Node7&#45;&gt;Node1</title>
<g id="a_edge7_Node000001_Node000007"><a xlink:title=" ">
<path fill="none" stroke="#63b8ff" d="M532.39,-1172.45C524.87,-962.69 503.1,-415.38 478.19,-337 472.18,-318.06 463.69,-299.09 454.08,-280.98"/>
<polygon fill="none" stroke="#63b8ff" points="454.06,-280.95 447.67,-277.6 448.3,-270.42 454.69,-273.76 454.06,-280.95"/>
</a>
</g>
<text text-anchor="middle" x="562.19" y="-657" font-family="Helvetica,sans-Serif" font-size="10.00" fill="grey"> &#45;m_footprintExporter</text>
</g>
<!-- Node8 -->
<g id="Node000008" class="node">
<title>Node8</title>
<g id="a_Node000008"><a xlink:href="classEasyKiConverter_1_1FootprintGraphicsGenerator.html" target="_top" xlink:title="封装图形生成器">
<polygon fill="white" stroke="transparent" points="620.69,-1617 449.69,-1617 449.69,-1407 620.69,-1407 620.69,-1617"/>
<text text-anchor="start" x="470.19" y="-1605" font-family="Helvetica,sans-Serif" font-size="10.00">EasyKiConverter::Footprint</text>
<text text-anchor="start" x="489.69" y="-1594" font-family="Helvetica,sans-Serif" font-size="10.00">GraphicsGenerator</text>
<text text-anchor="start" x="533.69" y="-1579" font-family="Helvetica,sans-Serif" font-size="10.00"> </text>
<text text-anchor="start" x="454.19" y="-1564" font-family="Helvetica,sans-Serif" font-size="10.00">+</text>
<text text-anchor="start" x="467.19" y="-1564" font-family="Helvetica,sans-Serif" font-size="10.00">FootprintGraphicsGenerator()</text>
<text text-anchor="start" x="454.19" y="-1549" font-family="Helvetica,sans-Serif" font-size="10.00">+</text>
<text text-anchor="start" x="467.19" y="-1549" font-family="Helvetica,sans-Serif" font-size="10.00">generatePad()</text>
<text text-anchor="start" x="454.19" y="-1534" font-family="Helvetica,sans-Serif" font-size="10.00">+</text>
<text text-anchor="start" x="467.19" y="-1534" font-family="Helvetica,sans-Serif" font-size="10.00">generateTrack()</text>
<text text-anchor="start" x="454.19" y="-1519" font-family="Helvetica,sans-Serif" font-size="10.00">+</text>
<text text-anchor="start" x="467.19" y="-1519" font-family="Helvetica,sans-Serif" font-size="10.00">generateHole()</text>
<text text-anchor="start" x="454.19" y="-1504" font-family="Helvetica,sans-Serif" font-size="10.00">+</text>
<text text-anchor="start" x="467.19" y="-1504" font-family="Helvetica,sans-Serif" font-size="10.00">generateCircle()</text>
<text text-anchor="start" x="454.19" y="-1489" font-family="Helvetica,sans-Serif" font-size="10.00">+</text>
<text text-anchor="start" x="467.19" y="-1489" font-family="Helvetica,sans-Serif" font-size="10.00">generateRectangle()</text>
<text text-anchor="start" x="454.19" y="-1474" font-family="Helvetica,sans-Serif" font-size="10.00">+</text>
<text text-anchor="start" x="467.19" y="-1474" font-family="Helvetica,sans-Serif" font-size="10.00">generateArc()</text>
<text text-anchor="start" x="454.19" y="-1459" font-family="Helvetica,sans-Serif" font-size="10.00">+</text>
<text text-anchor="start" x="467.19" y="-1459" font-family="Helvetica,sans-Serif" font-size="10.00">generateText()</text>
<text text-anchor="start" x="454.19" y="-1444" font-family="Helvetica,sans-Serif" font-size="10.00">+</text>
<text text-anchor="start" x="467.19" y="-1444" font-family="Helvetica,sans-Serif" font-size="10.00">generateSolidRegion()</text>
<text text-anchor="start" x="454.19" y="-1429" font-family="Helvetica,sans-Serif" font-size="10.00">+</text>
<text text-anchor="start" x="467.19" y="-1429" font-family="Helvetica,sans-Serif" font-size="10.00">generateCourtyardFromBBox()</text>
<text text-anchor="start" x="467.19" y="-1414" font-family="Helvetica,sans-Serif" font-size="10.00">和 7 更多...</text>
<polygon fill="#666666" stroke="#666666" points="450.19,-1589 450.19,-1589 621.19,-1589 621.19,-1589 450.19,-1589"/>
<polygon fill="#666666" stroke="#666666" points="450.19,-1574 450.19,-1574 621.19,-1574 621.19,-1574 450.19,-1574"/>
<polygon fill="none" stroke="#666666" points="449.69,-1407 449.69,-1617 620.69,-1617 620.69,-1407 449.69,-1407"/>
</a>
</g>
</g>
<!-- Node8&#45;&gt;Node7 -->
<g id="edge9_Node000007_Node000008" class="edge">
<title>Node8&#45;&gt;Node7</title>
<g id="a_edge9_Node000007_Node000008"><a xlink:title=" ">
<path fill="none" stroke="#63b8ff" d="M535.19,-1406.91C535.19,-1388.05 535.19,-1368.47 535.19,-1349.92"/>
<polygon fill="none" stroke="#63b8ff" points="535.19,-1349.89 531.19,-1343.89 535.19,-1337.89 539.19,-1343.89 535.19,-1349.89"/>
</a>
</g>
<text text-anchor="middle" x="591.19" y="-1381" font-family="Helvetica,sans-Serif" font-size="10.00" fill="grey"> &#45;m_graphicsGenerator</text>
</g>
<!-- Node9&#45;&gt;Node1 -->
<g id="edge10_Node000001_Node000009" class="edge">
<title>Node9&#45;&gt;Node1</title>
<g id="a_edge10_Node000001_Node000009"><a xlink:title=" ">
<path fill="none" stroke="#63b8ff" d="M370.65,-365.73C370.48,-359.74 370.32,-353.81 370.19,-348 370.07,-342.54 369.96,-337 369.86,-331.4"/>
<polygon fill="none" stroke="#63b8ff" points="369.86,-331.06 365.76,-325.13 369.66,-319.06 373.76,-325 369.86,-331.06"/>
</a>
</g>
<text text-anchor="middle" x="424.19" y="-340" font-family="Helvetica,sans-Serif" font-size="10.00" fill="grey"> &#45;m_model3DExporter</text>
</g>
<!-- Node10 -->
<g id="Node000010" class="node">
<title>Node10</title>
<g id="a_Node000010"><a xlink:href="classEasyKiConverter_1_1NetworkUtils.html" target="_top" xlink:title="网络工具">
<polygon fill="white" stroke="transparent" points="399.69,-1103 260.69,-1103 260.69,-683 399.69,-683 399.69,-1103"/>
<text text-anchor="start" x="266.19" y="-1091" font-family="Helvetica,sans-Serif" font-size="10.00">EasyKiConverter::Network</text>
<text text-anchor="start" x="319.19" y="-1080" font-family="Helvetica,sans-Serif" font-size="10.00">Utils</text>
<text text-anchor="start" x="269.19" y="-1065" font-family="Helvetica,sans-Serif" font-size="10.00">&#45;</text>
<text text-anchor="start" x="281.19" y="-1065" font-family="Helvetica,sans-Serif" font-size="10.00">m_networkManager</text>
<text text-anchor="start" x="269.19" y="-1050" font-family="Helvetica,sans-Serif" font-size="10.00">&#45;</text>
<text text-anchor="start" x="281.19" y="-1050" font-family="Helvetica,sans-Serif" font-size="10.00">m_currentReply</text>
<text text-anchor="start" x="269.19" y="-1035" font-family="Helvetica,sans-Serif" font-size="10.00">&#45;</text>
<text text-anchor="start" x="281.19" y="-1035" font-family="Helvetica,sans-Serif" font-size="10.00">m_timeoutTimer</text>
<text text-anchor="start" x="269.19" y="-1020" font-family="Helvetica,sans-Serif" font-size="10.00">&#45;</text>
<text text-anchor="start" x="281.19" y="-1020" font-family="Helvetica,sans-Serif" font-size="10.00">m_url</text>
<text text-anchor="start" x="269.19" y="-1005" font-family="Helvetica,sans-Serif" font-size="10.00">&#45;</text>
<text text-anchor="start" x="281.19" y="-1005" font-family="Helvetica,sans-Serif" font-size="10.00">m_timeout</text>
<text text-anchor="start" x="269.19" y="-990" font-family="Helvetica,sans-Serif" font-size="10.00">&#45;</text>
<text text-anchor="start" x="281.19" y="-990" font-family="Helvetica,sans-Serif" font-size="10.00">m_maxRetries</text>
<text text-anchor="start" x="269.19" y="-975" font-family="Helvetica,sans-Serif" font-size="10.00">&#45;</text>
<text text-anchor="start" x="281.19" y="-975" font-family="Helvetica,sans-Serif" font-size="10.00">m_retryCount</text>
<text text-anchor="start" x="269.19" y="-960" font-family="Helvetica,sans-Serif" font-size="10.00">&#45;</text>
<text text-anchor="start" x="281.19" y="-960" font-family="Helvetica,sans-Serif" font-size="10.00">m_headers</text>
<text text-anchor="start" x="269.19" y="-945" font-family="Helvetica,sans-Serif" font-size="10.00">&#45;</text>
<text text-anchor="start" x="281.19" y="-945" font-family="Helvetica,sans-Serif" font-size="10.00">m_isRequesting</text>
<text text-anchor="start" x="269.19" y="-930" font-family="Helvetica,sans-Serif" font-size="10.00">&#45;</text>
<text text-anchor="start" x="281.19" y="-930" font-family="Helvetica,sans-Serif" font-size="10.00">m_expectBinaryData</text>
<text text-anchor="start" x="269.19" y="-915" font-family="Helvetica,sans-Serif" font-size="10.00">&#45;</text>
<text text-anchor="start" x="281.19" y="-915" font-family="Helvetica,sans-Serif" font-size="10.00">m_replyDeleting</text>
<text text-anchor="start" x="266.69" y="-900" font-family="Helvetica,sans-Serif" font-size="10.00">+</text>
<text text-anchor="start" x="281.19" y="-900" font-family="Helvetica,sans-Serif" font-size="10.00">NetworkUtils()</text>
<text text-anchor="start" x="266.69" y="-885" font-family="Helvetica,sans-Serif" font-size="10.00">+</text>
<text text-anchor="start" x="281.19" y="-885" font-family="Helvetica,sans-Serif" font-size="10.00">~NetworkUtils()</text>
<text text-anchor="start" x="266.69" y="-870" font-family="Helvetica,sans-Serif" font-size="10.00">+</text>
<text text-anchor="start" x="281.19" y="-870" font-family="Helvetica,sans-Serif" font-size="10.00">sendGetRequest()</text>
<text text-anchor="start" x="266.69" y="-855" font-family="Helvetica,sans-Serif" font-size="10.00">+</text>
<text text-anchor="start" x="281.19" y="-855" font-family="Helvetica,sans-Serif" font-size="10.00">cancelRequest()</text>
<text text-anchor="start" x="266.69" y="-840" font-family="Helvetica,sans-Serif" font-size="10.00">+</text>
<text text-anchor="start" x="281.19" y="-840" font-family="Helvetica,sans-Serif" font-size="10.00">setHeader()</text>
<text text-anchor="start" x="266.69" y="-825" font-family="Helvetica,sans-Serif" font-size="10.00">+</text>
<text text-anchor="start" x="281.19" y="-825" font-family="Helvetica,sans-Serif" font-size="10.00">clearHeaders()</text>
<text text-anchor="start" x="266.69" y="-810" font-family="Helvetica,sans-Serif" font-size="10.00">+</text>
<text text-anchor="start" x="281.19" y="-810" font-family="Helvetica,sans-Serif" font-size="10.00">setExpectBinaryData()</text>
<text text-anchor="start" x="269.19" y="-795" font-family="Helvetica,sans-Serif" font-size="10.00">&#45;</text>
<text text-anchor="start" x="281.19" y="-795" font-family="Helvetica,sans-Serif" font-size="10.00">handleResponse()</text>
<text text-anchor="start" x="269.19" y="-780" font-family="Helvetica,sans-Serif" font-size="10.00">&#45;</text>
<text text-anchor="start" x="281.19" y="-780" font-family="Helvetica,sans-Serif" font-size="10.00">handleError()</text>
<text text-anchor="start" x="269.19" y="-765" font-family="Helvetica,sans-Serif" font-size="10.00">&#45;</text>
<text text-anchor="start" x="281.19" y="-765" font-family="Helvetica,sans-Serif" font-size="10.00">handleTimeout()</text>
<text text-anchor="start" x="269.19" y="-750" font-family="Helvetica,sans-Serif" font-size="10.00">&#45;</text>
<text text-anchor="start" x="281.19" y="-750" font-family="Helvetica,sans-Serif" font-size="10.00">executeRequest()</text>
<text text-anchor="start" x="269.19" y="-735" font-family="Helvetica,sans-Serif" font-size="10.00">&#45;</text>
<text text-anchor="start" x="281.19" y="-735" font-family="Helvetica,sans-Serif" font-size="10.00">retryRequest()</text>
<text text-anchor="start" x="269.19" y="-720" font-family="Helvetica,sans-Serif" font-size="10.00">&#45;</text>
<text text-anchor="start" x="281.19" y="-720" font-family="Helvetica,sans-Serif" font-size="10.00">shouldRetry()</text>
<text text-anchor="start" x="269.19" y="-705" font-family="Helvetica,sans-Serif" font-size="10.00">&#45;</text>
<text text-anchor="start" x="281.19" y="-705" font-family="Helvetica,sans-Serif" font-size="10.00">calculateRetryDelay()</text>
<text text-anchor="start" x="269.19" y="-690" font-family="Helvetica,sans-Serif" font-size="10.00">&#45;</text>
<text text-anchor="start" x="281.19" y="-690" font-family="Helvetica,sans-Serif" font-size="10.00">decompressGzip()</text>
<polygon fill="#666666" stroke="#666666" points="261.19,-1075 261.19,-1075 400.19,-1075 400.19,-1075 261.19,-1075"/>
<polygon fill="#666666" stroke="#666666" points="261.19,-910 261.19,-910 279.19,-910 279.19,-910 261.19,-910"/>
<polygon fill="#666666" stroke="#666666" points="279.19,-910 279.19,-910 400.19,-910 400.19,-910 279.19,-910"/>
<polygon fill="none" stroke="#666666" points="260.69,-683 260.69,-1103 399.69,-1103 399.69,-683 260.69,-683"/>
</a>
</g>
</g>
<!-- Node10&#45;&gt;Node9 -->
<g id="edge12_Node000009_Node000010" class="edge">
<title>Node10&#45;&gt;Node9</title>
<g id="a_edge12_Node000009_Node000010"><a xlink:title=" ">
<path fill="none" stroke="#63b8ff" d="M327.73,-682.78C328.67,-673.04 329.81,-663.4 331.19,-654 331.48,-652.08 331.78,-650.15 332.1,-648.21"/>
<polygon fill="none" stroke="#63b8ff" points="332.13,-648.04 329.26,-641.42 334.26,-636.23 337.13,-642.84 332.13,-648.04"/>
</a>
</g>
<text text-anchor="middle" x="373.69" y="-657" font-family="Helvetica,sans-Serif" font-size="10.00" fill="grey"> &#45;m_networkUtils</text>
</g>
<!-- Node11&#45;&gt;Node10 -->
<g id="edge13_Node000010_Node000011" class="edge">
<title>Node11&#45;&gt;Node10</title>
<g id="a_edge13_Node000010_Node000011"><a xlink:title=" ">
<path fill="none" stroke="#63b8ff" d="M330.88,-1139.66C330.84,-1127.9 330.81,-1115.71 330.78,-1103.33"/>
<polygon fill="none" stroke="#63b8ff" points="327.38,-1139.88 330.9,-1149.87 334.38,-1139.86 327.38,-1139.88"/>
</a>
</g>
</g>
</g>
</svg>
