<?xml version="1.0" encoding="UTF-8" standalone="no"?>
<!DOCTYPE svg PUBLIC "-//W3C//DTD SVG 1.1//EN"
 "http://www.w3.org/Graphics/SVG/1.1/DTD/svg11.dtd">
<!-- Generated by graphviz version 2.43.0 (0)
 -->
<!-- Title: EasyKiConverter::WriteWorker Pages: 1 -->
<svg width="166pt" height="472pt"
 viewBox="0.00 0.00 166.00 472.00" xmlns="http://www.w3.org/2000/svg" xmlns:xlink="http://www.w3.org/1999/xlink">
<g id="graph0" class="graph" transform="scale(1 1) rotate(0) translate(4 468)">
<title>EasyKiConverter::WriteWorker</title>
<!-- Node1 -->
<g id="Node000001" class="node">
<title>Node1</title>
<g id="a_Node000001"><a xlink:title="写入工作线程">
<polygon fill="#999999" stroke="transparent" points="158,-379 0,-379 0,0 158,0 158,-379"/>
<text text-anchor="start" x="5" y="-366.5" font-family="Helvetica,sans-Serif" font-size="10.00">EasyKiConverter::WriteWorker</text>
<text text-anchor="start" x="10" y="-351.5" font-family="Helvetica,sans-Serif" font-size="10.00">&#45;</text>
<text text-anchor="start" x="24" y="-351.5" font-family="Helvetica,sans-Serif" font-size="10.00">m_status</text>
<text text-anchor="start" x="10" y="-336.5" font-family="Helvetica,sans-Serif" font-size="10.00">&#45;</text>
<text text-anchor="start" x="24" y="-336.5" font-family="Helvetica,sans-Serif" font-size="10.00">m_outputPath</text>
<text text-anchor="start" x="10" y="-321.5" font-family="Helvetica,sans-Serif" font-size="10.00">&#45;</text>
<text text-anchor="start" x="24" y="-321.5" font-family="Helvetica,sans-Serif" font-size="10.00">m_libName</text>
<text text-anchor="start" x="10" y="-306.5" font-family="Helvetica,sans-Serif" font-size="10.00">&#45;</text>
<text text-anchor="start" x="24" y="-306.5" font-family="Helvetica,sans-Serif" font-size="10.00">m_exportSymbol</text>
<text text-anchor="start" x="10" y="-291.5" font-family="Helvetica,sans-Serif" font-size="10.00">&#45;</text>
<text text-anchor="start" x="24" y="-291.5" font-family="Helvetica,sans-Serif" font-size="10.00">m_exportFootprint</text>
<text text-anchor="start" x="10" y="-276.5" font-family="Helvetica,sans-Serif" font-size="10.00">&#45;</text>
<text text-anchor="start" x="24" y="-276.5" font-family="Helvetica,sans-Serif" font-size="10.00">m_exportModel3D</text>
<text text-anchor="start" x="10" y="-261.5" font-family="Helvetica,sans-Serif" font-size="10.00">&#45;</text>
<text text-anchor="start" x="24" y="-261.5" font-family="Helvetica,sans-Serif" font-size="10.00">m_exportPreviewImages</text>
<text text-anchor="start" x="10" y="-246.5" font-family="Helvetica,sans-Serif" font-size="10.00">&#45;</text>
<text text-anchor="start" x="24" y="-246.5" font-family="Helvetica,sans-Serif" font-size="10.00">m_exportDatasheet</text>
<text text-anchor="start" x="10" y="-231.5" font-family="Helvetica,sans-Serif" font-size="10.00">&#45;</text>
<text text-anchor="start" x="24" y="-231.5" font-family="Helvetica,sans-Serif" font-size="10.00">m_debugMode</text>
<text text-anchor="start" x="10" y="-216.5" font-family="Helvetica,sans-Serif" font-size="10.00">&#45;</text>
<text text-anchor="start" x="24" y="-216.5" font-family="Helvetica,sans-Serif" font-size="10.00">m_tempDir</text>
<text text-anchor="start" x="24" y="-201.5" font-family="Helvetica,sans-Serif" font-size="10.00">和 7 更多...</text>
<text text-anchor="start" x="7.5" y="-186.5" font-family="Helvetica,sans-Serif" font-size="10.00">+</text>
<text text-anchor="start" x="24" y="-186.5" font-family="Helvetica,sans-Serif" font-size="10.00">WriteWorker()</text>
<text text-anchor="start" x="7.5" y="-171.5" font-family="Helvetica,sans-Serif" font-size="10.00">+</text>
<text text-anchor="start" x="24" y="-171.5" font-family="Helvetica,sans-Serif" font-size="10.00">~WriteWorker()</text>
<text text-anchor="start" x="7.5" y="-156.5" font-family="Helvetica,sans-Serif" font-size="10.00">+</text>
<text text-anchor="start" x="24" y="-156.5" font-family="Helvetica,sans-Serif" font-size="10.00">run()</text>
<text text-anchor="start" x="7.5" y="-141.5" font-family="Helvetica,sans-Serif" font-size="10.00">+</text>
<text text-anchor="start" x="24" y="-141.5" font-family="Helvetica,sans-Serif" font-size="10.00">abort()</text>
<text text-anchor="start" x="7.5" y="-126.5" font-family="Helvetica,sans-Serif" font-size="10.00">+</text>
<text text-anchor="start" x="24" y="-126.5" font-family="Helvetica,sans-Serif" font-size="10.00">writeCompleted()</text>
<text text-anchor="start" x="7.5" y="-111.5" font-family="Helvetica,sans-Serif" font-size="10.00">+</text>
<text text-anchor="start" x="24" y="-111.5" font-family="Helvetica,sans-Serif" font-size="10.00">itemWriteCompleted()</text>
<text text-anchor="start" x="10" y="-96.5" font-family="Helvetica,sans-Serif" font-size="10.00">&#45;</text>
<text text-anchor="start" x="24" y="-96.5" font-family="Helvetica,sans-Serif" font-size="10.00">writeSymbolFile()</text>
<text text-anchor="start" x="10" y="-81.5" font-family="Helvetica,sans-Serif" font-size="10.00">&#45;</text>
<text text-anchor="start" x="24" y="-81.5" font-family="Helvetica,sans-Serif" font-size="10.00">writeFootprintFile()</text>
<text text-anchor="start" x="10" y="-66.5" font-family="Helvetica,sans-Serif" font-size="10.00">&#45;</text>
<text text-anchor="start" x="24" y="-66.5" font-family="Helvetica,sans-Serif" font-size="10.00">write3DModelFile()</text>
<text text-anchor="start" x="10" y="-51.5" font-family="Helvetica,sans-Serif" font-size="10.00">&#45;</text>
<text text-anchor="start" x="24" y="-51.5" font-family="Helvetica,sans-Serif" font-size="10.00">createOutputDirectory()</text>
<text text-anchor="start" x="10" y="-36.5" font-family="Helvetica,sans-Serif" font-size="10.00">&#45;</text>
<text text-anchor="start" x="24" y="-36.5" font-family="Helvetica,sans-Serif" font-size="10.00">writePreviewImageFile()</text>
<text text-anchor="start" x="10" y="-21.5" font-family="Helvetica,sans-Serif" font-size="10.00">&#45;</text>
<text text-anchor="start" x="24" y="-21.5" font-family="Helvetica,sans-Serif" font-size="10.00">writeDatasheetFile()</text>
<text text-anchor="start" x="10" y="-6.5" font-family="Helvetica,sans-Serif" font-size="10.00">&#45;</text>
<text text-anchor="start" x="24" y="-6.5" font-family="Helvetica,sans-Serif" font-size="10.00">exportDebugData()</text>
<polygon fill="#666666" stroke="#666666" points="0,-361.5 0,-361.5 158,-361.5 158,-361.5 0,-361.5"/>
<polygon fill="#666666" stroke="#666666" points="0,-196.5 0,-196.5 22,-196.5 22,-196.5 0,-196.5"/>
<polygon fill="#666666" stroke="#666666" points="22,-196.5 22,-196.5 158,-196.5 158,-196.5 22,-196.5"/>
<polygon fill="none" stroke="#666666" points="0,0 0,-379 158,-379 158,0 0,0"/>
</a>
</g>
</g>
<!-- Node2 -->
<g id="Node000002" class="node">
<title>Node2</title>
<g id="a_Node000002"><a xlink:title=" ">
<polygon fill="white" stroke="transparent" points="67,-464 17,-464 17,-415 67,-415 67,-464"/>
<text text-anchor="start" x="22" y="-451.5" font-family="Helvetica,sans-Serif" font-size="10.00">QObject</text>
<text text-anchor="start" x="40" y="-436.5" font-family="Helvetica,sans-Serif" font-size="10.00"> </text>
<text text-anchor="start" x="40" y="-421.5" font-family="Helvetica,sans-Serif" font-size="10.00"> </text>
<polygon fill="#666666" stroke="#666666" points="17,-446.5 17,-446.5 67,-446.5 67,-446.5 17,-446.5"/>
<polygon fill="#666666" stroke="#666666" points="17,-431.5 17,-431.5 67,-431.5 67,-431.5 17,-431.5"/>
<polygon fill="none" stroke="#666666" points="17,-415 17,-464 67,-464 67,-415 17,-415"/>
</a>
</g>
</g>
<!-- Node2&#45;&gt;Node1 -->
<g id="edge1_Node000001_Node000002" class="edge">
<title>Node2&#45;&gt;Node1</title>
<g id="a_edge1_Node000001_Node000002"><a xlink:title=" ">
<path fill="none" stroke="#63b8ff" d="M47.06,-404.61C48.2,-396.98 49.48,-388.34 50.87,-379.04"/>
<polygon fill="none" stroke="#63b8ff" points="43.56,-404.31 45.55,-414.72 50.49,-405.35 43.56,-404.31"/>
</a>
</g>
</g>
<!-- Node3 -->
<g id="Node000003" class="node">
<title>Node3</title>
<g id="a_Node000003"><a xlink:title=" ">
<polygon fill="white" stroke="transparent" points="149,-464 85,-464 85,-415 149,-415 149,-464"/>
<text text-anchor="start" x="90" y="-451.5" font-family="Helvetica,sans-Serif" font-size="10.00">QRunnable</text>
<text text-anchor="start" x="115" y="-436.5" font-family="Helvetica,sans-Serif" font-size="10.00"> </text>
<text text-anchor="start" x="115" y="-421.5" font-family="Helvetica,sans-Serif" font-size="10.00"> </text>
<polygon fill="#666666" stroke="#666666" points="85,-446.5 85,-446.5 149,-446.5 149,-446.5 85,-446.5"/>
<polygon fill="#666666" stroke="#666666" points="85,-431.5 85,-431.5 149,-431.5 149,-431.5 85,-431.5"/>
<polygon fill="none" stroke="#666666" points="85,-415 85,-464 149,-464 149,-415 85,-415"/>
</a>
</g>
</g>
<!-- Node3&#45;&gt;Node1 -->
<g id="edge2_Node000001_Node000003" class="edge">
<title>Node3&#45;&gt;Node1</title>
<g id="a_edge2_Node000001_Node000003"><a xlink:title=" ">
<path fill="none" stroke="#63b8ff" d="M111.81,-404.61C110.64,-396.98 109.31,-388.34 107.89,-379.04"/>
<polygon fill="none" stroke="#63b8ff" points="108.38,-405.37 113.36,-414.72 115.3,-404.31 108.38,-405.37"/>
</a>
</g>
</g>
</g>
</svg>
