<?xml version="1.0" encoding="UTF-8" standalone="no"?>
<!DOCTYPE svg PUBLIC "-//W3C//DTD SVG 1.1//EN"
 "http://www.w3.org/Graphics/SVG/1.1/DTD/svg11.dtd">
<!-- Generated by graphviz version 2.43.0 (0)
 -->
<!-- Title: EasyKiConverter::BaseWorker Pages: 1 -->
<svg width="163pt" height="157pt"
 viewBox="0.00 0.00 163.00 157.00" xmlns="http://www.w3.org/2000/svg" xmlns:xlink="http://www.w3.org/1999/xlink">
<g id="graph0" class="graph" transform="scale(1 1) rotate(0) translate(4 153)">
<title>EasyKiConverter::BaseWorker</title>
<!-- Node1 -->
<g id="Node000001" class="node">
<title>Node1</title>
<g id="a_Node000001"><a xlink:title="Base class for all workers with unified lifecycle management">
<polygon fill="#999999" stroke="transparent" points="155,-64 0,-64 0,0 155,0 155,-64"/>
<text text-anchor="start" x="5.5" y="-52" font-family="Helvetica,sans-Serif" font-size="10.00">EasyKiConverter::BaseWorker</text>
<text text-anchor="start" x="76" y="-37" font-family="Helvetica,sans-Serif" font-size="10.00"> </text>
<text text-anchor="start" x="19.5" y="-22" font-family="Helvetica,sans-Serif" font-size="10.00">+</text>
<text text-anchor="start" x="47.5" y="-22" font-family="Helvetica,sans-Serif" font-size="10.00">~BaseWorker()</text>
<text text-anchor="start" x="19.5" y="-7" font-family="Helvetica,sans-Serif" font-size="10.00">#</text>
<text text-anchor="start" x="47.5" y="-7" font-family="Helvetica,sans-Serif" font-size="10.00">BaseWorker()</text>
<polygon fill="#666666" stroke="#666666" points="0.5,-47 0.5,-47 155.5,-47 155.5,-47 0.5,-47"/>
<polygon fill="#666666" stroke="#666666" points="0.5,-32 0.5,-32 155.5,-32 155.5,-32 0.5,-32"/>
<polygon fill="none" stroke="#666666" points="0,0 0,-64 155,-64 155,0 0,0"/>
</a>
</g>
</g>
<!-- Node2 -->
<g id="Node000002" class="node">
<title>Node2</title>
<g id="a_Node000002"><a xlink:title=" ">
<polygon fill="white" stroke="transparent" points="65.5,-149 15.5,-149 15.5,-100 65.5,-100 65.5,-149"/>
<text text-anchor="start" x="20.5" y="-136.5" font-family="Helvetica,sans-Serif" font-size="10.00">QObject</text>
<text text-anchor="start" x="38.5" y="-121.5" font-family="Helvetica,sans-Serif" font-size="10.00"> </text>
<text text-anchor="start" x="38.5" y="-106.5" font-family="Helvetica,sans-Serif" font-size="10.00"> </text>
<polygon fill="#666666" stroke="#666666" points="15.5,-131.5 15.5,-131.5 65.5,-131.5 65.5,-131.5 15.5,-131.5"/>
<polygon fill="#666666" stroke="#666666" points="15.5,-116.5 15.5,-116.5 65.5,-116.5 65.5,-116.5 15.5,-116.5"/>
<polygon fill="none" stroke="#666666" points="15.5,-100 15.5,-149 65.5,-149 65.5,-100 15.5,-100"/>
</a>
</g>
</g>
<!-- Node2&#45;&gt;Node1 -->
<g id="edge1_Node000001_Node000002" class="edge">
<title>Node2&#45;&gt;Node1</title>
<g id="a_edge1_Node000001_Node000002"><a xlink:title=" ">
<path fill="none" stroke="#63b8ff" d="M54.04,-90.37C57.55,-81.79 61.32,-72.59 64.78,-64.11"/>
<polygon fill="none" stroke="#63b8ff" points="50.77,-89.14 50.22,-99.72 57.25,-91.79 50.77,-89.14"/>
</a>
</g>
</g>
<!-- Node3 -->
<g id="Node000003" class="node">
<title>Node3</title>
<g id="a_Node000003"><a xlink:title=" ">
<polygon fill="white" stroke="transparent" points="147.5,-149 83.5,-149 83.5,-100 147.5,-100 147.5,-149"/>
<text text-anchor="start" x="88.5" y="-136.5" font-family="Helvetica,sans-Serif" font-size="10.00">QRunnable</text>
<text text-anchor="start" x="113.5" y="-121.5" font-family="Helvetica,sans-Serif" font-size="10.00"> </text>
<text text-anchor="start" x="113.5" y="-106.5" font-family="Helvetica,sans-Serif" font-size="10.00"> </text>
<polygon fill="#666666" stroke="#666666" points="83.5,-131.5 83.5,-131.5 147.5,-131.5 147.5,-131.5 83.5,-131.5"/>
<polygon fill="#666666" stroke="#666666" points="83.5,-116.5 83.5,-116.5 147.5,-116.5 147.5,-116.5 83.5,-116.5"/>
<polygon fill="none" stroke="#666666" points="83.5,-100 83.5,-149 147.5,-149 147.5,-100 83.5,-100"/>
</a>
</g>
</g>
<!-- Node3&#45;&gt;Node1 -->
<g id="edge2_Node000001_Node000003" class="edge">
<title>Node3&#45;&gt;Node1</title>
<g id="a_edge2_Node000001_Node000003"><a xlink:title=" ">
<path fill="none" stroke="#63b8ff" d="M101.59,-90.37C97.99,-81.79 94.12,-72.59 90.56,-64.11"/>
<polygon fill="none" stroke="#63b8ff" points="98.42,-91.86 105.52,-99.72 104.87,-89.15 98.42,-91.86"/>
</a>
</g>
</g>
</g>
</svg>
