<?xml version="1.0" encoding="UTF-8" standalone="no"?>
<!DOCTYPE svg PUBLIC "-//W3C//DTD SVG 1.1//EN"
 "http://www.w3.org/Graphics/SVG/1.1/DTD/svg11.dtd">
<!-- Generated by graphviz version 2.43.0 (0)
 -->
<!-- Title: EasyKiConverter::AsyncNetworkRequest Pages: 1 -->
<svg width="387pt" height="1092pt"
 viewBox="0.00 0.00 386.50 1092.00" xmlns="http://www.w3.org/2000/svg" xmlns:xlink="http://www.w3.org/1999/xlink">
<g id="graph0" class="graph" transform="scale(1 1) rotate(0) translate(4 1088)">
<title>EasyKiConverter::AsyncNetworkRequest</title>
<!-- Node1 -->
<g id="Node000001" class="node">
<title>Node1</title>
<g id="a_Node000001"><a xlink:title="异步网络请求，支持取消">
<polygon fill="#999999" stroke="transparent" points="229.5,-630 60.5,-630 60.5,0 229.5,0 229.5,-630"/>
<text text-anchor="start" x="66.5" y="-618" font-family="Helvetica,sans-Serif" font-size="10.00">EasyKiConverter::AsyncNetwork</text>
<text text-anchor="start" x="125.5" y="-607" font-family="Helvetica,sans-Serif" font-size="10.00">Request</text>
<text text-anchor="start" x="67.5" y="-592" font-family="Helvetica,sans-Serif" font-size="10.00">&#45;</text>
<text text-anchor="start" x="78" y="-592" font-family="Helvetica,sans-Serif" font-size="10.00">m_url</text>
<text text-anchor="start" x="67.5" y="-577" font-family="Helvetica,sans-Serif" font-size="10.00">&#45;</text>
<text text-anchor="start" x="78" y="-577" font-family="Helvetica,sans-Serif" font-size="10.00">m_networkManager</text>
<text text-anchor="start" x="67.5" y="-562" font-family="Helvetica,sans-Serif" font-size="10.00">&#45;</text>
<text text-anchor="start" x="78" y="-562" font-family="Helvetica,sans-Serif" font-size="10.00">m_resourceType</text>
<text text-anchor="start" x="67.5" y="-547" font-family="Helvetica,sans-Serif" font-size="10.00">&#45;</text>
<text text-anchor="start" x="78" y="-547" font-family="Helvetica,sans-Serif" font-size="10.00">m_postBody</text>
<text text-anchor="start" x="67.5" y="-532" font-family="Helvetica,sans-Serif" font-size="10.00">&#45;</text>
<text text-anchor="start" x="78" y="-532" font-family="Helvetica,sans-Serif" font-size="10.00">m_isPostRequest</text>
<text text-anchor="start" x="67.5" y="-517" font-family="Helvetica,sans-Serif" font-size="10.00">&#45;</text>
<text text-anchor="start" x="78" y="-517" font-family="Helvetica,sans-Serif" font-size="10.00">m_cancelled</text>
<text text-anchor="start" x="67.5" y="-502" font-family="Helvetica,sans-Serif" font-size="10.00">&#45;</text>
<text text-anchor="start" x="78" y="-502" font-family="Helvetica,sans-Serif" font-size="10.00">m_finished</text>
<text text-anchor="start" x="67.5" y="-487" font-family="Helvetica,sans-Serif" font-size="10.00">&#45;</text>
<text text-anchor="start" x="78" y="-487" font-family="Helvetica,sans-Serif" font-size="10.00">m_resultMutex</text>
<text text-anchor="start" x="67.5" y="-472" font-family="Helvetica,sans-Serif" font-size="10.00">&#45;</text>
<text text-anchor="start" x="78" y="-472" font-family="Helvetica,sans-Serif" font-size="10.00">m_currentReply</text>
<text text-anchor="start" x="67.5" y="-457" font-family="Helvetica,sans-Serif" font-size="10.00">&#45;</text>
<text text-anchor="start" x="78" y="-457" font-family="Helvetica,sans-Serif" font-size="10.00">m_timeoutTimer</text>
<text text-anchor="start" x="78" y="-442" font-family="Helvetica,sans-Serif" font-size="10.00">和 6 更多...</text>
<text text-anchor="start" x="67.5" y="-427" font-family="Helvetica,sans-Serif" font-size="10.00">&#45;</text>
<text text-anchor="start" x="78" y="-427" font-family="Helvetica,sans-Serif" font-size="10.00">s_emptyReplies</text>
<text text-anchor="start" x="65" y="-412" font-family="Helvetica,sans-Serif" font-size="10.00">+</text>
<text text-anchor="start" x="78" y="-412" font-family="Helvetica,sans-Serif" font-size="10.00">completeWithResultDelayed()</text>
<text text-anchor="start" x="65" y="-397" font-family="Helvetica,sans-Serif" font-size="10.00">+</text>
<text text-anchor="start" x="78" y="-397" font-family="Helvetica,sans-Serif" font-size="10.00">~AsyncNetworkRequest()</text>
<text text-anchor="start" x="65" y="-382" font-family="Helvetica,sans-Serif" font-size="10.00">+</text>
<text text-anchor="start" x="78" y="-382" font-family="Helvetica,sans-Serif" font-size="10.00">cancel()</text>
<text text-anchor="start" x="65" y="-367" font-family="Helvetica,sans-Serif" font-size="10.00">+</text>
<text text-anchor="start" x="78" y="-367" font-family="Helvetica,sans-Serif" font-size="10.00">isCancelled()</text>
<text text-anchor="start" x="65" y="-352" font-family="Helvetica,sans-Serif" font-size="10.00">+</text>
<text text-anchor="start" x="78" y="-352" font-family="Helvetica,sans-Serif" font-size="10.00">isFinished()</text>
<text text-anchor="start" x="65" y="-337" font-family="Helvetica,sans-Serif" font-size="10.00">+</text>
<text text-anchor="start" x="78" y="-337" font-family="Helvetica,sans-Serif" font-size="10.00">result()</text>
<text text-anchor="start" x="65" y="-322" font-family="Helvetica,sans-Serif" font-size="10.00">+</text>
<text text-anchor="start" x="78" y="-322" font-family="Helvetica,sans-Serif" font-size="10.00">setTimeoutMs()</text>
<text text-anchor="start" x="65" y="-307" font-family="Helvetica,sans-Serif" font-size="10.00">+</text>
<text text-anchor="start" x="78" y="-307" font-family="Helvetica,sans-Serif" font-size="10.00">currentRetryCount()</text>
<text text-anchor="start" x="65" y="-292" font-family="Helvetica,sans-Serif" font-size="10.00">+</text>
<text text-anchor="start" x="78" y="-292" font-family="Helvetica,sans-Serif" font-size="10.00">finished()</text>
<text text-anchor="start" x="65" y="-277" font-family="Helvetica,sans-Serif" font-size="10.00">+</text>
<text text-anchor="start" x="78" y="-277" font-family="Helvetica,sans-Serif" font-size="10.00">downloadProgress()</text>
<text text-anchor="start" x="65" y="-262" font-family="Helvetica,sans-Serif" font-size="10.00">+</text>
<text text-anchor="start" x="78" y="-262" font-family="Helvetica,sans-Serif" font-size="10.00">timeout()</text>
<text text-anchor="start" x="65" y="-247" font-family="Helvetica,sans-Serif" font-size="10.00">+</text>
<text text-anchor="start" x="78" y="-247" font-family="Helvetica,sans-Serif" font-size="10.00">retrying()</text>
<text text-anchor="start" x="65" y="-232" font-family="Helvetica,sans-Serif" font-size="10.00">+</text>
<text text-anchor="start" x="78" y="-232" font-family="Helvetica,sans-Serif" font-size="10.00">createFinished()</text>
<text text-anchor="start" x="67.5" y="-217" font-family="Helvetica,sans-Serif" font-size="10.00">&#45;</text>
<text text-anchor="start" x="78" y="-217" font-family="Helvetica,sans-Serif" font-size="10.00">AsyncNetworkRequest()</text>
<text text-anchor="start" x="67.5" y="-202" font-family="Helvetica,sans-Serif" font-size="10.00">&#45;</text>
<text text-anchor="start" x="78" y="-202" font-family="Helvetica,sans-Serif" font-size="10.00">start()</text>
<text text-anchor="start" x="67.5" y="-187" font-family="Helvetica,sans-Serif" font-size="10.00">&#45;</text>
<text text-anchor="start" x="78" y="-187" font-family="Helvetica,sans-Serif" font-size="10.00">startAttempt()</text>
<text text-anchor="start" x="67.5" y="-172" font-family="Helvetica,sans-Serif" font-size="10.00">&#45;</text>
<text text-anchor="start" x="78" y="-172" font-family="Helvetica,sans-Serif" font-size="10.00">handleAttemptFinished()</text>
<text text-anchor="start" x="67.5" y="-157" font-family="Helvetica,sans-Serif" font-size="10.00">&#45;</text>
<text text-anchor="start" x="78" y="-157" font-family="Helvetica,sans-Serif" font-size="10.00">handleTimeout()</text>
<text text-anchor="start" x="67.5" y="-142" font-family="Helvetica,sans-Serif" font-size="10.00">&#45;</text>
<text text-anchor="start" x="78" y="-142" font-family="Helvetica,sans-Serif" font-size="10.00">handleDownloadProgress()</text>
<text text-anchor="start" x="67.5" y="-127" font-family="Helvetica,sans-Serif" font-size="10.00">&#45;</text>
<text text-anchor="start" x="78" y="-127" font-family="Helvetica,sans-Serif" font-size="10.00">processResponse()</text>
<text text-anchor="start" x="67.5" y="-112" font-family="Helvetica,sans-Serif" font-size="10.00">&#45;</text>
<text text-anchor="start" x="78" y="-112" font-family="Helvetica,sans-Serif" font-size="10.00">scheduleRetry()</text>
<text text-anchor="start" x="67.5" y="-97" font-family="Helvetica,sans-Serif" font-size="10.00">&#45;</text>
<text text-anchor="start" x="78" y="-97" font-family="Helvetica,sans-Serif" font-size="10.00">calculateRetryDelay()</text>
<text text-anchor="start" x="67.5" y="-82" font-family="Helvetica,sans-Serif" font-size="10.00">&#45;</text>
<text text-anchor="start" x="78" y="-82" font-family="Helvetica,sans-Serif" font-size="10.00">shouldRetryInternal()</text>
<text text-anchor="start" x="67.5" y="-67" font-family="Helvetica,sans-Serif" font-size="10.00">&#45;</text>
<text text-anchor="start" x="78" y="-67" font-family="Helvetica,sans-Serif" font-size="10.00">cleanupAttempt()</text>
<text text-anchor="start" x="67.5" y="-52" font-family="Helvetica,sans-Serif" font-size="10.00">&#45;</text>
<text text-anchor="start" x="78" y="-52" font-family="Helvetica,sans-Serif" font-size="10.00">completeWithResult()</text>
<text text-anchor="start" x="67.5" y="-37" font-family="Helvetica,sans-Serif" font-size="10.00">&#45;</text>
<text text-anchor="start" x="78" y="-37" font-family="Helvetica,sans-Serif" font-size="10.00">cancelledResult()</text>
<text text-anchor="start" x="67.5" y="-22" font-family="Helvetica,sans-Serif" font-size="10.00">&#45;</text>
<text text-anchor="start" x="78" y="-22" font-family="Helvetica,sans-Serif" font-size="10.00">timeoutResult()</text>
<text text-anchor="start" x="67.5" y="-7" font-family="Helvetica,sans-Serif" font-size="10.00">&#45;</text>
<text text-anchor="start" x="78" y="-7" font-family="Helvetica,sans-Serif" font-size="10.00">hasActiveReply()</text>
<polygon fill="#666666" stroke="#666666" points="61,-602 61,-602 230,-602 230,-602 61,-602"/>
<polygon fill="#666666" stroke="#666666" points="61,-422 61,-422 76,-422 76,-422 61,-422"/>
<polygon fill="#666666" stroke="#666666" points="76,-422 76,-422 230,-422 230,-422 76,-422"/>
<polygon fill="none" stroke="#666666" points="60.5,0 60.5,-630 229.5,-630 229.5,0 60.5,0"/>
</a>
</g>
</g>
<!-- Node2 -->
<g id="Node000002" class="node">
<title>Node2</title>
<g id="a_Node000002"><a xlink:title=" ">
<polygon fill="white" stroke="transparent" points="50,-776.5 0,-776.5 0,-727.5 50,-727.5 50,-776.5"/>
<text text-anchor="start" x="5" y="-764" font-family="Helvetica,sans-Serif" font-size="10.00">QObject</text>
<text text-anchor="start" x="23" y="-749" font-family="Helvetica,sans-Serif" font-size="10.00"> </text>
<text text-anchor="start" x="23" y="-734" font-family="Helvetica,sans-Serif" font-size="10.00"> </text>
<polygon fill="#666666" stroke="#666666" points="0,-759 0,-759 50,-759 50,-759 0,-759"/>
<polygon fill="#666666" stroke="#666666" points="0,-744 0,-744 50,-744 50,-744 0,-744"/>
<polygon fill="none" stroke="#666666" points="0,-727.5 0,-776.5 50,-776.5 50,-727.5 0,-727.5"/>
</a>
</g>
</g>
<!-- Node2&#45;&gt;Node1 -->
<g id="edge1_Node000001_Node000002" class="edge">
<title>Node2&#45;&gt;Node1</title>
<g id="a_edge1_Node000001_Node000002"><a xlink:title=" ">
<path fill="none" stroke="#63b8ff" d="M34.2,-717.65C40.63,-694.33 49.94,-660.61 60.45,-622.48"/>
<polygon fill="none" stroke="#63b8ff" points="30.82,-716.73 31.54,-727.3 37.57,-718.59 30.82,-716.73"/>
</a>
</g>
</g>
<!-- Node3 -->
<g id="Node000003" class="node">
<title>Node3</title>
<g id="a_Node000003"><a xlink:href="structEasyKiConverter_1_1RetryPolicy.html" target="_top" xlink:title="网络请求重试策略">
<polygon fill="white" stroke="transparent" points="221.5,-806.5 68.5,-806.5 68.5,-697.5 221.5,-697.5 221.5,-806.5"/>
<text text-anchor="start" x="74" y="-794" font-family="Helvetica,sans-Serif" font-size="10.00">EasyKiConverter::RetryPolicy</text>
<text text-anchor="start" x="79.5" y="-779" font-family="Helvetica,sans-Serif" font-size="10.00">+</text>
<text text-anchor="start" x="99" y="-779" font-family="Helvetica,sans-Serif" font-size="10.00">maxRetries</text>
<text text-anchor="start" x="79.5" y="-764" font-family="Helvetica,sans-Serif" font-size="10.00">+</text>
<text text-anchor="start" x="99" y="-764" font-family="Helvetica,sans-Serif" font-size="10.00">baseTimeoutMs</text>
<text text-anchor="start" x="79.5" y="-749" font-family="Helvetica,sans-Serif" font-size="10.00">+</text>
<text text-anchor="start" x="99" y="-749" font-family="Helvetica,sans-Serif" font-size="10.00">jitterFactor</text>
<text text-anchor="start" x="79.5" y="-734" font-family="Helvetica,sans-Serif" font-size="10.00">+</text>
<text text-anchor="start" x="99" y="-734" font-family="Helvetica,sans-Serif" font-size="10.00">delays</text>
<text text-anchor="start" x="79.5" y="-719" font-family="Helvetica,sans-Serif" font-size="10.00">+</text>
<text text-anchor="start" x="99" y="-719" font-family="Helvetica,sans-Serif" font-size="10.00">retryableStatusCodes</text>
<text text-anchor="start" x="79.5" y="-704" font-family="Helvetica,sans-Serif" font-size="10.00">+</text>
<text text-anchor="start" x="99" y="-704" font-family="Helvetica,sans-Serif" font-size="10.00">fromProfile()</text>
<polygon fill="#666666" stroke="#666666" points="69,-789 69,-789 222,-789 222,-789 69,-789"/>
<polygon fill="#666666" stroke="#666666" points="69,-714 69,-714 97,-714 97,-714 69,-714"/>
<polygon fill="#666666" stroke="#666666" points="97,-714 97,-714 222,-714 222,-714 97,-714"/>
<polygon fill="none" stroke="#666666" points="68.5,-697.5 68.5,-806.5 221.5,-806.5 221.5,-697.5 68.5,-697.5"/>
</a>
</g>
</g>
<!-- Node3&#45;&gt;Node1 -->
<g id="edge2_Node000001_Node000003" class="edge">
<title>Node3&#45;&gt;Node1</title>
<g id="a_edge2_Node000001_Node000003"><a xlink:title=" ">
<path fill="none" stroke="#63b8ff" d="M145,-697.22C145,-681.36 145,-662.73 145,-642.39"/>
<polygon fill="none" stroke="#63b8ff" points="145,-642.23 141,-636.23 145,-630.23 149,-636.23 145,-642.23"/>
</a>
</g>
<text text-anchor="middle" x="171" y="-651" font-family="Helvetica,sans-Serif" font-size="10.00" fill="grey"> &#45;m_policy</text>
</g>
<!-- Node4 -->
<g id="Node000004" class="node">
<title>Node4</title>
<g id="a_Node000004"><a xlink:href="structEasyKiConverter_1_1NetworkResult.html" target="_top" xlink:title="网络请求结果">
<polygon fill="white" stroke="transparent" points="378.5,-827 239.5,-827 239.5,-677 378.5,-677 378.5,-827"/>
<text text-anchor="start" x="245" y="-815" font-family="Helvetica,sans-Serif" font-size="10.00">EasyKiConverter::Network</text>
<text text-anchor="start" x="294" y="-804" font-family="Helvetica,sans-Serif" font-size="10.00">Result</text>
<text text-anchor="start" x="256.5" y="-789" font-family="Helvetica,sans-Serif" font-size="10.00">+</text>
<text text-anchor="start" x="282" y="-789" font-family="Helvetica,sans-Serif" font-size="10.00">data</text>
<text text-anchor="start" x="256.5" y="-774" font-family="Helvetica,sans-Serif" font-size="10.00">+</text>
<text text-anchor="start" x="282" y="-774" font-family="Helvetica,sans-Serif" font-size="10.00">statusCode</text>
<text text-anchor="start" x="256.5" y="-759" font-family="Helvetica,sans-Serif" font-size="10.00">+</text>
<text text-anchor="start" x="282" y="-759" font-family="Helvetica,sans-Serif" font-size="10.00">error</text>
<text text-anchor="start" x="256.5" y="-744" font-family="Helvetica,sans-Serif" font-size="10.00">+</text>
<text text-anchor="start" x="282" y="-744" font-family="Helvetica,sans-Serif" font-size="10.00">retryCount</text>
<text text-anchor="start" x="256.5" y="-729" font-family="Helvetica,sans-Serif" font-size="10.00">+</text>
<text text-anchor="start" x="282" y="-729" font-family="Helvetica,sans-Serif" font-size="10.00">elapsedMs</text>
<text text-anchor="start" x="256.5" y="-714" font-family="Helvetica,sans-Serif" font-size="10.00">+</text>
<text text-anchor="start" x="282" y="-714" font-family="Helvetica,sans-Serif" font-size="10.00">success</text>
<text text-anchor="start" x="256.5" y="-699" font-family="Helvetica,sans-Serif" font-size="10.00">+</text>
<text text-anchor="start" x="282" y="-699" font-family="Helvetica,sans-Serif" font-size="10.00">wasCancelled</text>
<text text-anchor="start" x="307.5" y="-684" font-family="Helvetica,sans-Serif" font-size="10.00"> </text>
<polygon fill="#666666" stroke="#666666" points="240,-799 240,-799 379,-799 379,-799 240,-799"/>
<polygon fill="#666666" stroke="#666666" points="240,-694 240,-694 280,-694 280,-694 240,-694"/>
<polygon fill="#666666" stroke="#666666" points="280,-694 280,-694 379,-694 379,-694 280,-694"/>
<polygon fill="none" stroke="#666666" points="239.5,-677 239.5,-827 378.5,-827 378.5,-677 239.5,-677"/>
</a>
</g>
</g>
<!-- Node4&#45;&gt;Node1 -->
<g id="edge3_Node000001_Node000004" class="edge">
<title>Node4&#45;&gt;Node1</title>
<g id="a_edge3_Node000001_Node000004"><a xlink:title=" ">
<path fill="none" stroke="#63b8ff" d="M280.99,-676.72C267.68,-641.41 250.95,-597.04 233.83,-551.6"/>
<polygon fill="none" stroke="#63b8ff" points="233.82,-551.58 227.96,-547.37 229.58,-540.35 235.44,-544.55 233.82,-551.58"/>
</a>
</g>
<text text-anchor="middle" x="298" y="-651" font-family="Helvetica,sans-Serif" font-size="10.00" fill="grey"> &#45;m_result</text>
</g>
<!-- Node5 -->
<g id="Node000005" class="node">
<title>Node5</title>
<g id="a_Node000005"><a xlink:href="structEasyKiConverter_1_1NetworkDiagnostic.html" target="_top" xlink:title="网络请求的统一诊断信息">
<polygon fill="white" stroke="transparent" points="378.5,-1084 239.5,-1084 239.5,-874 378.5,-874 378.5,-1084"/>
<text text-anchor="start" x="245" y="-1072" font-family="Helvetica,sans-Serif" font-size="10.00">EasyKiConverter::Network</text>
<text text-anchor="start" x="283.5" y="-1061" font-family="Helvetica,sans-Serif" font-size="10.00">Diagnostic</text>
<text text-anchor="start" x="250" y="-1046" font-family="Helvetica,sans-Serif" font-size="10.00">+</text>
<text text-anchor="start" x="269" y="-1046" font-family="Helvetica,sans-Serif" font-size="10.00">url</text>
<text text-anchor="start" x="250" y="-1031" font-family="Helvetica,sans-Serif" font-size="10.00">+</text>
<text text-anchor="start" x="269" y="-1031" font-family="Helvetica,sans-Serif" font-size="10.00">host</text>
<text text-anchor="start" x="250" y="-1016" font-family="Helvetica,sans-Serif" font-size="10.00">+</text>
<text text-anchor="start" x="269" y="-1016" font-family="Helvetica,sans-Serif" font-size="10.00">resourceType</text>
<text text-anchor="start" x="250" y="-1001" font-family="Helvetica,sans-Serif" font-size="10.00">+</text>
<text text-anchor="start" x="269" y="-1001" font-family="Helvetica,sans-Serif" font-size="10.00">profileName</text>
<text text-anchor="start" x="250" y="-986" font-family="Helvetica,sans-Serif" font-size="10.00">+</text>
<text text-anchor="start" x="269" y="-986" font-family="Helvetica,sans-Serif" font-size="10.00">statusCode</text>
<text text-anchor="start" x="250" y="-971" font-family="Helvetica,sans-Serif" font-size="10.00">+</text>
<text text-anchor="start" x="269" y="-971" font-family="Helvetica,sans-Serif" font-size="10.00">errorType</text>
<text text-anchor="start" x="250" y="-956" font-family="Helvetica,sans-Serif" font-size="10.00">+</text>
<text text-anchor="start" x="269" y="-956" font-family="Helvetica,sans-Serif" font-size="10.00">errorMessage</text>
<text text-anchor="start" x="250" y="-941" font-family="Helvetica,sans-Serif" font-size="10.00">+</text>
<text text-anchor="start" x="269" y="-941" font-family="Helvetica,sans-Serif" font-size="10.00">retryCount</text>
<text text-anchor="start" x="250" y="-926" font-family="Helvetica,sans-Serif" font-size="10.00">+</text>
<text text-anchor="start" x="269" y="-926" font-family="Helvetica,sans-Serif" font-size="10.00">latencyMs</text>
<text text-anchor="start" x="250" y="-911" font-family="Helvetica,sans-Serif" font-size="10.00">+</text>
<text text-anchor="start" x="269" y="-911" font-family="Helvetica,sans-Serif" font-size="10.00">totalElapsedMs</text>
<text text-anchor="start" x="269" y="-896" font-family="Helvetica,sans-Serif" font-size="10.00">和 10 更多...</text>
<text text-anchor="start" x="250" y="-881" font-family="Helvetica,sans-Serif" font-size="10.00">+</text>
<text text-anchor="start" x="269" y="-881" font-family="Helvetica,sans-Serif" font-size="10.00">errorTypeToString()</text>
<polygon fill="#666666" stroke="#666666" points="240,-1056 240,-1056 379,-1056 379,-1056 240,-1056"/>
<polygon fill="#666666" stroke="#666666" points="240,-891 240,-891 267,-891 267,-891 240,-891"/>
<polygon fill="#666666" stroke="#666666" points="267,-891 267,-891 379,-891 379,-891 267,-891"/>
<polygon fill="none" stroke="#666666" points="239.5,-874 239.5,-1084 378.5,-1084 378.5,-874 239.5,-874"/>
</a>
</g>
</g>
<!-- Node5&#45;&gt;Node4 -->
<g id="edge4_Node000004_Node000005" class="edge">
<title>Node5&#45;&gt;Node4</title>
<g id="a_edge4_Node000004_Node000005"><a xlink:title=" ">
<path fill="none" stroke="#63b8ff" d="M309,-873.73C309,-862.17 309,-850.49 309,-839.18"/>
<polygon fill="none" stroke="#63b8ff" points="309,-839.08 305,-833.08 309,-827.08 313,-833.08 309,-839.08"/>
</a>
</g>
<text text-anchor="middle" x="340" y="-848" font-family="Helvetica,sans-Serif" font-size="10.00" fill="grey"> +diagnostic</text>
</g>
</g>
</svg>
