<?xml version="1.0" encoding="UTF-8" standalone="no"?>
<!DOCTYPE svg PUBLIC "-//W3C//DTD SVG 1.1//EN"
 "http://www.w3.org/Graphics/SVG/1.1/DTD/svg11.dtd">
<!-- Generated by graphviz version 2.43.0 (0)
 -->
<!-- Title: EasyKiConverter::ComponentService Pages: 1 -->
<svg width="700pt" height="1996pt"
 viewBox="0.00 0.00 699.69 1996.00" xmlns="http://www.w3.org/2000/svg" xmlns:xlink="http://www.w3.org/1999/xlink">
<g id="graph0" class="graph" transform="scale(1 1) rotate(0) translate(4 1992)">
<title>EasyKiConverter::ComponentService</title>
<!-- Node1 -->
<g id="Node000001" class="node">
<title>Node1</title>
<g id="a_Node000001"><a xlink:title="元件服务类">
<polygon fill="#999999" stroke="transparent" points="396.19,-555 218.19,-555 218.19,0 396.19,0 396.19,-555"/>
<text text-anchor="start" x="235.19" y="-542.5" font-family="Helvetica,sans-Serif" font-size="10.00">EasyKiConverter::Component</text>
<text text-anchor="start" x="288.69" y="-531.5" font-family="Helvetica,sans-Serif" font-size="10.00">Service</text>
<text text-anchor="start" x="224.69" y="-516.5" font-family="Helvetica,sans-Serif" font-size="10.00">&#45;</text>
<text text-anchor="start" x="235.19" y="-516.5" font-family="Helvetica,sans-Serif" font-size="10.00">m_networkManager</text>
<text text-anchor="start" x="224.69" y="-501.5" font-family="Helvetica,sans-Serif" font-size="10.00">&#45;</text>
<text text-anchor="start" x="235.19" y="-501.5" font-family="Helvetica,sans-Serif" font-size="10.00">m_fetchingComponentsMutex</text>
<text text-anchor="start" x="224.69" y="-486.5" font-family="Helvetica,sans-Serif" font-size="10.00">&#45;</text>
<text text-anchor="start" x="235.19" y="-486.5" font-family="Helvetica,sans-Serif" font-size="10.00">m_componentCacheMutex</text>
<text text-anchor="start" x="224.69" y="-471.5" font-family="Helvetica,sans-Serif" font-size="10.00">&#45;</text>
<text text-anchor="start" x="235.19" y="-471.5" font-family="Helvetica,sans-Serif" font-size="10.00">m_currentIdMutex</text>
<text text-anchor="start" x="224.69" y="-456.5" font-family="Helvetica,sans-Serif" font-size="10.00">&#45;</text>
<text text-anchor="start" x="235.19" y="-456.5" font-family="Helvetica,sans-Serif" font-size="10.00">m_parallelDataMutex</text>
<text text-anchor="start" x="224.69" y="-441.5" font-family="Helvetica,sans-Serif" font-size="10.00">&#45;</text>
<text text-anchor="start" x="235.19" y="-441.5" font-family="Helvetica,sans-Serif" font-size="10.00">m_componentCache</text>
<text text-anchor="start" x="224.69" y="-426.5" font-family="Helvetica,sans-Serif" font-size="10.00">&#45;</text>
<text text-anchor="start" x="235.19" y="-426.5" font-family="Helvetica,sans-Serif" font-size="10.00">m_fetchingComponents</text>
<text text-anchor="start" x="224.69" y="-411.5" font-family="Helvetica,sans-Serif" font-size="10.00">&#45;</text>
<text text-anchor="start" x="235.19" y="-411.5" font-family="Helvetica,sans-Serif" font-size="10.00">m_currentComponentId</text>
<text text-anchor="start" x="224.69" y="-396.5" font-family="Helvetica,sans-Serif" font-size="10.00">&#45;</text>
<text text-anchor="start" x="235.19" y="-396.5" font-family="Helvetica,sans-Serif" font-size="10.00">m_pendingModelUuid</text>
<text text-anchor="start" x="224.69" y="-381.5" font-family="Helvetica,sans-Serif" font-size="10.00">&#45;</text>
<text text-anchor="start" x="235.19" y="-381.5" font-family="Helvetica,sans-Serif" font-size="10.00">m_hasDownloadedWrl</text>
<text text-anchor="start" x="235.19" y="-366.5" font-family="Helvetica,sans-Serif" font-size="10.00">和 12 更多...</text>
<text text-anchor="start" x="224.69" y="-351.5" font-family="Helvetica,sans-Serif" font-size="10.00">&#45;</text>
<text text-anchor="start" x="235.19" y="-351.5" font-family="Helvetica,sans-Serif" font-size="10.00">QUEUE_CHECK_INTERVAL_MS</text>
<text text-anchor="start" x="224.69" y="-336.5" font-family="Helvetica,sans-Serif" font-size="10.00">&#45;</text>
<text text-anchor="start" x="235.19" y="-336.5" font-family="Helvetica,sans-Serif" font-size="10.00">TOTAL_TIMEOUT_MS</text>
<text text-anchor="start" x="222.19" y="-321.5" font-family="Helvetica,sans-Serif" font-size="10.00">+</text>
<text text-anchor="start" x="235.19" y="-321.5" font-family="Helvetica,sans-Serif" font-size="10.00">ComponentService()</text>
<text text-anchor="start" x="222.19" y="-306.5" font-family="Helvetica,sans-Serif" font-size="10.00">+</text>
<text text-anchor="start" x="235.19" y="-306.5" font-family="Helvetica,sans-Serif" font-size="10.00">ComponentService()</text>
<text text-anchor="start" x="222.19" y="-291.5" font-family="Helvetica,sans-Serif" font-size="10.00">+</text>
<text text-anchor="start" x="235.19" y="-291.5" font-family="Helvetica,sans-Serif" font-size="10.00">~ComponentService()</text>
<text text-anchor="start" x="222.19" y="-276.5" font-family="Helvetica,sans-Serif" font-size="10.00">+</text>
<text text-anchor="start" x="235.19" y="-276.5" font-family="Helvetica,sans-Serif" font-size="10.00">fetchComponentData()</text>
<text text-anchor="start" x="222.19" y="-261.5" font-family="Helvetica,sans-Serif" font-size="10.00">+</text>
<text text-anchor="start" x="235.19" y="-261.5" font-family="Helvetica,sans-Serif" font-size="10.00">fetchLcscPreviewImage()</text>
<text text-anchor="start" x="222.19" y="-246.5" font-family="Helvetica,sans-Serif" font-size="10.00">+</text>
<text text-anchor="start" x="235.19" y="-246.5" font-family="Helvetica,sans-Serif" font-size="10.00">fetchBatchPreviewImages()</text>
<text text-anchor="start" x="222.19" y="-231.5" font-family="Helvetica,sans-Serif" font-size="10.00">+</text>
<text text-anchor="start" x="235.19" y="-231.5" font-family="Helvetica,sans-Serif" font-size="10.00">fetchMultipleComponentsData()</text>
<text text-anchor="start" x="222.19" y="-216.5" font-family="Helvetica,sans-Serif" font-size="10.00">+</text>
<text text-anchor="start" x="235.19" y="-216.5" font-family="Helvetica,sans-Serif" font-size="10.00">validateComponentId()</text>
<text text-anchor="start" x="222.19" y="-201.5" font-family="Helvetica,sans-Serif" font-size="10.00">+</text>
<text text-anchor="start" x="235.19" y="-201.5" font-family="Helvetica,sans-Serif" font-size="10.00">extractComponentIdFromText()</text>
<text text-anchor="start" x="222.19" y="-186.5" font-family="Helvetica,sans-Serif" font-size="10.00">+</text>
<text text-anchor="start" x="235.19" y="-186.5" font-family="Helvetica,sans-Serif" font-size="10.00">parseBomFile()</text>
<text text-anchor="start" x="235.19" y="-171.5" font-family="Helvetica,sans-Serif" font-size="10.00">和 15 更多...</text>
<text text-anchor="start" x="224.69" y="-156.5" font-family="Helvetica,sans-Serif" font-size="10.00">&#45;</text>
<text text-anchor="start" x="235.19" y="-156.5" font-family="Helvetica,sans-Serif" font-size="10.00">handleComponentInfoFetched()</text>
<text text-anchor="start" x="224.69" y="-141.5" font-family="Helvetica,sans-Serif" font-size="10.00">&#45;</text>
<text text-anchor="start" x="235.19" y="-141.5" font-family="Helvetica,sans-Serif" font-size="10.00">handleCadDataFetched()</text>
<text text-anchor="start" x="224.69" y="-126.5" font-family="Helvetica,sans-Serif" font-size="10.00">&#45;</text>
<text text-anchor="start" x="235.19" y="-126.5" font-family="Helvetica,sans-Serif" font-size="10.00">handleModel3DFetched()</text>
<text text-anchor="start" x="224.69" y="-111.5" font-family="Helvetica,sans-Serif" font-size="10.00">&#45;</text>
<text text-anchor="start" x="235.19" y="-111.5" font-family="Helvetica,sans-Serif" font-size="10.00">handleFetchError()</text>
<text text-anchor="start" x="224.69" y="-96.5" font-family="Helvetica,sans-Serif" font-size="10.00">&#45;</text>
<text text-anchor="start" x="235.19" y="-96.5" font-family="Helvetica,sans-Serif" font-size="10.00">handleImageReady()</text>
<text text-anchor="start" x="224.69" y="-81.5" font-family="Helvetica,sans-Serif" font-size="10.00">&#45;</text>
<text text-anchor="start" x="235.19" y="-81.5" font-family="Helvetica,sans-Serif" font-size="10.00">handleLcscDataReady()</text>
<text text-anchor="start" x="224.69" y="-66.5" font-family="Helvetica,sans-Serif" font-size="10.00">&#45;</text>
<text text-anchor="start" x="235.19" y="-66.5" font-family="Helvetica,sans-Serif" font-size="10.00">handleDatasheetReady()</text>
<text text-anchor="start" x="224.69" y="-51.5" font-family="Helvetica,sans-Serif" font-size="10.00">&#45;</text>
<text text-anchor="start" x="235.19" y="-51.5" font-family="Helvetica,sans-Serif" font-size="10.00">handleAllImagesReady()</text>
<text text-anchor="start" x="224.69" y="-36.5" font-family="Helvetica,sans-Serif" font-size="10.00">&#45;</text>
<text text-anchor="start" x="235.19" y="-36.5" font-family="Helvetica,sans-Serif" font-size="10.00">handlePreviewImageError()</text>
<text text-anchor="start" x="224.69" y="-21.5" font-family="Helvetica,sans-Serif" font-size="10.00">&#45;</text>
<text text-anchor="start" x="235.19" y="-21.5" font-family="Helvetica,sans-Serif" font-size="10.00">handleFetchErrorWithId()</text>
<text text-anchor="start" x="235.19" y="-6.5" font-family="Helvetica,sans-Serif" font-size="10.00">和 12 更多...</text>
<polygon fill="#666666" stroke="#666666" points="218.19,-526.5 218.19,-526.5 396.19,-526.5 396.19,-526.5 218.19,-526.5"/>
<polygon fill="#666666" stroke="#666666" points="218.19,-331.5 218.19,-331.5 233.19,-331.5 233.19,-331.5 218.19,-331.5"/>
<polygon fill="#666666" stroke="#666666" points="233.19,-331.5 233.19,-331.5 396.19,-331.5 396.19,-331.5 233.19,-331.5"/>
<polygon fill="none" stroke="#666666" points="218.19,0 218.19,-555 396.19,-555 396.19,0 218.19,0"/>
</a>
</g>
</g>
<!-- Node2 -->
<g id="Node000002" class="node">
<title>Node2</title>
<g id="a_Node000002"><a xlink:title=" ">
<polygon fill="white" stroke="transparent" points="233.19,-1988 183.19,-1988 183.19,-1939 233.19,-1939 233.19,-1988"/>
<text text-anchor="start" x="188.19" y="-1975.5" font-family="Helvetica,sans-Serif" font-size="10.00">QObject</text>
<text text-anchor="start" x="206.19" y="-1960.5" font-family="Helvetica,sans-Serif" font-size="10.00"> </text>
<text text-anchor="start" x="206.19" y="-1945.5" font-family="Helvetica,sans-Serif" font-size="10.00"> </text>
<polygon fill="#666666" stroke="#666666" points="183.19,-1970.5 183.19,-1970.5 233.19,-1970.5 233.19,-1970.5 183.19,-1970.5"/>
<polygon fill="#666666" stroke="#666666" points="183.19,-1955.5 183.19,-1955.5 233.19,-1955.5 233.19,-1955.5 183.19,-1955.5"/>
<polygon fill="none" stroke="#666666" points="183.19,-1939 183.19,-1988 233.19,-1988 233.19,-1939 183.19,-1939"/>
</a>
</g>
</g>
<!-- Node2&#45;&gt;Node1 -->
<g id="edge1_Node000001_Node000002" class="edge">
<title>Node2&#45;&gt;Node1</title>
<g id="a_edge1_Node000001_Node000002"><a xlink:title=" ">
<path fill="none" stroke="#63b8ff" d="M173.4,-1953.08C148.32,-1944.29 116.19,-1928.46 100.19,-1902 -49.31,-1654.75 -9.4,-877.33 78.19,-602 105.83,-515.12 166.2,-431.51 218.02,-371.06"/>
<polygon fill="none" stroke="#63b8ff" points="172.37,-1956.43 182.96,-1956.22 174.55,-1949.77 172.37,-1956.43"/>
</a>
</g>
</g>
<!-- Node3 -->
<g id="Node000003" class="node">
<title>Node3</title>
<g id="a_Node000003"><a xlink:href="classEasyKiConverter_1_1EasyedaApi.html" target="_top" xlink:title="EasyEDA API 客户端类">
<polygon fill="white" stroke="transparent" points="271.19,-1101 87.19,-1101 87.19,-602 271.19,-602 271.19,-1101"/>
<text text-anchor="start" x="106.69" y="-1088.5" font-family="Helvetica,sans-Serif" font-size="10.00">EasyKiConverter::EasyedaApi</text>
<text text-anchor="start" x="93.69" y="-1073.5" font-family="Helvetica,sans-Serif" font-size="10.00">&#45;</text>
<text text-anchor="start" x="104.19" y="-1073.5" font-family="Helvetica,sans-Serif" font-size="10.00">m_currentLcscId</text>
<text text-anchor="start" x="93.69" y="-1058.5" font-family="Helvetica,sans-Serif" font-size="10.00">&#45;</text>
<text text-anchor="start" x="104.19" y="-1058.5" font-family="Helvetica,sans-Serif" font-size="10.00">m_currentUuid</text>
<text text-anchor="start" x="93.69" y="-1043.5" font-family="Helvetica,sans-Serif" font-size="10.00">&#45;</text>
<text text-anchor="start" x="104.19" y="-1043.5" font-family="Helvetica,sans-Serif" font-size="10.00">m_isFetching</text>
<text text-anchor="start" x="93.69" y="-1028.5" font-family="Helvetica,sans-Serif" font-size="10.00">&#45;</text>
<text text-anchor="start" x="104.19" y="-1028.5" font-family="Helvetica,sans-Serif" font-size="10.00">m_requestType</text>
<text text-anchor="start" x="93.69" y="-1013.5" font-family="Helvetica,sans-Serif" font-size="10.00">&#45;</text>
<text text-anchor="start" x="104.19" y="-1013.5" font-family="Helvetica,sans-Serif" font-size="10.00">m_activeRequests</text>
<text text-anchor="start" x="93.69" y="-998.5" font-family="Helvetica,sans-Serif" font-size="10.00">&#45;</text>
<text text-anchor="start" x="104.19" y="-998.5" font-family="Helvetica,sans-Serif" font-size="10.00">m_requestsMutex</text>
<text text-anchor="start" x="91.19" y="-983.5" font-family="Helvetica,sans-Serif" font-size="10.00">+</text>
<text text-anchor="start" x="104.19" y="-983.5" font-family="Helvetica,sans-Serif" font-size="10.00">EasyedaApi()</text>
<text text-anchor="start" x="91.19" y="-968.5" font-family="Helvetica,sans-Serif" font-size="10.00">+</text>
<text text-anchor="start" x="104.19" y="-968.5" font-family="Helvetica,sans-Serif" font-size="10.00">EasyedaApi()</text>
<text text-anchor="start" x="91.19" y="-953.5" font-family="Helvetica,sans-Serif" font-size="10.00">+</text>
<text text-anchor="start" x="104.19" y="-953.5" font-family="Helvetica,sans-Serif" font-size="10.00">~EasyedaApi()</text>
<text text-anchor="start" x="91.19" y="-938.5" font-family="Helvetica,sans-Serif" font-size="10.00">+</text>
<text text-anchor="start" x="104.19" y="-938.5" font-family="Helvetica,sans-Serif" font-size="10.00">fetchComponentInfo()</text>
<text text-anchor="start" x="91.19" y="-923.5" font-family="Helvetica,sans-Serif" font-size="10.00">+</text>
<text text-anchor="start" x="104.19" y="-923.5" font-family="Helvetica,sans-Serif" font-size="10.00">fetchCadData()</text>
<text text-anchor="start" x="91.19" y="-908.5" font-family="Helvetica,sans-Serif" font-size="10.00">+</text>
<text text-anchor="start" x="104.19" y="-908.5" font-family="Helvetica,sans-Serif" font-size="10.00">fetch3DModelObj()</text>
<text text-anchor="start" x="91.19" y="-893.5" font-family="Helvetica,sans-Serif" font-size="10.00">+</text>
<text text-anchor="start" x="104.19" y="-893.5" font-family="Helvetica,sans-Serif" font-size="10.00">fetch3DModelStep()</text>
<text text-anchor="start" x="91.19" y="-878.5" font-family="Helvetica,sans-Serif" font-size="10.00">+</text>
<text text-anchor="start" x="104.19" y="-878.5" font-family="Helvetica,sans-Serif" font-size="10.00">cancelRequest()</text>
<text text-anchor="start" x="91.19" y="-863.5" font-family="Helvetica,sans-Serif" font-size="10.00">+</text>
<text text-anchor="start" x="104.19" y="-863.5" font-family="Helvetica,sans-Serif" font-size="10.00">componentInfoFetched()</text>
<text text-anchor="start" x="91.19" y="-848.5" font-family="Helvetica,sans-Serif" font-size="10.00">+</text>
<text text-anchor="start" x="104.19" y="-848.5" font-family="Helvetica,sans-Serif" font-size="10.00">cadDataFetched()</text>
<text text-anchor="start" x="91.19" y="-833.5" font-family="Helvetica,sans-Serif" font-size="10.00">+</text>
<text text-anchor="start" x="104.19" y="-833.5" font-family="Helvetica,sans-Serif" font-size="10.00">model3DFetched()</text>
<text text-anchor="start" x="91.19" y="-818.5" font-family="Helvetica,sans-Serif" font-size="10.00">+</text>
<text text-anchor="start" x="104.19" y="-818.5" font-family="Helvetica,sans-Serif" font-size="10.00">fetchError()</text>
<text text-anchor="start" x="91.19" y="-803.5" font-family="Helvetica,sans-Serif" font-size="10.00">+</text>
<text text-anchor="start" x="104.19" y="-803.5" font-family="Helvetica,sans-Serif" font-size="10.00">fetchError()</text>
<text text-anchor="start" x="93.69" y="-788.5" font-family="Helvetica,sans-Serif" font-size="10.00">&#45;</text>
<text text-anchor="start" x="104.19" y="-788.5" font-family="Helvetica,sans-Serif" font-size="10.00">handleComponentInfoResponse()</text>
<text text-anchor="start" x="93.69" y="-773.5" font-family="Helvetica,sans-Serif" font-size="10.00">&#45;</text>
<text text-anchor="start" x="104.19" y="-773.5" font-family="Helvetica,sans-Serif" font-size="10.00">handleCadDataResponse()</text>
<text text-anchor="start" x="93.69" y="-758.5" font-family="Helvetica,sans-Serif" font-size="10.00">&#45;</text>
<text text-anchor="start" x="104.19" y="-758.5" font-family="Helvetica,sans-Serif" font-size="10.00">handleModel3DResponse()</text>
<text text-anchor="start" x="93.69" y="-743.5" font-family="Helvetica,sans-Serif" font-size="10.00">&#45;</text>
<text text-anchor="start" x="104.19" y="-743.5" font-family="Helvetica,sans-Serif" font-size="10.00">handleNetworkError()</text>
<text text-anchor="start" x="93.69" y="-728.5" font-family="Helvetica,sans-Serif" font-size="10.00">&#45;</text>
<text text-anchor="start" x="104.19" y="-728.5" font-family="Helvetica,sans-Serif" font-size="10.00">handleRequestSuccess()</text>
<text text-anchor="start" x="93.69" y="-713.5" font-family="Helvetica,sans-Serif" font-size="10.00">&#45;</text>
<text text-anchor="start" x="104.19" y="-713.5" font-family="Helvetica,sans-Serif" font-size="10.00">handleRequestError()</text>
<text text-anchor="start" x="93.69" y="-698.5" font-family="Helvetica,sans-Serif" font-size="10.00">&#45;</text>
<text text-anchor="start" x="104.19" y="-698.5" font-family="Helvetica,sans-Serif" font-size="10.00">handleBinaryDataFetched()</text>
<text text-anchor="start" x="93.69" y="-683.5" font-family="Helvetica,sans-Serif" font-size="10.00">&#45;</text>
<text text-anchor="start" x="104.19" y="-683.5" font-family="Helvetica,sans-Serif" font-size="10.00">handleRequestSuccess()</text>
<text text-anchor="start" x="93.69" y="-668.5" font-family="Helvetica,sans-Serif" font-size="10.00">&#45;</text>
<text text-anchor="start" x="104.19" y="-668.5" font-family="Helvetica,sans-Serif" font-size="10.00">resetRequestState()</text>
<text text-anchor="start" x="93.69" y="-653.5" font-family="Helvetica,sans-Serif" font-size="10.00">&#45;</text>
<text text-anchor="start" x="104.19" y="-653.5" font-family="Helvetica,sans-Serif" font-size="10.00">buildComponentApiUrl()</text>
<text text-anchor="start" x="93.69" y="-638.5" font-family="Helvetica,sans-Serif" font-size="10.00">&#45;</text>
<text text-anchor="start" x="104.19" y="-638.5" font-family="Helvetica,sans-Serif" font-size="10.00">build3DModelObjUrl()</text>
<text text-anchor="start" x="93.69" y="-623.5" font-family="Helvetica,sans-Serif" font-size="10.00">&#45;</text>
<text text-anchor="start" x="104.19" y="-623.5" font-family="Helvetica,sans-Serif" font-size="10.00">build3DModelStepUrl()</text>
<text text-anchor="start" x="93.69" y="-608.5" font-family="Helvetica,sans-Serif" font-size="10.00">&#45;</text>
<text text-anchor="start" x="104.19" y="-608.5" font-family="Helvetica,sans-Serif" font-size="10.00">validateLcscId()</text>
<polygon fill="#666666" stroke="#666666" points="87.19,-1083.5 87.19,-1083.5 271.19,-1083.5 271.19,-1083.5 87.19,-1083.5"/>
<polygon fill="#666666" stroke="#666666" points="87.19,-993.5 87.19,-993.5 102.19,-993.5 102.19,-993.5 87.19,-993.5"/>
<polygon fill="#666666" stroke="#666666" points="102.19,-993.5 102.19,-993.5 271.19,-993.5 271.19,-993.5 102.19,-993.5"/>
<polygon fill="none" stroke="#666666" points="87.19,-602 87.19,-1101 271.19,-1101 271.19,-602 87.19,-602"/>
</a>
</g>
</g>
<!-- Node2&#45;&gt;Node3 -->
<g id="edge3_Node000003_Node000002" class="edge">
<title>Node2&#45;&gt;Node3</title>
<g id="a_edge3_Node000003_Node000002"><a xlink:title=" ">
<path fill="none" stroke="#63b8ff" d="M173.78,-1945.98C156.8,-1935.85 137.91,-1921.12 128.19,-1902 102.71,-1851.91 85.7,-1495.87 124.19,-1119 124.79,-1113.13 125.46,-1107.19 126.19,-1101.21"/>
<polygon fill="none" stroke="#63b8ff" points="172.52,-1949.29 182.95,-1951.14 175.95,-1943.19 172.52,-1949.29"/>
</a>
</g>
</g>
<!-- Node4 -->
<g id="Node000004" class="node">
<title>Node4</title>
<g id="a_Node000004"><a xlink:href="classEasyKiConverter_1_1INetworkAdapter.html" target="_top" xlink:title="网络适配器接口">
<polygon fill="white" stroke="transparent" points="279.19,-1902 137.19,-1902 137.19,-1692 279.19,-1692 279.19,-1902"/>
<text text-anchor="start" x="142.19" y="-1890" font-family="Helvetica,sans-Serif" font-size="10.00">EasyKiConverter::INetwork</text>
<text text-anchor="start" x="188.69" y="-1879" font-family="Helvetica,sans-Serif" font-size="10.00">Adapter</text>
<text text-anchor="start" x="206.19" y="-1864" font-family="Helvetica,sans-Serif" font-size="10.00"> </text>
<text text-anchor="start" x="143.69" y="-1849" font-family="Helvetica,sans-Serif" font-size="10.00">+</text>
<text text-anchor="start" x="159.19" y="-1849" font-family="Helvetica,sans-Serif" font-size="10.00">INetworkAdapter()</text>
<text text-anchor="start" x="143.69" y="-1834" font-family="Helvetica,sans-Serif" font-size="10.00">+</text>
<text text-anchor="start" x="159.19" y="-1834" font-family="Helvetica,sans-Serif" font-size="10.00">~INetworkAdapter()</text>
<text text-anchor="start" x="143.69" y="-1819" font-family="Helvetica,sans-Serif" font-size="10.00">+</text>
<text text-anchor="start" x="159.19" y="-1819" font-family="Helvetica,sans-Serif" font-size="10.00">sendGetRequest()</text>
<text text-anchor="start" x="143.69" y="-1804" font-family="Helvetica,sans-Serif" font-size="10.00">+</text>
<text text-anchor="start" x="159.19" y="-1804" font-family="Helvetica,sans-Serif" font-size="10.00">cancelRequest()</text>
<text text-anchor="start" x="143.69" y="-1789" font-family="Helvetica,sans-Serif" font-size="10.00">+</text>
<text text-anchor="start" x="159.19" y="-1789" font-family="Helvetica,sans-Serif" font-size="10.00">setHeader()</text>
<text text-anchor="start" x="143.69" y="-1774" font-family="Helvetica,sans-Serif" font-size="10.00">+</text>
<text text-anchor="start" x="159.19" y="-1774" font-family="Helvetica,sans-Serif" font-size="10.00">clearHeaders()</text>
<text text-anchor="start" x="143.69" y="-1759" font-family="Helvetica,sans-Serif" font-size="10.00">+</text>
<text text-anchor="start" x="159.19" y="-1759" font-family="Helvetica,sans-Serif" font-size="10.00">setExpectBinaryData()</text>
<text text-anchor="start" x="143.69" y="-1744" font-family="Helvetica,sans-Serif" font-size="10.00">+</text>
<text text-anchor="start" x="159.19" y="-1744" font-family="Helvetica,sans-Serif" font-size="10.00">requestSuccess()</text>
<text text-anchor="start" x="143.69" y="-1729" font-family="Helvetica,sans-Serif" font-size="10.00">+</text>
<text text-anchor="start" x="159.19" y="-1729" font-family="Helvetica,sans-Serif" font-size="10.00">binaryDataFetched()</text>
<text text-anchor="start" x="143.69" y="-1714" font-family="Helvetica,sans-Serif" font-size="10.00">+</text>
<text text-anchor="start" x="159.19" y="-1714" font-family="Helvetica,sans-Serif" font-size="10.00">requestError()</text>
<text text-anchor="start" x="143.69" y="-1699" font-family="Helvetica,sans-Serif" font-size="10.00">+</text>
<text text-anchor="start" x="159.19" y="-1699" font-family="Helvetica,sans-Serif" font-size="10.00">requestProgress()</text>
<polygon fill="#666666" stroke="#666666" points="137.19,-1874 137.19,-1874 279.19,-1874 279.19,-1874 137.19,-1874"/>
<polygon fill="#666666" stroke="#666666" points="137.19,-1859 137.19,-1859 279.19,-1859 279.19,-1859 137.19,-1859"/>
<polygon fill="none" stroke="#666666" points="137.19,-1692 137.19,-1902 279.19,-1902 279.19,-1692 137.19,-1692"/>
</a>
</g>
</g>
<!-- Node2&#45;&gt;Node4 -->
<g id="edge5_Node000004_Node000002" class="edge">
<title>Node2&#45;&gt;Node4</title>
<g id="a_edge5_Node000004_Node000002"><a xlink:title=" ">
<path fill="none" stroke="#63b8ff" d="M208.19,-1928.85C208.19,-1920.7 208.19,-1911.57 208.19,-1902.01"/>
<polygon fill="none" stroke="#63b8ff" points="204.69,-1928.93 208.19,-1938.93 211.69,-1928.93 204.69,-1928.93"/>
</a>
</g>
</g>
<!-- Node5 -->
<g id="Node000005" class="node">
<title>Node5</title>
<g id="a_Node000005"><a xlink:href="classEasyKiConverter_1_1EasyedaImporter.html" target="_top" xlink:title="EasyEDA 数据导入器类">
<polygon fill="white" stroke="transparent" points="376.69,-1449 237.69,-1449 237.69,-1344 376.69,-1344 376.69,-1449"/>
<text text-anchor="start" x="243.19" y="-1436.5" font-family="Helvetica,sans-Serif" font-size="10.00">EasyKiConverter::Easyeda</text>
<text text-anchor="start" x="286.19" y="-1425.5" font-family="Helvetica,sans-Serif" font-size="10.00">Importer</text>
<text text-anchor="start" x="305.69" y="-1410.5" font-family="Helvetica,sans-Serif" font-size="10.00"> </text>
<text text-anchor="start" x="244.69" y="-1395.5" font-family="Helvetica,sans-Serif" font-size="10.00">+</text>
<text text-anchor="start" x="260.19" y="-1395.5" font-family="Helvetica,sans-Serif" font-size="10.00">EasyedaImporter()</text>
<text text-anchor="start" x="244.69" y="-1380.5" font-family="Helvetica,sans-Serif" font-size="10.00">+</text>
<text text-anchor="start" x="260.19" y="-1380.5" font-family="Helvetica,sans-Serif" font-size="10.00">~EasyedaImporter()</text>
<text text-anchor="start" x="244.69" y="-1365.5" font-family="Helvetica,sans-Serif" font-size="10.00">+</text>
<text text-anchor="start" x="260.19" y="-1365.5" font-family="Helvetica,sans-Serif" font-size="10.00">importSymbolData()</text>
<text text-anchor="start" x="244.69" y="-1350.5" font-family="Helvetica,sans-Serif" font-size="10.00">+</text>
<text text-anchor="start" x="260.19" y="-1350.5" font-family="Helvetica,sans-Serif" font-size="10.00">importFootprintData()</text>
<polygon fill="#666666" stroke="#666666" points="238.19,-1420.5 238.19,-1420.5 377.19,-1420.5 377.19,-1420.5 238.19,-1420.5"/>
<polygon fill="#666666" stroke="#666666" points="238.19,-1405.5 238.19,-1405.5 377.19,-1405.5 377.19,-1405.5 238.19,-1405.5"/>
<polygon fill="none" stroke="#666666" points="237.69,-1344 237.69,-1449 376.69,-1449 376.69,-1344 237.69,-1344"/>
</a>
</g>
</g>
<!-- Node2&#45;&gt;Node5 -->
<g id="edge7_Node000005_Node000002" class="edge">
<title>Node2&#45;&gt;Node5</title>
<g id="a_edge7_Node000005_Node000002"><a xlink:title=" ">
<path fill="none" stroke="#63b8ff" d="M242.43,-1945.9C259.37,-1935.75 278.27,-1921.02 288.19,-1902 365.77,-1753.16 337.91,-1544.69 318.95,-1449.09"/>
<polygon fill="none" stroke="#63b8ff" points="240.27,-1943.11 233.3,-1951.08 243.72,-1949.2 240.27,-1943.11"/>
</a>
</g>
</g>
<!-- Node6 -->
<g id="Node000006" class="node">
<title>Node6</title>
<g id="a_Node000006"><a xlink:href="classEasyKiConverter_1_1LcscImageService.html" target="_top" xlink:title="LCSC 图片服务类">
<polygon fill="white" stroke="transparent" points="562.69,-1674 381.69,-1674 381.69,-1119 562.69,-1119 562.69,-1674"/>
<text text-anchor="start" x="403.19" y="-1661.5" font-family="Helvetica,sans-Serif" font-size="10.00">EasyKiConverter::LcscImage</text>
<text text-anchor="start" x="454.19" y="-1650.5" font-family="Helvetica,sans-Serif" font-size="10.00">Service</text>
<text text-anchor="start" x="388.69" y="-1635.5" font-family="Helvetica,sans-Serif" font-size="10.00">&#45;</text>
<text text-anchor="start" x="399.19" y="-1635.5" font-family="Helvetica,sans-Serif" font-size="10.00">m_networkManager</text>
<text text-anchor="start" x="388.69" y="-1620.5" font-family="Helvetica,sans-Serif" font-size="10.00">&#45;</text>
<text text-anchor="start" x="399.19" y="-1620.5" font-family="Helvetica,sans-Serif" font-size="10.00">m_queue</text>
<text text-anchor="start" x="388.69" y="-1605.5" font-family="Helvetica,sans-Serif" font-size="10.00">&#45;</text>
<text text-anchor="start" x="399.19" y="-1605.5" font-family="Helvetica,sans-Serif" font-size="10.00">m_requestedComponents</text>
<text text-anchor="start" x="388.69" y="-1590.5" font-family="Helvetica,sans-Serif" font-size="10.00">&#45;</text>
<text text-anchor="start" x="399.19" y="-1590.5" font-family="Helvetica,sans-Serif" font-size="10.00">m_manufacturerParts</text>
<text text-anchor="start" x="388.69" y="-1575.5" font-family="Helvetica,sans-Serif" font-size="10.00">&#45;</text>
<text text-anchor="start" x="399.19" y="-1575.5" font-family="Helvetica,sans-Serif" font-size="10.00">m_pendingDatasheets</text>
<text text-anchor="start" x="388.69" y="-1560.5" font-family="Helvetica,sans-Serif" font-size="10.00">&#45;</text>
<text text-anchor="start" x="399.19" y="-1560.5" font-family="Helvetica,sans-Serif" font-size="10.00">m_downloadedDatasheets</text>
<text text-anchor="start" x="388.69" y="-1545.5" font-family="Helvetica,sans-Serif" font-size="10.00">&#45;</text>
<text text-anchor="start" x="399.19" y="-1545.5" font-family="Helvetica,sans-Serif" font-size="10.00">m_pendingImages</text>
<text text-anchor="start" x="388.69" y="-1530.5" font-family="Helvetica,sans-Serif" font-size="10.00">&#45;</text>
<text text-anchor="start" x="399.19" y="-1530.5" font-family="Helvetica,sans-Serif" font-size="10.00">m_downloadedImages</text>
<text text-anchor="start" x="388.69" y="-1515.5" font-family="Helvetica,sans-Serif" font-size="10.00">&#45;</text>
<text text-anchor="start" x="399.19" y="-1515.5" font-family="Helvetica,sans-Serif" font-size="10.00">m_downloadCounts</text>
<text text-anchor="start" x="388.69" y="-1500.5" font-family="Helvetica,sans-Serif" font-size="10.00">&#45;</text>
<text text-anchor="start" x="399.19" y="-1500.5" font-family="Helvetica,sans-Serif" font-size="10.00">m_datasheetDownloadStatus</text>
<text text-anchor="start" x="388.69" y="-1485.5" font-family="Helvetica,sans-Serif" font-size="10.00">&#45;</text>
<text text-anchor="start" x="399.19" y="-1485.5" font-family="Helvetica,sans-Serif" font-size="10.00">m_activeRequests</text>
<text text-anchor="start" x="388.69" y="-1470.5" font-family="Helvetica,sans-Serif" font-size="10.00">&#45;</text>
<text text-anchor="start" x="399.19" y="-1470.5" font-family="Helvetica,sans-Serif" font-size="10.00">MAX_CONCURRENT_REQUESTS</text>
<text text-anchor="start" x="388.69" y="-1455.5" font-family="Helvetica,sans-Serif" font-size="10.00">&#45;</text>
<text text-anchor="start" x="399.19" y="-1455.5" font-family="Helvetica,sans-Serif" font-size="10.00">MAX_IMAGES_PER_COMPONENT</text>
<text text-anchor="start" x="388.69" y="-1440.5" font-family="Helvetica,sans-Serif" font-size="10.00">&#45;</text>
<text text-anchor="start" x="399.19" y="-1440.5" font-family="Helvetica,sans-Serif" font-size="10.00">MAX_RETRY_COUNT</text>
<text text-anchor="start" x="386.19" y="-1425.5" font-family="Helvetica,sans-Serif" font-size="10.00">+</text>
<text text-anchor="start" x="399.19" y="-1425.5" font-family="Helvetica,sans-Serif" font-size="10.00">LcscImageService()</text>
<text text-anchor="start" x="386.19" y="-1410.5" font-family="Helvetica,sans-Serif" font-size="10.00">+</text>
<text text-anchor="start" x="399.19" y="-1410.5" font-family="Helvetica,sans-Serif" font-size="10.00">fetchPreviewImages()</text>
<text text-anchor="start" x="386.19" y="-1395.5" font-family="Helvetica,sans-Serif" font-size="10.00">+</text>
<text text-anchor="start" x="399.19" y="-1395.5" font-family="Helvetica,sans-Serif" font-size="10.00">fetchBatchPreviewImages()</text>
<text text-anchor="start" x="386.19" y="-1380.5" font-family="Helvetica,sans-Serif" font-size="10.00">+</text>
<text text-anchor="start" x="399.19" y="-1380.5" font-family="Helvetica,sans-Serif" font-size="10.00">clearCache()</text>
<text text-anchor="start" x="386.19" y="-1365.5" font-family="Helvetica,sans-Serif" font-size="10.00">+</text>
<text text-anchor="start" x="399.19" y="-1365.5" font-family="Helvetica,sans-Serif" font-size="10.00">imageReady()</text>
<text text-anchor="start" x="386.19" y="-1350.5" font-family="Helvetica,sans-Serif" font-size="10.00">+</text>
<text text-anchor="start" x="399.19" y="-1350.5" font-family="Helvetica,sans-Serif" font-size="10.00">allImagesReady()</text>
<text text-anchor="start" x="386.19" y="-1335.5" font-family="Helvetica,sans-Serif" font-size="10.00">+</text>
<text text-anchor="start" x="399.19" y="-1335.5" font-family="Helvetica,sans-Serif" font-size="10.00">lcscDataReady()</text>
<text text-anchor="start" x="386.19" y="-1320.5" font-family="Helvetica,sans-Serif" font-size="10.00">+</text>
<text text-anchor="start" x="399.19" y="-1320.5" font-family="Helvetica,sans-Serif" font-size="10.00">datasheetReady()</text>
<text text-anchor="start" x="386.19" y="-1305.5" font-family="Helvetica,sans-Serif" font-size="10.00">+</text>
<text text-anchor="start" x="399.19" y="-1305.5" font-family="Helvetica,sans-Serif" font-size="10.00">error()</text>
<text text-anchor="start" x="388.69" y="-1290.5" font-family="Helvetica,sans-Serif" font-size="10.00">&#45;</text>
<text text-anchor="start" x="399.19" y="-1290.5" font-family="Helvetica,sans-Serif" font-size="10.00">processQueue()</text>
<text text-anchor="start" x="388.69" y="-1275.5" font-family="Helvetica,sans-Serif" font-size="10.00">&#45;</text>
<text text-anchor="start" x="399.19" y="-1275.5" font-family="Helvetica,sans-Serif" font-size="10.00">handleApiResponse()</text>
<text text-anchor="start" x="388.69" y="-1260.5" font-family="Helvetica,sans-Serif" font-size="10.00">&#45;</text>
<text text-anchor="start" x="399.19" y="-1260.5" font-family="Helvetica,sans-Serif" font-size="10.00">handleFallbackResponse()</text>
<text text-anchor="start" x="388.69" y="-1245.5" font-family="Helvetica,sans-Serif" font-size="10.00">&#45;</text>
<text text-anchor="start" x="399.19" y="-1245.5" font-family="Helvetica,sans-Serif" font-size="10.00">handleDownloadResponse()</text>
<text text-anchor="start" x="388.69" y="-1230.5" font-family="Helvetica,sans-Serif" font-size="10.00">&#45;</text>
<text text-anchor="start" x="399.19" y="-1230.5" font-family="Helvetica,sans-Serif" font-size="10.00">performApiSearch()</text>
<text text-anchor="start" x="388.69" y="-1215.5" font-family="Helvetica,sans-Serif" font-size="10.00">&#45;</text>
<text text-anchor="start" x="399.19" y="-1215.5" font-family="Helvetica,sans-Serif" font-size="10.00">performFallback()</text>
<text text-anchor="start" x="388.69" y="-1200.5" font-family="Helvetica,sans-Serif" font-size="10.00">&#45;</text>
<text text-anchor="start" x="399.19" y="-1200.5" font-family="Helvetica,sans-Serif" font-size="10.00">performDownload()</text>
<text text-anchor="start" x="388.69" y="-1185.5" font-family="Helvetica,sans-Serif" font-size="10.00">&#45;</text>
<text text-anchor="start" x="399.19" y="-1185.5" font-family="Helvetica,sans-Serif" font-size="10.00">performDatasheetDownload()</text>
<text text-anchor="start" x="388.69" y="-1170.5" font-family="Helvetica,sans-Serif" font-size="10.00">&#45;</text>
<text text-anchor="start" x="399.19" y="-1170.5" font-family="Helvetica,sans-Serif" font-size="10.00">checkDownloadCompletion()</text>
<text text-anchor="start" x="388.69" y="-1155.5" font-family="Helvetica,sans-Serif" font-size="10.00">&#45;</text>
<text text-anchor="start" x="399.19" y="-1155.5" font-family="Helvetica,sans-Serif" font-size="10.00">checkComponentCompletion()</text>
<text text-anchor="start" x="388.69" y="-1140.5" font-family="Helvetica,sans-Serif" font-size="10.00">&#45;</text>
<text text-anchor="start" x="399.19" y="-1140.5" font-family="Helvetica,sans-Serif" font-size="10.00">emitAllImagesReady()</text>
<text text-anchor="start" x="388.69" y="-1125.5" font-family="Helvetica,sans-Serif" font-size="10.00">&#45;</text>
<text text-anchor="start" x="399.19" y="-1125.5" font-family="Helvetica,sans-Serif" font-size="10.00">addRandomDelay()</text>
<polygon fill="#666666" stroke="#666666" points="382.19,-1645.5 382.19,-1645.5 563.19,-1645.5 563.19,-1645.5 382.19,-1645.5"/>
<polygon fill="#666666" stroke="#666666" points="382.19,-1435.5 382.19,-1435.5 397.19,-1435.5 397.19,-1435.5 382.19,-1435.5"/>
<polygon fill="#666666" stroke="#666666" points="397.19,-1435.5 397.19,-1435.5 563.19,-1435.5 563.19,-1435.5 397.19,-1435.5"/>
<polygon fill="none" stroke="#666666" points="381.69,-1119 381.69,-1674 562.69,-1674 562.69,-1119 381.69,-1119"/>
</a>
</g>
</g>
<!-- Node2&#45;&gt;Node6 -->
<g id="edge9_Node000006_Node000002" class="edge">
<title>Node2&#45;&gt;Node6</title>
<g id="a_edge9_Node000006_Node000002"><a xlink:title=" ">
<path fill="none" stroke="#63b8ff" d="M243.42,-1953.19C270.35,-1944.31 306.43,-1928.31 328.19,-1902 381.51,-1837.51 415.11,-1754.33 436.27,-1674.18"/>
<polygon fill="none" stroke="#63b8ff" points="242.1,-1949.93 233.6,-1956.25 244.18,-1956.61 242.1,-1949.93"/>
</a>
</g>
</g>
<!-- Node3&#45;&gt;Node1 -->
<g id="edge2_Node000001_Node000003" class="edge">
<title>Node3&#45;&gt;Node1</title>
<g id="a_edge2_Node000001_Node000003"><a xlink:title=" ">
<path fill="none" stroke="#63b8ff" d="M234.86,-601.69C237.42,-590.29 239.98,-578.8 242.56,-567.31"/>
<polygon fill="none" stroke="#63b8ff" points="242.61,-567.05 240.02,-560.32 245.24,-555.34 247.83,-562.07 242.61,-567.05"/>
</a>
</g>
<text text-anchor="middle" x="258.69" y="-576" font-family="Helvetica,sans-Serif" font-size="10.00" fill="grey"> &#45;m_api</text>
</g>
<!-- Node4&#45;&gt;Node3 -->
<g id="edge4_Node000003_Node000004" class="edge">
<title>Node4&#45;&gt;Node3</title>
<g id="a_edge4_Node000003_Node000004"><a xlink:title=" ">
<path fill="none" stroke="#63b8ff" d="M148.6,-1691.83C146.5,-1685.9 144.67,-1679.94 143.19,-1674 113.3,-1554.34 134.91,-1242.06 143.19,-1119 143.31,-1117.18 143.44,-1115.35 143.57,-1113.52"/>
<polygon fill="none" stroke="#63b8ff" points="143.58,-1113.32 140.05,-1107.03 144.5,-1101.35 148.03,-1107.64 143.58,-1113.32"/>
</a>
</g>
<text text-anchor="middle" x="185.69" y="-1394" font-family="Helvetica,sans-Serif" font-size="10.00" fill="grey"> &#45;m_networkUtils</text>
</g>
<!-- Node5&#45;&gt;Node1 -->
<g id="edge6_Node000001_Node000005" class="edge">
<title>Node5&#45;&gt;Node1</title>
<g id="a_edge6_Node000001_Node000005"><a xlink:title=" ">
<path fill="none" stroke="#63b8ff" d="M307.19,-1343.86C307.19,-1208.22 307.19,-833.91 307.19,-567.38"/>
<polygon fill="none" stroke="#63b8ff" points="307.19,-567.16 303.19,-561.16 307.19,-555.16 311.19,-561.16 307.19,-567.16"/>
</a>
</g>
<text text-anchor="middle" x="339.19" y="-849" font-family="Helvetica,sans-Serif" font-size="10.00" fill="grey"> &#45;m_importer</text>
</g>
<!-- Node6&#45;&gt;Node1 -->
<g id="edge8_Node000001_Node000006" class="edge">
<title>Node6&#45;&gt;Node1</title>
<g id="a_edge8_Node000001_Node000006"><a xlink:title=" ">
<path fill="none" stroke="#63b8ff" d="M419.7,-1118.95C418.83,-1112.92 417.99,-1106.93 417.19,-1101 387.39,-880.44 407.47,-822.21 375.19,-602 373.5,-590.5 371.66,-578.8 369.69,-566.99"/>
<polygon fill="none" stroke="#63b8ff" points="369.69,-566.99 364.74,-561.74 367.68,-555.16 372.63,-560.41 369.69,-566.99"/>
</a>
</g>
<text text-anchor="middle" x="461.69" y="-849" font-family="Helvetica,sans-Serif" font-size="10.00" fill="grey"> &#45;m_imageService</text>
</g>
<!-- Node7 -->
<g id="Node000007" class="node">
<title>Node7</title>
<g id="a_Node000007"><a xlink:href="classEasyKiConverter_1_1ComponentData.html" target="_top" xlink:title="元件数据">
<polygon fill="white" stroke="transparent" points="691.69,-1048.5 514.69,-1048.5 514.69,-654.5 691.69,-654.5 691.69,-1048.5"/>
<text text-anchor="start" x="520.19" y="-1036.5" font-family="Helvetica,sans-Serif" font-size="10.00">EasyKiConverter::ComponentData</text>
<text text-anchor="start" x="533.19" y="-1021.5" font-family="Helvetica,sans-Serif" font-size="10.00">&#45;</text>
<text text-anchor="start" x="555.19" y="-1021.5" font-family="Helvetica,sans-Serif" font-size="10.00">m_lcscId</text>
<text text-anchor="start" x="533.19" y="-1006.5" font-family="Helvetica,sans-Serif" font-size="10.00">&#45;</text>
<text text-anchor="start" x="555.19" y="-1006.5" font-family="Helvetica,sans-Serif" font-size="10.00">m_name</text>
<text text-anchor="start" x="533.19" y="-991.5" font-family="Helvetica,sans-Serif" font-size="10.00">&#45;</text>
<text text-anchor="start" x="555.19" y="-991.5" font-family="Helvetica,sans-Serif" font-size="10.00">m_prefix</text>
<text text-anchor="start" x="533.19" y="-976.5" font-family="Helvetica,sans-Serif" font-size="10.00">&#45;</text>
<text text-anchor="start" x="555.19" y="-976.5" font-family="Helvetica,sans-Serif" font-size="10.00">m_package</text>
<text text-anchor="start" x="533.19" y="-961.5" font-family="Helvetica,sans-Serif" font-size="10.00">&#45;</text>
<text text-anchor="start" x="555.19" y="-961.5" font-family="Helvetica,sans-Serif" font-size="10.00">m_manufacturer</text>
<text text-anchor="start" x="533.19" y="-946.5" font-family="Helvetica,sans-Serif" font-size="10.00">&#45;</text>
<text text-anchor="start" x="555.19" y="-946.5" font-family="Helvetica,sans-Serif" font-size="10.00">m_manufacturerPart</text>
<text text-anchor="start" x="533.19" y="-931.5" font-family="Helvetica,sans-Serif" font-size="10.00">&#45;</text>
<text text-anchor="start" x="555.19" y="-931.5" font-family="Helvetica,sans-Serif" font-size="10.00">m_datasheet</text>
<text text-anchor="start" x="533.19" y="-916.5" font-family="Helvetica,sans-Serif" font-size="10.00">&#45;</text>
<text text-anchor="start" x="555.19" y="-916.5" font-family="Helvetica,sans-Serif" font-size="10.00">m_datasheetData</text>
<text text-anchor="start" x="533.19" y="-901.5" font-family="Helvetica,sans-Serif" font-size="10.00">&#45;</text>
<text text-anchor="start" x="555.19" y="-901.5" font-family="Helvetica,sans-Serif" font-size="10.00">m_datasheetFormat</text>
<text text-anchor="start" x="533.19" y="-886.5" font-family="Helvetica,sans-Serif" font-size="10.00">&#45;</text>
<text text-anchor="start" x="555.19" y="-886.5" font-family="Helvetica,sans-Serif" font-size="10.00">m_previewImages</text>
<text text-anchor="start" x="533.19" y="-871.5" font-family="Helvetica,sans-Serif" font-size="10.00">&#45;</text>
<text text-anchor="start" x="555.19" y="-871.5" font-family="Helvetica,sans-Serif" font-size="10.00">m_previewImageData</text>
<text text-anchor="start" x="533.19" y="-856.5" font-family="Helvetica,sans-Serif" font-size="10.00">&#45;</text>
<text text-anchor="start" x="555.19" y="-856.5" font-family="Helvetica,sans-Serif" font-size="10.00">m_symbolData</text>
<text text-anchor="start" x="533.19" y="-841.5" font-family="Helvetica,sans-Serif" font-size="10.00">&#45;</text>
<text text-anchor="start" x="555.19" y="-841.5" font-family="Helvetica,sans-Serif" font-size="10.00">m_footprintData</text>
<text text-anchor="start" x="533.19" y="-826.5" font-family="Helvetica,sans-Serif" font-size="10.00">&#45;</text>
<text text-anchor="start" x="555.19" y="-826.5" font-family="Helvetica,sans-Serif" font-size="10.00">m_model3DData</text>
<text text-anchor="start" x="530.69" y="-811.5" font-family="Helvetica,sans-Serif" font-size="10.00">+</text>
<text text-anchor="start" x="555.19" y="-811.5" font-family="Helvetica,sans-Serif" font-size="10.00">ComponentData()</text>
<text text-anchor="start" x="530.69" y="-796.5" font-family="Helvetica,sans-Serif" font-size="10.00">+</text>
<text text-anchor="start" x="555.19" y="-796.5" font-family="Helvetica,sans-Serif" font-size="10.00">~ComponentData()</text>
<text text-anchor="start" x="530.69" y="-781.5" font-family="Helvetica,sans-Serif" font-size="10.00">+</text>
<text text-anchor="start" x="555.19" y="-781.5" font-family="Helvetica,sans-Serif" font-size="10.00">lcscId()</text>
<text text-anchor="start" x="530.69" y="-766.5" font-family="Helvetica,sans-Serif" font-size="10.00">+</text>
<text text-anchor="start" x="555.19" y="-766.5" font-family="Helvetica,sans-Serif" font-size="10.00">setLcscId()</text>
<text text-anchor="start" x="530.69" y="-751.5" font-family="Helvetica,sans-Serif" font-size="10.00">+</text>
<text text-anchor="start" x="555.19" y="-751.5" font-family="Helvetica,sans-Serif" font-size="10.00">name()</text>
<text text-anchor="start" x="530.69" y="-736.5" font-family="Helvetica,sans-Serif" font-size="10.00">+</text>
<text text-anchor="start" x="555.19" y="-736.5" font-family="Helvetica,sans-Serif" font-size="10.00">setName()</text>
<text text-anchor="start" x="530.69" y="-721.5" font-family="Helvetica,sans-Serif" font-size="10.00">+</text>
<text text-anchor="start" x="555.19" y="-721.5" font-family="Helvetica,sans-Serif" font-size="10.00">prefix()</text>
<text text-anchor="start" x="530.69" y="-706.5" font-family="Helvetica,sans-Serif" font-size="10.00">+</text>
<text text-anchor="start" x="555.19" y="-706.5" font-family="Helvetica,sans-Serif" font-size="10.00">setPrefix()</text>
<text text-anchor="start" x="530.69" y="-691.5" font-family="Helvetica,sans-Serif" font-size="10.00">+</text>
<text text-anchor="start" x="555.19" y="-691.5" font-family="Helvetica,sans-Serif" font-size="10.00">package()</text>
<text text-anchor="start" x="530.69" y="-676.5" font-family="Helvetica,sans-Serif" font-size="10.00">+</text>
<text text-anchor="start" x="555.19" y="-676.5" font-family="Helvetica,sans-Serif" font-size="10.00">setPackage()</text>
<text text-anchor="start" x="555.19" y="-661.5" font-family="Helvetica,sans-Serif" font-size="10.00">和 27 更多...</text>
<polygon fill="#666666" stroke="#666666" points="515.19,-1031.5 515.19,-1031.5 692.19,-1031.5 692.19,-1031.5 515.19,-1031.5"/>
<polygon fill="#666666" stroke="#666666" points="515.19,-821.5 515.19,-821.5 553.19,-821.5 553.19,-821.5 515.19,-821.5"/>
<polygon fill="#666666" stroke="#666666" points="553.19,-821.5 553.19,-821.5 692.19,-821.5 692.19,-821.5 553.19,-821.5"/>
<polygon fill="none" stroke="#666666" points="514.69,-654.5 514.69,-1048.5 691.69,-1048.5 691.69,-654.5 514.69,-654.5"/>
</a>
</g>
</g>
<!-- Node7&#45;&gt;Node1 -->
<g id="edge10_Node000001_Node000007" class="edge">
<title>Node7&#45;&gt;Node1</title>
<g id="a_edge10_Node000001_Node000007"><a xlink:title=" ">
<path fill="none" stroke="#63b8ff" d="M525,-654.29C516.95,-636.46 508.62,-618.8 500.19,-602 470.96,-543.8 435.26,-481.93 402.56,-428.05"/>
<polygon fill="none" stroke="#63b8ff" points="402.52,-427.98 395.98,-424.94 396.28,-417.73 402.81,-420.78 402.52,-427.98"/>
</a>
</g>
<text text-anchor="middle" x="560.69" y="-576" font-family="Helvetica,sans-Serif" font-size="10.00" fill="grey"> &#45;m_pendingComponentData</text>
</g>
</g>
</svg>
