<?xml version="1.0" encoding="UTF-8" standalone="no"?>
<!DOCTYPE svg PUBLIC "-//W3C//DTD SVG 1.1//EN"
 "http://www.w3.org/Graphics/SVG/1.1/DTD/svg11.dtd">
<!-- Generated by graphviz version 2.43.0 (0)
 -->
<!-- Title: EasyKiConverter::WriteStageHandler Pages: 1 -->
<svg width="172pt" height="448pt"
 viewBox="0.00 0.00 172.00 448.00" xmlns="http://www.w3.org/2000/svg" xmlns:xlink="http://www.w3.org/1999/xlink">
<g id="graph0" class="graph" transform="scale(1 1) rotate(0) translate(4 444)">
<title>EasyKiConverter::WriteStageHandler</title>
<!-- Node1 -->
<g id="Node000001" class="node">
<title>Node1</title>
<g id="a_Node000001"><a xlink:title=" ">
<polygon fill="#999999" stroke="transparent" points="163.5,-225 0.5,-225 0.5,0 163.5,0 163.5,-225"/>
<text text-anchor="start" x="11.5" y="-212.5" font-family="Helvetica,sans-Serif" font-size="10.00">EasyKiConverter::WriteStage</text>
<text text-anchor="start" x="63" y="-201.5" font-family="Helvetica,sans-Serif" font-size="10.00">Handler</text>
<text text-anchor="start" x="7.5" y="-186.5" font-family="Helvetica,sans-Serif" font-size="10.00">&#45;</text>
<text text-anchor="start" x="18" y="-186.5" font-family="Helvetica,sans-Serif" font-size="10.00">m_threadPool</text>
<text text-anchor="start" x="7.5" y="-171.5" font-family="Helvetica,sans-Serif" font-size="10.00">&#45;</text>
<text text-anchor="start" x="18" y="-171.5" font-family="Helvetica,sans-Serif" font-size="10.00">m_inputQueue</text>
<text text-anchor="start" x="7.5" y="-156.5" font-family="Helvetica,sans-Serif" font-size="10.00">&#45;</text>
<text text-anchor="start" x="18" y="-156.5" font-family="Helvetica,sans-Serif" font-size="10.00">m_options</text>
<text text-anchor="start" x="7.5" y="-141.5" font-family="Helvetica,sans-Serif" font-size="10.00">&#45;</text>
<text text-anchor="start" x="18" y="-141.5" font-family="Helvetica,sans-Serif" font-size="10.00">m_tempDir</text>
<text text-anchor="start" x="7.5" y="-126.5" font-family="Helvetica,sans-Serif" font-size="10.00">&#45;</text>
<text text-anchor="start" x="18" y="-126.5" font-family="Helvetica,sans-Serif" font-size="10.00">m_activeWorkers</text>
<text text-anchor="start" x="7.5" y="-111.5" font-family="Helvetica,sans-Serif" font-size="10.00">&#45;</text>
<text text-anchor="start" x="18" y="-111.5" font-family="Helvetica,sans-Serif" font-size="10.00">m_workerMutex</text>
<text text-anchor="start" x="5" y="-96.5" font-family="Helvetica,sans-Serif" font-size="10.00">+</text>
<text text-anchor="start" x="18" y="-96.5" font-family="Helvetica,sans-Serif" font-size="10.00">WriteStageHandler()</text>
<text text-anchor="start" x="5" y="-81.5" font-family="Helvetica,sans-Serif" font-size="10.00">+</text>
<text text-anchor="start" x="18" y="-81.5" font-family="Helvetica,sans-Serif" font-size="10.00">start()</text>
<text text-anchor="start" x="5" y="-66.5" font-family="Helvetica,sans-Serif" font-size="10.00">+</text>
<text text-anchor="start" x="18" y="-66.5" font-family="Helvetica,sans-Serif" font-size="10.00">stop()</text>
<text text-anchor="start" x="5" y="-51.5" font-family="Helvetica,sans-Serif" font-size="10.00">+</text>
<text text-anchor="start" x="18" y="-51.5" font-family="Helvetica,sans-Serif" font-size="10.00">setInputQueue()</text>
<text text-anchor="start" x="5" y="-36.5" font-family="Helvetica,sans-Serif" font-size="10.00">+</text>
<text text-anchor="start" x="18" y="-36.5" font-family="Helvetica,sans-Serif" font-size="10.00">setOptions()</text>
<text text-anchor="start" x="5" y="-21.5" font-family="Helvetica,sans-Serif" font-size="10.00">+</text>
<text text-anchor="start" x="18" y="-21.5" font-family="Helvetica,sans-Serif" font-size="10.00">setTempDir()</text>
<text text-anchor="start" x="5" y="-6.5" font-family="Helvetica,sans-Serif" font-size="10.00">+</text>
<text text-anchor="start" x="18" y="-6.5" font-family="Helvetica,sans-Serif" font-size="10.00">componentWriteCompleted()</text>
<polygon fill="#666666" stroke="#666666" points="1,-196.5 1,-196.5 164,-196.5 164,-196.5 1,-196.5"/>
<polygon fill="#666666" stroke="#666666" points="1,-106.5 1,-106.5 16,-106.5 16,-106.5 1,-106.5"/>
<polygon fill="#666666" stroke="#666666" points="16,-106.5 16,-106.5 164,-106.5 164,-106.5 16,-106.5"/>
<polygon fill="none" stroke="#666666" points="0.5,0 0.5,-225 163.5,-225 163.5,0 0.5,0"/>
</a>
</g>
</g>
<!-- Node2 -->
<g id="Node000002" class="node">
<title>Node2</title>
<g id="a_Node000002"><a xlink:href="classEasyKiConverter_1_1StageHandler.html" target="_top" xlink:title="流水线阶段处理器基类">
<polygon fill="white" stroke="transparent" points="164,-355 0,-355 0,-261 164,-261 164,-355"/>
<text text-anchor="start" x="5" y="-343" font-family="Helvetica,sans-Serif" font-size="10.00">EasyKiConverter::StageHandler</text>
<text text-anchor="start" x="19" y="-328" font-family="Helvetica,sans-Serif" font-size="10.00">#</text>
<text text-anchor="start" x="47" y="-328" font-family="Helvetica,sans-Serif" font-size="10.00">m_isCancelled</text>
<text text-anchor="start" x="19" y="-313" font-family="Helvetica,sans-Serif" font-size="10.00">+</text>
<text text-anchor="start" x="47" y="-313" font-family="Helvetica,sans-Serif" font-size="10.00">StageHandler()</text>
<text text-anchor="start" x="19" y="-298" font-family="Helvetica,sans-Serif" font-size="10.00">+</text>
<text text-anchor="start" x="47" y="-298" font-family="Helvetica,sans-Serif" font-size="10.00">~StageHandler()</text>
<text text-anchor="start" x="19" y="-283" font-family="Helvetica,sans-Serif" font-size="10.00">+</text>
<text text-anchor="start" x="47" y="-283" font-family="Helvetica,sans-Serif" font-size="10.00">start()</text>
<text text-anchor="start" x="19" y="-268" font-family="Helvetica,sans-Serif" font-size="10.00">+</text>
<text text-anchor="start" x="47" y="-268" font-family="Helvetica,sans-Serif" font-size="10.00">stop()</text>
<polygon fill="#666666" stroke="#666666" points="0,-338 0,-338 164,-338 164,-338 0,-338"/>
<polygon fill="#666666" stroke="#666666" points="0,-323 0,-323 45,-323 45,-323 0,-323"/>
<polygon fill="#666666" stroke="#666666" points="45,-323 45,-323 164,-323 164,-323 45,-323"/>
<polygon fill="none" stroke="#666666" points="0,-261 0,-355 164,-355 164,-261 0,-261"/>
</a>
</g>
</g>
<!-- Node2&#45;&gt;Node1 -->
<g id="edge1_Node000001_Node000002" class="edge">
<title>Node2&#45;&gt;Node1</title>
<g id="a_edge1_Node000001_Node000002"><a xlink:title=" ">
<path fill="none" stroke="#63b8ff" d="M82,-250.6C82,-242.45 82,-233.83 82,-225.05"/>
<polygon fill="none" stroke="#63b8ff" points="78.5,-250.65 82,-260.65 85.5,-250.65 78.5,-250.65"/>
</a>
</g>
</g>
<!-- Node3 -->
<g id="Node000003" class="node">
<title>Node3</title>
<g id="a_Node000003"><a xlink:title=" ">
<polygon fill="white" stroke="transparent" points="107,-440 57,-440 57,-391 107,-391 107,-440"/>
<text text-anchor="start" x="62" y="-427.5" font-family="Helvetica,sans-Serif" font-size="10.00">QObject</text>
<text text-anchor="start" x="80" y="-412.5" font-family="Helvetica,sans-Serif" font-size="10.00"> </text>
<text text-anchor="start" x="80" y="-397.5" font-family="Helvetica,sans-Serif" font-size="10.00"> </text>
<polygon fill="#666666" stroke="#666666" points="57,-422.5 57,-422.5 107,-422.5 107,-422.5 57,-422.5"/>
<polygon fill="#666666" stroke="#666666" points="57,-407.5 57,-407.5 107,-407.5 107,-407.5 57,-407.5"/>
<polygon fill="none" stroke="#666666" points="57,-391 57,-440 107,-440 107,-391 57,-391"/>
</a>
</g>
</g>
<!-- Node3&#45;&gt;Node2 -->
<g id="edge2_Node000002_Node000003" class="edge">
<title>Node3&#45;&gt;Node2</title>
<g id="a_edge2_Node000002_Node000003"><a xlink:title=" ">
<path fill="none" stroke="#63b8ff" d="M82,-380.61C82,-372.48 82,-363.66 82,-355.08"/>
<polygon fill="none" stroke="#63b8ff" points="78.5,-380.82 82,-390.82 85.5,-380.82 78.5,-380.82"/>
</a>
</g>
</g>
</g>
</svg>
