<?xml version="1.0" encoding="UTF-8" standalone="no"?>
<!DOCTYPE svg PUBLIC "-//W3C//DTD SVG 1.1//EN"
 "http://www.w3.org/Graphics/SVG/1.1/DTD/svg11.dtd">
<!-- Generated by graphviz version 2.43.0 (0)
 -->
<!-- Title: EasyKiConverter::SymbolExportStage Pages: 1 -->
<svg width="174pt" height="819pt"
 viewBox="0.00 0.00 174.00 819.00" xmlns="http://www.w3.org/2000/svg" xmlns:xlink="http://www.w3.org/1999/xlink">
<g id="graph0" class="graph" transform="scale(1 1) rotate(0) translate(4 815)">
<title>EasyKiConverter::SymbolExportStage</title>
<!-- Node1 -->
<g id="Node000001" class="node">
<title>Node1</title>
<g id="a_Node000001"><a xlink:title="符号库导出阶段">
<polygon fill="#999999" stroke="transparent" points="166,-210 0,-210 0,0 166,0 166,-210"/>
<text text-anchor="start" x="5" y="-198" font-family="Helvetica,sans-Serif" font-size="10.00">EasyKiConverter::SymbolExport</text>
<text text-anchor="start" x="69" y="-187" font-family="Helvetica,sans-Serif" font-size="10.00">Stage</text>
<text text-anchor="start" x="14.5" y="-172" font-family="Helvetica,sans-Serif" font-size="10.00">&#45;</text>
<text text-anchor="start" x="33" y="-172" font-family="Helvetica,sans-Serif" font-size="10.00">m_options</text>
<text text-anchor="start" x="14.5" y="-157" font-family="Helvetica,sans-Serif" font-size="10.00">&#45;</text>
<text text-anchor="start" x="33" y="-157" font-family="Helvetica,sans-Serif" font-size="10.00">m_tempManager</text>
<text text-anchor="start" x="14.5" y="-142" font-family="Helvetica,sans-Serif" font-size="10.00">&#45;</text>
<text text-anchor="start" x="33" y="-142" font-family="Helvetica,sans-Serif" font-size="10.00">m_workerThread</text>
<text text-anchor="start" x="12" y="-127" font-family="Helvetica,sans-Serif" font-size="10.00">+</text>
<text text-anchor="start" x="33" y="-127" font-family="Helvetica,sans-Serif" font-size="10.00">SymbolExportStage()</text>
<text text-anchor="start" x="12" y="-112" font-family="Helvetica,sans-Serif" font-size="10.00">+</text>
<text text-anchor="start" x="33" y="-112" font-family="Helvetica,sans-Serif" font-size="10.00">~SymbolExportStage()</text>
<text text-anchor="start" x="12" y="-97" font-family="Helvetica,sans-Serif" font-size="10.00">+</text>
<text text-anchor="start" x="33" y="-97" font-family="Helvetica,sans-Serif" font-size="10.00">setOptions()</text>
<text text-anchor="start" x="12" y="-82" font-family="Helvetica,sans-Serif" font-size="10.00">+</text>
<text text-anchor="start" x="33" y="-82" font-family="Helvetica,sans-Serif" font-size="10.00">start()</text>
<text text-anchor="start" x="12" y="-67" font-family="Helvetica,sans-Serif" font-size="10.00">+</text>
<text text-anchor="start" x="33" y="-67" font-family="Helvetica,sans-Serif" font-size="10.00">cancel()</text>
<text text-anchor="start" x="12" y="-52" font-family="Helvetica,sans-Serif" font-size="10.00">+</text>
<text text-anchor="start" x="33" y="-52" font-family="Helvetica,sans-Serif" font-size="10.00">waitForFinished()</text>
<text text-anchor="start" x="12" y="-37" font-family="Helvetica,sans-Serif" font-size="10.00">#</text>
<text text-anchor="start" x="33" y="-37" font-family="Helvetica,sans-Serif" font-size="10.00">createWorker()</text>
<text text-anchor="start" x="12" y="-22" font-family="Helvetica,sans-Serif" font-size="10.00">#</text>
<text text-anchor="start" x="33" y="-22" font-family="Helvetica,sans-Serif" font-size="10.00">startWorker()</text>
<text text-anchor="start" x="14.5" y="-7" font-family="Helvetica,sans-Serif" font-size="10.00">&#45;</text>
<text text-anchor="start" x="33" y="-7" font-family="Helvetica,sans-Serif" font-size="10.00">doLibraryExport()</text>
<polygon fill="#666666" stroke="#666666" points="0,-182 0,-182 166,-182 166,-182 0,-182"/>
<polygon fill="#666666" stroke="#666666" points="0,-137 0,-137 31,-137 31,-137 0,-137"/>
<polygon fill="#666666" stroke="#666666" points="31,-137 31,-137 166,-137 166,-137 31,-137"/>
<polygon fill="none" stroke="#666666" points="0,0 0,-210 166,-210 166,0 0,0"/>
</a>
</g>
</g>
<!-- Node2 -->
<g id="Node000002" class="node">
<title>Node2</title>
<g id="a_Node000002"><a xlink:href="classEasyKiConverter_1_1ExportTypeStage.html" target="_top" xlink:title="导出类型阶段基类">
<polygon fill="white" stroke="transparent" points="159,-726 7,-726 7,-246 159,-246 159,-726"/>
<text text-anchor="start" x="12" y="-714" font-family="Helvetica,sans-Serif" font-size="10.00">EasyKiConverter::ExportType</text>
<text text-anchor="start" x="69" y="-703" font-family="Helvetica,sans-Serif" font-size="10.00">Stage</text>
<text text-anchor="start" x="14" y="-688" font-family="Helvetica,sans-Serif" font-size="10.00">+</text>
<text text-anchor="start" x="30" y="-688" font-family="Helvetica,sans-Serif" font-size="10.00">m_typeName</text>
<text text-anchor="start" x="14" y="-673" font-family="Helvetica,sans-Serif" font-size="10.00">+</text>
<text text-anchor="start" x="30" y="-673" font-family="Helvetica,sans-Serif" font-size="10.00">m_threadPool</text>
<text text-anchor="start" x="14" y="-658" font-family="Helvetica,sans-Serif" font-size="10.00">+</text>
<text text-anchor="start" x="30" y="-658" font-family="Helvetica,sans-Serif" font-size="10.00">m_isRunning</text>
<text text-anchor="start" x="14" y="-643" font-family="Helvetica,sans-Serif" font-size="10.00">+</text>
<text text-anchor="start" x="30" y="-643" font-family="Helvetica,sans-Serif" font-size="10.00">m_cancelled</text>
<text text-anchor="start" x="14" y="-628" font-family="Helvetica,sans-Serif" font-size="10.00">+</text>
<text text-anchor="start" x="30" y="-628" font-family="Helvetica,sans-Serif" font-size="10.00">m_isExporting</text>
<text text-anchor="start" x="14" y="-613" font-family="Helvetica,sans-Serif" font-size="10.00">+</text>
<text text-anchor="start" x="30" y="-613" font-family="Helvetica,sans-Serif" font-size="10.00">m_componentIds</text>
<text text-anchor="start" x="14" y="-598" font-family="Helvetica,sans-Serif" font-size="10.00">+</text>
<text text-anchor="start" x="30" y="-598" font-family="Helvetica,sans-Serif" font-size="10.00">m_cachedData</text>
<text text-anchor="start" x="14" y="-583" font-family="Helvetica,sans-Serif" font-size="10.00">+</text>
<text text-anchor="start" x="30" y="-583" font-family="Helvetica,sans-Serif" font-size="10.00">m_progressMutex</text>
<text text-anchor="start" x="14" y="-568" font-family="Helvetica,sans-Serif" font-size="10.00">+</text>
<text text-anchor="start" x="30" y="-568" font-family="Helvetica,sans-Serif" font-size="10.00">m_progress</text>
<text text-anchor="start" x="14" y="-553" font-family="Helvetica,sans-Serif" font-size="10.00">+</text>
<text text-anchor="start" x="30" y="-553" font-family="Helvetica,sans-Serif" font-size="10.00">m_workerMutex</text>
<text text-anchor="start" x="14" y="-538" font-family="Helvetica,sans-Serif" font-size="10.00">+</text>
<text text-anchor="start" x="30" y="-538" font-family="Helvetica,sans-Serif" font-size="10.00">m_activeWorkers</text>
<text text-anchor="start" x="14" y="-523" font-family="Helvetica,sans-Serif" font-size="10.00">+</text>
<text text-anchor="start" x="30" y="-523" font-family="Helvetica,sans-Serif" font-size="10.00">m_pendingComponents</text>
<text text-anchor="start" x="14" y="-508" font-family="Helvetica,sans-Serif" font-size="10.00">+</text>
<text text-anchor="start" x="30" y="-508" font-family="Helvetica,sans-Serif" font-size="10.00">ExportTypeStage()</text>
<text text-anchor="start" x="14" y="-493" font-family="Helvetica,sans-Serif" font-size="10.00">+</text>
<text text-anchor="start" x="30" y="-493" font-family="Helvetica,sans-Serif" font-size="10.00">~ExportTypeStage()</text>
<text text-anchor="start" x="14" y="-478" font-family="Helvetica,sans-Serif" font-size="10.00">+</text>
<text text-anchor="start" x="30" y="-478" font-family="Helvetica,sans-Serif" font-size="10.00">start()</text>
<text text-anchor="start" x="14" y="-463" font-family="Helvetica,sans-Serif" font-size="10.00">+</text>
<text text-anchor="start" x="30" y="-463" font-family="Helvetica,sans-Serif" font-size="10.00">cancel()</text>
<text text-anchor="start" x="14" y="-448" font-family="Helvetica,sans-Serif" font-size="10.00">+</text>
<text text-anchor="start" x="30" y="-448" font-family="Helvetica,sans-Serif" font-size="10.00">waitForFinished()</text>
<text text-anchor="start" x="14" y="-433" font-family="Helvetica,sans-Serif" font-size="10.00">+</text>
<text text-anchor="start" x="30" y="-433" font-family="Helvetica,sans-Serif" font-size="10.00">getProgress()</text>
<text text-anchor="start" x="14" y="-418" font-family="Helvetica,sans-Serif" font-size="10.00">+</text>
<text text-anchor="start" x="30" y="-418" font-family="Helvetica,sans-Serif" font-size="10.00">isRunning()</text>
<text text-anchor="start" x="14" y="-403" font-family="Helvetica,sans-Serif" font-size="10.00">+</text>
<text text-anchor="start" x="30" y="-403" font-family="Helvetica,sans-Serif" font-size="10.00">hasActiveWorkers()</text>
<text text-anchor="start" x="14" y="-388" font-family="Helvetica,sans-Serif" font-size="10.00">+</text>
<text text-anchor="start" x="30" y="-388" font-family="Helvetica,sans-Serif" font-size="10.00">typeName()</text>
<text text-anchor="start" x="14" y="-373" font-family="Helvetica,sans-Serif" font-size="10.00">+</text>
<text text-anchor="start" x="30" y="-373" font-family="Helvetica,sans-Serif" font-size="10.00">progressChanged()</text>
<text text-anchor="start" x="14" y="-358" font-family="Helvetica,sans-Serif" font-size="10.00">+</text>
<text text-anchor="start" x="30" y="-358" font-family="Helvetica,sans-Serif" font-size="10.00">itemStatusChanged()</text>
<text text-anchor="start" x="14" y="-343" font-family="Helvetica,sans-Serif" font-size="10.00">+</text>
<text text-anchor="start" x="30" y="-343" font-family="Helvetica,sans-Serif" font-size="10.00">completed()</text>
<text text-anchor="start" x="14" y="-328" font-family="Helvetica,sans-Serif" font-size="10.00">+</text>
<text text-anchor="start" x="30" y="-328" font-family="Helvetica,sans-Serif" font-size="10.00">completeItemProgress()</text>
<text text-anchor="start" x="14" y="-313" font-family="Helvetica,sans-Serif" font-size="10.00">#</text>
<text text-anchor="start" x="30" y="-313" font-family="Helvetica,sans-Serif" font-size="10.00">createWorker()</text>
<text text-anchor="start" x="14" y="-298" font-family="Helvetica,sans-Serif" font-size="10.00">#</text>
<text text-anchor="start" x="30" y="-298" font-family="Helvetica,sans-Serif" font-size="10.00">startWorker()</text>
<text text-anchor="start" x="14" y="-283" font-family="Helvetica,sans-Serif" font-size="10.00">#</text>
<text text-anchor="start" x="30" y="-283" font-family="Helvetica,sans-Serif" font-size="10.00">startNextWorker()</text>
<text text-anchor="start" x="14" y="-268" font-family="Helvetica,sans-Serif" font-size="10.00">#</text>
<text text-anchor="start" x="30" y="-268" font-family="Helvetica,sans-Serif" font-size="10.00">waitForWorkerThread()</text>
<text text-anchor="start" x="14" y="-253" font-family="Helvetica,sans-Serif" font-size="10.00">#</text>
<text text-anchor="start" x="30" y="-253" font-family="Helvetica,sans-Serif" font-size="10.00">initItemProgress()</text>
<polygon fill="#666666" stroke="#666666" points="7,-698 7,-698 159,-698 159,-698 7,-698"/>
<polygon fill="#666666" stroke="#666666" points="7,-518 7,-518 28,-518 28,-518 7,-518"/>
<polygon fill="#666666" stroke="#666666" points="28,-518 28,-518 159,-518 159,-518 28,-518"/>
<polygon fill="none" stroke="#666666" points="7,-246 7,-726 159,-726 159,-246 7,-246"/>
</a>
</g>
</g>
<!-- Node2&#45;&gt;Node1 -->
<g id="edge1_Node000001_Node000002" class="edge">
<title>Node2&#45;&gt;Node1</title>
<g id="a_edge1_Node000001_Node000002"><a xlink:title=" ">
<path fill="none" stroke="#63b8ff" d="M83,-235.52C83,-226.85 83,-218.36 83,-210.15"/>
<polygon fill="none" stroke="#63b8ff" points="79.5,-235.78 83,-245.78 86.5,-235.78 79.5,-235.78"/>
</a>
</g>
</g>
<!-- Node3 -->
<g id="Node000003" class="node">
<title>Node3</title>
<g id="a_Node000003"><a xlink:title=" ">
<polygon fill="white" stroke="transparent" points="108,-811 58,-811 58,-762 108,-762 108,-811"/>
<text text-anchor="start" x="63" y="-798.5" font-family="Helvetica,sans-Serif" font-size="10.00">QObject</text>
<text text-anchor="start" x="81" y="-783.5" font-family="Helvetica,sans-Serif" font-size="10.00"> </text>
<text text-anchor="start" x="81" y="-768.5" font-family="Helvetica,sans-Serif" font-size="10.00"> </text>
<polygon fill="#666666" stroke="#666666" points="58,-793.5 58,-793.5 108,-793.5 108,-793.5 58,-793.5"/>
<polygon fill="#666666" stroke="#666666" points="58,-778.5 58,-778.5 108,-778.5 108,-778.5 58,-778.5"/>
<polygon fill="none" stroke="#666666" points="58,-762 58,-811 108,-811 108,-762 58,-762"/>
</a>
</g>
</g>
<!-- Node3&#45;&gt;Node2 -->
<g id="edge2_Node000002_Node000003" class="edge">
<title>Node3&#45;&gt;Node2</title>
<g id="a_edge2_Node000002_Node000003"><a xlink:title=" ">
<path fill="none" stroke="#63b8ff" d="M83,-751.81C83,-744.22 83,-735.61 83,-726.24"/>
<polygon fill="none" stroke="#63b8ff" points="79.5,-751.83 83,-761.83 86.5,-751.83 79.5,-751.83"/>
</a>
</g>
</g>
</g>
</svg>
