<?xml version="1.0" encoding="UTF-8" standalone="no"?>
<!DOCTYPE svg PUBLIC "-//W3C//DTD SVG 1.1//EN"
 "http://www.w3.org/Graphics/SVG/1.1/DTD/svg11.dtd">
<!-- Generated by graphviz version 2.43.0 (0)
 -->
<!-- Title: EasyKiConverter::ConfigService Pages: 1 -->
<svg width="249pt" height="413pt"
 viewBox="0.00 0.00 249.00 413.00" xmlns="http://www.w3.org/2000/svg" xmlns:xlink="http://www.w3.org/1999/xlink">
<g id="graph0" class="graph" transform="scale(1 1) rotate(0) translate(4 409)">
<title>EasyKiConverter::ConfigService</title>
<!-- Node1 -->
<g id="Node000001" class="node">
<title>Node1</title>
<g id="a_Node000001"><a xlink:title="配置服务">
<polygon fill="#999999" stroke="transparent" points="164,-319 0,-319 0,0 164,0 164,-319"/>
<text text-anchor="start" x="5" y="-306.5" font-family="Helvetica,sans-Serif" font-size="10.00">EasyKiConverter::ConfigService</text>
<text text-anchor="start" x="13" y="-291.5" font-family="Helvetica,sans-Serif" font-size="10.00">&#45;</text>
<text text-anchor="start" x="30" y="-291.5" font-family="Helvetica,sans-Serif" font-size="10.00">m_config</text>
<text text-anchor="start" x="13" y="-276.5" font-family="Helvetica,sans-Serif" font-size="10.00">&#45;</text>
<text text-anchor="start" x="30" y="-276.5" font-family="Helvetica,sans-Serif" font-size="10.00">m_configPath</text>
<text text-anchor="start" x="13" y="-261.5" font-family="Helvetica,sans-Serif" font-size="10.00">&#45;</text>
<text text-anchor="start" x="30" y="-261.5" font-family="Helvetica,sans-Serif" font-size="10.00">m_configMutex</text>
<text text-anchor="start" x="13" y="-246.5" font-family="Helvetica,sans-Serif" font-size="10.00">&#45;</text>
<text text-anchor="start" x="30" y="-246.5" font-family="Helvetica,sans-Serif" font-size="10.00">s_mutex</text>
<text text-anchor="start" x="10.5" y="-231.5" font-family="Helvetica,sans-Serif" font-size="10.00">+</text>
<text text-anchor="start" x="30" y="-231.5" font-family="Helvetica,sans-Serif" font-size="10.00">loadConfig()</text>
<text text-anchor="start" x="10.5" y="-216.5" font-family="Helvetica,sans-Serif" font-size="10.00">+</text>
<text text-anchor="start" x="30" y="-216.5" font-family="Helvetica,sans-Serif" font-size="10.00">saveConfig()</text>
<text text-anchor="start" x="10.5" y="-201.5" font-family="Helvetica,sans-Serif" font-size="10.00">+</text>
<text text-anchor="start" x="30" y="-201.5" font-family="Helvetica,sans-Serif" font-size="10.00">resetToDefaults()</text>
<text text-anchor="start" x="10.5" y="-186.5" font-family="Helvetica,sans-Serif" font-size="10.00">+</text>
<text text-anchor="start" x="30" y="-186.5" font-family="Helvetica,sans-Serif" font-size="10.00">getOutputPath()</text>
<text text-anchor="start" x="10.5" y="-171.5" font-family="Helvetica,sans-Serif" font-size="10.00">+</text>
<text text-anchor="start" x="30" y="-171.5" font-family="Helvetica,sans-Serif" font-size="10.00">setOutputPath()</text>
<text text-anchor="start" x="10.5" y="-156.5" font-family="Helvetica,sans-Serif" font-size="10.00">+</text>
<text text-anchor="start" x="30" y="-156.5" font-family="Helvetica,sans-Serif" font-size="10.00">getLibName()</text>
<text text-anchor="start" x="10.5" y="-141.5" font-family="Helvetica,sans-Serif" font-size="10.00">+</text>
<text text-anchor="start" x="30" y="-141.5" font-family="Helvetica,sans-Serif" font-size="10.00">setLibName()</text>
<text text-anchor="start" x="10.5" y="-126.5" font-family="Helvetica,sans-Serif" font-size="10.00">+</text>
<text text-anchor="start" x="30" y="-126.5" font-family="Helvetica,sans-Serif" font-size="10.00">getExportSymbol()</text>
<text text-anchor="start" x="10.5" y="-111.5" font-family="Helvetica,sans-Serif" font-size="10.00">+</text>
<text text-anchor="start" x="30" y="-111.5" font-family="Helvetica,sans-Serif" font-size="10.00">setExportSymbol()</text>
<text text-anchor="start" x="10.5" y="-96.5" font-family="Helvetica,sans-Serif" font-size="10.00">+</text>
<text text-anchor="start" x="30" y="-96.5" font-family="Helvetica,sans-Serif" font-size="10.00">getExportFootprint()</text>
<text text-anchor="start" x="30" y="-81.5" font-family="Helvetica,sans-Serif" font-size="10.00">和 10 更多...</text>
<text text-anchor="start" x="10.5" y="-66.5" font-family="Helvetica,sans-Serif" font-size="10.00">+</text>
<text text-anchor="start" x="30" y="-66.5" font-family="Helvetica,sans-Serif" font-size="10.00">instance()</text>
<text text-anchor="start" x="13" y="-51.5" font-family="Helvetica,sans-Serif" font-size="10.00">&#45;</text>
<text text-anchor="start" x="30" y="-51.5" font-family="Helvetica,sans-Serif" font-size="10.00">ConfigService()</text>
<text text-anchor="start" x="13" y="-36.5" font-family="Helvetica,sans-Serif" font-size="10.00">&#45;</text>
<text text-anchor="start" x="30" y="-36.5" font-family="Helvetica,sans-Serif" font-size="10.00">~ConfigService()</text>
<text text-anchor="start" x="13" y="-21.5" font-family="Helvetica,sans-Serif" font-size="10.00">&#45;</text>
<text text-anchor="start" x="30" y="-21.5" font-family="Helvetica,sans-Serif" font-size="10.00">initializeDefaultConfig()</text>
<text text-anchor="start" x="13" y="-6.5" font-family="Helvetica,sans-Serif" font-size="10.00">&#45;</text>
<text text-anchor="start" x="30" y="-6.5" font-family="Helvetica,sans-Serif" font-size="10.00">getDefaultConfigPath()</text>
<polygon fill="#666666" stroke="#666666" points="0,-301.5 0,-301.5 164,-301.5 164,-301.5 0,-301.5"/>
<polygon fill="#666666" stroke="#666666" points="0,-241.5 0,-241.5 28,-241.5 28,-241.5 0,-241.5"/>
<polygon fill="#666666" stroke="#666666" points="28,-241.5 28,-241.5 164,-241.5 164,-241.5 28,-241.5"/>
<polygon fill="none" stroke="#666666" points="0,0 0,-319 164,-319 164,0 0,0"/>
</a>
</g>
</g>
<!-- Node1&#45;&gt;Node1 -->
<g id="edge2_Node000001_Node000001" class="edge">
<title>Node1&#45;&gt;Node1</title>
<g id="a_edge2_Node000001_Node000001"><a xlink:title=" ">
<path fill="none" stroke="#63b8ff" d="M164.38,-188.75C174.99,-183.68 182,-173.93 182,-159.5 182,-150.26 179.12,-142.93 174.27,-137.53"/>
<polygon fill="none" stroke="#63b8ff" points="174.05,-137.37 166.84,-137.03 164.38,-130.25 171.59,-130.59 174.05,-137.37"/>
</a>
</g>
<text text-anchor="middle" x="211.5" y="-157" font-family="Helvetica,sans-Serif" font-size="10.00" fill="grey"> &#45;s_instance</text>
</g>
<!-- Node2 -->
<g id="Node000002" class="node">
<title>Node2</title>
<g id="a_Node000002"><a xlink:title=" ">
<polygon fill="white" stroke="transparent" points="107,-405 57,-405 57,-356 107,-356 107,-405"/>
<text text-anchor="start" x="62" y="-392.5" font-family="Helvetica,sans-Serif" font-size="10.00">QObject</text>
<text text-anchor="start" x="80" y="-377.5" font-family="Helvetica,sans-Serif" font-size="10.00"> </text>
<text text-anchor="start" x="80" y="-362.5" font-family="Helvetica,sans-Serif" font-size="10.00"> </text>
<polygon fill="#666666" stroke="#666666" points="57,-387.5 57,-387.5 107,-387.5 107,-387.5 57,-387.5"/>
<polygon fill="#666666" stroke="#666666" points="57,-372.5 57,-372.5 107,-372.5 107,-372.5 57,-372.5"/>
<polygon fill="none" stroke="#666666" points="57,-356 57,-405 107,-405 107,-356 57,-356"/>
</a>
</g>
</g>
<!-- Node2&#45;&gt;Node1 -->
<g id="edge1_Node000001_Node000002" class="edge">
<title>Node2&#45;&gt;Node1</title>
<g id="a_edge1_Node000001_Node000002"><a xlink:title=" ">
<path fill="none" stroke="#63b8ff" d="M82,-345.59C82,-337.73 82,-328.85 82,-319.34"/>
<polygon fill="none" stroke="#63b8ff" points="78.5,-345.65 82,-355.65 85.5,-345.65 78.5,-345.65"/>
</a>
</g>
</g>
</g>
</svg>
