<?xml version="1.0" encoding="UTF-8" standalone="no"?>
<!DOCTYPE svg PUBLIC "-//W3C//DTD SVG 1.1//EN"
 "http://www.w3.org/Graphics/SVG/1.1/DTD/svg11.dtd">
<!-- Generated by graphviz version 2.43.0 (0)
 -->
<!-- Title: EasyKiConverter::BomConverter Pages: 1 -->
<svg width="178pt" height="542pt"
 viewBox="0.00 0.00 178.00 542.00" xmlns="http://www.w3.org/2000/svg" xmlns:xlink="http://www.w3.org/1999/xlink">
<g id="graph0" class="graph" transform="scale(1 1) rotate(0) translate(4 538)">
<title>EasyKiConverter::BomConverter</title>
<!-- Node1 -->
<g id="Node000001" class="node">
<title>Node1</title>
<g id="a_Node000001"><a xlink:title="BOM 表转换器">
<polygon fill="#999999" stroke="transparent" points="169,-184 1,-184 1,0 169,0 169,-184"/>
<text text-anchor="start" x="6" y="-172" font-family="Helvetica,sans-Serif" font-size="10.00">EasyKiConverter::BomConverter</text>
<text text-anchor="start" x="16.5" y="-157" font-family="Helvetica,sans-Serif" font-size="10.00">&#45;</text>
<text text-anchor="start" x="36" y="-157" font-family="Helvetica,sans-Serif" font-size="10.00">m_exportFinished</text>
<text text-anchor="start" x="16.5" y="-142" font-family="Helvetica,sans-Serif" font-size="10.00">&#45;</text>
<text text-anchor="start" x="36" y="-142" font-family="Helvetica,sans-Serif" font-size="10.00">m_exportSuccess</text>
<text text-anchor="start" x="16.5" y="-127" font-family="Helvetica,sans-Serif" font-size="10.00">&#45;</text>
<text text-anchor="start" x="36" y="-127" font-family="Helvetica,sans-Serif" font-size="10.00">m_successCount</text>
<text text-anchor="start" x="16.5" y="-112" font-family="Helvetica,sans-Serif" font-size="10.00">&#45;</text>
<text text-anchor="start" x="36" y="-112" font-family="Helvetica,sans-Serif" font-size="10.00">m_failedCount</text>
<text text-anchor="start" x="14" y="-97" font-family="Helvetica,sans-Serif" font-size="10.00">+</text>
<text text-anchor="start" x="36" y="-97" font-family="Helvetica,sans-Serif" font-size="10.00">BomConverter()</text>
<text text-anchor="start" x="14" y="-82" font-family="Helvetica,sans-Serif" font-size="10.00">+</text>
<text text-anchor="start" x="36" y="-82" font-family="Helvetica,sans-Serif" font-size="10.00">~BomConverter()</text>
<text text-anchor="start" x="14" y="-67" font-family="Helvetica,sans-Serif" font-size="10.00">+</text>
<text text-anchor="start" x="36" y="-67" font-family="Helvetica,sans-Serif" font-size="10.00">execute()</text>
<text text-anchor="start" x="16.5" y="-52" font-family="Helvetica,sans-Serif" font-size="10.00">&#45;</text>
<text text-anchor="start" x="36" y="-52" font-family="Helvetica,sans-Serif" font-size="10.00">onPreloadCompleted()</text>
<text text-anchor="start" x="16.5" y="-37" font-family="Helvetica,sans-Serif" font-size="10.00">&#45;</text>
<text text-anchor="start" x="36" y="-37" font-family="Helvetica,sans-Serif" font-size="10.00">onProgressChanged()</text>
<text text-anchor="start" x="16.5" y="-22" font-family="Helvetica,sans-Serif" font-size="10.00">&#45;</text>
<text text-anchor="start" x="36" y="-22" font-family="Helvetica,sans-Serif" font-size="10.00">onExportCompleted()</text>
<text text-anchor="start" x="16.5" y="-7" font-family="Helvetica,sans-Serif" font-size="10.00">&#45;</text>
<text text-anchor="start" x="36" y="-7" font-family="Helvetica,sans-Serif" font-size="10.00">onExportFailed()</text>
<polygon fill="#666666" stroke="#666666" points="1,-167 1,-167 169,-167 169,-167 1,-167"/>
<polygon fill="#666666" stroke="#666666" points="1,-107 1,-107 34,-107 34,-107 1,-107"/>
<polygon fill="#666666" stroke="#666666" points="34,-107 34,-107 169,-107 169,-107 34,-107"/>
<polygon fill="none" stroke="#666666" points="1,0 1,-184 169,-184 169,0 1,0"/>
</a>
</g>
</g>
<!-- Node2 -->
<g id="Node000002" class="node">
<title>Node2</title>
<g id="a_Node000002"><a xlink:href="classEasyKiConverter_1_1BaseConverter.html" target="_top" xlink:title="转换器基类">
<polygon fill="white" stroke="transparent" points="170,-449 0,-449 0,-220 170,-220 170,-449"/>
<text text-anchor="start" x="5" y="-436.5" font-family="Helvetica,sans-Serif" font-size="10.00">EasyKiConverter::BaseConverter</text>
<text text-anchor="start" x="18" y="-421.5" font-family="Helvetica,sans-Serif" font-size="10.00">&#45;</text>
<text text-anchor="start" x="40" y="-421.5" font-family="Helvetica,sans-Serif" font-size="10.00">m_context</text>
<text text-anchor="start" x="18" y="-406.5" font-family="Helvetica,sans-Serif" font-size="10.00">&#45;</text>
<text text-anchor="start" x="40" y="-406.5" font-family="Helvetica,sans-Serif" font-size="10.00">m_printer</text>
<text text-anchor="start" x="18" y="-391.5" font-family="Helvetica,sans-Serif" font-size="10.00">&#45;</text>
<text text-anchor="start" x="40" y="-391.5" font-family="Helvetica,sans-Serif" font-size="10.00">m_errorMessage</text>
<text text-anchor="start" x="15.5" y="-376.5" font-family="Helvetica,sans-Serif" font-size="10.00">+</text>
<text text-anchor="start" x="40" y="-376.5" font-family="Helvetica,sans-Serif" font-size="10.00">BaseConverter()</text>
<text text-anchor="start" x="15.5" y="-361.5" font-family="Helvetica,sans-Serif" font-size="10.00">+</text>
<text text-anchor="start" x="40" y="-361.5" font-family="Helvetica,sans-Serif" font-size="10.00">~BaseConverter()</text>
<text text-anchor="start" x="15.5" y="-346.5" font-family="Helvetica,sans-Serif" font-size="10.00">+</text>
<text text-anchor="start" x="40" y="-346.5" font-family="Helvetica,sans-Serif" font-size="10.00">execute()</text>
<text text-anchor="start" x="15.5" y="-331.5" font-family="Helvetica,sans-Serif" font-size="10.00">+</text>
<text text-anchor="start" x="40" y="-331.5" font-family="Helvetica,sans-Serif" font-size="10.00">errorMessage()</text>
<text text-anchor="start" x="15.5" y="-316.5" font-family="Helvetica,sans-Serif" font-size="10.00">+</text>
<text text-anchor="start" x="40" y="-316.5" font-family="Helvetica,sans-Serif" font-size="10.00">progressUpdated()</text>
<text text-anchor="start" x="15.5" y="-301.5" font-family="Helvetica,sans-Serif" font-size="10.00">+</text>
<text text-anchor="start" x="40" y="-301.5" font-family="Helvetica,sans-Serif" font-size="10.00">conversionFinished()</text>
<text text-anchor="start" x="15.5" y="-286.5" font-family="Helvetica,sans-Serif" font-size="10.00">#</text>
<text text-anchor="start" x="40" y="-286.5" font-family="Helvetica,sans-Serif" font-size="10.00">context()</text>
<text text-anchor="start" x="15.5" y="-271.5" font-family="Helvetica,sans-Serif" font-size="10.00">#</text>
<text text-anchor="start" x="40" y="-271.5" font-family="Helvetica,sans-Serif" font-size="10.00">printer()</text>
<text text-anchor="start" x="15.5" y="-256.5" font-family="Helvetica,sans-Serif" font-size="10.00">#</text>
<text text-anchor="start" x="40" y="-256.5" font-family="Helvetica,sans-Serif" font-size="10.00">setError()</text>
<text text-anchor="start" x="15.5" y="-241.5" font-family="Helvetica,sans-Serif" font-size="10.00">#</text>
<text text-anchor="start" x="40" y="-241.5" font-family="Helvetica,sans-Serif" font-size="10.00">printMessage()</text>
<text text-anchor="start" x="15.5" y="-226.5" font-family="Helvetica,sans-Serif" font-size="10.00">#</text>
<text text-anchor="start" x="40" y="-226.5" font-family="Helvetica,sans-Serif" font-size="10.00">printProgressBar()</text>
<polygon fill="#666666" stroke="#666666" points="0,-431.5 0,-431.5 170,-431.5 170,-431.5 0,-431.5"/>
<polygon fill="#666666" stroke="#666666" points="0,-386.5 0,-386.5 38,-386.5 38,-386.5 0,-386.5"/>
<polygon fill="#666666" stroke="#666666" points="38,-386.5 38,-386.5 170,-386.5 170,-386.5 38,-386.5"/>
<polygon fill="none" stroke="#666666" points="0,-220 0,-449 170,-449 170,-220 0,-220"/>
</a>
</g>
</g>
<!-- Node2&#45;&gt;Node1 -->
<g id="edge1_Node000001_Node000002" class="edge">
<title>Node2&#45;&gt;Node1</title>
<g id="a_edge1_Node000001_Node000002"><a xlink:title=" ">
<path fill="none" stroke="#63b8ff" d="M85,-209.77C85,-201.11 85,-192.47 85,-184.03"/>
<polygon fill="none" stroke="#63b8ff" points="81.5,-209.94 85,-219.94 88.5,-209.94 81.5,-209.94"/>
</a>
</g>
</g>
<!-- Node3 -->
<g id="Node000003" class="node">
<title>Node3</title>
<g id="a_Node000003"><a xlink:title=" ">
<polygon fill="white" stroke="transparent" points="110,-534 60,-534 60,-485 110,-485 110,-534"/>
<text text-anchor="start" x="65" y="-521.5" font-family="Helvetica,sans-Serif" font-size="10.00">QObject</text>
<text text-anchor="start" x="83" y="-506.5" font-family="Helvetica,sans-Serif" font-size="10.00"> </text>
<text text-anchor="start" x="83" y="-491.5" font-family="Helvetica,sans-Serif" font-size="10.00"> </text>
<polygon fill="#666666" stroke="#666666" points="60,-516.5 60,-516.5 110,-516.5 110,-516.5 60,-516.5"/>
<polygon fill="#666666" stroke="#666666" points="60,-501.5 60,-501.5 110,-501.5 110,-501.5 60,-501.5"/>
<polygon fill="none" stroke="#666666" points="60,-485 60,-534 110,-534 110,-485 60,-485"/>
</a>
</g>
</g>
<!-- Node3&#45;&gt;Node2 -->
<g id="edge2_Node000002_Node000003" class="edge">
<title>Node3&#45;&gt;Node2</title>
<g id="a_edge2_Node000002_Node000003"><a xlink:title=" ">
<path fill="none" stroke="#63b8ff" d="M85,-474.77C85,-466.96 85,-458.21 85,-449.01"/>
<polygon fill="none" stroke="#63b8ff" points="81.5,-474.81 85,-484.81 88.5,-474.81 81.5,-474.81"/>
</a>
</g>
</g>
</g>
</svg>
