<?xml version="1.0" encoding="UTF-8" standalone="no"?>
<!DOCTYPE svg PUBLIC "-//W3C//DTD SVG 1.1//EN"
 "http://www.w3.org/Graphics/SVG/1.1/DTD/svg11.dtd">
<!-- Generated by graphviz version 2.43.0 (0)
 -->
<!-- Title: EasyKiConverter::StageHandler Pages: 1 -->
<svg width="172pt" height="187pt"
 viewBox="0.00 0.00 172.00 187.00" xmlns="http://www.w3.org/2000/svg" xmlns:xlink="http://www.w3.org/1999/xlink">
<g id="graph0" class="graph" transform="scale(1 1) rotate(0) translate(4 183)">
<title>EasyKiConverter::StageHandler</title>
<!-- Node1 -->
<g id="Node000001" class="node">
<title>Node1</title>
<g id="a_Node000001"><a xlink:title="流水线阶段处理器基类">
<polygon fill="#999999" stroke="transparent" points="164,-94 0,-94 0,0 164,0 164,-94"/>
<text text-anchor="start" x="5" y="-82" font-family="Helvetica,sans-Serif" font-size="10.00">EasyKiConverter::StageHandler</text>
<text text-anchor="start" x="19" y="-67" font-family="Helvetica,sans-Serif" font-size="10.00">#</text>
<text text-anchor="start" x="47" y="-67" font-family="Helvetica,sans-Serif" font-size="10.00">m_isCancelled</text>
<text text-anchor="start" x="19" y="-52" font-family="Helvetica,sans-Serif" font-size="10.00">+</text>
<text text-anchor="start" x="47" y="-52" font-family="Helvetica,sans-Serif" font-size="10.00">StageHandler()</text>
<text text-anchor="start" x="19" y="-37" font-family="Helvetica,sans-Serif" font-size="10.00">+</text>
<text text-anchor="start" x="47" y="-37" font-family="Helvetica,sans-Serif" font-size="10.00">~StageHandler()</text>
<text text-anchor="start" x="19" y="-22" font-family="Helvetica,sans-Serif" font-size="10.00">+</text>
<text text-anchor="start" x="47" y="-22" font-family="Helvetica,sans-Serif" font-size="10.00">start()</text>
<text text-anchor="start" x="19" y="-7" font-family="Helvetica,sans-Serif" font-size="10.00">+</text>
<text text-anchor="start" x="47" y="-7" font-family="Helvetica,sans-Serif" font-size="10.00">stop()</text>
<polygon fill="#666666" stroke="#666666" points="0,-77 0,-77 164,-77 164,-77 0,-77"/>
<polygon fill="#666666" stroke="#666666" points="0,-62 0,-62 45,-62 45,-62 0,-62"/>
<polygon fill="#666666" stroke="#666666" points="45,-62 45,-62 164,-62 164,-62 45,-62"/>
<polygon fill="none" stroke="#666666" points="0,0 0,-94 164,-94 164,0 0,0"/>
</a>
</g>
</g>
<!-- Node2 -->
<g id="Node000002" class="node">
<title>Node2</title>
<g id="a_Node000002"><a xlink:title=" ">
<polygon fill="white" stroke="transparent" points="107,-179 57,-179 57,-130 107,-130 107,-179"/>
<text text-anchor="start" x="62" y="-166.5" font-family="Helvetica,sans-Serif" font-size="10.00">QObject</text>
<text text-anchor="start" x="80" y="-151.5" font-family="Helvetica,sans-Serif" font-size="10.00"> </text>
<text text-anchor="start" x="80" y="-136.5" font-family="Helvetica,sans-Serif" font-size="10.00"> </text>
<polygon fill="#666666" stroke="#666666" points="57,-161.5 57,-161.5 107,-161.5 107,-161.5 57,-161.5"/>
<polygon fill="#666666" stroke="#666666" points="57,-146.5 57,-146.5 107,-146.5 107,-146.5 57,-146.5"/>
<polygon fill="none" stroke="#666666" points="57,-130 57,-179 107,-179 107,-130 57,-130"/>
</a>
</g>
</g>
<!-- Node2&#45;&gt;Node1 -->
<g id="edge1_Node000001_Node000002" class="edge">
<title>Node2&#45;&gt;Node1</title>
<g id="a_edge1_Node000001_Node000002"><a xlink:title=" ">
<path fill="none" stroke="#63b8ff" d="M82,-119.61C82,-111.48 82,-102.66 82,-94.08"/>
<polygon fill="none" stroke="#63b8ff" points="78.5,-119.82 82,-129.82 85.5,-119.82 78.5,-119.82"/>
</a>
</g>
</g>
</g>
</svg>
