<?xml version="1.0" encoding="UTF-8" standalone="no"?>
<!DOCTYPE svg PUBLIC "-//W3C//DTD SVG 1.1//EN"
 "http://www.w3.org/Graphics/SVG/1.1/DTD/svg11.dtd">
<!-- Generated by graphviz version 2.43.0 (0)
 -->
<!-- Title: EasyKiConverter::ProcessWorker Pages: 1 -->
<svg width="146pt" height="273pt"
 viewBox="0.00 0.00 145.50 273.00" xmlns="http://www.w3.org/2000/svg" xmlns:xlink="http://www.w3.org/1999/xlink">
<g id="graph0" class="graph" transform="scale(1 1) rotate(0) translate(4 269)">
<title>EasyKiConverter::ProcessWorker</title>
<!-- Node1 -->
<g id="Node000001" class="node">
<title>Node1</title>
<g id="a_Node000001"><a xlink:title="处理工作线程">
<polygon fill="#999999" stroke="transparent" points="135,-180 0,-180 0,0 135,0 135,-180"/>
<text text-anchor="start" x="5.5" y="-168" font-family="Helvetica,sans-Serif" font-size="10.00">EasyKiConverter::Process</text>
<text text-anchor="start" x="51" y="-157" font-family="Helvetica,sans-Serif" font-size="10.00">Worker</text>
<text text-anchor="start" x="8" y="-142" font-family="Helvetica,sans-Serif" font-size="10.00">&#45;</text>
<text text-anchor="start" x="19.5" y="-142" font-family="Helvetica,sans-Serif" font-size="10.00">m_status</text>
<text text-anchor="start" x="8" y="-127" font-family="Helvetica,sans-Serif" font-size="10.00">&#45;</text>
<text text-anchor="start" x="19.5" y="-127" font-family="Helvetica,sans-Serif" font-size="10.00">m_isAborted</text>
<text text-anchor="start" x="5.5" y="-112" font-family="Helvetica,sans-Serif" font-size="10.00">+</text>
<text text-anchor="start" x="19.5" y="-112" font-family="Helvetica,sans-Serif" font-size="10.00">ProcessWorker()</text>
<text text-anchor="start" x="5.5" y="-97" font-family="Helvetica,sans-Serif" font-size="10.00">+</text>
<text text-anchor="start" x="19.5" y="-97" font-family="Helvetica,sans-Serif" font-size="10.00">~ProcessWorker()</text>
<text text-anchor="start" x="5.5" y="-82" font-family="Helvetica,sans-Serif" font-size="10.00">+</text>
<text text-anchor="start" x="19.5" y="-82" font-family="Helvetica,sans-Serif" font-size="10.00">run()</text>
<text text-anchor="start" x="5.5" y="-67" font-family="Helvetica,sans-Serif" font-size="10.00">+</text>
<text text-anchor="start" x="19.5" y="-67" font-family="Helvetica,sans-Serif" font-size="10.00">abort()</text>
<text text-anchor="start" x="5.5" y="-52" font-family="Helvetica,sans-Serif" font-size="10.00">+</text>
<text text-anchor="start" x="19.5" y="-52" font-family="Helvetica,sans-Serif" font-size="10.00">processCompleted()</text>
<text text-anchor="start" x="8" y="-37" font-family="Helvetica,sans-Serif" font-size="10.00">&#45;</text>
<text text-anchor="start" x="19.5" y="-37" font-family="Helvetica,sans-Serif" font-size="10.00">parseComponentInfo()</text>
<text text-anchor="start" x="8" y="-22" font-family="Helvetica,sans-Serif" font-size="10.00">&#45;</text>
<text text-anchor="start" x="19.5" y="-22" font-family="Helvetica,sans-Serif" font-size="10.00">parseCadData()</text>
<text text-anchor="start" x="8" y="-7" font-family="Helvetica,sans-Serif" font-size="10.00">&#45;</text>
<text text-anchor="start" x="19.5" y="-7" font-family="Helvetica,sans-Serif" font-size="10.00">parse3DModelData()</text>
<polygon fill="#666666" stroke="#666666" points="0.5,-152 0.5,-152 135.5,-152 135.5,-152 0.5,-152"/>
<polygon fill="#666666" stroke="#666666" points="0.5,-122 0.5,-122 17.5,-122 17.5,-122 0.5,-122"/>
<polygon fill="#666666" stroke="#666666" points="17.5,-122 17.5,-122 135.5,-122 135.5,-122 17.5,-122"/>
<polygon fill="none" stroke="#666666" points="0,0 0,-180 135,-180 135,0 0,0"/>
</a>
</g>
</g>
<!-- Node2 -->
<g id="Node000002" class="node">
<title>Node2</title>
<g id="a_Node000002"><a xlink:title=" ">
<polygon fill="white" stroke="transparent" points="55.5,-265 5.5,-265 5.5,-216 55.5,-216 55.5,-265"/>
<text text-anchor="start" x="10.5" y="-252.5" font-family="Helvetica,sans-Serif" font-size="10.00">QObject</text>
<text text-anchor="start" x="28.5" y="-237.5" font-family="Helvetica,sans-Serif" font-size="10.00"> </text>
<text text-anchor="start" x="28.5" y="-222.5" font-family="Helvetica,sans-Serif" font-size="10.00"> </text>
<polygon fill="#666666" stroke="#666666" points="5.5,-247.5 5.5,-247.5 55.5,-247.5 55.5,-247.5 5.5,-247.5"/>
<polygon fill="#666666" stroke="#666666" points="5.5,-232.5 5.5,-232.5 55.5,-232.5 55.5,-232.5 5.5,-232.5"/>
<polygon fill="none" stroke="#666666" points="5.5,-216 5.5,-265 55.5,-265 55.5,-216 5.5,-216"/>
</a>
</g>
</g>
<!-- Node2&#45;&gt;Node1 -->
<g id="edge1_Node000001_Node000002" class="edge">
<title>Node2&#45;&gt;Node1</title>
<g id="a_edge1_Node000001_Node000002"><a xlink:title=" ">
<path fill="none" stroke="#63b8ff" d="M38.83,-206.08C40.81,-198.11 43.02,-189.24 45.31,-180.06"/>
<polygon fill="none" stroke="#63b8ff" points="35.38,-205.42 36.36,-215.97 42.18,-207.11 35.38,-205.42"/>
</a>
</g>
</g>
<!-- Node3 -->
<g id="Node000003" class="node">
<title>Node3</title>
<g id="a_Node000003"><a xlink:title=" ">
<polygon fill="white" stroke="transparent" points="137.5,-265 73.5,-265 73.5,-216 137.5,-216 137.5,-265"/>
<text text-anchor="start" x="78.5" y="-252.5" font-family="Helvetica,sans-Serif" font-size="10.00">QRunnable</text>
<text text-anchor="start" x="103.5" y="-237.5" font-family="Helvetica,sans-Serif" font-size="10.00"> </text>
<text text-anchor="start" x="103.5" y="-222.5" font-family="Helvetica,sans-Serif" font-size="10.00"> </text>
<polygon fill="#666666" stroke="#666666" points="73.5,-247.5 73.5,-247.5 137.5,-247.5 137.5,-247.5 73.5,-247.5"/>
<polygon fill="#666666" stroke="#666666" points="73.5,-232.5 73.5,-232.5 137.5,-232.5 137.5,-232.5 73.5,-232.5"/>
<polygon fill="none" stroke="#666666" points="73.5,-216 73.5,-265 137.5,-265 137.5,-216 73.5,-216"/>
</a>
</g>
</g>
<!-- Node3&#45;&gt;Node1 -->
<g id="edge2_Node000001_Node000003" class="edge">
<title>Node3&#45;&gt;Node1</title>
<g id="a_edge2_Node000001_Node000003"><a xlink:title=" ">
<path fill="none" stroke="#63b8ff" d="M96.95,-206.08C94.91,-198.11 92.64,-189.24 90.29,-180.06"/>
<polygon fill="none" stroke="#63b8ff" points="93.61,-207.15 99.48,-215.97 100.39,-205.41 93.61,-207.15"/>
</a>
</g>
</g>
</g>
</svg>
