<?xml version="1.0" encoding="UTF-8" standalone="no"?>
<!DOCTYPE svg PUBLIC "-//W3C//DTD SVG 1.1//EN"
 "http://www.w3.org/Graphics/SVG/1.1/DTD/svg11.dtd">
<!-- Generated by graphviz version 2.43.0 (0)
 -->
<!-- Title: EasyKiConverter::FetchWorker Pages: 1 -->
<svg width="193pt" height="587pt"
 viewBox="0.00 0.00 193.00 587.00" xmlns="http://www.w3.org/2000/svg" xmlns:xlink="http://www.w3.org/1999/xlink">
<g id="graph0" class="graph" transform="scale(1 1) rotate(0) translate(4 583)">
<title>EasyKiConverter::FetchWorker</title>
<!-- Node1 -->
<g id="Node000001" class="node">
<title>Node1</title>
<g id="a_Node000001"><a xlink:title="抓取工作线程">
<polygon fill="#999999" stroke="transparent" points="185,-394 0,-394 0,0 185,0 185,-394"/>
<text text-anchor="start" x="19" y="-382" font-family="Helvetica,sans-Serif" font-size="10.00">EasyKiConverter::FetchWorker</text>
<text text-anchor="start" x="7" y="-367" font-family="Helvetica,sans-Serif" font-size="10.00">&#45;</text>
<text text-anchor="start" x="17.5" y="-367" font-family="Helvetica,sans-Serif" font-size="10.00">m_componentId</text>
<text text-anchor="start" x="7" y="-352" font-family="Helvetica,sans-Serif" font-size="10.00">&#45;</text>
<text text-anchor="start" x="17.5" y="-352" font-family="Helvetica,sans-Serif" font-size="10.00">m_need3DModel</text>
<text text-anchor="start" x="7" y="-337" font-family="Helvetica,sans-Serif" font-size="10.00">&#45;</text>
<text text-anchor="start" x="17.5" y="-337" font-family="Helvetica,sans-Serif" font-size="10.00">m_fetch3DOnly</text>
<text text-anchor="start" x="7" y="-322" font-family="Helvetica,sans-Serif" font-size="10.00">&#45;</text>
<text text-anchor="start" x="17.5" y="-322" font-family="Helvetica,sans-Serif" font-size="10.00">m_existing3DUuid</text>
<text text-anchor="start" x="7" y="-307" font-family="Helvetica,sans-Serif" font-size="10.00">&#45;</text>
<text text-anchor="start" x="17.5" y="-307" font-family="Helvetica,sans-Serif" font-size="10.00">m_networkClient</text>
<text text-anchor="start" x="7" y="-292" font-family="Helvetica,sans-Serif" font-size="10.00">&#45;</text>
<text text-anchor="start" x="17.5" y="-292" font-family="Helvetica,sans-Serif" font-size="10.00">m_currentRequest</text>
<text text-anchor="start" x="7" y="-277" font-family="Helvetica,sans-Serif" font-size="10.00">&#45;</text>
<text text-anchor="start" x="17.5" y="-277" font-family="Helvetica,sans-Serif" font-size="10.00">m_replyMutex</text>
<text text-anchor="start" x="7" y="-262" font-family="Helvetica,sans-Serif" font-size="10.00">&#45;</text>
<text text-anchor="start" x="17.5" y="-262" font-family="Helvetica,sans-Serif" font-size="10.00">m_isAborted</text>
<text text-anchor="start" x="7" y="-247" font-family="Helvetica,sans-Serif" font-size="10.00">&#45;</text>
<text text-anchor="start" x="17.5" y="-247" font-family="Helvetica,sans-Serif" font-size="10.00">COMPONENT_INFO_TIMEOUT_MS</text>
<text text-anchor="start" x="7" y="-232" font-family="Helvetica,sans-Serif" font-size="10.00">&#45;</text>
<text text-anchor="start" x="17.5" y="-232" font-family="Helvetica,sans-Serif" font-size="10.00">MODEL_3D_TIMEOUT_MS</text>
<text text-anchor="start" x="7" y="-217" font-family="Helvetica,sans-Serif" font-size="10.00">&#45;</text>
<text text-anchor="start" x="17.5" y="-217" font-family="Helvetica,sans-Serif" font-size="10.00">MAX_HTTP_RETRIES</text>
<text text-anchor="start" x="7" y="-202" font-family="Helvetica,sans-Serif" font-size="10.00">&#45;</text>
<text text-anchor="start" x="17.5" y="-202" font-family="Helvetica,sans-Serif" font-size="10.00">RETRY_DELAYS_MS</text>
<text text-anchor="start" x="7" y="-187" font-family="Helvetica,sans-Serif" font-size="10.00">&#45;</text>
<text text-anchor="start" x="17.5" y="-187" font-family="Helvetica,sans-Serif" font-size="10.00">s_activeRequests</text>
<text text-anchor="start" x="7" y="-172" font-family="Helvetica,sans-Serif" font-size="10.00">&#45;</text>
<text text-anchor="start" x="17.5" y="-172" font-family="Helvetica,sans-Serif" font-size="10.00">s_rateLimitMutex</text>
<text text-anchor="start" x="7" y="-157" font-family="Helvetica,sans-Serif" font-size="10.00">&#45;</text>
<text text-anchor="start" x="17.5" y="-157" font-family="Helvetica,sans-Serif" font-size="10.00">s_lastRateLimitTime</text>
<text text-anchor="start" x="7" y="-142" font-family="Helvetica,sans-Serif" font-size="10.00">&#45;</text>
<text text-anchor="start" x="17.5" y="-142" font-family="Helvetica,sans-Serif" font-size="10.00">s_backoffMs</text>
<text text-anchor="start" x="4.5" y="-127" font-family="Helvetica,sans-Serif" font-size="10.00">+</text>
<text text-anchor="start" x="17.5" y="-127" font-family="Helvetica,sans-Serif" font-size="10.00">FetchWorker()</text>
<text text-anchor="start" x="4.5" y="-112" font-family="Helvetica,sans-Serif" font-size="10.00">+</text>
<text text-anchor="start" x="17.5" y="-112" font-family="Helvetica,sans-Serif" font-size="10.00">~FetchWorker()</text>
<text text-anchor="start" x="4.5" y="-97" font-family="Helvetica,sans-Serif" font-size="10.00">+</text>
<text text-anchor="start" x="17.5" y="-97" font-family="Helvetica,sans-Serif" font-size="10.00">run()</text>
<text text-anchor="start" x="4.5" y="-82" font-family="Helvetica,sans-Serif" font-size="10.00">+</text>
<text text-anchor="start" x="17.5" y="-82" font-family="Helvetica,sans-Serif" font-size="10.00">abort()</text>
<text text-anchor="start" x="4.5" y="-67" font-family="Helvetica,sans-Serif" font-size="10.00">+</text>
<text text-anchor="start" x="17.5" y="-67" font-family="Helvetica,sans-Serif" font-size="10.00">fetchCompleted()</text>
<text text-anchor="start" x="7" y="-52" font-family="Helvetica,sans-Serif" font-size="10.00">&#45;</text>
<text text-anchor="start" x="17.5" y="-52" font-family="Helvetica,sans-Serif" font-size="10.00">httpGet()</text>
<text text-anchor="start" x="7" y="-37" font-family="Helvetica,sans-Serif" font-size="10.00">&#45;</text>
<text text-anchor="start" x="17.5" y="-37" font-family="Helvetica,sans-Serif" font-size="10.00">decompressZip()</text>
<text text-anchor="start" x="7" y="-22" font-family="Helvetica,sans-Serif" font-size="10.00">&#45;</text>
<text text-anchor="start" x="17.5" y="-22" font-family="Helvetica,sans-Serif" font-size="10.00">fetch3DModelData()</text>
<text text-anchor="start" x="7" y="-7" font-family="Helvetica,sans-Serif" font-size="10.00">&#45;</text>
<text text-anchor="start" x="17.5" y="-7" font-family="Helvetica,sans-Serif" font-size="10.00">calculateRetryDelay()</text>
<polygon fill="#666666" stroke="#666666" points="0.5,-377 0.5,-377 185.5,-377 185.5,-377 0.5,-377"/>
<polygon fill="#666666" stroke="#666666" points="0.5,-137 0.5,-137 15.5,-137 15.5,-137 0.5,-137"/>
<polygon fill="#666666" stroke="#666666" points="15.5,-137 15.5,-137 185.5,-137 185.5,-137 15.5,-137"/>
<polygon fill="none" stroke="#666666" points="0,0 0,-394 185,-394 185,0 0,0"/>
</a>
</g>
</g>
<!-- Node2 -->
<g id="Node000002" class="node">
<title>Node2</title>
<g id="a_Node000002"><a xlink:href="classEasyKiConverter_1_1BaseWorker.html" target="_top" xlink:title="Base class for all workers with unified lifecycle management">
<polygon fill="white" stroke="transparent" points="170,-494 15,-494 15,-430 170,-430 170,-494"/>
<text text-anchor="start" x="20.5" y="-482" font-family="Helvetica,sans-Serif" font-size="10.00">EasyKiConverter::BaseWorker</text>
<text text-anchor="start" x="91" y="-467" font-family="Helvetica,sans-Serif" font-size="10.00"> </text>
<text text-anchor="start" x="34.5" y="-452" font-family="Helvetica,sans-Serif" font-size="10.00">+</text>
<text text-anchor="start" x="62.5" y="-452" font-family="Helvetica,sans-Serif" font-size="10.00">~BaseWorker()</text>
<text text-anchor="start" x="34.5" y="-437" font-family="Helvetica,sans-Serif" font-size="10.00">#</text>
<text text-anchor="start" x="62.5" y="-437" font-family="Helvetica,sans-Serif" font-size="10.00">BaseWorker()</text>
<polygon fill="#666666" stroke="#666666" points="15.5,-477 15.5,-477 170.5,-477 170.5,-477 15.5,-477"/>
<polygon fill="#666666" stroke="#666666" points="15.5,-462 15.5,-462 170.5,-462 170.5,-462 15.5,-462"/>
<polygon fill="none" stroke="#666666" points="15,-430 15,-494 170,-494 170,-430 15,-430"/>
</a>
</g>
</g>
<!-- Node2&#45;&gt;Node1 -->
<g id="edge1_Node000001_Node000002" class="edge">
<title>Node2&#45;&gt;Node1</title>
<g id="a_edge1_Node000001_Node000002"><a xlink:title=" ">
<path fill="none" stroke="#63b8ff" d="M92.5,-419.67C92.5,-411.86 92.5,-403.22 92.5,-394.03"/>
<polygon fill="none" stroke="#63b8ff" points="89,-419.8 92.5,-429.8 96,-419.8 89,-419.8"/>
</a>
</g>
</g>
<!-- Node3 -->
<g id="Node000003" class="node">
<title>Node3</title>
<g id="a_Node000003"><a xlink:title=" ">
<polygon fill="white" stroke="transparent" points="80.5,-579 30.5,-579 30.5,-530 80.5,-530 80.5,-579"/>
<text text-anchor="start" x="35.5" y="-566.5" font-family="Helvetica,sans-Serif" font-size="10.00">QObject</text>
<text text-anchor="start" x="53.5" y="-551.5" font-family="Helvetica,sans-Serif" font-size="10.00"> </text>
<text text-anchor="start" x="53.5" y="-536.5" font-family="Helvetica,sans-Serif" font-size="10.00"> </text>
<polygon fill="#666666" stroke="#666666" points="30.5,-561.5 30.5,-561.5 80.5,-561.5 80.5,-561.5 30.5,-561.5"/>
<polygon fill="#666666" stroke="#666666" points="30.5,-546.5 30.5,-546.5 80.5,-546.5 80.5,-546.5 30.5,-546.5"/>
<polygon fill="none" stroke="#666666" points="30.5,-530 30.5,-579 80.5,-579 80.5,-530 30.5,-530"/>
</a>
</g>
</g>
<!-- Node3&#45;&gt;Node2 -->
<g id="edge2_Node000002_Node000003" class="edge">
<title>Node3&#45;&gt;Node2</title>
<g id="a_edge2_Node000002_Node000003"><a xlink:title=" ">
<path fill="none" stroke="#63b8ff" d="M69.04,-520.37C72.55,-511.79 76.32,-502.59 79.78,-494.11"/>
<polygon fill="none" stroke="#63b8ff" points="65.77,-519.14 65.22,-529.72 72.25,-521.79 65.77,-519.14"/>
</a>
</g>
</g>
<!-- Node4 -->
<g id="Node000004" class="node">
<title>Node4</title>
<g id="a_Node000004"><a xlink:title=" ">
<polygon fill="white" stroke="transparent" points="162.5,-579 98.5,-579 98.5,-530 162.5,-530 162.5,-579"/>
<text text-anchor="start" x="103.5" y="-566.5" font-family="Helvetica,sans-Serif" font-size="10.00">QRunnable</text>
<text text-anchor="start" x="128.5" y="-551.5" font-family="Helvetica,sans-Serif" font-size="10.00"> </text>
<text text-anchor="start" x="128.5" y="-536.5" font-family="Helvetica,sans-Serif" font-size="10.00"> </text>
<polygon fill="#666666" stroke="#666666" points="98.5,-561.5 98.5,-561.5 162.5,-561.5 162.5,-561.5 98.5,-561.5"/>
<polygon fill="#666666" stroke="#666666" points="98.5,-546.5 98.5,-546.5 162.5,-546.5 162.5,-546.5 98.5,-546.5"/>
<polygon fill="none" stroke="#666666" points="98.5,-530 98.5,-579 162.5,-579 162.5,-530 98.5,-530"/>
</a>
</g>
</g>
<!-- Node4&#45;&gt;Node2 -->
<g id="edge3_Node000002_Node000004" class="edge">
<title>Node4&#45;&gt;Node2</title>
<g id="a_edge3_Node000002_Node000004"><a xlink:title=" ">
<path fill="none" stroke="#63b8ff" d="M116.59,-520.37C112.99,-511.79 109.12,-502.59 105.56,-494.11"/>
<polygon fill="none" stroke="#63b8ff" points="113.42,-521.86 120.52,-529.72 119.87,-519.15 113.42,-521.86"/>
</a>
</g>
</g>
</g>
</svg>
