<?xml version="1.0" encoding="UTF-8" standalone="no"?>
<!DOCTYPE svg PUBLIC "-//W3C//DTD SVG 1.1//EN"
 "http://www.w3.org/Graphics/SVG/1.1/DTD/svg11.dtd">
<!-- Generated by graphviz version 2.43.0 (0)
 -->
<!-- Title: EasyKiConverter::Model3DExportStage Pages: 1 -->
<svg width="181pt" height="789pt"
 viewBox="0.00 0.00 181.00 789.00" xmlns="http://www.w3.org/2000/svg" xmlns:xlink="http://www.w3.org/1999/xlink">
<g id="graph0" class="graph" transform="scale(1 1) rotate(0) translate(4 785)">
<title>EasyKiConverter::Model3DExportStage</title>
<!-- Node1 -->
<g id="Node000001" class="node">
<title>Node1</title>
<g id="a_Node000001"><a xlink:title="3D模型导出阶段">
<polygon fill="#999999" stroke="transparent" points="173,-180 0,-180 0,0 173,0 173,-180"/>
<text text-anchor="start" x="5.5" y="-168" font-family="Helvetica,sans-Serif" font-size="10.00">EasyKiConverter::Model3DExport</text>
<text text-anchor="start" x="73" y="-157" font-family="Helvetica,sans-Serif" font-size="10.00">Stage</text>
<text text-anchor="start" x="15" y="-142" font-family="Helvetica,sans-Serif" font-size="10.00">&#45;</text>
<text text-anchor="start" x="33.5" y="-142" font-family="Helvetica,sans-Serif" font-size="10.00">m_options</text>
<text text-anchor="start" x="15" y="-127" font-family="Helvetica,sans-Serif" font-size="10.00">&#45;</text>
<text text-anchor="start" x="33.5" y="-127" font-family="Helvetica,sans-Serif" font-size="10.00">m_tempManager</text>
<text text-anchor="start" x="15" y="-112" font-family="Helvetica,sans-Serif" font-size="10.00">&#45;</text>
<text text-anchor="start" x="33.5" y="-112" font-family="Helvetica,sans-Serif" font-size="10.00">m_componentPaths</text>
<text text-anchor="start" x="12.5" y="-97" font-family="Helvetica,sans-Serif" font-size="10.00">+</text>
<text text-anchor="start" x="33.5" y="-97" font-family="Helvetica,sans-Serif" font-size="10.00">Model3DExportStage()</text>
<text text-anchor="start" x="12.5" y="-82" font-family="Helvetica,sans-Serif" font-size="10.00">+</text>
<text text-anchor="start" x="33.5" y="-82" font-family="Helvetica,sans-Serif" font-size="10.00">~Model3DExportStage()</text>
<text text-anchor="start" x="12.5" y="-67" font-family="Helvetica,sans-Serif" font-size="10.00">+</text>
<text text-anchor="start" x="33.5" y="-67" font-family="Helvetica,sans-Serif" font-size="10.00">setOptions()</text>
<text text-anchor="start" x="12.5" y="-52" font-family="Helvetica,sans-Serif" font-size="10.00">+</text>
<text text-anchor="start" x="33.5" y="-52" font-family="Helvetica,sans-Serif" font-size="10.00">start()</text>
<text text-anchor="start" x="12.5" y="-37" font-family="Helvetica,sans-Serif" font-size="10.00">+</text>
<text text-anchor="start" x="33.5" y="-37" font-family="Helvetica,sans-Serif" font-size="10.00">cancel()</text>
<text text-anchor="start" x="12.5" y="-22" font-family="Helvetica,sans-Serif" font-size="10.00">#</text>
<text text-anchor="start" x="33.5" y="-22" font-family="Helvetica,sans-Serif" font-size="10.00">createWorker()</text>
<text text-anchor="start" x="12.5" y="-7" font-family="Helvetica,sans-Serif" font-size="10.00">#</text>
<text text-anchor="start" x="33.5" y="-7" font-family="Helvetica,sans-Serif" font-size="10.00">startWorker()</text>
<polygon fill="#666666" stroke="#666666" points="0.5,-152 0.5,-152 173.5,-152 173.5,-152 0.5,-152"/>
<polygon fill="#666666" stroke="#666666" points="0.5,-107 0.5,-107 31.5,-107 31.5,-107 0.5,-107"/>
<polygon fill="#666666" stroke="#666666" points="31.5,-107 31.5,-107 173.5,-107 173.5,-107 31.5,-107"/>
<polygon fill="none" stroke="#666666" points="0,0 0,-180 173,-180 173,0 0,0"/>
</a>
</g>
</g>
<!-- Node2 -->
<g id="Node000002" class="node">
<title>Node2</title>
<g id="a_Node000002"><a xlink:href="classEasyKiConverter_1_1ExportTypeStage.html" target="_top" xlink:title="导出类型阶段基类">
<polygon fill="white" stroke="transparent" points="162.5,-696 10.5,-696 10.5,-216 162.5,-216 162.5,-696"/>
<text text-anchor="start" x="15.5" y="-684" font-family="Helvetica,sans-Serif" font-size="10.00">EasyKiConverter::ExportType</text>
<text text-anchor="start" x="72.5" y="-673" font-family="Helvetica,sans-Serif" font-size="10.00">Stage</text>
<text text-anchor="start" x="17.5" y="-658" font-family="Helvetica,sans-Serif" font-size="10.00">+</text>
<text text-anchor="start" x="33.5" y="-658" font-family="Helvetica,sans-Serif" font-size="10.00">m_typeName</text>
<text text-anchor="start" x="17.5" y="-643" font-family="Helvetica,sans-Serif" font-size="10.00">+</text>
<text text-anchor="start" x="33.5" y="-643" font-family="Helvetica,sans-Serif" font-size="10.00">m_threadPool</text>
<text text-anchor="start" x="17.5" y="-628" font-family="Helvetica,sans-Serif" font-size="10.00">+</text>
<text text-anchor="start" x="33.5" y="-628" font-family="Helvetica,sans-Serif" font-size="10.00">m_isRunning</text>
<text text-anchor="start" x="17.5" y="-613" font-family="Helvetica,sans-Serif" font-size="10.00">+</text>
<text text-anchor="start" x="33.5" y="-613" font-family="Helvetica,sans-Serif" font-size="10.00">m_cancelled</text>
<text text-anchor="start" x="17.5" y="-598" font-family="Helvetica,sans-Serif" font-size="10.00">+</text>
<text text-anchor="start" x="33.5" y="-598" font-family="Helvetica,sans-Serif" font-size="10.00">m_isExporting</text>
<text text-anchor="start" x="17.5" y="-583" font-family="Helvetica,sans-Serif" font-size="10.00">+</text>
<text text-anchor="start" x="33.5" y="-583" font-family="Helvetica,sans-Serif" font-size="10.00">m_componentIds</text>
<text text-anchor="start" x="17.5" y="-568" font-family="Helvetica,sans-Serif" font-size="10.00">+</text>
<text text-anchor="start" x="33.5" y="-568" font-family="Helvetica,sans-Serif" font-size="10.00">m_cachedData</text>
<text text-anchor="start" x="17.5" y="-553" font-family="Helvetica,sans-Serif" font-size="10.00">+</text>
<text text-anchor="start" x="33.5" y="-553" font-family="Helvetica,sans-Serif" font-size="10.00">m_progressMutex</text>
<text text-anchor="start" x="17.5" y="-538" font-family="Helvetica,sans-Serif" font-size="10.00">+</text>
<text text-anchor="start" x="33.5" y="-538" font-family="Helvetica,sans-Serif" font-size="10.00">m_progress</text>
<text text-anchor="start" x="17.5" y="-523" font-family="Helvetica,sans-Serif" font-size="10.00">+</text>
<text text-anchor="start" x="33.5" y="-523" font-family="Helvetica,sans-Serif" font-size="10.00">m_workerMutex</text>
<text text-anchor="start" x="17.5" y="-508" font-family="Helvetica,sans-Serif" font-size="10.00">+</text>
<text text-anchor="start" x="33.5" y="-508" font-family="Helvetica,sans-Serif" font-size="10.00">m_activeWorkers</text>
<text text-anchor="start" x="17.5" y="-493" font-family="Helvetica,sans-Serif" font-size="10.00">+</text>
<text text-anchor="start" x="33.5" y="-493" font-family="Helvetica,sans-Serif" font-size="10.00">m_pendingComponents</text>
<text text-anchor="start" x="17.5" y="-478" font-family="Helvetica,sans-Serif" font-size="10.00">+</text>
<text text-anchor="start" x="33.5" y="-478" font-family="Helvetica,sans-Serif" font-size="10.00">ExportTypeStage()</text>
<text text-anchor="start" x="17.5" y="-463" font-family="Helvetica,sans-Serif" font-size="10.00">+</text>
<text text-anchor="start" x="33.5" y="-463" font-family="Helvetica,sans-Serif" font-size="10.00">~ExportTypeStage()</text>
<text text-anchor="start" x="17.5" y="-448" font-family="Helvetica,sans-Serif" font-size="10.00">+</text>
<text text-anchor="start" x="33.5" y="-448" font-family="Helvetica,sans-Serif" font-size="10.00">start()</text>
<text text-anchor="start" x="17.5" y="-433" font-family="Helvetica,sans-Serif" font-size="10.00">+</text>
<text text-anchor="start" x="33.5" y="-433" font-family="Helvetica,sans-Serif" font-size="10.00">cancel()</text>
<text text-anchor="start" x="17.5" y="-418" font-family="Helvetica,sans-Serif" font-size="10.00">+</text>
<text text-anchor="start" x="33.5" y="-418" font-family="Helvetica,sans-Serif" font-size="10.00">waitForFinished()</text>
<text text-anchor="start" x="17.5" y="-403" font-family="Helvetica,sans-Serif" font-size="10.00">+</text>
<text text-anchor="start" x="33.5" y="-403" font-family="Helvetica,sans-Serif" font-size="10.00">getProgress()</text>
<text text-anchor="start" x="17.5" y="-388" font-family="Helvetica,sans-Serif" font-size="10.00">+</text>
<text text-anchor="start" x="33.5" y="-388" font-family="Helvetica,sans-Serif" font-size="10.00">isRunning()</text>
<text text-anchor="start" x="17.5" y="-373" font-family="Helvetica,sans-Serif" font-size="10.00">+</text>
<text text-anchor="start" x="33.5" y="-373" font-family="Helvetica,sans-Serif" font-size="10.00">hasActiveWorkers()</text>
<text text-anchor="start" x="17.5" y="-358" font-family="Helvetica,sans-Serif" font-size="10.00">+</text>
<text text-anchor="start" x="33.5" y="-358" font-family="Helvetica,sans-Serif" font-size="10.00">typeName()</text>
<text text-anchor="start" x="17.5" y="-343" font-family="Helvetica,sans-Serif" font-size="10.00">+</text>
<text text-anchor="start" x="33.5" y="-343" font-family="Helvetica,sans-Serif" font-size="10.00">progressChanged()</text>
<text text-anchor="start" x="17.5" y="-328" font-family="Helvetica,sans-Serif" font-size="10.00">+</text>
<text text-anchor="start" x="33.5" y="-328" font-family="Helvetica,sans-Serif" font-size="10.00">itemStatusChanged()</text>
<text text-anchor="start" x="17.5" y="-313" font-family="Helvetica,sans-Serif" font-size="10.00">+</text>
<text text-anchor="start" x="33.5" y="-313" font-family="Helvetica,sans-Serif" font-size="10.00">completed()</text>
<text text-anchor="start" x="17.5" y="-298" font-family="Helvetica,sans-Serif" font-size="10.00">+</text>
<text text-anchor="start" x="33.5" y="-298" font-family="Helvetica,sans-Serif" font-size="10.00">completeItemProgress()</text>
<text text-anchor="start" x="17.5" y="-283" font-family="Helvetica,sans-Serif" font-size="10.00">#</text>
<text text-anchor="start" x="33.5" y="-283" font-family="Helvetica,sans-Serif" font-size="10.00">createWorker()</text>
<text text-anchor="start" x="17.5" y="-268" font-family="Helvetica,sans-Serif" font-size="10.00">#</text>
<text text-anchor="start" x="33.5" y="-268" font-family="Helvetica,sans-Serif" font-size="10.00">startWorker()</text>
<text text-anchor="start" x="17.5" y="-253" font-family="Helvetica,sans-Serif" font-size="10.00">#</text>
<text text-anchor="start" x="33.5" y="-253" font-family="Helvetica,sans-Serif" font-size="10.00">startNextWorker()</text>
<text text-anchor="start" x="17.5" y="-238" font-family="Helvetica,sans-Serif" font-size="10.00">#</text>
<text text-anchor="start" x="33.5" y="-238" font-family="Helvetica,sans-Serif" font-size="10.00">waitForWorkerThread()</text>
<text text-anchor="start" x="17.5" y="-223" font-family="Helvetica,sans-Serif" font-size="10.00">#</text>
<text text-anchor="start" x="33.5" y="-223" font-family="Helvetica,sans-Serif" font-size="10.00">initItemProgress()</text>
<polygon fill="#666666" stroke="#666666" points="10.5,-668 10.5,-668 162.5,-668 162.5,-668 10.5,-668"/>
<polygon fill="#666666" stroke="#666666" points="10.5,-488 10.5,-488 31.5,-488 31.5,-488 10.5,-488"/>
<polygon fill="#666666" stroke="#666666" points="31.5,-488 31.5,-488 162.5,-488 162.5,-488 31.5,-488"/>
<polygon fill="none" stroke="#666666" points="10.5,-216 10.5,-696 162.5,-696 162.5,-216 10.5,-216"/>
</a>
</g>
</g>
<!-- Node2&#45;&gt;Node1 -->
<g id="edge1_Node000001_Node000002" class="edge">
<title>Node2&#45;&gt;Node1</title>
<g id="a_edge1_Node000001_Node000002"><a xlink:title=" ">
<path fill="none" stroke="#63b8ff" d="M86.5,-205.49C86.5,-196.83 86.5,-188.41 86.5,-180.32"/>
<polygon fill="none" stroke="#63b8ff" points="83,-205.76 86.5,-215.76 90,-205.76 83,-205.76"/>
</a>
</g>
</g>
<!-- Node3 -->
<g id="Node000003" class="node">
<title>Node3</title>
<g id="a_Node000003"><a xlink:title=" ">
<polygon fill="white" stroke="transparent" points="111.5,-781 61.5,-781 61.5,-732 111.5,-732 111.5,-781"/>
<text text-anchor="start" x="66.5" y="-768.5" font-family="Helvetica,sans-Serif" font-size="10.00">QObject</text>
<text text-anchor="start" x="84.5" y="-753.5" font-family="Helvetica,sans-Serif" font-size="10.00"> </text>
<text text-anchor="start" x="84.5" y="-738.5" font-family="Helvetica,sans-Serif" font-size="10.00"> </text>
<polygon fill="#666666" stroke="#666666" points="61.5,-763.5 61.5,-763.5 111.5,-763.5 111.5,-763.5 61.5,-763.5"/>
<polygon fill="#666666" stroke="#666666" points="61.5,-748.5 61.5,-748.5 111.5,-748.5 111.5,-748.5 61.5,-748.5"/>
<polygon fill="none" stroke="#666666" points="61.5,-732 61.5,-781 111.5,-781 111.5,-732 61.5,-732"/>
</a>
</g>
</g>
<!-- Node3&#45;&gt;Node2 -->
<g id="edge2_Node000002_Node000003" class="edge">
<title>Node3&#45;&gt;Node2</title>
<g id="a_edge2_Node000002_Node000003"><a xlink:title=" ">
<path fill="none" stroke="#63b8ff" d="M86.5,-721.81C86.5,-714.22 86.5,-705.61 86.5,-696.24"/>
<polygon fill="none" stroke="#63b8ff" points="83,-721.83 86.5,-731.83 90,-721.83 83,-721.83"/>
</a>
</g>
</g>
</g>
</svg>
