<?xml version="1.0" encoding="UTF-8" standalone="no"?>
<!DOCTYPE svg PUBLIC "-//W3C//DTD SVG 1.1//EN"
 "http://www.w3.org/Graphics/SVG/1.1/DTD/svg11.dtd">
<!-- Generated by graphviz version 2.43.0 (0)
 -->
<!-- Title: EasyKiConverter::ComponentDataCollector Pages: 1 -->
<svg width="583pt" height="1396pt"
 viewBox="0.00 0.00 583.17 1396.00" xmlns="http://www.w3.org/2000/svg" xmlns:xlink="http://www.w3.org/1999/xlink">
<g id="graph0" class="graph" transform="scale(1 1) rotate(0) translate(4 1392)">
<title>EasyKiConverter::ComponentDataCollector</title>
<!-- Node1 -->
<g id="Node000001" class="node">
<title>Node1</title>
<g id="a_Node000001"><a xlink:title="元件数据收集器类">
<polygon fill="#999999" stroke="transparent" points="371.17,-405 196.17,-405 196.17,0 371.17,0 371.17,-405"/>
<text text-anchor="start" x="212.17" y="-392.5" font-family="Helvetica,sans-Serif" font-size="10.00">EasyKiConverter::Component</text>
<text text-anchor="start" x="250.67" y="-381.5" font-family="Helvetica,sans-Serif" font-size="10.00">DataCollector</text>
<text text-anchor="start" x="203.17" y="-366.5" font-family="Helvetica,sans-Serif" font-size="10.00">&#45;</text>
<text text-anchor="start" x="213.67" y="-366.5" font-family="Helvetica,sans-Serif" font-size="10.00">m_componentId</text>
<text text-anchor="start" x="203.17" y="-351.5" font-family="Helvetica,sans-Serif" font-size="10.00">&#45;</text>
<text text-anchor="start" x="213.67" y="-351.5" font-family="Helvetica,sans-Serif" font-size="10.00">m_state</text>
<text text-anchor="start" x="203.17" y="-336.5" font-family="Helvetica,sans-Serif" font-size="10.00">&#45;</text>
<text text-anchor="start" x="213.67" y="-336.5" font-family="Helvetica,sans-Serif" font-size="10.00">m_errorMessage</text>
<text text-anchor="start" x="203.17" y="-321.5" font-family="Helvetica,sans-Serif" font-size="10.00">&#45;</text>
<text text-anchor="start" x="213.67" y="-321.5" font-family="Helvetica,sans-Serif" font-size="10.00">m_export3DModel</text>
<text text-anchor="start" x="203.17" y="-306.5" font-family="Helvetica,sans-Serif" font-size="10.00">&#45;</text>
<text text-anchor="start" x="213.67" y="-306.5" font-family="Helvetica,sans-Serif" font-size="10.00">m_isCancelled</text>
<text text-anchor="start" x="200.67" y="-291.5" font-family="Helvetica,sans-Serif" font-size="10.00">+</text>
<text text-anchor="start" x="213.67" y="-291.5" font-family="Helvetica,sans-Serif" font-size="10.00">ComponentDataCollector()</text>
<text text-anchor="start" x="200.67" y="-276.5" font-family="Helvetica,sans-Serif" font-size="10.00">+</text>
<text text-anchor="start" x="213.67" y="-276.5" font-family="Helvetica,sans-Serif" font-size="10.00">~ComponentDataCollector()</text>
<text text-anchor="start" x="200.67" y="-261.5" font-family="Helvetica,sans-Serif" font-size="10.00">+</text>
<text text-anchor="start" x="213.67" y="-261.5" font-family="Helvetica,sans-Serif" font-size="10.00">start()</text>
<text text-anchor="start" x="200.67" y="-246.5" font-family="Helvetica,sans-Serif" font-size="10.00">+</text>
<text text-anchor="start" x="213.67" y="-246.5" font-family="Helvetica,sans-Serif" font-size="10.00">cancel()</text>
<text text-anchor="start" x="200.67" y="-231.5" font-family="Helvetica,sans-Serif" font-size="10.00">+</text>
<text text-anchor="start" x="213.67" y="-231.5" font-family="Helvetica,sans-Serif" font-size="10.00">state()</text>
<text text-anchor="start" x="200.67" y="-216.5" font-family="Helvetica,sans-Serif" font-size="10.00">+</text>
<text text-anchor="start" x="213.67" y="-216.5" font-family="Helvetica,sans-Serif" font-size="10.00">componentId()</text>
<text text-anchor="start" x="200.67" y="-201.5" font-family="Helvetica,sans-Serif" font-size="10.00">+</text>
<text text-anchor="start" x="213.67" y="-201.5" font-family="Helvetica,sans-Serif" font-size="10.00">componentData()</text>
<text text-anchor="start" x="200.67" y="-186.5" font-family="Helvetica,sans-Serif" font-size="10.00">+</text>
<text text-anchor="start" x="213.67" y="-186.5" font-family="Helvetica,sans-Serif" font-size="10.00">errorMessage()</text>
<text text-anchor="start" x="200.67" y="-171.5" font-family="Helvetica,sans-Serif" font-size="10.00">+</text>
<text text-anchor="start" x="213.67" y="-171.5" font-family="Helvetica,sans-Serif" font-size="10.00">setExport3DModel()</text>
<text text-anchor="start" x="200.67" y="-156.5" font-family="Helvetica,sans-Serif" font-size="10.00">+</text>
<text text-anchor="start" x="213.67" y="-156.5" font-family="Helvetica,sans-Serif" font-size="10.00">stateChanged()</text>
<text text-anchor="start" x="200.67" y="-141.5" font-family="Helvetica,sans-Serif" font-size="10.00">+</text>
<text text-anchor="start" x="213.67" y="-141.5" font-family="Helvetica,sans-Serif" font-size="10.00">dataCollected()</text>
<text text-anchor="start" x="200.67" y="-126.5" font-family="Helvetica,sans-Serif" font-size="10.00">+</text>
<text text-anchor="start" x="213.67" y="-126.5" font-family="Helvetica,sans-Serif" font-size="10.00">errorOccurred()</text>
<text text-anchor="start" x="203.17" y="-111.5" font-family="Helvetica,sans-Serif" font-size="10.00">&#45;</text>
<text text-anchor="start" x="213.67" y="-111.5" font-family="Helvetica,sans-Serif" font-size="10.00">handleComponentInfoFetched()</text>
<text text-anchor="start" x="203.17" y="-96.5" font-family="Helvetica,sans-Serif" font-size="10.00">&#45;</text>
<text text-anchor="start" x="213.67" y="-96.5" font-family="Helvetica,sans-Serif" font-size="10.00">handleCadDataFetched()</text>
<text text-anchor="start" x="203.17" y="-81.5" font-family="Helvetica,sans-Serif" font-size="10.00">&#45;</text>
<text text-anchor="start" x="213.67" y="-81.5" font-family="Helvetica,sans-Serif" font-size="10.00">handleModel3DFetched()</text>
<text text-anchor="start" x="203.17" y="-66.5" font-family="Helvetica,sans-Serif" font-size="10.00">&#45;</text>
<text text-anchor="start" x="213.67" y="-66.5" font-family="Helvetica,sans-Serif" font-size="10.00">handleFetchError()</text>
<text text-anchor="start" x="203.17" y="-51.5" font-family="Helvetica,sans-Serif" font-size="10.00">&#45;</text>
<text text-anchor="start" x="213.67" y="-51.5" font-family="Helvetica,sans-Serif" font-size="10.00">setState()</text>
<text text-anchor="start" x="203.17" y="-36.5" font-family="Helvetica,sans-Serif" font-size="10.00">&#45;</text>
<text text-anchor="start" x="213.67" y="-36.5" font-family="Helvetica,sans-Serif" font-size="10.00">complete()</text>
<text text-anchor="start" x="203.17" y="-21.5" font-family="Helvetica,sans-Serif" font-size="10.00">&#45;</text>
<text text-anchor="start" x="213.67" y="-21.5" font-family="Helvetica,sans-Serif" font-size="10.00">handleError()</text>
<text text-anchor="start" x="203.17" y="-6.5" font-family="Helvetica,sans-Serif" font-size="10.00">&#45;</text>
<text text-anchor="start" x="213.67" y="-6.5" font-family="Helvetica,sans-Serif" font-size="10.00">initializeApiConnections()</text>
<polygon fill="#666666" stroke="#666666" points="196.67,-376.5 196.67,-376.5 371.67,-376.5 371.67,-376.5 196.67,-376.5"/>
<polygon fill="#666666" stroke="#666666" points="196.67,-301.5 196.67,-301.5 211.67,-301.5 211.67,-301.5 196.67,-301.5"/>
<polygon fill="#666666" stroke="#666666" points="211.67,-301.5 211.67,-301.5 371.67,-301.5 371.67,-301.5 211.67,-301.5"/>
<polygon fill="none" stroke="#666666" points="196.17,0 196.17,-405 371.17,-405 371.17,0 196.17,0"/>
</a>
</g>
</g>
<!-- Node2 -->
<g id="Node000002" class="node">
<title>Node2</title>
<g id="a_Node000002"><a xlink:title=" ">
<polygon fill="white" stroke="transparent" points="198.67,-1388 148.67,-1388 148.67,-1339 198.67,-1339 198.67,-1388"/>
<text text-anchor="start" x="153.67" y="-1375.5" font-family="Helvetica,sans-Serif" font-size="10.00">QObject</text>
<text text-anchor="start" x="171.67" y="-1360.5" font-family="Helvetica,sans-Serif" font-size="10.00"> </text>
<text text-anchor="start" x="171.67" y="-1345.5" font-family="Helvetica,sans-Serif" font-size="10.00"> </text>
<polygon fill="#666666" stroke="#666666" points="148.67,-1370.5 148.67,-1370.5 198.67,-1370.5 198.67,-1370.5 148.67,-1370.5"/>
<polygon fill="#666666" stroke="#666666" points="148.67,-1355.5 148.67,-1355.5 198.67,-1355.5 198.67,-1355.5 148.67,-1355.5"/>
<polygon fill="none" stroke="#666666" points="148.67,-1339 148.67,-1388 198.67,-1388 198.67,-1339 148.67,-1339"/>
</a>
</g>
</g>
<!-- Node2&#45;&gt;Node1 -->
<g id="edge1_Node000001_Node000002" class="edge">
<title>Node2&#45;&gt;Node1</title>
<g id="a_edge1_Node000001_Node000002"><a xlink:title=" ">
<path fill="none" stroke="#63b8ff" d="M141.75,-1333.44C133.52,-1324.21 125.61,-1313.42 120.67,-1302 -29.33,-954.95 -37.68,-809.04 86.67,-452 108.72,-388.7 154.36,-329.4 196.15,-284.62"/>
<polygon fill="none" stroke="#63b8ff" points="139.27,-1335.91 148.67,-1340.79 144.37,-1331.11 139.27,-1335.91"/>
</a>
</g>
</g>
<!-- Node4 -->
<g id="Node000004" class="node">
<title>Node4</title>
<g id="a_Node000004"><a xlink:href="classEasyKiConverter_1_1EasyedaApi.html" target="_top" xlink:title="EasyEDA API 客户端类">
<polygon fill="white" stroke="transparent" points="279.67,-951 95.67,-951 95.67,-452 279.67,-452 279.67,-951"/>
<text text-anchor="start" x="115.17" y="-938.5" font-family="Helvetica,sans-Serif" font-size="10.00">EasyKiConverter::EasyedaApi</text>
<text text-anchor="start" x="102.17" y="-923.5" font-family="Helvetica,sans-Serif" font-size="10.00">&#45;</text>
<text text-anchor="start" x="112.67" y="-923.5" font-family="Helvetica,sans-Serif" font-size="10.00">m_currentLcscId</text>
<text text-anchor="start" x="102.17" y="-908.5" font-family="Helvetica,sans-Serif" font-size="10.00">&#45;</text>
<text text-anchor="start" x="112.67" y="-908.5" font-family="Helvetica,sans-Serif" font-size="10.00">m_currentUuid</text>
<text text-anchor="start" x="102.17" y="-893.5" font-family="Helvetica,sans-Serif" font-size="10.00">&#45;</text>
<text text-anchor="start" x="112.67" y="-893.5" font-family="Helvetica,sans-Serif" font-size="10.00">m_isFetching</text>
<text text-anchor="start" x="102.17" y="-878.5" font-family="Helvetica,sans-Serif" font-size="10.00">&#45;</text>
<text text-anchor="start" x="112.67" y="-878.5" font-family="Helvetica,sans-Serif" font-size="10.00">m_requestType</text>
<text text-anchor="start" x="102.17" y="-863.5" font-family="Helvetica,sans-Serif" font-size="10.00">&#45;</text>
<text text-anchor="start" x="112.67" y="-863.5" font-family="Helvetica,sans-Serif" font-size="10.00">m_activeRequests</text>
<text text-anchor="start" x="102.17" y="-848.5" font-family="Helvetica,sans-Serif" font-size="10.00">&#45;</text>
<text text-anchor="start" x="112.67" y="-848.5" font-family="Helvetica,sans-Serif" font-size="10.00">m_requestsMutex</text>
<text text-anchor="start" x="99.67" y="-833.5" font-family="Helvetica,sans-Serif" font-size="10.00">+</text>
<text text-anchor="start" x="112.67" y="-833.5" font-family="Helvetica,sans-Serif" font-size="10.00">EasyedaApi()</text>
<text text-anchor="start" x="99.67" y="-818.5" font-family="Helvetica,sans-Serif" font-size="10.00">+</text>
<text text-anchor="start" x="112.67" y="-818.5" font-family="Helvetica,sans-Serif" font-size="10.00">EasyedaApi()</text>
<text text-anchor="start" x="99.67" y="-803.5" font-family="Helvetica,sans-Serif" font-size="10.00">+</text>
<text text-anchor="start" x="112.67" y="-803.5" font-family="Helvetica,sans-Serif" font-size="10.00">~EasyedaApi()</text>
<text text-anchor="start" x="99.67" y="-788.5" font-family="Helvetica,sans-Serif" font-size="10.00">+</text>
<text text-anchor="start" x="112.67" y="-788.5" font-family="Helvetica,sans-Serif" font-size="10.00">fetchComponentInfo()</text>
<text text-anchor="start" x="99.67" y="-773.5" font-family="Helvetica,sans-Serif" font-size="10.00">+</text>
<text text-anchor="start" x="112.67" y="-773.5" font-family="Helvetica,sans-Serif" font-size="10.00">fetchCadData()</text>
<text text-anchor="start" x="99.67" y="-758.5" font-family="Helvetica,sans-Serif" font-size="10.00">+</text>
<text text-anchor="start" x="112.67" y="-758.5" font-family="Helvetica,sans-Serif" font-size="10.00">fetch3DModelObj()</text>
<text text-anchor="start" x="99.67" y="-743.5" font-family="Helvetica,sans-Serif" font-size="10.00">+</text>
<text text-anchor="start" x="112.67" y="-743.5" font-family="Helvetica,sans-Serif" font-size="10.00">fetch3DModelStep()</text>
<text text-anchor="start" x="99.67" y="-728.5" font-family="Helvetica,sans-Serif" font-size="10.00">+</text>
<text text-anchor="start" x="112.67" y="-728.5" font-family="Helvetica,sans-Serif" font-size="10.00">cancelRequest()</text>
<text text-anchor="start" x="99.67" y="-713.5" font-family="Helvetica,sans-Serif" font-size="10.00">+</text>
<text text-anchor="start" x="112.67" y="-713.5" font-family="Helvetica,sans-Serif" font-size="10.00">componentInfoFetched()</text>
<text text-anchor="start" x="99.67" y="-698.5" font-family="Helvetica,sans-Serif" font-size="10.00">+</text>
<text text-anchor="start" x="112.67" y="-698.5" font-family="Helvetica,sans-Serif" font-size="10.00">cadDataFetched()</text>
<text text-anchor="start" x="99.67" y="-683.5" font-family="Helvetica,sans-Serif" font-size="10.00">+</text>
<text text-anchor="start" x="112.67" y="-683.5" font-family="Helvetica,sans-Serif" font-size="10.00">model3DFetched()</text>
<text text-anchor="start" x="99.67" y="-668.5" font-family="Helvetica,sans-Serif" font-size="10.00">+</text>
<text text-anchor="start" x="112.67" y="-668.5" font-family="Helvetica,sans-Serif" font-size="10.00">fetchError()</text>
<text text-anchor="start" x="99.67" y="-653.5" font-family="Helvetica,sans-Serif" font-size="10.00">+</text>
<text text-anchor="start" x="112.67" y="-653.5" font-family="Helvetica,sans-Serif" font-size="10.00">fetchError()</text>
<text text-anchor="start" x="102.17" y="-638.5" font-family="Helvetica,sans-Serif" font-size="10.00">&#45;</text>
<text text-anchor="start" x="112.67" y="-638.5" font-family="Helvetica,sans-Serif" font-size="10.00">handleComponentInfoResponse()</text>
<text text-anchor="start" x="102.17" y="-623.5" font-family="Helvetica,sans-Serif" font-size="10.00">&#45;</text>
<text text-anchor="start" x="112.67" y="-623.5" font-family="Helvetica,sans-Serif" font-size="10.00">handleCadDataResponse()</text>
<text text-anchor="start" x="102.17" y="-608.5" font-family="Helvetica,sans-Serif" font-size="10.00">&#45;</text>
<text text-anchor="start" x="112.67" y="-608.5" font-family="Helvetica,sans-Serif" font-size="10.00">handleModel3DResponse()</text>
<text text-anchor="start" x="102.17" y="-593.5" font-family="Helvetica,sans-Serif" font-size="10.00">&#45;</text>
<text text-anchor="start" x="112.67" y="-593.5" font-family="Helvetica,sans-Serif" font-size="10.00">handleNetworkError()</text>
<text text-anchor="start" x="102.17" y="-578.5" font-family="Helvetica,sans-Serif" font-size="10.00">&#45;</text>
<text text-anchor="start" x="112.67" y="-578.5" font-family="Helvetica,sans-Serif" font-size="10.00">handleRequestSuccess()</text>
<text text-anchor="start" x="102.17" y="-563.5" font-family="Helvetica,sans-Serif" font-size="10.00">&#45;</text>
<text text-anchor="start" x="112.67" y="-563.5" font-family="Helvetica,sans-Serif" font-size="10.00">handleRequestError()</text>
<text text-anchor="start" x="102.17" y="-548.5" font-family="Helvetica,sans-Serif" font-size="10.00">&#45;</text>
<text text-anchor="start" x="112.67" y="-548.5" font-family="Helvetica,sans-Serif" font-size="10.00">handleBinaryDataFetched()</text>
<text text-anchor="start" x="102.17" y="-533.5" font-family="Helvetica,sans-Serif" font-size="10.00">&#45;</text>
<text text-anchor="start" x="112.67" y="-533.5" font-family="Helvetica,sans-Serif" font-size="10.00">handleRequestSuccess()</text>
<text text-anchor="start" x="102.17" y="-518.5" font-family="Helvetica,sans-Serif" font-size="10.00">&#45;</text>
<text text-anchor="start" x="112.67" y="-518.5" font-family="Helvetica,sans-Serif" font-size="10.00">resetRequestState()</text>
<text text-anchor="start" x="102.17" y="-503.5" font-family="Helvetica,sans-Serif" font-size="10.00">&#45;</text>
<text text-anchor="start" x="112.67" y="-503.5" font-family="Helvetica,sans-Serif" font-size="10.00">buildComponentApiUrl()</text>
<text text-anchor="start" x="102.17" y="-488.5" font-family="Helvetica,sans-Serif" font-size="10.00">&#45;</text>
<text text-anchor="start" x="112.67" y="-488.5" font-family="Helvetica,sans-Serif" font-size="10.00">build3DModelObjUrl()</text>
<text text-anchor="start" x="102.17" y="-473.5" font-family="Helvetica,sans-Serif" font-size="10.00">&#45;</text>
<text text-anchor="start" x="112.67" y="-473.5" font-family="Helvetica,sans-Serif" font-size="10.00">build3DModelStepUrl()</text>
<text text-anchor="start" x="102.17" y="-458.5" font-family="Helvetica,sans-Serif" font-size="10.00">&#45;</text>
<text text-anchor="start" x="112.67" y="-458.5" font-family="Helvetica,sans-Serif" font-size="10.00">validateLcscId()</text>
<polygon fill="#666666" stroke="#666666" points="95.67,-933.5 95.67,-933.5 279.67,-933.5 279.67,-933.5 95.67,-933.5"/>
<polygon fill="#666666" stroke="#666666" points="95.67,-843.5 95.67,-843.5 110.67,-843.5 110.67,-843.5 95.67,-843.5"/>
<polygon fill="#666666" stroke="#666666" points="110.67,-843.5 110.67,-843.5 279.67,-843.5 279.67,-843.5 110.67,-843.5"/>
<polygon fill="none" stroke="#666666" points="95.67,-452 95.67,-951 279.67,-951 279.67,-452 95.67,-452"/>
</a>
</g>
</g>
<!-- Node2&#45;&gt;Node4 -->
<g id="edge4_Node000004_Node000002" class="edge">
<title>Node2&#45;&gt;Node4</title>
<g id="a_edge4_Node000004_Node000002"><a xlink:title=" ">
<path fill="none" stroke="#63b8ff" d="M154.01,-1329.7C149.76,-1320.99 145.87,-1311.39 143.67,-1302 117.1,-1188.58 122.06,-1060.09 136.12,-951.24"/>
<polygon fill="none" stroke="#63b8ff" points="151,-1331.49 158.72,-1338.74 157.21,-1328.26 151,-1331.49"/>
</a>
</g>
</g>
<!-- Node5 -->
<g id="Node000005" class="node">
<title>Node5</title>
<g id="a_Node000005"><a xlink:href="classEasyKiConverter_1_1INetworkAdapter.html" target="_top" xlink:title="网络适配器接口">
<polygon fill="white" stroke="transparent" points="294.67,-1302 152.67,-1302 152.67,-1092 294.67,-1092 294.67,-1302"/>
<text text-anchor="start" x="157.67" y="-1290" font-family="Helvetica,sans-Serif" font-size="10.00">EasyKiConverter::INetwork</text>
<text text-anchor="start" x="204.17" y="-1279" font-family="Helvetica,sans-Serif" font-size="10.00">Adapter</text>
<text text-anchor="start" x="221.67" y="-1264" font-family="Helvetica,sans-Serif" font-size="10.00"> </text>
<text text-anchor="start" x="159.17" y="-1249" font-family="Helvetica,sans-Serif" font-size="10.00">+</text>
<text text-anchor="start" x="174.67" y="-1249" font-family="Helvetica,sans-Serif" font-size="10.00">INetworkAdapter()</text>
<text text-anchor="start" x="159.17" y="-1234" font-family="Helvetica,sans-Serif" font-size="10.00">+</text>
<text text-anchor="start" x="174.67" y="-1234" font-family="Helvetica,sans-Serif" font-size="10.00">~INetworkAdapter()</text>
<text text-anchor="start" x="159.17" y="-1219" font-family="Helvetica,sans-Serif" font-size="10.00">+</text>
<text text-anchor="start" x="174.67" y="-1219" font-family="Helvetica,sans-Serif" font-size="10.00">sendGetRequest()</text>
<text text-anchor="start" x="159.17" y="-1204" font-family="Helvetica,sans-Serif" font-size="10.00">+</text>
<text text-anchor="start" x="174.67" y="-1204" font-family="Helvetica,sans-Serif" font-size="10.00">cancelRequest()</text>
<text text-anchor="start" x="159.17" y="-1189" font-family="Helvetica,sans-Serif" font-size="10.00">+</text>
<text text-anchor="start" x="174.67" y="-1189" font-family="Helvetica,sans-Serif" font-size="10.00">setHeader()</text>
<text text-anchor="start" x="159.17" y="-1174" font-family="Helvetica,sans-Serif" font-size="10.00">+</text>
<text text-anchor="start" x="174.67" y="-1174" font-family="Helvetica,sans-Serif" font-size="10.00">clearHeaders()</text>
<text text-anchor="start" x="159.17" y="-1159" font-family="Helvetica,sans-Serif" font-size="10.00">+</text>
<text text-anchor="start" x="174.67" y="-1159" font-family="Helvetica,sans-Serif" font-size="10.00">setExpectBinaryData()</text>
<text text-anchor="start" x="159.17" y="-1144" font-family="Helvetica,sans-Serif" font-size="10.00">+</text>
<text text-anchor="start" x="174.67" y="-1144" font-family="Helvetica,sans-Serif" font-size="10.00">requestSuccess()</text>
<text text-anchor="start" x="159.17" y="-1129" font-family="Helvetica,sans-Serif" font-size="10.00">+</text>
<text text-anchor="start" x="174.67" y="-1129" font-family="Helvetica,sans-Serif" font-size="10.00">binaryDataFetched()</text>
<text text-anchor="start" x="159.17" y="-1114" font-family="Helvetica,sans-Serif" font-size="10.00">+</text>
<text text-anchor="start" x="174.67" y="-1114" font-family="Helvetica,sans-Serif" font-size="10.00">requestError()</text>
<text text-anchor="start" x="159.17" y="-1099" font-family="Helvetica,sans-Serif" font-size="10.00">+</text>
<text text-anchor="start" x="174.67" y="-1099" font-family="Helvetica,sans-Serif" font-size="10.00">requestProgress()</text>
<polygon fill="#666666" stroke="#666666" points="152.67,-1274 152.67,-1274 294.67,-1274 294.67,-1274 152.67,-1274"/>
<polygon fill="#666666" stroke="#666666" points="152.67,-1259 152.67,-1259 294.67,-1259 294.67,-1259 152.67,-1259"/>
<polygon fill="none" stroke="#666666" points="152.67,-1092 152.67,-1302 294.67,-1302 294.67,-1092 152.67,-1092"/>
</a>
</g>
</g>
<!-- Node2&#45;&gt;Node5 -->
<g id="edge6_Node000005_Node000002" class="edge">
<title>Node2&#45;&gt;Node5</title>
<g id="a_edge6_Node000005_Node000002"><a xlink:title=" ">
<path fill="none" stroke="#63b8ff" d="M183.82,-1329.12C186.32,-1320.91 189.12,-1311.68 192.06,-1302.01"/>
<polygon fill="none" stroke="#63b8ff" points="180.4,-1328.35 180.84,-1338.93 187.1,-1330.38 180.4,-1328.35"/>
</a>
</g>
</g>
<!-- Node6 -->
<g id="Node000006" class="node">
<title>Node6</title>
<g id="a_Node000006"><a xlink:href="classEasyKiConverter_1_1EasyedaImporter.html" target="_top" xlink:title="EasyEDA 数据导入器类">
<polygon fill="white" stroke="transparent" points="401.17,-1074 262.17,-1074 262.17,-969 401.17,-969 401.17,-1074"/>
<text text-anchor="start" x="267.67" y="-1061.5" font-family="Helvetica,sans-Serif" font-size="10.00">EasyKiConverter::Easyeda</text>
<text text-anchor="start" x="310.67" y="-1050.5" font-family="Helvetica,sans-Serif" font-size="10.00">Importer</text>
<text text-anchor="start" x="330.17" y="-1035.5" font-family="Helvetica,sans-Serif" font-size="10.00"> </text>
<text text-anchor="start" x="269.17" y="-1020.5" font-family="Helvetica,sans-Serif" font-size="10.00">+</text>
<text text-anchor="start" x="284.67" y="-1020.5" font-family="Helvetica,sans-Serif" font-size="10.00">EasyedaImporter()</text>
<text text-anchor="start" x="269.17" y="-1005.5" font-family="Helvetica,sans-Serif" font-size="10.00">+</text>
<text text-anchor="start" x="284.67" y="-1005.5" font-family="Helvetica,sans-Serif" font-size="10.00">~EasyedaImporter()</text>
<text text-anchor="start" x="269.17" y="-990.5" font-family="Helvetica,sans-Serif" font-size="10.00">+</text>
<text text-anchor="start" x="284.67" y="-990.5" font-family="Helvetica,sans-Serif" font-size="10.00">importSymbolData()</text>
<text text-anchor="start" x="269.17" y="-975.5" font-family="Helvetica,sans-Serif" font-size="10.00">+</text>
<text text-anchor="start" x="284.67" y="-975.5" font-family="Helvetica,sans-Serif" font-size="10.00">importFootprintData()</text>
<polygon fill="#666666" stroke="#666666" points="262.67,-1045.5 262.67,-1045.5 401.67,-1045.5 401.67,-1045.5 262.67,-1045.5"/>
<polygon fill="#666666" stroke="#666666" points="262.67,-1030.5 262.67,-1030.5 401.67,-1030.5 401.67,-1030.5 262.67,-1030.5"/>
<polygon fill="none" stroke="#666666" points="262.17,-969 262.17,-1074 401.17,-1074 401.17,-969 262.17,-969"/>
</a>
</g>
</g>
<!-- Node2&#45;&gt;Node6 -->
<g id="edge8_Node000006_Node000002" class="edge">
<title>Node2&#45;&gt;Node6</title>
<g id="a_edge8_Node000006_Node000002"><a xlink:title=" ">
<path fill="none" stroke="#63b8ff" d="M208.52,-1356.24C238.9,-1348.82 281.46,-1333.27 303.67,-1302 351.4,-1234.81 348.31,-1134.52 340.71,-1074.12"/>
<polygon fill="none" stroke="#63b8ff" points="207.72,-1352.83 198.74,-1358.45 209.26,-1359.66 207.72,-1352.83"/>
</a>
</g>
</g>
<!-- Node3 -->
<g id="Node000003" class="node">
<title>Node3</title>
<g id="a_Node000003"><a xlink:href="classEasyKiConverter_1_1ComponentData.html" target="_top" xlink:title="元件数据">
<polygon fill="white" stroke="transparent" points="575.17,-861 398.17,-861 398.17,-542 575.17,-542 575.17,-861"/>
<text text-anchor="start" x="403.67" y="-848.5" font-family="Helvetica,sans-Serif" font-size="10.00">EasyKiConverter::ComponentData</text>
<text text-anchor="start" x="420.17" y="-833.5" font-family="Helvetica,sans-Serif" font-size="10.00">&#45;</text>
<text text-anchor="start" x="445.67" y="-833.5" font-family="Helvetica,sans-Serif" font-size="10.00">m_lcscId</text>
<text text-anchor="start" x="420.17" y="-818.5" font-family="Helvetica,sans-Serif" font-size="10.00">&#45;</text>
<text text-anchor="start" x="445.67" y="-818.5" font-family="Helvetica,sans-Serif" font-size="10.00">m_name</text>
<text text-anchor="start" x="420.17" y="-803.5" font-family="Helvetica,sans-Serif" font-size="10.00">&#45;</text>
<text text-anchor="start" x="445.67" y="-803.5" font-family="Helvetica,sans-Serif" font-size="10.00">m_prefix</text>
<text text-anchor="start" x="420.17" y="-788.5" font-family="Helvetica,sans-Serif" font-size="10.00">&#45;</text>
<text text-anchor="start" x="445.67" y="-788.5" font-family="Helvetica,sans-Serif" font-size="10.00">m_package</text>
<text text-anchor="start" x="420.17" y="-773.5" font-family="Helvetica,sans-Serif" font-size="10.00">&#45;</text>
<text text-anchor="start" x="445.67" y="-773.5" font-family="Helvetica,sans-Serif" font-size="10.00">m_manufacturer</text>
<text text-anchor="start" x="420.17" y="-758.5" font-family="Helvetica,sans-Serif" font-size="10.00">&#45;</text>
<text text-anchor="start" x="445.67" y="-758.5" font-family="Helvetica,sans-Serif" font-size="10.00">m_datasheet</text>
<text text-anchor="start" x="420.17" y="-743.5" font-family="Helvetica,sans-Serif" font-size="10.00">&#45;</text>
<text text-anchor="start" x="445.67" y="-743.5" font-family="Helvetica,sans-Serif" font-size="10.00">m_symbolData</text>
<text text-anchor="start" x="420.17" y="-728.5" font-family="Helvetica,sans-Serif" font-size="10.00">&#45;</text>
<text text-anchor="start" x="445.67" y="-728.5" font-family="Helvetica,sans-Serif" font-size="10.00">m_footprintData</text>
<text text-anchor="start" x="420.17" y="-713.5" font-family="Helvetica,sans-Serif" font-size="10.00">&#45;</text>
<text text-anchor="start" x="445.67" y="-713.5" font-family="Helvetica,sans-Serif" font-size="10.00">m_model3DData</text>
<text text-anchor="start" x="417.67" y="-698.5" font-family="Helvetica,sans-Serif" font-size="10.00">+</text>
<text text-anchor="start" x="445.67" y="-698.5" font-family="Helvetica,sans-Serif" font-size="10.00">ComponentData()</text>
<text text-anchor="start" x="417.67" y="-683.5" font-family="Helvetica,sans-Serif" font-size="10.00">+</text>
<text text-anchor="start" x="445.67" y="-683.5" font-family="Helvetica,sans-Serif" font-size="10.00">~ComponentData()</text>
<text text-anchor="start" x="417.67" y="-668.5" font-family="Helvetica,sans-Serif" font-size="10.00">+</text>
<text text-anchor="start" x="445.67" y="-668.5" font-family="Helvetica,sans-Serif" font-size="10.00">lcscId()</text>
<text text-anchor="start" x="417.67" y="-653.5" font-family="Helvetica,sans-Serif" font-size="10.00">+</text>
<text text-anchor="start" x="445.67" y="-653.5" font-family="Helvetica,sans-Serif" font-size="10.00">setLcscId()</text>
<text text-anchor="start" x="417.67" y="-638.5" font-family="Helvetica,sans-Serif" font-size="10.00">+</text>
<text text-anchor="start" x="445.67" y="-638.5" font-family="Helvetica,sans-Serif" font-size="10.00">name()</text>
<text text-anchor="start" x="417.67" y="-623.5" font-family="Helvetica,sans-Serif" font-size="10.00">+</text>
<text text-anchor="start" x="445.67" y="-623.5" font-family="Helvetica,sans-Serif" font-size="10.00">setName()</text>
<text text-anchor="start" x="417.67" y="-608.5" font-family="Helvetica,sans-Serif" font-size="10.00">+</text>
<text text-anchor="start" x="445.67" y="-608.5" font-family="Helvetica,sans-Serif" font-size="10.00">prefix()</text>
<text text-anchor="start" x="417.67" y="-593.5" font-family="Helvetica,sans-Serif" font-size="10.00">+</text>
<text text-anchor="start" x="445.67" y="-593.5" font-family="Helvetica,sans-Serif" font-size="10.00">setPrefix()</text>
<text text-anchor="start" x="417.67" y="-578.5" font-family="Helvetica,sans-Serif" font-size="10.00">+</text>
<text text-anchor="start" x="445.67" y="-578.5" font-family="Helvetica,sans-Serif" font-size="10.00">package()</text>
<text text-anchor="start" x="417.67" y="-563.5" font-family="Helvetica,sans-Serif" font-size="10.00">+</text>
<text text-anchor="start" x="445.67" y="-563.5" font-family="Helvetica,sans-Serif" font-size="10.00">setPackage()</text>
<text text-anchor="start" x="445.67" y="-548.5" font-family="Helvetica,sans-Serif" font-size="10.00">和 15 更多...</text>
<polygon fill="#666666" stroke="#666666" points="398.67,-843.5 398.67,-843.5 575.67,-843.5 575.67,-843.5 398.67,-843.5"/>
<polygon fill="#666666" stroke="#666666" points="398.67,-708.5 398.67,-708.5 443.67,-708.5 443.67,-708.5 398.67,-708.5"/>
<polygon fill="#666666" stroke="#666666" points="443.67,-708.5 443.67,-708.5 575.67,-708.5 575.67,-708.5 443.67,-708.5"/>
<polygon fill="none" stroke="#666666" points="398.17,-542 398.17,-861 575.17,-861 575.17,-542 398.17,-542"/>
</a>
</g>
</g>
<!-- Node3&#45;&gt;Node1 -->
<g id="edge2_Node000001_Node000003" class="edge">
<title>Node3&#45;&gt;Node1</title>
<g id="a_edge2_Node000001_Node000003"><a xlink:title=" ">
<path fill="none" stroke="#63b8ff" d="M421.89,-541.88C405.59,-501.98 387.83,-458.51 370.64,-416.43"/>
<polygon fill="none" stroke="#63b8ff" points="370.59,-416.29 364.62,-412.25 366.05,-405.18 372.02,-409.22 370.59,-416.29"/>
</a>
</g>
<text text-anchor="middle" x="425.67" y="-426" font-family="Helvetica,sans-Serif" font-size="10.00" fill="grey"> &#45;m_componentData</text>
</g>
<!-- Node4&#45;&gt;Node1 -->
<g id="edge3_Node000001_Node000004" class="edge">
<title>Node4&#45;&gt;Node1</title>
<g id="a_edge3_Node000001_Node000004"><a xlink:title=" ">
<path fill="none" stroke="#63b8ff" d="M235.67,-452C237.92,-440.38 240.16,-428.77 242.39,-417.25"/>
<polygon fill="none" stroke="#63b8ff" points="242.42,-417.07 239.63,-410.42 244.7,-405.29 247.49,-411.94 242.42,-417.07"/>
</a>
</g>
<text text-anchor="middle" x="259.17" y="-426" font-family="Helvetica,sans-Serif" font-size="10.00" fill="grey"> &#45;m_api</text>
</g>
<!-- Node5&#45;&gt;Node4 -->
<g id="edge5_Node000004_Node000005" class="edge">
<title>Node5&#45;&gt;Node4</title>
<g id="a_edge5_Node000004_Node000005"><a xlink:title=" ">
<path fill="none" stroke="#63b8ff" d="M172.42,-1091.85C170.58,-1085.9 168.97,-1079.92 167.67,-1074 159.93,-1038.56 156.54,-1000.78 155.98,-963.4"/>
<polygon fill="none" stroke="#63b8ff" points="155.98,-963.28 151.94,-957.31 155.9,-951.28 159.94,-957.26 155.98,-963.28"/>
</a>
</g>
<text text-anchor="middle" x="210.17" y="-1019" font-family="Helvetica,sans-Serif" font-size="10.00" fill="grey"> &#45;m_networkUtils</text>
</g>
<!-- Node6&#45;&gt;Node1 -->
<g id="edge7_Node000001_Node000006" class="edge">
<title>Node6&#45;&gt;Node1</title>
<g id="a_edge7_Node000001_Node000006"><a xlink:title=" ">
<path fill="none" stroke="#63b8ff" d="M327.05,-968.9C326.56,-962.87 326.09,-956.8 325.67,-951 312.86,-771.12 301.6,-566.66 293.97,-417.09"/>
<polygon fill="none" stroke="#63b8ff" points="293.97,-417.05 289.67,-411.26 293.36,-405.06 297.66,-410.85 293.97,-417.05"/>
</a>
</g>
<text text-anchor="middle" x="357.67" y="-699" font-family="Helvetica,sans-Serif" font-size="10.00" fill="grey"> &#45;m_importer</text>
</g>
</g>
</svg>
