<?xml version="1.0" encoding="UTF-8" standalone="no"?>
<!DOCTYPE svg PUBLIC "-//W3C//DTD SVG 1.1//EN"
 "http://www.w3.org/Graphics/SVG/1.1/DTD/svg11.dtd">
<!-- Generated by graphviz version 2.43.0 (0)
 -->
<!-- Title: EasyKiConverter::ScopedDataClearer Pages: 1 -->
<svg width="164pt" height="98pt"
 viewBox="0.00 0.00 164.00 98.00" xmlns="http://www.w3.org/2000/svg" xmlns:xlink="http://www.w3.org/1999/xlink">
<g id="graph0" class="graph" transform="scale(1 1) rotate(0) translate(4 94)">
<title>EasyKiConverter::ScopedDataClearer</title>
<!-- Node1 -->
<g id="Node000001" class="node">
<title>Node1</title>
<g id="a_Node000001"><a xlink:title="RAII 辅助类：确保状态对象在析构时（或显式调用时）清理数据">
<polygon fill="#999999" stroke="transparent" points="156,-90 0,-90 0,0 156,0 156,-90"/>
<text text-anchor="start" x="5" y="-78" font-family="Helvetica,sans-Serif" font-size="10.00">EasyKiConverter::ScopedData</text>
<text text-anchor="start" x="60" y="-67" font-family="Helvetica,sans-Serif" font-size="10.00">Clearer</text>
<text text-anchor="start" x="12.5" y="-52" font-family="Helvetica,sans-Serif" font-size="10.00">&#45;</text>
<text text-anchor="start" x="29" y="-52" font-family="Helvetica,sans-Serif" font-size="10.00">m_status</text>
<text text-anchor="start" x="10" y="-37" font-family="Helvetica,sans-Serif" font-size="10.00">+</text>
<text text-anchor="start" x="29" y="-37" font-family="Helvetica,sans-Serif" font-size="10.00">ScopedDataClearer()</text>
<text text-anchor="start" x="10" y="-22" font-family="Helvetica,sans-Serif" font-size="10.00">+</text>
<text text-anchor="start" x="29" y="-22" font-family="Helvetica,sans-Serif" font-size="10.00">~ScopedDataClearer()</text>
<text text-anchor="start" x="10" y="-7" font-family="Helvetica,sans-Serif" font-size="10.00">+</text>
<text text-anchor="start" x="29" y="-7" font-family="Helvetica,sans-Serif" font-size="10.00">release()</text>
<polygon fill="#666666" stroke="#666666" points="0,-62 0,-62 156,-62 156,-62 0,-62"/>
<polygon fill="#666666" stroke="#666666" points="0,-47 0,-47 27,-47 27,-47 0,-47"/>
<polygon fill="#666666" stroke="#666666" points="27,-47 27,-47 156,-47 156,-47 27,-47"/>
<polygon fill="none" stroke="#666666" points="0,0 0,-90 156,-90 156,0 0,0"/>
</a>
</g>
</g>
</g>
</svg>
