<?xml version="1.0" encoding="UTF-8" standalone="no"?>
<!DOCTYPE svg PUBLIC "-//W3C//DTD SVG 1.1//EN"
 "http://www.w3.org/Graphics/SVG/1.1/DTD/svg11.dtd">
<!-- Generated by graphviz version 2.43.0 (0)
 -->
<!-- Title: utils/cli/CliContext.h Pages: 1 -->
<svg width="981pt" height="82pt"
 viewBox="0.00 0.00 980.50 82.00" xmlns="http://www.w3.org/2000/svg" xmlns:xlink="http://www.w3.org/1999/xlink">
<g id="graph0" class="graph" transform="scale(1 1) rotate(0) translate(4 78)">
<title>utils/cli/CliContext.h</title>
<!-- Node1 -->
<g id="Node000001" class="node">
<title>Node1</title>
<g id="a_Node000001"><a xlink:title=" ">
<polygon fill="#999999" stroke="#666666" points="539.5,-74 424.5,-74 424.5,-55 539.5,-55 539.5,-74"/>
<text text-anchor="middle" x="482" y="-62" font-family="Helvetica,sans-Serif" font-size="10.00">utils/cli/CliContext.h</text>
</a>
</g>
</g>
<!-- Node2 -->
<g id="Node000002" class="node">
<title>Node2</title>
<g id="a_Node000002"><a xlink:href="BaseConverter_8cpp.html" target="_top" xlink:title=" ">
<polygon fill="white" stroke="#666666" points="146,-19 0,-19 0,0 146,0 146,-19"/>
<text text-anchor="middle" x="73" y="-7" font-family="Helvetica,sans-Serif" font-size="10.00">utils/cli/BaseConverter.cpp</text>
</a>
</g>
</g>
<!-- Node1&#45;&gt;Node2 -->
<g id="edge1_Node000001_Node000002" class="edge">
<title>Node1&#45;&gt;Node2</title>
<g id="a_edge1_Node000001_Node000002"><a xlink:title=" ">
<path fill="none" stroke="#63b8ff" d="M414.27,-54.72C337.9,-44.83 214.52,-28.84 138.9,-19.04"/>
<polygon fill="#63b8ff" stroke="#63b8ff" points="413.9,-58.2 424.27,-56.02 414.8,-51.26 413.9,-58.2"/>
</a>
</g>
</g>
<!-- Node3 -->
<g id="Node000003" class="node">
<title>Node3</title>
<g id="a_Node000003"><a xlink:href="BatchConverter_8cpp.html" target="_top" xlink:title=" ">
<polygon fill="white" stroke="#666666" points="314,-19 164,-19 164,0 314,0 314,-19"/>
<text text-anchor="middle" x="239" y="-7" font-family="Helvetica,sans-Serif" font-size="10.00">utils/cli/BatchConverter.cpp</text>
</a>
</g>
</g>
<!-- Node1&#45;&gt;Node3 -->
<g id="edge2_Node000001_Node000003" class="edge">
<title>Node1&#45;&gt;Node3</title>
<g id="a_edge2_Node000001_Node000003"><a xlink:title=" ">
<path fill="none" stroke="#63b8ff" d="M433.01,-52.82C387.47,-42.88 320.5,-28.28 278.35,-19.08"/>
<polygon fill="#63b8ff" stroke="#63b8ff" points="432.44,-56.27 442.96,-54.98 433.93,-49.43 432.44,-56.27"/>
</a>
</g>
</g>
<!-- Node4 -->
<g id="Node000004" class="node">
<title>Node4</title>
<g id="a_Node000004"><a xlink:href="BomConverter_8cpp.html" target="_top" xlink:title=" ">
<polygon fill="white" stroke="#666666" points="477.5,-19 332.5,-19 332.5,0 477.5,0 477.5,-19"/>
<text text-anchor="middle" x="405" y="-7" font-family="Helvetica,sans-Serif" font-size="10.00">utils/cli/BomConverter.cpp</text>
</a>
</g>
</g>
<!-- Node1&#45;&gt;Node4 -->
<g id="edge3_Node000001_Node000004" class="edge">
<title>Node1&#45;&gt;Node4</title>
<g id="a_edge3_Node000001_Node000004"><a xlink:title=" ">
<path fill="none" stroke="#63b8ff" d="M461.15,-49.15C447.24,-39.57 429.39,-27.29 417.6,-19.17"/>
<polygon fill="#63b8ff" stroke="#63b8ff" points="459.41,-52.2 469.63,-54.98 463.38,-46.43 459.41,-52.2"/>
</a>
</g>
</g>
<!-- Node5 -->
<g id="Node000005" class="node">
<title>Node5</title>
<g id="a_Node000005"><a xlink:href="CliContext_8cpp.html" target="_top" xlink:title=" ">
<polygon fill="white" stroke="#666666" points="622,-19 496,-19 496,0 622,0 622,-19"/>
<text text-anchor="middle" x="559" y="-7" font-family="Helvetica,sans-Serif" font-size="10.00">utils/cli/CliContext.cpp</text>
</a>
</g>
</g>
<!-- Node1&#45;&gt;Node5 -->
<g id="edge4_Node000001_Node000005" class="edge">
<title>Node1&#45;&gt;Node5</title>
<g id="a_edge4_Node000001_Node000005"><a xlink:title=" ">
<path fill="none" stroke="#63b8ff" d="M502.85,-49.15C516.76,-39.57 534.61,-27.29 546.4,-19.17"/>
<polygon fill="#63b8ff" stroke="#63b8ff" points="500.62,-46.43 494.37,-54.98 504.59,-52.2 500.62,-46.43"/>
</a>
</g>
</g>
<!-- Node6 -->
<g id="Node000006" class="node">
<title>Node6</title>
<g id="a_Node000006"><a xlink:href="CliConverter_8cpp.html" target="_top" xlink:title=" ">
<polygon fill="white" stroke="#666666" points="775.5,-19 640.5,-19 640.5,0 775.5,0 775.5,-19"/>
<text text-anchor="middle" x="708" y="-7" font-family="Helvetica,sans-Serif" font-size="10.00">utils/cli/CliConverter.cpp</text>
</a>
</g>
</g>
<!-- Node1&#45;&gt;Node6 -->
<g id="edge5_Node000001_Node000006" class="edge">
<title>Node1&#45;&gt;Node6</title>
<g id="a_edge5_Node000001_Node000006"><a xlink:title=" ">
<path fill="none" stroke="#63b8ff" d="M528.09,-52.69C570.44,-42.76 632.36,-28.24 671.4,-19.08"/>
<polygon fill="#63b8ff" stroke="#63b8ff" points="527.25,-49.29 518.31,-54.98 528.85,-56.11 527.25,-49.29"/>
</a>
</g>
</g>
<!-- Node7 -->
<g id="Node000007" class="node">
<title>Node7</title>
<g id="a_Node000007"><a xlink:href="ComponentConverter_8cpp.html" target="_top" xlink:title=" ">
<polygon fill="white" stroke="#666666" points="972.5,-19 793.5,-19 793.5,0 972.5,0 972.5,-19"/>
<text text-anchor="middle" x="883" y="-7" font-family="Helvetica,sans-Serif" font-size="10.00">utils/cli/ComponentConverter.cpp</text>
</a>
</g>
</g>
<!-- Node1&#45;&gt;Node7 -->
<g id="edge6_Node000001_Node000007" class="edge">
<title>Node1&#45;&gt;Node7</title>
<g id="a_edge6_Node000001_Node000007"><a xlink:title=" ">
<path fill="none" stroke="#63b8ff" d="M550.16,-54.49C625.21,-44.57 744.94,-28.75 818.5,-19.03"/>
<polygon fill="#63b8ff" stroke="#63b8ff" points="549.34,-51.07 539.88,-55.85 550.25,-58.01 549.34,-51.07"/>
</a>
</g>
</g>
</g>
</svg>
