<?xml version="1.0" encoding="UTF-8" standalone="no"?>
<!DOCTYPE svg PUBLIC "-//W3C//DTD SVG 1.1//EN"
 "http://www.w3.org/Graphics/SVG/1.1/DTD/svg11.dtd">
<!-- Generated by graphviz version 2.43.0 (0)
 -->
<!-- Title: utils/CommandLineParser.cpp Pages: 1 -->
<svg width="549pt" height="137pt"
 viewBox="0.00 0.00 548.50 137.00" xmlns="http://www.w3.org/2000/svg" xmlns:xlink="http://www.w3.org/1999/xlink">
<g id="graph0" class="graph" transform="scale(1 1) rotate(0) translate(4 133)">
<title>utils/CommandLineParser.cpp</title>
<!-- Node1 -->
<g id="Node000001" class="node">
<title>Node1</title>
<g id="a_Node000001"><a xlink:title=" ">
<polygon fill="#999999" stroke="#666666" points="472,-129 311,-129 311,-110 472,-110 472,-129"/>
<text text-anchor="middle" x="391.5" y="-117" font-family="Helvetica,sans-Serif" font-size="10.00">utils/CommandLineParser.cpp</text>
</a>
</g>
</g>
<!-- Node2 -->
<g id="Node000002" class="node">
<title>Node2</title>
<g id="a_Node000002"><a xlink:href="CommandLineParser_8h.html" target="_top" xlink:title=" ">
<polygon fill="white" stroke="#666666" points="323,-74 198,-74 198,-55 323,-55 323,-74"/>
<text text-anchor="middle" x="260.5" y="-62" font-family="Helvetica,sans-Serif" font-size="10.00">CommandLineParser.h</text>
</a>
</g>
</g>
<!-- Node1&#45;&gt;Node2 -->
<g id="edge1_Node000001_Node000002" class="edge">
<title>Node1&#45;&gt;Node2</title>
<g id="a_edge1_Node000001_Node000002"><a xlink:title=" ">
<path fill="none" stroke="#63b8ff" d="M370.45,-109.98C349.09,-101.34 315.8,-87.87 291.44,-78.02"/>
<polygon fill="#63b8ff" stroke="#63b8ff" points="292.51,-74.68 281.93,-74.17 289.89,-81.17 292.51,-74.68"/>
</a>
</g>
</g>
<!-- Node7 -->
<g id="Node000007" class="node">
<title>Node7</title>
<g id="a_Node000007"><a xlink:title=" ">
<polygon fill="#e0e0e0" stroke="#999999" points="442,-74 341,-74 341,-55 442,-55 442,-74"/>
<text text-anchor="middle" x="391.5" y="-62" font-family="Helvetica,sans-Serif" font-size="10.00">QCoreApplication</text>
</a>
</g>
</g>
<!-- Node1&#45;&gt;Node7 -->
<g id="edge6_Node000001_Node000007" class="edge">
<title>Node1&#45;&gt;Node7</title>
<g id="a_edge6_Node000001_Node000007"><a xlink:title=" ">
<path fill="none" stroke="#63b8ff" d="M391.5,-109.75C391.5,-102.8 391.5,-92.85 391.5,-84.13"/>
<polygon fill="#63b8ff" stroke="#63b8ff" points="395,-84.09 391.5,-74.09 388,-84.09 395,-84.09"/>
</a>
</g>
</g>
<!-- Node8 -->
<g id="Node000008" class="node">
<title>Node8</title>
<g id="a_Node000008"><a xlink:title=" ">
<polygon fill="#e0e0e0" stroke="#999999" points="540.5,-74 460.5,-74 460.5,-55 540.5,-55 540.5,-74"/>
<text text-anchor="middle" x="500.5" y="-62" font-family="Helvetica,sans-Serif" font-size="10.00">QTextStream</text>
</a>
</g>
</g>
<!-- Node1&#45;&gt;Node8 -->
<g id="edge7_Node000001_Node000008" class="edge">
<title>Node1&#45;&gt;Node8</title>
<g id="a_edge7_Node000001_Node000008"><a xlink:title=" ">
<path fill="none" stroke="#63b8ff" d="M409.01,-109.98C426.47,-101.5 453.51,-88.35 473.67,-78.54"/>
<polygon fill="#63b8ff" stroke="#63b8ff" points="475.21,-81.69 482.67,-74.17 472.14,-75.4 475.21,-81.69"/>
</a>
</g>
</g>
<!-- Node3 -->
<g id="Node000003" class="node">
<title>Node3</title>
<g id="a_Node000003"><a xlink:title=" ">
<polygon fill="#e0e0e0" stroke="#999999" points="127,-19 0,-19 0,0 127,0 127,-19"/>
<text text-anchor="middle" x="63.5" y="-7" font-family="Helvetica,sans-Serif" font-size="10.00">QCommandLineOption</text>
</a>
</g>
</g>
<!-- Node2&#45;&gt;Node3 -->
<g id="edge2_Node000002_Node000003" class="edge">
<title>Node2&#45;&gt;Node3</title>
<g id="a_edge2_Node000002_Node000003"><a xlink:title=" ">
<path fill="none" stroke="#63b8ff" d="M228.85,-54.98C195.34,-45.97 142.3,-31.7 105.36,-21.76"/>
<polygon fill="#63b8ff" stroke="#63b8ff" points="105.97,-18.3 95.4,-19.08 104.15,-25.06 105.97,-18.3"/>
</a>
</g>
</g>
<!-- Node4 -->
<g id="Node000004" class="node">
<title>Node4</title>
<g id="a_Node000004"><a xlink:title=" ">
<polygon fill="#e0e0e0" stroke="#999999" points="270,-19 145,-19 145,0 270,0 270,-19"/>
<text text-anchor="middle" x="207.5" y="-7" font-family="Helvetica,sans-Serif" font-size="10.00">QCommandLineParser</text>
</a>
</g>
</g>
<!-- Node2&#45;&gt;Node4 -->
<g id="edge3_Node000002_Node000004" class="edge">
<title>Node2&#45;&gt;Node4</title>
<g id="a_edge3_Node000002_Node000004"><a xlink:title=" ">
<path fill="none" stroke="#63b8ff" d="M251.75,-54.75C244.03,-47.03 232.6,-35.6 223.28,-26.28"/>
<polygon fill="#63b8ff" stroke="#63b8ff" points="225.64,-23.69 216.09,-19.09 220.69,-28.64 225.64,-23.69"/>
</a>
</g>
</g>
<!-- Node5 -->
<g id="Node000005" class="node">
<title>Node5</title>
<g id="a_Node000005"><a xlink:title=" ">
<polygon fill="#e0e0e0" stroke="#999999" points="341,-19 288,-19 288,0 341,0 341,-19"/>
<text text-anchor="middle" x="314.5" y="-7" font-family="Helvetica,sans-Serif" font-size="10.00">QString</text>
</a>
</g>
</g>
<!-- Node2&#45;&gt;Node5 -->
<g id="edge4_Node000002_Node000005" class="edge">
<title>Node2&#45;&gt;Node5</title>
<g id="a_edge4_Node000002_Node000005"><a xlink:title=" ">
<path fill="none" stroke="#63b8ff" d="M269.42,-54.75C277.28,-47.03 288.93,-35.6 298.42,-26.28"/>
<polygon fill="#63b8ff" stroke="#63b8ff" points="301.06,-28.59 305.75,-19.09 296.16,-23.6 301.06,-28.59"/>
</a>
</g>
</g>
<!-- Node6 -->
<g id="Node000006" class="node">
<title>Node6</title>
<g id="a_Node000006"><a xlink:title=" ">
<polygon fill="#e0e0e0" stroke="#999999" points="429.5,-19 359.5,-19 359.5,0 429.5,0 429.5,-19"/>
<text text-anchor="middle" x="394.5" y="-7" font-family="Helvetica,sans-Serif" font-size="10.00">QStringList</text>
</a>
</g>
</g>
<!-- Node2&#45;&gt;Node6 -->
<g id="edge5_Node000002_Node000006" class="edge">
<title>Node2&#45;&gt;Node6</title>
<g id="a_edge5_Node000002_Node000006"><a xlink:title=" ">
<path fill="none" stroke="#63b8ff" d="M282.03,-54.98C303.97,-46.3 338.24,-32.75 363.19,-22.88"/>
<polygon fill="#63b8ff" stroke="#63b8ff" points="364.57,-26.1 372.58,-19.17 361.99,-19.59 364.57,-26.1"/>
</a>
</g>
</g>
</g>
</svg>
