<?xml version="1.0" encoding="UTF-8" standalone="no"?>
<!DOCTYPE svg PUBLIC "-//W3C//DTD SVG 1.1//EN"
 "http://www.w3.org/Graphics/SVG/1.1/DTD/svg11.dtd">
<!-- Generated by graphviz version 2.43.0 (0)
 -->
<!-- Title: services/ComponentExportTask.cpp Pages: 1 -->
<svg width="1521pt" height="368pt"
 viewBox="0.00 0.00 1520.86 368.00" xmlns="http://www.w3.org/2000/svg" xmlns:xlink="http://www.w3.org/1999/xlink">
<g id="graph0" class="graph" transform="scale(1 1) rotate(0) translate(4 364)">
<title>services/ComponentExportTask.cpp</title>
<!-- Node1 -->
<g id="Node000001" class="node">
<title>Node1</title>
<g id="a_Node000001"><a xlink:title=" ">
<polygon fill="#999999" stroke="#666666" points="911,-360 763,-360 763,-330 911,-330 911,-360"/>
<text text-anchor="start" x="771" y="-348" font-family="Helvetica,sans-Serif" font-size="10.00">services/ComponentExport</text>
<text text-anchor="middle" x="837" y="-337" font-family="Helvetica,sans-Serif" font-size="10.00">Task.cpp</text>
</a>
</g>
</g>
<!-- Node2 -->
<g id="Node000002" class="node">
<title>Node2</title>
<g id="a_Node000002"><a xlink:href="ComponentExportTask_8h.html" target="_top" xlink:title=" ">
<polygon fill="white" stroke="#666666" points="674.5,-294 539.5,-294 539.5,-275 674.5,-275 674.5,-294"/>
<text text-anchor="middle" x="607" y="-282" font-family="Helvetica,sans-Serif" font-size="10.00">ComponentExportTask.h</text>
</a>
</g>
</g>
<!-- Node1&#45;&gt;Node2 -->
<g id="edge1_Node000001_Node000002" class="edge">
<title>Node1&#45;&gt;Node2</title>
<g id="a_edge1_Node000001_Node000002"><a xlink:title=" ">
<path fill="none" stroke="#63b8ff" d="M781.91,-329.99C741.7,-319.76 687.94,-306.09 650.68,-296.61"/>
<polygon fill="#63b8ff" stroke="#63b8ff" points="651.18,-293.13 640.63,-294.05 649.46,-299.91 651.18,-293.13"/>
</a>
</g>
</g>
<!-- Node22 -->
<g id="Node000022" class="node">
<title>Node22</title>
<g id="a_Node000022"><a xlink:href="Exporter3DModel_8h.html" target="_top" xlink:title=" ">
<polygon fill="white" stroke="#666666" points="164,-239 0,-239 0,-220 164,-220 164,-239"/>
<text text-anchor="middle" x="82" y="-227" font-family="Helvetica,sans-Serif" font-size="10.00">core/kicad/Exporter3DModel.h</text>
</a>
</g>
</g>
<!-- Node1&#45;&gt;Node22 -->
<g id="edge38_Node000001_Node000022" class="edge">
<title>Node1&#45;&gt;Node22</title>
<g id="a_edge38_Node000001_Node000022"><a xlink:title=" ">
<path fill="none" stroke="#63b8ff" d="M762.89,-332.86C615.91,-310.76 289.57,-261.7 148.78,-240.54"/>
<polygon fill="#63b8ff" stroke="#63b8ff" points="148.98,-237.03 138.57,-239 147.94,-243.95 148.98,-237.03"/>
</a>
</g>
</g>
<!-- Node23 -->
<g id="Node000023" class="node">
<title>Node23</title>
<g id="a_Node000023"><a xlink:href="ExporterFootprint_8h.html" target="_top" xlink:title=" ">
<polygon fill="white" stroke="#666666" points="1031,-239 867,-239 867,-220 1031,-220 1031,-239"/>
<text text-anchor="middle" x="949" y="-227" font-family="Helvetica,sans-Serif" font-size="10.00">core/kicad/ExporterFootprint.h</text>
</a>
</g>
</g>
<!-- Node1&#45;&gt;Node23 -->
<g id="edge43_Node000001_Node000023" class="edge">
<title>Node1&#45;&gt;Node23</title>
<g id="a_edge43_Node000001_Node000023"><a xlink:title=" ">
<path fill="none" stroke="#63b8ff" d="M828.24,-329.74C820.32,-314.79 811.49,-291.27 823,-275 834.29,-259.03 851.81,-248.76 870.24,-242.15"/>
<polygon fill="#63b8ff" stroke="#63b8ff" points="871.48,-245.43 879.92,-239.03 869.33,-238.77 871.48,-245.43"/>
</a>
</g>
</g>
<!-- Node26 -->
<g id="Node000026" class="node">
<title>Node26</title>
<g id="a_Node000026"><a xlink:href="ExporterSymbol_8h.html" target="_top" xlink:title=" ">
<polygon fill="white" stroke="#666666" points="1363.5,-239 1206.5,-239 1206.5,-220 1363.5,-220 1363.5,-239"/>
<text text-anchor="middle" x="1285" y="-227" font-family="Helvetica,sans-Serif" font-size="10.00">core/kicad/ExporterSymbol.h</text>
</a>
</g>
</g>
<!-- Node1&#45;&gt;Node26 -->
<g id="edge53_Node000001_Node000026" class="edge">
<title>Node1&#45;&gt;Node26</title>
<g id="a_edge53_Node000001_Node000026"><a xlink:title=" ">
<path fill="none" stroke="#63b8ff" d="M836.55,-329.93C836.87,-313.99 840.07,-288.49 856,-275 881.37,-253.52 1077.96,-240.43 1196.02,-234.42"/>
<polygon fill="#63b8ff" stroke="#63b8ff" points="1196.33,-237.91 1206.14,-233.91 1195.98,-230.92 1196.33,-237.91"/>
</a>
</g>
</g>
<!-- Node28 -->
<g id="Node000028" class="node">
<title>Node28</title>
<g id="a_Node000028"><a xlink:title=" ">
<polygon fill="#e0e0e0" stroke="#999999" points="921,-294 865,-294 865,-275 921,-275 921,-294"/>
<text text-anchor="middle" x="893" y="-282" font-family="Helvetica,sans-Serif" font-size="10.00">QDebug</text>
</a>
</g>
</g>
<!-- Node1&#45;&gt;Node28 -->
<g id="edge62_Node000001_Node000028" class="edge">
<title>Node1&#45;&gt;Node28</title>
<g id="a_edge62_Node000001_Node000028"><a xlink:title=" ">
<path fill="none" stroke="#63b8ff" d="M850.56,-329.84C858.68,-321.35 869.05,-310.52 877.5,-301.69"/>
<polygon fill="#63b8ff" stroke="#63b8ff" points="880.22,-303.91 884.61,-294.27 875.17,-299.07 880.22,-303.91"/>
</a>
</g>
</g>
<!-- Node29 -->
<g id="Node000029" class="node">
<title>Node29</title>
<g id="a_Node000029"><a xlink:title=" ">
<polygon fill="#e0e0e0" stroke="#999999" points="977,-294 939,-294 939,-275 977,-275 977,-294"/>
<text text-anchor="middle" x="958" y="-282" font-family="Helvetica,sans-Serif" font-size="10.00">QDir</text>
</a>
</g>
</g>
<!-- Node1&#45;&gt;Node29 -->
<g id="edge63_Node000001_Node000029" class="edge">
<title>Node1&#45;&gt;Node29</title>
<g id="a_edge63_Node000001_Node000029"><a xlink:title=" ">
<path fill="none" stroke="#63b8ff" d="M865.98,-329.99C885.72,-320.45 911.67,-307.9 930.97,-298.57"/>
<polygon fill="#63b8ff" stroke="#63b8ff" points="932.65,-301.64 940.13,-294.14 929.6,-295.34 932.65,-301.64"/>
</a>
</g>
</g>
<!-- Node30 -->
<g id="Node000030" class="node">
<title>Node30</title>
<g id="a_Node000030"><a xlink:title=" ">
<polygon fill="#e0e0e0" stroke="#999999" points="1036.5,-294 995.5,-294 995.5,-275 1036.5,-275 1036.5,-294"/>
<text text-anchor="middle" x="1016" y="-282" font-family="Helvetica,sans-Serif" font-size="10.00">QFile</text>
</a>
</g>
</g>
<!-- Node1&#45;&gt;Node30 -->
<g id="edge64_Node000001_Node000030" class="edge">
<title>Node1&#45;&gt;Node30</title>
<g id="a_edge64_Node000001_Node000030"><a xlink:title=" ">
<path fill="none" stroke="#63b8ff" d="M879.87,-329.99C912.44,-319.34 956.44,-304.97 985.49,-295.47"/>
<polygon fill="#63b8ff" stroke="#63b8ff" points="986.68,-298.77 995.09,-292.33 984.5,-292.11 986.68,-298.77"/>
</a>
</g>
</g>
<!-- Node3 -->
<g id="Node000003" class="node">
<title>Node3</title>
<g id="a_Node000003"><a xlink:href="ExportService_8h.html" target="_top" xlink:title=" ">
<polygon fill="white" stroke="#666666" points="553.5,-239 460.5,-239 460.5,-220 553.5,-220 553.5,-239"/>
<text text-anchor="middle" x="507" y="-227" font-family="Helvetica,sans-Serif" font-size="10.00">ExportService.h</text>
</a>
</g>
</g>
<!-- Node2&#45;&gt;Node3 -->
<g id="edge2_Node000002_Node000003" class="edge">
<title>Node2&#45;&gt;Node3</title>
<g id="a_edge2_Node000002_Node000003"><a xlink:title=" ">
<path fill="none" stroke="#63b8ff" d="M590.93,-274.98C575.14,-266.61 550.78,-253.7 532.37,-243.95"/>
<polygon fill="#63b8ff" stroke="#63b8ff" points="533.83,-240.76 523.36,-239.17 530.56,-246.95 533.83,-240.76"/>
</a>
</g>
</g>
<!-- Node4 -->
<g id="Node000004" class="node">
<title>Node4</title>
<g id="a_Node000004"><a xlink:href="ComponentData_8h.html" target="_top" xlink:title=" ">
<polygon fill="white" stroke="#666666" points="679,-184 535,-184 535,-165 679,-165 679,-184"/>
<text text-anchor="middle" x="607" y="-172" font-family="Helvetica,sans-Serif" font-size="10.00">models/ComponentData.h</text>
</a>
</g>
</g>
<!-- Node2&#45;&gt;Node4 -->
<g id="edge35_Node000002_Node000004" class="edge">
<title>Node2&#45;&gt;Node4</title>
<g id="a_edge35_Node000002_Node000004"><a xlink:title=" ">
<path fill="none" stroke="#63b8ff" d="M607,-274.66C607,-257.17 607,-217.8 607,-194.27"/>
<polygon fill="#63b8ff" stroke="#63b8ff" points="610.5,-194.16 607,-184.16 603.5,-194.16 610.5,-194.16"/>
</a>
</g>
</g>
<!-- Node18 -->
<g id="Node000018" class="node">
<title>Node18</title>
<g id="a_Node000018"><a xlink:title=" ">
<polygon fill="#e0e0e0" stroke="#999999" points="829,-184 773,-184 773,-165 829,-165 829,-184"/>
<text text-anchor="middle" x="801" y="-172" font-family="Helvetica,sans-Serif" font-size="10.00">QObject</text>
</a>
</g>
</g>
<!-- Node2&#45;&gt;Node18 -->
<g id="edge36_Node000002_Node000018" class="edge">
<title>Node2&#45;&gt;Node18</title>
<g id="a_edge36_Node000002_Node000018"><a xlink:title=" ">
<path fill="none" stroke="#63b8ff" d="M622.55,-274.84C656.26,-256.08 736.3,-211.52 776.73,-189.01"/>
<polygon fill="#63b8ff" stroke="#63b8ff" points="778.61,-191.97 785.65,-184.05 775.21,-185.85 778.61,-191.97"/>
</a>
</g>
</g>
<!-- Node21 -->
<g id="Node000021" class="node">
<title>Node21</title>
<g id="a_Node000021"><a xlink:title=" ">
<polygon fill="#e0e0e0" stroke="#999999" points="442,-239 372,-239 372,-220 442,-220 442,-239"/>
<text text-anchor="middle" x="407" y="-227" font-family="Helvetica,sans-Serif" font-size="10.00">QRunnable</text>
</a>
</g>
</g>
<!-- Node2&#45;&gt;Node21 -->
<g id="edge37_Node000002_Node000021" class="edge">
<title>Node2&#45;&gt;Node21</title>
<g id="a_edge37_Node000002_Node000021"><a xlink:title=" ">
<path fill="none" stroke="#63b8ff" d="M574.87,-274.98C540.85,-265.97 487,-251.7 449.5,-241.76"/>
<polygon fill="#63b8ff" stroke="#63b8ff" points="449.95,-238.26 439.39,-239.08 448.16,-245.03 449.95,-238.26"/>
</a>
</g>
</g>
<!-- Node3&#45;&gt;Node4 -->
<g id="edge3_Node000003_Node000004" class="edge">
<title>Node3&#45;&gt;Node4</title>
<g id="a_edge3_Node000003_Node000004"><a xlink:title=" ">
<path fill="none" stroke="#63b8ff" d="M523.07,-219.98C538.86,-211.61 563.22,-198.7 581.63,-188.95"/>
<polygon fill="#63b8ff" stroke="#63b8ff" points="583.44,-191.95 590.64,-184.17 580.17,-185.76 583.44,-191.95"/>
</a>
</g>
</g>
<!-- Node5 -->
<g id="Node000005" class="node">
<title>Node5</title>
<g id="a_Node000005"><a xlink:href="FootprintData_8h.html" target="_top" xlink:title=" ">
<polygon fill="white" stroke="#666666" points="896,-129 804,-129 804,-110 896,-110 896,-129"/>
<text text-anchor="middle" x="850" y="-117" font-family="Helvetica,sans-Serif" font-size="10.00">FootprintData.h</text>
</a>
</g>
</g>
<!-- Node3&#45;&gt;Node5 -->
<g id="edge26_Node000003_Node000005" class="edge">
<title>Node3&#45;&gt;Node5</title>
<g id="a_edge26_Node000003_Node000005"><a xlink:title=" ">
<path fill="none" stroke="#63b8ff" d="M550.77,-219.99C587.81,-212.25 642.06,-199.66 688,-184 707.78,-177.26 711.65,-172.88 731,-165 759.42,-153.42 792.09,-141.28 816.01,-132.62"/>
<polygon fill="#63b8ff" stroke="#63b8ff" points="817.46,-135.81 825.68,-129.12 815.09,-129.23 817.46,-135.81"/>
</a>
</g>
</g>
<!-- Node6 -->
<g id="Node000006" class="node">
<title>Node6</title>
<g id="a_Node000006"><a xlink:href="Model3DData_8h.html" target="_top" xlink:title=" ">
<polygon fill="white" stroke="#666666" points="562,-74 470,-74 470,-55 562,-55 562,-74"/>
<text text-anchor="middle" x="516" y="-62" font-family="Helvetica,sans-Serif" font-size="10.00">Model3DData.h</text>
</a>
</g>
</g>
<!-- Node3&#45;&gt;Node6 -->
<g id="edge27_Node000003_Node000006" class="edge">
<title>Node3&#45;&gt;Node6</title>
<g id="a_edge27_Node000003_Node000006"><a xlink:title=" ">
<path fill="none" stroke="#63b8ff" d="M460.45,-221.12C394.44,-210.44 280.91,-191.15 275,-184 219.65,-117.02 372.62,-84.76 459.93,-72.16"/>
<polygon fill="#63b8ff" stroke="#63b8ff" points="460.55,-75.61 469.97,-70.76 459.58,-68.68 460.55,-75.61"/>
</a>
</g>
</g>
<!-- Node9 -->
<g id="Node000009" class="node">
<title>Node9</title>
<g id="a_Node000009"><a xlink:title=" ">
<polygon fill="#e0e0e0" stroke="#999999" points="888.5,-19 835.5,-19 835.5,0 888.5,0 888.5,-19"/>
<text text-anchor="middle" x="862" y="-7" font-family="Helvetica,sans-Serif" font-size="10.00">QString</text>
</a>
</g>
</g>
<!-- Node3&#45;&gt;Node9 -->
<g id="edge32_Node000003_Node000009" class="edge">
<title>Node3&#45;&gt;Node9</title>
<g id="a_edge32_Node000003_Node000009"><a xlink:title=" ">
<path fill="none" stroke="#63b8ff" d="M460.33,-220.83C389.88,-209.14 264.2,-187.83 261,-184 247.37,-167.68 255.03,-130.75 275,-110 351.55,-30.47 708.96,-14.39 825.3,-11.24"/>
<polygon fill="#63b8ff" stroke="#63b8ff" points="825.56,-14.73 835.47,-10.98 825.39,-7.74 825.56,-14.73"/>
</a>
</g>
</g>
<!-- Node13 -->
<g id="Node000013" class="node">
<title>Node13</title>
<g id="a_Node000013"><a xlink:href="SymbolData_8h.html" target="_top" xlink:title=" ">
<polygon fill="white" stroke="#666666" points="1012,-129 926,-129 926,-110 1012,-110 1012,-129"/>
<text text-anchor="middle" x="969" y="-117" font-family="Helvetica,sans-Serif" font-size="10.00">SymbolData.h</text>
</a>
</g>
</g>
<!-- Node3&#45;&gt;Node13 -->
<g id="edge28_Node000003_Node000013" class="edge">
<title>Node3&#45;&gt;Node13</title>
<g id="a_edge28_Node000003_Node000013"><a xlink:title=" ">
<path fill="none" stroke="#63b8ff" d="M553.57,-222.28C598.1,-215.55 666.74,-203.16 724,-184 742.66,-177.76 745.37,-171.35 764,-165 814.31,-147.84 873.9,-135.79 915.82,-128.59"/>
<polygon fill="#63b8ff" stroke="#63b8ff" points="916.54,-132.02 925.82,-126.91 915.38,-125.11 916.54,-132.02"/>
</a>
</g>
</g>
<!-- Node16 -->
<g id="Node000016" class="node">
<title>Node16</title>
<g id="a_Node000016"><a xlink:title=" ">
<polygon fill="#e0e0e0" stroke="#999999" points="355.5,-184 284.5,-184 284.5,-165 355.5,-165 355.5,-184"/>
<text text-anchor="middle" x="320" y="-172" font-family="Helvetica,sans-Serif" font-size="10.00">QAtomicInt</text>
</a>
</g>
</g>
<!-- Node3&#45;&gt;Node16 -->
<g id="edge29_Node000003_Node000016" class="edge">
<title>Node3&#45;&gt;Node16</title>
<g id="a_edge29_Node000003_Node000016"><a xlink:title=" ">
<path fill="none" stroke="#63b8ff" d="M476.96,-219.98C445.29,-211.01 395.23,-196.82 360.19,-186.89"/>
<polygon fill="#63b8ff" stroke="#63b8ff" points="360.86,-183.44 350.28,-184.08 358.95,-190.18 360.86,-183.44"/>
</a>
</g>
</g>
<!-- Node17 -->
<g id="Node000017" class="node">
<title>Node17</title>
<g id="a_Node000017"><a xlink:title=" ">
<polygon fill="#e0e0e0" stroke="#999999" points="428.5,-184 373.5,-184 373.5,-165 428.5,-165 428.5,-184"/>
<text text-anchor="middle" x="401" y="-172" font-family="Helvetica,sans-Serif" font-size="10.00">QMutex</text>
</a>
</g>
</g>
<!-- Node3&#45;&gt;Node17 -->
<g id="edge30_Node000003_Node000017" class="edge">
<title>Node3&#45;&gt;Node17</title>
<g id="a_edge30_Node000003_Node000017"><a xlink:title=" ">
<path fill="none" stroke="#63b8ff" d="M489.97,-219.98C473.07,-211.54 446.94,-198.47 427.36,-188.68"/>
<polygon fill="#63b8ff" stroke="#63b8ff" points="428.85,-185.51 418.34,-184.17 425.72,-191.77 428.85,-185.51"/>
</a>
</g>
</g>
<!-- Node3&#45;&gt;Node18 -->
<g id="edge31_Node000003_Node000018" class="edge">
<title>Node3&#45;&gt;Node18</title>
<g id="a_edge31_Node000003_Node000018"><a xlink:title=" ">
<path fill="none" stroke="#63b8ff" d="M553.51,-220.64C604.13,-212.01 687.41,-197.56 759,-184 760.1,-183.79 761.21,-183.58 762.33,-183.36"/>
<polygon fill="#63b8ff" stroke="#63b8ff" points="763.41,-186.72 772.55,-181.36 762.07,-179.85 763.41,-186.72"/>
</a>
</g>
</g>
<!-- Node19 -->
<g id="Node000019" class="node">
<title>Node19</title>
<g id="a_Node000019"><a xlink:title=" ">
<polygon fill="#e0e0e0" stroke="#999999" points="517,-184 447,-184 447,-165 517,-165 517,-184"/>
<text text-anchor="middle" x="482" y="-172" font-family="Helvetica,sans-Serif" font-size="10.00">QStringList</text>
</a>
</g>
</g>
<!-- Node3&#45;&gt;Node19 -->
<g id="edge33_Node000003_Node000019" class="edge">
<title>Node3&#45;&gt;Node19</title>
<g id="a_edge33_Node000003_Node000019"><a xlink:title=" ">
<path fill="none" stroke="#63b8ff" d="M502.87,-219.75C499.49,-212.57 494.58,-202.18 490.38,-193.27"/>
<polygon fill="#63b8ff" stroke="#63b8ff" points="493.48,-191.64 486.05,-184.09 487.15,-194.63 493.48,-191.64"/>
</a>
</g>
</g>
<!-- Node20 -->
<g id="Node000020" class="node">
<title>Node20</title>
<g id="a_Node000020"><a xlink:title=" ">
<polygon fill="#e0e0e0" stroke="#999999" points="189.5,-184 110.5,-184 110.5,-165 189.5,-165 189.5,-184"/>
<text text-anchor="middle" x="150" y="-172" font-family="Helvetica,sans-Serif" font-size="10.00">QThreadPool</text>
</a>
</g>
</g>
<!-- Node3&#45;&gt;Node20 -->
<g id="edge34_Node000003_Node000020" class="edge">
<title>Node3&#45;&gt;Node20</title>
<g id="a_edge34_Node000003_Node000020"><a xlink:title=" ">
<path fill="none" stroke="#63b8ff" d="M460.25,-221.38C457.12,-220.91 454.02,-220.45 451,-220 341.27,-203.68 313.68,-200.63 204,-184 202.53,-183.78 201.05,-183.55 199.54,-183.32"/>
<polygon fill="#63b8ff" stroke="#63b8ff" points="199.93,-179.84 189.51,-181.77 198.86,-186.76 199.93,-179.84"/>
</a>
</g>
</g>
<!-- Node4&#45;&gt;Node5 -->
<g id="edge4_Node000004_Node000005" class="edge">
<title>Node4&#45;&gt;Node5</title>
<g id="a_edge4_Node000004_Node000005"><a xlink:title=" ">
<path fill="none" stroke="#63b8ff" d="M646.04,-164.98C688.08,-155.82 755.04,-141.21 800.68,-131.26"/>
<polygon fill="#63b8ff" stroke="#63b8ff" points="801.63,-134.63 810.65,-129.08 800.14,-127.79 801.63,-134.63"/>
</a>
</g>
</g>
<!-- Node4&#45;&gt;Node6 -->
<g id="edge14_Node000004_Node000006" class="edge">
<title>Node4&#45;&gt;Node6</title>
<g id="a_edge14_Node000004_Node000006"><a xlink:title=" ">
<path fill="none" stroke="#63b8ff" d="M599.55,-164.66C584.35,-146.61 549.52,-105.28 529.97,-82.08"/>
<polygon fill="#63b8ff" stroke="#63b8ff" points="532.42,-79.55 523.3,-74.16 527.06,-84.06 532.42,-79.55"/>
</a>
</g>
</g>
<!-- Node8 -->
<g id="Node000008" class="node">
<title>Node8</title>
<g id="a_Node000008"><a xlink:title=" ">
<polygon fill="#e0e0e0" stroke="#999999" points="1005,-19 929,-19 929,0 1005,0 1005,-19"/>
<text text-anchor="middle" x="967" y="-7" font-family="Helvetica,sans-Serif" font-size="10.00">QJsonObject</text>
</a>
</g>
</g>
<!-- Node4&#45;&gt;Node8 -->
<g id="edge23_Node000004_Node000008" class="edge">
<title>Node4&#45;&gt;Node8</title>
<g id="a_edge23_Node000004_Node000008"><a xlink:title=" ">
<path fill="none" stroke="#63b8ff" d="M609.88,-164.85C617.84,-142.47 642.36,-82.49 685,-55 694.74,-48.72 840.88,-27.85 918.83,-17.07"/>
<polygon fill="#63b8ff" stroke="#63b8ff" points="919.47,-20.52 928.9,-15.68 918.52,-13.58 919.47,-20.52"/>
</a>
</g>
</g>
<!-- Node4&#45;&gt;Node9 -->
<g id="edge25_Node000004_Node000009" class="edge">
<title>Node4&#45;&gt;Node9</title>
<g id="a_edge25_Node000004_Node000009"><a xlink:title=" ">
<path fill="none" stroke="#63b8ff" d="M604.29,-164.71C598.21,-143.02 586.09,-86.44 614,-55 641.39,-24.16 763.01,-14.61 825.17,-11.72"/>
<polygon fill="#63b8ff" stroke="#63b8ff" points="825.49,-15.21 835.33,-11.28 825.18,-8.21 825.49,-15.21"/>
</a>
</g>
</g>
<!-- Node10 -->
<g id="Node000010" class="node">
<title>Node10</title>
<g id="a_Node000010"><a xlink:title=" ">
<polygon fill="#e0e0e0" stroke="#999999" points="765.5,-74 694.5,-74 694.5,-55 765.5,-55 765.5,-74"/>
<text text-anchor="middle" x="730" y="-62" font-family="Helvetica,sans-Serif" font-size="10.00">QJsonArray</text>
</a>
</g>
</g>
<!-- Node4&#45;&gt;Node10 -->
<g id="edge22_Node000004_Node000010" class="edge">
<title>Node4&#45;&gt;Node10</title>
<g id="a_edge22_Node000004_Node000010"><a xlink:title=" ">
<path fill="none" stroke="#63b8ff" d="M617.07,-164.66C637.98,-146.3 686.37,-103.81 712.5,-80.87"/>
<polygon fill="#63b8ff" stroke="#63b8ff" points="714.93,-83.39 720.14,-74.16 710.32,-78.13 714.93,-83.39"/>
</a>
</g>
</g>
<!-- Node4&#45;&gt;Node13 -->
<g id="edge15_Node000004_Node000013" class="edge">
<title>Node4&#45;&gt;Node13</title>
<g id="a_edge15_Node000004_Node000013"><a xlink:title=" ">
<path fill="none" stroke="#63b8ff" d="M665.16,-164.98C734.36,-154.85 848.91,-138.08 915.83,-128.28"/>
<polygon fill="#63b8ff" stroke="#63b8ff" points="916.36,-131.74 925.75,-126.83 915.35,-124.82 916.36,-131.74"/>
</a>
</g>
</g>
<!-- Node15 -->
<g id="Node000015" class="node">
<title>Node15</title>
<g id="a_Node000015"><a xlink:title=" ">
<polygon fill="#e0e0e0" stroke="#999999" points="524,-129 432,-129 432,-110 524,-110 524,-129"/>
<text text-anchor="middle" x="478" y="-117" font-family="Helvetica,sans-Serif" font-size="10.00">QSharedPointer</text>
</a>
</g>
</g>
<!-- Node4&#45;&gt;Node15 -->
<g id="edge24_Node000004_Node000015" class="edge">
<title>Node4&#45;&gt;Node15</title>
<g id="a_edge24_Node000004_Node000015"><a xlink:title=" ">
<path fill="none" stroke="#63b8ff" d="M586.27,-164.98C565.24,-156.34 532.45,-142.87 508.46,-133.02"/>
<polygon fill="#63b8ff" stroke="#63b8ff" points="509.68,-129.73 499.1,-129.17 507.02,-136.21 509.68,-129.73"/>
</a>
</g>
</g>
<!-- Node5&#45;&gt;Node6 -->
<g id="edge5_Node000005_Node000006" class="edge">
<title>Node5&#45;&gt;Node6</title>
<g id="a_edge5_Node000005_Node000006"><a xlink:title=" ">
<path fill="none" stroke="#63b8ff" d="M803.91,-111.19C743.44,-101.59 637.37,-84.76 572.24,-74.42"/>
<polygon fill="#63b8ff" stroke="#63b8ff" points="572.58,-70.93 562.15,-72.82 571.48,-77.85 572.58,-70.93"/>
</a>
</g>
</g>
<!-- Node5&#45;&gt;Node8 -->
<g id="edge10_Node000005_Node000008" class="edge">
<title>Node5&#45;&gt;Node8</title>
<g id="a_edge10_Node000005_Node000008"><a xlink:title=" ">
<path fill="none" stroke="#63b8ff" d="M838.5,-109.89C823.1,-97.29 799.2,-73.36 813,-55 825.84,-37.93 878.64,-25.33 918.87,-17.98"/>
<polygon fill="#63b8ff" stroke="#63b8ff" points="919.56,-21.41 928.8,-16.22 918.34,-14.52 919.56,-21.41"/>
</a>
</g>
</g>
<!-- Node5&#45;&gt;Node9 -->
<g id="edge13_Node000005_Node000009" class="edge">
<title>Node5&#45;&gt;Node9</title>
<g id="a_edge13_Node000005_Node000009"><a xlink:title=" ">
<path fill="none" stroke="#63b8ff" d="M808.01,-109.93C761.68,-100.06 692.6,-83.92 685,-74 679.86,-67.3 679.81,-61.66 685,-55 702.07,-33.11 778.72,-20.33 825.37,-14.45"/>
<polygon fill="#63b8ff" stroke="#63b8ff" points="825.9,-17.92 835.4,-13.24 825.05,-10.97 825.9,-17.92"/>
</a>
</g>
</g>
<!-- Node5&#45;&gt;Node10 -->
<g id="edge9_Node000005_Node000010" class="edge">
<title>Node5&#45;&gt;Node10</title>
<g id="a_edge9_Node000005_Node000010"><a xlink:title=" ">
<path fill="none" stroke="#63b8ff" d="M830.72,-109.98C811.33,-101.42 781.19,-88.11 758.93,-78.28"/>
<polygon fill="#63b8ff" stroke="#63b8ff" points="760.19,-75.01 749.63,-74.17 757.36,-81.41 760.19,-75.01"/>
</a>
</g>
</g>
<!-- Node11 -->
<g id="Node000011" class="node">
<title>Node11</title>
<g id="a_Node000011"><a xlink:title=" ">
<polygon fill="#e0e0e0" stroke="#999999" points="936.5,-74 895.5,-74 895.5,-55 936.5,-55 936.5,-74"/>
<text text-anchor="middle" x="916" y="-62" font-family="Helvetica,sans-Serif" font-size="10.00">QList</text>
</a>
</g>
</g>
<!-- Node5&#45;&gt;Node11 -->
<g id="edge11_Node000005_Node000011" class="edge">
<title>Node5&#45;&gt;Node11</title>
<g id="a_edge11_Node000005_Node000011"><a xlink:title=" ">
<path fill="none" stroke="#63b8ff" d="M860.6,-109.98C870.46,-102.07 885.35,-90.11 897.22,-80.58"/>
<polygon fill="#63b8ff" stroke="#63b8ff" points="899.6,-83.16 905.2,-74.17 895.21,-77.7 899.6,-83.16"/>
</a>
</g>
</g>
<!-- Node12 -->
<g id="Node000012" class="node">
<title>Node12</title>
<g id="a_Node000012"><a xlink:title=" ">
<polygon fill="#e0e0e0" stroke="#999999" points="877.5,-74 822.5,-74 822.5,-55 877.5,-55 877.5,-74"/>
<text text-anchor="middle" x="850" y="-62" font-family="Helvetica,sans-Serif" font-size="10.00">QPointF</text>
</a>
</g>
</g>
<!-- Node5&#45;&gt;Node12 -->
<g id="edge12_Node000005_Node000012" class="edge">
<title>Node5&#45;&gt;Node12</title>
<g id="a_edge12_Node000005_Node000012"><a xlink:title=" ">
<path fill="none" stroke="#63b8ff" d="M850,-109.75C850,-102.8 850,-92.85 850,-84.13"/>
<polygon fill="#63b8ff" stroke="#63b8ff" points="853.5,-84.09 850,-74.09 846.5,-84.09 853.5,-84.09"/>
</a>
</g>
</g>
<!-- Node7 -->
<g id="Node000007" class="node">
<title>Node7</title>
<g id="a_Node000007"><a xlink:title=" ">
<polygon fill="#e0e0e0" stroke="#999999" points="297.5,-19 224.5,-19 224.5,0 297.5,0 297.5,-19"/>
<text text-anchor="middle" x="261" y="-7" font-family="Helvetica,sans-Serif" font-size="10.00">QByteArray</text>
</a>
</g>
</g>
<!-- Node6&#45;&gt;Node7 -->
<g id="edge6_Node000006_Node000007" class="edge">
<title>Node6&#45;&gt;Node7</title>
<g id="a_edge6_Node000006_Node000007"><a xlink:title=" ">
<path fill="none" stroke="#63b8ff" d="M475.03,-54.98C429.29,-45.48 355.42,-30.12 307.53,-20.17"/>
<polygon fill="#63b8ff" stroke="#63b8ff" points="308.23,-16.74 297.73,-18.13 306.81,-23.6 308.23,-16.74"/>
</a>
</g>
</g>
<!-- Node6&#45;&gt;Node8 -->
<g id="edge7_Node000006_Node000008" class="edge">
<title>Node6&#45;&gt;Node8</title>
<g id="a_edge7_Node000006_Node000008"><a xlink:title=" ">
<path fill="none" stroke="#63b8ff" d="M562.17,-58.22C634,-49.99 776.85,-33.52 898,-19 904.68,-18.2 911.73,-17.34 918.66,-16.5"/>
<polygon fill="#63b8ff" stroke="#63b8ff" points="919.18,-19.96 928.68,-15.27 918.33,-13.01 919.18,-19.96"/>
</a>
</g>
</g>
<!-- Node6&#45;&gt;Node9 -->
<g id="edge8_Node000006_Node000009" class="edge">
<title>Node6&#45;&gt;Node9</title>
<g id="a_edge8_Node000006_Node000009"><a xlink:title=" ">
<path fill="none" stroke="#63b8ff" d="M562.3,-56.41C631.9,-45.75 762.06,-25.81 825.44,-16.1"/>
<polygon fill="#63b8ff" stroke="#63b8ff" points="826.03,-19.55 835.39,-14.58 824.97,-12.63 826.03,-19.55"/>
</a>
</g>
</g>
<!-- Node13&#45;&gt;Node8 -->
<g id="edge17_Node000013_Node000008" class="edge">
<title>Node13&#45;&gt;Node8</title>
<g id="a_edge17_Node000013_Node000008"><a xlink:title=" ">
<path fill="none" stroke="#63b8ff" d="M997.03,-109.95C1025.72,-99.6 1064.1,-80.37 1049,-55 1040.08,-40.02 1024.16,-29.76 1008.71,-22.91"/>
<polygon fill="#63b8ff" stroke="#63b8ff" points="1009.8,-19.58 999.21,-19.08 1007.17,-26.07 1009.8,-19.58"/>
</a>
</g>
</g>
<!-- Node13&#45;&gt;Node9 -->
<g id="edge21_Node000013_Node000009" class="edge">
<title>Node13&#45;&gt;Node9</title>
<g id="a_edge21_Node000013_Node000009"><a xlink:title=" ">
<path fill="none" stroke="#63b8ff" d="M983.52,-109.84C1002.22,-97.59 1030.67,-74.51 1016,-55 1001.89,-36.24 939.5,-22.88 898.59,-15.95"/>
<polygon fill="#63b8ff" stroke="#63b8ff" points="899.13,-12.49 888.69,-14.33 897.99,-19.4 899.13,-12.49"/>
</a>
</g>
</g>
<!-- Node13&#45;&gt;Node10 -->
<g id="edge16_Node000013_Node000010" class="edge">
<title>Node13&#45;&gt;Node10</title>
<g id="a_edge16_Node000013_Node000010"><a xlink:title=" ">
<path fill="none" stroke="#63b8ff" d="M930.6,-109.98C888.28,-100.6 820.26,-85.52 775.35,-75.56"/>
<polygon fill="#63b8ff" stroke="#63b8ff" points="776.09,-72.14 765.57,-73.39 774.58,-78.97 776.09,-72.14"/>
</a>
</g>
</g>
<!-- Node13&#45;&gt;Node11 -->
<g id="edge18_Node000013_Node000011" class="edge">
<title>Node13&#45;&gt;Node11</title>
<g id="a_edge18_Node000013_Node000011"><a xlink:title=" ">
<path fill="none" stroke="#63b8ff" d="M960.25,-109.75C952.53,-102.03 941.1,-90.6 931.78,-81.28"/>
<polygon fill="#63b8ff" stroke="#63b8ff" points="934.14,-78.69 924.59,-74.09 929.19,-83.64 934.14,-78.69"/>
</a>
</g>
</g>
<!-- Node13&#45;&gt;Node12 -->
<g id="edge19_Node000013_Node000012" class="edge">
<title>Node13&#45;&gt;Node12</title>
<g id="a_edge19_Node000013_Node000012"><a xlink:title=" ">
<path fill="none" stroke="#63b8ff" d="M949.88,-109.98C930.65,-101.42 900.77,-88.11 878.69,-78.28"/>
<polygon fill="#63b8ff" stroke="#63b8ff" points="880.03,-75.04 869.47,-74.17 877.18,-81.44 880.03,-75.04"/>
</a>
</g>
</g>
<!-- Node14 -->
<g id="Node000014" class="node">
<title>Node14</title>
<g id="a_Node000014"><a xlink:title=" ">
<polygon fill="#e0e0e0" stroke="#999999" points="1007,-74 955,-74 955,-55 1007,-55 1007,-74"/>
<text text-anchor="middle" x="981" y="-62" font-family="Helvetica,sans-Serif" font-size="10.00">QRectF</text>
</a>
</g>
</g>
<!-- Node13&#45;&gt;Node14 -->
<g id="edge20_Node000013_Node000014" class="edge">
<title>Node13&#45;&gt;Node14</title>
<g id="a_edge20_Node000013_Node000014"><a xlink:title=" ">
<path fill="none" stroke="#63b8ff" d="M970.98,-109.75C972.57,-102.72 974.86,-92.62 976.85,-83.84"/>
<polygon fill="#63b8ff" stroke="#63b8ff" points="980.26,-84.62 979.06,-74.09 973.43,-83.07 980.26,-84.62"/>
</a>
</g>
</g>
<!-- Node22&#45;&gt;Node6 -->
<g id="edge39_Node000022_Node000006" class="edge">
<title>Node22&#45;&gt;Node6</title>
<g id="a_edge39_Node000022_Node000006"><a xlink:title=" ">
<path fill="none" stroke="#63b8ff" d="M82.14,-219.84C82.83,-206.29 86.14,-180.09 101,-165 150.76,-114.47 358.14,-83.87 459.6,-71.65"/>
<polygon fill="#63b8ff" stroke="#63b8ff" points="460.15,-75.11 469.67,-70.46 459.33,-68.16 460.15,-75.11"/>
</a>
</g>
</g>
<!-- Node22&#45;&gt;Node7 -->
<g id="edge40_Node000022_Node000007" class="edge">
<title>Node22&#45;&gt;Node7</title>
<g id="a_edge40_Node000022_Node000007"><a xlink:title=" ">
<path fill="none" stroke="#63b8ff" d="M65.97,-219.95C53.59,-212.35 37.35,-199.97 30,-184 6.02,-131.92 -6.51,-99.21 30,-55 52.86,-27.31 153.29,-16.67 213.95,-12.71"/>
<polygon fill="#63b8ff" stroke="#63b8ff" points="214.29,-16.2 224.06,-12.09 213.86,-9.21 214.29,-16.2"/>
</a>
</g>
</g>
<!-- Node22&#45;&gt;Node9 -->
<g id="edge42_Node000022_Node000009" class="edge">
<title>Node22&#45;&gt;Node9</title>
<g id="a_edge42_Node000022_Node000009"><a xlink:title=" ">
<path fill="none" stroke="#63b8ff" d="M80.26,-219.61C78.2,-206.66 76.19,-182.3 86,-165 107.28,-127.46 127.23,-128.93 166,-110 238.88,-74.41 260.44,-70.76 340,-55 519.64,-19.41 739.62,-12.27 825.35,-10.85"/>
<polygon fill="#63b8ff" stroke="#63b8ff" points="825.42,-14.35 835.37,-10.7 825.32,-7.35 825.42,-14.35"/>
</a>
</g>
</g>
<!-- Node22&#45;&gt;Node18 -->
<g id="edge41_Node000022_Node000018" class="edge">
<title>Node22&#45;&gt;Node18</title>
<g id="a_edge41_Node000022_Node000018"><a xlink:title=" ">
<path fill="none" stroke="#63b8ff" d="M164.34,-222.5C280.91,-214 500.74,-197.92 688,-184 712.78,-182.16 740.63,-180.06 762.47,-178.42"/>
<polygon fill="#63b8ff" stroke="#63b8ff" points="762.97,-181.89 772.67,-177.64 762.44,-174.91 762.97,-181.89"/>
</a>
</g>
</g>
<!-- Node23&#45;&gt;Node5 -->
<g id="edge47_Node000023_Node000005" class="edge">
<title>Node23&#45;&gt;Node5</title>
<g id="a_edge47_Node000023_Node000005"><a xlink:title=" ">
<path fill="none" stroke="#63b8ff" d="M940.9,-219.66C924.28,-201.54 886.13,-159.91 864.91,-136.77"/>
<polygon fill="#63b8ff" stroke="#63b8ff" points="867.27,-134.16 857.94,-129.16 862.11,-138.89 867.27,-134.16"/>
</a>
</g>
</g>
<!-- Node23&#45;&gt;Node6 -->
<g id="edge48_Node000023_Node000006" class="edge">
<title>Node23&#45;&gt;Node6</title>
<g id="a_edge48_Node000023_Node000006"><a xlink:title=" ">
<path fill="none" stroke="#63b8ff" d="M936.16,-219.9C915.97,-206.68 875.27,-181.18 838,-165 743.24,-123.85 626.03,-92.14 562.41,-76.41"/>
<polygon fill="#63b8ff" stroke="#63b8ff" points="563.21,-73.01 552.67,-74.03 561.55,-79.81 563.21,-73.01"/>
</a>
</g>
</g>
<!-- Node23&#45;&gt;Node8 -->
<g id="edge49_Node000023_Node000008" class="edge">
<title>Node23&#45;&gt;Node8</title>
<g id="a_edge49_Node000023_Node000008"><a xlink:title=" ">
<path fill="none" stroke="#63b8ff" d="M1017.25,-219.94C1060.81,-212.92 1111.54,-201.28 1125,-184 1145.21,-158.05 1138.37,-140.05 1125,-110 1104.05,-62.9 1048.16,-35.92 1008.82,-22.24"/>
<polygon fill="#63b8ff" stroke="#63b8ff" points="1009.8,-18.88 999.21,-19.04 1007.59,-25.52 1009.8,-18.88"/>
</a>
</g>
</g>
<!-- Node23&#45;&gt;Node9 -->
<g id="edge51_Node000023_Node000009" class="edge">
<title>Node23&#45;&gt;Node9</title>
<g id="a_edge51_Node000023_Node000009"><a xlink:title=" ">
<path fill="none" stroke="#63b8ff" d="M1031.29,-221.14C1054.63,-214.79 1077.59,-203.58 1092,-184 1097.01,-177.2 1093.53,-173.3 1092,-165 1082.51,-113.54 1089.37,-89.48 1050,-55 1038.64,-45.05 950.22,-27.08 898.79,-17.29"/>
<polygon fill="#63b8ff" stroke="#63b8ff" points="899.2,-13.81 888.72,-15.39 897.9,-20.69 899.2,-13.81"/>
</a>
</g>
</g>
<!-- Node23&#45;&gt;Node18 -->
<g id="edge50_Node000023_Node000018" class="edge">
<title>Node23&#45;&gt;Node18</title>
<g id="a_edge50_Node000023_Node000018"><a xlink:title=" ">
<path fill="none" stroke="#63b8ff" d="M925.22,-219.98C900.77,-211.23 862.47,-197.51 834.85,-187.62"/>
<polygon fill="#63b8ff" stroke="#63b8ff" points="835.81,-184.25 825.21,-184.17 833.45,-190.84 835.81,-184.25"/>
</a>
</g>
</g>
<!-- Node24 -->
<g id="Node000024" class="node">
<title>Node24</title>
<g id="a_Node000024"><a xlink:href="FootprintGraphicsGenerator_8h.html" target="_top" xlink:title=" ">
<polygon fill="white" stroke="#666666" points="1083,-184 923,-184 923,-165 1083,-165 1083,-184"/>
<text text-anchor="middle" x="1003" y="-172" font-family="Helvetica,sans-Serif" font-size="10.00">FootprintGraphicsGenerator.h</text>
</a>
</g>
</g>
<!-- Node23&#45;&gt;Node24 -->
<g id="edge44_Node000023_Node000024" class="edge">
<title>Node23&#45;&gt;Node24</title>
<g id="a_edge44_Node000023_Node000024"><a xlink:title=" ">
<path fill="none" stroke="#63b8ff" d="M957.92,-219.75C965.78,-212.03 977.43,-200.6 986.92,-191.28"/>
<polygon fill="#63b8ff" stroke="#63b8ff" points="989.56,-193.59 994.25,-184.09 984.66,-188.6 989.56,-193.59"/>
</a>
</g>
</g>
<!-- Node25 -->
<g id="Node000025" class="node">
<title>Node25</title>
<g id="a_Node000025"><a xlink:title=" ">
<polygon fill="#e0e0e0" stroke="#999999" points="1257,-184 1177,-184 1177,-165 1257,-165 1257,-184"/>
<text text-anchor="middle" x="1217" y="-172" font-family="Helvetica,sans-Serif" font-size="10.00">QTextStream</text>
</a>
</g>
</g>
<!-- Node23&#45;&gt;Node25 -->
<g id="edge52_Node000023_Node000025" class="edge">
<title>Node23&#45;&gt;Node25</title>
<g id="a_edge52_Node000023_Node000025"><a xlink:title=" ">
<path fill="none" stroke="#63b8ff" d="M992.06,-219.98C1039.68,-210.57 1116.31,-195.41 1166.66,-185.45"/>
<polygon fill="#63b8ff" stroke="#63b8ff" points="1167.55,-188.85 1176.68,-183.47 1166.19,-181.98 1167.55,-188.85"/>
</a>
</g>
</g>
<!-- Node24&#45;&gt;Node5 -->
<g id="edge45_Node000024_Node000005" class="edge">
<title>Node24&#45;&gt;Node5</title>
<g id="a_edge45_Node000024_Node000005"><a xlink:title=" ">
<path fill="none" stroke="#63b8ff" d="M978.42,-164.98C952.95,-156.16 912.96,-142.31 884.37,-132.41"/>
<polygon fill="#63b8ff" stroke="#63b8ff" points="885.37,-129.05 874.77,-129.08 883.08,-135.66 885.37,-129.05"/>
</a>
</g>
</g>
<!-- Node24&#45;&gt;Node9 -->
<g id="edge46_Node000024_Node000009" class="edge">
<title>Node24&#45;&gt;Node9</title>
<g id="a_edge46_Node000024_Node000009"><a xlink:title=" ">
<path fill="none" stroke="#63b8ff" d="M1009.59,-164.74C1024.64,-143.61 1058.27,-89.03 1032,-55 1023.77,-44.34 946.04,-27.22 898.58,-17.62"/>
<polygon fill="#63b8ff" stroke="#63b8ff" points="899.16,-14.16 888.67,-15.63 897.78,-21.03 899.16,-14.16"/>
</a>
</g>
</g>
<!-- Node26&#45;&gt;Node8 -->
<g id="edge58_Node000026_Node000008" class="edge">
<title>Node26&#45;&gt;Node8</title>
<g id="a_edge58_Node000026_Node000008"><a xlink:title=" ">
<path fill="none" stroke="#63b8ff" d="M1363.65,-223.28C1420.6,-217.66 1490.67,-206.33 1509,-184 1514.36,-177.47 1513.71,-172.01 1509,-165 1452.9,-81.57 1137.58,-32.52 1015.39,-16.42"/>
<polygon fill="#63b8ff" stroke="#63b8ff" points="1015.57,-12.92 1005.2,-15.1 1014.67,-19.86 1015.57,-12.92"/>
</a>
</g>
</g>
<!-- Node26&#45;&gt;Node9 -->
<g id="edge60_Node000026_Node000009" class="edge">
<title>Node26&#45;&gt;Node9</title>
<g id="a_edge60_Node000026_Node000009"><a xlink:title=" ">
<path fill="none" stroke="#63b8ff" d="M1363.75,-227.4C1429.41,-223.4 1507.52,-209.58 1476,-165 1454.84,-135.07 1200.58,-63.82 1165,-55 1164.19,-54.8 979.23,-27.68 898.73,-15.88"/>
<polygon fill="#63b8ff" stroke="#63b8ff" points="898.94,-12.38 888.54,-14.39 897.93,-19.3 898.94,-12.38"/>
</a>
</g>
</g>
<!-- Node26&#45;&gt;Node13 -->
<g id="edge57_Node000026_Node000013" class="edge">
<title>Node26&#45;&gt;Node13</title>
<g id="a_edge57_Node000026_Node000013"><a xlink:title=" ">
<path fill="none" stroke="#63b8ff" d="M1285.14,-220C1284.87,-206.19 1282.17,-179.02 1266,-165 1230.5,-134.21 1097.72,-124.72 1022.27,-121.8"/>
<polygon fill="#63b8ff" stroke="#63b8ff" points="1022.14,-118.29 1012.02,-121.43 1021.89,-125.28 1022.14,-118.29"/>
</a>
</g>
</g>
<!-- Node26&#45;&gt;Node18 -->
<g id="edge59_Node000026_Node000018" class="edge">
<title>Node26&#45;&gt;Node18</title>
<g id="a_edge59_Node000026_Node000018"><a xlink:title=" ">
<path fill="none" stroke="#63b8ff" d="M1207.24,-219.98C1102,-208.46 918.31,-188.35 839.12,-179.67"/>
<polygon fill="#63b8ff" stroke="#63b8ff" points="839.42,-176.19 829.1,-178.58 838.66,-183.15 839.42,-176.19"/>
</a>
</g>
</g>
<!-- Node26&#45;&gt;Node25 -->
<g id="edge61_Node000026_Node000025" class="edge">
<title>Node26&#45;&gt;Node25</title>
<g id="a_edge61_Node000026_Node000025"><a xlink:title=" ">
<path fill="none" stroke="#63b8ff" d="M1274.07,-219.98C1263.92,-212.07 1248.58,-200.11 1236.35,-190.58"/>
<polygon fill="#63b8ff" stroke="#63b8ff" points="1238.16,-187.56 1228.12,-184.17 1233.86,-193.08 1238.16,-187.56"/>
</a>
</g>
</g>
<!-- Node27 -->
<g id="Node000027" class="node">
<title>Node27</title>
<g id="a_Node000027"><a xlink:href="SymbolGraphicsGenerator_8h.html" target="_top" xlink:title=" ">
<polygon fill="white" stroke="#666666" points="1466.5,-184 1313.5,-184 1313.5,-165 1466.5,-165 1466.5,-184"/>
<text text-anchor="middle" x="1390" y="-172" font-family="Helvetica,sans-Serif" font-size="10.00">SymbolGraphicsGenerator.h</text>
</a>
</g>
</g>
<!-- Node26&#45;&gt;Node27 -->
<g id="edge54_Node000026_Node000027" class="edge">
<title>Node26&#45;&gt;Node27</title>
<g id="a_edge54_Node000026_Node000027"><a xlink:title=" ">
<path fill="none" stroke="#63b8ff" d="M1301.87,-219.98C1318.61,-211.54 1344.5,-198.47 1363.89,-188.68"/>
<polygon fill="#63b8ff" stroke="#63b8ff" points="1365.47,-191.8 1372.82,-184.17 1362.32,-185.55 1365.47,-191.8"/>
</a>
</g>
</g>
<!-- Node27&#45;&gt;Node9 -->
<g id="edge56_Node000027_Node000009" class="edge">
<title>Node27&#45;&gt;Node9</title>
<g id="a_edge56_Node000027_Node000009"><a xlink:title=" ">
<path fill="none" stroke="#63b8ff" d="M1374.7,-164.99C1334.87,-143.2 1224.12,-85.02 1125,-55 1103.7,-48.55 966.12,-26.7 898.88,-16.21"/>
<polygon fill="#63b8ff" stroke="#63b8ff" points="899.14,-12.71 888.72,-14.63 898.06,-19.62 899.14,-12.71"/>
</a>
</g>
</g>
<!-- Node27&#45;&gt;Node13 -->
<g id="edge55_Node000027_Node000013" class="edge">
<title>Node27&#45;&gt;Node13</title>
<g id="a_edge55_Node000027_Node000013"><a xlink:title=" ">
<path fill="none" stroke="#63b8ff" d="M1322.36,-164.98C1238.89,-154.48 1098.68,-136.83 1022.38,-127.22"/>
<polygon fill="#63b8ff" stroke="#63b8ff" points="1022.41,-123.7 1012.05,-125.92 1021.54,-130.64 1022.41,-123.7"/>
</a>
</g>
</g>
</g>
</svg>
