<?xml version="1.0" encoding="UTF-8" standalone="no"?>
<!DOCTYPE svg PUBLIC "-//W3C//DTD SVG 1.1//EN"
 "http://www.w3.org/Graphics/SVG/1.1/DTD/svg11.dtd">
<!-- Generated by graphviz version 2.43.0 (0)
 -->
<!-- Title: models/ComponentData.h Pages: 1 -->
<svg width="1994pt" height="357pt"
 viewBox="0.00 0.00 1993.50 357.00" xmlns="http://www.w3.org/2000/svg" xmlns:xlink="http://www.w3.org/1999/xlink">
<g id="graph0" class="graph" transform="scale(1 1) rotate(0) translate(4 353)">
<title>models/ComponentData.h</title>
<!-- Node1 -->
<g id="Node000001" class="node">
<title>Node1</title>
<g id="a_Node000001"><a xlink:title=" ">
<polygon fill="#999999" stroke="#666666" points="937,-349 793,-349 793,-330 937,-330 937,-349"/>
<text text-anchor="middle" x="865" y="-337" font-family="Helvetica,sans-Serif" font-size="10.00">models/ComponentData.h</text>
</a>
</g>
</g>
<!-- Node2 -->
<g id="Node000002" class="node">
<title>Node2</title>
<g id="a_Node000002"><a xlink:href="ComponentData_8cpp.html" target="_top" xlink:title=" ">
<polygon fill="white" stroke="#666666" points="180.5,-288.5 25.5,-288.5 25.5,-269.5 180.5,-269.5 180.5,-288.5"/>
<text text-anchor="middle" x="103" y="-276.5" font-family="Helvetica,sans-Serif" font-size="10.00">models/ComponentData.cpp</text>
</a>
</g>
</g>
<!-- Node1&#45;&gt;Node2 -->
<g id="edge1_Node000001_Node000002" class="edge">
<title>Node1&#45;&gt;Node2</title>
<g id="a_edge1_Node000001_Node000002"><a xlink:title=" ">
<path fill="none" stroke="#63b8ff" d="M782.81,-335.57C655.49,-330.46 403.04,-318.11 190,-294 177.23,-292.55 163.47,-290.55 150.75,-288.51"/>
<polygon fill="#63b8ff" stroke="#63b8ff" points="782.75,-339.07 792.88,-335.97 783.02,-332.07 782.75,-339.07"/>
</a>
</g>
</g>
<!-- Node3 -->
<g id="Node000003" class="node">
<title>Node3</title>
<g id="a_Node000003"><a xlink:href="ComponentExportStatus_8h.html" target="_top" xlink:title=" ">
<polygon fill="white" stroke="#666666" points="1331.5,-288.5 1148.5,-288.5 1148.5,-269.5 1331.5,-269.5 1331.5,-288.5"/>
<text text-anchor="middle" x="1240" y="-276.5" font-family="Helvetica,sans-Serif" font-size="10.00">models/ComponentExportStatus.h</text>
</a>
</g>
</g>
<!-- Node1&#45;&gt;Node3 -->
<g id="edge2_Node000001_Node000003" class="edge">
<title>Node1&#45;&gt;Node3</title>
<g id="a_edge2_Node000001_Node000003"><a xlink:title=" ">
<path fill="none" stroke="#63b8ff" d="M929.42,-328.45C1001.63,-317.19 1117.47,-299.11 1185.41,-288.52"/>
<polygon fill="#63b8ff" stroke="#63b8ff" points="928.87,-324.99 919.53,-329.99 929.95,-331.91 928.87,-324.99"/>
</a>
</g>
</g>
<!-- Node16 -->
<g id="Node000016" class="node">
<title>Node16</title>
<g id="a_Node000016"><a xlink:href="ComponentListItemData_8h.html" target="_top" xlink:title=" ">
<polygon fill="white" stroke="#666666" points="351,-294 199,-294 199,-264 351,-264 351,-294"/>
<text text-anchor="start" x="207" y="-282" font-family="Helvetica,sans-Serif" font-size="10.00">models/ComponentListItem</text>
<text text-anchor="middle" x="275" y="-271" font-family="Helvetica,sans-Serif" font-size="10.00">Data.h</text>
</a>
</g>
</g>
<!-- Node1&#45;&gt;Node16 -->
<g id="edge21_Node000001_Node000016" class="edge">
<title>Node1&#45;&gt;Node16</title>
<g id="a_edge21_Node000001_Node000016"><a xlink:title=" ">
<path fill="none" stroke="#63b8ff" d="M782.56,-330.75C690.67,-322.06 537.66,-307.42 406,-294 388.25,-292.19 369.16,-290.19 351.18,-288.27"/>
<polygon fill="#63b8ff" stroke="#63b8ff" points="782.35,-334.25 792.63,-331.71 783.01,-327.28 782.35,-334.25"/>
</a>
</g>
</g>
<!-- Node20 -->
<g id="Node000020" class="node">
<title>Node20</title>
<g id="a_Node000020"><a xlink:href="ComponentDataCollector_8h.html" target="_top" xlink:title=" ">
<polygon fill="white" stroke="#666666" points="1679.5,-288.5 1488.5,-288.5 1488.5,-269.5 1679.5,-269.5 1679.5,-288.5"/>
<text text-anchor="middle" x="1584" y="-276.5" font-family="Helvetica,sans-Serif" font-size="10.00">services/ComponentDataCollector.h</text>
</a>
</g>
</g>
<!-- Node1&#45;&gt;Node20 -->
<g id="edge27_Node000001_Node000020" class="edge">
<title>Node1&#45;&gt;Node20</title>
<g id="a_edge27_Node000001_Node000020"><a xlink:title=" ">
<path fill="none" stroke="#63b8ff" d="M947.44,-331.79C1081.53,-320.88 1346.14,-299.35 1488.31,-287.79"/>
<polygon fill="#63b8ff" stroke="#63b8ff" points="946.92,-328.32 937.23,-332.62 947.48,-335.3 946.92,-328.32"/>
</a>
</g>
</g>
<!-- Node22 -->
<g id="Node000022" class="node">
<title>Node22</title>
<g id="a_Node000022"><a xlink:href="ComponentExportTask_8h.html" target="_top" xlink:title=" ">
<polygon fill="white" stroke="#666666" points="1036,-228 888,-228 888,-198 1036,-198 1036,-228"/>
<text text-anchor="start" x="896" y="-216" font-family="Helvetica,sans-Serif" font-size="10.00">services/ComponentExport</text>
<text text-anchor="middle" x="962" y="-205" font-family="Helvetica,sans-Serif" font-size="10.00">Task.h</text>
</a>
</g>
</g>
<!-- Node1&#45;&gt;Node22 -->
<g id="edge29_Node000001_Node000022" class="edge">
<title>Node1&#45;&gt;Node22</title>
<g id="a_edge29_Node000001_Node000022"><a xlink:title=" ">
<path fill="none" stroke="#63b8ff" d="M900,-325.59C914.97,-318.42 931.4,-308.06 942,-294 956.73,-274.45 960.71,-245.32 961.72,-228.14"/>
<polygon fill="#63b8ff" stroke="#63b8ff" points="898.16,-322.58 890.45,-329.85 901.01,-328.97 898.16,-322.58"/>
</a>
</g>
</g>
<!-- Node25 -->
<g id="Node000025" class="node">
<title>Node25</title>
<g id="a_Node000025"><a xlink:href="ComponentService_8h.html" target="_top" xlink:title=" ">
<polygon fill="white" stroke="#666666" points="576.5,-288.5 415.5,-288.5 415.5,-269.5 576.5,-269.5 576.5,-288.5"/>
<text text-anchor="middle" x="496" y="-276.5" font-family="Helvetica,sans-Serif" font-size="10.00">services/ComponentService.h</text>
</a>
</g>
</g>
<!-- Node1&#45;&gt;Node25 -->
<g id="edge32_Node000001_Node000025" class="edge">
<title>Node1&#45;&gt;Node25</title>
<g id="a_edge32_Node000001_Node000025"><a xlink:title=" ">
<path fill="none" stroke="#63b8ff" d="M801.18,-328.38C730.09,-317.11 616.43,-299.09 549.72,-288.52"/>
<polygon fill="#63b8ff" stroke="#63b8ff" points="800.92,-331.88 811.34,-329.99 802.02,-324.97 800.92,-331.88"/>
</a>
</g>
</g>
<!-- Node27 -->
<g id="Node000027" class="node">
<title>Node27</title>
<g id="a_Node000027"><a xlink:href="ExportService_8h.html" target="_top" xlink:title=" ">
<polygon fill="white" stroke="#666666" points="933.5,-288.5 796.5,-288.5 796.5,-269.5 933.5,-269.5 933.5,-288.5"/>
<text text-anchor="middle" x="865" y="-276.5" font-family="Helvetica,sans-Serif" font-size="10.00">services/ExportService.h</text>
</a>
</g>
</g>
<!-- Node1&#45;&gt;Node27 -->
<g id="edge36_Node000001_Node000027" class="edge">
<title>Node1&#45;&gt;Node27</title>
<g id="a_edge36_Node000001_Node000027"><a xlink:title=" ">
<path fill="none" stroke="#63b8ff" d="M865,-319.66C865,-309.24 865,-296.8 865,-288.67"/>
<polygon fill="#63b8ff" stroke="#63b8ff" points="861.5,-319.87 865,-329.87 868.5,-319.87 861.5,-319.87"/>
</a>
</g>
</g>
<!-- Node28 -->
<g id="Node000028" class="node">
<title>Node28</title>
<g id="a_Node000028"><a xlink:href="ThumbnailGenerator_8h.html" target="_top" xlink:title=" ">
<polygon fill="white" stroke="#666666" points="778.5,-288.5 617.5,-288.5 617.5,-269.5 778.5,-269.5 778.5,-288.5"/>
<text text-anchor="middle" x="698" y="-276.5" font-family="Helvetica,sans-Serif" font-size="10.00">ui/utils/ThumbnailGenerator.h</text>
</a>
</g>
</g>
<!-- Node1&#45;&gt;Node28 -->
<g id="edge41_Node000001_Node000028" class="edge">
<title>Node1&#45;&gt;Node28</title>
<g id="a_edge41_Node000001_Node000028"><a xlink:title=" ">
<path fill="none" stroke="#63b8ff" d="M831.23,-326.67C798.94,-315.36 751.02,-298.57 722.31,-288.52"/>
<polygon fill="#63b8ff" stroke="#63b8ff" points="830.12,-329.99 840.72,-329.99 832.44,-323.38 830.12,-329.99"/>
</a>
</g>
</g>
<!-- Node30 -->
<g id="Node000030" class="node">
<title>Node30</title>
<g id="a_Node000030"><a xlink:href="ExportWorker_8h.html" target="_top" xlink:title=" ">
<polygon fill="white" stroke="#666666" points="1903.5,-288.5 1772.5,-288.5 1772.5,-269.5 1903.5,-269.5 1903.5,-288.5"/>
<text text-anchor="middle" x="1838" y="-276.5" font-family="Helvetica,sans-Serif" font-size="10.00">workers/ExportWorker.h</text>
</a>
</g>
</g>
<!-- Node1&#45;&gt;Node30 -->
<g id="edge44_Node000001_Node000030" class="edge">
<title>Node1&#45;&gt;Node30</title>
<g id="a_edge44_Node000001_Node000030"><a xlink:title=" ">
<path fill="none" stroke="#63b8ff" d="M947.65,-335.12C1096.16,-328.82 1417.97,-314.04 1689,-294 1716.34,-291.98 1746.45,-289.25 1772.4,-286.73"/>
<polygon fill="#63b8ff" stroke="#63b8ff" points="947.1,-331.64 937.26,-335.56 947.4,-338.64 947.1,-331.64"/>
</a>
</g>
</g>
<!-- Node4 -->
<g id="Node000004" class="node">
<title>Node4</title>
<g id="a_Node000004"><a xlink:href="ExportService__Pipeline_8h.html" target="_top" xlink:title=" ">
<polygon fill="white" stroke="#666666" points="1168,-162 1040,-162 1040,-132 1168,-132 1168,-162"/>
<text text-anchor="start" x="1048" y="-150" font-family="Helvetica,sans-Serif" font-size="10.00">services/ExportService</text>
<text text-anchor="middle" x="1104" y="-139" font-family="Helvetica,sans-Serif" font-size="10.00">_Pipeline.h</text>
</a>
</g>
</g>
<!-- Node3&#45;&gt;Node4 -->
<g id="edge3_Node000003_Node000004" class="edge">
<title>Node3&#45;&gt;Node4</title>
<g id="a_edge3_Node000003_Node000004"><a xlink:title=" ">
<path fill="none" stroke="#63b8ff" d="M1216.46,-264.1C1201.74,-254.84 1182.83,-241.85 1168,-228 1145.91,-207.36 1124.93,-178.85 1113.34,-162.03"/>
<polygon fill="#63b8ff" stroke="#63b8ff" points="1214.66,-267.1 1225.01,-269.36 1218.33,-261.14 1214.66,-267.1"/>
</a>
</g>
</g>
<!-- Node10 -->
<g id="Node000010" class="node">
<title>Node10</title>
<g id="a_Node000010"><a xlink:href="FetchWorker_8h.html" target="_top" xlink:title=" ">
<polygon fill="white" stroke="#666666" points="1303,-222.5 1177,-222.5 1177,-203.5 1303,-203.5 1303,-222.5"/>
<text text-anchor="middle" x="1240" y="-210.5" font-family="Helvetica,sans-Serif" font-size="10.00">workers/FetchWorker.h</text>
</a>
</g>
</g>
<!-- Node3&#45;&gt;Node10 -->
<g id="edge11_Node000003_Node000010" class="edge">
<title>Node3&#45;&gt;Node10</title>
<g id="a_edge11_Node000003_Node000010"><a xlink:title=" ">
<path fill="none" stroke="#63b8ff" d="M1240,-259.08C1240,-247.13 1240,-232.22 1240,-222.91"/>
<polygon fill="#63b8ff" stroke="#63b8ff" points="1236.5,-259.37 1240,-269.37 1243.5,-259.37 1236.5,-259.37"/>
</a>
</g>
</g>
<!-- Node12 -->
<g id="Node000012" class="node">
<title>Node12</title>
<g id="a_Node000012"><a xlink:href="ProcessWorker_8h.html" target="_top" xlink:title=" ">
<polygon fill="white" stroke="#666666" points="1458.5,-222.5 1321.5,-222.5 1321.5,-203.5 1458.5,-203.5 1458.5,-222.5"/>
<text text-anchor="middle" x="1390" y="-210.5" font-family="Helvetica,sans-Serif" font-size="10.00">workers/ProcessWorker.h</text>
</a>
</g>
</g>
<!-- Node3&#45;&gt;Node12 -->
<g id="edge15_Node000003_Node000012" class="edge">
<title>Node3&#45;&gt;Node12</title>
<g id="a_edge15_Node000003_Node000012"><a xlink:title=" ">
<path fill="none" stroke="#63b8ff" d="M1269.63,-265.36C1299.19,-252.75 1343.81,-233.71 1369.61,-222.7"/>
<polygon fill="#63b8ff" stroke="#63b8ff" points="1268.05,-262.23 1260.23,-269.37 1270.8,-268.66 1268.05,-262.23"/>
</a>
</g>
</g>
<!-- Node14 -->
<g id="Node000014" class="node">
<title>Node14</title>
<g id="a_Node000014"><a xlink:href="WriteWorker_8h.html" target="_top" xlink:title=" ">
<polygon fill="white" stroke="#666666" points="1603,-222.5 1477,-222.5 1477,-203.5 1603,-203.5 1603,-222.5"/>
<text text-anchor="middle" x="1540" y="-210.5" font-family="Helvetica,sans-Serif" font-size="10.00">workers/WriteWorker.h</text>
</a>
</g>
</g>
<!-- Node3&#45;&gt;Node14 -->
<g id="edge18_Node000003_Node000014" class="edge">
<title>Node3&#45;&gt;Node14</title>
<g id="a_edge18_Node000003_Node000014"><a xlink:title=" ">
<path fill="none" stroke="#63b8ff" d="M1289.99,-267.34C1348.98,-254.75 1445.88,-234.08 1500.09,-222.51"/>
<polygon fill="#63b8ff" stroke="#63b8ff" points="1289.2,-263.93 1280.15,-269.44 1290.66,-270.77 1289.2,-263.93"/>
</a>
</g>
</g>
<!-- Node5 -->
<g id="Node000005" class="node">
<title>Node5</title>
<g id="a_Node000005"><a xlink:href="main_8cpp.html" target="_top" xlink:title=" ">
<polygon fill="white" stroke="#666666" points="711,-24.5 649,-24.5 649,-5.5 711,-5.5 711,-24.5"/>
<text text-anchor="middle" x="680" y="-12.5" font-family="Helvetica,sans-Serif" font-size="10.00">main.cpp</text>
</a>
</g>
</g>
<!-- Node4&#45;&gt;Node5 -->
<g id="edge4_Node000004_Node000005" class="edge">
<title>Node4&#45;&gt;Node5</title>
<g id="a_edge4_Node000004_Node000005"><a xlink:title=" ">
<path fill="none" stroke="#63b8ff" d="M1048.56,-129C956.84,-100.88 776.8,-45.68 707.81,-24.53"/>
<polygon fill="#63b8ff" stroke="#63b8ff" points="1047.64,-132.38 1058.22,-131.96 1049.69,-125.69 1047.64,-132.38"/>
</a>
</g>
</g>
<!-- Node6 -->
<g id="Node000006" class="node">
<title>Node6</title>
<g id="a_Node000006"><a xlink:href="ExportService__Pipeline_8cpp.html" target="_top" xlink:title=" ">
<polygon fill="white" stroke="#666666" points="1435,-96 1307,-96 1307,-66 1435,-66 1435,-96"/>
<text text-anchor="start" x="1315" y="-84" font-family="Helvetica,sans-Serif" font-size="10.00">services/ExportService</text>
<text text-anchor="middle" x="1371" y="-73" font-family="Helvetica,sans-Serif" font-size="10.00">_Pipeline.cpp</text>
</a>
</g>
</g>
<!-- Node4&#45;&gt;Node6 -->
<g id="edge5_Node000004_Node000006" class="edge">
<title>Node4&#45;&gt;Node6</title>
<g id="a_edge5_Node000004_Node000006"><a xlink:title=" ">
<path fill="none" stroke="#63b8ff" d="M1172.49,-129.58C1215.83,-119.19 1271.27,-105.9 1312.54,-96.01"/>
<polygon fill="#63b8ff" stroke="#63b8ff" points="1171.5,-126.22 1162.59,-131.95 1173.13,-133.03 1171.5,-126.22"/>
</a>
</g>
</g>
<!-- Node7 -->
<g id="Node000007" class="node">
<title>Node7</title>
<g id="a_Node000007"><a xlink:href="ExportProgressViewModel_8cpp.html" target="_top" xlink:title=" ">
<polygon fill="white" stroke="#666666" points="964,-30 800,-30 800,0 964,0 964,-30"/>
<text text-anchor="start" x="808" y="-18" font-family="Helvetica,sans-Serif" font-size="10.00">ui/viewmodels/ExportProgress</text>
<text text-anchor="middle" x="882" y="-7" font-family="Helvetica,sans-Serif" font-size="10.00">ViewModel.cpp</text>
</a>
</g>
</g>
<!-- Node4&#45;&gt;Node7 -->
<g id="edge6_Node000004_Node000007" class="edge">
<title>Node4&#45;&gt;Node7</title>
<g id="a_edge6_Node000004_Node000007"><a xlink:title=" ">
<path fill="none" stroke="#63b8ff" d="M1068.97,-126.94C1052.24,-117.74 1032,-106.45 1014,-96 975.3,-73.53 930.92,-46.33 904.74,-30.14"/>
<polygon fill="#63b8ff" stroke="#63b8ff" points="1067.41,-130.08 1077.86,-131.82 1070.78,-123.94 1067.41,-130.08"/>
</a>
</g>
</g>
<!-- Node8 -->
<g id="Node000008" class="node">
<title>Node8</title>
<g id="a_Node000008"><a xlink:href="ExportProgressViewModel_8h.html" target="_top" xlink:title=" ">
<polygon fill="white" stroke="#666666" points="762,-96 598,-96 598,-66 762,-66 762,-96"/>
<text text-anchor="start" x="606" y="-84" font-family="Helvetica,sans-Serif" font-size="10.00">ui/viewmodels/ExportProgress</text>
<text text-anchor="middle" x="680" y="-73" font-family="Helvetica,sans-Serif" font-size="10.00">ViewModel.h</text>
</a>
</g>
</g>
<!-- Node4&#45;&gt;Node8 -->
<g id="edge7_Node000004_Node000008" class="edge">
<title>Node4&#45;&gt;Node8</title>
<g id="a_edge7_Node000004_Node000008"><a xlink:title=" ">
<path fill="none" stroke="#63b8ff" d="M1029.88,-131.86C932.18,-115.7 830.96,-101.68 762.09,-92.56"/>
<polygon fill="#63b8ff" stroke="#63b8ff" points="1029.5,-135.34 1039.94,-133.53 1030.65,-128.44 1029.5,-135.34"/>
</a>
</g>
</g>
<!-- Node9 -->
<g id="Node000009" class="node">
<title>Node9</title>
<g id="a_Node000009"><a xlink:href="ExportSettingsViewModel_8cpp.html" target="_top" xlink:title=" ">
<polygon fill="white" stroke="#666666" points="1185,-96 1023,-96 1023,-66 1185,-66 1185,-96"/>
<text text-anchor="start" x="1031" y="-84" font-family="Helvetica,sans-Serif" font-size="10.00">ui/viewmodels/ExportSettings</text>
<text text-anchor="middle" x="1104" y="-73" font-family="Helvetica,sans-Serif" font-size="10.00">ViewModel.cpp</text>
</a>
</g>
</g>
<!-- Node4&#45;&gt;Node9 -->
<g id="edge10_Node000004_Node000009" class="edge">
<title>Node4&#45;&gt;Node9</title>
<g id="a_edge10_Node000004_Node000009"><a xlink:title=" ">
<path fill="none" stroke="#63b8ff" d="M1104,-121.54C1104,-112.96 1104,-103.61 1104,-96.16"/>
<polygon fill="#63b8ff" stroke="#63b8ff" points="1100.5,-121.8 1104,-131.8 1107.5,-121.8 1100.5,-121.8"/>
</a>
</g>
</g>
<!-- Node8&#45;&gt;Node5 -->
<g id="edge8_Node000008_Node000005" class="edge">
<title>Node8&#45;&gt;Node5</title>
<g id="a_edge8_Node000008_Node000005"><a xlink:title=" ">
<path fill="none" stroke="#63b8ff" d="M680,-55.6C680,-44.8 680,-32.78 680,-24.84"/>
<polygon fill="#63b8ff" stroke="#63b8ff" points="676.5,-55.8 680,-65.8 683.5,-55.8 676.5,-55.8"/>
</a>
</g>
</g>
<!-- Node8&#45;&gt;Node7 -->
<g id="edge9_Node000008_Node000007" class="edge">
<title>Node8&#45;&gt;Node7</title>
<g id="a_edge9_Node000008_Node000007"><a xlink:title=" ">
<path fill="none" stroke="#63b8ff" d="M734.11,-62.86C766.55,-52.58 807.27,-39.68 837.77,-30.01"/>
<polygon fill="#63b8ff" stroke="#63b8ff" points="732.81,-59.6 724.33,-65.95 734.92,-66.27 732.81,-59.6"/>
</a>
</g>
</g>
<!-- Node10&#45;&gt;Node4 -->
<g id="edge13_Node000010_Node000004" class="edge">
<title>Node10&#45;&gt;Node4</title>
<g id="a_edge13_Node000010_Node000004"><a xlink:title=" ">
<path fill="none" stroke="#63b8ff" d="M1212.54,-199.08C1189.77,-188.36 1157.44,-173.15 1134,-162.12"/>
<polygon fill="#63b8ff" stroke="#63b8ff" points="1211.12,-202.28 1221.66,-203.37 1214.1,-195.94 1211.12,-202.28"/>
</a>
</g>
</g>
<!-- Node10&#45;&gt;Node6 -->
<g id="edge12_Node000010_Node000006" class="edge">
<title>Node10&#45;&gt;Node6</title>
<g id="a_edge12_Node000010_Node000006"><a xlink:title=" ">
<path fill="none" stroke="#63b8ff" d="M1274.43,-199.39C1293.32,-191.09 1316.05,-178.67 1332,-162 1350.27,-142.91 1361.53,-113.63 1367,-96.29"/>
<polygon fill="#63b8ff" stroke="#63b8ff" points="1272.84,-196.26 1264.97,-203.35 1275.54,-202.72 1272.84,-196.26"/>
</a>
</g>
</g>
<!-- Node11 -->
<g id="Node000011" class="node">
<title>Node11</title>
<g id="a_Node000011"><a xlink:href="FetchWorker_8cpp.html" target="_top" xlink:title=" ">
<polygon fill="white" stroke="#666666" points="1323.5,-156.5 1186.5,-156.5 1186.5,-137.5 1323.5,-137.5 1323.5,-156.5"/>
<text text-anchor="middle" x="1255" y="-144.5" font-family="Helvetica,sans-Serif" font-size="10.00">workers/FetchWorker.cpp</text>
</a>
</g>
</g>
<!-- Node10&#45;&gt;Node11 -->
<g id="edge14_Node000010_Node000011" class="edge">
<title>Node10&#45;&gt;Node11</title>
<g id="a_edge14_Node000010_Node000011"><a xlink:title=" ">
<path fill="none" stroke="#63b8ff" d="M1244.35,-193.45C1247.16,-181.43 1250.71,-166.32 1252.91,-156.91"/>
<polygon fill="#63b8ff" stroke="#63b8ff" points="1240.9,-192.83 1242.02,-203.37 1247.71,-194.43 1240.9,-192.83"/>
</a>
</g>
</g>
<!-- Node12&#45;&gt;Node6 -->
<g id="edge16_Node000012_Node000006" class="edge">
<title>Node12&#45;&gt;Node6</title>
<g id="a_edge16_Node000012_Node000006"><a xlink:title=" ">
<path fill="none" stroke="#63b8ff" d="M1387.27,-193.32C1383.42,-167 1376.5,-119.61 1373.06,-96.07"/>
<polygon fill="#63b8ff" stroke="#63b8ff" points="1383.84,-194.08 1388.75,-203.47 1390.77,-193.07 1383.84,-194.08"/>
</a>
</g>
</g>
<!-- Node13 -->
<g id="Node000013" class="node">
<title>Node13</title>
<g id="a_Node000013"><a xlink:href="ProcessWorker_8cpp.html" target="_top" xlink:title=" ">
<polygon fill="white" stroke="#666666" points="1566.5,-156.5 1417.5,-156.5 1417.5,-137.5 1566.5,-137.5 1566.5,-156.5"/>
<text text-anchor="middle" x="1492" y="-144.5" font-family="Helvetica,sans-Serif" font-size="10.00">workers/ProcessWorker.cpp</text>
</a>
</g>
</g>
<!-- Node12&#45;&gt;Node13 -->
<g id="edge17_Node000012_Node000013" class="edge">
<title>Node12&#45;&gt;Node13</title>
<g id="a_edge17_Node000012_Node000013"><a xlink:title=" ">
<path fill="none" stroke="#63b8ff" d="M1412.28,-198.02C1432.34,-185.43 1461.2,-167.32 1478.14,-156.7"/>
<polygon fill="#63b8ff" stroke="#63b8ff" points="1410.37,-195.09 1403.76,-203.37 1414.09,-201.02 1410.37,-195.09"/>
</a>
</g>
</g>
<!-- Node14&#45;&gt;Node6 -->
<g id="edge19_Node000014_Node000006" class="edge">
<title>Node14&#45;&gt;Node6</title>
<g id="a_edge19_Node000014_Node000006"><a xlink:title=" ">
<path fill="none" stroke="#63b8ff" d="M1593.93,-201.38C1647.37,-190.3 1722.47,-173.06 1731,-162 1739.15,-151.45 1739.76,-142.06 1731,-132 1693.4,-88.81 1528.16,-81.73 1435.17,-81.27"/>
<polygon fill="#63b8ff" stroke="#63b8ff" points="1592.99,-198 1583.89,-203.44 1594.39,-204.85 1592.99,-198"/>
</a>
</g>
</g>
<!-- Node15 -->
<g id="Node000015" class="node">
<title>Node15</title>
<g id="a_Node000015"><a xlink:href="WriteWorker_8cpp.html" target="_top" xlink:title=" ">
<polygon fill="white" stroke="#666666" points="1721.5,-156.5 1584.5,-156.5 1584.5,-137.5 1721.5,-137.5 1721.5,-156.5"/>
<text text-anchor="middle" x="1653" y="-144.5" font-family="Helvetica,sans-Serif" font-size="10.00">workers/WriteWorker.cpp</text>
</a>
</g>
</g>
<!-- Node14&#45;&gt;Node15 -->
<g id="edge20_Node000014_Node000015" class="edge">
<title>Node14&#45;&gt;Node15</title>
<g id="a_edge20_Node000014_Node000015"><a xlink:title=" ">
<path fill="none" stroke="#63b8ff" d="M1564.09,-198.36C1586.33,-185.76 1618.71,-167.42 1637.64,-156.7"/>
<polygon fill="#63b8ff" stroke="#63b8ff" points="1562.22,-195.39 1555.24,-203.37 1565.67,-201.49 1562.22,-195.39"/>
</a>
</g>
</g>
<!-- Node17 -->
<g id="Node000017" class="node">
<title>Node17</title>
<g id="a_Node000017"><a xlink:href="ComponentListItemData_8cpp.html" target="_top" xlink:title=" ">
<polygon fill="white" stroke="#666666" points="152,-228 0,-228 0,-198 152,-198 152,-228"/>
<text text-anchor="start" x="8" y="-216" font-family="Helvetica,sans-Serif" font-size="10.00">models/ComponentListItem</text>
<text text-anchor="middle" x="76" y="-205" font-family="Helvetica,sans-Serif" font-size="10.00">Data.cpp</text>
</a>
</g>
</g>
<!-- Node16&#45;&gt;Node17 -->
<g id="edge22_Node000016_Node000017" class="edge">
<title>Node16&#45;&gt;Node17</title>
<g id="a_edge22_Node000016_Node000017"><a xlink:title=" ">
<path fill="none" stroke="#63b8ff" d="M221.69,-260.86C189.74,-250.58 149.62,-237.68 119.57,-228.01"/>
<polygon fill="#63b8ff" stroke="#63b8ff" points="220.74,-264.23 231.33,-263.95 222.88,-257.56 220.74,-264.23"/>
</a>
</g>
</g>
<!-- Node18 -->
<g id="Node000018" class="node">
<title>Node18</title>
<g id="a_Node000018"><a xlink:href="ComponentListViewModel_8h.html" target="_top" xlink:title=" ">
<polygon fill="white" stroke="#666666" points="334,-228 170,-228 170,-198 334,-198 334,-228"/>
<text text-anchor="start" x="178" y="-216" font-family="Helvetica,sans-Serif" font-size="10.00">ui/viewmodels/ComponentList</text>
<text text-anchor="middle" x="252" y="-205" font-family="Helvetica,sans-Serif" font-size="10.00">ViewModel.h</text>
</a>
</g>
</g>
<!-- Node16&#45;&gt;Node18 -->
<g id="edge23_Node000016_Node000018" class="edge">
<title>Node16&#45;&gt;Node18</title>
<g id="a_edge23_Node000016_Node000018"><a xlink:title=" ">
<path fill="none" stroke="#63b8ff" d="M266.41,-254.11C263.28,-245.38 259.83,-235.78 257.09,-228.16"/>
<polygon fill="#63b8ff" stroke="#63b8ff" points="263.22,-255.57 269.9,-263.8 269.81,-253.2 263.22,-255.57"/>
</a>
</g>
</g>
<!-- Node18&#45;&gt;Node5 -->
<g id="edge24_Node000018_Node000005" class="edge">
<title>Node18&#45;&gt;Node5</title>
<g id="a_edge24_Node000018_Node000005"><a xlink:title=" ">
<path fill="none" stroke="#63b8ff" d="M265.71,-189.03C277.5,-171.13 296.04,-146.88 318,-132 425.9,-58.88 582.77,-29.54 648.83,-19.95"/>
<polygon fill="#63b8ff" stroke="#63b8ff" points="262.59,-187.42 260.18,-197.74 268.5,-191.17 262.59,-187.42"/>
</a>
</g>
</g>
<!-- Node18&#45;&gt;Node8 -->
<g id="edge26_Node000018_Node000008" class="edge">
<title>Node18&#45;&gt;Node8</title>
<g id="a_edge26_Node000018_Node000008"><a xlink:title=" ">
<path fill="none" stroke="#63b8ff" d="M277.8,-191.75C302.77,-173.22 342.4,-146.55 381,-132 451.43,-105.46 536.47,-92.97 597.82,-87.11"/>
<polygon fill="#63b8ff" stroke="#63b8ff" points="275.49,-189.11 269.61,-197.93 279.7,-194.7 275.49,-189.11"/>
</a>
</g>
</g>
<!-- Node19 -->
<g id="Node000019" class="node">
<title>Node19</title>
<g id="a_Node000019"><a xlink:href="ComponentListViewModel_8cpp.html" target="_top" xlink:title=" ">
<polygon fill="white" stroke="#666666" points="554,-162 390,-162 390,-132 554,-132 554,-162"/>
<text text-anchor="start" x="398" y="-150" font-family="Helvetica,sans-Serif" font-size="10.00">ui/viewmodels/ComponentList</text>
<text text-anchor="middle" x="472" y="-139" font-family="Helvetica,sans-Serif" font-size="10.00">ViewModel.cpp</text>
</a>
</g>
</g>
<!-- Node18&#45;&gt;Node19 -->
<g id="edge25_Node000018_Node000019" class="edge">
<title>Node18&#45;&gt;Node19</title>
<g id="a_edge25_Node000018_Node000019"><a xlink:title=" ">
<path fill="none" stroke="#63b8ff" d="M310.02,-195.12C345.49,-184.8 390.33,-171.76 423.83,-162.01"/>
<polygon fill="#63b8ff" stroke="#63b8ff" points="308.9,-191.8 300.28,-197.95 310.86,-198.52 308.9,-191.8"/>
</a>
</g>
</g>
<!-- Node21 -->
<g id="Node000021" class="node">
<title>Node21</title>
<g id="a_Node000021"><a xlink:href="ComponentDataCollector_8cpp.html" target="_top" xlink:title=" ">
<polygon fill="white" stroke="#666666" points="1824.5,-222.5 1621.5,-222.5 1621.5,-203.5 1824.5,-203.5 1824.5,-222.5"/>
<text text-anchor="middle" x="1723" y="-210.5" font-family="Helvetica,sans-Serif" font-size="10.00">services/ComponentDataCollector.cpp</text>
</a>
</g>
</g>
<!-- Node20&#45;&gt;Node21 -->
<g id="edge28_Node000020_Node000021" class="edge">
<title>Node20&#45;&gt;Node21</title>
<g id="a_edge28_Node000020_Node000021"><a xlink:title=" ">
<path fill="none" stroke="#63b8ff" d="M1612.17,-265.03C1639.57,-252.42 1680.41,-233.61 1704.11,-222.7"/>
<polygon fill="#63b8ff" stroke="#63b8ff" points="1610.37,-262.01 1602.75,-269.37 1613.29,-268.37 1610.37,-262.01"/>
</a>
</g>
</g>
<!-- Node23 -->
<g id="Node000023" class="node">
<title>Node23</title>
<g id="a_Node000023"><a xlink:href="ComponentExportTask_8cpp.html" target="_top" xlink:title=" ">
<polygon fill="white" stroke="#666666" points="1022,-162 874,-162 874,-132 1022,-132 1022,-162"/>
<text text-anchor="start" x="882" y="-150" font-family="Helvetica,sans-Serif" font-size="10.00">services/ComponentExport</text>
<text text-anchor="middle" x="948" y="-139" font-family="Helvetica,sans-Serif" font-size="10.00">Task.cpp</text>
</a>
</g>
</g>
<!-- Node22&#45;&gt;Node23 -->
<g id="edge30_Node000022_Node000023" class="edge">
<title>Node22&#45;&gt;Node23</title>
<g id="a_edge30_Node000022_Node000023"><a xlink:title=" ">
<path fill="none" stroke="#63b8ff" d="M956.71,-187.83C954.82,-179.17 952.75,-169.7 951.1,-162.16"/>
<polygon fill="#63b8ff" stroke="#63b8ff" points="953.34,-188.78 958.89,-197.8 960.18,-187.28 953.34,-188.78"/>
</a>
</g>
</g>
<!-- Node24 -->
<g id="Node000024" class="node">
<title>Node24</title>
<g id="a_Node000024"><a xlink:href="ExportService_8cpp.html" target="_top" xlink:title=" ">
<polygon fill="white" stroke="#666666" points="856,-156.5 708,-156.5 708,-137.5 856,-137.5 856,-156.5"/>
<text text-anchor="middle" x="782" y="-144.5" font-family="Helvetica,sans-Serif" font-size="10.00">services/ExportService.cpp</text>
</a>
</g>
</g>
<!-- Node22&#45;&gt;Node24 -->
<g id="edge31_Node000022_Node000024" class="edge">
<title>Node22&#45;&gt;Node24</title>
<g id="a_edge31_Node000022_Node000024"><a xlink:title=" ">
<path fill="none" stroke="#63b8ff" d="M913,-194.58C878.26,-182.23 833.16,-166.19 805.95,-156.52"/>
<polygon fill="#63b8ff" stroke="#63b8ff" points="911.9,-197.9 922.5,-197.95 914.25,-191.31 911.9,-197.9"/>
</a>
</g>
</g>
<!-- Node25&#45;&gt;Node8 -->
<g id="edge35_Node000025_Node000008" class="edge">
<title>Node25&#45;&gt;Node8</title>
<g id="a_edge35_Node000025_Node000008"><a xlink:title=" ">
<path fill="none" stroke="#63b8ff" d="M511.23,-261.78C546.55,-224.15 633.6,-131.43 666.82,-96.04"/>
<polygon fill="#63b8ff" stroke="#63b8ff" points="508.44,-259.64 504.14,-269.33 513.54,-264.43 508.44,-259.64"/>
</a>
</g>
</g>
<!-- Node25&#45;&gt;Node18 -->
<g id="edge34_Node000025_Node000018" class="edge">
<title>Node25&#45;&gt;Node18</title>
<g id="a_edge34_Node000025_Node000018"><a xlink:title=" ">
<path fill="none" stroke="#63b8ff" d="M453.64,-266.89C412.52,-256.1 349.99,-239.7 305.47,-228.02"/>
<polygon fill="#63b8ff" stroke="#63b8ff" points="452.79,-270.28 463.35,-269.44 454.56,-263.51 452.79,-270.28"/>
</a>
</g>
</g>
<!-- Node26 -->
<g id="Node000026" class="node">
<title>Node26</title>
<g id="a_Node000026"><a xlink:href="ComponentService_8cpp.html" target="_top" xlink:title=" ">
<polygon fill="white" stroke="#666666" points="525.5,-222.5 352.5,-222.5 352.5,-203.5 525.5,-203.5 525.5,-222.5"/>
<text text-anchor="middle" x="439" y="-210.5" font-family="Helvetica,sans-Serif" font-size="10.00">services/ComponentService.cpp</text>
</a>
</g>
</g>
<!-- Node25&#45;&gt;Node26 -->
<g id="edge33_Node000025_Node000026" class="edge">
<title>Node25&#45;&gt;Node26</title>
<g id="a_edge33_Node000025_Node000026"><a xlink:title=" ">
<path fill="none" stroke="#63b8ff" d="M481.41,-261.62C470.44,-249.31 455.83,-232.89 446.93,-222.91"/>
<polygon fill="#63b8ff" stroke="#63b8ff" points="479.05,-264.23 488.31,-269.37 484.28,-259.57 479.05,-264.23"/>
</a>
</g>
</g>
<!-- Node27&#45;&gt;Node4 -->
<g id="edge39_Node000027_Node000004" class="edge">
<title>Node27&#45;&gt;Node4</title>
<g id="a_edge39_Node000027_Node000004"><a xlink:title=" ">
<path fill="none" stroke="#63b8ff" d="M943.87,-267.79C977.25,-260.64 1015.23,-248.51 1045,-228 1069.73,-210.97 1088.1,-180.13 1097.33,-162.12"/>
<polygon fill="#63b8ff" stroke="#63b8ff" points="942.77,-264.44 933.67,-269.86 944.16,-271.3 942.77,-264.44"/>
</a>
</g>
</g>
<!-- Node27&#45;&gt;Node8 -->
<g id="edge40_Node000027_Node000008" class="edge">
<title>Node27&#45;&gt;Node8</title>
<g id="a_edge40_Node000027_Node000008"><a xlink:title=" ">
<path fill="none" stroke="#63b8ff" d="M855.18,-260.29C844.35,-242.26 825.31,-214.64 802,-198 762.53,-169.82 731.48,-198.01 699,-162 682.56,-143.77 679.63,-113.92 679.48,-96.3"/>
<polygon fill="#63b8ff" stroke="#63b8ff" points="852.3,-262.3 860.34,-269.2 858.36,-258.79 852.3,-262.3"/>
</a>
</g>
</g>
<!-- Node27&#45;&gt;Node22 -->
<g id="edge37_Node000027_Node000022" class="edge">
<title>Node27&#45;&gt;Node22</title>
<g id="a_edge37_Node000027_Node000022"><a xlink:title=" ">
<path fill="none" stroke="#63b8ff" d="M886.8,-263.62C902.87,-253.01 924.63,-238.66 940.61,-228.12"/>
<polygon fill="#63b8ff" stroke="#63b8ff" points="884.5,-260.94 878.08,-269.37 888.36,-266.78 884.5,-260.94"/>
</a>
</g>
</g>
<!-- Node27&#45;&gt;Node24 -->
<g id="edge38_Node000027_Node000024" class="edge">
<title>Node27&#45;&gt;Node24</title>
<g id="a_edge38_Node000027_Node000024"><a xlink:title=" ">
<path fill="none" stroke="#63b8ff" d="M861,-259.66C856.71,-242.66 848.73,-217.19 836,-198 824.7,-180.97 806.43,-165.69 794.32,-156.63"/>
<polygon fill="#63b8ff" stroke="#63b8ff" points="857.61,-260.52 863.31,-269.45 864.42,-258.92 857.61,-260.52"/>
</a>
</g>
</g>
<!-- Node28&#45;&gt;Node19 -->
<g id="edge43_Node000028_Node000019" class="edge">
<title>Node28&#45;&gt;Node19</title>
<g id="a_edge43_Node000028_Node000019"><a xlink:title=" ">
<path fill="none" stroke="#63b8ff" d="M673.96,-264.19C656.49,-254.15 632.28,-240.24 611,-228 570.93,-204.96 524.38,-178.16 496.6,-162.17"/>
<polygon fill="#63b8ff" stroke="#63b8ff" points="672.5,-267.38 682.91,-269.33 675.98,-261.31 672.5,-267.38"/>
</a>
</g>
</g>
<!-- Node29 -->
<g id="Node000029" class="node">
<title>Node29</title>
<g id="a_Node000029"><a xlink:href="ThumbnailGenerator_8cpp.html" target="_top" xlink:title=" ">
<polygon fill="white" stroke="#666666" points="793.5,-222.5 620.5,-222.5 620.5,-203.5 793.5,-203.5 793.5,-222.5"/>
<text text-anchor="middle" x="707" y="-210.5" font-family="Helvetica,sans-Serif" font-size="10.00">ui/utils/ThumbnailGenerator.cpp</text>
</a>
</g>
</g>
<!-- Node28&#45;&gt;Node29 -->
<g id="edge42_Node000028_Node000029" class="edge">
<title>Node28&#45;&gt;Node29</title>
<g id="a_edge42_Node000028_Node000029"><a xlink:title=" ">
<path fill="none" stroke="#63b8ff" d="M700.61,-259.45C702.3,-247.43 704.42,-232.32 705.75,-222.91"/>
<polygon fill="#63b8ff" stroke="#63b8ff" points="697.14,-258.98 699.21,-269.37 704.07,-259.95 697.14,-258.98"/>
</a>
</g>
</g>
<!-- Node31 -->
<g id="Node000031" class="node">
<title>Node31</title>
<g id="a_Node000031"><a xlink:href="ExportWorker_8cpp.html" target="_top" xlink:title=" ">
<polygon fill="white" stroke="#666666" points="1985.5,-222.5 1842.5,-222.5 1842.5,-203.5 1985.5,-203.5 1985.5,-222.5"/>
<text text-anchor="middle" x="1914" y="-210.5" font-family="Helvetica,sans-Serif" font-size="10.00">workers/ExportWorker.cpp</text>
</a>
</g>
</g>
<!-- Node30&#45;&gt;Node31 -->
<g id="edge45_Node000030_Node000031" class="edge">
<title>Node30&#45;&gt;Node31</title>
<g id="a_edge45_Node000030_Node000031"><a xlink:title=" ">
<path fill="none" stroke="#63b8ff" d="M1856.19,-262.68C1870.94,-250.26 1891.22,-233.18 1903.43,-222.91"/>
<polygon fill="#63b8ff" stroke="#63b8ff" points="1853.64,-260.25 1848.25,-269.37 1858.15,-265.6 1853.64,-260.25"/>
</a>
</g>
</g>
</g>
</svg>
