<?xml version="1.0" encoding="UTF-8" standalone="no"?>
<!DOCTYPE svg PUBLIC "-//W3C//DTD SVG 1.1//EN"
 "http://www.w3.org/Graphics/SVG/1.1/DTD/svg11.dtd">
<!-- Generated by graphviz version 2.43.0 (0)
 -->
<!-- Title: ui/viewmodels/ComponentListViewModel.h Pages: 1 -->
<svg width="516pt" height="170pt"
 viewBox="0.00 0.00 515.52 170.00" xmlns="http://www.w3.org/2000/svg" xmlns:xlink="http://www.w3.org/1999/xlink">
<g id="graph0" class="graph" transform="scale(1 1) rotate(0) translate(4 166)">
<title>ui/viewmodels/ComponentListViewModel.h</title>
<!-- Node1 -->
<g id="Node000001" class="node">
<title>Node1</title>
<g id="a_Node000001"><a xlink:title=" ">
<polygon fill="#999999" stroke="#666666" points="243.52,-162 79.52,-162 79.52,-132 243.52,-132 243.52,-162"/>
<text text-anchor="start" x="87.52" y="-150" font-family="Helvetica,sans-Serif" font-size="10.00">ui/viewmodels/ComponentList</text>
<text text-anchor="middle" x="161.52" y="-139" font-family="Helvetica,sans-Serif" font-size="10.00">ViewModel.h</text>
</a>
</g>
</g>
<!-- Node2 -->
<g id="Node000002" class="node">
<title>Node2</title>
<g id="a_Node000002"><a xlink:href="main_8cpp.html" target="_top" xlink:title=" ">
<polygon fill="white" stroke="#666666" points="171.52,-24.5 109.52,-24.5 109.52,-5.5 171.52,-5.5 171.52,-24.5"/>
<text text-anchor="middle" x="140.52" y="-12.5" font-family="Helvetica,sans-Serif" font-size="10.00">main.cpp</text>
</a>
</g>
</g>
<!-- Node1&#45;&gt;Node2 -->
<g id="edge1_Node000001_Node000002" class="edge">
<title>Node1&#45;&gt;Node2</title>
<g id="a_edge1_Node000001_Node000002"><a xlink:title=" ">
<path fill="none" stroke="#63b8ff" d="M69.46,-136.16C45.13,-128.87 21.51,-116.58 6.52,-96 -23.14,-55.26 61.04,-31.49 109.29,-21.54"/>
<polygon fill="#63b8ff" stroke="#63b8ff" points="68.6,-139.55 79.17,-138.8 70.44,-132.79 68.6,-139.55"/>
</a>
</g>
</g>
<!-- Node3 -->
<g id="Node000003" class="node">
<title>Node3</title>
<g id="a_Node000003"><a xlink:href="ExportService__Pipeline_8cpp.html" target="_top" xlink:title=" ">
<polygon fill="white" stroke="#666666" points="143.52,-96 15.52,-96 15.52,-66 143.52,-66 143.52,-96"/>
<text text-anchor="start" x="23.52" y="-84" font-family="Helvetica,sans-Serif" font-size="10.00">services/ExportService</text>
<text text-anchor="middle" x="79.52" y="-73" font-family="Helvetica,sans-Serif" font-size="10.00">_Pipeline.cpp</text>
</a>
</g>
</g>
<!-- Node1&#45;&gt;Node3 -->
<g id="edge2_Node000001_Node000003" class="edge">
<title>Node1&#45;&gt;Node3</title>
<g id="a_edge2_Node000001_Node000003"><a xlink:title=" ">
<path fill="none" stroke="#63b8ff" d="M135.23,-125.48C122.98,-115.91 108.7,-104.77 97.67,-96.16"/>
<polygon fill="#63b8ff" stroke="#63b8ff" points="133.29,-128.4 143.32,-131.8 137.6,-122.88 133.29,-128.4"/>
</a>
</g>
</g>
<!-- Node4 -->
<g id="Node000004" class="node">
<title>Node4</title>
<g id="a_Node000004"><a xlink:href="ComponentListViewModel_8cpp.html" target="_top" xlink:title=" ">
<polygon fill="white" stroke="#666666" points="325.52,-96 161.52,-96 161.52,-66 325.52,-66 325.52,-96"/>
<text text-anchor="start" x="169.52" y="-84" font-family="Helvetica,sans-Serif" font-size="10.00">ui/viewmodels/ComponentList</text>
<text text-anchor="middle" x="243.52" y="-73" font-family="Helvetica,sans-Serif" font-size="10.00">ViewModel.cpp</text>
</a>
</g>
</g>
<!-- Node1&#45;&gt;Node4 -->
<g id="edge3_Node000001_Node000004" class="edge">
<title>Node1&#45;&gt;Node4</title>
<g id="a_edge3_Node000001_Node000004"><a xlink:title=" ">
<path fill="none" stroke="#63b8ff" d="M187.82,-125.48C200.07,-115.91 214.34,-104.77 225.38,-96.16"/>
<polygon fill="#63b8ff" stroke="#63b8ff" points="185.45,-122.88 179.72,-131.8 189.76,-128.4 185.45,-122.88"/>
</a>
</g>
</g>
<!-- Node5 -->
<g id="Node000005" class="node">
<title>Node5</title>
<g id="a_Node000005"><a xlink:href="ExportProgressViewModel_8h.html" target="_top" xlink:title=" ">
<polygon fill="white" stroke="#666666" points="507.52,-96 343.52,-96 343.52,-66 507.52,-66 507.52,-96"/>
<text text-anchor="start" x="351.52" y="-84" font-family="Helvetica,sans-Serif" font-size="10.00">ui/viewmodels/ExportProgress</text>
<text text-anchor="middle" x="425.52" y="-73" font-family="Helvetica,sans-Serif" font-size="10.00">ViewModel.h</text>
</a>
</g>
</g>
<!-- Node1&#45;&gt;Node5 -->
<g id="edge4_Node000001_Node000005" class="edge">
<title>Node1&#45;&gt;Node5</title>
<g id="a_edge4_Node000001_Node000005"><a xlink:title=" ">
<path fill="none" stroke="#63b8ff" d="M229.24,-129.58C272.1,-119.19 326.92,-105.9 367.72,-96.01"/>
<polygon fill="#63b8ff" stroke="#63b8ff" points="228.35,-126.2 219.46,-131.95 230,-133 228.35,-126.2"/>
</a>
</g>
</g>
<!-- Node5&#45;&gt;Node2 -->
<g id="edge5_Node000005_Node000002" class="edge">
<title>Node5&#45;&gt;Node2</title>
<g id="a_edge5_Node000005_Node000002"><a xlink:title=" ">
<path fill="none" stroke="#63b8ff" d="M353.04,-63.72C294.51,-50.58 214.99,-32.72 171.72,-23.01"/>
<polygon fill="#63b8ff" stroke="#63b8ff" points="352.46,-67.18 362.98,-65.95 353.99,-60.35 352.46,-67.18"/>
</a>
</g>
</g>
<!-- Node6 -->
<g id="Node000006" class="node">
<title>Node6</title>
<g id="a_Node000006"><a xlink:href="ExportProgressViewModel_8cpp.html" target="_top" xlink:title=" ">
<polygon fill="white" stroke="#666666" points="507.52,-30 343.52,-30 343.52,0 507.52,0 507.52,-30"/>
<text text-anchor="start" x="351.52" y="-18" font-family="Helvetica,sans-Serif" font-size="10.00">ui/viewmodels/ExportProgress</text>
<text text-anchor="middle" x="425.52" y="-7" font-family="Helvetica,sans-Serif" font-size="10.00">ViewModel.cpp</text>
</a>
</g>
</g>
<!-- Node5&#45;&gt;Node6 -->
<g id="edge6_Node000005_Node000006" class="edge">
<title>Node5&#45;&gt;Node6</title>
<g id="a_edge6_Node000005_Node000006"><a xlink:title=" ">
<path fill="none" stroke="#63b8ff" d="M425.52,-55.54C425.52,-46.96 425.52,-37.61 425.52,-30.16"/>
<polygon fill="#63b8ff" stroke="#63b8ff" points="422.02,-55.8 425.52,-65.8 429.02,-55.8 422.02,-55.8"/>
</a>
</g>
</g>
</g>
</svg>
