<?xml version="1.0" encoding="UTF-8" standalone="no"?>
<!DOCTYPE svg PUBLIC "-//W3C//DTD SVG 1.1//EN"
 "http://www.w3.org/Graphics/SVG/1.1/DTD/svg11.dtd">
<!-- Generated by graphviz version 2.43.0 (0)
 -->
<!-- Title: services/ComponentService.h Pages: 1 -->
<svg width="1235pt" height="247pt"
 viewBox="0.00 0.00 1235.00 247.00" xmlns="http://www.w3.org/2000/svg" xmlns:xlink="http://www.w3.org/1999/xlink">
<g id="graph0" class="graph" transform="scale(1 1) rotate(0) translate(4 243)">
<title>services/ComponentService.h</title>
<!-- Node1 -->
<g id="Node000001" class="node">
<title>Node1</title>
<g id="a_Node000001"><a xlink:title=" ">
<polygon fill="#999999" stroke="#666666" points="936.5,-239 775.5,-239 775.5,-220 936.5,-220 936.5,-239"/>
<text text-anchor="middle" x="856" y="-227" font-family="Helvetica,sans-Serif" font-size="10.00">services/ComponentService.h</text>
</a>
</g>
</g>
<!-- Node2 -->
<g id="Node000002" class="node">
<title>Node2</title>
<g id="a_Node000002"><a xlink:href="LcscImageService_8h.html" target="_top" xlink:title=" ">
<polygon fill="white" stroke="#666666" points="306.5,-184 193.5,-184 193.5,-165 306.5,-165 306.5,-184"/>
<text text-anchor="middle" x="250" y="-172" font-family="Helvetica,sans-Serif" font-size="10.00">LcscImageService.h</text>
</a>
</g>
</g>
<!-- Node1&#45;&gt;Node2 -->
<g id="edge1_Node000001_Node000002" class="edge">
<title>Node1&#45;&gt;Node2</title>
<g id="a_edge1_Node000001_Node000002"><a xlink:title=" ">
<path fill="none" stroke="#63b8ff" d="M775.21,-221.43C654.44,-210.87 429.04,-191.16 316.91,-181.35"/>
<polygon fill="#63b8ff" stroke="#63b8ff" points="317.02,-177.85 306.75,-180.46 316.41,-184.82 317.02,-177.85"/>
</a>
</g>
</g>
<!-- Node5 -->
<g id="Node000005" class="node">
<title>Node5</title>
<g id="a_Node000005"><a xlink:title=" ">
<polygon fill="#e0e0e0" stroke="#999999" points="56,-129 0,-129 0,-110 56,-110 56,-129"/>
<text text-anchor="middle" x="28" y="-117" font-family="Helvetica,sans-Serif" font-size="10.00">QObject</text>
</a>
</g>
</g>
<!-- Node1&#45;&gt;Node5 -->
<g id="edge36_Node000001_Node000005" class="edge">
<title>Node1&#45;&gt;Node5</title>
<g id="a_edge36_Node000001_Node000005"><a xlink:title=" ">
<path fill="none" stroke="#63b8ff" d="M775.4,-226.39C622.18,-221.84 294.31,-209.4 184,-184 135.92,-172.93 83.45,-148.86 53.26,-133.74"/>
<polygon fill="#63b8ff" stroke="#63b8ff" points="54.78,-130.59 44.28,-129.18 51.6,-136.83 54.78,-130.59"/>
</a>
</g>
</g>
<!-- Node6 -->
<g id="Node000006" class="node">
<title>Node6</title>
<g id="a_Node000006"><a xlink:title=" ">
<polygon fill="#e0e0e0" stroke="#999999" points="440,-129 384,-129 384,-110 440,-110 440,-129"/>
<text text-anchor="middle" x="412" y="-117" font-family="Helvetica,sans-Serif" font-size="10.00">QQueue</text>
</a>
</g>
</g>
<!-- Node1&#45;&gt;Node6 -->
<g id="edge38_Node000001_Node000006" class="edge">
<title>Node1&#45;&gt;Node6</title>
<g id="a_edge38_Node000001_Node000006"><a xlink:title=" ">
<path fill="none" stroke="#63b8ff" d="M775.17,-227.54C673.59,-224.98 506.21,-215.89 454,-184 437.12,-173.69 425.62,-153.73 418.98,-138.93"/>
<polygon fill="#63b8ff" stroke="#63b8ff" points="422.05,-137.18 415,-129.27 415.58,-139.85 422.05,-137.18"/>
</a>
</g>
</g>
<!-- Node7 -->
<g id="Node000007" class="node">
<title>Node7</title>
<g id="a_Node000007"><a xlink:title=" ">
<polygon fill="#e0e0e0" stroke="#999999" points="532.5,-19 479.5,-19 479.5,0 532.5,0 532.5,-19"/>
<text text-anchor="middle" x="506" y="-7" font-family="Helvetica,sans-Serif" font-size="10.00">QString</text>
</a>
</g>
</g>
<!-- Node1&#45;&gt;Node7 -->
<g id="edge39_Node000001_Node000007" class="edge">
<title>Node1&#45;&gt;Node7</title>
<g id="a_edge39_Node000001_Node000007"><a xlink:title=" ">
<path fill="none" stroke="#63b8ff" d="M775.25,-223.2C729.14,-217.72 671.27,-206.59 624,-184 561.05,-153.91 539.21,-138.24 512,-74 505.99,-59.8 504.74,-42.27 504.85,-29.22"/>
<polygon fill="#63b8ff" stroke="#63b8ff" points="508.35,-29.23 505.22,-19.11 501.36,-28.98 508.35,-29.23"/>
</a>
</g>
</g>
<!-- Node8 -->
<g id="Node000008" class="node">
<title>Node8</title>
<g id="a_Node000008"><a xlink:href="ComponentData_8h.html" target="_top" xlink:title=" ">
<polygon fill="white" stroke="#666666" points="804,-184 660,-184 660,-165 804,-165 804,-184"/>
<text text-anchor="middle" x="732" y="-172" font-family="Helvetica,sans-Serif" font-size="10.00">models/ComponentData.h</text>
</a>
</g>
</g>
<!-- Node1&#45;&gt;Node8 -->
<g id="edge7_Node000001_Node000008" class="edge">
<title>Node1&#45;&gt;Node8</title>
<g id="a_edge7_Node000001_Node000008"><a xlink:title=" ">
<path fill="none" stroke="#63b8ff" d="M836.08,-219.98C815.95,-211.38 784.62,-197.99 761.59,-188.15"/>
<polygon fill="#63b8ff" stroke="#63b8ff" points="762.86,-184.88 752.29,-184.17 760.1,-191.32 762.86,-184.88"/>
</a>
</g>
</g>
<!-- Node9 -->
<g id="Node000009" class="node">
<title>Node9</title>
<g id="a_Node000009"><a xlink:href="FootprintData_8h.html" target="_top" xlink:title=" ">
<polygon fill="white" stroke="#666666" points="914,-129 822,-129 822,-110 914,-110 914,-129"/>
<text text-anchor="middle" x="868" y="-117" font-family="Helvetica,sans-Serif" font-size="10.00">FootprintData.h</text>
</a>
</g>
</g>
<!-- Node1&#45;&gt;Node9 -->
<g id="edge30_Node000001_Node000009" class="edge">
<title>Node1&#45;&gt;Node9</title>
<g id="a_edge30_Node000001_Node000009"><a xlink:title=" ">
<path fill="none" stroke="#63b8ff" d="M856.98,-219.66C858.93,-202.17 863.3,-162.8 865.91,-139.27"/>
<polygon fill="#63b8ff" stroke="#63b8ff" points="869.41,-139.48 867.04,-129.16 862.45,-138.71 869.41,-139.48"/>
</a>
</g>
</g>
<!-- Node10 -->
<g id="Node000010" class="node">
<title>Node10</title>
<g id="a_Node000010"><a xlink:href="Model3DData_8h.html" target="_top" xlink:title=" ">
<polygon fill="white" stroke="#666666" points="626,-74 534,-74 534,-55 626,-55 626,-74"/>
<text text-anchor="middle" x="580" y="-62" font-family="Helvetica,sans-Serif" font-size="10.00">Model3DData.h</text>
</a>
</g>
</g>
<!-- Node1&#45;&gt;Node10 -->
<g id="edge31_Node000001_Node000010" class="edge">
<title>Node1&#45;&gt;Node10</title>
<g id="a_edge31_Node000001_Node000010"><a xlink:title=" ">
<path fill="none" stroke="#63b8ff" d="M775.13,-224.02C735.23,-218.69 687.88,-207.44 651,-184 614.35,-160.71 594.03,-111.09 585.27,-84.03"/>
<polygon fill="#63b8ff" stroke="#63b8ff" points="588.56,-82.81 582.3,-74.26 581.86,-84.85 588.56,-82.81"/>
</a>
</g>
</g>
<!-- Node12 -->
<g id="Node000012" class="node">
<title>Node12</title>
<g id="a_Node000012"><a xlink:title=" ">
<polygon fill="#e0e0e0" stroke="#999999" points="768,-19 692,-19 692,0 768,0 768,-19"/>
<text text-anchor="middle" x="730" y="-7" font-family="Helvetica,sans-Serif" font-size="10.00">QJsonObject</text>
</a>
</g>
</g>
<!-- Node1&#45;&gt;Node12 -->
<g id="edge34_Node000001_Node000012" class="edge">
<title>Node1&#45;&gt;Node12</title>
<g id="a_edge34_Node000001_Node000012"><a xlink:title=" ">
<path fill="none" stroke="#63b8ff" d="M867.79,-219.94C885.58,-207.2 920.54,-182.84 952,-165 1028.66,-121.52 1175.65,-120.78 1117,-55 1094.8,-30.1 877.02,-17.15 778.26,-12.52"/>
<polygon fill="#63b8ff" stroke="#63b8ff" points="778.38,-9.02 768.23,-12.06 778.06,-16.02 778.38,-9.02"/>
</a>
</g>
</g>
<!-- Node16 -->
<g id="Node000016" class="node">
<title>Node16</title>
<g id="a_Node000016"><a xlink:href="SymbolData_8h.html" target="_top" xlink:title=" ">
<polygon fill="white" stroke="#666666" points="1018,-129 932,-129 932,-110 1018,-110 1018,-129"/>
<text text-anchor="middle" x="975" y="-117" font-family="Helvetica,sans-Serif" font-size="10.00">SymbolData.h</text>
</a>
</g>
</g>
<!-- Node1&#45;&gt;Node16 -->
<g id="edge32_Node000001_Node000016" class="edge">
<title>Node1&#45;&gt;Node16</title>
<g id="a_edge32_Node000001_Node000016"><a xlink:title=" ">
<path fill="none" stroke="#63b8ff" d="M863.68,-219.92C875.08,-207.38 897.34,-183.5 918,-165 929.66,-154.56 943.48,-143.74 954.6,-135.38"/>
<polygon fill="#63b8ff" stroke="#63b8ff" points="956.89,-138.03 962.83,-129.25 952.72,-132.41 956.89,-138.03"/>
</a>
</g>
</g>
<!-- Node19 -->
<g id="Node000019" class="node">
<title>Node19</title>
<g id="a_Node000019"><a xlink:title=" ">
<polygon fill="#e0e0e0" stroke="#999999" points="1015.5,-184 960.5,-184 960.5,-165 1015.5,-165 1015.5,-184"/>
<text text-anchor="middle" x="988" y="-172" font-family="Helvetica,sans-Serif" font-size="10.00">QImage</text>
</a>
</g>
</g>
<!-- Node1&#45;&gt;Node19 -->
<g id="edge33_Node000001_Node000019" class="edge">
<title>Node1&#45;&gt;Node19</title>
<g id="a_edge33_Node000001_Node000019"><a xlink:title=" ">
<path fill="none" stroke="#63b8ff" d="M877.21,-219.98C898.73,-211.34 932.28,-197.87 956.83,-188.02"/>
<polygon fill="#63b8ff" stroke="#63b8ff" points="958.43,-191.14 966.41,-184.17 955.82,-184.65 958.43,-191.14"/>
</a>
</g>
</g>
<!-- Node20 -->
<g id="Node000020" class="node">
<title>Node20</title>
<g id="a_Node000020"><a xlink:title=" ">
<polygon fill="#e0e0e0" stroke="#999999" points="1078.5,-184 1033.5,-184 1033.5,-165 1078.5,-165 1078.5,-184"/>
<text text-anchor="middle" x="1056" y="-172" font-family="Helvetica,sans-Serif" font-size="10.00">QMap</text>
</a>
</g>
</g>
<!-- Node1&#45;&gt;Node20 -->
<g id="edge35_Node000001_Node000020" class="edge">
<title>Node1&#45;&gt;Node20</title>
<g id="a_edge35_Node000001_Node000020"><a xlink:title=" ">
<path fill="none" stroke="#63b8ff" d="M888.74,-219.98C920.81,-211.62 971.32,-198.38 1023.55,-184.37"/>
<polygon fill="#63b8ff" stroke="#63b8ff" points="1024.57,-187.72 1033.32,-181.75 1022.75,-180.96 1024.57,-187.72"/>
</a>
</g>
</g>
<!-- Node21 -->
<g id="Node000021" class="node">
<title>Node21</title>
<g id="a_Node000021"><a xlink:title=" ">
<polygon fill="#e0e0e0" stroke="#999999" points="1139,-184 1097,-184 1097,-165 1139,-165 1139,-184"/>
<text text-anchor="middle" x="1118" y="-172" font-family="Helvetica,sans-Serif" font-size="10.00">QPair</text>
</a>
</g>
</g>
<!-- Node1&#45;&gt;Node21 -->
<g id="edge37_Node000001_Node000021" class="edge">
<title>Node1&#45;&gt;Node21</title>
<g id="a_edge37_Node000001_Node000021"><a xlink:title=" ">
<path fill="none" stroke="#63b8ff" d="M907.42,-219.95C952.4,-212.18 1019.67,-199.84 1086.85,-184.11"/>
<polygon fill="#63b8ff" stroke="#63b8ff" points="1087.83,-187.48 1096.75,-181.77 1086.22,-180.66 1087.83,-187.48"/>
</a>
</g>
</g>
<!-- Node22 -->
<g id="Node000022" class="node">
<title>Node22</title>
<g id="a_Node000022"><a xlink:title=" ">
<polygon fill="#e0e0e0" stroke="#999999" points="1227,-184 1157,-184 1157,-165 1227,-165 1227,-184"/>
<text text-anchor="middle" x="1192" y="-172" font-family="Helvetica,sans-Serif" font-size="10.00">QStringList</text>
</a>
</g>
</g>
<!-- Node1&#45;&gt;Node22 -->
<g id="edge40_Node000001_Node000022" class="edge">
<title>Node1&#45;&gt;Node22</title>
<g id="a_edge40_Node000001_Node000022"><a xlink:title=" ">
<path fill="none" stroke="#63b8ff" d="M916.51,-219.99C973.45,-211.82 1061.34,-198.8 1147.06,-184.11"/>
<polygon fill="#63b8ff" stroke="#63b8ff" points="1147.7,-187.55 1156.96,-182.4 1146.51,-180.65 1147.7,-187.55"/>
</a>
</g>
</g>
<!-- Node3 -->
<g id="Node000003" class="node">
<title>Node3</title>
<g id="a_Node000003"><a xlink:title=" ">
<polygon fill="#e0e0e0" stroke="#999999" points="366,-129 224,-129 224,-110 366,-110 366,-129"/>
<text text-anchor="middle" x="295" y="-117" font-family="Helvetica,sans-Serif" font-size="10.00">QNetworkAccessManager</text>
</a>
</g>
</g>
<!-- Node2&#45;&gt;Node3 -->
<g id="edge2_Node000002_Node000003" class="edge">
<title>Node2&#45;&gt;Node3</title>
<g id="a_edge2_Node000002_Node000003"><a xlink:title=" ">
<path fill="none" stroke="#63b8ff" d="M257.43,-164.75C263.85,-157.18 273.31,-146.05 281.12,-136.84"/>
<polygon fill="#63b8ff" stroke="#63b8ff" points="283.9,-138.98 287.71,-129.09 278.57,-134.45 283.9,-138.98"/>
</a>
</g>
</g>
<!-- Node4 -->
<g id="Node000004" class="node">
<title>Node4</title>
<g id="a_Node000004"><a xlink:title=" ">
<polygon fill="#e0e0e0" stroke="#999999" points="205.5,-129 112.5,-129 112.5,-110 205.5,-110 205.5,-129"/>
<text text-anchor="middle" x="159" y="-117" font-family="Helvetica,sans-Serif" font-size="10.00">QNetworkReply</text>
</a>
</g>
</g>
<!-- Node2&#45;&gt;Node4 -->
<g id="edge3_Node000002_Node000004" class="edge">
<title>Node2&#45;&gt;Node4</title>
<g id="a_edge3_Node000002_Node000004"><a xlink:title=" ">
<path fill="none" stroke="#63b8ff" d="M235.38,-164.98C221.14,-156.69 199.25,-143.94 182.55,-134.22"/>
<polygon fill="#63b8ff" stroke="#63b8ff" points="184.29,-131.18 173.89,-129.17 180.77,-137.23 184.29,-131.18"/>
</a>
</g>
</g>
<!-- Node2&#45;&gt;Node5 -->
<g id="edge4_Node000002_Node000005" class="edge">
<title>Node2&#45;&gt;Node5</title>
<g id="a_edge4_Node000002_Node000005"><a xlink:title=" ">
<path fill="none" stroke="#63b8ff" d="M214.33,-164.98C173.68,-155.28 107.51,-139.48 65.94,-129.56"/>
<polygon fill="#63b8ff" stroke="#63b8ff" points="66.72,-126.15 56.19,-127.23 65.1,-132.96 66.72,-126.15"/>
</a>
</g>
</g>
<!-- Node2&#45;&gt;Node6 -->
<g id="edge5_Node000002_Node000006" class="edge">
<title>Node2&#45;&gt;Node6</title>
<g id="a_edge5_Node000002_Node000006"><a xlink:title=" ">
<path fill="none" stroke="#63b8ff" d="M276.03,-164.98C303.11,-156.13 345.71,-142.19 376.01,-132.28"/>
<polygon fill="#63b8ff" stroke="#63b8ff" points="377.35,-135.52 385.77,-129.08 375.18,-128.87 377.35,-135.52"/>
</a>
</g>
</g>
<!-- Node2&#45;&gt;Node7 -->
<g id="edge6_Node000002_Node000007" class="edge">
<title>Node2&#45;&gt;Node7</title>
<g id="a_edge6_Node000002_Node000007"><a xlink:title=" ">
<path fill="none" stroke="#63b8ff" d="M193.38,-168.38C141.07,-161.37 75.32,-145.35 103,-110 148.47,-51.94 378.78,-23.12 469.35,-13.9"/>
<polygon fill="#63b8ff" stroke="#63b8ff" points="469.82,-17.37 479.43,-12.89 469.13,-10.4 469.82,-17.37"/>
</a>
</g>
</g>
<!-- Node8&#45;&gt;Node7 -->
<g id="edge29_Node000008_Node000007" class="edge">
<title>Node8&#45;&gt;Node7</title>
<g id="a_edge29_Node000008_Node000007"><a xlink:title=" ">
<path fill="none" stroke="#63b8ff" d="M687.91,-164.93C639.86,-153.14 564.58,-127.05 525,-74 515.22,-60.89 510.44,-42.75 508.13,-29.22"/>
<polygon fill="#63b8ff" stroke="#63b8ff" points="511.57,-28.56 506.71,-19.14 504.64,-29.53 511.57,-28.56"/>
</a>
</g>
</g>
<!-- Node8&#45;&gt;Node9 -->
<g id="edge8_Node000008_Node000009" class="edge">
<title>Node8&#45;&gt;Node9</title>
<g id="a_edge8_Node000008_Node000009"><a xlink:title=" ">
<path fill="none" stroke="#63b8ff" d="M753.85,-164.98C776.12,-156.3 810.9,-142.75 836.22,-132.88"/>
<polygon fill="#63b8ff" stroke="#63b8ff" points="837.71,-136.06 845.75,-129.17 835.16,-129.54 837.71,-136.06"/>
</a>
</g>
</g>
<!-- Node8&#45;&gt;Node10 -->
<g id="edge18_Node000008_Node000010" class="edge">
<title>Node8&#45;&gt;Node10</title>
<g id="a_edge18_Node000008_Node000010"><a xlink:title=" ">
<path fill="none" stroke="#63b8ff" d="M703.82,-164.93C682.68,-157.6 653.76,-145.6 632,-129 615.25,-116.22 600.5,-97.02 591.03,-83.08"/>
<polygon fill="#63b8ff" stroke="#63b8ff" points="593.76,-80.86 585.35,-74.41 587.9,-84.69 593.76,-80.86"/>
</a>
</g>
</g>
<!-- Node8&#45;&gt;Node12 -->
<g id="edge27_Node000008_Node000012" class="edge">
<title>Node8&#45;&gt;Node12</title>
<g id="a_edge27_Node000008_Node000012"><a xlink:title=" ">
<path fill="none" stroke="#63b8ff" d="M708.89,-164.98C693.41,-157.92 674.24,-146.23 665,-129 644.99,-91.68 685.49,-48.09 711.14,-25.61"/>
<polygon fill="#63b8ff" stroke="#63b8ff" points="713.47,-28.22 718.85,-19.09 708.95,-22.88 713.47,-28.22"/>
</a>
</g>
</g>
<!-- Node13 -->
<g id="Node000013" class="node">
<title>Node13</title>
<g id="a_Node000013"><a xlink:title=" ">
<polygon fill="#e0e0e0" stroke="#999999" points="829.5,-74 758.5,-74 758.5,-55 829.5,-55 829.5,-74"/>
<text text-anchor="middle" x="794" y="-62" font-family="Helvetica,sans-Serif" font-size="10.00">QJsonArray</text>
</a>
</g>
</g>
<!-- Node8&#45;&gt;Node13 -->
<g id="edge26_Node000008_Node000013" class="edge">
<title>Node8&#45;&gt;Node13</title>
<g id="a_edge26_Node000008_Node000013"><a xlink:title=" ">
<path fill="none" stroke="#63b8ff" d="M743.06,-164.74C752.78,-156.48 766.64,-143.28 775,-129 783.09,-115.17 788,-97.61 790.8,-84.45"/>
<polygon fill="#63b8ff" stroke="#63b8ff" points="794.31,-84.72 792.74,-74.24 787.43,-83.41 794.31,-84.72"/>
</a>
</g>
</g>
<!-- Node8&#45;&gt;Node16 -->
<g id="edge19_Node000008_Node000016" class="edge">
<title>Node8&#45;&gt;Node16</title>
<g id="a_edge19_Node000008_Node000016"><a xlink:title=" ">
<path fill="none" stroke="#63b8ff" d="M771.04,-164.98C813.08,-155.82 880.04,-141.21 925.68,-131.26"/>
<polygon fill="#63b8ff" stroke="#63b8ff" points="926.63,-134.63 935.65,-129.08 925.14,-127.79 926.63,-134.63"/>
</a>
</g>
</g>
<!-- Node18 -->
<g id="Node000018" class="node">
<title>Node18</title>
<g id="a_Node000018"><a xlink:title=" ">
<polygon fill="#e0e0e0" stroke="#999999" points="766,-129 674,-129 674,-110 766,-110 766,-129"/>
<text text-anchor="middle" x="720" y="-117" font-family="Helvetica,sans-Serif" font-size="10.00">QSharedPointer</text>
</a>
</g>
</g>
<!-- Node8&#45;&gt;Node18 -->
<g id="edge28_Node000008_Node000018" class="edge">
<title>Node8&#45;&gt;Node18</title>
<g id="a_edge28_Node000008_Node000018"><a xlink:title=" ">
<path fill="none" stroke="#63b8ff" d="M730.02,-164.75C728.43,-157.72 726.14,-147.62 724.15,-138.84"/>
<polygon fill="#63b8ff" stroke="#63b8ff" points="727.57,-138.07 721.94,-129.09 720.74,-139.62 727.57,-138.07"/>
</a>
</g>
</g>
<!-- Node9&#45;&gt;Node7 -->
<g id="edge17_Node000009_Node000007" class="edge">
<title>Node9&#45;&gt;Node7</title>
<g id="a_edge17_Node000009_Node000007"><a xlink:title=" ">
<path fill="none" stroke="#63b8ff" d="M839.29,-109.94C774.1,-90.49 614.97,-43.01 542.74,-21.46"/>
<polygon fill="#63b8ff" stroke="#63b8ff" points="543.32,-17.98 532.73,-18.48 541.32,-24.69 543.32,-17.98"/>
</a>
</g>
</g>
<!-- Node9&#45;&gt;Node10 -->
<g id="edge9_Node000009_Node000010" class="edge">
<title>Node9&#45;&gt;Node10</title>
<g id="a_edge9_Node000009_Node000010"><a xlink:title=" ">
<path fill="none" stroke="#63b8ff" d="M821.73,-109.98C771.24,-100.69 690.4,-85.82 636.27,-75.86"/>
<polygon fill="#63b8ff" stroke="#63b8ff" points="636.63,-72.36 626.16,-73.99 635.36,-79.25 636.63,-72.36"/>
</a>
</g>
</g>
<!-- Node9&#45;&gt;Node12 -->
<g id="edge14_Node000009_Node000012" class="edge">
<title>Node9&#45;&gt;Node12</title>
<g id="a_edge14_Node000009_Node000012"><a xlink:title=" ">
<path fill="none" stroke="#63b8ff" d="M821.99,-111.16C797.61,-105.05 768.88,-93.96 750,-74 738.47,-61.81 733.58,-43.02 731.52,-29.04"/>
<polygon fill="#63b8ff" stroke="#63b8ff" points="734.99,-28.62 730.39,-19.08 728.03,-29.41 734.99,-28.62"/>
</a>
</g>
</g>
<!-- Node9&#45;&gt;Node13 -->
<g id="edge13_Node000009_Node000013" class="edge">
<title>Node9&#45;&gt;Node13</title>
<g id="a_edge13_Node000009_Node000013"><a xlink:title=" ">
<path fill="none" stroke="#63b8ff" d="M856.11,-109.98C844.85,-101.92 827.71,-89.65 814.29,-80.03"/>
<polygon fill="#63b8ff" stroke="#63b8ff" points="816.27,-77.15 806.11,-74.17 812.2,-82.84 816.27,-77.15"/>
</a>
</g>
</g>
<!-- Node14 -->
<g id="Node000014" class="node">
<title>Node14</title>
<g id="a_Node000014"><a xlink:title=" ">
<polygon fill="#e0e0e0" stroke="#999999" points="888.5,-74 847.5,-74 847.5,-55 888.5,-55 888.5,-74"/>
<text text-anchor="middle" x="868" y="-62" font-family="Helvetica,sans-Serif" font-size="10.00">QList</text>
</a>
</g>
</g>
<!-- Node9&#45;&gt;Node14 -->
<g id="edge15_Node000009_Node000014" class="edge">
<title>Node9&#45;&gt;Node14</title>
<g id="a_edge15_Node000009_Node000014"><a xlink:title=" ">
<path fill="none" stroke="#63b8ff" d="M868,-109.75C868,-102.8 868,-92.85 868,-84.13"/>
<polygon fill="#63b8ff" stroke="#63b8ff" points="871.5,-84.09 868,-74.09 864.5,-84.09 871.5,-84.09"/>
</a>
</g>
</g>
<!-- Node15 -->
<g id="Node000015" class="node">
<title>Node15</title>
<g id="a_Node000015"><a xlink:title=" ">
<polygon fill="#e0e0e0" stroke="#999999" points="961.5,-74 906.5,-74 906.5,-55 961.5,-55 961.5,-74"/>
<text text-anchor="middle" x="934" y="-62" font-family="Helvetica,sans-Serif" font-size="10.00">QPointF</text>
</a>
</g>
</g>
<!-- Node9&#45;&gt;Node15 -->
<g id="edge16_Node000009_Node000015" class="edge">
<title>Node9&#45;&gt;Node15</title>
<g id="a_edge16_Node000009_Node000015"><a xlink:title=" ">
<path fill="none" stroke="#63b8ff" d="M878.6,-109.98C888.46,-102.07 903.35,-90.11 915.22,-80.58"/>
<polygon fill="#63b8ff" stroke="#63b8ff" points="917.6,-83.16 923.2,-74.17 913.21,-77.7 917.6,-83.16"/>
</a>
</g>
</g>
<!-- Node10&#45;&gt;Node7 -->
<g id="edge12_Node000010_Node000007" class="edge">
<title>Node10&#45;&gt;Node7</title>
<g id="a_edge12_Node000010_Node000007"><a xlink:title=" ">
<path fill="none" stroke="#63b8ff" d="M568.11,-54.98C556.85,-46.92 539.71,-34.65 526.29,-25.03"/>
<polygon fill="#63b8ff" stroke="#63b8ff" points="528.27,-22.15 518.11,-19.17 524.2,-27.84 528.27,-22.15"/>
</a>
</g>
</g>
<!-- Node11 -->
<g id="Node000011" class="node">
<title>Node11</title>
<g id="a_Node000011"><a xlink:title=" ">
<polygon fill="#e0e0e0" stroke="#999999" points="623.5,-19 550.5,-19 550.5,0 623.5,0 623.5,-19"/>
<text text-anchor="middle" x="587" y="-7" font-family="Helvetica,sans-Serif" font-size="10.00">QByteArray</text>
</a>
</g>
</g>
<!-- Node10&#45;&gt;Node11 -->
<g id="edge10_Node000010_Node000011" class="edge">
<title>Node10&#45;&gt;Node11</title>
<g id="a_edge10_Node000010_Node000011"><a xlink:title=" ">
<path fill="none" stroke="#63b8ff" d="M581.16,-54.75C582.07,-47.8 583.39,-37.85 584.54,-29.13"/>
<polygon fill="#63b8ff" stroke="#63b8ff" points="588.03,-29.46 585.87,-19.09 581.09,-28.54 588.03,-29.46"/>
</a>
</g>
</g>
<!-- Node10&#45;&gt;Node12 -->
<g id="edge11_Node000010_Node000012" class="edge">
<title>Node10&#45;&gt;Node12</title>
<g id="a_edge11_Node000010_Node000012"><a xlink:title=" ">
<path fill="none" stroke="#63b8ff" d="M604.1,-54.98C628.88,-46.23 667.7,-32.51 695.69,-22.62"/>
<polygon fill="#63b8ff" stroke="#63b8ff" points="697.2,-25.8 705.46,-19.17 694.87,-19.2 697.2,-25.8"/>
</a>
</g>
</g>
<!-- Node16&#45;&gt;Node7 -->
<g id="edge25_Node000016_Node000007" class="edge">
<title>Node16&#45;&gt;Node7</title>
<g id="a_edge25_Node000016_Node000007"><a xlink:title=" ">
<path fill="none" stroke="#63b8ff" d="M977.6,-109.7C981.07,-95.97 985.22,-69.52 971,-55 939.09,-22.42 621.67,-26.2 542.85,-18.68"/>
<polygon fill="#63b8ff" stroke="#63b8ff" points="543.02,-15.17 532.67,-17.43 542.16,-22.12 543.02,-15.17"/>
</a>
</g>
</g>
<!-- Node16&#45;&gt;Node12 -->
<g id="edge21_Node000016_Node000012" class="edge">
<title>Node16&#45;&gt;Node12</title>
<g id="a_edge21_Node000016_Node000012"><a xlink:title=" ">
<path fill="none" stroke="#63b8ff" d="M984.45,-109.86C997.61,-96.81 1018.29,-71.8 1004,-55 975.58,-21.59 849.02,-13.19 778.27,-11.13"/>
<polygon fill="#63b8ff" stroke="#63b8ff" points="778.34,-7.63 768.26,-10.87 778.16,-14.63 778.34,-7.63"/>
</a>
</g>
</g>
<!-- Node16&#45;&gt;Node13 -->
<g id="edge20_Node000016_Node000013" class="edge">
<title>Node16&#45;&gt;Node13</title>
<g id="a_edge20_Node000016_Node000013"><a xlink:title=" ">
<path fill="none" stroke="#63b8ff" d="M945.92,-109.98C915.4,-101.05 867.24,-86.94 833.34,-77.02"/>
<polygon fill="#63b8ff" stroke="#63b8ff" points="833.89,-73.53 823.31,-74.08 831.92,-80.25 833.89,-73.53"/>
</a>
</g>
</g>
<!-- Node16&#45;&gt;Node14 -->
<g id="edge22_Node000016_Node000014" class="edge">
<title>Node16&#45;&gt;Node14</title>
<g id="a_edge22_Node000016_Node000014"><a xlink:title=" ">
<path fill="none" stroke="#63b8ff" d="M957.81,-109.98C940.75,-101.54 914.37,-88.47 894.6,-78.68"/>
<polygon fill="#63b8ff" stroke="#63b8ff" points="896.02,-75.47 885.5,-74.17 892.91,-81.75 896.02,-75.47"/>
</a>
</g>
</g>
<!-- Node16&#45;&gt;Node15 -->
<g id="edge23_Node000016_Node000015" class="edge">
<title>Node16&#45;&gt;Node15</title>
<g id="a_edge23_Node000016_Node000015"><a xlink:title=" ">
<path fill="none" stroke="#63b8ff" d="M968.23,-109.75C962.44,-102.26 953.94,-91.28 946.86,-82.13"/>
<polygon fill="#63b8ff" stroke="#63b8ff" points="949.53,-79.86 940.64,-74.09 943.99,-84.14 949.53,-79.86"/>
</a>
</g>
</g>
<!-- Node17 -->
<g id="Node000017" class="node">
<title>Node17</title>
<g id="a_Node000017"><a xlink:title=" ">
<polygon fill="#e0e0e0" stroke="#999999" points="1108,-74 1056,-74 1056,-55 1108,-55 1108,-74"/>
<text text-anchor="middle" x="1082" y="-62" font-family="Helvetica,sans-Serif" font-size="10.00">QRectF</text>
</a>
</g>
</g>
<!-- Node16&#45;&gt;Node17 -->
<g id="edge24_Node000016_Node000017" class="edge">
<title>Node16&#45;&gt;Node17</title>
<g id="a_edge24_Node000016_Node000017"><a xlink:title=" ">
<path fill="none" stroke="#63b8ff" d="M992.19,-109.98C1009.25,-101.54 1035.63,-88.47 1055.4,-78.68"/>
<polygon fill="#63b8ff" stroke="#63b8ff" points="1057.09,-81.75 1064.5,-74.17 1053.98,-75.47 1057.09,-81.75"/>
</a>
</g>
</g>
</g>
</svg>
