<?xml version="1.0" encoding="UTF-8" standalone="no"?>
<!DOCTYPE svg PUBLIC "-//W3C//DTD SVG 1.1//EN"
 "http://www.w3.org/Graphics/SVG/1.1/DTD/svg11.dtd">
<!-- Generated by graphviz version 2.43.0 (0)
 -->
<!-- Title: models/ComponentExportStatus.h Pages: 1 -->
<svg width="1513pt" height="357pt"
 viewBox="0.00 0.00 1513.36 357.00" xmlns="http://www.w3.org/2000/svg" xmlns:xlink="http://www.w3.org/1999/xlink">
<g id="graph0" class="graph" transform="scale(1 1) rotate(0) translate(4 353)">
<title>models/ComponentExportStatus.h</title>
<!-- Node1 -->
<g id="Node000001" class="node">
<title>Node1</title>
<g id="a_Node000001"><a xlink:title=" ">
<polygon fill="#999999" stroke="#666666" points="611.86,-349 428.86,-349 428.86,-330 611.86,-330 611.86,-349"/>
<text text-anchor="middle" x="520.36" y="-337" font-family="Helvetica,sans-Serif" font-size="10.00">models/ComponentExportStatus.h</text>
</a>
</g>
</g>
<!-- Node2 -->
<g id="Node000002" class="node">
<title>Node2</title>
<g id="a_Node000002"><a xlink:href="ExportService__Pipeline_8h.html" target="_top" xlink:title=" ">
<polygon fill="white" stroke="#666666" points="468.36,-162 340.36,-162 340.36,-132 468.36,-132 468.36,-162"/>
<text text-anchor="start" x="348.36" y="-150" font-family="Helvetica,sans-Serif" font-size="10.00">services/ExportService</text>
<text text-anchor="middle" x="404.36" y="-139" font-family="Helvetica,sans-Serif" font-size="10.00">_Pipeline.h</text>
</a>
</g>
</g>
<!-- Node1&#45;&gt;Node2 -->
<g id="edge1_Node000001_Node000002" class="edge">
<title>Node1&#45;&gt;Node2</title>
<g id="a_edge1_Node000001_Node000002"><a xlink:title=" ">
<path fill="none" stroke="#63b8ff" d="M418.43,-330.26C290.2,-317.5 81.17,-287.91 35.36,-228 -23.91,-150.49 -53.5,-221.67 330.36,-162 333.59,-161.5 336.89,-160.96 340.23,-160.4"/>
<polygon fill="#63b8ff" stroke="#63b8ff" points="418.37,-333.78 428.66,-331.26 419.05,-326.81 418.37,-333.78"/>
</a>
</g>
</g>
<!-- Node8 -->
<g id="Node000008" class="node">
<title>Node8</title>
<g id="a_Node000008"><a xlink:href="PipelineCleanup_8h.html" target="_top" xlink:title=" ">
<polygon fill="white" stroke="#666666" points="1407.36,-294 1267.36,-294 1267.36,-264 1407.36,-264 1407.36,-294"/>
<text text-anchor="start" x="1275.36" y="-282" font-family="Helvetica,sans-Serif" font-size="10.00">services/pipeline/cleanup</text>
<text text-anchor="middle" x="1337.36" y="-271" font-family="Helvetica,sans-Serif" font-size="10.00">/PipelineCleanup.h</text>
</a>
</g>
</g>
<!-- Node1&#45;&gt;Node8 -->
<g id="edge9_Node000001_Node000008" class="edge">
<title>Node1&#45;&gt;Node8</title>
<g id="a_edge9_Node000001_Node000008"><a xlink:title=" ">
<path fill="none" stroke="#63b8ff" d="M622.07,-332.02C750.04,-323.75 976.54,-308.76 1170.36,-294 1202.13,-291.58 1237.27,-288.67 1267.09,-286.13"/>
<polygon fill="#63b8ff" stroke="#63b8ff" points="621.64,-328.54 611.89,-332.68 622.09,-335.52 621.64,-328.54"/>
</a>
</g>
</g>
<!-- Node10 -->
<g id="Node000010" class="node">
<title>Node10</title>
<g id="a_Node000010"><a xlink:href="PipelineQueueManager_8h.html" target="_top" xlink:title=" ">
<polygon fill="white" stroke="#666666" points="446.86,-294 305.86,-294 305.86,-264 446.86,-264 446.86,-294"/>
<text text-anchor="start" x="313.86" y="-282" font-family="Helvetica,sans-Serif" font-size="10.00">services/pipeline/queue</text>
<text text-anchor="middle" x="376.36" y="-271" font-family="Helvetica,sans-Serif" font-size="10.00">/PipelineQueueManager.h</text>
</a>
</g>
</g>
<!-- Node1&#45;&gt;Node10 -->
<g id="edge12_Node000001_Node000010" class="edge">
<title>Node1&#45;&gt;Node10</title>
<g id="a_edge12_Node000001_Node000010"><a xlink:title=" ">
<path fill="none" stroke="#63b8ff" d="M490.1,-326.21C466.99,-316.82 435.11,-303.87 410.98,-294.06"/>
<polygon fill="#63b8ff" stroke="#63b8ff" points="488.84,-329.47 499.42,-329.99 491.47,-322.99 488.84,-329.47"/>
</a>
</g>
</g>
<!-- Node12 -->
<g id="Node000012" class="node">
<title>Node12</title>
<g id="a_Node000012"><a xlink:href="ProcessStageHandler_8h.html" target="_top" xlink:title=" ">
<polygon fill="white" stroke="#666666" points="345.86,-228 214.86,-228 214.86,-198 345.86,-198 345.86,-228"/>
<text text-anchor="start" x="222.86" y="-216" font-family="Helvetica,sans-Serif" font-size="10.00">services/pipeline/stage</text>
<text text-anchor="middle" x="280.36" y="-205" font-family="Helvetica,sans-Serif" font-size="10.00">/ProcessStageHandler.h</text>
</a>
</g>
</g>
<!-- Node1&#45;&gt;Node12 -->
<g id="edge24_Node000001_Node000012" class="edge">
<title>Node1&#45;&gt;Node12</title>
<g id="a_edge24_Node000001_Node000012"><a xlink:title=" ">
<path fill="none" stroke="#63b8ff" d="M418.67,-329.29C368.05,-322.6 313.95,-311.57 296.36,-294 278.92,-276.58 277.8,-245.89 278.87,-228.01"/>
<polygon fill="#63b8ff" stroke="#63b8ff" points="418.38,-332.78 428.74,-330.57 419.26,-325.83 418.38,-332.78"/>
</a>
</g>
</g>
<!-- Node16 -->
<g id="Node000016" class="node">
<title>Node16</title>
<g id="a_Node000016"><a xlink:href="FetchStageHandler_8h.html" target="_top" xlink:title=" ">
<polygon fill="white" stroke="#666666" points="531.86,-228 402.86,-228 402.86,-198 531.86,-198 531.86,-228"/>
<text text-anchor="start" x="410.86" y="-216" font-family="Helvetica,sans-Serif" font-size="10.00">services/pipeline/stage</text>
<text text-anchor="middle" x="467.36" y="-205" font-family="Helvetica,sans-Serif" font-size="10.00">/FetchStageHandler.h</text>
</a>
</g>
</g>
<!-- Node1&#45;&gt;Node16 -->
<g id="edge21_Node000001_Node000016" class="edge">
<title>Node1&#45;&gt;Node16</title>
<g id="a_edge21_Node000001_Node000016"><a xlink:title=" ">
<path fill="none" stroke="#63b8ff" d="M509.27,-321.4C504.3,-313.3 498.62,-303.37 494.36,-294 484.22,-271.72 475.82,-244.46 471.2,-228.21"/>
<polygon fill="#63b8ff" stroke="#63b8ff" points="506.34,-323.32 514.64,-329.92 512.27,-319.59 506.34,-323.32"/>
</a>
</g>
</g>
<!-- Node18 -->
<g id="Node000018" class="node">
<title>Node18</title>
<g id="a_Node000018"><a xlink:href="FetchWorker_8h.html" target="_top" xlink:title=" ">
<polygon fill="white" stroke="#666666" points="629.36,-288.5 503.36,-288.5 503.36,-269.5 629.36,-269.5 629.36,-288.5"/>
<text text-anchor="middle" x="566.36" y="-276.5" font-family="Helvetica,sans-Serif" font-size="10.00">workers/FetchWorker.h</text>
</a>
</g>
</g>
<!-- Node1&#45;&gt;Node18 -->
<g id="edge25_Node000001_Node000018" class="edge">
<title>Node1&#45;&gt;Node18</title>
<g id="a_edge25_Node000001_Node000018"><a xlink:title=" ">
<path fill="none" stroke="#63b8ff" d="M533.37,-321.95C541.89,-311.12 552.67,-297.41 559.54,-288.67"/>
<polygon fill="#63b8ff" stroke="#63b8ff" points="530.58,-319.84 527.15,-329.87 536.08,-324.17 530.58,-319.84"/>
</a>
</g>
</g>
<!-- Node20 -->
<g id="Node000020" class="node">
<title>Node20</title>
<g id="a_Node000020"><a xlink:href="ProcessWorker_8h.html" target="_top" xlink:title=" ">
<polygon fill="white" stroke="#666666" points="927.86,-288.5 790.86,-288.5 790.86,-269.5 927.86,-269.5 927.86,-288.5"/>
<text text-anchor="middle" x="859.36" y="-276.5" font-family="Helvetica,sans-Serif" font-size="10.00">workers/ProcessWorker.h</text>
</a>
</g>
</g>
<!-- Node1&#45;&gt;Node20 -->
<g id="edge30_Node000001_Node000020" class="edge">
<title>Node1&#45;&gt;Node20</title>
<g id="a_edge30_Node000001_Node000020"><a xlink:title=" ">
<path fill="none" stroke="#63b8ff" d="M579.8,-328.24C645.16,-316.96 748.97,-299.05 810.01,-288.52"/>
<polygon fill="#63b8ff" stroke="#63b8ff" points="578.91,-324.84 569.65,-329.99 580.1,-331.74 578.91,-324.84"/>
</a>
</g>
</g>
<!-- Node22 -->
<g id="Node000022" class="node">
<title>Node22</title>
<g id="a_Node000022"><a xlink:href="WriteWorker_8h.html" target="_top" xlink:title=" ">
<polygon fill="white" stroke="#666666" points="1161.36,-288.5 1035.36,-288.5 1035.36,-269.5 1161.36,-269.5 1161.36,-288.5"/>
<text text-anchor="middle" x="1098.36" y="-276.5" font-family="Helvetica,sans-Serif" font-size="10.00">workers/WriteWorker.h</text>
</a>
</g>
</g>
<!-- Node1&#45;&gt;Node22 -->
<g id="edge34_Node000001_Node000022" class="edge">
<title>Node1&#45;&gt;Node22</title>
<g id="a_edge34_Node000001_Node000022"><a xlink:title=" ">
<path fill="none" stroke="#63b8ff" d="M614.56,-328.97C733.11,-316.97 933.5,-296.69 1035.15,-286.4"/>
<polygon fill="#63b8ff" stroke="#63b8ff" points="614,-325.5 604.41,-329.99 614.71,-332.47 614,-325.5"/>
</a>
</g>
</g>
<!-- Node3 -->
<g id="Node000003" class="node">
<title>Node3</title>
<g id="a_Node000003"><a xlink:href="main_8cpp.html" target="_top" xlink:title=" ">
<polygon fill="white" stroke="#666666" points="467.36,-24.5 405.36,-24.5 405.36,-5.5 467.36,-5.5 467.36,-24.5"/>
<text text-anchor="middle" x="436.36" y="-12.5" font-family="Helvetica,sans-Serif" font-size="10.00">main.cpp</text>
</a>
</g>
</g>
<!-- Node2&#45;&gt;Node3 -->
<g id="edge2_Node000002_Node000003" class="edge">
<title>Node2&#45;&gt;Node3</title>
<g id="a_edge2_Node000002_Node000003"><a xlink:title=" ">
<path fill="none" stroke="#63b8ff" d="M424.9,-123.76C431.12,-115.64 437.14,-105.97 440.36,-96 448.39,-71.12 442.47,-39.64 438.76,-24.67"/>
<polygon fill="#63b8ff" stroke="#63b8ff" points="422.09,-121.67 418.47,-131.63 427.51,-126.11 422.09,-121.67"/>
</a>
</g>
</g>
<!-- Node4 -->
<g id="Node000004" class="node">
<title>Node4</title>
<g id="a_Node000004"><a xlink:href="ExportService__Pipeline_8cpp.html" target="_top" xlink:title=" ">
<polygon fill="white" stroke="#666666" points="1169.36,-96 1041.36,-96 1041.36,-66 1169.36,-66 1169.36,-96"/>
<text text-anchor="start" x="1049.36" y="-84" font-family="Helvetica,sans-Serif" font-size="10.00">services/ExportService</text>
<text text-anchor="middle" x="1105.36" y="-73" font-family="Helvetica,sans-Serif" font-size="10.00">_Pipeline.cpp</text>
</a>
</g>
</g>
<!-- Node2&#45;&gt;Node4 -->
<g id="edge3_Node000002_Node000004" class="edge">
<title>Node2&#45;&gt;Node4</title>
<g id="a_edge3_Node000002_Node000004"><a xlink:title=" ">
<path fill="none" stroke="#63b8ff" d="M478.43,-131.96C689.82,-103.85 928.66,-90.16 1040.92,-84.79"/>
<polygon fill="#63b8ff" stroke="#63b8ff" points="477.83,-128.51 468.39,-133.31 478.77,-135.44 477.83,-128.51"/>
</a>
</g>
</g>
<!-- Node5 -->
<g id="Node000005" class="node">
<title>Node5</title>
<g id="a_Node000005"><a xlink:href="ExportProgressViewModel_8cpp.html" target="_top" xlink:title=" ">
<polygon fill="white" stroke="#666666" points="365.36,-30 201.36,-30 201.36,0 365.36,0 365.36,-30"/>
<text text-anchor="start" x="209.36" y="-18" font-family="Helvetica,sans-Serif" font-size="10.00">ui/viewmodels/ExportProgress</text>
<text text-anchor="middle" x="283.36" y="-7" font-family="Helvetica,sans-Serif" font-size="10.00">ViewModel.cpp</text>
</a>
</g>
</g>
<!-- Node2&#45;&gt;Node5 -->
<g id="edge4_Node000002_Node000005" class="edge">
<title>Node2&#45;&gt;Node5</title>
<g id="a_edge4_Node000002_Node000005"><a xlink:title=" ">
<path fill="none" stroke="#63b8ff" d="M331.05,-129.35C299.43,-120.54 267.57,-108.89 258.36,-96 243.98,-75.87 259.72,-47.2 271.92,-30.2"/>
<polygon fill="#63b8ff" stroke="#63b8ff" points="330.26,-132.76 340.83,-131.99 332.08,-126 330.26,-132.76"/>
</a>
</g>
</g>
<!-- Node6 -->
<g id="Node000006" class="node">
<title>Node6</title>
<g id="a_Node000006"><a xlink:href="ExportProgressViewModel_8h.html" target="_top" xlink:title=" ">
<polygon fill="white" stroke="#666666" points="431.36,-96 267.36,-96 267.36,-66 431.36,-66 431.36,-96"/>
<text text-anchor="start" x="275.36" y="-84" font-family="Helvetica,sans-Serif" font-size="10.00">ui/viewmodels/ExportProgress</text>
<text text-anchor="middle" x="349.36" y="-73" font-family="Helvetica,sans-Serif" font-size="10.00">ViewModel.h</text>
</a>
</g>
</g>
<!-- Node2&#45;&gt;Node6 -->
<g id="edge5_Node000002_Node000006" class="edge">
<title>Node2&#45;&gt;Node6</title>
<g id="a_edge5_Node000002_Node000006"><a xlink:title=" ">
<path fill="none" stroke="#63b8ff" d="M385.53,-124.09C377.59,-114.85 368.58,-104.36 361.53,-96.16"/>
<polygon fill="#63b8ff" stroke="#63b8ff" points="382.98,-126.49 392.15,-131.8 388.29,-121.93 382.98,-126.49"/>
</a>
</g>
</g>
<!-- Node7 -->
<g id="Node000007" class="node">
<title>Node7</title>
<g id="a_Node000007"><a xlink:href="ExportSettingsViewModel_8cpp.html" target="_top" xlink:title=" ">
<polygon fill="white" stroke="#666666" points="649.36,-96 487.36,-96 487.36,-66 649.36,-66 649.36,-96"/>
<text text-anchor="start" x="495.36" y="-84" font-family="Helvetica,sans-Serif" font-size="10.00">ui/viewmodels/ExportSettings</text>
<text text-anchor="middle" x="568.36" y="-73" font-family="Helvetica,sans-Serif" font-size="10.00">ViewModel.cpp</text>
</a>
</g>
</g>
<!-- Node2&#45;&gt;Node7 -->
<g id="edge8_Node000002_Node000007" class="edge">
<title>Node2&#45;&gt;Node7</title>
<g id="a_edge8_Node000002_Node000007"><a xlink:title=" ">
<path fill="none" stroke="#63b8ff" d="M450,-128.19C476.05,-118.02 508.23,-105.47 532.45,-96.01"/>
<polygon fill="#63b8ff" stroke="#63b8ff" points="448.39,-125.06 440.35,-131.95 450.94,-131.58 448.39,-125.06"/>
</a>
</g>
</g>
<!-- Node6&#45;&gt;Node3 -->
<g id="edge6_Node000006_Node000003" class="edge">
<title>Node6&#45;&gt;Node3</title>
<g id="a_edge6_Node000006_Node000003"><a xlink:title=" ">
<path fill="none" stroke="#63b8ff" d="M377.16,-59.55C393.18,-47.76 412.48,-33.57 424.59,-24.66"/>
<polygon fill="#63b8ff" stroke="#63b8ff" points="374.65,-57.05 368.67,-65.8 378.8,-62.69 374.65,-57.05"/>
</a>
</g>
</g>
<!-- Node6&#45;&gt;Node5 -->
<g id="edge7_Node000006_Node000005" class="edge">
<title>Node6&#45;&gt;Node5</title>
<g id="a_edge7_Node000006_Node000005"><a xlink:title=" ">
<path fill="none" stroke="#63b8ff" d="M327.34,-58.65C317.67,-49.27 306.59,-38.53 297.97,-30.16"/>
<polygon fill="#63b8ff" stroke="#63b8ff" points="325.1,-61.35 334.71,-65.8 329.97,-56.32 325.1,-61.35"/>
</a>
</g>
</g>
<!-- Node8&#45;&gt;Node4 -->
<g id="edge10_Node000008_Node000004" class="edge">
<title>Node8&#45;&gt;Node4</title>
<g id="a_edge10_Node000008_Node000004"><a xlink:title=" ">
<path fill="none" stroke="#63b8ff" d="M1331.83,-253.57C1323.21,-221.07 1303.46,-164.02 1265.36,-132 1238.4,-109.34 1201.19,-96.93 1169.43,-90.15"/>
<polygon fill="#63b8ff" stroke="#63b8ff" points="1328.51,-254.72 1334.34,-263.57 1335.3,-253.02 1328.51,-254.72"/>
</a>
</g>
</g>
<!-- Node9 -->
<g id="Node000009" class="node">
<title>Node9</title>
<g id="a_Node000009"><a xlink:href="PipelineCleanup_8cpp.html" target="_top" xlink:title=" ">
<polygon fill="white" stroke="#666666" points="1505.36,-228 1365.36,-228 1365.36,-198 1505.36,-198 1505.36,-228"/>
<text text-anchor="start" x="1373.36" y="-216" font-family="Helvetica,sans-Serif" font-size="10.00">services/pipeline/cleanup</text>
<text text-anchor="middle" x="1435.36" y="-205" font-family="Helvetica,sans-Serif" font-size="10.00">/PipelineCleanup.cpp</text>
</a>
</g>
</g>
<!-- Node8&#45;&gt;Node9 -->
<g id="edge11_Node000008_Node000009" class="edge">
<title>Node8&#45;&gt;Node9</title>
<g id="a_edge11_Node000008_Node000009"><a xlink:title=" ">
<path fill="none" stroke="#63b8ff" d="M1367.52,-258.3C1382.44,-248.56 1400.11,-237.02 1413.67,-228.16"/>
<polygon fill="#63b8ff" stroke="#63b8ff" points="1365.57,-255.4 1359.11,-263.8 1369.4,-261.26 1365.57,-255.4"/>
</a>
</g>
</g>
<!-- Node10&#45;&gt;Node2 -->
<g id="edge13_Node000010_Node000002" class="edge">
<title>Node10&#45;&gt;Node2</title>
<g id="a_edge13_Node000010_Node000002"><a xlink:title=" ">
<path fill="none" stroke="#63b8ff" d="M381.46,-253.79C384.81,-237.92 389.31,-216.72 393.36,-198 395.99,-185.84 399.03,-172.02 401.25,-162"/>
<polygon fill="#63b8ff" stroke="#63b8ff" points="377.98,-253.32 379.34,-263.83 384.83,-254.77 377.98,-253.32"/>
</a>
</g>
</g>
<!-- Node11 -->
<g id="Node000011" class="node">
<title>Node11</title>
<g id="a_Node000011"><a xlink:href="PipelineQueueManager_8cpp.html" target="_top" xlink:title=" ">
<polygon fill="white" stroke="#666666" points="196.36,-228 44.36,-228 44.36,-198 196.36,-198 196.36,-228"/>
<text text-anchor="start" x="52.36" y="-216" font-family="Helvetica,sans-Serif" font-size="10.00">services/pipeline/queue</text>
<text text-anchor="middle" x="120.36" y="-205" font-family="Helvetica,sans-Serif" font-size="10.00">/PipelineQueueManager.cpp</text>
</a>
</g>
</g>
<!-- Node10&#45;&gt;Node11 -->
<g id="edge14_Node000010_Node000011" class="edge">
<title>Node10&#45;&gt;Node11</title>
<g id="a_edge14_Node000010_Node000011"><a xlink:title=" ">
<path fill="none" stroke="#63b8ff" d="M310.43,-261.52C268.91,-251.14 215.89,-237.88 176.41,-228.01"/>
<polygon fill="#63b8ff" stroke="#63b8ff" points="309.63,-264.92 320.18,-263.95 311.33,-258.13 309.63,-264.92"/>
</a>
</g>
</g>
<!-- Node10&#45;&gt;Node12 -->
<g id="edge15_Node000010_Node000012" class="edge">
<title>Node10&#45;&gt;Node12</title>
<g id="a_edge15_Node000010_Node000012"><a xlink:title=" ">
<path fill="none" stroke="#63b8ff" d="M346.4,-258.03C331.88,-248.34 314.77,-236.94 301.61,-228.16"/>
<polygon fill="#63b8ff" stroke="#63b8ff" points="344.79,-261.16 355.05,-263.8 348.68,-255.34 344.79,-261.16"/>
</a>
</g>
</g>
<!-- Node14 -->
<g id="Node000014" class="node">
<title>Node14</title>
<g id="a_Node000014"><a xlink:href="WriteStageHandler_8h.html" target="_top" xlink:title=" ">
<polygon fill="white" stroke="#666666" points="717.86,-228 588.86,-228 588.86,-198 717.86,-198 717.86,-228"/>
<text text-anchor="start" x="596.86" y="-216" font-family="Helvetica,sans-Serif" font-size="10.00">services/pipeline/stage</text>
<text text-anchor="middle" x="653.36" y="-205" font-family="Helvetica,sans-Serif" font-size="10.00">/WriteStageHandler.h</text>
</a>
</g>
</g>
<!-- Node10&#45;&gt;Node14 -->
<g id="edge18_Node000010_Node000014" class="edge">
<title>Node10&#45;&gt;Node14</title>
<g id="a_edge18_Node000010_Node000014"><a xlink:title=" ">
<path fill="none" stroke="#63b8ff" d="M447.13,-261.65C492.14,-251.25 549.81,-237.93 592.71,-228.01"/>
<polygon fill="#63b8ff" stroke="#63b8ff" points="446.1,-258.29 437.15,-263.95 447.68,-265.11 446.1,-258.29"/>
</a>
</g>
</g>
<!-- Node12&#45;&gt;Node2 -->
<g id="edge16_Node000012_Node000002" class="edge">
<title>Node12&#45;&gt;Node2</title>
<g id="a_edge16_Node000012_Node000002"><a xlink:title=" ">
<path fill="none" stroke="#63b8ff" d="M316.7,-193.24C336.06,-183.25 359.46,-171.18 377.21,-162.01"/>
<polygon fill="#63b8ff" stroke="#63b8ff" points="314.85,-190.26 307.57,-197.95 318.06,-196.48 314.85,-190.26"/>
</a>
</g>
</g>
<!-- Node13 -->
<g id="Node000013" class="node">
<title>Node13</title>
<g id="a_Node000013"><a xlink:href="ProcessStageHandler_8cpp.html" target="_top" xlink:title=" ">
<polygon fill="white" stroke="#666666" points="321.86,-162 178.86,-162 178.86,-132 321.86,-132 321.86,-162"/>
<text text-anchor="start" x="186.86" y="-150" font-family="Helvetica,sans-Serif" font-size="10.00">services/pipeline/stage</text>
<text text-anchor="middle" x="250.36" y="-139" font-family="Helvetica,sans-Serif" font-size="10.00">/ProcessStageHandler.cpp</text>
</a>
</g>
</g>
<!-- Node12&#45;&gt;Node13 -->
<g id="edge17_Node000012_Node000013" class="edge">
<title>Node12&#45;&gt;Node13</title>
<g id="a_edge17_Node000012_Node000013"><a xlink:title=" ">
<path fill="none" stroke="#63b8ff" d="M269.43,-188.68C265.26,-179.79 260.65,-169.95 257,-162.16"/>
<polygon fill="#63b8ff" stroke="#63b8ff" points="266.29,-190.23 273.7,-197.8 272.63,-187.26 266.29,-190.23"/>
</a>
</g>
</g>
<!-- Node14&#45;&gt;Node2 -->
<g id="edge19_Node000014_Node000002" class="edge">
<title>Node14&#45;&gt;Node2</title>
<g id="a_edge19_Node000014_Node000002"><a xlink:title=" ">
<path fill="none" stroke="#63b8ff" d="M588.98,-195.45C548.63,-185.08 497.2,-171.86 458.88,-162.01"/>
<polygon fill="#63b8ff" stroke="#63b8ff" points="588.16,-198.86 598.72,-197.95 589.9,-192.08 588.16,-198.86"/>
</a>
</g>
</g>
<!-- Node15 -->
<g id="Node000015" class="node">
<title>Node15</title>
<g id="a_Node000015"><a xlink:href="WriteStageHandler_8cpp.html" target="_top" xlink:title=" ">
<polygon fill="white" stroke="#666666" points="766.86,-162 635.86,-162 635.86,-132 766.86,-132 766.86,-162"/>
<text text-anchor="start" x="643.86" y="-150" font-family="Helvetica,sans-Serif" font-size="10.00">services/pipeline/stage</text>
<text text-anchor="middle" x="701.36" y="-139" font-family="Helvetica,sans-Serif" font-size="10.00">/WriteStageHandler.cpp</text>
</a>
</g>
</g>
<!-- Node14&#45;&gt;Node15 -->
<g id="edge20_Node000014_Node000015" class="edge">
<title>Node14&#45;&gt;Node15</title>
<g id="a_edge20_Node000014_Node000015"><a xlink:title=" ">
<path fill="none" stroke="#63b8ff" d="M670.22,-189.53C677.04,-180.43 684.71,-170.19 690.74,-162.16"/>
<polygon fill="#63b8ff" stroke="#63b8ff" points="667.21,-187.7 664.01,-197.8 672.81,-191.9 667.21,-187.7"/>
</a>
</g>
</g>
<!-- Node16&#45;&gt;Node2 -->
<g id="edge22_Node000016_Node000002" class="edge">
<title>Node16&#45;&gt;Node2</title>
<g id="a_edge22_Node000016_Node000002"><a xlink:title=" ">
<path fill="none" stroke="#63b8ff" d="M446.34,-190.65C437.11,-181.27 426.53,-170.53 418.3,-162.16"/>
<polygon fill="#63b8ff" stroke="#63b8ff" points="443.87,-193.13 453.38,-197.8 448.86,-188.21 443.87,-193.13"/>
</a>
</g>
</g>
<!-- Node17 -->
<g id="Node000017" class="node">
<title>Node17</title>
<g id="a_Node000017"><a xlink:href="FetchStageHandler_8cpp.html" target="_top" xlink:title=" ">
<polygon fill="white" stroke="#666666" points="617.86,-162 486.86,-162 486.86,-132 617.86,-132 617.86,-162"/>
<text text-anchor="start" x="494.86" y="-150" font-family="Helvetica,sans-Serif" font-size="10.00">services/pipeline/stage</text>
<text text-anchor="middle" x="552.36" y="-139" font-family="Helvetica,sans-Serif" font-size="10.00">/FetchStageHandler.cpp</text>
</a>
</g>
</g>
<!-- Node16&#45;&gt;Node17 -->
<g id="edge23_Node000016_Node000017" class="edge">
<title>Node16&#45;&gt;Node17</title>
<g id="a_edge23_Node000016_Node000017"><a xlink:title=" ">
<path fill="none" stroke="#63b8ff" d="M494.25,-191.75C507.03,-182.13 522,-170.86 533.55,-162.16"/>
<polygon fill="#63b8ff" stroke="#63b8ff" points="492.11,-188.99 486.22,-197.8 496.32,-194.58 492.11,-188.99"/>
</a>
</g>
</g>
<!-- Node18&#45;&gt;Node2 -->
<g id="edge27_Node000018_Node000002" class="edge">
<title>Node18&#45;&gt;Node2</title>
<g id="a_edge27_Node000018_Node000002"><a xlink:title=" ">
<path fill="none" stroke="#63b8ff" d="M564.89,-259.2C562.54,-241.29 556.39,-214.65 540.36,-198 528.32,-185.49 489.74,-171.94 456.73,-162.11"/>
<polygon fill="#63b8ff" stroke="#63b8ff" points="561.43,-259.7 565.94,-269.29 568.39,-258.98 561.43,-259.7"/>
</a>
</g>
</g>
<!-- Node18&#45;&gt;Node4 -->
<g id="edge26_Node000018_Node000004" class="edge">
<title>Node18&#45;&gt;Node4</title>
<g id="a_edge26_Node000018_Node000004"><a xlink:title=" ">
<path fill="none" stroke="#63b8ff" d="M639.93,-276.78C705.72,-273.29 803.49,-262.11 881.36,-228 901.07,-219.37 901.76,-210.38 919.36,-198 975.55,-158.48 1044.97,-117.02 1081.03,-96.01"/>
<polygon fill="#63b8ff" stroke="#63b8ff" points="639.47,-273.29 629.65,-277.27 639.81,-280.29 639.47,-273.29"/>
</a>
</g>
</g>
<!-- Node18&#45;&gt;Node16 -->
<g id="edge28_Node000018_Node000016" class="edge">
<title>Node18&#45;&gt;Node16</title>
<g id="a_edge28_Node000018_Node000016"><a xlink:title=" ">
<path fill="none" stroke="#63b8ff" d="M544.57,-263.91C528.12,-253.28 505.65,-238.75 489.2,-228.12"/>
<polygon fill="#63b8ff" stroke="#63b8ff" points="542.71,-266.88 553.01,-269.37 546.51,-261 542.71,-266.88"/>
</a>
</g>
</g>
<!-- Node19 -->
<g id="Node000019" class="node">
<title>Node19</title>
<g id="a_Node000019"><a xlink:href="FetchWorker_8cpp.html" target="_top" xlink:title=" ">
<polygon fill="white" stroke="#666666" points="872.86,-222.5 735.86,-222.5 735.86,-203.5 872.86,-203.5 872.86,-222.5"/>
<text text-anchor="middle" x="804.36" y="-210.5" font-family="Helvetica,sans-Serif" font-size="10.00">workers/FetchWorker.cpp</text>
</a>
</g>
</g>
<!-- Node18&#45;&gt;Node19 -->
<g id="edge29_Node000018_Node000019" class="edge">
<title>Node18&#45;&gt;Node19</title>
<g id="a_edge29_Node000018_Node000019"><a xlink:title=" ">
<path fill="none" stroke="#63b8ff" d="M608.3,-266.72C655.17,-254.12 730.02,-233.99 772.39,-222.6"/>
<polygon fill="#63b8ff" stroke="#63b8ff" points="607.21,-263.39 598.46,-269.37 609.02,-270.15 607.21,-263.39"/>
</a>
</g>
</g>
<!-- Node20&#45;&gt;Node4 -->
<g id="edge31_Node000020_Node000004" class="edge">
<title>Node20&#45;&gt;Node4</title>
<g id="a_edge31_Node000020_Node000004"><a xlink:title=" ">
<path fill="none" stroke="#63b8ff" d="M938.07,-270.27C995.44,-262.93 1066.46,-249.72 1086.36,-228 1120.2,-191.06 1113.36,-125.1 1108.3,-96.21"/>
<polygon fill="#63b8ff" stroke="#63b8ff" points="937.39,-266.82 927.9,-271.53 938.25,-273.77 937.39,-266.82"/>
</a>
</g>
</g>
<!-- Node20&#45;&gt;Node12 -->
<g id="edge32_Node000020_Node000012" class="edge">
<title>Node20&#45;&gt;Node12</title>
<g id="a_edge32_Node000020_Node000012"><a xlink:title=" ">
<path fill="none" stroke="#63b8ff" d="M780.48,-269.93C687.77,-260.36 529.31,-243.71 393.36,-228 378.04,-226.23 361.57,-224.24 346.07,-222.33"/>
<polygon fill="#63b8ff" stroke="#63b8ff" points="780.32,-273.44 790.63,-270.98 781.04,-266.47 780.32,-273.44"/>
</a>
</g>
</g>
<!-- Node21 -->
<g id="Node000021" class="node">
<title>Node21</title>
<g id="a_Node000021"><a xlink:href="ProcessWorker_8cpp.html" target="_top" xlink:title=" ">
<polygon fill="white" stroke="#666666" points="1077.86,-222.5 928.86,-222.5 928.86,-203.5 1077.86,-203.5 1077.86,-222.5"/>
<text text-anchor="middle" x="1003.36" y="-210.5" font-family="Helvetica,sans-Serif" font-size="10.00">workers/ProcessWorker.cpp</text>
</a>
</g>
</g>
<!-- Node20&#45;&gt;Node21 -->
<g id="edge33_Node000020_Node000021" class="edge">
<title>Node20&#45;&gt;Node21</title>
<g id="a_edge33_Node000020_Node000021"><a xlink:title=" ">
<path fill="none" stroke="#63b8ff" d="M888.17,-265.19C916.55,-252.58 959.13,-233.66 983.79,-222.7"/>
<polygon fill="#63b8ff" stroke="#63b8ff" points="886.5,-262.11 878.78,-269.37 889.34,-268.51 886.5,-262.11"/>
</a>
</g>
</g>
<!-- Node22&#45;&gt;Node4 -->
<g id="edge35_Node000022_Node000004" class="edge">
<title>Node22&#45;&gt;Node4</title>
<g id="a_edge35_Node000022_Node000004"><a xlink:title=" ">
<path fill="none" stroke="#63b8ff" d="M1168.57,-267.64C1213.74,-259.38 1266.51,-246.17 1280.36,-228 1324.74,-169.79 1213.58,-119.46 1148.52,-96.03"/>
<polygon fill="#63b8ff" stroke="#63b8ff" points="1167.7,-264.24 1158.47,-269.43 1168.92,-271.14 1167.7,-264.24"/>
</a>
</g>
</g>
<!-- Node22&#45;&gt;Node14 -->
<g id="edge36_Node000022_Node000014" class="edge">
<title>Node22&#45;&gt;Node14</title>
<g id="a_edge36_Node000022_Node000014"><a xlink:title=" ">
<path fill="none" stroke="#63b8ff" d="M1025.04,-269.37C949.89,-260.24 829.71,-244.84 726.36,-228 723.69,-227.56 720.96,-227.11 718.21,-226.63"/>
<polygon fill="#63b8ff" stroke="#63b8ff" points="1025,-272.89 1035.34,-270.62 1025.84,-265.94 1025,-272.89"/>
</a>
</g>
</g>
<!-- Node23 -->
<g id="Node000023" class="node">
<title>Node23</title>
<g id="a_Node000023"><a xlink:href="WriteWorker_8cpp.html" target="_top" xlink:title=" ">
<polygon fill="white" stroke="#666666" points="1270.86,-222.5 1133.86,-222.5 1133.86,-203.5 1270.86,-203.5 1270.86,-222.5"/>
<text text-anchor="middle" x="1202.36" y="-210.5" font-family="Helvetica,sans-Serif" font-size="10.00">workers/WriteWorker.cpp</text>
</a>
</g>
</g>
<!-- Node22&#45;&gt;Node23 -->
<g id="edge37_Node000022_Node000023" class="edge">
<title>Node22&#45;&gt;Node23</title>
<g id="a_edge37_Node000022_Node000023"><a xlink:title=" ">
<path fill="none" stroke="#63b8ff" d="M1121.08,-264.02C1141.53,-251.43 1170.96,-233.32 1188.22,-222.7"/>
<polygon fill="#63b8ff" stroke="#63b8ff" points="1119.07,-261.15 1112.39,-269.37 1122.74,-267.11 1119.07,-261.15"/>
</a>
</g>
</g>
</g>
</svg>
