<?xml version="1.0" encoding="UTF-8" standalone="no"?>
<!DOCTYPE svg PUBLIC "-//W3C//DTD SVG 1.1//EN"
 "http://www.w3.org/Graphics/SVG/1.1/DTD/svg11.dtd">
<!-- Generated by graphviz version 2.43.0 (0)
 -->
<!-- Title: ui/viewmodels/ComponentListViewModel.cpp Pages: 1 -->
<svg width="1474pt" height="379pt"
 viewBox="0.00 0.00 1474.00 379.00" xmlns="http://www.w3.org/2000/svg" xmlns:xlink="http://www.w3.org/1999/xlink">
<g id="graph0" class="graph" transform="scale(1 1) rotate(0) translate(4 375)">
<title>ui/viewmodels/ComponentListViewModel.cpp</title>
<!-- Node1 -->
<g id="Node000001" class="node">
<title>Node1</title>
<g id="a_Node000001"><a xlink:title=" ">
<polygon fill="#999999" stroke="#666666" points="1040.5,-371 876.5,-371 876.5,-341 1040.5,-341 1040.5,-371"/>
<text text-anchor="start" x="884.5" y="-359" font-family="Helvetica,sans-Serif" font-size="10.00">ui/viewmodels/ComponentList</text>
<text text-anchor="middle" x="958.5" y="-348" font-family="Helvetica,sans-Serif" font-size="10.00">ViewModel.cpp</text>
</a>
</g>
</g>
<!-- Node2 -->
<g id="Node000002" class="node">
<title>Node2</title>
<g id="a_Node000002"><a xlink:href="ComponentListViewModel_8h.html" target="_top" xlink:title=" ">
<polygon fill="white" stroke="#666666" points="699,-305 546,-305 546,-286 699,-286 699,-305"/>
<text text-anchor="middle" x="622.5" y="-293" font-family="Helvetica,sans-Serif" font-size="10.00">ComponentListViewModel.h</text>
</a>
</g>
</g>
<!-- Node1&#45;&gt;Node2 -->
<g id="edge1_Node000001_Node000002" class="edge">
<title>Node1&#45;&gt;Node2</title>
<g id="a_edge1_Node000001_Node000002"><a xlink:title=" ">
<path fill="none" stroke="#63b8ff" d="M878.02,-340.99C817.52,-330.45 736.02,-316.26 681.49,-306.77"/>
<polygon fill="#63b8ff" stroke="#63b8ff" points="682.08,-303.32 671.63,-305.05 680.88,-310.22 682.08,-303.32"/>
</a>
</g>
</g>
<!-- Node27 -->
<g id="Node000027" class="node">
<title>Node27</title>
<g id="a_Node000027"><a xlink:title=" ">
<polygon fill="#e0e0e0" stroke="#999999" points="757,-244.5 698,-244.5 698,-225.5 757,-225.5 757,-244.5"/>
<text text-anchor="middle" x="727.5" y="-232.5" font-family="Helvetica,sans-Serif" font-size="10.00">QPointer</text>
</a>
</g>
</g>
<!-- Node1&#45;&gt;Node27 -->
<g id="edge60_Node000001_Node000027" class="edge">
<title>Node1&#45;&gt;Node27</title>
<g id="a_edge60_Node000001_Node000027"><a xlink:title=" ">
<path fill="none" stroke="#63b8ff" d="M876.16,-345.38C842.3,-338.33 804.16,-326.13 774.5,-305 756.3,-292.03 742.97,-269.65 735.25,-253.9"/>
<polygon fill="#63b8ff" stroke="#63b8ff" points="738.36,-252.28 730.99,-244.67 732,-255.22 738.36,-252.28"/>
</a>
</g>
</g>
<!-- Node28 -->
<g id="Node000028" class="node">
<title>Node28</title>
<g id="a_Node000028"><a xlink:title=" ">
<polygon fill="#e0e0e0" stroke="#999999" points="815.5,-244.5 775.5,-244.5 775.5,-225.5 815.5,-225.5 815.5,-244.5"/>
<text text-anchor="middle" x="795.5" y="-232.5" font-family="Helvetica,sans-Serif" font-size="10.00">QSet</text>
</a>
</g>
</g>
<!-- Node1&#45;&gt;Node28 -->
<g id="edge62_Node000001_Node000028" class="edge">
<title>Node1&#45;&gt;Node28</title>
<g id="a_edge62_Node000001_Node000028"><a xlink:title=" ">
<path fill="none" stroke="#63b8ff" d="M876.29,-340.98C837.44,-332.51 797.06,-320.37 785.5,-305 774.51,-290.38 779.98,-268.97 786.31,-253.89"/>
<polygon fill="#63b8ff" stroke="#63b8ff" points="789.57,-255.16 790.63,-244.62 783.23,-252.2 789.57,-255.16"/>
</a>
</g>
</g>
<!-- Node29 -->
<g id="Node000029" class="node">
<title>Node29</title>
<g id="a_Node000029"><a xlink:href="ThumbnailGenerator_8h.html" target="_top" xlink:title=" ">
<polygon fill="white" stroke="#666666" points="161,-244.5 0,-244.5 0,-225.5 161,-225.5 161,-244.5"/>
<text text-anchor="middle" x="80.5" y="-232.5" font-family="Helvetica,sans-Serif" font-size="10.00">ui/utils/ThumbnailGenerator.h</text>
</a>
</g>
</g>
<!-- Node1&#45;&gt;Node29 -->
<g id="edge53_Node000001_Node000029" class="edge">
<title>Node1&#45;&gt;Node29</title>
<g id="a_edge53_Node000001_Node000029"><a xlink:title=" ">
<path fill="none" stroke="#63b8ff" d="M876.32,-346.03C791.21,-336.56 654.41,-320.84 536.5,-305 373.47,-283.1 333.1,-274.86 170.5,-250 162.3,-248.75 153.68,-247.42 145.16,-246.1"/>
<polygon fill="#63b8ff" stroke="#63b8ff" points="145.64,-242.63 135.23,-244.56 144.57,-249.55 145.64,-242.63"/>
</a>
</g>
</g>
<!-- Node30 -->
<g id="Node000030" class="node">
<title>Node30</title>
<g id="a_Node000030"><a xlink:title=" ">
<polygon fill="#e0e0e0" stroke="#999999" points="865,-305 794,-305 794,-286 865,-286 865,-305"/>
<text text-anchor="middle" x="829.5" y="-293" font-family="Helvetica,sans-Serif" font-size="10.00">QClipboard</text>
</a>
</g>
</g>
<!-- Node1&#45;&gt;Node30 -->
<g id="edge57_Node000001_Node000030" class="edge">
<title>Node1&#45;&gt;Node30</title>
<g id="a_edge57_Node000001_Node000030"><a xlink:title=" ">
<path fill="none" stroke="#63b8ff" d="M927.6,-340.99C906.37,-331.36 878.39,-318.67 857.75,-309.31"/>
<polygon fill="#63b8ff" stroke="#63b8ff" points="859.1,-306.08 848.55,-305.14 856.21,-312.46 859.1,-306.08"/>
</a>
</g>
</g>
<!-- Node31 -->
<g id="Node000031" class="node">
<title>Node31</title>
<g id="a_Node000031"><a xlink:title=" ">
<polygon fill="#e0e0e0" stroke="#999999" points="939.5,-305 883.5,-305 883.5,-286 939.5,-286 939.5,-305"/>
<text text-anchor="middle" x="911.5" y="-293" font-family="Helvetica,sans-Serif" font-size="10.00">QDebug</text>
</a>
</g>
</g>
<!-- Node1&#45;&gt;Node31 -->
<g id="edge58_Node000001_Node000031" class="edge">
<title>Node1&#45;&gt;Node31</title>
<g id="a_edge58_Node000001_Node000031"><a xlink:title=" ">
<path fill="none" stroke="#63b8ff" d="M947.12,-340.84C940.44,-332.52 931.95,-321.96 924.94,-313.23"/>
<polygon fill="#63b8ff" stroke="#63b8ff" points="927.53,-310.87 918.54,-305.27 922.08,-315.25 927.53,-310.87"/>
</a>
</g>
</g>
<!-- Node32 -->
<g id="Node000032" class="node">
<title>Node32</title>
<g id="a_Node000032"><a xlink:title=" ">
<polygon fill="#e0e0e0" stroke="#999999" points="1053,-305 958,-305 958,-286 1053,-286 1053,-305"/>
<text text-anchor="middle" x="1005.5" y="-293" font-family="Helvetica,sans-Serif" font-size="10.00">QGuiApplication</text>
</a>
</g>
</g>
<!-- Node1&#45;&gt;Node32 -->
<g id="edge59_Node000001_Node000032" class="edge">
<title>Node1&#45;&gt;Node32</title>
<g id="a_edge59_Node000001_Node000032"><a xlink:title=" ">
<path fill="none" stroke="#63b8ff" d="M969.88,-340.84C976.56,-332.52 985.05,-321.96 992.06,-313.23"/>
<polygon fill="#63b8ff" stroke="#63b8ff" points="994.92,-315.25 998.46,-305.27 989.47,-310.87 994.92,-315.25"/>
</a>
</g>
</g>
<!-- Node33 -->
<g id="Node000033" class="node">
<title>Node33</title>
<g id="a_Node000033"><a xlink:title=" ">
<polygon fill="#e0e0e0" stroke="#999999" points="1141.5,-305 1071.5,-305 1071.5,-286 1141.5,-286 1141.5,-305"/>
<text text-anchor="middle" x="1106.5" y="-293" font-family="Helvetica,sans-Serif" font-size="10.00">QRunnable</text>
</a>
</g>
</g>
<!-- Node1&#45;&gt;Node33 -->
<g id="edge61_Node000001_Node000033" class="edge">
<title>Node1&#45;&gt;Node33</title>
<g id="a_edge61_Node000001_Node000033"><a xlink:title=" ">
<path fill="none" stroke="#63b8ff" d="M993.95,-340.99C1018.64,-331.23 1051.28,-318.33 1075.05,-308.93"/>
<polygon fill="#63b8ff" stroke="#63b8ff" points="1076.63,-312.07 1084.64,-305.14 1074.06,-305.56 1076.63,-312.07"/>
</a>
</g>
</g>
<!-- Node34 -->
<g id="Node000034" class="node">
<title>Node34</title>
<g id="a_Node000034"><a xlink:title=" ">
<polygon fill="#e0e0e0" stroke="#999999" points="1239,-305 1160,-305 1160,-286 1239,-286 1239,-305"/>
<text text-anchor="middle" x="1199.5" y="-293" font-family="Helvetica,sans-Serif" font-size="10.00">QThreadPool</text>
</a>
</g>
</g>
<!-- Node1&#45;&gt;Node34 -->
<g id="edge63_Node000001_Node000034" class="edge">
<title>Node1&#45;&gt;Node34</title>
<g id="a_edge63_Node000001_Node000034"><a xlink:title=" ">
<path fill="none" stroke="#63b8ff" d="M1016.23,-340.99C1058.54,-330.72 1115.18,-316.97 1154.23,-307.49"/>
<polygon fill="#63b8ff" stroke="#63b8ff" points="1155.37,-310.81 1164.26,-305.05 1153.72,-304.01 1155.37,-310.81"/>
</a>
</g>
</g>
<!-- Node35 -->
<g id="Node000035" class="node">
<title>Node35</title>
<g id="a_Node000035"><a xlink:title=" ">
<polygon fill="#e0e0e0" stroke="#999999" points="1310,-305 1257,-305 1257,-286 1310,-286 1310,-305"/>
<text text-anchor="middle" x="1283.5" y="-293" font-family="Helvetica,sans-Serif" font-size="10.00">QTimer</text>
</a>
</g>
</g>
<!-- Node1&#45;&gt;Node35 -->
<g id="edge64_Node000001_Node000035" class="edge">
<title>Node1&#45;&gt;Node35</title>
<g id="a_edge64_Node000001_Node000035"><a xlink:title=" ">
<path fill="none" stroke="#63b8ff" d="M1040.65,-342.35C1096.37,-333.42 1171.89,-320.63 1246.72,-305.27"/>
<polygon fill="#63b8ff" stroke="#63b8ff" points="1247.71,-308.64 1256.79,-303.18 1246.29,-301.78 1247.71,-308.64"/>
</a>
</g>
</g>
<!-- Node36 -->
<g id="Node000036" class="node">
<title>Node36</title>
<g id="a_Node000036"><a xlink:title=" ">
<polygon fill="#e0e0e0" stroke="#999999" points="1366.5,-305 1328.5,-305 1328.5,-286 1366.5,-286 1366.5,-305"/>
<text text-anchor="middle" x="1347.5" y="-293" font-family="Helvetica,sans-Serif" font-size="10.00">QUrl</text>
</a>
</g>
</g>
<!-- Node1&#45;&gt;Node36 -->
<g id="edge65_Node000001_Node000036" class="edge">
<title>Node1&#45;&gt;Node36</title>
<g id="a_edge65_Node000001_Node000036"><a xlink:title=" ">
<path fill="none" stroke="#63b8ff" d="M1040.51,-347.35C1111.74,-339.86 1217.7,-326.68 1318.29,-304.95"/>
<polygon fill="#63b8ff" stroke="#63b8ff" points="1319.31,-308.32 1328.33,-302.75 1317.81,-301.48 1319.31,-308.32"/>
</a>
</g>
</g>
<!-- Node37 -->
<g id="Node000037" class="node">
<title>Node37</title>
<g id="a_Node000037"><a xlink:title=" ">
<polygon fill="#e0e0e0" stroke="#999999" points="1466,-305 1385,-305 1385,-286 1466,-286 1466,-305"/>
<text text-anchor="middle" x="1425.5" y="-293" font-family="Helvetica,sans-Serif" font-size="10.00">QtConcurrent</text>
</a>
</g>
</g>
<!-- Node1&#45;&gt;Node37 -->
<g id="edge66_Node000001_Node000037" class="edge">
<title>Node1&#45;&gt;Node37</title>
<g id="a_edge66_Node000001_Node000037"><a xlink:title=" ">
<path fill="none" stroke="#63b8ff" d="M1040.55,-346.36C1122.54,-337.46 1252.43,-322.61 1374.93,-305.01"/>
<polygon fill="#63b8ff" stroke="#63b8ff" points="1375.47,-308.47 1384.87,-303.58 1374.47,-301.55 1375.47,-308.47"/>
</a>
</g>
</g>
<!-- Node3 -->
<g id="Node000003" class="node">
<title>Node3</title>
<g id="a_Node000003"><a xlink:href="ComponentListItemData_8h.html" target="_top" xlink:title=" ">
<polygon fill="white" stroke="#666666" points="461.5,-250 309.5,-250 309.5,-220 461.5,-220 461.5,-250"/>
<text text-anchor="start" x="317.5" y="-238" font-family="Helvetica,sans-Serif" font-size="10.00">models/ComponentListItem</text>
<text text-anchor="middle" x="385.5" y="-227" font-family="Helvetica,sans-Serif" font-size="10.00">Data.h</text>
</a>
</g>
</g>
<!-- Node2&#45;&gt;Node3 -->
<g id="edge2_Node000002_Node000003" class="edge">
<title>Node2&#45;&gt;Node3</title>
<g id="a_edge2_Node000002_Node000003"><a xlink:title=" ">
<path fill="none" stroke="#63b8ff" d="M588.04,-285.99C552.59,-277.24 496.47,-263.39 452.28,-252.48"/>
<polygon fill="#63b8ff" stroke="#63b8ff" points="453.03,-249.06 442.48,-250.06 451.35,-255.86 453.03,-249.06"/>
</a>
</g>
</g>
<!-- Node18 -->
<g id="Node000018" class="node">
<title>Node18</title>
<g id="a_Node000018"><a xlink:href="ComponentService_8h.html" target="_top" xlink:title=" ">
<polygon fill="white" stroke="#666666" points="641,-244.5 480,-244.5 480,-225.5 641,-225.5 641,-244.5"/>
<text text-anchor="middle" x="560.5" y="-232.5" font-family="Helvetica,sans-Serif" font-size="10.00">services/ComponentService.h</text>
</a>
</g>
</g>
<!-- Node2&#45;&gt;Node18 -->
<g id="edge30_Node000002_Node000018" class="edge">
<title>Node2&#45;&gt;Node18</title>
<g id="a_edge30_Node000002_Node000018"><a xlink:title=" ">
<path fill="none" stroke="#63b8ff" d="M613.35,-285.87C603.83,-276.88 588.7,-262.61 577.07,-251.64"/>
<polygon fill="#63b8ff" stroke="#63b8ff" points="579.36,-248.98 569.69,-244.67 574.56,-254.08 579.36,-248.98"/>
</a>
</g>
</g>
<!-- Node25 -->
<g id="Node000025" class="node">
<title>Node25</title>
<g id="a_Node000025"><a xlink:title=" ">
<polygon fill="#e0e0e0" stroke="#999999" points="1012.5,-184 942.5,-184 942.5,-165 1012.5,-165 1012.5,-184"/>
<text text-anchor="middle" x="977.5" y="-172" font-family="Helvetica,sans-Serif" font-size="10.00">QStringList</text>
</a>
</g>
</g>
<!-- Node2&#45;&gt;Node25 -->
<g id="edge52_Node000002_Node000025" class="edge">
<title>Node2&#45;&gt;Node25</title>
<g id="a_edge52_Node000002_Node000025"><a xlink:title=" ">
<path fill="none" stroke="#63b8ff" d="M627.34,-285.82C636.78,-269.8 659.32,-235.79 688.5,-220 782.47,-169.17 822.62,-200.48 932.33,-184.04"/>
<polygon fill="#63b8ff" stroke="#63b8ff" points="933.14,-187.45 942.46,-182.42 932.03,-180.54 933.14,-187.45"/>
</a>
</g>
</g>
<!-- Node26 -->
<g id="Node000026" class="node">
<title>Node26</title>
<g id="a_Node000026"><a xlink:title=" ">
<polygon fill="#e0e0e0" stroke="#999999" points="291.5,-244.5 179.5,-244.5 179.5,-225.5 291.5,-225.5 291.5,-244.5"/>
<text text-anchor="middle" x="235.5" y="-232.5" font-family="Helvetica,sans-Serif" font-size="10.00">QAbstractListModel</text>
</a>
</g>
</g>
<!-- Node2&#45;&gt;Node26 -->
<g id="edge49_Node000002_Node000026" class="edge">
<title>Node2&#45;&gt;Node26</title>
<g id="a_edge49_Node000002_Node000026"><a xlink:title=" ">
<path fill="none" stroke="#63b8ff" d="M549.36,-285.98C483.94,-277.97 385.53,-265.01 300.5,-250 294.75,-248.98 288.73,-247.82 282.77,-246.61"/>
<polygon fill="#63b8ff" stroke="#63b8ff" points="283.38,-243.16 272.87,-244.55 281.95,-250.02 283.38,-243.16"/>
</a>
</g>
</g>
<!-- Node2&#45;&gt;Node27 -->
<g id="edge50_Node000002_Node000027" class="edge">
<title>Node2&#45;&gt;Node27</title>
<g id="a_edge50_Node000002_Node000027"><a xlink:title=" ">
<path fill="none" stroke="#63b8ff" d="M637.99,-285.87C655.13,-276.32 682.97,-260.81 703.06,-249.62"/>
<polygon fill="#63b8ff" stroke="#63b8ff" points="704.91,-252.59 711.94,-244.67 701.5,-246.48 704.91,-252.59"/>
</a>
</g>
</g>
<!-- Node2&#45;&gt;Node28 -->
<g id="edge51_Node000002_Node000028" class="edge">
<title>Node2&#45;&gt;Node28</title>
<g id="a_edge51_Node000002_Node000028"><a xlink:title=" ">
<path fill="none" stroke="#63b8ff" d="M655,-285.96C684.51,-277.86 729,-264.75 766.5,-250 767.51,-249.6 768.54,-249.18 769.58,-248.75"/>
<polygon fill="#63b8ff" stroke="#63b8ff" points="771.14,-251.88 778.82,-244.58 768.27,-245.5 771.14,-251.88"/>
</a>
</g>
</g>
<!-- Node4 -->
<g id="Node000004" class="node">
<title>Node4</title>
<g id="a_Node000004"><a xlink:href="ComponentData_8h.html" target="_top" xlink:title=" ">
<polygon fill="white" stroke="#666666" points="393,-184 288,-184 288,-165 393,-165 393,-184"/>
<text text-anchor="middle" x="340.5" y="-172" font-family="Helvetica,sans-Serif" font-size="10.00">ComponentData.h</text>
</a>
</g>
</g>
<!-- Node3&#45;&gt;Node4 -->
<g id="edge3_Node000003_Node000004" class="edge">
<title>Node3&#45;&gt;Node4</title>
<g id="a_edge3_Node000003_Node000004"><a xlink:title=" ">
<path fill="none" stroke="#63b8ff" d="M374.61,-219.84C368.21,-211.52 360.08,-200.96 353.37,-192.23"/>
<polygon fill="#63b8ff" stroke="#63b8ff" points="356.11,-190.06 347.24,-184.27 350.57,-194.33 356.11,-190.06"/>
</a>
</g>
</g>
<!-- Node9 -->
<g id="Node000009" class="node">
<title>Node9</title>
<g id="a_Node000009"><a xlink:title=" ">
<polygon fill="#e0e0e0" stroke="#999999" points="324,-19 271,-19 271,0 324,0 324,-19"/>
<text text-anchor="middle" x="297.5" y="-7" font-family="Helvetica,sans-Serif" font-size="10.00">QString</text>
</a>
</g>
</g>
<!-- Node3&#45;&gt;Node9 -->
<g id="edge29_Node000003_Node000009" class="edge">
<title>Node3&#45;&gt;Node9</title>
<g id="a_edge29_Node000003_Node000009"><a xlink:title=" ">
<path fill="none" stroke="#63b8ff" d="M309.47,-221.45C268.47,-212.96 223.79,-200.32 211.5,-184 177.01,-138.2 181.7,-103.98 211.5,-55 222.39,-37.11 243.05,-26.09 261.4,-19.49"/>
<polygon fill="#63b8ff" stroke="#63b8ff" points="262.58,-22.79 270.99,-16.35 260.4,-16.14 262.58,-22.79"/>
</a>
</g>
</g>
<!-- Node15 -->
<g id="Node000015" class="node">
<title>Node15</title>
<g id="a_Node000015"><a xlink:title=" ">
<polygon fill="#e0e0e0" stroke="#999999" points="159.5,-129 67.5,-129 67.5,-110 159.5,-110 159.5,-129"/>
<text text-anchor="middle" x="113.5" y="-117" font-family="Helvetica,sans-Serif" font-size="10.00">QSharedPointer</text>
</a>
</g>
</g>
<!-- Node3&#45;&gt;Node15 -->
<g id="edge28_Node000003_Node000015" class="edge">
<title>Node3&#45;&gt;Node15</title>
<g id="a_edge28_Node000003_Node000015"><a xlink:title=" ">
<path fill="none" stroke="#63b8ff" d="M309.31,-220.8C258.35,-211.08 196.56,-197.28 173.5,-184 153.47,-172.46 136.03,-152.16 125.19,-137.62"/>
<polygon fill="#63b8ff" stroke="#63b8ff" points="128,-135.53 119.33,-129.44 122.31,-139.61 128,-135.53"/>
</a>
</g>
</g>
<!-- Node16 -->
<g id="Node000016" class="node">
<title>Node16</title>
<g id="a_Node000016"><a xlink:title=" ">
<polygon fill="#e0e0e0" stroke="#999999" points="121,-184 66,-184 66,-165 121,-165 121,-184"/>
<text text-anchor="middle" x="93.5" y="-172" font-family="Helvetica,sans-Serif" font-size="10.00">QImage</text>
</a>
</g>
</g>
<!-- Node3&#45;&gt;Node16 -->
<g id="edge26_Node000003_Node000016" class="edge">
<title>Node3&#45;&gt;Node16</title>
<g id="a_edge26_Node000003_Node000016"><a xlink:title=" ">
<path fill="none" stroke="#63b8ff" d="M315.18,-219.98C265.08,-209.98 196.14,-196.2 135.5,-184 134.04,-183.71 132.55,-183.41 131.05,-183.1"/>
<polygon fill="#63b8ff" stroke="#63b8ff" points="131.56,-179.64 121.06,-181.09 130.17,-186.5 131.56,-179.64"/>
</a>
</g>
</g>
<!-- Node17 -->
<g id="Node000017" class="node">
<title>Node17</title>
<g id="a_Node000017"><a xlink:title=" ">
<polygon fill="#e0e0e0" stroke="#999999" points="790.5,-129 734.5,-129 734.5,-110 790.5,-110 790.5,-129"/>
<text text-anchor="middle" x="762.5" y="-117" font-family="Helvetica,sans-Serif" font-size="10.00">QObject</text>
</a>
</g>
</g>
<!-- Node3&#45;&gt;Node17 -->
<g id="edge27_Node000003_Node000017" class="edge">
<title>Node3&#45;&gt;Node17</title>
<g id="a_edge27_Node000003_Node000017"><a xlink:title=" ">
<path fill="none" stroke="#63b8ff" d="M408.2,-219.91C434.5,-204.21 479.61,-179.16 521.5,-165 558.48,-152.5 666.25,-135.06 724.34,-126.18"/>
<polygon fill="#63b8ff" stroke="#63b8ff" points="724.88,-129.64 734.24,-124.68 723.83,-122.72 724.88,-129.64"/>
</a>
</g>
</g>
<!-- Node5 -->
<g id="Node000005" class="node">
<title>Node5</title>
<g id="a_Node000005"><a xlink:href="FootprintData_8h.html" target="_top" xlink:title=" ">
<polygon fill="white" stroke="#666666" points="574.5,-129 482.5,-129 482.5,-110 574.5,-110 574.5,-129"/>
<text text-anchor="middle" x="528.5" y="-117" font-family="Helvetica,sans-Serif" font-size="10.00">FootprintData.h</text>
</a>
</g>
</g>
<!-- Node4&#45;&gt;Node5 -->
<g id="edge4_Node000004_Node000005" class="edge">
<title>Node4&#45;&gt;Node5</title>
<g id="a_edge4_Node000004_Node000005"><a xlink:title=" ">
<path fill="none" stroke="#63b8ff" d="M370.71,-164.98C402.54,-156.01 452.86,-141.82 488.1,-131.89"/>
<polygon fill="#63b8ff" stroke="#63b8ff" points="489.38,-135.16 498.06,-129.08 487.48,-128.43 489.38,-135.16"/>
</a>
</g>
</g>
<!-- Node6 -->
<g id="Node000006" class="node">
<title>Node6</title>
<g id="a_Node000006"><a xlink:href="Model3DData_8h.html" target="_top" xlink:title=" ">
<polygon fill="white" stroke="#666666" points="421.5,-74 329.5,-74 329.5,-55 421.5,-55 421.5,-74"/>
<text text-anchor="middle" x="375.5" y="-62" font-family="Helvetica,sans-Serif" font-size="10.00">Model3DData.h</text>
</a>
</g>
</g>
<!-- Node4&#45;&gt;Node6 -->
<g id="edge14_Node000004_Node000006" class="edge">
<title>Node4&#45;&gt;Node6</title>
<g id="a_edge14_Node000004_Node000006"><a xlink:title=" ">
<path fill="none" stroke="#63b8ff" d="M343.36,-164.66C349.06,-147.09 361.91,-107.45 369.52,-83.95"/>
<polygon fill="#63b8ff" stroke="#63b8ff" points="372.94,-84.75 372.69,-74.16 366.28,-82.59 372.94,-84.75"/>
</a>
</g>
</g>
<!-- Node8 -->
<g id="Node000008" class="node">
<title>Node8</title>
<g id="a_Node000008"><a xlink:title=" ">
<polygon fill="#e0e0e0" stroke="#999999" points="615.5,-19 539.5,-19 539.5,0 615.5,0 615.5,-19"/>
<text text-anchor="middle" x="577.5" y="-7" font-family="Helvetica,sans-Serif" font-size="10.00">QJsonObject</text>
</a>
</g>
</g>
<!-- Node4&#45;&gt;Node8 -->
<g id="edge23_Node000004_Node000008" class="edge">
<title>Node4&#45;&gt;Node8</title>
<g id="a_edge23_Node000004_Node000008"><a xlink:title=" ">
<path fill="none" stroke="#63b8ff" d="M347.75,-164.93C366.05,-143.73 416.4,-88.19 468.5,-55 490.48,-41 517.59,-29.91 539.28,-22.3"/>
<polygon fill="#63b8ff" stroke="#63b8ff" points="540.49,-25.59 548.83,-19.05 538.23,-18.96 540.49,-25.59"/>
</a>
</g>
</g>
<!-- Node4&#45;&gt;Node9 -->
<g id="edge25_Node000004_Node000009" class="edge">
<title>Node4&#45;&gt;Node9</title>
<g id="a_edge25_Node000004_Node000009"><a xlink:title=" ">
<path fill="none" stroke="#63b8ff" d="M336.61,-164.93C329.08,-147.95 312.57,-108.71 304.5,-74 301.08,-59.28 299.31,-42.23 298.41,-29.51"/>
<polygon fill="#63b8ff" stroke="#63b8ff" points="301.89,-29.01 297.81,-19.24 294.9,-29.43 301.89,-29.01"/>
</a>
</g>
</g>
<!-- Node10 -->
<g id="Node000010" class="node">
<title>Node10</title>
<g id="a_Node000010"><a xlink:title=" ">
<polygon fill="#e0e0e0" stroke="#999999" points="549,-74 478,-74 478,-55 549,-55 549,-74"/>
<text text-anchor="middle" x="513.5" y="-62" font-family="Helvetica,sans-Serif" font-size="10.00">QJsonArray</text>
</a>
</g>
</g>
<!-- Node4&#45;&gt;Node10 -->
<g id="edge22_Node000004_Node000010" class="edge">
<title>Node4&#45;&gt;Node10</title>
<g id="a_edge22_Node000004_Node000010"><a xlink:title=" ">
<path fill="none" stroke="#63b8ff" d="M360.76,-164.85C379.4,-156.57 407.55,-143.26 430.5,-129 454.25,-114.24 479.49,-94.23 495.81,-80.65"/>
<polygon fill="#63b8ff" stroke="#63b8ff" points="498.09,-83.31 503.48,-74.19 493.58,-77.96 498.09,-83.31"/>
</a>
</g>
</g>
<!-- Node13 -->
<g id="Node000013" class="node">
<title>Node13</title>
<g id="a_Node000013"><a xlink:href="SymbolData_8h.html" target="_top" xlink:title=" ">
<polygon fill="white" stroke="#666666" points="678.5,-129 592.5,-129 592.5,-110 678.5,-110 678.5,-129"/>
<text text-anchor="middle" x="635.5" y="-117" font-family="Helvetica,sans-Serif" font-size="10.00">SymbolData.h</text>
</a>
</g>
</g>
<!-- Node4&#45;&gt;Node13 -->
<g id="edge15_Node000004_Node000013" class="edge">
<title>Node4&#45;&gt;Node13</title>
<g id="a_edge15_Node000004_Node000013"><a xlink:title=" ">
<path fill="none" stroke="#63b8ff" d="M387.9,-164.98C440.95,-155.45 526.71,-140.05 582.09,-130.1"/>
<polygon fill="#63b8ff" stroke="#63b8ff" points="582.84,-133.52 592.07,-128.3 581.6,-126.63 582.84,-133.52"/>
</a>
</g>
</g>
<!-- Node4&#45;&gt;Node15 -->
<g id="edge24_Node000004_Node000015" class="edge">
<title>Node4&#45;&gt;Node15</title>
<g id="a_edge24_Node000004_Node000015"><a xlink:title=" ">
<path fill="none" stroke="#63b8ff" d="M304.03,-164.98C264.93,-155.86 202.73,-141.33 160.11,-131.38"/>
<polygon fill="#63b8ff" stroke="#63b8ff" points="160.79,-127.95 150.26,-129.08 159.2,-134.76 160.79,-127.95"/>
</a>
</g>
</g>
<!-- Node5&#45;&gt;Node6 -->
<g id="edge5_Node000005_Node000006" class="edge">
<title>Node5&#45;&gt;Node6</title>
<g id="a_edge5_Node000005_Node000006"><a xlink:title=" ">
<path fill="none" stroke="#63b8ff" d="M503.92,-109.98C478.45,-101.16 438.46,-87.31 409.87,-77.41"/>
<polygon fill="#63b8ff" stroke="#63b8ff" points="410.87,-74.05 400.27,-74.08 408.58,-80.66 410.87,-74.05"/>
</a>
</g>
</g>
<!-- Node5&#45;&gt;Node8 -->
<g id="edge10_Node000005_Node000008" class="edge">
<title>Node5&#45;&gt;Node8</title>
<g id="a_edge10_Node000005_Node000008"><a xlink:title=" ">
<path fill="none" stroke="#63b8ff" d="M535.26,-109.72C541.69,-101.04 551.28,-87.17 557.5,-74 564.3,-59.61 569.57,-42.33 572.99,-29.44"/>
<polygon fill="#63b8ff" stroke="#63b8ff" points="576.46,-29.96 575.51,-19.41 569.68,-28.26 576.46,-29.96"/>
</a>
</g>
</g>
<!-- Node5&#45;&gt;Node9 -->
<g id="edge13_Node000005_Node000009" class="edge">
<title>Node5&#45;&gt;Node9</title>
<g id="a_edge13_Node000005_Node000009"><a xlink:title=" ">
<path fill="none" stroke="#63b8ff" d="M482.33,-113.85C428.61,-107.56 344.23,-94.69 320.5,-74 307.67,-62.81 301.99,-43.89 299.48,-29.61"/>
<polygon fill="#63b8ff" stroke="#63b8ff" points="302.91,-28.81 298.08,-19.38 295.97,-29.76 302.91,-28.81"/>
</a>
</g>
</g>
<!-- Node5&#45;&gt;Node10 -->
<g id="edge9_Node000005_Node000010" class="edge">
<title>Node5&#45;&gt;Node10</title>
<g id="a_edge9_Node000005_Node000010"><a xlink:title=" ">
<path fill="none" stroke="#63b8ff" d="M526.02,-109.75C524.04,-102.72 521.18,-92.62 518.69,-83.84"/>
<polygon fill="#63b8ff" stroke="#63b8ff" points="522.02,-82.76 515.93,-74.09 515.29,-84.66 522.02,-82.76"/>
</a>
</g>
</g>
<!-- Node11 -->
<g id="Node000011" class="node">
<title>Node11</title>
<g id="a_Node000011"><a xlink:title=" ">
<polygon fill="#e0e0e0" stroke="#999999" points="720,-74 679,-74 679,-55 720,-55 720,-74"/>
<text text-anchor="middle" x="699.5" y="-62" font-family="Helvetica,sans-Serif" font-size="10.00">QList</text>
</a>
</g>
</g>
<!-- Node5&#45;&gt;Node11 -->
<g id="edge11_Node000005_Node000011" class="edge">
<title>Node5&#45;&gt;Node11</title>
<g id="a_edge11_Node000005_Node000011"><a xlink:title=" ">
<path fill="none" stroke="#63b8ff" d="M555.97,-109.98C586.9,-100.4 637,-84.87 669.08,-74.93"/>
<polygon fill="#63b8ff" stroke="#63b8ff" points="670.3,-78.21 678.82,-71.91 668.23,-71.53 670.3,-78.21"/>
</a>
</g>
</g>
<!-- Node12 -->
<g id="Node000012" class="node">
<title>Node12</title>
<g id="a_Node000012"><a xlink:title=" ">
<polygon fill="#e0e0e0" stroke="#999999" points="661,-74 606,-74 606,-55 661,-55 661,-74"/>
<text text-anchor="middle" x="633.5" y="-62" font-family="Helvetica,sans-Serif" font-size="10.00">QPointF</text>
</a>
</g>
</g>
<!-- Node5&#45;&gt;Node12 -->
<g id="edge12_Node000005_Node000012" class="edge">
<title>Node5&#45;&gt;Node12</title>
<g id="a_edge12_Node000005_Node000012"><a xlink:title=" ">
<path fill="none" stroke="#63b8ff" d="M545.37,-109.98C562.11,-101.54 588,-88.47 607.39,-78.68"/>
<polygon fill="#63b8ff" stroke="#63b8ff" points="608.97,-81.8 616.32,-74.17 605.82,-75.55 608.97,-81.8"/>
</a>
</g>
</g>
<!-- Node7 -->
<g id="Node000007" class="node">
<title>Node7</title>
<g id="a_Node000007"><a xlink:title=" ">
<polygon fill="#e0e0e0" stroke="#999999" points="415,-19 342,-19 342,0 415,0 415,-19"/>
<text text-anchor="middle" x="378.5" y="-7" font-family="Helvetica,sans-Serif" font-size="10.00">QByteArray</text>
</a>
</g>
</g>
<!-- Node6&#45;&gt;Node7 -->
<g id="edge6_Node000006_Node000007" class="edge">
<title>Node6&#45;&gt;Node7</title>
<g id="a_edge6_Node000006_Node000007"><a xlink:title=" ">
<path fill="none" stroke="#63b8ff" d="M376,-54.75C376.39,-47.8 376.95,-37.85 377.45,-29.13"/>
<polygon fill="#63b8ff" stroke="#63b8ff" points="380.94,-29.27 378.01,-19.09 373.95,-28.88 380.94,-29.27"/>
</a>
</g>
</g>
<!-- Node6&#45;&gt;Node8 -->
<g id="edge7_Node000006_Node000008" class="edge">
<title>Node6&#45;&gt;Node8</title>
<g id="a_edge7_Node000006_Node000008"><a xlink:title=" ">
<path fill="none" stroke="#63b8ff" d="M407.95,-54.98C442.46,-45.93 497.16,-31.58 535.06,-21.64"/>
<polygon fill="#63b8ff" stroke="#63b8ff" points="536.01,-25.01 544.79,-19.08 534.23,-18.23 536.01,-25.01"/>
</a>
</g>
</g>
<!-- Node6&#45;&gt;Node9 -->
<g id="edge8_Node000006_Node000009" class="edge">
<title>Node6&#45;&gt;Node9</title>
<g id="a_edge8_Node000006_Node000009"><a xlink:title=" ">
<path fill="none" stroke="#63b8ff" d="M362.97,-54.98C351.1,-46.92 333.04,-34.65 318.89,-25.03"/>
<polygon fill="#63b8ff" stroke="#63b8ff" points="320.5,-21.9 310.26,-19.17 316.56,-27.69 320.5,-21.9"/>
</a>
</g>
</g>
<!-- Node13&#45;&gt;Node8 -->
<g id="edge17_Node000013_Node000008" class="edge">
<title>Node13&#45;&gt;Node8</title>
<g id="a_edge17_Node000013_Node000008"><a xlink:title=" ">
<path fill="none" stroke="#63b8ff" d="M678.97,-111.86C735.32,-102.82 827.57,-86.35 837.5,-74 842.79,-67.42 842.94,-61.46 837.5,-55 810.98,-23.56 693.65,-14.33 626.02,-11.62"/>
<polygon fill="#63b8ff" stroke="#63b8ff" points="625.73,-8.11 615.61,-11.24 625.48,-15.11 625.73,-8.11"/>
</a>
</g>
</g>
<!-- Node13&#45;&gt;Node9 -->
<g id="edge21_Node000013_Node000009" class="edge">
<title>Node13&#45;&gt;Node9</title>
<g id="a_edge21_Node000013_Node000009"><a xlink:title=" ">
<path fill="none" stroke="#63b8ff" d="M668.47,-110C703.79,-99.38 751.95,-79.57 729.5,-55 701.15,-23.96 408.29,-25.94 334.12,-18.66"/>
<polygon fill="#63b8ff" stroke="#63b8ff" points="334.53,-15.18 324.17,-17.41 333.65,-22.13 334.53,-15.18"/>
</a>
</g>
</g>
<!-- Node13&#45;&gt;Node10 -->
<g id="edge16_Node000013_Node000010" class="edge">
<title>Node13&#45;&gt;Node10</title>
<g id="a_edge16_Node000013_Node000010"><a xlink:title=" ">
<path fill="none" stroke="#63b8ff" d="M615.9,-109.98C596.18,-101.42 565.55,-88.11 542.92,-78.28"/>
<polygon fill="#63b8ff" stroke="#63b8ff" points="544.02,-74.94 533.46,-74.17 541.24,-81.37 544.02,-74.94"/>
</a>
</g>
</g>
<!-- Node13&#45;&gt;Node11 -->
<g id="edge18_Node000013_Node000011" class="edge">
<title>Node13&#45;&gt;Node11</title>
<g id="a_edge18_Node000013_Node000011"><a xlink:title=" ">
<path fill="none" stroke="#63b8ff" d="M645.78,-109.98C655.34,-102.07 669.78,-90.11 681.28,-80.58"/>
<polygon fill="#63b8ff" stroke="#63b8ff" points="683.56,-83.24 689.03,-74.17 679.1,-77.85 683.56,-83.24"/>
</a>
</g>
</g>
<!-- Node13&#45;&gt;Node12 -->
<g id="edge19_Node000013_Node000012" class="edge">
<title>Node13&#45;&gt;Node12</title>
<g id="a_edge19_Node000013_Node000012"><a xlink:title=" ">
<path fill="none" stroke="#63b8ff" d="M635.17,-109.75C634.91,-102.8 634.53,-92.85 634.2,-84.13"/>
<polygon fill="#63b8ff" stroke="#63b8ff" points="637.7,-83.95 633.82,-74.09 630.7,-84.21 637.7,-83.95"/>
</a>
</g>
</g>
<!-- Node14 -->
<g id="Node000014" class="node">
<title>Node14</title>
<g id="a_Node000014"><a xlink:title=" ">
<polygon fill="#e0e0e0" stroke="#999999" points="828.5,-74 776.5,-74 776.5,-55 828.5,-55 828.5,-74"/>
<text text-anchor="middle" x="802.5" y="-62" font-family="Helvetica,sans-Serif" font-size="10.00">QRectF</text>
</a>
</g>
</g>
<!-- Node13&#45;&gt;Node14 -->
<g id="edge20_Node000013_Node000014" class="edge">
<title>Node13&#45;&gt;Node14</title>
<g id="a_edge20_Node000013_Node000014"><a xlink:title=" ">
<path fill="none" stroke="#63b8ff" d="M662.33,-109.98C690.62,-101.01 735.33,-86.82 766.63,-76.88"/>
<polygon fill="#63b8ff" stroke="#63b8ff" points="767.81,-80.18 776.29,-73.82 765.7,-73.51 767.81,-80.18"/>
</a>
</g>
</g>
<!-- Node18&#45;&gt;Node4 -->
<g id="edge37_Node000018_Node000004" class="edge">
<title>Node18&#45;&gt;Node4</title>
<g id="a_edge37_Node000018_Node000004"><a xlink:title=" ">
<path fill="none" stroke="#63b8ff" d="M528.51,-225.49C489.9,-215.23 424.86,-197.93 382.3,-186.62"/>
<polygon fill="#63b8ff" stroke="#63b8ff" points="383.09,-183.2 372.53,-184.02 381.29,-189.97 383.09,-183.2"/>
</a>
</g>
</g>
<!-- Node18&#45;&gt;Node5 -->
<g id="edge38_Node000018_Node000005" class="edge">
<title>Node18&#45;&gt;Node5</title>
<g id="a_edge38_Node000018_Node000005"><a xlink:title=" ">
<path fill="none" stroke="#63b8ff" d="M550.58,-225.21C541.03,-216.02 527.23,-200.66 521.5,-184 516.48,-169.41 518.98,-151.94 522.31,-139.01"/>
<polygon fill="#63b8ff" stroke="#63b8ff" points="525.68,-139.98 525.16,-129.39 518.97,-137.99 525.68,-139.98"/>
</a>
</g>
</g>
<!-- Node18&#45;&gt;Node6 -->
<g id="edge39_Node000018_Node000006" class="edge">
<title>Node18&#45;&gt;Node6</title>
<g id="a_edge39_Node000018_Node000006"><a xlink:title=" ">
<path fill="none" stroke="#63b8ff" d="M551.07,-225.41C521.64,-198.6 431.13,-116.17 392.87,-81.32"/>
<polygon fill="#63b8ff" stroke="#63b8ff" points="394.88,-78.42 385.13,-74.27 390.17,-83.59 394.88,-78.42"/>
</a>
</g>
</g>
<!-- Node18&#45;&gt;Node8 -->
<g id="edge42_Node000018_Node000008" class="edge">
<title>Node18&#45;&gt;Node8</title>
<g id="a_edge42_Node000018_Node000008"><a xlink:title=" ">
<path fill="none" stroke="#63b8ff" d="M584.75,-225.39C606.48,-216.94 638.52,-202.64 662.5,-184 696.61,-157.5 689.13,-133.3 725.5,-110 777.63,-76.6 893.65,-102.14 853.5,-55 824.82,-21.32 697.05,-13.04 625.84,-11.07"/>
<polygon fill="#63b8ff" stroke="#63b8ff" points="625.85,-7.57 615.76,-10.82 625.67,-14.56 625.85,-7.57"/>
</a>
</g>
</g>
<!-- Node18&#45;&gt;Node9 -->
<g id="edge47_Node000018_Node000009" class="edge">
<title>Node18&#45;&gt;Node9</title>
<g id="a_edge47_Node000018_Node000009"><a xlink:title=" ">
<path fill="none" stroke="#63b8ff" d="M507.33,-225.45C426.64,-212.36 282.18,-188.39 278.5,-184 240.92,-139.18 270.82,-63.3 287.8,-28.69"/>
<polygon fill="#63b8ff" stroke="#63b8ff" points="291.13,-29.85 292.56,-19.35 284.9,-26.67 291.13,-29.85"/>
</a>
</g>
</g>
<!-- Node18&#45;&gt;Node13 -->
<g id="edge40_Node000018_Node000013" class="edge">
<title>Node18&#45;&gt;Node13</title>
<g id="a_edge40_Node000018_Node000013"><a xlink:title=" ">
<path fill="none" stroke="#63b8ff" d="M589.29,-225.48C608.95,-217.99 633.51,-204.95 645.5,-184 653.37,-170.24 649.43,-152.2 644.36,-138.87"/>
<polygon fill="#63b8ff" stroke="#63b8ff" points="647.43,-137.15 640.26,-129.36 641,-139.92 647.43,-137.15"/>
</a>
</g>
</g>
<!-- Node18&#45;&gt;Node16 -->
<g id="edge41_Node000018_Node000016" class="edge">
<title>Node18&#45;&gt;Node16</title>
<g id="a_edge41_Node000018_Node000016"><a xlink:title=" ">
<path fill="none" stroke="#63b8ff" d="M507.72,-225.46C495.51,-223.57 482.56,-221.65 470.5,-220 346.85,-203.09 199.84,-186.85 131.69,-179.54"/>
<polygon fill="#63b8ff" stroke="#63b8ff" points="131.76,-176.03 121.45,-178.44 131.02,-182.99 131.76,-176.03"/>
</a>
</g>
</g>
<!-- Node18&#45;&gt;Node17 -->
<g id="edge44_Node000018_Node000017" class="edge">
<title>Node18&#45;&gt;Node17</title>
<g id="a_edge44_Node000018_Node000017"><a xlink:title=" ">
<path fill="none" stroke="#63b8ff" d="M619.7,-225.46C651.97,-218.49 691.19,-206.04 720.5,-184 736.14,-172.24 747.74,-152.84 754.74,-138.57"/>
<polygon fill="#63b8ff" stroke="#63b8ff" points="758.02,-139.82 759.02,-129.28 751.66,-136.9 758.02,-139.82"/>
</a>
</g>
</g>
<!-- Node19 -->
<g id="Node000019" class="node">
<title>Node19</title>
<g id="a_Node000019"><a xlink:href="LcscImageService_8h.html" target="_top" xlink:title=" ">
<polygon fill="white" stroke="#666666" points="924,-184 811,-184 811,-165 924,-165 924,-184"/>
<text text-anchor="middle" x="867.5" y="-172" font-family="Helvetica,sans-Serif" font-size="10.00">LcscImageService.h</text>
</a>
</g>
</g>
<!-- Node18&#45;&gt;Node19 -->
<g id="edge31_Node000018_Node000019" class="edge">
<title>Node18&#45;&gt;Node19</title>
<g id="a_edge31_Node000018_Node000019"><a xlink:title=" ">
<path fill="none" stroke="#63b8ff" d="M605.14,-225.49C660.16,-215.01 753.63,-197.2 812.88,-185.91"/>
<polygon fill="#63b8ff" stroke="#63b8ff" points="813.64,-189.33 822.81,-184.02 812.33,-182.45 813.64,-189.33"/>
</a>
</g>
</g>
<!-- Node22 -->
<g id="Node000022" class="node">
<title>Node22</title>
<g id="a_Node000022"><a xlink:title=" ">
<polygon fill="#e0e0e0" stroke="#999999" points="864.5,-129 808.5,-129 808.5,-110 864.5,-110 864.5,-129"/>
<text text-anchor="middle" x="836.5" y="-117" font-family="Helvetica,sans-Serif" font-size="10.00">QQueue</text>
</a>
</g>
</g>
<!-- Node18&#45;&gt;Node22 -->
<g id="edge46_Node000018_Node000022" class="edge">
<title>Node18&#45;&gt;Node22</title>
<g id="a_edge46_Node000018_Node000022"><a xlink:title=" ">
<path fill="none" stroke="#63b8ff" d="M607.59,-225.47C645.22,-217.63 698.74,-204.13 742.5,-184 770.79,-170.99 800,-149.82 818.19,-135.54"/>
<polygon fill="#63b8ff" stroke="#63b8ff" points="820.56,-138.13 826.19,-129.15 816.19,-132.66 820.56,-138.13"/>
</a>
</g>
</g>
<!-- Node23 -->
<g id="Node000023" class="node">
<title>Node23</title>
<g id="a_Node000023"><a xlink:title=" ">
<polygon fill="#e0e0e0" stroke="#999999" points="576,-184 531,-184 531,-165 576,-165 576,-184"/>
<text text-anchor="middle" x="553.5" y="-172" font-family="Helvetica,sans-Serif" font-size="10.00">QMap</text>
</a>
</g>
</g>
<!-- Node18&#45;&gt;Node23 -->
<g id="edge43_Node000018_Node000023" class="edge">
<title>Node18&#45;&gt;Node23</title>
<g id="a_edge43_Node000018_Node000023"><a xlink:title=" ">
<path fill="none" stroke="#63b8ff" d="M559.47,-225.37C558.5,-217.25 557.01,-204.81 555.76,-194.39"/>
<polygon fill="#63b8ff" stroke="#63b8ff" points="559.2,-193.68 554.54,-184.17 552.25,-194.51 559.2,-193.68"/>
</a>
</g>
</g>
<!-- Node24 -->
<g id="Node000024" class="node">
<title>Node24</title>
<g id="a_Node000024"><a xlink:title=" ">
<polygon fill="#e0e0e0" stroke="#999999" points="636.5,-184 594.5,-184 594.5,-165 636.5,-165 636.5,-184"/>
<text text-anchor="middle" x="615.5" y="-172" font-family="Helvetica,sans-Serif" font-size="10.00">QPair</text>
</a>
</g>
</g>
<!-- Node18&#45;&gt;Node24 -->
<g id="edge45_Node000018_Node000024" class="edge">
<title>Node18&#45;&gt;Node24</title>
<g id="a_edge45_Node000018_Node000024"><a xlink:title=" ">
<path fill="none" stroke="#63b8ff" d="M568.62,-225.37C576.9,-216.55 589.97,-202.66 600.2,-191.77"/>
<polygon fill="#63b8ff" stroke="#63b8ff" points="603.05,-193.85 607.35,-184.17 597.95,-189.06 603.05,-193.85"/>
</a>
</g>
</g>
<!-- Node18&#45;&gt;Node25 -->
<g id="edge48_Node000018_Node000025" class="edge">
<title>Node18&#45;&gt;Node25</title>
<g id="a_edge48_Node000018_Node000025"><a xlink:title=" ">
<path fill="none" stroke="#63b8ff" d="M617.24,-225.47C629.83,-223.63 643.11,-221.71 655.5,-220 775.66,-203.37 808.77,-203.79 932.24,-184.11"/>
<polygon fill="#63b8ff" stroke="#63b8ff" points="933.15,-187.51 942.47,-182.47 932.04,-180.6 933.15,-187.51"/>
</a>
</g>
</g>
<!-- Node19&#45;&gt;Node9 -->
<g id="edge36_Node000019_Node000009" class="edge">
<title>Node19&#45;&gt;Node9</title>
<g id="a_edge36_Node000019_Node000009"><a xlink:title=" ">
<path fill="none" stroke="#63b8ff" d="M870.4,-164.67C874.03,-152.21 879.13,-128.89 873.5,-110 865.15,-82 862.69,-69.8 837.5,-55 743.15,0.43 459.75,-34.31 334.35,-18.88"/>
<polygon fill="#63b8ff" stroke="#63b8ff" points="334.55,-15.38 324.16,-17.46 333.58,-22.31 334.55,-15.38"/>
</a>
</g>
</g>
<!-- Node19&#45;&gt;Node17 -->
<g id="edge34_Node000019_Node000017" class="edge">
<title>Node19&#45;&gt;Node17</title>
<g id="a_edge34_Node000019_Node000017"><a xlink:title=" ">
<path fill="none" stroke="#63b8ff" d="M850.63,-164.98C833.89,-156.54 808,-143.47 788.61,-133.68"/>
<polygon fill="#63b8ff" stroke="#63b8ff" points="790.18,-130.55 779.68,-129.17 787.03,-136.8 790.18,-130.55"/>
</a>
</g>
</g>
<!-- Node20 -->
<g id="Node000020" class="node">
<title>Node20</title>
<g id="a_Node000020"><a xlink:title=" ">
<polygon fill="#e0e0e0" stroke="#999999" points="1062.5,-129 920.5,-129 920.5,-110 1062.5,-110 1062.5,-129"/>
<text text-anchor="middle" x="991.5" y="-117" font-family="Helvetica,sans-Serif" font-size="10.00">QNetworkAccessManager</text>
</a>
</g>
</g>
<!-- Node19&#45;&gt;Node20 -->
<g id="edge32_Node000019_Node000020" class="edge">
<title>Node19&#45;&gt;Node20</title>
<g id="a_edge32_Node000019_Node000020"><a xlink:title=" ">
<path fill="none" stroke="#63b8ff" d="M887.42,-164.98C907.55,-156.38 938.88,-142.99 961.91,-133.15"/>
<polygon fill="#63b8ff" stroke="#63b8ff" points="963.4,-136.32 971.21,-129.17 960.64,-129.88 963.4,-136.32"/>
</a>
</g>
</g>
<!-- Node21 -->
<g id="Node000021" class="node">
<title>Node21</title>
<g id="a_Node000021"><a xlink:title=" ">
<polygon fill="#e0e0e0" stroke="#999999" points="1174,-129 1081,-129 1081,-110 1174,-110 1174,-129"/>
<text text-anchor="middle" x="1127.5" y="-117" font-family="Helvetica,sans-Serif" font-size="10.00">QNetworkReply</text>
</a>
</g>
</g>
<!-- Node19&#45;&gt;Node21 -->
<g id="edge33_Node000019_Node000021" class="edge">
<title>Node19&#45;&gt;Node21</title>
<g id="a_edge33_Node000019_Node000021"><a xlink:title=" ">
<path fill="none" stroke="#63b8ff" d="M909.27,-164.98C954.44,-155.78 1026.5,-141.09 1075.35,-131.13"/>
<polygon fill="#63b8ff" stroke="#63b8ff" points="1076.3,-134.51 1085.4,-129.08 1074.9,-127.65 1076.3,-134.51"/>
</a>
</g>
</g>
<!-- Node19&#45;&gt;Node22 -->
<g id="edge35_Node000019_Node000022" class="edge">
<title>Node19&#45;&gt;Node22</title>
<g id="a_edge35_Node000019_Node000022"><a xlink:title=" ">
<path fill="none" stroke="#63b8ff" d="M862.38,-164.75C858.14,-157.49 851.97,-146.95 846.72,-137.98"/>
<polygon fill="#63b8ff" stroke="#63b8ff" points="849.59,-135.95 841.52,-129.09 843.55,-139.49 849.59,-135.95"/>
</a>
</g>
</g>
<!-- Node29&#45;&gt;Node4 -->
<g id="edge54_Node000029_Node000004" class="edge">
<title>Node29&#45;&gt;Node4</title>
<g id="a_edge54_Node000029_Node000004"><a xlink:title=" ">
<path fill="none" stroke="#63b8ff" d="M118.31,-225.49C164.42,-215.12 242.43,-197.57 292.68,-186.26"/>
<polygon fill="#63b8ff" stroke="#63b8ff" points="293.66,-189.63 302.65,-184.02 292.12,-182.8 293.66,-189.63"/>
</a>
</g>
</g>
<!-- Node29&#45;&gt;Node15 -->
<g id="edge56_Node000029_Node000015" class="edge">
<title>Node29&#45;&gt;Node15</title>
<g id="a_edge56_Node000029_Node000015"><a xlink:title=" ">
<path fill="none" stroke="#63b8ff" d="M73.11,-225.24C62.78,-211.87 46.38,-185.75 56.5,-165 62.8,-152.09 74.85,-141.83 86.26,-134.43"/>
<polygon fill="#63b8ff" stroke="#63b8ff" points="88.36,-137.25 95.15,-129.12 84.77,-131.25 88.36,-137.25"/>
</a>
</g>
</g>
<!-- Node29&#45;&gt;Node16 -->
<g id="edge55_Node000029_Node000016" class="edge">
<title>Node29&#45;&gt;Node16</title>
<g id="a_edge55_Node000029_Node000016"><a xlink:title=" ">
<path fill="none" stroke="#63b8ff" d="M82.42,-225.37C84.24,-217.16 87.05,-204.54 89.38,-194.05"/>
<polygon fill="#63b8ff" stroke="#63b8ff" points="92.82,-194.69 91.57,-184.17 85.99,-193.17 92.82,-194.69"/>
</a>
</g>
</g>
</g>
</svg>
