<?xml version="1.0" encoding="UTF-8" standalone="no"?>
<!DOCTYPE svg PUBLIC "-//W3C//DTD SVG 1.1//EN"
 "http://www.w3.org/Graphics/SVG/1.1/DTD/svg11.dtd">
<!-- Generated by graphviz version 2.43.0 (0)
 -->
<!-- Title: services/ComponentExportTask.cpp Pages: 1 -->
<svg width="1686pt" height="368pt"
 viewBox="0.00 0.00 1685.59 368.00" xmlns="http://www.w3.org/2000/svg" xmlns:xlink="http://www.w3.org/1999/xlink">
<g id="graph0" class="graph" transform="scale(1 1) rotate(0) translate(4 364)">
<title>services/ComponentExportTask.cpp</title>
<!-- Node1 -->
<g id="Node000001" class="node">
<title>Node1</title>
<g id="a_Node000001"><a xlink:title=" ">
<polygon fill="#999999" stroke="#666666" points="1090,-360 942,-360 942,-330 1090,-330 1090,-360"/>
<text text-anchor="start" x="950" y="-348" font-family="Helvetica,sans-Serif" font-size="10.00">services/ComponentExport</text>
<text text-anchor="middle" x="1016" y="-337" font-family="Helvetica,sans-Serif" font-size="10.00">Task.cpp</text>
</a>
</g>
</g>
<!-- Node2 -->
<g id="Node000002" class="node">
<title>Node2</title>
<g id="a_Node000002"><a xlink:href="ComponentExportTask_8h.html" target="_top" xlink:title=" ">
<polygon fill="white" stroke="#666666" points="834.5,-294 699.5,-294 699.5,-275 834.5,-275 834.5,-294"/>
<text text-anchor="middle" x="767" y="-282" font-family="Helvetica,sans-Serif" font-size="10.00">ComponentExportTask.h</text>
</a>
</g>
</g>
<!-- Node1&#45;&gt;Node2 -->
<g id="edge1_Node000001_Node000002" class="edge">
<title>Node1&#45;&gt;Node2</title>
<g id="a_edge1_Node000001_Node000002"><a xlink:title=" ">
<path fill="none" stroke="#63b8ff" d="M956.36,-329.99C912.46,-319.67 853.63,-305.85 813.25,-296.37"/>
<polygon fill="#63b8ff" stroke="#63b8ff" points="813.94,-292.93 803.41,-294.05 812.34,-299.75 813.94,-292.93"/>
</a>
</g>
</g>
<!-- Node23 -->
<g id="Node000023" class="node">
<title>Node23</title>
<g id="a_Node000023"><a xlink:href="Exporter3DModel_8h.html" target="_top" xlink:title=" ">
<polygon fill="white" stroke="#666666" points="164,-239 0,-239 0,-220 164,-220 164,-239"/>
<text text-anchor="middle" x="82" y="-227" font-family="Helvetica,sans-Serif" font-size="10.00">core/kicad/Exporter3DModel.h</text>
</a>
</g>
</g>
<!-- Node1&#45;&gt;Node23 -->
<g id="edge39_Node000001_Node000023" class="edge">
<title>Node1&#45;&gt;Node23</title>
<g id="a_edge39_Node000001_Node000023"><a xlink:title=" ">
<path fill="none" stroke="#63b8ff" d="M941.93,-335C769.24,-314.01 341.07,-261.98 162.36,-240.27"/>
<polygon fill="#63b8ff" stroke="#63b8ff" points="162.59,-236.77 152.24,-239.04 161.74,-243.72 162.59,-236.77"/>
</a>
</g>
</g>
<!-- Node24 -->
<g id="Node000024" class="node">
<title>Node24</title>
<g id="a_Node000024"><a xlink:href="ExporterFootprint_8h.html" target="_top" xlink:title=" ">
<polygon fill="white" stroke="#666666" points="1164,-239 1000,-239 1000,-220 1164,-220 1164,-239"/>
<text text-anchor="middle" x="1082" y="-227" font-family="Helvetica,sans-Serif" font-size="10.00">core/kicad/ExporterFootprint.h</text>
</a>
</g>
</g>
<!-- Node1&#45;&gt;Node24 -->
<g id="edge44_Node000001_Node000024" class="edge">
<title>Node1&#45;&gt;Node24</title>
<g id="a_edge44_Node000001_Node000024"><a xlink:title=" ">
<path fill="none" stroke="#63b8ff" d="M1007.66,-329.83C1000.24,-315.17 991.96,-292.07 1002,-275 1010.74,-260.14 1026.44,-249.88 1041.63,-242.99"/>
<polygon fill="#63b8ff" stroke="#63b8ff" points="1043.06,-246.19 1050.95,-239.13 1040.38,-239.72 1043.06,-246.19"/>
</a>
</g>
</g>
<!-- Node27 -->
<g id="Node000027" class="node">
<title>Node27</title>
<g id="a_Node000027"><a xlink:href="ExporterSymbol_8h.html" target="_top" xlink:title=" ">
<polygon fill="white" stroke="#666666" points="1523.5,-239 1366.5,-239 1366.5,-220 1523.5,-220 1523.5,-239"/>
<text text-anchor="middle" x="1445" y="-227" font-family="Helvetica,sans-Serif" font-size="10.00">core/kicad/ExporterSymbol.h</text>
</a>
</g>
</g>
<!-- Node1&#45;&gt;Node27 -->
<g id="edge54_Node000001_Node000027" class="edge">
<title>Node1&#45;&gt;Node27</title>
<g id="a_edge54_Node000001_Node000027"><a xlink:title=" ">
<path fill="none" stroke="#63b8ff" d="M1015.56,-329.94C1015.89,-314.02 1019.1,-288.53 1035,-275 1058.95,-254.62 1243.15,-241.25 1356.35,-234.87"/>
<polygon fill="#63b8ff" stroke="#63b8ff" points="1356.61,-238.36 1366.4,-234.31 1356.22,-231.37 1356.61,-238.36"/>
</a>
</g>
</g>
<!-- Node29 -->
<g id="Node000029" class="node">
<title>Node29</title>
<g id="a_Node000029"><a xlink:title=" ">
<polygon fill="#e0e0e0" stroke="#999999" points="1100,-294 1044,-294 1044,-275 1100,-275 1100,-294"/>
<text text-anchor="middle" x="1072" y="-282" font-family="Helvetica,sans-Serif" font-size="10.00">QDebug</text>
</a>
</g>
</g>
<!-- Node1&#45;&gt;Node29 -->
<g id="edge63_Node000001_Node000029" class="edge">
<title>Node1&#45;&gt;Node29</title>
<g id="a_edge63_Node000001_Node000029"><a xlink:title=" ">
<path fill="none" stroke="#63b8ff" d="M1029.56,-329.84C1037.68,-321.35 1048.05,-310.52 1056.5,-301.69"/>
<polygon fill="#63b8ff" stroke="#63b8ff" points="1059.22,-303.91 1063.61,-294.27 1054.17,-299.07 1059.22,-303.91"/>
</a>
</g>
</g>
<!-- Node30 -->
<g id="Node000030" class="node">
<title>Node30</title>
<g id="a_Node000030"><a xlink:title=" ">
<polygon fill="#e0e0e0" stroke="#999999" points="1156,-294 1118,-294 1118,-275 1156,-275 1156,-294"/>
<text text-anchor="middle" x="1137" y="-282" font-family="Helvetica,sans-Serif" font-size="10.00">QDir</text>
</a>
</g>
</g>
<!-- Node1&#45;&gt;Node30 -->
<g id="edge64_Node000001_Node000030" class="edge">
<title>Node1&#45;&gt;Node30</title>
<g id="a_edge64_Node000001_Node000030"><a xlink:title=" ">
<path fill="none" stroke="#63b8ff" d="M1044.98,-329.99C1064.72,-320.45 1090.67,-307.9 1109.97,-298.57"/>
<polygon fill="#63b8ff" stroke="#63b8ff" points="1111.65,-301.64 1119.13,-294.14 1108.6,-295.34 1111.65,-301.64"/>
</a>
</g>
</g>
<!-- Node31 -->
<g id="Node000031" class="node">
<title>Node31</title>
<g id="a_Node000031"><a xlink:title=" ">
<polygon fill="#e0e0e0" stroke="#999999" points="1215.5,-294 1174.5,-294 1174.5,-275 1215.5,-275 1215.5,-294"/>
<text text-anchor="middle" x="1195" y="-282" font-family="Helvetica,sans-Serif" font-size="10.00">QFile</text>
</a>
</g>
</g>
<!-- Node1&#45;&gt;Node31 -->
<g id="edge65_Node000001_Node000031" class="edge">
<title>Node1&#45;&gt;Node31</title>
<g id="a_edge65_Node000001_Node000031"><a xlink:title=" ">
<path fill="none" stroke="#63b8ff" d="M1058.87,-329.99C1091.44,-319.34 1135.44,-304.97 1164.49,-295.47"/>
<polygon fill="#63b8ff" stroke="#63b8ff" points="1165.68,-298.77 1174.09,-292.33 1163.5,-292.11 1165.68,-298.77"/>
</a>
</g>
</g>
<!-- Node3 -->
<g id="Node000003" class="node">
<title>Node3</title>
<g id="a_Node000003"><a xlink:href="ExportService_8h.html" target="_top" xlink:title=" ">
<polygon fill="white" stroke="#666666" points="713.5,-239 620.5,-239 620.5,-220 713.5,-220 713.5,-239"/>
<text text-anchor="middle" x="667" y="-227" font-family="Helvetica,sans-Serif" font-size="10.00">ExportService.h</text>
</a>
</g>
</g>
<!-- Node2&#45;&gt;Node3 -->
<g id="edge2_Node000002_Node000003" class="edge">
<title>Node2&#45;&gt;Node3</title>
<g id="a_edge2_Node000002_Node000003"><a xlink:title=" ">
<path fill="none" stroke="#63b8ff" d="M750.93,-274.98C735.14,-266.61 710.78,-253.7 692.37,-243.95"/>
<polygon fill="#63b8ff" stroke="#63b8ff" points="693.83,-240.76 683.36,-239.17 690.56,-246.95 693.83,-240.76"/>
</a>
</g>
</g>
<!-- Node4 -->
<g id="Node000004" class="node">
<title>Node4</title>
<g id="a_Node000004"><a xlink:href="ComponentData_8h.html" target="_top" xlink:title=" ">
<polygon fill="white" stroke="#666666" points="839,-184 695,-184 695,-165 839,-165 839,-184"/>
<text text-anchor="middle" x="767" y="-172" font-family="Helvetica,sans-Serif" font-size="10.00">models/ComponentData.h</text>
</a>
</g>
</g>
<!-- Node2&#45;&gt;Node4 -->
<g id="edge36_Node000002_Node000004" class="edge">
<title>Node2&#45;&gt;Node4</title>
<g id="a_edge36_Node000002_Node000004"><a xlink:title=" ">
<path fill="none" stroke="#63b8ff" d="M767,-274.66C767,-257.17 767,-217.8 767,-194.27"/>
<polygon fill="#63b8ff" stroke="#63b8ff" points="770.5,-194.16 767,-184.16 763.5,-194.16 770.5,-194.16"/>
</a>
</g>
</g>
<!-- Node19 -->
<g id="Node000019" class="node">
<title>Node19</title>
<g id="a_Node000019"><a xlink:title=" ">
<polygon fill="#e0e0e0" stroke="#999999" points="989,-184 933,-184 933,-165 989,-165 989,-184"/>
<text text-anchor="middle" x="961" y="-172" font-family="Helvetica,sans-Serif" font-size="10.00">QObject</text>
</a>
</g>
</g>
<!-- Node2&#45;&gt;Node19 -->
<g id="edge37_Node000002_Node000019" class="edge">
<title>Node2&#45;&gt;Node19</title>
<g id="a_edge37_Node000002_Node000019"><a xlink:title=" ">
<path fill="none" stroke="#63b8ff" d="M782.55,-274.84C816.26,-256.08 896.3,-211.52 936.73,-189.01"/>
<polygon fill="#63b8ff" stroke="#63b8ff" points="938.61,-191.97 945.65,-184.05 935.21,-185.85 938.61,-191.97"/>
</a>
</g>
</g>
<!-- Node22 -->
<g id="Node000022" class="node">
<title>Node22</title>
<g id="a_Node000022"><a xlink:title=" ">
<polygon fill="#e0e0e0" stroke="#999999" points="602,-239 532,-239 532,-220 602,-220 602,-239"/>
<text text-anchor="middle" x="567" y="-227" font-family="Helvetica,sans-Serif" font-size="10.00">QRunnable</text>
</a>
</g>
</g>
<!-- Node2&#45;&gt;Node22 -->
<g id="edge38_Node000002_Node000022" class="edge">
<title>Node2&#45;&gt;Node22</title>
<g id="a_edge38_Node000002_Node000022"><a xlink:title=" ">
<path fill="none" stroke="#63b8ff" d="M734.87,-274.98C700.85,-265.97 647,-251.7 609.5,-241.76"/>
<polygon fill="#63b8ff" stroke="#63b8ff" points="609.95,-238.26 599.39,-239.08 608.16,-245.03 609.95,-238.26"/>
</a>
</g>
</g>
<!-- Node3&#45;&gt;Node4 -->
<g id="edge3_Node000003_Node000004" class="edge">
<title>Node3&#45;&gt;Node4</title>
<g id="a_edge3_Node000003_Node000004"><a xlink:title=" ">
<path fill="none" stroke="#63b8ff" d="M683.07,-219.98C698.86,-211.61 723.22,-198.7 741.63,-188.95"/>
<polygon fill="#63b8ff" stroke="#63b8ff" points="743.44,-191.95 750.64,-184.17 740.17,-185.76 743.44,-191.95"/>
</a>
</g>
</g>
<!-- Node5 -->
<g id="Node000005" class="node">
<title>Node5</title>
<g id="a_Node000005"><a xlink:href="FootprintData_8h.html" target="_top" xlink:title=" ">
<polygon fill="white" stroke="#666666" points="1139,-129 1047,-129 1047,-110 1139,-110 1139,-129"/>
<text text-anchor="middle" x="1093" y="-117" font-family="Helvetica,sans-Serif" font-size="10.00">FootprintData.h</text>
</a>
</g>
</g>
<!-- Node3&#45;&gt;Node5 -->
<g id="edge26_Node000003_Node000005" class="edge">
<title>Node3&#45;&gt;Node5</title>
<g id="a_edge26_Node000003_Node000005"><a xlink:title=" ">
<path fill="none" stroke="#63b8ff" d="M710.77,-219.99C747.81,-212.25 802.06,-199.66 848,-184 867.78,-177.26 871.14,-171.5 891,-165 939.29,-149.19 995.92,-137.26 1036.91,-129.75"/>
<polygon fill="#63b8ff" stroke="#63b8ff" points="1037.75,-133.16 1046.98,-127.94 1036.51,-126.27 1037.75,-133.16"/>
</a>
</g>
</g>
<!-- Node6 -->
<g id="Node000006" class="node">
<title>Node6</title>
<g id="a_Node000006"><a xlink:href="Model3DData_8h.html" target="_top" xlink:title=" ">
<polygon fill="white" stroke="#666666" points="801,-74 709,-74 709,-55 801,-55 801,-74"/>
<text text-anchor="middle" x="755" y="-62" font-family="Helvetica,sans-Serif" font-size="10.00">Model3DData.h</text>
</a>
</g>
</g>
<!-- Node3&#45;&gt;Node6 -->
<g id="edge27_Node000003_Node000006" class="edge">
<title>Node3&#45;&gt;Node6</title>
<g id="a_edge27_Node000003_Node000006"><a xlink:title=" ">
<path fill="none" stroke="#63b8ff" d="M620.26,-220.15C569.18,-210.55 493.44,-194.75 485,-184 479.79,-177.36 480.17,-171.93 485,-165 533.11,-96 634.73,-74.72 698.67,-68.24"/>
<polygon fill="#63b8ff" stroke="#63b8ff" points="699.34,-71.69 708.98,-67.29 698.7,-64.72 699.34,-71.69"/>
</a>
</g>
</g>
<!-- Node9 -->
<g id="Node000009" class="node">
<title>Node9</title>
<g id="a_Node000009"><a xlink:title=" ">
<polygon fill="#e0e0e0" stroke="#999999" points="1293.5,-19 1240.5,-19 1240.5,0 1293.5,0 1293.5,-19"/>
<text text-anchor="middle" x="1267" y="-7" font-family="Helvetica,sans-Serif" font-size="10.00">QString</text>
</a>
</g>
</g>
<!-- Node3&#45;&gt;Node9 -->
<g id="edge33_Node000003_Node000009" class="edge">
<title>Node3&#45;&gt;Node9</title>
<g id="a_edge33_Node000003_Node000009"><a xlink:title=" ">
<path fill="none" stroke="#63b8ff" d="M665.45,-219.94C662.07,-198.3 656.52,-140.91 686,-110 706.61,-88.4 919.59,-60.13 949,-55 1050.28,-37.34 1170.68,-22.03 1230.08,-14.85"/>
<polygon fill="#63b8ff" stroke="#63b8ff" points="1230.59,-18.31 1240.1,-13.65 1229.76,-11.36 1230.59,-18.31"/>
</a>
</g>
</g>
<!-- Node13 -->
<g id="Node000013" class="node">
<title>Node13</title>
<g id="a_Node000013"><a xlink:href="SymbolData_8h.html" target="_top" xlink:title=" ">
<polygon fill="white" stroke="#666666" points="1295,-129 1209,-129 1209,-110 1295,-110 1295,-129"/>
<text text-anchor="middle" x="1252" y="-117" font-family="Helvetica,sans-Serif" font-size="10.00">SymbolData.h</text>
</a>
</g>
</g>
<!-- Node3&#45;&gt;Node13 -->
<g id="edge28_Node000003_Node000013" class="edge">
<title>Node3&#45;&gt;Node13</title>
<g id="a_edge28_Node000003_Node000013"><a xlink:title=" ">
<path fill="none" stroke="#63b8ff" d="M713.57,-222.28C758.1,-215.55 826.74,-203.16 884,-184 902.66,-177.76 905.14,-170.61 924,-165 974.21,-150.06 1119.26,-133.83 1198.6,-125.73"/>
<polygon fill="#63b8ff" stroke="#63b8ff" points="1199.28,-129.17 1208.87,-124.68 1198.57,-122.21 1199.28,-129.17"/>
</a>
</g>
</g>
<!-- Node16 -->
<g id="Node000016" class="node">
<title>Node16</title>
<g id="a_Node000016"><a xlink:title=" ">
<polygon fill="#e0e0e0" stroke="#999999" points="565.5,-184 494.5,-184 494.5,-165 565.5,-165 565.5,-184"/>
<text text-anchor="middle" x="530" y="-172" font-family="Helvetica,sans-Serif" font-size="10.00">QAtomicInt</text>
</a>
</g>
</g>
<!-- Node3&#45;&gt;Node16 -->
<g id="edge29_Node000003_Node000016" class="edge">
<title>Node3&#45;&gt;Node16</title>
<g id="a_edge29_Node000003_Node000016"><a xlink:title=" ">
<path fill="none" stroke="#63b8ff" d="M644.99,-219.98C622.55,-211.3 587.52,-197.75 562.01,-187.88"/>
<polygon fill="#63b8ff" stroke="#63b8ff" points="563,-184.51 552.41,-184.17 560.48,-191.04 563,-184.51"/>
</a>
</g>
</g>
<!-- Node17 -->
<g id="Node000017" class="node">
<title>Node17</title>
<g id="a_Node000017"><a xlink:title=" ">
<polygon fill="#e0e0e0" stroke="#999999" points="638.5,-184 583.5,-184 583.5,-165 638.5,-165 638.5,-184"/>
<text text-anchor="middle" x="611" y="-172" font-family="Helvetica,sans-Serif" font-size="10.00">QMutex</text>
</a>
</g>
</g>
<!-- Node3&#45;&gt;Node17 -->
<g id="edge30_Node000003_Node000017" class="edge">
<title>Node3&#45;&gt;Node17</title>
<g id="a_edge30_Node000003_Node000017"><a xlink:title=" ">
<path fill="none" stroke="#63b8ff" d="M658,-219.98C649.81,-212.23 637.49,-200.58 627.53,-191.14"/>
<polygon fill="#63b8ff" stroke="#63b8ff" points="629.83,-188.5 620.16,-184.17 625.02,-193.59 629.83,-188.5"/>
</a>
</g>
</g>
<!-- Node18 -->
<g id="Node000018" class="node">
<title>Node18</title>
<g id="a_Node000018"><a xlink:title=" ">
<polygon fill="#e0e0e0" stroke="#999999" points="252,-184 110,-184 110,-165 252,-165 252,-184"/>
<text text-anchor="middle" x="181" y="-172" font-family="Helvetica,sans-Serif" font-size="10.00">QNetworkAccessManager</text>
</a>
</g>
</g>
<!-- Node3&#45;&gt;Node18 -->
<g id="edge31_Node000003_Node000018" class="edge">
<title>Node3&#45;&gt;Node18</title>
<g id="a_edge31_Node000003_Node000018"><a xlink:title=" ">
<path fill="none" stroke="#63b8ff" d="M620.27,-221.24C617.14,-220.8 614.02,-220.38 611,-220 459.06,-200.67 418.19,-200.27 262.06,-184.1"/>
<polygon fill="#63b8ff" stroke="#63b8ff" points="262.41,-180.62 252.1,-183.07 261.68,-187.58 262.41,-180.62"/>
</a>
</g>
</g>
<!-- Node3&#45;&gt;Node19 -->
<g id="edge32_Node000003_Node000019" class="edge">
<title>Node3&#45;&gt;Node19</title>
<g id="a_edge32_Node000003_Node000019"><a xlink:title=" ">
<path fill="none" stroke="#63b8ff" d="M713.51,-220.64C764.13,-212.01 847.41,-197.56 919,-184 920.1,-183.79 921.21,-183.58 922.33,-183.36"/>
<polygon fill="#63b8ff" stroke="#63b8ff" points="923.41,-186.72 932.55,-181.36 922.07,-179.85 923.41,-186.72"/>
</a>
</g>
</g>
<!-- Node20 -->
<g id="Node000020" class="node">
<title>Node20</title>
<g id="a_Node000020"><a xlink:title=" ">
<polygon fill="#e0e0e0" stroke="#999999" points="340,-184 270,-184 270,-165 340,-165 340,-184"/>
<text text-anchor="middle" x="305" y="-172" font-family="Helvetica,sans-Serif" font-size="10.00">QStringList</text>
</a>
</g>
</g>
<!-- Node3&#45;&gt;Node20 -->
<g id="edge34_Node000003_Node000020" class="edge">
<title>Node3&#45;&gt;Node20</title>
<g id="a_edge34_Node000003_Node000020"><a xlink:title=" ">
<path fill="none" stroke="#63b8ff" d="M620.26,-221.35C617.12,-220.89 614.02,-220.44 611,-220 497.85,-203.64 466.66,-203.17 350.07,-184.1"/>
<polygon fill="#63b8ff" stroke="#63b8ff" points="350.47,-180.62 340.03,-182.45 349.33,-187.52 350.47,-180.62"/>
</a>
</g>
</g>
<!-- Node21 -->
<g id="Node000021" class="node">
<title>Node21</title>
<g id="a_Node000021"><a xlink:title=" ">
<polygon fill="#e0e0e0" stroke="#999999" points="437.5,-184 358.5,-184 358.5,-165 437.5,-165 437.5,-184"/>
<text text-anchor="middle" x="398" y="-172" font-family="Helvetica,sans-Serif" font-size="10.00">QThreadPool</text>
</a>
</g>
</g>
<!-- Node3&#45;&gt;Node21 -->
<g id="edge35_Node000003_Node000021" class="edge">
<title>Node3&#45;&gt;Node21</title>
<g id="a_edge35_Node000003_Node000021"><a xlink:title=" ">
<path fill="none" stroke="#63b8ff" d="M623.78,-219.98C575.71,-210.51 498.17,-195.24 447.65,-185.28"/>
<polygon fill="#63b8ff" stroke="#63b8ff" points="448.09,-181.8 437.61,-183.3 446.74,-188.67 448.09,-181.8"/>
</a>
</g>
</g>
<!-- Node4&#45;&gt;Node5 -->
<g id="edge4_Node000004_Node000005" class="edge">
<title>Node4&#45;&gt;Node5</title>
<g id="a_edge4_Node000004_Node000005"><a xlink:title=" ">
<path fill="none" stroke="#63b8ff" d="M819.38,-164.98C878.84,-155.32 975.5,-139.6 1036.59,-129.67"/>
<polygon fill="#63b8ff" stroke="#63b8ff" points="1037.51,-133.07 1046.82,-128.01 1036.39,-126.16 1037.51,-133.07"/>
</a>
</g>
</g>
<!-- Node4&#45;&gt;Node6 -->
<g id="edge14_Node000004_Node000006" class="edge">
<title>Node4&#45;&gt;Node6</title>
<g id="a_edge14_Node000004_Node000006"><a xlink:title=" ">
<path fill="none" stroke="#63b8ff" d="M776,-164.59C787.14,-152.43 803.76,-129.87 796,-110 791.6,-98.73 782.86,-88.59 774.57,-80.85"/>
<polygon fill="#63b8ff" stroke="#63b8ff" points="776.77,-78.12 766.93,-74.2 772.18,-83.4 776.77,-78.12"/>
</a>
</g>
</g>
<!-- Node8 -->
<g id="Node000008" class="node">
<title>Node8</title>
<g id="a_Node000008"><a xlink:title=" ">
<polygon fill="#e0e0e0" stroke="#999999" points="962,-19 886,-19 886,0 962,0 962,-19"/>
<text text-anchor="middle" x="924" y="-7" font-family="Helvetica,sans-Serif" font-size="10.00">QJsonObject</text>
</a>
</g>
</g>
<!-- Node4&#45;&gt;Node8 -->
<g id="edge23_Node000004_Node000008" class="edge">
<title>Node4&#45;&gt;Node8</title>
<g id="a_edge23_Node000004_Node000008"><a xlink:title=" ">
<path fill="none" stroke="#63b8ff" d="M775.81,-164.68C784.73,-155.74 798.89,-141.47 811,-129 846.27,-92.67 887.17,-49.53 908.78,-26.64"/>
<polygon fill="#63b8ff" stroke="#63b8ff" points="911.51,-28.85 915.83,-19.17 906.42,-24.05 911.51,-28.85"/>
</a>
</g>
</g>
<!-- Node4&#45;&gt;Node9 -->
<g id="edge25_Node000004_Node000009" class="edge">
<title>Node4&#45;&gt;Node9</title>
<g id="a_edge25_Node000004_Node000009"><a xlink:title=" ">
<path fill="none" stroke="#63b8ff" d="M780.28,-164.89C814.91,-142.86 911.41,-84.14 1000,-55 1079.56,-28.83 1177.75,-17.53 1230.07,-13.08"/>
<polygon fill="#63b8ff" stroke="#63b8ff" points="1230.53,-16.55 1240.21,-12.25 1229.96,-9.58 1230.53,-16.55"/>
</a>
</g>
</g>
<!-- Node10 -->
<g id="Node000010" class="node">
<title>Node10</title>
<g id="a_Node000010"><a xlink:title=" ">
<polygon fill="#e0e0e0" stroke="#999999" points="1080.5,-74 1009.5,-74 1009.5,-55 1080.5,-55 1080.5,-74"/>
<text text-anchor="middle" x="1045" y="-62" font-family="Helvetica,sans-Serif" font-size="10.00">QJsonArray</text>
</a>
</g>
</g>
<!-- Node4&#45;&gt;Node10 -->
<g id="edge22_Node000004_Node000010" class="edge">
<title>Node4&#45;&gt;Node10</title>
<g id="a_edge22_Node000004_Node000010"><a xlink:title=" ">
<path fill="none" stroke="#63b8ff" d="M839.19,-164.96C895.84,-157.25 969.27,-144.71 995,-129 1013.1,-117.95 1027.25,-97.82 1035.81,-83.17"/>
<polygon fill="#63b8ff" stroke="#63b8ff" points="1039.06,-84.54 1040.83,-74.1 1032.93,-81.16 1039.06,-84.54"/>
</a>
</g>
</g>
<!-- Node4&#45;&gt;Node13 -->
<g id="edge15_Node000004_Node000013" class="edge">
<title>Node4&#45;&gt;Node13</title>
<g id="a_edge15_Node000004_Node000013"><a xlink:title=" ">
<path fill="none" stroke="#63b8ff" d="M839.09,-165.62C937.44,-154.87 1111.44,-135.86 1198.81,-126.31"/>
<polygon fill="#63b8ff" stroke="#63b8ff" points="1199.21,-129.79 1208.77,-125.22 1198.45,-122.83 1199.21,-129.79"/>
</a>
</g>
</g>
<!-- Node15 -->
<g id="Node000015" class="node">
<title>Node15</title>
<g id="a_Node000015"><a xlink:title=" ">
<polygon fill="#e0e0e0" stroke="#999999" points="787,-129 695,-129 695,-110 787,-110 787,-129"/>
<text text-anchor="middle" x="741" y="-117" font-family="Helvetica,sans-Serif" font-size="10.00">QSharedPointer</text>
</a>
</g>
</g>
<!-- Node4&#45;&gt;Node15 -->
<g id="edge24_Node000004_Node000015" class="edge">
<title>Node4&#45;&gt;Node15</title>
<g id="a_edge24_Node000004_Node000015"><a xlink:title=" ">
<path fill="none" stroke="#63b8ff" d="M762.71,-164.75C759.19,-157.57 754.09,-147.18 749.72,-138.27"/>
<polygon fill="#63b8ff" stroke="#63b8ff" points="752.76,-136.53 745.21,-129.09 746.48,-139.61 752.76,-136.53"/>
</a>
</g>
</g>
<!-- Node5&#45;&gt;Node6 -->
<g id="edge5_Node000005_Node000006" class="edge">
<title>Node5&#45;&gt;Node6</title>
<g id="a_edge5_Node000005_Node000006"><a xlink:title=" ">
<path fill="none" stroke="#63b8ff" d="M1046.71,-111.24C985.44,-101.63 877.49,-84.71 811.49,-74.36"/>
<polygon fill="#63b8ff" stroke="#63b8ff" points="811.69,-70.85 801.27,-72.76 810.61,-77.76 811.69,-70.85"/>
</a>
</g>
</g>
<!-- Node5&#45;&gt;Node8 -->
<g id="edge10_Node000005_Node000008" class="edge">
<title>Node5&#45;&gt;Node8</title>
<g id="a_edge10_Node000005_Node000008"><a xlink:title=" ">
<path fill="none" stroke="#63b8ff" d="M1071.14,-109.88C1051.76,-101.81 1023.04,-88.8 1000,-74 977.79,-59.73 954.88,-39.73 940.1,-26.01"/>
<polygon fill="#63b8ff" stroke="#63b8ff" points="942.46,-23.42 932.78,-19.11 937.66,-28.52 942.46,-23.42"/>
</a>
</g>
</g>
<!-- Node5&#45;&gt;Node9 -->
<g id="edge13_Node000005_Node000009" class="edge">
<title>Node5&#45;&gt;Node9</title>
<g id="a_edge13_Node000005_Node000009"><a xlink:title=" ">
<path fill="none" stroke="#63b8ff" d="M1095.65,-109.75C1100.23,-96.09 1110.92,-69.73 1129,-55 1158.16,-31.25 1200.28,-20.07 1230.3,-14.87"/>
<polygon fill="#63b8ff" stroke="#63b8ff" points="1231.05,-18.29 1240.38,-13.27 1229.95,-11.38 1231.05,-18.29"/>
</a>
</g>
</g>
<!-- Node5&#45;&gt;Node10 -->
<g id="edge9_Node000005_Node000010" class="edge">
<title>Node5&#45;&gt;Node10</title>
<g id="a_edge9_Node000005_Node000010"><a xlink:title=" ">
<path fill="none" stroke="#63b8ff" d="M1085.07,-109.75C1078.15,-102.11 1067.93,-90.82 1059.55,-81.56"/>
<polygon fill="#63b8ff" stroke="#63b8ff" points="1062.09,-79.15 1052.78,-74.09 1056.9,-83.85 1062.09,-79.15"/>
</a>
</g>
</g>
<!-- Node11 -->
<g id="Node000011" class="node">
<title>Node11</title>
<g id="a_Node000011"><a xlink:title=" ">
<polygon fill="#e0e0e0" stroke="#999999" points="1178.5,-74 1137.5,-74 1137.5,-55 1178.5,-55 1178.5,-74"/>
<text text-anchor="middle" x="1158" y="-62" font-family="Helvetica,sans-Serif" font-size="10.00">QList</text>
</a>
</g>
</g>
<!-- Node5&#45;&gt;Node11 -->
<g id="edge11_Node000005_Node000011" class="edge">
<title>Node5&#45;&gt;Node11</title>
<g id="a_edge11_Node000005_Node000011"><a xlink:title=" ">
<path fill="none" stroke="#63b8ff" d="M1103.44,-109.98C1113.15,-102.07 1127.82,-90.11 1139.5,-80.58"/>
<polygon fill="#63b8ff" stroke="#63b8ff" points="1141.83,-83.2 1147.37,-74.17 1137.4,-77.78 1141.83,-83.2"/>
</a>
</g>
</g>
<!-- Node12 -->
<g id="Node000012" class="node">
<title>Node12</title>
<g id="a_Node000012"><a xlink:title=" ">
<polygon fill="#e0e0e0" stroke="#999999" points="1251.5,-74 1196.5,-74 1196.5,-55 1251.5,-55 1251.5,-74"/>
<text text-anchor="middle" x="1224" y="-62" font-family="Helvetica,sans-Serif" font-size="10.00">QPointF</text>
</a>
</g>
</g>
<!-- Node5&#45;&gt;Node12 -->
<g id="edge12_Node000005_Node000012" class="edge">
<title>Node5&#45;&gt;Node12</title>
<g id="a_edge12_Node000005_Node000012"><a xlink:title=" ">
<path fill="none" stroke="#63b8ff" d="M1114.05,-109.98C1135.41,-101.34 1168.7,-87.87 1193.06,-78.02"/>
<polygon fill="#63b8ff" stroke="#63b8ff" points="1194.61,-81.17 1202.57,-74.17 1191.99,-74.68 1194.61,-81.17"/>
</a>
</g>
</g>
<!-- Node7 -->
<g id="Node000007" class="node">
<title>Node7</title>
<g id="a_Node000007"><a xlink:title=" ">
<polygon fill="#e0e0e0" stroke="#999999" points="417.5,-19 344.5,-19 344.5,0 417.5,0 417.5,-19"/>
<text text-anchor="middle" x="381" y="-7" font-family="Helvetica,sans-Serif" font-size="10.00">QByteArray</text>
</a>
</g>
</g>
<!-- Node6&#45;&gt;Node7 -->
<g id="edge6_Node000006_Node000007" class="edge">
<title>Node6&#45;&gt;Node7</title>
<g id="a_edge6_Node000006_Node000007"><a xlink:title=" ">
<path fill="none" stroke="#63b8ff" d="M708.77,-56.95C637.05,-46.78 499.77,-27.33 427.74,-17.12"/>
<polygon fill="#63b8ff" stroke="#63b8ff" points="428,-13.63 417.61,-15.69 427.02,-20.56 428,-13.63"/>
</a>
</g>
</g>
<!-- Node6&#45;&gt;Node8 -->
<g id="edge7_Node000006_Node000008" class="edge">
<title>Node6&#45;&gt;Node8</title>
<g id="a_edge7_Node000006_Node000008"><a xlink:title=" ">
<path fill="none" stroke="#63b8ff" d="M782.15,-54.98C810.53,-46.09 855.23,-32.07 886.86,-22.15"/>
<polygon fill="#63b8ff" stroke="#63b8ff" points="888.14,-25.41 896.63,-19.08 886.05,-18.73 888.14,-25.41"/>
</a>
</g>
</g>
<!-- Node6&#45;&gt;Node9 -->
<g id="edge8_Node000006_Node000009" class="edge">
<title>Node6&#45;&gt;Node9</title>
<g id="a_edge8_Node000006_Node000009"><a xlink:title=" ">
<path fill="none" stroke="#63b8ff" d="M801.34,-58.7C901.97,-48.29 1138.78,-23.77 1230.14,-14.32"/>
<polygon fill="#63b8ff" stroke="#63b8ff" points="1230.71,-17.78 1240.3,-13.26 1229.99,-10.81 1230.71,-17.78"/>
</a>
</g>
</g>
<!-- Node13&#45;&gt;Node8 -->
<g id="edge17_Node000013_Node000008" class="edge">
<title>Node13&#45;&gt;Node8</title>
<g id="a_edge17_Node000013_Node000008"><a xlink:title=" ">
<path fill="none" stroke="#63b8ff" d="M1256.94,-109.91C1263.95,-96.47 1274.51,-70.41 1261,-55 1242.27,-33.63 1060.93,-19.22 972.29,-13.4"/>
<polygon fill="#63b8ff" stroke="#63b8ff" points="972.42,-9.9 962.21,-12.75 971.97,-16.89 972.42,-9.9"/>
</a>
</g>
</g>
<!-- Node13&#45;&gt;Node9 -->
<g id="edge21_Node000013_Node000009" class="edge">
<title>Node13&#45;&gt;Node9</title>
<g id="a_edge21_Node000013_Node000009"><a xlink:title=" ">
<path fill="none" stroke="#63b8ff" d="M1295.13,-114.15C1321.19,-109.04 1352.47,-97.97 1369,-74 1388.59,-45.59 1340.26,-27.38 1303.61,-18.05"/>
<polygon fill="#63b8ff" stroke="#63b8ff" points="1304.19,-14.59 1293.65,-15.65 1302.56,-21.4 1304.19,-14.59"/>
</a>
</g>
</g>
<!-- Node13&#45;&gt;Node10 -->
<g id="edge16_Node000013_Node000010" class="edge">
<title>Node13&#45;&gt;Node10</title>
<g id="a_edge16_Node000013_Node000010"><a xlink:title=" ">
<path fill="none" stroke="#63b8ff" d="M1218.74,-109.98C1183.39,-100.93 1127.33,-86.58 1088.49,-76.64"/>
<polygon fill="#63b8ff" stroke="#63b8ff" points="1089.07,-73.17 1078.52,-74.08 1087.34,-79.95 1089.07,-73.17"/>
</a>
</g>
</g>
<!-- Node13&#45;&gt;Node11 -->
<g id="edge18_Node000013_Node000011" class="edge">
<title>Node13&#45;&gt;Node11</title>
<g id="a_edge18_Node000013_Node000011"><a xlink:title=" ">
<path fill="none" stroke="#63b8ff" d="M1236.9,-109.98C1222.18,-101.69 1199.58,-88.94 1182.33,-79.22"/>
<polygon fill="#63b8ff" stroke="#63b8ff" points="1183.81,-76.03 1173.38,-74.17 1180.37,-82.13 1183.81,-76.03"/>
</a>
</g>
</g>
<!-- Node13&#45;&gt;Node12 -->
<g id="edge19_Node000013_Node000012" class="edge">
<title>Node13&#45;&gt;Node12</title>
<g id="a_edge19_Node000013_Node000012"><a xlink:title=" ">
<path fill="none" stroke="#63b8ff" d="M1247.38,-109.75C1243.54,-102.49 1237.98,-91.95 1233.24,-82.98"/>
<polygon fill="#63b8ff" stroke="#63b8ff" points="1236.3,-81.3 1228.54,-74.09 1230.11,-84.57 1236.3,-81.3"/>
</a>
</g>
</g>
<!-- Node14 -->
<g id="Node000014" class="node">
<title>Node14</title>
<g id="a_Node000014"><a xlink:title=" ">
<polygon fill="#e0e0e0" stroke="#999999" points="1360,-74 1308,-74 1308,-55 1360,-55 1360,-74"/>
<text text-anchor="middle" x="1334" y="-62" font-family="Helvetica,sans-Serif" font-size="10.00">QRectF</text>
</a>
</g>
</g>
<!-- Node13&#45;&gt;Node14 -->
<g id="edge20_Node000013_Node000014" class="edge">
<title>Node13&#45;&gt;Node14</title>
<g id="a_edge20_Node000013_Node000014"><a xlink:title=" ">
<path fill="none" stroke="#63b8ff" d="M1265.17,-109.98C1277.77,-101.84 1297,-89.41 1311.94,-79.76"/>
<polygon fill="#63b8ff" stroke="#63b8ff" points="1314.09,-82.54 1320.59,-74.17 1310.29,-76.66 1314.09,-82.54"/>
</a>
</g>
</g>
<!-- Node23&#45;&gt;Node6 -->
<g id="edge40_Node000023_Node000006" class="edge">
<title>Node23&#45;&gt;Node6</title>
<g id="a_edge40_Node000023_Node000006"><a xlink:title=" ">
<path fill="none" stroke="#63b8ff" d="M81.87,-219.55C82.2,-205.62 85.02,-178.89 101,-165 189.9,-87.73 556.2,-70.41 698.3,-66.57"/>
<polygon fill="#63b8ff" stroke="#63b8ff" points="698.63,-70.06 708.53,-66.31 698.45,-63.07 698.63,-70.06"/>
</a>
</g>
</g>
<!-- Node23&#45;&gt;Node7 -->
<g id="edge41_Node000023_Node000007" class="edge">
<title>Node23&#45;&gt;Node7</title>
<g id="a_edge41_Node000023_Node000007"><a xlink:title=" ">
<path fill="none" stroke="#63b8ff" d="M65.97,-219.95C53.59,-212.35 37.35,-199.97 30,-184 6.02,-131.92 -7.91,-98.01 30,-55 49.82,-32.51 243.54,-18.44 334.4,-13.03"/>
<polygon fill="#63b8ff" stroke="#63b8ff" points="334.65,-16.52 344.43,-12.44 334.24,-9.53 334.65,-16.52"/>
</a>
</g>
</g>
<!-- Node23&#45;&gt;Node9 -->
<g id="edge43_Node000023_Node000009" class="edge">
<title>Node23&#45;&gt;Node9</title>
<g id="a_edge43_Node000023_Node000009"><a xlink:title=" ">
<path fill="none" stroke="#63b8ff" d="M80.01,-219.96C77.49,-207.04 74.64,-182.21 85,-165 109.77,-123.86 132.41,-125.08 178,-110 379.94,-43.19 1062.72,-17.1 1229.85,-11.64"/>
<polygon fill="#63b8ff" stroke="#63b8ff" points="1230.22,-15.13 1240.1,-11.31 1229.99,-8.13 1230.22,-15.13"/>
</a>
</g>
</g>
<!-- Node23&#45;&gt;Node19 -->
<g id="edge42_Node000023_Node000019" class="edge">
<title>Node23&#45;&gt;Node19</title>
<g id="a_edge42_Node000023_Node000019"><a xlink:title=" ">
<path fill="none" stroke="#63b8ff" d="M164.21,-224.18C304.5,-216.72 599.12,-200.59 848,-184 872.8,-182.35 900.64,-180.26 922.48,-178.56"/>
<polygon fill="#63b8ff" stroke="#63b8ff" points="922.98,-182.03 932.68,-177.76 922.44,-175.05 922.98,-182.03"/>
</a>
</g>
</g>
<!-- Node24&#45;&gt;Node5 -->
<g id="edge48_Node000024_Node000005" class="edge">
<title>Node24&#45;&gt;Node5</title>
<g id="a_edge48_Node000024_Node000005"><a xlink:title=" ">
<path fill="none" stroke="#63b8ff" d="M1082.9,-219.66C1084.68,-202.17 1088.69,-162.8 1091.09,-139.27"/>
<polygon fill="#63b8ff" stroke="#63b8ff" points="1094.59,-139.46 1092.12,-129.16 1087.62,-138.75 1094.59,-139.46"/>
</a>
</g>
</g>
<!-- Node24&#45;&gt;Node6 -->
<g id="edge49_Node000024_Node000006" class="edge">
<title>Node24&#45;&gt;Node6</title>
<g id="a_edge49_Node000024_Node000006"><a xlink:title=" ">
<path fill="none" stroke="#63b8ff" d="M1072.49,-220C1057.5,-206.9 1027.07,-181.56 998,-165 928.71,-125.51 840.64,-93.53 791.81,-77.23"/>
<polygon fill="#63b8ff" stroke="#63b8ff" points="792.89,-73.9 782.3,-74.09 790.7,-80.55 792.89,-73.9"/>
</a>
</g>
</g>
<!-- Node24&#45;&gt;Node8 -->
<g id="edge50_Node000024_Node000008" class="edge">
<title>Node24&#45;&gt;Node8</title>
<g id="a_edge50_Node000024_Node000008"><a xlink:title=" ">
<path fill="none" stroke="#63b8ff" d="M1075.81,-219.95C1052.26,-187.47 968.06,-71.29 936.27,-27.43"/>
<polygon fill="#63b8ff" stroke="#63b8ff" points="939.03,-25.27 930.32,-19.22 933.36,-29.37 939.03,-25.27"/>
</a>
</g>
</g>
<!-- Node24&#45;&gt;Node9 -->
<g id="edge52_Node000024_Node000009" class="edge">
<title>Node24&#45;&gt;Node9</title>
<g id="a_edge52_Node000024_Node000009"><a xlink:title=" ">
<path fill="none" stroke="#63b8ff" d="M1164.13,-219.97C1203.61,-213.65 1250.76,-202.73 1290,-184 1352.39,-154.21 1377.85,-139.5 1400,-74 1414.23,-31.93 1348.01,-17.71 1303.9,-12.92"/>
<polygon fill="#63b8ff" stroke="#63b8ff" points="1304.06,-9.42 1293.77,-11.94 1303.39,-16.39 1304.06,-9.42"/>
</a>
</g>
</g>
<!-- Node24&#45;&gt;Node19 -->
<g id="edge51_Node000024_Node000019" class="edge">
<title>Node24&#45;&gt;Node19</title>
<g id="a_edge51_Node000024_Node000019"><a xlink:title=" ">
<path fill="none" stroke="#63b8ff" d="M1062.56,-219.98C1043.01,-211.42 1012.62,-198.11 990.18,-188.28"/>
<polygon fill="#63b8ff" stroke="#63b8ff" points="991.36,-184.98 980.79,-184.17 988.55,-191.39 991.36,-184.98"/>
</a>
</g>
</g>
<!-- Node25 -->
<g id="Node000025" class="node">
<title>Node25</title>
<g id="a_Node000025"><a xlink:href="FootprintGraphicsGenerator_8h.html" target="_top" xlink:title=" ">
<polygon fill="white" stroke="#666666" points="1281,-184 1121,-184 1121,-165 1281,-165 1281,-184"/>
<text text-anchor="middle" x="1201" y="-172" font-family="Helvetica,sans-Serif" font-size="10.00">FootprintGraphicsGenerator.h</text>
</a>
</g>
</g>
<!-- Node24&#45;&gt;Node25 -->
<g id="edge45_Node000024_Node000025" class="edge">
<title>Node24&#45;&gt;Node25</title>
<g id="a_edge45_Node000024_Node000025"><a xlink:title=" ">
<path fill="none" stroke="#63b8ff" d="M1101.12,-219.98C1120.35,-211.42 1150.23,-198.11 1172.31,-188.28"/>
<polygon fill="#63b8ff" stroke="#63b8ff" points="1173.82,-191.44 1181.53,-184.17 1170.97,-185.04 1173.82,-191.44"/>
</a>
</g>
</g>
<!-- Node26 -->
<g id="Node000026" class="node">
<title>Node26</title>
<g id="a_Node000026"><a xlink:title=" ">
<polygon fill="#e0e0e0" stroke="#999999" points="1417,-184 1337,-184 1337,-165 1417,-165 1417,-184"/>
<text text-anchor="middle" x="1377" y="-172" font-family="Helvetica,sans-Serif" font-size="10.00">QTextStream</text>
</a>
</g>
</g>
<!-- Node24&#45;&gt;Node26 -->
<g id="edge53_Node000024_Node000026" class="edge">
<title>Node24&#45;&gt;Node26</title>
<g id="a_edge53_Node000024_Node000026"><a xlink:title=" ">
<path fill="none" stroke="#63b8ff" d="M1129.4,-219.98C1183.52,-210.26 1271.69,-194.42 1326.92,-184.5"/>
<polygon fill="#63b8ff" stroke="#63b8ff" points="1327.61,-187.93 1336.83,-182.72 1326.37,-181.04 1327.61,-187.93"/>
</a>
</g>
</g>
<!-- Node25&#45;&gt;Node5 -->
<g id="edge46_Node000025_Node000005" class="edge">
<title>Node25&#45;&gt;Node5</title>
<g id="a_edge46_Node000025_Node000005"><a xlink:title=" ">
<path fill="none" stroke="#63b8ff" d="M1183.65,-164.98C1166.43,-156.54 1139.8,-143.47 1119.85,-133.68"/>
<polygon fill="#63b8ff" stroke="#63b8ff" points="1121.19,-130.43 1110.67,-129.17 1118.1,-136.72 1121.19,-130.43"/>
</a>
</g>
</g>
<!-- Node25&#45;&gt;Node9 -->
<g id="edge47_Node000025_Node000009" class="edge">
<title>Node25&#45;&gt;Node9</title>
<g id="a_edge47_Node000025_Node000009"><a xlink:title=" ">
<path fill="none" stroke="#63b8ff" d="M1243.18,-164.9C1288.21,-153.14 1356.87,-127.11 1385,-74 1403.62,-38.84 1344.71,-22.32 1303.54,-15.23"/>
<polygon fill="#63b8ff" stroke="#63b8ff" points="1303.94,-11.74 1293.51,-13.62 1302.83,-18.66 1303.94,-11.74"/>
</a>
</g>
</g>
<!-- Node27&#45;&gt;Node8 -->
<g id="edge59_Node000027_Node000008" class="edge">
<title>Node27&#45;&gt;Node8</title>
<g id="a_edge59_Node000027_Node000008"><a xlink:title=" ">
<path fill="none" stroke="#63b8ff" d="M1446.63,-219.62C1448.56,-207.12 1450.84,-183.73 1445,-165 1427.31,-108.27 1420.18,-85.19 1369,-55 1302.88,-16 1073.38,-10.7 972.36,-10.31"/>
<polygon fill="#63b8ff" stroke="#63b8ff" points="972.14,-6.8 962.13,-10.28 972.12,-13.8 972.14,-6.8"/>
</a>
</g>
</g>
<!-- Node27&#45;&gt;Node9 -->
<g id="edge61_Node000027_Node000009" class="edge">
<title>Node27&#45;&gt;Node9</title>
<g id="a_edge61_Node000027_Node000009"><a xlink:title=" ">
<path fill="none" stroke="#63b8ff" d="M1523.6,-223.69C1582.12,-218.27 1655.03,-207.01 1674,-184 1679.37,-177.48 1677.62,-172.63 1674,-165 1608.23,-26.56 1391.26,-10.5 1303.91,-9.81"/>
<polygon fill="#63b8ff" stroke="#63b8ff" points="1303.69,-6.31 1293.68,-9.79 1303.68,-13.31 1303.69,-6.31"/>
</a>
</g>
</g>
<!-- Node27&#45;&gt;Node13 -->
<g id="edge58_Node000027_Node000013" class="edge">
<title>Node27&#45;&gt;Node13</title>
<g id="a_edge58_Node000027_Node000013"><a xlink:title=" ">
<path fill="none" stroke="#63b8ff" d="M1444.96,-219.74C1444.41,-206.05 1441.27,-179.67 1426,-165 1394.04,-134.3 1343.93,-123.97 1305.68,-120.86"/>
<polygon fill="#63b8ff" stroke="#63b8ff" points="1305.44,-117.34 1295.23,-120.16 1304.97,-124.32 1305.44,-117.34"/>
</a>
</g>
</g>
<!-- Node27&#45;&gt;Node19 -->
<g id="edge60_Node000027_Node000019" class="edge">
<title>Node27&#45;&gt;Node19</title>
<g id="a_edge60_Node000027_Node000019"><a xlink:title=" ">
<path fill="none" stroke="#63b8ff" d="M1367.24,-219.98C1262,-208.46 1078.31,-188.35 999.12,-179.67"/>
<polygon fill="#63b8ff" stroke="#63b8ff" points="999.42,-176.19 989.1,-178.58 998.66,-183.15 999.42,-176.19"/>
</a>
</g>
</g>
<!-- Node27&#45;&gt;Node26 -->
<g id="edge62_Node000027_Node000026" class="edge">
<title>Node27&#45;&gt;Node26</title>
<g id="a_edge62_Node000027_Node000026"><a xlink:title=" ">
<path fill="none" stroke="#63b8ff" d="M1434.07,-219.98C1423.92,-212.07 1408.58,-200.11 1396.35,-190.58"/>
<polygon fill="#63b8ff" stroke="#63b8ff" points="1398.16,-187.56 1388.12,-184.17 1393.86,-193.08 1398.16,-187.56"/>
</a>
</g>
</g>
<!-- Node28 -->
<g id="Node000028" class="node">
<title>Node28</title>
<g id="a_Node000028"><a xlink:href="SymbolGraphicsGenerator_8h.html" target="_top" xlink:title=" ">
<polygon fill="white" stroke="#666666" points="1664.5,-184 1511.5,-184 1511.5,-165 1664.5,-165 1664.5,-184"/>
<text text-anchor="middle" x="1588" y="-172" font-family="Helvetica,sans-Serif" font-size="10.00">SymbolGraphicsGenerator.h</text>
</a>
</g>
</g>
<!-- Node27&#45;&gt;Node28 -->
<g id="edge55_Node000027_Node000028" class="edge">
<title>Node27&#45;&gt;Node28</title>
<g id="a_edge55_Node000027_Node000028"><a xlink:title=" ">
<path fill="none" stroke="#63b8ff" d="M1467.98,-219.98C1491.5,-211.27 1528.29,-197.63 1554.94,-187.75"/>
<polygon fill="#63b8ff" stroke="#63b8ff" points="1556.45,-190.93 1564.61,-184.17 1554.01,-184.36 1556.45,-190.93"/>
</a>
</g>
</g>
<!-- Node28&#45;&gt;Node9 -->
<g id="edge57_Node000028_Node000009" class="edge">
<title>Node28&#45;&gt;Node9</title>
<g id="a_edge57_Node000028_Node000009"><a xlink:title=" ">
<path fill="none" stroke="#63b8ff" d="M1585.51,-164.91C1578.6,-142.68 1556.9,-83.03 1516,-55 1482.08,-31.76 1364.56,-18.71 1303.88,-13.37"/>
<polygon fill="#63b8ff" stroke="#63b8ff" points="1303.86,-9.86 1293.6,-12.5 1303.27,-16.83 1303.86,-9.86"/>
</a>
</g>
</g>
<!-- Node28&#45;&gt;Node13 -->
<g id="edge56_Node000028_Node000013" class="edge">
<title>Node28&#45;&gt;Node13</title>
<g id="a_edge56_Node000028_Node000013"><a xlink:title=" ">
<path fill="none" stroke="#63b8ff" d="M1534.02,-164.98C1471.11,-155.06 1367.81,-138.77 1305.23,-128.9"/>
<polygon fill="#63b8ff" stroke="#63b8ff" points="1305.59,-125.41 1295.17,-127.31 1304.5,-132.32 1305.59,-125.41"/>
</a>
</g>
</g>
</g>
</svg>
