<?xml version="1.0" encoding="UTF-8" standalone="no"?>
<!DOCTYPE svg PUBLIC "-//W3C//DTD SVG 1.1//EN"
 "http://www.w3.org/Graphics/SVG/1.1/DTD/svg11.dtd">
<!-- Generated by graphviz version 2.43.0 (0)
 -->
<!-- Title: services/ComponentService.h Pages: 1 -->
<svg width="1510pt" height="247pt"
 viewBox="0.00 0.00 1509.50 247.00" xmlns="http://www.w3.org/2000/svg" xmlns:xlink="http://www.w3.org/1999/xlink">
<g id="graph0" class="graph" transform="scale(1 1) rotate(0) translate(4 243)">
<title>services/ComponentService.h</title>
<!-- Node1 -->
<g id="Node000001" class="node">
<title>Node1</title>
<g id="a_Node000001"><a xlink:title=" ">
<polygon fill="#999999" stroke="#666666" points="915,-239 754,-239 754,-220 915,-220 915,-239"/>
<text text-anchor="middle" x="834.5" y="-227" font-family="Helvetica,sans-Serif" font-size="10.00">services/ComponentService.h</text>
</a>
</g>
</g>
<!-- Node2 -->
<g id="Node000002" class="node">
<title>Node2</title>
<g id="a_Node000002"><a xlink:href="LcscImageService_8h.html" target="_top" xlink:title=" ">
<polygon fill="white" stroke="#666666" points="387,-184 274,-184 274,-165 387,-165 387,-184"/>
<text text-anchor="middle" x="330.5" y="-172" font-family="Helvetica,sans-Serif" font-size="10.00">LcscImageService.h</text>
</a>
</g>
</g>
<!-- Node1&#45;&gt;Node2 -->
<g id="edge1_Node000001_Node000002" class="edge">
<title>Node1&#45;&gt;Node2</title>
<g id="a_edge1_Node000001_Node000002"><a xlink:title=" ">
<path fill="none" stroke="#63b8ff" d="M753.8,-220.01C654.9,-209.61 489.14,-192.18 397.13,-182.51"/>
<polygon fill="#63b8ff" stroke="#63b8ff" points="397.41,-179.02 387.1,-181.45 396.68,-185.98 397.41,-179.02"/>
</a>
</g>
</g>
<!-- Node3 -->
<g id="Node000003" class="node">
<title>Node3</title>
<g id="a_Node000003"><a xlink:title=" ">
<polygon fill="#e0e0e0" stroke="#999999" points="45,-129 0,-129 0,-110 45,-110 45,-129"/>
<text text-anchor="middle" x="22.5" y="-117" font-family="Helvetica,sans-Serif" font-size="10.00">QMap</text>
</a>
</g>
</g>
<!-- Node1&#45;&gt;Node3 -->
<g id="edge38_Node000001_Node000003" class="edge">
<title>Node1&#45;&gt;Node3</title>
<g id="a_edge38_Node000001_Node000003"><a xlink:title=" ">
<path fill="none" stroke="#63b8ff" d="M753.92,-225.66C607.07,-220.03 301.48,-206.04 197.5,-184 143.54,-172.56 83.76,-148.15 49.89,-133.15"/>
<polygon fill="#63b8ff" stroke="#63b8ff" points="51.21,-129.91 40.65,-129.01 48.34,-136.29 51.21,-129.91"/>
</a>
</g>
</g>
<!-- Node6 -->
<g id="Node000006" class="node">
<title>Node6</title>
<g id="a_Node000006"><a xlink:title=" ">
<polygon fill="#e0e0e0" stroke="#999999" points="119.5,-129 63.5,-129 63.5,-110 119.5,-110 119.5,-129"/>
<text text-anchor="middle" x="91.5" y="-117" font-family="Helvetica,sans-Serif" font-size="10.00">QObject</text>
</a>
</g>
</g>
<!-- Node1&#45;&gt;Node6 -->
<g id="edge40_Node000001_Node000006" class="edge">
<title>Node1&#45;&gt;Node6</title>
<g id="a_edge40_Node000001_Node000006"><a xlink:title=" ">
<path fill="none" stroke="#63b8ff" d="M753.72,-229.1C642.34,-228.37 435.91,-221.4 264.5,-184 211.3,-172.39 152.37,-148.15 118.84,-133.21"/>
<polygon fill="#63b8ff" stroke="#63b8ff" points="120.24,-130 109.69,-129.07 117.36,-136.38 120.24,-130"/>
</a>
</g>
</g>
<!-- Node7 -->
<g id="Node000007" class="node">
<title>Node7</title>
<g id="a_Node000007"><a xlink:title=" ">
<polygon fill="#e0e0e0" stroke="#999999" points="587.5,-129 531.5,-129 531.5,-110 587.5,-110 587.5,-129"/>
<text text-anchor="middle" x="559.5" y="-117" font-family="Helvetica,sans-Serif" font-size="10.00">QQueue</text>
</a>
</g>
</g>
<!-- Node1&#45;&gt;Node7 -->
<g id="edge42_Node000001_Node000007" class="edge">
<title>Node1&#45;&gt;Node7</title>
<g id="a_edge42_Node000001_Node000007"><a xlink:title=" ">
<path fill="none" stroke="#63b8ff" d="M788.81,-219.98C754.38,-212.71 706.43,-200.75 666.5,-184 634.57,-170.6 600.68,-149.09 579.8,-134.88"/>
<polygon fill="#63b8ff" stroke="#63b8ff" points="581.65,-131.9 571.43,-129.09 577.67,-137.66 581.65,-131.9"/>
</a>
</g>
</g>
<!-- Node8 -->
<g id="Node000008" class="node">
<title>Node8</title>
<g id="a_Node000008"><a xlink:title=" ">
<polygon fill="#e0e0e0" stroke="#999999" points="809,-19 756,-19 756,0 809,0 809,-19"/>
<text text-anchor="middle" x="782.5" y="-7" font-family="Helvetica,sans-Serif" font-size="10.00">QString</text>
</a>
</g>
</g>
<!-- Node1&#45;&gt;Node8 -->
<g id="edge43_Node000001_Node000008" class="edge">
<title>Node1&#45;&gt;Node8</title>
<g id="a_edge43_Node000001_Node000008"><a xlink:title=" ">
<path fill="none" stroke="#63b8ff" d="M823.57,-219.85C814.03,-211.67 800.65,-198.51 793.5,-184 767.89,-132.01 769.35,-112.72 774.5,-55 775.26,-46.5 776.82,-37.19 778.36,-29.29"/>
<polygon fill="#63b8ff" stroke="#63b8ff" points="781.82,-29.81 780.44,-19.3 774.97,-28.38 781.82,-29.81"/>
</a>
</g>
</g>
<!-- Node9 -->
<g id="Node000009" class="node">
<title>Node9</title>
<g id="a_Node000009"><a xlink:title=" ">
<polygon fill="#e0e0e0" stroke="#999999" points="675.5,-129 605.5,-129 605.5,-110 675.5,-110 675.5,-129"/>
<text text-anchor="middle" x="640.5" y="-117" font-family="Helvetica,sans-Serif" font-size="10.00">QStringList</text>
</a>
</g>
</g>
<!-- Node1&#45;&gt;Node9 -->
<g id="edge44_Node000001_Node000009" class="edge">
<title>Node1&#45;&gt;Node9</title>
<g id="a_edge44_Node000001_Node000009"><a xlink:title=" ">
<path fill="none" stroke="#63b8ff" d="M779.66,-219.96C750.92,-213.52 716.24,-202.51 689.5,-184 672.39,-172.15 658.55,-152.48 650,-138.17"/>
<polygon fill="#63b8ff" stroke="#63b8ff" points="652.93,-136.25 644.95,-129.28 646.85,-139.71 652.93,-136.25"/>
</a>
</g>
</g>
<!-- Node11 -->
<g id="Node000011" class="node">
<title>Node11</title>
<g id="a_Node000011"><a xlink:href="ComponentData_8h.html" target="_top" xlink:title=" ">
<polygon fill="white" stroke="#666666" points="1002.5,-184 858.5,-184 858.5,-165 1002.5,-165 1002.5,-184"/>
<text text-anchor="middle" x="930.5" y="-172" font-family="Helvetica,sans-Serif" font-size="10.00">models/ComponentData.h</text>
</a>
</g>
</g>
<!-- Node1&#45;&gt;Node11 -->
<g id="edge10_Node000001_Node000011" class="edge">
<title>Node1&#45;&gt;Node11</title>
<g id="a_edge10_Node000001_Node000011"><a xlink:title=" ">
<path fill="none" stroke="#63b8ff" d="M849.92,-219.98C864.95,-211.69 888.04,-198.94 905.66,-189.22"/>
<polygon fill="#63b8ff" stroke="#63b8ff" points="907.73,-192.07 914.8,-184.17 904.35,-185.94 907.73,-192.07"/>
</a>
</g>
</g>
<!-- Node12 -->
<g id="Node000012" class="node">
<title>Node12</title>
<g id="a_Node000012"><a xlink:href="FootprintData_8h.html" target="_top" xlink:title=" ">
<polygon fill="white" stroke="#666666" points="1085.5,-129 993.5,-129 993.5,-110 1085.5,-110 1085.5,-129"/>
<text text-anchor="middle" x="1039.5" y="-117" font-family="Helvetica,sans-Serif" font-size="10.00">FootprintData.h</text>
</a>
</g>
</g>
<!-- Node1&#45;&gt;Node12 -->
<g id="edge33_Node000001_Node000012" class="edge">
<title>Node1&#45;&gt;Node12</title>
<g id="a_edge33_Node000001_Node000012"><a xlink:title=" ">
<path fill="none" stroke="#63b8ff" d="M915.1,-223.6C948.11,-217.96 984.74,-206.58 1011.5,-184 1025,-172.61 1032.22,-153.43 1035.93,-139.13"/>
<polygon fill="#63b8ff" stroke="#63b8ff" points="1039.35,-139.87 1038.12,-129.35 1032.52,-138.34 1039.35,-139.87"/>
</a>
</g>
</g>
<!-- Node13 -->
<g id="Node000013" class="node">
<title>Node13</title>
<g id="a_Node000013"><a xlink:href="Model3DData_8h.html" target="_top" xlink:title=" ">
<polygon fill="white" stroke="#666666" points="924.5,-74 832.5,-74 832.5,-55 924.5,-55 924.5,-74"/>
<text text-anchor="middle" x="878.5" y="-62" font-family="Helvetica,sans-Serif" font-size="10.00">Model3DData.h</text>
</a>
</g>
</g>
<!-- Node1&#45;&gt;Node13 -->
<g id="edge34_Node000001_Node000013" class="edge">
<title>Node1&#45;&gt;Node13</title>
<g id="a_edge34_Node000001_Node000013"><a xlink:title=" ">
<path fill="none" stroke="#63b8ff" d="M827.43,-219.9C811.63,-199.58 776.48,-147.44 798.5,-110 807.24,-95.14 822.94,-84.88 838.13,-77.99"/>
<polygon fill="#63b8ff" stroke="#63b8ff" points="839.56,-81.19 847.45,-74.13 836.88,-74.72 839.56,-81.19"/>
</a>
</g>
</g>
<!-- Node15 -->
<g id="Node000015" class="node">
<title>Node15</title>
<g id="a_Node000015"><a xlink:title=" ">
<polygon fill="#e0e0e0" stroke="#999999" points="1028.5,-19 952.5,-19 952.5,0 1028.5,0 1028.5,-19"/>
<text text-anchor="middle" x="990.5" y="-7" font-family="Helvetica,sans-Serif" font-size="10.00">QJsonObject</text>
</a>
</g>
</g>
<!-- Node1&#45;&gt;Node15 -->
<g id="edge37_Node000001_Node000015" class="edge">
<title>Node1&#45;&gt;Node15</title>
<g id="a_edge37_Node000001_Node000015"><a xlink:title=" ">
<path fill="none" stroke="#63b8ff" d="M902.12,-219.97C1035.37,-201.55 1323.64,-153.23 1377.5,-74 1416.33,-16.87 1150.46,-10.41 1038.53,-10.19"/>
<polygon fill="#63b8ff" stroke="#63b8ff" points="1038.51,-6.69 1028.51,-10.19 1038.51,-13.69 1038.51,-6.69"/>
</a>
</g>
</g>
<!-- Node19 -->
<g id="Node000019" class="node">
<title>Node19</title>
<g id="a_Node000019"><a xlink:href="SymbolData_8h.html" target="_top" xlink:title=" ">
<polygon fill="white" stroke="#666666" points="1229.5,-129 1143.5,-129 1143.5,-110 1229.5,-110 1229.5,-129"/>
<text text-anchor="middle" x="1186.5" y="-117" font-family="Helvetica,sans-Serif" font-size="10.00">SymbolData.h</text>
</a>
</g>
</g>
<!-- Node1&#45;&gt;Node19 -->
<g id="edge35_Node000001_Node000019" class="edge">
<title>Node1&#45;&gt;Node19</title>
<g id="a_edge35_Node000001_Node000019"><a xlink:title=" ">
<path fill="none" stroke="#63b8ff" d="M882.46,-219.99C922.72,-212.29 981.51,-199.77 1031.5,-184 1077.3,-169.56 1128.5,-147.33 1159.09,-133.36"/>
<polygon fill="#63b8ff" stroke="#63b8ff" points="1160.64,-136.5 1168.26,-129.14 1157.71,-130.14 1160.64,-136.5"/>
</a>
</g>
</g>
<!-- Node22 -->
<g id="Node000022" class="node">
<title>Node22</title>
<g id="a_Node000022"><a xlink:title=" ">
<polygon fill="#e0e0e0" stroke="#999999" points="1368,-184 1313,-184 1313,-165 1368,-165 1368,-184"/>
<text text-anchor="middle" x="1340.5" y="-172" font-family="Helvetica,sans-Serif" font-size="10.00">QImage</text>
</a>
</g>
</g>
<!-- Node1&#45;&gt;Node22 -->
<g id="edge36_Node000001_Node000022" class="edge">
<title>Node1&#45;&gt;Node22</title>
<g id="a_edge36_Node000001_Node000022"><a xlink:title=" ">
<path fill="none" stroke="#63b8ff" d="M915.28,-223.31C1008.1,-216.76 1164.83,-203.88 1298.5,-184 1299.78,-183.81 1301.09,-183.6 1302.4,-183.39"/>
<polygon fill="#63b8ff" stroke="#63b8ff" points="1303.33,-186.78 1312.56,-181.58 1302.1,-179.89 1303.33,-186.78"/>
</a>
</g>
</g>
<!-- Node23 -->
<g id="Node000023" class="node">
<title>Node23</title>
<g id="a_Node000023"><a xlink:title=" ">
<polygon fill="#e0e0e0" stroke="#999999" points="1441,-184 1386,-184 1386,-165 1441,-165 1441,-184"/>
<text text-anchor="middle" x="1413.5" y="-172" font-family="Helvetica,sans-Serif" font-size="10.00">QMutex</text>
</a>
</g>
</g>
<!-- Node1&#45;&gt;Node23 -->
<g id="edge39_Node000001_Node000023" class="edge">
<title>Node1&#45;&gt;Node23</title>
<g id="a_edge39_Node000001_Node000023"><a xlink:title=" ">
<path fill="none" stroke="#63b8ff" d="M915.45,-225.66C1019.87,-221.15 1207.21,-210.18 1375.63,-184.08"/>
<polygon fill="#63b8ff" stroke="#63b8ff" points="1376.34,-187.52 1385.67,-182.51 1375.25,-180.6 1376.34,-187.52"/>
</a>
</g>
</g>
<!-- Node24 -->
<g id="Node000024" class="node">
<title>Node24</title>
<g id="a_Node000024"><a xlink:title=" ">
<polygon fill="#e0e0e0" stroke="#999999" points="1501.5,-184 1459.5,-184 1459.5,-165 1501.5,-165 1501.5,-184"/>
<text text-anchor="middle" x="1480.5" y="-172" font-family="Helvetica,sans-Serif" font-size="10.00">QPair</text>
</a>
</g>
</g>
<!-- Node1&#45;&gt;Node24 -->
<g id="edge41_Node000001_Node000024" class="edge">
<title>Node1&#45;&gt;Node24</title>
<g id="a_edge41_Node000001_Node000024"><a xlink:title=" ">
<path fill="none" stroke="#63b8ff" d="M915.37,-227.89C1031.76,-225.86 1253.17,-217.67 1449.4,-183.82"/>
<polygon fill="#63b8ff" stroke="#63b8ff" points="1450.07,-187.25 1459.32,-182.08 1448.87,-180.36 1450.07,-187.25"/>
</a>
</g>
</g>
<!-- Node2&#45;&gt;Node3 -->
<g id="edge2_Node000002_Node000003" class="edge">
<title>Node2&#45;&gt;Node3</title>
<g id="a_edge2_Node000002_Node000003"><a xlink:title=" ">
<path fill="none" stroke="#63b8ff" d="M273.9,-166.06C220.08,-158.6 136.69,-146.07 55.1,-128.93"/>
<polygon fill="#63b8ff" stroke="#63b8ff" points="55.67,-125.47 45.16,-126.82 54.21,-132.32 55.67,-125.47"/>
</a>
</g>
</g>
<!-- Node4 -->
<g id="Node000004" class="node">
<title>Node4</title>
<g id="a_Node000004"><a xlink:title=" ">
<polygon fill="#e0e0e0" stroke="#999999" points="401.5,-129 259.5,-129 259.5,-110 401.5,-110 401.5,-129"/>
<text text-anchor="middle" x="330.5" y="-117" font-family="Helvetica,sans-Serif" font-size="10.00">QNetworkAccessManager</text>
</a>
</g>
</g>
<!-- Node2&#45;&gt;Node4 -->
<g id="edge3_Node000002_Node000004" class="edge">
<title>Node2&#45;&gt;Node4</title>
<g id="a_edge3_Node000002_Node000004"><a xlink:title=" ">
<path fill="none" stroke="#63b8ff" d="M330.5,-164.75C330.5,-157.8 330.5,-147.85 330.5,-139.13"/>
<polygon fill="#63b8ff" stroke="#63b8ff" points="334,-139.09 330.5,-129.09 327,-139.09 334,-139.09"/>
</a>
</g>
</g>
<!-- Node5 -->
<g id="Node000005" class="node">
<title>Node5</title>
<g id="a_Node000005"><a xlink:title=" ">
<polygon fill="#e0e0e0" stroke="#999999" points="513,-129 420,-129 420,-110 513,-110 513,-129"/>
<text text-anchor="middle" x="466.5" y="-117" font-family="Helvetica,sans-Serif" font-size="10.00">QNetworkReply</text>
</a>
</g>
</g>
<!-- Node2&#45;&gt;Node5 -->
<g id="edge4_Node000002_Node000005" class="edge">
<title>Node2&#45;&gt;Node5</title>
<g id="a_edge4_Node000002_Node000005"><a xlink:title=" ">
<path fill="none" stroke="#63b8ff" d="M352.35,-164.98C374.62,-156.3 409.4,-142.75 434.72,-132.88"/>
<polygon fill="#63b8ff" stroke="#63b8ff" points="436.21,-136.06 444.25,-129.17 433.66,-129.54 436.21,-136.06"/>
</a>
</g>
</g>
<!-- Node2&#45;&gt;Node6 -->
<g id="edge5_Node000002_Node000006" class="edge">
<title>Node2&#45;&gt;Node6</title>
<g id="a_edge5_Node000002_Node000006"><a xlink:title=" ">
<path fill="none" stroke="#63b8ff" d="M292.1,-164.98C247.42,-155.08 174.09,-138.82 129.56,-128.94"/>
<polygon fill="#63b8ff" stroke="#63b8ff" points="130.22,-125.5 119.7,-126.75 128.71,-132.34 130.22,-125.5"/>
</a>
</g>
</g>
<!-- Node2&#45;&gt;Node7 -->
<g id="edge6_Node000002_Node000007" class="edge">
<title>Node2&#45;&gt;Node7</title>
<g id="a_edge6_Node000002_Node000007"><a xlink:title=" ">
<path fill="none" stroke="#63b8ff" d="M367.29,-164.98C409.66,-155.18 478.92,-139.15 521.71,-129.25"/>
<polygon fill="#63b8ff" stroke="#63b8ff" points="522.51,-132.65 531.46,-126.99 520.93,-125.83 522.51,-132.65"/>
</a>
</g>
</g>
<!-- Node2&#45;&gt;Node8 -->
<g id="edge7_Node000002_Node000008" class="edge">
<title>Node2&#45;&gt;Node8</title>
<g id="a_edge7_Node000002_Node000008"><a xlink:title=" ">
<path fill="none" stroke="#63b8ff" d="M273.79,-165.54C231.79,-158.34 179.67,-146.22 166.5,-129 161.37,-122.29 161.03,-116.43 166.5,-110 241.91,-21.43 624.34,-11.44 745.58,-10.52"/>
<polygon fill="#63b8ff" stroke="#63b8ff" points="745.85,-14.02 755.82,-10.46 745.8,-7.02 745.85,-14.02"/>
</a>
</g>
</g>
<!-- Node2&#45;&gt;Node9 -->
<g id="edge8_Node000002_Node000009" class="edge">
<title>Node2&#45;&gt;Node9</title>
<g id="a_edge8_Node000002_Node000009"><a xlink:title=" ">
<path fill="none" stroke="#63b8ff" d="M383.81,-164.98C435.36,-156.66 515.94,-143.41 595.28,-129.18"/>
<polygon fill="#63b8ff" stroke="#63b8ff" points="596.23,-132.57 605.45,-127.35 594.99,-125.68 596.23,-132.57"/>
</a>
</g>
</g>
<!-- Node10 -->
<g id="Node000010" class="node">
<title>Node10</title>
<g id="a_Node000010"><a xlink:title=" ">
<polygon fill="#e0e0e0" stroke="#999999" points="241,-129 176,-129 176,-110 241,-110 241,-129"/>
<text text-anchor="middle" x="208.5" y="-117" font-family="Helvetica,sans-Serif" font-size="10.00">functional</text>
</a>
</g>
</g>
<!-- Node2&#45;&gt;Node10 -->
<g id="edge9_Node000002_Node000010" class="edge">
<title>Node2&#45;&gt;Node10</title>
<g id="a_edge9_Node000002_Node000010"><a xlink:title=" ">
<path fill="none" stroke="#63b8ff" d="M310.9,-164.98C291.18,-156.42 260.55,-143.11 237.92,-133.28"/>
<polygon fill="#63b8ff" stroke="#63b8ff" points="239.02,-129.94 228.46,-129.17 236.24,-136.37 239.02,-129.94"/>
</a>
</g>
</g>
<!-- Node11&#45;&gt;Node8 -->
<g id="edge32_Node000011_Node000008" class="edge">
<title>Node11&#45;&gt;Node8</title>
<g id="a_edge32_Node000011_Node000008"><a xlink:title=" ">
<path fill="none" stroke="#63b8ff" d="M860.68,-164.94C837.64,-158.63 813.97,-147.75 798.5,-129 775.13,-100.67 776.42,-54.91 779.44,-29.33"/>
<polygon fill="#63b8ff" stroke="#63b8ff" points="782.95,-29.53 780.88,-19.14 776.02,-28.55 782.95,-29.53"/>
</a>
</g>
</g>
<!-- Node11&#45;&gt;Node12 -->
<g id="edge11_Node000011_Node000012" class="edge">
<title>Node11&#45;&gt;Node12</title>
<g id="a_edge11_Node000011_Node000012"><a xlink:title=" ">
<path fill="none" stroke="#63b8ff" d="M948.01,-164.98C965.47,-156.5 992.51,-143.35 1012.67,-133.54"/>
<polygon fill="#63b8ff" stroke="#63b8ff" points="1014.21,-136.69 1021.67,-129.17 1011.14,-130.4 1014.21,-136.69"/>
</a>
</g>
</g>
<!-- Node11&#45;&gt;Node13 -->
<g id="edge21_Node000011_Node000013" class="edge">
<title>Node11&#45;&gt;Node13</title>
<g id="a_edge21_Node000011_Node000013"><a xlink:title=" ">
<path fill="none" stroke="#63b8ff" d="M928.2,-164.58C924.79,-152.02 917.78,-128.58 908.5,-110 903.72,-100.43 897.19,-90.5 891.45,-82.45"/>
<polygon fill="#63b8ff" stroke="#63b8ff" points="894.18,-80.25 885.43,-74.28 888.55,-84.41 894.18,-80.25"/>
</a>
</g>
</g>
<!-- Node11&#45;&gt;Node15 -->
<g id="edge30_Node000011_Node000015" class="edge">
<title>Node11&#45;&gt;Node15</title>
<g id="a_edge30_Node000011_Node000015"><a xlink:title=" ">
<path fill="none" stroke="#63b8ff" d="M933.73,-164.74C943.17,-139.09 970.89,-63.78 983.77,-28.78"/>
<polygon fill="#63b8ff" stroke="#63b8ff" points="987.09,-29.9 987.26,-19.31 980.52,-27.48 987.09,-29.9"/>
</a>
</g>
</g>
<!-- Node16 -->
<g id="Node000016" class="node">
<title>Node16</title>
<g id="a_Node000016"><a xlink:title=" ">
<polygon fill="#e0e0e0" stroke="#999999" points="1222,-74 1151,-74 1151,-55 1222,-55 1222,-74"/>
<text text-anchor="middle" x="1186.5" y="-62" font-family="Helvetica,sans-Serif" font-size="10.00">QJsonArray</text>
</a>
</g>
</g>
<!-- Node11&#45;&gt;Node16 -->
<g id="edge29_Node000011_Node000016" class="edge">
<title>Node11&#45;&gt;Node16</title>
<g id="a_edge29_Node000011_Node000016"><a xlink:title=" ">
<path fill="none" stroke="#63b8ff" d="M978.65,-164.93C1012.15,-157.9 1057.3,-146.26 1094.5,-129 1122.34,-116.08 1150.88,-94.89 1168.65,-80.58"/>
<polygon fill="#63b8ff" stroke="#63b8ff" points="1170.94,-83.23 1176.45,-74.18 1166.5,-77.82 1170.94,-83.23"/>
</a>
</g>
</g>
<!-- Node11&#45;&gt;Node19 -->
<g id="edge22_Node000011_Node000019" class="edge">
<title>Node11&#45;&gt;Node19</title>
<g id="a_edge22_Node000011_Node000019"><a xlink:title=" ">
<path fill="none" stroke="#63b8ff" d="M971.63,-164.98C1016.1,-155.78 1087.05,-141.09 1135.15,-131.13"/>
<polygon fill="#63b8ff" stroke="#63b8ff" points="1135.96,-134.54 1145.05,-129.08 1134.54,-127.68 1135.96,-134.54"/>
</a>
</g>
</g>
<!-- Node21 -->
<g id="Node000021" class="node">
<title>Node21</title>
<g id="a_Node000021"><a xlink:title=" ">
<polygon fill="#e0e0e0" stroke="#999999" points="899.5,-129 807.5,-129 807.5,-110 899.5,-110 899.5,-129"/>
<text text-anchor="middle" x="853.5" y="-117" font-family="Helvetica,sans-Serif" font-size="10.00">QSharedPointer</text>
</a>
</g>
</g>
<!-- Node11&#45;&gt;Node21 -->
<g id="edge31_Node000011_Node000021" class="edge">
<title>Node11&#45;&gt;Node21</title>
<g id="a_edge31_Node000011_Node000021"><a xlink:title=" ">
<path fill="none" stroke="#63b8ff" d="M918.13,-164.98C906.41,-156.92 888.58,-144.65 874.61,-135.03"/>
<polygon fill="#63b8ff" stroke="#63b8ff" points="876.32,-131.96 866.1,-129.17 872.35,-137.72 876.32,-131.96"/>
</a>
</g>
</g>
<!-- Node12&#45;&gt;Node8 -->
<g id="edge20_Node000012_Node000008" class="edge">
<title>Node12&#45;&gt;Node8</title>
<g id="a_edge20_Node000012_Node000008"><a xlink:title=" ">
<path fill="none" stroke="#63b8ff" d="M993.35,-119.05C946.68,-117.45 874.36,-108.82 823.5,-74 807.29,-62.9 796.02,-43.08 789.46,-28.52"/>
<polygon fill="#63b8ff" stroke="#63b8ff" points="792.59,-26.93 785.5,-19.05 786.13,-29.63 792.59,-26.93"/>
</a>
</g>
</g>
<!-- Node12&#45;&gt;Node13 -->
<g id="edge12_Node000012_Node000013" class="edge">
<title>Node12&#45;&gt;Node13</title>
<g id="a_edge12_Node000012_Node000013"><a xlink:title=" ">
<path fill="none" stroke="#63b8ff" d="M1013.63,-109.98C986.72,-101.13 944.38,-87.19 914.27,-77.28"/>
<polygon fill="#63b8ff" stroke="#63b8ff" points="915.16,-73.88 904.57,-74.08 912.97,-80.53 915.16,-73.88"/>
</a>
</g>
</g>
<!-- Node12&#45;&gt;Node15 -->
<g id="edge17_Node000012_Node000015" class="edge">
<title>Node12&#45;&gt;Node15</title>
<g id="a_edge17_Node000012_Node000015"><a xlink:title=" ">
<path fill="none" stroke="#63b8ff" d="M1032.74,-109.72C1026.31,-101.04 1016.72,-87.17 1010.5,-74 1003.7,-59.61 998.43,-42.33 995.01,-29.44"/>
<polygon fill="#63b8ff" stroke="#63b8ff" points="998.32,-28.26 992.49,-19.41 991.54,-29.96 998.32,-28.26"/>
</a>
</g>
</g>
<!-- Node12&#45;&gt;Node16 -->
<g id="edge16_Node000012_Node000016" class="edge">
<title>Node12&#45;&gt;Node16</title>
<g id="a_edge16_Node000012_Node000016"><a xlink:title=" ">
<path fill="none" stroke="#63b8ff" d="M1063.12,-109.98C1087.4,-101.23 1125.45,-87.51 1152.87,-77.62"/>
<polygon fill="#63b8ff" stroke="#63b8ff" points="1154.23,-80.85 1162.45,-74.17 1151.86,-74.27 1154.23,-80.85"/>
</a>
</g>
</g>
<!-- Node17 -->
<g id="Node000017" class="node">
<title>Node17</title>
<g id="a_Node000017"><a xlink:title=" ">
<polygon fill="#e0e0e0" stroke="#999999" points="1060,-74 1019,-74 1019,-55 1060,-55 1060,-74"/>
<text text-anchor="middle" x="1039.5" y="-62" font-family="Helvetica,sans-Serif" font-size="10.00">QList</text>
</a>
</g>
</g>
<!-- Node12&#45;&gt;Node17 -->
<g id="edge18_Node000012_Node000017" class="edge">
<title>Node12&#45;&gt;Node17</title>
<g id="a_edge18_Node000012_Node000017"><a xlink:title=" ">
<path fill="none" stroke="#63b8ff" d="M1039.5,-109.75C1039.5,-102.8 1039.5,-92.85 1039.5,-84.13"/>
<polygon fill="#63b8ff" stroke="#63b8ff" points="1043,-84.09 1039.5,-74.09 1036,-84.09 1043,-84.09"/>
</a>
</g>
</g>
<!-- Node18 -->
<g id="Node000018" class="node">
<title>Node18</title>
<g id="a_Node000018"><a xlink:title=" ">
<polygon fill="#e0e0e0" stroke="#999999" points="1133,-74 1078,-74 1078,-55 1133,-55 1133,-74"/>
<text text-anchor="middle" x="1105.5" y="-62" font-family="Helvetica,sans-Serif" font-size="10.00">QPointF</text>
</a>
</g>
</g>
<!-- Node12&#45;&gt;Node18 -->
<g id="edge19_Node000012_Node000018" class="edge">
<title>Node12&#45;&gt;Node18</title>
<g id="a_edge19_Node000012_Node000018"><a xlink:title=" ">
<path fill="none" stroke="#63b8ff" d="M1050.1,-109.98C1059.96,-102.07 1074.85,-90.11 1086.72,-80.58"/>
<polygon fill="#63b8ff" stroke="#63b8ff" points="1089.1,-83.16 1094.7,-74.17 1084.71,-77.7 1089.1,-83.16"/>
</a>
</g>
</g>
<!-- Node13&#45;&gt;Node8 -->
<g id="edge15_Node000013_Node000008" class="edge">
<title>Node13&#45;&gt;Node8</title>
<g id="a_edge15_Node000013_Node000008"><a xlink:title=" ">
<path fill="none" stroke="#63b8ff" d="M863.08,-54.98C848.05,-46.69 824.96,-33.94 807.34,-24.22"/>
<polygon fill="#63b8ff" stroke="#63b8ff" points="808.65,-20.94 798.2,-19.17 805.27,-27.07 808.65,-20.94"/>
</a>
</g>
</g>
<!-- Node14 -->
<g id="Node000014" class="node">
<title>Node14</title>
<g id="a_Node000014"><a xlink:title=" ">
<polygon fill="#e0e0e0" stroke="#999999" points="915,-19 842,-19 842,0 915,0 915,-19"/>
<text text-anchor="middle" x="878.5" y="-7" font-family="Helvetica,sans-Serif" font-size="10.00">QByteArray</text>
</a>
</g>
</g>
<!-- Node13&#45;&gt;Node14 -->
<g id="edge13_Node000013_Node000014" class="edge">
<title>Node13&#45;&gt;Node14</title>
<g id="a_edge13_Node000013_Node000014"><a xlink:title=" ">
<path fill="none" stroke="#63b8ff" d="M878.5,-54.75C878.5,-47.8 878.5,-37.85 878.5,-29.13"/>
<polygon fill="#63b8ff" stroke="#63b8ff" points="882,-29.09 878.5,-19.09 875,-29.09 882,-29.09"/>
</a>
</g>
</g>
<!-- Node13&#45;&gt;Node15 -->
<g id="edge14_Node000013_Node000015" class="edge">
<title>Node13&#45;&gt;Node15</title>
<g id="a_edge14_Node000013_Node000015"><a xlink:title=" ">
<path fill="none" stroke="#63b8ff" d="M896.49,-54.98C914.43,-46.5 942.22,-33.35 962.93,-23.54"/>
<polygon fill="#63b8ff" stroke="#63b8ff" points="964.64,-26.61 972.18,-19.17 961.64,-20.28 964.64,-26.61"/>
</a>
</g>
</g>
<!-- Node19&#45;&gt;Node8 -->
<g id="edge28_Node000019_Node000008" class="edge">
<title>Node19&#45;&gt;Node8</title>
<g id="a_edge28_Node000019_Node000008"><a xlink:title=" ">
<path fill="none" stroke="#63b8ff" d="M1200.07,-109.99C1218.67,-97.32 1248,-73.05 1231.5,-55 1201.47,-22.14 876.64,-24.73 832.5,-19 828.23,-18.44 823.76,-17.79 819.33,-17.1"/>
<polygon fill="#63b8ff" stroke="#63b8ff" points="819.6,-13.6 809.17,-15.43 818.47,-20.5 819.6,-13.6"/>
</a>
</g>
</g>
<!-- Node19&#45;&gt;Node15 -->
<g id="edge24_Node000019_Node000015" class="edge">
<title>Node19&#45;&gt;Node15</title>
<g id="a_edge24_Node000019_Node000015"><a xlink:title=" ">
<path fill="none" stroke="#63b8ff" d="M1212.21,-109.96C1241.82,-98.8 1284.02,-77.94 1264.5,-55 1236.08,-21.59 1109.52,-13.19 1038.77,-11.13"/>
<polygon fill="#63b8ff" stroke="#63b8ff" points="1038.84,-7.63 1028.76,-10.87 1038.66,-14.63 1038.84,-7.63"/>
</a>
</g>
</g>
<!-- Node19&#45;&gt;Node16 -->
<g id="edge23_Node000019_Node000016" class="edge">
<title>Node19&#45;&gt;Node16</title>
<g id="a_edge23_Node000019_Node000016"><a xlink:title=" ">
<path fill="none" stroke="#63b8ff" d="M1186.5,-109.75C1186.5,-102.8 1186.5,-92.85 1186.5,-84.13"/>
<polygon fill="#63b8ff" stroke="#63b8ff" points="1190,-84.09 1186.5,-74.09 1183,-84.09 1190,-84.09"/>
</a>
</g>
</g>
<!-- Node19&#45;&gt;Node17 -->
<g id="edge25_Node000019_Node000017" class="edge">
<title>Node19&#45;&gt;Node17</title>
<g id="a_edge25_Node000019_Node000017"><a xlink:title=" ">
<path fill="none" stroke="#63b8ff" d="M1162.88,-109.98C1137.58,-100.86 1097.36,-86.36 1069.75,-76.41"/>
<polygon fill="#63b8ff" stroke="#63b8ff" points="1070.8,-73.07 1060.21,-72.97 1068.43,-79.65 1070.8,-73.07"/>
</a>
</g>
</g>
<!-- Node19&#45;&gt;Node18 -->
<g id="edge26_Node000019_Node000018" class="edge">
<title>Node19&#45;&gt;Node18</title>
<g id="a_edge26_Node000019_Node000018"><a xlink:title=" ">
<path fill="none" stroke="#63b8ff" d="M1173.49,-109.98C1161.04,-101.84 1142.04,-89.41 1127.29,-79.76"/>
<polygon fill="#63b8ff" stroke="#63b8ff" points="1129.04,-76.72 1118.75,-74.17 1125.2,-82.57 1129.04,-76.72"/>
</a>
</g>
</g>
<!-- Node20 -->
<g id="Node000020" class="node">
<title>Node20</title>
<g id="a_Node000020"><a xlink:title=" ">
<polygon fill="#e0e0e0" stroke="#999999" points="1368.5,-74 1316.5,-74 1316.5,-55 1368.5,-55 1368.5,-74"/>
<text text-anchor="middle" x="1342.5" y="-62" font-family="Helvetica,sans-Serif" font-size="10.00">QRectF</text>
</a>
</g>
</g>
<!-- Node19&#45;&gt;Node20 -->
<g id="edge27_Node000019_Node000020" class="edge">
<title>Node19&#45;&gt;Node20</title>
<g id="a_edge27_Node000019_Node000020"><a xlink:title=" ">
<path fill="none" stroke="#63b8ff" d="M1211.56,-109.98C1237.53,-101.16 1278.31,-87.31 1307.46,-77.41"/>
<polygon fill="#63b8ff" stroke="#63b8ff" points="1308.9,-80.61 1317.24,-74.08 1306.65,-73.99 1308.9,-80.61"/>
</a>
</g>
</g>
</g>
</svg>
