<?xml version="1.0" encoding="UTF-8" standalone="no"?>
<!DOCTYPE svg PUBLIC "-//W3C//DTD SVG 1.1//EN"
 "http://www.w3.org/Graphics/SVG/1.1/DTD/svg11.dtd">
<!-- Generated by graphviz version 2.43.0 (0)
 -->
<!-- Title: models/ComponentExportStatus.h Pages: 1 -->
<svg width="842pt" height="247pt"
 viewBox="0.00 0.00 842.37 247.00" xmlns="http://www.w3.org/2000/svg" xmlns:xlink="http://www.w3.org/1999/xlink">
<g id="graph0" class="graph" transform="scale(1 1) rotate(0) translate(4 243)">
<title>models/ComponentExportStatus.h</title>
<!-- Node1 -->
<g id="Node000001" class="node">
<title>Node1</title>
<g id="a_Node000001"><a xlink:title=" ">
<polygon fill="#999999" stroke="#666666" points="535.87,-239 352.87,-239 352.87,-220 535.87,-220 535.87,-239"/>
<text text-anchor="middle" x="444.37" y="-227" font-family="Helvetica,sans-Serif" font-size="10.00">models/ComponentExportStatus.h</text>
</a>
</g>
</g>
<!-- Node2 -->
<g id="Node000002" class="node">
<title>Node2</title>
<g id="a_Node000002"><a xlink:href="ComponentData_8h.html" target="_top" xlink:title=" ">
<polygon fill="white" stroke="#666666" points="397.37,-184 253.37,-184 253.37,-165 397.37,-165 397.37,-184"/>
<text text-anchor="middle" x="325.37" y="-172" font-family="Helvetica,sans-Serif" font-size="10.00">models/ComponentData.h</text>
</a>
</g>
</g>
<!-- Node1&#45;&gt;Node2 -->
<g id="edge1_Node000001_Node000002" class="edge">
<title>Node1&#45;&gt;Node2</title>
<g id="a_edge1_Node000001_Node000002"><a xlink:title=" ">
<path fill="none" stroke="#63b8ff" d="M425.25,-219.98C406.02,-211.42 376.14,-198.11 354.07,-188.28"/>
<polygon fill="#63b8ff" stroke="#63b8ff" points="355.4,-185.04 344.84,-184.17 352.55,-191.44 355.4,-185.04"/>
</a>
</g>
</g>
<!-- Node3 -->
<g id="Node000003" class="node">
<title>Node3</title>
<g id="a_Node000003"><a xlink:href="FootprintData_8h.html" target="_top" xlink:title=" ">
<polygon fill="white" stroke="#666666" points="279.37,-129 187.37,-129 187.37,-110 279.37,-110 279.37,-129"/>
<text text-anchor="middle" x="233.37" y="-117" font-family="Helvetica,sans-Serif" font-size="10.00">FootprintData.h</text>
</a>
</g>
</g>
<!-- Node1&#45;&gt;Node3 -->
<g id="edge24_Node000001_Node000003" class="edge">
<title>Node1&#45;&gt;Node3</title>
<g id="a_edge24_Node000001_Node000003"><a xlink:title=" ">
<path fill="none" stroke="#63b8ff" d="M365.54,-219.99C317.08,-213.1 261.16,-201.6 244.37,-184 233.16,-172.24 231.13,-153.4 231.47,-139.29"/>
<polygon fill="#63b8ff" stroke="#63b8ff" points="234.97,-139.41 232.12,-129.21 227.98,-138.96 234.97,-139.41"/>
</a>
</g>
</g>
<!-- Node4 -->
<g id="Node000004" class="node">
<title>Node4</title>
<g id="a_Node000004"><a xlink:href="Model3DData_8h.html" target="_top" xlink:title=" ">
<polygon fill="white" stroke="#666666" points="104.37,-74 12.37,-74 12.37,-55 104.37,-55 104.37,-74"/>
<text text-anchor="middle" x="58.37" y="-62" font-family="Helvetica,sans-Serif" font-size="10.00">Model3DData.h</text>
</a>
</g>
</g>
<!-- Node1&#45;&gt;Node4 -->
<g id="edge25_Node000001_Node000004" class="edge">
<title>Node1&#45;&gt;Node4</title>
<g id="a_edge25_Node000001_Node000004"><a xlink:title=" ">
<path fill="none" stroke="#63b8ff" d="M352.85,-225.02C274.17,-217.34 162.32,-194.59 90.37,-129 77,-116.81 68.44,-97.75 63.58,-83.69"/>
<polygon fill="#63b8ff" stroke="#63b8ff" points="66.9,-82.6 60.56,-74.11 60.23,-84.7 66.9,-82.6"/>
</a>
</g>
</g>
<!-- Node7 -->
<g id="Node000007" class="node">
<title>Node7</title>
<g id="a_Node000007"><a xlink:title=" ">
<polygon fill="#e0e0e0" stroke="#999999" points="162.87,-19 109.87,-19 109.87,0 162.87,0 162.87,-19"/>
<text text-anchor="middle" x="136.37" y="-7" font-family="Helvetica,sans-Serif" font-size="10.00">QString</text>
</a>
</g>
</g>
<!-- Node1&#45;&gt;Node7 -->
<g id="edge32_Node000001_Node000007" class="edge">
<title>Node1&#45;&gt;Node7</title>
<g id="a_edge32_Node000001_Node000007"><a xlink:title=" ">
<path fill="none" stroke="#63b8ff" d="M352.84,-227.87C290.12,-224.45 206.32,-213.86 138.37,-184 67.52,-152.86 36.59,-143.91 3.37,-74 -0.25,-66.37 -1.56,-61.85 3.37,-55 9.22,-46.87 62.49,-30.81 99.81,-20.37"/>
<polygon fill="#63b8ff" stroke="#63b8ff" points="101.16,-23.63 109.86,-17.59 99.29,-16.88 101.16,-23.63"/>
</a>
</g>
</g>
<!-- Node11 -->
<g id="Node000011" class="node">
<title>Node11</title>
<g id="a_Node000011"><a xlink:href="SymbolData_8h.html" target="_top" xlink:title=" ">
<polygon fill="white" stroke="#666666" points="461.37,-129 375.37,-129 375.37,-110 461.37,-110 461.37,-129"/>
<text text-anchor="middle" x="418.37" y="-117" font-family="Helvetica,sans-Serif" font-size="10.00">SymbolData.h</text>
</a>
</g>
</g>
<!-- Node1&#45;&gt;Node11 -->
<g id="edge26_Node000001_Node000011" class="edge">
<title>Node1&#45;&gt;Node11</title>
<g id="a_edge26_Node000001_Node000011"><a xlink:title=" ">
<path fill="none" stroke="#63b8ff" d="M442.25,-219.66C438.02,-202.09 428.47,-162.45 422.82,-138.95"/>
<polygon fill="#63b8ff" stroke="#63b8ff" points="426.2,-138.06 420.46,-129.16 419.4,-139.7 426.2,-138.06"/>
</a>
</g>
</g>
<!-- Node13 -->
<g id="Node000013" class="node">
<title>Node13</title>
<g id="a_Node000013"><a xlink:title=" ">
<polygon fill="#e0e0e0" stroke="#999999" points="734.37,-129 642.37,-129 642.37,-110 734.37,-110 734.37,-129"/>
<text text-anchor="middle" x="688.37" y="-117" font-family="Helvetica,sans-Serif" font-size="10.00">QSharedPointer</text>
</a>
</g>
</g>
<!-- Node1&#45;&gt;Node13 -->
<g id="edge31_Node000001_Node000013" class="edge">
<title>Node1&#45;&gt;Node13</title>
<g id="a_edge31_Node000001_Node000013"><a xlink:title=" ">
<path fill="none" stroke="#63b8ff" d="M446.99,-219.98C451.69,-206.14 462.95,-178.93 482.37,-165 494.54,-156.27 575.35,-140.52 632.06,-130.28"/>
<polygon fill="#63b8ff" stroke="#63b8ff" points="632.77,-133.71 642,-128.5 631.54,-126.82 632.77,-133.71"/>
</a>
</g>
</g>
<!-- Node14 -->
<g id="Node000014" class="node">
<title>Node14</title>
<g id="a_Node000014"><a xlink:title=" ">
<polygon fill="#e0e0e0" stroke="#999999" points="547.37,-184 491.37,-184 491.37,-165 547.37,-165 547.37,-184"/>
<text text-anchor="middle" x="519.37" y="-172" font-family="Helvetica,sans-Serif" font-size="10.00">QDebug</text>
</a>
</g>
</g>
<!-- Node1&#45;&gt;Node14 -->
<g id="edge27_Node000001_Node000014" class="edge">
<title>Node1&#45;&gt;Node14</title>
<g id="a_edge27_Node000001_Node000014"><a xlink:title=" ">
<path fill="none" stroke="#63b8ff" d="M456.42,-219.98C467.84,-211.92 485.2,-199.65 498.81,-190.03"/>
<polygon fill="#63b8ff" stroke="#63b8ff" points="500.96,-192.8 507.1,-184.17 496.92,-187.08 500.96,-192.8"/>
</a>
</g>
</g>
<!-- Node15 -->
<g id="Node000015" class="node">
<title>Node15</title>
<g id="a_Node000015"><a xlink:title=" ">
<polygon fill="#e0e0e0" stroke="#999999" points="656.87,-184 565.87,-184 565.87,-165 656.87,-165 656.87,-184"/>
<text text-anchor="middle" x="611.37" y="-172" font-family="Helvetica,sans-Serif" font-size="10.00">QElapsedTimer</text>
</a>
</g>
</g>
<!-- Node1&#45;&gt;Node15 -->
<g id="edge28_Node000001_Node000015" class="edge">
<title>Node1&#45;&gt;Node15</title>
<g id="a_edge28_Node000001_Node000015"><a xlink:title=" ">
<path fill="none" stroke="#63b8ff" d="M471.2,-219.98C499.24,-211.09 543.42,-197.07 574.67,-187.15"/>
<polygon fill="#63b8ff" stroke="#63b8ff" points="575.86,-190.44 584.33,-184.08 573.74,-183.77 575.86,-190.44"/>
</a>
</g>
</g>
<!-- Node16 -->
<g id="Node000016" class="node">
<title>Node16</title>
<g id="a_Node000016"><a xlink:title=" ">
<polygon fill="#e0e0e0" stroke="#999999" points="729.87,-184 674.87,-184 674.87,-165 729.87,-165 729.87,-184"/>
<text text-anchor="middle" x="702.37" y="-172" font-family="Helvetica,sans-Serif" font-size="10.00">QMutex</text>
</a>
</g>
</g>
<!-- Node1&#45;&gt;Node16 -->
<g id="edge29_Node000001_Node000016" class="edge">
<title>Node1&#45;&gt;Node16</title>
<g id="a_edge29_Node000001_Node000016"><a xlink:title=" ">
<path fill="none" stroke="#63b8ff" d="M489.11,-220C531.82,-211.77 598.24,-198.72 664.32,-184.4"/>
<polygon fill="#63b8ff" stroke="#63b8ff" points="665.46,-187.73 674.49,-182.18 663.97,-180.89 665.46,-187.73"/>
</a>
</g>
</g>
<!-- Node17 -->
<g id="Node000017" class="node">
<title>Node17</title>
<g id="a_Node000017"><a xlink:title=" ">
<polygon fill="#e0e0e0" stroke="#999999" points="834.37,-184 748.37,-184 748.37,-165 834.37,-165 834.37,-184"/>
<text text-anchor="middle" x="791.37" y="-172" font-family="Helvetica,sans-Serif" font-size="10.00">QMutexLocker</text>
</a>
</g>
</g>
<!-- Node1&#45;&gt;Node17 -->
<g id="edge30_Node000001_Node000017" class="edge">
<title>Node1&#45;&gt;Node17</title>
<g id="a_edge30_Node000001_Node000017"><a xlink:title=" ">
<path fill="none" stroke="#63b8ff" d="M502.34,-219.97C559.7,-211.48 650.28,-197.95 738.36,-184.14"/>
<polygon fill="#63b8ff" stroke="#63b8ff" points="738.91,-187.6 748.25,-182.59 737.83,-180.68 738.91,-187.6"/>
</a>
</g>
</g>
<!-- Node2&#45;&gt;Node3 -->
<g id="edge2_Node000002_Node000003" class="edge">
<title>Node2&#45;&gt;Node3</title>
<g id="a_edge2_Node000002_Node000003"><a xlink:title=" ">
<path fill="none" stroke="#63b8ff" d="M310.59,-164.98C296.19,-156.69 274.06,-143.94 257.18,-134.22"/>
<polygon fill="#63b8ff" stroke="#63b8ff" points="258.84,-131.13 248.42,-129.17 255.34,-137.19 258.84,-131.13"/>
</a>
</g>
</g>
<!-- Node2&#45;&gt;Node4 -->
<g id="edge12_Node000002_Node000004" class="edge">
<title>Node2&#45;&gt;Node4</title>
<g id="a_edge12_Node000002_Node000004"><a xlink:title=" ">
<path fill="none" stroke="#63b8ff" d="M253.11,-168.62C211.53,-163.29 159.53,-152.17 118.37,-129 98.01,-117.54 80.43,-96.88 69.66,-82.24"/>
<polygon fill="#63b8ff" stroke="#63b8ff" points="72.49,-80.19 63.86,-74.04 66.78,-84.23 72.49,-80.19"/>
</a>
</g>
</g>
<!-- Node6 -->
<g id="Node000006" class="node">
<title>Node6</title>
<g id="a_Node000006"><a xlink:title=" ">
<polygon fill="#e0e0e0" stroke="#999999" points="399.37,-19 323.37,-19 323.37,0 399.37,0 399.37,-19"/>
<text text-anchor="middle" x="361.37" y="-7" font-family="Helvetica,sans-Serif" font-size="10.00">QJsonObject</text>
</a>
</g>
</g>
<!-- Node2&#45;&gt;Node6 -->
<g id="edge21_Node000002_Node000006" class="edge">
<title>Node2&#45;&gt;Node6</title>
<g id="a_edge21_Node000002_Node000006"><a xlink:title=" ">
<path fill="none" stroke="#63b8ff" d="M397.6,-169.65C462.13,-161.86 552.85,-139.16 595.37,-74 599.99,-66.93 600.76,-61.51 595.37,-55 572.32,-27.15 471.56,-16.58 410.02,-12.68"/>
<polygon fill="#63b8ff" stroke="#63b8ff" points="409.95,-9.17 399.76,-12.07 409.53,-16.16 409.95,-9.17"/>
</a>
</g>
</g>
<!-- Node2&#45;&gt;Node7 -->
<g id="edge23_Node000002_Node000007" class="edge">
<title>Node2&#45;&gt;Node7</title>
<g id="a_edge23_Node000002_Node000007"><a xlink:title=" ">
<path fill="none" stroke="#63b8ff" d="M253.04,-165.4C226.73,-159.19 198.53,-148.24 178.37,-129 150.18,-102.09 140.88,-55.06 137.84,-29.08"/>
<polygon fill="#63b8ff" stroke="#63b8ff" points="141.31,-28.67 136.86,-19.06 134.35,-29.35 141.31,-28.67"/>
</a>
</g>
</g>
<!-- Node8 -->
<g id="Node000008" class="node">
<title>Node8</title>
<g id="a_Node000008"><a xlink:title=" ">
<polygon fill="#e0e0e0" stroke="#999999" points="439.87,-74 368.87,-74 368.87,-55 439.87,-55 439.87,-74"/>
<text text-anchor="middle" x="404.37" y="-62" font-family="Helvetica,sans-Serif" font-size="10.00">QJsonArray</text>
</a>
</g>
</g>
<!-- Node2&#45;&gt;Node8 -->
<g id="edge20_Node000002_Node000008" class="edge">
<title>Node2&#45;&gt;Node8</title>
<g id="a_edge20_Node000002_Node000008"><a xlink:title=" ">
<path fill="none" stroke="#63b8ff" d="M330.59,-164.63C338.05,-152.12 352.42,-128.73 366.37,-110 373.65,-100.22 382.46,-89.83 389.76,-81.55"/>
<polygon fill="#63b8ff" stroke="#63b8ff" points="392.39,-83.87 396.44,-74.08 387.17,-79.2 392.39,-83.87"/>
</a>
</g>
</g>
<!-- Node2&#45;&gt;Node11 -->
<g id="edge13_Node000002_Node000011" class="edge">
<title>Node2&#45;&gt;Node11</title>
<g id="a_edge13_Node000002_Node000011"><a xlink:title=" ">
<path fill="none" stroke="#63b8ff" d="M340.31,-164.98C354.87,-156.69 377.24,-143.94 394.31,-134.22"/>
<polygon fill="#63b8ff" stroke="#63b8ff" points="396.2,-137.16 403.16,-129.17 392.74,-131.08 396.2,-137.16"/>
</a>
</g>
</g>
<!-- Node2&#45;&gt;Node13 -->
<g id="edge22_Node000002_Node000013" class="edge">
<title>Node2&#45;&gt;Node13</title>
<g id="a_edge22_Node000002_Node000013"><a xlink:title=" ">
<path fill="none" stroke="#63b8ff" d="M383.7,-164.98C452.13,-154.99 564.8,-138.54 632.27,-128.69"/>
<polygon fill="#63b8ff" stroke="#63b8ff" points="632.9,-132.14 642.29,-127.23 631.89,-125.21 632.9,-132.14"/>
</a>
</g>
</g>
<!-- Node3&#45;&gt;Node4 -->
<g id="edge3_Node000003_Node000004" class="edge">
<title>Node3&#45;&gt;Node4</title>
<g id="a_edge3_Node000003_Node000004"><a xlink:title=" ">
<path fill="none" stroke="#63b8ff" d="M205.26,-109.98C175.75,-101.05 129.18,-86.94 96.4,-77.02"/>
<polygon fill="#63b8ff" stroke="#63b8ff" points="97.3,-73.63 86.71,-74.08 95.27,-80.33 97.3,-73.63"/>
</a>
</g>
</g>
<!-- Node3&#45;&gt;Node6 -->
<g id="edge8_Node000003_Node000006" class="edge">
<title>Node3&#45;&gt;Node6</title>
<g id="a_edge8_Node000003_Node000006"><a xlink:title=" ">
<path fill="none" stroke="#63b8ff" d="M229.41,-109.74C224.1,-96.54 216.61,-71.33 228.37,-55 247.52,-28.4 283.31,-17.47 312.95,-13.08"/>
<polygon fill="#63b8ff" stroke="#63b8ff" points="313.65,-16.52 323.13,-11.79 312.77,-9.58 313.65,-16.52"/>
</a>
</g>
</g>
<!-- Node3&#45;&gt;Node7 -->
<g id="edge11_Node000003_Node000007" class="edge">
<title>Node3&#45;&gt;Node7</title>
<g id="a_edge11_Node000003_Node000007"><a xlink:title=" ">
<path fill="none" stroke="#63b8ff" d="M225.43,-109.66C209.15,-91.54 171.77,-49.91 150.99,-26.77"/>
<polygon fill="#63b8ff" stroke="#63b8ff" points="153.44,-24.26 144.15,-19.16 148.23,-28.94 153.44,-24.26"/>
</a>
</g>
</g>
<!-- Node3&#45;&gt;Node8 -->
<g id="edge7_Node000003_Node000008" class="edge">
<title>Node3&#45;&gt;Node8</title>
<g id="a_edge7_Node000003_Node000008"><a xlink:title=" ">
<path fill="none" stroke="#63b8ff" d="M260.85,-109.98C289.56,-101.09 334.79,-87.07 366.8,-77.15"/>
<polygon fill="#63b8ff" stroke="#63b8ff" points="368.17,-80.39 376.68,-74.08 366.1,-73.7 368.17,-80.39"/>
</a>
</g>
</g>
<!-- Node9 -->
<g id="Node000009" class="node">
<title>Node9</title>
<g id="a_Node000009"><a xlink:title=" ">
<polygon fill="#e0e0e0" stroke="#999999" points="277.87,-74 236.87,-74 236.87,-55 277.87,-55 277.87,-74"/>
<text text-anchor="middle" x="257.37" y="-62" font-family="Helvetica,sans-Serif" font-size="10.00">QList</text>
</a>
</g>
</g>
<!-- Node3&#45;&gt;Node9 -->
<g id="edge9_Node000003_Node000009" class="edge">
<title>Node3&#45;&gt;Node9</title>
<g id="a_edge9_Node000003_Node000009"><a xlink:title=" ">
<path fill="none" stroke="#63b8ff" d="M237.34,-109.75C240.59,-102.57 245.29,-92.18 249.33,-83.27"/>
<polygon fill="#63b8ff" stroke="#63b8ff" points="252.55,-84.64 253.48,-74.09 246.17,-81.75 252.55,-84.64"/>
</a>
</g>
</g>
<!-- Node10 -->
<g id="Node000010" class="node">
<title>Node10</title>
<g id="a_Node000010"><a xlink:title=" ">
<polygon fill="#e0e0e0" stroke="#999999" points="350.87,-74 295.87,-74 295.87,-55 350.87,-55 350.87,-74"/>
<text text-anchor="middle" x="323.37" y="-62" font-family="Helvetica,sans-Serif" font-size="10.00">QPointF</text>
</a>
</g>
</g>
<!-- Node3&#45;&gt;Node10 -->
<g id="edge10_Node000003_Node000010" class="edge">
<title>Node3&#45;&gt;Node10</title>
<g id="a_edge10_Node000003_Node000010"><a xlink:title=" ">
<path fill="none" stroke="#63b8ff" d="M247.83,-109.98C261.79,-101.77 283.17,-89.18 299.62,-79.49"/>
<polygon fill="#63b8ff" stroke="#63b8ff" points="301.81,-82.26 308.65,-74.17 298.26,-76.23 301.81,-82.26"/>
</a>
</g>
</g>
<!-- Node5 -->
<g id="Node000005" class="node">
<title>Node5</title>
<g id="a_Node000005"><a xlink:title=" ">
<polygon fill="#e0e0e0" stroke="#999999" points="91.87,-19 18.87,-19 18.87,0 91.87,0 91.87,-19"/>
<text text-anchor="middle" x="55.37" y="-7" font-family="Helvetica,sans-Serif" font-size="10.00">QByteArray</text>
</a>
</g>
</g>
<!-- Node4&#45;&gt;Node5 -->
<g id="edge4_Node000004_Node000005" class="edge">
<title>Node4&#45;&gt;Node5</title>
<g id="a_edge4_Node000004_Node000005"><a xlink:title=" ">
<path fill="none" stroke="#63b8ff" d="M57.88,-54.75C57.48,-47.8 56.92,-37.85 56.43,-29.13"/>
<polygon fill="#63b8ff" stroke="#63b8ff" points="59.92,-28.88 55.86,-19.09 52.93,-29.27 59.92,-28.88"/>
</a>
</g>
</g>
<!-- Node4&#45;&gt;Node6 -->
<g id="edge5_Node000004_Node000006" class="edge">
<title>Node4&#45;&gt;Node6</title>
<g id="a_edge5_Node000004_Node000006"><a xlink:title=" ">
<path fill="none" stroke="#63b8ff" d="M104.39,-55.45C160.77,-45.59 255.84,-28.96 313.19,-18.93"/>
<polygon fill="#63b8ff" stroke="#63b8ff" points="313.85,-22.37 323.1,-17.2 312.64,-15.47 313.85,-22.37"/>
</a>
</g>
</g>
<!-- Node4&#45;&gt;Node7 -->
<g id="edge6_Node000004_Node000007" class="edge">
<title>Node4&#45;&gt;Node7</title>
<g id="a_edge6_Node000004_Node000007"><a xlink:title=" ">
<path fill="none" stroke="#63b8ff" d="M70.9,-54.98C82.77,-46.92 100.84,-34.65 114.99,-25.03"/>
<polygon fill="#63b8ff" stroke="#63b8ff" points="117.31,-27.69 123.61,-19.17 113.37,-21.9 117.31,-27.69"/>
</a>
</g>
</g>
<!-- Node11&#45;&gt;Node6 -->
<g id="edge15_Node000011_Node000006" class="edge">
<title>Node11&#45;&gt;Node6</title>
<g id="a_edge15_Node000011_Node000006"><a xlink:title=" ">
<path fill="none" stroke="#63b8ff" d="M439.08,-109.81C463.19,-98.4 497.87,-77.21 482.37,-55 465.98,-31.5 435.73,-20.38 409.57,-15.13"/>
<polygon fill="#63b8ff" stroke="#63b8ff" points="409.87,-11.63 399.42,-13.33 408.65,-18.52 409.87,-11.63"/>
</a>
</g>
</g>
<!-- Node11&#45;&gt;Node7 -->
<g id="edge19_Node000011_Node000007" class="edge">
<title>Node11&#45;&gt;Node7</title>
<g id="a_edge19_Node000011_Node000007"><a xlink:title=" ">
<path fill="none" stroke="#63b8ff" d="M428.31,-109.88C442.17,-96.84 464.01,-71.86 449.37,-55 431.48,-34.39 252.46,-18.94 173.48,-13.08"/>
<polygon fill="#63b8ff" stroke="#63b8ff" points="173.25,-9.55 163.02,-12.31 172.74,-16.53 173.25,-9.55"/>
</a>
</g>
</g>
<!-- Node11&#45;&gt;Node8 -->
<g id="edge14_Node000011_Node000008" class="edge">
<title>Node11&#45;&gt;Node8</title>
<g id="a_edge14_Node000011_Node000008"><a xlink:title=" ">
<path fill="none" stroke="#63b8ff" d="M416.06,-109.75C414.21,-102.72 411.54,-92.62 409.22,-83.84"/>
<polygon fill="#63b8ff" stroke="#63b8ff" points="412.58,-82.86 406.64,-74.09 405.81,-84.65 412.58,-82.86"/>
</a>
</g>
</g>
<!-- Node11&#45;&gt;Node9 -->
<g id="edge16_Node000011_Node000009" class="edge">
<title>Node11&#45;&gt;Node9</title>
<g id="a_edge16_Node000011_Node000009"><a xlink:title=" ">
<path fill="none" stroke="#63b8ff" d="M392.51,-109.98C363.92,-100.57 317.92,-85.43 287.67,-75.47"/>
<polygon fill="#63b8ff" stroke="#63b8ff" points="288.65,-72.11 278.06,-72.31 286.46,-78.76 288.65,-72.11"/>
</a>
</g>
</g>
<!-- Node11&#45;&gt;Node10 -->
<g id="edge17_Node000011_Node000010" class="edge">
<title>Node11&#45;&gt;Node10</title>
<g id="a_edge17_Node000011_Node000010"><a xlink:title=" ">
<path fill="none" stroke="#63b8ff" d="M403.11,-109.98C388.24,-101.69 365.39,-88.94 347.96,-79.22"/>
<polygon fill="#63b8ff" stroke="#63b8ff" points="349.35,-75.99 338.91,-74.17 345.94,-82.1 349.35,-75.99"/>
</a>
</g>
</g>
<!-- Node12 -->
<g id="Node000012" class="node">
<title>Node12</title>
<g id="a_Node000012"><a xlink:title=" ">
<polygon fill="#e0e0e0" stroke="#999999" points="586.37,-74 534.37,-74 534.37,-55 586.37,-55 586.37,-74"/>
<text text-anchor="middle" x="560.37" y="-62" font-family="Helvetica,sans-Serif" font-size="10.00">QRectF</text>
</a>
</g>
</g>
<!-- Node11&#45;&gt;Node12 -->
<g id="edge18_Node000011_Node000012" class="edge">
<title>Node11&#45;&gt;Node12</title>
<g id="a_edge18_Node000011_Node000012"><a xlink:title=" ">
<path fill="none" stroke="#63b8ff" d="M441.19,-109.98C464.55,-101.27 501.08,-87.63 527.54,-77.75"/>
<polygon fill="#63b8ff" stroke="#63b8ff" points="529,-80.95 537.14,-74.17 526.55,-74.39 529,-80.95"/>
</a>
</g>
</g>
</g>
</svg>
