<?xml version="1.0" encoding="UTF-8" standalone="no"?>
<!DOCTYPE svg PUBLIC "-//W3C//DTD SVG 1.1//EN"
 "http://www.w3.org/Graphics/SVG/1.1/DTD/svg11.dtd">
<!-- Generated by graphviz version 2.43.0 (0)
 -->
<!-- Title: ui/viewmodels/ComponentListViewModel.h Pages: 1 -->
<svg width="368pt" height="170pt"
 viewBox="0.00 0.00 367.82 170.00" xmlns="http://www.w3.org/2000/svg" xmlns:xlink="http://www.w3.org/1999/xlink">
<g id="graph0" class="graph" transform="scale(1 1) rotate(0) translate(4 166)">
<title>ui/viewmodels/ComponentListViewModel.h</title>
<!-- Node1 -->
<g id="Node000001" class="node">
<title>Node1</title>
<g id="a_Node000001"><a xlink:title=" ">
<polygon fill="#999999" stroke="#666666" points="177.82,-162 13.82,-162 13.82,-132 177.82,-132 177.82,-162"/>
<text text-anchor="start" x="21.82" y="-150" font-family="Helvetica,sans-Serif" font-size="10.00">ui/viewmodels/ComponentList</text>
<text text-anchor="middle" x="95.82" y="-139" font-family="Helvetica,sans-Serif" font-size="10.00">ViewModel.h</text>
</a>
</g>
</g>
<!-- Node2 -->
<g id="Node000002" class="node">
<title>Node2</title>
<g id="a_Node000002"><a xlink:href="main_8cpp.html" target="_top" xlink:title=" ">
<polygon fill="white" stroke="#666666" points="96.82,-24.5 34.82,-24.5 34.82,-5.5 96.82,-5.5 96.82,-24.5"/>
<text text-anchor="middle" x="65.82" y="-12.5" font-family="Helvetica,sans-Serif" font-size="10.00">main.cpp</text>
</a>
</g>
</g>
<!-- Node1&#45;&gt;Node2 -->
<g id="edge1_Node000001_Node000002" class="edge">
<title>Node1&#45;&gt;Node2</title>
<g id="a_edge1_Node000001_Node000002"><a xlink:title=" ">
<path fill="none" stroke="#63b8ff" d="M40.4,-127.45C26.35,-119.97 12.95,-109.75 4.82,-96 -1.97,-84.52 -0.88,-78.05 4.82,-66 13.78,-47.06 33.82,-32.9 48.5,-24.57"/>
<polygon fill="#63b8ff" stroke="#63b8ff" points="39.16,-130.74 49.68,-131.99 42.24,-124.45 39.16,-130.74"/>
</a>
</g>
</g>
<!-- Node3 -->
<g id="Node000003" class="node">
<title>Node3</title>
<g id="a_Node000003"><a xlink:href="ComponentListViewModel_8cpp.html" target="_top" xlink:title=" ">
<polygon fill="white" stroke="#666666" points="177.82,-96 13.82,-96 13.82,-66 177.82,-66 177.82,-96"/>
<text text-anchor="start" x="21.82" y="-84" font-family="Helvetica,sans-Serif" font-size="10.00">ui/viewmodels/ComponentList</text>
<text text-anchor="middle" x="95.82" y="-73" font-family="Helvetica,sans-Serif" font-size="10.00">ViewModel.cpp</text>
</a>
</g>
</g>
<!-- Node1&#45;&gt;Node3 -->
<g id="edge2_Node000001_Node000003" class="edge">
<title>Node1&#45;&gt;Node3</title>
<g id="a_edge2_Node000001_Node000003"><a xlink:title=" ">
<path fill="none" stroke="#63b8ff" d="M95.82,-121.54C95.82,-112.96 95.82,-103.61 95.82,-96.16"/>
<polygon fill="#63b8ff" stroke="#63b8ff" points="92.32,-121.8 95.82,-131.8 99.32,-121.8 92.32,-121.8"/>
</a>
</g>
</g>
<!-- Node4 -->
<g id="Node000004" class="node">
<title>Node4</title>
<g id="a_Node000004"><a xlink:href="ExportProgressViewModel_8h.html" target="_top" xlink:title=" ">
<polygon fill="white" stroke="#666666" points="359.82,-96 195.82,-96 195.82,-66 359.82,-66 359.82,-96"/>
<text text-anchor="start" x="203.82" y="-84" font-family="Helvetica,sans-Serif" font-size="10.00">ui/viewmodels/ExportProgress</text>
<text text-anchor="middle" x="277.82" y="-73" font-family="Helvetica,sans-Serif" font-size="10.00">ViewModel.h</text>
</a>
</g>
</g>
<!-- Node1&#45;&gt;Node4 -->
<g id="edge3_Node000001_Node000004" class="edge">
<title>Node1&#45;&gt;Node4</title>
<g id="a_edge3_Node000001_Node000004"><a xlink:title=" ">
<path fill="none" stroke="#63b8ff" d="M145.33,-128.59C174.43,-118.36 210.73,-105.59 237.97,-96.01"/>
<polygon fill="#63b8ff" stroke="#63b8ff" points="144.03,-125.34 135.76,-131.95 146.36,-131.94 144.03,-125.34"/>
</a>
</g>
</g>
<!-- Node4&#45;&gt;Node2 -->
<g id="edge4_Node000004_Node000002" class="edge">
<title>Node4&#45;&gt;Node2</title>
<g id="a_edge4_Node000004_Node000002"><a xlink:title=" ">
<path fill="none" stroke="#63b8ff" d="M221.67,-63.05C180.56,-50.64 126.48,-34.31 94.03,-24.52"/>
<polygon fill="#63b8ff" stroke="#63b8ff" points="220.71,-66.42 231.3,-65.95 222.73,-59.71 220.71,-66.42"/>
</a>
</g>
</g>
<!-- Node5 -->
<g id="Node000005" class="node">
<title>Node5</title>
<g id="a_Node000005"><a xlink:href="ExportProgressViewModel_8cpp.html" target="_top" xlink:title=" ">
<polygon fill="white" stroke="#666666" points="359.82,-30 195.82,-30 195.82,0 359.82,0 359.82,-30"/>
<text text-anchor="start" x="203.82" y="-18" font-family="Helvetica,sans-Serif" font-size="10.00">ui/viewmodels/ExportProgress</text>
<text text-anchor="middle" x="277.82" y="-7" font-family="Helvetica,sans-Serif" font-size="10.00">ViewModel.cpp</text>
</a>
</g>
</g>
<!-- Node4&#45;&gt;Node5 -->
<g id="edge5_Node000004_Node000005" class="edge">
<title>Node4&#45;&gt;Node5</title>
<g id="a_edge5_Node000004_Node000005"><a xlink:title=" ">
<path fill="none" stroke="#63b8ff" d="M277.82,-55.54C277.82,-46.96 277.82,-37.61 277.82,-30.16"/>
<polygon fill="#63b8ff" stroke="#63b8ff" points="274.32,-55.8 277.82,-65.8 281.32,-55.8 274.32,-55.8"/>
</a>
</g>
</g>
</g>
</svg>
