<?xml version="1.0" encoding="UTF-8" standalone="no"?>
<!DOCTYPE svg PUBLIC "-//W3C//DTD SVG 1.1//EN"
 "http://www.w3.org/Graphics/SVG/1.1/DTD/svg11.dtd">
<!-- Generated by graphviz version 2.43.0 (0)
 -->
<!-- Title: ui/viewmodels/ComponentListViewModel.cpp Pages: 1 -->
<svg width="2178pt" height="379pt"
 viewBox="0.00 0.00 2178.00 379.00" xmlns="http://www.w3.org/2000/svg" xmlns:xlink="http://www.w3.org/1999/xlink">
<g id="graph0" class="graph" transform="scale(1 1) rotate(0) translate(4 375)">
<title>ui/viewmodels/ComponentListViewModel.cpp</title>
<!-- Node1 -->
<g id="Node000001" class="node">
<title>Node1</title>
<g id="a_Node000001"><a xlink:title=" ">
<polygon fill="#999999" stroke="#666666" points="1727.5,-371 1563.5,-371 1563.5,-341 1727.5,-341 1727.5,-371"/>
<text text-anchor="start" x="1571.5" y="-359" font-family="Helvetica,sans-Serif" font-size="10.00">ui/viewmodels/ComponentList</text>
<text text-anchor="middle" x="1645.5" y="-348" font-family="Helvetica,sans-Serif" font-size="10.00">ViewModel.cpp</text>
</a>
</g>
</g>
<!-- Node2 -->
<g id="Node000002" class="node">
<title>Node2</title>
<g id="a_Node000002"><a xlink:href="ComponentListViewModel_8h.html" target="_top" xlink:title=" ">
<polygon fill="white" stroke="#666666" points="1436,-305 1283,-305 1283,-286 1436,-286 1436,-305"/>
<text text-anchor="middle" x="1359.5" y="-293" font-family="Helvetica,sans-Serif" font-size="10.00">ComponentListViewModel.h</text>
</a>
</g>
</g>
<!-- Node1&#45;&gt;Node2 -->
<g id="edge1_Node000001_Node000002" class="edge">
<title>Node1&#45;&gt;Node2</title>
<g id="a_edge1_Node000001_Node000002"><a xlink:title=" ">
<path fill="none" stroke="#63b8ff" d="M1577,-340.99C1526.04,-330.56 1457.56,-316.56 1411.16,-307.07"/>
<polygon fill="#63b8ff" stroke="#63b8ff" points="1411.82,-303.63 1401.32,-305.05 1410.41,-310.49 1411.82,-303.63"/>
</a>
</g>
</g>
<!-- Node29 -->
<g id="Node000029" class="node">
<title>Node29</title>
<g id="a_Node000029"><a xlink:title=" ">
<polygon fill="#e0e0e0" stroke="#999999" points="1493,-244.5 1434,-244.5 1434,-225.5 1493,-225.5 1493,-244.5"/>
<text text-anchor="middle" x="1463.5" y="-232.5" font-family="Helvetica,sans-Serif" font-size="10.00">QPointer</text>
</a>
</g>
</g>
<!-- Node1&#45;&gt;Node29 -->
<g id="edge65_Node000001_Node000029" class="edge">
<title>Node1&#45;&gt;Node29</title>
<g id="a_edge65_Node000001_Node000029"><a xlink:title=" ">
<path fill="none" stroke="#63b8ff" d="M1607.71,-340.97C1586.24,-332.16 1559.36,-319.7 1537.5,-305 1514.62,-289.62 1491.99,-267.16 1477.89,-252.09"/>
<polygon fill="#63b8ff" stroke="#63b8ff" points="1480.33,-249.57 1470.99,-244.57 1475.17,-254.3 1480.33,-249.57"/>
</a>
</g>
</g>
<!-- Node30 -->
<g id="Node000030" class="node">
<title>Node30</title>
<g id="a_Node000030"><a xlink:title=" ">
<polygon fill="#e0e0e0" stroke="#999999" points="1551.5,-244.5 1511.5,-244.5 1511.5,-225.5 1551.5,-225.5 1551.5,-244.5"/>
<text text-anchor="middle" x="1531.5" y="-232.5" font-family="Helvetica,sans-Serif" font-size="10.00">QSet</text>
</a>
</g>
</g>
<!-- Node1&#45;&gt;Node30 -->
<g id="edge67_Node000001_Node000030" class="edge">
<title>Node1&#45;&gt;Node30</title>
<g id="a_edge67_Node000001_Node000030"><a xlink:title=" ">
<path fill="none" stroke="#63b8ff" d="M1603.63,-340.83C1585.64,-332.85 1565.75,-321.16 1552.5,-305 1540.74,-290.64 1535.56,-269.78 1533.28,-254.76"/>
<polygon fill="#63b8ff" stroke="#63b8ff" points="1536.73,-254.12 1532.04,-244.61 1529.78,-254.96 1536.73,-254.12"/>
</a>
</g>
</g>
<!-- Node31 -->
<g id="Node000031" class="node">
<title>Node31</title>
<g id="a_Node000031"><a xlink:title=" ">
<polygon fill="#e0e0e0" stroke="#999999" points="1623,-244.5 1570,-244.5 1570,-225.5 1623,-225.5 1623,-244.5"/>
<text text-anchor="middle" x="1596.5" y="-232.5" font-family="Helvetica,sans-Serif" font-size="10.00">QTimer</text>
</a>
</g>
</g>
<!-- Node1&#45;&gt;Node31 -->
<g id="edge69_Node000001_Node000031" class="edge">
<title>Node1&#45;&gt;Node31</title>
<g id="a_edge69_Node000001_Node000031"><a xlink:title=" ">
<path fill="none" stroke="#63b8ff" d="M1603.66,-340.93C1587.17,-333.09 1569.94,-321.5 1560.5,-305 1550.2,-286.99 1565.21,-265.76 1578.87,-251.65"/>
<polygon fill="#63b8ff" stroke="#63b8ff" points="1581.4,-254.08 1586.15,-244.61 1576.53,-249.05 1581.4,-254.08"/>
</a>
</g>
</g>
<!-- Node32 -->
<g id="Node000032" class="node">
<title>Node32</title>
<g id="a_Node000032"><a xlink:href="ThumbnailGenerator_8h.html" target="_top" xlink:title=" ">
<polygon fill="white" stroke="#666666" points="161,-244.5 0,-244.5 0,-225.5 161,-225.5 161,-244.5"/>
<text text-anchor="middle" x="80.5" y="-232.5" font-family="Helvetica,sans-Serif" font-size="10.00">ui/utils/ThumbnailGenerator.h</text>
</a>
</g>
</g>
<!-- Node1&#45;&gt;Node32 -->
<g id="edge58_Node000001_Node000032" class="edge">
<title>Node1&#45;&gt;Node32</title>
<g id="a_edge58_Node000001_Node000032"><a xlink:title=" ">
<path fill="none" stroke="#63b8ff" d="M1563.35,-349.6C1345.19,-335.11 733.16,-293.51 224.5,-250 207.35,-248.53 189.05,-246.85 171.46,-245.17"/>
<polygon fill="#63b8ff" stroke="#63b8ff" points="171.49,-241.65 161.2,-244.18 170.82,-248.62 171.49,-241.65"/>
</a>
</g>
</g>
<!-- Node33 -->
<g id="Node000033" class="node">
<title>Node33</title>
<g id="a_Node000033"><a xlink:title=" ">
<polygon fill="#e0e0e0" stroke="#999999" points="1640,-305 1569,-305 1569,-286 1640,-286 1640,-305"/>
<text text-anchor="middle" x="1604.5" y="-293" font-family="Helvetica,sans-Serif" font-size="10.00">QClipboard</text>
</a>
</g>
</g>
<!-- Node1&#45;&gt;Node33 -->
<g id="edge62_Node000001_Node000033" class="edge">
<title>Node1&#45;&gt;Node33</title>
<g id="a_edge62_Node000001_Node000033"><a xlink:title=" ">
<path fill="none" stroke="#63b8ff" d="M1635.58,-340.84C1629.81,-332.61 1622.5,-322.18 1616.42,-313.51"/>
<polygon fill="#63b8ff" stroke="#63b8ff" points="1619.25,-311.45 1610.64,-305.27 1613.52,-315.46 1619.25,-311.45"/>
</a>
</g>
</g>
<!-- Node34 -->
<g id="Node000034" class="node">
<title>Node34</title>
<g id="a_Node000034"><a xlink:title=" ">
<polygon fill="#e0e0e0" stroke="#999999" points="1714.5,-305 1658.5,-305 1658.5,-286 1714.5,-286 1714.5,-305"/>
<text text-anchor="middle" x="1686.5" y="-293" font-family="Helvetica,sans-Serif" font-size="10.00">QDebug</text>
</a>
</g>
</g>
<!-- Node1&#45;&gt;Node34 -->
<g id="edge63_Node000001_Node000034" class="edge">
<title>Node1&#45;&gt;Node34</title>
<g id="a_edge63_Node000001_Node000034"><a xlink:title=" ">
<path fill="none" stroke="#63b8ff" d="M1655.42,-340.84C1661.19,-332.61 1668.5,-322.18 1674.58,-313.51"/>
<polygon fill="#63b8ff" stroke="#63b8ff" points="1677.48,-315.46 1680.36,-305.27 1671.75,-311.45 1677.48,-315.46"/>
</a>
</g>
</g>
<!-- Node35 -->
<g id="Node000035" class="node">
<title>Node35</title>
<g id="a_Node000035"><a xlink:title=" ">
<polygon fill="#e0e0e0" stroke="#999999" points="1828,-305 1733,-305 1733,-286 1828,-286 1828,-305"/>
<text text-anchor="middle" x="1780.5" y="-293" font-family="Helvetica,sans-Serif" font-size="10.00">QGuiApplication</text>
</a>
</g>
</g>
<!-- Node1&#45;&gt;Node35 -->
<g id="edge64_Node000001_Node000035" class="edge">
<title>Node1&#45;&gt;Node35</title>
<g id="a_edge64_Node000001_Node000035"><a xlink:title=" ">
<path fill="none" stroke="#63b8ff" d="M1677.84,-340.99C1700.16,-331.31 1729.6,-318.56 1751.23,-309.18"/>
<polygon fill="#63b8ff" stroke="#63b8ff" points="1752.78,-312.33 1760.56,-305.14 1750,-305.9 1752.78,-312.33"/>
</a>
</g>
</g>
<!-- Node36 -->
<g id="Node000036" class="node">
<title>Node36</title>
<g id="a_Node000036"><a xlink:title=" ">
<polygon fill="#e0e0e0" stroke="#999999" points="1916.5,-305 1846.5,-305 1846.5,-286 1916.5,-286 1916.5,-305"/>
<text text-anchor="middle" x="1881.5" y="-293" font-family="Helvetica,sans-Serif" font-size="10.00">QRunnable</text>
</a>
</g>
</g>
<!-- Node1&#45;&gt;Node36 -->
<g id="edge66_Node000001_Node000036" class="edge">
<title>Node1&#45;&gt;Node36</title>
<g id="a_edge66_Node000001_Node000036"><a xlink:title=" ">
<path fill="none" stroke="#63b8ff" d="M1702.03,-340.99C1743.46,-330.72 1798.93,-316.97 1837.17,-307.49"/>
<polygon fill="#63b8ff" stroke="#63b8ff" points="1838.13,-310.86 1846.99,-305.05 1836.44,-304.06 1838.13,-310.86"/>
</a>
</g>
</g>
<!-- Node37 -->
<g id="Node000037" class="node">
<title>Node37</title>
<g id="a_Node000037"><a xlink:title=" ">
<polygon fill="#e0e0e0" stroke="#999999" points="2014,-305 1935,-305 1935,-286 2014,-286 2014,-305"/>
<text text-anchor="middle" x="1974.5" y="-293" font-family="Helvetica,sans-Serif" font-size="10.00">QThreadPool</text>
</a>
</g>
</g>
<!-- Node1&#45;&gt;Node37 -->
<g id="edge68_Node000001_Node000037" class="edge">
<title>Node1&#45;&gt;Node37</title>
<g id="a_edge68_Node000001_Node000037"><a xlink:title=" ">
<path fill="none" stroke="#63b8ff" d="M1724.3,-340.99C1786.63,-329.91 1871.73,-314.77 1924.88,-305.32"/>
<polygon fill="#63b8ff" stroke="#63b8ff" points="1925.51,-308.77 1934.74,-303.57 1924.29,-301.87 1925.51,-308.77"/>
</a>
</g>
</g>
<!-- Node38 -->
<g id="Node000038" class="node">
<title>Node38</title>
<g id="a_Node000038"><a xlink:title=" ">
<polygon fill="#e0e0e0" stroke="#999999" points="2070.5,-305 2032.5,-305 2032.5,-286 2070.5,-286 2070.5,-305"/>
<text text-anchor="middle" x="2051.5" y="-293" font-family="Helvetica,sans-Serif" font-size="10.00">QUrl</text>
</a>
</g>
</g>
<!-- Node1&#45;&gt;Node38 -->
<g id="edge70_Node000001_Node000038" class="edge">
<title>Node1&#45;&gt;Node38</title>
<g id="a_edge70_Node000001_Node000038"><a xlink:title=" ">
<path fill="none" stroke="#63b8ff" d="M1727.64,-348.03C1802.33,-340.81 1915.62,-327.64 2022.35,-304.93"/>
<polygon fill="#63b8ff" stroke="#63b8ff" points="2023.29,-308.3 2032.33,-302.77 2021.82,-301.46 2023.29,-308.3"/>
</a>
</g>
</g>
<!-- Node39 -->
<g id="Node000039" class="node">
<title>Node39</title>
<g id="a_Node000039"><a xlink:title=" ">
<polygon fill="#e0e0e0" stroke="#999999" points="2170,-305 2089,-305 2089,-286 2170,-286 2170,-305"/>
<text text-anchor="middle" x="2129.5" y="-293" font-family="Helvetica,sans-Serif" font-size="10.00">QtConcurrent</text>
</a>
</g>
</g>
<!-- Node1&#45;&gt;Node39 -->
<g id="edge71_Node000001_Node000039" class="edge">
<title>Node1&#45;&gt;Node39</title>
<g id="a_edge71_Node000001_Node000039"><a xlink:title=" ">
<path fill="none" stroke="#63b8ff" d="M1727.66,-346.86C1812.84,-338.12 1950.11,-323.2 2078.83,-305.02"/>
<polygon fill="#63b8ff" stroke="#63b8ff" points="2079.46,-308.47 2088.87,-303.59 2078.48,-301.54 2079.46,-308.47"/>
</a>
</g>
</g>
<!-- Node3 -->
<g id="Node000003" class="node">
<title>Node3</title>
<g id="a_Node000003"><a xlink:href="ComponentListItemData_8h.html" target="_top" xlink:title=" ">
<polygon fill="white" stroke="#666666" points="385.5,-250 233.5,-250 233.5,-220 385.5,-220 385.5,-250"/>
<text text-anchor="start" x="241.5" y="-238" font-family="Helvetica,sans-Serif" font-size="10.00">models/ComponentListItem</text>
<text text-anchor="middle" x="309.5" y="-227" font-family="Helvetica,sans-Serif" font-size="10.00">Data.h</text>
</a>
</g>
</g>
<!-- Node2&#45;&gt;Node3 -->
<g id="edge2_Node000002_Node000003" class="edge">
<title>Node2&#45;&gt;Node3</title>
<g id="a_edge2_Node000002_Node000003"><a xlink:title=" ">
<path fill="none" stroke="#63b8ff" d="M1282.72,-290.22C1091.85,-279.59 596.86,-252.01 396.05,-240.82"/>
<polygon fill="#63b8ff" stroke="#63b8ff" points="396.02,-237.32 385.84,-240.25 395.63,-244.3 396.02,-237.32"/>
</a>
</g>
</g>
<!-- Node18 -->
<g id="Node000018" class="node">
<title>Node18</title>
<g id="a_Node000018"><a xlink:href="ComponentService_8h.html" target="_top" xlink:title=" ">
<polygon fill="white" stroke="#666666" points="1070,-244.5 909,-244.5 909,-225.5 1070,-225.5 1070,-244.5"/>
<text text-anchor="middle" x="989.5" y="-232.5" font-family="Helvetica,sans-Serif" font-size="10.00">services/ComponentService.h</text>
</a>
</g>
</g>
<!-- Node2&#45;&gt;Node18 -->
<g id="edge30_Node000002_Node000018" class="edge">
<title>Node2&#45;&gt;Node18</title>
<g id="a_edge30_Node000002_Node000018"><a xlink:title=" ">
<path fill="none" stroke="#63b8ff" d="M1305.7,-285.99C1238.84,-275.42 1124.87,-257.4 1053.57,-246.13"/>
<polygon fill="#63b8ff" stroke="#63b8ff" points="1053.79,-242.62 1043.37,-244.52 1052.7,-249.54 1053.79,-242.62"/>
</a>
</g>
</g>
<!-- Node24 -->
<g id="Node000024" class="node">
<title>Node24</title>
<g id="a_Node000024"><a xlink:title=" ">
<polygon fill="#e0e0e0" stroke="#999999" points="1310.5,-129 1240.5,-129 1240.5,-110 1310.5,-110 1310.5,-129"/>
<text text-anchor="middle" x="1275.5" y="-117" font-family="Helvetica,sans-Serif" font-size="10.00">QStringList</text>
</a>
</g>
</g>
<!-- Node2&#45;&gt;Node24 -->
<g id="edge56_Node000002_Node000024" class="edge">
<title>Node2&#45;&gt;Node24</title>
<g id="a_edge56_Node000002_Node000024"><a xlink:title=" ">
<path fill="none" stroke="#63b8ff" d="M1339.05,-285.99C1324.19,-278.7 1304.93,-266.71 1294.5,-250 1273.01,-215.58 1272.26,-166.17 1273.77,-139.43"/>
<polygon fill="#63b8ff" stroke="#63b8ff" points="1277.28,-139.4 1274.52,-129.17 1270.3,-138.88 1277.28,-139.4"/>
</a>
</g>
</g>
<!-- Node28 -->
<g id="Node000028" class="node">
<title>Node28</title>
<g id="a_Node000028"><a xlink:title=" ">
<polygon fill="#e0e0e0" stroke="#999999" points="1415.5,-244.5 1303.5,-244.5 1303.5,-225.5 1415.5,-225.5 1415.5,-244.5"/>
<text text-anchor="middle" x="1359.5" y="-232.5" font-family="Helvetica,sans-Serif" font-size="10.00">QAbstractListModel</text>
</a>
</g>
</g>
<!-- Node2&#45;&gt;Node28 -->
<g id="edge53_Node000002_Node000028" class="edge">
<title>Node2&#45;&gt;Node28</title>
<g id="a_edge53_Node000002_Node000028"><a xlink:title=" ">
<path fill="none" stroke="#63b8ff" d="M1359.5,-285.87C1359.5,-277.75 1359.5,-265.31 1359.5,-254.89"/>
<polygon fill="#63b8ff" stroke="#63b8ff" points="1363,-254.67 1359.5,-244.67 1356,-254.67 1363,-254.67"/>
</a>
</g>
</g>
<!-- Node2&#45;&gt;Node29 -->
<g id="edge54_Node000002_Node000029" class="edge">
<title>Node2&#45;&gt;Node29</title>
<g id="a_edge54_Node000002_Node000029"><a xlink:title=" ">
<path fill="none" stroke="#63b8ff" d="M1374.85,-285.87C1391.82,-276.32 1419.4,-260.81 1439.29,-249.62"/>
<polygon fill="#63b8ff" stroke="#63b8ff" points="1441.09,-252.62 1448.09,-244.67 1437.66,-246.52 1441.09,-252.62"/>
</a>
</g>
</g>
<!-- Node2&#45;&gt;Node30 -->
<g id="edge55_Node000002_Node000030" class="edge">
<title>Node2&#45;&gt;Node30</title>
<g id="a_edge55_Node000002_Node000030"><a xlink:title=" ">
<path fill="none" stroke="#63b8ff" d="M1391.77,-285.93C1421.07,-277.81 1465.25,-264.69 1502.5,-250 1503.51,-249.6 1504.54,-249.18 1505.58,-248.74"/>
<polygon fill="#63b8ff" stroke="#63b8ff" points="1507.14,-251.88 1514.82,-244.57 1504.27,-245.5 1507.14,-251.88"/>
</a>
</g>
</g>
<!-- Node2&#45;&gt;Node31 -->
<g id="edge57_Node000002_Node000031" class="edge">
<title>Node2&#45;&gt;Node31</title>
<g id="a_edge57_Node000002_Node000031"><a xlink:title=" ">
<path fill="none" stroke="#63b8ff" d="M1407.96,-285.93C1449.01,-278.16 1509.2,-265.56 1560.5,-250 1562.43,-249.42 1564.39,-248.78 1566.37,-248.1"/>
<polygon fill="#63b8ff" stroke="#63b8ff" points="1567.93,-251.26 1576.13,-244.55 1565.54,-244.68 1567.93,-251.26"/>
</a>
</g>
</g>
<!-- Node4 -->
<g id="Node000004" class="node">
<title>Node4</title>
<g id="a_Node000004"><a xlink:href="ComponentData_8h.html" target="_top" xlink:title=" ">
<polygon fill="white" stroke="#666666" points="376,-184 271,-184 271,-165 376,-165 376,-184"/>
<text text-anchor="middle" x="323.5" y="-172" font-family="Helvetica,sans-Serif" font-size="10.00">ComponentData.h</text>
</a>
</g>
</g>
<!-- Node3&#45;&gt;Node4 -->
<g id="edge3_Node000003_Node000004" class="edge">
<title>Node3&#45;&gt;Node4</title>
<g id="a_edge3_Node000003_Node000004"><a xlink:title=" ">
<path fill="none" stroke="#63b8ff" d="M312.89,-219.84C314.73,-212.13 317.04,-202.49 319.03,-194.17"/>
<polygon fill="#63b8ff" stroke="#63b8ff" points="322.48,-194.81 321.4,-184.27 315.67,-193.18 322.48,-194.81"/>
</a>
</g>
</g>
<!-- Node9 -->
<g id="Node000009" class="node">
<title>Node9</title>
<g id="a_Node000009"><a xlink:title=" ">
<polygon fill="#e0e0e0" stroke="#999999" points="391,-19 338,-19 338,0 391,0 391,-19"/>
<text text-anchor="middle" x="364.5" y="-7" font-family="Helvetica,sans-Serif" font-size="10.00">QString</text>
</a>
</g>
</g>
<!-- Node3&#45;&gt;Node9 -->
<g id="edge29_Node000003_Node000009" class="edge">
<title>Node3&#45;&gt;Node9</title>
<g id="a_edge29_Node000003_Node000009"><a xlink:title=" ">
<path fill="none" stroke="#63b8ff" d="M234.21,-219.92C214.82,-212.52 196.16,-201.23 184.5,-184 152.36,-136.52 149.16,-100.14 184.5,-55 201.93,-32.73 280.23,-20.07 327.63,-14.31"/>
<polygon fill="#63b8ff" stroke="#63b8ff" points="328.29,-17.76 337.82,-13.13 327.48,-10.81 328.29,-17.76"/>
</a>
</g>
</g>
<!-- Node15 -->
<g id="Node000015" class="node">
<title>Node15</title>
<g id="a_Node000015"><a xlink:title=" ">
<polygon fill="#e0e0e0" stroke="#999999" points="132.5,-129 40.5,-129 40.5,-110 132.5,-110 132.5,-129"/>
<text text-anchor="middle" x="86.5" y="-117" font-family="Helvetica,sans-Serif" font-size="10.00">QSharedPointer</text>
</a>
</g>
</g>
<!-- Node3&#45;&gt;Node15 -->
<g id="edge28_Node000003_Node000015" class="edge">
<title>Node3&#45;&gt;Node15</title>
<g id="a_edge28_Node000003_Node000015"><a xlink:title=" ">
<path fill="none" stroke="#63b8ff" d="M235.88,-219.99C206.6,-212.29 173.53,-200.79 146.5,-184 126.87,-171.81 109.35,-151.63 98.38,-137.3"/>
<polygon fill="#63b8ff" stroke="#63b8ff" points="101.2,-135.22 92.44,-129.25 95.57,-139.37 101.2,-135.22"/>
</a>
</g>
</g>
<!-- Node16 -->
<g id="Node000016" class="node">
<title>Node16</title>
<g id="a_Node000016"><a xlink:title=" ">
<polygon fill="#e0e0e0" stroke="#999999" points="94,-184 39,-184 39,-165 94,-165 94,-184"/>
<text text-anchor="middle" x="66.5" y="-172" font-family="Helvetica,sans-Serif" font-size="10.00">QImage</text>
</a>
</g>
</g>
<!-- Node3&#45;&gt;Node16 -->
<g id="edge26_Node000003_Node000016" class="edge">
<title>Node3&#45;&gt;Node16</title>
<g id="a_edge26_Node000003_Node000016"><a xlink:title=" ">
<path fill="none" stroke="#63b8ff" d="M251.3,-219.99C205.67,-209 143.52,-194.04 104.2,-184.58"/>
<polygon fill="#63b8ff" stroke="#63b8ff" points="104.77,-181.11 94.23,-182.18 103.14,-187.92 104.77,-181.11"/>
</a>
</g>
</g>
<!-- Node17 -->
<g id="Node000017" class="node">
<title>Node17</title>
<g id="a_Node000017"><a xlink:title=" ">
<polygon fill="#e0e0e0" stroke="#999999" points="653.5,-129 597.5,-129 597.5,-110 653.5,-110 653.5,-129"/>
<text text-anchor="middle" x="625.5" y="-117" font-family="Helvetica,sans-Serif" font-size="10.00">QObject</text>
</a>
</g>
</g>
<!-- Node3&#45;&gt;Node17 -->
<g id="edge27_Node000003_Node000017" class="edge">
<title>Node3&#45;&gt;Node17</title>
<g id="a_edge27_Node000003_Node000017"><a xlink:title=" ">
<path fill="none" stroke="#63b8ff" d="M348.56,-219.97C411.16,-197.49 532.87,-153.77 591.85,-132.59"/>
<polygon fill="#63b8ff" stroke="#63b8ff" points="593.2,-135.82 601.43,-129.14 590.84,-129.23 593.2,-135.82"/>
</a>
</g>
</g>
<!-- Node5 -->
<g id="Node000005" class="node">
<title>Node5</title>
<g id="a_Node000005"><a xlink:href="FootprintData_8h.html" target="_top" xlink:title=" ">
<polygon fill="white" stroke="#666666" points="503.5,-129 411.5,-129 411.5,-110 503.5,-110 503.5,-129"/>
<text text-anchor="middle" x="457.5" y="-117" font-family="Helvetica,sans-Serif" font-size="10.00">FootprintData.h</text>
</a>
</g>
</g>
<!-- Node4&#45;&gt;Node5 -->
<g id="edge4_Node000004_Node000005" class="edge">
<title>Node4&#45;&gt;Node5</title>
<g id="a_edge4_Node000004_Node000005"><a xlink:title=" ">
<path fill="none" stroke="#63b8ff" d="M345.03,-164.98C366.97,-156.3 401.24,-142.75 426.19,-132.88"/>
<polygon fill="#63b8ff" stroke="#63b8ff" points="427.57,-136.1 435.58,-129.17 424.99,-129.59 427.57,-136.1"/>
</a>
</g>
</g>
<!-- Node6 -->
<g id="Node000006" class="node">
<title>Node6</title>
<g id="a_Node000006"><a xlink:href="Model3DData_8h.html" target="_top" xlink:title=" ">
<polygon fill="white" stroke="#666666" points="877.5,-74 785.5,-74 785.5,-55 877.5,-55 877.5,-74"/>
<text text-anchor="middle" x="831.5" y="-62" font-family="Helvetica,sans-Serif" font-size="10.00">Model3DData.h</text>
</a>
</g>
</g>
<!-- Node4&#45;&gt;Node6 -->
<g id="edge14_Node000004_Node000006" class="edge">
<title>Node4&#45;&gt;Node6</title>
<g id="a_edge14_Node000004_Node000006"><a xlink:title=" ">
<path fill="none" stroke="#63b8ff" d="M376.35,-166.23C421.85,-159.19 488.92,-146.93 545.5,-129 565.42,-122.69 568.53,-116.15 588.5,-110 622.55,-99.52 714.75,-83.9 775.28,-74.23"/>
<polygon fill="#63b8ff" stroke="#63b8ff" points="776.13,-77.64 785.45,-72.61 775.03,-70.72 776.13,-77.64"/>
</a>
</g>
</g>
<!-- Node8 -->
<g id="Node000008" class="node">
<title>Node8</title>
<g id="a_Node000008"><a xlink:title=" ">
<polygon fill="#e0e0e0" stroke="#999999" points="785.5,-19 709.5,-19 709.5,0 785.5,0 785.5,-19"/>
<text text-anchor="middle" x="747.5" y="-7" font-family="Helvetica,sans-Serif" font-size="10.00">QJsonObject</text>
</a>
</g>
</g>
<!-- Node4&#45;&gt;Node8 -->
<g id="edge23_Node000004_Node000008" class="edge">
<title>Node4&#45;&gt;Node8</title>
<g id="a_edge23_Node000004_Node000008"><a xlink:title=" ">
<path fill="none" stroke="#63b8ff" d="M376.08,-165.36C414.71,-158.38 467.99,-146.61 512.5,-129 528.24,-122.77 529.91,-116.58 545.5,-110 599.55,-87.19 620.72,-101.58 672.5,-74 695.88,-61.55 718.48,-40.85 732.66,-26.48"/>
<polygon fill="#63b8ff" stroke="#63b8ff" points="735.21,-28.88 739.61,-19.24 730.16,-24.02 735.21,-28.88"/>
</a>
</g>
</g>
<!-- Node4&#45;&gt;Node9 -->
<g id="edge25_Node000004_Node000009" class="edge">
<title>Node4&#45;&gt;Node9</title>
<g id="a_edge25_Node000004_Node000009"><a xlink:title=" ">
<path fill="none" stroke="#63b8ff" d="M311.75,-164.92C286,-145.06 228.91,-94.57 255.5,-55 271.53,-31.14 302.84,-20.07 327.8,-14.93"/>
<polygon fill="#63b8ff" stroke="#63b8ff" points="328.49,-18.36 337.71,-13.13 327.24,-11.48 328.49,-18.36"/>
</a>
</g>
</g>
<!-- Node10 -->
<g id="Node000010" class="node">
<title>Node10</title>
<g id="a_Node000010"><a xlink:title=" ">
<polygon fill="#e0e0e0" stroke="#999999" points="336,-74 265,-74 265,-55 336,-55 336,-74"/>
<text text-anchor="middle" x="300.5" y="-62" font-family="Helvetica,sans-Serif" font-size="10.00">QJsonArray</text>
</a>
</g>
</g>
<!-- Node4&#45;&gt;Node10 -->
<g id="edge22_Node000004_Node000010" class="edge">
<title>Node4&#45;&gt;Node10</title>
<g id="a_edge22_Node000004_Node000010"><a xlink:title=" ">
<path fill="none" stroke="#63b8ff" d="M316.87,-164.88C310.74,-156.32 302.04,-142.54 298.5,-129 294.66,-114.31 295.52,-97.06 297.15,-84.24"/>
<polygon fill="#63b8ff" stroke="#63b8ff" points="300.62,-84.72 298.67,-74.3 293.7,-83.66 300.62,-84.72"/>
</a>
</g>
</g>
<!-- Node13 -->
<g id="Node000013" class="node">
<title>Node13</title>
<g id="a_Node000013"><a xlink:href="SymbolData_8h.html" target="_top" xlink:title=" ">
<polygon fill="white" stroke="#666666" points="393.5,-129 307.5,-129 307.5,-110 393.5,-110 393.5,-129"/>
<text text-anchor="middle" x="350.5" y="-117" font-family="Helvetica,sans-Serif" font-size="10.00">SymbolData.h</text>
</a>
</g>
</g>
<!-- Node4&#45;&gt;Node13 -->
<g id="edge15_Node000004_Node000013" class="edge">
<title>Node4&#45;&gt;Node13</title>
<g id="a_edge15_Node000004_Node000013"><a xlink:title=" ">
<path fill="none" stroke="#63b8ff" d="M327.96,-164.75C331.62,-157.57 336.91,-147.18 341.45,-138.27"/>
<polygon fill="#63b8ff" stroke="#63b8ff" points="344.7,-139.59 346.12,-129.09 338.47,-136.41 344.7,-139.59"/>
</a>
</g>
</g>
<!-- Node4&#45;&gt;Node15 -->
<g id="edge24_Node000004_Node000015" class="edge">
<title>Node4&#45;&gt;Node15</title>
<g id="a_edge24_Node000004_Node000015"><a xlink:title=" ">
<path fill="none" stroke="#63b8ff" d="M285.42,-164.98C244.51,-155.84 179.39,-141.27 134.88,-131.32"/>
<polygon fill="#63b8ff" stroke="#63b8ff" points="135.4,-127.85 124.88,-129.08 133.87,-134.68 135.4,-127.85"/>
</a>
</g>
</g>
<!-- Node5&#45;&gt;Node6 -->
<g id="edge5_Node000005_Node000006" class="edge">
<title>Node5&#45;&gt;Node6</title>
<g id="a_edge5_Node000005_Node000006"><a xlink:title=" ">
<path fill="none" stroke="#63b8ff" d="M503.73,-111.95C572.43,-102.21 701.26,-83.96 775.3,-73.46"/>
<polygon fill="#63b8ff" stroke="#63b8ff" points="775.96,-76.91 785.37,-72.04 774.98,-69.97 775.96,-76.91"/>
</a>
</g>
</g>
<!-- Node5&#45;&gt;Node8 -->
<g id="edge10_Node000005_Node000008" class="edge">
<title>Node5&#45;&gt;Node8</title>
<g id="a_edge10_Node000005_Node000008"><a xlink:title=" ">
<path fill="none" stroke="#63b8ff" d="M503.53,-111.09C541.03,-104.15 594.89,-92.11 639.5,-74 671.8,-60.89 705.99,-39.3 727.04,-24.99"/>
<polygon fill="#63b8ff" stroke="#63b8ff" points="729.24,-27.73 735.48,-19.17 725.26,-21.97 729.24,-27.73"/>
</a>
</g>
</g>
<!-- Node5&#45;&gt;Node9 -->
<g id="edge13_Node000005_Node000009" class="edge">
<title>Node5&#45;&gt;Node9</title>
<g id="a_edge13_Node000005_Node000009"><a xlink:title=" ">
<path fill="none" stroke="#63b8ff" d="M499.74,-109.95C546.35,-100.1 615.85,-83.97 623.5,-74 628.64,-67.3 628.94,-61.46 623.5,-55 595.51,-21.79 465.88,-13.36 401.29,-11.23"/>
<polygon fill="#63b8ff" stroke="#63b8ff" points="401.24,-7.72 391.14,-10.92 401.03,-14.72 401.24,-7.72"/>
</a>
</g>
</g>
<!-- Node5&#45;&gt;Node10 -->
<g id="edge9_Node000005_Node000010" class="edge">
<title>Node5&#45;&gt;Node10</title>
<g id="a_edge9_Node000005_Node000010"><a xlink:title=" ">
<path fill="none" stroke="#63b8ff" d="M432.28,-109.98C406.14,-101.16 365.1,-87.31 335.77,-77.41"/>
<polygon fill="#63b8ff" stroke="#63b8ff" points="336.52,-73.96 325.92,-74.08 334.28,-80.6 336.52,-73.96"/>
</a>
</g>
</g>
<!-- Node11 -->
<g id="Node000011" class="node">
<title>Node11</title>
<g id="a_Node000011"><a xlink:title=" ">
<polygon fill="#e0e0e0" stroke="#999999" points="542,-74 501,-74 501,-55 542,-55 542,-74"/>
<text text-anchor="middle" x="521.5" y="-62" font-family="Helvetica,sans-Serif" font-size="10.00">QList</text>
</a>
</g>
</g>
<!-- Node5&#45;&gt;Node11 -->
<g id="edge11_Node000005_Node000011" class="edge">
<title>Node5&#45;&gt;Node11</title>
<g id="a_edge11_Node000005_Node000011"><a xlink:title=" ">
<path fill="none" stroke="#63b8ff" d="M467.78,-109.98C477.34,-102.07 491.78,-90.11 503.28,-80.58"/>
<polygon fill="#63b8ff" stroke="#63b8ff" points="505.56,-83.24 511.03,-74.17 501.1,-77.85 505.56,-83.24"/>
</a>
</g>
</g>
<!-- Node12 -->
<g id="Node000012" class="node">
<title>Node12</title>
<g id="a_Node000012"><a xlink:title=" ">
<polygon fill="#e0e0e0" stroke="#999999" points="615,-74 560,-74 560,-55 615,-55 615,-74"/>
<text text-anchor="middle" x="587.5" y="-62" font-family="Helvetica,sans-Serif" font-size="10.00">QPointF</text>
</a>
</g>
</g>
<!-- Node5&#45;&gt;Node12 -->
<g id="edge12_Node000005_Node000012" class="edge">
<title>Node5&#45;&gt;Node12</title>
<g id="a_edge12_Node000005_Node000012"><a xlink:title=" ">
<path fill="none" stroke="#63b8ff" d="M478.39,-109.98C499.58,-101.34 532.63,-87.87 556.8,-78.02"/>
<polygon fill="#63b8ff" stroke="#63b8ff" points="558.29,-81.19 566.23,-74.17 555.65,-74.7 558.29,-81.19"/>
</a>
</g>
</g>
<!-- Node7 -->
<g id="Node000007" class="node">
<title>Node7</title>
<g id="a_Node000007"><a xlink:title=" ">
<polygon fill="#e0e0e0" stroke="#999999" points="877,-19 804,-19 804,0 877,0 877,-19"/>
<text text-anchor="middle" x="840.5" y="-7" font-family="Helvetica,sans-Serif" font-size="10.00">QByteArray</text>
</a>
</g>
</g>
<!-- Node6&#45;&gt;Node7 -->
<g id="edge6_Node000006_Node000007" class="edge">
<title>Node6&#45;&gt;Node7</title>
<g id="a_edge6_Node000006_Node000007"><a xlink:title=" ">
<path fill="none" stroke="#63b8ff" d="M832.99,-54.75C834.17,-47.8 835.86,-37.85 837.34,-29.13"/>
<polygon fill="#63b8ff" stroke="#63b8ff" points="840.82,-29.53 839.04,-19.09 833.92,-28.36 840.82,-29.53"/>
</a>
</g>
</g>
<!-- Node6&#45;&gt;Node8 -->
<g id="edge7_Node000006_Node000008" class="edge">
<title>Node6&#45;&gt;Node8</title>
<g id="a_edge7_Node000006_Node000008"><a xlink:title=" ">
<path fill="none" stroke="#63b8ff" d="M818,-54.98C805.1,-46.84 785.4,-34.41 770.1,-24.76"/>
<polygon fill="#63b8ff" stroke="#63b8ff" points="771.57,-21.55 761.24,-19.17 767.83,-27.47 771.57,-21.55"/>
</a>
</g>
</g>
<!-- Node6&#45;&gt;Node9 -->
<g id="edge8_Node000006_Node000009" class="edge">
<title>Node6&#45;&gt;Node9</title>
<g id="a_edge8_Node000006_Node000009"><a xlink:title=" ">
<path fill="none" stroke="#63b8ff" d="M785.44,-58.27C692.76,-47.75 485.4,-24.22 401.14,-14.66"/>
<polygon fill="#63b8ff" stroke="#63b8ff" points="401.36,-11.16 391.03,-13.51 400.57,-18.12 401.36,-11.16"/>
</a>
</g>
</g>
<!-- Node13&#45;&gt;Node8 -->
<g id="edge17_Node000013_Node000008" class="edge">
<title>Node13&#45;&gt;Node8</title>
<g id="a_edge17_Node000013_Node000008"><a xlink:title=" ">
<path fill="none" stroke="#63b8ff" d="M371.17,-109.97C392.07,-101.25 425.25,-87.15 453.5,-74 470.62,-66.03 473.56,-60.9 491.5,-55 561.8,-31.87 647.14,-20.11 699.36,-14.65"/>
<polygon fill="#63b8ff" stroke="#63b8ff" points="699.76,-18.12 709.35,-13.64 699.05,-11.16 699.76,-18.12"/>
</a>
</g>
</g>
<!-- Node13&#45;&gt;Node9 -->
<g id="edge21_Node000013_Node000009" class="edge">
<title>Node13&#45;&gt;Node9</title>
<g id="a_edge21_Node000013_Node000009"><a xlink:title=" ">
<path fill="none" stroke="#63b8ff" d="M351.65,-109.66C353.91,-92.17 359.02,-52.8 362.07,-29.27"/>
<polygon fill="#63b8ff" stroke="#63b8ff" points="365.56,-29.53 363.38,-19.16 358.62,-28.63 365.56,-29.53"/>
</a>
</g>
</g>
<!-- Node13&#45;&gt;Node10 -->
<g id="edge16_Node000013_Node000010" class="edge">
<title>Node13&#45;&gt;Node10</title>
<g id="a_edge16_Node000013_Node000010"><a xlink:title=" ">
<path fill="none" stroke="#63b8ff" d="M342.24,-109.75C335.04,-102.11 324.39,-90.82 315.65,-81.56"/>
<polygon fill="#63b8ff" stroke="#63b8ff" points="318.01,-78.96 308.6,-74.09 312.92,-83.76 318.01,-78.96"/>
</a>
</g>
</g>
<!-- Node13&#45;&gt;Node11 -->
<g id="edge18_Node000013_Node000011" class="edge">
<title>Node13&#45;&gt;Node11</title>
<g id="a_edge18_Node000013_Node000011"><a xlink:title=" ">
<path fill="none" stroke="#63b8ff" d="M377.97,-109.98C408.9,-100.4 459,-84.87 491.08,-74.93"/>
<polygon fill="#63b8ff" stroke="#63b8ff" points="492.3,-78.21 500.82,-71.91 490.23,-71.53 492.3,-78.21"/>
</a>
</g>
</g>
<!-- Node13&#45;&gt;Node12 -->
<g id="edge19_Node000013_Node000012" class="edge">
<title>Node13&#45;&gt;Node12</title>
<g id="a_edge19_Node000013_Node000012"><a xlink:title=" ">
<path fill="none" stroke="#63b8ff" d="M389.23,-109.96C427.49,-101.52 487.94,-88.12 549.7,-74.17"/>
<polygon fill="#63b8ff" stroke="#63b8ff" points="550.64,-77.54 559.62,-71.93 549.1,-70.72 550.64,-77.54"/>
</a>
</g>
</g>
<!-- Node14 -->
<g id="Node000014" class="node">
<title>Node14</title>
<g id="a_Node000014"><a xlink:title=" ">
<polygon fill="#e0e0e0" stroke="#999999" points="444.5,-74 392.5,-74 392.5,-55 444.5,-55 444.5,-74"/>
<text text-anchor="middle" x="418.5" y="-62" font-family="Helvetica,sans-Serif" font-size="10.00">QRectF</text>
</a>
</g>
</g>
<!-- Node13&#45;&gt;Node14 -->
<g id="edge20_Node000013_Node000014" class="edge">
<title>Node13&#45;&gt;Node14</title>
<g id="a_edge20_Node000013_Node000014"><a xlink:title=" ">
<path fill="none" stroke="#63b8ff" d="M361.43,-109.98C371.58,-102.07 386.92,-90.11 399.15,-80.58"/>
<polygon fill="#63b8ff" stroke="#63b8ff" points="401.64,-83.08 407.38,-74.17 397.34,-77.56 401.64,-83.08"/>
</a>
</g>
</g>
<!-- Node18&#45;&gt;Node4 -->
<g id="edge40_Node000018_Node000004" class="edge">
<title>Node18&#45;&gt;Node4</title>
<g id="a_edge40_Node000018_Node000004"><a xlink:title=" ">
<path fill="none" stroke="#63b8ff" d="M908.79,-226.94C798.34,-217.28 593.91,-199.37 419.5,-184 408.78,-183.06 397.39,-182.05 386.34,-181.07"/>
<polygon fill="#63b8ff" stroke="#63b8ff" points="386.58,-177.58 376.31,-180.18 385.97,-184.55 386.58,-177.58"/>
</a>
</g>
</g>
<!-- Node18&#45;&gt;Node5 -->
<g id="edge41_Node000018_Node000005" class="edge">
<title>Node18&#45;&gt;Node5</title>
<g id="a_edge41_Node000018_Node000005"><a xlink:title=" ">
<path fill="none" stroke="#63b8ff" d="M949.51,-225.47C853.98,-205.09 612.64,-153.6 507.61,-131.19"/>
<polygon fill="#63b8ff" stroke="#63b8ff" points="508.1,-127.72 497.59,-129.05 506.64,-134.56 508.1,-127.72"/>
</a>
</g>
</g>
<!-- Node18&#45;&gt;Node6 -->
<g id="edge42_Node000018_Node000006" class="edge">
<title>Node18&#45;&gt;Node6</title>
<g id="a_edge42_Node000018_Node000006"><a xlink:title=" ">
<path fill="none" stroke="#63b8ff" d="M999.8,-225.37C1019.61,-208.91 1062.57,-173.84 1079.5,-165 1129.01,-139.15 1229.5,-151.84 1192.5,-110 1172.67,-87.58 984.21,-73.96 887.77,-68.4"/>
<polygon fill="#63b8ff" stroke="#63b8ff" points="887.79,-64.9 877.61,-67.83 887.39,-71.89 887.79,-64.9"/>
</a>
</g>
</g>
<!-- Node18&#45;&gt;Node8 -->
<g id="edge45_Node000018_Node000008" class="edge">
<title>Node18&#45;&gt;Node8</title>
<g id="a_edge45_Node000018_Node000008"><a xlink:title=" ">
<path fill="none" stroke="#63b8ff" d="M1070.33,-230.54C1189.81,-222.52 1392.01,-196.16 1319.5,-110 1245.19,-21.71 927.8,-38.69 795.66,-19.05"/>
<polygon fill="#63b8ff" stroke="#63b8ff" points="796.15,-15.58 785.72,-17.44 795.03,-22.49 796.15,-15.58"/>
</a>
</g>
</g>
<!-- Node18&#45;&gt;Node9 -->
<g id="edge51_Node000018_Node000009" class="edge">
<title>Node18&#45;&gt;Node9</title>
<g id="a_edge51_Node000018_Node000009"><a xlink:title=" ">
<path fill="none" stroke="#63b8ff" d="M908.93,-234.06C729.3,-233.4 308.13,-227.22 261.5,-184 219.13,-144.73 212.57,-102.47 245.5,-55 263.89,-28.48 300.13,-17.74 327.81,-13.4"/>
<polygon fill="#63b8ff" stroke="#63b8ff" points="328.5,-16.84 337.94,-12.04 327.57,-9.91 328.5,-16.84"/>
</a>
</g>
</g>
<!-- Node18&#45;&gt;Node13 -->
<g id="edge43_Node000018_Node000013" class="edge">
<title>Node18&#45;&gt;Node13</title>
<g id="a_edge43_Node000018_Node000013"><a xlink:title=" ">
<path fill="none" stroke="#63b8ff" d="M931.25,-225.5C867.58,-216.04 762.61,-199.98 672.5,-184 576.31,-166.94 464.53,-144.25 401.19,-131.12"/>
<polygon fill="#63b8ff" stroke="#63b8ff" points="401.57,-127.62 391.07,-129.02 400.15,-134.48 401.57,-127.62"/>
</a>
</g>
</g>
<!-- Node18&#45;&gt;Node16 -->
<g id="edge44_Node000018_Node000016" class="edge">
<title>Node18&#45;&gt;Node16</title>
<g id="a_edge44_Node000018_Node000016"><a xlink:title=" ">
<path fill="none" stroke="#63b8ff" d="M908.93,-229.26C763.97,-220.67 449.6,-201.78 184.5,-184 157.67,-182.2 127.41,-180.02 104.25,-178.31"/>
<polygon fill="#63b8ff" stroke="#63b8ff" points="104.38,-174.81 94.15,-177.57 103.87,-181.8 104.38,-174.81"/>
</a>
</g>
</g>
<!-- Node18&#45;&gt;Node17 -->
<g id="edge48_Node000018_Node000017" class="edge">
<title>Node18&#45;&gt;Node17</title>
<g id="a_edge48_Node000018_Node000017"><a xlink:title=" ">
<path fill="none" stroke="#63b8ff" d="M962.14,-225.47C897.71,-205.38 736.36,-155.07 662.93,-132.17"/>
<polygon fill="#63b8ff" stroke="#63b8ff" points="663.77,-128.77 653.18,-129.13 661.68,-135.45 663.77,-128.77"/>
</a>
</g>
</g>
<!-- Node19 -->
<g id="Node000019" class="node">
<title>Node19</title>
<g id="a_Node000019"><a xlink:href="LcscImageService_8h.html" target="_top" xlink:title=" ">
<polygon fill="white" stroke="#666666" points="961,-184 848,-184 848,-165 961,-165 961,-184"/>
<text text-anchor="middle" x="904.5" y="-172" font-family="Helvetica,sans-Serif" font-size="10.00">LcscImageService.h</text>
</a>
</g>
</g>
<!-- Node18&#45;&gt;Node19 -->
<g id="edge31_Node000018_Node000019" class="edge">
<title>Node18&#45;&gt;Node19</title>
<g id="a_edge31_Node000018_Node000019"><a xlink:title=" ">
<path fill="none" stroke="#63b8ff" d="M976.96,-225.37C963.4,-216.04 941.56,-201.01 925.4,-189.88"/>
<polygon fill="#63b8ff" stroke="#63b8ff" points="927.32,-186.95 917.09,-184.17 923.35,-192.72 927.32,-186.95"/>
</a>
</g>
</g>
<!-- Node20 -->
<g id="Node000020" class="node">
<title>Node20</title>
<g id="a_Node000020"><a xlink:title=" ">
<polygon fill="#e0e0e0" stroke="#999999" points="1184,-129 1139,-129 1139,-110 1184,-110 1184,-129"/>
<text text-anchor="middle" x="1161.5" y="-117" font-family="Helvetica,sans-Serif" font-size="10.00">QMap</text>
</a>
</g>
</g>
<!-- Node18&#45;&gt;Node20 -->
<g id="edge46_Node000018_Node000020" class="edge">
<title>Node18&#45;&gt;Node20</title>
<g id="a_edge46_Node000018_Node000020"><a xlink:title=" ">
<path fill="none" stroke="#63b8ff" d="M995.37,-225.2C1005.36,-210.83 1026.98,-182.2 1051.5,-165 1075.3,-148.31 1106.29,-136.5 1129.3,-129.26"/>
<polygon fill="#63b8ff" stroke="#63b8ff" points="1130.39,-132.59 1138.95,-126.34 1128.37,-125.88 1130.39,-132.59"/>
</a>
</g>
</g>
<!-- Node23 -->
<g id="Node000023" class="node">
<title>Node23</title>
<g id="a_Node000023"><a xlink:title=" ">
<polygon fill="#e0e0e0" stroke="#999999" points="1120.5,-129 1064.5,-129 1064.5,-110 1120.5,-110 1120.5,-129"/>
<text text-anchor="middle" x="1092.5" y="-117" font-family="Helvetica,sans-Serif" font-size="10.00">QQueue</text>
</a>
</g>
</g>
<!-- Node18&#45;&gt;Node23 -->
<g id="edge50_Node000018_Node000023" class="edge">
<title>Node18&#45;&gt;Node23</title>
<g id="a_edge50_Node000018_Node000023"><a xlink:title=" ">
<path fill="none" stroke="#63b8ff" d="M990.51,-225.4C992.56,-211.32 998.37,-183.1 1013.5,-165 1025.29,-150.9 1042.76,-140.4 1058.27,-133.16"/>
<polygon fill="#63b8ff" stroke="#63b8ff" points="1059.86,-136.28 1067.61,-129.06 1057.05,-129.87 1059.86,-136.28"/>
</a>
</g>
</g>
<!-- Node18&#45;&gt;Node24 -->
<g id="edge52_Node000018_Node000024" class="edge">
<title>Node18&#45;&gt;Node24</title>
<g id="a_edge52_Node000018_Node000024"><a xlink:title=" ">
<path fill="none" stroke="#63b8ff" d="M1003.82,-225.38C1027.73,-211.26 1077.58,-182.98 1122.5,-165 1157.8,-150.87 1199.31,-139.08 1230.17,-131.2"/>
<polygon fill="#63b8ff" stroke="#63b8ff" points="1231.36,-134.51 1240.21,-128.67 1229.66,-127.72 1231.36,-134.51"/>
</a>
</g>
</g>
<!-- Node26 -->
<g id="Node000026" class="node">
<title>Node26</title>
<g id="a_Node000026"><a xlink:title=" ">
<polygon fill="#e0e0e0" stroke="#999999" points="1187,-184 1132,-184 1132,-165 1187,-165 1187,-184"/>
<text text-anchor="middle" x="1159.5" y="-172" font-family="Helvetica,sans-Serif" font-size="10.00">QMutex</text>
</a>
</g>
</g>
<!-- Node18&#45;&gt;Node26 -->
<g id="edge47_Node000018_Node000026" class="edge">
<title>Node18&#45;&gt;Node26</title>
<g id="a_edge47_Node000018_Node000026"><a xlink:title=" ">
<path fill="none" stroke="#63b8ff" d="M1014.22,-225.49C1043.43,-215.44 1092.2,-198.66 1125.09,-187.34"/>
<polygon fill="#63b8ff" stroke="#63b8ff" points="1126.43,-190.58 1134.75,-184.02 1124.16,-183.96 1126.43,-190.58"/>
</a>
</g>
</g>
<!-- Node27 -->
<g id="Node000027" class="node">
<title>Node27</title>
<g id="a_Node000027"><a xlink:title=" ">
<polygon fill="#e0e0e0" stroke="#999999" points="1247.5,-184 1205.5,-184 1205.5,-165 1247.5,-165 1247.5,-184"/>
<text text-anchor="middle" x="1226.5" y="-172" font-family="Helvetica,sans-Serif" font-size="10.00">QPair</text>
</a>
</g>
</g>
<!-- Node18&#45;&gt;Node27 -->
<g id="edge49_Node000018_Node000027" class="edge">
<title>Node18&#45;&gt;Node27</title>
<g id="a_edge49_Node000018_Node000027"><a xlink:title=" ">
<path fill="none" stroke="#63b8ff" d="M1026.05,-225.47C1067.29,-215.77 1136.35,-199.28 1195.5,-184 1195.6,-183.97 1195.7,-183.95 1195.79,-183.92"/>
<polygon fill="#63b8ff" stroke="#63b8ff" points="1196.41,-187.38 1205.18,-181.44 1194.61,-180.62 1196.41,-187.38"/>
</a>
</g>
</g>
<!-- Node19&#45;&gt;Node9 -->
<g id="edge37_Node000019_Node000009" class="edge">
<title>Node19&#45;&gt;Node9</title>
<g id="a_edge37_Node000019_Node000009"><a xlink:title=" ">
<path fill="none" stroke="#63b8ff" d="M847.96,-165.41C796.47,-157.29 724.87,-143.87 700.5,-129 664.12,-106.79 676.47,-76.21 639.5,-55 599.56,-32.09 466.91,-18.64 401.55,-13.25"/>
<polygon fill="#63b8ff" stroke="#63b8ff" points="401.54,-9.74 391.29,-12.43 400.98,-16.72 401.54,-9.74"/>
</a>
</g>
</g>
<!-- Node19&#45;&gt;Node17 -->
<g id="edge35_Node000019_Node000017" class="edge">
<title>Node19&#45;&gt;Node17</title>
<g id="a_edge35_Node000019_Node000017"><a xlink:title=" ">
<path fill="none" stroke="#63b8ff" d="M858.14,-165C810.34,-156.18 733.66,-141.9 667.5,-129 666.23,-128.75 664.93,-128.5 663.62,-128.24"/>
<polygon fill="#63b8ff" stroke="#63b8ff" points="663.99,-124.74 653.5,-126.22 662.63,-131.61 663.99,-124.74"/>
</a>
</g>
</g>
<!-- Node19&#45;&gt;Node20 -->
<g id="edge32_Node000019_Node000020" class="edge">
<title>Node19&#45;&gt;Node20</title>
<g id="a_edge32_Node000019_Node000020"><a xlink:title=" ">
<path fill="none" stroke="#63b8ff" d="M952.53,-164.93C996.08,-156.95 1062.23,-144.31 1128.97,-129"/>
<polygon fill="#63b8ff" stroke="#63b8ff" points="1129.87,-132.38 1138.82,-126.72 1128.29,-125.56 1129.87,-132.38"/>
</a>
</g>
</g>
<!-- Node21 -->
<g id="Node000021" class="node">
<title>Node21</title>
<g id="a_Node000021"><a xlink:title=" ">
<polygon fill="#e0e0e0" stroke="#999999" points="1046.5,-129 904.5,-129 904.5,-110 1046.5,-110 1046.5,-129"/>
<text text-anchor="middle" x="975.5" y="-117" font-family="Helvetica,sans-Serif" font-size="10.00">QNetworkAccessManager</text>
</a>
</g>
</g>
<!-- Node19&#45;&gt;Node21 -->
<g id="edge33_Node000019_Node000021" class="edge">
<title>Node19&#45;&gt;Node21</title>
<g id="a_edge33_Node000019_Node000021"><a xlink:title=" ">
<path fill="none" stroke="#63b8ff" d="M915.91,-164.98C926.61,-157 942.84,-144.88 955.66,-135.31"/>
<polygon fill="#63b8ff" stroke="#63b8ff" points="957.97,-137.96 963.89,-129.17 953.78,-132.35 957.97,-137.96"/>
</a>
</g>
</g>
<!-- Node22 -->
<g id="Node000022" class="node">
<title>Node22</title>
<g id="a_Node000022"><a xlink:title=" ">
<polygon fill="#e0e0e0" stroke="#999999" points="803,-129 710,-129 710,-110 803,-110 803,-129"/>
<text text-anchor="middle" x="756.5" y="-117" font-family="Helvetica,sans-Serif" font-size="10.00">QNetworkReply</text>
</a>
</g>
</g>
<!-- Node19&#45;&gt;Node22 -->
<g id="edge34_Node000019_Node000022" class="edge">
<title>Node19&#45;&gt;Node22</title>
<g id="a_edge34_Node000019_Node000022"><a xlink:title=" ">
<path fill="none" stroke="#63b8ff" d="M880.72,-164.98C856.27,-156.23 817.97,-142.51 790.35,-132.62"/>
<polygon fill="#63b8ff" stroke="#63b8ff" points="791.31,-129.25 780.71,-129.17 788.95,-135.84 791.31,-129.25"/>
</a>
</g>
</g>
<!-- Node19&#45;&gt;Node23 -->
<g id="edge36_Node000019_Node000023" class="edge">
<title>Node19&#45;&gt;Node23</title>
<g id="a_edge36_Node000019_Node000023"><a xlink:title=" ">
<path fill="none" stroke="#63b8ff" d="M934.71,-164.98C967.2,-155.82 1018.96,-141.23 1054.27,-131.28"/>
<polygon fill="#63b8ff" stroke="#63b8ff" points="1055.54,-134.56 1064.21,-128.47 1053.64,-127.82 1055.54,-134.56"/>
</a>
</g>
</g>
<!-- Node19&#45;&gt;Node24 -->
<g id="edge38_Node000019_Node000024" class="edge">
<title>Node19&#45;&gt;Node24</title>
<g id="a_edge38_Node000019_Node000024"><a xlink:title=" ">
<path fill="none" stroke="#63b8ff" d="M961.25,-165.39C1035.1,-154.84 1162.67,-136.62 1230.33,-126.95"/>
<polygon fill="#63b8ff" stroke="#63b8ff" points="1230.86,-130.41 1240.26,-125.53 1229.87,-123.48 1230.86,-130.41"/>
</a>
</g>
</g>
<!-- Node25 -->
<g id="Node000025" class="node">
<title>Node25</title>
<g id="a_Node000025"><a xlink:title=" ">
<polygon fill="#e0e0e0" stroke="#999999" points="886,-129 821,-129 821,-110 886,-110 886,-129"/>
<text text-anchor="middle" x="853.5" y="-117" font-family="Helvetica,sans-Serif" font-size="10.00">functional</text>
</a>
</g>
</g>
<!-- Node19&#45;&gt;Node25 -->
<g id="edge39_Node000019_Node000025" class="edge">
<title>Node19&#45;&gt;Node25</title>
<g id="a_edge39_Node000019_Node000025"><a xlink:title=" ">
<path fill="none" stroke="#63b8ff" d="M896.08,-164.75C888.73,-157.11 877.87,-145.82 868.96,-136.56"/>
<polygon fill="#63b8ff" stroke="#63b8ff" points="871.22,-133.87 861.76,-129.09 866.18,-138.72 871.22,-133.87"/>
</a>
</g>
</g>
<!-- Node32&#45;&gt;Node4 -->
<g id="edge59_Node000032_Node000004" class="edge">
<title>Node32&#45;&gt;Node4</title>
<g id="a_edge59_Node000032_Node000004"><a xlink:title=" ">
<path fill="none" stroke="#63b8ff" d="M115.83,-225.49C158.76,-215.16 231.24,-197.71 278.22,-186.4"/>
<polygon fill="#63b8ff" stroke="#63b8ff" points="279.22,-189.76 288.12,-184.02 277.58,-182.95 279.22,-189.76"/>
</a>
</g>
</g>
<!-- Node32&#45;&gt;Node15 -->
<g id="edge61_Node000032_Node000015" class="edge">
<title>Node32&#45;&gt;Node15</title>
<g id="a_edge61_Node000032_Node000015"><a xlink:title=" ">
<path fill="none" stroke="#63b8ff" d="M65.94,-225.32C47.07,-212.88 17.87,-188.83 29.5,-165 35.8,-152.09 47.85,-141.83 59.26,-134.43"/>
<polygon fill="#63b8ff" stroke="#63b8ff" points="61.36,-137.25 68.15,-129.12 57.77,-131.25 61.36,-137.25"/>
</a>
</g>
</g>
<!-- Node32&#45;&gt;Node16 -->
<g id="edge60_Node000032_Node000016" class="edge">
<title>Node32&#45;&gt;Node16</title>
<g id="a_edge60_Node000032_Node000016"><a xlink:title=" ">
<path fill="none" stroke="#63b8ff" d="M78.43,-225.37C76.47,-217.16 73.45,-204.54 70.94,-194.05"/>
<polygon fill="#63b8ff" stroke="#63b8ff" points="74.31,-193.08 68.57,-184.17 67.5,-194.71 74.31,-193.08"/>
</a>
</g>
</g>
</g>
</svg>
