<?xml version="1.0" encoding="UTF-8" standalone="no"?>
<!DOCTYPE svg PUBLIC "-//W3C//DTD SVG 1.1//EN"
 "http://www.w3.org/Graphics/SVG/1.1/DTD/svg11.dtd">
<!-- Generated by graphviz version 2.43.0 (0)
 -->
<!-- Title: ui/viewmodels/ComponentListViewModel.h Pages: 1 -->
<svg width="1577pt" height="324pt"
 viewBox="0.00 0.00 1576.94 324.00" xmlns="http://www.w3.org/2000/svg" xmlns:xlink="http://www.w3.org/1999/xlink">
<g id="graph0" class="graph" transform="scale(1 1) rotate(0) translate(4 320)">
<title>ui/viewmodels/ComponentListViewModel.h</title>
<!-- Node1 -->
<g id="Node000001" class="node">
<title>Node1</title>
<g id="a_Node000001"><a xlink:title=" ">
<polygon fill="#999999" stroke="#666666" points="1387.44,-316 1223.44,-316 1223.44,-286 1387.44,-286 1387.44,-316"/>
<text text-anchor="start" x="1231.44" y="-304" font-family="Helvetica,sans-Serif" font-size="10.00">ui/viewmodels/ComponentList</text>
<text text-anchor="middle" x="1305.44" y="-293" font-family="Helvetica,sans-Serif" font-size="10.00">ViewModel.h</text>
</a>
</g>
</g>
<!-- Node2 -->
<g id="Node000002" class="node">
<title>Node2</title>
<g id="a_Node000002"><a xlink:href="ComponentListItemData_8h.html" target="_top" xlink:title=" ">
<polygon fill="white" stroke="#666666" points="259.44,-250 107.44,-250 107.44,-220 259.44,-220 259.44,-250"/>
<text text-anchor="start" x="115.44" y="-238" font-family="Helvetica,sans-Serif" font-size="10.00">models/ComponentListItem</text>
<text text-anchor="middle" x="183.44" y="-227" font-family="Helvetica,sans-Serif" font-size="10.00">Data.h</text>
</a>
</g>
</g>
<!-- Node1&#45;&gt;Node2 -->
<g id="edge1_Node000001_Node000002" class="edge">
<title>Node1&#45;&gt;Node2</title>
<g id="a_edge1_Node000001_Node000002"><a xlink:title=" ">
<path fill="none" stroke="#63b8ff" d="M1223.39,-295.32C1017.49,-283.58 480.39,-252.94 269.87,-240.93"/>
<polygon fill="#63b8ff" stroke="#63b8ff" points="269.98,-237.43 259.8,-240.36 269.58,-244.42 269.98,-237.43"/>
</a>
</g>
</g>
<!-- Node17 -->
<g id="Node000017" class="node">
<title>Node17</title>
<g id="a_Node000017"><a xlink:href="ComponentService_8h.html" target="_top" xlink:title=" ">
<polygon fill="white" stroke="#666666" points="676.94,-244.5 515.94,-244.5 515.94,-225.5 676.94,-225.5 676.94,-244.5"/>
<text text-anchor="middle" x="596.44" y="-232.5" font-family="Helvetica,sans-Serif" font-size="10.00">services/ComponentService.h</text>
</a>
</g>
</g>
<!-- Node1&#45;&gt;Node17 -->
<g id="edge29_Node000001_Node000017" class="edge">
<title>Node1&#45;&gt;Node17</title>
<g id="a_edge29_Node000001_Node000017"><a xlink:title=" ">
<path fill="none" stroke="#63b8ff" d="M1223.41,-292.6C1089.88,-280.54 826.46,-256.76 687.38,-244.21"/>
<polygon fill="#63b8ff" stroke="#63b8ff" points="687.45,-240.7 677.18,-243.29 686.82,-247.67 687.45,-240.7"/>
</a>
</g>
</g>
<!-- Node23 -->
<g id="Node000023" class="node">
<title>Node23</title>
<g id="a_Node000023"><a xlink:title=" ">
<polygon fill="#e0e0e0" stroke="#999999" points="1206.44,-129 1136.44,-129 1136.44,-110 1206.44,-110 1206.44,-129"/>
<text text-anchor="middle" x="1171.44" y="-117" font-family="Helvetica,sans-Serif" font-size="10.00">QStringList</text>
</a>
</g>
</g>
<!-- Node1&#45;&gt;Node23 -->
<g id="edge54_Node000001_Node000023" class="edge">
<title>Node1&#45;&gt;Node23</title>
<g id="a_edge54_Node000001_Node000023"><a xlink:title=" ">
<path fill="none" stroke="#63b8ff" d="M1282.39,-285.85C1268.97,-276.8 1252.39,-264.13 1240.44,-250 1210.78,-214.96 1188.69,-165.1 1178.21,-138.63"/>
<polygon fill="#63b8ff" stroke="#63b8ff" points="1181.4,-137.2 1174.54,-129.12 1174.87,-139.71 1181.4,-137.2"/>
</a>
</g>
</g>
<!-- Node26 -->
<g id="Node000026" class="node">
<title>Node26</title>
<g id="a_Node000026"><a xlink:title=" ">
<polygon fill="#e0e0e0" stroke="#999999" points="1361.44,-244.5 1249.44,-244.5 1249.44,-225.5 1361.44,-225.5 1361.44,-244.5"/>
<text text-anchor="middle" x="1305.44" y="-232.5" font-family="Helvetica,sans-Serif" font-size="10.00">QAbstractListModel</text>
</a>
</g>
</g>
<!-- Node1&#45;&gt;Node26 -->
<g id="edge51_Node000001_Node000026" class="edge">
<title>Node1&#45;&gt;Node26</title>
<g id="a_edge51_Node000001_Node000026"><a xlink:title=" ">
<path fill="none" stroke="#63b8ff" d="M1305.44,-285.8C1305.44,-276.7 1305.44,-264.79 1305.44,-254.9"/>
<polygon fill="#63b8ff" stroke="#63b8ff" points="1308.94,-254.84 1305.44,-244.84 1301.94,-254.84 1308.94,-254.84"/>
</a>
</g>
</g>
<!-- Node27 -->
<g id="Node000027" class="node">
<title>Node27</title>
<g id="a_Node000027"><a xlink:title=" ">
<polygon fill="#e0e0e0" stroke="#999999" points="1438.94,-244.5 1379.94,-244.5 1379.94,-225.5 1438.94,-225.5 1438.94,-244.5"/>
<text text-anchor="middle" x="1409.44" y="-232.5" font-family="Helvetica,sans-Serif" font-size="10.00">QPointer</text>
</a>
</g>
</g>
<!-- Node1&#45;&gt;Node27 -->
<g id="edge52_Node000001_Node000027" class="edge">
<title>Node1&#45;&gt;Node27</title>
<g id="a_edge52_Node000001_Node000027"><a xlink:title=" ">
<path fill="none" stroke="#63b8ff" d="M1328.26,-285.95C1345.61,-275.27 1369.38,-260.65 1386.71,-249.98"/>
<polygon fill="#63b8ff" stroke="#63b8ff" points="1388.91,-252.74 1395.6,-244.52 1385.24,-246.78 1388.91,-252.74"/>
</a>
</g>
</g>
<!-- Node28 -->
<g id="Node000028" class="node">
<title>Node28</title>
<g id="a_Node000028"><a xlink:title=" ">
<polygon fill="#e0e0e0" stroke="#999999" points="1497.44,-244.5 1457.44,-244.5 1457.44,-225.5 1497.44,-225.5 1497.44,-244.5"/>
<text text-anchor="middle" x="1477.44" y="-232.5" font-family="Helvetica,sans-Serif" font-size="10.00">QSet</text>
</a>
</g>
</g>
<!-- Node1&#45;&gt;Node28 -->
<g id="edge53_Node000001_Node000028" class="edge">
<title>Node1&#45;&gt;Node28</title>
<g id="a_edge53_Node000001_Node000028"><a xlink:title=" ">
<path fill="none" stroke="#63b8ff" d="M1349.73,-285.95C1378.23,-276.57 1415.88,-263.5 1448.44,-250 1449.29,-249.64 1450.16,-249.28 1451.04,-248.9"/>
<polygon fill="#63b8ff" stroke="#63b8ff" points="1452.77,-251.96 1460.41,-244.62 1449.86,-245.59 1452.77,-251.96"/>
</a>
</g>
</g>
<!-- Node29 -->
<g id="Node000029" class="node">
<title>Node29</title>
<g id="a_Node000029"><a xlink:title=" ">
<polygon fill="#e0e0e0" stroke="#999999" points="1568.94,-244.5 1515.94,-244.5 1515.94,-225.5 1568.94,-225.5 1568.94,-244.5"/>
<text text-anchor="middle" x="1542.44" y="-232.5" font-family="Helvetica,sans-Serif" font-size="10.00">QTimer</text>
</a>
</g>
</g>
<!-- Node1&#45;&gt;Node29 -->
<g id="edge55_Node000001_Node000029" class="edge">
<title>Node1&#45;&gt;Node29</title>
<g id="a_edge55_Node000001_Node000029"><a xlink:title=" ">
<path fill="none" stroke="#63b8ff" d="M1370.74,-285.97C1410.35,-276.91 1461.71,-264.2 1506.44,-250 1508.31,-249.41 1510.22,-248.77 1512.14,-248.1"/>
<polygon fill="#63b8ff" stroke="#63b8ff" points="1513.48,-251.33 1521.66,-244.6 1511.06,-244.76 1513.48,-251.33"/>
</a>
</g>
</g>
<!-- Node3 -->
<g id="Node000003" class="node">
<title>Node3</title>
<g id="a_Node000003"><a xlink:href="ComponentData_8h.html" target="_top" xlink:title=" ">
<polygon fill="white" stroke="#666666" points="303.94,-184 198.94,-184 198.94,-165 303.94,-165 303.94,-184"/>
<text text-anchor="middle" x="251.44" y="-172" font-family="Helvetica,sans-Serif" font-size="10.00">ComponentData.h</text>
</a>
</g>
</g>
<!-- Node2&#45;&gt;Node3 -->
<g id="edge2_Node000002_Node000003" class="edge">
<title>Node2&#45;&gt;Node3</title>
<g id="a_edge2_Node000002_Node000003"><a xlink:title=" ">
<path fill="none" stroke="#63b8ff" d="M199.9,-219.84C210.07,-211.09 223.13,-199.85 233.55,-190.88"/>
<polygon fill="#63b8ff" stroke="#63b8ff" points="235.95,-193.44 241.25,-184.27 231.38,-188.13 235.95,-193.44"/>
</a>
</g>
</g>
<!-- Node8 -->
<g id="Node000008" class="node">
<title>Node8</title>
<g id="a_Node000008"><a xlink:title=" ">
<polygon fill="#e0e0e0" stroke="#999999" points="531.94,-19 478.94,-19 478.94,0 531.94,0 531.94,-19"/>
<text text-anchor="middle" x="505.44" y="-7" font-family="Helvetica,sans-Serif" font-size="10.00">QString</text>
</a>
</g>
</g>
<!-- Node2&#45;&gt;Node8 -->
<g id="edge28_Node000002_Node000008" class="edge">
<title>Node2&#45;&gt;Node8</title>
<g id="a_edge28_Node000002_Node000008"><a xlink:title=" ">
<path fill="none" stroke="#63b8ff" d="M125.8,-219.95C64.49,-201.81 -20.06,-165.79 8.44,-110 27.4,-72.87 45.5,-69.92 84.44,-55 154.34,-28.22 379.59,-15.88 468.68,-11.96"/>
<polygon fill="#63b8ff" stroke="#63b8ff" points="469.01,-15.45 478.85,-11.52 468.71,-8.45 469.01,-15.45"/>
</a>
</g>
</g>
<!-- Node14 -->
<g id="Node000014" class="node">
<title>Node14</title>
<g id="a_Node000014"><a xlink:title=" ">
<polygon fill="#e0e0e0" stroke="#999999" points="109.44,-129 17.44,-129 17.44,-110 109.44,-110 109.44,-129"/>
<text text-anchor="middle" x="63.44" y="-117" font-family="Helvetica,sans-Serif" font-size="10.00">QSharedPointer</text>
</a>
</g>
</g>
<!-- Node2&#45;&gt;Node14 -->
<g id="edge27_Node000002_Node000014" class="edge">
<title>Node2&#45;&gt;Node14</title>
<g id="a_edge27_Node000002_Node000014"><a xlink:title=" ">
<path fill="none" stroke="#63b8ff" d="M130.76,-219.98C111.37,-212.33 90.89,-200.86 77.44,-184 67.42,-171.45 64.21,-153.26 63.34,-139.55"/>
<polygon fill="#63b8ff" stroke="#63b8ff" points="66.83,-139.22 63.06,-129.32 59.83,-139.42 66.83,-139.22"/>
</a>
</g>
</g>
<!-- Node15 -->
<g id="Node000015" class="node">
<title>Node15</title>
<g id="a_Node000015"><a xlink:title=" ">
<polygon fill="#e0e0e0" stroke="#999999" points="141.94,-184 86.94,-184 86.94,-165 141.94,-165 141.94,-184"/>
<text text-anchor="middle" x="114.44" y="-172" font-family="Helvetica,sans-Serif" font-size="10.00">QImage</text>
</a>
</g>
</g>
<!-- Node2&#45;&gt;Node15 -->
<g id="edge25_Node000002_Node000015" class="edge">
<title>Node2&#45;&gt;Node15</title>
<g id="a_edge25_Node000002_Node000015"><a xlink:title=" ">
<path fill="none" stroke="#63b8ff" d="M166.73,-219.84C156.41,-211.09 143.16,-199.85 132.58,-190.88"/>
<polygon fill="#63b8ff" stroke="#63b8ff" points="134.67,-188.06 124.77,-184.27 130.14,-193.4 134.67,-188.06"/>
</a>
</g>
</g>
<!-- Node16 -->
<g id="Node000016" class="node">
<title>Node16</title>
<g id="a_Node000016"><a xlink:title=" ">
<polygon fill="#e0e0e0" stroke="#999999" points="549.44,-129 493.44,-129 493.44,-110 549.44,-110 549.44,-129"/>
<text text-anchor="middle" x="521.44" y="-117" font-family="Helvetica,sans-Serif" font-size="10.00">QObject</text>
</a>
</g>
</g>
<!-- Node2&#45;&gt;Node16 -->
<g id="edge26_Node000002_Node000016" class="edge">
<title>Node2&#45;&gt;Node16</title>
<g id="a_edge26_Node000002_Node000016"><a xlink:title=" ">
<path fill="none" stroke="#63b8ff" d="M225.22,-219.97C292.31,-197.44 422.89,-153.59 485.83,-132.46"/>
<polygon fill="#63b8ff" stroke="#63b8ff" points="487.33,-135.65 495.69,-129.14 485.1,-129.01 487.33,-135.65"/>
</a>
</g>
</g>
<!-- Node4 -->
<g id="Node000004" class="node">
<title>Node4</title>
<g id="a_Node000004"><a xlink:href="FootprintData_8h.html" target="_top" xlink:title=" ">
<polygon fill="white" stroke="#666666" points="399.44,-129 307.44,-129 307.44,-110 399.44,-110 399.44,-129"/>
<text text-anchor="middle" x="353.44" y="-117" font-family="Helvetica,sans-Serif" font-size="10.00">FootprintData.h</text>
</a>
</g>
</g>
<!-- Node3&#45;&gt;Node4 -->
<g id="edge3_Node000003_Node000004" class="edge">
<title>Node3&#45;&gt;Node4</title>
<g id="a_edge3_Node000003_Node000004"><a xlink:title=" ">
<path fill="none" stroke="#63b8ff" d="M267.82,-164.98C284.01,-156.57 309.01,-143.59 327.82,-133.81"/>
<polygon fill="#63b8ff" stroke="#63b8ff" points="329.49,-136.89 336.75,-129.17 326.26,-130.68 329.49,-136.89"/>
</a>
</g>
</g>
<!-- Node5 -->
<g id="Node000005" class="node">
<title>Node5</title>
<g id="a_Node000005"><a xlink:href="Model3DData_8h.html" target="_top" xlink:title=" ">
<polygon fill="white" stroke="#666666" points="629.44,-74 537.44,-74 537.44,-55 629.44,-55 629.44,-74"/>
<text text-anchor="middle" x="583.44" y="-62" font-family="Helvetica,sans-Serif" font-size="10.00">Model3DData.h</text>
</a>
</g>
</g>
<!-- Node3&#45;&gt;Node5 -->
<g id="edge13_Node000003_Node000005" class="edge">
<title>Node3&#45;&gt;Node5</title>
<g id="a_edge13_Node000003_Node000005"><a xlink:title=" ">
<path fill="none" stroke="#63b8ff" d="M298.98,-164.98C337.84,-157.39 393.92,-145.02 441.44,-129 444.35,-128.02 514.82,-96.37 555.37,-78.13"/>
<polygon fill="#63b8ff" stroke="#63b8ff" points="556.81,-81.32 564.5,-74.02 553.94,-74.94 556.81,-81.32"/>
</a>
</g>
</g>
<!-- Node7 -->
<g id="Node000007" class="node">
<title>Node7</title>
<g id="a_Node000007"><a xlink:title=" ">
<polygon fill="#e0e0e0" stroke="#999999" points="103.44,-19 27.44,-19 27.44,0 103.44,0 103.44,-19"/>
<text text-anchor="middle" x="65.44" y="-7" font-family="Helvetica,sans-Serif" font-size="10.00">QJsonObject</text>
</a>
</g>
</g>
<!-- Node3&#45;&gt;Node7 -->
<g id="edge22_Node000003_Node000007" class="edge">
<title>Node3&#45;&gt;Node7</title>
<g id="a_edge22_Node000003_Node000007"><a xlink:title=" ">
<path fill="none" stroke="#63b8ff" d="M233.5,-164.93C189.55,-143.74 79.32,-89.53 69.44,-74 61,-60.75 60.7,-42.63 62.1,-29.14"/>
<polygon fill="#63b8ff" stroke="#63b8ff" points="65.59,-29.49 63.54,-19.1 58.66,-28.5 65.59,-29.49"/>
</a>
</g>
</g>
<!-- Node3&#45;&gt;Node8 -->
<g id="edge24_Node000003_Node000008" class="edge">
<title>Node3&#45;&gt;Node8</title>
<g id="a_edge24_Node000003_Node000008"><a xlink:title=" ">
<path fill="none" stroke="#63b8ff" d="M301.99,-164.98C333.86,-158.23 375.12,-146.9 408.44,-129 441.47,-111.25 449.14,-103.4 472.44,-74 483.39,-60.17 492.35,-42.14 498.15,-28.83"/>
<polygon fill="#63b8ff" stroke="#63b8ff" points="501.49,-29.91 502.11,-19.33 495.03,-27.22 501.49,-29.91"/>
</a>
</g>
</g>
<!-- Node9 -->
<g id="Node000009" class="node">
<title>Node9</title>
<g id="a_Node000009"><a xlink:title=" ">
<polygon fill="#e0e0e0" stroke="#999999" points="272.94,-74 201.94,-74 201.94,-55 272.94,-55 272.94,-74"/>
<text text-anchor="middle" x="237.44" y="-62" font-family="Helvetica,sans-Serif" font-size="10.00">QJsonArray</text>
</a>
</g>
</g>
<!-- Node3&#45;&gt;Node9 -->
<g id="edge21_Node000003_Node000009" class="edge">
<title>Node3&#45;&gt;Node9</title>
<g id="a_edge21_Node000003_Node000009"><a xlink:title=" ">
<path fill="none" stroke="#63b8ff" d="M233.08,-164.88C219.64,-157.46 202.42,-145.36 194.44,-129 185.77,-111.23 201.62,-92.71 216.47,-80.29"/>
<polygon fill="#63b8ff" stroke="#63b8ff" points="218.72,-82.97 224.45,-74.06 214.42,-77.45 218.72,-82.97"/>
</a>
</g>
</g>
<!-- Node12 -->
<g id="Node000012" class="node">
<title>Node12</title>
<g id="a_Node000012"><a xlink:href="SymbolData_8h.html" target="_top" xlink:title=" ">
<polygon fill="white" stroke="#666666" points="289.44,-129 203.44,-129 203.44,-110 289.44,-110 289.44,-129"/>
<text text-anchor="middle" x="246.44" y="-117" font-family="Helvetica,sans-Serif" font-size="10.00">SymbolData.h</text>
</a>
</g>
</g>
<!-- Node3&#45;&gt;Node12 -->
<g id="edge14_Node000003_Node000012" class="edge">
<title>Node3&#45;&gt;Node12</title>
<g id="a_edge14_Node000003_Node000012"><a xlink:title=" ">
<path fill="none" stroke="#63b8ff" d="M250.61,-164.75C249.95,-157.8 249.02,-147.85 248.19,-139.13"/>
<polygon fill="#63b8ff" stroke="#63b8ff" points="251.67,-138.72 247.25,-129.09 244.7,-139.37 251.67,-138.72"/>
</a>
</g>
</g>
<!-- Node3&#45;&gt;Node14 -->
<g id="edge23_Node000003_Node000014" class="edge">
<title>Node3&#45;&gt;Node14</title>
<g id="a_edge23_Node000003_Node000014"><a xlink:title=" ">
<path fill="none" stroke="#63b8ff" d="M221.23,-164.98C189.39,-156.01 139.07,-141.82 103.84,-131.89"/>
<polygon fill="#63b8ff" stroke="#63b8ff" points="104.45,-128.43 93.88,-129.08 102.55,-135.16 104.45,-128.43"/>
</a>
</g>
</g>
<!-- Node4&#45;&gt;Node5 -->
<g id="edge4_Node000004_Node000005" class="edge">
<title>Node4&#45;&gt;Node5</title>
<g id="a_edge4_Node000004_Node000005"><a xlink:title=" ">
<path fill="none" stroke="#63b8ff" d="M390.39,-109.98C430.01,-100.86 493.02,-86.33 536.21,-76.38"/>
<polygon fill="#63b8ff" stroke="#63b8ff" points="537.23,-79.74 546.19,-74.08 535.66,-72.92 537.23,-79.74"/>
</a>
</g>
</g>
<!-- Node4&#45;&gt;Node7 -->
<g id="edge9_Node000004_Node000007" class="edge">
<title>Node4&#45;&gt;Node7</title>
<g id="a_edge9_Node000004_Node000007"><a xlink:title=" ">
<path fill="none" stroke="#63b8ff" d="M372.12,-109.85C395.7,-97.79 431.17,-75.15 413.44,-55 393.94,-32.85 204.56,-18.74 113.66,-13.18"/>
<polygon fill="#63b8ff" stroke="#63b8ff" points="113.79,-9.69 103.6,-12.58 113.37,-16.67 113.79,-9.69"/>
</a>
</g>
</g>
<!-- Node4&#45;&gt;Node8 -->
<g id="edge12_Node000004_Node000008" class="edge">
<title>Node4&#45;&gt;Node8</title>
<g id="a_edge12_Node000004_Node000008"><a xlink:title=" ">
<path fill="none" stroke="#63b8ff" d="M378.03,-109.9C397.88,-102.27 425.94,-89.88 447.44,-74 465.36,-60.75 482.11,-41.36 492.95,-27.49"/>
<polygon fill="#63b8ff" stroke="#63b8ff" points="495.91,-29.38 499.18,-19.3 490.34,-25.15 495.91,-29.38"/>
</a>
</g>
</g>
<!-- Node4&#45;&gt;Node9 -->
<g id="edge8_Node000004_Node000009" class="edge">
<title>Node4&#45;&gt;Node9</title>
<g id="a_edge8_Node000004_Node000009"><a xlink:title=" ">
<path fill="none" stroke="#63b8ff" d="M334.8,-109.98C316.14,-101.46 287.18,-88.23 265.7,-78.41"/>
<polygon fill="#63b8ff" stroke="#63b8ff" points="266.96,-75.14 256.41,-74.17 264.05,-81.51 266.96,-75.14"/>
</a>
</g>
</g>
<!-- Node10 -->
<g id="Node000010" class="node">
<title>Node10</title>
<g id="a_Node000010"><a xlink:title=" ">
<polygon fill="#e0e0e0" stroke="#999999" points="331.94,-74 290.94,-74 290.94,-55 331.94,-55 331.94,-74"/>
<text text-anchor="middle" x="311.44" y="-62" font-family="Helvetica,sans-Serif" font-size="10.00">QList</text>
</a>
</g>
</g>
<!-- Node4&#45;&gt;Node10 -->
<g id="edge10_Node000004_Node000010" class="edge">
<title>Node4&#45;&gt;Node10</title>
<g id="a_edge10_Node000004_Node000010"><a xlink:title=" ">
<path fill="none" stroke="#63b8ff" d="M346.5,-109.75C340.57,-102.26 331.86,-91.28 324.61,-82.13"/>
<polygon fill="#63b8ff" stroke="#63b8ff" points="327.2,-79.75 318.24,-74.09 321.71,-84.1 327.2,-79.75"/>
</a>
</g>
</g>
<!-- Node11 -->
<g id="Node000011" class="node">
<title>Node11</title>
<g id="a_Node000011"><a xlink:title=" ">
<polygon fill="#e0e0e0" stroke="#999999" points="404.94,-74 349.94,-74 349.94,-55 404.94,-55 404.94,-74"/>
<text text-anchor="middle" x="377.44" y="-62" font-family="Helvetica,sans-Serif" font-size="10.00">QPointF</text>
</a>
</g>
</g>
<!-- Node4&#45;&gt;Node11 -->
<g id="edge11_Node000004_Node000011" class="edge">
<title>Node4&#45;&gt;Node11</title>
<g id="a_edge11_Node000004_Node000011"><a xlink:title=" ">
<path fill="none" stroke="#63b8ff" d="M357.4,-109.75C360.65,-102.57 365.36,-92.18 369.39,-83.27"/>
<polygon fill="#63b8ff" stroke="#63b8ff" points="372.61,-84.64 373.55,-74.09 366.23,-81.75 372.61,-84.64"/>
</a>
</g>
</g>
<!-- Node6 -->
<g id="Node000006" class="node">
<title>Node6</title>
<g id="a_Node000006"><a xlink:title=" ">
<polygon fill="#e0e0e0" stroke="#999999" points="622.94,-19 549.94,-19 549.94,0 622.94,0 622.94,-19"/>
<text text-anchor="middle" x="586.44" y="-7" font-family="Helvetica,sans-Serif" font-size="10.00">QByteArray</text>
</a>
</g>
</g>
<!-- Node5&#45;&gt;Node6 -->
<g id="edge5_Node000005_Node000006" class="edge">
<title>Node5&#45;&gt;Node6</title>
<g id="a_edge5_Node000005_Node000006"><a xlink:title=" ">
<path fill="none" stroke="#63b8ff" d="M583.93,-54.75C584.32,-47.8 584.89,-37.85 585.38,-29.13"/>
<polygon fill="#63b8ff" stroke="#63b8ff" points="588.88,-29.27 585.95,-19.09 581.89,-28.88 588.88,-29.27"/>
</a>
</g>
</g>
<!-- Node5&#45;&gt;Node7 -->
<g id="edge6_Node000005_Node000007" class="edge">
<title>Node5&#45;&gt;Node7</title>
<g id="a_edge6_Node000005_Node000007"><a xlink:title=" ">
<path fill="none" stroke="#63b8ff" d="M537.01,-58.75C439.28,-48.75 213.15,-25.61 113.77,-15.45"/>
<polygon fill="#63b8ff" stroke="#63b8ff" points="114.01,-11.95 103.7,-14.42 113.3,-18.92 114.01,-11.95"/>
</a>
</g>
</g>
<!-- Node5&#45;&gt;Node8 -->
<g id="edge7_Node000005_Node000008" class="edge">
<title>Node5&#45;&gt;Node8</title>
<g id="a_edge7_Node000005_Node000008"><a xlink:title=" ">
<path fill="none" stroke="#63b8ff" d="M570.9,-54.98C559.03,-46.92 540.97,-34.65 526.82,-25.03"/>
<polygon fill="#63b8ff" stroke="#63b8ff" points="528.43,-21.9 518.2,-19.17 524.5,-27.69 528.43,-21.9"/>
</a>
</g>
</g>
<!-- Node12&#45;&gt;Node7 -->
<g id="edge16_Node000012_Node000007" class="edge">
<title>Node12&#45;&gt;Node7</title>
<g id="a_edge16_Node000012_Node000007"><a xlink:title=" ">
<path fill="none" stroke="#63b8ff" d="M203.29,-117.75C166.97,-114.8 116.03,-104.89 84.44,-74 72.49,-62.32 67.98,-43.46 66.32,-29.33"/>
<polygon fill="#63b8ff" stroke="#63b8ff" points="69.8,-28.92 65.51,-19.23 62.82,-29.48 69.8,-28.92"/>
</a>
</g>
</g>
<!-- Node12&#45;&gt;Node8 -->
<g id="edge20_Node000012_Node000008" class="edge">
<title>Node12&#45;&gt;Node8</title>
<g id="a_edge20_Node000012_Node000008"><a xlink:title=" ">
<path fill="none" stroke="#63b8ff" d="M229.75,-109.83C208.25,-97.55 175.55,-74.45 192.44,-55 227.75,-14.31 393.02,-9.86 468.12,-9.99"/>
<polygon fill="#63b8ff" stroke="#63b8ff" points="468.5,-13.5 478.52,-10.04 468.54,-6.5 468.5,-13.5"/>
</a>
</g>
</g>
<!-- Node12&#45;&gt;Node9 -->
<g id="edge15_Node000012_Node000009" class="edge">
<title>Node12&#45;&gt;Node9</title>
<g id="a_edge15_Node000012_Node000009"><a xlink:title=" ">
<path fill="none" stroke="#63b8ff" d="M244.95,-109.75C243.77,-102.8 242.08,-92.85 240.6,-84.13"/>
<polygon fill="#63b8ff" stroke="#63b8ff" points="244.02,-83.36 238.89,-74.09 237.12,-84.53 244.02,-83.36"/>
</a>
</g>
</g>
<!-- Node12&#45;&gt;Node10 -->
<g id="edge17_Node000012_Node000010" class="edge">
<title>Node12&#45;&gt;Node10</title>
<g id="a_edge17_Node000012_Node000010"><a xlink:title=" ">
<path fill="none" stroke="#63b8ff" d="M256.88,-109.98C266.58,-102.07 281.25,-90.11 292.94,-80.58"/>
<polygon fill="#63b8ff" stroke="#63b8ff" points="295.26,-83.2 300.8,-74.17 290.84,-77.78 295.26,-83.2"/>
</a>
</g>
</g>
<!-- Node12&#45;&gt;Node11 -->
<g id="edge18_Node000012_Node000011" class="edge">
<title>Node12&#45;&gt;Node11</title>
<g id="a_edge18_Node000012_Node000011"><a xlink:title=" ">
<path fill="none" stroke="#63b8ff" d="M267.48,-109.98C288.84,-101.34 322.14,-87.87 346.5,-78.02"/>
<polygon fill="#63b8ff" stroke="#63b8ff" points="348.05,-81.17 356.01,-74.17 345.42,-74.68 348.05,-81.17"/>
</a>
</g>
</g>
<!-- Node13 -->
<g id="Node000013" class="node">
<title>Node13</title>
<g id="a_Node000013"><a xlink:title=" ">
<polygon fill="#e0e0e0" stroke="#999999" points="145.44,-74 93.44,-74 93.44,-55 145.44,-55 145.44,-74"/>
<text text-anchor="middle" x="119.44" y="-62" font-family="Helvetica,sans-Serif" font-size="10.00">QRectF</text>
</a>
</g>
</g>
<!-- Node12&#45;&gt;Node13 -->
<g id="edge19_Node000012_Node000013" class="edge">
<title>Node12&#45;&gt;Node13</title>
<g id="a_edge19_Node000012_Node000013"><a xlink:title=" ">
<path fill="none" stroke="#63b8ff" d="M226.03,-109.98C205.42,-101.38 173.33,-87.99 149.74,-78.15"/>
<polygon fill="#63b8ff" stroke="#63b8ff" points="150.79,-74.79 140.21,-74.17 148.09,-81.25 150.79,-74.79"/>
</a>
</g>
</g>
<!-- Node17&#45;&gt;Node3 -->
<g id="edge39_Node000017_Node000003" class="edge">
<title>Node17&#45;&gt;Node3</title>
<g id="a_edge39_Node000017_Node000003"><a xlink:title=" ">
<path fill="none" stroke="#63b8ff" d="M546.27,-225.49C484.05,-214.94 378.1,-196.98 311.58,-185.7"/>
<polygon fill="#63b8ff" stroke="#63b8ff" points="312.11,-182.24 301.66,-184.02 310.94,-189.14 312.11,-182.24"/>
</a>
</g>
</g>
<!-- Node17&#45;&gt;Node4 -->
<g id="edge40_Node000017_Node000004" class="edge">
<title>Node17&#45;&gt;Node4</title>
<g id="a_edge40_Node000017_Node000004"><a xlink:title=" ">
<path fill="none" stroke="#63b8ff" d="M578.17,-225.47C535.95,-205.75 431.39,-156.91 381.19,-133.46"/>
<polygon fill="#63b8ff" stroke="#63b8ff" points="382.45,-130.19 371.91,-129.13 379.49,-136.53 382.45,-130.19"/>
</a>
</g>
</g>
<!-- Node17&#45;&gt;Node5 -->
<g id="edge41_Node000017_Node000005" class="edge">
<title>Node17&#45;&gt;Node5</title>
<g id="a_edge41_Node000017_Node000005"><a xlink:title=" ">
<path fill="none" stroke="#63b8ff" d="M595.77,-225.41C593.77,-199.39 587.72,-120.97 584.9,-84.51"/>
<polygon fill="#63b8ff" stroke="#63b8ff" points="588.37,-83.97 584.11,-74.27 581.39,-84.51 588.37,-83.97"/>
</a>
</g>
</g>
<!-- Node17&#45;&gt;Node7 -->
<g id="edge44_Node000017_Node000007" class="edge">
<title>Node17&#45;&gt;Node7</title>
<g id="a_edge44_Node000017_Node000007"><a xlink:title=" ">
<path fill="none" stroke="#63b8ff" d="M515.68,-231.91C432.39,-227.96 299.51,-216.58 189.44,-184 170.95,-178.53 168.54,-171.63 150.44,-165 89.29,-142.62 48.42,-180.38 8.44,-129 -17.12,-96.16 22.61,-50.01 47.62,-26.15"/>
<polygon fill="#63b8ff" stroke="#63b8ff" points="50.14,-28.59 55.12,-19.24 45.39,-23.44 50.14,-28.59"/>
</a>
</g>
</g>
<!-- Node17&#45;&gt;Node8 -->
<g id="edge49_Node000017_Node000008" class="edge">
<title>Node17&#45;&gt;Node8</title>
<g id="a_edge49_Node000017_Node000008"><a xlink:title=" ">
<path fill="none" stroke="#63b8ff" d="M677.17,-231.17C860.23,-223.23 1285.72,-195.43 1215.44,-110 1168.42,-52.86 632.21,-27.43 542.04,-18.44"/>
<polygon fill="#63b8ff" stroke="#63b8ff" points="542.44,-14.96 532.09,-17.23 541.59,-21.91 542.44,-14.96"/>
</a>
</g>
</g>
<!-- Node17&#45;&gt;Node12 -->
<g id="edge42_Node000017_Node000012" class="edge">
<title>Node17&#45;&gt;Node12</title>
<g id="a_edge42_Node000017_Node000012"><a xlink:title=" ">
<path fill="none" stroke="#63b8ff" d="M570.13,-225.47C508.31,-205.42 353.67,-155.27 282.86,-132.31"/>
<polygon fill="#63b8ff" stroke="#63b8ff" points="283.64,-128.89 273.05,-129.13 281.48,-135.54 283.64,-128.89"/>
</a>
</g>
</g>
<!-- Node17&#45;&gt;Node15 -->
<g id="edge43_Node000017_Node000015" class="edge">
<title>Node17&#45;&gt;Node15</title>
<g id="a_edge43_Node000017_Node000015"><a xlink:title=" ">
<path fill="none" stroke="#63b8ff" d="M515.86,-226.95C427.42,-218.73 281.36,-203.7 156.44,-184 154.97,-183.77 153.47,-183.52 151.96,-183.26"/>
<polygon fill="#63b8ff" stroke="#63b8ff" points="152.4,-179.78 141.94,-181.42 151.14,-186.67 152.4,-179.78"/>
</a>
</g>
</g>
<!-- Node17&#45;&gt;Node16 -->
<g id="edge46_Node000017_Node000016" class="edge">
<title>Node17&#45;&gt;Node16</title>
<g id="a_edge46_Node000017_Node000016"><a xlink:title=" ">
<path fill="none" stroke="#63b8ff" d="M590.8,-225.47C578.47,-206.82 548.93,-162.11 532.66,-137.49"/>
<polygon fill="#63b8ff" stroke="#63b8ff" points="535.57,-135.54 527.14,-129.13 529.73,-139.4 535.57,-135.54"/>
</a>
</g>
</g>
<!-- Node18 -->
<g id="Node000018" class="node">
<title>Node18</title>
<g id="a_Node000018"><a xlink:href="LcscImageService_8h.html" target="_top" xlink:title=" ">
<polygon fill="white" stroke="#666666" points="763.94,-184 650.94,-184 650.94,-165 763.94,-165 763.94,-184"/>
<text text-anchor="middle" x="707.44" y="-172" font-family="Helvetica,sans-Serif" font-size="10.00">LcscImageService.h</text>
</a>
</g>
</g>
<!-- Node17&#45;&gt;Node18 -->
<g id="edge30_Node000017_Node000018" class="edge">
<title>Node17&#45;&gt;Node18</title>
<g id="a_edge30_Node000017_Node000018"><a xlink:title=" ">
<path fill="none" stroke="#63b8ff" d="M612.81,-225.37C631.01,-215.78 660.63,-200.17 681.88,-188.97"/>
<polygon fill="#63b8ff" stroke="#63b8ff" points="683.78,-191.93 690.99,-184.17 680.51,-185.73 683.78,-191.93"/>
</a>
</g>
</g>
<!-- Node19 -->
<g id="Node000019" class="node">
<title>Node19</title>
<g id="a_Node000019"><a xlink:title=" ">
<polygon fill="#e0e0e0" stroke="#999999" points="650.94,-129 605.94,-129 605.94,-110 650.94,-110 650.94,-129"/>
<text text-anchor="middle" x="628.44" y="-117" font-family="Helvetica,sans-Serif" font-size="10.00">QMap</text>
</a>
</g>
</g>
<!-- Node17&#45;&gt;Node19 -->
<g id="edge45_Node000017_Node000019" class="edge">
<title>Node17&#45;&gt;Node19</title>
<g id="a_edge45_Node000017_Node000019"><a xlink:title=" ">
<path fill="none" stroke="#63b8ff" d="M598.84,-225.47C604.01,-207.15 616.26,-163.68 623.27,-138.81"/>
<polygon fill="#63b8ff" stroke="#63b8ff" points="626.66,-139.7 626,-129.13 619.92,-137.8 626.66,-139.7"/>
</a>
</g>
</g>
<!-- Node22 -->
<g id="Node000022" class="node">
<title>Node22</title>
<g id="a_Node000022"><a xlink:title=" ">
<polygon fill="#e0e0e0" stroke="#999999" points="1118.44,-129 1062.44,-129 1062.44,-110 1118.44,-110 1118.44,-129"/>
<text text-anchor="middle" x="1090.44" y="-117" font-family="Helvetica,sans-Serif" font-size="10.00">QQueue</text>
</a>
</g>
</g>
<!-- Node17&#45;&gt;Node22 -->
<g id="edge48_Node000017_Node000022" class="edge">
<title>Node17&#45;&gt;Node22</title>
<g id="a_edge48_Node000017_Node000022"><a xlink:title=" ">
<path fill="none" stroke="#63b8ff" d="M632.16,-225.48C668.24,-216.52 725.37,-201.31 773.44,-184 793.09,-176.92 796.38,-170.87 816.44,-165 916.57,-135.66 945.72,-147.35 1048.44,-129 1049.53,-128.8 1050.65,-128.6 1051.77,-128.39"/>
<polygon fill="#63b8ff" stroke="#63b8ff" points="1052.84,-131.75 1062,-126.44 1051.52,-124.88 1052.84,-131.75"/>
</a>
</g>
</g>
<!-- Node17&#45;&gt;Node23 -->
<g id="edge50_Node000017_Node000023" class="edge">
<title>Node17&#45;&gt;Node23</title>
<g id="a_edge50_Node000017_Node000023"><a xlink:title=" ">
<path fill="none" stroke="#63b8ff" d="M644.79,-225.49C688.28,-217.16 753.57,-202.96 808.44,-184 827.42,-177.44 830.14,-170.58 849.44,-165 965.97,-131.32 1002.52,-147.89 1126.17,-129.08"/>
<polygon fill="#63b8ff" stroke="#63b8ff" points="1127.07,-132.48 1136.41,-127.47 1125.98,-125.56 1127.07,-132.48"/>
</a>
</g>
</g>
<!-- Node25 -->
<g id="Node000025" class="node">
<title>Node25</title>
<g id="a_Node000025"><a xlink:title=" ">
<polygon fill="#e0e0e0" stroke="#999999" points="900.44,-184 858.44,-184 858.44,-165 900.44,-165 900.44,-184"/>
<text text-anchor="middle" x="879.44" y="-172" font-family="Helvetica,sans-Serif" font-size="10.00">QPair</text>
</a>
</g>
</g>
<!-- Node17&#45;&gt;Node25 -->
<g id="edge47_Node000017_Node000025" class="edge">
<title>Node17&#45;&gt;Node25</title>
<g id="a_edge47_Node000017_Node000025"><a xlink:title=" ">
<path fill="none" stroke="#63b8ff" d="M641.35,-225.5C691.11,-215.94 773.69,-199.72 844.44,-184 845.71,-183.72 847,-183.43 848.31,-183.13"/>
<polygon fill="#63b8ff" stroke="#63b8ff" points="849.44,-186.46 858.37,-180.76 847.83,-179.64 849.44,-186.46"/>
</a>
</g>
</g>
<!-- Node18&#45;&gt;Node8 -->
<g id="edge36_Node000018_Node000008" class="edge">
<title>Node18&#45;&gt;Node8</title>
<g id="a_edge36_Node000018_Node000008"><a xlink:title=" ">
<path fill="none" stroke="#63b8ff" d="M764.05,-165.55C852.72,-153.08 1014.41,-130.19 1015.44,-129 1020.96,-122.62 1020.81,-116.51 1015.44,-110 949.05,-29.66 663.17,-40.72 542.28,-18.93"/>
<polygon fill="#63b8ff" stroke="#63b8ff" points="542.63,-15.43 532.14,-16.94 541.28,-22.3 542.63,-15.43"/>
</a>
</g>
</g>
<!-- Node18&#45;&gt;Node16 -->
<g id="edge34_Node000018_Node000016" class="edge">
<title>Node18&#45;&gt;Node16</title>
<g id="a_edge34_Node000018_Node000016"><a xlink:title=" ">
<path fill="none" stroke="#63b8ff" d="M677.55,-164.98C645.49,-155.85 594.49,-141.32 559.56,-131.36"/>
<polygon fill="#63b8ff" stroke="#63b8ff" points="560.3,-127.93 549.72,-128.56 558.38,-134.67 560.3,-127.93"/>
</a>
</g>
</g>
<!-- Node18&#45;&gt;Node19 -->
<g id="edge31_Node000018_Node000019" class="edge">
<title>Node18&#45;&gt;Node19</title>
<g id="a_edge31_Node000018_Node000019"><a xlink:title=" ">
<path fill="none" stroke="#63b8ff" d="M694.74,-164.98C682.61,-156.84 664.08,-144.41 649.69,-134.76"/>
<polygon fill="#63b8ff" stroke="#63b8ff" points="651.61,-131.84 641.36,-129.17 647.71,-137.65 651.61,-131.84"/>
</a>
</g>
</g>
<!-- Node20 -->
<g id="Node000020" class="node">
<title>Node20</title>
<g id="a_Node000020"><a xlink:title=" ">
<polygon fill="#e0e0e0" stroke="#999999" points="894.44,-129 752.44,-129 752.44,-110 894.44,-110 894.44,-129"/>
<text text-anchor="middle" x="823.44" y="-117" font-family="Helvetica,sans-Serif" font-size="10.00">QNetworkAccessManager</text>
</a>
</g>
</g>
<!-- Node18&#45;&gt;Node20 -->
<g id="edge32_Node000018_Node000020" class="edge">
<title>Node18&#45;&gt;Node20</title>
<g id="a_edge32_Node000018_Node000020"><a xlink:title=" ">
<path fill="none" stroke="#63b8ff" d="M726.07,-164.98C744.73,-156.46 773.69,-143.23 795.18,-133.41"/>
<polygon fill="#63b8ff" stroke="#63b8ff" points="796.82,-136.51 804.46,-129.17 793.91,-130.14 796.82,-136.51"/>
</a>
</g>
</g>
<!-- Node21 -->
<g id="Node000021" class="node">
<title>Node21</title>
<g id="a_Node000021"><a xlink:title=" ">
<polygon fill="#e0e0e0" stroke="#999999" points="1005.94,-129 912.94,-129 912.94,-110 1005.94,-110 1005.94,-129"/>
<text text-anchor="middle" x="959.44" y="-117" font-family="Helvetica,sans-Serif" font-size="10.00">QNetworkReply</text>
</a>
</g>
</g>
<!-- Node18&#45;&gt;Node21 -->
<g id="edge33_Node000018_Node000021" class="edge">
<title>Node18&#45;&gt;Node21</title>
<g id="a_edge33_Node000018_Node000021"><a xlink:title=" ">
<path fill="none" stroke="#63b8ff" d="M747.92,-164.98C791.61,-155.8 861.25,-141.15 908.59,-131.19"/>
<polygon fill="#63b8ff" stroke="#63b8ff" points="909.56,-134.57 918.63,-129.08 908.12,-127.72 909.56,-134.57"/>
</a>
</g>
</g>
<!-- Node18&#45;&gt;Node22 -->
<g id="edge35_Node000018_Node000022" class="edge">
<title>Node18&#45;&gt;Node22</title>
<g id="a_edge35_Node000018_Node000022"><a xlink:title=" ">
<path fill="none" stroke="#63b8ff" d="M764.03,-166.6C846.33,-156.49 995.06,-137.87 1048.44,-129 1049.54,-128.82 1050.65,-128.63 1051.78,-128.43"/>
<polygon fill="#63b8ff" stroke="#63b8ff" points="1052.82,-131.8 1062.02,-126.53 1051.55,-124.91 1052.82,-131.8"/>
</a>
</g>
</g>
<!-- Node18&#45;&gt;Node23 -->
<g id="edge37_Node000018_Node000023" class="edge">
<title>Node18&#45;&gt;Node23</title>
<g id="a_edge37_Node000018_Node000023"><a xlink:title=" ">
<path fill="none" stroke="#63b8ff" d="M764.01,-169.05C842.89,-162.5 990.55,-149.01 1126.25,-129.05"/>
<polygon fill="#63b8ff" stroke="#63b8ff" points="1127.04,-132.48 1136.42,-127.54 1126.01,-125.55 1127.04,-132.48"/>
</a>
</g>
</g>
<!-- Node24 -->
<g id="Node000024" class="node">
<title>Node24</title>
<g id="a_Node000024"><a xlink:title=" ">
<polygon fill="#e0e0e0" stroke="#999999" points="733.94,-129 668.94,-129 668.94,-110 733.94,-110 733.94,-129"/>
<text text-anchor="middle" x="701.44" y="-117" font-family="Helvetica,sans-Serif" font-size="10.00">functional</text>
</a>
</g>
</g>
<!-- Node18&#45;&gt;Node24 -->
<g id="edge38_Node000018_Node000024" class="edge">
<title>Node18&#45;&gt;Node24</title>
<g id="a_edge38_Node000018_Node000024"><a xlink:title=" ">
<path fill="none" stroke="#63b8ff" d="M706.44,-164.75C705.66,-157.8 704.53,-147.85 703.55,-139.13"/>
<polygon fill="#63b8ff" stroke="#63b8ff" points="707.01,-138.63 702.41,-129.09 700.06,-139.42 707.01,-138.63"/>
</a>
</g>
</g>
</g>
</svg>
