<?xml version="1.0" encoding="UTF-8" standalone="no"?>
<!DOCTYPE svg PUBLIC "-//W3C//DTD SVG 1.1//EN"
 "http://www.w3.org/Graphics/SVG/1.1/DTD/svg11.dtd">
<!-- Generated by graphviz version 2.43.0 (0)
 -->
<!-- Title: ui/viewmodels/ComponentListViewModel.h Pages: 1 -->
<svg width="1471pt" height="324pt"
 viewBox="0.00 0.00 1470.85 324.00" xmlns="http://www.w3.org/2000/svg" xmlns:xlink="http://www.w3.org/1999/xlink">
<g id="graph0" class="graph" transform="scale(1 1) rotate(0) translate(4 320)">
<title>ui/viewmodels/ComponentListViewModel.h</title>
<!-- Node1 -->
<g id="Node000001" class="node">
<title>Node1</title>
<g id="a_Node000001"><a xlink:title=" ">
<polygon fill="#999999" stroke="#666666" points="1281.35,-316 1117.35,-316 1117.35,-286 1281.35,-286 1281.35,-316"/>
<text text-anchor="start" x="1125.35" y="-304" font-family="Helvetica,sans-Serif" font-size="10.00">ui/viewmodels/ComponentList</text>
<text text-anchor="middle" x="1199.35" y="-293" font-family="Helvetica,sans-Serif" font-size="10.00">ViewModel.h</text>
</a>
</g>
</g>
<!-- Node2 -->
<g id="Node000002" class="node">
<title>Node2</title>
<g id="a_Node000002"><a xlink:href="ComponentListItemData_8h.html" target="_top" xlink:title=" ">
<polygon fill="white" stroke="#666666" points="302.35,-250 150.35,-250 150.35,-220 302.35,-220 302.35,-250"/>
<text text-anchor="start" x="158.35" y="-238" font-family="Helvetica,sans-Serif" font-size="10.00">models/ComponentListItem</text>
<text text-anchor="middle" x="226.35" y="-227" font-family="Helvetica,sans-Serif" font-size="10.00">Data.h</text>
</a>
</g>
</g>
<!-- Node1&#45;&gt;Node2 -->
<g id="edge1_Node000001_Node000002" class="edge">
<title>Node1&#45;&gt;Node2</title>
<g id="a_edge1_Node000001_Node000002"><a xlink:title=" ">
<path fill="none" stroke="#63b8ff" d="M1117.23,-294.6C935.03,-282.61 498.4,-253.89 312.5,-241.67"/>
<polygon fill="#63b8ff" stroke="#63b8ff" points="312.71,-238.17 302.5,-241.01 312.25,-245.16 312.71,-238.17"/>
</a>
</g>
</g>
<!-- Node17 -->
<g id="Node000017" class="node">
<title>Node17</title>
<g id="a_Node000017"><a xlink:href="ComponentService_8h.html" target="_top" xlink:title=" ">
<polygon fill="white" stroke="#666666" points="862.85,-244.5 701.85,-244.5 701.85,-225.5 862.85,-225.5 862.85,-244.5"/>
<text text-anchor="middle" x="782.35" y="-232.5" font-family="Helvetica,sans-Serif" font-size="10.00">services/ComponentService.h</text>
</a>
</g>
</g>
<!-- Node1&#45;&gt;Node17 -->
<g id="edge29_Node000001_Node000017" class="edge">
<title>Node1&#45;&gt;Node17</title>
<g id="a_edge29_Node000001_Node000017"><a xlink:title=" ">
<path fill="none" stroke="#63b8ff" d="M1116.96,-287.36C1038.07,-275.25 920.6,-257.22 847.88,-246.06"/>
<polygon fill="#63b8ff" stroke="#63b8ff" points="848.34,-242.59 837.92,-244.53 847.28,-249.51 848.34,-242.59"/>
</a>
</g>
</g>
<!-- Node23 -->
<g id="Node000023" class="node">
<title>Node23</title>
<g id="a_Node000023"><a xlink:title=" ">
<polygon fill="#e0e0e0" stroke="#999999" points="1313.35,-129 1243.35,-129 1243.35,-110 1313.35,-110 1313.35,-129"/>
<text text-anchor="middle" x="1278.35" y="-117" font-family="Helvetica,sans-Serif" font-size="10.00">QStringList</text>
</a>
</g>
</g>
<!-- Node1&#45;&gt;Node23 -->
<g id="edge55_Node000001_Node000023" class="edge">
<title>Node1&#45;&gt;Node23</title>
<g id="a_edge55_Node000001_Node000023"><a xlink:title=" ">
<path fill="none" stroke="#63b8ff" d="M1170.53,-285.84C1156.89,-277.47 1141.96,-265.45 1134.35,-250 1128.46,-238.04 1128.15,-231.81 1134.35,-220 1157.44,-175.97 1209.84,-147.58 1244.65,-132.82"/>
<polygon fill="#63b8ff" stroke="#63b8ff" points="1246.02,-136.04 1253.96,-129.02 1243.38,-129.56 1246.02,-136.04"/>
</a>
</g>
</g>
<!-- Node27 -->
<g id="Node000027" class="node">
<title>Node27</title>
<g id="a_Node000027"><a xlink:title=" ">
<polygon fill="#e0e0e0" stroke="#999999" points="1255.35,-244.5 1143.35,-244.5 1143.35,-225.5 1255.35,-225.5 1255.35,-244.5"/>
<text text-anchor="middle" x="1199.35" y="-232.5" font-family="Helvetica,sans-Serif" font-size="10.00">QAbstractListModel</text>
</a>
</g>
</g>
<!-- Node1&#45;&gt;Node27 -->
<g id="edge52_Node000001_Node000027" class="edge">
<title>Node1&#45;&gt;Node27</title>
<g id="a_edge52_Node000001_Node000027"><a xlink:title=" ">
<path fill="none" stroke="#63b8ff" d="M1199.35,-285.8C1199.35,-276.7 1199.35,-264.79 1199.35,-254.9"/>
<polygon fill="#63b8ff" stroke="#63b8ff" points="1202.85,-254.84 1199.35,-244.84 1195.85,-254.84 1202.85,-254.84"/>
</a>
</g>
</g>
<!-- Node28 -->
<g id="Node000028" class="node">
<title>Node28</title>
<g id="a_Node000028"><a xlink:title=" ">
<polygon fill="#e0e0e0" stroke="#999999" points="1332.85,-244.5 1273.85,-244.5 1273.85,-225.5 1332.85,-225.5 1332.85,-244.5"/>
<text text-anchor="middle" x="1303.35" y="-232.5" font-family="Helvetica,sans-Serif" font-size="10.00">QPointer</text>
</a>
</g>
</g>
<!-- Node1&#45;&gt;Node28 -->
<g id="edge53_Node000001_Node000028" class="edge">
<title>Node1&#45;&gt;Node28</title>
<g id="a_edge53_Node000001_Node000028"><a xlink:title=" ">
<path fill="none" stroke="#63b8ff" d="M1222.17,-285.95C1239.52,-275.27 1263.29,-260.65 1280.62,-249.98"/>
<polygon fill="#63b8ff" stroke="#63b8ff" points="1282.82,-252.74 1289.51,-244.52 1279.15,-246.78 1282.82,-252.74"/>
</a>
</g>
</g>
<!-- Node29 -->
<g id="Node000029" class="node">
<title>Node29</title>
<g id="a_Node000029"><a xlink:title=" ">
<polygon fill="#e0e0e0" stroke="#999999" points="1391.35,-244.5 1351.35,-244.5 1351.35,-225.5 1391.35,-225.5 1391.35,-244.5"/>
<text text-anchor="middle" x="1371.35" y="-232.5" font-family="Helvetica,sans-Serif" font-size="10.00">QSet</text>
</a>
</g>
</g>
<!-- Node1&#45;&gt;Node29 -->
<g id="edge54_Node000001_Node000029" class="edge">
<title>Node1&#45;&gt;Node29</title>
<g id="a_edge54_Node000001_Node000029"><a xlink:title=" ">
<path fill="none" stroke="#63b8ff" d="M1243.64,-285.95C1272.14,-276.57 1309.79,-263.5 1342.35,-250 1343.2,-249.64 1344.07,-249.28 1344.95,-248.9"/>
<polygon fill="#63b8ff" stroke="#63b8ff" points="1346.68,-251.96 1354.32,-244.62 1343.77,-245.59 1346.68,-251.96"/>
</a>
</g>
</g>
<!-- Node30 -->
<g id="Node000030" class="node">
<title>Node30</title>
<g id="a_Node000030"><a xlink:title=" ">
<polygon fill="#e0e0e0" stroke="#999999" points="1462.85,-244.5 1409.85,-244.5 1409.85,-225.5 1462.85,-225.5 1462.85,-244.5"/>
<text text-anchor="middle" x="1436.35" y="-232.5" font-family="Helvetica,sans-Serif" font-size="10.00">QTimer</text>
</a>
</g>
</g>
<!-- Node1&#45;&gt;Node30 -->
<g id="edge56_Node000001_Node000030" class="edge">
<title>Node1&#45;&gt;Node30</title>
<g id="a_edge56_Node000001_Node000030"><a xlink:title=" ">
<path fill="none" stroke="#63b8ff" d="M1264.65,-285.97C1304.26,-276.91 1355.62,-264.2 1400.35,-250 1402.22,-249.41 1404.13,-248.77 1406.05,-248.1"/>
<polygon fill="#63b8ff" stroke="#63b8ff" points="1407.39,-251.33 1415.57,-244.6 1404.97,-244.76 1407.39,-251.33"/>
</a>
</g>
</g>
<!-- Node3 -->
<g id="Node000003" class="node">
<title>Node3</title>
<g id="a_Node000003"><a xlink:href="ComponentData_8h.html" target="_top" xlink:title=" ">
<polygon fill="white" stroke="#666666" points="409.85,-184 304.85,-184 304.85,-165 409.85,-165 409.85,-184"/>
<text text-anchor="middle" x="357.35" y="-172" font-family="Helvetica,sans-Serif" font-size="10.00">ComponentData.h</text>
</a>
</g>
</g>
<!-- Node2&#45;&gt;Node3 -->
<g id="edge2_Node000002_Node000003" class="edge">
<title>Node2&#45;&gt;Node3</title>
<g id="a_edge2_Node000002_Node000003"><a xlink:title=" ">
<path fill="none" stroke="#63b8ff" d="M257.72,-219.99C279.29,-210.36 307.7,-197.67 328.66,-188.31"/>
<polygon fill="#63b8ff" stroke="#63b8ff" points="330.3,-191.41 338,-184.14 327.44,-185.02 330.3,-191.41"/>
</a>
</g>
</g>
<!-- Node8 -->
<g id="Node000008" class="node">
<title>Node8</title>
<g id="a_Node000008"><a xlink:title=" ">
<polygon fill="#e0e0e0" stroke="#999999" points="713.85,-19 660.85,-19 660.85,0 713.85,0 713.85,-19"/>
<text text-anchor="middle" x="687.35" y="-7" font-family="Helvetica,sans-Serif" font-size="10.00">QString</text>
</a>
</g>
</g>
<!-- Node2&#45;&gt;Node8 -->
<g id="edge28_Node000002_Node000008" class="edge">
<title>Node2&#45;&gt;Node8</title>
<g id="a_edge28_Node000002_Node000008"><a xlink:title=" ">
<path fill="none" stroke="#63b8ff" d="M150.04,-221.96C107.71,-213.55 61.09,-200.82 48.35,-184 2.72,-123.79 -66.73,-160.34 152.35,-55 240.56,-12.58 544.16,-9.81 650.33,-10.19"/>
<polygon fill="#63b8ff" stroke="#63b8ff" points="650.54,-13.69 660.55,-10.23 650.57,-6.69 650.54,-13.69"/>
</a>
</g>
</g>
<!-- Node14 -->
<g id="Node000014" class="node">
<title>Node14</title>
<g id="a_Node000014"><a xlink:title=" ">
<polygon fill="#e0e0e0" stroke="#999999" points="253.35,-129 161.35,-129 161.35,-110 253.35,-110 253.35,-129"/>
<text text-anchor="middle" x="207.35" y="-117" font-family="Helvetica,sans-Serif" font-size="10.00">QSharedPointer</text>
</a>
</g>
</g>
<!-- Node2&#45;&gt;Node14 -->
<g id="edge27_Node000002_Node000014" class="edge">
<title>Node2&#45;&gt;Node14</title>
<g id="a_edge27_Node000002_Node000014"><a xlink:title=" ">
<path fill="none" stroke="#63b8ff" d="M150.16,-220.51C111.33,-211.92 69.9,-199.49 58.35,-184 31.03,-147.36 98.45,-131.65 151.33,-125.06"/>
<polygon fill="#63b8ff" stroke="#63b8ff" points="151.81,-128.53 161.34,-123.9 151.01,-121.58 151.81,-128.53"/>
</a>
</g>
</g>
<!-- Node15 -->
<g id="Node000015" class="node">
<title>Node15</title>
<g id="a_Node000015"><a xlink:title=" ">
<polygon fill="#e0e0e0" stroke="#999999" points="122.85,-184 67.85,-184 67.85,-165 122.85,-165 122.85,-184"/>
<text text-anchor="middle" x="95.35" y="-172" font-family="Helvetica,sans-Serif" font-size="10.00">QImage</text>
</a>
</g>
</g>
<!-- Node2&#45;&gt;Node15 -->
<g id="edge25_Node000002_Node000015" class="edge">
<title>Node2&#45;&gt;Node15</title>
<g id="a_edge25_Node000002_Node000015"><a xlink:title=" ">
<path fill="none" stroke="#63b8ff" d="M194.97,-219.99C173.4,-210.36 145,-197.67 124.03,-188.31"/>
<polygon fill="#63b8ff" stroke="#63b8ff" points="125.25,-185.02 114.69,-184.14 122.4,-191.41 125.25,-185.02"/>
</a>
</g>
</g>
<!-- Node16 -->
<g id="Node000016" class="node">
<title>Node16</title>
<g id="a_Node000016"><a xlink:title=" ">
<polygon fill="#e0e0e0" stroke="#999999" points="693.35,-129 637.35,-129 637.35,-110 693.35,-110 693.35,-129"/>
<text text-anchor="middle" x="665.35" y="-117" font-family="Helvetica,sans-Serif" font-size="10.00">QObject</text>
</a>
</g>
</g>
<!-- Node2&#45;&gt;Node16 -->
<g id="edge26_Node000002_Node000016" class="edge">
<title>Node2&#45;&gt;Node16</title>
<g id="a_edge26_Node000002_Node000016"><a xlink:title=" ">
<path fill="none" stroke="#63b8ff" d="M280.62,-219.97C370.85,-196.64 549.51,-150.45 627.47,-130.29"/>
<polygon fill="#63b8ff" stroke="#63b8ff" points="628.54,-133.63 637.35,-127.74 626.79,-126.85 628.54,-133.63"/>
</a>
</g>
</g>
<!-- Node4 -->
<g id="Node000004" class="node">
<title>Node4</title>
<g id="a_Node000004"><a xlink:href="FootprintData_8h.html" target="_top" xlink:title=" ">
<polygon fill="white" stroke="#666666" points="477.35,-129 385.35,-129 385.35,-110 477.35,-110 477.35,-129"/>
<text text-anchor="middle" x="431.35" y="-117" font-family="Helvetica,sans-Serif" font-size="10.00">FootprintData.h</text>
</a>
</g>
</g>
<!-- Node3&#45;&gt;Node4 -->
<g id="edge3_Node000003_Node000004" class="edge">
<title>Node3&#45;&gt;Node4</title>
<g id="a_edge3_Node000003_Node000004"><a xlink:title=" ">
<path fill="none" stroke="#63b8ff" d="M369.24,-164.98C380.5,-156.92 397.63,-144.65 411.06,-135.03"/>
<polygon fill="#63b8ff" stroke="#63b8ff" points="413.15,-137.84 419.24,-129.17 409.07,-132.15 413.15,-137.84"/>
</a>
</g>
</g>
<!-- Node5 -->
<g id="Node000005" class="node">
<title>Node5</title>
<g id="a_Node000005"><a xlink:href="Model3DData_8h.html" target="_top" xlink:title=" ">
<polygon fill="white" stroke="#666666" points="253.35,-74 161.35,-74 161.35,-55 253.35,-55 253.35,-74"/>
<text text-anchor="middle" x="207.35" y="-62" font-family="Helvetica,sans-Serif" font-size="10.00">Model3DData.h</text>
</a>
</g>
</g>
<!-- Node3&#45;&gt;Node5 -->
<g id="edge13_Node000003_Node000005" class="edge">
<title>Node3&#45;&gt;Node5</title>
<g id="a_edge13_Node000003_Node000005"><a xlink:title=" ">
<path fill="none" stroke="#63b8ff" d="M350.47,-164.81C339.76,-151.68 317.96,-126.58 295.35,-110 277.76,-97.1 255.88,-86.02 238.34,-78.14"/>
<polygon fill="#63b8ff" stroke="#63b8ff" points="239.66,-74.9 229.09,-74.1 236.86,-81.31 239.66,-74.9"/>
</a>
</g>
</g>
<!-- Node7 -->
<g id="Node000007" class="node">
<title>Node7</title>
<g id="a_Node000007"><a xlink:title=" ">
<polygon fill="#e0e0e0" stroke="#999999" points="208.35,-19 132.35,-19 132.35,0 208.35,0 208.35,-19"/>
<text text-anchor="middle" x="170.35" y="-7" font-family="Helvetica,sans-Serif" font-size="10.00">QJsonObject</text>
</a>
</g>
</g>
<!-- Node3&#45;&gt;Node7 -->
<g id="edge22_Node000003_Node000007" class="edge">
<title>Node3&#45;&gt;Node7</title>
<g id="a_edge22_Node000003_Node000007"><a xlink:title=" ">
<path fill="none" stroke="#63b8ff" d="M345.38,-164.9C323.88,-149.56 279.38,-118.29 262.35,-110 216.09,-87.5 182.54,-115.65 152.35,-74 142.4,-60.28 149.95,-41.22 158.1,-27.57"/>
<polygon fill="#63b8ff" stroke="#63b8ff" points="161.09,-29.4 163.64,-19.12 155.23,-25.57 161.09,-29.4"/>
</a>
</g>
</g>
<!-- Node3&#45;&gt;Node8 -->
<g id="edge24_Node000003_Node000008" class="edge">
<title>Node3&#45;&gt;Node8</title>
<g id="a_edge24_Node000003_Node000008"><a xlink:title=" ">
<path fill="none" stroke="#63b8ff" d="M410.02,-165.49C468.22,-156.28 557.97,-140.9 590.35,-129 596.16,-126.86 684.23,-79.35 687.35,-74 695.24,-60.46 694.36,-42.37 692.02,-28.96"/>
<polygon fill="#63b8ff" stroke="#63b8ff" points="695.41,-28.04 689.88,-19 688.56,-29.52 695.41,-28.04"/>
</a>
</g>
</g>
<!-- Node9 -->
<g id="Node000009" class="node">
<title>Node9</title>
<g id="a_Node000009"><a xlink:title=" ">
<polygon fill="#e0e0e0" stroke="#999999" points="418.85,-74 347.85,-74 347.85,-55 418.85,-55 418.85,-74"/>
<text text-anchor="middle" x="383.35" y="-62" font-family="Helvetica,sans-Serif" font-size="10.00">QJsonArray</text>
</a>
</g>
</g>
<!-- Node3&#45;&gt;Node9 -->
<g id="edge21_Node000003_Node000009" class="edge">
<title>Node3&#45;&gt;Node9</title>
<g id="a_edge21_Node000003_Node000009"><a xlink:title=" ">
<path fill="none" stroke="#63b8ff" d="M359.47,-164.66C363.7,-147.09 373.25,-107.45 378.9,-83.95"/>
<polygon fill="#63b8ff" stroke="#63b8ff" points="382.32,-84.7 381.26,-74.16 375.52,-83.06 382.32,-84.7"/>
</a>
</g>
</g>
<!-- Node12 -->
<g id="Node000012" class="node">
<title>Node12</title>
<g id="a_Node000012"><a xlink:href="SymbolData_8h.html" target="_top" xlink:title=" ">
<polygon fill="white" stroke="#666666" points="581.35,-129 495.35,-129 495.35,-110 581.35,-110 581.35,-129"/>
<text text-anchor="middle" x="538.35" y="-117" font-family="Helvetica,sans-Serif" font-size="10.00">SymbolData.h</text>
</a>
</g>
</g>
<!-- Node3&#45;&gt;Node12 -->
<g id="edge14_Node000003_Node000012" class="edge">
<title>Node3&#45;&gt;Node12</title>
<g id="a_edge14_Node000003_Node000012"><a xlink:title=" ">
<path fill="none" stroke="#63b8ff" d="M386.43,-164.98C416.95,-156.05 465.11,-141.94 499.01,-132.02"/>
<polygon fill="#63b8ff" stroke="#63b8ff" points="500.42,-135.25 509.04,-129.08 498.46,-128.53 500.42,-135.25"/>
</a>
</g>
</g>
<!-- Node3&#45;&gt;Node14 -->
<g id="edge23_Node000003_Node000014" class="edge">
<title>Node3&#45;&gt;Node14</title>
<g id="a_edge23_Node000003_Node000014"><a xlink:title=" ">
<path fill="none" stroke="#63b8ff" d="M333.25,-164.98C308.46,-156.23 269.64,-142.51 241.66,-132.62"/>
<polygon fill="#63b8ff" stroke="#63b8ff" points="242.48,-129.2 231.88,-129.17 240.15,-135.8 242.48,-129.2"/>
</a>
</g>
</g>
<!-- Node4&#45;&gt;Node5 -->
<g id="edge4_Node000004_Node000005" class="edge">
<title>Node4&#45;&gt;Node5</title>
<g id="a_edge4_Node000004_Node000005"><a xlink:title=" ">
<path fill="none" stroke="#63b8ff" d="M395.36,-109.98C356.85,-100.87 295.66,-86.4 253.61,-76.45"/>
<polygon fill="#63b8ff" stroke="#63b8ff" points="254.15,-72.98 243.62,-74.08 252.54,-79.79 254.15,-72.98"/>
</a>
</g>
</g>
<!-- Node4&#45;&gt;Node7 -->
<g id="edge9_Node000004_Node000007" class="edge">
<title>Node4&#45;&gt;Node7</title>
<g id="a_edge9_Node000004_Node000007"><a xlink:title=" ">
<path fill="none" stroke="#63b8ff" d="M410.43,-109.84C364.31,-90.76 253.74,-45.01 200.29,-22.89"/>
<polygon fill="#63b8ff" stroke="#63b8ff" points="201.58,-19.64 191,-19.05 198.9,-26.1 201.58,-19.64"/>
</a>
</g>
</g>
<!-- Node4&#45;&gt;Node8 -->
<g id="edge12_Node000004_Node000008" class="edge">
<title>Node4&#45;&gt;Node8</title>
<g id="a_edge12_Node000004_Node000008"><a xlink:title=" ">
<path fill="none" stroke="#63b8ff" d="M398.88,-109.92C364.43,-99.29 317.74,-79.55 339.35,-55 359.73,-31.85 565.71,-17.47 650.84,-12.48"/>
<polygon fill="#63b8ff" stroke="#63b8ff" points="651.05,-15.98 660.84,-11.91 650.65,-8.99 651.05,-15.98"/>
</a>
</g>
</g>
<!-- Node4&#45;&gt;Node9 -->
<g id="edge8_Node000004_Node000009" class="edge">
<title>Node4&#45;&gt;Node9</title>
<g id="a_edge8_Node000004_Node000009"><a xlink:title=" ">
<path fill="none" stroke="#63b8ff" d="M423.42,-109.75C416.5,-102.11 406.28,-90.82 397.89,-81.56"/>
<polygon fill="#63b8ff" stroke="#63b8ff" points="400.43,-79.15 391.12,-74.09 395.24,-83.85 400.43,-79.15"/>
</a>
</g>
</g>
<!-- Node10 -->
<g id="Node000010" class="node">
<title>Node10</title>
<g id="a_Node000010"><a xlink:title=" ">
<polygon fill="#e0e0e0" stroke="#999999" points="550.85,-74 509.85,-74 509.85,-55 550.85,-55 550.85,-74"/>
<text text-anchor="middle" x="530.35" y="-62" font-family="Helvetica,sans-Serif" font-size="10.00">QList</text>
</a>
</g>
</g>
<!-- Node4&#45;&gt;Node10 -->
<g id="edge10_Node000004_Node000010" class="edge">
<title>Node4&#45;&gt;Node10</title>
<g id="a_edge10_Node000004_Node000010"><a xlink:title=" ">
<path fill="none" stroke="#63b8ff" d="M447.25,-109.98C462.89,-101.61 487,-88.7 505.23,-78.95"/>
<polygon fill="#63b8ff" stroke="#63b8ff" points="506.99,-81.98 514.15,-74.17 503.68,-75.8 506.99,-81.98"/>
</a>
</g>
</g>
<!-- Node11 -->
<g id="Node000011" class="node">
<title>Node11</title>
<g id="a_Node000011"><a xlink:title=" ">
<polygon fill="#e0e0e0" stroke="#999999" points="491.85,-74 436.85,-74 436.85,-55 491.85,-55 491.85,-74"/>
<text text-anchor="middle" x="464.35" y="-62" font-family="Helvetica,sans-Serif" font-size="10.00">QPointF</text>
</a>
</g>
</g>
<!-- Node4&#45;&gt;Node11 -->
<g id="edge11_Node000004_Node000011" class="edge">
<title>Node4&#45;&gt;Node11</title>
<g id="a_edge11_Node000004_Node000011"><a xlink:title=" ">
<path fill="none" stroke="#63b8ff" d="M436.8,-109.75C441.36,-102.42 448.01,-91.73 453.64,-82.7"/>
<polygon fill="#63b8ff" stroke="#63b8ff" points="456.68,-84.43 459,-74.09 450.74,-80.73 456.68,-84.43"/>
</a>
</g>
</g>
<!-- Node6 -->
<g id="Node000006" class="node">
<title>Node6</title>
<g id="a_Node000006"><a xlink:title=" ">
<polygon fill="#e0e0e0" stroke="#999999" points="299.85,-19 226.85,-19 226.85,0 299.85,0 299.85,-19"/>
<text text-anchor="middle" x="263.35" y="-7" font-family="Helvetica,sans-Serif" font-size="10.00">QByteArray</text>
</a>
</g>
</g>
<!-- Node5&#45;&gt;Node6 -->
<g id="edge5_Node000005_Node000006" class="edge">
<title>Node5&#45;&gt;Node6</title>
<g id="a_edge5_Node000005_Node000006"><a xlink:title=" ">
<path fill="none" stroke="#63b8ff" d="M216.34,-54.98C224.54,-47.23 236.85,-35.58 246.82,-26.14"/>
<polygon fill="#63b8ff" stroke="#63b8ff" points="249.33,-28.59 254.19,-19.17 244.52,-23.5 249.33,-28.59"/>
</a>
</g>
</g>
<!-- Node5&#45;&gt;Node7 -->
<g id="edge6_Node000005_Node000007" class="edge">
<title>Node5&#45;&gt;Node7</title>
<g id="a_edge6_Node000005_Node000007"><a xlink:title=" ">
<path fill="none" stroke="#63b8ff" d="M201.24,-54.75C196.06,-47.34 188.5,-36.5 182.15,-27.41"/>
<polygon fill="#63b8ff" stroke="#63b8ff" points="184.94,-25.29 176.34,-19.09 179.2,-29.29 184.94,-25.29"/>
</a>
</g>
</g>
<!-- Node5&#45;&gt;Node8 -->
<g id="edge7_Node000005_Node000008" class="edge">
<title>Node5&#45;&gt;Node8</title>
<g id="a_edge7_Node000005_Node000008"><a xlink:title=" ">
<path fill="none" stroke="#63b8ff" d="M253.37,-58.42C348.31,-47.93 564.23,-24.09 650.62,-14.56"/>
<polygon fill="#63b8ff" stroke="#63b8ff" points="651.18,-18.01 660.73,-13.44 650.41,-11.06 651.18,-18.01"/>
</a>
</g>
</g>
<!-- Node12&#45;&gt;Node7 -->
<g id="edge16_Node000012_Node000007" class="edge">
<title>Node12&#45;&gt;Node7</title>
<g id="a_edge16_Node000012_Node000007"><a xlink:title=" ">
<path fill="none" stroke="#63b8ff" d="M546.36,-109.61C557.44,-96.22 574.55,-70.78 560.35,-55 511.11,-0.31 309.76,-27.46 218.59,-18.7"/>
<polygon fill="#63b8ff" stroke="#63b8ff" points="218.9,-15.21 208.56,-17.52 218.08,-22.16 218.9,-15.21"/>
</a>
</g>
</g>
<!-- Node12&#45;&gt;Node8 -->
<g id="edge20_Node000012_Node000008" class="edge">
<title>Node12&#45;&gt;Node8</title>
<g id="a_edge20_Node000012_Node000008"><a xlink:title=" ">
<path fill="none" stroke="#63b8ff" d="M574.85,-109.98C608.53,-101.44 655.24,-87.63 668.35,-74 679.93,-61.96 684.48,-43.15 686.26,-29.12"/>
<polygon fill="#63b8ff" stroke="#63b8ff" points="689.75,-29.4 687.17,-19.12 682.78,-28.76 689.75,-29.4"/>
</a>
</g>
</g>
<!-- Node12&#45;&gt;Node9 -->
<g id="edge15_Node000012_Node000009" class="edge">
<title>Node12&#45;&gt;Node9</title>
<g id="a_edge15_Node000012_Node000009"><a xlink:title=" ">
<path fill="none" stroke="#63b8ff" d="M513.44,-109.98C487.65,-101.16 447.13,-87.31 418.16,-77.41"/>
<polygon fill="#63b8ff" stroke="#63b8ff" points="419.04,-74.01 408.44,-74.08 416.77,-80.63 419.04,-74.01"/>
</a>
</g>
</g>
<!-- Node12&#45;&gt;Node10 -->
<g id="edge17_Node000012_Node000010" class="edge">
<title>Node12&#45;&gt;Node10</title>
<g id="a_edge17_Node000012_Node000010"><a xlink:title=" ">
<path fill="none" stroke="#63b8ff" d="M537.03,-109.75C535.98,-102.8 534.47,-92.85 533.16,-84.13"/>
<polygon fill="#63b8ff" stroke="#63b8ff" points="536.6,-83.45 531.64,-74.09 529.67,-84.5 536.6,-83.45"/>
</a>
</g>
</g>
<!-- Node12&#45;&gt;Node11 -->
<g id="edge18_Node000012_Node000011" class="edge">
<title>Node12&#45;&gt;Node11</title>
<g id="a_edge18_Node000012_Node000011"><a xlink:title=" ">
<path fill="none" stroke="#63b8ff" d="M526.46,-109.98C515.2,-101.92 498.06,-89.65 484.64,-80.03"/>
<polygon fill="#63b8ff" stroke="#63b8ff" points="486.62,-77.15 476.45,-74.17 482.54,-82.84 486.62,-77.15"/>
</a>
</g>
</g>
<!-- Node13 -->
<g id="Node000013" class="node">
<title>Node13</title>
<g id="a_Node000013"><a xlink:title=" ">
<polygon fill="#e0e0e0" stroke="#999999" points="659.35,-74 607.35,-74 607.35,-55 659.35,-55 659.35,-74"/>
<text text-anchor="middle" x="633.35" y="-62" font-family="Helvetica,sans-Serif" font-size="10.00">QRectF</text>
</a>
</g>
</g>
<!-- Node12&#45;&gt;Node13 -->
<g id="edge19_Node000012_Node000013" class="edge">
<title>Node12&#45;&gt;Node13</title>
<g id="a_edge19_Node000012_Node000013"><a xlink:title=" ">
<path fill="none" stroke="#63b8ff" d="M553.61,-109.98C568.48,-101.69 591.33,-88.94 608.76,-79.22"/>
<polygon fill="#63b8ff" stroke="#63b8ff" points="610.78,-82.1 617.81,-74.17 607.37,-75.99 610.78,-82.1"/>
</a>
</g>
</g>
<!-- Node17&#45;&gt;Node3 -->
<g id="edge39_Node000017_Node000003" class="edge">
<title>Node17&#45;&gt;Node3</title>
<g id="a_edge39_Node000017_Node000003"><a xlink:title=" ">
<path fill="none" stroke="#63b8ff" d="M720.55,-225.49C640.29,-214.45 500.96,-195.27 420.2,-184.15"/>
<polygon fill="#63b8ff" stroke="#63b8ff" points="420.55,-180.67 410.16,-182.77 419.59,-187.6 420.55,-180.67"/>
</a>
</g>
</g>
<!-- Node17&#45;&gt;Node4 -->
<g id="edge40_Node000017_Node000004" class="edge">
<title>Node17&#45;&gt;Node4</title>
<g id="a_edge40_Node000017_Node000004"><a xlink:title=" ">
<path fill="none" stroke="#63b8ff" d="M755.96,-225.47C693.97,-205.42 538.88,-155.27 467.88,-132.31"/>
<polygon fill="#63b8ff" stroke="#63b8ff" points="468.63,-128.88 458.03,-129.13 466.47,-135.54 468.63,-128.88"/>
</a>
</g>
</g>
<!-- Node17&#45;&gt;Node5 -->
<g id="edge41_Node000017_Node000005" class="edge">
<title>Node17&#45;&gt;Node5</title>
<g id="a_edge41_Node000017_Node000005"><a xlink:title=" ">
<path fill="none" stroke="#63b8ff" d="M701.63,-234.11C545.82,-232.3 213.54,-217.88 152.35,-129 139.72,-110.67 161.7,-91.62 181.51,-79.23"/>
<polygon fill="#63b8ff" stroke="#63b8ff" points="183.49,-82.13 190.33,-74.03 179.93,-76.1 183.49,-82.13"/>
</a>
</g>
</g>
<!-- Node17&#45;&gt;Node7 -->
<g id="edge44_Node000017_Node000007" class="edge">
<title>Node17&#45;&gt;Node7</title>
<g id="a_edge44_Node000017_Node000007"><a xlink:title=" ">
<path fill="none" stroke="#63b8ff" d="M701.75,-233.83C563.42,-232.43 287.29,-224.46 200.35,-184 169,-169.41 158.87,-160.82 145.35,-129 132.48,-98.73 135.75,-86.75 144.35,-55 147,-45.19 152.42,-35.33 157.62,-27.39"/>
<polygon fill="#63b8ff" stroke="#63b8ff" points="160.58,-29.27 163.46,-19.07 154.85,-25.25 160.58,-29.27"/>
</a>
</g>
</g>
<!-- Node17&#45;&gt;Node8 -->
<g id="edge50_Node000017_Node000008" class="edge">
<title>Node17&#45;&gt;Node8</title>
<g id="a_edge50_Node000017_Node000008"><a xlink:title=" ">
<path fill="none" stroke="#63b8ff" d="M863.1,-228.89C1028.27,-216.88 1384.17,-182.27 1322.35,-110 1244.19,-18.65 847.75,-10.59 724.18,-10.32"/>
<polygon fill="#63b8ff" stroke="#63b8ff" points="724.09,-6.82 714.08,-10.32 724.08,-13.82 724.09,-6.82"/>
</a>
</g>
</g>
<!-- Node17&#45;&gt;Node12 -->
<g id="edge42_Node000017_Node000012" class="edge">
<title>Node17&#45;&gt;Node12</title>
<g id="a_edge42_Node000017_Node000012"><a xlink:title=" ">
<path fill="none" stroke="#63b8ff" d="M764.01,-225.47C721.61,-205.75 616.62,-156.91 566.22,-133.46"/>
<polygon fill="#63b8ff" stroke="#63b8ff" points="567.44,-130.17 556.9,-129.13 564.49,-136.52 567.44,-130.17"/>
</a>
</g>
</g>
<!-- Node17&#45;&gt;Node15 -->
<g id="edge43_Node000017_Node000015" class="edge">
<title>Node17&#45;&gt;Node15</title>
<g id="a_edge43_Node000017_Node000015"><a xlink:title=" ">
<path fill="none" stroke="#63b8ff" d="M701.81,-230.92C579.4,-225.53 339.38,-212.17 137.35,-184 136.06,-183.82 134.76,-183.63 133.44,-183.42"/>
<polygon fill="#63b8ff" stroke="#63b8ff" points="133.73,-179.92 123.28,-181.65 132.53,-186.81 133.73,-179.92"/>
</a>
</g>
</g>
<!-- Node17&#45;&gt;Node16 -->
<g id="edge47_Node000017_Node000016" class="edge">
<title>Node17&#45;&gt;Node16</title>
<g id="a_edge47_Node000017_Node000016"><a xlink:title=" ">
<path fill="none" stroke="#63b8ff" d="M769.44,-225.4C755.8,-216.01 734,-200.16 717.35,-184 702.39,-169.49 687.55,-150.83 677.58,-137.51"/>
<polygon fill="#63b8ff" stroke="#63b8ff" points="680.25,-135.23 671.51,-129.25 674.61,-139.38 680.25,-135.23"/>
</a>
</g>
</g>
<!-- Node18 -->
<g id="Node000018" class="node">
<title>Node18</title>
<g id="a_Node000018"><a xlink:href="LcscImageService_8h.html" target="_top" xlink:title=" ">
<polygon fill="white" stroke="#666666" points="838.85,-184 725.85,-184 725.85,-165 838.85,-165 838.85,-184"/>
<text text-anchor="middle" x="782.35" y="-172" font-family="Helvetica,sans-Serif" font-size="10.00">LcscImageService.h</text>
</a>
</g>
</g>
<!-- Node17&#45;&gt;Node18 -->
<g id="edge30_Node000017_Node000018" class="edge">
<title>Node17&#45;&gt;Node18</title>
<g id="a_edge30_Node000017_Node000018"><a xlink:title=" ">
<path fill="none" stroke="#63b8ff" d="M782.35,-225.37C782.35,-217.25 782.35,-204.81 782.35,-194.39"/>
<polygon fill="#63b8ff" stroke="#63b8ff" points="785.85,-194.17 782.35,-184.17 778.85,-194.17 785.85,-194.17"/>
</a>
</g>
</g>
<!-- Node19 -->
<g id="Node000019" class="node">
<title>Node19</title>
<g id="a_Node000019"><a xlink:title=" ">
<polygon fill="#e0e0e0" stroke="#999999" points="1224.85,-129 1179.85,-129 1179.85,-110 1224.85,-110 1224.85,-129"/>
<text text-anchor="middle" x="1202.35" y="-117" font-family="Helvetica,sans-Serif" font-size="10.00">QMap</text>
</a>
</g>
</g>
<!-- Node17&#45;&gt;Node19 -->
<g id="edge45_Node000017_Node000019" class="edge">
<title>Node17&#45;&gt;Node19</title>
<g id="a_edge45_Node000017_Node000019"><a xlink:title=" ">
<path fill="none" stroke="#63b8ff" d="M799.78,-225.47C835.76,-207.91 916.02,-169.03 929.35,-165 1029.98,-134.58 1062.4,-149.97 1169.76,-128.86"/>
<polygon fill="#63b8ff" stroke="#63b8ff" points="1170.59,-132.27 1179.69,-126.85 1169.2,-125.41 1170.59,-132.27"/>
</a>
</g>
</g>
<!-- Node22 -->
<g id="Node000022" class="node">
<title>Node22</title>
<g id="a_Node000022"><a xlink:title=" ">
<polygon fill="#e0e0e0" stroke="#999999" points="1161.35,-129 1105.35,-129 1105.35,-110 1161.35,-110 1161.35,-129"/>
<text text-anchor="middle" x="1133.35" y="-117" font-family="Helvetica,sans-Serif" font-size="10.00">QQueue</text>
</a>
</g>
</g>
<!-- Node17&#45;&gt;Node22 -->
<g id="edge49_Node000017_Node000022" class="edge">
<title>Node17&#45;&gt;Node22</title>
<g id="a_edge49_Node000017_Node000022"><a xlink:title=" ">
<path fill="none" stroke="#63b8ff" d="M792.72,-225.43C811.27,-210.6 851.87,-180.27 891.35,-165 974.67,-132.77 1003.7,-146.34 1095.15,-129.1"/>
<polygon fill="#63b8ff" stroke="#63b8ff" points="1095.96,-132.51 1105.1,-127.15 1094.61,-125.64 1095.96,-132.51"/>
</a>
</g>
</g>
<!-- Node17&#45;&gt;Node23 -->
<g id="edge51_Node000017_Node000023" class="edge">
<title>Node17&#45;&gt;Node23</title>
<g id="a_edge51_Node000017_Node000023"><a xlink:title=" ">
<path fill="none" stroke="#63b8ff" d="M807.94,-225.48C836,-215.97 882.25,-199.85 921.35,-184 940.33,-176.3 943.65,-170.63 963.35,-165 1077.09,-132.48 1112.56,-147.67 1233.31,-129.05"/>
<polygon fill="#63b8ff" stroke="#63b8ff" points="1233.99,-132.49 1243.31,-127.46 1232.89,-125.57 1233.99,-132.49"/>
</a>
</g>
</g>
<!-- Node25 -->
<g id="Node000025" class="node">
<title>Node25</title>
<g id="a_Node000025"><a xlink:title=" ">
<polygon fill="#e0e0e0" stroke="#999999" points="1026.85,-184 971.85,-184 971.85,-165 1026.85,-165 1026.85,-184"/>
<text text-anchor="middle" x="999.35" y="-172" font-family="Helvetica,sans-Serif" font-size="10.00">QMutex</text>
</a>
</g>
</g>
<!-- Node17&#45;&gt;Node25 -->
<g id="edge46_Node000017_Node000025" class="edge">
<title>Node17&#45;&gt;Node25</title>
<g id="a_edge46_Node000017_Node000025"><a xlink:title=" ">
<path fill="none" stroke="#63b8ff" d="M813.9,-225.49C853.1,-214.93 919.92,-196.91 961.74,-185.64"/>
<polygon fill="#63b8ff" stroke="#63b8ff" points="962.8,-188.98 971.54,-183 960.98,-182.22 962.8,-188.98"/>
</a>
</g>
</g>
<!-- Node26 -->
<g id="Node000026" class="node">
<title>Node26</title>
<g id="a_Node000026"><a xlink:title=" ">
<polygon fill="#e0e0e0" stroke="#999999" points="1087.35,-184 1045.35,-184 1045.35,-165 1087.35,-165 1087.35,-184"/>
<text text-anchor="middle" x="1066.35" y="-172" font-family="Helvetica,sans-Serif" font-size="10.00">QPair</text>
</a>
</g>
</g>
<!-- Node17&#45;&gt;Node26 -->
<g id="edge48_Node000017_Node000026" class="edge">
<title>Node17&#45;&gt;Node26</title>
<g id="a_edge48_Node000017_Node000026"><a xlink:title=" ">
<path fill="none" stroke="#63b8ff" d="M832.25,-225.42C881.55,-216.67 959.28,-202.12 1035.35,-184.09"/>
<polygon fill="#63b8ff" stroke="#63b8ff" points="1036.19,-187.48 1045.1,-181.75 1034.56,-180.68 1036.19,-187.48"/>
</a>
</g>
</g>
<!-- Node18&#45;&gt;Node8 -->
<g id="edge36_Node000018_Node000008" class="edge">
<title>Node18&#45;&gt;Node8</title>
<g id="a_edge36_Node000018_Node000008"><a xlink:title=" ">
<path fill="none" stroke="#63b8ff" d="M770.52,-164.76C760.68,-156.71 747.35,-143.79 741.35,-129 728.97,-98.52 753.51,-84.7 739.35,-55 733.43,-42.6 722.25,-32.32 711.77,-24.78"/>
<polygon fill="#63b8ff" stroke="#63b8ff" points="713.52,-21.74 703.26,-19.1 709.64,-27.56 713.52,-21.74"/>
</a>
</g>
</g>
<!-- Node18&#45;&gt;Node16 -->
<g id="edge34_Node000018_Node000016" class="edge">
<title>Node18&#45;&gt;Node16</title>
<g id="a_edge34_Node000018_Node000016"><a xlink:title=" ">
<path fill="none" stroke="#63b8ff" d="M763.55,-164.98C744.73,-156.46 715.52,-143.23 693.85,-133.41"/>
<polygon fill="#63b8ff" stroke="#63b8ff" points="695.04,-130.11 684.49,-129.17 692.15,-136.48 695.04,-130.11"/>
</a>
</g>
</g>
<!-- Node18&#45;&gt;Node19 -->
<g id="edge31_Node000018_Node000019" class="edge">
<title>Node18&#45;&gt;Node19</title>
<g id="a_edge31_Node000018_Node000019"><a xlink:title=" ">
<path fill="none" stroke="#63b8ff" d="M838.87,-168.04C926.56,-159.4 1092.44,-142.37 1169.45,-128.83"/>
<polygon fill="#63b8ff" stroke="#63b8ff" points="1170.51,-132.2 1179.71,-126.95 1169.25,-125.31 1170.51,-132.2"/>
</a>
</g>
</g>
<!-- Node20 -->
<g id="Node000020" class="node">
<title>Node20</title>
<g id="a_Node000020"><a xlink:title=" ">
<polygon fill="#e0e0e0" stroke="#999999" points="975.35,-129 833.35,-129 833.35,-110 975.35,-110 975.35,-129"/>
<text text-anchor="middle" x="904.35" y="-117" font-family="Helvetica,sans-Serif" font-size="10.00">QNetworkAccessManager</text>
</a>
</g>
</g>
<!-- Node18&#45;&gt;Node20 -->
<g id="edge32_Node000018_Node000020" class="edge">
<title>Node18&#45;&gt;Node20</title>
<g id="a_edge32_Node000018_Node000020"><a xlink:title=" ">
<path fill="none" stroke="#63b8ff" d="M801.95,-164.98C821.66,-156.42 852.3,-143.11 874.93,-133.28"/>
<polygon fill="#63b8ff" stroke="#63b8ff" points="876.61,-136.37 884.39,-129.17 873.82,-129.94 876.61,-136.37"/>
</a>
</g>
</g>
<!-- Node21 -->
<g id="Node000021" class="node">
<title>Node21</title>
<g id="a_Node000021"><a xlink:title=" ">
<polygon fill="#e0e0e0" stroke="#999999" points="1086.85,-129 993.85,-129 993.85,-110 1086.85,-110 1086.85,-129"/>
<text text-anchor="middle" x="1040.35" y="-117" font-family="Helvetica,sans-Serif" font-size="10.00">QNetworkReply</text>
</a>
</g>
</g>
<!-- Node18&#45;&gt;Node21 -->
<g id="edge33_Node000018_Node000021" class="edge">
<title>Node18&#45;&gt;Node21</title>
<g id="a_edge33_Node000018_Node000021"><a xlink:title=" ">
<path fill="none" stroke="#63b8ff" d="M823.8,-164.98C868.61,-155.78 940.12,-141.09 988.59,-131.13"/>
<polygon fill="#63b8ff" stroke="#63b8ff" points="989.48,-134.52 998.57,-129.08 988.07,-127.67 989.48,-134.52"/>
</a>
</g>
</g>
<!-- Node18&#45;&gt;Node22 -->
<g id="edge35_Node000018_Node000022" class="edge">
<title>Node18&#45;&gt;Node22</title>
<g id="a_edge35_Node000018_Node000022"><a xlink:title=" ">
<path fill="none" stroke="#63b8ff" d="M838.94,-166.07C911.36,-156.46 1033.89,-139.86 1095.13,-129.06"/>
<polygon fill="#63b8ff" stroke="#63b8ff" points="1095.9,-132.48 1105.12,-127.25 1094.65,-125.59 1095.9,-132.48"/>
</a>
</g>
</g>
<!-- Node18&#45;&gt;Node23 -->
<g id="edge37_Node000018_Node000023" class="edge">
<title>Node18&#45;&gt;Node23</title>
<g id="a_edge37_Node000018_Node000023"><a xlink:title=" ">
<path fill="none" stroke="#63b8ff" d="M838.92,-169.62C922.79,-163.5 1085.22,-150.22 1233.16,-129.04"/>
<polygon fill="#63b8ff" stroke="#63b8ff" points="1233.94,-132.46 1243.33,-127.57 1232.93,-125.54 1233.94,-132.46"/>
</a>
</g>
</g>
<!-- Node24 -->
<g id="Node000024" class="node">
<title>Node24</title>
<g id="a_Node000024"><a xlink:title=" ">
<polygon fill="#e0e0e0" stroke="#999999" points="814.85,-129 749.85,-129 749.85,-110 814.85,-110 814.85,-129"/>
<text text-anchor="middle" x="782.35" y="-117" font-family="Helvetica,sans-Serif" font-size="10.00">functional</text>
</a>
</g>
</g>
<!-- Node18&#45;&gt;Node24 -->
<g id="edge38_Node000018_Node000024" class="edge">
<title>Node18&#45;&gt;Node24</title>
<g id="a_edge38_Node000018_Node000024"><a xlink:title=" ">
<path fill="none" stroke="#63b8ff" d="M782.35,-164.75C782.35,-157.8 782.35,-147.85 782.35,-139.13"/>
<polygon fill="#63b8ff" stroke="#63b8ff" points="785.85,-139.09 782.35,-129.09 778.85,-139.09 785.85,-139.09"/>
</a>
</g>
</g>
</g>
</svg>
