<?xml version="1.0" encoding="UTF-8" standalone="no"?>
<!DOCTYPE svg PUBLIC "-//W3C//DTD SVG 1.1//EN"
 "http://www.w3.org/Graphics/SVG/1.1/DTD/svg11.dtd">
<!-- Generated by graphviz version 2.43.0 (0)
 -->
<!-- Title: services/ComponentService.cpp Pages: 1 -->
<svg width="2351pt" height="302pt"
 viewBox="0.00 0.00 2350.50 302.00" xmlns="http://www.w3.org/2000/svg" xmlns:xlink="http://www.w3.org/1999/xlink">
<g id="graph0" class="graph" transform="scale(1 1) rotate(0) translate(4 298)">
<title>services/ComponentService.cpp</title>
<!-- Node1 -->
<g id="Node000001" class="node">
<title>Node1</title>
<g id="a_Node000001"><a xlink:title=" ">
<polygon fill="#999999" stroke="#666666" points="1553.5,-294 1380.5,-294 1380.5,-275 1553.5,-275 1553.5,-294"/>
<text text-anchor="middle" x="1467" y="-282" font-family="Helvetica,sans-Serif" font-size="10.00">services/ComponentService.cpp</text>
</a>
</g>
</g>
<!-- Node2 -->
<g id="Node000002" class="node">
<title>Node2</title>
<g id="a_Node000002"><a xlink:href="ComponentService_8h.html" target="_top" xlink:title=" ">
<polygon fill="white" stroke="#666666" points="814,-239 696,-239 696,-220 814,-220 814,-239"/>
<text text-anchor="middle" x="755" y="-227" font-family="Helvetica,sans-Serif" font-size="10.00">ComponentService.h</text>
</a>
</g>
</g>
<!-- Node1&#45;&gt;Node2 -->
<g id="edge1_Node000001_Node000002" class="edge">
<title>Node1&#45;&gt;Node2</title>
<g id="a_edge1_Node000001_Node000002"><a xlink:title=" ">
<path fill="none" stroke="#63b8ff" d="M1380.41,-277.05C1237.52,-266.42 955.18,-245.4 824.44,-235.67"/>
<polygon fill="#63b8ff" stroke="#63b8ff" points="824.39,-232.16 814.16,-234.9 823.87,-239.14 824.39,-232.16"/>
</a>
</g>
</g>
<!-- Node4 -->
<g id="Node000004" class="node">
<title>Node4</title>
<g id="a_Node000004"><a xlink:title=" ">
<polygon fill="#e0e0e0" stroke="#999999" points="142,-129 0,-129 0,-110 142,-110 142,-129"/>
<text text-anchor="middle" x="71" y="-117" font-family="Helvetica,sans-Serif" font-size="10.00">QNetworkAccessManager</text>
</a>
</g>
</g>
<!-- Node1&#45;&gt;Node4 -->
<g id="edge67_Node000001_Node000004" class="edge">
<title>Node1&#45;&gt;Node4</title>
<g id="a_edge67_Node000001_Node000004"><a xlink:title=" ">
<path fill="none" stroke="#63b8ff" d="M1380.38,-283.82C1113.2,-284.34 313.3,-282.22 205,-239 151.36,-217.59 104.93,-164.75 83.55,-137.44"/>
<polygon fill="#63b8ff" stroke="#63b8ff" points="86.14,-135.06 77.29,-129.24 80.58,-139.31 86.14,-135.06"/>
</a>
</g>
</g>
<!-- Node5 -->
<g id="Node000005" class="node">
<title>Node5</title>
<g id="a_Node000005"><a xlink:title=" ">
<polygon fill="#e0e0e0" stroke="#999999" points="365.5,-129 272.5,-129 272.5,-110 365.5,-110 365.5,-129"/>
<text text-anchor="middle" x="319" y="-117" font-family="Helvetica,sans-Serif" font-size="10.00">QNetworkReply</text>
</a>
</g>
</g>
<!-- Node1&#45;&gt;Node5 -->
<g id="edge68_Node000001_Node000005" class="edge">
<title>Node1&#45;&gt;Node5</title>
<g id="a_edge68_Node000001_Node000005"><a xlink:title=" ">
<path fill="none" stroke="#63b8ff" d="M1380.47,-282.79C1125.63,-280.34 393.2,-270.56 353,-239 322.66,-215.17 318.19,-166.15 318.2,-139.23"/>
<polygon fill="#63b8ff" stroke="#63b8ff" points="321.7,-139.25 318.42,-129.18 314.7,-139.1 321.7,-139.25"/>
</a>
</g>
</g>
<!-- Node7 -->
<g id="Node000007" class="node">
<title>Node7</title>
<g id="a_Node000007"><a xlink:title=" ">
<polygon fill="#e0e0e0" stroke="#999999" points="216,-129 160,-129 160,-110 216,-110 216,-129"/>
<text text-anchor="middle" x="188" y="-117" font-family="Helvetica,sans-Serif" font-size="10.00">QQueue</text>
</a>
</g>
</g>
<!-- Node1&#45;&gt;Node7 -->
<g id="edge71_Node000001_Node000007" class="edge">
<title>Node1&#45;&gt;Node7</title>
<g id="a_edge71_Node000001_Node000007"><a xlink:title=" ">
<path fill="none" stroke="#63b8ff" d="M1380.32,-283.26C1151.23,-282.11 533.61,-275.61 333,-239 256.96,-225.12 213.2,-246.71 168,-184 158.01,-170.13 166.23,-151.1 174.96,-137.49"/>
<polygon fill="#63b8ff" stroke="#63b8ff" points="177.99,-139.27 180.87,-129.07 172.26,-135.25 177.99,-139.27"/>
</a>
</g>
</g>
<!-- Node13 -->
<g id="Node000013" class="node">
<title>Node13</title>
<g id="a_Node000013"><a xlink:title=" ">
<polygon fill="#e0e0e0" stroke="#999999" points="1120,-19 1044,-19 1044,0 1120,0 1120,-19"/>
<text text-anchor="middle" x="1082" y="-7" font-family="Helvetica,sans-Serif" font-size="10.00">QJsonObject</text>
</a>
</g>
</g>
<!-- Node1&#45;&gt;Node13 -->
<g id="edge66_Node000001_Node000013" class="edge">
<title>Node1&#45;&gt;Node13</title>
<g id="a_edge66_Node000001_Node000013"><a xlink:title=" ">
<path fill="none" stroke="#63b8ff" d="M1444.85,-274.93C1418.53,-263.5 1380.29,-242.11 1398,-220 1443.84,-162.78 1513.16,-241.22 1559,-184 1579.56,-158.33 1579.75,-135.52 1559,-110 1505.24,-43.87 1240.59,-20.2 1130.34,-13.12"/>
<polygon fill="#63b8ff" stroke="#63b8ff" points="1130.37,-9.61 1120.17,-12.48 1129.93,-16.6 1130.37,-9.61"/>
</a>
</g>
</g>
<!-- Node14 -->
<g id="Node000014" class="node">
<title>Node14</title>
<g id="a_Node000014"><a xlink:title=" ">
<polygon fill="#e0e0e0" stroke="#999999" points="531.5,-74 460.5,-74 460.5,-55 531.5,-55 531.5,-74"/>
<text text-anchor="middle" x="496" y="-62" font-family="Helvetica,sans-Serif" font-size="10.00">QJsonArray</text>
</a>
</g>
</g>
<!-- Node1&#45;&gt;Node14 -->
<g id="edge64_Node000001_Node000014" class="edge">
<title>Node1&#45;&gt;Node14</title>
<g id="a_edge64_Node000001_Node000014"><a xlink:title=" ">
<path fill="none" stroke="#63b8ff" d="M1380.1,-282.36C1134.56,-278.22 449.29,-259.9 386,-184 352.74,-144.11 425,-99.99 467.64,-78.58"/>
<polygon fill="#63b8ff" stroke="#63b8ff" points="469.3,-81.67 476.75,-74.13 466.23,-75.38 469.3,-81.67"/>
</a>
</g>
</g>
<!-- Node24 -->
<g id="Node000024" class="node">
<title>Node24</title>
<g id="a_Node000024"><a xlink:href="BomParser_8h.html" target="_top" xlink:title=" ">
<polygon fill="white" stroke="#666666" points="1312.5,-239 1235.5,-239 1235.5,-220 1312.5,-220 1312.5,-239"/>
<text text-anchor="middle" x="1274" y="-227" font-family="Helvetica,sans-Serif" font-size="10.00">BomParser.h</text>
</a>
</g>
</g>
<!-- Node1&#45;&gt;Node24 -->
<g id="edge42_Node000001_Node000024" class="edge">
<title>Node1&#45;&gt;Node24</title>
<g id="a_edge42_Node000001_Node000024"><a xlink:title=" ">
<path fill="none" stroke="#63b8ff" d="M1435.99,-274.98C1403.17,-265.97 1351.2,-251.7 1315.01,-241.76"/>
<polygon fill="#63b8ff" stroke="#63b8ff" points="1315.82,-238.36 1305.25,-239.08 1313.97,-245.11 1315.82,-238.36"/>
</a>
</g>
</g>
<!-- Node26 -->
<g id="Node000026" class="node">
<title>Node26</title>
<g id="a_Node000026"><a xlink:href="EasyedaApi_8h.html" target="_top" xlink:title=" ">
<polygon fill="white" stroke="#666666" points="1549.5,-184 1398.5,-184 1398.5,-165 1549.5,-165 1549.5,-184"/>
<text text-anchor="middle" x="1474" y="-172" font-family="Helvetica,sans-Serif" font-size="10.00">core/easyeda/EasyedaApi.h</text>
</a>
</g>
</g>
<!-- Node1&#45;&gt;Node26 -->
<g id="edge47_Node000001_Node000026" class="edge">
<title>Node1&#45;&gt;Node26</title>
<g id="a_edge47_Node000001_Node000026"><a xlink:title=" ">
<path fill="none" stroke="#63b8ff" d="M1426.2,-274.92C1390.33,-265.36 1346.5,-247.53 1365,-220 1375.68,-204.11 1393.13,-193.89 1410.97,-187.32"/>
<polygon fill="#63b8ff" stroke="#63b8ff" points="1412.49,-190.5 1420.88,-184.03 1410.29,-183.86 1412.49,-190.5"/>
</a>
</g>
</g>
<!-- Node30 -->
<g id="Node000030" class="node">
<title>Node30</title>
<g id="a_Node000030"><a xlink:href="EasyedaImporter_8h.html" target="_top" xlink:title=" ">
<polygon fill="white" stroke="#666666" points="1044,-184 868,-184 868,-165 1044,-165 1044,-184"/>
<text text-anchor="middle" x="956" y="-172" font-family="Helvetica,sans-Serif" font-size="10.00">core/easyeda/EasyedaImporter.h</text>
</a>
</g>
</g>
<!-- Node1&#45;&gt;Node30 -->
<g id="edge54_Node000001_Node000030" class="edge">
<title>Node1&#45;&gt;Node30</title>
<g id="a_edge54_Node000001_Node000030"><a xlink:title=" ">
<path fill="none" stroke="#63b8ff" d="M1417.22,-274.97C1368.59,-266.47 1292.53,-252.74 1227,-239 1146.58,-222.13 1053.43,-199.66 999.94,-186.46"/>
<polygon fill="#63b8ff" stroke="#63b8ff" points="1000.66,-183.04 990.11,-184.03 998.98,-189.83 1000.66,-183.04"/>
</a>
</g>
</g>
<!-- Node31 -->
<g id="Node000031" class="node">
<title>Node31</title>
<g id="a_Node000031"><a xlink:title=" ">
<polygon fill="#e0e0e0" stroke="#999999" points="1463,-239 1407,-239 1407,-220 1463,-220 1463,-239"/>
<text text-anchor="middle" x="1435" y="-227" font-family="Helvetica,sans-Serif" font-size="10.00">QDebug</text>
</a>
</g>
</g>
<!-- Node1&#45;&gt;Node31 -->
<g id="edge60_Node000001_Node000031" class="edge">
<title>Node1&#45;&gt;Node31</title>
<g id="a_edge60_Node000001_Node000031"><a xlink:title=" ">
<path fill="none" stroke="#63b8ff" d="M1461.72,-274.75C1457.29,-267.42 1450.84,-256.73 1445.38,-247.7"/>
<polygon fill="#63b8ff" stroke="#63b8ff" points="1448.35,-245.84 1440.19,-239.09 1442.36,-249.46 1448.35,-245.84"/>
</a>
</g>
</g>
<!-- Node32 -->
<g id="Node000032" class="node">
<title>Node32</title>
<g id="a_Node000032"><a xlink:title=" ">
<polygon fill="#e0e0e0" stroke="#999999" points="1519,-239 1481,-239 1481,-220 1519,-220 1519,-239"/>
<text text-anchor="middle" x="1500" y="-227" font-family="Helvetica,sans-Serif" font-size="10.00">QDir</text>
</a>
</g>
</g>
<!-- Node1&#45;&gt;Node32 -->
<g id="edge61_Node000001_Node000032" class="edge">
<title>Node1&#45;&gt;Node32</title>
<g id="a_edge61_Node000001_Node000032"><a xlink:title=" ">
<path fill="none" stroke="#63b8ff" d="M1472.45,-274.75C1477.01,-267.42 1483.67,-256.73 1489.29,-247.7"/>
<polygon fill="#63b8ff" stroke="#63b8ff" points="1492.34,-249.43 1494.65,-239.09 1486.4,-245.73 1492.34,-249.43"/>
</a>
</g>
</g>
<!-- Node33 -->
<g id="Node000033" class="node">
<title>Node33</title>
<g id="a_Node000033"><a xlink:title=" ">
<polygon fill="#e0e0e0" stroke="#999999" points="1578.5,-239 1537.5,-239 1537.5,-220 1578.5,-220 1578.5,-239"/>
<text text-anchor="middle" x="1558" y="-227" font-family="Helvetica,sans-Serif" font-size="10.00">QFile</text>
</a>
</g>
</g>
<!-- Node1&#45;&gt;Node33 -->
<g id="edge62_Node000001_Node000033" class="edge">
<title>Node1&#45;&gt;Node33</title>
<g id="a_edge62_Node000001_Node000033"><a xlink:title=" ">
<path fill="none" stroke="#63b8ff" d="M1481.62,-274.98C1495.86,-266.69 1517.75,-253.94 1534.45,-244.22"/>
<polygon fill="#63b8ff" stroke="#63b8ff" points="1536.23,-247.23 1543.11,-239.17 1532.71,-241.18 1536.23,-247.23"/>
</a>
</g>
</g>
<!-- Node34 -->
<g id="Node000034" class="node">
<title>Node34</title>
<g id="a_Node000034"><a xlink:title=" ">
<polygon fill="#e0e0e0" stroke="#999999" points="1657,-239 1597,-239 1597,-220 1657,-220 1657,-239"/>
<text text-anchor="middle" x="1627" y="-227" font-family="Helvetica,sans-Serif" font-size="10.00">QFileInfo</text>
</a>
</g>
</g>
<!-- Node1&#45;&gt;Node34 -->
<g id="edge63_Node000001_Node000034" class="edge">
<title>Node1&#45;&gt;Node34</title>
<g id="a_edge63_Node000001_Node000034"><a xlink:title=" ">
<path fill="none" stroke="#63b8ff" d="M1492.71,-274.98C1519.45,-266.13 1561.53,-252.19 1591.45,-242.28"/>
<polygon fill="#63b8ff" stroke="#63b8ff" points="1592.7,-245.55 1601.09,-239.08 1590.5,-238.9 1592.7,-245.55"/>
</a>
</g>
</g>
<!-- Node35 -->
<g id="Node000035" class="node">
<title>Node35</title>
<g id="a_Node000035"><a xlink:title=" ">
<polygon fill="#e0e0e0" stroke="#999999" points="1770.5,-239 1675.5,-239 1675.5,-220 1770.5,-220 1770.5,-239"/>
<text text-anchor="middle" x="1723" y="-227" font-family="Helvetica,sans-Serif" font-size="10.00">QJsonDocument</text>
</a>
</g>
</g>
<!-- Node1&#45;&gt;Node35 -->
<g id="edge65_Node000001_Node000035" class="edge">
<title>Node1&#45;&gt;Node35</title>
<g id="a_edge65_Node000001_Node000035"><a xlink:title=" ">
<path fill="none" stroke="#63b8ff" d="M1508.13,-274.98C1552.6,-265.78 1623.55,-251.09 1671.65,-241.13"/>
<polygon fill="#63b8ff" stroke="#63b8ff" points="1672.46,-244.54 1681.55,-239.08 1671.04,-237.68 1672.46,-244.54"/>
</a>
</g>
</g>
<!-- Node36 -->
<g id="Node000036" class="node">
<title>Node36</title>
<g id="a_Node000036"><a xlink:title=" ">
<polygon fill="#e0e0e0" stroke="#999999" points="1893.5,-239 1788.5,-239 1788.5,-220 1893.5,-220 1893.5,-239"/>
<text text-anchor="middle" x="1841" y="-227" font-family="Helvetica,sans-Serif" font-size="10.00">QNetworkRequest</text>
</a>
</g>
</g>
<!-- Node1&#45;&gt;Node36 -->
<g id="edge69_Node000001_Node000036" class="edge">
<title>Node1&#45;&gt;Node36</title>
<g id="a_edge69_Node000001_Node000036"><a xlink:title=" ">
<path fill="none" stroke="#63b8ff" d="M1527.09,-274.98C1595.97,-265.22 1708.35,-249.3 1778.31,-239.38"/>
<polygon fill="#63b8ff" stroke="#63b8ff" points="1778.9,-242.83 1788.31,-237.97 1777.92,-235.9 1778.9,-242.83"/>
</a>
</g>
</g>
<!-- Node37 -->
<g id="Node000037" class="node">
<title>Node37</title>
<g id="a_Node000037"><a xlink:title=" ">
<polygon fill="#e0e0e0" stroke="#999999" points="1974,-239 1912,-239 1912,-220 1974,-220 1974,-239"/>
<text text-anchor="middle" x="1943" y="-227" font-family="Helvetica,sans-Serif" font-size="10.00">QProcess</text>
</a>
</g>
</g>
<!-- Node1&#45;&gt;Node37 -->
<g id="edge70_Node000001_Node000037" class="edge">
<title>Node1&#45;&gt;Node37</title>
<g id="a_edge70_Node000001_Node000037"><a xlink:title=" ">
<path fill="none" stroke="#63b8ff" d="M1553.8,-277.41C1639.72,-270.75 1775.17,-258.55 1901.38,-239.1"/>
<polygon fill="#63b8ff" stroke="#63b8ff" points="1902.28,-242.5 1911.62,-237.5 1901.2,-235.59 1902.28,-242.5"/>
</a>
</g>
</g>
<!-- Node38 -->
<g id="Node000038" class="node">
<title>Node38</title>
<g id="a_Node000038"><a xlink:title=" ">
<polygon fill="#e0e0e0" stroke="#999999" points="2107.5,-239 1992.5,-239 1992.5,-220 2107.5,-220 2107.5,-239"/>
<text text-anchor="middle" x="2050" y="-227" font-family="Helvetica,sans-Serif" font-size="10.00">QRegularExpression</text>
</a>
</g>
</g>
<!-- Node1&#45;&gt;Node38 -->
<g id="edge72_Node000001_Node000038" class="edge">
<title>Node1&#45;&gt;Node38</title>
<g id="a_edge72_Node000001_Node000038"><a xlink:title=" ">
<path fill="none" stroke="#63b8ff" d="M1553.84,-277.08C1654.26,-269.42 1824.82,-255.65 1981.94,-239.07"/>
<polygon fill="#63b8ff" stroke="#63b8ff" points="1982.7,-242.51 1992.27,-237.97 1981.96,-235.55 1982.7,-242.51"/>
</a>
</g>
</g>
<!-- Node39 -->
<g id="Node000039" class="node">
<title>Node39</title>
<g id="a_Node000039"><a xlink:title=" ">
<polygon fill="#e0e0e0" stroke="#999999" points="2206,-239 2126,-239 2126,-220 2206,-220 2206,-239"/>
<text text-anchor="middle" x="2166" y="-227" font-family="Helvetica,sans-Serif" font-size="10.00">QTextStream</text>
</a>
</g>
</g>
<!-- Node1&#45;&gt;Node39 -->
<g id="edge73_Node000001_Node000039" class="edge">
<title>Node1&#45;&gt;Node39</title>
<g id="a_edge73_Node000001_Node000039"><a xlink:title=" ">
<path fill="none" stroke="#63b8ff" d="M1553.75,-280.42C1676.61,-275.41 1908.5,-263.62 2115.78,-239.02"/>
<polygon fill="#63b8ff" stroke="#63b8ff" points="2116.43,-242.46 2125.94,-237.8 2115.59,-235.51 2116.43,-242.46"/>
</a>
</g>
</g>
<!-- Node40 -->
<g id="Node000040" class="node">
<title>Node40</title>
<g id="a_Node000040"><a xlink:title=" ">
<polygon fill="#e0e0e0" stroke="#999999" points="2277.5,-239 2224.5,-239 2224.5,-220 2277.5,-220 2277.5,-239"/>
<text text-anchor="middle" x="2251" y="-227" font-family="Helvetica,sans-Serif" font-size="10.00">QTimer</text>
</a>
</g>
</g>
<!-- Node1&#45;&gt;Node40 -->
<g id="edge74_Node000001_Node000040" class="edge">
<title>Node1&#45;&gt;Node40</title>
<g id="a_edge74_Node000001_Node000040"><a xlink:title=" ">
<path fill="none" stroke="#63b8ff" d="M1553.6,-283.18C1691.53,-281.6 1969.63,-274.07 2214.21,-238.81"/>
<polygon fill="#63b8ff" stroke="#63b8ff" points="2214.97,-242.24 2224.36,-237.33 2213.96,-235.31 2214.97,-242.24"/>
</a>
</g>
</g>
<!-- Node41 -->
<g id="Node000041" class="node">
<title>Node41</title>
<g id="a_Node000041"><a xlink:title=" ">
<polygon fill="#e0e0e0" stroke="#999999" points="2342.5,-239 2295.5,-239 2295.5,-220 2342.5,-220 2342.5,-239"/>
<text text-anchor="middle" x="2319" y="-227" font-family="Helvetica,sans-Serif" font-size="10.00">QUuid</text>
</a>
</g>
</g>
<!-- Node1&#45;&gt;Node41 -->
<g id="edge75_Node000001_Node000041" class="edge">
<title>Node1&#45;&gt;Node41</title>
<g id="a_edge75_Node000001_Node000041"><a xlink:title=" ">
<path fill="none" stroke="#63b8ff" d="M1553.76,-281.05C1730.8,-275.68 2129.42,-261.66 2285.02,-238.94"/>
<polygon fill="#63b8ff" stroke="#63b8ff" points="2285.99,-242.33 2295.35,-237.36 2284.94,-235.41 2285.99,-242.33"/>
</a>
</g>
</g>
<!-- Node3 -->
<g id="Node000003" class="node">
<title>Node3</title>
<g id="a_Node000003"><a xlink:href="LcscImageService_8h.html" target="_top" xlink:title=" ">
<polygon fill="white" stroke="#666666" points="300.5,-184 187.5,-184 187.5,-165 300.5,-165 300.5,-184"/>
<text text-anchor="middle" x="244" y="-172" font-family="Helvetica,sans-Serif" font-size="10.00">LcscImageService.h</text>
</a>
</g>
</g>
<!-- Node2&#45;&gt;Node3 -->
<g id="edge2_Node000002_Node000003" class="edge">
<title>Node2&#45;&gt;Node3</title>
<g id="a_edge2_Node000002_Node000003"><a xlink:title=" ">
<path fill="none" stroke="#63b8ff" d="M695.88,-222.37C600,-212.42 411.2,-192.84 310.67,-182.42"/>
<polygon fill="#63b8ff" stroke="#63b8ff" points="310.94,-178.92 300.64,-181.37 310.22,-185.89 310.94,-178.92"/>
</a>
</g>
</g>
<!-- Node6 -->
<g id="Node000006" class="node">
<title>Node6</title>
<g id="a_Node000006"><a xlink:title=" ">
<polygon fill="#e0e0e0" stroke="#999999" points="1156,-129 1100,-129 1100,-110 1156,-110 1156,-129"/>
<text text-anchor="middle" x="1128" y="-117" font-family="Helvetica,sans-Serif" font-size="10.00">QObject</text>
</a>
</g>
</g>
<!-- Node2&#45;&gt;Node6 -->
<g id="edge37_Node000002_Node000006" class="edge">
<title>Node2&#45;&gt;Node6</title>
<g id="a_edge37_Node000002_Node000006"><a xlink:title=" ">
<path fill="none" stroke="#63b8ff" d="M814.2,-226.36C896.92,-222.4 1041.91,-211.64 1086,-184 1102.76,-173.49 1114.28,-153.56 1120.96,-138.82"/>
<polygon fill="#63b8ff" stroke="#63b8ff" points="1124.34,-139.79 1124.97,-129.22 1117.89,-137.1 1124.34,-139.79"/>
</a>
</g>
</g>
<!-- Node2&#45;&gt;Node7 -->
<g id="edge39_Node000002_Node000007" class="edge">
<title>Node2&#45;&gt;Node7</title>
<g id="a_edge39_Node000002_Node000007"><a xlink:title=" ">
<path fill="none" stroke="#63b8ff" d="M695.86,-228.37C555.93,-227.46 213.6,-221.38 179,-184 167.8,-171.9 172.57,-152.56 178.58,-138.39"/>
<polygon fill="#63b8ff" stroke="#63b8ff" points="181.83,-139.71 182.96,-129.18 175.51,-136.7 181.83,-139.71"/>
</a>
</g>
</g>
<!-- Node8 -->
<g id="Node000008" class="node">
<title>Node8</title>
<g id="a_Node000008"><a xlink:title=" ">
<polygon fill="#e0e0e0" stroke="#999999" points="722.5,-19 669.5,-19 669.5,0 722.5,0 722.5,-19"/>
<text text-anchor="middle" x="696" y="-7" font-family="Helvetica,sans-Serif" font-size="10.00">QString</text>
</a>
</g>
</g>
<!-- Node2&#45;&gt;Node8 -->
<g id="edge40_Node000002_Node000008" class="edge">
<title>Node2&#45;&gt;Node8</title>
<g id="a_edge40_Node000002_Node000008"><a xlink:title=" ">
<path fill="none" stroke="#63b8ff" d="M695.97,-227.71C644.59,-224.77 569.54,-214.88 512,-184 460.3,-156.26 449.18,-131.79 439,-74 437.53,-65.68 433.56,-61.46 439,-55 466.69,-22.1 594.75,-13.52 659.01,-11.29"/>
<polygon fill="#63b8ff" stroke="#63b8ff" points="659.24,-14.78 669.12,-10.97 659.02,-7.79 659.24,-14.78"/>
</a>
</g>
</g>
<!-- Node9 -->
<g id="Node000009" class="node">
<title>Node9</title>
<g id="a_Node000009"><a xlink:href="ComponentData_8h.html" target="_top" xlink:title=" ">
<polygon fill="white" stroke="#666666" points="675,-184 531,-184 531,-165 675,-165 675,-184"/>
<text text-anchor="middle" x="603" y="-172" font-family="Helvetica,sans-Serif" font-size="10.00">models/ComponentData.h</text>
</a>
</g>
</g>
<!-- Node2&#45;&gt;Node9 -->
<g id="edge8_Node000002_Node000009" class="edge">
<title>Node2&#45;&gt;Node9</title>
<g id="a_edge8_Node000002_Node000009"><a xlink:title=" ">
<path fill="none" stroke="#63b8ff" d="M730.58,-219.98C705.28,-211.16 665.55,-197.31 637.14,-187.41"/>
<polygon fill="#63b8ff" stroke="#63b8ff" points="638.21,-184.07 627.61,-184.08 635.9,-190.68 638.21,-184.07"/>
</a>
</g>
</g>
<!-- Node10 -->
<g id="Node000010" class="node">
<title>Node10</title>
<g id="a_Node000010"><a xlink:href="FootprintData_8h.html" target="_top" xlink:title=" ">
<polygon fill="white" stroke="#666666" points="820,-129 728,-129 728,-110 820,-110 820,-129"/>
<text text-anchor="middle" x="774" y="-117" font-family="Helvetica,sans-Serif" font-size="10.00">FootprintData.h</text>
</a>
</g>
</g>
<!-- Node2&#45;&gt;Node10 -->
<g id="edge31_Node000002_Node000010" class="edge">
<title>Node2&#45;&gt;Node10</title>
<g id="a_edge31_Node000002_Node000010"><a xlink:title=" ">
<path fill="none" stroke="#63b8ff" d="M777.78,-219.89C793.03,-212.79 811.92,-201.08 821,-184 830.6,-165.95 813.09,-147.4 796.79,-135.04"/>
<polygon fill="#63b8ff" stroke="#63b8ff" points="798.71,-132.11 788.52,-129.18 794.66,-137.82 798.71,-132.11"/>
</a>
</g>
</g>
<!-- Node11 -->
<g id="Node000011" class="node">
<title>Node11</title>
<g id="a_Node000011"><a xlink:href="Model3DData_8h.html" target="_top" xlink:title=" ">
<polygon fill="white" stroke="#666666" points="959,-74 867,-74 867,-55 959,-55 959,-74"/>
<text text-anchor="middle" x="913" y="-62" font-family="Helvetica,sans-Serif" font-size="10.00">Model3DData.h</text>
</a>
</g>
</g>
<!-- Node2&#45;&gt;Node11 -->
<g id="edge32_Node000002_Node000011" class="edge">
<title>Node2&#45;&gt;Node11</title>
<g id="a_edge32_Node000002_Node000011"><a xlink:title=" ">
<path fill="none" stroke="#63b8ff" d="M814.32,-228.41C892.26,-226.89 1022.82,-219.02 1053,-184 1091.45,-139.38 1001.23,-97.37 948.22,-77.5"/>
<polygon fill="#63b8ff" stroke="#63b8ff" points="949.39,-74.2 938.79,-74.05 946.98,-80.77 949.39,-74.2"/>
</a>
</g>
</g>
<!-- Node2&#45;&gt;Node13 -->
<g id="edge35_Node000002_Node000013" class="edge">
<title>Node2&#45;&gt;Node13</title>
<g id="a_edge35_Node000002_Node000013"><a xlink:title=" ">
<path fill="none" stroke="#63b8ff" d="M814.28,-225.63C901.18,-220.65 1058.33,-208.52 1109,-184 1146.13,-166.03 1179.05,-148.78 1165,-110 1152.27,-74.87 1121.11,-43.43 1100.8,-25.69"/>
<polygon fill="#63b8ff" stroke="#63b8ff" points="1102.99,-22.96 1093.1,-19.16 1098.47,-28.3 1102.99,-22.96"/>
</a>
</g>
</g>
<!-- Node17 -->
<g id="Node000017" class="node">
<title>Node17</title>
<g id="a_Node000017"><a xlink:href="SymbolData_8h.html" target="_top" xlink:title=" ">
<polygon fill="white" stroke="#666666" points="657,-129 571,-129 571,-110 657,-110 657,-129"/>
<text text-anchor="middle" x="614" y="-117" font-family="Helvetica,sans-Serif" font-size="10.00">SymbolData.h</text>
</a>
</g>
</g>
<!-- Node2&#45;&gt;Node17 -->
<g id="edge33_Node000002_Node000017" class="edge">
<title>Node2&#45;&gt;Node17</title>
<g id="a_edge33_Node000002_Node000017"><a xlink:title=" ">
<path fill="none" stroke="#63b8ff" d="M695.82,-225.55C634.19,-221.1 543.65,-210.18 522,-184 503.22,-161.3 539.06,-143.19 571.35,-132.21"/>
<polygon fill="#63b8ff" stroke="#63b8ff" points="572.75,-135.44 581.19,-129.04 570.6,-128.78 572.75,-135.44"/>
</a>
</g>
</g>
<!-- Node20 -->
<g id="Node000020" class="node">
<title>Node20</title>
<g id="a_Node000020"><a xlink:title=" ">
<polygon fill="#e0e0e0" stroke="#999999" points="748.5,-184 693.5,-184 693.5,-165 748.5,-165 748.5,-184"/>
<text text-anchor="middle" x="721" y="-172" font-family="Helvetica,sans-Serif" font-size="10.00">QImage</text>
</a>
</g>
</g>
<!-- Node2&#45;&gt;Node20 -->
<g id="edge34_Node000002_Node000020" class="edge">
<title>Node2&#45;&gt;Node20</title>
<g id="a_edge34_Node000002_Node000020"><a xlink:title=" ">
<path fill="none" stroke="#63b8ff" d="M749.39,-219.75C744.68,-212.42 737.83,-201.73 732.03,-192.7"/>
<polygon fill="#63b8ff" stroke="#63b8ff" points="734.86,-190.62 726.51,-184.09 728.96,-194.4 734.86,-190.62"/>
</a>
</g>
</g>
<!-- Node21 -->
<g id="Node000021" class="node">
<title>Node21</title>
<g id="a_Node000021"><a xlink:title=" ">
<polygon fill="#e0e0e0" stroke="#999999" points="811.5,-184 766.5,-184 766.5,-165 811.5,-165 811.5,-184"/>
<text text-anchor="middle" x="789" y="-172" font-family="Helvetica,sans-Serif" font-size="10.00">QMap</text>
</a>
</g>
</g>
<!-- Node2&#45;&gt;Node21 -->
<g id="edge36_Node000002_Node000021" class="edge">
<title>Node2&#45;&gt;Node21</title>
<g id="a_edge36_Node000002_Node000021"><a xlink:title=" ">
<path fill="none" stroke="#63b8ff" d="M760.61,-219.75C765.32,-212.42 772.17,-201.73 777.97,-192.7"/>
<polygon fill="#63b8ff" stroke="#63b8ff" points="781.04,-194.4 783.49,-184.09 775.14,-190.62 781.04,-194.4"/>
</a>
</g>
</g>
<!-- Node22 -->
<g id="Node000022" class="node">
<title>Node22</title>
<g id="a_Node000022"><a xlink:title=" ">
<polygon fill="#e0e0e0" stroke="#999999" points="437,-184 395,-184 395,-165 437,-165 437,-184"/>
<text text-anchor="middle" x="416" y="-172" font-family="Helvetica,sans-Serif" font-size="10.00">QPair</text>
</a>
</g>
</g>
<!-- Node2&#45;&gt;Node22 -->
<g id="edge38_Node000002_Node000022" class="edge">
<title>Node2&#45;&gt;Node22</title>
<g id="a_edge38_Node000002_Node000022"><a xlink:title=" ">
<path fill="none" stroke="#63b8ff" d="M695.88,-221.5C634.42,-213.83 535.56,-200.42 451,-184 449.72,-183.75 448.42,-183.49 447.11,-183.21"/>
<polygon fill="#63b8ff" stroke="#63b8ff" points="447.55,-179.73 437.03,-180.94 446.02,-186.55 447.55,-179.73"/>
</a>
</g>
</g>
<!-- Node23 -->
<g id="Node000023" class="node">
<title>Node23</title>
<g id="a_Node000023"><a xlink:title=" ">
<polygon fill="#e0e0e0" stroke="#999999" points="1246,-184 1176,-184 1176,-165 1246,-165 1246,-184"/>
<text text-anchor="middle" x="1211" y="-172" font-family="Helvetica,sans-Serif" font-size="10.00">QStringList</text>
</a>
</g>
</g>
<!-- Node2&#45;&gt;Node23 -->
<g id="edge41_Node000002_Node000023" class="edge">
<title>Node2&#45;&gt;Node23</title>
<g id="a_edge41_Node000002_Node000023"><a xlink:title=" ">
<path fill="none" stroke="#63b8ff" d="M814.12,-223.21C893.45,-215.85 1038.66,-201.42 1162,-184 1163.27,-183.82 1164.57,-183.63 1165.87,-183.44"/>
<polygon fill="#63b8ff" stroke="#63b8ff" points="1166.64,-186.86 1175.98,-181.85 1165.56,-179.94 1166.64,-186.86"/>
</a>
</g>
</g>
<!-- Node3&#45;&gt;Node4 -->
<g id="edge3_Node000003_Node000004" class="edge">
<title>Node3&#45;&gt;Node4</title>
<g id="a_edge3_Node000003_Node000004"><a xlink:title=" ">
<path fill="none" stroke="#63b8ff" d="M216.2,-164.98C187.03,-156.05 141,-141.94 108.6,-132.02"/>
<polygon fill="#63b8ff" stroke="#63b8ff" points="109.6,-128.66 99.01,-129.08 107.55,-135.36 109.6,-128.66"/>
</a>
</g>
</g>
<!-- Node3&#45;&gt;Node5 -->
<g id="edge4_Node000003_Node000005" class="edge">
<title>Node3&#45;&gt;Node5</title>
<g id="a_edge4_Node000003_Node000005"><a xlink:title=" ">
<path fill="none" stroke="#63b8ff" d="M256.05,-164.98C267.46,-156.92 284.83,-144.65 298.43,-135.03"/>
<polygon fill="#63b8ff" stroke="#63b8ff" points="300.58,-137.8 306.73,-129.17 296.54,-132.08 300.58,-137.8"/>
</a>
</g>
</g>
<!-- Node3&#45;&gt;Node6 -->
<g id="edge5_Node000003_Node000006" class="edge">
<title>Node3&#45;&gt;Node6</title>
<g id="a_edge5_Node000003_Node000006"><a xlink:title=" ">
<path fill="none" stroke="#63b8ff" d="M300.66,-170.07C326.66,-168.51 357.89,-166.65 386,-165 665.53,-148.63 735.6,-147.5 1015,-129 1039.8,-127.36 1067.64,-125.27 1089.48,-123.57"/>
<polygon fill="#63b8ff" stroke="#63b8ff" points="1089.99,-127.04 1099.68,-122.77 1089.44,-120.06 1089.99,-127.04"/>
</a>
</g>
</g>
<!-- Node3&#45;&gt;Node7 -->
<g id="edge6_Node000003_Node000007" class="edge">
<title>Node3&#45;&gt;Node7</title>
<g id="a_edge6_Node000003_Node000007"><a xlink:title=" ">
<path fill="none" stroke="#63b8ff" d="M235,-164.98C226.81,-157.23 214.49,-145.58 204.53,-136.14"/>
<polygon fill="#63b8ff" stroke="#63b8ff" points="206.83,-133.5 197.16,-129.17 202.02,-138.59 206.83,-133.5"/>
</a>
</g>
</g>
<!-- Node3&#45;&gt;Node8 -->
<g id="edge7_Node000003_Node000008" class="edge">
<title>Node3&#45;&gt;Node8</title>
<g id="a_edge7_Node000003_Node000008"><a xlink:title=" ">
<path fill="none" stroke="#63b8ff" d="M244.58,-164.63C245.9,-151.27 250.18,-125.86 264,-110 301.48,-66.98 325.35,-71.39 380,-55 478.12,-25.58 599.35,-15.44 659.12,-12.08"/>
<polygon fill="#63b8ff" stroke="#63b8ff" points="659.4,-15.57 669.2,-11.55 659.03,-8.58 659.4,-15.57"/>
</a>
</g>
</g>
<!-- Node9&#45;&gt;Node8 -->
<g id="edge30_Node000009_Node000008" class="edge">
<title>Node9&#45;&gt;Node8</title>
<g id="a_edge30_Node000009_Node000008"><a xlink:title=" ">
<path fill="none" stroke="#63b8ff" d="M573.86,-164.89C519.22,-147.32 410.48,-104.77 452,-55 477.94,-23.9 597.51,-14.48 659.1,-11.67"/>
<polygon fill="#63b8ff" stroke="#63b8ff" points="659.33,-15.16 669.18,-11.24 659.04,-8.17 659.33,-15.16"/>
</a>
</g>
</g>
<!-- Node9&#45;&gt;Node10 -->
<g id="edge9_Node000009_Node000010" class="edge">
<title>Node9&#45;&gt;Node10</title>
<g id="a_edge9_Node000009_Node000010"><a xlink:title=" ">
<path fill="none" stroke="#63b8ff" d="M630.47,-164.98C659.18,-156.09 704.42,-142.07 736.42,-132.15"/>
<polygon fill="#63b8ff" stroke="#63b8ff" points="737.8,-135.39 746.31,-129.08 735.72,-128.7 737.8,-135.39"/>
</a>
</g>
</g>
<!-- Node9&#45;&gt;Node11 -->
<g id="edge19_Node000009_Node000011" class="edge">
<title>Node9&#45;&gt;Node11</title>
<g id="a_edge19_Node000009_Node000011"><a xlink:title=" ">
<path fill="none" stroke="#63b8ff" d="M661.92,-164.97C718.57,-156.23 799.75,-142.09 829,-129 855.43,-117.17 881.31,-95.67 897.2,-81"/>
<polygon fill="#63b8ff" stroke="#63b8ff" points="899.7,-83.45 904.55,-74.03 894.89,-78.37 899.7,-83.45"/>
</a>
</g>
</g>
<!-- Node9&#45;&gt;Node13 -->
<g id="edge28_Node000009_Node000013" class="edge">
<title>Node9&#45;&gt;Node13</title>
<g id="a_edge28_Node000009_Node000013"><a xlink:title=" ">
<path fill="none" stroke="#63b8ff" d="M675.13,-165.27C726.96,-158.31 798.12,-146.63 859,-129 880.25,-122.85 884.42,-118.11 905,-110 947.4,-93.3 961.27,-96.32 1001,-74 1024.92,-60.56 1049.29,-40.4 1064.96,-26.41"/>
<polygon fill="#63b8ff" stroke="#63b8ff" points="1067.67,-28.68 1072.72,-19.36 1062.96,-23.5 1067.67,-28.68"/>
</a>
</g>
</g>
<!-- Node9&#45;&gt;Node14 -->
<g id="edge27_Node000009_Node000014" class="edge">
<title>Node9&#45;&gt;Node14</title>
<g id="a_edge27_Node000009_Node000014"><a xlink:title=" ">
<path fill="none" stroke="#63b8ff" d="M594.24,-164.66C576.21,-146.46 534.69,-104.55 511.82,-81.47"/>
<polygon fill="#63b8ff" stroke="#63b8ff" points="514.1,-78.8 504.58,-74.16 509.13,-83.73 514.1,-78.8"/>
</a>
</g>
</g>
<!-- Node9&#45;&gt;Node17 -->
<g id="edge20_Node000009_Node000017" class="edge">
<title>Node9&#45;&gt;Node17</title>
<g id="a_edge20_Node000009_Node000017"><a xlink:title=" ">
<path fill="none" stroke="#63b8ff" d="M604.82,-164.75C606.26,-157.8 608.32,-147.85 610.13,-139.13"/>
<polygon fill="#63b8ff" stroke="#63b8ff" points="613.61,-139.59 612.22,-129.09 606.76,-138.17 613.61,-139.59"/>
</a>
</g>
</g>
<!-- Node19 -->
<g id="Node000019" class="node">
<title>Node19</title>
<g id="a_Node000019"><a xlink:title=" ">
<polygon fill="#e0e0e0" stroke="#999999" points="1006,-129 914,-129 914,-110 1006,-110 1006,-129"/>
<text text-anchor="middle" x="960" y="-117" font-family="Helvetica,sans-Serif" font-size="10.00">QSharedPointer</text>
</a>
</g>
</g>
<!-- Node9&#45;&gt;Node19 -->
<g id="edge29_Node000009_Node000019" class="edge">
<title>Node9&#45;&gt;Node19</title>
<g id="a_edge29_Node000009_Node000019"><a xlink:title=" ">
<path fill="none" stroke="#63b8ff" d="M660.36,-164.98C727.24,-155.05 837.1,-138.75 903.58,-128.88"/>
<polygon fill="#63b8ff" stroke="#63b8ff" points="904.48,-132.28 913.86,-127.35 903.46,-125.36 904.48,-132.28"/>
</a>
</g>
</g>
<!-- Node10&#45;&gt;Node8 -->
<g id="edge18_Node000010_Node000008" class="edge">
<title>Node10&#45;&gt;Node8</title>
<g id="a_edge18_Node000010_Node000008"><a xlink:title=" ">
<path fill="none" stroke="#63b8ff" d="M788.09,-109.93C806.26,-97.78 833.94,-74.82 820,-55 800.42,-27.18 761.74,-16.66 732.76,-12.74"/>
<polygon fill="#63b8ff" stroke="#63b8ff" points="732.91,-9.23 722.57,-11.57 732.11,-16.19 732.91,-9.23"/>
</a>
</g>
</g>
<!-- Node10&#45;&gt;Node11 -->
<g id="edge10_Node000010_Node000011" class="edge">
<title>Node10&#45;&gt;Node11</title>
<g id="a_edge10_Node000010_Node000011"><a xlink:title=" ">
<path fill="none" stroke="#63b8ff" d="M796.33,-109.98C819.2,-101.27 854.96,-87.63 880.86,-77.75"/>
<polygon fill="#63b8ff" stroke="#63b8ff" points="882.16,-81 890.26,-74.17 879.67,-74.46 882.16,-81"/>
</a>
</g>
</g>
<!-- Node10&#45;&gt;Node13 -->
<g id="edge15_Node000010_Node000013" class="edge">
<title>Node10&#45;&gt;Node13</title>
<g id="a_edge15_Node000010_Node000013"><a xlink:title=" ">
<path fill="none" stroke="#63b8ff" d="M820.16,-111.7C860.16,-104.91 919.13,-92.78 968,-74 1002.05,-60.92 1038.36,-39.17 1060.62,-24.84"/>
<polygon fill="#63b8ff" stroke="#63b8ff" points="1062.8,-27.6 1069.25,-19.2 1058.97,-21.74 1062.8,-27.6"/>
</a>
</g>
</g>
<!-- Node10&#45;&gt;Node14 -->
<g id="edge14_Node000010_Node000014" class="edge">
<title>Node10&#45;&gt;Node14</title>
<g id="a_edge14_Node000010_Node000014"><a xlink:title=" ">
<path fill="none" stroke="#63b8ff" d="M729.33,-109.98C677.82,-100.16 593.58,-84.1 541.65,-74.2"/>
<polygon fill="#63b8ff" stroke="#63b8ff" points="542.2,-70.74 531.72,-72.31 540.88,-77.62 542.2,-70.74"/>
</a>
</g>
</g>
<!-- Node15 -->
<g id="Node000015" class="node">
<title>Node15</title>
<g id="a_Node000015"><a xlink:title=" ">
<polygon fill="#e0e0e0" stroke="#999999" points="737.5,-74 696.5,-74 696.5,-55 737.5,-55 737.5,-74"/>
<text text-anchor="middle" x="717" y="-62" font-family="Helvetica,sans-Serif" font-size="10.00">QList</text>
</a>
</g>
</g>
<!-- Node10&#45;&gt;Node15 -->
<g id="edge16_Node000010_Node000015" class="edge">
<title>Node10&#45;&gt;Node15</title>
<g id="a_edge16_Node000010_Node000015"><a xlink:title=" ">
<path fill="none" stroke="#63b8ff" d="M764.84,-109.98C756.5,-102.23 743.97,-90.58 733.82,-81.14"/>
<polygon fill="#63b8ff" stroke="#63b8ff" points="736.03,-78.42 726.32,-74.17 731.26,-83.54 736.03,-78.42"/>
</a>
</g>
</g>
<!-- Node16 -->
<g id="Node000016" class="node">
<title>Node16</title>
<g id="a_Node000016"><a xlink:title=" ">
<polygon fill="#e0e0e0" stroke="#999999" points="810.5,-74 755.5,-74 755.5,-55 810.5,-55 810.5,-74"/>
<text text-anchor="middle" x="783" y="-62" font-family="Helvetica,sans-Serif" font-size="10.00">QPointF</text>
</a>
</g>
</g>
<!-- Node10&#45;&gt;Node16 -->
<g id="edge17_Node000010_Node000016" class="edge">
<title>Node10&#45;&gt;Node16</title>
<g id="a_edge17_Node000010_Node000016"><a xlink:title=" ">
<path fill="none" stroke="#63b8ff" d="M775.49,-109.75C776.67,-102.8 778.36,-92.85 779.84,-84.13"/>
<polygon fill="#63b8ff" stroke="#63b8ff" points="783.32,-84.53 781.54,-74.09 776.42,-83.36 783.32,-84.53"/>
</a>
</g>
</g>
<!-- Node11&#45;&gt;Node8 -->
<g id="edge13_Node000011_Node000008" class="edge">
<title>Node11&#45;&gt;Node8</title>
<g id="a_edge13_Node000011_Node000008"><a xlink:title=" ">
<path fill="none" stroke="#63b8ff" d="M878.14,-54.98C838.15,-45.22 772.91,-29.29 732.33,-19.37"/>
<polygon fill="#63b8ff" stroke="#63b8ff" points="733.12,-15.96 722.57,-16.99 731.46,-22.76 733.12,-15.96"/>
</a>
</g>
</g>
<!-- Node12 -->
<g id="Node000012" class="node">
<title>Node12</title>
<g id="a_Node000012"><a xlink:title=" ">
<polygon fill="#e0e0e0" stroke="#999999" points="949.5,-19 876.5,-19 876.5,0 949.5,0 949.5,-19"/>
<text text-anchor="middle" x="913" y="-7" font-family="Helvetica,sans-Serif" font-size="10.00">QByteArray</text>
</a>
</g>
</g>
<!-- Node11&#45;&gt;Node12 -->
<g id="edge11_Node000011_Node000012" class="edge">
<title>Node11&#45;&gt;Node12</title>
<g id="a_edge11_Node000011_Node000012"><a xlink:title=" ">
<path fill="none" stroke="#63b8ff" d="M913,-54.75C913,-47.8 913,-37.85 913,-29.13"/>
<polygon fill="#63b8ff" stroke="#63b8ff" points="916.5,-29.09 913,-19.09 909.5,-29.09 916.5,-29.09"/>
</a>
</g>
</g>
<!-- Node11&#45;&gt;Node13 -->
<g id="edge12_Node000011_Node000013" class="edge">
<title>Node11&#45;&gt;Node13</title>
<g id="a_edge12_Node000011_Node000013"><a xlink:title=" ">
<path fill="none" stroke="#63b8ff" d="M940.15,-54.98C968.53,-46.09 1013.23,-32.07 1044.86,-22.15"/>
<polygon fill="#63b8ff" stroke="#63b8ff" points="1046.14,-25.41 1054.63,-19.08 1044.05,-18.73 1046.14,-25.41"/>
</a>
</g>
</g>
<!-- Node17&#45;&gt;Node8 -->
<g id="edge26_Node000017_Node000008" class="edge">
<title>Node17&#45;&gt;Node8</title>
<g id="a_edge26_Node000017_Node000008"><a xlink:title=" ">
<path fill="none" stroke="#63b8ff" d="M603.18,-109.97C588.67,-97.47 566.14,-73.65 579,-55 596.94,-28.98 632.25,-18.16 659.41,-13.67"/>
<polygon fill="#63b8ff" stroke="#63b8ff" points="659.97,-17.13 669.37,-12.24 658.97,-10.2 659.97,-17.13"/>
</a>
</g>
</g>
<!-- Node17&#45;&gt;Node13 -->
<g id="edge22_Node000017_Node000013" class="edge">
<title>Node17&#45;&gt;Node13</title>
<g id="a_edge22_Node000017_Node000013"><a xlink:title=" ">
<path fill="none" stroke="#63b8ff" d="M621.1,-109.67C633.15,-95.4 659.13,-67.58 688,-55 719.05,-41.47 935.27,-22.44 1033.56,-14.37"/>
<polygon fill="#63b8ff" stroke="#63b8ff" points="1034.14,-17.83 1043.82,-13.53 1033.57,-10.85 1034.14,-17.83"/>
</a>
</g>
</g>
<!-- Node17&#45;&gt;Node14 -->
<g id="edge21_Node000017_Node000014" class="edge">
<title>Node17&#45;&gt;Node14</title>
<g id="a_edge21_Node000017_Node000014"><a xlink:title=" ">
<path fill="none" stroke="#63b8ff" d="M595.04,-109.98C575.97,-101.42 546.34,-88.11 524.45,-78.28"/>
<polygon fill="#63b8ff" stroke="#63b8ff" points="525.86,-75.07 515.3,-74.17 522.99,-81.46 525.86,-75.07"/>
</a>
</g>
</g>
<!-- Node17&#45;&gt;Node15 -->
<g id="edge23_Node000017_Node000015" class="edge">
<title>Node17&#45;&gt;Node15</title>
<g id="a_edge23_Node000017_Node000015"><a xlink:title=" ">
<path fill="none" stroke="#63b8ff" d="M630.55,-109.98C646.89,-101.57 672.13,-88.59 691.13,-78.81"/>
<polygon fill="#63b8ff" stroke="#63b8ff" points="692.86,-81.86 700.15,-74.17 689.66,-75.63 692.86,-81.86"/>
</a>
</g>
</g>
<!-- Node17&#45;&gt;Node16 -->
<g id="edge24_Node000017_Node000016" class="edge">
<title>Node17&#45;&gt;Node16</title>
<g id="a_edge24_Node000017_Node000016"><a xlink:title=" ">
<path fill="none" stroke="#63b8ff" d="M641.15,-109.98C669.53,-101.09 714.23,-87.07 745.86,-77.15"/>
<polygon fill="#63b8ff" stroke="#63b8ff" points="747.14,-80.41 755.63,-74.08 745.05,-73.73 747.14,-80.41"/>
</a>
</g>
</g>
<!-- Node18 -->
<g id="Node000018" class="node">
<title>Node18</title>
<g id="a_Node000018"><a xlink:title=" ">
<polygon fill="#e0e0e0" stroke="#999999" points="640,-74 588,-74 588,-55 640,-55 640,-74"/>
<text text-anchor="middle" x="614" y="-62" font-family="Helvetica,sans-Serif" font-size="10.00">QRectF</text>
</a>
</g>
</g>
<!-- Node17&#45;&gt;Node18 -->
<g id="edge25_Node000017_Node000018" class="edge">
<title>Node17&#45;&gt;Node18</title>
<g id="a_edge25_Node000017_Node000018"><a xlink:title=" ">
<path fill="none" stroke="#63b8ff" d="M614,-109.75C614,-102.8 614,-92.85 614,-84.13"/>
<polygon fill="#63b8ff" stroke="#63b8ff" points="617.5,-84.09 614,-74.09 610.5,-84.09 617.5,-84.09"/>
</a>
</g>
</g>
<!-- Node24&#45;&gt;Node6 -->
<g id="edge43_Node000024_Node000006" class="edge">
<title>Node24&#45;&gt;Node6</title>
<g id="a_edge43_Node000024_Node000006"><a xlink:title=" ">
<path fill="none" stroke="#63b8ff" d="M1273.81,-219.89C1273.04,-206.42 1269.62,-180.31 1255,-165 1242.5,-151.91 1198.59,-138.36 1165.89,-129.7"/>
<polygon fill="#63b8ff" stroke="#63b8ff" points="1166.7,-126.3 1156.14,-127.18 1164.95,-133.08 1166.7,-126.3"/>
</a>
</g>
</g>
<!-- Node24&#45;&gt;Node8 -->
<g id="edge45_Node000024_Node000008" class="edge">
<title>Node24&#45;&gt;Node8</title>
<g id="a_edge45_Node000024_Node000008"><a xlink:title=" ">
<path fill="none" stroke="#63b8ff" d="M1276.64,-219.93C1280.08,-206.97 1284.52,-182.09 1274,-165 1259.78,-141.89 1190.56,-119.09 1165,-110 1094.69,-84.99 1070.59,-100.93 1001,-74 985.22,-67.89 983.94,-60.68 968,-55 887.08,-26.17 785.88,-15.89 732.65,-12.32"/>
<polygon fill="#63b8ff" stroke="#63b8ff" points="732.86,-8.83 722.66,-11.69 732.42,-15.81 732.86,-8.83"/>
</a>
</g>
</g>
<!-- Node24&#45;&gt;Node23 -->
<g id="edge46_Node000024_Node000023" class="edge">
<title>Node24&#45;&gt;Node23</title>
<g id="a_edge46_Node000024_Node000023"><a xlink:title=" ">
<path fill="none" stroke="#63b8ff" d="M1263.88,-219.98C1254.56,-212.15 1240.53,-200.34 1229.26,-190.86"/>
<polygon fill="#63b8ff" stroke="#63b8ff" points="1231.21,-187.93 1221.31,-184.17 1226.71,-193.29 1231.21,-187.93"/>
</a>
</g>
</g>
<!-- Node25 -->
<g id="Node000025" class="node">
<title>Node25</title>
<g id="a_Node000025"><a xlink:title=" ">
<polygon fill="#e0e0e0" stroke="#999999" points="1380,-184 1340,-184 1340,-165 1380,-165 1380,-184"/>
<text text-anchor="middle" x="1360" y="-172" font-family="Helvetica,sans-Serif" font-size="10.00">QSet</text>
</a>
</g>
</g>
<!-- Node24&#45;&gt;Node25 -->
<g id="edge44_Node000024_Node000025" class="edge">
<title>Node24&#45;&gt;Node25</title>
<g id="a_edge44_Node000024_Node000025"><a xlink:title=" ">
<path fill="none" stroke="#63b8ff" d="M1287.82,-219.98C1301.15,-211.77 1321.58,-199.18 1337.31,-189.49"/>
<polygon fill="#63b8ff" stroke="#63b8ff" points="1339.25,-192.4 1345.93,-184.17 1335.58,-186.44 1339.25,-192.4"/>
</a>
</g>
</g>
<!-- Node26&#45;&gt;Node6 -->
<g id="edge50_Node000026_Node000006" class="edge">
<title>Node26&#45;&gt;Node6</title>
<g id="a_edge50_Node000026_Node000006"><a xlink:title=" ">
<path fill="none" stroke="#63b8ff" d="M1418.41,-164.98C1347.62,-154.14 1227.18,-135.69 1166.03,-126.33"/>
<polygon fill="#63b8ff" stroke="#63b8ff" points="1166.45,-122.85 1156.04,-124.8 1165.39,-129.77 1166.45,-122.85"/>
</a>
</g>
</g>
<!-- Node26&#45;&gt;Node8 -->
<g id="edge52_Node000026_Node000008" class="edge">
<title>Node26&#45;&gt;Node8</title>
<g id="a_edge52_Node000026_Node000008"><a xlink:title=" ">
<path fill="none" stroke="#63b8ff" d="M1440.79,-164.97C1340.51,-139.26 1045.02,-63.7 1001,-55 904.88,-36 790.23,-21.41 732.73,-14.65"/>
<polygon fill="#63b8ff" stroke="#63b8ff" points="733.01,-11.16 722.67,-13.48 732.2,-18.11 733.01,-11.16"/>
</a>
</g>
</g>
<!-- Node26&#45;&gt;Node13 -->
<g id="edge48_Node000026_Node000013" class="edge">
<title>Node26&#45;&gt;Node13</title>
<g id="a_edge48_Node000026_Node000013"><a xlink:title=" ">
<path fill="none" stroke="#63b8ff" d="M1436.68,-164.99C1408.15,-157.66 1368.36,-145.62 1336,-129 1286.82,-103.74 1285.56,-79.51 1236,-55 1202.23,-38.3 1161.12,-26.82 1129.87,-19.71"/>
<polygon fill="#63b8ff" stroke="#63b8ff" points="1130.62,-16.29 1120.1,-17.55 1129.11,-23.13 1130.62,-16.29"/>
</a>
</g>
</g>
<!-- Node27 -->
<g id="Node000027" class="node">
<title>Node27</title>
<g id="a_Node000027"><a xlink:title=" ">
<polygon fill="#e0e0e0" stroke="#999999" points="1472.5,-129 1417.5,-129 1417.5,-110 1472.5,-110 1472.5,-129"/>
<text text-anchor="middle" x="1445" y="-117" font-family="Helvetica,sans-Serif" font-size="10.00">QMutex</text>
</a>
</g>
</g>
<!-- Node26&#45;&gt;Node27 -->
<g id="edge49_Node000026_Node000027" class="edge">
<title>Node26&#45;&gt;Node27</title>
<g id="a_edge49_Node000026_Node000027"><a xlink:title=" ">
<path fill="none" stroke="#63b8ff" d="M1469.21,-164.75C1465.24,-157.49 1459.47,-146.95 1454.57,-137.98"/>
<polygon fill="#63b8ff" stroke="#63b8ff" points="1457.57,-136.18 1449.7,-129.09 1451.43,-139.54 1457.57,-136.18"/>
</a>
</g>
</g>
<!-- Node28 -->
<g id="Node000028" class="node">
<title>Node28</title>
<g id="a_Node000028"><a xlink:title=" ">
<polygon fill="#e0e0e0" stroke="#999999" points="1549.5,-129 1490.5,-129 1490.5,-110 1549.5,-110 1549.5,-129"/>
<text text-anchor="middle" x="1520" y="-117" font-family="Helvetica,sans-Serif" font-size="10.00">QPointer</text>
</a>
</g>
</g>
<!-- Node26&#45;&gt;Node28 -->
<g id="edge51_Node000026_Node000028" class="edge">
<title>Node26&#45;&gt;Node28</title>
<g id="a_edge51_Node000026_Node000028"><a xlink:title=" ">
<path fill="none" stroke="#63b8ff" d="M1481.6,-164.75C1488.16,-157.18 1497.82,-146.05 1505.81,-136.84"/>
<polygon fill="#63b8ff" stroke="#63b8ff" points="1508.63,-138.94 1512.55,-129.09 1503.35,-134.35 1508.63,-138.94"/>
</a>
</g>
</g>
<!-- Node29 -->
<g id="Node000029" class="node">
<title>Node29</title>
<g id="a_Node000029"><a xlink:title=" ">
<polygon fill="#e0e0e0" stroke="#999999" points="1399.5,-129 1344.5,-129 1344.5,-110 1399.5,-110 1399.5,-129"/>
<text text-anchor="middle" x="1372" y="-117" font-family="Helvetica,sans-Serif" font-size="10.00">QVector</text>
</a>
</g>
</g>
<!-- Node26&#45;&gt;Node29 -->
<g id="edge53_Node000026_Node000029" class="edge">
<title>Node26&#45;&gt;Node29</title>
<g id="a_edge53_Node000026_Node000029"><a xlink:title=" ">
<path fill="none" stroke="#63b8ff" d="M1457.61,-164.98C1441.43,-156.57 1416.43,-143.59 1397.62,-133.81"/>
<polygon fill="#63b8ff" stroke="#63b8ff" points="1399.17,-130.68 1388.69,-129.17 1395.95,-136.89 1399.17,-130.68"/>
</a>
</g>
</g>
<!-- Node30&#45;&gt;Node6 -->
<g id="edge58_Node000030_Node000006" class="edge">
<title>Node30&#45;&gt;Node6</title>
<g id="a_edge58_Node000030_Node000006"><a xlink:title=" ">
<path fill="none" stroke="#63b8ff" d="M983.63,-164.98C1012.51,-156.09 1058.01,-142.07 1090.2,-132.15"/>
<polygon fill="#63b8ff" stroke="#63b8ff" points="1091.62,-135.37 1100.15,-129.08 1089.56,-128.68 1091.62,-135.37"/>
</a>
</g>
</g>
<!-- Node30&#45;&gt;Node10 -->
<g id="edge55_Node000030_Node000010" class="edge">
<title>Node30&#45;&gt;Node10</title>
<g id="a_edge55_Node000030_Node000010"><a xlink:title=" ">
<path fill="none" stroke="#63b8ff" d="M926.76,-164.98C895.94,-156.01 847.22,-141.82 813.11,-131.89"/>
<polygon fill="#63b8ff" stroke="#63b8ff" points="814.05,-128.52 803.47,-129.08 812.09,-135.24 814.05,-128.52"/>
</a>
</g>
</g>
<!-- Node30&#45;&gt;Node13 -->
<g id="edge57_Node000030_Node000013" class="edge">
<title>Node30&#45;&gt;Node13</title>
<g id="a_edge57_Node000030_Node000013"><a xlink:title=" ">
<path fill="none" stroke="#63b8ff" d="M974.04,-164.95C1001.95,-150.6 1054.7,-118.8 1077,-74 1083.86,-60.22 1084.74,-42.65 1084.11,-29.48"/>
<polygon fill="#63b8ff" stroke="#63b8ff" points="1087.58,-28.94 1083.28,-19.26 1080.6,-29.5 1087.58,-28.94"/>
</a>
</g>
</g>
<!-- Node30&#45;&gt;Node17 -->
<g id="edge56_Node000030_Node000017" class="edge">
<title>Node30&#45;&gt;Node17</title>
<g id="a_edge56_Node000030_Node000017"><a xlink:title=" ">
<path fill="none" stroke="#63b8ff" d="M901.05,-164.98C836.75,-155.02 731,-138.63 667.38,-128.77"/>
<polygon fill="#63b8ff" stroke="#63b8ff" points="667.58,-125.26 657.16,-127.19 666.51,-132.18 667.58,-125.26"/>
</a>
</g>
</g>
<!-- Node30&#45;&gt;Node19 -->
<g id="edge59_Node000030_Node000019" class="edge">
<title>Node30&#45;&gt;Node19</title>
<g id="a_edge59_Node000030_Node000019"><a xlink:title=" ">
<path fill="none" stroke="#63b8ff" d="M956.66,-164.75C957.18,-157.8 957.94,-147.85 958.59,-139.13"/>
<polygon fill="#63b8ff" stroke="#63b8ff" points="962.09,-139.32 959.35,-129.09 955.11,-138.8 962.09,-139.32"/>
</a>
</g>
</g>
</g>
</svg>
