<?xml version="1.0" encoding="UTF-8" standalone="no"?>
<!DOCTYPE svg PUBLIC "-//W3C//DTD SVG 1.1//EN"
 "http://www.w3.org/Graphics/SVG/1.1/DTD/svg11.dtd">
<!-- Generated by graphviz version 2.43.0 (0)
 -->
<!-- Title: models/ComponentExportStatus.h Pages: 1 -->
<svg width="867pt" height="280pt"
 viewBox="0.00 0.00 866.80 280.00" xmlns="http://www.w3.org/2000/svg" xmlns:xlink="http://www.w3.org/1999/xlink">
<g id="graph0" class="graph" transform="scale(1 1) rotate(0) translate(4 276)">
<title>models/ComponentExportStatus.h</title>
<!-- Node1 -->
<g id="Node000001" class="node">
<title>Node1</title>
<g id="a_Node000001"><a xlink:title=" ">
<polygon fill="#999999" stroke="#666666" points="505.8,-272 322.8,-272 322.8,-253 505.8,-253 505.8,-272"/>
<text text-anchor="middle" x="414.3" y="-260" font-family="Helvetica,sans-Serif" font-size="10.00">models/ComponentExportStatus.h</text>
</a>
</g>
</g>
<!-- Node2 -->
<g id="Node000002" class="node">
<title>Node2</title>
<g id="a_Node000002"><a xlink:href="ExportService__Pipeline_8h.html" target="_top" xlink:title=" ">
<polygon fill="white" stroke="#666666" points="267.3,-162 139.3,-162 139.3,-132 267.3,-132 267.3,-162"/>
<text text-anchor="start" x="147.3" y="-150" font-family="Helvetica,sans-Serif" font-size="10.00">services/ExportService</text>
<text text-anchor="middle" x="203.3" y="-139" font-family="Helvetica,sans-Serif" font-size="10.00">_Pipeline.h</text>
</a>
</g>
</g>
<!-- Node1&#45;&gt;Node2 -->
<g id="edge1_Node000001_Node000002" class="edge">
<title>Node1&#45;&gt;Node2</title>
<g id="a_edge1_Node000001_Node000002"><a xlink:title=" ">
<path fill="none" stroke="#63b8ff" d="M322.8,-250.69C295.9,-244.17 267.72,-233.72 245.3,-217 226.52,-203 214.37,-177.9 208.19,-162.14"/>
<polygon fill="#63b8ff" stroke="#63b8ff" points="322.11,-254.13 332.63,-252.92 323.66,-247.3 322.11,-254.13"/>
</a>
</g>
</g>
<!-- Node8 -->
<g id="Node000008" class="node">
<title>Node8</title>
<g id="a_Node000008"><a xlink:href="FetchWorker_8h.html" target="_top" xlink:title=" ">
<polygon fill="white" stroke="#666666" points="380.3,-217 254.3,-217 254.3,-198 380.3,-198 380.3,-217"/>
<text text-anchor="middle" x="317.3" y="-205" font-family="Helvetica,sans-Serif" font-size="10.00">workers/FetchWorker.h</text>
</a>
</g>
</g>
<!-- Node1&#45;&gt;Node8 -->
<g id="edge9_Node000001_Node000008" class="edge">
<title>Node1&#45;&gt;Node8</title>
<g id="a_edge9_Node000001_Node000008"><a xlink:title=" ">
<path fill="none" stroke="#63b8ff" d="M389.53,-247.97C371.8,-238.28 348.45,-225.52 333.17,-217.17"/>
<polygon fill="#63b8ff" stroke="#63b8ff" points="388.26,-251.26 398.71,-252.98 391.62,-245.12 388.26,-251.26"/>
</a>
</g>
</g>
<!-- Node10 -->
<g id="Node000010" class="node">
<title>Node10</title>
<g id="a_Node000010"><a xlink:href="ProcessWorker_8h.html" target="_top" xlink:title=" ">
<polygon fill="white" stroke="#666666" points="557.8,-217 420.8,-217 420.8,-198 557.8,-198 557.8,-217"/>
<text text-anchor="middle" x="489.3" y="-205" font-family="Helvetica,sans-Serif" font-size="10.00">workers/ProcessWorker.h</text>
</a>
</g>
</g>
<!-- Node1&#45;&gt;Node10 -->
<g id="edge13_Node000001_Node000010" class="edge">
<title>Node1&#45;&gt;Node10</title>
<g id="a_edge13_Node000001_Node000010"><a xlink:title=" ">
<path fill="none" stroke="#63b8ff" d="M434.6,-247.15C448.16,-237.57 465.54,-225.29 477.03,-217.17"/>
<polygon fill="#63b8ff" stroke="#63b8ff" points="432.49,-244.36 426.35,-252.98 436.53,-250.07 432.49,-244.36"/>
</a>
</g>
</g>
<!-- Node12 -->
<g id="Node000012" class="node">
<title>Node12</title>
<g id="a_Node000012"><a xlink:href="WriteWorker_8h.html" target="_top" xlink:title=" ">
<polygon fill="white" stroke="#666666" points="756.3,-217 630.3,-217 630.3,-198 756.3,-198 756.3,-217"/>
<text text-anchor="middle" x="693.3" y="-205" font-family="Helvetica,sans-Serif" font-size="10.00">workers/WriteWorker.h</text>
</a>
</g>
</g>
<!-- Node1&#45;&gt;Node12 -->
<g id="edge16_Node000001_Node000012" class="edge">
<title>Node1&#45;&gt;Node12</title>
<g id="a_edge16_Node000001_Node000012"><a xlink:title=" ">
<path fill="none" stroke="#63b8ff" d="M469.23,-251.07C521.53,-241.13 599.31,-226.35 648.12,-217.08"/>
<polygon fill="#63b8ff" stroke="#63b8ff" points="468.3,-247.68 459.12,-252.98 469.6,-254.56 468.3,-247.68"/>
</a>
</g>
</g>
<!-- Node3 -->
<g id="Node000003" class="node">
<title>Node3</title>
<g id="a_Node000003"><a xlink:href="main_8cpp.html" target="_top" xlink:title=" ">
<polygon fill="white" stroke="#666666" points="62.3,-24.5 0.3,-24.5 0.3,-5.5 62.3,-5.5 62.3,-24.5"/>
<text text-anchor="middle" x="31.3" y="-12.5" font-family="Helvetica,sans-Serif" font-size="10.00">main.cpp</text>
</a>
</g>
</g>
<!-- Node2&#45;&gt;Node3 -->
<g id="edge2_Node000002_Node000003" class="edge">
<title>Node2&#45;&gt;Node3</title>
<g id="a_edge2_Node000002_Node000003"><a xlink:title=" ">
<path fill="none" stroke="#63b8ff" d="M129.03,-136.69C79.81,-128.82 21.58,-115.64 6.3,-96 -10.77,-74.06 11.55,-40.33 23.98,-24.61"/>
<polygon fill="#63b8ff" stroke="#63b8ff" points="128.65,-140.17 139.06,-138.24 129.72,-133.25 128.65,-140.17"/>
</a>
</g>
</g>
<!-- Node4 -->
<g id="Node000004" class="node">
<title>Node4</title>
<g id="a_Node000004"><a xlink:href="ExportService__Pipeline_8cpp.html" target="_top" xlink:title=" ">
<polygon fill="white" stroke="#666666" points="550.3,-96 422.3,-96 422.3,-66 550.3,-66 550.3,-96"/>
<text text-anchor="start" x="430.3" y="-84" font-family="Helvetica,sans-Serif" font-size="10.00">services/ExportService</text>
<text text-anchor="middle" x="486.3" y="-73" font-family="Helvetica,sans-Serif" font-size="10.00">_Pipeline.cpp</text>
</a>
</g>
</g>
<!-- Node2&#45;&gt;Node4 -->
<g id="edge3_Node000002_Node000004" class="edge">
<title>Node2&#45;&gt;Node4</title>
<g id="a_edge3_Node000002_Node000004"><a xlink:title=" ">
<path fill="none" stroke="#63b8ff" d="M275.31,-129.71C321.34,-119.31 380.41,-105.95 424.34,-96.01"/>
<polygon fill="#63b8ff" stroke="#63b8ff" points="274.39,-126.34 265.4,-131.95 275.93,-133.16 274.39,-126.34"/>
</a>
</g>
</g>
<!-- Node5 -->
<g id="Node000005" class="node">
<title>Node5</title>
<g id="a_Node000005"><a xlink:href="ExportProgressViewModel_8cpp.html" target="_top" xlink:title=" ">
<polygon fill="white" stroke="#666666" points="266.3,-30 102.3,-30 102.3,0 266.3,0 266.3,-30"/>
<text text-anchor="start" x="110.3" y="-18" font-family="Helvetica,sans-Serif" font-size="10.00">ui/viewmodels/ExportProgress</text>
<text text-anchor="middle" x="184.3" y="-7" font-family="Helvetica,sans-Serif" font-size="10.00">ViewModel.cpp</text>
</a>
</g>
</g>
<!-- Node2&#45;&gt;Node5 -->
<g id="edge4_Node000002_Node000005" class="edge">
<title>Node2&#45;&gt;Node5</title>
<g id="a_edge4_Node000002_Node000005"><a xlink:title=" ">
<path fill="none" stroke="#63b8ff" d="M199.74,-121.68C195.8,-94.7 189.58,-52.11 186.36,-30.14"/>
<polygon fill="#63b8ff" stroke="#63b8ff" points="196.32,-122.45 201.23,-131.84 203.25,-121.44 196.32,-122.45"/>
</a>
</g>
</g>
<!-- Node6 -->
<g id="Node000006" class="node">
<title>Node6</title>
<g id="a_Node000006"><a xlink:href="ExportProgressViewModel_8h.html" target="_top" xlink:title=" ">
<polygon fill="white" stroke="#666666" points="179.3,-96 15.3,-96 15.3,-66 179.3,-66 179.3,-96"/>
<text text-anchor="start" x="23.3" y="-84" font-family="Helvetica,sans-Serif" font-size="10.00">ui/viewmodels/ExportProgress</text>
<text text-anchor="middle" x="97.3" y="-73" font-family="Helvetica,sans-Serif" font-size="10.00">ViewModel.h</text>
</a>
</g>
</g>
<!-- Node2&#45;&gt;Node6 -->
<g id="edge5_Node000002_Node000006" class="edge">
<title>Node2&#45;&gt;Node6</title>
<g id="a_edge5_Node000002_Node000006"><a xlink:title=" ">
<path fill="none" stroke="#63b8ff" d="M171.32,-126.69C154.96,-116.82 135.41,-105.01 120.51,-96.01"/>
<polygon fill="#63b8ff" stroke="#63b8ff" points="169.67,-129.78 180.04,-131.95 173.28,-123.79 169.67,-129.78"/>
</a>
</g>
</g>
<!-- Node7 -->
<g id="Node000007" class="node">
<title>Node7</title>
<g id="a_Node000007"><a xlink:href="ExportSettingsViewModel_8cpp.html" target="_top" xlink:title=" ">
<polygon fill="white" stroke="#666666" points="397.3,-96 235.3,-96 235.3,-66 397.3,-66 397.3,-96"/>
<text text-anchor="start" x="243.3" y="-84" font-family="Helvetica,sans-Serif" font-size="10.00">ui/viewmodels/ExportSettings</text>
<text text-anchor="middle" x="316.3" y="-73" font-family="Helvetica,sans-Serif" font-size="10.00">ViewModel.cpp</text>
</a>
</g>
</g>
<!-- Node2&#45;&gt;Node7 -->
<g id="edge8_Node000002_Node000007" class="edge">
<title>Node2&#45;&gt;Node7</title>
<g id="a_edge8_Node000002_Node000007"><a xlink:title=" ">
<path fill="none" stroke="#63b8ff" d="M236.9,-126.97C254.44,-117.03 275.53,-105.09 291.56,-96.01"/>
<polygon fill="#63b8ff" stroke="#63b8ff" points="235.07,-123.98 228.1,-131.95 238.52,-130.07 235.07,-123.98"/>
</a>
</g>
</g>
<!-- Node6&#45;&gt;Node3 -->
<g id="edge6_Node000006_Node000003" class="edge">
<title>Node6&#45;&gt;Node3</title>
<g id="a_edge6_Node000006_Node000003"><a xlink:title=" ">
<path fill="none" stroke="#63b8ff" d="M75.23,-58.6C63.36,-47.1 49.37,-33.52 40.42,-24.84"/>
<polygon fill="#63b8ff" stroke="#63b8ff" points="73.03,-61.35 82.65,-65.8 77.91,-56.32 73.03,-61.35"/>
</a>
</g>
</g>
<!-- Node6&#45;&gt;Node5 -->
<g id="edge7_Node000006_Node000005" class="edge">
<title>Node6&#45;&gt;Node5</title>
<g id="a_edge7_Node000006_Node000005"><a xlink:title=" ">
<path fill="none" stroke="#63b8ff" d="M124.82,-59.75C137.9,-50.13 153.23,-38.86 165.04,-30.16"/>
<polygon fill="#63b8ff" stroke="#63b8ff" points="122.59,-57.05 116.61,-65.8 126.74,-62.69 122.59,-57.05"/>
</a>
</g>
</g>
<!-- Node8&#45;&gt;Node2 -->
<g id="edge11_Node000008_Node000002" class="edge">
<title>Node8&#45;&gt;Node2</title>
<g id="a_edge11_Node000008_Node000002"><a xlink:title=" ">
<path fill="none" stroke="#63b8ff" d="M291.13,-193.07C273.08,-183.81 249.13,-171.52 230.8,-162.11"/>
<polygon fill="#63b8ff" stroke="#63b8ff" points="289.98,-196.42 300.48,-197.87 293.18,-190.19 289.98,-196.42"/>
</a>
</g>
</g>
<!-- Node8&#45;&gt;Node4 -->
<g id="edge10_Node000008_Node000004" class="edge">
<title>Node8&#45;&gt;Node4</title>
<g id="a_edge10_Node000008_Node000004"><a xlink:title=" ">
<path fill="none" stroke="#63b8ff" d="M310.57,-188.11C305.86,-171.73 302.31,-147.96 314.3,-132 321.25,-122.74 378.38,-107.32 424.92,-96.05"/>
<polygon fill="#63b8ff" stroke="#63b8ff" points="307.25,-189.22 313.68,-197.64 313.91,-187.05 307.25,-189.22"/>
</a>
</g>
</g>
<!-- Node9 -->
<g id="Node000009" class="node">
<title>Node9</title>
<g id="a_Node000009"><a xlink:href="FetchWorker_8cpp.html" target="_top" xlink:title=" ">
<polygon fill="white" stroke="#666666" points="460.8,-156.5 323.8,-156.5 323.8,-137.5 460.8,-137.5 460.8,-156.5"/>
<text text-anchor="middle" x="392.3" y="-144.5" font-family="Helvetica,sans-Serif" font-size="10.00">workers/FetchWorker.cpp</text>
</a>
</g>
</g>
<!-- Node8&#45;&gt;Node9 -->
<g id="edge12_Node000008_Node000009" class="edge">
<title>Node8&#45;&gt;Node9</title>
<g id="a_edge12_Node000008_Node000009"><a xlink:title=" ">
<path fill="none" stroke="#63b8ff" d="M336.48,-191.54C350.64,-180.49 369.43,-165.84 381.19,-156.67"/>
<polygon fill="#63b8ff" stroke="#63b8ff" points="334.1,-188.96 328.36,-197.87 338.4,-194.48 334.1,-188.96"/>
</a>
</g>
</g>
<!-- Node10&#45;&gt;Node4 -->
<g id="edge14_Node000010_Node000004" class="edge">
<title>Node10&#45;&gt;Node4</title>
<g id="a_edge14_Node000010_Node000004"><a xlink:title=" ">
<path fill="none" stroke="#63b8ff" d="M488.85,-187.91C488.25,-162.83 487.18,-118.72 486.64,-96.16"/>
<polygon fill="#63b8ff" stroke="#63b8ff" points="485.35,-188.03 489.09,-197.94 492.35,-187.86 485.35,-188.03"/>
</a>
</g>
</g>
<!-- Node11 -->
<g id="Node000011" class="node">
<title>Node11</title>
<g id="a_Node000011"><a xlink:href="ProcessWorker_8cpp.html" target="_top" xlink:title=" ">
<polygon fill="white" stroke="#666666" points="665.8,-156.5 516.8,-156.5 516.8,-137.5 665.8,-137.5 665.8,-156.5"/>
<text text-anchor="middle" x="591.3" y="-144.5" font-family="Helvetica,sans-Serif" font-size="10.00">workers/ProcessWorker.cpp</text>
</a>
</g>
</g>
<!-- Node10&#45;&gt;Node11 -->
<g id="edge15_Node000010_Node000011" class="edge">
<title>Node10&#45;&gt;Node11</title>
<g id="a_edge15_Node000010_Node000011"><a xlink:title=" ">
<path fill="none" stroke="#63b8ff" d="M513.23,-192.77C532.71,-181.6 559.59,-166.19 576.19,-156.67"/>
<polygon fill="#63b8ff" stroke="#63b8ff" points="511.28,-189.86 504.35,-197.87 514.76,-195.93 511.28,-189.86"/>
</a>
</g>
</g>
<!-- Node12&#45;&gt;Node4 -->
<g id="edge17_Node000012_Node000004" class="edge">
<title>Node12&#45;&gt;Node4</title>
<g id="a_edge17_Node000012_Node000004"><a xlink:title=" ">
<path fill="none" stroke="#63b8ff" d="M693.55,-187.52C692.72,-170.72 688.79,-146.64 674.3,-132 642.1,-99.48 591.32,-87.37 550.65,-83.19"/>
<polygon fill="#63b8ff" stroke="#63b8ff" points="690.05,-187.85 693.72,-197.79 697.05,-187.73 690.05,-187.85"/>
</a>
</g>
</g>
<!-- Node13 -->
<g id="Node000013" class="node">
<title>Node13</title>
<g id="a_Node000013"><a xlink:href="WriteWorker_8cpp.html" target="_top" xlink:title=" ">
<polygon fill="white" stroke="#666666" points="858.8,-156.5 721.8,-156.5 721.8,-137.5 858.8,-137.5 858.8,-156.5"/>
<text text-anchor="middle" x="790.3" y="-144.5" font-family="Helvetica,sans-Serif" font-size="10.00">workers/WriteWorker.cpp</text>
</a>
</g>
</g>
<!-- Node12&#45;&gt;Node13 -->
<g id="edge18_Node000012_Node000013" class="edge">
<title>Node12&#45;&gt;Node13</title>
<g id="a_edge18_Node000012_Node000013"><a xlink:title=" ">
<path fill="none" stroke="#63b8ff" d="M716.31,-192.62C734.81,-181.46 760.21,-166.14 775.93,-156.67"/>
<polygon fill="#63b8ff" stroke="#63b8ff" points="714.37,-189.71 707.61,-197.87 717.98,-195.7 714.37,-189.71"/>
</a>
</g>
</g>
</g>
</svg>
