<?xml version="1.0" encoding="UTF-8" standalone="no"?>
<!DOCTYPE svg PUBLIC "-//W3C//DTD SVG 1.1//EN"
 "http://www.w3.org/Graphics/SVG/1.1/DTD/svg11.dtd">
<!-- Generated by graphviz version 2.43.0 (0)
 -->
<!-- Title: models/ComponentData.h Pages: 1 -->
<svg width="705pt" height="192pt"
 viewBox="0.00 0.00 704.61 192.00" xmlns="http://www.w3.org/2000/svg" xmlns:xlink="http://www.w3.org/1999/xlink">
<g id="graph0" class="graph" transform="scale(1 1) rotate(0) translate(4 188)">
<title>models/ComponentData.h</title>
<!-- Node1 -->
<g id="Node000001" class="node">
<title>Node1</title>
<g id="a_Node000001"><a xlink:title=" ">
<polygon fill="#999999" stroke="#666666" points="379.61,-184 235.61,-184 235.61,-165 379.61,-165 379.61,-184"/>
<text text-anchor="middle" x="307.61" y="-172" font-family="Helvetica,sans-Serif" font-size="10.00">models/ComponentData.h</text>
</a>
</g>
</g>
<!-- Node2 -->
<g id="Node000002" class="node">
<title>Node2</title>
<g id="a_Node000002"><a xlink:href="FootprintData_8h.html" target="_top" xlink:title=" ">
<polygon fill="white" stroke="#666666" points="272.61,-129 180.61,-129 180.61,-110 272.61,-110 272.61,-129"/>
<text text-anchor="middle" x="226.61" y="-117" font-family="Helvetica,sans-Serif" font-size="10.00">FootprintData.h</text>
</a>
</g>
</g>
<!-- Node1&#45;&gt;Node2 -->
<g id="edge1_Node000001_Node000002" class="edge">
<title>Node1&#45;&gt;Node2</title>
<g id="a_edge1_Node000001_Node000002"><a xlink:title=" ">
<path fill="none" stroke="#63b8ff" d="M294.59,-164.98C282.15,-156.84 263.15,-144.41 248.4,-134.76"/>
<polygon fill="#63b8ff" stroke="#63b8ff" points="250.14,-131.72 239.86,-129.17 246.31,-137.57 250.14,-131.72"/>
</a>
</g>
</g>
<!-- Node3 -->
<g id="Node000003" class="node">
<title>Node3</title>
<g id="a_Node000003"><a xlink:href="Model3DData_8h.html" target="_top" xlink:title=" ">
<polygon fill="white" stroke="#666666" points="104.61,-74 12.61,-74 12.61,-55 104.61,-55 104.61,-74"/>
<text text-anchor="middle" x="58.61" y="-62" font-family="Helvetica,sans-Serif" font-size="10.00">Model3DData.h</text>
</a>
</g>
</g>
<!-- Node1&#45;&gt;Node3 -->
<g id="edge11_Node000001_Node000003" class="edge">
<title>Node1&#45;&gt;Node3</title>
<g id="a_edge11_Node000001_Node000003"><a xlink:title=" ">
<path fill="none" stroke="#63b8ff" d="M275.62,-164.96C247.64,-157.03 206.18,-144.19 171.61,-129 138.62,-114.5 102.69,-93.3 80.4,-79.45"/>
<polygon fill="#63b8ff" stroke="#63b8ff" points="82.07,-76.36 71.74,-74 78.34,-82.29 82.07,-76.36"/>
</a>
</g>
</g>
<!-- Node5 -->
<g id="Node000005" class="node">
<title>Node5</title>
<g id="a_Node000005"><a xlink:title=" ">
<polygon fill="#e0e0e0" stroke="#999999" points="170.61,-19 94.61,-19 94.61,0 170.61,0 170.61,-19"/>
<text text-anchor="middle" x="132.61" y="-7" font-family="Helvetica,sans-Serif" font-size="10.00">QJsonObject</text>
</a>
</g>
</g>
<!-- Node1&#45;&gt;Node5 -->
<g id="edge20_Node000001_Node000005" class="edge">
<title>Node1&#45;&gt;Node5</title>
<g id="a_edge20_Node000001_Node000005"><a xlink:title=" ">
<path fill="none" stroke="#63b8ff" d="M258.19,-164.94C179.56,-150.16 31.89,-117.21 3.61,-74 -1.02,-66.93 -1.29,-61.88 3.61,-55 13.39,-41.28 52.15,-29.06 84.65,-20.92"/>
<polygon fill="#63b8ff" stroke="#63b8ff" points="85.61,-24.29 94.5,-18.52 83.95,-17.49 85.61,-24.29"/>
</a>
</g>
</g>
<!-- Node6 -->
<g id="Node000006" class="node">
<title>Node6</title>
<g id="a_Node000006"><a xlink:title=" ">
<polygon fill="#e0e0e0" stroke="#999999" points="403.11,-19 350.11,-19 350.11,0 403.11,0 403.11,-19"/>
<text text-anchor="middle" x="376.61" y="-7" font-family="Helvetica,sans-Serif" font-size="10.00">QString</text>
</a>
</g>
</g>
<!-- Node1&#45;&gt;Node6 -->
<g id="edge22_Node000001_Node000006" class="edge">
<title>Node1&#45;&gt;Node6</title>
<g id="a_edge22_Node000001_Node000006"><a xlink:title=" ">
<path fill="none" stroke="#63b8ff" d="M375.97,-164.95C430.32,-154.06 502.51,-129.44 535.61,-74 563.73,-26.88 468.62,-14.7 413.37,-11.57"/>
<polygon fill="#63b8ff" stroke="#63b8ff" points="413.39,-8.06 403.23,-11.07 413.05,-15.06 413.39,-8.06"/>
</a>
</g>
</g>
<!-- Node7 -->
<g id="Node000007" class="node">
<title>Node7</title>
<g id="a_Node000007"><a xlink:title=" ">
<polygon fill="#e0e0e0" stroke="#999999" points="343.11,-74 272.11,-74 272.11,-55 343.11,-55 343.11,-74"/>
<text text-anchor="middle" x="307.61" y="-62" font-family="Helvetica,sans-Serif" font-size="10.00">QJsonArray</text>
</a>
</g>
</g>
<!-- Node1&#45;&gt;Node7 -->
<g id="edge19_Node000001_Node000007" class="edge">
<title>Node1&#45;&gt;Node7</title>
<g id="a_edge19_Node000001_Node000007"><a xlink:title=" ">
<path fill="none" stroke="#63b8ff" d="M307.61,-164.66C307.61,-147.17 307.61,-107.8 307.61,-84.27"/>
<polygon fill="#63b8ff" stroke="#63b8ff" points="311.11,-84.16 307.61,-74.16 304.11,-84.16 311.11,-84.16"/>
</a>
</g>
</g>
<!-- Node10 -->
<g id="Node000010" class="node">
<title>Node10</title>
<g id="a_Node000010"><a xlink:href="SymbolData_8h.html" target="_top" xlink:title=" ">
<polygon fill="white" stroke="#666666" points="424.61,-129 338.61,-129 338.61,-110 424.61,-110 424.61,-129"/>
<text text-anchor="middle" x="381.61" y="-117" font-family="Helvetica,sans-Serif" font-size="10.00">SymbolData.h</text>
</a>
</g>
</g>
<!-- Node1&#45;&gt;Node10 -->
<g id="edge12_Node000001_Node000010" class="edge">
<title>Node1&#45;&gt;Node10</title>
<g id="a_edge12_Node000001_Node000010"><a xlink:title=" ">
<path fill="none" stroke="#63b8ff" d="M319.5,-164.98C330.76,-156.92 347.89,-144.65 361.32,-135.03"/>
<polygon fill="#63b8ff" stroke="#63b8ff" points="363.41,-137.84 369.5,-129.17 359.33,-132.15 363.41,-137.84"/>
</a>
</g>
</g>
<!-- Node12 -->
<g id="Node000012" class="node">
<title>Node12</title>
<g id="a_Node000012"><a xlink:title=" ">
<polygon fill="#e0e0e0" stroke="#999999" points="696.61,-129 604.61,-129 604.61,-110 696.61,-110 696.61,-129"/>
<text text-anchor="middle" x="650.61" y="-117" font-family="Helvetica,sans-Serif" font-size="10.00">QSharedPointer</text>
</a>
</g>
</g>
<!-- Node1&#45;&gt;Node12 -->
<g id="edge21_Node000001_Node000012" class="edge">
<title>Node1&#45;&gt;Node12</title>
<g id="a_edge21_Node000001_Node000012"><a xlink:title=" ">
<path fill="none" stroke="#63b8ff" d="M362.72,-164.98C426.35,-155.15 530.46,-139.07 594.51,-129.17"/>
<polygon fill="#63b8ff" stroke="#63b8ff" points="595.08,-132.62 604.43,-127.63 594.01,-125.7 595.08,-132.62"/>
</a>
</g>
</g>
<!-- Node2&#45;&gt;Node3 -->
<g id="edge2_Node000002_Node000003" class="edge">
<title>Node2&#45;&gt;Node3</title>
<g id="a_edge2_Node000002_Node000003"><a xlink:title=" ">
<path fill="none" stroke="#63b8ff" d="M199.62,-109.98C171.41,-101.09 126.97,-87.07 95.53,-77.15"/>
<polygon fill="#63b8ff" stroke="#63b8ff" points="96.4,-73.75 85.81,-74.08 94.29,-80.43 96.4,-73.75"/>
</a>
</g>
</g>
<!-- Node2&#45;&gt;Node5 -->
<g id="edge7_Node000002_Node000005" class="edge">
<title>Node2&#45;&gt;Node5</title>
<g id="a_edge7_Node000002_Node000005"><a xlink:title=" ">
<path fill="none" stroke="#63b8ff" d="M206.29,-109.95C190.78,-102.49 169.88,-90.31 156.61,-74 146.03,-61 139.8,-42.85 136.35,-29.29"/>
<polygon fill="#63b8ff" stroke="#63b8ff" points="139.68,-28.16 134.07,-19.18 132.86,-29.7 139.68,-28.16"/>
</a>
</g>
</g>
<!-- Node2&#45;&gt;Node6 -->
<g id="edge10_Node000002_Node000006" class="edge">
<title>Node2&#45;&gt;Node6</title>
<g id="a_edge10_Node000002_Node000006"><a xlink:title=" ">
<path fill="none" stroke="#63b8ff" d="M215,-109.8C199.45,-97.09 175.37,-73.02 189.61,-55 207.96,-31.76 290.75,-19.36 339.8,-13.93"/>
<polygon fill="#63b8ff" stroke="#63b8ff" points="340.44,-17.38 350.02,-12.85 339.7,-10.42 340.44,-17.38"/>
</a>
</g>
</g>
<!-- Node2&#45;&gt;Node7 -->
<g id="edge6_Node000002_Node000007" class="edge">
<title>Node2&#45;&gt;Node7</title>
<g id="a_edge6_Node000002_Node000007"><a xlink:title=" ">
<path fill="none" stroke="#63b8ff" d="M239.62,-109.98C252.06,-101.84 271.06,-89.41 285.82,-79.76"/>
<polygon fill="#63b8ff" stroke="#63b8ff" points="287.9,-82.57 294.36,-74.17 284.07,-76.72 287.9,-82.57"/>
</a>
</g>
</g>
<!-- Node8 -->
<g id="Node000008" class="node">
<title>Node8</title>
<g id="a_Node000008"><a xlink:title=" ">
<polygon fill="#e0e0e0" stroke="#999999" points="402.11,-74 361.11,-74 361.11,-55 402.11,-55 402.11,-74"/>
<text text-anchor="middle" x="381.61" y="-62" font-family="Helvetica,sans-Serif" font-size="10.00">QList</text>
</a>
</g>
</g>
<!-- Node2&#45;&gt;Node8 -->
<g id="edge8_Node000002_Node000008" class="edge">
<title>Node2&#45;&gt;Node8</title>
<g id="a_edge8_Node000002_Node000008"><a xlink:title=" ">
<path fill="none" stroke="#63b8ff" d="M251.51,-109.98C278.61,-100.72 321.95,-85.9 351.08,-75.94"/>
<polygon fill="#63b8ff" stroke="#63b8ff" points="352.41,-79.18 360.74,-72.63 350.15,-72.56 352.41,-79.18"/>
</a>
</g>
</g>
<!-- Node9 -->
<g id="Node000009" class="node">
<title>Node9</title>
<g id="a_Node000009"><a xlink:title=" ">
<polygon fill="#e0e0e0" stroke="#999999" points="254.11,-74 199.11,-74 199.11,-55 254.11,-55 254.11,-74"/>
<text text-anchor="middle" x="226.61" y="-62" font-family="Helvetica,sans-Serif" font-size="10.00">QPointF</text>
</a>
</g>
</g>
<!-- Node2&#45;&gt;Node9 -->
<g id="edge9_Node000002_Node000009" class="edge">
<title>Node2&#45;&gt;Node9</title>
<g id="a_edge9_Node000002_Node000009"><a xlink:title=" ">
<path fill="none" stroke="#63b8ff" d="M226.61,-109.75C226.61,-102.8 226.61,-92.85 226.61,-84.13"/>
<polygon fill="#63b8ff" stroke="#63b8ff" points="230.11,-84.09 226.61,-74.09 223.11,-84.09 230.11,-84.09"/>
</a>
</g>
</g>
<!-- Node4 -->
<g id="Node000004" class="node">
<title>Node4</title>
<g id="a_Node000004"><a xlink:title=" ">
<polygon fill="#e0e0e0" stroke="#999999" points="76.11,-19 3.11,-19 3.11,0 76.11,0 76.11,-19"/>
<text text-anchor="middle" x="39.61" y="-7" font-family="Helvetica,sans-Serif" font-size="10.00">QByteArray</text>
</a>
</g>
</g>
<!-- Node3&#45;&gt;Node4 -->
<g id="edge3_Node000003_Node000004" class="edge">
<title>Node3&#45;&gt;Node4</title>
<g id="a_edge3_Node000003_Node000004"><a xlink:title=" ">
<path fill="none" stroke="#63b8ff" d="M55.47,-54.75C52.92,-47.65 49.25,-37.4 46.08,-28.56"/>
<polygon fill="#63b8ff" stroke="#63b8ff" points="49.36,-27.32 42.69,-19.09 42.77,-29.68 49.36,-27.32"/>
</a>
</g>
</g>
<!-- Node3&#45;&gt;Node5 -->
<g id="edge4_Node000003_Node000005" class="edge">
<title>Node3&#45;&gt;Node5</title>
<g id="a_edge4_Node000003_Node000005"><a xlink:title=" ">
<path fill="none" stroke="#63b8ff" d="M70.5,-54.98C81.76,-46.92 98.89,-34.65 112.32,-25.03"/>
<polygon fill="#63b8ff" stroke="#63b8ff" points="114.41,-27.84 120.5,-19.17 110.33,-22.15 114.41,-27.84"/>
</a>
</g>
</g>
<!-- Node3&#45;&gt;Node6 -->
<g id="edge5_Node000003_Node000006" class="edge">
<title>Node3&#45;&gt;Node6</title>
<g id="a_edge5_Node000003_Node000006"><a xlink:title=" ">
<path fill="none" stroke="#63b8ff" d="M104.85,-55.79C168.42,-45.2 281.53,-26.35 339.74,-16.64"/>
<polygon fill="#63b8ff" stroke="#63b8ff" points="340.66,-20.04 349.95,-14.94 339.51,-13.13 340.66,-20.04"/>
</a>
</g>
</g>
<!-- Node10&#45;&gt;Node5 -->
<g id="edge14_Node000010_Node000005" class="edge">
<title>Node10&#45;&gt;Node5</title>
<g id="a_edge14_Node000010_Node000005"><a xlink:title=" ">
<path fill="none" stroke="#63b8ff" d="M391.29,-109.88C404.77,-96.85 426.01,-71.88 411.61,-55 382.52,-20.9 252.76,-12.81 180.9,-10.97"/>
<polygon fill="#63b8ff" stroke="#63b8ff" points="180.82,-7.47 170.74,-10.74 180.66,-14.47 180.82,-7.47"/>
</a>
</g>
</g>
<!-- Node10&#45;&gt;Node6 -->
<g id="edge18_Node000010_Node000006" class="edge">
<title>Node10&#45;&gt;Node6</title>
<g id="a_edge18_Node000010_Node000006"><a xlink:title=" ">
<path fill="none" stroke="#63b8ff" d="M424.68,-114.33C474.54,-107.73 546.58,-91.64 519.61,-55 495.48,-22.22 447.38,-12.89 413.65,-10.59"/>
<polygon fill="#63b8ff" stroke="#63b8ff" points="413.42,-7.07 403.26,-10.07 413.07,-14.06 413.42,-7.07"/>
</a>
</g>
</g>
<!-- Node10&#45;&gt;Node7 -->
<g id="edge13_Node000010_Node000007" class="edge">
<title>Node10&#45;&gt;Node7</title>
<g id="a_edge13_Node000010_Node000007"><a xlink:title=" ">
<path fill="none" stroke="#63b8ff" d="M369.72,-109.98C358.46,-101.92 341.32,-89.65 327.9,-80.03"/>
<polygon fill="#63b8ff" stroke="#63b8ff" points="329.88,-77.15 319.71,-74.17 325.8,-82.84 329.88,-77.15"/>
</a>
</g>
</g>
<!-- Node10&#45;&gt;Node8 -->
<g id="edge15_Node000010_Node000008" class="edge">
<title>Node10&#45;&gt;Node8</title>
<g id="a_edge15_Node000010_Node000008"><a xlink:title=" ">
<path fill="none" stroke="#63b8ff" d="M381.61,-109.75C381.61,-102.8 381.61,-92.85 381.61,-84.13"/>
<polygon fill="#63b8ff" stroke="#63b8ff" points="385.11,-84.09 381.61,-74.09 378.11,-84.09 385.11,-84.09"/>
</a>
</g>
</g>
<!-- Node10&#45;&gt;Node9 -->
<g id="edge16_Node000010_Node000009" class="edge">
<title>Node10&#45;&gt;Node9</title>
<g id="a_edge16_Node000010_Node000009"><a xlink:title=" ">
<path fill="none" stroke="#63b8ff" d="M356.7,-109.98C330.91,-101.16 290.39,-87.31 261.42,-77.41"/>
<polygon fill="#63b8ff" stroke="#63b8ff" points="262.3,-74.01 251.71,-74.08 260.04,-80.63 262.3,-74.01"/>
</a>
</g>
</g>
<!-- Node11 -->
<g id="Node000011" class="node">
<title>Node11</title>
<g id="a_Node000011"><a xlink:title=" ">
<polygon fill="#e0e0e0" stroke="#999999" points="510.61,-74 458.61,-74 458.61,-55 510.61,-55 510.61,-74"/>
<text text-anchor="middle" x="484.61" y="-62" font-family="Helvetica,sans-Serif" font-size="10.00">QRectF</text>
</a>
</g>
</g>
<!-- Node10&#45;&gt;Node11 -->
<g id="edge17_Node000010_Node000011" class="edge">
<title>Node10&#45;&gt;Node11</title>
<g id="a_edge17_Node000010_Node000011"><a xlink:title=" ">
<path fill="none" stroke="#63b8ff" d="M398.16,-109.98C414.5,-101.57 439.74,-88.59 458.74,-78.81"/>
<polygon fill="#63b8ff" stroke="#63b8ff" points="460.47,-81.86 467.76,-74.17 457.26,-75.63 460.47,-81.86"/>
</a>
</g>
</g>
</g>
</svg>
