<?xml version="1.0" encoding="UTF-8" standalone="no"?>
<!DOCTYPE svg PUBLIC "-//W3C//DTD SVG 1.1//EN"
 "http://www.w3.org/Graphics/SVG/1.1/DTD/svg11.dtd">
<!-- Generated by graphviz version 2.43.0 (0)
 -->
<!-- Title: models/ComponentListItemData.h Pages: 1 -->
<svg width="606pt" height="236pt"
 viewBox="0.00 0.00 606.00 236.00" xmlns="http://www.w3.org/2000/svg" xmlns:xlink="http://www.w3.org/1999/xlink">
<g id="graph0" class="graph" transform="scale(1 1) rotate(0) translate(4 232)">
<title>models/ComponentListItemData.h</title>
<!-- Node1 -->
<g id="Node000001" class="node">
<title>Node1</title>
<g id="a_Node000001"><a xlink:title=" ">
<polygon fill="#999999" stroke="#666666" points="240,-228 88,-228 88,-198 240,-198 240,-228"/>
<text text-anchor="start" x="96" y="-216" font-family="Helvetica,sans-Serif" font-size="10.00">models/ComponentListItem</text>
<text text-anchor="middle" x="164" y="-205" font-family="Helvetica,sans-Serif" font-size="10.00">Data.h</text>
</a>
</g>
</g>
<!-- Node2 -->
<g id="Node000002" class="node">
<title>Node2</title>
<g id="a_Node000002"><a xlink:href="ComponentListItemData_8cpp.html" target="_top" xlink:title=" ">
<polygon fill="white" stroke="#666666" points="152,-162 0,-162 0,-132 152,-132 152,-162"/>
<text text-anchor="start" x="8" y="-150" font-family="Helvetica,sans-Serif" font-size="10.00">models/ComponentListItem</text>
<text text-anchor="middle" x="76" y="-139" font-family="Helvetica,sans-Serif" font-size="10.00">Data.cpp</text>
</a>
</g>
</g>
<!-- Node1&#45;&gt;Node2 -->
<g id="edge1_Node000001_Node000002" class="edge">
<title>Node1&#45;&gt;Node2</title>
<g id="a_edge1_Node000001_Node000002"><a xlink:title=" ">
<path fill="none" stroke="#63b8ff" d="M136.16,-191.75C122.93,-182.13 107.43,-170.86 95.48,-162.16"/>
<polygon fill="#63b8ff" stroke="#63b8ff" points="134.32,-194.75 144.47,-197.8 138.44,-189.08 134.32,-194.75"/>
</a>
</g>
</g>
<!-- Node3 -->
<g id="Node000003" class="node">
<title>Node3</title>
<g id="a_Node000003"><a xlink:href="ComponentListViewModel_8h.html" target="_top" xlink:title=" ">
<polygon fill="white" stroke="#666666" points="334,-162 170,-162 170,-132 334,-132 334,-162"/>
<text text-anchor="start" x="178" y="-150" font-family="Helvetica,sans-Serif" font-size="10.00">ui/viewmodels/ComponentList</text>
<text text-anchor="middle" x="252" y="-139" font-family="Helvetica,sans-Serif" font-size="10.00">ViewModel.h</text>
</a>
</g>
</g>
<!-- Node1&#45;&gt;Node3 -->
<g id="edge2_Node000001_Node000003" class="edge">
<title>Node1&#45;&gt;Node3</title>
<g id="a_edge2_Node000001_Node000003"><a xlink:title=" ">
<path fill="none" stroke="#63b8ff" d="M191.84,-191.75C205.07,-182.13 220.57,-170.86 232.52,-162.16"/>
<polygon fill="#63b8ff" stroke="#63b8ff" points="189.56,-189.08 183.53,-197.8 193.68,-194.75 189.56,-189.08"/>
</a>
</g>
</g>
<!-- Node4 -->
<g id="Node000004" class="node">
<title>Node4</title>
<g id="a_Node000004"><a xlink:href="main_8cpp.html" target="_top" xlink:title=" ">
<polygon fill="white" stroke="#666666" points="262,-24.5 200,-24.5 200,-5.5 262,-5.5 262,-24.5"/>
<text text-anchor="middle" x="231" y="-12.5" font-family="Helvetica,sans-Serif" font-size="10.00">main.cpp</text>
</a>
</g>
</g>
<!-- Node3&#45;&gt;Node4 -->
<g id="edge3_Node000003_Node000004" class="edge">
<title>Node3&#45;&gt;Node4</title>
<g id="a_edge3_Node000003_Node000004"><a xlink:title=" ">
<path fill="none" stroke="#63b8ff" d="M172.72,-129.5C139.67,-120.87 106.7,-109.31 97,-96 67.34,-55.26 151.51,-31.49 199.77,-21.54"/>
<polygon fill="#63b8ff" stroke="#63b8ff" points="171.94,-132.91 182.49,-131.97 173.65,-126.13 171.94,-132.91"/>
</a>
</g>
</g>
<!-- Node5 -->
<g id="Node000005" class="node">
<title>Node5</title>
<g id="a_Node000005"><a xlink:href="ExportService__Pipeline_8cpp.html" target="_top" xlink:title=" ">
<polygon fill="white" stroke="#666666" points="234,-96 106,-96 106,-66 234,-66 234,-96"/>
<text text-anchor="start" x="114" y="-84" font-family="Helvetica,sans-Serif" font-size="10.00">services/ExportService</text>
<text text-anchor="middle" x="170" y="-73" font-family="Helvetica,sans-Serif" font-size="10.00">_Pipeline.cpp</text>
</a>
</g>
</g>
<!-- Node3&#45;&gt;Node5 -->
<g id="edge4_Node000003_Node000005" class="edge">
<title>Node3&#45;&gt;Node5</title>
<g id="a_edge4_Node000003_Node000005"><a xlink:title=" ">
<path fill="none" stroke="#63b8ff" d="M225.71,-125.48C213.45,-115.91 199.18,-104.77 188.15,-96.16"/>
<polygon fill="#63b8ff" stroke="#63b8ff" points="223.76,-128.4 233.8,-131.8 228.07,-122.88 223.76,-128.4"/>
</a>
</g>
</g>
<!-- Node6 -->
<g id="Node000006" class="node">
<title>Node6</title>
<g id="a_Node000006"><a xlink:href="ComponentListViewModel_8cpp.html" target="_top" xlink:title=" ">
<polygon fill="white" stroke="#666666" points="416,-96 252,-96 252,-66 416,-66 416,-96"/>
<text text-anchor="start" x="260" y="-84" font-family="Helvetica,sans-Serif" font-size="10.00">ui/viewmodels/ComponentList</text>
<text text-anchor="middle" x="334" y="-73" font-family="Helvetica,sans-Serif" font-size="10.00">ViewModel.cpp</text>
</a>
</g>
</g>
<!-- Node3&#45;&gt;Node6 -->
<g id="edge5_Node000003_Node000006" class="edge">
<title>Node3&#45;&gt;Node6</title>
<g id="a_edge5_Node000003_Node000006"><a xlink:title=" ">
<path fill="none" stroke="#63b8ff" d="M278.29,-125.48C290.55,-115.91 304.82,-104.77 315.85,-96.16"/>
<polygon fill="#63b8ff" stroke="#63b8ff" points="275.93,-122.88 270.2,-131.8 280.24,-128.4 275.93,-122.88"/>
</a>
</g>
</g>
<!-- Node7 -->
<g id="Node000007" class="node">
<title>Node7</title>
<g id="a_Node000007"><a xlink:href="ExportProgressViewModel_8h.html" target="_top" xlink:title=" ">
<polygon fill="white" stroke="#666666" points="598,-96 434,-96 434,-66 598,-66 598,-96"/>
<text text-anchor="start" x="442" y="-84" font-family="Helvetica,sans-Serif" font-size="10.00">ui/viewmodels/ExportProgress</text>
<text text-anchor="middle" x="516" y="-73" font-family="Helvetica,sans-Serif" font-size="10.00">ViewModel.h</text>
</a>
</g>
</g>
<!-- Node3&#45;&gt;Node7 -->
<g id="edge6_Node000003_Node000007" class="edge">
<title>Node3&#45;&gt;Node7</title>
<g id="a_edge6_Node000003_Node000007"><a xlink:title=" ">
<path fill="none" stroke="#63b8ff" d="M319.72,-129.58C362.58,-119.19 417.39,-105.9 458.2,-96.01"/>
<polygon fill="#63b8ff" stroke="#63b8ff" points="318.83,-126.2 309.94,-131.95 320.48,-133 318.83,-126.2"/>
</a>
</g>
</g>
<!-- Node7&#45;&gt;Node4 -->
<g id="edge7_Node000007_Node000004" class="edge">
<title>Node7&#45;&gt;Node4</title>
<g id="a_edge7_Node000007_Node000004"><a xlink:title=" ">
<path fill="none" stroke="#63b8ff" d="M443.52,-63.72C384.98,-50.58 305.47,-32.72 262.2,-23.01"/>
<polygon fill="#63b8ff" stroke="#63b8ff" points="442.93,-67.18 453.46,-65.95 444.47,-60.35 442.93,-67.18"/>
</a>
</g>
</g>
<!-- Node8 -->
<g id="Node000008" class="node">
<title>Node8</title>
<g id="a_Node000008"><a xlink:href="ExportProgressViewModel_8cpp.html" target="_top" xlink:title=" ">
<polygon fill="white" stroke="#666666" points="598,-30 434,-30 434,0 598,0 598,-30"/>
<text text-anchor="start" x="442" y="-18" font-family="Helvetica,sans-Serif" font-size="10.00">ui/viewmodels/ExportProgress</text>
<text text-anchor="middle" x="516" y="-7" font-family="Helvetica,sans-Serif" font-size="10.00">ViewModel.cpp</text>
</a>
</g>
</g>
<!-- Node7&#45;&gt;Node8 -->
<g id="edge8_Node000007_Node000008" class="edge">
<title>Node7&#45;&gt;Node8</title>
<g id="a_edge8_Node000007_Node000008"><a xlink:title=" ">
<path fill="none" stroke="#63b8ff" d="M516,-55.54C516,-46.96 516,-37.61 516,-30.16"/>
<polygon fill="#63b8ff" stroke="#63b8ff" points="512.5,-55.8 516,-65.8 519.5,-55.8 512.5,-55.8"/>
</a>
</g>
</g>
</g>
</svg>
