<?xml version="1.0" encoding="UTF-8" standalone="no"?>
<!DOCTYPE svg PUBLIC "-//W3C//DTD SVG 1.1//EN"
 "http://www.w3.org/Graphics/SVG/1.1/DTD/svg11.dtd">
<!-- Generated by graphviz version 2.43.0 (0)
 -->
<!-- Title: services/ComponentDataCollector.cpp Pages: 1 -->
<svg width="919pt" height="302pt"
 viewBox="0.00 0.00 918.65 302.00" xmlns="http://www.w3.org/2000/svg" xmlns:xlink="http://www.w3.org/1999/xlink">
<g id="graph0" class="graph" transform="scale(1 1) rotate(0) translate(4 298)">
<title>services/ComponentDataCollector.cpp</title>
<!-- Node1 -->
<g id="Node000001" class="node">
<title>Node1</title>
<g id="a_Node000001"><a xlink:title=" ">
<polygon fill="#999999" stroke="#666666" points="591.69,-294 388.69,-294 388.69,-275 591.69,-275 591.69,-294"/>
<text text-anchor="middle" x="490.19" y="-282" font-family="Helvetica,sans-Serif" font-size="10.00">services/ComponentDataCollector.cpp</text>
</a>
</g>
</g>
<!-- Node2 -->
<g id="Node000002" class="node">
<title>Node2</title>
<g id="a_Node000002"><a xlink:href="ComponentDataCollector_8h.html" target="_top" xlink:title=" ">
<polygon fill="white" stroke="#666666" points="354.19,-239 206.19,-239 206.19,-220 354.19,-220 354.19,-239"/>
<text text-anchor="middle" x="280.19" y="-227" font-family="Helvetica,sans-Serif" font-size="10.00">ComponentDataCollector.h</text>
</a>
</g>
</g>
<!-- Node1&#45;&gt;Node2 -->
<g id="edge1_Node000001_Node000002" class="edge">
<title>Node1&#45;&gt;Node2</title>
<g id="a_edge1_Node000001_Node000002"><a xlink:title=" ">
<path fill="none" stroke="#63b8ff" d="M456.45,-274.98C420.51,-265.91 363.47,-251.52 324.06,-241.57"/>
<polygon fill="#63b8ff" stroke="#63b8ff" points="324.75,-238.14 314.19,-239.08 323.03,-244.92 324.75,-238.14"/>
</a>
</g>
</g>
<!-- Node16 -->
<g id="Node000016" class="node">
<title>Node16</title>
<g id="a_Node000016"><a xlink:href="EasyedaApi_8h.html" target="_top" xlink:title=" ">
<polygon fill="white" stroke="#666666" points="790.69,-184 639.69,-184 639.69,-165 790.69,-165 790.69,-184"/>
<text text-anchor="middle" x="715.19" y="-172" font-family="Helvetica,sans-Serif" font-size="10.00">core/easyeda/EasyedaApi.h</text>
</a>
</g>
</g>
<!-- Node1&#45;&gt;Node16 -->
<g id="edge30_Node000001_Node000016" class="edge">
<title>Node1&#45;&gt;Node16</title>
<g id="a_edge30_Node000001_Node000016"><a xlink:title=" ">
<path fill="none" stroke="#63b8ff" d="M492.99,-274.57C497.83,-260.67 509.12,-233.98 528.19,-220 557.34,-198.63 595.3,-187.38 629.39,-181.51"/>
<polygon fill="#63b8ff" stroke="#63b8ff" points="630.04,-184.95 639.36,-179.92 628.94,-178.03 630.04,-184.95"/>
</a>
</g>
</g>
<!-- Node20 -->
<g id="Node000020" class="node">
<title>Node20</title>
<g id="a_Node000020"><a xlink:href="EasyedaImporter_8h.html" target="_top" xlink:title=" ">
<polygon fill="white" stroke="#666666" points="559.19,-184 383.19,-184 383.19,-165 559.19,-165 559.19,-184"/>
<text text-anchor="middle" x="471.19" y="-172" font-family="Helvetica,sans-Serif" font-size="10.00">core/easyeda/EasyedaImporter.h</text>
</a>
</g>
</g>
<!-- Node1&#45;&gt;Node20 -->
<g id="edge37_Node000001_Node000020" class="edge">
<title>Node1&#45;&gt;Node20</title>
<g id="a_edge37_Node000001_Node000020"><a xlink:title=" ">
<path fill="none" stroke="#63b8ff" d="M488.63,-274.66C485.56,-257.17 478.63,-217.8 474.49,-194.27"/>
<polygon fill="#63b8ff" stroke="#63b8ff" points="477.89,-193.4 472.71,-184.16 471,-194.61 477.89,-193.4"/>
</a>
</g>
</g>
<!-- Node21 -->
<g id="Node000021" class="node">
<title>Node21</title>
<g id="a_Node000021"><a xlink:title=" ">
<polygon fill="#e0e0e0" stroke="#999999" points="593.19,-239 537.19,-239 537.19,-220 593.19,-220 593.19,-239"/>
<text text-anchor="middle" x="565.19" y="-227" font-family="Helvetica,sans-Serif" font-size="10.00">QDebug</text>
</a>
</g>
</g>
<!-- Node1&#45;&gt;Node21 -->
<g id="edge43_Node000001_Node000021" class="edge">
<title>Node1&#45;&gt;Node21</title>
<g id="a_edge43_Node000001_Node000021"><a xlink:title=" ">
<path fill="none" stroke="#63b8ff" d="M502.24,-274.98C513.65,-266.92 531.02,-254.65 544.62,-245.03"/>
<polygon fill="#63b8ff" stroke="#63b8ff" points="546.77,-247.8 552.92,-239.17 542.73,-242.08 546.77,-247.8"/>
</a>
</g>
</g>
<!-- Node3 -->
<g id="Node000003" class="node">
<title>Node3</title>
<g id="a_Node000003"><a xlink:href="ComponentData_8h.html" target="_top" xlink:title=" ">
<polygon fill="white" stroke="#666666" points="252.19,-184 108.19,-184 108.19,-165 252.19,-165 252.19,-184"/>
<text text-anchor="middle" x="180.19" y="-172" font-family="Helvetica,sans-Serif" font-size="10.00">models/ComponentData.h</text>
</a>
</g>
</g>
<!-- Node2&#45;&gt;Node3 -->
<g id="edge2_Node000002_Node000003" class="edge">
<title>Node2&#45;&gt;Node3</title>
<g id="a_edge2_Node000002_Node000003"><a xlink:title=" ">
<path fill="none" stroke="#63b8ff" d="M264.12,-219.98C248.33,-211.61 223.97,-198.7 205.56,-188.95"/>
<polygon fill="#63b8ff" stroke="#63b8ff" points="207.02,-185.76 196.55,-184.17 203.75,-191.95 207.02,-185.76"/>
</a>
</g>
</g>
<!-- Node4 -->
<g id="Node000004" class="node">
<title>Node4</title>
<g id="a_Node000004"><a xlink:href="FootprintData_8h.html" target="_top" xlink:title=" ">
<polygon fill="white" stroke="#666666" points="300.19,-129 208.19,-129 208.19,-110 300.19,-110 300.19,-129"/>
<text text-anchor="middle" x="254.19" y="-117" font-family="Helvetica,sans-Serif" font-size="10.00">FootprintData.h</text>
</a>
</g>
</g>
<!-- Node2&#45;&gt;Node4 -->
<g id="edge25_Node000002_Node000004" class="edge">
<title>Node2&#45;&gt;Node4</title>
<g id="a_edge25_Node000002_Node000004"><a xlink:title=" ">
<path fill="none" stroke="#63b8ff" d="M278.06,-219.66C273.83,-202.09 264.29,-162.45 258.63,-138.95"/>
<polygon fill="#63b8ff" stroke="#63b8ff" points="262.02,-138.06 256.27,-129.16 255.21,-139.7 262.02,-138.06"/>
</a>
</g>
</g>
<!-- Node5 -->
<g id="Node000005" class="node">
<title>Node5</title>
<g id="a_Node000005"><a xlink:href="Model3DData_8h.html" target="_top" xlink:title=" ">
<polygon fill="white" stroke="#666666" points="111.19,-74 19.19,-74 19.19,-55 111.19,-55 111.19,-74"/>
<text text-anchor="middle" x="65.19" y="-62" font-family="Helvetica,sans-Serif" font-size="10.00">Model3DData.h</text>
</a>
</g>
</g>
<!-- Node2&#45;&gt;Node5 -->
<g id="edge26_Node000002_Node000005" class="edge">
<title>Node2&#45;&gt;Node5</title>
<g id="a_edge26_Node000002_Node000005"><a xlink:title=" ">
<path fill="none" stroke="#63b8ff" d="M218.08,-219.99C172.69,-212.55 116.21,-200.38 99.19,-184 71.65,-157.5 65.99,-110.31 65.08,-84.19"/>
<polygon fill="#63b8ff" stroke="#63b8ff" points="68.58,-84.06 64.94,-74.11 61.58,-84.16 68.58,-84.06"/>
</a>
</g>
</g>
<!-- Node8 -->
<g id="Node000008" class="node">
<title>Node8</title>
<g id="a_Node000008"><a xlink:title=" ">
<polygon fill="#e0e0e0" stroke="#999999" points="187.69,-19 134.69,-19 134.69,0 187.69,0 187.69,-19"/>
<text text-anchor="middle" x="161.19" y="-7" font-family="Helvetica,sans-Serif" font-size="10.00">QString</text>
</a>
</g>
</g>
<!-- Node2&#45;&gt;Node8 -->
<g id="edge29_Node000002_Node000008" class="edge">
<title>Node2&#45;&gt;Node8</title>
<g id="a_edge29_Node000002_Node000008"><a xlink:title=" ">
<path fill="none" stroke="#63b8ff" d="M206.14,-224.72C166.34,-219.69 118.03,-208.51 81.19,-184 31.29,-150.81 21.38,-131.1 3.19,-74 0.63,-65.95 -1.91,-61.73 3.19,-55 10.63,-45.17 80.19,-28.3 124.5,-18.4"/>
<polygon fill="#63b8ff" stroke="#63b8ff" points="125.34,-21.8 134.35,-16.22 123.83,-14.96 125.34,-21.8"/>
</a>
</g>
</g>
<!-- Node12 -->
<g id="Node000012" class="node">
<title>Node12</title>
<g id="a_Node000012"><a xlink:href="SymbolData_8h.html" target="_top" xlink:title=" ">
<polygon fill="white" stroke="#666666" points="514.19,-129 428.19,-129 428.19,-110 514.19,-110 514.19,-129"/>
<text text-anchor="middle" x="471.19" y="-117" font-family="Helvetica,sans-Serif" font-size="10.00">SymbolData.h</text>
</a>
</g>
</g>
<!-- Node2&#45;&gt;Node12 -->
<g id="edge27_Node000002_Node000012" class="edge">
<title>Node2&#45;&gt;Node12</title>
<g id="a_edge27_Node000002_Node000012"><a xlink:title=" ">
<path fill="none" stroke="#63b8ff" d="M291.67,-219.84C308.99,-206.98 343.12,-182.47 374.19,-165 395.74,-152.88 421.19,-141.31 440.6,-133"/>
<polygon fill="#63b8ff" stroke="#63b8ff" points="442.03,-136.2 449.88,-129.08 439.31,-129.75 442.03,-136.2"/>
</a>
</g>
</g>
<!-- Node15 -->
<g id="Node000015" class="node">
<title>Node15</title>
<g id="a_Node000015"><a xlink:title=" ">
<polygon fill="#e0e0e0" stroke="#999999" points="631.19,-129 575.19,-129 575.19,-110 631.19,-110 631.19,-129"/>
<text text-anchor="middle" x="603.19" y="-117" font-family="Helvetica,sans-Serif" font-size="10.00">QObject</text>
</a>
</g>
</g>
<!-- Node2&#45;&gt;Node15 -->
<g id="edge28_Node000002_Node000015" class="edge">
<title>Node2&#45;&gt;Node15</title>
<g id="a_edge28_Node000002_Node000015"><a xlink:title=" ">
<path fill="none" stroke="#63b8ff" d="M354.24,-224.43C427.87,-219.1 534.55,-207.52 568.19,-184 583.48,-173.31 592.8,-153.71 597.93,-139.1"/>
<polygon fill="#63b8ff" stroke="#63b8ff" points="601.41,-139.73 601.07,-129.14 594.73,-137.62 601.41,-139.73"/>
</a>
</g>
</g>
<!-- Node3&#45;&gt;Node4 -->
<g id="edge3_Node000003_Node000004" class="edge">
<title>Node3&#45;&gt;Node4</title>
<g id="a_edge3_Node000003_Node000004"><a xlink:title=" ">
<path fill="none" stroke="#63b8ff" d="M192.08,-164.98C203.34,-156.92 220.48,-144.65 233.9,-135.03"/>
<polygon fill="#63b8ff" stroke="#63b8ff" points="235.99,-137.84 242.08,-129.17 231.92,-132.15 235.99,-137.84"/>
</a>
</g>
</g>
<!-- Node3&#45;&gt;Node5 -->
<g id="edge13_Node000003_Node000005" class="edge">
<title>Node3&#45;&gt;Node5</title>
<g id="a_edge13_Node000003_Node000005"><a xlink:title=" ">
<path fill="none" stroke="#63b8ff" d="M168.44,-164.73C157.04,-156.05 139.43,-142.19 125.19,-129 108.76,-113.78 91.32,-95 79.5,-81.82"/>
<polygon fill="#63b8ff" stroke="#63b8ff" points="81.87,-79.22 72.62,-74.06 76.64,-83.86 81.87,-79.22"/>
</a>
</g>
</g>
<!-- Node7 -->
<g id="Node000007" class="node">
<title>Node7</title>
<g id="a_Node000007"><a xlink:title=" ">
<polygon fill="#e0e0e0" stroke="#999999" points="451.19,-19 375.19,-19 375.19,0 451.19,0 451.19,-19"/>
<text text-anchor="middle" x="413.19" y="-7" font-family="Helvetica,sans-Serif" font-size="10.00">QJsonObject</text>
</a>
</g>
</g>
<!-- Node3&#45;&gt;Node7 -->
<g id="edge22_Node000003_Node000007" class="edge">
<title>Node3&#45;&gt;Node7</title>
<g id="a_edge22_Node000003_Node000007"><a xlink:title=" ">
<path fill="none" stroke="#63b8ff" d="M179.2,-164.96C178.08,-152.45 177.23,-128.63 184.19,-110 194.95,-81.19 200.4,-71.76 226.19,-55 268.15,-27.74 325.11,-17.15 365.11,-13.05"/>
<polygon fill="#63b8ff" stroke="#63b8ff" points="365.51,-16.53 375.14,-12.12 364.86,-9.56 365.51,-16.53"/>
</a>
</g>
</g>
<!-- Node3&#45;&gt;Node8 -->
<g id="edge24_Node000003_Node000008" class="edge">
<title>Node3&#45;&gt;Node8</title>
<g id="a_edge24_Node000003_Node000008"><a xlink:title=" ">
<path fill="none" stroke="#63b8ff" d="M146.7,-164.89C106.06,-152.45 39.33,-125.09 10.19,-74 6.01,-66.66 5.13,-61.76 10.19,-55 17.18,-45.65 82.14,-28.95 124.55,-18.88"/>
<polygon fill="#63b8ff" stroke="#63b8ff" points="125.6,-22.23 134.53,-16.53 124,-15.42 125.6,-22.23"/>
</a>
</g>
</g>
<!-- Node9 -->
<g id="Node000009" class="node">
<title>Node9</title>
<g id="a_Node000009"><a xlink:title=" ">
<polygon fill="#e0e0e0" stroke="#999999" points="314.69,-74 243.69,-74 243.69,-55 314.69,-55 314.69,-74"/>
<text text-anchor="middle" x="279.19" y="-62" font-family="Helvetica,sans-Serif" font-size="10.00">QJsonArray</text>
</a>
</g>
</g>
<!-- Node3&#45;&gt;Node9 -->
<g id="edge21_Node000003_Node000009" class="edge">
<title>Node3&#45;&gt;Node9</title>
<g id="a_edge21_Node000003_Node000009"><a xlink:title=" ">
<path fill="none" stroke="#63b8ff" d="M180.75,-164.74C182,-151.53 186.07,-126.32 199.19,-110 210.65,-95.74 227.98,-85.31 243.58,-78.14"/>
<polygon fill="#63b8ff" stroke="#63b8ff" points="245.2,-81.26 253,-74.1 242.44,-74.83 245.2,-81.26"/>
</a>
</g>
</g>
<!-- Node3&#45;&gt;Node12 -->
<g id="edge14_Node000003_Node000012" class="edge">
<title>Node3&#45;&gt;Node12</title>
<g id="a_edge14_Node000003_Node000012"><a xlink:title=" ">
<path fill="none" stroke="#63b8ff" d="M226.94,-164.98C279.12,-155.48 363.39,-140.13 418.03,-130.18"/>
<polygon fill="#63b8ff" stroke="#63b8ff" points="418.67,-133.62 427.88,-128.39 417.41,-126.74 418.67,-133.62"/>
</a>
</g>
</g>
<!-- Node14 -->
<g id="Node000014" class="node">
<title>Node14</title>
<g id="a_Node000014"><a xlink:title=" ">
<polygon fill="#e0e0e0" stroke="#999999" points="410.19,-129 318.19,-129 318.19,-110 410.19,-110 410.19,-129"/>
<text text-anchor="middle" x="364.19" y="-117" font-family="Helvetica,sans-Serif" font-size="10.00">QSharedPointer</text>
</a>
</g>
</g>
<!-- Node3&#45;&gt;Node14 -->
<g id="edge23_Node000003_Node000014" class="edge">
<title>Node3&#45;&gt;Node14</title>
<g id="a_edge23_Node000003_Node000014"><a xlink:title=" ">
<path fill="none" stroke="#63b8ff" d="M209.75,-164.98C240.91,-156.01 290.16,-141.82 324.65,-131.89"/>
<polygon fill="#63b8ff" stroke="#63b8ff" points="325.75,-135.21 334.4,-129.08 323.82,-128.49 325.75,-135.21"/>
</a>
</g>
</g>
<!-- Node4&#45;&gt;Node5 -->
<g id="edge4_Node000004_Node000005" class="edge">
<title>Node4&#45;&gt;Node5</title>
<g id="a_edge4_Node000004_Node000005"><a xlink:title=" ">
<path fill="none" stroke="#63b8ff" d="M223.82,-109.98C191.82,-101.01 141.23,-86.82 105.81,-76.89"/>
<polygon fill="#63b8ff" stroke="#63b8ff" points="106.37,-73.41 95.79,-74.08 104.48,-80.15 106.37,-73.41"/>
</a>
</g>
</g>
<!-- Node4&#45;&gt;Node7 -->
<g id="edge9_Node000004_Node000007" class="edge">
<title>Node4&#45;&gt;Node7</title>
<g id="a_edge9_Node000004_Node000007"><a xlink:title=" ">
<path fill="none" stroke="#63b8ff" d="M247.11,-109.79C237.34,-96.64 222.3,-71.51 235.19,-55 251.03,-34.71 317.83,-22.3 364.92,-15.91"/>
<polygon fill="#63b8ff" stroke="#63b8ff" points="365.48,-19.37 374.94,-14.6 364.58,-12.43 365.48,-19.37"/>
</a>
</g>
</g>
<!-- Node4&#45;&gt;Node8 -->
<g id="edge12_Node000004_Node000008" class="edge">
<title>Node4&#45;&gt;Node8</title>
<g id="a_edge12_Node000004_Node000008"><a xlink:title=" ">
<path fill="none" stroke="#63b8ff" d="M241.89,-109.9C230.5,-101.56 213.51,-88.12 201.19,-74 188.91,-59.92 177.83,-41.68 170.46,-28.37"/>
<polygon fill="#63b8ff" stroke="#63b8ff" points="173.41,-26.45 165.6,-19.29 167.24,-29.76 173.41,-26.45"/>
</a>
</g>
</g>
<!-- Node4&#45;&gt;Node9 -->
<g id="edge8_Node000004_Node000009" class="edge">
<title>Node4&#45;&gt;Node9</title>
<g id="a_edge8_Node000004_Node000009"><a xlink:title=" ">
<path fill="none" stroke="#63b8ff" d="M258.32,-109.75C261.7,-102.57 266.61,-92.18 270.81,-83.27"/>
<polygon fill="#63b8ff" stroke="#63b8ff" points="274.04,-84.63 275.14,-74.09 267.71,-81.64 274.04,-84.63"/>
</a>
</g>
</g>
<!-- Node10 -->
<g id="Node000010" class="node">
<title>Node10</title>
<g id="a_Node000010"><a xlink:title=" ">
<polygon fill="#e0e0e0" stroke="#999999" points="373.69,-74 332.69,-74 332.69,-55 373.69,-55 373.69,-74"/>
<text text-anchor="middle" x="353.19" y="-62" font-family="Helvetica,sans-Serif" font-size="10.00">QList</text>
</a>
</g>
</g>
<!-- Node4&#45;&gt;Node10 -->
<g id="edge10_Node000004_Node000010" class="edge">
<title>Node4&#45;&gt;Node10</title>
<g id="a_edge10_Node000004_Node000010"><a xlink:title=" ">
<path fill="none" stroke="#63b8ff" d="M270.1,-109.98C285.73,-101.61 309.84,-88.7 328.07,-78.95"/>
<polygon fill="#63b8ff" stroke="#63b8ff" points="329.83,-81.98 336.99,-74.17 326.53,-75.8 329.83,-81.98"/>
</a>
</g>
</g>
<!-- Node11 -->
<g id="Node000011" class="node">
<title>Node11</title>
<g id="a_Node000011"><a xlink:title=" ">
<polygon fill="#e0e0e0" stroke="#999999" points="446.69,-74 391.69,-74 391.69,-55 446.69,-55 446.69,-74"/>
<text text-anchor="middle" x="419.19" y="-62" font-family="Helvetica,sans-Serif" font-size="10.00">QPointF</text>
</a>
</g>
</g>
<!-- Node4&#45;&gt;Node11 -->
<g id="edge11_Node000004_Node000011" class="edge">
<title>Node4&#45;&gt;Node11</title>
<g id="a_edge11_Node000004_Node000011"><a xlink:title=" ">
<path fill="none" stroke="#63b8ff" d="M280.7,-109.98C308.4,-101.09 352.05,-87.07 382.93,-77.15"/>
<polygon fill="#63b8ff" stroke="#63b8ff" points="384.02,-80.47 392.47,-74.08 381.88,-73.81 384.02,-80.47"/>
</a>
</g>
</g>
<!-- Node6 -->
<g id="Node000006" class="node">
<title>Node6</title>
<g id="a_Node000006"><a xlink:title=" ">
<polygon fill="#e0e0e0" stroke="#999999" points="101.69,-19 28.69,-19 28.69,0 101.69,0 101.69,-19"/>
<text text-anchor="middle" x="65.19" y="-7" font-family="Helvetica,sans-Serif" font-size="10.00">QByteArray</text>
</a>
</g>
</g>
<!-- Node5&#45;&gt;Node6 -->
<g id="edge5_Node000005_Node000006" class="edge">
<title>Node5&#45;&gt;Node6</title>
<g id="a_edge5_Node000005_Node000006"><a xlink:title=" ">
<path fill="none" stroke="#63b8ff" d="M65.19,-54.75C65.19,-47.8 65.19,-37.85 65.19,-29.13"/>
<polygon fill="#63b8ff" stroke="#63b8ff" points="68.69,-29.09 65.19,-19.09 61.69,-29.09 68.69,-29.09"/>
</a>
</g>
</g>
<!-- Node5&#45;&gt;Node7 -->
<g id="edge6_Node000005_Node000007" class="edge">
<title>Node5&#45;&gt;Node7</title>
<g id="a_edge6_Node000005_Node000007"><a xlink:title=" ">
<path fill="none" stroke="#63b8ff" d="M111.4,-56.46C177.3,-46.43 297.7,-28.09 364.79,-17.87"/>
<polygon fill="#63b8ff" stroke="#63b8ff" points="365.72,-21.27 375.08,-16.3 364.67,-14.35 365.72,-21.27"/>
</a>
</g>
</g>
<!-- Node5&#45;&gt;Node8 -->
<g id="edge7_Node000005_Node000008" class="edge">
<title>Node5&#45;&gt;Node8</title>
<g id="a_edge7_Node000005_Node000008"><a xlink:title=" ">
<path fill="none" stroke="#63b8ff" d="M80.61,-54.98C95.64,-46.69 118.73,-33.94 136.35,-24.22"/>
<polygon fill="#63b8ff" stroke="#63b8ff" points="138.42,-27.07 145.49,-19.17 135.04,-20.94 138.42,-27.07"/>
</a>
</g>
</g>
<!-- Node12&#45;&gt;Node7 -->
<g id="edge16_Node000012_Node000007" class="edge">
<title>Node12&#45;&gt;Node7</title>
<g id="a_edge16_Node000012_Node000007"><a xlink:title=" ">
<path fill="none" stroke="#63b8ff" d="M505.41,-109.93C539.29,-99.75 583.51,-80.83 564.19,-55 540.75,-23.66 496.29,-13.46 461.66,-10.55"/>
<polygon fill="#63b8ff" stroke="#63b8ff" points="461.47,-7.03 451.26,-9.87 461.01,-14.02 461.47,-7.03"/>
</a>
</g>
</g>
<!-- Node12&#45;&gt;Node8 -->
<g id="edge20_Node000012_Node000008" class="edge">
<title>Node12&#45;&gt;Node8</title>
<g id="a_edge20_Node000012_Node000008"><a xlink:title=" ">
<path fill="none" stroke="#63b8ff" d="M471.94,-109.61C472.56,-95.75 471.52,-69.12 456.19,-55 419.23,-20.96 268.82,-12.96 198.17,-11.08"/>
<polygon fill="#63b8ff" stroke="#63b8ff" points="198.03,-7.57 187.95,-10.83 197.86,-14.57 198.03,-7.57"/>
</a>
</g>
</g>
<!-- Node12&#45;&gt;Node9 -->
<g id="edge15_Node000012_Node000009" class="edge">
<title>Node12&#45;&gt;Node9</title>
<g id="a_edge15_Node000012_Node000009"><a xlink:title=" ">
<path fill="none" stroke="#63b8ff" d="M440.34,-109.98C407.69,-100.97 355.99,-86.7 319.99,-76.76"/>
<polygon fill="#63b8ff" stroke="#63b8ff" points="320.85,-73.37 310.28,-74.08 318.99,-80.12 320.85,-73.37"/>
</a>
</g>
</g>
<!-- Node12&#45;&gt;Node10 -->
<g id="edge17_Node000012_Node000010" class="edge">
<title>Node12&#45;&gt;Node10</title>
<g id="a_edge17_Node000012_Node000010"><a xlink:title=" ">
<path fill="none" stroke="#63b8ff" d="M452.23,-109.98C433.16,-101.42 403.53,-88.11 381.64,-78.28"/>
<polygon fill="#63b8ff" stroke="#63b8ff" points="383.05,-75.07 372.49,-74.17 380.18,-81.46 383.05,-75.07"/>
</a>
</g>
</g>
<!-- Node12&#45;&gt;Node11 -->
<g id="edge18_Node000012_Node000011" class="edge">
<title>Node12&#45;&gt;Node11</title>
<g id="a_edge18_Node000012_Node000011"><a xlink:title=" ">
<path fill="none" stroke="#63b8ff" d="M462.6,-109.75C455.03,-102.03 443.81,-90.6 434.68,-81.28"/>
<polygon fill="#63b8ff" stroke="#63b8ff" points="437.12,-78.78 427.62,-74.09 432.12,-83.68 437.12,-78.78"/>
</a>
</g>
</g>
<!-- Node13 -->
<g id="Node000013" class="node">
<title>Node13</title>
<g id="a_Node000013"><a xlink:title=" ">
<polygon fill="#e0e0e0" stroke="#999999" points="555.19,-74 503.19,-74 503.19,-55 555.19,-55 555.19,-74"/>
<text text-anchor="middle" x="529.19" y="-62" font-family="Helvetica,sans-Serif" font-size="10.00">QRectF</text>
</a>
</g>
</g>
<!-- Node12&#45;&gt;Node13 -->
<g id="edge19_Node000012_Node000013" class="edge">
<title>Node12&#45;&gt;Node13</title>
<g id="a_edge19_Node000012_Node000013"><a xlink:title=" ">
<path fill="none" stroke="#63b8ff" d="M480.51,-109.98C489,-102.23 501.75,-90.58 512.07,-81.14"/>
<polygon fill="#63b8ff" stroke="#63b8ff" points="514.68,-83.5 519.7,-74.17 509.96,-78.33 514.68,-83.5"/>
</a>
</g>
</g>
<!-- Node16&#45;&gt;Node7 -->
<g id="edge31_Node000016_Node000007" class="edge">
<title>Node16&#45;&gt;Node7</title>
<g id="a_edge31_Node000016_Node000007"><a xlink:title=" ">
<path fill="none" stroke="#63b8ff" d="M790.85,-171.43C856.38,-166.81 935.78,-152.61 902.19,-110 847.91,-41.13 573.71,-18.96 461.33,-12.7"/>
<polygon fill="#63b8ff" stroke="#63b8ff" points="461.47,-9.2 451.29,-12.16 461.09,-16.19 461.47,-9.2"/>
</a>
</g>
</g>
<!-- Node16&#45;&gt;Node8 -->
<g id="edge35_Node000016_Node000008" class="edge">
<title>Node16&#45;&gt;Node8</title>
<g id="a_edge35_Node000016_Node000008"><a xlink:title=" ">
<path fill="none" stroke="#63b8ff" d="M707.78,-164.87C687.55,-141.98 628.55,-79.83 564.19,-55 497.68,-29.34 284.13,-16.43 197.86,-12.15"/>
<polygon fill="#63b8ff" stroke="#63b8ff" points="197.9,-8.65 187.75,-11.66 197.57,-15.64 197.9,-8.65"/>
</a>
</g>
</g>
<!-- Node16&#45;&gt;Node15 -->
<g id="edge33_Node000016_Node000015" class="edge">
<title>Node16&#45;&gt;Node15</title>
<g id="a_edge33_Node000016_Node000015"><a xlink:title=" ">
<path fill="none" stroke="#63b8ff" d="M697.2,-164.98C679.26,-156.5 651.47,-143.35 630.76,-133.54"/>
<polygon fill="#63b8ff" stroke="#63b8ff" points="632.05,-130.28 621.51,-129.17 629.05,-136.61 632.05,-130.28"/>
</a>
</g>
</g>
<!-- Node17 -->
<g id="Node000017" class="node">
<title>Node17</title>
<g id="a_Node000017"><a xlink:title=" ">
<polygon fill="#e0e0e0" stroke="#999999" points="742.69,-129 687.69,-129 687.69,-110 742.69,-110 742.69,-129"/>
<text text-anchor="middle" x="715.19" y="-117" font-family="Helvetica,sans-Serif" font-size="10.00">QMutex</text>
</a>
</g>
</g>
<!-- Node16&#45;&gt;Node17 -->
<g id="edge32_Node000016_Node000017" class="edge">
<title>Node16&#45;&gt;Node17</title>
<g id="a_edge32_Node000016_Node000017"><a xlink:title=" ">
<path fill="none" stroke="#63b8ff" d="M715.19,-164.75C715.19,-157.8 715.19,-147.85 715.19,-139.13"/>
<polygon fill="#63b8ff" stroke="#63b8ff" points="718.69,-139.09 715.19,-129.09 711.69,-139.09 718.69,-139.09"/>
</a>
</g>
</g>
<!-- Node18 -->
<g id="Node000018" class="node">
<title>Node18</title>
<g id="a_Node000018"><a xlink:title=" ">
<polygon fill="#e0e0e0" stroke="#999999" points="819.69,-129 760.69,-129 760.69,-110 819.69,-110 819.69,-129"/>
<text text-anchor="middle" x="790.19" y="-117" font-family="Helvetica,sans-Serif" font-size="10.00">QPointer</text>
</a>
</g>
</g>
<!-- Node16&#45;&gt;Node18 -->
<g id="edge34_Node000016_Node000018" class="edge">
<title>Node16&#45;&gt;Node18</title>
<g id="a_edge34_Node000016_Node000018"><a xlink:title=" ">
<path fill="none" stroke="#63b8ff" d="M727.24,-164.98C738.65,-156.92 756.02,-144.65 769.62,-135.03"/>
<polygon fill="#63b8ff" stroke="#63b8ff" points="771.77,-137.8 777.92,-129.17 767.73,-132.08 771.77,-137.8"/>
</a>
</g>
</g>
<!-- Node19 -->
<g id="Node000019" class="node">
<title>Node19</title>
<g id="a_Node000019"><a xlink:title=" ">
<polygon fill="#e0e0e0" stroke="#999999" points="892.69,-129 837.69,-129 837.69,-110 892.69,-110 892.69,-129"/>
<text text-anchor="middle" x="865.19" y="-117" font-family="Helvetica,sans-Serif" font-size="10.00">QVector</text>
</a>
</g>
</g>
<!-- Node16&#45;&gt;Node19 -->
<g id="edge36_Node000016_Node000019" class="edge">
<title>Node16&#45;&gt;Node19</title>
<g id="a_edge36_Node000016_Node000019"><a xlink:title=" ">
<path fill="none" stroke="#63b8ff" d="M739.29,-164.98C764.07,-156.23 802.89,-142.51 830.88,-132.62"/>
<polygon fill="#63b8ff" stroke="#63b8ff" points="832.39,-135.8 840.65,-129.17 830.06,-129.2 832.39,-135.8"/>
</a>
</g>
</g>
<!-- Node20&#45;&gt;Node4 -->
<g id="edge38_Node000020_Node000004" class="edge">
<title>Node20&#45;&gt;Node4</title>
<g id="a_edge38_Node000020_Node000004"><a xlink:title=" ">
<path fill="none" stroke="#63b8ff" d="M436.32,-164.98C399.1,-155.89 339.99,-141.46 299.26,-131.51"/>
<polygon fill="#63b8ff" stroke="#63b8ff" points="299.87,-128.05 289.33,-129.08 298.21,-134.85 299.87,-128.05"/>
</a>
</g>
</g>
<!-- Node20&#45;&gt;Node7 -->
<g id="edge40_Node000020_Node000007" class="edge">
<title>Node20&#45;&gt;Node7</title>
<g id="a_edge40_Node000020_Node000007"><a xlink:title=" ">
<path fill="none" stroke="#63b8ff" d="M487.42,-164.85C512.99,-150.16 561.66,-117.63 580.19,-74 583.49,-66.23 585.34,-61.7 580.19,-55 565.73,-36.18 505.38,-23.63 461.37,-16.78"/>
<polygon fill="#63b8ff" stroke="#63b8ff" points="461.82,-13.31 451.42,-15.29 460.78,-20.24 461.82,-13.31"/>
</a>
</g>
</g>
<!-- Node20&#45;&gt;Node12 -->
<g id="edge39_Node000020_Node000012" class="edge">
<title>Node20&#45;&gt;Node12</title>
<g id="a_edge39_Node000020_Node000012"><a xlink:title=" ">
<path fill="none" stroke="#63b8ff" d="M471.19,-164.75C471.19,-157.8 471.19,-147.85 471.19,-139.13"/>
<polygon fill="#63b8ff" stroke="#63b8ff" points="474.69,-139.09 471.19,-129.09 467.69,-139.09 474.69,-139.09"/>
</a>
</g>
</g>
<!-- Node20&#45;&gt;Node14 -->
<g id="edge42_Node000020_Node000014" class="edge">
<title>Node20&#45;&gt;Node14</title>
<g id="a_edge42_Node000020_Node000014"><a xlink:title=" ">
<path fill="none" stroke="#63b8ff" d="M454,-164.98C436.94,-156.54 410.56,-143.47 390.79,-133.68"/>
<polygon fill="#63b8ff" stroke="#63b8ff" points="392.21,-130.47 381.69,-129.17 389.1,-136.75 392.21,-130.47"/>
</a>
</g>
</g>
<!-- Node20&#45;&gt;Node15 -->
<g id="edge41_Node000020_Node000015" class="edge">
<title>Node20&#45;&gt;Node15</title>
<g id="a_edge41_Node000020_Node000015"><a xlink:title=" ">
<path fill="none" stroke="#63b8ff" d="M492.4,-164.98C513.92,-156.34 547.47,-142.87 572.02,-133.02"/>
<polygon fill="#63b8ff" stroke="#63b8ff" points="573.62,-136.14 581.6,-129.17 571.01,-129.65 573.62,-136.14"/>
</a>
</g>
</g>
</g>
</svg>
