<?xml version="1.0" encoding="UTF-8" standalone="no"?>
<!DOCTYPE svg PUBLIC "-//W3C//DTD SVG 1.1//EN"
 "http://www.w3.org/Graphics/SVG/1.1/DTD/svg11.dtd">
<!-- Generated by graphviz version 2.43.0 (0)
 -->
<!-- Title: services/ComponentService.cpp Pages: 1 -->
<svg width="2511pt" height="302pt"
 viewBox="0.00 0.00 2510.50 302.00" xmlns="http://www.w3.org/2000/svg" xmlns:xlink="http://www.w3.org/1999/xlink">
<g id="graph0" class="graph" transform="scale(1 1) rotate(0) translate(4 298)">
<title>services/ComponentService.cpp</title>
<!-- Node1 -->
<g id="Node000001" class="node">
<title>Node1</title>
<g id="a_Node000001"><a xlink:title=" ">
<polygon fill="#999999" stroke="#666666" points="1713.5,-294 1540.5,-294 1540.5,-275 1713.5,-275 1713.5,-294"/>
<text text-anchor="middle" x="1627" y="-282" font-family="Helvetica,sans-Serif" font-size="10.00">services/ComponentService.cpp</text>
</a>
</g>
</g>
<!-- Node2 -->
<g id="Node000002" class="node">
<title>Node2</title>
<g id="a_Node000002"><a xlink:href="ComponentService_8h.html" target="_top" xlink:title=" ">
<polygon fill="white" stroke="#666666" points="928,-239 810,-239 810,-220 928,-220 928,-239"/>
<text text-anchor="middle" x="869" y="-227" font-family="Helvetica,sans-Serif" font-size="10.00">ComponentService.h</text>
</a>
</g>
</g>
<!-- Node1&#45;&gt;Node2 -->
<g id="edge1_Node000001_Node000002" class="edge">
<title>Node1&#45;&gt;Node2</title>
<g id="a_edge1_Node000001_Node000002"><a xlink:title=" ">
<path fill="none" stroke="#63b8ff" d="M1540.42,-277.45C1388.45,-266.82 1076.73,-245.02 938.1,-235.33"/>
<polygon fill="#63b8ff" stroke="#63b8ff" points="938.24,-231.83 928.02,-234.63 937.76,-238.82 938.24,-231.83"/>
</a>
</g>
</g>
<!-- Node5 -->
<g id="Node000005" class="node">
<title>Node5</title>
<g id="a_Node000005"><a xlink:title=" ">
<polygon fill="#e0e0e0" stroke="#999999" points="142,-129 0,-129 0,-110 142,-110 142,-129"/>
<text text-anchor="middle" x="71" y="-117" font-family="Helvetica,sans-Serif" font-size="10.00">QNetworkAccessManager</text>
</a>
</g>
</g>
<!-- Node1&#45;&gt;Node5 -->
<g id="edge70_Node000001_Node000005" class="edge">
<title>Node1&#45;&gt;Node5</title>
<g id="a_edge70_Node000001_Node000005"><a xlink:title=" ">
<path fill="none" stroke="#63b8ff" d="M1540.46,-284.13C1295.63,-285.31 601.51,-284.44 379,-239 269.57,-216.65 148.21,-159.63 96.53,-133.7"/>
<polygon fill="#63b8ff" stroke="#63b8ff" points="97.94,-130.48 87.43,-129.09 94.77,-136.73 97.94,-130.48"/>
</a>
</g>
</g>
<!-- Node6 -->
<g id="Node000006" class="node">
<title>Node6</title>
<g id="a_Node000006"><a xlink:title=" ">
<polygon fill="#e0e0e0" stroke="#999999" points="349.5,-129 256.5,-129 256.5,-110 349.5,-110 349.5,-129"/>
<text text-anchor="middle" x="303" y="-117" font-family="Helvetica,sans-Serif" font-size="10.00">QNetworkReply</text>
</a>
</g>
</g>
<!-- Node1&#45;&gt;Node6 -->
<g id="edge71_Node000001_Node000006" class="edge">
<title>Node1&#45;&gt;Node6</title>
<g id="a_edge71_Node000001_Node000006"><a xlink:title=" ">
<path fill="none" stroke="#63b8ff" d="M1540.27,-282.19C1319.23,-278.49 738.8,-266.39 548,-239 447.81,-224.62 402.65,-251.25 327,-184 314.21,-172.63 308.21,-153.73 305.41,-139.5"/>
<polygon fill="#63b8ff" stroke="#63b8ff" points="308.82,-138.65 303.78,-129.32 301.9,-139.75 308.82,-138.65"/>
</a>
</g>
</g>
<!-- Node8 -->
<g id="Node000008" class="node">
<title>Node8</title>
<g id="a_Node000008"><a xlink:title=" ">
<polygon fill="#e0e0e0" stroke="#999999" points="697,-129 641,-129 641,-110 697,-110 697,-129"/>
<text text-anchor="middle" x="669" y="-117" font-family="Helvetica,sans-Serif" font-size="10.00">QQueue</text>
</a>
</g>
</g>
<!-- Node1&#45;&gt;Node8 -->
<g id="edge74_Node000001_Node000008" class="edge">
<title>Node1&#45;&gt;Node8</title>
<g id="a_edge74_Node000001_Node000008"><a xlink:title=" ">
<path fill="none" stroke="#63b8ff" d="M1540.35,-281.38C1342.6,-276.18 869.79,-261.55 801,-239 758.6,-225.1 749.6,-214.47 717,-184 702.21,-170.18 688.64,-151.39 679.72,-137.84"/>
<polygon fill="#63b8ff" stroke="#63b8ff" points="682.44,-135.59 674.11,-129.05 676.54,-139.36 682.44,-135.59"/>
</a>
</g>
</g>
<!-- Node16 -->
<g id="Node000016" class="node">
<title>Node16</title>
<g id="a_Node000016"><a xlink:title=" ">
<polygon fill="#e0e0e0" stroke="#999999" points="1524,-19 1448,-19 1448,0 1524,0 1524,-19"/>
<text text-anchor="middle" x="1486" y="-7" font-family="Helvetica,sans-Serif" font-size="10.00">QJsonObject</text>
</a>
</g>
</g>
<!-- Node1&#45;&gt;Node16 -->
<g id="edge69_Node000001_Node000016" class="edge">
<title>Node1&#45;&gt;Node16</title>
<g id="a_edge69_Node000001_Node000016"><a xlink:title=" ">
<path fill="none" stroke="#63b8ff" d="M1604.46,-274.93C1578.73,-263.81 1542.13,-243.07 1558,-220 1583.35,-183.14 1610.5,-200.72 1652,-184 1710.19,-160.56 1747.34,-181.29 1782,-129 1786.66,-121.96 1786.93,-116.86 1782,-110 1725.19,-30.97 1602.48,-13.85 1534.24,-10.67"/>
<polygon fill="#63b8ff" stroke="#63b8ff" points="1534.31,-7.17 1524.18,-10.29 1534.04,-14.17 1534.31,-7.17"/>
</a>
</g>
</g>
<!-- Node17 -->
<g id="Node000017" class="node">
<title>Node17</title>
<g id="a_Node000017"><a xlink:title=" ">
<polygon fill="#e0e0e0" stroke="#999999" points="1292.5,-74 1221.5,-74 1221.5,-55 1292.5,-55 1292.5,-74"/>
<text text-anchor="middle" x="1257" y="-62" font-family="Helvetica,sans-Serif" font-size="10.00">QJsonArray</text>
</a>
</g>
</g>
<!-- Node1&#45;&gt;Node17 -->
<g id="edge67_Node000001_Node000017" class="edge">
<title>Node1&#45;&gt;Node17</title>
<g id="a_edge67_Node000001_Node000017"><a xlink:title=" ">
<path fill="none" stroke="#63b8ff" d="M1598.67,-274.92C1575.71,-267.3 1543.01,-254.91 1517,-239 1442.28,-193.29 1442.79,-155.59 1368,-110 1345.25,-96.13 1317.41,-84.98 1295.3,-77.31"/>
<polygon fill="#63b8ff" stroke="#63b8ff" points="1296.18,-73.92 1285.59,-74.04 1293.95,-80.55 1296.18,-73.92"/>
</a>
</g>
</g>
<!-- Node25 -->
<g id="Node000025" class="node">
<title>Node25</title>
<g id="a_Node000025"><a xlink:href="BomParser_8h.html" target="_top" xlink:title=" ">
<polygon fill="white" stroke="#666666" points="413.5,-184 336.5,-184 336.5,-165 413.5,-165 413.5,-184"/>
<text text-anchor="middle" x="375" y="-172" font-family="Helvetica,sans-Serif" font-size="10.00">BomParser.h</text>
</a>
</g>
</g>
<!-- Node1&#45;&gt;Node25 -->
<g id="edge45_Node000001_Node000025" class="edge">
<title>Node1&#45;&gt;Node25</title>
<g id="a_edge45_Node000001_Node000025"><a xlink:title=" ">
<path fill="none" stroke="#63b8ff" d="M1540.47,-281.55C1335.01,-276.58 822.31,-262.22 652,-239 565.89,-227.26 467.13,-201.61 413.91,-186.75"/>
<polygon fill="#63b8ff" stroke="#63b8ff" points="414.77,-183.36 404.2,-184.02 412.87,-190.1 414.77,-183.36"/>
</a>
</g>
</g>
<!-- Node27 -->
<g id="Node000027" class="node">
<title>Node27</title>
<g id="a_Node000027"><a xlink:href="EasyedaApi_8h.html" target="_top" xlink:title=" ">
<polygon fill="white" stroke="#666666" points="1642.5,-184 1491.5,-184 1491.5,-165 1642.5,-165 1642.5,-184"/>
<text text-anchor="middle" x="1567" y="-172" font-family="Helvetica,sans-Serif" font-size="10.00">core/easyeda/EasyedaApi.h</text>
</a>
</g>
</g>
<!-- Node1&#45;&gt;Node27 -->
<g id="edge50_Node000001_Node000027" class="edge">
<title>Node1&#45;&gt;Node27</title>
<g id="a_edge50_Node000001_Node000027"><a xlink:title=" ">
<path fill="none" stroke="#63b8ff" d="M1579.86,-274.95C1559.37,-268.64 1537.28,-257.75 1525,-239 1514.13,-222.39 1530.47,-203.42 1545.83,-190.57"/>
<polygon fill="#63b8ff" stroke="#63b8ff" points="1548.37,-193.03 1554.09,-184.11 1544.06,-187.51 1548.37,-193.03"/>
</a>
</g>
</g>
<!-- Node31 -->
<g id="Node000031" class="node">
<title>Node31</title>
<g id="a_Node000031"><a xlink:href="EasyedaImporter_8h.html" target="_top" xlink:title=" ">
<polygon fill="white" stroke="#666666" points="1356,-184 1180,-184 1180,-165 1356,-165 1356,-184"/>
<text text-anchor="middle" x="1268" y="-172" font-family="Helvetica,sans-Serif" font-size="10.00">core/easyeda/EasyedaImporter.h</text>
</a>
</g>
</g>
<!-- Node1&#45;&gt;Node31 -->
<g id="edge57_Node000001_Node000031" class="edge">
<title>Node1&#45;&gt;Node31</title>
<g id="a_edge57_Node000001_Node000031"><a xlink:title=" ">
<path fill="none" stroke="#63b8ff" d="M1588.53,-274.97C1552.29,-266.67 1496.6,-253.27 1449,-239 1396.08,-223.14 1335.73,-201.17 1299.81,-187.67"/>
<polygon fill="#63b8ff" stroke="#63b8ff" points="1300.95,-184.35 1290.35,-184.09 1298.47,-190.9 1300.95,-184.35"/>
</a>
</g>
</g>
<!-- Node32 -->
<g id="Node000032" class="node">
<title>Node32</title>
<g id="a_Node000032"><a xlink:title=" ">
<polygon fill="#e0e0e0" stroke="#999999" points="1623,-239 1567,-239 1567,-220 1623,-220 1623,-239"/>
<text text-anchor="middle" x="1595" y="-227" font-family="Helvetica,sans-Serif" font-size="10.00">QDebug</text>
</a>
</g>
</g>
<!-- Node1&#45;&gt;Node32 -->
<g id="edge63_Node000001_Node000032" class="edge">
<title>Node1&#45;&gt;Node32</title>
<g id="a_edge63_Node000001_Node000032"><a xlink:title=" ">
<path fill="none" stroke="#63b8ff" d="M1621.72,-274.75C1617.29,-267.42 1610.84,-256.73 1605.38,-247.7"/>
<polygon fill="#63b8ff" stroke="#63b8ff" points="1608.35,-245.84 1600.19,-239.09 1602.36,-249.46 1608.35,-245.84"/>
</a>
</g>
</g>
<!-- Node33 -->
<g id="Node000033" class="node">
<title>Node33</title>
<g id="a_Node000033"><a xlink:title=" ">
<polygon fill="#e0e0e0" stroke="#999999" points="1679,-239 1641,-239 1641,-220 1679,-220 1679,-239"/>
<text text-anchor="middle" x="1660" y="-227" font-family="Helvetica,sans-Serif" font-size="10.00">QDir</text>
</a>
</g>
</g>
<!-- Node1&#45;&gt;Node33 -->
<g id="edge64_Node000001_Node000033" class="edge">
<title>Node1&#45;&gt;Node33</title>
<g id="a_edge64_Node000001_Node000033"><a xlink:title=" ">
<path fill="none" stroke="#63b8ff" d="M1632.45,-274.75C1637.01,-267.42 1643.67,-256.73 1649.29,-247.7"/>
<polygon fill="#63b8ff" stroke="#63b8ff" points="1652.34,-249.43 1654.65,-239.09 1646.4,-245.73 1652.34,-249.43"/>
</a>
</g>
</g>
<!-- Node34 -->
<g id="Node000034" class="node">
<title>Node34</title>
<g id="a_Node000034"><a xlink:title=" ">
<polygon fill="#e0e0e0" stroke="#999999" points="1738.5,-239 1697.5,-239 1697.5,-220 1738.5,-220 1738.5,-239"/>
<text text-anchor="middle" x="1718" y="-227" font-family="Helvetica,sans-Serif" font-size="10.00">QFile</text>
</a>
</g>
</g>
<!-- Node1&#45;&gt;Node34 -->
<g id="edge65_Node000001_Node000034" class="edge">
<title>Node1&#45;&gt;Node34</title>
<g id="a_edge65_Node000001_Node000034"><a xlink:title=" ">
<path fill="none" stroke="#63b8ff" d="M1641.62,-274.98C1655.86,-266.69 1677.75,-253.94 1694.45,-244.22"/>
<polygon fill="#63b8ff" stroke="#63b8ff" points="1696.23,-247.23 1703.11,-239.17 1692.71,-241.18 1696.23,-247.23"/>
</a>
</g>
</g>
<!-- Node35 -->
<g id="Node000035" class="node">
<title>Node35</title>
<g id="a_Node000035"><a xlink:title=" ">
<polygon fill="#e0e0e0" stroke="#999999" points="1817,-239 1757,-239 1757,-220 1817,-220 1817,-239"/>
<text text-anchor="middle" x="1787" y="-227" font-family="Helvetica,sans-Serif" font-size="10.00">QFileInfo</text>
</a>
</g>
</g>
<!-- Node1&#45;&gt;Node35 -->
<g id="edge66_Node000001_Node000035" class="edge">
<title>Node1&#45;&gt;Node35</title>
<g id="a_edge66_Node000001_Node000035"><a xlink:title=" ">
<path fill="none" stroke="#63b8ff" d="M1652.71,-274.98C1679.45,-266.13 1721.53,-252.19 1751.45,-242.28"/>
<polygon fill="#63b8ff" stroke="#63b8ff" points="1752.7,-245.55 1761.09,-239.08 1750.5,-238.9 1752.7,-245.55"/>
</a>
</g>
</g>
<!-- Node36 -->
<g id="Node000036" class="node">
<title>Node36</title>
<g id="a_Node000036"><a xlink:title=" ">
<polygon fill="#e0e0e0" stroke="#999999" points="1930.5,-239 1835.5,-239 1835.5,-220 1930.5,-220 1930.5,-239"/>
<text text-anchor="middle" x="1883" y="-227" font-family="Helvetica,sans-Serif" font-size="10.00">QJsonDocument</text>
</a>
</g>
</g>
<!-- Node1&#45;&gt;Node36 -->
<g id="edge68_Node000001_Node000036" class="edge">
<title>Node1&#45;&gt;Node36</title>
<g id="a_edge68_Node000001_Node000036"><a xlink:title=" ">
<path fill="none" stroke="#63b8ff" d="M1668.13,-274.98C1712.6,-265.78 1783.55,-251.09 1831.65,-241.13"/>
<polygon fill="#63b8ff" stroke="#63b8ff" points="1832.46,-244.54 1841.55,-239.08 1831.04,-237.68 1832.46,-244.54"/>
</a>
</g>
</g>
<!-- Node37 -->
<g id="Node000037" class="node">
<title>Node37</title>
<g id="a_Node000037"><a xlink:title=" ">
<polygon fill="#e0e0e0" stroke="#999999" points="2053.5,-239 1948.5,-239 1948.5,-220 2053.5,-220 2053.5,-239"/>
<text text-anchor="middle" x="2001" y="-227" font-family="Helvetica,sans-Serif" font-size="10.00">QNetworkRequest</text>
</a>
</g>
</g>
<!-- Node1&#45;&gt;Node37 -->
<g id="edge72_Node000001_Node000037" class="edge">
<title>Node1&#45;&gt;Node37</title>
<g id="a_edge72_Node000001_Node000037"><a xlink:title=" ">
<path fill="none" stroke="#63b8ff" d="M1687.09,-274.98C1755.97,-265.22 1868.35,-249.3 1938.31,-239.38"/>
<polygon fill="#63b8ff" stroke="#63b8ff" points="1938.9,-242.83 1948.31,-237.97 1937.92,-235.9 1938.9,-242.83"/>
</a>
</g>
</g>
<!-- Node38 -->
<g id="Node000038" class="node">
<title>Node38</title>
<g id="a_Node000038"><a xlink:title=" ">
<polygon fill="#e0e0e0" stroke="#999999" points="2134,-239 2072,-239 2072,-220 2134,-220 2134,-239"/>
<text text-anchor="middle" x="2103" y="-227" font-family="Helvetica,sans-Serif" font-size="10.00">QProcess</text>
</a>
</g>
</g>
<!-- Node1&#45;&gt;Node38 -->
<g id="edge73_Node000001_Node000038" class="edge">
<title>Node1&#45;&gt;Node38</title>
<g id="a_edge73_Node000001_Node000038"><a xlink:title=" ">
<path fill="none" stroke="#63b8ff" d="M1713.8,-277.41C1799.72,-270.75 1935.17,-258.55 2061.38,-239.1"/>
<polygon fill="#63b8ff" stroke="#63b8ff" points="2062.28,-242.5 2071.62,-237.5 2061.2,-235.59 2062.28,-242.5"/>
</a>
</g>
</g>
<!-- Node39 -->
<g id="Node000039" class="node">
<title>Node39</title>
<g id="a_Node000039"><a xlink:title=" ">
<polygon fill="#e0e0e0" stroke="#999999" points="2267.5,-239 2152.5,-239 2152.5,-220 2267.5,-220 2267.5,-239"/>
<text text-anchor="middle" x="2210" y="-227" font-family="Helvetica,sans-Serif" font-size="10.00">QRegularExpression</text>
</a>
</g>
</g>
<!-- Node1&#45;&gt;Node39 -->
<g id="edge75_Node000001_Node000039" class="edge">
<title>Node1&#45;&gt;Node39</title>
<g id="a_edge75_Node000001_Node000039"><a xlink:title=" ">
<path fill="none" stroke="#63b8ff" d="M1713.84,-277.08C1814.26,-269.42 1984.82,-255.65 2141.94,-239.07"/>
<polygon fill="#63b8ff" stroke="#63b8ff" points="2142.7,-242.51 2152.27,-237.97 2141.96,-235.55 2142.7,-242.51"/>
</a>
</g>
</g>
<!-- Node40 -->
<g id="Node000040" class="node">
<title>Node40</title>
<g id="a_Node000040"><a xlink:title=" ">
<polygon fill="#e0e0e0" stroke="#999999" points="2366,-239 2286,-239 2286,-220 2366,-220 2366,-239"/>
<text text-anchor="middle" x="2326" y="-227" font-family="Helvetica,sans-Serif" font-size="10.00">QTextStream</text>
</a>
</g>
</g>
<!-- Node1&#45;&gt;Node40 -->
<g id="edge76_Node000001_Node000040" class="edge">
<title>Node1&#45;&gt;Node40</title>
<g id="a_edge76_Node000001_Node000040"><a xlink:title=" ">
<path fill="none" stroke="#63b8ff" d="M1713.75,-280.42C1836.61,-275.41 2068.5,-263.62 2275.78,-239.02"/>
<polygon fill="#63b8ff" stroke="#63b8ff" points="2276.43,-242.46 2285.94,-237.8 2275.59,-235.51 2276.43,-242.46"/>
</a>
</g>
</g>
<!-- Node41 -->
<g id="Node000041" class="node">
<title>Node41</title>
<g id="a_Node000041"><a xlink:title=" ">
<polygon fill="#e0e0e0" stroke="#999999" points="2437.5,-239 2384.5,-239 2384.5,-220 2437.5,-220 2437.5,-239"/>
<text text-anchor="middle" x="2411" y="-227" font-family="Helvetica,sans-Serif" font-size="10.00">QTimer</text>
</a>
</g>
</g>
<!-- Node1&#45;&gt;Node41 -->
<g id="edge77_Node000001_Node000041" class="edge">
<title>Node1&#45;&gt;Node41</title>
<g id="a_edge77_Node000001_Node000041"><a xlink:title=" ">
<path fill="none" stroke="#63b8ff" d="M1713.6,-283.18C1851.53,-281.6 2129.63,-274.07 2374.21,-238.81"/>
<polygon fill="#63b8ff" stroke="#63b8ff" points="2374.97,-242.24 2384.36,-237.33 2373.96,-235.31 2374.97,-242.24"/>
</a>
</g>
</g>
<!-- Node42 -->
<g id="Node000042" class="node">
<title>Node42</title>
<g id="a_Node000042"><a xlink:title=" ">
<polygon fill="#e0e0e0" stroke="#999999" points="2502.5,-239 2455.5,-239 2455.5,-220 2502.5,-220 2502.5,-239"/>
<text text-anchor="middle" x="2479" y="-227" font-family="Helvetica,sans-Serif" font-size="10.00">QUuid</text>
</a>
</g>
</g>
<!-- Node1&#45;&gt;Node42 -->
<g id="edge78_Node000001_Node000042" class="edge">
<title>Node1&#45;&gt;Node42</title>
<g id="a_edge78_Node000001_Node000042"><a xlink:title=" ">
<path fill="none" stroke="#63b8ff" d="M1713.76,-281.05C1890.8,-275.68 2289.42,-261.66 2445.02,-238.94"/>
<polygon fill="#63b8ff" stroke="#63b8ff" points="2445.99,-242.33 2455.35,-237.36 2444.94,-235.41 2445.99,-242.33"/>
</a>
</g>
</g>
<!-- Node3 -->
<g id="Node000003" class="node">
<title>Node3</title>
<g id="a_Node000003"><a xlink:href="LcscImageService_8h.html" target="_top" xlink:title=" ">
<polygon fill="white" stroke="#666666" points="583.5,-184 470.5,-184 470.5,-165 583.5,-165 583.5,-184"/>
<text text-anchor="middle" x="527" y="-172" font-family="Helvetica,sans-Serif" font-size="10.00">LcscImageService.h</text>
</a>
</g>
</g>
<!-- Node2&#45;&gt;Node3 -->
<g id="edge2_Node000002_Node000003" class="edge">
<title>Node2&#45;&gt;Node3</title>
<g id="a_edge2_Node000002_Node000003"><a xlink:title=" ">
<path fill="none" stroke="#63b8ff" d="M814.05,-219.98C753.56,-210.61 656.39,-195.55 592.12,-185.59"/>
<polygon fill="#63b8ff" stroke="#63b8ff" points="592.51,-182.11 582.1,-184.04 591.44,-189.03 592.51,-182.11"/>
</a>
</g>
</g>
<!-- Node4 -->
<g id="Node000004" class="node">
<title>Node4</title>
<g id="a_Node000004"><a xlink:title=" ">
<polygon fill="#e0e0e0" stroke="#999999" points="412.5,-129 367.5,-129 367.5,-110 412.5,-110 412.5,-129"/>
<text text-anchor="middle" x="390" y="-117" font-family="Helvetica,sans-Serif" font-size="10.00">QMap</text>
</a>
</g>
</g>
<!-- Node2&#45;&gt;Node4 -->
<g id="edge39_Node000002_Node000004" class="edge">
<title>Node2&#45;&gt;Node4</title>
<g id="a_edge39_Node000002_Node000004"><a xlink:title=" ">
<path fill="none" stroke="#63b8ff" d="M809.88,-226.41C712.45,-222.25 522.88,-210.88 462,-184 438.29,-173.53 416.82,-152.36 403.62,-137.34"/>
<polygon fill="#63b8ff" stroke="#63b8ff" points="405.98,-134.71 396.84,-129.34 400.64,-139.23 405.98,-134.71"/>
</a>
</g>
</g>
<!-- Node7 -->
<g id="Node000007" class="node">
<title>Node7</title>
<g id="a_Node000007"><a xlink:title=" ">
<polygon fill="#e0e0e0" stroke="#999999" points="771,-129 715,-129 715,-110 771,-110 771,-129"/>
<text text-anchor="middle" x="743" y="-117" font-family="Helvetica,sans-Serif" font-size="10.00">QObject</text>
</a>
</g>
</g>
<!-- Node2&#45;&gt;Node7 -->
<g id="edge40_Node000002_Node000007" class="edge">
<title>Node2&#45;&gt;Node7</title>
<g id="a_edge40_Node000002_Node000007"><a xlink:title=" ">
<path fill="none" stroke="#63b8ff" d="M830.57,-219.94C809.04,-213.37 783.16,-202.23 766,-184 754.33,-171.61 748.5,-152.84 745.64,-138.93"/>
<polygon fill="#63b8ff" stroke="#63b8ff" points="749.08,-138.27 743.93,-129.02 742.18,-139.47 749.08,-138.27"/>
</a>
</g>
</g>
<!-- Node2&#45;&gt;Node8 -->
<g id="edge42_Node000002_Node000008" class="edge">
<title>Node2&#45;&gt;Node8</title>
<g id="a_edge42_Node000002_Node000008"><a xlink:title=" ">
<path fill="none" stroke="#63b8ff" d="M838.53,-219.95C813.79,-212.35 778.47,-199.98 750,-184 726.07,-170.57 701.7,-150.4 686.03,-136.42"/>
<polygon fill="#63b8ff" stroke="#63b8ff" points="688.03,-133.5 678.28,-129.36 683.32,-138.68 688.03,-133.5"/>
</a>
</g>
</g>
<!-- Node9 -->
<g id="Node000009" class="node">
<title>Node9</title>
<g id="a_Node000009"><a xlink:title=" ">
<polygon fill="#e0e0e0" stroke="#999999" points="863.5,-19 810.5,-19 810.5,0 863.5,0 863.5,-19"/>
<text text-anchor="middle" x="837" y="-7" font-family="Helvetica,sans-Serif" font-size="10.00">QString</text>
</a>
</g>
</g>
<!-- Node2&#45;&gt;Node9 -->
<g id="edge43_Node000002_Node000009" class="edge">
<title>Node2&#45;&gt;Node9</title>
<g id="a_edge43_Node000002_Node000009"><a xlink:title=" ">
<path fill="none" stroke="#63b8ff" d="M844.53,-219.86C828.73,-212.85 809.41,-201.27 800,-184 771.68,-132.04 806.71,-60.35 825.95,-27.81"/>
<polygon fill="#63b8ff" stroke="#63b8ff" points="829.09,-29.39 831.33,-19.03 823.12,-25.73 829.09,-29.39"/>
</a>
</g>
</g>
<!-- Node10 -->
<g id="Node000010" class="node">
<title>Node10</title>
<g id="a_Node000010"><a xlink:title=" ">
<polygon fill="#e0e0e0" stroke="#999999" points="623,-129 553,-129 553,-110 623,-110 623,-129"/>
<text text-anchor="middle" x="588" y="-117" font-family="Helvetica,sans-Serif" font-size="10.00">QStringList</text>
</a>
</g>
</g>
<!-- Node2&#45;&gt;Node10 -->
<g id="edge44_Node000002_Node000010" class="edge">
<title>Node2&#45;&gt;Node10</title>
<g id="a_edge44_Node000002_Node000010"><a xlink:title=" ">
<path fill="none" stroke="#63b8ff" d="M833.41,-219.94C802.23,-212 755.95,-199.16 717,-184 679.25,-169.31 637.53,-147.73 612.03,-133.9"/>
<polygon fill="#63b8ff" stroke="#63b8ff" points="613.55,-130.74 603.1,-129 610.19,-136.88 613.55,-130.74"/>
</a>
</g>
</g>
<!-- Node12 -->
<g id="Node000012" class="node">
<title>Node12</title>
<g id="a_Node000012"><a xlink:href="ComponentData_8h.html" target="_top" xlink:title=" ">
<polygon fill="white" stroke="#666666" points="1162,-184 1018,-184 1018,-165 1162,-165 1162,-184"/>
<text text-anchor="middle" x="1090" y="-172" font-family="Helvetica,sans-Serif" font-size="10.00">models/ComponentData.h</text>
</a>
</g>
</g>
<!-- Node2&#45;&gt;Node12 -->
<g id="edge11_Node000002_Node000012" class="edge">
<title>Node2&#45;&gt;Node12</title>
<g id="a_edge11_Node000002_Node000012"><a xlink:title=" ">
<path fill="none" stroke="#63b8ff" d="M904.51,-219.98C942.49,-210.87 1002.87,-196.4 1044.36,-186.45"/>
<polygon fill="#63b8ff" stroke="#63b8ff" points="1045.31,-189.82 1054.21,-184.08 1043.67,-183.01 1045.31,-189.82"/>
</a>
</g>
</g>
<!-- Node13 -->
<g id="Node000013" class="node">
<title>Node13</title>
<g id="a_Node000013"><a xlink:href="FootprintData_8h.html" target="_top" xlink:title=" ">
<polygon fill="white" stroke="#666666" points="1107,-129 1015,-129 1015,-110 1107,-110 1107,-129"/>
<text text-anchor="middle" x="1061" y="-117" font-family="Helvetica,sans-Serif" font-size="10.00">FootprintData.h</text>
</a>
</g>
</g>
<!-- Node2&#45;&gt;Node13 -->
<g id="edge34_Node000002_Node000013" class="edge">
<title>Node2&#45;&gt;Node13</title>
<g id="a_edge34_Node000002_Node000013"><a xlink:title=" ">
<path fill="none" stroke="#63b8ff" d="M890.29,-219.89C910.27,-211.54 940.77,-198.1 966,-184 992.94,-168.94 1022.21,-148.74 1041.04,-135.2"/>
<polygon fill="#63b8ff" stroke="#63b8ff" points="1043.35,-137.85 1049.39,-129.15 1039.24,-132.19 1043.35,-137.85"/>
</a>
</g>
</g>
<!-- Node14 -->
<g id="Node000014" class="node">
<title>Node14</title>
<g id="a_Node000014"><a xlink:href="Model3DData_8h.html" target="_top" xlink:title=" ">
<polygon fill="white" stroke="#666666" points="957,-74 865,-74 865,-55 957,-55 957,-74"/>
<text text-anchor="middle" x="911" y="-62" font-family="Helvetica,sans-Serif" font-size="10.00">Model3DData.h</text>
</a>
</g>
</g>
<!-- Node2&#45;&gt;Node14 -->
<g id="edge35_Node000002_Node000014" class="edge">
<title>Node2&#45;&gt;Node14</title>
<g id="a_edge35_Node000002_Node000014"><a xlink:title=" ">
<path fill="none" stroke="#63b8ff" d="M890.79,-219.87C905.64,-212.69 924.16,-200.91 933,-184 950.13,-151.22 933.12,-107.22 920.94,-83.11"/>
<polygon fill="#63b8ff" stroke="#63b8ff" points="923.93,-81.27 916.14,-74.09 917.75,-84.56 923.93,-81.27"/>
</a>
</g>
</g>
<!-- Node2&#45;&gt;Node16 -->
<g id="edge38_Node000002_Node000016" class="edge">
<title>Node2&#45;&gt;Node16</title>
<g id="a_edge38_Node000002_Node000016"><a xlink:title=" ">
<path fill="none" stroke="#63b8ff" d="M928.13,-226.16C1054.5,-220.77 1342.55,-206.19 1381,-184 1440.69,-149.55 1470.49,-66.34 1481.21,-29.08"/>
<polygon fill="#63b8ff" stroke="#63b8ff" points="1484.68,-29.67 1483.94,-19.1 1477.92,-27.82 1484.68,-29.67"/>
</a>
</g>
</g>
<!-- Node20 -->
<g id="Node000020" class="node">
<title>Node20</title>
<g id="a_Node000020"><a xlink:href="SymbolData_8h.html" target="_top" xlink:title=" ">
<polygon fill="white" stroke="#666666" points="1359,-129 1273,-129 1273,-110 1359,-110 1359,-129"/>
<text text-anchor="middle" x="1316" y="-117" font-family="Helvetica,sans-Serif" font-size="10.00">SymbolData.h</text>
</a>
</g>
</g>
<!-- Node2&#45;&gt;Node20 -->
<g id="edge36_Node000002_Node000020" class="edge">
<title>Node2&#45;&gt;Node20</title>
<g id="a_edge36_Node000002_Node000020"><a xlink:title=" ">
<path fill="none" stroke="#63b8ff" d="M928.45,-227.57C1053.78,-224.98 1336.05,-215.66 1365,-184 1379.67,-167.96 1358.23,-147.87 1339.26,-134.64"/>
<polygon fill="#63b8ff" stroke="#63b8ff" points="1341.13,-131.68 1330.86,-129.08 1337.27,-137.51 1341.13,-131.68"/>
</a>
</g>
</g>
<!-- Node23 -->
<g id="Node000023" class="node">
<title>Node23</title>
<g id="a_Node000023"><a xlink:title=" ">
<polygon fill="#e0e0e0" stroke="#999999" points="863.5,-184 808.5,-184 808.5,-165 863.5,-165 863.5,-184"/>
<text text-anchor="middle" x="836" y="-172" font-family="Helvetica,sans-Serif" font-size="10.00">QImage</text>
</a>
</g>
</g>
<!-- Node2&#45;&gt;Node23 -->
<g id="edge37_Node000002_Node000023" class="edge">
<title>Node2&#45;&gt;Node23</title>
<g id="a_edge37_Node000002_Node000023"><a xlink:title=" ">
<path fill="none" stroke="#63b8ff" d="M863.55,-219.75C858.99,-212.42 852.33,-201.73 846.71,-192.7"/>
<polygon fill="#63b8ff" stroke="#63b8ff" points="849.6,-190.73 841.35,-184.09 843.66,-194.43 849.6,-190.73"/>
</a>
</g>
</g>
<!-- Node24 -->
<g id="Node000024" class="node">
<title>Node24</title>
<g id="a_Node000024"><a xlink:title=" ">
<polygon fill="#e0e0e0" stroke="#999999" points="924,-184 882,-184 882,-165 924,-165 924,-184"/>
<text text-anchor="middle" x="903" y="-172" font-family="Helvetica,sans-Serif" font-size="10.00">QPair</text>
</a>
</g>
</g>
<!-- Node2&#45;&gt;Node24 -->
<g id="edge41_Node000002_Node000024" class="edge">
<title>Node2&#45;&gt;Node24</title>
<g id="a_edge41_Node000002_Node000024"><a xlink:title=" ">
<path fill="none" stroke="#63b8ff" d="M874.61,-219.75C879.32,-212.42 886.17,-201.73 891.97,-192.7"/>
<polygon fill="#63b8ff" stroke="#63b8ff" points="895.04,-194.4 897.49,-184.09 889.14,-190.62 895.04,-194.4"/>
</a>
</g>
</g>
<!-- Node3&#45;&gt;Node4 -->
<g id="edge3_Node000003_Node000004" class="edge">
<title>Node3&#45;&gt;Node4</title>
<g id="a_edge3_Node000003_Node000004"><a xlink:title=" ">
<path fill="none" stroke="#63b8ff" d="M504.99,-164.98C482.55,-156.3 447.52,-142.75 422.01,-132.88"/>
<polygon fill="#63b8ff" stroke="#63b8ff" points="423,-129.51 412.41,-129.17 420.48,-136.04 423,-129.51"/>
</a>
</g>
</g>
<!-- Node3&#45;&gt;Node5 -->
<g id="edge4_Node000003_Node000005" class="edge">
<title>Node3&#45;&gt;Node5</title>
<g id="a_edge4_Node000003_Node000005"><a xlink:title=" ">
<path fill="none" stroke="#63b8ff" d="M470.17,-166.89C390.09,-157.59 243.61,-140.56 152.11,-129.93"/>
<polygon fill="#63b8ff" stroke="#63b8ff" points="152.39,-126.44 142.05,-128.76 151.58,-133.39 152.39,-126.44"/>
</a>
</g>
</g>
<!-- Node3&#45;&gt;Node6 -->
<g id="edge5_Node000003_Node000006" class="edge">
<title>Node3&#45;&gt;Node6</title>
<g id="a_edge5_Node000003_Node000006"><a xlink:title=" ">
<path fill="none" stroke="#63b8ff" d="M491.01,-164.98C452.51,-155.87 391.31,-141.4 349.26,-131.45"/>
<polygon fill="#63b8ff" stroke="#63b8ff" points="349.81,-127.98 339.27,-129.08 348.2,-134.79 349.81,-127.98"/>
</a>
</g>
</g>
<!-- Node3&#45;&gt;Node7 -->
<g id="edge6_Node000003_Node000007" class="edge">
<title>Node3&#45;&gt;Node7</title>
<g id="a_edge6_Node000003_Node000007"><a xlink:title=" ">
<path fill="none" stroke="#63b8ff" d="M561.7,-164.98C600.95,-155.35 664.65,-139.72 705.15,-129.79"/>
<polygon fill="#63b8ff" stroke="#63b8ff" points="706.04,-133.17 714.92,-127.39 704.37,-126.37 706.04,-133.17"/>
</a>
</g>
</g>
<!-- Node3&#45;&gt;Node8 -->
<g id="edge7_Node000003_Node000008" class="edge">
<title>Node3&#45;&gt;Node8</title>
<g id="a_edge7_Node000003_Node000008"><a xlink:title=" ">
<path fill="none" stroke="#63b8ff" d="M549.81,-164.98C573.17,-156.27 609.7,-142.63 636.17,-132.75"/>
<polygon fill="#63b8ff" stroke="#63b8ff" points="637.63,-135.95 645.77,-129.17 635.18,-129.39 637.63,-135.95"/>
</a>
</g>
</g>
<!-- Node3&#45;&gt;Node9 -->
<g id="edge8_Node000003_Node000009" class="edge">
<title>Node3&#45;&gt;Node9</title>
<g id="a_edge8_Node000003_Node000009"><a xlink:title=" ">
<path fill="none" stroke="#63b8ff" d="M505.83,-164.88C480.68,-153.38 444.12,-131.92 461,-110 502.72,-55.81 713.8,-25.08 800.13,-14.61"/>
<polygon fill="#63b8ff" stroke="#63b8ff" points="800.74,-18.07 810.26,-13.41 799.92,-11.12 800.74,-18.07"/>
</a>
</g>
</g>
<!-- Node3&#45;&gt;Node10 -->
<g id="edge9_Node000003_Node000010" class="edge">
<title>Node3&#45;&gt;Node10</title>
<g id="a_edge9_Node000003_Node000010"><a xlink:title=" ">
<path fill="none" stroke="#63b8ff" d="M536.8,-164.98C545.82,-157.15 559.41,-145.34 570.32,-135.86"/>
<polygon fill="#63b8ff" stroke="#63b8ff" points="572.77,-138.37 578.02,-129.17 568.18,-133.09 572.77,-138.37"/>
</a>
</g>
</g>
<!-- Node11 -->
<g id="Node000011" class="node">
<title>Node11</title>
<g id="a_Node000011"><a xlink:title=" ">
<polygon fill="#e0e0e0" stroke="#999999" points="534.5,-129 469.5,-129 469.5,-110 534.5,-110 534.5,-129"/>
<text text-anchor="middle" x="502" y="-117" font-family="Helvetica,sans-Serif" font-size="10.00">functional</text>
</a>
</g>
</g>
<!-- Node3&#45;&gt;Node11 -->
<g id="edge10_Node000003_Node000011" class="edge">
<title>Node3&#45;&gt;Node11</title>
<g id="a_edge10_Node000003_Node000011"><a xlink:title=" ">
<path fill="none" stroke="#63b8ff" d="M522.87,-164.75C519.49,-157.57 514.58,-147.18 510.38,-138.27"/>
<polygon fill="#63b8ff" stroke="#63b8ff" points="513.48,-136.64 506.05,-129.09 507.15,-139.63 513.48,-136.64"/>
</a>
</g>
</g>
<!-- Node12&#45;&gt;Node9 -->
<g id="edge33_Node000012_Node000009" class="edge">
<title>Node12&#45;&gt;Node9</title>
<g id="a_edge33_Node000012_Node000009"><a xlink:title=" ">
<path fill="none" stroke="#63b8ff" d="M1031.06,-165C976.73,-153.89 898.3,-128.9 856,-74 846.01,-61.04 841.26,-42.89 839.01,-29.31"/>
<polygon fill="#63b8ff" stroke="#63b8ff" points="842.45,-28.63 837.64,-19.19 835.51,-29.57 842.45,-28.63"/>
</a>
</g>
</g>
<!-- Node12&#45;&gt;Node13 -->
<g id="edge12_Node000012_Node000013" class="edge">
<title>Node12&#45;&gt;Node13</title>
<g id="a_edge12_Node000012_Node000013"><a xlink:title=" ">
<path fill="none" stroke="#63b8ff" d="M1085.21,-164.75C1081.24,-157.49 1075.47,-146.95 1070.57,-137.98"/>
<polygon fill="#63b8ff" stroke="#63b8ff" points="1073.57,-136.18 1065.7,-129.09 1067.43,-139.54 1073.57,-136.18"/>
</a>
</g>
</g>
<!-- Node12&#45;&gt;Node14 -->
<g id="edge22_Node000012_Node000014" class="edge">
<title>Node12&#45;&gt;Node14</title>
<g id="a_edge22_Node000012_Node000014"><a xlink:title=" ">
<path fill="none" stroke="#63b8ff" d="M1056.41,-164.95C1031.98,-157.76 998.81,-145.92 973,-129 953.37,-116.13 935.14,-96.08 923.6,-81.96"/>
<polygon fill="#63b8ff" stroke="#63b8ff" points="926.29,-79.71 917.33,-74.05 920.8,-84.06 926.29,-79.71"/>
</a>
</g>
</g>
<!-- Node12&#45;&gt;Node16 -->
<g id="edge31_Node000012_Node000016" class="edge">
<title>Node12&#45;&gt;Node16</title>
<g id="a_edge31_Node000012_Node000016"><a xlink:title=" ">
<path fill="none" stroke="#63b8ff" d="M1056.6,-164.98C1038.22,-158.4 1016.98,-147.24 1006,-129 982.16,-89.39 1045.7,-63.06 1063,-55 1128.54,-24.45 1341.4,-14.6 1437.79,-11.66"/>
<polygon fill="#63b8ff" stroke="#63b8ff" points="1437.96,-15.15 1447.85,-11.36 1437.75,-8.16 1437.96,-15.15"/>
</a>
</g>
</g>
<!-- Node12&#45;&gt;Node17 -->
<g id="edge30_Node000012_Node000017" class="edge">
<title>Node12&#45;&gt;Node17</title>
<g id="a_edge30_Node000012_Node000017"><a xlink:title=" ">
<path fill="none" stroke="#63b8ff" d="M1097.04,-164.65C1108.01,-151.32 1130.4,-125.96 1154,-110 1174.38,-96.21 1199.73,-85.2 1220.18,-77.57"/>
<polygon fill="#63b8ff" stroke="#63b8ff" points="1221.57,-80.8 1229.78,-74.11 1219.19,-74.21 1221.57,-80.8"/>
</a>
</g>
</g>
<!-- Node12&#45;&gt;Node20 -->
<g id="edge23_Node000012_Node000020" class="edge">
<title>Node12&#45;&gt;Node20</title>
<g id="a_edge23_Node000012_Node000020"><a xlink:title=" ">
<path fill="none" stroke="#63b8ff" d="M1126.31,-164.98C1165.24,-155.86 1227.16,-141.33 1269.6,-131.38"/>
<polygon fill="#63b8ff" stroke="#63b8ff" points="1270.47,-134.77 1279.4,-129.08 1268.87,-127.96 1270.47,-134.77"/>
</a>
</g>
</g>
<!-- Node22 -->
<g id="Node000022" class="node">
<title>Node22</title>
<g id="a_Node000022"><a xlink:title=" ">
<polygon fill="#e0e0e0" stroke="#999999" points="1255,-129 1163,-129 1163,-110 1255,-110 1255,-129"/>
<text text-anchor="middle" x="1209" y="-117" font-family="Helvetica,sans-Serif" font-size="10.00">QSharedPointer</text>
</a>
</g>
</g>
<!-- Node12&#45;&gt;Node22 -->
<g id="edge32_Node000012_Node000022" class="edge">
<title>Node12&#45;&gt;Node22</title>
<g id="a_edge32_Node000012_Node000022"><a xlink:title=" ">
<path fill="none" stroke="#63b8ff" d="M1109.12,-164.98C1128.35,-156.42 1158.23,-143.11 1180.31,-133.28"/>
<polygon fill="#63b8ff" stroke="#63b8ff" points="1181.82,-136.44 1189.53,-129.17 1178.97,-130.04 1181.82,-136.44"/>
</a>
</g>
</g>
<!-- Node13&#45;&gt;Node9 -->
<g id="edge21_Node000013_Node000009" class="edge">
<title>Node13&#45;&gt;Node9</title>
<g id="a_edge21_Node000013_Node000009"><a xlink:title=" ">
<path fill="none" stroke="#63b8ff" d="M1050.16,-109.89C1033.09,-96.65 998.52,-71.14 966,-55 936.12,-40.17 900.08,-28.19 873.7,-20.41"/>
<polygon fill="#63b8ff" stroke="#63b8ff" points="874.32,-16.95 863.74,-17.54 872.38,-23.68 874.32,-16.95"/>
</a>
</g>
</g>
<!-- Node13&#45;&gt;Node14 -->
<g id="edge13_Node000013_Node000014" class="edge">
<title>Node13&#45;&gt;Node14</title>
<g id="a_edge13_Node000013_Node000014"><a xlink:title=" ">
<path fill="none" stroke="#63b8ff" d="M1036.9,-109.98C1012.12,-101.23 973.3,-87.51 945.31,-77.62"/>
<polygon fill="#63b8ff" stroke="#63b8ff" points="946.13,-74.2 935.54,-74.17 943.8,-80.8 946.13,-74.2"/>
</a>
</g>
</g>
<!-- Node13&#45;&gt;Node16 -->
<g id="edge18_Node000013_Node000016" class="edge">
<title>Node13&#45;&gt;Node16</title>
<g id="a_edge18_Node000013_Node000016"><a xlink:title=" ">
<path fill="none" stroke="#63b8ff" d="M1060.94,-109.91C1061.36,-95.98 1064.39,-68.64 1081,-55 1108.09,-32.75 1336.07,-18.28 1437.58,-12.88"/>
<polygon fill="#63b8ff" stroke="#63b8ff" points="1438.07,-16.36 1447.87,-12.34 1437.7,-9.37 1438.07,-16.36"/>
</a>
</g>
</g>
<!-- Node13&#45;&gt;Node17 -->
<g id="edge17_Node000013_Node000017" class="edge">
<title>Node13&#45;&gt;Node17</title>
<g id="a_edge17_Node000013_Node000017"><a xlink:title=" ">
<path fill="none" stroke="#63b8ff" d="M1092.49,-109.98C1125.82,-100.97 1178.6,-86.7 1215.35,-76.76"/>
<polygon fill="#63b8ff" stroke="#63b8ff" points="1216.52,-80.07 1225.26,-74.08 1214.7,-73.31 1216.52,-80.07"/>
</a>
</g>
</g>
<!-- Node18 -->
<g id="Node000018" class="node">
<title>Node18</title>
<g id="a_Node000018"><a xlink:title=" ">
<polygon fill="#e0e0e0" stroke="#999999" points="1203.5,-74 1162.5,-74 1162.5,-55 1203.5,-55 1203.5,-74"/>
<text text-anchor="middle" x="1183" y="-62" font-family="Helvetica,sans-Serif" font-size="10.00">QList</text>
</a>
</g>
</g>
<!-- Node13&#45;&gt;Node18 -->
<g id="edge19_Node000013_Node000018" class="edge">
<title>Node13&#45;&gt;Node18</title>
<g id="a_edge19_Node000013_Node000018"><a xlink:title=" ">
<path fill="none" stroke="#63b8ff" d="M1080.6,-109.98C1100.32,-101.42 1130.95,-88.11 1153.58,-78.28"/>
<polygon fill="#63b8ff" stroke="#63b8ff" points="1155.26,-81.37 1163.04,-74.17 1152.48,-74.94 1155.26,-81.37"/>
</a>
</g>
</g>
<!-- Node19 -->
<g id="Node000019" class="node">
<title>Node19</title>
<g id="a_Node000019"><a xlink:title=" ">
<polygon fill="#e0e0e0" stroke="#999999" points="1144.5,-74 1089.5,-74 1089.5,-55 1144.5,-55 1144.5,-74"/>
<text text-anchor="middle" x="1117" y="-62" font-family="Helvetica,sans-Serif" font-size="10.00">QPointF</text>
</a>
</g>
</g>
<!-- Node13&#45;&gt;Node19 -->
<g id="edge20_Node000013_Node000019" class="edge">
<title>Node13&#45;&gt;Node19</title>
<g id="a_edge20_Node000013_Node000019"><a xlink:title=" ">
<path fill="none" stroke="#63b8ff" d="M1070,-109.98C1078.19,-102.23 1090.51,-90.58 1100.47,-81.14"/>
<polygon fill="#63b8ff" stroke="#63b8ff" points="1102.98,-83.59 1107.84,-74.17 1098.17,-78.5 1102.98,-83.59"/>
</a>
</g>
</g>
<!-- Node14&#45;&gt;Node9 -->
<g id="edge16_Node000014_Node000009" class="edge">
<title>Node14&#45;&gt;Node9</title>
<g id="a_edge16_Node000014_Node000009"><a xlink:title=" ">
<path fill="none" stroke="#63b8ff" d="M899.11,-54.98C887.85,-46.92 870.71,-34.65 857.29,-25.03"/>
<polygon fill="#63b8ff" stroke="#63b8ff" points="859.27,-22.15 849.11,-19.17 855.2,-27.84 859.27,-22.15"/>
</a>
</g>
</g>
<!-- Node15 -->
<g id="Node000015" class="node">
<title>Node15</title>
<g id="a_Node000015"><a xlink:title=" ">
<polygon fill="#e0e0e0" stroke="#999999" points="954.5,-19 881.5,-19 881.5,0 954.5,0 954.5,-19"/>
<text text-anchor="middle" x="918" y="-7" font-family="Helvetica,sans-Serif" font-size="10.00">QByteArray</text>
</a>
</g>
</g>
<!-- Node14&#45;&gt;Node15 -->
<g id="edge14_Node000014_Node000015" class="edge">
<title>Node14&#45;&gt;Node15</title>
<g id="a_edge14_Node000014_Node000015"><a xlink:title=" ">
<path fill="none" stroke="#63b8ff" d="M912.16,-54.75C913.07,-47.8 914.39,-37.85 915.54,-29.13"/>
<polygon fill="#63b8ff" stroke="#63b8ff" points="919.03,-29.46 916.87,-19.09 912.09,-28.54 919.03,-29.46"/>
</a>
</g>
</g>
<!-- Node14&#45;&gt;Node16 -->
<g id="edge15_Node000014_Node000016" class="edge">
<title>Node14&#45;&gt;Node16</title>
<g id="a_edge15_Node000014_Node000016"><a xlink:title=" ">
<path fill="none" stroke="#63b8ff" d="M957.16,-56.7C961.83,-56.09 966.51,-55.51 971,-55 1142.28,-35.48 1346.49,-20.2 1437.77,-13.79"/>
<polygon fill="#63b8ff" stroke="#63b8ff" points="1438.08,-17.27 1447.81,-13.08 1437.59,-10.29 1438.08,-17.27"/>
</a>
</g>
</g>
<!-- Node20&#45;&gt;Node9 -->
<g id="edge29_Node000020_Node000009" class="edge">
<title>Node20&#45;&gt;Node9</title>
<g id="a_edge29_Node000020_Node000009"><a xlink:title=" ">
<path fill="none" stroke="#63b8ff" d="M1316.98,-109.95C1318.03,-96.08 1317.8,-68.83 1302,-55 1267.76,-25.04 953.27,-26.3 873.94,-18.53"/>
<polygon fill="#63b8ff" stroke="#63b8ff" points="874,-15.01 863.65,-17.26 873.14,-21.96 874,-15.01"/>
</a>
</g>
</g>
<!-- Node20&#45;&gt;Node16 -->
<g id="edge25_Node000020_Node000016" class="edge">
<title>Node20&#45;&gt;Node16</title>
<g id="a_edge25_Node000020_Node000016"><a xlink:title=" ">
<path fill="none" stroke="#63b8ff" d="M1338.1,-109.92C1357.7,-101.87 1386.73,-88.89 1410,-74 1432.24,-59.77 1455.15,-39.76 1469.92,-26.03"/>
<polygon fill="#63b8ff" stroke="#63b8ff" points="1472.36,-28.53 1477.23,-19.12 1467.56,-23.45 1472.36,-28.53"/>
</a>
</g>
</g>
<!-- Node20&#45;&gt;Node17 -->
<g id="edge24_Node000020_Node000017" class="edge">
<title>Node20&#45;&gt;Node17</title>
<g id="a_edge24_Node000020_Node000017"><a xlink:title=" ">
<path fill="none" stroke="#63b8ff" d="M1306.52,-109.98C1297.8,-102.15 1284.66,-90.34 1274.1,-80.86"/>
<polygon fill="#63b8ff" stroke="#63b8ff" points="1276.43,-78.25 1266.65,-74.17 1271.75,-83.46 1276.43,-78.25"/>
</a>
</g>
</g>
<!-- Node20&#45;&gt;Node18 -->
<g id="edge26_Node000020_Node000018" class="edge">
<title>Node20&#45;&gt;Node18</title>
<g id="a_edge26_Node000020_Node000018"><a xlink:title=" ">
<path fill="none" stroke="#63b8ff" d="M1294.63,-109.98C1272.59,-101.2 1238.03,-87.43 1213.2,-77.53"/>
<polygon fill="#63b8ff" stroke="#63b8ff" points="1214.46,-74.27 1203.88,-73.82 1211.87,-80.77 1214.46,-74.27"/>
</a>
</g>
</g>
<!-- Node20&#45;&gt;Node19 -->
<g id="edge27_Node000020_Node000019" class="edge">
<title>Node20&#45;&gt;Node19</title>
<g id="a_edge27_Node000020_Node000019"><a xlink:title=" ">
<path fill="none" stroke="#63b8ff" d="M1284.03,-109.98C1248.78,-100.6 1192.12,-85.51 1154.72,-75.55"/>
<polygon fill="#63b8ff" stroke="#63b8ff" points="1155.28,-72.07 1144.72,-72.88 1153.48,-78.84 1155.28,-72.07"/>
</a>
</g>
</g>
<!-- Node21 -->
<g id="Node000021" class="node">
<title>Node21</title>
<g id="a_Node000021"><a xlink:title=" ">
<polygon fill="#e0e0e0" stroke="#999999" points="1401,-74 1349,-74 1349,-55 1401,-55 1401,-74"/>
<text text-anchor="middle" x="1375" y="-62" font-family="Helvetica,sans-Serif" font-size="10.00">QRectF</text>
</a>
</g>
</g>
<!-- Node20&#45;&gt;Node21 -->
<g id="edge28_Node000020_Node000021" class="edge">
<title>Node20&#45;&gt;Node21</title>
<g id="a_edge28_Node000020_Node000021"><a xlink:title=" ">
<path fill="none" stroke="#63b8ff" d="M1325.48,-109.98C1334.2,-102.15 1347.34,-90.34 1357.9,-80.86"/>
<polygon fill="#63b8ff" stroke="#63b8ff" points="1360.25,-83.46 1365.35,-74.17 1355.57,-78.25 1360.25,-83.46"/>
</a>
</g>
</g>
<!-- Node25&#45;&gt;Node7 -->
<g id="edge46_Node000025_Node000007" class="edge">
<title>Node25&#45;&gt;Node7</title>
<g id="a_edge46_Node000025_Node000007"><a xlink:title=" ">
<path fill="none" stroke="#63b8ff" d="M413.66,-169.47C473.8,-162.95 593.6,-148.95 704.74,-129.08"/>
<polygon fill="#63b8ff" stroke="#63b8ff" points="705.56,-132.49 714.77,-127.27 704.31,-125.6 705.56,-132.49"/>
</a>
</g>
</g>
<!-- Node25&#45;&gt;Node9 -->
<g id="edge48_Node000025_Node000009" class="edge">
<title>Node25&#45;&gt;Node9</title>
<g id="a_edge48_Node000025_Node000009"><a xlink:title=" ">
<path fill="none" stroke="#63b8ff" d="M336.46,-172.9C270.52,-170.56 147.02,-159.63 189,-110 268.37,-16.17 674.96,-9.84 800.22,-10.15"/>
<polygon fill="#63b8ff" stroke="#63b8ff" points="800.43,-13.66 810.44,-10.2 800.46,-6.66 800.43,-13.66"/>
</a>
</g>
</g>
<!-- Node25&#45;&gt;Node10 -->
<g id="edge49_Node000025_Node000010" class="edge">
<title>Node25&#45;&gt;Node10</title>
<g id="a_edge49_Node000025_Node000010"><a xlink:title=" ">
<path fill="none" stroke="#63b8ff" d="M409.22,-164.98C445.76,-155.89 503.78,-141.46 543.76,-131.51"/>
<polygon fill="#63b8ff" stroke="#63b8ff" points="544.65,-134.89 553.51,-129.08 542.96,-128.1 544.65,-134.89"/>
</a>
</g>
</g>
<!-- Node26 -->
<g id="Node000026" class="node">
<title>Node26</title>
<g id="a_Node000026"><a xlink:title=" ">
<polygon fill="#e0e0e0" stroke="#999999" points="238,-129 198,-129 198,-110 238,-110 238,-129"/>
<text text-anchor="middle" x="218" y="-117" font-family="Helvetica,sans-Serif" font-size="10.00">QSet</text>
</a>
</g>
</g>
<!-- Node25&#45;&gt;Node26 -->
<g id="edge47_Node000025_Node000026" class="edge">
<title>Node25&#45;&gt;Node26</title>
<g id="a_edge47_Node000025_Node000026"><a xlink:title=" ">
<path fill="none" stroke="#63b8ff" d="M349.78,-164.98C322.02,-155.61 277.43,-140.56 247.93,-130.6"/>
<polygon fill="#63b8ff" stroke="#63b8ff" points="248.77,-127.19 238.17,-127.31 246.53,-133.82 248.77,-127.19"/>
</a>
</g>
</g>
<!-- Node27&#45;&gt;Node7 -->
<g id="edge53_Node000027_Node000007" class="edge">
<title>Node27&#45;&gt;Node7</title>
<g id="a_edge53_Node000027_Node000007"><a xlink:title=" ">
<path fill="none" stroke="#63b8ff" d="M1491.32,-168.63C1320.28,-157.63 908.87,-131.17 781.35,-122.97"/>
<polygon fill="#63b8ff" stroke="#63b8ff" points="781.48,-119.47 771.28,-122.32 781.03,-126.45 781.48,-119.47"/>
</a>
</g>
</g>
<!-- Node27&#45;&gt;Node9 -->
<g id="edge55_Node000027_Node000009" class="edge">
<title>Node27&#45;&gt;Node9</title>
<g id="a_edge55_Node000027_Node000009"><a xlink:title=" ">
<path fill="none" stroke="#63b8ff" d="M1559.23,-164.85C1538.01,-141.93 1476.24,-79.69 1410,-55 1300.77,-14.29 1006.72,-35.65 873.7,-18.71"/>
<polygon fill="#63b8ff" stroke="#63b8ff" points="874.03,-15.22 863.64,-17.31 873.06,-22.15 874.03,-15.22"/>
</a>
</g>
</g>
<!-- Node27&#45;&gt;Node16 -->
<g id="edge51_Node000027_Node000016" class="edge">
<title>Node27&#45;&gt;Node16</title>
<g id="a_edge51_Node000027_Node000016"><a xlink:title=" ">
<path fill="none" stroke="#63b8ff" d="M1565.01,-164.69C1563.09,-155.75 1560.28,-141.49 1559,-129 1558.16,-120.82 1561.08,-62.14 1557,-55 1548.91,-40.84 1534.29,-30.54 1520.4,-23.45"/>
<polygon fill="#63b8ff" stroke="#63b8ff" points="1521.54,-20.11 1511,-19.04 1518.57,-26.45 1521.54,-20.11"/>
</a>
</g>
</g>
<!-- Node28 -->
<g id="Node000028" class="node">
<title>Node28</title>
<g id="a_Node000028"><a xlink:title=" ">
<polygon fill="#e0e0e0" stroke="#999999" points="1622.5,-129 1567.5,-129 1567.5,-110 1622.5,-110 1622.5,-129"/>
<text text-anchor="middle" x="1595" y="-117" font-family="Helvetica,sans-Serif" font-size="10.00">QMutex</text>
</a>
</g>
</g>
<!-- Node27&#45;&gt;Node28 -->
<g id="edge52_Node000027_Node000028" class="edge">
<title>Node27&#45;&gt;Node28</title>
<g id="a_edge52_Node000027_Node000028"><a xlink:title=" ">
<path fill="none" stroke="#63b8ff" d="M1571.62,-164.75C1575.46,-157.49 1581.02,-146.95 1585.76,-137.98"/>
<polygon fill="#63b8ff" stroke="#63b8ff" points="1588.89,-139.57 1590.46,-129.09 1582.7,-136.3 1588.89,-139.57"/>
</a>
</g>
</g>
<!-- Node29 -->
<g id="Node000029" class="node">
<title>Node29</title>
<g id="a_Node000029"><a xlink:title=" ">
<polygon fill="#e0e0e0" stroke="#999999" points="1699.5,-129 1640.5,-129 1640.5,-110 1699.5,-110 1699.5,-129"/>
<text text-anchor="middle" x="1670" y="-117" font-family="Helvetica,sans-Serif" font-size="10.00">QPointer</text>
</a>
</g>
</g>
<!-- Node27&#45;&gt;Node29 -->
<g id="edge54_Node000027_Node000029" class="edge">
<title>Node27&#45;&gt;Node29</title>
<g id="a_edge54_Node000027_Node000029"><a xlink:title=" ">
<path fill="none" stroke="#63b8ff" d="M1583.55,-164.98C1599.89,-156.57 1625.13,-143.59 1644.13,-133.81"/>
<polygon fill="#63b8ff" stroke="#63b8ff" points="1645.86,-136.86 1653.15,-129.17 1642.66,-130.63 1645.86,-136.86"/>
</a>
</g>
</g>
<!-- Node30 -->
<g id="Node000030" class="node">
<title>Node30</title>
<g id="a_Node000030"><a xlink:title=" ">
<polygon fill="#e0e0e0" stroke="#999999" points="1772.5,-129 1717.5,-129 1717.5,-110 1772.5,-110 1772.5,-129"/>
<text text-anchor="middle" x="1745" y="-117" font-family="Helvetica,sans-Serif" font-size="10.00">QVector</text>
</a>
</g>
</g>
<!-- Node27&#45;&gt;Node30 -->
<g id="edge56_Node000027_Node000030" class="edge">
<title>Node27&#45;&gt;Node30</title>
<g id="a_edge56_Node000027_Node000030"><a xlink:title=" ">
<path fill="none" stroke="#63b8ff" d="M1595.6,-164.98C1625.97,-155.94 1674.1,-141.61 1707.5,-131.67"/>
<polygon fill="#63b8ff" stroke="#63b8ff" points="1708.77,-134.94 1717.35,-128.73 1706.77,-128.23 1708.77,-134.94"/>
</a>
</g>
</g>
<!-- Node31&#45;&gt;Node7 -->
<g id="edge61_Node000031_Node000007" class="edge">
<title>Node31&#45;&gt;Node7</title>
<g id="a_edge61_Node000031_Node000007"><a xlink:title=" ">
<path fill="none" stroke="#63b8ff" d="M1183.65,-164.98C1068.15,-153.33 865.54,-132.87 781.36,-124.37"/>
<polygon fill="#63b8ff" stroke="#63b8ff" points="781.53,-120.87 771.22,-123.35 780.82,-127.84 781.53,-120.87"/>
</a>
</g>
</g>
<!-- Node31&#45;&gt;Node13 -->
<g id="edge58_Node000031_Node000013" class="edge">
<title>Node31&#45;&gt;Node13</title>
<g id="a_edge58_Node000031_Node000013"><a xlink:title=" ">
<path fill="none" stroke="#63b8ff" d="M1234.74,-164.98C1199.39,-155.93 1143.33,-141.58 1104.49,-131.64"/>
<polygon fill="#63b8ff" stroke="#63b8ff" points="1105.07,-128.17 1094.52,-129.08 1103.34,-134.95 1105.07,-128.17"/>
</a>
</g>
</g>
<!-- Node31&#45;&gt;Node16 -->
<g id="edge60_Node000031_Node000016" class="edge">
<title>Node31&#45;&gt;Node16</title>
<g id="a_edge60_Node000031_Node000016"><a xlink:title=" ">
<path fill="none" stroke="#63b8ff" d="M1291.91,-164.9C1312.73,-156.94 1343.37,-144.08 1368,-129 1401.15,-108.7 1408.69,-101.66 1436,-74 1450.42,-59.39 1464.68,-40.75 1474.26,-27.45"/>
<polygon fill="#63b8ff" stroke="#63b8ff" points="1477.17,-29.4 1480.09,-19.21 1471.45,-25.36 1477.17,-29.4"/>
</a>
</g>
</g>
<!-- Node31&#45;&gt;Node20 -->
<g id="edge59_Node000031_Node000020" class="edge">
<title>Node31&#45;&gt;Node20</title>
<g id="a_edge59_Node000031_Node000020"><a xlink:title=" ">
<path fill="none" stroke="#63b8ff" d="M1275.93,-164.75C1282.85,-157.11 1293.07,-145.82 1301.45,-136.56"/>
<polygon fill="#63b8ff" stroke="#63b8ff" points="1304.1,-138.85 1308.22,-129.09 1298.91,-134.15 1304.1,-138.85"/>
</a>
</g>
</g>
<!-- Node31&#45;&gt;Node22 -->
<g id="edge62_Node000031_Node000022" class="edge">
<title>Node31&#45;&gt;Node22</title>
<g id="a_edge62_Node000031_Node000022"><a xlink:title=" ">
<path fill="none" stroke="#63b8ff" d="M1258.52,-164.98C1249.8,-157.15 1236.66,-145.34 1226.1,-135.86"/>
<polygon fill="#63b8ff" stroke="#63b8ff" points="1228.43,-133.25 1218.65,-129.17 1223.75,-138.46 1228.43,-133.25"/>
</a>
</g>
</g>
</g>
</svg>
