<?xml version="1.0" encoding="UTF-8" standalone="no"?>
<!DOCTYPE svg PUBLIC "-//W3C//DTD SVG 1.1//EN"
 "http://www.w3.org/Graphics/SVG/1.1/DTD/svg11.dtd">
<!-- Generated by graphviz version 2.43.0 (0)
 -->
<!-- Title: services/ComponentService.h Pages: 1 -->
<svg width="1532pt" height="247pt"
 viewBox="0.00 0.00 1531.50 247.00" xmlns="http://www.w3.org/2000/svg" xmlns:xlink="http://www.w3.org/1999/xlink">
<g id="graph0" class="graph" transform="scale(1 1) rotate(0) translate(4 243)">
<title>services/ComponentService.h</title>
<!-- Node1 -->
<g id="Node000001" class="node">
<title>Node1</title>
<g id="a_Node000001"><a xlink:title=" ">
<polygon fill="#999999" stroke="#666666" points="860,-239 699,-239 699,-220 860,-220 860,-239"/>
<text text-anchor="middle" x="779.5" y="-227" font-family="Helvetica,sans-Serif" font-size="10.00">services/ComponentService.h</text>
</a>
</g>
</g>
<!-- Node2 -->
<g id="Node000002" class="node">
<title>Node2</title>
<g id="a_Node000002"><a xlink:href="LcscImageService_8h.html" target="_top" xlink:title=" ">
<polygon fill="white" stroke="#666666" points="485,-184 372,-184 372,-165 485,-165 485,-184"/>
<text text-anchor="middle" x="428.5" y="-172" font-family="Helvetica,sans-Serif" font-size="10.00">LcscImageService.h</text>
</a>
</g>
</g>
<!-- Node1&#45;&gt;Node2 -->
<g id="edge1_Node000001_Node000002" class="edge">
<title>Node1&#45;&gt;Node2</title>
<g id="a_edge1_Node000001_Node000002"><a xlink:title=" ">
<path fill="none" stroke="#63b8ff" d="M723.11,-219.98C661.02,-210.61 561.29,-195.55 495.33,-185.59"/>
<polygon fill="#63b8ff" stroke="#63b8ff" points="495.46,-182.07 485.04,-184.04 494.41,-188.99 495.46,-182.07"/>
</a>
</g>
</g>
<!-- Node3 -->
<g id="Node000003" class="node">
<title>Node3</title>
<g id="a_Node000003"><a xlink:title=" ">
<polygon fill="#e0e0e0" stroke="#999999" points="45,-129 0,-129 0,-110 45,-110 45,-129"/>
<text text-anchor="middle" x="22.5" y="-117" font-family="Helvetica,sans-Serif" font-size="10.00">QMap</text>
</a>
</g>
</g>
<!-- Node1&#45;&gt;Node3 -->
<g id="edge38_Node000001_Node000003" class="edge">
<title>Node1&#45;&gt;Node3</title>
<g id="a_edge38_Node000001_Node000003"><a xlink:title=" ">
<path fill="none" stroke="#63b8ff" d="M698.88,-225.58C597.73,-220.98 419.26,-209.76 268.5,-184 190.73,-170.71 101.54,-144.99 54.85,-130.7"/>
<polygon fill="#63b8ff" stroke="#63b8ff" points="55.87,-127.35 45.29,-127.75 53.81,-134.04 55.87,-127.35"/>
</a>
</g>
</g>
<!-- Node6 -->
<g id="Node000006" class="node">
<title>Node6</title>
<g id="a_Node000006"><a xlink:title=" ">
<polygon fill="#e0e0e0" stroke="#999999" points="119.5,-129 63.5,-129 63.5,-110 119.5,-110 119.5,-129"/>
<text text-anchor="middle" x="91.5" y="-117" font-family="Helvetica,sans-Serif" font-size="10.00">QObject</text>
</a>
</g>
</g>
<!-- Node1&#45;&gt;Node6 -->
<g id="edge39_Node000001_Node000006" class="edge">
<title>Node1&#45;&gt;Node6</title>
<g id="a_edge39_Node000001_Node000006"><a xlink:title=" ">
<path fill="none" stroke="#63b8ff" d="M698.76,-222.86C614.46,-216.29 478.6,-203.72 362.5,-184 278.53,-169.74 181.73,-145.02 129.57,-131"/>
<polygon fill="#63b8ff" stroke="#63b8ff" points="130.31,-127.57 119.75,-128.34 128.49,-134.33 130.31,-127.57"/>
</a>
</g>
</g>
<!-- Node7 -->
<g id="Node000007" class="node">
<title>Node7</title>
<g id="a_Node000007"><a xlink:title=" ">
<polygon fill="#e0e0e0" stroke="#999999" points="587.5,-129 531.5,-129 531.5,-110 587.5,-110 587.5,-129"/>
<text text-anchor="middle" x="559.5" y="-117" font-family="Helvetica,sans-Serif" font-size="10.00">QQueue</text>
</a>
</g>
</g>
<!-- Node1&#45;&gt;Node7 -->
<g id="edge41_Node000001_Node000007" class="edge">
<title>Node1&#45;&gt;Node7</title>
<g id="a_edge41_Node000001_Node000007"><a xlink:title=" ">
<path fill="none" stroke="#63b8ff" d="M755,-220C732,-211.73 696.82,-198.34 667.5,-184 636.69,-168.93 602.87,-148.34 581.43,-134.74"/>
<polygon fill="#63b8ff" stroke="#63b8ff" points="583.08,-131.64 572.77,-129.2 579.31,-137.54 583.08,-131.64"/>
</a>
</g>
</g>
<!-- Node8 -->
<g id="Node000008" class="node">
<title>Node8</title>
<g id="a_Node000008"><a xlink:title=" ">
<polygon fill="#e0e0e0" stroke="#999999" points="769,-19 716,-19 716,0 769,0 769,-19"/>
<text text-anchor="middle" x="742.5" y="-7" font-family="Helvetica,sans-Serif" font-size="10.00">QString</text>
</a>
</g>
</g>
<!-- Node1&#45;&gt;Node8 -->
<g id="edge42_Node000001_Node000008" class="edge">
<title>Node1&#45;&gt;Node8</title>
<g id="a_edge42_Node000001_Node000008"><a xlink:title=" ">
<path fill="none" stroke="#63b8ff" d="M777.68,-219.82C772.81,-196.38 759.25,-129.81 750.5,-74 748.16,-59.04 746.04,-42.01 744.57,-29.36"/>
<polygon fill="#63b8ff" stroke="#63b8ff" points="748.02,-28.7 743.42,-19.15 741.07,-29.48 748.02,-28.7"/>
</a>
</g>
</g>
<!-- Node9 -->
<g id="Node000009" class="node">
<title>Node9</title>
<g id="a_Node000009"><a xlink:title=" ">
<polygon fill="#e0e0e0" stroke="#999999" points="675.5,-129 605.5,-129 605.5,-110 675.5,-110 675.5,-129"/>
<text text-anchor="middle" x="640.5" y="-117" font-family="Helvetica,sans-Serif" font-size="10.00">QStringList</text>
</a>
</g>
</g>
<!-- Node1&#45;&gt;Node9 -->
<g id="edge43_Node000001_Node000009" class="edge">
<title>Node1&#45;&gt;Node9</title>
<g id="a_edge43_Node000001_Node000009"><a xlink:title=" ">
<path fill="none" stroke="#63b8ff" d="M755.23,-220C736.05,-212.5 709.32,-200.24 689.5,-184 673.57,-170.95 659.7,-151.79 650.82,-137.93"/>
<polygon fill="#63b8ff" stroke="#63b8ff" points="653.73,-135.99 645.5,-129.32 647.78,-139.67 653.73,-135.99"/>
</a>
</g>
</g>
<!-- Node11 -->
<g id="Node000011" class="node">
<title>Node11</title>
<g id="a_Node000011"><a xlink:href="ComponentData_8h.html" target="_top" xlink:title=" ">
<polygon fill="white" stroke="#666666" points="1002.5,-184 858.5,-184 858.5,-165 1002.5,-165 1002.5,-184"/>
<text text-anchor="middle" x="930.5" y="-172" font-family="Helvetica,sans-Serif" font-size="10.00">models/ComponentData.h</text>
</a>
</g>
</g>
<!-- Node1&#45;&gt;Node11 -->
<g id="edge10_Node000001_Node000011" class="edge">
<title>Node1&#45;&gt;Node11</title>
<g id="a_edge10_Node000001_Node000011"><a xlink:title=" ">
<path fill="none" stroke="#63b8ff" d="M803.76,-219.98C828.82,-211.19 868.13,-197.39 896.33,-187.49"/>
<polygon fill="#63b8ff" stroke="#63b8ff" points="897.52,-190.78 905.8,-184.17 895.2,-184.18 897.52,-190.78"/>
</a>
</g>
</g>
<!-- Node12 -->
<g id="Node000012" class="node">
<title>Node12</title>
<g id="a_Node000012"><a xlink:href="FootprintData_8h.html" target="_top" xlink:title=" ">
<polygon fill="white" stroke="#666666" points="1085.5,-129 993.5,-129 993.5,-110 1085.5,-110 1085.5,-129"/>
<text text-anchor="middle" x="1039.5" y="-117" font-family="Helvetica,sans-Serif" font-size="10.00">FootprintData.h</text>
</a>
</g>
</g>
<!-- Node1&#45;&gt;Node12 -->
<g id="edge33_Node000001_Node000012" class="edge">
<title>Node1&#45;&gt;Node12</title>
<g id="a_edge33_Node000001_Node000012"><a xlink:title=" ">
<path fill="none" stroke="#63b8ff" d="M860,-221.03C917.39,-214.26 988.32,-202.46 1011.5,-184 1025.47,-172.88 1032.65,-153.35 1036.22,-138.87"/>
<polygon fill="#63b8ff" stroke="#63b8ff" points="1039.66,-139.52 1038.3,-129.02 1032.81,-138.08 1039.66,-139.52"/>
</a>
</g>
</g>
<!-- Node13 -->
<g id="Node000013" class="node">
<title>Node13</title>
<g id="a_Node000013"><a xlink:href="Model3DData_8h.html" target="_top" xlink:title=" ">
<polygon fill="white" stroke="#666666" points="869.5,-74 777.5,-74 777.5,-55 869.5,-55 869.5,-74"/>
<text text-anchor="middle" x="823.5" y="-62" font-family="Helvetica,sans-Serif" font-size="10.00">Model3DData.h</text>
</a>
</g>
</g>
<!-- Node1&#45;&gt;Node13 -->
<g id="edge34_Node000001_Node000013" class="edge">
<title>Node1&#45;&gt;Node13</title>
<g id="a_edge34_Node000001_Node000013"><a xlink:title=" ">
<path fill="none" stroke="#63b8ff" d="M779.85,-219.92C780.86,-200.04 784.71,-149.55 798.5,-110 801.78,-100.6 806.99,-90.88 811.81,-82.93"/>
<polygon fill="#63b8ff" stroke="#63b8ff" points="814.92,-84.57 817.34,-74.26 809.01,-80.81 814.92,-84.57"/>
</a>
</g>
</g>
<!-- Node15 -->
<g id="Node000015" class="node">
<title>Node15</title>
<g id="a_Node000015"><a xlink:title=" ">
<polygon fill="#e0e0e0" stroke="#999999" points="1011.5,-19 935.5,-19 935.5,0 1011.5,0 1011.5,-19"/>
<text text-anchor="middle" x="973.5" y="-7" font-family="Helvetica,sans-Serif" font-size="10.00">QJsonObject</text>
</a>
</g>
</g>
<!-- Node1&#45;&gt;Node15 -->
<g id="edge37_Node000001_Node000015" class="edge">
<title>Node1&#45;&gt;Node15</title>
<g id="a_edge37_Node000001_Node000015"><a xlink:title=" ">
<path fill="none" stroke="#63b8ff" d="M860.04,-220.11C1006.37,-202.9 1305.87,-158 1360.5,-74 1398.12,-16.16 1133.61,-10.1 1021.78,-10.09"/>
<polygon fill="#63b8ff" stroke="#63b8ff" points="1021.76,-6.59 1011.77,-10.1 1021.77,-13.59 1021.76,-6.59"/>
</a>
</g>
</g>
<!-- Node19 -->
<g id="Node000019" class="node">
<title>Node19</title>
<g id="a_Node000019"><a xlink:href="SymbolData_8h.html" target="_top" xlink:title=" ">
<polygon fill="white" stroke="#666666" points="1227.5,-129 1141.5,-129 1141.5,-110 1227.5,-110 1227.5,-129"/>
<text text-anchor="middle" x="1184.5" y="-117" font-family="Helvetica,sans-Serif" font-size="10.00">SymbolData.h</text>
</a>
</g>
</g>
<!-- Node1&#45;&gt;Node19 -->
<g id="edge35_Node000001_Node000019" class="edge">
<title>Node1&#45;&gt;Node19</title>
<g id="a_edge35_Node000001_Node000019"><a xlink:title=" ">
<path fill="none" stroke="#63b8ff" d="M852.73,-219.99C903.78,-213 973.12,-201.39 1032.5,-184 1078.12,-170.64 1128.57,-147.86 1158.36,-133.52"/>
<polygon fill="#63b8ff" stroke="#63b8ff" points="1160.17,-136.54 1167.63,-129.01 1157.1,-130.24 1160.17,-136.54"/>
</a>
</g>
</g>
<!-- Node22 -->
<g id="Node000022" class="node">
<title>Node22</title>
<g id="a_Node000022"><a xlink:title=" ">
<polygon fill="#e0e0e0" stroke="#999999" points="1463,-184 1408,-184 1408,-165 1463,-165 1463,-184"/>
<text text-anchor="middle" x="1435.5" y="-172" font-family="Helvetica,sans-Serif" font-size="10.00">QImage</text>
</a>
</g>
</g>
<!-- Node1&#45;&gt;Node22 -->
<g id="edge36_Node000001_Node000022" class="edge">
<title>Node1&#45;&gt;Node22</title>
<g id="a_edge36_Node000001_Node000022"><a xlink:title=" ">
<path fill="none" stroke="#63b8ff" d="M860.3,-225.92C978.03,-221.43 1203.43,-210.01 1393.5,-184 1394.79,-183.82 1396.09,-183.63 1397.41,-183.43"/>
<polygon fill="#63b8ff" stroke="#63b8ff" points="1398.31,-186.82 1407.57,-181.67 1397.12,-179.93 1398.31,-186.82"/>
</a>
</g>
</g>
<!-- Node23 -->
<g id="Node000023" class="node">
<title>Node23</title>
<g id="a_Node000023"><a xlink:title=" ">
<polygon fill="#e0e0e0" stroke="#999999" points="1523.5,-184 1481.5,-184 1481.5,-165 1523.5,-165 1523.5,-184"/>
<text text-anchor="middle" x="1502.5" y="-172" font-family="Helvetica,sans-Serif" font-size="10.00">QPair</text>
</a>
</g>
</g>
<!-- Node1&#45;&gt;Node23 -->
<g id="edge40_Node000001_Node000023" class="edge">
<title>Node1&#45;&gt;Node23</title>
<g id="a_edge40_Node000001_Node000023"><a xlink:title=" ">
<path fill="none" stroke="#63b8ff" d="M860.18,-228.84C988.19,-228.16 1245.59,-221.85 1471.28,-183.82"/>
<polygon fill="#63b8ff" stroke="#63b8ff" points="1472.06,-187.24 1481.32,-182.1 1470.88,-180.34 1472.06,-187.24"/>
</a>
</g>
</g>
<!-- Node2&#45;&gt;Node3 -->
<g id="edge2_Node000002_Node000003" class="edge">
<title>Node2&#45;&gt;Node3</title>
<g id="a_edge2_Node000002_Node000003"><a xlink:title=" ">
<path fill="none" stroke="#63b8ff" d="M371.73,-169.26C300.12,-163.35 173.11,-151.02 55.07,-128.83"/>
<polygon fill="#63b8ff" stroke="#63b8ff" points="55.61,-125.37 45.13,-126.94 54.3,-132.25 55.61,-125.37"/>
</a>
</g>
</g>
<!-- Node4 -->
<g id="Node000004" class="node">
<title>Node4</title>
<g id="a_Node000004"><a xlink:title=" ">
<polygon fill="#e0e0e0" stroke="#999999" points="363.5,-129 221.5,-129 221.5,-110 363.5,-110 363.5,-129"/>
<text text-anchor="middle" x="292.5" y="-117" font-family="Helvetica,sans-Serif" font-size="10.00">QNetworkAccessManager</text>
</a>
</g>
</g>
<!-- Node2&#45;&gt;Node4 -->
<g id="edge3_Node000002_Node000004" class="edge">
<title>Node2&#45;&gt;Node4</title>
<g id="a_edge3_Node000002_Node000004"><a xlink:title=" ">
<path fill="none" stroke="#63b8ff" d="M406.65,-164.98C384.38,-156.3 349.6,-142.75 324.28,-132.88"/>
<polygon fill="#63b8ff" stroke="#63b8ff" points="325.34,-129.54 314.75,-129.17 322.79,-136.06 325.34,-129.54"/>
</a>
</g>
</g>
<!-- Node5 -->
<g id="Node000005" class="node">
<title>Node5</title>
<g id="a_Node000005"><a xlink:title=" ">
<polygon fill="#e0e0e0" stroke="#999999" points="475,-129 382,-129 382,-110 475,-110 475,-129"/>
<text text-anchor="middle" x="428.5" y="-117" font-family="Helvetica,sans-Serif" font-size="10.00">QNetworkReply</text>
</a>
</g>
</g>
<!-- Node2&#45;&gt;Node5 -->
<g id="edge4_Node000002_Node000005" class="edge">
<title>Node2&#45;&gt;Node5</title>
<g id="a_edge4_Node000002_Node000005"><a xlink:title=" ">
<path fill="none" stroke="#63b8ff" d="M428.5,-164.75C428.5,-157.8 428.5,-147.85 428.5,-139.13"/>
<polygon fill="#63b8ff" stroke="#63b8ff" points="432,-139.09 428.5,-129.09 425,-139.09 432,-139.09"/>
</a>
</g>
</g>
<!-- Node2&#45;&gt;Node6 -->
<g id="edge5_Node000002_Node000006" class="edge">
<title>Node2&#45;&gt;Node6</title>
<g id="a_edge5_Node000002_Node000006"><a xlink:title=" ">
<path fill="none" stroke="#63b8ff" d="M371.88,-166.45C313.52,-158.88 219.72,-145.87 129.57,-129.08"/>
<polygon fill="#63b8ff" stroke="#63b8ff" points="130.21,-125.64 119.73,-127.23 128.91,-132.52 130.21,-125.64"/>
</a>
</g>
</g>
<!-- Node2&#45;&gt;Node7 -->
<g id="edge6_Node000002_Node000007" class="edge">
<title>Node2&#45;&gt;Node7</title>
<g id="a_edge6_Node000002_Node000007"><a xlink:title=" ">
<path fill="none" stroke="#63b8ff" d="M449.55,-164.98C470.91,-156.34 504.2,-142.87 528.56,-133.02"/>
<polygon fill="#63b8ff" stroke="#63b8ff" points="530.11,-136.17 538.07,-129.17 527.49,-129.68 530.11,-136.17"/>
</a>
</g>
</g>
<!-- Node2&#45;&gt;Node8 -->
<g id="edge7_Node000002_Node000008" class="edge">
<title>Node2&#45;&gt;Node8</title>
<g id="a_edge7_Node000002_Node000008"><a xlink:title=" ">
<path fill="none" stroke="#63b8ff" d="M439.96,-164.82C457.28,-151.93 491.38,-127.38 522.5,-110 587.18,-73.87 667.41,-40.2 710.89,-22.82"/>
<polygon fill="#63b8ff" stroke="#63b8ff" points="712.35,-26 720.36,-19.06 709.77,-19.5 712.35,-26"/>
</a>
</g>
</g>
<!-- Node2&#45;&gt;Node9 -->
<g id="edge8_Node000002_Node000009" class="edge">
<title>Node2&#45;&gt;Node9</title>
<g id="a_edge8_Node000002_Node000009"><a xlink:title=" ">
<path fill="none" stroke="#63b8ff" d="M462.56,-164.98C498.92,-155.89 556.67,-141.46 596.47,-131.51"/>
<polygon fill="#63b8ff" stroke="#63b8ff" points="597.32,-134.9 606.17,-129.08 595.62,-128.11 597.32,-134.9"/>
</a>
</g>
</g>
<!-- Node10 -->
<g id="Node000010" class="node">
<title>Node10</title>
<g id="a_Node000010"><a xlink:title=" ">
<polygon fill="#e0e0e0" stroke="#999999" points="203,-129 138,-129 138,-110 203,-110 203,-129"/>
<text text-anchor="middle" x="170.5" y="-117" font-family="Helvetica,sans-Serif" font-size="10.00">functional</text>
</a>
</g>
</g>
<!-- Node2&#45;&gt;Node10 -->
<g id="edge9_Node000002_Node000010" class="edge">
<title>Node2&#45;&gt;Node10</title>
<g id="a_edge9_Node000002_Node000010"><a xlink:title=" ">
<path fill="none" stroke="#63b8ff" d="M387.05,-164.98C339.31,-155.18 261.28,-139.15 213.07,-129.24"/>
<polygon fill="#63b8ff" stroke="#63b8ff" points="213.76,-125.81 203.26,-127.23 212.35,-132.67 213.76,-125.81"/>
</a>
</g>
</g>
<!-- Node11&#45;&gt;Node8 -->
<g id="edge32_Node000011_Node000008" class="edge">
<title>Node11&#45;&gt;Node8</title>
<g id="a_edge32_Node000011_Node000008"><a xlink:title=" ">
<path fill="none" stroke="#63b8ff" d="M877.14,-164.96C851.12,-158.6 820.73,-147.66 798.5,-129 767.24,-102.76 752.29,-55.11 746.15,-28.94"/>
<polygon fill="#63b8ff" stroke="#63b8ff" points="749.57,-28.2 744.03,-19.16 742.72,-29.68 749.57,-28.2"/>
</a>
</g>
</g>
<!-- Node11&#45;&gt;Node12 -->
<g id="edge11_Node000011_Node000012" class="edge">
<title>Node11&#45;&gt;Node12</title>
<g id="a_edge11_Node000011_Node000012"><a xlink:title=" ">
<path fill="none" stroke="#63b8ff" d="M948.01,-164.98C965.47,-156.5 992.51,-143.35 1012.67,-133.54"/>
<polygon fill="#63b8ff" stroke="#63b8ff" points="1014.21,-136.69 1021.67,-129.17 1011.14,-130.4 1014.21,-136.69"/>
</a>
</g>
</g>
<!-- Node11&#45;&gt;Node13 -->
<g id="edge21_Node000011_Node000013" class="edge">
<title>Node11&#45;&gt;Node13</title>
<g id="a_edge21_Node000011_Node000013"><a xlink:title=" ">
<path fill="none" stroke="#63b8ff" d="M929.52,-164.68C927.63,-151.4 922.36,-126.09 908.5,-110 895.96,-95.44 877.46,-84.97 860.92,-77.85"/>
<polygon fill="#63b8ff" stroke="#63b8ff" points="862.05,-74.53 851.47,-74.05 859.44,-81.03 862.05,-74.53"/>
</a>
</g>
</g>
<!-- Node11&#45;&gt;Node15 -->
<g id="edge30_Node000011_Node000015" class="edge">
<title>Node11&#45;&gt;Node15</title>
<g id="a_edge30_Node000011_Node000015"><a xlink:title=" ">
<path fill="none" stroke="#63b8ff" d="M932.81,-164.74C939.55,-139.2 959.27,-64.43 968.56,-29.23"/>
<polygon fill="#63b8ff" stroke="#63b8ff" points="972.01,-29.87 971.18,-19.31 965.24,-28.08 972.01,-29.87"/>
</a>
</g>
</g>
<!-- Node16 -->
<g id="Node000016" class="node">
<title>Node16</title>
<g id="a_Node000016"><a xlink:title=" ">
<polygon fill="#e0e0e0" stroke="#999999" points="1146,-74 1075,-74 1075,-55 1146,-55 1146,-74"/>
<text text-anchor="middle" x="1110.5" y="-62" font-family="Helvetica,sans-Serif" font-size="10.00">QJsonArray</text>
</a>
</g>
</g>
<!-- Node11&#45;&gt;Node16 -->
<g id="edge29_Node000011_Node000016" class="edge">
<title>Node11&#45;&gt;Node16</title>
<g id="a_edge29_Node000011_Node000016"><a xlink:title=" ">
<path fill="none" stroke="#63b8ff" d="M1002.9,-169.97C1034.91,-164.74 1070.63,-153.31 1094.5,-129 1106.07,-117.22 1109.66,-98.38 1110.6,-84.27"/>
<polygon fill="#63b8ff" stroke="#63b8ff" points="1114.1,-84.3 1110.89,-74.2 1107.11,-84.1 1114.1,-84.3"/>
</a>
</g>
</g>
<!-- Node11&#45;&gt;Node19 -->
<g id="edge22_Node000011_Node000019" class="edge">
<title>Node11&#45;&gt;Node19</title>
<g id="a_edge22_Node000011_Node000019"><a xlink:title=" ">
<path fill="none" stroke="#63b8ff" d="M971.31,-164.98C1015.43,-155.78 1085.83,-141.09 1133.55,-131.13"/>
<polygon fill="#63b8ff" stroke="#63b8ff" points="1134.3,-134.55 1143.37,-129.08 1132.87,-127.7 1134.3,-134.55"/>
</a>
</g>
</g>
<!-- Node21 -->
<g id="Node000021" class="node">
<title>Node21</title>
<g id="a_Node000021"><a xlink:title=" ">
<polygon fill="#e0e0e0" stroke="#999999" points="899.5,-129 807.5,-129 807.5,-110 899.5,-110 899.5,-129"/>
<text text-anchor="middle" x="853.5" y="-117" font-family="Helvetica,sans-Serif" font-size="10.00">QSharedPointer</text>
</a>
</g>
</g>
<!-- Node11&#45;&gt;Node21 -->
<g id="edge31_Node000011_Node000021" class="edge">
<title>Node11&#45;&gt;Node21</title>
<g id="a_edge31_Node000011_Node000021"><a xlink:title=" ">
<path fill="none" stroke="#63b8ff" d="M918.13,-164.98C906.41,-156.92 888.58,-144.65 874.61,-135.03"/>
<polygon fill="#63b8ff" stroke="#63b8ff" points="876.32,-131.96 866.1,-129.17 872.35,-137.72 876.32,-131.96"/>
</a>
</g>
</g>
<!-- Node12&#45;&gt;Node8 -->
<g id="edge20_Node000012_Node000008" class="edge">
<title>Node12&#45;&gt;Node8</title>
<g id="a_edge20_Node000012_Node000008"><a xlink:title=" ">
<path fill="none" stroke="#63b8ff" d="M1019.06,-109.99C988.63,-97.42 929.52,-73.39 878.5,-55 844.99,-42.92 806.35,-30.41 778.84,-21.74"/>
<polygon fill="#63b8ff" stroke="#63b8ff" points="779.83,-18.39 769.24,-18.73 777.73,-25.07 779.83,-18.39"/>
</a>
</g>
</g>
<!-- Node12&#45;&gt;Node13 -->
<g id="edge12_Node000012_Node000013" class="edge">
<title>Node12&#45;&gt;Node13</title>
<g id="a_edge12_Node000012_Node000013"><a xlink:title=" ">
<path fill="none" stroke="#63b8ff" d="M1004.8,-109.98C967.75,-100.89 908.91,-86.46 868.37,-76.51"/>
<polygon fill="#63b8ff" stroke="#63b8ff" points="869.02,-73.07 858.48,-74.08 867.35,-79.86 869.02,-73.07"/>
</a>
</g>
</g>
<!-- Node12&#45;&gt;Node15 -->
<g id="edge17_Node000012_Node000015" class="edge">
<title>Node12&#45;&gt;Node15</title>
<g id="a_edge17_Node000012_Node000015"><a xlink:title=" ">
<path fill="none" stroke="#63b8ff" d="M1027.7,-109.87C1017.31,-101.7 1002.5,-88.56 993.5,-74 984.96,-60.17 979.76,-42.38 976.82,-29.14"/>
<polygon fill="#63b8ff" stroke="#63b8ff" points="980.24,-28.41 974.85,-19.29 973.38,-29.78 980.24,-28.41"/>
</a>
</g>
</g>
<!-- Node12&#45;&gt;Node16 -->
<g id="edge16_Node000012_Node000016" class="edge">
<title>Node12&#45;&gt;Node16</title>
<g id="a_edge16_Node000012_Node000016"><a xlink:title=" ">
<path fill="none" stroke="#63b8ff" d="M1050.91,-109.98C1061.61,-102 1077.84,-89.88 1090.66,-80.31"/>
<polygon fill="#63b8ff" stroke="#63b8ff" points="1092.97,-82.96 1098.89,-74.17 1088.78,-77.35 1092.97,-82.96"/>
</a>
</g>
</g>
<!-- Node17 -->
<g id="Node000017" class="node">
<title>Node17</title>
<g id="a_Node000017"><a xlink:title=" ">
<polygon fill="#e0e0e0" stroke="#999999" points="1205,-74 1164,-74 1164,-55 1205,-55 1205,-74"/>
<text text-anchor="middle" x="1184.5" y="-62" font-family="Helvetica,sans-Serif" font-size="10.00">QList</text>
</a>
</g>
</g>
<!-- Node12&#45;&gt;Node17 -->
<g id="edge18_Node000012_Node000017" class="edge">
<title>Node12&#45;&gt;Node17</title>
<g id="a_edge18_Node000012_Node000017"><a xlink:title=" ">
<path fill="none" stroke="#63b8ff" d="M1062.8,-109.98C1087.61,-100.92 1126.98,-86.53 1154.19,-76.58"/>
<polygon fill="#63b8ff" stroke="#63b8ff" points="1155.42,-79.85 1163.61,-73.13 1153.02,-73.28 1155.42,-79.85"/>
</a>
</g>
</g>
<!-- Node18 -->
<g id="Node000018" class="node">
<title>Node18</title>
<g id="a_Node000018"><a xlink:title=" ">
<polygon fill="#e0e0e0" stroke="#999999" points="1057,-74 1002,-74 1002,-55 1057,-55 1057,-74"/>
<text text-anchor="middle" x="1029.5" y="-62" font-family="Helvetica,sans-Serif" font-size="10.00">QPointF</text>
</a>
</g>
</g>
<!-- Node12&#45;&gt;Node18 -->
<g id="edge19_Node000012_Node000018" class="edge">
<title>Node12&#45;&gt;Node18</title>
<g id="a_edge19_Node000012_Node000018"><a xlink:title=" ">
<path fill="none" stroke="#63b8ff" d="M1037.85,-109.75C1036.54,-102.8 1034.66,-92.85 1033.02,-84.13"/>
<polygon fill="#63b8ff" stroke="#63b8ff" points="1036.41,-83.27 1031.12,-74.09 1029.54,-84.56 1036.41,-83.27"/>
</a>
</g>
</g>
<!-- Node13&#45;&gt;Node8 -->
<g id="edge15_Node000013_Node000008" class="edge">
<title>Node13&#45;&gt;Node8</title>
<g id="a_edge15_Node000013_Node000008"><a xlink:title=" ">
<path fill="none" stroke="#63b8ff" d="M810.49,-54.98C798.04,-46.84 779.04,-34.41 764.29,-24.76"/>
<polygon fill="#63b8ff" stroke="#63b8ff" points="766.04,-21.72 755.75,-19.17 762.2,-27.57 766.04,-21.72"/>
</a>
</g>
</g>
<!-- Node14 -->
<g id="Node000014" class="node">
<title>Node14</title>
<g id="a_Node000014"><a xlink:title=" ">
<polygon fill="#e0e0e0" stroke="#999999" points="860,-19 787,-19 787,0 860,0 860,-19"/>
<text text-anchor="middle" x="823.5" y="-7" font-family="Helvetica,sans-Serif" font-size="10.00">QByteArray</text>
</a>
</g>
</g>
<!-- Node13&#45;&gt;Node14 -->
<g id="edge13_Node000013_Node000014" class="edge">
<title>Node13&#45;&gt;Node14</title>
<g id="a_edge13_Node000013_Node000014"><a xlink:title=" ">
<path fill="none" stroke="#63b8ff" d="M823.5,-54.75C823.5,-47.8 823.5,-37.85 823.5,-29.13"/>
<polygon fill="#63b8ff" stroke="#63b8ff" points="827,-29.09 823.5,-19.09 820,-29.09 827,-29.09"/>
</a>
</g>
</g>
<!-- Node13&#45;&gt;Node15 -->
<g id="edge14_Node000013_Node000015" class="edge">
<title>Node13&#45;&gt;Node15</title>
<g id="a_edge14_Node000013_Node000015"><a xlink:title=" ">
<path fill="none" stroke="#63b8ff" d="M847.6,-54.98C872.38,-46.23 911.2,-32.51 939.19,-22.62"/>
<polygon fill="#63b8ff" stroke="#63b8ff" points="940.7,-25.8 948.96,-19.17 938.37,-19.2 940.7,-25.8"/>
</a>
</g>
</g>
<!-- Node19&#45;&gt;Node8 -->
<g id="edge28_Node000019_Node000008" class="edge">
<title>Node19&#45;&gt;Node8</title>
<g id="a_edge28_Node000019_Node000008"><a xlink:title=" ">
<path fill="none" stroke="#63b8ff" d="M1194.34,-109.74C1208.03,-96.53 1229.53,-71.32 1214.5,-55 1183.11,-20.91 859.58,-26.13 779.5,-18.68"/>
<polygon fill="#63b8ff" stroke="#63b8ff" points="779.51,-15.16 769.17,-17.43 778.67,-22.11 779.51,-15.16"/>
</a>
</g>
</g>
<!-- Node19&#45;&gt;Node15 -->
<g id="edge24_Node000019_Node000015" class="edge">
<title>Node19&#45;&gt;Node15</title>
<g id="a_edge24_Node000019_Node000015"><a xlink:title=" ">
<path fill="none" stroke="#63b8ff" d="M1204.3,-109.87C1228.79,-98.02 1265.21,-75.82 1247.5,-55 1219.08,-21.59 1092.52,-13.19 1021.77,-11.13"/>
<polygon fill="#63b8ff" stroke="#63b8ff" points="1021.84,-7.63 1011.76,-10.87 1021.66,-14.63 1021.84,-7.63"/>
</a>
</g>
</g>
<!-- Node19&#45;&gt;Node16 -->
<g id="edge23_Node000019_Node000016" class="edge">
<title>Node19&#45;&gt;Node16</title>
<g id="a_edge23_Node000019_Node000016"><a xlink:title=" ">
<path fill="none" stroke="#63b8ff" d="M1172.61,-109.98C1161.35,-101.92 1144.21,-89.65 1130.79,-80.03"/>
<polygon fill="#63b8ff" stroke="#63b8ff" points="1132.77,-77.15 1122.61,-74.17 1128.7,-82.84 1132.77,-77.15"/>
</a>
</g>
</g>
<!-- Node19&#45;&gt;Node17 -->
<g id="edge25_Node000019_Node000017" class="edge">
<title>Node19&#45;&gt;Node17</title>
<g id="a_edge25_Node000019_Node000017"><a xlink:title=" ">
<path fill="none" stroke="#63b8ff" d="M1184.5,-109.75C1184.5,-102.8 1184.5,-92.85 1184.5,-84.13"/>
<polygon fill="#63b8ff" stroke="#63b8ff" points="1188,-84.09 1184.5,-74.09 1181,-84.09 1188,-84.09"/>
</a>
</g>
</g>
<!-- Node19&#45;&gt;Node18 -->
<g id="edge26_Node000019_Node000018" class="edge">
<title>Node19&#45;&gt;Node18</title>
<g id="a_edge26_Node000019_Node000018"><a xlink:title=" ">
<path fill="none" stroke="#63b8ff" d="M1159.6,-109.98C1133.8,-101.16 1093.28,-87.31 1064.32,-77.41"/>
<polygon fill="#63b8ff" stroke="#63b8ff" points="1065.19,-74.01 1054.6,-74.08 1062.93,-80.63 1065.19,-74.01"/>
</a>
</g>
</g>
<!-- Node20 -->
<g id="Node000020" class="node">
<title>Node20</title>
<g id="a_Node000020"><a xlink:title=" ">
<polygon fill="#e0e0e0" stroke="#999999" points="1351.5,-74 1299.5,-74 1299.5,-55 1351.5,-55 1351.5,-74"/>
<text text-anchor="middle" x="1325.5" y="-62" font-family="Helvetica,sans-Serif" font-size="10.00">QRectF</text>
</a>
</g>
</g>
<!-- Node19&#45;&gt;Node20 -->
<g id="edge27_Node000019_Node000020" class="edge">
<title>Node19&#45;&gt;Node20</title>
<g id="a_edge27_Node000019_Node000020"><a xlink:title=" ">
<path fill="none" stroke="#63b8ff" d="M1207.15,-109.98C1230.35,-101.27 1266.62,-87.63 1292.9,-77.75"/>
<polygon fill="#63b8ff" stroke="#63b8ff" points="1294.3,-80.97 1302.43,-74.17 1291.84,-74.41 1294.3,-80.97"/>
</a>
</g>
</g>
</g>
</svg>
