<?xml version="1.0" encoding="UTF-8" standalone="no"?>
<!DOCTYPE svg PUBLIC "-//W3C//DTD SVG 1.1//EN"
 "http://www.w3.org/Graphics/SVG/1.1/DTD/svg11.dtd">
<!-- Generated by graphviz version 2.43.0 (0)
 -->
<!-- Title: services/ComponentQueueManager.cpp Pages: 1 -->
<svg width="354pt" height="137pt"
 viewBox="0.00 0.00 353.50 137.00" xmlns="http://www.w3.org/2000/svg" xmlns:xlink="http://www.w3.org/1999/xlink">
<g id="graph0" class="graph" transform="scale(1 1) rotate(0) translate(4 133)">
<title>services/ComponentQueueManager.cpp</title>
<!-- Node1 -->
<g id="Node000001" class="node">
<title>Node1</title>
<g id="a_Node000001"><a xlink:title=" ">
<polygon fill="#999999" stroke="#666666" points="326,-129 116,-129 116,-110 326,-110 326,-129"/>
<text text-anchor="middle" x="221" y="-117" font-family="Helvetica,sans-Serif" font-size="10.00">services/ComponentQueueManager.cpp</text>
</a>
</g>
</g>
<!-- Node2 -->
<g id="Node000002" class="node">
<title>Node2</title>
<g id="a_Node000002"><a xlink:href="ComponentQueueManager_8h.html" target="_top" xlink:title=" ">
<polygon fill="white" stroke="#666666" points="236.5,-74 81.5,-74 81.5,-55 236.5,-55 236.5,-74"/>
<text text-anchor="middle" x="159" y="-62" font-family="Helvetica,sans-Serif" font-size="10.00">ComponentQueueManager.h</text>
</a>
</g>
</g>
<!-- Node1&#45;&gt;Node2 -->
<g id="edge1_Node000001_Node000002" class="edge">
<title>Node1&#45;&gt;Node2</title>
<g id="a_edge1_Node000001_Node000002"><a xlink:title=" ">
<path fill="none" stroke="#63b8ff" d="M211.04,-109.98C201.87,-102.15 188.06,-90.34 176.97,-80.86"/>
<polygon fill="#63b8ff" stroke="#63b8ff" points="179.02,-78.01 169.14,-74.17 174.47,-83.33 179.02,-78.01"/>
</a>
</g>
</g>
<!-- Node8 -->
<g id="Node000008" class="node">
<title>Node8</title>
<g id="a_Node000008"><a xlink:title=" ">
<polygon fill="#e0e0e0" stroke="#999999" points="311,-74 255,-74 255,-55 311,-55 311,-74"/>
<text text-anchor="middle" x="283" y="-62" font-family="Helvetica,sans-Serif" font-size="10.00">QDebug</text>
</a>
</g>
</g>
<!-- Node1&#45;&gt;Node8 -->
<g id="edge7_Node000001_Node000008" class="edge">
<title>Node1&#45;&gt;Node8</title>
<g id="a_edge7_Node000001_Node000008"><a xlink:title=" ">
<path fill="none" stroke="#63b8ff" d="M230.96,-109.98C240.13,-102.15 253.94,-90.34 265.03,-80.86"/>
<polygon fill="#63b8ff" stroke="#63b8ff" points="267.53,-83.33 272.86,-74.17 262.98,-78.01 267.53,-83.33"/>
</a>
</g>
</g>
<!-- Node3 -->
<g id="Node000003" class="node">
<title>Node3</title>
<g id="a_Node000003"><a xlink:title=" ">
<polygon fill="#e0e0e0" stroke="#999999" points="56,-19 0,-19 0,0 56,0 56,-19"/>
<text text-anchor="middle" x="28" y="-7" font-family="Helvetica,sans-Serif" font-size="10.00">QObject</text>
</a>
</g>
</g>
<!-- Node2&#45;&gt;Node3 -->
<g id="edge2_Node000002_Node000003" class="edge">
<title>Node2&#45;&gt;Node3</title>
<g id="a_edge2_Node000002_Node000003"><a xlink:title=" ">
<path fill="none" stroke="#63b8ff" d="M137.95,-54.98C116.59,-46.34 83.3,-32.87 58.94,-23.02"/>
<polygon fill="#63b8ff" stroke="#63b8ff" points="60.01,-19.68 49.43,-19.17 57.39,-26.17 60.01,-19.68"/>
</a>
</g>
</g>
<!-- Node4 -->
<g id="Node000004" class="node">
<title>Node4</title>
<g id="a_Node000004"><a xlink:title=" ">
<polygon fill="#e0e0e0" stroke="#999999" points="114,-19 74,-19 74,0 114,0 114,-19"/>
<text text-anchor="middle" x="94" y="-7" font-family="Helvetica,sans-Serif" font-size="10.00">QSet</text>
</a>
</g>
</g>
<!-- Node2&#45;&gt;Node4 -->
<g id="edge3_Node000002_Node000004" class="edge">
<title>Node2&#45;&gt;Node4</title>
<g id="a_edge3_Node000002_Node000004"><a xlink:title=" ">
<path fill="none" stroke="#63b8ff" d="M148.56,-54.98C138.85,-47.07 124.18,-35.11 112.5,-25.58"/>
<polygon fill="#63b8ff" stroke="#63b8ff" points="114.6,-22.78 104.63,-19.17 110.17,-28.2 114.6,-22.78"/>
</a>
</g>
</g>
<!-- Node5 -->
<g id="Node000005" class="node">
<title>Node5</title>
<g id="a_Node000005"><a xlink:title=" ">
<polygon fill="#e0e0e0" stroke="#999999" points="185.5,-19 132.5,-19 132.5,0 185.5,0 185.5,-19"/>
<text text-anchor="middle" x="159" y="-7" font-family="Helvetica,sans-Serif" font-size="10.00">QString</text>
</a>
</g>
</g>
<!-- Node2&#45;&gt;Node5 -->
<g id="edge4_Node000002_Node000005" class="edge">
<title>Node2&#45;&gt;Node5</title>
<g id="a_edge4_Node000002_Node000005"><a xlink:title=" ">
<path fill="none" stroke="#63b8ff" d="M159,-54.75C159,-47.8 159,-37.85 159,-29.13"/>
<polygon fill="#63b8ff" stroke="#63b8ff" points="162.5,-29.09 159,-19.09 155.5,-29.09 162.5,-29.09"/>
</a>
</g>
</g>
<!-- Node6 -->
<g id="Node000006" class="node">
<title>Node6</title>
<g id="a_Node000006"><a xlink:title=" ">
<polygon fill="#e0e0e0" stroke="#999999" points="274,-19 204,-19 204,0 274,0 274,-19"/>
<text text-anchor="middle" x="239" y="-7" font-family="Helvetica,sans-Serif" font-size="10.00">QStringList</text>
</a>
</g>
</g>
<!-- Node2&#45;&gt;Node6 -->
<g id="edge5_Node000002_Node000006" class="edge">
<title>Node2&#45;&gt;Node6</title>
<g id="a_edge5_Node000002_Node000006"><a xlink:title=" ">
<path fill="none" stroke="#63b8ff" d="M171.85,-54.98C184.14,-46.84 202.91,-34.41 217.48,-24.76"/>
<polygon fill="#63b8ff" stroke="#63b8ff" points="219.51,-27.61 225.91,-19.17 215.64,-21.78 219.51,-27.61"/>
</a>
</g>
</g>
<!-- Node7 -->
<g id="Node000007" class="node">
<title>Node7</title>
<g id="a_Node000007"><a xlink:title=" ">
<polygon fill="#e0e0e0" stroke="#999999" points="345.5,-19 292.5,-19 292.5,0 345.5,0 345.5,-19"/>
<text text-anchor="middle" x="319" y="-7" font-family="Helvetica,sans-Serif" font-size="10.00">QTimer</text>
</a>
</g>
</g>
<!-- Node2&#45;&gt;Node7 -->
<g id="edge6_Node000002_Node000007" class="edge">
<title>Node2&#45;&gt;Node7</title>
<g id="a_edge6_Node000002_Node000007"><a xlink:title=" ">
<path fill="none" stroke="#63b8ff" d="M184.71,-54.98C211.45,-46.13 253.53,-32.19 283.45,-22.28"/>
<polygon fill="#63b8ff" stroke="#63b8ff" points="284.7,-25.55 293.09,-19.08 282.5,-18.9 284.7,-25.55"/>
</a>
</g>
</g>
</g>
</svg>
