<?xml version="1.0" encoding="UTF-8" standalone="no"?>
<!DOCTYPE svg PUBLIC "-//W3C//DTD SVG 1.1//EN"
 "http://www.w3.org/Graphics/SVG/1.1/DTD/svg11.dtd">
<!-- Generated by graphviz version 2.43.0 (0)
 -->
<!-- Title: services/ComponentCacheService.h Pages: 1 -->
<svg width="1998pt" height="346pt"
 viewBox="0.00 0.00 1997.82 346.00" xmlns="http://www.w3.org/2000/svg" xmlns:xlink="http://www.w3.org/1999/xlink">
<g id="graph0" class="graph" transform="scale(1 1) rotate(0) translate(4 342)">
<title>services/ComponentCacheService.h</title>
<!-- Node1 -->
<g id="Node000001" class="node">
<title>Node1</title>
<g id="a_Node000001"><a xlink:title=" ">
<polygon fill="#999999" stroke="#666666" points="779.32,-338 588.32,-338 588.32,-319 779.32,-319 779.32,-338"/>
<text text-anchor="middle" x="683.82" y="-326" font-family="Helvetica,sans-Serif" font-size="10.00">services/ComponentCacheService.h</text>
</a>
</g>
</g>
<!-- Node2 -->
<g id="Node000002" class="node">
<title>Node2</title>
<g id="a_Node000002"><a xlink:href="main_8cpp.html" target="_top" xlink:title=" ">
<polygon fill="white" stroke="#666666" points="301.82,-24.5 239.82,-24.5 239.82,-5.5 301.82,-5.5 301.82,-24.5"/>
<text text-anchor="middle" x="270.82" y="-12.5" font-family="Helvetica,sans-Serif" font-size="10.00">main.cpp</text>
</a>
</g>
</g>
<!-- Node1&#45;&gt;Node2 -->
<g id="edge1_Node000001_Node000002" class="edge">
<title>Node1&#45;&gt;Node2</title>
<g id="a_edge1_Node000001_Node000002"><a xlink:title=" ">
<path fill="none" stroke="#63b8ff" d="M578.12,-327.1C401.75,-325.45 62.57,-317.75 20.82,-283 -5.45,-261.14 1.82,-242.67 1.82,-208.5 1.82,-208.5 1.82,-208.5 1.82,-146 1.82,-41.35 168.89,-20.91 239.7,-16.94"/>
<polygon fill="#63b8ff" stroke="#63b8ff" points="578.17,-330.6 588.2,-327.19 578.23,-323.6 578.17,-330.6"/>
</a>
</g>
</g>
<!-- Node3 -->
<g id="Node000003" class="node">
<title>Node3</title>
<g id="a_Node000003"><a xlink:href="CacheRepository_8h.html" target="_top" xlink:title=" ">
<polygon fill="white" stroke="#666666" points="179.82,-277.5 29.82,-277.5 29.82,-258.5 179.82,-258.5 179.82,-277.5"/>
<text text-anchor="middle" x="104.82" y="-265.5" font-family="Helvetica,sans-Serif" font-size="10.00">services/CacheRepository.h</text>
</a>
</g>
</g>
<!-- Node1&#45;&gt;Node3 -->
<g id="edge2_Node000001_Node000003" class="edge">
<title>Node1&#45;&gt;Node3</title>
<g id="a_edge2_Node000001_Node000003"><a xlink:title=" ">
<path fill="none" stroke="#63b8ff" d="M578.26,-319.92C478.88,-312.31 325.97,-299.38 193.82,-283 181.4,-281.46 168.05,-279.52 155.57,-277.57"/>
<polygon fill="#63b8ff" stroke="#63b8ff" points="578.07,-323.42 588.31,-320.69 578.6,-316.44 578.07,-323.42"/>
</a>
</g>
</g>
<!-- Node4 -->
<g id="Node000004" class="node">
<title>Node4</title>
<g id="a_Node000004"><a xlink:href="MediaFetchWorker_8cpp.html" target="_top" xlink:title=" ">
<polygon fill="white" stroke="#666666" points="202.32,-217 35.32,-217 35.32,-198 202.32,-198 202.32,-217"/>
<text text-anchor="middle" x="118.82" y="-205" font-family="Helvetica,sans-Serif" font-size="10.00">workers/MediaFetchWorker.cpp</text>
</a>
</g>
</g>
<!-- Node1&#45;&gt;Node4 -->
<g id="edge35_Node000001_Node000004" class="edge">
<title>Node1&#45;&gt;Node4</title>
<g id="a_edge35_Node000001_Node000004"><a xlink:title=" ">
<path fill="none" stroke="#63b8ff" d="M577.75,-323.25C464.52,-317.61 293.12,-305.63 231.82,-283 209.96,-274.93 208.21,-265.92 188.82,-253 169.52,-240.14 146.81,-225.86 132.61,-217.03"/>
<polygon fill="#63b8ff" stroke="#63b8ff" points="577.68,-326.75 587.84,-323.74 578.02,-319.75 577.68,-326.75"/>
</a>
</g>
</g>
<!-- Node5 -->
<g id="Node000005" class="node">
<title>Node5</title>
<g id="a_Node000005"><a xlink:href="ComponentCacheService_8cpp.html" target="_top" xlink:title=" ">
<polygon fill="white" stroke="#666666" points="271.32,-156.5 68.32,-156.5 68.32,-137.5 271.32,-137.5 271.32,-156.5"/>
<text text-anchor="middle" x="169.82" y="-144.5" font-family="Helvetica,sans-Serif" font-size="10.00">services/ComponentCacheService.cpp</text>
</a>
</g>
</g>
<!-- Node1&#45;&gt;Node5 -->
<g id="edge4_Node000001_Node000005" class="edge">
<title>Node1&#45;&gt;Node5</title>
<g id="a_edge4_Node000001_Node000005"><a xlink:title=" ">
<path fill="none" stroke="#63b8ff" d="M621.01,-317.1C580.24,-309.54 526.24,-298.01 479.82,-283 363.92,-245.52 232.24,-180.11 186.5,-156.67"/>
<polygon fill="#63b8ff" stroke="#63b8ff" points="620.62,-320.58 631.08,-318.93 621.87,-313.69 620.62,-320.58"/>
</a>
</g>
</g>
<!-- Node6 -->
<g id="Node000006" class="node">
<title>Node6</title>
<g id="a_Node000006"><a xlink:href="ComponentService_8h.html" target="_top" xlink:title=" ">
<polygon fill="white" stroke="#666666" points="711.32,-217 550.32,-217 550.32,-198 711.32,-198 711.32,-217"/>
<text text-anchor="middle" x="630.82" y="-205" font-family="Helvetica,sans-Serif" font-size="10.00">services/ComponentService.h</text>
</a>
</g>
</g>
<!-- Node1&#45;&gt;Node6 -->
<g id="edge5_Node000001_Node000006" class="edge">
<title>Node1&#45;&gt;Node6</title>
<g id="a_edge5_Node000001_Node000006"><a xlink:title=" ">
<path fill="none" stroke="#63b8ff" d="M590.63,-315.7C572.34,-308.98 555.29,-298.69 543.82,-283 535.94,-272.24 536.86,-264.37 543.82,-253 555.06,-234.62 576.56,-223.52 595.37,-217.01"/>
<polygon fill="#63b8ff" stroke="#63b8ff" points="589.69,-319.07 600.29,-318.89 591.89,-312.43 589.69,-319.07"/>
</a>
</g>
</g>
<!-- Node8 -->
<g id="Node000008" class="node">
<title>Node8</title>
<g id="a_Node000008"><a xlink:href="ParallelExportService_8cpp.html" target="_top" xlink:title=" ">
<polygon fill="white" stroke="#666666" points="420.32,-162 289.32,-162 289.32,-132 420.32,-132 420.32,-162"/>
<text text-anchor="start" x="297.32" y="-150" font-family="Helvetica,sans-Serif" font-size="10.00">services/export/Parallel</text>
<text text-anchor="middle" x="354.82" y="-139" font-family="Helvetica,sans-Serif" font-size="10.00">ExportService.cpp</text>
</a>
</g>
</g>
<!-- Node1&#45;&gt;Node8 -->
<g id="edge31_Node000001_Node000008" class="edge">
<title>Node1&#45;&gt;Node8</title>
<g id="a_edge31_Node000001_Node000008"><a xlink:title=" ">
<path fill="none" stroke="#63b8ff" d="M630.47,-316.6C601,-309.38 564.3,-298.38 533.82,-283 466.75,-249.16 399.07,-189.61 369.82,-162.36"/>
<polygon fill="#63b8ff" stroke="#63b8ff" points="630.04,-320.09 640.58,-319 631.65,-313.28 630.04,-320.09"/>
</a>
</g>
</g>
<!-- Node10 -->
<g id="Node000010" class="node">
<title>Node10</title>
<g id="a_Node000010"><a xlink:href="PipelineCompletionHandler_8cpp.html" target="_top" xlink:title=" ">
<polygon fill="white" stroke="#666666" points="475.32,-30 320.32,-30 320.32,0 475.32,0 475.32,-30"/>
<text text-anchor="start" x="328.32" y="-18" font-family="Helvetica,sans-Serif" font-size="10.00">services/PipelineCompletion</text>
<text text-anchor="middle" x="397.82" y="-7" font-family="Helvetica,sans-Serif" font-size="10.00">Handler.cpp</text>
</a>
</g>
</g>
<!-- Node1&#45;&gt;Node10 -->
<g id="edge25_Node000001_Node000010" class="edge">
<title>Node1&#45;&gt;Node10</title>
<g id="a_edge25_Node000001_Node000010"><a xlink:title=" ">
<path fill="none" stroke="#63b8ff" d="M578.11,-318.4C522.69,-311.84 454.19,-300.9 394.82,-283 308.57,-257 295.94,-227.48 210.82,-198 145.62,-175.42 102.57,-216.15 59.82,-162 51.55,-151.54 52.07,-142.85 59.82,-132 91.45,-87.7 238.56,-49.62 327.96,-30.05"/>
<polygon fill="#63b8ff" stroke="#63b8ff" points="577.96,-321.91 588.29,-319.58 578.76,-314.95 577.96,-321.91"/>
</a>
</g>
</g>
<!-- Node12 -->
<g id="Node000012" class="node">
<title>Node12</title>
<g id="a_Node000012"><a xlink:href="ExportProgressViewModel_8h.html" target="_top" xlink:title=" ">
<polygon fill="white" stroke="#666666" points="748.82,-96 584.82,-96 584.82,-66 748.82,-66 748.82,-96"/>
<text text-anchor="start" x="592.82" y="-84" font-family="Helvetica,sans-Serif" font-size="10.00">ui/viewmodels/ExportProgress</text>
<text text-anchor="middle" x="666.82" y="-73" font-family="Helvetica,sans-Serif" font-size="10.00">ViewModel.h</text>
</a>
</g>
</g>
<!-- Node1&#45;&gt;Node12 -->
<g id="edge33_Node000001_Node000012" class="edge">
<title>Node1&#45;&gt;Node12</title>
<g id="a_edge33_Node000001_Node000012"><a xlink:title=" ">
<path fill="none" stroke="#63b8ff" d="M697.57,-311.35C714.75,-291.6 743.63,-259.93 757.82,-253 910.9,-178.26 1631.68,-255.96 1514.82,-132 1488.8,-104.4 956.84,-88.87 749,-83.83"/>
<polygon fill="#63b8ff" stroke="#63b8ff" points="694.87,-309.12 690.99,-318.98 700.17,-313.69 694.87,-309.12"/>
</a>
</g>
</g>
<!-- Node18 -->
<g id="Node000018" class="node">
<title>Node18</title>
<g id="a_Node000018"><a xlink:href="LcscImageService_8h.html" target="_top" xlink:title=" ">
<polygon fill="white" stroke="#666666" points="709.32,-277.5 552.32,-277.5 552.32,-258.5 709.32,-258.5 709.32,-277.5"/>
<text text-anchor="middle" x="630.82" y="-265.5" font-family="Helvetica,sans-Serif" font-size="10.00">services/LcscImageService.h</text>
</a>
</g>
</g>
<!-- Node1&#45;&gt;Node18 -->
<g id="edge22_Node000001_Node000018" class="edge">
<title>Node1&#45;&gt;Node18</title>
<g id="a_edge22_Node000001_Node000018"><a xlink:title=" ">
<path fill="none" stroke="#63b8ff" d="M669.11,-311.27C659.26,-300.39 646.67,-286.49 638.67,-277.67"/>
<polygon fill="#63b8ff" stroke="#63b8ff" points="666.69,-313.81 676,-318.87 671.88,-309.11 666.69,-313.81"/>
</a>
</g>
</g>
<!-- Node20 -->
<g id="Node000020" class="node">
<title>Node20</title>
<g id="a_Node000020"><a xlink:href="DatasheetExportWorker_8cpp.html" target="_top" xlink:title=" ">
<polygon fill="white" stroke="#666666" points="911.32,-283 766.32,-283 766.32,-253 911.32,-253 911.32,-283"/>
<text text-anchor="start" x="774.32" y="-271" font-family="Helvetica,sans-Serif" font-size="10.00">services/export/Datasheet</text>
<text text-anchor="middle" x="838.82" y="-260" font-family="Helvetica,sans-Serif" font-size="10.00">ExportWorker.cpp</text>
</a>
</g>
</g>
<!-- Node1&#45;&gt;Node20 -->
<g id="edge26_Node000001_Node000020" class="edge">
<title>Node1&#45;&gt;Node20</title>
<g id="a_edge26_Node000001_Node000020"><a xlink:title=" ">
<path fill="none" stroke="#63b8ff" d="M715.72,-315.46C740.65,-306.05 775.35,-292.95 801.55,-283.06"/>
<polygon fill="#63b8ff" stroke="#63b8ff" points="714.47,-312.19 706.35,-318.99 716.95,-318.74 714.47,-312.19"/>
</a>
</g>
</g>
<!-- Node21 -->
<g id="Node000021" class="node">
<title>Node21</title>
<g id="a_Node000021"><a xlink:href="ExportWorkerHelpers_8cpp.html" target="_top" xlink:title=" ">
<polygon fill="white" stroke="#666666" points="1089.82,-283 929.82,-283 929.82,-253 1089.82,-253 1089.82,-283"/>
<text text-anchor="start" x="937.82" y="-271" font-family="Helvetica,sans-Serif" font-size="10.00">services/export/ExportWorker</text>
<text text-anchor="middle" x="1009.82" y="-260" font-family="Helvetica,sans-Serif" font-size="10.00">Helpers.cpp</text>
</a>
</g>
</g>
<!-- Node1&#45;&gt;Node21 -->
<g id="edge27_Node000001_Node000021" class="edge">
<title>Node1&#45;&gt;Node21</title>
<g id="a_edge27_Node000001_Node000021"><a xlink:title=" ">
<path fill="none" stroke="#63b8ff" d="M741.11,-317.22C794.03,-307.72 873.08,-293.54 931.76,-283.01"/>
<polygon fill="#63b8ff" stroke="#63b8ff" points="740.44,-313.78 731.22,-318.99 741.68,-320.67 740.44,-313.78"/>
</a>
</g>
</g>
<!-- Node22 -->
<g id="Node000022" class="node">
<title>Node22</title>
<g id="a_Node000022"><a xlink:href="FootprintExportStage_8cpp.html" target="_top" xlink:title=" ">
<polygon fill="white" stroke="#666666" points="1245.82,-283 1107.82,-283 1107.82,-253 1245.82,-253 1245.82,-283"/>
<text text-anchor="start" x="1115.82" y="-271" font-family="Helvetica,sans-Serif" font-size="10.00">services/export/Footprint</text>
<text text-anchor="middle" x="1176.82" y="-260" font-family="Helvetica,sans-Serif" font-size="10.00">ExportStage.cpp</text>
</a>
</g>
</g>
<!-- Node1&#45;&gt;Node22 -->
<g id="edge28_Node000001_Node000022" class="edge">
<title>Node1&#45;&gt;Node22</title>
<g id="a_edge28_Node000001_Node000022"><a xlink:title=" ">
<path fill="none" stroke="#63b8ff" d="M789.72,-318.23C873.73,-310.37 994.05,-298 1098.82,-283 1101.68,-282.59 1104.59,-282.15 1107.54,-281.7"/>
<polygon fill="#63b8ff" stroke="#63b8ff" points="789.29,-314.75 779.66,-319.16 789.94,-321.72 789.29,-314.75"/>
</a>
</g>
</g>
<!-- Node23 -->
<g id="Node000023" class="node">
<title>Node23</title>
<g id="a_Node000023"><a xlink:href="Model3DExportStage_8cpp.html" target="_top" xlink:title=" ">
<polygon fill="white" stroke="#666666" points="1433.82,-283 1263.82,-283 1263.82,-253 1433.82,-253 1433.82,-283"/>
<text text-anchor="start" x="1271.82" y="-271" font-family="Helvetica,sans-Serif" font-size="10.00">services/export/Model3DExport</text>
<text text-anchor="middle" x="1348.82" y="-260" font-family="Helvetica,sans-Serif" font-size="10.00">Stage.cpp</text>
</a>
</g>
</g>
<!-- Node1&#45;&gt;Node23 -->
<g id="edge29_Node000001_Node000023" class="edge">
<title>Node1&#45;&gt;Node23</title>
<g id="a_edge29_Node000001_Node000023"><a xlink:title=" ">
<path fill="none" stroke="#63b8ff" d="M789.67,-321.48C904.46,-314.43 1092.98,-301.34 1254.82,-283 1257.77,-282.67 1260.77,-282.31 1263.8,-281.94"/>
<polygon fill="#63b8ff" stroke="#63b8ff" points="789.25,-318 779.49,-322.1 789.68,-324.98 789.25,-318"/>
</a>
</g>
</g>
<!-- Node24 -->
<g id="Node000024" class="node">
<title>Node24</title>
<g id="a_Node000024"><a xlink:href="Model3DExportWorker_8cpp.html" target="_top" xlink:title=" ">
<polygon fill="white" stroke="#666666" points="1621.82,-283 1451.82,-283 1451.82,-253 1621.82,-253 1621.82,-283"/>
<text text-anchor="start" x="1459.82" y="-271" font-family="Helvetica,sans-Serif" font-size="10.00">services/export/Model3DExport</text>
<text text-anchor="middle" x="1536.82" y="-260" font-family="Helvetica,sans-Serif" font-size="10.00">Worker.cpp</text>
</a>
</g>
</g>
<!-- Node1&#45;&gt;Node24 -->
<g id="edge30_Node000001_Node000024" class="edge">
<title>Node1&#45;&gt;Node24</title>
<g id="a_edge30_Node000001_Node000024"><a xlink:title=" ">
<path fill="none" stroke="#63b8ff" d="M789.95,-324.27C936.92,-319.11 1210.58,-307.05 1442.82,-283 1445.77,-282.69 1448.77,-282.36 1451.81,-282.01"/>
<polygon fill="#63b8ff" stroke="#63b8ff" points="789.46,-320.78 779.59,-324.63 789.71,-327.78 789.46,-320.78"/>
</a>
</g>
</g>
<!-- Node25 -->
<g id="Node000025" class="node">
<title>Node25</title>
<g id="a_Node000025"><a xlink:href="PreviewImagesExportWorker_8cpp.html" target="_top" xlink:title=" ">
<polygon fill="white" stroke="#666666" points="1809.82,-283 1639.82,-283 1639.82,-253 1809.82,-253 1809.82,-283"/>
<text text-anchor="start" x="1647.82" y="-271" font-family="Helvetica,sans-Serif" font-size="10.00">services/export/PreviewImages</text>
<text text-anchor="middle" x="1724.82" y="-260" font-family="Helvetica,sans-Serif" font-size="10.00">ExportWorker.cpp</text>
</a>
</g>
</g>
<!-- Node1&#45;&gt;Node25 -->
<g id="edge32_Node000001_Node000025" class="edge">
<title>Node1&#45;&gt;Node25</title>
<g id="a_edge32_Node000001_Node000025"><a xlink:title=" ">
<path fill="none" stroke="#63b8ff" d="M789.74,-326.01C965.06,-322.75 1326.46,-312.74 1630.82,-283 1633.77,-282.71 1636.78,-282.39 1639.81,-282.05"/>
<polygon fill="#63b8ff" stroke="#63b8ff" points="789.42,-322.51 779.48,-326.19 789.54,-329.51 789.42,-322.51"/>
</a>
</g>
</g>
<!-- Node26 -->
<g id="Node000026" class="node">
<title>Node26</title>
<g id="a_Node000026"><a xlink:href="ExportSettingsViewModel_8cpp.html" target="_top" xlink:title=" ">
<polygon fill="white" stroke="#666666" points="1989.82,-283 1827.82,-283 1827.82,-253 1989.82,-253 1989.82,-283"/>
<text text-anchor="start" x="1835.82" y="-271" font-family="Helvetica,sans-Serif" font-size="10.00">ui/viewmodels/ExportSettings</text>
<text text-anchor="middle" x="1908.82" y="-260" font-family="Helvetica,sans-Serif" font-size="10.00">ViewModel.cpp</text>
</a>
</g>
</g>
<!-- Node1&#45;&gt;Node26 -->
<g id="edge34_Node000001_Node000026" class="edge">
<title>Node1&#45;&gt;Node26</title>
<g id="a_edge34_Node000001_Node000026"><a xlink:title=" ">
<path fill="none" stroke="#63b8ff" d="M789.61,-327.41C990.63,-326.34 1441.41,-319.63 1818.82,-283 1821.65,-282.73 1824.53,-282.42 1827.43,-282.09"/>
<polygon fill="#63b8ff" stroke="#63b8ff" points="789.34,-323.91 779.36,-327.46 789.38,-330.91 789.34,-323.91"/>
</a>
</g>
</g>
<!-- Node3&#45;&gt;Node4 -->
<g id="edge3_Node000003_Node000004" class="edge">
<title>Node3&#45;&gt;Node4</title>
<g id="a_edge3_Node000003_Node000004"><a xlink:title=" ">
<path fill="none" stroke="#63b8ff" d="M109.25,-248.49C111.75,-238.01 114.77,-225.39 116.74,-217.17"/>
<polygon fill="#63b8ff" stroke="#63b8ff" points="105.81,-247.83 106.88,-258.37 112.61,-249.46 105.81,-247.83"/>
</a>
</g>
</g>
<!-- Node6&#45;&gt;Node5 -->
<g id="edge6_Node000006_Node000005" class="edge">
<title>Node6&#45;&gt;Node5</title>
<g id="a_edge6_Node000006_Node000005"><a xlink:title=" ">
<path fill="none" stroke="#63b8ff" d="M553.79,-196.73C465.19,-185.48 321.13,-167.2 236.93,-156.52"/>
<polygon fill="#63b8ff" stroke="#63b8ff" points="553.42,-200.21 563.78,-197.99 554.3,-193.26 553.42,-200.21"/>
</a>
</g>
</g>
<!-- Node7 -->
<g id="Node000007" class="node">
<title>Node7</title>
<g id="a_Node000007"><a xlink:href="ComponentService_8cpp.html" target="_top" xlink:title=" ">
<polygon fill="white" stroke="#666666" points="1505.32,-156.5 1332.32,-156.5 1332.32,-137.5 1505.32,-137.5 1505.32,-156.5"/>
<text text-anchor="middle" x="1418.82" y="-144.5" font-family="Helvetica,sans-Serif" font-size="10.00">services/ComponentService.cpp</text>
</a>
</g>
</g>
<!-- Node6&#45;&gt;Node7 -->
<g id="edge7_Node000006_Node000007" class="edge">
<title>Node6&#45;&gt;Node7</title>
<g id="a_edge7_Node000006_Node000007"><a xlink:title=" ">
<path fill="none" stroke="#63b8ff" d="M721.8,-197.96C990.2,-177.67 1060.02,-189.26 1323.82,-162 1337.75,-160.56 1352.76,-158.56 1366.65,-156.52"/>
<polygon fill="#63b8ff" stroke="#63b8ff" points="721.46,-194.47 711.76,-198.72 722,-201.45 721.46,-194.47"/>
</a>
</g>
</g>
<!-- Node6&#45;&gt;Node8 -->
<g id="edge8_Node000006_Node000008" class="edge">
<title>Node6&#45;&gt;Node8</title>
<g id="a_edge8_Node000006_Node000008"><a xlink:title=" ">
<path fill="none" stroke="#63b8ff" d="M580.87,-195.91C535.92,-186.39 469.57,-172.32 420.37,-161.89"/>
<polygon fill="#63b8ff" stroke="#63b8ff" points="580.18,-199.34 590.68,-197.99 581.63,-192.5 580.18,-199.34"/>
</a>
</g>
</g>
<!-- Node9 -->
<g id="Node000009" class="node">
<title>Node9</title>
<g id="a_Node000009"><a xlink:href="ComponentListViewModel_8h.html" target="_top" xlink:title=" ">
<polygon fill="white" stroke="#666666" points="602.82,-162 438.82,-162 438.82,-132 602.82,-132 602.82,-162"/>
<text text-anchor="start" x="446.82" y="-150" font-family="Helvetica,sans-Serif" font-size="10.00">ui/viewmodels/ComponentList</text>
<text text-anchor="middle" x="520.82" y="-139" font-family="Helvetica,sans-Serif" font-size="10.00">ViewModel.h</text>
</a>
</g>
</g>
<!-- Node6&#45;&gt;Node9 -->
<g id="edge9_Node000006_Node000009" class="edge">
<title>Node6&#45;&gt;Node9</title>
<g id="a_edge9_Node000006_Node000009"><a xlink:title=" ">
<path fill="none" stroke="#63b8ff" d="M605.57,-193.07C588.15,-183.81 565.04,-171.52 547.36,-162.11"/>
<polygon fill="#63b8ff" stroke="#63b8ff" points="604.11,-196.26 614.59,-197.87 607.4,-190.08 604.11,-196.26"/>
</a>
</g>
</g>
<!-- Node6&#45;&gt;Node12 -->
<g id="edge17_Node000006_Node000012" class="edge">
<title>Node6&#45;&gt;Node12</title>
<g id="a_edge17_Node000006_Node000012"><a xlink:title=" ">
<path fill="none" stroke="#63b8ff" d="M635.21,-187.6C638.82,-172.47 644.24,-150.76 649.82,-132 653.42,-119.87 658.08,-106.29 661.61,-96.35"/>
<polygon fill="#63b8ff" stroke="#63b8ff" points="631.71,-187.19 632.82,-197.72 638.52,-188.79 631.71,-187.19"/>
</a>
</g>
</g>
<!-- Node14 -->
<g id="Node000014" class="node">
<title>Node14</title>
<g id="a_Node000014"><a xlink:href="BatchConverter_8cpp.html" target="_top" xlink:title=" ">
<polygon fill="white" stroke="#666666" points="808.82,-156.5 658.82,-156.5 658.82,-137.5 808.82,-137.5 808.82,-156.5"/>
<text text-anchor="middle" x="733.82" y="-144.5" font-family="Helvetica,sans-Serif" font-size="10.00">utils/cli/BatchConverter.cpp</text>
</a>
</g>
</g>
<!-- Node6&#45;&gt;Node14 -->
<g id="edge18_Node000006_Node000014" class="edge">
<title>Node6&#45;&gt;Node14</title>
<g id="a_edge18_Node000006_Node000014"><a xlink:title=" ">
<path fill="none" stroke="#63b8ff" d="M654.72,-192.92C674.4,-181.74 701.72,-166.23 718.56,-156.67"/>
<polygon fill="#63b8ff" stroke="#63b8ff" points="652.98,-189.89 646.01,-197.87 656.44,-195.97 652.98,-189.89"/>
</a>
</g>
</g>
<!-- Node15 -->
<g id="Node000015" class="node">
<title>Node15</title>
<g id="a_Node000015"><a xlink:href="BomConverter_8cpp.html" target="_top" xlink:title=" ">
<polygon fill="white" stroke="#666666" points="972.32,-156.5 827.32,-156.5 827.32,-137.5 972.32,-137.5 972.32,-156.5"/>
<text text-anchor="middle" x="899.82" y="-144.5" font-family="Helvetica,sans-Serif" font-size="10.00">utils/cli/BomConverter.cpp</text>
</a>
</g>
</g>
<!-- Node6&#45;&gt;Node15 -->
<g id="edge19_Node000006_Node000015" class="edge">
<title>Node6&#45;&gt;Node15</title>
<g id="a_edge19_Node000006_Node000015"><a xlink:title=" ">
<path fill="none" stroke="#63b8ff" d="M679.92,-195.82C731.87,-184.52 812.82,-166.92 860.65,-156.52"/>
<polygon fill="#63b8ff" stroke="#63b8ff" points="678.96,-192.45 669.93,-197.99 680.45,-199.29 678.96,-192.45"/>
</a>
</g>
</g>
<!-- Node16 -->
<g id="Node000016" class="node">
<title>Node16</title>
<g id="a_Node000016"><a xlink:href="CliContext_8cpp.html" target="_top" xlink:title=" ">
<polygon fill="white" stroke="#666666" points="1116.82,-156.5 990.82,-156.5 990.82,-137.5 1116.82,-137.5 1116.82,-156.5"/>
<text text-anchor="middle" x="1053.82" y="-144.5" font-family="Helvetica,sans-Serif" font-size="10.00">utils/cli/CliContext.cpp</text>
</a>
</g>
</g>
<!-- Node6&#45;&gt;Node16 -->
<g id="edge20_Node000006_Node000016" class="edge">
<title>Node6&#45;&gt;Node16</title>
<g id="a_edge20_Node000006_Node000016"><a xlink:title=" ">
<path fill="none" stroke="#63b8ff" d="M720.05,-196.83C791.13,-188.73 893.08,-176.24 981.82,-162 991.75,-160.41 1002.41,-158.46 1012.4,-156.54"/>
<polygon fill="#63b8ff" stroke="#63b8ff" points="719.33,-193.39 709.79,-197.99 720.12,-200.35 719.33,-193.39"/>
</a>
</g>
</g>
<!-- Node17 -->
<g id="Node000017" class="node">
<title>Node17</title>
<g id="a_Node000017"><a xlink:href="ComponentConverter_8cpp.html" target="_top" xlink:title=" ">
<polygon fill="white" stroke="#666666" points="1314.32,-156.5 1135.32,-156.5 1135.32,-137.5 1314.32,-137.5 1314.32,-156.5"/>
<text text-anchor="middle" x="1224.82" y="-144.5" font-family="Helvetica,sans-Serif" font-size="10.00">utils/cli/ComponentConverter.cpp</text>
</a>
</g>
</g>
<!-- Node6&#45;&gt;Node17 -->
<g id="edge21_Node000006_Node000017" class="edge">
<title>Node6&#45;&gt;Node17</title>
<g id="a_edge21_Node000006_Node000017"><a xlink:title=" ">
<path fill="none" stroke="#63b8ff" d="M721.87,-197.91C902.46,-181.54 949.53,-182.29 1125.82,-162 1139.61,-160.41 1154.45,-158.45 1168.34,-156.5"/>
<polygon fill="#63b8ff" stroke="#63b8ff" points="721.41,-194.44 711.77,-198.83 722.04,-201.41 721.41,-194.44"/>
</a>
</g>
</g>
<!-- Node9&#45;&gt;Node2 -->
<g id="edge10_Node000009_Node000002" class="edge">
<title>Node9&#45;&gt;Node2</title>
<g id="a_edge10_Node000009_Node000002"><a xlink:title=" ">
<path fill="none" stroke="#63b8ff" d="M461.65,-128.77C436.37,-120.39 406.95,-109.24 381.82,-96 341.47,-74.74 299.2,-40.37 280.59,-24.51"/>
<polygon fill="#63b8ff" stroke="#63b8ff" points="460.89,-132.2 471.48,-131.96 463.05,-125.55 460.89,-132.2"/>
</a>
</g>
</g>
<!-- Node9&#45;&gt;Node10 -->
<g id="edge11_Node000009_Node000010" class="edge">
<title>Node9&#45;&gt;Node10</title>
<g id="a_edge11_Node000009_Node000010"><a xlink:title=" ">
<path fill="none" stroke="#63b8ff" d="M434.2,-127.96C418.29,-120.66 403.63,-110.41 393.82,-96 380.43,-76.35 386.71,-47.25 392.36,-30.1"/>
<polygon fill="#63b8ff" stroke="#63b8ff" points="433.11,-131.3 443.68,-131.93 435.81,-124.84 433.11,-131.3"/>
</a>
</g>
</g>
<!-- Node11 -->
<g id="Node000011" class="node">
<title>Node11</title>
<g id="a_Node000011"><a xlink:href="ComponentListViewModel_8cpp.html" target="_top" xlink:title=" ">
<polygon fill="white" stroke="#666666" points="566.82,-96 402.82,-96 402.82,-66 566.82,-66 566.82,-96"/>
<text text-anchor="start" x="410.82" y="-84" font-family="Helvetica,sans-Serif" font-size="10.00">ui/viewmodels/ComponentList</text>
<text text-anchor="middle" x="484.82" y="-73" font-family="Helvetica,sans-Serif" font-size="10.00">ViewModel.cpp</text>
</a>
</g>
</g>
<!-- Node9&#45;&gt;Node11 -->
<g id="edge12_Node000009_Node000011" class="edge">
<title>Node9&#45;&gt;Node11</title>
<g id="a_edge12_Node000009_Node000011"><a xlink:title=" ">
<path fill="none" stroke="#63b8ff" d="M507.86,-122.96C502.82,-114 497.21,-104.03 492.78,-96.16"/>
<polygon fill="#63b8ff" stroke="#63b8ff" points="504.87,-124.8 512.83,-131.8 510.97,-121.36 504.87,-124.8"/>
</a>
</g>
</g>
<!-- Node9&#45;&gt;Node12 -->
<g id="edge13_Node000009_Node000012" class="edge">
<title>Node9&#45;&gt;Node12</title>
<g id="a_edge13_Node000009_Node000012"><a xlink:title=" ">
<path fill="none" stroke="#63b8ff" d="M562.06,-127.92C585.14,-117.8 613.47,-105.38 634.85,-96.01"/>
<polygon fill="#63b8ff" stroke="#63b8ff" points="560.61,-124.73 552.86,-131.95 563.42,-131.15 560.61,-124.73"/>
</a>
</g>
</g>
<!-- Node12&#45;&gt;Node2 -->
<g id="edge14_Node000012_Node000002" class="edge">
<title>Node12&#45;&gt;Node2</title>
<g id="a_edge14_Node000012_Node000002"><a xlink:title=" ">
<path fill="none" stroke="#63b8ff" d="M574.37,-65.83C456.84,-49.42 423.9,-56.52 311.82,-30 305.81,-28.58 299.45,-26.63 293.57,-24.64"/>
<polygon fill="#63b8ff" stroke="#63b8ff" points="574.09,-69.32 584.49,-67.27 575.08,-62.39 574.09,-69.32"/>
</a>
</g>
</g>
<!-- Node12&#45;&gt;Node10 -->
<g id="edge15_Node000012_Node000010" class="edge">
<title>Node12&#45;&gt;Node10</title>
<g id="a_edge15_Node000012_Node000010"><a xlink:title=" ">
<path fill="none" stroke="#63b8ff" d="M597.81,-63.58C554.14,-53.19 498.29,-39.9 456.71,-30.01"/>
<polygon fill="#63b8ff" stroke="#63b8ff" points="597.24,-67.05 607.78,-65.95 598.86,-60.24 597.24,-67.05"/>
</a>
</g>
</g>
<!-- Node13 -->
<g id="Node000013" class="node">
<title>Node13</title>
<g id="a_Node000013"><a xlink:href="ExportProgressViewModel_8cpp.html" target="_top" xlink:title=" ">
<polygon fill="white" stroke="#666666" points="748.82,-30 584.82,-30 584.82,0 748.82,0 748.82,-30"/>
<text text-anchor="start" x="592.82" y="-18" font-family="Helvetica,sans-Serif" font-size="10.00">ui/viewmodels/ExportProgress</text>
<text text-anchor="middle" x="666.82" y="-7" font-family="Helvetica,sans-Serif" font-size="10.00">ViewModel.cpp</text>
</a>
</g>
</g>
<!-- Node12&#45;&gt;Node13 -->
<g id="edge16_Node000012_Node000013" class="edge">
<title>Node12&#45;&gt;Node13</title>
<g id="a_edge16_Node000012_Node000013"><a xlink:title=" ">
<path fill="none" stroke="#63b8ff" d="M666.82,-55.54C666.82,-46.96 666.82,-37.61 666.82,-30.16"/>
<polygon fill="#63b8ff" stroke="#63b8ff" points="663.32,-55.8 666.82,-65.8 670.32,-55.8 663.32,-55.8"/>
</a>
</g>
</g>
<!-- Node18&#45;&gt;Node6 -->
<g id="edge23_Node000018_Node000006" class="edge">
<title>Node18&#45;&gt;Node6</title>
<g id="a_edge23_Node000018_Node000006"><a xlink:title=" ">
<path fill="none" stroke="#63b8ff" d="M630.82,-248.16C630.82,-237.74 630.82,-225.3 630.82,-217.17"/>
<polygon fill="#63b8ff" stroke="#63b8ff" points="627.32,-248.37 630.82,-258.37 634.32,-248.37 627.32,-248.37"/>
</a>
</g>
</g>
<!-- Node19 -->
<g id="Node000019" class="node">
<title>Node19</title>
<g id="a_Node000019"><a xlink:href="LcscImageService_8cpp.html" target="_top" xlink:title=" ">
<polygon fill="white" stroke="#666666" points="897.82,-217 729.82,-217 729.82,-198 897.82,-198 897.82,-217"/>
<text text-anchor="middle" x="813.82" y="-205" font-family="Helvetica,sans-Serif" font-size="10.00">services/LcscImageService.cpp</text>
</a>
</g>
</g>
<!-- Node18&#45;&gt;Node19 -->
<g id="edge24_Node000018_Node000019" class="edge">
<title>Node18&#45;&gt;Node19</title>
<g id="a_edge24_Node000018_Node000019"><a xlink:title=" ">
<path fill="none" stroke="#63b8ff" d="M667.36,-255.32C702.76,-244 755.58,-227.12 787.17,-217.02"/>
<polygon fill="#63b8ff" stroke="#63b8ff" points="665.89,-252.11 657.43,-258.49 668.02,-258.78 665.89,-252.11"/>
</a>
</g>
</g>
</g>
</svg>
