<?xml version="1.0" encoding="UTF-8" standalone="no"?>
<!DOCTYPE svg PUBLIC "-//W3C//DTD SVG 1.1//EN"
 "http://www.w3.org/Graphics/SVG/1.1/DTD/svg11.dtd">
<!-- Generated by graphviz version 2.43.0 (0)
 -->
<!-- Title: ui/viewmodels/ComponentListViewModel.cpp Pages: 1 -->
<svg width="1865pt" height="379pt"
 viewBox="0.00 0.00 1864.50 379.00" xmlns="http://www.w3.org/2000/svg" xmlns:xlink="http://www.w3.org/1999/xlink">
<g id="graph0" class="graph" transform="scale(1 1) rotate(0) translate(4 375)">
<title>ui/viewmodels/ComponentListViewModel.cpp</title>
<!-- Node1 -->
<g id="Node000001" class="node">
<title>Node1</title>
<g id="a_Node000001"><a xlink:title=" ">
<polygon fill="#999999" stroke="#666666" points="1414,-371 1250,-371 1250,-341 1414,-341 1414,-371"/>
<text text-anchor="start" x="1258" y="-359" font-family="Helvetica,sans-Serif" font-size="10.00">ui/viewmodels/ComponentList</text>
<text text-anchor="middle" x="1332" y="-348" font-family="Helvetica,sans-Serif" font-size="10.00">ViewModel.cpp</text>
</a>
</g>
</g>
<!-- Node2 -->
<g id="Node000002" class="node">
<title>Node2</title>
<g id="a_Node000002"><a xlink:href="ComponentListViewModel_8h.html" target="_top" xlink:title=" ">
<polygon fill="white" stroke="#666666" points="1122.5,-305 969.5,-305 969.5,-286 1122.5,-286 1122.5,-305"/>
<text text-anchor="middle" x="1046" y="-293" font-family="Helvetica,sans-Serif" font-size="10.00">ComponentListViewModel.h</text>
</a>
</g>
</g>
<!-- Node1&#45;&gt;Node2 -->
<g id="edge1_Node000001_Node000002" class="edge">
<title>Node1&#45;&gt;Node2</title>
<g id="a_edge1_Node000001_Node000002"><a xlink:title=" ">
<path fill="none" stroke="#63b8ff" d="M1263.5,-340.99C1212.54,-330.56 1144.06,-316.56 1097.66,-307.07"/>
<polygon fill="#63b8ff" stroke="#63b8ff" points="1098.32,-303.63 1087.82,-305.05 1096.91,-310.49 1098.32,-303.63"/>
</a>
</g>
</g>
<!-- Node28 -->
<g id="Node000028" class="node">
<title>Node28</title>
<g id="a_Node000028"><a xlink:title=" ">
<polygon fill="#e0e0e0" stroke="#999999" points="1179.5,-244.5 1120.5,-244.5 1120.5,-225.5 1179.5,-225.5 1179.5,-244.5"/>
<text text-anchor="middle" x="1150" y="-232.5" font-family="Helvetica,sans-Serif" font-size="10.00">QPointer</text>
</a>
</g>
</g>
<!-- Node1&#45;&gt;Node28 -->
<g id="edge64_Node000001_Node000028" class="edge">
<title>Node1&#45;&gt;Node28</title>
<g id="a_edge64_Node000001_Node000028"><a xlink:title=" ">
<path fill="none" stroke="#63b8ff" d="M1294.21,-340.97C1272.74,-332.16 1245.86,-319.7 1224,-305 1201.12,-289.62 1178.49,-267.16 1164.39,-252.09"/>
<polygon fill="#63b8ff" stroke="#63b8ff" points="1166.83,-249.57 1157.49,-244.57 1161.67,-254.3 1166.83,-249.57"/>
</a>
</g>
</g>
<!-- Node29 -->
<g id="Node000029" class="node">
<title>Node29</title>
<g id="a_Node000029"><a xlink:title=" ">
<polygon fill="#e0e0e0" stroke="#999999" points="1238,-244.5 1198,-244.5 1198,-225.5 1238,-225.5 1238,-244.5"/>
<text text-anchor="middle" x="1218" y="-232.5" font-family="Helvetica,sans-Serif" font-size="10.00">QSet</text>
</a>
</g>
</g>
<!-- Node1&#45;&gt;Node29 -->
<g id="edge66_Node000001_Node000029" class="edge">
<title>Node1&#45;&gt;Node29</title>
<g id="a_edge66_Node000001_Node000029"><a xlink:title=" ">
<path fill="none" stroke="#63b8ff" d="M1290.13,-340.83C1272.14,-332.85 1252.25,-321.16 1239,-305 1227.24,-290.64 1222.06,-269.78 1219.78,-254.76"/>
<polygon fill="#63b8ff" stroke="#63b8ff" points="1223.23,-254.12 1218.54,-244.61 1216.28,-254.96 1223.23,-254.12"/>
</a>
</g>
</g>
<!-- Node30 -->
<g id="Node000030" class="node">
<title>Node30</title>
<g id="a_Node000030"><a xlink:title=" ">
<polygon fill="#e0e0e0" stroke="#999999" points="1309.5,-244.5 1256.5,-244.5 1256.5,-225.5 1309.5,-225.5 1309.5,-244.5"/>
<text text-anchor="middle" x="1283" y="-232.5" font-family="Helvetica,sans-Serif" font-size="10.00">QTimer</text>
</a>
</g>
</g>
<!-- Node1&#45;&gt;Node30 -->
<g id="edge68_Node000001_Node000030" class="edge">
<title>Node1&#45;&gt;Node30</title>
<g id="a_edge68_Node000001_Node000030"><a xlink:title=" ">
<path fill="none" stroke="#63b8ff" d="M1290.16,-340.93C1273.67,-333.09 1256.44,-321.5 1247,-305 1236.7,-286.99 1251.71,-265.76 1265.37,-251.65"/>
<polygon fill="#63b8ff" stroke="#63b8ff" points="1267.9,-254.08 1272.65,-244.61 1263.03,-249.05 1267.9,-254.08"/>
</a>
</g>
</g>
<!-- Node31 -->
<g id="Node000031" class="node">
<title>Node31</title>
<g id="a_Node000031"><a xlink:href="ThumbnailGenerator_8h.html" target="_top" xlink:title=" ">
<polygon fill="white" stroke="#666666" points="237.5,-244.5 76.5,-244.5 76.5,-225.5 237.5,-225.5 237.5,-244.5"/>
<text text-anchor="middle" x="157" y="-232.5" font-family="Helvetica,sans-Serif" font-size="10.00">ui/utils/ThumbnailGenerator.h</text>
</a>
</g>
</g>
<!-- Node1&#45;&gt;Node31 -->
<g id="edge57_Node000001_Node000031" class="edge">
<title>Node1&#45;&gt;Node31</title>
<g id="a_edge57_Node000001_Node000031"><a xlink:title=" ">
<path fill="none" stroke="#63b8ff" d="M1249.81,-348.68C1068.45,-334.38 620.41,-297.07 247,-250 237.68,-248.83 227.85,-247.44 218.24,-246.01"/>
<polygon fill="#63b8ff" stroke="#63b8ff" points="218.74,-242.55 208.33,-244.51 217.69,-249.47 218.74,-242.55"/>
</a>
</g>
</g>
<!-- Node32 -->
<g id="Node000032" class="node">
<title>Node32</title>
<g id="a_Node000032"><a xlink:title=" ">
<polygon fill="#e0e0e0" stroke="#999999" points="1326.5,-305 1255.5,-305 1255.5,-286 1326.5,-286 1326.5,-305"/>
<text text-anchor="middle" x="1291" y="-293" font-family="Helvetica,sans-Serif" font-size="10.00">QClipboard</text>
</a>
</g>
</g>
<!-- Node1&#45;&gt;Node32 -->
<g id="edge61_Node000001_Node000032" class="edge">
<title>Node1&#45;&gt;Node32</title>
<g id="a_edge61_Node000001_Node000032"><a xlink:title=" ">
<path fill="none" stroke="#63b8ff" d="M1322.08,-340.84C1316.31,-332.61 1309,-322.18 1302.92,-313.51"/>
<polygon fill="#63b8ff" stroke="#63b8ff" points="1305.75,-311.45 1297.14,-305.27 1300.02,-315.46 1305.75,-311.45"/>
</a>
</g>
</g>
<!-- Node33 -->
<g id="Node000033" class="node">
<title>Node33</title>
<g id="a_Node000033"><a xlink:title=" ">
<polygon fill="#e0e0e0" stroke="#999999" points="1401,-305 1345,-305 1345,-286 1401,-286 1401,-305"/>
<text text-anchor="middle" x="1373" y="-293" font-family="Helvetica,sans-Serif" font-size="10.00">QDebug</text>
</a>
</g>
</g>
<!-- Node1&#45;&gt;Node33 -->
<g id="edge62_Node000001_Node000033" class="edge">
<title>Node1&#45;&gt;Node33</title>
<g id="a_edge62_Node000001_Node000033"><a xlink:title=" ">
<path fill="none" stroke="#63b8ff" d="M1341.92,-340.84C1347.69,-332.61 1355,-322.18 1361.08,-313.51"/>
<polygon fill="#63b8ff" stroke="#63b8ff" points="1363.98,-315.46 1366.86,-305.27 1358.25,-311.45 1363.98,-315.46"/>
</a>
</g>
</g>
<!-- Node34 -->
<g id="Node000034" class="node">
<title>Node34</title>
<g id="a_Node000034"><a xlink:title=" ">
<polygon fill="#e0e0e0" stroke="#999999" points="1514.5,-305 1419.5,-305 1419.5,-286 1514.5,-286 1514.5,-305"/>
<text text-anchor="middle" x="1467" y="-293" font-family="Helvetica,sans-Serif" font-size="10.00">QGuiApplication</text>
</a>
</g>
</g>
<!-- Node1&#45;&gt;Node34 -->
<g id="edge63_Node000001_Node000034" class="edge">
<title>Node1&#45;&gt;Node34</title>
<g id="a_edge63_Node000001_Node000034"><a xlink:title=" ">
<path fill="none" stroke="#63b8ff" d="M1364.34,-340.99C1386.66,-331.31 1416.1,-318.56 1437.73,-309.18"/>
<polygon fill="#63b8ff" stroke="#63b8ff" points="1439.28,-312.33 1447.06,-305.14 1436.5,-305.9 1439.28,-312.33"/>
</a>
</g>
</g>
<!-- Node35 -->
<g id="Node000035" class="node">
<title>Node35</title>
<g id="a_Node000035"><a xlink:title=" ">
<polygon fill="#e0e0e0" stroke="#999999" points="1603,-305 1533,-305 1533,-286 1603,-286 1603,-305"/>
<text text-anchor="middle" x="1568" y="-293" font-family="Helvetica,sans-Serif" font-size="10.00">QRunnable</text>
</a>
</g>
</g>
<!-- Node1&#45;&gt;Node35 -->
<g id="edge65_Node000001_Node000035" class="edge">
<title>Node1&#45;&gt;Node35</title>
<g id="a_edge65_Node000001_Node000035"><a xlink:title=" ">
<path fill="none" stroke="#63b8ff" d="M1388.53,-340.99C1429.96,-330.72 1485.43,-316.97 1523.67,-307.49"/>
<polygon fill="#63b8ff" stroke="#63b8ff" points="1524.63,-310.86 1533.49,-305.05 1522.94,-304.06 1524.63,-310.86"/>
</a>
</g>
</g>
<!-- Node36 -->
<g id="Node000036" class="node">
<title>Node36</title>
<g id="a_Node000036"><a xlink:title=" ">
<polygon fill="#e0e0e0" stroke="#999999" points="1700.5,-305 1621.5,-305 1621.5,-286 1700.5,-286 1700.5,-305"/>
<text text-anchor="middle" x="1661" y="-293" font-family="Helvetica,sans-Serif" font-size="10.00">QThreadPool</text>
</a>
</g>
</g>
<!-- Node1&#45;&gt;Node36 -->
<g id="edge67_Node000001_Node000036" class="edge">
<title>Node1&#45;&gt;Node36</title>
<g id="a_edge67_Node000001_Node000036"><a xlink:title=" ">
<path fill="none" stroke="#63b8ff" d="M1410.8,-340.99C1473.13,-329.91 1558.23,-314.77 1611.38,-305.32"/>
<polygon fill="#63b8ff" stroke="#63b8ff" points="1612.01,-308.77 1621.24,-303.57 1610.79,-301.87 1612.01,-308.77"/>
</a>
</g>
</g>
<!-- Node37 -->
<g id="Node000037" class="node">
<title>Node37</title>
<g id="a_Node000037"><a xlink:title=" ">
<polygon fill="#e0e0e0" stroke="#999999" points="1757,-305 1719,-305 1719,-286 1757,-286 1757,-305"/>
<text text-anchor="middle" x="1738" y="-293" font-family="Helvetica,sans-Serif" font-size="10.00">QUrl</text>
</a>
</g>
</g>
<!-- Node1&#45;&gt;Node37 -->
<g id="edge69_Node000001_Node000037" class="edge">
<title>Node1&#45;&gt;Node37</title>
<g id="a_edge69_Node000001_Node000037"><a xlink:title=" ">
<path fill="none" stroke="#63b8ff" d="M1414.14,-348.03C1488.83,-340.81 1602.12,-327.64 1708.85,-304.93"/>
<polygon fill="#63b8ff" stroke="#63b8ff" points="1709.79,-308.3 1718.83,-302.77 1708.32,-301.46 1709.79,-308.3"/>
</a>
</g>
</g>
<!-- Node38 -->
<g id="Node000038" class="node">
<title>Node38</title>
<g id="a_Node000038"><a xlink:title=" ">
<polygon fill="#e0e0e0" stroke="#999999" points="1856.5,-305 1775.5,-305 1775.5,-286 1856.5,-286 1856.5,-305"/>
<text text-anchor="middle" x="1816" y="-293" font-family="Helvetica,sans-Serif" font-size="10.00">QtConcurrent</text>
</a>
</g>
</g>
<!-- Node1&#45;&gt;Node38 -->
<g id="edge70_Node000001_Node000038" class="edge">
<title>Node1&#45;&gt;Node38</title>
<g id="a_edge70_Node000001_Node000038"><a xlink:title=" ">
<path fill="none" stroke="#63b8ff" d="M1414.16,-346.86C1499.34,-338.12 1636.61,-323.2 1765.33,-305.02"/>
<polygon fill="#63b8ff" stroke="#63b8ff" points="1765.96,-308.47 1775.37,-303.59 1764.98,-301.54 1765.96,-308.47"/>
</a>
</g>
</g>
<!-- Node3 -->
<g id="Node000003" class="node">
<title>Node3</title>
<g id="a_Node000003"><a xlink:href="ComponentListItemData_8h.html" target="_top" xlink:title=" ">
<polygon fill="white" stroke="#666666" points="408,-250 256,-250 256,-220 408,-220 408,-250"/>
<text text-anchor="start" x="264" y="-238" font-family="Helvetica,sans-Serif" font-size="10.00">models/ComponentListItem</text>
<text text-anchor="middle" x="332" y="-227" font-family="Helvetica,sans-Serif" font-size="10.00">Data.h</text>
</a>
</g>
</g>
<!-- Node2&#45;&gt;Node3 -->
<g id="edge2_Node000002_Node000003" class="edge">
<title>Node2&#45;&gt;Node3</title>
<g id="a_edge2_Node000002_Node000003"><a xlink:title=" ">
<path fill="none" stroke="#63b8ff" d="M969.25,-288.21C835.11,-277.22 558.94,-254.59 418.34,-243.07"/>
<polygon fill="#63b8ff" stroke="#63b8ff" points="418.3,-239.56 408.04,-242.23 417.73,-246.54 418.3,-239.56"/>
</a>
</g>
</g>
<!-- Node18 -->
<g id="Node000018" class="node">
<title>Node18</title>
<g id="a_Node000018"><a xlink:href="ComponentService_8h.html" target="_top" xlink:title=" ">
<polygon fill="white" stroke="#666666" points="800.5,-244.5 639.5,-244.5 639.5,-225.5 800.5,-225.5 800.5,-244.5"/>
<text text-anchor="middle" x="720" y="-232.5" font-family="Helvetica,sans-Serif" font-size="10.00">services/ComponentService.h</text>
</a>
</g>
</g>
<!-- Node2&#45;&gt;Node18 -->
<g id="edge30_Node000002_Node000018" class="edge">
<title>Node2&#45;&gt;Node18</title>
<g id="a_edge30_Node000002_Node000018"><a xlink:title=" ">
<path fill="none" stroke="#63b8ff" d="M998.6,-285.99C940.05,-275.49 840.51,-257.62 777.61,-246.34"/>
<polygon fill="#63b8ff" stroke="#63b8ff" points="777.92,-242.84 767.46,-244.52 776.68,-249.73 777.92,-242.84"/>
</a>
</g>
</g>
<!-- Node24 -->
<g id="Node000024" class="node">
<title>Node24</title>
<g id="a_Node000024"><a xlink:title=" ">
<polygon fill="#e0e0e0" stroke="#999999" points="1231,-129 1161,-129 1161,-110 1231,-110 1231,-129"/>
<text text-anchor="middle" x="1196" y="-117" font-family="Helvetica,sans-Serif" font-size="10.00">QStringList</text>
</a>
</g>
</g>
<!-- Node2&#45;&gt;Node24 -->
<g id="edge55_Node000002_Node000024" class="edge">
<title>Node2&#45;&gt;Node24</title>
<g id="a_edge55_Node000002_Node000024"><a xlink:title=" ">
<path fill="none" stroke="#63b8ff" d="M1023.88,-285.95C1008.8,-278.82 989.99,-267.06 981,-250 974.78,-238.21 973.82,-231.23 981,-220 1001.37,-188.12 1103.48,-150.68 1159.34,-132.13"/>
<polygon fill="#63b8ff" stroke="#63b8ff" points="1160.47,-135.45 1168.87,-129 1158.28,-128.8 1160.47,-135.45"/>
</a>
</g>
</g>
<!-- Node27 -->
<g id="Node000027" class="node">
<title>Node27</title>
<g id="a_Node000027"><a xlink:title=" ">
<polygon fill="#e0e0e0" stroke="#999999" points="1102,-244.5 990,-244.5 990,-225.5 1102,-225.5 1102,-244.5"/>
<text text-anchor="middle" x="1046" y="-232.5" font-family="Helvetica,sans-Serif" font-size="10.00">QAbstractListModel</text>
</a>
</g>
</g>
<!-- Node2&#45;&gt;Node27 -->
<g id="edge52_Node000002_Node000027" class="edge">
<title>Node2&#45;&gt;Node27</title>
<g id="a_edge52_Node000002_Node000027"><a xlink:title=" ">
<path fill="none" stroke="#63b8ff" d="M1046,-285.87C1046,-277.75 1046,-265.31 1046,-254.89"/>
<polygon fill="#63b8ff" stroke="#63b8ff" points="1049.5,-254.67 1046,-244.67 1042.5,-254.67 1049.5,-254.67"/>
</a>
</g>
</g>
<!-- Node2&#45;&gt;Node28 -->
<g id="edge53_Node000002_Node000028" class="edge">
<title>Node2&#45;&gt;Node28</title>
<g id="a_edge53_Node000002_Node000028"><a xlink:title=" ">
<path fill="none" stroke="#63b8ff" d="M1061.35,-285.87C1078.32,-276.32 1105.9,-260.81 1125.79,-249.62"/>
<polygon fill="#63b8ff" stroke="#63b8ff" points="1127.59,-252.62 1134.59,-244.67 1124.16,-246.52 1127.59,-252.62"/>
</a>
</g>
</g>
<!-- Node2&#45;&gt;Node29 -->
<g id="edge54_Node000002_Node000029" class="edge">
<title>Node2&#45;&gt;Node29</title>
<g id="a_edge54_Node000002_Node000029"><a xlink:title=" ">
<path fill="none" stroke="#63b8ff" d="M1078.27,-285.93C1107.57,-277.81 1151.75,-264.69 1189,-250 1190.01,-249.6 1191.04,-249.18 1192.08,-248.74"/>
<polygon fill="#63b8ff" stroke="#63b8ff" points="1193.64,-251.88 1201.32,-244.57 1190.77,-245.5 1193.64,-251.88"/>
</a>
</g>
</g>
<!-- Node2&#45;&gt;Node30 -->
<g id="edge56_Node000002_Node000030" class="edge">
<title>Node2&#45;&gt;Node30</title>
<g id="a_edge56_Node000002_Node000030"><a xlink:title=" ">
<path fill="none" stroke="#63b8ff" d="M1094.46,-285.93C1135.51,-278.16 1195.7,-265.56 1247,-250 1248.93,-249.42 1250.89,-248.78 1252.87,-248.1"/>
<polygon fill="#63b8ff" stroke="#63b8ff" points="1254.43,-251.26 1262.63,-244.55 1252.04,-244.68 1254.43,-251.26"/>
</a>
</g>
</g>
<!-- Node4 -->
<g id="Node000004" class="node">
<title>Node4</title>
<g id="a_Node000004"><a xlink:href="ComponentData_8h.html" target="_top" xlink:title=" ">
<polygon fill="white" stroke="#666666" points="375.5,-184 270.5,-184 270.5,-165 375.5,-165 375.5,-184"/>
<text text-anchor="middle" x="323" y="-172" font-family="Helvetica,sans-Serif" font-size="10.00">ComponentData.h</text>
</a>
</g>
</g>
<!-- Node3&#45;&gt;Node4 -->
<g id="edge3_Node000003_Node000004" class="edge">
<title>Node3&#45;&gt;Node4</title>
<g id="a_edge3_Node000003_Node000004"><a xlink:title=" ">
<path fill="none" stroke="#63b8ff" d="M329.82,-219.84C328.63,-212.13 327.15,-202.49 325.87,-194.17"/>
<polygon fill="#63b8ff" stroke="#63b8ff" points="329.33,-193.62 324.35,-184.27 322.41,-194.68 329.33,-193.62"/>
</a>
</g>
</g>
<!-- Node9 -->
<g id="Node000009" class="node">
<title>Node9</title>
<g id="a_Node000009"><a xlink:title=" ">
<polygon fill="#e0e0e0" stroke="#999999" points="260.5,-19 207.5,-19 207.5,0 260.5,0 260.5,-19"/>
<text text-anchor="middle" x="234" y="-7" font-family="Helvetica,sans-Serif" font-size="10.00">QString</text>
</a>
</g>
</g>
<!-- Node3&#45;&gt;Node9 -->
<g id="edge29_Node000003_Node000009" class="edge">
<title>Node3&#45;&gt;Node9</title>
<g id="a_edge29_Node000003_Node000009"><a xlink:title=" ">
<path fill="none" stroke="#63b8ff" d="M261.06,-220C209.27,-209.05 146.79,-194.06 139,-184 130.26,-172.7 96.85,-127.2 144,-55 156.09,-36.48 178.31,-25.39 197.64,-18.91"/>
<polygon fill="#63b8ff" stroke="#63b8ff" points="198.87,-22.19 207.42,-15.93 196.83,-15.5 198.87,-22.19"/>
</a>
</g>
</g>
<!-- Node15 -->
<g id="Node000015" class="node">
<title>Node15</title>
<g id="a_Node000015"><a xlink:title=" ">
<polygon fill="#e0e0e0" stroke="#999999" points="92,-129 0,-129 0,-110 92,-110 92,-129"/>
<text text-anchor="middle" x="46" y="-117" font-family="Helvetica,sans-Serif" font-size="10.00">QSharedPointer</text>
</a>
</g>
</g>
<!-- Node3&#45;&gt;Node15 -->
<g id="edge28_Node000003_Node000015" class="edge">
<title>Node3&#45;&gt;Node15</title>
<g id="a_edge28_Node000003_Node000015"><a xlink:title=" ">
<path fill="none" stroke="#63b8ff" d="M258.48,-219.97C197.74,-208.01 119.39,-191.59 106,-184 85.68,-172.48 68.09,-151.83 57.3,-137.21"/>
<polygon fill="#63b8ff" stroke="#63b8ff" points="60.14,-135.16 51.5,-129.03 54.43,-139.21 60.14,-135.16"/>
</a>
</g>
</g>
<!-- Node16 -->
<g id="Node000016" class="node">
<title>Node16</title>
<g id="a_Node000016"><a xlink:title=" ">
<polygon fill="#e0e0e0" stroke="#999999" points="203.5,-184 148.5,-184 148.5,-165 203.5,-165 203.5,-184"/>
<text text-anchor="middle" x="176" y="-172" font-family="Helvetica,sans-Serif" font-size="10.00">QImage</text>
</a>
</g>
</g>
<!-- Node3&#45;&gt;Node16 -->
<g id="edge26_Node000003_Node000016" class="edge">
<title>Node3&#45;&gt;Node16</title>
<g id="a_edge26_Node000003_Node000016"><a xlink:title=" ">
<path fill="none" stroke="#63b8ff" d="M294.63,-219.99C268.37,-210.14 233.59,-197.1 208.48,-187.68"/>
<polygon fill="#63b8ff" stroke="#63b8ff" points="209.63,-184.37 199.04,-184.14 207.17,-190.93 209.63,-184.37"/>
</a>
</g>
</g>
<!-- Node17 -->
<g id="Node000017" class="node">
<title>Node17</title>
<g id="a_Node000017"><a xlink:title=" ">
<polygon fill="#e0e0e0" stroke="#999999" points="612,-129 556,-129 556,-110 612,-110 612,-129"/>
<text text-anchor="middle" x="584" y="-117" font-family="Helvetica,sans-Serif" font-size="10.00">QObject</text>
</a>
</g>
</g>
<!-- Node3&#45;&gt;Node17 -->
<g id="edge27_Node000003_Node000017" class="edge">
<title>Node3&#45;&gt;Node17</title>
<g id="a_edge27_Node000003_Node000017"><a xlink:title=" ">
<path fill="none" stroke="#63b8ff" d="M363.15,-219.97C412.45,-197.76 507.73,-154.85 555.39,-133.38"/>
<polygon fill="#63b8ff" stroke="#63b8ff" points="557.13,-136.44 564.81,-129.14 554.25,-130.06 557.13,-136.44"/>
</a>
</g>
</g>
<!-- Node5 -->
<g id="Node000005" class="node">
<title>Node5</title>
<g id="a_Node000005"><a xlink:href="FootprintData_8h.html" target="_top" xlink:title=" ">
<polygon fill="white" stroke="#666666" points="462,-129 370,-129 370,-110 462,-110 462,-129"/>
<text text-anchor="middle" x="416" y="-117" font-family="Helvetica,sans-Serif" font-size="10.00">FootprintData.h</text>
</a>
</g>
</g>
<!-- Node4&#45;&gt;Node5 -->
<g id="edge4_Node000004_Node000005" class="edge">
<title>Node4&#45;&gt;Node5</title>
<g id="a_edge4_Node000004_Node000005"><a xlink:title=" ">
<path fill="none" stroke="#63b8ff" d="M337.94,-164.98C352.5,-156.69 374.87,-143.94 391.93,-134.22"/>
<polygon fill="#63b8ff" stroke="#63b8ff" points="393.83,-137.16 400.79,-129.17 390.36,-131.08 393.83,-137.16"/>
</a>
</g>
</g>
<!-- Node6 -->
<g id="Node000006" class="node">
<title>Node6</title>
<g id="a_Node000006"><a xlink:href="Model3DData_8h.html" target="_top" xlink:title=" ">
<polygon fill="white" stroke="#666666" points="836,-74 744,-74 744,-55 836,-55 836,-74"/>
<text text-anchor="middle" x="790" y="-62" font-family="Helvetica,sans-Serif" font-size="10.00">Model3DData.h</text>
</a>
</g>
</g>
<!-- Node4&#45;&gt;Node6 -->
<g id="edge14_Node000004_Node000006" class="edge">
<title>Node4&#45;&gt;Node6</title>
<g id="a_edge14_Node000004_Node000006"><a xlink:title=" ">
<path fill="none" stroke="#63b8ff" d="M366.77,-164.99C403.81,-157.25 458.06,-144.66 504,-129 523.78,-122.26 527.03,-116.15 547,-110 581.05,-99.52 673.25,-83.9 733.78,-74.23"/>
<polygon fill="#63b8ff" stroke="#63b8ff" points="734.63,-77.64 743.95,-72.61 733.53,-70.72 734.63,-77.64"/>
</a>
</g>
</g>
<!-- Node8 -->
<g id="Node000008" class="node">
<title>Node8</title>
<g id="a_Node000008"><a xlink:title=" ">
<polygon fill="#e0e0e0" stroke="#999999" points="744,-19 668,-19 668,0 744,0 744,-19"/>
<text text-anchor="middle" x="706" y="-7" font-family="Helvetica,sans-Serif" font-size="10.00">QJsonObject</text>
</a>
</g>
</g>
<!-- Node4&#45;&gt;Node8 -->
<g id="edge23_Node000004_Node000008" class="edge">
<title>Node4&#45;&gt;Node8</title>
<g id="a_edge23_Node000004_Node000008"><a xlink:title=" ">
<path fill="none" stroke="#63b8ff" d="M359.71,-164.98C390.18,-157.31 434.29,-144.83 471,-129 486.54,-122.3 488.4,-116.56 504,-110 558.47,-87.08 579.9,-101.9 632,-74 654.95,-61.71 677.04,-41.26 691.01,-26.9"/>
<polygon fill="#63b8ff" stroke="#63b8ff" points="693.92,-28.92 698.25,-19.25 688.83,-24.11 693.92,-28.92"/>
</a>
</g>
</g>
<!-- Node4&#45;&gt;Node9 -->
<g id="edge25_Node000004_Node000009" class="edge">
<title>Node4&#45;&gt;Node9</title>
<g id="a_edge25_Node000004_Node000009"><a xlink:title=" ">
<path fill="none" stroke="#63b8ff" d="M297.99,-164.98C281.36,-157.98 260.54,-146.35 249,-129 228.87,-98.74 229.27,-54.38 231.53,-29.4"/>
<polygon fill="#63b8ff" stroke="#63b8ff" points="235.04,-29.45 232.66,-19.13 228.09,-28.68 235.04,-29.45"/>
</a>
</g>
</g>
<!-- Node10 -->
<g id="Node000010" class="node">
<title>Node10</title>
<g id="a_Node000010"><a xlink:title=" ">
<polygon fill="#e0e0e0" stroke="#999999" points="441.5,-74 370.5,-74 370.5,-55 441.5,-55 441.5,-74"/>
<text text-anchor="middle" x="406" y="-62" font-family="Helvetica,sans-Serif" font-size="10.00">QJsonArray</text>
</a>
</g>
</g>
<!-- Node4&#45;&gt;Node10 -->
<g id="edge22_Node000004_Node000010" class="edge">
<title>Node4&#45;&gt;Node10</title>
<g id="a_edge22_Node000004_Node000010"><a xlink:title=" ">
<path fill="none" stroke="#63b8ff" d="M301.94,-164.96C276.9,-153.55 240.47,-132.19 257,-110 269.47,-93.26 321.27,-80.5 360.32,-73.03"/>
<polygon fill="#63b8ff" stroke="#63b8ff" points="361.25,-76.41 370.44,-71.15 359.97,-69.53 361.25,-76.41"/>
</a>
</g>
</g>
<!-- Node13 -->
<g id="Node000013" class="node">
<title>Node13</title>
<g id="a_Node000013"><a xlink:href="SymbolData_8h.html" target="_top" xlink:title=" ">
<polygon fill="white" stroke="#666666" points="352,-129 266,-129 266,-110 352,-110 352,-129"/>
<text text-anchor="middle" x="309" y="-117" font-family="Helvetica,sans-Serif" font-size="10.00">SymbolData.h</text>
</a>
</g>
</g>
<!-- Node4&#45;&gt;Node13 -->
<g id="edge15_Node000004_Node000013" class="edge">
<title>Node4&#45;&gt;Node13</title>
<g id="a_edge15_Node000004_Node000013"><a xlink:title=" ">
<path fill="none" stroke="#63b8ff" d="M320.69,-164.75C318.83,-157.72 316.16,-147.62 313.85,-138.84"/>
<polygon fill="#63b8ff" stroke="#63b8ff" points="317.21,-137.86 311.27,-129.09 310.44,-139.65 317.21,-137.86"/>
</a>
</g>
</g>
<!-- Node4&#45;&gt;Node15 -->
<g id="edge24_Node000004_Node000015" class="edge">
<title>Node4&#45;&gt;Node15</title>
<g id="a_edge24_Node000004_Node000015"><a xlink:title=" ">
<path fill="none" stroke="#63b8ff" d="M278.5,-164.98C230.18,-155.74 152.96,-140.97 100.91,-131.01"/>
<polygon fill="#63b8ff" stroke="#63b8ff" points="101.33,-127.52 90.85,-129.08 100.02,-134.4 101.33,-127.52"/>
</a>
</g>
</g>
<!-- Node5&#45;&gt;Node6 -->
<g id="edge5_Node000005_Node000006" class="edge">
<title>Node5&#45;&gt;Node6</title>
<g id="a_edge5_Node000005_Node000006"><a xlink:title=" ">
<path fill="none" stroke="#63b8ff" d="M462.23,-111.95C530.93,-102.21 659.76,-83.96 733.8,-73.46"/>
<polygon fill="#63b8ff" stroke="#63b8ff" points="734.46,-76.91 743.87,-72.04 733.48,-69.97 734.46,-76.91"/>
</a>
</g>
</g>
<!-- Node5&#45;&gt;Node8 -->
<g id="edge10_Node000005_Node000008" class="edge">
<title>Node5&#45;&gt;Node8</title>
<g id="a_edge10_Node000005_Node000008"><a xlink:title=" ">
<path fill="none" stroke="#63b8ff" d="M462.3,-111.18C500.03,-104.29 554.19,-92.27 599,-74 631.06,-60.93 664.92,-39.33 685.76,-25.01"/>
<polygon fill="#63b8ff" stroke="#63b8ff" points="687.91,-27.78 694.1,-19.18 683.9,-22.04 687.91,-27.78"/>
</a>
</g>
</g>
<!-- Node5&#45;&gt;Node9 -->
<g id="edge13_Node000005_Node000009" class="edge">
<title>Node5&#45;&gt;Node9</title>
<g id="a_edge13_Node000005_Node000009"><a xlink:title=" ">
<path fill="none" stroke="#63b8ff" d="M458.24,-109.95C504.85,-100.1 574.35,-83.97 582,-74 587.14,-67.3 587.58,-61.34 582,-55 561.62,-31.85 355.63,-17.47 270.51,-12.48"/>
<polygon fill="#63b8ff" stroke="#63b8ff" points="270.7,-8.99 260.51,-11.91 270.29,-15.98 270.7,-8.99"/>
</a>
</g>
</g>
<!-- Node5&#45;&gt;Node10 -->
<g id="edge9_Node000005_Node000010" class="edge">
<title>Node5&#45;&gt;Node10</title>
<g id="a_edge9_Node000005_Node000010"><a xlink:title=" ">
<path fill="none" stroke="#63b8ff" d="M414.35,-109.75C413.04,-102.8 411.16,-92.85 409.52,-84.13"/>
<polygon fill="#63b8ff" stroke="#63b8ff" points="412.91,-83.27 407.62,-74.09 406.04,-84.56 412.91,-83.27"/>
</a>
</g>
</g>
<!-- Node11 -->
<g id="Node000011" class="node">
<title>Node11</title>
<g id="a_Node000011"><a xlink:title=" ">
<polygon fill="#e0e0e0" stroke="#999999" points="500.5,-74 459.5,-74 459.5,-55 500.5,-55 500.5,-74"/>
<text text-anchor="middle" x="480" y="-62" font-family="Helvetica,sans-Serif" font-size="10.00">QList</text>
</a>
</g>
</g>
<!-- Node5&#45;&gt;Node11 -->
<g id="edge11_Node000005_Node000011" class="edge">
<title>Node5&#45;&gt;Node11</title>
<g id="a_edge11_Node000005_Node000011"><a xlink:title=" ">
<path fill="none" stroke="#63b8ff" d="M426.28,-109.98C435.84,-102.07 450.28,-90.11 461.78,-80.58"/>
<polygon fill="#63b8ff" stroke="#63b8ff" points="464.06,-83.24 469.53,-74.17 459.6,-77.85 464.06,-83.24"/>
</a>
</g>
</g>
<!-- Node12 -->
<g id="Node000012" class="node">
<title>Node12</title>
<g id="a_Node000012"><a xlink:title=" ">
<polygon fill="#e0e0e0" stroke="#999999" points="573.5,-74 518.5,-74 518.5,-55 573.5,-55 573.5,-74"/>
<text text-anchor="middle" x="546" y="-62" font-family="Helvetica,sans-Serif" font-size="10.00">QPointF</text>
</a>
</g>
</g>
<!-- Node5&#45;&gt;Node12 -->
<g id="edge12_Node000005_Node000012" class="edge">
<title>Node5&#45;&gt;Node12</title>
<g id="a_edge12_Node000005_Node000012"><a xlink:title=" ">
<path fill="none" stroke="#63b8ff" d="M436.89,-109.98C458.08,-101.34 491.13,-87.87 515.3,-78.02"/>
<polygon fill="#63b8ff" stroke="#63b8ff" points="516.79,-81.19 524.73,-74.17 514.15,-74.7 516.79,-81.19"/>
</a>
</g>
</g>
<!-- Node7 -->
<g id="Node000007" class="node">
<title>Node7</title>
<g id="a_Node000007"><a xlink:title=" ">
<polygon fill="#e0e0e0" stroke="#999999" points="835.5,-19 762.5,-19 762.5,0 835.5,0 835.5,-19"/>
<text text-anchor="middle" x="799" y="-7" font-family="Helvetica,sans-Serif" font-size="10.00">QByteArray</text>
</a>
</g>
</g>
<!-- Node6&#45;&gt;Node7 -->
<g id="edge6_Node000006_Node000007" class="edge">
<title>Node6&#45;&gt;Node7</title>
<g id="a_edge6_Node000006_Node000007"><a xlink:title=" ">
<path fill="none" stroke="#63b8ff" d="M791.49,-54.75C792.67,-47.8 794.36,-37.85 795.84,-29.13"/>
<polygon fill="#63b8ff" stroke="#63b8ff" points="799.32,-29.53 797.54,-19.09 792.42,-28.36 799.32,-29.53"/>
</a>
</g>
</g>
<!-- Node6&#45;&gt;Node8 -->
<g id="edge7_Node000006_Node000008" class="edge">
<title>Node6&#45;&gt;Node8</title>
<g id="a_edge7_Node000006_Node000008"><a xlink:title=" ">
<path fill="none" stroke="#63b8ff" d="M776.5,-54.98C763.6,-46.84 743.9,-34.41 728.6,-24.76"/>
<polygon fill="#63b8ff" stroke="#63b8ff" points="730.07,-21.55 719.74,-19.17 726.33,-27.47 730.07,-21.55"/>
</a>
</g>
</g>
<!-- Node6&#45;&gt;Node9 -->
<g id="edge8_Node000006_Node000009" class="edge">
<title>Node6&#45;&gt;Node9</title>
<g id="a_edge8_Node000006_Node000009"><a xlink:title=" ">
<path fill="none" stroke="#63b8ff" d="M743.55,-59.07C635.4,-48.76 368.52,-23.32 270.7,-14"/>
<polygon fill="#63b8ff" stroke="#63b8ff" points="270.98,-10.51 260.69,-13.04 270.32,-17.48 270.98,-10.51"/>
</a>
</g>
</g>
<!-- Node13&#45;&gt;Node8 -->
<g id="edge17_Node000013_Node000008" class="edge">
<title>Node13&#45;&gt;Node8</title>
<g id="a_edge17_Node000013_Node000008"><a xlink:title=" ">
<path fill="none" stroke="#63b8ff" d="M313.34,-109.74C320.88,-95.55 337.82,-67.86 361,-55 410.89,-27.33 575.03,-16.26 657.63,-12.37"/>
<polygon fill="#63b8ff" stroke="#63b8ff" points="657.93,-15.85 667.76,-11.9 657.61,-8.86 657.93,-15.85"/>
</a>
</g>
</g>
<!-- Node13&#45;&gt;Node9 -->
<g id="edge21_Node000013_Node000009" class="edge">
<title>Node13&#45;&gt;Node9</title>
<g id="a_edge21_Node000013_Node000009"><a xlink:title=" ">
<path fill="none" stroke="#63b8ff" d="M293.52,-109.86C280.87,-102.05 263.44,-89.43 253,-74 243.83,-60.45 238.98,-42.36 236.49,-28.96"/>
<polygon fill="#63b8ff" stroke="#63b8ff" points="239.93,-28.33 234.9,-19 233.02,-29.43 239.93,-28.33"/>
</a>
</g>
</g>
<!-- Node13&#45;&gt;Node10 -->
<g id="edge16_Node000013_Node000010" class="edge">
<title>Node13&#45;&gt;Node10</title>
<g id="a_edge16_Node000013_Node000010"><a xlink:title=" ">
<path fill="none" stroke="#63b8ff" d="M324.58,-109.98C339.77,-101.69 363.1,-88.94 380.9,-79.22"/>
<polygon fill="#63b8ff" stroke="#63b8ff" points="383.03,-82.04 390.13,-74.17 379.68,-75.89 383.03,-82.04"/>
</a>
</g>
</g>
<!-- Node13&#45;&gt;Node11 -->
<g id="edge18_Node000013_Node000011" class="edge">
<title>Node13&#45;&gt;Node11</title>
<g id="a_edge18_Node000013_Node000011"><a xlink:title=" ">
<path fill="none" stroke="#63b8ff" d="M336.47,-109.98C367.4,-100.4 417.5,-84.87 449.58,-74.93"/>
<polygon fill="#63b8ff" stroke="#63b8ff" points="450.8,-78.21 459.32,-71.91 448.73,-71.53 450.8,-78.21"/>
</a>
</g>
</g>
<!-- Node13&#45;&gt;Node12 -->
<g id="edge19_Node000013_Node000012" class="edge">
<title>Node13&#45;&gt;Node12</title>
<g id="a_edge19_Node000013_Node000012"><a xlink:title=" ">
<path fill="none" stroke="#63b8ff" d="M347.73,-109.96C385.99,-101.52 446.44,-88.12 508.2,-74.17"/>
<polygon fill="#63b8ff" stroke="#63b8ff" points="509.14,-77.54 518.12,-71.93 507.6,-70.72 509.14,-77.54"/>
</a>
</g>
</g>
<!-- Node14 -->
<g id="Node000014" class="node">
<title>Node14</title>
<g id="a_Node000014"><a xlink:title=" ">
<polygon fill="#e0e0e0" stroke="#999999" points="314,-74 262,-74 262,-55 314,-55 314,-74"/>
<text text-anchor="middle" x="288" y="-62" font-family="Helvetica,sans-Serif" font-size="10.00">QRectF</text>
</a>
</g>
</g>
<!-- Node13&#45;&gt;Node14 -->
<g id="edge20_Node000013_Node000014" class="edge">
<title>Node13&#45;&gt;Node14</title>
<g id="a_edge20_Node000013_Node000014"><a xlink:title=" ">
<path fill="none" stroke="#63b8ff" d="M305.53,-109.75C302.72,-102.65 298.66,-92.4 295.15,-83.56"/>
<polygon fill="#63b8ff" stroke="#63b8ff" points="298.34,-82.1 291.4,-74.09 291.83,-84.68 298.34,-82.1"/>
</a>
</g>
</g>
<!-- Node18&#45;&gt;Node4 -->
<g id="edge40_Node000018_Node000004" class="edge">
<title>Node18&#45;&gt;Node4</title>
<g id="a_edge40_Node000018_Node000004"><a xlink:title=" ">
<path fill="none" stroke="#63b8ff" d="M662.27,-225.49C588.59,-214.64 461.6,-195.92 385.64,-184.73"/>
<polygon fill="#63b8ff" stroke="#63b8ff" points="386.13,-181.26 375.72,-183.27 385.1,-188.19 386.13,-181.26"/>
</a>
</g>
</g>
<!-- Node18&#45;&gt;Node5 -->
<g id="edge41_Node000018_Node000005" class="edge">
<title>Node18&#45;&gt;Node5</title>
<g id="a_edge41_Node000018_Node000005"><a xlink:title=" ">
<path fill="none" stroke="#63b8ff" d="M698.17,-225.46C664.36,-212.27 597.26,-186.25 540,-165 509.66,-153.74 474.97,-141.33 450.02,-132.49"/>
<polygon fill="#63b8ff" stroke="#63b8ff" points="450.89,-129.08 440.29,-129.04 448.55,-135.68 450.89,-129.08"/>
</a>
</g>
</g>
<!-- Node18&#45;&gt;Node6 -->
<g id="edge42_Node000018_Node000006" class="edge">
<title>Node18&#45;&gt;Node6</title>
<g id="a_edge42_Node000018_Node000006"><a xlink:title=" ">
<path fill="none" stroke="#63b8ff" d="M800.55,-229.79C932.46,-221.02 1185.39,-195.73 1240,-129 1245.35,-122.46 1245.67,-116.26 1240,-110 1214,-81.3 960.8,-70.41 846.04,-66.92"/>
<polygon fill="#63b8ff" stroke="#63b8ff" points="846.13,-63.42 836.03,-66.62 845.93,-70.42 846.13,-63.42"/>
</a>
</g>
</g>
<!-- Node18&#45;&gt;Node8 -->
<g id="edge45_Node000018_Node000008" class="edge">
<title>Node18&#45;&gt;Node8</title>
<g id="a_edge45_Node000018_Node000008"><a xlink:title=" ">
<path fill="none" stroke="#63b8ff" d="M800.76,-229.52C911.63,-222.6 1104.77,-207.6 1171,-184 1218.18,-167.18 1288.11,-148.44 1256,-110 1256,-110 888.37,-43.49 754.24,-19.23"/>
<polygon fill="#63b8ff" stroke="#63b8ff" points="754.7,-15.75 744.24,-17.42 753.46,-22.64 754.7,-15.75"/>
</a>
</g>
</g>
<!-- Node18&#45;&gt;Node9 -->
<g id="edge50_Node000018_Node000009" class="edge">
<title>Node18&#45;&gt;Node9</title>
<g id="a_edge50_Node000018_Node000009"><a xlink:title=" ">
<path fill="none" stroke="#63b8ff" d="M639.34,-229.53C515.84,-222.05 290.93,-205.66 261,-184 212.65,-149.02 222.46,-66.09 229.75,-28.99"/>
<polygon fill="#63b8ff" stroke="#63b8ff" points="233.21,-29.57 231.86,-19.06 226.36,-28.11 233.21,-29.57"/>
</a>
</g>
</g>
<!-- Node18&#45;&gt;Node13 -->
<g id="edge43_Node000018_Node000013" class="edge">
<title>Node18&#45;&gt;Node13</title>
<g id="a_edge43_Node000018_Node000013"><a xlink:title=" ">
<path fill="none" stroke="#63b8ff" d="M689.11,-225.47C615.9,-205.25 431.86,-154.43 349.7,-131.74"/>
<polygon fill="#63b8ff" stroke="#63b8ff" points="350.54,-128.34 339.97,-129.05 348.68,-135.09 350.54,-128.34"/>
</a>
</g>
</g>
<!-- Node18&#45;&gt;Node16 -->
<g id="edge44_Node000018_Node000016" class="edge">
<title>Node18&#45;&gt;Node16</title>
<g id="a_edge44_Node000018_Node000016"><a xlink:title=" ">
<path fill="none" stroke="#63b8ff" d="M639.27,-228.47C539.82,-221.08 365.88,-206.27 218,-184 216.72,-183.81 215.41,-183.6 214.1,-183.38"/>
<polygon fill="#63b8ff" stroke="#63b8ff" points="214.41,-179.88 203.94,-181.56 213.17,-186.77 214.41,-179.88"/>
</a>
</g>
</g>
<!-- Node18&#45;&gt;Node17 -->
<g id="edge47_Node000018_Node000017" class="edge">
<title>Node18&#45;&gt;Node17</title>
<g id="a_edge47_Node000018_Node000017"><a xlink:title=" ">
<path fill="none" stroke="#63b8ff" d="M713.62,-225.15C703.26,-211.19 681.67,-183.75 659,-165 644.36,-152.89 626.05,-141.96 611.18,-133.96"/>
<polygon fill="#63b8ff" stroke="#63b8ff" points="612.47,-130.68 601.99,-129.14 609.22,-136.88 612.47,-130.68"/>
</a>
</g>
</g>
<!-- Node19 -->
<g id="Node000019" class="node">
<title>Node19</title>
<g id="a_Node000019"><a xlink:href="LcscImageService_8h.html" target="_top" xlink:title=" ">
<polygon fill="white" stroke="#666666" points="819.5,-184 706.5,-184 706.5,-165 819.5,-165 819.5,-184"/>
<text text-anchor="middle" x="763" y="-172" font-family="Helvetica,sans-Serif" font-size="10.00">LcscImageService.h</text>
</a>
</g>
</g>
<!-- Node18&#45;&gt;Node19 -->
<g id="edge31_Node000018_Node000019" class="edge">
<title>Node18&#45;&gt;Node19</title>
<g id="a_edge31_Node000018_Node000019"><a xlink:title=" ">
<path fill="none" stroke="#63b8ff" d="M726.34,-225.37C732.7,-216.73 742.64,-203.2 750.57,-192.42"/>
<polygon fill="#63b8ff" stroke="#63b8ff" points="753.53,-194.3 756.63,-184.17 747.89,-190.15 753.53,-194.3"/>
</a>
</g>
</g>
<!-- Node20 -->
<g id="Node000020" class="node">
<title>Node20</title>
<g id="a_Node000020"><a xlink:title=" ">
<polygon fill="#e0e0e0" stroke="#999999" points="1142.5,-129 1097.5,-129 1097.5,-110 1142.5,-110 1142.5,-129"/>
<text text-anchor="middle" x="1120" y="-117" font-family="Helvetica,sans-Serif" font-size="10.00">QMap</text>
</a>
</g>
</g>
<!-- Node18&#45;&gt;Node20 -->
<g id="edge46_Node000018_Node000020" class="edge">
<title>Node18&#45;&gt;Node20</title>
<g id="a_edge46_Node000018_Node000020"><a xlink:title=" ">
<path fill="none" stroke="#63b8ff" d="M746.87,-225.49C776.33,-216 824.89,-199.89 866,-184 885.87,-176.32 889.67,-171.37 910,-165 984.01,-141.81 1007.57,-146.91 1087.31,-129.01"/>
<polygon fill="#63b8ff" stroke="#63b8ff" points="1088.35,-132.36 1097.32,-126.71 1086.79,-125.53 1088.35,-132.36"/>
</a>
</g>
</g>
<!-- Node23 -->
<g id="Node000023" class="node">
<title>Node23</title>
<g id="a_Node000023"><a xlink:title=" ">
<polygon fill="#e0e0e0" stroke="#999999" points="1079,-129 1023,-129 1023,-110 1079,-110 1079,-129"/>
<text text-anchor="middle" x="1051" y="-117" font-family="Helvetica,sans-Serif" font-size="10.00">QQueue</text>
</a>
</g>
</g>
<!-- Node18&#45;&gt;Node23 -->
<g id="edge49_Node000018_Node000023" class="edge">
<title>Node18&#45;&gt;Node23</title>
<g id="a_edge49_Node000018_Node000023"><a xlink:title=" ">
<path fill="none" stroke="#63b8ff" d="M738.35,-225.44C775.78,-208.02 858.52,-169.69 872,-165 885.27,-160.38 964.48,-141.18 1012.98,-129.56"/>
<polygon fill="#63b8ff" stroke="#63b8ff" points="1013.92,-132.94 1022.83,-127.2 1012.29,-126.13 1013.92,-132.94"/>
</a>
</g>
</g>
<!-- Node18&#45;&gt;Node24 -->
<g id="edge51_Node000018_Node000024" class="edge">
<title>Node18&#45;&gt;Node24</title>
<g id="a_edge51_Node000018_Node000024"><a xlink:title=" ">
<path fill="none" stroke="#63b8ff" d="M756.31,-225.43C793.34,-216.37 852.24,-201.04 902,-184 922.93,-176.83 926.76,-171.19 948,-165 1032.96,-140.24 1059.09,-145.12 1150.66,-129.01"/>
<polygon fill="#63b8ff" stroke="#63b8ff" points="1151.41,-132.43 1160.63,-127.22 1150.17,-125.54 1151.41,-132.43"/>
</a>
</g>
</g>
<!-- Node26 -->
<g id="Node000026" class="node">
<title>Node26</title>
<g id="a_Node000026"><a xlink:title=" ">
<polygon fill="#e0e0e0" stroke="#999999" points="650,-184 608,-184 608,-165 650,-165 650,-184"/>
<text text-anchor="middle" x="629" y="-172" font-family="Helvetica,sans-Serif" font-size="10.00">QPair</text>
</a>
</g>
</g>
<!-- Node18&#45;&gt;Node26 -->
<g id="edge48_Node000018_Node000026" class="edge">
<title>Node18&#45;&gt;Node26</title>
<g id="a_edge48_Node000018_Node000026"><a xlink:title=" ">
<path fill="none" stroke="#63b8ff" d="M706.57,-225.37C691.92,-215.95 668.24,-200.73 650.9,-189.58"/>
<polygon fill="#63b8ff" stroke="#63b8ff" points="652.79,-186.63 642.48,-184.17 649,-192.52 652.79,-186.63"/>
</a>
</g>
</g>
<!-- Node19&#45;&gt;Node9 -->
<g id="edge37_Node000019_Node000009" class="edge">
<title>Node19&#45;&gt;Node9</title>
<g id="a_edge37_Node000019_Node000009"><a xlink:title=" ">
<path fill="none" stroke="#63b8ff" d="M732.74,-164.89C710.82,-157.66 681.25,-145.81 659,-129 625.21,-103.48 636.05,-75.5 599,-55 543.21,-24.13 352.2,-14.34 271.01,-11.53"/>
<polygon fill="#63b8ff" stroke="#63b8ff" points="270.86,-8.02 260.75,-11.19 270.63,-15.02 270.86,-8.02"/>
</a>
</g>
</g>
<!-- Node19&#45;&gt;Node17 -->
<g id="edge35_Node000019_Node000017" class="edge">
<title>Node19&#45;&gt;Node17</title>
<g id="a_edge35_Node000019_Node000017"><a xlink:title=" ">
<path fill="none" stroke="#63b8ff" d="M734.24,-164.98C703.79,-155.97 655.58,-141.69 622.01,-131.75"/>
<polygon fill="#63b8ff" stroke="#63b8ff" points="622.68,-128.3 612.1,-128.82 620.69,-135.01 622.68,-128.3"/>
</a>
</g>
</g>
<!-- Node19&#45;&gt;Node20 -->
<g id="edge32_Node000019_Node000020" class="edge">
<title>Node19&#45;&gt;Node20</title>
<g id="a_edge32_Node000019_Node000020"><a xlink:title=" ">
<path fill="none" stroke="#63b8ff" d="M819.72,-167.88C882.76,-161.16 987.71,-148.54 1087.41,-128.87"/>
<polygon fill="#63b8ff" stroke="#63b8ff" points="1088.24,-132.28 1097.36,-126.89 1086.86,-125.41 1088.24,-132.28"/>
</a>
</g>
</g>
<!-- Node21 -->
<g id="Node000021" class="node">
<title>Node21</title>
<g id="a_Node000021"><a xlink:title=" ">
<polygon fill="#e0e0e0" stroke="#999999" points="1005,-129 863,-129 863,-110 1005,-110 1005,-129"/>
<text text-anchor="middle" x="934" y="-117" font-family="Helvetica,sans-Serif" font-size="10.00">QNetworkAccessManager</text>
</a>
</g>
</g>
<!-- Node19&#45;&gt;Node21 -->
<g id="edge33_Node000019_Node000021" class="edge">
<title>Node19&#45;&gt;Node21</title>
<g id="a_edge33_Node000019_Node000021"><a xlink:title=" ">
<path fill="none" stroke="#63b8ff" d="M790.47,-164.98C819.18,-156.09 864.42,-142.07 896.42,-132.15"/>
<polygon fill="#63b8ff" stroke="#63b8ff" points="897.8,-135.39 906.31,-129.08 895.72,-128.7 897.8,-135.39"/>
</a>
</g>
</g>
<!-- Node22 -->
<g id="Node000022" class="node">
<title>Node22</title>
<g id="a_Node000022"><a xlink:title=" ">
<polygon fill="#e0e0e0" stroke="#999999" points="761.5,-129 668.5,-129 668.5,-110 761.5,-110 761.5,-129"/>
<text text-anchor="middle" x="715" y="-117" font-family="Helvetica,sans-Serif" font-size="10.00">QNetworkReply</text>
</a>
</g>
</g>
<!-- Node19&#45;&gt;Node22 -->
<g id="edge34_Node000019_Node000022" class="edge">
<title>Node19&#45;&gt;Node22</title>
<g id="a_edge34_Node000019_Node000022"><a xlink:title=" ">
<path fill="none" stroke="#63b8ff" d="M755.07,-164.75C748.15,-157.11 737.93,-145.82 729.55,-136.56"/>
<polygon fill="#63b8ff" stroke="#63b8ff" points="732.09,-134.15 722.78,-129.09 726.9,-138.85 732.09,-134.15"/>
</a>
</g>
</g>
<!-- Node19&#45;&gt;Node23 -->
<g id="edge36_Node000019_Node000023" class="edge">
<title>Node19&#45;&gt;Node23</title>
<g id="a_edge36_Node000019_Node000023"><a xlink:title=" ">
<path fill="none" stroke="#63b8ff" d="M815.55,-164.98C864.24,-156.9 938.94,-144.05 1012.81,-129.16"/>
<polygon fill="#63b8ff" stroke="#63b8ff" points="1013.65,-132.56 1022.75,-127.14 1012.25,-125.7 1013.65,-132.56"/>
</a>
</g>
</g>
<!-- Node19&#45;&gt;Node24 -->
<g id="edge38_Node000019_Node000024" class="edge">
<title>Node19&#45;&gt;Node24</title>
<g id="a_edge38_Node000019_Node000024"><a xlink:title=" ">
<path fill="none" stroke="#63b8ff" d="M819.72,-168.3C893.45,-161.24 1026.44,-147.53 1150.6,-128.94"/>
<polygon fill="#63b8ff" stroke="#63b8ff" points="1151.3,-132.38 1160.67,-127.42 1150.26,-125.46 1151.3,-132.38"/>
</a>
</g>
</g>
<!-- Node25 -->
<g id="Node000025" class="node">
<title>Node25</title>
<g id="a_Node000025"><a xlink:title=" ">
<polygon fill="#e0e0e0" stroke="#999999" points="844.5,-129 779.5,-129 779.5,-110 844.5,-110 844.5,-129"/>
<text text-anchor="middle" x="812" y="-117" font-family="Helvetica,sans-Serif" font-size="10.00">functional</text>
</a>
</g>
</g>
<!-- Node19&#45;&gt;Node25 -->
<g id="edge39_Node000019_Node000025" class="edge">
<title>Node19&#45;&gt;Node25</title>
<g id="a_edge39_Node000019_Node000025"><a xlink:title=" ">
<path fill="none" stroke="#63b8ff" d="M771.09,-164.75C778.16,-157.11 788.59,-145.82 797.15,-136.56"/>
<polygon fill="#63b8ff" stroke="#63b8ff" points="799.84,-138.81 804.06,-129.09 794.7,-134.06 799.84,-138.81"/>
</a>
</g>
</g>
<!-- Node31&#45;&gt;Node4 -->
<g id="edge58_Node000031_Node000004" class="edge">
<title>Node31&#45;&gt;Node4</title>
<g id="a_edge58_Node000031_Node000004"><a xlink:title=" ">
<path fill="none" stroke="#63b8ff" d="M181.14,-225.49C209.54,-215.49 256.88,-198.8 288.99,-187.49"/>
<polygon fill="#63b8ff" stroke="#63b8ff" points="290.56,-190.64 298.83,-184.02 288.24,-184.04 290.56,-190.64"/>
</a>
</g>
</g>
<!-- Node31&#45;&gt;Node15 -->
<g id="edge60_Node000031_Node000015" class="edge">
<title>Node31&#45;&gt;Node15</title>
<g id="a_edge60_Node000031_Node000015"><a xlink:title=" ">
<path fill="none" stroke="#63b8ff" d="M131.42,-225.4C111.57,-217.51 84.71,-203.99 68,-184 57.36,-171.27 51.75,-153.09 48.87,-139.45"/>
<polygon fill="#63b8ff" stroke="#63b8ff" points="52.25,-138.49 47.04,-129.27 45.36,-139.73 52.25,-138.49"/>
</a>
</g>
</g>
<!-- Node31&#45;&gt;Node16 -->
<g id="edge59_Node000031_Node000016" class="edge">
<title>Node31&#45;&gt;Node16</title>
<g id="a_edge59_Node000031_Node000016"><a xlink:title=" ">
<path fill="none" stroke="#63b8ff" d="M159.8,-225.37C162.5,-217.07 166.65,-204.28 170.08,-193.72"/>
<polygon fill="#63b8ff" stroke="#63b8ff" points="173.42,-194.76 173.18,-184.17 166.77,-192.6 173.42,-194.76"/>
</a>
</g>
</g>
</g>
</svg>
