<?xml version="1.0" encoding="UTF-8" standalone="no"?>
<!DOCTYPE svg PUBLIC "-//W3C//DTD SVG 1.1//EN"
 "http://www.w3.org/Graphics/SVG/1.1/DTD/svg11.dtd">
<!-- Generated by graphviz version 2.43.0 (0)
 -->
<!-- Title: services/ComponentService.h Pages: 1 -->
<svg width="528pt" height="225pt"
 viewBox="0.00 0.00 527.50 225.00" xmlns="http://www.w3.org/2000/svg" xmlns:xlink="http://www.w3.org/1999/xlink">
<g id="graph0" class="graph" transform="scale(1 1) rotate(0) translate(4 221)">
<title>services/ComponentService.h</title>
<!-- Node1 -->
<g id="Node000001" class="node">
<title>Node1</title>
<g id="a_Node000001"><a xlink:title=" ">
<polygon fill="#999999" stroke="#666666" points="354,-217 193,-217 193,-198 354,-198 354,-217"/>
<text text-anchor="middle" x="273.5" y="-205" font-family="Helvetica,sans-Serif" font-size="10.00">services/ComponentService.h</text>
</a>
</g>
</g>
<!-- Node2 -->
<g id="Node000002" class="node">
<title>Node2</title>
<g id="a_Node000002"><a xlink:href="ComponentService_8cpp.html" target="_top" xlink:title=" ">
<polygon fill="white" stroke="#666666" points="173,-156.5 0,-156.5 0,-137.5 173,-137.5 173,-156.5"/>
<text text-anchor="middle" x="86.5" y="-144.5" font-family="Helvetica,sans-Serif" font-size="10.00">services/ComponentService.cpp</text>
</a>
</g>
</g>
<!-- Node1&#45;&gt;Node2 -->
<g id="edge1_Node000001_Node000002" class="edge">
<title>Node1&#45;&gt;Node2</title>
<g id="a_edge1_Node000001_Node000002"><a xlink:title=" ">
<path fill="none" stroke="#63b8ff" d="M236.62,-194.96C200.45,-183.65 146.15,-166.66 113.72,-156.52"/>
<polygon fill="#63b8ff" stroke="#63b8ff" points="235.72,-198.35 246.31,-197.99 237.81,-191.67 235.72,-198.35"/>
</a>
</g>
</g>
<!-- Node3 -->
<g id="Node000003" class="node">
<title>Node3</title>
<g id="a_Node000003"><a xlink:href="ComponentListViewModel_8h.html" target="_top" xlink:title=" ">
<polygon fill="white" stroke="#666666" points="355.5,-162 191.5,-162 191.5,-132 355.5,-132 355.5,-162"/>
<text text-anchor="start" x="199.5" y="-150" font-family="Helvetica,sans-Serif" font-size="10.00">ui/viewmodels/ComponentList</text>
<text text-anchor="middle" x="273.5" y="-139" font-family="Helvetica,sans-Serif" font-size="10.00">ViewModel.h</text>
</a>
</g>
</g>
<!-- Node1&#45;&gt;Node3 -->
<g id="edge2_Node000001_Node000003" class="edge">
<title>Node1&#45;&gt;Node3</title>
<g id="a_edge2_Node000001_Node000003"><a xlink:title=" ">
<path fill="none" stroke="#63b8ff" d="M273.5,-187.65C273.5,-179.36 273.5,-169.78 273.5,-162.11"/>
<polygon fill="#63b8ff" stroke="#63b8ff" points="270,-187.87 273.5,-197.87 277,-187.87 270,-187.87"/>
</a>
</g>
</g>
<!-- Node6 -->
<g id="Node000006" class="node">
<title>Node6</title>
<g id="a_Node000006"><a xlink:href="ExportProgressViewModel_8h.html" target="_top" xlink:title=" ">
<polygon fill="white" stroke="#666666" points="519.5,-96 355.5,-96 355.5,-66 519.5,-66 519.5,-96"/>
<text text-anchor="start" x="363.5" y="-84" font-family="Helvetica,sans-Serif" font-size="10.00">ui/viewmodels/ExportProgress</text>
<text text-anchor="middle" x="437.5" y="-73" font-family="Helvetica,sans-Serif" font-size="10.00">ViewModel.h</text>
</a>
</g>
</g>
<!-- Node1&#45;&gt;Node6 -->
<g id="edge8_Node000001_Node000006" class="edge">
<title>Node1&#45;&gt;Node6</title>
<g id="a_edge8_Node000001_Node000006"><a xlink:title=" ">
<path fill="none" stroke="#63b8ff" d="M306.47,-193.95C324.54,-186.22 346.81,-175.26 364.5,-162 390.23,-142.72 414.16,-113.5 427.21,-96.23"/>
<polygon fill="#63b8ff" stroke="#63b8ff" points="304.81,-190.85 296.91,-197.91 307.49,-197.32 304.81,-190.85"/>
</a>
</g>
</g>
<!-- Node4 -->
<g id="Node000004" class="node">
<title>Node4</title>
<g id="a_Node000004"><a xlink:href="main_8cpp.html" target="_top" xlink:title=" ">
<polygon fill="white" stroke="#666666" points="257.5,-24.5 195.5,-24.5 195.5,-5.5 257.5,-5.5 257.5,-24.5"/>
<text text-anchor="middle" x="226.5" y="-12.5" font-family="Helvetica,sans-Serif" font-size="10.00">main.cpp</text>
</a>
</g>
</g>
<!-- Node3&#45;&gt;Node4 -->
<g id="edge3_Node000003_Node000004" class="edge">
<title>Node3&#45;&gt;Node4</title>
<g id="a_edge3_Node000003_Node000004"><a xlink:title=" ">
<path fill="none" stroke="#63b8ff" d="M203.18,-127.79C187.92,-120.45 173.62,-110.22 164.5,-96 157.3,-84.78 158.75,-78.03 164.5,-66 173.57,-47.04 193.73,-32.97 208.61,-24.66"/>
<polygon fill="#63b8ff" stroke="#63b8ff" points="202.22,-131.19 212.78,-132 205.03,-124.78 202.22,-131.19"/>
</a>
</g>
</g>
<!-- Node5 -->
<g id="Node000005" class="node">
<title>Node5</title>
<g id="a_Node000005"><a xlink:href="ComponentListViewModel_8cpp.html" target="_top" xlink:title=" ">
<polygon fill="white" stroke="#666666" points="337.5,-96 173.5,-96 173.5,-66 337.5,-66 337.5,-96"/>
<text text-anchor="start" x="181.5" y="-84" font-family="Helvetica,sans-Serif" font-size="10.00">ui/viewmodels/ComponentList</text>
<text text-anchor="middle" x="255.5" y="-73" font-family="Helvetica,sans-Serif" font-size="10.00">ViewModel.cpp</text>
</a>
</g>
</g>
<!-- Node3&#45;&gt;Node5 -->
<g id="edge4_Node000003_Node000005" class="edge">
<title>Node3&#45;&gt;Node5</title>
<g id="a_edge4_Node000003_Node000005"><a xlink:title=" ">
<path fill="none" stroke="#63b8ff" d="M266.78,-122.11C264.32,-113.38 261.63,-103.78 259.48,-96.16"/>
<polygon fill="#63b8ff" stroke="#63b8ff" points="263.43,-123.12 269.51,-131.8 270.17,-121.22 263.43,-123.12"/>
</a>
</g>
</g>
<!-- Node3&#45;&gt;Node6 -->
<g id="edge5_Node000003_Node000006" class="edge">
<title>Node3&#45;&gt;Node6</title>
<g id="a_edge5_Node000003_Node000006"><a xlink:title=" ">
<path fill="none" stroke="#63b8ff" d="M319.14,-128.19C345.19,-118.02 377.37,-105.47 401.59,-96.01"/>
<polygon fill="#63b8ff" stroke="#63b8ff" points="317.53,-125.06 309.49,-131.95 320.08,-131.58 317.53,-125.06"/>
</a>
</g>
</g>
<!-- Node6&#45;&gt;Node4 -->
<g id="edge6_Node000006_Node000004" class="edge">
<title>Node6&#45;&gt;Node4</title>
<g id="a_edge6_Node000006_Node000004"><a xlink:title=" ">
<path fill="none" stroke="#63b8ff" d="M381.62,-63.05C340.7,-50.64 286.87,-34.31 254.58,-24.52"/>
<polygon fill="#63b8ff" stroke="#63b8ff" points="380.61,-66.4 391.2,-65.95 382.64,-59.7 380.61,-66.4"/>
</a>
</g>
</g>
<!-- Node7 -->
<g id="Node000007" class="node">
<title>Node7</title>
<g id="a_Node000007"><a xlink:href="ExportProgressViewModel_8cpp.html" target="_top" xlink:title=" ">
<polygon fill="white" stroke="#666666" points="519.5,-30 355.5,-30 355.5,0 519.5,0 519.5,-30"/>
<text text-anchor="start" x="363.5" y="-18" font-family="Helvetica,sans-Serif" font-size="10.00">ui/viewmodels/ExportProgress</text>
<text text-anchor="middle" x="437.5" y="-7" font-family="Helvetica,sans-Serif" font-size="10.00">ViewModel.cpp</text>
</a>
</g>
</g>
<!-- Node6&#45;&gt;Node7 -->
<g id="edge7_Node000006_Node000007" class="edge">
<title>Node6&#45;&gt;Node7</title>
<g id="a_edge7_Node000006_Node000007"><a xlink:title=" ">
<path fill="none" stroke="#63b8ff" d="M437.5,-55.54C437.5,-46.96 437.5,-37.61 437.5,-30.16"/>
<polygon fill="#63b8ff" stroke="#63b8ff" points="434,-55.8 437.5,-65.8 441,-55.8 434,-55.8"/>
</a>
</g>
</g>
</g>
</svg>
