<?xml version="1.0" encoding="UTF-8" standalone="no"?>
<!DOCTYPE svg PUBLIC "-//W3C//DTD SVG 1.1//EN"
 "http://www.w3.org/Graphics/SVG/1.1/DTD/svg11.dtd">
<!-- Generated by graphviz version 2.43.0 (0)
 -->
<!-- Title: services/ConfigService.h Pages: 1 -->
<svg width="566pt" height="159pt"
 viewBox="0.00 0.00 566.00 159.00" xmlns="http://www.w3.org/2000/svg" xmlns:xlink="http://www.w3.org/1999/xlink">
<g id="graph0" class="graph" transform="scale(1 1) rotate(0) translate(4 155)">
<title>services/ConfigService.h</title>
<!-- Node1 -->
<g id="Node000001" class="node">
<title>Node1</title>
<g id="a_Node000001"><a xlink:title=" ">
<polygon fill="#999999" stroke="#666666" points="373,-151 237,-151 237,-132 373,-132 373,-151"/>
<text text-anchor="middle" x="305" y="-139" font-family="Helvetica,sans-Serif" font-size="10.00">services/ConfigService.h</text>
</a>
</g>
</g>
<!-- Node2 -->
<g id="Node000002" class="node">
<title>Node2</title>
<g id="a_Node000002"><a xlink:href="main_8cpp.html" target="_top" xlink:title=" ">
<polygon fill="white" stroke="#666666" points="376,-24.5 314,-24.5 314,-5.5 376,-5.5 376,-24.5"/>
<text text-anchor="middle" x="345" y="-12.5" font-family="Helvetica,sans-Serif" font-size="10.00">main.cpp</text>
</a>
</g>
</g>
<!-- Node1&#45;&gt;Node2 -->
<g id="edge1_Node000001_Node000002" class="edge">
<title>Node1&#45;&gt;Node2</title>
<g id="a_edge1_Node000001_Node000002"><a xlink:title=" ">
<path fill="none" stroke="#63b8ff" d="M319.98,-124.1C326.33,-116.18 333.14,-106.2 337,-96 346.28,-71.46 346.25,-39.82 345.57,-24.74"/>
<polygon fill="#63b8ff" stroke="#63b8ff" points="317.25,-121.91 313.43,-131.79 322.58,-126.44 317.25,-121.91"/>
</a>
</g>
</g>
<!-- Node3 -->
<g id="Node000003" class="node">
<title>Node3</title>
<g id="a_Node000003"><a xlink:href="ConfigService_8cpp.html" target="_top" xlink:title=" ">
<polygon fill="white" stroke="#666666" points="327.5,-90.5 180.5,-90.5 180.5,-71.5 327.5,-71.5 327.5,-90.5"/>
<text text-anchor="middle" x="254" y="-78.5" font-family="Helvetica,sans-Serif" font-size="10.00">services/ConfigService.cpp</text>
</a>
</g>
</g>
<!-- Node1&#45;&gt;Node3 -->
<g id="edge2_Node000001_Node000003" class="edge">
<title>Node1&#45;&gt;Node3</title>
<g id="a_edge2_Node000001_Node000003"><a xlink:title=" ">
<path fill="none" stroke="#63b8ff" d="M290.85,-124.27C281.37,-113.39 269.25,-99.49 261.56,-90.67"/>
<polygon fill="#63b8ff" stroke="#63b8ff" points="288.27,-126.63 297.47,-131.87 293.54,-122.03 288.27,-126.63"/>
</a>
</g>
</g>
<!-- Node4 -->
<g id="Node000004" class="node">
<title>Node4</title>
<g id="a_Node000004"><a xlink:href="ExportSettingsViewModel_8h.html" target="_top" xlink:title=" ">
<polygon fill="white" stroke="#666666" points="162,-96 0,-96 0,-66 162,-66 162,-96"/>
<text text-anchor="start" x="8" y="-84" font-family="Helvetica,sans-Serif" font-size="10.00">ui/viewmodels/ExportSettings</text>
<text text-anchor="middle" x="81" y="-73" font-family="Helvetica,sans-Serif" font-size="10.00">ViewModel.h</text>
</a>
</g>
</g>
<!-- Node1&#45;&gt;Node4 -->
<g id="edge3_Node000001_Node000004" class="edge">
<title>Node1&#45;&gt;Node4</title>
<g id="a_edge3_Node000001_Node000004"><a xlink:title=" ">
<path fill="none" stroke="#63b8ff" d="M262.66,-129.44C226.43,-119.98 174.06,-106.3 134.85,-96.06"/>
<polygon fill="#63b8ff" stroke="#63b8ff" points="261.87,-132.85 272.43,-131.99 263.64,-126.08 261.87,-132.85"/>
</a>
</g>
</g>
<!-- Node6 -->
<g id="Node000006" class="node">
<title>Node6</title>
<g id="a_Node000006"><a xlink:href="ThemeSettingsViewModel_8h.html" target="_top" xlink:title=" ">
<polygon fill="white" stroke="#666666" points="548,-96 384,-96 384,-66 548,-66 548,-96"/>
<text text-anchor="start" x="392" y="-84" font-family="Helvetica,sans-Serif" font-size="10.00">ui/viewmodels/ThemeSettings</text>
<text text-anchor="middle" x="466" y="-73" font-family="Helvetica,sans-Serif" font-size="10.00">ViewModel.h</text>
</a>
</g>
</g>
<!-- Node1&#45;&gt;Node6 -->
<g id="edge6_Node000001_Node000006" class="edge">
<title>Node1&#45;&gt;Node6</title>
<g id="a_edge6_Node000001_Node000006"><a xlink:title=" ">
<path fill="none" stroke="#63b8ff" d="M338.14,-128.46C364.04,-119.05 400.08,-105.95 427.29,-96.06"/>
<polygon fill="#63b8ff" stroke="#63b8ff" points="336.61,-125.29 328.41,-131.99 339,-131.87 336.61,-125.29"/>
</a>
</g>
</g>
<!-- Node4&#45;&gt;Node2 -->
<g id="edge4_Node000004_Node000002" class="edge">
<title>Node4&#45;&gt;Node2</title>
<g id="a_edge4_Node000004_Node000002"><a xlink:title=" ">
<path fill="none" stroke="#63b8ff" d="M148.98,-63.52C202.16,-50.63 273.64,-33.3 313.95,-23.53"/>
<polygon fill="#63b8ff" stroke="#63b8ff" points="147.83,-60.2 138.94,-65.95 149.48,-67 147.83,-60.2"/>
</a>
</g>
</g>
<!-- Node5 -->
<g id="Node000005" class="node">
<title>Node5</title>
<g id="a_Node000005"><a xlink:href="ExportSettingsViewModel_8cpp.html" target="_top" xlink:title=" ">
<polygon fill="white" stroke="#666666" points="162,-30 0,-30 0,0 162,0 162,-30"/>
<text text-anchor="start" x="8" y="-18" font-family="Helvetica,sans-Serif" font-size="10.00">ui/viewmodels/ExportSettings</text>
<text text-anchor="middle" x="81" y="-7" font-family="Helvetica,sans-Serif" font-size="10.00">ViewModel.cpp</text>
</a>
</g>
</g>
<!-- Node4&#45;&gt;Node5 -->
<g id="edge5_Node000004_Node000005" class="edge">
<title>Node4&#45;&gt;Node5</title>
<g id="a_edge5_Node000004_Node000005"><a xlink:title=" ">
<path fill="none" stroke="#63b8ff" d="M81,-55.54C81,-46.96 81,-37.61 81,-30.16"/>
<polygon fill="#63b8ff" stroke="#63b8ff" points="77.5,-55.8 81,-65.8 84.5,-55.8 77.5,-55.8"/>
</a>
</g>
</g>
<!-- Node6&#45;&gt;Node2 -->
<g id="edge7_Node000006_Node000002" class="edge">
<title>Node6&#45;&gt;Node2</title>
<g id="a_edge7_Node000006_Node000002"><a xlink:title=" ">
<path fill="none" stroke="#63b8ff" d="M430.34,-61.14C407.39,-49 378.68,-33.82 361.1,-24.52"/>
<polygon fill="#63b8ff" stroke="#63b8ff" points="428.97,-64.37 439.45,-65.95 432.24,-58.19 428.97,-64.37"/>
</a>
</g>
</g>
<!-- Node7 -->
<g id="Node000007" class="node">
<title>Node7</title>
<g id="a_Node000007"><a xlink:href="ThemeSettingsViewModel_8cpp.html" target="_top" xlink:title=" ">
<polygon fill="white" stroke="#666666" points="558,-30 394,-30 394,0 558,0 558,-30"/>
<text text-anchor="start" x="402" y="-18" font-family="Helvetica,sans-Serif" font-size="10.00">ui/viewmodels/ThemeSettings</text>
<text text-anchor="middle" x="476" y="-7" font-family="Helvetica,sans-Serif" font-size="10.00">ViewModel.cpp</text>
</a>
</g>
</g>
<!-- Node6&#45;&gt;Node7 -->
<g id="edge8_Node000006_Node000007" class="edge">
<title>Node6&#45;&gt;Node7</title>
<g id="a_edge8_Node000006_Node000007"><a xlink:title=" ">
<path fill="none" stroke="#63b8ff" d="M469.78,-55.83C471.13,-47.17 472.61,-37.7 473.79,-30.16"/>
<polygon fill="#63b8ff" stroke="#63b8ff" points="466.31,-55.38 468.22,-65.8 473.22,-56.46 466.31,-55.38"/>
</a>
</g>
</g>
</g>
</svg>
