<?xml version="1.0" encoding="UTF-8" standalone="no"?>
<!DOCTYPE svg PUBLIC "-//W3C//DTD SVG 1.1//EN"
 "http://www.w3.org/Graphics/SVG/1.1/DTD/svg11.dtd">
<!-- Generated by graphviz version 2.43.0 (0)
 -->
<!-- Title: services/ConfigService.h Pages: 1 -->
<svg width="402pt" height="82pt"
 viewBox="0.00 0.00 402.00 82.00" xmlns="http://www.w3.org/2000/svg" xmlns:xlink="http://www.w3.org/1999/xlink">
<g id="graph0" class="graph" transform="scale(1 1) rotate(0) translate(4 78)">
<title>services/ConfigService.h</title>
<!-- Node1 -->
<g id="Node000001" class="node">
<title>Node1</title>
<g id="a_Node000001"><a xlink:title=" ">
<polygon fill="#999999" stroke="#666666" points="264,-74 128,-74 128,-55 264,-55 264,-74"/>
<text text-anchor="middle" x="196" y="-62" font-family="Helvetica,sans-Serif" font-size="10.00">services/ConfigService.h</text>
</a>
</g>
</g>
<!-- Node2 -->
<g id="Node000002" class="node">
<title>Node2</title>
<g id="a_Node000002"><a xlink:title=" ">
<polygon fill="#e0e0e0" stroke="#999999" points="76,-19 0,-19 0,0 76,0 76,-19"/>
<text text-anchor="middle" x="38" y="-7" font-family="Helvetica,sans-Serif" font-size="10.00">QJsonObject</text>
</a>
</g>
</g>
<!-- Node1&#45;&gt;Node2 -->
<g id="edge1_Node000001_Node000002" class="edge">
<title>Node1&#45;&gt;Node2</title>
<g id="a_edge1_Node000001_Node000002"><a xlink:title=" ">
<path fill="none" stroke="#63b8ff" d="M170.61,-54.98C144.2,-46.13 102.65,-32.19 73.11,-22.28"/>
<polygon fill="#63b8ff" stroke="#63b8ff" points="74.18,-18.94 63.58,-19.08 71.95,-25.58 74.18,-18.94"/>
</a>
</g>
</g>
<!-- Node3 -->
<g id="Node000003" class="node">
<title>Node3</title>
<g id="a_Node000003"><a xlink:title=" ">
<polygon fill="#e0e0e0" stroke="#999999" points="149.5,-19 94.5,-19 94.5,0 149.5,0 149.5,-19"/>
<text text-anchor="middle" x="122" y="-7" font-family="Helvetica,sans-Serif" font-size="10.00">QMutex</text>
</a>
</g>
</g>
<!-- Node1&#45;&gt;Node3 -->
<g id="edge2_Node000001_Node000003" class="edge">
<title>Node1&#45;&gt;Node3</title>
<g id="a_edge2_Node000001_Node000003"><a xlink:title=" ">
<path fill="none" stroke="#63b8ff" d="M184.11,-54.98C172.85,-46.92 155.71,-34.65 142.29,-25.03"/>
<polygon fill="#63b8ff" stroke="#63b8ff" points="144.27,-22.15 134.11,-19.17 140.2,-27.84 144.27,-22.15"/>
</a>
</g>
</g>
<!-- Node4 -->
<g id="Node000004" class="node">
<title>Node4</title>
<g id="a_Node000004"><a xlink:title=" ">
<polygon fill="#e0e0e0" stroke="#999999" points="224,-19 168,-19 168,0 224,0 224,-19"/>
<text text-anchor="middle" x="196" y="-7" font-family="Helvetica,sans-Serif" font-size="10.00">QObject</text>
</a>
</g>
</g>
<!-- Node1&#45;&gt;Node4 -->
<g id="edge3_Node000001_Node000004" class="edge">
<title>Node1&#45;&gt;Node4</title>
<g id="a_edge3_Node000001_Node000004"><a xlink:title=" ">
<path fill="none" stroke="#63b8ff" d="M196,-54.75C196,-47.8 196,-37.85 196,-29.13"/>
<polygon fill="#63b8ff" stroke="#63b8ff" points="199.5,-29.09 196,-19.09 192.5,-29.09 199.5,-29.09"/>
</a>
</g>
</g>
<!-- Node5 -->
<g id="Node000005" class="node">
<title>Node5</title>
<g id="a_Node000005"><a xlink:title=" ">
<polygon fill="#e0e0e0" stroke="#999999" points="295.5,-19 242.5,-19 242.5,0 295.5,0 295.5,-19"/>
<text text-anchor="middle" x="269" y="-7" font-family="Helvetica,sans-Serif" font-size="10.00">QString</text>
</a>
</g>
</g>
<!-- Node1&#45;&gt;Node5 -->
<g id="edge4_Node000001_Node000005" class="edge">
<title>Node1&#45;&gt;Node5</title>
<g id="a_edge4_Node000001_Node000005"><a xlink:title=" ">
<path fill="none" stroke="#63b8ff" d="M207.73,-54.98C218.73,-47 235.42,-34.88 248.6,-25.31"/>
<polygon fill="#63b8ff" stroke="#63b8ff" points="251.02,-27.88 257.06,-19.17 246.91,-22.21 251.02,-27.88"/>
</a>
</g>
</g>
<!-- Node6 -->
<g id="Node000006" class="node">
<title>Node6</title>
<g id="a_Node000006"><a xlink:title=" ">
<polygon fill="#e0e0e0" stroke="#999999" points="394,-19 314,-19 314,0 394,0 394,-19"/>
<text text-anchor="middle" x="354" y="-7" font-family="Helvetica,sans-Serif" font-size="10.00">QVariantMap</text>
</a>
</g>
</g>
<!-- Node1&#45;&gt;Node6 -->
<g id="edge5_Node000001_Node000006" class="edge">
<title>Node1&#45;&gt;Node6</title>
<g id="a_edge5_Node000001_Node000006"><a xlink:title=" ">
<path fill="none" stroke="#63b8ff" d="M221.39,-54.98C247.8,-46.13 289.35,-32.19 318.89,-22.28"/>
<polygon fill="#63b8ff" stroke="#63b8ff" points="320.05,-25.58 328.42,-19.08 317.82,-18.94 320.05,-25.58"/>
</a>
</g>
</g>
</g>
</svg>
