<?xml version="1.0" encoding="UTF-8" standalone="no"?>
<!DOCTYPE svg PUBLIC "-//W3C//DTD SVG 1.1//EN"
 "http://www.w3.org/Graphics/SVG/1.1/DTD/svg11.dtd">
<!-- Generated by graphviz version 2.43.0 (0)
 -->
<!-- Title: services/ConfigService.h Pages: 1 -->
<svg width="2398pt" height="159pt"
 viewBox="0.00 0.00 2398.00 159.00" xmlns="http://www.w3.org/2000/svg" xmlns:xlink="http://www.w3.org/1999/xlink">
<g id="graph0" class="graph" transform="scale(1 1) rotate(0) translate(4 155)">
<title>services/ConfigService.h</title>
<!-- Node1 -->
<g id="Node000001" class="node">
<title>Node1</title>
<g id="a_Node000001"><a xlink:title=" ">
<polygon fill="#999999" stroke="#666666" points="1350,-151 1214,-151 1214,-132 1350,-132 1350,-151"/>
<text text-anchor="middle" x="1282" y="-139" font-family="Helvetica,sans-Serif" font-size="10.00">services/ConfigService.h</text>
</a>
</g>
</g>
<!-- Node2 -->
<g id="Node000002" class="node">
<title>Node2</title>
<g id="a_Node000002"><a xlink:href="LanguageManager_8cpp.html" target="_top" xlink:title=" ">
<polygon fill="white" stroke="#666666" points="150,-90.5 0,-90.5 0,-71.5 150,-71.5 150,-90.5"/>
<text text-anchor="middle" x="75" y="-78.5" font-family="Helvetica,sans-Serif" font-size="10.00">core/LanguageManager.cpp</text>
</a>
</g>
</g>
<!-- Node1&#45;&gt;Node2 -->
<g id="edge1_Node000001_Node000002" class="edge">
<title>Node1&#45;&gt;Node2</title>
<g id="a_edge1_Node000001_Node000002"><a xlink:title=" ">
<path fill="none" stroke="#63b8ff" d="M1203.66,-140.77C1020.42,-140.67 549.75,-136.14 159,-96 146.2,-94.69 132.4,-92.65 119.76,-90.53"/>
<polygon fill="#63b8ff" stroke="#63b8ff" points="1203.75,-144.27 1213.75,-140.77 1203.75,-137.27 1203.75,-144.27"/>
</a>
</g>
</g>
<!-- Node3 -->
<g id="Node000003" class="node">
<title>Node3</title>
<g id="a_Node000003"><a xlink:href="main_8cpp.html" target="_top" xlink:title=" ">
<polygon fill="white" stroke="#666666" points="1707,-24.5 1645,-24.5 1645,-5.5 1707,-5.5 1707,-24.5"/>
<text text-anchor="middle" x="1676" y="-12.5" font-family="Helvetica,sans-Serif" font-size="10.00">main.cpp</text>
</a>
</g>
</g>
<!-- Node1&#45;&gt;Node3 -->
<g id="edge2_Node000001_Node000003" class="edge">
<title>Node1&#45;&gt;Node3</title>
<g id="a_edge2_Node000001_Node000003"><a xlink:title=" ">
<path fill="none" stroke="#63b8ff" d="M1360.48,-136.65C1467.07,-130.65 1646.85,-117.47 1668,-96 1686.81,-76.91 1681.9,-41.45 1678.28,-24.92"/>
<polygon fill="#63b8ff" stroke="#63b8ff" points="1360.19,-133.16 1350.4,-137.21 1360.58,-140.15 1360.19,-133.16"/>
</a>
</g>
</g>
<!-- Node4 -->
<g id="Node000004" class="node">
<title>Node4</title>
<g id="a_Node000004"><a xlink:href="CadDataLoader_8cpp.html" target="_top" xlink:title=" ">
<polygon fill="white" stroke="#666666" points="503.5,-90.5 348.5,-90.5 348.5,-71.5 503.5,-71.5 503.5,-90.5"/>
<text text-anchor="middle" x="426" y="-78.5" font-family="Helvetica,sans-Serif" font-size="10.00">services/CadDataLoader.cpp</text>
</a>
</g>
</g>
<!-- Node1&#45;&gt;Node4 -->
<g id="edge3_Node000001_Node000004" class="edge">
<title>Node1&#45;&gt;Node4</title>
<g id="a_edge3_Node000001_Node000004"><a xlink:title=" ">
<path fill="none" stroke="#63b8ff" d="M1203.66,-138.65C1064.21,-134.77 763.91,-123.71 512,-96 499.22,-94.59 485.44,-92.58 472.74,-90.51"/>
<polygon fill="#63b8ff" stroke="#63b8ff" points="1203.73,-142.16 1213.82,-138.93 1203.92,-135.16 1203.73,-142.16"/>
</a>
</g>
</g>
<!-- Node5 -->
<g id="Node000005" class="node">
<title>Node5</title>
<g id="a_Node000005"><a xlink:href="ComponentCacheService_8cpp.html" target="_top" xlink:title=" ">
<polygon fill="white" stroke="#666666" points="724.5,-90.5 521.5,-90.5 521.5,-71.5 724.5,-71.5 724.5,-90.5"/>
<text text-anchor="middle" x="623" y="-78.5" font-family="Helvetica,sans-Serif" font-size="10.00">services/ComponentCacheService.cpp</text>
</a>
</g>
</g>
<!-- Node1&#45;&gt;Node5 -->
<g id="edge4_Node000001_Node000005" class="edge">
<title>Node1&#45;&gt;Node5</title>
<g id="a_edge4_Node000001_Node000005"><a xlink:title=" ">
<path fill="none" stroke="#63b8ff" d="M1203.84,-135.29C1097.27,-127.94 900.46,-113.43 733,-96 717.78,-94.42 701.4,-92.46 686.06,-90.53"/>
<polygon fill="#63b8ff" stroke="#63b8ff" points="1203.65,-138.79 1213.87,-135.98 1204.13,-131.81 1203.65,-138.79"/>
</a>
</g>
</g>
<!-- Node6 -->
<g id="Node000006" class="node">
<title>Node6</title>
<g id="a_Node000006"><a xlink:href="ComponentService_8cpp.html" target="_top" xlink:title=" ">
<polygon fill="white" stroke="#666666" points="915.5,-90.5 742.5,-90.5 742.5,-71.5 915.5,-71.5 915.5,-90.5"/>
<text text-anchor="middle" x="829" y="-78.5" font-family="Helvetica,sans-Serif" font-size="10.00">services/ComponentService.cpp</text>
</a>
</g>
</g>
<!-- Node1&#45;&gt;Node6 -->
<g id="edge5_Node000001_Node000006" class="edge">
<title>Node1&#45;&gt;Node6</title>
<g id="a_edge5_Node000001_Node000006"><a xlink:title=" ">
<path fill="none" stroke="#63b8ff" d="M1204,-131.32C1131.43,-122.66 1020.32,-109.08 924,-96 911.45,-94.29 897.97,-92.37 885.23,-90.5"/>
<polygon fill="#63b8ff" stroke="#63b8ff" points="1203.63,-134.8 1213.98,-132.51 1204.46,-127.85 1203.63,-134.8"/>
</a>
</g>
</g>
<!-- Node7 -->
<g id="Node000007" class="node">
<title>Node7</title>
<g id="a_Node000007"><a xlink:href="ConfigService_8cpp.html" target="_top" xlink:title=" ">
<polygon fill="white" stroke="#666666" points="1080.5,-90.5 933.5,-90.5 933.5,-71.5 1080.5,-71.5 1080.5,-90.5"/>
<text text-anchor="middle" x="1007" y="-78.5" font-family="Helvetica,sans-Serif" font-size="10.00">services/ConfigService.cpp</text>
</a>
</g>
</g>
<!-- Node1&#45;&gt;Node7 -->
<g id="edge6_Node000001_Node000007" class="edge">
<title>Node1&#45;&gt;Node7</title>
<g id="a_edge6_Node000001_Node000007"><a xlink:title=" ">
<path fill="none" stroke="#63b8ff" d="M1232.14,-129.89C1179.04,-118.6 1096.04,-100.94 1047.04,-90.52"/>
<polygon fill="#63b8ff" stroke="#63b8ff" points="1231.5,-133.34 1242.01,-131.99 1232.96,-126.49 1231.5,-133.34"/>
</a>
</g>
</g>
<!-- Node8 -->
<g id="Node000008" class="node">
<title>Node8</title>
<g id="a_Node000008"><a xlink:href="LcscImageService_8cpp.html" target="_top" xlink:title=" ">
<polygon fill="white" stroke="#666666" points="1267,-90.5 1099,-90.5 1099,-71.5 1267,-71.5 1267,-90.5"/>
<text text-anchor="middle" x="1183" y="-78.5" font-family="Helvetica,sans-Serif" font-size="10.00">services/LcscImageService.cpp</text>
</a>
</g>
</g>
<!-- Node1&#45;&gt;Node8 -->
<g id="edge7_Node000001_Node000008" class="edge">
<title>Node1&#45;&gt;Node8</title>
<g id="a_edge7_Node000001_Node000008"><a xlink:title=" ">
<path fill="none" stroke="#63b8ff" d="M1258.77,-126.77C1239.87,-115.6 1213.78,-100.19 1197.67,-90.67"/>
<polygon fill="#63b8ff" stroke="#63b8ff" points="1257,-129.79 1267.39,-131.87 1260.56,-123.77 1257,-129.79"/>
</a>
</g>
</g>
<!-- Node9 -->
<g id="Node000009" class="node">
<title>Node9</title>
<g id="a_Node000009"><a xlink:href="UpdateCheckerService_8cpp.html" target="_top" xlink:title=" ">
<polygon fill="white" stroke="#666666" points="1476.5,-90.5 1285.5,-90.5 1285.5,-71.5 1476.5,-71.5 1476.5,-90.5"/>
<text text-anchor="middle" x="1381" y="-78.5" font-family="Helvetica,sans-Serif" font-size="10.00">services/UpdateCheckerService.cpp</text>
</a>
</g>
</g>
<!-- Node1&#45;&gt;Node9 -->
<g id="edge8_Node000001_Node000009" class="edge">
<title>Node1&#45;&gt;Node9</title>
<g id="a_edge8_Node000001_Node000009"><a xlink:title=" ">
<path fill="none" stroke="#63b8ff" d="M1305.23,-126.77C1324.13,-115.6 1350.22,-100.19 1366.33,-90.67"/>
<polygon fill="#63b8ff" stroke="#63b8ff" points="1303.44,-123.77 1296.61,-131.87 1307,-129.79 1303.44,-123.77"/>
</a>
</g>
</g>
<!-- Node10 -->
<g id="Node000010" class="node">
<title>Node10</title>
<g id="a_Node000010"><a xlink:href="ComponentListViewModel_8cpp.html" target="_top" xlink:title=" ">
<polygon fill="white" stroke="#666666" points="1659,-96 1495,-96 1495,-66 1659,-66 1659,-96"/>
<text text-anchor="start" x="1503" y="-84" font-family="Helvetica,sans-Serif" font-size="10.00">ui/viewmodels/ComponentList</text>
<text text-anchor="middle" x="1577" y="-73" font-family="Helvetica,sans-Serif" font-size="10.00">ViewModel.cpp</text>
</a>
</g>
</g>
<!-- Node1&#45;&gt;Node10 -->
<g id="edge9_Node000001_Node000010" class="edge">
<title>Node1&#45;&gt;Node10</title>
<g id="a_edge9_Node000001_Node000010"><a xlink:title=" ">
<path fill="none" stroke="#63b8ff" d="M1334.75,-130.04C1382.62,-120.55 1453.6,-106.47 1506.36,-96.01"/>
<polygon fill="#63b8ff" stroke="#63b8ff" points="1334.02,-126.62 1324.9,-131.99 1335.39,-133.48 1334.02,-126.62"/>
</a>
</g>
</g>
<!-- Node11 -->
<g id="Node000011" class="node">
<title>Node11</title>
<g id="a_Node000011"><a xlink:href="ExportSettingsViewModel_8h.html" target="_top" xlink:title=" ">
<polygon fill="white" stroke="#666666" points="330,-96 168,-96 168,-66 330,-66 330,-96"/>
<text text-anchor="start" x="176" y="-84" font-family="Helvetica,sans-Serif" font-size="10.00">ui/viewmodels/ExportSettings</text>
<text text-anchor="middle" x="249" y="-73" font-family="Helvetica,sans-Serif" font-size="10.00">ViewModel.h</text>
</a>
</g>
</g>
<!-- Node1&#45;&gt;Node11 -->
<g id="edge10_Node000001_Node000011" class="edge">
<title>Node1&#45;&gt;Node11</title>
<g id="a_edge10_Node000001_Node000011"><a xlink:title=" ">
<path fill="none" stroke="#63b8ff" d="M1203.42,-139.63C1041.38,-137.22 658.53,-128.3 339,-96 336.17,-95.71 333.29,-95.4 330.38,-95.06"/>
<polygon fill="#63b8ff" stroke="#63b8ff" points="1203.72,-143.14 1213.77,-139.78 1203.82,-136.14 1203.72,-143.14"/>
</a>
</g>
</g>
<!-- Node13 -->
<g id="Node000013" class="node">
<title>Node13</title>
<g id="a_Node000013"><a xlink:href="ThemeSettingsViewModel_8h.html" target="_top" xlink:title=" ">
<polygon fill="white" stroke="#666666" points="1879,-96 1715,-96 1715,-66 1879,-66 1879,-96"/>
<text text-anchor="start" x="1723" y="-84" font-family="Helvetica,sans-Serif" font-size="10.00">ui/viewmodels/ThemeSettings</text>
<text text-anchor="middle" x="1797" y="-73" font-family="Helvetica,sans-Serif" font-size="10.00">ViewModel.h</text>
</a>
</g>
</g>
<!-- Node1&#45;&gt;Node13 -->
<g id="edge13_Node000001_Node000013" class="edge">
<title>Node1&#45;&gt;Node13</title>
<g id="a_edge13_Node000001_Node000013"><a xlink:title=" ">
<path fill="none" stroke="#63b8ff" d="M1360.32,-133.1C1444.57,-124.93 1582.44,-110.94 1701,-96 1705.51,-95.43 1710.14,-94.83 1714.81,-94.2"/>
<polygon fill="#63b8ff" stroke="#63b8ff" points="1359.93,-129.62 1350.31,-134.07 1360.6,-136.59 1359.93,-129.62"/>
</a>
</g>
</g>
<!-- Node15 -->
<g id="Node000015" class="node">
<title>Node15</title>
<g id="a_Node000015"><a xlink:href="FetchWorker_8cpp.html" target="_top" xlink:title=" ">
<polygon fill="white" stroke="#666666" points="2034.5,-90.5 1897.5,-90.5 1897.5,-71.5 2034.5,-71.5 2034.5,-90.5"/>
<text text-anchor="middle" x="1966" y="-78.5" font-family="Helvetica,sans-Serif" font-size="10.00">workers/FetchWorker.cpp</text>
</a>
</g>
</g>
<!-- Node1&#45;&gt;Node15 -->
<g id="edge16_Node000001_Node000015" class="edge">
<title>Node1&#45;&gt;Node15</title>
<g id="a_edge16_Node000001_Node000015"><a xlink:title=" ">
<path fill="none" stroke="#63b8ff" d="M1360.58,-137.35C1476.38,-132.12 1699.54,-119.77 1888,-96 1899.47,-94.55 1911.81,-92.55 1923.21,-90.51"/>
<polygon fill="#63b8ff" stroke="#63b8ff" points="1360.22,-133.86 1350.39,-137.8 1360.54,-140.86 1360.22,-133.86"/>
</a>
</g>
</g>
<!-- Node16 -->
<g id="Node000016" class="node">
<title>Node16</title>
<g id="a_Node000016"><a xlink:href="MediaFetchWorker_8cpp.html" target="_top" xlink:title=" ">
<polygon fill="white" stroke="#666666" points="2219.5,-90.5 2052.5,-90.5 2052.5,-71.5 2219.5,-71.5 2219.5,-90.5"/>
<text text-anchor="middle" x="2136" y="-78.5" font-family="Helvetica,sans-Serif" font-size="10.00">workers/MediaFetchWorker.cpp</text>
</a>
</g>
</g>
<!-- Node1&#45;&gt;Node16 -->
<g id="edge17_Node000001_Node000016" class="edge">
<title>Node1&#45;&gt;Node16</title>
<g id="a_edge17_Node000001_Node000016"><a xlink:title=" ">
<path fill="none" stroke="#63b8ff" d="M1360.3,-138.32C1498.6,-133.94 1795.05,-122.15 2044,-96 2057.5,-94.58 2072.04,-92.59 2085.49,-90.55"/>
<polygon fill="#63b8ff" stroke="#63b8ff" points="1360.11,-134.83 1350.22,-138.64 1360.32,-141.82 1360.11,-134.83"/>
</a>
</g>
</g>
<!-- Node17 -->
<g id="Node000017" class="node">
<title>Node17</title>
<g id="a_Node000017"><a xlink:href="NetworkWorker_8cpp.html" target="_top" xlink:title=" ">
<polygon fill="white" stroke="#666666" points="2390,-90.5 2238,-90.5 2238,-71.5 2390,-71.5 2390,-90.5"/>
<text text-anchor="middle" x="2314" y="-78.5" font-family="Helvetica,sans-Serif" font-size="10.00">workers/NetworkWorker.cpp</text>
</a>
</g>
</g>
<!-- Node1&#45;&gt;Node17 -->
<g id="edge18_Node000001_Node000017" class="edge">
<title>Node1&#45;&gt;Node17</title>
<g id="a_edge18_Node000001_Node000017"><a xlink:title=" ">
<path fill="none" stroke="#63b8ff" d="M1360.63,-139.89C1523.23,-137.95 1908.07,-129.85 2229,-96 2241.79,-94.65 2255.58,-92.63 2268.25,-90.54"/>
<polygon fill="#63b8ff" stroke="#63b8ff" points="1360.21,-136.4 1350.25,-140.01 1360.29,-143.4 1360.21,-136.4"/>
</a>
</g>
</g>
<!-- Node11&#45;&gt;Node3 -->
<g id="edge11_Node000011_Node000003" class="edge">
<title>Node11&#45;&gt;Node3</title>
<g id="a_edge11_Node000011_Node000003"><a xlink:title=" ">
<path fill="none" stroke="#63b8ff" d="M340.47,-65.94C867.32,-15.97 1498.73,-15.27 1644.82,-15.82"/>
<polygon fill="#63b8ff" stroke="#63b8ff" points="340,-62.47 330.38,-66.9 340.67,-69.44 340,-62.47"/>
</a>
</g>
</g>
<!-- Node12 -->
<g id="Node000012" class="node">
<title>Node12</title>
<g id="a_Node000012"><a xlink:href="ExportSettingsViewModel_8cpp.html" target="_top" xlink:title=" ">
<polygon fill="white" stroke="#666666" points="330,-30 168,-30 168,0 330,0 330,-30"/>
<text text-anchor="start" x="176" y="-18" font-family="Helvetica,sans-Serif" font-size="10.00">ui/viewmodels/ExportSettings</text>
<text text-anchor="middle" x="249" y="-7" font-family="Helvetica,sans-Serif" font-size="10.00">ViewModel.cpp</text>
</a>
</g>
</g>
<!-- Node11&#45;&gt;Node12 -->
<g id="edge12_Node000011_Node000012" class="edge">
<title>Node11&#45;&gt;Node12</title>
<g id="a_edge12_Node000011_Node000012"><a xlink:title=" ">
<path fill="none" stroke="#63b8ff" d="M249,-55.54C249,-46.96 249,-37.61 249,-30.16"/>
<polygon fill="#63b8ff" stroke="#63b8ff" points="245.5,-55.8 249,-65.8 252.5,-55.8 245.5,-55.8"/>
</a>
</g>
</g>
<!-- Node13&#45;&gt;Node3 -->
<g id="edge14_Node000013_Node000003" class="edge">
<title>Node13&#45;&gt;Node3</title>
<g id="a_edge14_Node000013_Node000003"><a xlink:title=" ">
<path fill="none" stroke="#63b8ff" d="M1761.34,-61.14C1738.39,-49 1709.68,-33.82 1692.1,-24.52"/>
<polygon fill="#63b8ff" stroke="#63b8ff" points="1759.97,-64.37 1770.45,-65.95 1763.24,-58.19 1759.97,-64.37"/>
</a>
</g>
</g>
<!-- Node14 -->
<g id="Node000014" class="node">
<title>Node14</title>
<g id="a_Node000014"><a xlink:href="ThemeSettingsViewModel_8cpp.html" target="_top" xlink:title=" ">
<polygon fill="white" stroke="#666666" points="1889,-30 1725,-30 1725,0 1889,0 1889,-30"/>
<text text-anchor="start" x="1733" y="-18" font-family="Helvetica,sans-Serif" font-size="10.00">ui/viewmodels/ThemeSettings</text>
<text text-anchor="middle" x="1807" y="-7" font-family="Helvetica,sans-Serif" font-size="10.00">ViewModel.cpp</text>
</a>
</g>
</g>
<!-- Node13&#45;&gt;Node14 -->
<g id="edge15_Node000013_Node000014" class="edge">
<title>Node13&#45;&gt;Node14</title>
<g id="a_edge15_Node000013_Node000014"><a xlink:title=" ">
<path fill="none" stroke="#63b8ff" d="M1800.78,-55.83C1802.13,-47.17 1803.61,-37.7 1804.79,-30.16"/>
<polygon fill="#63b8ff" stroke="#63b8ff" points="1797.31,-55.38 1799.22,-65.8 1804.22,-56.46 1797.31,-55.38"/>
</a>
</g>
</g>
</g>
</svg>
