<?xml version="1.0" encoding="UTF-8" standalone="no"?>
<!DOCTYPE svg PUBLIC "-//W3C//DTD SVG 1.1//EN"
 "http://www.w3.org/Graphics/SVG/1.1/DTD/svg11.dtd">
<!-- Generated by graphviz version 2.43.0 (0)
 -->
<!-- Title: services/ConfigService.cpp Pages: 1 -->
<svg width="628pt" height="137pt"
 viewBox="0.00 0.00 628.00 137.00" xmlns="http://www.w3.org/2000/svg" xmlns:xlink="http://www.w3.org/1999/xlink">
<g id="graph0" class="graph" transform="scale(1 1) rotate(0) translate(4 133)">
<title>services/ConfigService.cpp</title>
<!-- Node1 -->
<g id="Node000001" class="node">
<title>Node1</title>
<g id="a_Node000001"><a xlink:title=" ">
<polygon fill="#999999" stroke="#666666" points="418.5,-129 271.5,-129 271.5,-110 418.5,-110 418.5,-129"/>
<text text-anchor="middle" x="345" y="-117" font-family="Helvetica,sans-Serif" font-size="10.00">services/ConfigService.cpp</text>
</a>
</g>
</g>
<!-- Node2 -->
<g id="Node000002" class="node">
<title>Node2</title>
<g id="a_Node000002"><a xlink:href="ConfigService_8h.html" target="_top" xlink:title=" ">
<polygon fill="white" stroke="#666666" points="205,-74 113,-74 113,-55 205,-55 205,-74"/>
<text text-anchor="middle" x="159" y="-62" font-family="Helvetica,sans-Serif" font-size="10.00">ConfigService.h</text>
</a>
</g>
</g>
<!-- Node1&#45;&gt;Node2 -->
<g id="edge1_Node000001_Node000002" class="edge">
<title>Node1&#45;&gt;Node2</title>
<g id="a_edge1_Node000001_Node000002"><a xlink:title=" ">
<path fill="none" stroke="#63b8ff" d="M315.12,-109.98C283.62,-101.01 233.83,-86.82 198.97,-76.89"/>
<polygon fill="#63b8ff" stroke="#63b8ff" points="199.69,-73.46 189.12,-74.08 197.78,-80.19 199.69,-73.46"/>
</a>
</g>
</g>
<!-- Node7 -->
<g id="Node000007" class="node">
<title>Node7</title>
<g id="a_Node000007"><a xlink:title=" ">
<polygon fill="#e0e0e0" stroke="#999999" points="279,-74 223,-74 223,-55 279,-55 279,-74"/>
<text text-anchor="middle" x="251" y="-62" font-family="Helvetica,sans-Serif" font-size="10.00">QDebug</text>
</a>
</g>
</g>
<!-- Node1&#45;&gt;Node7 -->
<g id="edge6_Node000001_Node000007" class="edge">
<title>Node1&#45;&gt;Node7</title>
<g id="a_edge6_Node000001_Node000007"><a xlink:title=" ">
<path fill="none" stroke="#63b8ff" d="M329.9,-109.98C315.18,-101.69 292.58,-88.94 275.33,-79.22"/>
<polygon fill="#63b8ff" stroke="#63b8ff" points="276.81,-76.03 266.38,-74.17 273.37,-82.13 276.81,-76.03"/>
</a>
</g>
</g>
<!-- Node8 -->
<g id="Node000008" class="node">
<title>Node8</title>
<g id="a_Node000008"><a xlink:title=" ">
<polygon fill="#e0e0e0" stroke="#999999" points="335,-74 297,-74 297,-55 335,-55 335,-74"/>
<text text-anchor="middle" x="316" y="-62" font-family="Helvetica,sans-Serif" font-size="10.00">QDir</text>
</a>
</g>
</g>
<!-- Node1&#45;&gt;Node8 -->
<g id="edge7_Node000001_Node000008" class="edge">
<title>Node1&#45;&gt;Node8</title>
<g id="a_edge7_Node000001_Node000008"><a xlink:title=" ">
<path fill="none" stroke="#63b8ff" d="M340.21,-109.75C336.24,-102.49 330.47,-91.95 325.57,-82.98"/>
<polygon fill="#63b8ff" stroke="#63b8ff" points="328.57,-81.18 320.7,-74.09 322.43,-84.54 328.57,-81.18"/>
</a>
</g>
</g>
<!-- Node9 -->
<g id="Node000009" class="node">
<title>Node9</title>
<g id="a_Node000009"><a xlink:title=" ">
<polygon fill="#e0e0e0" stroke="#999999" points="394.5,-74 353.5,-74 353.5,-55 394.5,-55 394.5,-74"/>
<text text-anchor="middle" x="374" y="-62" font-family="Helvetica,sans-Serif" font-size="10.00">QFile</text>
</a>
</g>
</g>
<!-- Node1&#45;&gt;Node9 -->
<g id="edge8_Node000001_Node000009" class="edge">
<title>Node1&#45;&gt;Node9</title>
<g id="a_edge8_Node000001_Node000009"><a xlink:title=" ">
<path fill="none" stroke="#63b8ff" d="M349.79,-109.75C353.76,-102.49 359.53,-91.95 364.43,-82.98"/>
<polygon fill="#63b8ff" stroke="#63b8ff" points="367.57,-84.54 369.3,-74.09 361.43,-81.18 367.57,-84.54"/>
</a>
</g>
</g>
<!-- Node10 -->
<g id="Node000010" class="node">
<title>Node10</title>
<g id="a_Node000010"><a xlink:title=" ">
<polygon fill="#e0e0e0" stroke="#999999" points="507.5,-74 412.5,-74 412.5,-55 507.5,-55 507.5,-74"/>
<text text-anchor="middle" x="460" y="-62" font-family="Helvetica,sans-Serif" font-size="10.00">QJsonDocument</text>
</a>
</g>
</g>
<!-- Node1&#45;&gt;Node10 -->
<g id="edge9_Node000001_Node000010" class="edge">
<title>Node1&#45;&gt;Node10</title>
<g id="a_edge9_Node000001_Node000010"><a xlink:title=" ">
<path fill="none" stroke="#63b8ff" d="M363.48,-109.98C381.98,-101.46 410.68,-88.23 431.98,-78.41"/>
<polygon fill="#63b8ff" stroke="#63b8ff" points="433.57,-81.53 441.19,-74.17 430.64,-75.18 433.57,-81.53"/>
</a>
</g>
</g>
<!-- Node11 -->
<g id="Node000011" class="node">
<title>Node11</title>
<g id="a_Node000011"><a xlink:title=" ">
<polygon fill="#e0e0e0" stroke="#999999" points="620,-74 526,-74 526,-55 620,-55 620,-74"/>
<text text-anchor="middle" x="573" y="-62" font-family="Helvetica,sans-Serif" font-size="10.00">QStandardPaths</text>
</a>
</g>
</g>
<!-- Node1&#45;&gt;Node11 -->
<g id="edge10_Node000001_Node000011" class="edge">
<title>Node1&#45;&gt;Node11</title>
<g id="a_edge10_Node000001_Node000011"><a xlink:title=" ">
<path fill="none" stroke="#63b8ff" d="M381.63,-109.98C420.91,-100.86 483.37,-86.33 526.19,-76.38"/>
<polygon fill="#63b8ff" stroke="#63b8ff" points="527.13,-79.76 536.08,-74.08 525.55,-72.94 527.13,-79.76"/>
</a>
</g>
</g>
<!-- Node3 -->
<g id="Node000003" class="node">
<title>Node3</title>
<g id="a_Node000003"><a xlink:title=" ">
<polygon fill="#e0e0e0" stroke="#999999" points="76,-19 0,-19 0,0 76,0 76,-19"/>
<text text-anchor="middle" x="38" y="-7" font-family="Helvetica,sans-Serif" font-size="10.00">QJsonObject</text>
</a>
</g>
</g>
<!-- Node2&#45;&gt;Node3 -->
<g id="edge2_Node000002_Node000003" class="edge">
<title>Node2&#45;&gt;Node3</title>
<g id="a_edge2_Node000002_Node000003"><a xlink:title=" ">
<path fill="none" stroke="#63b8ff" d="M139.56,-54.98C120.01,-46.42 89.62,-33.11 67.18,-23.28"/>
<polygon fill="#63b8ff" stroke="#63b8ff" points="68.36,-19.98 57.79,-19.17 65.55,-26.39 68.36,-19.98"/>
</a>
</g>
</g>
<!-- Node4 -->
<g id="Node000004" class="node">
<title>Node4</title>
<g id="a_Node000004"><a xlink:title=" ">
<polygon fill="#e0e0e0" stroke="#999999" points="149.5,-19 94.5,-19 94.5,0 149.5,0 149.5,-19"/>
<text text-anchor="middle" x="122" y="-7" font-family="Helvetica,sans-Serif" font-size="10.00">QMutex</text>
</a>
</g>
</g>
<!-- Node2&#45;&gt;Node4 -->
<g id="edge3_Node000002_Node000004" class="edge">
<title>Node2&#45;&gt;Node4</title>
<g id="a_edge3_Node000002_Node000004"><a xlink:title=" ">
<path fill="none" stroke="#63b8ff" d="M152.89,-54.75C147.72,-47.34 140.15,-36.5 133.81,-27.41"/>
<polygon fill="#63b8ff" stroke="#63b8ff" points="136.59,-25.29 128,-19.09 130.85,-29.29 136.59,-25.29"/>
</a>
</g>
</g>
<!-- Node5 -->
<g id="Node000005" class="node">
<title>Node5</title>
<g id="a_Node000005"><a xlink:title=" ">
<polygon fill="#e0e0e0" stroke="#999999" points="224,-19 168,-19 168,0 224,0 224,-19"/>
<text text-anchor="middle" x="196" y="-7" font-family="Helvetica,sans-Serif" font-size="10.00">QObject</text>
</a>
</g>
</g>
<!-- Node2&#45;&gt;Node5 -->
<g id="edge4_Node000002_Node000005" class="edge">
<title>Node2&#45;&gt;Node5</title>
<g id="a_edge4_Node000002_Node000005"><a xlink:title=" ">
<path fill="none" stroke="#63b8ff" d="M165.11,-54.75C170.28,-47.34 177.85,-36.5 184.19,-27.41"/>
<polygon fill="#63b8ff" stroke="#63b8ff" points="187.15,-29.29 190,-19.09 181.41,-25.29 187.15,-29.29"/>
</a>
</g>
</g>
<!-- Node6 -->
<g id="Node000006" class="node">
<title>Node6</title>
<g id="a_Node000006"><a xlink:title=" ">
<polygon fill="#e0e0e0" stroke="#999999" points="295.5,-19 242.5,-19 242.5,0 295.5,0 295.5,-19"/>
<text text-anchor="middle" x="269" y="-7" font-family="Helvetica,sans-Serif" font-size="10.00">QString</text>
</a>
</g>
</g>
<!-- Node2&#45;&gt;Node6 -->
<g id="edge5_Node000002_Node000006" class="edge">
<title>Node2&#45;&gt;Node6</title>
<g id="a_edge5_Node000002_Node000006"><a xlink:title=" ">
<path fill="none" stroke="#63b8ff" d="M176.67,-54.98C194.29,-46.5 221.58,-33.35 241.93,-23.54"/>
<polygon fill="#63b8ff" stroke="#63b8ff" points="243.52,-26.66 251.01,-19.17 240.48,-20.36 243.52,-26.66"/>
</a>
</g>
</g>
</g>
</svg>
