<?xml version="1.0" encoding="UTF-8" standalone="no"?>
<!DOCTYPE svg PUBLIC "-//W3C//DTD SVG 1.1//EN"
 "http://www.w3.org/Graphics/SVG/1.1/DTD/svg11.dtd">
<!-- Generated by graphviz version 2.43.0 (0)
 -->
<!-- Title: services/DatasheetExporter.cpp Pages: 1 -->
<svg width="1649pt" height="247pt"
 viewBox="0.00 0.00 1649.00 247.00" xmlns="http://www.w3.org/2000/svg" xmlns:xlink="http://www.w3.org/1999/xlink">
<g id="graph0" class="graph" transform="scale(1 1) rotate(0) translate(4 243)">
<title>services/DatasheetExporter.cpp</title>
<!-- Node1 -->
<g id="Node000001" class="node">
<title>Node1</title>
<g id="a_Node000001"><a xlink:title=" ">
<polygon fill="#999999" stroke="#666666" points="1182.5,-239 1011.5,-239 1011.5,-220 1182.5,-220 1182.5,-239"/>
<text text-anchor="middle" x="1097" y="-227" font-family="Helvetica,sans-Serif" font-size="10.00">services/DatasheetExporter.cpp</text>
</a>
</g>
</g>
<!-- Node2 -->
<g id="Node000002" class="node">
<title>Node2</title>
<g id="a_Node000002"><a xlink:href="DatasheetExporter_8h.html" target="_top" xlink:title=" ">
<polygon fill="white" stroke="#666666" points="343,-129 227,-129 227,-110 343,-110 343,-129"/>
<text text-anchor="middle" x="285" y="-117" font-family="Helvetica,sans-Serif" font-size="10.00">DatasheetExporter.h</text>
</a>
</g>
</g>
<!-- Node1&#45;&gt;Node2 -->
<g id="edge1_Node000001_Node000002" class="edge">
<title>Node1&#45;&gt;Node2</title>
<g id="a_edge1_Node000001_Node000002"><a xlink:title=" ">
<path fill="none" stroke="#63b8ff" d="M1011.31,-227.48C895.89,-224.87 684.46,-215.73 507,-184 438.87,-171.82 361.65,-147.18 318.6,-132.43"/>
<polygon fill="#63b8ff" stroke="#63b8ff" points="319.52,-129.05 308.93,-129.09 317.24,-135.67 319.52,-129.05"/>
</a>
</g>
</g>
<!-- Node8 -->
<g id="Node000008" class="node">
<title>Node8</title>
<g id="a_Node000008"><a xlink:title=" ">
<polygon fill="#e0e0e0" stroke="#999999" points="304,-74 266,-74 266,-55 304,-55 304,-74"/>
<text text-anchor="middle" x="285" y="-62" font-family="Helvetica,sans-Serif" font-size="10.00">QDir</text>
</a>
</g>
</g>
<!-- Node1&#45;&gt;Node8 -->
<g id="edge44_Node000001_Node000008" class="edge">
<title>Node1&#45;&gt;Node8</title>
<g id="a_edge44_Node000001_Node000008"><a xlink:title=" ">
<path fill="none" stroke="#63b8ff" d="M1048.86,-219.99C955.4,-203.38 742.97,-165.06 565,-129 455.83,-106.88 425.63,-103.1 314.18,-74.15"/>
<polygon fill="#63b8ff" stroke="#63b8ff" points="314.78,-70.69 304.22,-71.56 313.02,-77.47 314.78,-70.69"/>
</a>
</g>
</g>
<!-- Node10 -->
<g id="Node000010" class="node">
<title>Node10</title>
<g id="a_Node000010"><a xlink:href="NetworkClient_8h.html" target="_top" xlink:title=" ">
<polygon fill="white" stroke="#666666" points="1115,-184 953,-184 953,-165 1115,-165 1115,-184"/>
<text text-anchor="middle" x="1034" y="-172" font-family="Helvetica,sans-Serif" font-size="10.00">core/network/NetworkClient.h</text>
</a>
</g>
</g>
<!-- Node1&#45;&gt;Node10 -->
<g id="edge10_Node000001_Node000010" class="edge">
<title>Node1&#45;&gt;Node10</title>
<g id="a_edge10_Node000001_Node000010"><a xlink:title=" ">
<path fill="none" stroke="#63b8ff" d="M1086.88,-219.98C1077.56,-212.15 1063.53,-200.34 1052.26,-190.86"/>
<polygon fill="#63b8ff" stroke="#63b8ff" points="1054.21,-187.93 1044.31,-184.17 1049.71,-193.29 1054.21,-187.93"/>
</a>
</g>
</g>
<!-- Node32 -->
<g id="Node000032" class="node">
<title>Node32</title>
<g id="a_Node000032"><a xlink:title=" ">
<polygon fill="#e0e0e0" stroke="#999999" points="1189,-184 1133,-184 1133,-165 1189,-165 1189,-184"/>
<text text-anchor="middle" x="1161" y="-172" font-family="Helvetica,sans-Serif" font-size="10.00">QDebug</text>
</a>
</g>
</g>
<!-- Node1&#45;&gt;Node32 -->
<g id="edge43_Node000001_Node000032" class="edge">
<title>Node1&#45;&gt;Node32</title>
<g id="a_edge43_Node000001_Node000032"><a xlink:title=" ">
<path fill="none" stroke="#63b8ff" d="M1107.28,-219.98C1116.84,-212.07 1131.28,-200.11 1142.78,-190.58"/>
<polygon fill="#63b8ff" stroke="#63b8ff" points="1145.06,-193.24 1150.53,-184.17 1140.6,-187.85 1145.06,-193.24"/>
</a>
</g>
</g>
<!-- Node33 -->
<g id="Node000033" class="node">
<title>Node33</title>
<g id="a_Node000033"><a xlink:title=" ">
<polygon fill="#e0e0e0" stroke="#999999" points="1248.5,-184 1207.5,-184 1207.5,-165 1248.5,-165 1248.5,-184"/>
<text text-anchor="middle" x="1228" y="-172" font-family="Helvetica,sans-Serif" font-size="10.00">QFile</text>
</a>
</g>
</g>
<!-- Node1&#45;&gt;Node33 -->
<g id="edge45_Node000001_Node000033" class="edge">
<title>Node1&#45;&gt;Node33</title>
<g id="a_edge45_Node000001_Node000033"><a xlink:title=" ">
<path fill="none" stroke="#63b8ff" d="M1118.05,-219.98C1139.66,-211.24 1173.5,-197.55 1197.93,-187.67"/>
<polygon fill="#63b8ff" stroke="#63b8ff" points="1199.48,-190.81 1207.44,-183.82 1196.85,-184.33 1199.48,-190.81"/>
</a>
</g>
</g>
<!-- Node34 -->
<g id="Node000034" class="node">
<title>Node34</title>
<g id="a_Node000034"><a xlink:title=" ">
<polygon fill="#e0e0e0" stroke="#999999" points="1327,-184 1267,-184 1267,-165 1327,-165 1327,-184"/>
<text text-anchor="middle" x="1297" y="-172" font-family="Helvetica,sans-Serif" font-size="10.00">QFileInfo</text>
</a>
</g>
</g>
<!-- Node1&#45;&gt;Node34 -->
<g id="edge46_Node000001_Node000034" class="edge">
<title>Node1&#45;&gt;Node34</title>
<g id="a_edge46_Node000001_Node000034"><a xlink:title=" ">
<path fill="none" stroke="#63b8ff" d="M1129.13,-219.98C1163.85,-210.78 1219.24,-196.11 1256.82,-186.15"/>
<polygon fill="#63b8ff" stroke="#63b8ff" points="1258.14,-189.42 1266.91,-183.47 1256.35,-182.65 1258.14,-189.42"/>
</a>
</g>
</g>
<!-- Node3 -->
<g id="Node000003" class="node">
<title>Node3</title>
<g id="a_Node000003"><a xlink:href="ExportProgress_8h.html" target="_top" xlink:title=" ">
<polygon fill="white" stroke="#666666" points="210,-74 76,-74 76,-55 210,-55 210,-74"/>
<text text-anchor="middle" x="143" y="-62" font-family="Helvetica,sans-Serif" font-size="10.00">export/ExportProgress.h</text>
</a>
</g>
</g>
<!-- Node2&#45;&gt;Node3 -->
<g id="edge2_Node000002_Node000003" class="edge">
<title>Node2&#45;&gt;Node3</title>
<g id="a_edge2_Node000002_Node000003"><a xlink:title=" ">
<path fill="none" stroke="#63b8ff" d="M262.19,-109.98C238.83,-101.27 202.3,-87.63 175.83,-77.75"/>
<polygon fill="#63b8ff" stroke="#63b8ff" points="176.82,-74.39 166.23,-74.17 174.37,-80.95 176.82,-74.39"/>
</a>
</g>
</g>
<!-- Node7 -->
<g id="Node000007" class="node">
<title>Node7</title>
<g id="a_Node000007"><a xlink:title=" ">
<polygon fill="#e0e0e0" stroke="#999999" points="295.5,-19 242.5,-19 242.5,0 295.5,0 295.5,-19"/>
<text text-anchor="middle" x="269" y="-7" font-family="Helvetica,sans-Serif" font-size="10.00">QString</text>
</a>
</g>
</g>
<!-- Node2&#45;&gt;Node7 -->
<g id="edge9_Node000002_Node000007" class="edge">
<title>Node2&#45;&gt;Node7</title>
<g id="a_edge9_Node000002_Node000007"><a xlink:title=" ">
<path fill="none" stroke="#63b8ff" d="M277.33,-109.7C270.48,-101.21 260.95,-87.68 257,-74 252.68,-59.01 256.59,-41.57 261.07,-28.76"/>
<polygon fill="#63b8ff" stroke="#63b8ff" points="264.41,-29.84 264.8,-19.25 257.89,-27.28 264.41,-29.84"/>
</a>
</g>
</g>
<!-- Node2&#45;&gt;Node8 -->
<g id="edge7_Node000002_Node000008" class="edge">
<title>Node2&#45;&gt;Node8</title>
<g id="a_edge7_Node000002_Node000008"><a xlink:title=" ">
<path fill="none" stroke="#63b8ff" d="M285,-109.75C285,-102.8 285,-92.85 285,-84.13"/>
<polygon fill="#63b8ff" stroke="#63b8ff" points="288.5,-84.09 285,-74.09 281.5,-84.09 288.5,-84.09"/>
</a>
</g>
</g>
<!-- Node9 -->
<g id="Node000009" class="node">
<title>Node9</title>
<g id="a_Node000009"><a xlink:title=" ">
<polygon fill="#e0e0e0" stroke="#999999" points="378,-74 322,-74 322,-55 378,-55 378,-74"/>
<text text-anchor="middle" x="350" y="-62" font-family="Helvetica,sans-Serif" font-size="10.00">QObject</text>
</a>
</g>
</g>
<!-- Node2&#45;&gt;Node9 -->
<g id="edge8_Node000002_Node000009" class="edge">
<title>Node2&#45;&gt;Node9</title>
<g id="a_edge8_Node000002_Node000009"><a xlink:title=" ">
<path fill="none" stroke="#63b8ff" d="M295.44,-109.98C305.15,-102.07 319.82,-90.11 331.5,-80.58"/>
<polygon fill="#63b8ff" stroke="#63b8ff" points="333.83,-83.2 339.37,-74.17 329.4,-77.78 333.83,-83.2"/>
</a>
</g>
</g>
<!-- Node4 -->
<g id="Node000004" class="node">
<title>Node4</title>
<g id="a_Node000004"><a xlink:title=" ">
<polygon fill="#e0e0e0" stroke="#999999" points="72,-19 0,-19 0,0 72,0 72,-19"/>
<text text-anchor="middle" x="36" y="-7" font-family="Helvetica,sans-Serif" font-size="10.00">QDateTime</text>
</a>
</g>
</g>
<!-- Node3&#45;&gt;Node4 -->
<g id="edge3_Node000003_Node000004" class="edge">
<title>Node3&#45;&gt;Node4</title>
<g id="a_edge3_Node000003_Node000004"><a xlink:title=" ">
<path fill="none" stroke="#63b8ff" d="M125.81,-54.98C108.75,-46.54 82.37,-33.47 62.6,-23.68"/>
<polygon fill="#63b8ff" stroke="#63b8ff" points="64.02,-20.47 53.5,-19.17 60.91,-26.75 64.02,-20.47"/>
</a>
</g>
</g>
<!-- Node5 -->
<g id="Node000005" class="node">
<title>Node5</title>
<g id="a_Node000005"><a xlink:title=" ">
<polygon fill="#e0e0e0" stroke="#999999" points="135.5,-19 90.5,-19 90.5,0 135.5,0 135.5,-19"/>
<text text-anchor="middle" x="113" y="-7" font-family="Helvetica,sans-Serif" font-size="10.00">QMap</text>
</a>
</g>
</g>
<!-- Node3&#45;&gt;Node5 -->
<g id="edge4_Node000003_Node000005" class="edge">
<title>Node3&#45;&gt;Node5</title>
<g id="a_edge4_Node000003_Node000005"><a xlink:title=" ">
<path fill="none" stroke="#63b8ff" d="M138.05,-54.75C133.94,-47.49 127.97,-36.95 122.9,-27.98"/>
<polygon fill="#63b8ff" stroke="#63b8ff" points="125.83,-26.07 117.86,-19.09 119.74,-29.52 125.83,-26.07"/>
</a>
</g>
</g>
<!-- Node6 -->
<g id="Node000006" class="node">
<title>Node6</title>
<g id="a_Node000006"><a xlink:title=" ">
<polygon fill="#e0e0e0" stroke="#999999" points="224.5,-19 153.5,-19 153.5,0 224.5,0 224.5,-19"/>
<text text-anchor="middle" x="189" y="-7" font-family="Helvetica,sans-Serif" font-size="10.00">QMetaType</text>
</a>
</g>
</g>
<!-- Node3&#45;&gt;Node6 -->
<g id="edge5_Node000003_Node000006" class="edge">
<title>Node3&#45;&gt;Node6</title>
<g id="a_edge5_Node000003_Node000006"><a xlink:title=" ">
<path fill="none" stroke="#63b8ff" d="M150.6,-54.75C157.16,-47.18 166.82,-36.05 174.81,-26.84"/>
<polygon fill="#63b8ff" stroke="#63b8ff" points="177.63,-28.94 181.55,-19.09 172.35,-24.35 177.63,-28.94"/>
</a>
</g>
</g>
<!-- Node3&#45;&gt;Node7 -->
<g id="edge6_Node000003_Node000007" class="edge">
<title>Node3&#45;&gt;Node7</title>
<g id="a_edge6_Node000003_Node000007"><a xlink:title=" ">
<path fill="none" stroke="#63b8ff" d="M163.24,-54.98C183.7,-46.38 215.53,-32.99 238.93,-23.15"/>
<polygon fill="#63b8ff" stroke="#63b8ff" points="240.53,-26.27 248.39,-19.17 237.81,-19.82 240.53,-26.27"/>
</a>
</g>
</g>
<!-- Node10&#45;&gt;Node9 -->
<g id="edge37_Node000010_Node000009" class="edge">
<title>Node10&#45;&gt;Node9</title>
<g id="a_edge37_Node000010_Node000009"><a xlink:title=" ">
<path fill="none" stroke="#63b8ff" d="M953.55,-165C881.25,-156.99 772.27,-144 678,-129 572.68,-112.24 449.45,-86.8 388.37,-73.79"/>
<polygon fill="#63b8ff" stroke="#63b8ff" points="388.92,-70.33 378.4,-71.66 387.45,-77.18 388.92,-70.33"/>
</a>
</g>
</g>
<!-- Node11 -->
<g id="Node000011" class="node">
<title>Node11</title>
<g id="a_Node000011"><a xlink:href="AsyncNetworkRequest_8h.html" target="_top" xlink:title=" ">
<polygon fill="white" stroke="#666666" points="968,-129 832,-129 832,-110 968,-110 968,-129"/>
<text text-anchor="middle" x="900" y="-117" font-family="Helvetica,sans-Serif" font-size="10.00">AsyncNetworkRequest.h</text>
</a>
</g>
</g>
<!-- Node10&#45;&gt;Node11 -->
<g id="edge11_Node000010_Node000011" class="edge">
<title>Node10&#45;&gt;Node11</title>
<g id="a_edge11_Node000010_Node000011"><a xlink:title=" ">
<path fill="none" stroke="#63b8ff" d="M1012.47,-164.98C990.53,-156.3 956.26,-142.75 931.31,-132.88"/>
<polygon fill="#63b8ff" stroke="#63b8ff" points="932.51,-129.59 921.92,-129.17 929.93,-136.1 932.51,-129.59"/>
</a>
</g>
</g>
<!-- Node12 -->
<g id="Node000012" class="node">
<title>Node12</title>
<g id="a_Node000012"><a xlink:href="INetworkClient_8h.html" target="_top" xlink:title=" ">
<polygon fill="white" stroke="#666666" points="599.5,-74 434.5,-74 434.5,-55 599.5,-55 599.5,-74"/>
<text text-anchor="middle" x="517" y="-62" font-family="Helvetica,sans-Serif" font-size="10.00">core/network/INetworkClient.h</text>
</a>
</g>
</g>
<!-- Node10&#45;&gt;Node12 -->
<g id="edge29_Node000010_Node000012" class="edge">
<title>Node10&#45;&gt;Node12</title>
<g id="a_edge29_Node000010_Node000012"><a xlink:title=" ">
<path fill="none" stroke="#63b8ff" d="M973.09,-164.96C918.38,-156.93 835.99,-143.93 765,-129 690.9,-113.41 605.58,-90.45 556.8,-76.83"/>
<polygon fill="#63b8ff" stroke="#63b8ff" points="557.54,-73.4 546.96,-74.07 555.65,-80.14 557.54,-73.4"/>
</a>
</g>
</g>
<!-- Node18 -->
<g id="Node000018" class="node">
<title>Node18</title>
<g id="a_Node000018"><a xlink:title=" ">
<polygon fill="#e0e0e0" stroke="#999999" points="710.5,-74 617.5,-74 617.5,-55 710.5,-55 710.5,-74"/>
<text text-anchor="middle" x="664" y="-62" font-family="Helvetica,sans-Serif" font-size="10.00">QNetworkReply</text>
</a>
</g>
</g>
<!-- Node10&#45;&gt;Node18 -->
<g id="edge35_Node000010_Node000018" class="edge">
<title>Node10&#45;&gt;Node18</title>
<g id="a_edge35_Node000010_Node000018"><a xlink:title=" ">
<path fill="none" stroke="#63b8ff" d="M981.34,-164.99C938.27,-157.42 876.03,-145.05 823,-129 776.02,-114.78 723.49,-92.48 692.12,-78.45"/>
<polygon fill="#63b8ff" stroke="#63b8ff" points="693.27,-75.13 682.71,-74.2 690.39,-81.51 693.27,-75.13"/>
</a>
</g>
</g>
<!-- Node21 -->
<g id="Node000021" class="node">
<title>Node21</title>
<g id="a_Node000021"><a xlink:title=" ">
<polygon fill="#e0e0e0" stroke="#999999" points="1455.5,-74 1400.5,-74 1400.5,-55 1455.5,-55 1455.5,-74"/>
<text text-anchor="middle" x="1428" y="-62" font-family="Helvetica,sans-Serif" font-size="10.00">QMutex</text>
</a>
</g>
</g>
<!-- Node10&#45;&gt;Node21 -->
<g id="edge34_Node000010_Node000021" class="edge">
<title>Node10&#45;&gt;Node21</title>
<g id="a_edge34_Node000010_Node000021"><a xlink:title=" ">
<path fill="none" stroke="#63b8ff" d="M1038.97,-164.7C1047.54,-150.47 1066.55,-122.7 1091,-110 1207.64,-49.4 1256.91,-95.16 1390,-74.11"/>
<polygon fill="#63b8ff" stroke="#63b8ff" points="1390.88,-77.51 1400.16,-72.4 1389.71,-70.61 1390.88,-77.51"/>
</a>
</g>
</g>
<!-- Node22 -->
<g id="Node000022" class="node">
<title>Node22</title>
<g id="a_Node000022"><a xlink:title=" ">
<polygon fill="#e0e0e0" stroke="#999999" points="1251.5,-74 1146.5,-74 1146.5,-55 1251.5,-55 1251.5,-74"/>
<text text-anchor="middle" x="1199" y="-62" font-family="Helvetica,sans-Serif" font-size="10.00">QNetworkRequest</text>
</a>
</g>
</g>
<!-- Node10&#45;&gt;Node22 -->
<g id="edge36_Node000010_Node000022" class="edge">
<title>Node10&#45;&gt;Node22</title>
<g id="a_edge36_Node000010_Node000022"><a xlink:title=" ">
<path fill="none" stroke="#63b8ff" d="M1027.99,-164.71C1019.76,-151.45 1007.35,-126.19 1020,-110 1027.7,-100.15 1092.68,-85.75 1142.14,-76.02"/>
<polygon fill="#63b8ff" stroke="#63b8ff" points="1142.98,-79.42 1152.12,-74.08 1141.64,-72.55 1142.98,-79.42"/>
</a>
</g>
</g>
<!-- Node23 -->
<g id="Node000023" class="node">
<title>Node23</title>
<g id="a_Node000023"><a xlink:title=" ">
<polygon fill="#e0e0e0" stroke="#999999" points="1382.5,-74 1269.5,-74 1269.5,-55 1382.5,-55 1382.5,-74"/>
<text text-anchor="middle" x="1326" y="-62" font-family="Helvetica,sans-Serif" font-size="10.00">QRandomGenerator</text>
</a>
</g>
</g>
<!-- Node10&#45;&gt;Node23 -->
<g id="edge40_Node000010_Node000023" class="edge">
<title>Node10&#45;&gt;Node23</title>
<g id="a_edge40_Node000010_Node000023"><a xlink:title=" ">
<path fill="none" stroke="#63b8ff" d="M1034.6,-164.97C1036.06,-151.12 1041.05,-123.9 1058,-110 1065.79,-103.61 1182.52,-85.93 1259.33,-74.88"/>
<polygon fill="#63b8ff" stroke="#63b8ff" points="1260.02,-78.32 1269.42,-73.43 1259.03,-71.39 1260.02,-78.32"/>
</a>
</g>
</g>
<!-- Node25 -->
<g id="Node000025" class="node">
<title>Node25</title>
<g id="a_Node000025"><a xlink:href="TestableSingleton_8h.html" target="_top" xlink:title=" ">
<polygon fill="white" stroke="#666666" points="1236,-129 1100,-129 1100,-110 1236,-110 1236,-129"/>
<text text-anchor="middle" x="1168" y="-117" font-family="Helvetica,sans-Serif" font-size="10.00">utils/TestableSingleton.h</text>
</a>
</g>
</g>
<!-- Node10&#45;&gt;Node25 -->
<g id="edge30_Node000010_Node000025" class="edge">
<title>Node10&#45;&gt;Node25</title>
<g id="a_edge30_Node000010_Node000025"><a xlink:title=" ">
<path fill="none" stroke="#63b8ff" d="M1055.53,-164.98C1077.47,-156.3 1111.74,-142.75 1136.69,-132.88"/>
<polygon fill="#63b8ff" stroke="#63b8ff" points="1138.07,-136.1 1146.08,-129.17 1135.49,-129.59 1138.07,-136.1"/>
</a>
</g>
</g>
<!-- Node27 -->
<g id="Node000027" class="node">
<title>Node27</title>
<g id="a_Node000027"><a xlink:title=" ">
<polygon fill="#e0e0e0" stroke="#999999" points="1303.5,-129 1254.5,-129 1254.5,-110 1303.5,-110 1303.5,-129"/>
<text text-anchor="middle" x="1279" y="-117" font-family="Helvetica,sans-Serif" font-size="10.00">QHash</text>
</a>
</g>
</g>
<!-- Node10&#45;&gt;Node27 -->
<g id="edge33_Node000010_Node000027" class="edge">
<title>Node10&#45;&gt;Node27</title>
<g id="a_edge33_Node000010_Node000027"><a xlink:title=" ">
<path fill="none" stroke="#63b8ff" d="M1076.94,-164.93C1117.56,-156.71 1180.48,-143.71 1244.31,-129.09"/>
<polygon fill="#63b8ff" stroke="#63b8ff" points="1245.18,-132.48 1254.14,-126.83 1243.61,-125.66 1245.18,-132.48"/>
</a>
</g>
</g>
<!-- Node28 -->
<g id="Node000028" class="node">
<title>Node28</title>
<g id="a_Node000028"><a xlink:title=" ">
<polygon fill="#e0e0e0" stroke="#999999" points="1380.5,-129 1321.5,-129 1321.5,-110 1380.5,-110 1380.5,-129"/>
<text text-anchor="middle" x="1351" y="-117" font-family="Helvetica,sans-Serif" font-size="10.00">QPointer</text>
</a>
</g>
</g>
<!-- Node10&#45;&gt;Node28 -->
<g id="edge38_Node000010_Node000028" class="edge">
<title>Node10&#45;&gt;Node28</title>
<g id="a_edge38_Node000010_Node000028"><a xlink:title=" ">
<path fill="none" stroke="#63b8ff" d="M1094.33,-164.98C1148.64,-157.06 1230.88,-144.45 1310.91,-129.31"/>
<polygon fill="#63b8ff" stroke="#63b8ff" points="1312,-132.67 1321.17,-127.36 1310.69,-125.79 1312,-132.67"/>
</a>
</g>
</g>
<!-- Node29 -->
<g id="Node000029" class="node">
<title>Node29</title>
<g id="a_Node000029"><a xlink:title=" ">
<polygon fill="#e0e0e0" stroke="#999999" points="1455,-129 1399,-129 1399,-110 1455,-110 1455,-129"/>
<text text-anchor="middle" x="1427" y="-117" font-family="Helvetica,sans-Serif" font-size="10.00">QQueue</text>
</a>
</g>
</g>
<!-- Node10&#45;&gt;Node29 -->
<g id="edge39_Node000010_Node000029" class="edge">
<title>Node10&#45;&gt;Node29</title>
<g id="a_edge39_Node000010_Node000029"><a xlink:title=" ">
<path fill="none" stroke="#63b8ff" d="M1115.3,-165.71C1185.35,-158.45 1289.35,-146.38 1388.85,-129.04"/>
<polygon fill="#63b8ff" stroke="#63b8ff" points="1389.54,-132.48 1398.78,-127.29 1388.32,-125.58 1389.54,-132.48"/>
</a>
</g>
</g>
<!-- Node30 -->
<g id="Node000030" class="node">
<title>Node30</title>
<g id="a_Node000030"><a xlink:title=" ">
<polygon fill="#e0e0e0" stroke="#999999" points="1531,-129 1473,-129 1473,-110 1531,-110 1531,-129"/>
<text text-anchor="middle" x="1502" y="-117" font-family="Helvetica,sans-Serif" font-size="10.00">QThread</text>
</a>
</g>
</g>
<!-- Node10&#45;&gt;Node30 -->
<g id="edge41_Node000010_Node000030" class="edge">
<title>Node10&#45;&gt;Node30</title>
<g id="a_edge41_Node000010_Node000030"><a xlink:title=" ">
<path fill="none" stroke="#63b8ff" d="M1115.42,-165.59C1223.1,-155.06 1405.14,-136.98 1462.58,-128.94"/>
<polygon fill="#63b8ff" stroke="#63b8ff" points="1463.24,-132.38 1472.61,-127.43 1462.2,-125.46 1463.24,-132.38"/>
</a>
</g>
</g>
<!-- Node31 -->
<g id="Node000031" class="node">
<title>Node31</title>
<g id="a_Node000031"><a xlink:title=" ">
<polygon fill="#e0e0e0" stroke="#999999" points="1641,-129 1549,-129 1549,-110 1641,-110 1641,-129"/>
<text text-anchor="middle" x="1595" y="-117" font-family="Helvetica,sans-Serif" font-size="10.00">QWaitCondition</text>
</a>
</g>
</g>
<!-- Node10&#45;&gt;Node31 -->
<g id="edge42_Node000010_Node000031" class="edge">
<title>Node10&#45;&gt;Node31</title>
<g id="a_edge42_Node000010_Node000031"><a xlink:title=" ">
<path fill="none" stroke="#63b8ff" d="M1115.43,-165.78C1118.32,-165.52 1121.19,-165.25 1124,-165 1305.58,-148.57 1354.06,-151.09 1538.77,-129.07"/>
<polygon fill="#63b8ff" stroke="#63b8ff" points="1539.31,-132.53 1548.82,-127.87 1538.47,-125.58 1539.31,-132.53"/>
</a>
</g>
</g>
<!-- Node11&#45;&gt;Node9 -->
<g id="edge25_Node000011_Node000009" class="edge">
<title>Node11&#45;&gt;Node9</title>
<g id="a_edge25_Node000011_Node000009"><a xlink:title=" ">
<path fill="none" stroke="#63b8ff" d="M831.93,-114.97C734.2,-109.36 548.62,-96.64 392,-74 390.9,-73.84 389.78,-73.67 388.65,-73.49"/>
<polygon fill="#63b8ff" stroke="#63b8ff" points="388.85,-69.97 378.39,-71.7 387.64,-76.87 388.85,-69.97"/>
</a>
</g>
</g>
<!-- Node11&#45;&gt;Node12 -->
<g id="edge12_Node000011_Node000012" class="edge">
<title>Node11&#45;&gt;Node12</title>
<g id="a_edge12_Node000011_Node000012"><a xlink:title=" ">
<path fill="none" stroke="#63b8ff" d="M838.46,-109.98C770.44,-100.57 661,-85.43 589.04,-75.47"/>
<polygon fill="#63b8ff" stroke="#63b8ff" points="589.09,-71.94 578.7,-74.04 588.13,-78.88 589.09,-71.94"/>
</a>
</g>
</g>
<!-- Node13 -->
<g id="Node000013" class="node">
<title>Node13</title>
<g id="a_Node000013"><a xlink:title=" ">
<polygon fill="#e0e0e0" stroke="#999999" points="450.5,-19 377.5,-19 377.5,0 450.5,0 450.5,-19"/>
<text text-anchor="middle" x="414" y="-7" font-family="Helvetica,sans-Serif" font-size="10.00">QByteArray</text>
</a>
</g>
</g>
<!-- Node11&#45;&gt;Node13 -->
<g id="edge21_Node000011_Node000013" class="edge">
<title>Node11&#45;&gt;Node13</title>
<g id="a_edge21_Node000011_Node000013"><a xlink:title=" ">
<path fill="none" stroke="#63b8ff" d="M831.74,-116.62C707.44,-112.56 454.23,-101.03 425,-74 413.07,-62.97 411.14,-44.03 411.7,-29.69"/>
<polygon fill="#63b8ff" stroke="#63b8ff" points="415.21,-29.68 412.53,-19.43 408.23,-29.11 415.21,-29.68"/>
</a>
</g>
</g>
<!-- Node14 -->
<g id="Node000014" class="node">
<title>Node14</title>
<g id="a_Node000014"><a xlink:title=" ">
<polygon fill="#e0e0e0" stroke="#999999" points="711,-19 673,-19 673,0 711,0 711,-19"/>
<text text-anchor="middle" x="692" y="-7" font-family="Helvetica,sans-Serif" font-size="10.00">QUrl</text>
</a>
</g>
</g>
<!-- Node11&#45;&gt;Node14 -->
<g id="edge28_Node000011_Node000014" class="edge">
<title>Node11&#45;&gt;Node14</title>
<g id="a_edge28_Node000011_Node000014"><a xlink:title=" ">
<path fill="none" stroke="#63b8ff" d="M854.93,-109.99C825.85,-103.18 788.01,-91.78 758,-74 737.16,-61.65 717.74,-41.5 705.44,-27.22"/>
<polygon fill="#63b8ff" stroke="#63b8ff" points="707.85,-24.64 698.75,-19.2 702.47,-29.12 707.85,-24.64"/>
</a>
</g>
</g>
<!-- Node17 -->
<g id="Node000017" class="node">
<title>Node17</title>
<g id="a_Node000017"><a xlink:title=" ">
<polygon fill="#e0e0e0" stroke="#999999" points="909,-74 767,-74 767,-55 909,-55 909,-74"/>
<text text-anchor="middle" x="838" y="-62" font-family="Helvetica,sans-Serif" font-size="10.00">QNetworkAccessManager</text>
</a>
</g>
</g>
<!-- Node11&#45;&gt;Node17 -->
<g id="edge18_Node000011_Node000017" class="edge">
<title>Node11&#45;&gt;Node17</title>
<g id="a_edge18_Node000011_Node000017"><a xlink:title=" ">
<path fill="none" stroke="#63b8ff" d="M890.04,-109.98C880.87,-102.15 867.06,-90.34 855.97,-80.86"/>
<polygon fill="#63b8ff" stroke="#63b8ff" points="858.02,-78.01 848.14,-74.17 853.47,-83.33 858.02,-78.01"/>
</a>
</g>
</g>
<!-- Node11&#45;&gt;Node18 -->
<g id="edge19_Node000011_Node000018" class="edge">
<title>Node11&#45;&gt;Node18</title>
<g id="a_edge19_Node000011_Node000018"><a xlink:title=" ">
<path fill="none" stroke="#63b8ff" d="M862.08,-109.98C821.35,-100.84 756.5,-86.27 712.18,-76.32"/>
<polygon fill="#63b8ff" stroke="#63b8ff" points="712.74,-72.86 702.21,-74.08 711.2,-79.69 712.74,-72.86"/>
</a>
</g>
</g>
<!-- Node19 -->
<g id="Node000019" class="node">
<title>Node19</title>
<g id="a_Node000019"><a xlink:title=" ">
<polygon fill="#e0e0e0" stroke="#999999" points="998.5,-74 927.5,-74 927.5,-55 998.5,-55 998.5,-74"/>
<text text-anchor="middle" x="963" y="-62" font-family="Helvetica,sans-Serif" font-size="10.00">QAtomicInt</text>
</a>
</g>
</g>
<!-- Node11&#45;&gt;Node19 -->
<g id="edge20_Node000011_Node000019" class="edge">
<title>Node11&#45;&gt;Node19</title>
<g id="a_edge20_Node000011_Node000019"><a xlink:title=" ">
<path fill="none" stroke="#63b8ff" d="M910.12,-109.98C919.44,-102.15 933.47,-90.34 944.74,-80.86"/>
<polygon fill="#63b8ff" stroke="#63b8ff" points="947.29,-83.29 952.69,-74.17 942.79,-77.93 947.29,-83.29"/>
</a>
</g>
</g>
<!-- Node20 -->
<g id="Node000020" class="node">
<title>Node20</title>
<g id="a_Node000020"><a xlink:title=" ">
<polygon fill="#e0e0e0" stroke="#999999" points="1057.5,-74 1016.5,-74 1016.5,-55 1057.5,-55 1057.5,-74"/>
<text text-anchor="middle" x="1037" y="-62" font-family="Helvetica,sans-Serif" font-size="10.00">QList</text>
</a>
</g>
</g>
<!-- Node11&#45;&gt;Node20 -->
<g id="edge22_Node000011_Node000020" class="edge">
<title>Node11&#45;&gt;Node20</title>
<g id="a_edge22_Node000011_Node000020"><a xlink:title=" ">
<path fill="none" stroke="#63b8ff" d="M922.01,-109.98C944.98,-101.1 981.16,-87.1 1006.79,-77.19"/>
<polygon fill="#63b8ff" stroke="#63b8ff" points="1008.32,-80.35 1016.39,-73.47 1005.8,-73.82 1008.32,-80.35"/>
</a>
</g>
</g>
<!-- Node11&#45;&gt;Node21 -->
<g id="edge23_Node000011_Node000021" class="edge">
<title>Node11&#45;&gt;Node21</title>
<g id="a_edge23_Node000011_Node000021"><a xlink:title=" ">
<path fill="none" stroke="#63b8ff" d="M968.03,-115.4C1061.27,-110.47 1234.11,-98.92 1389.93,-74.13"/>
<polygon fill="#63b8ff" stroke="#63b8ff" points="1390.86,-77.53 1400.17,-72.48 1389.74,-70.62 1390.86,-77.53"/>
</a>
</g>
</g>
<!-- Node11&#45;&gt;Node22 -->
<g id="edge24_Node000011_Node000022" class="edge">
<title>Node11&#45;&gt;Node22</title>
<g id="a_edge24_Node000011_Node000022"><a xlink:title=" ">
<path fill="none" stroke="#63b8ff" d="M948.04,-109.98C1000.41,-100.7 1084.24,-85.84 1140.43,-75.88"/>
<polygon fill="#63b8ff" stroke="#63b8ff" points="1141.35,-79.27 1150.58,-74.08 1140.13,-72.38 1141.35,-79.27"/>
</a>
</g>
</g>
<!-- Node11&#45;&gt;Node23 -->
<g id="edge26_Node000011_Node000023" class="edge">
<title>Node11&#45;&gt;Node23</title>
<g id="a_edge26_Node000011_Node000023"><a xlink:title=" ">
<path fill="none" stroke="#63b8ff" d="M968.22,-110.24C1038.62,-101.69 1151.93,-87.82 1259.25,-74.22"/>
<polygon fill="#63b8ff" stroke="#63b8ff" points="1259.8,-77.67 1269.28,-72.94 1258.92,-70.73 1259.8,-77.67"/>
</a>
</g>
</g>
<!-- Node24 -->
<g id="Node000024" class="node">
<title>Node24</title>
<g id="a_Node000024"><a xlink:title=" ">
<polygon fill="#e0e0e0" stroke="#999999" points="1128.5,-74 1075.5,-74 1075.5,-55 1128.5,-55 1128.5,-74"/>
<text text-anchor="middle" x="1102" y="-62" font-family="Helvetica,sans-Serif" font-size="10.00">QTimer</text>
</a>
</g>
</g>
<!-- Node11&#45;&gt;Node24 -->
<g id="edge27_Node000011_Node000024" class="edge">
<title>Node11&#45;&gt;Node24</title>
<g id="a_edge27_Node000011_Node000024"><a xlink:title=" ">
<path fill="none" stroke="#63b8ff" d="M932.45,-109.98C968.75,-100.46 1027.39,-85.08 1065.32,-75.12"/>
<polygon fill="#63b8ff" stroke="#63b8ff" points="1066.65,-78.39 1075.43,-72.47 1064.87,-71.62 1066.65,-78.39"/>
</a>
</g>
</g>
<!-- Node12&#45;&gt;Node7 -->
<g id="edge14_Node000012_Node000007" class="edge">
<title>Node12&#45;&gt;Node7</title>
<g id="a_edge14_Node000012_Node000007"><a xlink:title=" ">
<path fill="none" stroke="#63b8ff" d="M477.15,-54.98C429.8,-44.86 351.45,-28.12 305.58,-18.32"/>
<polygon fill="#63b8ff" stroke="#63b8ff" points="306.26,-14.88 295.75,-16.22 304.8,-21.73 306.26,-14.88"/>
</a>
</g>
</g>
<!-- Node12&#45;&gt;Node13 -->
<g id="edge13_Node000012_Node000013" class="edge">
<title>Node12&#45;&gt;Node13</title>
<g id="a_edge13_Node000012_Node000013"><a xlink:title=" ">
<path fill="none" stroke="#63b8ff" d="M500.45,-54.98C484.11,-46.57 458.87,-33.59 439.87,-23.81"/>
<polygon fill="#63b8ff" stroke="#63b8ff" points="441.34,-20.63 430.85,-19.17 438.14,-26.86 441.34,-20.63"/>
</a>
</g>
</g>
<!-- Node12&#45;&gt;Node14 -->
<g id="edge15_Node000012_Node000014" class="edge">
<title>Node12&#45;&gt;Node14</title>
<g id="a_edge15_Node000012_Node000014"><a xlink:title=" ">
<path fill="none" stroke="#63b8ff" d="M545.12,-54.98C577.37,-45.22 630.02,-29.27 662.75,-19.36"/>
<polygon fill="#63b8ff" stroke="#63b8ff" points="664.07,-22.62 672.62,-16.37 662.04,-15.92 664.07,-22.62"/>
</a>
</g>
</g>
<!-- Node15 -->
<g id="Node000015" class="node">
<title>Node15</title>
<g id="a_Node000015"><a xlink:title=" ">
<polygon fill="#e0e0e0" stroke="#999999" points="537.5,-19 482.5,-19 482.5,0 537.5,0 537.5,-19"/>
<text text-anchor="middle" x="510" y="-7" font-family="Helvetica,sans-Serif" font-size="10.00">QVector</text>
</a>
</g>
</g>
<!-- Node12&#45;&gt;Node15 -->
<g id="edge16_Node000012_Node000015" class="edge">
<title>Node12&#45;&gt;Node15</title>
<g id="a_edge16_Node000012_Node000015"><a xlink:title=" ">
<path fill="none" stroke="#63b8ff" d="M515.84,-54.75C514.93,-47.8 513.61,-37.85 512.46,-29.13"/>
<polygon fill="#63b8ff" stroke="#63b8ff" points="515.91,-28.54 511.13,-19.09 508.97,-29.46 515.91,-28.54"/>
</a>
</g>
</g>
<!-- Node16 -->
<g id="Node000016" class="node">
<title>Node16</title>
<g id="a_Node000016"><a xlink:title=" ">
<polygon fill="#e0e0e0" stroke="#999999" points="614.5,-19 555.5,-19 555.5,0 614.5,0 614.5,-19"/>
<text text-anchor="middle" x="585" y="-7" font-family="Helvetica,sans-Serif" font-size="10.00">QtGlobal</text>
</a>
</g>
</g>
<!-- Node12&#45;&gt;Node16 -->
<g id="edge17_Node000012_Node000016" class="edge">
<title>Node12&#45;&gt;Node16</title>
<g id="a_edge17_Node000012_Node000016"><a xlink:title=" ">
<path fill="none" stroke="#63b8ff" d="M527.93,-54.98C538.08,-47.07 553.42,-35.11 565.65,-25.58"/>
<polygon fill="#63b8ff" stroke="#63b8ff" points="568.14,-28.08 573.88,-19.17 563.84,-22.56 568.14,-28.08"/>
</a>
</g>
</g>
<!-- Node25&#45;&gt;Node21 -->
<g id="edge31_Node000025_Node000021" class="edge">
<title>Node25&#45;&gt;Node21</title>
<g id="a_edge31_Node000025_Node000021"><a xlink:title=" ">
<path fill="none" stroke="#63b8ff" d="M1213.57,-109.94C1256.78,-101.72 1323.75,-88.68 1390.3,-74.32"/>
<polygon fill="#63b8ff" stroke="#63b8ff" points="1391.08,-77.73 1400.11,-72.19 1389.6,-70.89 1391.08,-77.73"/>
</a>
</g>
</g>
<!-- Node26 -->
<g id="Node000026" class="node">
<title>Node26</title>
<g id="a_Node000026"><a xlink:title=" ">
<polygon fill="#e0e0e0" stroke="#999999" points="1560,-74 1474,-74 1474,-55 1560,-55 1560,-74"/>
<text text-anchor="middle" x="1517" y="-62" font-family="Helvetica,sans-Serif" font-size="10.00">QMutexLocker</text>
</a>
</g>
</g>
<!-- Node25&#45;&gt;Node26 -->
<g id="edge32_Node000025_Node000026" class="edge">
<title>Node25&#45;&gt;Node26</title>
<g id="a_edge32_Node000025_Node000026"><a xlink:title=" ">
<path fill="none" stroke="#63b8ff" d="M1226.36,-109.99C1284.11,-101.52 1375.31,-87.99 1463.92,-74.15"/>
<polygon fill="#63b8ff" stroke="#63b8ff" points="1464.54,-77.6 1473.88,-72.59 1463.46,-70.68 1464.54,-77.6"/>
</a>
</g>
</g>
</g>
</svg>
