<?xml version="1.0" encoding="UTF-8" standalone="no"?>
<!DOCTYPE svg PUBLIC "-//W3C//DTD SVG 1.1//EN"
 "http://www.w3.org/Graphics/SVG/1.1/DTD/svg11.dtd">
<!-- Generated by graphviz version 2.43.0 (0)
 -->
<!-- Title: services/export/DatasheetExportStage.cpp Pages: 1 -->
<svg width="1949pt" height="258pt"
 viewBox="0.00 0.00 1948.85 258.00" xmlns="http://www.w3.org/2000/svg" xmlns:xlink="http://www.w3.org/1999/xlink">
<g id="graph0" class="graph" transform="scale(1 1) rotate(0) translate(4 254)">
<title>services/export/DatasheetExportStage.cpp</title>
<!-- Node1 -->
<g id="Node000001" class="node">
<title>Node1</title>
<g id="a_Node000001"><a xlink:title=" ">
<polygon fill="#999999" stroke="#666666" points="1443.5,-250 1298.5,-250 1298.5,-220 1443.5,-220 1443.5,-250"/>
<text text-anchor="start" x="1306.5" y="-238" font-family="Helvetica,sans-Serif" font-size="10.00">services/export/Datasheet</text>
<text text-anchor="middle" x="1371" y="-227" font-family="Helvetica,sans-Serif" font-size="10.00">ExportStage.cpp</text>
</a>
</g>
</g>
<!-- Node2 -->
<g id="Node000002" class="node">
<title>Node2</title>
<g id="a_Node000002"><a xlink:href="DatasheetExportStage_8h.html" target="_top" xlink:title=" ">
<polygon fill="white" stroke="#666666" points="986.5,-184 851.5,-184 851.5,-165 986.5,-165 986.5,-184"/>
<text text-anchor="middle" x="919" y="-172" font-family="Helvetica,sans-Serif" font-size="10.00">DatasheetExportStage.h</text>
</a>
</g>
</g>
<!-- Node1&#45;&gt;Node2 -->
<g id="edge1_Node000001_Node000002" class="edge">
<title>Node1&#45;&gt;Node2</title>
<g id="a_edge1_Node000001_Node000002"><a xlink:title=" ">
<path fill="none" stroke="#63b8ff" d="M1298.38,-224.6C1215.17,-213.83 1079.43,-196.26 994.88,-185.32"/>
<polygon fill="#63b8ff" stroke="#63b8ff" points="995.19,-181.83 984.83,-184.02 994.29,-188.77 995.19,-181.83"/>
</a>
</g>
</g>
<!-- Node19 -->
<g id="Node000019" class="node">
<title>Node19</title>
<g id="a_Node000019"><a xlink:title=" ">
<polygon fill="#e0e0e0" stroke="#999999" points="1336,-74 1298,-74 1298,-55 1336,-55 1336,-74"/>
<text text-anchor="middle" x="1317" y="-62" font-family="Helvetica,sans-Serif" font-size="10.00">QDir</text>
</a>
</g>
</g>
<!-- Node1&#45;&gt;Node19 -->
<g id="edge63_Node000001_Node000019" class="edge">
<title>Node1&#45;&gt;Node19</title>
<g id="a_edge63_Node000001_Node000019"><a xlink:title=" ">
<path fill="none" stroke="#63b8ff" d="M1366.49,-219.92C1356.75,-189.52 1333.74,-117.73 1322.87,-83.83"/>
<polygon fill="#63b8ff" stroke="#63b8ff" points="1326.19,-82.71 1319.81,-74.25 1319.52,-84.85 1326.19,-82.71"/>
</a>
</g>
</g>
<!-- Node22 -->
<g id="Node000022" class="node">
<title>Node22</title>
<g id="a_Node000022"><a xlink:href="DatasheetExportWorker_8h.html" target="_top" xlink:title=" ">
<polygon fill="white" stroke="#666666" points="314,-129 174,-129 174,-110 314,-110 314,-129"/>
<text text-anchor="middle" x="244" y="-117" font-family="Helvetica,sans-Serif" font-size="10.00">DatasheetExportWorker.h</text>
</a>
</g>
</g>
<!-- Node1&#45;&gt;Node22 -->
<g id="edge28_Node000001_Node000022" class="edge">
<title>Node1&#45;&gt;Node22</title>
<g id="a_edge28_Node000001_Node000022"><a xlink:title=" ">
<path fill="none" stroke="#63b8ff" d="M1298.24,-227.39C1196.23,-218.06 1004.92,-200.35 842,-184 656.71,-165.41 439.32,-141.9 324.51,-129.35"/>
<polygon fill="#63b8ff" stroke="#63b8ff" points="324.72,-125.85 314.4,-128.24 323.96,-132.81 324.72,-125.85"/>
</a>
</g>
</g>
<!-- Node25 -->
<g id="Node000025" class="node">
<title>Node25</title>
<g id="a_Node000025"><a xlink:href="ComponentData_8h.html" target="_top" xlink:title=" ">
<polygon fill="white" stroke="#666666" points="1517,-184 1373,-184 1373,-165 1517,-165 1517,-184"/>
<text text-anchor="middle" x="1445" y="-172" font-family="Helvetica,sans-Serif" font-size="10.00">models/ComponentData.h</text>
</a>
</g>
</g>
<!-- Node1&#45;&gt;Node25 -->
<g id="edge39_Node000001_Node000025" class="edge">
<title>Node1&#45;&gt;Node25</title>
<g id="a_edge39_Node000001_Node000025"><a xlink:title=" ">
<path fill="none" stroke="#63b8ff" d="M1388.91,-219.84C1400.09,-211 1414.48,-199.63 1425.88,-190.62"/>
<polygon fill="#63b8ff" stroke="#63b8ff" points="1428.24,-193.21 1433.91,-184.27 1423.9,-187.72 1428.24,-193.21"/>
</a>
</g>
</g>
<!-- Node35 -->
<g id="Node000035" class="node">
<title>Node35</title>
<g id="a_Node000035"><a xlink:title=" ">
<polygon fill="#e0e0e0" stroke="#999999" points="1591,-184 1535,-184 1535,-165 1591,-165 1591,-184"/>
<text text-anchor="middle" x="1563" y="-172" font-family="Helvetica,sans-Serif" font-size="10.00">QDebug</text>
</a>
</g>
</g>
<!-- Node1&#45;&gt;Node35 -->
<g id="edge62_Node000001_Node000035" class="edge">
<title>Node1&#45;&gt;Node35</title>
<g id="a_edge62_Node000001_Node000035"><a xlink:title=" ">
<path fill="none" stroke="#63b8ff" d="M1416.99,-219.99C1450.12,-209.89 1494.29,-196.44 1525.34,-186.98"/>
<polygon fill="#63b8ff" stroke="#63b8ff" points="1526.38,-190.32 1534.93,-184.05 1524.34,-183.62 1526.38,-190.32"/>
</a>
</g>
</g>
<!-- Node36 -->
<g id="Node000036" class="node">
<title>Node36</title>
<g id="a_Node000036"><a xlink:title=" ">
<polygon fill="#e0e0e0" stroke="#999999" points="1668.5,-184 1609.5,-184 1609.5,-165 1668.5,-165 1668.5,-184"/>
<text text-anchor="middle" x="1639" y="-172" font-family="Helvetica,sans-Serif" font-size="10.00">QPointer</text>
</a>
</g>
</g>
<!-- Node1&#45;&gt;Node36 -->
<g id="edge64_Node000001_Node000036" class="edge">
<title>Node1&#45;&gt;Node36</title>
<g id="a_edge64_Node000001_Node000036"><a xlink:title=" ">
<path fill="none" stroke="#63b8ff" d="M1435.19,-219.99C1486.37,-208.82 1556.4,-193.53 1599.62,-184.1"/>
<polygon fill="#63b8ff" stroke="#63b8ff" points="1600.45,-187.5 1609.47,-181.95 1598.96,-180.66 1600.45,-187.5"/>
</a>
</g>
</g>
<!-- Node3 -->
<g id="Node000003" class="node">
<title>Node3</title>
<g id="a_Node000003"><a xlink:href="ExportProgress_8h.html" target="_top" xlink:title=" ">
<polygon fill="white" stroke="#666666" points="254.5,-74 155.5,-74 155.5,-55 254.5,-55 254.5,-74"/>
<text text-anchor="middle" x="205" y="-62" font-family="Helvetica,sans-Serif" font-size="10.00">ExportProgress.h</text>
</a>
</g>
</g>
<!-- Node2&#45;&gt;Node3 -->
<g id="edge2_Node000002_Node000003" class="edge">
<title>Node2&#45;&gt;Node3</title>
<g id="a_edge2_Node000002_Node000003"><a xlink:title=" ">
<path fill="none" stroke="#63b8ff" d="M851.21,-166.96C775.41,-159.3 649.1,-145.56 541,-129 439.07,-113.39 320.76,-89.73 255.24,-76.13"/>
<polygon fill="#63b8ff" stroke="#63b8ff" points="255.69,-72.65 245.19,-74.03 254.26,-79.5 255.69,-72.65"/>
</a>
</g>
</g>
<!-- Node8 -->
<g id="Node000008" class="node">
<title>Node8</title>
<g id="a_Node000008"><a xlink:href="ExportTypeStage_8h.html" target="_top" xlink:title=" ">
<polygon fill="white" stroke="#666666" points="735.5,-129 628.5,-129 628.5,-110 735.5,-110 735.5,-129"/>
<text text-anchor="middle" x="682" y="-117" font-family="Helvetica,sans-Serif" font-size="10.00">ExportTypeStage.h</text>
</a>
</g>
</g>
<!-- Node2&#45;&gt;Node8 -->
<g id="edge7_Node000002_Node000008" class="edge">
<title>Node2&#45;&gt;Node8</title>
<g id="a_edge7_Node000002_Node000008"><a xlink:title=" ">
<path fill="none" stroke="#63b8ff" d="M880.92,-164.98C840.01,-155.84 774.89,-141.27 730.38,-131.32"/>
<polygon fill="#63b8ff" stroke="#63b8ff" points="730.9,-127.85 720.38,-129.08 729.37,-134.68 730.9,-127.85"/>
</a>
</g>
</g>
<!-- Node18 -->
<g id="Node000018" class="node">
<title>Node18</title>
<g id="a_Node000018"><a xlink:href="TempFileManager_8h.html" target="_top" xlink:title=" ">
<polygon fill="white" stroke="#666666" points="1164.5,-129 1053.5,-129 1053.5,-110 1164.5,-110 1164.5,-129"/>
<text text-anchor="middle" x="1109" y="-117" font-family="Helvetica,sans-Serif" font-size="10.00">TempFileManager.h</text>
</a>
</g>
</g>
<!-- Node2&#45;&gt;Node18 -->
<g id="edge20_Node000002_Node000018" class="edge">
<title>Node2&#45;&gt;Node18</title>
<g id="a_edge20_Node000002_Node000018"><a xlink:title=" ">
<path fill="none" stroke="#63b8ff" d="M949.53,-164.98C981.7,-156.01 1032.56,-141.82 1068.17,-131.89"/>
<polygon fill="#63b8ff" stroke="#63b8ff" points="1069.54,-135.14 1078.23,-129.08 1067.66,-128.4 1069.54,-135.14"/>
</a>
</g>
</g>
<!-- Node4 -->
<g id="Node000004" class="node">
<title>Node4</title>
<g id="a_Node000004"><a xlink:title=" ">
<polygon fill="#e0e0e0" stroke="#999999" points="201,-19 129,-19 129,0 201,0 201,-19"/>
<text text-anchor="middle" x="165" y="-7" font-family="Helvetica,sans-Serif" font-size="10.00">QDateTime</text>
</a>
</g>
</g>
<!-- Node3&#45;&gt;Node4 -->
<g id="edge3_Node000003_Node000004" class="edge">
<title>Node3&#45;&gt;Node4</title>
<g id="a_edge3_Node000003_Node000004"><a xlink:title=" ">
<path fill="none" stroke="#63b8ff" d="M198.39,-54.75C192.74,-47.26 184.46,-36.28 177.55,-27.13"/>
<polygon fill="#63b8ff" stroke="#63b8ff" points="180.3,-24.96 171.48,-19.09 174.71,-29.18 180.3,-24.96"/>
</a>
</g>
</g>
<!-- Node5 -->
<g id="Node000005" class="node">
<title>Node5</title>
<g id="a_Node000005"><a xlink:title=" ">
<polygon fill="#e0e0e0" stroke="#999999" points="537.5,-19 492.5,-19 492.5,0 537.5,0 537.5,-19"/>
<text text-anchor="middle" x="515" y="-7" font-family="Helvetica,sans-Serif" font-size="10.00">QMap</text>
</a>
</g>
</g>
<!-- Node3&#45;&gt;Node5 -->
<g id="edge4_Node000003_Node000005" class="edge">
<title>Node3&#45;&gt;Node5</title>
<g id="a_edge4_Node000003_Node000005"><a xlink:title=" ">
<path fill="none" stroke="#63b8ff" d="M254.81,-54.98C318.67,-44.07 427.64,-25.44 482.05,-16.13"/>
<polygon fill="#63b8ff" stroke="#63b8ff" points="482.91,-19.54 492.18,-14.4 481.73,-12.64 482.91,-19.54"/>
</a>
</g>
</g>
<!-- Node6 -->
<g id="Node000006" class="node">
<title>Node6</title>
<g id="a_Node000006"><a xlink:title=" ">
<polygon fill="#e0e0e0" stroke="#999999" points="364.5,-19 293.5,-19 293.5,0 364.5,0 364.5,-19"/>
<text text-anchor="middle" x="329" y="-7" font-family="Helvetica,sans-Serif" font-size="10.00">QMetaType</text>
</a>
</g>
</g>
<!-- Node3&#45;&gt;Node6 -->
<g id="edge5_Node000003_Node000006" class="edge">
<title>Node3&#45;&gt;Node6</title>
<g id="a_edge5_Node000003_Node000006"><a xlink:title=" ">
<path fill="none" stroke="#63b8ff" d="M224.92,-54.98C245.05,-46.38 276.38,-32.99 299.41,-23.15"/>
<polygon fill="#63b8ff" stroke="#63b8ff" points="300.9,-26.32 308.71,-19.17 298.14,-19.88 300.9,-26.32"/>
</a>
</g>
</g>
<!-- Node7 -->
<g id="Node000007" class="node">
<title>Node7</title>
<g id="a_Node000007"><a xlink:title=" ">
<polygon fill="#e0e0e0" stroke="#999999" points="1296.5,-19 1243.5,-19 1243.5,0 1296.5,0 1296.5,-19"/>
<text text-anchor="middle" x="1270" y="-7" font-family="Helvetica,sans-Serif" font-size="10.00">QString</text>
</a>
</g>
</g>
<!-- Node3&#45;&gt;Node7 -->
<g id="edge6_Node000003_Node000007" class="edge">
<title>Node3&#45;&gt;Node7</title>
<g id="a_edge6_Node000003_Node000007"><a xlink:title=" ">
<path fill="none" stroke="#63b8ff" d="M254.57,-56.48C259.44,-55.92 264.31,-55.41 269,-55 644.43,-21.79 1101.37,-12.92 1232.94,-10.98"/>
<polygon fill="#63b8ff" stroke="#63b8ff" points="1233.31,-14.47 1243.26,-10.83 1233.21,-7.47 1233.31,-14.47"/>
</a>
</g>
</g>
<!-- Node8&#45;&gt;Node3 -->
<g id="edge8_Node000008_Node000003" class="edge">
<title>Node8&#45;&gt;Node3</title>
<g id="a_edge8_Node000008_Node000003"><a xlink:title=" ">
<path fill="none" stroke="#63b8ff" d="M628.21,-112.52C538.38,-102.54 358.48,-82.55 264.8,-72.14"/>
<polygon fill="#63b8ff" stroke="#63b8ff" points="264.97,-68.64 254.64,-71.02 264.19,-75.6 264.97,-68.64"/>
</a>
</g>
</g>
<!-- Node8&#45;&gt;Node5 -->
<g id="edge9_Node000008_Node000005" class="edge">
<title>Node8&#45;&gt;Node5</title>
<g id="a_edge9_Node000008_Node000005"><a xlink:title=" ">
<path fill="none" stroke="#63b8ff" d="M673.2,-109.92C659.59,-96.94 632.25,-72.03 606,-55 586.74,-42.51 563.46,-31.18 545.27,-23.09"/>
<polygon fill="#63b8ff" stroke="#63b8ff" points="546.57,-19.84 536.01,-19.04 543.77,-26.25 546.57,-19.84"/>
</a>
</g>
</g>
<!-- Node8&#45;&gt;Node7 -->
<g id="edge15_Node000008_Node000007" class="edge">
<title>Node8&#45;&gt;Node7</title>
<g id="a_edge15_Node000008_Node000007"><a xlink:title=" ">
<path fill="none" stroke="#63b8ff" d="M735.85,-110.9C778.67,-103.93 839.7,-91.96 891,-74 908.82,-67.76 910.94,-60.52 929,-55 1036.13,-22.25 1169.42,-13.6 1232.96,-11.32"/>
<polygon fill="#63b8ff" stroke="#63b8ff" points="1233.39,-14.81 1243.27,-10.98 1233.16,-7.81 1233.39,-14.81"/>
</a>
</g>
</g>
<!-- Node9 -->
<g id="Node000009" class="node">
<title>Node9</title>
<g id="a_Node000009"><a xlink:title=" ">
<polygon fill="#e0e0e0" stroke="#999999" points="1051.5,-74 996.5,-74 996.5,-55 1051.5,-55 1051.5,-74"/>
<text text-anchor="middle" x="1024" y="-62" font-family="Helvetica,sans-Serif" font-size="10.00">QMutex</text>
</a>
</g>
</g>
<!-- Node8&#45;&gt;Node9 -->
<g id="edge10_Node000008_Node000009" class="edge">
<title>Node8&#45;&gt;Node9</title>
<g id="a_edge10_Node000008_Node000009"><a xlink:title=" ">
<path fill="none" stroke="#63b8ff" d="M735.66,-112.01C794.66,-104.57 892.46,-91.36 986.23,-74.01"/>
<polygon fill="#63b8ff" stroke="#63b8ff" points="986.98,-77.43 996.17,-72.15 985.7,-70.54 986.98,-77.43"/>
</a>
</g>
</g>
<!-- Node10 -->
<g id="Node000010" class="node">
<title>Node10</title>
<g id="a_Node000010"><a xlink:title=" ">
<polygon fill="#e0e0e0" stroke="#999999" points="275,-19 219,-19 219,0 275,0 275,-19"/>
<text text-anchor="middle" x="247" y="-7" font-family="Helvetica,sans-Serif" font-size="10.00">QObject</text>
</a>
</g>
</g>
<!-- Node8&#45;&gt;Node10 -->
<g id="edge11_Node000008_Node000010" class="edge">
<title>Node8&#45;&gt;Node10</title>
<g id="a_edge11_Node000008_Node000010"><a xlink:title=" ">
<path fill="none" stroke="#63b8ff" d="M641.86,-109.96C608.22,-102.25 559.21,-89.71 518,-74 500.36,-67.27 497.91,-60.99 480,-55 398.95,-27.9 372.59,-36.26 285.07,-19.11"/>
<polygon fill="#63b8ff" stroke="#63b8ff" points="285.75,-15.67 275.25,-17.13 284.36,-22.53 285.75,-15.67"/>
</a>
</g>
</g>
<!-- Node11 -->
<g id="Node000011" class="node">
<title>Node11</title>
<g id="a_Node000011"><a xlink:title=" ">
<polygon fill="#e0e0e0" stroke="#999999" points="882,-74 826,-74 826,-55 882,-55 882,-74"/>
<text text-anchor="middle" x="854" y="-62" font-family="Helvetica,sans-Serif" font-size="10.00">QQueue</text>
</a>
</g>
</g>
<!-- Node8&#45;&gt;Node11 -->
<g id="edge12_Node000008_Node000011" class="edge">
<title>Node8&#45;&gt;Node11</title>
<g id="a_edge12_Node000008_Node000011"><a xlink:title=" ">
<path fill="none" stroke="#63b8ff" d="M709.63,-109.98C738.51,-101.09 784.01,-87.07 816.2,-77.15"/>
<polygon fill="#63b8ff" stroke="#63b8ff" points="817.62,-80.37 826.15,-74.08 815.56,-73.68 817.62,-80.37"/>
</a>
</g>
</g>
<!-- Node12 -->
<g id="Node000012" class="node">
<title>Node12</title>
<g id="a_Node000012"><a xlink:title=" ">
<polygon fill="#e0e0e0" stroke="#999999" points="978,-74 938,-74 938,-55 978,-55 978,-74"/>
<text text-anchor="middle" x="958" y="-62" font-family="Helvetica,sans-Serif" font-size="10.00">QSet</text>
</a>
</g>
</g>
<!-- Node8&#45;&gt;Node12 -->
<g id="edge13_Node000008_Node000012" class="edge">
<title>Node8&#45;&gt;Node12</title>
<g id="a_edge13_Node000008_Node000012"><a xlink:title=" ">
<path fill="none" stroke="#63b8ff" d="M733.64,-109.98C782.77,-101.64 858.66,-88.16 924,-74 925.27,-73.72 926.57,-73.44 927.87,-73.14"/>
<polygon fill="#63b8ff" stroke="#63b8ff" points="929,-76.47 937.91,-70.74 927.37,-69.66 929,-76.47"/>
</a>
</g>
</g>
<!-- Node13 -->
<g id="Node000013" class="node">
<title>Node13</title>
<g id="a_Node000013"><a xlink:title=" ">
<polygon fill="#e0e0e0" stroke="#999999" points="403,-74 311,-74 311,-55 403,-55 403,-74"/>
<text text-anchor="middle" x="357" y="-62" font-family="Helvetica,sans-Serif" font-size="10.00">QSharedPointer</text>
</a>
</g>
</g>
<!-- Node8&#45;&gt;Node13 -->
<g id="edge14_Node000008_Node000013" class="edge">
<title>Node8&#45;&gt;Node13</title>
<g id="a_edge14_Node000008_Node000013"><a xlink:title=" ">
<path fill="none" stroke="#63b8ff" d="M629.78,-109.98C570.5,-100.32 474.14,-84.6 413.24,-74.67"/>
<polygon fill="#63b8ff" stroke="#63b8ff" points="413.47,-71.16 403.04,-73.01 412.35,-78.07 413.47,-71.16"/>
</a>
</g>
</g>
<!-- Node14 -->
<g id="Node000014" class="node">
<title>Node14</title>
<g id="a_Node000014"><a xlink:title=" ">
<polygon fill="#e0e0e0" stroke="#999999" points="597,-74 527,-74 527,-55 597,-55 597,-74"/>
<text text-anchor="middle" x="562" y="-62" font-family="Helvetica,sans-Serif" font-size="10.00">QStringList</text>
</a>
</g>
</g>
<!-- Node8&#45;&gt;Node14 -->
<g id="edge16_Node000008_Node000014" class="edge">
<title>Node8&#45;&gt;Node14</title>
<g id="a_edge16_Node000008_Node000014"><a xlink:title=" ">
<path fill="none" stroke="#63b8ff" d="M662.72,-109.98C643.33,-101.42 613.19,-88.11 590.93,-78.28"/>
<polygon fill="#63b8ff" stroke="#63b8ff" points="592.19,-75.01 581.63,-74.17 589.36,-81.41 592.19,-75.01"/>
</a>
</g>
</g>
<!-- Node15 -->
<g id="Node000015" class="node">
<title>Node15</title>
<g id="a_Node000015"><a xlink:title=" ">
<polygon fill="#e0e0e0" stroke="#999999" points="711,-74 653,-74 653,-55 711,-55 711,-74"/>
<text text-anchor="middle" x="682" y="-62" font-family="Helvetica,sans-Serif" font-size="10.00">QThread</text>
</a>
</g>
</g>
<!-- Node8&#45;&gt;Node15 -->
<g id="edge17_Node000008_Node000015" class="edge">
<title>Node8&#45;&gt;Node15</title>
<g id="a_edge17_Node000008_Node000015"><a xlink:title=" ">
<path fill="none" stroke="#63b8ff" d="M682,-109.75C682,-102.8 682,-92.85 682,-84.13"/>
<polygon fill="#63b8ff" stroke="#63b8ff" points="685.5,-84.09 682,-74.09 678.5,-84.09 685.5,-84.09"/>
</a>
</g>
</g>
<!-- Node16 -->
<g id="Node000016" class="node">
<title>Node16</title>
<g id="a_Node000016"><a xlink:title=" ">
<polygon fill="#e0e0e0" stroke="#999999" points="808.5,-74 729.5,-74 729.5,-55 808.5,-55 808.5,-74"/>
<text text-anchor="middle" x="769" y="-62" font-family="Helvetica,sans-Serif" font-size="10.00">QThreadPool</text>
</a>
</g>
</g>
<!-- Node8&#45;&gt;Node16 -->
<g id="edge18_Node000008_Node000016" class="edge">
<title>Node8&#45;&gt;Node16</title>
<g id="a_edge18_Node000008_Node000016"><a xlink:title=" ">
<path fill="none" stroke="#63b8ff" d="M695.98,-109.98C709.47,-101.77 730.13,-89.18 746.04,-79.49"/>
<polygon fill="#63b8ff" stroke="#63b8ff" points="748.05,-82.36 754.77,-74.17 744.41,-76.38 748.05,-82.36"/>
</a>
</g>
</g>
<!-- Node17 -->
<g id="Node000017" class="node">
<title>Node17</title>
<g id="a_Node000017"><a xlink:title=" ">
<polygon fill="#e0e0e0" stroke="#999999" points="471,-74 421,-74 421,-55 471,-55 471,-74"/>
<text text-anchor="middle" x="446" y="-62" font-family="Helvetica,sans-Serif" font-size="10.00">atomic</text>
</a>
</g>
</g>
<!-- Node8&#45;&gt;Node17 -->
<g id="edge19_Node000008_Node000017" class="edge">
<title>Node8&#45;&gt;Node17</title>
<g id="a_edge19_Node000008_Node000017"><a xlink:title=" ">
<path fill="none" stroke="#63b8ff" d="M644.08,-109.98C599.09,-99.88 524.68,-83.17 481.01,-73.36"/>
<polygon fill="#63b8ff" stroke="#63b8ff" points="481.65,-69.92 471.13,-71.14 480.12,-76.75 481.65,-69.92"/>
</a>
</g>
</g>
<!-- Node18&#45;&gt;Node7 -->
<g id="edge26_Node000018_Node000007" class="edge">
<title>Node18&#45;&gt;Node7</title>
<g id="a_edge26_Node000018_Node000007"><a xlink:title=" ">
<path fill="none" stroke="#63b8ff" d="M1164.51,-113.23C1193.44,-107.75 1227.41,-96.6 1250,-74 1261.86,-62.13 1266.7,-43.3 1268.67,-29.22"/>
<polygon fill="#63b8ff" stroke="#63b8ff" points="1272.16,-29.48 1269.71,-19.17 1265.2,-28.76 1272.16,-29.48"/>
</a>
</g>
</g>
<!-- Node18&#45;&gt;Node9 -->
<g id="edge23_Node000018_Node000009" class="edge">
<title>Node18&#45;&gt;Node9</title>
<g id="a_edge23_Node000018_Node000009"><a xlink:title=" ">
<path fill="none" stroke="#63b8ff" d="M1095.34,-109.98C1082.16,-101.77 1061.97,-89.18 1046.43,-79.49"/>
<polygon fill="#63b8ff" stroke="#63b8ff" points="1048.24,-76.49 1037.91,-74.17 1044.54,-82.43 1048.24,-76.49"/>
</a>
</g>
</g>
<!-- Node18&#45;&gt;Node10 -->
<g id="edge24_Node000018_Node000010" class="edge">
<title>Node18&#45;&gt;Node10</title>
<g id="a_edge24_Node000018_Node000010"><a xlink:title=" ">
<path fill="none" stroke="#63b8ff" d="M1105.38,-110C1098.76,-95.67 1083.22,-67.09 1060,-55 985.76,-16.35 406.2,-29.82 285.15,-18.64"/>
<polygon fill="#63b8ff" stroke="#63b8ff" points="285.51,-15.16 275.19,-17.52 284.73,-22.12 285.51,-15.16"/>
</a>
</g>
</g>
<!-- Node18&#45;&gt;Node12 -->
<g id="edge25_Node000018_Node000012" class="edge">
<title>Node18&#45;&gt;Node12</title>
<g id="a_edge25_Node000018_Node000012"><a xlink:title=" ">
<path fill="none" stroke="#63b8ff" d="M1084.74,-109.98C1058.46,-100.76 1016.48,-86.03 988.11,-76.07"/>
<polygon fill="#63b8ff" stroke="#63b8ff" points="988.92,-72.64 978.33,-72.63 986.6,-79.25 988.92,-72.64"/>
</a>
</g>
</g>
<!-- Node18&#45;&gt;Node19 -->
<g id="edge21_Node000018_Node000019" class="edge">
<title>Node18&#45;&gt;Node19</title>
<g id="a_edge21_Node000018_Node000019"><a xlink:title=" ">
<path fill="none" stroke="#63b8ff" d="M1142.56,-110C1177.79,-101.07 1234.8,-86.59 1284,-74 1285.26,-73.68 1286.54,-73.35 1287.84,-73.02"/>
<polygon fill="#63b8ff" stroke="#63b8ff" points="1288.99,-76.33 1297.81,-70.45 1287.25,-69.55 1288.99,-76.33"/>
</a>
</g>
</g>
<!-- Node20 -->
<g id="Node000020" class="node">
<title>Node20</title>
<g id="a_Node000020"><a xlink:title=" ">
<polygon fill="#e0e0e0" stroke="#999999" points="1168,-74 1108,-74 1108,-55 1168,-55 1168,-74"/>
<text text-anchor="middle" x="1138" y="-62" font-family="Helvetica,sans-Serif" font-size="10.00">QFileInfo</text>
</a>
</g>
</g>
<!-- Node18&#45;&gt;Node20 -->
<g id="edge22_Node000018_Node000020" class="edge">
<title>Node18&#45;&gt;Node20</title>
<g id="a_edge22_Node000018_Node000020"><a xlink:title=" ">
<path fill="none" stroke="#63b8ff" d="M1113.79,-109.75C1117.76,-102.49 1123.53,-91.95 1128.43,-82.98"/>
<polygon fill="#63b8ff" stroke="#63b8ff" points="1131.57,-84.54 1133.3,-74.09 1125.43,-81.18 1131.57,-84.54"/>
</a>
</g>
</g>
<!-- Node21 -->
<g id="Node000021" class="node">
<title>Node21</title>
<g id="a_Node000021"><a xlink:title=" ">
<polygon fill="#e0e0e0" stroke="#999999" points="1241.5,-74 1186.5,-74 1186.5,-55 1241.5,-55 1241.5,-74"/>
<text text-anchor="middle" x="1214" y="-62" font-family="Helvetica,sans-Serif" font-size="10.00">QVector</text>
</a>
</g>
</g>
<!-- Node18&#45;&gt;Node21 -->
<g id="edge27_Node000018_Node000021" class="edge">
<title>Node18&#45;&gt;Node21</title>
<g id="a_edge27_Node000018_Node000021"><a xlink:title=" ">
<path fill="none" stroke="#63b8ff" d="M1125.87,-109.98C1142.61,-101.54 1168.5,-88.47 1187.89,-78.68"/>
<polygon fill="#63b8ff" stroke="#63b8ff" points="1189.47,-81.8 1196.82,-74.17 1186.32,-75.55 1189.47,-81.8"/>
</a>
</g>
</g>
<!-- Node22&#45;&gt;Node3 -->
<g id="edge29_Node000022_Node000003" class="edge">
<title>Node22&#45;&gt;Node3</title>
<g id="a_edge29_Node000022_Node000003"><a xlink:title=" ">
<path fill="none" stroke="#63b8ff" d="M237.56,-109.75C232.11,-102.34 224.14,-91.5 217.44,-82.41"/>
<polygon fill="#63b8ff" stroke="#63b8ff" points="220.07,-80.07 211.32,-74.09 214.43,-84.22 220.07,-80.07"/>
</a>
</g>
</g>
<!-- Node22&#45;&gt;Node7 -->
<g id="edge37_Node000022_Node000007" class="edge">
<title>Node22&#45;&gt;Node7</title>
<g id="a_edge37_Node000022_Node000007"><a xlink:title=" ">
<path fill="none" stroke="#63b8ff" d="M248.72,-109.96C257.22,-95.57 276.58,-66.91 302,-55 387.43,-14.96 1066.42,-10.92 1233.13,-10.54"/>
<polygon fill="#63b8ff" stroke="#63b8ff" points="1233.37,-14.04 1243.36,-10.52 1233.35,-7.04 1233.37,-14.04"/>
</a>
</g>
</g>
<!-- Node22&#45;&gt;Node10 -->
<g id="edge34_Node000022_Node000010" class="edge">
<title>Node22&#45;&gt;Node10</title>
<g id="a_edge34_Node000022_Node000010"><a xlink:title=" ">
<path fill="none" stroke="#63b8ff" d="M173.96,-118.69C98.56,-116.44 -5.5,-104.67 35,-55 83.21,4.14 128.72,-32.73 208.79,-19"/>
<polygon fill="#63b8ff" stroke="#63b8ff" points="209.59,-22.41 218.73,-17.06 208.25,-15.54 209.59,-22.41"/>
</a>
</g>
</g>
<!-- Node22&#45;&gt;Node13 -->
<g id="edge36_Node000022_Node000013" class="edge">
<title>Node22&#45;&gt;Node13</title>
<g id="a_edge36_Node000022_Node000013"><a xlink:title=" ">
<path fill="none" stroke="#63b8ff" d="M262.16,-109.98C280.25,-101.5 308.28,-88.35 329.19,-78.54"/>
<polygon fill="#63b8ff" stroke="#63b8ff" points="330.95,-81.59 338.51,-74.17 327.97,-75.25 330.95,-81.59"/>
</a>
</g>
</g>
<!-- Node22&#45;&gt;Node17 -->
<g id="edge38_Node000022_Node000017" class="edge">
<title>Node22&#45;&gt;Node17</title>
<g id="a_edge38_Node000022_Node000017"><a xlink:title=" ">
<path fill="none" stroke="#63b8ff" d="M276.45,-109.98C313.26,-100.33 373.04,-84.64 410.9,-74.71"/>
<polygon fill="#63b8ff" stroke="#63b8ff" points="412.18,-77.99 420.96,-72.07 410.4,-71.22 412.18,-77.99"/>
</a>
</g>
</g>
<!-- Node23 -->
<g id="Node000023" class="node">
<title>Node23</title>
<g id="a_Node000023"><a xlink:href="IExportWorker_8h.html" target="_top" xlink:title=" ">
<polygon fill="white" stroke="#666666" points="137.5,-74 44.5,-74 44.5,-55 137.5,-55 137.5,-74"/>
<text text-anchor="middle" x="91" y="-62" font-family="Helvetica,sans-Serif" font-size="10.00">IExportWorker.h</text>
</a>
</g>
</g>
<!-- Node22&#45;&gt;Node23 -->
<g id="edge30_Node000022_Node000023" class="edge">
<title>Node22&#45;&gt;Node23</title>
<g id="a_edge30_Node000022_Node000023"><a xlink:title=" ">
<path fill="none" stroke="#63b8ff" d="M219.42,-109.98C193.95,-101.16 153.96,-87.31 125.37,-77.41"/>
<polygon fill="#63b8ff" stroke="#63b8ff" points="126.37,-74.05 115.77,-74.08 124.08,-80.66 126.37,-74.05"/>
</a>
</g>
</g>
<!-- Node24 -->
<g id="Node000024" class="node">
<title>Node24</title>
<g id="a_Node000024"><a xlink:title=" ">
<polygon fill="#e0e0e0" stroke="#999999" points="70,-19 0,-19 0,0 70,0 70,-19"/>
<text text-anchor="middle" x="35" y="-7" font-family="Helvetica,sans-Serif" font-size="10.00">QRunnable</text>
</a>
</g>
</g>
<!-- Node22&#45;&gt;Node24 -->
<g id="edge35_Node000022_Node000024" class="edge">
<title>Node22&#45;&gt;Node24</title>
<g id="a_edge35_Node000022_Node000024"><a xlink:title=" ">
<path fill="none" stroke="#63b8ff" d="M173.83,-113.86C116.47,-108.43 41.87,-97.05 23,-74 12.59,-61.29 18.02,-42.34 24.57,-28.45"/>
<polygon fill="#63b8ff" stroke="#63b8ff" points="27.78,-29.87 29.33,-19.39 21.58,-26.61 27.78,-29.87"/>
</a>
</g>
</g>
<!-- Node23&#45;&gt;Node7 -->
<g id="edge33_Node000023_Node000007" class="edge">
<title>Node23&#45;&gt;Node7</title>
<g id="a_edge33_Node000023_Node000007"><a xlink:title=" ">
<path fill="none" stroke="#63b8ff" d="M137.76,-55.9C140.55,-55.57 143.31,-55.26 146,-55 571.79,-13.8 1091.83,-10.53 1233.11,-10.44"/>
<polygon fill="#63b8ff" stroke="#63b8ff" points="1233.37,-13.94 1243.37,-10.44 1233.37,-6.94 1233.37,-13.94"/>
</a>
</g>
</g>
<!-- Node23&#45;&gt;Node10 -->
<g id="edge31_Node000023_Node000010" class="edge">
<title>Node23&#45;&gt;Node10</title>
<g id="a_edge31_Node000023_Node000010"><a xlink:title=" ">
<path fill="none" stroke="#63b8ff" d="M116.06,-54.98C142.03,-46.16 182.81,-32.31 211.96,-22.41"/>
<polygon fill="#63b8ff" stroke="#63b8ff" points="213.4,-25.61 221.74,-19.08 211.15,-18.99 213.4,-25.61"/>
</a>
</g>
</g>
<!-- Node23&#45;&gt;Node24 -->
<g id="edge32_Node000023_Node000024" class="edge">
<title>Node23&#45;&gt;Node24</title>
<g id="a_edge32_Node000023_Node000024"><a xlink:title=" ">
<path fill="none" stroke="#63b8ff" d="M82,-54.98C73.81,-47.23 61.49,-35.58 51.53,-26.14"/>
<polygon fill="#63b8ff" stroke="#63b8ff" points="53.83,-23.5 44.16,-19.17 49.02,-28.59 53.83,-23.5"/>
</a>
</g>
</g>
<!-- Node25&#45;&gt;Node7 -->
<g id="edge61_Node000025_Node000007" class="edge">
<title>Node25&#45;&gt;Node7</title>
<g id="a_edge61_Node000025_Node000007"><a xlink:title=" ">
<path fill="none" stroke="#63b8ff" d="M1439.28,-164.91C1425.15,-144.14 1386.7,-90.32 1345,-55 1330.5,-42.72 1312.19,-31.78 1297.29,-23.83"/>
<polygon fill="#63b8ff" stroke="#63b8ff" points="1298.56,-20.54 1288.07,-19.04 1295.33,-26.75 1298.56,-20.54"/>
</a>
</g>
</g>
<!-- Node25&#45;&gt;Node13 -->
<g id="edge60_Node000025_Node000013" class="edge">
<title>Node25&#45;&gt;Node13</title>
<g id="a_edge60_Node000025_Node000013"><a xlink:title=" ">
<path fill="none" stroke="#63b8ff" d="M1372.74,-174.06C1228.59,-174.19 895.36,-169.58 619,-129 537.99,-117.1 445.34,-91.81 394.8,-76.99"/>
<polygon fill="#63b8ff" stroke="#63b8ff" points="395.55,-73.56 384.97,-74.08 393.57,-80.27 395.55,-73.56"/>
</a>
</g>
</g>
<!-- Node26 -->
<g id="Node000026" class="node">
<title>Node26</title>
<g id="a_Node000026"><a xlink:href="FootprintData_8h.html" target="_top" xlink:title=" ">
<polygon fill="white" stroke="#666666" points="1586,-129 1494,-129 1494,-110 1586,-110 1586,-129"/>
<text text-anchor="middle" x="1540" y="-117" font-family="Helvetica,sans-Serif" font-size="10.00">FootprintData.h</text>
</a>
</g>
</g>
<!-- Node25&#45;&gt;Node26 -->
<g id="edge40_Node000025_Node000026" class="edge">
<title>Node25&#45;&gt;Node26</title>
<g id="a_edge40_Node000025_Node000026"><a xlink:title=" ">
<path fill="none" stroke="#63b8ff" d="M1460.26,-164.98C1475.13,-156.69 1497.98,-143.94 1515.42,-134.22"/>
<polygon fill="#63b8ff" stroke="#63b8ff" points="1517.43,-137.1 1524.46,-129.17 1514.02,-130.99 1517.43,-137.1"/>
</a>
</g>
</g>
<!-- Node27 -->
<g id="Node000027" class="node">
<title>Node27</title>
<g id="a_Node000027"><a xlink:href="Model3DData_8h.html" target="_top" xlink:title=" ">
<polygon fill="white" stroke="#666666" points="1522,-74 1430,-74 1430,-55 1522,-55 1522,-74"/>
<text text-anchor="middle" x="1476" y="-62" font-family="Helvetica,sans-Serif" font-size="10.00">Model3DData.h</text>
</a>
</g>
</g>
<!-- Node25&#45;&gt;Node27 -->
<g id="edge50_Node000025_Node000027" class="edge">
<title>Node25&#45;&gt;Node27</title>
<g id="a_edge50_Node000025_Node000027"><a xlink:title=" ">
<path fill="none" stroke="#63b8ff" d="M1447.54,-164.66C1452.58,-147.09 1463.96,-107.45 1470.7,-83.95"/>
<polygon fill="#63b8ff" stroke="#63b8ff" points="1474.12,-84.74 1473.51,-74.16 1467.39,-82.8 1474.12,-84.74"/>
</a>
</g>
</g>
<!-- Node29 -->
<g id="Node000029" class="node">
<title>Node29</title>
<g id="a_Node000029"><a xlink:title=" ">
<polygon fill="#e0e0e0" stroke="#999999" points="1746,-19 1670,-19 1670,0 1746,0 1746,-19"/>
<text text-anchor="middle" x="1708" y="-7" font-family="Helvetica,sans-Serif" font-size="10.00">QJsonObject</text>
</a>
</g>
</g>
<!-- Node25&#45;&gt;Node29 -->
<g id="edge59_Node000025_Node000029" class="edge">
<title>Node25&#45;&gt;Node29</title>
<g id="a_edge59_Node000025_Node000029"><a xlink:title=" ">
<path fill="none" stroke="#63b8ff" d="M1517.14,-165.68C1614.46,-154.97 1778.81,-136.24 1806,-129 1867.02,-112.76 1902.04,-126.59 1937,-74 1941.67,-66.97 1942.37,-61.52 1937,-55 1914.53,-27.75 1816.39,-16.97 1756.11,-12.87"/>
<polygon fill="#63b8ff" stroke="#63b8ff" points="1756.25,-9.38 1746.05,-12.23 1755.81,-16.36 1756.25,-9.38"/>
</a>
</g>
</g>
<!-- Node30 -->
<g id="Node000030" class="node">
<title>Node30</title>
<g id="a_Node000030"><a xlink:title=" ">
<polygon fill="#e0e0e0" stroke="#999999" points="1649.5,-74 1578.5,-74 1578.5,-55 1649.5,-55 1649.5,-74"/>
<text text-anchor="middle" x="1614" y="-62" font-family="Helvetica,sans-Serif" font-size="10.00">QJsonArray</text>
</a>
</g>
</g>
<!-- Node25&#45;&gt;Node30 -->
<g id="edge58_Node000025_Node000030" class="edge">
<title>Node25&#45;&gt;Node30</title>
<g id="a_edge58_Node000025_Node000030"><a xlink:title=" ">
<path fill="none" stroke="#63b8ff" d="M1517.38,-166.69C1544.84,-160.67 1574.42,-149.53 1595,-129 1606.83,-117.2 1611.35,-98.36 1613.05,-84.26"/>
<polygon fill="#63b8ff" stroke="#63b8ff" points="1616.55,-84.45 1613.89,-74.19 1609.57,-83.87 1616.55,-84.45"/>
</a>
</g>
</g>
<!-- Node33 -->
<g id="Node000033" class="node">
<title>Node33</title>
<g id="a_Node000033"><a xlink:href="SymbolData_8h.html" target="_top" xlink:title=" ">
<polygon fill="white" stroke="#666666" points="1797,-129 1711,-129 1711,-110 1797,-110 1797,-129"/>
<text text-anchor="middle" x="1754" y="-117" font-family="Helvetica,sans-Serif" font-size="10.00">SymbolData.h</text>
</a>
</g>
</g>
<!-- Node25&#45;&gt;Node33 -->
<g id="edge51_Node000025_Node000033" class="edge">
<title>Node25&#45;&gt;Node33</title>
<g id="a_edge51_Node000025_Node000033"><a xlink:title=" ">
<path fill="none" stroke="#63b8ff" d="M1494.65,-164.98C1551.14,-155.3 1643.03,-139.53 1700.91,-129.61"/>
<polygon fill="#63b8ff" stroke="#63b8ff" points="1701.69,-133.02 1710.96,-127.88 1700.51,-126.12 1701.69,-133.02"/>
</a>
</g>
</g>
<!-- Node26&#45;&gt;Node7 -->
<g id="edge49_Node000026_Node000007" class="edge">
<title>Node26&#45;&gt;Node7</title>
<g id="a_edge49_Node000026_Node000007"><a xlink:title=" ">
<path fill="none" stroke="#63b8ff" d="M1515.68,-109.88C1491.52,-101.2 1453.48,-87.23 1421,-74 1401.65,-66.12 1397.22,-63.2 1378,-55 1351.96,-43.88 1322.2,-31.66 1300.52,-22.84"/>
<polygon fill="#63b8ff" stroke="#63b8ff" points="1301.76,-19.56 1291.17,-19.04 1299.12,-26.05 1301.76,-19.56"/>
</a>
</g>
</g>
<!-- Node26&#45;&gt;Node27 -->
<g id="edge41_Node000026_Node000027" class="edge">
<title>Node26&#45;&gt;Node27</title>
<g id="a_edge41_Node000026_Node000027"><a xlink:title=" ">
<path fill="none" stroke="#63b8ff" d="M1529.72,-109.98C1520.16,-102.07 1505.72,-90.11 1494.22,-80.58"/>
<polygon fill="#63b8ff" stroke="#63b8ff" points="1496.4,-77.85 1486.47,-74.17 1491.94,-83.24 1496.4,-77.85"/>
</a>
</g>
</g>
<!-- Node26&#45;&gt;Node29 -->
<g id="edge46_Node000026_Node000029" class="edge">
<title>Node26&#45;&gt;Node29</title>
<g id="a_edge46_Node000026_Node000029"><a xlink:title=" ">
<path fill="none" stroke="#63b8ff" d="M1541.78,-109.77C1545.02,-96.13 1553.14,-69.8 1570,-55 1595.04,-33.01 1631.09,-21.86 1660.06,-16.22"/>
<polygon fill="#63b8ff" stroke="#63b8ff" points="1660.76,-19.65 1669.99,-14.45 1659.53,-12.76 1660.76,-19.65"/>
</a>
</g>
</g>
<!-- Node26&#45;&gt;Node30 -->
<g id="edge45_Node000026_Node000030" class="edge">
<title>Node26&#45;&gt;Node30</title>
<g id="a_edge45_Node000026_Node000030"><a xlink:title=" ">
<path fill="none" stroke="#63b8ff" d="M1551.89,-109.98C1563.15,-101.92 1580.29,-89.65 1593.71,-80.03"/>
<polygon fill="#63b8ff" stroke="#63b8ff" points="1595.8,-82.84 1601.89,-74.17 1591.73,-77.15 1595.8,-82.84"/>
</a>
</g>
</g>
<!-- Node31 -->
<g id="Node000031" class="node">
<title>Node31</title>
<g id="a_Node000031"><a xlink:title=" ">
<polygon fill="#e0e0e0" stroke="#999999" points="1708.5,-74 1667.5,-74 1667.5,-55 1708.5,-55 1708.5,-74"/>
<text text-anchor="middle" x="1688" y="-62" font-family="Helvetica,sans-Serif" font-size="10.00">QList</text>
</a>
</g>
</g>
<!-- Node26&#45;&gt;Node31 -->
<g id="edge47_Node000026_Node000031" class="edge">
<title>Node26&#45;&gt;Node31</title>
<g id="a_edge47_Node000026_Node000031"><a xlink:title=" ">
<path fill="none" stroke="#63b8ff" d="M1563.78,-109.98C1589.25,-100.86 1629.75,-86.36 1657.54,-76.41"/>
<polygon fill="#63b8ff" stroke="#63b8ff" points="1658.92,-79.63 1667.15,-72.97 1656.56,-73.04 1658.92,-79.63"/>
</a>
</g>
</g>
<!-- Node32 -->
<g id="Node000032" class="node">
<title>Node32</title>
<g id="a_Node000032"><a xlink:title=" ">
<polygon fill="#e0e0e0" stroke="#999999" points="1781.5,-74 1726.5,-74 1726.5,-55 1781.5,-55 1781.5,-74"/>
<text text-anchor="middle" x="1754" y="-62" font-family="Helvetica,sans-Serif" font-size="10.00">QPointF</text>
</a>
</g>
</g>
<!-- Node26&#45;&gt;Node32 -->
<g id="edge48_Node000026_Node000032" class="edge">
<title>Node26&#45;&gt;Node32</title>
<g id="a_edge48_Node000026_Node000032"><a xlink:title=" ">
<path fill="none" stroke="#63b8ff" d="M1574.38,-109.98C1613.18,-100.37 1676.11,-84.79 1716.25,-74.85"/>
<polygon fill="#63b8ff" stroke="#63b8ff" points="1717.31,-78.19 1726.18,-72.39 1715.63,-71.4 1717.31,-78.19"/>
</a>
</g>
</g>
<!-- Node27&#45;&gt;Node7 -->
<g id="edge44_Node000027_Node000007" class="edge">
<title>Node27&#45;&gt;Node7</title>
<g id="a_edge44_Node000027_Node000007"><a xlink:title=" ">
<path fill="none" stroke="#63b8ff" d="M1442.9,-54.98C1405.63,-45.4 1345.24,-29.86 1306.59,-19.91"/>
<polygon fill="#63b8ff" stroke="#63b8ff" points="1307.34,-16.49 1296.78,-17.39 1305.59,-23.27 1307.34,-16.49"/>
</a>
</g>
</g>
<!-- Node28 -->
<g id="Node000028" class="node">
<title>Node28</title>
<g id="a_Node000028"><a xlink:title=" ">
<polygon fill="#e0e0e0" stroke="#999999" points="1512.5,-19 1439.5,-19 1439.5,0 1512.5,0 1512.5,-19"/>
<text text-anchor="middle" x="1476" y="-7" font-family="Helvetica,sans-Serif" font-size="10.00">QByteArray</text>
</a>
</g>
</g>
<!-- Node27&#45;&gt;Node28 -->
<g id="edge42_Node000027_Node000028" class="edge">
<title>Node27&#45;&gt;Node28</title>
<g id="a_edge42_Node000027_Node000028"><a xlink:title=" ">
<path fill="none" stroke="#63b8ff" d="M1476,-54.75C1476,-47.8 1476,-37.85 1476,-29.13"/>
<polygon fill="#63b8ff" stroke="#63b8ff" points="1479.5,-29.09 1476,-19.09 1472.5,-29.09 1479.5,-29.09"/>
</a>
</g>
</g>
<!-- Node27&#45;&gt;Node29 -->
<g id="edge43_Node000027_Node000029" class="edge">
<title>Node27&#45;&gt;Node29</title>
<g id="a_edge43_Node000027_Node000029"><a xlink:title=" ">
<path fill="none" stroke="#63b8ff" d="M1513.27,-54.98C1553.32,-45.84 1617.07,-31.27 1660.64,-21.32"/>
<polygon fill="#63b8ff" stroke="#63b8ff" points="1661.46,-24.72 1670.43,-19.08 1659.9,-17.9 1661.46,-24.72"/>
</a>
</g>
</g>
<!-- Node33&#45;&gt;Node7 -->
<g id="edge57_Node000033_Node000007" class="edge">
<title>Node33&#45;&gt;Node7</title>
<g id="a_edge57_Node000033_Node000007"><a xlink:title=" ">
<path fill="none" stroke="#63b8ff" d="M1765.42,-109.94C1781.38,-96.98 1806.71,-72.1 1791,-55 1782.79,-46.06 1424.82,-21.01 1307.09,-13"/>
<polygon fill="#63b8ff" stroke="#63b8ff" points="1307,-9.48 1296.79,-12.3 1306.53,-16.47 1307,-9.48"/>
</a>
</g>
</g>
<!-- Node33&#45;&gt;Node29 -->
<g id="edge53_Node000033_Node000029" class="edge">
<title>Node33&#45;&gt;Node29</title>
<g id="a_edge53_Node000033_Node000029"><a xlink:title=" ">
<path fill="none" stroke="#63b8ff" d="M1776.83,-109.99C1802.89,-98.93 1839.99,-78.26 1824,-55 1808.75,-32.82 1780.8,-21.69 1756.16,-16.1"/>
<polygon fill="#63b8ff" stroke="#63b8ff" points="1756.69,-12.64 1746.2,-14.1 1755.31,-19.5 1756.69,-12.64"/>
</a>
</g>
</g>
<!-- Node33&#45;&gt;Node30 -->
<g id="edge52_Node000033_Node000030" class="edge">
<title>Node33&#45;&gt;Node30</title>
<g id="a_edge52_Node000033_Node000030"><a xlink:title=" ">
<path fill="none" stroke="#63b8ff" d="M1731.51,-109.98C1708.48,-101.27 1672.46,-87.63 1646.37,-77.75"/>
<polygon fill="#63b8ff" stroke="#63b8ff" points="1647.49,-74.44 1636.9,-74.17 1645.02,-80.98 1647.49,-74.44"/>
</a>
</g>
</g>
<!-- Node33&#45;&gt;Node31 -->
<g id="edge54_Node000033_Node000031" class="edge">
<title>Node33&#45;&gt;Node31</title>
<g id="a_edge54_Node000033_Node000031"><a xlink:title=" ">
<path fill="none" stroke="#63b8ff" d="M1743.4,-109.98C1733.54,-102.07 1718.65,-90.11 1706.78,-80.58"/>
<polygon fill="#63b8ff" stroke="#63b8ff" points="1708.79,-77.7 1698.8,-74.17 1704.4,-83.16 1708.79,-77.7"/>
</a>
</g>
</g>
<!-- Node33&#45;&gt;Node32 -->
<g id="edge55_Node000033_Node000032" class="edge">
<title>Node33&#45;&gt;Node32</title>
<g id="a_edge55_Node000033_Node000032"><a xlink:title=" ">
<path fill="none" stroke="#63b8ff" d="M1754,-109.75C1754,-102.8 1754,-92.85 1754,-84.13"/>
<polygon fill="#63b8ff" stroke="#63b8ff" points="1757.5,-84.09 1754,-74.09 1750.5,-84.09 1757.5,-84.09"/>
</a>
</g>
</g>
<!-- Node34 -->
<g id="Node000034" class="node">
<title>Node34</title>
<g id="a_Node000034"><a xlink:title=" ">
<polygon fill="#e0e0e0" stroke="#999999" points="1928,-74 1876,-74 1876,-55 1928,-55 1928,-74"/>
<text text-anchor="middle" x="1902" y="-62" font-family="Helvetica,sans-Serif" font-size="10.00">QRectF</text>
</a>
</g>
</g>
<!-- Node33&#45;&gt;Node34 -->
<g id="edge56_Node000033_Node000034" class="edge">
<title>Node33&#45;&gt;Node34</title>
<g id="a_edge56_Node000033_Node000034"><a xlink:title=" ">
<path fill="none" stroke="#63b8ff" d="M1777.78,-109.98C1802.23,-101.23 1840.53,-87.51 1868.15,-77.62"/>
<polygon fill="#63b8ff" stroke="#63b8ff" points="1869.55,-80.84 1877.79,-74.17 1867.19,-74.25 1869.55,-80.84"/>
</a>
</g>
</g>
</g>
</svg>
