<?xml version="1.0" encoding="UTF-8" standalone="no"?>
<!DOCTYPE svg PUBLIC "-//W3C//DTD SVG 1.1//EN"
 "http://www.w3.org/Graphics/SVG/1.1/DTD/svg11.dtd">
<!-- Generated by graphviz version 2.43.0 (0)
 -->
<!-- Title: services/export/DebugExportHelper.cpp Pages: 1 -->
<svg width="1204pt" height="258pt"
 viewBox="0.00 0.00 1203.67 258.00" xmlns="http://www.w3.org/2000/svg" xmlns:xlink="http://www.w3.org/1999/xlink">
<g id="graph0" class="graph" transform="scale(1 1) rotate(0) translate(4 254)">
<title>services/export/DebugExportHelper.cpp</title>
<!-- Node1 -->
<g id="Node000001" class="node">
<title>Node1</title>
<g id="a_Node000001"><a xlink:title=" ">
<polygon fill="#999999" stroke="#666666" points="1031.67,-250 873.67,-250 873.67,-220 1031.67,-220 1031.67,-250"/>
<text text-anchor="start" x="881.67" y="-238" font-family="Helvetica,sans-Serif" font-size="10.00">services/export/DebugExport</text>
<text text-anchor="middle" x="952.67" y="-227" font-family="Helvetica,sans-Serif" font-size="10.00">Helper.cpp</text>
</a>
</g>
</g>
<!-- Node2 -->
<g id="Node000002" class="node">
<title>Node2</title>
<g id="a_Node000002"><a xlink:href="DebugExportHelper_8h.html" target="_top" xlink:title=" ">
<polygon fill="white" stroke="#666666" points="237.67,-129 117.67,-129 117.67,-110 237.67,-110 237.67,-129"/>
<text text-anchor="middle" x="177.67" y="-117" font-family="Helvetica,sans-Serif" font-size="10.00">DebugExportHelper.h</text>
</a>
</g>
</g>
<!-- Node1&#45;&gt;Node2 -->
<g id="edge1_Node000001_Node000002" class="edge">
<title>Node1&#45;&gt;Node2</title>
<g id="a_edge1_Node000001_Node000002"><a xlink:title=" ">
<path fill="none" stroke="#63b8ff" d="M873.42,-228.27C778.5,-220.81 614.86,-206.06 475.67,-184 384.74,-169.59 279.7,-145.42 221.78,-131.42"/>
<polygon fill="#63b8ff" stroke="#63b8ff" points="222.41,-127.98 211.87,-129.02 220.76,-134.78 222.41,-127.98"/>
</a>
</g>
</g>
<!-- Node9 -->
<g id="Node000009" class="node">
<title>Node9</title>
<g id="a_Node000009"><a xlink:href="ComponentData_8h.html" target="_top" xlink:title=" ">
<polygon fill="white" stroke="#666666" points="589.17,-184 484.17,-184 484.17,-165 589.17,-165 589.17,-184"/>
<text text-anchor="middle" x="536.67" y="-172" font-family="Helvetica,sans-Serif" font-size="10.00">ComponentData.h</text>
</a>
</g>
</g>
<!-- Node1&#45;&gt;Node9 -->
<g id="edge8_Node000001_Node000009" class="edge">
<title>Node1&#45;&gt;Node9</title>
<g id="a_edge8_Node000001_Node000009"><a xlink:title=" ">
<path fill="none" stroke="#63b8ff" d="M873.44,-222.86C793.74,-211.65 672.45,-194.59 599.25,-184.3"/>
<polygon fill="#63b8ff" stroke="#63b8ff" points="599.64,-180.82 589.25,-182.89 598.66,-187.75 599.64,-180.82"/>
</a>
</g>
</g>
<!-- Node16 -->
<g id="Node000016" class="node">
<title>Node16</title>
<g id="a_Node000016"><a xlink:href="AtomicFileWriter_8h.html" target="_top" xlink:title=" ">
<polygon fill="white" stroke="#666666" points="1083.17,-184 928.17,-184 928.17,-165 1083.17,-165 1083.17,-184"/>
<text text-anchor="middle" x="1005.67" y="-172" font-family="Helvetica,sans-Serif" font-size="10.00">core/utils/AtomicFileWriter.h</text>
</a>
</g>
</g>
<!-- Node1&#45;&gt;Node16 -->
<g id="edge31_Node000001_Node000016" class="edge">
<title>Node1&#45;&gt;Node16</title>
<g id="a_edge31_Node000001_Node000016"><a xlink:title=" ">
<path fill="none" stroke="#63b8ff" d="M965.5,-219.84C973.19,-211.35 983,-200.52 991,-191.69"/>
<polygon fill="#63b8ff" stroke="#63b8ff" points="993.61,-194.03 997.73,-184.27 988.42,-189.33 993.61,-194.03"/>
</a>
</g>
</g>
<!-- Node17 -->
<g id="Node000017" class="node">
<title>Node17</title>
<g id="a_Node000017"><a xlink:title=" ">
<polygon fill="#e0e0e0" stroke="#999999" points="918.67,-129 880.67,-129 880.67,-110 918.67,-110 918.67,-129"/>
<text text-anchor="middle" x="899.67" y="-117" font-family="Helvetica,sans-Serif" font-size="10.00">QDir</text>
</a>
</g>
</g>
<!-- Node1&#45;&gt;Node17 -->
<g id="edge38_Node000001_Node000017" class="edge">
<title>Node1&#45;&gt;Node17</title>
<g id="a_edge38_Node000001_Node000017"><a xlink:title=" ">
<path fill="none" stroke="#63b8ff" d="M941.72,-219.76C934.68,-210.09 925.75,-196.77 919.67,-184 912.83,-169.63 907.56,-152.35 904.16,-139.45"/>
<polygon fill="#63b8ff" stroke="#63b8ff" points="907.47,-138.27 901.65,-129.42 900.68,-139.97 907.47,-138.27"/>
</a>
</g>
</g>
<!-- Node18 -->
<g id="Node000018" class="node">
<title>Node18</title>
<g id="a_Node000018"><a xlink:title=" ">
<polygon fill="#e0e0e0" stroke="#999999" points="1178.17,-129 1137.17,-129 1137.17,-110 1178.17,-110 1178.17,-129"/>
<text text-anchor="middle" x="1157.67" y="-117" font-family="Helvetica,sans-Serif" font-size="10.00">QFile</text>
</a>
</g>
</g>
<!-- Node1&#45;&gt;Node18 -->
<g id="edge39_Node000001_Node000018" class="edge">
<title>Node1&#45;&gt;Node18</title>
<g id="a_edge39_Node000001_Node000018"><a xlink:title=" ">
<path fill="none" stroke="#63b8ff" d="M1009.02,-219.94C1035.62,-211.82 1067.06,-200 1092.67,-184 1113.06,-171.26 1132.2,-151.19 1144.36,-137.03"/>
<polygon fill="#63b8ff" stroke="#63b8ff" points="1147.26,-139.02 1150.98,-129.09 1141.89,-134.53 1147.26,-139.02"/>
</a>
</g>
</g>
<!-- Node21 -->
<g id="Node000021" class="node">
<title>Node21</title>
<g id="a_Node000021"><a xlink:title=" ">
<polygon fill="#e0e0e0" stroke="#999999" points="1195.67,-184 1139.67,-184 1139.67,-165 1195.67,-165 1195.67,-184"/>
<text text-anchor="middle" x="1167.67" y="-172" font-family="Helvetica,sans-Serif" font-size="10.00">QDebug</text>
</a>
</g>
</g>
<!-- Node1&#45;&gt;Node21 -->
<g id="edge37_Node000001_Node000021" class="edge">
<title>Node1&#45;&gt;Node21</title>
<g id="a_edge37_Node000001_Node000021"><a xlink:title=" ">
<path fill="none" stroke="#63b8ff" d="M1004.17,-219.99C1042.84,-209.47 1094.92,-195.29 1129.81,-185.8"/>
<polygon fill="#63b8ff" stroke="#63b8ff" points="1130.89,-189.14 1139.62,-183.13 1129.05,-182.38 1130.89,-189.14"/>
</a>
</g>
</g>
<!-- Node3 -->
<g id="Node000003" class="node">
<title>Node3</title>
<g id="a_Node000003"><a xlink:title=" ">
<polygon fill="#e0e0e0" stroke="#999999" points="184.17,-19 111.17,-19 111.17,0 184.17,0 184.17,-19"/>
<text text-anchor="middle" x="147.67" y="-7" font-family="Helvetica,sans-Serif" font-size="10.00">QByteArray</text>
</a>
</g>
</g>
<!-- Node2&#45;&gt;Node3 -->
<g id="edge2_Node000002_Node000003" class="edge">
<title>Node2&#45;&gt;Node3</title>
<g id="a_edge2_Node000002_Node000003"><a xlink:title=" ">
<path fill="none" stroke="#63b8ff" d="M117.22,-110.65C73.69,-103.62 20.32,-91.66 6.67,-74 -21.13,-38.03 49.54,-21.86 100.57,-15.04"/>
<polygon fill="#63b8ff" stroke="#63b8ff" points="101.31,-18.47 110.8,-13.76 100.44,-11.53 101.31,-18.47"/>
</a>
</g>
</g>
<!-- Node4 -->
<g id="Node000004" class="node">
<title>Node4</title>
<g id="a_Node000004"><a xlink:title=" ">
<polygon fill="#e0e0e0" stroke="#999999" points="535.17,-74 464.17,-74 464.17,-55 535.17,-55 535.17,-74"/>
<text text-anchor="middle" x="499.67" y="-62" font-family="Helvetica,sans-Serif" font-size="10.00">QJsonArray</text>
</a>
</g>
</g>
<!-- Node2&#45;&gt;Node4 -->
<g id="edge3_Node000002_Node000004" class="edge">
<title>Node2&#45;&gt;Node4</title>
<g id="a_edge3_Node000002_Node000004"><a xlink:title=" ">
<path fill="none" stroke="#63b8ff" d="M233.45,-110C287.26,-101.69 371.26,-88.46 453.77,-74.12"/>
<polygon fill="#63b8ff" stroke="#63b8ff" points="454.58,-77.53 463.83,-72.36 453.37,-70.63 454.58,-77.53"/>
</a>
</g>
</g>
<!-- Node5 -->
<g id="Node000005" class="node">
<title>Node5</title>
<g id="a_Node000005"><a xlink:title=" ">
<polygon fill="#e0e0e0" stroke="#999999" points="111.17,-74 16.17,-74 16.17,-55 111.17,-55 111.17,-74"/>
<text text-anchor="middle" x="63.67" y="-62" font-family="Helvetica,sans-Serif" font-size="10.00">QJsonDocument</text>
</a>
</g>
</g>
<!-- Node2&#45;&gt;Node5 -->
<g id="edge4_Node000002_Node000005" class="edge">
<title>Node2&#45;&gt;Node5</title>
<g id="a_edge4_Node000002_Node000005"><a xlink:title=" ">
<path fill="none" stroke="#63b8ff" d="M159.35,-109.98C141.02,-101.46 112.56,-88.23 91.44,-78.41"/>
<polygon fill="#63b8ff" stroke="#63b8ff" points="92.86,-75.21 82.32,-74.17 89.91,-81.56 92.86,-75.21"/>
</a>
</g>
</g>
<!-- Node6 -->
<g id="Node000006" class="node">
<title>Node6</title>
<g id="a_Node000006"><a xlink:title=" ">
<polygon fill="#e0e0e0" stroke="#999999" points="437.67,-19 361.67,-19 361.67,0 437.67,0 437.67,-19"/>
<text text-anchor="middle" x="399.67" y="-7" font-family="Helvetica,sans-Serif" font-size="10.00">QJsonObject</text>
</a>
</g>
</g>
<!-- Node2&#45;&gt;Node6 -->
<g id="edge5_Node000002_Node000006" class="edge">
<title>Node2&#45;&gt;Node6</title>
<g id="a_edge5_Node000002_Node000006"><a xlink:title=" ">
<path fill="none" stroke="#63b8ff" d="M171.55,-109.61C163.17,-96.24 150.56,-70.82 163.67,-55 187,-26.86 289.1,-16.39 351.11,-12.59"/>
<polygon fill="#63b8ff" stroke="#63b8ff" points="351.67,-16.06 361.45,-11.99 351.26,-9.07 351.67,-16.06"/>
</a>
</g>
</g>
<!-- Node7 -->
<g id="Node000007" class="node">
<title>Node7</title>
<g id="a_Node000007"><a xlink:title=" ">
<polygon fill="#e0e0e0" stroke="#999999" points="297.67,-74 205.67,-74 205.67,-55 297.67,-55 297.67,-74"/>
<text text-anchor="middle" x="251.67" y="-62" font-family="Helvetica,sans-Serif" font-size="10.00">QSharedPointer</text>
</a>
</g>
</g>
<!-- Node2&#45;&gt;Node7 -->
<g id="edge6_Node000002_Node000007" class="edge">
<title>Node2&#45;&gt;Node7</title>
<g id="a_edge6_Node000002_Node000007"><a xlink:title=" ">
<path fill="none" stroke="#63b8ff" d="M189.56,-109.98C200.82,-101.92 217.96,-89.65 231.38,-80.03"/>
<polygon fill="#63b8ff" stroke="#63b8ff" points="233.47,-82.84 239.56,-74.17 229.4,-77.15 233.47,-82.84"/>
</a>
</g>
</g>
<!-- Node8 -->
<g id="Node000008" class="node">
<title>Node8</title>
<g id="a_Node000008"><a xlink:title=" ">
<polygon fill="#e0e0e0" stroke="#999999" points="732.17,-19 679.17,-19 679.17,0 732.17,0 732.17,-19"/>
<text text-anchor="middle" x="705.67" y="-7" font-family="Helvetica,sans-Serif" font-size="10.00">QString</text>
</a>
</g>
</g>
<!-- Node2&#45;&gt;Node8 -->
<g id="edge7_Node000002_Node000008" class="edge">
<title>Node2&#45;&gt;Node8</title>
<g id="a_edge7_Node000002_Node000008"><a xlink:title=" ">
<path fill="none" stroke="#63b8ff" d="M177.43,-109.89C177.57,-95.91 180.08,-68.52 196.67,-55 233.1,-25.32 558,-14.28 668.83,-11.36"/>
<polygon fill="#63b8ff" stroke="#63b8ff" points="668.96,-14.86 678.87,-11.11 668.78,-7.86 668.96,-14.86"/>
</a>
</g>
</g>
<!-- Node9&#45;&gt;Node4 -->
<g id="edge27_Node000009_Node000004" class="edge">
<title>Node9&#45;&gt;Node4</title>
<g id="a_edge27_Node000009_Node000004"><a xlink:title=" ">
<path fill="none" stroke="#63b8ff" d="M532.84,-164.73C529.01,-155.82 523.09,-141.58 518.67,-129 513.42,-114.05 508.33,-96.82 504.73,-84.08"/>
<polygon fill="#63b8ff" stroke="#63b8ff" points="508.04,-82.91 502,-74.21 501.3,-84.78 508.04,-82.91"/>
</a>
</g>
</g>
<!-- Node9&#45;&gt;Node6 -->
<g id="edge28_Node000009_Node000006" class="edge">
<title>Node9&#45;&gt;Node6</title>
<g id="a_edge28_Node000009_Node000006"><a xlink:title=" ">
<path fill="none" stroke="#63b8ff" d="M494.17,-165C448.17,-153.28 377.05,-127.25 344.67,-74 333.24,-55.2 354.39,-36.5 373.69,-24.31"/>
<polygon fill="#63b8ff" stroke="#63b8ff" points="375.49,-27.31 382.3,-19.2 371.91,-21.3 375.49,-27.31"/>
</a>
</g>
</g>
<!-- Node9&#45;&gt;Node7 -->
<g id="edge29_Node000009_Node000007" class="edge">
<title>Node9&#45;&gt;Node7</title>
<g id="a_edge29_Node000009_Node000007"><a xlink:title=" ">
<path fill="none" stroke="#63b8ff" d="M484.01,-172.08C436.33,-168.79 365.53,-158.74 311.67,-129 291.22,-117.71 273.66,-97.02 262.91,-82.32"/>
<polygon fill="#63b8ff" stroke="#63b8ff" points="265.74,-80.27 257.14,-74.09 260.01,-84.29 265.74,-80.27"/>
</a>
</g>
</g>
<!-- Node9&#45;&gt;Node8 -->
<g id="edge30_Node000009_Node000008" class="edge">
<title>Node9&#45;&gt;Node8</title>
<g id="a_edge30_Node000009_Node000008"><a xlink:title=" ">
<path fill="none" stroke="#63b8ff" d="M589.4,-167.43C681.51,-155.54 865.26,-125.77 899.67,-74 937.47,-17.13 808.46,-9.9 742.33,-9.8"/>
<polygon fill="#63b8ff" stroke="#63b8ff" points="742.28,-6.3 732.29,-9.83 742.31,-13.3 742.28,-6.3"/>
</a>
</g>
</g>
<!-- Node10 -->
<g id="Node000010" class="node">
<title>Node10</title>
<g id="a_Node000010"><a xlink:href="FootprintData_8h.html" target="_top" xlink:title=" ">
<polygon fill="white" stroke="#666666" points="619.67,-129 527.67,-129 527.67,-110 619.67,-110 619.67,-129"/>
<text text-anchor="middle" x="573.67" y="-117" font-family="Helvetica,sans-Serif" font-size="10.00">FootprintData.h</text>
</a>
</g>
</g>
<!-- Node9&#45;&gt;Node10 -->
<g id="edge9_Node000009_Node000010" class="edge">
<title>Node9&#45;&gt;Node10</title>
<g id="a_edge9_Node000009_Node000010"><a xlink:title=" ">
<path fill="none" stroke="#63b8ff" d="M542.78,-164.75C547.95,-157.34 555.52,-146.5 561.86,-137.41"/>
<polygon fill="#63b8ff" stroke="#63b8ff" points="564.82,-139.29 567.67,-129.09 559.08,-135.29 564.82,-139.29"/>
</a>
</g>
</g>
<!-- Node11 -->
<g id="Node000011" class="node">
<title>Node11</title>
<g id="a_Node000011"><a xlink:href="Model3DData_8h.html" target="_top" xlink:title=" ">
<polygon fill="white" stroke="#666666" points="445.67,-74 353.67,-74 353.67,-55 445.67,-55 445.67,-74"/>
<text text-anchor="middle" x="399.67" y="-62" font-family="Helvetica,sans-Serif" font-size="10.00">Model3DData.h</text>
</a>
</g>
</g>
<!-- Node9&#45;&gt;Node11 -->
<g id="edge19_Node000009_Node000011" class="edge">
<title>Node9&#45;&gt;Node11</title>
<g id="a_edge19_Node000009_Node000011"><a xlink:title=" ">
<path fill="none" stroke="#63b8ff" d="M525.46,-164.66C502.06,-146.22 447.8,-103.45 418.79,-80.57"/>
<polygon fill="#63b8ff" stroke="#63b8ff" points="420.67,-77.6 410.65,-74.16 416.34,-83.1 420.67,-77.6"/>
</a>
</g>
</g>
<!-- Node14 -->
<g id="Node000014" class="node">
<title>Node14</title>
<g id="a_Node000014"><a xlink:href="SymbolData_8h.html" target="_top" xlink:title=" ">
<polygon fill="white" stroke="#666666" points="759.67,-129 673.67,-129 673.67,-110 759.67,-110 759.67,-129"/>
<text text-anchor="middle" x="716.67" y="-117" font-family="Helvetica,sans-Serif" font-size="10.00">SymbolData.h</text>
</a>
</g>
</g>
<!-- Node9&#45;&gt;Node14 -->
<g id="edge20_Node000009_Node000014" class="edge">
<title>Node9&#45;&gt;Node14</title>
<g id="a_edge20_Node000009_Node000014"><a xlink:title=" ">
<path fill="none" stroke="#63b8ff" d="M565.59,-164.98C595.94,-156.05 643.84,-141.94 677.55,-132.02"/>
<polygon fill="#63b8ff" stroke="#63b8ff" points="678.92,-135.26 687.52,-129.08 676.94,-128.55 678.92,-135.26"/>
</a>
</g>
</g>
<!-- Node10&#45;&gt;Node4 -->
<g id="edge14_Node000010_Node000004" class="edge">
<title>Node10&#45;&gt;Node4</title>
<g id="a_edge14_Node000010_Node000004"><a xlink:title=" ">
<path fill="none" stroke="#63b8ff" d="M561.78,-109.98C550.52,-101.92 533.38,-89.65 519.96,-80.03"/>
<polygon fill="#63b8ff" stroke="#63b8ff" points="521.94,-77.15 511.78,-74.17 517.87,-82.84 521.94,-77.15"/>
</a>
</g>
</g>
<!-- Node10&#45;&gt;Node6 -->
<g id="edge15_Node000010_Node000006" class="edge">
<title>Node10&#45;&gt;Node6</title>
<g id="a_edge15_Node000010_Node000006"><a xlink:title=" ">
<path fill="none" stroke="#63b8ff" d="M572.06,-109.75C569.08,-96.08 561.43,-69.71 544.67,-55 517.82,-31.44 478.7,-20.36 447.87,-15.14"/>
<polygon fill="#63b8ff" stroke="#63b8ff" points="448.17,-11.64 437.75,-13.58 447.11,-18.56 448.17,-11.64"/>
</a>
</g>
</g>
<!-- Node10&#45;&gt;Node8 -->
<g id="edge18_Node000010_Node000008" class="edge">
<title>Node10&#45;&gt;Node8</title>
<g id="a_edge18_Node000010_Node000008"><a xlink:title=" ">
<path fill="none" stroke="#63b8ff" d="M578.58,-109.74C586.34,-96.52 602.52,-71.31 621.67,-55 637.22,-41.76 657.35,-30.93 674.02,-23.26"/>
<polygon fill="#63b8ff" stroke="#63b8ff" points="675.64,-26.37 683.36,-19.12 672.8,-19.97 675.64,-26.37"/>
</a>
</g>
</g>
<!-- Node10&#45;&gt;Node11 -->
<g id="edge10_Node000010_Node000011" class="edge">
<title>Node10&#45;&gt;Node11</title>
<g id="a_edge10_Node000010_Node000011"><a xlink:title=" ">
<path fill="none" stroke="#63b8ff" d="M545.71,-109.98C516.38,-101.05 470.07,-86.94 437.49,-77.02"/>
<polygon fill="#63b8ff" stroke="#63b8ff" points="438.43,-73.65 427.85,-74.08 436.39,-80.34 438.43,-73.65"/>
</a>
</g>
</g>
<!-- Node12 -->
<g id="Node000012" class="node">
<title>Node12</title>
<g id="a_Node000012"><a xlink:title=" ">
<polygon fill="#e0e0e0" stroke="#999999" points="671.17,-74 630.17,-74 630.17,-55 671.17,-55 671.17,-74"/>
<text text-anchor="middle" x="650.67" y="-62" font-family="Helvetica,sans-Serif" font-size="10.00">QList</text>
</a>
</g>
</g>
<!-- Node10&#45;&gt;Node12 -->
<g id="edge16_Node000010_Node000012" class="edge">
<title>Node10&#45;&gt;Node12</title>
<g id="a_edge16_Node000010_Node000012"><a xlink:title=" ">
<path fill="none" stroke="#63b8ff" d="M586.04,-109.98C597.76,-101.92 615.59,-89.65 629.56,-80.03"/>
<polygon fill="#63b8ff" stroke="#63b8ff" points="631.82,-82.72 638.07,-74.17 627.85,-76.96 631.82,-82.72"/>
</a>
</g>
</g>
<!-- Node13 -->
<g id="Node000013" class="node">
<title>Node13</title>
<g id="a_Node000013"><a xlink:title=" ">
<polygon fill="#e0e0e0" stroke="#999999" points="744.17,-74 689.17,-74 689.17,-55 744.17,-55 744.17,-74"/>
<text text-anchor="middle" x="716.67" y="-62" font-family="Helvetica,sans-Serif" font-size="10.00">QPointF</text>
</a>
</g>
</g>
<!-- Node10&#45;&gt;Node13 -->
<g id="edge17_Node000010_Node000013" class="edge">
<title>Node10&#45;&gt;Node13</title>
<g id="a_edge17_Node000010_Node000013"><a xlink:title=" ">
<path fill="none" stroke="#63b8ff" d="M596.65,-109.98C620.17,-101.27 656.96,-87.63 683.61,-77.75"/>
<polygon fill="#63b8ff" stroke="#63b8ff" points="685.12,-80.93 693.28,-74.17 682.68,-74.36 685.12,-80.93"/>
</a>
</g>
</g>
<!-- Node11&#45;&gt;Node3 -->
<g id="edge11_Node000011_Node000003" class="edge">
<title>Node11&#45;&gt;Node3</title>
<g id="a_edge11_Node000011_Node000003"><a xlink:title=" ">
<path fill="none" stroke="#63b8ff" d="M359.18,-54.98C314.2,-45.53 241.7,-30.28 194.36,-20.32"/>
<polygon fill="#63b8ff" stroke="#63b8ff" points="194.88,-16.85 184.37,-18.22 193.44,-23.7 194.88,-16.85"/>
</a>
</g>
</g>
<!-- Node11&#45;&gt;Node6 -->
<g id="edge12_Node000011_Node000006" class="edge">
<title>Node11&#45;&gt;Node6</title>
<g id="a_edge12_Node000011_Node000006"><a xlink:title=" ">
<path fill="none" stroke="#63b8ff" d="M399.67,-54.75C399.67,-47.8 399.67,-37.85 399.67,-29.13"/>
<polygon fill="#63b8ff" stroke="#63b8ff" points="403.17,-29.09 399.67,-19.09 396.17,-29.09 403.17,-29.09"/>
</a>
</g>
</g>
<!-- Node11&#45;&gt;Node8 -->
<g id="edge13_Node000011_Node000008" class="edge">
<title>Node11&#45;&gt;Node8</title>
<g id="a_edge13_Node000011_Node000008"><a xlink:title=" ">
<path fill="none" stroke="#63b8ff" d="M445.81,-55.51C506.83,-44.94 613.13,-26.53 668.98,-16.85"/>
<polygon fill="#63b8ff" stroke="#63b8ff" points="669.87,-20.25 679.13,-15.1 668.68,-13.35 669.87,-20.25"/>
</a>
</g>
</g>
<!-- Node14&#45;&gt;Node4 -->
<g id="edge21_Node000014_Node000004" class="edge">
<title>Node14&#45;&gt;Node4</title>
<g id="a_edge21_Node000014_Node000004"><a xlink:title=" ">
<path fill="none" stroke="#63b8ff" d="M681.81,-109.98C644.59,-100.89 585.47,-86.46 544.74,-76.51"/>
<polygon fill="#63b8ff" stroke="#63b8ff" points="545.35,-73.05 534.81,-74.08 543.69,-79.85 545.35,-73.05"/>
</a>
</g>
</g>
<!-- Node14&#45;&gt;Node6 -->
<g id="edge22_Node000014_Node000006" class="edge">
<title>Node14&#45;&gt;Node6</title>
<g id="a_edge22_Node000014_Node000006"><a xlink:title=" ">
<path fill="none" stroke="#63b8ff" d="M728.27,-109.8C744.13,-96.89 768.95,-72.32 753.67,-55 733.77,-32.44 540.22,-18.49 448.03,-13.08"/>
<polygon fill="#63b8ff" stroke="#63b8ff" points="448.03,-9.57 437.84,-12.49 447.62,-16.56 448.03,-9.57"/>
</a>
</g>
</g>
<!-- Node14&#45;&gt;Node8 -->
<g id="edge26_Node000014_Node000008" class="edge">
<title>Node14&#45;&gt;Node8</title>
<g id="a_edge26_Node000014_Node000008"><a xlink:title=" ">
<path fill="none" stroke="#63b8ff" d="M739.87,-109.94C765.34,-99.13 800.87,-79.01 786.67,-55 776.9,-38.49 758.6,-27.7 741.86,-20.88"/>
<polygon fill="#63b8ff" stroke="#63b8ff" points="742.85,-17.52 732.26,-17.31 740.41,-24.08 742.85,-17.52"/>
</a>
</g>
</g>
<!-- Node14&#45;&gt;Node12 -->
<g id="edge23_Node000014_Node000012" class="edge">
<title>Node14&#45;&gt;Node12</title>
<g id="a_edge23_Node000014_Node000012"><a xlink:title=" ">
<path fill="none" stroke="#63b8ff" d="M706.07,-109.98C696.21,-102.07 681.32,-90.11 669.46,-80.58"/>
<polygon fill="#63b8ff" stroke="#63b8ff" points="671.46,-77.7 661.47,-74.17 667.07,-83.16 671.46,-77.7"/>
</a>
</g>
</g>
<!-- Node14&#45;&gt;Node13 -->
<g id="edge24_Node000014_Node000013" class="edge">
<title>Node14&#45;&gt;Node13</title>
<g id="a_edge24_Node000014_Node000013"><a xlink:title=" ">
<path fill="none" stroke="#63b8ff" d="M716.67,-109.75C716.67,-102.8 716.67,-92.85 716.67,-84.13"/>
<polygon fill="#63b8ff" stroke="#63b8ff" points="720.17,-84.09 716.67,-74.09 713.17,-84.09 720.17,-84.09"/>
</a>
</g>
</g>
<!-- Node15 -->
<g id="Node000015" class="node">
<title>Node15</title>
<g id="a_Node000015"><a xlink:title=" ">
<polygon fill="#e0e0e0" stroke="#999999" points="890.67,-74 838.67,-74 838.67,-55 890.67,-55 890.67,-74"/>
<text text-anchor="middle" x="864.67" y="-62" font-family="Helvetica,sans-Serif" font-size="10.00">QRectF</text>
</a>
</g>
</g>
<!-- Node14&#45;&gt;Node15 -->
<g id="edge25_Node000014_Node000015" class="edge">
<title>Node14&#45;&gt;Node15</title>
<g id="a_edge25_Node000014_Node000015"><a xlink:title=" ">
<path fill="none" stroke="#63b8ff" d="M740.45,-109.98C764.9,-101.23 803.21,-87.51 830.82,-77.62"/>
<polygon fill="#63b8ff" stroke="#63b8ff" points="832.22,-80.84 840.46,-74.17 829.86,-74.25 832.22,-80.84"/>
</a>
</g>
</g>
<!-- Node16&#45;&gt;Node8 -->
<g id="edge35_Node000016_Node000008" class="edge">
<title>Node16&#45;&gt;Node8</title>
<g id="a_edge35_Node000016_Node000008"><a xlink:title=" ">
<path fill="none" stroke="#63b8ff" d="M1035.05,-164.94C1065.96,-154.39 1107.8,-134.79 1089.67,-110 1048.31,-53.45 830.1,-23.93 742.3,-14.2"/>
<polygon fill="#63b8ff" stroke="#63b8ff" points="742.58,-10.71 732.26,-13.12 741.83,-17.67 742.58,-10.71"/>
</a>
</g>
</g>
<!-- Node16&#45;&gt;Node17 -->
<g id="edge32_Node000016_Node000017" class="edge">
<title>Node16&#45;&gt;Node17</title>
<g id="a_edge32_Node000016_Node000017"><a xlink:title=" ">
<path fill="none" stroke="#63b8ff" d="M988.64,-164.98C971.74,-156.54 945.61,-143.47 926.03,-133.68"/>
<polygon fill="#63b8ff" stroke="#63b8ff" points="927.52,-130.51 917.01,-129.17 924.39,-136.77 927.52,-130.51"/>
</a>
</g>
</g>
<!-- Node16&#45;&gt;Node18 -->
<g id="edge33_Node000016_Node000018" class="edge">
<title>Node16&#45;&gt;Node18</title>
<g id="a_edge33_Node000016_Node000018"><a xlink:title=" ">
<path fill="none" stroke="#63b8ff" d="M1030.09,-164.98C1056.52,-155.77 1098.69,-141.07 1127.25,-131.11"/>
<polygon fill="#63b8ff" stroke="#63b8ff" points="1128.44,-134.4 1136.73,-127.8 1126.14,-127.79 1128.44,-134.4"/>
</a>
</g>
</g>
<!-- Node19 -->
<g id="Node000019" class="node">
<title>Node19</title>
<g id="a_Node000019"><a xlink:title=" ">
<polygon fill="#e0e0e0" stroke="#999999" points="996.67,-129 936.67,-129 936.67,-110 996.67,-110 996.67,-129"/>
<text text-anchor="middle" x="966.67" y="-117" font-family="Helvetica,sans-Serif" font-size="10.00">QFileInfo</text>
</a>
</g>
</g>
<!-- Node16&#45;&gt;Node19 -->
<g id="edge34_Node000016_Node000019" class="edge">
<title>Node16&#45;&gt;Node19</title>
<g id="a_edge34_Node000016_Node000019"><a xlink:title=" ">
<path fill="none" stroke="#63b8ff" d="M999.23,-164.75C993.78,-157.34 985.81,-146.5 979.11,-137.41"/>
<polygon fill="#63b8ff" stroke="#63b8ff" points="981.74,-135.07 972.99,-129.09 976.1,-139.22 981.74,-135.07"/>
</a>
</g>
</g>
<!-- Node20 -->
<g id="Node000020" class="node">
<title>Node20</title>
<g id="a_Node000020"><a xlink:title=" ">
<polygon fill="#e0e0e0" stroke="#999999" points="1080.17,-129 1015.17,-129 1015.17,-110 1080.17,-110 1080.17,-129"/>
<text text-anchor="middle" x="1047.67" y="-117" font-family="Helvetica,sans-Serif" font-size="10.00">functional</text>
</a>
</g>
</g>
<!-- Node16&#45;&gt;Node20 -->
<g id="edge36_Node000016_Node000020" class="edge">
<title>Node16&#45;&gt;Node20</title>
<g id="a_edge36_Node000016_Node000020"><a xlink:title=" ">
<path fill="none" stroke="#63b8ff" d="M1012.61,-164.75C1018.54,-157.26 1027.24,-146.28 1034.49,-137.13"/>
<polygon fill="#63b8ff" stroke="#63b8ff" points="1037.4,-139.1 1040.86,-129.09 1031.91,-134.75 1037.4,-139.1"/>
</a>
</g>
</g>
</g>
</svg>
