<?xml version="1.0" encoding="UTF-8" standalone="no"?>
<!DOCTYPE svg PUBLIC "-//W3C//DTD SVG 1.1//EN"
 "http://www.w3.org/Graphics/SVG/1.1/DTD/svg11.dtd">
<!-- Generated by graphviz version 2.43.0 (0)
 -->
<!-- Title: services Pages: 1 -->
<svg width="245pt" height="153pt"
 viewBox="0.00 0.00 244.50 153.00" xmlns="http://www.w3.org/2000/svg" xmlns:xlink="http://www.w3.org/1999/xlink">
<g id="graph0" class="graph" transform="scale(1 1) rotate(0) translate(4 149)">
<title>services</title>
<g id="clust1" class="cluster">
<title>clusterdir_056ec8f0377ddc4293192cbc6b19c99c</title>
<g id="a_clust1"><a xlink:href="dir_056ec8f0377ddc4293192cbc6b19c99c.html" target="_top">
<polygon fill="#edf0f7" stroke="#404040" stroke-width="2" points="77.5,-47 77.5,-137 151.5,-137 151.5,-47 77.5,-47"/>
</a>
</g>
</g>
<!-- dir_056ec8f0377ddc4293192cbc6b19c99c -->
<g id="node1" class="node">
<title>dir_056ec8f0377ddc4293192cbc6b19c99c</title>
<text text-anchor="middle" x="114.5" y="-117" font-family="Helvetica,sans-Serif" font-size="10.00">services</text>
</g>
<!-- dir_a214087799024aa5b87865844b14c613 -->
<g id="node2" class="node">
<title>dir_a214087799024aa5b87865844b14c613</title>
<g id="a_node2"><a xlink:href="dir_a214087799024aa5b87865844b14c613.html" target="_top" xlink:title="pipeline">
<polygon fill="#a2b4d6" stroke="#404040" points="142.5,-74 86.5,-74 86.5,-55 142.5,-55 142.5,-74"/>
<text text-anchor="middle" x="114.5" y="-62" font-family="Helvetica,sans-Serif" font-size="10.00">pipeline</text>
</a>
</g>
</g>
<!-- dir_056ec8f0377ddc4293192cbc6b19c99c&#45;&gt;dir_a214087799024aa5b87865844b14c613 -->
<g id="edge4" class="edge">
<title>dir_056ec8f0377ddc4293192cbc6b19c99c&#45;&gt;dir_a214087799024aa5b87865844b14c613</title>
<g id="a_edge4"><a xlink:href="dir_000010_000007.html" target="_top">
<path fill="none" stroke="#63b8ff" d="M114.5,-109.75C114.5,-102.8 114.5,-92.85 114.5,-84.13"/>
<polygon fill="#63b8ff" stroke="#63b8ff" points="118,-84.09 114.5,-74.09 111,-84.09 118,-84.09"/>
</a>
</g>
<g id="a_edge4&#45;headlabel"><a xlink:href="dir_000010_000007.html" target="_top" xlink:title="8">
<text text-anchor="middle" x="120.84" y="-85.18" font-family="Helvetica,sans-Serif" font-size="10.00" fill="#63b8ff">8</text>
</a>
</g>
</g>
<!-- dir_16b488fbba2495673abe79f720aebac4 -->
<g id="node3" class="node">
<title>dir_16b488fbba2495673abe79f720aebac4</title>
<g id="a_node3"><a xlink:href="dir_16b488fbba2495673abe79f720aebac4.html" target="_top" xlink:title="workers">
<polygon fill="#edf0f7" stroke="#404040" points="55,-19 0,-19 0,0 55,0 55,-19"/>
<text text-anchor="middle" x="27.5" y="-7" font-family="Helvetica,sans-Serif" font-size="10.00">workers</text>
</a>
</g>
</g>
<!-- dir_056ec8f0377ddc4293192cbc6b19c99c&#45;&gt;dir_16b488fbba2495673abe79f720aebac4 -->
<g id="edge1" class="edge">
<title>dir_056ec8f0377ddc4293192cbc6b19c99c&#45;&gt;dir_16b488fbba2495673abe79f720aebac4</title>
<g id="a_edge1"><a xlink:href="dir_000010_000019.html" target="_top">
<path fill="none" stroke="#63b8ff" d="M104.88,-109.76C95.6,-101.11 81.39,-87.27 70.5,-74 58.26,-59.1 46.11,-40.73 37.86,-27.59"/>
<polygon fill="#63b8ff" stroke="#63b8ff" points="40.83,-25.74 32.6,-19.07 34.87,-29.42 40.83,-25.74"/>
</a>
</g>
<g id="a_edge1&#45;headlabel"><a xlink:href="dir_000010_000019.html" target="_top" xlink:title="7">
<text text-anchor="middle" x="45.13" y="-24.81" font-family="Helvetica,sans-Serif" font-size="10.00" fill="#63b8ff">7</text>
</a>
</g>
</g>
<!-- dir_1ae4179d5e953611aae20c997279e02c -->
<g id="node4" class="node">
<title>dir_1ae4179d5e953611aae20c997279e02c</title>
<g id="a_node4"><a xlink:href="dir_1ae4179d5e953611aae20c997279e02c.html" target="_top" xlink:title="models">
<polygon fill="#edf0f7" stroke="#404040" points="129,-19 76,-19 76,0 129,0 129,-19"/>
<text text-anchor="middle" x="102.5" y="-7" font-family="Helvetica,sans-Serif" font-size="10.00">models</text>
</a>
</g>
</g>
<!-- dir_056ec8f0377ddc4293192cbc6b19c99c&#45;&gt;dir_1ae4179d5e953611aae20c997279e02c -->
<g id="edge2" class="edge">
<title>dir_056ec8f0377ddc4293192cbc6b19c99c&#45;&gt;dir_1ae4179d5e953611aae20c997279e02c</title>
<g id="a_edge2"><a xlink:href="dir_000010_000006.html" target="_top">
<path fill="none" stroke="#63b8ff" d="M104.06,-109.87C95.08,-101.7 82.76,-88.55 77.5,-74 73.42,-62.71 73.95,-58.46 77.5,-47 79.65,-40.07 83.62,-33.28 87.77,-27.47"/>
<polygon fill="#63b8ff" stroke="#63b8ff" points="90.78,-29.3 94.21,-19.28 85.28,-24.98 90.78,-29.3"/>
</a>
</g>
<g id="a_edge2&#45;headlabel"><a xlink:href="dir_000010_000006.html" target="_top" xlink:title="21">
<text text-anchor="middle" x="90.79" y="-31.38" font-family="Helvetica,sans-Serif" font-size="10.00" fill="#63b8ff">21</text>
</a>
</g>
</g>
<!-- dir_4270bfced15e0e73154b13468c7c9ad9 -->
<g id="node5" class="node">
<title>dir_4270bfced15e0e73154b13468c7c9ad9</title>
<g id="a_node5"><a xlink:href="dir_4270bfced15e0e73154b13468c7c9ad9.html" target="_top" xlink:title="core">
<polygon fill="#edf0f7" stroke="red" points="236.5,-74 198.5,-74 198.5,-55 236.5,-55 236.5,-74"/>
<text text-anchor="middle" x="217.5" y="-62" font-family="Helvetica,sans-Serif" font-size="10.00">core</text>
</a>
</g>
</g>
<!-- dir_056ec8f0377ddc4293192cbc6b19c99c&#45;&gt;dir_4270bfced15e0e73154b13468c7c9ad9 -->
<g id="edge3" class="edge">
<title>dir_056ec8f0377ddc4293192cbc6b19c99c&#45;&gt;dir_4270bfced15e0e73154b13468c7c9ad9</title>
<g id="a_edge3"><a xlink:href="dir_000010_000002.html" target="_top">
<path fill="none" stroke="#63b8ff" d="M131.05,-109.98C147.39,-101.57 172.63,-88.59 191.63,-78.81"/>
<polygon fill="#63b8ff" stroke="#63b8ff" points="193.36,-81.86 200.65,-74.17 190.16,-75.63 193.36,-81.86"/>
</a>
</g>
<g id="a_edge3&#45;headlabel"><a xlink:href="dir_000010_000002.html" target="_top" xlink:title="10">
<text text-anchor="middle" x="191.46" y="-83.53" font-family="Helvetica,sans-Serif" font-size="10.00" fill="#63b8ff">10</text>
</a>
</g>
</g>
<!-- dir_cbdb8362360e11eafe2fa3bc74cf0ffd -->
<g id="node6" class="node">
<title>dir_cbdb8362360e11eafe2fa3bc74cf0ffd</title>
<g id="a_node6"><a xlink:href="dir_cbdb8362360e11eafe2fa3bc74cf0ffd.html" target="_top" xlink:title="utils">
<polygon fill="#edf0f7" stroke="red" points="187.5,-19 149.5,-19 149.5,0 187.5,0 187.5,-19"/>
<text text-anchor="middle" x="168.5" y="-7" font-family="Helvetica,sans-Serif" font-size="10.00">utils</text>
</a>
</g>
</g>
<!-- dir_056ec8f0377ddc4293192cbc6b19c99c&#45;&gt;dir_cbdb8362360e11eafe2fa3bc74cf0ffd -->
<g id="edge5" class="edge">
<title>dir_056ec8f0377ddc4293192cbc6b19c99c&#45;&gt;dir_cbdb8362360e11eafe2fa3bc74cf0ffd</title>
<g id="a_edge5"><a xlink:href="dir_000010_000017.html" target="_top">
<path fill="none" stroke="#63b8ff" d="M123.73,-109.81C132.13,-101.4 144.3,-87.92 151.5,-74 158.8,-59.89 163.19,-42.35 165.67,-29.28"/>
<polygon fill="#63b8ff" stroke="#63b8ff" points="169.17,-29.59 167.39,-19.14 162.27,-28.42 169.17,-29.59"/>
</a>
</g>
<g id="a_edge5&#45;headlabel"><a xlink:href="dir_000010_000017.html" target="_top" xlink:title="4">
<text text-anchor="middle" x="171.37" y="-31.11" font-family="Helvetica,sans-Serif" font-size="10.00" fill="#63b8ff">4</text>
</a>
</g>
</g>
<!-- dir_a214087799024aa5b87865844b14c613&#45;&gt;dir_16b488fbba2495673abe79f720aebac4 -->
<g id="edge8" class="edge">
<title>dir_a214087799024aa5b87865844b14c613&#45;&gt;dir_16b488fbba2495673abe79f720aebac4</title>
<g id="a_edge8"><a xlink:href="dir_000007_000019.html" target="_top">
<path fill="none" stroke="#63b8ff" d="M100.52,-54.98C87.03,-46.77 66.37,-34.18 50.46,-24.49"/>
<polygon fill="#63b8ff" stroke="#63b8ff" points="52.09,-21.38 41.73,-19.17 48.45,-27.36 52.09,-21.38"/>
</a>
</g>
<g id="a_edge8&#45;headlabel"><a xlink:href="dir_000007_000019.html" target="_top" xlink:title="3">
<text text-anchor="middle" x="56.64" y="-18.33" font-family="Helvetica,sans-Serif" font-size="10.00" fill="#63b8ff">3</text>
</a>
</g>
</g>
<!-- dir_a214087799024aa5b87865844b14c613&#45;&gt;dir_1ae4179d5e953611aae20c997279e02c -->
<g id="edge6" class="edge">
<title>dir_a214087799024aa5b87865844b14c613&#45;&gt;dir_1ae4179d5e953611aae20c997279e02c</title>
<g id="a_edge6"><a xlink:href="dir_000007_000006.html" target="_top">
<path fill="none" stroke="#63b8ff" d="M112.52,-54.75C110.93,-47.72 108.64,-37.62 106.65,-28.84"/>
<polygon fill="#63b8ff" stroke="#63b8ff" points="110.07,-28.07 104.44,-19.09 103.24,-29.62 110.07,-28.07"/>
</a>
</g>
<g id="a_edge6&#45;headlabel"><a xlink:href="dir_000007_000006.html" target="_top" xlink:title="6">
<text text-anchor="middle" x="113.63" y="-28.45" font-family="Helvetica,sans-Serif" font-size="10.00" fill="#63b8ff">6</text>
</a>
</g>
</g>
<!-- dir_a214087799024aa5b87865844b14c613&#45;&gt;dir_cbdb8362360e11eafe2fa3bc74cf0ffd -->
<g id="edge7" class="edge">
<title>dir_a214087799024aa5b87865844b14c613&#45;&gt;dir_cbdb8362360e11eafe2fa3bc74cf0ffd</title>
<g id="a_edge7"><a xlink:href="dir_000007_000017.html" target="_top">
<path fill="none" stroke="#63b8ff" d="M123.42,-54.75C131.28,-47.03 142.93,-35.6 152.42,-26.28"/>
<polygon fill="#63b8ff" stroke="#63b8ff" points="155.06,-28.59 159.75,-19.09 150.16,-23.6 155.06,-28.59"/>
</a>
</g>
<g id="a_edge7&#45;headlabel"><a xlink:href="dir_000007_000017.html" target="_top" xlink:title="2">
<text text-anchor="middle" x="154.49" y="-30.64" font-family="Helvetica,sans-Serif" font-size="10.00" fill="#63b8ff">2</text>
</a>
</g>
</g>
</g>
</svg>
