<?xml version="1.0" encoding="UTF-8" standalone="no"?>
<!DOCTYPE svg PUBLIC "-//W3C//DTD SVG 1.1//EN"
 "http://www.w3.org/Graphics/SVG/1.1/DTD/svg11.dtd">
<!-- Generated by graphviz version 2.43.0 (0)
 -->
<!-- Title: core Pages: 1 -->
<svg width="384pt" height="169pt"
 viewBox="0.00 0.00 383.50 169.00" xmlns="http://www.w3.org/2000/svg" xmlns:xlink="http://www.w3.org/1999/xlink">
<g id="graph0" class="graph" transform="scale(1 1) rotate(0) translate(4 165)">
<title>core</title>
<g id="clust1" class="cluster">
<title>clusterdir_4270bfced15e0e73154b13468c7c9ad9</title>
<g id="a_clust1"><a xlink:href="dir_4270bfced15e0e73154b13468c7c9ad9.html" target="_top">
<polygon fill="#edf0f7" stroke="#404040" stroke-width="2" points="8,-8 8,-153 200,-153 200,-8 8,-8"/>
</a>
</g>
</g>
<!-- dir_4270bfced15e0e73154b13468c7c9ad9 -->
<g id="node1" class="node">
<title>dir_4270bfced15e0e73154b13468c7c9ad9</title>
<text text-anchor="middle" x="173" y="-133" font-family="Helvetica,sans-Serif" font-size="10.00">core</text>
</g>
<!-- dir_056ec8f0377ddc4293192cbc6b19c99c -->
<g id="node6" class="node">
<title>dir_056ec8f0377ddc4293192cbc6b19c99c</title>
<g id="a_node6"><a xlink:href="dir_056ec8f0377ddc4293192cbc6b19c99c.html" target="_top" xlink:title="services">
<polygon fill="#edf0f7" stroke="red" points="375.5,-90 318.5,-90 318.5,-71 375.5,-71 375.5,-90"/>
<text text-anchor="middle" x="347" y="-78" font-family="Helvetica,sans-Serif" font-size="10.00">services</text>
</a>
</g>
</g>
<!-- dir_4270bfced15e0e73154b13468c7c9ad9&#45;&gt;dir_056ec8f0377ddc4293192cbc6b19c99c -->
<g id="edge1" class="edge">
<title>dir_4270bfced15e0e73154b13468c7c9ad9&#45;&gt;dir_056ec8f0377ddc4293192cbc6b19c99c</title>
<g id="a_edge1"><a xlink:href="dir_000002_000010.html" target="_top">
<path fill="none" stroke="#63b8ff" d="M192.29,-128.63C220.43,-120.05 273.32,-103.94 309.35,-92.97"/>
<polygon fill="#63b8ff" stroke="#63b8ff" points="310.48,-96.28 319.03,-90.02 308.44,-89.59 310.48,-96.28"/>
</a>
</g>
<g id="a_edge1&#45;headlabel"><a xlink:href="dir_000002_000010.html" target="_top" xlink:title="1">
<text text-anchor="middle" x="307.87" y="-97.55" font-family="Helvetica,sans-Serif" font-size="10.00" fill="#63b8ff">1</text>
</a>
</g>
</g>
<!-- dir_0eb87cc7e55f2d1b240c9327aae69f5c -->
<g id="node2" class="node">
<title>dir_0eb87cc7e55f2d1b240c9327aae69f5c</title>
<g id="a_node2"><a xlink:href="dir_0eb87cc7e55f2d1b240c9327aae69f5c.html" target="_top" xlink:title="easyeda">
<polygon fill="#a2b4d6" stroke="#404040" points="74,-145 16,-145 16,-126 74,-126 74,-145"/>
<text text-anchor="middle" x="45" y="-133" font-family="Helvetica,sans-Serif" font-size="10.00">easyeda</text>
</a>
</g>
</g>
<!-- dir_e47a0da176a2d81021b9e15379f1915c -->
<g id="node4" class="node">
<title>dir_e47a0da176a2d81021b9e15379f1915c</title>
<g id="a_node4"><a xlink:href="dir_e47a0da176a2d81021b9e15379f1915c.html" target="_top" xlink:title="network">
<polygon fill="#a2b4d6" stroke="#404040" points="142,-90 86,-90 86,-71 142,-71 142,-90"/>
<text text-anchor="middle" x="114" y="-78" font-family="Helvetica,sans-Serif" font-size="10.00">network</text>
</a>
</g>
</g>
<!-- dir_0eb87cc7e55f2d1b240c9327aae69f5c&#45;&gt;dir_e47a0da176a2d81021b9e15379f1915c -->
<g id="edge4" class="edge">
<title>dir_0eb87cc7e55f2d1b240c9327aae69f5c&#45;&gt;dir_e47a0da176a2d81021b9e15379f1915c</title>
<g id="a_edge4"><a xlink:href="dir_000003_000008.html" target="_top">
<path fill="none" stroke="#63b8ff" d="M56.09,-125.98C66.49,-118 82.26,-105.88 94.72,-96.31"/>
<polygon fill="#63b8ff" stroke="#63b8ff" points="96.91,-99.04 102.71,-90.17 92.65,-93.49 96.91,-99.04"/>
</a>
</g>
<g id="a_edge4&#45;headlabel"><a xlink:href="dir_000003_000008.html" target="_top" xlink:title="4">
<text text-anchor="middle" x="95.79" y="-100.98" font-family="Helvetica,sans-Serif" font-size="10.00" fill="#63b8ff">4</text>
</a>
</g>
</g>
<!-- dir_182a39db29e4ad63eb633860d83c5a1d -->
<g id="node5" class="node">
<title>dir_182a39db29e4ad63eb633860d83c5a1d</title>
<g id="a_node5"><a xlink:href="dir_182a39db29e4ad63eb633860d83c5a1d.html" target="_top" xlink:title="utils">
<polygon fill="#a2b4d6" stroke="#404040" points="109,-35 71,-35 71,-16 109,-16 109,-35"/>
<text text-anchor="middle" x="90" y="-23" font-family="Helvetica,sans-Serif" font-size="10.00">utils</text>
</a>
</g>
</g>
<!-- dir_0eb87cc7e55f2d1b240c9327aae69f5c&#45;&gt;dir_182a39db29e4ad63eb633860d83c5a1d -->
<g id="edge2" class="edge">
<title>dir_0eb87cc7e55f2d1b240c9327aae69f5c&#45;&gt;dir_182a39db29e4ad63eb633860d83c5a1d</title>
<g id="a_edge2"><a xlink:href="dir_000003_000013.html" target="_top">
<path fill="none" stroke="#63b8ff" d="M48.49,-125.86C53.44,-113.62 62.82,-90.56 71,-71 74.69,-62.17 78.86,-52.39 82.35,-44.25"/>
<polygon fill="#63b8ff" stroke="#63b8ff" points="85.59,-45.58 86.32,-35.01 79.15,-42.82 85.59,-45.58"/>
</a>
</g>
<g id="a_edge2&#45;headlabel"><a xlink:href="dir_000003_000013.html" target="_top" xlink:title="1">
<text text-anchor="middle" x="86.77" y="-47.51" font-family="Helvetica,sans-Serif" font-size="10.00" fill="#63b8ff">1</text>
</a>
</g>
</g>
<!-- dir_1ae4179d5e953611aae20c997279e02c -->
<g id="node7" class="node">
<title>dir_1ae4179d5e953611aae20c997279e02c</title>
<g id="a_node7"><a xlink:href="dir_1ae4179d5e953611aae20c997279e02c.html" target="_top" xlink:title="models">
<polygon fill="#edf0f7" stroke="#404040" points="261.5,-90 208.5,-90 208.5,-71 261.5,-71 261.5,-90"/>
<text text-anchor="middle" x="235" y="-78" font-family="Helvetica,sans-Serif" font-size="10.00">models</text>
</a>
</g>
</g>
<!-- dir_0eb87cc7e55f2d1b240c9327aae69f5c&#45;&gt;dir_1ae4179d5e953611aae20c997279e02c -->
<g id="edge3" class="edge">
<title>dir_0eb87cc7e55f2d1b240c9327aae69f5c&#45;&gt;dir_1ae4179d5e953611aae20c997279e02c</title>
<g id="a_edge3"><a xlink:href="dir_000003_000007.html" target="_top">
<path fill="none" stroke="#63b8ff" d="M74.27,-126.33C107.76,-116.99 162.63,-101.69 198.79,-91.6"/>
<polygon fill="#63b8ff" stroke="#63b8ff" points="199.76,-94.96 208.46,-88.9 197.88,-88.22 199.76,-94.96"/>
</a>
</g>
<g id="a_edge3&#45;headlabel"><a xlink:href="dir_000003_000007.html" target="_top" xlink:title="4">
<text text-anchor="middle" x="197.06" y="-96.16" font-family="Helvetica,sans-Serif" font-size="10.00" fill="#63b8ff">4</text>
</a>
</g>
</g>
<!-- dir_ad1ddbc3e0d75829e0afe087a249d2ba -->
<g id="node3" class="node">
<title>dir_ad1ddbc3e0d75829e0afe087a249d2ba</title>
<g id="a_node3"><a xlink:href="dir_ad1ddbc3e0d75829e0afe087a249d2ba.html" target="_top" xlink:title="kicad">
<polygon fill="#a2b4d6" stroke="#404040" points="135.5,-145 92.5,-145 92.5,-126 135.5,-126 135.5,-145"/>
<text text-anchor="middle" x="114" y="-133" font-family="Helvetica,sans-Serif" font-size="10.00">kicad</text>
</a>
</g>
</g>
<!-- dir_ad1ddbc3e0d75829e0afe087a249d2ba&#45;&gt;dir_e47a0da176a2d81021b9e15379f1915c -->
<g id="edge8" class="edge">
<title>dir_ad1ddbc3e0d75829e0afe087a249d2ba&#45;&gt;dir_e47a0da176a2d81021b9e15379f1915c</title>
<g id="a_edge8"><a xlink:href="dir_000005_000008.html" target="_top">
<path fill="none" stroke="#63b8ff" d="M114,-125.75C114,-118.8 114,-108.85 114,-100.13"/>
<polygon fill="#63b8ff" stroke="#63b8ff" points="117.5,-100.09 114,-90.09 110.5,-100.09 117.5,-100.09"/>
</a>
</g>
<g id="a_edge8&#45;headlabel"><a xlink:href="dir_000005_000008.html" target="_top" xlink:title="1">
<text text-anchor="middle" x="120.34" y="-101.18" font-family="Helvetica,sans-Serif" font-size="10.00" fill="#63b8ff">1</text>
</a>
</g>
</g>
<!-- dir_ad1ddbc3e0d75829e0afe087a249d2ba&#45;&gt;dir_182a39db29e4ad63eb633860d83c5a1d -->
<g id="edge5" class="edge">
<title>dir_ad1ddbc3e0d75829e0afe087a249d2ba&#45;&gt;dir_182a39db29e4ad63eb633860d83c5a1d</title>
<g id="a_edge5"><a xlink:href="dir_000005_000013.html" target="_top">
<path fill="none" stroke="#63b8ff" d="M103.56,-125.87C94.58,-117.7 82.26,-104.55 77,-90 71.63,-75.14 76.06,-57.47 81.16,-44.55"/>
<polygon fill="#63b8ff" stroke="#63b8ff" points="84.39,-45.91 85.22,-35.35 77.98,-43.08 84.39,-45.91"/>
</a>
</g>
<g id="a_edge5&#45;headlabel"><a xlink:href="dir_000005_000013.html" target="_top" xlink:title="7">
<text text-anchor="middle" x="85.53" y="-47.84" font-family="Helvetica,sans-Serif" font-size="10.00" fill="#63b8ff">7</text>
</a>
</g>
</g>
<!-- dir_ad1ddbc3e0d75829e0afe087a249d2ba&#45;&gt;dir_1ae4179d5e953611aae20c997279e02c -->
<g id="edge6" class="edge">
<title>dir_ad1ddbc3e0d75829e0afe087a249d2ba&#45;&gt;dir_1ae4179d5e953611aae20c997279e02c</title>
<g id="a_edge6"><a xlink:href="dir_000005_000007.html" target="_top">
<path fill="none" stroke="#63b8ff" d="M133.44,-125.98C152.99,-117.42 183.38,-104.11 205.82,-94.28"/>
<polygon fill="#63b8ff" stroke="#63b8ff" points="207.45,-97.39 215.21,-90.17 204.64,-90.98 207.45,-97.39"/>
</a>
</g>
<g id="a_edge6&#45;headlabel"><a xlink:href="dir_000005_000007.html" target="_top" xlink:title="6">
<text text-anchor="middle" x="205.3" y="-98.93" font-family="Helvetica,sans-Serif" font-size="10.00" fill="#63b8ff">6</text>
</a>
</g>
</g>
<!-- dir_cbdb8362360e11eafe2fa3bc74cf0ffd -->
<g id="node8" class="node">
<title>dir_cbdb8362360e11eafe2fa3bc74cf0ffd</title>
<g id="a_node8"><a xlink:href="dir_cbdb8362360e11eafe2fa3bc74cf0ffd.html" target="_top" xlink:title="utils">
<polygon fill="#edf0f7" stroke="red" points="277,-35 239,-35 239,-16 277,-16 277,-35"/>
<text text-anchor="middle" x="258" y="-23" font-family="Helvetica,sans-Serif" font-size="10.00">utils</text>
</a>
</g>
</g>
<!-- dir_ad1ddbc3e0d75829e0afe087a249d2ba&#45;&gt;dir_cbdb8362360e11eafe2fa3bc74cf0ffd -->
<g id="edge7" class="edge">
<title>dir_ad1ddbc3e0d75829e0afe087a249d2ba&#45;&gt;dir_cbdb8362360e11eafe2fa3bc74cf0ffd</title>
<g id="a_edge7"><a xlink:href="dir_000005_000015.html" target="_top">
<path fill="none" stroke="#63b8ff" d="M135.66,-128.54C178.48,-116.73 269.95,-91.38 271,-90 280.94,-76.85 275.25,-57.97 268.56,-44.21"/>
<polygon fill="#63b8ff" stroke="#63b8ff" points="271.56,-42.39 263.73,-35.25 265.4,-45.72 271.56,-42.39"/>
</a>
</g>
<g id="a_edge7&#45;headlabel"><a xlink:href="dir_000005_000015.html" target="_top" xlink:title="1">
<text text-anchor="middle" x="275.77" y="-41.7" font-family="Helvetica,sans-Serif" font-size="10.00" fill="#63b8ff">1</text>
</a>
</g>
</g>
<!-- dir_e47a0da176a2d81021b9e15379f1915c&#45;&gt;dir_182a39db29e4ad63eb633860d83c5a1d -->
<g id="edge9" class="edge">
<title>dir_e47a0da176a2d81021b9e15379f1915c&#45;&gt;dir_182a39db29e4ad63eb633860d83c5a1d</title>
<g id="a_edge9"><a xlink:href="dir_000008_000013.html" target="_top">
<path fill="none" stroke="#63b8ff" d="M104.87,-70.75C100.18,-63.72 95.18,-53.62 91.85,-44.84"/>
<polygon fill="#63b8ff" stroke="#63b8ff" points="95.12,-43.56 88.76,-35.09 88.44,-45.68 95.12,-43.56"/>
</a>
</g>
<g id="a_edge9&#45;headlabel"><a xlink:href="dir_000008_000013.html" target="_top" xlink:title="4">
<text text-anchor="middle" x="98.91" y="-43.63" font-family="Helvetica,sans-Serif" font-size="10.00" fill="#63b8ff">4</text>
</a>
</g>
</g>
<!-- dir_e47a0da176a2d81021b9e15379f1915c&#45;&gt;dir_cbdb8362360e11eafe2fa3bc74cf0ffd -->
<g id="edge10" class="edge">
<title>dir_e47a0da176a2d81021b9e15379f1915c&#45;&gt;dir_cbdb8362360e11eafe2fa3bc74cf0ffd</title>
<g id="a_edge10"><a xlink:href="dir_000008_000015.html" target="_top">
<path fill="none" stroke="#63b8ff" d="M137.14,-70.98C162.09,-61.8 201.88,-47.16 228.93,-37.2"/>
<polygon fill="#63b8ff" stroke="#63b8ff" points="230.44,-40.37 238.61,-33.63 228.02,-33.8 230.44,-40.37"/>
</a>
</g>
<g id="a_edge10&#45;headlabel"><a xlink:href="dir_000008_000015.html" target="_top" xlink:title="1">
<text text-anchor="middle" x="228.05" y="-41.78" font-family="Helvetica,sans-Serif" font-size="10.00" fill="#63b8ff">1</text>
</a>
</g>
</g>
<!-- dir_182a39db29e4ad63eb633860d83c5a1d&#45;&gt;dir_e47a0da176a2d81021b9e15379f1915c -->
<g id="edge11" class="edge">
<title>dir_182a39db29e4ad63eb633860d83c5a1d&#45;&gt;dir_e47a0da176a2d81021b9e15379f1915c</title>
<g id="a_edge11"><a xlink:href="dir_000013_000008.html" target="_top">
<path fill="none" stroke="#63b8ff" d="M99.02,-35.09C103.71,-42.06 108.72,-52.15 112.07,-60.95"/>
<polygon fill="#63b8ff" stroke="#63b8ff" points="108.83,-62.29 115.2,-70.75 115.49,-60.16 108.83,-62.29"/>
</a>
</g>
<g id="a_edge11&#45;headlabel"><a xlink:href="dir_000013_000008.html" target="_top" xlink:title="1">
<text text-anchor="middle" x="105.03" y="-57.23" font-family="Helvetica,sans-Serif" font-size="10.00" fill="#63b8ff">1</text>
</a>
</g>
</g>
</g>
</svg>
