<?xml version="1.0" encoding="UTF-8" standalone="no"?>
<!DOCTYPE svg PUBLIC "-//W3C//DTD SVG 1.1//EN"
 "http://www.w3.org/Graphics/SVG/1.1/DTD/svg11.dtd">
<!-- Generated by graphviz version 2.43.0 (0)
 -->
<!-- Title: services/pipeline Pages: 1 -->
<svg width="363pt" height="180pt"
 viewBox="0.00 0.00 362.50 180.00" xmlns="http://www.w3.org/2000/svg" xmlns:xlink="http://www.w3.org/1999/xlink">
<g id="graph0" class="graph" transform="scale(1 1) rotate(0) translate(4 176)">
<title>services/pipeline</title>
<g id="clust1" class="cluster">
<title>clusterdir_056ec8f0377ddc4293192cbc6b19c99c</title>
<g id="a_clust1"><a xlink:href="dir_056ec8f0377ddc4293192cbc6b19c99c.html" target="_top" xlink:title="services">
<polygon fill="#edf0f7" stroke="#404040" stroke-dasharray="5,2" points="8,-39 8,-164 291,-164 291,-39 8,-39"/>
<text text-anchor="middle" x="149.5" y="-152" font-family="Helvetica,sans-Serif" font-size="10.00">services</text>
</a>
</g>
</g>
<g id="clust2" class="cluster">
<title>clusterdir_a214087799024aa5b87865844b14c613</title>
<g id="a_clust2"><a xlink:href="dir_a214087799024aa5b87865844b14c613.html" target="_top">
<polygon fill="#edf0f7" stroke="#404040" stroke-width="2" points="16,-47 16,-137 283,-137 283,-47 16,-47"/>
</a>
</g>
</g>
<!-- dir_a214087799024aa5b87865844b14c613 -->
<g id="node1" class="node">
<title>dir_a214087799024aa5b87865844b14c613</title>
<text text-anchor="middle" x="247" y="-117" font-family="Helvetica,sans-Serif" font-size="10.00">pipeline</text>
</g>
<!-- dir_02f61df537483f111a16c438e9fb09e3 -->
<g id="node2" class="node">
<title>dir_02f61df537483f111a16c438e9fb09e3</title>
<g id="a_node2"><a xlink:href="dir_02f61df537483f111a16c438e9fb09e3.html" target="_top" xlink:title="cleanup">
<polygon fill="#a2b4d6" stroke="#404040" points="138.5,-129 83.5,-129 83.5,-110 138.5,-110 138.5,-129"/>
<text text-anchor="middle" x="111" y="-117" font-family="Helvetica,sans-Serif" font-size="10.00">cleanup</text>
</a>
</g>
</g>
<!-- dir_1ae4179d5e953611aae20c997279e02c -->
<g id="node6" class="node">
<title>dir_1ae4179d5e953611aae20c997279e02c</title>
<g id="a_node6"><a xlink:href="dir_1ae4179d5e953611aae20c997279e02c.html" target="_top" xlink:title="models">
<polygon fill="#edf0f7" stroke="#404040" points="164.5,-19 111.5,-19 111.5,0 164.5,0 164.5,-19"/>
<text text-anchor="middle" x="138" y="-7" font-family="Helvetica,sans-Serif" font-size="10.00">models</text>
</a>
</g>
</g>
<!-- dir_02f61df537483f111a16c438e9fb09e3&#45;&gt;dir_1ae4179d5e953611aae20c997279e02c -->
<g id="edge1" class="edge">
<title>dir_02f61df537483f111a16c438e9fb09e3&#45;&gt;dir_1ae4179d5e953611aae20c997279e02c</title>
<g id="a_edge1"><a xlink:href="dir_000000_000006.html" target="_top">
<path fill="none" stroke="#63b8ff" d="M111.57,-109.95C112.74,-95.18 116,-64.04 124,-39 125.14,-35.43 126.67,-31.74 128.29,-28.25"/>
<polygon fill="#63b8ff" stroke="#63b8ff" points="131.48,-29.7 132.89,-19.2 125.24,-26.53 131.48,-29.7"/>
</a>
</g>
<g id="a_edge1&#45;headlabel"><a xlink:href="dir_000000_000006.html" target="_top" xlink:title="2">
<text text-anchor="middle" x="132.38" y="-31.69" font-family="Helvetica,sans-Serif" font-size="10.00" fill="#63b8ff">2</text>
</a>
</g>
</g>
<!-- dir_cbdb8362360e11eafe2fa3bc74cf0ffd -->
<g id="node7" class="node">
<title>dir_cbdb8362360e11eafe2fa3bc74cf0ffd</title>
<g id="a_node7"><a xlink:href="dir_cbdb8362360e11eafe2fa3bc74cf0ffd.html" target="_top" xlink:title="utils">
<polygon fill="#edf0f7" stroke="red" points="241,-19 203,-19 203,0 241,0 241,-19"/>
<text text-anchor="middle" x="222" y="-7" font-family="Helvetica,sans-Serif" font-size="10.00">utils</text>
</a>
</g>
</g>
<!-- dir_02f61df537483f111a16c438e9fb09e3&#45;&gt;dir_cbdb8362360e11eafe2fa3bc74cf0ffd -->
<g id="edge2" class="edge">
<title>dir_02f61df537483f111a16c438e9fb09e3&#45;&gt;dir_cbdb8362360e11eafe2fa3bc74cf0ffd</title>
<g id="a_edge2"><a xlink:href="dir_000000_000017.html" target="_top">
<path fill="none" stroke="#63b8ff" d="M138.64,-111.35C168.52,-102.99 213.19,-88.46 223,-74 231.89,-60.9 230.49,-42.51 227.55,-28.9"/>
<polygon fill="#63b8ff" stroke="#63b8ff" points="230.93,-27.99 225.03,-19.19 224.16,-29.75 230.93,-27.99"/>
</a>
</g>
<g id="a_edge2&#45;headlabel"><a xlink:href="dir_000000_000017.html" target="_top" xlink:title="1">
<text text-anchor="middle" x="234.58" y="-28.25" font-family="Helvetica,sans-Serif" font-size="10.00" fill="#63b8ff">1</text>
</a>
</g>
</g>
<!-- dir_06bda5a56d2a074d8849481c404e4e83 -->
<g id="node3" class="node">
<title>dir_06bda5a56d2a074d8849481c404e4e83</title>
<g id="a_node3"><a xlink:href="dir_06bda5a56d2a074d8849481c404e4e83.html" target="_top" xlink:title="queue">
<polygon fill="#a2b4d6" stroke="#404040" points="213.5,-74 166.5,-74 166.5,-55 213.5,-55 213.5,-74"/>
<text text-anchor="middle" x="190" y="-62" font-family="Helvetica,sans-Serif" font-size="10.00">queue</text>
</a>
</g>
</g>
<!-- dir_06bda5a56d2a074d8849481c404e4e83&#45;&gt;dir_1ae4179d5e953611aae20c997279e02c -->
<g id="edge3" class="edge">
<title>dir_06bda5a56d2a074d8849481c404e4e83&#45;&gt;dir_1ae4179d5e953611aae20c997279e02c</title>
<g id="a_edge3"><a xlink:href="dir_000009_000006.html" target="_top">
<path fill="none" stroke="#63b8ff" d="M181.41,-54.75C173.84,-47.03 162.62,-35.6 153.49,-26.28"/>
<polygon fill="#63b8ff" stroke="#63b8ff" points="155.93,-23.78 146.43,-19.09 150.93,-28.68 155.93,-23.78"/>
</a>
</g>
<g id="a_edge3&#45;headlabel"><a xlink:href="dir_000009_000006.html" target="_top" xlink:title="1">
<text text-anchor="middle" x="160.47" y="-21.85" font-family="Helvetica,sans-Serif" font-size="10.00" fill="#63b8ff">1</text>
</a>
</g>
</g>
<!-- dir_06bda5a56d2a074d8849481c404e4e83&#45;&gt;dir_cbdb8362360e11eafe2fa3bc74cf0ffd -->
<g id="edge4" class="edge">
<title>dir_06bda5a56d2a074d8849481c404e4e83&#45;&gt;dir_cbdb8362360e11eafe2fa3bc74cf0ffd</title>
<g id="a_edge4"><a xlink:href="dir_000009_000017.html" target="_top">
<path fill="none" stroke="#63b8ff" d="M195.28,-54.75C199.71,-47.42 206.16,-36.73 211.62,-27.7"/>
<polygon fill="#63b8ff" stroke="#63b8ff" points="214.64,-29.46 216.81,-19.09 208.65,-25.84 214.64,-29.46"/>
</a>
</g>
<g id="a_edge4&#45;headlabel"><a xlink:href="dir_000009_000017.html" target="_top" xlink:title="1">
<text text-anchor="middle" x="215.21" y="-31.5" font-family="Helvetica,sans-Serif" font-size="10.00" fill="#63b8ff">1</text>
</a>
</g>
</g>
<!-- dir_5f0d1fb2c02571320f2b80b1eda20dd1 -->
<g id="node4" class="node">
<title>dir_5f0d1fb2c02571320f2b80b1eda20dd1</title>
<g id="a_node4"><a xlink:href="dir_5f0d1fb2c02571320f2b80b1eda20dd1.html" target="_top" xlink:title="stage">
<polygon fill="#a2b4d6" stroke="#404040" points="201,-129 157,-129 157,-110 201,-110 201,-129"/>
<text text-anchor="middle" x="179" y="-117" font-family="Helvetica,sans-Serif" font-size="10.00">stage</text>
</a>
</g>
</g>
<!-- dir_5f0d1fb2c02571320f2b80b1eda20dd1&#45;&gt;dir_06bda5a56d2a074d8849481c404e4e83 -->
<g id="edge5" class="edge">
<title>dir_5f0d1fb2c02571320f2b80b1eda20dd1&#45;&gt;dir_06bda5a56d2a074d8849481c404e4e83</title>
<g id="a_edge5"><a xlink:href="dir_000011_000009.html" target="_top">
<path fill="none" stroke="#63b8ff" d="M180.82,-109.75C182.26,-102.8 184.32,-92.85 186.13,-84.13"/>
<polygon fill="#63b8ff" stroke="#63b8ff" points="189.61,-84.59 188.22,-74.09 182.76,-83.17 189.61,-84.59"/>
</a>
</g>
<g id="a_edge5&#45;headlabel"><a xlink:href="dir_000011_000009.html" target="_top" xlink:title="2">
<text text-anchor="middle" x="191.66" y="-86.19" font-family="Helvetica,sans-Serif" font-size="10.00" fill="#63b8ff">2</text>
</a>
</g>
</g>
<!-- dir_5f0d1fb2c02571320f2b80b1eda20dd1&#45;&gt;dir_1ae4179d5e953611aae20c997279e02c -->
<g id="edge7" class="edge">
<title>dir_5f0d1fb2c02571320f2b80b1eda20dd1&#45;&gt;dir_1ae4179d5e953611aae20c997279e02c</title>
<g id="a_edge7"><a xlink:href="dir_000011_000006.html" target="_top">
<path fill="none" stroke="#63b8ff" d="M174.46,-109.79C169.94,-100.93 162.98,-86.73 158,-74 152.2,-59.18 146.86,-41.94 143.15,-29.16"/>
<polygon fill="#63b8ff" stroke="#63b8ff" points="146.44,-27.93 140.35,-19.26 139.7,-29.83 146.44,-27.93"/>
</a>
</g>
<g id="a_edge7&#45;headlabel"><a xlink:href="dir_000011_000006.html" target="_top" xlink:title="3">
<text text-anchor="middle" x="150.15" y="-28.11" font-family="Helvetica,sans-Serif" font-size="10.00" fill="#63b8ff">3</text>
</a>
</g>
</g>
<!-- dir_16b488fbba2495673abe79f720aebac4 -->
<g id="node8" class="node">
<title>dir_16b488fbba2495673abe79f720aebac4</title>
<g id="a_node8"><a xlink:href="dir_16b488fbba2495673abe79f720aebac4.html" target="_top" xlink:title="workers">
<polygon fill="#edf0f7" stroke="#404040" points="354.5,-74 299.5,-74 299.5,-55 354.5,-55 354.5,-74"/>
<text text-anchor="middle" x="327" y="-62" font-family="Helvetica,sans-Serif" font-size="10.00">workers</text>
</a>
</g>
</g>
<!-- dir_5f0d1fb2c02571320f2b80b1eda20dd1&#45;&gt;dir_16b488fbba2495673abe79f720aebac4 -->
<g id="edge6" class="edge">
<title>dir_5f0d1fb2c02571320f2b80b1eda20dd1&#45;&gt;dir_16b488fbba2495673abe79f720aebac4</title>
<g id="a_edge6"><a xlink:href="dir_000011_000019.html" target="_top">
<path fill="none" stroke="#63b8ff" d="M201.16,-110.57C225.68,-101.78 265.48,-87.53 293.74,-77.41"/>
<polygon fill="#63b8ff" stroke="#63b8ff" points="294.98,-80.68 303.22,-74.02 292.62,-74.09 294.98,-80.68"/>
</a>
</g>
<g id="a_edge6&#45;headlabel"><a xlink:href="dir_000011_000019.html" target="_top" xlink:title="3">
<text text-anchor="middle" x="292.56" y="-82.07" font-family="Helvetica,sans-Serif" font-size="10.00" fill="#63b8ff">3</text>
</a>
</g>
</g>
<!-- dir_d3275e556cb0be0e80b53f56d3a81fe2 -->
<g id="node5" class="node">
<title>dir_d3275e556cb0be0e80b53f56d3a81fe2</title>
<g id="a_node5"><a xlink:href="dir_d3275e556cb0be0e80b53f56d3a81fe2.html" target="_top" xlink:title="stats">
<polygon fill="#a2b4d6" stroke="#404040" points="65.5,-129 24.5,-129 24.5,-110 65.5,-110 65.5,-129"/>
<text text-anchor="middle" x="45" y="-117" font-family="Helvetica,sans-Serif" font-size="10.00">stats</text>
</a>
</g>
</g>
</g>
</svg>
