<?xml version="1.0" encoding="UTF-8" standalone="no"?>
<!DOCTYPE svg PUBLIC "-//W3C//DTD SVG 1.1//EN"
 "http://www.w3.org/Graphics/SVG/1.1/DTD/svg11.dtd">
<!-- Generated by graphviz version 2.43.0 (0)
 -->
<!-- Title: core/easyeda/EasyedaApi.cpp Pages: 1 -->
<svg width="1032pt" height="192pt"
 viewBox="0.00 0.00 1031.50 192.00" xmlns="http://www.w3.org/2000/svg" xmlns:xlink="http://www.w3.org/1999/xlink">
<g id="graph0" class="graph" transform="scale(1 1) rotate(0) translate(4 188)">
<title>core/easyeda/EasyedaApi.cpp</title>
<!-- Node1 -->
<g id="Node000001" class="node">
<title>Node1</title>
<g id="a_Node000001"><a xlink:title=" ">
<polygon fill="#999999" stroke="#666666" points="800.5,-184 638.5,-184 638.5,-165 800.5,-165 800.5,-184"/>
<text text-anchor="middle" x="719.5" y="-172" font-family="Helvetica,sans-Serif" font-size="10.00">core/easyeda/EasyedaApi.cpp</text>
</a>
</g>
</g>
<!-- Node2 -->
<g id="Node000002" class="node">
<title>Node2</title>
<g id="a_Node000002"><a xlink:href="EasyedaApi_8h.html" target="_top" xlink:title=" ">
<polygon fill="white" stroke="#666666" points="219,-74 136,-74 136,-55 219,-55 219,-74"/>
<text text-anchor="middle" x="177.5" y="-62" font-family="Helvetica,sans-Serif" font-size="10.00">EasyedaApi.h</text>
</a>
</g>
</g>
<!-- Node1&#45;&gt;Node2 -->
<g id="edge1_Node000001_Node000002" class="edge">
<title>Node1&#45;&gt;Node2</title>
<g id="a_edge1_Node000001_Node000002"><a xlink:title=" ">
<path fill="none" stroke="#63b8ff" d="M674.52,-164.93C628.14,-156.06 553.73,-141.75 489.5,-129 397.57,-110.75 290.54,-88.82 228.75,-76.09"/>
<polygon fill="#63b8ff" stroke="#63b8ff" points="229.36,-72.64 218.86,-74.05 227.95,-79.5 229.36,-72.64"/>
</a>
</g>
</g>
<!-- Node9 -->
<g id="Node000009" class="node">
<title>Node9</title>
<g id="a_Node000009"><a xlink:href="INetworkAdapter_8h.html" target="_top" xlink:title=" ">
<polygon fill="white" stroke="#666666" points="392,-74 237,-74 237,-55 392,-55 392,-74"/>
<text text-anchor="middle" x="314.5" y="-62" font-family="Helvetica,sans-Serif" font-size="10.00">core/utils/INetworkAdapter.h</text>
</a>
</g>
</g>
<!-- Node1&#45;&gt;Node9 -->
<g id="edge8_Node000001_Node000009" class="edge">
<title>Node1&#45;&gt;Node9</title>
<g id="a_edge8_Node000001_Node000009"><a xlink:title=" ">
<path fill="none" stroke="#63b8ff" d="M687.38,-164.94C614.72,-145.56 437.73,-98.36 356.5,-76.7"/>
<polygon fill="#63b8ff" stroke="#63b8ff" points="357.19,-73.26 346.62,-74.07 355.38,-80.02 357.19,-73.26"/>
</a>
</g>
</g>
<!-- Node11 -->
<g id="Node000011" class="node">
<title>Node11</title>
<g id="a_Node000011"><a xlink:href="NetworkUtils_8h.html" target="_top" xlink:title=" ">
<polygon fill="white" stroke="#666666" points="731,-129 594,-129 594,-110 731,-110 731,-129"/>
<text text-anchor="middle" x="662.5" y="-117" font-family="Helvetica,sans-Serif" font-size="10.00">core/utils/NetworkUtils.h</text>
</a>
</g>
</g>
<!-- Node1&#45;&gt;Node11 -->
<g id="edge13_Node000001_Node000011" class="edge">
<title>Node1&#45;&gt;Node11</title>
<g id="a_edge13_Node000001_Node000011"><a xlink:title=" ">
<path fill="none" stroke="#63b8ff" d="M710.34,-164.98C702,-157.23 689.47,-145.58 679.32,-136.14"/>
<polygon fill="#63b8ff" stroke="#63b8ff" points="681.53,-133.42 671.82,-129.17 676.76,-138.54 681.53,-133.42"/>
</a>
</g>
</g>
<!-- Node16 -->
<g id="Node000016" class="node">
<title>Node16</title>
<g id="a_Node000016"><a xlink:title=" ">
<polygon fill="#e0e0e0" stroke="#999999" points="805.5,-129 749.5,-129 749.5,-110 805.5,-110 805.5,-129"/>
<text text-anchor="middle" x="777.5" y="-117" font-family="Helvetica,sans-Serif" font-size="10.00">QDebug</text>
</a>
</g>
</g>
<!-- Node1&#45;&gt;Node16 -->
<g id="edge22_Node000001_Node000016" class="edge">
<title>Node1&#45;&gt;Node16</title>
<g id="a_edge22_Node000001_Node000016"><a xlink:title=" ">
<path fill="none" stroke="#63b8ff" d="M728.82,-164.98C737.31,-157.23 750.06,-145.58 760.38,-136.14"/>
<polygon fill="#63b8ff" stroke="#63b8ff" points="762.99,-138.5 768.01,-129.17 758.27,-133.33 762.99,-138.5"/>
</a>
</g>
</g>
<!-- Node17 -->
<g id="Node000017" class="node">
<title>Node17</title>
<g id="a_Node000017"><a xlink:title=" ">
<polygon fill="#e0e0e0" stroke="#999999" points="919,-129 824,-129 824,-110 919,-110 919,-129"/>
<text text-anchor="middle" x="871.5" y="-117" font-family="Helvetica,sans-Serif" font-size="10.00">QJsonDocument</text>
</a>
</g>
</g>
<!-- Node1&#45;&gt;Node17 -->
<g id="edge23_Node000001_Node000017" class="edge">
<title>Node1&#45;&gt;Node17</title>
<g id="a_edge23_Node000001_Node000017"><a xlink:title=" ">
<path fill="none" stroke="#63b8ff" d="M743.92,-164.98C769.22,-156.16 808.95,-142.31 837.36,-132.41"/>
<polygon fill="#63b8ff" stroke="#63b8ff" points="838.6,-135.68 846.89,-129.08 836.29,-129.07 838.6,-135.68"/>
</a>
</g>
</g>
<!-- Node18 -->
<g id="Node000018" class="node">
<title>Node18</title>
<g id="a_Node000018"><a xlink:title=" ">
<polygon fill="#e0e0e0" stroke="#999999" points="1023.5,-129 937.5,-129 937.5,-110 1023.5,-110 1023.5,-129"/>
<text text-anchor="middle" x="980.5" y="-117" font-family="Helvetica,sans-Serif" font-size="10.00">QMutexLocker</text>
</a>
</g>
</g>
<!-- Node1&#45;&gt;Node18 -->
<g id="edge24_Node000001_Node000018" class="edge">
<title>Node1&#45;&gt;Node18</title>
<g id="a_edge24_Node000001_Node000018"><a xlink:title=" ">
<path fill="none" stroke="#63b8ff" d="M761.43,-164.98C806.77,-155.78 879.11,-141.09 928.15,-131.13"/>
<polygon fill="#63b8ff" stroke="#63b8ff" points="929.13,-134.5 938.24,-129.08 927.74,-127.64 929.13,-134.5"/>
</a>
</g>
</g>
<!-- Node3 -->
<g id="Node000003" class="node">
<title>Node3</title>
<g id="a_Node000003"><a xlink:title=" ">
<polygon fill="#e0e0e0" stroke="#999999" points="370.5,-19 294.5,-19 294.5,0 370.5,0 370.5,-19"/>
<text text-anchor="middle" x="332.5" y="-7" font-family="Helvetica,sans-Serif" font-size="10.00">QJsonObject</text>
</a>
</g>
</g>
<!-- Node2&#45;&gt;Node3 -->
<g id="edge2_Node000002_Node000003" class="edge">
<title>Node2&#45;&gt;Node3</title>
<g id="a_edge2_Node000002_Node000003"><a xlink:title=" ">
<path fill="none" stroke="#63b8ff" d="M202.4,-54.98C228.2,-46.16 268.72,-32.31 297.68,-22.41"/>
<polygon fill="#63b8ff" stroke="#63b8ff" points="299.07,-25.63 307.4,-19.08 296.81,-19.01 299.07,-25.63"/>
</a>
</g>
</g>
<!-- Node4 -->
<g id="Node000004" class="node">
<title>Node4</title>
<g id="a_Node000004"><a xlink:title=" ">
<polygon fill="#e0e0e0" stroke="#999999" points="205,-19 150,-19 150,0 205,0 205,-19"/>
<text text-anchor="middle" x="177.5" y="-7" font-family="Helvetica,sans-Serif" font-size="10.00">QMutex</text>
</a>
</g>
</g>
<!-- Node2&#45;&gt;Node4 -->
<g id="edge3_Node000002_Node000004" class="edge">
<title>Node2&#45;&gt;Node4</title>
<g id="a_edge3_Node000002_Node000004"><a xlink:title=" ">
<path fill="none" stroke="#63b8ff" d="M177.5,-54.75C177.5,-47.8 177.5,-37.85 177.5,-29.13"/>
<polygon fill="#63b8ff" stroke="#63b8ff" points="181,-29.09 177.5,-19.09 174,-29.09 181,-29.09"/>
</a>
</g>
</g>
<!-- Node5 -->
<g id="Node000005" class="node">
<title>Node5</title>
<g id="a_Node000005"><a xlink:title=" ">
<polygon fill="#e0e0e0" stroke="#999999" points="444.5,-19 388.5,-19 388.5,0 444.5,0 444.5,-19"/>
<text text-anchor="middle" x="416.5" y="-7" font-family="Helvetica,sans-Serif" font-size="10.00">QObject</text>
</a>
</g>
</g>
<!-- Node2&#45;&gt;Node5 -->
<g id="edge4_Node000002_Node000005" class="edge">
<title>Node2&#45;&gt;Node5</title>
<g id="a_edge4_Node000002_Node000005"><a xlink:title=" ">
<path fill="none" stroke="#63b8ff" d="M216.63,-54.99C255.27,-46.56 316.32,-33.18 378.28,-19.26"/>
<polygon fill="#63b8ff" stroke="#63b8ff" points="379.24,-22.63 388.22,-17.02 377.7,-15.8 379.24,-22.63"/>
</a>
</g>
</g>
<!-- Node6 -->
<g id="Node000006" class="node">
<title>Node6</title>
<g id="a_Node000006"><a xlink:title=" ">
<polygon fill="#e0e0e0" stroke="#999999" points="59,-19 0,-19 0,0 59,0 59,-19"/>
<text text-anchor="middle" x="29.5" y="-7" font-family="Helvetica,sans-Serif" font-size="10.00">QPointer</text>
</a>
</g>
</g>
<!-- Node2&#45;&gt;Node6 -->
<g id="edge5_Node000002_Node000006" class="edge">
<title>Node2&#45;&gt;Node6</title>
<g id="a_edge5_Node000002_Node000006"><a xlink:title=" ">
<path fill="none" stroke="#63b8ff" d="M153.72,-54.98C129.27,-46.23 90.97,-32.51 63.35,-22.62"/>
<polygon fill="#63b8ff" stroke="#63b8ff" points="64.31,-19.25 53.71,-19.17 61.95,-25.84 64.31,-19.25"/>
</a>
</g>
</g>
<!-- Node7 -->
<g id="Node000007" class="node">
<title>Node7</title>
<g id="a_Node000007"><a xlink:title=" ">
<polygon fill="#e0e0e0" stroke="#999999" points="276,-19 223,-19 223,0 276,0 276,-19"/>
<text text-anchor="middle" x="249.5" y="-7" font-family="Helvetica,sans-Serif" font-size="10.00">QString</text>
</a>
</g>
</g>
<!-- Node2&#45;&gt;Node7 -->
<g id="edge6_Node000002_Node000007" class="edge">
<title>Node2&#45;&gt;Node7</title>
<g id="a_edge6_Node000002_Node000007"><a xlink:title=" ">
<path fill="none" stroke="#63b8ff" d="M189.07,-54.98C199.92,-47 216.38,-34.88 229.38,-25.31"/>
<polygon fill="#63b8ff" stroke="#63b8ff" points="231.74,-27.92 237.72,-19.17 227.59,-22.28 231.74,-27.92"/>
</a>
</g>
</g>
<!-- Node8 -->
<g id="Node000008" class="node">
<title>Node8</title>
<g id="a_Node000008"><a xlink:title=" ">
<polygon fill="#e0e0e0" stroke="#999999" points="132,-19 77,-19 77,0 132,0 132,-19"/>
<text text-anchor="middle" x="104.5" y="-7" font-family="Helvetica,sans-Serif" font-size="10.00">QVector</text>
</a>
</g>
</g>
<!-- Node2&#45;&gt;Node8 -->
<g id="edge7_Node000002_Node000008" class="edge">
<title>Node2&#45;&gt;Node8</title>
<g id="a_edge7_Node000002_Node000008"><a xlink:title=" ">
<path fill="none" stroke="#63b8ff" d="M165.77,-54.98C154.77,-47 138.08,-34.88 124.9,-25.31"/>
<polygon fill="#63b8ff" stroke="#63b8ff" points="126.59,-22.21 116.44,-19.17 122.48,-27.88 126.59,-22.21"/>
</a>
</g>
</g>
<!-- Node9&#45;&gt;Node3 -->
<g id="edge10_Node000009_Node000003" class="edge">
<title>Node9&#45;&gt;Node3</title>
<g id="a_edge10_Node000009_Node000003"><a xlink:title=" ">
<path fill="none" stroke="#63b8ff" d="M317.47,-54.75C319.86,-47.72 323.29,-37.62 326.27,-28.84"/>
<polygon fill="#63b8ff" stroke="#63b8ff" points="329.68,-29.68 329.58,-19.09 323.05,-27.43 329.68,-29.68"/>
</a>
</g>
</g>
<!-- Node9&#45;&gt;Node5 -->
<g id="edge11_Node000009_Node000005" class="edge">
<title>Node9&#45;&gt;Node5</title>
<g id="a_edge11_Node000009_Node000005"><a xlink:title=" ">
<path fill="none" stroke="#63b8ff" d="M330.89,-54.98C347.07,-46.57 372.07,-33.59 390.88,-23.81"/>
<polygon fill="#63b8ff" stroke="#63b8ff" points="392.55,-26.89 399.81,-19.17 389.33,-20.68 392.55,-26.89"/>
</a>
</g>
</g>
<!-- Node9&#45;&gt;Node7 -->
<g id="edge12_Node000009_Node000007" class="edge">
<title>Node9&#45;&gt;Node7</title>
<g id="a_edge12_Node000009_Node000007"><a xlink:title=" ">
<path fill="none" stroke="#63b8ff" d="M304.06,-54.98C294.35,-47.07 279.68,-35.11 268,-25.58"/>
<polygon fill="#63b8ff" stroke="#63b8ff" points="270.1,-22.78 260.13,-19.17 265.67,-28.2 270.1,-22.78"/>
</a>
</g>
</g>
<!-- Node10 -->
<g id="Node000010" class="node">
<title>Node10</title>
<g id="a_Node000010"><a xlink:title=" ">
<polygon fill="#e0e0e0" stroke="#999999" points="706,-19 633,-19 633,0 706,0 706,-19"/>
<text text-anchor="middle" x="669.5" y="-7" font-family="Helvetica,sans-Serif" font-size="10.00">QByteArray</text>
</a>
</g>
</g>
<!-- Node9&#45;&gt;Node10 -->
<g id="edge9_Node000009_Node000010" class="edge">
<title>Node9&#45;&gt;Node10</title>
<g id="a_edge9_Node000009_Node000010"><a xlink:title=" ">
<path fill="none" stroke="#63b8ff" d="M371.54,-54.98C441.3,-44.57 558.08,-27.13 622.78,-17.47"/>
<polygon fill="#63b8ff" stroke="#63b8ff" points="623.33,-20.93 632.7,-15.99 622.3,-14.01 623.33,-20.93"/>
</a>
</g>
</g>
<!-- Node11&#45;&gt;Node3 -->
<g id="edge16_Node000011_Node000003" class="edge">
<title>Node11&#45;&gt;Node3</title>
<g id="a_edge16_Node000011_Node000003"><a xlink:title=" ">
<path fill="none" stroke="#63b8ff" d="M689.34,-109.93C720.22,-98.73 764.2,-77.84 743.5,-55 717.71,-26.53 451.37,-24.74 380.86,-18.76"/>
<polygon fill="#63b8ff" stroke="#63b8ff" points="380.99,-15.25 370.68,-17.67 380.25,-22.21 380.99,-15.25"/>
</a>
</g>
</g>
<!-- Node11&#45;&gt;Node5 -->
<g id="edge20_Node000011_Node000005" class="edge">
<title>Node11&#45;&gt;Node5</title>
<g id="a_edge20_Node000011_Node000005"><a xlink:title=" ">
<path fill="none" stroke="#63b8ff" d="M709.08,-109.94C750.71,-100.31 801.67,-82.34 777.5,-55 756.35,-31.08 543.24,-17.18 454.73,-12.4"/>
<polygon fill="#63b8ff" stroke="#63b8ff" points="454.74,-8.89 444.57,-11.86 454.37,-15.88 454.74,-8.89"/>
</a>
</g>
</g>
<!-- Node11&#45;&gt;Node9 -->
<g id="edge14_Node000011_Node000009" class="edge">
<title>Node11&#45;&gt;Node9</title>
<g id="a_edge14_Node000011_Node000009"><a xlink:title=" ">
<path fill="none" stroke="#63b8ff" d="M606.59,-109.98C545.04,-100.61 446.16,-85.55 380.76,-75.59"/>
<polygon fill="#63b8ff" stroke="#63b8ff" points="380.97,-72.08 370.56,-74.04 379.92,-79 380.97,-72.08"/>
</a>
</g>
</g>
<!-- Node11&#45;&gt;Node10 -->
<g id="edge15_Node000011_Node000010" class="edge">
<title>Node11&#45;&gt;Node10</title>
<g id="a_edge15_Node000011_Node000010"><a xlink:title=" ">
<path fill="none" stroke="#63b8ff" d="M715.85,-109.94C754.99,-102.44 803.34,-90.21 815.5,-74 843.89,-36.18 769.12,-20.55 716.4,-14.34"/>
<polygon fill="#63b8ff" stroke="#63b8ff" points="716.5,-10.83 706.18,-13.22 715.74,-17.79 716.5,-10.83"/>
</a>
</g>
</g>
<!-- Node12 -->
<g id="Node000012" class="node">
<title>Node12</title>
<g id="a_Node000012"><a xlink:title=" ">
<polygon fill="#e0e0e0" stroke="#999999" points="913,-74 868,-74 868,-55 913,-55 913,-74"/>
<text text-anchor="middle" x="890.5" y="-62" font-family="Helvetica,sans-Serif" font-size="10.00">QMap</text>
</a>
</g>
</g>
<!-- Node11&#45;&gt;Node12 -->
<g id="edge17_Node000011_Node000012" class="edge">
<title>Node11&#45;&gt;Node12</title>
<g id="a_edge17_Node000011_Node000012"><a xlink:title=" ">
<path fill="none" stroke="#63b8ff" d="M699.13,-109.98C743,-99.79 815.8,-82.86 857.83,-73.09"/>
<polygon fill="#63b8ff" stroke="#63b8ff" points="858.87,-76.45 867.81,-70.77 857.28,-69.63 858.87,-76.45"/>
</a>
</g>
</g>
<!-- Node13 -->
<g id="Node000013" class="node">
<title>Node13</title>
<g id="a_Node000013"><a xlink:title=" ">
<polygon fill="#e0e0e0" stroke="#999999" points="552.5,-74 410.5,-74 410.5,-55 552.5,-55 552.5,-74"/>
<text text-anchor="middle" x="481.5" y="-62" font-family="Helvetica,sans-Serif" font-size="10.00">QNetworkAccessManager</text>
</a>
</g>
</g>
<!-- Node11&#45;&gt;Node13 -->
<g id="edge18_Node000011_Node000013" class="edge">
<title>Node11&#45;&gt;Node13</title>
<g id="a_edge18_Node000011_Node000013"><a xlink:title=" ">
<path fill="none" stroke="#63b8ff" d="M633.42,-109.98C602.9,-101.05 554.74,-86.94 520.84,-77.02"/>
<polygon fill="#63b8ff" stroke="#63b8ff" points="521.39,-73.53 510.81,-74.08 519.42,-80.25 521.39,-73.53"/>
</a>
</g>
</g>
<!-- Node14 -->
<g id="Node000014" class="node">
<title>Node14</title>
<g id="a_Node000014"><a xlink:title=" ">
<polygon fill="#e0e0e0" stroke="#999999" points="664,-74 571,-74 571,-55 664,-55 664,-74"/>
<text text-anchor="middle" x="617.5" y="-62" font-family="Helvetica,sans-Serif" font-size="10.00">QNetworkReply</text>
</a>
</g>
</g>
<!-- Node11&#45;&gt;Node14 -->
<g id="edge19_Node000011_Node000014" class="edge">
<title>Node11&#45;&gt;Node14</title>
<g id="a_edge19_Node000011_Node000014"><a xlink:title=" ">
<path fill="none" stroke="#63b8ff" d="M655.07,-109.75C648.65,-102.18 639.19,-91.05 631.38,-81.84"/>
<polygon fill="#63b8ff" stroke="#63b8ff" points="633.93,-79.45 624.79,-74.09 628.6,-83.98 633.93,-79.45"/>
</a>
</g>
</g>
<!-- Node15 -->
<g id="Node000015" class="node">
<title>Node15</title>
<g id="a_Node000015"><a xlink:title=" ">
<polygon fill="#e0e0e0" stroke="#999999" points="735,-74 682,-74 682,-55 735,-55 735,-74"/>
<text text-anchor="middle" x="708.5" y="-62" font-family="Helvetica,sans-Serif" font-size="10.00">QTimer</text>
</a>
</g>
</g>
<!-- Node11&#45;&gt;Node15 -->
<g id="edge21_Node000011_Node000015" class="edge">
<title>Node11&#45;&gt;Node15</title>
<g id="a_edge21_Node000011_Node000015"><a xlink:title=" ">
<path fill="none" stroke="#63b8ff" d="M670.1,-109.75C676.66,-102.18 686.32,-91.05 694.31,-81.84"/>
<polygon fill="#63b8ff" stroke="#63b8ff" points="697.13,-83.94 701.05,-74.09 691.85,-79.35 697.13,-83.94"/>
</a>
</g>
</g>
</g>
</svg>
