<?xml version="1.0" encoding="UTF-8" standalone="no"?>
<!DOCTYPE svg PUBLIC "-//W3C//DTD SVG 1.1//EN"
 "http://www.w3.org/Graphics/SVG/1.1/DTD/svg11.dtd">
<!-- Generated by graphviz version 2.43.0 (0)
 -->
<!-- Title: core/easyeda/EasyedaImporter.cpp Pages: 1 -->
<svg width="696pt" height="247pt"
 viewBox="0.00 0.00 696.49 247.00" xmlns="http://www.w3.org/2000/svg" xmlns:xlink="http://www.w3.org/1999/xlink">
<g id="graph0" class="graph" transform="scale(1 1) rotate(0) translate(4 243)">
<title>core/easyeda/EasyedaImporter.cpp</title>
<!-- Node1 -->
<g id="Node000001" class="node">
<title>Node1</title>
<g id="a_Node000001"><a xlink:title=" ">
<polygon fill="#999999" stroke="#666666" points="470.5,-239 282.5,-239 282.5,-220 470.5,-220 470.5,-239"/>
<text text-anchor="middle" x="376.5" y="-227" font-family="Helvetica,sans-Serif" font-size="10.00">core/easyeda/EasyedaImporter.cpp</text>
</a>
</g>
</g>
<!-- Node2 -->
<g id="Node000002" class="node">
<title>Node2</title>
<g id="a_Node000002"><a xlink:href="EasyedaImporter_8h.html" target="_top" xlink:title=" ">
<polygon fill="white" stroke="#666666" points="282.5,-184 174.5,-184 174.5,-165 282.5,-165 282.5,-184"/>
<text text-anchor="middle" x="228.5" y="-172" font-family="Helvetica,sans-Serif" font-size="10.00">EasyedaImporter.h</text>
</a>
</g>
</g>
<!-- Node1&#45;&gt;Node2 -->
<g id="edge1_Node000001_Node000002" class="edge">
<title>Node1&#45;&gt;Node2</title>
<g id="a_edge1_Node000001_Node000002"><a xlink:title=" ">
<path fill="none" stroke="#63b8ff" d="M352.72,-219.98C328.27,-211.23 289.97,-197.51 262.35,-187.62"/>
<polygon fill="#63b8ff" stroke="#63b8ff" points="263.31,-184.25 252.71,-184.17 260.95,-190.84 263.31,-184.25"/>
</a>
</g>
</g>
<!-- Node15 -->
<g id="Node000015" class="node">
<title>Node15</title>
<g id="a_Node000015"><a xlink:href="EasyedaFootprintImporter_8h.html" target="_top" xlink:title=" ">
<polygon fill="white" stroke="#666666" points="452.5,-184 300.5,-184 300.5,-165 452.5,-165 452.5,-184"/>
<text text-anchor="middle" x="376.5" y="-172" font-family="Helvetica,sans-Serif" font-size="10.00">EasyedaFootprintImporter.h</text>
</a>
</g>
</g>
<!-- Node1&#45;&gt;Node15 -->
<g id="edge22_Node000001_Node000015" class="edge">
<title>Node1&#45;&gt;Node15</title>
<g id="a_edge22_Node000001_Node000015"><a xlink:title=" ">
<path fill="none" stroke="#63b8ff" d="M376.5,-219.75C376.5,-212.8 376.5,-202.85 376.5,-194.13"/>
<polygon fill="#63b8ff" stroke="#63b8ff" points="380,-194.09 376.5,-184.09 373,-194.09 380,-194.09"/>
</a>
</g>
</g>
<!-- Node17 -->
<g id="Node000017" class="node">
<title>Node17</title>
<g id="a_Node000017"><a xlink:href="EasyedaSymbolImporter_8h.html" target="_top" xlink:title=" ">
<polygon fill="white" stroke="#666666" points="616,-184 471,-184 471,-165 616,-165 616,-184"/>
<text text-anchor="middle" x="543.5" y="-172" font-family="Helvetica,sans-Serif" font-size="10.00">EasyedaSymbolImporter.h</text>
</a>
</g>
</g>
<!-- Node1&#45;&gt;Node17 -->
<g id="edge27_Node000001_Node000017" class="edge">
<title>Node1&#45;&gt;Node17</title>
<g id="a_edge27_Node000001_Node000017"><a xlink:title=" ">
<path fill="none" stroke="#63b8ff" d="M403.33,-219.98C431.37,-211.09 475.55,-197.07 506.8,-187.15"/>
<polygon fill="#63b8ff" stroke="#63b8ff" points="507.99,-190.44 516.46,-184.08 505.87,-183.77 507.99,-190.44"/>
</a>
</g>
</g>
<!-- Node3 -->
<g id="Node000003" class="node">
<title>Node3</title>
<g id="a_Node000003"><a xlink:href="FootprintData_8h.html" target="_top" xlink:title=" ">
<polygon fill="white" stroke="#666666" points="294,-129 163,-129 163,-110 294,-110 294,-129"/>
<text text-anchor="middle" x="228.5" y="-117" font-family="Helvetica,sans-Serif" font-size="10.00">models/FootprintData.h</text>
</a>
</g>
</g>
<!-- Node2&#45;&gt;Node3 -->
<g id="edge2_Node000002_Node000003" class="edge">
<title>Node2&#45;&gt;Node3</title>
<g id="a_edge2_Node000002_Node000003"><a xlink:title=" ">
<path fill="none" stroke="#63b8ff" d="M228.5,-164.75C228.5,-157.8 228.5,-147.85 228.5,-139.13"/>
<polygon fill="#63b8ff" stroke="#63b8ff" points="232,-139.09 228.5,-129.09 225,-139.09 232,-139.09"/>
</a>
</g>
</g>
<!-- Node6 -->
<g id="Node000006" class="node">
<title>Node6</title>
<g id="a_Node000006"><a xlink:title=" ">
<polygon fill="#e0e0e0" stroke="#999999" points="244.5,-19 168.5,-19 168.5,0 244.5,0 244.5,-19"/>
<text text-anchor="middle" x="206.5" y="-7" font-family="Helvetica,sans-Serif" font-size="10.00">QJsonObject</text>
</a>
</g>
</g>
<!-- Node2&#45;&gt;Node6 -->
<g id="edge19_Node000002_Node000006" class="edge">
<title>Node2&#45;&gt;Node6</title>
<g id="a_edge19_Node000002_Node000006"><a xlink:title=" ">
<path fill="none" stroke="#63b8ff" d="M200.85,-164.98C183.92,-158.17 163.61,-146.76 153.5,-129 133.45,-93.79 167.71,-49.58 189.88,-26.39"/>
<polygon fill="#63b8ff" stroke="#63b8ff" points="192.54,-28.67 197.11,-19.11 187.58,-23.74 192.54,-28.67"/>
</a>
</g>
</g>
<!-- Node11 -->
<g id="Node000011" class="node">
<title>Node11</title>
<g id="a_Node000011"><a xlink:href="SymbolData_8h.html" target="_top" xlink:title=" ">
<polygon fill="white" stroke="#666666" points="548,-129 423,-129 423,-110 548,-110 548,-129"/>
<text text-anchor="middle" x="485.5" y="-117" font-family="Helvetica,sans-Serif" font-size="10.00">models/SymbolData.h</text>
</a>
</g>
</g>
<!-- Node2&#45;&gt;Node11 -->
<g id="edge12_Node000002_Node000011" class="edge">
<title>Node2&#45;&gt;Node11</title>
<g id="a_edge12_Node000002_Node000011"><a xlink:title=" ">
<path fill="none" stroke="#63b8ff" d="M269.79,-164.98C314.43,-155.78 385.66,-141.09 433.95,-131.13"/>
<polygon fill="#63b8ff" stroke="#63b8ff" points="434.8,-134.53 443.88,-129.08 433.38,-127.67 434.8,-134.53"/>
</a>
</g>
</g>
<!-- Node13 -->
<g id="Node000013" class="node">
<title>Node13</title>
<g id="a_Node000013"><a xlink:title=" ">
<polygon fill="#e0e0e0" stroke="#999999" points="106.5,-129 50.5,-129 50.5,-110 106.5,-110 106.5,-129"/>
<text text-anchor="middle" x="78.5" y="-117" font-family="Helvetica,sans-Serif" font-size="10.00">QObject</text>
</a>
</g>
</g>
<!-- Node2&#45;&gt;Node13 -->
<g id="edge20_Node000002_Node000013" class="edge">
<title>Node2&#45;&gt;Node13</title>
<g id="a_edge20_Node000002_Node000013"><a xlink:title=" ">
<path fill="none" stroke="#63b8ff" d="M204.4,-164.98C179.62,-156.23 140.8,-142.51 112.81,-132.62"/>
<polygon fill="#63b8ff" stroke="#63b8ff" points="113.63,-129.2 103.04,-129.17 111.3,-135.8 113.63,-129.2"/>
</a>
</g>
</g>
<!-- Node14 -->
<g id="Node000014" class="node">
<title>Node14</title>
<g id="a_Node000014"><a xlink:title=" ">
<polygon fill="#e0e0e0" stroke="#999999" points="404.5,-129 312.5,-129 312.5,-110 404.5,-110 404.5,-129"/>
<text text-anchor="middle" x="358.5" y="-117" font-family="Helvetica,sans-Serif" font-size="10.00">QSharedPointer</text>
</a>
</g>
</g>
<!-- Node2&#45;&gt;Node14 -->
<g id="edge21_Node000002_Node000014" class="edge">
<title>Node2&#45;&gt;Node14</title>
<g id="a_edge21_Node000002_Node000014"><a xlink:title=" ">
<path fill="none" stroke="#63b8ff" d="M249.39,-164.98C270.58,-156.34 303.63,-142.87 327.8,-133.02"/>
<polygon fill="#63b8ff" stroke="#63b8ff" points="329.29,-136.19 337.23,-129.17 326.65,-129.7 329.29,-136.19"/>
</a>
</g>
</g>
<!-- Node4 -->
<g id="Node000004" class="node">
<title>Node4</title>
<g id="a_Node000004"><a xlink:href="Model3DData_8h.html" target="_top" xlink:title=" ">
<polygon fill="white" stroke="#666666" points="106.5,-74 14.5,-74 14.5,-55 106.5,-55 106.5,-74"/>
<text text-anchor="middle" x="60.5" y="-62" font-family="Helvetica,sans-Serif" font-size="10.00">Model3DData.h</text>
</a>
</g>
</g>
<!-- Node3&#45;&gt;Node4 -->
<g id="edge3_Node000003_Node000004" class="edge">
<title>Node3&#45;&gt;Node4</title>
<g id="a_edge3_Node000003_Node000004"><a xlink:title=" ">
<path fill="none" stroke="#63b8ff" d="M201.51,-109.98C173.3,-101.09 128.86,-87.07 97.42,-77.15"/>
<polygon fill="#63b8ff" stroke="#63b8ff" points="98.29,-73.75 87.7,-74.08 96.19,-80.43 98.29,-73.75"/>
</a>
</g>
</g>
<!-- Node3&#45;&gt;Node6 -->
<g id="edge8_Node000003_Node000006" class="edge">
<title>Node3&#45;&gt;Node6</title>
<g id="a_edge8_Node000003_Node000006"><a xlink:title=" ">
<path fill="none" stroke="#63b8ff" d="M218.06,-109.87C209.08,-101.7 196.76,-88.55 191.5,-74 186.09,-59.04 191.13,-41.38 196.79,-28.49"/>
<polygon fill="#63b8ff" stroke="#63b8ff" points="200.02,-29.83 201.26,-19.31 193.73,-26.76 200.02,-29.83"/>
</a>
</g>
</g>
<!-- Node7 -->
<g id="Node000007" class="node">
<title>Node7</title>
<g id="a_Node000007"><a xlink:title=" ">
<polygon fill="#e0e0e0" stroke="#999999" points="53,-19 0,-19 0,0 53,0 53,-19"/>
<text text-anchor="middle" x="26.5" y="-7" font-family="Helvetica,sans-Serif" font-size="10.00">QString</text>
</a>
</g>
</g>
<!-- Node3&#45;&gt;Node7 -->
<g id="edge11_Node000003_Node000007" class="edge">
<title>Node3&#45;&gt;Node7</title>
<g id="a_edge11_Node000003_Node000007"><a xlink:title=" ">
<path fill="none" stroke="#63b8ff" d="M162.78,-114.41C104.32,-109.23 25.12,-97.92 5.5,-74 -5.49,-60.6 3.48,-41.23 12.87,-27.41"/>
<polygon fill="#63b8ff" stroke="#63b8ff" points="15.77,-29.38 18.89,-19.25 10.14,-25.22 15.77,-29.38"/>
</a>
</g>
</g>
<!-- Node8 -->
<g id="Node000008" class="node">
<title>Node8</title>
<g id="a_Node000008"><a xlink:title=" ">
<polygon fill="#e0e0e0" stroke="#999999" points="345,-74 274,-74 274,-55 345,-55 345,-74"/>
<text text-anchor="middle" x="309.5" y="-62" font-family="Helvetica,sans-Serif" font-size="10.00">QJsonArray</text>
</a>
</g>
</g>
<!-- Node3&#45;&gt;Node8 -->
<g id="edge7_Node000003_Node000008" class="edge">
<title>Node3&#45;&gt;Node8</title>
<g id="a_edge7_Node000003_Node000008"><a xlink:title=" ">
<path fill="none" stroke="#63b8ff" d="M241.51,-109.98C253.96,-101.84 272.96,-89.41 287.71,-79.76"/>
<polygon fill="#63b8ff" stroke="#63b8ff" points="289.8,-82.57 296.25,-74.17 285.96,-76.72 289.8,-82.57"/>
</a>
</g>
</g>
<!-- Node9 -->
<g id="Node000009" class="node">
<title>Node9</title>
<g id="a_Node000009"><a xlink:title=" ">
<polygon fill="#e0e0e0" stroke="#999999" points="404,-74 363,-74 363,-55 404,-55 404,-74"/>
<text text-anchor="middle" x="383.5" y="-62" font-family="Helvetica,sans-Serif" font-size="10.00">QList</text>
</a>
</g>
</g>
<!-- Node3&#45;&gt;Node9 -->
<g id="edge9_Node000003_Node000009" class="edge">
<title>Node3&#45;&gt;Node9</title>
<g id="a_edge9_Node000003_Node000009"><a xlink:title=" ">
<path fill="none" stroke="#63b8ff" d="M253.4,-109.98C280.5,-100.72 323.85,-85.9 352.97,-75.94"/>
<polygon fill="#63b8ff" stroke="#63b8ff" points="354.3,-79.18 362.63,-72.63 352.04,-72.56 354.3,-79.18"/>
</a>
</g>
</g>
<!-- Node10 -->
<g id="Node000010" class="node">
<title>Node10</title>
<g id="a_Node000010"><a xlink:title=" ">
<polygon fill="#e0e0e0" stroke="#999999" points="256,-74 201,-74 201,-55 256,-55 256,-74"/>
<text text-anchor="middle" x="228.5" y="-62" font-family="Helvetica,sans-Serif" font-size="10.00">QPointF</text>
</a>
</g>
</g>
<!-- Node3&#45;&gt;Node10 -->
<g id="edge10_Node000003_Node000010" class="edge">
<title>Node3&#45;&gt;Node10</title>
<g id="a_edge10_Node000003_Node000010"><a xlink:title=" ">
<path fill="none" stroke="#63b8ff" d="M228.5,-109.75C228.5,-102.8 228.5,-92.85 228.5,-84.13"/>
<polygon fill="#63b8ff" stroke="#63b8ff" points="232,-84.09 228.5,-74.09 225,-84.09 232,-84.09"/>
</a>
</g>
</g>
<!-- Node5 -->
<g id="Node000005" class="node">
<title>Node5</title>
<g id="a_Node000005"><a xlink:title=" ">
<polygon fill="#e0e0e0" stroke="#999999" points="144,-19 71,-19 71,0 144,0 144,-19"/>
<text text-anchor="middle" x="107.5" y="-7" font-family="Helvetica,sans-Serif" font-size="10.00">QByteArray</text>
</a>
</g>
</g>
<!-- Node4&#45;&gt;Node5 -->
<g id="edge4_Node000004_Node000005" class="edge">
<title>Node4&#45;&gt;Node5</title>
<g id="a_edge4_Node000004_Node000005"><a xlink:title=" ">
<path fill="none" stroke="#63b8ff" d="M68.26,-54.75C74.97,-47.18 84.84,-36.05 93.01,-26.84"/>
<polygon fill="#63b8ff" stroke="#63b8ff" points="95.87,-28.89 99.88,-19.09 90.63,-24.25 95.87,-28.89"/>
</a>
</g>
</g>
<!-- Node4&#45;&gt;Node6 -->
<g id="edge5_Node000004_Node000006" class="edge">
<title>Node4&#45;&gt;Node6</title>
<g id="a_edge5_Node000004_Node000006"><a xlink:title=" ">
<path fill="none" stroke="#63b8ff" d="M83.96,-54.98C108.08,-46.23 145.87,-32.51 173.1,-22.62"/>
<polygon fill="#63b8ff" stroke="#63b8ff" points="174.41,-25.87 182.62,-19.17 172.02,-19.29 174.41,-25.87"/>
</a>
</g>
</g>
<!-- Node4&#45;&gt;Node7 -->
<g id="edge6_Node000004_Node000007" class="edge">
<title>Node4&#45;&gt;Node7</title>
<g id="a_edge6_Node000004_Node000007"><a xlink:title=" ">
<path fill="none" stroke="#63b8ff" d="M54.89,-54.75C50.18,-47.42 43.33,-36.73 37.53,-27.7"/>
<polygon fill="#63b8ff" stroke="#63b8ff" points="40.36,-25.62 32.01,-19.09 34.46,-29.4 40.36,-25.62"/>
</a>
</g>
</g>
<!-- Node11&#45;&gt;Node6 -->
<g id="edge14_Node000011_Node000006" class="edge">
<title>Node11&#45;&gt;Node6</title>
<g id="a_edge14_Node000011_Node000006"><a xlink:title=" ">
<path fill="none" stroke="#63b8ff" d="M482.8,-109.91C477.94,-95.97 466.34,-68.62 446.5,-55 416.03,-34.08 315.68,-21.01 254.81,-14.81"/>
<polygon fill="#63b8ff" stroke="#63b8ff" points="254.96,-11.3 244.67,-13.8 254.27,-18.27 254.96,-11.3"/>
</a>
</g>
</g>
<!-- Node11&#45;&gt;Node7 -->
<g id="edge18_Node000011_Node000007" class="edge">
<title>Node11&#45;&gt;Node7</title>
<g id="a_edge18_Node000011_Node000007"><a xlink:title=" ">
<path fill="none" stroke="#63b8ff" d="M478.54,-109.64C466.71,-95.32 441.17,-67.43 412.5,-55 271.57,6.09 218.25,-43.44 63.06,-19.01"/>
<polygon fill="#63b8ff" stroke="#63b8ff" points="63.61,-15.55 53.17,-17.37 62.47,-22.46 63.61,-15.55"/>
</a>
</g>
</g>
<!-- Node11&#45;&gt;Node8 -->
<g id="edge13_Node000011_Node000008" class="edge">
<title>Node11&#45;&gt;Node8</title>
<g id="a_edge13_Node000011_Node000008"><a xlink:title=" ">
<path fill="none" stroke="#63b8ff" d="M457.22,-109.98C427.55,-101.05 380.71,-86.94 347.75,-77.02"/>
<polygon fill="#63b8ff" stroke="#63b8ff" points="348.58,-73.61 338,-74.08 346.57,-80.32 348.58,-73.61"/>
</a>
</g>
</g>
<!-- Node11&#45;&gt;Node9 -->
<g id="edge15_Node000011_Node000009" class="edge">
<title>Node11&#45;&gt;Node9</title>
<g id="a_edge15_Node000011_Node000009"><a xlink:title=" ">
<path fill="none" stroke="#63b8ff" d="M469.11,-109.98C452.93,-101.57 427.93,-88.59 409.12,-78.81"/>
<polygon fill="#63b8ff" stroke="#63b8ff" points="410.67,-75.68 400.19,-74.17 407.45,-81.89 410.67,-75.68"/>
</a>
</g>
</g>
<!-- Node11&#45;&gt;Node10 -->
<g id="edge16_Node000011_Node000010" class="edge">
<title>Node11&#45;&gt;Node10</title>
<g id="a_edge16_Node000011_Node000010"><a xlink:title=" ">
<path fill="none" stroke="#63b8ff" d="M440.96,-109.98C398.45,-101.75 332.33,-88.69 266.52,-74.39"/>
<polygon fill="#63b8ff" stroke="#63b8ff" points="266.9,-70.89 256.39,-72.18 265.41,-77.73 266.9,-70.89"/>
</a>
</g>
</g>
<!-- Node12 -->
<g id="Node000012" class="node">
<title>Node12</title>
<g id="a_Node000012"><a xlink:title=" ">
<polygon fill="#e0e0e0" stroke="#999999" points="550.5,-74 498.5,-74 498.5,-55 550.5,-55 550.5,-74"/>
<text text-anchor="middle" x="524.5" y="-62" font-family="Helvetica,sans-Serif" font-size="10.00">QRectF</text>
</a>
</g>
</g>
<!-- Node11&#45;&gt;Node12 -->
<g id="edge17_Node000011_Node000012" class="edge">
<title>Node11&#45;&gt;Node12</title>
<g id="a_edge17_Node000011_Node000012"><a xlink:title=" ">
<path fill="none" stroke="#63b8ff" d="M491.94,-109.75C497.39,-102.34 505.36,-91.5 512.06,-82.41"/>
<polygon fill="#63b8ff" stroke="#63b8ff" points="515.07,-84.22 518.18,-74.09 509.43,-80.07 515.07,-84.22"/>
</a>
</g>
</g>
<!-- Node15&#45;&gt;Node3 -->
<g id="edge23_Node000015_Node000003" class="edge">
<title>Node15&#45;&gt;Node3</title>
<g id="a_edge23_Node000015_Node000003"><a xlink:title=" ">
<path fill="none" stroke="#63b8ff" d="M352.72,-164.98C328.27,-156.23 289.97,-142.51 262.35,-132.62"/>
<polygon fill="#63b8ff" stroke="#63b8ff" points="263.31,-129.25 252.71,-129.17 260.95,-135.84 263.31,-129.25"/>
</a>
</g>
</g>
<!-- Node15&#45;&gt;Node6 -->
<g id="edge24_Node000015_Node000006" class="edge">
<title>Node15&#45;&gt;Node6</title>
<g id="a_edge24_Node000015_Node000006"><a xlink:title=" ">
<path fill="none" stroke="#63b8ff" d="M446.95,-164.97C491.54,-157.98 543.36,-146.38 557.5,-129 578.27,-103.48 581.26,-79.68 559.5,-55 539.66,-32.5 346.66,-18.52 254.73,-13.09"/>
<polygon fill="#63b8ff" stroke="#63b8ff" points="254.75,-9.59 244.56,-12.5 254.34,-16.57 254.75,-9.59"/>
</a>
</g>
</g>
<!-- Node15&#45;&gt;Node14 -->
<g id="edge25_Node000015_Node000014" class="edge">
<title>Node15&#45;&gt;Node14</title>
<g id="a_edge25_Node000015_Node000014"><a xlink:title=" ">
<path fill="none" stroke="#63b8ff" d="M373.53,-164.75C371.14,-157.72 367.71,-147.62 364.73,-138.84"/>
<polygon fill="#63b8ff" stroke="#63b8ff" points="367.95,-137.43 361.42,-129.09 361.32,-139.68 367.95,-137.43"/>
</a>
</g>
</g>
<!-- Node16 -->
<g id="Node000016" class="node">
<title>Node16</title>
<g id="a_Node000016"><a xlink:title=" ">
<polygon fill="#e0e0e0" stroke="#999999" points="674.5,-129 604.5,-129 604.5,-110 674.5,-110 674.5,-129"/>
<text text-anchor="middle" x="639.5" y="-117" font-family="Helvetica,sans-Serif" font-size="10.00">QStringList</text>
</a>
</g>
</g>
<!-- Node15&#45;&gt;Node16 -->
<g id="edge26_Node000015_Node000016" class="edge">
<title>Node15&#45;&gt;Node16</title>
<g id="a_edge26_Node000015_Node000016"><a xlink:title=" ">
<path fill="none" stroke="#63b8ff" d="M418.76,-164.98C466.74,-155.31 544.76,-139.59 594.04,-129.66"/>
<polygon fill="#63b8ff" stroke="#63b8ff" points="594.98,-133.04 604.09,-127.63 593.6,-126.18 594.98,-133.04"/>
</a>
</g>
</g>
<!-- Node17&#45;&gt;Node6 -->
<g id="edge29_Node000017_Node000006" class="edge">
<title>Node17&#45;&gt;Node6</title>
<g id="a_edge29_Node000017_Node000006"><a xlink:title=" ">
<path fill="none" stroke="#63b8ff" d="M616.07,-165.81C659.47,-157.85 702.77,-141.85 683.5,-110 639.17,-36.74 366.69,-17.13 254.6,-12.12"/>
<polygon fill="#63b8ff" stroke="#63b8ff" points="254.72,-8.63 244.58,-11.7 254.42,-15.62 254.72,-8.63"/>
</a>
</g>
</g>
<!-- Node17&#45;&gt;Node11 -->
<g id="edge28_Node000017_Node000011" class="edge">
<title>Node17&#45;&gt;Node11</title>
<g id="a_edge28_Node000017_Node000011"><a xlink:title=" ">
<path fill="none" stroke="#63b8ff" d="M534.18,-164.98C525.69,-157.23 512.94,-145.58 502.62,-136.14"/>
<polygon fill="#63b8ff" stroke="#63b8ff" points="504.73,-133.33 494.99,-129.17 500.01,-138.5 504.73,-133.33"/>
</a>
</g>
</g>
<!-- Node17&#45;&gt;Node14 -->
<g id="edge30_Node000017_Node000014" class="edge">
<title>Node17&#45;&gt;Node14</title>
<g id="a_edge30_Node000017_Node000014"><a xlink:title=" ">
<path fill="none" stroke="#63b8ff" d="M513.78,-164.98C482.45,-156.01 432.93,-141.82 398.26,-131.89"/>
<polygon fill="#63b8ff" stroke="#63b8ff" points="399.03,-128.47 388.46,-129.08 397.11,-135.2 399.03,-128.47"/>
</a>
</g>
</g>
<!-- Node17&#45;&gt;Node16 -->
<g id="edge31_Node000017_Node000016" class="edge">
<title>Node17&#45;&gt;Node16</title>
<g id="a_edge31_Node000017_Node000016"><a xlink:title=" ">
<path fill="none" stroke="#63b8ff" d="M558.92,-164.98C573.95,-156.69 597.04,-143.94 614.66,-134.22"/>
<polygon fill="#63b8ff" stroke="#63b8ff" points="616.73,-137.07 623.8,-129.17 613.35,-130.94 616.73,-137.07"/>
</a>
</g>
</g>
</g>
</svg>
