<?xml version="1.0" encoding="UTF-8" standalone="no"?>
<!DOCTYPE svg PUBLIC "-//W3C//DTD SVG 1.1//EN"
 "http://www.w3.org/Graphics/SVG/1.1/DTD/svg11.dtd">
<!-- Generated by graphviz version 2.43.0 (0)
 -->
<!-- Title: core/easyeda/EasyedaSymbolImporter.h Pages: 1 -->
<svg width="378pt" height="104pt"
 viewBox="0.00 0.00 377.50 104.00" xmlns="http://www.w3.org/2000/svg" xmlns:xlink="http://www.w3.org/1999/xlink">
<g id="graph0" class="graph" transform="scale(1 1) rotate(0) translate(4 100)">
<title>core/easyeda/EasyedaSymbolImporter.h</title>
<!-- Node1 -->
<g id="Node000001" class="node">
<title>Node1</title>
<g id="a_Node000001"><a xlink:title=" ">
<polygon fill="#999999" stroke="#666666" points="272.5,-96 109.5,-96 109.5,-66 272.5,-66 272.5,-96"/>
<text text-anchor="start" x="117.5" y="-84" font-family="Helvetica,sans-Serif" font-size="10.00">core/easyeda/EasyedaSymbol</text>
<text text-anchor="middle" x="191" y="-73" font-family="Helvetica,sans-Serif" font-size="10.00">Importer.h</text>
</a>
</g>
</g>
<!-- Node2 -->
<g id="Node000002" class="node">
<title>Node2</title>
<g id="a_Node000002"><a xlink:href="EasyedaImporter_8cpp.html" target="_top" xlink:title=" ">
<polygon fill="white" stroke="#666666" points="188,-24.5 0,-24.5 0,-5.5 188,-5.5 188,-24.5"/>
<text text-anchor="middle" x="94" y="-12.5" font-family="Helvetica,sans-Serif" font-size="10.00">core/easyeda/EasyedaImporter.cpp</text>
</a>
</g>
</g>
<!-- Node1&#45;&gt;Node2 -->
<g id="edge1_Node000001_Node000002" class="edge">
<title>Node1&#45;&gt;Node2</title>
<g id="a_edge1_Node000001_Node000002"><a xlink:title=" ">
<path fill="none" stroke="#63b8ff" d="M160.99,-60.2C142.94,-48.29 120.87,-33.73 107.12,-24.66"/>
<polygon fill="#63b8ff" stroke="#63b8ff" points="159.2,-63.21 169.47,-65.8 163.05,-57.37 159.2,-63.21"/>
</a>
</g>
</g>
<!-- Node3 -->
<g id="Node000003" class="node">
<title>Node3</title>
<g id="a_Node000003"><a xlink:href="EasyedaSymbolImporter_8cpp.html" target="_top" xlink:title=" ">
<polygon fill="white" stroke="#666666" points="369.5,-30 206.5,-30 206.5,0 369.5,0 369.5,-30"/>
<text text-anchor="start" x="214.5" y="-18" font-family="Helvetica,sans-Serif" font-size="10.00">core/easyeda/EasyedaSymbol</text>
<text text-anchor="middle" x="288" y="-7" font-family="Helvetica,sans-Serif" font-size="10.00">Importer.cpp</text>
</a>
</g>
</g>
<!-- Node1&#45;&gt;Node3 -->
<g id="edge2_Node000001_Node000003" class="edge">
<title>Node1&#45;&gt;Node3</title>
<g id="a_edge2_Node000001_Node000003"><a xlink:title=" ">
<path fill="none" stroke="#63b8ff" d="M221.27,-60.03C235.95,-50.34 253.23,-38.94 266.53,-30.16"/>
<polygon fill="#63b8ff" stroke="#63b8ff" points="218.95,-57.37 212.53,-65.8 222.8,-63.21 218.95,-57.37"/>
</a>
</g>
</g>
</g>
</svg>
