<?xml version="1.0" encoding="UTF-8" standalone="no"?>
<!DOCTYPE svg PUBLIC "-//W3C//DTD SVG 1.1//EN"
 "http://www.w3.org/Graphics/SVG/1.1/DTD/svg11.dtd">
<!-- Generated by graphviz version 2.43.0 (0)
 -->
<!-- Title: core/easyeda/EasyedaApi.h Pages: 1 -->
<svg width="529pt" height="82pt"
 viewBox="0.00 0.00 528.50 82.00" xmlns="http://www.w3.org/2000/svg" xmlns:xlink="http://www.w3.org/1999/xlink">
<g id="graph0" class="graph" transform="scale(1 1) rotate(0) translate(4 78)">
<title>core/easyeda/EasyedaApi.h</title>
<!-- Node1 -->
<g id="Node000001" class="node">
<title>Node1</title>
<g id="a_Node000001"><a xlink:title=" ">
<polygon fill="#999999" stroke="#666666" points="342.5,-74 191.5,-74 191.5,-55 342.5,-55 342.5,-74"/>
<text text-anchor="middle" x="267" y="-62" font-family="Helvetica,sans-Serif" font-size="10.00">core/easyeda/EasyedaApi.h</text>
</a>
</g>
</g>
<!-- Node2 -->
<g id="Node000002" class="node">
<title>Node2</title>
<g id="a_Node000002"><a xlink:href="EasyedaApi_8cpp.html" target="_top" xlink:title=" ">
<polygon fill="white" stroke="#666666" points="162,-19 0,-19 0,0 162,0 162,-19"/>
<text text-anchor="middle" x="81" y="-7" font-family="Helvetica,sans-Serif" font-size="10.00">core/easyeda/EasyedaApi.cpp</text>
</a>
</g>
</g>
<!-- Node1&#45;&gt;Node2 -->
<g id="edge1_Node000001_Node000002" class="edge">
<title>Node1&#45;&gt;Node2</title>
<g id="a_edge1_Node000001_Node000002"><a xlink:title=" ">
<path fill="none" stroke="#63b8ff" d="M227.29,-52.18C192.5,-42.27 142.71,-28.08 111.12,-19.08"/>
<polygon fill="#63b8ff" stroke="#63b8ff" points="226.54,-55.61 237.12,-54.98 228.46,-48.88 226.54,-55.61"/>
</a>
</g>
</g>
<!-- Node3 -->
<g id="Node000003" class="node">
<title>Node3</title>
<g id="a_Node000003"><a xlink:href="ComponentService_8cpp.html" target="_top" xlink:title=" ">
<polygon fill="white" stroke="#666666" points="353.5,-19 180.5,-19 180.5,0 353.5,0 353.5,-19"/>
<text text-anchor="middle" x="267" y="-7" font-family="Helvetica,sans-Serif" font-size="10.00">services/ComponentService.cpp</text>
</a>
</g>
</g>
<!-- Node1&#45;&gt;Node3 -->
<g id="edge2_Node000001_Node000003" class="edge">
<title>Node1&#45;&gt;Node3</title>
<g id="a_edge2_Node000001_Node000003"><a xlink:title=" ">
<path fill="none" stroke="#63b8ff" d="M267,-44.66C267,-35.93 267,-25.99 267,-19.09"/>
<polygon fill="#63b8ff" stroke="#63b8ff" points="263.5,-44.75 267,-54.75 270.5,-44.75 263.5,-44.75"/>
</a>
</g>
</g>
<!-- Node4 -->
<g id="Node000004" class="node">
<title>Node4</title>
<g id="a_Node000004"><a xlink:href="ProcessWorker_8cpp.html" target="_top" xlink:title=" ">
<polygon fill="white" stroke="#666666" points="520.5,-19 371.5,-19 371.5,0 520.5,0 520.5,-19"/>
<text text-anchor="middle" x="446" y="-7" font-family="Helvetica,sans-Serif" font-size="10.00">workers/ProcessWorker.cpp</text>
</a>
</g>
</g>
<!-- Node1&#45;&gt;Node4 -->
<g id="edge3_Node000001_Node000004" class="edge">
<title>Node1&#45;&gt;Node4</title>
<g id="a_edge3_Node000001_Node000004"><a xlink:title=" ">
<path fill="none" stroke="#63b8ff" d="M305.65,-52.06C339.11,-42.15 386.75,-28.04 417.02,-19.08"/>
<polygon fill="#63b8ff" stroke="#63b8ff" points="304.35,-48.79 295.76,-54.98 306.34,-55.5 304.35,-48.79"/>
</a>
</g>
</g>
</g>
</svg>
