<?xml version="1.0" encoding="UTF-8" standalone="no"?>
<!DOCTYPE svg PUBLIC "-//W3C//DTD SVG 1.1//EN"
 "http://www.w3.org/Graphics/SVG/1.1/DTD/svg11.dtd">
<!-- Generated by graphviz version 2.43.0 (0)
 -->
<!-- Title: workers/ExportWorker.h Pages: 1 -->
<svg width="780pt" height="247pt"
 viewBox="0.00 0.00 779.63 247.00" xmlns="http://www.w3.org/2000/svg" xmlns:xlink="http://www.w3.org/1999/xlink">
<g id="graph0" class="graph" transform="scale(1 1) rotate(0) translate(4 243)">
<title>workers/ExportWorker.h</title>
<!-- Node1 -->
<g id="Node000001" class="node">
<title>Node1</title>
<g id="a_Node000001"><a xlink:title=" ">
<polygon fill="#999999" stroke="#666666" points="591.13,-239 460.13,-239 460.13,-220 591.13,-220 591.13,-239"/>
<text text-anchor="middle" x="525.63" y="-227" font-family="Helvetica,sans-Serif" font-size="10.00">workers/ExportWorker.h</text>
</a>
</g>
</g>
<!-- Node2 -->
<g id="Node000002" class="node">
<title>Node2</title>
<g id="a_Node000002"><a xlink:href="ComponentData_8h.html" target="_top" xlink:title=" ">
<polygon fill="white" stroke="#666666" points="423.63,-184 279.63,-184 279.63,-165 423.63,-165 423.63,-184"/>
<text text-anchor="middle" x="351.63" y="-172" font-family="Helvetica,sans-Serif" font-size="10.00">models/ComponentData.h</text>
</a>
</g>
</g>
<!-- Node1&#45;&gt;Node2 -->
<g id="edge1_Node000001_Node000002" class="edge">
<title>Node1&#45;&gt;Node2</title>
<g id="a_edge1_Node000001_Node000002"><a xlink:title=" ">
<path fill="none" stroke="#63b8ff" d="M497.67,-219.98C468.34,-211.05 422.03,-196.94 389.45,-187.02"/>
<polygon fill="#63b8ff" stroke="#63b8ff" points="390.39,-183.65 379.81,-184.08 388.35,-190.34 390.39,-183.65"/>
</a>
</g>
</g>
<!-- Node3 -->
<g id="Node000003" class="node">
<title>Node3</title>
<g id="a_Node000003"><a xlink:href="FootprintData_8h.html" target="_top" xlink:title=" ">
<polygon fill="white" stroke="#666666" points="385.63,-129 293.63,-129 293.63,-110 385.63,-110 385.63,-129"/>
<text text-anchor="middle" x="339.63" y="-117" font-family="Helvetica,sans-Serif" font-size="10.00">FootprintData.h</text>
</a>
</g>
</g>
<!-- Node1&#45;&gt;Node3 -->
<g id="edge24_Node000001_Node000003" class="edge">
<title>Node1&#45;&gt;Node3</title>
<g id="a_edge24_Node000001_Node000003"><a xlink:title=" ">
<path fill="none" stroke="#63b8ff" d="M514.26,-219.89C497.09,-207.09 463.29,-182.67 432.63,-165 411.9,-153.05 387.45,-141.45 368.83,-133.09"/>
<polygon fill="#63b8ff" stroke="#63b8ff" points="370.23,-129.88 359.67,-129.02 367.4,-136.28 370.23,-129.88"/>
</a>
</g>
</g>
<!-- Node4 -->
<g id="Node000004" class="node">
<title>Node4</title>
<g id="a_Node000004"><a xlink:href="Model3DData_8h.html" target="_top" xlink:title=" ">
<polygon fill="white" stroke="#666666" points="560.63,-74 468.63,-74 468.63,-55 560.63,-55 560.63,-74"/>
<text text-anchor="middle" x="514.63" y="-62" font-family="Helvetica,sans-Serif" font-size="10.00">Model3DData.h</text>
</a>
</g>
</g>
<!-- Node1&#45;&gt;Node4 -->
<g id="edge25_Node000001_Node000004" class="edge">
<title>Node1&#45;&gt;Node4</title>
<g id="a_edge25_Node000001_Node000004"><a xlink:title=" ">
<path fill="none" stroke="#63b8ff" d="M535.43,-219.72C556.38,-199.85 601.93,-150.05 580.63,-110 573.32,-96.25 559.66,-85.99 546.66,-78.8"/>
<polygon fill="#63b8ff" stroke="#63b8ff" points="547.91,-75.51 537.41,-74.11 544.74,-81.75 547.91,-75.51"/>
</a>
</g>
</g>
<!-- Node11 -->
<g id="Node000011" class="node">
<title>Node11</title>
<g id="a_Node000011"><a xlink:href="SymbolData_8h.html" target="_top" xlink:title=" ">
<polygon fill="white" stroke="#666666" points="217.63,-129 131.63,-129 131.63,-110 217.63,-110 217.63,-129"/>
<text text-anchor="middle" x="174.63" y="-117" font-family="Helvetica,sans-Serif" font-size="10.00">SymbolData.h</text>
</a>
</g>
</g>
<!-- Node1&#45;&gt;Node11 -->
<g id="edge26_Node000001_Node000011" class="edge">
<title>Node1&#45;&gt;Node11</title>
<g id="a_edge26_Node000001_Node000011"><a xlink:title=" ">
<path fill="none" stroke="#63b8ff" d="M459.96,-224.47C407.24,-219.5 332.12,-208.46 270.63,-184 240.95,-172.19 210.91,-150.38 192.53,-135.65"/>
<polygon fill="#63b8ff" stroke="#63b8ff" points="194.45,-132.7 184.49,-129.07 190.01,-138.11 194.45,-132.7"/>
</a>
</g>
</g>
<!-- Node13 -->
<g id="Node000013" class="node">
<title>Node13</title>
<g id="a_Node000013"><a xlink:title=" ">
<polygon fill="#e0e0e0" stroke="#999999" points="571.63,-129 479.63,-129 479.63,-110 571.63,-110 571.63,-129"/>
<text text-anchor="middle" x="525.63" y="-117" font-family="Helvetica,sans-Serif" font-size="10.00">QSharedPointer</text>
</a>
</g>
</g>
<!-- Node1&#45;&gt;Node13 -->
<g id="edge29_Node000001_Node000013" class="edge">
<title>Node1&#45;&gt;Node13</title>
<g id="a_edge29_Node000001_Node000013"><a xlink:title=" ">
<path fill="none" stroke="#63b8ff" d="M525.63,-219.66C525.63,-202.17 525.63,-162.8 525.63,-139.27"/>
<polygon fill="#63b8ff" stroke="#63b8ff" points="529.13,-139.16 525.63,-129.16 522.13,-139.16 529.13,-139.16"/>
</a>
</g>
</g>
<!-- Node14 -->
<g id="Node000014" class="node">
<title>Node14</title>
<g id="a_Node000014"><a xlink:title=" ">
<polygon fill="#e0e0e0" stroke="#999999" points="683.63,-184 627.63,-184 627.63,-165 683.63,-165 683.63,-184"/>
<text text-anchor="middle" x="655.63" y="-172" font-family="Helvetica,sans-Serif" font-size="10.00">QObject</text>
</a>
</g>
</g>
<!-- Node1&#45;&gt;Node14 -->
<g id="edge27_Node000001_Node000014" class="edge">
<title>Node1&#45;&gt;Node14</title>
<g id="a_edge27_Node000001_Node000014"><a xlink:title=" ">
<path fill="none" stroke="#63b8ff" d="M546.52,-219.98C567.71,-211.34 600.76,-197.87 624.93,-188.02"/>
<polygon fill="#63b8ff" stroke="#63b8ff" points="626.43,-191.19 634.36,-184.17 623.78,-184.7 626.43,-191.19"/>
</a>
</g>
</g>
<!-- Node15 -->
<g id="Node000015" class="node">
<title>Node15</title>
<g id="a_Node000015"><a xlink:title=" ">
<polygon fill="#e0e0e0" stroke="#999999" points="771.63,-184 701.63,-184 701.63,-165 771.63,-165 771.63,-184"/>
<text text-anchor="middle" x="736.63" y="-172" font-family="Helvetica,sans-Serif" font-size="10.00">QRunnable</text>
</a>
</g>
</g>
<!-- Node1&#45;&gt;Node15 -->
<g id="edge28_Node000001_Node000015" class="edge">
<title>Node1&#45;&gt;Node15</title>
<g id="a_edge28_Node000001_Node000015"><a xlink:title=" ">
<path fill="none" stroke="#63b8ff" d="M559.53,-219.98C595.65,-210.91 652.96,-196.52 692.55,-186.57"/>
<polygon fill="#63b8ff" stroke="#63b8ff" points="693.62,-189.91 702.46,-184.08 691.91,-183.12 693.62,-189.91"/>
</a>
</g>
</g>
<!-- Node2&#45;&gt;Node3 -->
<g id="edge2_Node000002_Node000003" class="edge">
<title>Node2&#45;&gt;Node3</title>
<g id="a_edge2_Node000002_Node000003"><a xlink:title=" ">
<path fill="none" stroke="#63b8ff" d="M349.65,-164.75C348.06,-157.72 345.77,-147.62 343.78,-138.84"/>
<polygon fill="#63b8ff" stroke="#63b8ff" points="347.2,-138.07 341.58,-129.09 340.37,-139.62 347.2,-138.07"/>
</a>
</g>
</g>
<!-- Node2&#45;&gt;Node4 -->
<g id="edge12_Node000002_Node000004" class="edge">
<title>Node2&#45;&gt;Node4</title>
<g id="a_edge12_Node000002_Node000004"><a xlink:title=" ">
<path fill="none" stroke="#63b8ff" d="M367.34,-164.91C382.9,-156.26 407.3,-142.33 427.63,-129 451.6,-113.29 478.06,-93.63 495.43,-80.38"/>
<polygon fill="#63b8ff" stroke="#63b8ff" points="497.82,-82.95 503.62,-74.09 493.56,-77.4 497.82,-82.95"/>
</a>
</g>
</g>
<!-- Node6 -->
<g id="Node000006" class="node">
<title>Node6</title>
<g id="a_Node000006"><a xlink:title=" ">
<polygon fill="#e0e0e0" stroke="#999999" points="449.63,-19 373.63,-19 373.63,0 449.63,0 449.63,-19"/>
<text text-anchor="middle" x="411.63" y="-7" font-family="Helvetica,sans-Serif" font-size="10.00">QJsonObject</text>
</a>
</g>
</g>
<!-- Node2&#45;&gt;Node6 -->
<g id="edge21_Node000002_Node000006" class="edge">
<title>Node2&#45;&gt;Node6</title>
<g id="a_edge21_Node000002_Node000006"><a xlink:title=" ">
<path fill="none" stroke="#63b8ff" d="M363.6,-164.7C373.64,-156.6 387.45,-143.67 394.63,-129 410.5,-96.6 412.66,-53.65 412.41,-29.36"/>
<polygon fill="#63b8ff" stroke="#63b8ff" points="415.9,-28.97 412.15,-19.06 408.91,-29.15 415.9,-28.97"/>
</a>
</g>
</g>
<!-- Node7 -->
<g id="Node000007" class="node">
<title>Node7</title>
<g id="a_Node000007"><a xlink:title=" ">
<polygon fill="#e0e0e0" stroke="#999999" points="194.13,-19 141.13,-19 141.13,0 194.13,0 194.13,-19"/>
<text text-anchor="middle" x="167.63" y="-7" font-family="Helvetica,sans-Serif" font-size="10.00">QString</text>
</a>
</g>
</g>
<!-- Node2&#45;&gt;Node7 -->
<g id="edge23_Node000002_Node000007" class="edge">
<title>Node2&#45;&gt;Node7</title>
<g id="a_edge23_Node000002_Node000007"><a xlink:title=" ">
<path fill="none" stroke="#63b8ff" d="M286.23,-164.96C194.59,-151.39 35.78,-121.49 5.63,-74 -24.47,-26.58 74.6,-14.55 131.1,-11.51"/>
<polygon fill="#63b8ff" stroke="#63b8ff" points="131.28,-15.01 141.11,-11.04 130.96,-8.01 131.28,-15.01"/>
</a>
</g>
</g>
<!-- Node8 -->
<g id="Node000008" class="node">
<title>Node8</title>
<g id="a_Node000008"><a xlink:title=" ">
<polygon fill="#e0e0e0" stroke="#999999" points="204.13,-74 133.13,-74 133.13,-55 204.13,-55 204.13,-74"/>
<text text-anchor="middle" x="168.63" y="-62" font-family="Helvetica,sans-Serif" font-size="10.00">QJsonArray</text>
</a>
</g>
</g>
<!-- Node2&#45;&gt;Node8 -->
<g id="edge20_Node000002_Node000008" class="edge">
<title>Node2&#45;&gt;Node8</title>
<g id="a_edge20_Node000002_Node000008"><a xlink:title=" ">
<path fill="none" stroke="#63b8ff" d="M336.96,-164.84C305.3,-146.16 230.3,-101.9 192.01,-79.3"/>
<polygon fill="#63b8ff" stroke="#63b8ff" points="193.5,-76.12 183.11,-74.05 189.95,-82.14 193.5,-76.12"/>
</a>
</g>
</g>
<!-- Node2&#45;&gt;Node11 -->
<g id="edge13_Node000002_Node000011" class="edge">
<title>Node2&#45;&gt;Node11</title>
<g id="a_edge13_Node000002_Node000011"><a xlink:title=" ">
<path fill="none" stroke="#63b8ff" d="M323.19,-164.98C293.35,-156.05 246.25,-141.94 213.1,-132.02"/>
<polygon fill="#63b8ff" stroke="#63b8ff" points="213.88,-128.6 203.29,-129.08 211.87,-135.3 213.88,-128.6"/>
</a>
</g>
</g>
<!-- Node2&#45;&gt;Node13 -->
<g id="edge22_Node000002_Node000013" class="edge">
<title>Node2&#45;&gt;Node13</title>
<g id="a_edge22_Node000002_Node000013"><a xlink:title=" ">
<path fill="none" stroke="#63b8ff" d="M379.59,-164.98C408.93,-156.05 455.23,-141.94 487.82,-132.02"/>
<polygon fill="#63b8ff" stroke="#63b8ff" points="488.91,-135.34 497.46,-129.08 486.87,-128.65 488.91,-135.34"/>
</a>
</g>
</g>
<!-- Node3&#45;&gt;Node4 -->
<g id="edge3_Node000003_Node000004" class="edge">
<title>Node3&#45;&gt;Node4</title>
<g id="a_edge3_Node000003_Node000004"><a xlink:title=" ">
<path fill="none" stroke="#63b8ff" d="M367.75,-109.98C397.26,-101.05 443.82,-86.94 476.6,-77.02"/>
<polygon fill="#63b8ff" stroke="#63b8ff" points="477.74,-80.33 486.29,-74.08 475.71,-73.63 477.74,-80.33"/>
</a>
</g>
</g>
<!-- Node3&#45;&gt;Node6 -->
<g id="edge8_Node000003_Node000006" class="edge">
<title>Node3&#45;&gt;Node6</title>
<g id="a_edge8_Node000003_Node000006"><a xlink:title=" ">
<path fill="none" stroke="#63b8ff" d="M348.38,-109.82C356.76,-101.21 369.47,-87.4 378.63,-74 388.59,-59.43 397.65,-41.48 403.75,-28.39"/>
<polygon fill="#63b8ff" stroke="#63b8ff" points="407.03,-29.64 407.97,-19.08 400.65,-26.75 407.03,-29.64"/>
</a>
</g>
</g>
<!-- Node3&#45;&gt;Node7 -->
<g id="edge11_Node000003_Node000007" class="edge">
<title>Node3&#45;&gt;Node7</title>
<g id="a_edge11_Node000003_Node000007"><a xlink:title=" ">
<path fill="none" stroke="#63b8ff" d="M343.74,-109.63C349.26,-96.27 357.01,-70.87 344.63,-55 327.56,-33.11 250.92,-20.33 204.26,-14.45"/>
<polygon fill="#63b8ff" stroke="#63b8ff" points="204.58,-10.97 194.23,-13.24 203.73,-17.92 204.58,-10.97"/>
</a>
</g>
</g>
<!-- Node3&#45;&gt;Node8 -->
<g id="edge7_Node000003_Node000008" class="edge">
<title>Node3&#45;&gt;Node8</title>
<g id="a_edge7_Node000003_Node000008"><a xlink:title=" ">
<path fill="none" stroke="#63b8ff" d="M312.16,-109.98C283.45,-101.09 238.21,-87.07 206.21,-77.15"/>
<polygon fill="#63b8ff" stroke="#63b8ff" points="206.91,-73.7 196.32,-74.08 204.84,-80.39 206.91,-73.7"/>
</a>
</g>
</g>
<!-- Node9 -->
<g id="Node000009" class="node">
<title>Node9</title>
<g id="a_Node000009"><a xlink:title=" ">
<polygon fill="#e0e0e0" stroke="#999999" points="336.13,-74 295.13,-74 295.13,-55 336.13,-55 336.13,-74"/>
<text text-anchor="middle" x="315.63" y="-62" font-family="Helvetica,sans-Serif" font-size="10.00">QList</text>
</a>
</g>
</g>
<!-- Node3&#45;&gt;Node9 -->
<g id="edge9_Node000003_Node000009" class="edge">
<title>Node3&#45;&gt;Node9</title>
<g id="a_edge9_Node000003_Node000009"><a xlink:title=" ">
<path fill="none" stroke="#63b8ff" d="M335.67,-109.75C332.42,-102.57 327.71,-92.18 323.68,-83.27"/>
<polygon fill="#63b8ff" stroke="#63b8ff" points="326.83,-81.75 319.52,-74.09 320.46,-84.64 326.83,-81.75"/>
</a>
</g>
</g>
<!-- Node10 -->
<g id="Node000010" class="node">
<title>Node10</title>
<g id="a_Node000010"><a xlink:title=" ">
<polygon fill="#e0e0e0" stroke="#999999" points="277.13,-74 222.13,-74 222.13,-55 277.13,-55 277.13,-74"/>
<text text-anchor="middle" x="249.63" y="-62" font-family="Helvetica,sans-Serif" font-size="10.00">QPointF</text>
</a>
</g>
</g>
<!-- Node3&#45;&gt;Node10 -->
<g id="edge10_Node000003_Node000010" class="edge">
<title>Node3&#45;&gt;Node10</title>
<g id="a_edge10_Node000003_Node000010"><a xlink:title=" ">
<path fill="none" stroke="#63b8ff" d="M325.17,-109.98C311.21,-101.77 289.84,-89.18 273.38,-79.49"/>
<polygon fill="#63b8ff" stroke="#63b8ff" points="274.75,-76.23 264.35,-74.17 271.19,-82.26 274.75,-76.23"/>
</a>
</g>
</g>
<!-- Node5 -->
<g id="Node000005" class="node">
<title>Node5</title>
<g id="a_Node000005"><a xlink:title=" ">
<polygon fill="#e0e0e0" stroke="#999999" points="551.13,-19 478.13,-19 478.13,0 551.13,0 551.13,-19"/>
<text text-anchor="middle" x="514.63" y="-7" font-family="Helvetica,sans-Serif" font-size="10.00">QByteArray</text>
</a>
</g>
</g>
<!-- Node4&#45;&gt;Node5 -->
<g id="edge4_Node000004_Node000005" class="edge">
<title>Node4&#45;&gt;Node5</title>
<g id="a_edge4_Node000004_Node000005"><a xlink:title=" ">
<path fill="none" stroke="#63b8ff" d="M514.63,-54.75C514.63,-47.8 514.63,-37.85 514.63,-29.13"/>
<polygon fill="#63b8ff" stroke="#63b8ff" points="518.13,-29.09 514.63,-19.09 511.13,-29.09 518.13,-29.09"/>
</a>
</g>
</g>
<!-- Node4&#45;&gt;Node6 -->
<g id="edge5_Node000004_Node000006" class="edge">
<title>Node4&#45;&gt;Node6</title>
<g id="a_edge5_Node000004_Node000006"><a xlink:title=" ">
<path fill="none" stroke="#63b8ff" d="M498.08,-54.98C481.74,-46.57 456.5,-33.59 437.5,-23.81"/>
<polygon fill="#63b8ff" stroke="#63b8ff" points="438.97,-20.63 428.48,-19.17 435.77,-26.86 438.97,-20.63"/>
</a>
</g>
</g>
<!-- Node4&#45;&gt;Node7 -->
<g id="edge6_Node000004_Node000007" class="edge">
<title>Node4&#45;&gt;Node7</title>
<g id="a_edge6_Node000004_Node000007"><a xlink:title=" ">
<path fill="none" stroke="#63b8ff" d="M468.55,-56.46C398.87,-45.82 268.08,-25.84 204.38,-16.11"/>
<polygon fill="#63b8ff" stroke="#63b8ff" points="204.8,-12.64 194.39,-14.59 203.74,-19.56 204.8,-12.64"/>
</a>
</g>
</g>
<!-- Node11&#45;&gt;Node6 -->
<g id="edge15_Node000011_Node000006" class="edge">
<title>Node11&#45;&gt;Node6</title>
<g id="a_edge15_Node000011_Node000006"><a xlink:title=" ">
<path fill="none" stroke="#63b8ff" d="M159.09,-109.94C138.66,-97.6 107.16,-74.21 123.63,-55 153.88,-19.72 289.03,-12.16 362.95,-10.7"/>
<polygon fill="#63b8ff" stroke="#63b8ff" points="363.45,-14.19 373.39,-10.53 363.33,-7.19 363.45,-14.19"/>
</a>
</g>
</g>
<!-- Node11&#45;&gt;Node7 -->
<g id="edge19_Node000011_Node000007" class="edge">
<title>Node11&#45;&gt;Node7</title>
<g id="a_edge19_Node000011_Node000007"><a xlink:title=" ">
<path fill="none" stroke="#63b8ff" d="M131.35,-112.32C89.24,-105.33 29.62,-92.44 15.63,-74 -16.19,-32.04 76.4,-17.59 130.89,-12.78"/>
<polygon fill="#63b8ff" stroke="#63b8ff" points="131.23,-16.27 140.91,-11.97 130.66,-9.29 131.23,-16.27"/>
</a>
</g>
</g>
<!-- Node11&#45;&gt;Node8 -->
<g id="edge14_Node000011_Node000008" class="edge">
<title>Node11&#45;&gt;Node8</title>
<g id="a_edge14_Node000011_Node000008"><a xlink:title=" ">
<path fill="none" stroke="#63b8ff" d="M173.64,-109.75C172.85,-102.8 171.73,-92.85 170.74,-84.13"/>
<polygon fill="#63b8ff" stroke="#63b8ff" points="174.21,-83.63 169.6,-74.09 167.25,-84.42 174.21,-83.63"/>
</a>
</g>
</g>
<!-- Node11&#45;&gt;Node9 -->
<g id="edge16_Node000011_Node000009" class="edge">
<title>Node11&#45;&gt;Node9</title>
<g id="a_edge16_Node000011_Node000009"><a xlink:title=" ">
<path fill="none" stroke="#63b8ff" d="M197.29,-109.98C221.17,-101.01 258.92,-86.82 285.35,-76.88"/>
<polygon fill="#63b8ff" stroke="#63b8ff" points="286.74,-80.1 294.87,-73.3 284.28,-73.55 286.74,-80.1"/>
</a>
</g>
</g>
<!-- Node11&#45;&gt;Node10 -->
<g id="edge17_Node000011_Node000010" class="edge">
<title>Node11&#45;&gt;Node10</title>
<g id="a_edge17_Node000011_Node000010"><a xlink:title=" ">
<path fill="none" stroke="#63b8ff" d="M186.68,-109.98C198.09,-101.92 215.46,-89.65 229.07,-80.03"/>
<polygon fill="#63b8ff" stroke="#63b8ff" points="231.21,-82.8 237.36,-74.17 227.18,-77.08 231.21,-82.8"/>
</a>
</g>
</g>
<!-- Node12 -->
<g id="Node000012" class="node">
<title>Node12</title>
<g id="a_Node000012"><a xlink:title=" ">
<polygon fill="#e0e0e0" stroke="#999999" points="76.63,-74 24.63,-74 24.63,-55 76.63,-55 76.63,-74"/>
<text text-anchor="middle" x="50.63" y="-62" font-family="Helvetica,sans-Serif" font-size="10.00">QRectF</text>
</a>
</g>
</g>
<!-- Node11&#45;&gt;Node12 -->
<g id="edge18_Node000011_Node000012" class="edge">
<title>Node11&#45;&gt;Node12</title>
<g id="a_edge18_Node000011_Node000012"><a xlink:title=" ">
<path fill="none" stroke="#63b8ff" d="M154.71,-109.98C134.58,-101.38 103.25,-87.99 80.22,-78.15"/>
<polygon fill="#63b8ff" stroke="#63b8ff" points="81.49,-74.88 70.92,-74.17 78.74,-81.32 81.49,-74.88"/>
</a>
</g>
</g>
</g>
</svg>
