<?xml version="1.0" encoding="UTF-8" standalone="no"?>
<!DOCTYPE svg PUBLIC "-//W3C//DTD SVG 1.1//EN"
 "http://www.w3.org/Graphics/SVG/1.1/DTD/svg11.dtd">
<!-- Generated by graphviz version 2.43.0 (0)
 -->
<!-- Title: services/ExportService.h Pages: 1 -->
<svg width="906pt" height="225pt"
 viewBox="0.00 0.00 906.00 225.00" xmlns="http://www.w3.org/2000/svg" xmlns:xlink="http://www.w3.org/1999/xlink">
<g id="graph0" class="graph" transform="scale(1 1) rotate(0) translate(4 221)">
<title>services/ExportService.h</title>
<!-- Node1 -->
<g id="Node000001" class="node">
<title>Node1</title>
<g id="a_Node000001"><a xlink:title=" ">
<polygon fill="#999999" stroke="#666666" points="441.5,-217 304.5,-217 304.5,-198 441.5,-198 441.5,-217"/>
<text text-anchor="middle" x="373" y="-205" font-family="Helvetica,sans-Serif" font-size="10.00">services/ExportService.h</text>
</a>
</g>
</g>
<!-- Node2 -->
<g id="Node000002" class="node">
<title>Node2</title>
<g id="a_Node000002"><a xlink:href="ComponentExportTask_8h.html" target="_top" xlink:title=" ">
<polygon fill="white" stroke="#666666" points="314,-162 166,-162 166,-132 314,-132 314,-162"/>
<text text-anchor="start" x="174" y="-150" font-family="Helvetica,sans-Serif" font-size="10.00">services/ComponentExport</text>
<text text-anchor="middle" x="240" y="-139" font-family="Helvetica,sans-Serif" font-size="10.00">Task.h</text>
</a>
</g>
</g>
<!-- Node1&#45;&gt;Node2 -->
<g id="edge1_Node000001_Node000002" class="edge">
<title>Node1&#45;&gt;Node2</title>
<g id="a_edge1_Node000001_Node000002"><a xlink:title=" ">
<path fill="none" stroke="#63b8ff" d="M344.48,-193.95C323.18,-184.59 294.06,-171.78 271.98,-162.06"/>
<polygon fill="#63b8ff" stroke="#63b8ff" points="343.1,-197.17 353.66,-197.99 345.92,-190.76 343.1,-197.17"/>
</a>
</g>
</g>
<!-- Node4 -->
<g id="Node000004" class="node">
<title>Node4</title>
<g id="a_Node000004"><a xlink:href="ExportService_8cpp.html" target="_top" xlink:title=" ">
<polygon fill="white" stroke="#666666" points="314,-90.5 166,-90.5 166,-71.5 314,-71.5 314,-90.5"/>
<text text-anchor="middle" x="240" y="-78.5" font-family="Helvetica,sans-Serif" font-size="10.00">services/ExportService.cpp</text>
</a>
</g>
</g>
<!-- Node1&#45;&gt;Node4 -->
<g id="edge4_Node000001_Node000004" class="edge">
<title>Node1&#45;&gt;Node4</title>
<g id="a_edge4_Node000001_Node000004"><a xlink:title=" ">
<path fill="none" stroke="#63b8ff" d="M364.07,-188.85C355.26,-172.66 340.56,-148.72 323,-132 304,-113.9 277.33,-99.29 259.4,-90.64"/>
<polygon fill="#63b8ff" stroke="#63b8ff" points="361.03,-190.58 368.78,-197.8 367.22,-187.32 361.03,-190.58"/>
</a>
</g>
</g>
<!-- Node5 -->
<g id="Node000005" class="node">
<title>Node5</title>
<g id="a_Node000005"><a xlink:href="ExportService__Pipeline_8h.html" target="_top" xlink:title=" ">
<polygon fill="white" stroke="#666666" points="607,-162 479,-162 479,-132 607,-132 607,-162"/>
<text text-anchor="start" x="487" y="-150" font-family="Helvetica,sans-Serif" font-size="10.00">services/ExportService</text>
<text text-anchor="middle" x="543" y="-139" font-family="Helvetica,sans-Serif" font-size="10.00">_Pipeline.h</text>
</a>
</g>
</g>
<!-- Node1&#45;&gt;Node5 -->
<g id="edge5_Node000001_Node000005" class="edge">
<title>Node1&#45;&gt;Node5</title>
<g id="a_edge5_Node000001_Node000005"><a xlink:title=" ">
<path fill="none" stroke="#63b8ff" d="M407.27,-194.71C434.66,-185.28 473.14,-172.04 502.13,-162.06"/>
<polygon fill="#63b8ff" stroke="#63b8ff" points="406.04,-191.43 397.72,-197.99 408.31,-198.05 406.04,-191.43"/>
</a>
</g>
</g>
<!-- Node9 -->
<g id="Node000009" class="node">
<title>Node9</title>
<g id="a_Node000009"><a xlink:href="ExportProgressViewModel_8h.html" target="_top" xlink:title=" ">
<polygon fill="white" stroke="#666666" points="496,-96 332,-96 332,-66 496,-66 496,-96"/>
<text text-anchor="start" x="340" y="-84" font-family="Helvetica,sans-Serif" font-size="10.00">ui/viewmodels/ExportProgress</text>
<text text-anchor="middle" x="414" y="-73" font-family="Helvetica,sans-Serif" font-size="10.00">ViewModel.h</text>
</a>
</g>
</g>
<!-- Node1&#45;&gt;Node9 -->
<g id="edge13_Node000001_Node000009" class="edge">
<title>Node1&#45;&gt;Node9</title>
<g id="a_edge13_Node000001_Node000009"><a xlink:title=" ">
<path fill="none" stroke="#63b8ff" d="M379.01,-188.24C387.25,-163.23 401.87,-118.82 409.34,-96.16"/>
<polygon fill="#63b8ff" stroke="#63b8ff" points="375.62,-187.35 375.82,-197.94 382.27,-189.54 375.62,-187.35"/>
</a>
</g>
</g>
<!-- Node3 -->
<g id="Node000003" class="node">
<title>Node3</title>
<g id="a_Node000003"><a xlink:href="ComponentExportTask_8cpp.html" target="_top" xlink:title=" ">
<polygon fill="white" stroke="#666666" points="148,-96 0,-96 0,-66 148,-66 148,-96"/>
<text text-anchor="start" x="8" y="-84" font-family="Helvetica,sans-Serif" font-size="10.00">services/ComponentExport</text>
<text text-anchor="middle" x="74" y="-73" font-family="Helvetica,sans-Serif" font-size="10.00">Task.cpp</text>
</a>
</g>
</g>
<!-- Node2&#45;&gt;Node3 -->
<g id="edge2_Node000002_Node000003" class="edge">
<title>Node2&#45;&gt;Node3</title>
<g id="a_edge2_Node000002_Node000003"><a xlink:title=" ">
<path fill="none" stroke="#63b8ff" d="M194.15,-128.32C167.73,-118.14 134.98,-105.51 110.34,-96.01"/>
<polygon fill="#63b8ff" stroke="#63b8ff" points="192.98,-131.62 203.57,-131.95 195.5,-125.09 192.98,-131.62"/>
</a>
</g>
</g>
<!-- Node2&#45;&gt;Node4 -->
<g id="edge3_Node000002_Node000004" class="edge">
<title>Node2&#45;&gt;Node4</title>
<g id="a_edge3_Node000002_Node000004"><a xlink:title=" ">
<path fill="none" stroke="#63b8ff" d="M240,-121.6C240,-110.8 240,-98.78 240,-90.84"/>
<polygon fill="#63b8ff" stroke="#63b8ff" points="236.5,-121.8 240,-131.8 243.5,-121.8 236.5,-121.8"/>
</a>
</g>
</g>
<!-- Node6 -->
<g id="Node000006" class="node">
<title>Node6</title>
<g id="a_Node000006"><a xlink:href="main_8cpp.html" target="_top" xlink:title=" ">
<polygon fill="white" stroke="#666666" points="588,-24.5 526,-24.5 526,-5.5 588,-5.5 588,-24.5"/>
<text text-anchor="middle" x="557" y="-12.5" font-family="Helvetica,sans-Serif" font-size="10.00">main.cpp</text>
</a>
</g>
</g>
<!-- Node5&#45;&gt;Node6 -->
<g id="edge6_Node000005_Node000006" class="edge">
<title>Node5&#45;&gt;Node6</title>
<g id="a_edge6_Node000005_Node000006"><a xlink:title=" ">
<path fill="none" stroke="#63b8ff" d="M545.63,-121.57C548.8,-92.17 553.95,-44.31 556.06,-24.75"/>
<polygon fill="#63b8ff" stroke="#63b8ff" points="542.12,-121.52 544.52,-131.84 549.08,-122.27 542.12,-121.52"/>
</a>
</g>
</g>
<!-- Node7 -->
<g id="Node000007" class="node">
<title>Node7</title>
<g id="a_Node000007"><a xlink:href="ExportService__Pipeline_8cpp.html" target="_top" xlink:title=" ">
<polygon fill="white" stroke="#666666" points="718,-96 590,-96 590,-66 718,-66 718,-96"/>
<text text-anchor="start" x="598" y="-84" font-family="Helvetica,sans-Serif" font-size="10.00">services/ExportService</text>
<text text-anchor="middle" x="654" y="-73" font-family="Helvetica,sans-Serif" font-size="10.00">_Pipeline.cpp</text>
</a>
</g>
</g>
<!-- Node5&#45;&gt;Node7 -->
<g id="edge7_Node000005_Node000007" class="edge">
<title>Node5&#45;&gt;Node7</title>
<g id="a_edge7_Node000005_Node000007"><a xlink:title=" ">
<path fill="none" stroke="#63b8ff" d="M576.48,-126.69C593.62,-116.82 614.09,-105.01 629.7,-96.01"/>
<polygon fill="#63b8ff" stroke="#63b8ff" points="574.27,-123.93 567.36,-131.95 577.77,-129.99 574.27,-123.93"/>
</a>
</g>
</g>
<!-- Node8 -->
<g id="Node000008" class="node">
<title>Node8</title>
<g id="a_Node000008"><a xlink:href="ExportProgressViewModel_8cpp.html" target="_top" xlink:title=" ">
<polygon fill="white" stroke="#666666" points="504,-30 340,-30 340,0 504,0 504,-30"/>
<text text-anchor="start" x="348" y="-18" font-family="Helvetica,sans-Serif" font-size="10.00">ui/viewmodels/ExportProgress</text>
<text text-anchor="middle" x="422" y="-7" font-family="Helvetica,sans-Serif" font-size="10.00">ViewModel.cpp</text>
</a>
</g>
</g>
<!-- Node5&#45;&gt;Node8 -->
<g id="edge8_Node000005_Node000008" class="edge">
<title>Node5&#45;&gt;Node8</title>
<g id="a_edge8_Node000005_Node000008"><a xlink:title=" ">
<path fill="none" stroke="#63b8ff" d="M535.77,-122.02C529.69,-104.9 519.62,-82.14 505,-66 491.11,-50.66 471.41,-38.52 454.68,-30.05"/>
<polygon fill="#63b8ff" stroke="#63b8ff" points="532.57,-123.47 539.05,-131.84 539.21,-121.25 532.57,-123.47"/>
</a>
</g>
</g>
<!-- Node5&#45;&gt;Node9 -->
<g id="edge9_Node000005_Node000009" class="edge">
<title>Node5&#45;&gt;Node9</title>
<g id="a_edge9_Node000005_Node000009"><a xlink:title=" ">
<path fill="none" stroke="#63b8ff" d="M505.46,-127.38C485.28,-117.36 460.8,-105.22 442.24,-96.01"/>
<polygon fill="#63b8ff" stroke="#63b8ff" points="504.18,-130.65 514.69,-131.95 507.29,-124.38 504.18,-130.65"/>
</a>
</g>
</g>
<!-- Node10 -->
<g id="Node000010" class="node">
<title>Node10</title>
<g id="a_Node000010"><a xlink:href="ExportSettingsViewModel_8cpp.html" target="_top" xlink:title=" ">
<polygon fill="white" stroke="#666666" points="898,-96 736,-96 736,-66 898,-66 898,-96"/>
<text text-anchor="start" x="744" y="-84" font-family="Helvetica,sans-Serif" font-size="10.00">ui/viewmodels/ExportSettings</text>
<text text-anchor="middle" x="817" y="-73" font-family="Helvetica,sans-Serif" font-size="10.00">ViewModel.cpp</text>
</a>
</g>
</g>
<!-- Node5&#45;&gt;Node10 -->
<g id="edge12_Node000005_Node000010" class="edge">
<title>Node5&#45;&gt;Node10</title>
<g id="a_edge12_Node000005_Node000010"><a xlink:title=" ">
<path fill="none" stroke="#63b8ff" d="M613.01,-129.65C657.53,-119.25 714.57,-105.93 757.01,-96.01"/>
<polygon fill="#63b8ff" stroke="#63b8ff" points="612.07,-126.27 603.13,-131.95 613.66,-133.09 612.07,-126.27"/>
</a>
</g>
</g>
<!-- Node9&#45;&gt;Node6 -->
<g id="edge10_Node000009_Node000006" class="edge">
<title>Node9&#45;&gt;Node6</title>
<g id="a_edge10_Node000009_Node000006"><a xlink:title=" ">
<path fill="none" stroke="#63b8ff" d="M454.71,-61.78C482.05,-49.54 516.82,-33.98 537.97,-24.52"/>
<polygon fill="#63b8ff" stroke="#63b8ff" points="453.08,-58.68 445.38,-65.95 455.94,-65.06 453.08,-58.68"/>
</a>
</g>
</g>
<!-- Node9&#45;&gt;Node8 -->
<g id="edge11_Node000009_Node000008" class="edge">
<title>Node9&#45;&gt;Node8</title>
<g id="a_edge11_Node000009_Node000008"><a xlink:title=" ">
<path fill="none" stroke="#63b8ff" d="M417.02,-55.83C418.1,-47.17 419.29,-37.7 420.23,-30.16"/>
<polygon fill="#63b8ff" stroke="#63b8ff" points="413.54,-55.44 415.78,-65.8 420.49,-56.31 413.54,-55.44"/>
</a>
</g>
</g>
</g>
</svg>
