<?xml version="1.0" encoding="UTF-8" standalone="no"?>
<!DOCTYPE svg PUBLIC "-//W3C//DTD SVG 1.1//EN"
 "http://www.w3.org/Graphics/SVG/1.1/DTD/svg11.dtd">
<!-- Generated by graphviz version 2.43.0 (0)
 -->
<!-- Title: core/kicad/Exporter3DModel.h Pages: 1 -->
<svg width="898pt" height="148pt"
 viewBox="0.00 0.00 897.50 148.00" xmlns="http://www.w3.org/2000/svg" xmlns:xlink="http://www.w3.org/1999/xlink">
<g id="graph0" class="graph" transform="scale(1 1) rotate(0) translate(4 144)">
<title>core/kicad/Exporter3DModel.h</title>
<!-- Node1 -->
<g id="Node000001" class="node">
<title>Node1</title>
<g id="a_Node000001"><a xlink:title=" ">
<polygon fill="#999999" stroke="#666666" points="610.5,-140 446.5,-140 446.5,-121 610.5,-121 610.5,-140"/>
<text text-anchor="middle" x="528.5" y="-128" font-family="Helvetica,sans-Serif" font-size="10.00">core/kicad/Exporter3DModel.h</text>
</a>
</g>
</g>
<!-- Node2 -->
<g id="Node000002" class="node">
<title>Node2</title>
<g id="a_Node000002"><a xlink:href="Exporter3DModel_8cpp.html" target="_top" xlink:title=" ">
<polygon fill="white" stroke="#666666" points="175,-79.5 0,-79.5 0,-60.5 175,-60.5 175,-79.5"/>
<text text-anchor="middle" x="87.5" y="-67.5" font-family="Helvetica,sans-Serif" font-size="10.00">core/kicad/Exporter3DModel.cpp</text>
</a>
</g>
</g>
<!-- Node1&#45;&gt;Node2 -->
<g id="edge1_Node000001_Node000002" class="edge">
<title>Node1&#45;&gt;Node2</title>
<g id="a_edge1_Node000001_Node000002"><a xlink:title=" ">
<path fill="none" stroke="#63b8ff" d="M450.22,-119.71C380.47,-110.9 275.63,-97.47 184.5,-85 171.86,-83.27 158.3,-81.35 145.44,-79.5"/>
<polygon fill="#63b8ff" stroke="#63b8ff" points="449.9,-123.19 460.25,-120.97 450.77,-116.25 449.9,-123.19"/>
</a>
</g>
</g>
<!-- Node3 -->
<g id="Node000003" class="node">
<title>Node3</title>
<g id="a_Node000003"><a xlink:href="FootprintExportStage_8cpp.html" target="_top" xlink:title=" ">
<polygon fill="white" stroke="#666666" points="331.5,-85 193.5,-85 193.5,-55 331.5,-55 331.5,-85"/>
<text text-anchor="start" x="201.5" y="-73" font-family="Helvetica,sans-Serif" font-size="10.00">services/export/Footprint</text>
<text text-anchor="middle" x="262.5" y="-62" font-family="Helvetica,sans-Serif" font-size="10.00">ExportStage.cpp</text>
</a>
</g>
</g>
<!-- Node1&#45;&gt;Node3 -->
<g id="edge2_Node000001_Node000003" class="edge">
<title>Node1&#45;&gt;Node3</title>
<g id="a_edge2_Node000001_Node000003"><a xlink:title=" ">
<path fill="none" stroke="#63b8ff" d="M479.85,-118.8C436.7,-109.31 373.37,-95.38 326.19,-85.01"/>
<polygon fill="#63b8ff" stroke="#63b8ff" points="479.3,-122.26 489.82,-120.99 480.81,-115.43 479.3,-122.26"/>
</a>
</g>
</g>
<!-- Node4 -->
<g id="Node000004" class="node">
<title>Node4</title>
<g id="a_Node000004"><a xlink:href="Model3DExportStage_8cpp.html" target="_top" xlink:title=" ">
<polygon fill="white" stroke="#666666" points="519.5,-85 349.5,-85 349.5,-55 519.5,-55 519.5,-85"/>
<text text-anchor="start" x="357.5" y="-73" font-family="Helvetica,sans-Serif" font-size="10.00">services/export/Model3DExport</text>
<text text-anchor="middle" x="434.5" y="-62" font-family="Helvetica,sans-Serif" font-size="10.00">Stage.cpp</text>
</a>
</g>
</g>
<!-- Node1&#45;&gt;Node4 -->
<g id="edge3_Node000001_Node000004" class="edge">
<title>Node1&#45;&gt;Node4</title>
<g id="a_edge3_Node000001_Node000004"><a xlink:title=" ">
<path fill="none" stroke="#63b8ff" d="M506.09,-115.55C491.31,-106.36 472.01,-94.35 457.18,-85.11"/>
<polygon fill="#63b8ff" stroke="#63b8ff" points="504.29,-118.56 514.63,-120.87 507.99,-112.61 504.29,-118.56"/>
</a>
</g>
</g>
<!-- Node5 -->
<g id="Node000005" class="node">
<title>Node5</title>
<g id="a_Node000005"><a xlink:href="Model3DExportWorker_8cpp.html" target="_top" xlink:title=" ">
<polygon fill="white" stroke="#666666" points="707.5,-85 537.5,-85 537.5,-55 707.5,-55 707.5,-85"/>
<text text-anchor="start" x="545.5" y="-73" font-family="Helvetica,sans-Serif" font-size="10.00">services/export/Model3DExport</text>
<text text-anchor="middle" x="622.5" y="-62" font-family="Helvetica,sans-Serif" font-size="10.00">Worker.cpp</text>
</a>
</g>
</g>
<!-- Node1&#45;&gt;Node5 -->
<g id="edge4_Node000001_Node000005" class="edge">
<title>Node1&#45;&gt;Node5</title>
<g id="a_edge4_Node000001_Node000005"><a xlink:title=" ">
<path fill="none" stroke="#63b8ff" d="M550.91,-115.55C565.69,-106.36 584.99,-94.35 599.82,-85.11"/>
<polygon fill="#63b8ff" stroke="#63b8ff" points="549.01,-112.61 542.37,-120.87 552.71,-118.56 549.01,-112.61"/>
</a>
</g>
</g>
<!-- Node6 -->
<g id="Node000006" class="node">
<title>Node6</title>
<g id="a_Node000006"><a xlink:href="WriteWorker_8cpp.html" target="_top" xlink:title=" ">
<polygon fill="white" stroke="#666666" points="849,-19 712,-19 712,0 849,0 849,-19"/>
<text text-anchor="middle" x="780.5" y="-7" font-family="Helvetica,sans-Serif" font-size="10.00">workers/WriteWorker.cpp</text>
</a>
</g>
</g>
<!-- Node1&#45;&gt;Node6 -->
<g id="edge5_Node000001_Node000006" class="edge">
<title>Node1&#45;&gt;Node6</title>
<g id="a_edge5_Node000001_Node000006"><a xlink:title=" ">
<path fill="none" stroke="#63b8ff" d="M620.36,-119.61C652.48,-113.17 687.68,-102.54 716.5,-85 744.32,-68.07 766.25,-34.93 775.6,-19.19"/>
<polygon fill="#63b8ff" stroke="#63b8ff" points="619.68,-116.17 610.51,-121.47 620.98,-123.05 619.68,-116.17"/>
</a>
</g>
</g>
<!-- Node7 -->
<g id="Node000007" class="node">
<title>Node7</title>
<g id="a_Node000007"><a xlink:href="WriteWorker_8h.html" target="_top" xlink:title=" ">
<polygon fill="white" stroke="#666666" points="889.5,-79.5 763.5,-79.5 763.5,-60.5 889.5,-60.5 889.5,-79.5"/>
<text text-anchor="middle" x="826.5" y="-67.5" font-family="Helvetica,sans-Serif" font-size="10.00">workers/WriteWorker.h</text>
</a>
</g>
</g>
<!-- Node1&#45;&gt;Node7 -->
<g id="edge6_Node000001_Node000007" class="edge">
<title>Node1&#45;&gt;Node7</title>
<g id="a_edge6_Node000001_Node000007"><a xlink:title=" ">
<path fill="none" stroke="#63b8ff" d="M581.82,-119.03C639.33,-107.74 729.79,-89.98 783.12,-79.52"/>
<polygon fill="#63b8ff" stroke="#63b8ff" points="580.97,-115.63 571.83,-120.99 582.32,-122.5 580.97,-115.63"/>
</a>
</g>
</g>
<!-- Node7&#45;&gt;Node6 -->
<g id="edge7_Node000007_Node000006" class="edge">
<title>Node7&#45;&gt;Node6</title>
<g id="a_edge7_Node000007_Node000006"><a xlink:title=" ">
<path fill="none" stroke="#63b8ff" d="M813.49,-52.45C804.97,-41.62 794.19,-27.91 787.32,-19.17"/>
<polygon fill="#63b8ff" stroke="#63b8ff" points="810.78,-54.67 819.71,-60.37 816.28,-50.34 810.78,-54.67"/>
</a>
</g>
</g>
</g>
</svg>
