<?xml version="1.0" encoding="UTF-8" standalone="no"?>
<!DOCTYPE svg PUBLIC "-//W3C//DTD SVG 1.1//EN"
 "http://www.w3.org/Graphics/SVG/1.1/DTD/svg11.dtd">
<!-- Generated by graphviz version 2.43.0 (0)
 -->
<!-- Title: services/ExportService.cpp Pages: 1 -->
<svg width="1644pt" height="357pt"
 viewBox="0.00 0.00 1644.00 357.00" xmlns="http://www.w3.org/2000/svg" xmlns:xlink="http://www.w3.org/1999/xlink">
<g id="graph0" class="graph" transform="scale(1 1) rotate(0) translate(4 353)">
<title>services/ExportService.cpp</title>
<!-- Node1 -->
<g id="Node000001" class="node">
<title>Node1</title>
<g id="a_Node000001"><a xlink:title=" ">
<polygon fill="#999999" stroke="#666666" points="1306,-349 1158,-349 1158,-330 1306,-330 1306,-349"/>
<text text-anchor="middle" x="1232" y="-337" font-family="Helvetica,sans-Serif" font-size="10.00">services/ExportService.cpp</text>
</a>
</g>
</g>
<!-- Node2 -->
<g id="Node000002" class="node">
<title>Node2</title>
<g id="a_Node000002"><a xlink:href="ExportService_8h.html" target="_top" xlink:title=" ">
<polygon fill="white" stroke="#666666" points="602.5,-239 509.5,-239 509.5,-220 602.5,-220 602.5,-239"/>
<text text-anchor="middle" x="556" y="-227" font-family="Helvetica,sans-Serif" font-size="10.00">ExportService.h</text>
</a>
</g>
</g>
<!-- Node1&#45;&gt;Node2 -->
<g id="edge1_Node000001_Node000002" class="edge">
<title>Node1&#45;&gt;Node2</title>
<g id="a_edge1_Node000001_Node000002"><a xlink:title=" ">
<path fill="none" stroke="#63b8ff" d="M1157.86,-337.65C1059.96,-335.22 882.69,-326.27 735,-294 680.32,-282.05 619.45,-258.03 584.65,-243.2"/>
<polygon fill="#63b8ff" stroke="#63b8ff" points="585.7,-239.84 575.13,-239.1 582.93,-246.27 585.7,-239.84"/>
</a>
</g>
</g>
<!-- Node20 -->
<g id="Node000020" class="node">
<title>Node20</title>
<g id="a_Node000020"><a xlink:href="ComponentExportTask_8h.html" target="_top" xlink:title=" ">
<polygon fill="white" stroke="#666666" points="878.5,-294 743.5,-294 743.5,-275 878.5,-275 878.5,-294"/>
<text text-anchor="middle" x="811" y="-282" font-family="Helvetica,sans-Serif" font-size="10.00">ComponentExportTask.h</text>
</a>
</g>
</g>
<!-- Node1&#45;&gt;Node20 -->
<g id="edge34_Node000001_Node000020" class="edge">
<title>Node1&#45;&gt;Node20</title>
<g id="a_edge34_Node000001_Node000020"><a xlink:title=" ">
<path fill="none" stroke="#63b8ff" d="M1164.36,-329.98C1089.28,-320.53 968.3,-305.3 889.21,-295.35"/>
<polygon fill="#63b8ff" stroke="#63b8ff" points="889.18,-291.81 878.82,-294.04 888.31,-298.76 889.18,-291.81"/>
</a>
</g>
</g>
<!-- Node22 -->
<g id="Node000022" class="node">
<title>Node22</title>
<g id="a_Node000022"><a xlink:href="Exporter3DModel_8h.html" target="_top" xlink:title=" ">
<polygon fill="white" stroke="#666666" points="164,-239 0,-239 0,-220 164,-220 164,-239"/>
<text text-anchor="middle" x="82" y="-227" font-family="Helvetica,sans-Serif" font-size="10.00">core/kicad/Exporter3DModel.h</text>
</a>
</g>
</g>
<!-- Node1&#45;&gt;Node22 -->
<g id="edge39_Node000001_Node000022" class="edge">
<title>Node1&#45;&gt;Node22</title>
<g id="a_edge39_Node000001_Node000022"><a xlink:title=" ">
<path fill="none" stroke="#63b8ff" d="M1157.64,-333.38C1049.23,-325.76 841.47,-310.53 665,-294 485.91,-277.22 276.35,-253.36 163.67,-240.18"/>
<polygon fill="#63b8ff" stroke="#63b8ff" points="164.07,-236.7 153.73,-239.02 163.26,-243.66 164.07,-236.7"/>
</a>
</g>
</g>
<!-- Node23 -->
<g id="Node000023" class="node">
<title>Node23</title>
<g id="a_Node000023"><a xlink:href="ExporterFootprint_8h.html" target="_top" xlink:title=" ">
<polygon fill="white" stroke="#666666" points="1094,-239 930,-239 930,-220 1094,-220 1094,-239"/>
<text text-anchor="middle" x="1012" y="-227" font-family="Helvetica,sans-Serif" font-size="10.00">core/kicad/ExporterFootprint.h</text>
</a>
</g>
</g>
<!-- Node1&#45;&gt;Node23 -->
<g id="edge44_Node000001_Node000023" class="edge">
<title>Node1&#45;&gt;Node23</title>
<g id="a_edge44_Node000001_Node000023"><a xlink:title=" ">
<path fill="none" stroke="#63b8ff" d="M1214.37,-329.84C1175.9,-310.96 1084.22,-265.96 1038.66,-243.59"/>
<polygon fill="#63b8ff" stroke="#63b8ff" points="1039.93,-240.31 1029.41,-239.05 1036.84,-246.6 1039.93,-240.31"/>
</a>
</g>
</g>
<!-- Node26 -->
<g id="Node000026" class="node">
<title>Node26</title>
<g id="a_Node000026"><a xlink:href="ExporterSymbol_8h.html" target="_top" xlink:title=" ">
<polygon fill="white" stroke="#666666" points="1362.5,-239 1205.5,-239 1205.5,-220 1362.5,-220 1362.5,-239"/>
<text text-anchor="middle" x="1284" y="-227" font-family="Helvetica,sans-Serif" font-size="10.00">core/kicad/ExporterSymbol.h</text>
</a>
</g>
</g>
<!-- Node1&#45;&gt;Node26 -->
<g id="edge54_Node000001_Node000026" class="edge">
<title>Node1&#45;&gt;Node26</title>
<g id="a_edge54_Node000001_Node000026"><a xlink:title=" ">
<path fill="none" stroke="#63b8ff" d="M1233.78,-329.95C1236.58,-317.44 1242.68,-293.6 1252,-275 1256.94,-265.13 1263.98,-255.06 1270.2,-247.01"/>
<polygon fill="#63b8ff" stroke="#63b8ff" points="1272.96,-249.15 1276.48,-239.16 1267.5,-244.78 1272.96,-249.15"/>
</a>
</g>
</g>
<!-- Node28 -->
<g id="Node000028" class="node">
<title>Node28</title>
<g id="a_Node000028"><a xlink:href="PathSecurity_8h.html" target="_top" xlink:title=" ">
<polygon fill="white" stroke="#666666" points="1369.5,-294 1260.5,-294 1260.5,-275 1369.5,-275 1369.5,-294"/>
<text text-anchor="middle" x="1315" y="-282" font-family="Helvetica,sans-Serif" font-size="10.00">utils/PathSecurity.h</text>
</a>
</g>
</g>
<!-- Node1&#45;&gt;Node28 -->
<g id="edge63_Node000001_Node000028" class="edge">
<title>Node1&#45;&gt;Node28</title>
<g id="a_edge63_Node000001_Node000028"><a xlink:title=" ">
<path fill="none" stroke="#63b8ff" d="M1245.34,-329.98C1258.09,-321.84 1277.55,-309.41 1292.67,-299.76"/>
<polygon fill="#63b8ff" stroke="#63b8ff" points="1294.88,-302.5 1301.42,-294.17 1291.11,-296.6 1294.88,-302.5"/>
</a>
</g>
</g>
<!-- Node29 -->
<g id="Node000029" class="node">
<title>Node29</title>
<g id="a_Node000029"><a xlink:title=" ">
<polygon fill="#e0e0e0" stroke="#999999" points="1636,-239 1598,-239 1598,-220 1636,-220 1636,-239"/>
<text text-anchor="middle" x="1617" y="-227" font-family="Helvetica,sans-Serif" font-size="10.00">QDir</text>
</a>
</g>
</g>
<!-- Node1&#45;&gt;Node29 -->
<g id="edge67_Node000001_Node000029" class="edge">
<title>Node1&#45;&gt;Node29</title>
<g id="a_edge67_Node000001_Node000029"><a xlink:title=" ">
<path fill="none" stroke="#63b8ff" d="M1266.13,-329.93C1296.29,-321.95 1341.22,-309.04 1379,-294 1396.54,-287.02 1399.19,-281.26 1417,-275 1488.63,-249.82 1510.11,-256.47 1584,-239 1585.26,-238.7 1586.55,-238.39 1587.85,-238.07"/>
<polygon fill="#63b8ff" stroke="#63b8ff" points="1588.99,-241.4 1597.84,-235.57 1587.29,-234.61 1588.99,-241.4"/>
</a>
</g>
</g>
<!-- Node30 -->
<g id="Node000030" class="node">
<title>Node30</title>
<g id="a_Node000030"><a xlink:title=" ">
<polygon fill="#e0e0e0" stroke="#999999" points="1482,-294 1426,-294 1426,-275 1482,-275 1482,-294"/>
<text text-anchor="middle" x="1454" y="-282" font-family="Helvetica,sans-Serif" font-size="10.00">QDebug</text>
</a>
</g>
</g>
<!-- Node1&#45;&gt;Node30 -->
<g id="edge66_Node000001_Node000030" class="edge">
<title>Node1&#45;&gt;Node30</title>
<g id="a_edge66_Node000001_Node000030"><a xlink:title=" ">
<path fill="none" stroke="#63b8ff" d="M1267.67,-329.98C1308.32,-320.28 1374.49,-304.48 1416.06,-294.56"/>
<polygon fill="#63b8ff" stroke="#63b8ff" points="1416.9,-297.96 1425.81,-292.23 1415.28,-291.15 1416.9,-297.96"/>
</a>
</g>
</g>
<!-- Node31 -->
<g id="Node000031" class="node">
<title>Node31</title>
<g id="a_Node000031"><a xlink:title=" ">
<polygon fill="#e0e0e0" stroke="#999999" points="1541.5,-294 1500.5,-294 1500.5,-275 1541.5,-275 1541.5,-294"/>
<text text-anchor="middle" x="1521" y="-282" font-family="Helvetica,sans-Serif" font-size="10.00">QFile</text>
</a>
</g>
</g>
<!-- Node1&#45;&gt;Node31 -->
<g id="edge68_Node000001_Node000031" class="edge">
<title>Node1&#45;&gt;Node31</title>
<g id="a_edge68_Node000001_Node000031"><a xlink:title=" ">
<path fill="none" stroke="#63b8ff" d="M1292.28,-329.99C1342.74,-322.45 1416.78,-310.41 1490.49,-293.89"/>
<polygon fill="#63b8ff" stroke="#63b8ff" points="1491.44,-297.27 1500.42,-291.64 1489.89,-290.44 1491.44,-297.27"/>
</a>
</g>
</g>
<!-- Node3 -->
<g id="Node000003" class="node">
<title>Node3</title>
<g id="a_Node000003"><a xlink:href="ComponentData_8h.html" target="_top" xlink:title=" ">
<polygon fill="white" stroke="#666666" points="678,-184 534,-184 534,-165 678,-165 678,-184"/>
<text text-anchor="middle" x="606" y="-172" font-family="Helvetica,sans-Serif" font-size="10.00">models/ComponentData.h</text>
</a>
</g>
</g>
<!-- Node2&#45;&gt;Node3 -->
<g id="edge2_Node000002_Node000003" class="edge">
<title>Node2&#45;&gt;Node3</title>
<g id="a_edge2_Node000002_Node000003"><a xlink:title=" ">
<path fill="none" stroke="#63b8ff" d="M564.26,-219.75C571.46,-212.11 582.11,-200.82 590.85,-191.56"/>
<polygon fill="#63b8ff" stroke="#63b8ff" points="593.58,-193.76 597.9,-184.09 588.49,-188.96 593.58,-193.76"/>
</a>
</g>
</g>
<!-- Node4 -->
<g id="Node000004" class="node">
<title>Node4</title>
<g id="a_Node000004"><a xlink:href="FootprintData_8h.html" target="_top" xlink:title=" ">
<polygon fill="white" stroke="#666666" points="974,-129 882,-129 882,-110 974,-110 974,-129"/>
<text text-anchor="middle" x="928" y="-117" font-family="Helvetica,sans-Serif" font-size="10.00">FootprintData.h</text>
</a>
</g>
</g>
<!-- Node2&#45;&gt;Node4 -->
<g id="edge25_Node000002_Node000004" class="edge">
<title>Node2&#45;&gt;Node4</title>
<g id="a_edge25_Node000002_Node000004"><a xlink:title=" ">
<path fill="none" stroke="#63b8ff" d="M583.35,-219.99C610.03,-211.51 651.64,-197.79 687,-184 706.47,-176.41 710.16,-171.54 730,-165 776.89,-149.54 831.77,-137.67 871.84,-130.09"/>
<polygon fill="#63b8ff" stroke="#63b8ff" points="872.51,-133.53 881.7,-128.26 871.23,-126.65 872.51,-133.53"/>
</a>
</g>
</g>
<!-- Node5 -->
<g id="Node000005" class="node">
<title>Node5</title>
<g id="a_Node000005"><a xlink:href="Model3DData_8h.html" target="_top" xlink:title=" ">
<polygon fill="white" stroke="#666666" points="738,-74 646,-74 646,-55 738,-55 738,-74"/>
<text text-anchor="middle" x="692" y="-62" font-family="Helvetica,sans-Serif" font-size="10.00">Model3DData.h</text>
</a>
</g>
</g>
<!-- Node2&#45;&gt;Node5 -->
<g id="edge26_Node000002_Node000005" class="edge">
<title>Node2&#45;&gt;Node5</title>
<g id="a_edge26_Node000002_Node000005"><a xlink:title=" ">
<path fill="none" stroke="#63b8ff" d="M547.52,-219.85C539.95,-211.47 529.4,-198.01 525,-184 515.15,-152.62 504.96,-136.08 525,-110 538.58,-92.32 592.66,-80.18 635.65,-73.09"/>
<polygon fill="#63b8ff" stroke="#63b8ff" points="636.42,-76.51 645.74,-71.49 635.32,-69.6 636.42,-76.51"/>
</a>
</g>
</g>
<!-- Node8 -->
<g id="Node000008" class="node">
<title>Node8</title>
<g id="a_Node000008"><a xlink:title=" ">
<polygon fill="#e0e0e0" stroke="#999999" points="1314.5,-19 1261.5,-19 1261.5,0 1314.5,0 1314.5,-19"/>
<text text-anchor="middle" x="1288" y="-7" font-family="Helvetica,sans-Serif" font-size="10.00">QString</text>
</a>
</g>
</g>
<!-- Node2&#45;&gt;Node8 -->
<g id="edge31_Node000002_Node000008" class="edge">
<title>Node2&#45;&gt;Node8</title>
<g id="a_edge31_Node000002_Node000008"><a xlink:title=" ">
<path fill="none" stroke="#63b8ff" d="M543.99,-219.78C533.98,-211.74 520.37,-198.84 514,-184 501.02,-153.75 492.97,-137.54 511,-110 544.47,-58.88 577.65,-69.52 637,-55 754.9,-26.16 1131.54,-14.42 1251.16,-11.36"/>
<polygon fill="#63b8ff" stroke="#63b8ff" points="1251.37,-14.86 1261.28,-11.11 1251.19,-7.86 1251.37,-14.86"/>
</a>
</g>
</g>
<!-- Node12 -->
<g id="Node000012" class="node">
<title>Node12</title>
<g id="a_Node000012"><a xlink:href="SymbolData_8h.html" target="_top" xlink:title=" ">
<polygon fill="white" stroke="#666666" points="1160,-129 1074,-129 1074,-110 1160,-110 1160,-129"/>
<text text-anchor="middle" x="1117" y="-117" font-family="Helvetica,sans-Serif" font-size="10.00">SymbolData.h</text>
</a>
</g>
</g>
<!-- Node2&#45;&gt;Node12 -->
<g id="edge27_Node000002_Node000012" class="edge">
<title>Node2&#45;&gt;Node12</title>
<g id="a_edge27_Node000002_Node000012"><a xlink:title=" ">
<path fill="none" stroke="#63b8ff" d="M595.49,-219.94C629.5,-212.08 679.65,-199.36 722,-184 740.88,-177.15 743.7,-170.54 763,-165 818.23,-149.15 979.31,-132.9 1063.83,-125.16"/>
<polygon fill="#63b8ff" stroke="#63b8ff" points="1064.35,-128.63 1073.99,-124.23 1063.71,-121.65 1064.35,-128.63"/>
</a>
</g>
</g>
<!-- Node15 -->
<g id="Node000015" class="node">
<title>Node15</title>
<g id="a_Node000015"><a xlink:title=" ">
<polygon fill="#e0e0e0" stroke="#999999" points="278.5,-184 207.5,-184 207.5,-165 278.5,-165 278.5,-184"/>
<text text-anchor="middle" x="243" y="-172" font-family="Helvetica,sans-Serif" font-size="10.00">QAtomicInt</text>
</a>
</g>
</g>
<!-- Node2&#45;&gt;Node15 -->
<g id="edge28_Node000002_Node000015" class="edge">
<title>Node2&#45;&gt;Node15</title>
<g id="a_edge28_Node000002_Node000015"><a xlink:title=" ">
<path fill="none" stroke="#63b8ff" d="M509.28,-221.16C457.62,-212.96 371.67,-199.06 288.4,-184.22"/>
<polygon fill="#63b8ff" stroke="#63b8ff" points="288.99,-180.76 278.53,-182.45 287.75,-187.65 288.99,-180.76"/>
</a>
</g>
</g>
<!-- Node16 -->
<g id="Node000016" class="node">
<title>Node16</title>
<g id="a_Node000016"><a xlink:title=" ">
<polygon fill="#e0e0e0" stroke="#999999" points="351.5,-184 296.5,-184 296.5,-165 351.5,-165 351.5,-184"/>
<text text-anchor="middle" x="324" y="-172" font-family="Helvetica,sans-Serif" font-size="10.00">QMutex</text>
</a>
</g>
</g>
<!-- Node2&#45;&gt;Node16 -->
<g id="edge29_Node000002_Node000016" class="edge">
<title>Node2&#45;&gt;Node16</title>
<g id="a_edge29_Node000002_Node000016"><a xlink:title=" ">
<path fill="none" stroke="#63b8ff" d="M518.61,-219.99C481.43,-211.51 422.47,-198.07 361.99,-184.22"/>
<polygon fill="#63b8ff" stroke="#63b8ff" points="362.41,-180.73 351.88,-181.91 360.85,-187.55 362.41,-180.73"/>
</a>
</g>
</g>
<!-- Node17 -->
<g id="Node000017" class="node">
<title>Node17</title>
<g id="a_Node000017"><a xlink:title=" ">
<polygon fill="#e0e0e0" stroke="#999999" points="828,-184 772,-184 772,-165 828,-165 828,-184"/>
<text text-anchor="middle" x="800" y="-172" font-family="Helvetica,sans-Serif" font-size="10.00">QObject</text>
</a>
</g>
</g>
<!-- Node2&#45;&gt;Node17 -->
<g id="edge30_Node000002_Node000017" class="edge">
<title>Node2&#45;&gt;Node17</title>
<g id="a_edge30_Node000002_Node000017"><a xlink:title=" ">
<path fill="none" stroke="#63b8ff" d="M595.2,-219.98C641.07,-210.02 716.5,-193.64 761.89,-183.78"/>
<polygon fill="#63b8ff" stroke="#63b8ff" points="762.89,-187.14 771.92,-181.6 761.41,-180.3 762.89,-187.14"/>
</a>
</g>
</g>
<!-- Node18 -->
<g id="Node000018" class="node">
<title>Node18</title>
<g id="a_Node000018"><a xlink:title=" ">
<polygon fill="#e0e0e0" stroke="#999999" points="440,-184 370,-184 370,-165 440,-165 440,-184"/>
<text text-anchor="middle" x="405" y="-172" font-family="Helvetica,sans-Serif" font-size="10.00">QStringList</text>
</a>
</g>
</g>
<!-- Node2&#45;&gt;Node18 -->
<g id="edge32_Node000002_Node000018" class="edge">
<title>Node2&#45;&gt;Node18</title>
<g id="a_edge32_Node000002_Node000018"><a xlink:title=" ">
<path fill="none" stroke="#63b8ff" d="M531.74,-219.98C506.68,-211.19 467.37,-197.39 439.17,-187.49"/>
<polygon fill="#63b8ff" stroke="#63b8ff" points="440.3,-184.18 429.7,-184.17 437.98,-190.78 440.3,-184.18"/>
</a>
</g>
</g>
<!-- Node19 -->
<g id="Node000019" class="node">
<title>Node19</title>
<g id="a_Node000019"><a xlink:title=" ">
<polygon fill="#e0e0e0" stroke="#999999" points="189.5,-184 110.5,-184 110.5,-165 189.5,-165 189.5,-184"/>
<text text-anchor="middle" x="150" y="-172" font-family="Helvetica,sans-Serif" font-size="10.00">QThreadPool</text>
</a>
</g>
</g>
<!-- Node2&#45;&gt;Node19 -->
<g id="edge33_Node000002_Node000019" class="edge">
<title>Node2&#45;&gt;Node19</title>
<g id="a_edge33_Node000002_Node000019"><a xlink:title=" ">
<path fill="none" stroke="#63b8ff" d="M509.27,-223.47C442.75,-216.14 316.72,-201.62 199.73,-184.2"/>
<polygon fill="#63b8ff" stroke="#63b8ff" points="199.93,-180.69 189.53,-182.67 198.9,-187.61 199.93,-180.69"/>
</a>
</g>
</g>
<!-- Node3&#45;&gt;Node4 -->
<g id="edge3_Node000003_Node000004" class="edge">
<title>Node3&#45;&gt;Node4</title>
<g id="a_edge3_Node000003_Node000004"><a xlink:title=" ">
<path fill="none" stroke="#63b8ff" d="M657.73,-164.98C716.3,-155.34 811.39,-139.69 871.76,-129.76"/>
<polygon fill="#63b8ff" stroke="#63b8ff" points="872.58,-133.17 881.87,-128.09 871.44,-126.26 872.58,-133.17"/>
</a>
</g>
</g>
<!-- Node3&#45;&gt;Node5 -->
<g id="edge13_Node000003_Node000005" class="edge">
<title>Node3&#45;&gt;Node5</title>
<g id="a_edge13_Node000003_Node000005"><a xlink:title=" ">
<path fill="none" stroke="#63b8ff" d="M623.14,-164.88C636.95,-157.16 655.98,-144.66 668,-129 678.21,-115.71 684.48,-97.59 688.04,-84.11"/>
<polygon fill="#63b8ff" stroke="#63b8ff" points="691.51,-84.62 690.42,-74.09 684.7,-83.01 691.51,-84.62"/>
</a>
</g>
</g>
<!-- Node7 -->
<g id="Node000007" class="node">
<title>Node7</title>
<g id="a_Node000007"><a xlink:title=" ">
<polygon fill="#e0e0e0" stroke="#999999" points="853,-19 777,-19 777,0 853,0 853,-19"/>
<text text-anchor="middle" x="815" y="-7" font-family="Helvetica,sans-Serif" font-size="10.00">QJsonObject</text>
</a>
</g>
</g>
<!-- Node3&#45;&gt;Node7 -->
<g id="edge22_Node000003_Node000007" class="edge">
<title>Node3&#45;&gt;Node7</title>
<g id="a_edge22_Node000003_Node000007"><a xlink:title=" ">
<path fill="none" stroke="#63b8ff" d="M613.86,-164.72C620.89,-156.25 630.72,-142.73 635,-129 644.79,-97.59 616.4,-80.66 637,-55 653.12,-34.92 719.84,-22.46 766.85,-16"/>
<polygon fill="#63b8ff" stroke="#63b8ff" points="767.39,-19.46 776.85,-14.67 766.47,-12.52 767.39,-19.46"/>
</a>
</g>
</g>
<!-- Node3&#45;&gt;Node8 -->
<g id="edge24_Node000003_Node000008" class="edge">
<title>Node3&#45;&gt;Node8</title>
<g id="a_edge24_Node000003_Node000008"><a xlink:title=" ">
<path fill="none" stroke="#63b8ff" d="M622.74,-164.9C671.51,-139.99 813.14,-68.7 863,-55 1002.43,-16.68 1175.92,-10.92 1250.77,-10.35"/>
<polygon fill="#63b8ff" stroke="#63b8ff" points="1251.1,-13.85 1261.08,-10.3 1251.07,-6.85 1251.1,-13.85"/>
</a>
</g>
</g>
<!-- Node9 -->
<g id="Node000009" class="node">
<title>Node9</title>
<g id="a_Node000009"><a xlink:title=" ">
<polygon fill="#e0e0e0" stroke="#999999" points="942.5,-74 871.5,-74 871.5,-55 942.5,-55 942.5,-74"/>
<text text-anchor="middle" x="907" y="-62" font-family="Helvetica,sans-Serif" font-size="10.00">QJsonArray</text>
</a>
</g>
</g>
<!-- Node3&#45;&gt;Node9 -->
<g id="edge21_Node000003_Node000009" class="edge">
<title>Node3&#45;&gt;Node9</title>
<g id="a_edge21_Node000003_Node000009"><a xlink:title=" ">
<path fill="none" stroke="#63b8ff" d="M678.22,-166.25C720.85,-160.09 775.08,-148.94 820,-129 846.78,-117.11 873.37,-95.99 889.97,-81.39"/>
<polygon fill="#63b8ff" stroke="#63b8ff" points="892.6,-83.73 897.69,-74.43 887.92,-78.53 892.6,-83.73"/>
</a>
</g>
</g>
<!-- Node3&#45;&gt;Node12 -->
<g id="edge14_Node000003_Node000012" class="edge">
<title>Node3&#45;&gt;Node12</title>
<g id="a_edge14_Node000003_Node000012"><a xlink:title=" ">
<path fill="none" stroke="#63b8ff" d="M678.13,-166.02C782.08,-155.24 971.61,-135.58 1063.8,-126.02"/>
<polygon fill="#63b8ff" stroke="#63b8ff" points="1064.16,-129.5 1073.75,-124.99 1063.44,-122.54 1064.16,-129.5"/>
</a>
</g>
</g>
<!-- Node14 -->
<g id="Node000014" class="node">
<title>Node14</title>
<g id="a_Node000014"><a xlink:title=" ">
<polygon fill="#e0e0e0" stroke="#999999" points="626,-129 534,-129 534,-110 626,-110 626,-129"/>
<text text-anchor="middle" x="580" y="-117" font-family="Helvetica,sans-Serif" font-size="10.00">QSharedPointer</text>
</a>
</g>
</g>
<!-- Node3&#45;&gt;Node14 -->
<g id="edge23_Node000003_Node000014" class="edge">
<title>Node3&#45;&gt;Node14</title>
<g id="a_edge23_Node000003_Node000014"><a xlink:title=" ">
<path fill="none" stroke="#63b8ff" d="M601.71,-164.75C598.19,-157.57 593.09,-147.18 588.72,-138.27"/>
<polygon fill="#63b8ff" stroke="#63b8ff" points="591.76,-136.53 584.21,-129.09 585.48,-139.61 591.76,-136.53"/>
</a>
</g>
</g>
<!-- Node4&#45;&gt;Node5 -->
<g id="edge4_Node000004_Node000005" class="edge">
<title>Node4&#45;&gt;Node5</title>
<g id="a_edge4_Node000004_Node000005"><a xlink:title=" ">
<path fill="none" stroke="#63b8ff" d="M890.08,-109.98C849.35,-100.84 784.5,-86.27 740.18,-76.32"/>
<polygon fill="#63b8ff" stroke="#63b8ff" points="740.74,-72.86 730.21,-74.08 739.2,-79.69 740.74,-72.86"/>
</a>
</g>
</g>
<!-- Node4&#45;&gt;Node7 -->
<g id="edge9_Node000004_Node000007" class="edge">
<title>Node4&#45;&gt;Node7</title>
<g id="a_edge9_Node000004_Node000007"><a xlink:title=" ">
<path fill="none" stroke="#63b8ff" d="M912.52,-109.86C898.66,-101.69 878.24,-88.54 863,-74 848.52,-60.18 835.06,-41.67 826.1,-28.2"/>
<polygon fill="#63b8ff" stroke="#63b8ff" points="828.79,-25.92 820.42,-19.43 822.91,-29.72 828.79,-25.92"/>
</a>
</g>
</g>
<!-- Node4&#45;&gt;Node8 -->
<g id="edge12_Node000004_Node000008" class="edge">
<title>Node4&#45;&gt;Node8</title>
<g id="a_edge12_Node000004_Node000008"><a xlink:title=" ">
<path fill="none" stroke="#63b8ff" d="M933.78,-109.78C943.65,-95.66 965.23,-68.06 991,-55 1035.9,-32.25 1182.03,-18.5 1251.14,-13.12"/>
<polygon fill="#63b8ff" stroke="#63b8ff" points="1251.45,-16.61 1261.15,-12.36 1250.91,-9.63 1251.45,-16.61"/>
</a>
</g>
</g>
<!-- Node4&#45;&gt;Node9 -->
<g id="edge8_Node000004_Node000009" class="edge">
<title>Node4&#45;&gt;Node9</title>
<g id="a_edge8_Node000004_Node000009"><a xlink:title=" ">
<path fill="none" stroke="#63b8ff" d="M924.53,-109.75C921.72,-102.65 917.66,-92.4 914.15,-83.56"/>
<polygon fill="#63b8ff" stroke="#63b8ff" points="917.34,-82.1 910.4,-74.09 910.83,-84.68 917.34,-82.1"/>
</a>
</g>
</g>
<!-- Node10 -->
<g id="Node000010" class="node">
<title>Node10</title>
<g id="a_Node000010"><a xlink:title=" ">
<polygon fill="#e0e0e0" stroke="#999999" points="1113.5,-74 1072.5,-74 1072.5,-55 1113.5,-55 1113.5,-74"/>
<text text-anchor="middle" x="1093" y="-62" font-family="Helvetica,sans-Serif" font-size="10.00">QList</text>
</a>
</g>
</g>
<!-- Node4&#45;&gt;Node10 -->
<g id="edge10_Node000004_Node000010" class="edge">
<title>Node4&#45;&gt;Node10</title>
<g id="a_edge10_Node000004_Node000010"><a xlink:title=" ">
<path fill="none" stroke="#63b8ff" d="M954.51,-109.98C983.97,-100.52 1031.48,-85.26 1062.47,-75.31"/>
<polygon fill="#63b8ff" stroke="#63b8ff" points="1063.85,-78.54 1072.3,-72.15 1061.71,-71.87 1063.85,-78.54"/>
</a>
</g>
</g>
<!-- Node11 -->
<g id="Node000011" class="node">
<title>Node11</title>
<g id="a_Node000011"><a xlink:title=" ">
<polygon fill="#e0e0e0" stroke="#999999" points="1054.5,-74 999.5,-74 999.5,-55 1054.5,-55 1054.5,-74"/>
<text text-anchor="middle" x="1027" y="-62" font-family="Helvetica,sans-Serif" font-size="10.00">QPointF</text>
</a>
</g>
</g>
<!-- Node4&#45;&gt;Node11 -->
<g id="edge11_Node000004_Node000011" class="edge">
<title>Node4&#45;&gt;Node11</title>
<g id="a_edge11_Node000004_Node000011"><a xlink:title=" ">
<path fill="none" stroke="#63b8ff" d="M943.91,-109.98C959.55,-101.61 983.66,-88.7 1001.88,-78.95"/>
<polygon fill="#63b8ff" stroke="#63b8ff" points="1003.64,-81.98 1010.8,-74.17 1000.34,-75.8 1003.64,-81.98"/>
</a>
</g>
</g>
<!-- Node6 -->
<g id="Node000006" class="node">
<title>Node6</title>
<g id="a_Node000006"><a xlink:title=" ">
<polygon fill="#e0e0e0" stroke="#999999" points="385.5,-19 312.5,-19 312.5,0 385.5,0 385.5,-19"/>
<text text-anchor="middle" x="349" y="-7" font-family="Helvetica,sans-Serif" font-size="10.00">QByteArray</text>
</a>
</g>
</g>
<!-- Node5&#45;&gt;Node6 -->
<g id="edge5_Node000005_Node000006" class="edge">
<title>Node5&#45;&gt;Node6</title>
<g id="a_edge5_Node000005_Node000006"><a xlink:title=" ">
<path fill="none" stroke="#63b8ff" d="M645.74,-56.35C580.3,-46.24 461.38,-27.86 395.7,-17.72"/>
<polygon fill="#63b8ff" stroke="#63b8ff" points="396.05,-14.23 385.63,-16.16 394.98,-21.15 396.05,-14.23"/>
</a>
</g>
</g>
<!-- Node5&#45;&gt;Node7 -->
<g id="edge6_Node000005_Node000007" class="edge">
<title>Node5&#45;&gt;Node7</title>
<g id="a_edge6_Node000005_Node000007"><a xlink:title=" ">
<path fill="none" stroke="#63b8ff" d="M711.76,-54.98C731.73,-46.38 762.8,-32.99 785.65,-23.15"/>
<polygon fill="#63b8ff" stroke="#63b8ff" points="787.08,-26.34 794.88,-19.17 784.31,-19.91 787.08,-26.34"/>
</a>
</g>
</g>
<!-- Node5&#45;&gt;Node8 -->
<g id="edge7_Node000005_Node000008" class="edge">
<title>Node5&#45;&gt;Node8</title>
<g id="a_edge7_Node000005_Node000008"><a xlink:title=" ">
<path fill="none" stroke="#63b8ff" d="M738.27,-59.39C852.77,-49.2 1147.53,-22.99 1251.24,-13.77"/>
<polygon fill="#63b8ff" stroke="#63b8ff" points="1251.58,-17.25 1261.23,-12.88 1250.96,-10.28 1251.58,-17.25"/>
</a>
</g>
</g>
<!-- Node12&#45;&gt;Node7 -->
<g id="edge16_Node000012_Node000007" class="edge">
<title>Node12&#45;&gt;Node7</title>
<g id="a_edge16_Node000012_Node000007"><a xlink:title=" ">
<path fill="none" stroke="#63b8ff" d="M1121.32,-109.91C1127.4,-96.47 1136.34,-70.4 1123,-55 1090,-16.89 941.43,-10.69 863.33,-10.14"/>
<polygon fill="#63b8ff" stroke="#63b8ff" points="863.27,-6.64 853.26,-10.09 863.24,-13.64 863.27,-6.64"/>
</a>
</g>
</g>
<!-- Node12&#45;&gt;Node8 -->
<g id="edge20_Node000012_Node000008" class="edge">
<title>Node12&#45;&gt;Node8</title>
<g id="a_edge20_Node000012_Node000008"><a xlink:title=" ">
<path fill="none" stroke="#63b8ff" d="M1150.44,-109.95C1174.29,-102.82 1206.37,-91.06 1231,-74 1249.38,-61.27 1265.9,-41.48 1276.37,-27.37"/>
<polygon fill="#63b8ff" stroke="#63b8ff" points="1279.35,-29.23 1282.33,-19.06 1273.66,-25.15 1279.35,-29.23"/>
</a>
</g>
</g>
<!-- Node12&#45;&gt;Node9 -->
<g id="edge15_Node000012_Node000009" class="edge">
<title>Node12&#45;&gt;Node9</title>
<g id="a_edge15_Node000012_Node000009"><a xlink:title=" ">
<path fill="none" stroke="#63b8ff" d="M1083.26,-109.98C1047.32,-100.91 990.28,-86.52 950.87,-76.57"/>
<polygon fill="#63b8ff" stroke="#63b8ff" points="951.56,-73.14 941,-74.08 949.84,-79.92 951.56,-73.14"/>
</a>
</g>
</g>
<!-- Node12&#45;&gt;Node10 -->
<g id="edge17_Node000012_Node000010" class="edge">
<title>Node12&#45;&gt;Node10</title>
<g id="a_edge17_Node000012_Node000010"><a xlink:title=" ">
<path fill="none" stroke="#63b8ff" d="M1113.04,-109.75C1109.79,-102.57 1105.08,-92.18 1101.05,-83.27"/>
<polygon fill="#63b8ff" stroke="#63b8ff" points="1104.2,-81.75 1096.89,-74.09 1097.83,-84.64 1104.2,-81.75"/>
</a>
</g>
</g>
<!-- Node12&#45;&gt;Node11 -->
<g id="edge18_Node000012_Node000011" class="edge">
<title>Node12&#45;&gt;Node11</title>
<g id="a_edge18_Node000012_Node000011"><a xlink:title=" ">
<path fill="none" stroke="#63b8ff" d="M1102.54,-109.98C1088.58,-101.77 1067.21,-89.18 1050.75,-79.49"/>
<polygon fill="#63b8ff" stroke="#63b8ff" points="1052.12,-76.23 1041.72,-74.17 1048.56,-82.26 1052.12,-76.23"/>
</a>
</g>
</g>
<!-- Node13 -->
<g id="Node000013" class="node">
<title>Node13</title>
<g id="a_Node000013"><a xlink:title=" ">
<polygon fill="#e0e0e0" stroke="#999999" points="1222,-74 1170,-74 1170,-55 1222,-55 1222,-74"/>
<text text-anchor="middle" x="1196" y="-62" font-family="Helvetica,sans-Serif" font-size="10.00">QRectF</text>
</a>
</g>
</g>
<!-- Node12&#45;&gt;Node13 -->
<g id="edge19_Node000012_Node000013" class="edge">
<title>Node12&#45;&gt;Node13</title>
<g id="a_edge19_Node000012_Node000013"><a xlink:title=" ">
<path fill="none" stroke="#63b8ff" d="M1129.69,-109.98C1141.83,-101.84 1160.36,-89.41 1174.75,-79.76"/>
<polygon fill="#63b8ff" stroke="#63b8ff" points="1176.72,-82.65 1183.08,-74.17 1172.82,-76.84 1176.72,-82.65"/>
</a>
</g>
</g>
<!-- Node20&#45;&gt;Node2 -->
<g id="edge35_Node000020_Node000002" class="edge">
<title>Node20&#45;&gt;Node2</title>
<g id="a_edge35_Node000020_Node000002"><a xlink:title=" ">
<path fill="none" stroke="#63b8ff" d="M770.03,-274.98C725.74,-265.78 655.06,-251.09 607.15,-241.13"/>
<polygon fill="#63b8ff" stroke="#63b8ff" points="607.79,-237.69 597.29,-239.08 606.37,-244.54 607.79,-237.69"/>
</a>
</g>
</g>
<!-- Node20&#45;&gt;Node3 -->
<g id="edge36_Node000020_Node000003" class="edge">
<title>Node20&#45;&gt;Node3</title>
<g id="a_edge36_Node000020_Node000003"><a xlink:title=" ">
<path fill="none" stroke="#63b8ff" d="M824.43,-274.93C842.45,-262.38 870.5,-238.51 855,-220 833.9,-194.79 752.29,-183.85 688.18,-179.11"/>
<polygon fill="#63b8ff" stroke="#63b8ff" points="688.27,-175.6 678.05,-178.4 687.78,-182.59 688.27,-175.6"/>
</a>
</g>
</g>
<!-- Node20&#45;&gt;Node17 -->
<g id="edge37_Node000020_Node000017" class="edge">
<title>Node20&#45;&gt;Node17</title>
<g id="a_edge37_Node000020_Node000017"><a xlink:title=" ">
<path fill="none" stroke="#63b8ff" d="M798.22,-275C787.61,-267.1 773.28,-254.27 767,-239 760.18,-222.41 771.55,-204.33 782.76,-191.73"/>
<polygon fill="#63b8ff" stroke="#63b8ff" points="785.5,-193.93 789.91,-184.3 780.45,-189.08 785.5,-193.93"/>
</a>
</g>
</g>
<!-- Node21 -->
<g id="Node000021" class="node">
<title>Node21</title>
<g id="a_Node000021"><a xlink:title=" ">
<polygon fill="#e0e0e0" stroke="#999999" points="846,-239 776,-239 776,-220 846,-220 846,-239"/>
<text text-anchor="middle" x="811" y="-227" font-family="Helvetica,sans-Serif" font-size="10.00">QRunnable</text>
</a>
</g>
</g>
<!-- Node20&#45;&gt;Node21 -->
<g id="edge38_Node000020_Node000021" class="edge">
<title>Node20&#45;&gt;Node21</title>
<g id="a_edge38_Node000020_Node000021"><a xlink:title=" ">
<path fill="none" stroke="#63b8ff" d="M811,-274.75C811,-267.8 811,-257.85 811,-249.13"/>
<polygon fill="#63b8ff" stroke="#63b8ff" points="814.5,-249.09 811,-239.09 807.5,-249.09 814.5,-249.09"/>
</a>
</g>
</g>
<!-- Node22&#45;&gt;Node5 -->
<g id="edge40_Node000022_Node000005" class="edge">
<title>Node22&#45;&gt;Node5</title>
<g id="a_edge40_Node000022_Node000005"><a xlink:title=" ">
<path fill="none" stroke="#63b8ff" d="M81.9,-219.58C82.26,-205.69 85.13,-179.02 101,-165 179.87,-95.34 503.07,-73.64 635.25,-67.6"/>
<polygon fill="#63b8ff" stroke="#63b8ff" points="635.73,-71.09 645.56,-67.15 635.42,-64.09 635.73,-71.09"/>
</a>
</g>
</g>
<!-- Node22&#45;&gt;Node6 -->
<g id="edge41_Node000022_Node000006" class="edge">
<title>Node22&#45;&gt;Node6</title>
<g id="a_edge41_Node000022_Node000006"><a xlink:title=" ">
<path fill="none" stroke="#63b8ff" d="M65.97,-219.95C53.59,-212.35 37.35,-199.97 30,-184 16.25,-154.13 10.51,-136.49 30,-110 62.6,-65.69 221.95,-32.43 302.38,-18.16"/>
<polygon fill="#63b8ff" stroke="#63b8ff" points="303,-21.6 312.25,-16.43 301.79,-14.71 303,-21.6"/>
</a>
</g>
</g>
<!-- Node22&#45;&gt;Node8 -->
<g id="edge43_Node000022_Node000008" class="edge">
<title>Node22&#45;&gt;Node8</title>
<g id="a_edge43_Node000022_Node000008"><a xlink:title=" ">
<path fill="none" stroke="#63b8ff" d="M80.02,-219.59C77.64,-206.62 75.1,-182.22 85,-165 107.43,-125.99 127.88,-125.84 170,-110 374.9,-32.93 1081.32,-14.5 1251.1,-11.14"/>
<polygon fill="#63b8ff" stroke="#63b8ff" points="1251.34,-14.64 1261.27,-10.95 1251.2,-7.64 1251.34,-14.64"/>
</a>
</g>
</g>
<!-- Node22&#45;&gt;Node17 -->
<g id="edge42_Node000022_Node000017" class="edge">
<title>Node22&#45;&gt;Node17</title>
<g id="a_edge42_Node000022_Node000017"><a xlink:title=" ">
<path fill="none" stroke="#63b8ff" d="M164.2,-222.5C280.58,-213.99 500.05,-197.91 687,-184 711.78,-182.16 739.63,-180.06 761.47,-178.41"/>
<polygon fill="#63b8ff" stroke="#63b8ff" points="761.96,-181.89 771.67,-177.64 761.44,-174.91 761.96,-181.89"/>
</a>
</g>
</g>
<!-- Node23&#45;&gt;Node4 -->
<g id="edge48_Node000023_Node000004" class="edge">
<title>Node23&#45;&gt;Node4</title>
<g id="a_edge48_Node000023_Node000004"><a xlink:title=" ">
<path fill="none" stroke="#63b8ff" d="M995.08,-219.86C981.47,-212.13 962.73,-199.62 951,-184 940.99,-170.67 935,-152.56 931.66,-139.09"/>
<polygon fill="#63b8ff" stroke="#63b8ff" points="935.02,-138.08 929.44,-129.07 928.19,-139.59 935.02,-138.08"/>
</a>
</g>
</g>
<!-- Node23&#45;&gt;Node5 -->
<g id="edge49_Node000023_Node000005" class="edge">
<title>Node23&#45;&gt;Node5</title>
<g id="a_edge49_Node000023_Node000005"><a xlink:title=" ">
<path fill="none" stroke="#63b8ff" d="M984.18,-219.93C957.28,-211.46 915.5,-197.8 880,-184 860.52,-176.43 856.14,-173.38 837,-165 800.17,-148.87 787.11,-151.81 754,-129 734.88,-115.82 716.78,-96.15 705.13,-82.2"/>
<polygon fill="#63b8ff" stroke="#63b8ff" points="707.78,-79.91 698.76,-74.36 702.35,-84.33 707.78,-79.91"/>
</a>
</g>
</g>
<!-- Node23&#45;&gt;Node7 -->
<g id="edge50_Node000023_Node000007" class="edge">
<title>Node23&#45;&gt;Node7</title>
<g id="a_edge50_Node000023_Node000007"><a xlink:title=" ">
<path fill="none" stroke="#63b8ff" d="M994.32,-219.85C965.43,-204.94 907.85,-171.81 873,-129 847.56,-97.74 829.69,-53.47 821,-28.84"/>
<polygon fill="#63b8ff" stroke="#63b8ff" points="824.29,-27.64 817.75,-19.3 817.67,-29.9 824.29,-27.64"/>
</a>
</g>
</g>
<!-- Node23&#45;&gt;Node8 -->
<g id="edge52_Node000023_Node000008" class="edge">
<title>Node23&#45;&gt;Node8</title>
<g id="a_edge52_Node000023_Node000008"><a xlink:title=" ">
<path fill="none" stroke="#63b8ff" d="M1040.23,-219.87C1064.45,-211.98 1099.94,-199.24 1129,-184 1164.98,-165.14 1254.15,-108.86 1275,-74 1283.04,-60.55 1286.18,-42.95 1287.37,-29.69"/>
<polygon fill="#63b8ff" stroke="#63b8ff" points="1290.89,-29.56 1287.99,-19.37 1283.9,-29.14 1290.89,-29.56"/>
</a>
</g>
</g>
<!-- Node23&#45;&gt;Node17 -->
<g id="edge51_Node000023_Node000017" class="edge">
<title>Node23&#45;&gt;Node17</title>
<g id="a_edge51_Node000023_Node000017"><a xlink:title=" ">
<path fill="none" stroke="#63b8ff" d="M977.94,-219.98C939.71,-210.43 877.86,-194.97 838.07,-185.02"/>
<polygon fill="#63b8ff" stroke="#63b8ff" points="838.76,-181.58 828.21,-182.55 837.06,-188.37 838.76,-181.58"/>
</a>
</g>
</g>
<!-- Node24 -->
<g id="Node000024" class="node">
<title>Node24</title>
<g id="a_Node000024"><a xlink:href="FootprintGraphicsGenerator_8h.html" target="_top" xlink:title=" ">
<polygon fill="white" stroke="#666666" points="1120,-184 960,-184 960,-165 1120,-165 1120,-184"/>
<text text-anchor="middle" x="1040" y="-172" font-family="Helvetica,sans-Serif" font-size="10.00">FootprintGraphicsGenerator.h</text>
</a>
</g>
</g>
<!-- Node23&#45;&gt;Node24 -->
<g id="edge45_Node000023_Node000024" class="edge">
<title>Node23&#45;&gt;Node24</title>
<g id="a_edge45_Node000023_Node000024"><a xlink:title=" ">
<path fill="none" stroke="#63b8ff" d="M1016.62,-219.75C1020.46,-212.49 1026.02,-201.95 1030.76,-192.98"/>
<polygon fill="#63b8ff" stroke="#63b8ff" points="1033.89,-194.57 1035.46,-184.09 1027.7,-191.3 1033.89,-194.57"/>
</a>
</g>
</g>
<!-- Node25 -->
<g id="Node000025" class="node">
<title>Node25</title>
<g id="a_Node000025"><a xlink:title=" ">
<polygon fill="#e0e0e0" stroke="#999999" points="1256,-184 1176,-184 1176,-165 1256,-165 1256,-184"/>
<text text-anchor="middle" x="1216" y="-172" font-family="Helvetica,sans-Serif" font-size="10.00">QTextStream</text>
</a>
</g>
</g>
<!-- Node23&#45;&gt;Node25 -->
<g id="edge53_Node000023_Node000025" class="edge">
<title>Node23&#45;&gt;Node25</title>
<g id="a_edge53_Node000023_Node000025"><a xlink:title=" ">
<path fill="none" stroke="#63b8ff" d="M1044.78,-219.98C1079.62,-210.93 1134.87,-196.58 1173.14,-186.64"/>
<polygon fill="#63b8ff" stroke="#63b8ff" points="1174.17,-189.98 1182.97,-184.08 1172.41,-183.21 1174.17,-189.98"/>
</a>
</g>
</g>
<!-- Node24&#45;&gt;Node4 -->
<g id="edge46_Node000024_Node000004" class="edge">
<title>Node24&#45;&gt;Node4</title>
<g id="a_edge46_Node000024_Node000004"><a xlink:title=" ">
<path fill="none" stroke="#63b8ff" d="M1022.01,-164.98C1004.07,-156.5 976.28,-143.35 955.57,-133.54"/>
<polygon fill="#63b8ff" stroke="#63b8ff" points="956.86,-130.28 946.32,-129.17 953.86,-136.61 956.86,-130.28"/>
</a>
</g>
</g>
<!-- Node24&#45;&gt;Node8 -->
<g id="edge47_Node000024_Node000008" class="edge">
<title>Node24&#45;&gt;Node8</title>
<g id="a_edge47_Node000024_Node000008"><a xlink:title=" ">
<path fill="none" stroke="#63b8ff" d="M1080.09,-164.94C1128.03,-152.71 1207.69,-125.76 1255,-74 1267.04,-60.83 1275.95,-42.45 1281.46,-28.86"/>
<polygon fill="#63b8ff" stroke="#63b8ff" points="1284.87,-29.76 1285.15,-19.17 1278.32,-27.27 1284.87,-29.76"/>
</a>
</g>
</g>
<!-- Node26&#45;&gt;Node7 -->
<g id="edge59_Node000026_Node000007" class="edge">
<title>Node26&#45;&gt;Node7</title>
<g id="a_edge59_Node000026_Node000007"><a xlink:title=" ">
<path fill="none" stroke="#63b8ff" d="M1285.22,-219.74C1286.66,-207.36 1288.37,-184.13 1284,-165 1271.92,-112.09 1275.35,-86.27 1231,-55 1172.8,-13.96 959.65,-9.68 863.1,-9.93"/>
<polygon fill="#63b8ff" stroke="#63b8ff" points="863.01,-6.43 853.03,-9.97 863.04,-13.43 863.01,-6.43"/>
</a>
</g>
</g>
<!-- Node26&#45;&gt;Node8 -->
<g id="edge61_Node000026_Node000008" class="edge">
<title>Node26&#45;&gt;Node8</title>
<g id="a_edge61_Node000026_Node000008"><a xlink:title=" ">
<path fill="none" stroke="#63b8ff" d="M1362.6,-223.69C1421.12,-218.27 1494.03,-207.01 1513,-184 1575.76,-107.87 1403.09,-44.79 1324.58,-20.84"/>
<polygon fill="#63b8ff" stroke="#63b8ff" points="1325.18,-17.37 1314.6,-17.85 1323.17,-24.07 1325.18,-17.37"/>
</a>
</g>
</g>
<!-- Node26&#45;&gt;Node12 -->
<g id="edge58_Node000026_Node000012" class="edge">
<title>Node26&#45;&gt;Node12</title>
<g id="a_edge58_Node000026_Node000012"><a xlink:title=" ">
<path fill="none" stroke="#63b8ff" d="M1283.89,-219.81C1283.23,-206.23 1279.96,-179.98 1265,-165 1240.02,-139.99 1201.56,-128.94 1170.1,-124.1"/>
<polygon fill="#63b8ff" stroke="#63b8ff" points="1170.54,-120.62 1160.16,-122.73 1169.59,-127.56 1170.54,-120.62"/>
</a>
</g>
</g>
<!-- Node26&#45;&gt;Node17 -->
<g id="edge60_Node000026_Node000017" class="edge">
<title>Node26&#45;&gt;Node17</title>
<g id="a_edge60_Node000026_Node000017"><a xlink:title=" ">
<path fill="none" stroke="#63b8ff" d="M1206.24,-219.98C1101,-208.46 917.31,-188.35 838.12,-179.67"/>
<polygon fill="#63b8ff" stroke="#63b8ff" points="838.42,-176.19 828.1,-178.58 837.66,-183.15 838.42,-176.19"/>
</a>
</g>
</g>
<!-- Node26&#45;&gt;Node25 -->
<g id="edge62_Node000026_Node000025" class="edge">
<title>Node26&#45;&gt;Node25</title>
<g id="a_edge62_Node000026_Node000025"><a xlink:title=" ">
<path fill="none" stroke="#63b8ff" d="M1273.07,-219.98C1262.92,-212.07 1247.58,-200.11 1235.35,-190.58"/>
<polygon fill="#63b8ff" stroke="#63b8ff" points="1237.16,-187.56 1227.12,-184.17 1232.86,-193.08 1237.16,-187.56"/>
</a>
</g>
</g>
<!-- Node27 -->
<g id="Node000027" class="node">
<title>Node27</title>
<g id="a_Node000027"><a xlink:href="SymbolGraphicsGenerator_8h.html" target="_top" xlink:title=" ">
<polygon fill="white" stroke="#666666" points="1503.5,-184 1350.5,-184 1350.5,-165 1503.5,-165 1503.5,-184"/>
<text text-anchor="middle" x="1427" y="-172" font-family="Helvetica,sans-Serif" font-size="10.00">SymbolGraphicsGenerator.h</text>
</a>
</g>
</g>
<!-- Node26&#45;&gt;Node27 -->
<g id="edge55_Node000026_Node000027" class="edge">
<title>Node26&#45;&gt;Node27</title>
<g id="a_edge55_Node000026_Node000027"><a xlink:title=" ">
<path fill="none" stroke="#63b8ff" d="M1306.98,-219.98C1330.5,-211.27 1367.29,-197.63 1393.94,-187.75"/>
<polygon fill="#63b8ff" stroke="#63b8ff" points="1395.45,-190.93 1403.61,-184.17 1393.01,-184.36 1395.45,-190.93"/>
</a>
</g>
</g>
<!-- Node27&#45;&gt;Node8 -->
<g id="edge57_Node000027_Node000008" class="edge">
<title>Node27&#45;&gt;Node8</title>
<g id="a_edge57_Node000027_Node000008"><a xlink:title=" ">
<path fill="none" stroke="#63b8ff" d="M1425.6,-164.92C1421.72,-143.73 1409.02,-88.17 1378,-55 1363.54,-39.53 1342.53,-28.72 1324.45,-21.63"/>
<polygon fill="#63b8ff" stroke="#63b8ff" points="1325.36,-18.24 1314.76,-18.07 1322.94,-24.81 1325.36,-18.24"/>
</a>
</g>
</g>
<!-- Node27&#45;&gt;Node12 -->
<g id="edge56_Node000027_Node000012" class="edge">
<title>Node27&#45;&gt;Node12</title>
<g id="a_edge56_Node000027_Node000012"><a xlink:title=" ">
<path fill="none" stroke="#63b8ff" d="M1377.19,-164.98C1320.52,-155.3 1228.33,-139.53 1170.26,-129.61"/>
<polygon fill="#63b8ff" stroke="#63b8ff" points="1170.63,-126.12 1160.18,-127.88 1169.45,-133.02 1170.63,-126.12"/>
</a>
</g>
</g>
<!-- Node28&#45;&gt;Node8 -->
<g id="edge65_Node000028_Node000008" class="edge">
<title>Node28&#45;&gt;Node8</title>
<g id="a_edge65_Node000028_Node000008"><a xlink:title=" ">
<path fill="none" stroke="#63b8ff" d="M1356.25,-274.96C1428.42,-258.84 1570,-221.35 1570,-175.5 1570,-175.5 1570,-175.5 1570,-118.5 1570,-66.55 1401,-30.31 1324.66,-16.59"/>
<polygon fill="#63b8ff" stroke="#63b8ff" points="1324.99,-13.09 1314.53,-14.8 1323.77,-19.99 1324.99,-13.09"/>
</a>
</g>
</g>
<!-- Node28&#45;&gt;Node29 -->
<g id="edge64_Node000028_Node000029" class="edge">
<title>Node28&#45;&gt;Node29</title>
<g id="a_edge64_Node000028_Node000029"><a xlink:title=" ">
<path fill="none" stroke="#63b8ff" d="M1369.62,-275.91C1424.15,-267.99 1510.24,-254.57 1584,-239 1585.27,-238.73 1586.56,-238.45 1587.87,-238.15"/>
<polygon fill="#63b8ff" stroke="#63b8ff" points="1588.98,-241.48 1597.87,-235.73 1587.33,-234.68 1588.98,-241.48"/>
</a>
</g>
</g>
</g>
</svg>
