<?xml version="1.0" encoding="UTF-8" standalone="no"?>
<!DOCTYPE svg PUBLIC "-//W3C//DTD SVG 1.1//EN"
 "http://www.w3.org/Graphics/SVG/1.1/DTD/svg11.dtd">
<!-- Generated by graphviz version 2.43.0 (0)
 -->
<!-- Title: core/kicad/ExporterFootprint.h Pages: 1 -->
<svg width="684pt" height="247pt"
 viewBox="0.00 0.00 684.00 247.00" xmlns="http://www.w3.org/2000/svg" xmlns:xlink="http://www.w3.org/1999/xlink">
<g id="graph0" class="graph" transform="scale(1 1) rotate(0) translate(4 243)">
<title>core/kicad/ExporterFootprint.h</title>
<!-- Node1 -->
<g id="Node000001" class="node">
<title>Node1</title>
<g id="a_Node000001"><a xlink:title=" ">
<polygon fill="#999999" stroke="#666666" points="468,-239 304,-239 304,-220 468,-220 468,-239"/>
<text text-anchor="middle" x="386" y="-227" font-family="Helvetica,sans-Serif" font-size="10.00">core/kicad/ExporterFootprint.h</text>
</a>
</g>
</g>
<!-- Node2 -->
<g id="Node000002" class="node">
<title>Node2</title>
<g id="a_Node000002"><a xlink:href="FootprintGraphicsGenerator_8h.html" target="_top" xlink:title=" ">
<polygon fill="white" stroke="#666666" points="466,-184 306,-184 306,-165 466,-165 466,-184"/>
<text text-anchor="middle" x="386" y="-172" font-family="Helvetica,sans-Serif" font-size="10.00">FootprintGraphicsGenerator.h</text>
</a>
</g>
</g>
<!-- Node1&#45;&gt;Node2 -->
<g id="edge1_Node000001_Node000002" class="edge">
<title>Node1&#45;&gt;Node2</title>
<g id="a_edge1_Node000001_Node000002"><a xlink:title=" ">
<path fill="none" stroke="#63b8ff" d="M386,-219.75C386,-212.8 386,-202.85 386,-194.13"/>
<polygon fill="#63b8ff" stroke="#63b8ff" points="389.5,-194.09 386,-184.09 382.5,-194.09 389.5,-194.09"/>
</a>
</g>
</g>
<!-- Node3 -->
<g id="Node000003" class="node">
<title>Node3</title>
<g id="a_Node000003"><a xlink:href="FootprintData_8h.html" target="_top" xlink:title=" ">
<polygon fill="white" stroke="#666666" points="352.5,-129 221.5,-129 221.5,-110 352.5,-110 352.5,-129"/>
<text text-anchor="middle" x="287" y="-117" font-family="Helvetica,sans-Serif" font-size="10.00">models/FootprintData.h</text>
</a>
</g>
</g>
<!-- Node1&#45;&gt;Node3 -->
<g id="edge13_Node000001_Node000003" class="edge">
<title>Node1&#45;&gt;Node3</title>
<g id="a_edge13_Node000001_Node000003"><a xlink:title=" ">
<path fill="none" stroke="#63b8ff" d="M352.18,-219.94C333,-213.32 310.26,-202.12 297,-184 287.63,-171.19 285.58,-153.02 285.62,-139.4"/>
<polygon fill="#63b8ff" stroke="#63b8ff" points="289.12,-139.37 286.02,-129.24 282.13,-139.1 289.12,-139.37"/>
</a>
</g>
</g>
<!-- Node4 -->
<g id="Node000004" class="node">
<title>Node4</title>
<g id="a_Node000004"><a xlink:href="Model3DData_8h.html" target="_top" xlink:title=" ">
<polygon fill="white" stroke="#666666" points="168,-74 76,-74 76,-55 168,-55 168,-74"/>
<text text-anchor="middle" x="122" y="-62" font-family="Helvetica,sans-Serif" font-size="10.00">Model3DData.h</text>
</a>
</g>
</g>
<!-- Node1&#45;&gt;Node4 -->
<g id="edge14_Node000001_Node000004" class="edge">
<title>Node1&#45;&gt;Node4</title>
<g id="a_edge14_Node000001_Node000004"><a xlink:title=" ">
<path fill="none" stroke="#63b8ff" d="M362.61,-219.99C341.47,-211.91 309.8,-198.82 284,-184 228.41,-152.07 169.06,-104.83 140.06,-80.78"/>
<polygon fill="#63b8ff" stroke="#63b8ff" points="141.99,-77.83 132.07,-74.1 137.5,-83.2 141.99,-77.83"/>
</a>
</g>
</g>
<!-- Node6 -->
<g id="Node000006" class="node">
<title>Node6</title>
<g id="a_Node000006"><a xlink:title=" ">
<polygon fill="#e0e0e0" stroke="#999999" points="76,-19 0,-19 0,0 76,0 76,-19"/>
<text text-anchor="middle" x="38" y="-7" font-family="Helvetica,sans-Serif" font-size="10.00">QJsonObject</text>
</a>
</g>
</g>
<!-- Node1&#45;&gt;Node6 -->
<g id="edge15_Node000001_Node000006" class="edge">
<title>Node1&#45;&gt;Node6</title>
<g id="a_edge15_Node000001_Node000006"><a xlink:title=" ">
<path fill="none" stroke="#63b8ff" d="M327.08,-219.94C248.98,-205.18 113.44,-167 48,-74 38.87,-61.02 36.8,-42.87 36.76,-29.3"/>
<polygon fill="#63b8ff" stroke="#63b8ff" points="40.26,-29.3 37.09,-19.19 33.26,-29.06 40.26,-29.3"/>
</a>
</g>
</g>
<!-- Node7 -->
<g id="Node000007" class="node">
<title>Node7</title>
<g id="a_Node000007"><a xlink:title=" ">
<polygon fill="#e0e0e0" stroke="#999999" points="463.5,-19 410.5,-19 410.5,0 463.5,0 463.5,-19"/>
<text text-anchor="middle" x="437" y="-7" font-family="Helvetica,sans-Serif" font-size="10.00">QString</text>
</a>
</g>
</g>
<!-- Node1&#45;&gt;Node7 -->
<g id="edge17_Node000001_Node000007" class="edge">
<title>Node1&#45;&gt;Node7</title>
<g id="a_edge17_Node000001_Node000007"><a xlink:title=" ">
<path fill="none" stroke="#63b8ff" d="M423.15,-219.9C442.16,-213.41 463.65,-202.37 475,-184 506.28,-133.39 468.82,-60.51 448.47,-27.68"/>
<polygon fill="#63b8ff" stroke="#63b8ff" points="451.37,-25.72 443.03,-19.19 445.48,-29.49 451.37,-25.72"/>
</a>
</g>
</g>
<!-- Node11 -->
<g id="Node000011" class="node">
<title>Node11</title>
<g id="a_Node000011"><a xlink:title=" ">
<polygon fill="#e0e0e0" stroke="#999999" points="578,-184 522,-184 522,-165 578,-165 578,-184"/>
<text text-anchor="middle" x="550" y="-172" font-family="Helvetica,sans-Serif" font-size="10.00">QObject</text>
</a>
</g>
</g>
<!-- Node1&#45;&gt;Node11 -->
<g id="edge16_Node000001_Node000011" class="edge">
<title>Node1&#45;&gt;Node11</title>
<g id="a_edge16_Node000001_Node000011"><a xlink:title=" ">
<path fill="none" stroke="#63b8ff" d="M412.35,-219.98C439.76,-211.13 482.89,-197.19 513.56,-187.28"/>
<polygon fill="#63b8ff" stroke="#63b8ff" points="515,-190.49 523.44,-184.08 512.85,-183.83 515,-190.49"/>
</a>
</g>
</g>
<!-- Node12 -->
<g id="Node000012" class="node">
<title>Node12</title>
<g id="a_Node000012"><a xlink:title=" ">
<polygon fill="#e0e0e0" stroke="#999999" points="676,-184 596,-184 596,-165 676,-165 676,-184"/>
<text text-anchor="middle" x="636" y="-172" font-family="Helvetica,sans-Serif" font-size="10.00">QTextStream</text>
</a>
</g>
</g>
<!-- Node1&#45;&gt;Node12 -->
<g id="edge18_Node000001_Node000012" class="edge">
<title>Node1&#45;&gt;Node12</title>
<g id="a_edge18_Node000001_Node000012"><a xlink:title=" ">
<path fill="none" stroke="#63b8ff" d="M426.17,-219.98C469.63,-210.77 539,-196.06 585.97,-186.11"/>
<polygon fill="#63b8ff" stroke="#63b8ff" points="586.88,-189.49 595.93,-183.99 585.42,-182.64 586.88,-189.49"/>
</a>
</g>
</g>
<!-- Node2&#45;&gt;Node3 -->
<g id="edge2_Node000002_Node000003" class="edge">
<title>Node2&#45;&gt;Node3</title>
<g id="a_edge2_Node000002_Node000003"><a xlink:title=" ">
<path fill="none" stroke="#63b8ff" d="M370.09,-164.98C354.45,-156.61 330.34,-143.7 312.12,-133.95"/>
<polygon fill="#63b8ff" stroke="#63b8ff" points="313.66,-130.8 303.2,-129.17 310.36,-136.98 313.66,-130.8"/>
</a>
</g>
</g>
<!-- Node2&#45;&gt;Node7 -->
<g id="edge12_Node000002_Node000007" class="edge">
<title>Node2&#45;&gt;Node7</title>
<g id="a_edge12_Node000002_Node000007"><a xlink:title=" ">
<path fill="none" stroke="#63b8ff" d="M389.2,-164.78C395.48,-147.55 409.69,-107.88 420,-74 424.57,-58.97 429.15,-41.74 432.39,-29.02"/>
<polygon fill="#63b8ff" stroke="#63b8ff" points="435.82,-29.73 434.87,-19.18 429.04,-28.02 435.82,-29.73"/>
</a>
</g>
</g>
<!-- Node3&#45;&gt;Node4 -->
<g id="edge3_Node000003_Node000004" class="edge">
<title>Node3&#45;&gt;Node4</title>
<g id="a_edge3_Node000003_Node000004"><a xlink:title=" ">
<path fill="none" stroke="#63b8ff" d="M260.49,-109.98C232.79,-101.09 189.14,-87.07 158.26,-77.15"/>
<polygon fill="#63b8ff" stroke="#63b8ff" points="159.31,-73.81 148.72,-74.08 157.17,-80.47 159.31,-73.81"/>
</a>
</g>
</g>
<!-- Node3&#45;&gt;Node6 -->
<g id="edge8_Node000003_Node000006" class="edge">
<title>Node3&#45;&gt;Node6</title>
<g id="a_edge8_Node000003_Node000006"><a xlink:title=" ">
<path fill="none" stroke="#63b8ff" d="M221.25,-111.82C165.34,-104.97 90.5,-92.66 67,-74 52.93,-62.83 45.43,-43.31 41.61,-28.85"/>
<polygon fill="#63b8ff" stroke="#63b8ff" points="45,-27.97 39.36,-19 38.18,-29.53 45,-27.97"/>
</a>
</g>
</g>
<!-- Node3&#45;&gt;Node7 -->
<g id="edge11_Node000003_Node000007" class="edge">
<title>Node3&#45;&gt;Node7</title>
<g id="a_edge11_Node000003_Node000007"><a xlink:title=" ">
<path fill="none" stroke="#63b8ff" d="M325.3,-109.96C348.62,-103.25 377.88,-91.96 399,-74 413.35,-61.79 423.73,-42.74 429.98,-28.69"/>
<polygon fill="#63b8ff" stroke="#63b8ff" points="433.35,-29.69 433.95,-19.11 426.88,-27.01 433.35,-29.69"/>
</a>
</g>
</g>
<!-- Node8 -->
<g id="Node000008" class="node">
<title>Node8</title>
<g id="a_Node000008"><a xlink:title=" ">
<polygon fill="#e0e0e0" stroke="#999999" points="257.5,-74 186.5,-74 186.5,-55 257.5,-55 257.5,-74"/>
<text text-anchor="middle" x="222" y="-62" font-family="Helvetica,sans-Serif" font-size="10.00">QJsonArray</text>
</a>
</g>
</g>
<!-- Node3&#45;&gt;Node8 -->
<g id="edge7_Node000003_Node000008" class="edge">
<title>Node3&#45;&gt;Node8</title>
<g id="a_edge7_Node000003_Node000008"><a xlink:title=" ">
<path fill="none" stroke="#63b8ff" d="M276.56,-109.98C266.85,-102.07 252.18,-90.11 240.5,-80.58"/>
<polygon fill="#63b8ff" stroke="#63b8ff" points="242.6,-77.78 232.63,-74.17 238.17,-83.2 242.6,-77.78"/>
</a>
</g>
</g>
<!-- Node9 -->
<g id="Node000009" class="node">
<title>Node9</title>
<g id="a_Node000009"><a xlink:title=" ">
<polygon fill="#e0e0e0" stroke="#999999" points="316.5,-74 275.5,-74 275.5,-55 316.5,-55 316.5,-74"/>
<text text-anchor="middle" x="296" y="-62" font-family="Helvetica,sans-Serif" font-size="10.00">QList</text>
</a>
</g>
</g>
<!-- Node3&#45;&gt;Node9 -->
<g id="edge9_Node000003_Node000009" class="edge">
<title>Node3&#45;&gt;Node9</title>
<g id="a_edge9_Node000003_Node000009"><a xlink:title=" ">
<path fill="none" stroke="#63b8ff" d="M288.49,-109.75C289.67,-102.8 291.36,-92.85 292.84,-84.13"/>
<polygon fill="#63b8ff" stroke="#63b8ff" points="296.32,-84.53 294.54,-74.09 289.42,-83.36 296.32,-84.53"/>
</a>
</g>
</g>
<!-- Node10 -->
<g id="Node000010" class="node">
<title>Node10</title>
<g id="a_Node000010"><a xlink:title=" ">
<polygon fill="#e0e0e0" stroke="#999999" points="389.5,-74 334.5,-74 334.5,-55 389.5,-55 389.5,-74"/>
<text text-anchor="middle" x="362" y="-62" font-family="Helvetica,sans-Serif" font-size="10.00">QPointF</text>
</a>
</g>
</g>
<!-- Node3&#45;&gt;Node10 -->
<g id="edge10_Node000003_Node000010" class="edge">
<title>Node3&#45;&gt;Node10</title>
<g id="a_edge10_Node000003_Node000010"><a xlink:title=" ">
<path fill="none" stroke="#63b8ff" d="M299.05,-109.98C310.46,-101.92 327.83,-89.65 341.43,-80.03"/>
<polygon fill="#63b8ff" stroke="#63b8ff" points="343.58,-82.8 349.73,-74.17 339.54,-77.08 343.58,-82.8"/>
</a>
</g>
</g>
<!-- Node5 -->
<g id="Node000005" class="node">
<title>Node5</title>
<g id="a_Node000005"><a xlink:title=" ">
<polygon fill="#e0e0e0" stroke="#999999" points="167.5,-19 94.5,-19 94.5,0 167.5,0 167.5,-19"/>
<text text-anchor="middle" x="131" y="-7" font-family="Helvetica,sans-Serif" font-size="10.00">QByteArray</text>
</a>
</g>
</g>
<!-- Node4&#45;&gt;Node5 -->
<g id="edge4_Node000004_Node000005" class="edge">
<title>Node4&#45;&gt;Node5</title>
<g id="a_edge4_Node000004_Node000005"><a xlink:title=" ">
<path fill="none" stroke="#63b8ff" d="M123.49,-54.75C124.67,-47.8 126.36,-37.85 127.84,-29.13"/>
<polygon fill="#63b8ff" stroke="#63b8ff" points="131.32,-29.53 129.54,-19.09 124.42,-28.36 131.32,-29.53"/>
</a>
</g>
</g>
<!-- Node4&#45;&gt;Node6 -->
<g id="edge5_Node000004_Node000006" class="edge">
<title>Node4&#45;&gt;Node6</title>
<g id="a_edge5_Node000004_Node000006"><a xlink:title=" ">
<path fill="none" stroke="#63b8ff" d="M108.5,-54.98C95.6,-46.84 75.9,-34.41 60.6,-24.76"/>
<polygon fill="#63b8ff" stroke="#63b8ff" points="62.07,-21.55 51.74,-19.17 58.33,-27.47 62.07,-21.55"/>
</a>
</g>
</g>
<!-- Node4&#45;&gt;Node7 -->
<g id="edge6_Node000004_Node000007" class="edge">
<title>Node4&#45;&gt;Node7</title>
<g id="a_edge6_Node000004_Node000007"><a xlink:title=" ">
<path fill="none" stroke="#63b8ff" d="M168.14,-55.74C231.04,-45.15 342.46,-26.41 400.13,-16.7"/>
<polygon fill="#63b8ff" stroke="#63b8ff" points="400.96,-20.11 410.24,-15 399.8,-13.21 400.96,-20.11"/>
</a>
</g>
</g>
</g>
</svg>
