<?xml version="1.0" encoding="UTF-8" standalone="no"?>
<!DOCTYPE svg PUBLIC "-//W3C//DTD SVG 1.1//EN"
 "http://www.w3.org/Graphics/SVG/1.1/DTD/svg11.dtd">
<!-- Generated by graphviz version 2.43.0 (0)
 -->
<!-- Title: ui/viewmodels/ExportSettingsViewModel.h Pages: 1 -->
<svg width="1004pt" height="214pt"
 viewBox="0.00 0.00 1003.50 214.00" xmlns="http://www.w3.org/2000/svg" xmlns:xlink="http://www.w3.org/1999/xlink">
<g id="graph0" class="graph" transform="scale(1 1) rotate(0) translate(4 210)">
<title>ui/viewmodels/ExportSettingsViewModel.h</title>
<!-- Node1 -->
<g id="Node000001" class="node">
<title>Node1</title>
<g id="a_Node000001"><a xlink:title=" ">
<polygon fill="#999999" stroke="#666666" points="376,-206 214,-206 214,-176 376,-176 376,-206"/>
<text text-anchor="start" x="222" y="-194" font-family="Helvetica,sans-Serif" font-size="10.00">ui/viewmodels/ExportSettings</text>
<text text-anchor="middle" x="295" y="-183" font-family="Helvetica,sans-Serif" font-size="10.00">ViewModel.h</text>
</a>
</g>
</g>
<!-- Node2 -->
<g id="Node000002" class="node">
<title>Node2</title>
<g id="a_Node000002"><a xlink:href="ConfigService_8h.html" target="_top" xlink:title=" ">
<polygon fill="white" stroke="#666666" points="248,-134.5 112,-134.5 112,-115.5 248,-115.5 248,-134.5"/>
<text text-anchor="middle" x="180" y="-122.5" font-family="Helvetica,sans-Serif" font-size="10.00">services/ConfigService.h</text>
</a>
</g>
</g>
<!-- Node1&#45;&gt;Node2 -->
<g id="edge1_Node000001_Node000002" class="edge">
<title>Node1&#45;&gt;Node2</title>
<g id="a_edge1_Node000001_Node000002"><a xlink:title=" ">
<path fill="none" stroke="#63b8ff" d="M269.76,-175.95C250.22,-165.08 223.32,-150.11 204.07,-139.4"/>
<polygon fill="#63b8ff" stroke="#63b8ff" points="205.74,-136.32 195.3,-134.52 202.34,-142.44 205.74,-136.32"/>
</a>
</g>
</g>
<!-- Node5 -->
<g id="Node000005" class="node">
<title>Node5</title>
<g id="a_Node000005"><a xlink:title=" ">
<polygon fill="#e0e0e0" stroke="#999999" points="286,-74 230,-74 230,-55 286,-55 286,-74"/>
<text text-anchor="middle" x="258" y="-62" font-family="Helvetica,sans-Serif" font-size="10.00">QObject</text>
</a>
</g>
</g>
<!-- Node1&#45;&gt;Node5 -->
<g id="edge22_Node000001_Node000005" class="edge">
<title>Node1&#45;&gt;Node5</title>
<g id="a_edge22_Node000001_Node000005"><a xlink:title=" ">
<path fill="none" stroke="#63b8ff" d="M290.76,-175.72C284.01,-153.02 270.85,-108.72 263.42,-83.75"/>
<polygon fill="#63b8ff" stroke="#63b8ff" points="266.75,-82.66 260.55,-74.07 260.04,-84.65 266.75,-82.66"/>
</a>
</g>
</g>
<!-- Node6 -->
<g id="Node000006" class="node">
<title>Node6</title>
<g id="a_Node000006"><a xlink:title=" ">
<polygon fill="#e0e0e0" stroke="#999999" points="396.5,-19 343.5,-19 343.5,0 396.5,0 396.5,-19"/>
<text text-anchor="middle" x="370" y="-7" font-family="Helvetica,sans-Serif" font-size="10.00">QString</text>
</a>
</g>
</g>
<!-- Node1&#45;&gt;Node6 -->
<g id="edge23_Node000001_Node000006" class="edge">
<title>Node1&#45;&gt;Node6</title>
<g id="a_edge23_Node000001_Node000006"><a xlink:title=" ">
<path fill="none" stroke="#63b8ff" d="M296.98,-175.87C300.97,-150.48 311.47,-95.95 333,-55 338.41,-44.7 346.5,-34.62 353.73,-26.66"/>
<polygon fill="#63b8ff" stroke="#63b8ff" points="356.46,-28.87 360.81,-19.21 351.38,-24.05 356.46,-28.87"/>
</a>
</g>
</g>
<!-- Node8 -->
<g id="Node000008" class="node">
<title>Node8</title>
<g id="a_Node000008"><a xlink:href="ParallelExportService_8h.html" target="_top" xlink:title=" ">
<polygon fill="white" stroke="#666666" points="643.5,-140 512.5,-140 512.5,-110 643.5,-110 643.5,-140"/>
<text text-anchor="start" x="520.5" y="-128" font-family="Helvetica,sans-Serif" font-size="10.00">services/export/Parallel</text>
<text text-anchor="middle" x="578" y="-117" font-family="Helvetica,sans-Serif" font-size="10.00">ExportService.h</text>
</a>
</g>
</g>
<!-- Node1&#45;&gt;Node8 -->
<g id="edge7_Node000001_Node000008" class="edge">
<title>Node1&#45;&gt;Node8</title>
<g id="a_edge7_Node000001_Node000008"><a xlink:title=" ">
<path fill="none" stroke="#63b8ff" d="M357.11,-175.95C401.06,-166.01 460.14,-152.65 506.14,-142.25"/>
<polygon fill="#63b8ff" stroke="#63b8ff" points="507.06,-145.63 516.04,-140.01 505.51,-138.8 507.06,-145.63"/>
</a>
</g>
</g>
<!-- Node3 -->
<g id="Node000003" class="node">
<title>Node3</title>
<g id="a_Node000003"><a xlink:title=" ">
<polygon fill="#e0e0e0" stroke="#999999" points="174,-74 98,-74 98,-55 174,-55 174,-74"/>
<text text-anchor="middle" x="136" y="-62" font-family="Helvetica,sans-Serif" font-size="10.00">QJsonObject</text>
</a>
</g>
</g>
<!-- Node2&#45;&gt;Node3 -->
<g id="edge2_Node000002_Node000003" class="edge">
<title>Node2&#45;&gt;Node3</title>
<g id="a_edge2_Node000002_Node000003"><a xlink:title=" ">
<path fill="none" stroke="#63b8ff" d="M173.51,-115.37C167.01,-106.73 156.84,-93.2 148.72,-82.42"/>
<polygon fill="#63b8ff" stroke="#63b8ff" points="151.33,-80.06 142.52,-74.17 145.73,-84.26 151.33,-80.06"/>
</a>
</g>
</g>
<!-- Node4 -->
<g id="Node000004" class="node">
<title>Node4</title>
<g id="a_Node000004"><a xlink:title=" ">
<polygon fill="#e0e0e0" stroke="#999999" points="397.5,-74 342.5,-74 342.5,-55 397.5,-55 397.5,-74"/>
<text text-anchor="middle" x="370" y="-62" font-family="Helvetica,sans-Serif" font-size="10.00">QMutex</text>
</a>
</g>
</g>
<!-- Node2&#45;&gt;Node4 -->
<g id="edge3_Node000002_Node000004" class="edge">
<title>Node2&#45;&gt;Node4</title>
<g id="a_edge3_Node000002_Node000004"><a xlink:title=" ">
<path fill="none" stroke="#63b8ff" d="M207.63,-115.49C240.55,-105.36 295.73,-88.37 332.49,-77.05"/>
<polygon fill="#63b8ff" stroke="#63b8ff" points="333.81,-80.3 342.34,-74.02 331.75,-73.61 333.81,-80.3"/>
</a>
</g>
</g>
<!-- Node2&#45;&gt;Node5 -->
<g id="edge4_Node000002_Node000005" class="edge">
<title>Node2&#45;&gt;Node5</title>
<g id="a_edge4_Node000002_Node000005"><a xlink:title=" ">
<path fill="none" stroke="#63b8ff" d="M191.51,-115.37C203.84,-106.12 223.62,-91.28 238.41,-80.19"/>
<polygon fill="#63b8ff" stroke="#63b8ff" points="240.54,-82.97 246.44,-74.17 236.34,-77.37 240.54,-82.97"/>
</a>
</g>
</g>
<!-- Node2&#45;&gt;Node6 -->
<g id="edge5_Node000002_Node000006" class="edge">
<title>Node2&#45;&gt;Node6</title>
<g id="a_edge5_Node000002_Node000006"><a xlink:title=" ">
<path fill="none" stroke="#63b8ff" d="M182.77,-115.39C187.91,-100.77 200.34,-71.11 221,-55 253.75,-29.45 300.95,-18.54 333.4,-13.9"/>
<polygon fill="#63b8ff" stroke="#63b8ff" points="333.92,-17.36 343.39,-12.6 333.02,-10.42 333.92,-17.36"/>
</a>
</g>
</g>
<!-- Node7 -->
<g id="Node000007" class="node">
<title>Node7</title>
<g id="a_Node000007"><a xlink:title=" ">
<polygon fill="#e0e0e0" stroke="#999999" points="80,-74 0,-74 0,-55 80,-55 80,-74"/>
<text text-anchor="middle" x="40" y="-62" font-family="Helvetica,sans-Serif" font-size="10.00">QVariantMap</text>
</a>
</g>
</g>
<!-- Node2&#45;&gt;Node7 -->
<g id="edge6_Node000002_Node000007" class="edge">
<title>Node2&#45;&gt;Node7</title>
<g id="a_edge6_Node000002_Node000007"><a xlink:title=" ">
<path fill="none" stroke="#63b8ff" d="M159.64,-115.49C136,-105.62 96.8,-89.23 69.75,-77.93"/>
<polygon fill="#63b8ff" stroke="#63b8ff" points="70.96,-74.64 60.38,-74.02 68.26,-81.1 70.96,-74.64"/>
</a>
</g>
</g>
<!-- Node8&#45;&gt;Node4 -->
<g id="edge15_Node000008_Node000004" class="edge">
<title>Node8&#45;&gt;Node4</title>
<g id="a_edge15_Node000008_Node000004"><a xlink:title=" ">
<path fill="none" stroke="#63b8ff" d="M528.18,-109.99C491.15,-99.57 441.4,-85.58 407.65,-76.09"/>
<polygon fill="#63b8ff" stroke="#63b8ff" points="408.3,-72.64 397.72,-73.3 406.4,-79.37 408.3,-72.64"/>
</a>
</g>
</g>
<!-- Node8&#45;&gt;Node5 -->
<g id="edge16_Node000008_Node000005" class="edge">
<title>Node8&#45;&gt;Node5</title>
<g id="a_edge16_Node000008_Node000005"><a xlink:title=" ">
<path fill="none" stroke="#63b8ff" d="M512.47,-112.02C447.33,-100.11 349.64,-82.25 296.23,-72.49"/>
<polygon fill="#63b8ff" stroke="#63b8ff" points="296.63,-69 286.17,-70.65 295.37,-75.89 296.63,-69"/>
</a>
</g>
</g>
<!-- Node8&#45;&gt;Node6 -->
<g id="edge19_Node000008_Node000006" class="edge">
<title>Node8&#45;&gt;Node6</title>
<g id="a_edge19_Node000008_Node000006"><a xlink:title=" ">
<path fill="none" stroke="#63b8ff" d="M528.79,-109.98C502.89,-101.51 471.16,-89.37 445,-74 422.41,-60.73 399.93,-40.53 385.56,-26.49"/>
<polygon fill="#63b8ff" stroke="#63b8ff" points="388.02,-23.99 378.47,-19.41 383.07,-28.95 388.02,-23.99"/>
</a>
</g>
</g>
<!-- Node9 -->
<g id="Node000009" class="node">
<title>Node9</title>
<g id="a_Node000009"><a xlink:href="ExportProgress_8h.html" target="_top" xlink:title=" ">
<polygon fill="white" stroke="#666666" points="897.5,-74 798.5,-74 798.5,-55 897.5,-55 897.5,-74"/>
<text text-anchor="middle" x="848" y="-62" font-family="Helvetica,sans-Serif" font-size="10.00">ExportProgress.h</text>
</a>
</g>
</g>
<!-- Node8&#45;&gt;Node9 -->
<g id="edge8_Node000008_Node000009" class="edge">
<title>Node8&#45;&gt;Node9</title>
<g id="a_edge8_Node000008_Node000009"><a xlink:title=" ">
<path fill="none" stroke="#63b8ff" d="M642.67,-109.99C690.58,-99.61 754.88,-85.68 798.68,-76.19"/>
<polygon fill="#63b8ff" stroke="#63b8ff" points="799.49,-79.59 808.52,-74.05 798.01,-72.75 799.49,-79.59"/>
</a>
</g>
</g>
<!-- Node11 -->
<g id="Node000011" class="node">
<title>Node11</title>
<g id="a_Node000011"><a xlink:title=" ">
<polygon fill="#e0e0e0" stroke="#999999" points="947.5,-19 902.5,-19 902.5,0 947.5,0 947.5,-19"/>
<text text-anchor="middle" x="925" y="-7" font-family="Helvetica,sans-Serif" font-size="10.00">QMap</text>
</a>
</g>
</g>
<!-- Node8&#45;&gt;Node11 -->
<g id="edge14_Node000008_Node000011" class="edge">
<title>Node8&#45;&gt;Node11</title>
<g id="a_edge14_Node000008_Node000011"><a xlink:title=" ">
<path fill="none" stroke="#63b8ff" d="M643.86,-122.22C728.47,-118.59 868.98,-107.53 907,-74 919.48,-63 923.59,-44.05 924.82,-29.71"/>
<polygon fill="#63b8ff" stroke="#63b8ff" points="928.32,-29.58 925.28,-19.43 921.33,-29.27 928.32,-29.58"/>
</a>
</g>
</g>
<!-- Node13 -->
<g id="Node000013" class="node">
<title>Node13</title>
<g id="a_Node000013"><a xlink:title=" ">
<polygon fill="#e0e0e0" stroke="#999999" points="995.5,-74 954.5,-74 954.5,-55 995.5,-55 995.5,-74"/>
<text text-anchor="middle" x="975" y="-62" font-family="Helvetica,sans-Serif" font-size="10.00">QList</text>
</a>
</g>
</g>
<!-- Node8&#45;&gt;Node13 -->
<g id="edge13_Node000008_Node000013" class="edge">
<title>Node8&#45;&gt;Node13</title>
<g id="a_edge13_Node000008_Node000013"><a xlink:title=" ">
<path fill="none" stroke="#63b8ff" d="M643.72,-116.94C716.5,-108.66 837.16,-93.54 940,-74 941.46,-73.72 942.95,-73.42 944.45,-73.11"/>
<polygon fill="#63b8ff" stroke="#63b8ff" points="945.36,-76.49 954.35,-70.88 943.82,-69.66 945.36,-76.49"/>
</a>
</g>
</g>
<!-- Node14 -->
<g id="Node000014" class="node">
<title>Node14</title>
<g id="a_Node000014"><a xlink:title=" ">
<polygon fill="#e0e0e0" stroke="#999999" points="513.5,-74 454.5,-74 454.5,-55 513.5,-55 513.5,-74"/>
<text text-anchor="middle" x="484" y="-62" font-family="Helvetica,sans-Serif" font-size="10.00">QPointer</text>
</a>
</g>
</g>
<!-- Node8&#45;&gt;Node14 -->
<g id="edge17_Node000008_Node000014" class="edge">
<title>Node8&#45;&gt;Node14</title>
<g id="a_edge17_Node000008_Node000014"><a xlink:title=" ">
<path fill="none" stroke="#63b8ff" d="M555.25,-109.84C540.4,-100.6 521.1,-88.59 506.34,-79.4"/>
<polygon fill="#63b8ff" stroke="#63b8ff" points="508.15,-76.41 497.81,-74.09 504.45,-82.35 508.15,-76.41"/>
</a>
</g>
</g>
<!-- Node15 -->
<g id="Node000015" class="node">
<title>Node15</title>
<g id="a_Node000015"><a xlink:title=" ">
<polygon fill="#e0e0e0" stroke="#999999" points="624,-74 532,-74 532,-55 624,-55 624,-74"/>
<text text-anchor="middle" x="578" y="-62" font-family="Helvetica,sans-Serif" font-size="10.00">QSharedPointer</text>
</a>
</g>
</g>
<!-- Node8&#45;&gt;Node15 -->
<g id="edge18_Node000008_Node000015" class="edge">
<title>Node8&#45;&gt;Node15</title>
<g id="a_edge18_Node000008_Node000015"><a xlink:title=" ">
<path fill="none" stroke="#63b8ff" d="M578,-109.84C578,-102.21 578,-92.7 578,-84.45"/>
<polygon fill="#63b8ff" stroke="#63b8ff" points="581.5,-84.27 578,-74.27 574.5,-84.27 581.5,-84.27"/>
</a>
</g>
</g>
<!-- Node16 -->
<g id="Node000016" class="node">
<title>Node16</title>
<g id="a_Node000016"><a xlink:title=" ">
<polygon fill="#e0e0e0" stroke="#999999" points="712,-74 642,-74 642,-55 712,-55 712,-74"/>
<text text-anchor="middle" x="677" y="-62" font-family="Helvetica,sans-Serif" font-size="10.00">QStringList</text>
</a>
</g>
</g>
<!-- Node8&#45;&gt;Node16 -->
<g id="edge20_Node000008_Node000016" class="edge">
<title>Node8&#45;&gt;Node16</title>
<g id="a_edge20_Node000008_Node000016"><a xlink:title=" ">
<path fill="none" stroke="#63b8ff" d="M601.71,-109.99C617.35,-100.75 637.74,-88.7 653.36,-79.47"/>
<polygon fill="#63b8ff" stroke="#63b8ff" points="655.55,-82.24 662.38,-74.14 651.99,-76.21 655.55,-82.24"/>
</a>
</g>
</g>
<!-- Node17 -->
<g id="Node000017" class="node">
<title>Node17</title>
<g id="a_Node000017"><a xlink:title=" ">
<polygon fill="#e0e0e0" stroke="#999999" points="780,-74 730,-74 730,-55 780,-55 780,-74"/>
<text text-anchor="middle" x="755" y="-62" font-family="Helvetica,sans-Serif" font-size="10.00">atomic</text>
</a>
</g>
</g>
<!-- Node8&#45;&gt;Node17 -->
<g id="edge21_Node000008_Node000017" class="edge">
<title>Node8&#45;&gt;Node17</title>
<g id="a_edge21_Node000008_Node000017"><a xlink:title=" ">
<path fill="none" stroke="#63b8ff" d="M620.4,-109.99C650.95,-99.89 691.68,-86.43 720.31,-76.97"/>
<polygon fill="#63b8ff" stroke="#63b8ff" points="721.49,-80.26 729.89,-73.8 719.3,-73.61 721.49,-80.26"/>
</a>
</g>
</g>
<!-- Node9&#45;&gt;Node6 -->
<g id="edge12_Node000009_Node000006" class="edge">
<title>Node9&#45;&gt;Node6</title>
<g id="a_edge12_Node000009_Node000006"><a xlink:title=" ">
<path fill="none" stroke="#63b8ff" d="M798.44,-56.22C795.25,-55.8 792.08,-55.39 789,-55 647.86,-37.35 479.41,-20.84 406.55,-13.92"/>
<polygon fill="#63b8ff" stroke="#63b8ff" points="406.8,-10.43 396.51,-12.97 406.14,-17.4 406.8,-10.43"/>
</a>
</g>
</g>
<!-- Node10 -->
<g id="Node000010" class="node">
<title>Node10</title>
<g id="a_Node000010"><a xlink:title=" ">
<polygon fill="#e0e0e0" stroke="#999999" points="794,-19 722,-19 722,0 794,0 794,-19"/>
<text text-anchor="middle" x="758" y="-7" font-family="Helvetica,sans-Serif" font-size="10.00">QDateTime</text>
</a>
</g>
</g>
<!-- Node9&#45;&gt;Node10 -->
<g id="edge9_Node000009_Node000010" class="edge">
<title>Node9&#45;&gt;Node10</title>
<g id="a_edge9_Node000009_Node000010"><a xlink:title=" ">
<path fill="none" stroke="#63b8ff" d="M833.54,-54.98C819.58,-46.77 798.21,-34.18 781.75,-24.49"/>
<polygon fill="#63b8ff" stroke="#63b8ff" points="783.12,-21.23 772.72,-19.17 779.56,-27.26 783.12,-21.23"/>
</a>
</g>
</g>
<!-- Node9&#45;&gt;Node11 -->
<g id="edge10_Node000009_Node000011" class="edge">
<title>Node9&#45;&gt;Node11</title>
<g id="a_edge10_Node000009_Node000011"><a xlink:title=" ">
<path fill="none" stroke="#63b8ff" d="M860.37,-54.98C872.09,-46.92 889.92,-34.65 903.89,-25.03"/>
<polygon fill="#63b8ff" stroke="#63b8ff" points="906.15,-27.72 912.4,-19.17 902.18,-21.96 906.15,-27.72"/>
</a>
</g>
</g>
<!-- Node12 -->
<g id="Node000012" class="node">
<title>Node12</title>
<g id="a_Node000012"><a xlink:title=" ">
<polygon fill="#e0e0e0" stroke="#999999" points="883.5,-19 812.5,-19 812.5,0 883.5,0 883.5,-19"/>
<text text-anchor="middle" x="848" y="-7" font-family="Helvetica,sans-Serif" font-size="10.00">QMetaType</text>
</a>
</g>
</g>
<!-- Node9&#45;&gt;Node12 -->
<g id="edge11_Node000009_Node000012" class="edge">
<title>Node9&#45;&gt;Node12</title>
<g id="a_edge11_Node000009_Node000012"><a xlink:title=" ">
<path fill="none" stroke="#63b8ff" d="M848,-54.75C848,-47.8 848,-37.85 848,-29.13"/>
<polygon fill="#63b8ff" stroke="#63b8ff" points="851.5,-29.09 848,-19.09 844.5,-29.09 851.5,-29.09"/>
</a>
</g>
</g>
</g>
</svg>
