<?xml version="1.0" encoding="UTF-8" standalone="no"?>
<!DOCTYPE svg PUBLIC "-//W3C//DTD SVG 1.1//EN"
 "http://www.w3.org/Graphics/SVG/1.1/DTD/svg11.dtd">
<!-- Generated by graphviz version 2.43.0 (0)
 -->
<!-- Title: services/ExportService_Pipeline.h Pages: 1 -->
<svg width="1508pt" height="368pt"
 viewBox="0.00 0.00 1508.32 368.00" xmlns="http://www.w3.org/2000/svg" xmlns:xlink="http://www.w3.org/1999/xlink">
<g id="graph0" class="graph" transform="scale(1 1) rotate(0) translate(4 364)">
<title>services/ExportService_Pipeline.h</title>
<!-- Node1 -->
<g id="Node000001" class="node">
<title>Node1</title>
<g id="a_Node000001"><a xlink:title=" ">
<polygon fill="#999999" stroke="#666666" points="704.32,-360 576.32,-360 576.32,-330 704.32,-330 704.32,-360"/>
<text text-anchor="start" x="584.32" y="-348" font-family="Helvetica,sans-Serif" font-size="10.00">services/ExportService</text>
<text text-anchor="middle" x="640.32" y="-337" font-family="Helvetica,sans-Serif" font-size="10.00">_Pipeline.h</text>
</a>
</g>
</g>
<!-- Node2 -->
<g id="Node000002" class="node">
<title>Node2</title>
<g id="a_Node000002"><a xlink:href="ExportService_8h.html" target="_top" xlink:title=" ">
<polygon fill="white" stroke="#666666" points="326.82,-294 233.82,-294 233.82,-275 326.82,-275 326.82,-294"/>
<text text-anchor="middle" x="280.32" y="-282" font-family="Helvetica,sans-Serif" font-size="10.00">ExportService.h</text>
</a>
</g>
</g>
<!-- Node1&#45;&gt;Node2 -->
<g id="edge1_Node000001_Node000002" class="edge">
<title>Node1&#45;&gt;Node2</title>
<g id="a_edge1_Node000001_Node000002"><a xlink:title=" ">
<path fill="none" stroke="#63b8ff" d="M575.96,-333.54C508,-322.5 401.91,-305.26 337,-294.71"/>
<polygon fill="#63b8ff" stroke="#63b8ff" points="337.38,-291.23 326.95,-293.08 336.26,-298.14 337.38,-291.23"/>
</a>
</g>
</g>
<!-- Node12 -->
<g id="Node000012" class="node">
<title>Node12</title>
<g id="a_Node000012"><a xlink:href="SymbolData_8h.html" target="_top" xlink:title=" ">
<polygon fill="white" stroke="#666666" points="177.32,-129 91.32,-129 91.32,-110 177.32,-110 177.32,-129"/>
<text text-anchor="middle" x="134.32" y="-117" font-family="Helvetica,sans-Serif" font-size="10.00">SymbolData.h</text>
</a>
</g>
</g>
<!-- Node1&#45;&gt;Node12 -->
<g id="edge43_Node000001_Node000012" class="edge">
<title>Node1&#45;&gt;Node12</title>
<g id="a_edge43_Node000001_Node000012"><a xlink:title=" ">
<path fill="none" stroke="#63b8ff" d="M576.2,-343.14C493.27,-340.5 345.13,-330.51 224.32,-294 172.38,-278.3 145.01,-284.42 115.32,-239 97.31,-211.45 104.83,-197.05 112.32,-165 114.52,-155.57 119.03,-145.85 123.39,-137.91"/>
<polygon fill="#63b8ff" stroke="#63b8ff" points="126.44,-139.64 128.48,-129.24 120.4,-136.09 126.44,-139.64"/>
</a>
</g>
</g>
<!-- Node15 -->
<g id="Node000015" class="node">
<title>Node15</title>
<g id="a_Node000015"><a xlink:title=" ">
<polygon fill="#e0e0e0" stroke="#999999" points="476.82,-239 405.82,-239 405.82,-220 476.82,-220 476.82,-239"/>
<text text-anchor="middle" x="441.32" y="-227" font-family="Helvetica,sans-Serif" font-size="10.00">QAtomicInt</text>
</a>
</g>
</g>
<!-- Node1&#45;&gt;Node15 -->
<g id="edge58_Node000001_Node000015" class="edge">
<title>Node1&#45;&gt;Node15</title>
<g id="a_edge58_Node000001_Node000015"><a xlink:title=" ">
<path fill="none" stroke="#63b8ff" d="M603.19,-329.98C580.64,-320.88 551.62,-308.12 527.32,-294 502.45,-279.55 476.17,-259.32 459.31,-245.61"/>
<polygon fill="#63b8ff" stroke="#63b8ff" points="461.35,-242.75 451.4,-239.1 456.9,-248.16 461.35,-242.75"/>
</a>
</g>
</g>
<!-- Node16 -->
<g id="Node000016" class="node">
<title>Node16</title>
<g id="a_Node000016"><a xlink:title=" ">
<polygon fill="#e0e0e0" stroke="#999999" points="549.82,-239 494.82,-239 494.82,-220 549.82,-220 549.82,-239"/>
<text text-anchor="middle" x="522.32" y="-227" font-family="Helvetica,sans-Serif" font-size="10.00">QMutex</text>
</a>
</g>
</g>
<!-- Node1&#45;&gt;Node16 -->
<g id="edge60_Node000001_Node000016" class="edge">
<title>Node1&#45;&gt;Node16</title>
<g id="a_edge60_Node000001_Node000016"><a xlink:title=" ">
<path fill="none" stroke="#63b8ff" d="M595.3,-329.84C576.62,-321.95 556.14,-310.33 542.32,-294 531.71,-281.45 526.71,-263.25 524.37,-249.55"/>
<polygon fill="#63b8ff" stroke="#63b8ff" points="527.8,-248.75 522.96,-239.32 520.86,-249.71 527.8,-248.75"/>
</a>
</g>
</g>
<!-- Node19 -->
<g id="Node000019" class="node">
<title>Node19</title>
<g id="a_Node000019"><a xlink:title=" ">
<polygon fill="#e0e0e0" stroke="#999999" points="387.82,-239 308.82,-239 308.82,-220 387.82,-220 387.82,-239"/>
<text text-anchor="middle" x="348.32" y="-227" font-family="Helvetica,sans-Serif" font-size="10.00">QThreadPool</text>
</a>
</g>
</g>
<!-- Node1&#45;&gt;Node19 -->
<g id="edge63_Node000001_Node000019" class="edge">
<title>Node1&#45;&gt;Node19</title>
<g id="a_edge63_Node000001_Node000019"><a xlink:title=" ">
<path fill="none" stroke="#63b8ff" d="M596.87,-329.97C567.9,-320.39 529.09,-307.09 495.32,-294 453.4,-277.75 405.78,-256.69 376.39,-243.38"/>
<polygon fill="#63b8ff" stroke="#63b8ff" points="377.71,-240.14 367.16,-239.18 374.82,-246.51 377.71,-240.14"/>
</a>
</g>
</g>
<!-- Node20 -->
<g id="Node000020" class="node">
<title>Node20</title>
<g id="a_Node000020"><a xlink:href="ComponentExportStatus_8h.html" target="_top" xlink:title=" ">
<polygon fill="white" stroke="#666666" points="1009.82,-239 826.82,-239 826.82,-220 1009.82,-220 1009.82,-239"/>
<text text-anchor="middle" x="918.32" y="-227" font-family="Helvetica,sans-Serif" font-size="10.00">models/ComponentExportStatus.h</text>
</a>
</g>
</g>
<!-- Node1&#45;&gt;Node20 -->
<g id="edge34_Node000001_Node000020" class="edge">
<title>Node1&#45;&gt;Node20</title>
<g id="a_edge34_Node000001_Node000020"><a xlink:title=" ">
<path fill="none" stroke="#63b8ff" d="M668.35,-329.85C708.02,-309.83 775.93,-275.57 777.32,-275 809.83,-261.78 847.83,-249.99 876.18,-241.87"/>
<polygon fill="#63b8ff" stroke="#63b8ff" points="877.49,-245.14 886.16,-239.05 875.59,-238.4 877.49,-245.14"/>
</a>
</g>
</g>
<!-- Node23 -->
<g id="Node000023" class="node">
<title>Node23</title>
<g id="a_Node000023"><a xlink:href="BoundedThreadSafeQueue_8h.html" target="_top" xlink:title=" ">
<polygon fill="white" stroke="#666666" points="729.82,-294 550.82,-294 550.82,-275 729.82,-275 729.82,-294"/>
<text text-anchor="middle" x="640.32" y="-282" font-family="Helvetica,sans-Serif" font-size="10.00">utils/BoundedThreadSafeQueue.h</text>
</a>
</g>
</g>
<!-- Node1&#45;&gt;Node23 -->
<g id="edge44_Node000001_Node000023" class="edge">
<title>Node1&#45;&gt;Node23</title>
<g id="a_edge44_Node000001_Node000023"><a xlink:title=" ">
<path fill="none" stroke="#63b8ff" d="M640.32,-329.84C640.32,-322.21 640.32,-312.7 640.32,-304.45"/>
<polygon fill="#63b8ff" stroke="#63b8ff" points="643.82,-304.27 640.32,-294.27 636.82,-304.27 643.82,-304.27"/>
</a>
</g>
</g>
<!-- Node26 -->
<g id="Node000026" class="node">
<title>Node26</title>
<g id="a_Node000026"><a xlink:href="FetchWorker_8h.html" target="_top" xlink:title=" ">
<polygon fill="white" stroke="#666666" points="912.32,-294 786.32,-294 786.32,-275 912.32,-275 912.32,-294"/>
<text text-anchor="middle" x="849.32" y="-282" font-family="Helvetica,sans-Serif" font-size="10.00">workers/FetchWorker.h</text>
</a>
</g>
</g>
<!-- Node1&#45;&gt;Node26 -->
<g id="edge49_Node000001_Node000026" class="edge">
<title>Node1&#45;&gt;Node26</title>
<g id="a_edge49_Node000001_Node000026"><a xlink:title=" ">
<path fill="none" stroke="#63b8ff" d="M690.38,-329.99C726.61,-319.85 774.94,-306.32 808.76,-296.85"/>
<polygon fill="#63b8ff" stroke="#63b8ff" points="810.08,-300.12 818.76,-294.05 808.19,-293.38 810.08,-300.12"/>
</a>
</g>
</g>
<!-- Node27 -->
<g id="Node000027" class="node">
<title>Node27</title>
<g id="a_Node000027"><a xlink:title=" ">
<polygon fill="#e0e0e0" stroke="#999999" points="1500.32,-239 1358.32,-239 1358.32,-220 1500.32,-220 1500.32,-239"/>
<text text-anchor="middle" x="1429.32" y="-227" font-family="Helvetica,sans-Serif" font-size="10.00">QNetworkAccessManager</text>
</a>
</g>
</g>
<!-- Node1&#45;&gt;Node27 -->
<g id="edge61_Node000001_Node000027" class="edge">
<title>Node1&#45;&gt;Node27</title>
<g id="a_edge61_Node000001_Node000027"><a xlink:title=" ">
<path fill="none" stroke="#63b8ff" d="M704.33,-337.73C762.09,-330.87 848.88,-317.58 921.32,-294 939.66,-288.03 941.75,-280.2 960.32,-275 1124.43,-229.09 1174.69,-255.16 1348.25,-239.06"/>
<polygon fill="#63b8ff" stroke="#63b8ff" points="1348.61,-242.55 1358.23,-238.1 1347.94,-235.58 1348.61,-242.55"/>
</a>
</g>
</g>
<!-- Node31 -->
<g id="Node000031" class="node">
<title>Node31</title>
<g id="a_Node000031"><a xlink:title=" ">
<polygon fill="#e0e0e0" stroke="#999999" points="1013.82,-294 968.82,-294 968.82,-275 1013.82,-275 1013.82,-294"/>
<text text-anchor="middle" x="991.32" y="-282" font-family="Helvetica,sans-Serif" font-size="10.00">QMap</text>
</a>
</g>
</g>
<!-- Node1&#45;&gt;Node31 -->
<g id="edge59_Node000001_Node000031" class="edge">
<title>Node1&#45;&gt;Node31</title>
<g id="a_edge59_Node000001_Node000031"><a xlink:title=" ">
<path fill="none" stroke="#63b8ff" d="M704.59,-335.07C768.22,-325.92 868.3,-310.71 954.32,-294 955.78,-293.72 957.26,-293.42 958.76,-293.11"/>
<polygon fill="#63b8ff" stroke="#63b8ff" points="959.64,-296.5 968.67,-290.96 958.16,-289.66 959.64,-296.5"/>
</a>
</g>
</g>
<!-- Node32 -->
<g id="Node000032" class="node">
<title>Node32</title>
<g id="a_Node000032"><a xlink:title=" ">
<polygon fill="#e0e0e0" stroke="#999999" points="1072.32,-294 1032.32,-294 1032.32,-275 1072.32,-275 1072.32,-294"/>
<text text-anchor="middle" x="1052.32" y="-282" font-family="Helvetica,sans-Serif" font-size="10.00">QSet</text>
</a>
</g>
</g>
<!-- Node1&#45;&gt;Node32 -->
<g id="edge62_Node000001_Node000032" class="edge">
<title>Node1&#45;&gt;Node32</title>
<g id="a_edge62_Node000001_Node000032"><a xlink:title=" ">
<path fill="none" stroke="#63b8ff" d="M704.53,-338.69C778.94,-331.85 905.28,-318.12 1022.3,-293.92"/>
<polygon fill="#63b8ff" stroke="#63b8ff" points="1023.07,-297.33 1032.14,-291.85 1021.64,-290.48 1023.07,-297.33"/>
</a>
</g>
</g>
<!-- Node3 -->
<g id="Node000003" class="node">
<title>Node3</title>
<g id="a_Node000003"><a xlink:href="ComponentData_8h.html" target="_top" xlink:title=" ">
<polygon fill="white" stroke="#666666" points="461.32,-184 317.32,-184 317.32,-165 461.32,-165 461.32,-184"/>
<text text-anchor="middle" x="389.32" y="-172" font-family="Helvetica,sans-Serif" font-size="10.00">models/ComponentData.h</text>
</a>
</g>
</g>
<!-- Node2&#45;&gt;Node3 -->
<g id="edge2_Node000002_Node000003" class="edge">
<title>Node2&#45;&gt;Node3</title>
<g id="a_edge2_Node000002_Node000003"><a xlink:title=" ">
<path fill="none" stroke="#63b8ff" d="M274.53,-274.87C266.57,-261.82 254.52,-236.82 266.32,-220 277.54,-204.01 295.1,-193.74 313.48,-187.16"/>
<polygon fill="#63b8ff" stroke="#63b8ff" points="314.7,-190.44 323.14,-184.04 312.55,-183.78 314.7,-190.44"/>
</a>
</g>
</g>
<!-- Node4 -->
<g id="Node000004" class="node">
<title>Node4</title>
<g id="a_Node000004"><a xlink:href="FootprintData_8h.html" target="_top" xlink:title=" ">
<polygon fill="white" stroke="#666666" points="335.32,-129 243.32,-129 243.32,-110 335.32,-110 335.32,-129"/>
<text text-anchor="middle" x="289.32" y="-117" font-family="Helvetica,sans-Serif" font-size="10.00">FootprintData.h</text>
</a>
</g>
</g>
<!-- Node2&#45;&gt;Node4 -->
<g id="edge25_Node000002_Node000004" class="edge">
<title>Node2&#45;&gt;Node4</title>
<g id="a_edge25_Node000002_Node000004"><a xlink:title=" ">
<path fill="none" stroke="#63b8ff" d="M233.77,-280.62C183.42,-275.4 113.11,-260.79 135.32,-220 159.98,-174.71 215.11,-146.89 252.27,-132.57"/>
<polygon fill="#63b8ff" stroke="#63b8ff" points="253.6,-135.81 261.76,-129.05 251.17,-129.24 253.6,-135.81"/>
</a>
</g>
</g>
<!-- Node5 -->
<g id="Node000005" class="node">
<title>Node5</title>
<g id="a_Node000005"><a xlink:href="Model3DData_8h.html" target="_top" xlink:title=" ">
<polygon fill="white" stroke="#666666" points="567.32,-74 475.32,-74 475.32,-55 567.32,-55 567.32,-74"/>
<text text-anchor="middle" x="521.32" y="-62" font-family="Helvetica,sans-Serif" font-size="10.00">Model3DData.h</text>
</a>
</g>
</g>
<!-- Node2&#45;&gt;Node5 -->
<g id="edge26_Node000002_Node000005" class="edge">
<title>Node2&#45;&gt;Node5</title>
<g id="a_edge26_Node000002_Node000005"><a xlink:title=" ">
<path fill="none" stroke="#63b8ff" d="M280.44,-274.65C281.13,-260.85 284.58,-234.3 300.32,-220 357.5,-168.09 397.37,-209.34 470.32,-184 522.33,-165.93 552.29,-175.78 581.32,-129 593.37,-109.58 570.44,-91.02 549.54,-79.03"/>
<polygon fill="#63b8ff" stroke="#63b8ff" points="550.98,-75.83 540.52,-74.17 547.65,-81.99 550.98,-75.83"/>
</a>
</g>
</g>
<!-- Node8 -->
<g id="Node000008" class="node">
<title>Node8</title>
<g id="a_Node000008"><a xlink:title=" ">
<polygon fill="#e0e0e0" stroke="#999999" points="405.82,-19 352.82,-19 352.82,0 405.82,0 405.82,-19"/>
<text text-anchor="middle" x="379.32" y="-7" font-family="Helvetica,sans-Serif" font-size="10.00">QString</text>
</a>
</g>
</g>
<!-- Node2&#45;&gt;Node8 -->
<g id="edge31_Node000002_Node000008" class="edge">
<title>Node2&#45;&gt;Node8</title>
<g id="a_edge31_Node000002_Node000008"><a xlink:title=" ">
<path fill="none" stroke="#63b8ff" d="M233.72,-280.54C198.1,-276.17 149.47,-265.41 115.32,-239 42.67,-182.83 -39.48,-123.82 21.32,-55 42.37,-31.17 255.21,-17.15 342.39,-12.37"/>
<polygon fill="#63b8ff" stroke="#63b8ff" points="342.82,-15.85 352.62,-11.82 342.44,-8.86 342.82,-15.85"/>
</a>
</g>
</g>
<!-- Node2&#45;&gt;Node12 -->
<g id="edge27_Node000002_Node000012" class="edge">
<title>Node2&#45;&gt;Node12</title>
<g id="a_edge27_Node000002_Node000012"><a xlink:title=" ">
<path fill="none" stroke="#63b8ff" d="M233.68,-276.19C193.56,-268.84 140.19,-256.15 127.32,-239 105.24,-209.58 117.35,-163.57 126.71,-138.42"/>
<polygon fill="#63b8ff" stroke="#63b8ff" points="130.01,-139.61 130.45,-129.02 123.5,-137.02 130.01,-139.61"/>
</a>
</g>
</g>
<!-- Node2&#45;&gt;Node15 -->
<g id="edge28_Node000002_Node000015" class="edge">
<title>Node2&#45;&gt;Node15</title>
<g id="a_edge28_Node000002_Node000015"><a xlink:title=" ">
<path fill="none" stroke="#63b8ff" d="M306.19,-274.98C333.1,-266.13 375.44,-252.19 405.55,-242.28"/>
<polygon fill="#63b8ff" stroke="#63b8ff" points="406.85,-245.53 415.25,-239.08 404.66,-238.88 406.85,-245.53"/>
</a>
</g>
</g>
<!-- Node2&#45;&gt;Node16 -->
<g id="edge29_Node000002_Node000016" class="edge">
<title>Node2&#45;&gt;Node16</title>
<g id="a_edge29_Node000002_Node000016"><a xlink:title=" ">
<path fill="none" stroke="#63b8ff" d="M321.02,-274.95C360.5,-266.6 422.36,-253.38 484.79,-239.31"/>
<polygon fill="#63b8ff" stroke="#63b8ff" points="485.83,-242.67 494.82,-237.05 484.29,-235.84 485.83,-242.67"/>
</a>
</g>
</g>
<!-- Node17 -->
<g id="Node000017" class="node">
<title>Node17</title>
<g id="a_Node000017"><a xlink:title=" ">
<polygon fill="#e0e0e0" stroke="#999999" points="624.32,-239 568.32,-239 568.32,-220 624.32,-220 624.32,-239"/>
<text text-anchor="middle" x="596.32" y="-227" font-family="Helvetica,sans-Serif" font-size="10.00">QObject</text>
</a>
</g>
</g>
<!-- Node2&#45;&gt;Node17 -->
<g id="edge30_Node000002_Node000017" class="edge">
<title>Node2&#45;&gt;Node17</title>
<g id="a_edge30_Node000002_Node000017"><a xlink:title=" ">
<path fill="none" stroke="#63b8ff" d="M326.89,-277.06C380.36,-269.44 470.92,-255.87 558.03,-239.14"/>
<polygon fill="#63b8ff" stroke="#63b8ff" points="558.93,-242.53 568.08,-237.19 557.6,-235.66 558.93,-242.53"/>
</a>
</g>
</g>
<!-- Node18 -->
<g id="Node000018" class="node">
<title>Node18</title>
<g id="a_Node000018"><a xlink:title=" ">
<polygon fill="#e0e0e0" stroke="#999999" points="214.32,-239 144.32,-239 144.32,-220 214.32,-220 214.32,-239"/>
<text text-anchor="middle" x="179.32" y="-227" font-family="Helvetica,sans-Serif" font-size="10.00">QStringList</text>
</a>
</g>
</g>
<!-- Node2&#45;&gt;Node18 -->
<g id="edge32_Node000002_Node000018" class="edge">
<title>Node2&#45;&gt;Node18</title>
<g id="a_edge32_Node000002_Node000018"><a xlink:title=" ">
<path fill="none" stroke="#63b8ff" d="M264.09,-274.98C248.14,-266.61 223.54,-253.7 204.94,-243.95"/>
<polygon fill="#63b8ff" stroke="#63b8ff" points="206.33,-240.72 195.84,-239.17 203.07,-246.92 206.33,-240.72"/>
</a>
</g>
</g>
<!-- Node2&#45;&gt;Node19 -->
<g id="edge33_Node000002_Node000019" class="edge">
<title>Node2&#45;&gt;Node19</title>
<g id="a_edge33_Node000002_Node000019"><a xlink:title=" ">
<path fill="none" stroke="#63b8ff" d="M291.25,-274.98C301.4,-267.07 316.74,-255.11 328.97,-245.58"/>
<polygon fill="#63b8ff" stroke="#63b8ff" points="331.46,-248.08 337.2,-239.17 327.16,-242.56 331.46,-248.08"/>
</a>
</g>
</g>
<!-- Node3&#45;&gt;Node4 -->
<g id="edge3_Node000003_Node000004" class="edge">
<title>Node3&#45;&gt;Node4</title>
<g id="a_edge3_Node000003_Node000004"><a xlink:title=" ">
<path fill="none" stroke="#63b8ff" d="M373.25,-164.98C357.46,-156.61 333.1,-143.7 314.69,-133.95"/>
<polygon fill="#63b8ff" stroke="#63b8ff" points="316.16,-130.76 305.68,-129.17 312.88,-136.95 316.16,-130.76"/>
</a>
</g>
</g>
<!-- Node3&#45;&gt;Node5 -->
<g id="edge13_Node000003_Node000005" class="edge">
<title>Node3&#45;&gt;Node5</title>
<g id="a_edge13_Node000003_Node000005"><a xlink:title=" ">
<path fill="none" stroke="#63b8ff" d="M400.12,-164.66C422.67,-146.22 474.94,-103.45 502.9,-80.57"/>
<polygon fill="#63b8ff" stroke="#63b8ff" points="505.22,-83.2 510.74,-74.16 500.78,-77.78 505.22,-83.2"/>
</a>
</g>
</g>
<!-- Node7 -->
<g id="Node000007" class="node">
<title>Node7</title>
<g id="a_Node000007"><a xlink:title=" ">
<polygon fill="#e0e0e0" stroke="#999999" points="157.32,-19 81.32,-19 81.32,0 157.32,0 157.32,-19"/>
<text text-anchor="middle" x="119.32" y="-7" font-family="Helvetica,sans-Serif" font-size="10.00">QJsonObject</text>
</a>
</g>
</g>
<!-- Node3&#45;&gt;Node7 -->
<g id="edge22_Node000003_Node000007" class="edge">
<title>Node3&#45;&gt;Node7</title>
<g id="a_edge22_Node000003_Node000007"><a xlink:title=" ">
<path fill="none" stroke="#63b8ff" d="M317.26,-173.59C253.14,-171.26 158.07,-161.78 82.32,-129 46.33,-113.42 30.34,-109.33 13.32,-74 -0.45,-45.42 37.07,-28.66 71.22,-19.61"/>
<polygon fill="#63b8ff" stroke="#63b8ff" points="72.31,-22.95 81.18,-17.16 70.63,-16.16 72.31,-22.95"/>
</a>
</g>
</g>
<!-- Node3&#45;&gt;Node8 -->
<g id="edge24_Node000003_Node000008" class="edge">
<title>Node3&#45;&gt;Node8</title>
<g id="a_edge24_Node000003_Node000008"><a xlink:title=" ">
<path fill="none" stroke="#63b8ff" d="M396.39,-164.95C411.85,-145.16 445.94,-94.81 428.32,-55 423,-42.97 412.64,-32.8 402.81,-25.24"/>
<polygon fill="#63b8ff" stroke="#63b8ff" points="404.62,-22.23 394.45,-19.27 400.56,-27.93 404.62,-22.23"/>
</a>
</g>
</g>
<!-- Node9 -->
<g id="Node000009" class="node">
<title>Node9</title>
<g id="a_Node000009"><a xlink:title=" ">
<polygon fill="#e0e0e0" stroke="#999999" points="418.82,-74 347.82,-74 347.82,-55 418.82,-55 418.82,-74"/>
<text text-anchor="middle" x="383.32" y="-62" font-family="Helvetica,sans-Serif" font-size="10.00">QJsonArray</text>
</a>
</g>
</g>
<!-- Node3&#45;&gt;Node9 -->
<g id="edge21_Node000003_Node000009" class="edge">
<title>Node3&#45;&gt;Node9</title>
<g id="a_edge21_Node000003_Node000009"><a xlink:title=" ">
<path fill="none" stroke="#63b8ff" d="M388.83,-164.66C387.86,-147.17 385.67,-107.8 384.36,-84.27"/>
<polygon fill="#63b8ff" stroke="#63b8ff" points="387.85,-83.95 383.8,-74.16 380.86,-84.34 387.85,-83.95"/>
</a>
</g>
</g>
<!-- Node3&#45;&gt;Node12 -->
<g id="edge14_Node000003_Node000012" class="edge">
<title>Node3&#45;&gt;Node12</title>
<g id="a_edge14_Node000003_Node000012"><a xlink:title=" ">
<path fill="none" stroke="#63b8ff" d="M348.35,-164.98C304.06,-155.78 233.38,-141.09 185.47,-131.13"/>
<polygon fill="#63b8ff" stroke="#63b8ff" points="186.12,-127.69 175.61,-129.08 184.69,-134.54 186.12,-127.69"/>
</a>
</g>
</g>
<!-- Node14 -->
<g id="Node000014" class="node">
<title>Node14</title>
<g id="a_Node000014"><a xlink:title=" ">
<polygon fill="#e0e0e0" stroke="#999999" points="572.32,-129 480.32,-129 480.32,-110 572.32,-110 572.32,-129"/>
<text text-anchor="middle" x="526.32" y="-117" font-family="Helvetica,sans-Serif" font-size="10.00">QSharedPointer</text>
</a>
</g>
</g>
<!-- Node3&#45;&gt;Node14 -->
<g id="edge23_Node000003_Node000014" class="edge">
<title>Node3&#45;&gt;Node14</title>
<g id="a_edge23_Node000003_Node000014"><a xlink:title=" ">
<path fill="none" stroke="#63b8ff" d="M411.33,-164.98C433.77,-156.3 468.8,-142.75 494.31,-132.88"/>
<polygon fill="#63b8ff" stroke="#63b8ff" points="495.85,-136.04 503.91,-129.17 493.32,-129.51 495.85,-136.04"/>
</a>
</g>
</g>
<!-- Node4&#45;&gt;Node5 -->
<g id="edge4_Node000004_Node000005" class="edge">
<title>Node4&#45;&gt;Node5</title>
<g id="a_edge4_Node000004_Node000005"><a xlink:title=" ">
<path fill="none" stroke="#63b8ff" d="M326.6,-109.98C366.64,-100.84 430.39,-86.27 473.96,-76.32"/>
<polygon fill="#63b8ff" stroke="#63b8ff" points="474.78,-79.72 483.75,-74.08 473.23,-72.9 474.78,-79.72"/>
</a>
</g>
</g>
<!-- Node4&#45;&gt;Node7 -->
<g id="edge9_Node000004_Node000007" class="edge">
<title>Node4&#45;&gt;Node7</title>
<g id="a_edge9_Node000004_Node000007"><a xlink:title=" ">
<path fill="none" stroke="#63b8ff" d="M287.84,-109.76C285.08,-96.12 277.85,-69.78 261.32,-55 235.37,-31.79 197.39,-20.69 167.24,-15.37"/>
<polygon fill="#63b8ff" stroke="#63b8ff" points="167.77,-11.91 157.34,-13.78 166.66,-18.83 167.77,-11.91"/>
</a>
</g>
</g>
<!-- Node4&#45;&gt;Node8 -->
<g id="edge12_Node000004_Node000008" class="edge">
<title>Node4&#45;&gt;Node8</title>
<g id="a_edge12_Node000004_Node000008"><a xlink:title=" ">
<path fill="none" stroke="#63b8ff" d="M295.94,-109.73C305.35,-97.34 323.24,-74.11 339.32,-55 347.35,-45.46 356.64,-35.09 364.24,-26.76"/>
<polygon fill="#63b8ff" stroke="#63b8ff" points="366.99,-28.95 371.18,-19.22 361.84,-24.21 366.99,-28.95"/>
</a>
</g>
</g>
<!-- Node4&#45;&gt;Node9 -->
<g id="edge8_Node000004_Node000009" class="edge">
<title>Node4&#45;&gt;Node9</title>
<g id="a_edge8_Node000004_Node000009"><a xlink:title=" ">
<path fill="none" stroke="#63b8ff" d="M304.42,-109.98C319.14,-101.69 341.75,-88.94 359,-79.22"/>
<polygon fill="#63b8ff" stroke="#63b8ff" points="360.95,-82.13 367.94,-74.17 357.51,-76.03 360.95,-82.13"/>
</a>
</g>
</g>
<!-- Node10 -->
<g id="Node000010" class="node">
<title>Node10</title>
<g id="a_Node000010"><a xlink:title=" ">
<polygon fill="#e0e0e0" stroke="#999999" points="179.82,-74 138.82,-74 138.82,-55 179.82,-55 179.82,-74"/>
<text text-anchor="middle" x="159.32" y="-62" font-family="Helvetica,sans-Serif" font-size="10.00">QList</text>
</a>
</g>
</g>
<!-- Node4&#45;&gt;Node10 -->
<g id="edge10_Node000004_Node000010" class="edge">
<title>Node4&#45;&gt;Node10</title>
<g id="a_edge10_Node000004_Node000010"><a xlink:title=" ">
<path fill="none" stroke="#63b8ff" d="M268.43,-109.98C247.11,-101.29 213.8,-87.71 189.59,-77.84"/>
<polygon fill="#63b8ff" stroke="#63b8ff" points="190.74,-74.53 180.16,-73.99 188.09,-81.01 190.74,-74.53"/>
</a>
</g>
</g>
<!-- Node11 -->
<g id="Node000011" class="node">
<title>Node11</title>
<g id="a_Node000011"><a xlink:title=" ">
<polygon fill="#e0e0e0" stroke="#999999" points="252.82,-74 197.82,-74 197.82,-55 252.82,-55 252.82,-74"/>
<text text-anchor="middle" x="225.32" y="-62" font-family="Helvetica,sans-Serif" font-size="10.00">QPointF</text>
</a>
</g>
</g>
<!-- Node4&#45;&gt;Node11 -->
<g id="edge11_Node000004_Node000011" class="edge">
<title>Node4&#45;&gt;Node11</title>
<g id="a_edge11_Node000004_Node000011"><a xlink:title=" ">
<path fill="none" stroke="#63b8ff" d="M279.04,-109.98C269.48,-102.07 255.04,-90.11 243.54,-80.58"/>
<polygon fill="#63b8ff" stroke="#63b8ff" points="245.73,-77.85 235.79,-74.17 241.26,-83.24 245.73,-77.85"/>
</a>
</g>
</g>
<!-- Node6 -->
<g id="Node000006" class="node">
<title>Node6</title>
<g id="a_Node000006"><a xlink:title=" ">
<polygon fill="#e0e0e0" stroke="#999999" points="557.82,-19 484.82,-19 484.82,0 557.82,0 557.82,-19"/>
<text text-anchor="middle" x="521.32" y="-7" font-family="Helvetica,sans-Serif" font-size="10.00">QByteArray</text>
</a>
</g>
</g>
<!-- Node5&#45;&gt;Node6 -->
<g id="edge5_Node000005_Node000006" class="edge">
<title>Node5&#45;&gt;Node6</title>
<g id="a_edge5_Node000005_Node000006"><a xlink:title=" ">
<path fill="none" stroke="#63b8ff" d="M521.32,-54.75C521.32,-47.8 521.32,-37.85 521.32,-29.13"/>
<polygon fill="#63b8ff" stroke="#63b8ff" points="524.82,-29.09 521.32,-19.09 517.82,-29.09 524.82,-29.09"/>
</a>
</g>
</g>
<!-- Node5&#45;&gt;Node7 -->
<g id="edge6_Node000005_Node000007" class="edge">
<title>Node5&#45;&gt;Node7</title>
<g id="a_edge6_Node000005_Node000007"><a xlink:title=" ">
<path fill="none" stroke="#63b8ff" d="M475.21,-57.42C398.53,-47.31 245.54,-27.14 167.51,-16.85"/>
<polygon fill="#63b8ff" stroke="#63b8ff" points="167.84,-13.37 157.47,-15.53 166.92,-20.31 167.84,-13.37"/>
</a>
</g>
</g>
<!-- Node5&#45;&gt;Node8 -->
<g id="edge7_Node000005_Node000008" class="edge">
<title>Node5&#45;&gt;Node8</title>
<g id="a_edge7_Node000005_Node000008"><a xlink:title=" ">
<path fill="none" stroke="#63b8ff" d="M498.51,-54.98C475.15,-46.27 438.62,-32.63 412.15,-22.75"/>
<polygon fill="#63b8ff" stroke="#63b8ff" points="413.14,-19.39 402.55,-19.17 410.7,-25.95 413.14,-19.39"/>
</a>
</g>
</g>
<!-- Node12&#45;&gt;Node7 -->
<g id="edge16_Node000012_Node000007" class="edge">
<title>Node12&#45;&gt;Node7</title>
<g id="a_edge16_Node000012_Node000007"><a xlink:title=" ">
<path fill="none" stroke="#63b8ff" d="M91.21,-113.42C66.32,-108.03 36.93,-96.92 21.32,-74 4.62,-49.47 39.05,-32.24 71.6,-21.97"/>
<polygon fill="#63b8ff" stroke="#63b8ff" points="72.99,-25.21 81.58,-19.01 71,-18.5 72.99,-25.21"/>
</a>
</g>
</g>
<!-- Node12&#45;&gt;Node8 -->
<g id="edge20_Node000012_Node000008" class="edge">
<title>Node12&#45;&gt;Node8</title>
<g id="a_edge20_Node000012_Node000008"><a xlink:title=" ">
<path fill="none" stroke="#63b8ff" d="M130.26,-109.96C124.55,-96.58 116.25,-70.6 129.32,-55 156.08,-23.05 279.67,-14.02 342.47,-11.48"/>
<polygon fill="#63b8ff" stroke="#63b8ff" points="342.87,-14.97 352.73,-11.11 342.61,-7.98 342.87,-14.97"/>
</a>
</g>
</g>
<!-- Node12&#45;&gt;Node9 -->
<g id="edge15_Node000012_Node000009" class="edge">
<title>Node12&#45;&gt;Node9</title>
<g id="a_edge15_Node000012_Node000009"><a xlink:title=" ">
<path fill="none" stroke="#63b8ff" d="M174.33,-109.98C218.9,-100.5 290.82,-85.19 337.59,-75.23"/>
<polygon fill="#63b8ff" stroke="#63b8ff" points="338.4,-78.64 347.46,-73.13 336.95,-71.79 338.4,-78.64"/>
</a>
</g>
</g>
<!-- Node12&#45;&gt;Node10 -->
<g id="edge17_Node000012_Node000010" class="edge">
<title>Node12&#45;&gt;Node10</title>
<g id="a_edge17_Node000012_Node000010"><a xlink:title=" ">
<path fill="none" stroke="#63b8ff" d="M138.45,-109.75C141.84,-102.57 146.74,-92.18 150.94,-83.27"/>
<polygon fill="#63b8ff" stroke="#63b8ff" points="154.17,-84.63 155.27,-74.09 147.84,-81.64 154.17,-84.63"/>
</a>
</g>
</g>
<!-- Node12&#45;&gt;Node11 -->
<g id="edge18_Node000012_Node000011" class="edge">
<title>Node12&#45;&gt;Node11</title>
<g id="a_edge18_Node000012_Node000011"><a xlink:title=" ">
<path fill="none" stroke="#63b8ff" d="M148.94,-109.98C163.19,-101.69 185.07,-88.94 201.77,-79.22"/>
<polygon fill="#63b8ff" stroke="#63b8ff" points="203.55,-82.23 210.43,-74.17 200.03,-76.18 203.55,-82.23"/>
</a>
</g>
</g>
<!-- Node13 -->
<g id="Node000013" class="node">
<title>Node13</title>
<g id="a_Node000013"><a xlink:title=" ">
<polygon fill="#e0e0e0" stroke="#999999" points="82.32,-74 30.32,-74 30.32,-55 82.32,-55 82.32,-74"/>
<text text-anchor="middle" x="56.32" y="-62" font-family="Helvetica,sans-Serif" font-size="10.00">QRectF</text>
</a>
</g>
</g>
<!-- Node12&#45;&gt;Node13 -->
<g id="edge19_Node000012_Node000013" class="edge">
<title>Node12&#45;&gt;Node13</title>
<g id="a_edge19_Node000012_Node000013"><a xlink:title=" ">
<path fill="none" stroke="#63b8ff" d="M121.79,-109.98C109.92,-101.92 91.86,-89.65 77.71,-80.03"/>
<polygon fill="#63b8ff" stroke="#63b8ff" points="79.32,-76.9 69.08,-74.17 75.39,-82.69 79.32,-76.9"/>
</a>
</g>
</g>
<!-- Node20&#45;&gt;Node3 -->
<g id="edge35_Node000020_Node000003" class="edge">
<title>Node20&#45;&gt;Node3</title>
<g id="a_edge35_Node000020_Node000003"><a xlink:title=" ">
<path fill="none" stroke="#63b8ff" d="M833.33,-219.98C733.75,-210.01 569.91,-193.59 471.55,-183.74"/>
<polygon fill="#63b8ff" stroke="#63b8ff" points="471.66,-180.23 461.36,-182.72 470.96,-187.2 471.66,-180.23"/>
</a>
</g>
</g>
<!-- Node20&#45;&gt;Node4 -->
<g id="edge36_Node000020_Node000004" class="edge">
<title>Node20&#45;&gt;Node4</title>
<g id="a_edge36_Node000020_Node000004"><a xlink:title=" ">
<path fill="none" stroke="#63b8ff" d="M826.67,-220.73C823.51,-220.48 820.39,-220.24 817.32,-220 760.79,-215.62 352.57,-219.44 308.32,-184 295.14,-173.44 290.83,-154.12 289.55,-139.55"/>
<polygon fill="#63b8ff" stroke="#63b8ff" points="293.02,-138.97 289.06,-129.15 286.03,-139.3 293.02,-138.97"/>
</a>
</g>
</g>
<!-- Node20&#45;&gt;Node5 -->
<g id="edge37_Node000020_Node000005" class="edge">
<title>Node20&#45;&gt;Node5</title>
<g id="a_edge37_Node000020_Node000005"><a xlink:title=" ">
<path fill="none" stroke="#63b8ff" d="M875.84,-219.95C841.78,-212.42 793.1,-200.15 752.32,-184 687.62,-158.38 676.39,-141.47 614.32,-110 592.57,-98.97 567.63,-87.08 549.05,-78.36"/>
<polygon fill="#63b8ff" stroke="#63b8ff" points="550.51,-75.18 539.97,-74.12 547.55,-81.52 550.51,-75.18"/>
</a>
</g>
</g>
<!-- Node20&#45;&gt;Node8 -->
<g id="edge42_Node000020_Node000008" class="edge">
<title>Node20&#45;&gt;Node8</title>
<g id="a_edge42_Node000020_Node000008"><a xlink:title=" ">
<path fill="none" stroke="#63b8ff" d="M925.07,-219.85C934.4,-206.79 948.73,-181.76 936.32,-165 836.8,-30.52 738.03,-97.91 576.32,-55 520.79,-40.27 455.64,-26.16 415.93,-17.92"/>
<polygon fill="#63b8ff" stroke="#63b8ff" points="416.42,-14.45 405.92,-15.85 415.01,-21.3 416.42,-14.45"/>
</a>
</g>
</g>
<!-- Node20&#45;&gt;Node12 -->
<g id="edge38_Node000020_Node000012" class="edge">
<title>Node20&#45;&gt;Node12</title>
<g id="a_edge38_Node000020_Node000012"><a xlink:title=" ">
<path fill="none" stroke="#63b8ff" d="M826.67,-220.72C823.51,-220.48 820.39,-220.23 817.32,-220 583.68,-202.17 519.67,-236.59 291.32,-184 242.97,-172.87 190.15,-148.82 159.76,-133.72"/>
<polygon fill="#63b8ff" stroke="#63b8ff" points="161.22,-130.54 150.71,-129.16 158.07,-136.79 161.22,-130.54"/>
</a>
</g>
</g>
<!-- Node20&#45;&gt;Node14 -->
<g id="edge41_Node000020_Node000014" class="edge">
<title>Node20&#45;&gt;Node14</title>
<g id="a_edge41_Node000020_Node000014"><a xlink:title=" ">
<path fill="none" stroke="#63b8ff" d="M862.02,-219.97C816.34,-212.41 750.55,-200.09 694.32,-184 644.47,-169.73 588.49,-147.21 555.39,-133.17"/>
<polygon fill="#63b8ff" stroke="#63b8ff" points="556.45,-129.82 545.88,-129.11 553.7,-136.26 556.45,-129.82"/>
</a>
</g>
</g>
<!-- Node21 -->
<g id="Node000021" class="node">
<title>Node21</title>
<g id="a_Node000021"><a xlink:title=" ">
<polygon fill="#e0e0e0" stroke="#999999" points="817.32,-184 761.32,-184 761.32,-165 817.32,-165 817.32,-184"/>
<text text-anchor="middle" x="789.32" y="-172" font-family="Helvetica,sans-Serif" font-size="10.00">QDebug</text>
</a>
</g>
</g>
<!-- Node20&#45;&gt;Node21 -->
<g id="edge39_Node000020_Node000021" class="edge">
<title>Node20&#45;&gt;Node21</title>
<g id="a_edge39_Node000020_Node000021"><a xlink:title=" ">
<path fill="none" stroke="#63b8ff" d="M897.6,-219.98C876.56,-211.34 843.77,-197.87 819.78,-188.02"/>
<polygon fill="#63b8ff" stroke="#63b8ff" points="821,-184.73 810.42,-184.17 818.34,-191.21 821,-184.73"/>
</a>
</g>
</g>
<!-- Node22 -->
<g id="Node000022" class="node">
<title>Node22</title>
<g id="a_Node000022"><a xlink:title=" ">
<polygon fill="#e0e0e0" stroke="#999999" points="926.82,-184 835.82,-184 835.82,-165 926.82,-165 926.82,-184"/>
<text text-anchor="middle" x="881.32" y="-172" font-family="Helvetica,sans-Serif" font-size="10.00">QElapsedTimer</text>
</a>
</g>
</g>
<!-- Node20&#45;&gt;Node22 -->
<g id="edge40_Node000020_Node000022" class="edge">
<title>Node20&#45;&gt;Node22</title>
<g id="a_edge40_Node000020_Node000022"><a xlink:title=" ">
<path fill="none" stroke="#63b8ff" d="M912.21,-219.75C907.04,-212.34 899.48,-201.5 893.13,-192.41"/>
<polygon fill="#63b8ff" stroke="#63b8ff" points="895.91,-190.29 887.32,-184.09 890.17,-194.29 895.91,-190.29"/>
</a>
</g>
</g>
<!-- Node23&#45;&gt;Node15 -->
<g id="edge45_Node000023_Node000015" class="edge">
<title>Node23&#45;&gt;Node15</title>
<g id="a_edge45_Node000023_Node000015"><a xlink:title=" ">
<path fill="none" stroke="#63b8ff" d="M608.35,-274.98C574.5,-265.97 520.93,-251.7 483.61,-241.76"/>
<polygon fill="#63b8ff" stroke="#63b8ff" points="484.11,-238.27 473.54,-239.08 482.31,-245.04 484.11,-238.27"/>
</a>
</g>
</g>
<!-- Node23&#45;&gt;Node16 -->
<g id="edge46_Node000023_Node000016" class="edge">
<title>Node23&#45;&gt;Node16</title>
<g id="a_edge46_Node000023_Node000016"><a xlink:title=" ">
<path fill="none" stroke="#63b8ff" d="M621.36,-274.98C602.29,-266.42 572.66,-253.11 550.77,-243.28"/>
<polygon fill="#63b8ff" stroke="#63b8ff" points="552.18,-240.07 541.62,-239.17 549.31,-246.46 552.18,-240.07"/>
</a>
</g>
</g>
<!-- Node24 -->
<g id="Node000024" class="node">
<title>Node24</title>
<g id="a_Node000024"><a xlink:title=" ">
<polygon fill="#e0e0e0" stroke="#999999" points="698.32,-239 642.32,-239 642.32,-220 698.32,-220 698.32,-239"/>
<text text-anchor="middle" x="670.32" y="-227" font-family="Helvetica,sans-Serif" font-size="10.00">QQueue</text>
</a>
</g>
</g>
<!-- Node23&#45;&gt;Node24 -->
<g id="edge47_Node000023_Node000024" class="edge">
<title>Node23&#45;&gt;Node24</title>
<g id="a_edge47_Node000023_Node000024"><a xlink:title=" ">
<path fill="none" stroke="#63b8ff" d="M645.28,-274.75C649.38,-267.49 655.35,-256.95 660.43,-247.98"/>
<polygon fill="#63b8ff" stroke="#63b8ff" points="663.58,-249.52 665.46,-239.09 657.49,-246.07 663.58,-249.52"/>
</a>
</g>
</g>
<!-- Node25 -->
<g id="Node000025" class="node">
<title>Node25</title>
<g id="a_Node000025"><a xlink:title=" ">
<polygon fill="#e0e0e0" stroke="#999999" points="808.32,-239 716.32,-239 716.32,-220 808.32,-220 808.32,-239"/>
<text text-anchor="middle" x="762.32" y="-227" font-family="Helvetica,sans-Serif" font-size="10.00">QWaitCondition</text>
</a>
</g>
</g>
<!-- Node23&#45;&gt;Node25 -->
<g id="edge48_Node000023_Node000025" class="edge">
<title>Node23&#45;&gt;Node25</title>
<g id="a_edge48_Node000023_Node000025"><a xlink:title=" ">
<path fill="none" stroke="#63b8ff" d="M659.92,-274.98C679.64,-266.42 710.27,-253.11 732.9,-243.28"/>
<polygon fill="#63b8ff" stroke="#63b8ff" points="734.59,-246.37 742.36,-239.17 731.8,-239.94 734.59,-246.37"/>
</a>
</g>
</g>
<!-- Node26&#45;&gt;Node15 -->
<g id="edge51_Node000026_Node000015" class="edge">
<title>Node26&#45;&gt;Node15</title>
<g id="a_edge51_Node000026_Node000015"><a xlink:title=" ">
<path fill="none" stroke="#63b8ff" d="M786.2,-277.01C715.77,-269.5 598.23,-256.11 487.18,-239.04"/>
<polygon fill="#63b8ff" stroke="#63b8ff" points="487.56,-235.56 477.15,-237.48 486.49,-242.47 487.56,-235.56"/>
</a>
</g>
</g>
<!-- Node26&#45;&gt;Node16 -->
<g id="edge52_Node000026_Node000016" class="edge">
<title>Node26&#45;&gt;Node16</title>
<g id="a_edge52_Node000026_Node000016"><a xlink:title=" ">
<path fill="none" stroke="#63b8ff" d="M786.3,-275.19C729.64,-267.41 643.95,-254.88 560.1,-239.02"/>
<polygon fill="#63b8ff" stroke="#63b8ff" points="560.63,-235.56 550.16,-237.13 559.32,-242.44 560.63,-235.56"/>
</a>
</g>
</g>
<!-- Node26&#45;&gt;Node17 -->
<g id="edge55_Node000026_Node000017" class="edge">
<title>Node26&#45;&gt;Node17</title>
<g id="a_edge55_Node000026_Node000017"><a xlink:title=" ">
<path fill="none" stroke="#63b8ff" d="M806.23,-274.92C764.72,-266.59 699.89,-253.41 634.64,-239.25"/>
<polygon fill="#63b8ff" stroke="#63b8ff" points="635.1,-235.77 624.59,-237.06 633.62,-242.61 635.1,-235.77"/>
</a>
</g>
</g>
<!-- Node26&#45;&gt;Node20 -->
<g id="edge50_Node000026_Node000020" class="edge">
<title>Node26&#45;&gt;Node20</title>
<g id="a_edge50_Node000026_Node000020"><a xlink:title=" ">
<path fill="none" stroke="#63b8ff" d="M860.41,-274.98C870.81,-267 886.58,-254.88 899.04,-245.31"/>
<polygon fill="#63b8ff" stroke="#63b8ff" points="901.23,-248.04 907.03,-239.17 896.97,-242.49 901.23,-248.04"/>
</a>
</g>
</g>
<!-- Node26&#45;&gt;Node27 -->
<g id="edge53_Node000026_Node000027" class="edge">
<title>Node26&#45;&gt;Node27</title>
<g id="a_edge53_Node000026_Node000027"><a xlink:title=" ">
<path fill="none" stroke="#63b8ff" d="M912.34,-276.41C917.07,-275.92 921.77,-275.44 926.32,-275 1110.9,-256.96 1159.84,-256.96 1348.27,-239.08"/>
<polygon fill="#63b8ff" stroke="#63b8ff" points="1348.61,-242.56 1358.23,-238.13 1347.94,-235.6 1348.61,-242.56"/>
</a>
</g>
</g>
<!-- Node28 -->
<g id="Node000028" class="node">
<title>Node28</title>
<g id="a_Node000028"><a xlink:title=" ">
<polygon fill="#e0e0e0" stroke="#999999" points="1120.82,-239 1027.82,-239 1027.82,-220 1120.82,-220 1120.82,-239"/>
<text text-anchor="middle" x="1074.32" y="-227" font-family="Helvetica,sans-Serif" font-size="10.00">QNetworkReply</text>
</a>
</g>
</g>
<!-- Node26&#45;&gt;Node28 -->
<g id="edge54_Node000026_Node000028" class="edge">
<title>Node26&#45;&gt;Node28</title>
<g id="a_edge54_Node000026_Node000028"><a xlink:title=" ">
<path fill="none" stroke="#63b8ff" d="M885.47,-274.98C924.23,-265.86 985.87,-251.33 1028.12,-241.38"/>
<polygon fill="#63b8ff" stroke="#63b8ff" points="1028.96,-244.78 1037.89,-239.08 1027.35,-237.97 1028.96,-244.78"/>
</a>
</g>
</g>
<!-- Node29 -->
<g id="Node000029" class="node">
<title>Node29</title>
<g id="a_Node000029"><a xlink:title=" ">
<polygon fill="#e0e0e0" stroke="#999999" points="1251.82,-239 1138.82,-239 1138.82,-220 1251.82,-220 1251.82,-239"/>
<text text-anchor="middle" x="1195.32" y="-227" font-family="Helvetica,sans-Serif" font-size="10.00">QRandomGenerator</text>
</a>
</g>
</g>
<!-- Node26&#45;&gt;Node29 -->
<g id="edge56_Node000026_Node000029" class="edge">
<title>Node26&#45;&gt;Node29</title>
<g id="a_edge56_Node000026_Node000029"><a xlink:title=" ">
<path fill="none" stroke="#63b8ff" d="M904.91,-274.98C966.11,-265.61 1064.42,-250.55 1129.44,-240.59"/>
<polygon fill="#63b8ff" stroke="#63b8ff" points="1130.23,-244.01 1139.58,-239.04 1129.17,-237.09 1130.23,-244.01"/>
</a>
</g>
</g>
<!-- Node30 -->
<g id="Node000030" class="node">
<title>Node30</title>
<g id="a_Node000030"><a xlink:title=" ">
<polygon fill="#e0e0e0" stroke="#999999" points="1340.32,-239 1270.32,-239 1270.32,-220 1340.32,-220 1340.32,-239"/>
<text text-anchor="middle" x="1305.32" y="-227" font-family="Helvetica,sans-Serif" font-size="10.00">QRunnable</text>
</a>
</g>
</g>
<!-- Node26&#45;&gt;Node30 -->
<g id="edge57_Node000026_Node000030" class="edge">
<title>Node26&#45;&gt;Node30</title>
<g id="a_edge57_Node000026_Node000030"><a xlink:title=" ">
<path fill="none" stroke="#63b8ff" d="M912.35,-276.53C917.08,-276.01 921.78,-275.5 926.32,-275 1071.99,-259.13 1111.55,-261.12 1260.34,-239.03"/>
<polygon fill="#63b8ff" stroke="#63b8ff" points="1260.93,-242.48 1270.3,-237.54 1259.89,-235.56 1260.93,-242.48"/>
</a>
</g>
</g>
</g>
</svg>
