<?xml version="1.0" encoding="UTF-8" standalone="no"?>
<!DOCTYPE svg PUBLIC "-//W3C//DTD SVG 1.1//EN"
 "http://www.w3.org/Graphics/SVG/1.1/DTD/svg11.dtd">
<!-- Generated by graphviz version 2.43.0 (0)
 -->
<!-- Title: services/ExportService.h Pages: 1 -->
<svg width="1175pt" height="247pt"
 viewBox="0.00 0.00 1174.50 247.00" xmlns="http://www.w3.org/2000/svg" xmlns:xlink="http://www.w3.org/1999/xlink">
<g id="graph0" class="graph" transform="scale(1 1) rotate(0) translate(4 243)">
<title>services/ExportService.h</title>
<!-- Node1 -->
<g id="Node000001" class="node">
<title>Node1</title>
<g id="a_Node000001"><a xlink:title=" ">
<polygon fill="#999999" stroke="#666666" points="706.5,-239 569.5,-239 569.5,-220 706.5,-220 706.5,-239"/>
<text text-anchor="middle" x="638" y="-227" font-family="Helvetica,sans-Serif" font-size="10.00">services/ExportService.h</text>
</a>
</g>
</g>
<!-- Node2 -->
<g id="Node000002" class="node">
<title>Node2</title>
<g id="a_Node000002"><a xlink:href="ComponentData_8h.html" target="_top" xlink:title=" ">
<polygon fill="white" stroke="#666666" points="356,-184 212,-184 212,-165 356,-165 356,-184"/>
<text text-anchor="middle" x="284" y="-172" font-family="Helvetica,sans-Serif" font-size="10.00">models/ComponentData.h</text>
</a>
</g>
</g>
<!-- Node1&#45;&gt;Node2 -->
<g id="edge1_Node000001_Node000002" class="edge">
<title>Node1&#45;&gt;Node2</title>
<g id="a_edge1_Node000001_Node000002"><a xlink:title=" ">
<path fill="none" stroke="#63b8ff" d="M581.12,-219.98C518.38,-210.59 417.51,-195.49 350.99,-185.53"/>
<polygon fill="#63b8ff" stroke="#63b8ff" points="351.44,-182.06 341.03,-184.04 350.4,-188.98 351.44,-182.06"/>
</a>
</g>
</g>
<!-- Node3 -->
<g id="Node000003" class="node">
<title>Node3</title>
<g id="a_Node000003"><a xlink:href="FootprintData_8h.html" target="_top" xlink:title=" ">
<polygon fill="white" stroke="#666666" points="423,-129 331,-129 331,-110 423,-110 423,-129"/>
<text text-anchor="middle" x="377" y="-117" font-family="Helvetica,sans-Serif" font-size="10.00">FootprintData.h</text>
</a>
</g>
</g>
<!-- Node1&#45;&gt;Node3 -->
<g id="edge24_Node000001_Node000003" class="edge">
<title>Node1&#45;&gt;Node3</title>
<g id="a_edge24_Node000001_Node000003"><a xlink:title=" ">
<path fill="none" stroke="#63b8ff" d="M617.08,-219.84C570.96,-200.76 460.4,-155.01 406.94,-132.89"/>
<polygon fill="#63b8ff" stroke="#63b8ff" points="408.23,-129.64 397.65,-129.05 405.56,-136.1 408.23,-129.64"/>
</a>
</g>
</g>
<!-- Node4 -->
<g id="Node000004" class="node">
<title>Node4</title>
<g id="a_Node000004"><a xlink:href="Model3DData_8h.html" target="_top" xlink:title=" ">
<polygon fill="white" stroke="#666666" points="92,-74 0,-74 0,-55 92,-55 92,-74"/>
<text text-anchor="middle" x="46" y="-62" font-family="Helvetica,sans-Serif" font-size="10.00">Model3DData.h</text>
</a>
</g>
</g>
<!-- Node1&#45;&gt;Node4 -->
<g id="edge25_Node000001_Node000004" class="edge">
<title>Node1&#45;&gt;Node4</title>
<g id="a_edge25_Node000001_Node000004"><a xlink:title=" ">
<path fill="none" stroke="#63b8ff" d="M569.42,-227.93C482.72,-225.75 329.52,-217.02 203,-184 143.48,-168.47 120.2,-171.78 76,-129 63.28,-116.69 55.34,-97.92 50.85,-83.97"/>
<polygon fill="#63b8ff" stroke="#63b8ff" points="54.11,-82.67 47.96,-74.04 47.39,-84.62 54.11,-82.67"/>
</a>
</g>
</g>
<!-- Node7 -->
<g id="Node000007" class="node">
<title>Node7</title>
<g id="a_Node000007"><a xlink:title=" ">
<polygon fill="#e0e0e0" stroke="#999999" points="354.5,-19 301.5,-19 301.5,0 354.5,0 354.5,-19"/>
<text text-anchor="middle" x="328" y="-7" font-family="Helvetica,sans-Serif" font-size="10.00">QString</text>
</a>
</g>
</g>
<!-- Node1&#45;&gt;Node7 -->
<g id="edge31_Node000001_Node000007" class="edge">
<title>Node1&#45;&gt;Node7</title>
<g id="a_edge31_Node000001_Node000007"><a xlink:title=" ">
<path fill="none" stroke="#63b8ff" d="M625.22,-220C614.61,-212.1 600.28,-199.27 594,-184 571.55,-129.36 664.56,-99.75 626,-55 592.71,-16.37 437.24,-10.77 365.04,-10.29"/>
<polygon fill="#63b8ff" stroke="#63b8ff" points="364.61,-6.79 354.6,-10.26 364.59,-13.79 364.61,-6.79"/>
</a>
</g>
</g>
<!-- Node11 -->
<g id="Node000011" class="node">
<title>Node11</title>
<g id="a_Node000011"><a xlink:href="SymbolData_8h.html" target="_top" xlink:title=" ">
<polygon fill="white" stroke="#666666" points="534,-129 448,-129 448,-110 534,-110 534,-129"/>
<text text-anchor="middle" x="491" y="-117" font-family="Helvetica,sans-Serif" font-size="10.00">SymbolData.h</text>
</a>
</g>
</g>
<!-- Node1&#45;&gt;Node11 -->
<g id="edge26_Node000001_Node000011" class="edge">
<title>Node1&#45;&gt;Node11</title>
<g id="a_edge26_Node000001_Node000011"><a xlink:title=" ">
<path fill="none" stroke="#63b8ff" d="M620.27,-219.84C603.99,-211.57 579.51,-198.26 560,-184 540.22,-169.54 519.86,-150.14 506.43,-136.61"/>
<polygon fill="#63b8ff" stroke="#63b8ff" points="508.87,-134.1 499.38,-129.39 503.86,-138.99 508.87,-134.1"/>
</a>
</g>
</g>
<!-- Node14 -->
<g id="Node000014" class="node">
<title>Node14</title>
<g id="a_Node000014"><a xlink:title=" ">
<polygon fill="#e0e0e0" stroke="#999999" points="673.5,-184 602.5,-184 602.5,-165 673.5,-165 673.5,-184"/>
<text text-anchor="middle" x="638" y="-172" font-family="Helvetica,sans-Serif" font-size="10.00">QAtomicInt</text>
</a>
</g>
</g>
<!-- Node1&#45;&gt;Node14 -->
<g id="edge27_Node000001_Node000014" class="edge">
<title>Node1&#45;&gt;Node14</title>
<g id="a_edge27_Node000001_Node000014"><a xlink:title=" ">
<path fill="none" stroke="#63b8ff" d="M638,-219.75C638,-212.8 638,-202.85 638,-194.13"/>
<polygon fill="#63b8ff" stroke="#63b8ff" points="641.5,-194.09 638,-184.09 634.5,-194.09 641.5,-194.09"/>
</a>
</g>
</g>
<!-- Node15 -->
<g id="Node000015" class="node">
<title>Node15</title>
<g id="a_Node000015"><a xlink:title=" ">
<polygon fill="#e0e0e0" stroke="#999999" points="746.5,-184 691.5,-184 691.5,-165 746.5,-165 746.5,-184"/>
<text text-anchor="middle" x="719" y="-172" font-family="Helvetica,sans-Serif" font-size="10.00">QMutex</text>
</a>
</g>
</g>
<!-- Node1&#45;&gt;Node15 -->
<g id="edge28_Node000001_Node000015" class="edge">
<title>Node1&#45;&gt;Node15</title>
<g id="a_edge28_Node000001_Node000015"><a xlink:title=" ">
<path fill="none" stroke="#63b8ff" d="M651.01,-219.98C663.46,-211.84 682.46,-199.41 697.21,-189.76"/>
<polygon fill="#63b8ff" stroke="#63b8ff" points="699.3,-192.57 705.75,-184.17 695.46,-186.72 699.3,-192.57"/>
</a>
</g>
</g>
<!-- Node16 -->
<g id="Node000016" class="node">
<title>Node16</title>
<g id="a_Node000016"><a xlink:title=" ">
<polygon fill="#e0e0e0" stroke="#999999" points="907,-184 765,-184 765,-165 907,-165 907,-184"/>
<text text-anchor="middle" x="836" y="-172" font-family="Helvetica,sans-Serif" font-size="10.00">QNetworkAccessManager</text>
</a>
</g>
</g>
<!-- Node1&#45;&gt;Node16 -->
<g id="edge29_Node000001_Node000016" class="edge">
<title>Node1&#45;&gt;Node16</title>
<g id="a_edge29_Node000001_Node000016"><a xlink:title=" ">
<path fill="none" stroke="#63b8ff" d="M669.81,-219.98C703.49,-210.97 756.8,-196.7 793.92,-186.76"/>
<polygon fill="#63b8ff" stroke="#63b8ff" points="795.18,-190.05 803.94,-184.08 793.37,-183.29 795.18,-190.05"/>
</a>
</g>
</g>
<!-- Node17 -->
<g id="Node000017" class="node">
<title>Node17</title>
<g id="a_Node000017"><a xlink:title=" ">
<polygon fill="#e0e0e0" stroke="#999999" points="981,-184 925,-184 925,-165 981,-165 981,-184"/>
<text text-anchor="middle" x="953" y="-172" font-family="Helvetica,sans-Serif" font-size="10.00">QObject</text>
</a>
</g>
</g>
<!-- Node1&#45;&gt;Node17 -->
<g id="edge30_Node000001_Node000017" class="edge">
<title>Node1&#45;&gt;Node17</title>
<g id="a_edge30_Node000001_Node000017"><a xlink:title=" ">
<path fill="none" stroke="#63b8ff" d="M698.67,-219.99C752.81,-212.12 834.48,-199.58 914.5,-184.18"/>
<polygon fill="#63b8ff" stroke="#63b8ff" points="915.61,-187.53 924.76,-182.19 914.28,-180.66 915.61,-187.53"/>
</a>
</g>
</g>
<!-- Node18 -->
<g id="Node000018" class="node">
<title>Node18</title>
<g id="a_Node000018"><a xlink:title=" ">
<polygon fill="#e0e0e0" stroke="#999999" points="1069,-184 999,-184 999,-165 1069,-165 1069,-184"/>
<text text-anchor="middle" x="1034" y="-172" font-family="Helvetica,sans-Serif" font-size="10.00">QStringList</text>
</a>
</g>
</g>
<!-- Node1&#45;&gt;Node18 -->
<g id="edge32_Node000001_Node000018" class="edge">
<title>Node1&#45;&gt;Node18</title>
<g id="a_edge32_Node000001_Node000018"><a xlink:title=" ">
<path fill="none" stroke="#63b8ff" d="M706.66,-221.16C775.52,-213.49 884.82,-200.5 988.92,-184.08"/>
<polygon fill="#63b8ff" stroke="#63b8ff" points="989.65,-187.51 998.97,-182.48 988.55,-180.59 989.65,-187.51"/>
</a>
</g>
</g>
<!-- Node19 -->
<g id="Node000019" class="node">
<title>Node19</title>
<g id="a_Node000019"><a xlink:title=" ">
<polygon fill="#e0e0e0" stroke="#999999" points="1166.5,-184 1087.5,-184 1087.5,-165 1166.5,-165 1166.5,-184"/>
<text text-anchor="middle" x="1127" y="-172" font-family="Helvetica,sans-Serif" font-size="10.00">QThreadPool</text>
</a>
</g>
</g>
<!-- Node1&#45;&gt;Node19 -->
<g id="edge33_Node000001_Node000019" class="edge">
<title>Node1&#45;&gt;Node19</title>
<g id="a_edge33_Node000001_Node000019"><a xlink:title=" ">
<path fill="none" stroke="#63b8ff" d="M706.77,-223.07C791.4,-216.04 939.7,-202.62 1077.16,-184.01"/>
<polygon fill="#63b8ff" stroke="#63b8ff" points="1078.02,-187.43 1087.46,-182.61 1077.08,-180.49 1078.02,-187.43"/>
</a>
</g>
</g>
<!-- Node2&#45;&gt;Node3 -->
<g id="edge2_Node000002_Node000003" class="edge">
<title>Node2&#45;&gt;Node3</title>
<g id="a_edge2_Node000002_Node000003"><a xlink:title=" ">
<path fill="none" stroke="#63b8ff" d="M298.94,-164.98C313.5,-156.69 335.87,-143.94 352.93,-134.22"/>
<polygon fill="#63b8ff" stroke="#63b8ff" points="354.83,-137.16 361.79,-129.17 351.36,-131.08 354.83,-137.16"/>
</a>
</g>
</g>
<!-- Node2&#45;&gt;Node4 -->
<g id="edge12_Node000002_Node000004" class="edge">
<title>Node2&#45;&gt;Node4</title>
<g id="a_edge12_Node000002_Node000004"><a xlink:title=" ">
<path fill="none" stroke="#63b8ff" d="M211.9,-165.85C177.11,-159.72 135.89,-148.72 103,-129 83.82,-117.5 67.45,-97.49 57.23,-83"/>
<polygon fill="#63b8ff" stroke="#63b8ff" points="59.94,-80.75 51.44,-74.42 54.13,-84.66 59.94,-80.75"/>
</a>
</g>
</g>
<!-- Node6 -->
<g id="Node000006" class="node">
<title>Node6</title>
<g id="a_Node000006"><a xlink:title=" ">
<polygon fill="#e0e0e0" stroke="#999999" points="229,-19 153,-19 153,0 229,0 229,-19"/>
<text text-anchor="middle" x="191" y="-7" font-family="Helvetica,sans-Serif" font-size="10.00">QJsonObject</text>
</a>
</g>
</g>
<!-- Node2&#45;&gt;Node6 -->
<g id="edge21_Node000002_Node000006" class="edge">
<title>Node2&#45;&gt;Node6</title>
<g id="a_edge21_Node000002_Node000006"><a xlink:title=" ">
<path fill="none" stroke="#63b8ff" d="M211.68,-169.7C183.41,-164.23 153.61,-152.68 136,-129 111.44,-95.97 149.34,-50.22 173.49,-26.38"/>
<polygon fill="#63b8ff" stroke="#63b8ff" points="176.22,-28.62 181.04,-19.19 171.39,-23.55 176.22,-28.62"/>
</a>
</g>
</g>
<!-- Node2&#45;&gt;Node7 -->
<g id="edge23_Node000002_Node000007" class="edge">
<title>Node2&#45;&gt;Node7</title>
<g id="a_edge23_Node000002_Node000007"><a xlink:title=" ">
<path fill="none" stroke="#63b8ff" d="M280.51,-164.74C274.89,-151.52 262.75,-126.31 246,-110 219.13,-83.84 159.68,-85.14 182,-55 206.94,-21.33 256.78,-12.27 291.24,-10.27"/>
<polygon fill="#63b8ff" stroke="#63b8ff" points="291.55,-13.76 301.4,-9.86 291.26,-6.77 291.55,-13.76"/>
</a>
</g>
</g>
<!-- Node8 -->
<g id="Node000008" class="node">
<title>Node8</title>
<g id="a_Node000008"><a xlink:title=" ">
<polygon fill="#e0e0e0" stroke="#999999" points="261.5,-74 190.5,-74 190.5,-55 261.5,-55 261.5,-74"/>
<text text-anchor="middle" x="226" y="-62" font-family="Helvetica,sans-Serif" font-size="10.00">QJsonArray</text>
</a>
</g>
</g>
<!-- Node2&#45;&gt;Node8 -->
<g id="edge20_Node000002_Node000008" class="edge">
<title>Node2&#45;&gt;Node8</title>
<g id="a_edge20_Node000002_Node000008"><a xlink:title=" ">
<path fill="none" stroke="#63b8ff" d="M285.35,-164.71C286.88,-151.9 288.11,-127.7 279,-110 272.64,-97.65 261.21,-87.38 250.59,-79.83"/>
<polygon fill="#63b8ff" stroke="#63b8ff" points="252.27,-76.73 241.99,-74.14 248.4,-82.57 252.27,-76.73"/>
</a>
</g>
</g>
<!-- Node2&#45;&gt;Node11 -->
<g id="edge13_Node000002_Node000011" class="edge">
<title>Node2&#45;&gt;Node11</title>
<g id="a_edge13_Node000002_Node000011"><a xlink:title=" ">
<path fill="none" stroke="#63b8ff" d="M317.26,-164.98C352.61,-155.93 408.67,-141.58 447.51,-131.64"/>
<polygon fill="#63b8ff" stroke="#63b8ff" points="448.66,-134.95 457.48,-129.08 446.93,-128.17 448.66,-134.95"/>
</a>
</g>
</g>
<!-- Node13 -->
<g id="Node000013" class="node">
<title>Node13</title>
<g id="a_Node000013"><a xlink:title=" ">
<polygon fill="#e0e0e0" stroke="#999999" points="237,-129 145,-129 145,-110 237,-110 237,-129"/>
<text text-anchor="middle" x="191" y="-117" font-family="Helvetica,sans-Serif" font-size="10.00">QSharedPointer</text>
</a>
</g>
</g>
<!-- Node2&#45;&gt;Node13 -->
<g id="edge22_Node000002_Node000013" class="edge">
<title>Node2&#45;&gt;Node13</title>
<g id="a_edge22_Node000002_Node000013"><a xlink:title=" ">
<path fill="none" stroke="#63b8ff" d="M269.06,-164.98C254.5,-156.69 232.13,-143.94 215.07,-134.22"/>
<polygon fill="#63b8ff" stroke="#63b8ff" points="216.64,-131.08 206.21,-129.17 213.17,-137.16 216.64,-131.08"/>
</a>
</g>
</g>
<!-- Node3&#45;&gt;Node4 -->
<g id="edge3_Node000003_Node000004" class="edge">
<title>Node3&#45;&gt;Node4</title>
<g id="a_edge3_Node000003_Node000004"><a xlink:title=" ">
<path fill="none" stroke="#63b8ff" d="M330.98,-111.13C271.12,-101.55 166.61,-84.81 102.15,-74.49"/>
<polygon fill="#63b8ff" stroke="#63b8ff" points="102.59,-71.02 92.17,-72.89 101.49,-77.93 102.59,-71.02"/>
</a>
</g>
</g>
<!-- Node3&#45;&gt;Node6 -->
<g id="edge8_Node000003_Node000006" class="edge">
<title>Node3&#45;&gt;Node6</title>
<g id="a_edge8_Node000003_Node000006"><a xlink:title=" ">
<path fill="none" stroke="#63b8ff" d="M363.02,-109.93C342.83,-97.6 304.25,-74.2 271,-55 252.65,-44.4 231.71,-32.77 215.86,-24.06"/>
<polygon fill="#63b8ff" stroke="#63b8ff" points="217.17,-20.79 206.72,-19.05 213.81,-26.93 217.17,-20.79"/>
</a>
</g>
</g>
<!-- Node3&#45;&gt;Node7 -->
<g id="edge11_Node000003_Node000007" class="edge">
<title>Node3&#45;&gt;Node7</title>
<g id="a_edge11_Node000003_Node000007"><a xlink:title=" ">
<path fill="none" stroke="#63b8ff" d="M370.24,-109.72C363.81,-101.04 354.22,-87.17 348,-74 341.2,-59.61 335.93,-42.33 332.51,-29.44"/>
<polygon fill="#63b8ff" stroke="#63b8ff" points="335.82,-28.26 329.99,-19.41 329.04,-29.96 335.82,-28.26"/>
</a>
</g>
</g>
<!-- Node3&#45;&gt;Node8 -->
<g id="edge7_Node000003_Node000008" class="edge">
<title>Node3&#45;&gt;Node8</title>
<g id="a_edge7_Node000003_Node000008"><a xlink:title=" ">
<path fill="none" stroke="#63b8ff" d="M352.74,-109.98C327.68,-101.19 288.37,-87.39 260.17,-77.49"/>
<polygon fill="#63b8ff" stroke="#63b8ff" points="261.3,-74.18 250.7,-74.17 258.98,-80.78 261.3,-74.18"/>
</a>
</g>
</g>
<!-- Node9 -->
<g id="Node000009" class="node">
<title>Node9</title>
<g id="a_Node000009"><a xlink:title=" ">
<polygon fill="#e0e0e0" stroke="#999999" points="397.5,-74 356.5,-74 356.5,-55 397.5,-55 397.5,-74"/>
<text text-anchor="middle" x="377" y="-62" font-family="Helvetica,sans-Serif" font-size="10.00">QList</text>
</a>
</g>
</g>
<!-- Node3&#45;&gt;Node9 -->
<g id="edge9_Node000003_Node000009" class="edge">
<title>Node3&#45;&gt;Node9</title>
<g id="a_edge9_Node000003_Node000009"><a xlink:title=" ">
<path fill="none" stroke="#63b8ff" d="M377,-109.75C377,-102.8 377,-92.85 377,-84.13"/>
<polygon fill="#63b8ff" stroke="#63b8ff" points="380.5,-84.09 377,-74.09 373.5,-84.09 380.5,-84.09"/>
</a>
</g>
</g>
<!-- Node10 -->
<g id="Node000010" class="node">
<title>Node10</title>
<g id="a_Node000010"><a xlink:title=" ">
<polygon fill="#e0e0e0" stroke="#999999" points="470.5,-74 415.5,-74 415.5,-55 470.5,-55 470.5,-74"/>
<text text-anchor="middle" x="443" y="-62" font-family="Helvetica,sans-Serif" font-size="10.00">QPointF</text>
</a>
</g>
</g>
<!-- Node3&#45;&gt;Node10 -->
<g id="edge10_Node000003_Node000010" class="edge">
<title>Node3&#45;&gt;Node10</title>
<g id="a_edge10_Node000003_Node000010"><a xlink:title=" ">
<path fill="none" stroke="#63b8ff" d="M387.6,-109.98C397.46,-102.07 412.35,-90.11 424.22,-80.58"/>
<polygon fill="#63b8ff" stroke="#63b8ff" points="426.6,-83.16 432.2,-74.17 422.21,-77.7 426.6,-83.16"/>
</a>
</g>
</g>
<!-- Node5 -->
<g id="Node000005" class="node">
<title>Node5</title>
<g id="a_Node000005"><a xlink:title=" ">
<polygon fill="#e0e0e0" stroke="#999999" points="82.5,-19 9.5,-19 9.5,0 82.5,0 82.5,-19"/>
<text text-anchor="middle" x="46" y="-7" font-family="Helvetica,sans-Serif" font-size="10.00">QByteArray</text>
</a>
</g>
</g>
<!-- Node4&#45;&gt;Node5 -->
<g id="edge4_Node000004_Node000005" class="edge">
<title>Node4&#45;&gt;Node5</title>
<g id="a_edge4_Node000004_Node000005"><a xlink:title=" ">
<path fill="none" stroke="#63b8ff" d="M46,-54.75C46,-47.8 46,-37.85 46,-29.13"/>
<polygon fill="#63b8ff" stroke="#63b8ff" points="49.5,-29.09 46,-19.09 42.5,-29.09 49.5,-29.09"/>
</a>
</g>
</g>
<!-- Node4&#45;&gt;Node6 -->
<g id="edge5_Node000004_Node000006" class="edge">
<title>Node4&#45;&gt;Node6</title>
<g id="a_edge5_Node000004_Node000006"><a xlink:title=" ">
<path fill="none" stroke="#63b8ff" d="M69.3,-54.98C93.25,-46.23 130.78,-32.51 157.83,-22.62"/>
<polygon fill="#63b8ff" stroke="#63b8ff" points="159.09,-25.89 167.28,-19.17 156.69,-19.32 159.09,-25.89"/>
</a>
</g>
</g>
<!-- Node4&#45;&gt;Node7 -->
<g id="edge6_Node000004_Node000007" class="edge">
<title>Node4&#45;&gt;Node7</title>
<g id="a_edge6_Node000004_Node000007"><a xlink:title=" ">
<path fill="none" stroke="#63b8ff" d="M91.31,-54.98C146.95,-44.53 240.23,-27 291.5,-17.36"/>
<polygon fill="#63b8ff" stroke="#63b8ff" points="292.29,-20.77 301.47,-15.49 291,-13.89 292.29,-20.77"/>
</a>
</g>
</g>
<!-- Node11&#45;&gt;Node6 -->
<g id="edge15_Node000011_Node000006" class="edge">
<title>Node11&#45;&gt;Node6</title>
<g id="a_edge15_Node000011_Node000006"><a xlink:title=" ">
<path fill="none" stroke="#63b8ff" d="M492.37,-109.68C493.95,-95.92 494.69,-69.42 480,-55 463.07,-38.39 316.88,-22.32 239.15,-14.85"/>
<polygon fill="#63b8ff" stroke="#63b8ff" points="239.4,-11.36 229.11,-13.9 238.74,-18.33 239.4,-11.36"/>
</a>
</g>
</g>
<!-- Node11&#45;&gt;Node7 -->
<g id="edge19_Node000011_Node000007" class="edge">
<title>Node11&#45;&gt;Node7</title>
<g id="a_edge19_Node000011_Node000007"><a xlink:title=" ">
<path fill="none" stroke="#63b8ff" d="M498.75,-109.83C509.48,-96.74 526.14,-71.68 513,-55 494.9,-32.04 413.38,-19.55 364.8,-14.04"/>
<polygon fill="#63b8ff" stroke="#63b8ff" points="365,-10.54 354.68,-12.93 364.24,-17.5 365,-10.54"/>
</a>
</g>
</g>
<!-- Node11&#45;&gt;Node8 -->
<g id="edge14_Node000011_Node000008" class="edge">
<title>Node11&#45;&gt;Node8</title>
<g id="a_edge14_Node000011_Node000008"><a xlink:title=" ">
<path fill="none" stroke="#63b8ff" d="M448.42,-109.98C399.97,-100.29 321.14,-84.53 271.5,-74.6"/>
<polygon fill="#63b8ff" stroke="#63b8ff" points="272.17,-71.16 261.67,-72.63 270.79,-78.03 272.17,-71.16"/>
</a>
</g>
</g>
<!-- Node11&#45;&gt;Node9 -->
<g id="edge16_Node000011_Node000009" class="edge">
<title>Node11&#45;&gt;Node9</title>
<g id="a_edge16_Node000011_Node000009"><a xlink:title=" ">
<path fill="none" stroke="#63b8ff" d="M472.68,-109.98C454.34,-101.46 425.89,-88.23 404.77,-78.41"/>
<polygon fill="#63b8ff" stroke="#63b8ff" points="406.19,-75.21 395.65,-74.17 403.24,-81.56 406.19,-75.21"/>
</a>
</g>
</g>
<!-- Node11&#45;&gt;Node10 -->
<g id="edge17_Node000011_Node000010" class="edge">
<title>Node11&#45;&gt;Node10</title>
<g id="a_edge17_Node000011_Node000010"><a xlink:title=" ">
<path fill="none" stroke="#63b8ff" d="M483.07,-109.75C476.15,-102.11 465.93,-90.82 457.55,-81.56"/>
<polygon fill="#63b8ff" stroke="#63b8ff" points="460.09,-79.15 450.78,-74.09 454.9,-83.85 460.09,-79.15"/>
</a>
</g>
</g>
<!-- Node12 -->
<g id="Node000012" class="node">
<title>Node12</title>
<g id="a_Node000012"><a xlink:title=" ">
<polygon fill="#e0e0e0" stroke="#999999" points="617,-74 565,-74 565,-55 617,-55 617,-74"/>
<text text-anchor="middle" x="591" y="-62" font-family="Helvetica,sans-Serif" font-size="10.00">QRectF</text>
</a>
</g>
</g>
<!-- Node11&#45;&gt;Node12 -->
<g id="edge18_Node000011_Node000012" class="edge">
<title>Node11&#45;&gt;Node12</title>
<g id="a_edge18_Node000011_Node000012"><a xlink:title=" ">
<path fill="none" stroke="#63b8ff" d="M507.07,-109.98C522.86,-101.61 547.22,-88.7 565.63,-78.95"/>
<polygon fill="#63b8ff" stroke="#63b8ff" points="567.44,-81.95 574.64,-74.17 564.17,-75.76 567.44,-81.95"/>
</a>
</g>
</g>
</g>
</svg>
