<?xml version="1.0" encoding="UTF-8" standalone="no"?>
<!DOCTYPE svg PUBLIC "-//W3C//DTD SVG 1.1//EN"
 "http://www.w3.org/Graphics/SVG/1.1/DTD/svg11.dtd">
<!-- Generated by graphviz version 2.43.0 (0)
 -->
<!-- Title: core/kicad/Exporter3DModel.h Pages: 1 -->
<svg width="1250pt" height="357pt"
 viewBox="0.00 0.00 1249.50 357.00" xmlns="http://www.w3.org/2000/svg" xmlns:xlink="http://www.w3.org/1999/xlink">
<g id="graph0" class="graph" transform="scale(1 1) rotate(0) translate(4 353)">
<title>core/kicad/Exporter3DModel.h</title>
<!-- Node1 -->
<g id="Node000001" class="node">
<title>Node1</title>
<g id="a_Node000001"><a xlink:title=" ">
<polygon fill="#999999" stroke="#666666" points="597.5,-349 433.5,-349 433.5,-330 597.5,-330 597.5,-349"/>
<text text-anchor="middle" x="515.5" y="-337" font-family="Helvetica,sans-Serif" font-size="10.00">core/kicad/Exporter3DModel.h</text>
</a>
</g>
</g>
<!-- Node2 -->
<g id="Node000002" class="node">
<title>Node2</title>
<g id="a_Node000002"><a xlink:href="Exporter3DModel_8cpp.html" target="_top" xlink:title=" ">
<polygon fill="white" stroke="#666666" points="175,-288.5 0,-288.5 0,-269.5 175,-269.5 175,-288.5"/>
<text text-anchor="middle" x="87.5" y="-276.5" font-family="Helvetica,sans-Serif" font-size="10.00">core/kicad/Exporter3DModel.cpp</text>
</a>
</g>
</g>
<!-- Node1&#45;&gt;Node2 -->
<g id="edge1_Node000001_Node000002" class="edge">
<title>Node1&#45;&gt;Node2</title>
<g id="a_edge1_Node000001_Node000002"><a xlink:title=" ">
<path fill="none" stroke="#63b8ff" d="M440.72,-328.66C373.62,-319.77 272.44,-306.26 184.5,-294 172.03,-292.26 158.66,-290.36 145.96,-288.53"/>
<polygon fill="#63b8ff" stroke="#63b8ff" points="440.41,-332.15 450.78,-329.99 441.33,-325.21 440.41,-332.15"/>
</a>
</g>
</g>
<!-- Node3 -->
<g id="Node000003" class="node">
<title>Node3</title>
<g id="a_Node000003"><a xlink:href="ComponentExportTask_8cpp.html" target="_top" xlink:title=" ">
<polygon fill="white" stroke="#666666" points="341.5,-294 193.5,-294 193.5,-264 341.5,-264 341.5,-294"/>
<text text-anchor="start" x="201.5" y="-282" font-family="Helvetica,sans-Serif" font-size="10.00">services/ComponentExport</text>
<text text-anchor="middle" x="267.5" y="-271" font-family="Helvetica,sans-Serif" font-size="10.00">Task.cpp</text>
</a>
</g>
</g>
<!-- Node1&#45;&gt;Node3 -->
<g id="edge2_Node000001_Node000003" class="edge">
<title>Node1&#45;&gt;Node3</title>
<g id="a_edge2_Node000001_Node000003"><a xlink:title=" ">
<path fill="none" stroke="#63b8ff" d="M469.65,-327.68C429.5,-318.21 370.9,-304.39 327.12,-294.06"/>
<polygon fill="#63b8ff" stroke="#63b8ff" points="468.9,-331.1 479.44,-329.99 470.51,-324.29 468.9,-331.1"/>
</a>
</g>
</g>
<!-- Node4 -->
<g id="Node000004" class="node">
<title>Node4</title>
<g id="a_Node000004"><a xlink:href="ExportService_8cpp.html" target="_top" xlink:title=" ">
<polygon fill="white" stroke="#666666" points="507.5,-288.5 359.5,-288.5 359.5,-269.5 507.5,-269.5 507.5,-288.5"/>
<text text-anchor="middle" x="433.5" y="-276.5" font-family="Helvetica,sans-Serif" font-size="10.00">services/ExportService.cpp</text>
</a>
</g>
</g>
<!-- Node1&#45;&gt;Node4 -->
<g id="edge3_Node000001_Node000004" class="edge">
<title>Node1&#45;&gt;Node4</title>
<g id="a_edge3_Node000001_Node000004"><a xlink:title=" ">
<path fill="none" stroke="#63b8ff" d="M494.96,-323.85C479.43,-312.77 458.63,-297.93 445.65,-288.67"/>
<polygon fill="#63b8ff" stroke="#63b8ff" points="493.23,-326.91 503.4,-329.87 497.29,-321.21 493.23,-326.91"/>
</a>
</g>
</g>
<!-- Node5 -->
<g id="Node000005" class="node">
<title>Node5</title>
<g id="a_Node000005"><a xlink:href="ExportWorker_8cpp.html" target="_top" xlink:title=" ">
<polygon fill="white" stroke="#666666" points="669,-288.5 526,-288.5 526,-269.5 669,-269.5 669,-288.5"/>
<text text-anchor="middle" x="597.5" y="-276.5" font-family="Helvetica,sans-Serif" font-size="10.00">workers/ExportWorker.cpp</text>
</a>
</g>
</g>
<!-- Node1&#45;&gt;Node5 -->
<g id="edge4_Node000001_Node000005" class="edge">
<title>Node1&#45;&gt;Node5</title>
<g id="a_edge4_Node000001_Node000005"><a xlink:title=" ">
<path fill="none" stroke="#63b8ff" d="M536.04,-323.85C551.57,-312.77 572.37,-297.93 585.35,-288.67"/>
<polygon fill="#63b8ff" stroke="#63b8ff" points="533.71,-321.21 527.6,-329.87 537.77,-326.91 533.71,-321.21"/>
</a>
</g>
</g>
<!-- Node6 -->
<g id="Node000006" class="node">
<title>Node6</title>
<g id="a_Node000006"><a xlink:href="WriteWorker_8cpp.html" target="_top" xlink:title=" ">
<polygon fill="white" stroke="#666666" points="765,-222.5 628,-222.5 628,-203.5 765,-203.5 765,-222.5"/>
<text text-anchor="middle" x="696.5" y="-210.5" font-family="Helvetica,sans-Serif" font-size="10.00">workers/WriteWorker.cpp</text>
</a>
</g>
</g>
<!-- Node1&#45;&gt;Node6 -->
<g id="edge5_Node000001_Node000006" class="edge">
<title>Node1&#45;&gt;Node6</title>
<g id="a_edge5_Node000001_Node000006"><a xlink:title=" ">
<path fill="none" stroke="#63b8ff" d="M607.38,-330.74C633.07,-324.32 659,-313.16 677.5,-294 696.54,-274.28 697.71,-239.14 697.1,-222.8"/>
<polygon fill="#63b8ff" stroke="#63b8ff" points="606.54,-327.34 597.57,-332.97 608.09,-334.16 606.54,-327.34"/>
</a>
</g>
</g>
<!-- Node7 -->
<g id="Node000007" class="node">
<title>Node7</title>
<g id="a_Node000007"><a xlink:href="WriteWorker_8h.html" target="_top" xlink:title=" ">
<polygon fill="white" stroke="#666666" points="854.5,-288.5 728.5,-288.5 728.5,-269.5 854.5,-269.5 854.5,-288.5"/>
<text text-anchor="middle" x="791.5" y="-276.5" font-family="Helvetica,sans-Serif" font-size="10.00">workers/WriteWorker.h</text>
</a>
</g>
</g>
<!-- Node1&#45;&gt;Node7 -->
<g id="edge6_Node000001_Node000007" class="edge">
<title>Node1&#45;&gt;Node7</title>
<g id="a_edge6_Node000001_Node000007"><a xlink:title=" ">
<path fill="none" stroke="#63b8ff" d="M565.55,-327.89C618.84,-316.6 702.14,-298.94 751.32,-288.52"/>
<polygon fill="#63b8ff" stroke="#63b8ff" points="564.69,-324.5 555.63,-329.99 566.14,-331.34 564.69,-324.5"/>
</a>
</g>
</g>
<!-- Node7&#45;&gt;Node6 -->
<g id="edge18_Node000007_Node000006" class="edge">
<title>Node7&#45;&gt;Node6</title>
<g id="a_edge18_Node000007_Node000006"><a xlink:title=" ">
<path fill="none" stroke="#63b8ff" d="M770.24,-263.68C751.58,-251.11 725.04,-233.23 709.41,-222.7"/>
<polygon fill="#63b8ff" stroke="#63b8ff" points="768.44,-266.68 778.69,-269.37 772.35,-260.88 768.44,-266.68"/>
</a>
</g>
</g>
<!-- Node8 -->
<g id="Node000008" class="node">
<title>Node8</title>
<g id="a_Node000008"><a xlink:href="ExportService__Pipeline_8cpp.html" target="_top" xlink:title=" ">
<polygon fill="white" stroke="#666666" points="803.5,-96 675.5,-96 675.5,-66 803.5,-66 803.5,-96"/>
<text text-anchor="start" x="683.5" y="-84" font-family="Helvetica,sans-Serif" font-size="10.00">services/ExportService</text>
<text text-anchor="middle" x="739.5" y="-73" font-family="Helvetica,sans-Serif" font-size="10.00">_Pipeline.cpp</text>
</a>
</g>
</g>
<!-- Node7&#45;&gt;Node8 -->
<g id="edge7_Node000007_Node000008" class="edge">
<title>Node7&#45;&gt;Node8</title>
<g id="a_edge7_Node000007_Node000008"><a xlink:title=" ">
<path fill="none" stroke="#63b8ff" d="M787.96,-259.19C784.79,-242.91 779.83,-218.78 774.5,-198 764.98,-160.92 751.31,-117.93 744.2,-96.18"/>
<polygon fill="#63b8ff" stroke="#63b8ff" points="784.54,-259.9 789.85,-269.06 791.41,-258.59 784.54,-259.9"/>
</a>
</g>
</g>
<!-- Node9 -->
<g id="Node000009" class="node">
<title>Node9</title>
<g id="a_Node000009"><a xlink:href="WriteStageHandler_8h.html" target="_top" xlink:title=" ">
<polygon fill="white" stroke="#666666" points="978,-228 849,-228 849,-198 978,-198 978,-228"/>
<text text-anchor="start" x="857" y="-216" font-family="Helvetica,sans-Serif" font-size="10.00">services/pipeline/stage</text>
<text text-anchor="middle" x="913.5" y="-205" font-family="Helvetica,sans-Serif" font-size="10.00">/WriteStageHandler.h</text>
</a>
</g>
</g>
<!-- Node7&#45;&gt;Node9 -->
<g id="edge8_Node000007_Node000009" class="edge">
<title>Node7&#45;&gt;Node9</title>
<g id="a_edge8_Node000007_Node000009"><a xlink:title=" ">
<path fill="none" stroke="#63b8ff" d="M816.96,-264.64C837.34,-253.95 865.84,-239 886.59,-228.12"/>
<polygon fill="#63b8ff" stroke="#63b8ff" points="815.18,-261.62 807.95,-269.37 818.43,-267.82 815.18,-261.62"/>
</a>
</g>
</g>
<!-- Node10 -->
<g id="Node000010" class="node">
<title>Node10</title>
<g id="a_Node000010"><a xlink:href="ExportService__Pipeline_8h.html" target="_top" xlink:title=" ">
<polygon fill="white" stroke="#666666" points="977.5,-162 849.5,-162 849.5,-132 977.5,-132 977.5,-162"/>
<text text-anchor="start" x="857.5" y="-150" font-family="Helvetica,sans-Serif" font-size="10.00">services/ExportService</text>
<text text-anchor="middle" x="913.5" y="-139" font-family="Helvetica,sans-Serif" font-size="10.00">_Pipeline.h</text>
</a>
</g>
</g>
<!-- Node9&#45;&gt;Node10 -->
<g id="edge9_Node000009_Node000010" class="edge">
<title>Node9&#45;&gt;Node10</title>
<g id="a_edge9_Node000009_Node000010"><a xlink:title=" ">
<path fill="none" stroke="#63b8ff" d="M913.5,-187.54C913.5,-178.96 913.5,-169.61 913.5,-162.16"/>
<polygon fill="#63b8ff" stroke="#63b8ff" points="910,-187.8 913.5,-197.8 917,-187.8 910,-187.8"/>
</a>
</g>
</g>
<!-- Node15 -->
<g id="Node000015" class="node">
<title>Node15</title>
<g id="a_Node000015"><a xlink:href="WriteStageHandler_8cpp.html" target="_top" xlink:title=" ">
<polygon fill="white" stroke="#666666" points="1127,-162 996,-162 996,-132 1127,-132 1127,-162"/>
<text text-anchor="start" x="1004" y="-150" font-family="Helvetica,sans-Serif" font-size="10.00">services/pipeline/stage</text>
<text text-anchor="middle" x="1061.5" y="-139" font-family="Helvetica,sans-Serif" font-size="10.00">/WriteStageHandler.cpp</text>
</a>
</g>
</g>
<!-- Node9&#45;&gt;Node15 -->
<g id="edge17_Node000009_Node000015" class="edge">
<title>Node9&#45;&gt;Node15</title>
<g id="a_edge17_Node000009_Node000015"><a xlink:title=" ">
<path fill="none" stroke="#63b8ff" d="M955.31,-193.92C978.7,-183.8 1007.42,-171.38 1029.1,-162.01"/>
<polygon fill="#63b8ff" stroke="#63b8ff" points="953.77,-190.77 945.98,-197.95 956.55,-197.2 953.77,-190.77"/>
</a>
</g>
</g>
<!-- Node10&#45;&gt;Node8 -->
<g id="edge11_Node000010_Node000008" class="edge">
<title>Node10&#45;&gt;Node8</title>
<g id="a_edge11_Node000010_Node000008"><a xlink:title=" ">
<path fill="none" stroke="#63b8ff" d="M865.8,-128.46C838.04,-118.25 803.53,-105.55 777.6,-96.01"/>
<polygon fill="#63b8ff" stroke="#63b8ff" points="864.72,-131.79 875.31,-131.95 867.14,-125.22 864.72,-131.79"/>
</a>
</g>
</g>
<!-- Node11 -->
<g id="Node000011" class="node">
<title>Node11</title>
<g id="a_Node000011"><a xlink:href="main_8cpp.html" target="_top" xlink:title=" ">
<polygon fill="white" stroke="#666666" points="906.5,-24.5 844.5,-24.5 844.5,-5.5 906.5,-5.5 906.5,-24.5"/>
<text text-anchor="middle" x="875.5" y="-12.5" font-family="Helvetica,sans-Serif" font-size="10.00">main.cpp</text>
</a>
</g>
</g>
<!-- Node10&#45;&gt;Node11 -->
<g id="edge10_Node000010_Node000011" class="edge">
<title>Node10&#45;&gt;Node11</title>
<g id="a_edge10_Node000010_Node000011"><a xlink:title=" ">
<path fill="none" stroke="#63b8ff" d="M877.35,-126.03C866.7,-118.18 856.35,-108.1 850.5,-96 838.6,-71.37 857.66,-39.77 868.63,-24.72"/>
<polygon fill="#63b8ff" stroke="#63b8ff" points="875.65,-129.1 885.88,-131.85 879.59,-123.32 875.65,-129.1"/>
</a>
</g>
</g>
<!-- Node12 -->
<g id="Node000012" class="node">
<title>Node12</title>
<g id="a_Node000012"><a xlink:href="ExportProgressViewModel_8cpp.html" target="_top" xlink:title=" ">
<polygon fill="white" stroke="#666666" points="1110.5,-30 946.5,-30 946.5,0 1110.5,0 1110.5,-30"/>
<text text-anchor="start" x="954.5" y="-18" font-family="Helvetica,sans-Serif" font-size="10.00">ui/viewmodels/ExportProgress</text>
<text text-anchor="middle" x="1028.5" y="-7" font-family="Helvetica,sans-Serif" font-size="10.00">ViewModel.cpp</text>
</a>
</g>
</g>
<!-- Node10&#45;&gt;Node12 -->
<g id="edge12_Node000010_Node000012" class="edge">
<title>Node10&#45;&gt;Node12</title>
<g id="a_edge12_Node000010_Node000012"><a xlink:title=" ">
<path fill="none" stroke="#63b8ff" d="M987.12,-130.37C1004.9,-122.96 1021.83,-112.05 1032.5,-96 1045.66,-76.19 1039.46,-47.15 1033.88,-30.05"/>
<polygon fill="#63b8ff" stroke="#63b8ff" points="985.87,-127.11 977.77,-133.94 988.36,-133.65 985.87,-127.11"/>
</a>
</g>
</g>
<!-- Node13 -->
<g id="Node000013" class="node">
<title>Node13</title>
<g id="a_Node000013"><a xlink:href="ExportProgressViewModel_8h.html" target="_top" xlink:title=" ">
<polygon fill="white" stroke="#666666" points="1023.5,-96 859.5,-96 859.5,-66 1023.5,-66 1023.5,-96"/>
<text text-anchor="start" x="867.5" y="-84" font-family="Helvetica,sans-Serif" font-size="10.00">ui/viewmodels/ExportProgress</text>
<text text-anchor="middle" x="941.5" y="-73" font-family="Helvetica,sans-Serif" font-size="10.00">ViewModel.h</text>
</a>
</g>
</g>
<!-- Node10&#45;&gt;Node13 -->
<g id="edge13_Node000010_Node000013" class="edge">
<title>Node10&#45;&gt;Node13</title>
<g id="a_edge13_Node000010_Node000013"><a xlink:title=" ">
<path fill="none" stroke="#63b8ff" d="M923.83,-122.39C927.68,-113.59 931.93,-103.86 935.3,-96.16"/>
<polygon fill="#63b8ff" stroke="#63b8ff" points="920.52,-121.23 919.71,-131.8 926.93,-124.04 920.52,-121.23"/>
</a>
</g>
</g>
<!-- Node14 -->
<g id="Node000014" class="node">
<title>Node14</title>
<g id="a_Node000014"><a xlink:href="ExportSettingsViewModel_8cpp.html" target="_top" xlink:title=" ">
<polygon fill="white" stroke="#666666" points="1241.5,-96 1079.5,-96 1079.5,-66 1241.5,-66 1241.5,-96"/>
<text text-anchor="start" x="1087.5" y="-84" font-family="Helvetica,sans-Serif" font-size="10.00">ui/viewmodels/ExportSettings</text>
<text text-anchor="middle" x="1160.5" y="-73" font-family="Helvetica,sans-Serif" font-size="10.00">ViewModel.cpp</text>
</a>
</g>
</g>
<!-- Node10&#45;&gt;Node14 -->
<g id="edge16_Node000010_Node000014" class="edge">
<title>Node10&#45;&gt;Node14</title>
<g id="a_edge16_Node000010_Node000014"><a xlink:title=" ">
<path fill="none" stroke="#63b8ff" d="M977.62,-129.39C1017.6,-119.03 1068.48,-105.84 1106.42,-96.01"/>
<polygon fill="#63b8ff" stroke="#63b8ff" points="976.51,-126.06 967.71,-131.95 978.26,-132.83 976.51,-126.06"/>
</a>
</g>
</g>
<!-- Node13&#45;&gt;Node11 -->
<g id="edge14_Node000013_Node000011" class="edge">
<title>Node13&#45;&gt;Node11</title>
<g id="a_edge14_Node000013_Node000011"><a xlink:title=" ">
<path fill="none" stroke="#63b8ff" d="M919.44,-58.6C907.57,-47.1 893.57,-33.52 884.62,-24.84"/>
<polygon fill="#63b8ff" stroke="#63b8ff" points="917.24,-61.35 926.85,-65.8 922.11,-56.32 917.24,-61.35"/>
</a>
</g>
</g>
<!-- Node13&#45;&gt;Node12 -->
<g id="edge15_Node000013_Node000012" class="edge">
<title>Node13&#45;&gt;Node12</title>
<g id="a_edge15_Node000013_Node000012"><a xlink:title=" ">
<path fill="none" stroke="#63b8ff" d="M969.02,-59.75C982.11,-50.13 997.43,-38.86 1009.25,-30.16"/>
<polygon fill="#63b8ff" stroke="#63b8ff" points="966.79,-57.05 960.81,-65.8 970.94,-62.69 966.79,-57.05"/>
</a>
</g>
</g>
</g>
</svg>
