<?xml version="1.0" encoding="UTF-8" standalone="no"?>
<!DOCTYPE svg PUBLIC "-//W3C//DTD SVG 1.1//EN"
 "http://www.w3.org/Graphics/SVG/1.1/DTD/svg11.dtd">
<!-- Generated by graphviz version 2.43.0 (0)
 -->
<!-- Title: core/kicad/ExporterSymbol.h Pages: 1 -->
<svg width="529pt" height="192pt"
 viewBox="0.00 0.00 529.00 192.00" xmlns="http://www.w3.org/2000/svg" xmlns:xlink="http://www.w3.org/1999/xlink">
<g id="graph0" class="graph" transform="scale(1 1) rotate(0) translate(4 188)">
<title>core/kicad/ExporterSymbol.h</title>
<!-- Node1 -->
<g id="Node000001" class="node">
<title>Node1</title>
<g id="a_Node000001"><a xlink:title=" ">
<polygon fill="#999999" stroke="#666666" points="386.5,-184 229.5,-184 229.5,-165 386.5,-165 386.5,-184"/>
<text text-anchor="middle" x="308" y="-172" font-family="Helvetica,sans-Serif" font-size="10.00">core/kicad/ExporterSymbol.h</text>
</a>
</g>
</g>
<!-- Node2 -->
<g id="Node000002" class="node">
<title>Node2</title>
<g id="a_Node000002"><a xlink:href="SymbolGraphicsGenerator_8h.html" target="_top" xlink:title=" ">
<polygon fill="white" stroke="#666666" points="384.5,-129 231.5,-129 231.5,-110 384.5,-110 384.5,-129"/>
<text text-anchor="middle" x="308" y="-117" font-family="Helvetica,sans-Serif" font-size="10.00">SymbolGraphicsGenerator.h</text>
</a>
</g>
</g>
<!-- Node1&#45;&gt;Node2 -->
<g id="edge1_Node000001_Node000002" class="edge">
<title>Node1&#45;&gt;Node2</title>
<g id="a_edge1_Node000001_Node000002"><a xlink:title=" ">
<path fill="none" stroke="#63b8ff" d="M308,-164.75C308,-157.8 308,-147.85 308,-139.13"/>
<polygon fill="#63b8ff" stroke="#63b8ff" points="311.5,-139.09 308,-129.09 304.5,-139.09 311.5,-139.09"/>
</a>
</g>
</g>
<!-- Node3 -->
<g id="Node000003" class="node">
<title>Node3</title>
<g id="a_Node000003"><a xlink:href="SymbolData_8h.html" target="_top" xlink:title=" ">
<polygon fill="white" stroke="#666666" points="289.5,-74 164.5,-74 164.5,-55 289.5,-55 289.5,-74"/>
<text text-anchor="middle" x="227" y="-62" font-family="Helvetica,sans-Serif" font-size="10.00">models/SymbolData.h</text>
</a>
</g>
</g>
<!-- Node1&#45;&gt;Node3 -->
<g id="edge10_Node000001_Node000003" class="edge">
<title>Node1&#45;&gt;Node3</title>
<g id="a_edge10_Node000001_Node000003"><a xlink:title=" ">
<path fill="none" stroke="#63b8ff" d="M272.95,-164.88C254.35,-158.33 233.1,-147.24 222,-129 213.74,-115.43 216.32,-97.1 220.18,-83.63"/>
<polygon fill="#63b8ff" stroke="#63b8ff" points="223.53,-84.63 223.37,-74.04 216.89,-82.43 223.53,-84.63"/>
</a>
</g>
</g>
<!-- Node5 -->
<g id="Node000005" class="node">
<title>Node5</title>
<g id="a_Node000005"><a xlink:title=" ">
<polygon fill="#e0e0e0" stroke="#999999" points="76,-19 0,-19 0,0 76,0 76,-19"/>
<text text-anchor="middle" x="38" y="-7" font-family="Helvetica,sans-Serif" font-size="10.00">QJsonObject</text>
</a>
</g>
</g>
<!-- Node1&#45;&gt;Node5 -->
<g id="edge11_Node000001_Node000005" class="edge">
<title>Node1&#45;&gt;Node5</title>
<g id="a_edge11_Node000001_Node000005"><a xlink:title=" ">
<path fill="none" stroke="#63b8ff" d="M287.15,-164.86C267.58,-156.49 237.7,-143.03 213,-129 154.35,-95.68 89.68,-49.1 57.89,-25.49"/>
<polygon fill="#63b8ff" stroke="#63b8ff" points="59.58,-22.39 49.47,-19.21 55.39,-27.99 59.58,-22.39"/>
</a>
</g>
</g>
<!-- Node9 -->
<g id="Node000009" class="node">
<title>Node9</title>
<g id="a_Node000009"><a xlink:title=" ">
<polygon fill="#e0e0e0" stroke="#999999" points="439.5,-19 386.5,-19 386.5,0 439.5,0 439.5,-19"/>
<text text-anchor="middle" x="413" y="-7" font-family="Helvetica,sans-Serif" font-size="10.00">QString</text>
</a>
</g>
</g>
<!-- Node1&#45;&gt;Node9 -->
<g id="edge12_Node000001_Node000009" class="edge">
<title>Node1&#45;&gt;Node9</title>
<g id="a_edge12_Node000001_Node000009"><a xlink:title=" ">
<path fill="none" stroke="#63b8ff" d="M339.83,-164.95C358.54,-158.25 381,-146.98 394,-129 415.49,-99.28 416.41,-54.4 414.89,-29.26"/>
<polygon fill="#63b8ff" stroke="#63b8ff" points="418.37,-28.91 414.08,-19.23 411.39,-29.48 418.37,-28.91"/>
</a>
</g>
</g>
<!-- Node10 -->
<g id="Node000010" class="node">
<title>Node10</title>
<g id="a_Node000010"><a xlink:title=" ">
<polygon fill="#e0e0e0" stroke="#999999" points="521,-129 441,-129 441,-110 521,-110 521,-129"/>
<text text-anchor="middle" x="481" y="-117" font-family="Helvetica,sans-Serif" font-size="10.00">QTextStream</text>
</a>
</g>
</g>
<!-- Node1&#45;&gt;Node10 -->
<g id="edge13_Node000001_Node000010" class="edge">
<title>Node1&#45;&gt;Node10</title>
<g id="a_edge13_Node000001_Node000010"><a xlink:title=" ">
<path fill="none" stroke="#63b8ff" d="M335.8,-164.98C364.97,-156.05 411,-141.94 443.4,-132.02"/>
<polygon fill="#63b8ff" stroke="#63b8ff" points="444.45,-135.36 452.99,-129.08 442.4,-128.66 444.45,-135.36"/>
</a>
</g>
</g>
<!-- Node2&#45;&gt;Node3 -->
<g id="edge2_Node000002_Node000003" class="edge">
<title>Node2&#45;&gt;Node3</title>
<g id="a_edge2_Node000002_Node000003"><a xlink:title=" ">
<path fill="none" stroke="#63b8ff" d="M294.99,-109.98C282.54,-101.84 263.54,-89.41 248.79,-79.76"/>
<polygon fill="#63b8ff" stroke="#63b8ff" points="250.54,-76.72 240.25,-74.17 246.7,-82.57 250.54,-76.72"/>
</a>
</g>
</g>
<!-- Node2&#45;&gt;Node9 -->
<g id="edge9_Node000002_Node000009" class="edge">
<title>Node2&#45;&gt;Node9</title>
<g id="a_edge9_Node000002_Node000009"><a xlink:title=" ">
<path fill="none" stroke="#63b8ff" d="M316.59,-109.66C334.29,-91.46 375.04,-49.55 397.48,-26.47"/>
<polygon fill="#63b8ff" stroke="#63b8ff" points="400.12,-28.77 404.58,-19.16 395.1,-23.89 400.12,-28.77"/>
</a>
</g>
</g>
<!-- Node4 -->
<g id="Node000004" class="node">
<title>Node4</title>
<g id="a_Node000004"><a xlink:title=" ">
<polygon fill="#e0e0e0" stroke="#999999" points="165.5,-19 94.5,-19 94.5,0 165.5,0 165.5,-19"/>
<text text-anchor="middle" x="130" y="-7" font-family="Helvetica,sans-Serif" font-size="10.00">QJsonArray</text>
</a>
</g>
</g>
<!-- Node3&#45;&gt;Node4 -->
<g id="edge3_Node000003_Node000004" class="edge">
<title>Node3&#45;&gt;Node4</title>
<g id="a_edge3_Node000003_Node000004"><a xlink:title=" ">
<path fill="none" stroke="#63b8ff" d="M211.42,-54.98C196.23,-46.69 172.9,-33.94 155.1,-24.22"/>
<polygon fill="#63b8ff" stroke="#63b8ff" points="156.32,-20.89 145.87,-19.17 152.97,-27.04 156.32,-20.89"/>
</a>
</g>
</g>
<!-- Node3&#45;&gt;Node5 -->
<g id="edge4_Node000003_Node000005" class="edge">
<title>Node3&#45;&gt;Node5</title>
<g id="a_edge4_Node000003_Node000005"><a xlink:title=" ">
<path fill="none" stroke="#63b8ff" d="M196.63,-54.98C164.63,-46.01 114.04,-31.82 78.62,-21.89"/>
<polygon fill="#63b8ff" stroke="#63b8ff" points="79.18,-18.41 68.6,-19.08 77.29,-25.15 79.18,-18.41"/>
</a>
</g>
</g>
<!-- Node6 -->
<g id="Node000006" class="node">
<title>Node6</title>
<g id="a_Node000006"><a xlink:title=" ">
<polygon fill="#e0e0e0" stroke="#999999" points="224.5,-19 183.5,-19 183.5,0 224.5,0 224.5,-19"/>
<text text-anchor="middle" x="204" y="-7" font-family="Helvetica,sans-Serif" font-size="10.00">QList</text>
</a>
</g>
</g>
<!-- Node3&#45;&gt;Node6 -->
<g id="edge5_Node000003_Node000006" class="edge">
<title>Node3&#45;&gt;Node6</title>
<g id="a_edge5_Node000003_Node000006"><a xlink:title=" ">
<path fill="none" stroke="#63b8ff" d="M223.2,-54.75C220.09,-47.57 215.58,-37.18 211.71,-28.27"/>
<polygon fill="#63b8ff" stroke="#63b8ff" points="214.92,-26.87 207.73,-19.09 208.5,-29.66 214.92,-26.87"/>
</a>
</g>
</g>
<!-- Node7 -->
<g id="Node000007" class="node">
<title>Node7</title>
<g id="a_Node000007"><a xlink:title=" ">
<polygon fill="#e0e0e0" stroke="#999999" points="297.5,-19 242.5,-19 242.5,0 297.5,0 297.5,-19"/>
<text text-anchor="middle" x="270" y="-7" font-family="Helvetica,sans-Serif" font-size="10.00">QPointF</text>
</a>
</g>
</g>
<!-- Node3&#45;&gt;Node7 -->
<g id="edge6_Node000003_Node000007" class="edge">
<title>Node3&#45;&gt;Node7</title>
<g id="a_edge6_Node000003_Node000007"><a xlink:title=" ">
<path fill="none" stroke="#63b8ff" d="M234.1,-54.75C240.17,-47.26 249.09,-36.28 256.51,-27.13"/>
<polygon fill="#63b8ff" stroke="#63b8ff" points="259.45,-29.06 263.03,-19.09 254.01,-24.65 259.45,-29.06"/>
</a>
</g>
</g>
<!-- Node8 -->
<g id="Node000008" class="node">
<title>Node8</title>
<g id="a_Node000008"><a xlink:title=" ">
<polygon fill="#e0e0e0" stroke="#999999" points="368,-19 316,-19 316,0 368,0 368,-19"/>
<text text-anchor="middle" x="342" y="-7" font-family="Helvetica,sans-Serif" font-size="10.00">QRectF</text>
</a>
</g>
</g>
<!-- Node3&#45;&gt;Node8 -->
<g id="edge7_Node000003_Node000008" class="edge">
<title>Node3&#45;&gt;Node8</title>
<g id="a_edge7_Node000003_Node000008"><a xlink:title=" ">
<path fill="none" stroke="#63b8ff" d="M245.48,-54.98C263.98,-46.46 292.68,-33.23 313.98,-23.41"/>
<polygon fill="#63b8ff" stroke="#63b8ff" points="315.57,-26.53 323.19,-19.17 312.64,-20.18 315.57,-26.53"/>
</a>
</g>
</g>
<!-- Node3&#45;&gt;Node9 -->
<g id="edge8_Node000003_Node000009" class="edge">
<title>Node3&#45;&gt;Node9</title>
<g id="a_edge8_Node000003_Node000009"><a xlink:title=" ">
<path fill="none" stroke="#63b8ff" d="M256.88,-54.98C289.41,-45.72 341.44,-30.89 376.39,-20.93"/>
<polygon fill="#63b8ff" stroke="#63b8ff" points="377.55,-24.24 386.21,-18.13 375.63,-17.51 377.55,-24.24"/>
</a>
</g>
</g>
</g>
</svg>
