<?xml version="1.0" encoding="UTF-8" standalone="no"?>
<!DOCTYPE svg PUBLIC "-//W3C//DTD SVG 1.1//EN"
 "http://www.w3.org/Graphics/SVG/1.1/DTD/svg11.dtd">
<!-- Generated by graphviz version 2.43.0 (0)
 -->
<!-- Title: services/export/ExportTypeStage.h Pages: 1 -->
<svg width="1109pt" height="170pt"
 viewBox="0.00 0.00 1109.00 170.00" xmlns="http://www.w3.org/2000/svg" xmlns:xlink="http://www.w3.org/1999/xlink">
<g id="graph0" class="graph" transform="scale(1 1) rotate(0) translate(4 166)">
<title>services/export/ExportTypeStage.h</title>
<!-- Node1 -->
<g id="Node000001" class="node">
<title>Node1</title>
<g id="a_Node000001"><a xlink:title=" ">
<polygon fill="#999999" stroke="#666666" points="648,-162 499,-162 499,-132 648,-132 648,-162"/>
<text text-anchor="start" x="507" y="-150" font-family="Helvetica,sans-Serif" font-size="10.00">services/export/ExportType</text>
<text text-anchor="middle" x="573.5" y="-139" font-family="Helvetica,sans-Serif" font-size="10.00">Stage.h</text>
</a>
</g>
</g>
<!-- Node2 -->
<g id="Node000002" class="node">
<title>Node2</title>
<g id="a_Node000002"><a xlink:href="DatasheetExportStage_8h.html" target="_top" xlink:title=" ">
<polygon fill="white" stroke="#666666" points="220,-96 75,-96 75,-66 220,-66 220,-96"/>
<text text-anchor="start" x="83" y="-84" font-family="Helvetica,sans-Serif" font-size="10.00">services/export/Datasheet</text>
<text text-anchor="middle" x="147.5" y="-73" font-family="Helvetica,sans-Serif" font-size="10.00">ExportStage.h</text>
</a>
</g>
</g>
<!-- Node1&#45;&gt;Node2 -->
<g id="edge1_Node000001_Node000002" class="edge">
<title>Node1&#45;&gt;Node2</title>
<g id="a_edge1_Node000001_Node000002"><a xlink:title=" ">
<path fill="none" stroke="#63b8ff" d="M488.89,-134.3C419.2,-124.52 317.85,-109.96 229.5,-96 226.5,-95.53 223.45,-95.04 220.36,-94.54"/>
<polygon fill="#63b8ff" stroke="#63b8ff" points="488.55,-137.78 498.93,-135.7 489.52,-130.85 488.55,-137.78"/>
</a>
</g>
</g>
<!-- Node5 -->
<g id="Node000005" class="node">
<title>Node5</title>
<g id="a_Node000005"><a xlink:href="ExportTypeStage_8cpp.html" target="_top" xlink:title=" ">
<polygon fill="white" stroke="#666666" points="1101,-96 952,-96 952,-66 1101,-66 1101,-96"/>
<text text-anchor="start" x="960" y="-84" font-family="Helvetica,sans-Serif" font-size="10.00">services/export/ExportType</text>
<text text-anchor="middle" x="1026.5" y="-73" font-family="Helvetica,sans-Serif" font-size="10.00">Stage.cpp</text>
</a>
</g>
</g>
<!-- Node1&#45;&gt;Node5 -->
<g id="edge4_Node000001_Node000005" class="edge">
<title>Node1&#45;&gt;Node5</title>
<g id="a_edge4_Node000001_Node000005"><a xlink:title=" ">
<path fill="none" stroke="#63b8ff" d="M658.35,-135.34C733.42,-125.71 845.88,-110.83 943.5,-96 946.25,-95.58 949.04,-95.15 951.86,-94.71"/>
<polygon fill="#63b8ff" stroke="#63b8ff" points="657.49,-131.92 648.01,-136.66 658.38,-138.86 657.49,-131.92"/>
</a>
</g>
</g>
<!-- Node6 -->
<g id="Node000006" class="node">
<title>Node6</title>
<g id="a_Node000006"><a xlink:href="FootprintExportStage_8h.html" target="_top" xlink:title=" ">
<polygon fill="white" stroke="#666666" points="376.5,-96 238.5,-96 238.5,-66 376.5,-66 376.5,-96"/>
<text text-anchor="start" x="246.5" y="-84" font-family="Helvetica,sans-Serif" font-size="10.00">services/export/Footprint</text>
<text text-anchor="middle" x="307.5" y="-73" font-family="Helvetica,sans-Serif" font-size="10.00">ExportStage.h</text>
</a>
</g>
</g>
<!-- Node1&#45;&gt;Node6 -->
<g id="edge5_Node000001_Node000006" class="edge">
<title>Node1&#45;&gt;Node6</title>
<g id="a_edge5_Node000001_Node000006"><a xlink:title=" ">
<path fill="none" stroke="#63b8ff" d="M505.27,-129.58C462.08,-119.19 406.85,-105.9 365.74,-96.01"/>
<polygon fill="#63b8ff" stroke="#63b8ff" points="504.58,-133.02 515.13,-131.95 506.22,-126.21 504.58,-133.02"/>
</a>
</g>
</g>
<!-- Node8 -->
<g id="Node000008" class="node">
<title>Node8</title>
<g id="a_Node000008"><a xlink:href="Model3DExportStage_8h.html" target="_top" xlink:title=" ">
<polygon fill="white" stroke="#666666" points="564.5,-96 394.5,-96 394.5,-66 564.5,-66 564.5,-96"/>
<text text-anchor="start" x="402.5" y="-84" font-family="Helvetica,sans-Serif" font-size="10.00">services/export/Model3DExport</text>
<text text-anchor="middle" x="479.5" y="-73" font-family="Helvetica,sans-Serif" font-size="10.00">Stage.h</text>
</a>
</g>
</g>
<!-- Node1&#45;&gt;Node8 -->
<g id="edge8_Node000001_Node000008" class="edge">
<title>Node1&#45;&gt;Node8</title>
<g id="a_edge8_Node000001_Node000008"><a xlink:title=" ">
<path fill="none" stroke="#63b8ff" d="M544.17,-126.03C529.94,-116.34 513.19,-104.94 500.3,-96.16"/>
<polygon fill="#63b8ff" stroke="#63b8ff" points="542.4,-129.06 552.64,-131.8 546.34,-123.28 542.4,-129.06"/>
</a>
</g>
</g>
<!-- Node10 -->
<g id="Node000010" class="node">
<title>Node10</title>
<g id="a_Node000010"><a xlink:href="PreviewImagesExportStage_8h.html" target="_top" xlink:title=" ">
<polygon fill="white" stroke="#666666" points="752.5,-96 582.5,-96 582.5,-66 752.5,-66 752.5,-96"/>
<text text-anchor="start" x="590.5" y="-84" font-family="Helvetica,sans-Serif" font-size="10.00">services/export/PreviewImages</text>
<text text-anchor="middle" x="667.5" y="-73" font-family="Helvetica,sans-Serif" font-size="10.00">ExportStage.h</text>
</a>
</g>
</g>
<!-- Node1&#45;&gt;Node10 -->
<g id="edge11_Node000001_Node000010" class="edge">
<title>Node1&#45;&gt;Node10</title>
<g id="a_edge11_Node000001_Node000010"><a xlink:title=" ">
<path fill="none" stroke="#63b8ff" d="M602.83,-126.03C617.06,-116.34 633.81,-104.94 646.7,-96.16"/>
<polygon fill="#63b8ff" stroke="#63b8ff" points="600.66,-123.28 594.36,-131.8 604.6,-129.06 600.66,-123.28"/>
</a>
</g>
</g>
<!-- Node12 -->
<g id="Node000012" class="node">
<title>Node12</title>
<g id="a_Node000012"><a xlink:href="SymbolExportStage_8h.html" target="_top" xlink:title=" ">
<polygon fill="white" stroke="#666666" points="934,-96 771,-96 771,-66 934,-66 934,-96"/>
<text text-anchor="start" x="779" y="-84" font-family="Helvetica,sans-Serif" font-size="10.00">services/export/SymbolExport</text>
<text text-anchor="middle" x="852.5" y="-73" font-family="Helvetica,sans-Serif" font-size="10.00">Stage.h</text>
</a>
</g>
</g>
<!-- Node1&#45;&gt;Node12 -->
<g id="edge14_Node000001_Node000012" class="edge">
<title>Node1&#45;&gt;Node12</title>
<g id="a_edge14_Node000001_Node000012"><a xlink:title=" ">
<path fill="none" stroke="#63b8ff" d="M644.5,-129.71C689.87,-119.31 748.11,-105.95 791.42,-96.01"/>
<polygon fill="#63b8ff" stroke="#63b8ff" points="643.69,-126.31 634.73,-131.95 645.26,-133.13 643.69,-126.31"/>
</a>
</g>
</g>
<!-- Node3 -->
<g id="Node000003" class="node">
<title>Node3</title>
<g id="a_Node000003"><a xlink:href="DatasheetExportStage_8cpp.html" target="_top" xlink:title=" ">
<polygon fill="white" stroke="#666666" points="145,-30 0,-30 0,0 145,0 145,-30"/>
<text text-anchor="start" x="8" y="-18" font-family="Helvetica,sans-Serif" font-size="10.00">services/export/Datasheet</text>
<text text-anchor="middle" x="72.5" y="-7" font-family="Helvetica,sans-Serif" font-size="10.00">ExportStage.cpp</text>
</a>
</g>
</g>
<!-- Node2&#45;&gt;Node3 -->
<g id="edge2_Node000002_Node000003" class="edge">
<title>Node2&#45;&gt;Node3</title>
<g id="a_edge2_Node000002_Node000003"><a xlink:title=" ">
<path fill="none" stroke="#63b8ff" d="M123.13,-59.2C111.99,-49.7 99.09,-38.69 89.1,-30.16"/>
<polygon fill="#63b8ff" stroke="#63b8ff" points="120.98,-61.97 130.86,-65.8 125.52,-56.64 120.98,-61.97"/>
</a>
</g>
</g>
<!-- Node4 -->
<g id="Node000004" class="node">
<title>Node4</title>
<g id="a_Node000004"><a xlink:href="ParallelExportService_8cpp.html" target="_top" xlink:title=" ">
<polygon fill="white" stroke="#666666" points="451,-30 320,-30 320,0 451,0 451,-30"/>
<text text-anchor="start" x="328" y="-18" font-family="Helvetica,sans-Serif" font-size="10.00">services/export/Parallel</text>
<text text-anchor="middle" x="385.5" y="-7" font-family="Helvetica,sans-Serif" font-size="10.00">ExportService.cpp</text>
</a>
</g>
</g>
<!-- Node2&#45;&gt;Node4 -->
<g id="edge3_Node000002_Node000004" class="edge">
<title>Node2&#45;&gt;Node4</title>
<g id="a_edge3_Node000002_Node000004"><a xlink:title=" ">
<path fill="none" stroke="#63b8ff" d="M209.78,-63.25C248.23,-52.91 296.99,-39.8 333.39,-30.01"/>
<polygon fill="#63b8ff" stroke="#63b8ff" points="208.48,-59.98 199.73,-65.95 210.3,-66.74 208.48,-59.98"/>
</a>
</g>
</g>
<!-- Node6&#45;&gt;Node4 -->
<g id="edge7_Node000006_Node000004" class="edge">
<title>Node6&#45;&gt;Node4</title>
<g id="a_edge7_Node000006_Node000004"><a xlink:title=" ">
<path fill="none" stroke="#63b8ff" d="M332.85,-59.2C344.43,-49.7 357.85,-38.69 368.24,-30.16"/>
<polygon fill="#63b8ff" stroke="#63b8ff" points="330.32,-56.75 324.81,-65.8 334.76,-62.16 330.32,-56.75"/>
</a>
</g>
</g>
<!-- Node7 -->
<g id="Node000007" class="node">
<title>Node7</title>
<g id="a_Node000007"><a xlink:href="FootprintExportStage_8cpp.html" target="_top" xlink:title=" ">
<polygon fill="white" stroke="#666666" points="301.5,-30 163.5,-30 163.5,0 301.5,0 301.5,-30"/>
<text text-anchor="start" x="171.5" y="-18" font-family="Helvetica,sans-Serif" font-size="10.00">services/export/Footprint</text>
<text text-anchor="middle" x="232.5" y="-7" font-family="Helvetica,sans-Serif" font-size="10.00">ExportStage.cpp</text>
</a>
</g>
</g>
<!-- Node6&#45;&gt;Node7 -->
<g id="edge6_Node000006_Node000007" class="edge">
<title>Node6&#45;&gt;Node7</title>
<g id="a_edge6_Node000006_Node000007"><a xlink:title=" ">
<path fill="none" stroke="#63b8ff" d="M283.13,-59.2C271.99,-49.7 259.09,-38.69 249.1,-30.16"/>
<polygon fill="#63b8ff" stroke="#63b8ff" points="280.98,-61.97 290.86,-65.8 285.52,-56.64 280.98,-61.97"/>
</a>
</g>
</g>
<!-- Node8&#45;&gt;Node4 -->
<g id="edge10_Node000008_Node000004" class="edge">
<title>Node8&#45;&gt;Node4</title>
<g id="a_edge10_Node000008_Node000004"><a xlink:title=" ">
<path fill="none" stroke="#63b8ff" d="M450.17,-60.03C435.94,-50.34 419.19,-38.94 406.3,-30.16"/>
<polygon fill="#63b8ff" stroke="#63b8ff" points="448.4,-63.06 458.64,-65.8 452.34,-57.28 448.4,-63.06"/>
</a>
</g>
</g>
<!-- Node9 -->
<g id="Node000009" class="node">
<title>Node9</title>
<g id="a_Node000009"><a xlink:href="Model3DExportStage_8cpp.html" target="_top" xlink:title=" ">
<polygon fill="white" stroke="#666666" points="639.5,-30 469.5,-30 469.5,0 639.5,0 639.5,-30"/>
<text text-anchor="start" x="477.5" y="-18" font-family="Helvetica,sans-Serif" font-size="10.00">services/export/Model3DExport</text>
<text text-anchor="middle" x="554.5" y="-7" font-family="Helvetica,sans-Serif" font-size="10.00">Stage.cpp</text>
</a>
</g>
</g>
<!-- Node8&#45;&gt;Node9 -->
<g id="edge9_Node000008_Node000009" class="edge">
<title>Node8&#45;&gt;Node9</title>
<g id="a_edge9_Node000008_Node000009"><a xlink:title=" ">
<path fill="none" stroke="#63b8ff" d="M503.87,-59.2C515.01,-49.7 527.91,-38.69 537.9,-30.16"/>
<polygon fill="#63b8ff" stroke="#63b8ff" points="501.48,-56.64 496.14,-65.8 506.02,-61.97 501.48,-56.64"/>
</a>
</g>
</g>
<!-- Node10&#45;&gt;Node4 -->
<g id="edge12_Node000010_Node000004" class="edge">
<title>Node10&#45;&gt;Node4</title>
<g id="a_edge12_Node000010_Node000004"><a xlink:title=" ">
<path fill="none" stroke="#63b8ff" d="M595.74,-63.71C549.88,-53.31 491.01,-39.95 447.24,-30.01"/>
<polygon fill="#63b8ff" stroke="#63b8ff" points="595.09,-67.15 605.61,-65.95 596.64,-60.33 595.09,-67.15"/>
</a>
</g>
</g>
<!-- Node11 -->
<g id="Node000011" class="node">
<title>Node11</title>
<g id="a_Node000011"><a xlink:href="PreviewImagesExportStage_8cpp.html" target="_top" xlink:title=" ">
<polygon fill="white" stroke="#666666" points="827.5,-30 657.5,-30 657.5,0 827.5,0 827.5,-30"/>
<text text-anchor="start" x="665.5" y="-18" font-family="Helvetica,sans-Serif" font-size="10.00">services/export/PreviewImages</text>
<text text-anchor="middle" x="742.5" y="-7" font-family="Helvetica,sans-Serif" font-size="10.00">ExportStage.cpp</text>
</a>
</g>
</g>
<!-- Node10&#45;&gt;Node11 -->
<g id="edge13_Node000010_Node000011" class="edge">
<title>Node10&#45;&gt;Node11</title>
<g id="a_edge13_Node000010_Node000011"><a xlink:title=" ">
<path fill="none" stroke="#63b8ff" d="M691.87,-59.2C703.01,-49.7 715.91,-38.69 725.9,-30.16"/>
<polygon fill="#63b8ff" stroke="#63b8ff" points="689.48,-56.64 684.14,-65.8 694.02,-61.97 689.48,-56.64"/>
</a>
</g>
</g>
<!-- Node12&#45;&gt;Node4 -->
<g id="edge15_Node000012_Node000004" class="edge">
<title>Node12&#45;&gt;Node4</title>
<g id="a_edge15_Node000012_Node000004"><a xlink:title=" ">
<path fill="none" stroke="#63b8ff" d="M760.41,-65.89C626.27,-47.87 590.43,-49.87 460.5,-30 457.49,-29.54 454.41,-29.05 451.31,-28.54"/>
<polygon fill="#63b8ff" stroke="#63b8ff" points="760.29,-69.4 770.67,-67.28 761.23,-62.47 760.29,-69.4"/>
</a>
</g>
</g>
<!-- Node13 -->
<g id="Node000013" class="node">
<title>Node13</title>
<g id="a_Node000013"><a xlink:href="SymbolExportStage_8cpp.html" target="_top" xlink:title=" ">
<polygon fill="white" stroke="#666666" points="1009,-30 846,-30 846,0 1009,0 1009,-30"/>
<text text-anchor="start" x="854" y="-18" font-family="Helvetica,sans-Serif" font-size="10.00">services/export/SymbolExport</text>
<text text-anchor="middle" x="927.5" y="-7" font-family="Helvetica,sans-Serif" font-size="10.00">Stage.cpp</text>
</a>
</g>
</g>
<!-- Node12&#45;&gt;Node13 -->
<g id="edge16_Node000012_Node000013" class="edge">
<title>Node12&#45;&gt;Node13</title>
<g id="a_edge16_Node000012_Node000013"><a xlink:title=" ">
<path fill="none" stroke="#63b8ff" d="M876.87,-59.2C888.01,-49.7 900.91,-38.69 910.9,-30.16"/>
<polygon fill="#63b8ff" stroke="#63b8ff" points="874.48,-56.64 869.14,-65.8 879.02,-61.97 874.48,-56.64"/>
</a>
</g>
</g>
</g>
</svg>
