<?xml version="1.0" encoding="UTF-8" standalone="no"?>
<!DOCTYPE svg PUBLIC "-//W3C//DTD SVG 1.1//EN"
 "http://www.w3.org/Graphics/SVG/1.1/DTD/svg11.dtd">
<!-- Generated by graphviz version 2.43.0 (0)
 -->
<!-- Title: core/kicad/Exporter3DModel.h Pages: 1 -->
<svg width="921pt" height="159pt"
 viewBox="0.00 0.00 920.50 159.00" xmlns="http://www.w3.org/2000/svg" xmlns:xlink="http://www.w3.org/1999/xlink">
<g id="graph0" class="graph" transform="scale(1 1) rotate(0) translate(4 155)">
<title>core/kicad/Exporter3DModel.h</title>
<!-- Node1 -->
<g id="Node000001" class="node">
<title>Node1</title>
<g id="a_Node000001"><a xlink:title=" ">
<polygon fill="#999999" stroke="#666666" points="597.5,-151 433.5,-151 433.5,-132 597.5,-132 597.5,-151"/>
<text text-anchor="middle" x="515.5" y="-139" font-family="Helvetica,sans-Serif" font-size="10.00">core/kicad/Exporter3DModel.h</text>
</a>
</g>
</g>
<!-- Node2 -->
<g id="Node000002" class="node">
<title>Node2</title>
<g id="a_Node000002"><a xlink:href="Exporter3DModel_8cpp.html" target="_top" xlink:title=" ">
<polygon fill="white" stroke="#666666" points="175,-90.5 0,-90.5 0,-71.5 175,-71.5 175,-90.5"/>
<text text-anchor="middle" x="87.5" y="-78.5" font-family="Helvetica,sans-Serif" font-size="10.00">core/kicad/Exporter3DModel.cpp</text>
</a>
</g>
</g>
<!-- Node1&#45;&gt;Node2 -->
<g id="edge1_Node000001_Node000002" class="edge">
<title>Node1&#45;&gt;Node2</title>
<g id="a_edge1_Node000001_Node000002"><a xlink:title=" ">
<path fill="none" stroke="#63b8ff" d="M440.72,-130.66C373.62,-121.77 272.44,-108.26 184.5,-96 172.03,-94.26 158.66,-92.36 145.96,-90.53"/>
<polygon fill="#63b8ff" stroke="#63b8ff" points="440.41,-134.15 450.78,-131.99 441.33,-127.21 440.41,-134.15"/>
</a>
</g>
</g>
<!-- Node3 -->
<g id="Node000003" class="node">
<title>Node3</title>
<g id="a_Node000003"><a xlink:href="ComponentExportTask_8cpp.html" target="_top" xlink:title=" ">
<polygon fill="white" stroke="#666666" points="341.5,-96 193.5,-96 193.5,-66 341.5,-66 341.5,-96"/>
<text text-anchor="start" x="201.5" y="-84" font-family="Helvetica,sans-Serif" font-size="10.00">services/ComponentExport</text>
<text text-anchor="middle" x="267.5" y="-73" font-family="Helvetica,sans-Serif" font-size="10.00">Task.cpp</text>
</a>
</g>
</g>
<!-- Node1&#45;&gt;Node3 -->
<g id="edge2_Node000001_Node000003" class="edge">
<title>Node1&#45;&gt;Node3</title>
<g id="a_edge2_Node000001_Node000003"><a xlink:title=" ">
<path fill="none" stroke="#63b8ff" d="M469.65,-129.68C429.5,-120.21 370.9,-106.39 327.12,-96.06"/>
<polygon fill="#63b8ff" stroke="#63b8ff" points="468.9,-133.1 479.44,-131.99 470.51,-126.29 468.9,-133.1"/>
</a>
</g>
</g>
<!-- Node4 -->
<g id="Node000004" class="node">
<title>Node4</title>
<g id="a_Node000004"><a xlink:href="ExportService_8cpp.html" target="_top" xlink:title=" ">
<polygon fill="white" stroke="#666666" points="507.5,-90.5 359.5,-90.5 359.5,-71.5 507.5,-71.5 507.5,-90.5"/>
<text text-anchor="middle" x="433.5" y="-78.5" font-family="Helvetica,sans-Serif" font-size="10.00">services/ExportService.cpp</text>
</a>
</g>
</g>
<!-- Node1&#45;&gt;Node4 -->
<g id="edge3_Node000001_Node000004" class="edge">
<title>Node1&#45;&gt;Node4</title>
<g id="a_edge3_Node000001_Node000004"><a xlink:title=" ">
<path fill="none" stroke="#63b8ff" d="M494.96,-125.85C479.43,-114.77 458.63,-99.93 445.65,-90.67"/>
<polygon fill="#63b8ff" stroke="#63b8ff" points="493.23,-128.91 503.4,-131.87 497.29,-123.21 493.23,-128.91"/>
</a>
</g>
</g>
<!-- Node5 -->
<g id="Node000005" class="node">
<title>Node5</title>
<g id="a_Node000005"><a xlink:href="ExportWorker_8cpp.html" target="_top" xlink:title=" ">
<polygon fill="white" stroke="#666666" points="669,-90.5 526,-90.5 526,-71.5 669,-71.5 669,-90.5"/>
<text text-anchor="middle" x="597.5" y="-78.5" font-family="Helvetica,sans-Serif" font-size="10.00">workers/ExportWorker.cpp</text>
</a>
</g>
</g>
<!-- Node1&#45;&gt;Node5 -->
<g id="edge4_Node000001_Node000005" class="edge">
<title>Node1&#45;&gt;Node5</title>
<g id="a_edge4_Node000001_Node000005"><a xlink:title=" ">
<path fill="none" stroke="#63b8ff" d="M536.04,-125.85C551.57,-114.77 572.37,-99.93 585.35,-90.67"/>
<polygon fill="#63b8ff" stroke="#63b8ff" points="533.71,-123.21 527.6,-131.87 537.77,-128.91 533.71,-123.21"/>
</a>
</g>
</g>
<!-- Node6 -->
<g id="Node000006" class="node">
<title>Node6</title>
<g id="a_Node000006"><a xlink:href="WriteWorker_8cpp.html" target="_top" xlink:title=" ">
<polygon fill="white" stroke="#666666" points="766,-24.5 629,-24.5 629,-5.5 766,-5.5 766,-24.5"/>
<text text-anchor="middle" x="697.5" y="-12.5" font-family="Helvetica,sans-Serif" font-size="10.00">workers/WriteWorker.cpp</text>
</a>
</g>
</g>
<!-- Node1&#45;&gt;Node6 -->
<g id="edge5_Node000001_Node000006" class="edge">
<title>Node1&#45;&gt;Node6</title>
<g id="a_edge5_Node000001_Node000006"><a xlink:title=" ">
<path fill="none" stroke="#63b8ff" d="M607.57,-132.95C633.54,-126.55 659.78,-115.35 678.5,-96 697.56,-76.3 698.72,-41.15 698.1,-24.81"/>
<polygon fill="#63b8ff" stroke="#63b8ff" points="606.63,-129.57 597.64,-135.17 608.17,-136.4 606.63,-129.57"/>
</a>
</g>
</g>
<!-- Node7 -->
<g id="Node000007" class="node">
<title>Node7</title>
<g id="a_Node000007"><a xlink:href="WriteWorker_8h.html" target="_top" xlink:title=" ">
<polygon fill="white" stroke="#666666" points="851.5,-90.5 725.5,-90.5 725.5,-71.5 851.5,-71.5 851.5,-90.5"/>
<text text-anchor="middle" x="788.5" y="-78.5" font-family="Helvetica,sans-Serif" font-size="10.00">workers/WriteWorker.h</text>
</a>
</g>
</g>
<!-- Node1&#45;&gt;Node7 -->
<g id="edge6_Node000001_Node000007" class="edge">
<title>Node1&#45;&gt;Node7</title>
<g id="a_edge6_Node000001_Node000007"><a xlink:title=" ">
<path fill="none" stroke="#63b8ff" d="M565,-129.89C617.72,-118.6 700.11,-100.94 748.76,-90.52"/>
<polygon fill="#63b8ff" stroke="#63b8ff" points="564.24,-126.48 555.2,-131.99 565.71,-133.32 564.24,-126.48"/>
</a>
</g>
</g>
<!-- Node7&#45;&gt;Node6 -->
<g id="edge8_Node000007_Node000006" class="edge">
<title>Node7&#45;&gt;Node6</title>
<g id="a_edge8_Node000007_Node000006"><a xlink:title=" ">
<path fill="none" stroke="#63b8ff" d="M767.65,-65.33C749.8,-52.78 724.7,-35.13 709.87,-24.7"/>
<polygon fill="#63b8ff" stroke="#63b8ff" points="766.03,-68.48 776.23,-71.37 770.06,-62.75 766.03,-68.48"/>
</a>
</g>
</g>
<!-- Node8 -->
<g id="Node000008" class="node">
<title>Node8</title>
<g id="a_Node000008"><a xlink:href="ExportService__Pipeline_8cpp.html" target="_top" xlink:title=" ">
<polygon fill="white" stroke="#666666" points="912.5,-30 784.5,-30 784.5,0 912.5,0 912.5,-30"/>
<text text-anchor="start" x="792.5" y="-18" font-family="Helvetica,sans-Serif" font-size="10.00">services/ExportService</text>
<text text-anchor="middle" x="848.5" y="-7" font-family="Helvetica,sans-Serif" font-size="10.00">_Pipeline.cpp</text>
</a>
</g>
</g>
<!-- Node7&#45;&gt;Node8 -->
<g id="edge7_Node000007_Node000008" class="edge">
<title>Node7&#45;&gt;Node8</title>
<g id="a_edge7_Node000007_Node000008"><a xlink:title=" ">
<path fill="none" stroke="#63b8ff" d="M803.64,-63.85C813.3,-53.54 825.72,-40.3 835.04,-30.36"/>
<polygon fill="#63b8ff" stroke="#63b8ff" points="800.88,-61.68 796.59,-71.37 805.98,-66.47 800.88,-61.68"/>
</a>
</g>
</g>
</g>
</svg>
