<?xml version="1.0" encoding="UTF-8" standalone="no"?>
<!DOCTYPE svg PUBLIC "-//W3C//DTD SVG 1.1//EN"
 "http://www.w3.org/Graphics/SVG/1.1/DTD/svg11.dtd">
<!-- Generated by graphviz version 2.43.0 (0)
 -->
<!-- Title: ui/viewmodels/ExportSettingsViewModel.cpp Pages: 1 -->
<svg width="1701pt" height="434pt"
 viewBox="0.00 0.00 1701.00 434.00" xmlns="http://www.w3.org/2000/svg" xmlns:xlink="http://www.w3.org/1999/xlink">
<g id="graph0" class="graph" transform="scale(1 1) rotate(0) translate(4 430)">
<title>ui/viewmodels/ExportSettingsViewModel.cpp</title>
<!-- Node1 -->
<g id="Node000001" class="node">
<title>Node1</title>
<g id="a_Node000001"><a xlink:title=" ">
<polygon fill="#999999" stroke="#666666" points="273,-426 111,-426 111,-396 273,-396 273,-426"/>
<text text-anchor="start" x="119" y="-414" font-family="Helvetica,sans-Serif" font-size="10.00">ui/viewmodels/ExportSettings</text>
<text text-anchor="middle" x="192" y="-403" font-family="Helvetica,sans-Serif" font-size="10.00">ViewModel.cpp</text>
</a>
</g>
</g>
<!-- Node2 -->
<g id="Node000002" class="node">
<title>Node2</title>
<g id="a_Node000002"><a xlink:href="ExportSettingsViewModel_8h.html" target="_top" xlink:title=" ">
<polygon fill="white" stroke="#666666" points="163.5,-354.5 12.5,-354.5 12.5,-335.5 163.5,-335.5 163.5,-354.5"/>
<text text-anchor="middle" x="88" y="-342.5" font-family="Helvetica,sans-Serif" font-size="10.00">ExportSettingsViewModel.h</text>
</a>
</g>
</g>
<!-- Node1&#45;&gt;Node2 -->
<g id="edge1_Node000001_Node000002" class="edge">
<title>Node1&#45;&gt;Node2</title>
<g id="a_edge1_Node000001_Node000002"><a xlink:title=" ">
<path fill="none" stroke="#63b8ff" d="M169.18,-395.95C151.82,-385.27 128.06,-370.65 110.73,-359.98"/>
<polygon fill="#63b8ff" stroke="#63b8ff" points="112.19,-356.78 101.84,-354.52 108.52,-362.74 112.19,-356.78"/>
</a>
</g>
</g>
<!-- Node8 -->
<g id="Node000008" class="node">
<title>Node8</title>
<g id="a_Node000008"><a xlink:href="ExportService__Pipeline_8h.html" target="_top" xlink:title=" ">
<polygon fill="white" stroke="#666666" points="1099,-360 971,-360 971,-330 1099,-330 1099,-360"/>
<text text-anchor="start" x="979" y="-348" font-family="Helvetica,sans-Serif" font-size="10.00">services/ExportService</text>
<text text-anchor="middle" x="1035" y="-337" font-family="Helvetica,sans-Serif" font-size="10.00">_Pipeline.h</text>
</a>
</g>
</g>
<!-- Node1&#45;&gt;Node8 -->
<g id="edge9_Node000001_Node000008" class="edge">
<title>Node1&#45;&gt;Node8</title>
<g id="a_edge9_Node000001_Node000008"><a xlink:title=" ">
<path fill="none" stroke="#63b8ff" d="M273.21,-403.83C436.75,-391.42 803.52,-363.57 960.93,-351.62"/>
<polygon fill="#63b8ff" stroke="#63b8ff" points="961.29,-355.11 970.99,-350.86 960.76,-348.13 961.29,-355.11"/>
</a>
</g>
</g>
<!-- Node24 -->
<g id="Node000024" class="node">
<title>Node24</title>
<g id="a_Node000024"><a xlink:title=" ">
<polygon fill="#e0e0e0" stroke="#999999" points="510,-184 454,-184 454,-165 510,-165 510,-184"/>
<text text-anchor="middle" x="482" y="-172" font-family="Helvetica,sans-Serif" font-size="10.00">QDebug</text>
</a>
</g>
</g>
<!-- Node1&#45;&gt;Node24 -->
<g id="edge73_Node000001_Node000024" class="edge">
<title>Node1&#45;&gt;Node24</title>
<g id="a_edge73_Node000001_Node000024"><a xlink:title=" ">
<path fill="none" stroke="#63b8ff" d="M189.6,-395.97C182.62,-354.29 163.54,-233.24 175,-220 209.31,-180.36 368.97,-175.28 443.5,-175.11"/>
<polygon fill="#63b8ff" stroke="#63b8ff" points="443.85,-178.61 453.85,-175.12 443.85,-171.61 443.85,-178.61"/>
</a>
</g>
</g>
<!-- Node3 -->
<g id="Node000003" class="node">
<title>Node3</title>
<g id="a_Node000003"><a xlink:href="ConfigService_8h.html" target="_top" xlink:title=" ">
<polygon fill="white" stroke="#666666" points="164,-294 28,-294 28,-275 164,-275 164,-294"/>
<text text-anchor="middle" x="96" y="-282" font-family="Helvetica,sans-Serif" font-size="10.00">services/ConfigService.h</text>
</a>
</g>
</g>
<!-- Node2&#45;&gt;Node3 -->
<g id="edge2_Node000002_Node000003" class="edge">
<title>Node2&#45;&gt;Node3</title>
<g id="a_edge2_Node000002_Node000003"><a xlink:title=" ">
<path fill="none" stroke="#63b8ff" d="M89.18,-335.37C90.29,-327.25 91.99,-314.81 93.42,-304.39"/>
<polygon fill="#63b8ff" stroke="#63b8ff" points="96.93,-304.55 94.81,-294.17 89.99,-303.6 96.93,-304.55"/>
</a>
</g>
</g>
<!-- Node6 -->
<g id="Node000006" class="node">
<title>Node6</title>
<g id="a_Node000006"><a xlink:title=" ">
<polygon fill="#e0e0e0" stroke="#999999" points="240,-239 184,-239 184,-220 240,-220 240,-239"/>
<text text-anchor="middle" x="212" y="-227" font-family="Helvetica,sans-Serif" font-size="10.00">QObject</text>
</a>
</g>
</g>
<!-- Node2&#45;&gt;Node6 -->
<g id="edge7_Node000002_Node000006" class="edge">
<title>Node2&#45;&gt;Node6</title>
<g id="a_edge7_Node000002_Node000006"><a xlink:title=" ">
<path fill="none" stroke="#63b8ff" d="M108.41,-335.47C126.89,-326.99 154.06,-312.58 173,-294 186.39,-280.86 197.13,-262.23 203.92,-248.54"/>
<polygon fill="#63b8ff" stroke="#63b8ff" points="207.22,-249.75 208.32,-239.22 200.89,-246.77 207.22,-249.75"/>
</a>
</g>
</g>
<!-- Node7 -->
<g id="Node000007" class="node">
<title>Node7</title>
<g id="a_Node000007"><a xlink:title=" ">
<polygon fill="#e0e0e0" stroke="#999999" points="996.5,-19 943.5,-19 943.5,0 996.5,0 996.5,-19"/>
<text text-anchor="middle" x="970" y="-7" font-family="Helvetica,sans-Serif" font-size="10.00">QString</text>
</a>
</g>
</g>
<!-- Node2&#45;&gt;Node7 -->
<g id="edge8_Node000002_Node000007" class="edge">
<title>Node2&#45;&gt;Node7</title>
<g id="a_edge8_Node000002_Node000007"><a xlink:title=" ">
<path fill="none" stroke="#63b8ff" d="M70.15,-335.36C54.48,-326.9 32.19,-312.58 19,-294 1.95,-269.98 0,-259.96 0,-230.5 0,-230.5 0,-230.5 0,-173.5 0,-77.01 756.03,-23.85 933.18,-12.71"/>
<polygon fill="#63b8ff" stroke="#63b8ff" points="933.54,-16.2 943.3,-12.08 933.1,-9.21 933.54,-16.2"/>
</a>
</g>
</g>
<!-- Node4 -->
<g id="Node000004" class="node">
<title>Node4</title>
<g id="a_Node000004"><a xlink:title=" ">
<polygon fill="#e0e0e0" stroke="#999999" points="713,-19 637,-19 637,0 713,0 713,-19"/>
<text text-anchor="middle" x="675" y="-7" font-family="Helvetica,sans-Serif" font-size="10.00">QJsonObject</text>
</a>
</g>
</g>
<!-- Node3&#45;&gt;Node4 -->
<g id="edge3_Node000003_Node000004" class="edge">
<title>Node3&#45;&gt;Node4</title>
<g id="a_edge3_Node000003_Node000004"><a xlink:title=" ">
<path fill="none" stroke="#63b8ff" d="M87.44,-274.83C71.31,-257.52 38,-216.79 38,-175.5 38,-175.5 38,-175.5 38,-118.5 38,-58.87 477.52,-23.79 626.38,-13.61"/>
<polygon fill="#63b8ff" stroke="#63b8ff" points="626.85,-17.09 636.59,-12.92 626.37,-10.11 626.85,-17.09"/>
</a>
</g>
</g>
<!-- Node5 -->
<g id="Node000005" class="node">
<title>Node5</title>
<g id="a_Node000005"><a xlink:title=" ">
<polygon fill="#e0e0e0" stroke="#999999" points="1043.5,-239 988.5,-239 988.5,-220 1043.5,-220 1043.5,-239"/>
<text text-anchor="middle" x="1016" y="-227" font-family="Helvetica,sans-Serif" font-size="10.00">QMutex</text>
</a>
</g>
</g>
<!-- Node3&#45;&gt;Node5 -->
<g id="edge4_Node000003_Node000005" class="edge">
<title>Node3&#45;&gt;Node5</title>
<g id="a_edge4_Node000003_Node000005"><a xlink:title=" ">
<path fill="none" stroke="#63b8ff" d="M164.24,-284.12C311.41,-284.58 669.6,-280.99 978.18,-238.82"/>
<polygon fill="#63b8ff" stroke="#63b8ff" points="978.79,-242.27 988.22,-237.43 977.83,-235.34 978.79,-242.27"/>
</a>
</g>
</g>
<!-- Node3&#45;&gt;Node6 -->
<g id="edge5_Node000003_Node000006" class="edge">
<title>Node3&#45;&gt;Node6</title>
<g id="a_edge5_Node000003_Node000006"><a xlink:title=" ">
<path fill="none" stroke="#63b8ff" d="M114.64,-274.98C133.3,-266.46 162.25,-253.23 183.74,-243.41"/>
<polygon fill="#63b8ff" stroke="#63b8ff" points="185.38,-246.51 193.02,-239.17 182.47,-240.14 185.38,-246.51"/>
</a>
</g>
</g>
<!-- Node3&#45;&gt;Node7 -->
<g id="edge6_Node000003_Node000007" class="edge">
<title>Node3&#45;&gt;Node7</title>
<g id="a_edge6_Node000003_Node000007"><a xlink:title=" ">
<path fill="none" stroke="#63b8ff" d="M103.6,-274.93C115.91,-261.51 141.52,-235.47 168,-220 259.9,-166.29 607.64,-79.93 717,-55 793.32,-37.6 883.91,-23.14 933.33,-15.77"/>
<polygon fill="#63b8ff" stroke="#63b8ff" points="933.85,-19.23 943.23,-14.31 932.83,-12.31 933.85,-19.23"/>
</a>
</g>
</g>
<!-- Node8&#45;&gt;Node5 -->
<g id="edge69_Node000008_Node000005" class="edge">
<title>Node8&#45;&gt;Node5</title>
<g id="a_edge69_Node000008_Node000005"><a xlink:title=" ">
<path fill="none" stroke="#63b8ff" d="M1032.59,-329.63C1029.18,-309.21 1022.92,-271.81 1019.14,-249.24"/>
<polygon fill="#63b8ff" stroke="#63b8ff" points="1022.56,-248.51 1017.46,-239.23 1015.66,-249.67 1022.56,-248.51"/>
</a>
</g>
</g>
<!-- Node9 -->
<g id="Node000009" class="node">
<title>Node9</title>
<g id="a_Node000009"><a xlink:href="ExportService_8h.html" target="_top" xlink:title=" ">
<polygon fill="white" stroke="#666666" points="1421.5,-294 1328.5,-294 1328.5,-275 1421.5,-275 1421.5,-294"/>
<text text-anchor="middle" x="1375" y="-282" font-family="Helvetica,sans-Serif" font-size="10.00">ExportService.h</text>
</a>
</g>
</g>
<!-- Node8&#45;&gt;Node9 -->
<g id="edge10_Node000008_Node000009" class="edge">
<title>Node8&#45;&gt;Node9</title>
<g id="a_edge10_Node000008_Node000009"><a xlink:title=" ">
<path fill="none" stroke="#63b8ff" d="M1099.35,-332.93C1162.5,-322.06 1257.88,-305.65 1318.27,-295.26"/>
<polygon fill="#63b8ff" stroke="#63b8ff" points="1319.12,-298.67 1328.38,-293.52 1317.93,-291.77 1319.12,-298.67"/>
</a>
</g>
</g>
<!-- Node17 -->
<g id="Node000017" class="node">
<title>Node17</title>
<g id="a_Node000017"><a xlink:href="SymbolData_8h.html" target="_top" xlink:title=" ">
<polygon fill="white" stroke="#666666" points="871,-129 785,-129 785,-110 871,-110 871,-129"/>
<text text-anchor="middle" x="828" y="-117" font-family="Helvetica,sans-Serif" font-size="10.00">SymbolData.h</text>
</a>
</g>
</g>
<!-- Node8&#45;&gt;Node17 -->
<g id="edge52_Node000008_Node000017" class="edge">
<title>Node8&#45;&gt;Node17</title>
<g id="a_edge52_Node000008_Node000017"><a xlink:title=" ">
<path fill="none" stroke="#63b8ff" d="M970.82,-339.91C797.51,-328.19 330.09,-291.91 287,-239 223.41,-160.91 626.1,-131.28 774.58,-123.08"/>
<polygon fill="#63b8ff" stroke="#63b8ff" points="775.03,-126.56 784.82,-122.53 774.65,-119.57 775.03,-126.56"/>
</a>
</g>
</g>
<!-- Node20 -->
<g id="Node000020" class="node">
<title>Node20</title>
<g id="a_Node000020"><a xlink:title=" ">
<polygon fill="#e0e0e0" stroke="#999999" points="1132.5,-239 1061.5,-239 1061.5,-220 1132.5,-220 1132.5,-239"/>
<text text-anchor="middle" x="1097" y="-227" font-family="Helvetica,sans-Serif" font-size="10.00">QAtomicInt</text>
</a>
</g>
</g>
<!-- Node8&#45;&gt;Node20 -->
<g id="edge67_Node000008_Node000020" class="edge">
<title>Node8&#45;&gt;Node20</title>
<g id="a_edge67_Node000008_Node000020"><a xlink:title=" ">
<path fill="none" stroke="#63b8ff" d="M1042.85,-329.63C1054.21,-308.84 1075.18,-270.44 1087.43,-248.02"/>
<polygon fill="#63b8ff" stroke="#63b8ff" points="1090.51,-249.68 1092.23,-239.23 1084.37,-246.33 1090.51,-249.68"/>
</a>
</g>
</g>
<!-- Node22 -->
<g id="Node000022" class="node">
<title>Node22</title>
<g id="a_Node000022"><a xlink:title=" ">
<polygon fill="#e0e0e0" stroke="#999999" points="1414.5,-239 1335.5,-239 1335.5,-220 1414.5,-220 1414.5,-239"/>
<text text-anchor="middle" x="1375" y="-227" font-family="Helvetica,sans-Serif" font-size="10.00">QThreadPool</text>
</a>
</g>
</g>
<!-- Node8&#45;&gt;Node22 -->
<g id="edge72_Node000008_Node000022" class="edge">
<title>Node8&#45;&gt;Node22</title>
<g id="a_edge72_Node000008_Node000022"><a xlink:title=" ">
<path fill="none" stroke="#63b8ff" d="M1099.02,-336.28C1147.24,-329.07 1214.34,-316.02 1270,-294 1301.92,-281.37 1335.26,-259.48 1355.59,-244.99"/>
<polygon fill="#63b8ff" stroke="#63b8ff" points="1357.67,-247.8 1363.71,-239.1 1353.56,-242.14 1357.67,-247.8"/>
</a>
</g>
</g>
<!-- Node23 -->
<g id="Node000023" class="node">
<title>Node23</title>
<g id="a_Node000023"><a xlink:href="ComponentExportStatus_8h.html" target="_top" xlink:title=" ">
<polygon fill="white" stroke="#666666" points="970.5,-239 787.5,-239 787.5,-220 970.5,-220 970.5,-239"/>
<text text-anchor="middle" x="879" y="-227" font-family="Helvetica,sans-Serif" font-size="10.00">models/ComponentExportStatus.h</text>
</a>
</g>
</g>
<!-- Node8&#45;&gt;Node23 -->
<g id="edge43_Node000008_Node000023" class="edge">
<title>Node8&#45;&gt;Node23</title>
<g id="a_edge43_Node000008_Node000023"><a xlink:title=" ">
<path fill="none" stroke="#63b8ff" d="M1015.56,-329.85C985.82,-308.22 929.33,-267.12 899.17,-245.17"/>
<polygon fill="#63b8ff" stroke="#63b8ff" points="901.2,-242.32 891.05,-239.27 897.08,-247.98 901.2,-242.32"/>
</a>
</g>
</g>
<!-- Node26 -->
<g id="Node000026" class="node">
<title>Node26</title>
<g id="a_Node000026"><a xlink:href="BoundedThreadSafeQueue_8h.html" target="_top" xlink:title=" ">
<polygon fill="white" stroke="#666666" points="1261.5,-294 1082.5,-294 1082.5,-275 1261.5,-275 1261.5,-294"/>
<text text-anchor="middle" x="1172" y="-282" font-family="Helvetica,sans-Serif" font-size="10.00">utils/BoundedThreadSafeQueue.h</text>
</a>
</g>
</g>
<!-- Node8&#45;&gt;Node26 -->
<g id="edge53_Node000008_Node000026" class="edge">
<title>Node8&#45;&gt;Node26</title>
<g id="a_edge53_Node000008_Node000026"><a xlink:title=" ">
<path fill="none" stroke="#63b8ff" d="M1067.81,-329.99C1090.47,-320.31 1120.35,-307.56 1142.3,-298.18"/>
<polygon fill="#63b8ff" stroke="#63b8ff" points="1143.95,-301.29 1151.77,-294.14 1141.2,-294.85 1143.95,-301.29"/>
</a>
</g>
</g>
<!-- Node29 -->
<g id="Node000029" class="node">
<title>Node29</title>
<g id="a_Node000029"><a xlink:href="FetchWorker_8h.html" target="_top" xlink:title=" ">
<polygon fill="white" stroke="#666666" points="786,-294 660,-294 660,-275 786,-275 786,-294"/>
<text text-anchor="middle" x="723" y="-282" font-family="Helvetica,sans-Serif" font-size="10.00">workers/FetchWorker.h</text>
</a>
</g>
</g>
<!-- Node8&#45;&gt;Node29 -->
<g id="edge58_Node000008_Node000029" class="edge">
<title>Node8&#45;&gt;Node29</title>
<g id="a_edge58_Node000008_Node000029"><a xlink:title=" ">
<path fill="none" stroke="#63b8ff" d="M970.73,-331.95C914.09,-321.33 832.42,-306.02 778.55,-295.92"/>
<polygon fill="#63b8ff" stroke="#63b8ff" points="778.97,-292.43 768.5,-294.03 777.68,-299.31 778.97,-292.43"/>
</a>
</g>
</g>
<!-- Node30 -->
<g id="Node000030" class="node">
<title>Node30</title>
<g id="a_Node000030"><a xlink:title=" ">
<polygon fill="#e0e0e0" stroke="#999999" points="438,-239 296,-239 296,-220 438,-220 438,-239"/>
<text text-anchor="middle" x="367" y="-227" font-family="Helvetica,sans-Serif" font-size="10.00">QNetworkAccessManager</text>
</a>
</g>
</g>
<!-- Node8&#45;&gt;Node30 -->
<g id="edge70_Node000008_Node000030" class="edge">
<title>Node8&#45;&gt;Node30</title>
<g id="a_edge70_Node000008_Node000030"><a xlink:title=" ">
<path fill="none" stroke="#63b8ff" d="M970.86,-337.44C894.4,-329.21 762.89,-313.75 651,-294 565.05,-278.83 465.78,-255.22 410.3,-241.47"/>
<polygon fill="#63b8ff" stroke="#63b8ff" points="411.01,-238.04 400.46,-239.02 409.32,-244.83 411.01,-238.04"/>
</a>
</g>
</g>
<!-- Node34 -->
<g id="Node000034" class="node">
<title>Node34</title>
<g id="a_Node000034"><a xlink:title=" ">
<polygon fill="#e0e0e0" stroke="#999999" points="1484.5,-294 1439.5,-294 1439.5,-275 1484.5,-275 1484.5,-294"/>
<text text-anchor="middle" x="1462" y="-282" font-family="Helvetica,sans-Serif" font-size="10.00">QMap</text>
</a>
</g>
</g>
<!-- Node8&#45;&gt;Node34 -->
<g id="edge68_Node000008_Node000034" class="edge">
<title>Node8&#45;&gt;Node34</title>
<g id="a_edge68_Node000008_Node000034"><a xlink:title=" ">
<path fill="none" stroke="#63b8ff" d="M1099.24,-338.72C1175.87,-331.78 1307.93,-317.84 1429.55,-294.05"/>
<polygon fill="#63b8ff" stroke="#63b8ff" points="1430.27,-297.47 1439.4,-292.1 1428.91,-290.61 1430.27,-297.47"/>
</a>
</g>
</g>
<!-- Node35 -->
<g id="Node000035" class="node">
<title>Node35</title>
<g id="a_Node000035"><a xlink:title=" ">
<polygon fill="#e0e0e0" stroke="#999999" points="1543,-294 1503,-294 1503,-275 1543,-275 1543,-294"/>
<text text-anchor="middle" x="1523" y="-282" font-family="Helvetica,sans-Serif" font-size="10.00">QSet</text>
</a>
</g>
</g>
<!-- Node8&#45;&gt;Node35 -->
<g id="edge71_Node000008_Node000035" class="edge">
<title>Node8&#45;&gt;Node35</title>
<g id="a_edge71_Node000008_Node000035"><a xlink:title=" ">
<path fill="none" stroke="#63b8ff" d="M1099.02,-340.6C1186.23,-335.19 1347.22,-322.38 1492.82,-293.89"/>
<polygon fill="#63b8ff" stroke="#63b8ff" points="1493.71,-297.29 1502.83,-291.91 1492.34,-290.42 1493.71,-297.29"/>
</a>
</g>
</g>
<!-- Node9&#45;&gt;Node5 -->
<g id="edge38_Node000009_Node000005" class="edge">
<title>Node9&#45;&gt;Node5</title>
<g id="a_edge38_Node000009_Node000005"><a xlink:title=" ">
<path fill="none" stroke="#63b8ff" d="M1328.24,-278.47C1267.19,-271.59 1156.83,-258.09 1053.8,-239.2"/>
<polygon fill="#63b8ff" stroke="#63b8ff" points="1054.32,-235.74 1043.85,-237.35 1053.05,-242.62 1054.32,-235.74"/>
</a>
</g>
</g>
<!-- Node9&#45;&gt;Node6 -->
<g id="edge39_Node000009_Node000006" class="edge">
<title>Node9&#45;&gt;Node6</title>
<g id="a_edge39_Node000009_Node000006"><a xlink:title=" ">
<path fill="none" stroke="#63b8ff" d="M1328.25,-279.27C1310.08,-277.74 1289.08,-276.12 1270,-275 833.57,-249.36 722.96,-271.64 287,-239 274.97,-238.1 261.9,-236.75 250.09,-235.39"/>
<polygon fill="#63b8ff" stroke="#63b8ff" points="250.43,-231.9 240.09,-234.2 249.6,-238.85 250.43,-231.9"/>
</a>
</g>
</g>
<!-- Node9&#45;&gt;Node7 -->
<g id="edge40_Node000009_Node000007" class="edge">
<title>Node9&#45;&gt;Node7</title>
<g id="a_edge40_Node000009_Node000007"><a xlink:title=" ">
<path fill="none" stroke="#63b8ff" d="M1406.99,-274.96C1468.01,-257.72 1595,-216.88 1595,-175.5 1595,-175.5 1595,-175.5 1595,-118.5 1595,-58.46 1141.39,-22.34 1007.05,-12.95"/>
<polygon fill="#63b8ff" stroke="#63b8ff" points="1007.07,-9.45 996.86,-12.25 1006.59,-16.43 1007.07,-9.45"/>
</a>
</g>
</g>
<!-- Node10 -->
<g id="Node000010" class="node">
<title>Node10</title>
<g id="a_Node000010"><a xlink:href="ComponentData_8h.html" target="_top" xlink:title=" ">
<polygon fill="white" stroke="#666666" points="1141,-184 997,-184 997,-165 1141,-165 1141,-184"/>
<text text-anchor="middle" x="1069" y="-172" font-family="Helvetica,sans-Serif" font-size="10.00">models/ComponentData.h</text>
</a>
</g>
</g>
<!-- Node9&#45;&gt;Node10 -->
<g id="edge11_Node000009_Node000010" class="edge">
<title>Node9&#45;&gt;Node10</title>
<g id="a_edge11_Node000009_Node000010"><a xlink:title=" ">
<path fill="none" stroke="#63b8ff" d="M1402.35,-274.94C1433.51,-263.83 1477.61,-243.11 1457,-220 1437.03,-197.6 1259.12,-184.9 1151.27,-179.2"/>
<polygon fill="#63b8ff" stroke="#63b8ff" points="1151.22,-175.69 1141.06,-178.67 1150.86,-182.68 1151.22,-175.69"/>
</a>
</g>
</g>
<!-- Node11 -->
<g id="Node000011" class="node">
<title>Node11</title>
<g id="a_Node000011"><a xlink:href="FootprintData_8h.html" target="_top" xlink:title=" ">
<polygon fill="white" stroke="#666666" points="1129,-129 1037,-129 1037,-110 1129,-110 1129,-129"/>
<text text-anchor="middle" x="1083" y="-117" font-family="Helvetica,sans-Serif" font-size="10.00">FootprintData.h</text>
</a>
</g>
</g>
<!-- Node9&#45;&gt;Node11 -->
<g id="edge34_Node000009_Node000011" class="edge">
<title>Node9&#45;&gt;Node11</title>
<g id="a_edge34_Node000009_Node000011"><a xlink:title=" ">
<path fill="none" stroke="#63b8ff" d="M1411.78,-274.96C1447.44,-264.93 1493.4,-246.26 1473,-220 1432.27,-167.57 1237.12,-138.15 1139.24,-126.47"/>
<polygon fill="#63b8ff" stroke="#63b8ff" points="1139.57,-122.99 1129.23,-125.3 1138.75,-129.94 1139.57,-122.99"/>
</a>
</g>
</g>
<!-- Node12 -->
<g id="Node000012" class="node">
<title>Node12</title>
<g id="a_Node000012"><a xlink:href="Model3DData_8h.html" target="_top" xlink:title=" ">
<polygon fill="white" stroke="#666666" points="1277,-74 1185,-74 1185,-55 1277,-55 1277,-74"/>
<text text-anchor="middle" x="1231" y="-62" font-family="Helvetica,sans-Serif" font-size="10.00">Model3DData.h</text>
</a>
</g>
</g>
<!-- Node9&#45;&gt;Node12 -->
<g id="edge35_Node000009_Node000012" class="edge">
<title>Node9&#45;&gt;Node12</title>
<g id="a_edge35_Node000009_Node000012"><a xlink:title=" ">
<path fill="none" stroke="#63b8ff" d="M1421.54,-276.09C1460.23,-267.63 1506.36,-250.78 1489,-220 1443.08,-138.59 1335.2,-95.48 1274.49,-76.92"/>
<polygon fill="#63b8ff" stroke="#63b8ff" points="1275.39,-73.54 1264.8,-74.05 1273.4,-80.25 1275.39,-73.54"/>
</a>
</g>
</g>
<!-- Node9&#45;&gt;Node17 -->
<g id="edge36_Node000009_Node000017" class="edge">
<title>Node9&#45;&gt;Node17</title>
<g id="a_edge36_Node000009_Node000017"><a xlink:title=" ">
<path fill="none" stroke="#63b8ff" d="M1389.88,-274.91C1409.86,-262.34 1440.98,-238.44 1424,-220 1391.07,-184.24 1035.33,-195.09 988,-184 938.9,-172.5 885.01,-148.57 853.98,-133.6"/>
<polygon fill="#63b8ff" stroke="#63b8ff" points="855.27,-130.33 844.75,-129.07 852.19,-136.61 855.27,-130.33"/>
</a>
</g>
</g>
<!-- Node9&#45;&gt;Node20 -->
<g id="edge37_Node000009_Node000020" class="edge">
<title>Node9&#45;&gt;Node20</title>
<g id="a_edge37_Node000009_Node000020"><a xlink:title=" ">
<path fill="none" stroke="#63b8ff" d="M1330.33,-274.98C1278.82,-265.16 1194.58,-249.1 1142.65,-239.2"/>
<polygon fill="#63b8ff" stroke="#63b8ff" points="1143.2,-235.74 1132.72,-237.31 1141.88,-242.62 1143.2,-235.74"/>
</a>
</g>
</g>
<!-- Node21 -->
<g id="Node000021" class="node">
<title>Node21</title>
<g id="a_Node000021"><a xlink:title=" ">
<polygon fill="#e0e0e0" stroke="#999999" points="1693,-239 1623,-239 1623,-220 1693,-220 1693,-239"/>
<text text-anchor="middle" x="1658" y="-227" font-family="Helvetica,sans-Serif" font-size="10.00">QStringList</text>
</a>
</g>
</g>
<!-- Node9&#45;&gt;Node21 -->
<g id="edge41_Node000009_Node000021" class="edge">
<title>Node9&#45;&gt;Node21</title>
<g id="a_edge41_Node000009_Node000021"><a xlink:title=" ">
<path fill="none" stroke="#63b8ff" d="M1420.47,-274.98C1473.35,-265.08 1560.11,-248.83 1612.85,-238.96"/>
<polygon fill="#63b8ff" stroke="#63b8ff" points="1613.74,-242.35 1622.92,-237.07 1612.45,-235.47 1613.74,-242.35"/>
</a>
</g>
</g>
<!-- Node9&#45;&gt;Node22 -->
<g id="edge42_Node000009_Node000022" class="edge">
<title>Node9&#45;&gt;Node22</title>
<g id="a_edge42_Node000009_Node000022"><a xlink:title=" ">
<path fill="none" stroke="#63b8ff" d="M1375,-274.75C1375,-267.8 1375,-257.85 1375,-249.13"/>
<polygon fill="#63b8ff" stroke="#63b8ff" points="1378.5,-249.09 1375,-239.09 1371.5,-249.09 1378.5,-249.09"/>
</a>
</g>
</g>
<!-- Node10&#45;&gt;Node4 -->
<g id="edge31_Node000010_Node000004" class="edge">
<title>Node10&#45;&gt;Node4</title>
<g id="a_edge31_Node000010_Node000004"><a xlink:title=" ">
<path fill="none" stroke="#63b8ff" d="M996.83,-172.98C935.66,-170.14 846.85,-160.25 776,-129 740.44,-113.31 732.59,-104.1 708,-74 696.84,-60.33 687.9,-42.29 682.16,-28.92"/>
<polygon fill="#63b8ff" stroke="#63b8ff" points="685.28,-27.32 678.26,-19.39 678.81,-29.97 685.28,-27.32"/>
</a>
</g>
</g>
<!-- Node10&#45;&gt;Node7 -->
<g id="edge33_Node000010_Node000007" class="edge">
<title>Node10&#45;&gt;Node7</title>
<g id="a_edge33_Node000010_Node000007"><a xlink:title=" ">
<path fill="none" stroke="#63b8ff" d="M1093.47,-164.86C1109.27,-157.85 1128.59,-146.27 1138,-129 1151.86,-103.57 1118.09,-60.31 1112,-55 1082.42,-29.24 1037.97,-18.38 1006.7,-13.81"/>
<polygon fill="#63b8ff" stroke="#63b8ff" points="1007.02,-10.32 996.64,-12.49 1006.1,-17.26 1007.02,-10.32"/>
</a>
</g>
</g>
<!-- Node10&#45;&gt;Node11 -->
<g id="edge12_Node000010_Node000011" class="edge">
<title>Node10&#45;&gt;Node11</title>
<g id="a_edge12_Node000010_Node000011"><a xlink:title=" ">
<path fill="none" stroke="#63b8ff" d="M1071.31,-164.75C1073.17,-157.72 1075.84,-147.62 1078.15,-138.84"/>
<polygon fill="#63b8ff" stroke="#63b8ff" points="1081.56,-139.65 1080.73,-129.09 1074.79,-137.86 1081.56,-139.65"/>
</a>
</g>
</g>
<!-- Node10&#45;&gt;Node12 -->
<g id="edge22_Node000010_Node000012" class="edge">
<title>Node10&#45;&gt;Node12</title>
<g id="a_edge22_Node000010_Node000012"><a xlink:title=" ">
<path fill="none" stroke="#63b8ff" d="M1096.53,-164.9C1117.99,-157.41 1147.92,-145.22 1171,-129 1189.53,-115.98 1206.85,-96.55 1218.07,-82.61"/>
<polygon fill="#63b8ff" stroke="#63b8ff" points="1221.12,-84.41 1224.52,-74.37 1215.6,-80.09 1221.12,-84.41"/>
</a>
</g>
</g>
<!-- Node14 -->
<g id="Node000014" class="node">
<title>Node14</title>
<g id="a_Node000014"><a xlink:title=" ">
<polygon fill="#e0e0e0" stroke="#999999" points="920.5,-74 849.5,-74 849.5,-55 920.5,-55 920.5,-74"/>
<text text-anchor="middle" x="885" y="-62" font-family="Helvetica,sans-Serif" font-size="10.00">QJsonArray</text>
</a>
</g>
</g>
<!-- Node10&#45;&gt;Node14 -->
<g id="edge30_Node000010_Node000014" class="edge">
<title>Node10&#45;&gt;Node14</title>
<g id="a_edge30_Node000010_Node000014"><a xlink:title=" ">
<path fill="none" stroke="#63b8ff" d="M1059.9,-164.77C1045.82,-151.6 1017.49,-126.44 990,-110 967.85,-96.75 941.03,-85.46 920.04,-77.56"/>
<polygon fill="#63b8ff" stroke="#63b8ff" points="921.15,-74.24 910.55,-74.07 918.73,-80.81 921.15,-74.24"/>
</a>
</g>
</g>
<!-- Node10&#45;&gt;Node17 -->
<g id="edge23_Node000010_Node000017" class="edge">
<title>Node10&#45;&gt;Node17</title>
<g id="a_edge23_Node000010_Node000017"><a xlink:title=" ">
<path fill="none" stroke="#63b8ff" d="M1030.28,-164.98C988.59,-155.82 922.18,-141.21 876.91,-131.26"/>
<polygon fill="#63b8ff" stroke="#63b8ff" points="877.54,-127.81 867.02,-129.08 876.04,-134.65 877.54,-127.81"/>
</a>
</g>
</g>
<!-- Node19 -->
<g id="Node000019" class="node">
<title>Node19</title>
<g id="a_Node000019"><a xlink:title=" ">
<polygon fill="#e0e0e0" stroke="#999999" points="981,-129 889,-129 889,-110 981,-110 981,-129"/>
<text text-anchor="middle" x="935" y="-117" font-family="Helvetica,sans-Serif" font-size="10.00">QSharedPointer</text>
</a>
</g>
</g>
<!-- Node10&#45;&gt;Node19 -->
<g id="edge32_Node000010_Node000019" class="edge">
<title>Node10&#45;&gt;Node19</title>
<g id="a_edge32_Node000010_Node000019"><a xlink:title=" ">
<path fill="none" stroke="#63b8ff" d="M1047.47,-164.98C1025.53,-156.3 991.26,-142.75 966.31,-132.88"/>
<polygon fill="#63b8ff" stroke="#63b8ff" points="967.51,-129.59 956.92,-129.17 964.93,-136.1 967.51,-129.59"/>
</a>
</g>
</g>
<!-- Node11&#45;&gt;Node4 -->
<g id="edge18_Node000011_Node000004" class="edge">
<title>Node11&#45;&gt;Node4</title>
<g id="a_edge18_Node000011_Node000004"><a xlink:title=" ">
<path fill="none" stroke="#63b8ff" d="M1082.76,-109.9C1081.87,-95.95 1077.93,-68.58 1061,-55 1010.01,-14.1 815.04,-9.62 723.28,-9.86"/>
<polygon fill="#63b8ff" stroke="#63b8ff" points="723.13,-6.36 713.15,-9.91 723.16,-13.36 723.13,-6.36"/>
</a>
</g>
</g>
<!-- Node11&#45;&gt;Node7 -->
<g id="edge21_Node000011_Node000007" class="edge">
<title>Node11&#45;&gt;Node7</title>
<g id="a_edge21_Node000011_Node000007"><a xlink:title=" ">
<path fill="none" stroke="#63b8ff" d="M1088.38,-109.83C1095.74,-96.74 1106.77,-71.69 1095,-55 1075.19,-26.92 1036.02,-16.46 1006.78,-12.61"/>
<polygon fill="#63b8ff" stroke="#63b8ff" points="1006.84,-9.1 996.51,-11.47 1006.07,-16.05 1006.84,-9.1"/>
</a>
</g>
</g>
<!-- Node11&#45;&gt;Node12 -->
<g id="edge13_Node000011_Node000012" class="edge">
<title>Node11&#45;&gt;Node12</title>
<g id="a_edge13_Node000011_Node000012"><a xlink:title=" ">
<path fill="none" stroke="#63b8ff" d="M1106.78,-109.98C1131.23,-101.23 1169.53,-87.51 1197.15,-77.62"/>
<polygon fill="#63b8ff" stroke="#63b8ff" points="1198.55,-80.84 1206.79,-74.17 1196.19,-74.25 1198.55,-80.84"/>
</a>
</g>
</g>
<!-- Node11&#45;&gt;Node14 -->
<g id="edge17_Node000011_Node000014" class="edge">
<title>Node11&#45;&gt;Node14</title>
<g id="a_edge17_Node000011_Node000014"><a xlink:title=" ">
<path fill="none" stroke="#63b8ff" d="M1051.19,-109.98C1017.51,-100.97 964.2,-86.7 927.08,-76.76"/>
<polygon fill="#63b8ff" stroke="#63b8ff" points="927.63,-73.29 917.06,-74.08 925.82,-80.05 927.63,-73.29"/>
</a>
</g>
</g>
<!-- Node15 -->
<g id="Node000015" class="node">
<title>Node15</title>
<g id="a_Node000015"><a xlink:title=" ">
<polygon fill="#e0e0e0" stroke="#999999" points="1052.5,-74 1011.5,-74 1011.5,-55 1052.5,-55 1052.5,-74"/>
<text text-anchor="middle" x="1032" y="-62" font-family="Helvetica,sans-Serif" font-size="10.00">QList</text>
</a>
</g>
</g>
<!-- Node11&#45;&gt;Node15 -->
<g id="edge19_Node000011_Node000015" class="edge">
<title>Node11&#45;&gt;Node15</title>
<g id="a_edge19_Node000011_Node000015"><a xlink:title=" ">
<path fill="none" stroke="#63b8ff" d="M1074.58,-109.75C1067.23,-102.11 1056.37,-90.82 1047.46,-81.56"/>
<polygon fill="#63b8ff" stroke="#63b8ff" points="1049.72,-78.87 1040.26,-74.09 1044.68,-83.72 1049.72,-78.87"/>
</a>
</g>
</g>
<!-- Node16 -->
<g id="Node000016" class="node">
<title>Node16</title>
<g id="a_Node000016"><a xlink:title=" ">
<polygon fill="#e0e0e0" stroke="#999999" points="993.5,-74 938.5,-74 938.5,-55 993.5,-55 993.5,-74"/>
<text text-anchor="middle" x="966" y="-62" font-family="Helvetica,sans-Serif" font-size="10.00">QPointF</text>
</a>
</g>
</g>
<!-- Node11&#45;&gt;Node16 -->
<g id="edge20_Node000011_Node000016" class="edge">
<title>Node11&#45;&gt;Node16</title>
<g id="a_edge20_Node000011_Node000016"><a xlink:title=" ">
<path fill="none" stroke="#63b8ff" d="M1064.2,-109.98C1045.38,-101.46 1016.18,-88.23 994.5,-78.41"/>
<polygon fill="#63b8ff" stroke="#63b8ff" points="995.69,-75.11 985.14,-74.17 992.8,-81.48 995.69,-75.11"/>
</a>
</g>
</g>
<!-- Node12&#45;&gt;Node4 -->
<g id="edge15_Node000012_Node000004" class="edge">
<title>Node12&#45;&gt;Node4</title>
<g id="a_edge15_Node000012_Node000004"><a xlink:title=" ">
<path fill="none" stroke="#63b8ff" d="M1184.55,-59.07C1080.36,-49.14 828.87,-25.17 723.12,-15.09"/>
<polygon fill="#63b8ff" stroke="#63b8ff" points="723.34,-11.59 713.05,-14.13 722.68,-18.56 723.34,-11.59"/>
</a>
</g>
</g>
<!-- Node12&#45;&gt;Node7 -->
<g id="edge16_Node000012_Node000007" class="edge">
<title>Node12&#45;&gt;Node7</title>
<g id="a_edge16_Node000012_Node000007"><a xlink:title=" ">
<path fill="none" stroke="#63b8ff" d="M1189.07,-54.98C1138.59,-44.73 1054.64,-27.69 1006.65,-17.94"/>
<polygon fill="#63b8ff" stroke="#63b8ff" points="1007.19,-14.48 996.69,-15.92 1005.79,-21.34 1007.19,-14.48"/>
</a>
</g>
</g>
<!-- Node13 -->
<g id="Node000013" class="node">
<title>Node13</title>
<g id="a_Node000013"><a xlink:title=" ">
<polygon fill="#e0e0e0" stroke="#999999" points="1267.5,-19 1194.5,-19 1194.5,0 1267.5,0 1267.5,-19"/>
<text text-anchor="middle" x="1231" y="-7" font-family="Helvetica,sans-Serif" font-size="10.00">QByteArray</text>
</a>
</g>
</g>
<!-- Node12&#45;&gt;Node13 -->
<g id="edge14_Node000012_Node000013" class="edge">
<title>Node12&#45;&gt;Node13</title>
<g id="a_edge14_Node000012_Node000013"><a xlink:title=" ">
<path fill="none" stroke="#63b8ff" d="M1231,-54.75C1231,-47.8 1231,-37.85 1231,-29.13"/>
<polygon fill="#63b8ff" stroke="#63b8ff" points="1234.5,-29.09 1231,-19.09 1227.5,-29.09 1234.5,-29.09"/>
</a>
</g>
</g>
<!-- Node17&#45;&gt;Node4 -->
<g id="edge25_Node000017_Node000004" class="edge">
<title>Node17&#45;&gt;Node4</title>
<g id="a_edge25_Node000017_Node000004"><a xlink:title=" ">
<path fill="none" stroke="#63b8ff" d="M802.42,-109.9C782.14,-102.34 753.71,-90.05 732,-74 714.22,-60.85 697.79,-41.44 687.18,-27.55"/>
<polygon fill="#63b8ff" stroke="#63b8ff" points="689.86,-25.28 681.1,-19.33 684.24,-29.45 689.86,-25.28"/>
</a>
</g>
</g>
<!-- Node17&#45;&gt;Node7 -->
<g id="edge29_Node000017_Node000007" class="edge">
<title>Node17&#45;&gt;Node7</title>
<g id="a_edge29_Node000017_Node000007"><a xlink:title=" ">
<path fill="none" stroke="#63b8ff" d="M827.11,-109.96C826.2,-96.58 826.48,-70.6 840,-55 863.33,-28.07 903.7,-17.41 933.28,-13.21"/>
<polygon fill="#63b8ff" stroke="#63b8ff" points="933.75,-16.68 943.25,-11.98 932.89,-9.73 933.75,-16.68"/>
</a>
</g>
</g>
<!-- Node17&#45;&gt;Node14 -->
<g id="edge24_Node000017_Node000014" class="edge">
<title>Node17&#45;&gt;Node14</title>
<g id="a_edge24_Node000017_Node000014"><a xlink:title=" ">
<path fill="none" stroke="#63b8ff" d="M837.16,-109.98C845.5,-102.23 858.03,-90.58 868.18,-81.14"/>
<polygon fill="#63b8ff" stroke="#63b8ff" points="870.74,-83.54 875.68,-74.17 865.97,-78.42 870.74,-83.54"/>
</a>
</g>
</g>
<!-- Node17&#45;&gt;Node15 -->
<g id="edge26_Node000017_Node000015" class="edge">
<title>Node17&#45;&gt;Node15</title>
<g id="a_edge26_Node000017_Node000015"><a xlink:title=" ">
<path fill="none" stroke="#63b8ff" d="M862.4,-109.98C895.56,-101.7 947.39,-88.61 1001.58,-74.06"/>
<polygon fill="#63b8ff" stroke="#63b8ff" points="1002.62,-77.4 1011.36,-71.42 1000.8,-70.65 1002.62,-77.4"/>
</a>
</g>
</g>
<!-- Node17&#45;&gt;Node16 -->
<g id="edge27_Node000017_Node000016" class="edge">
<title>Node17&#45;&gt;Node16</title>
<g id="a_edge27_Node000017_Node000016"><a xlink:title=" ">
<path fill="none" stroke="#63b8ff" d="M850.17,-109.98C872.77,-101.3 908.06,-87.75 933.75,-77.88"/>
<polygon fill="#63b8ff" stroke="#63b8ff" points="935.34,-81.02 943.42,-74.17 932.83,-74.49 935.34,-81.02"/>
</a>
</g>
</g>
<!-- Node18 -->
<g id="Node000018" class="node">
<title>Node18</title>
<g id="a_Node000018"><a xlink:title=" ">
<polygon fill="#e0e0e0" stroke="#999999" points="793,-74 741,-74 741,-55 793,-55 793,-74"/>
<text text-anchor="middle" x="767" y="-62" font-family="Helvetica,sans-Serif" font-size="10.00">QRectF</text>
</a>
</g>
</g>
<!-- Node17&#45;&gt;Node18 -->
<g id="edge28_Node000017_Node000018" class="edge">
<title>Node17&#45;&gt;Node18</title>
<g id="a_edge28_Node000017_Node000018"><a xlink:title=" ">
<path fill="none" stroke="#63b8ff" d="M818.2,-109.98C809.18,-102.15 795.59,-90.34 784.68,-80.86"/>
<polygon fill="#63b8ff" stroke="#63b8ff" points="786.82,-78.09 776.98,-74.17 782.23,-83.37 786.82,-78.09"/>
</a>
</g>
</g>
<!-- Node23&#45;&gt;Node7 -->
<g id="edge51_Node000023_Node000007" class="edge">
<title>Node23&#45;&gt;Node7</title>
<g id="a_edge51_Node000023_Node000007"><a xlink:title=" ">
<path fill="none" stroke="#63b8ff" d="M813.37,-219.99C790.15,-213.71 765.88,-202.84 750,-184 712.69,-139.74 695.02,-99.54 732,-55 757.14,-24.72 872.85,-14.93 933.17,-11.85"/>
<polygon fill="#63b8ff" stroke="#63b8ff" points="933.58,-15.34 943.41,-11.37 933.25,-8.35 933.58,-15.34"/>
</a>
</g>
</g>
<!-- Node23&#45;&gt;Node10 -->
<g id="edge44_Node000023_Node000010" class="edge">
<title>Node23&#45;&gt;Node10</title>
<g id="a_edge44_Node000023_Node000010"><a xlink:title=" ">
<path fill="none" stroke="#63b8ff" d="M909.53,-219.98C941.7,-211.01 992.56,-196.82 1028.17,-186.89"/>
<polygon fill="#63b8ff" stroke="#63b8ff" points="1029.54,-190.14 1038.23,-184.08 1027.66,-183.4 1029.54,-190.14"/>
</a>
</g>
</g>
<!-- Node23&#45;&gt;Node11 -->
<g id="edge45_Node000023_Node000011" class="edge">
<title>Node23&#45;&gt;Node11</title>
<g id="a_edge45_Node000023_Node000011"><a xlink:title=" ">
<path fill="none" stroke="#63b8ff" d="M964.88,-219.96C1039.65,-211.64 1137.94,-198.2 1150,-184 1166.1,-165.04 1138.06,-145.74 1113.48,-133.47"/>
<polygon fill="#63b8ff" stroke="#63b8ff" points="1114.87,-130.25 1104.33,-129.13 1111.87,-136.58 1114.87,-130.25"/>
</a>
</g>
</g>
<!-- Node23&#45;&gt;Node12 -->
<g id="edge46_Node000023_Node000012" class="edge">
<title>Node23&#45;&gt;Node12</title>
<g id="a_edge46_Node000023_Node000012"><a xlink:title=" ">
<path fill="none" stroke="#63b8ff" d="M957.65,-219.98C1036.97,-210.81 1150.08,-195.94 1167,-184 1201.44,-159.7 1219.11,-110.87 1226.55,-84.1"/>
<polygon fill="#63b8ff" stroke="#63b8ff" points="1230.02,-84.68 1229.13,-74.12 1223.24,-82.92 1230.02,-84.68"/>
</a>
</g>
</g>
<!-- Node23&#45;&gt;Node17 -->
<g id="edge47_Node000023_Node000017" class="edge">
<title>Node23&#45;&gt;Node17</title>
<g id="a_edge47_Node000023_Node000017"><a xlink:title=" ">
<path fill="none" stroke="#63b8ff" d="M877.18,-219.97C874.34,-207.48 868.18,-183.67 859,-165 854.23,-155.3 847.51,-145.35 841.54,-137.33"/>
<polygon fill="#63b8ff" stroke="#63b8ff" points="844.15,-134.98 835.27,-129.2 838.61,-139.26 844.15,-134.98"/>
</a>
</g>
</g>
<!-- Node23&#45;&gt;Node19 -->
<g id="edge50_Node000023_Node000019" class="edge">
<title>Node23&#45;&gt;Node19</title>
<g id="a_edge50_Node000023_Node000019"><a xlink:title=" ">
<path fill="none" stroke="#63b8ff" d="M883.58,-219.66C892.78,-201.93 913.62,-161.73 925.76,-138.32"/>
<polygon fill="#63b8ff" stroke="#63b8ff" points="929.01,-139.65 930.51,-129.16 922.8,-136.42 929.01,-139.65"/>
</a>
</g>
</g>
<!-- Node23&#45;&gt;Node24 -->
<g id="edge48_Node000023_Node000024" class="edge">
<title>Node23&#45;&gt;Node24</title>
<g id="a_edge48_Node000023_Node000024"><a xlink:title=" ">
<path fill="none" stroke="#63b8ff" d="M815.22,-219.98C731.99,-208.87 588.96,-189.78 520.58,-180.65"/>
<polygon fill="#63b8ff" stroke="#63b8ff" points="520.65,-177.13 510.27,-179.27 519.72,-184.07 520.65,-177.13"/>
</a>
</g>
</g>
<!-- Node25 -->
<g id="Node000025" class="node">
<title>Node25</title>
<g id="a_Node000025"><a xlink:title=" ">
<polygon fill="#e0e0e0" stroke="#999999" points="850.5,-184 759.5,-184 759.5,-165 850.5,-165 850.5,-184"/>
<text text-anchor="middle" x="805" y="-172" font-family="Helvetica,sans-Serif" font-size="10.00">QElapsedTimer</text>
</a>
</g>
</g>
<!-- Node23&#45;&gt;Node25 -->
<g id="edge49_Node000023_Node000025" class="edge">
<title>Node23&#45;&gt;Node25</title>
<g id="a_edge49_Node000023_Node000025"><a xlink:title=" ">
<path fill="none" stroke="#63b8ff" d="M867.11,-219.98C855.85,-211.92 838.71,-199.65 825.29,-190.03"/>
<polygon fill="#63b8ff" stroke="#63b8ff" points="827.27,-187.15 817.11,-184.17 823.2,-192.84 827.27,-187.15"/>
</a>
</g>
</g>
<!-- Node26&#45;&gt;Node5 -->
<g id="edge55_Node000026_Node000005" class="edge">
<title>Node26&#45;&gt;Node5</title>
<g id="a_edge55_Node000026_Node000005"><a xlink:title=" ">
<path fill="none" stroke="#63b8ff" d="M1146.94,-274.98C1120.97,-266.16 1080.19,-252.31 1051.04,-242.41"/>
<polygon fill="#63b8ff" stroke="#63b8ff" points="1051.85,-238.99 1041.26,-239.08 1049.6,-245.61 1051.85,-238.99"/>
</a>
</g>
</g>
<!-- Node26&#45;&gt;Node20 -->
<g id="edge54_Node000026_Node000020" class="edge">
<title>Node26&#45;&gt;Node20</title>
<g id="a_edge54_Node000026_Node000020"><a xlink:title=" ">
<path fill="none" stroke="#63b8ff" d="M1159.95,-274.98C1148.54,-266.92 1131.17,-254.65 1117.57,-245.03"/>
<polygon fill="#63b8ff" stroke="#63b8ff" points="1119.46,-242.08 1109.27,-239.17 1115.42,-247.8 1119.46,-242.08"/>
</a>
</g>
</g>
<!-- Node27 -->
<g id="Node000027" class="node">
<title>Node27</title>
<g id="a_Node000027"><a xlink:title=" ">
<polygon fill="#e0e0e0" stroke="#999999" points="1317,-239 1261,-239 1261,-220 1317,-220 1317,-239"/>
<text text-anchor="middle" x="1289" y="-227" font-family="Helvetica,sans-Serif" font-size="10.00">QQueue</text>
</a>
</g>
</g>
<!-- Node26&#45;&gt;Node27 -->
<g id="edge56_Node000026_Node000027" class="edge">
<title>Node26&#45;&gt;Node27</title>
<g id="a_edge56_Node000026_Node000027"><a xlink:title=" ">
<path fill="none" stroke="#63b8ff" d="M1190.8,-274.98C1209.62,-266.46 1238.82,-253.23 1260.5,-243.41"/>
<polygon fill="#63b8ff" stroke="#63b8ff" points="1262.2,-246.48 1269.86,-239.17 1259.31,-240.11 1262.2,-246.48"/>
</a>
</g>
</g>
<!-- Node28 -->
<g id="Node000028" class="node">
<title>Node28</title>
<g id="a_Node000028"><a xlink:title=" ">
<polygon fill="#e0e0e0" stroke="#999999" points="1243,-239 1151,-239 1151,-220 1243,-220 1243,-239"/>
<text text-anchor="middle" x="1197" y="-227" font-family="Helvetica,sans-Serif" font-size="10.00">QWaitCondition</text>
</a>
</g>
</g>
<!-- Node26&#45;&gt;Node28 -->
<g id="edge57_Node000026_Node000028" class="edge">
<title>Node26&#45;&gt;Node28</title>
<g id="a_edge57_Node000026_Node000028"><a xlink:title=" ">
<path fill="none" stroke="#63b8ff" d="M1176.13,-274.75C1179.51,-267.57 1184.42,-257.18 1188.62,-248.27"/>
<polygon fill="#63b8ff" stroke="#63b8ff" points="1191.85,-249.63 1192.95,-239.09 1185.52,-246.64 1191.85,-249.63"/>
</a>
</g>
</g>
<!-- Node29&#45;&gt;Node5 -->
<g id="edge61_Node000029_Node000005" class="edge">
<title>Node29&#45;&gt;Node5</title>
<g id="a_edge61_Node000029_Node000005"><a xlink:title=" ">
<path fill="none" stroke="#63b8ff" d="M777.1,-274.96C826.79,-266.92 902.7,-254.15 978.02,-239.11"/>
<polygon fill="#63b8ff" stroke="#63b8ff" points="979.04,-242.47 988.15,-237.07 977.66,-235.61 979.04,-242.47"/>
</a>
</g>
</g>
<!-- Node29&#45;&gt;Node6 -->
<g id="edge64_Node000029_Node000006" class="edge">
<title>Node29&#45;&gt;Node6</title>
<g id="a_edge64_Node000029_Node000006"><a xlink:title=" ">
<path fill="none" stroke="#63b8ff" d="M659.8,-277.27C574.96,-268.86 419.58,-253.28 287,-239 275.01,-237.71 261.94,-236.25 250.13,-234.9"/>
<polygon fill="#63b8ff" stroke="#63b8ff" points="250.46,-231.42 240.13,-233.76 249.67,-238.37 250.46,-231.42"/>
</a>
</g>
</g>
<!-- Node29&#45;&gt;Node20 -->
<g id="edge60_Node000029_Node000020" class="edge">
<title>Node29&#45;&gt;Node20</title>
<g id="a_edge60_Node000029_Node000020"><a xlink:title=" ">
<path fill="none" stroke="#63b8ff" d="M786.22,-275.94C850.36,-268.05 952.75,-254.84 1051.06,-239.08"/>
<polygon fill="#63b8ff" stroke="#63b8ff" points="1051.85,-242.49 1061.17,-237.44 1050.74,-235.58 1051.85,-242.49"/>
</a>
</g>
</g>
<!-- Node29&#45;&gt;Node23 -->
<g id="edge59_Node000029_Node000023" class="edge">
<title>Node29&#45;&gt;Node23</title>
<g id="a_edge59_Node000029_Node000023"><a xlink:title=" ">
<path fill="none" stroke="#63b8ff" d="M748.06,-274.98C774.03,-266.16 814.81,-252.31 843.96,-242.41"/>
<polygon fill="#63b8ff" stroke="#63b8ff" points="845.4,-245.61 853.74,-239.08 843.15,-238.99 845.4,-245.61"/>
</a>
</g>
</g>
<!-- Node29&#45;&gt;Node30 -->
<g id="edge62_Node000029_Node000030" class="edge">
<title>Node29&#45;&gt;Node30</title>
<g id="a_edge62_Node000029_Node000030"><a xlink:title=" ">
<path fill="none" stroke="#63b8ff" d="M665.8,-274.98C602.71,-265.59 501.27,-250.49 434.37,-240.53"/>
<polygon fill="#63b8ff" stroke="#63b8ff" points="434.76,-237.05 424.35,-239.04 433.73,-243.97 434.76,-237.05"/>
</a>
</g>
</g>
<!-- Node31 -->
<g id="Node000031" class="node">
<title>Node31</title>
<g id="a_Node000031"><a xlink:title=" ">
<polygon fill="#e0e0e0" stroke="#999999" points="769.5,-239 676.5,-239 676.5,-220 769.5,-220 769.5,-239"/>
<text text-anchor="middle" x="723" y="-227" font-family="Helvetica,sans-Serif" font-size="10.00">QNetworkReply</text>
</a>
</g>
</g>
<!-- Node29&#45;&gt;Node31 -->
<g id="edge63_Node000029_Node000031" class="edge">
<title>Node29&#45;&gt;Node31</title>
<g id="a_edge63_Node000029_Node000031"><a xlink:title=" ">
<path fill="none" stroke="#63b8ff" d="M723,-274.75C723,-267.8 723,-257.85 723,-249.13"/>
<polygon fill="#63b8ff" stroke="#63b8ff" points="726.5,-249.09 723,-239.09 719.5,-249.09 726.5,-249.09"/>
</a>
</g>
</g>
<!-- Node32 -->
<g id="Node000032" class="node">
<title>Node32</title>
<g id="a_Node000032"><a xlink:title=" ">
<polygon fill="#e0e0e0" stroke="#999999" points="569.5,-239 456.5,-239 456.5,-220 569.5,-220 569.5,-239"/>
<text text-anchor="middle" x="513" y="-227" font-family="Helvetica,sans-Serif" font-size="10.00">QRandomGenerator</text>
</a>
</g>
</g>
<!-- Node29&#45;&gt;Node32 -->
<g id="edge65_Node000029_Node000032" class="edge">
<title>Node29&#45;&gt;Node32</title>
<g id="a_edge65_Node000029_Node000032"><a xlink:title=" ">
<path fill="none" stroke="#63b8ff" d="M689.26,-274.98C653.32,-265.91 596.28,-251.52 556.87,-241.57"/>
<polygon fill="#63b8ff" stroke="#63b8ff" points="557.56,-238.14 547,-239.08 555.84,-244.92 557.56,-238.14"/>
</a>
</g>
</g>
<!-- Node33 -->
<g id="Node000033" class="node">
<title>Node33</title>
<g id="a_Node000033"><a xlink:title=" ">
<polygon fill="#e0e0e0" stroke="#999999" points="658,-239 588,-239 588,-220 658,-220 658,-239"/>
<text text-anchor="middle" x="623" y="-227" font-family="Helvetica,sans-Serif" font-size="10.00">QRunnable</text>
</a>
</g>
</g>
<!-- Node29&#45;&gt;Node33 -->
<g id="edge66_Node000029_Node000033" class="edge">
<title>Node29&#45;&gt;Node33</title>
<g id="a_edge66_Node000029_Node000033"><a xlink:title=" ">
<path fill="none" stroke="#63b8ff" d="M706.93,-274.98C691.14,-266.61 666.78,-253.7 648.37,-243.95"/>
<polygon fill="#63b8ff" stroke="#63b8ff" points="649.83,-240.76 639.36,-239.17 646.56,-246.95 649.83,-240.76"/>
</a>
</g>
</g>
</g>
</svg>
