<?xml version="1.0" encoding="UTF-8" standalone="no"?>
<!DOCTYPE svg PUBLIC "-//W3C//DTD SVG 1.1//EN"
 "http://www.w3.org/Graphics/SVG/1.1/DTD/svg11.dtd">
<!-- Generated by graphviz version 2.43.0 (0)
 -->
<!-- Title: core/kicad/ExporterFootprint.cpp Pages: 1 -->
<svg width="1070pt" height="302pt"
 viewBox="0.00 0.00 1070.00 302.00" xmlns="http://www.w3.org/2000/svg" xmlns:xlink="http://www.w3.org/1999/xlink">
<g id="graph0" class="graph" transform="scale(1 1) rotate(0) translate(4 298)">
<title>core/kicad/ExporterFootprint.cpp</title>
<!-- Node1 -->
<g id="Node000001" class="node">
<title>Node1</title>
<g id="a_Node000001"><a xlink:title=" ">
<polygon fill="#999999" stroke="#666666" points="780.5,-294 605.5,-294 605.5,-275 780.5,-275 780.5,-294"/>
<text text-anchor="middle" x="693" y="-282" font-family="Helvetica,sans-Serif" font-size="10.00">core/kicad/ExporterFootprint.cpp</text>
</a>
</g>
</g>
<!-- Node2 -->
<g id="Node000002" class="node">
<title>Node2</title>
<g id="a_Node000002"><a xlink:href="ExporterFootprint_8h.html" target="_top" xlink:title=" ">
<polygon fill="white" stroke="#666666" points="323,-239 213,-239 213,-220 323,-220 323,-239"/>
<text text-anchor="middle" x="268" y="-227" font-family="Helvetica,sans-Serif" font-size="10.00">ExporterFootprint.h</text>
</a>
</g>
</g>
<!-- Node1&#45;&gt;Node2 -->
<g id="edge1_Node000001_Node000002" class="edge">
<title>Node1&#45;&gt;Node2</title>
<g id="a_edge1_Node000001_Node000002"><a xlink:title=" ">
<path fill="none" stroke="#63b8ff" d="M624.72,-274.98C544.55,-264.99 412.53,-248.52 333.56,-238.68"/>
<polygon fill="#63b8ff" stroke="#63b8ff" points="333.61,-235.15 323.25,-237.39 332.74,-242.1 333.61,-235.15"/>
</a>
</g>
</g>
<!-- Node12 -->
<g id="Node000012" class="node">
<title>Node12</title>
<g id="a_Node000012"><a xlink:title=" ">
<polygon fill="#e0e0e0" stroke="#999999" points="484,-184 404,-184 404,-165 484,-165 484,-184"/>
<text text-anchor="middle" x="444" y="-172" font-family="Helvetica,sans-Serif" font-size="10.00">QTextStream</text>
</a>
</g>
</g>
<!-- Node1&#45;&gt;Node12 -->
<g id="edge33_Node000001_Node000012" class="edge">
<title>Node1&#45;&gt;Node12</title>
<g id="a_edge33_Node000001_Node000012"><a xlink:title=" ">
<path fill="none" stroke="#63b8ff" d="M605.46,-277.67C546.14,-271.82 474.89,-260.48 454,-239 442.7,-227.38 441,-208.52 441.65,-194.36"/>
<polygon fill="#63b8ff" stroke="#63b8ff" points="445.15,-194.52 442.53,-184.25 438.18,-193.91 445.15,-194.52"/>
</a>
</g>
</g>
<!-- Node13 -->
<g id="Node000013" class="node">
<title>Node13</title>
<g id="a_Node000013"><a xlink:href="KiCadExportMetadata_8h.html" target="_top" xlink:title=" ">
<polygon fill="white" stroke="#666666" points="655,-129 523,-129 523,-110 655,-110 655,-129"/>
<text text-anchor="middle" x="589" y="-117" font-family="Helvetica,sans-Serif" font-size="10.00">KiCadExportMetadata.h</text>
</a>
</g>
</g>
<!-- Node1&#45;&gt;Node13 -->
<g id="edge19_Node000001_Node000013" class="edge">
<title>Node1&#45;&gt;Node13</title>
<g id="a_edge19_Node000001_Node000013"><a xlink:title=" ">
<path fill="none" stroke="#63b8ff" d="M687.41,-274.74C670.9,-248.87 622.17,-172.48 600.09,-137.88"/>
<polygon fill="#63b8ff" stroke="#63b8ff" points="602.95,-135.85 594.62,-129.31 597.05,-139.62 602.95,-135.85"/>
</a>
</g>
</g>
<!-- Node14 -->
<g id="Node000014" class="node">
<title>Node14</title>
<g id="a_Node000014"><a xlink:href="KiCadLibTable_8h.html" target="_top" xlink:title=" ">
<polygon fill="white" stroke="#666666" points="767,-129 673,-129 673,-110 767,-110 767,-129"/>
<text text-anchor="middle" x="720" y="-117" font-family="Helvetica,sans-Serif" font-size="10.00">KiCadLibTable.h</text>
</a>
</g>
</g>
<!-- Node1&#45;&gt;Node14 -->
<g id="edge21_Node000001_Node000014" class="edge">
<title>Node1&#45;&gt;Node14</title>
<g id="a_edge21_Node000001_Node000014"><a xlink:title=" ">
<path fill="none" stroke="#63b8ff" d="M693.53,-274.8C694.84,-255.09 698.73,-205.6 707,-165 708.77,-156.32 711.42,-146.89 713.86,-138.95"/>
<polygon fill="#63b8ff" stroke="#63b8ff" points="717.25,-139.85 716.97,-129.26 710.58,-137.71 717.25,-139.85"/>
</a>
</g>
</g>
<!-- Node15 -->
<g id="Node000015" class="node">
<title>Node15</title>
<g id="a_Node000015"><a xlink:href="GeometryUtils_8h.html" target="_top" xlink:title=" ">
<polygon fill="white" stroke="#666666" points="607.5,-239 462.5,-239 462.5,-220 607.5,-220 607.5,-239"/>
<text text-anchor="middle" x="535" y="-227" font-family="Helvetica,sans-Serif" font-size="10.00">core/utils/GeometryUtils.h</text>
</a>
</g>
</g>
<!-- Node1&#45;&gt;Node15 -->
<g id="edge23_Node000001_Node000015" class="edge">
<title>Node1&#45;&gt;Node15</title>
<g id="a_edge23_Node000001_Node000015"><a xlink:title=" ">
<path fill="none" stroke="#63b8ff" d="M667.61,-274.98C641.2,-266.13 599.65,-252.19 570.11,-242.28"/>
<polygon fill="#63b8ff" stroke="#63b8ff" points="571.18,-238.94 560.58,-239.08 568.95,-245.58 571.18,-238.94"/>
</a>
</g>
</g>
<!-- Node17 -->
<g id="Node000017" class="node">
<title>Node17</title>
<g id="a_Node000017"><a xlink:href="PathSecurity_8h.html" target="_top" xlink:title=" ">
<polygon fill="white" stroke="#666666" points="849.5,-239 740.5,-239 740.5,-220 849.5,-220 849.5,-239"/>
<text text-anchor="middle" x="795" y="-227" font-family="Helvetica,sans-Serif" font-size="10.00">utils/PathSecurity.h</text>
</a>
</g>
</g>
<!-- Node1&#45;&gt;Node17 -->
<g id="edge26_Node000001_Node000017" class="edge">
<title>Node1&#45;&gt;Node17</title>
<g id="a_edge26_Node000001_Node000017"><a xlink:title=" ">
<path fill="none" stroke="#63b8ff" d="M709.39,-274.98C725.57,-266.57 750.57,-253.59 769.38,-243.81"/>
<polygon fill="#63b8ff" stroke="#63b8ff" points="771.05,-246.89 778.31,-239.17 767.83,-240.68 771.05,-246.89"/>
</a>
</g>
</g>
<!-- Node18 -->
<g id="Node000018" class="node">
<title>Node18</title>
<g id="a_Node000018"><a xlink:title=" ">
<polygon fill="#e0e0e0" stroke="#999999" points="754,-184 716,-184 716,-165 754,-165 754,-184"/>
<text text-anchor="middle" x="735" y="-172" font-family="Helvetica,sans-Serif" font-size="10.00">QDir</text>
</a>
</g>
</g>
<!-- Node1&#45;&gt;Node18 -->
<g id="edge30_Node000001_Node000018" class="edge">
<title>Node1&#45;&gt;Node18</title>
<g id="a_edge30_Node000001_Node000018"><a xlink:title=" ">
<path fill="none" stroke="#63b8ff" d="M696.44,-274.66C703.3,-257.01 718.83,-217.09 727.95,-193.64"/>
<polygon fill="#63b8ff" stroke="#63b8ff" points="731.27,-194.75 731.63,-184.16 724.75,-192.21 731.27,-194.75"/>
</a>
</g>
</g>
<!-- Node19 -->
<g id="Node000019" class="node">
<title>Node19</title>
<g id="a_Node000019"><a xlink:title=" ">
<polygon fill="#e0e0e0" stroke="#999999" points="924,-239 868,-239 868,-220 924,-220 924,-239"/>
<text text-anchor="middle" x="896" y="-227" font-family="Helvetica,sans-Serif" font-size="10.00">QDebug</text>
</a>
</g>
</g>
<!-- Node1&#45;&gt;Node19 -->
<g id="edge29_Node000001_Node000019" class="edge">
<title>Node1&#45;&gt;Node19</title>
<g id="a_edge29_Node000001_Node000019"><a xlink:title=" ">
<path fill="none" stroke="#63b8ff" d="M725.62,-274.98C761.73,-265.56 819.87,-250.38 858.01,-240.42"/>
<polygon fill="#63b8ff" stroke="#63b8ff" points="858.93,-243.8 867.72,-237.88 857.16,-237.02 858.93,-243.8"/>
</a>
</g>
</g>
<!-- Node20 -->
<g id="Node000020" class="node">
<title>Node20</title>
<g id="a_Node000020"><a xlink:title=" ">
<polygon fill="#e0e0e0" stroke="#999999" points="983.5,-239 942.5,-239 942.5,-220 983.5,-220 983.5,-239"/>
<text text-anchor="middle" x="963" y="-227" font-family="Helvetica,sans-Serif" font-size="10.00">QFile</text>
</a>
</g>
</g>
<!-- Node1&#45;&gt;Node20 -->
<g id="edge31_Node000001_Node000020" class="edge">
<title>Node1&#45;&gt;Node20</title>
<g id="a_edge31_Node000001_Node000020"><a xlink:title=" ">
<path fill="none" stroke="#63b8ff" d="M747.15,-274.93C793.8,-267.22 863.09,-254.97 932.6,-238.9"/>
<polygon fill="#63b8ff" stroke="#63b8ff" points="933.47,-242.29 942.41,-236.61 931.87,-235.47 933.47,-242.29"/>
</a>
</g>
</g>
<!-- Node21 -->
<g id="Node000021" class="node">
<title>Node21</title>
<g id="a_Node000021"><a xlink:title=" ">
<polygon fill="#e0e0e0" stroke="#999999" points="1062,-239 1002,-239 1002,-220 1062,-220 1062,-239"/>
<text text-anchor="middle" x="1032" y="-227" font-family="Helvetica,sans-Serif" font-size="10.00">QFileInfo</text>
</a>
</g>
</g>
<!-- Node1&#45;&gt;Node21 -->
<g id="edge32_Node000001_Node000021" class="edge">
<title>Node1&#45;&gt;Node21</title>
<g id="a_edge32_Node000001_Node000021"><a xlink:title=" ">
<path fill="none" stroke="#63b8ff" d="M759.35,-274.96C818.02,-267.12 906.14,-254.61 991.9,-239.1"/>
<polygon fill="#63b8ff" stroke="#63b8ff" points="992.6,-242.53 1001.81,-237.29 991.34,-235.64 992.6,-242.53"/>
</a>
</g>
</g>
<!-- Node3 -->
<g id="Node000003" class="node">
<title>Node3</title>
<g id="a_Node000003"><a xlink:href="FootprintGraphicsGenerator_8h.html" target="_top" xlink:title=" ">
<polygon fill="white" stroke="#666666" points="348,-184 188,-184 188,-165 348,-165 348,-184"/>
<text text-anchor="middle" x="268" y="-172" font-family="Helvetica,sans-Serif" font-size="10.00">FootprintGraphicsGenerator.h</text>
</a>
</g>
</g>
<!-- Node2&#45;&gt;Node3 -->
<g id="edge2_Node000002_Node000003" class="edge">
<title>Node2&#45;&gt;Node3</title>
<g id="a_edge2_Node000002_Node000003"><a xlink:title=" ">
<path fill="none" stroke="#63b8ff" d="M268,-219.75C268,-212.8 268,-202.85 268,-194.13"/>
<polygon fill="#63b8ff" stroke="#63b8ff" points="271.5,-194.09 268,-184.09 264.5,-194.09 271.5,-194.09"/>
</a>
</g>
</g>
<!-- Node4 -->
<g id="Node000004" class="node">
<title>Node4</title>
<g id="a_Node000004"><a xlink:href="FootprintData_8h.html" target="_top" xlink:title=" ">
<polygon fill="white" stroke="#666666" points="307.5,-129 176.5,-129 176.5,-110 307.5,-110 307.5,-129"/>
<text text-anchor="middle" x="242" y="-117" font-family="Helvetica,sans-Serif" font-size="10.00">models/FootprintData.h</text>
</a>
</g>
</g>
<!-- Node2&#45;&gt;Node4 -->
<g id="edge14_Node000002_Node000004" class="edge">
<title>Node2&#45;&gt;Node4</title>
<g id="a_edge14_Node000002_Node000004"><a xlink:title=" ">
<path fill="none" stroke="#63b8ff" d="M230.85,-219.9C211.84,-213.41 190.35,-202.37 179,-184 166.71,-164.12 190.65,-145.67 212.46,-133.84"/>
<polygon fill="#63b8ff" stroke="#63b8ff" points="214.25,-136.85 221.57,-129.18 211.07,-130.62 214.25,-136.85"/>
</a>
</g>
</g>
<!-- Node5 -->
<g id="Node000005" class="node">
<title>Node5</title>
<g id="a_Node000005"><a xlink:href="Model3DData_8h.html" target="_top" xlink:title=" ">
<polygon fill="white" stroke="#666666" points="168,-74 76,-74 76,-55 168,-55 168,-74"/>
<text text-anchor="middle" x="122" y="-62" font-family="Helvetica,sans-Serif" font-size="10.00">Model3DData.h</text>
</a>
</g>
</g>
<!-- Node2&#45;&gt;Node5 -->
<g id="edge15_Node000002_Node000005" class="edge">
<title>Node2&#45;&gt;Node5</title>
<g id="a_edge15_Node000002_Node000005"><a xlink:title=" ">
<path fill="none" stroke="#63b8ff" d="M235.02,-219.88C214.6,-213.07 189.1,-201.71 172,-184 144.43,-155.46 131.05,-109.44 125.43,-83.96"/>
<polygon fill="#63b8ff" stroke="#63b8ff" points="128.86,-83.23 123.43,-74.13 122,-84.62 128.86,-83.23"/>
</a>
</g>
</g>
<!-- Node7 -->
<g id="Node000007" class="node">
<title>Node7</title>
<g id="a_Node000007"><a xlink:title=" ">
<polygon fill="#e0e0e0" stroke="#999999" points="76,-19 0,-19 0,0 76,0 76,-19"/>
<text text-anchor="middle" x="38" y="-7" font-family="Helvetica,sans-Serif" font-size="10.00">QJsonObject</text>
</a>
</g>
</g>
<!-- Node2&#45;&gt;Node7 -->
<g id="edge16_Node000002_Node000007" class="edge">
<title>Node2&#45;&gt;Node7</title>
<g id="a_edge16_Node000002_Node000007"><a xlink:title=" ">
<path fill="none" stroke="#63b8ff" d="M236.03,-219.94C212.38,-212.68 180.06,-200.76 155,-184 98.57,-146.25 79.7,-134.56 49,-74 41.96,-60.11 39.32,-42.54 38.38,-29.41"/>
<polygon fill="#63b8ff" stroke="#63b8ff" points="41.87,-29.05 37.93,-19.22 34.88,-29.36 41.87,-29.05"/>
</a>
</g>
</g>
<!-- Node8 -->
<g id="Node000008" class="node">
<title>Node8</title>
<g id="a_Node000008"><a xlink:title=" ">
<polygon fill="#e0e0e0" stroke="#999999" points="521.5,-19 468.5,-19 468.5,0 521.5,0 521.5,-19"/>
<text text-anchor="middle" x="495" y="-7" font-family="Helvetica,sans-Serif" font-size="10.00">QString</text>
</a>
</g>
</g>
<!-- Node2&#45;&gt;Node8 -->
<g id="edge17_Node000002_Node000008" class="edge">
<title>Node2&#45;&gt;Node8</title>
<g id="a_edge17_Node000002_Node000008"><a xlink:title=" ">
<path fill="none" stroke="#63b8ff" d="M290.44,-219.87C309.21,-212.07 336.19,-199.44 357,-184 411.02,-143.9 421.66,-128.58 461,-74 471.38,-59.59 480.71,-41.62 486.96,-28.48"/>
<polygon fill="#63b8ff" stroke="#63b8ff" points="490.26,-29.68 491.27,-19.14 483.9,-26.75 490.26,-29.68"/>
</a>
</g>
</g>
<!-- Node2&#45;&gt;Node12 -->
<g id="edge18_Node000002_Node000012" class="edge">
<title>Node2&#45;&gt;Node12</title>
<g id="a_edge18_Node000002_Node000012"><a xlink:title=" ">
<path fill="none" stroke="#63b8ff" d="M296.28,-219.98C325.95,-211.05 372.79,-196.94 405.75,-187.02"/>
<polygon fill="#63b8ff" stroke="#63b8ff" points="406.93,-190.32 415.5,-184.08 404.92,-183.61 406.93,-190.32"/>
</a>
</g>
</g>
<!-- Node3&#45;&gt;Node4 -->
<g id="edge3_Node000003_Node000004" class="edge">
<title>Node3&#45;&gt;Node4</title>
<g id="a_edge3_Node000003_Node000004"><a xlink:title=" ">
<path fill="none" stroke="#63b8ff" d="M263.71,-164.75C260.19,-157.57 255.09,-147.18 250.72,-138.27"/>
<polygon fill="#63b8ff" stroke="#63b8ff" points="253.76,-136.53 246.21,-129.09 247.48,-139.61 253.76,-136.53"/>
</a>
</g>
</g>
<!-- Node3&#45;&gt;Node8 -->
<g id="edge13_Node000003_Node000008" class="edge">
<title>Node3&#45;&gt;Node8</title>
<g id="a_edge13_Node000003_Node000008"><a xlink:title=" ">
<path fill="none" stroke="#63b8ff" d="M286.81,-164.9C319.49,-149.44 388.06,-114.75 438,-74 455.14,-60.02 471.67,-40.75 482.48,-27.11"/>
<polygon fill="#63b8ff" stroke="#63b8ff" points="485.34,-29.13 488.7,-19.08 479.81,-24.84 485.34,-29.13"/>
</a>
</g>
</g>
<!-- Node4&#45;&gt;Node5 -->
<g id="edge4_Node000004_Node000005" class="edge">
<title>Node4&#45;&gt;Node5</title>
<g id="a_edge4_Node000004_Node000005"><a xlink:title=" ">
<path fill="none" stroke="#63b8ff" d="M222.72,-109.98C203.33,-101.42 173.19,-88.11 150.93,-78.28"/>
<polygon fill="#63b8ff" stroke="#63b8ff" points="152.19,-75.01 141.63,-74.17 149.36,-81.41 152.19,-75.01"/>
</a>
</g>
</g>
<!-- Node4&#45;&gt;Node7 -->
<g id="edge9_Node000004_Node000007" class="edge">
<title>Node4&#45;&gt;Node7</title>
<g id="a_edge9_Node000004_Node000007"><a xlink:title=" ">
<path fill="none" stroke="#63b8ff" d="M176.33,-115.37C140.53,-110.58 97.44,-99.42 67,-74 53.36,-62.61 45.83,-43.44 41.89,-29.13"/>
<polygon fill="#63b8ff" stroke="#63b8ff" points="45.28,-28.25 39.53,-19.35 38.47,-29.89 45.28,-28.25"/>
</a>
</g>
</g>
<!-- Node4&#45;&gt;Node8 -->
<g id="edge12_Node000004_Node000008" class="edge">
<title>Node4&#45;&gt;Node8</title>
<g id="a_edge12_Node000004_Node000008"><a xlink:title=" ">
<path fill="none" stroke="#63b8ff" d="M257.99,-109.79C286.04,-94.57 343.14,-63.91 364,-55 395.34,-41.61 432.18,-29.4 458.79,-21.17"/>
<polygon fill="#63b8ff" stroke="#63b8ff" points="459.92,-24.48 468.46,-18.21 457.87,-17.79 459.92,-24.48"/>
</a>
</g>
</g>
<!-- Node9 -->
<g id="Node000009" class="node">
<title>Node9</title>
<g id="a_Node000009"><a xlink:title=" ">
<polygon fill="#e0e0e0" stroke="#999999" points="316.5,-74 245.5,-74 245.5,-55 316.5,-55 316.5,-74"/>
<text text-anchor="middle" x="281" y="-62" font-family="Helvetica,sans-Serif" font-size="10.00">QJsonArray</text>
</a>
</g>
</g>
<!-- Node4&#45;&gt;Node9 -->
<g id="edge8_Node000004_Node000009" class="edge">
<title>Node4&#45;&gt;Node9</title>
<g id="a_edge8_Node000004_Node000009"><a xlink:title=" ">
<path fill="none" stroke="#63b8ff" d="M248.44,-109.75C253.89,-102.34 261.86,-91.5 268.56,-82.41"/>
<polygon fill="#63b8ff" stroke="#63b8ff" points="271.57,-84.22 274.68,-74.09 265.93,-80.07 271.57,-84.22"/>
</a>
</g>
</g>
<!-- Node10 -->
<g id="Node000010" class="node">
<title>Node10</title>
<g id="a_Node000010"><a xlink:title=" ">
<polygon fill="#e0e0e0" stroke="#999999" points="227.5,-74 186.5,-74 186.5,-55 227.5,-55 227.5,-74"/>
<text text-anchor="middle" x="207" y="-62" font-family="Helvetica,sans-Serif" font-size="10.00">QList</text>
</a>
</g>
</g>
<!-- Node4&#45;&gt;Node10 -->
<g id="edge10_Node000004_Node000010" class="edge">
<title>Node4&#45;&gt;Node10</title>
<g id="a_edge10_Node000004_Node000010"><a xlink:title=" ">
<path fill="none" stroke="#63b8ff" d="M236.22,-109.75C231.38,-102.42 224.32,-91.73 218.36,-82.7"/>
<polygon fill="#63b8ff" stroke="#63b8ff" points="221.1,-80.5 212.67,-74.09 215.26,-84.36 221.1,-80.5"/>
</a>
</g>
</g>
<!-- Node11 -->
<g id="Node000011" class="node">
<title>Node11</title>
<g id="a_Node000011"><a xlink:title=" ">
<polygon fill="#e0e0e0" stroke="#999999" points="428.5,-74 373.5,-74 373.5,-55 428.5,-55 428.5,-74"/>
<text text-anchor="middle" x="401" y="-62" font-family="Helvetica,sans-Serif" font-size="10.00">QPointF</text>
</a>
</g>
</g>
<!-- Node4&#45;&gt;Node11 -->
<g id="edge11_Node000004_Node000011" class="edge">
<title>Node4&#45;&gt;Node11</title>
<g id="a_edge11_Node000004_Node000011"><a xlink:title=" ">
<path fill="none" stroke="#63b8ff" d="M267.55,-109.98C294.12,-101.13 335.94,-87.19 365.67,-77.28"/>
<polygon fill="#63b8ff" stroke="#63b8ff" points="366.87,-80.56 375.25,-74.08 364.66,-73.92 366.87,-80.56"/>
</a>
</g>
</g>
<!-- Node6 -->
<g id="Node000006" class="node">
<title>Node6</title>
<g id="a_Node000006"><a xlink:title=" ">
<polygon fill="#e0e0e0" stroke="#999999" points="167.5,-19 94.5,-19 94.5,0 167.5,0 167.5,-19"/>
<text text-anchor="middle" x="131" y="-7" font-family="Helvetica,sans-Serif" font-size="10.00">QByteArray</text>
</a>
</g>
</g>
<!-- Node5&#45;&gt;Node6 -->
<g id="edge5_Node000005_Node000006" class="edge">
<title>Node5&#45;&gt;Node6</title>
<g id="a_edge5_Node000005_Node000006"><a xlink:title=" ">
<path fill="none" stroke="#63b8ff" d="M123.49,-54.75C124.67,-47.8 126.36,-37.85 127.84,-29.13"/>
<polygon fill="#63b8ff" stroke="#63b8ff" points="131.32,-29.53 129.54,-19.09 124.42,-28.36 131.32,-29.53"/>
</a>
</g>
</g>
<!-- Node5&#45;&gt;Node7 -->
<g id="edge6_Node000005_Node000007" class="edge">
<title>Node5&#45;&gt;Node7</title>
<g id="a_edge6_Node000005_Node000007"><a xlink:title=" ">
<path fill="none" stroke="#63b8ff" d="M108.5,-54.98C95.6,-46.84 75.9,-34.41 60.6,-24.76"/>
<polygon fill="#63b8ff" stroke="#63b8ff" points="62.07,-21.55 51.74,-19.17 58.33,-27.47 62.07,-21.55"/>
</a>
</g>
</g>
<!-- Node5&#45;&gt;Node8 -->
<g id="edge7_Node000005_Node000008" class="edge">
<title>Node5&#45;&gt;Node8</title>
<g id="a_edge7_Node000005_Node000008"><a xlink:title=" ">
<path fill="none" stroke="#63b8ff" d="M168.21,-56.31C171.18,-55.86 174.13,-55.42 177,-55 278.71,-40.02 398.92,-23.53 458.18,-15.48"/>
<polygon fill="#63b8ff" stroke="#63b8ff" points="458.74,-18.93 468.18,-14.12 457.8,-12 458.74,-18.93"/>
</a>
</g>
</g>
<!-- Node13&#45;&gt;Node8 -->
<g id="edge20_Node000013_Node000008" class="edge">
<title>Node13&#45;&gt;Node8</title>
<g id="a_edge20_Node000013_Node000008"><a xlink:title=" ">
<path fill="none" stroke="#63b8ff" d="M581.31,-109.66C565.53,-91.54 529.3,-49.91 509.16,-26.77"/>
<polygon fill="#63b8ff" stroke="#63b8ff" points="511.74,-24.4 502.54,-19.16 506.46,-29 511.74,-24.4"/>
</a>
</g>
</g>
<!-- Node14&#45;&gt;Node8 -->
<g id="edge22_Node000014_Node000008" class="edge">
<title>Node14&#45;&gt;Node8</title>
<g id="a_edge22_Node000014_Node000008"><a xlink:title=" ">
<path fill="none" stroke="#63b8ff" d="M701.97,-109.84C662.54,-90.92 568.47,-45.77 521.97,-23.45"/>
<polygon fill="#63b8ff" stroke="#63b8ff" points="523.34,-20.22 512.81,-19.05 520.31,-26.53 523.34,-20.22"/>
</a>
</g>
</g>
<!-- Node15&#45;&gt;Node11 -->
<g id="edge24_Node000015_Node000011" class="edge">
<title>Node15&#45;&gt;Node11</title>
<g id="a_edge24_Node000015_Node000011"><a xlink:title=" ">
<path fill="none" stroke="#63b8ff" d="M529.98,-219.98C522.48,-207.51 507.69,-183.72 493,-165 468.47,-133.74 436.27,-100.43 417.19,-81.37"/>
<polygon fill="#63b8ff" stroke="#63b8ff" points="419.45,-78.67 409.88,-74.12 414.52,-83.65 419.45,-78.67"/>
</a>
</g>
</g>
<!-- Node16 -->
<g id="Node000016" class="node">
<title>Node16</title>
<g id="a_Node000016"><a xlink:title=" ">
<polygon fill="#e0e0e0" stroke="#999999" points="587.5,-184 540.5,-184 540.5,-165 587.5,-165 587.5,-184"/>
<text text-anchor="middle" x="564" y="-172" font-family="Helvetica,sans-Serif" font-size="10.00">cmath</text>
</a>
</g>
</g>
<!-- Node15&#45;&gt;Node16 -->
<g id="edge25_Node000015_Node000016" class="edge">
<title>Node15&#45;&gt;Node16</title>
<g id="a_edge25_Node000015_Node000016"><a xlink:title=" ">
<path fill="none" stroke="#63b8ff" d="M539.79,-219.75C543.76,-212.49 549.53,-201.95 554.43,-192.98"/>
<polygon fill="#63b8ff" stroke="#63b8ff" points="557.57,-194.54 559.3,-184.09 551.43,-191.18 557.57,-194.54"/>
</a>
</g>
</g>
<!-- Node17&#45;&gt;Node8 -->
<g id="edge28_Node000017_Node000008" class="edge">
<title>Node17&#45;&gt;Node8</title>
<g id="a_edge28_Node000017_Node000008"><a xlink:title=" ">
<path fill="none" stroke="#63b8ff" d="M796.33,-219.86C799.12,-198.52 803.2,-142.66 776,-110 714.14,-35.72 592.96,-16.86 531.95,-12.1"/>
<polygon fill="#63b8ff" stroke="#63b8ff" points="531.86,-8.58 521.64,-11.38 531.37,-15.57 531.86,-8.58"/>
</a>
</g>
</g>
<!-- Node17&#45;&gt;Node18 -->
<g id="edge27_Node000017_Node000018" class="edge">
<title>Node17&#45;&gt;Node18</title>
<g id="a_edge27_Node000017_Node000018"><a xlink:title=" ">
<path fill="none" stroke="#63b8ff" d="M785.36,-219.98C776.49,-212.15 763.13,-200.34 752.39,-190.86"/>
<polygon fill="#63b8ff" stroke="#63b8ff" points="754.63,-188.17 744.82,-184.17 749.99,-193.41 754.63,-188.17"/>
</a>
</g>
</g>
</g>
</svg>
