<?xml version="1.0" encoding="UTF-8" standalone="no"?>
<!DOCTYPE svg PUBLIC "-//W3C//DTD SVG 1.1//EN"
 "http://www.w3.org/Graphics/SVG/1.1/DTD/svg11.dtd">
<!-- Generated by graphviz version 2.43.0 (0)
 -->
<!-- Title: services/ExportService_Pipeline.h Pages: 1 -->
<svg width="551pt" height="170pt"
 viewBox="0.00 0.00 550.85 170.00" xmlns="http://www.w3.org/2000/svg" xmlns:xlink="http://www.w3.org/1999/xlink">
<g id="graph0" class="graph" transform="scale(1 1) rotate(0) translate(4 166)">
<title>services/ExportService_Pipeline.h</title>
<!-- Node1 -->
<g id="Node000001" class="node">
<title>Node1</title>
<g id="a_Node000001"><a xlink:title=" ">
<polygon fill="#999999" stroke="#666666" points="306.85,-162 178.85,-162 178.85,-132 306.85,-132 306.85,-162"/>
<text text-anchor="start" x="186.85" y="-150" font-family="Helvetica,sans-Serif" font-size="10.00">services/ExportService</text>
<text text-anchor="middle" x="242.85" y="-139" font-family="Helvetica,sans-Serif" font-size="10.00">_Pipeline.h</text>
</a>
</g>
</g>
<!-- Node2 -->
<g id="Node000002" class="node">
<title>Node2</title>
<g id="a_Node000002"><a xlink:href="main_8cpp.html" target="_top" xlink:title=" ">
<polygon fill="white" stroke="#666666" points="79.85,-24.5 17.85,-24.5 17.85,-5.5 79.85,-5.5 79.85,-24.5"/>
<text text-anchor="middle" x="48.85" y="-12.5" font-family="Helvetica,sans-Serif" font-size="10.00">main.cpp</text>
</a>
</g>
</g>
<!-- Node1&#45;&gt;Node2 -->
<g id="edge1_Node000001_Node000002" class="edge">
<title>Node1&#45;&gt;Node2</title>
<g id="a_edge1_Node000001_Node000002"><a xlink:title=" ">
<path fill="none" stroke="#63b8ff" d="M168.73,-140.39C107.04,-134 26.14,-121.02 5.85,-96 -13.02,-72.73 19.81,-39.93 37.99,-24.57"/>
<polygon fill="#63b8ff" stroke="#63b8ff" points="168.55,-143.89 178.84,-141.4 169.24,-136.93 168.55,-143.89"/>
</a>
</g>
</g>
<!-- Node3 -->
<g id="Node000003" class="node">
<title>Node3</title>
<g id="a_Node000003"><a xlink:href="ExportService__Pipeline_8cpp.html" target="_top" xlink:title=" ">
<polygon fill="white" stroke="#666666" points="142.85,-96 14.85,-96 14.85,-66 142.85,-66 142.85,-96"/>
<text text-anchor="start" x="22.85" y="-84" font-family="Helvetica,sans-Serif" font-size="10.00">services/ExportService</text>
<text text-anchor="middle" x="78.85" y="-73" font-family="Helvetica,sans-Serif" font-size="10.00">_Pipeline.cpp</text>
</a>
</g>
</g>
<!-- Node1&#45;&gt;Node3 -->
<g id="edge2_Node000001_Node000003" class="edge">
<title>Node1&#45;&gt;Node3</title>
<g id="a_edge2_Node000001_Node000003"><a xlink:title=" ">
<path fill="none" stroke="#63b8ff" d="M197.21,-128.19C171.16,-118.02 138.99,-105.47 114.76,-96.01"/>
<polygon fill="#63b8ff" stroke="#63b8ff" points="196.27,-131.58 206.86,-131.95 198.82,-125.06 196.27,-131.58"/>
</a>
</g>
</g>
<!-- Node4 -->
<g id="Node000004" class="node">
<title>Node4</title>
<g id="a_Node000004"><a xlink:href="ExportProgressViewModel_8cpp.html" target="_top" xlink:title=" ">
<polygon fill="white" stroke="#666666" points="379.85,-30 215.85,-30 215.85,0 379.85,0 379.85,-30"/>
<text text-anchor="start" x="223.85" y="-18" font-family="Helvetica,sans-Serif" font-size="10.00">ui/viewmodels/ExportProgress</text>
<text text-anchor="middle" x="297.85" y="-7" font-family="Helvetica,sans-Serif" font-size="10.00">ViewModel.cpp</text>
</a>
</g>
</g>
<!-- Node1&#45;&gt;Node4 -->
<g id="edge3_Node000001_Node000004" class="edge">
<title>Node1&#45;&gt;Node4</title>
<g id="a_edge3_Node000001_Node000004"><a xlink:title=" ">
<path fill="none" stroke="#63b8ff" d="M298.27,-127.45C312.32,-119.97 325.72,-109.75 333.85,-96 346.88,-73.98 327.3,-46.41 312.31,-30.05"/>
<polygon fill="#63b8ff" stroke="#63b8ff" points="296.44,-124.45 288.99,-131.99 299.51,-130.74 296.44,-124.45"/>
</a>
</g>
</g>
<!-- Node5 -->
<g id="Node000005" class="node">
<title>Node5</title>
<g id="a_Node000005"><a xlink:href="ExportProgressViewModel_8h.html" target="_top" xlink:title=" ">
<polygon fill="white" stroke="#666666" points="324.85,-96 160.85,-96 160.85,-66 324.85,-66 324.85,-96"/>
<text text-anchor="start" x="168.85" y="-84" font-family="Helvetica,sans-Serif" font-size="10.00">ui/viewmodels/ExportProgress</text>
<text text-anchor="middle" x="242.85" y="-73" font-family="Helvetica,sans-Serif" font-size="10.00">ViewModel.h</text>
</a>
</g>
</g>
<!-- Node1&#45;&gt;Node5 -->
<g id="edge4_Node000001_Node000005" class="edge">
<title>Node1&#45;&gt;Node5</title>
<g id="a_edge4_Node000001_Node000005"><a xlink:title=" ">
<path fill="none" stroke="#63b8ff" d="M242.85,-121.54C242.85,-112.96 242.85,-103.61 242.85,-96.16"/>
<polygon fill="#63b8ff" stroke="#63b8ff" points="239.35,-121.8 242.85,-131.8 246.35,-121.8 239.35,-121.8"/>
</a>
</g>
</g>
<!-- Node6 -->
<g id="Node000006" class="node">
<title>Node6</title>
<g id="a_Node000006"><a xlink:href="ExportSettingsViewModel_8cpp.html" target="_top" xlink:title=" ">
<polygon fill="white" stroke="#666666" points="542.85,-96 380.85,-96 380.85,-66 542.85,-66 542.85,-96"/>
<text text-anchor="start" x="388.85" y="-84" font-family="Helvetica,sans-Serif" font-size="10.00">ui/viewmodels/ExportSettings</text>
<text text-anchor="middle" x="461.85" y="-73" font-family="Helvetica,sans-Serif" font-size="10.00">ViewModel.cpp</text>
</a>
</g>
</g>
<!-- Node1&#45;&gt;Node6 -->
<g id="edge7_Node000001_Node000006" class="edge">
<title>Node1&#45;&gt;Node6</title>
<g id="a_edge7_Node000001_Node000006"><a xlink:title=" ">
<path fill="none" stroke="#63b8ff" d="M300.61,-129.12C335.92,-118.8 380.55,-105.76 413.9,-96.01"/>
<polygon fill="#63b8ff" stroke="#63b8ff" points="299.53,-125.79 290.91,-131.95 301.49,-132.51 299.53,-125.79"/>
</a>
</g>
</g>
<!-- Node5&#45;&gt;Node2 -->
<g id="edge5_Node000005_Node000002" class="edge">
<title>Node5&#45;&gt;Node2</title>
<g id="a_edge5_Node000005_Node000002"><a xlink:title=" ">
<path fill="none" stroke="#63b8ff" d="M190.52,-62.74C153.01,-50.36 104.11,-34.23 74.67,-24.52"/>
<polygon fill="#63b8ff" stroke="#63b8ff" points="189.68,-66.15 200.28,-65.95 191.88,-59.5 189.68,-66.15"/>
</a>
</g>
</g>
<!-- Node5&#45;&gt;Node4 -->
<g id="edge6_Node000005_Node000004" class="edge">
<title>Node5&#45;&gt;Node4</title>
<g id="a_edge6_Node000005_Node000004"><a xlink:title=" ">
<path fill="none" stroke="#63b8ff" d="M261.68,-58.09C269.62,-48.85 278.64,-38.36 285.68,-30.16"/>
<polygon fill="#63b8ff" stroke="#63b8ff" points="258.92,-55.93 255.06,-65.8 264.23,-60.49 258.92,-55.93"/>
</a>
</g>
</g>
</g>
</svg>
