<?xml version="1.0" encoding="UTF-8" standalone="no"?>
<!DOCTYPE svg PUBLIC "-//W3C//DTD SVG 1.1//EN"
 "http://www.w3.org/Graphics/SVG/1.1/DTD/svg11.dtd">
<!-- Generated by graphviz version 2.43.0 (0)
 -->
<!-- Title: core/kicad/Exporter3DModel.cpp Pages: 1 -->
<svg width="2139pt" height="247pt"
 viewBox="0.00 0.00 2138.50 247.00" xmlns="http://www.w3.org/2000/svg" xmlns:xlink="http://www.w3.org/1999/xlink">
<g id="graph0" class="graph" transform="scale(1 1) rotate(0) translate(4 243)">
<title>core/kicad/Exporter3DModel.cpp</title>
<!-- Node1 -->
<g id="Node000001" class="node">
<title>Node1</title>
<g id="a_Node000001"><a xlink:title=" ">
<polygon fill="#999999" stroke="#666666" points="1770,-239 1595,-239 1595,-220 1770,-220 1770,-239"/>
<text text-anchor="middle" x="1682.5" y="-227" font-family="Helvetica,sans-Serif" font-size="10.00">core/kicad/Exporter3DModel.cpp</text>
</a>
</g>
</g>
<!-- Node2 -->
<g id="Node000002" class="node">
<title>Node2</title>
<g id="a_Node000002"><a xlink:href="Exporter3DModel_8h.html" target="_top" xlink:title=" ">
<polygon fill="white" stroke="#666666" points="252.5,-129 142.5,-129 142.5,-110 252.5,-110 252.5,-129"/>
<text text-anchor="middle" x="197.5" y="-117" font-family="Helvetica,sans-Serif" font-size="10.00">Exporter3DModel.h</text>
</a>
</g>
</g>
<!-- Node1&#45;&gt;Node2 -->
<g id="edge1_Node000001_Node000002" class="edge">
<title>Node1&#45;&gt;Node2</title>
<g id="a_edge1_Node000001_Node000002"><a xlink:title=" ">
<path fill="none" stroke="#63b8ff" d="M1594.72,-224.59C1448.4,-217.85 1145.45,-202.92 889.5,-184 658.67,-166.94 385.16,-139.78 262.59,-127.25"/>
<polygon fill="#63b8ff" stroke="#63b8ff" points="262.92,-123.76 252.61,-126.23 262.2,-130.73 262.92,-123.76"/>
</a>
</g>
</g>
<!-- Node8 -->
<g id="Node000008" class="node">
<title>Node8</title>
<g id="a_Node000008"><a xlink:href="NetworkClient_8h.html" target="_top" xlink:title=" ">
<polygon fill="white" stroke="#666666" points="1060.5,-184 898.5,-184 898.5,-165 1060.5,-165 1060.5,-184"/>
<text text-anchor="middle" x="979.5" y="-172" font-family="Helvetica,sans-Serif" font-size="10.00">core/network/NetworkClient.h</text>
</a>
</g>
</g>
<!-- Node1&#45;&gt;Node8 -->
<g id="edge9_Node000001_Node000008" class="edge">
<title>Node1&#45;&gt;Node8</title>
<g id="a_edge9_Node000001_Node000008"><a xlink:title=" ">
<path fill="none" stroke="#63b8ff" d="M1594.89,-221.89C1460.95,-211.8 1206.54,-192.62 1070.57,-182.37"/>
<polygon fill="#63b8ff" stroke="#63b8ff" points="1070.82,-178.87 1060.59,-181.61 1070.29,-185.86 1070.82,-178.87"/>
</a>
</g>
</g>
<!-- Node12 -->
<g id="Node000012" class="node">
<title>Node12</title>
<g id="a_Node000012"><a xlink:title=" ">
<polygon fill="#e0e0e0" stroke="#999999" points="1302,-19 1247,-19 1247,0 1302,0 1302,-19"/>
<text text-anchor="middle" x="1274.5" y="-7" font-family="Helvetica,sans-Serif" font-size="10.00">QVector</text>
</a>
</g>
</g>
<!-- Node1&#45;&gt;Node12 -->
<g id="edge48_Node000001_Node000012" class="edge">
<title>Node1&#45;&gt;Node12</title>
<g id="a_edge48_Node000001_Node000012"><a xlink:title=" ">
<path fill="none" stroke="#63b8ff" d="M1622.24,-219.96C1595.92,-213.68 1566.18,-202.8 1544.5,-184 1496.29,-142.21 1531.74,-94.33 1481.5,-55 1455.57,-34.7 1364.55,-21.02 1312.25,-14.64"/>
<polygon fill="#63b8ff" stroke="#63b8ff" points="1312.36,-11.12 1302.02,-13.42 1311.54,-18.08 1312.36,-11.12"/>
</a>
</g>
</g>
<!-- Node29 -->
<g id="Node000029" class="node">
<title>Node29</title>
<g id="a_Node000029"><a xlink:title=" ">
<polygon fill="#e0e0e0" stroke="#999999" points="1609.5,-184 1553.5,-184 1553.5,-165 1609.5,-165 1609.5,-184"/>
<text text-anchor="middle" x="1581.5" y="-172" font-family="Helvetica,sans-Serif" font-size="10.00">QDebug</text>
</a>
</g>
</g>
<!-- Node1&#45;&gt;Node29 -->
<g id="edge42_Node000001_Node000029" class="edge">
<title>Node1&#45;&gt;Node29</title>
<g id="a_edge42_Node000001_Node000029"><a xlink:title=" ">
<path fill="none" stroke="#63b8ff" d="M1666.27,-219.98C1650.32,-211.61 1625.72,-198.7 1607.12,-188.95"/>
<polygon fill="#63b8ff" stroke="#63b8ff" points="1608.5,-185.72 1598.02,-184.17 1605.25,-191.92 1608.5,-185.72"/>
</a>
</g>
</g>
<!-- Node30 -->
<g id="Node000030" class="node">
<title>Node30</title>
<g id="a_Node000030"><a xlink:title=" ">
<polygon fill="#e0e0e0" stroke="#999999" points="1669,-184 1628,-184 1628,-165 1669,-165 1669,-184"/>
<text text-anchor="middle" x="1648.5" y="-172" font-family="Helvetica,sans-Serif" font-size="10.00">QFile</text>
</a>
</g>
</g>
<!-- Node1&#45;&gt;Node30 -->
<g id="edge43_Node000001_Node000030" class="edge">
<title>Node1&#45;&gt;Node30</title>
<g id="a_edge43_Node000001_Node000030"><a xlink:title=" ">
<path fill="none" stroke="#63b8ff" d="M1676.89,-219.75C1672.18,-212.42 1665.33,-201.73 1659.53,-192.7"/>
<polygon fill="#63b8ff" stroke="#63b8ff" points="1662.36,-190.62 1654.01,-184.09 1656.46,-194.4 1662.36,-190.62"/>
</a>
</g>
</g>
<!-- Node31 -->
<g id="Node000031" class="node">
<title>Node31</title>
<g id="a_Node000031"><a xlink:title=" ">
<polygon fill="#e0e0e0" stroke="#999999" points="1747.5,-184 1687.5,-184 1687.5,-165 1747.5,-165 1747.5,-184"/>
<text text-anchor="middle" x="1717.5" y="-172" font-family="Helvetica,sans-Serif" font-size="10.00">QFileInfo</text>
</a>
</g>
</g>
<!-- Node1&#45;&gt;Node31 -->
<g id="edge44_Node000001_Node000031" class="edge">
<title>Node1&#45;&gt;Node31</title>
<g id="a_edge44_Node000001_Node000031"><a xlink:title=" ">
<path fill="none" stroke="#63b8ff" d="M1688.28,-219.75C1693.12,-212.42 1700.18,-201.73 1706.14,-192.7"/>
<polygon fill="#63b8ff" stroke="#63b8ff" points="1709.24,-194.36 1711.83,-184.09 1703.4,-190.5 1709.24,-194.36"/>
</a>
</g>
</g>
<!-- Node32 -->
<g id="Node000032" class="node">
<title>Node32</title>
<g id="a_Node000032"><a xlink:title=" ">
<polygon fill="#e0e0e0" stroke="#999999" points="1837,-184 1766,-184 1766,-165 1837,-165 1837,-184"/>
<text text-anchor="middle" x="1801.5" y="-172" font-family="Helvetica,sans-Serif" font-size="10.00">QJsonArray</text>
</a>
</g>
</g>
<!-- Node1&#45;&gt;Node32 -->
<g id="edge45_Node000001_Node000032" class="edge">
<title>Node1&#45;&gt;Node32</title>
<g id="a_edge45_Node000001_Node000032"><a xlink:title=" ">
<path fill="none" stroke="#63b8ff" d="M1701.62,-219.98C1720.85,-211.42 1750.73,-198.11 1772.81,-188.28"/>
<polygon fill="#63b8ff" stroke="#63b8ff" points="1774.32,-191.44 1782.03,-184.17 1771.47,-185.04 1774.32,-191.44"/>
</a>
</g>
</g>
<!-- Node33 -->
<g id="Node000033" class="node">
<title>Node33</title>
<g id="a_Node000033"><a xlink:title=" ">
<polygon fill="#e0e0e0" stroke="#999999" points="1970,-184 1855,-184 1855,-165 1970,-165 1970,-184"/>
<text text-anchor="middle" x="1912.5" y="-172" font-family="Helvetica,sans-Serif" font-size="10.00">QRegularExpression</text>
</a>
</g>
</g>
<!-- Node1&#45;&gt;Node33 -->
<g id="edge46_Node000001_Node000033" class="edge">
<title>Node1&#45;&gt;Node33</title>
<g id="a_edge46_Node000001_Node000033"><a xlink:title=" ">
<path fill="none" stroke="#63b8ff" d="M1719.45,-219.98C1759.07,-210.86 1822.09,-196.33 1865.27,-186.38"/>
<polygon fill="#63b8ff" stroke="#63b8ff" points="1866.3,-189.74 1875.26,-184.08 1864.73,-182.92 1866.3,-189.74"/>
</a>
</g>
</g>
<!-- Node34 -->
<g id="Node000034" class="node">
<title>Node34</title>
<g id="a_Node000034"><a xlink:title=" ">
<polygon fill="#e0e0e0" stroke="#999999" points="2068.5,-184 1988.5,-184 1988.5,-165 2068.5,-165 2068.5,-184"/>
<text text-anchor="middle" x="2028.5" y="-172" font-family="Helvetica,sans-Serif" font-size="10.00">QTextStream</text>
</a>
</g>
</g>
<!-- Node1&#45;&gt;Node34 -->
<g id="edge47_Node000001_Node000034" class="edge">
<title>Node1&#45;&gt;Node34</title>
<g id="a_edge47_Node000001_Node000034"><a xlink:title=" ">
<path fill="none" stroke="#63b8ff" d="M1742.01,-219.99C1799.85,-211.64 1890.44,-198.3 1978.51,-184.13"/>
<polygon fill="#63b8ff" stroke="#63b8ff" points="1979.09,-187.58 1988.4,-182.53 1977.97,-180.67 1979.09,-187.58"/>
</a>
</g>
</g>
<!-- Node35 -->
<g id="Node000035" class="node">
<title>Node35</title>
<g id="a_Node000035"><a xlink:title=" ">
<polygon fill="#e0e0e0" stroke="#999999" points="2130.5,-184 2086.5,-184 2086.5,-165 2130.5,-165 2130.5,-184"/>
<text text-anchor="middle" x="2108.5" y="-172" font-family="Helvetica,sans-Serif" font-size="10.00">limits</text>
</a>
</g>
</g>
<!-- Node1&#45;&gt;Node35 -->
<g id="edge49_Node000001_Node000035" class="edge">
<title>Node1&#45;&gt;Node35</title>
<g id="a_edge49_Node000001_Node000035"><a xlink:title=" ">
<path fill="none" stroke="#63b8ff" d="M1770.16,-222.55C1848.25,-216.35 1965.67,-204.83 2076.25,-183.96"/>
<polygon fill="#63b8ff" stroke="#63b8ff" points="2077.08,-187.37 2086.25,-182.05 2075.77,-180.49 2077.08,-187.37"/>
</a>
</g>
</g>
<!-- Node3 -->
<g id="Node000003" class="node">
<title>Node3</title>
<g id="a_Node000003"><a xlink:href="Model3DData_8h.html" target="_top" xlink:title=" ">
<polygon fill="white" stroke="#666666" points="131,-74 0,-74 0,-55 131,-55 131,-74"/>
<text text-anchor="middle" x="65.5" y="-62" font-family="Helvetica,sans-Serif" font-size="10.00">models/Model3DData.h</text>
</a>
</g>
</g>
<!-- Node2&#45;&gt;Node3 -->
<g id="edge2_Node000002_Node000003" class="edge">
<title>Node2&#45;&gt;Node3</title>
<g id="a_edge2_Node000002_Node000003"><a xlink:title=" ">
<path fill="none" stroke="#63b8ff" d="M176.29,-109.98C154.77,-101.34 121.22,-87.87 96.67,-78.02"/>
<polygon fill="#63b8ff" stroke="#63b8ff" points="97.68,-74.65 87.09,-74.17 95.07,-81.14 97.68,-74.65"/>
</a>
</g>
</g>
<!-- Node4 -->
<g id="Node000004" class="node">
<title>Node4</title>
<g id="a_Node000004"><a xlink:title=" ">
<polygon fill="#e0e0e0" stroke="#999999" points="368,-19 295,-19 295,0 368,0 368,-19"/>
<text text-anchor="middle" x="331.5" y="-7" font-family="Helvetica,sans-Serif" font-size="10.00">QByteArray</text>
</a>
</g>
</g>
<!-- Node2&#45;&gt;Node4 -->
<g id="edge6_Node000002_Node000004" class="edge">
<title>Node2&#45;&gt;Node4</title>
<g id="a_edge6_Node000002_Node000004"><a xlink:title=" ">
<path fill="none" stroke="#63b8ff" d="M197.75,-109.95C198.6,-96.55 202.13,-70.55 216.5,-55 234.37,-35.67 261.59,-24.65 285.07,-18.41"/>
<polygon fill="#63b8ff" stroke="#63b8ff" points="285.98,-21.79 294.86,-16.01 284.32,-14.99 285.98,-21.79"/>
</a>
</g>
</g>
<!-- Node6 -->
<g id="Node000006" class="node">
<title>Node6</title>
<g id="a_Node000006"><a xlink:title=" ">
<polygon fill="#e0e0e0" stroke="#999999" points="186,-19 133,-19 133,0 186,0 186,-19"/>
<text text-anchor="middle" x="159.5" y="-7" font-family="Helvetica,sans-Serif" font-size="10.00">QString</text>
</a>
</g>
</g>
<!-- Node2&#45;&gt;Node6 -->
<g id="edge8_Node000002_Node000006" class="edge">
<title>Node2&#45;&gt;Node6</title>
<g id="a_edge8_Node000002_Node000006"><a xlink:title=" ">
<path fill="none" stroke="#63b8ff" d="M194.39,-109.66C188.18,-92.01 174.13,-52.09 165.88,-28.64"/>
<polygon fill="#63b8ff" stroke="#63b8ff" points="169.17,-27.43 162.55,-19.16 162.56,-29.75 169.17,-27.43"/>
</a>
</g>
</g>
<!-- Node7 -->
<g id="Node000007" class="node">
<title>Node7</title>
<g id="a_Node000007"><a xlink:title=" ">
<polygon fill="#e0e0e0" stroke="#999999" points="281.5,-74 225.5,-74 225.5,-55 281.5,-55 281.5,-74"/>
<text text-anchor="middle" x="253.5" y="-62" font-family="Helvetica,sans-Serif" font-size="10.00">QObject</text>
</a>
</g>
</g>
<!-- Node2&#45;&gt;Node7 -->
<g id="edge7_Node000002_Node000007" class="edge">
<title>Node2&#45;&gt;Node7</title>
<g id="a_edge7_Node000002_Node000007"><a xlink:title=" ">
<path fill="none" stroke="#63b8ff" d="M206.5,-109.98C214.69,-102.23 227.01,-90.58 236.97,-81.14"/>
<polygon fill="#63b8ff" stroke="#63b8ff" points="239.48,-83.59 244.34,-74.17 234.67,-78.5 239.48,-83.59"/>
</a>
</g>
</g>
<!-- Node3&#45;&gt;Node4 -->
<g id="edge3_Node000003_Node000004" class="edge">
<title>Node3&#45;&gt;Node4</title>
<g id="a_edge3_Node000003_Node000004"><a xlink:title=" ">
<path fill="none" stroke="#63b8ff" d="M108.24,-54.98C156.6,-45.35 235.11,-29.71 284.98,-19.77"/>
<polygon fill="#63b8ff" stroke="#63b8ff" points="285.74,-23.19 294.86,-17.8 284.37,-16.32 285.74,-23.19"/>
</a>
</g>
</g>
<!-- Node5 -->
<g id="Node000005" class="node">
<title>Node5</title>
<g id="a_Node000005"><a xlink:title=" ">
<polygon fill="#e0e0e0" stroke="#999999" points="103.5,-19 27.5,-19 27.5,0 103.5,0 103.5,-19"/>
<text text-anchor="middle" x="65.5" y="-7" font-family="Helvetica,sans-Serif" font-size="10.00">QJsonObject</text>
</a>
</g>
</g>
<!-- Node3&#45;&gt;Node5 -->
<g id="edge4_Node000003_Node000005" class="edge">
<title>Node3&#45;&gt;Node5</title>
<g id="a_edge4_Node000003_Node000005"><a xlink:title=" ">
<path fill="none" stroke="#63b8ff" d="M65.5,-54.75C65.5,-47.8 65.5,-37.85 65.5,-29.13"/>
<polygon fill="#63b8ff" stroke="#63b8ff" points="69,-29.09 65.5,-19.09 62,-29.09 69,-29.09"/>
</a>
</g>
</g>
<!-- Node3&#45;&gt;Node6 -->
<g id="edge5_Node000003_Node000006" class="edge">
<title>Node3&#45;&gt;Node6</title>
<g id="a_edge5_Node000003_Node000006"><a xlink:title=" ">
<path fill="none" stroke="#63b8ff" d="M80.6,-54.98C95.32,-46.69 117.92,-33.94 135.17,-24.22"/>
<polygon fill="#63b8ff" stroke="#63b8ff" points="137.13,-27.13 144.12,-19.17 133.69,-21.03 137.13,-27.13"/>
</a>
</g>
</g>
<!-- Node8&#45;&gt;Node7 -->
<g id="edge36_Node000008_Node000007" class="edge">
<title>Node8&#45;&gt;Node7</title>
<g id="a_edge36_Node000008_Node000007"><a xlink:title=" ">
<path fill="none" stroke="#63b8ff" d="M898.22,-168.09C809.83,-161.54 664.55,-148.87 540.5,-129 450.56,-114.6 346.51,-89.41 291.76,-75.48"/>
<polygon fill="#63b8ff" stroke="#63b8ff" points="292.36,-72.02 281.8,-72.93 290.62,-78.8 292.36,-72.02"/>
</a>
</g>
</g>
<!-- Node9 -->
<g id="Node000009" class="node">
<title>Node9</title>
<g id="a_Node000009"><a xlink:href="AsyncNetworkRequest_8h.html" target="_top" xlink:title=" ">
<polygon fill="white" stroke="#666666" points="786.5,-129 650.5,-129 650.5,-110 786.5,-110 786.5,-129"/>
<text text-anchor="middle" x="718.5" y="-117" font-family="Helvetica,sans-Serif" font-size="10.00">AsyncNetworkRequest.h</text>
</a>
</g>
</g>
<!-- Node8&#45;&gt;Node9 -->
<g id="edge10_Node000008_Node000009" class="edge">
<title>Node8&#45;&gt;Node9</title>
<g id="a_edge10_Node000008_Node000009"><a xlink:title=" ">
<path fill="none" stroke="#63b8ff" d="M937.57,-164.98C892.23,-155.78 819.89,-141.09 770.85,-131.13"/>
<polygon fill="#63b8ff" stroke="#63b8ff" points="771.26,-127.64 760.76,-129.08 769.87,-134.5 771.26,-127.64"/>
</a>
</g>
</g>
<!-- Node10 -->
<g id="Node000010" class="node">
<title>Node10</title>
<g id="a_Node000010"><a xlink:href="INetworkClient_8h.html" target="_top" xlink:title=" ">
<polygon fill="white" stroke="#666666" points="1033,-74 868,-74 868,-55 1033,-55 1033,-74"/>
<text text-anchor="middle" x="950.5" y="-62" font-family="Helvetica,sans-Serif" font-size="10.00">core/network/INetworkClient.h</text>
</a>
</g>
</g>
<!-- Node8&#45;&gt;Node10 -->
<g id="edge28_Node000008_Node000010" class="edge">
<title>Node8&#45;&gt;Node10</title>
<g id="a_edge28_Node000008_Node000010"><a xlink:title=" ">
<path fill="none" stroke="#63b8ff" d="M898.34,-165.87C875.32,-159.51 852.69,-148.36 838.5,-129 819.52,-103.1 857.11,-86.27 893.76,-76.49"/>
<polygon fill="#63b8ff" stroke="#63b8ff" points="894.68,-79.87 903.52,-74.04 892.97,-73.08 894.68,-79.87"/>
</a>
</g>
</g>
<!-- Node15 -->
<g id="Node000015" class="node">
<title>Node15</title>
<g id="a_Node000015"><a xlink:title=" ">
<polygon fill="#e0e0e0" stroke="#999999" points="393,-74 300,-74 300,-55 393,-55 393,-74"/>
<text text-anchor="middle" x="346.5" y="-62" font-family="Helvetica,sans-Serif" font-size="10.00">QNetworkReply</text>
</a>
</g>
</g>
<!-- Node8&#45;&gt;Node15 -->
<g id="edge34_Node000008_Node000015" class="edge">
<title>Node8&#45;&gt;Node15</title>
<g id="a_edge34_Node000008_Node000015"><a xlink:title=" ">
<path fill="none" stroke="#63b8ff" d="M901.02,-165C832.34,-157.12 730,-144.32 641.5,-129 552.39,-113.57 449.31,-90.07 391.62,-76.41"/>
<polygon fill="#63b8ff" stroke="#63b8ff" points="392.28,-72.96 381.74,-74.06 390.66,-79.77 392.28,-72.96"/>
</a>
</g>
</g>
<!-- Node18 -->
<g id="Node000018" class="node">
<title>Node18</title>
<g id="a_Node000018"><a xlink:title=" ">
<polygon fill="#e0e0e0" stroke="#999999" points="1361,-74 1306,-74 1306,-55 1361,-55 1361,-74"/>
<text text-anchor="middle" x="1333.5" y="-62" font-family="Helvetica,sans-Serif" font-size="10.00">QMutex</text>
</a>
</g>
</g>
<!-- Node8&#45;&gt;Node18 -->
<g id="edge33_Node000008_Node000018" class="edge">
<title>Node8&#45;&gt;Node18</title>
<g id="a_edge33_Node000008_Node000018"><a xlink:title=" ">
<path fill="none" stroke="#63b8ff" d="M1060.86,-172.58C1147.59,-169.93 1277.45,-160.6 1314.5,-129 1327.35,-118.04 1331.71,-98.78 1333.09,-84.33"/>
<polygon fill="#63b8ff" stroke="#63b8ff" points="1336.61,-84.21 1333.67,-74.03 1329.62,-83.82 1336.61,-84.21"/>
</a>
</g>
</g>
<!-- Node19 -->
<g id="Node000019" class="node">
<title>Node19</title>
<g id="a_Node000019"><a xlink:title=" ">
<polygon fill="#e0e0e0" stroke="#999999" points="1156,-74 1051,-74 1051,-55 1156,-55 1156,-74"/>
<text text-anchor="middle" x="1103.5" y="-62" font-family="Helvetica,sans-Serif" font-size="10.00">QNetworkRequest</text>
</a>
</g>
</g>
<!-- Node8&#45;&gt;Node19 -->
<g id="edge35_Node000008_Node000019" class="edge">
<title>Node8&#45;&gt;Node19</title>
<g id="a_edge35_Node000008_Node000019"><a xlink:title=" ">
<path fill="none" stroke="#63b8ff" d="M939.98,-164.92C902.45,-154.95 854.74,-136.44 876.5,-110 881.8,-103.56 975.8,-86.74 1041.16,-75.72"/>
<polygon fill="#63b8ff" stroke="#63b8ff" points="1042.1,-79.12 1051.38,-74.01 1040.94,-72.21 1042.1,-79.12"/>
</a>
</g>
</g>
<!-- Node20 -->
<g id="Node000020" class="node">
<title>Node20</title>
<g id="a_Node000020"><a xlink:title=" ">
<polygon fill="#e0e0e0" stroke="#999999" points="1287,-74 1174,-74 1174,-55 1287,-55 1287,-74"/>
<text text-anchor="middle" x="1230.5" y="-62" font-family="Helvetica,sans-Serif" font-size="10.00">QRandomGenerator</text>
</a>
</g>
</g>
<!-- Node8&#45;&gt;Node20 -->
<g id="edge39_Node000008_Node000020" class="edge">
<title>Node8&#45;&gt;Node20</title>
<g id="a_edge39_Node000008_Node000020"><a xlink:title=" ">
<path fill="none" stroke="#63b8ff" d="M957.53,-164.91C930.91,-153.27 891.79,-131.49 910.5,-110 912.58,-107.61 1070.68,-86.49 1163.84,-74.22"/>
<polygon fill="#63b8ff" stroke="#63b8ff" points="1164.3,-77.69 1173.76,-72.92 1163.39,-70.75 1164.3,-77.69"/>
</a>
</g>
</g>
<!-- Node22 -->
<g id="Node000022" class="node">
<title>Node22</title>
<g id="a_Node000022"><a xlink:href="TestableSingleton_8h.html" target="_top" xlink:title=" ">
<polygon fill="white" stroke="#666666" points="1497.5,-129 1361.5,-129 1361.5,-110 1497.5,-110 1497.5,-129"/>
<text text-anchor="middle" x="1429.5" y="-117" font-family="Helvetica,sans-Serif" font-size="10.00">utils/TestableSingleton.h</text>
</a>
</g>
</g>
<!-- Node8&#45;&gt;Node22 -->
<g id="edge29_Node000008_Node000022" class="edge">
<title>Node8&#45;&gt;Node22</title>
<g id="a_edge29_Node000008_Node000022"><a xlink:title=" ">
<path fill="none" stroke="#63b8ff" d="M1051.8,-164.98C1133.81,-155.33 1267.06,-139.63 1351.4,-129.7"/>
<polygon fill="#63b8ff" stroke="#63b8ff" points="1351.91,-133.16 1361.43,-128.52 1351.09,-126.21 1351.91,-133.16"/>
</a>
</g>
</g>
<!-- Node24 -->
<g id="Node000024" class="node">
<title>Node24</title>
<g id="a_Node000024"><a xlink:title=" ">
<polygon fill="#e0e0e0" stroke="#999999" points="968,-129 919,-129 919,-110 968,-110 968,-129"/>
<text text-anchor="middle" x="943.5" y="-117" font-family="Helvetica,sans-Serif" font-size="10.00">QHash</text>
</a>
</g>
</g>
<!-- Node8&#45;&gt;Node24 -->
<g id="edge32_Node000008_Node000024" class="edge">
<title>Node8&#45;&gt;Node24</title>
<g id="a_edge32_Node000008_Node000024"><a xlink:title=" ">
<path fill="none" stroke="#63b8ff" d="M973.56,-164.75C968.52,-157.34 961.16,-146.5 954.99,-137.41"/>
<polygon fill="#63b8ff" stroke="#63b8ff" points="957.85,-135.39 949.33,-129.09 952.06,-139.33 957.85,-135.39"/>
</a>
</g>
</g>
<!-- Node25 -->
<g id="Node000025" class="node">
<title>Node25</title>
<g id="a_Node000025"><a xlink:title=" ">
<polygon fill="#e0e0e0" stroke="#999999" points="1045,-129 986,-129 986,-110 1045,-110 1045,-129"/>
<text text-anchor="middle" x="1015.5" y="-117" font-family="Helvetica,sans-Serif" font-size="10.00">QPointer</text>
</a>
</g>
</g>
<!-- Node8&#45;&gt;Node25 -->
<g id="edge37_Node000008_Node000025" class="edge">
<title>Node8&#45;&gt;Node25</title>
<g id="a_edge37_Node000008_Node000025"><a xlink:title=" ">
<path fill="none" stroke="#63b8ff" d="M985.44,-164.75C990.48,-157.34 997.84,-146.5 1004.01,-137.41"/>
<polygon fill="#63b8ff" stroke="#63b8ff" points="1006.94,-139.33 1009.67,-129.09 1001.15,-135.39 1006.94,-139.33"/>
</a>
</g>
</g>
<!-- Node26 -->
<g id="Node000026" class="node">
<title>Node26</title>
<g id="a_Node000026"><a xlink:title=" ">
<polygon fill="#e0e0e0" stroke="#999999" points="1119.5,-129 1063.5,-129 1063.5,-110 1119.5,-110 1119.5,-129"/>
<text text-anchor="middle" x="1091.5" y="-117" font-family="Helvetica,sans-Serif" font-size="10.00">QQueue</text>
</a>
</g>
</g>
<!-- Node8&#45;&gt;Node26 -->
<g id="edge38_Node000008_Node000026" class="edge">
<title>Node8&#45;&gt;Node26</title>
<g id="a_edge38_Node000008_Node000026"><a xlink:title=" ">
<path fill="none" stroke="#63b8ff" d="M997.49,-164.98C1015.43,-156.5 1043.22,-143.35 1063.93,-133.54"/>
<polygon fill="#63b8ff" stroke="#63b8ff" points="1065.64,-136.61 1073.18,-129.17 1062.64,-130.28 1065.64,-136.61"/>
</a>
</g>
</g>
<!-- Node27 -->
<g id="Node000027" class="node">
<title>Node27</title>
<g id="a_Node000027"><a xlink:title=" ">
<polygon fill="#e0e0e0" stroke="#999999" points="1195.5,-129 1137.5,-129 1137.5,-110 1195.5,-110 1195.5,-129"/>
<text text-anchor="middle" x="1166.5" y="-117" font-family="Helvetica,sans-Serif" font-size="10.00">QThread</text>
</a>
</g>
</g>
<!-- Node8&#45;&gt;Node27 -->
<g id="edge40_Node000008_Node000027" class="edge">
<title>Node8&#45;&gt;Node27</title>
<g id="a_edge40_Node000008_Node000027"><a xlink:title=" ">
<path fill="none" stroke="#63b8ff" d="M1009.54,-164.98C1041.59,-155.9 1092.46,-141.49 1127.55,-131.54"/>
<polygon fill="#63b8ff" stroke="#63b8ff" points="1128.79,-134.83 1137.45,-128.73 1126.88,-128.09 1128.79,-134.83"/>
</a>
</g>
</g>
<!-- Node28 -->
<g id="Node000028" class="node">
<title>Node28</title>
<g id="a_Node000028"><a xlink:title=" ">
<polygon fill="#e0e0e0" stroke="#999999" points="1305.5,-129 1213.5,-129 1213.5,-110 1305.5,-110 1305.5,-129"/>
<text text-anchor="middle" x="1259.5" y="-117" font-family="Helvetica,sans-Serif" font-size="10.00">QWaitCondition</text>
</a>
</g>
</g>
<!-- Node8&#45;&gt;Node28 -->
<g id="edge41_Node000008_Node000028" class="edge">
<title>Node8&#45;&gt;Node28</title>
<g id="a_edge41_Node000008_Node000028"><a xlink:title=" ">
<path fill="none" stroke="#63b8ff" d="M1024.49,-164.98C1073.43,-155.72 1151.7,-140.9 1204.32,-130.94"/>
<polygon fill="#63b8ff" stroke="#63b8ff" points="1204.99,-134.38 1214.16,-129.08 1203.68,-127.5 1204.99,-134.38"/>
</a>
</g>
</g>
<!-- Node9&#45;&gt;Node4 -->
<g id="edge20_Node000009_Node000004" class="edge">
<title>Node9&#45;&gt;Node4</title>
<g id="a_edge20_Node000009_Node000004"><a xlink:title=" ">
<path fill="none" stroke="#63b8ff" d="M650.5,-114.62C593.12,-109.7 509.54,-98.67 440.5,-74 422.79,-67.67 379.78,-41.25 353.39,-24.55"/>
<polygon fill="#63b8ff" stroke="#63b8ff" points="355.13,-21.51 344.82,-19.1 351.38,-27.42 355.13,-21.51"/>
</a>
</g>
</g>
<!-- Node9&#45;&gt;Node7 -->
<g id="edge24_Node000009_Node000007" class="edge">
<title>Node9&#45;&gt;Node7</title>
<g id="a_edge24_Node000009_Node000007"><a xlink:title=" ">
<path fill="none" stroke="#63b8ff" d="M650.33,-113.99C567.65,-107.95 423.93,-95.6 291.62,-73.99"/>
<polygon fill="#63b8ff" stroke="#63b8ff" points="292.15,-70.53 281.71,-72.35 291.01,-77.44 292.15,-70.53"/>
</a>
</g>
</g>
<!-- Node9&#45;&gt;Node10 -->
<g id="edge11_Node000009_Node000010" class="edge">
<title>Node9&#45;&gt;Node10</title>
<g id="a_edge11_Node000009_Node000010"><a xlink:title=" ">
<path fill="none" stroke="#63b8ff" d="M755.77,-109.98C795.82,-100.84 859.57,-86.27 903.14,-76.32"/>
<polygon fill="#63b8ff" stroke="#63b8ff" points="903.96,-79.72 912.93,-74.08 902.4,-72.9 903.96,-79.72"/>
</a>
</g>
</g>
<!-- Node11 -->
<g id="Node000011" class="node">
<title>Node11</title>
<g id="a_Node000011"><a xlink:title=" ">
<polygon fill="#e0e0e0" stroke="#999999" points="880.5,-19 842.5,-19 842.5,0 880.5,0 880.5,-19"/>
<text text-anchor="middle" x="861.5" y="-7" font-family="Helvetica,sans-Serif" font-size="10.00">QUrl</text>
</a>
</g>
</g>
<!-- Node9&#45;&gt;Node11 -->
<g id="edge27_Node000009_Node000011" class="edge">
<title>Node9&#45;&gt;Node11</title>
<g id="a_edge27_Node000009_Node000011"><a xlink:title=" ">
<path fill="none" stroke="#63b8ff" d="M749.75,-109.87C771.11,-102.82 799.14,-91.17 819.5,-74 834.46,-61.38 846.16,-42.12 853.37,-28.12"/>
<polygon fill="#63b8ff" stroke="#63b8ff" points="856.57,-29.54 857.81,-19.02 850.28,-26.47 856.57,-29.54"/>
</a>
</g>
</g>
<!-- Node14 -->
<g id="Node000014" class="node">
<title>Node14</title>
<g id="a_Node000014"><a xlink:title=" ">
<polygon fill="#e0e0e0" stroke="#999999" points="591.5,-74 449.5,-74 449.5,-55 591.5,-55 591.5,-74"/>
<text text-anchor="middle" x="520.5" y="-62" font-family="Helvetica,sans-Serif" font-size="10.00">QNetworkAccessManager</text>
</a>
</g>
</g>
<!-- Node9&#45;&gt;Node14 -->
<g id="edge17_Node000009_Node000014" class="edge">
<title>Node9&#45;&gt;Node14</title>
<g id="a_edge17_Node000009_Node000014"><a xlink:title=" ">
<path fill="none" stroke="#63b8ff" d="M686.69,-109.98C653.01,-100.97 599.7,-86.7 562.58,-76.76"/>
<polygon fill="#63b8ff" stroke="#63b8ff" points="563.13,-73.29 552.56,-74.08 561.32,-80.05 563.13,-73.29"/>
</a>
</g>
</g>
<!-- Node9&#45;&gt;Node15 -->
<g id="edge18_Node000009_Node000015" class="edge">
<title>Node9&#45;&gt;Node15</title>
<g id="a_edge18_Node000009_Node000015"><a xlink:title=" ">
<path fill="none" stroke="#63b8ff" d="M658.73,-109.98C588.4,-99.96 472.49,-83.45 403.42,-73.61"/>
<polygon fill="#63b8ff" stroke="#63b8ff" points="403.56,-70.09 393.17,-72.15 402.57,-77.02 403.56,-70.09"/>
</a>
</g>
</g>
<!-- Node16 -->
<g id="Node000016" class="node">
<title>Node16</title>
<g id="a_Node000016"><a xlink:title=" ">
<polygon fill="#e0e0e0" stroke="#999999" points="681,-74 610,-74 610,-55 681,-55 681,-74"/>
<text text-anchor="middle" x="645.5" y="-62" font-family="Helvetica,sans-Serif" font-size="10.00">QAtomicInt</text>
</a>
</g>
</g>
<!-- Node9&#45;&gt;Node16 -->
<g id="edge19_Node000009_Node000016" class="edge">
<title>Node9&#45;&gt;Node16</title>
<g id="a_edge19_Node000009_Node000016"><a xlink:title=" ">
<path fill="none" stroke="#63b8ff" d="M706.77,-109.98C695.77,-102 679.08,-89.88 665.9,-80.31"/>
<polygon fill="#63b8ff" stroke="#63b8ff" points="667.59,-77.21 657.44,-74.17 663.48,-82.88 667.59,-77.21"/>
</a>
</g>
</g>
<!-- Node17 -->
<g id="Node000017" class="node">
<title>Node17</title>
<g id="a_Node000017"><a xlink:title=" ">
<polygon fill="#e0e0e0" stroke="#999999" points="740,-74 699,-74 699,-55 740,-55 740,-74"/>
<text text-anchor="middle" x="719.5" y="-62" font-family="Helvetica,sans-Serif" font-size="10.00">QList</text>
</a>
</g>
</g>
<!-- Node9&#45;&gt;Node17 -->
<g id="edge21_Node000009_Node000017" class="edge">
<title>Node9&#45;&gt;Node17</title>
<g id="a_edge21_Node000009_Node000017"><a xlink:title=" ">
<path fill="none" stroke="#63b8ff" d="M718.67,-109.75C718.8,-102.8 718.98,-92.85 719.15,-84.13"/>
<polygon fill="#63b8ff" stroke="#63b8ff" points="722.65,-84.15 719.34,-74.09 715.65,-84.02 722.65,-84.15"/>
</a>
</g>
</g>
<!-- Node9&#45;&gt;Node18 -->
<g id="edge22_Node000009_Node000018" class="edge">
<title>Node9&#45;&gt;Node18</title>
<g id="a_edge22_Node000009_Node000018"><a xlink:title=" ">
<path fill="none" stroke="#63b8ff" d="M786.55,-114.54C913.49,-106.94 1182.96,-89.81 1295.62,-73.84"/>
<polygon fill="#63b8ff" stroke="#63b8ff" points="1296.32,-77.28 1305.71,-72.35 1295.3,-70.35 1296.32,-77.28"/>
</a>
</g>
</g>
<!-- Node9&#45;&gt;Node19 -->
<g id="edge23_Node000009_Node000019" class="edge">
<title>Node9&#45;&gt;Node19</title>
<g id="a_edge23_Node000009_Node000019"><a xlink:title=" ">
<path fill="none" stroke="#63b8ff" d="M780.92,-109.96C844,-101.33 944.58,-87.54 1041.01,-74.2"/>
<polygon fill="#63b8ff" stroke="#63b8ff" points="1041.5,-77.67 1050.93,-72.83 1040.54,-70.74 1041.5,-77.67"/>
</a>
</g>
</g>
<!-- Node9&#45;&gt;Node20 -->
<g id="edge25_Node000009_Node000020" class="edge">
<title>Node9&#45;&gt;Node20</title>
<g id="a_edge25_Node000009_Node000020"><a xlink:title=" ">
<path fill="none" stroke="#63b8ff" d="M786.73,-112.37C872.4,-104.52 1024.14,-90.13 1163.76,-74.17"/>
<polygon fill="#63b8ff" stroke="#63b8ff" points="1164.26,-77.64 1173.79,-73.02 1163.46,-70.68 1164.26,-77.64"/>
</a>
</g>
</g>
<!-- Node21 -->
<g id="Node000021" class="node">
<title>Node21</title>
<g id="a_Node000021"><a xlink:title=" ">
<polygon fill="#e0e0e0" stroke="#999999" points="811,-74 758,-74 758,-55 811,-55 811,-74"/>
<text text-anchor="middle" x="784.5" y="-62" font-family="Helvetica,sans-Serif" font-size="10.00">QTimer</text>
</a>
</g>
</g>
<!-- Node9&#45;&gt;Node21 -->
<g id="edge26_Node000009_Node000021" class="edge">
<title>Node9&#45;&gt;Node21</title>
<g id="a_edge26_Node000009_Node000021"><a xlink:title=" ">
<path fill="none" stroke="#63b8ff" d="M729.1,-109.98C738.96,-102.07 753.85,-90.11 765.72,-80.58"/>
<polygon fill="#63b8ff" stroke="#63b8ff" points="768.1,-83.16 773.7,-74.17 763.71,-77.7 768.1,-83.16"/>
</a>
</g>
</g>
<!-- Node10&#45;&gt;Node4 -->
<g id="edge12_Node000010_Node000004" class="edge">
<title>Node10&#45;&gt;Node4</title>
<g id="a_edge12_Node000010_Node000004"><a xlink:title=" ">
<path fill="none" stroke="#63b8ff" d="M867.98,-56.43C736.4,-45.17 483.23,-23.49 378.56,-14.53"/>
<polygon fill="#63b8ff" stroke="#63b8ff" points="378.58,-11.02 368.32,-13.65 377.98,-17.99 378.58,-11.02"/>
</a>
</g>
</g>
<!-- Node10&#45;&gt;Node6 -->
<g id="edge13_Node000010_Node000006" class="edge">
<title>Node10&#45;&gt;Node6</title>
<g id="a_edge13_Node000010_Node000006"><a xlink:title=" ">
<path fill="none" stroke="#63b8ff" d="M867.82,-57.98C742.07,-49.59 495.18,-33.09 285.5,-19 255.45,-16.98 221.37,-14.68 196.23,-12.98"/>
<polygon fill="#63b8ff" stroke="#63b8ff" points="196.26,-9.48 186.05,-12.3 195.79,-16.46 196.26,-9.48"/>
</a>
</g>
</g>
<!-- Node10&#45;&gt;Node11 -->
<g id="edge14_Node000010_Node000011" class="edge">
<title>Node10&#45;&gt;Node11</title>
<g id="a_edge14_Node000010_Node000011"><a xlink:title=" ">
<path fill="none" stroke="#63b8ff" d="M936.2,-54.98C922.4,-46.77 901.26,-34.18 884.99,-24.49"/>
<polygon fill="#63b8ff" stroke="#63b8ff" points="886.44,-21.28 876.06,-19.17 882.86,-27.29 886.44,-21.28"/>
</a>
</g>
</g>
<!-- Node10&#45;&gt;Node12 -->
<g id="edge15_Node000010_Node000012" class="edge">
<title>Node10&#45;&gt;Node12</title>
<g id="a_edge15_Node000010_Node000012"><a xlink:title=" ">
<path fill="none" stroke="#63b8ff" d="M1002.56,-54.98C1067.9,-44.3 1178.41,-26.22 1236.39,-16.73"/>
<polygon fill="#63b8ff" stroke="#63b8ff" points="1237.28,-20.13 1246.59,-15.07 1236.15,-13.23 1237.28,-20.13"/>
</a>
</g>
</g>
<!-- Node13 -->
<g id="Node000013" class="node">
<title>Node13</title>
<g id="a_Node000013"><a xlink:title=" ">
<polygon fill="#e0e0e0" stroke="#999999" points="980,-19 921,-19 921,0 980,0 980,-19"/>
<text text-anchor="middle" x="950.5" y="-7" font-family="Helvetica,sans-Serif" font-size="10.00">QtGlobal</text>
</a>
</g>
</g>
<!-- Node10&#45;&gt;Node13 -->
<g id="edge16_Node000010_Node000013" class="edge">
<title>Node10&#45;&gt;Node13</title>
<g id="a_edge16_Node000010_Node000013"><a xlink:title=" ">
<path fill="none" stroke="#63b8ff" d="M950.5,-54.75C950.5,-47.8 950.5,-37.85 950.5,-29.13"/>
<polygon fill="#63b8ff" stroke="#63b8ff" points="954,-29.09 950.5,-19.09 947,-29.09 954,-29.09"/>
</a>
</g>
</g>
<!-- Node22&#45;&gt;Node18 -->
<g id="edge30_Node000022_Node000018" class="edge">
<title>Node22&#45;&gt;Node18</title>
<g id="a_edge30_Node000022_Node000018"><a xlink:title=" ">
<path fill="none" stroke="#63b8ff" d="M1414.08,-109.98C1399.05,-101.69 1375.96,-88.94 1358.34,-79.22"/>
<polygon fill="#63b8ff" stroke="#63b8ff" points="1359.65,-75.94 1349.2,-74.17 1356.27,-82.07 1359.65,-75.94"/>
</a>
</g>
</g>
<!-- Node23 -->
<g id="Node000023" class="node">
<title>Node23</title>
<g id="a_Node000023"><a xlink:title=" ">
<polygon fill="#e0e0e0" stroke="#999999" points="1472.5,-74 1386.5,-74 1386.5,-55 1472.5,-55 1472.5,-74"/>
<text text-anchor="middle" x="1429.5" y="-62" font-family="Helvetica,sans-Serif" font-size="10.00">QMutexLocker</text>
</a>
</g>
</g>
<!-- Node22&#45;&gt;Node23 -->
<g id="edge31_Node000022_Node000023" class="edge">
<title>Node22&#45;&gt;Node23</title>
<g id="a_edge31_Node000022_Node000023"><a xlink:title=" ">
<path fill="none" stroke="#63b8ff" d="M1429.5,-109.75C1429.5,-102.8 1429.5,-92.85 1429.5,-84.13"/>
<polygon fill="#63b8ff" stroke="#63b8ff" points="1433,-84.09 1429.5,-74.09 1426,-84.09 1433,-84.09"/>
</a>
</g>
</g>
</g>
</svg>
