<?xml version="1.0" encoding="UTF-8" standalone="no"?>
<!DOCTYPE svg PUBLIC "-//W3C//DTD SVG 1.1//EN"
 "http://www.w3.org/Graphics/SVG/1.1/DTD/svg11.dtd">
<!-- Generated by graphviz version 2.43.0 (0)
 -->
<!-- Title: core/kicad/ExporterSymbol.cpp Pages: 1 -->
<svg width="1158pt" height="247pt"
 viewBox="0.00 0.00 1158.00 247.00" xmlns="http://www.w3.org/2000/svg" xmlns:xlink="http://www.w3.org/1999/xlink">
<g id="graph0" class="graph" transform="scale(1 1) rotate(0) translate(4 243)">
<title>core/kicad/ExporterSymbol.cpp</title>
<!-- Node1 -->
<g id="Node000001" class="node">
<title>Node1</title>
<g id="a_Node000001"><a xlink:title=" ">
<polygon fill="#999999" stroke="#666666" points="702,-239 534,-239 534,-220 702,-220 702,-239"/>
<text text-anchor="middle" x="618" y="-227" font-family="Helvetica,sans-Serif" font-size="10.00">core/kicad/ExporterSymbol.cpp</text>
</a>
</g>
</g>
<!-- Node2 -->
<g id="Node000002" class="node">
<title>Node2</title>
<g id="a_Node000002"><a xlink:href="ExporterSymbol_8h.html" target="_top" xlink:title=" ">
<polygon fill="white" stroke="#666666" points="279,-184 175,-184 175,-165 279,-165 279,-184"/>
<text text-anchor="middle" x="227" y="-172" font-family="Helvetica,sans-Serif" font-size="10.00">ExporterSymbol.h</text>
</a>
</g>
</g>
<!-- Node1&#45;&gt;Node2 -->
<g id="edge1_Node000001_Node000002" class="edge">
<title>Node1&#45;&gt;Node2</title>
<g id="a_edge1_Node000001_Node000002"><a xlink:title=" ">
<path fill="none" stroke="#63b8ff" d="M555.18,-219.98C481.99,-210.06 361.82,-193.77 288.99,-183.9"/>
<polygon fill="#63b8ff" stroke="#63b8ff" points="289.41,-180.43 279.03,-182.55 288.47,-187.36 289.41,-180.43"/>
</a>
</g>
</g>
<!-- Node11 -->
<g id="Node000011" class="node">
<title>Node11</title>
<g id="a_Node000011"><a xlink:title=" ">
<polygon fill="#e0e0e0" stroke="#999999" points="387,-129 307,-129 307,-110 387,-110 387,-129"/>
<text text-anchor="middle" x="347" y="-117" font-family="Helvetica,sans-Serif" font-size="10.00">QTextStream</text>
</a>
</g>
</g>
<!-- Node1&#45;&gt;Node11 -->
<g id="edge30_Node000001_Node000011" class="edge">
<title>Node1&#45;&gt;Node11</title>
<g id="a_edge30_Node000001_Node000011"><a xlink:title=" ">
<path fill="none" stroke="#63b8ff" d="M533.76,-224.16C491.51,-218.88 440.97,-207.64 401,-184 382,-172.76 366.46,-152.36 357.01,-137.71"/>
<polygon fill="#63b8ff" stroke="#63b8ff" points="359.92,-135.76 351.71,-129.07 353.96,-139.43 359.92,-135.76"/>
</a>
</g>
</g>
<!-- Node12 -->
<g id="Node000012" class="node">
<title>Node12</title>
<g id="a_Node000012"><a xlink:href="KiCadExportMetadata_8h.html" target="_top" xlink:title=" ">
<polygon fill="white" stroke="#666666" points="439,-74 307,-74 307,-55 439,-55 439,-74"/>
<text text-anchor="middle" x="373" y="-62" font-family="Helvetica,sans-Serif" font-size="10.00">KiCadExportMetadata.h</text>
</a>
</g>
</g>
<!-- Node1&#45;&gt;Node12 -->
<g id="edge15_Node000001_Node000012" class="edge">
<title>Node1&#45;&gt;Node12</title>
<g id="a_edge15_Node000001_Node000012"><a xlink:title=" ">
<path fill="none" stroke="#63b8ff" d="M586.36,-219.93C561.58,-212.47 526.78,-200.28 499,-184 466.35,-164.87 461.59,-154.9 434,-129 417.73,-113.72 400.17,-95.21 388.09,-82.13"/>
<polygon fill="#63b8ff" stroke="#63b8ff" points="390.35,-79.41 381.01,-74.41 385.19,-84.14 390.35,-79.41"/>
</a>
</g>
</g>
<!-- Node13 -->
<g id="Node000013" class="node">
<title>Node13</title>
<g id="a_Node000013"><a xlink:href="KiCadLibTable_8h.html" target="_top" xlink:title=" ">
<polygon fill="white" stroke="#666666" points="537,-129 443,-129 443,-110 537,-110 537,-129"/>
<text text-anchor="middle" x="490" y="-117" font-family="Helvetica,sans-Serif" font-size="10.00">KiCadLibTable.h</text>
</a>
</g>
</g>
<!-- Node1&#45;&gt;Node13 -->
<g id="edge17_Node000001_Node000013" class="edge">
<title>Node1&#45;&gt;Node13</title>
<g id="a_edge17_Node000001_Node000013"><a xlink:title=" ">
<path fill="none" stroke="#63b8ff" d="M581.45,-219.98C559.99,-213.33 533.69,-202.1 516,-184 503.91,-171.63 497.17,-152.87 493.6,-138.94"/>
<polygon fill="#63b8ff" stroke="#63b8ff" points="496.98,-138.02 491.38,-129.02 490.15,-139.55 496.98,-138.02"/>
</a>
</g>
</g>
<!-- Node14 -->
<g id="Node000014" class="node">
<title>Node14</title>
<g id="a_Node000014"><a xlink:href="GeometryUtils_8h.html" target="_top" xlink:title=" ">
<polygon fill="white" stroke="#666666" points="741.5,-184 596.5,-184 596.5,-165 741.5,-165 741.5,-184"/>
<text text-anchor="middle" x="669" y="-172" font-family="Helvetica,sans-Serif" font-size="10.00">core/utils/GeometryUtils.h</text>
</a>
</g>
</g>
<!-- Node1&#45;&gt;Node14 -->
<g id="edge19_Node000001_Node000014" class="edge">
<title>Node1&#45;&gt;Node14</title>
<g id="a_edge19_Node000001_Node000014"><a xlink:title=" ">
<path fill="none" stroke="#63b8ff" d="M626.42,-219.75C633.77,-212.11 644.63,-200.82 653.54,-191.56"/>
<polygon fill="#63b8ff" stroke="#63b8ff" points="656.32,-193.72 660.74,-184.09 651.28,-188.87 656.32,-193.72"/>
</a>
</g>
</g>
<!-- Node15 -->
<g id="Node000015" class="node">
<title>Node15</title>
<g id="a_Node000015"><a xlink:title=" ">
<polygon fill="#e0e0e0" stroke="#999999" points="640.5,-129 593.5,-129 593.5,-110 640.5,-110 640.5,-129"/>
<text text-anchor="middle" x="617" y="-117" font-family="Helvetica,sans-Serif" font-size="10.00">cmath</text>
</a>
</g>
</g>
<!-- Node1&#45;&gt;Node15 -->
<g id="edge31_Node000001_Node000015" class="edge">
<title>Node1&#45;&gt;Node15</title>
<g id="a_edge31_Node000001_Node000015"><a xlink:title=" ">
<path fill="none" stroke="#63b8ff" d="M609.79,-219.8C602.46,-211.38 592.25,-197.9 588,-184 582.93,-167.43 592.58,-149.55 602.08,-137.01"/>
<polygon fill="#63b8ff" stroke="#63b8ff" points="604.8,-139.2 608.45,-129.25 599.4,-134.76 604.8,-139.2"/>
</a>
</g>
</g>
<!-- Node16 -->
<g id="Node000016" class="node">
<title>Node16</title>
<g id="a_Node000016"><a xlink:href="SvgPathParser_8h.html" target="_top" xlink:title=" ">
<polygon fill="white" stroke="#666666" points="637,-74 495,-74 495,-55 637,-55 637,-74"/>
<text text-anchor="middle" x="566" y="-62" font-family="Helvetica,sans-Serif" font-size="10.00">core/utils/SvgPathParser.h</text>
</a>
</g>
</g>
<!-- Node1&#45;&gt;Node16 -->
<g id="edge22_Node000001_Node000016" class="edge">
<title>Node1&#45;&gt;Node16</title>
<g id="a_edge22_Node000001_Node000016"><a xlink:title=" ">
<path fill="none" stroke="#63b8ff" d="M608.62,-219.95C600.16,-211.65 588.14,-198.23 582,-184 567.8,-151.07 565.48,-108.63 565.47,-84.5"/>
<polygon fill="#63b8ff" stroke="#63b8ff" points="568.97,-84.3 565.61,-74.25 561.97,-84.2 568.97,-84.3"/>
</a>
</g>
</g>
<!-- Node17 -->
<g id="Node000017" class="node">
<title>Node17</title>
<g id="a_Node000017"><a xlink:title=" ">
<polygon fill="#e0e0e0" stroke="#999999" points="816,-184 760,-184 760,-165 816,-165 816,-184"/>
<text text-anchor="middle" x="788" y="-172" font-family="Helvetica,sans-Serif" font-size="10.00">QDebug</text>
</a>
</g>
</g>
<!-- Node1&#45;&gt;Node17 -->
<g id="edge26_Node000001_Node000017" class="edge">
<title>Node1&#45;&gt;Node17</title>
<g id="a_edge26_Node000001_Node000017"><a xlink:title=" ">
<path fill="none" stroke="#63b8ff" d="M645.31,-219.98C673.85,-211.09 718.83,-197.07 750.64,-187.15"/>
<polygon fill="#63b8ff" stroke="#63b8ff" points="751.97,-190.4 760.47,-184.08 749.88,-183.72 751.97,-190.4"/>
</a>
</g>
</g>
<!-- Node18 -->
<g id="Node000018" class="node">
<title>Node18</title>
<g id="a_Node000018"><a xlink:title=" ">
<polygon fill="#e0e0e0" stroke="#999999" points="875.5,-184 834.5,-184 834.5,-165 875.5,-165 875.5,-184"/>
<text text-anchor="middle" x="855" y="-172" font-family="Helvetica,sans-Serif" font-size="10.00">QFile</text>
</a>
</g>
</g>
<!-- Node1&#45;&gt;Node18 -->
<g id="edge27_Node000001_Node000018" class="edge">
<title>Node1&#45;&gt;Node18</title>
<g id="a_edge27_Node000001_Node000018"><a xlink:title=" ">
<path fill="none" stroke="#63b8ff" d="M661.8,-219.94C701.7,-211.94 762.44,-199.3 824.43,-184.01"/>
<polygon fill="#63b8ff" stroke="#63b8ff" points="825.53,-187.34 834.39,-181.53 823.84,-180.55 825.53,-187.34"/>
</a>
</g>
</g>
<!-- Node19 -->
<g id="Node000019" class="node">
<title>Node19</title>
<g id="a_Node000019"><a xlink:title=" ">
<polygon fill="#e0e0e0" stroke="#999999" points="954,-184 894,-184 894,-165 954,-165 954,-184"/>
<text text-anchor="middle" x="924" y="-172" font-family="Helvetica,sans-Serif" font-size="10.00">QFileInfo</text>
</a>
</g>
</g>
<!-- Node1&#45;&gt;Node19 -->
<g id="edge28_Node000001_Node000019" class="edge">
<title>Node1&#45;&gt;Node19</title>
<g id="a_edge28_Node000001_Node000019"><a xlink:title=" ">
<path fill="none" stroke="#63b8ff" d="M674.14,-219.97C726.05,-211.9 805.58,-199.05 883.77,-184.16"/>
<polygon fill="#63b8ff" stroke="#63b8ff" points="884.63,-187.56 893.8,-182.24 883.32,-180.68 884.63,-187.56"/>
</a>
</g>
</g>
<!-- Node20 -->
<g id="Node000020" class="node">
<title>Node20</title>
<g id="a_Node000020"><a xlink:title=" ">
<polygon fill="#e0e0e0" stroke="#999999" points="1087.5,-184 972.5,-184 972.5,-165 1087.5,-165 1087.5,-184"/>
<text text-anchor="middle" x="1030" y="-172" font-family="Helvetica,sans-Serif" font-size="10.00">QRegularExpression</text>
</a>
</g>
</g>
<!-- Node1&#45;&gt;Node20 -->
<g id="edge29_Node000001_Node000020" class="edge">
<title>Node1&#45;&gt;Node20</title>
<g id="a_edge29_Node000001_Node000020"><a xlink:title=" ">
<path fill="none" stroke="#63b8ff" d="M684.19,-219.98C760.5,-210.17 885.25,-194.12 962.22,-184.22"/>
<polygon fill="#63b8ff" stroke="#63b8ff" points="962.81,-187.67 972.28,-182.92 961.92,-180.73 962.81,-187.67"/>
</a>
</g>
</g>
<!-- Node21 -->
<g id="Node000021" class="node">
<title>Node21</title>
<g id="a_Node000021"><a xlink:title=" ">
<polygon fill="#e0e0e0" stroke="#999999" points="1150,-184 1106,-184 1106,-165 1150,-165 1150,-184"/>
<text text-anchor="middle" x="1128" y="-172" font-family="Helvetica,sans-Serif" font-size="10.00">limits</text>
</a>
</g>
</g>
<!-- Node1&#45;&gt;Node21 -->
<g id="edge32_Node000001_Node000021" class="edge">
<title>Node1&#45;&gt;Node21</title>
<g id="a_edge32_Node000001_Node000021"><a xlink:title=" ">
<path fill="none" stroke="#63b8ff" d="M702.11,-225.14C796.08,-220.39 952.75,-209.46 1095.91,-183.89"/>
<polygon fill="#63b8ff" stroke="#63b8ff" points="1096.54,-187.33 1105.76,-182.1 1095.29,-180.44 1096.54,-187.33"/>
</a>
</g>
</g>
<!-- Node3 -->
<g id="Node000003" class="node">
<title>Node3</title>
<g id="a_Node000003"><a xlink:href="SymbolGraphicsGenerator_8h.html" target="_top" xlink:title=" ">
<polygon fill="white" stroke="#666666" points="250.5,-129 97.5,-129 97.5,-110 250.5,-110 250.5,-129"/>
<text text-anchor="middle" x="174" y="-117" font-family="Helvetica,sans-Serif" font-size="10.00">SymbolGraphicsGenerator.h</text>
</a>
</g>
</g>
<!-- Node2&#45;&gt;Node3 -->
<g id="edge2_Node000002_Node000003" class="edge">
<title>Node2&#45;&gt;Node3</title>
<g id="a_edge2_Node000002_Node000003"><a xlink:title=" ">
<path fill="none" stroke="#63b8ff" d="M218.25,-164.75C210.53,-157.03 199.1,-145.6 189.78,-136.28"/>
<polygon fill="#63b8ff" stroke="#63b8ff" points="192.14,-133.69 182.59,-129.09 187.19,-138.64 192.14,-133.69"/>
</a>
</g>
</g>
<!-- Node4 -->
<g id="Node000004" class="node">
<title>Node4</title>
<g id="a_Node000004"><a xlink:href="SymbolData_8h.html" target="_top" xlink:title=" ">
<polygon fill="white" stroke="#666666" points="212.5,-74 87.5,-74 87.5,-55 212.5,-55 212.5,-74"/>
<text text-anchor="middle" x="150" y="-62" font-family="Helvetica,sans-Serif" font-size="10.00">models/SymbolData.h</text>
</a>
</g>
</g>
<!-- Node2&#45;&gt;Node4 -->
<g id="edge11_Node000002_Node000004" class="edge">
<title>Node2&#45;&gt;Node4</title>
<g id="a_edge11_Node000002_Node000004"><a xlink:title=" ">
<path fill="none" stroke="#63b8ff" d="M174.98,-171.36C144.33,-167.09 107.79,-156.12 88,-129 74.03,-109.86 99.23,-90.8 121.57,-78.63"/>
<polygon fill="#63b8ff" stroke="#63b8ff" points="123.25,-81.7 130.53,-74.01 120.04,-75.48 123.25,-81.7"/>
</a>
</g>
</g>
<!-- Node6 -->
<g id="Node000006" class="node">
<title>Node6</title>
<g id="a_Node000006"><a xlink:title=" ">
<polygon fill="#e0e0e0" stroke="#999999" points="76,-19 0,-19 0,0 76,0 76,-19"/>
<text text-anchor="middle" x="38" y="-7" font-family="Helvetica,sans-Serif" font-size="10.00">QJsonObject</text>
</a>
</g>
</g>
<!-- Node2&#45;&gt;Node6 -->
<g id="edge12_Node000002_Node000006" class="edge">
<title>Node2&#45;&gt;Node6</title>
<g id="a_edge12_Node000002_Node000006"><a xlink:title=" ">
<path fill="none" stroke="#63b8ff" d="M174.87,-169.4C143.75,-164.37 105.46,-153.3 80,-129 51.8,-102.09 42.51,-55.06 39.46,-29.08"/>
<polygon fill="#63b8ff" stroke="#63b8ff" points="42.94,-28.67 38.48,-19.06 35.97,-29.35 42.94,-28.67"/>
</a>
</g>
</g>
<!-- Node10 -->
<g id="Node000010" class="node">
<title>Node10</title>
<g id="a_Node000010"><a xlink:title=" ">
<polygon fill="#e0e0e0" stroke="#999999" points="363.5,-19 310.5,-19 310.5,0 363.5,0 363.5,-19"/>
<text text-anchor="middle" x="337" y="-7" font-family="Helvetica,sans-Serif" font-size="10.00">QString</text>
</a>
</g>
</g>
<!-- Node2&#45;&gt;Node10 -->
<g id="edge13_Node000002_Node000010" class="edge">
<title>Node2&#45;&gt;Node10</title>
<g id="a_edge13_Node000002_Node000010"><a xlink:title=" ">
<path fill="none" stroke="#63b8ff" d="M233.74,-164.88C240.49,-156.09 250.99,-141.95 259,-129 278.57,-97.39 276.94,-85.63 298,-55 304.9,-44.97 313.77,-34.69 321.3,-26.54"/>
<polygon fill="#63b8ff" stroke="#63b8ff" points="323.93,-28.86 328.27,-19.19 318.85,-24.04 323.93,-28.86"/>
</a>
</g>
</g>
<!-- Node2&#45;&gt;Node11 -->
<g id="edge14_Node000002_Node000011" class="edge">
<title>Node2&#45;&gt;Node11</title>
<g id="a_edge14_Node000002_Node000011"><a xlink:title=" ">
<path fill="none" stroke="#63b8ff" d="M246.28,-164.98C265.67,-156.42 295.81,-143.11 318.07,-133.28"/>
<polygon fill="#63b8ff" stroke="#63b8ff" points="319.64,-136.41 327.37,-129.17 316.81,-130.01 319.64,-136.41"/>
</a>
</g>
</g>
<!-- Node3&#45;&gt;Node4 -->
<g id="edge3_Node000003_Node000004" class="edge">
<title>Node3&#45;&gt;Node4</title>
<g id="a_edge3_Node000003_Node000004"><a xlink:title=" ">
<path fill="none" stroke="#63b8ff" d="M170.04,-109.75C166.79,-102.57 162.08,-92.18 158.05,-83.27"/>
<polygon fill="#63b8ff" stroke="#63b8ff" points="161.2,-81.75 153.89,-74.09 154.83,-84.64 161.2,-81.75"/>
</a>
</g>
</g>
<!-- Node3&#45;&gt;Node10 -->
<g id="edge10_Node000003_Node000010" class="edge">
<title>Node3&#45;&gt;Node10</title>
<g id="a_edge10_Node000003_Node000010"><a xlink:title=" ">
<path fill="none" stroke="#63b8ff" d="M185.92,-109.86C203.17,-97.44 236.18,-73.94 265,-55 281.12,-44.41 299.63,-32.98 313.85,-24.36"/>
<polygon fill="#63b8ff" stroke="#63b8ff" points="315.76,-27.3 322.51,-19.13 312.14,-21.3 315.76,-27.3"/>
</a>
</g>
</g>
<!-- Node5 -->
<g id="Node000005" class="node">
<title>Node5</title>
<g id="a_Node000005"><a xlink:title=" ">
<polygon fill="#e0e0e0" stroke="#999999" points="178.5,-19 107.5,-19 107.5,0 178.5,0 178.5,-19"/>
<text text-anchor="middle" x="143" y="-7" font-family="Helvetica,sans-Serif" font-size="10.00">QJsonArray</text>
</a>
</g>
</g>
<!-- Node4&#45;&gt;Node5 -->
<g id="edge4_Node000004_Node000005" class="edge">
<title>Node4&#45;&gt;Node5</title>
<g id="a_edge4_Node000004_Node000005"><a xlink:title=" ">
<path fill="none" stroke="#63b8ff" d="M148.84,-54.75C147.93,-47.8 146.61,-37.85 145.46,-29.13"/>
<polygon fill="#63b8ff" stroke="#63b8ff" points="148.91,-28.54 144.13,-19.09 141.97,-29.46 148.91,-28.54"/>
</a>
</g>
</g>
<!-- Node4&#45;&gt;Node6 -->
<g id="edge5_Node000004_Node000006" class="edge">
<title>Node4&#45;&gt;Node6</title>
<g id="a_edge5_Node000004_Node000006"><a xlink:title=" ">
<path fill="none" stroke="#63b8ff" d="M132.01,-54.98C114.07,-46.5 86.28,-33.35 65.57,-23.54"/>
<polygon fill="#63b8ff" stroke="#63b8ff" points="66.86,-20.28 56.32,-19.17 63.86,-26.61 66.86,-20.28"/>
</a>
</g>
</g>
<!-- Node7 -->
<g id="Node000007" class="node">
<title>Node7</title>
<g id="a_Node000007"><a xlink:title=" ">
<polygon fill="#e0e0e0" stroke="#999999" points="471.5,-19 430.5,-19 430.5,0 471.5,0 471.5,-19"/>
<text text-anchor="middle" x="451" y="-7" font-family="Helvetica,sans-Serif" font-size="10.00">QList</text>
</a>
</g>
</g>
<!-- Node4&#45;&gt;Node7 -->
<g id="edge6_Node000004_Node000007" class="edge">
<title>Node4&#45;&gt;Node7</title>
<g id="a_edge6_Node000004_Node000007"><a xlink:title=" ">
<path fill="none" stroke="#63b8ff" d="M198.36,-54.98C260.86,-43.98 367.86,-25.14 420.26,-15.91"/>
<polygon fill="#63b8ff" stroke="#63b8ff" points="421.04,-19.33 430.28,-14.15 419.82,-12.44 421.04,-19.33"/>
</a>
</g>
</g>
<!-- Node8 -->
<g id="Node000008" class="node">
<title>Node8</title>
<g id="a_Node000008"><a xlink:title=" ">
<polygon fill="#e0e0e0" stroke="#999999" points="593.5,-19 538.5,-19 538.5,0 593.5,0 593.5,-19"/>
<text text-anchor="middle" x="566" y="-7" font-family="Helvetica,sans-Serif" font-size="10.00">QPointF</text>
</a>
</g>
</g>
<!-- Node4&#45;&gt;Node8 -->
<g id="edge7_Node000004_Node000008" class="edge">
<title>Node4&#45;&gt;Node8</title>
<g id="a_edge7_Node000004_Node000008"><a xlink:title=" ">
<path fill="none" stroke="#63b8ff" d="M212.73,-55.51C300.35,-44.35 456.65,-24.43 528.27,-15.31"/>
<polygon fill="#63b8ff" stroke="#63b8ff" points="528.73,-18.78 538.21,-14.04 527.84,-11.83 528.73,-18.78"/>
</a>
</g>
</g>
<!-- Node9 -->
<g id="Node000009" class="node">
<title>Node9</title>
<g id="a_Node000009"><a xlink:title=" ">
<polygon fill="#e0e0e0" stroke="#999999" points="249,-19 197,-19 197,0 249,0 249,-19"/>
<text text-anchor="middle" x="223" y="-7" font-family="Helvetica,sans-Serif" font-size="10.00">QRectF</text>
</a>
</g>
</g>
<!-- Node4&#45;&gt;Node9 -->
<g id="edge8_Node000004_Node000009" class="edge">
<title>Node4&#45;&gt;Node9</title>
<g id="a_edge8_Node000004_Node000009"><a xlink:title=" ">
<path fill="none" stroke="#63b8ff" d="M161.73,-54.98C172.73,-47 189.42,-34.88 202.6,-25.31"/>
<polygon fill="#63b8ff" stroke="#63b8ff" points="205.02,-27.88 211.06,-19.17 200.91,-22.21 205.02,-27.88"/>
</a>
</g>
</g>
<!-- Node4&#45;&gt;Node10 -->
<g id="edge9_Node000004_Node000010" class="edge">
<title>Node4&#45;&gt;Node10</title>
<g id="a_edge9_Node000004_Node000010"><a xlink:title=" ">
<path fill="none" stroke="#63b8ff" d="M180.04,-54.98C212.84,-45.69 265.35,-30.81 300.5,-20.85"/>
<polygon fill="#63b8ff" stroke="#63b8ff" points="301.69,-24.14 310.36,-18.05 299.79,-17.41 301.69,-24.14"/>
</a>
</g>
</g>
<!-- Node12&#45;&gt;Node10 -->
<g id="edge16_Node000012_Node000010" class="edge">
<title>Node12&#45;&gt;Node10</title>
<g id="a_edge16_Node000012_Node000010"><a xlink:title=" ">
<path fill="none" stroke="#63b8ff" d="M367.06,-54.75C362.02,-47.34 354.66,-36.5 348.49,-27.41"/>
<polygon fill="#63b8ff" stroke="#63b8ff" points="351.35,-25.39 342.83,-19.09 345.56,-29.33 351.35,-25.39"/>
</a>
</g>
</g>
<!-- Node13&#45;&gt;Node10 -->
<g id="edge18_Node000013_Node000010" class="edge">
<title>Node13&#45;&gt;Node10</title>
<g id="a_edge18_Node000013_Node000010"><a xlink:title=" ">
<path fill="none" stroke="#63b8ff" d="M486.38,-109.9C480.3,-96.45 466.85,-70.37 448,-55 426.27,-37.29 396.59,-25.88 373.38,-19.06"/>
<polygon fill="#63b8ff" stroke="#63b8ff" points="374.12,-15.63 363.55,-16.32 372.25,-22.37 374.12,-15.63"/>
</a>
</g>
</g>
<!-- Node14&#45;&gt;Node8 -->
<g id="edge20_Node000014_Node000008" class="edge">
<title>Node14&#45;&gt;Node8</title>
<g id="a_edge20_Node000014_Node000008"><a xlink:title=" ">
<path fill="none" stroke="#63b8ff" d="M669.66,-164.79C670.8,-143.77 670.98,-89.44 646,-55 635.41,-40.4 618.5,-30 602.94,-22.95"/>
<polygon fill="#63b8ff" stroke="#63b8ff" points="604.08,-19.63 593.5,-18.98 601.36,-26.08 604.08,-19.63"/>
</a>
</g>
</g>
<!-- Node14&#45;&gt;Node15 -->
<g id="edge21_Node000014_Node000015" class="edge">
<title>Node14&#45;&gt;Node15</title>
<g id="a_edge21_Node000014_Node000015"><a xlink:title=" ">
<path fill="none" stroke="#63b8ff" d="M660.41,-164.75C652.84,-157.03 641.62,-145.6 632.49,-136.28"/>
<polygon fill="#63b8ff" stroke="#63b8ff" points="634.93,-133.78 625.43,-129.09 629.93,-138.68 634.93,-133.78"/>
</a>
</g>
</g>
<!-- Node16&#45;&gt;Node7 -->
<g id="edge23_Node000016_Node000007" class="edge">
<title>Node16&#45;&gt;Node7</title>
<g id="a_edge23_Node000016_Node000007"><a xlink:title=" ">
<path fill="none" stroke="#63b8ff" d="M547.52,-54.98C529.02,-46.46 500.32,-33.23 479.02,-23.41"/>
<polygon fill="#63b8ff" stroke="#63b8ff" points="480.36,-20.18 469.81,-19.17 477.43,-26.53 480.36,-20.18"/>
</a>
</g>
</g>
<!-- Node16&#45;&gt;Node8 -->
<g id="edge24_Node000016_Node000008" class="edge">
<title>Node16&#45;&gt;Node8</title>
<g id="a_edge24_Node000016_Node000008"><a xlink:title=" ">
<path fill="none" stroke="#63b8ff" d="M566,-54.75C566,-47.8 566,-37.85 566,-29.13"/>
<polygon fill="#63b8ff" stroke="#63b8ff" points="569.5,-29.09 566,-19.09 562.5,-29.09 569.5,-29.09"/>
</a>
</g>
</g>
<!-- Node16&#45;&gt;Node10 -->
<g id="edge25_Node000016_Node000010" class="edge">
<title>Node16&#45;&gt;Node10</title>
<g id="a_edge25_Node000016_Node000010"><a xlink:title=" ">
<path fill="none" stroke="#63b8ff" d="M529.21,-54.98C486.46,-45.09 416.35,-28.86 373.66,-18.98"/>
<polygon fill="#63b8ff" stroke="#63b8ff" points="374.22,-15.52 363.69,-16.68 372.64,-22.34 374.22,-15.52"/>
</a>
</g>
</g>
</g>
</svg>
