<?xml version="1.0" encoding="UTF-8" standalone="no"?>
<!DOCTYPE svg PUBLIC "-//W3C//DTD SVG 1.1//EN"
 "http://www.w3.org/Graphics/SVG/1.1/DTD/svg11.dtd">
<!-- Generated by graphviz version 2.43.0 (0)
 -->
<!-- Title: core/kicad/ExporterSymbol.h Pages: 1 -->
<svg width="603pt" height="192pt"
 viewBox="0.00 0.00 603.00 192.00" xmlns="http://www.w3.org/2000/svg" xmlns:xlink="http://www.w3.org/1999/xlink">
<g id="graph0" class="graph" transform="scale(1 1) rotate(0) translate(4 188)">
<title>core/kicad/ExporterSymbol.h</title>
<!-- Node1 -->
<g id="Node000001" class="node">
<title>Node1</title>
<g id="a_Node000001"><a xlink:title=" ">
<polygon fill="#999999" stroke="#666666" points="438.5,-184 281.5,-184 281.5,-165 438.5,-165 438.5,-184"/>
<text text-anchor="middle" x="360" y="-172" font-family="Helvetica,sans-Serif" font-size="10.00">core/kicad/ExporterSymbol.h</text>
</a>
</g>
</g>
<!-- Node2 -->
<g id="Node000002" class="node">
<title>Node2</title>
<g id="a_Node000002"><a xlink:href="SymbolGraphicsGenerator_8h.html" target="_top" xlink:title=" ">
<polygon fill="white" stroke="#666666" points="384.5,-129 231.5,-129 231.5,-110 384.5,-110 384.5,-129"/>
<text text-anchor="middle" x="308" y="-117" font-family="Helvetica,sans-Serif" font-size="10.00">SymbolGraphicsGenerator.h</text>
</a>
</g>
</g>
<!-- Node1&#45;&gt;Node2 -->
<g id="edge1_Node000001_Node000002" class="edge">
<title>Node1&#45;&gt;Node2</title>
<g id="a_edge1_Node000001_Node000002"><a xlink:title=" ">
<path fill="none" stroke="#63b8ff" d="M351.41,-164.75C343.84,-157.03 332.62,-145.6 323.49,-136.28"/>
<polygon fill="#63b8ff" stroke="#63b8ff" points="325.93,-133.78 316.43,-129.09 320.93,-138.68 325.93,-133.78"/>
</a>
</g>
</g>
<!-- Node3 -->
<g id="Node000003" class="node">
<title>Node3</title>
<g id="a_Node000003"><a xlink:href="SymbolData_8h.html" target="_top" xlink:title=" ">
<polygon fill="white" stroke="#666666" points="289.5,-74 164.5,-74 164.5,-55 289.5,-55 289.5,-74"/>
<text text-anchor="middle" x="227" y="-62" font-family="Helvetica,sans-Serif" font-size="10.00">models/SymbolData.h</text>
</a>
</g>
</g>
<!-- Node1&#45;&gt;Node3 -->
<g id="edge10_Node000001_Node000003" class="edge">
<title>Node1&#45;&gt;Node3</title>
<g id="a_edge10_Node000001_Node000003"><a xlink:title=" ">
<path fill="none" stroke="#63b8ff" d="M281.25,-165.67C258.47,-159.33 236,-148.23 222,-129 212.65,-116.16 215.36,-97.75 219.55,-84.05"/>
<polygon fill="#63b8ff" stroke="#63b8ff" points="222.97,-84.87 223.02,-74.27 216.38,-82.53 222.97,-84.87"/>
</a>
</g>
</g>
<!-- Node5 -->
<g id="Node000005" class="node">
<title>Node5</title>
<g id="a_Node000005"><a xlink:title=" ">
<polygon fill="#e0e0e0" stroke="#999999" points="76,-19 0,-19 0,0 76,0 76,-19"/>
<text text-anchor="middle" x="38" y="-7" font-family="Helvetica,sans-Serif" font-size="10.00">QJsonObject</text>
</a>
</g>
</g>
<!-- Node1&#45;&gt;Node5 -->
<g id="edge11_Node000001_Node000005" class="edge">
<title>Node1&#45;&gt;Node5</title>
<g id="a_edge11_Node000001_Node000005"><a xlink:title=" ">
<path fill="none" stroke="#63b8ff" d="M319.83,-164.95C289.34,-157.63 246.87,-145.63 212,-129 150.75,-99.79 86.82,-50.62 56.31,-25.8"/>
<polygon fill="#63b8ff" stroke="#63b8ff" points="58.24,-22.86 48.29,-19.21 53.79,-28.26 58.24,-22.86"/>
</a>
</g>
</g>
<!-- Node9 -->
<g id="Node000009" class="node">
<title>Node9</title>
<g id="a_Node000009"><a xlink:title=" ">
<polygon fill="#e0e0e0" stroke="#999999" points="439.5,-19 386.5,-19 386.5,0 439.5,0 439.5,-19"/>
<text text-anchor="middle" x="413" y="-7" font-family="Helvetica,sans-Serif" font-size="10.00">QString</text>
</a>
</g>
</g>
<!-- Node1&#45;&gt;Node9 -->
<g id="edge13_Node000001_Node000009" class="edge">
<title>Node1&#45;&gt;Node9</title>
<g id="a_edge13_Node000001_Node000009"><a xlink:title=" ">
<path fill="none" stroke="#63b8ff" d="M368.77,-164.81C376.7,-156.41 388.01,-142.94 394,-129 408.2,-95.93 411.89,-53.54 412.79,-29.46"/>
<polygon fill="#63b8ff" stroke="#63b8ff" points="416.29,-29.31 413.03,-19.23 409.29,-29.14 416.29,-29.31"/>
</a>
</g>
</g>
<!-- Node10 -->
<g id="Node000010" class="node">
<title>Node10</title>
<g id="a_Node000010"><a xlink:title=" ">
<polygon fill="#e0e0e0" stroke="#999999" points="497,-129 441,-129 441,-110 497,-110 497,-129"/>
<text text-anchor="middle" x="469" y="-117" font-family="Helvetica,sans-Serif" font-size="10.00">QObject</text>
</a>
</g>
</g>
<!-- Node1&#45;&gt;Node10 -->
<g id="edge12_Node000001_Node000010" class="edge">
<title>Node1&#45;&gt;Node10</title>
<g id="a_edge12_Node000001_Node000010"><a xlink:title=" ">
<path fill="none" stroke="#63b8ff" d="M377.51,-164.98C394.97,-156.5 422.01,-143.35 442.17,-133.54"/>
<polygon fill="#63b8ff" stroke="#63b8ff" points="443.71,-136.69 451.17,-129.17 440.64,-130.4 443.71,-136.69"/>
</a>
</g>
</g>
<!-- Node11 -->
<g id="Node000011" class="node">
<title>Node11</title>
<g id="a_Node000011"><a xlink:title=" ">
<polygon fill="#e0e0e0" stroke="#999999" points="595,-129 515,-129 515,-110 595,-110 595,-129"/>
<text text-anchor="middle" x="555" y="-117" font-family="Helvetica,sans-Serif" font-size="10.00">QTextStream</text>
</a>
</g>
</g>
<!-- Node1&#45;&gt;Node11 -->
<g id="edge14_Node000001_Node000011" class="edge">
<title>Node1&#45;&gt;Node11</title>
<g id="a_edge14_Node000001_Node000011"><a xlink:title=" ">
<path fill="none" stroke="#63b8ff" d="M391.33,-164.98C424.49,-155.97 477,-141.7 513.56,-131.76"/>
<polygon fill="#63b8ff" stroke="#63b8ff" points="514.69,-135.08 523.42,-129.08 512.86,-128.33 514.69,-135.08"/>
</a>
</g>
</g>
<!-- Node2&#45;&gt;Node3 -->
<g id="edge2_Node000002_Node000003" class="edge">
<title>Node2&#45;&gt;Node3</title>
<g id="a_edge2_Node000002_Node000003"><a xlink:title=" ">
<path fill="none" stroke="#63b8ff" d="M294.99,-109.98C282.54,-101.84 263.54,-89.41 248.79,-79.76"/>
<polygon fill="#63b8ff" stroke="#63b8ff" points="250.54,-76.72 240.25,-74.17 246.7,-82.57 250.54,-76.72"/>
</a>
</g>
</g>
<!-- Node2&#45;&gt;Node9 -->
<g id="edge9_Node000002_Node000009" class="edge">
<title>Node2&#45;&gt;Node9</title>
<g id="a_edge9_Node000002_Node000009"><a xlink:title=" ">
<path fill="none" stroke="#63b8ff" d="M316.59,-109.66C334.29,-91.46 375.04,-49.55 397.48,-26.47"/>
<polygon fill="#63b8ff" stroke="#63b8ff" points="400.12,-28.77 404.58,-19.16 395.1,-23.89 400.12,-28.77"/>
</a>
</g>
</g>
<!-- Node4 -->
<g id="Node000004" class="node">
<title>Node4</title>
<g id="a_Node000004"><a xlink:title=" ">
<polygon fill="#e0e0e0" stroke="#999999" points="165.5,-19 94.5,-19 94.5,0 165.5,0 165.5,-19"/>
<text text-anchor="middle" x="130" y="-7" font-family="Helvetica,sans-Serif" font-size="10.00">QJsonArray</text>
</a>
</g>
</g>
<!-- Node3&#45;&gt;Node4 -->
<g id="edge3_Node000003_Node000004" class="edge">
<title>Node3&#45;&gt;Node4</title>
<g id="a_edge3_Node000003_Node000004"><a xlink:title=" ">
<path fill="none" stroke="#63b8ff" d="M211.42,-54.98C196.23,-46.69 172.9,-33.94 155.1,-24.22"/>
<polygon fill="#63b8ff" stroke="#63b8ff" points="156.32,-20.89 145.87,-19.17 152.97,-27.04 156.32,-20.89"/>
</a>
</g>
</g>
<!-- Node3&#45;&gt;Node5 -->
<g id="edge4_Node000003_Node000005" class="edge">
<title>Node3&#45;&gt;Node5</title>
<g id="a_edge4_Node000003_Node000005"><a xlink:title=" ">
<path fill="none" stroke="#63b8ff" d="M196.63,-54.98C164.63,-46.01 114.04,-31.82 78.62,-21.89"/>
<polygon fill="#63b8ff" stroke="#63b8ff" points="79.18,-18.41 68.6,-19.08 77.29,-25.15 79.18,-18.41"/>
</a>
</g>
</g>
<!-- Node6 -->
<g id="Node000006" class="node">
<title>Node6</title>
<g id="a_Node000006"><a xlink:title=" ">
<polygon fill="#e0e0e0" stroke="#999999" points="224.5,-19 183.5,-19 183.5,0 224.5,0 224.5,-19"/>
<text text-anchor="middle" x="204" y="-7" font-family="Helvetica,sans-Serif" font-size="10.00">QList</text>
</a>
</g>
</g>
<!-- Node3&#45;&gt;Node6 -->
<g id="edge5_Node000003_Node000006" class="edge">
<title>Node3&#45;&gt;Node6</title>
<g id="a_edge5_Node000003_Node000006"><a xlink:title=" ">
<path fill="none" stroke="#63b8ff" d="M223.2,-54.75C220.09,-47.57 215.58,-37.18 211.71,-28.27"/>
<polygon fill="#63b8ff" stroke="#63b8ff" points="214.92,-26.87 207.73,-19.09 208.5,-29.66 214.92,-26.87"/>
</a>
</g>
</g>
<!-- Node7 -->
<g id="Node000007" class="node">
<title>Node7</title>
<g id="a_Node000007"><a xlink:title=" ">
<polygon fill="#e0e0e0" stroke="#999999" points="297.5,-19 242.5,-19 242.5,0 297.5,0 297.5,-19"/>
<text text-anchor="middle" x="270" y="-7" font-family="Helvetica,sans-Serif" font-size="10.00">QPointF</text>
</a>
</g>
</g>
<!-- Node3&#45;&gt;Node7 -->
<g id="edge6_Node000003_Node000007" class="edge">
<title>Node3&#45;&gt;Node7</title>
<g id="a_edge6_Node000003_Node000007"><a xlink:title=" ">
<path fill="none" stroke="#63b8ff" d="M234.1,-54.75C240.17,-47.26 249.09,-36.28 256.51,-27.13"/>
<polygon fill="#63b8ff" stroke="#63b8ff" points="259.45,-29.06 263.03,-19.09 254.01,-24.65 259.45,-29.06"/>
</a>
</g>
</g>
<!-- Node8 -->
<g id="Node000008" class="node">
<title>Node8</title>
<g id="a_Node000008"><a xlink:title=" ">
<polygon fill="#e0e0e0" stroke="#999999" points="368,-19 316,-19 316,0 368,0 368,-19"/>
<text text-anchor="middle" x="342" y="-7" font-family="Helvetica,sans-Serif" font-size="10.00">QRectF</text>
</a>
</g>
</g>
<!-- Node3&#45;&gt;Node8 -->
<g id="edge7_Node000003_Node000008" class="edge">
<title>Node3&#45;&gt;Node8</title>
<g id="a_edge7_Node000003_Node000008"><a xlink:title=" ">
<path fill="none" stroke="#63b8ff" d="M245.48,-54.98C263.98,-46.46 292.68,-33.23 313.98,-23.41"/>
<polygon fill="#63b8ff" stroke="#63b8ff" points="315.57,-26.53 323.19,-19.17 312.64,-20.18 315.57,-26.53"/>
</a>
</g>
</g>
<!-- Node3&#45;&gt;Node9 -->
<g id="edge8_Node000003_Node000009" class="edge">
<title>Node3&#45;&gt;Node9</title>
<g id="a_edge8_Node000003_Node000009"><a xlink:title=" ">
<path fill="none" stroke="#63b8ff" d="M256.88,-54.98C289.41,-45.72 341.44,-30.89 376.39,-20.93"/>
<polygon fill="#63b8ff" stroke="#63b8ff" points="377.55,-24.24 386.21,-18.13 375.63,-17.51 377.55,-24.24"/>
</a>
</g>
</g>
</g>
</svg>
