<?xml version="1.0" encoding="UTF-8" standalone="no"?>
<!DOCTYPE svg PUBLIC "-//W3C//DTD SVG 1.1//EN"
 "http://www.w3.org/Graphics/SVG/1.1/DTD/svg11.dtd">
<!-- Generated by graphviz version 2.43.0 (0)
 -->
<!-- Title: workers/ExportWorker.cpp Pages: 1 -->
<svg width="1336pt" height="302pt"
 viewBox="0.00 0.00 1335.58 302.00" xmlns="http://www.w3.org/2000/svg" xmlns:xlink="http://www.w3.org/1999/xlink">
<g id="graph0" class="graph" transform="scale(1 1) rotate(0) translate(4 298)">
<title>workers/ExportWorker.cpp</title>
<!-- Node1 -->
<g id="Node000001" class="node">
<title>Node1</title>
<g id="a_Node000001"><a xlink:title=" ">
<polygon fill="#999999" stroke="#666666" points="1103.5,-294 960.5,-294 960.5,-275 1103.5,-275 1103.5,-294"/>
<text text-anchor="middle" x="1032" y="-282" font-family="Helvetica,sans-Serif" font-size="10.00">workers/ExportWorker.cpp</text>
</a>
</g>
</g>
<!-- Node2 -->
<g id="Node000002" class="node">
<title>Node2</title>
<g id="a_Node000002"><a xlink:href="ExportWorker_8h.html" target="_top" xlink:title=" ">
<polygon fill="white" stroke="#666666" points="492,-239 402,-239 402,-220 492,-220 492,-239"/>
<text text-anchor="middle" x="447" y="-227" font-family="Helvetica,sans-Serif" font-size="10.00">ExportWorker.h</text>
</a>
</g>
</g>
<!-- Node1&#45;&gt;Node2 -->
<g id="edge1_Node000001_Node000002" class="edge">
<title>Node1&#45;&gt;Node2</title>
<g id="a_edge1_Node000001_Node000002"><a xlink:title=" ">
<path fill="none" stroke="#63b8ff" d="M960.17,-277.67C861.88,-269.59 679.99,-254.24 525,-239 517.73,-238.28 510.08,-237.5 502.54,-236.7"/>
<polygon fill="#63b8ff" stroke="#63b8ff" points="502.67,-233.19 492.35,-235.61 501.92,-240.15 502.67,-233.19"/>
</a>
</g>
</g>
<!-- Node17 -->
<g id="Node000017" class="node">
<title>Node17</title>
<g id="a_Node000017"><a xlink:href="Exporter3DModel_8h.html" target="_top" xlink:title=" ">
<polygon fill="white" stroke="#666666" points="698,-239 534,-239 534,-220 698,-220 698,-239"/>
<text text-anchor="middle" x="616" y="-227" font-family="Helvetica,sans-Serif" font-size="10.00">core/kicad/Exporter3DModel.h</text>
</a>
</g>
</g>
<!-- Node1&#45;&gt;Node17 -->
<g id="edge31_Node000001_Node000017" class="edge">
<title>Node1&#45;&gt;Node17</title>
<g id="a_edge31_Node000001_Node000017"><a xlink:title=" ">
<path fill="none" stroke="#63b8ff" d="M965.16,-274.98C890.98,-265.53 771.43,-250.3 693.28,-240.35"/>
<polygon fill="#63b8ff" stroke="#63b8ff" points="693.38,-236.83 683.02,-239.04 692.49,-243.77 693.38,-236.83"/>
</a>
</g>
</g>
<!-- Node18 -->
<g id="Node000018" class="node">
<title>Node18</title>
<g id="a_Node000018"><a xlink:href="ExporterFootprint_8h.html" target="_top" xlink:title=" ">
<polygon fill="white" stroke="#666666" points="908,-239 744,-239 744,-220 908,-220 908,-239"/>
<text text-anchor="middle" x="826" y="-227" font-family="Helvetica,sans-Serif" font-size="10.00">core/kicad/ExporterFootprint.h</text>
</a>
</g>
</g>
<!-- Node1&#45;&gt;Node18 -->
<g id="edge36_Node000001_Node000018" class="edge">
<title>Node1&#45;&gt;Node18</title>
<g id="a_edge36_Node000001_Node000018"><a xlink:title=" ">
<path fill="none" stroke="#63b8ff" d="M998.9,-274.98C963.72,-265.93 907.93,-251.58 869.28,-241.64"/>
<polygon fill="#63b8ff" stroke="#63b8ff" points="869.91,-238.18 859.36,-239.08 868.17,-244.96 869.91,-238.18"/>
</a>
</g>
</g>
<!-- Node21 -->
<g id="Node000021" class="node">
<title>Node21</title>
<g id="a_Node000021"><a xlink:href="ExporterSymbol_8h.html" target="_top" xlink:title=" ">
<polygon fill="white" stroke="#666666" points="1110.5,-239 953.5,-239 953.5,-220 1110.5,-220 1110.5,-239"/>
<text text-anchor="middle" x="1032" y="-227" font-family="Helvetica,sans-Serif" font-size="10.00">core/kicad/ExporterSymbol.h</text>
</a>
</g>
</g>
<!-- Node1&#45;&gt;Node21 -->
<g id="edge46_Node000001_Node000021" class="edge">
<title>Node1&#45;&gt;Node21</title>
<g id="a_edge46_Node000001_Node000021"><a xlink:title=" ">
<path fill="none" stroke="#63b8ff" d="M1032,-274.75C1032,-267.8 1032,-257.85 1032,-249.13"/>
<polygon fill="#63b8ff" stroke="#63b8ff" points="1035.5,-249.09 1032,-239.09 1028.5,-249.09 1035.5,-249.09"/>
</a>
</g>
</g>
<!-- Node23 -->
<g id="Node000023" class="node">
<title>Node23</title>
<g id="a_Node000023"><a xlink:title=" ">
<polygon fill="#e0e0e0" stroke="#999999" points="1185,-239 1129,-239 1129,-220 1185,-220 1185,-239"/>
<text text-anchor="middle" x="1157" y="-227" font-family="Helvetica,sans-Serif" font-size="10.00">QDebug</text>
</a>
</g>
</g>
<!-- Node1&#45;&gt;Node23 -->
<g id="edge55_Node000001_Node000023" class="edge">
<title>Node1&#45;&gt;Node23</title>
<g id="a_edge55_Node000001_Node000023"><a xlink:title=" ">
<path fill="none" stroke="#63b8ff" d="M1052.08,-274.98C1072.37,-266.38 1103.96,-252.99 1127.17,-243.15"/>
<polygon fill="#63b8ff" stroke="#63b8ff" points="1128.71,-246.3 1136.55,-239.17 1125.98,-239.85 1128.71,-246.3"/>
</a>
</g>
</g>
<!-- Node24 -->
<g id="Node000024" class="node">
<title>Node24</title>
<g id="a_Node000024"><a xlink:title=" ">
<polygon fill="#e0e0e0" stroke="#999999" points="1241,-239 1203,-239 1203,-220 1241,-220 1241,-239"/>
<text text-anchor="middle" x="1222" y="-227" font-family="Helvetica,sans-Serif" font-size="10.00">QDir</text>
</a>
</g>
</g>
<!-- Node1&#45;&gt;Node24 -->
<g id="edge56_Node000001_Node000024" class="edge">
<title>Node1&#45;&gt;Node24</title>
<g id="a_edge56_Node000001_Node000024"><a xlink:title=" ">
<path fill="none" stroke="#63b8ff" d="M1064.04,-274.97C1094.79,-266.72 1142.77,-253.7 1193,-239.23"/>
<polygon fill="#63b8ff" stroke="#63b8ff" points="1194.11,-242.56 1202.74,-236.42 1192.16,-235.83 1194.11,-242.56"/>
</a>
</g>
</g>
<!-- Node25 -->
<g id="Node000025" class="node">
<title>Node25</title>
<g id="a_Node000025"><a xlink:title=" ">
<polygon fill="#e0e0e0" stroke="#999999" points="1300.5,-239 1259.5,-239 1259.5,-220 1300.5,-220 1300.5,-239"/>
<text text-anchor="middle" x="1280" y="-227" font-family="Helvetica,sans-Serif" font-size="10.00">QFile</text>
</a>
</g>
</g>
<!-- Node1&#45;&gt;Node25 -->
<g id="edge57_Node000001_Node000025" class="edge">
<title>Node1&#45;&gt;Node25</title>
<g id="a_edge57_Node000001_Node000025"><a xlink:title=" ">
<path fill="none" stroke="#63b8ff" d="M1079,-274.96C1121.14,-267.06 1184.85,-254.55 1249.45,-238.98"/>
<polygon fill="#63b8ff" stroke="#63b8ff" points="1250.51,-242.32 1259.4,-236.56 1248.85,-235.52 1250.51,-242.32"/>
</a>
</g>
</g>
<!-- Node3 -->
<g id="Node000003" class="node">
<title>Node3</title>
<g id="a_Node000003"><a xlink:href="ComponentData_8h.html" target="_top" xlink:title=" ">
<polygon fill="white" stroke="#666666" points="494,-184 350,-184 350,-165 494,-165 494,-184"/>
<text text-anchor="middle" x="422" y="-172" font-family="Helvetica,sans-Serif" font-size="10.00">models/ComponentData.h</text>
</a>
</g>
</g>
<!-- Node2&#45;&gt;Node3 -->
<g id="edge2_Node000002_Node000003" class="edge">
<title>Node2&#45;&gt;Node3</title>
<g id="a_edge2_Node000002_Node000003"><a xlink:title=" ">
<path fill="none" stroke="#63b8ff" d="M442.87,-219.75C439.49,-212.57 434.58,-202.18 430.38,-193.27"/>
<polygon fill="#63b8ff" stroke="#63b8ff" points="433.48,-191.64 426.05,-184.09 427.15,-194.63 433.48,-191.64"/>
</a>
</g>
</g>
<!-- Node4 -->
<g id="Node000004" class="node">
<title>Node4</title>
<g id="a_Node000004"><a xlink:href="FootprintData_8h.html" target="_top" xlink:title=" ">
<polygon fill="white" stroke="#666666" points="634,-129 542,-129 542,-110 634,-110 634,-129"/>
<text text-anchor="middle" x="588" y="-117" font-family="Helvetica,sans-Serif" font-size="10.00">FootprintData.h</text>
</a>
</g>
</g>
<!-- Node2&#45;&gt;Node4 -->
<g id="edge25_Node000002_Node000004" class="edge">
<title>Node2&#45;&gt;Node4</title>
<g id="a_edge25_Node000002_Node000004"><a xlink:title=" ">
<path fill="none" stroke="#63b8ff" d="M458.54,-219.66C482.72,-201.14 538.94,-158.08 568.71,-135.28"/>
<polygon fill="#63b8ff" stroke="#63b8ff" points="570.89,-138.02 576.7,-129.16 566.63,-132.46 570.89,-138.02"/>
</a>
</g>
</g>
<!-- Node5 -->
<g id="Node000005" class="node">
<title>Node5</title>
<g id="a_Node000005"><a xlink:href="Model3DData_8h.html" target="_top" xlink:title=" ">
<polygon fill="white" stroke="#666666" points="369,-74 277,-74 277,-55 369,-55 369,-74"/>
<text text-anchor="middle" x="323" y="-62" font-family="Helvetica,sans-Serif" font-size="10.00">Model3DData.h</text>
</a>
</g>
</g>
<!-- Node2&#45;&gt;Node5 -->
<g id="edge26_Node000002_Node000005" class="edge">
<title>Node2&#45;&gt;Node5</title>
<g id="a_edge26_Node000002_Node000005"><a xlink:title=" ">
<path fill="none" stroke="#63b8ff" d="M401.7,-225.39C351.81,-220.79 269.92,-209.75 204,-184 161.39,-167.35 139.07,-169.07 117,-129 112.93,-121.6 111.7,-116.57 117,-110 135.51,-87.06 212.32,-75.37 266.71,-69.85"/>
<polygon fill="#63b8ff" stroke="#63b8ff" points="267.31,-73.31 276.92,-68.86 266.63,-66.35 267.31,-73.31"/>
</a>
</g>
</g>
<!-- Node12 -->
<g id="Node000012" class="node">
<title>Node12</title>
<g id="a_Node000012"><a xlink:href="SymbolData_8h.html" target="_top" xlink:title=" ">
<polygon fill="white" stroke="#666666" points="788,-129 702,-129 702,-110 788,-110 788,-129"/>
<text text-anchor="middle" x="745" y="-117" font-family="Helvetica,sans-Serif" font-size="10.00">SymbolData.h</text>
</a>
</g>
</g>
<!-- Node2&#45;&gt;Node12 -->
<g id="edge27_Node000002_Node000012" class="edge">
<title>Node2&#45;&gt;Node12</title>
<g id="a_edge27_Node000002_Node000012"><a xlink:title=" ">
<path fill="none" stroke="#63b8ff" d="M462.43,-219.9C486.66,-206.68 535.37,-181.18 579,-165 617.03,-150.9 661.48,-139.22 694.8,-131.38"/>
<polygon fill="#63b8ff" stroke="#63b8ff" points="695.82,-134.73 704.77,-129.07 694.24,-127.91 695.82,-134.73"/>
</a>
</g>
</g>
<!-- Node14 -->
<g id="Node000014" class="node">
<title>Node14</title>
<g id="a_Node000014"><a xlink:title=" ">
<polygon fill="#e0e0e0" stroke="#999999" points="218,-129 126,-129 126,-110 218,-110 218,-129"/>
<text text-anchor="middle" x="172" y="-117" font-family="Helvetica,sans-Serif" font-size="10.00">QSharedPointer</text>
</a>
</g>
</g>
<!-- Node2&#45;&gt;Node14 -->
<g id="edge30_Node000002_Node000014" class="edge">
<title>Node2&#45;&gt;Node14</title>
<g id="a_edge30_Node000002_Node000014"><a xlink:title=" ">
<path fill="none" stroke="#63b8ff" d="M401.87,-226.99C356.37,-223.73 285.43,-213.81 232,-184 211.6,-172.62 194.03,-151.94 183.26,-137.28"/>
<polygon fill="#63b8ff" stroke="#63b8ff" points="186.1,-135.23 177.48,-129.06 180.37,-139.26 186.1,-135.23"/>
</a>
</g>
</g>
<!-- Node15 -->
<g id="Node000015" class="node">
<title>Node15</title>
<g id="a_Node000015"><a xlink:title=" ">
<polygon fill="#e0e0e0" stroke="#999999" points="644,-184 588,-184 588,-165 644,-165 644,-184"/>
<text text-anchor="middle" x="616" y="-172" font-family="Helvetica,sans-Serif" font-size="10.00">QObject</text>
</a>
</g>
</g>
<!-- Node2&#45;&gt;Node15 -->
<g id="edge28_Node000002_Node000015" class="edge">
<title>Node2&#45;&gt;Node15</title>
<g id="a_edge28_Node000002_Node000015"><a xlink:title=" ">
<path fill="none" stroke="#63b8ff" d="M474.15,-219.98C502.53,-211.09 547.23,-197.07 578.86,-187.15"/>
<polygon fill="#63b8ff" stroke="#63b8ff" points="580.14,-190.41 588.63,-184.08 578.05,-183.73 580.14,-190.41"/>
</a>
</g>
</g>
<!-- Node16 -->
<g id="Node000016" class="node">
<title>Node16</title>
<g id="a_Node000016"><a xlink:title=" ">
<polygon fill="#e0e0e0" stroke="#999999" points="70,-184 0,-184 0,-165 70,-165 70,-184"/>
<text text-anchor="middle" x="35" y="-172" font-family="Helvetica,sans-Serif" font-size="10.00">QRunnable</text>
</a>
</g>
</g>
<!-- Node2&#45;&gt;Node16 -->
<g id="edge29_Node000002_Node000016" class="edge">
<title>Node2&#45;&gt;Node16</title>
<g id="a_edge29_Node000002_Node000016"><a xlink:title=" ">
<path fill="none" stroke="#63b8ff" d="M401.91,-223.7C333.19,-216.23 198.16,-200.89 84,-184 82.73,-183.81 81.44,-183.62 80.13,-183.42"/>
<polygon fill="#63b8ff" stroke="#63b8ff" points="80.46,-179.92 70.03,-181.79 79.35,-186.83 80.46,-179.92"/>
</a>
</g>
</g>
<!-- Node3&#45;&gt;Node4 -->
<g id="edge3_Node000003_Node000004" class="edge">
<title>Node3&#45;&gt;Node4</title>
<g id="a_edge3_Node000003_Node000004"><a xlink:title=" ">
<path fill="none" stroke="#63b8ff" d="M448.67,-164.98C476.54,-156.09 520.45,-142.07 551.52,-132.15"/>
<polygon fill="#63b8ff" stroke="#63b8ff" points="552.66,-135.46 561.12,-129.08 550.53,-128.79 552.66,-135.46"/>
</a>
</g>
</g>
<!-- Node3&#45;&gt;Node5 -->
<g id="edge13_Node000003_Node000005" class="edge">
<title>Node3&#45;&gt;Node5</title>
<g id="a_edge13_Node000003_Node000005"><a xlink:title=" ">
<path fill="none" stroke="#63b8ff" d="M413.9,-164.66C397.28,-146.54 359.13,-104.91 337.91,-81.77"/>
<polygon fill="#63b8ff" stroke="#63b8ff" points="340.27,-79.16 330.94,-74.16 335.11,-83.89 340.27,-79.16"/>
</a>
</g>
</g>
<!-- Node7 -->
<g id="Node000007" class="node">
<title>Node7</title>
<g id="a_Node000007"><a xlink:title=" ">
<polygon fill="#e0e0e0" stroke="#999999" points="706,-19 630,-19 630,0 706,0 706,-19"/>
<text text-anchor="middle" x="668" y="-7" font-family="Helvetica,sans-Serif" font-size="10.00">QJsonObject</text>
</a>
</g>
</g>
<!-- Node3&#45;&gt;Node7 -->
<g id="edge22_Node000003_Node000007" class="edge">
<title>Node3&#45;&gt;Node7</title>
<g id="a_edge22_Node000003_Node000007"><a xlink:title=" ">
<path fill="none" stroke="#63b8ff" d="M418.67,-164.81C411.07,-143.33 395.09,-87.21 422,-55 446.64,-25.5 554.97,-15.52 619.37,-12.17"/>
<polygon fill="#63b8ff" stroke="#63b8ff" points="619.87,-15.65 629.69,-11.67 619.53,-8.66 619.87,-15.65"/>
</a>
</g>
</g>
<!-- Node8 -->
<g id="Node000008" class="node">
<title>Node8</title>
<g id="a_Node000008"><a xlink:title=" ">
<polygon fill="#e0e0e0" stroke="#999999" points="1021.5,-19 968.5,-19 968.5,0 1021.5,0 1021.5,-19"/>
<text text-anchor="middle" x="995" y="-7" font-family="Helvetica,sans-Serif" font-size="10.00">QString</text>
</a>
</g>
</g>
<!-- Node3&#45;&gt;Node8 -->
<g id="edge24_Node000003_Node000008" class="edge">
<title>Node3&#45;&gt;Node8</title>
<g id="a_edge24_Node000003_Node000008"><a xlink:title=" ">
<path fill="none" stroke="#63b8ff" d="M421.4,-164.91C420.39,-142.68 421.09,-83.03 455,-55 493.67,-23.04 842.91,-13.44 958.23,-11.13"/>
<polygon fill="#63b8ff" stroke="#63b8ff" points="958.4,-14.63 968.33,-10.94 958.27,-7.63 958.4,-14.63"/>
</a>
</g>
</g>
<!-- Node9 -->
<g id="Node000009" class="node">
<title>Node9</title>
<g id="a_Node000009"><a xlink:title=" ">
<polygon fill="#e0e0e0" stroke="#999999" points="535.5,-74 464.5,-74 464.5,-55 535.5,-55 535.5,-74"/>
<text text-anchor="middle" x="500" y="-62" font-family="Helvetica,sans-Serif" font-size="10.00">QJsonArray</text>
</a>
</g>
</g>
<!-- Node3&#45;&gt;Node9 -->
<g id="edge21_Node000003_Node000009" class="edge">
<title>Node3&#45;&gt;Node9</title>
<g id="a_edge21_Node000003_Node000009"><a xlink:title=" ">
<path fill="none" stroke="#63b8ff" d="M428.38,-164.66C441.36,-146.69 471.01,-105.64 487.81,-82.38"/>
<polygon fill="#63b8ff" stroke="#63b8ff" points="490.73,-84.31 493.75,-74.16 485.05,-80.22 490.73,-84.31"/>
</a>
</g>
</g>
<!-- Node3&#45;&gt;Node12 -->
<g id="edge14_Node000003_Node000012" class="edge">
<title>Node3&#45;&gt;Node12</title>
<g id="a_edge14_Node000003_Node000012"><a xlink:title=" ">
<path fill="none" stroke="#63b8ff" d="M473.9,-164.98C533.57,-155.19 631.05,-139.2 691.43,-129.29"/>
<polygon fill="#63b8ff" stroke="#63b8ff" points="692.22,-132.71 701.52,-127.63 691.08,-125.8 692.22,-132.71"/>
</a>
</g>
</g>
<!-- Node3&#45;&gt;Node14 -->
<g id="edge23_Node000003_Node000014" class="edge">
<title>Node3&#45;&gt;Node14</title>
<g id="a_edge23_Node000003_Node000014"><a xlink:title=" ">
<path fill="none" stroke="#63b8ff" d="M381.83,-164.98C338.5,-155.8 269.41,-141.15 222.44,-131.19"/>
<polygon fill="#63b8ff" stroke="#63b8ff" points="222.99,-127.73 212.48,-129.08 221.54,-134.58 222.99,-127.73"/>
</a>
</g>
</g>
<!-- Node4&#45;&gt;Node5 -->
<g id="edge4_Node000004_Node000005" class="edge">
<title>Node4&#45;&gt;Node5</title>
<g id="a_edge4_Node000004_Node000005"><a xlink:title=" ">
<path fill="none" stroke="#63b8ff" d="M545.42,-109.98C499.3,-100.76 425.64,-86.03 375.84,-76.07"/>
<polygon fill="#63b8ff" stroke="#63b8ff" points="376.4,-72.61 365.91,-74.08 375.03,-79.48 376.4,-72.61"/>
</a>
</g>
</g>
<!-- Node4&#45;&gt;Node7 -->
<g id="edge9_Node000004_Node000007" class="edge">
<title>Node4&#45;&gt;Node7</title>
<g id="a_edge9_Node000004_Node000007"><a xlink:title=" ">
<path fill="none" stroke="#63b8ff" d="M585.45,-109.99C582.12,-97.09 577.83,-72.3 588,-55 596.74,-40.14 612.44,-29.88 627.63,-22.99"/>
<polygon fill="#63b8ff" stroke="#63b8ff" points="629.06,-26.19 636.95,-19.13 626.38,-19.72 629.06,-26.19"/>
</a>
</g>
</g>
<!-- Node4&#45;&gt;Node8 -->
<g id="edge12_Node000004_Node000008" class="edge">
<title>Node4&#45;&gt;Node8</title>
<g id="a_edge12_Node000004_Node000008"><a xlink:title=" ">
<path fill="none" stroke="#63b8ff" d="M589.93,-109.79C593.55,-95.69 602.79,-68.11 622,-55 676.12,-18.06 875.09,-11.69 958.17,-10.66"/>
<polygon fill="#63b8ff" stroke="#63b8ff" points="958.44,-14.16 968.41,-10.56 958.37,-7.16 958.44,-14.16"/>
</a>
</g>
</g>
<!-- Node4&#45;&gt;Node9 -->
<g id="edge8_Node000004_Node000009" class="edge">
<title>Node4&#45;&gt;Node9</title>
<g id="a_edge8_Node000004_Node000009"><a xlink:title=" ">
<path fill="none" stroke="#63b8ff" d="M573.86,-109.98C560.21,-101.77 539.31,-89.18 523.22,-79.49"/>
<polygon fill="#63b8ff" stroke="#63b8ff" points="524.77,-76.33 514.4,-74.17 521.16,-82.33 524.77,-76.33"/>
</a>
</g>
</g>
<!-- Node10 -->
<g id="Node000010" class="node">
<title>Node10</title>
<g id="a_Node000010"><a xlink:title=" ">
<polygon fill="#e0e0e0" stroke="#999999" points="671.5,-74 630.5,-74 630.5,-55 671.5,-55 671.5,-74"/>
<text text-anchor="middle" x="651" y="-62" font-family="Helvetica,sans-Serif" font-size="10.00">QList</text>
</a>
</g>
</g>
<!-- Node4&#45;&gt;Node10 -->
<g id="edge10_Node000004_Node000010" class="edge">
<title>Node4&#45;&gt;Node10</title>
<g id="a_edge10_Node000004_Node000010"><a xlink:title=" ">
<path fill="none" stroke="#63b8ff" d="M598.12,-109.98C607.44,-102.15 621.47,-90.34 632.74,-80.86"/>
<polygon fill="#63b8ff" stroke="#63b8ff" points="635.29,-83.29 640.69,-74.17 630.79,-77.93 635.29,-83.29"/>
</a>
</g>
</g>
<!-- Node11 -->
<g id="Node000011" class="node">
<title>Node11</title>
<g id="a_Node000011"><a xlink:title=" ">
<polygon fill="#e0e0e0" stroke="#999999" points="744.5,-74 689.5,-74 689.5,-55 744.5,-55 744.5,-74"/>
<text text-anchor="middle" x="717" y="-62" font-family="Helvetica,sans-Serif" font-size="10.00">QPointF</text>
</a>
</g>
</g>
<!-- Node4&#45;&gt;Node11 -->
<g id="edge11_Node000004_Node000011" class="edge">
<title>Node4&#45;&gt;Node11</title>
<g id="a_edge11_Node000004_Node000011"><a xlink:title=" ">
<path fill="none" stroke="#63b8ff" d="M608.73,-109.98C629.76,-101.34 662.55,-87.87 686.54,-78.02"/>
<polygon fill="#63b8ff" stroke="#63b8ff" points="687.98,-81.21 695.9,-74.17 685.32,-74.73 687.98,-81.21"/>
</a>
</g>
</g>
<!-- Node6 -->
<g id="Node000006" class="node">
<title>Node6</title>
<g id="a_Node000006"><a xlink:title=" ">
<polygon fill="#e0e0e0" stroke="#999999" points="321.5,-19 248.5,-19 248.5,0 321.5,0 321.5,-19"/>
<text text-anchor="middle" x="285" y="-7" font-family="Helvetica,sans-Serif" font-size="10.00">QByteArray</text>
</a>
</g>
</g>
<!-- Node5&#45;&gt;Node6 -->
<g id="edge5_Node000005_Node000006" class="edge">
<title>Node5&#45;&gt;Node6</title>
<g id="a_edge5_Node000005_Node000006"><a xlink:title=" ">
<path fill="none" stroke="#63b8ff" d="M316.73,-54.75C311.41,-47.34 303.64,-36.5 297.12,-27.41"/>
<polygon fill="#63b8ff" stroke="#63b8ff" points="299.83,-25.18 291.16,-19.09 294.14,-29.26 299.83,-25.18"/>
</a>
</g>
</g>
<!-- Node5&#45;&gt;Node7 -->
<g id="edge6_Node000005_Node000007" class="edge">
<title>Node5&#45;&gt;Node7</title>
<g id="a_edge6_Node000005_Node000007"><a xlink:title=" ">
<path fill="none" stroke="#63b8ff" d="M369.17,-56.41C434.44,-46.38 553.13,-28.15 619.59,-17.94"/>
<polygon fill="#63b8ff" stroke="#63b8ff" points="620.44,-21.35 629.8,-16.37 619.38,-14.43 620.44,-21.35"/>
</a>
</g>
</g>
<!-- Node5&#45;&gt;Node8 -->
<g id="edge7_Node000005_Node000008" class="edge">
<title>Node5&#45;&gt;Node8</title>
<g id="a_edge7_Node000005_Node000008"><a xlink:title=" ">
<path fill="none" stroke="#63b8ff" d="M369.33,-59.44C385.94,-58.01 404.81,-56.41 422,-55 624.56,-38.44 867.53,-20.06 958.37,-13.24"/>
<polygon fill="#63b8ff" stroke="#63b8ff" points="958.72,-16.72 968.43,-12.49 958.2,-9.74 958.72,-16.72"/>
</a>
</g>
</g>
<!-- Node12&#45;&gt;Node7 -->
<g id="edge16_Node000012_Node000007" class="edge">
<title>Node12&#45;&gt;Node7</title>
<g id="a_edge16_Node000012_Node000007"><a xlink:title=" ">
<path fill="none" stroke="#63b8ff" d="M749.46,-109.99C755.54,-97.1 764.53,-72.31 754,-55 744.81,-39.9 728.66,-29.69 712.81,-22.91"/>
<polygon fill="#63b8ff" stroke="#63b8ff" points="713.64,-19.48 703.05,-19.12 711.1,-26 713.64,-19.48"/>
</a>
</g>
</g>
<!-- Node12&#45;&gt;Node8 -->
<g id="edge20_Node000012_Node000008" class="edge">
<title>Node12&#45;&gt;Node8</title>
<g id="a_edge20_Node000012_Node000008"><a xlink:title=" ">
<path fill="none" stroke="#63b8ff" d="M769.43,-109.87C793.26,-101.3 830.43,-87.51 862,-74 899.71,-57.86 942.35,-37.03 968.95,-23.72"/>
<polygon fill="#63b8ff" stroke="#63b8ff" points="970.63,-26.79 977.99,-19.17 967.48,-20.54 970.63,-26.79"/>
</a>
</g>
</g>
<!-- Node12&#45;&gt;Node9 -->
<g id="edge15_Node000012_Node000009" class="edge">
<title>Node12&#45;&gt;Node9</title>
<g id="a_edge15_Node000012_Node000009"><a xlink:title=" ">
<path fill="none" stroke="#63b8ff" d="M705.64,-109.98C662,-100.54 591.71,-85.34 545.69,-75.38"/>
<polygon fill="#63b8ff" stroke="#63b8ff" points="546.19,-71.91 535.68,-73.22 544.71,-78.75 546.19,-71.91"/>
</a>
</g>
</g>
<!-- Node12&#45;&gt;Node10 -->
<g id="edge17_Node000012_Node000010" class="edge">
<title>Node12&#45;&gt;Node10</title>
<g id="a_edge17_Node000012_Node000010"><a xlink:title=" ">
<path fill="none" stroke="#63b8ff" d="M729.9,-109.98C715.18,-101.69 692.58,-88.94 675.33,-79.22"/>
<polygon fill="#63b8ff" stroke="#63b8ff" points="676.81,-76.03 666.38,-74.17 673.37,-82.13 676.81,-76.03"/>
</a>
</g>
</g>
<!-- Node12&#45;&gt;Node11 -->
<g id="edge18_Node000012_Node000011" class="edge">
<title>Node12&#45;&gt;Node11</title>
<g id="a_edge18_Node000012_Node000011"><a xlink:title=" ">
<path fill="none" stroke="#63b8ff" d="M740.38,-109.75C736.54,-102.49 730.98,-91.95 726.24,-82.98"/>
<polygon fill="#63b8ff" stroke="#63b8ff" points="729.3,-81.3 721.54,-74.09 723.11,-84.57 729.3,-81.3"/>
</a>
</g>
</g>
<!-- Node13 -->
<g id="Node000013" class="node">
<title>Node13</title>
<g id="a_Node000013"><a xlink:title=" ">
<polygon fill="#e0e0e0" stroke="#999999" points="853,-74 801,-74 801,-55 853,-55 853,-74"/>
<text text-anchor="middle" x="827" y="-62" font-family="Helvetica,sans-Serif" font-size="10.00">QRectF</text>
</a>
</g>
</g>
<!-- Node12&#45;&gt;Node13 -->
<g id="edge19_Node000012_Node000013" class="edge">
<title>Node12&#45;&gt;Node13</title>
<g id="a_edge19_Node000012_Node000013"><a xlink:title=" ">
<path fill="none" stroke="#63b8ff" d="M758.17,-109.98C770.77,-101.84 790,-89.41 804.94,-79.76"/>
<polygon fill="#63b8ff" stroke="#63b8ff" points="807.09,-82.54 813.59,-74.17 803.29,-76.66 807.09,-82.54"/>
</a>
</g>
</g>
<!-- Node17&#45;&gt;Node5 -->
<g id="edge32_Node000017_Node000005" class="edge">
<title>Node17&#45;&gt;Node5</title>
<g id="a_edge32_Node000017_Node000005"><a xlink:title=" ">
<path fill="none" stroke="#63b8ff" d="M533.62,-222.12C447.45,-214.59 322.65,-200.92 308,-184 283.55,-155.77 300.93,-108.61 313.38,-83.13"/>
<polygon fill="#63b8ff" stroke="#63b8ff" points="316.5,-84.72 317.97,-74.22 310.28,-81.51 316.5,-84.72"/>
</a>
</g>
</g>
<!-- Node17&#45;&gt;Node6 -->
<g id="edge33_Node000017_Node000006" class="edge">
<title>Node17&#45;&gt;Node6</title>
<g id="a_edge33_Node000017_Node000006"><a xlink:title=" ">
<path fill="none" stroke="#63b8ff" d="M533.71,-221.88C444.52,-213.96 312.49,-199.78 295,-184 251.5,-144.77 257.37,-112.6 268,-55 269.67,-45.95 273.1,-36.36 276.44,-28.41"/>
<polygon fill="#63b8ff" stroke="#63b8ff" points="279.73,-29.65 280.63,-19.09 273.34,-26.78 279.73,-29.65"/>
</a>
</g>
</g>
<!-- Node17&#45;&gt;Node8 -->
<g id="edge35_Node000017_Node000008" class="edge">
<title>Node17&#45;&gt;Node8</title>
<g id="a_edge35_Node000017_Node000008"><a xlink:title=" ">
<path fill="none" stroke="#63b8ff" d="M698.15,-220.76C760.82,-213.63 841.01,-201.49 869,-184 930.78,-145.4 971.73,-64.44 987.6,-28.43"/>
<polygon fill="#63b8ff" stroke="#63b8ff" points="990.85,-29.73 991.56,-19.16 984.41,-26.98 990.85,-29.73"/>
</a>
</g>
</g>
<!-- Node17&#45;&gt;Node15 -->
<g id="edge34_Node000017_Node000015" class="edge">
<title>Node17&#45;&gt;Node15</title>
<g id="a_edge34_Node000017_Node000015"><a xlink:title=" ">
<path fill="none" stroke="#63b8ff" d="M616,-219.75C616,-212.8 616,-202.85 616,-194.13"/>
<polygon fill="#63b8ff" stroke="#63b8ff" points="619.5,-194.09 616,-184.09 612.5,-194.09 619.5,-194.09"/>
</a>
</g>
</g>
<!-- Node18&#45;&gt;Node4 -->
<g id="edge40_Node000018_Node000004" class="edge">
<title>Node18&#45;&gt;Node4</title>
<g id="a_edge40_Node000018_Node000004"><a xlink:title=" ">
<path fill="none" stroke="#63b8ff" d="M792.99,-219.96C765.14,-212.21 724.56,-199.61 691,-184 660.77,-169.94 628.44,-148.91 608.23,-134.95"/>
<polygon fill="#63b8ff" stroke="#63b8ff" points="610.05,-131.95 599.85,-129.09 606.03,-137.69 610.05,-131.95"/>
</a>
</g>
</g>
<!-- Node18&#45;&gt;Node5 -->
<g id="edge41_Node000018_Node000005" class="edge">
<title>Node18&#45;&gt;Node5</title>
<g id="a_edge41_Node000018_Node000005"><a xlink:title=" ">
<path fill="none" stroke="#63b8ff" d="M743.87,-222.25C607.44,-211.7 348.24,-190.83 341,-184 313.96,-158.51 315.88,-110.92 319.52,-84.47"/>
<polygon fill="#63b8ff" stroke="#63b8ff" points="323.03,-84.68 321.16,-74.25 316.12,-83.57 323.03,-84.68"/>
</a>
</g>
</g>
<!-- Node18&#45;&gt;Node7 -->
<g id="edge42_Node000018_Node000007" class="edge">
<title>Node18&#45;&gt;Node7</title>
<g id="a_edge42_Node000018_Node000007"><a xlink:title=" ">
<path fill="none" stroke="#63b8ff" d="M838.49,-219.93C848.87,-211.99 862.88,-199.14 869,-184 882.58,-150.39 930.93,-136.11 862,-55 843.47,-33.2 767.74,-20.98 716.56,-15.07"/>
<polygon fill="#63b8ff" stroke="#63b8ff" points="716.69,-11.57 706.36,-13.94 715.92,-18.52 716.69,-11.57"/>
</a>
</g>
</g>
<!-- Node18&#45;&gt;Node8 -->
<g id="edge44_Node000018_Node000008" class="edge">
<title>Node18&#45;&gt;Node8</title>
<g id="a_edge44_Node000018_Node000008"><a xlink:title=" ">
<path fill="none" stroke="#63b8ff" d="M848.61,-219.93C902.58,-199.25 1035.38,-146.98 1047,-129 1064.86,-101.38 1060.75,-84.87 1047,-55 1041.25,-42.52 1030.09,-32.24 1019.58,-24.71"/>
<polygon fill="#63b8ff" stroke="#63b8ff" points="1021.3,-21.65 1011.03,-19.05 1017.43,-27.49 1021.3,-21.65"/>
</a>
</g>
</g>
<!-- Node18&#45;&gt;Node15 -->
<g id="edge43_Node000018_Node000015" class="edge">
<title>Node18&#45;&gt;Node15</title>
<g id="a_edge43_Node000018_Node000015"><a xlink:title=" ">
<path fill="none" stroke="#63b8ff" d="M792.26,-219.98C754.5,-210.46 693.47,-195.05 654.05,-185.1"/>
<polygon fill="#63b8ff" stroke="#63b8ff" points="654.82,-181.69 644.27,-182.63 653.11,-188.48 654.82,-181.69"/>
</a>
</g>
</g>
<!-- Node19 -->
<g id="Node000019" class="node">
<title>Node19</title>
<g id="a_Node000019"><a xlink:href="FootprintGraphicsGenerator_8h.html" target="_top" xlink:title=" ">
<polygon fill="white" stroke="#666666" points="860,-184 700,-184 700,-165 860,-165 860,-184"/>
<text text-anchor="middle" x="780" y="-172" font-family="Helvetica,sans-Serif" font-size="10.00">FootprintGraphicsGenerator.h</text>
</a>
</g>
</g>
<!-- Node18&#45;&gt;Node19 -->
<g id="edge37_Node000018_Node000019" class="edge">
<title>Node18&#45;&gt;Node19</title>
<g id="a_edge37_Node000018_Node000019"><a xlink:title=" ">
<path fill="none" stroke="#63b8ff" d="M818.4,-219.75C811.84,-212.18 802.18,-201.05 794.19,-191.84"/>
<polygon fill="#63b8ff" stroke="#63b8ff" points="796.65,-189.35 787.45,-184.09 791.37,-193.94 796.65,-189.35"/>
</a>
</g>
</g>
<!-- Node20 -->
<g id="Node000020" class="node">
<title>Node20</title>
<g id="a_Node000020"><a xlink:title=" ">
<polygon fill="#e0e0e0" stroke="#999999" points="1072,-184 992,-184 992,-165 1072,-165 1072,-184"/>
<text text-anchor="middle" x="1032" y="-172" font-family="Helvetica,sans-Serif" font-size="10.00">QTextStream</text>
</a>
</g>
</g>
<!-- Node18&#45;&gt;Node20 -->
<g id="edge45_Node000018_Node000020" class="edge">
<title>Node18&#45;&gt;Node20</title>
<g id="a_edge45_Node000018_Node000020"><a xlink:title=" ">
<path fill="none" stroke="#63b8ff" d="M859.1,-219.98C894.28,-210.93 950.07,-196.58 988.72,-186.64"/>
<polygon fill="#63b8ff" stroke="#63b8ff" points="989.83,-189.96 998.64,-184.08 988.09,-183.18 989.83,-189.96"/>
</a>
</g>
</g>
<!-- Node19&#45;&gt;Node4 -->
<g id="edge38_Node000019_Node000004" class="edge">
<title>Node19&#45;&gt;Node4</title>
<g id="a_edge38_Node000019_Node000004"><a xlink:title=" ">
<path fill="none" stroke="#63b8ff" d="M749.15,-164.98C716.5,-155.97 664.8,-141.7 628.8,-131.76"/>
<polygon fill="#63b8ff" stroke="#63b8ff" points="629.66,-128.37 619.09,-129.08 627.8,-135.12 629.66,-128.37"/>
</a>
</g>
</g>
<!-- Node19&#45;&gt;Node8 -->
<g id="edge39_Node000019_Node000008" class="edge">
<title>Node19&#45;&gt;Node8</title>
<g id="a_edge39_Node000019_Node000008"><a xlink:title=" ">
<path fill="none" stroke="#63b8ff" d="M791.26,-164.97C825.93,-138.68 931.44,-58.69 975.42,-25.34"/>
<polygon fill="#63b8ff" stroke="#63b8ff" points="977.74,-27.98 983.6,-19.15 973.51,-22.4 977.74,-27.98"/>
</a>
</g>
</g>
<!-- Node21&#45;&gt;Node7 -->
<g id="edge51_Node000021_Node000007" class="edge">
<title>Node21&#45;&gt;Node7</title>
<g id="a_edge51_Node000021_Node000007"><a xlink:title=" ">
<path fill="none" stroke="#63b8ff" d="M1110.68,-220.11C1182.54,-211.63 1279.33,-197.85 1291,-184 1296.44,-177.54 1296.14,-171.7 1291,-165 1220.23,-72.63 850.31,-28.15 716.43,-14.89"/>
<polygon fill="#63b8ff" stroke="#63b8ff" points="716.37,-11.37 706.08,-13.88 715.69,-18.34 716.37,-11.37"/>
</a>
</g>
</g>
<!-- Node21&#45;&gt;Node8 -->
<g id="edge53_Node000021_Node000008" class="edge">
<title>Node21&#45;&gt;Node8</title>
<g id="a_edge53_Node000021_Node000008"><a xlink:title=" ">
<path fill="none" stroke="#63b8ff" d="M1103.36,-219.97C1187.47,-209.58 1316.82,-192.36 1324,-184 1329.5,-177.59 1327.3,-172.77 1324,-165 1275.47,-50.73 1107.21,-20.84 1031.92,-13.13"/>
<polygon fill="#63b8ff" stroke="#63b8ff" points="1032.22,-9.65 1021.93,-12.19 1031.56,-16.62 1032.22,-9.65"/>
</a>
</g>
</g>
<!-- Node21&#45;&gt;Node12 -->
<g id="edge50_Node000021_Node000012" class="edge">
<title>Node21&#45;&gt;Node12</title>
<g id="a_edge50_Node000021_Node000012"><a xlink:title=" ">
<path fill="none" stroke="#63b8ff" d="M1047.09,-219.81C1066.93,-207.32 1097.43,-183.75 1081,-165 1062.68,-144.09 888.33,-129.8 798.28,-123.76"/>
<polygon fill="#63b8ff" stroke="#63b8ff" points="798.47,-120.26 788.26,-123.09 798,-127.24 798.47,-120.26"/>
</a>
</g>
</g>
<!-- Node21&#45;&gt;Node15 -->
<g id="edge52_Node000021_Node000015" class="edge">
<title>Node21&#45;&gt;Node15</title>
<g id="a_edge52_Node000021_Node000015"><a xlink:title=" ">
<path fill="none" stroke="#63b8ff" d="M965.16,-219.98C877.12,-208.77 725.2,-189.41 654.39,-180.39"/>
<polygon fill="#63b8ff" stroke="#63b8ff" points="654.51,-176.88 644.15,-179.09 653.63,-183.82 654.51,-176.88"/>
</a>
</g>
</g>
<!-- Node21&#45;&gt;Node20 -->
<g id="edge54_Node000021_Node000020" class="edge">
<title>Node21&#45;&gt;Node20</title>
<g id="a_edge54_Node000021_Node000020"><a xlink:title=" ">
<path fill="none" stroke="#63b8ff" d="M1032,-219.75C1032,-212.8 1032,-202.85 1032,-194.13"/>
<polygon fill="#63b8ff" stroke="#63b8ff" points="1035.5,-194.09 1032,-184.09 1028.5,-194.09 1035.5,-194.09"/>
</a>
</g>
</g>
<!-- Node22 -->
<g id="Node000022" class="node">
<title>Node22</title>
<g id="a_Node000022"><a xlink:href="SymbolGraphicsGenerator_8h.html" target="_top" xlink:title=" ">
<polygon fill="white" stroke="#666666" points="1281.5,-184 1128.5,-184 1128.5,-165 1281.5,-165 1281.5,-184"/>
<text text-anchor="middle" x="1205" y="-172" font-family="Helvetica,sans-Serif" font-size="10.00">SymbolGraphicsGenerator.h</text>
</a>
</g>
</g>
<!-- Node21&#45;&gt;Node22 -->
<g id="edge47_Node000021_Node000022" class="edge">
<title>Node21&#45;&gt;Node22</title>
<g id="a_edge47_Node000021_Node000022"><a xlink:title=" ">
<path fill="none" stroke="#63b8ff" d="M1059.8,-219.98C1088.97,-211.05 1135,-196.94 1167.4,-187.02"/>
<polygon fill="#63b8ff" stroke="#63b8ff" points="1168.45,-190.36 1176.99,-184.08 1166.4,-183.66 1168.45,-190.36"/>
</a>
</g>
</g>
<!-- Node22&#45;&gt;Node8 -->
<g id="edge49_Node000022_Node000008" class="edge">
<title>Node22&#45;&gt;Node8</title>
<g id="a_edge49_Node000022_Node000008"><a xlink:title=" ">
<path fill="none" stroke="#63b8ff" d="M1197.92,-164.8C1180.5,-143.8 1133.4,-89.49 1085,-55 1066.91,-42.11 1044.54,-31.03 1026.62,-23.15"/>
<polygon fill="#63b8ff" stroke="#63b8ff" points="1027.75,-19.83 1017.18,-19.11 1025,-26.26 1027.75,-19.83"/>
</a>
</g>
</g>
<!-- Node22&#45;&gt;Node12 -->
<g id="edge48_Node000022_Node000012" class="edge">
<title>Node22&#45;&gt;Node12</title>
<g id="a_edge48_Node000022_Node000012"><a xlink:title=" ">
<path fill="none" stroke="#63b8ff" d="M1131.09,-164.98C1038.06,-154.27 880.5,-136.11 798.38,-126.65"/>
<polygon fill="#63b8ff" stroke="#63b8ff" points="798.6,-123.15 788.27,-125.49 797.8,-130.11 798.6,-123.15"/>
</a>
</g>
</g>
</g>
</svg>
