<?xml version="1.0" encoding="UTF-8" standalone="no"?>
<!DOCTYPE svg PUBLIC "-//W3C//DTD SVG 1.1//EN"
 "http://www.w3.org/Graphics/SVG/1.1/DTD/svg11.dtd">
<!-- Generated by graphviz version 2.43.0 (0)
 -->
<!-- Title: core/kicad/ExporterFootprint.h Pages: 1 -->
<svg width="678pt" height="148pt"
 viewBox="0.00 0.00 677.50 148.00" xmlns="http://www.w3.org/2000/svg" xmlns:xlink="http://www.w3.org/1999/xlink">
<g id="graph0" class="graph" transform="scale(1 1) rotate(0) translate(4 144)">
<title>core/kicad/ExporterFootprint.h</title>
<!-- Node1 -->
<g id="Node000001" class="node">
<title>Node1</title>
<g id="a_Node000001"><a xlink:title=" ">
<polygon fill="#999999" stroke="#666666" points="500.5,-140 336.5,-140 336.5,-121 500.5,-121 500.5,-140"/>
<text text-anchor="middle" x="418.5" y="-128" font-family="Helvetica,sans-Serif" font-size="10.00">core/kicad/ExporterFootprint.h</text>
</a>
</g>
</g>
<!-- Node2 -->
<g id="Node000002" class="node">
<title>Node2</title>
<g id="a_Node000002"><a xlink:href="ExporterFootprint_8cpp.html" target="_top" xlink:title=" ">
<polygon fill="white" stroke="#666666" points="175,-79.5 0,-79.5 0,-60.5 175,-60.5 175,-79.5"/>
<text text-anchor="middle" x="87.5" y="-67.5" font-family="Helvetica,sans-Serif" font-size="10.00">core/kicad/ExporterFootprint.cpp</text>
</a>
</g>
</g>
<!-- Node1&#45;&gt;Node2 -->
<g id="edge1_Node000001_Node000002" class="edge">
<title>Node1&#45;&gt;Node2</title>
<g id="a_edge1_Node000001_Node000002"><a xlink:title=" ">
<path fill="none" stroke="#63b8ff" d="M360.46,-119.24C296.65,-107.96 195.28,-90.05 135.69,-79.52"/>
<polygon fill="#63b8ff" stroke="#63b8ff" points="359.91,-122.7 370.37,-120.99 361.13,-115.81 359.91,-122.7"/>
</a>
</g>
</g>
<!-- Node3 -->
<g id="Node000003" class="node">
<title>Node3</title>
<g id="a_Node000003"><a xlink:href="FootprintExportStage_8cpp.html" target="_top" xlink:title=" ">
<polygon fill="white" stroke="#666666" points="331.5,-85 193.5,-85 193.5,-55 331.5,-55 331.5,-85"/>
<text text-anchor="start" x="201.5" y="-73" font-family="Helvetica,sans-Serif" font-size="10.00">services/export/Footprint</text>
<text text-anchor="middle" x="262.5" y="-62" font-family="Helvetica,sans-Serif" font-size="10.00">ExportStage.cpp</text>
</a>
</g>
</g>
<!-- Node1&#45;&gt;Node3 -->
<g id="edge2_Node000001_Node000003" class="edge">
<title>Node1&#45;&gt;Node3</title>
<g id="a_edge2_Node000001_Node000003"><a xlink:title=" ">
<path fill="none" stroke="#63b8ff" d="M386.39,-117.46C361.3,-108.05 326.38,-94.95 300,-85.06"/>
<polygon fill="#63b8ff" stroke="#63b8ff" points="385.22,-120.76 395.82,-120.99 387.68,-114.21 385.22,-120.76"/>
</a>
</g>
</g>
<!-- Node4 -->
<g id="Node000004" class="node">
<title>Node4</title>
<g id="a_Node000004"><a xlink:href="FootprintExportWorker_8cpp.html" target="_top" xlink:title=" ">
<polygon fill="white" stroke="#666666" points="487.5,-85 349.5,-85 349.5,-55 487.5,-55 487.5,-85"/>
<text text-anchor="start" x="357.5" y="-73" font-family="Helvetica,sans-Serif" font-size="10.00">services/export/Footprint</text>
<text text-anchor="middle" x="418.5" y="-62" font-family="Helvetica,sans-Serif" font-size="10.00">ExportWorker.cpp</text>
</a>
</g>
</g>
<!-- Node1&#45;&gt;Node4 -->
<g id="edge3_Node000001_Node000004" class="edge">
<title>Node1&#45;&gt;Node4</title>
<g id="a_edge3_Node000001_Node000004"><a xlink:title=" ">
<path fill="none" stroke="#63b8ff" d="M418.5,-110.65C418.5,-102.36 418.5,-92.78 418.5,-85.11"/>
<polygon fill="#63b8ff" stroke="#63b8ff" points="415,-110.87 418.5,-120.87 422,-110.87 415,-110.87"/>
</a>
</g>
</g>
<!-- Node5 -->
<g id="Node000005" class="node">
<title>Node5</title>
<g id="a_Node000005"><a xlink:href="WriteWorker_8cpp.html" target="_top" xlink:title=" ">
<polygon fill="white" stroke="#666666" points="629,-19 492,-19 492,0 629,0 629,-19"/>
<text text-anchor="middle" x="560.5" y="-7" font-family="Helvetica,sans-Serif" font-size="10.00">workers/WriteWorker.cpp</text>
</a>
</g>
</g>
<!-- Node1&#45;&gt;Node5 -->
<g id="edge4_Node000001_Node000005" class="edge">
<title>Node1&#45;&gt;Node5</title>
<g id="a_edge4_Node000001_Node000005"><a xlink:title=" ">
<path fill="none" stroke="#63b8ff" d="M446.74,-116.38C462.25,-108.45 481.36,-97.49 496.5,-85 521.23,-64.6 544.15,-33.98 554.59,-19.16"/>
<polygon fill="#63b8ff" stroke="#63b8ff" points="445.01,-113.32 437.61,-120.9 448.12,-119.6 445.01,-113.32"/>
</a>
</g>
</g>
<!-- Node6 -->
<g id="Node000006" class="node">
<title>Node6</title>
<g id="a_Node000006"><a xlink:href="WriteWorker_8h.html" target="_top" xlink:title=" ">
<polygon fill="white" stroke="#666666" points="669.5,-79.5 543.5,-79.5 543.5,-60.5 669.5,-60.5 669.5,-79.5"/>
<text text-anchor="middle" x="606.5" y="-67.5" font-family="Helvetica,sans-Serif" font-size="10.00">workers/WriteWorker.h</text>
</a>
</g>
</g>
<!-- Node1&#45;&gt;Node6 -->
<g id="edge5_Node000001_Node000006" class="edge">
<title>Node1&#45;&gt;Node6</title>
<g id="a_edge5_Node000001_Node000006"><a xlink:title=" ">
<path fill="none" stroke="#63b8ff" d="M455.58,-117.96C491.94,-106.65 546.53,-89.66 579.13,-79.52"/>
<polygon fill="#63b8ff" stroke="#63b8ff" points="454.35,-114.68 445.84,-120.99 456.43,-121.36 454.35,-114.68"/>
</a>
</g>
</g>
<!-- Node6&#45;&gt;Node5 -->
<g id="edge6_Node000006_Node000005" class="edge">
<title>Node6&#45;&gt;Node5</title>
<g id="a_edge6_Node000006_Node000005"><a xlink:title=" ">
<path fill="none" stroke="#63b8ff" d="M593.49,-52.45C584.97,-41.62 574.19,-27.91 567.32,-19.17"/>
<polygon fill="#63b8ff" stroke="#63b8ff" points="590.78,-54.67 599.71,-60.37 596.28,-50.34 590.78,-54.67"/>
</a>
</g>
</g>
</g>
</svg>
