<?xml version="1.0" encoding="UTF-8" standalone="no"?>
<!DOCTYPE svg PUBLIC "-//W3C//DTD SVG 1.1//EN"
 "http://www.w3.org/Graphics/SVG/1.1/DTD/svg11.dtd">
<!-- Generated by graphviz version 2.43.0 (0)
 -->
<!-- Title: workers/FetchWorker.cpp Pages: 1 -->
<svg width="1114pt" height="357pt"
 viewBox="0.00 0.00 1113.50 357.00" xmlns="http://www.w3.org/2000/svg" xmlns:xlink="http://www.w3.org/1999/xlink">
<g id="graph0" class="graph" transform="scale(1 1) rotate(0) translate(4 353)">
<title>workers/FetchWorker.cpp</title>
<!-- Node1 -->
<g id="Node000001" class="node">
<title>Node1</title>
<g id="a_Node000001"><a xlink:title=" ">
<polygon fill="#999999" stroke="#666666" points="645.5,-349 508.5,-349 508.5,-330 645.5,-330 645.5,-349"/>
<text text-anchor="middle" x="577" y="-337" font-family="Helvetica,sans-Serif" font-size="10.00">workers/FetchWorker.cpp</text>
</a>
</g>
</g>
<!-- Node2 -->
<g id="Node000002" class="node">
<title>Node2</title>
<g id="a_Node000002"><a xlink:href="FetchWorker_8h.html" target="_top" xlink:title=" ">
<polygon fill="white" stroke="#666666" points="438.5,-294 353.5,-294 353.5,-275 438.5,-275 438.5,-294"/>
<text text-anchor="middle" x="396" y="-282" font-family="Helvetica,sans-Serif" font-size="10.00">FetchWorker.h</text>
</a>
</g>
</g>
<!-- Node1&#45;&gt;Node2 -->
<g id="edge1_Node000001_Node000002" class="edge">
<title>Node1&#45;&gt;Node2</title>
<g id="a_edge1_Node000001_Node000002"><a xlink:title=" ">
<path fill="none" stroke="#63b8ff" d="M547.92,-329.98C517.4,-321.05 469.24,-306.94 435.34,-297.02"/>
<polygon fill="#63b8ff" stroke="#63b8ff" points="435.89,-293.53 425.31,-294.08 433.92,-300.25 435.89,-293.53"/>
</a>
</g>
</g>
<!-- Node8 -->
<g id="Node000008" class="node">
<title>Node8</title>
<g id="a_Node000008"><a xlink:title=" ">
<polygon fill="#e0e0e0" stroke="#999999" points="270,-19 194,-19 194,0 270,0 270,-19"/>
<text text-anchor="middle" x="232" y="-7" font-family="Helvetica,sans-Serif" font-size="10.00">QJsonObject</text>
</a>
</g>
</g>
<!-- Node1&#45;&gt;Node8 -->
<g id="edge44_Node000001_Node000008" class="edge">
<title>Node1&#45;&gt;Node8</title>
<g id="a_edge44_Node000001_Node000008"><a xlink:title=" ">
<path fill="none" stroke="#63b8ff" d="M508.25,-339.3C418.89,-338.64 258.82,-331.57 128,-294 66.96,-276.47 0,-294 0,-230.5 0,-230.5 0,-230.5 0,-118.5 0,-77.67 119.61,-39.79 187.06,-21.68"/>
<polygon fill="#63b8ff" stroke="#63b8ff" points="188.24,-24.99 197.02,-19.05 186.45,-18.22 188.24,-24.99"/>
</a>
</g>
</g>
<!-- Node17 -->
<g id="Node000017" class="node">
<title>Node17</title>
<g id="a_Node000017"><a xlink:title=" ">
<polygon fill="#e0e0e0" stroke="#999999" points="119.5,-184 28.5,-184 28.5,-165 119.5,-165 119.5,-184"/>
<text text-anchor="middle" x="74" y="-172" font-family="Helvetica,sans-Serif" font-size="10.00">QElapsedTimer</text>
</a>
</g>
</g>
<!-- Node1&#45;&gt;Node17 -->
<g id="edge41_Node000001_Node000017" class="edge">
<title>Node1&#45;&gt;Node17</title>
<g id="a_edge41_Node000001_Node000017"><a xlink:title=" ">
<path fill="none" stroke="#63b8ff" d="M508.32,-335.62C383.4,-328.75 127.06,-306.57 75,-239 65.34,-226.46 66.2,-208 68.82,-194.22"/>
<polygon fill="#63b8ff" stroke="#63b8ff" points="72.26,-194.9 71.13,-184.37 65.44,-193.3 72.26,-194.9"/>
</a>
</g>
</g>
<!-- Node19 -->
<g id="Node000019" class="node">
<title>Node19</title>
<g id="a_Node000019"><a xlink:title=" ">
<polygon fill="#e0e0e0" stroke="#999999" points="139.5,-239 84.5,-239 84.5,-220 139.5,-220 139.5,-239"/>
<text text-anchor="middle" x="112" y="-227" font-family="Helvetica,sans-Serif" font-size="10.00">QMutex</text>
</a>
</g>
</g>
<!-- Node1&#45;&gt;Node19 -->
<g id="edge45_Node000001_Node000019" class="edge">
<title>Node1&#45;&gt;Node19</title>
<g id="a_edge45_Node000001_Node000019"><a xlink:title=" ">
<path fill="none" stroke="#63b8ff" d="M526.53,-329.97C479.38,-321.73 407.13,-308.4 345,-294 275.51,-277.89 195.48,-255.15 149.6,-241.7"/>
<polygon fill="#63b8ff" stroke="#63b8ff" points="150.38,-238.28 139.8,-238.82 148.41,-245 150.38,-238.28"/>
</a>
</g>
</g>
<!-- Node21 -->
<g id="Node000021" class="node">
<title>Node21</title>
<g id="a_Node000021"><a xlink:title=" ">
<polygon fill="#e0e0e0" stroke="#999999" points="995.5,-239 902.5,-239 902.5,-220 995.5,-220 995.5,-239"/>
<text text-anchor="middle" x="949" y="-227" font-family="Helvetica,sans-Serif" font-size="10.00">QNetworkReply</text>
</a>
</g>
</g>
<!-- Node1&#45;&gt;Node21 -->
<g id="edge46_Node000001_Node000021" class="edge">
<title>Node1&#45;&gt;Node21</title>
<g id="a_edge46_Node000001_Node000021"><a xlink:title=" ">
<path fill="none" stroke="#63b8ff" d="M545.6,-329.99C511.27,-319.23 463.89,-299.16 486,-275 515.1,-243.21 815.06,-244.21 891.93,-238.75"/>
<polygon fill="#63b8ff" stroke="#63b8ff" points="892.64,-242.2 902.28,-237.81 892,-235.23 892.64,-242.2"/>
</a>
</g>
</g>
<!-- Node25 -->
<g id="Node000025" class="node">
<title>Node25</title>
<g id="a_Node000025"><a xlink:title=" ">
<polygon fill="#e0e0e0" stroke="#999999" points="567,-294 495,-294 495,-275 567,-275 567,-294"/>
<text text-anchor="middle" x="531" y="-282" font-family="Helvetica,sans-Serif" font-size="10.00">QDateTime</text>
</a>
</g>
</g>
<!-- Node1&#45;&gt;Node25 -->
<g id="edge40_Node000001_Node000025" class="edge">
<title>Node1&#45;&gt;Node25</title>
<g id="a_edge40_Node000001_Node000025"><a xlink:title=" ">
<path fill="none" stroke="#63b8ff" d="M569.4,-329.75C562.84,-322.18 553.18,-311.05 545.19,-301.84"/>
<polygon fill="#63b8ff" stroke="#63b8ff" points="547.65,-299.35 538.45,-294.09 542.37,-303.94 547.65,-299.35"/>
</a>
</g>
</g>
<!-- Node26 -->
<g id="Node000026" class="node">
<title>Node26</title>
<g id="a_Node000026"><a xlink:title=" ">
<polygon fill="#e0e0e0" stroke="#999999" points="660.5,-294 585.5,-294 585.5,-275 660.5,-275 660.5,-294"/>
<text text-anchor="middle" x="623" y="-282" font-family="Helvetica,sans-Serif" font-size="10.00">QEventLoop</text>
</a>
</g>
</g>
<!-- Node1&#45;&gt;Node26 -->
<g id="edge42_Node000001_Node000026" class="edge">
<title>Node1&#45;&gt;Node26</title>
<g id="a_edge42_Node000001_Node000026"><a xlink:title=" ">
<path fill="none" stroke="#63b8ff" d="M584.6,-329.75C591.16,-322.18 600.82,-311.05 608.81,-301.84"/>
<polygon fill="#63b8ff" stroke="#63b8ff" points="611.63,-303.94 615.55,-294.09 606.35,-299.35 611.63,-303.94"/>
</a>
</g>
</g>
<!-- Node27 -->
<g id="Node000027" class="node">
<title>Node27</title>
<g id="a_Node000027"><a xlink:title=" ">
<polygon fill="#e0e0e0" stroke="#999999" points="773.5,-294 678.5,-294 678.5,-275 773.5,-275 773.5,-294"/>
<text text-anchor="middle" x="726" y="-282" font-family="Helvetica,sans-Serif" font-size="10.00">QJsonDocument</text>
</a>
</g>
</g>
<!-- Node1&#45;&gt;Node27 -->
<g id="edge43_Node000001_Node000027" class="edge">
<title>Node1&#45;&gt;Node27</title>
<g id="a_edge43_Node000001_Node000027"><a xlink:title=" ">
<path fill="none" stroke="#63b8ff" d="M600.94,-329.98C625.56,-321.23 664.12,-307.51 691.92,-297.62"/>
<polygon fill="#63b8ff" stroke="#63b8ff" points="693.38,-300.82 701.62,-294.17 691.03,-294.22 693.38,-300.82"/>
</a>
</g>
</g>
<!-- Node28 -->
<g id="Node000028" class="node">
<title>Node28</title>
<g id="a_Node000028"><a xlink:title=" ">
<polygon fill="#e0e0e0" stroke="#999999" points="896.5,-294 791.5,-294 791.5,-275 896.5,-275 896.5,-294"/>
<text text-anchor="middle" x="844" y="-282" font-family="Helvetica,sans-Serif" font-size="10.00">QNetworkRequest</text>
</a>
</g>
</g>
<!-- Node1&#45;&gt;Node28 -->
<g id="edge47_Node000001_Node000028" class="edge">
<title>Node1&#45;&gt;Node28</title>
<g id="a_edge47_Node000001_Node000028"><a xlink:title=" ">
<path fill="none" stroke="#63b8ff" d="M619.9,-329.98C666.37,-320.76 740.59,-306.03 790.76,-296.07"/>
<polygon fill="#63b8ff" stroke="#63b8ff" points="791.64,-299.46 800.77,-294.08 790.28,-292.6 791.64,-299.46"/>
</a>
</g>
</g>
<!-- Node29 -->
<g id="Node000029" class="node">
<title>Node29</title>
<g id="a_Node000029"><a xlink:title=" ">
<polygon fill="#e0e0e0" stroke="#999999" points="973,-294 915,-294 915,-275 973,-275 973,-294"/>
<text text-anchor="middle" x="944" y="-282" font-family="Helvetica,sans-Serif" font-size="10.00">QThread</text>
</a>
</g>
</g>
<!-- Node1&#45;&gt;Node29 -->
<g id="edge48_Node000001_Node000029" class="edge">
<title>Node1&#45;&gt;Node29</title>
<g id="a_edge48_Node000001_Node000029"><a xlink:title=" ">
<path fill="none" stroke="#63b8ff" d="M645.63,-330.95C710.09,-323.47 809.43,-310.93 904.51,-294.14"/>
<polygon fill="#63b8ff" stroke="#63b8ff" points="905.36,-297.54 914.59,-292.34 904.13,-290.65 905.36,-297.54"/>
</a>
</g>
</g>
<!-- Node30 -->
<g id="Node000030" class="node">
<title>Node30</title>
<g id="a_Node000030"><a xlink:title=" ">
<polygon fill="#e0e0e0" stroke="#999999" points="1044.5,-294 991.5,-294 991.5,-275 1044.5,-275 1044.5,-294"/>
<text text-anchor="middle" x="1018" y="-282" font-family="Helvetica,sans-Serif" font-size="10.00">QTimer</text>
</a>
</g>
</g>
<!-- Node1&#45;&gt;Node30 -->
<g id="edge49_Node000001_Node000030" class="edge">
<title>Node1&#45;&gt;Node30</title>
<g id="a_edge49_Node000001_Node000030"><a xlink:title=" ">
<path fill="none" stroke="#63b8ff" d="M645.79,-333.52C724.53,-327.25 857.48,-314.89 981.3,-293.9"/>
<polygon fill="#63b8ff" stroke="#63b8ff" points="982.07,-297.32 991.34,-292.18 980.89,-290.42 982.07,-297.32"/>
</a>
</g>
</g>
<!-- Node31 -->
<g id="Node000031" class="node">
<title>Node31</title>
<g id="a_Node000031"><a xlink:title=" ">
<polygon fill="#e0e0e0" stroke="#999999" points="1105.5,-294 1062.5,-294 1062.5,-275 1105.5,-275 1105.5,-294"/>
<text text-anchor="middle" x="1084" y="-282" font-family="Helvetica,sans-Serif" font-size="10.00">zlib.h</text>
</a>
</g>
</g>
<!-- Node1&#45;&gt;Node31 -->
<g id="edge50_Node000001_Node000031" class="edge">
<title>Node1&#45;&gt;Node31</title>
<g id="a_edge50_Node000001_Node000031"><a xlink:title=" ">
<path fill="none" stroke="#63b8ff" d="M645.87,-336.03C737.09,-331.88 902.99,-321.29 1052.65,-293.93"/>
<polygon fill="#63b8ff" stroke="#63b8ff" points="1053.29,-297.37 1062.48,-292.11 1052.01,-290.49 1053.29,-297.37"/>
</a>
</g>
</g>
<!-- Node3 -->
<g id="Node000003" class="node">
<title>Node3</title>
<g id="a_Node000003"><a xlink:href="ComponentExportStatus_8h.html" target="_top" xlink:title=" ">
<polygon fill="white" stroke="#666666" points="560.5,-239 377.5,-239 377.5,-220 560.5,-220 560.5,-239"/>
<text text-anchor="middle" x="469" y="-227" font-family="Helvetica,sans-Serif" font-size="10.00">models/ComponentExportStatus.h</text>
</a>
</g>
</g>
<!-- Node2&#45;&gt;Node3 -->
<g id="edge2_Node000002_Node000003" class="edge">
<title>Node2&#45;&gt;Node3</title>
<g id="a_edge2_Node000002_Node000003"><a xlink:title=" ">
<path fill="none" stroke="#63b8ff" d="M407.73,-274.98C418.73,-267 435.42,-254.88 448.6,-245.31"/>
<polygon fill="#63b8ff" stroke="#63b8ff" points="451.02,-247.88 457.06,-239.17 446.91,-242.21 451.02,-247.88"/>
</a>
</g>
</g>
<!-- Node18 -->
<g id="Node000018" class="node">
<title>Node18</title>
<g id="a_Node000018"><a xlink:title=" ">
<polygon fill="#e0e0e0" stroke="#999999" points="649.5,-239 578.5,-239 578.5,-220 649.5,-220 649.5,-239"/>
<text text-anchor="middle" x="614" y="-227" font-family="Helvetica,sans-Serif" font-size="10.00">QAtomicInt</text>
</a>
</g>
</g>
<!-- Node2&#45;&gt;Node18 -->
<g id="edge33_Node000002_Node000018" class="edge">
<title>Node2&#45;&gt;Node18</title>
<g id="a_edge33_Node000002_Node000018"><a xlink:title=" ">
<path fill="none" stroke="#63b8ff" d="M431.03,-274.98C468.5,-265.87 528.05,-251.4 568.98,-241.45"/>
<polygon fill="#63b8ff" stroke="#63b8ff" points="569.81,-244.85 578.7,-239.08 568.16,-238.04 569.81,-244.85"/>
</a>
</g>
</g>
<!-- Node2&#45;&gt;Node19 -->
<g id="edge34_Node000002_Node000019" class="edge">
<title>Node2&#45;&gt;Node19</title>
<g id="a_edge34_Node000002_Node000019"><a xlink:title=" ">
<path fill="none" stroke="#63b8ff" d="M353.3,-276.56C305.8,-268.69 226.58,-255.07 149.72,-239.28"/>
<polygon fill="#63b8ff" stroke="#63b8ff" points="150.38,-235.84 139.87,-237.24 148.96,-242.69 150.38,-235.84"/>
</a>
</g>
</g>
<!-- Node20 -->
<g id="Node000020" class="node">
<title>Node20</title>
<g id="a_Node000020"><a xlink:title=" ">
<polygon fill="#e0e0e0" stroke="#999999" points="810,-239 668,-239 668,-220 810,-220 810,-239"/>
<text text-anchor="middle" x="739" y="-227" font-family="Helvetica,sans-Serif" font-size="10.00">QNetworkAccessManager</text>
</a>
</g>
</g>
<!-- Node2&#45;&gt;Node20 -->
<g id="edge35_Node000002_Node000020" class="edge">
<title>Node2&#45;&gt;Node20</title>
<g id="a_edge35_Node000002_Node000020"><a xlink:title=" ">
<path fill="none" stroke="#63b8ff" d="M438.75,-276.89C497.8,-267.77 604.85,-251.23 673.88,-240.56"/>
<polygon fill="#63b8ff" stroke="#63b8ff" points="674.43,-244.02 683.78,-239.03 673.37,-237.1 674.43,-244.02"/>
</a>
</g>
</g>
<!-- Node2&#45;&gt;Node21 -->
<g id="edge36_Node000002_Node000021" class="edge">
<title>Node2&#45;&gt;Node21</title>
<g id="a_edge36_Node000002_Node000021"><a xlink:title=" ">
<path fill="none" stroke="#63b8ff" d="M438.6,-276.83C443.45,-276.17 448.33,-275.54 453,-275 644.68,-252.89 696.41,-261.44 892.24,-239"/>
<polygon fill="#63b8ff" stroke="#63b8ff" points="892.75,-242.47 902.28,-237.84 891.95,-235.51 892.75,-242.47"/>
</a>
</g>
</g>
<!-- Node22 -->
<g id="Node000022" class="node">
<title>Node22</title>
<g id="a_Node000022"><a xlink:title=" ">
<polygon fill="#e0e0e0" stroke="#999999" points="884,-239 828,-239 828,-220 884,-220 884,-239"/>
<text text-anchor="middle" x="856" y="-227" font-family="Helvetica,sans-Serif" font-size="10.00">QObject</text>
</a>
</g>
</g>
<!-- Node2&#45;&gt;Node22 -->
<g id="edge37_Node000002_Node000022" class="edge">
<title>Node2&#45;&gt;Node22</title>
<g id="a_edge37_Node000002_Node000022"><a xlink:title=" ">
<path fill="none" stroke="#63b8ff" d="M438.61,-276.91C443.46,-276.23 448.33,-275.58 453,-275 611.89,-255.35 655.89,-264.94 817.49,-239.04"/>
<polygon fill="#63b8ff" stroke="#63b8ff" points="818.48,-242.43 827.79,-237.37 817.36,-235.52 818.48,-242.43"/>
</a>
</g>
</g>
<!-- Node23 -->
<g id="Node000023" class="node">
<title>Node23</title>
<g id="a_Node000023"><a xlink:title=" ">
<polygon fill="#e0e0e0" stroke="#999999" points="270.5,-239 157.5,-239 157.5,-220 270.5,-220 270.5,-239"/>
<text text-anchor="middle" x="214" y="-227" font-family="Helvetica,sans-Serif" font-size="10.00">QRandomGenerator</text>
</a>
</g>
</g>
<!-- Node2&#45;&gt;Node23 -->
<g id="edge38_Node000002_Node000023" class="edge">
<title>Node2&#45;&gt;Node23</title>
<g id="a_edge38_Node000002_Node000023"><a xlink:title=" ">
<path fill="none" stroke="#63b8ff" d="M366.76,-274.98C335.94,-266.01 287.22,-251.82 253.11,-241.89"/>
<polygon fill="#63b8ff" stroke="#63b8ff" points="254.05,-238.52 243.47,-239.08 252.09,-245.24 254.05,-238.52"/>
</a>
</g>
</g>
<!-- Node24 -->
<g id="Node000024" class="node">
<title>Node24</title>
<g id="a_Node000024"><a xlink:title=" ">
<polygon fill="#e0e0e0" stroke="#999999" points="359,-239 289,-239 289,-220 359,-220 359,-239"/>
<text text-anchor="middle" x="324" y="-227" font-family="Helvetica,sans-Serif" font-size="10.00">QRunnable</text>
</a>
</g>
</g>
<!-- Node2&#45;&gt;Node24 -->
<g id="edge39_Node000002_Node000024" class="edge">
<title>Node2&#45;&gt;Node24</title>
<g id="a_edge39_Node000002_Node000024"><a xlink:title=" ">
<path fill="none" stroke="#63b8ff" d="M384.43,-274.98C373.58,-267 357.12,-254.88 344.12,-245.31"/>
<polygon fill="#63b8ff" stroke="#63b8ff" points="345.91,-242.28 335.78,-239.17 341.76,-247.92 345.91,-242.28"/>
</a>
</g>
</g>
<!-- Node4 -->
<g id="Node000004" class="node">
<title>Node4</title>
<g id="a_Node000004"><a xlink:href="ComponentData_8h.html" target="_top" xlink:title=" ">
<polygon fill="white" stroke="#666666" points="519,-184 375,-184 375,-165 519,-165 519,-184"/>
<text text-anchor="middle" x="447" y="-172" font-family="Helvetica,sans-Serif" font-size="10.00">models/ComponentData.h</text>
</a>
</g>
</g>
<!-- Node3&#45;&gt;Node4 -->
<g id="edge3_Node000003_Node000004" class="edge">
<title>Node3&#45;&gt;Node4</title>
<g id="a_edge3_Node000003_Node000004"><a xlink:title=" ">
<path fill="none" stroke="#63b8ff" d="M465.37,-219.75C462.42,-212.65 458.17,-202.4 454.49,-193.56"/>
<polygon fill="#63b8ff" stroke="#63b8ff" points="457.63,-191.98 450.57,-184.09 451.17,-194.67 457.63,-191.98"/>
</a>
</g>
</g>
<!-- Node5 -->
<g id="Node000005" class="node">
<title>Node5</title>
<g id="a_Node000005"><a xlink:href="FootprintData_8h.html" target="_top" xlink:title=" ">
<polygon fill="white" stroke="#666666" points="393,-129 301,-129 301,-110 393,-110 393,-129"/>
<text text-anchor="middle" x="347" y="-117" font-family="Helvetica,sans-Serif" font-size="10.00">FootprintData.h</text>
</a>
</g>
</g>
<!-- Node3&#45;&gt;Node5 -->
<g id="edge26_Node000003_Node000005" class="edge">
<title>Node3&#45;&gt;Node5</title>
<g id="a_edge26_Node000003_Node000005"><a xlink:title=" ">
<path fill="none" stroke="#63b8ff" d="M429.17,-219.99C407.72,-213.5 382.37,-202.41 366,-184 355.13,-171.77 350.47,-153.54 348.48,-139.74"/>
<polygon fill="#63b8ff" stroke="#63b8ff" points="351.92,-138.99 347.36,-129.43 344.96,-139.75 351.92,-138.99"/>
</a>
</g>
</g>
<!-- Node6 -->
<g id="Node000006" class="node">
<title>Node6</title>
<g id="a_Node000006"><a xlink:href="Model3DData_8h.html" target="_top" xlink:title=" ">
<polygon fill="white" stroke="#666666" points="194,-74 102,-74 102,-55 194,-55 194,-74"/>
<text text-anchor="middle" x="148" y="-62" font-family="Helvetica,sans-Serif" font-size="10.00">Model3DData.h</text>
</a>
</g>
</g>
<!-- Node3&#45;&gt;Node6 -->
<g id="edge27_Node000003_Node000006" class="edge">
<title>Node3&#45;&gt;Node6</title>
<g id="a_edge27_Node000003_Node000006"><a xlink:title=" ">
<path fill="none" stroke="#63b8ff" d="M402.82,-219.98C339.45,-208.79 244.37,-183.7 181,-129 167.21,-117.1 158.39,-98 153.37,-83.85"/>
<polygon fill="#63b8ff" stroke="#63b8ff" points="156.66,-82.64 150.26,-74.2 150,-84.79 156.66,-82.64"/>
</a>
</g>
</g>
<!-- Node9 -->
<g id="Node000009" class="node">
<title>Node9</title>
<g id="a_Node000009"><a xlink:title=" ">
<polygon fill="#e0e0e0" stroke="#999999" points="692.5,-19 639.5,-19 639.5,0 692.5,0 692.5,-19"/>
<text text-anchor="middle" x="666" y="-7" font-family="Helvetica,sans-Serif" font-size="10.00">QString</text>
</a>
</g>
</g>
<!-- Node3&#45;&gt;Node9 -->
<g id="edge32_Node000003_Node000009" class="edge">
<title>Node3&#45;&gt;Node9</title>
<g id="a_edge32_Node000003_Node000009"><a xlink:title=" ">
<path fill="none" stroke="#63b8ff" d="M542.65,-219.94C579.39,-213.57 623.63,-202.62 660,-184 693.08,-167.06 707.62,-162.84 723,-129 739.9,-91.82 705.34,-48.73 682.99,-26.15"/>
<polygon fill="#63b8ff" stroke="#63b8ff" points="685.31,-23.52 675.7,-19.06 680.43,-28.54 685.31,-23.52"/>
</a>
</g>
</g>
<!-- Node13 -->
<g id="Node000013" class="node">
<title>Node13</title>
<g id="a_Node000013"><a xlink:href="SymbolData_8h.html" target="_top" xlink:title=" ">
<polygon fill="white" stroke="#666666" points="564,-129 478,-129 478,-110 564,-110 564,-129"/>
<text text-anchor="middle" x="521" y="-117" font-family="Helvetica,sans-Serif" font-size="10.00">SymbolData.h</text>
</a>
</g>
</g>
<!-- Node3&#45;&gt;Node13 -->
<g id="edge28_Node000003_Node000013" class="edge">
<title>Node3&#45;&gt;Node13</title>
<g id="a_edge28_Node000003_Node000013"><a xlink:title=" ">
<path fill="none" stroke="#63b8ff" d="M488.27,-219.9C502.12,-212.55 519.76,-200.54 528,-184 534.96,-170.04 532.16,-152.26 528.22,-139.06"/>
<polygon fill="#63b8ff" stroke="#63b8ff" points="531.41,-137.56 524.84,-129.24 524.79,-139.84 531.41,-137.56"/>
</a>
</g>
</g>
<!-- Node15 -->
<g id="Node000015" class="node">
<title>Node15</title>
<g id="a_Node000015"><a xlink:title=" ">
<polygon fill="#e0e0e0" stroke="#999999" points="714,-129 622,-129 622,-110 714,-110 714,-129"/>
<text text-anchor="middle" x="668" y="-117" font-family="Helvetica,sans-Serif" font-size="10.00">QSharedPointer</text>
</a>
</g>
</g>
<!-- Node3&#45;&gt;Node15 -->
<g id="edge31_Node000003_Node000015" class="edge">
<title>Node3&#45;&gt;Node15</title>
<g id="a_edge31_Node000003_Node000015"><a xlink:title=" ">
<path fill="none" stroke="#63b8ff" d="M560.94,-220.15C588.84,-213.77 617.92,-202.79 640,-184 653.45,-172.55 660.68,-153.39 664.4,-139.1"/>
<polygon fill="#63b8ff" stroke="#63b8ff" points="667.82,-139.86 666.61,-129.33 660.99,-138.32 667.82,-139.86"/>
</a>
</g>
</g>
<!-- Node16 -->
<g id="Node000016" class="node">
<title>Node16</title>
<g id="a_Node000016"><a xlink:title=" ">
<polygon fill="#e0e0e0" stroke="#999999" points="631,-184 575,-184 575,-165 631,-165 631,-184"/>
<text text-anchor="middle" x="603" y="-172" font-family="Helvetica,sans-Serif" font-size="10.00">QDebug</text>
</a>
</g>
</g>
<!-- Node3&#45;&gt;Node16 -->
<g id="edge29_Node000003_Node000016" class="edge">
<title>Node3&#45;&gt;Node16</title>
<g id="a_edge29_Node000003_Node000016"><a xlink:title=" ">
<path fill="none" stroke="#63b8ff" d="M490.53,-219.98C512.47,-211.3 546.74,-197.75 571.69,-187.88"/>
<polygon fill="#63b8ff" stroke="#63b8ff" points="573.07,-191.1 581.08,-184.17 570.49,-184.59 573.07,-191.1"/>
</a>
</g>
</g>
<!-- Node3&#45;&gt;Node17 -->
<g id="edge30_Node000003_Node000017" class="edge">
<title>Node3&#45;&gt;Node17</title>
<g id="a_edge30_Node000003_Node000017"><a xlink:title=" ">
<path fill="none" stroke="#63b8ff" d="M403.5,-219.97C335.96,-211.13 227.58,-196.84 134,-184 132.53,-183.8 131.05,-183.59 129.55,-183.39"/>
<polygon fill="#63b8ff" stroke="#63b8ff" points="129.92,-179.9 119.53,-181.99 128.95,-186.84 129.92,-179.9"/>
</a>
</g>
</g>
<!-- Node4&#45;&gt;Node5 -->
<g id="edge4_Node000004_Node000005" class="edge">
<title>Node4&#45;&gt;Node5</title>
<g id="a_edge4_Node000004_Node000005"><a xlink:title=" ">
<path fill="none" stroke="#63b8ff" d="M430.93,-164.98C415.14,-156.61 390.78,-143.7 372.37,-133.95"/>
<polygon fill="#63b8ff" stroke="#63b8ff" points="373.83,-130.76 363.36,-129.17 370.56,-136.95 373.83,-130.76"/>
</a>
</g>
</g>
<!-- Node4&#45;&gt;Node6 -->
<g id="edge14_Node000004_Node000006" class="edge">
<title>Node4&#45;&gt;Node6</title>
<g id="a_edge14_Node000004_Node000006"><a xlink:title=" ">
<path fill="none" stroke="#63b8ff" d="M374.82,-171.23C325.83,-167.07 260.94,-156.26 210,-129 189.08,-117.8 170.89,-97.09 159.71,-82.37"/>
<polygon fill="#63b8ff" stroke="#63b8ff" points="162.42,-80.14 153.7,-74.11 156.76,-84.26 162.42,-80.14"/>
</a>
</g>
</g>
<!-- Node4&#45;&gt;Node8 -->
<g id="edge23_Node000004_Node000008" class="edge">
<title>Node4&#45;&gt;Node8</title>
<g id="a_edge23_Node000004_Node000008"><a xlink:title=" ">
<path fill="none" stroke="#63b8ff" d="M374.62,-165.11C346.43,-158.87 315.35,-147.98 292,-129 259.9,-102.91 243.33,-55.2 236.28,-28.98"/>
<polygon fill="#63b8ff" stroke="#63b8ff" points="239.65,-28.03 233.83,-19.18 232.86,-29.74 239.65,-28.03"/>
</a>
</g>
</g>
<!-- Node4&#45;&gt;Node9 -->
<g id="edge25_Node000004_Node000009" class="edge">
<title>Node4&#45;&gt;Node9</title>
<g id="a_edge25_Node000004_Node000009"><a xlink:title=" ">
<path fill="none" stroke="#63b8ff" d="M476.16,-164.98C502.11,-156.98 540.84,-144.02 573,-129 583.88,-123.92 660.05,-84.43 666,-74 673.68,-60.53 672.92,-42.7 670.68,-29.36"/>
<polygon fill="#63b8ff" stroke="#63b8ff" points="674.07,-28.48 668.6,-19.41 667.22,-29.91 674.07,-28.48"/>
</a>
</g>
</g>
<!-- Node10 -->
<g id="Node000010" class="node">
<title>Node10</title>
<g id="a_Node000010"><a xlink:title=" ">
<polygon fill="#e0e0e0" stroke="#999999" points="529.5,-74 458.5,-74 458.5,-55 529.5,-55 529.5,-74"/>
<text text-anchor="middle" x="494" y="-62" font-family="Helvetica,sans-Serif" font-size="10.00">QJsonArray</text>
</a>
</g>
</g>
<!-- Node4&#45;&gt;Node10 -->
<g id="edge22_Node000004_Node000010" class="edge">
<title>Node4&#45;&gt;Node10</title>
<g id="a_edge22_Node000004_Node000010"><a xlink:title=" ">
<path fill="none" stroke="#63b8ff" d="M449.51,-164.68C453.17,-152.24 460.48,-128.94 469,-110 473.13,-100.81 478.53,-91 483.25,-82.94"/>
<polygon fill="#63b8ff" stroke="#63b8ff" points="486.39,-84.5 488.54,-74.13 480.39,-80.9 486.39,-84.5"/>
</a>
</g>
</g>
<!-- Node4&#45;&gt;Node13 -->
<g id="edge15_Node000004_Node000013" class="edge">
<title>Node4&#45;&gt;Node13</title>
<g id="a_edge15_Node000004_Node000013"><a xlink:title=" ">
<path fill="none" stroke="#63b8ff" d="M458.89,-164.98C470.15,-156.92 487.29,-144.65 500.71,-135.03"/>
<polygon fill="#63b8ff" stroke="#63b8ff" points="502.8,-137.84 508.89,-129.17 498.73,-132.15 502.8,-137.84"/>
</a>
</g>
</g>
<!-- Node4&#45;&gt;Node15 -->
<g id="edge24_Node000004_Node000015" class="edge">
<title>Node4&#45;&gt;Node15</title>
<g id="a_edge24_Node000004_Node000015"><a xlink:title=" ">
<path fill="none" stroke="#63b8ff" d="M482.51,-164.98C520.49,-155.87 580.87,-141.4 622.36,-131.45"/>
<polygon fill="#63b8ff" stroke="#63b8ff" points="623.31,-134.82 632.21,-129.08 621.67,-128.01 623.31,-134.82"/>
</a>
</g>
</g>
<!-- Node5&#45;&gt;Node6 -->
<g id="edge5_Node000005_Node000006" class="edge">
<title>Node5&#45;&gt;Node6</title>
<g id="a_edge5_Node000005_Node000006"><a xlink:title=" ">
<path fill="none" stroke="#63b8ff" d="M315.03,-109.98C281.18,-100.97 227.6,-86.7 190.29,-76.76"/>
<polygon fill="#63b8ff" stroke="#63b8ff" points="190.79,-73.27 180.22,-74.08 188.99,-80.04 190.79,-73.27"/>
</a>
</g>
</g>
<!-- Node5&#45;&gt;Node8 -->
<g id="edge10_Node000005_Node000008" class="edge">
<title>Node5&#45;&gt;Node8</title>
<g id="a_edge10_Node000005_Node000008"><a xlink:title=" ">
<path fill="none" stroke="#63b8ff" d="M332.67,-109.95C319.34,-101.65 299.29,-88.24 284,-74 268.75,-59.8 253.95,-41.1 244.07,-27.68"/>
<polygon fill="#63b8ff" stroke="#63b8ff" points="246.75,-25.41 238.06,-19.35 241.07,-29.5 246.75,-25.41"/>
</a>
</g>
</g>
<!-- Node5&#45;&gt;Node9 -->
<g id="edge13_Node000005_Node000009" class="edge">
<title>Node5&#45;&gt;Node9</title>
<g id="a_edge13_Node000005_Node000009"><a xlink:title=" ">
<path fill="none" stroke="#63b8ff" d="M337.25,-109.82C323.68,-96.72 302.33,-71.65 317,-55 337.44,-31.79 544.02,-17.45 629.39,-12.47"/>
<polygon fill="#63b8ff" stroke="#63b8ff" points="629.63,-15.97 639.41,-11.9 629.23,-8.98 629.63,-15.97"/>
</a>
</g>
</g>
<!-- Node5&#45;&gt;Node10 -->
<g id="edge9_Node000005_Node000010" class="edge">
<title>Node5&#45;&gt;Node10</title>
<g id="a_edge9_Node000005_Node000010"><a xlink:title=" ">
<path fill="none" stroke="#63b8ff" d="M370.62,-109.98C394.9,-101.23 432.95,-87.51 460.37,-77.62"/>
<polygon fill="#63b8ff" stroke="#63b8ff" points="461.73,-80.85 469.95,-74.17 459.36,-74.27 461.73,-80.85"/>
</a>
</g>
</g>
<!-- Node11 -->
<g id="Node000011" class="node">
<title>Node11</title>
<g id="a_Node000011"><a xlink:title=" ">
<polygon fill="#e0e0e0" stroke="#999999" points="367.5,-74 326.5,-74 326.5,-55 367.5,-55 367.5,-74"/>
<text text-anchor="middle" x="347" y="-62" font-family="Helvetica,sans-Serif" font-size="10.00">QList</text>
</a>
</g>
</g>
<!-- Node5&#45;&gt;Node11 -->
<g id="edge11_Node000005_Node000011" class="edge">
<title>Node5&#45;&gt;Node11</title>
<g id="a_edge11_Node000005_Node000011"><a xlink:title=" ">
<path fill="none" stroke="#63b8ff" d="M347,-109.75C347,-102.8 347,-92.85 347,-84.13"/>
<polygon fill="#63b8ff" stroke="#63b8ff" points="350.5,-84.09 347,-74.09 343.5,-84.09 350.5,-84.09"/>
</a>
</g>
</g>
<!-- Node12 -->
<g id="Node000012" class="node">
<title>Node12</title>
<g id="a_Node000012"><a xlink:title=" ">
<polygon fill="#e0e0e0" stroke="#999999" points="440.5,-74 385.5,-74 385.5,-55 440.5,-55 440.5,-74"/>
<text text-anchor="middle" x="413" y="-62" font-family="Helvetica,sans-Serif" font-size="10.00">QPointF</text>
</a>
</g>
</g>
<!-- Node5&#45;&gt;Node12 -->
<g id="edge12_Node000005_Node000012" class="edge">
<title>Node5&#45;&gt;Node12</title>
<g id="a_edge12_Node000005_Node000012"><a xlink:title=" ">
<path fill="none" stroke="#63b8ff" d="M357.6,-109.98C367.46,-102.07 382.35,-90.11 394.22,-80.58"/>
<polygon fill="#63b8ff" stroke="#63b8ff" points="396.6,-83.16 402.2,-74.17 392.21,-77.7 396.6,-83.16"/>
</a>
</g>
</g>
<!-- Node7 -->
<g id="Node000007" class="node">
<title>Node7</title>
<g id="a_Node000007"><a xlink:title=" ">
<polygon fill="#e0e0e0" stroke="#999999" points="175.5,-19 102.5,-19 102.5,0 175.5,0 175.5,-19"/>
<text text-anchor="middle" x="139" y="-7" font-family="Helvetica,sans-Serif" font-size="10.00">QByteArray</text>
</a>
</g>
</g>
<!-- Node6&#45;&gt;Node7 -->
<g id="edge6_Node000006_Node000007" class="edge">
<title>Node6&#45;&gt;Node7</title>
<g id="a_edge6_Node000006_Node000007"><a xlink:title=" ">
<path fill="none" stroke="#63b8ff" d="M146.51,-54.75C145.33,-47.8 143.64,-37.85 142.16,-29.13"/>
<polygon fill="#63b8ff" stroke="#63b8ff" points="145.58,-28.36 140.46,-19.09 138.68,-29.53 145.58,-28.36"/>
</a>
</g>
</g>
<!-- Node6&#45;&gt;Node8 -->
<g id="edge7_Node000006_Node000008" class="edge">
<title>Node6&#45;&gt;Node8</title>
<g id="a_edge7_Node000006_Node000008"><a xlink:title=" ">
<path fill="none" stroke="#63b8ff" d="M161.5,-54.98C174.4,-46.84 194.1,-34.41 209.4,-24.76"/>
<polygon fill="#63b8ff" stroke="#63b8ff" points="211.67,-27.47 218.26,-19.17 207.93,-21.55 211.67,-27.47"/>
</a>
</g>
</g>
<!-- Node6&#45;&gt;Node9 -->
<g id="edge8_Node000006_Node000009" class="edge">
<title>Node6&#45;&gt;Node9</title>
<g id="a_edge8_Node000006_Node000009"><a xlink:title=" ">
<path fill="none" stroke="#63b8ff" d="M194.42,-58.75C296.17,-48.34 537.05,-23.69 629.24,-14.26"/>
<polygon fill="#63b8ff" stroke="#63b8ff" points="629.62,-17.74 639.22,-13.24 628.91,-10.78 629.62,-17.74"/>
</a>
</g>
</g>
<!-- Node13&#45;&gt;Node8 -->
<g id="edge17_Node000013_Node000008" class="edge">
<title>Node13&#45;&gt;Node8</title>
<g id="a_edge17_Node000013_Node000008"><a xlink:title=" ">
<path fill="none" stroke="#63b8ff" d="M528.06,-109.6C537.79,-96.21 552.65,-70.77 539,-55 506.11,-17 358.03,-10.76 280.18,-10.16"/>
<polygon fill="#63b8ff" stroke="#63b8ff" points="280.15,-6.66 270.13,-10.11 280.12,-13.66 280.15,-6.66"/>
</a>
</g>
</g>
<!-- Node13&#45;&gt;Node9 -->
<g id="edge21_Node000013_Node000009" class="edge">
<title>Node13&#45;&gt;Node9</title>
<g id="a_edge21_Node000013_Node000009"><a xlink:title=" ">
<path fill="none" stroke="#63b8ff" d="M564.06,-113.33C591.29,-107.9 625.32,-96.76 647,-74 658.52,-61.9 663.09,-43.1 664.88,-29.09"/>
<polygon fill="#63b8ff" stroke="#63b8ff" points="668.37,-29.38 665.8,-19.11 661.4,-28.74 668.37,-29.38"/>
</a>
</g>
</g>
<!-- Node13&#45;&gt;Node10 -->
<g id="edge16_Node000013_Node000010" class="edge">
<title>Node13&#45;&gt;Node10</title>
<g id="a_edge16_Node000013_Node000010"><a xlink:title=" ">
<path fill="none" stroke="#63b8ff" d="M516.54,-109.75C512.88,-102.57 507.59,-92.18 503.05,-83.27"/>
<polygon fill="#63b8ff" stroke="#63b8ff" points="506.03,-81.41 498.38,-74.09 499.8,-84.59 506.03,-81.41"/>
</a>
</g>
</g>
<!-- Node13&#45;&gt;Node11 -->
<g id="edge18_Node000013_Node000011" class="edge">
<title>Node13&#45;&gt;Node11</title>
<g id="a_edge18_Node000013_Node000011"><a xlink:title=" ">
<path fill="none" stroke="#63b8ff" d="M493.04,-109.98C461.4,-100.35 410.04,-84.7 377.42,-74.76"/>
<polygon fill="#63b8ff" stroke="#63b8ff" points="378.12,-71.32 367.53,-71.75 376.08,-78.02 378.12,-71.32"/>
</a>
</g>
</g>
<!-- Node13&#45;&gt;Node12 -->
<g id="edge19_Node000013_Node000012" class="edge">
<title>Node13&#45;&gt;Node12</title>
<g id="a_edge19_Node000013_Node000012"><a xlink:title=" ">
<path fill="none" stroke="#63b8ff" d="M503.65,-109.98C486.43,-101.54 459.8,-88.47 439.85,-78.68"/>
<polygon fill="#63b8ff" stroke="#63b8ff" points="441.19,-75.43 430.67,-74.17 438.1,-81.72 441.19,-75.43"/>
</a>
</g>
</g>
<!-- Node14 -->
<g id="Node000014" class="node">
<title>Node14</title>
<g id="a_Node000014"><a xlink:title=" ">
<polygon fill="#e0e0e0" stroke="#999999" points="638,-74 586,-74 586,-55 638,-55 638,-74"/>
<text text-anchor="middle" x="612" y="-62" font-family="Helvetica,sans-Serif" font-size="10.00">QRectF</text>
</a>
</g>
</g>
<!-- Node13&#45;&gt;Node14 -->
<g id="edge20_Node000013_Node000014" class="edge">
<title>Node13&#45;&gt;Node14</title>
<g id="a_edge20_Node000013_Node000014"><a xlink:title=" ">
<path fill="none" stroke="#63b8ff" d="M535.62,-109.98C549.86,-101.69 571.75,-88.94 588.45,-79.22"/>
<polygon fill="#63b8ff" stroke="#63b8ff" points="590.23,-82.23 597.11,-74.17 586.71,-76.18 590.23,-82.23"/>
</a>
</g>
</g>
</g>
</svg>
