<?xml version="1.0" encoding="UTF-8" standalone="no"?>
<!DOCTYPE svg PUBLIC "-//W3C//DTD SVG 1.1//EN"
 "http://www.w3.org/Graphics/SVG/1.1/DTD/svg11.dtd">
<!-- Generated by graphviz version 2.43.0 (0)
 -->
<!-- Title: workers/FetchWorker.h Pages: 1 -->
<svg width="574pt" height="291pt"
 viewBox="0.00 0.00 574.00 291.00" xmlns="http://www.w3.org/2000/svg" xmlns:xlink="http://www.w3.org/1999/xlink">
<g id="graph0" class="graph" transform="scale(1 1) rotate(0) translate(4 287)">
<title>workers/FetchWorker.h</title>
<!-- Node1 -->
<g id="Node000001" class="node">
<title>Node1</title>
<g id="a_Node000001"><a xlink:title=" ">
<polygon fill="#999999" stroke="#666666" points="293,-283 167,-283 167,-264 293,-264 293,-283"/>
<text text-anchor="middle" x="230" y="-271" font-family="Helvetica,sans-Serif" font-size="10.00">workers/FetchWorker.h</text>
</a>
</g>
</g>
<!-- Node2 -->
<g id="Node000002" class="node">
<title>Node2</title>
<g id="a_Node000002"><a xlink:href="ExportService__Pipeline_8cpp.html" target="_top" xlink:title=" ">
<polygon fill="white" stroke="#666666" points="128,-96 0,-96 0,-66 128,-66 128,-96"/>
<text text-anchor="start" x="8" y="-84" font-family="Helvetica,sans-Serif" font-size="10.00">services/ExportService</text>
<text text-anchor="middle" x="64" y="-73" font-family="Helvetica,sans-Serif" font-size="10.00">_Pipeline.cpp</text>
</a>
</g>
</g>
<!-- Node1&#45;&gt;Node2 -->
<g id="edge1_Node000001_Node000002" class="edge">
<title>Node1&#45;&gt;Node2</title>
<g id="a_edge1_Node000001_Node000002"><a xlink:title=" ">
<path fill="none" stroke="#63b8ff" d="M215.63,-256.01C183.51,-219.15 106.38,-130.64 76.31,-96.12"/>
<polygon fill="#63b8ff" stroke="#63b8ff" points="213.23,-258.58 222.44,-263.82 218.51,-253.98 213.23,-258.58"/>
</a>
</g>
</g>
<!-- Node3 -->
<g id="Node000003" class="node">
<title>Node3</title>
<g id="a_Node000003"><a xlink:href="ExportService__Pipeline_8h.html" target="_top" xlink:title=" ">
<polygon fill="white" stroke="#666666" points="275,-162 147,-162 147,-132 275,-132 275,-162"/>
<text text-anchor="start" x="155" y="-150" font-family="Helvetica,sans-Serif" font-size="10.00">services/ExportService</text>
<text text-anchor="middle" x="211" y="-139" font-family="Helvetica,sans-Serif" font-size="10.00">_Pipeline.h</text>
</a>
</g>
</g>
<!-- Node1&#45;&gt;Node3 -->
<g id="edge2_Node000001_Node000003" class="edge">
<title>Node1&#45;&gt;Node3</title>
<g id="a_edge2_Node000001_Node000003"><a xlink:title=" ">
<path fill="none" stroke="#63b8ff" d="M216.79,-255.68C211.39,-247.75 205.76,-237.88 203,-228 196.72,-205.55 202.04,-178.35 206.5,-162.14"/>
<polygon fill="#63b8ff" stroke="#63b8ff" points="214.13,-257.96 222.85,-263.97 219.78,-253.83 214.13,-257.96"/>
</a>
</g>
</g>
<!-- Node8 -->
<g id="Node000008" class="node">
<title>Node8</title>
<g id="a_Node000008"><a xlink:href="FetchStageHandler_8h.html" target="_top" xlink:title=" ">
<polygon fill="white" stroke="#666666" points="341.5,-228 212.5,-228 212.5,-198 341.5,-198 341.5,-228"/>
<text text-anchor="start" x="220.5" y="-216" font-family="Helvetica,sans-Serif" font-size="10.00">services/pipeline/stage</text>
<text text-anchor="middle" x="277" y="-205" font-family="Helvetica,sans-Serif" font-size="10.00">/FetchStageHandler.h</text>
</a>
</g>
</g>
<!-- Node1&#45;&gt;Node8 -->
<g id="edge10_Node000001_Node000008" class="edge">
<title>Node1&#45;&gt;Node8</title>
<g id="a_edge10_Node000001_Node000008"><a xlink:title=" ">
<path fill="none" stroke="#63b8ff" d="M243.35,-255.88C250.39,-247.11 258.94,-236.48 265.66,-228.11"/>
<polygon fill="#63b8ff" stroke="#63b8ff" points="240.47,-253.88 236.94,-263.87 245.93,-258.26 240.47,-253.88"/>
</a>
</g>
</g>
<!-- Node10 -->
<g id="Node000010" class="node">
<title>Node10</title>
<g id="a_Node000010"><a xlink:href="FetchWorker_8cpp.html" target="_top" xlink:title=" ">
<polygon fill="white" stroke="#666666" points="496.5,-222.5 359.5,-222.5 359.5,-203.5 496.5,-203.5 496.5,-222.5"/>
<text text-anchor="middle" x="428" y="-210.5" font-family="Helvetica,sans-Serif" font-size="10.00">workers/FetchWorker.cpp</text>
</a>
</g>
</g>
<!-- Node1&#45;&gt;Node10 -->
<g id="edge13_Node000001_Node000010" class="edge">
<title>Node1&#45;&gt;Node10</title>
<g id="a_edge13_Node000001_Node000010"><a xlink:title=" ">
<path fill="none" stroke="#63b8ff" d="M268.56,-261.11C306.85,-249.79 364.7,-232.7 399.17,-222.52"/>
<polygon fill="#63b8ff" stroke="#63b8ff" points="267.39,-257.8 258.79,-263.99 269.37,-264.52 267.39,-257.8"/>
</a>
</g>
</g>
<!-- Node3&#45;&gt;Node2 -->
<g id="edge4_Node000003_Node000002" class="edge">
<title>Node3&#45;&gt;Node2</title>
<g id="a_edge4_Node000003_Node000002"><a xlink:title=" ">
<path fill="none" stroke="#63b8ff" d="M169.47,-127.92C146.24,-117.8 117.71,-105.38 96.18,-96.01"/>
<polygon fill="#63b8ff" stroke="#63b8ff" points="168.17,-131.17 178.74,-131.95 170.97,-124.75 168.17,-131.17"/>
</a>
</g>
</g>
<!-- Node4 -->
<g id="Node000004" class="node">
<title>Node4</title>
<g id="a_Node000004"><a xlink:href="main_8cpp.html" target="_top" xlink:title=" ">
<polygon fill="white" stroke="#666666" points="231,-24.5 169,-24.5 169,-5.5 231,-5.5 231,-24.5"/>
<text text-anchor="middle" x="200" y="-12.5" font-family="Helvetica,sans-Serif" font-size="10.00">main.cpp</text>
</a>
</g>
</g>
<!-- Node3&#45;&gt;Node4 -->
<g id="edge3_Node000003_Node000004" class="edge">
<title>Node3&#45;&gt;Node4</title>
<g id="a_edge3_Node000003_Node000004"><a xlink:title=" ">
<path fill="none" stroke="#63b8ff" d="M190.46,-123.76C184.24,-115.64 178.22,-105.97 175,-96 166.69,-70.24 183.65,-39.68 193.55,-24.9"/>
<polygon fill="#63b8ff" stroke="#63b8ff" points="187.85,-126.11 196.89,-131.63 193.27,-121.67 187.85,-126.11"/>
</a>
</g>
</g>
<!-- Node5 -->
<g id="Node000005" class="node">
<title>Node5</title>
<g id="a_Node000005"><a xlink:href="ExportProgressViewModel_8cpp.html" target="_top" xlink:title=" ">
<polygon fill="white" stroke="#666666" points="435,-30 271,-30 271,0 435,0 435,-30"/>
<text text-anchor="start" x="279" y="-18" font-family="Helvetica,sans-Serif" font-size="10.00">ui/viewmodels/ExportProgress</text>
<text text-anchor="middle" x="353" y="-7" font-family="Helvetica,sans-Serif" font-size="10.00">ViewModel.cpp</text>
</a>
</g>
</g>
<!-- Node3&#45;&gt;Node5 -->
<g id="edge5_Node000003_Node000005" class="edge">
<title>Node3&#45;&gt;Node5</title>
<g id="a_edge5_Node000003_Node000005"><a xlink:title=" ">
<path fill="none" stroke="#63b8ff" d="M284.31,-129.35C315.93,-120.54 347.79,-108.89 357,-96 370.83,-76.65 364.4,-47.46 358.6,-30.2"/>
<polygon fill="#63b8ff" stroke="#63b8ff" points="283.28,-126 274.53,-131.99 285.1,-132.76 283.28,-126"/>
</a>
</g>
</g>
<!-- Node6 -->
<g id="Node000006" class="node">
<title>Node6</title>
<g id="a_Node000006"><a xlink:href="ExportProgressViewModel_8h.html" target="_top" xlink:title=" ">
<polygon fill="white" stroke="#666666" points="348,-96 184,-96 184,-66 348,-66 348,-96"/>
<text text-anchor="start" x="192" y="-84" font-family="Helvetica,sans-Serif" font-size="10.00">ui/viewmodels/ExportProgress</text>
<text text-anchor="middle" x="266" y="-73" font-family="Helvetica,sans-Serif" font-size="10.00">ViewModel.h</text>
</a>
</g>
</g>
<!-- Node3&#45;&gt;Node6 -->
<g id="edge6_Node000003_Node000006" class="edge">
<title>Node3&#45;&gt;Node6</title>
<g id="a_edge6_Node000003_Node000006"><a xlink:title=" ">
<path fill="none" stroke="#63b8ff" d="M229.83,-124.09C237.77,-114.85 246.78,-104.36 253.83,-96.16"/>
<polygon fill="#63b8ff" stroke="#63b8ff" points="227.07,-121.93 223.21,-131.8 232.38,-126.49 227.07,-121.93"/>
</a>
</g>
</g>
<!-- Node7 -->
<g id="Node000007" class="node">
<title>Node7</title>
<g id="a_Node000007"><a xlink:href="ExportSettingsViewModel_8cpp.html" target="_top" xlink:title=" ">
<polygon fill="white" stroke="#666666" points="566,-96 404,-96 404,-66 566,-66 566,-96"/>
<text text-anchor="start" x="412" y="-84" font-family="Helvetica,sans-Serif" font-size="10.00">ui/viewmodels/ExportSettings</text>
<text text-anchor="middle" x="485" y="-73" font-family="Helvetica,sans-Serif" font-size="10.00">ViewModel.cpp</text>
</a>
</g>
</g>
<!-- Node3&#45;&gt;Node7 -->
<g id="edge9_Node000003_Node000007" class="edge">
<title>Node3&#45;&gt;Node7</title>
<g id="a_edge9_Node000003_Node000007"><a xlink:title=" ">
<path fill="none" stroke="#63b8ff" d="M281.01,-129.65C325.53,-119.25 382.57,-105.93 425.01,-96.01"/>
<polygon fill="#63b8ff" stroke="#63b8ff" points="280.07,-126.27 271.13,-131.95 281.66,-133.09 280.07,-126.27"/>
</a>
</g>
</g>
<!-- Node6&#45;&gt;Node4 -->
<g id="edge7_Node000006_Node000004" class="edge">
<title>Node6&#45;&gt;Node4</title>
<g id="a_edge7_Node000006_Node000004"><a xlink:title=" ">
<path fill="none" stroke="#63b8ff" d="M243.94,-58.6C232.07,-47.1 218.07,-33.52 209.12,-24.84"/>
<polygon fill="#63b8ff" stroke="#63b8ff" points="241.74,-61.35 251.35,-65.8 246.61,-56.32 241.74,-61.35"/>
</a>
</g>
</g>
<!-- Node6&#45;&gt;Node5 -->
<g id="edge8_Node000006_Node000005" class="edge">
<title>Node6&#45;&gt;Node5</title>
<g id="a_edge8_Node000006_Node000005"><a xlink:title=" ">
<path fill="none" stroke="#63b8ff" d="M293.52,-59.75C306.61,-50.13 321.93,-38.86 333.75,-30.16"/>
<polygon fill="#63b8ff" stroke="#63b8ff" points="291.29,-57.05 285.31,-65.8 295.44,-62.69 291.29,-57.05"/>
</a>
</g>
</g>
<!-- Node8&#45;&gt;Node3 -->
<g id="edge11_Node000008_Node000003" class="edge">
<title>Node8&#45;&gt;Node3</title>
<g id="a_edge11_Node000008_Node000003"><a xlink:title=" ">
<path fill="none" stroke="#63b8ff" d="M254.98,-190.65C245.31,-181.27 234.23,-170.53 225.61,-162.16"/>
<polygon fill="#63b8ff" stroke="#63b8ff" points="252.74,-193.35 262.35,-197.8 257.61,-188.32 252.74,-193.35"/>
</a>
</g>
</g>
<!-- Node9 -->
<g id="Node000009" class="node">
<title>Node9</title>
<g id="a_Node000009"><a xlink:href="FetchStageHandler_8cpp.html" target="_top" xlink:title=" ">
<polygon fill="white" stroke="#666666" points="424.5,-162 293.5,-162 293.5,-132 424.5,-132 424.5,-162"/>
<text text-anchor="start" x="301.5" y="-150" font-family="Helvetica,sans-Serif" font-size="10.00">services/pipeline/stage</text>
<text text-anchor="middle" x="359" y="-139" font-family="Helvetica,sans-Serif" font-size="10.00">/FetchStageHandler.cpp</text>
</a>
</g>
</g>
<!-- Node8&#45;&gt;Node9 -->
<g id="edge12_Node000008_Node000009" class="edge">
<title>Node8&#45;&gt;Node9</title>
<g id="a_edge12_Node000008_Node000009"><a xlink:title=" ">
<path fill="none" stroke="#63b8ff" d="M303.29,-191.48C315.55,-181.91 329.82,-170.77 340.85,-162.16"/>
<polygon fill="#63b8ff" stroke="#63b8ff" points="300.93,-188.88 295.2,-197.8 305.24,-194.4 300.93,-188.88"/>
</a>
</g>
</g>
</g>
</svg>
