<?xml version="1.0" encoding="UTF-8" standalone="no"?>
<!DOCTYPE svg PUBLIC "-//W3C//DTD SVG 1.1//EN"
 "http://www.w3.org/Graphics/SVG/1.1/DTD/svg11.dtd">
<!-- Generated by graphviz version 2.43.0 (0)
 -->
<!-- Title: workers/FetchWorker.h Pages: 1 -->
<svg width="574pt" height="225pt"
 viewBox="0.00 0.00 574.00 225.00" xmlns="http://www.w3.org/2000/svg" xmlns:xlink="http://www.w3.org/1999/xlink">
<g id="graph0" class="graph" transform="scale(1 1) rotate(0) translate(4 221)">
<title>workers/FetchWorker.h</title>
<!-- Node1 -->
<g id="Node000001" class="node">
<title>Node1</title>
<g id="a_Node000001"><a xlink:title=" ">
<polygon fill="#999999" stroke="#666666" points="301,-217 175,-217 175,-198 301,-198 301,-217"/>
<text text-anchor="middle" x="238" y="-205" font-family="Helvetica,sans-Serif" font-size="10.00">workers/FetchWorker.h</text>
</a>
</g>
</g>
<!-- Node2 -->
<g id="Node000002" class="node">
<title>Node2</title>
<g id="a_Node000002"><a xlink:href="ExportService__Pipeline_8cpp.html" target="_top" xlink:title=" ">
<polygon fill="white" stroke="#666666" points="128,-96 0,-96 0,-66 128,-66 128,-96"/>
<text text-anchor="start" x="8" y="-84" font-family="Helvetica,sans-Serif" font-size="10.00">services/ExportService</text>
<text text-anchor="middle" x="64" y="-73" font-family="Helvetica,sans-Serif" font-size="10.00">_Pipeline.cpp</text>
</a>
</g>
</g>
<!-- Node1&#45;&gt;Node2 -->
<g id="edge1_Node000001_Node000002" class="edge">
<title>Node1&#45;&gt;Node2</title>
<g id="a_edge1_Node000001_Node000002"><a xlink:title=" ">
<path fill="none" stroke="#63b8ff" d="M214,-192.87C199.53,-184.41 180.88,-173.07 165,-162 134.17,-140.51 100.31,-112.77 80.67,-96.24"/>
<polygon fill="#63b8ff" stroke="#63b8ff" points="212.43,-196.01 222.84,-197.99 215.94,-189.95 212.43,-196.01"/>
</a>
</g>
</g>
<!-- Node3 -->
<g id="Node000003" class="node">
<title>Node3</title>
<g id="a_Node000003"><a xlink:href="ExportService__Pipeline_8h.html" target="_top" xlink:title=" ">
<polygon fill="white" stroke="#666666" points="302,-162 174,-162 174,-132 302,-132 302,-162"/>
<text text-anchor="start" x="182" y="-150" font-family="Helvetica,sans-Serif" font-size="10.00">services/ExportService</text>
<text text-anchor="middle" x="238" y="-139" font-family="Helvetica,sans-Serif" font-size="10.00">_Pipeline.h</text>
</a>
</g>
</g>
<!-- Node1&#45;&gt;Node3 -->
<g id="edge2_Node000001_Node000003" class="edge">
<title>Node1&#45;&gt;Node3</title>
<g id="a_edge2_Node000001_Node000003"><a xlink:title=" ">
<path fill="none" stroke="#63b8ff" d="M238,-187.65C238,-179.36 238,-169.78 238,-162.11"/>
<polygon fill="#63b8ff" stroke="#63b8ff" points="234.5,-187.87 238,-197.87 241.5,-187.87 234.5,-187.87"/>
</a>
</g>
</g>
<!-- Node8 -->
<g id="Node000008" class="node">
<title>Node8</title>
<g id="a_Node000008"><a xlink:href="FetchWorker_8cpp.html" target="_top" xlink:title=" ">
<polygon fill="white" stroke="#666666" points="457.5,-156.5 320.5,-156.5 320.5,-137.5 457.5,-137.5 457.5,-156.5"/>
<text text-anchor="middle" x="389" y="-144.5" font-family="Helvetica,sans-Serif" font-size="10.00">workers/FetchWorker.cpp</text>
</a>
</g>
</g>
<!-- Node1&#45;&gt;Node8 -->
<g id="edge10_Node000001_Node000008" class="edge">
<title>Node1&#45;&gt;Node8</title>
<g id="a_edge10_Node000001_Node000008"><a xlink:title=" ">
<path fill="none" stroke="#63b8ff" d="M269.29,-194.38C298.48,-183.07 341.28,-166.49 367.02,-156.52"/>
<polygon fill="#63b8ff" stroke="#63b8ff" points="268.02,-191.12 259.96,-197.99 270.55,-197.64 268.02,-191.12"/>
</a>
</g>
</g>
<!-- Node3&#45;&gt;Node2 -->
<g id="edge4_Node000003_Node000002" class="edge">
<title>Node3&#45;&gt;Node2</title>
<g id="a_edge4_Node000003_Node000002"><a xlink:title=" ">
<path fill="none" stroke="#63b8ff" d="M190.3,-128.46C162.54,-118.25 128.03,-105.55 102.1,-96.01"/>
<polygon fill="#63b8ff" stroke="#63b8ff" points="189.22,-131.79 199.81,-131.95 191.64,-125.22 189.22,-131.79"/>
</a>
</g>
</g>
<!-- Node4 -->
<g id="Node000004" class="node">
<title>Node4</title>
<g id="a_Node000004"><a xlink:href="main_8cpp.html" target="_top" xlink:title=" ">
<polygon fill="white" stroke="#666666" points="231,-24.5 169,-24.5 169,-5.5 231,-5.5 231,-24.5"/>
<text text-anchor="middle" x="200" y="-12.5" font-family="Helvetica,sans-Serif" font-size="10.00">main.cpp</text>
</a>
</g>
</g>
<!-- Node3&#45;&gt;Node4 -->
<g id="edge3_Node000003_Node000004" class="edge">
<title>Node3&#45;&gt;Node4</title>
<g id="a_edge3_Node000003_Node000004"><a xlink:title=" ">
<path fill="none" stroke="#63b8ff" d="M201.85,-126.03C191.2,-118.18 180.85,-108.1 175,-96 163.1,-71.37 182.16,-39.77 193.13,-24.72"/>
<polygon fill="#63b8ff" stroke="#63b8ff" points="200.15,-129.1 210.38,-131.85 204.09,-123.32 200.15,-129.1"/>
</a>
</g>
</g>
<!-- Node5 -->
<g id="Node000005" class="node">
<title>Node5</title>
<g id="a_Node000005"><a xlink:href="ExportProgressViewModel_8cpp.html" target="_top" xlink:title=" ">
<polygon fill="white" stroke="#666666" points="435,-30 271,-30 271,0 435,0 435,-30"/>
<text text-anchor="start" x="279" y="-18" font-family="Helvetica,sans-Serif" font-size="10.00">ui/viewmodels/ExportProgress</text>
<text text-anchor="middle" x="353" y="-7" font-family="Helvetica,sans-Serif" font-size="10.00">ViewModel.cpp</text>
</a>
</g>
</g>
<!-- Node3&#45;&gt;Node5 -->
<g id="edge5_Node000003_Node000005" class="edge">
<title>Node3&#45;&gt;Node5</title>
<g id="a_edge5_Node000003_Node000005"><a xlink:title=" ">
<path fill="none" stroke="#63b8ff" d="M311.62,-130.37C329.4,-122.96 346.33,-112.05 357,-96 370.16,-76.19 363.96,-47.15 358.38,-30.05"/>
<polygon fill="#63b8ff" stroke="#63b8ff" points="310.37,-127.11 302.27,-133.94 312.86,-133.65 310.37,-127.11"/>
</a>
</g>
</g>
<!-- Node6 -->
<g id="Node000006" class="node">
<title>Node6</title>
<g id="a_Node000006"><a xlink:href="ExportProgressViewModel_8h.html" target="_top" xlink:title=" ">
<polygon fill="white" stroke="#666666" points="348,-96 184,-96 184,-66 348,-66 348,-96"/>
<text text-anchor="start" x="192" y="-84" font-family="Helvetica,sans-Serif" font-size="10.00">ui/viewmodels/ExportProgress</text>
<text text-anchor="middle" x="266" y="-73" font-family="Helvetica,sans-Serif" font-size="10.00">ViewModel.h</text>
</a>
</g>
</g>
<!-- Node3&#45;&gt;Node6 -->
<g id="edge6_Node000003_Node000006" class="edge">
<title>Node3&#45;&gt;Node6</title>
<g id="a_edge6_Node000003_Node000006"><a xlink:title=" ">
<path fill="none" stroke="#63b8ff" d="M248.33,-122.39C252.18,-113.59 256.43,-103.86 259.8,-96.16"/>
<polygon fill="#63b8ff" stroke="#63b8ff" points="245.02,-121.23 244.21,-131.8 251.43,-124.04 245.02,-121.23"/>
</a>
</g>
</g>
<!-- Node7 -->
<g id="Node000007" class="node">
<title>Node7</title>
<g id="a_Node000007"><a xlink:href="ExportSettingsViewModel_8cpp.html" target="_top" xlink:title=" ">
<polygon fill="white" stroke="#666666" points="566,-96 404,-96 404,-66 566,-66 566,-96"/>
<text text-anchor="start" x="412" y="-84" font-family="Helvetica,sans-Serif" font-size="10.00">ui/viewmodels/ExportSettings</text>
<text text-anchor="middle" x="485" y="-73" font-family="Helvetica,sans-Serif" font-size="10.00">ViewModel.cpp</text>
</a>
</g>
</g>
<!-- Node3&#45;&gt;Node7 -->
<g id="edge9_Node000003_Node000007" class="edge">
<title>Node3&#45;&gt;Node7</title>
<g id="a_edge9_Node000003_Node000007"><a xlink:title=" ">
<path fill="none" stroke="#63b8ff" d="M302.12,-129.39C342.1,-119.03 392.98,-105.84 430.92,-96.01"/>
<polygon fill="#63b8ff" stroke="#63b8ff" points="301.01,-126.06 292.21,-131.95 302.76,-132.83 301.01,-126.06"/>
</a>
</g>
</g>
<!-- Node6&#45;&gt;Node4 -->
<g id="edge7_Node000006_Node000004" class="edge">
<title>Node6&#45;&gt;Node4</title>
<g id="a_edge7_Node000006_Node000004"><a xlink:title=" ">
<path fill="none" stroke="#63b8ff" d="M243.94,-58.6C232.07,-47.1 218.07,-33.52 209.12,-24.84"/>
<polygon fill="#63b8ff" stroke="#63b8ff" points="241.74,-61.35 251.35,-65.8 246.61,-56.32 241.74,-61.35"/>
</a>
</g>
</g>
<!-- Node6&#45;&gt;Node5 -->
<g id="edge8_Node000006_Node000005" class="edge">
<title>Node6&#45;&gt;Node5</title>
<g id="a_edge8_Node000006_Node000005"><a xlink:title=" ">
<path fill="none" stroke="#63b8ff" d="M293.52,-59.75C306.61,-50.13 321.93,-38.86 333.75,-30.16"/>
<polygon fill="#63b8ff" stroke="#63b8ff" points="291.29,-57.05 285.31,-65.8 295.44,-62.69 291.29,-57.05"/>
</a>
</g>
</g>
</g>
</svg>
