<?xml version="1.0" encoding="UTF-8" standalone="no"?>
<!DOCTYPE svg PUBLIC "-//W3C//DTD SVG 1.1//EN"
 "http://www.w3.org/Graphics/SVG/1.1/DTD/svg11.dtd">
<!-- Generated by graphviz version 2.43.0 (0)
 -->
<!-- Title: services/pipeline/stage/FetchStageHandler.cpp Pages: 1 -->
<svg width="1295pt" height="445pt"
 viewBox="0.00 0.00 1295.15 445.00" xmlns="http://www.w3.org/2000/svg" xmlns:xlink="http://www.w3.org/1999/xlink">
<g id="graph0" class="graph" transform="scale(1 1) rotate(0) translate(4 441)">
<title>services/pipeline/stage/FetchStageHandler.cpp</title>
<!-- Node1 -->
<g id="Node000001" class="node">
<title>Node1</title>
<g id="a_Node000001"><a xlink:title=" ">
<polygon fill="#999999" stroke="#666666" points="1015.5,-437 884.5,-437 884.5,-407 1015.5,-407 1015.5,-437"/>
<text text-anchor="start" x="892.5" y="-425" font-family="Helvetica,sans-Serif" font-size="10.00">services/pipeline/stage</text>
<text text-anchor="middle" x="950" y="-414" font-family="Helvetica,sans-Serif" font-size="10.00">/FetchStageHandler.cpp</text>
</a>
</g>
</g>
<!-- Node2 -->
<g id="Node000002" class="node">
<title>Node2</title>
<g id="a_Node000002"><a xlink:href="FetchStageHandler_8h.html" target="_top" xlink:title=" ">
<polygon fill="white" stroke="#666666" points="690.5,-371 573.5,-371 573.5,-352 690.5,-352 690.5,-371"/>
<text text-anchor="middle" x="632" y="-359" font-family="Helvetica,sans-Serif" font-size="10.00">FetchStageHandler.h</text>
</a>
</g>
</g>
<!-- Node1&#45;&gt;Node2 -->
<g id="edge1_Node000001_Node000002" class="edge">
<title>Node1&#45;&gt;Node2</title>
<g id="a_edge1_Node000001_Node000002"><a xlink:title=" ">
<path fill="none" stroke="#63b8ff" d="M884.5,-408.95C826.64,-398.31 743.18,-382.95 688.28,-372.85"/>
<polygon fill="#63b8ff" stroke="#63b8ff" points="688.84,-369.4 678.37,-371.03 687.57,-376.28 688.84,-369.4"/>
</a>
</g>
</g>
<!-- Node16 -->
<g id="Node000016" class="node">
<title>Node16</title>
<g id="a_Node000016"><a xlink:title=" ">
<polygon fill="#e0e0e0" stroke="#999999" points="1097,-189.5 1041,-189.5 1041,-170.5 1097,-170.5 1097,-189.5"/>
<text text-anchor="middle" x="1069" y="-177.5" font-family="Helvetica,sans-Serif" font-size="10.00">QDebug</text>
</a>
</g>
</g>
<!-- Node1&#45;&gt;Node16 -->
<g id="edge62_Node000001_Node000016" class="edge">
<title>Node1&#45;&gt;Node16</title>
<g id="a_edge62_Node000001_Node000016"><a xlink:title=" ">
<path fill="none" stroke="#63b8ff" d="M1015.52,-410.38C1094,-393.78 1222.11,-353.4 1280,-261 1320.26,-196.74 1179.01,-183.92 1107.72,-181.49"/>
<polygon fill="#63b8ff" stroke="#63b8ff" points="1107.42,-177.98 1097.32,-181.19 1107.22,-184.97 1107.42,-177.98"/>
</a>
</g>
</g>
<!-- Node3 -->
<g id="Node000003" class="node">
<title>Node3</title>
<g id="a_Node000003"><a xlink:href="ComponentData_8h.html" target="_top" xlink:title=" ">
<polygon fill="white" stroke="#666666" points="314.5,-195 175.5,-195 175.5,-165 314.5,-165 314.5,-195"/>
<text text-anchor="start" x="183.5" y="-183" font-family="Helvetica,sans-Serif" font-size="10.00">../../../models/Component</text>
<text text-anchor="middle" x="245" y="-172" font-family="Helvetica,sans-Serif" font-size="10.00">Data.h</text>
</a>
</g>
</g>
<!-- Node2&#45;&gt;Node3 -->
<g id="edge2_Node000002_Node000003" class="edge">
<title>Node2&#45;&gt;Node3</title>
<g id="a_edge2_Node000002_Node000003"><a xlink:title=" ">
<path fill="none" stroke="#63b8ff" d="M573.46,-357.84C474.28,-352.73 277.67,-339.9 213,-316 172.53,-301.04 153.09,-299.19 133,-261 126.79,-249.2 125.74,-242.19 133,-231 142.3,-216.66 156.78,-206.4 172.27,-199.07"/>
<polygon fill="#63b8ff" stroke="#63b8ff" points="173.69,-202.27 181.47,-195.08 170.91,-195.84 173.69,-202.27"/>
</a>
</g>
</g>
<!-- Node15 -->
<g id="Node000015" class="node">
<title>Node15</title>
<g id="a_Node000015"><a xlink:href="ComponentExportStatus_8h.html" target="_top" xlink:title=" ">
<polygon fill="white" stroke="#666666" points="779.5,-261 640.5,-261 640.5,-231 779.5,-231 779.5,-261"/>
<text text-anchor="start" x="648.5" y="-249" font-family="Helvetica,sans-Serif" font-size="10.00">../../../models/Component</text>
<text text-anchor="middle" x="710" y="-238" font-family="Helvetica,sans-Serif" font-size="10.00">ExportStatus.h</text>
</a>
</g>
</g>
<!-- Node2&#45;&gt;Node15 -->
<g id="edge25_Node000002_Node000015" class="edge">
<title>Node2&#45;&gt;Node15</title>
<g id="a_edge25_Node000002_Node000015"><a xlink:title=" ">
<path fill="none" stroke="#63b8ff" d="M648.68,-351.96C662.03,-344.29 680.26,-331.81 691,-316 700.07,-302.65 704.83,-285.08 707.31,-271.02"/>
<polygon fill="#63b8ff" stroke="#63b8ff" points="710.78,-271.48 708.8,-261.07 703.86,-270.44 710.78,-271.48"/>
</a>
</g>
</g>
<!-- Node18 -->
<g id="Node000018" class="node">
<title>Node18</title>
<g id="a_Node000018"><a xlink:href="FetchWorker_8h.html" target="_top" xlink:title=" ">
<polygon fill="white" stroke="#666666" points="891.5,-316 738.5,-316 738.5,-297 891.5,-297 891.5,-316"/>
<text text-anchor="middle" x="815" y="-304" font-family="Helvetica,sans-Serif" font-size="10.00">../../../workers/FetchWorker.h</text>
</a>
</g>
</g>
<!-- Node2&#45;&gt;Node18 -->
<g id="edge34_Node000002_Node000018" class="edge">
<title>Node2&#45;&gt;Node18</title>
<g id="a_edge34_Node000002_Node000018"><a xlink:title=" ">
<path fill="none" stroke="#63b8ff" d="M661.4,-351.98C692.39,-343.01 741.38,-328.82 775.67,-318.89"/>
<polygon fill="#63b8ff" stroke="#63b8ff" points="776.74,-322.23 785.37,-316.08 774.79,-315.5 776.74,-322.23"/>
</a>
</g>
</g>
<!-- Node21 -->
<g id="Node000021" class="node">
<title>Node21</title>
<g id="a_Node000021"><a xlink:title=" ">
<polygon fill="#e0e0e0" stroke="#999999" points="1271,-255.5 1129,-255.5 1129,-236.5 1271,-236.5 1271,-255.5"/>
<text text-anchor="middle" x="1200" y="-243.5" font-family="Helvetica,sans-Serif" font-size="10.00">QNetworkAccessManager</text>
</a>
</g>
</g>
<!-- Node2&#45;&gt;Node21 -->
<g id="edge59_Node000002_Node000021" class="edge">
<title>Node2&#45;&gt;Node21</title>
<g id="a_edge59_Node000002_Node000021"><a xlink:title=" ">
<path fill="none" stroke="#63b8ff" d="M689.91,-352C744.52,-343.72 828.56,-330.34 901,-316 992.21,-297.95 1098.02,-272.44 1156.13,-258.03"/>
<polygon fill="#63b8ff" stroke="#63b8ff" points="1157.21,-261.37 1166.07,-255.56 1155.52,-254.58 1157.21,-261.37"/>
</a>
</g>
</g>
<!-- Node26 -->
<g id="Node000026" class="node">
<title>Node26</title>
<g id="a_Node000026"><a xlink:href="ExportService_8h.html" target="_top" xlink:title=" ">
<polygon fill="white" stroke="#666666" points="333.5,-316 222.5,-316 222.5,-297 333.5,-297 333.5,-316"/>
<text text-anchor="middle" x="278" y="-304" font-family="Helvetica,sans-Serif" font-size="10.00">../../ExportService.h</text>
</a>
</g>
</g>
<!-- Node2&#45;&gt;Node26 -->
<g id="edge43_Node000002_Node000026" class="edge">
<title>Node2&#45;&gt;Node26</title>
<g id="a_edge43_Node000002_Node000026"><a xlink:title=" ">
<path fill="none" stroke="#63b8ff" d="M575.12,-351.98C511.92,-342.52 410.02,-327.27 343.52,-317.31"/>
<polygon fill="#63b8ff" stroke="#63b8ff" points="343.98,-313.84 333.57,-315.82 342.94,-320.76 343.98,-313.84"/>
</a>
</g>
</g>
<!-- Node28 -->
<g id="Node000028" class="node">
<title>Node28</title>
<g id="a_Node000028"><a xlink:title=" ">
<polygon fill="#e0e0e0" stroke="#999999" points="385.5,-255.5 306.5,-255.5 306.5,-236.5 385.5,-236.5 385.5,-255.5"/>
<text text-anchor="middle" x="346" y="-243.5" font-family="Helvetica,sans-Serif" font-size="10.00">QThreadPool</text>
</a>
</g>
</g>
<!-- Node2&#45;&gt;Node28 -->
<g id="edge61_Node000002_Node000028" class="edge">
<title>Node2&#45;&gt;Node28</title>
<g id="a_edge61_Node000002_Node000028"><a xlink:title=" ">
<path fill="none" stroke="#63b8ff" d="M584.73,-351.99C549.72,-344.79 501.31,-332.92 461,-316 425.72,-301.19 388.34,-276.95 366.1,-261.5"/>
<polygon fill="#63b8ff" stroke="#63b8ff" points="368,-258.56 357.81,-255.66 363.97,-264.28 368,-258.56"/>
</a>
</g>
</g>
<!-- Node29 -->
<g id="Node000029" class="node">
<title>Node29</title>
<g id="a_Node000029"><a xlink:href="StageHandler_8h.html" target="_top" xlink:title=" ">
<polygon fill="white" stroke="#666666" points="560.5,-316 469.5,-316 469.5,-297 560.5,-297 560.5,-316"/>
<text text-anchor="middle" x="515" y="-304" font-family="Helvetica,sans-Serif" font-size="10.00">StageHandler.h</text>
</a>
</g>
</g>
<!-- Node2&#45;&gt;Node29 -->
<g id="edge54_Node000002_Node000029" class="edge">
<title>Node2&#45;&gt;Node29</title>
<g id="a_edge54_Node000002_Node000029"><a xlink:title=" ">
<path fill="none" stroke="#63b8ff" d="M613.2,-351.98C594.38,-343.46 565.18,-330.23 543.5,-320.41"/>
<polygon fill="#63b8ff" stroke="#63b8ff" points="544.69,-317.11 534.14,-316.17 541.8,-323.48 544.69,-317.11"/>
</a>
</g>
</g>
<!-- Node30 -->
<g id="Node000030" class="node">
<title>Node30</title>
<g id="a_Node000030"><a xlink:title=" ">
<polygon fill="#e0e0e0" stroke="#999999" points="623.5,-316 578.5,-316 578.5,-297 623.5,-297 623.5,-316"/>
<text text-anchor="middle" x="601" y="-304" font-family="Helvetica,sans-Serif" font-size="10.00">QMap</text>
</a>
</g>
</g>
<!-- Node2&#45;&gt;Node30 -->
<g id="edge58_Node000002_Node000030" class="edge">
<title>Node2&#45;&gt;Node30</title>
<g id="a_edge58_Node000002_Node000030"><a xlink:title=" ">
<path fill="none" stroke="#63b8ff" d="M626.88,-351.75C622.64,-344.49 616.47,-333.95 611.22,-324.98"/>
<polygon fill="#63b8ff" stroke="#63b8ff" points="614.09,-322.95 606.02,-316.09 608.05,-326.49 614.09,-322.95"/>
</a>
</g>
</g>
<!-- Node31 -->
<g id="Node000031" class="node">
<title>Node31</title>
<g id="a_Node000031"><a xlink:title=" ">
<polygon fill="#e0e0e0" stroke="#999999" points="682,-316 642,-316 642,-297 682,-297 682,-316"/>
<text text-anchor="middle" x="662" y="-304" font-family="Helvetica,sans-Serif" font-size="10.00">QSet</text>
</a>
</g>
</g>
<!-- Node2&#45;&gt;Node31 -->
<g id="edge60_Node000002_Node000031" class="edge">
<title>Node2&#45;&gt;Node31</title>
<g id="a_edge60_Node000002_Node000031"><a xlink:title=" ">
<path fill="none" stroke="#63b8ff" d="M636.95,-351.75C641.06,-344.49 647.03,-333.95 652.1,-324.98"/>
<polygon fill="#63b8ff" stroke="#63b8ff" points="655.26,-326.52 657.14,-316.09 649.17,-323.07 655.26,-326.52"/>
</a>
</g>
</g>
<!-- Node4 -->
<g id="Node000004" class="node">
<title>Node4</title>
<g id="a_Node000004"><a xlink:href="FootprintData_8h.html" target="_top" xlink:title=" ">
<polygon fill="white" stroke="#666666" points="291,-129 199,-129 199,-110 291,-110 291,-129"/>
<text text-anchor="middle" x="245" y="-117" font-family="Helvetica,sans-Serif" font-size="10.00">FootprintData.h</text>
</a>
</g>
</g>
<!-- Node3&#45;&gt;Node4 -->
<g id="edge3_Node000003_Node000004" class="edge">
<title>Node3&#45;&gt;Node4</title>
<g id="a_edge3_Node000003_Node000004"><a xlink:title=" ">
<path fill="none" stroke="#63b8ff" d="M245,-164.84C245,-157.21 245,-147.7 245,-139.45"/>
<polygon fill="#63b8ff" stroke="#63b8ff" points="248.5,-139.27 245,-129.27 241.5,-139.27 248.5,-139.27"/>
</a>
</g>
</g>
<!-- Node5 -->
<g id="Node000005" class="node">
<title>Node5</title>
<g id="a_Node000005"><a xlink:href="Model3DData_8h.html" target="_top" xlink:title=" ">
<polygon fill="white" stroke="#666666" points="123,-74 31,-74 31,-55 123,-55 123,-74"/>
<text text-anchor="middle" x="77" y="-62" font-family="Helvetica,sans-Serif" font-size="10.00">Model3DData.h</text>
</a>
</g>
</g>
<!-- Node3&#45;&gt;Node5 -->
<g id="edge13_Node000003_Node000005" class="edge">
<title>Node3&#45;&gt;Node5</title>
<g id="a_edge13_Node000003_Node000005"><a xlink:title=" ">
<path fill="none" stroke="#63b8ff" d="M210.77,-164.84C190.79,-155.88 165.56,-143.29 145,-129 125.01,-115.11 104.99,-95.56 91.9,-81.84"/>
<polygon fill="#63b8ff" stroke="#63b8ff" points="94.1,-79.06 84.71,-74.14 88.98,-83.84 94.1,-79.06"/>
</a>
</g>
</g>
<!-- Node7 -->
<g id="Node000007" class="node">
<title>Node7</title>
<g id="a_Node000007"><a xlink:title=" ">
<polygon fill="#e0e0e0" stroke="#999999" points="463,-19 387,-19 387,0 463,0 463,-19"/>
<text text-anchor="middle" x="425" y="-7" font-family="Helvetica,sans-Serif" font-size="10.00">QJsonObject</text>
</a>
</g>
</g>
<!-- Node3&#45;&gt;Node7 -->
<g id="edge22_Node000003_Node000007" class="edge">
<title>Node3&#45;&gt;Node7</title>
<g id="a_edge22_Node000003_Node000007"><a xlink:title=" ">
<path fill="none" stroke="#63b8ff" d="M314.8,-168.97C407.62,-153.89 563.37,-121.96 592,-74 619.75,-27.52 532.05,-14.9 473.41,-11.58"/>
<polygon fill="#63b8ff" stroke="#63b8ff" points="473.36,-8.07 463.2,-11.07 473.01,-15.06 473.36,-8.07"/>
</a>
</g>
</g>
<!-- Node8 -->
<g id="Node000008" class="node">
<title>Node8</title>
<g id="a_Node000008"><a xlink:title=" ">
<polygon fill="#e0e0e0" stroke="#999999" points="199.5,-19 146.5,-19 146.5,0 199.5,0 199.5,-19"/>
<text text-anchor="middle" x="173" y="-7" font-family="Helvetica,sans-Serif" font-size="10.00">QString</text>
</a>
</g>
</g>
<!-- Node3&#45;&gt;Node8 -->
<g id="edge24_Node000003_Node000008" class="edge">
<title>Node3&#45;&gt;Node8</title>
<g id="a_edge24_Node000003_Node000008"><a xlink:title=" ">
<path fill="none" stroke="#63b8ff" d="M223.31,-164.94C211.49,-156.09 197.74,-143.59 190,-129 173.02,-96.98 171.28,-53.6 171.9,-29.19"/>
<polygon fill="#63b8ff" stroke="#63b8ff" points="175.4,-29.28 172.32,-19.14 168.41,-28.99 175.4,-29.28"/>
</a>
</g>
</g>
<!-- Node9 -->
<g id="Node000009" class="node">
<title>Node9</title>
<g id="a_Node000009"><a xlink:title=" ">
<polygon fill="#e0e0e0" stroke="#999999" points="399.5,-74 328.5,-74 328.5,-55 399.5,-55 399.5,-74"/>
<text text-anchor="middle" x="364" y="-62" font-family="Helvetica,sans-Serif" font-size="10.00">QJsonArray</text>
</a>
</g>
</g>
<!-- Node3&#45;&gt;Node9 -->
<g id="edge21_Node000003_Node000009" class="edge">
<title>Node3&#45;&gt;Node9</title>
<g id="a_edge21_Node000003_Node000009"><a xlink:title=" ">
<path fill="none" stroke="#63b8ff" d="M261.05,-164.74C272.11,-154.84 287.09,-141.26 300,-129 316.73,-113.11 335.41,-94.47 348.25,-81.51"/>
<polygon fill="#63b8ff" stroke="#63b8ff" points="350.88,-83.82 355.42,-74.25 345.9,-78.9 350.88,-83.82"/>
</a>
</g>
</g>
<!-- Node12 -->
<g id="Node000012" class="node">
<title>Node12</title>
<g id="a_Node000012"><a xlink:href="SymbolData_8h.html" target="_top" xlink:title=" ">
<polygon fill="white" stroke="#666666" points="481,-129 395,-129 395,-110 481,-110 481,-129"/>
<text text-anchor="middle" x="438" y="-117" font-family="Helvetica,sans-Serif" font-size="10.00">SymbolData.h</text>
</a>
</g>
</g>
<!-- Node3&#45;&gt;Node12 -->
<g id="edge14_Node000003_Node000012" class="edge">
<title>Node3&#45;&gt;Node12</title>
<g id="a_edge14_Node000003_Node000012"><a xlink:title=" ">
<path fill="none" stroke="#63b8ff" d="M291.23,-164.99C324.54,-154.89 368.93,-141.44 400.14,-131.98"/>
<polygon fill="#63b8ff" stroke="#63b8ff" points="401.23,-135.3 409.78,-129.05 399.2,-128.6 401.23,-135.3"/>
</a>
</g>
</g>
<!-- Node14 -->
<g id="Node000014" class="node">
<title>Node14</title>
<g id="a_Node000014"><a xlink:title=" ">
<polygon fill="#e0e0e0" stroke="#999999" points="753,-129 661,-129 661,-110 753,-110 753,-129"/>
<text text-anchor="middle" x="707" y="-117" font-family="Helvetica,sans-Serif" font-size="10.00">QSharedPointer</text>
</a>
</g>
</g>
<!-- Node3&#45;&gt;Node14 -->
<g id="edge23_Node000003_Node000014" class="edge">
<title>Node3&#45;&gt;Node14</title>
<g id="a_edge23_Node000003_Node000014"><a xlink:title=" ">
<path fill="none" stroke="#63b8ff" d="M314.76,-170.69C394.98,-161.05 530.58,-144.49 647,-129 648.26,-128.83 649.54,-128.66 650.82,-128.49"/>
<polygon fill="#63b8ff" stroke="#63b8ff" points="651.39,-131.94 660.82,-127.12 650.44,-125.01 651.39,-131.94"/>
</a>
</g>
</g>
<!-- Node4&#45;&gt;Node5 -->
<g id="edge4_Node000004_Node000005" class="edge">
<title>Node4&#45;&gt;Node5</title>
<g id="a_edge4_Node000004_Node000005"><a xlink:title=" ">
<path fill="none" stroke="#63b8ff" d="M218.01,-109.98C189.8,-101.09 145.36,-87.07 113.92,-77.15"/>
<polygon fill="#63b8ff" stroke="#63b8ff" points="114.79,-73.75 104.2,-74.08 112.69,-80.43 114.79,-73.75"/>
</a>
</g>
</g>
<!-- Node4&#45;&gt;Node7 -->
<g id="edge9_Node000004_Node000007" class="edge">
<title>Node4&#45;&gt;Node7</title>
<g id="a_edge9_Node000004_Node000007"><a xlink:title=" ">
<path fill="none" stroke="#63b8ff" d="M242.07,-109.59C238.28,-96.18 233.52,-70.71 246,-55 262.1,-34.74 329.23,-22.32 376.53,-15.92"/>
<polygon fill="#63b8ff" stroke="#63b8ff" points="377.13,-19.37 386.6,-14.61 376.23,-12.43 377.13,-19.37"/>
</a>
</g>
</g>
<!-- Node4&#45;&gt;Node8 -->
<g id="edge12_Node000004_Node000008" class="edge">
<title>Node4&#45;&gt;Node8</title>
<g id="a_edge12_Node000004_Node000008"><a xlink:title=" ">
<path fill="none" stroke="#63b8ff" d="M238.46,-109.75C231.88,-100.85 221.51,-86.63 213,-74 202.68,-58.67 191.51,-40.84 183.61,-27.98"/>
<polygon fill="#63b8ff" stroke="#63b8ff" points="186.47,-25.94 178.27,-19.24 180.5,-29.59 186.47,-25.94"/>
</a>
</g>
</g>
<!-- Node4&#45;&gt;Node9 -->
<g id="edge8_Node000004_Node000009" class="edge">
<title>Node4&#45;&gt;Node9</title>
<g id="a_edge8_Node000004_Node000009"><a xlink:title=" ">
<path fill="none" stroke="#63b8ff" d="M264.12,-109.98C283.35,-101.42 313.23,-88.11 335.31,-78.28"/>
<polygon fill="#63b8ff" stroke="#63b8ff" points="336.82,-81.44 344.53,-74.17 333.97,-75.04 336.82,-81.44"/>
</a>
</g>
</g>
<!-- Node10 -->
<g id="Node000010" class="node">
<title>Node10</title>
<g id="a_Node000010"><a xlink:title=" ">
<polygon fill="#e0e0e0" stroke="#999999" points="458.5,-74 417.5,-74 417.5,-55 458.5,-55 458.5,-74"/>
<text text-anchor="middle" x="438" y="-62" font-family="Helvetica,sans-Serif" font-size="10.00">QList</text>
</a>
</g>
</g>
<!-- Node4&#45;&gt;Node10 -->
<g id="edge10_Node000004_Node000010" class="edge">
<title>Node4&#45;&gt;Node10</title>
<g id="a_edge10_Node000004_Node000010"><a xlink:title=" ">
<path fill="none" stroke="#63b8ff" d="M277.11,-109.99C308.2,-101.71 356.93,-88.61 407.6,-74.36"/>
<polygon fill="#63b8ff" stroke="#63b8ff" points="408.75,-77.67 417.42,-71.59 406.85,-70.93 408.75,-77.67"/>
</a>
</g>
</g>
<!-- Node11 -->
<g id="Node000011" class="node">
<title>Node11</title>
<g id="a_Node000011"><a xlink:title=" ">
<polygon fill="#e0e0e0" stroke="#999999" points="310.5,-74 255.5,-74 255.5,-55 310.5,-55 310.5,-74"/>
<text text-anchor="middle" x="283" y="-62" font-family="Helvetica,sans-Serif" font-size="10.00">QPointF</text>
</a>
</g>
</g>
<!-- Node4&#45;&gt;Node11 -->
<g id="edge11_Node000004_Node000011" class="edge">
<title>Node4&#45;&gt;Node11</title>
<g id="a_edge11_Node000004_Node000011"><a xlink:title=" ">
<path fill="none" stroke="#63b8ff" d="M251.27,-109.75C256.59,-102.34 264.36,-91.5 270.88,-82.41"/>
<polygon fill="#63b8ff" stroke="#63b8ff" points="273.86,-84.26 276.84,-74.09 268.17,-80.18 273.86,-84.26"/>
</a>
</g>
</g>
<!-- Node6 -->
<g id="Node000006" class="node">
<title>Node6</title>
<g id="a_Node000006"><a xlink:title=" ">
<polygon fill="#e0e0e0" stroke="#999999" points="113.5,-19 40.5,-19 40.5,0 113.5,0 113.5,-19"/>
<text text-anchor="middle" x="77" y="-7" font-family="Helvetica,sans-Serif" font-size="10.00">QByteArray</text>
</a>
</g>
</g>
<!-- Node5&#45;&gt;Node6 -->
<g id="edge5_Node000005_Node000006" class="edge">
<title>Node5&#45;&gt;Node6</title>
<g id="a_edge5_Node000005_Node000006"><a xlink:title=" ">
<path fill="none" stroke="#63b8ff" d="M77,-54.75C77,-47.8 77,-37.85 77,-29.13"/>
<polygon fill="#63b8ff" stroke="#63b8ff" points="80.5,-29.09 77,-19.09 73.5,-29.09 80.5,-29.09"/>
</a>
</g>
</g>
<!-- Node5&#45;&gt;Node7 -->
<g id="edge6_Node000005_Node000007" class="edge">
<title>Node5&#45;&gt;Node7</title>
<g id="a_edge6_Node000005_Node000007"><a xlink:title=" ">
<path fill="none" stroke="#63b8ff" d="M123.21,-56.46C189.11,-46.43 309.51,-28.09 376.6,-17.87"/>
<polygon fill="#63b8ff" stroke="#63b8ff" points="377.53,-21.27 386.89,-16.3 376.48,-14.35 377.53,-21.27"/>
</a>
</g>
</g>
<!-- Node5&#45;&gt;Node8 -->
<g id="edge7_Node000005_Node000008" class="edge">
<title>Node5&#45;&gt;Node8</title>
<g id="a_edge7_Node000005_Node000008"><a xlink:title=" ">
<path fill="none" stroke="#63b8ff" d="M92.42,-54.98C107.45,-46.69 130.54,-33.94 148.16,-24.22"/>
<polygon fill="#63b8ff" stroke="#63b8ff" points="150.23,-27.07 157.3,-19.17 146.85,-20.94 150.23,-27.07"/>
</a>
</g>
</g>
<!-- Node12&#45;&gt;Node7 -->
<g id="edge16_Node000012_Node000007" class="edge">
<title>Node12&#45;&gt;Node7</title>
<g id="a_edge16_Node000012_Node000007"><a xlink:title=" ">
<path fill="none" stroke="#63b8ff" d="M481.16,-114.27C531.12,-107.6 603.25,-91.43 576,-55 552.56,-23.66 508.1,-13.46 473.47,-10.55"/>
<polygon fill="#63b8ff" stroke="#63b8ff" points="473.28,-7.03 463.07,-9.87 472.82,-14.02 473.28,-7.03"/>
</a>
</g>
</g>
<!-- Node12&#45;&gt;Node8 -->
<g id="edge20_Node000012_Node000008" class="edge">
<title>Node12&#45;&gt;Node8</title>
<g id="a_edge20_Node000012_Node000008"><a xlink:title=" ">
<path fill="none" stroke="#63b8ff" d="M447.7,-109.87C461.2,-96.82 482.47,-71.82 468,-55 435.14,-16.82 281.9,-10.97 210.19,-10.36"/>
<polygon fill="#63b8ff" stroke="#63b8ff" points="209.84,-6.86 199.82,-10.3 209.8,-13.86 209.84,-6.86"/>
</a>
</g>
</g>
<!-- Node12&#45;&gt;Node9 -->
<g id="edge15_Node000012_Node000009" class="edge">
<title>Node12&#45;&gt;Node9</title>
<g id="a_edge15_Node000012_Node000009"><a xlink:title=" ">
<path fill="none" stroke="#63b8ff" d="M426.11,-109.98C414.85,-101.92 397.71,-89.65 384.29,-80.03"/>
<polygon fill="#63b8ff" stroke="#63b8ff" points="386.27,-77.15 376.11,-74.17 382.2,-82.84 386.27,-77.15"/>
</a>
</g>
</g>
<!-- Node12&#45;&gt;Node10 -->
<g id="edge17_Node000012_Node000010" class="edge">
<title>Node12&#45;&gt;Node10</title>
<g id="a_edge17_Node000012_Node000010"><a xlink:title=" ">
<path fill="none" stroke="#63b8ff" d="M438,-109.75C438,-102.8 438,-92.85 438,-84.13"/>
<polygon fill="#63b8ff" stroke="#63b8ff" points="441.5,-84.09 438,-74.09 434.5,-84.09 441.5,-84.09"/>
</a>
</g>
</g>
<!-- Node12&#45;&gt;Node11 -->
<g id="edge18_Node000012_Node000011" class="edge">
<title>Node12&#45;&gt;Node11</title>
<g id="a_edge18_Node000012_Node000011"><a xlink:title=" ">
<path fill="none" stroke="#63b8ff" d="M413.1,-109.98C387.3,-101.16 346.78,-87.31 317.82,-77.41"/>
<polygon fill="#63b8ff" stroke="#63b8ff" points="318.69,-74.01 308.1,-74.08 316.43,-80.63 318.69,-74.01"/>
</a>
</g>
</g>
<!-- Node13 -->
<g id="Node000013" class="node">
<title>Node13</title>
<g id="a_Node000013"><a xlink:title=" ">
<polygon fill="#e0e0e0" stroke="#999999" points="567,-74 515,-74 515,-55 567,-55 567,-74"/>
<text text-anchor="middle" x="541" y="-62" font-family="Helvetica,sans-Serif" font-size="10.00">QRectF</text>
</a>
</g>
</g>
<!-- Node12&#45;&gt;Node13 -->
<g id="edge19_Node000012_Node000013" class="edge">
<title>Node12&#45;&gt;Node13</title>
<g id="a_edge19_Node000012_Node000013"><a xlink:title=" ">
<path fill="none" stroke="#63b8ff" d="M454.55,-109.98C470.89,-101.57 496.13,-88.59 515.13,-78.81"/>
<polygon fill="#63b8ff" stroke="#63b8ff" points="516.86,-81.86 524.15,-74.17 513.66,-75.63 516.86,-81.86"/>
</a>
</g>
</g>
<!-- Node15&#45;&gt;Node3 -->
<g id="edge26_Node000015_Node000003" class="edge">
<title>Node15&#45;&gt;Node3</title>
<g id="a_edge26_Node000015_Node000003"><a xlink:title=" ">
<path fill="none" stroke="#63b8ff" d="M640.24,-232.46C637.12,-231.95 634.03,-231.46 631,-231 525.37,-214.81 402.93,-199.54 324.77,-190.23"/>
<polygon fill="#63b8ff" stroke="#63b8ff" points="324.86,-186.72 314.52,-189.02 324.04,-193.67 324.86,-186.72"/>
</a>
</g>
</g>
<!-- Node15&#45;&gt;Node4 -->
<g id="edge27_Node000015_Node000004" class="edge">
<title>Node15&#45;&gt;Node4</title>
<g id="a_edge27_Node000015_Node000004"><a xlink:title=" ">
<path fill="none" stroke="#63b8ff" d="M655.04,-230.98C616.39,-221.06 563.49,-207.39 517,-195 434.55,-173.03 338.31,-146.45 285.26,-131.71"/>
<polygon fill="#63b8ff" stroke="#63b8ff" points="286.13,-128.32 275.56,-129.02 284.25,-135.07 286.13,-128.32"/>
</a>
</g>
</g>
<!-- Node15&#45;&gt;Node5 -->
<g id="edge28_Node000015_Node000005" class="edge">
<title>Node15&#45;&gt;Node5</title>
<g id="a_edge28_Node000015_Node000005"><a xlink:title=" ">
<path fill="none" stroke="#63b8ff" d="M640.27,-232.26C637.14,-231.81 634.04,-231.39 631,-231 528.18,-217.94 256.22,-246.01 166,-195 121.8,-170.01 94.82,-112.89 83.39,-83.58"/>
<polygon fill="#63b8ff" stroke="#63b8ff" points="86.65,-82.3 79.88,-74.15 80.09,-84.75 86.65,-82.3"/>
</a>
</g>
</g>
<!-- Node15&#45;&gt;Node8 -->
<g id="edge33_Node000015_Node000008" class="edge">
<title>Node15&#45;&gt;Node8</title>
<g id="a_edge33_Node000015_Node000008"><a xlink:title=" ">
<path fill="none" stroke="#63b8ff" d="M723.91,-230.74C747.63,-204.66 790.71,-148.43 762,-110 710.41,-40.94 660.51,-72.02 576,-55 442.76,-28.17 281.25,-16.5 209.91,-12.38"/>
<polygon fill="#63b8ff" stroke="#63b8ff" points="209.84,-8.87 199.66,-11.8 209.44,-15.86 209.84,-8.87"/>
</a>
</g>
</g>
<!-- Node15&#45;&gt;Node12 -->
<g id="edge29_Node000015_Node000012" class="edge">
<title>Node15&#45;&gt;Node12</title>
<g id="a_edge29_Node000015_Node000012"><a xlink:title=" ">
<path fill="none" stroke="#63b8ff" d="M670.91,-230.95C645.33,-221.46 611.34,-208.28 582,-195 538.92,-175.5 490.36,-149.51 462.07,-133.94"/>
<polygon fill="#63b8ff" stroke="#63b8ff" points="463.74,-130.87 453.29,-129.09 460.35,-136.99 463.74,-130.87"/>
</a>
</g>
</g>
<!-- Node15&#45;&gt;Node14 -->
<g id="edge32_Node000015_Node000014" class="edge">
<title>Node15&#45;&gt;Node14</title>
<g id="a_edge32_Node000015_Node000014"><a xlink:title=" ">
<path fill="none" stroke="#63b8ff" d="M709.66,-230.72C709.11,-208.12 708.05,-164.12 707.45,-139.09"/>
<polygon fill="#63b8ff" stroke="#63b8ff" points="710.95,-138.98 707.21,-129.07 703.95,-139.15 710.95,-138.98"/>
</a>
</g>
</g>
<!-- Node15&#45;&gt;Node16 -->
<g id="edge30_Node000015_Node000016" class="edge">
<title>Node15&#45;&gt;Node16</title>
<g id="a_edge30_Node000015_Node000016"><a xlink:title=" ">
<path fill="none" stroke="#63b8ff" d="M779.64,-232.58C854.47,-219.24 970.68,-198.53 1030.51,-187.86"/>
<polygon fill="#63b8ff" stroke="#63b8ff" points="1031.43,-191.25 1040.66,-186.05 1030.2,-184.36 1031.43,-191.25"/>
</a>
</g>
</g>
<!-- Node17 -->
<g id="Node000017" class="node">
<title>Node17</title>
<g id="a_Node000017"><a xlink:title=" ">
<polygon fill="#e0e0e0" stroke="#999999" points="681.5,-189.5 590.5,-189.5 590.5,-170.5 681.5,-170.5 681.5,-189.5"/>
<text text-anchor="middle" x="636" y="-177.5" font-family="Helvetica,sans-Serif" font-size="10.00">QElapsedTimer</text>
</a>
</g>
</g>
<!-- Node15&#45;&gt;Node17 -->
<g id="edge31_Node000015_Node000017" class="edge">
<title>Node15&#45;&gt;Node17</title>
<g id="a_edge31_Node000015_Node000017"><a xlink:title=" ">
<path fill="none" stroke="#63b8ff" d="M693.58,-230.8C681.81,-220.62 665.98,-206.93 653.9,-196.48"/>
<polygon fill="#63b8ff" stroke="#63b8ff" points="656.08,-193.74 646.23,-189.84 651.5,-199.03 656.08,-193.74"/>
</a>
</g>
</g>
<!-- Node18&#45;&gt;Node15 -->
<g id="edge35_Node000018_Node000015" class="edge">
<title>Node18&#45;&gt;Node15</title>
<g id="a_edge35_Node000018_Node000015"><a xlink:title=" ">
<path fill="none" stroke="#63b8ff" d="M799.51,-296.87C785,-288.78 762.81,-276.42 744.16,-266.03"/>
<polygon fill="#63b8ff" stroke="#63b8ff" points="745.77,-262.92 735.33,-261.11 742.37,-269.04 745.77,-262.92"/>
</a>
</g>
</g>
<!-- Node19 -->
<g id="Node000019" class="node">
<title>Node19</title>
<g id="a_Node000019"><a xlink:title=" ">
<polygon fill="#e0e0e0" stroke="#999999" points="474.5,-255.5 403.5,-255.5 403.5,-236.5 474.5,-236.5 474.5,-255.5"/>
<text text-anchor="middle" x="439" y="-243.5" font-family="Helvetica,sans-Serif" font-size="10.00">QAtomicInt</text>
</a>
</g>
</g>
<!-- Node18&#45;&gt;Node19 -->
<g id="edge36_Node000018_Node000019" class="edge">
<title>Node18&#45;&gt;Node19</title>
<g id="a_edge36_Node000018_Node000019"><a xlink:title=" ">
<path fill="none" stroke="#63b8ff" d="M738.44,-298.89C670.94,-292.19 570.2,-280.06 484,-261 480.62,-260.25 477.13,-259.37 473.66,-258.42"/>
<polygon fill="#63b8ff" stroke="#63b8ff" points="474.61,-255.05 464.03,-255.6 472.64,-261.77 474.61,-255.05"/>
</a>
</g>
</g>
<!-- Node20 -->
<g id="Node000020" class="node">
<title>Node20</title>
<g id="a_Node000020"><a xlink:title=" ">
<polygon fill="#e0e0e0" stroke="#999999" points="547.5,-255.5 492.5,-255.5 492.5,-236.5 547.5,-236.5 547.5,-255.5"/>
<text text-anchor="middle" x="520" y="-243.5" font-family="Helvetica,sans-Serif" font-size="10.00">QMutex</text>
</a>
</g>
</g>
<!-- Node18&#45;&gt;Node20 -->
<g id="edge37_Node000018_Node000020" class="edge">
<title>Node18&#45;&gt;Node20</title>
<g id="a_edge37_Node000018_Node000020"><a xlink:title=" ">
<path fill="none" stroke="#63b8ff" d="M744.12,-296.99C691.84,-289.82 619.27,-277.98 557,-261 554.71,-260.37 552.36,-259.66 550.01,-258.9"/>
<polygon fill="#63b8ff" stroke="#63b8ff" points="551.11,-255.57 540.51,-255.56 548.78,-262.18 551.11,-255.57"/>
</a>
</g>
</g>
<!-- Node18&#45;&gt;Node21 -->
<g id="edge38_Node000018_Node000021" class="edge">
<title>Node18&#45;&gt;Node21</title>
<g id="a_edge38_Node000018_Node000021"><a xlink:title=" ">
<path fill="none" stroke="#63b8ff" d="M877,-296.98C938.68,-288.38 1035.99,-274.48 1120,-261 1127.36,-259.82 1135.09,-258.53 1142.72,-257.23"/>
<polygon fill="#63b8ff" stroke="#63b8ff" points="1143.4,-260.66 1152.66,-255.51 1142.21,-253.76 1143.4,-260.66"/>
</a>
</g>
</g>
<!-- Node22 -->
<g id="Node000022" class="node">
<title>Node22</title>
<g id="a_Node000022"><a xlink:title=" ">
<polygon fill="#e0e0e0" stroke="#999999" points="1110.5,-255.5 1017.5,-255.5 1017.5,-236.5 1110.5,-236.5 1110.5,-255.5"/>
<text text-anchor="middle" x="1064" y="-243.5" font-family="Helvetica,sans-Serif" font-size="10.00">QNetworkReply</text>
</a>
</g>
</g>
<!-- Node18&#45;&gt;Node22 -->
<g id="edge39_Node000018_Node000022" class="edge">
<title>Node18&#45;&gt;Node22</title>
<g id="a_edge39_Node000018_Node000022"><a xlink:title=" ">
<path fill="none" stroke="#63b8ff" d="M853.13,-296.92C892.1,-288.11 954.34,-273.89 1008,-261 1012.06,-260.03 1016.27,-259 1020.49,-257.96"/>
<polygon fill="#63b8ff" stroke="#63b8ff" points="1021.4,-261.34 1030.27,-255.54 1019.72,-254.55 1021.4,-261.34"/>
</a>
</g>
</g>
<!-- Node23 -->
<g id="Node000023" class="node">
<title>Node23</title>
<g id="a_Node000023"><a xlink:title=" ">
<polygon fill="#e0e0e0" stroke="#999999" points="622,-255.5 566,-255.5 566,-236.5 622,-236.5 622,-255.5"/>
<text text-anchor="middle" x="594" y="-243.5" font-family="Helvetica,sans-Serif" font-size="10.00">QObject</text>
</a>
</g>
</g>
<!-- Node18&#45;&gt;Node23 -->
<g id="edge40_Node000018_Node000023" class="edge">
<title>Node18&#45;&gt;Node23</title>
<g id="a_edge40_Node000018_Node000023"><a xlink:title=" ">
<path fill="none" stroke="#63b8ff" d="M773.94,-296.93C736.61,-288.8 680.17,-275.68 632,-261 629.87,-260.35 627.68,-259.65 625.49,-258.91"/>
<polygon fill="#63b8ff" stroke="#63b8ff" points="626.55,-255.58 615.96,-255.57 624.24,-262.18 626.55,-255.58"/>
</a>
</g>
</g>
<!-- Node24 -->
<g id="Node000024" class="node">
<title>Node24</title>
<g id="a_Node000024"><a xlink:title=" ">
<polygon fill="#e0e0e0" stroke="#999999" points="910.5,-255.5 797.5,-255.5 797.5,-236.5 910.5,-236.5 910.5,-255.5"/>
<text text-anchor="middle" x="854" y="-243.5" font-family="Helvetica,sans-Serif" font-size="10.00">QRandomGenerator</text>
</a>
</g>
</g>
<!-- Node18&#45;&gt;Node24 -->
<g id="edge41_Node000018_Node000024" class="edge">
<title>Node18&#45;&gt;Node24</title>
<g id="a_edge41_Node000018_Node000024"><a xlink:title=" ">
<path fill="none" stroke="#63b8ff" d="M820.75,-296.87C826.46,-288.31 835.35,-274.97 842.51,-264.24"/>
<polygon fill="#63b8ff" stroke="#63b8ff" points="845.59,-265.93 848.22,-255.67 839.76,-262.05 845.59,-265.93"/>
</a>
</g>
</g>
<!-- Node25 -->
<g id="Node000025" class="node">
<title>Node25</title>
<g id="a_Node000025"><a xlink:title=" ">
<polygon fill="#e0e0e0" stroke="#999999" points="999,-255.5 929,-255.5 929,-236.5 999,-236.5 999,-255.5"/>
<text text-anchor="middle" x="964" y="-243.5" font-family="Helvetica,sans-Serif" font-size="10.00">QRunnable</text>
</a>
</g>
</g>
<!-- Node18&#45;&gt;Node25 -->
<g id="edge42_Node000018_Node000025" class="edge">
<title>Node18&#45;&gt;Node25</title>
<g id="a_edge42_Node000018_Node000025"><a xlink:title=" ">
<path fill="none" stroke="#63b8ff" d="M836.67,-296.99C861.94,-287.07 903.91,-270.59 932.72,-259.28"/>
<polygon fill="#63b8ff" stroke="#63b8ff" points="934.28,-262.43 942.31,-255.52 931.72,-255.91 934.28,-262.43"/>
</a>
</g>
</g>
<!-- Node26&#45;&gt;Node3 -->
<g id="edge44_Node000026_Node000003" class="edge">
<title>Node26&#45;&gt;Node3</title>
<g id="a_edge44_Node000026_Node000003"><a xlink:title=" ">
<path fill="none" stroke="#63b8ff" d="M275.02,-296.69C272.05,-287.75 267.44,-273.49 264,-261 258.88,-242.44 253.88,-221.23 250.3,-205.31"/>
<polygon fill="#63b8ff" stroke="#63b8ff" points="253.65,-204.24 248.06,-195.24 246.81,-205.76 253.65,-204.24"/>
</a>
</g>
</g>
<!-- Node26&#45;&gt;Node4 -->
<g id="edge45_Node000026_Node000004" class="edge">
<title>Node26&#45;&gt;Node4</title>
<g id="a_edge45_Node000026_Node000004"><a xlink:title=" ">
<path fill="none" stroke="#63b8ff" d="M222.35,-303.83C190.71,-299.66 153.43,-288.63 133,-261 110.74,-230.88 161.2,-170.04 166,-165 179.03,-151.31 197.22,-140.67 212.86,-133.23"/>
<polygon fill="#63b8ff" stroke="#63b8ff" points="214.52,-136.32 222.2,-129.02 211.64,-129.94 214.52,-136.32"/>
</a>
</g>
</g>
<!-- Node26&#45;&gt;Node5 -->
<g id="edge46_Node000026_Node000005" class="edge">
<title>Node26&#45;&gt;Node5</title>
<g id="a_edge46_Node000026_Node000005"><a xlink:title=" ">
<path fill="none" stroke="#63b8ff" d="M222.49,-302.97C189.56,-298.54 149.41,-287.53 124,-261 76.74,-211.64 74.28,-123.46 75.73,-84.69"/>
<polygon fill="#63b8ff" stroke="#63b8ff" points="79.25,-84.51 76.26,-74.34 72.26,-84.15 79.25,-84.51"/>
</a>
</g>
</g>
<!-- Node26&#45;&gt;Node8 -->
<g id="edge51_Node000026_Node000008" class="edge">
<title>Node26&#45;&gt;Node8</title>
<g id="a_edge51_Node000026_Node000008"><a xlink:title=" ">
<path fill="none" stroke="#63b8ff" d="M222.41,-304.47C141.28,-299.69 0,-277.51 0,-181 0,-181 0,-181 0,-118.5 0,-88.63 0.39,-75.62 22,-55 38.43,-39.33 97.14,-25.25 136.33,-17.3"/>
<polygon fill="#63b8ff" stroke="#63b8ff" points="137.19,-20.7 146.32,-15.32 135.83,-13.83 137.19,-20.7"/>
</a>
</g>
</g>
<!-- Node26&#45;&gt;Node12 -->
<g id="edge47_Node000026_Node000012" class="edge">
<title>Node26&#45;&gt;Node12</title>
<g id="a_edge47_Node000026_Node000012"><a xlink:title=" ">
<path fill="none" stroke="#63b8ff" d="M278.55,-296.97C279.86,-282.35 284.15,-252.03 298,-231 327.17,-186.71 379.98,-152.22 411.74,-134.24"/>
<polygon fill="#63b8ff" stroke="#63b8ff" points="413.8,-137.1 420.87,-129.2 410.42,-130.97 413.8,-137.1"/>
</a>
</g>
</g>
<!-- Node26&#45;&gt;Node19 -->
<g id="edge48_Node000026_Node000019" class="edge">
<title>Node26&#45;&gt;Node19</title>
<g id="a_edge48_Node000026_Node000019"><a xlink:title=" ">
<path fill="none" stroke="#63b8ff" d="M301.41,-296.99C328.95,-286.99 374.87,-270.3 406.01,-258.99"/>
<polygon fill="#63b8ff" stroke="#63b8ff" points="407.36,-262.22 415.56,-255.52 404.97,-255.64 407.36,-262.22"/>
</a>
</g>
</g>
<!-- Node26&#45;&gt;Node20 -->
<g id="edge49_Node000026_Node000020" class="edge">
<title>Node26&#45;&gt;Node20</title>
<g id="a_edge49_Node000026_Node000020"><a xlink:title=" ">
<path fill="none" stroke="#63b8ff" d="M328.09,-296.97C370.16,-289.27 431.61,-276.74 484,-261 485.93,-260.42 487.9,-259.79 489.87,-259.12"/>
<polygon fill="#63b8ff" stroke="#63b8ff" points="491.43,-262.27 499.64,-255.56 489.04,-255.69 491.43,-262.27"/>
</a>
</g>
</g>
<!-- Node26&#45;&gt;Node23 -->
<g id="edge50_Node000026_Node000023" class="edge">
<title>Node26&#45;&gt;Node23</title>
<g id="a_edge50_Node000026_Node000023"><a xlink:title=" ">
<path fill="none" stroke="#63b8ff" d="M333.75,-299.99C390.57,-293.59 480.92,-281.23 557,-261 559.3,-260.39 561.65,-259.69 564,-258.93"/>
<polygon fill="#63b8ff" stroke="#63b8ff" points="565.22,-262.21 573.5,-255.6 562.9,-255.61 565.22,-262.21"/>
</a>
</g>
</g>
<!-- Node27 -->
<g id="Node000027" class="node">
<title>Node27</title>
<g id="a_Node000027"><a xlink:title=" ">
<polygon fill="#e0e0e0" stroke="#999999" points="212,-255.5 142,-255.5 142,-236.5 212,-236.5 212,-255.5"/>
<text text-anchor="middle" x="177" y="-243.5" font-family="Helvetica,sans-Serif" font-size="10.00">QStringList</text>
</a>
</g>
</g>
<!-- Node26&#45;&gt;Node27 -->
<g id="edge52_Node000026_Node000027" class="edge">
<title>Node26&#45;&gt;Node27</title>
<g id="a_edge52_Node000026_Node000027"><a xlink:title=" ">
<path fill="none" stroke="#63b8ff" d="M263.1,-296.87C246.69,-287.36 220.07,-271.95 200.77,-260.77"/>
<polygon fill="#63b8ff" stroke="#63b8ff" points="202.37,-257.65 191.96,-255.67 198.86,-263.71 202.37,-257.65"/>
</a>
</g>
</g>
<!-- Node26&#45;&gt;Node28 -->
<g id="edge53_Node000026_Node000028" class="edge">
<title>Node26&#45;&gt;Node28</title>
<g id="a_edge53_Node000026_Node000028"><a xlink:title=" ">
<path fill="none" stroke="#63b8ff" d="M288.03,-296.87C298.58,-287.8 315.39,-273.34 328.19,-262.32"/>
<polygon fill="#63b8ff" stroke="#63b8ff" points="330.63,-264.84 335.93,-255.67 326.06,-259.54 330.63,-264.84"/>
</a>
</g>
</g>
<!-- Node29&#45;&gt;Node19 -->
<g id="edge55_Node000029_Node000019" class="edge">
<title>Node29&#45;&gt;Node19</title>
<g id="a_edge55_Node000029_Node000019"><a xlink:title=" ">
<path fill="none" stroke="#63b8ff" d="M503.79,-296.87C491.89,-287.71 472.86,-273.06 458.49,-262.01"/>
<polygon fill="#63b8ff" stroke="#63b8ff" points="460.32,-258.99 450.26,-255.67 456.05,-264.54 460.32,-258.99"/>
</a>
</g>
</g>
<!-- Node29&#45;&gt;Node20 -->
<g id="edge56_Node000029_Node000020" class="edge">
<title>Node29&#45;&gt;Node20</title>
<g id="a_edge56_Node000029_Node000020"><a xlink:title=" ">
<path fill="none" stroke="#63b8ff" d="M515.74,-296.87C516.43,-288.75 517.5,-276.31 518.39,-265.89"/>
<polygon fill="#63b8ff" stroke="#63b8ff" points="521.89,-265.93 519.26,-255.67 514.92,-265.33 521.89,-265.93"/>
</a>
</g>
</g>
<!-- Node29&#45;&gt;Node23 -->
<g id="edge57_Node000029_Node000023" class="edge">
<title>Node29&#45;&gt;Node23</title>
<g id="a_edge57_Node000029_Node000023"><a xlink:title=" ">
<path fill="none" stroke="#63b8ff" d="M526.66,-296.87C539.14,-287.62 559.18,-272.78 574.16,-261.69"/>
<polygon fill="#63b8ff" stroke="#63b8ff" points="576.34,-264.43 582.3,-255.67 572.18,-258.81 576.34,-264.43"/>
</a>
</g>
</g>
</g>
</svg>
