<?xml version="1.0" encoding="UTF-8" standalone="no"?>
<!DOCTYPE svg PUBLIC "-//W3C//DTD SVG 1.1//EN"
 "http://www.w3.org/Graphics/SVG/1.1/DTD/svg11.dtd">
<!-- Generated by graphviz version 2.43.0 (0)
 -->
<!-- Title: services/pipeline/stage/FetchStageHandler.h Pages: 1 -->
<svg width="1412pt" height="390pt"
 viewBox="0.00 0.00 1412.00 390.00" xmlns="http://www.w3.org/2000/svg" xmlns:xlink="http://www.w3.org/1999/xlink">
<g id="graph0" class="graph" transform="scale(1 1) rotate(0) translate(4 386)">
<title>services/pipeline/stage/FetchStageHandler.h</title>
<!-- Node1 -->
<g id="Node000001" class="node">
<title>Node1</title>
<g id="a_Node000001"><a xlink:title=" ">
<polygon fill="#999999" stroke="#666666" points="998.5,-382 869.5,-382 869.5,-352 998.5,-352 998.5,-382"/>
<text text-anchor="start" x="877.5" y="-370" font-family="Helvetica,sans-Serif" font-size="10.00">services/pipeline/stage</text>
<text text-anchor="middle" x="934" y="-359" font-family="Helvetica,sans-Serif" font-size="10.00">/FetchStageHandler.h</text>
</a>
</g>
</g>
<!-- Node2 -->
<g id="Node000002" class="node">
<title>Node2</title>
<g id="a_Node000002"><a xlink:href="ComponentData_8h.html" target="_top" xlink:title=" ">
<polygon fill="white" stroke="#666666" points="1139.5,-195 1000.5,-195 1000.5,-165 1139.5,-165 1139.5,-195"/>
<text text-anchor="start" x="1008.5" y="-183" font-family="Helvetica,sans-Serif" font-size="10.00">../../../models/Component</text>
<text text-anchor="middle" x="1070" y="-172" font-family="Helvetica,sans-Serif" font-size="10.00">Data.h</text>
</a>
</g>
</g>
<!-- Node1&#45;&gt;Node2 -->
<g id="edge1_Node000001_Node000002" class="edge">
<title>Node1&#45;&gt;Node2</title>
<g id="a_edge1_Node000001_Node000002"><a xlink:title=" ">
<path fill="none" stroke="#63b8ff" d="M998.8,-365.56C1074,-361.14 1195.06,-341.06 1253,-261 1284.21,-217.87 1212.16,-197.7 1149.48,-188.46"/>
<polygon fill="#63b8ff" stroke="#63b8ff" points="1149.91,-184.99 1139.52,-187.07 1148.94,-191.92 1149.91,-184.99"/>
</a>
</g>
</g>
<!-- Node14 -->
<g id="Node000014" class="node">
<title>Node14</title>
<g id="a_Node000014"><a xlink:href="ComponentExportStatus_8h.html" target="_top" xlink:title=" ">
<polygon fill="white" stroke="#666666" points="630.5,-261 491.5,-261 491.5,-231 630.5,-231 630.5,-261"/>
<text text-anchor="start" x="499.5" y="-249" font-family="Helvetica,sans-Serif" font-size="10.00">../../../models/Component</text>
<text text-anchor="middle" x="561" y="-238" font-family="Helvetica,sans-Serif" font-size="10.00">ExportStatus.h</text>
</a>
</g>
</g>
<!-- Node1&#45;&gt;Node14 -->
<g id="edge24_Node000001_Node000014" class="edge">
<title>Node1&#45;&gt;Node14</title>
<g id="a_edge24_Node000001_Node000014"><a xlink:title=" ">
<path fill="none" stroke="#63b8ff" d="M872.65,-351.97C834.47,-342.79 784.51,-329.93 741,-316 693.31,-300.73 639.87,-279.74 603.7,-264.93"/>
<polygon fill="#63b8ff" stroke="#63b8ff" points="605.02,-261.69 594.44,-261.12 602.35,-268.16 605.02,-261.69"/>
</a>
</g>
</g>
<!-- Node17 -->
<g id="Node000017" class="node">
<title>Node17</title>
<g id="a_Node000017"><a xlink:href="FetchWorker_8h.html" target="_top" xlink:title=" ">
<polygon fill="white" stroke="#666666" points="637.5,-316 484.5,-316 484.5,-297 637.5,-297 637.5,-316"/>
<text text-anchor="middle" x="561" y="-304" font-family="Helvetica,sans-Serif" font-size="10.00">../../../workers/FetchWorker.h</text>
</a>
</g>
</g>
<!-- Node1&#45;&gt;Node17 -->
<g id="edge33_Node000001_Node000017" class="edge">
<title>Node1&#45;&gt;Node17</title>
<g id="a_edge33_Node000001_Node000017"><a xlink:title=" ">
<path fill="none" stroke="#63b8ff" d="M869.45,-355.88C801.13,-345.16 693.92,-328.35 625.58,-317.63"/>
<polygon fill="#63b8ff" stroke="#63b8ff" points="625.8,-314.12 615.37,-316.03 624.71,-321.04 625.8,-314.12"/>
</a>
</g>
</g>
<!-- Node20 -->
<g id="Node000020" class="node">
<title>Node20</title>
<g id="a_Node000020"><a xlink:title=" ">
<polygon fill="#e0e0e0" stroke="#999999" points="142,-255.5 0,-255.5 0,-236.5 142,-236.5 142,-255.5"/>
<text text-anchor="middle" x="71" y="-243.5" font-family="Helvetica,sans-Serif" font-size="10.00">QNetworkAccessManager</text>
</a>
</g>
</g>
<!-- Node1&#45;&gt;Node20 -->
<g id="edge59_Node000001_Node000020" class="edge">
<title>Node1&#45;&gt;Node20</title>
<g id="a_edge59_Node000001_Node000020"><a xlink:title=" ">
<path fill="none" stroke="#63b8ff" d="M869.24,-360.17C780.22,-351.88 615.13,-335.51 475,-316 330.34,-295.86 294.94,-285.81 151,-261 144.18,-259.83 137.04,-258.59 129.95,-257.35"/>
<polygon fill="#63b8ff" stroke="#63b8ff" points="130.1,-253.82 119.64,-255.55 128.89,-260.72 130.1,-253.82"/>
</a>
</g>
</g>
<!-- Node25 -->
<g id="Node000025" class="node">
<title>Node25</title>
<g id="a_Node000025"><a xlink:href="ExportService_8h.html" target="_top" xlink:title=" ">
<polygon fill="white" stroke="#666666" points="989.5,-316 878.5,-316 878.5,-297 989.5,-297 989.5,-316"/>
<text text-anchor="middle" x="934" y="-304" font-family="Helvetica,sans-Serif" font-size="10.00">../../ExportService.h</text>
</a>
</g>
</g>
<!-- Node1&#45;&gt;Node25 -->
<g id="edge42_Node000001_Node000025" class="edge">
<title>Node1&#45;&gt;Node25</title>
<g id="a_edge42_Node000001_Node000025"><a xlink:title=" ">
<path fill="none" stroke="#63b8ff" d="M934,-351.84C934,-344.21 934,-334.7 934,-326.45"/>
<polygon fill="#63b8ff" stroke="#63b8ff" points="937.5,-326.27 934,-316.27 930.5,-326.27 937.5,-326.27"/>
</a>
</g>
</g>
<!-- Node27 -->
<g id="Node000027" class="node">
<title>Node27</title>
<g id="a_Node000027"><a xlink:title=" ">
<polygon fill="#e0e0e0" stroke="#999999" points="1243.5,-255.5 1164.5,-255.5 1164.5,-236.5 1243.5,-236.5 1243.5,-255.5"/>
<text text-anchor="middle" x="1204" y="-243.5" font-family="Helvetica,sans-Serif" font-size="10.00">QThreadPool</text>
</a>
</g>
</g>
<!-- Node1&#45;&gt;Node27 -->
<g id="edge61_Node000001_Node000027" class="edge">
<title>Node1&#45;&gt;Node27</title>
<g id="a_edge61_Node000001_Node000027"><a xlink:title=" ">
<path fill="none" stroke="#63b8ff" d="M965.77,-352C1018.69,-328.67 1124.14,-282.2 1175.1,-259.74"/>
<polygon fill="#63b8ff" stroke="#63b8ff" points="1176.79,-262.82 1184.53,-255.58 1173.97,-256.41 1176.79,-262.82"/>
</a>
</g>
</g>
<!-- Node28 -->
<g id="Node000028" class="node">
<title>Node28</title>
<g id="a_Node000028"><a xlink:href="StageHandler_8h.html" target="_top" xlink:title=" ">
<polygon fill="white" stroke="#666666" points="841.5,-316 750.5,-316 750.5,-297 841.5,-297 841.5,-316"/>
<text text-anchor="middle" x="796" y="-304" font-family="Helvetica,sans-Serif" font-size="10.00">StageHandler.h</text>
</a>
</g>
</g>
<!-- Node1&#45;&gt;Node28 -->
<g id="edge54_Node000001_Node000028" class="edge">
<title>Node1&#45;&gt;Node28</title>
<g id="a_edge54_Node000001_Node000028"><a xlink:title=" ">
<path fill="none" stroke="#63b8ff" d="M900.95,-351.99C878.02,-342.27 847.76,-329.44 825.62,-320.06"/>
<polygon fill="#63b8ff" stroke="#63b8ff" points="826.95,-316.82 816.38,-316.14 824.22,-323.26 826.95,-316.82"/>
</a>
</g>
</g>
<!-- Node29 -->
<g id="Node000029" class="node">
<title>Node29</title>
<g id="a_Node000029"><a xlink:title=" ">
<polygon fill="#e0e0e0" stroke="#999999" points="1345.5,-316 1300.5,-316 1300.5,-297 1345.5,-297 1345.5,-316"/>
<text text-anchor="middle" x="1323" y="-304" font-family="Helvetica,sans-Serif" font-size="10.00">QMap</text>
</a>
</g>
</g>
<!-- Node1&#45;&gt;Node29 -->
<g id="edge58_Node000001_Node000029" class="edge">
<title>Node1&#45;&gt;Node29</title>
<g id="a_edge58_Node000001_Node000029"><a xlink:title=" ">
<path fill="none" stroke="#63b8ff" d="M998.82,-358.46C1069.65,-349.84 1186.32,-334.5 1286,-316 1287.46,-315.73 1288.95,-315.44 1290.45,-315.14"/>
<polygon fill="#63b8ff" stroke="#63b8ff" points="1291.32,-318.53 1300.37,-313.02 1289.85,-311.69 1291.32,-318.53"/>
</a>
</g>
</g>
<!-- Node30 -->
<g id="Node000030" class="node">
<title>Node30</title>
<g id="a_Node000030"><a xlink:title=" ">
<polygon fill="#e0e0e0" stroke="#999999" points="1404,-316 1364,-316 1364,-297 1404,-297 1404,-316"/>
<text text-anchor="middle" x="1384" y="-304" font-family="Helvetica,sans-Serif" font-size="10.00">QSet</text>
</a>
</g>
</g>
<!-- Node1&#45;&gt;Node30 -->
<g id="edge60_Node000001_Node000030" class="edge">
<title>Node1&#45;&gt;Node30</title>
<g id="a_edge60_Node000001_Node000030"><a xlink:title=" ">
<path fill="none" stroke="#63b8ff" d="M998.73,-361.68C1079.81,-355.53 1223.04,-342.18 1354.02,-315.88"/>
<polygon fill="#63b8ff" stroke="#63b8ff" points="1354.73,-319.31 1363.83,-313.88 1353.33,-312.45 1354.73,-319.31"/>
</a>
</g>
</g>
<!-- Node3 -->
<g id="Node000003" class="node">
<title>Node3</title>
<g id="a_Node000003"><a xlink:href="FootprintData_8h.html" target="_top" xlink:title=" ">
<polygon fill="white" stroke="#666666" points="989,-129 897,-129 897,-110 989,-110 989,-129"/>
<text text-anchor="middle" x="943" y="-117" font-family="Helvetica,sans-Serif" font-size="10.00">FootprintData.h</text>
</a>
</g>
</g>
<!-- Node2&#45;&gt;Node3 -->
<g id="edge2_Node000002_Node000003" class="edge">
<title>Node2&#45;&gt;Node3</title>
<g id="a_edge2_Node000002_Node000003"><a xlink:title=" ">
<path fill="none" stroke="#63b8ff" d="M1039.58,-164.99C1018.77,-155.4 991.38,-142.79 971.09,-133.44"/>
<polygon fill="#63b8ff" stroke="#63b8ff" points="972.3,-130.14 961.76,-129.14 969.37,-136.5 972.3,-130.14"/>
</a>
</g>
</g>
<!-- Node4 -->
<g id="Node000004" class="node">
<title>Node4</title>
<g id="a_Node000004"><a xlink:href="Model3DData_8h.html" target="_top" xlink:title=" ">
<polygon fill="white" stroke="#666666" points="1229,-74 1137,-74 1137,-55 1229,-55 1229,-74"/>
<text text-anchor="middle" x="1183" y="-62" font-family="Helvetica,sans-Serif" font-size="10.00">Model3DData.h</text>
</a>
</g>
</g>
<!-- Node2&#45;&gt;Node4 -->
<g id="edge12_Node000002_Node000004" class="edge">
<title>Node2&#45;&gt;Node4</title>
<g id="a_edge12_Node000002_Node000004"><a xlink:title=" ">
<path fill="none" stroke="#63b8ff" d="M1085.17,-164.72C1095.63,-154.8 1109.78,-141.22 1122,-129 1137.78,-113.21 1155.4,-94.78 1167.63,-81.85"/>
<polygon fill="#63b8ff" stroke="#63b8ff" points="1170.5,-83.91 1174.82,-74.23 1165.41,-79.11 1170.5,-83.91"/>
</a>
</g>
</g>
<!-- Node6 -->
<g id="Node000006" class="node">
<title>Node6</title>
<g id="a_Node000006"><a xlink:title=" ">
<polygon fill="#e0e0e0" stroke="#999999" points="1054,-19 978,-19 978,0 1054,0 1054,-19"/>
<text text-anchor="middle" x="1016" y="-7" font-family="Helvetica,sans-Serif" font-size="10.00">QJsonObject</text>
</a>
</g>
</g>
<!-- Node2&#45;&gt;Node6 -->
<g id="edge21_Node000002_Node000006" class="edge">
<title>Node2&#45;&gt;Node6</title>
<g id="a_edge21_Node000002_Node000006"><a xlink:title=" ">
<path fill="none" stroke="#63b8ff" d="M1076.74,-164.98C1087.27,-140.89 1104.51,-90.8 1085,-55 1077.35,-40.97 1063.17,-30.69 1049.64,-23.57"/>
<polygon fill="#63b8ff" stroke="#63b8ff" points="1050.99,-20.34 1040.47,-19.14 1047.95,-26.64 1050.99,-20.34"/>
</a>
</g>
</g>
<!-- Node7 -->
<g id="Node000007" class="node">
<title>Node7</title>
<g id="a_Node000007"><a xlink:title=" ">
<polygon fill="#e0e0e0" stroke="#999999" points="842.5,-19 789.5,-19 789.5,0 842.5,0 842.5,-19"/>
<text text-anchor="middle" x="816" y="-7" font-family="Helvetica,sans-Serif" font-size="10.00">QString</text>
</a>
</g>
</g>
<!-- Node2&#45;&gt;Node7 -->
<g id="edge23_Node000002_Node000007" class="edge">
<title>Node2&#45;&gt;Node7</title>
<g id="a_edge23_Node000002_Node000007"><a xlink:title=" ">
<path fill="none" stroke="#63b8ff" d="M1072.67,-164.88C1076.62,-139.26 1080.75,-84.99 1052,-55 1025.12,-26.96 912.36,-16.16 852.97,-12.36"/>
<polygon fill="#63b8ff" stroke="#63b8ff" points="853.07,-8.86 842.88,-11.75 852.65,-15.85 853.07,-8.86"/>
</a>
</g>
</g>
<!-- Node8 -->
<g id="Node000008" class="node">
<title>Node8</title>
<g id="a_Node000008"><a xlink:title=" ">
<polygon fill="#e0e0e0" stroke="#999999" points="1042.5,-74 971.5,-74 971.5,-55 1042.5,-55 1042.5,-74"/>
<text text-anchor="middle" x="1007" y="-62" font-family="Helvetica,sans-Serif" font-size="10.00">QJsonArray</text>
</a>
</g>
</g>
<!-- Node2&#45;&gt;Node8 -->
<g id="edge20_Node000002_Node000008" class="edge">
<title>Node2&#45;&gt;Node8</title>
<g id="a_edge20_Node000002_Node000008"><a xlink:title=" ">
<path fill="none" stroke="#63b8ff" d="M1062.02,-164.63C1050.48,-143.84 1029.17,-105.44 1016.73,-83.02"/>
<polygon fill="#63b8ff" stroke="#63b8ff" points="1019.76,-81.27 1011.85,-74.23 1013.64,-84.67 1019.76,-81.27"/>
</a>
</g>
</g>
<!-- Node11 -->
<g id="Node000011" class="node">
<title>Node11</title>
<g id="a_Node000011"><a xlink:href="SymbolData_8h.html" target="_top" xlink:title=" ">
<polygon fill="white" stroke="#666666" points="877,-129 791,-129 791,-110 877,-110 877,-129"/>
<text text-anchor="middle" x="834" y="-117" font-family="Helvetica,sans-Serif" font-size="10.00">SymbolData.h</text>
</a>
</g>
</g>
<!-- Node2&#45;&gt;Node11 -->
<g id="edge13_Node000002_Node000011" class="edge">
<title>Node2&#45;&gt;Node11</title>
<g id="a_edge13_Node000002_Node000011"><a xlink:title=" ">
<path fill="none" stroke="#63b8ff" d="M1013.47,-164.99C972.04,-154.72 916.57,-140.97 878.33,-131.49"/>
<polygon fill="#63b8ff" stroke="#63b8ff" points="879.06,-128.06 868.51,-129.05 877.37,-134.86 879.06,-128.06"/>
</a>
</g>
</g>
<!-- Node13 -->
<g id="Node000013" class="node">
<title>Node13</title>
<g id="a_Node000013"><a xlink:title=" ">
<polygon fill="#e0e0e0" stroke="#999999" points="773,-129 681,-129 681,-110 773,-110 773,-129"/>
<text text-anchor="middle" x="727" y="-117" font-family="Helvetica,sans-Serif" font-size="10.00">QSharedPointer</text>
</a>
</g>
</g>
<!-- Node2&#45;&gt;Node13 -->
<g id="edge22_Node000002_Node000013" class="edge">
<title>Node2&#45;&gt;Node13</title>
<g id="a_edge22_Node000002_Node000013"><a xlink:title=" ">
<path fill="none" stroke="#63b8ff" d="M1000.18,-167.09C936.11,-156.16 842.41,-140.18 783.09,-130.07"/>
<polygon fill="#63b8ff" stroke="#63b8ff" points="783.6,-126.6 773.15,-128.37 782.42,-133.5 783.6,-126.6"/>
</a>
</g>
</g>
<!-- Node3&#45;&gt;Node4 -->
<g id="edge3_Node000003_Node000004" class="edge">
<title>Node3&#45;&gt;Node4</title>
<g id="a_edge3_Node000003_Node000004"><a xlink:title=" ">
<path fill="none" stroke="#63b8ff" d="M981.56,-109.98C1023.07,-100.82 1089.21,-86.21 1134.29,-76.26"/>
<polygon fill="#63b8ff" stroke="#63b8ff" points="1135.13,-79.66 1144.14,-74.08 1133.62,-72.82 1135.13,-79.66"/>
</a>
</g>
</g>
<!-- Node3&#45;&gt;Node6 -->
<g id="edge8_Node000003_Node000006" class="edge">
<title>Node3&#45;&gt;Node6</title>
<g id="a_edge8_Node000003_Node000006"><a xlink:title=" ">
<path fill="none" stroke="#63b8ff" d="M944,-109.6C945.8,-96.64 950.54,-72.26 962,-55 969.87,-43.14 981.86,-32.81 992.53,-25.1"/>
<polygon fill="#63b8ff" stroke="#63b8ff" points="994.8,-27.79 1001.08,-19.26 990.85,-22.02 994.8,-27.79"/>
</a>
</g>
</g>
<!-- Node3&#45;&gt;Node7 -->
<g id="edge11_Node000003_Node000007" class="edge">
<title>Node3&#45;&gt;Node7</title>
<g id="a_edge11_Node000003_Node000007"><a xlink:title=" ">
<path fill="none" stroke="#63b8ff" d="M936.13,-109.62C925.86,-96.69 905.53,-72.35 885,-55 871.29,-43.41 854.37,-32.46 840.72,-24.31"/>
<polygon fill="#63b8ff" stroke="#63b8ff" points="842.27,-21.17 831.87,-19.15 838.74,-27.21 842.27,-21.17"/>
</a>
</g>
</g>
<!-- Node3&#45;&gt;Node8 -->
<g id="edge7_Node000003_Node000008" class="edge">
<title>Node3&#45;&gt;Node8</title>
<g id="a_edge7_Node000003_Node000008"><a xlink:title=" ">
<path fill="none" stroke="#63b8ff" d="M953.28,-109.98C962.84,-102.07 977.28,-90.11 988.78,-80.58"/>
<polygon fill="#63b8ff" stroke="#63b8ff" points="991.06,-83.24 996.53,-74.17 986.6,-77.85 991.06,-83.24"/>
</a>
</g>
</g>
<!-- Node9 -->
<g id="Node000009" class="node">
<title>Node9</title>
<g id="a_Node000009"><a xlink:title=" ">
<polygon fill="#e0e0e0" stroke="#999999" points="803.5,-74 762.5,-74 762.5,-55 803.5,-55 803.5,-74"/>
<text text-anchor="middle" x="783" y="-62" font-family="Helvetica,sans-Serif" font-size="10.00">QList</text>
</a>
</g>
</g>
<!-- Node3&#45;&gt;Node9 -->
<g id="edge9_Node000003_Node000009" class="edge">
<title>Node3&#45;&gt;Node9</title>
<g id="a_edge9_Node000003_Node000009"><a xlink:title=" ">
<path fill="none" stroke="#63b8ff" d="M917.29,-109.98C888.88,-100.57 843.17,-85.43 813.1,-75.47"/>
<polygon fill="#63b8ff" stroke="#63b8ff" points="814.15,-72.13 803.56,-72.31 811.95,-78.78 814.15,-72.13"/>
</a>
</g>
</g>
<!-- Node10 -->
<g id="Node000010" class="node">
<title>Node10</title>
<g id="a_Node000010"><a xlink:title=" ">
<polygon fill="#e0e0e0" stroke="#999999" points="876.5,-74 821.5,-74 821.5,-55 876.5,-55 876.5,-74"/>
<text text-anchor="middle" x="849" y="-62" font-family="Helvetica,sans-Serif" font-size="10.00">QPointF</text>
</a>
</g>
</g>
<!-- Node3&#45;&gt;Node10 -->
<g id="edge10_Node000003_Node000010" class="edge">
<title>Node3&#45;&gt;Node10</title>
<g id="a_edge10_Node000003_Node000010"><a xlink:title=" ">
<path fill="none" stroke="#63b8ff" d="M927.9,-109.98C913.18,-101.69 890.58,-88.94 873.33,-79.22"/>
<polygon fill="#63b8ff" stroke="#63b8ff" points="874.81,-76.03 864.38,-74.17 871.37,-82.13 874.81,-76.03"/>
</a>
</g>
</g>
<!-- Node5 -->
<g id="Node000005" class="node">
<title>Node5</title>
<g id="a_Node000005"><a xlink:title=" ">
<polygon fill="#e0e0e0" stroke="#999999" points="1219.5,-19 1146.5,-19 1146.5,0 1219.5,0 1219.5,-19"/>
<text text-anchor="middle" x="1183" y="-7" font-family="Helvetica,sans-Serif" font-size="10.00">QByteArray</text>
</a>
</g>
</g>
<!-- Node4&#45;&gt;Node5 -->
<g id="edge4_Node000004_Node000005" class="edge">
<title>Node4&#45;&gt;Node5</title>
<g id="a_edge4_Node000004_Node000005"><a xlink:title=" ">
<path fill="none" stroke="#63b8ff" d="M1183,-54.75C1183,-47.8 1183,-37.85 1183,-29.13"/>
<polygon fill="#63b8ff" stroke="#63b8ff" points="1186.5,-29.09 1183,-19.09 1179.5,-29.09 1186.5,-29.09"/>
</a>
</g>
</g>
<!-- Node4&#45;&gt;Node6 -->
<g id="edge5_Node000004_Node000006" class="edge">
<title>Node4&#45;&gt;Node6</title>
<g id="a_edge5_Node000004_Node000006"><a xlink:title=" ">
<path fill="none" stroke="#63b8ff" d="M1156.17,-54.98C1128.13,-46.09 1083.95,-32.07 1052.7,-22.15"/>
<polygon fill="#63b8ff" stroke="#63b8ff" points="1053.63,-18.77 1043.04,-19.08 1051.51,-25.44 1053.63,-18.77"/>
</a>
</g>
</g>
<!-- Node4&#45;&gt;Node7 -->
<g id="edge6_Node000004_Node000007" class="edge">
<title>Node4&#45;&gt;Node7</title>
<g id="a_edge6_Node000004_Node000007"><a xlink:title=" ">
<path fill="none" stroke="#63b8ff" d="M1136.89,-56.84C1063.25,-46.21 920.52,-25.59 853.05,-15.85"/>
<polygon fill="#63b8ff" stroke="#63b8ff" points="853.29,-12.35 842.89,-14.38 852.29,-19.28 853.29,-12.35"/>
</a>
</g>
</g>
<!-- Node11&#45;&gt;Node6 -->
<g id="edge15_Node000011_Node000006" class="edge">
<title>Node11&#45;&gt;Node6</title>
<g id="a_edge15_Node000011_Node000006"><a xlink:title=" ">
<path fill="none" stroke="#63b8ff" d="M806.89,-109.96C776.3,-98.95 733.22,-78.41 753,-55 779.97,-23.08 899.64,-14.05 967.89,-11.5"/>
<polygon fill="#63b8ff" stroke="#63b8ff" points="968.1,-14.99 977.97,-11.16 967.86,-8 968.1,-14.99"/>
</a>
</g>
</g>
<!-- Node11&#45;&gt;Node7 -->
<g id="edge19_Node000011_Node000007" class="edge">
<title>Node11&#45;&gt;Node7</title>
<g id="a_edge19_Node000011_Node000007"><a xlink:title=" ">
<path fill="none" stroke="#63b8ff" d="M790.59,-111.19C737.66,-101.83 654.08,-85.46 645,-74 607.91,-27.16 718.37,-14.87 779.04,-11.65"/>
<polygon fill="#63b8ff" stroke="#63b8ff" points="779.56,-15.13 789.39,-11.16 779.23,-8.13 779.56,-15.13"/>
</a>
</g>
</g>
<!-- Node11&#45;&gt;Node8 -->
<g id="edge14_Node000011_Node000008" class="edge">
<title>Node11&#45;&gt;Node8</title>
<g id="a_edge14_Node000011_Node000008"><a xlink:title=" ">
<path fill="none" stroke="#63b8ff" d="M861.8,-109.98C890.97,-101.05 937,-86.94 969.4,-77.02"/>
<polygon fill="#63b8ff" stroke="#63b8ff" points="970.45,-80.36 978.99,-74.08 968.4,-73.66 970.45,-80.36"/>
</a>
</g>
</g>
<!-- Node11&#45;&gt;Node9 -->
<g id="edge16_Node000011_Node000009" class="edge">
<title>Node11&#45;&gt;Node9</title>
<g id="a_edge16_Node000011_Node000009"><a xlink:title=" ">
<path fill="none" stroke="#63b8ff" d="M825.58,-109.75C818.23,-102.11 807.37,-90.82 798.46,-81.56"/>
<polygon fill="#63b8ff" stroke="#63b8ff" points="800.72,-78.87 791.26,-74.09 795.68,-83.72 800.72,-78.87"/>
</a>
</g>
</g>
<!-- Node11&#45;&gt;Node10 -->
<g id="edge17_Node000011_Node000010" class="edge">
<title>Node11&#45;&gt;Node10</title>
<g id="a_edge17_Node000011_Node000010"><a xlink:title=" ">
<path fill="none" stroke="#63b8ff" d="M836.48,-109.75C838.46,-102.72 841.32,-92.62 843.81,-83.84"/>
<polygon fill="#63b8ff" stroke="#63b8ff" points="847.21,-84.66 846.57,-74.09 840.48,-82.76 847.21,-84.66"/>
</a>
</g>
</g>
<!-- Node12 -->
<g id="Node000012" class="node">
<title>Node12</title>
<g id="a_Node000012"><a xlink:title=" ">
<polygon fill="#e0e0e0" stroke="#999999" points="706,-74 654,-74 654,-55 706,-55 706,-74"/>
<text text-anchor="middle" x="680" y="-62" font-family="Helvetica,sans-Serif" font-size="10.00">QRectF</text>
</a>
</g>
</g>
<!-- Node11&#45;&gt;Node12 -->
<g id="edge18_Node000011_Node000012" class="edge">
<title>Node11&#45;&gt;Node12</title>
<g id="a_edge18_Node000011_Node000012"><a xlink:title=" ">
<path fill="none" stroke="#63b8ff" d="M809.26,-109.98C783.63,-101.16 743.37,-87.31 714.59,-77.41"/>
<polygon fill="#63b8ff" stroke="#63b8ff" points="715.53,-74.03 704.94,-74.08 713.25,-80.65 715.53,-74.03"/>
</a>
</g>
</g>
<!-- Node14&#45;&gt;Node2 -->
<g id="edge25_Node000014_Node000002" class="edge">
<title>Node14&#45;&gt;Node2</title>
<g id="a_edge25_Node000014_Node000002"><a xlink:title=" ">
<path fill="none" stroke="#63b8ff" d="M630.71,-232.27C633.51,-231.83 636.28,-231.4 639,-231 761.22,-212.96 903.74,-197.51 990.38,-188.74"/>
<polygon fill="#63b8ff" stroke="#63b8ff" points="990.8,-192.22 1000.4,-187.73 990.1,-185.25 990.8,-192.22"/>
</a>
</g>
</g>
<!-- Node14&#45;&gt;Node3 -->
<g id="edge26_Node000014_Node000003" class="edge">
<title>Node14&#45;&gt;Node3</title>
<g id="a_edge26_Node000014_Node000003"><a xlink:title=" ">
<path fill="none" stroke="#63b8ff" d="M630.81,-231.16C671.33,-222.37 723.08,-209.87 768,-195 821.92,-177.15 882.39,-149.65 916.27,-133.53"/>
<polygon fill="#63b8ff" stroke="#63b8ff" points="917.98,-136.59 925.49,-129.11 914.96,-130.27 917.98,-136.59"/>
</a>
</g>
</g>
<!-- Node14&#45;&gt;Node4 -->
<g id="edge27_Node000014_Node000004" class="edge">
<title>Node14&#45;&gt;Node4</title>
<g id="a_edge27_Node000014_Node000004"><a xlink:title=" ">
<path fill="none" stroke="#63b8ff" d="M630.68,-232.11C633.49,-231.71 636.27,-231.34 639,-231 695.37,-223.97 1105.27,-231.26 1149,-195 1181.71,-167.88 1185.04,-113.45 1184.27,-84.55"/>
<polygon fill="#63b8ff" stroke="#63b8ff" points="1187.75,-84.02 1183.79,-74.2 1180.76,-84.35 1187.75,-84.02"/>
</a>
</g>
</g>
<!-- Node14&#45;&gt;Node7 -->
<g id="edge32_Node000014_Node000007" class="edge">
<title>Node14&#45;&gt;Node7</title>
<g id="a_edge32_Node000014_Node000007"><a xlink:title=" ">
<path fill="none" stroke="#63b8ff" d="M546.51,-230.7C538.16,-221.41 528.46,-208.54 524,-195 503.31,-132.25 521.93,-95.67 574,-55 605.44,-30.44 719.83,-18.03 779.39,-13.11"/>
<polygon fill="#63b8ff" stroke="#63b8ff" points="779.81,-16.59 789.5,-12.31 779.25,-9.62 779.81,-16.59"/>
</a>
</g>
</g>
<!-- Node14&#45;&gt;Node11 -->
<g id="edge28_Node000014_Node000011" class="edge">
<title>Node14&#45;&gt;Node11</title>
<g id="a_edge28_Node000014_Node000011"><a xlink:title=" ">
<path fill="none" stroke="#63b8ff" d="M625.87,-230.99C657.85,-222.77 696.44,-210.85 729,-195 762.26,-178.8 796.4,-152.41 816.38,-135.77"/>
<polygon fill="#63b8ff" stroke="#63b8ff" points="818.9,-138.23 824.27,-129.09 814.38,-132.88 818.9,-138.23"/>
</a>
</g>
</g>
<!-- Node14&#45;&gt;Node13 -->
<g id="edge31_Node000014_Node000013" class="edge">
<title>Node14&#45;&gt;Node13</title>
<g id="a_edge31_Node000014_Node000013"><a xlink:title=" ">
<path fill="none" stroke="#63b8ff" d="M619.74,-230.9C654.73,-221.4 694.65,-208.21 707,-195 721.12,-179.9 725.48,-155.92 726.72,-139.26"/>
<polygon fill="#63b8ff" stroke="#63b8ff" points="730.22,-139.24 727.16,-129.1 723.23,-138.93 730.22,-139.24"/>
</a>
</g>
</g>
<!-- Node15 -->
<g id="Node000015" class="node">
<title>Node15</title>
<g id="a_Node000015"><a xlink:title=" ">
<polygon fill="#e0e0e0" stroke="#999999" points="589,-189.5 533,-189.5 533,-170.5 589,-170.5 589,-189.5"/>
<text text-anchor="middle" x="561" y="-177.5" font-family="Helvetica,sans-Serif" font-size="10.00">QDebug</text>
</a>
</g>
</g>
<!-- Node14&#45;&gt;Node15 -->
<g id="edge29_Node000014_Node000015" class="edge">
<title>Node14&#45;&gt;Node15</title>
<g id="a_edge29_Node000014_Node000015"><a xlink:title=" ">
<path fill="none" stroke="#63b8ff" d="M561,-230.8C561,-221.7 561,-209.79 561,-199.9"/>
<polygon fill="#63b8ff" stroke="#63b8ff" points="564.5,-199.84 561,-189.84 557.5,-199.84 564.5,-199.84"/>
</a>
</g>
</g>
<!-- Node16 -->
<g id="Node000016" class="node">
<title>Node16</title>
<g id="a_Node000016"><a xlink:title=" ">
<polygon fill="#e0e0e0" stroke="#999999" points="698.5,-189.5 607.5,-189.5 607.5,-170.5 698.5,-170.5 698.5,-189.5"/>
<text text-anchor="middle" x="653" y="-177.5" font-family="Helvetica,sans-Serif" font-size="10.00">QElapsedTimer</text>
</a>
</g>
</g>
<!-- Node14&#45;&gt;Node16 -->
<g id="edge30_Node000014_Node000016" class="edge">
<title>Node14&#45;&gt;Node16</title>
<g id="a_edge30_Node000014_Node000016"><a xlink:title=" ">
<path fill="none" stroke="#63b8ff" d="M581.42,-230.8C596.55,-220.27 617.1,-205.97 632.3,-195.4"/>
<polygon fill="#63b8ff" stroke="#63b8ff" points="634.34,-198.24 640.55,-189.66 630.35,-192.5 634.34,-198.24"/>
</a>
</g>
</g>
<!-- Node17&#45;&gt;Node14 -->
<g id="edge34_Node000017_Node000014" class="edge">
<title>Node17&#45;&gt;Node14</title>
<g id="a_edge34_Node000017_Node000014"><a xlink:title=" ">
<path fill="none" stroke="#63b8ff" d="M561,-296.87C561,-290.11 561,-280.35 561,-271.26"/>
<polygon fill="#63b8ff" stroke="#63b8ff" points="564.5,-271.11 561,-261.11 557.5,-271.11 564.5,-271.11"/>
</a>
</g>
</g>
<!-- Node18 -->
<g id="Node000018" class="node">
<title>Node18</title>
<g id="a_Node000018"><a xlink:title=" ">
<polygon fill="#e0e0e0" stroke="#999999" points="867.5,-255.5 796.5,-255.5 796.5,-236.5 867.5,-236.5 867.5,-255.5"/>
<text text-anchor="middle" x="832" y="-243.5" font-family="Helvetica,sans-Serif" font-size="10.00">QAtomicInt</text>
</a>
</g>
</g>
<!-- Node17&#45;&gt;Node18 -->
<g id="edge35_Node000017_Node000018" class="edge">
<title>Node17&#45;&gt;Node18</title>
<g id="a_edge35_Node000017_Node000018"><a xlink:title=" ">
<path fill="none" stroke="#63b8ff" d="M612.51,-296.98C658.55,-288.98 727.69,-276.02 787,-261 790,-260.24 793.09,-259.4 796.18,-258.52"/>
<polygon fill="#63b8ff" stroke="#63b8ff" points="797.37,-261.82 805.96,-255.62 795.38,-255.11 797.37,-261.82"/>
</a>
</g>
</g>
<!-- Node19 -->
<g id="Node000019" class="node">
<title>Node19</title>
<g id="a_Node000019"><a xlink:title=" ">
<polygon fill="#e0e0e0" stroke="#999999" points="703.5,-255.5 648.5,-255.5 648.5,-236.5 703.5,-236.5 703.5,-255.5"/>
<text text-anchor="middle" x="676" y="-243.5" font-family="Helvetica,sans-Serif" font-size="10.00">QMutex</text>
</a>
</g>
</g>
<!-- Node17&#45;&gt;Node19 -->
<g id="edge36_Node000017_Node000019" class="edge">
<title>Node17&#45;&gt;Node19</title>
<g id="a_edge36_Node000017_Node000019"><a xlink:title=" ">
<path fill="none" stroke="#63b8ff" d="M577.97,-296.87C596.91,-287.23 627.79,-271.53 649.83,-260.31"/>
<polygon fill="#63b8ff" stroke="#63b8ff" points="651.64,-263.32 658.96,-255.67 648.46,-257.08 651.64,-263.32"/>
</a>
</g>
</g>
<!-- Node17&#45;&gt;Node20 -->
<g id="edge37_Node000017_Node000020" class="edge">
<title>Node17&#45;&gt;Node20</title>
<g id="a_edge37_Node000017_Node000020"><a xlink:title=" ">
<path fill="none" stroke="#63b8ff" d="M484.49,-298.7C402,-291.01 266.91,-277.41 151,-261 143.06,-259.88 134.7,-258.56 126.5,-257.19"/>
<polygon fill="#63b8ff" stroke="#63b8ff" points="127.05,-253.74 116.61,-255.51 125.88,-260.64 127.05,-253.74"/>
</a>
</g>
</g>
<!-- Node21 -->
<g id="Node000021" class="node">
<title>Node21</title>
<g id="a_Node000021"><a xlink:title=" ">
<polygon fill="#e0e0e0" stroke="#999999" points="253.5,-255.5 160.5,-255.5 160.5,-236.5 253.5,-236.5 253.5,-255.5"/>
<text text-anchor="middle" x="207" y="-243.5" font-family="Helvetica,sans-Serif" font-size="10.00">QNetworkReply</text>
</a>
</g>
</g>
<!-- Node17&#45;&gt;Node21 -->
<g id="edge38_Node000017_Node000021" class="edge">
<title>Node17&#45;&gt;Node21</title>
<g id="a_edge38_Node000017_Node000021"><a xlink:title=" ">
<path fill="none" stroke="#63b8ff" d="M489.97,-296.99C429.16,-289.22 339.43,-276.58 262,-261 257.53,-260.1 252.88,-259.07 248.27,-257.98"/>
<polygon fill="#63b8ff" stroke="#63b8ff" points="248.83,-254.52 238.29,-255.55 247.17,-261.32 248.83,-254.52"/>
</a>
</g>
</g>
<!-- Node22 -->
<g id="Node000022" class="node">
<title>Node22</title>
<g id="a_Node000022"><a xlink:title=" ">
<polygon fill="#e0e0e0" stroke="#999999" points="778,-255.5 722,-255.5 722,-236.5 778,-236.5 778,-255.5"/>
<text text-anchor="middle" x="750" y="-243.5" font-family="Helvetica,sans-Serif" font-size="10.00">QObject</text>
</a>
</g>
</g>
<!-- Node17&#45;&gt;Node22 -->
<g id="edge39_Node000017_Node000022" class="edge">
<title>Node17&#45;&gt;Node22</title>
<g id="a_edge39_Node000017_Node000022"><a xlink:title=" ">
<path fill="none" stroke="#63b8ff" d="M592.13,-296.98C622.79,-288.43 670.88,-274.62 712,-261 713.9,-260.37 715.85,-259.71 717.81,-259.03"/>
<polygon fill="#63b8ff" stroke="#63b8ff" points="719.34,-262.2 727.58,-255.54 716.99,-255.6 719.34,-262.2"/>
</a>
</g>
</g>
<!-- Node23 -->
<g id="Node000023" class="node">
<title>Node23</title>
<g id="a_Node000023"><a xlink:title=" ">
<polygon fill="#e0e0e0" stroke="#999999" points="384.5,-255.5 271.5,-255.5 271.5,-236.5 384.5,-236.5 384.5,-255.5"/>
<text text-anchor="middle" x="328" y="-243.5" font-family="Helvetica,sans-Serif" font-size="10.00">QRandomGenerator</text>
</a>
</g>
</g>
<!-- Node17&#45;&gt;Node23 -->
<g id="edge40_Node000017_Node000023" class="edge">
<title>Node17&#45;&gt;Node23</title>
<g id="a_edge40_Node000017_Node000023"><a xlink:title=" ">
<path fill="none" stroke="#63b8ff" d="M527.12,-296.99C486.05,-286.68 416.76,-269.28 371.7,-257.97"/>
<polygon fill="#63b8ff" stroke="#63b8ff" points="372.47,-254.56 361.92,-255.52 370.77,-261.35 372.47,-254.56"/>
</a>
</g>
</g>
<!-- Node24 -->
<g id="Node000024" class="node">
<title>Node24</title>
<g id="a_Node000024"><a xlink:title=" ">
<polygon fill="#e0e0e0" stroke="#999999" points="473,-255.5 403,-255.5 403,-236.5 473,-236.5 473,-255.5"/>
<text text-anchor="middle" x="438" y="-243.5" font-family="Helvetica,sans-Serif" font-size="10.00">QRunnable</text>
</a>
</g>
</g>
<!-- Node17&#45;&gt;Node24 -->
<g id="edge41_Node000017_Node000024" class="edge">
<title>Node17&#45;&gt;Node24</title>
<g id="a_edge41_Node000017_Node000024"><a xlink:title=" ">
<path fill="none" stroke="#63b8ff" d="M543.11,-296.99C522.62,-287.25 488.81,-271.16 465.08,-259.88"/>
<polygon fill="#63b8ff" stroke="#63b8ff" points="466.44,-256.65 455.91,-255.52 463.43,-262.97 466.44,-256.65"/>
</a>
</g>
</g>
<!-- Node25&#45;&gt;Node2 -->
<g id="edge43_Node000025_Node000002" class="edge">
<title>Node25&#45;&gt;Node2</title>
<g id="a_edge43_Node000025_Node000002"><a xlink:title=" ">
<path fill="none" stroke="#63b8ff" d="M989.65,-303.83C1021.29,-299.66 1058.57,-288.63 1079,-261 1090.88,-244.93 1086.68,-221.87 1080.66,-204.63"/>
<polygon fill="#63b8ff" stroke="#63b8ff" points="1083.9,-203.3 1077.02,-195.25 1077.38,-205.83 1083.9,-203.3"/>
</a>
</g>
</g>
<!-- Node25&#45;&gt;Node3 -->
<g id="edge44_Node000025_Node000003" class="edge">
<title>Node25&#45;&gt;Node3</title>
<g id="a_edge44_Node000025_Node000003"><a xlink:title=" ">
<path fill="none" stroke="#63b8ff" d="M937.6,-296.82C941.06,-287.99 946.03,-273.81 948,-261 954.65,-217.73 949.52,-166.12 945.86,-139.1"/>
<polygon fill="#63b8ff" stroke="#63b8ff" points="949.31,-138.52 944.42,-129.12 942.39,-139.52 949.31,-138.52"/>
</a>
</g>
</g>
<!-- Node25&#45;&gt;Node4 -->
<g id="edge45_Node000025_Node000004" class="edge">
<title>Node25&#45;&gt;Node4</title>
<g id="a_edge45_Node000025_Node000004"><a xlink:title=" ">
<path fill="none" stroke="#63b8ff" d="M987.65,-296.93C1020.31,-290.24 1062.13,-278.99 1096,-261 1135.8,-239.85 1147.6,-232.23 1173,-195 1195.06,-162.67 1201.54,-148.74 1196,-110 1194.75,-101.24 1192.17,-91.79 1189.64,-83.86"/>
<polygon fill="#63b8ff" stroke="#63b8ff" points="1192.88,-82.54 1186.34,-74.2 1186.26,-84.8 1192.88,-82.54"/>
</a>
</g>
</g>
<!-- Node25&#45;&gt;Node7 -->
<g id="edge51_Node000025_Node000007" class="edge">
<title>Node25&#45;&gt;Node7</title>
<g id="a_edge51_Node000025_Node000007"><a xlink:title=" ">
<path fill="none" stroke="#63b8ff" d="M928.94,-296.66C919.94,-281.55 899.84,-250.53 876,-231 776.83,-149.74 672.17,-196.39 634,-74 631.49,-65.94 628.79,-61.64 634,-55 651.73,-32.41 731.56,-19.82 779.41,-14.17"/>
<polygon fill="#63b8ff" stroke="#63b8ff" points="779.85,-17.64 789.39,-13.04 779.06,-10.69 779.85,-17.64"/>
</a>
</g>
</g>
<!-- Node25&#45;&gt;Node11 -->
<g id="edge46_Node000025_Node000011" class="edge">
<title>Node25&#45;&gt;Node11</title>
<g id="a_edge46_Node000025_Node000011"><a xlink:title=" ">
<path fill="none" stroke="#63b8ff" d="M932.1,-296.92C928.77,-282.73 921.15,-253.68 910,-231 892.38,-195.17 864.26,-157.75 847.61,-136.96"/>
<polygon fill="#63b8ff" stroke="#63b8ff" points="850.27,-134.67 841.25,-129.12 844.83,-139.09 850.27,-134.67"/>
</a>
</g>
</g>
<!-- Node25&#45;&gt;Node18 -->
<g id="edge47_Node000025_Node000018" class="edge">
<title>Node25&#45;&gt;Node18</title>
<g id="a_edge47_Node000025_Node000018"><a xlink:title=" ">
<path fill="none" stroke="#63b8ff" d="M918.95,-296.87C902.38,-287.36 875.5,-271.95 856.01,-260.77"/>
<polygon fill="#63b8ff" stroke="#63b8ff" points="857.53,-257.61 847.11,-255.67 854.05,-263.68 857.53,-257.61"/>
</a>
</g>
</g>
<!-- Node25&#45;&gt;Node19 -->
<g id="edge48_Node000025_Node000019" class="edge">
<title>Node25&#45;&gt;Node19</title>
<g id="a_edge48_Node000025_Node000019"><a xlink:title=" ">
<path fill="none" stroke="#63b8ff" d="M878.91,-296.98C833.83,-289.39 768.67,-277.02 713,-261 710.85,-260.38 708.66,-259.7 706.46,-258.97"/>
<polygon fill="#63b8ff" stroke="#63b8ff" points="707.53,-255.63 696.93,-255.6 705.19,-262.23 707.53,-255.63"/>
</a>
</g>
</g>
<!-- Node25&#45;&gt;Node20 -->
<g id="edge49_Node000025_Node000020" class="edge">
<title>Node25&#45;&gt;Node20</title>
<g id="a_edge49_Node000025_Node000020"><a xlink:title=" ">
<path fill="none" stroke="#63b8ff" d="M878.46,-299.49C868.97,-298.57 859.21,-297.7 850,-297 539.82,-273.33 460.12,-295.88 151,-261 142.25,-260.01 133,-258.67 124.02,-257.21"/>
<polygon fill="#63b8ff" stroke="#63b8ff" points="124.48,-253.74 114.04,-255.52 123.32,-260.64 124.48,-253.74"/>
</a>
</g>
</g>
<!-- Node25&#45;&gt;Node22 -->
<g id="edge50_Node000025_Node000022" class="edge">
<title>Node25&#45;&gt;Node22</title>
<g id="a_edge50_Node000025_Node000022"><a xlink:title=" ">
<path fill="none" stroke="#63b8ff" d="M903.69,-296.97C873.83,-288.42 827.01,-274.61 787,-261 785.15,-260.37 783.25,-259.71 781.34,-259.02"/>
<polygon fill="#63b8ff" stroke="#63b8ff" points="782.42,-255.69 771.82,-255.54 780.01,-262.27 782.42,-255.69"/>
</a>
</g>
</g>
<!-- Node26 -->
<g id="Node000026" class="node">
<title>Node26</title>
<g id="a_Node000026"><a xlink:title=" ">
<polygon fill="#e0e0e0" stroke="#999999" points="1070,-255.5 1000,-255.5 1000,-236.5 1070,-236.5 1070,-255.5"/>
<text text-anchor="middle" x="1035" y="-243.5" font-family="Helvetica,sans-Serif" font-size="10.00">QStringList</text>
</a>
</g>
</g>
<!-- Node25&#45;&gt;Node26 -->
<g id="edge52_Node000025_Node000026" class="edge">
<title>Node25&#45;&gt;Node26</title>
<g id="a_edge52_Node000025_Node000026"><a xlink:title=" ">
<path fill="none" stroke="#63b8ff" d="M948.9,-296.87C965.31,-287.36 991.93,-271.95 1011.23,-260.77"/>
<polygon fill="#63b8ff" stroke="#63b8ff" points="1013.14,-263.71 1020.04,-255.67 1009.63,-257.65 1013.14,-263.71"/>
</a>
</g>
</g>
<!-- Node25&#45;&gt;Node27 -->
<g id="edge53_Node000025_Node000027" class="edge">
<title>Node25&#45;&gt;Node27</title>
<g id="a_edge53_Node000025_Node000027"><a xlink:title=" ">
<path fill="none" stroke="#63b8ff" d="M978.82,-296.95C1022.61,-288.44 1091.08,-274.7 1150,-261 1153.92,-260.09 1157.99,-259.1 1162.06,-258.09"/>
<polygon fill="#63b8ff" stroke="#63b8ff" points="1163.25,-261.4 1172.09,-255.56 1161.53,-254.62 1163.25,-261.4"/>
</a>
</g>
</g>
<!-- Node28&#45;&gt;Node18 -->
<g id="edge55_Node000028_Node000018" class="edge">
<title>Node28&#45;&gt;Node18</title>
<g id="a_edge55_Node000028_Node000018"><a xlink:title=" ">
<path fill="none" stroke="#63b8ff" d="M801.31,-296.87C806.58,-288.31 814.79,-274.97 821.39,-264.24"/>
<polygon fill="#63b8ff" stroke="#63b8ff" points="824.41,-266.02 826.67,-255.67 818.44,-262.35 824.41,-266.02"/>
</a>
</g>
</g>
<!-- Node28&#45;&gt;Node19 -->
<g id="edge56_Node000028_Node000019" class="edge">
<title>Node28&#45;&gt;Node19</title>
<g id="a_edge56_Node000028_Node000019"><a xlink:title=" ">
<path fill="none" stroke="#63b8ff" d="M778.55,-296.99C758.64,-287.29 725.86,-271.31 702.73,-260.03"/>
<polygon fill="#63b8ff" stroke="#63b8ff" points="703.99,-256.75 693.47,-255.52 700.93,-263.04 703.99,-256.75"/>
</a>
</g>
</g>
<!-- Node28&#45;&gt;Node22 -->
<g id="edge57_Node000028_Node000022" class="edge">
<title>Node28&#45;&gt;Node22</title>
<g id="a_edge57_Node000028_Node000022"><a xlink:title=" ">
<path fill="none" stroke="#63b8ff" d="M789.21,-296.87C782.35,-288.14 771.57,-274.43 763.05,-263.59"/>
<polygon fill="#63b8ff" stroke="#63b8ff" points="765.75,-261.36 756.82,-255.67 760.25,-265.69 765.75,-261.36"/>
</a>
</g>
</g>
</g>
</svg>
