<?xml version="1.0" encoding="UTF-8" standalone="no"?>
<!DOCTYPE svg PUBLIC "-//W3C//DTD SVG 1.1//EN"
 "http://www.w3.org/Graphics/SVG/1.1/DTD/svg11.dtd">
<!-- Generated by graphviz version 2.43.0 (0)
 -->
<!-- Title: utils/cli/FileReader.h Pages: 1 -->
<svg width="466pt" height="82pt"
 viewBox="0.00 0.00 466.00 82.00" xmlns="http://www.w3.org/2000/svg" xmlns:xlink="http://www.w3.org/1999/xlink">
<g id="graph0" class="graph" transform="scale(1 1) rotate(0) translate(4 78)">
<title>utils/cli/FileReader.h</title>
<!-- Node1 -->
<g id="Node000001" class="node">
<title>Node1</title>
<g id="a_Node000001"><a xlink:title=" ">
<polygon fill="#999999" stroke="#666666" points="298.5,-74 183.5,-74 183.5,-55 298.5,-55 298.5,-74"/>
<text text-anchor="middle" x="241" y="-62" font-family="Helvetica,sans-Serif" font-size="10.00">utils/cli/FileReader.h</text>
</a>
</g>
</g>
<!-- Node2 -->
<g id="Node000002" class="node">
<title>Node2</title>
<g id="a_Node000002"><a xlink:href="BatchConverter_8cpp.html" target="_top" xlink:title=" ">
<polygon fill="white" stroke="#666666" points="150,-19 0,-19 0,0 150,0 150,-19"/>
<text text-anchor="middle" x="75" y="-7" font-family="Helvetica,sans-Serif" font-size="10.00">utils/cli/BatchConverter.cpp</text>
</a>
</g>
</g>
<!-- Node1&#45;&gt;Node2 -->
<g id="edge1_Node000001_Node000002" class="edge">
<title>Node1&#45;&gt;Node2</title>
<g id="a_edge1_Node000001_Node000002"><a xlink:title=" ">
<path fill="none" stroke="#63b8ff" d="M204.75,-51.93C173.75,-42.03 129.83,-28.01 101.88,-19.08"/>
<polygon fill="#63b8ff" stroke="#63b8ff" points="203.74,-55.28 214.33,-54.98 205.87,-48.61 203.74,-55.28"/>
</a>
</g>
</g>
<!-- Node3 -->
<g id="Node000003" class="node">
<title>Node3</title>
<g id="a_Node000003"><a xlink:href="BomConverter_8cpp.html" target="_top" xlink:title=" ">
<polygon fill="white" stroke="#666666" points="313.5,-19 168.5,-19 168.5,0 313.5,0 313.5,-19"/>
<text text-anchor="middle" x="241" y="-7" font-family="Helvetica,sans-Serif" font-size="10.00">utils/cli/BomConverter.cpp</text>
</a>
</g>
</g>
<!-- Node1&#45;&gt;Node3 -->
<g id="edge2_Node000001_Node000003" class="edge">
<title>Node1&#45;&gt;Node3</title>
<g id="a_edge2_Node000001_Node000003"><a xlink:title=" ">
<path fill="none" stroke="#63b8ff" d="M241,-44.66C241,-35.93 241,-25.99 241,-19.09"/>
<polygon fill="#63b8ff" stroke="#63b8ff" points="237.5,-44.75 241,-54.75 244.5,-44.75 237.5,-44.75"/>
</a>
</g>
</g>
<!-- Node4 -->
<g id="Node000004" class="node">
<title>Node4</title>
<g id="a_Node000004"><a xlink:href="FileReader_8cpp.html" target="_top" xlink:title=" ">
<polygon fill="white" stroke="#666666" points="458,-19 332,-19 332,0 458,0 458,-19"/>
<text text-anchor="middle" x="395" y="-7" font-family="Helvetica,sans-Serif" font-size="10.00">utils/cli/FileReader.cpp</text>
</a>
</g>
</g>
<!-- Node1&#45;&gt;Node4 -->
<g id="edge3_Node000001_Node000004" class="edge">
<title>Node1&#45;&gt;Node4</title>
<g id="a_edge3_Node000001_Node000004"><a xlink:title=" ">
<path fill="none" stroke="#63b8ff" d="M275.38,-51.67C304.09,-41.79 344.36,-27.93 370.06,-19.08"/>
<polygon fill="#63b8ff" stroke="#63b8ff" points="274.06,-48.42 265.74,-54.98 276.34,-55.04 274.06,-48.42"/>
</a>
</g>
</g>
</g>
</svg>
