<?xml version="1.0" encoding="UTF-8" standalone="no"?>
<!DOCTYPE svg PUBLIC "-//W3C//DTD SVG 1.1//EN"
 "http://www.w3.org/Graphics/SVG/1.1/DTD/svg11.dtd">
<!-- Generated by graphviz version 2.43.0 (0)
 -->
<!-- Title: utils/logging/FileAppender.cpp Pages: 1 -->
<svg width="712pt" height="357pt"
 viewBox="0.00 0.00 712.00 357.00" xmlns="http://www.w3.org/2000/svg" xmlns:xlink="http://www.w3.org/1999/xlink">
<g id="graph0" class="graph" transform="scale(1 1) rotate(0) translate(4 353)">
<title>utils/logging/FileAppender.cpp</title>
<!-- Node1 -->
<g id="Node000001" class="node">
<title>Node1</title>
<g id="a_Node000001"><a xlink:title=" ">
<polygon fill="#999999" stroke="#666666" points="532.5,-349 369.5,-349 369.5,-330 532.5,-330 532.5,-349"/>
<text text-anchor="middle" x="451" y="-337" font-family="Helvetica,sans-Serif" font-size="10.00">utils/logging/FileAppender.cpp</text>
</a>
</g>
</g>
<!-- Node2 -->
<g id="Node000002" class="node">
<title>Node2</title>
<g id="a_Node000002"><a xlink:href="FileAppender_8h.html" target="_top" xlink:title=" ">
<polygon fill="white" stroke="#666666" points="338.5,-294 249.5,-294 249.5,-275 338.5,-275 338.5,-294"/>
<text text-anchor="middle" x="294" y="-282" font-family="Helvetica,sans-Serif" font-size="10.00">FileAppender.h</text>
</a>
</g>
</g>
<!-- Node1&#45;&gt;Node2 -->
<g id="edge1_Node000001_Node000002" class="edge">
<title>Node1&#45;&gt;Node2</title>
<g id="a_edge1_Node000001_Node000002"><a xlink:title=" ">
<path fill="none" stroke="#63b8ff" d="M425.78,-329.98C399.64,-321.16 358.6,-307.31 329.27,-297.41"/>
<polygon fill="#63b8ff" stroke="#63b8ff" points="330.02,-293.96 319.42,-294.08 327.78,-300.6 330.02,-293.96"/>
</a>
</g>
</g>
<!-- Node11 -->
<g id="Node000011" class="node">
<title>Node11</title>
<g id="a_Node000011"><a xlink:title=" ">
<polygon fill="#e0e0e0" stroke="#999999" points="72,-74 0,-74 0,-55 72,-55 72,-74"/>
<text text-anchor="middle" x="36" y="-62" font-family="Helvetica,sans-Serif" font-size="10.00">QDateTime</text>
</a>
</g>
</g>
<!-- Node1&#45;&gt;Node11 -->
<g id="edge27_Node000001_Node000011" class="edge">
<title>Node1&#45;&gt;Node11</title>
<g id="a_edge27_Node000001_Node000011"><a xlink:title=" ">
<path fill="none" stroke="#63b8ff" d="M369.33,-334.11C246.9,-325.27 30,-299.83 30,-230.5 30,-230.5 30,-230.5 30,-173.5 30,-142.14 32.55,-105.74 34.33,-84.22"/>
<polygon fill="#63b8ff" stroke="#63b8ff" points="37.82,-84.43 35.19,-74.17 30.85,-83.83 37.82,-84.43"/>
</a>
</g>
</g>
<!-- Node19 -->
<g id="Node000019" class="node">
<title>Node19</title>
<g id="a_Node000019"><a xlink:title=" ">
<polygon fill="#e0e0e0" stroke="#999999" points="457.5,-294 356.5,-294 356.5,-275 457.5,-275 457.5,-294"/>
<text text-anchor="middle" x="407" y="-282" font-family="Helvetica,sans-Serif" font-size="10.00">QCoreApplication</text>
</a>
</g>
</g>
<!-- Node1&#45;&gt;Node19 -->
<g id="edge26_Node000001_Node000019" class="edge">
<title>Node1&#45;&gt;Node19</title>
<g id="a_edge26_Node000001_Node000019"><a xlink:title=" ">
<path fill="none" stroke="#63b8ff" d="M443.73,-329.75C437.46,-322.18 428.21,-311.05 420.57,-301.84"/>
<polygon fill="#63b8ff" stroke="#63b8ff" points="423.21,-299.55 414.13,-294.09 417.83,-304.02 423.21,-299.55"/>
</a>
</g>
</g>
<!-- Node20 -->
<g id="Node000020" class="node">
<title>Node20</title>
<g id="a_Node000020"><a xlink:title=" ">
<polygon fill="#e0e0e0" stroke="#999999" points="514,-294 476,-294 476,-275 514,-275 514,-294"/>
<text text-anchor="middle" x="495" y="-282" font-family="Helvetica,sans-Serif" font-size="10.00">QDir</text>
</a>
</g>
</g>
<!-- Node1&#45;&gt;Node20 -->
<g id="edge28_Node000001_Node000020" class="edge">
<title>Node1&#45;&gt;Node20</title>
<g id="a_edge28_Node000001_Node000020"><a xlink:title=" ">
<path fill="none" stroke="#63b8ff" d="M458.27,-329.75C464.54,-322.18 473.79,-311.05 481.43,-301.84"/>
<polygon fill="#63b8ff" stroke="#63b8ff" points="484.17,-304.02 487.87,-294.09 478.79,-299.55 484.17,-304.02"/>
</a>
</g>
</g>
<!-- Node21 -->
<g id="Node000021" class="node">
<title>Node21</title>
<g id="a_Node000021"><a xlink:title=" ">
<polygon fill="#e0e0e0" stroke="#999999" points="592,-294 532,-294 532,-275 592,-275 592,-294"/>
<text text-anchor="middle" x="562" y="-282" font-family="Helvetica,sans-Serif" font-size="10.00">QFileInfo</text>
</a>
</g>
</g>
<!-- Node1&#45;&gt;Node21 -->
<g id="edge29_Node000001_Node000021" class="edge">
<title>Node1&#45;&gt;Node21</title>
<g id="a_edge29_Node000001_Node000021"><a xlink:title=" ">
<path fill="none" stroke="#63b8ff" d="M468.83,-329.98C486.61,-321.5 514.15,-308.35 534.68,-298.54"/>
<polygon fill="#63b8ff" stroke="#63b8ff" points="536.33,-301.64 543.84,-294.17 533.31,-295.32 536.33,-301.64"/>
</a>
</g>
</g>
<!-- Node22 -->
<g id="Node000022" class="node">
<title>Node22</title>
<g id="a_Node000022"><a xlink:title=" ">
<polygon fill="#e0e0e0" stroke="#999999" points="704,-294 610,-294 610,-275 704,-275 704,-294"/>
<text text-anchor="middle" x="657" y="-282" font-family="Helvetica,sans-Serif" font-size="10.00">QStandardPaths</text>
</a>
</g>
</g>
<!-- Node1&#45;&gt;Node22 -->
<g id="edge30_Node000001_Node000022" class="edge">
<title>Node1&#45;&gt;Node22</title>
<g id="a_edge30_Node000001_Node000022"><a xlink:title=" ">
<path fill="none" stroke="#63b8ff" d="M484.1,-329.98C519.28,-320.93 575.07,-306.58 613.72,-296.64"/>
<polygon fill="#63b8ff" stroke="#63b8ff" points="614.83,-299.96 623.64,-294.08 613.09,-293.18 614.83,-299.96"/>
</a>
</g>
</g>
<!-- Node3 -->
<g id="Node000003" class="node">
<title>Node3</title>
<g id="a_Node000003"><a xlink:href="IAppender_8h.html" target="_top" xlink:title=" ">
<polygon fill="white" stroke="#666666" points="525,-239 451,-239 451,-220 525,-220 525,-239"/>
<text text-anchor="middle" x="488" y="-227" font-family="Helvetica,sans-Serif" font-size="10.00">IAppender.h</text>
</a>
</g>
</g>
<!-- Node2&#45;&gt;Node3 -->
<g id="edge2_Node000002_Node000003" class="edge">
<title>Node2&#45;&gt;Node3</title>
<g id="a_edge2_Node000002_Node000003"><a xlink:title=" ">
<path fill="none" stroke="#63b8ff" d="M325.17,-274.98C358.16,-265.97 410.4,-251.7 446.77,-241.76"/>
<polygon fill="#63b8ff" stroke="#63b8ff" points="447.86,-245.09 456.59,-239.08 446.02,-238.34 447.86,-245.09"/>
</a>
</g>
</g>
<!-- Node6 -->
<g id="Node000006" class="node">
<title>Node6</title>
<g id="a_Node000006"><a xlink:href="LogLevel_8h.html" target="_top" xlink:title=" ">
<polygon fill="white" stroke="#666666" points="338.5,-74 269.5,-74 269.5,-55 338.5,-55 338.5,-74"/>
<text text-anchor="middle" x="304" y="-62" font-family="Helvetica,sans-Serif" font-size="10.00">LogLevel.h</text>
</a>
</g>
</g>
<!-- Node2&#45;&gt;Node6 -->
<g id="edge19_Node000002_Node000006" class="edge">
<title>Node2&#45;&gt;Node6</title>
<g id="a_edge19_Node000002_Node000006"><a xlink:title=" ">
<path fill="none" stroke="#63b8ff" d="M338.7,-275.95C407.26,-264.27 530.87,-242.76 534,-239 562.37,-204.88 616.37,-218.36 496,-110 474.63,-90.76 398.58,-77.61 348.85,-70.84"/>
<polygon fill="#63b8ff" stroke="#63b8ff" points="349.04,-67.33 338.67,-69.49 348.12,-74.27 349.04,-67.33"/>
</a>
</g>
</g>
<!-- Node13 -->
<g id="Node000013" class="node">
<title>Node13</title>
<g id="a_Node000013"><a xlink:title=" ">
<polygon fill="#e0e0e0" stroke="#999999" points="652.5,-239 581.5,-239 581.5,-220 652.5,-220 652.5,-239"/>
<text text-anchor="middle" x="617" y="-227" font-family="Helvetica,sans-Serif" font-size="10.00">QAtomicInt</text>
</a>
</g>
</g>
<!-- Node2&#45;&gt;Node13 -->
<g id="edge20_Node000002_Node000013" class="edge">
<title>Node2&#45;&gt;Node13</title>
<g id="a_edge20_Node000002_Node000013"><a xlink:title=" ">
<path fill="none" stroke="#63b8ff" d="M338.94,-276.27C393.06,-267.54 486.71,-252.37 567,-239 568.47,-238.76 569.96,-238.51 571.46,-238.26"/>
<polygon fill="#63b8ff" stroke="#63b8ff" points="572.22,-241.68 581.5,-236.57 571.05,-234.77 572.22,-241.68"/>
</a>
</g>
</g>
<!-- Node14 -->
<g id="Node000014" class="node">
<title>Node14</title>
<g id="a_Node000014"><a xlink:title=" ">
<polygon fill="#e0e0e0" stroke="#999999" points="99.5,-239 58.5,-239 58.5,-220 99.5,-220 99.5,-239"/>
<text text-anchor="middle" x="79" y="-227" font-family="Helvetica,sans-Serif" font-size="10.00">QFile</text>
</a>
</g>
</g>
<!-- Node2&#45;&gt;Node14 -->
<g id="edge21_Node000002_Node000014" class="edge">
<title>Node2&#45;&gt;Node14</title>
<g id="a_edge21_Node000002_Node000014"><a xlink:title=" ">
<path fill="none" stroke="#63b8ff" d="M255.74,-274.94C220.1,-266.83 165.27,-254.03 109.28,-239.25"/>
<polygon fill="#63b8ff" stroke="#63b8ff" points="110.12,-235.85 99.56,-236.66 108.33,-242.62 110.12,-235.85"/>
</a>
</g>
</g>
<!-- Node15 -->
<g id="Node000015" class="node">
<title>Node15</title>
<g id="a_Node000015"><a xlink:title=" ">
<polygon fill="#e0e0e0" stroke="#999999" points="172.5,-239 117.5,-239 117.5,-220 172.5,-220 172.5,-239"/>
<text text-anchor="middle" x="145" y="-227" font-family="Helvetica,sans-Serif" font-size="10.00">QMutex</text>
</a>
</g>
</g>
<!-- Node2&#45;&gt;Node15 -->
<g id="edge22_Node000002_Node000015" class="edge">
<title>Node2&#45;&gt;Node15</title>
<g id="a_edge22_Node000002_Node000015"><a xlink:title=" ">
<path fill="none" stroke="#63b8ff" d="M270.06,-274.98C245.44,-266.23 206.88,-252.51 179.08,-242.62"/>
<polygon fill="#63b8ff" stroke="#63b8ff" points="179.97,-239.22 169.38,-239.17 177.62,-245.82 179.97,-239.22"/>
</a>
</g>
</g>
<!-- Node16 -->
<g id="Node000016" class="node">
<title>Node16</title>
<g id="a_Node000016"><a xlink:title=" ">
<polygon fill="#e0e0e0" stroke="#999999" points="247,-239 191,-239 191,-220 247,-220 247,-239"/>
<text text-anchor="middle" x="219" y="-227" font-family="Helvetica,sans-Serif" font-size="10.00">QQueue</text>
</a>
</g>
</g>
<!-- Node2&#45;&gt;Node16 -->
<g id="edge23_Node000002_Node000016" class="edge">
<title>Node2&#45;&gt;Node16</title>
<g id="a_edge23_Node000002_Node000016"><a xlink:title=" ">
<path fill="none" stroke="#63b8ff" d="M281.95,-274.98C270.54,-266.92 253.17,-254.65 239.57,-245.03"/>
<polygon fill="#63b8ff" stroke="#63b8ff" points="241.46,-242.08 231.27,-239.17 237.42,-247.8 241.46,-242.08"/>
</a>
</g>
</g>
<!-- Node17 -->
<g id="Node000017" class="node">
<title>Node17</title>
<g id="a_Node000017"><a xlink:title=" ">
<polygon fill="#e0e0e0" stroke="#999999" points="323,-239 265,-239 265,-220 323,-220 323,-239"/>
<text text-anchor="middle" x="294" y="-227" font-family="Helvetica,sans-Serif" font-size="10.00">QThread</text>
</a>
</g>
</g>
<!-- Node2&#45;&gt;Node17 -->
<g id="edge24_Node000002_Node000017" class="edge">
<title>Node2&#45;&gt;Node17</title>
<g id="a_edge24_Node000002_Node000017"><a xlink:title=" ">
<path fill="none" stroke="#63b8ff" d="M294,-274.75C294,-267.8 294,-257.85 294,-249.13"/>
<polygon fill="#63b8ff" stroke="#63b8ff" points="297.5,-249.09 294,-239.09 290.5,-249.09 297.5,-249.09"/>
</a>
</g>
</g>
<!-- Node18 -->
<g id="Node000018" class="node">
<title>Node18</title>
<g id="a_Node000018"><a xlink:title=" ">
<polygon fill="#e0e0e0" stroke="#999999" points="433,-239 341,-239 341,-220 433,-220 433,-239"/>
<text text-anchor="middle" x="387" y="-227" font-family="Helvetica,sans-Serif" font-size="10.00">QWaitCondition</text>
</a>
</g>
</g>
<!-- Node2&#45;&gt;Node18 -->
<g id="edge25_Node000002_Node000018" class="edge">
<title>Node2&#45;&gt;Node18</title>
<g id="a_edge25_Node000002_Node000018"><a xlink:title=" ">
<path fill="none" stroke="#63b8ff" d="M308.94,-274.98C323.5,-266.69 345.87,-253.94 362.93,-244.22"/>
<polygon fill="#63b8ff" stroke="#63b8ff" points="364.83,-247.16 371.79,-239.17 361.36,-241.08 364.83,-247.16"/>
</a>
</g>
</g>
<!-- Node4 -->
<g id="Node000004" class="node">
<title>Node4</title>
<g id="a_Node000004"><a xlink:href="IFormatter_8h.html" target="_top" xlink:title=" ">
<polygon fill="white" stroke="#666666" points="418,-184 342,-184 342,-165 418,-165 418,-184"/>
<text text-anchor="middle" x="380" y="-172" font-family="Helvetica,sans-Serif" font-size="10.00">IFormatter.h</text>
</a>
</g>
</g>
<!-- Node3&#45;&gt;Node4 -->
<g id="edge3_Node000003_Node000004" class="edge">
<title>Node3&#45;&gt;Node4</title>
<g id="a_edge3_Node000003_Node000004"><a xlink:title=" ">
<path fill="none" stroke="#63b8ff" d="M470.65,-219.98C453.43,-211.54 426.8,-198.47 406.85,-188.68"/>
<polygon fill="#63b8ff" stroke="#63b8ff" points="408.19,-185.43 397.67,-184.17 405.1,-191.72 408.19,-185.43"/>
</a>
</g>
</g>
<!-- Node5 -->
<g id="Node000005" class="node">
<title>Node5</title>
<g id="a_Node000005"><a xlink:href="LogRecord_8h.html" target="_top" xlink:title=" ">
<polygon fill="white" stroke="#666666" points="279.5,-129 202.5,-129 202.5,-110 279.5,-110 279.5,-129"/>
<text text-anchor="middle" x="241" y="-117" font-family="Helvetica,sans-Serif" font-size="10.00">LogRecord.h</text>
</a>
</g>
</g>
<!-- Node3&#45;&gt;Node5 -->
<g id="edge16_Node000003_Node000005" class="edge">
<title>Node3&#45;&gt;Node5</title>
<g id="a_edge16_Node000003_Node000005"><a xlink:title=" ">
<path fill="none" stroke="#63b8ff" d="M450.77,-221.38C418.59,-214.39 371.34,-202.14 333,-184 305.26,-170.88 276.69,-149.74 258.9,-135.49"/>
<polygon fill="#63b8ff" stroke="#63b8ff" points="261.04,-132.73 251.08,-129.12 256.62,-138.15 261.04,-132.73"/>
</a>
</g>
</g>
<!-- Node7 -->
<g id="Node000007" class="node">
<title>Node7</title>
<g id="a_Node000007"><a xlink:title=" ">
<polygon fill="#e0e0e0" stroke="#999999" points="330.5,-19 277.5,-19 277.5,0 330.5,0 330.5,-19"/>
<text text-anchor="middle" x="304" y="-7" font-family="Helvetica,sans-Serif" font-size="10.00">QString</text>
</a>
</g>
</g>
<!-- Node3&#45;&gt;Node7 -->
<g id="edge18_Node000003_Node000007" class="edge">
<title>Node3&#45;&gt;Node7</title>
<g id="a_edge18_Node000003_Node000007"><a xlink:title=" ">
<path fill="none" stroke="#63b8ff" d="M491.68,-219.96C499.97,-199.32 517.75,-145.76 496,-110 462.18,-54.38 386.1,-28.46 340.51,-17.52"/>
<polygon fill="#63b8ff" stroke="#63b8ff" points="341.25,-14.1 330.73,-15.29 339.7,-20.93 341.25,-14.1"/>
</a>
</g>
</g>
<!-- Node12 -->
<g id="Node000012" class="node">
<title>Node12</title>
<g id="a_Node000012"><a xlink:title=" ">
<polygon fill="#e0e0e0" stroke="#999999" points="487,-129 395,-129 395,-110 487,-110 487,-129"/>
<text text-anchor="middle" x="441" y="-117" font-family="Helvetica,sans-Serif" font-size="10.00">QSharedPointer</text>
</a>
</g>
</g>
<!-- Node3&#45;&gt;Node12 -->
<g id="edge17_Node000003_Node000012" class="edge">
<title>Node3&#45;&gt;Node12</title>
<g id="a_edge17_Node000003_Node000012"><a xlink:title=" ">
<path fill="none" stroke="#63b8ff" d="M484.15,-219.66C476.47,-202.01 459.1,-162.09 448.89,-138.64"/>
<polygon fill="#63b8ff" stroke="#63b8ff" points="451.97,-136.93 444.77,-129.16 445.55,-139.72 451.97,-136.93"/>
</a>
</g>
</g>
<!-- Node4&#45;&gt;Node5 -->
<g id="edge4_Node000004_Node000005" class="edge">
<title>Node4&#45;&gt;Node5</title>
<g id="a_edge4_Node000004_Node000005"><a xlink:title=" ">
<path fill="none" stroke="#63b8ff" d="M357.67,-164.98C334.8,-156.27 299.04,-142.63 273.14,-132.75"/>
<polygon fill="#63b8ff" stroke="#63b8ff" points="274.33,-129.46 263.74,-129.17 271.84,-136 274.33,-129.46"/>
</a>
</g>
</g>
<!-- Node4&#45;&gt;Node7 -->
<g id="edge15_Node000004_Node000007" class="edge">
<title>Node4&#45;&gt;Node7</title>
<g id="a_edge15_Node000004_Node000007"><a xlink:title=" ">
<path fill="none" stroke="#63b8ff" d="M379.19,-164.89C376.97,-144.52 369.45,-92.32 348,-55 341.62,-43.89 331.78,-33.58 323.02,-25.68"/>
<polygon fill="#63b8ff" stroke="#63b8ff" points="325.29,-23.01 315.42,-19.16 320.73,-28.32 325.29,-23.01"/>
</a>
</g>
</g>
<!-- Node4&#45;&gt;Node12 -->
<g id="edge14_Node000004_Node000012" class="edge">
<title>Node4&#45;&gt;Node12</title>
<g id="a_edge14_Node000004_Node000012"><a xlink:title=" ">
<path fill="none" stroke="#63b8ff" d="M389.8,-164.98C398.82,-157.15 412.41,-145.34 423.32,-135.86"/>
<polygon fill="#63b8ff" stroke="#63b8ff" points="425.77,-138.37 431.02,-129.17 421.18,-133.09 425.77,-138.37"/>
</a>
</g>
</g>
<!-- Node5&#45;&gt;Node6 -->
<g id="edge5_Node000005_Node000006" class="edge">
<title>Node5&#45;&gt;Node6</title>
<g id="a_edge5_Node000005_Node000006"><a xlink:title=" ">
<path fill="none" stroke="#63b8ff" d="M251.12,-109.98C260.44,-102.15 274.47,-90.34 285.74,-80.86"/>
<polygon fill="#63b8ff" stroke="#63b8ff" points="288.29,-83.29 293.69,-74.17 283.79,-77.93 288.29,-83.29"/>
</a>
</g>
</g>
<!-- Node5&#45;&gt;Node7 -->
<g id="edge12_Node000005_Node000007" class="edge">
<title>Node5&#45;&gt;Node7</title>
<g id="a_edge12_Node000005_Node000007"><a xlink:title=" ">
<path fill="none" stroke="#63b8ff" d="M242.24,-109.74C244.33,-96.97 249.44,-72.82 260,-55 266.53,-43.98 276.38,-33.67 285.11,-25.76"/>
<polygon fill="#63b8ff" stroke="#63b8ff" points="287.4,-28.4 292.68,-19.21 282.82,-23.11 287.4,-28.4"/>
</a>
</g>
</g>
<!-- Node8 -->
<g id="Node000008" class="node">
<title>Node8</title>
<g id="a_Node000008"><a xlink:href="LogModule_8h.html" target="_top" xlink:title=" ">
<polygon fill="white" stroke="#666666" points="212.5,-74 133.5,-74 133.5,-55 212.5,-55 212.5,-74"/>
<text text-anchor="middle" x="173" y="-62" font-family="Helvetica,sans-Serif" font-size="10.00">LogModule.h</text>
</a>
</g>
</g>
<!-- Node5&#45;&gt;Node8 -->
<g id="edge7_Node000005_Node000008" class="edge">
<title>Node5&#45;&gt;Node8</title>
<g id="a_edge7_Node000005_Node000008"><a xlink:title=" ">
<path fill="none" stroke="#63b8ff" d="M230.07,-109.98C219.92,-102.07 204.58,-90.11 192.35,-80.58"/>
<polygon fill="#63b8ff" stroke="#63b8ff" points="194.16,-77.56 184.12,-74.17 189.86,-83.08 194.16,-77.56"/>
</a>
</g>
</g>
<!-- Node10 -->
<g id="Node000010" class="node">
<title>Node10</title>
<g id="a_Node000010"><a xlink:title=" ">
<polygon fill="#e0e0e0" stroke="#999999" points="134.5,-19 75.5,-19 75.5,0 134.5,0 134.5,-19"/>
<text text-anchor="middle" x="105" y="-7" font-family="Helvetica,sans-Serif" font-size="10.00">QtGlobal</text>
</a>
</g>
</g>
<!-- Node5&#45;&gt;Node10 -->
<g id="edge13_Node000005_Node000010" class="edge">
<title>Node5&#45;&gt;Node10</title>
<g id="a_edge13_Node000005_Node000010"><a xlink:title=" ">
<path fill="none" stroke="#63b8ff" d="M202.36,-112.85C176.82,-107.18 144.42,-95.96 124,-74 112.74,-61.89 108.13,-43.35 106.26,-29.43"/>
<polygon fill="#63b8ff" stroke="#63b8ff" points="109.7,-28.67 105.24,-19.06 102.73,-29.36 109.7,-28.67"/>
</a>
</g>
</g>
<!-- Node5&#45;&gt;Node11 -->
<g id="edge11_Node000005_Node000011" class="edge">
<title>Node5&#45;&gt;Node11</title>
<g id="a_edge11_Node000005_Node000011"><a xlink:title=" ">
<path fill="none" stroke="#63b8ff" d="M208.06,-109.98C173.05,-100.93 117.53,-86.58 79.07,-76.64"/>
<polygon fill="#63b8ff" stroke="#63b8ff" points="79.75,-73.2 69.19,-74.08 78,-79.97 79.75,-73.2"/>
</a>
</g>
</g>
<!-- Node6&#45;&gt;Node7 -->
<g id="edge6_Node000006_Node000007" class="edge">
<title>Node6&#45;&gt;Node7</title>
<g id="a_edge6_Node000006_Node000007"><a xlink:title=" ">
<path fill="none" stroke="#63b8ff" d="M304,-54.75C304,-47.8 304,-37.85 304,-29.13"/>
<polygon fill="#63b8ff" stroke="#63b8ff" points="307.5,-29.09 304,-19.09 300.5,-29.09 307.5,-29.09"/>
</a>
</g>
</g>
<!-- Node8&#45;&gt;Node7 -->
<g id="edge8_Node000008_Node000007" class="edge">
<title>Node8&#45;&gt;Node7</title>
<g id="a_edge8_Node000008_Node000007"><a xlink:title=" ">
<path fill="none" stroke="#63b8ff" d="M194.05,-54.98C215.41,-46.34 248.7,-32.87 273.06,-23.02"/>
<polygon fill="#63b8ff" stroke="#63b8ff" points="274.61,-26.17 282.57,-19.17 271.99,-19.68 274.61,-26.17"/>
</a>
</g>
</g>
<!-- Node9 -->
<g id="Node000009" class="node">
<title>Node9</title>
<g id="a_Node000009"><a xlink:title=" ">
<polygon fill="#e0e0e0" stroke="#999999" points="223,-19 153,-19 153,0 223,0 223,-19"/>
<text text-anchor="middle" x="188" y="-7" font-family="Helvetica,sans-Serif" font-size="10.00">QStringList</text>
</a>
</g>
</g>
<!-- Node8&#45;&gt;Node9 -->
<g id="edge9_Node000008_Node000009" class="edge">
<title>Node8&#45;&gt;Node9</title>
<g id="a_edge9_Node000008_Node000009"><a xlink:title=" ">
<path fill="none" stroke="#63b8ff" d="M175.48,-54.75C177.46,-47.72 180.32,-37.62 182.81,-28.84"/>
<polygon fill="#63b8ff" stroke="#63b8ff" points="186.21,-29.66 185.57,-19.09 179.48,-27.76 186.21,-29.66"/>
</a>
</g>
</g>
<!-- Node8&#45;&gt;Node10 -->
<g id="edge10_Node000008_Node000010" class="edge">
<title>Node8&#45;&gt;Node10</title>
<g id="a_edge10_Node000008_Node000010"><a xlink:title=" ">
<path fill="none" stroke="#63b8ff" d="M162.07,-54.98C151.92,-47.07 136.58,-35.11 124.35,-25.58"/>
<polygon fill="#63b8ff" stroke="#63b8ff" points="126.16,-22.56 116.12,-19.17 121.86,-28.08 126.16,-22.56"/>
</a>
</g>
</g>
</g>
</svg>
