<?xml version="1.0" encoding="UTF-8" standalone="no"?>
<!DOCTYPE svg PUBLIC "-//W3C//DTD SVG 1.1//EN"
 "http://www.w3.org/Graphics/SVG/1.1/DTD/svg11.dtd">
<!-- Generated by graphviz version 2.43.0 (0)
 -->
<!-- Title: utils/FileUtils.h Pages: 1 -->
<svg width="472pt" height="93pt"
 viewBox="0.00 0.00 471.50 93.00" xmlns="http://www.w3.org/2000/svg" xmlns:xlink="http://www.w3.org/1999/xlink">
<g id="graph0" class="graph" transform="scale(1 1) rotate(0) translate(4 89)">
<title>utils/FileUtils.h</title>
<!-- Node1 -->
<g id="Node000001" class="node">
<title>Node1</title>
<g id="a_Node000001"><a xlink:title=" ">
<polygon fill="#999999" stroke="#666666" points="307.5,-85 218.5,-85 218.5,-66 307.5,-66 307.5,-85"/>
<text text-anchor="middle" x="263" y="-73" font-family="Helvetica,sans-Serif" font-size="10.00">utils/FileUtils.h</text>
</a>
</g>
</g>
<!-- Node2 -->
<g id="Node000002" class="node">
<title>Node2</title>
<g id="a_Node000002"><a xlink:href="ExportProgressViewModel_8cpp.html" target="_top" xlink:title=" ">
<polygon fill="white" stroke="#666666" points="164,-30 0,-30 0,0 164,0 164,-30"/>
<text text-anchor="start" x="8" y="-18" font-family="Helvetica,sans-Serif" font-size="10.00">ui/viewmodels/ExportProgress</text>
<text text-anchor="middle" x="82" y="-7" font-family="Helvetica,sans-Serif" font-size="10.00">ViewModel.cpp</text>
</a>
</g>
</g>
<!-- Node1&#45;&gt;Node2 -->
<g id="edge1_Node000001_Node000002" class="edge">
<title>Node1&#45;&gt;Node2</title>
<g id="a_edge1_Node000001_Node000002"><a xlink:title=" ">
<path fill="none" stroke="#63b8ff" d="M226.89,-62.83C197.71,-53.4 156.52,-40.09 125.52,-30.06"/>
<polygon fill="#63b8ff" stroke="#63b8ff" points="226.09,-66.25 236.68,-65.99 228.24,-59.59 226.09,-66.25"/>
</a>
</g>
</g>
<!-- Node3 -->
<g id="Node000003" class="node">
<title>Node3</title>
<g id="a_Node000003"><a xlink:href="ExportSettingsViewModel_8cpp.html" target="_top" xlink:title=" ">
<polygon fill="white" stroke="#666666" points="344,-30 182,-30 182,0 344,0 344,-30"/>
<text text-anchor="start" x="190" y="-18" font-family="Helvetica,sans-Serif" font-size="10.00">ui/viewmodels/ExportSettings</text>
<text text-anchor="middle" x="263" y="-7" font-family="Helvetica,sans-Serif" font-size="10.00">ViewModel.cpp</text>
</a>
</g>
</g>
<!-- Node1&#45;&gt;Node3 -->
<g id="edge2_Node000001_Node000003" class="edge">
<title>Node1&#45;&gt;Node3</title>
<g id="a_edge2_Node000001_Node000003"><a xlink:title=" ">
<path fill="none" stroke="#63b8ff" d="M263,-55.65C263,-47.36 263,-37.78 263,-30.11"/>
<polygon fill="#63b8ff" stroke="#63b8ff" points="259.5,-55.87 263,-65.87 266.5,-55.87 259.5,-55.87"/>
</a>
</g>
</g>
<!-- Node4 -->
<g id="Node000004" class="node">
<title>Node4</title>
<g id="a_Node000004"><a xlink:href="FileUtils_8cpp.html" target="_top" xlink:title=" ">
<polygon fill="white" stroke="#666666" points="463.5,-24.5 362.5,-24.5 362.5,-5.5 463.5,-5.5 463.5,-24.5"/>
<text text-anchor="middle" x="413" y="-12.5" font-family="Helvetica,sans-Serif" font-size="10.00">utils/FileUtils.cpp</text>
</a>
</g>
</g>
<!-- Node1&#45;&gt;Node4 -->
<g id="edge3_Node000001_Node000004" class="edge">
<title>Node1&#45;&gt;Node4</title>
<g id="a_edge3_Node000001_Node000004"><a xlink:title=" ">
<path fill="none" stroke="#63b8ff" d="M294.46,-62.23C323.45,-50.92 365.71,-34.44 391.16,-24.52"/>
<polygon fill="#63b8ff" stroke="#63b8ff" points="292.86,-59.1 284.81,-65.99 295.4,-65.62 292.86,-59.1"/>
</a>
</g>
</g>
</g>
</svg>
