<?xml version="1.0" encoding="UTF-8" standalone="no"?>
<!DOCTYPE svg PUBLIC "-//W3C//DTD SVG 1.1//EN"
 "http://www.w3.org/Graphics/SVG/1.1/DTD/svg11.dtd">
<!-- Generated by graphviz version 2.43.0 (0)
 -->
<!-- Title: core/kicad/FootprintGraphicsGenerator.h Pages: 1 -->
<svg width="921pt" height="236pt"
 viewBox="0.00 0.00 920.50 236.00" xmlns="http://www.w3.org/2000/svg" xmlns:xlink="http://www.w3.org/1999/xlink">
<g id="graph0" class="graph" transform="scale(1 1) rotate(0) translate(4 232)">
<title>core/kicad/FootprintGraphicsGenerator.h</title>
<!-- Node1 -->
<g id="Node000001" class="node">
<title>Node1</title>
<g id="a_Node000001"><a xlink:title=" ">
<polygon fill="#999999" stroke="#666666" points="682.5,-228 526.5,-228 526.5,-198 682.5,-198 682.5,-228"/>
<text text-anchor="start" x="534.5" y="-216" font-family="Helvetica,sans-Serif" font-size="10.00">core/kicad/FootprintGraphics</text>
<text text-anchor="middle" x="604.5" y="-205" font-family="Helvetica,sans-Serif" font-size="10.00">Generator.h</text>
</a>
</g>
</g>
<!-- Node2 -->
<g id="Node000002" class="node">
<title>Node2</title>
<g id="a_Node000002"><a xlink:href="ExporterFootprint_8h.html" target="_top" xlink:title=" ">
<polygon fill="white" stroke="#666666" points="597.5,-156.5 433.5,-156.5 433.5,-137.5 597.5,-137.5 597.5,-156.5"/>
<text text-anchor="middle" x="515.5" y="-144.5" font-family="Helvetica,sans-Serif" font-size="10.00">core/kicad/ExporterFootprint.h</text>
</a>
</g>
</g>
<!-- Node1&#45;&gt;Node2 -->
<g id="edge1_Node000001_Node000002" class="edge">
<title>Node1&#45;&gt;Node2</title>
<g id="a_edge1_Node000001_Node000002"><a xlink:title=" ">
<path fill="none" stroke="#63b8ff" d="M576.51,-191.87C560.04,-180.03 540.04,-165.65 527.54,-156.66"/>
<polygon fill="#63b8ff" stroke="#63b8ff" points="574.59,-194.8 584.75,-197.8 578.67,-189.12 574.59,-194.8"/>
</a>
</g>
</g>
<!-- Node10 -->
<g id="Node000010" class="node">
<title>Node10</title>
<g id="a_Node000010"><a xlink:href="FootprintGraphicsGenerator_8cpp.html" target="_top" xlink:title=" ">
<polygon fill="white" stroke="#666666" points="771.5,-162 615.5,-162 615.5,-132 771.5,-132 771.5,-162"/>
<text text-anchor="start" x="623.5" y="-150" font-family="Helvetica,sans-Serif" font-size="10.00">core/kicad/FootprintGraphics</text>
<text text-anchor="middle" x="693.5" y="-139" font-family="Helvetica,sans-Serif" font-size="10.00">Generator.cpp</text>
</a>
</g>
</g>
<!-- Node1&#45;&gt;Node10 -->
<g id="edge10_Node000001_Node000010" class="edge">
<title>Node1&#45;&gt;Node10</title>
<g id="a_edge10_Node000001_Node000010"><a xlink:title=" ">
<path fill="none" stroke="#63b8ff" d="M632.66,-191.75C646.04,-182.13 661.72,-170.86 673.8,-162.16"/>
<polygon fill="#63b8ff" stroke="#63b8ff" points="630.33,-189.12 624.25,-197.8 634.41,-194.8 630.33,-189.12"/>
</a>
</g>
</g>
<!-- Node3 -->
<g id="Node000003" class="node">
<title>Node3</title>
<g id="a_Node000003"><a xlink:href="ExporterFootprint_8cpp.html" target="_top" xlink:title=" ">
<polygon fill="white" stroke="#666666" points="175,-90.5 0,-90.5 0,-71.5 175,-71.5 175,-90.5"/>
<text text-anchor="middle" x="87.5" y="-78.5" font-family="Helvetica,sans-Serif" font-size="10.00">core/kicad/ExporterFootprint.cpp</text>
</a>
</g>
</g>
<!-- Node2&#45;&gt;Node3 -->
<g id="edge2_Node000002_Node000003" class="edge">
<title>Node2&#45;&gt;Node3</title>
<g id="a_edge2_Node000002_Node000003"><a xlink:title=" ">
<path fill="none" stroke="#63b8ff" d="M448.31,-135.95C364.61,-123.44 223.06,-102.27 144.44,-90.51"/>
<polygon fill="#63b8ff" stroke="#63b8ff" points="447.81,-139.42 458.22,-137.44 448.85,-132.49 447.81,-139.42"/>
</a>
</g>
</g>
<!-- Node4 -->
<g id="Node000004" class="node">
<title>Node4</title>
<g id="a_Node000004"><a xlink:href="ComponentExportTask_8cpp.html" target="_top" xlink:title=" ">
<polygon fill="white" stroke="#666666" points="341.5,-96 193.5,-96 193.5,-66 341.5,-66 341.5,-96"/>
<text text-anchor="start" x="201.5" y="-84" font-family="Helvetica,sans-Serif" font-size="10.00">services/ComponentExport</text>
<text text-anchor="middle" x="267.5" y="-73" font-family="Helvetica,sans-Serif" font-size="10.00">Task.cpp</text>
</a>
</g>
</g>
<!-- Node2&#45;&gt;Node4 -->
<g id="edge3_Node000002_Node000004" class="edge">
<title>Node2&#45;&gt;Node4</title>
<g id="a_edge3_Node000002_Node000004"><a xlink:title=" ">
<path fill="none" stroke="#63b8ff" d="M472.44,-134.89C430.66,-124.1 367.09,-107.7 321.85,-96.02"/>
<polygon fill="#63b8ff" stroke="#63b8ff" points="471.75,-138.33 482.31,-137.44 473.5,-131.55 471.75,-138.33"/>
</a>
</g>
</g>
<!-- Node5 -->
<g id="Node000005" class="node">
<title>Node5</title>
<g id="a_Node000005"><a xlink:href="ExportService_8cpp.html" target="_top" xlink:title=" ">
<polygon fill="white" stroke="#666666" points="507.5,-90.5 359.5,-90.5 359.5,-71.5 507.5,-71.5 507.5,-90.5"/>
<text text-anchor="middle" x="433.5" y="-78.5" font-family="Helvetica,sans-Serif" font-size="10.00">services/ExportService.cpp</text>
</a>
</g>
</g>
<!-- Node2&#45;&gt;Node5 -->
<g id="edge4_Node000002_Node000005" class="edge">
<title>Node2&#45;&gt;Node5</title>
<g id="a_edge4_Node000002_Node000005"><a xlink:title=" ">
<path fill="none" stroke="#63b8ff" d="M496.27,-130.99C480.21,-118.46 457.89,-101.04 444.65,-90.7"/>
<polygon fill="#63b8ff" stroke="#63b8ff" points="494.4,-133.98 504.44,-137.37 498.71,-128.46 494.4,-133.98"/>
</a>
</g>
</g>
<!-- Node6 -->
<g id="Node000006" class="node">
<title>Node6</title>
<g id="a_Node000006"><a xlink:href="ExportWorker_8cpp.html" target="_top" xlink:title=" ">
<polygon fill="white" stroke="#666666" points="669,-90.5 526,-90.5 526,-71.5 669,-71.5 669,-90.5"/>
<text text-anchor="middle" x="597.5" y="-78.5" font-family="Helvetica,sans-Serif" font-size="10.00">workers/ExportWorker.cpp</text>
</a>
</g>
</g>
<!-- Node2&#45;&gt;Node6 -->
<g id="edge5_Node000002_Node000006" class="edge">
<title>Node2&#45;&gt;Node6</title>
<g id="a_edge5_Node000002_Node000006"><a xlink:title=" ">
<path fill="none" stroke="#63b8ff" d="M534.73,-130.99C550.79,-118.46 573.11,-101.04 586.35,-90.7"/>
<polygon fill="#63b8ff" stroke="#63b8ff" points="532.29,-128.46 526.56,-137.37 536.6,-133.98 532.29,-128.46"/>
</a>
</g>
</g>
<!-- Node7 -->
<g id="Node000007" class="node">
<title>Node7</title>
<g id="a_Node000007"><a xlink:href="WriteWorker_8cpp.html" target="_top" xlink:title=" ">
<polygon fill="white" stroke="#666666" points="766,-24.5 629,-24.5 629,-5.5 766,-5.5 766,-24.5"/>
<text text-anchor="middle" x="697.5" y="-12.5" font-family="Helvetica,sans-Serif" font-size="10.00">workers/WriteWorker.cpp</text>
</a>
</g>
</g>
<!-- Node2&#45;&gt;Node7 -->
<g id="edge6_Node000002_Node000007" class="edge">
<title>Node2&#45;&gt;Node7</title>
<g id="a_edge6_Node000002_Node000007"><a xlink:title=" ">
<path fill="none" stroke="#63b8ff" d="M570.21,-135.31C611.51,-126.16 663.54,-111.96 678.5,-96 697.25,-76 698.56,-41 698.05,-24.75"/>
<polygon fill="#63b8ff" stroke="#63b8ff" points="569.27,-131.93 560.24,-137.47 570.76,-138.77 569.27,-131.93"/>
</a>
</g>
</g>
<!-- Node8 -->
<g id="Node000008" class="node">
<title>Node8</title>
<g id="a_Node000008"><a xlink:href="WriteWorker_8h.html" target="_top" xlink:title=" ">
<polygon fill="white" stroke="#666666" points="851.5,-90.5 725.5,-90.5 725.5,-71.5 851.5,-71.5 851.5,-90.5"/>
<text text-anchor="middle" x="788.5" y="-78.5" font-family="Helvetica,sans-Serif" font-size="10.00">workers/WriteWorker.h</text>
</a>
</g>
</g>
<!-- Node2&#45;&gt;Node8 -->
<g id="edge7_Node000002_Node000008" class="edge">
<title>Node2&#45;&gt;Node8</title>
<g id="a_edge7_Node000002_Node000008"><a xlink:title=" ">
<path fill="none" stroke="#63b8ff" d="M561.99,-135.1C615.76,-122.49 703.16,-102.01 752.18,-90.51"/>
<polygon fill="#63b8ff" stroke="#63b8ff" points="560.97,-131.74 552.03,-137.44 562.57,-138.56 560.97,-131.74"/>
</a>
</g>
</g>
<!-- Node8&#45;&gt;Node7 -->
<g id="edge9_Node000008_Node000007" class="edge">
<title>Node8&#45;&gt;Node7</title>
<g id="a_edge9_Node000008_Node000007"><a xlink:title=" ">
<path fill="none" stroke="#63b8ff" d="M767.65,-65.33C749.8,-52.78 724.7,-35.13 709.87,-24.7"/>
<polygon fill="#63b8ff" stroke="#63b8ff" points="766.03,-68.48 776.23,-71.37 770.06,-62.75 766.03,-68.48"/>
</a>
</g>
</g>
<!-- Node9 -->
<g id="Node000009" class="node">
<title>Node9</title>
<g id="a_Node000009"><a xlink:href="ExportService__Pipeline_8cpp.html" target="_top" xlink:title=" ">
<polygon fill="white" stroke="#666666" points="912.5,-30 784.5,-30 784.5,0 912.5,0 912.5,-30"/>
<text text-anchor="start" x="792.5" y="-18" font-family="Helvetica,sans-Serif" font-size="10.00">services/ExportService</text>
<text text-anchor="middle" x="848.5" y="-7" font-family="Helvetica,sans-Serif" font-size="10.00">_Pipeline.cpp</text>
</a>
</g>
</g>
<!-- Node8&#45;&gt;Node9 -->
<g id="edge8_Node000008_Node000009" class="edge">
<title>Node8&#45;&gt;Node9</title>
<g id="a_edge8_Node000008_Node000009"><a xlink:title=" ">
<path fill="none" stroke="#63b8ff" d="M803.64,-63.85C813.3,-53.54 825.72,-40.3 835.04,-30.36"/>
<polygon fill="#63b8ff" stroke="#63b8ff" points="800.88,-61.68 796.59,-71.37 805.98,-66.47 800.88,-61.68"/>
</a>
</g>
</g>
</g>
</svg>
