<?xml version="1.0" encoding="UTF-8" standalone="no"?>
<!DOCTYPE svg PUBLIC "-//W3C//DTD SVG 1.1//EN"
 "http://www.w3.org/Graphics/SVG/1.1/DTD/svg11.dtd">
<!-- Generated by graphviz version 2.43.0 (0)
 -->
<!-- Title: models/FootprintDataSerializer.h Pages: 1 -->
<svg width="682pt" height="93pt"
 viewBox="0.00 0.00 682.00 93.00" xmlns="http://www.w3.org/2000/svg" xmlns:xlink="http://www.w3.org/1999/xlink">
<g id="graph0" class="graph" transform="scale(1 1) rotate(0) translate(4 89)">
<title>models/FootprintDataSerializer.h</title>
<!-- Node1 -->
<g id="Node000001" class="node">
<title>Node1</title>
<g id="a_Node000001"><a xlink:title=" ">
<polygon fill="#999999" stroke="#666666" points="437.5,-85 261.5,-85 261.5,-66 437.5,-66 437.5,-85"/>
<text text-anchor="middle" x="349.5" y="-73" font-family="Helvetica,sans-Serif" font-size="10.00">models/FootprintDataSerializer.h</text>
</a>
</g>
</g>
<!-- Node2 -->
<g id="Node000002" class="node">
<title>Node2</title>
<g id="a_Node000002"><a xlink:href="FootprintData_8cpp.html" target="_top" xlink:title=" ">
<polygon fill="white" stroke="#666666" points="143,-24.5 0,-24.5 0,-5.5 143,-5.5 143,-24.5"/>
<text text-anchor="middle" x="71.5" y="-12.5" font-family="Helvetica,sans-Serif" font-size="10.00">models/FootprintData.cpp</text>
</a>
</g>
</g>
<!-- Node1&#45;&gt;Node2 -->
<g id="edge1_Node000001_Node000002" class="edge">
<title>Node1&#45;&gt;Node2</title>
<g id="a_edge1_Node000001_Node000002"><a xlink:title=" ">
<path fill="none" stroke="#63b8ff" d="M299.09,-63.89C245.41,-52.6 161.51,-34.94 111.97,-24.52"/>
<polygon fill="#63b8ff" stroke="#63b8ff" points="298.57,-67.36 309.08,-65.99 300.01,-60.51 298.57,-67.36"/>
</a>
</g>
</g>
<!-- Node3 -->
<g id="Node000003" class="node">
<title>Node3</title>
<g id="a_Node000003"><a xlink:href="FootprintDataSerializer_8cpp.html" target="_top" xlink:title=" ">
<polygon fill="white" stroke="#666666" points="349.5,-24.5 161.5,-24.5 161.5,-5.5 349.5,-5.5 349.5,-24.5"/>
<text text-anchor="middle" x="255.5" y="-12.5" font-family="Helvetica,sans-Serif" font-size="10.00">models/FootprintDataSerializer.cpp</text>
</a>
</g>
</g>
<!-- Node1&#45;&gt;Node3 -->
<g id="edge2_Node000001_Node000003" class="edge">
<title>Node1&#45;&gt;Node3</title>
<g id="a_edge2_Node000001_Node000003"><a xlink:title=" ">
<path fill="none" stroke="#63b8ff" d="M326.95,-60.47C309.05,-49.32 284.58,-34.1 269.43,-24.67"/>
<polygon fill="#63b8ff" stroke="#63b8ff" points="325.29,-63.56 335.63,-65.87 328.99,-57.61 325.29,-63.56"/>
</a>
</g>
</g>
<!-- Node4 -->
<g id="Node000004" class="node">
<title>Node4</title>
<g id="a_Node000004"><a xlink:href="ComponentDataCache_8cpp.html" target="_top" xlink:title=" ">
<polygon fill="white" stroke="#666666" points="519,-30 368,-30 368,0 519,0 519,-30"/>
<text text-anchor="start" x="376" y="-18" font-family="Helvetica,sans-Serif" font-size="10.00">services/export/Component</text>
<text text-anchor="middle" x="443.5" y="-7" font-family="Helvetica,sans-Serif" font-size="10.00">DataCache.cpp</text>
</a>
</g>
</g>
<!-- Node1&#45;&gt;Node4 -->
<g id="edge3_Node000001_Node000004" class="edge">
<title>Node1&#45;&gt;Node4</title>
<g id="a_edge3_Node000001_Node000004"><a xlink:title=" ">
<path fill="none" stroke="#63b8ff" d="M371.91,-60.55C386.69,-51.36 405.99,-39.35 420.82,-30.11"/>
<polygon fill="#63b8ff" stroke="#63b8ff" points="370.01,-57.61 363.37,-65.87 373.71,-63.56 370.01,-57.61"/>
</a>
</g>
</g>
<!-- Node5 -->
<g id="Node000005" class="node">
<title>Node5</title>
<g id="a_Node000005"><a xlink:href="WriteWorker_8cpp.html" target="_top" xlink:title=" ">
<polygon fill="white" stroke="#666666" points="674,-24.5 537,-24.5 537,-5.5 674,-5.5 674,-24.5"/>
<text text-anchor="middle" x="605.5" y="-12.5" font-family="Helvetica,sans-Serif" font-size="10.00">workers/WriteWorker.cpp</text>
</a>
</g>
</g>
<!-- Node1&#45;&gt;Node5 -->
<g id="edge4_Node000001_Node000005" class="edge">
<title>Node1&#45;&gt;Node5</title>
<g id="a_edge4_Node000001_Node000005"><a xlink:title=" ">
<path fill="none" stroke="#63b8ff" d="M396.54,-63.75C445.99,-52.45 522.8,-34.9 568.23,-24.52"/>
<polygon fill="#63b8ff" stroke="#63b8ff" points="395.69,-60.35 386.72,-65.99 397.25,-67.18 395.69,-60.35"/>
</a>
</g>
</g>
</g>
</svg>
