<?xml version="1.0" encoding="UTF-8" standalone="no"?>
<!DOCTYPE svg PUBLIC "-//W3C//DTD SVG 1.1//EN"
 "http://www.w3.org/Graphics/SVG/1.1/DTD/svg11.dtd">
<!-- Generated by graphviz version 2.43.0 (0)
 -->
<!-- Title: core/kicad/FootprintGraphicsGenerator.cpp Pages: 1 -->
<svg width="678pt" height="258pt"
 viewBox="0.00 0.00 678.00 258.00" xmlns="http://www.w3.org/2000/svg" xmlns:xlink="http://www.w3.org/1999/xlink">
<g id="graph0" class="graph" transform="scale(1 1) rotate(0) translate(4 254)">
<title>core/kicad/FootprintGraphicsGenerator.cpp</title>
<!-- Node1 -->
<g id="Node000001" class="node">
<title>Node1</title>
<g id="a_Node000001"><a xlink:title=" ">
<polygon fill="#999999" stroke="#666666" points="530.5,-250 374.5,-250 374.5,-220 530.5,-220 530.5,-250"/>
<text text-anchor="start" x="382.5" y="-238" font-family="Helvetica,sans-Serif" font-size="10.00">core/kicad/FootprintGraphics</text>
<text text-anchor="middle" x="452.5" y="-227" font-family="Helvetica,sans-Serif" font-size="10.00">Generator.cpp</text>
</a>
</g>
</g>
<!-- Node2 -->
<g id="Node000002" class="node">
<title>Node2</title>
<g id="a_Node000002"><a xlink:href="FootprintGraphicsGenerator_8h.html" target="_top" xlink:title=" ">
<polygon fill="white" stroke="#666666" points="249.5,-184 89.5,-184 89.5,-165 249.5,-165 249.5,-184"/>
<text text-anchor="middle" x="169.5" y="-172" font-family="Helvetica,sans-Serif" font-size="10.00">FootprintGraphicsGenerator.h</text>
</a>
</g>
</g>
<!-- Node1&#45;&gt;Node2 -->
<g id="edge1_Node000001_Node000002" class="edge">
<title>Node1&#45;&gt;Node2</title>
<g id="a_edge1_Node000001_Node000002"><a xlink:title=" ">
<path fill="none" stroke="#63b8ff" d="M384.71,-219.99C334.39,-209.59 266.82,-195.62 220.91,-186.13"/>
<polygon fill="#63b8ff" stroke="#63b8ff" points="221.38,-182.65 210.88,-184.05 219.96,-189.51 221.38,-182.65"/>
</a>
</g>
</g>
<!-- Node11 -->
<g id="Node000011" class="node">
<title>Node11</title>
<g id="a_Node000011"><a xlink:href="GeometryUtils_8h.html" target="_top" xlink:title=" ">
<polygon fill="white" stroke="#666666" points="424,-184 279,-184 279,-165 424,-165 424,-184"/>
<text text-anchor="middle" x="351.5" y="-172" font-family="Helvetica,sans-Serif" font-size="10.00">core/utils/GeometryUtils.h</text>
</a>
</g>
</g>
<!-- Node1&#45;&gt;Node11 -->
<g id="edge13_Node000001_Node000011" class="edge">
<title>Node1&#45;&gt;Node11</title>
<g id="a_edge13_Node000001_Node000011"><a xlink:title=" ">
<path fill="none" stroke="#63b8ff" d="M428.31,-219.99C412.21,-210.66 391.16,-198.47 375.17,-189.21"/>
<polygon fill="#63b8ff" stroke="#63b8ff" points="376.82,-186.12 366.42,-184.14 373.31,-192.18 376.82,-186.12"/>
</a>
</g>
</g>
<!-- Node12 -->
<g id="Node000012" class="node">
<title>Node12</title>
<g id="a_Node000012"><a xlink:title=" ">
<polygon fill="#e0e0e0" stroke="#999999" points="462,-129 415,-129 415,-110 462,-110 462,-129"/>
<text text-anchor="middle" x="438.5" y="-117" font-family="Helvetica,sans-Serif" font-size="10.00">cmath</text>
</a>
</g>
</g>
<!-- Node1&#45;&gt;Node12 -->
<g id="edge18_Node000001_Node000012" class="edge">
<title>Node1&#45;&gt;Node12</title>
<g id="a_edge18_Node000001_Node000012"><a xlink:title=" ">
<path fill="none" stroke="#63b8ff" d="M450.73,-219.63C448.21,-199.21 443.6,-161.81 440.81,-139.24"/>
<polygon fill="#63b8ff" stroke="#63b8ff" points="444.27,-138.73 439.58,-129.23 437.33,-139.58 444.27,-138.73"/>
</a>
</g>
</g>
<!-- Node13 -->
<g id="Node000013" class="node">
<title>Node13</title>
<g id="a_Node000013"><a xlink:title=" ">
<polygon fill="#e0e0e0" stroke="#999999" points="536.5,-184 480.5,-184 480.5,-165 536.5,-165 536.5,-184"/>
<text text-anchor="middle" x="508.5" y="-172" font-family="Helvetica,sans-Serif" font-size="10.00">QDebug</text>
</a>
</g>
</g>
<!-- Node1&#45;&gt;Node13 -->
<g id="edge16_Node000001_Node000013" class="edge">
<title>Node1&#45;&gt;Node13</title>
<g id="a_edge16_Node000001_Node000013"><a xlink:title=" ">
<path fill="none" stroke="#63b8ff" d="M466.06,-219.84C474.18,-211.35 484.55,-200.52 493,-191.69"/>
<polygon fill="#63b8ff" stroke="#63b8ff" points="495.72,-193.91 500.11,-184.27 490.67,-189.07 495.72,-193.91"/>
</a>
</g>
</g>
<!-- Node14 -->
<g id="Node000014" class="node">
<title>Node14</title>
<g id="a_Node000014"><a xlink:title=" ">
<polygon fill="#e0e0e0" stroke="#999999" points="670,-184 555,-184 555,-165 670,-165 670,-184"/>
<text text-anchor="middle" x="612.5" y="-172" font-family="Helvetica,sans-Serif" font-size="10.00">QRegularExpression</text>
</a>
</g>
</g>
<!-- Node1&#45;&gt;Node14 -->
<g id="edge17_Node000001_Node000014" class="edge">
<title>Node1&#45;&gt;Node14</title>
<g id="a_edge17_Node000001_Node000014"><a xlink:title=" ">
<path fill="none" stroke="#63b8ff" d="M490.82,-219.99C517.76,-210.14 553.43,-197.1 579.19,-187.68"/>
<polygon fill="#63b8ff" stroke="#63b8ff" points="580.68,-190.86 588.87,-184.14 578.28,-184.29 580.68,-190.86"/>
</a>
</g>
</g>
<!-- Node3 -->
<g id="Node000003" class="node">
<title>Node3</title>
<g id="a_Node000003"><a xlink:href="FootprintData_8h.html" target="_top" xlink:title=" ">
<polygon fill="white" stroke="#666666" points="235,-129 104,-129 104,-110 235,-110 235,-129"/>
<text text-anchor="middle" x="169.5" y="-117" font-family="Helvetica,sans-Serif" font-size="10.00">models/FootprintData.h</text>
</a>
</g>
</g>
<!-- Node2&#45;&gt;Node3 -->
<g id="edge2_Node000002_Node000003" class="edge">
<title>Node2&#45;&gt;Node3</title>
<g id="a_edge2_Node000002_Node000003"><a xlink:title=" ">
<path fill="none" stroke="#63b8ff" d="M169.5,-164.75C169.5,-157.8 169.5,-147.85 169.5,-139.13"/>
<polygon fill="#63b8ff" stroke="#63b8ff" points="173,-139.09 169.5,-129.09 166,-139.09 173,-139.09"/>
</a>
</g>
</g>
<!-- Node7 -->
<g id="Node000007" class="node">
<title>Node7</title>
<g id="a_Node000007"><a xlink:title=" ">
<polygon fill="#e0e0e0" stroke="#999999" points="53,-19 0,-19 0,0 53,0 53,-19"/>
<text text-anchor="middle" x="26.5" y="-7" font-family="Helvetica,sans-Serif" font-size="10.00">QString</text>
</a>
</g>
</g>
<!-- Node2&#45;&gt;Node7 -->
<g id="edge12_Node000002_Node000007" class="edge">
<title>Node2&#45;&gt;Node7</title>
<g id="a_edge12_Node000002_Node000007"><a xlink:title=" ">
<path fill="none" stroke="#63b8ff" d="M146.04,-164.93C113.03,-151.42 54.24,-121.69 30.5,-74 23.65,-60.23 23.06,-42.66 23.96,-29.49"/>
<polygon fill="#63b8ff" stroke="#63b8ff" points="27.47,-29.56 25.01,-19.26 20.51,-28.85 27.47,-29.56"/>
</a>
</g>
</g>
<!-- Node4 -->
<g id="Node000004" class="node">
<title>Node4</title>
<g id="a_Node000004"><a xlink:href="Model3DData_8h.html" target="_top" xlink:title=" ">
<polygon fill="white" stroke="#666666" points="295.5,-74 203.5,-74 203.5,-55 295.5,-55 295.5,-74"/>
<text text-anchor="middle" x="249.5" y="-62" font-family="Helvetica,sans-Serif" font-size="10.00">Model3DData.h</text>
</a>
</g>
</g>
<!-- Node3&#45;&gt;Node4 -->
<g id="edge3_Node000003_Node000004" class="edge">
<title>Node3&#45;&gt;Node4</title>
<g id="a_edge3_Node000003_Node000004"><a xlink:title=" ">
<path fill="none" stroke="#63b8ff" d="M182.35,-109.98C194.64,-101.84 213.41,-89.41 227.98,-79.76"/>
<polygon fill="#63b8ff" stroke="#63b8ff" points="230.01,-82.61 236.41,-74.17 226.14,-76.78 230.01,-82.61"/>
</a>
</g>
</g>
<!-- Node6 -->
<g id="Node000006" class="node">
<title>Node6</title>
<g id="a_Node000006"><a xlink:title=" ">
<polygon fill="#e0e0e0" stroke="#999999" points="361.5,-19 285.5,-19 285.5,0 361.5,0 361.5,-19"/>
<text text-anchor="middle" x="323.5" y="-7" font-family="Helvetica,sans-Serif" font-size="10.00">QJsonObject</text>
</a>
</g>
</g>
<!-- Node3&#45;&gt;Node6 -->
<g id="edge8_Node000003_Node000006" class="edge">
<title>Node3&#45;&gt;Node6</title>
<g id="a_edge8_Node000003_Node000006"><a xlink:title=" ">
<path fill="none" stroke="#63b8ff" d="M235.1,-109.97C259.73,-103.71 286.17,-92.84 304.5,-74 316.15,-62.02 320.7,-43.21 322.45,-29.16"/>
<polygon fill="#63b8ff" stroke="#63b8ff" points="325.94,-29.41 323.34,-19.14 318.97,-28.79 325.94,-29.41"/>
</a>
</g>
</g>
<!-- Node3&#45;&gt;Node7 -->
<g id="edge11_Node000003_Node000007" class="edge">
<title>Node3&#45;&gt;Node7</title>
<g id="a_edge11_Node000003_Node000007"><a xlink:title=" ">
<path fill="none" stroke="#63b8ff" d="M113.29,-109.92C89.52,-103.63 63.28,-92.76 45.5,-74 34.01,-61.87 29.44,-43.08 27.64,-29.08"/>
<polygon fill="#63b8ff" stroke="#63b8ff" points="31.12,-28.73 26.71,-19.1 24.15,-29.38 31.12,-28.73"/>
</a>
</g>
</g>
<!-- Node8 -->
<g id="Node000008" class="node">
<title>Node8</title>
<g id="a_Node000008"><a xlink:title=" ">
<polygon fill="#e0e0e0" stroke="#999999" points="126,-74 55,-74 55,-55 126,-55 126,-74"/>
<text text-anchor="middle" x="90.5" y="-62" font-family="Helvetica,sans-Serif" font-size="10.00">QJsonArray</text>
</a>
</g>
</g>
<!-- Node3&#45;&gt;Node8 -->
<g id="edge7_Node000003_Node000008" class="edge">
<title>Node3&#45;&gt;Node8</title>
<g id="a_edge7_Node000003_Node000008"><a xlink:title=" ">
<path fill="none" stroke="#63b8ff" d="M156.81,-109.98C144.67,-101.84 126.14,-89.41 111.75,-79.76"/>
<polygon fill="#63b8ff" stroke="#63b8ff" points="113.68,-76.84 103.42,-74.17 109.78,-82.65 113.68,-76.84"/>
</a>
</g>
</g>
<!-- Node9 -->
<g id="Node000009" class="node">
<title>Node9</title>
<g id="a_Node000009"><a xlink:title=" ">
<polygon fill="#e0e0e0" stroke="#999999" points="185,-74 144,-74 144,-55 185,-55 185,-74"/>
<text text-anchor="middle" x="164.5" y="-62" font-family="Helvetica,sans-Serif" font-size="10.00">QList</text>
</a>
</g>
</g>
<!-- Node3&#45;&gt;Node9 -->
<g id="edge9_Node000003_Node000009" class="edge">
<title>Node3&#45;&gt;Node9</title>
<g id="a_edge9_Node000003_Node000009"><a xlink:title=" ">
<path fill="none" stroke="#63b8ff" d="M168.67,-109.75C168.02,-102.8 167.08,-92.85 166.26,-84.13"/>
<polygon fill="#63b8ff" stroke="#63b8ff" points="169.73,-83.72 165.31,-74.09 162.77,-84.37 169.73,-83.72"/>
</a>
</g>
</g>
<!-- Node10 -->
<g id="Node000010" class="node">
<title>Node10</title>
<g id="a_Node000010"><a xlink:title=" ">
<polygon fill="#e0e0e0" stroke="#999999" points="407,-74 352,-74 352,-55 407,-55 407,-74"/>
<text text-anchor="middle" x="379.5" y="-62" font-family="Helvetica,sans-Serif" font-size="10.00">QPointF</text>
</a>
</g>
</g>
<!-- Node3&#45;&gt;Node10 -->
<g id="edge10_Node000003_Node000010" class="edge">
<title>Node3&#45;&gt;Node10</title>
<g id="a_edge10_Node000003_Node000010"><a xlink:title=" ">
<path fill="none" stroke="#63b8ff" d="M203.24,-109.98C241.21,-100.4 302.72,-84.88 342.12,-74.93"/>
<polygon fill="#63b8ff" stroke="#63b8ff" points="343.04,-78.31 351.88,-72.47 341.33,-71.52 343.04,-78.31"/>
</a>
</g>
</g>
<!-- Node5 -->
<g id="Node000005" class="node">
<title>Node5</title>
<g id="a_Node000005"><a xlink:title=" ">
<polygon fill="#e0e0e0" stroke="#999999" points="267,-19 194,-19 194,0 267,0 267,-19"/>
<text text-anchor="middle" x="230.5" y="-7" font-family="Helvetica,sans-Serif" font-size="10.00">QByteArray</text>
</a>
</g>
</g>
<!-- Node4&#45;&gt;Node5 -->
<g id="edge4_Node000004_Node000005" class="edge">
<title>Node4&#45;&gt;Node5</title>
<g id="a_edge4_Node000004_Node000005"><a xlink:title=" ">
<path fill="none" stroke="#63b8ff" d="M246.36,-54.75C243.82,-47.65 240.14,-37.4 236.97,-28.56"/>
<polygon fill="#63b8ff" stroke="#63b8ff" points="240.25,-27.32 233.58,-19.09 233.66,-29.68 240.25,-27.32"/>
</a>
</g>
</g>
<!-- Node4&#45;&gt;Node6 -->
<g id="edge5_Node000004_Node000006" class="edge">
<title>Node4&#45;&gt;Node6</title>
<g id="a_edge5_Node000004_Node000006"><a xlink:title=" ">
<path fill="none" stroke="#63b8ff" d="M261.39,-54.98C272.65,-46.92 289.79,-34.65 303.21,-25.03"/>
<polygon fill="#63b8ff" stroke="#63b8ff" points="305.3,-27.84 311.39,-19.17 301.23,-22.15 305.3,-27.84"/>
</a>
</g>
</g>
<!-- Node4&#45;&gt;Node7 -->
<g id="edge6_Node000004_Node000007" class="edge">
<title>Node4&#45;&gt;Node7</title>
<g id="a_edge6_Node000004_Node000007"><a xlink:title=" ">
<path fill="none" stroke="#63b8ff" d="M213.67,-54.98C172.27,-45.14 104.51,-29.04 62.88,-19.15"/>
<polygon fill="#63b8ff" stroke="#63b8ff" points="63.68,-15.74 53.14,-16.83 62.06,-22.55 63.68,-15.74"/>
</a>
</g>
</g>
<!-- Node11&#45;&gt;Node10 -->
<g id="edge14_Node000011_Node000010" class="edge">
<title>Node11&#45;&gt;Node10</title>
<g id="a_edge14_Node000011_Node000010"><a xlink:title=" ">
<path fill="none" stroke="#63b8ff" d="M353.79,-164.66C358.35,-147.09 368.62,-107.45 374.72,-83.95"/>
<polygon fill="#63b8ff" stroke="#63b8ff" points="378.13,-84.72 377.26,-74.16 371.36,-82.96 378.13,-84.72"/>
</a>
</g>
</g>
<!-- Node11&#45;&gt;Node12 -->
<g id="edge15_Node000011_Node000012" class="edge">
<title>Node11&#45;&gt;Node12</title>
<g id="a_edge15_Node000011_Node000012"><a xlink:title=" ">
<path fill="none" stroke="#63b8ff" d="M365.48,-164.98C378.97,-156.77 399.63,-144.18 415.54,-134.49"/>
<polygon fill="#63b8ff" stroke="#63b8ff" points="417.55,-137.36 424.27,-129.17 413.91,-131.38 417.55,-137.36"/>
</a>
</g>
</g>
</g>
</svg>
