<?xml version="1.0" encoding="UTF-8" standalone="no"?>
<!DOCTYPE svg PUBLIC "-//W3C//DTD SVG 1.1//EN"
 "http://www.w3.org/Graphics/SVG/1.1/DTD/svg11.dtd">
<!-- Generated by graphviz version 2.43.0 (0)
 -->
<!-- Title: core/kicad/FootprintGraphicsGenerator.h Pages: 1 -->
<svg width="452pt" height="203pt"
 viewBox="0.00 0.00 452.00 203.00" xmlns="http://www.w3.org/2000/svg" xmlns:xlink="http://www.w3.org/1999/xlink">
<g id="graph0" class="graph" transform="scale(1 1) rotate(0) translate(4 199)">
<title>core/kicad/FootprintGraphicsGenerator.h</title>
<!-- Node1 -->
<g id="Node000001" class="node">
<title>Node1</title>
<g id="a_Node000001"><a xlink:title=" ">
<polygon fill="#999999" stroke="#666666" points="444,-195 288,-195 288,-165 444,-165 444,-195"/>
<text text-anchor="start" x="296" y="-183" font-family="Helvetica,sans-Serif" font-size="10.00">core/kicad/FootprintGraphics</text>
<text text-anchor="middle" x="366" y="-172" font-family="Helvetica,sans-Serif" font-size="10.00">Generator.h</text>
</a>
</g>
</g>
<!-- Node2 -->
<g id="Node000002" class="node">
<title>Node2</title>
<g id="a_Node000002"><a xlink:href="FootprintData_8h.html" target="_top" xlink:title=" ">
<polygon fill="white" stroke="#666666" points="351.5,-129 220.5,-129 220.5,-110 351.5,-110 351.5,-129"/>
<text text-anchor="middle" x="286" y="-117" font-family="Helvetica,sans-Serif" font-size="10.00">models/FootprintData.h</text>
</a>
</g>
</g>
<!-- Node1&#45;&gt;Node2 -->
<g id="edge1_Node000001_Node000002" class="edge">
<title>Node1&#45;&gt;Node2</title>
<g id="a_edge1_Node000001_Node000002"><a xlink:title=" ">
<path fill="none" stroke="#63b8ff" d="M346.63,-164.84C334.43,-155.91 318.69,-144.41 306.31,-135.35"/>
<polygon fill="#63b8ff" stroke="#63b8ff" points="308.13,-132.34 297.99,-129.27 303.99,-137.99 308.13,-132.34"/>
</a>
</g>
</g>
<!-- Node6 -->
<g id="Node000006" class="node">
<title>Node6</title>
<g id="a_Node000006"><a xlink:title=" ">
<polygon fill="#e0e0e0" stroke="#999999" points="434.5,-19 381.5,-19 381.5,0 434.5,0 434.5,-19"/>
<text text-anchor="middle" x="408" y="-7" font-family="Helvetica,sans-Serif" font-size="10.00">QString</text>
</a>
</g>
</g>
<!-- Node1&#45;&gt;Node6 -->
<g id="edge11_Node000001_Node000006" class="edge">
<title>Node1&#45;&gt;Node6</title>
<g id="a_edge11_Node000001_Node000006"><a xlink:title=" ">
<path fill="none" stroke="#63b8ff" d="M373.65,-164.92C383.87,-145.26 401.43,-108.12 408,-74 410.84,-59.25 410.66,-42.21 409.86,-29.49"/>
<polygon fill="#63b8ff" stroke="#63b8ff" points="413.33,-28.91 409.03,-19.23 406.35,-29.48 413.33,-28.91"/>
</a>
</g>
</g>
<!-- Node3 -->
<g id="Node000003" class="node">
<title>Node3</title>
<g id="a_Node000003"><a xlink:href="Model3DData_8h.html" target="_top" xlink:title=" ">
<polygon fill="white" stroke="#666666" points="158,-74 66,-74 66,-55 158,-55 158,-74"/>
<text text-anchor="middle" x="112" y="-62" font-family="Helvetica,sans-Serif" font-size="10.00">Model3DData.h</text>
</a>
</g>
</g>
<!-- Node2&#45;&gt;Node3 -->
<g id="edge2_Node000002_Node000003" class="edge">
<title>Node2&#45;&gt;Node3</title>
<g id="a_edge2_Node000002_Node000003"><a xlink:title=" ">
<path fill="none" stroke="#63b8ff" d="M258.04,-109.98C228.7,-101.05 182.4,-86.94 149.81,-77.02"/>
<polygon fill="#63b8ff" stroke="#63b8ff" points="150.76,-73.65 140.18,-74.08 148.72,-80.34 150.76,-73.65"/>
</a>
</g>
</g>
<!-- Node5 -->
<g id="Node000005" class="node">
<title>Node5</title>
<g id="a_Node000005"><a xlink:title=" ">
<polygon fill="#e0e0e0" stroke="#999999" points="76,-19 0,-19 0,0 76,0 76,-19"/>
<text text-anchor="middle" x="38" y="-7" font-family="Helvetica,sans-Serif" font-size="10.00">QJsonObject</text>
</a>
</g>
</g>
<!-- Node2&#45;&gt;Node5 -->
<g id="edge7_Node000002_Node000005" class="edge">
<title>Node2&#45;&gt;Node5</title>
<g id="a_edge7_Node000002_Node000005"><a xlink:title=" ">
<path fill="none" stroke="#63b8ff" d="M220.32,-113.26C161.36,-107.24 80.56,-95.34 57,-74 44.62,-62.78 40.17,-43.87 38.64,-29.59"/>
<polygon fill="#63b8ff" stroke="#63b8ff" points="42.11,-29.11 37.94,-19.37 35.13,-29.59 42.11,-29.11"/>
</a>
</g>
</g>
<!-- Node2&#45;&gt;Node6 -->
<g id="edge10_Node000002_Node000006" class="edge">
<title>Node2&#45;&gt;Node6</title>
<g id="a_edge10_Node000002_Node000006"><a xlink:title=" ">
<path fill="none" stroke="#63b8ff" d="M325.83,-109.99C347.28,-103.5 372.63,-92.41 389,-74 399.87,-61.77 404.53,-43.54 406.52,-29.74"/>
<polygon fill="#63b8ff" stroke="#63b8ff" points="410.04,-29.75 407.64,-19.43 403.08,-28.99 410.04,-29.75"/>
</a>
</g>
</g>
<!-- Node7 -->
<g id="Node000007" class="node">
<title>Node7</title>
<g id="a_Node000007"><a xlink:title=" ">
<polygon fill="#e0e0e0" stroke="#999999" points="247.5,-74 176.5,-74 176.5,-55 247.5,-55 247.5,-74"/>
<text text-anchor="middle" x="212" y="-62" font-family="Helvetica,sans-Serif" font-size="10.00">QJsonArray</text>
</a>
</g>
</g>
<!-- Node2&#45;&gt;Node7 -->
<g id="edge6_Node000002_Node000007" class="edge">
<title>Node2&#45;&gt;Node7</title>
<g id="a_edge6_Node000002_Node000007"><a xlink:title=" ">
<path fill="none" stroke="#63b8ff" d="M274.11,-109.98C262.85,-101.92 245.71,-89.65 232.29,-80.03"/>
<polygon fill="#63b8ff" stroke="#63b8ff" points="234.27,-77.15 224.11,-74.17 230.2,-82.84 234.27,-77.15"/>
</a>
</g>
</g>
<!-- Node8 -->
<g id="Node000008" class="node">
<title>Node8</title>
<g id="a_Node000008"><a xlink:title=" ">
<polygon fill="#e0e0e0" stroke="#999999" points="306.5,-74 265.5,-74 265.5,-55 306.5,-55 306.5,-74"/>
<text text-anchor="middle" x="286" y="-62" font-family="Helvetica,sans-Serif" font-size="10.00">QList</text>
</a>
</g>
</g>
<!-- Node2&#45;&gt;Node8 -->
<g id="edge8_Node000002_Node000008" class="edge">
<title>Node2&#45;&gt;Node8</title>
<g id="a_edge8_Node000002_Node000008"><a xlink:title=" ">
<path fill="none" stroke="#63b8ff" d="M286,-109.75C286,-102.8 286,-92.85 286,-84.13"/>
<polygon fill="#63b8ff" stroke="#63b8ff" points="289.5,-84.09 286,-74.09 282.5,-84.09 289.5,-84.09"/>
</a>
</g>
</g>
<!-- Node9 -->
<g id="Node000009" class="node">
<title>Node9</title>
<g id="a_Node000009"><a xlink:title=" ">
<polygon fill="#e0e0e0" stroke="#999999" points="379.5,-74 324.5,-74 324.5,-55 379.5,-55 379.5,-74"/>
<text text-anchor="middle" x="352" y="-62" font-family="Helvetica,sans-Serif" font-size="10.00">QPointF</text>
</a>
</g>
</g>
<!-- Node2&#45;&gt;Node9 -->
<g id="edge9_Node000002_Node000009" class="edge">
<title>Node2&#45;&gt;Node9</title>
<g id="a_edge9_Node000002_Node000009"><a xlink:title=" ">
<path fill="none" stroke="#63b8ff" d="M296.6,-109.98C306.46,-102.07 321.35,-90.11 333.22,-80.58"/>
<polygon fill="#63b8ff" stroke="#63b8ff" points="335.6,-83.16 341.2,-74.17 331.21,-77.7 335.6,-83.16"/>
</a>
</g>
</g>
<!-- Node4 -->
<g id="Node000004" class="node">
<title>Node4</title>
<g id="a_Node000004"><a xlink:title=" ">
<polygon fill="#e0e0e0" stroke="#999999" points="167.5,-19 94.5,-19 94.5,0 167.5,0 167.5,-19"/>
<text text-anchor="middle" x="131" y="-7" font-family="Helvetica,sans-Serif" font-size="10.00">QByteArray</text>
</a>
</g>
</g>
<!-- Node3&#45;&gt;Node4 -->
<g id="edge3_Node000003_Node000004" class="edge">
<title>Node3&#45;&gt;Node4</title>
<g id="a_edge3_Node000003_Node000004"><a xlink:title=" ">
<path fill="none" stroke="#63b8ff" d="M115.14,-54.75C117.68,-47.65 121.36,-37.4 124.53,-28.56"/>
<polygon fill="#63b8ff" stroke="#63b8ff" points="127.84,-29.68 127.92,-19.09 121.25,-27.32 127.84,-29.68"/>
</a>
</g>
</g>
<!-- Node3&#45;&gt;Node5 -->
<g id="edge4_Node000003_Node000005" class="edge">
<title>Node3&#45;&gt;Node5</title>
<g id="a_edge4_Node000003_Node000005"><a xlink:title=" ">
<path fill="none" stroke="#63b8ff" d="M100.11,-54.98C88.85,-46.92 71.71,-34.65 58.29,-25.03"/>
<polygon fill="#63b8ff" stroke="#63b8ff" points="60.27,-22.15 50.11,-19.17 56.2,-27.84 60.27,-22.15"/>
</a>
</g>
</g>
<!-- Node3&#45;&gt;Node6 -->
<g id="edge5_Node000003_Node000006" class="edge">
<title>Node3&#45;&gt;Node6</title>
<g id="a_edge5_Node000003_Node000006"><a xlink:title=" ">
<path fill="none" stroke="#63b8ff" d="M158.25,-55.22C217.09,-44.68 317.52,-26.7 371.35,-17.06"/>
<polygon fill="#63b8ff" stroke="#63b8ff" points="372.24,-20.46 381.47,-15.25 371.01,-13.57 372.24,-20.46"/>
</a>
</g>
</g>
</g>
</svg>
