<?xml version="1.0" encoding="UTF-8" standalone="no"?>
<!DOCTYPE svg PUBLIC "-//W3C//DTD SVG 1.1//EN"
 "http://www.w3.org/Graphics/SVG/1.1/DTD/svg11.dtd">
<!-- Generated by graphviz version 2.43.0 (0)
 -->
<!-- Title: models/FootprintDataSerializer.cpp Pages: 1 -->
<svg width="451pt" height="247pt"
 viewBox="0.00 0.00 451.00 247.00" xmlns="http://www.w3.org/2000/svg" xmlns:xlink="http://www.w3.org/1999/xlink">
<g id="graph0" class="graph" transform="scale(1 1) rotate(0) translate(4 243)">
<title>models/FootprintDataSerializer.cpp</title>
<!-- Node1 -->
<g id="Node000001" class="node">
<title>Node1</title>
<g id="a_Node000001"><a xlink:title=" ">
<polygon fill="#999999" stroke="#666666" points="443,-239 255,-239 255,-220 443,-220 443,-239"/>
<text text-anchor="middle" x="349" y="-227" font-family="Helvetica,sans-Serif" font-size="10.00">models/FootprintDataSerializer.cpp</text>
</a>
</g>
</g>
<!-- Node2 -->
<g id="Node000002" class="node">
<title>Node2</title>
<g id="a_Node000002"><a xlink:href="FootprintDataSerializer_8h.html" target="_top" xlink:title=" ">
<polygon fill="white" stroke="#666666" points="254.5,-184 117.5,-184 117.5,-165 254.5,-165 254.5,-184"/>
<text text-anchor="middle" x="186" y="-172" font-family="Helvetica,sans-Serif" font-size="10.00">FootprintDataSerializer.h</text>
</a>
</g>
</g>
<!-- Node1&#45;&gt;Node2 -->
<g id="edge1_Node000001_Node000002" class="edge">
<title>Node1&#45;&gt;Node2</title>
<g id="a_edge1_Node000001_Node000002"><a xlink:title=" ">
<path fill="none" stroke="#63b8ff" d="M322.81,-219.98C295.56,-211.13 252.7,-197.19 222.22,-187.28"/>
<polygon fill="#63b8ff" stroke="#63b8ff" points="222.99,-183.85 212.39,-184.08 220.82,-190.5 222.99,-183.85"/>
</a>
</g>
</g>
<!-- Node8 -->
<g id="Node000008" class="node">
<title>Node8</title>
<g id="a_Node000008"><a xlink:title=" ">
<polygon fill="#e0e0e0" stroke="#999999" points="418.5,-74 347.5,-74 347.5,-55 418.5,-55 418.5,-74"/>
<text text-anchor="middle" x="383" y="-62" font-family="Helvetica,sans-Serif" font-size="10.00">QJsonArray</text>
</a>
</g>
</g>
<!-- Node1&#45;&gt;Node8 -->
<g id="edge14_Node000001_Node000008" class="edge">
<title>Node1&#45;&gt;Node8</title>
<g id="a_edge14_Node000001_Node000008"><a xlink:title=" ">
<path fill="none" stroke="#63b8ff" d="M350.83,-219.74C356.15,-194.2 371.75,-119.43 379.09,-84.23"/>
<polygon fill="#63b8ff" stroke="#63b8ff" points="382.55,-84.81 381.16,-74.31 375.69,-83.38 382.55,-84.81"/>
</a>
</g>
</g>
<!-- Node11 -->
<g id="Node000011" class="node">
<title>Node11</title>
<g id="a_Node000011"><a xlink:title=" ">
<polygon fill="#e0e0e0" stroke="#999999" points="433,-184 377,-184 377,-165 433,-165 433,-184"/>
<text text-anchor="middle" x="405" y="-172" font-family="Helvetica,sans-Serif" font-size="10.00">QDebug</text>
</a>
</g>
</g>
<!-- Node1&#45;&gt;Node11 -->
<g id="edge13_Node000001_Node000011" class="edge">
<title>Node1&#45;&gt;Node11</title>
<g id="a_edge13_Node000001_Node000011"><a xlink:title=" ">
<path fill="none" stroke="#63b8ff" d="M358,-219.98C366.19,-212.23 378.51,-200.58 388.47,-191.14"/>
<polygon fill="#63b8ff" stroke="#63b8ff" points="390.98,-193.59 395.84,-184.17 386.17,-188.5 390.98,-193.59"/>
</a>
</g>
</g>
<!-- Node3 -->
<g id="Node000003" class="node">
<title>Node3</title>
<g id="a_Node000003"><a xlink:href="FootprintData_8h.html" target="_top" xlink:title=" ">
<polygon fill="white" stroke="#666666" points="232,-129 140,-129 140,-110 232,-110 232,-129"/>
<text text-anchor="middle" x="186" y="-117" font-family="Helvetica,sans-Serif" font-size="10.00">FootprintData.h</text>
</a>
</g>
</g>
<!-- Node2&#45;&gt;Node3 -->
<g id="edge2_Node000002_Node000003" class="edge">
<title>Node2&#45;&gt;Node3</title>
<g id="a_edge2_Node000002_Node000003"><a xlink:title=" ">
<path fill="none" stroke="#63b8ff" d="M186,-164.75C186,-157.8 186,-147.85 186,-139.13"/>
<polygon fill="#63b8ff" stroke="#63b8ff" points="189.5,-139.09 186,-129.09 182.5,-139.09 189.5,-139.09"/>
</a>
</g>
</g>
<!-- Node6 -->
<g id="Node000006" class="node">
<title>Node6</title>
<g id="a_Node000006"><a xlink:title=" ">
<polygon fill="#e0e0e0" stroke="#999999" points="76,-19 0,-19 0,0 76,0 76,-19"/>
<text text-anchor="middle" x="38" y="-7" font-family="Helvetica,sans-Serif" font-size="10.00">QJsonObject</text>
</a>
</g>
</g>
<!-- Node2&#45;&gt;Node6 -->
<g id="edge12_Node000002_Node000006" class="edge">
<title>Node2&#45;&gt;Node6</title>
<g id="a_edge12_Node000002_Node000006"><a xlink:title=" ">
<path fill="none" stroke="#63b8ff" d="M162.58,-164.99C129.17,-151.46 68.92,-121.62 42,-74 34.36,-60.48 33.9,-42.65 35.05,-29.33"/>
<polygon fill="#63b8ff" stroke="#63b8ff" points="38.52,-29.74 36.26,-19.39 31.57,-28.89 38.52,-29.74"/>
</a>
</g>
</g>
<!-- Node4 -->
<g id="Node000004" class="node">
<title>Node4</title>
<g id="a_Node000004"><a xlink:href="Model3DData_8h.html" target="_top" xlink:title=" ">
<polygon fill="white" stroke="#666666" points="291,-74 199,-74 199,-55 291,-55 291,-74"/>
<text text-anchor="middle" x="245" y="-62" font-family="Helvetica,sans-Serif" font-size="10.00">Model3DData.h</text>
</a>
</g>
</g>
<!-- Node3&#45;&gt;Node4 -->
<g id="edge3_Node000003_Node000004" class="edge">
<title>Node3&#45;&gt;Node4</title>
<g id="a_edge3_Node000003_Node000004"><a xlink:title=" ">
<path fill="none" stroke="#63b8ff" d="M195.48,-109.98C204.2,-102.15 217.34,-90.34 227.9,-80.86"/>
<polygon fill="#63b8ff" stroke="#63b8ff" points="230.25,-83.46 235.35,-74.17 225.57,-78.25 230.25,-83.46"/>
</a>
</g>
</g>
<!-- Node3&#45;&gt;Node6 -->
<g id="edge8_Node000003_Node000006" class="edge">
<title>Node3&#45;&gt;Node6</title>
<g id="a_edge8_Node000003_Node000006"><a xlink:title=" ">
<path fill="none" stroke="#63b8ff" d="M139.76,-113.18C112.27,-107.69 78.65,-96.57 57,-74 45.43,-61.94 40.88,-43.14 39.1,-29.12"/>
<polygon fill="#63b8ff" stroke="#63b8ff" points="42.58,-28.76 38.18,-19.12 35.61,-29.39 42.58,-28.76"/>
</a>
</g>
</g>
<!-- Node7 -->
<g id="Node000007" class="node">
<title>Node7</title>
<g id="a_Node000007"><a xlink:title=" ">
<polygon fill="#e0e0e0" stroke="#999999" points="345.5,-19 292.5,-19 292.5,0 345.5,0 345.5,-19"/>
<text text-anchor="middle" x="319" y="-7" font-family="Helvetica,sans-Serif" font-size="10.00">QString</text>
</a>
</g>
</g>
<!-- Node3&#45;&gt;Node7 -->
<g id="edge11_Node000003_Node000007" class="edge">
<title>Node3&#45;&gt;Node7</title>
<g id="a_edge11_Node000003_Node000007"><a xlink:title=" ">
<path fill="none" stroke="#63b8ff" d="M232.28,-110.43C255.5,-104.15 282.36,-93.14 300,-74 311.21,-61.84 315.82,-43.31 317.71,-29.4"/>
<polygon fill="#63b8ff" stroke="#63b8ff" points="321.23,-29.35 318.74,-19.05 314.27,-28.65 321.23,-29.35"/>
</a>
</g>
</g>
<!-- Node3&#45;&gt;Node8 -->
<g id="edge7_Node000003_Node000008" class="edge">
<title>Node3&#45;&gt;Node8</title>
<g id="a_edge7_Node000003_Node000008"><a xlink:title=" ">
<path fill="none" stroke="#63b8ff" d="M217.65,-109.98C251.16,-100.97 304.2,-86.7 341.14,-76.76"/>
<polygon fill="#63b8ff" stroke="#63b8ff" points="342.35,-80.06 351.1,-74.08 340.53,-73.3 342.35,-80.06"/>
</a>
</g>
</g>
<!-- Node9 -->
<g id="Node000009" class="node">
<title>Node9</title>
<g id="a_Node000009"><a xlink:title=" ">
<polygon fill="#e0e0e0" stroke="#999999" points="107.5,-74 66.5,-74 66.5,-55 107.5,-55 107.5,-74"/>
<text text-anchor="middle" x="87" y="-62" font-family="Helvetica,sans-Serif" font-size="10.00">QList</text>
</a>
</g>
</g>
<!-- Node3&#45;&gt;Node9 -->
<g id="edge9_Node000003_Node000009" class="edge">
<title>Node3&#45;&gt;Node9</title>
<g id="a_edge9_Node000003_Node000009"><a xlink:title=" ">
<path fill="none" stroke="#63b8ff" d="M170.09,-109.98C154.45,-101.61 130.34,-88.7 112.12,-78.95"/>
<polygon fill="#63b8ff" stroke="#63b8ff" points="113.66,-75.8 103.2,-74.17 110.36,-81.98 113.66,-75.8"/>
</a>
</g>
</g>
<!-- Node10 -->
<g id="Node000010" class="node">
<title>Node10</title>
<g id="a_Node000010"><a xlink:title=" ">
<polygon fill="#e0e0e0" stroke="#999999" points="180.5,-74 125.5,-74 125.5,-55 180.5,-55 180.5,-74"/>
<text text-anchor="middle" x="153" y="-62" font-family="Helvetica,sans-Serif" font-size="10.00">QPointF</text>
</a>
</g>
</g>
<!-- Node3&#45;&gt;Node10 -->
<g id="edge10_Node000003_Node000010" class="edge">
<title>Node3&#45;&gt;Node10</title>
<g id="a_edge10_Node000003_Node000010"><a xlink:title=" ">
<path fill="none" stroke="#63b8ff" d="M180.55,-109.75C175.99,-102.42 169.33,-91.73 163.71,-82.7"/>
<polygon fill="#63b8ff" stroke="#63b8ff" points="166.6,-80.73 158.35,-74.09 160.66,-84.43 166.6,-80.73"/>
</a>
</g>
</g>
<!-- Node5 -->
<g id="Node000005" class="node">
<title>Node5</title>
<g id="a_Node000005"><a xlink:title=" ">
<polygon fill="#e0e0e0" stroke="#999999" points="274.5,-19 201.5,-19 201.5,0 274.5,0 274.5,-19"/>
<text text-anchor="middle" x="238" y="-7" font-family="Helvetica,sans-Serif" font-size="10.00">QByteArray</text>
</a>
</g>
</g>
<!-- Node4&#45;&gt;Node5 -->
<g id="edge4_Node000004_Node000005" class="edge">
<title>Node4&#45;&gt;Node5</title>
<g id="a_edge4_Node000004_Node000005"><a xlink:title=" ">
<path fill="none" stroke="#63b8ff" d="M243.84,-54.75C242.93,-47.8 241.61,-37.85 240.46,-29.13"/>
<polygon fill="#63b8ff" stroke="#63b8ff" points="243.91,-28.54 239.13,-19.09 236.97,-29.46 243.91,-28.54"/>
</a>
</g>
</g>
<!-- Node4&#45;&gt;Node6 -->
<g id="edge5_Node000004_Node000006" class="edge">
<title>Node4&#45;&gt;Node6</title>
<g id="a_edge5_Node000004_Node000006"><a xlink:title=" ">
<path fill="none" stroke="#63b8ff" d="M211.74,-54.98C176.39,-45.93 120.33,-31.58 81.49,-21.64"/>
<polygon fill="#63b8ff" stroke="#63b8ff" points="82.07,-18.17 71.52,-19.08 80.34,-24.95 82.07,-18.17"/>
</a>
</g>
</g>
<!-- Node4&#45;&gt;Node7 -->
<g id="edge6_Node000004_Node000007" class="edge">
<title>Node4&#45;&gt;Node7</title>
<g id="a_edge6_Node000004_Node000007"><a xlink:title=" ">
<path fill="none" stroke="#63b8ff" d="M256.89,-54.98C268.15,-46.92 285.29,-34.65 298.71,-25.03"/>
<polygon fill="#63b8ff" stroke="#63b8ff" points="300.8,-27.84 306.89,-19.17 296.73,-22.15 300.8,-27.84"/>
</a>
</g>
</g>
</g>
</svg>
