<?xml version="1.0" encoding="UTF-8" standalone="no"?>
<!DOCTYPE svg PUBLIC "-//W3C//DTD SVG 1.1//EN"
 "http://www.w3.org/Graphics/SVG/1.1/DTD/svg11.dtd">
<!-- Generated by graphviz version 2.43.0 (0)
 -->
<!-- Title: core/utils/GeometryUtils.h Pages: 1 -->
<svg width="886pt" height="93pt"
 viewBox="0.00 0.00 885.50 93.00" xmlns="http://www.w3.org/2000/svg" xmlns:xlink="http://www.w3.org/1999/xlink">
<g id="graph0" class="graph" transform="scale(1 1) rotate(0) translate(4 89)">
<title>core/utils/GeometryUtils.h</title>
<!-- Node1 -->
<g id="Node000001" class="node">
<title>Node1</title>
<g id="a_Node000001"><a xlink:title=" ">
<polygon fill="#999999" stroke="#666666" points="530,-85 385,-85 385,-66 530,-66 530,-85"/>
<text text-anchor="middle" x="457.5" y="-73" font-family="Helvetica,sans-Serif" font-size="10.00">core/utils/GeometryUtils.h</text>
</a>
</g>
</g>
<!-- Node2 -->
<g id="Node000002" class="node">
<title>Node2</title>
<g id="a_Node000002"><a xlink:href="ExporterFootprint_8cpp.html" target="_top" xlink:title=" ">
<polygon fill="white" stroke="#666666" points="175,-24.5 0,-24.5 0,-5.5 175,-5.5 175,-24.5"/>
<text text-anchor="middle" x="87.5" y="-12.5" font-family="Helvetica,sans-Serif" font-size="10.00">core/kicad/ExporterFootprint.cpp</text>
</a>
</g>
</g>
<!-- Node1&#45;&gt;Node2 -->
<g id="edge1_Node000001_Node000002" class="edge">
<title>Node1&#45;&gt;Node2</title>
<g id="a_edge1_Node000001_Node000002"><a xlink:title=" ">
<path fill="none" stroke="#63b8ff" d="M393.5,-64.38C322.23,-53.11 208.26,-35.09 141.37,-24.52"/>
<polygon fill="#63b8ff" stroke="#63b8ff" points="393.27,-67.89 403.7,-65.99 394.37,-60.97 393.27,-67.89"/>
</a>
</g>
</g>
<!-- Node3 -->
<g id="Node000003" class="node">
<title>Node3</title>
<g id="a_Node000003"><a xlink:href="ExporterSymbol_8cpp.html" target="_top" xlink:title=" ">
<polygon fill="white" stroke="#666666" points="361.5,-24.5 193.5,-24.5 193.5,-5.5 361.5,-5.5 361.5,-24.5"/>
<text text-anchor="middle" x="277.5" y="-12.5" font-family="Helvetica,sans-Serif" font-size="10.00">core/kicad/ExporterSymbol.cpp</text>
</a>
</g>
</g>
<!-- Node1&#45;&gt;Node3 -->
<g id="edge2_Node000001_Node000003" class="edge">
<title>Node1&#45;&gt;Node3</title>
<g id="a_edge2_Node000001_Node000003"><a xlink:title=" ">
<path fill="none" stroke="#63b8ff" d="M421.55,-62.82C386.74,-51.5 334.78,-34.62 303.71,-24.52"/>
<polygon fill="#63b8ff" stroke="#63b8ff" points="420.73,-66.23 431.33,-65.99 422.9,-59.57 420.73,-66.23"/>
</a>
</g>
</g>
<!-- Node4 -->
<g id="Node000004" class="node">
<title>Node4</title>
<g id="a_Node000004"><a xlink:href="FootprintGraphicsGenerator_8cpp.html" target="_top" xlink:title=" ">
<polygon fill="white" stroke="#666666" points="535.5,-30 379.5,-30 379.5,0 535.5,0 535.5,-30"/>
<text text-anchor="start" x="387.5" y="-18" font-family="Helvetica,sans-Serif" font-size="10.00">core/kicad/FootprintGraphics</text>
<text text-anchor="middle" x="457.5" y="-7" font-family="Helvetica,sans-Serif" font-size="10.00">Generator.cpp</text>
</a>
</g>
</g>
<!-- Node1&#45;&gt;Node4 -->
<g id="edge3_Node000001_Node000004" class="edge">
<title>Node1&#45;&gt;Node4</title>
<g id="a_edge3_Node000001_Node000004"><a xlink:title=" ">
<path fill="none" stroke="#63b8ff" d="M457.5,-55.65C457.5,-47.36 457.5,-37.78 457.5,-30.11"/>
<polygon fill="#63b8ff" stroke="#63b8ff" points="454,-55.87 457.5,-65.87 461,-55.87 454,-55.87"/>
</a>
</g>
</g>
<!-- Node5 -->
<g id="Node000005" class="node">
<title>Node5</title>
<g id="a_Node000005"><a xlink:href="SymbolGraphicsGenerator_8cpp.html" target="_top" xlink:title=" ">
<polygon fill="white" stroke="#666666" points="703,-30 554,-30 554,0 703,0 703,-30"/>
<text text-anchor="start" x="562" y="-18" font-family="Helvetica,sans-Serif" font-size="10.00">core/kicad/SymbolGraphics</text>
<text text-anchor="middle" x="628.5" y="-7" font-family="Helvetica,sans-Serif" font-size="10.00">Generator.cpp</text>
</a>
</g>
</g>
<!-- Node1&#45;&gt;Node5 -->
<g id="edge4_Node000001_Node000005" class="edge">
<title>Node1&#45;&gt;Node5</title>
<g id="a_edge4_Node000001_Node000005"><a xlink:title=" ">
<path fill="none" stroke="#63b8ff" d="M491.97,-62.71C519.52,-53.28 558.22,-40.04 587.39,-30.06"/>
<polygon fill="#63b8ff" stroke="#63b8ff" points="490.69,-59.45 482.36,-65.99 492.96,-66.07 490.69,-59.45"/>
</a>
</g>
</g>
<!-- Node6 -->
<g id="Node000006" class="node">
<title>Node6</title>
<g id="a_Node000006"><a xlink:href="GeometryUtils_8cpp.html" target="_top" xlink:title=" ">
<polygon fill="white" stroke="#666666" points="877.5,-24.5 721.5,-24.5 721.5,-5.5 877.5,-5.5 877.5,-24.5"/>
<text text-anchor="middle" x="799.5" y="-12.5" font-family="Helvetica,sans-Serif" font-size="10.00">core/utils/GeometryUtils.cpp</text>
</a>
</g>
</g>
<!-- Node1&#45;&gt;Node6 -->
<g id="edge5_Node000001_Node000006" class="edge">
<title>Node1&#45;&gt;Node6</title>
<g id="a_edge5_Node000001_Node000006"><a xlink:title=" ">
<path fill="none" stroke="#63b8ff" d="M517.47,-64.24C583.4,-52.96 688.13,-35.05 749.71,-24.52"/>
<polygon fill="#63b8ff" stroke="#63b8ff" points="516.5,-60.86 507.23,-65.99 517.68,-67.76 516.5,-60.86"/>
</a>
</g>
</g>
</g>
</svg>
