<?xml version="1.0" encoding="UTF-8" standalone="no"?>
<!DOCTYPE svg PUBLIC "-//W3C//DTD SVG 1.1//EN"
 "http://www.w3.org/Graphics/SVG/1.1/DTD/svg11.dtd">
<!-- Generated by graphviz version 2.43.0 (0)
 -->
<!-- Title: core/utils/GzipUtils.h Pages: 1 -->
<svg width="826pt" height="93pt"
 viewBox="0.00 0.00 826.00 93.00" xmlns="http://www.w3.org/2000/svg" xmlns:xlink="http://www.w3.org/1999/xlink">
<g id="graph0" class="graph" transform="scale(1 1) rotate(0) translate(4 89)">
<title>core/utils/GzipUtils.h</title>
<!-- Node1 -->
<g id="Node000001" class="node">
<title>Node1</title>
<g id="a_Node000001"><a xlink:title=" ">
<polygon fill="#999999" stroke="#666666" points="487,-85 369,-85 369,-66 487,-66 487,-85"/>
<text text-anchor="middle" x="428" y="-73" font-family="Helvetica,sans-Serif" font-size="10.00">core/utils/GzipUtils.h</text>
</a>
</g>
</g>
<!-- Node2 -->
<g id="Node000002" class="node">
<title>Node2</title>
<g id="a_Node000002"><a xlink:href="AsyncNetworkRequest_8cpp.html" target="_top" xlink:title=" ">
<polygon fill="white" stroke="#666666" points="154,-30 0,-30 0,0 154,0 154,-30"/>
<text text-anchor="start" x="8" y="-18" font-family="Helvetica,sans-Serif" font-size="10.00">core/network/AsyncNetwork</text>
<text text-anchor="middle" x="77" y="-7" font-family="Helvetica,sans-Serif" font-size="10.00">Request.cpp</text>
</a>
</g>
</g>
<!-- Node1&#45;&gt;Node2 -->
<g id="edge1_Node000001_Node000002" class="edge">
<title>Node1&#45;&gt;Node2</title>
<g id="a_edge1_Node000001_Node000002"><a xlink:title=" ">
<path fill="none" stroke="#63b8ff" d="M367.02,-64.34C307.92,-54.49 218.04,-39.51 154.02,-28.84"/>
<polygon fill="#63b8ff" stroke="#63b8ff" points="366.52,-67.8 376.96,-65.99 367.67,-60.9 366.52,-67.8"/>
</a>
</g>
</g>
<!-- Node3 -->
<g id="Node000003" class="node">
<title>Node3</title>
<g id="a_Node000003"><a xlink:href="NetworkClient_8cpp.html" target="_top" xlink:title=" ">
<polygon fill="white" stroke="#666666" points="345.5,-24.5 172.5,-24.5 172.5,-5.5 345.5,-5.5 345.5,-24.5"/>
<text text-anchor="middle" x="259" y="-12.5" font-family="Helvetica,sans-Serif" font-size="10.00">core/network/NetworkClient.cpp</text>
</a>
</g>
</g>
<!-- Node1&#45;&gt;Node3 -->
<g id="edge2_Node000001_Node000003" class="edge">
<title>Node1&#45;&gt;Node3</title>
<g id="a_edge2_Node000001_Node000003"><a xlink:title=" ">
<path fill="none" stroke="#63b8ff" d="M393.83,-62.67C361.14,-51.36 312.65,-34.57 283.6,-24.52"/>
<polygon fill="#63b8ff" stroke="#63b8ff" points="392.83,-66.03 403.43,-65.99 395.12,-59.41 392.83,-66.03"/>
</a>
</g>
</g>
<!-- Node4 -->
<g id="Node000004" class="node">
<title>Node4</title>
<g id="a_Node000004"><a xlink:href="GzipUtils_8cpp.html" target="_top" xlink:title=" ">
<polygon fill="white" stroke="#666666" points="492.5,-24.5 363.5,-24.5 363.5,-5.5 492.5,-5.5 492.5,-24.5"/>
<text text-anchor="middle" x="428" y="-12.5" font-family="Helvetica,sans-Serif" font-size="10.00">core/utils/GzipUtils.cpp</text>
</a>
</g>
</g>
<!-- Node1&#45;&gt;Node4 -->
<g id="edge3_Node000001_Node000004" class="edge">
<title>Node1&#45;&gt;Node4</title>
<g id="a_edge3_Node000001_Node000004"><a xlink:title=" ">
<path fill="none" stroke="#63b8ff" d="M428,-55.66C428,-45.24 428,-32.8 428,-24.67"/>
<polygon fill="#63b8ff" stroke="#63b8ff" points="424.5,-55.87 428,-65.87 431.5,-55.87 424.5,-55.87"/>
</a>
</g>
</g>
<!-- Node5 -->
<g id="Node000005" class="node">
<title>Node5</title>
<g id="a_Node000005"><a xlink:href="FetchWorker_8cpp.html" target="_top" xlink:title=" ">
<polygon fill="white" stroke="#666666" points="647.5,-24.5 510.5,-24.5 510.5,-5.5 647.5,-5.5 647.5,-24.5"/>
<text text-anchor="middle" x="579" y="-12.5" font-family="Helvetica,sans-Serif" font-size="10.00">workers/FetchWorker.cpp</text>
</a>
</g>
</g>
<!-- Node1&#45;&gt;Node5 -->
<g id="edge4_Node000001_Node000005" class="edge">
<title>Node1&#45;&gt;Node5</title>
<g id="a_edge4_Node000001_Node000005"><a xlink:title=" ">
<path fill="none" stroke="#63b8ff" d="M459.29,-62.38C488.48,-51.07 531.28,-34.49 557.02,-24.52"/>
<polygon fill="#63b8ff" stroke="#63b8ff" points="458.02,-59.12 449.96,-65.99 460.55,-65.64 458.02,-59.12"/>
</a>
</g>
</g>
<!-- Node6 -->
<g id="Node000006" class="node">
<title>Node6</title>
<g id="a_Node000006"><a xlink:href="NetworkWorker_8cpp.html" target="_top" xlink:title=" ">
<polygon fill="white" stroke="#666666" points="818,-24.5 666,-24.5 666,-5.5 818,-5.5 818,-24.5"/>
<text text-anchor="middle" x="742" y="-12.5" font-family="Helvetica,sans-Serif" font-size="10.00">workers/NetworkWorker.cpp</text>
</a>
</g>
</g>
<!-- Node1&#45;&gt;Node6 -->
<g id="edge5_Node000001_Node000006" class="edge">
<title>Node1&#45;&gt;Node6</title>
<g id="a_edge5_Node000001_Node000006"><a xlink:title=" ">
<path fill="none" stroke="#63b8ff" d="M483.81,-64.1C544.38,-52.82 639.98,-35.01 696.29,-24.52"/>
<polygon fill="#63b8ff" stroke="#63b8ff" points="482.85,-60.72 473.66,-65.99 484.13,-67.6 482.85,-60.72"/>
</a>
</g>
</g>
</g>
</svg>
