<?xml version="1.0" encoding="UTF-8" standalone="no"?>
<!DOCTYPE svg PUBLIC "-//W3C//DTD SVG 1.1//EN"
 "http://www.w3.org/Graphics/SVG/1.1/DTD/svg11.dtd">
<!-- Generated by graphviz version 2.43.0 (0)
 -->
<!-- Title: utils/logging/IAppender.h Pages: 1 -->
<svg width="1141pt" height="313pt"
 viewBox="0.00 0.00 1140.50 313.00" xmlns="http://www.w3.org/2000/svg" xmlns:xlink="http://www.w3.org/1999/xlink">
<g id="graph0" class="graph" transform="scale(1 1) rotate(0) translate(4 309)">
<title>utils/logging/IAppender.h</title>
<!-- Node1 -->
<g id="Node000001" class="node">
<title>Node1</title>
<g id="a_Node000001"><a xlink:title=" ">
<polygon fill="#999999" stroke="#666666" points="371,-305 234,-305 234,-286 371,-286 371,-305"/>
<text text-anchor="middle" x="302.5" y="-293" font-family="Helvetica,sans-Serif" font-size="10.00">utils/logging/IAppender.h</text>
</a>
</g>
</g>
<!-- Node2 -->
<g id="Node000002" class="node">
<title>Node2</title>
<g id="a_Node000002"><a xlink:href="ConsoleAppender_8h.html" target="_top" xlink:title=" ">
<polygon fill="white" stroke="#666666" points="222,-250 49,-250 49,-231 222,-231 222,-250"/>
<text text-anchor="middle" x="135.5" y="-238" font-family="Helvetica,sans-Serif" font-size="10.00">utils/logging/ConsoleAppender.h</text>
</a>
</g>
</g>
<!-- Node1&#45;&gt;Node2 -->
<g id="edge1_Node000001_Node000002" class="edge">
<title>Node1&#45;&gt;Node2</title>
<g id="a_edge1_Node000001_Node000002"><a xlink:title=" ">
<path fill="none" stroke="#63b8ff" d="M266.04,-282.93C234.84,-273.03 190.66,-259.01 162.54,-250.08"/>
<polygon fill="#63b8ff" stroke="#63b8ff" points="265.08,-286.3 275.67,-285.98 267.2,-279.62 265.08,-286.3"/>
</a>
</g>
</g>
<!-- Node4 -->
<g id="Node000004" class="node">
<title>Node4</title>
<g id="a_Node000004"><a xlink:href="Log_8h.html" target="_top" xlink:title="EasyKiConverter 日志系统统一入口">
<polygon fill="white" stroke="#666666" points="360.5,-74 254.5,-74 254.5,-55 360.5,-55 360.5,-74"/>
<text text-anchor="middle" x="307.5" y="-62" font-family="Helvetica,sans-Serif" font-size="10.00">utils/logging/Log.h</text>
</a>
</g>
</g>
<!-- Node1&#45;&gt;Node4 -->
<g id="edge8_Node000001_Node000004" class="edge">
<title>Node1&#45;&gt;Node4</title>
<g id="a_edge8_Node000001_Node000004"><a xlink:title=" ">
<path fill="none" stroke="#63b8ff" d="M286.58,-278.34C279.93,-270.47 272.96,-260.46 269.5,-250 247.75,-184.17 288.08,-100.84 302.59,-74.14"/>
<polygon fill="#63b8ff" stroke="#63b8ff" points="284.17,-280.9 293.48,-285.96 289.36,-276.2 284.17,-280.9"/>
</a>
</g>
</g>
<!-- Node6 -->
<g id="Node000006" class="node">
<title>Node6</title>
<g id="a_Node000006"><a xlink:href="FileAppender_8h.html" target="_top" xlink:title=" ">
<polygon fill="white" stroke="#666666" points="430.5,-250 278.5,-250 278.5,-231 430.5,-231 430.5,-250"/>
<text text-anchor="middle" x="354.5" y="-238" font-family="Helvetica,sans-Serif" font-size="10.00">utils/logging/FileAppender.h</text>
</a>
</g>
</g>
<!-- Node1&#45;&gt;Node6 -->
<g id="edge5_Node000001_Node000006" class="edge">
<title>Node1&#45;&gt;Node6</title>
<g id="a_edge5_Node000001_Node000006"><a xlink:title=" ">
<path fill="none" stroke="#63b8ff" d="M318.18,-278.52C327.34,-269.18 338.55,-257.75 346.07,-250.09"/>
<polygon fill="#63b8ff" stroke="#63b8ff" points="315.59,-276.16 311.09,-285.75 320.59,-281.06 315.59,-276.16"/>
</a>
</g>
</g>
<!-- Node8 -->
<g id="Node000008" class="node">
<title>Node8</title>
<g id="a_Node000008"><a xlink:href="Logger_8h.html" target="_top" xlink:title=" ">
<polygon fill="white" stroke="#666666" points="710,-250 589,-250 589,-231 710,-231 710,-250"/>
<text text-anchor="middle" x="649.5" y="-238" font-family="Helvetica,sans-Serif" font-size="10.00">utils/logging/Logger.h</text>
</a>
</g>
</g>
<!-- Node1&#45;&gt;Node8 -->
<g id="edge9_Node000001_Node000008" class="edge">
<title>Node1&#45;&gt;Node8</title>
<g id="a_edge9_Node000001_Node000008"><a xlink:title=" ">
<path fill="none" stroke="#63b8ff" d="M368.41,-284.43C433.57,-274.48 532.16,-259.42 593.6,-250.04"/>
<polygon fill="#63b8ff" stroke="#63b8ff" points="367.61,-281.01 358.25,-285.98 368.67,-287.93 367.61,-281.01"/>
</a>
</g>
</g>
<!-- Node3 -->
<g id="Node000003" class="node">
<title>Node3</title>
<g id="a_Node000003"><a xlink:href="ConsoleAppender_8cpp.html" target="_top" xlink:title=" ">
<polygon fill="white" stroke="#666666" points="185,-195 0,-195 0,-176 185,-176 185,-195"/>
<text text-anchor="middle" x="92.5" y="-183" font-family="Helvetica,sans-Serif" font-size="10.00">utils/logging/ConsoleAppender.cpp</text>
</a>
</g>
</g>
<!-- Node2&#45;&gt;Node3 -->
<g id="edge2_Node000002_Node000003" class="edge">
<title>Node2&#45;&gt;Node3</title>
<g id="a_edge2_Node000002_Node000003"><a xlink:title=" ">
<path fill="none" stroke="#63b8ff" d="M122.08,-222.96C114.59,-213.72 105.56,-202.6 99.47,-195.09"/>
<polygon fill="#63b8ff" stroke="#63b8ff" points="119.38,-225.19 128.4,-230.75 124.82,-220.78 119.38,-225.19"/>
</a>
</g>
</g>
<!-- Node2&#45;&gt;Node4 -->
<g id="edge3_Node000002_Node000004" class="edge">
<title>Node2&#45;&gt;Node4</title>
<g id="a_edge3_Node000002_Node000004"><a xlink:title=" ">
<path fill="none" stroke="#63b8ff" d="M159,-225.08C170.44,-217.22 183.78,-206.72 193.5,-195 220.53,-162.41 207.96,-141.27 236.5,-110 251.01,-94.1 272.47,-81.71 288,-74.09"/>
<polygon fill="#63b8ff" stroke="#63b8ff" points="156.77,-222.36 150.34,-230.79 160.62,-228.21 156.77,-222.36"/>
</a>
</g>
</g>
<!-- Node5 -->
<g id="Node000005" class="node">
<title>Node5</title>
<g id="a_Node000005"><a xlink:href="main_8cpp.html" target="_top" xlink:title=" ">
<polygon fill="white" stroke="#666666" points="338.5,-19 276.5,-19 276.5,0 338.5,0 338.5,-19"/>
<text text-anchor="middle" x="307.5" y="-7" font-family="Helvetica,sans-Serif" font-size="10.00">main.cpp</text>
</a>
</g>
</g>
<!-- Node4&#45;&gt;Node5 -->
<g id="edge4_Node000004_Node000005" class="edge">
<title>Node4&#45;&gt;Node5</title>
<g id="a_edge4_Node000004_Node000005"><a xlink:title=" ">
<path fill="none" stroke="#63b8ff" d="M307.5,-44.66C307.5,-35.93 307.5,-25.99 307.5,-19.09"/>
<polygon fill="#63b8ff" stroke="#63b8ff" points="304,-44.75 307.5,-54.75 311,-44.75 304,-44.75"/>
</a>
</g>
</g>
<!-- Node6&#45;&gt;Node4 -->
<g id="edge7_Node000006_Node000004" class="edge">
<title>Node6&#45;&gt;Node4</title>
<g id="a_edge7_Node000006_Node000004"><a xlink:title=" ">
<path fill="none" stroke="#63b8ff" d="M332.33,-224.88C322.79,-217.24 312.65,-206.97 307.5,-195 289.37,-152.87 300.14,-95.65 305.26,-74.14"/>
<polygon fill="#63b8ff" stroke="#63b8ff" points="330.31,-227.74 340.43,-230.89 334.49,-222.12 330.31,-227.74"/>
</a>
</g>
</g>
<!-- Node7 -->
<g id="Node000007" class="node">
<title>Node7</title>
<g id="a_Node000007"><a xlink:href="FileAppender_8cpp.html" target="_top" xlink:title=" ">
<polygon fill="white" stroke="#666666" points="480,-195 317,-195 317,-176 480,-176 480,-195"/>
<text text-anchor="middle" x="398.5" y="-183" font-family="Helvetica,sans-Serif" font-size="10.00">utils/logging/FileAppender.cpp</text>
</a>
</g>
</g>
<!-- Node6&#45;&gt;Node7 -->
<g id="edge6_Node000006_Node000007" class="edge">
<title>Node6&#45;&gt;Node7</title>
<g id="a_edge6_Node000006_Node000007"><a xlink:title=" ">
<path fill="none" stroke="#63b8ff" d="M368.23,-222.96C375.9,-213.72 385.13,-202.6 391.37,-195.09"/>
<polygon fill="#63b8ff" stroke="#63b8ff" points="365.46,-220.82 361.77,-230.75 370.85,-225.29 365.46,-220.82"/>
</a>
</g>
</g>
<!-- Node8&#45;&gt;Node4 -->
<g id="edge10_Node000008_Node000004" class="edge">
<title>Node8&#45;&gt;Node4</title>
<g id="a_edge10_Node000008_Node000004"><a xlink:title=" ">
<path fill="none" stroke="#63b8ff" d="M620.59,-226.61C588.88,-212.81 536.27,-190.89 489.5,-176 424.99,-155.46 393.68,-183.12 341.5,-140 320.57,-122.7 311.94,-89.74 308.91,-74.12"/>
<polygon fill="#63b8ff" stroke="#63b8ff" points="619.55,-229.98 630.11,-230.79 622.36,-223.57 619.55,-229.98"/>
</a>
</g>
</g>
<!-- Node9 -->
<g id="Node000009" class="node">
<title>Node9</title>
<g id="a_Node000009"><a xlink:href="LogMacros_8h.html" target="_top" xlink:title=" ">
<polygon fill="white" stroke="#666666" points="720,-195 579,-195 579,-176 720,-176 720,-195"/>
<text text-anchor="middle" x="649.5" y="-183" font-family="Helvetica,sans-Serif" font-size="10.00">utils/logging/LogMacros.h</text>
</a>
</g>
</g>
<!-- Node8&#45;&gt;Node9 -->
<g id="edge11_Node000008_Node000009" class="edge">
<title>Node8&#45;&gt;Node9</title>
<g id="a_edge11_Node000008_Node000009"><a xlink:title=" ">
<path fill="none" stroke="#63b8ff" d="M649.5,-220.66C649.5,-211.93 649.5,-201.99 649.5,-195.09"/>
<polygon fill="#63b8ff" stroke="#63b8ff" points="646,-220.75 649.5,-230.75 653,-220.75 646,-220.75"/>
</a>
</g>
</g>
<!-- Node13 -->
<g id="Node000013" class="node">
<title>Node13</title>
<g id="a_Node000013"><a xlink:href="QtLogAdapter_8h.html" target="_top" xlink:title=" ">
<polygon fill="white" stroke="#666666" points="1127,-134.5 972,-134.5 972,-115.5 1127,-115.5 1127,-134.5"/>
<text text-anchor="middle" x="1049.5" y="-122.5" font-family="Helvetica,sans-Serif" font-size="10.00">utils/logging/QtLogAdapter.h</text>
</a>
</g>
</g>
<!-- Node8&#45;&gt;Node13 -->
<g id="edge20_Node000008_Node000013" class="edge">
<title>Node8&#45;&gt;Node13</title>
<g id="a_edge20_Node000008_Node000013"><a xlink:title=" ">
<path fill="none" stroke="#63b8ff" d="M674.14,-225.7C705.79,-208.05 757.84,-179.36 767.5,-176 788.72,-168.62 920.56,-146.74 996.23,-134.51"/>
<polygon fill="#63b8ff" stroke="#63b8ff" points="672.06,-222.85 665.04,-230.78 675.47,-228.96 672.06,-222.85"/>
</a>
</g>
</g>
<!-- Node15 -->
<g id="Node000015" class="node">
<title>Node15</title>
<g id="a_Node000015"><a xlink:href="Logger_8cpp.html" target="_top" xlink:title=" ">
<polygon fill="white" stroke="#666666" points="908.5,-195 776.5,-195 776.5,-176 908.5,-176 908.5,-195"/>
<text text-anchor="middle" x="842.5" y="-183" font-family="Helvetica,sans-Serif" font-size="10.00">utils/logging/Logger.cpp</text>
</a>
</g>
</g>
<!-- Node8&#45;&gt;Node15 -->
<g id="edge19_Node000008_Node000015" class="edge">
<title>Node8&#45;&gt;Node15</title>
<g id="a_edge19_Node000008_Node000015"><a xlink:title=" ">
<path fill="none" stroke="#63b8ff" d="M690.25,-228.31C726.36,-218.39 778.33,-204.12 811.25,-195.08"/>
<polygon fill="#63b8ff" stroke="#63b8ff" points="689.22,-224.96 680.51,-230.98 691.08,-231.71 689.22,-224.96"/>
</a>
</g>
</g>
<!-- Node9&#45;&gt;Node4 -->
<g id="edge15_Node000009_Node000004" class="edge">
<title>Node9&#45;&gt;Node4</title>
<g id="a_edge15_Node000009_Node000004"><a xlink:title=" ">
<path fill="none" stroke="#63b8ff" d="M568.81,-176.27C503.03,-168.59 416.04,-155.93 384.5,-140 352.62,-123.9 325.25,-90.04 313.55,-74.12"/>
<polygon fill="#63b8ff" stroke="#63b8ff" points="568.43,-179.75 578.77,-177.41 569.23,-172.79 568.43,-179.75"/>
</a>
</g>
</g>
<!-- Node10 -->
<g id="Node000010" class="node">
<title>Node10</title>
<g id="a_Node000010"><a xlink:href="ComponentCacheService_8cpp.html" target="_top" xlink:title=" ">
<polygon fill="white" stroke="#666666" points="596,-134.5 393,-134.5 393,-115.5 596,-115.5 596,-134.5"/>
<text text-anchor="middle" x="494.5" y="-122.5" font-family="Helvetica,sans-Serif" font-size="10.00">services/ComponentCacheService.cpp</text>
</a>
</g>
</g>
<!-- Node9&#45;&gt;Node10 -->
<g id="edge12_Node000009_Node000010" class="edge">
<title>Node9&#45;&gt;Node10</title>
<g id="a_edge12_Node000009_Node000010"><a xlink:title=" ">
<path fill="none" stroke="#63b8ff" d="M617.38,-172.38C587.42,-161.07 543.48,-144.49 517.07,-134.52"/>
<polygon fill="#63b8ff" stroke="#63b8ff" points="616.37,-175.74 626.96,-175.99 618.84,-169.19 616.37,-175.74"/>
</a>
</g>
</g>
<!-- Node11 -->
<g id="Node000011" class="node">
<title>Node11</title>
<g id="a_Node000011"><a xlink:href="ExportReportGenerator_8cpp.html" target="_top" xlink:title=" ">
<polygon fill="white" stroke="#666666" points="771.5,-140 613.5,-140 613.5,-110 771.5,-110 771.5,-140"/>
<text text-anchor="start" x="621.5" y="-128" font-family="Helvetica,sans-Serif" font-size="10.00">services/export/ExportReport</text>
<text text-anchor="middle" x="692.5" y="-117" font-family="Helvetica,sans-Serif" font-size="10.00">Generator.cpp</text>
</a>
</g>
</g>
<!-- Node9&#45;&gt;Node11 -->
<g id="edge13_Node000009_Node000011" class="edge">
<title>Node9&#45;&gt;Node11</title>
<g id="a_edge13_Node000009_Node000011"><a xlink:title=" ">
<path fill="none" stroke="#63b8ff" d="M661.92,-167.61C668.32,-158.89 676.04,-148.39 682.13,-140.11"/>
<polygon fill="#63b8ff" stroke="#63b8ff" points="658.95,-165.74 655.84,-175.87 664.59,-169.88 658.95,-165.74"/>
</a>
</g>
</g>
<!-- Node12 -->
<g id="Node000012" class="node">
<title>Node12</title>
<g id="a_Node000012"><a xlink:href="ExportProgressViewModel_8cpp.html" target="_top" xlink:title=" ">
<polygon fill="white" stroke="#666666" points="953.5,-140 789.5,-140 789.5,-110 953.5,-110 953.5,-140"/>
<text text-anchor="start" x="797.5" y="-128" font-family="Helvetica,sans-Serif" font-size="10.00">ui/viewmodels/ExportProgress</text>
<text text-anchor="middle" x="871.5" y="-117" font-family="Helvetica,sans-Serif" font-size="10.00">ViewModel.cpp</text>
</a>
</g>
</g>
<!-- Node9&#45;&gt;Node12 -->
<g id="edge14_Node000009_Node000012" class="edge">
<title>Node9&#45;&gt;Node12</title>
<g id="a_edge14_Node000009_Node000012"><a xlink:title=" ">
<path fill="none" stroke="#63b8ff" d="M691.46,-173.44C727.37,-163.98 779.27,-150.3 818.13,-140.06"/>
<polygon fill="#63b8ff" stroke="#63b8ff" points="690.56,-170.06 681.78,-175.99 692.34,-176.83 690.56,-170.06"/>
</a>
</g>
</g>
<!-- Node9&#45;&gt;Node13 -->
<g id="edge16_Node000009_Node000013" class="edge">
<title>Node9&#45;&gt;Node13</title>
<g id="a_edge16_Node000009_Node000013"><a xlink:title=" ">
<path fill="none" stroke="#63b8ff" d="M721.82,-174.6C785.29,-165.82 880.08,-152.49 962.5,-140 973.84,-138.28 986.01,-136.37 997.54,-134.52"/>
<polygon fill="#63b8ff" stroke="#63b8ff" points="721.33,-171.14 711.9,-175.97 722.29,-178.07 721.33,-171.14"/>
</a>
</g>
</g>
<!-- Node13&#45;&gt;Node4 -->
<g id="edge17_Node000013_Node000004" class="edge">
<title>Node13&#45;&gt;Node4</title>
<g id="a_edge17_Node000013_Node000004"><a xlink:title=" ">
<path fill="none" stroke="#63b8ff" d="M991.39,-113.89C981.76,-112.43 971.86,-111.07 962.5,-110 739.7,-84.56 472.47,-71.94 360.71,-67.46"/>
<polygon fill="#63b8ff" stroke="#63b8ff" points="990.87,-117.35 1001.29,-115.43 991.95,-110.44 990.87,-117.35"/>
</a>
</g>
</g>
<!-- Node14 -->
<g id="Node000014" class="node">
<title>Node14</title>
<g id="a_Node000014"><a xlink:href="QtLogAdapter_8cpp.html" target="_top" xlink:title=" ">
<polygon fill="white" stroke="#666666" points="1132.5,-74 966.5,-74 966.5,-55 1132.5,-55 1132.5,-74"/>
<text text-anchor="middle" x="1049.5" y="-62" font-family="Helvetica,sans-Serif" font-size="10.00">utils/logging/QtLogAdapter.cpp</text>
</a>
</g>
</g>
<!-- Node13&#45;&gt;Node14 -->
<g id="edge18_Node000013_Node000014" class="edge">
<title>Node13&#45;&gt;Node14</title>
<g id="a_edge18_Node000013_Node000014"><a xlink:title=" ">
<path fill="none" stroke="#63b8ff" d="M1049.5,-105.16C1049.5,-94.74 1049.5,-82.3 1049.5,-74.17"/>
<polygon fill="#63b8ff" stroke="#63b8ff" points="1046,-105.37 1049.5,-115.37 1053,-105.37 1046,-105.37"/>
</a>
</g>
</g>
</g>
</svg>
