<?xml version="1.0" encoding="UTF-8" standalone="no"?>
<!DOCTYPE svg PUBLIC "-//W3C//DTD SVG 1.1//EN"
 "http://www.w3.org/Graphics/SVG/1.1/DTD/svg11.dtd">
<!-- Generated by graphviz version 2.43.0 (0)
 -->
<!-- Title: utils/logging/IAppender.h Pages: 1 -->
<svg width="877pt" height="313pt"
 viewBox="0.00 0.00 876.50 313.00" xmlns="http://www.w3.org/2000/svg" xmlns:xlink="http://www.w3.org/1999/xlink">
<g id="graph0" class="graph" transform="scale(1 1) rotate(0) translate(4 309)">
<title>utils/logging/IAppender.h</title>
<!-- Node1 -->
<g id="Node000001" class="node">
<title>Node1</title>
<g id="a_Node000001"><a xlink:title=" ">
<polygon fill="#999999" stroke="#666666" points="371,-305 234,-305 234,-286 371,-286 371,-305"/>
<text text-anchor="middle" x="302.5" y="-293" font-family="Helvetica,sans-Serif" font-size="10.00">utils/logging/IAppender.h</text>
</a>
</g>
</g>
<!-- Node2 -->
<g id="Node000002" class="node">
<title>Node2</title>
<g id="a_Node000002"><a xlink:href="ConsoleAppender_8h.html" target="_top" xlink:title=" ">
<polygon fill="white" stroke="#666666" points="222,-250 49,-250 49,-231 222,-231 222,-250"/>
<text text-anchor="middle" x="135.5" y="-238" font-family="Helvetica,sans-Serif" font-size="10.00">utils/logging/ConsoleAppender.h</text>
</a>
</g>
</g>
<!-- Node1&#45;&gt;Node2 -->
<g id="edge1_Node000001_Node000002" class="edge">
<title>Node1&#45;&gt;Node2</title>
<g id="a_edge1_Node000001_Node000002"><a xlink:title=" ">
<path fill="none" stroke="#63b8ff" d="M266.04,-282.93C234.84,-273.03 190.66,-259.01 162.54,-250.08"/>
<polygon fill="#63b8ff" stroke="#63b8ff" points="265.08,-286.3 275.67,-285.98 267.2,-279.62 265.08,-286.3"/>
</a>
</g>
</g>
<!-- Node4 -->
<g id="Node000004" class="node">
<title>Node4</title>
<g id="a_Node000004"><a xlink:href="Log_8h.html" target="_top" xlink:title="EasyKiConverter 日志系统统一入口">
<polygon fill="white" stroke="#666666" points="427.5,-74 321.5,-74 321.5,-55 427.5,-55 427.5,-74"/>
<text text-anchor="middle" x="374.5" y="-62" font-family="Helvetica,sans-Serif" font-size="10.00">utils/logging/Log.h</text>
</a>
</g>
</g>
<!-- Node1&#45;&gt;Node4 -->
<g id="edge8_Node000001_Node000004" class="edge">
<title>Node1&#45;&gt;Node4</title>
<g id="a_edge8_Node000001_Node000004"><a xlink:title=" ">
<path fill="none" stroke="#63b8ff" d="M286.58,-278.34C279.93,-270.47 272.96,-260.46 269.5,-250 266.85,-241.98 267.86,-239.28 269.5,-231 280.83,-173.92 284.69,-156.63 319.5,-110 330.67,-95.04 347.96,-82.16 360.17,-74.16"/>
<polygon fill="#63b8ff" stroke="#63b8ff" points="284.17,-280.9 293.48,-285.96 289.36,-276.2 284.17,-280.9"/>
</a>
</g>
</g>
<!-- Node6 -->
<g id="Node000006" class="node">
<title>Node6</title>
<g id="a_Node000006"><a xlink:href="FileAppender_8h.html" target="_top" xlink:title=" ">
<polygon fill="white" stroke="#666666" points="430.5,-250 278.5,-250 278.5,-231 430.5,-231 430.5,-250"/>
<text text-anchor="middle" x="354.5" y="-238" font-family="Helvetica,sans-Serif" font-size="10.00">utils/logging/FileAppender.h</text>
</a>
</g>
</g>
<!-- Node1&#45;&gt;Node6 -->
<g id="edge5_Node000001_Node000006" class="edge">
<title>Node1&#45;&gt;Node6</title>
<g id="a_edge5_Node000001_Node000006"><a xlink:title=" ">
<path fill="none" stroke="#63b8ff" d="M318.18,-278.52C327.34,-269.18 338.55,-257.75 346.07,-250.09"/>
<polygon fill="#63b8ff" stroke="#63b8ff" points="315.59,-276.16 311.09,-285.75 320.59,-281.06 315.59,-276.16"/>
</a>
</g>
</g>
<!-- Node8 -->
<g id="Node000008" class="node">
<title>Node8</title>
<g id="a_Node000008"><a xlink:href="Logger_8h.html" target="_top" xlink:title=" ">
<polygon fill="white" stroke="#666666" points="668,-250 547,-250 547,-231 668,-231 668,-250"/>
<text text-anchor="middle" x="607.5" y="-238" font-family="Helvetica,sans-Serif" font-size="10.00">utils/logging/Logger.h</text>
</a>
</g>
</g>
<!-- Node1&#45;&gt;Node8 -->
<g id="edge9_Node000001_Node000008" class="edge">
<title>Node1&#45;&gt;Node8</title>
<g id="a_edge9_Node000001_Node000008"><a xlink:title=" ">
<path fill="none" stroke="#63b8ff" d="M361.5,-284.25C418.77,-274.3 504.7,-259.36 558.37,-250.04"/>
<polygon fill="#63b8ff" stroke="#63b8ff" points="360.76,-280.82 351.5,-285.98 361.96,-287.72 360.76,-280.82"/>
</a>
</g>
</g>
<!-- Node3 -->
<g id="Node000003" class="node">
<title>Node3</title>
<g id="a_Node000003"><a xlink:href="ConsoleAppender_8cpp.html" target="_top" xlink:title=" ">
<polygon fill="white" stroke="#666666" points="185,-195 0,-195 0,-176 185,-176 185,-195"/>
<text text-anchor="middle" x="92.5" y="-183" font-family="Helvetica,sans-Serif" font-size="10.00">utils/logging/ConsoleAppender.cpp</text>
</a>
</g>
</g>
<!-- Node2&#45;&gt;Node3 -->
<g id="edge2_Node000002_Node000003" class="edge">
<title>Node2&#45;&gt;Node3</title>
<g id="a_edge2_Node000002_Node000003"><a xlink:title=" ">
<path fill="none" stroke="#63b8ff" d="M122.08,-222.96C114.59,-213.72 105.56,-202.6 99.47,-195.09"/>
<polygon fill="#63b8ff" stroke="#63b8ff" points="119.38,-225.19 128.4,-230.75 124.82,-220.78 119.38,-225.19"/>
</a>
</g>
</g>
<!-- Node2&#45;&gt;Node4 -->
<g id="edge3_Node000002_Node000004" class="edge">
<title>Node2&#45;&gt;Node4</title>
<g id="a_edge3_Node000002_Node000004"><a xlink:title=" ">
<path fill="none" stroke="#63b8ff" d="M159,-225.08C170.44,-217.22 183.78,-206.72 193.5,-195 220.53,-162.41 204.32,-137.51 236.5,-110 260.23,-89.72 293.35,-78.65 321.19,-72.62"/>
<polygon fill="#63b8ff" stroke="#63b8ff" points="156.77,-222.36 150.34,-230.79 160.62,-228.21 156.77,-222.36"/>
</a>
</g>
</g>
<!-- Node5 -->
<g id="Node000005" class="node">
<title>Node5</title>
<g id="a_Node000005"><a xlink:href="main_8cpp.html" target="_top" xlink:title=" ">
<polygon fill="white" stroke="#666666" points="405.5,-19 343.5,-19 343.5,0 405.5,0 405.5,-19"/>
<text text-anchor="middle" x="374.5" y="-7" font-family="Helvetica,sans-Serif" font-size="10.00">main.cpp</text>
</a>
</g>
</g>
<!-- Node4&#45;&gt;Node5 -->
<g id="edge4_Node000004_Node000005" class="edge">
<title>Node4&#45;&gt;Node5</title>
<g id="a_edge4_Node000004_Node000005"><a xlink:title=" ">
<path fill="none" stroke="#63b8ff" d="M374.5,-44.66C374.5,-35.93 374.5,-25.99 374.5,-19.09"/>
<polygon fill="#63b8ff" stroke="#63b8ff" points="371,-44.75 374.5,-54.75 378,-44.75 371,-44.75"/>
</a>
</g>
</g>
<!-- Node6&#45;&gt;Node4 -->
<g id="edge7_Node000006_Node000004" class="edge">
<title>Node6&#45;&gt;Node4</title>
<g id="a_edge7_Node000006_Node000004"><a xlink:title=" ">
<path fill="none" stroke="#63b8ff" d="M332.33,-224.88C322.79,-217.24 312.65,-206.97 307.5,-195 304.16,-187.24 305.23,-184.13 307.5,-176 319.28,-133.87 351.99,-91.81 366.91,-74.16"/>
<polygon fill="#63b8ff" stroke="#63b8ff" points="330.31,-227.74 340.43,-230.89 334.49,-222.12 330.31,-227.74"/>
</a>
</g>
</g>
<!-- Node7 -->
<g id="Node000007" class="node">
<title>Node7</title>
<g id="a_Node000007"><a xlink:href="FileAppender_8cpp.html" target="_top" xlink:title=" ">
<polygon fill="white" stroke="#666666" points="480,-195 317,-195 317,-176 480,-176 480,-195"/>
<text text-anchor="middle" x="398.5" y="-183" font-family="Helvetica,sans-Serif" font-size="10.00">utils/logging/FileAppender.cpp</text>
</a>
</g>
</g>
<!-- Node6&#45;&gt;Node7 -->
<g id="edge6_Node000006_Node000007" class="edge">
<title>Node6&#45;&gt;Node7</title>
<g id="a_edge6_Node000006_Node000007"><a xlink:title=" ">
<path fill="none" stroke="#63b8ff" d="M368.23,-222.96C375.9,-213.72 385.13,-202.6 391.37,-195.09"/>
<polygon fill="#63b8ff" stroke="#63b8ff" points="365.46,-220.82 361.77,-230.75 370.85,-225.29 365.46,-220.82"/>
</a>
</g>
</g>
<!-- Node8&#45;&gt;Node4 -->
<g id="edge10_Node000008_Node000004" class="edge">
<title>Node8&#45;&gt;Node4</title>
<g id="a_edge10_Node000008_Node000004"><a xlink:title=" ">
<path fill="none" stroke="#63b8ff" d="M581.15,-226.25C565.43,-217.95 545.32,-206.66 528.5,-195 469.64,-154.21 406.3,-95.7 383.39,-74.01"/>
<polygon fill="#63b8ff" stroke="#63b8ff" points="579.82,-229.5 590.31,-231 583.04,-223.28 579.82,-229.5"/>
</a>
</g>
</g>
<!-- Node9 -->
<g id="Node000009" class="node">
<title>Node9</title>
<g id="a_Node000009"><a xlink:href="LogMacros_8h.html" target="_top" xlink:title=" ">
<polygon fill="white" stroke="#666666" points="678,-195 537,-195 537,-176 678,-176 678,-195"/>
<text text-anchor="middle" x="607.5" y="-183" font-family="Helvetica,sans-Serif" font-size="10.00">utils/logging/LogMacros.h</text>
</a>
</g>
</g>
<!-- Node8&#45;&gt;Node9 -->
<g id="edge11_Node000008_Node000009" class="edge">
<title>Node8&#45;&gt;Node9</title>
<g id="a_edge11_Node000008_Node000009"><a xlink:title=" ">
<path fill="none" stroke="#63b8ff" d="M607.5,-220.66C607.5,-211.93 607.5,-201.99 607.5,-195.09"/>
<polygon fill="#63b8ff" stroke="#63b8ff" points="604,-220.75 607.5,-230.75 611,-220.75 604,-220.75"/>
</a>
</g>
</g>
<!-- Node11 -->
<g id="Node000011" class="node">
<title>Node11</title>
<g id="a_Node000011"><a xlink:href="QtLogAdapter_8h.html" target="_top" xlink:title=" ">
<polygon fill="white" stroke="#666666" points="863,-134.5 708,-134.5 708,-115.5 863,-115.5 863,-134.5"/>
<text text-anchor="middle" x="785.5" y="-122.5" font-family="Helvetica,sans-Serif" font-size="10.00">utils/logging/QtLogAdapter.h</text>
</a>
</g>
</g>
<!-- Node8&#45;&gt;Node11 -->
<g id="edge18_Node000008_Node000011" class="edge">
<title>Node8&#45;&gt;Node11</title>
<g id="a_edge18_Node000008_Node000011"><a xlink:title=" ">
<path fill="none" stroke="#63b8ff" d="M633.24,-226.08C649.12,-217.58 669.78,-206.13 687.5,-195 719.75,-174.76 755.97,-148.2 774.01,-134.69"/>
<polygon fill="#63b8ff" stroke="#63b8ff" points="631.23,-223.18 624.03,-230.96 634.51,-229.37 631.23,-223.18"/>
</a>
</g>
</g>
<!-- Node13 -->
<g id="Node000013" class="node">
<title>Node13</title>
<g id="a_Node000013"><a xlink:href="Logger_8cpp.html" target="_top" xlink:title=" ">
<polygon fill="white" stroke="#666666" points="866.5,-195 734.5,-195 734.5,-176 866.5,-176 866.5,-195"/>
<text text-anchor="middle" x="800.5" y="-183" font-family="Helvetica,sans-Serif" font-size="10.00">utils/logging/Logger.cpp</text>
</a>
</g>
</g>
<!-- Node8&#45;&gt;Node13 -->
<g id="edge17_Node000008_Node000013" class="edge">
<title>Node8&#45;&gt;Node13</title>
<g id="a_edge17_Node000008_Node000013"><a xlink:title=" ">
<path fill="none" stroke="#63b8ff" d="M648.25,-228.31C684.36,-218.39 736.33,-204.12 769.25,-195.08"/>
<polygon fill="#63b8ff" stroke="#63b8ff" points="647.22,-224.96 638.51,-230.98 649.08,-231.71 647.22,-224.96"/>
</a>
</g>
</g>
<!-- Node9&#45;&gt;Node4 -->
<g id="edge13_Node000009_Node000004" class="edge">
<title>Node9&#45;&gt;Node4</title>
<g id="a_edge13_Node000009_Node000004"><a xlink:title=" ">
<path fill="none" stroke="#63b8ff" d="M578.66,-171.79C560.46,-163.43 536.67,-151.87 516.5,-140 496.42,-128.18 493.77,-121.49 473.5,-110 448.09,-95.59 417.16,-82.32 396.71,-74.09"/>
<polygon fill="#63b8ff" stroke="#63b8ff" points="577.32,-175.02 587.87,-175.97 580.21,-168.65 577.32,-175.02"/>
</a>
</g>
</g>
<!-- Node10 -->
<g id="Node000010" class="node">
<title>Node10</title>
<g id="a_Node000010"><a xlink:href="ExportProgressViewModel_8cpp.html" target="_top" xlink:title=" ">
<polygon fill="white" stroke="#666666" points="689.5,-140 525.5,-140 525.5,-110 689.5,-110 689.5,-140"/>
<text text-anchor="start" x="533.5" y="-128" font-family="Helvetica,sans-Serif" font-size="10.00">ui/viewmodels/ExportProgress</text>
<text text-anchor="middle" x="607.5" y="-117" font-family="Helvetica,sans-Serif" font-size="10.00">ViewModel.cpp</text>
</a>
</g>
</g>
<!-- Node9&#45;&gt;Node10 -->
<g id="edge12_Node000009_Node000010" class="edge">
<title>Node9&#45;&gt;Node10</title>
<g id="a_edge12_Node000009_Node000010"><a xlink:title=" ">
<path fill="none" stroke="#63b8ff" d="M607.5,-165.65C607.5,-157.36 607.5,-147.78 607.5,-140.11"/>
<polygon fill="#63b8ff" stroke="#63b8ff" points="604,-165.87 607.5,-175.87 611,-165.87 604,-165.87"/>
</a>
</g>
</g>
<!-- Node9&#45;&gt;Node11 -->
<g id="edge14_Node000009_Node000011" class="edge">
<title>Node9&#45;&gt;Node11</title>
<g id="a_edge14_Node000009_Node000011"><a xlink:title=" ">
<path fill="none" stroke="#63b8ff" d="M643.05,-172.82C677.48,-161.5 728.86,-144.62 759.59,-134.52"/>
<polygon fill="#63b8ff" stroke="#63b8ff" points="641.79,-169.55 633.38,-175.99 643.98,-176.2 641.79,-169.55"/>
</a>
</g>
</g>
<!-- Node11&#45;&gt;Node4 -->
<g id="edge15_Node000011_Node000004" class="edge">
<title>Node11&#45;&gt;Node4</title>
<g id="a_edge15_Node000011_Node000004"><a xlink:title=" ">
<path fill="none" stroke="#63b8ff" d="M723.42,-113.83C715.05,-112.51 706.57,-111.2 698.5,-110 603.17,-95.79 491.81,-80.86 427.59,-72.41"/>
<polygon fill="#63b8ff" stroke="#63b8ff" points="723.12,-117.33 733.55,-115.44 724.22,-110.41 723.12,-117.33"/>
</a>
</g>
</g>
<!-- Node12 -->
<g id="Node000012" class="node">
<title>Node12</title>
<g id="a_Node000012"><a xlink:href="QtLogAdapter_8cpp.html" target="_top" xlink:title=" ">
<polygon fill="white" stroke="#666666" points="868.5,-74 702.5,-74 702.5,-55 868.5,-55 868.5,-74"/>
<text text-anchor="middle" x="785.5" y="-62" font-family="Helvetica,sans-Serif" font-size="10.00">utils/logging/QtLogAdapter.cpp</text>
</a>
</g>
</g>
<!-- Node11&#45;&gt;Node12 -->
<g id="edge16_Node000011_Node000012" class="edge">
<title>Node11&#45;&gt;Node12</title>
<g id="a_edge16_Node000011_Node000012"><a xlink:title=" ">
<path fill="none" stroke="#63b8ff" d="M785.5,-105.16C785.5,-94.74 785.5,-82.3 785.5,-74.17"/>
<polygon fill="#63b8ff" stroke="#63b8ff" points="782,-105.37 785.5,-115.37 789,-105.37 782,-105.37"/>
</a>
</g>
</g>
</g>
</svg>
