<?xml version="1.0" encoding="UTF-8" standalone="no"?>
<!DOCTYPE svg PUBLIC "-//W3C//DTD SVG 1.1//EN"
 "http://www.w3.org/Graphics/SVG/1.1/DTD/svg11.dtd">
<!-- Generated by graphviz version 2.43.0 (0)
 -->
<!-- Title: utils/logging/IAppender.h Pages: 1 -->
<svg width="875pt" height="302pt"
 viewBox="0.00 0.00 874.50 302.00" xmlns="http://www.w3.org/2000/svg" xmlns:xlink="http://www.w3.org/1999/xlink">
<g id="graph0" class="graph" transform="scale(1 1) rotate(0) translate(4 298)">
<title>utils/logging/IAppender.h</title>
<!-- Node1 -->
<g id="Node000001" class="node">
<title>Node1</title>
<g id="a_Node000001"><a xlink:title=" ">
<polygon fill="#999999" stroke="#666666" points="371,-294 234,-294 234,-275 371,-275 371,-294"/>
<text text-anchor="middle" x="302.5" y="-282" font-family="Helvetica,sans-Serif" font-size="10.00">utils/logging/IAppender.h</text>
</a>
</g>
</g>
<!-- Node2 -->
<g id="Node000002" class="node">
<title>Node2</title>
<g id="a_Node000002"><a xlink:href="ConsoleAppender_8h.html" target="_top" xlink:title=" ">
<polygon fill="white" stroke="#666666" points="222,-239 49,-239 49,-220 222,-220 222,-239"/>
<text text-anchor="middle" x="135.5" y="-227" font-family="Helvetica,sans-Serif" font-size="10.00">utils/logging/ConsoleAppender.h</text>
</a>
</g>
</g>
<!-- Node1&#45;&gt;Node2 -->
<g id="edge1_Node000001_Node000002" class="edge">
<title>Node1&#45;&gt;Node2</title>
<g id="a_edge1_Node000001_Node000002"><a xlink:title=" ">
<path fill="none" stroke="#63b8ff" d="M266.04,-271.93C234.84,-262.03 190.66,-248.01 162.54,-239.08"/>
<polygon fill="#63b8ff" stroke="#63b8ff" points="265.08,-275.3 275.67,-274.98 267.2,-268.62 265.08,-275.3"/>
</a>
</g>
</g>
<!-- Node4 -->
<g id="Node000004" class="node">
<title>Node4</title>
<g id="a_Node000004"><a xlink:href="Log_8h.html" target="_top" xlink:title="EasyKiConverter 日志系统统一入口">
<polygon fill="white" stroke="#666666" points="446.5,-74 340.5,-74 340.5,-55 446.5,-55 446.5,-74"/>
<text text-anchor="middle" x="393.5" y="-62" font-family="Helvetica,sans-Serif" font-size="10.00">utils/logging/Log.h</text>
</a>
</g>
</g>
<!-- Node1&#45;&gt;Node4 -->
<g id="edge8_Node000001_Node000004" class="edge">
<title>Node1&#45;&gt;Node4</title>
<g id="a_edge8_Node000001_Node000004"><a xlink:title=" ">
<path fill="none" stroke="#63b8ff" d="M286.58,-267.34C279.93,-259.47 272.96,-249.46 269.5,-239 266.85,-230.98 267.53,-228.21 269.5,-220 282.3,-166.65 288.87,-150.84 325.5,-110 339.54,-94.35 360.27,-81.84 375.15,-74.12"/>
<polygon fill="#63b8ff" stroke="#63b8ff" points="284.17,-269.9 293.48,-274.96 289.36,-265.2 284.17,-269.9"/>
</a>
</g>
</g>
<!-- Node6 -->
<g id="Node000006" class="node">
<title>Node6</title>
<g id="a_Node000006"><a xlink:href="FileAppender_8h.html" target="_top" xlink:title=" ">
<polygon fill="white" stroke="#666666" points="430.5,-239 278.5,-239 278.5,-220 430.5,-220 430.5,-239"/>
<text text-anchor="middle" x="354.5" y="-227" font-family="Helvetica,sans-Serif" font-size="10.00">utils/logging/FileAppender.h</text>
</a>
</g>
</g>
<!-- Node1&#45;&gt;Node6 -->
<g id="edge5_Node000001_Node000006" class="edge">
<title>Node1&#45;&gt;Node6</title>
<g id="a_edge5_Node000001_Node000006"><a xlink:title=" ">
<path fill="none" stroke="#63b8ff" d="M318.18,-267.52C327.34,-258.18 338.55,-246.75 346.07,-239.09"/>
<polygon fill="#63b8ff" stroke="#63b8ff" points="315.59,-265.16 311.09,-274.75 320.59,-270.06 315.59,-265.16"/>
</a>
</g>
</g>
<!-- Node8 -->
<g id="Node000008" class="node">
<title>Node8</title>
<g id="a_Node000008"><a xlink:href="Logger_8h.html" target="_top" xlink:title=" ">
<polygon fill="white" stroke="#666666" points="668,-239 547,-239 547,-220 668,-220 668,-239"/>
<text text-anchor="middle" x="607.5" y="-227" font-family="Helvetica,sans-Serif" font-size="10.00">utils/logging/Logger.h</text>
</a>
</g>
</g>
<!-- Node1&#45;&gt;Node8 -->
<g id="edge9_Node000001_Node000008" class="edge">
<title>Node1&#45;&gt;Node8</title>
<g id="a_edge9_Node000001_Node000008"><a xlink:title=" ">
<path fill="none" stroke="#63b8ff" d="M361.5,-273.25C418.77,-263.3 504.7,-248.36 558.37,-239.04"/>
<polygon fill="#63b8ff" stroke="#63b8ff" points="360.76,-269.82 351.5,-274.98 361.96,-276.72 360.76,-269.82"/>
</a>
</g>
</g>
<!-- Node3 -->
<g id="Node000003" class="node">
<title>Node3</title>
<g id="a_Node000003"><a xlink:href="ConsoleAppender_8cpp.html" target="_top" xlink:title=" ">
<polygon fill="white" stroke="#666666" points="185,-184 0,-184 0,-165 185,-165 185,-184"/>
<text text-anchor="middle" x="92.5" y="-172" font-family="Helvetica,sans-Serif" font-size="10.00">utils/logging/ConsoleAppender.cpp</text>
</a>
</g>
</g>
<!-- Node2&#45;&gt;Node3 -->
<g id="edge2_Node000002_Node000003" class="edge">
<title>Node2&#45;&gt;Node3</title>
<g id="a_edge2_Node000002_Node000003"><a xlink:title=" ">
<path fill="none" stroke="#63b8ff" d="M122.08,-211.96C114.59,-202.72 105.56,-191.6 99.47,-184.09"/>
<polygon fill="#63b8ff" stroke="#63b8ff" points="119.38,-214.19 128.4,-219.75 124.82,-209.78 119.38,-214.19"/>
</a>
</g>
</g>
<!-- Node2&#45;&gt;Node4 -->
<g id="edge3_Node000002_Node000004" class="edge">
<title>Node2&#45;&gt;Node4</title>
<g id="a_edge3_Node000002_Node000004"><a xlink:title=" ">
<path fill="none" stroke="#63b8ff" d="M158.27,-214.15C169.73,-206.19 183.31,-195.58 193.5,-184 218.62,-155.44 206.46,-133.33 236.5,-110 266.26,-86.89 307.47,-75.78 340.21,-70.44"/>
<polygon fill="#63b8ff" stroke="#63b8ff" points="156,-211.45 149.64,-219.93 159.9,-217.27 156,-211.45"/>
</a>
</g>
</g>
<!-- Node5 -->
<g id="Node000005" class="node">
<title>Node5</title>
<g id="a_Node000005"><a xlink:href="main_8cpp.html" target="_top" xlink:title=" ">
<polygon fill="white" stroke="#666666" points="424.5,-19 362.5,-19 362.5,0 424.5,0 424.5,-19"/>
<text text-anchor="middle" x="393.5" y="-7" font-family="Helvetica,sans-Serif" font-size="10.00">main.cpp</text>
</a>
</g>
</g>
<!-- Node4&#45;&gt;Node5 -->
<g id="edge4_Node000004_Node000005" class="edge">
<title>Node4&#45;&gt;Node5</title>
<g id="a_edge4_Node000004_Node000005"><a xlink:title=" ">
<path fill="none" stroke="#63b8ff" d="M393.5,-44.66C393.5,-35.93 393.5,-25.99 393.5,-19.09"/>
<polygon fill="#63b8ff" stroke="#63b8ff" points="390,-44.75 393.5,-54.75 397,-44.75 390,-44.75"/>
</a>
</g>
</g>
<!-- Node6&#45;&gt;Node4 -->
<g id="edge7_Node000006_Node000004" class="edge">
<title>Node6&#45;&gt;Node4</title>
<g id="a_edge7_Node000006_Node000004"><a xlink:title=" ">
<path fill="none" stroke="#63b8ff" d="M332.33,-213.88C322.79,-206.24 312.65,-195.97 307.5,-184 304.16,-176.24 304.55,-172.91 307.5,-165 322.56,-124.56 362.26,-89.6 382,-74.07"/>
<polygon fill="#63b8ff" stroke="#63b8ff" points="330.31,-216.74 340.43,-219.89 334.49,-211.12 330.31,-216.74"/>
</a>
</g>
</g>
<!-- Node7 -->
<g id="Node000007" class="node">
<title>Node7</title>
<g id="a_Node000007"><a xlink:href="FileAppender_8cpp.html" target="_top" xlink:title=" ">
<polygon fill="white" stroke="#666666" points="480,-184 317,-184 317,-165 480,-165 480,-184"/>
<text text-anchor="middle" x="398.5" y="-172" font-family="Helvetica,sans-Serif" font-size="10.00">utils/logging/FileAppender.cpp</text>
</a>
</g>
</g>
<!-- Node6&#45;&gt;Node7 -->
<g id="edge6_Node000006_Node000007" class="edge">
<title>Node6&#45;&gt;Node7</title>
<g id="a_edge6_Node000006_Node000007"><a xlink:title=" ">
<path fill="none" stroke="#63b8ff" d="M368.23,-211.96C375.9,-202.72 385.13,-191.6 391.37,-184.09"/>
<polygon fill="#63b8ff" stroke="#63b8ff" points="365.46,-209.82 361.77,-219.75 370.85,-214.29 365.46,-209.82"/>
</a>
</g>
</g>
<!-- Node8&#45;&gt;Node4 -->
<g id="edge10_Node000008_Node000004" class="edge">
<title>Node8&#45;&gt;Node4</title>
<g id="a_edge10_Node000008_Node000004"><a xlink:title=" ">
<path fill="none" stroke="#63b8ff" d="M580.39,-215.29C564.48,-207.08 544.26,-195.86 527.5,-184 476.29,-147.76 422.47,-94.93 402.04,-74.26"/>
<polygon fill="#63b8ff" stroke="#63b8ff" points="579.18,-218.6 589.68,-219.99 582.34,-212.35 579.18,-218.6"/>
</a>
</g>
</g>
<!-- Node9 -->
<g id="Node000009" class="node">
<title>Node9</title>
<g id="a_Node000009"><a xlink:href="LogMacros_8h.html" target="_top" xlink:title=" ">
<polygon fill="white" stroke="#666666" points="678,-184 537,-184 537,-165 678,-165 678,-184"/>
<text text-anchor="middle" x="607.5" y="-172" font-family="Helvetica,sans-Serif" font-size="10.00">utils/logging/LogMacros.h</text>
</a>
</g>
</g>
<!-- Node8&#45;&gt;Node9 -->
<g id="edge11_Node000008_Node000009" class="edge">
<title>Node8&#45;&gt;Node9</title>
<g id="a_edge11_Node000008_Node000009"><a xlink:title=" ">
<path fill="none" stroke="#63b8ff" d="M607.5,-209.66C607.5,-200.93 607.5,-190.99 607.5,-184.09"/>
<polygon fill="#63b8ff" stroke="#63b8ff" points="604,-209.75 607.5,-219.75 611,-209.75 604,-209.75"/>
</a>
</g>
</g>
<!-- Node10 -->
<g id="Node000010" class="node">
<title>Node10</title>
<g id="a_Node000010"><a xlink:href="QtLogAdapter_8h.html" target="_top" xlink:title=" ">
<polygon fill="white" stroke="#666666" points="730,-129 575,-129 575,-110 730,-110 730,-129"/>
<text text-anchor="middle" x="652.5" y="-117" font-family="Helvetica,sans-Serif" font-size="10.00">utils/logging/QtLogAdapter.h</text>
</a>
</g>
</g>
<!-- Node8&#45;&gt;Node10 -->
<g id="edge17_Node000008_Node000010" class="edge">
<title>Node8&#45;&gt;Node10</title>
<g id="a_edge17_Node000008_Node000010"><a xlink:title=" ">
<path fill="none" stroke="#63b8ff" d="M647.87,-216.01C663.06,-209.12 678.76,-198.86 687.5,-184 698.86,-164.69 677.5,-141.53 663.43,-129.21"/>
<polygon fill="#63b8ff" stroke="#63b8ff" points="646.44,-212.81 638.55,-219.87 649.12,-219.28 646.44,-212.81"/>
</a>
</g>
</g>
<!-- Node12 -->
<g id="Node000012" class="node">
<title>Node12</title>
<g id="a_Node000012"><a xlink:href="Logger_8cpp.html" target="_top" xlink:title=" ">
<polygon fill="white" stroke="#666666" points="866.5,-184 734.5,-184 734.5,-165 866.5,-165 866.5,-184"/>
<text text-anchor="middle" x="800.5" y="-172" font-family="Helvetica,sans-Serif" font-size="10.00">utils/logging/Logger.cpp</text>
</a>
</g>
</g>
<!-- Node8&#45;&gt;Node12 -->
<g id="edge16_Node000008_Node000012" class="edge">
<title>Node8&#45;&gt;Node12</title>
<g id="a_edge16_Node000008_Node000012"><a xlink:title=" ">
<path fill="none" stroke="#63b8ff" d="M648.25,-217.31C684.36,-207.39 736.33,-193.12 769.25,-184.08"/>
<polygon fill="#63b8ff" stroke="#63b8ff" points="647.22,-213.96 638.51,-219.98 649.08,-220.71 647.22,-213.96"/>
</a>
</g>
</g>
<!-- Node9&#45;&gt;Node4 -->
<g id="edge12_Node000009_Node000004" class="edge">
<title>Node9&#45;&gt;Node4</title>
<g id="a_edge12_Node000009_Node000004"><a xlink:title=" ">
<path fill="none" stroke="#63b8ff" d="M590.3,-158.11C573.85,-144.04 547.87,-123.43 522.5,-110 491.83,-93.76 454.01,-81.53 427.28,-74.05"/>
<polygon fill="#63b8ff" stroke="#63b8ff" points="588.14,-160.87 597.97,-164.8 592.73,-155.59 588.14,-160.87"/>
</a>
</g>
</g>
<!-- Node9&#45;&gt;Node10 -->
<g id="edge13_Node000009_Node000010" class="edge">
<title>Node9&#45;&gt;Node10</title>
<g id="a_edge13_Node000009_Node000010"><a xlink:title=" ">
<path fill="none" stroke="#63b8ff" d="M621.55,-156.96C629.39,-147.72 638.83,-136.6 645.21,-129.09"/>
<polygon fill="#63b8ff" stroke="#63b8ff" points="618.74,-154.86 614.93,-164.75 624.07,-159.39 618.74,-154.86"/>
</a>
</g>
</g>
<!-- Node10&#45;&gt;Node4 -->
<g id="edge14_Node000010_Node000004" class="edge">
<title>Node10&#45;&gt;Node4</title>
<g id="a_edge14_Node000010_Node000004"><a xlink:title=" ">
<path fill="none" stroke="#63b8ff" d="M600.9,-107.94C552.35,-98.01 480.56,-83.31 435.44,-74.08"/>
<polygon fill="#63b8ff" stroke="#63b8ff" points="600.39,-111.41 610.89,-109.98 601.79,-104.55 600.39,-111.41"/>
</a>
</g>
</g>
<!-- Node11 -->
<g id="Node000011" class="node">
<title>Node11</title>
<g id="a_Node000011"><a xlink:href="QtLogAdapter_8cpp.html" target="_top" xlink:title=" ">
<polygon fill="white" stroke="#666666" points="735.5,-74 569.5,-74 569.5,-55 735.5,-55 735.5,-74"/>
<text text-anchor="middle" x="652.5" y="-62" font-family="Helvetica,sans-Serif" font-size="10.00">utils/logging/QtLogAdapter.cpp</text>
</a>
</g>
</g>
<!-- Node10&#45;&gt;Node11 -->
<g id="edge15_Node000010_Node000011" class="edge">
<title>Node10&#45;&gt;Node11</title>
<g id="a_edge15_Node000010_Node000011"><a xlink:title=" ">
<path fill="none" stroke="#63b8ff" d="M652.5,-99.66C652.5,-90.93 652.5,-80.99 652.5,-74.09"/>
<polygon fill="#63b8ff" stroke="#63b8ff" points="649,-99.75 652.5,-109.75 656,-99.75 649,-99.75"/>
</a>
</g>
</g>
</g>
</svg>
