<?xml version="1.0" encoding="UTF-8" standalone="no"?>
<!DOCTYPE svg PUBLIC "-//W3C//DTD SVG 1.1//EN"
 "http://www.w3.org/Graphics/SVG/1.1/DTD/svg11.dtd">
<!-- Generated by graphviz version 2.43.0 (0)
 -->
<!-- Title: utils/logging/IAppender.h Pages: 1 -->
<svg width="543pt" height="247pt"
 viewBox="0.00 0.00 543.00 247.00" xmlns="http://www.w3.org/2000/svg" xmlns:xlink="http://www.w3.org/1999/xlink">
<g id="graph0" class="graph" transform="scale(1 1) rotate(0) translate(4 243)">
<title>utils/logging/IAppender.h</title>
<!-- Node1 -->
<g id="Node000001" class="node">
<title>Node1</title>
<g id="a_Node000001"><a xlink:title=" ">
<polygon fill="#999999" stroke="#666666" points="463.5,-239 326.5,-239 326.5,-220 463.5,-220 463.5,-239"/>
<text text-anchor="middle" x="395" y="-227" font-family="Helvetica,sans-Serif" font-size="10.00">utils/logging/IAppender.h</text>
</a>
</g>
</g>
<!-- Node2 -->
<g id="Node000002" class="node">
<title>Node2</title>
<g id="a_Node000002"><a xlink:href="IFormatter_8h.html" target="_top" xlink:title=" ">
<polygon fill="white" stroke="#666666" points="466,-184 390,-184 390,-165 466,-165 466,-184"/>
<text text-anchor="middle" x="428" y="-172" font-family="Helvetica,sans-Serif" font-size="10.00">IFormatter.h</text>
</a>
</g>
</g>
<!-- Node1&#45;&gt;Node2 -->
<g id="edge1_Node000001_Node000002" class="edge">
<title>Node1&#45;&gt;Node2</title>
<g id="a_edge1_Node000001_Node000002"><a xlink:title=" ">
<path fill="none" stroke="#63b8ff" d="M400.45,-219.75C405.01,-212.42 411.67,-201.73 417.29,-192.7"/>
<polygon fill="#63b8ff" stroke="#63b8ff" points="420.34,-194.43 422.65,-184.09 414.4,-190.73 420.34,-194.43"/>
</a>
</g>
</g>
<!-- Node3 -->
<g id="Node000003" class="node">
<title>Node3</title>
<g id="a_Node000003"><a xlink:href="LogRecord_8h.html" target="_top" xlink:title=" ">
<polygon fill="white" stroke="#666666" points="274.5,-129 197.5,-129 197.5,-110 274.5,-110 274.5,-129"/>
<text text-anchor="middle" x="236" y="-117" font-family="Helvetica,sans-Serif" font-size="10.00">LogRecord.h</text>
</a>
</g>
</g>
<!-- Node1&#45;&gt;Node3 -->
<g id="edge14_Node000001_Node000003" class="edge">
<title>Node1&#45;&gt;Node3</title>
<g id="a_edge14_Node000001_Node000003"><a xlink:title=" ">
<path fill="none" stroke="#63b8ff" d="M382.26,-219.84C355.04,-201.36 291,-157.86 257.41,-135.05"/>
<polygon fill="#63b8ff" stroke="#63b8ff" points="259.04,-131.92 248.8,-129.2 255.11,-137.71 259.04,-131.92"/>
</a>
</g>
</g>
<!-- Node5 -->
<g id="Node000005" class="node">
<title>Node5</title>
<g id="a_Node000005"><a xlink:title=" ">
<polygon fill="#e0e0e0" stroke="#999999" points="325.5,-19 272.5,-19 272.5,0 325.5,0 325.5,-19"/>
<text text-anchor="middle" x="299" y="-7" font-family="Helvetica,sans-Serif" font-size="10.00">QString</text>
</a>
</g>
</g>
<!-- Node1&#45;&gt;Node5 -->
<g id="edge16_Node000001_Node000005" class="edge">
<title>Node1&#45;&gt;Node5</title>
<g id="a_edge16_Node000001_Node000005"><a xlink:title=" ">
<path fill="none" stroke="#63b8ff" d="M392.27,-219.98C389.41,-211.04 384.82,-196.55 381,-184 363.59,-126.82 373.38,-106.47 343,-55 336.49,-43.97 326.64,-33.66 317.91,-25.75"/>
<polygon fill="#63b8ff" stroke="#63b8ff" points="320.19,-23.09 310.34,-19.2 315.62,-28.39 320.19,-23.09"/>
</a>
</g>
</g>
<!-- Node10 -->
<g id="Node000010" class="node">
<title>Node10</title>
<g id="a_Node000010"><a xlink:title=" ">
<polygon fill="#e0e0e0" stroke="#999999" points="535,-129 443,-129 443,-110 535,-110 535,-129"/>
<text text-anchor="middle" x="489" y="-117" font-family="Helvetica,sans-Serif" font-size="10.00">QSharedPointer</text>
</a>
</g>
</g>
<!-- Node1&#45;&gt;Node10 -->
<g id="edge15_Node000001_Node000010" class="edge">
<title>Node1&#45;&gt;Node10</title>
<g id="a_edge15_Node000001_Node000010"><a xlink:title=" ">
<path fill="none" stroke="#63b8ff" d="M422.36,-219.91C440,-212.98 462,-201.46 475,-184 484.59,-171.13 487.84,-152.96 488.84,-139.36"/>
<polygon fill="#63b8ff" stroke="#63b8ff" points="492.35,-139.35 489.24,-129.22 485.35,-139.07 492.35,-139.35"/>
</a>
</g>
</g>
<!-- Node2&#45;&gt;Node3 -->
<g id="edge2_Node000002_Node000003" class="edge">
<title>Node2&#45;&gt;Node3</title>
<g id="a_edge2_Node000002_Node000003"><a xlink:title=" ">
<path fill="none" stroke="#63b8ff" d="M397.15,-164.98C364.5,-155.97 312.8,-141.7 276.8,-131.76"/>
<polygon fill="#63b8ff" stroke="#63b8ff" points="277.66,-128.37 267.09,-129.08 275.8,-135.12 277.66,-128.37"/>
</a>
</g>
</g>
<!-- Node2&#45;&gt;Node5 -->
<g id="edge13_Node000002_Node000005" class="edge">
<title>Node2&#45;&gt;Node5</title>
<g id="a_edge13_Node000002_Node000005"><a xlink:title=" ">
<path fill="none" stroke="#63b8ff" d="M426.15,-164.74C421.29,-143.58 406.42,-88.98 376,-55 363.72,-41.28 346.17,-30.69 330.93,-23.28"/>
<polygon fill="#63b8ff" stroke="#63b8ff" points="332.35,-20.09 321.8,-19.09 329.43,-26.45 332.35,-20.09"/>
</a>
</g>
</g>
<!-- Node2&#45;&gt;Node10 -->
<g id="edge12_Node000002_Node000010" class="edge">
<title>Node2&#45;&gt;Node10</title>
<g id="a_edge12_Node000002_Node000010"><a xlink:title=" ">
<path fill="none" stroke="#63b8ff" d="M437.8,-164.98C446.82,-157.15 460.41,-145.34 471.32,-135.86"/>
<polygon fill="#63b8ff" stroke="#63b8ff" points="473.77,-138.37 479.02,-129.17 469.18,-133.09 473.77,-138.37"/>
</a>
</g>
</g>
<!-- Node4 -->
<g id="Node000004" class="node">
<title>Node4</title>
<g id="a_Node000004"><a xlink:href="LogLevel_8h.html" target="_top" xlink:title=" ">
<polygon fill="white" stroke="#666666" points="333.5,-74 264.5,-74 264.5,-55 333.5,-55 333.5,-74"/>
<text text-anchor="middle" x="299" y="-62" font-family="Helvetica,sans-Serif" font-size="10.00">LogLevel.h</text>
</a>
</g>
</g>
<!-- Node3&#45;&gt;Node4 -->
<g id="edge3_Node000003_Node000004" class="edge">
<title>Node3&#45;&gt;Node4</title>
<g id="a_edge3_Node000003_Node000004"><a xlink:title=" ">
<path fill="none" stroke="#63b8ff" d="M246.12,-109.98C255.44,-102.15 269.47,-90.34 280.74,-80.86"/>
<polygon fill="#63b8ff" stroke="#63b8ff" points="283.29,-83.29 288.69,-74.17 278.79,-77.93 283.29,-83.29"/>
</a>
</g>
</g>
<!-- Node3&#45;&gt;Node5 -->
<g id="edge10_Node000003_Node000005" class="edge">
<title>Node3&#45;&gt;Node5</title>
<g id="a_edge10_Node000003_Node000005"><a xlink:title=" ">
<path fill="none" stroke="#63b8ff" d="M237.24,-109.74C239.33,-96.97 244.44,-72.82 255,-55 261.53,-43.98 271.38,-33.67 280.11,-25.76"/>
<polygon fill="#63b8ff" stroke="#63b8ff" points="282.4,-28.4 287.68,-19.21 277.82,-23.11 282.4,-28.4"/>
</a>
</g>
</g>
<!-- Node6 -->
<g id="Node000006" class="node">
<title>Node6</title>
<g id="a_Node000006"><a xlink:href="LogModule_8h.html" target="_top" xlink:title=" ">
<polygon fill="white" stroke="#666666" points="207.5,-74 128.5,-74 128.5,-55 207.5,-55 207.5,-74"/>
<text text-anchor="middle" x="168" y="-62" font-family="Helvetica,sans-Serif" font-size="10.00">LogModule.h</text>
</a>
</g>
</g>
<!-- Node3&#45;&gt;Node6 -->
<g id="edge5_Node000003_Node000006" class="edge">
<title>Node3&#45;&gt;Node6</title>
<g id="a_edge5_Node000003_Node000006"><a xlink:title=" ">
<path fill="none" stroke="#63b8ff" d="M225.07,-109.98C214.92,-102.07 199.58,-90.11 187.35,-80.58"/>
<polygon fill="#63b8ff" stroke="#63b8ff" points="189.16,-77.56 179.12,-74.17 184.86,-83.08 189.16,-77.56"/>
</a>
</g>
</g>
<!-- Node8 -->
<g id="Node000008" class="node">
<title>Node8</title>
<g id="a_Node000008"><a xlink:title=" ">
<polygon fill="#e0e0e0" stroke="#999999" points="129.5,-19 70.5,-19 70.5,0 129.5,0 129.5,-19"/>
<text text-anchor="middle" x="100" y="-7" font-family="Helvetica,sans-Serif" font-size="10.00">QtGlobal</text>
</a>
</g>
</g>
<!-- Node3&#45;&gt;Node8 -->
<g id="edge11_Node000003_Node000008" class="edge">
<title>Node3&#45;&gt;Node8</title>
<g id="a_edge11_Node000003_Node000008"><a xlink:title=" ">
<path fill="none" stroke="#63b8ff" d="M197.36,-112.85C171.82,-107.18 139.42,-95.96 119,-74 107.74,-61.89 103.13,-43.35 101.26,-29.43"/>
<polygon fill="#63b8ff" stroke="#63b8ff" points="104.7,-28.67 100.24,-19.06 97.73,-29.36 104.7,-28.67"/>
</a>
</g>
</g>
<!-- Node9 -->
<g id="Node000009" class="node">
<title>Node9</title>
<g id="a_Node000009"><a xlink:title=" ">
<polygon fill="#e0e0e0" stroke="#999999" points="72,-74 0,-74 0,-55 72,-55 72,-74"/>
<text text-anchor="middle" x="36" y="-62" font-family="Helvetica,sans-Serif" font-size="10.00">QDateTime</text>
</a>
</g>
</g>
<!-- Node3&#45;&gt;Node9 -->
<g id="edge9_Node000003_Node000009" class="edge">
<title>Node3&#45;&gt;Node9</title>
<g id="a_edge9_Node000003_Node000009"><a xlink:title=" ">
<path fill="none" stroke="#63b8ff" d="M203.87,-109.98C169.85,-100.97 116,-86.7 78.5,-76.76"/>
<polygon fill="#63b8ff" stroke="#63b8ff" points="78.95,-73.26 68.39,-74.08 77.16,-80.03 78.95,-73.26"/>
</a>
</g>
</g>
<!-- Node4&#45;&gt;Node5 -->
<g id="edge4_Node000004_Node000005" class="edge">
<title>Node4&#45;&gt;Node5</title>
<g id="a_edge4_Node000004_Node000005"><a xlink:title=" ">
<path fill="none" stroke="#63b8ff" d="M299,-54.75C299,-47.8 299,-37.85 299,-29.13"/>
<polygon fill="#63b8ff" stroke="#63b8ff" points="302.5,-29.09 299,-19.09 295.5,-29.09 302.5,-29.09"/>
</a>
</g>
</g>
<!-- Node6&#45;&gt;Node5 -->
<g id="edge6_Node000006_Node000005" class="edge">
<title>Node6&#45;&gt;Node5</title>
<g id="a_edge6_Node000006_Node000005"><a xlink:title=" ">
<path fill="none" stroke="#63b8ff" d="M189.05,-54.98C210.41,-46.34 243.7,-32.87 268.06,-23.02"/>
<polygon fill="#63b8ff" stroke="#63b8ff" points="269.61,-26.17 277.57,-19.17 266.99,-19.68 269.61,-26.17"/>
</a>
</g>
</g>
<!-- Node7 -->
<g id="Node000007" class="node">
<title>Node7</title>
<g id="a_Node000007"><a xlink:title=" ">
<polygon fill="#e0e0e0" stroke="#999999" points="218,-19 148,-19 148,0 218,0 218,-19"/>
<text text-anchor="middle" x="183" y="-7" font-family="Helvetica,sans-Serif" font-size="10.00">QStringList</text>
</a>
</g>
</g>
<!-- Node6&#45;&gt;Node7 -->
<g id="edge7_Node000006_Node000007" class="edge">
<title>Node6&#45;&gt;Node7</title>
<g id="a_edge7_Node000006_Node000007"><a xlink:title=" ">
<path fill="none" stroke="#63b8ff" d="M170.48,-54.75C172.46,-47.72 175.32,-37.62 177.81,-28.84"/>
<polygon fill="#63b8ff" stroke="#63b8ff" points="181.21,-29.66 180.57,-19.09 174.48,-27.76 181.21,-29.66"/>
</a>
</g>
</g>
<!-- Node6&#45;&gt;Node8 -->
<g id="edge8_Node000006_Node000008" class="edge">
<title>Node6&#45;&gt;Node8</title>
<g id="a_edge8_Node000006_Node000008"><a xlink:title=" ">
<path fill="none" stroke="#63b8ff" d="M157.07,-54.98C146.92,-47.07 131.58,-35.11 119.35,-25.58"/>
<polygon fill="#63b8ff" stroke="#63b8ff" points="121.16,-22.56 111.12,-19.17 116.86,-28.08 121.16,-22.56"/>
</a>
</g>
</g>
</g>
</svg>
