<?xml version="1.0" encoding="UTF-8" standalone="no"?>
<!DOCTYPE svg PUBLIC "-//W3C//DTD SVG 1.1//EN"
 "http://www.w3.org/Graphics/SVG/1.1/DTD/svg11.dtd">
<!-- Generated by graphviz version 2.43.0 (0)
 -->
<!-- Title: utils/logging/IFormatter.h Pages: 1 -->
<svg width="1583pt" height="368pt"
 viewBox="0.00 0.00 1583.00 368.00" xmlns="http://www.w3.org/2000/svg" xmlns:xlink="http://www.w3.org/1999/xlink">
<g id="graph0" class="graph" transform="scale(1 1) rotate(0) translate(4 364)">
<title>utils/logging/IFormatter.h</title>
<!-- Node1 -->
<g id="Node000001" class="node">
<title>Node1</title>
<g id="a_Node000001"><a xlink:title=" ">
<polygon fill="#999999" stroke="#666666" points="557.5,-360 418.5,-360 418.5,-341 557.5,-341 557.5,-360"/>
<text text-anchor="middle" x="488" y="-348" font-family="Helvetica,sans-Serif" font-size="10.00">utils/logging/IFormatter.h</text>
</a>
</g>
</g>
<!-- Node2 -->
<g id="Node000002" class="node">
<title>Node2</title>
<g id="a_Node000002"><a xlink:href="IAppender_8h.html" target="_top" xlink:title=" ">
<polygon fill="white" stroke="#666666" points="508.5,-305 371.5,-305 371.5,-286 508.5,-286 508.5,-305"/>
<text text-anchor="middle" x="440" y="-293" font-family="Helvetica,sans-Serif" font-size="10.00">utils/logging/IAppender.h</text>
</a>
</g>
</g>
<!-- Node1&#45;&gt;Node2 -->
<g id="edge1_Node000001_Node000002" class="edge">
<title>Node1&#45;&gt;Node2</title>
<g id="a_edge1_Node000001_Node000002"><a xlink:title=" ">
<path fill="none" stroke="#63b8ff" d="M473.27,-333.24C464.86,-323.95 454.65,-312.68 447.78,-305.09"/>
<polygon fill="#63b8ff" stroke="#63b8ff" points="470.77,-335.69 480.07,-340.75 475.96,-330.99 470.77,-335.69"/>
</a>
</g>
</g>
<!-- Node5 -->
<g id="Node000005" class="node">
<title>Node5</title>
<g id="a_Node000005"><a xlink:href="Log_8h.html" target="_top" xlink:title="EasyKiConverter 日志系统统一入口">
<polygon fill="white" stroke="#666666" points="570,-74 464,-74 464,-55 570,-55 570,-74"/>
<text text-anchor="middle" x="517" y="-62" font-family="Helvetica,sans-Serif" font-size="10.00">utils/logging/Log.h</text>
</a>
</g>
</g>
<!-- Node1&#45;&gt;Node5 -->
<g id="edge22_Node000001_Node000005" class="edge">
<title>Node1&#45;&gt;Node5</title>
<g id="a_edge22_Node000001_Node000005"><a xlink:title=" ">
<path fill="none" stroke="#63b8ff" d="M408.21,-348.13C269.83,-343.57 0,-324.09 0,-241.5 0,-241.5 0,-241.5 0,-184.5 0,-90.09 331.53,-70.58 463.62,-66.55"/>
<polygon fill="#63b8ff" stroke="#63b8ff" points="408.24,-351.63 418.34,-348.44 408.45,-344.64 408.24,-351.63"/>
</a>
</g>
</g>
<!-- Node9 -->
<g id="Node000009" class="node">
<title>Node9</title>
<g id="a_Node000009"><a xlink:href="Logger_8h.html" target="_top" xlink:title=" ">
<polygon fill="white" stroke="#666666" points="832.5,-250 711.5,-250 711.5,-231 832.5,-231 832.5,-250"/>
<text text-anchor="middle" x="772" y="-238" font-family="Helvetica,sans-Serif" font-size="10.00">utils/logging/Logger.h</text>
</a>
</g>
</g>
<!-- Node1&#45;&gt;Node9 -->
<g id="edge23_Node000001_Node000009" class="edge">
<title>Node1&#45;&gt;Node9</title>
<g id="a_edge23_Node000001_Node000009"><a xlink:title=" ">
<path fill="none" stroke="#63b8ff" d="M520.19,-337.26C578.32,-315.15 699.4,-269.11 749.52,-250.05"/>
<polygon fill="#63b8ff" stroke="#63b8ff" points="518.86,-334.02 510.76,-340.84 521.35,-340.56 518.86,-334.02"/>
</a>
</g>
</g>
<!-- Node17 -->
<g id="Node000017" class="node">
<title>Node17</title>
<g id="a_Node000017"><a xlink:href="PatternFormatter_8h.html" target="_top" xlink:title=" ">
<polygon fill="white" stroke="#666666" points="1381,-250 1211,-250 1211,-231 1381,-231 1381,-250"/>
<text text-anchor="middle" x="1296" y="-238" font-family="Helvetica,sans-Serif" font-size="10.00">utils/logging/PatternFormatter.h</text>
</a>
</g>
</g>
<!-- Node1&#45;&gt;Node17 -->
<g id="edge24_Node000001_Node000017" class="edge">
<title>Node1&#45;&gt;Node17</title>
<g id="a_edge24_Node000001_Node000017"><a xlink:title=" ">
<path fill="none" stroke="#63b8ff" d="M561.79,-339.64C719.01,-318.62 1084.68,-269.75 1232.4,-250"/>
<polygon fill="#63b8ff" stroke="#63b8ff" points="561.19,-336.19 551.74,-340.98 562.12,-343.12 561.19,-336.19"/>
</a>
</g>
</g>
<!-- Node3 -->
<g id="Node000003" class="node">
<title>Node3</title>
<g id="a_Node000003"><a xlink:href="ConsoleAppender_8h.html" target="_top" xlink:title=" ">
<polygon fill="white" stroke="#666666" points="249.5,-250 76.5,-250 76.5,-231 249.5,-231 249.5,-250"/>
<text text-anchor="middle" x="163" y="-238" font-family="Helvetica,sans-Serif" font-size="10.00">utils/logging/ConsoleAppender.h</text>
</a>
</g>
</g>
<!-- Node2&#45;&gt;Node3 -->
<g id="edge2_Node000002_Node000003" class="edge">
<title>Node2&#45;&gt;Node3</title>
<g id="a_edge2_Node000002_Node000003"><a xlink:title=" ">
<path fill="none" stroke="#63b8ff" d="M385.46,-284.07C333.53,-274.13 256.31,-259.35 207.85,-250.08"/>
<polygon fill="#63b8ff" stroke="#63b8ff" points="385.02,-287.54 395.5,-285.98 386.33,-280.67 385.02,-287.54"/>
</a>
</g>
</g>
<!-- Node2&#45;&gt;Node5 -->
<g id="edge9_Node000002_Node000005" class="edge">
<title>Node2&#45;&gt;Node5</title>
<g id="a_edge9_Node000002_Node000005"><a xlink:title=" ">
<path fill="none" stroke="#63b8ff" d="M402.35,-282.69C350.39,-264.28 266.39,-225.63 297,-176 334.7,-114.88 417.66,-86.39 470.25,-74.03"/>
<polygon fill="#63b8ff" stroke="#63b8ff" points="401.36,-286.05 411.96,-286 403.64,-279.43 401.36,-286.05"/>
</a>
</g>
</g>
<!-- Node7 -->
<g id="Node000007" class="node">
<title>Node7</title>
<g id="a_Node000007"><a xlink:href="FileAppender_8h.html" target="_top" xlink:title=" ">
<polygon fill="white" stroke="#666666" points="516,-250 364,-250 364,-231 516,-231 516,-250"/>
<text text-anchor="middle" x="440" y="-238" font-family="Helvetica,sans-Serif" font-size="10.00">utils/logging/FileAppender.h</text>
</a>
</g>
</g>
<!-- Node2&#45;&gt;Node7 -->
<g id="edge6_Node000002_Node000007" class="edge">
<title>Node2&#45;&gt;Node7</title>
<g id="a_edge6_Node000002_Node000007"><a xlink:title=" ">
<path fill="none" stroke="#63b8ff" d="M440,-275.66C440,-266.93 440,-256.99 440,-250.09"/>
<polygon fill="#63b8ff" stroke="#63b8ff" points="436.5,-275.75 440,-285.75 443.5,-275.75 436.5,-275.75"/>
</a>
</g>
</g>
<!-- Node2&#45;&gt;Node9 -->
<g id="edge10_Node000002_Node000009" class="edge">
<title>Node2&#45;&gt;Node9</title>
<g id="a_edge10_Node000002_Node000009"><a xlink:title=" ">
<path fill="none" stroke="#63b8ff" d="M503.45,-284.37C565.79,-274.42 659.86,-259.4 718.52,-250.04"/>
<polygon fill="#63b8ff" stroke="#63b8ff" points="502.66,-280.95 493.34,-285.98 503.77,-287.86 502.66,-280.95"/>
</a>
</g>
</g>
<!-- Node4 -->
<g id="Node000004" class="node">
<title>Node4</title>
<g id="a_Node000004"><a xlink:href="ConsoleAppender_8cpp.html" target="_top" xlink:title=" ">
<polygon fill="white" stroke="#666666" points="212.5,-195 27.5,-195 27.5,-176 212.5,-176 212.5,-195"/>
<text text-anchor="middle" x="120" y="-183" font-family="Helvetica,sans-Serif" font-size="10.00">utils/logging/ConsoleAppender.cpp</text>
</a>
</g>
</g>
<!-- Node3&#45;&gt;Node4 -->
<g id="edge3_Node000003_Node000004" class="edge">
<title>Node3&#45;&gt;Node4</title>
<g id="a_edge3_Node000003_Node000004"><a xlink:title=" ">
<path fill="none" stroke="#63b8ff" d="M149.58,-222.96C142.09,-213.72 133.06,-202.6 126.97,-195.09"/>
<polygon fill="#63b8ff" stroke="#63b8ff" points="146.88,-225.19 155.9,-230.75 152.32,-220.78 146.88,-225.19"/>
</a>
</g>
</g>
<!-- Node3&#45;&gt;Node5 -->
<g id="edge4_Node000003_Node000005" class="edge">
<title>Node3&#45;&gt;Node5</title>
<g id="a_edge4_Node000003_Node000005"><a xlink:title=" ">
<path fill="none" stroke="#63b8ff" d="M186.5,-225.08C197.94,-217.22 211.28,-206.72 221,-195 248.03,-162.41 230,-135.22 264,-110 294.94,-87.05 399.33,-74.81 463.95,-69.28"/>
<polygon fill="#63b8ff" stroke="#63b8ff" points="184.27,-222.36 177.84,-230.79 188.12,-228.21 184.27,-222.36"/>
</a>
</g>
</g>
<!-- Node6 -->
<g id="Node000006" class="node">
<title>Node6</title>
<g id="a_Node000006"><a xlink:href="main_8cpp.html" target="_top" xlink:title=" ">
<polygon fill="white" stroke="#666666" points="548,-19 486,-19 486,0 548,0 548,-19"/>
<text text-anchor="middle" x="517" y="-7" font-family="Helvetica,sans-Serif" font-size="10.00">main.cpp</text>
</a>
</g>
</g>
<!-- Node5&#45;&gt;Node6 -->
<g id="edge5_Node000005_Node000006" class="edge">
<title>Node5&#45;&gt;Node6</title>
<g id="a_edge5_Node000005_Node000006"><a xlink:title=" ">
<path fill="none" stroke="#63b8ff" d="M517,-44.66C517,-35.93 517,-25.99 517,-19.09"/>
<polygon fill="#63b8ff" stroke="#63b8ff" points="513.5,-44.75 517,-54.75 520.5,-44.75 513.5,-44.75"/>
</a>
</g>
</g>
<!-- Node7&#45;&gt;Node5 -->
<g id="edge8_Node000007_Node000005" class="edge">
<title>Node7&#45;&gt;Node5</title>
<g id="a_edge8_Node000007_Node000005"><a xlink:title=" ">
<path fill="none" stroke="#63b8ff" d="M456.41,-223.62C463.88,-215.62 472.31,-205.43 478,-195 500.95,-152.96 512.09,-95.69 515.67,-74.15"/>
<polygon fill="#63b8ff" stroke="#63b8ff" points="453.87,-221.2 449.39,-230.8 458.88,-226.09 453.87,-221.2"/>
</a>
</g>
</g>
<!-- Node8 -->
<g id="Node000008" class="node">
<title>Node8</title>
<g id="a_Node000008"><a xlink:href="FileAppender_8cpp.html" target="_top" xlink:title=" ">
<polygon fill="white" stroke="#666666" points="469.5,-195 306.5,-195 306.5,-176 469.5,-176 469.5,-195"/>
<text text-anchor="middle" x="388" y="-183" font-family="Helvetica,sans-Serif" font-size="10.00">utils/logging/FileAppender.cpp</text>
</a>
</g>
</g>
<!-- Node7&#45;&gt;Node8 -->
<g id="edge7_Node000007_Node000008" class="edge">
<title>Node7&#45;&gt;Node8</title>
<g id="a_edge7_Node000007_Node000008"><a xlink:title=" ">
<path fill="none" stroke="#63b8ff" d="M424.32,-223.52C415.16,-214.18 403.95,-202.75 396.43,-195.09"/>
<polygon fill="#63b8ff" stroke="#63b8ff" points="421.91,-226.06 431.41,-230.75 426.91,-221.16 421.91,-226.06"/>
</a>
</g>
</g>
<!-- Node9&#45;&gt;Node5 -->
<g id="edge11_Node000009_Node000005" class="edge">
<title>Node9&#45;&gt;Node5</title>
<g id="a_edge11_Node000009_Node000005"><a xlink:title=" ">
<path fill="none" stroke="#63b8ff" d="M722.29,-228.33C672.9,-214.93 597.81,-188.02 550,-140 531.04,-120.95 522.04,-89.14 518.67,-74"/>
<polygon fill="#63b8ff" stroke="#63b8ff" points="721.55,-231.76 732.11,-230.91 723.33,-224.99 721.55,-231.76"/>
</a>
</g>
</g>
<!-- Node10 -->
<g id="Node000010" class="node">
<title>Node10</title>
<g id="a_Node000010"><a xlink:href="LogMacros_8h.html" target="_top" xlink:title=" ">
<polygon fill="white" stroke="#666666" points="946.5,-195 805.5,-195 805.5,-176 946.5,-176 946.5,-195"/>
<text text-anchor="middle" x="876" y="-183" font-family="Helvetica,sans-Serif" font-size="10.00">utils/logging/LogMacros.h</text>
</a>
</g>
</g>
<!-- Node9&#45;&gt;Node10 -->
<g id="edge12_Node000009_Node000010" class="edge">
<title>Node9&#45;&gt;Node10</title>
<g id="a_edge12_Node000009_Node000010"><a xlink:title=" ">
<path fill="none" stroke="#63b8ff" d="M797.77,-226.37C816.87,-216.63 842.37,-203.64 858.99,-195.17"/>
<polygon fill="#63b8ff" stroke="#63b8ff" points="796.03,-223.33 788.71,-230.98 799.21,-229.56 796.03,-223.33"/>
</a>
</g>
</g>
<!-- Node14 -->
<g id="Node000014" class="node">
<title>Node14</title>
<g id="a_Node000014"><a xlink:href="QtLogAdapter_8h.html" target="_top" xlink:title=" ">
<polygon fill="white" stroke="#666666" points="1336.5,-134.5 1181.5,-134.5 1181.5,-115.5 1336.5,-115.5 1336.5,-134.5"/>
<text text-anchor="middle" x="1259" y="-122.5" font-family="Helvetica,sans-Serif" font-size="10.00">utils/logging/QtLogAdapter.h</text>
</a>
</g>
</g>
<!-- Node9&#45;&gt;Node14 -->
<g id="edge21_Node000009_Node000014" class="edge">
<title>Node9&#45;&gt;Node14</title>
<g id="a_edge21_Node000009_Node000014"><a xlink:title=" ">
<path fill="none" stroke="#63b8ff" d="M818.36,-228.7C914.72,-206.24 1134.94,-154.91 1222.3,-134.55"/>
<polygon fill="#63b8ff" stroke="#63b8ff" points="817.55,-225.29 808.6,-230.97 819.14,-232.11 817.55,-225.29"/>
</a>
</g>
</g>
<!-- Node16 -->
<g id="Node000016" class="node">
<title>Node16</title>
<g id="a_Node000016"><a xlink:href="Logger_8cpp.html" target="_top" xlink:title=" ">
<polygon fill="white" stroke="#666666" points="1293,-195 1161,-195 1161,-176 1293,-176 1293,-195"/>
<text text-anchor="middle" x="1227" y="-183" font-family="Helvetica,sans-Serif" font-size="10.00">utils/logging/Logger.cpp</text>
</a>
</g>
</g>
<!-- Node9&#45;&gt;Node16 -->
<g id="edge20_Node000009_Node000016" class="edge">
<title>Node9&#45;&gt;Node16</title>
<g id="a_edge20_Node000009_Node000016"><a xlink:title=" ">
<path fill="none" stroke="#63b8ff" d="M842.94,-231.24C929.93,-221.1 1076.24,-204.06 1160.94,-194.19"/>
<polygon fill="#63b8ff" stroke="#63b8ff" points="842.42,-227.77 832.89,-232.41 843.23,-234.73 842.42,-227.77"/>
</a>
</g>
</g>
<!-- Node10&#45;&gt;Node5 -->
<g id="edge16_Node000010_Node000005" class="edge">
<title>Node10&#45;&gt;Node5</title>
<g id="a_edge16_Node000010_Node000005"><a xlink:title=" ">
<path fill="none" stroke="#63b8ff" d="M795.18,-177.32C724.37,-170.03 627.52,-157.35 593,-140 561.3,-124.07 534.4,-90.13 522.93,-74.15"/>
<polygon fill="#63b8ff" stroke="#63b8ff" points="795.13,-180.83 805.43,-178.36 795.83,-173.87 795.13,-180.83"/>
</a>
</g>
</g>
<!-- Node11 -->
<g id="Node000011" class="node">
<title>Node11</title>
<g id="a_Node000011"><a xlink:href="ComponentCacheService_8cpp.html" target="_top" xlink:title=" ">
<polygon fill="white" stroke="#666666" points="805.5,-134.5 602.5,-134.5 602.5,-115.5 805.5,-115.5 805.5,-134.5"/>
<text text-anchor="middle" x="704" y="-122.5" font-family="Helvetica,sans-Serif" font-size="10.00">services/ComponentCacheService.cpp</text>
</a>
</g>
</g>
<!-- Node10&#45;&gt;Node11 -->
<g id="edge13_Node000010_Node000011" class="edge">
<title>Node10&#45;&gt;Node11</title>
<g id="a_edge13_Node000010_Node000011"><a xlink:title=" ">
<path fill="none" stroke="#63b8ff" d="M841.22,-172.67C807.96,-161.36 758.61,-144.57 729.04,-134.52"/>
<polygon fill="#63b8ff" stroke="#63b8ff" points="840.4,-176.09 850.99,-175.99 842.65,-169.46 840.4,-176.09"/>
</a>
</g>
</g>
<!-- Node12 -->
<g id="Node000012" class="node">
<title>Node12</title>
<g id="a_Node000012"><a xlink:href="ExportReportGenerator_8cpp.html" target="_top" xlink:title=" ">
<polygon fill="white" stroke="#666666" points="981,-140 823,-140 823,-110 981,-110 981,-140"/>
<text text-anchor="start" x="831" y="-128" font-family="Helvetica,sans-Serif" font-size="10.00">services/export/ExportReport</text>
<text text-anchor="middle" x="902" y="-117" font-family="Helvetica,sans-Serif" font-size="10.00">Generator.cpp</text>
</a>
</g>
</g>
<!-- Node10&#45;&gt;Node12 -->
<g id="edge14_Node000010_Node000012" class="edge">
<title>Node10&#45;&gt;Node12</title>
<g id="a_edge14_Node000010_Node000012"><a xlink:title=" ">
<path fill="none" stroke="#63b8ff" d="M884,-166.5C887.77,-158.01 892.2,-148.04 895.73,-140.11"/>
<polygon fill="#63b8ff" stroke="#63b8ff" points="880.7,-165.31 879.84,-175.87 887.1,-168.15 880.7,-165.31"/>
</a>
</g>
</g>
<!-- Node13 -->
<g id="Node000013" class="node">
<title>Node13</title>
<g id="a_Node000013"><a xlink:href="ExportProgressViewModel_8cpp.html" target="_top" xlink:title=" ">
<polygon fill="white" stroke="#666666" points="1163,-140 999,-140 999,-110 1163,-110 1163,-140"/>
<text text-anchor="start" x="1007" y="-128" font-family="Helvetica,sans-Serif" font-size="10.00">ui/viewmodels/ExportProgress</text>
<text text-anchor="middle" x="1081" y="-117" font-family="Helvetica,sans-Serif" font-size="10.00">ViewModel.cpp</text>
</a>
</g>
</g>
<!-- Node10&#45;&gt;Node13 -->
<g id="edge15_Node000010_Node000013" class="edge">
<title>Node10&#45;&gt;Node13</title>
<g id="a_edge15_Node000010_Node000013"><a xlink:title=" ">
<path fill="none" stroke="#63b8ff" d="M915.6,-173.2C948.73,-163.75 996.14,-150.22 1031.72,-140.06"/>
<polygon fill="#63b8ff" stroke="#63b8ff" points="914.46,-169.88 905.81,-175.99 916.39,-176.62 914.46,-169.88"/>
</a>
</g>
</g>
<!-- Node10&#45;&gt;Node14 -->
<g id="edge17_Node000010_Node000014" class="edge">
<title>Node10&#45;&gt;Node14</title>
<g id="a_edge17_Node000010_Node000014"><a xlink:title=" ">
<path fill="none" stroke="#63b8ff" d="M943.99,-174.48C1004,-165.59 1093.85,-152.16 1172,-140 1183.19,-138.26 1195.17,-136.35 1206.57,-134.53"/>
<polygon fill="#63b8ff" stroke="#63b8ff" points="943.26,-171.05 933.88,-175.98 944.28,-177.98 943.26,-171.05"/>
</a>
</g>
</g>
<!-- Node14&#45;&gt;Node5 -->
<g id="edge18_Node000014_Node000005" class="edge">
<title>Node14&#45;&gt;Node5</title>
<g id="a_edge18_Node000014_Node000005"><a xlink:title=" ">
<path fill="none" stroke="#63b8ff" d="M1200.89,-113.89C1191.26,-112.43 1181.36,-111.07 1172,-110 949.2,-84.56 681.97,-71.94 570.21,-67.46"/>
<polygon fill="#63b8ff" stroke="#63b8ff" points="1200.37,-117.35 1210.79,-115.43 1201.45,-110.44 1200.37,-117.35"/>
</a>
</g>
</g>
<!-- Node15 -->
<g id="Node000015" class="node">
<title>Node15</title>
<g id="a_Node000015"><a xlink:href="QtLogAdapter_8cpp.html" target="_top" xlink:title=" ">
<polygon fill="white" stroke="#666666" points="1342,-74 1176,-74 1176,-55 1342,-55 1342,-74"/>
<text text-anchor="middle" x="1259" y="-62" font-family="Helvetica,sans-Serif" font-size="10.00">utils/logging/QtLogAdapter.cpp</text>
</a>
</g>
</g>
<!-- Node14&#45;&gt;Node15 -->
<g id="edge19_Node000014_Node000015" class="edge">
<title>Node14&#45;&gt;Node15</title>
<g id="a_edge19_Node000014_Node000015"><a xlink:title=" ">
<path fill="none" stroke="#63b8ff" d="M1259,-105.16C1259,-94.74 1259,-82.3 1259,-74.17"/>
<polygon fill="#63b8ff" stroke="#63b8ff" points="1255.5,-105.37 1259,-115.37 1262.5,-105.37 1255.5,-105.37"/>
</a>
</g>
</g>
<!-- Node17&#45;&gt;Node5 -->
<g id="edge25_Node000017_Node000005" class="edge">
<title>Node17&#45;&gt;Node5</title>
<g id="a_edge25_Node000017_Node000005"><a xlink:title=" ">
<path fill="none" stroke="#63b8ff" d="M1311.82,-223.34C1336.17,-196.55 1376.95,-142.66 1346,-110 1319.26,-81.79 748.78,-69.52 570.05,-66.36"/>
<polygon fill="#63b8ff" stroke="#63b8ff" points="1309.17,-221.05 1304.89,-230.73 1314.28,-225.83 1309.17,-221.05"/>
</a>
</g>
</g>
<!-- Node17&#45;&gt;Node16 -->
<g id="edge26_Node000017_Node000016" class="edge">
<title>Node17&#45;&gt;Node16</title>
<g id="a_edge26_Node000017_Node000016"><a xlink:title=" ">
<path fill="none" stroke="#63b8ff" d="M1276.96,-224.88C1264.54,-215.34 1248.76,-203.21 1238.29,-195.17"/>
<polygon fill="#63b8ff" stroke="#63b8ff" points="1274.85,-227.67 1284.91,-230.98 1279.12,-222.12 1274.85,-227.67"/>
</a>
</g>
</g>
<!-- Node18 -->
<g id="Node000018" class="node">
<title>Node18</title>
<g id="a_Node000018"><a xlink:href="PatternFormatter_8cpp.html" target="_top" xlink:title=" ">
<polygon fill="white" stroke="#666666" points="1575,-195 1393,-195 1393,-176 1575,-176 1575,-195"/>
<text text-anchor="middle" x="1484" y="-183" font-family="Helvetica,sans-Serif" font-size="10.00">utils/logging/PatternFormatter.cpp</text>
</a>
</g>
</g>
<!-- Node17&#45;&gt;Node18 -->
<g id="edge27_Node000017_Node000018" class="edge">
<title>Node17&#45;&gt;Node18</title>
<g id="a_edge27_Node000017_Node000018"><a xlink:title=" ">
<path fill="none" stroke="#63b8ff" d="M1336.14,-228.18C1371.3,-218.27 1421.63,-204.08 1453.56,-195.08"/>
<polygon fill="#63b8ff" stroke="#63b8ff" points="1334.88,-224.9 1326.21,-230.98 1336.78,-231.64 1334.88,-224.9"/>
</a>
</g>
</g>
</g>
</svg>
