<?xml version="1.0" encoding="UTF-8" standalone="no"?>
<!DOCTYPE svg PUBLIC "-//W3C//DTD SVG 1.1//EN"
 "http://www.w3.org/Graphics/SVG/1.1/DTD/svg11.dtd">
<!-- Generated by graphviz version 2.43.0 (0)
 -->
<!-- Title: utils/logging/IFormatter.h Pages: 1 -->
<svg width="1140pt" height="357pt"
 viewBox="0.00 0.00 1140.00 357.00" xmlns="http://www.w3.org/2000/svg" xmlns:xlink="http://www.w3.org/1999/xlink">
<g id="graph0" class="graph" transform="scale(1 1) rotate(0) translate(4 353)">
<title>utils/logging/IFormatter.h</title>
<!-- Node1 -->
<g id="Node000001" class="node">
<title>Node1</title>
<g id="a_Node000001"><a xlink:title=" ">
<polygon fill="#999999" stroke="#666666" points="521.5,-349 382.5,-349 382.5,-330 521.5,-330 521.5,-349"/>
<text text-anchor="middle" x="452" y="-337" font-family="Helvetica,sans-Serif" font-size="10.00">utils/logging/IFormatter.h</text>
</a>
</g>
</g>
<!-- Node2 -->
<g id="Node000002" class="node">
<title>Node2</title>
<g id="a_Node000002"><a xlink:href="IAppender_8h.html" target="_top" xlink:title=" ">
<polygon fill="white" stroke="#666666" points="472.5,-294 335.5,-294 335.5,-275 472.5,-275 472.5,-294"/>
<text text-anchor="middle" x="404" y="-282" font-family="Helvetica,sans-Serif" font-size="10.00">utils/logging/IAppender.h</text>
</a>
</g>
</g>
<!-- Node1&#45;&gt;Node2 -->
<g id="edge1_Node000001_Node000002" class="edge">
<title>Node1&#45;&gt;Node2</title>
<g id="a_edge1_Node000001_Node000002"><a xlink:title=" ">
<path fill="none" stroke="#63b8ff" d="M437.27,-322.24C428.86,-312.95 418.65,-301.68 411.78,-294.09"/>
<polygon fill="#63b8ff" stroke="#63b8ff" points="434.77,-324.69 444.07,-329.75 439.96,-319.99 434.77,-324.69"/>
</a>
</g>
</g>
<!-- Node5 -->
<g id="Node000005" class="node">
<title>Node5</title>
<g id="a_Node000005"><a xlink:href="Log_8h.html" target="_top" xlink:title="EasyKiConverter 日志系统统一入口">
<polygon fill="white" stroke="#666666" points="474,-74 368,-74 368,-55 474,-55 474,-74"/>
<text text-anchor="middle" x="421" y="-62" font-family="Helvetica,sans-Serif" font-size="10.00">utils/logging/Log.h</text>
</a>
</g>
</g>
<!-- Node1&#45;&gt;Node5 -->
<g id="edge19_Node000001_Node000005" class="edge">
<title>Node1&#45;&gt;Node5</title>
<g id="a_edge19_Node000001_Node000005"><a xlink:title=" ">
<path fill="none" stroke="#63b8ff" d="M372.07,-335.68C242.28,-328.9 0,-306.11 0,-230.5 0,-230.5 0,-230.5 0,-173.5 0,-98.42 254.39,-74.81 367.68,-68.01"/>
<polygon fill="#63b8ff" stroke="#63b8ff" points="372.2,-339.19 382.37,-336.2 372.55,-332.2 372.2,-339.19"/>
</a>
</g>
</g>
<!-- Node9 -->
<g id="Node000009" class="node">
<title>Node9</title>
<g id="a_Node000009"><a xlink:href="Logger_8h.html" target="_top" xlink:title=" ">
<polygon fill="white" stroke="#666666" points="667.5,-239 546.5,-239 546.5,-220 667.5,-220 667.5,-239"/>
<text text-anchor="middle" x="607" y="-227" font-family="Helvetica,sans-Serif" font-size="10.00">utils/logging/Logger.h</text>
</a>
</g>
</g>
<!-- Node1&#45;&gt;Node9 -->
<g id="edge20_Node000001_Node000009" class="edge">
<title>Node1&#45;&gt;Node9</title>
<g id="a_edge20_Node000001_Node000009"><a xlink:title=" ">
<path fill="none" stroke="#63b8ff" d="M472.8,-324.01C505.5,-301.22 567.94,-257.72 594.52,-239.2"/>
<polygon fill="#63b8ff" stroke="#63b8ff" points="470.63,-321.26 464.42,-329.84 474.63,-327 470.63,-321.26"/>
</a>
</g>
</g>
<!-- Node14 -->
<g id="Node000014" class="node">
<title>Node14</title>
<g id="a_Node000014"><a xlink:href="PatternFormatter_8h.html" target="_top" xlink:title=" ">
<polygon fill="white" stroke="#666666" points="960,-239 790,-239 790,-220 960,-220 960,-239"/>
<text text-anchor="middle" x="875" y="-227" font-family="Helvetica,sans-Serif" font-size="10.00">utils/logging/PatternFormatter.h</text>
</a>
</g>
</g>
<!-- Node1&#45;&gt;Node14 -->
<g id="edge21_Node000001_Node000014" class="edge">
<title>Node1&#45;&gt;Node14</title>
<g id="a_edge21_Node000001_Node000014"><a xlink:title=" ">
<path fill="none" stroke="#63b8ff" d="M495.35,-327.43C579.94,-305.83 765.4,-258.48 841.45,-239.07"/>
<polygon fill="#63b8ff" stroke="#63b8ff" points="494.37,-324.07 485.55,-329.94 496.1,-330.85 494.37,-324.07"/>
</a>
</g>
</g>
<!-- Node3 -->
<g id="Node000003" class="node">
<title>Node3</title>
<g id="a_Node000003"><a xlink:href="ConsoleAppender_8h.html" target="_top" xlink:title=" ">
<polygon fill="white" stroke="#666666" points="244.5,-239 71.5,-239 71.5,-220 244.5,-220 244.5,-239"/>
<text text-anchor="middle" x="158" y="-227" font-family="Helvetica,sans-Serif" font-size="10.00">utils/logging/ConsoleAppender.h</text>
</a>
</g>
</g>
<!-- Node2&#45;&gt;Node3 -->
<g id="edge2_Node000002_Node000003" class="edge">
<title>Node2&#45;&gt;Node3</title>
<g id="a_edge2_Node000002_Node000003"><a xlink:title=" ">
<path fill="none" stroke="#63b8ff" d="M354.7,-272.88C308.59,-262.94 240.6,-248.3 197.83,-239.08"/>
<polygon fill="#63b8ff" stroke="#63b8ff" points="353.96,-276.3 364.48,-274.98 355.44,-269.46 353.96,-276.3"/>
</a>
</g>
</g>
<!-- Node2&#45;&gt;Node5 -->
<g id="edge9_Node000002_Node000005" class="edge">
<title>Node2&#45;&gt;Node5</title>
<g id="a_edge9_Node000002_Node000005"><a xlink:title=" ">
<path fill="none" stroke="#63b8ff" d="M360.07,-271.13C344.29,-264.33 328.14,-254.11 319,-239 314.63,-231.78 318.24,-228.41 319,-220 323.6,-169.04 319.98,-149.09 353,-110 366.47,-94.05 387.1,-81.67 402.1,-74.06"/>
<polygon fill="#63b8ff" stroke="#63b8ff" points="359.19,-274.54 369.78,-274.93 361.74,-268.03 359.19,-274.54"/>
</a>
</g>
</g>
<!-- Node7 -->
<g id="Node000007" class="node">
<title>Node7</title>
<g id="a_Node000007"><a xlink:href="FileAppender_8h.html" target="_top" xlink:title=" ">
<polygon fill="white" stroke="#666666" points="480,-239 328,-239 328,-220 480,-220 480,-239"/>
<text text-anchor="middle" x="404" y="-227" font-family="Helvetica,sans-Serif" font-size="10.00">utils/logging/FileAppender.h</text>
</a>
</g>
</g>
<!-- Node2&#45;&gt;Node7 -->
<g id="edge6_Node000002_Node000007" class="edge">
<title>Node2&#45;&gt;Node7</title>
<g id="a_edge6_Node000002_Node000007"><a xlink:title=" ">
<path fill="none" stroke="#63b8ff" d="M404,-264.66C404,-255.93 404,-245.99 404,-239.09"/>
<polygon fill="#63b8ff" stroke="#63b8ff" points="400.5,-264.75 404,-274.75 407.5,-264.75 400.5,-264.75"/>
</a>
</g>
</g>
<!-- Node2&#45;&gt;Node9 -->
<g id="edge10_Node000002_Node000009" class="edge">
<title>Node2&#45;&gt;Node9</title>
<g id="a_edge10_Node000002_Node000009"><a xlink:title=" ">
<path fill="none" stroke="#63b8ff" d="M446.37,-272.44C484.37,-262.52 539.36,-248.16 574.13,-239.08"/>
<polygon fill="#63b8ff" stroke="#63b8ff" points="445.41,-269.07 436.62,-274.98 447.18,-275.84 445.41,-269.07"/>
</a>
</g>
</g>
<!-- Node4 -->
<g id="Node000004" class="node">
<title>Node4</title>
<g id="a_Node000004"><a xlink:href="ConsoleAppender_8cpp.html" target="_top" xlink:title=" ">
<polygon fill="white" stroke="#666666" points="250.5,-184 65.5,-184 65.5,-165 250.5,-165 250.5,-184"/>
<text text-anchor="middle" x="158" y="-172" font-family="Helvetica,sans-Serif" font-size="10.00">utils/logging/ConsoleAppender.cpp</text>
</a>
</g>
</g>
<!-- Node3&#45;&gt;Node4 -->
<g id="edge3_Node000003_Node000004" class="edge">
<title>Node3&#45;&gt;Node4</title>
<g id="a_edge3_Node000003_Node000004"><a xlink:title=" ">
<path fill="none" stroke="#63b8ff" d="M158,-209.66C158,-200.93 158,-190.99 158,-184.09"/>
<polygon fill="#63b8ff" stroke="#63b8ff" points="154.5,-209.75 158,-219.75 161.5,-209.75 154.5,-209.75"/>
</a>
</g>
</g>
<!-- Node3&#45;&gt;Node5 -->
<g id="edge4_Node000003_Node000005" class="edge">
<title>Node3&#45;&gt;Node5</title>
<g id="a_edge4_Node000003_Node000005"><a xlink:title=" ">
<path fill="none" stroke="#63b8ff" d="M108.9,-217.25C74.32,-206.94 37.25,-189.55 56,-165 93.83,-115.48 276.11,-84.71 367.92,-72.09"/>
<polygon fill="#63b8ff" stroke="#63b8ff" points="107.97,-220.62 118.55,-219.96 109.87,-213.88 107.97,-220.62"/>
</a>
</g>
</g>
<!-- Node6 -->
<g id="Node000006" class="node">
<title>Node6</title>
<g id="a_Node000006"><a xlink:href="main_8cpp.html" target="_top" xlink:title=" ">
<polygon fill="white" stroke="#666666" points="452,-19 390,-19 390,0 452,0 452,-19"/>
<text text-anchor="middle" x="421" y="-7" font-family="Helvetica,sans-Serif" font-size="10.00">main.cpp</text>
</a>
</g>
</g>
<!-- Node5&#45;&gt;Node6 -->
<g id="edge5_Node000005_Node000006" class="edge">
<title>Node5&#45;&gt;Node6</title>
<g id="a_edge5_Node000005_Node000006"><a xlink:title=" ">
<path fill="none" stroke="#63b8ff" d="M421,-44.66C421,-35.93 421,-25.99 421,-19.09"/>
<polygon fill="#63b8ff" stroke="#63b8ff" points="417.5,-44.75 421,-54.75 424.5,-44.75 417.5,-44.75"/>
</a>
</g>
</g>
<!-- Node7&#45;&gt;Node5 -->
<g id="edge8_Node000007_Node000005" class="edge">
<title>Node7&#45;&gt;Node5</title>
<g id="a_edge8_Node000007_Node000005"><a xlink:title=" ">
<path fill="none" stroke="#63b8ff" d="M370.36,-215.43C356.83,-208.31 342.65,-198.03 335,-184 330.96,-176.59 332.05,-172.91 335,-165 350.06,-124.56 389.76,-89.6 409.5,-74.07"/>
<polygon fill="#63b8ff" stroke="#63b8ff" points="369.01,-218.66 379.53,-219.86 372.05,-212.36 369.01,-218.66"/>
</a>
</g>
</g>
<!-- Node8 -->
<g id="Node000008" class="node">
<title>Node8</title>
<g id="a_Node000008"><a xlink:href="FileAppender_8cpp.html" target="_top" xlink:title=" ">
<polygon fill="white" stroke="#666666" points="507.5,-184 344.5,-184 344.5,-165 507.5,-165 507.5,-184"/>
<text text-anchor="middle" x="426" y="-172" font-family="Helvetica,sans-Serif" font-size="10.00">utils/logging/FileAppender.cpp</text>
</a>
</g>
</g>
<!-- Node7&#45;&gt;Node8 -->
<g id="edge7_Node000007_Node000008" class="edge">
<title>Node7&#45;&gt;Node8</title>
<g id="a_edge7_Node000007_Node000008"><a xlink:title=" ">
<path fill="none" stroke="#63b8ff" d="M411.58,-210.24C415.26,-201.37 419.51,-191.14 422.43,-184.09"/>
<polygon fill="#63b8ff" stroke="#63b8ff" points="408.23,-209.17 407.63,-219.75 414.7,-211.85 408.23,-209.17"/>
</a>
</g>
</g>
<!-- Node9&#45;&gt;Node5 -->
<g id="edge11_Node000009_Node000005" class="edge">
<title>Node9&#45;&gt;Node5</title>
<g id="a_edge11_Node000009_Node000005"><a xlink:title=" ">
<path fill="none" stroke="#63b8ff" d="M588.89,-213.13C578.87,-204.59 566.21,-193.75 555,-184 508.14,-143.23 452.71,-93.84 430.7,-74.18"/>
<polygon fill="#63b8ff" stroke="#63b8ff" points="586.71,-215.87 596.6,-219.68 591.25,-210.54 586.71,-215.87"/>
</a>
</g>
</g>
<!-- Node10 -->
<g id="Node000010" class="node">
<title>Node10</title>
<g id="a_Node000010"><a xlink:href="LogMacros_8h.html" target="_top" xlink:title=" ">
<polygon fill="white" stroke="#666666" points="705.5,-184 564.5,-184 564.5,-165 705.5,-165 705.5,-184"/>
<text text-anchor="middle" x="635" y="-172" font-family="Helvetica,sans-Serif" font-size="10.00">utils/logging/LogMacros.h</text>
</a>
</g>
</g>
<!-- Node9&#45;&gt;Node10 -->
<g id="edge12_Node000009_Node000010" class="edge">
<title>Node9&#45;&gt;Node10</title>
<g id="a_edge12_Node000009_Node000010"><a xlink:title=" ">
<path fill="none" stroke="#63b8ff" d="M616.34,-210.82C621.09,-201.82 626.66,-191.29 630.46,-184.09"/>
<polygon fill="#63b8ff" stroke="#63b8ff" points="613.2,-209.27 611.62,-219.75 619.39,-212.54 613.2,-209.27"/>
</a>
</g>
</g>
<!-- Node11 -->
<g id="Node000011" class="node">
<title>Node11</title>
<g id="a_Node000011"><a xlink:href="QtLogAdapter_8h.html" target="_top" xlink:title=" ">
<polygon fill="white" stroke="#666666" points="757.5,-129 602.5,-129 602.5,-110 757.5,-110 757.5,-129"/>
<text text-anchor="middle" x="680" y="-117" font-family="Helvetica,sans-Serif" font-size="10.00">utils/logging/QtLogAdapter.h</text>
</a>
</g>
</g>
<!-- Node9&#45;&gt;Node11 -->
<g id="edge18_Node000009_Node000011" class="edge">
<title>Node9&#45;&gt;Node11</title>
<g id="a_edge18_Node000009_Node000011"><a xlink:title=" ">
<path fill="none" stroke="#63b8ff" d="M669.22,-216.64C686.99,-210.06 704.39,-199.85 715,-184 727.47,-165.38 705.68,-141.95 691.24,-129.41"/>
<polygon fill="#63b8ff" stroke="#63b8ff" points="667.74,-213.45 659.36,-219.93 669.95,-220.09 667.74,-213.45"/>
</a>
</g>
</g>
<!-- Node13 -->
<g id="Node000013" class="node">
<title>Node13</title>
<g id="a_Node000013"><a xlink:href="Logger_8cpp.html" target="_top" xlink:title=" ">
<polygon fill="white" stroke="#666666" points="894,-184 762,-184 762,-165 894,-165 894,-184"/>
<text text-anchor="middle" x="828" y="-172" font-family="Helvetica,sans-Serif" font-size="10.00">utils/logging/Logger.cpp</text>
</a>
</g>
</g>
<!-- Node9&#45;&gt;Node13 -->
<g id="edge17_Node000009_Node000013" class="edge">
<title>Node9&#45;&gt;Node13</title>
<g id="a_edge17_Node000009_Node000013"><a xlink:title=" ">
<path fill="none" stroke="#63b8ff" d="M652.34,-217.63C693.74,-207.7 754.12,-193.22 792.21,-184.08"/>
<polygon fill="#63b8ff" stroke="#63b8ff" points="651.42,-214.25 642.51,-219.98 653.05,-221.06 651.42,-214.25"/>
</a>
</g>
</g>
<!-- Node10&#45;&gt;Node5 -->
<g id="edge13_Node000010_Node000005" class="edge">
<title>Node10&#45;&gt;Node5</title>
<g id="a_edge13_Node000010_Node000005"><a xlink:title=" ">
<path fill="none" stroke="#63b8ff" d="M617.8,-158.11C601.35,-144.04 575.37,-123.43 550,-110 519.33,-93.76 481.51,-81.53 454.78,-74.05"/>
<polygon fill="#63b8ff" stroke="#63b8ff" points="615.64,-160.87 625.47,-164.8 620.23,-155.59 615.64,-160.87"/>
</a>
</g>
</g>
<!-- Node10&#45;&gt;Node11 -->
<g id="edge14_Node000010_Node000011" class="edge">
<title>Node10&#45;&gt;Node11</title>
<g id="a_edge14_Node000010_Node000011"><a xlink:title=" ">
<path fill="none" stroke="#63b8ff" d="M649.05,-156.96C656.89,-147.72 666.33,-136.6 672.71,-129.09"/>
<polygon fill="#63b8ff" stroke="#63b8ff" points="646.24,-154.86 642.43,-164.75 651.57,-159.39 646.24,-154.86"/>
</a>
</g>
</g>
<!-- Node11&#45;&gt;Node5 -->
<g id="edge15_Node000011_Node000005" class="edge">
<title>Node11&#45;&gt;Node5</title>
<g id="a_edge15_Node000011_Node000005"><a xlink:title=" ">
<path fill="none" stroke="#63b8ff" d="M628.4,-107.94C579.85,-98.01 508.06,-83.31 462.94,-74.08"/>
<polygon fill="#63b8ff" stroke="#63b8ff" points="627.89,-111.41 638.39,-109.98 629.29,-104.55 627.89,-111.41"/>
</a>
</g>
</g>
<!-- Node12 -->
<g id="Node000012" class="node">
<title>Node12</title>
<g id="a_Node000012"><a xlink:href="QtLogAdapter_8cpp.html" target="_top" xlink:title=" ">
<polygon fill="white" stroke="#666666" points="763,-74 597,-74 597,-55 763,-55 763,-74"/>
<text text-anchor="middle" x="680" y="-62" font-family="Helvetica,sans-Serif" font-size="10.00">utils/logging/QtLogAdapter.cpp</text>
</a>
</g>
</g>
<!-- Node11&#45;&gt;Node12 -->
<g id="edge16_Node000011_Node000012" class="edge">
<title>Node11&#45;&gt;Node12</title>
<g id="a_edge16_Node000011_Node000012"><a xlink:title=" ">
<path fill="none" stroke="#63b8ff" d="M680,-99.66C680,-90.93 680,-80.99 680,-74.09"/>
<polygon fill="#63b8ff" stroke="#63b8ff" points="676.5,-99.75 680,-109.75 683.5,-99.75 676.5,-99.75"/>
</a>
</g>
</g>
<!-- Node14&#45;&gt;Node5 -->
<g id="edge22_Node000014_Node000005" class="edge">
<title>Node14&#45;&gt;Node5</title>
<g id="a_edge22_Node000014_Node000005"><a xlink:title=" ">
<path fill="none" stroke="#63b8ff" d="M890.83,-212.31C901.9,-198.97 913.04,-179.89 903,-165 866.55,-110.94 830.07,-126.52 767,-110 665.49,-83.42 542.91,-72.44 474.27,-68.11"/>
<polygon fill="#63b8ff" stroke="#63b8ff" points="888.2,-210 884.14,-219.79 893.42,-214.67 888.2,-210"/>
</a>
</g>
</g>
<!-- Node14&#45;&gt;Node13 -->
<g id="edge23_Node000014_Node000013" class="edge">
<title>Node14&#45;&gt;Node13</title>
<g id="a_edge23_Node000014_Node000013"><a xlink:title=" ">
<path fill="none" stroke="#63b8ff" d="M860.58,-212.24C852.34,-202.95 842.35,-191.68 835.62,-184.09"/>
<polygon fill="#63b8ff" stroke="#63b8ff" points="857.99,-214.59 867.24,-219.75 863.22,-209.94 857.99,-214.59"/>
</a>
</g>
</g>
<!-- Node15 -->
<g id="Node000015" class="node">
<title>Node15</title>
<g id="a_Node000015"><a xlink:href="PatternFormatter_8cpp.html" target="_top" xlink:title=" ">
<polygon fill="white" stroke="#666666" points="1132,-184 950,-184 950,-165 1132,-165 1132,-184"/>
<text text-anchor="middle" x="1041" y="-172" font-family="Helvetica,sans-Serif" font-size="10.00">utils/logging/PatternFormatter.cpp</text>
</a>
</g>
</g>
<!-- Node14&#45;&gt;Node15 -->
<g id="edge24_Node000014_Node000015" class="edge">
<title>Node14&#45;&gt;Node15</title>
<g id="a_edge24_Node000014_Node000015"><a xlink:title=" ">
<path fill="none" stroke="#63b8ff" d="M911.25,-216.93C942.25,-207.03 986.17,-193.01 1014.12,-184.08"/>
<polygon fill="#63b8ff" stroke="#63b8ff" points="910.13,-213.61 901.67,-219.98 912.26,-220.28 910.13,-213.61"/>
</a>
</g>
</g>
</g>
</svg>
