<?xml version="1.0" encoding="UTF-8" standalone="no"?>
<!DOCTYPE svg PUBLIC "-//W3C//DTD SVG 1.1//EN"
 "http://www.w3.org/Graphics/SVG/1.1/DTD/svg11.dtd">
<!-- Generated by graphviz version 2.43.0 (0)
 -->
<!-- Title: utils/logging/IFormatter.h Pages: 1 -->
<svg width="510pt" height="192pt"
 viewBox="0.00 0.00 509.50 192.00" xmlns="http://www.w3.org/2000/svg" xmlns:xlink="http://www.w3.org/1999/xlink">
<g id="graph0" class="graph" transform="scale(1 1) rotate(0) translate(4 188)">
<title>utils/logging/IFormatter.h</title>
<!-- Node1 -->
<g id="Node000001" class="node">
<title>Node1</title>
<g id="a_Node000001"><a xlink:title=" ">
<polygon fill="#999999" stroke="#666666" points="451,-184 312,-184 312,-165 451,-165 451,-184"/>
<text text-anchor="middle" x="381.5" y="-172" font-family="Helvetica,sans-Serif" font-size="10.00">utils/logging/IFormatter.h</text>
</a>
</g>
</g>
<!-- Node2 -->
<g id="Node000002" class="node">
<title>Node2</title>
<g id="a_Node000002"><a xlink:href="LogRecord_8h.html" target="_top" xlink:title=" ">
<polygon fill="white" stroke="#666666" points="236,-129 159,-129 159,-110 236,-110 236,-129"/>
<text text-anchor="middle" x="197.5" y="-117" font-family="Helvetica,sans-Serif" font-size="10.00">LogRecord.h</text>
</a>
</g>
</g>
<!-- Node1&#45;&gt;Node2 -->
<g id="edge1_Node000001_Node000002" class="edge">
<title>Node1&#45;&gt;Node2</title>
<g id="a_edge1_Node000001_Node000002"><a xlink:title=" ">
<path fill="none" stroke="#63b8ff" d="M351.94,-164.98C320.78,-156.01 271.53,-141.82 237.04,-131.89"/>
<polygon fill="#63b8ff" stroke="#63b8ff" points="237.87,-128.49 227.29,-129.08 235.93,-135.21 237.87,-128.49"/>
</a>
</g>
</g>
<!-- Node4 -->
<g id="Node000004" class="node">
<title>Node4</title>
<g id="a_Node000004"><a xlink:title=" ">
<polygon fill="#e0e0e0" stroke="#999999" points="282,-19 229,-19 229,0 282,0 282,-19"/>
<text text-anchor="middle" x="255.5" y="-7" font-family="Helvetica,sans-Serif" font-size="10.00">QString</text>
</a>
</g>
</g>
<!-- Node1&#45;&gt;Node4 -->
<g id="edge12_Node000001_Node000004" class="edge">
<title>Node1&#45;&gt;Node4</title>
<g id="a_edge12_Node000001_Node000004"><a xlink:title=" ">
<path fill="none" stroke="#63b8ff" d="M382.72,-164.95C385.26,-143.81 388.82,-88.37 362.5,-55 345.46,-33.4 316.09,-22.17 292.43,-16.41"/>
<polygon fill="#63b8ff" stroke="#63b8ff" points="292.87,-12.92 282.35,-14.19 291.37,-19.76 292.87,-12.92"/>
</a>
</g>
</g>
<!-- Node9 -->
<g id="Node000009" class="node">
<title>Node9</title>
<g id="a_Node000009"><a xlink:title=" ">
<polygon fill="#e0e0e0" stroke="#999999" points="501.5,-129 409.5,-129 409.5,-110 501.5,-110 501.5,-129"/>
<text text-anchor="middle" x="455.5" y="-117" font-family="Helvetica,sans-Serif" font-size="10.00">QSharedPointer</text>
</a>
</g>
</g>
<!-- Node1&#45;&gt;Node9 -->
<g id="edge11_Node000001_Node000009" class="edge">
<title>Node1&#45;&gt;Node9</title>
<g id="a_edge11_Node000001_Node000009"><a xlink:title=" ">
<path fill="none" stroke="#63b8ff" d="M393.39,-164.98C404.65,-156.92 421.79,-144.65 435.21,-135.03"/>
<polygon fill="#63b8ff" stroke="#63b8ff" points="437.3,-137.84 443.39,-129.17 433.23,-132.15 437.3,-137.84"/>
</a>
</g>
</g>
<!-- Node3 -->
<g id="Node000003" class="node">
<title>Node3</title>
<g id="a_Node000003"><a xlink:href="LogLevel_8h.html" target="_top" xlink:title=" ">
<polygon fill="white" stroke="#666666" points="353,-74 284,-74 284,-55 353,-55 353,-74"/>
<text text-anchor="middle" x="318.5" y="-62" font-family="Helvetica,sans-Serif" font-size="10.00">LogLevel.h</text>
</a>
</g>
</g>
<!-- Node2&#45;&gt;Node3 -->
<g id="edge2_Node000002_Node000003" class="edge">
<title>Node2&#45;&gt;Node3</title>
<g id="a_edge2_Node000002_Node000003"><a xlink:title=" ">
<path fill="none" stroke="#63b8ff" d="M216.94,-109.98C236.49,-101.42 266.88,-88.11 289.32,-78.28"/>
<polygon fill="#63b8ff" stroke="#63b8ff" points="290.95,-81.39 298.71,-74.17 288.14,-74.98 290.95,-81.39"/>
</a>
</g>
</g>
<!-- Node2&#45;&gt;Node4 -->
<g id="edge9_Node000002_Node000004" class="edge">
<title>Node2&#45;&gt;Node4</title>
<g id="a_edge9_Node000002_Node000004"><a xlink:title=" ">
<path fill="none" stroke="#63b8ff" d="M192.15,-109.72C185.1,-96.92 174.69,-72.72 184.5,-55 192.34,-40.83 206.79,-30.57 220.61,-23.5"/>
<polygon fill="#63b8ff" stroke="#63b8ff" points="222.42,-26.52 229.99,-19.1 219.45,-20.18 222.42,-26.52"/>
</a>
</g>
</g>
<!-- Node5 -->
<g id="Node000005" class="node">
<title>Node5</title>
<g id="a_Node000005"><a xlink:href="LogModule_8h.html" target="_top" xlink:title=" ">
<polygon fill="white" stroke="#666666" points="137,-74 58,-74 58,-55 137,-55 137,-74"/>
<text text-anchor="middle" x="97.5" y="-62" font-family="Helvetica,sans-Serif" font-size="10.00">LogModule.h</text>
</a>
</g>
</g>
<!-- Node2&#45;&gt;Node5 -->
<g id="edge4_Node000002_Node000005" class="edge">
<title>Node2&#45;&gt;Node5</title>
<g id="a_edge4_Node000002_Node000005"><a xlink:title=" ">
<path fill="none" stroke="#63b8ff" d="M181.43,-109.98C165.64,-101.61 141.28,-88.7 122.87,-78.95"/>
<polygon fill="#63b8ff" stroke="#63b8ff" points="124.33,-75.76 113.86,-74.17 121.06,-81.95 124.33,-75.76"/>
</a>
</g>
</g>
<!-- Node7 -->
<g id="Node000007" class="node">
<title>Node7</title>
<g id="a_Node000007"><a xlink:title=" ">
<polygon fill="#e0e0e0" stroke="#999999" points="59,-19 0,-19 0,0 59,0 59,-19"/>
<text text-anchor="middle" x="29.5" y="-7" font-family="Helvetica,sans-Serif" font-size="10.00">QtGlobal</text>
</a>
</g>
</g>
<!-- Node2&#45;&gt;Node7 -->
<g id="edge10_Node000002_Node000007" class="edge">
<title>Node2&#45;&gt;Node7</title>
<g id="a_edge10_Node000002_Node000007"><a xlink:title=" ">
<path fill="none" stroke="#63b8ff" d="M158.77,-116.65C125.57,-113.03 78.62,-102.74 49.5,-74 37.56,-62.21 32.73,-43.37 30.78,-29.27"/>
<polygon fill="#63b8ff" stroke="#63b8ff" points="34.25,-28.79 29.76,-19.2 27.29,-29.5 34.25,-28.79"/>
</a>
</g>
</g>
<!-- Node8 -->
<g id="Node000008" class="node">
<title>Node8</title>
<g id="a_Node000008"><a xlink:title=" ">
<polygon fill="#e0e0e0" stroke="#999999" points="265.5,-74 193.5,-74 193.5,-55 265.5,-55 265.5,-74"/>
<text text-anchor="middle" x="229.5" y="-62" font-family="Helvetica,sans-Serif" font-size="10.00">QDateTime</text>
</a>
</g>
</g>
<!-- Node2&#45;&gt;Node8 -->
<g id="edge8_Node000002_Node000008" class="edge">
<title>Node2&#45;&gt;Node8</title>
<g id="a_edge8_Node000002_Node000008"><a xlink:title=" ">
<path fill="none" stroke="#63b8ff" d="M202.78,-109.75C207.21,-102.42 213.66,-91.73 219.12,-82.7"/>
<polygon fill="#63b8ff" stroke="#63b8ff" points="222.14,-84.46 224.31,-74.09 216.15,-80.84 222.14,-84.46"/>
</a>
</g>
</g>
<!-- Node3&#45;&gt;Node4 -->
<g id="edge3_Node000003_Node000004" class="edge">
<title>Node3&#45;&gt;Node4</title>
<g id="a_edge3_Node000003_Node000004"><a xlink:title=" ">
<path fill="none" stroke="#63b8ff" d="M308.38,-54.98C299.06,-47.15 285.03,-35.34 273.76,-25.86"/>
<polygon fill="#63b8ff" stroke="#63b8ff" points="275.71,-22.93 265.81,-19.17 271.21,-28.29 275.71,-22.93"/>
</a>
</g>
</g>
<!-- Node5&#45;&gt;Node4 -->
<g id="edge5_Node000005_Node000004" class="edge">
<title>Node5&#45;&gt;Node4</title>
<g id="a_edge5_Node000005_Node000004"><a xlink:title=" ">
<path fill="none" stroke="#63b8ff" d="M122.89,-54.98C149.3,-46.13 190.85,-32.19 220.39,-22.28"/>
<polygon fill="#63b8ff" stroke="#63b8ff" points="221.55,-25.58 229.92,-19.08 219.32,-18.94 221.55,-25.58"/>
</a>
</g>
</g>
<!-- Node6 -->
<g id="Node000006" class="node">
<title>Node6</title>
<g id="a_Node000006"><a xlink:title=" ">
<polygon fill="#e0e0e0" stroke="#999999" points="147.5,-19 77.5,-19 77.5,0 147.5,0 147.5,-19"/>
<text text-anchor="middle" x="112.5" y="-7" font-family="Helvetica,sans-Serif" font-size="10.00">QStringList</text>
</a>
</g>
</g>
<!-- Node5&#45;&gt;Node6 -->
<g id="edge6_Node000005_Node000006" class="edge">
<title>Node5&#45;&gt;Node6</title>
<g id="a_edge6_Node000005_Node000006"><a xlink:title=" ">
<path fill="none" stroke="#63b8ff" d="M99.98,-54.75C101.96,-47.72 104.82,-37.62 107.31,-28.84"/>
<polygon fill="#63b8ff" stroke="#63b8ff" points="110.71,-29.66 110.07,-19.09 103.98,-27.76 110.71,-29.66"/>
</a>
</g>
</g>
<!-- Node5&#45;&gt;Node7 -->
<g id="edge7_Node000005_Node000007" class="edge">
<title>Node5&#45;&gt;Node7</title>
<g id="a_edge7_Node000005_Node000007"><a xlink:title=" ">
<path fill="none" stroke="#63b8ff" d="M86.57,-54.98C76.42,-47.07 61.08,-35.11 48.85,-25.58"/>
<polygon fill="#63b8ff" stroke="#63b8ff" points="50.66,-22.56 40.62,-19.17 46.36,-28.08 50.66,-22.56"/>
</a>
</g>
</g>
</g>
</svg>
