<?xml version="1.0" encoding="UTF-8" standalone="no"?>
<!DOCTYPE svg PUBLIC "-//W3C//DTD SVG 1.1//EN"
 "http://www.w3.org/Graphics/SVG/1.1/DTD/svg11.dtd">
<!-- Generated by graphviz version 2.43.0 (0)
 -->
<!-- Title: utils/logging/IFormatter.h Pages: 1 -->
<svg width="1186pt" height="368pt"
 viewBox="0.00 0.00 1186.00 368.00" xmlns="http://www.w3.org/2000/svg" xmlns:xlink="http://www.w3.org/1999/xlink">
<g id="graph0" class="graph" transform="scale(1 1) rotate(0) translate(4 364)">
<title>utils/logging/IFormatter.h</title>
<!-- Node1 -->
<g id="Node000001" class="node">
<title>Node1</title>
<g id="a_Node000001"><a xlink:title=" ">
<polygon fill="#999999" stroke="#666666" points="509.5,-360 370.5,-360 370.5,-341 509.5,-341 509.5,-360"/>
<text text-anchor="middle" x="440" y="-348" font-family="Helvetica,sans-Serif" font-size="10.00">utils/logging/IFormatter.h</text>
</a>
</g>
</g>
<!-- Node2 -->
<g id="Node000002" class="node">
<title>Node2</title>
<g id="a_Node000002"><a xlink:href="IAppender_8h.html" target="_top" xlink:title=" ">
<polygon fill="white" stroke="#666666" points="460.5,-305 323.5,-305 323.5,-286 460.5,-286 460.5,-305"/>
<text text-anchor="middle" x="392" y="-293" font-family="Helvetica,sans-Serif" font-size="10.00">utils/logging/IAppender.h</text>
</a>
</g>
</g>
<!-- Node1&#45;&gt;Node2 -->
<g id="edge1_Node000001_Node000002" class="edge">
<title>Node1&#45;&gt;Node2</title>
<g id="a_edge1_Node000001_Node000002"><a xlink:title=" ">
<path fill="none" stroke="#63b8ff" d="M425.27,-333.24C416.86,-323.95 406.65,-312.68 399.78,-305.09"/>
<polygon fill="#63b8ff" stroke="#63b8ff" points="422.77,-335.69 432.07,-340.75 427.96,-330.99 422.77,-335.69"/>
</a>
</g>
</g>
<!-- Node5 -->
<g id="Node000005" class="node">
<title>Node5</title>
<g id="a_Node000005"><a xlink:href="Log_8h.html" target="_top" xlink:title="EasyKiConverter 日志系统统一入口">
<polygon fill="white" stroke="#666666" points="570,-74 464,-74 464,-55 570,-55 570,-74"/>
<text text-anchor="middle" x="517" y="-62" font-family="Helvetica,sans-Serif" font-size="10.00">utils/logging/Log.h</text>
</a>
</g>
</g>
<!-- Node1&#45;&gt;Node5 -->
<g id="edge20_Node000001_Node000005" class="edge">
<title>Node1&#45;&gt;Node5</title>
<g id="a_edge20_Node000001_Node000005"><a xlink:title=" ">
<path fill="none" stroke="#63b8ff" d="M360.22,-346.15C233.4,-338.63 0,-314.83 0,-241.5 0,-241.5 0,-241.5 0,-184.5 0,-90.09 331.53,-70.58 463.62,-66.55"/>
<polygon fill="#63b8ff" stroke="#63b8ff" points="360.1,-349.65 370.28,-346.73 360.5,-342.66 360.1,-349.65"/>
</a>
</g>
</g>
<!-- Node9 -->
<g id="Node000009" class="node">
<title>Node9</title>
<g id="a_Node000009"><a xlink:href="Logger_8h.html" target="_top" xlink:title=" ">
<polygon fill="white" stroke="#666666" points="652.5,-250 531.5,-250 531.5,-231 652.5,-231 652.5,-250"/>
<text text-anchor="middle" x="592" y="-238" font-family="Helvetica,sans-Serif" font-size="10.00">utils/logging/Logger.h</text>
</a>
</g>
</g>
<!-- Node1&#45;&gt;Node9 -->
<g id="edge21_Node000001_Node000009" class="edge">
<title>Node1&#45;&gt;Node9</title>
<g id="a_edge21_Node000001_Node000009"><a xlink:title=" ">
<path fill="none" stroke="#63b8ff" d="M460.4,-335.01C492.47,-312.22 553.69,-268.72 579.76,-250.2"/>
<polygon fill="#63b8ff" stroke="#63b8ff" points="458.31,-332.2 452.18,-340.84 462.36,-337.91 458.31,-332.2"/>
</a>
</g>
</g>
<!-- Node15 -->
<g id="Node000015" class="node">
<title>Node15</title>
<g id="a_Node000015"><a xlink:href="PatternFormatter_8h.html" target="_top" xlink:title=" ">
<polygon fill="white" stroke="#666666" points="1003,-250 833,-250 833,-231 1003,-231 1003,-250"/>
<text text-anchor="middle" x="918" y="-238" font-family="Helvetica,sans-Serif" font-size="10.00">utils/logging/PatternFormatter.h</text>
</a>
</g>
</g>
<!-- Node1&#45;&gt;Node15 -->
<g id="edge22_Node000001_Node000015" class="edge">
<title>Node1&#45;&gt;Node15</title>
<g id="a_edge22_Node000001_Node000015"><a xlink:title=" ">
<path fill="none" stroke="#63b8ff" d="M487.82,-338.69C582.87,-317.22 793.8,-269.56 880.09,-250.07"/>
<polygon fill="#63b8ff" stroke="#63b8ff" points="486.89,-335.32 477.91,-340.94 488.43,-342.15 486.89,-335.32"/>
</a>
</g>
</g>
<!-- Node3 -->
<g id="Node000003" class="node">
<title>Node3</title>
<g id="a_Node000003"><a xlink:href="ConsoleAppender_8h.html" target="_top" xlink:title=" ">
<polygon fill="white" stroke="#666666" points="282.5,-250 109.5,-250 109.5,-231 282.5,-231 282.5,-250"/>
<text text-anchor="middle" x="196" y="-238" font-family="Helvetica,sans-Serif" font-size="10.00">utils/logging/ConsoleAppender.h</text>
</a>
</g>
</g>
<!-- Node2&#45;&gt;Node3 -->
<g id="edge2_Node000002_Node000003" class="edge">
<title>Node2&#45;&gt;Node3</title>
<g id="a_edge2_Node000002_Node000003"><a xlink:title=" ">
<path fill="none" stroke="#63b8ff" d="M350.62,-283.31C313.95,-273.39 261.17,-259.12 227.74,-250.08"/>
<polygon fill="#63b8ff" stroke="#63b8ff" points="349.94,-286.75 360.51,-285.98 351.77,-280 349.94,-286.75"/>
</a>
</g>
</g>
<!-- Node2&#45;&gt;Node5 -->
<g id="edge9_Node000002_Node000005" class="edge">
<title>Node2&#45;&gt;Node5</title>
<g id="a_edge9_Node000002_Node000005"><a xlink:title=" ">
<path fill="none" stroke="#63b8ff" d="M312.83,-291.95C237.32,-287.88 130.67,-277.33 100,-250 74.95,-227.67 72.16,-207 85,-176 100.88,-137.67 113.7,-128.16 151,-110 204.95,-83.73 376.21,-72.07 464,-67.71"/>
<polygon fill="#63b8ff" stroke="#63b8ff" points="313.11,-295.47 323.27,-292.48 313.46,-288.48 313.11,-295.47"/>
</a>
</g>
</g>
<!-- Node7 -->
<g id="Node000007" class="node">
<title>Node7</title>
<g id="a_Node000007"><a xlink:href="FileAppender_8h.html" target="_top" xlink:title=" ">
<polygon fill="white" stroke="#666666" points="468,-250 316,-250 316,-231 468,-231 468,-250"/>
<text text-anchor="middle" x="392" y="-238" font-family="Helvetica,sans-Serif" font-size="10.00">utils/logging/FileAppender.h</text>
</a>
</g>
</g>
<!-- Node2&#45;&gt;Node7 -->
<g id="edge6_Node000002_Node000007" class="edge">
<title>Node2&#45;&gt;Node7</title>
<g id="a_edge6_Node000002_Node000007"><a xlink:title=" ">
<path fill="none" stroke="#63b8ff" d="M392,-275.66C392,-266.93 392,-256.99 392,-250.09"/>
<polygon fill="#63b8ff" stroke="#63b8ff" points="388.5,-275.75 392,-285.75 395.5,-275.75 388.5,-275.75"/>
</a>
</g>
</g>
<!-- Node2&#45;&gt;Node9 -->
<g id="edge10_Node000002_Node000009" class="edge">
<title>Node2&#45;&gt;Node9</title>
<g id="a_edge10_Node000002_Node000009"><a xlink:title=" ">
<path fill="none" stroke="#63b8ff" d="M434.22,-283.31C471.65,-273.39 525.5,-259.12 559.61,-250.08"/>
<polygon fill="#63b8ff" stroke="#63b8ff" points="432.9,-280.04 424.13,-285.98 434.7,-286.81 432.9,-280.04"/>
</a>
</g>
</g>
<!-- Node4 -->
<g id="Node000004" class="node">
<title>Node4</title>
<g id="a_Node000004"><a xlink:href="ConsoleAppender_8cpp.html" target="_top" xlink:title=" ">
<polygon fill="white" stroke="#666666" points="288.5,-195 103.5,-195 103.5,-176 288.5,-176 288.5,-195"/>
<text text-anchor="middle" x="196" y="-183" font-family="Helvetica,sans-Serif" font-size="10.00">utils/logging/ConsoleAppender.cpp</text>
</a>
</g>
</g>
<!-- Node3&#45;&gt;Node4 -->
<g id="edge3_Node000003_Node000004" class="edge">
<title>Node3&#45;&gt;Node4</title>
<g id="a_edge3_Node000003_Node000004"><a xlink:title=" ">
<path fill="none" stroke="#63b8ff" d="M196,-220.66C196,-211.93 196,-201.99 196,-195.09"/>
<polygon fill="#63b8ff" stroke="#63b8ff" points="192.5,-220.75 196,-230.75 199.5,-220.75 192.5,-220.75"/>
</a>
</g>
</g>
<!-- Node3&#45;&gt;Node5 -->
<g id="edge4_Node000003_Node000005" class="edge">
<title>Node3&#45;&gt;Node5</title>
<g id="a_edge4_Node000003_Node000005"><a xlink:title=" ">
<path fill="none" stroke="#63b8ff" d="M146.83,-228.19C112.21,-217.86 75.12,-200.45 94,-176 139.18,-117.51 360.42,-84.06 463.7,-71.4"/>
<polygon fill="#63b8ff" stroke="#63b8ff" points="145.91,-231.57 156.49,-230.92 147.82,-224.83 145.91,-231.57"/>
</a>
</g>
</g>
<!-- Node6 -->
<g id="Node000006" class="node">
<title>Node6</title>
<g id="a_Node000006"><a xlink:href="main_8cpp.html" target="_top" xlink:title=" ">
<polygon fill="white" stroke="#666666" points="548,-19 486,-19 486,0 548,0 548,-19"/>
<text text-anchor="middle" x="517" y="-7" font-family="Helvetica,sans-Serif" font-size="10.00">main.cpp</text>
</a>
</g>
</g>
<!-- Node5&#45;&gt;Node6 -->
<g id="edge5_Node000005_Node000006" class="edge">
<title>Node5&#45;&gt;Node6</title>
<g id="a_edge5_Node000005_Node000006"><a xlink:title=" ">
<path fill="none" stroke="#63b8ff" d="M517,-44.66C517,-35.93 517,-25.99 517,-19.09"/>
<polygon fill="#63b8ff" stroke="#63b8ff" points="513.5,-44.75 517,-54.75 520.5,-44.75 513.5,-44.75"/>
</a>
</g>
</g>
<!-- Node7&#45;&gt;Node5 -->
<g id="edge8_Node000007_Node000005" class="edge">
<title>Node7&#45;&gt;Node5</title>
<g id="a_edge8_Node000007_Node000005"><a xlink:title=" ">
<path fill="none" stroke="#63b8ff" d="M430.86,-227.17C447.47,-220.12 465.79,-209.7 478,-195 508.9,-157.79 515.32,-96.61 516.65,-74.13"/>
<polygon fill="#63b8ff" stroke="#63b8ff" points="429.36,-224 421.35,-230.93 431.93,-230.51 429.36,-224"/>
</a>
</g>
</g>
<!-- Node8 -->
<g id="Node000008" class="node">
<title>Node8</title>
<g id="a_Node000008"><a xlink:href="FileAppender_8cpp.html" target="_top" xlink:title=" ">
<polygon fill="white" stroke="#666666" points="469.5,-195 306.5,-195 306.5,-176 469.5,-176 469.5,-195"/>
<text text-anchor="middle" x="388" y="-183" font-family="Helvetica,sans-Serif" font-size="10.00">utils/logging/FileAppender.cpp</text>
</a>
</g>
</g>
<!-- Node7&#45;&gt;Node8 -->
<g id="edge7_Node000007_Node000008" class="edge">
<title>Node7&#45;&gt;Node8</title>
<g id="a_edge7_Node000007_Node000008"><a xlink:title=" ">
<path fill="none" stroke="#63b8ff" d="M390.58,-220.66C389.92,-211.93 389.17,-201.99 388.65,-195.09"/>
<polygon fill="#63b8ff" stroke="#63b8ff" points="387.1,-221.04 391.34,-230.75 394.08,-220.51 387.1,-221.04"/>
</a>
</g>
</g>
<!-- Node9&#45;&gt;Node5 -->
<g id="edge11_Node000009_Node000005" class="edge">
<title>Node9&#45;&gt;Node5</title>
<g id="a_edge11_Node000009_Node000005"><a xlink:title=" ">
<path fill="none" stroke="#63b8ff" d="M578.56,-222.62C572.61,-214.59 565.88,-204.65 561,-195 539.15,-151.77 524.18,-95.2 519,-74.01"/>
<polygon fill="#63b8ff" stroke="#63b8ff" points="575.94,-224.96 584.8,-230.77 581.5,-220.7 575.94,-224.96"/>
</a>
</g>
</g>
<!-- Node10 -->
<g id="Node000010" class="node">
<title>Node10</title>
<g id="a_Node000010"><a xlink:href="LogMacros_8h.html" target="_top" xlink:title=" ">
<polygon fill="white" stroke="#666666" points="711.5,-195 570.5,-195 570.5,-176 711.5,-176 711.5,-195"/>
<text text-anchor="middle" x="641" y="-183" font-family="Helvetica,sans-Serif" font-size="10.00">utils/logging/LogMacros.h</text>
</a>
</g>
</g>
<!-- Node9&#45;&gt;Node10 -->
<g id="edge12_Node000009_Node000010" class="edge">
<title>Node9&#45;&gt;Node10</title>
<g id="a_edge12_Node000009_Node000010"><a xlink:title=" ">
<path fill="none" stroke="#63b8ff" d="M607.03,-223.24C615.62,-213.95 626.04,-202.68 633.06,-195.09"/>
<polygon fill="#63b8ff" stroke="#63b8ff" points="604.31,-221.03 600.09,-230.75 609.45,-225.78 604.31,-221.03"/>
</a>
</g>
</g>
<!-- Node12 -->
<g id="Node000012" class="node">
<title>Node12</title>
<g id="a_Node000012"><a xlink:href="QtLogAdapter_8h.html" target="_top" xlink:title=" ">
<polygon fill="white" stroke="#666666" points="939.5,-134.5 784.5,-134.5 784.5,-115.5 939.5,-115.5 939.5,-134.5"/>
<text text-anchor="middle" x="862" y="-122.5" font-family="Helvetica,sans-Serif" font-size="10.00">utils/logging/QtLogAdapter.h</text>
</a>
</g>
</g>
<!-- Node9&#45;&gt;Node12 -->
<g id="edge19_Node000009_Node000012" class="edge">
<title>Node9&#45;&gt;Node12</title>
<g id="a_edge19_Node000009_Node000012"><a xlink:title=" ">
<path fill="none" stroke="#63b8ff" d="M629.87,-227.79C655.82,-219.44 690.87,-207.51 721,-195 767.56,-175.66 820.46,-148.24 846.22,-134.52"/>
<polygon fill="#63b8ff" stroke="#63b8ff" points="628.51,-224.55 620.05,-230.92 630.64,-231.22 628.51,-224.55"/>
</a>
</g>
</g>
<!-- Node14 -->
<g id="Node000014" class="node">
<title>Node14</title>
<g id="a_Node000014"><a xlink:href="Logger_8cpp.html" target="_top" xlink:title=" ">
<polygon fill="white" stroke="#666666" points="934,-195 802,-195 802,-176 934,-176 934,-195"/>
<text text-anchor="middle" x="868" y="-183" font-family="Helvetica,sans-Serif" font-size="10.00">utils/logging/Logger.cpp</text>
</a>
</g>
</g>
<!-- Node9&#45;&gt;Node14 -->
<g id="edge18_Node000009_Node000014" class="edge">
<title>Node9&#45;&gt;Node14</title>
<g id="a_edge18_Node000009_Node000014"><a xlink:title=" ">
<path fill="none" stroke="#63b8ff" d="M646.34,-229.07C698.08,-219.13 775.03,-204.35 823.31,-195.08"/>
<polygon fill="#63b8ff" stroke="#63b8ff" points="645.5,-225.66 636.34,-230.98 646.82,-232.54 645.5,-225.66"/>
</a>
</g>
</g>
<!-- Node10&#45;&gt;Node5 -->
<g id="edge14_Node000010_Node000005" class="edge">
<title>Node10&#45;&gt;Node5</title>
<g id="a_edge14_Node000010_Node000005"><a xlink:title=" ">
<path fill="none" stroke="#63b8ff" d="M623.95,-168.91C614.73,-160.42 603.18,-149.7 593,-140 568.39,-116.54 539.9,-88.32 525.81,-74.3"/>
<polygon fill="#63b8ff" stroke="#63b8ff" points="621.63,-171.53 631.36,-175.71 626.36,-166.37 621.63,-171.53"/>
</a>
</g>
</g>
<!-- Node11 -->
<g id="Node000011" class="node">
<title>Node11</title>
<g id="a_Node000011"><a xlink:href="ExportProgressViewModel_8cpp.html" target="_top" xlink:title=" ">
<polygon fill="white" stroke="#666666" points="766,-140 602,-140 602,-110 766,-110 766,-140"/>
<text text-anchor="start" x="610" y="-128" font-family="Helvetica,sans-Serif" font-size="10.00">ui/viewmodels/ExportProgress</text>
<text text-anchor="middle" x="684" y="-117" font-family="Helvetica,sans-Serif" font-size="10.00">ViewModel.cpp</text>
</a>
</g>
</g>
<!-- Node10&#45;&gt;Node11 -->
<g id="edge13_Node000010_Node000011" class="edge">
<title>Node10&#45;&gt;Node11</title>
<g id="a_edge13_Node000010_Node000011"><a xlink:title=" ">
<path fill="none" stroke="#63b8ff" d="M653.42,-167.61C659.82,-158.89 667.54,-148.39 673.63,-140.11"/>
<polygon fill="#63b8ff" stroke="#63b8ff" points="650.45,-165.74 647.34,-175.87 656.09,-169.88 650.45,-165.74"/>
</a>
</g>
</g>
<!-- Node10&#45;&gt;Node12 -->
<g id="edge15_Node000010_Node000012" class="edge">
<title>Node10&#45;&gt;Node12</title>
<g id="a_edge15_Node000010_Node000012"><a xlink:title=" ">
<path fill="none" stroke="#63b8ff" d="M682.95,-173.4C725.68,-162.08 791.02,-144.79 829.83,-134.52"/>
<polygon fill="#63b8ff" stroke="#63b8ff" points="681.91,-170.05 673.14,-175.99 683.7,-176.82 681.91,-170.05"/>
</a>
</g>
</g>
<!-- Node12&#45;&gt;Node5 -->
<g id="edge16_Node000012_Node000005" class="edge">
<title>Node12&#45;&gt;Node5</title>
<g id="a_edge16_Node000012_Node000005"><a xlink:title=" ">
<path fill="none" stroke="#63b8ff" d="M801.92,-113.81C735.43,-102.54 629.47,-84.57 567.23,-74.02"/>
<polygon fill="#63b8ff" stroke="#63b8ff" points="801.39,-117.27 811.83,-115.49 802.56,-110.37 801.39,-117.27"/>
</a>
</g>
</g>
<!-- Node13 -->
<g id="Node000013" class="node">
<title>Node13</title>
<g id="a_Node000013"><a xlink:href="QtLogAdapter_8cpp.html" target="_top" xlink:title=" ">
<polygon fill="white" stroke="#666666" points="945,-74 779,-74 779,-55 945,-55 945,-74"/>
<text text-anchor="middle" x="862" y="-62" font-family="Helvetica,sans-Serif" font-size="10.00">utils/logging/QtLogAdapter.cpp</text>
</a>
</g>
</g>
<!-- Node12&#45;&gt;Node13 -->
<g id="edge17_Node000012_Node000013" class="edge">
<title>Node12&#45;&gt;Node13</title>
<g id="a_edge17_Node000012_Node000013"><a xlink:title=" ">
<path fill="none" stroke="#63b8ff" d="M862,-105.16C862,-94.74 862,-82.3 862,-74.17"/>
<polygon fill="#63b8ff" stroke="#63b8ff" points="858.5,-105.37 862,-115.37 865.5,-105.37 858.5,-105.37"/>
</a>
</g>
</g>
<!-- Node15&#45;&gt;Node5 -->
<g id="edge23_Node000015_Node000005" class="edge">
<title>Node15&#45;&gt;Node5</title>
<g id="a_edge23_Node000015_Node000005"><a xlink:title=" ">
<path fill="none" stroke="#63b8ff" d="M930.39,-222.54C948.65,-195.34 977.68,-141.78 949,-110 924.03,-82.33 679.86,-70.85 570.04,-67.06"/>
<polygon fill="#63b8ff" stroke="#63b8ff" points="927.35,-220.79 924.5,-230.99 933.09,-224.79 927.35,-220.79"/>
</a>
</g>
</g>
<!-- Node15&#45;&gt;Node14 -->
<g id="edge24_Node000015_Node000014" class="edge">
<title>Node15&#45;&gt;Node14</title>
<g id="a_edge24_Node000015_Node000014"><a xlink:title=" ">
<path fill="none" stroke="#63b8ff" d="M902.66,-223.24C893.9,-213.95 883.26,-202.68 876.1,-195.09"/>
<polygon fill="#63b8ff" stroke="#63b8ff" points="900.34,-225.88 909.74,-230.75 905.43,-221.07 900.34,-225.88"/>
</a>
</g>
</g>
<!-- Node16 -->
<g id="Node000016" class="node">
<title>Node16</title>
<g id="a_Node000016"><a xlink:href="PatternFormatter_8cpp.html" target="_top" xlink:title=" ">
<polygon fill="white" stroke="#666666" points="1178,-195 996,-195 996,-176 1178,-176 1178,-195"/>
<text text-anchor="middle" x="1087" y="-183" font-family="Helvetica,sans-Serif" font-size="10.00">utils/logging/PatternFormatter.cpp</text>
</a>
</g>
</g>
<!-- Node15&#45;&gt;Node16 -->
<g id="edge25_Node000015_Node000016" class="edge">
<title>Node15&#45;&gt;Node16</title>
<g id="a_edge25_Node000015_Node000016"><a xlink:title=" ">
<path fill="none" stroke="#63b8ff" d="M954.9,-227.93C986.47,-218.03 1031.18,-204.01 1059.63,-195.08"/>
<polygon fill="#63b8ff" stroke="#63b8ff" points="953.65,-224.65 945.15,-230.98 955.74,-231.33 953.65,-224.65"/>
</a>
</g>
</g>
</g>
</svg>
