<?xml version="1.0" encoding="UTF-8" standalone="no"?>
<!DOCTYPE svg PUBLIC "-//W3C//DTD SVG 1.1//EN"
 "http://www.w3.org/Graphics/SVG/1.1/DTD/svg11.dtd">
<!-- Generated by graphviz version 2.43.0 (0)
 -->
<!-- Title: 类继承关系图 Pages: 1 -->
<svg width="498pt" height="1209pt"
 viewBox="0.00 0.00 498.00 1209.00" xmlns="http://www.w3.org/2000/svg" xmlns:xlink="http://www.w3.org/1999/xlink">
<g id="graph0" class="graph" transform="scale(1 1) rotate(0) translate(4 1205)">
<title>类继承关系图</title>
<!-- Node0 -->
<g id="Node000000" class="node">
<title>Node0</title>
<g id="a_Node000000"><a xlink:title=" ">
<polygon fill="#e0e0e0" stroke="#999999" points="63,-621.5 7,-621.5 7,-602.5 63,-602.5 63,-621.5"/>
<text text-anchor="middle" x="35" y="-609.5" font-family="Helvetica,sans-Serif" font-size="10.00">QObject</text>
</a>
</g>
</g>
<!-- Node1 -->
<g id="Node000001" class="node">
<title>Node1</title>
<g id="a_Node000001"><a xlink:href="classEasyKiConverter_1_1BomParser.html" target="_top" xlink:title="BOM 解析器类">
<polygon fill="white" stroke="#666666" points="272.5,-163.5 116.5,-163.5 116.5,-144.5 272.5,-144.5 272.5,-163.5"/>
<text text-anchor="middle" x="194.5" y="-151.5" font-family="Helvetica,sans-Serif" font-size="10.00">EasyKiConverter::BomParser</text>
</a>
</g>
</g>
<!-- Node0&#45;&gt;Node1 -->
<g id="edge5_Node000000_Node000001" class="edge">
<title>Node0&#45;&gt;Node1</title>
<g id="a_edge5_Node000000_Node000001"><a xlink:title=" ">
<path fill="none" stroke="#63b8ff" d="M36.3,-592.26C37.88,-515.06 47.61,-234.73 106,-173 109.52,-169.27 113.6,-166.19 118.01,-163.65"/>
<polygon fill="#63b8ff" stroke="#63b8ff" points="32.79,-592.43 36.11,-602.49 39.79,-592.56 32.79,-592.43"/>
</a>
</g>
</g>
<!-- Node2 -->
<g id="Node000002" class="node">
<title>Node2</title>
<g id="a_Node000002"><a xlink:href="classEasyKiConverter_1_1ComponentDataCollector.html" target="_top" xlink:title="元件数据收集器类">
<polygon fill="white" stroke="#666666" points="274.5,-126 114.5,-126 114.5,-96 274.5,-96 274.5,-126"/>
<text text-anchor="start" x="122.5" y="-114" font-family="Helvetica,sans-Serif" font-size="10.00">EasyKiConverter::Component</text>
<text text-anchor="middle" x="194.5" y="-103" font-family="Helvetica,sans-Serif" font-size="10.00">DataCollector</text>
</a>
</g>
</g>
<!-- Node0&#45;&gt;Node2 -->
<g id="edge6_Node000000_Node000002" class="edge">
<title>Node0&#45;&gt;Node2</title>
<g id="a_edge6_Node000000_Node000002"><a xlink:title=" ">
<path fill="none" stroke="#63b8ff" d="M36.13,-591.71C37.06,-509.77 44.67,-204.3 106,-135 109.03,-131.58 112.49,-128.63 116.25,-126.08"/>
<polygon fill="#63b8ff" stroke="#63b8ff" points="32.63,-592.09 36.03,-602.13 39.63,-592.16 32.63,-592.09"/>
</a>
</g>
</g>
<!-- Node3 -->
<g id="Node000003" class="node">
<title>Node3</title>
<g id="a_Node000003"><a xlink:href="classEasyKiConverter_1_1ComponentExportTask.html" target="_top" xlink:title="元件导出任务">
<polygon fill="white" stroke="#666666" points="274.5,-1201 114.5,-1201 114.5,-1171 274.5,-1171 274.5,-1201"/>
<text text-anchor="start" x="122.5" y="-1189" font-family="Helvetica,sans-Serif" font-size="10.00">EasyKiConverter::Component</text>
<text text-anchor="middle" x="194.5" y="-1178" font-family="Helvetica,sans-Serif" font-size="10.00">ExportTask</text>
</a>
</g>
</g>
<!-- Node0&#45;&gt;Node3 -->
<g id="edge7_Node000000_Node000003" class="edge">
<title>Node0&#45;&gt;Node3</title>
<g id="a_edge7_Node000000_Node000003"><a xlink:title=" ">
<path fill="none" stroke="#63b8ff" d="M37.22,-631.7C43.19,-725.16 70.42,-1121 106,-1162 108.99,-1165.45 112.43,-1168.43 116.18,-1170.99"/>
<polygon fill="#63b8ff" stroke="#63b8ff" points="40.71,-631.39 36.59,-621.63 33.72,-631.83 40.71,-631.39"/>
</a>
</g>
</g>
<!-- Node10 -->
<g id="Node000010" class="node">
<title>Node10</title>
<g id="a_Node000010"><a xlink:href="classEasyKiConverter_1_1ComponentListItemData.html" target="_top" xlink:title="元器件列表项数据模型">
<polygon fill="white" stroke="#666666" points="274.5,-78 114.5,-78 114.5,-48 274.5,-48 274.5,-78"/>
<text text-anchor="start" x="122.5" y="-66" font-family="Helvetica,sans-Serif" font-size="10.00">EasyKiConverter::Component</text>
<text text-anchor="middle" x="194.5" y="-55" font-family="Helvetica,sans-Serif" font-size="10.00">ListItemData</text>
</a>
</g>
</g>
<!-- Node0&#45;&gt;Node10 -->
<g id="edge8_Node000000_Node000010" class="edge">
<title>Node0&#45;&gt;Node10</title>
<g id="a_edge8_Node000000_Node000010"><a xlink:title=" ">
<path fill="none" stroke="#63b8ff" d="M35.83,-592.2C35.49,-506.01 38.49,-164.31 106,-87 109,-83.56 112.45,-80.59 116.2,-78.03"/>
<polygon fill="#63b8ff" stroke="#63b8ff" points="32.33,-592.44 35.89,-602.42 39.33,-592.4 32.33,-592.44"/>
</a>
</g>
</g>
<!-- Node11 -->
<g id="Node000011" class="node">
<title>Node11</title>
<g id="a_Node000011"><a xlink:href="classEasyKiConverter_1_1ComponentService.html" target="_top" xlink:title="元件服务类">
<polygon fill="white" stroke="#666666" points="274.5,-30 114.5,-30 114.5,0 274.5,0 274.5,-30"/>
<text text-anchor="start" x="122.5" y="-18" font-family="Helvetica,sans-Serif" font-size="10.00">EasyKiConverter::Component</text>
<text text-anchor="middle" x="194.5" y="-7" font-family="Helvetica,sans-Serif" font-size="10.00">Service</text>
</a>
</g>
</g>
<!-- Node0&#45;&gt;Node11 -->
<g id="edge9_Node000000_Node000011" class="edge">
<title>Node0&#45;&gt;Node11</title>
<g id="a_edge9_Node000000_Node000011"><a xlink:title=" ">
<path fill="none" stroke="#63b8ff" d="M35.58,-592.16C34.07,-501.13 32.42,-124.2 106,-39 108.88,-35.66 112.18,-32.77 115.77,-30.26"/>
<polygon fill="#63b8ff" stroke="#63b8ff" points="32.09,-592.5 35.77,-602.44 39.09,-592.37 32.09,-592.5"/>
</a>
</g>
</g>
<!-- Node12 -->
<g id="Node000012" class="node">
<title>Node12</title>
<g id="a_Node000012"><a xlink:href="classEasyKiConverter_1_1ConfigManager.html" target="_top" xlink:title="配置管理">
<polygon fill="white" stroke="#666666" points="283,-944.5 106,-944.5 106,-925.5 283,-925.5 283,-944.5"/>
<text text-anchor="middle" x="194.5" y="-932.5" font-family="Helvetica,sans-Serif" font-size="10.00">EasyKiConverter::ConfigManager</text>
</a>
</g>
</g>
<!-- Node0&#45;&gt;Node12 -->
<g id="edge10_Node000000_Node000012" class="edge">
<title>Node0&#45;&gt;Node12</title>
<g id="a_edge10_Node000000_Node000012"><a xlink:title=" ">
<path fill="none" stroke="#63b8ff" d="M37.78,-631.68C43.68,-692.64 64.67,-876.6 106,-917 109.33,-920.25 113.08,-922.99 117.1,-925.29"/>
<polygon fill="#63b8ff" stroke="#63b8ff" points="41.24,-631.13 36.82,-621.5 34.27,-631.79 41.24,-631.13"/>
</a>
</g>
</g>
<!-- Node13 -->
<g id="Node000013" class="node">
<title>Node13</title>
<g id="a_Node000013"><a xlink:href="classEasyKiConverter_1_1ConfigService.html" target="_top" xlink:title="配置服务">
<polygon fill="white" stroke="#666666" points="279.5,-907.5 109.5,-907.5 109.5,-888.5 279.5,-888.5 279.5,-907.5"/>
<text text-anchor="middle" x="194.5" y="-895.5" font-family="Helvetica,sans-Serif" font-size="10.00">EasyKiConverter::ConfigService</text>
</a>
</g>
</g>
<!-- Node0&#45;&gt;Node13 -->
<g id="edge11_Node000000_Node000013" class="edge">
<title>Node0&#45;&gt;Node13</title>
<g id="a_edge11_Node000000_Node000013"><a xlink:title=" ">
<path fill="none" stroke="#63b8ff" d="M38.47,-631.83C45.83,-687.83 69.45,-845.32 106,-880 109.49,-883.31 113.41,-886.08 117.62,-888.4"/>
<polygon fill="#63b8ff" stroke="#63b8ff" points="41.92,-631.25 37.18,-621.78 34.98,-632.14 41.92,-631.25"/>
</a>
</g>
</g>
<!-- Node14 -->
<g id="Node000014" class="node">
<title>Node14</title>
<g id="a_Node000014"><a xlink:href="classEasyKiConverter_1_1EasyedaApi.html" target="_top" xlink:title="EasyEDA API 客户端类">
<polygon fill="white" stroke="#666666" points="275,-870.5 114,-870.5 114,-851.5 275,-851.5 275,-870.5"/>
<text text-anchor="middle" x="194.5" y="-858.5" font-family="Helvetica,sans-Serif" font-size="10.00">EasyKiConverter::EasyedaApi</text>
</a>
</g>
</g>
<!-- Node0&#45;&gt;Node14 -->
<g id="edge12_Node000000_Node000014" class="edge">
<title>Node0&#45;&gt;Node14</title>
<g id="a_edge12_Node000000_Node000014"><a xlink:title=" ">
<path fill="none" stroke="#63b8ff" d="M35.77,-631.72C36.37,-676.28 44.45,-785.28 106,-842 110.12,-845.79 114.8,-848.89 119.82,-851.42"/>
<polygon fill="#63b8ff" stroke="#63b8ff" points="39.27,-631.62 35.75,-621.62 32.27,-631.63 39.27,-631.62"/>
</a>
</g>
</g>
<!-- Node15 -->
<g id="Node000015" class="node">
<title>Node15</title>
<g id="a_Node000015"><a xlink:href="classEasyKiConverter_1_1EasyedaImporter.html" target="_top" xlink:title="EasyEDA 数据导入器类">
<polygon fill="white" stroke="#666666" points="267,-833 122,-833 122,-803 267,-803 267,-833"/>
<text text-anchor="start" x="130" y="-821" font-family="Helvetica,sans-Serif" font-size="10.00">EasyKiConverter::Easyeda</text>
<text text-anchor="middle" x="194.5" y="-810" font-family="Helvetica,sans-Serif" font-size="10.00">Importer</text>
</a>
</g>
</g>
<!-- Node0&#45;&gt;Node15 -->
<g id="edge13_Node000000_Node000015" class="edge">
<title>Node0&#45;&gt;Node15</title>
<g id="a_edge13_Node000000_Node000015"><a xlink:title=" ">
<path fill="none" stroke="#63b8ff" d="M37.83,-631.66C42.37,-668.95 57.55,-750.15 106,-794 110.67,-798.23 116.02,-801.72 121.72,-804.61"/>
<polygon fill="#63b8ff" stroke="#63b8ff" points="41.29,-631.15 36.74,-621.58 34.33,-631.9 41.29,-631.15"/>
</a>
</g>
</g>
<!-- Node16 -->
<g id="Node000016" class="node">
<title>Node16</title>
<g id="a_Node000016"><a xlink:href="classEasyKiConverter_1_1ExportProgressViewModel.html" target="_top" xlink:title=" ">
<polygon fill="white" stroke="#666666" points="283,-785 106,-785 106,-755 283,-755 283,-785"/>
<text text-anchor="start" x="114" y="-773" font-family="Helvetica,sans-Serif" font-size="10.00">EasyKiConverter::ExportProgress</text>
<text text-anchor="middle" x="194.5" y="-762" font-family="Helvetica,sans-Serif" font-size="10.00">ViewModel</text>
</a>
</g>
</g>
<!-- Node0&#45;&gt;Node16 -->
<g id="edge14_Node000000_Node000016" class="edge">
<title>Node0&#45;&gt;Node16</title>
<g id="a_edge14_Node000000_Node000016"><a xlink:title=" ">
<path fill="none" stroke="#63b8ff" d="M40.87,-631.71C49.17,-661.07 68.86,-716.05 106,-746 110.29,-749.46 115.05,-752.42 120.06,-754.96"/>
<polygon fill="#63b8ff" stroke="#63b8ff" points="44.19,-630.58 38.24,-621.81 37.43,-632.38 44.19,-630.58"/>
</a>
</g>
</g>
<!-- Node17 -->
<g id="Node000017" class="node">
<title>Node17</title>
<g id="a_Node000017"><a xlink:href="classEasyKiConverter_1_1ExportService.html" target="_top" xlink:title=" ">
<polygon fill="white" stroke="#666666" points="280,-736.5 109,-736.5 109,-717.5 280,-717.5 280,-736.5"/>
<text text-anchor="middle" x="194.5" y="-724.5" font-family="Helvetica,sans-Serif" font-size="10.00">EasyKiConverter::ExportService</text>
</a>
</g>
</g>
<!-- Node0&#45;&gt;Node17 -->
<g id="edge15_Node000000_Node000017" class="edge">
<title>Node0&#45;&gt;Node17</title>
<g id="a_edge15_Node000000_Node000017"><a xlink:title=" ">
<path fill="none" stroke="#63b8ff" d="M44.45,-630.76C55.4,-652.82 76.62,-688.87 106,-708 111.99,-711.9 118.66,-715.02 125.56,-717.5"/>
<polygon fill="#63b8ff" stroke="#63b8ff" points="47.6,-629.24 40.15,-621.71 41.28,-632.25 47.6,-629.24"/>
</a>
</g>
</g>
<!-- Node19 -->
<g id="Node000019" class="node">
<title>Node19</title>
<g id="a_Node000019"><a xlink:href="classEasyKiConverter_1_1ExportSettingsViewModel.html" target="_top" xlink:title="导出设置视图模型">
<polygon fill="white" stroke="#666666" points="282,-699 107,-699 107,-669 282,-669 282,-699"/>
<text text-anchor="start" x="115" y="-687" font-family="Helvetica,sans-Serif" font-size="10.00">EasyKiConverter::ExportSettings</text>
<text text-anchor="middle" x="194.5" y="-676" font-family="Helvetica,sans-Serif" font-size="10.00">ViewModel</text>
</a>
</g>
</g>
<!-- Node0&#45;&gt;Node19 -->
<g id="edge17_Node000000_Node000019" class="edge">
<title>Node0&#45;&gt;Node19</title>
<g id="a_edge17_Node000000_Node000019"><a xlink:title=" ">
<path fill="none" stroke="#63b8ff" d="M55.69,-628.15C69.15,-638.51 87.8,-651.56 106,-660 113.29,-663.38 121.14,-666.37 129.05,-668.98"/>
<polygon fill="#63b8ff" stroke="#63b8ff" points="57.66,-625.25 47.64,-621.81 53.33,-630.75 57.66,-625.25"/>
</a>
</g>
</g>
<!-- Node5 -->
<g id="Node000005" class="node">
<title>Node5</title>
<g id="a_Node000005"><a xlink:href="classEasyKiConverter_1_1ExportWorker.html" target="_top" xlink:title="导出工作线程">
<polygon fill="white" stroke="#666666" points="279,-1152.5 110,-1152.5 110,-1133.5 279,-1133.5 279,-1152.5"/>
<text text-anchor="middle" x="194.5" y="-1140.5" font-family="Helvetica,sans-Serif" font-size="10.00">EasyKiConverter::ExportWorker</text>
</a>
</g>
</g>
<!-- Node0&#45;&gt;Node5 -->
<g id="edge18_Node000000_Node000005" class="edge">
<title>Node0&#45;&gt;Node5</title>
<g id="a_edge18_Node000000_Node000005"><a xlink:title=" ">
<path fill="none" stroke="#63b8ff" d="M35.78,-632C35.24,-717.58 37.63,-1051.87 106,-1125 109.07,-1128.29 112.57,-1131.06 116.36,-1133.39"/>
<polygon fill="#63b8ff" stroke="#63b8ff" points="39.28,-631.86 35.86,-621.83 32.28,-631.8 39.28,-631.86"/>
</a>
</g>
</g>
<!-- Node20 -->
<g id="Node000020" class="node">
<title>Node20</title>
<g id="a_Node000020"><a xlink:href="classEasyKiConverter_1_1Exporter3DModel.html" target="_top" xlink:title="3D 模型导出器类">
<polygon fill="white" stroke="#666666" points="270,-651 119,-651 119,-621 270,-621 270,-651"/>
<text text-anchor="start" x="127" y="-639" font-family="Helvetica,sans-Serif" font-size="10.00">EasyKiConverter::Exporter3</text>
<text text-anchor="middle" x="194.5" y="-628" font-family="Helvetica,sans-Serif" font-size="10.00">DModel</text>
</a>
</g>
</g>
<!-- Node0&#45;&gt;Node20 -->
<g id="edge19_Node000000_Node000020" class="edge">
<title>Node0&#45;&gt;Node20</title>
<g id="a_edge19_Node000000_Node000020"><a xlink:title=" ">
<path fill="none" stroke="#63b8ff" d="M73.06,-617.65C86.77,-619.74 102.85,-622.19 118.71,-624.6"/>
<polygon fill="#63b8ff" stroke="#63b8ff" points="73.49,-614.17 63.08,-616.13 72.43,-621.09 73.49,-614.17"/>
</a>
</g>
</g>
<!-- Node21 -->
<g id="Node000021" class="node">
<title>Node21</title>
<g id="a_Node000021"><a xlink:href="classEasyKiConverter_1_1ExporterFootprint.html" target="_top" xlink:title="KiCad 封装导出器类">
<polygon fill="white" stroke="#666666" points="267,-603 122,-603 122,-573 267,-573 267,-603"/>
<text text-anchor="start" x="130" y="-591" font-family="Helvetica,sans-Serif" font-size="10.00">EasyKiConverter::Exporter</text>
<text text-anchor="middle" x="194.5" y="-580" font-family="Helvetica,sans-Serif" font-size="10.00">Footprint</text>
</a>
</g>
</g>
<!-- Node0&#45;&gt;Node21 -->
<g id="edge20_Node000000_Node000021" class="edge">
<title>Node0&#45;&gt;Node21</title>
<g id="a_edge20_Node000000_Node000021"><a xlink:title=" ">
<path fill="none" stroke="#63b8ff" d="M73.17,-606.34C87.74,-604.12 104.96,-601.49 121.76,-598.93"/>
<polygon fill="#63b8ff" stroke="#63b8ff" points="72.43,-602.91 63.08,-607.87 73.49,-609.83 72.43,-602.91"/>
</a>
</g>
</g>
<!-- Node22 -->
<g id="Node000022" class="node">
<title>Node22</title>
<g id="a_Node000022"><a xlink:href="classEasyKiConverter_1_1ExporterSymbol.html" target="_top" xlink:title="KiCad 符号导出器类">
<polygon fill="white" stroke="#666666" points="267,-555 122,-555 122,-525 267,-525 267,-555"/>
<text text-anchor="start" x="130" y="-543" font-family="Helvetica,sans-Serif" font-size="10.00">EasyKiConverter::Exporter</text>
<text text-anchor="middle" x="194.5" y="-532" font-family="Helvetica,sans-Serif" font-size="10.00">Symbol</text>
</a>
</g>
</g>
<!-- Node0&#45;&gt;Node22 -->
<g id="edge21_Node000000_Node000022" class="edge">
<title>Node0&#45;&gt;Node22</title>
<g id="a_edge21_Node000000_Node000022"><a xlink:title=" ">
<path fill="none" stroke="#63b8ff" d="M55.69,-595.85C69.15,-585.49 87.8,-572.44 106,-564 113.29,-560.62 121.14,-557.63 129.05,-555.02"/>
<polygon fill="#63b8ff" stroke="#63b8ff" points="53.33,-593.25 47.64,-602.19 57.66,-598.75 53.33,-593.25"/>
</a>
</g>
</g>
<!-- Node6 -->
<g id="Node000006" class="node">
<title>Node6</title>
<g id="a_Node000006"><a xlink:href="classEasyKiConverter_1_1FetchWorker.html" target="_top" xlink:title="抓取工作线程">
<polygon fill="white" stroke="#666666" points="276.5,-1115.5 112.5,-1115.5 112.5,-1096.5 276.5,-1096.5 276.5,-1115.5"/>
<text text-anchor="middle" x="194.5" y="-1103.5" font-family="Helvetica,sans-Serif" font-size="10.00">EasyKiConverter::FetchWorker</text>
</a>
</g>
</g>
<!-- Node0&#45;&gt;Node6 -->
<g id="edge22_Node000000_Node000006" class="edge">
<title>Node0&#45;&gt;Node6</title>
<g id="a_edge22_Node000000_Node000006"><a xlink:title=" ">
<path fill="none" stroke="#63b8ff" d="M36.04,-632.3C36.63,-714.26 43.07,-1019.67 106,-1087 109.5,-1090.75 113.56,-1093.84 117.96,-1096.4"/>
<polygon fill="#63b8ff" stroke="#63b8ff" points="39.54,-631.86 35.99,-621.88 32.54,-631.9 39.54,-631.86"/>
</a>
</g>
</g>
<!-- Node23 -->
<g id="Node000023" class="node">
<title>Node23</title>
<g id="a_Node000023"><a xlink:href="classEasyKiConverter_1_1FileUtils.html" target="_top" xlink:title="文件操作工具类">
<polygon fill="white" stroke="#666666" points="266,-506.5 123,-506.5 123,-487.5 266,-487.5 266,-506.5"/>
<text text-anchor="middle" x="194.5" y="-494.5" font-family="Helvetica,sans-Serif" font-size="10.00">EasyKiConverter::FileUtils</text>
</a>
</g>
</g>
<!-- Node0&#45;&gt;Node23 -->
<g id="edge23_Node000000_Node000023" class="edge">
<title>Node0&#45;&gt;Node23</title>
<g id="a_edge23_Node000000_Node000023"><a xlink:title=" ">
<path fill="none" stroke="#63b8ff" d="M44.45,-593.24C55.4,-571.18 76.62,-535.13 106,-516 111.99,-512.1 118.66,-508.98 125.56,-506.5"/>
<polygon fill="#63b8ff" stroke="#63b8ff" points="41.28,-591.75 40.15,-602.29 47.6,-594.76 41.28,-591.75"/>
</a>
</g>
</g>
<!-- Node24 -->
<g id="Node000024" class="node">
<title>Node24</title>
<g id="a_Node000024"><a xlink:href="classEasyKiConverter_1_1INetworkAdapter.html" target="_top" xlink:title="网络适配器接口">
<polygon fill="white" stroke="#666666" points="268.5,-469 120.5,-469 120.5,-439 268.5,-439 268.5,-469"/>
<text text-anchor="start" x="128.5" y="-457" font-family="Helvetica,sans-Serif" font-size="10.00">EasyKiConverter::INetwork</text>
<text text-anchor="middle" x="194.5" y="-446" font-family="Helvetica,sans-Serif" font-size="10.00">Adapter</text>
</a>
</g>
</g>
<!-- Node0&#45;&gt;Node24 -->
<g id="edge24_Node000000_Node000024" class="edge">
<title>Node0&#45;&gt;Node24</title>
<g id="a_edge24_Node000000_Node000024"><a xlink:title=" ">
<path fill="none" stroke="#63b8ff" d="M40.96,-592.49C49.36,-563.4 69.19,-508.91 106,-479 110.78,-475.11 116.14,-471.83 121.78,-469.06"/>
<polygon fill="#63b8ff" stroke="#63b8ff" points="37.54,-591.72 38.28,-602.28 44.29,-593.56 37.54,-591.72"/>
</a>
</g>
</g>
<!-- Node26 -->
<g id="Node000026" class="node">
<title>Node26</title>
<g id="a_Node000026"><a xlink:href="classEasyKiConverter_1_1JLCDatasheet.html" target="_top" xlink:title="JLC 数据手册下载器类">
<polygon fill="white" stroke="#666666" points="279,-420.5 110,-420.5 110,-401.5 279,-401.5 279,-420.5"/>
<text text-anchor="middle" x="194.5" y="-408.5" font-family="Helvetica,sans-Serif" font-size="10.00">EasyKiConverter::JLCDatasheet</text>
</a>
</g>
</g>
<!-- Node0&#45;&gt;Node26 -->
<g id="edge26_Node000000_Node000026" class="edge">
<title>Node0&#45;&gt;Node26</title>
<g id="a_edge26_Node000000_Node000026"><a xlink:title=" ">
<path fill="none" stroke="#63b8ff" d="M37.62,-592.1C41.79,-554.4 56.39,-472.53 106,-430 110.48,-426.16 115.57,-423.03 120.97,-420.5"/>
<polygon fill="#63b8ff" stroke="#63b8ff" points="34.11,-592 36.63,-602.29 41.08,-592.68 34.11,-592"/>
</a>
</g>
</g>
<!-- Node27 -->
<g id="Node000027" class="node">
<title>Node27</title>
<g id="a_Node000027"><a xlink:href="classEasyKiConverter_1_1LanguageManager.html" target="_top" xlink:title="语言管理器">
<polygon fill="white" stroke="#666666" points="270,-383 119,-383 119,-353 270,-353 270,-383"/>
<text text-anchor="start" x="127" y="-371" font-family="Helvetica,sans-Serif" font-size="10.00">EasyKiConverter::Language</text>
<text text-anchor="middle" x="194.5" y="-360" font-family="Helvetica,sans-Serif" font-size="10.00">Manager</text>
</a>
</g>
</g>
<!-- Node0&#45;&gt;Node27 -->
<g id="edge27_Node000000_Node000027" class="edge">
<title>Node0&#45;&gt;Node27</title>
<g id="a_edge27_Node000000_Node000027"><a xlink:title=" ">
<path fill="none" stroke="#63b8ff" d="M36.39,-592.34C38.33,-549.72 49.03,-448.23 106,-393 109.97,-389.15 114.49,-385.89 119.34,-383.12"/>
<polygon fill="#63b8ff" stroke="#63b8ff" points="32.89,-592.39 36.05,-602.5 39.88,-592.62 32.89,-592.39"/>
</a>
</g>
</g>
<!-- Node28 -->
<g id="Node000028" class="node">
<title>Node28</title>
<g id="a_Node000028"><a xlink:href="classEasyKiConverter_1_1LcscImageService.html" target="_top" xlink:title="LCSC 图片服务类">
<polygon fill="white" stroke="#666666" points="272,-335 117,-335 117,-305 272,-305 272,-335"/>
<text text-anchor="start" x="125" y="-323" font-family="Helvetica,sans-Serif" font-size="10.00">EasyKiConverter::LcscImage</text>
<text text-anchor="middle" x="194.5" y="-312" font-family="Helvetica,sans-Serif" font-size="10.00">Service</text>
</a>
</g>
</g>
<!-- Node0&#45;&gt;Node28 -->
<g id="edge28_Node000000_Node000028" class="edge">
<title>Node0&#45;&gt;Node28</title>
<g id="a_edge28_Node000000_Node000028"><a xlink:title=" ">
<path fill="none" stroke="#63b8ff" d="M38.58,-592.28C46.25,-536.59 70.59,-379.85 106,-344 109.32,-340.64 113.07,-337.73 117.09,-335.23"/>
<polygon fill="#63b8ff" stroke="#63b8ff" points="35.1,-591.9 37.23,-602.28 42.04,-592.84 35.1,-591.9"/>
</a>
</g>
</g>
<!-- Node29 -->
<g id="Node000029" class="node">
<title>Node29</title>
<g id="a_Node000029"><a xlink:href="classEasyKiConverter_1_1Logger.html" target="_top" xlink:title="日志管理器">
<polygon fill="white" stroke="#666666" points="263,-286.5 126,-286.5 126,-267.5 263,-267.5 263,-286.5"/>
<text text-anchor="middle" x="194.5" y="-274.5" font-family="Helvetica,sans-Serif" font-size="10.00">EasyKiConverter::Logger</text>
</a>
</g>
</g>
<!-- Node0&#45;&gt;Node29 -->
<g id="edge29_Node000000_Node000029" class="edge">
<title>Node0&#45;&gt;Node29</title>
<g id="a_edge29_Node000000_Node000029"><a xlink:title=" ">
<path fill="none" stroke="#63b8ff" d="M37.62,-592.44C43.16,-530.2 63.46,-338.37 106,-296 111.62,-290.41 118.47,-286.29 125.84,-283.28"/>
<polygon fill="#63b8ff" stroke="#63b8ff" points="34.12,-592.22 36.75,-602.49 41.1,-592.82 34.12,-592.22"/>
</a>
</g>
</g>
<!-- Node7 -->
<g id="Node000007" class="node">
<title>Node7</title>
<g id="a_Node000007"><a xlink:href="classEasyKiConverter_1_1NetworkWorker.html" target="_top" xlink:title="网络工作线程">
<polygon fill="white" stroke="#666666" points="267,-1078 122,-1078 122,-1048 267,-1048 267,-1078"/>
<text text-anchor="start" x="130" y="-1066" font-family="Helvetica,sans-Serif" font-size="10.00">EasyKiConverter::Network</text>
<text text-anchor="middle" x="194.5" y="-1055" font-family="Helvetica,sans-Serif" font-size="10.00">Worker</text>
</a>
</g>
</g>
<!-- Node0&#45;&gt;Node7 -->
<g id="edge30_Node000000_Node000007" class="edge">
<title>Node0&#45;&gt;Node7</title>
<g id="a_edge30_Node000000_Node000007"><a xlink:title=" ">
<path fill="none" stroke="#63b8ff" d="M36.49,-631.6C38.79,-707.06 50.79,-977.66 106,-1039 110.53,-1044.03 116.01,-1048.06 121.99,-1051.26"/>
<polygon fill="#63b8ff" stroke="#63b8ff" points="39.99,-631.47 36.21,-621.58 32.99,-631.67 39.99,-631.47"/>
</a>
</g>
</g>
<!-- Node8 -->
<g id="Node000008" class="node">
<title>Node8</title>
<g id="a_Node000008"><a xlink:href="classEasyKiConverter_1_1ProcessWorker.html" target="_top" xlink:title="处理工作线程">
<polygon fill="white" stroke="#666666" points="265,-1030 124,-1030 124,-1000 265,-1000 265,-1030"/>
<text text-anchor="start" x="132" y="-1018" font-family="Helvetica,sans-Serif" font-size="10.00">EasyKiConverter::Process</text>
<text text-anchor="middle" x="194.5" y="-1007" font-family="Helvetica,sans-Serif" font-size="10.00">Worker</text>
</a>
</g>
</g>
<!-- Node0&#45;&gt;Node8 -->
<g id="edge31_Node000000_Node000008" class="edge">
<title>Node0&#45;&gt;Node8</title>
<g id="a_edge31_Node000000_Node000008"><a xlink:title=" ">
<path fill="none" stroke="#63b8ff" d="M36.94,-631.6C40.68,-701.53 56.8,-937.43 106,-991 111.01,-996.45 117.13,-1000.71 123.78,-1004.03"/>
<polygon fill="#63b8ff" stroke="#63b8ff" points="40.43,-631.33 36.43,-621.52 33.44,-631.69 40.43,-631.33"/>
</a>
</g>
</g>
<!-- Node30 -->
<g id="Node000030" class="node">
<title>Node30</title>
<g id="a_Node000030"><a xlink:href="classEasyKiConverter_1_1StageHandler.html" target="_top" xlink:title="流水线阶段处理器基类">
<polygon fill="white" stroke="#666666" points="279.5,-249.5 109.5,-249.5 109.5,-230.5 279.5,-230.5 279.5,-249.5"/>
<text text-anchor="middle" x="194.5" y="-237.5" font-family="Helvetica,sans-Serif" font-size="10.00">EasyKiConverter::StageHandler</text>
</a>
</g>
</g>
<!-- Node0&#45;&gt;Node30 -->
<g id="edge32_Node000000_Node000030" class="edge">
<title>Node0&#45;&gt;Node30</title>
<g id="a_edge32_Node000000_Node000030"><a xlink:title=" ">
<path fill="none" stroke="#63b8ff" d="M37.13,-592.37C41.39,-525.36 58.72,-307.14 106,-259 109.7,-255.23 113.97,-252.12 118.58,-249.58"/>
<polygon fill="#63b8ff" stroke="#63b8ff" points="33.63,-592.22 36.52,-602.42 40.62,-592.65 33.63,-592.22"/>
</a>
</g>
</g>
<!-- Node34 -->
<g id="Node000034" class="node">
<title>Node34</title>
<g id="a_Node000034"><a xlink:href="classEasyKiConverter_1_1ThemeSettingsViewModel.html" target="_top" xlink:title="主题设置视图模型类">
<polygon fill="white" stroke="#666666" points="283,-212 106,-212 106,-182 283,-182 283,-212"/>
<text text-anchor="start" x="114" y="-200" font-family="Helvetica,sans-Serif" font-size="10.00">EasyKiConverter::ThemeSettings</text>
<text text-anchor="middle" x="194.5" y="-189" font-family="Helvetica,sans-Serif" font-size="10.00">ViewModel</text>
</a>
</g>
</g>
<!-- Node0&#45;&gt;Node34 -->
<g id="edge36_Node000000_Node000034" class="edge">
<title>Node0&#45;&gt;Node34</title>
<g id="a_edge36_Node000000_Node000034"><a xlink:title=" ">
<path fill="none" stroke="#63b8ff" d="M36.87,-591.85C40.4,-519.98 55.85,-277.47 106,-222 109.5,-218.13 113.55,-214.85 117.95,-212.06"/>
<polygon fill="#63b8ff" stroke="#63b8ff" points="33.36,-592.06 36.39,-602.21 40.35,-592.38 33.36,-592.06"/>
</a>
</g>
</g>
<!-- Node9 -->
<g id="Node000009" class="node">
<title>Node9</title>
<g id="a_Node000009"><a xlink:href="classEasyKiConverter_1_1WriteWorker.html" target="_top" xlink:title="写入工作线程">
<polygon fill="white" stroke="#666666" points="276.5,-981.5 112.5,-981.5 112.5,-962.5 276.5,-962.5 276.5,-981.5"/>
<text text-anchor="middle" x="194.5" y="-969.5" font-family="Helvetica,sans-Serif" font-size="10.00">EasyKiConverter::WriteWorker</text>
</a>
</g>
</g>
<!-- Node0&#45;&gt;Node9 -->
<g id="edge37_Node000000_Node000009" class="edge">
<title>Node0&#45;&gt;Node9</title>
<g id="a_edge37_Node000000_Node000009"><a xlink:title=" ">
<path fill="none" stroke="#63b8ff" d="M37.26,-631.88C41.86,-697.84 59.94,-907.89 106,-954 109.29,-957.29 113.01,-960.06 117.01,-962.38"/>
<polygon fill="#63b8ff" stroke="#63b8ff" points="40.74,-631.37 36.58,-621.62 33.75,-631.84 40.74,-631.37"/>
</a>
</g>
</g>
<!-- Node18 -->
<g id="Node000018" class="node">
<title>Node18</title>
<g id="a_Node000018"><a xlink:href="classEasyKiConverter_1_1ExportServicePipeline.html" target="_top" xlink:title="流水线导出服务类">
<polygon fill="white" stroke="#666666" points="490,-742 319,-742 319,-712 490,-712 490,-742"/>
<text text-anchor="start" x="327" y="-730" font-family="Helvetica,sans-Serif" font-size="10.00">EasyKiConverter::ExportService</text>
<text text-anchor="middle" x="404.5" y="-719" font-family="Helvetica,sans-Serif" font-size="10.00">Pipeline</text>
</a>
</g>
</g>
<!-- Node17&#45;&gt;Node18 -->
<g id="edge16_Node000017_Node000018" class="edge">
<title>Node17&#45;&gt;Node18</title>
<g id="a_edge16_Node000017_Node000018"><a xlink:title=" ">
<path fill="none" stroke="#63b8ff" d="M290.39,-727C299.92,-727 309.56,-727 318.97,-727"/>
<polygon fill="#63b8ff" stroke="#63b8ff" points="290.1,-723.5 280.1,-727 290.1,-730.5 290.1,-723.5"/>
</a>
</g>
</g>
<!-- Node25 -->
<g id="Node000025" class="node">
<title>Node25</title>
<g id="a_Node000025"><a xlink:href="classEasyKiConverter_1_1NetworkUtils.html" target="_top" xlink:title="网络工具">
<polygon fill="white" stroke="#666666" points="477,-469 332,-469 332,-439 477,-439 477,-469"/>
<text text-anchor="start" x="340" y="-457" font-family="Helvetica,sans-Serif" font-size="10.00">EasyKiConverter::Network</text>
<text text-anchor="middle" x="404.5" y="-446" font-family="Helvetica,sans-Serif" font-size="10.00">Utils</text>
</a>
</g>
</g>
<!-- Node24&#45;&gt;Node25 -->
<g id="edge25_Node000024_Node000025" class="edge">
<title>Node24&#45;&gt;Node25</title>
<g id="a_edge25_Node000024_Node000025"><a xlink:title=" ">
<path fill="none" stroke="#63b8ff" d="M278.75,-454C296.28,-454 314.62,-454 331.69,-454"/>
<polygon fill="#63b8ff" stroke="#63b8ff" points="278.54,-450.5 268.54,-454 278.54,-457.5 278.54,-450.5"/>
</a>
</g>
</g>
<!-- Node31 -->
<g id="Node000031" class="node">
<title>Node31</title>
<g id="a_Node000031"><a xlink:href="classEasyKiConverter_1_1FetchStageHandler.html" target="_top" xlink:title="抓取阶段处理器">
<polygon fill="white" stroke="#666666" points="483.5,-255 325.5,-255 325.5,-225 483.5,-225 483.5,-255"/>
<text text-anchor="start" x="333.5" y="-243" font-family="Helvetica,sans-Serif" font-size="10.00">EasyKiConverter::FetchStage</text>
<text text-anchor="middle" x="404.5" y="-232" font-family="Helvetica,sans-Serif" font-size="10.00">Handler</text>
</a>
</g>
</g>
<!-- Node30&#45;&gt;Node31 -->
<g id="edge33_Node000030_Node000031" class="edge">
<title>Node30&#45;&gt;Node31</title>
<g id="a_edge33_Node000030_Node000031"><a xlink:title=" ">
<path fill="none" stroke="#63b8ff" d="M289.85,-240C301.68,-240 313.69,-240 325.24,-240"/>
<polygon fill="#63b8ff" stroke="#63b8ff" points="289.5,-236.5 279.5,-240 289.5,-243.5 289.5,-236.5"/>
</a>
</g>
</g>
<!-- Node32 -->
<g id="Node000032" class="node">
<title>Node32</title>
<g id="a_Node000032"><a xlink:href="classEasyKiConverter_1_1ProcessStageHandler.html" target="_top" xlink:title=" ">
<polygon fill="white" stroke="#666666" points="475,-207 334,-207 334,-177 475,-177 475,-207"/>
<text text-anchor="start" x="342" y="-195" font-family="Helvetica,sans-Serif" font-size="10.00">EasyKiConverter::Process</text>
<text text-anchor="middle" x="404.5" y="-184" font-family="Helvetica,sans-Serif" font-size="10.00">StageHandler</text>
</a>
</g>
</g>
<!-- Node30&#45;&gt;Node32 -->
<g id="edge34_Node000030_Node000032" class="edge">
<title>Node30&#45;&gt;Node32</title>
<g id="a_edge34_Node000030_Node000032"><a xlink:title=" ">
<path fill="none" stroke="#63b8ff" d="M250.31,-228.3C261.15,-225.92 272.44,-223.42 283,-221 302.3,-216.58 323.29,-211.6 342.26,-207.02"/>
<polygon fill="#63b8ff" stroke="#63b8ff" points="249.53,-224.88 240.51,-230.43 251.02,-231.72 249.53,-224.88"/>
</a>
</g>
</g>
<!-- Node33 -->
<g id="Node000033" class="node">
<title>Node33</title>
<g id="a_Node000033"><a xlink:href="classEasyKiConverter_1_1WriteStageHandler.html" target="_top" xlink:title=" ">
<polygon fill="white" stroke="#666666" points="483.5,-303 325.5,-303 325.5,-273 483.5,-273 483.5,-303"/>
<text text-anchor="start" x="333.5" y="-291" font-family="Helvetica,sans-Serif" font-size="10.00">EasyKiConverter::WriteStage</text>
<text text-anchor="middle" x="404.5" y="-280" font-family="Helvetica,sans-Serif" font-size="10.00">Handler</text>
</a>
</g>
</g>
<!-- Node30&#45;&gt;Node33 -->
<g id="edge35_Node000030_Node000033" class="edge">
<title>Node30&#45;&gt;Node33</title>
<g id="a_edge35_Node000030_Node000033"><a xlink:title=" ">
<path fill="none" stroke="#63b8ff" d="M250.31,-251.7C261.15,-254.08 272.44,-256.58 283,-259 302.3,-263.42 323.29,-268.4 342.26,-272.98"/>
<polygon fill="#63b8ff" stroke="#63b8ff" points="251.02,-248.28 240.51,-249.57 249.53,-255.12 251.02,-248.28"/>
</a>
</g>
</g>
<!-- Node4 -->
<g id="Node000004" class="node">
<title>Node4</title>
<g id="a_Node000004"><a xlink:title=" ">
<polygon fill="#e0e0e0" stroke="#999999" points="70,-1093.5 0,-1093.5 0,-1074.5 70,-1074.5 70,-1093.5"/>
<text text-anchor="middle" x="35" y="-1081.5" font-family="Helvetica,sans-Serif" font-size="10.00">QRunnable</text>
</a>
</g>
</g>
<!-- Node4&#45;&gt;Node3 -->
<g id="edge38_Node000004_Node000003" class="edge">
<title>Node4&#45;&gt;Node3</title>
<g id="a_edge38_Node000004_Node000003"><a xlink:title=" ">
<path fill="none" stroke="#63b8ff" d="M47.48,-1101.91C59.83,-1119.74 81.09,-1146.6 106,-1162 111.49,-1165.4 117.47,-1168.32 123.64,-1170.83"/>
<polygon fill="#63b8ff" stroke="#63b8ff" points="50.34,-1099.88 41.86,-1093.52 44.52,-1103.77 50.34,-1099.88"/>
</a>
</g>
</g>
<!-- Node4&#45;&gt;Node5 -->
<g id="edge39_Node000004_Node000005" class="edge">
<title>Node4&#45;&gt;Node5</title>
<g id="a_edge39_Node000004_Node000005"><a xlink:title=" ">
<path fill="none" stroke="#63b8ff" d="M57.76,-1099.25C71.12,-1107.97 88.91,-1118.44 106,-1125 114.83,-1128.39 124.42,-1131.18 133.91,-1133.48"/>
<polygon fill="#63b8ff" stroke="#63b8ff" points="59.53,-1096.23 49.27,-1093.57 55.63,-1102.04 59.53,-1096.23"/>
</a>
</g>
</g>
<!-- Node4&#45;&gt;Node6 -->
<g id="edge40_Node000004_Node000006" class="edge">
<title>Node4&#45;&gt;Node6</title>
<g id="a_edge40_Node000004_Node000006"><a xlink:title=" ">
<path fill="none" stroke="#63b8ff" d="M80.47,-1090.21C94.44,-1092.16 110.19,-1094.36 125.41,-1096.49"/>
<polygon fill="#63b8ff" stroke="#63b8ff" points="80.56,-1086.69 70.18,-1088.77 79.59,-1093.62 80.56,-1086.69"/>
</a>
</g>
</g>
<!-- Node4&#45;&gt;Node7 -->
<g id="edge41_Node000004_Node000007" class="edge">
<title>Node4&#45;&gt;Node7</title>
<g id="a_edge41_Node000004_Node000007"><a xlink:title=" ">
<path fill="none" stroke="#63b8ff" d="M80.2,-1078.11C93.16,-1076.38 107.67,-1074.44 121.88,-1072.55"/>
<polygon fill="#63b8ff" stroke="#63b8ff" points="79.62,-1074.65 70.18,-1079.44 80.55,-1081.59 79.62,-1074.65"/>
</a>
</g>
</g>
<!-- Node4&#45;&gt;Node8 -->
<g id="edge42_Node000004_Node000008" class="edge">
<title>Node4&#45;&gt;Node8</title>
<g id="a_edge42_Node000004_Node000008"><a xlink:title=" ">
<path fill="none" stroke="#63b8ff" d="M56.33,-1068.57C69.82,-1058.94 88.25,-1046.92 106,-1039 113.48,-1035.66 121.53,-1032.69 129.62,-1030.08"/>
<polygon fill="#63b8ff" stroke="#63b8ff" points="54.25,-1065.76 48.24,-1074.48 58.38,-1071.41 54.25,-1065.76"/>
</a>
</g>
</g>
<!-- Node4&#45;&gt;Node9 -->
<g id="edge43_Node000004_Node000009" class="edge">
<title>Node4&#45;&gt;Node9</title>
<g id="a_edge43_Node000004_Node000009"><a xlink:title=" ">
<path fill="none" stroke="#63b8ff" d="M44.93,-1065.21C56.11,-1043.78 77.35,-1009.35 106,-991 112.02,-987.14 118.7,-984.06 125.62,-981.59"/>
<polygon fill="#63b8ff" stroke="#63b8ff" points="41.72,-1063.79 40.38,-1074.3 47.98,-1066.92 41.72,-1063.79"/>
</a>
</g>
</g>
</g>
</svg>
