<?xml version="1.0" encoding="UTF-8" standalone="no"?>
<!DOCTYPE svg PUBLIC "-//W3C//DTD SVG 1.1//EN"
 "http://www.w3.org/Graphics/SVG/1.1/DTD/svg11.dtd">
<!-- Generated by graphviz version 2.43.0 (0)
 -->
<!-- Title: 类继承关系图 Pages: 1 -->
<svg width="364pt" height="76pt"
 viewBox="0.00 0.00 364.00 75.50" xmlns="http://www.w3.org/2000/svg" xmlns:xlink="http://www.w3.org/1999/xlink">
<g id="graph0" class="graph" transform="scale(1 1) rotate(0) translate(4 71.5)">
<title>类继承关系图</title>
<!-- Node0 -->
<g id="Node000000" class="node">
<title>Node0</title>
<g id="a_Node000000"><a xlink:href="classEasyKiConverter_1_1IAppender.html" target="_top" xlink:title="日志输出器接口">
<polygon fill="white" stroke="#666666" points="153,-40 0,-40 0,-21 153,-21 153,-40"/>
<text text-anchor="middle" x="76.5" y="-28" font-family="Helvetica,sans-Serif" font-size="10.00">EasyKiConverter::IAppender</text>
</a>
</g>
</g>
<!-- Node1 -->
<g id="Node000001" class="node">
<title>Node1</title>
<g id="a_Node000001"><a xlink:href="classEasyKiConverter_1_1ConsoleAppender.html" target="_top" xlink:title="控制台日志输出器">
<polygon fill="white" stroke="#666666" points="344,-67.5 201,-67.5 201,-37.5 344,-37.5 344,-67.5"/>
<text text-anchor="start" x="209" y="-55.5" font-family="Helvetica,sans-Serif" font-size="10.00">EasyKiConverter::Console</text>
<text text-anchor="middle" x="272.5" y="-44.5" font-family="Helvetica,sans-Serif" font-size="10.00">Appender</text>
</a>
</g>
</g>
<!-- Node0&#45;&gt;Node1 -->
<g id="edge1_Node000000_Node000001" class="edge">
<title>Node0&#45;&gt;Node1</title>
<g id="a_edge1_Node000000_Node000001"><a xlink:title=" ">
<path fill="none" stroke="#63b8ff" d="M163.11,-40.21C175.74,-41.64 188.63,-43.1 200.9,-44.49"/>
<polygon fill="#63b8ff" stroke="#63b8ff" points="163.39,-36.72 153.06,-39.07 162.6,-43.67 163.39,-36.72"/>
</a>
</g>
</g>
<!-- Node2 -->
<g id="Node000002" class="node">
<title>Node2</title>
<g id="a_Node000002"><a xlink:href="classEasyKiConverter_1_1FileAppender.html" target="_top" xlink:title="文件日志输出器">
<polygon fill="white" stroke="#666666" points="356,-19 189,-19 189,0 356,0 356,-19"/>
<text text-anchor="middle" x="272.5" y="-7" font-family="Helvetica,sans-Serif" font-size="10.00">EasyKiConverter::FileAppender</text>
</a>
</g>
</g>
<!-- Node0&#45;&gt;Node2 -->
<g id="edge2_Node000000_Node000002" class="edge">
<title>Node0&#45;&gt;Node2</title>
<g id="a_edge2_Node000000_Node000002"><a xlink:title=" ">
<path fill="none" stroke="#63b8ff" d="M163.02,-21.24C171.57,-20.32 180.24,-19.38 188.76,-18.46"/>
<polygon fill="#63b8ff" stroke="#63b8ff" points="162.63,-17.76 153.06,-22.32 163.38,-24.72 162.63,-17.76"/>
</a>
</g>
</g>
</g>
</svg>
