<?xml version="1.0" encoding="UTF-8" standalone="no"?>
<!DOCTYPE svg PUBLIC "-//W3C//DTD SVG 1.1//EN"
 "http://www.w3.org/Graphics/SVG/1.1/DTD/svg11.dtd">
<!-- Generated by graphviz version 2.43.0 (0)
 -->
<!-- Title: 类继承关系图 Pages: 1 -->
<svg width="498pt" height="1135pt"
 viewBox="0.00 0.00 498.00 1135.00" xmlns="http://www.w3.org/2000/svg" xmlns:xlink="http://www.w3.org/1999/xlink">
<g id="graph0" class="graph" transform="scale(1 1) rotate(0) translate(4 1131)">
<title>类继承关系图</title>
<!-- Node0 -->
<g id="Node000000" class="node">
<title>Node0</title>
<g id="a_Node000000"><a xlink:title=" ">
<polygon fill="#e0e0e0" stroke="#999999" points="63,-587.5 7,-587.5 7,-568.5 63,-568.5 63,-587.5"/>
<text text-anchor="middle" x="35" y="-575.5" font-family="Helvetica,sans-Serif" font-size="10.00">QObject</text>
</a>
</g>
</g>
<!-- Node1 -->
<g id="Node000001" class="node">
<title>Node1</title>
<g id="a_Node000001"><a xlink:href="classEasyKiConverter_1_1BomParser.html" target="_top" xlink:title="BOM 解析器类">
<polygon fill="white" stroke="#666666" points="272.5,-67.5 116.5,-67.5 116.5,-48.5 272.5,-48.5 272.5,-67.5"/>
<text text-anchor="middle" x="194.5" y="-55.5" font-family="Helvetica,sans-Serif" font-size="10.00">EasyKiConverter::BomParser</text>
</a>
</g>
</g>
<!-- Node0&#45;&gt;Node1 -->
<g id="edge5_Node000000_Node000001" class="edge">
<title>Node0&#45;&gt;Node1</title>
<g id="a_edge5_Node000000_Node000001"><a xlink:title=" ">
<path fill="none" stroke="#63b8ff" d="M35.87,-558.23C35.73,-474.3 39.54,-148.64 106,-77 109.49,-73.24 113.53,-70.13 117.93,-67.57"/>
<polygon fill="#63b8ff" stroke="#63b8ff" points="32.37,-558.42 35.91,-568.41 39.37,-558.4 32.37,-558.42"/>
</a>
</g>
</g>
<!-- Node2 -->
<g id="Node000002" class="node">
<title>Node2</title>
<g id="a_Node000002"><a xlink:href="classEasyKiConverter_1_1ComponentDataCollector.html" target="_top" xlink:title="元件数据收集器类">
<polygon fill="white" stroke="#666666" points="274.5,-30 114.5,-30 114.5,0 274.5,0 274.5,-30"/>
<text text-anchor="start" x="122.5" y="-18" font-family="Helvetica,sans-Serif" font-size="10.00">EasyKiConverter::Component</text>
<text text-anchor="middle" x="194.5" y="-7" font-family="Helvetica,sans-Serif" font-size="10.00">DataCollector</text>
</a>
</g>
</g>
<!-- Node0&#45;&gt;Node2 -->
<g id="edge6_Node000000_Node000002" class="edge">
<title>Node0&#45;&gt;Node2</title>
<g id="a_edge6_Node000000_Node000002"><a xlink:title=" ">
<path fill="none" stroke="#63b8ff" d="M35.75,-557.95C35.07,-469.92 36.79,-118.54 106,-39 109,-35.55 112.44,-32.58 116.19,-30.02"/>
<polygon fill="#63b8ff" stroke="#63b8ff" points="32.25,-558.2 35.85,-568.17 39.25,-558.13 32.25,-558.2"/>
</a>
</g>
</g>
<!-- Node3 -->
<g id="Node000003" class="node">
<title>Node3</title>
<g id="a_Node000003"><a xlink:href="classEasyKiConverter_1_1ComponentExportTask.html" target="_top" xlink:title="元件导出任务">
<polygon fill="white" stroke="#666666" points="274.5,-1127 114.5,-1127 114.5,-1097 274.5,-1097 274.5,-1127"/>
<text text-anchor="start" x="122.5" y="-1115" font-family="Helvetica,sans-Serif" font-size="10.00">EasyKiConverter::Component</text>
<text text-anchor="middle" x="194.5" y="-1104" font-family="Helvetica,sans-Serif" font-size="10.00">ExportTask</text>
</a>
</g>
</g>
<!-- Node0&#45;&gt;Node3 -->
<g id="edge7_Node000000_Node000003" class="edge">
<title>Node0&#45;&gt;Node3</title>
<g id="a_edge7_Node000000_Node000003"><a xlink:title=" ">
<path fill="none" stroke="#63b8ff" d="M37.45,-597.94C44.11,-687.56 72.98,-1050.34 106,-1088 109.01,-1091.44 112.46,-1094.4 116.22,-1096.96"/>
<polygon fill="#63b8ff" stroke="#63b8ff" points="40.92,-597.5 36.7,-587.78 33.94,-598.01 40.92,-597.5"/>
</a>
</g>
</g>
<!-- Node10 -->
<g id="Node000010" class="node">
<title>Node10</title>
<g id="a_Node000010"><a xlink:href="classEasyKiConverter_1_1ComponentListItemData.html" target="_top" xlink:title="元器件列表项数据模型">
<polygon fill="white" stroke="#666666" points="274.5,-870 114.5,-870 114.5,-840 274.5,-840 274.5,-870"/>
<text text-anchor="start" x="122.5" y="-858" font-family="Helvetica,sans-Serif" font-size="10.00">EasyKiConverter::Component</text>
<text text-anchor="middle" x="194.5" y="-847" font-family="Helvetica,sans-Serif" font-size="10.00">ListItemData</text>
</a>
</g>
</g>
<!-- Node0&#45;&gt;Node10 -->
<g id="edge8_Node000000_Node000010" class="edge">
<title>Node0&#45;&gt;Node10</title>
<g id="a_edge8_Node000000_Node000010"><a xlink:title=" ">
<path fill="none" stroke="#63b8ff" d="M35.34,-597.79C34.88,-645.12 40.58,-765.73 106,-831 109.46,-834.45 113.36,-837.41 117.55,-839.96"/>
<polygon fill="#63b8ff" stroke="#63b8ff" points="38.84,-597.72 35.54,-587.65 31.84,-597.58 38.84,-597.72"/>
</a>
</g>
</g>
<!-- Node11 -->
<g id="Node000011" class="node">
<title>Node11</title>
<g id="a_Node000011"><a xlink:href="classEasyKiConverter_1_1ComponentService.html" target="_top" xlink:title="元件服务类">
<polygon fill="white" stroke="#666666" points="274.5,-822 114.5,-822 114.5,-792 274.5,-792 274.5,-822"/>
<text text-anchor="start" x="122.5" y="-810" font-family="Helvetica,sans-Serif" font-size="10.00">EasyKiConverter::Component</text>
<text text-anchor="middle" x="194.5" y="-799" font-family="Helvetica,sans-Serif" font-size="10.00">Service</text>
</a>
</g>
</g>
<!-- Node0&#45;&gt;Node11 -->
<g id="edge9_Node000000_Node000011" class="edge">
<title>Node0&#45;&gt;Node11</title>
<g id="a_edge9_Node000000_Node000011"><a xlink:title=" ">
<path fill="none" stroke="#63b8ff" d="M36.86,-597.86C39.73,-638.66 52.16,-732.37 106,-783 109.67,-786.45 113.79,-789.42 118.19,-791.96"/>
<polygon fill="#63b8ff" stroke="#63b8ff" points="40.35,-597.61 36.28,-587.83 33.36,-598.01 40.35,-597.61"/>
</a>
</g>
</g>
<!-- Node12 -->
<g id="Node000012" class="node">
<title>Node12</title>
<g id="a_Node000012"><a xlink:href="classEasyKiConverter_1_1ConfigManager.html" target="_top" xlink:title="配置管理">
<polygon fill="white" stroke="#666666" points="283,-773.5 106,-773.5 106,-754.5 283,-754.5 283,-773.5"/>
<text text-anchor="middle" x="194.5" y="-761.5" font-family="Helvetica,sans-Serif" font-size="10.00">EasyKiConverter::ConfigManager</text>
</a>
</g>
</g>
<!-- Node0&#45;&gt;Node12 -->
<g id="edge10_Node000000_Node000012" class="edge">
<title>Node0&#45;&gt;Node12</title>
<g id="a_edge10_Node000000_Node000012"><a xlink:title=" ">
<path fill="none" stroke="#63b8ff" d="M38.29,-597.91C43.49,-633.46 59.58,-707.73 106,-746 110.07,-749.35 114.6,-752.14 119.4,-754.44"/>
<polygon fill="#63b8ff" stroke="#63b8ff" points="41.74,-597.27 36.96,-587.82 34.8,-598.19 41.74,-597.27"/>
</a>
</g>
</g>
<!-- Node13 -->
<g id="Node000013" class="node">
<title>Node13</title>
<g id="a_Node000013"><a xlink:href="classEasyKiConverter_1_1ConfigService.html" target="_top" xlink:title="配置服务">
<polygon fill="white" stroke="#666666" points="279.5,-736.5 109.5,-736.5 109.5,-717.5 279.5,-717.5 279.5,-736.5"/>
<text text-anchor="middle" x="194.5" y="-724.5" font-family="Helvetica,sans-Serif" font-size="10.00">EasyKiConverter::ConfigService</text>
</a>
</g>
</g>
<!-- Node0&#45;&gt;Node13 -->
<g id="edge11_Node000000_Node000013" class="edge">
<title>Node0&#45;&gt;Node13</title>
<g id="a_edge11_Node000000_Node000013"><a xlink:title=" ">
<path fill="none" stroke="#63b8ff" d="M40.77,-597.58C48.93,-626.69 68.44,-680.95 106,-709 110.47,-712.34 115.42,-715.1 120.62,-717.37"/>
<polygon fill="#63b8ff" stroke="#63b8ff" points="44.12,-596.54 38.18,-587.76 37.35,-598.32 44.12,-596.54"/>
</a>
</g>
</g>
<!-- Node14 -->
<g id="Node000014" class="node">
<title>Node14</title>
<g id="a_Node000014"><a xlink:href="classEasyKiConverter_1_1EasyedaApi.html" target="_top" xlink:title="EasyEDA API 客户端类">
<polygon fill="white" stroke="#666666" points="275,-699.5 114,-699.5 114,-680.5 275,-680.5 275,-699.5"/>
<text text-anchor="middle" x="194.5" y="-687.5" font-family="Helvetica,sans-Serif" font-size="10.00">EasyKiConverter::EasyedaApi</text>
</a>
</g>
</g>
<!-- Node0&#45;&gt;Node14 -->
<g id="edge12_Node000000_Node000014" class="edge">
<title>Node0&#45;&gt;Node14</title>
<g id="a_edge12_Node000000_Node000014"><a xlink:title=" ">
<path fill="none" stroke="#63b8ff" d="M44.93,-596.79C56.11,-618.22 77.35,-652.65 106,-671 112.02,-674.86 118.7,-677.94 125.62,-680.41"/>
<polygon fill="#63b8ff" stroke="#63b8ff" points="47.98,-595.08 40.38,-587.7 41.72,-598.21 47.98,-595.08"/>
</a>
</g>
</g>
<!-- Node15 -->
<g id="Node000015" class="node">
<title>Node15</title>
<g id="a_Node000015"><a xlink:href="classEasyKiConverter_1_1EasyedaImporter.html" target="_top" xlink:title="EasyEDA 数据导入器类">
<polygon fill="white" stroke="#666666" points="267,-662 122,-662 122,-632 267,-632 267,-662"/>
<text text-anchor="start" x="130" y="-650" font-family="Helvetica,sans-Serif" font-size="10.00">EasyKiConverter::Easyeda</text>
<text text-anchor="middle" x="194.5" y="-639" font-family="Helvetica,sans-Serif" font-size="10.00">Importer</text>
</a>
</g>
</g>
<!-- Node0&#45;&gt;Node15 -->
<g id="edge13_Node000000_Node000015" class="edge">
<title>Node0&#45;&gt;Node15</title>
<g id="a_edge13_Node000000_Node000015"><a xlink:title=" ">
<path fill="none" stroke="#63b8ff" d="M56.33,-593.43C69.82,-603.06 88.25,-615.08 106,-623 113.48,-626.34 121.53,-629.31 129.62,-631.92"/>
<polygon fill="#63b8ff" stroke="#63b8ff" points="58.38,-590.59 48.24,-587.52 54.25,-596.24 58.38,-590.59"/>
</a>
</g>
</g>
<!-- Node16 -->
<g id="Node000016" class="node">
<title>Node16</title>
<g id="a_Node000016"><a xlink:href="classEasyKiConverter_1_1ExportProgressViewModel.html" target="_top" xlink:title=" ">
<polygon fill="white" stroke="#666666" points="283,-614 106,-614 106,-584 283,-584 283,-614"/>
<text text-anchor="start" x="114" y="-602" font-family="Helvetica,sans-Serif" font-size="10.00">EasyKiConverter::ExportProgress</text>
<text text-anchor="middle" x="194.5" y="-591" font-family="Helvetica,sans-Serif" font-size="10.00">ViewModel</text>
</a>
</g>
</g>
<!-- Node0&#45;&gt;Node16 -->
<g id="edge14_Node000000_Node000016" class="edge">
<title>Node0&#45;&gt;Node16</title>
<g id="a_edge14_Node000000_Node000016"><a xlink:title=" ">
<path fill="none" stroke="#63b8ff" d="M73.01,-582.93C83.01,-584.27 94.29,-585.77 105.82,-587.31"/>
<polygon fill="#63b8ff" stroke="#63b8ff" points="73.45,-579.46 63.08,-581.61 72.52,-586.4 73.45,-579.46"/>
</a>
</g>
</g>
<!-- Node17 -->
<g id="Node000017" class="node">
<title>Node17</title>
<g id="a_Node000017"><a xlink:href="classEasyKiConverter_1_1ExportService.html" target="_top" xlink:title=" ">
<polygon fill="white" stroke="#666666" points="280,-565.5 109,-565.5 109,-546.5 280,-546.5 280,-565.5"/>
<text text-anchor="middle" x="194.5" y="-553.5" font-family="Helvetica,sans-Serif" font-size="10.00">EasyKiConverter::ExportService</text>
</a>
</g>
</g>
<!-- Node0&#45;&gt;Node17 -->
<g id="edge15_Node000000_Node000017" class="edge">
<title>Node0&#45;&gt;Node17</title>
<g id="a_edge15_Node000000_Node000017"><a xlink:title=" ">
<path fill="none" stroke="#63b8ff" d="M73.35,-572.78C88.96,-570.6 107.59,-568 125.48,-565.5"/>
<polygon fill="#63b8ff" stroke="#63b8ff" points="72.49,-569.37 63.08,-574.22 73.46,-576.3 72.49,-569.37"/>
</a>
</g>
</g>
<!-- Node19 -->
<g id="Node000019" class="node">
<title>Node19</title>
<g id="a_Node000019"><a xlink:href="classEasyKiConverter_1_1ExportSettingsViewModel.html" target="_top" xlink:title="导出设置视图模型">
<polygon fill="white" stroke="#666666" points="282,-528 107,-528 107,-498 282,-498 282,-528"/>
<text text-anchor="start" x="115" y="-516" font-family="Helvetica,sans-Serif" font-size="10.00">EasyKiConverter::ExportSettings</text>
<text text-anchor="middle" x="194.5" y="-505" font-family="Helvetica,sans-Serif" font-size="10.00">ViewModel</text>
</a>
</g>
</g>
<!-- Node0&#45;&gt;Node19 -->
<g id="edge17_Node000000_Node000019" class="edge">
<title>Node0&#45;&gt;Node19</title>
<g id="a_edge17_Node000000_Node000019"><a xlink:title=" ">
<path fill="none" stroke="#63b8ff" d="M59.01,-562.97C72.33,-554.76 89.65,-544.89 106,-538 114.74,-534.32 124.18,-530.99 133.53,-528.05"/>
<polygon fill="#63b8ff" stroke="#63b8ff" points="57.09,-560.05 50.49,-568.34 60.82,-565.97 57.09,-560.05"/>
</a>
</g>
</g>
<!-- Node5 -->
<g id="Node000005" class="node">
<title>Node5</title>
<g id="a_Node000005"><a xlink:href="classEasyKiConverter_1_1ExportWorker.html" target="_top" xlink:title="导出工作线程">
<polygon fill="white" stroke="#666666" points="279,-1078.5 110,-1078.5 110,-1059.5 279,-1059.5 279,-1078.5"/>
<text text-anchor="middle" x="194.5" y="-1066.5" font-family="Helvetica,sans-Serif" font-size="10.00">EasyKiConverter::ExportWorker</text>
</a>
</g>
</g>
<!-- Node0&#45;&gt;Node5 -->
<g id="edge18_Node000000_Node000005" class="edge">
<title>Node0&#45;&gt;Node5</title>
<g id="a_edge18_Node000000_Node000005"><a xlink:title=" ">
<path fill="none" stroke="#63b8ff" d="M36.03,-598.23C36.59,-679.93 42.94,-984.31 106,-1051 109.09,-1054.27 112.6,-1057.03 116.4,-1059.35"/>
<polygon fill="#63b8ff" stroke="#63b8ff" points="39.53,-597.83 35.99,-587.85 32.53,-597.86 39.53,-597.83"/>
</a>
</g>
</g>
<!-- Node20 -->
<g id="Node000020" class="node">
<title>Node20</title>
<g id="a_Node000020"><a xlink:href="classEasyKiConverter_1_1Exporter3DModel.html" target="_top" xlink:title="3D 模型导出器类">
<polygon fill="white" stroke="#666666" points="270,-480 119,-480 119,-450 270,-450 270,-480"/>
<text text-anchor="start" x="127" y="-468" font-family="Helvetica,sans-Serif" font-size="10.00">EasyKiConverter::Exporter3</text>
<text text-anchor="middle" x="194.5" y="-457" font-family="Helvetica,sans-Serif" font-size="10.00">DModel</text>
</a>
</g>
</g>
<!-- Node0&#45;&gt;Node20 -->
<g id="edge19_Node000000_Node000020" class="edge">
<title>Node0&#45;&gt;Node20</title>
<g id="a_edge19_Node000000_Node000020"><a xlink:title=" ">
<path fill="none" stroke="#63b8ff" d="M45.82,-559.37C57.49,-539.06 78.84,-507.03 106,-489 111.12,-485.6 116.71,-482.68 122.51,-480.18"/>
<polygon fill="#63b8ff" stroke="#63b8ff" points="42.66,-557.85 40.89,-568.3 48.79,-561.24 42.66,-557.85"/>
</a>
</g>
</g>
<!-- Node21 -->
<g id="Node000021" class="node">
<title>Node21</title>
<g id="a_Node000021"><a xlink:href="classEasyKiConverter_1_1ExporterFootprint.html" target="_top" xlink:title="KiCad 封装导出器类">
<polygon fill="white" stroke="#666666" points="267,-432 122,-432 122,-402 267,-402 267,-432"/>
<text text-anchor="start" x="130" y="-420" font-family="Helvetica,sans-Serif" font-size="10.00">EasyKiConverter::Exporter</text>
<text text-anchor="middle" x="194.5" y="-409" font-family="Helvetica,sans-Serif" font-size="10.00">Footprint</text>
</a>
</g>
</g>
<!-- Node0&#45;&gt;Node21 -->
<g id="edge20_Node000000_Node000021" class="edge">
<title>Node0&#45;&gt;Node21</title>
<g id="a_edge20_Node000000_Node000021"><a xlink:title=" ">
<path fill="none" stroke="#63b8ff" d="M40.63,-558.29C48.68,-528.39 68.16,-471.79 106,-441 110.76,-437.12 116.11,-433.87 121.74,-431.14"/>
<polygon fill="#63b8ff" stroke="#63b8ff" points="37.14,-557.78 38.08,-568.34 43.93,-559.5 37.14,-557.78"/>
</a>
</g>
</g>
<!-- Node22 -->
<g id="Node000022" class="node">
<title>Node22</title>
<g id="a_Node000022"><a xlink:href="classEasyKiConverter_1_1ExporterSymbol.html" target="_top" xlink:title="KiCad 符号导出器类">
<polygon fill="white" stroke="#666666" points="267,-384 122,-384 122,-354 267,-354 267,-384"/>
<text text-anchor="start" x="130" y="-372" font-family="Helvetica,sans-Serif" font-size="10.00">EasyKiConverter::Exporter</text>
<text text-anchor="middle" x="194.5" y="-361" font-family="Helvetica,sans-Serif" font-size="10.00">Symbol</text>
</a>
</g>
</g>
<!-- Node0&#45;&gt;Node22 -->
<g id="edge21_Node000000_Node000022" class="edge">
<title>Node0&#45;&gt;Node22</title>
<g id="a_edge21_Node000000_Node000022"><a xlink:title=" ">
<path fill="none" stroke="#63b8ff" d="M37.72,-558.03C42.08,-520.13 56.98,-437.62 106,-393 110.66,-388.76 116,-385.26 121.69,-382.37"/>
<polygon fill="#63b8ff" stroke="#63b8ff" points="34.21,-557.96 36.68,-568.26 41.18,-558.67 34.21,-557.96"/>
</a>
</g>
</g>
<!-- Node6 -->
<g id="Node000006" class="node">
<title>Node6</title>
<g id="a_Node000006"><a xlink:href="classEasyKiConverter_1_1FetchWorker.html" target="_top" xlink:title="抓取工作线程">
<polygon fill="white" stroke="#666666" points="276.5,-1041.5 112.5,-1041.5 112.5,-1022.5 276.5,-1022.5 276.5,-1041.5"/>
<text text-anchor="middle" x="194.5" y="-1029.5" font-family="Helvetica,sans-Serif" font-size="10.00">EasyKiConverter::FetchWorker</text>
</a>
</g>
</g>
<!-- Node0&#45;&gt;Node6 -->
<g id="edge22_Node000000_Node000006" class="edge">
<title>Node0&#45;&gt;Node6</title>
<g id="a_edge22_Node000000_Node000006"><a xlink:title=" ">
<path fill="none" stroke="#63b8ff" d="M36.34,-598.06C38.06,-675.26 48.21,-951.99 106,-1013 109.53,-1016.72 113.6,-1019.8 118.02,-1022.34"/>
<polygon fill="#63b8ff" stroke="#63b8ff" points="39.83,-597.73 36.13,-587.8 32.83,-597.87 39.83,-597.73"/>
</a>
</g>
</g>
<!-- Node23 -->
<g id="Node000023" class="node">
<title>Node23</title>
<g id="a_Node000023"><a xlink:href="classEasyKiConverter_1_1INetworkAdapter.html" target="_top" xlink:title="网络适配器接口">
<polygon fill="white" stroke="#666666" points="268.5,-336 120.5,-336 120.5,-306 268.5,-306 268.5,-336"/>
<text text-anchor="start" x="128.5" y="-324" font-family="Helvetica,sans-Serif" font-size="10.00">EasyKiConverter::INetwork</text>
<text text-anchor="middle" x="194.5" y="-313" font-family="Helvetica,sans-Serif" font-size="10.00">Adapter</text>
</a>
</g>
</g>
<!-- Node0&#45;&gt;Node23 -->
<g id="edge23_Node000000_Node000023" class="edge">
<title>Node0&#45;&gt;Node23</title>
<g id="a_edge23_Node000000_Node000023"><a xlink:title=" ">
<path fill="none" stroke="#63b8ff" d="M35.9,-558.26C36.78,-513.62 45.39,-404.17 106,-345 110.17,-340.93 114.96,-337.53 120.11,-334.7"/>
<polygon fill="#63b8ff" stroke="#63b8ff" points="32.4,-558.35 35.81,-568.37 39.4,-558.4 32.4,-558.35"/>
</a>
</g>
</g>
<!-- Node25 -->
<g id="Node000025" class="node">
<title>Node25</title>
<g id="a_Node000025"><a xlink:href="classEasyKiConverter_1_1JLCDatasheet.html" target="_top" xlink:title="JLC 数据手册下载器类">
<polygon fill="white" stroke="#666666" points="279,-287.5 110,-287.5 110,-268.5 279,-268.5 279,-287.5"/>
<text text-anchor="middle" x="194.5" y="-275.5" font-family="Helvetica,sans-Serif" font-size="10.00">EasyKiConverter::JLCDatasheet</text>
</a>
</g>
</g>
<!-- Node0&#45;&gt;Node25 -->
<g id="edge25_Node000000_Node000025" class="edge">
<title>Node0&#45;&gt;Node25</title>
<g id="a_edge25_Node000000_Node000025"><a xlink:title=" ">
<path fill="none" stroke="#63b8ff" d="M38.21,-558.38C45.08,-500.78 67.94,-333.92 106,-297 109.91,-293.21 114.38,-290.1 119.19,-287.56"/>
<polygon fill="#63b8ff" stroke="#63b8ff" points="34.72,-558.03 37.04,-568.37 41.68,-558.84 34.72,-558.03"/>
</a>
</g>
</g>
<!-- Node26 -->
<g id="Node000026" class="node">
<title>Node26</title>
<g id="a_Node000026"><a xlink:href="classEasyKiConverter_1_1LanguageManager.html" target="_top" xlink:title="语言管理器">
<polygon fill="white" stroke="#666666" points="270,-250 119,-250 119,-220 270,-220 270,-250"/>
<text text-anchor="start" x="127" y="-238" font-family="Helvetica,sans-Serif" font-size="10.00">EasyKiConverter::Language</text>
<text text-anchor="middle" x="194.5" y="-227" font-family="Helvetica,sans-Serif" font-size="10.00">Manager</text>
</a>
</g>
</g>
<!-- Node0&#45;&gt;Node26 -->
<g id="edge26_Node000000_Node000026" class="edge">
<title>Node0&#45;&gt;Node26</title>
<g id="a_edge26_Node000000_Node000026"><a xlink:title=" ">
<path fill="none" stroke="#63b8ff" d="M37.69,-558.35C43.44,-495.81 64.28,-302.93 106,-259 109.8,-255 114.19,-251.65 118.95,-248.84"/>
<polygon fill="#63b8ff" stroke="#63b8ff" points="34.19,-558.17 36.79,-568.44 41.16,-558.79 34.19,-558.17"/>
</a>
</g>
</g>
<!-- Node27 -->
<g id="Node000027" class="node">
<title>Node27</title>
<g id="a_Node000027"><a xlink:href="classEasyKiConverter_1_1LcscImageService.html" target="_top" xlink:title="LCSC 图片服务类">
<polygon fill="white" stroke="#666666" points="272,-202 117,-202 117,-172 272,-172 272,-202"/>
<text text-anchor="start" x="125" y="-190" font-family="Helvetica,sans-Serif" font-size="10.00">EasyKiConverter::LcscImage</text>
<text text-anchor="middle" x="194.5" y="-179" font-family="Helvetica,sans-Serif" font-size="10.00">Service</text>
</a>
</g>
</g>
<!-- Node0&#45;&gt;Node27 -->
<g id="edge27_Node000000_Node000027" class="edge">
<title>Node0&#45;&gt;Node27</title>
<g id="a_edge27_Node000000_Node000027"><a xlink:title=" ">
<path fill="none" stroke="#63b8ff" d="M37.08,-558.15C41.24,-489.35 58.36,-262.57 106,-211 109.21,-207.53 112.86,-204.54 116.82,-201.97"/>
<polygon fill="#63b8ff" stroke="#63b8ff" points="33.57,-558.25 36.49,-568.43 40.56,-558.65 33.57,-558.25"/>
</a>
</g>
</g>
<!-- Node28 -->
<g id="Node000028" class="node">
<title>Node28</title>
<g id="a_Node000028"><a xlink:href="classEasyKiConverter_1_1Logger.html" target="_top" xlink:title="日志管理器">
<polygon fill="white" stroke="#666666" points="263,-153.5 126,-153.5 126,-134.5 263,-134.5 263,-153.5"/>
<text text-anchor="middle" x="194.5" y="-141.5" font-family="Helvetica,sans-Serif" font-size="10.00">EasyKiConverter::Logger</text>
</a>
</g>
</g>
<!-- Node0&#45;&gt;Node28 -->
<g id="edge28_Node000000_Node000028" class="edge">
<title>Node0&#45;&gt;Node28</title>
<g id="a_edge28_Node000000_Node000028"><a xlink:title=" ">
<path fill="none" stroke="#63b8ff" d="M36.51,-557.92C38.83,-482.95 50.81,-220.83 106,-163 111.58,-157.15 118.5,-152.9 126,-149.83"/>
<polygon fill="#63b8ff" stroke="#63b8ff" points="33,-558.19 36.21,-568.28 40,-558.38 33,-558.19"/>
</a>
</g>
</g>
<!-- Node7 -->
<g id="Node000007" class="node">
<title>Node7</title>
<g id="a_Node000007"><a xlink:href="classEasyKiConverter_1_1NetworkWorker.html" target="_top" xlink:title="网络工作线程">
<polygon fill="white" stroke="#666666" points="267,-1004 122,-1004 122,-974 267,-974 267,-1004"/>
<text text-anchor="start" x="130" y="-992" font-family="Helvetica,sans-Serif" font-size="10.00">EasyKiConverter::Network</text>
<text text-anchor="middle" x="194.5" y="-981" font-family="Helvetica,sans-Serif" font-size="10.00">Worker</text>
</a>
</g>
</g>
<!-- Node0&#45;&gt;Node7 -->
<g id="edge29_Node000000_Node000007" class="edge">
<title>Node0&#45;&gt;Node7</title>
<g id="a_edge29_Node000000_Node000007"><a xlink:title=" ">
<path fill="none" stroke="#63b8ff" d="M36.88,-598.01C40.41,-669.4 55.9,-910.24 106,-965 110.47,-969.88 115.82,-973.81 121.66,-976.96"/>
<polygon fill="#63b8ff" stroke="#63b8ff" points="40.36,-597.55 36.39,-587.72 33.37,-597.88 40.36,-597.55"/>
</a>
</g>
</g>
<!-- Node8 -->
<g id="Node000008" class="node">
<title>Node8</title>
<g id="a_Node000008"><a xlink:href="classEasyKiConverter_1_1ProcessWorker.html" target="_top" xlink:title="处理工作线程">
<polygon fill="white" stroke="#666666" points="265,-956 124,-956 124,-926 265,-926 265,-956"/>
<text text-anchor="start" x="132" y="-944" font-family="Helvetica,sans-Serif" font-size="10.00">EasyKiConverter::Process</text>
<text text-anchor="middle" x="194.5" y="-933" font-family="Helvetica,sans-Serif" font-size="10.00">Worker</text>
</a>
</g>
</g>
<!-- Node0&#45;&gt;Node8 -->
<g id="edge30_Node000000_Node000008" class="edge">
<title>Node0&#45;&gt;Node8</title>
<g id="a_edge30_Node000000_Node000008"><a xlink:title=" ">
<path fill="none" stroke="#63b8ff" d="M37.44,-598.03C42.54,-663.54 61.88,-869.96 106,-917 111.06,-922.4 117.22,-926.63 123.89,-929.93"/>
<polygon fill="#63b8ff" stroke="#63b8ff" points="40.91,-597.52 36.67,-587.82 33.93,-598.05 40.91,-597.52"/>
</a>
</g>
</g>
<!-- Node29 -->
<g id="Node000029" class="node">
<title>Node29</title>
<g id="a_Node000029"><a xlink:href="classEasyKiConverter_1_1ThemeSettingsViewModel.html" target="_top" xlink:title="主题设置视图模型类">
<polygon fill="white" stroke="#666666" points="283,-116 106,-116 106,-86 283,-86 283,-116"/>
<text text-anchor="start" x="114" y="-104" font-family="Helvetica,sans-Serif" font-size="10.00">EasyKiConverter::ThemeSettings</text>
<text text-anchor="middle" x="194.5" y="-93" font-family="Helvetica,sans-Serif" font-size="10.00">ViewModel</text>
</a>
</g>
</g>
<!-- Node0&#45;&gt;Node29 -->
<g id="edge31_Node000000_Node000029" class="edge">
<title>Node0&#45;&gt;Node29</title>
<g id="a_edge31_Node000000_Node000029"><a xlink:title=" ">
<path fill="none" stroke="#63b8ff" d="M36.29,-558.22C37.86,-479.62 47.57,-190.53 106,-125 109.04,-121.59 112.51,-118.65 116.29,-116.1"/>
<polygon fill="#63b8ff" stroke="#63b8ff" points="32.79,-558.18 36.12,-568.24 39.79,-558.3 32.79,-558.18"/>
</a>
</g>
</g>
<!-- Node9 -->
<g id="Node000009" class="node">
<title>Node9</title>
<g id="a_Node000009"><a xlink:href="classEasyKiConverter_1_1WriteWorker.html" target="_top" xlink:title="写入工作线程">
<polygon fill="white" stroke="#666666" points="276.5,-907.5 112.5,-907.5 112.5,-888.5 276.5,-888.5 276.5,-907.5"/>
<text text-anchor="middle" x="194.5" y="-895.5" font-family="Helvetica,sans-Serif" font-size="10.00">EasyKiConverter::WriteWorker</text>
</a>
</g>
</g>
<!-- Node0&#45;&gt;Node9 -->
<g id="edge32_Node000000_Node000009" class="edge">
<title>Node0&#45;&gt;Node9</title>
<g id="a_edge32_Node000000_Node000009"><a xlink:title=" ">
<path fill="none" stroke="#63b8ff" d="M37.88,-597.81C44.01,-658.32 65.43,-839.02 106,-879 109.76,-882.71 114.07,-885.77 118.71,-888.29"/>
<polygon fill="#63b8ff" stroke="#63b8ff" points="41.34,-597.29 36.88,-587.68 34.37,-597.97 41.34,-597.29"/>
</a>
</g>
</g>
<!-- Node18 -->
<g id="Node000018" class="node">
<title>Node18</title>
<g id="a_Node000018"><a xlink:href="classEasyKiConverter_1_1ExportServicePipeline.html" target="_top" xlink:title="流水线导出服务类">
<polygon fill="white" stroke="#666666" points="490,-571 319,-571 319,-541 490,-541 490,-571"/>
<text text-anchor="start" x="327" y="-559" font-family="Helvetica,sans-Serif" font-size="10.00">EasyKiConverter::ExportService</text>
<text text-anchor="middle" x="404.5" y="-548" font-family="Helvetica,sans-Serif" font-size="10.00">Pipeline</text>
</a>
</g>
</g>
<!-- Node17&#45;&gt;Node18 -->
<g id="edge16_Node000017_Node000018" class="edge">
<title>Node17&#45;&gt;Node18</title>
<g id="a_edge16_Node000017_Node000018"><a xlink:title=" ">
<path fill="none" stroke="#63b8ff" d="M290.39,-556C299.92,-556 309.56,-556 318.97,-556"/>
<polygon fill="#63b8ff" stroke="#63b8ff" points="290.1,-552.5 280.1,-556 290.1,-559.5 290.1,-552.5"/>
</a>
</g>
</g>
<!-- Node24 -->
<g id="Node000024" class="node">
<title>Node24</title>
<g id="a_Node000024"><a xlink:href="classEasyKiConverter_1_1NetworkUtils.html" target="_top" xlink:title="网络工具">
<polygon fill="white" stroke="#666666" points="477,-336 332,-336 332,-306 477,-306 477,-336"/>
<text text-anchor="start" x="340" y="-324" font-family="Helvetica,sans-Serif" font-size="10.00">EasyKiConverter::Network</text>
<text text-anchor="middle" x="404.5" y="-313" font-family="Helvetica,sans-Serif" font-size="10.00">Utils</text>
</a>
</g>
</g>
<!-- Node23&#45;&gt;Node24 -->
<g id="edge24_Node000023_Node000024" class="edge">
<title>Node23&#45;&gt;Node24</title>
<g id="a_edge24_Node000023_Node000024"><a xlink:title=" ">
<path fill="none" stroke="#63b8ff" d="M278.75,-321C296.28,-321 314.62,-321 331.69,-321"/>
<polygon fill="#63b8ff" stroke="#63b8ff" points="278.54,-317.5 268.54,-321 278.54,-324.5 278.54,-317.5"/>
</a>
</g>
</g>
<!-- Node4 -->
<g id="Node000004" class="node">
<title>Node4</title>
<g id="a_Node000004"><a xlink:title=" ">
<polygon fill="#e0e0e0" stroke="#999999" points="70,-1019.5 0,-1019.5 0,-1000.5 70,-1000.5 70,-1019.5"/>
<text text-anchor="middle" x="35" y="-1007.5" font-family="Helvetica,sans-Serif" font-size="10.00">QRunnable</text>
</a>
</g>
</g>
<!-- Node4&#45;&gt;Node3 -->
<g id="edge33_Node000004_Node000003" class="edge">
<title>Node4&#45;&gt;Node3</title>
<g id="a_edge33_Node000004_Node000003"><a xlink:title=" ">
<path fill="none" stroke="#63b8ff" d="M47.48,-1027.91C59.83,-1045.74 81.09,-1072.6 106,-1088 111.49,-1091.4 117.47,-1094.32 123.64,-1096.83"/>
<polygon fill="#63b8ff" stroke="#63b8ff" points="50.34,-1025.88 41.86,-1019.52 44.52,-1029.77 50.34,-1025.88"/>
</a>
</g>
</g>
<!-- Node4&#45;&gt;Node5 -->
<g id="edge34_Node000004_Node000005" class="edge">
<title>Node4&#45;&gt;Node5</title>
<g id="a_edge34_Node000004_Node000005"><a xlink:title=" ">
<path fill="none" stroke="#63b8ff" d="M57.76,-1025.25C71.12,-1033.97 88.91,-1044.44 106,-1051 114.83,-1054.39 124.42,-1057.18 133.91,-1059.48"/>
<polygon fill="#63b8ff" stroke="#63b8ff" points="59.53,-1022.23 49.27,-1019.57 55.63,-1028.04 59.53,-1022.23"/>
</a>
</g>
</g>
<!-- Node4&#45;&gt;Node6 -->
<g id="edge35_Node000004_Node000006" class="edge">
<title>Node4&#45;&gt;Node6</title>
<g id="a_edge35_Node000004_Node000006"><a xlink:title=" ">
<path fill="none" stroke="#63b8ff" d="M80.47,-1016.21C94.44,-1018.16 110.19,-1020.36 125.41,-1022.49"/>
<polygon fill="#63b8ff" stroke="#63b8ff" points="80.56,-1012.69 70.18,-1014.77 79.59,-1019.62 80.56,-1012.69"/>
</a>
</g>
</g>
<!-- Node4&#45;&gt;Node7 -->
<g id="edge36_Node000004_Node000007" class="edge">
<title>Node4&#45;&gt;Node7</title>
<g id="a_edge36_Node000004_Node000007"><a xlink:title=" ">
<path fill="none" stroke="#63b8ff" d="M80.2,-1004.11C93.16,-1002.38 107.67,-1000.44 121.88,-998.55"/>
<polygon fill="#63b8ff" stroke="#63b8ff" points="79.62,-1000.65 70.18,-1005.44 80.55,-1007.59 79.62,-1000.65"/>
</a>
</g>
</g>
<!-- Node4&#45;&gt;Node8 -->
<g id="edge37_Node000004_Node000008" class="edge">
<title>Node4&#45;&gt;Node8</title>
<g id="a_edge37_Node000004_Node000008"><a xlink:title=" ">
<path fill="none" stroke="#63b8ff" d="M56.33,-994.57C69.82,-984.94 88.25,-972.92 106,-965 113.48,-961.66 121.53,-958.69 129.62,-956.08"/>
<polygon fill="#63b8ff" stroke="#63b8ff" points="54.25,-991.76 48.24,-1000.48 58.38,-997.41 54.25,-991.76"/>
</a>
</g>
</g>
<!-- Node4&#45;&gt;Node9 -->
<g id="edge38_Node000004_Node000009" class="edge">
<title>Node4&#45;&gt;Node9</title>
<g id="a_edge38_Node000004_Node000009"><a xlink:title=" ">
<path fill="none" stroke="#63b8ff" d="M44.93,-991.21C56.11,-969.78 77.35,-935.35 106,-917 112.02,-913.14 118.7,-910.06 125.62,-907.59"/>
<polygon fill="#63b8ff" stroke="#63b8ff" points="41.72,-989.79 40.38,-1000.3 47.98,-992.92 41.72,-989.79"/>
</a>
</g>
</g>
</g>
</svg>
