<?xml version="1.0" encoding="UTF-8" standalone="no"?>
<!DOCTYPE svg PUBLIC "-//W3C//DTD SVG 1.1//EN"
 "http://www.w3.org/Graphics/SVG/1.1/DTD/svg11.dtd">
<!-- Generated by graphviz version 2.43.0 (0)
 -->
<!-- Title: 类继承关系图 Pages: 1 -->
<svg width="498pt" height="1172pt"
 viewBox="0.00 0.00 498.00 1172.00" xmlns="http://www.w3.org/2000/svg" xmlns:xlink="http://www.w3.org/1999/xlink">
<g id="graph0" class="graph" transform="scale(1 1) rotate(0) translate(4 1168)">
<title>类继承关系图</title>
<!-- Node0 -->
<g id="Node000000" class="node">
<title>Node0</title>
<g id="a_Node000000"><a xlink:title=" ">
<polygon fill="#e0e0e0" stroke="#999999" points="63,-607.5 7,-607.5 7,-588.5 63,-588.5 63,-607.5"/>
<text text-anchor="middle" x="35" y="-595.5" font-family="Helvetica,sans-Serif" font-size="10.00">QObject</text>
</a>
</g>
</g>
<!-- Node1 -->
<g id="Node000001" class="node">
<title>Node1</title>
<g id="a_Node000001"><a xlink:href="classEasyKiConverter_1_1BomParser.html" target="_top" xlink:title="BOM 解析器类">
<polygon fill="white" stroke="#666666" points="272.5,-115.5 116.5,-115.5 116.5,-96.5 272.5,-96.5 272.5,-115.5"/>
<text text-anchor="middle" x="194.5" y="-103.5" font-family="Helvetica,sans-Serif" font-size="10.00">EasyKiConverter::BomParser</text>
</a>
</g>
</g>
<!-- Node0&#45;&gt;Node1 -->
<g id="edge5_Node000000_Node000001" class="edge">
<title>Node0&#45;&gt;Node1</title>
<g id="a_edge5_Node000000_Node000001"><a xlink:title=" ">
<path fill="none" stroke="#63b8ff" d="M36.05,-577.79C36.69,-496.17 43.31,-192.03 106,-125 109.5,-121.25 113.56,-118.16 117.96,-115.61"/>
<polygon fill="#63b8ff" stroke="#63b8ff" points="32.55,-578.14 36,-588.16 39.55,-578.18 32.55,-578.14"/>
</a>
</g>
</g>
<!-- Node2 -->
<g id="Node000002" class="node">
<title>Node2</title>
<g id="a_Node000002"><a xlink:href="classEasyKiConverter_1_1ComponentDataCollector.html" target="_top" xlink:title="元件数据收集器类">
<polygon fill="white" stroke="#666666" points="274.5,-78 114.5,-78 114.5,-48 274.5,-48 274.5,-78"/>
<text text-anchor="start" x="122.5" y="-66" font-family="Helvetica,sans-Serif" font-size="10.00">EasyKiConverter::Component</text>
<text text-anchor="middle" x="194.5" y="-55" font-family="Helvetica,sans-Serif" font-size="10.00">DataCollector</text>
</a>
</g>
</g>
<!-- Node0&#45;&gt;Node2 -->
<g id="edge6_Node000000_Node000002" class="edge">
<title>Node0&#45;&gt;Node2</title>
<g id="a_edge6_Node000000_Node000002"><a xlink:title=" ">
<path fill="none" stroke="#63b8ff" d="M35.91,-578.19C35.93,-493.4 40.27,-162.01 106,-87 109.01,-83.56 112.46,-80.6 116.22,-78.04"/>
<polygon fill="#63b8ff" stroke="#63b8ff" points="32.41,-578.27 35.93,-588.27 39.41,-578.26 32.41,-578.27"/>
</a>
</g>
</g>
<!-- Node3 -->
<g id="Node000003" class="node">
<title>Node3</title>
<g id="a_Node000003"><a xlink:href="classEasyKiConverter_1_1ComponentExportTask.html" target="_top" xlink:title="元件导出任务">
<polygon fill="white" stroke="#666666" points="274.5,-1030 114.5,-1030 114.5,-1000 274.5,-1000 274.5,-1030"/>
<text text-anchor="start" x="122.5" y="-1018" font-family="Helvetica,sans-Serif" font-size="10.00">EasyKiConverter::Component</text>
<text text-anchor="middle" x="194.5" y="-1007" font-family="Helvetica,sans-Serif" font-size="10.00">ExportTask</text>
</a>
</g>
</g>
<!-- Node0&#45;&gt;Node3 -->
<g id="edge7_Node000000_Node000003" class="edge">
<title>Node0&#45;&gt;Node3</title>
<g id="a_edge7_Node000000_Node000003"><a xlink:title=" ">
<path fill="none" stroke="#63b8ff" d="M36.81,-617.85C40.14,-689.74 55.11,-935.23 106,-991 109.08,-994.37 112.58,-997.29 116.38,-999.81"/>
<polygon fill="#63b8ff" stroke="#63b8ff" points="40.29,-617.35 36.36,-607.52 33.3,-617.66 40.29,-617.35"/>
</a>
</g>
</g>
<!-- Node10 -->
<g id="Node000010" class="node">
<title>Node10</title>
<g id="a_Node000010"><a xlink:href="classEasyKiConverter_1_1ComponentListItemData.html" target="_top" xlink:title="元器件列表项数据模型">
<polygon fill="white" stroke="#666666" points="274.5,-30 114.5,-30 114.5,0 274.5,0 274.5,-30"/>
<text text-anchor="start" x="122.5" y="-18" font-family="Helvetica,sans-Serif" font-size="10.00">EasyKiConverter::Component</text>
<text text-anchor="middle" x="194.5" y="-7" font-family="Helvetica,sans-Serif" font-size="10.00">ListItemData</text>
</a>
</g>
</g>
<!-- Node0&#45;&gt;Node10 -->
<g id="edge8_Node000000_Node000010" class="edge">
<title>Node0&#45;&gt;Node10</title>
<g id="a_edge8_Node000000_Node000010"><a xlink:title=" ">
<path fill="none" stroke="#63b8ff" d="M35.65,-578.07C34.48,-488.25 34.22,-121.86 106,-39 108.99,-35.55 112.43,-32.57 116.17,-30"/>
<polygon fill="#63b8ff" stroke="#63b8ff" points="32.15,-578.29 35.8,-588.24 39.15,-578.19 32.15,-578.29"/>
</a>
</g>
</g>
<!-- Node11 -->
<g id="Node000011" class="node">
<title>Node11</title>
<g id="a_Node000011"><a xlink:href="classEasyKiConverter_1_1ComponentService.html" target="_top" xlink:title="元件服务类">
<polygon fill="white" stroke="#666666" points="274.5,-907 114.5,-907 114.5,-877 274.5,-877 274.5,-907"/>
<text text-anchor="start" x="122.5" y="-895" font-family="Helvetica,sans-Serif" font-size="10.00">EasyKiConverter::Component</text>
<text text-anchor="middle" x="194.5" y="-884" font-family="Helvetica,sans-Serif" font-size="10.00">Service</text>
</a>
</g>
</g>
<!-- Node0&#45;&gt;Node11 -->
<g id="edge9_Node000000_Node000011" class="edge">
<title>Node0&#45;&gt;Node11</title>
<g id="a_edge9_Node000000_Node000011"><a xlink:title=" ">
<path fill="none" stroke="#63b8ff" d="M38.56,-617.86C46.17,-673.96 70.37,-831.87 106,-868 109.32,-871.36 113.06,-874.27 117.08,-876.78"/>
<polygon fill="#63b8ff" stroke="#63b8ff" points="42.01,-617.24 37.22,-607.79 35.07,-618.16 42.01,-617.24"/>
</a>
</g>
</g>
<!-- Node12 -->
<g id="Node000012" class="node">
<title>Node12</title>
<g id="a_Node000012"><a xlink:href="classEasyKiConverter_1_1ConfigManager.html" target="_top" xlink:title="配置管理">
<polygon fill="white" stroke="#666666" points="283,-858.5 106,-858.5 106,-839.5 283,-839.5 283,-858.5"/>
<text text-anchor="middle" x="194.5" y="-846.5" font-family="Helvetica,sans-Serif" font-size="10.00">EasyKiConverter::ConfigManager</text>
</a>
</g>
</g>
<!-- Node0&#45;&gt;Node12 -->
<g id="edge10_Node000000_Node000012" class="edge">
<title>Node0&#45;&gt;Node12</title>
<g id="a_edge10_Node000000_Node000012"><a xlink:title=" ">
<path fill="none" stroke="#63b8ff" d="M35.63,-618.02C35.96,-663.24 43.5,-773.83 106,-831 109.66,-834.35 113.78,-837.14 118.17,-839.47"/>
<polygon fill="#63b8ff" stroke="#63b8ff" points="39.13,-617.78 35.68,-607.77 32.13,-617.75 39.13,-617.78"/>
</a>
</g>
</g>
<!-- Node13 -->
<g id="Node000013" class="node">
<title>Node13</title>
<g id="a_Node000013"><a xlink:href="classEasyKiConverter_1_1ConfigService.html" target="_top" xlink:title="配置服务">
<polygon fill="white" stroke="#666666" points="279.5,-821.5 109.5,-821.5 109.5,-802.5 279.5,-802.5 279.5,-821.5"/>
<text text-anchor="middle" x="194.5" y="-809.5" font-family="Helvetica,sans-Serif" font-size="10.00">EasyKiConverter::ConfigService</text>
</a>
</g>
</g>
<!-- Node0&#45;&gt;Node13 -->
<g id="edge11_Node000000_Node000013" class="edge">
<title>Node0&#45;&gt;Node13</title>
<g id="a_edge11_Node000000_Node000013"><a xlink:title=" ">
<path fill="none" stroke="#63b8ff" d="M36.92,-617.54C39.89,-657.24 52.51,-747.53 106,-794 109.86,-797.36 114.18,-800.15 118.78,-802.46"/>
<polygon fill="#63b8ff" stroke="#63b8ff" points="40.41,-617.32 36.3,-607.55 33.43,-617.75 40.41,-617.32"/>
</a>
</g>
</g>
<!-- Node14 -->
<g id="Node000014" class="node">
<title>Node14</title>
<g id="a_Node000014"><a xlink:href="classEasyKiConverter_1_1EasyedaApi.html" target="_top" xlink:title="EasyEDA API 客户端类">
<polygon fill="white" stroke="#666666" points="275,-784.5 114,-784.5 114,-765.5 275,-765.5 275,-784.5"/>
<text text-anchor="middle" x="194.5" y="-772.5" font-family="Helvetica,sans-Serif" font-size="10.00">EasyKiConverter::EasyedaApi</text>
</a>
</g>
</g>
<!-- Node0&#45;&gt;Node14 -->
<g id="edge12_Node000000_Node000014" class="edge">
<title>Node0&#45;&gt;Node14</title>
<g id="a_edge12_Node000000_Node000014"><a xlink:title=" ">
<path fill="none" stroke="#63b8ff" d="M38.87,-617.62C44.9,-651.37 62.12,-720.24 106,-756 110.7,-759.83 116,-762.93 121.6,-765.44"/>
<polygon fill="#63b8ff" stroke="#63b8ff" points="42.31,-616.92 37.24,-607.62 35.4,-618.05 42.31,-616.92"/>
</a>
</g>
</g>
<!-- Node15 -->
<g id="Node000015" class="node">
<title>Node15</title>
<g id="a_Node000015"><a xlink:href="classEasyKiConverter_1_1EasyedaImporter.html" target="_top" xlink:title="EasyEDA 数据导入器类">
<polygon fill="white" stroke="#666666" points="267,-747 122,-747 122,-717 267,-717 267,-747"/>
<text text-anchor="start" x="130" y="-735" font-family="Helvetica,sans-Serif" font-size="10.00">EasyKiConverter::Easyeda</text>
<text text-anchor="middle" x="194.5" y="-724" font-family="Helvetica,sans-Serif" font-size="10.00">Importer</text>
</a>
</g>
</g>
<!-- Node0&#45;&gt;Node15 -->
<g id="edge13_Node000000_Node000015" class="edge">
<title>Node0&#45;&gt;Node15</title>
<g id="a_edge13_Node000000_Node000015"><a xlink:title=" ">
<path fill="none" stroke="#63b8ff" d="M43.02,-617C53.12,-641.71 74.13,-684.47 106,-708 110.82,-711.55 116.13,-714.58 121.69,-717.16"/>
<polygon fill="#63b8ff" stroke="#63b8ff" points="46.25,-615.67 39.35,-607.63 39.73,-618.22 46.25,-615.67"/>
</a>
</g>
</g>
<!-- Node16 -->
<g id="Node000016" class="node">
<title>Node16</title>
<g id="a_Node000016"><a xlink:href="classEasyKiConverter_1_1ExportProgressViewModel.html" target="_top" xlink:title=" ">
<polygon fill="white" stroke="#666666" points="283,-699 106,-699 106,-669 283,-669 283,-699"/>
<text text-anchor="start" x="114" y="-687" font-family="Helvetica,sans-Serif" font-size="10.00">EasyKiConverter::ExportProgress</text>
<text text-anchor="middle" x="194.5" y="-676" font-family="Helvetica,sans-Serif" font-size="10.00">ViewModel</text>
</a>
</g>
</g>
<!-- Node0&#45;&gt;Node16 -->
<g id="edge14_Node000000_Node000016" class="edge">
<title>Node0&#45;&gt;Node16</title>
<g id="a_edge14_Node000000_Node000016"><a xlink:title=" ">
<path fill="none" stroke="#63b8ff" d="M51.37,-615.46C64.56,-629.42 84.76,-648.5 106,-660 112.23,-663.38 118.98,-666.31 125.86,-668.84"/>
<polygon fill="#63b8ff" stroke="#63b8ff" points="53.8,-612.93 44.46,-607.93 48.64,-617.66 53.8,-612.93"/>
</a>
</g>
</g>
<!-- Node17 -->
<g id="Node000017" class="node">
<title>Node17</title>
<g id="a_Node000017"><a xlink:href="classEasyKiConverter_1_1ExportService.html" target="_top" xlink:title=" ">
<polygon fill="white" stroke="#666666" points="280,-650.5 109,-650.5 109,-631.5 280,-631.5 280,-650.5"/>
<text text-anchor="middle" x="194.5" y="-638.5" font-family="Helvetica,sans-Serif" font-size="10.00">EasyKiConverter::ExportService</text>
</a>
</g>
</g>
<!-- Node0&#45;&gt;Node17 -->
<g id="edge15_Node000000_Node000017" class="edge">
<title>Node0&#45;&gt;Node17</title>
<g id="a_edge15_Node000000_Node000017"><a xlink:title=" ">
<path fill="none" stroke="#63b8ff" d="M71.4,-611.03C82.41,-614.84 94.63,-618.83 106,-622 118.43,-625.47 131.99,-628.68 144.66,-631.45"/>
<polygon fill="#63b8ff" stroke="#63b8ff" points="72.3,-607.64 61.7,-607.62 69.97,-614.24 72.3,-607.64"/>
</a>
</g>
</g>
<!-- Node19 -->
<g id="Node000019" class="node">
<title>Node19</title>
<g id="a_Node000019"><a xlink:href="classEasyKiConverter_1_1ExportSettingsViewModel.html" target="_top" xlink:title="导出设置视图模型">
<polygon fill="white" stroke="#666666" points="282,-613 107,-613 107,-583 282,-583 282,-613"/>
<text text-anchor="start" x="115" y="-601" font-family="Helvetica,sans-Serif" font-size="10.00">EasyKiConverter::ExportSettings</text>
<text text-anchor="middle" x="194.5" y="-590" font-family="Helvetica,sans-Serif" font-size="10.00">ViewModel</text>
</a>
</g>
</g>
<!-- Node0&#45;&gt;Node19 -->
<g id="edge17_Node000000_Node000019" class="edge">
<title>Node0&#45;&gt;Node19</title>
<g id="a_edge17_Node000000_Node000019"><a xlink:title=" ">
<path fill="none" stroke="#63b8ff" d="M73.23,-598C83.48,-598 95.04,-598 106.84,-598"/>
<polygon fill="#63b8ff" stroke="#63b8ff" points="73.08,-594.5 63.08,-598 73.08,-601.5 73.08,-594.5"/>
</a>
</g>
</g>
<!-- Node5 -->
<g id="Node000005" class="node">
<title>Node5</title>
<g id="a_Node000005"><a xlink:href="classEasyKiConverter_1_1ExportWorker.html" target="_top" xlink:title="导出工作线程">
<polygon fill="white" stroke="#666666" points="279,-981.5 110,-981.5 110,-962.5 279,-962.5 279,-981.5"/>
<text text-anchor="middle" x="194.5" y="-969.5" font-family="Helvetica,sans-Serif" font-size="10.00">EasyKiConverter::ExportWorker</text>
</a>
</g>
</g>
<!-- Node0&#45;&gt;Node5 -->
<g id="edge18_Node000000_Node000005" class="edge">
<title>Node0&#45;&gt;Node5</title>
<g id="a_edge18_Node000000_Node000005"><a xlink:title=" ">
<path fill="none" stroke="#63b8ff" d="M37.08,-617.82C41.2,-685.45 58.11,-905.69 106,-954 109.28,-957.3 112.99,-960.08 116.98,-962.41"/>
<polygon fill="#63b8ff" stroke="#63b8ff" points="40.57,-617.45 36.5,-607.67 33.58,-617.86 40.57,-617.45"/>
</a>
</g>
</g>
<!-- Node20 -->
<g id="Node000020" class="node">
<title>Node20</title>
<g id="a_Node000020"><a xlink:href="classEasyKiConverter_1_1Exporter3DModel.html" target="_top" xlink:title="3D 模型导出器类">
<polygon fill="white" stroke="#666666" points="270,-565 119,-565 119,-535 270,-535 270,-565"/>
<text text-anchor="start" x="127" y="-553" font-family="Helvetica,sans-Serif" font-size="10.00">EasyKiConverter::Exporter3</text>
<text text-anchor="middle" x="194.5" y="-542" font-family="Helvetica,sans-Serif" font-size="10.00">DModel</text>
</a>
</g>
</g>
<!-- Node0&#45;&gt;Node20 -->
<g id="edge19_Node000000_Node000020" class="edge">
<title>Node0&#45;&gt;Node20</title>
<g id="a_edge19_Node000000_Node000020"><a xlink:title=" ">
<path fill="none" stroke="#63b8ff" d="M72.07,-585.15C82.93,-581.41 94.91,-577.42 106,-574 115.78,-570.98 126.24,-567.95 136.4,-565.11"/>
<polygon fill="#63b8ff" stroke="#63b8ff" points="70.76,-581.9 62.46,-588.49 73.06,-588.51 70.76,-581.9"/>
</a>
</g>
</g>
<!-- Node21 -->
<g id="Node000021" class="node">
<title>Node21</title>
<g id="a_Node000021"><a xlink:href="classEasyKiConverter_1_1ExporterFootprint.html" target="_top" xlink:title="KiCad 封装导出器类">
<polygon fill="white" stroke="#666666" points="267,-517 122,-517 122,-487 267,-487 267,-517"/>
<text text-anchor="start" x="130" y="-505" font-family="Helvetica,sans-Serif" font-size="10.00">EasyKiConverter::Exporter</text>
<text text-anchor="middle" x="194.5" y="-494" font-family="Helvetica,sans-Serif" font-size="10.00">Footprint</text>
</a>
</g>
</g>
<!-- Node0&#45;&gt;Node21 -->
<g id="edge20_Node000000_Node000021" class="edge">
<title>Node0&#45;&gt;Node21</title>
<g id="a_edge20_Node000000_Node000021"><a xlink:title=" ">
<path fill="none" stroke="#63b8ff" d="M48.75,-580.25C61.46,-563.83 82.44,-539.92 106,-526 111.83,-522.55 118.17,-519.59 124.69,-517.04"/>
<polygon fill="#63b8ff" stroke="#63b8ff" points="45.77,-578.39 42.58,-588.49 51.37,-582.59 45.77,-578.39"/>
</a>
</g>
</g>
<!-- Node22 -->
<g id="Node000022" class="node">
<title>Node22</title>
<g id="a_Node000022"><a xlink:href="classEasyKiConverter_1_1ExporterSymbol.html" target="_top" xlink:title="KiCad 符号导出器类">
<polygon fill="white" stroke="#666666" points="267,-469 122,-469 122,-439 267,-439 267,-469"/>
<text text-anchor="start" x="130" y="-457" font-family="Helvetica,sans-Serif" font-size="10.00">EasyKiConverter::Exporter</text>
<text text-anchor="middle" x="194.5" y="-446" font-family="Helvetica,sans-Serif" font-size="10.00">Symbol</text>
</a>
</g>
</g>
<!-- Node0&#45;&gt;Node22 -->
<g id="edge21_Node000000_Node000022" class="edge">
<title>Node0&#45;&gt;Node22</title>
<g id="a_edge21_Node000000_Node000022"><a xlink:title=" ">
<path fill="none" stroke="#63b8ff" d="M42.13,-578.45C51.52,-551.71 72.05,-504.09 106,-478 110.87,-474.26 116.29,-471.1 121.97,-468.43"/>
<polygon fill="#63b8ff" stroke="#63b8ff" points="38.72,-577.6 38.87,-588.2 45.36,-579.82 38.72,-577.6"/>
</a>
</g>
</g>
<!-- Node6 -->
<g id="Node000006" class="node">
<title>Node6</title>
<g id="a_Node000006"><a xlink:href="classEasyKiConverter_1_1FetchWorker.html" target="_top" xlink:title="抓取工作线程">
<polygon fill="white" stroke="#666666" points="276.5,-944.5 112.5,-944.5 112.5,-925.5 276.5,-925.5 276.5,-944.5"/>
<text text-anchor="middle" x="194.5" y="-932.5" font-family="Helvetica,sans-Serif" font-size="10.00">EasyKiConverter::FetchWorker</text>
</a>
</g>
</g>
<!-- Node0&#45;&gt;Node6 -->
<g id="edge22_Node000000_Node000006" class="edge">
<title>Node0&#45;&gt;Node6</title>
<g id="a_edge22_Node000000_Node000006"><a xlink:title=" ">
<path fill="none" stroke="#63b8ff" d="M37.6,-617.68C43.09,-680.31 63.23,-873.35 106,-916 109.74,-919.73 114.03,-922.81 118.66,-925.34"/>
<polygon fill="#63b8ff" stroke="#63b8ff" points="41.07,-617.24 36.74,-607.57 34.1,-617.83 41.07,-617.24"/>
</a>
</g>
</g>
<!-- Node23 -->
<g id="Node000023" class="node">
<title>Node23</title>
<g id="a_Node000023"><a xlink:href="classEasyKiConverter_1_1INetworkAdapter.html" target="_top" xlink:title="网络适配器接口">
<polygon fill="white" stroke="#666666" points="268.5,-421 120.5,-421 120.5,-391 268.5,-391 268.5,-421"/>
<text text-anchor="start" x="128.5" y="-409" font-family="Helvetica,sans-Serif" font-size="10.00">EasyKiConverter::INetwork</text>
<text text-anchor="middle" x="194.5" y="-398" font-family="Helvetica,sans-Serif" font-size="10.00">Adapter</text>
</a>
</g>
</g>
<!-- Node0&#45;&gt;Node23 -->
<g id="edge23_Node000000_Node000023" class="edge">
<title>Node0&#45;&gt;Node23</title>
<g id="a_edge23_Node000000_Node000023"><a xlink:title=" ">
<path fill="none" stroke="#63b8ff" d="M38.54,-578.39C44.14,-543.3 60.85,-469.75 106,-430 110.26,-426.25 115.05,-423.09 120.13,-420.41"/>
<polygon fill="#63b8ff" stroke="#63b8ff" points="35.07,-577.94 37.09,-588.34 41.99,-578.94 35.07,-577.94"/>
</a>
</g>
</g>
<!-- Node25 -->
<g id="Node000025" class="node">
<title>Node25</title>
<g id="a_Node000025"><a xlink:href="classEasyKiConverter_1_1JLCDatasheet.html" target="_top" xlink:title="JLC 数据手册下载器类">
<polygon fill="white" stroke="#666666" points="279,-372.5 110,-372.5 110,-353.5 279,-353.5 279,-372.5"/>
<text text-anchor="middle" x="194.5" y="-360.5" font-family="Helvetica,sans-Serif" font-size="10.00">EasyKiConverter::JLCDatasheet</text>
</a>
</g>
</g>
<!-- Node0&#45;&gt;Node25 -->
<g id="edge25_Node000000_Node000025" class="edge">
<title>Node0&#45;&gt;Node25</title>
<g id="a_edge25_Node000000_Node000025"><a xlink:title=" ">
<path fill="none" stroke="#63b8ff" d="M36.22,-578.33C37.82,-535.73 47.9,-434.58 106,-382 110.15,-378.24 114.86,-375.17 119.9,-372.66"/>
<polygon fill="#63b8ff" stroke="#63b8ff" points="32.72,-578.4 35.96,-588.48 39.72,-578.58 32.72,-578.4"/>
</a>
</g>
</g>
<!-- Node26 -->
<g id="Node000026" class="node">
<title>Node26</title>
<g id="a_Node000026"><a xlink:href="classEasyKiConverter_1_1LanguageManager.html" target="_top" xlink:title="语言管理器">
<polygon fill="white" stroke="#666666" points="270,-335 119,-335 119,-305 270,-305 270,-335"/>
<text text-anchor="start" x="127" y="-323" font-family="Helvetica,sans-Serif" font-size="10.00">EasyKiConverter::Language</text>
<text text-anchor="middle" x="194.5" y="-312" font-family="Helvetica,sans-Serif" font-size="10.00">Manager</text>
</a>
</g>
</g>
<!-- Node0&#45;&gt;Node26 -->
<g id="edge26_Node000000_Node000026" class="edge">
<title>Node0&#45;&gt;Node26</title>
<g id="a_edge26_Node000000_Node000026"><a xlink:title=" ">
<path fill="none" stroke="#63b8ff" d="M35.38,-578.25C35.02,-531.03 40.93,-410.62 106,-345 109.78,-341.19 114.1,-337.94 118.75,-335.19"/>
<polygon fill="#63b8ff" stroke="#63b8ff" points="31.88,-578.44 35.57,-588.37 38.88,-578.31 31.88,-578.44"/>
</a>
</g>
</g>
<!-- Node27 -->
<g id="Node000027" class="node">
<title>Node27</title>
<g id="a_Node000027"><a xlink:href="classEasyKiConverter_1_1LcscImageService.html" target="_top" xlink:title="LCSC 图片服务类">
<polygon fill="white" stroke="#666666" points="272,-287 117,-287 117,-257 272,-257 272,-287"/>
<text text-anchor="start" x="125" y="-275" font-family="Helvetica,sans-Serif" font-size="10.00">EasyKiConverter::LcscImage</text>
<text text-anchor="middle" x="194.5" y="-264" font-family="Helvetica,sans-Serif" font-size="10.00">Service</text>
</a>
</g>
</g>
<!-- Node0&#45;&gt;Node27 -->
<g id="edge27_Node000000_Node000027" class="edge">
<title>Node0&#45;&gt;Node27</title>
<g id="a_edge27_Node000000_Node000027"><a xlink:title=" ">
<path fill="none" stroke="#63b8ff" d="M37.96,-578.22C44.34,-517.79 66.41,-337.2 106,-296 109.27,-292.59 112.98,-289.65 116.98,-287.12"/>
<polygon fill="#63b8ff" stroke="#63b8ff" points="34.46,-578.03 36.92,-588.34 41.43,-578.75 34.46,-578.03"/>
</a>
</g>
</g>
<!-- Node28 -->
<g id="Node000028" class="node">
<title>Node28</title>
<g id="a_Node000028"><a xlink:href="classEasyKiConverter_1_1Logger.html" target="_top" xlink:title="日志管理器">
<polygon fill="white" stroke="#666666" points="263,-238.5 126,-238.5 126,-219.5 263,-219.5 263,-238.5"/>
<text text-anchor="middle" x="194.5" y="-226.5" font-family="Helvetica,sans-Serif" font-size="10.00">EasyKiConverter::Logger</text>
</a>
</g>
</g>
<!-- Node0&#45;&gt;Node28 -->
<g id="edge28_Node000000_Node000028" class="edge">
<title>Node0&#45;&gt;Node28</title>
<g id="a_edge28_Node000000_Node000028"><a xlink:title=" ">
<path fill="none" stroke="#63b8ff" d="M37.18,-578.12C41.57,-511.19 59.16,-295.61 106,-248 111.56,-242.35 118.38,-238.19 125.73,-235.17"/>
<polygon fill="#63b8ff" stroke="#63b8ff" points="33.66,-578.3 36.53,-588.5 40.65,-578.74 33.66,-578.3"/>
</a>
</g>
</g>
<!-- Node7 -->
<g id="Node000007" class="node">
<title>Node7</title>
<g id="a_Node000007"><a xlink:href="classEasyKiConverter_1_1NetworkWorker.html" target="_top" xlink:title="网络工作线程">
<polygon fill="white" stroke="#666666" points="267,-1164 122,-1164 122,-1134 267,-1134 267,-1164"/>
<text text-anchor="start" x="130" y="-1152" font-family="Helvetica,sans-Serif" font-size="10.00">EasyKiConverter::Network</text>
<text text-anchor="middle" x="194.5" y="-1141" font-family="Helvetica,sans-Serif" font-size="10.00">Worker</text>
</a>
</g>
</g>
<!-- Node0&#45;&gt;Node7 -->
<g id="edge29_Node000000_Node000007" class="edge">
<title>Node0&#45;&gt;Node7</title>
<g id="a_edge29_Node000000_Node000007"><a xlink:title=" ">
<path fill="none" stroke="#63b8ff" d="M37.34,-617.73C43.69,-708.83 71.88,-1085.91 106,-1125 110.45,-1130.1 115.88,-1134.17 121.83,-1137.4"/>
<polygon fill="#63b8ff" stroke="#63b8ff" points="40.82,-617.4 36.65,-607.66 33.84,-617.88 40.82,-617.4"/>
</a>
</g>
</g>
<!-- Node8 -->
<g id="Node000008" class="node">
<title>Node8</title>
<g id="a_Node000008"><a xlink:href="classEasyKiConverter_1_1ProcessWorker.html" target="_top" xlink:title="处理工作线程">
<polygon fill="white" stroke="#666666" points="265,-1116 124,-1116 124,-1086 265,-1086 265,-1116"/>
<text text-anchor="start" x="132" y="-1104" font-family="Helvetica,sans-Serif" font-size="10.00">EasyKiConverter::Process</text>
<text text-anchor="middle" x="194.5" y="-1093" font-family="Helvetica,sans-Serif" font-size="10.00">Worker</text>
</a>
</g>
</g>
<!-- Node0&#45;&gt;Node8 -->
<g id="edge30_Node000000_Node000008" class="edge">
<title>Node0&#45;&gt;Node8</title>
<g id="a_edge30_Node000000_Node000008"><a xlink:title=" ">
<path fill="none" stroke="#63b8ff" d="M36.11,-617.84C36.97,-699.33 44.31,-1007.24 106,-1077 111.01,-1082.66 117.22,-1087.05 123.99,-1090.43"/>
<polygon fill="#63b8ff" stroke="#63b8ff" points="39.61,-617.49 36.03,-607.52 32.61,-617.55 39.61,-617.49"/>
</a>
</g>
</g>
<!-- Node29 -->
<g id="Node000029" class="node">
<title>Node29</title>
<g id="a_Node000029"><a xlink:href="classEasyKiConverter_1_1StageHandler.html" target="_top" xlink:title="流水线阶段处理器基类">
<polygon fill="white" stroke="#666666" points="279.5,-201.5 109.5,-201.5 109.5,-182.5 279.5,-182.5 279.5,-201.5"/>
<text text-anchor="middle" x="194.5" y="-189.5" font-family="Helvetica,sans-Serif" font-size="10.00">EasyKiConverter::StageHandler</text>
</a>
</g>
</g>
<!-- Node0&#45;&gt;Node29 -->
<g id="edge31_Node000000_Node000029" class="edge">
<title>Node0&#45;&gt;Node29</title>
<g id="a_edge31_Node000000_Node000029"><a xlink:title=" ">
<path fill="none" stroke="#63b8ff" d="M36.78,-577.9C39.97,-506.19 54.44,-264.39 106,-211 109.67,-207.2 113.91,-204.07 118.5,-201.51"/>
<polygon fill="#63b8ff" stroke="#63b8ff" points="33.27,-578.09 36.35,-588.23 40.26,-578.38 33.27,-578.09"/>
</a>
</g>
</g>
<!-- Node33 -->
<g id="Node000033" class="node">
<title>Node33</title>
<g id="a_Node000033"><a xlink:href="classEasyKiConverter_1_1ThemeSettingsViewModel.html" target="_top" xlink:title="主题设置视图模型类">
<polygon fill="white" stroke="#666666" points="283,-164 106,-164 106,-134 283,-134 283,-164"/>
<text text-anchor="start" x="114" y="-152" font-family="Helvetica,sans-Serif" font-size="10.00">EasyKiConverter::ThemeSettings</text>
<text text-anchor="middle" x="194.5" y="-141" font-family="Helvetica,sans-Serif" font-size="10.00">ViewModel</text>
</a>
</g>
</g>
<!-- Node0&#45;&gt;Node33 -->
<g id="edge35_Node000000_Node000033" class="edge">
<title>Node0&#45;&gt;Node33</title>
<g id="a_edge35_Node000000_Node000033"><a xlink:title=" ">
<path fill="none" stroke="#63b8ff" d="M36.55,-578.09C39.03,-502.58 51.57,-235.06 106,-174 109.47,-170.11 113.5,-166.8 117.88,-164"/>
<polygon fill="#63b8ff" stroke="#63b8ff" points="33.04,-578.4 36.23,-588.5 40.03,-578.61 33.04,-578.4"/>
</a>
</g>
</g>
<!-- Node9 -->
<g id="Node000009" class="node">
<title>Node9</title>
<g id="a_Node000009"><a xlink:href="classEasyKiConverter_1_1WriteWorker.html" target="_top" xlink:title="写入工作线程">
<polygon fill="white" stroke="#666666" points="276.5,-1067.5 112.5,-1067.5 112.5,-1048.5 276.5,-1048.5 276.5,-1067.5"/>
<text text-anchor="middle" x="194.5" y="-1055.5" font-family="Helvetica,sans-Serif" font-size="10.00">EasyKiConverter::WriteWorker</text>
</a>
</g>
</g>
<!-- Node0&#45;&gt;Node9 -->
<g id="edge36_Node000000_Node000009" class="edge">
<title>Node0&#45;&gt;Node9</title>
<g id="a_edge36_Node000000_Node000009"><a xlink:title=" ">
<path fill="none" stroke="#63b8ff" d="M36.28,-617.83C37.81,-695.38 47.37,-976.97 106,-1039 109.52,-1042.73 113.59,-1045.81 118.01,-1048.35"/>
<polygon fill="#63b8ff" stroke="#63b8ff" points="39.78,-617.49 36.11,-607.55 32.78,-617.61 39.78,-617.49"/>
</a>
</g>
</g>
<!-- Node18 -->
<g id="Node000018" class="node">
<title>Node18</title>
<g id="a_Node000018"><a xlink:href="classEasyKiConverter_1_1ExportServicePipeline.html" target="_top" xlink:title="流水线导出服务类">
<polygon fill="white" stroke="#666666" points="490,-656 319,-656 319,-626 490,-626 490,-656"/>
<text text-anchor="start" x="327" y="-644" font-family="Helvetica,sans-Serif" font-size="10.00">EasyKiConverter::ExportService</text>
<text text-anchor="middle" x="404.5" y="-633" font-family="Helvetica,sans-Serif" font-size="10.00">Pipeline</text>
</a>
</g>
</g>
<!-- Node17&#45;&gt;Node18 -->
<g id="edge16_Node000017_Node000018" class="edge">
<title>Node17&#45;&gt;Node18</title>
<g id="a_edge16_Node000017_Node000018"><a xlink:title=" ">
<path fill="none" stroke="#63b8ff" d="M290.39,-641C299.92,-641 309.56,-641 318.97,-641"/>
<polygon fill="#63b8ff" stroke="#63b8ff" points="290.1,-637.5 280.1,-641 290.1,-644.5 290.1,-637.5"/>
</a>
</g>
</g>
<!-- Node24 -->
<g id="Node000024" class="node">
<title>Node24</title>
<g id="a_Node000024"><a xlink:href="classEasyKiConverter_1_1NetworkUtils.html" target="_top" xlink:title="网络工具">
<polygon fill="white" stroke="#666666" points="477,-421 332,-421 332,-391 477,-391 477,-421"/>
<text text-anchor="start" x="340" y="-409" font-family="Helvetica,sans-Serif" font-size="10.00">EasyKiConverter::Network</text>
<text text-anchor="middle" x="404.5" y="-398" font-family="Helvetica,sans-Serif" font-size="10.00">Utils</text>
</a>
</g>
</g>
<!-- Node23&#45;&gt;Node24 -->
<g id="edge24_Node000023_Node000024" class="edge">
<title>Node23&#45;&gt;Node24</title>
<g id="a_edge24_Node000023_Node000024"><a xlink:title=" ">
<path fill="none" stroke="#63b8ff" d="M278.75,-406C296.28,-406 314.62,-406 331.69,-406"/>
<polygon fill="#63b8ff" stroke="#63b8ff" points="278.54,-402.5 268.54,-406 278.54,-409.5 278.54,-402.5"/>
</a>
</g>
</g>
<!-- Node30 -->
<g id="Node000030" class="node">
<title>Node30</title>
<g id="a_Node000030"><a xlink:href="classEasyKiConverter_1_1FetchStageHandler.html" target="_top" xlink:title="抓取阶段处理器">
<polygon fill="white" stroke="#666666" points="483.5,-207 325.5,-207 325.5,-177 483.5,-177 483.5,-207"/>
<text text-anchor="start" x="333.5" y="-195" font-family="Helvetica,sans-Serif" font-size="10.00">EasyKiConverter::FetchStage</text>
<text text-anchor="middle" x="404.5" y="-184" font-family="Helvetica,sans-Serif" font-size="10.00">Handler</text>
</a>
</g>
</g>
<!-- Node29&#45;&gt;Node30 -->
<g id="edge32_Node000029_Node000030" class="edge">
<title>Node29&#45;&gt;Node30</title>
<g id="a_edge32_Node000029_Node000030"><a xlink:title=" ">
<path fill="none" stroke="#63b8ff" d="M289.85,-192C301.68,-192 313.69,-192 325.24,-192"/>
<polygon fill="#63b8ff" stroke="#63b8ff" points="289.5,-188.5 279.5,-192 289.5,-195.5 289.5,-188.5"/>
</a>
</g>
</g>
<!-- Node31 -->
<g id="Node000031" class="node">
<title>Node31</title>
<g id="a_Node000031"><a xlink:href="classEasyKiConverter_1_1ProcessStageHandler.html" target="_top" xlink:title=" ">
<polygon fill="white" stroke="#666666" points="475,-159 334,-159 334,-129 475,-129 475,-159"/>
<text text-anchor="start" x="342" y="-147" font-family="Helvetica,sans-Serif" font-size="10.00">EasyKiConverter::Process</text>
<text text-anchor="middle" x="404.5" y="-136" font-family="Helvetica,sans-Serif" font-size="10.00">StageHandler</text>
</a>
</g>
</g>
<!-- Node29&#45;&gt;Node31 -->
<g id="edge33_Node000029_Node000031" class="edge">
<title>Node29&#45;&gt;Node31</title>
<g id="a_edge33_Node000029_Node000031"><a xlink:title=" ">
<path fill="none" stroke="#63b8ff" d="M250.31,-180.3C261.15,-177.92 272.44,-175.42 283,-173 302.3,-168.58 323.29,-163.6 342.26,-159.02"/>
<polygon fill="#63b8ff" stroke="#63b8ff" points="249.53,-176.88 240.51,-182.43 251.02,-183.72 249.53,-176.88"/>
</a>
</g>
</g>
<!-- Node32 -->
<g id="Node000032" class="node">
<title>Node32</title>
<g id="a_Node000032"><a xlink:href="classEasyKiConverter_1_1WriteStageHandler.html" target="_top" xlink:title=" ">
<polygon fill="white" stroke="#666666" points="483.5,-255 325.5,-255 325.5,-225 483.5,-225 483.5,-255"/>
<text text-anchor="start" x="333.5" y="-243" font-family="Helvetica,sans-Serif" font-size="10.00">EasyKiConverter::WriteStage</text>
<text text-anchor="middle" x="404.5" y="-232" font-family="Helvetica,sans-Serif" font-size="10.00">Handler</text>
</a>
</g>
</g>
<!-- Node29&#45;&gt;Node32 -->
<g id="edge34_Node000029_Node000032" class="edge">
<title>Node29&#45;&gt;Node32</title>
<g id="a_edge34_Node000029_Node000032"><a xlink:title=" ">
<path fill="none" stroke="#63b8ff" d="M250.31,-203.7C261.15,-206.08 272.44,-208.58 283,-211 302.3,-215.42 323.29,-220.4 342.26,-224.98"/>
<polygon fill="#63b8ff" stroke="#63b8ff" points="251.02,-200.28 240.51,-201.57 249.53,-207.12 251.02,-200.28"/>
</a>
</g>
</g>
<!-- Node4 -->
<g id="Node000004" class="node">
<title>Node4</title>
<g id="a_Node000004"><a xlink:title=" ">
<polygon fill="#e0e0e0" stroke="#999999" points="70,-1045.5 0,-1045.5 0,-1026.5 70,-1026.5 70,-1045.5"/>
<text text-anchor="middle" x="35" y="-1033.5" font-family="Helvetica,sans-Serif" font-size="10.00">QRunnable</text>
</a>
</g>
</g>
<!-- Node4&#45;&gt;Node3 -->
<g id="edge37_Node000004_Node000003" class="edge">
<title>Node4&#45;&gt;Node3</title>
<g id="a_edge37_Node000004_Node000003"><a xlink:title=" ">
<path fill="none" stroke="#63b8ff" d="M80.1,-1030.12C90.84,-1028.69 102.65,-1027.11 114.47,-1025.54"/>
<polygon fill="#63b8ff" stroke="#63b8ff" points="79.62,-1026.65 70.18,-1031.44 80.55,-1033.59 79.62,-1026.65"/>
</a>
</g>
</g>
<!-- Node4&#45;&gt;Node5 -->
<g id="edge38_Node000004_Node000005" class="edge">
<title>Node4&#45;&gt;Node5</title>
<g id="a_edge38_Node000004_Node000005"><a xlink:title=" ">
<path fill="none" stroke="#63b8ff" d="M56.19,-1020.24C69.63,-1010.48 88.04,-998.44 106,-991 115.19,-987.19 125.26,-984.1 135.18,-981.61"/>
<polygon fill="#63b8ff" stroke="#63b8ff" points="54.06,-1017.47 48.14,-1026.25 58.25,-1023.08 54.06,-1017.47"/>
</a>
</g>
</g>
<!-- Node4&#45;&gt;Node6 -->
<g id="edge39_Node000004_Node000006" class="edge">
<title>Node4&#45;&gt;Node6</title>
<g id="a_edge39_Node000004_Node000006"><a xlink:title=" ">
<path fill="none" stroke="#63b8ff" d="M46.55,-1017.74C58.49,-998.76 79.75,-969.7 106,-954 112.54,-950.09 119.78,-946.98 127.21,-944.51"/>
<polygon fill="#63b8ff" stroke="#63b8ff" points="43.5,-1016.01 41.31,-1026.37 49.49,-1019.64 43.5,-1016.01"/>
</a>
</g>
</g>
<!-- Node4&#45;&gt;Node7 -->
<g id="edge40_Node000004_Node000007" class="edge">
<title>Node4&#45;&gt;Node7</title>
<g id="a_edge40_Node000004_Node000007"><a xlink:title=" ">
<path fill="none" stroke="#63b8ff" d="M45.82,-1054.63C57.49,-1074.94 78.84,-1106.97 106,-1125 111.12,-1128.4 116.71,-1131.32 122.51,-1133.82"/>
<polygon fill="#63b8ff" stroke="#63b8ff" points="48.79,-1052.76 40.89,-1045.7 42.66,-1056.15 48.79,-1052.76"/>
</a>
</g>
</g>
<!-- Node4&#45;&gt;Node8 -->
<g id="edge41_Node000004_Node000008" class="edge">
<title>Node4&#45;&gt;Node8</title>
<g id="a_edge41_Node000004_Node000008"><a xlink:title=" ">
<path fill="none" stroke="#63b8ff" d="M58.42,-1051.18C71.78,-1059.69 89.34,-1069.98 106,-1077 113.84,-1080.3 122.26,-1083.28 130.68,-1085.92"/>
<polygon fill="#63b8ff" stroke="#63b8ff" points="60.19,-1048.15 49.91,-1045.63 56.37,-1054.02 60.19,-1048.15"/>
</a>
</g>
</g>
<!-- Node4&#45;&gt;Node9 -->
<g id="edge42_Node000004_Node000009" class="edge">
<title>Node4&#45;&gt;Node9</title>
<g id="a_edge42_Node000004_Node000009"><a xlink:title=" ">
<path fill="none" stroke="#63b8ff" d="M80.47,-1042.21C94.44,-1044.16 110.19,-1046.36 125.41,-1048.49"/>
<polygon fill="#63b8ff" stroke="#63b8ff" points="80.56,-1038.69 70.18,-1040.77 79.59,-1045.62 80.56,-1038.69"/>
</a>
</g>
</g>
</g>
</svg>
