<?xml version="1.0" encoding="UTF-8" standalone="no"?>
<!DOCTYPE svg PUBLIC "-//W3C//DTD SVG 1.1//EN"
 "http://www.w3.org/Graphics/SVG/1.1/DTD/svg11.dtd">
<!-- Generated by graphviz version 2.43.0 (0)
 -->
<!-- Title: core/easyeda/JLCDatasheet.cpp Pages: 1 -->
<svg width="821pt" height="247pt"
 viewBox="0.00 0.00 821.00 247.00" xmlns="http://www.w3.org/2000/svg" xmlns:xlink="http://www.w3.org/1999/xlink">
<g id="graph0" class="graph" transform="scale(1 1) rotate(0) translate(4 243)">
<title>core/easyeda/JLCDatasheet.cpp</title>
<!-- Node1 -->
<g id="Node000001" class="node">
<title>Node1</title>
<g id="a_Node000001"><a xlink:title=" ">
<polygon fill="#999999" stroke="#666666" points="685.5,-239 515.5,-239 515.5,-220 685.5,-220 685.5,-239"/>
<text text-anchor="middle" x="600.5" y="-227" font-family="Helvetica,sans-Serif" font-size="10.00">core/easyeda/JLCDatasheet.cpp</text>
</a>
</g>
</g>
<!-- Node2 -->
<g id="Node000002" class="node">
<title>Node2</title>
<g id="a_Node000002"><a xlink:href="JLCDatasheet_8h.html" target="_top" xlink:title=" ">
<polygon fill="white" stroke="#666666" points="609,-184 518,-184 518,-165 609,-165 609,-184"/>
<text text-anchor="middle" x="563.5" y="-172" font-family="Helvetica,sans-Serif" font-size="10.00">JLCDatasheet.h</text>
</a>
</g>
</g>
<!-- Node1&#45;&gt;Node2 -->
<g id="edge1_Node000001_Node000002" class="edge">
<title>Node1&#45;&gt;Node2</title>
<g id="a_edge1_Node000001_Node000002"><a xlink:title=" ">
<path fill="none" stroke="#63b8ff" d="M594.39,-219.75C589.22,-212.34 581.65,-201.5 575.31,-192.41"/>
<polygon fill="#63b8ff" stroke="#63b8ff" points="578.09,-190.29 569.5,-184.09 572.35,-194.29 578.09,-190.29"/>
</a>
</g>
</g>
<!-- Node11 -->
<g id="Node000011" class="node">
<title>Node11</title>
<g id="a_Node000011"><a xlink:title=" ">
<polygon fill="#e0e0e0" stroke="#999999" points="93,-74 0,-74 0,-55 93,-55 93,-74"/>
<text text-anchor="middle" x="46.5" y="-62" font-family="Helvetica,sans-Serif" font-size="10.00">QNetworkReply</text>
</a>
</g>
</g>
<!-- Node1&#45;&gt;Node11 -->
<g id="edge20_Node000001_Node000011" class="edge">
<title>Node1&#45;&gt;Node11</title>
<g id="a_edge20_Node000001_Node000011"><a xlink:title=" ">
<path fill="none" stroke="#63b8ff" d="M565.02,-220C498.41,-203.83 350.31,-166.86 227.5,-129 174.85,-112.77 114.65,-90.99 78.66,-77.62"/>
<polygon fill="#63b8ff" stroke="#63b8ff" points="79.76,-74.3 69.17,-74.08 77.32,-80.86 79.76,-74.3"/>
</a>
</g>
</g>
<!-- Node13 -->
<g id="Node000013" class="node">
<title>Node13</title>
<g id="a_Node000013"><a xlink:title=" ">
<polygon fill="#e0e0e0" stroke="#999999" points="813,-129 772,-129 772,-110 813,-110 813,-129"/>
<text text-anchor="middle" x="792.5" y="-117" font-family="Helvetica,sans-Serif" font-size="10.00">QFile</text>
</a>
</g>
</g>
<!-- Node1&#45;&gt;Node13 -->
<g id="edge19_Node000001_Node000013" class="edge">
<title>Node1&#45;&gt;Node13</title>
<g id="a_edge19_Node000001_Node000013"><a xlink:title=" ">
<path fill="none" stroke="#63b8ff" d="M605.94,-219.79C614.86,-206.17 633.91,-179.87 656.5,-165 673.99,-153.49 727.41,-137.84 761.86,-128.5"/>
<polygon fill="#63b8ff" stroke="#63b8ff" points="763.13,-131.78 771.88,-125.81 761.32,-125.02 763.13,-131.78"/>
</a>
</g>
</g>
<!-- Node14 -->
<g id="Node000014" class="node">
<title>Node14</title>
<g id="a_Node000014"><a xlink:title=" ">
<polygon fill="#e0e0e0" stroke="#999999" points="721.5,-184 665.5,-184 665.5,-165 721.5,-165 721.5,-184"/>
<text text-anchor="middle" x="693.5" y="-172" font-family="Helvetica,sans-Serif" font-size="10.00">QDebug</text>
</a>
</g>
</g>
<!-- Node1&#45;&gt;Node14 -->
<g id="edge18_Node000001_Node000014" class="edge">
<title>Node1&#45;&gt;Node14</title>
<g id="a_edge18_Node000001_Node000014"><a xlink:title=" ">
<path fill="none" stroke="#63b8ff" d="M615.44,-219.98C630,-211.69 652.37,-198.94 669.43,-189.22"/>
<polygon fill="#63b8ff" stroke="#63b8ff" points="671.33,-192.16 678.29,-184.17 667.86,-186.08 671.33,-192.16"/>
</a>
</g>
</g>
<!-- Node3 -->
<g id="Node000003" class="node">
<title>Node3</title>
<g id="a_Node000003"><a xlink:href="NetworkUtils_8h.html" target="_top" xlink:title=" ">
<polygon fill="white" stroke="#666666" points="478,-129 341,-129 341,-110 478,-110 478,-129"/>
<text text-anchor="middle" x="409.5" y="-117" font-family="Helvetica,sans-Serif" font-size="10.00">core/utils/NetworkUtils.h</text>
</a>
</g>
</g>
<!-- Node2&#45;&gt;Node3 -->
<g id="edge2_Node000002_Node000003" class="edge">
<title>Node2&#45;&gt;Node3</title>
<g id="a_edge2_Node000002_Node000003"><a xlink:title=" ">
<path fill="none" stroke="#63b8ff" d="M538.76,-164.98C513.13,-156.16 472.87,-142.31 444.09,-132.41"/>
<polygon fill="#63b8ff" stroke="#63b8ff" points="445.03,-129.03 434.44,-129.08 442.75,-135.65 445.03,-129.03"/>
</a>
</g>
</g>
<!-- Node7 -->
<g id="Node000007" class="node">
<title>Node7</title>
<g id="a_Node000007"><a xlink:title=" ">
<polygon fill="#e0e0e0" stroke="#999999" points="437.5,-19 381.5,-19 381.5,0 437.5,0 437.5,-19"/>
<text text-anchor="middle" x="409.5" y="-7" font-family="Helvetica,sans-Serif" font-size="10.00">QObject</text>
</a>
</g>
</g>
<!-- Node2&#45;&gt;Node7 -->
<g id="edge16_Node000002_Node000007" class="edge">
<title>Node2&#45;&gt;Node7</title>
<g id="a_edge16_Node000002_Node000007"><a xlink:title=" ">
<path fill="none" stroke="#63b8ff" d="M594.84,-164.92C652.91,-147.58 767.47,-105.64 723.5,-55 688.16,-14.3 523.21,-9.83 447.57,-9.97"/>
<polygon fill="#63b8ff" stroke="#63b8ff" points="447.5,-6.47 437.52,-10.02 447.53,-13.47 447.5,-6.47"/>
</a>
</g>
</g>
<!-- Node8 -->
<g id="Node000008" class="node">
<title>Node8</title>
<g id="a_Node000008"><a xlink:title=" ">
<polygon fill="#e0e0e0" stroke="#999999" points="152,-19 99,-19 99,0 152,0 152,-19"/>
<text text-anchor="middle" x="125.5" y="-7" font-family="Helvetica,sans-Serif" font-size="10.00">QString</text>
</a>
</g>
</g>
<!-- Node2&#45;&gt;Node8 -->
<g id="edge17_Node000002_Node000008" class="edge">
<title>Node2&#45;&gt;Node8</title>
<g id="a_edge17_Node000002_Node000008"><a xlink:title=" ">
<path fill="none" stroke="#63b8ff" d="M517.79,-172.95C439.19,-169.78 276.64,-153.31 170.5,-74 154.47,-62.02 141.93,-42.66 134.21,-28.46"/>
<polygon fill="#63b8ff" stroke="#63b8ff" points="137.14,-26.5 129.45,-19.21 130.91,-29.71 137.14,-26.5"/>
</a>
</g>
</g>
<!-- Node2&#45;&gt;Node13 -->
<g id="edge15_Node000002_Node000013" class="edge">
<title>Node2&#45;&gt;Node13</title>
<g id="a_edge15_Node000002_Node000013"><a xlink:title=" ">
<path fill="none" stroke="#63b8ff" d="M601.45,-164.95C640.58,-156.09 703.35,-141.78 757.5,-129 758.95,-128.66 760.42,-128.31 761.92,-127.95"/>
<polygon fill="#63b8ff" stroke="#63b8ff" points="762.88,-131.32 771.78,-125.58 761.24,-124.51 762.88,-131.32"/>
</a>
</g>
</g>
<!-- Node4 -->
<g id="Node000004" class="node">
<title>Node4</title>
<g id="a_Node000004"><a xlink:href="INetworkAdapter_8h.html" target="_top" xlink:title=" ">
<polygon fill="white" stroke="#666666" points="343,-74 188,-74 188,-55 343,-55 343,-74"/>
<text text-anchor="middle" x="265.5" y="-62" font-family="Helvetica,sans-Serif" font-size="10.00">core/utils/INetworkAdapter.h</text>
</a>
</g>
</g>
<!-- Node3&#45;&gt;Node4 -->
<g id="edge3_Node000003_Node000004" class="edge">
<title>Node3&#45;&gt;Node4</title>
<g id="a_edge3_Node000003_Node000004"><a xlink:title=" ">
<path fill="none" stroke="#63b8ff" d="M386.36,-109.98C362.68,-101.27 325.63,-87.63 298.79,-77.75"/>
<polygon fill="#63b8ff" stroke="#63b8ff" points="299.65,-74.34 289.06,-74.17 297.23,-80.91 299.65,-74.34"/>
</a>
</g>
</g>
<!-- Node5 -->
<g id="Node000005" class="node">
<title>Node5</title>
<g id="a_Node000005"><a xlink:title=" ">
<polygon fill="#e0e0e0" stroke="#999999" points="258,-19 185,-19 185,0 258,0 258,-19"/>
<text text-anchor="middle" x="221.5" y="-7" font-family="Helvetica,sans-Serif" font-size="10.00">QByteArray</text>
</a>
</g>
</g>
<!-- Node3&#45;&gt;Node5 -->
<g id="edge8_Node000003_Node000005" class="edge">
<title>Node3&#45;&gt;Node5</title>
<g id="a_edge8_Node000003_Node000005"><a xlink:title=" ">
<path fill="none" stroke="#63b8ff" d="M340.87,-114.7C280.39,-109.75 198.82,-98.6 178.5,-74 165.51,-58.26 183.49,-38.61 200.01,-25.37"/>
<polygon fill="#63b8ff" stroke="#63b8ff" points="202.47,-27.9 208.35,-19.08 198.25,-22.31 202.47,-27.9"/>
</a>
</g>
</g>
<!-- Node6 -->
<g id="Node000006" class="node">
<title>Node6</title>
<g id="a_Node000006"><a xlink:title=" ">
<polygon fill="#e0e0e0" stroke="#999999" points="359.5,-19 283.5,-19 283.5,0 359.5,0 359.5,-19"/>
<text text-anchor="middle" x="321.5" y="-7" font-family="Helvetica,sans-Serif" font-size="10.00">QJsonObject</text>
</a>
</g>
</g>
<!-- Node3&#45;&gt;Node6 -->
<g id="edge9_Node000003_Node000006" class="edge">
<title>Node3&#45;&gt;Node6</title>
<g id="a_edge9_Node000003_Node000006"><a xlink:title=" ">
<path fill="none" stroke="#63b8ff" d="M402.3,-109.66C387.59,-91.61 353.91,-50.28 335.01,-27.08"/>
<polygon fill="#63b8ff" stroke="#63b8ff" points="337.59,-24.7 328.55,-19.16 332.16,-29.12 337.59,-24.7"/>
</a>
</g>
</g>
<!-- Node3&#45;&gt;Node7 -->
<g id="edge13_Node000003_Node000007" class="edge">
<title>Node3&#45;&gt;Node7</title>
<g id="a_edge13_Node000003_Node000007"><a xlink:title=" ">
<path fill="none" stroke="#63b8ff" d="M409.5,-109.66C409.5,-92.17 409.5,-52.8 409.5,-29.27"/>
<polygon fill="#63b8ff" stroke="#63b8ff" points="413,-29.16 409.5,-19.16 406,-29.16 413,-29.16"/>
</a>
</g>
</g>
<!-- Node9 -->
<g id="Node000009" class="node">
<title>Node9</title>
<g id="a_Node000009"><a xlink:title=" ">
<polygon fill="#e0e0e0" stroke="#999999" points="483,-74 438,-74 438,-55 483,-55 483,-74"/>
<text text-anchor="middle" x="460.5" y="-62" font-family="Helvetica,sans-Serif" font-size="10.00">QMap</text>
</a>
</g>
</g>
<!-- Node3&#45;&gt;Node9 -->
<g id="edge10_Node000003_Node000009" class="edge">
<title>Node3&#45;&gt;Node9</title>
<g id="a_edge10_Node000003_Node000009"><a xlink:title=" ">
<path fill="none" stroke="#63b8ff" d="M417.92,-109.75C425.27,-102.11 436.13,-90.82 445.04,-81.56"/>
<polygon fill="#63b8ff" stroke="#63b8ff" points="447.82,-83.72 452.24,-74.09 442.78,-78.87 447.82,-83.72"/>
</a>
</g>
</g>
<!-- Node10 -->
<g id="Node000010" class="node">
<title>Node10</title>
<g id="a_Node000010"><a xlink:title=" ">
<polygon fill="#e0e0e0" stroke="#999999" points="643.5,-74 501.5,-74 501.5,-55 643.5,-55 643.5,-74"/>
<text text-anchor="middle" x="572.5" y="-62" font-family="Helvetica,sans-Serif" font-size="10.00">QNetworkAccessManager</text>
</a>
</g>
</g>
<!-- Node3&#45;&gt;Node10 -->
<g id="edge11_Node000003_Node000010" class="edge">
<title>Node3&#45;&gt;Node10</title>
<g id="a_edge11_Node000003_Node000010"><a xlink:title=" ">
<path fill="none" stroke="#63b8ff" d="M435.69,-109.98C462.94,-101.13 505.8,-87.19 536.28,-77.28"/>
<polygon fill="#63b8ff" stroke="#63b8ff" points="537.68,-80.5 546.11,-74.08 535.51,-73.85 537.68,-80.5"/>
</a>
</g>
</g>
<!-- Node3&#45;&gt;Node11 -->
<g id="edge12_Node000003_Node000011" class="edge">
<title>Node3&#45;&gt;Node11</title>
<g id="a_edge12_Node000003_Node000011"><a xlink:title=" ">
<path fill="none" stroke="#63b8ff" d="M351.18,-109.98C282.93,-100.02 170.7,-83.63 103.17,-73.77"/>
<polygon fill="#63b8ff" stroke="#63b8ff" points="103.54,-70.29 93.14,-72.31 102.53,-77.22 103.54,-70.29"/>
</a>
</g>
</g>
<!-- Node12 -->
<g id="Node000012" class="node">
<title>Node12</title>
<g id="a_Node000012"><a xlink:title=" ">
<polygon fill="#e0e0e0" stroke="#999999" points="715,-74 662,-74 662,-55 715,-55 715,-74"/>
<text text-anchor="middle" x="688.5" y="-62" font-family="Helvetica,sans-Serif" font-size="10.00">QTimer</text>
</a>
</g>
</g>
<!-- Node3&#45;&gt;Node12 -->
<g id="edge14_Node000003_Node000012" class="edge">
<title>Node3&#45;&gt;Node12</title>
<g id="a_edge14_Node000003_Node000012"><a xlink:title=" ">
<path fill="none" stroke="#63b8ff" d="M460.38,-109.96C507.43,-101.88 579.55,-89.07 651.63,-74.09"/>
<polygon fill="#63b8ff" stroke="#63b8ff" points="652.73,-77.44 661.8,-71.96 651.29,-70.59 652.73,-77.44"/>
</a>
</g>
</g>
<!-- Node4&#45;&gt;Node5 -->
<g id="edge4_Node000004_Node000005" class="edge">
<title>Node4&#45;&gt;Node5</title>
<g id="a_edge4_Node000004_Node000005"><a xlink:title=" ">
<path fill="none" stroke="#63b8ff" d="M258.23,-54.75C251.96,-47.18 242.71,-36.05 235.07,-26.84"/>
<polygon fill="#63b8ff" stroke="#63b8ff" points="237.71,-24.55 228.63,-19.09 232.33,-29.02 237.71,-24.55"/>
</a>
</g>
</g>
<!-- Node4&#45;&gt;Node6 -->
<g id="edge5_Node000004_Node000006" class="edge">
<title>Node4&#45;&gt;Node6</title>
<g id="a_edge5_Node000004_Node000006"><a xlink:title=" ">
<path fill="none" stroke="#63b8ff" d="M274.5,-54.98C282.69,-47.23 295.01,-35.58 304.97,-26.14"/>
<polygon fill="#63b8ff" stroke="#63b8ff" points="307.48,-28.59 312.34,-19.17 302.67,-23.5 307.48,-28.59"/>
</a>
</g>
</g>
<!-- Node4&#45;&gt;Node7 -->
<g id="edge6_Node000004_Node000007" class="edge">
<title>Node4&#45;&gt;Node7</title>
<g id="a_edge6_Node000004_Node000007"><a xlink:title=" ">
<path fill="none" stroke="#63b8ff" d="M288.64,-54.98C312.32,-46.27 349.37,-32.63 376.21,-22.75"/>
<polygon fill="#63b8ff" stroke="#63b8ff" points="377.77,-25.91 385.94,-19.17 375.35,-19.34 377.77,-25.91"/>
</a>
</g>
</g>
<!-- Node4&#45;&gt;Node8 -->
<g id="edge7_Node000004_Node000008" class="edge">
<title>Node4&#45;&gt;Node8</title>
<g id="a_edge7_Node000004_Node000008"><a xlink:title=" ">
<path fill="none" stroke="#63b8ff" d="M243.01,-54.98C219.98,-46.27 183.96,-32.63 157.87,-22.75"/>
<polygon fill="#63b8ff" stroke="#63b8ff" points="158.99,-19.44 148.4,-19.17 156.52,-25.98 158.99,-19.44"/>
</a>
</g>
</g>
</g>
</svg>
