<?xml version="1.0" encoding="UTF-8" standalone="no"?>
<!DOCTYPE svg PUBLIC "-//W3C//DTD SVG 1.1//EN"
 "http://www.w3.org/Graphics/SVG/1.1/DTD/svg11.dtd">
<!-- Generated by graphviz version 2.43.0 (0)
 -->
<!-- Title: core/easyeda/JLCDatasheet.h Pages: 1 -->
<svg width="800pt" height="192pt"
 viewBox="0.00 0.00 800.45 192.00" xmlns="http://www.w3.org/2000/svg" xmlns:xlink="http://www.w3.org/1999/xlink">
<g id="graph0" class="graph" transform="scale(1 1) rotate(0) translate(4 188)">
<title>core/easyeda/JLCDatasheet.h</title>
<!-- Node1 -->
<g id="Node000001" class="node">
<title>Node1</title>
<g id="a_Node000001"><a xlink:title=" ">
<polygon fill="#999999" stroke="#666666" points="618.45,-184 459.45,-184 459.45,-165 618.45,-165 618.45,-184"/>
<text text-anchor="middle" x="538.95" y="-172" font-family="Helvetica,sans-Serif" font-size="10.00">core/easyeda/JLCDatasheet.h</text>
</a>
</g>
</g>
<!-- Node2 -->
<g id="Node000002" class="node">
<title>Node2</title>
<g id="a_Node000002"><a xlink:href="NetworkUtils_8h.html" target="_top" xlink:title=" ">
<polygon fill="white" stroke="#666666" points="423.45,-129 286.45,-129 286.45,-110 423.45,-110 423.45,-129"/>
<text text-anchor="middle" x="354.95" y="-117" font-family="Helvetica,sans-Serif" font-size="10.00">core/utils/NetworkUtils.h</text>
</a>
</g>
</g>
<!-- Node1&#45;&gt;Node2 -->
<g id="edge1_Node000001_Node000002" class="edge">
<title>Node1&#45;&gt;Node2</title>
<g id="a_edge1_Node000001_Node000002"><a xlink:title=" ">
<path fill="none" stroke="#63b8ff" d="M509.39,-164.98C478.23,-156.01 428.98,-141.82 394.49,-131.89"/>
<polygon fill="#63b8ff" stroke="#63b8ff" points="395.32,-128.49 384.74,-129.08 393.38,-135.21 395.32,-128.49"/>
</a>
</g>
</g>
<!-- Node6 -->
<g id="Node000006" class="node">
<title>Node6</title>
<g id="a_Node000006"><a xlink:title=" ">
<polygon fill="#e0e0e0" stroke="#999999" points="238.95,-19 182.95,-19 182.95,0 238.95,0 238.95,-19"/>
<text text-anchor="middle" x="210.95" y="-7" font-family="Helvetica,sans-Serif" font-size="10.00">QObject</text>
</a>
</g>
</g>
<!-- Node1&#45;&gt;Node6 -->
<g id="edge15_Node000001_Node000006" class="edge">
<title>Node1&#45;&gt;Node6</title>
<g id="a_edge15_Node000001_Node000006"><a xlink:title=" ">
<path fill="none" stroke="#63b8ff" d="M459.2,-170.64C325.37,-163.98 64.68,-142.33 8.95,-74 -35.92,-18.99 101.81,-10.84 172.22,-10.15"/>
<polygon fill="#63b8ff" stroke="#63b8ff" points="172.51,-13.65 182.49,-10.1 172.48,-6.65 172.51,-13.65"/>
</a>
</g>
</g>
<!-- Node7 -->
<g id="Node000007" class="node">
<title>Node7</title>
<g id="a_Node000007"><a xlink:title=" ">
<polygon fill="#e0e0e0" stroke="#999999" points="647.45,-19 594.45,-19 594.45,0 647.45,0 647.45,-19"/>
<text text-anchor="middle" x="620.95" y="-7" font-family="Helvetica,sans-Serif" font-size="10.00">QString</text>
</a>
</g>
</g>
<!-- Node1&#45;&gt;Node7 -->
<g id="edge16_Node000001_Node000007" class="edge">
<title>Node1&#45;&gt;Node7</title>
<g id="a_edge16_Node000001_Node000007"><a xlink:title=" ">
<path fill="none" stroke="#63b8ff" d="M570.42,-164.9C609.77,-152.27 675.41,-124.54 703.95,-74 717.55,-49.91 685.49,-31.98 657.34,-21.43"/>
<polygon fill="#63b8ff" stroke="#63b8ff" points="658.22,-18.03 647.63,-18 655.9,-24.63 658.22,-18.03"/>
</a>
</g>
</g>
<!-- Node12 -->
<g id="Node000012" class="node">
<title>Node12</title>
<g id="a_Node000012"><a xlink:title=" ">
<polygon fill="#e0e0e0" stroke="#999999" points="792.45,-129 751.45,-129 751.45,-110 792.45,-110 792.45,-129"/>
<text text-anchor="middle" x="771.95" y="-117" font-family="Helvetica,sans-Serif" font-size="10.00">QFile</text>
</a>
</g>
</g>
<!-- Node1&#45;&gt;Node12 -->
<g id="edge14_Node000001_Node000012" class="edge">
<title>Node1&#45;&gt;Node12</title>
<g id="a_edge14_Node000001_Node000012"><a xlink:title=" ">
<path fill="none" stroke="#63b8ff" d="M577.69,-165C617.64,-156.18 681.71,-141.91 736.95,-129 738.39,-128.66 739.87,-128.31 741.37,-127.96"/>
<polygon fill="#63b8ff" stroke="#63b8ff" points="742.33,-131.33 751.23,-125.59 740.69,-124.52 742.33,-131.33"/>
</a>
</g>
</g>
<!-- Node3 -->
<g id="Node000003" class="node">
<title>Node3</title>
<g id="a_Node000003"><a xlink:href="INetworkAdapter_8h.html" target="_top" xlink:title=" ">
<polygon fill="white" stroke="#666666" points="432.45,-74 277.45,-74 277.45,-55 432.45,-55 432.45,-74"/>
<text text-anchor="middle" x="354.95" y="-62" font-family="Helvetica,sans-Serif" font-size="10.00">core/utils/INetworkAdapter.h</text>
</a>
</g>
</g>
<!-- Node2&#45;&gt;Node3 -->
<g id="edge2_Node000002_Node000003" class="edge">
<title>Node2&#45;&gt;Node3</title>
<g id="a_edge2_Node000002_Node000003"><a xlink:title=" ">
<path fill="none" stroke="#63b8ff" d="M354.95,-109.75C354.95,-102.8 354.95,-92.85 354.95,-84.13"/>
<polygon fill="#63b8ff" stroke="#63b8ff" points="358.45,-84.09 354.95,-74.09 351.45,-84.09 358.45,-84.09"/>
</a>
</g>
</g>
<!-- Node4 -->
<g id="Node000004" class="node">
<title>Node4</title>
<g id="a_Node000004"><a xlink:title=" ">
<polygon fill="#e0e0e0" stroke="#999999" points="475.45,-19 402.45,-19 402.45,0 475.45,0 475.45,-19"/>
<text text-anchor="middle" x="438.95" y="-7" font-family="Helvetica,sans-Serif" font-size="10.00">QByteArray</text>
</a>
</g>
</g>
<!-- Node2&#45;&gt;Node4 -->
<g id="edge7_Node000002_Node000004" class="edge">
<title>Node2&#45;&gt;Node4</title>
<g id="a_edge7_Node000002_Node000004"><a xlink:title=" ">
<path fill="none" stroke="#63b8ff" d="M390,-109.88C408.6,-103.33 429.85,-92.24 440.95,-74 449.1,-60.6 447.58,-42.5 444.62,-29.05"/>
<polygon fill="#63b8ff" stroke="#63b8ff" points="447.91,-27.82 441.97,-19.05 441.15,-29.61 447.91,-27.82"/>
</a>
</g>
</g>
<!-- Node5 -->
<g id="Node000005" class="node">
<title>Node5</title>
<g id="a_Node000005"><a xlink:title=" ">
<polygon fill="#e0e0e0" stroke="#999999" points="362.95,-19 286.95,-19 286.95,0 362.95,0 362.95,-19"/>
<text text-anchor="middle" x="324.95" y="-7" font-family="Helvetica,sans-Serif" font-size="10.00">QJsonObject</text>
</a>
</g>
</g>
<!-- Node2&#45;&gt;Node5 -->
<g id="edge8_Node000002_Node000005" class="edge">
<title>Node2&#45;&gt;Node5</title>
<g id="a_edge8_Node000002_Node000005"><a xlink:title=" ">
<path fill="none" stroke="#63b8ff" d="M319.5,-109.99C300.69,-103.48 279.19,-92.38 267.95,-74 256.28,-54.93 278.17,-36.28 298.11,-24.18"/>
<polygon fill="#63b8ff" stroke="#63b8ff" points="300.06,-27.1 307.01,-19.1 296.59,-21.02 300.06,-27.1"/>
</a>
</g>
</g>
<!-- Node2&#45;&gt;Node6 -->
<g id="edge12_Node000002_Node000006" class="edge">
<title>Node2&#45;&gt;Node6</title>
<g id="a_edge12_Node000002_Node000006"><a xlink:title=" ">
<path fill="none" stroke="#63b8ff" d="M328.8,-109.86C308.86,-102.43 281.42,-90.32 260.95,-74 244.72,-61.07 230.56,-41.89 221.49,-27.99"/>
<polygon fill="#63b8ff" stroke="#63b8ff" points="224.35,-25.96 216.06,-19.36 218.42,-29.69 224.35,-25.96"/>
</a>
</g>
</g>
<!-- Node8 -->
<g id="Node000008" class="node">
<title>Node8</title>
<g id="a_Node000008"><a xlink:title=" ">
<polygon fill="#e0e0e0" stroke="#999999" points="534.45,-74 489.45,-74 489.45,-55 534.45,-55 534.45,-74"/>
<text text-anchor="middle" x="511.95" y="-62" font-family="Helvetica,sans-Serif" font-size="10.00">QMap</text>
</a>
</g>
</g>
<!-- Node2&#45;&gt;Node8 -->
<g id="edge9_Node000002_Node000008" class="edge">
<title>Node2&#45;&gt;Node8</title>
<g id="a_edge9_Node000002_Node000008"><a xlink:title=" ">
<path fill="none" stroke="#63b8ff" d="M380.17,-109.98C407.16,-100.88 450.04,-86.4 479.52,-76.45"/>
<polygon fill="#63b8ff" stroke="#63b8ff" points="480.98,-79.65 489.33,-73.13 478.74,-73.02 480.98,-79.65"/>
</a>
</g>
</g>
<!-- Node9 -->
<g id="Node000009" class="node">
<title>Node9</title>
<g id="a_Node000009"><a xlink:title=" ">
<polygon fill="#e0e0e0" stroke="#999999" points="694.95,-74 552.95,-74 552.95,-55 694.95,-55 694.95,-74"/>
<text text-anchor="middle" x="623.95" y="-62" font-family="Helvetica,sans-Serif" font-size="10.00">QNetworkAccessManager</text>
</a>
</g>
</g>
<!-- Node2&#45;&gt;Node9 -->
<g id="edge10_Node000002_Node000009" class="edge">
<title>Node2&#45;&gt;Node9</title>
<g id="a_edge10_Node000002_Node000009"><a xlink:title=" ">
<path fill="none" stroke="#63b8ff" d="M398.17,-109.98C444.99,-100.76 519.76,-86.03 570.31,-76.07"/>
<polygon fill="#63b8ff" stroke="#63b8ff" points="571.26,-79.45 580.39,-74.08 569.9,-72.58 571.26,-79.45"/>
</a>
</g>
</g>
<!-- Node10 -->
<g id="Node000010" class="node">
<title>Node10</title>
<g id="a_Node000010"><a xlink:title=" ">
<polygon fill="#e0e0e0" stroke="#999999" points="111.45,-74 18.45,-74 18.45,-55 111.45,-55 111.45,-74"/>
<text text-anchor="middle" x="64.95" y="-62" font-family="Helvetica,sans-Serif" font-size="10.00">QNetworkReply</text>
</a>
</g>
</g>
<!-- Node2&#45;&gt;Node10 -->
<g id="edge11_Node000002_Node000010" class="edge">
<title>Node2&#45;&gt;Node10</title>
<g id="a_edge11_Node000002_Node000010"><a xlink:title=" ">
<path fill="none" stroke="#63b8ff" d="M308.35,-109.98C257.56,-100.7 176.26,-85.84 121.76,-75.88"/>
<polygon fill="#63b8ff" stroke="#63b8ff" points="122.37,-72.44 111.91,-74.08 121.11,-79.32 122.37,-72.44"/>
</a>
</g>
</g>
<!-- Node11 -->
<g id="Node000011" class="node">
<title>Node11</title>
<g id="a_Node000011"><a xlink:title=" ">
<polygon fill="#e0e0e0" stroke="#999999" points="182.45,-74 129.45,-74 129.45,-55 182.45,-55 182.45,-74"/>
<text text-anchor="middle" x="155.95" y="-62" font-family="Helvetica,sans-Serif" font-size="10.00">QTimer</text>
</a>
</g>
</g>
<!-- Node2&#45;&gt;Node11 -->
<g id="edge13_Node000002_Node000011" class="edge">
<title>Node2&#45;&gt;Node11</title>
<g id="a_edge13_Node000002_Node000011"><a xlink:title=" ">
<path fill="none" stroke="#63b8ff" d="M322.98,-109.98C287.42,-100.52 230.1,-85.25 192.72,-75.29"/>
<polygon fill="#63b8ff" stroke="#63b8ff" points="193.3,-71.83 182.74,-72.63 191.5,-78.59 193.3,-71.83"/>
</a>
</g>
</g>
<!-- Node3&#45;&gt;Node4 -->
<g id="edge3_Node000003_Node000004" class="edge">
<title>Node3&#45;&gt;Node4</title>
<g id="a_edge3_Node000003_Node000004"><a xlink:title=" ">
<path fill="none" stroke="#63b8ff" d="M368.44,-54.98C381.35,-46.84 401.05,-34.41 416.35,-24.76"/>
<polygon fill="#63b8ff" stroke="#63b8ff" points="418.62,-27.47 425.21,-19.17 414.88,-21.55 418.62,-27.47"/>
</a>
</g>
</g>
<!-- Node3&#45;&gt;Node5 -->
<g id="edge4_Node000003_Node000005" class="edge">
<title>Node3&#45;&gt;Node5</title>
<g id="a_edge4_Node000003_Node000005"><a xlink:title=" ">
<path fill="none" stroke="#63b8ff" d="M349.99,-54.75C345.89,-47.49 339.92,-36.95 334.84,-27.98"/>
<polygon fill="#63b8ff" stroke="#63b8ff" points="337.78,-26.07 329.81,-19.09 331.69,-29.52 337.78,-26.07"/>
</a>
</g>
</g>
<!-- Node3&#45;&gt;Node6 -->
<g id="edge5_Node000003_Node000006" class="edge">
<title>Node3&#45;&gt;Node6</title>
<g id="a_edge5_Node000003_Node000006"><a xlink:title=" ">
<path fill="none" stroke="#63b8ff" d="M331.81,-54.98C308.13,-46.27 271.08,-32.63 244.24,-22.75"/>
<polygon fill="#63b8ff" stroke="#63b8ff" points="245.1,-19.34 234.51,-19.17 242.68,-25.91 245.1,-19.34"/>
</a>
</g>
</g>
<!-- Node3&#45;&gt;Node7 -->
<g id="edge6_Node000003_Node000007" class="edge">
<title>Node3&#45;&gt;Node7</title>
<g id="a_edge6_Node000003_Node000007"><a xlink:title=" ">
<path fill="none" stroke="#63b8ff" d="M397.69,-54.98C449.37,-44.69 535.5,-27.52 584.3,-17.8"/>
<polygon fill="#63b8ff" stroke="#63b8ff" points="584.99,-21.23 594.12,-15.85 583.62,-14.37 584.99,-21.23"/>
</a>
</g>
</g>
</g>
</svg>
