<?xml version="1.0" encoding="UTF-8" standalone="no"?>
<!DOCTYPE svg PUBLIC "-//W3C//DTD SVG 1.1//EN"
 "http://www.w3.org/Graphics/SVG/1.1/DTD/svg11.dtd">
<!-- Generated by graphviz version 2.43.0 (0)
 -->
<!-- Title: core/easyeda/JLCDatasheet.cpp Pages: 1 -->
<svg width="1380pt" height="258pt"
 viewBox="0.00 0.00 1379.50 258.00" xmlns="http://www.w3.org/2000/svg" xmlns:xlink="http://www.w3.org/1999/xlink">
<g id="graph0" class="graph" transform="scale(1 1) rotate(0) translate(4 254)">
<title>core/easyeda/JLCDatasheet.cpp</title>
<!-- Node1 -->
<g id="Node000001" class="node">
<title>Node1</title>
<g id="a_Node000001"><a xlink:title=" ">
<polygon fill="#999999" stroke="#666666" points="565.5,-250 395.5,-250 395.5,-231 565.5,-231 565.5,-250"/>
<text text-anchor="middle" x="480.5" y="-238" font-family="Helvetica,sans-Serif" font-size="10.00">core/easyeda/JLCDatasheet.cpp</text>
</a>
</g>
</g>
<!-- Node2 -->
<g id="Node000002" class="node">
<title>Node2</title>
<g id="a_Node000002"><a xlink:href="JLCDatasheet_8h.html" target="_top" xlink:title=" ">
<polygon fill="white" stroke="#666666" points="171,-195 80,-195 80,-176 171,-176 171,-195"/>
<text text-anchor="middle" x="125.5" y="-183" font-family="Helvetica,sans-Serif" font-size="10.00">JLCDatasheet.h</text>
</a>
</g>
</g>
<!-- Node1&#45;&gt;Node2 -->
<g id="edge1_Node000001_Node000002" class="edge">
<title>Node1&#45;&gt;Node2</title>
<g id="a_edge1_Node000001_Node000002"><a xlink:title=" ">
<path fill="none" stroke="#63b8ff" d="M423.46,-230.98C356.86,-221.04 247.41,-204.7 181.33,-194.84"/>
<polygon fill="#63b8ff" stroke="#63b8ff" points="181.52,-191.32 171.11,-193.31 180.48,-198.25 181.52,-191.32"/>
</a>
</g>
</g>
<!-- Node19 -->
<g id="Node000019" class="node">
<title>Node19</title>
<g id="a_Node000019"><a xlink:title=" ">
<polygon fill="#e0e0e0" stroke="#999999" points="41,-134.5 0,-134.5 0,-115.5 41,-115.5 41,-134.5"/>
<text text-anchor="middle" x="20.5" y="-122.5" font-family="Helvetica,sans-Serif" font-size="10.00">QFile</text>
</a>
</g>
</g>
<!-- Node1&#45;&gt;Node19 -->
<g id="edge40_Node000001_Node000019" class="edge">
<title>Node1&#45;&gt;Node19</title>
<g id="a_edge40_Node000001_Node000019"><a xlink:title=" ">
<path fill="none" stroke="#63b8ff" d="M395.14,-238.28C291.5,-235.43 123.91,-226 70.5,-195 50.56,-183.43 36.37,-160.37 28.31,-144.1"/>
<polygon fill="#63b8ff" stroke="#63b8ff" points="31.28,-142.19 23.91,-134.58 24.93,-145.13 31.28,-142.19"/>
</a>
</g>
</g>
<!-- Node20 -->
<g id="Node000020" class="node">
<title>Node20</title>
<g id="a_Node000020"><a xlink:href="NetworkClient_8h.html" target="_top" xlink:title=" ">
<polygon fill="white" stroke="#666666" points="916.5,-195 754.5,-195 754.5,-176 916.5,-176 916.5,-195"/>
<text text-anchor="middle" x="835.5" y="-183" font-family="Helvetica,sans-Serif" font-size="10.00">core/network/NetworkClient.h</text>
</a>
</g>
</g>
<!-- Node1&#45;&gt;Node20 -->
<g id="edge23_Node000001_Node000020" class="edge">
<title>Node1&#45;&gt;Node20</title>
<g id="a_edge23_Node000001_Node000020"><a xlink:title=" ">
<path fill="none" stroke="#63b8ff" d="M537.54,-230.98C600.46,-221.59 701.61,-206.49 768.32,-196.53"/>
<polygon fill="#63b8ff" stroke="#63b8ff" points="768.94,-199.98 778.31,-195.04 767.9,-193.05 768.94,-199.98"/>
</a>
</g>
</g>
<!-- Node28 -->
<g id="Node000028" class="node">
<title>Node28</title>
<g id="a_Node000028"><a xlink:title=" ">
<polygon fill="#e0e0e0" stroke="#999999" points="990.5,-195 934.5,-195 934.5,-176 990.5,-176 990.5,-195"/>
<text text-anchor="middle" x="962.5" y="-183" font-family="Helvetica,sans-Serif" font-size="10.00">QDebug</text>
</a>
</g>
</g>
<!-- Node1&#45;&gt;Node28 -->
<g id="edge39_Node000001_Node000028" class="edge">
<title>Node1&#45;&gt;Node28</title>
<g id="a_edge39_Node000001_Node000028"><a xlink:title=" ">
<path fill="none" stroke="#63b8ff" d="M565.81,-234.18C653.42,-227.99 793.84,-216.04 924.13,-195.03"/>
<polygon fill="#63b8ff" stroke="#63b8ff" points="924.99,-198.43 934.29,-193.37 923.86,-191.53 924.99,-198.43"/>
</a>
</g>
</g>
<!-- Node3 -->
<g id="Node000003" class="node">
<title>Node3</title>
<g id="a_Node000003"><a xlink:href="AsyncNetworkRequest_8h.html" target="_top" xlink:title=" ">
<polygon fill="white" stroke="#666666" points="621.5,-140 467.5,-140 467.5,-110 621.5,-110 621.5,-140"/>
<text text-anchor="start" x="475.5" y="-128" font-family="Helvetica,sans-Serif" font-size="10.00">core/network/AsyncNetwork</text>
<text text-anchor="middle" x="544.5" y="-117" font-family="Helvetica,sans-Serif" font-size="10.00">Request.h</text>
</a>
</g>
</g>
<!-- Node2&#45;&gt;Node3 -->
<g id="edge2_Node000002_Node000003" class="edge">
<title>Node2&#45;&gt;Node3</title>
<g id="a_edge2_Node000002_Node000003"><a xlink:title=" ">
<path fill="none" stroke="#63b8ff" d="M171.14,-178.13C239.59,-168.57 370.08,-150.35 457.21,-138.19"/>
<polygon fill="#63b8ff" stroke="#63b8ff" points="457.93,-141.62 467.35,-136.77 456.96,-134.69 457.93,-141.62"/>
</a>
</g>
</g>
<!-- Node6 -->
<g id="Node000006" class="node">
<title>Node6</title>
<g id="a_Node000006"><a xlink:title=" ">
<polygon fill="#e0e0e0" stroke="#999999" points="380,-19 327,-19 327,0 380,0 380,-19"/>
<text text-anchor="middle" x="353.5" y="-7" font-family="Helvetica,sans-Serif" font-size="10.00">QString</text>
</a>
</g>
</g>
<!-- Node2&#45;&gt;Node6 -->
<g id="edge22_Node000002_Node000006" class="edge">
<title>Node2&#45;&gt;Node6</title>
<g id="a_edge22_Node000002_Node000006"><a xlink:title=" ">
<path fill="none" stroke="#63b8ff" d="M118.26,-175.82C100.31,-153.22 57.39,-91.77 88.5,-55 117.26,-21.01 250.45,-12.97 316.36,-11.08"/>
<polygon fill="#63b8ff" stroke="#63b8ff" points="316.8,-14.57 326.71,-10.81 316.62,-7.57 316.8,-14.57"/>
</a>
</g>
</g>
<!-- Node16 -->
<g id="Node000016" class="node">
<title>Node16</title>
<g id="a_Node000016"><a xlink:title=" ">
<polygon fill="#e0e0e0" stroke="#999999" points="153.5,-74 97.5,-74 97.5,-55 153.5,-55 153.5,-74"/>
<text text-anchor="middle" x="125.5" y="-62" font-family="Helvetica,sans-Serif" font-size="10.00">QObject</text>
</a>
</g>
</g>
<!-- Node2&#45;&gt;Node16 -->
<g id="edge21_Node000002_Node000016" class="edge">
<title>Node2&#45;&gt;Node16</title>
<g id="a_edge21_Node000002_Node000016"><a xlink:title=" ">
<path fill="none" stroke="#63b8ff" d="M125.5,-175.94C125.5,-156.91 125.5,-110.69 125.5,-84.47"/>
<polygon fill="#63b8ff" stroke="#63b8ff" points="129,-84.3 125.5,-74.3 122,-84.3 129,-84.3"/>
</a>
</g>
</g>
<!-- Node2&#45;&gt;Node19 -->
<g id="edge20_Node000002_Node000019" class="edge">
<title>Node2&#45;&gt;Node19</title>
<g id="a_edge20_Node000002_Node000019"><a xlink:title=" ">
<path fill="none" stroke="#63b8ff" d="M110.01,-175.87C92.87,-166.32 65.03,-150.81 44.94,-139.62"/>
<polygon fill="#63b8ff" stroke="#63b8ff" points="46.5,-136.48 36.06,-134.67 43.09,-142.59 46.5,-136.48"/>
</a>
</g>
</g>
<!-- Node4 -->
<g id="Node000004" class="node">
<title>Node4</title>
<g id="a_Node000004"><a xlink:href="INetworkClient_8h.html" target="_top" xlink:title=" ">
<polygon fill="white" stroke="#666666" points="1158,-74 993,-74 993,-55 1158,-55 1158,-74"/>
<text text-anchor="middle" x="1075.5" y="-62" font-family="Helvetica,sans-Serif" font-size="10.00">core/network/INetworkClient.h</text>
</a>
</g>
</g>
<!-- Node3&#45;&gt;Node4 -->
<g id="edge3_Node000003_Node000004" class="edge">
<title>Node3&#45;&gt;Node4</title>
<g id="a_edge3_Node000003_Node000004"><a xlink:title=" ">
<path fill="none" stroke="#63b8ff" d="M621.82,-111.18C624.75,-110.77 627.65,-110.37 630.5,-110 664.39,-105.55 862.26,-86.16 982.45,-74.5"/>
<polygon fill="#63b8ff" stroke="#63b8ff" points="983.14,-77.94 992.76,-73.5 982.47,-70.98 983.14,-77.94"/>
</a>
</g>
</g>
<!-- Node5 -->
<g id="Node000005" class="node">
<title>Node5</title>
<g id="a_Node000005"><a xlink:title=" ">
<polygon fill="#e0e0e0" stroke="#999999" points="813,-19 740,-19 740,0 813,0 813,-19"/>
<text text-anchor="middle" x="776.5" y="-7" font-family="Helvetica,sans-Serif" font-size="10.00">QByteArray</text>
</a>
</g>
</g>
<!-- Node3&#45;&gt;Node5 -->
<g id="edge12_Node000003_Node000005" class="edge">
<title>Node3&#45;&gt;Node5</title>
<g id="a_edge12_Node000003_Node000005"><a xlink:title=" ">
<path fill="none" stroke="#63b8ff" d="M556.29,-109.73C569.94,-94.09 593.87,-69.34 619.5,-55 653.86,-35.78 697.18,-24.32 729.6,-17.85"/>
<polygon fill="#63b8ff" stroke="#63b8ff" points="730.56,-21.23 739.72,-15.92 729.25,-14.35 730.56,-21.23"/>
</a>
</g>
</g>
<!-- Node7 -->
<g id="Node000007" class="node">
<title>Node7</title>
<g id="a_Node000007"><a xlink:title=" ">
<polygon fill="#e0e0e0" stroke="#999999" points="460.5,-19 422.5,-19 422.5,0 460.5,0 460.5,-19"/>
<text text-anchor="middle" x="441.5" y="-7" font-family="Helvetica,sans-Serif" font-size="10.00">QUrl</text>
</a>
</g>
</g>
<!-- Node3&#45;&gt;Node7 -->
<g id="edge19_Node000003_Node000007" class="edge">
<title>Node3&#45;&gt;Node7</title>
<g id="a_edge19_Node000003_Node000007"><a xlink:title=" ">
<path fill="none" stroke="#63b8ff" d="M467.34,-118.08C371.3,-109.91 217.73,-93.91 200.5,-74 194.97,-67.61 195.1,-61.49 200.5,-55 203.89,-50.92 348.3,-26.18 411.92,-15.46"/>
<polygon fill="#63b8ff" stroke="#63b8ff" points="412.83,-18.85 422.11,-13.74 411.67,-11.95 412.83,-18.85"/>
</a>
</g>
</g>
<!-- Node10 -->
<g id="Node000010" class="node">
<title>Node10</title>
<g id="a_Node000010"><a xlink:title=" ">
<polygon fill="#e0e0e0" stroke="#999999" points="351.5,-74 209.5,-74 209.5,-55 351.5,-55 351.5,-74"/>
<text text-anchor="middle" x="280.5" y="-62" font-family="Helvetica,sans-Serif" font-size="10.00">QNetworkAccessManager</text>
</a>
</g>
</g>
<!-- Node3&#45;&gt;Node10 -->
<g id="edge9_Node000003_Node000010" class="edge">
<title>Node3&#45;&gt;Node10</title>
<g id="a_edge9_Node000003_Node000010"><a xlink:title=" ">
<path fill="none" stroke="#63b8ff" d="M481.27,-109.99C434.52,-99.63 371.81,-85.73 329,-76.25"/>
<polygon fill="#63b8ff" stroke="#63b8ff" points="329.62,-72.8 319.1,-74.05 328.11,-79.63 329.62,-72.8"/>
</a>
</g>
</g>
<!-- Node11 -->
<g id="Node000011" class="node">
<title>Node11</title>
<g id="a_Node000011"><a xlink:title=" ">
<polygon fill="#e0e0e0" stroke="#999999" points="721,-74 628,-74 628,-55 721,-55 721,-74"/>
<text text-anchor="middle" x="674.5" y="-62" font-family="Helvetica,sans-Serif" font-size="10.00">QNetworkReply</text>
</a>
</g>
</g>
<!-- Node3&#45;&gt;Node11 -->
<g id="edge10_Node000003_Node000011" class="edge">
<title>Node3&#45;&gt;Node11</title>
<g id="a_edge10_Node000003_Node000011"><a xlink:title=" ">
<path fill="none" stroke="#63b8ff" d="M575.64,-109.99C597.04,-100.36 625.23,-87.67 646.03,-78.31"/>
<polygon fill="#63b8ff" stroke="#63b8ff" points="647.62,-81.43 655.3,-74.14 644.75,-75.05 647.62,-81.43"/>
</a>
</g>
</g>
<!-- Node12 -->
<g id="Node000012" class="node">
<title>Node12</title>
<g id="a_Node000012"><a xlink:title=" ">
<polygon fill="#e0e0e0" stroke="#999999" points="441,-74 370,-74 370,-55 441,-55 441,-74"/>
<text text-anchor="middle" x="405.5" y="-62" font-family="Helvetica,sans-Serif" font-size="10.00">QAtomicInt</text>
</a>
</g>
</g>
<!-- Node3&#45;&gt;Node12 -->
<g id="edge11_Node000003_Node000012" class="edge">
<title>Node3&#45;&gt;Node12</title>
<g id="a_edge11_Node000003_Node000012"><a xlink:title=" ">
<path fill="none" stroke="#63b8ff" d="M511.21,-109.99C488.12,-100.27 457.63,-87.44 435.34,-78.06"/>
<polygon fill="#63b8ff" stroke="#63b8ff" points="436.6,-74.79 426.03,-74.14 433.89,-81.24 436.6,-74.79"/>
</a>
</g>
</g>
<!-- Node13 -->
<g id="Node000013" class="node">
<title>Node13</title>
<g id="a_Node000013"><a xlink:title=" ">
<polygon fill="#e0e0e0" stroke="#999999" points="500,-74 459,-74 459,-55 500,-55 500,-74"/>
<text text-anchor="middle" x="479.5" y="-62" font-family="Helvetica,sans-Serif" font-size="10.00">QList</text>
</a>
</g>
</g>
<!-- Node3&#45;&gt;Node13 -->
<g id="edge13_Node000003_Node000013" class="edge">
<title>Node3&#45;&gt;Node13</title>
<g id="a_edge13_Node000003_Node000013"><a xlink:title=" ">
<path fill="none" stroke="#63b8ff" d="M528.77,-109.84C519.14,-101.17 506.81,-90.08 496.89,-81.15"/>
<polygon fill="#63b8ff" stroke="#63b8ff" points="499.01,-78.35 489.24,-74.27 494.33,-83.56 499.01,-78.35"/>
</a>
</g>
</g>
<!-- Node14 -->
<g id="Node000014" class="node">
<title>Node14</title>
<g id="a_Node000014"><a xlink:title=" ">
<polygon fill="#e0e0e0" stroke="#999999" points="1231,-74 1176,-74 1176,-55 1231,-55 1231,-74"/>
<text text-anchor="middle" x="1203.5" y="-62" font-family="Helvetica,sans-Serif" font-size="10.00">QMutex</text>
</a>
</g>
</g>
<!-- Node3&#45;&gt;Node14 -->
<g id="edge14_Node000003_Node000014" class="edge">
<title>Node3&#45;&gt;Node14</title>
<g id="a_edge14_Node000003_Node000014"><a xlink:title=" ">
<path fill="none" stroke="#63b8ff" d="M621.81,-111.06C624.74,-110.68 627.64,-110.33 630.5,-110 864.9,-83.13 929.21,-108.88 1165.74,-74.03"/>
<polygon fill="#63b8ff" stroke="#63b8ff" points="1166.31,-77.49 1175.68,-72.55 1165.27,-70.56 1166.31,-77.49"/>
</a>
</g>
</g>
<!-- Node15 -->
<g id="Node000015" class="node">
<title>Node15</title>
<g id="a_Node000015"><a xlink:title=" ">
<polygon fill="#e0e0e0" stroke="#999999" points="844,-74 739,-74 739,-55 844,-55 844,-74"/>
<text text-anchor="middle" x="791.5" y="-62" font-family="Helvetica,sans-Serif" font-size="10.00">QNetworkRequest</text>
</a>
</g>
</g>
<!-- Node3&#45;&gt;Node15 -->
<g id="edge15_Node000003_Node000015" class="edge">
<title>Node3&#45;&gt;Node15</title>
<g id="a_edge15_Node000003_Node000015"><a xlink:title=" ">
<path fill="none" stroke="#63b8ff" d="M603.66,-109.99C647.21,-99.67 705.57,-85.85 745.62,-76.37"/>
<polygon fill="#63b8ff" stroke="#63b8ff" points="746.46,-79.76 755.38,-74.05 744.85,-72.95 746.46,-79.76"/>
</a>
</g>
</g>
<!-- Node3&#45;&gt;Node16 -->
<g id="edge16_Node000003_Node000016" class="edge">
<title>Node3&#45;&gt;Node16</title>
<g id="a_edge16_Node000003_Node000016"><a xlink:title=" ">
<path fill="none" stroke="#63b8ff" d="M467.37,-115.32C391.02,-106.37 270.88,-91.3 167.5,-74 166.4,-73.82 165.28,-73.62 164.16,-73.43"/>
<polygon fill="#63b8ff" stroke="#63b8ff" points="164.39,-69.91 153.92,-71.52 163.11,-76.79 164.39,-69.91"/>
</a>
</g>
</g>
<!-- Node17 -->
<g id="Node000017" class="node">
<title>Node17</title>
<g id="a_Node000017"><a xlink:title=" ">
<polygon fill="#e0e0e0" stroke="#999999" points="975,-74 862,-74 862,-55 975,-55 975,-74"/>
<text text-anchor="middle" x="918.5" y="-62" font-family="Helvetica,sans-Serif" font-size="10.00">QRandomGenerator</text>
</a>
</g>
</g>
<!-- Node3&#45;&gt;Node17 -->
<g id="edge17_Node000003_Node000017" class="edge">
<title>Node3&#45;&gt;Node17</title>
<g id="a_edge17_Node000003_Node000017"><a xlink:title=" ">
<path fill="none" stroke="#63b8ff" d="M621.85,-111.38C624.77,-110.91 627.66,-110.45 630.5,-110 706.51,-97.94 793.88,-84.5 852.26,-75.58"/>
<polygon fill="#63b8ff" stroke="#63b8ff" points="853.1,-78.99 862.46,-74.02 852.05,-72.07 853.1,-78.99"/>
</a>
</g>
</g>
<!-- Node18 -->
<g id="Node000018" class="node">
<title>Node18</title>
<g id="a_Node000018"><a xlink:title=" ">
<polygon fill="#e0e0e0" stroke="#999999" points="571,-74 518,-74 518,-55 571,-55 571,-74"/>
<text text-anchor="middle" x="544.5" y="-62" font-family="Helvetica,sans-Serif" font-size="10.00">QTimer</text>
</a>
</g>
</g>
<!-- Node3&#45;&gt;Node18 -->
<g id="edge18_Node000003_Node000018" class="edge">
<title>Node3&#45;&gt;Node18</title>
<g id="a_edge18_Node000003_Node000018"><a xlink:title=" ">
<path fill="none" stroke="#63b8ff" d="M544.5,-109.84C544.5,-102.21 544.5,-92.7 544.5,-84.45"/>
<polygon fill="#63b8ff" stroke="#63b8ff" points="548,-84.27 544.5,-74.27 541,-84.27 548,-84.27"/>
</a>
</g>
</g>
<!-- Node4&#45;&gt;Node5 -->
<g id="edge4_Node000004_Node000005" class="edge">
<title>Node4&#45;&gt;Node5</title>
<g id="a_edge4_Node000004_Node000005"><a xlink:title=" ">
<path fill="none" stroke="#63b8ff" d="M1027.46,-54.98C971.2,-45.01 878.65,-28.61 823.05,-18.75"/>
<polygon fill="#63b8ff" stroke="#63b8ff" points="823.57,-15.29 813.11,-16.99 822.35,-22.18 823.57,-15.29"/>
</a>
</g>
</g>
<!-- Node4&#45;&gt;Node6 -->
<g id="edge5_Node000004_Node000006" class="edge">
<title>Node4&#45;&gt;Node6</title>
<g id="a_edge5_Node000004_Node000006"><a xlink:title=" ">
<path fill="none" stroke="#63b8ff" d="M992.68,-55.66C989.92,-55.43 987.19,-55.21 984.5,-55 730.99,-35.17 666.46,-44.85 413.5,-19 405.86,-18.22 397.7,-17.19 389.93,-16.12"/>
<polygon fill="#63b8ff" stroke="#63b8ff" points="390.42,-12.66 380.03,-14.71 389.43,-19.59 390.42,-12.66"/>
</a>
</g>
</g>
<!-- Node4&#45;&gt;Node7 -->
<g id="edge6_Node000004_Node000007" class="edge">
<title>Node4&#45;&gt;Node7</title>
<g id="a_edge6_Node000004_Node000007"><a xlink:title=" ">
<path fill="none" stroke="#63b8ff" d="M992.68,-55.72C989.92,-55.48 987.19,-55.24 984.5,-55 788.37,-37.8 552.19,-19.15 470.76,-12.78"/>
<polygon fill="#63b8ff" stroke="#63b8ff" points="470.99,-9.29 460.74,-12 470.44,-16.27 470.99,-9.29"/>
</a>
</g>
</g>
<!-- Node8 -->
<g id="Node000008" class="node">
<title>Node8</title>
<g id="a_Node000008"><a xlink:title=" ">
<polygon fill="#e0e0e0" stroke="#999999" points="1140,-19 1085,-19 1085,0 1140,0 1140,-19"/>
<text text-anchor="middle" x="1112.5" y="-7" font-family="Helvetica,sans-Serif" font-size="10.00">QVector</text>
</a>
</g>
</g>
<!-- Node4&#45;&gt;Node8 -->
<g id="edge7_Node000004_Node000008" class="edge">
<title>Node4&#45;&gt;Node8</title>
<g id="a_edge7_Node000004_Node000008"><a xlink:title=" ">
<path fill="none" stroke="#63b8ff" d="M1081.61,-54.75C1086.78,-47.34 1094.35,-36.5 1100.69,-27.41"/>
<polygon fill="#63b8ff" stroke="#63b8ff" points="1103.65,-29.29 1106.5,-19.09 1097.91,-25.29 1103.65,-29.29"/>
</a>
</g>
</g>
<!-- Node9 -->
<g id="Node000009" class="node">
<title>Node9</title>
<g id="a_Node000009"><a xlink:title=" ">
<polygon fill="#e0e0e0" stroke="#999999" points="1067,-19 1008,-19 1008,0 1067,0 1067,-19"/>
<text text-anchor="middle" x="1037.5" y="-7" font-family="Helvetica,sans-Serif" font-size="10.00">QtGlobal</text>
</a>
</g>
</g>
<!-- Node4&#45;&gt;Node9 -->
<g id="edge8_Node000004_Node000009" class="edge">
<title>Node4&#45;&gt;Node9</title>
<g id="a_edge8_Node000004_Node000009"><a xlink:title=" ">
<path fill="none" stroke="#63b8ff" d="M1069.23,-54.75C1063.91,-47.34 1056.14,-36.5 1049.62,-27.41"/>
<polygon fill="#63b8ff" stroke="#63b8ff" points="1052.33,-25.18 1043.66,-19.09 1046.64,-29.26 1052.33,-25.18"/>
</a>
</g>
</g>
<!-- Node20&#45;&gt;Node3 -->
<g id="edge24_Node000020_Node000003" class="edge">
<title>Node20&#45;&gt;Node3</title>
<g id="a_edge24_Node000020_Node000003"><a xlink:title=" ">
<path fill="none" stroke="#63b8ff" d="M793.19,-175.99C749.04,-167.12 678.78,-152.99 624.18,-142.02"/>
<polygon fill="#63b8ff" stroke="#63b8ff" points="624.67,-138.55 614.18,-140.01 623.29,-145.41 624.67,-138.55"/>
</a>
</g>
</g>
<!-- Node20&#45;&gt;Node4 -->
<g id="edge25_Node000020_Node000004" class="edge">
<title>Node20&#45;&gt;Node4</title>
<g id="a_edge25_Node000020_Node000004"><a xlink:title=" ">
<path fill="none" stroke="#63b8ff" d="M840.2,-175.84C849.17,-160.15 870.28,-127.1 897.5,-110 924.4,-93.1 957.35,-82.62 987.56,-76.11"/>
<polygon fill="#63b8ff" stroke="#63b8ff" points="988.59,-79.48 997.69,-74.06 987.19,-72.62 988.59,-79.48"/>
</a>
</g>
</g>
<!-- Node20&#45;&gt;Node11 -->
<g id="edge31_Node000020_Node000011" class="edge">
<title>Node20&#45;&gt;Node11</title>
<g id="a_edge31_Node000020_Node000011"><a xlink:title=" ">
<path fill="none" stroke="#63b8ff" d="M825.15,-175.98C807.89,-161.87 772.02,-132.94 740.5,-110 726.11,-99.53 709.5,-88.34 696.55,-79.79"/>
<polygon fill="#63b8ff" stroke="#63b8ff" points="698.12,-76.64 687.84,-74.09 694.29,-82.5 698.12,-76.64"/>
</a>
</g>
</g>
<!-- Node20&#45;&gt;Node14 -->
<g id="edge30_Node000020_Node000014" class="edge">
<title>Node20&#45;&gt;Node14</title>
<g id="a_edge30_Node000020_Node000014"><a xlink:title=" ">
<path fill="none" stroke="#63b8ff" d="M847.6,-175.83C859.83,-167 879.19,-152.83 895.5,-140 911.87,-127.12 912.51,-118.55 931.5,-110 1025.32,-67.76 1061.16,-92.59 1165.65,-74.17"/>
<polygon fill="#63b8ff" stroke="#63b8ff" points="1166.45,-77.58 1175.64,-72.31 1165.17,-70.7 1166.45,-77.58"/>
</a>
</g>
</g>
<!-- Node20&#45;&gt;Node15 -->
<g id="edge32_Node000020_Node000015" class="edge">
<title>Node20&#45;&gt;Node15</title>
<g id="a_edge32_Node000020_Node000015"><a xlink:title=" ">
<path fill="none" stroke="#63b8ff" d="M832.34,-175.94C825.24,-156.74 807.9,-109.86 798.26,-83.77"/>
<polygon fill="#63b8ff" stroke="#63b8ff" points="801.51,-82.47 794.75,-74.3 794.94,-84.89 801.51,-82.47"/>
</a>
</g>
</g>
<!-- Node20&#45;&gt;Node16 -->
<g id="edge33_Node000020_Node000016" class="edge">
<title>Node20&#45;&gt;Node16</title>
<g id="a_edge33_Node000020_Node000016"><a xlink:title=" ">
<path fill="none" stroke="#63b8ff" d="M754.26,-177.34C677.68,-170.02 559.85,-157.27 458.5,-140 350.85,-121.65 225.57,-91.1 163.87,-75.43"/>
<polygon fill="#63b8ff" stroke="#63b8ff" points="164.37,-71.95 153.81,-72.87 162.64,-78.73 164.37,-71.95"/>
</a>
</g>
</g>
<!-- Node20&#45;&gt;Node17 -->
<g id="edge36_Node000020_Node000017" class="edge">
<title>Node20&#45;&gt;Node17</title>
<g id="a_edge36_Node000020_Node000017"><a xlink:title=" ">
<path fill="none" stroke="#63b8ff" d="M836.55,-175.93C838.69,-161.24 844.7,-130.82 859.5,-110 868.39,-97.5 881.84,-86.97 893.65,-79.3"/>
<polygon fill="#63b8ff" stroke="#63b8ff" points="895.58,-82.22 902.27,-74 891.92,-76.26 895.58,-82.22"/>
</a>
</g>
</g>
<!-- Node21 -->
<g id="Node000021" class="node">
<title>Node21</title>
<g id="a_Node000021"><a xlink:href="TestableSingleton_8h.html" target="_top" xlink:title=" ">
<polygon fill="white" stroke="#666666" points="1143.5,-134.5 1007.5,-134.5 1007.5,-115.5 1143.5,-115.5 1143.5,-134.5"/>
<text text-anchor="middle" x="1075.5" y="-122.5" font-family="Helvetica,sans-Serif" font-size="10.00">utils/TestableSingleton.h</text>
</a>
</g>
</g>
<!-- Node20&#45;&gt;Node21 -->
<g id="edge26_Node000020_Node000021" class="edge">
<title>Node20&#45;&gt;Node21</title>
<g id="a_edge26_Node000020_Node000021"><a xlink:title=" ">
<path fill="none" stroke="#63b8ff" d="M870.4,-175.99C912.79,-165.66 984.37,-148.21 1030.77,-136.9"/>
<polygon fill="#63b8ff" stroke="#63b8ff" points="1031.67,-140.29 1040.56,-134.52 1030.02,-133.48 1031.67,-140.29"/>
</a>
</g>
</g>
<!-- Node23 -->
<g id="Node000023" class="node">
<title>Node23</title>
<g id="a_Node000023"><a xlink:title=" ">
<polygon fill="#e0e0e0" stroke="#999999" points="989,-134.5 940,-134.5 940,-115.5 989,-115.5 989,-134.5"/>
<text text-anchor="middle" x="964.5" y="-122.5" font-family="Helvetica,sans-Serif" font-size="10.00">QHash</text>
</a>
</g>
</g>
<!-- Node20&#45;&gt;Node23 -->
<g id="edge29_Node000020_Node000023" class="edge">
<title>Node20&#45;&gt;Node23</title>
<g id="a_edge29_Node000020_Node000023"><a xlink:title=" ">
<path fill="none" stroke="#63b8ff" d="M854.26,-175.99C875.85,-166.2 911.53,-150.02 936.43,-138.73"/>
<polygon fill="#63b8ff" stroke="#63b8ff" points="938.06,-141.83 945.72,-134.52 935.17,-135.46 938.06,-141.83"/>
</a>
</g>
</g>
<!-- Node24 -->
<g id="Node000024" class="node">
<title>Node24</title>
<g id="a_Node000024"><a xlink:title=" ">
<polygon fill="#e0e0e0" stroke="#999999" points="1221,-134.5 1162,-134.5 1162,-115.5 1221,-115.5 1221,-134.5"/>
<text text-anchor="middle" x="1191.5" y="-122.5" font-family="Helvetica,sans-Serif" font-size="10.00">QPointer</text>
</a>
</g>
</g>
<!-- Node20&#45;&gt;Node24 -->
<g id="edge34_Node000020_Node000024" class="edge">
<title>Node20&#45;&gt;Node24</title>
<g id="a_edge34_Node000020_Node000024"><a xlink:title=" ">
<path fill="none" stroke="#63b8ff" d="M908.89,-175.97C987.72,-166.49 1107.72,-151.06 1152.5,-140 1155.16,-139.34 1157.89,-138.57 1160.61,-137.74"/>
<polygon fill="#63b8ff" stroke="#63b8ff" points="1161.91,-140.99 1170.29,-134.51 1159.69,-134.35 1161.91,-140.99"/>
</a>
</g>
</g>
<!-- Node25 -->
<g id="Node000025" class="node">
<title>Node25</title>
<g id="a_Node000025"><a xlink:title=" ">
<polygon fill="#e0e0e0" stroke="#999999" points="1295.5,-134.5 1239.5,-134.5 1239.5,-115.5 1295.5,-115.5 1295.5,-134.5"/>
<text text-anchor="middle" x="1267.5" y="-122.5" font-family="Helvetica,sans-Serif" font-size="10.00">QQueue</text>
</a>
</g>
</g>
<!-- Node20&#45;&gt;Node25 -->
<g id="edge35_Node000020_Node000025" class="edge">
<title>Node20&#45;&gt;Node25</title>
<g id="a_edge35_Node000020_Node000025"><a xlink:title=" ">
<path fill="none" stroke="#63b8ff" d="M916.65,-176.45C1023.35,-165.7 1200.82,-147.17 1230.5,-140 1232.95,-139.41 1235.47,-138.7 1237.97,-137.91"/>
<polygon fill="#63b8ff" stroke="#63b8ff" points="1239.13,-141.22 1247.43,-134.63 1236.84,-134.6 1239.13,-141.22"/>
</a>
</g>
</g>
<!-- Node26 -->
<g id="Node000026" class="node">
<title>Node26</title>
<g id="a_Node000026"><a xlink:title=" ">
<polygon fill="#e0e0e0" stroke="#999999" points="1371.5,-134.5 1313.5,-134.5 1313.5,-115.5 1371.5,-115.5 1371.5,-134.5"/>
<text text-anchor="middle" x="1342.5" y="-122.5" font-family="Helvetica,sans-Serif" font-size="10.00">QThread</text>
</a>
</g>
</g>
<!-- Node20&#45;&gt;Node26 -->
<g id="edge37_Node000020_Node000026" class="edge">
<title>Node20&#45;&gt;Node26</title>
<g id="a_edge37_Node000020_Node000026"><a xlink:title=" ">
<path fill="none" stroke="#63b8ff" d="M916.68,-176.83C1050.61,-164.17 1303.33,-140.27 1304.5,-140 1307.17,-139.39 1309.91,-138.64 1312.63,-137.81"/>
<polygon fill="#63b8ff" stroke="#63b8ff" points="1313.93,-141.07 1322.28,-134.55 1311.69,-134.44 1313.93,-141.07"/>
</a>
</g>
</g>
<!-- Node27 -->
<g id="Node000027" class="node">
<title>Node27</title>
<g id="a_Node000027"><a xlink:title=" ">
<polygon fill="#e0e0e0" stroke="#999999" points="731.5,-134.5 639.5,-134.5 639.5,-115.5 731.5,-115.5 731.5,-134.5"/>
<text text-anchor="middle" x="685.5" y="-122.5" font-family="Helvetica,sans-Serif" font-size="10.00">QWaitCondition</text>
</a>
</g>
</g>
<!-- Node20&#45;&gt;Node27 -->
<g id="edge38_Node000020_Node000027" class="edge">
<title>Node20&#45;&gt;Node27</title>
<g id="a_edge38_Node000020_Node000027"><a xlink:title=" ">
<path fill="none" stroke="#63b8ff" d="M813.69,-175.99C788.25,-166.07 745.99,-149.59 716.99,-138.28"/>
<polygon fill="#63b8ff" stroke="#63b8ff" points="717.93,-134.89 707.34,-134.52 715.38,-141.41 717.93,-134.89"/>
</a>
</g>
</g>
<!-- Node21&#45;&gt;Node14 -->
<g id="edge27_Node000021_Node000014" class="edge">
<title>Node21&#45;&gt;Node14</title>
<g id="a_edge27_Node000021_Node000014"><a xlink:title=" ">
<path fill="none" stroke="#63b8ff" d="M1094.11,-115.49C1115.54,-105.7 1150.94,-89.52 1175.65,-78.23"/>
<polygon fill="#63b8ff" stroke="#63b8ff" points="1177.22,-81.36 1184.87,-74.02 1174.32,-74.99 1177.22,-81.36"/>
</a>
</g>
</g>
<!-- Node22 -->
<g id="Node000022" class="node">
<title>Node22</title>
<g id="a_Node000022"><a xlink:title=" ">
<polygon fill="#e0e0e0" stroke="#999999" points="1335.5,-74 1249.5,-74 1249.5,-55 1335.5,-55 1335.5,-74"/>
<text text-anchor="middle" x="1292.5" y="-62" font-family="Helvetica,sans-Serif" font-size="10.00">QMutexLocker</text>
</a>
</g>
</g>
<!-- Node21&#45;&gt;Node22 -->
<g id="edge28_Node000021_Node000022" class="edge">
<title>Node21&#45;&gt;Node22</title>
<g id="a_edge28_Node000021_Node000022"><a xlink:title=" ">
<path fill="none" stroke="#63b8ff" d="M1107.05,-115.49C1145.06,-105.25 1209.02,-88 1251,-76.69"/>
<polygon fill="#63b8ff" stroke="#63b8ff" points="1252.16,-80 1260.91,-74.02 1250.34,-73.24 1252.16,-80"/>
</a>
</g>
</g>
</g>
</svg>
