<?xml version="1.0" encoding="UTF-8" standalone="no"?>
<!DOCTYPE svg PUBLIC "-//W3C//DTD SVG 1.1//EN"
 "http://www.w3.org/Graphics/SVG/1.1/DTD/svg11.dtd">
<!-- Generated by graphviz version 2.43.0 (0)
 -->
<!-- Title: core/easyeda/JLCDatasheet.h Pages: 1 -->
<svg width="1160pt" height="203pt"
 viewBox="0.00 0.00 1159.86 203.00" xmlns="http://www.w3.org/2000/svg" xmlns:xlink="http://www.w3.org/1999/xlink">
<g id="graph0" class="graph" transform="scale(1 1) rotate(0) translate(4 199)">
<title>core/easyeda/JLCDatasheet.h</title>
<!-- Node1 -->
<g id="Node000001" class="node">
<title>Node1</title>
<g id="a_Node000001"><a xlink:title=" ">
<polygon fill="#999999" stroke="#666666" points="744.36,-195 585.36,-195 585.36,-176 744.36,-176 744.36,-195"/>
<text text-anchor="middle" x="664.86" y="-183" font-family="Helvetica,sans-Serif" font-size="10.00">core/easyeda/JLCDatasheet.h</text>
</a>
</g>
</g>
<!-- Node2 -->
<g id="Node000002" class="node">
<title>Node2</title>
<g id="a_Node000002"><a xlink:href="AsyncNetworkRequest_8h.html" target="_top" xlink:title=" ">
<polygon fill="white" stroke="#666666" points="689.86,-140 535.86,-140 535.86,-110 689.86,-110 689.86,-140"/>
<text text-anchor="start" x="543.86" y="-128" font-family="Helvetica,sans-Serif" font-size="10.00">core/network/AsyncNetwork</text>
<text text-anchor="middle" x="612.86" y="-117" font-family="Helvetica,sans-Serif" font-size="10.00">Request.h</text>
</a>
</g>
</g>
<!-- Node1&#45;&gt;Node2 -->
<g id="edge1_Node000001_Node000002" class="edge">
<title>Node1&#45;&gt;Node2</title>
<g id="a_edge1_Node000001_Node000002"><a xlink:title=" ">
<path fill="none" stroke="#63b8ff" d="M657.19,-175.87C650.59,-168.44 640.79,-157.42 632.08,-147.62"/>
<polygon fill="#63b8ff" stroke="#63b8ff" points="634.67,-145.26 625.41,-140.11 629.43,-149.91 634.67,-145.26"/>
</a>
</g>
</g>
<!-- Node5 -->
<g id="Node000005" class="node">
<title>Node5</title>
<g id="a_Node000005"><a xlink:title=" ">
<polygon fill="#e0e0e0" stroke="#999999" points="226.36,-19 173.36,-19 173.36,0 226.36,0 226.36,-19"/>
<text text-anchor="middle" x="199.86" y="-7" font-family="Helvetica,sans-Serif" font-size="10.00">QString</text>
</a>
</g>
</g>
<!-- Node1&#45;&gt;Node5 -->
<g id="edge21_Node000001_Node000005" class="edge">
<title>Node1&#45;&gt;Node5</title>
<g id="a_edge21_Node000001_Node000005"><a xlink:title=" ">
<path fill="none" stroke="#63b8ff" d="M585.08,-183.36C426.77,-179.24 81.85,-160.31 8.86,-74 -34.73,-22.46 96.21,-12.54 163.11,-10.78"/>
<polygon fill="#63b8ff" stroke="#63b8ff" points="163.34,-14.28 173.26,-10.57 163.19,-7.28 163.34,-14.28"/>
</a>
</g>
</g>
<!-- Node15 -->
<g id="Node000015" class="node">
<title>Node15</title>
<g id="a_Node000015"><a xlink:title=" ">
<polygon fill="#e0e0e0" stroke="#999999" points="1151.86,-74 1095.86,-74 1095.86,-55 1151.86,-55 1151.86,-74"/>
<text text-anchor="middle" x="1123.86" y="-62" font-family="Helvetica,sans-Serif" font-size="10.00">QObject</text>
</a>
</g>
</g>
<!-- Node1&#45;&gt;Node15 -->
<g id="edge20_Node000001_Node000015" class="edge">
<title>Node1&#45;&gt;Node15</title>
<g id="a_edge20_Node000001_Node000015"><a xlink:title=" ">
<path fill="none" stroke="#63b8ff" d="M671.81,-175.96C686.53,-158.09 720.84,-117.79 736.86,-110 874.62,-43.03 930.29,-97.23 1085.75,-73.93"/>
<polygon fill="#63b8ff" stroke="#63b8ff" points="1086.32,-77.38 1095.65,-72.36 1085.23,-70.47 1086.32,-77.38"/>
</a>
</g>
</g>
<!-- Node18 -->
<g id="Node000018" class="node">
<title>Node18</title>
<g id="a_Node000018"><a xlink:title=" ">
<polygon fill="#e0e0e0" stroke="#999999" points="787.36,-134.5 746.36,-134.5 746.36,-115.5 787.36,-115.5 787.36,-134.5"/>
<text text-anchor="middle" x="766.86" y="-122.5" font-family="Helvetica,sans-Serif" font-size="10.00">QFile</text>
</a>
</g>
</g>
<!-- Node1&#45;&gt;Node18 -->
<g id="edge19_Node000001_Node000018" class="edge">
<title>Node1&#45;&gt;Node18</title>
<g id="a_edge19_Node000001_Node000018"><a xlink:title=" ">
<path fill="none" stroke="#63b8ff" d="M679.91,-175.87C696.48,-166.36 723.36,-150.95 742.85,-139.77"/>
<polygon fill="#63b8ff" stroke="#63b8ff" points="744.81,-142.68 751.75,-134.67 741.33,-136.61 744.81,-142.68"/>
</a>
</g>
</g>
<!-- Node3 -->
<g id="Node000003" class="node">
<title>Node3</title>
<g id="a_Node000003"><a xlink:href="INetworkClient_8h.html" target="_top" xlink:title=" ">
<polygon fill="white" stroke="#666666" points="640.36,-74 475.36,-74 475.36,-55 640.36,-55 640.36,-74"/>
<text text-anchor="middle" x="557.86" y="-62" font-family="Helvetica,sans-Serif" font-size="10.00">core/network/INetworkClient.h</text>
</a>
</g>
</g>
<!-- Node2&#45;&gt;Node3 -->
<g id="edge2_Node000002_Node000003" class="edge">
<title>Node2&#45;&gt;Node3</title>
<g id="a_edge2_Node000002_Node000003"><a xlink:title=" ">
<path fill="none" stroke="#63b8ff" d="M599.55,-109.84C591.56,-101.35 581.38,-90.52 573.08,-81.69"/>
<polygon fill="#63b8ff" stroke="#63b8ff" points="575.5,-79.15 566.1,-74.27 570.4,-83.95 575.5,-79.15"/>
</a>
</g>
</g>
<!-- Node4 -->
<g id="Node000004" class="node">
<title>Node4</title>
<g id="a_Node000004"><a xlink:title=" ">
<polygon fill="#e0e0e0" stroke="#999999" points="673.36,-19 600.36,-19 600.36,0 673.36,0 673.36,-19"/>
<text text-anchor="middle" x="636.86" y="-7" font-family="Helvetica,sans-Serif" font-size="10.00">QByteArray</text>
</a>
</g>
</g>
<!-- Node2&#45;&gt;Node4 -->
<g id="edge11_Node000002_Node000004" class="edge">
<title>Node2&#45;&gt;Node4</title>
<g id="a_edge11_Node000002_Node000004"><a xlink:title=" ">
<path fill="none" stroke="#63b8ff" d="M626.97,-109.63C635.09,-100.31 644.53,-87.44 648.86,-74 653.65,-59.15 649.69,-41.7 645.08,-28.85"/>
<polygon fill="#63b8ff" stroke="#63b8ff" points="648.22,-27.26 641.23,-19.3 641.73,-29.88 648.22,-27.26"/>
</a>
</g>
</g>
<!-- Node6 -->
<g id="Node000006" class="node">
<title>Node6</title>
<g id="a_Node000006"><a xlink:title=" ">
<polygon fill="#e0e0e0" stroke="#999999" points="729.86,-19 691.86,-19 691.86,0 729.86,0 729.86,-19"/>
<text text-anchor="middle" x="710.86" y="-7" font-family="Helvetica,sans-Serif" font-size="10.00">QUrl</text>
</a>
</g>
</g>
<!-- Node2&#45;&gt;Node6 -->
<g id="edge18_Node000002_Node000006" class="edge">
<title>Node2&#45;&gt;Node6</title>
<g id="a_edge18_Node000002_Node000006"><a xlink:title=" ">
<path fill="none" stroke="#63b8ff" d="M629.06,-109.81C639.7,-100.16 653.68,-86.85 664.86,-74 677.8,-59.12 690.82,-40.75 699.69,-27.61"/>
<polygon fill="#63b8ff" stroke="#63b8ff" points="702.74,-29.35 705.36,-19.08 696.91,-25.47 702.74,-29.35"/>
</a>
</g>
</g>
<!-- Node9 -->
<g id="Node000009" class="node">
<title>Node9</title>
<g id="a_Node000009"><a xlink:title=" ">
<polygon fill="#e0e0e0" stroke="#999999" points="876.86,-74 734.86,-74 734.86,-55 876.86,-55 876.86,-74"/>
<text text-anchor="middle" x="805.86" y="-62" font-family="Helvetica,sans-Serif" font-size="10.00">QNetworkAccessManager</text>
</a>
</g>
</g>
<!-- Node2&#45;&gt;Node9 -->
<g id="edge8_Node000002_Node000009" class="edge">
<title>Node2&#45;&gt;Node9</title>
<g id="a_edge8_Node000002_Node000009"><a xlink:title=" ">
<path fill="none" stroke="#63b8ff" d="M659.09,-109.99C692.4,-99.89 736.79,-86.44 768,-76.98"/>
<polygon fill="#63b8ff" stroke="#63b8ff" points="769.09,-80.3 777.64,-74.05 767.06,-73.6 769.09,-80.3"/>
</a>
</g>
</g>
<!-- Node10 -->
<g id="Node000010" class="node">
<title>Node10</title>
<g id="a_Node000010"><a xlink:title=" ">
<polygon fill="#e0e0e0" stroke="#999999" points="988.36,-74 895.36,-74 895.36,-55 988.36,-55 988.36,-74"/>
<text text-anchor="middle" x="941.86" y="-62" font-family="Helvetica,sans-Serif" font-size="10.00">QNetworkReply</text>
</a>
</g>
</g>
<!-- Node2&#45;&gt;Node10 -->
<g id="edge9_Node000002_Node000010" class="edge">
<title>Node2&#45;&gt;Node10</title>
<g id="a_edge9_Node000002_Node000010"><a xlink:title=" ">
<path fill="none" stroke="#63b8ff" d="M690,-110.28C749.77,-99.66 831.22,-85.17 885.12,-75.59"/>
<polygon fill="#63b8ff" stroke="#63b8ff" points="885.95,-79 895.18,-73.8 884.72,-72.1 885.95,-79"/>
</a>
</g>
</g>
<!-- Node11 -->
<g id="Node000011" class="node">
<title>Node11</title>
<g id="a_Node000011"><a xlink:title=" ">
<polygon fill="#e0e0e0" stroke="#999999" points="1077.36,-74 1006.36,-74 1006.36,-55 1077.36,-55 1077.36,-74"/>
<text text-anchor="middle" x="1041.86" y="-62" font-family="Helvetica,sans-Serif" font-size="10.00">QAtomicInt</text>
</a>
</g>
</g>
<!-- Node2&#45;&gt;Node11 -->
<g id="edge10_Node000002_Node000011" class="edge">
<title>Node2&#45;&gt;Node11</title>
<g id="a_edge10_Node000002_Node000011"><a xlink:title=" ">
<path fill="none" stroke="#63b8ff" d="M690.28,-111.92C694.87,-111.26 699.43,-110.61 703.86,-110 831.08,-92.43 866.13,-94.39 996.39,-74.14"/>
<polygon fill="#63b8ff" stroke="#63b8ff" points="997.02,-77.58 1006.36,-72.58 995.93,-70.67 997.02,-77.58"/>
</a>
</g>
</g>
<!-- Node12 -->
<g id="Node000012" class="node">
<title>Node12</title>
<g id="a_Node000012"><a xlink:title=" ">
<polygon fill="#e0e0e0" stroke="#999999" points="59.36,-74 18.36,-74 18.36,-55 59.36,-55 59.36,-74"/>
<text text-anchor="middle" x="38.86" y="-62" font-family="Helvetica,sans-Serif" font-size="10.00">QList</text>
</a>
</g>
</g>
<!-- Node2&#45;&gt;Node12 -->
<g id="edge12_Node000002_Node000012" class="edge">
<title>Node2&#45;&gt;Node12</title>
<g id="a_edge12_Node000002_Node000012"><a xlink:title=" ">
<path fill="none" stroke="#63b8ff" d="M535.49,-121.61C431.26,-117.35 240.05,-105.84 69.56,-74"/>
<polygon fill="#63b8ff" stroke="#63b8ff" points="70.13,-70.54 59.65,-72.12 68.82,-77.42 70.13,-70.54"/>
</a>
</g>
</g>
<!-- Node13 -->
<g id="Node000013" class="node">
<title>Node13</title>
<g id="a_Node000013"><a xlink:title=" ">
<polygon fill="#e0e0e0" stroke="#999999" points="132.36,-74 77.36,-74 77.36,-55 132.36,-55 132.36,-74"/>
<text text-anchor="middle" x="104.86" y="-62" font-family="Helvetica,sans-Serif" font-size="10.00">QMutex</text>
</a>
</g>
</g>
<!-- Node2&#45;&gt;Node13 -->
<g id="edge13_Node000002_Node000013" class="edge">
<title>Node2&#45;&gt;Node13</title>
<g id="a_edge13_Node000002_Node000013"><a xlink:title=" ">
<path fill="none" stroke="#63b8ff" d="M535.6,-118.83C443.89,-112.01 286.24,-98.16 142.58,-74.11"/>
<polygon fill="#63b8ff" stroke="#63b8ff" points="143.14,-70.66 132.7,-72.44 141.97,-77.56 143.14,-70.66"/>
</a>
</g>
</g>
<!-- Node14 -->
<g id="Node000014" class="node">
<title>Node14</title>
<g id="a_Node000014"><a xlink:title=" ">
<polygon fill="#e0e0e0" stroke="#999999" points="255.36,-74 150.36,-74 150.36,-55 255.36,-55 255.36,-74"/>
<text text-anchor="middle" x="202.86" y="-62" font-family="Helvetica,sans-Serif" font-size="10.00">QNetworkRequest</text>
</a>
</g>
</g>
<!-- Node2&#45;&gt;Node14 -->
<g id="edge14_Node000002_Node000014" class="edge">
<title>Node2&#45;&gt;Node14</title>
<g id="a_edge14_Node000002_Node000014"><a xlink:title=" ">
<path fill="none" stroke="#63b8ff" d="M535.74,-113C457.54,-101.84 337.99,-84.78 265.45,-74.43"/>
<polygon fill="#63b8ff" stroke="#63b8ff" points="265.93,-70.96 255.54,-73.02 264.94,-77.89 265.93,-70.96"/>
</a>
</g>
</g>
<!-- Node2&#45;&gt;Node15 -->
<g id="edge15_Node000002_Node000015" class="edge">
<title>Node2&#45;&gt;Node15</title>
<g id="a_edge15_Node000002_Node000015"><a xlink:title=" ">
<path fill="none" stroke="#63b8ff" d="M690.26,-111.77C694.86,-111.15 699.42,-110.55 703.86,-110 870.31,-89.39 916.32,-100.75 1085.65,-73.99"/>
<polygon fill="#63b8ff" stroke="#63b8ff" points="1086.33,-77.42 1095.65,-72.38 1085.23,-70.51 1086.33,-77.42"/>
</a>
</g>
</g>
<!-- Node16 -->
<g id="Node000016" class="node">
<title>Node16</title>
<g id="a_Node000016"><a xlink:title=" ">
<polygon fill="#e0e0e0" stroke="#999999" points="386.36,-74 273.36,-74 273.36,-55 386.36,-55 386.36,-74"/>
<text text-anchor="middle" x="329.86" y="-62" font-family="Helvetica,sans-Serif" font-size="10.00">QRandomGenerator</text>
</a>
</g>
</g>
<!-- Node2&#45;&gt;Node16 -->
<g id="edge16_Node000002_Node000016" class="edge">
<title>Node2&#45;&gt;Node16</title>
<g id="a_edge16_Node000002_Node000016"><a xlink:title=" ">
<path fill="none" stroke="#63b8ff" d="M545.07,-109.99C494.75,-99.59 427.18,-85.62 381.27,-76.13"/>
<polygon fill="#63b8ff" stroke="#63b8ff" points="381.74,-72.65 371.24,-74.05 380.32,-79.51 381.74,-72.65"/>
</a>
</g>
</g>
<!-- Node17 -->
<g id="Node000017" class="node">
<title>Node17</title>
<g id="a_Node000017"><a xlink:title=" ">
<polygon fill="#e0e0e0" stroke="#999999" points="457.36,-74 404.36,-74 404.36,-55 457.36,-55 457.36,-74"/>
<text text-anchor="middle" x="430.86" y="-62" font-family="Helvetica,sans-Serif" font-size="10.00">QTimer</text>
</a>
</g>
</g>
<!-- Node2&#45;&gt;Node17 -->
<g id="edge17_Node000002_Node000017" class="edge">
<title>Node2&#45;&gt;Node17</title>
<g id="a_edge17_Node000002_Node000017"><a xlink:title=" ">
<path fill="none" stroke="#63b8ff" d="M569.27,-109.99C538.13,-99.98 496.72,-86.67 467.33,-77.22"/>
<polygon fill="#63b8ff" stroke="#63b8ff" points="468.06,-73.78 457.47,-74.05 465.92,-80.45 468.06,-73.78"/>
</a>
</g>
</g>
<!-- Node3&#45;&gt;Node4 -->
<g id="edge3_Node000003_Node000004" class="edge">
<title>Node3&#45;&gt;Node4</title>
<g id="a_edge3_Node000003_Node000004"><a xlink:title=" ">
<path fill="none" stroke="#63b8ff" d="M570.55,-54.98C582.69,-46.84 601.22,-34.41 615.61,-24.76"/>
<polygon fill="#63b8ff" stroke="#63b8ff" points="617.58,-27.65 623.94,-19.17 613.68,-21.84 617.58,-27.65"/>
</a>
</g>
</g>
<!-- Node3&#45;&gt;Node5 -->
<g id="edge4_Node000003_Node000005" class="edge">
<title>Node3&#45;&gt;Node5</title>
<g id="a_edge4_Node000003_Node000005"><a xlink:title=" ">
<path fill="none" stroke="#63b8ff" d="M500.34,-54.98C426.16,-44 299.29,-25.22 236.82,-15.97"/>
<polygon fill="#63b8ff" stroke="#63b8ff" points="237.06,-12.47 226.65,-14.47 236.03,-19.39 237.06,-12.47"/>
</a>
</g>
</g>
<!-- Node3&#45;&gt;Node6 -->
<g id="edge5_Node000003_Node000006" class="edge">
<title>Node3&#45;&gt;Node6</title>
<g id="a_edge5_Node000003_Node000006"><a xlink:title=" ">
<path fill="none" stroke="#63b8ff" d="M582.44,-54.98C609.64,-45.56 653.43,-30.39 682.18,-20.44"/>
<polygon fill="#63b8ff" stroke="#63b8ff" points="683.36,-23.73 691.67,-17.15 681.07,-17.11 683.36,-23.73"/>
</a>
</g>
</g>
<!-- Node7 -->
<g id="Node000007" class="node">
<title>Node7</title>
<g id="a_Node000007"><a xlink:title=" ">
<polygon fill="#e0e0e0" stroke="#999999" points="505.36,-19 450.36,-19 450.36,0 505.36,0 505.36,-19"/>
<text text-anchor="middle" x="477.86" y="-7" font-family="Helvetica,sans-Serif" font-size="10.00">QVector</text>
</a>
</g>
</g>
<!-- Node3&#45;&gt;Node7 -->
<g id="edge6_Node000003_Node000007" class="edge">
<title>Node3&#45;&gt;Node7</title>
<g id="a_edge6_Node000003_Node000007"><a xlink:title=" ">
<path fill="none" stroke="#63b8ff" d="M545.01,-54.98C532.72,-46.84 513.95,-34.41 499.38,-24.76"/>
<polygon fill="#63b8ff" stroke="#63b8ff" points="501.22,-21.78 490.95,-19.17 497.35,-27.61 501.22,-21.78"/>
</a>
</g>
</g>
<!-- Node8 -->
<g id="Node000008" class="node">
<title>Node8</title>
<g id="a_Node000008"><a xlink:title=" ">
<polygon fill="#e0e0e0" stroke="#999999" points="582.36,-19 523.36,-19 523.36,0 582.36,0 582.36,-19"/>
<text text-anchor="middle" x="552.86" y="-7" font-family="Helvetica,sans-Serif" font-size="10.00">QtGlobal</text>
</a>
</g>
</g>
<!-- Node3&#45;&gt;Node8 -->
<g id="edge7_Node000003_Node000008" class="edge">
<title>Node3&#45;&gt;Node8</title>
<g id="a_edge7_Node000003_Node000008"><a xlink:title=" ">
<path fill="none" stroke="#63b8ff" d="M557.03,-54.75C556.38,-47.8 555.44,-37.85 554.62,-29.13"/>
<polygon fill="#63b8ff" stroke="#63b8ff" points="558.09,-28.72 553.67,-19.09 551.13,-29.37 558.09,-28.72"/>
</a>
</g>
</g>
</g>
</svg>
