<?xml version="1.0" encoding="UTF-8" standalone="no"?>
<!DOCTYPE svg PUBLIC "-//W3C//DTD SVG 1.1//EN"
 "http://www.w3.org/Graphics/SVG/1.1/DTD/svg11.dtd">
<!-- Generated by graphviz version 2.43.0 (0)
 -->
<!-- Title: core/kicad/KiCadLibTable.cpp Pages: 1 -->
<svg width="674pt" height="137pt"
 viewBox="0.00 0.00 674.00 137.00" xmlns="http://www.w3.org/2000/svg" xmlns:xlink="http://www.w3.org/1999/xlink">
<g id="graph0" class="graph" transform="scale(1 1) rotate(0) translate(4 133)">
<title>core/kicad/KiCadLibTable.cpp</title>
<!-- Node1 -->
<g id="Node000001" class="node">
<title>Node1</title>
<g id="a_Node000001"><a xlink:title=" ">
<polygon fill="#999999" stroke="#666666" points="457,-129 299,-129 299,-110 457,-110 457,-129"/>
<text text-anchor="middle" x="378" y="-117" font-family="Helvetica,sans-Serif" font-size="10.00">core/kicad/KiCadLibTable.cpp</text>
</a>
</g>
</g>
<!-- Node2 -->
<g id="Node000002" class="node">
<title>Node2</title>
<g id="a_Node000002"><a xlink:href="KiCadLibTable_8h.html" target="_top" xlink:title=" ">
<polygon fill="white" stroke="#666666" points="94,-74 0,-74 0,-55 94,-55 94,-74"/>
<text text-anchor="middle" x="47" y="-62" font-family="Helvetica,sans-Serif" font-size="10.00">KiCadLibTable.h</text>
</a>
</g>
</g>
<!-- Node1&#45;&gt;Node2 -->
<g id="edge1_Node000001_Node000002" class="edge">
<title>Node1&#45;&gt;Node2</title>
<g id="a_edge1_Node000001_Node000002"><a xlink:title=" ">
<path fill="none" stroke="#63b8ff" d="M324.82,-109.98C264.4,-100.31 166.18,-84.58 104.16,-74.65"/>
<polygon fill="#63b8ff" stroke="#63b8ff" points="104.58,-71.18 94.15,-73.05 103.47,-78.09 104.58,-71.18"/>
</a>
</g>
</g>
<!-- Node3 -->
<g id="Node000003" class="node">
<title>Node3</title>
<g id="a_Node000003"><a xlink:title=" ">
<polygon fill="#e0e0e0" stroke="#999999" points="148.5,-19 95.5,-19 95.5,0 148.5,0 148.5,-19"/>
<text text-anchor="middle" x="122" y="-7" font-family="Helvetica,sans-Serif" font-size="10.00">QString</text>
</a>
</g>
</g>
<!-- Node1&#45;&gt;Node3 -->
<g id="edge9_Node000001_Node000003" class="edge">
<title>Node1&#45;&gt;Node3</title>
<g id="a_edge9_Node000001_Node000003"><a xlink:title=" ">
<path fill="none" stroke="#63b8ff" d="M298.74,-112.43C239.13,-106.28 163.95,-94.65 141,-74 128.58,-62.82 124.14,-43.9 122.62,-29.61"/>
<polygon fill="#63b8ff" stroke="#63b8ff" points="126.09,-29.12 121.93,-19.38 119.11,-29.59 126.09,-29.12"/>
</a>
</g>
</g>
<!-- Node4 -->
<g id="Node000004" class="node">
<title>Node4</title>
<g id="a_Node000004"><a xlink:href="KiCadTableUtils_8h.html" target="_top" xlink:title=" ">
<polygon fill="white" stroke="#666666" points="300,-74 150,-74 150,-55 300,-55 300,-74"/>
<text text-anchor="middle" x="225" y="-62" font-family="Helvetica,sans-Serif" font-size="10.00">core/utils/KiCadTableUtils.h</text>
</a>
</g>
</g>
<!-- Node1&#45;&gt;Node4 -->
<g id="edge3_Node000001_Node000004" class="edge">
<title>Node1&#45;&gt;Node4</title>
<g id="a_edge3_Node000001_Node000004"><a xlink:title=" ">
<path fill="none" stroke="#63b8ff" d="M353.42,-109.98C327.95,-101.16 287.96,-87.31 259.37,-77.41"/>
<polygon fill="#63b8ff" stroke="#63b8ff" points="260.37,-74.05 249.77,-74.08 258.08,-80.66 260.37,-74.05"/>
</a>
</g>
</g>
<!-- Node5 -->
<g id="Node000005" class="node">
<title>Node5</title>
<g id="a_Node000005"><a xlink:title=" ">
<polygon fill="#e0e0e0" stroke="#999999" points="374,-74 318,-74 318,-55 374,-55 374,-74"/>
<text text-anchor="middle" x="346" y="-62" font-family="Helvetica,sans-Serif" font-size="10.00">QDebug</text>
</a>
</g>
</g>
<!-- Node1&#45;&gt;Node5 -->
<g id="edge5_Node000001_Node000005" class="edge">
<title>Node1&#45;&gt;Node5</title>
<g id="a_edge5_Node000001_Node000005"><a xlink:title=" ">
<path fill="none" stroke="#63b8ff" d="M372.72,-109.75C368.29,-102.42 361.84,-91.73 356.38,-82.7"/>
<polygon fill="#63b8ff" stroke="#63b8ff" points="359.35,-80.84 351.19,-74.09 353.36,-84.46 359.35,-80.84"/>
</a>
</g>
</g>
<!-- Node6 -->
<g id="Node000006" class="node">
<title>Node6</title>
<g id="a_Node000006"><a xlink:title=" ">
<polygon fill="#e0e0e0" stroke="#999999" points="430,-74 392,-74 392,-55 430,-55 430,-74"/>
<text text-anchor="middle" x="411" y="-62" font-family="Helvetica,sans-Serif" font-size="10.00">QDir</text>
</a>
</g>
</g>
<!-- Node1&#45;&gt;Node6 -->
<g id="edge6_Node000001_Node000006" class="edge">
<title>Node1&#45;&gt;Node6</title>
<g id="a_edge6_Node000001_Node000006"><a xlink:title=" ">
<path fill="none" stroke="#63b8ff" d="M383.45,-109.75C388.01,-102.42 394.67,-91.73 400.29,-82.7"/>
<polygon fill="#63b8ff" stroke="#63b8ff" points="403.34,-84.43 405.65,-74.09 397.4,-80.73 403.34,-84.43"/>
</a>
</g>
</g>
<!-- Node7 -->
<g id="Node000007" class="node">
<title>Node7</title>
<g id="a_Node000007"><a xlink:title=" ">
<polygon fill="#e0e0e0" stroke="#999999" points="489.5,-74 448.5,-74 448.5,-55 489.5,-55 489.5,-74"/>
<text text-anchor="middle" x="469" y="-62" font-family="Helvetica,sans-Serif" font-size="10.00">QFile</text>
</a>
</g>
</g>
<!-- Node1&#45;&gt;Node7 -->
<g id="edge7_Node000001_Node000007" class="edge">
<title>Node1&#45;&gt;Node7</title>
<g id="a_edge7_Node000001_Node000007"><a xlink:title=" ">
<path fill="none" stroke="#63b8ff" d="M392.62,-109.98C406.86,-101.69 428.75,-88.94 445.45,-79.22"/>
<polygon fill="#63b8ff" stroke="#63b8ff" points="447.23,-82.23 454.11,-74.17 443.71,-76.18 447.23,-82.23"/>
</a>
</g>
</g>
<!-- Node8 -->
<g id="Node000008" class="node">
<title>Node8</title>
<g id="a_Node000008"><a xlink:title=" ">
<polygon fill="#e0e0e0" stroke="#999999" points="568,-74 508,-74 508,-55 568,-55 568,-74"/>
<text text-anchor="middle" x="538" y="-62" font-family="Helvetica,sans-Serif" font-size="10.00">QFileInfo</text>
</a>
</g>
</g>
<!-- Node1&#45;&gt;Node8 -->
<g id="edge8_Node000001_Node000008" class="edge">
<title>Node1&#45;&gt;Node8</title>
<g id="a_edge8_Node000001_Node000008"><a xlink:title=" ">
<path fill="none" stroke="#63b8ff" d="M403.71,-109.98C430.45,-101.13 472.53,-87.19 502.45,-77.28"/>
<polygon fill="#63b8ff" stroke="#63b8ff" points="503.7,-80.55 512.09,-74.08 501.5,-73.9 503.7,-80.55"/>
</a>
</g>
</g>
<!-- Node9 -->
<g id="Node000009" class="node">
<title>Node9</title>
<g id="a_Node000009"><a xlink:title=" ">
<polygon fill="#e0e0e0" stroke="#999999" points="666,-74 586,-74 586,-55 666,-55 666,-74"/>
<text text-anchor="middle" x="626" y="-62" font-family="Helvetica,sans-Serif" font-size="10.00">QTextStream</text>
</a>
</g>
</g>
<!-- Node1&#45;&gt;Node9 -->
<g id="edge10_Node000001_Node000009" class="edge">
<title>Node1&#45;&gt;Node9</title>
<g id="a_edge10_Node000001_Node000009"><a xlink:title=" ">
<path fill="none" stroke="#63b8ff" d="M417.85,-109.98C460.83,-100.8 529.37,-86.15 575.96,-76.19"/>
<polygon fill="#63b8ff" stroke="#63b8ff" points="576.79,-79.59 585.84,-74.08 575.33,-72.75 576.79,-79.59"/>
</a>
</g>
</g>
<!-- Node2&#45;&gt;Node3 -->
<g id="edge2_Node000002_Node000003" class="edge">
<title>Node2&#45;&gt;Node3</title>
<g id="a_edge2_Node000002_Node000003"><a xlink:title=" ">
<path fill="none" stroke="#63b8ff" d="M59.05,-54.98C70.46,-46.92 87.83,-34.65 101.43,-25.03"/>
<polygon fill="#63b8ff" stroke="#63b8ff" points="103.58,-27.8 109.73,-19.17 99.54,-22.08 103.58,-27.8"/>
</a>
</g>
</g>
<!-- Node4&#45;&gt;Node3 -->
<g id="edge4_Node000004_Node000003" class="edge">
<title>Node4&#45;&gt;Node3</title>
<g id="a_edge4_Node000004_Node000003"><a xlink:title=" ">
<path fill="none" stroke="#63b8ff" d="M208.45,-54.98C192.11,-46.57 166.87,-33.59 147.87,-23.81"/>
<polygon fill="#63b8ff" stroke="#63b8ff" points="149.34,-20.63 138.85,-19.17 146.14,-26.86 149.34,-20.63"/>
</a>
</g>
</g>
</g>
</svg>
