<?xml version="1.0" encoding="UTF-8" standalone="no"?>
<!DOCTYPE svg PUBLIC "-//W3C//DTD SVG 1.1//EN"
 "http://www.w3.org/Graphics/SVG/1.1/DTD/svg11.dtd">
<!-- Generated by graphviz version 2.43.0 (0)
 -->
<!-- Title: services/export/KiCadLibraryTableManager.h Pages: 1 -->
<svg width="503pt" height="104pt"
 viewBox="0.00 0.00 502.50 104.00" xmlns="http://www.w3.org/2000/svg" xmlns:xlink="http://www.w3.org/1999/xlink">
<g id="graph0" class="graph" transform="scale(1 1) rotate(0) translate(4 100)">
<title>services/export/KiCadLibraryTableManager.h</title>
<!-- Node1 -->
<g id="Node000001" class="node">
<title>Node1</title>
<g id="a_Node000001"><a xlink:title=" ">
<polygon fill="#999999" stroke="#666666" points="313.5,-96 156.5,-96 156.5,-66 313.5,-66 313.5,-96"/>
<text text-anchor="start" x="164.5" y="-84" font-family="Helvetica,sans-Serif" font-size="10.00">services/export/KiCadLibrary</text>
<text text-anchor="middle" x="235" y="-73" font-family="Helvetica,sans-Serif" font-size="10.00">TableManager.h</text>
</a>
</g>
</g>
<!-- Node2 -->
<g id="Node000002" class="node">
<title>Node2</title>
<g id="a_Node000002"><a xlink:href="FootprintExportStage_8cpp.html" target="_top" xlink:title=" ">
<polygon fill="white" stroke="#666666" points="138,-30 0,-30 0,0 138,0 138,-30"/>
<text text-anchor="start" x="8" y="-18" font-family="Helvetica,sans-Serif" font-size="10.00">services/export/Footprint</text>
<text text-anchor="middle" x="69" y="-7" font-family="Helvetica,sans-Serif" font-size="10.00">ExportStage.cpp</text>
</a>
</g>
</g>
<!-- Node1&#45;&gt;Node2 -->
<g id="edge1_Node000001_Node000002" class="edge">
<title>Node1&#45;&gt;Node2</title>
<g id="a_edge1_Node000001_Node000002"><a xlink:title=" ">
<path fill="none" stroke="#63b8ff" d="M189.15,-62.32C162.73,-52.14 129.98,-39.51 105.34,-30.01"/>
<polygon fill="#63b8ff" stroke="#63b8ff" points="187.98,-65.62 198.57,-65.95 190.5,-59.09 187.98,-65.62"/>
</a>
</g>
</g>
<!-- Node3 -->
<g id="Node000003" class="node">
<title>Node3</title>
<g id="a_Node000003"><a xlink:href="KiCadLibraryTableManager_8cpp.html" target="_top" xlink:title=" ">
<polygon fill="white" stroke="#666666" points="313.5,-30 156.5,-30 156.5,0 313.5,0 313.5,-30"/>
<text text-anchor="start" x="164.5" y="-18" font-family="Helvetica,sans-Serif" font-size="10.00">services/export/KiCadLibrary</text>
<text text-anchor="middle" x="235" y="-7" font-family="Helvetica,sans-Serif" font-size="10.00">TableManager.cpp</text>
</a>
</g>
</g>
<!-- Node1&#45;&gt;Node3 -->
<g id="edge2_Node000001_Node000003" class="edge">
<title>Node1&#45;&gt;Node3</title>
<g id="a_edge2_Node000001_Node000003"><a xlink:title=" ">
<path fill="none" stroke="#63b8ff" d="M235,-55.54C235,-46.96 235,-37.61 235,-30.16"/>
<polygon fill="#63b8ff" stroke="#63b8ff" points="231.5,-55.8 235,-65.8 238.5,-55.8 231.5,-55.8"/>
</a>
</g>
</g>
<!-- Node4 -->
<g id="Node000004" class="node">
<title>Node4</title>
<g id="a_Node000004"><a xlink:href="SymbolExportStage_8cpp.html" target="_top" xlink:title=" ">
<polygon fill="white" stroke="#666666" points="494.5,-30 331.5,-30 331.5,0 494.5,0 494.5,-30"/>
<text text-anchor="start" x="339.5" y="-18" font-family="Helvetica,sans-Serif" font-size="10.00">services/export/SymbolExport</text>
<text text-anchor="middle" x="413" y="-7" font-family="Helvetica,sans-Serif" font-size="10.00">Stage.cpp</text>
</a>
</g>
</g>
<!-- Node1&#45;&gt;Node4 -->
<g id="edge3_Node000001_Node000004" class="edge">
<title>Node1&#45;&gt;Node4</title>
<g id="a_edge3_Node000001_Node000004"><a xlink:title=" ">
<path fill="none" stroke="#63b8ff" d="M283.79,-62.46C312.19,-52.25 347.5,-39.55 374.03,-30.01"/>
<polygon fill="#63b8ff" stroke="#63b8ff" points="282.29,-59.28 274.06,-65.95 284.66,-65.86 282.29,-59.28"/>
</a>
</g>
</g>
</g>
</svg>
