<?xml version="1.0" encoding="UTF-8" standalone="no"?>
<!DOCTYPE svg PUBLIC "-//W3C//DTD SVG 1.1//EN"
 "http://www.w3.org/Graphics/SVG/1.1/DTD/svg11.dtd">
<!-- Generated by graphviz version 2.43.0 (0)
 -->
<!-- Title: services/export/KiCadLibraryTableManager.cpp Pages: 1 -->
<svg width="915pt" height="148pt"
 viewBox="0.00 0.00 914.50 148.00" xmlns="http://www.w3.org/2000/svg" xmlns:xlink="http://www.w3.org/1999/xlink">
<g id="graph0" class="graph" transform="scale(1 1) rotate(0) translate(4 144)">
<title>services/export/KiCadLibraryTableManager.cpp</title>
<!-- Node1 -->
<g id="Node000001" class="node">
<title>Node1</title>
<g id="a_Node000001"><a xlink:title=" ">
<polygon fill="#999999" stroke="#666666" points="571,-140 414,-140 414,-110 571,-110 571,-140"/>
<text text-anchor="start" x="422" y="-128" font-family="Helvetica,sans-Serif" font-size="10.00">services/export/KiCadLibrary</text>
<text text-anchor="middle" x="492.5" y="-117" font-family="Helvetica,sans-Serif" font-size="10.00">TableManager.cpp</text>
</a>
</g>
</g>
<!-- Node2 -->
<g id="Node000002" class="node">
<title>Node2</title>
<g id="a_Node000002"><a xlink:href="KiCadLibraryTableManager_8h.html" target="_top" xlink:title=" ">
<polygon fill="white" stroke="#666666" points="155,-74 0,-74 0,-55 155,-55 155,-74"/>
<text text-anchor="middle" x="77.5" y="-62" font-family="Helvetica,sans-Serif" font-size="10.00">KiCadLibraryTableManager.h</text>
</a>
</g>
</g>
<!-- Node1&#45;&gt;Node2 -->
<g id="edge1_Node000001_Node000002" class="edge">
<title>Node1&#45;&gt;Node2</title>
<g id="a_edge1_Node000001_Node000002"><a xlink:title=" ">
<path fill="none" stroke="#63b8ff" d="M413.95,-112.93C337.31,-102.12 221.78,-85.84 148.01,-75.44"/>
<polygon fill="#63b8ff" stroke="#63b8ff" points="148.28,-71.94 137.89,-74.01 147.3,-78.87 148.28,-71.94"/>
</a>
</g>
</g>
<!-- Node4 -->
<g id="Node000004" class="node">
<title>Node4</title>
<g id="a_Node000004"><a xlink:href="KiCadTableUtils_8h.html" target="_top" xlink:title=" ">
<polygon fill="white" stroke="#666666" points="323.5,-74 173.5,-74 173.5,-55 323.5,-55 323.5,-74"/>
<text text-anchor="middle" x="248.5" y="-62" font-family="Helvetica,sans-Serif" font-size="10.00">core/utils/KiCadTableUtils.h</text>
</a>
</g>
</g>
<!-- Node1&#45;&gt;Node4 -->
<g id="edge3_Node000001_Node000004" class="edge">
<title>Node1&#45;&gt;Node4</title>
<g id="a_edge3_Node000001_Node000004"><a xlink:title=" ">
<path fill="none" stroke="#63b8ff" d="M434.06,-109.99C391.13,-99.7 333.63,-85.91 294.08,-76.43"/>
<polygon fill="#63b8ff" stroke="#63b8ff" points="294.72,-72.98 284.18,-74.05 293.09,-79.79 294.72,-72.98"/>
</a>
</g>
</g>
<!-- Node5 -->
<g id="Node000005" class="node">
<title>Node5</title>
<g id="a_Node000005"><a xlink:title=" ">
<polygon fill="#e0e0e0" stroke="#999999" points="397.5,-74 341.5,-74 341.5,-55 397.5,-55 397.5,-74"/>
<text text-anchor="middle" x="369.5" y="-62" font-family="Helvetica,sans-Serif" font-size="10.00">QDebug</text>
</a>
</g>
</g>
<!-- Node1&#45;&gt;Node5 -->
<g id="edge5_Node000001_Node000005" class="edge">
<title>Node1&#45;&gt;Node5</title>
<g id="a_edge5_Node000001_Node000005"><a xlink:title=" ">
<path fill="none" stroke="#63b8ff" d="M463.04,-109.99C442.88,-100.4 416.36,-87.79 396.7,-78.44"/>
<polygon fill="#63b8ff" stroke="#63b8ff" points="398.2,-75.27 387.66,-74.14 395.19,-81.6 398.2,-75.27"/>
</a>
</g>
</g>
<!-- Node6 -->
<g id="Node000006" class="node">
<title>Node6</title>
<g id="a_Node000006"><a xlink:title=" ">
<polygon fill="#e0e0e0" stroke="#999999" points="453.5,-74 415.5,-74 415.5,-55 453.5,-55 453.5,-74"/>
<text text-anchor="middle" x="434.5" y="-62" font-family="Helvetica,sans-Serif" font-size="10.00">QDir</text>
</a>
</g>
</g>
<!-- Node1&#45;&gt;Node6 -->
<g id="edge6_Node000001_Node000006" class="edge">
<title>Node1&#45;&gt;Node6</title>
<g id="a_edge6_Node000001_Node000006"><a xlink:title=" ">
<path fill="none" stroke="#63b8ff" d="M478.46,-109.84C469.95,-101.26 459.09,-90.3 450.28,-81.42"/>
<polygon fill="#63b8ff" stroke="#63b8ff" points="452.72,-78.9 443.19,-74.27 447.75,-83.83 452.72,-78.9"/>
</a>
</g>
</g>
<!-- Node7 -->
<g id="Node000007" class="node">
<title>Node7</title>
<g id="a_Node000007"><a xlink:title=" ">
<polygon fill="#e0e0e0" stroke="#999999" points="513,-74 472,-74 472,-55 513,-55 513,-74"/>
<text text-anchor="middle" x="492.5" y="-62" font-family="Helvetica,sans-Serif" font-size="10.00">QFile</text>
</a>
</g>
</g>
<!-- Node1&#45;&gt;Node7 -->
<g id="edge7_Node000001_Node000007" class="edge">
<title>Node1&#45;&gt;Node7</title>
<g id="a_edge7_Node000001_Node000007"><a xlink:title=" ">
<path fill="none" stroke="#63b8ff" d="M492.5,-109.84C492.5,-102.21 492.5,-92.7 492.5,-84.45"/>
<polygon fill="#63b8ff" stroke="#63b8ff" points="496,-84.27 492.5,-74.27 489,-84.27 496,-84.27"/>
</a>
</g>
</g>
<!-- Node8 -->
<g id="Node000008" class="node">
<title>Node8</title>
<g id="a_Node000008"><a xlink:title=" ">
<polygon fill="#e0e0e0" stroke="#999999" points="591.5,-74 531.5,-74 531.5,-55 591.5,-55 591.5,-74"/>
<text text-anchor="middle" x="561.5" y="-62" font-family="Helvetica,sans-Serif" font-size="10.00">QFileInfo</text>
</a>
</g>
</g>
<!-- Node1&#45;&gt;Node8 -->
<g id="edge8_Node000001_Node000008" class="edge">
<title>Node1&#45;&gt;Node8</title>
<g id="a_edge8_Node000001_Node000008"><a xlink:title=" ">
<path fill="none" stroke="#63b8ff" d="M509.2,-109.84C519.53,-101.09 532.78,-89.85 543.36,-80.88"/>
<polygon fill="#63b8ff" stroke="#63b8ff" points="545.8,-83.4 551.16,-74.27 541.27,-78.06 545.8,-83.4"/>
</a>
</g>
</g>
<!-- Node9 -->
<g id="Node000009" class="node">
<title>Node9</title>
<g id="a_Node000009"><a xlink:title=" ">
<polygon fill="#e0e0e0" stroke="#999999" points="725,-74 610,-74 610,-55 725,-55 725,-74"/>
<text text-anchor="middle" x="667.5" y="-62" font-family="Helvetica,sans-Serif" font-size="10.00">QRegularExpression</text>
</a>
</g>
</g>
<!-- Node1&#45;&gt;Node9 -->
<g id="edge9_Node000001_Node000009" class="edge">
<title>Node1&#45;&gt;Node9</title>
<g id="a_edge9_Node000001_Node000009"><a xlink:title=" ">
<path fill="none" stroke="#63b8ff" d="M534.42,-109.99C564.23,-100.02 603.83,-86.78 632.06,-77.35"/>
<polygon fill="#63b8ff" stroke="#63b8ff" points="633.54,-80.54 641.91,-74.05 631.32,-73.9 633.54,-80.54"/>
</a>
</g>
</g>
<!-- Node10 -->
<g id="Node000010" class="node">
<title>Node10</title>
<g id="a_Node000010"><a xlink:title=" ">
<polygon fill="#e0e0e0" stroke="#999999" points="808,-74 743,-74 743,-55 808,-55 808,-74"/>
<text text-anchor="middle" x="775.5" y="-62" font-family="Helvetica,sans-Serif" font-size="10.00">QSaveFile</text>
</a>
</g>
</g>
<!-- Node1&#45;&gt;Node10 -->
<g id="edge10_Node000001_Node000010" class="edge">
<title>Node1&#45;&gt;Node10</title>
<g id="a_edge10_Node000001_Node000010"><a xlink:title=" ">
<path fill="none" stroke="#63b8ff" d="M560.57,-109.95C606.69,-100.42 669.32,-87.49 733.01,-74.31"/>
<polygon fill="#63b8ff" stroke="#63b8ff" points="733.74,-77.73 742.83,-72.28 732.32,-70.88 733.74,-77.73"/>
</a>
</g>
</g>
<!-- Node11 -->
<g id="Node000011" class="node">
<title>Node11</title>
<g id="a_Node000011"><a xlink:title=" ">
<polygon fill="#e0e0e0" stroke="#999999" points="906.5,-74 826.5,-74 826.5,-55 906.5,-55 906.5,-74"/>
<text text-anchor="middle" x="866.5" y="-62" font-family="Helvetica,sans-Serif" font-size="10.00">QTextStream</text>
</a>
</g>
</g>
<!-- Node1&#45;&gt;Node11 -->
<g id="edge11_Node000001_Node000011" class="edge">
<title>Node1&#45;&gt;Node11</title>
<g id="a_edge11_Node000001_Node000011"><a xlink:title=" ">
<path fill="none" stroke="#63b8ff" d="M571.04,-112.35C634.53,-102.83 726.48,-88.82 816.31,-74.17"/>
<polygon fill="#63b8ff" stroke="#63b8ff" points="817.09,-77.59 826.4,-72.52 815.97,-70.68 817.09,-77.59"/>
</a>
</g>
</g>
<!-- Node3 -->
<g id="Node000003" class="node">
<title>Node3</title>
<g id="a_Node000003"><a xlink:title=" ">
<polygon fill="#e0e0e0" stroke="#999999" points="189,-19 136,-19 136,0 189,0 189,-19"/>
<text text-anchor="middle" x="162.5" y="-7" font-family="Helvetica,sans-Serif" font-size="10.00">QString</text>
</a>
</g>
</g>
<!-- Node2&#45;&gt;Node3 -->
<g id="edge2_Node000002_Node000003" class="edge">
<title>Node2&#45;&gt;Node3</title>
<g id="a_edge2_Node000002_Node000003"><a xlink:title=" ">
<path fill="none" stroke="#63b8ff" d="M91.16,-54.98C104.34,-46.77 124.53,-34.18 140.07,-24.49"/>
<polygon fill="#63b8ff" stroke="#63b8ff" points="141.96,-27.43 148.59,-19.17 138.26,-21.49 141.96,-27.43"/>
</a>
</g>
</g>
<!-- Node4&#45;&gt;Node3 -->
<g id="edge4_Node000004_Node000003" class="edge">
<title>Node4&#45;&gt;Node3</title>
<g id="a_edge4_Node000004_Node000003"><a xlink:title=" ">
<path fill="none" stroke="#63b8ff" d="M234.68,-54.98C221.35,-46.77 200.92,-34.18 185.19,-24.49"/>
<polygon fill="#63b8ff" stroke="#63b8ff" points="186.92,-21.44 176.57,-19.17 183.25,-27.4 186.92,-21.44"/>
</a>
</g>
</g>
</g>
</svg>
