<?xml version="1.0" encoding="UTF-8" standalone="no"?>
<!DOCTYPE svg PUBLIC "-//W3C//DTD SVG 1.1//EN"
 "http://www.w3.org/Graphics/SVG/1.1/DTD/svg11.dtd">
<!-- Generated by graphviz version 2.43.0 (0)
 -->
<!-- Title: core/LanguageManager.cpp Pages: 1 -->
<svg width="479pt" height="137pt"
 viewBox="0.00 0.00 479.00 137.00" xmlns="http://www.w3.org/2000/svg" xmlns:xlink="http://www.w3.org/1999/xlink">
<g id="graph0" class="graph" transform="scale(1 1) rotate(0) translate(4 133)">
<title>core/LanguageManager.cpp</title>
<!-- Node1 -->
<g id="Node000001" class="node">
<title>Node1</title>
<g id="a_Node000001"><a xlink:title=" ">
<polygon fill="#999999" stroke="#666666" points="347,-129 197,-129 197,-110 347,-110 347,-129"/>
<text text-anchor="middle" x="272" y="-117" font-family="Helvetica,sans-Serif" font-size="10.00">core/LanguageManager.cpp</text>
</a>
</g>
</g>
<!-- Node2 -->
<g id="Node000002" class="node">
<title>Node2</title>
<g id="a_Node000002"><a xlink:href="LanguageManager_8h.html" target="_top" xlink:title=" ">
<polygon fill="white" stroke="#666666" points="164.5,-74 49.5,-74 49.5,-55 164.5,-55 164.5,-74"/>
<text text-anchor="middle" x="107" y="-62" font-family="Helvetica,sans-Serif" font-size="10.00">LanguageManager.h</text>
</a>
</g>
</g>
<!-- Node1&#45;&gt;Node2 -->
<g id="edge1_Node000001_Node000002" class="edge">
<title>Node1&#45;&gt;Node2</title>
<g id="a_edge1_Node000001_Node000002"><a xlink:title=" ">
<path fill="none" stroke="#63b8ff" d="M245.49,-109.98C217.79,-101.09 174.14,-87.07 143.26,-77.15"/>
<polygon fill="#63b8ff" stroke="#63b8ff" points="144.31,-73.81 133.72,-74.08 142.17,-80.47 144.31,-73.81"/>
</a>
</g>
</g>
<!-- Node5 -->
<g id="Node000005" class="node">
<title>Node5</title>
<g id="a_Node000005"><a xlink:title=" ">
<polygon fill="#e0e0e0" stroke="#999999" points="228,-19 156,-19 156,0 228,0 228,-19"/>
<text text-anchor="middle" x="192" y="-7" font-family="Helvetica,sans-Serif" font-size="10.00">QTranslator</text>
</a>
</g>
</g>
<!-- Node1&#45;&gt;Node5 -->
<g id="edge8_Node000001_Node000005" class="edge">
<title>Node1&#45;&gt;Node5</title>
<g id="a_edge8_Node000001_Node000005"><a xlink:title=" ">
<path fill="none" stroke="#63b8ff" d="M255.8,-109.97C242.54,-102.23 224.21,-89.64 213,-74 203.38,-60.58 197.97,-42.48 195.06,-29.04"/>
<polygon fill="#63b8ff" stroke="#63b8ff" points="198.46,-28.22 193.16,-19.04 191.59,-29.52 198.46,-28.22"/>
</a>
</g>
</g>
<!-- Node6 -->
<g id="Node000006" class="node">
<title>Node6</title>
<g id="a_Node000006"><a xlink:title=" ">
<polygon fill="#e0e0e0" stroke="#999999" points="322.5,-74 221.5,-74 221.5,-55 322.5,-55 322.5,-74"/>
<text text-anchor="middle" x="272" y="-62" font-family="Helvetica,sans-Serif" font-size="10.00">QCoreApplication</text>
</a>
</g>
</g>
<!-- Node1&#45;&gt;Node6 -->
<g id="edge5_Node000001_Node000006" class="edge">
<title>Node1&#45;&gt;Node6</title>
<g id="a_edge5_Node000001_Node000006"><a xlink:title=" ">
<path fill="none" stroke="#63b8ff" d="M272,-109.75C272,-102.8 272,-92.85 272,-84.13"/>
<polygon fill="#63b8ff" stroke="#63b8ff" points="275.5,-84.09 272,-74.09 268.5,-84.09 275.5,-84.09"/>
</a>
</g>
</g>
<!-- Node7 -->
<g id="Node000007" class="node">
<title>Node7</title>
<g id="a_Node000007"><a xlink:title=" ">
<polygon fill="#e0e0e0" stroke="#999999" points="397,-74 341,-74 341,-55 397,-55 397,-74"/>
<text text-anchor="middle" x="369" y="-62" font-family="Helvetica,sans-Serif" font-size="10.00">QDebug</text>
</a>
</g>
</g>
<!-- Node1&#45;&gt;Node7 -->
<g id="edge6_Node000001_Node000007" class="edge">
<title>Node1&#45;&gt;Node7</title>
<g id="a_edge6_Node000001_Node000007"><a xlink:title=" ">
<path fill="none" stroke="#63b8ff" d="M287.58,-109.98C302.77,-101.69 326.1,-88.94 343.9,-79.22"/>
<polygon fill="#63b8ff" stroke="#63b8ff" points="346.03,-82.04 353.13,-74.17 342.68,-75.89 346.03,-82.04"/>
</a>
</g>
</g>
<!-- Node8 -->
<g id="Node000008" class="node">
<title>Node8</title>
<g id="a_Node000008"><a xlink:title=" ">
<polygon fill="#e0e0e0" stroke="#999999" points="471,-74 415,-74 415,-55 471,-55 471,-74"/>
<text text-anchor="middle" x="443" y="-62" font-family="Helvetica,sans-Serif" font-size="10.00">QLocale</text>
</a>
</g>
</g>
<!-- Node1&#45;&gt;Node8 -->
<g id="edge7_Node000001_Node000008" class="edge">
<title>Node1&#45;&gt;Node8</title>
<g id="a_edge7_Node000001_Node000008"><a xlink:title=" ">
<path fill="none" stroke="#63b8ff" d="M299.47,-109.98C328.18,-101.09 373.42,-87.07 405.42,-77.15"/>
<polygon fill="#63b8ff" stroke="#63b8ff" points="406.8,-80.39 415.31,-74.08 404.72,-73.7 406.8,-80.39"/>
</a>
</g>
</g>
<!-- Node3 -->
<g id="Node000003" class="node">
<title>Node3</title>
<g id="a_Node000003"><a xlink:title=" ">
<polygon fill="#e0e0e0" stroke="#999999" points="64,-19 0,-19 0,0 64,0 64,-19"/>
<text text-anchor="middle" x="32" y="-7" font-family="Helvetica,sans-Serif" font-size="10.00">QSettings</text>
</a>
</g>
</g>
<!-- Node2&#45;&gt;Node3 -->
<g id="edge2_Node000002_Node000003" class="edge">
<title>Node2&#45;&gt;Node3</title>
<g id="a_edge2_Node000002_Node000003"><a xlink:title=" ">
<path fill="none" stroke="#63b8ff" d="M94.95,-54.98C83.54,-46.92 66.17,-34.65 52.57,-25.03"/>
<polygon fill="#63b8ff" stroke="#63b8ff" points="54.46,-22.08 44.27,-19.17 50.42,-27.8 54.46,-22.08"/>
</a>
</g>
</g>
<!-- Node4 -->
<g id="Node000004" class="node">
<title>Node4</title>
<g id="a_Node000004"><a xlink:title=" ">
<polygon fill="#e0e0e0" stroke="#999999" points="135.5,-19 82.5,-19 82.5,0 135.5,0 135.5,-19"/>
<text text-anchor="middle" x="109" y="-7" font-family="Helvetica,sans-Serif" font-size="10.00">QString</text>
</a>
</g>
</g>
<!-- Node2&#45;&gt;Node4 -->
<g id="edge3_Node000002_Node000004" class="edge">
<title>Node2&#45;&gt;Node4</title>
<g id="a_edge3_Node000002_Node000004"><a xlink:title=" ">
<path fill="none" stroke="#63b8ff" d="M107.33,-54.75C107.59,-47.8 107.97,-37.85 108.3,-29.13"/>
<polygon fill="#63b8ff" stroke="#63b8ff" points="111.8,-29.21 108.68,-19.09 104.8,-28.95 111.8,-29.21"/>
</a>
</g>
</g>
<!-- Node2&#45;&gt;Node5 -->
<g id="edge4_Node000002_Node000005" class="edge">
<title>Node2&#45;&gt;Node5</title>
<g id="a_edge4_Node000002_Node000005"><a xlink:title=" ">
<path fill="none" stroke="#63b8ff" d="M120.66,-54.98C133.84,-46.77 154.03,-34.18 169.57,-24.49"/>
<polygon fill="#63b8ff" stroke="#63b8ff" points="171.46,-27.43 178.09,-19.17 167.76,-21.49 171.46,-27.43"/>
</a>
</g>
</g>
</g>
</svg>
