<?xml version="1.0" encoding="UTF-8" standalone="no"?>
<!DOCTYPE svg PUBLIC "-//W3C//DTD SVG 1.1//EN"
 "http://www.w3.org/Graphics/SVG/1.1/DTD/svg11.dtd">
<!-- Generated by graphviz version 2.43.0 (0)
 -->
<!-- Title: core/LanguageManager.cpp Pages: 1 -->
<svg width="606pt" height="137pt"
 viewBox="0.00 0.00 605.50 137.00" xmlns="http://www.w3.org/2000/svg" xmlns:xlink="http://www.w3.org/1999/xlink">
<g id="graph0" class="graph" transform="scale(1 1) rotate(0) translate(4 133)">
<title>core/LanguageManager.cpp</title>
<!-- Node1 -->
<g id="Node000001" class="node">
<title>Node1</title>
<g id="a_Node000001"><a xlink:title=" ">
<polygon fill="#999999" stroke="#666666" points="407,-129 257,-129 257,-110 407,-110 407,-129"/>
<text text-anchor="middle" x="332" y="-117" font-family="Helvetica,sans-Serif" font-size="10.00">core/LanguageManager.cpp</text>
</a>
</g>
</g>
<!-- Node2 -->
<g id="Node000002" class="node">
<title>Node2</title>
<g id="a_Node000002"><a xlink:href="LanguageManager_8h.html" target="_top" xlink:title=" ">
<polygon fill="white" stroke="#666666" points="177.5,-74 62.5,-74 62.5,-55 177.5,-55 177.5,-74"/>
<text text-anchor="middle" x="120" y="-62" font-family="Helvetica,sans-Serif" font-size="10.00">LanguageManager.h</text>
</a>
</g>
</g>
<!-- Node1&#45;&gt;Node2 -->
<g id="edge1_Node000001_Node000002" class="edge">
<title>Node1&#45;&gt;Node2</title>
<g id="a_edge1_Node000001_Node000002"><a xlink:title=" ">
<path fill="none" stroke="#63b8ff" d="M297.94,-109.98C261.58,-100.89 203.83,-86.46 164.03,-76.51"/>
<polygon fill="#63b8ff" stroke="#63b8ff" points="164.88,-73.11 154.33,-74.08 163.18,-79.9 164.88,-73.11"/>
</a>
</g>
</g>
<!-- Node4 -->
<g id="Node000004" class="node">
<title>Node4</title>
<g id="a_Node000004"><a xlink:title=" ">
<polygon fill="#e0e0e0" stroke="#999999" points="72,-19 0,-19 0,0 72,0 72,-19"/>
<text text-anchor="middle" x="36" y="-7" font-family="Helvetica,sans-Serif" font-size="10.00">QTranslator</text>
</a>
</g>
</g>
<!-- Node1&#45;&gt;Node4 -->
<g id="edge13_Node000001_Node000004" class="edge">
<title>Node1&#45;&gt;Node4</title>
<g id="a_edge13_Node000001_Node000004"><a xlink:title=" ">
<path fill="none" stroke="#63b8ff" d="M256.69,-115.55C184.48,-111.16 82.23,-100.36 53,-74 40.69,-62.9 36.88,-43.97 35.88,-29.66"/>
<polygon fill="#63b8ff" stroke="#63b8ff" points="39.37,-29.3 35.58,-19.41 32.37,-29.51 39.37,-29.3"/>
</a>
</g>
</g>
<!-- Node5 -->
<g id="Node000005" class="node">
<title>Node5</title>
<g id="a_Node000005"><a xlink:href="ConfigService_8h.html" target="_top" xlink:title=" ">
<polygon fill="white" stroke="#666666" points="332,-74 196,-74 196,-55 332,-55 332,-74"/>
<text text-anchor="middle" x="264" y="-62" font-family="Helvetica,sans-Serif" font-size="10.00">services/ConfigService.h</text>
</a>
</g>
</g>
<!-- Node1&#45;&gt;Node5 -->
<g id="edge4_Node000001_Node000005" class="edge">
<title>Node1&#45;&gt;Node5</title>
<g id="a_edge4_Node000001_Node000005"><a xlink:title=" ">
<path fill="none" stroke="#63b8ff" d="M321.07,-109.98C310.92,-102.07 295.58,-90.11 283.35,-80.58"/>
<polygon fill="#63b8ff" stroke="#63b8ff" points="285.16,-77.56 275.12,-74.17 280.86,-83.08 285.16,-77.56"/>
</a>
</g>
</g>
<!-- Node10 -->
<g id="Node000010" class="node">
<title>Node10</title>
<g id="a_Node000010"><a xlink:title=" ">
<polygon fill="#e0e0e0" stroke="#999999" points="451.5,-74 350.5,-74 350.5,-55 451.5,-55 451.5,-74"/>
<text text-anchor="middle" x="401" y="-62" font-family="Helvetica,sans-Serif" font-size="10.00">QCoreApplication</text>
</a>
</g>
</g>
<!-- Node1&#45;&gt;Node10 -->
<g id="edge10_Node000001_Node000010" class="edge">
<title>Node1&#45;&gt;Node10</title>
<g id="a_edge10_Node000001_Node000010"><a xlink:title=" ">
<path fill="none" stroke="#63b8ff" d="M343.09,-109.98C353.49,-102 369.26,-89.88 381.72,-80.31"/>
<polygon fill="#63b8ff" stroke="#63b8ff" points="383.91,-83.04 389.71,-74.17 379.65,-77.49 383.91,-83.04"/>
</a>
</g>
</g>
<!-- Node11 -->
<g id="Node000011" class="node">
<title>Node11</title>
<g id="a_Node000011"><a xlink:title=" ">
<polygon fill="#e0e0e0" stroke="#999999" points="526,-74 470,-74 470,-55 526,-55 526,-74"/>
<text text-anchor="middle" x="498" y="-62" font-family="Helvetica,sans-Serif" font-size="10.00">QDebug</text>
</a>
</g>
</g>
<!-- Node1&#45;&gt;Node11 -->
<g id="edge11_Node000001_Node000011" class="edge">
<title>Node1&#45;&gt;Node11</title>
<g id="a_edge11_Node000001_Node000011"><a xlink:title=" ">
<path fill="none" stroke="#63b8ff" d="M358.67,-109.98C386.54,-101.09 430.45,-87.07 461.52,-77.15"/>
<polygon fill="#63b8ff" stroke="#63b8ff" points="462.66,-80.46 471.12,-74.08 460.53,-73.79 462.66,-80.46"/>
</a>
</g>
</g>
<!-- Node12 -->
<g id="Node000012" class="node">
<title>Node12</title>
<g id="a_Node000012"><a xlink:title=" ">
<polygon fill="#e0e0e0" stroke="#999999" points="597.5,-74 544.5,-74 544.5,-55 597.5,-55 597.5,-74"/>
<text text-anchor="middle" x="571" y="-62" font-family="Helvetica,sans-Serif" font-size="10.00">QTimer</text>
</a>
</g>
</g>
<!-- Node1&#45;&gt;Node12 -->
<g id="edge12_Node000001_Node000012" class="edge">
<title>Node1&#45;&gt;Node12</title>
<g id="a_edge12_Node000001_Node000012"><a xlink:title=" ">
<path fill="none" stroke="#63b8ff" d="M371.72,-109.99C410.59,-101.62 471.75,-88.33 534.24,-74.14"/>
<polygon fill="#63b8ff" stroke="#63b8ff" points="535.3,-77.49 544.27,-71.86 533.75,-70.67 535.3,-77.49"/>
</a>
</g>
</g>
<!-- Node3 -->
<g id="Node000003" class="node">
<title>Node3</title>
<g id="a_Node000003"><a xlink:title=" ">
<polygon fill="#e0e0e0" stroke="#999999" points="144.5,-19 91.5,-19 91.5,0 144.5,0 144.5,-19"/>
<text text-anchor="middle" x="118" y="-7" font-family="Helvetica,sans-Serif" font-size="10.00">QString</text>
</a>
</g>
</g>
<!-- Node2&#45;&gt;Node3 -->
<g id="edge2_Node000002_Node000003" class="edge">
<title>Node2&#45;&gt;Node3</title>
<g id="a_edge2_Node000002_Node000003"><a xlink:title=" ">
<path fill="none" stroke="#63b8ff" d="M119.67,-54.75C119.41,-47.8 119.03,-37.85 118.7,-29.13"/>
<polygon fill="#63b8ff" stroke="#63b8ff" points="122.2,-28.95 118.32,-19.09 115.2,-29.21 122.2,-28.95"/>
</a>
</g>
</g>
<!-- Node2&#45;&gt;Node4 -->
<g id="edge3_Node000002_Node000004" class="edge">
<title>Node2&#45;&gt;Node4</title>
<g id="a_edge3_Node000002_Node000004"><a xlink:title=" ">
<path fill="none" stroke="#63b8ff" d="M106.5,-54.98C93.6,-46.84 73.9,-34.41 58.6,-24.76"/>
<polygon fill="#63b8ff" stroke="#63b8ff" points="60.07,-21.55 49.74,-19.17 56.33,-27.47 60.07,-21.55"/>
</a>
</g>
</g>
<!-- Node5&#45;&gt;Node3 -->
<g id="edge8_Node000005_Node000003" class="edge">
<title>Node5&#45;&gt;Node3</title>
<g id="a_edge8_Node000005_Node000003"><a xlink:title=" ">
<path fill="none" stroke="#63b8ff" d="M240.54,-54.98C216.42,-46.23 178.63,-32.51 151.4,-22.62"/>
<polygon fill="#63b8ff" stroke="#63b8ff" points="152.48,-19.29 141.88,-19.17 150.09,-25.87 152.48,-19.29"/>
</a>
</g>
</g>
<!-- Node6 -->
<g id="Node000006" class="node">
<title>Node6</title>
<g id="a_Node000006"><a xlink:title=" ">
<polygon fill="#e0e0e0" stroke="#999999" points="239,-19 163,-19 163,0 239,0 239,-19"/>
<text text-anchor="middle" x="201" y="-7" font-family="Helvetica,sans-Serif" font-size="10.00">QJsonObject</text>
</a>
</g>
</g>
<!-- Node5&#45;&gt;Node6 -->
<g id="edge5_Node000005_Node000006" class="edge">
<title>Node5&#45;&gt;Node6</title>
<g id="a_edge5_Node000005_Node000006"><a xlink:title=" ">
<path fill="none" stroke="#63b8ff" d="M253.88,-54.98C244.56,-47.15 230.53,-35.34 219.26,-25.86"/>
<polygon fill="#63b8ff" stroke="#63b8ff" points="221.21,-22.93 211.31,-19.17 216.71,-28.29 221.21,-22.93"/>
</a>
</g>
</g>
<!-- Node7 -->
<g id="Node000007" class="node">
<title>Node7</title>
<g id="a_Node000007"><a xlink:title=" ">
<polygon fill="#e0e0e0" stroke="#999999" points="312.5,-19 257.5,-19 257.5,0 312.5,0 312.5,-19"/>
<text text-anchor="middle" x="285" y="-7" font-family="Helvetica,sans-Serif" font-size="10.00">QMutex</text>
</a>
</g>
</g>
<!-- Node5&#45;&gt;Node7 -->
<g id="edge6_Node000005_Node000007" class="edge">
<title>Node5&#45;&gt;Node7</title>
<g id="a_edge6_Node000005_Node000007"><a xlink:title=" ">
<path fill="none" stroke="#63b8ff" d="M267.47,-54.75C270.28,-47.65 274.34,-37.4 277.85,-28.56"/>
<polygon fill="#63b8ff" stroke="#63b8ff" points="281.17,-29.68 281.6,-19.09 274.66,-27.1 281.17,-29.68"/>
</a>
</g>
</g>
<!-- Node8 -->
<g id="Node000008" class="node">
<title>Node8</title>
<g id="a_Node000008"><a xlink:title=" ">
<polygon fill="#e0e0e0" stroke="#999999" points="387,-19 331,-19 331,0 387,0 387,-19"/>
<text text-anchor="middle" x="359" y="-7" font-family="Helvetica,sans-Serif" font-size="10.00">QObject</text>
</a>
</g>
</g>
<!-- Node5&#45;&gt;Node8 -->
<g id="edge7_Node000005_Node000008" class="edge">
<title>Node5&#45;&gt;Node8</title>
<g id="a_edge7_Node000005_Node000008"><a xlink:title=" ">
<path fill="none" stroke="#63b8ff" d="M279.26,-54.98C294.13,-46.69 316.98,-33.94 334.42,-24.22"/>
<polygon fill="#63b8ff" stroke="#63b8ff" points="336.43,-27.1 343.46,-19.17 333.02,-20.99 336.43,-27.1"/>
</a>
</g>
</g>
<!-- Node9 -->
<g id="Node000009" class="node">
<title>Node9</title>
<g id="a_Node000009"><a xlink:title=" ">
<polygon fill="#e0e0e0" stroke="#999999" points="485,-19 405,-19 405,0 485,0 485,-19"/>
<text text-anchor="middle" x="445" y="-7" font-family="Helvetica,sans-Serif" font-size="10.00">QVariantMap</text>
</a>
</g>
</g>
<!-- Node5&#45;&gt;Node9 -->
<g id="edge9_Node000005_Node000009" class="edge">
<title>Node5&#45;&gt;Node9</title>
<g id="a_edge9_Node000005_Node000009"><a xlink:title=" ">
<path fill="none" stroke="#63b8ff" d="M293.08,-54.98C323.6,-46.05 371.76,-31.94 405.66,-22.02"/>
<polygon fill="#63b8ff" stroke="#63b8ff" points="407.08,-25.25 415.69,-19.08 405.11,-18.53 407.08,-25.25"/>
</a>
</g>
</g>
</g>
</svg>
