<?xml version="1.0" encoding="UTF-8" standalone="no"?>
<!DOCTYPE svg PUBLIC "-//W3C//DTD SVG 1.1//EN"
 "http://www.w3.org/Graphics/SVG/1.1/DTD/svg11.dtd">
<!-- Generated by graphviz version 2.43.0 (0)
 -->
<!-- Title: services/LcscImageService.h Pages: 1 -->
<svg width="1445pt" height="280pt"
 viewBox="0.00 0.00 1445.00 280.00" xmlns="http://www.w3.org/2000/svg" xmlns:xlink="http://www.w3.org/1999/xlink">
<g id="graph0" class="graph" transform="scale(1 1) rotate(0) translate(4 276)">
<title>services/LcscImageService.h</title>
<!-- Node1 -->
<g id="Node000001" class="node">
<title>Node1</title>
<g id="a_Node000001"><a xlink:title=" ">
<polygon fill="#999999" stroke="#666666" points="851,-272 694,-272 694,-253 851,-253 851,-272"/>
<text text-anchor="middle" x="772.5" y="-260" font-family="Helvetica,sans-Serif" font-size="10.00">services/LcscImageService.h</text>
</a>
</g>
</g>
<!-- Node2 -->
<g id="Node000002" class="node">
<title>Node2</title>
<g id="a_Node000002"><a xlink:href="ComponentService_8h.html" target="_top" xlink:title=" ">
<polygon fill="white" stroke="#666666" points="762,-217 601,-217 601,-198 762,-198 762,-217"/>
<text text-anchor="middle" x="681.5" y="-205" font-family="Helvetica,sans-Serif" font-size="10.00">services/ComponentService.h</text>
</a>
</g>
</g>
<!-- Node1&#45;&gt;Node2 -->
<g id="edge1_Node000001_Node000002" class="edge">
<title>Node1&#45;&gt;Node2</title>
<g id="a_edge1_Node000001_Node000002"><a xlink:title=" ">
<path fill="none" stroke="#63b8ff" d="M748.8,-247.7C732.22,-238.04 710.59,-225.44 696.39,-217.17"/>
<polygon fill="#63b8ff" stroke="#63b8ff" points="747.48,-250.98 757.88,-252.98 751,-244.93 747.48,-250.98"/>
</a>
</g>
</g>
<!-- Node16 -->
<g id="Node000016" class="node">
<title>Node16</title>
<g id="a_Node000016"><a xlink:href="LcscImageService_8cpp.html" target="_top" xlink:title=" ">
<polygon fill="white" stroke="#666666" points="948.5,-217 780.5,-217 780.5,-198 948.5,-198 948.5,-217"/>
<text text-anchor="middle" x="864.5" y="-205" font-family="Helvetica,sans-Serif" font-size="10.00">services/LcscImageService.cpp</text>
</a>
</g>
</g>
<!-- Node1&#45;&gt;Node16 -->
<g id="edge18_Node000001_Node000016" class="edge">
<title>Node1&#45;&gt;Node16</title>
<g id="a_edge18_Node000001_Node000016"><a xlink:title=" ">
<path fill="none" stroke="#63b8ff" d="M795.99,-247.97C812.81,-238.28 834.95,-225.52 849.45,-217.17"/>
<polygon fill="#63b8ff" stroke="#63b8ff" points="794.2,-244.96 787.28,-252.98 797.69,-251.03 794.2,-244.96"/>
</a>
</g>
</g>
<!-- Node3 -->
<g id="Node000003" class="node">
<title>Node3</title>
<g id="a_Node000003"><a xlink:href="ComponentCacheService_8cpp.html" target="_top" xlink:title=" ">
<polygon fill="white" stroke="#666666" points="203,-156.5 0,-156.5 0,-137.5 203,-137.5 203,-156.5"/>
<text text-anchor="middle" x="101.5" y="-144.5" font-family="Helvetica,sans-Serif" font-size="10.00">services/ComponentCacheService.cpp</text>
</a>
</g>
</g>
<!-- Node2&#45;&gt;Node3 -->
<g id="edge2_Node000002_Node000003" class="edge">
<title>Node2&#45;&gt;Node3</title>
<g id="a_edge2_Node000002_Node000003"><a xlink:title=" ">
<path fill="none" stroke="#63b8ff" d="M590.63,-198.77C495.89,-190.51 343.15,-176.61 211.5,-162 196.67,-160.35 180.74,-158.42 165.73,-156.53"/>
<polygon fill="#63b8ff" stroke="#63b8ff" points="590.48,-202.27 600.75,-199.65 591.09,-195.3 590.48,-202.27"/>
</a>
</g>
</g>
<!-- Node4 -->
<g id="Node000004" class="node">
<title>Node4</title>
<g id="a_Node000004"><a xlink:href="ComponentService_8cpp.html" target="_top" xlink:title=" ">
<polygon fill="white" stroke="#666666" points="394,-156.5 221,-156.5 221,-137.5 394,-137.5 394,-156.5"/>
<text text-anchor="middle" x="307.5" y="-144.5" font-family="Helvetica,sans-Serif" font-size="10.00">services/ComponentService.cpp</text>
</a>
</g>
</g>
<!-- Node2&#45;&gt;Node4 -->
<g id="edge3_Node000002_Node000004" class="edge">
<title>Node2&#45;&gt;Node4</title>
<g id="a_edge3_Node000002_Node000004"><a xlink:title=" ">
<path fill="none" stroke="#63b8ff" d="M616.81,-196.38C544.76,-185.11 429.56,-167.09 361.95,-156.52"/>
<polygon fill="#63b8ff" stroke="#63b8ff" points="616.7,-199.91 627.12,-197.99 617.78,-192.99 616.7,-199.91"/>
</a>
</g>
</g>
<!-- Node5 -->
<g id="Node000005" class="node">
<title>Node5</title>
<g id="a_Node000005"><a xlink:href="ParallelExportService_8cpp.html" target="_top" xlink:title=" ">
<polygon fill="white" stroke="#666666" points="543,-162 412,-162 412,-132 543,-132 543,-162"/>
<text text-anchor="start" x="420" y="-150" font-family="Helvetica,sans-Serif" font-size="10.00">services/export/Parallel</text>
<text text-anchor="middle" x="477.5" y="-139" font-family="Helvetica,sans-Serif" font-size="10.00">ExportService.cpp</text>
</a>
</g>
</g>
<!-- Node2&#45;&gt;Node5 -->
<g id="edge4_Node000002_Node000005" class="edge">
<title>Node2&#45;&gt;Node5</title>
<g id="a_edge4_Node000002_Node000005"><a xlink:title=" ">
<path fill="none" stroke="#63b8ff" d="M642.09,-195.2C609.13,-185.75 561.95,-172.22 526.54,-162.06"/>
<polygon fill="#63b8ff" stroke="#63b8ff" points="641.26,-198.6 651.84,-197.99 643.19,-191.87 641.26,-198.6"/>
</a>
</g>
</g>
<!-- Node6 -->
<g id="Node000006" class="node">
<title>Node6</title>
<g id="a_Node000006"><a xlink:href="ComponentListViewModel_8h.html" target="_top" xlink:title=" ">
<polygon fill="white" stroke="#666666" points="763.5,-162 599.5,-162 599.5,-132 763.5,-132 763.5,-162"/>
<text text-anchor="start" x="607.5" y="-150" font-family="Helvetica,sans-Serif" font-size="10.00">ui/viewmodels/ComponentList</text>
<text text-anchor="middle" x="681.5" y="-139" font-family="Helvetica,sans-Serif" font-size="10.00">ViewModel.h</text>
</a>
</g>
</g>
<!-- Node2&#45;&gt;Node6 -->
<g id="edge5_Node000002_Node000006" class="edge">
<title>Node2&#45;&gt;Node6</title>
<g id="a_edge5_Node000002_Node000006"><a xlink:title=" ">
<path fill="none" stroke="#63b8ff" d="M681.5,-187.65C681.5,-179.36 681.5,-169.78 681.5,-162.11"/>
<polygon fill="#63b8ff" stroke="#63b8ff" points="678,-187.87 681.5,-197.87 685,-187.87 678,-187.87"/>
</a>
</g>
</g>
<!-- Node10 -->
<g id="Node000010" class="node">
<title>Node10</title>
<g id="a_Node000010"><a xlink:href="ExportProgressViewModel_8h.html" target="_top" xlink:title=" ">
<polygon fill="white" stroke="#666666" points="653.5,-96 489.5,-96 489.5,-66 653.5,-66 653.5,-96"/>
<text text-anchor="start" x="497.5" y="-84" font-family="Helvetica,sans-Serif" font-size="10.00">ui/viewmodels/ExportProgress</text>
<text text-anchor="middle" x="571.5" y="-73" font-family="Helvetica,sans-Serif" font-size="10.00">ViewModel.h</text>
</a>
</g>
</g>
<!-- Node2&#45;&gt;Node10 -->
<g id="edge13_Node000002_Node000010" class="edge">
<title>Node2&#45;&gt;Node10</title>
<g id="a_edge13_Node000002_Node000010"><a xlink:title=" ">
<path fill="none" stroke="#63b8ff" d="M638.5,-194.43C621.26,-187.55 602.64,-177.18 590.5,-162 575.25,-142.94 571.9,-113.65 571.35,-96.3"/>
<polygon fill="#63b8ff" stroke="#63b8ff" points="637.3,-197.71 647.89,-197.9 639.73,-191.15 637.3,-197.71"/>
</a>
</g>
</g>
<!-- Node12 -->
<g id="Node000012" class="node">
<title>Node12</title>
<g id="a_Node000012"><a xlink:href="BatchConverter_8cpp.html" target="_top" xlink:title=" ">
<polygon fill="white" stroke="#666666" points="931.5,-156.5 781.5,-156.5 781.5,-137.5 931.5,-137.5 931.5,-156.5"/>
<text text-anchor="middle" x="856.5" y="-144.5" font-family="Helvetica,sans-Serif" font-size="10.00">utils/cli/BatchConverter.cpp</text>
</a>
</g>
</g>
<!-- Node2&#45;&gt;Node12 -->
<g id="edge14_Node000002_Node000012" class="edge">
<title>Node2&#45;&gt;Node12</title>
<g id="a_edge14_Node000002_Node000012"><a xlink:title=" ">
<path fill="none" stroke="#63b8ff" d="M716.45,-194.82C750.3,-183.5 800.81,-166.62 831.02,-156.52"/>
<polygon fill="#63b8ff" stroke="#63b8ff" points="715.32,-191.5 706.95,-197.99 717.54,-198.14 715.32,-191.5"/>
</a>
</g>
</g>
<!-- Node13 -->
<g id="Node000013" class="node">
<title>Node13</title>
<g id="a_Node000013"><a xlink:href="BomConverter_8cpp.html" target="_top" xlink:title=" ">
<polygon fill="white" stroke="#666666" points="1095,-156.5 950,-156.5 950,-137.5 1095,-137.5 1095,-156.5"/>
<text text-anchor="middle" x="1022.5" y="-144.5" font-family="Helvetica,sans-Serif" font-size="10.00">utils/cli/BomConverter.cpp</text>
</a>
</g>
</g>
<!-- Node2&#45;&gt;Node13 -->
<g id="edge15_Node000002_Node000013" class="edge">
<title>Node2&#45;&gt;Node13</title>
<g id="a_edge15_Node000002_Node000013"><a xlink:title=" ">
<path fill="none" stroke="#63b8ff" d="M741.29,-196.24C807.03,-184.96 911.46,-167.05 972.86,-156.52"/>
<polygon fill="#63b8ff" stroke="#63b8ff" points="740.35,-192.85 731.08,-197.99 741.53,-199.75 740.35,-192.85"/>
</a>
</g>
</g>
<!-- Node14 -->
<g id="Node000014" class="node">
<title>Node14</title>
<g id="a_Node000014"><a xlink:href="CliContext_8cpp.html" target="_top" xlink:title=" ">
<polygon fill="white" stroke="#666666" points="1239.5,-156.5 1113.5,-156.5 1113.5,-137.5 1239.5,-137.5 1239.5,-156.5"/>
<text text-anchor="middle" x="1176.5" y="-144.5" font-family="Helvetica,sans-Serif" font-size="10.00">utils/cli/CliContext.cpp</text>
</a>
</g>
</g>
<!-- Node2&#45;&gt;Node14 -->
<g id="edge16_Node000002_Node000014" class="edge">
<title>Node2&#45;&gt;Node14</title>
<g id="a_edge16_Node000002_Node000014"><a xlink:title=" ">
<path fill="none" stroke="#63b8ff" d="M772.36,-197.88C877.04,-187.78 1042.57,-171.26 1104.5,-162 1114.7,-160.47 1125.66,-158.51 1135.86,-156.54"/>
<polygon fill="#63b8ff" stroke="#63b8ff" points="771.73,-194.42 762.11,-198.87 772.4,-201.39 771.73,-194.42"/>
</a>
</g>
</g>
<!-- Node15 -->
<g id="Node000015" class="node">
<title>Node15</title>
<g id="a_Node000015"><a xlink:href="ComponentConverter_8cpp.html" target="_top" xlink:title=" ">
<polygon fill="white" stroke="#666666" points="1437,-156.5 1258,-156.5 1258,-137.5 1437,-137.5 1437,-156.5"/>
<text text-anchor="middle" x="1347.5" y="-144.5" font-family="Helvetica,sans-Serif" font-size="10.00">utils/cli/ComponentConverter.cpp</text>
</a>
</g>
</g>
<!-- Node2&#45;&gt;Node15 -->
<g id="edge17_Node000002_Node000015" class="edge">
<title>Node2&#45;&gt;Node15</title>
<g id="a_edge17_Node000002_Node000015"><a xlink:title=" ">
<path fill="none" stroke="#63b8ff" d="M772.68,-197.92C985.06,-180.15 1040.44,-184.54 1248.5,-162 1262.56,-160.48 1277.71,-158.5 1291.82,-156.52"/>
<polygon fill="#63b8ff" stroke="#63b8ff" points="772.12,-194.45 762.45,-198.78 772.71,-201.43 772.12,-194.45"/>
</a>
</g>
</g>
<!-- Node7 -->
<g id="Node000007" class="node">
<title>Node7</title>
<g id="a_Node000007"><a xlink:href="main_8cpp.html" target="_top" xlink:title=" ">
<polygon fill="white" stroke="#666666" points="623.5,-24.5 561.5,-24.5 561.5,-5.5 623.5,-5.5 623.5,-24.5"/>
<text text-anchor="middle" x="592.5" y="-12.5" font-family="Helvetica,sans-Serif" font-size="10.00">main.cpp</text>
</a>
</g>
</g>
<!-- Node6&#45;&gt;Node7 -->
<g id="edge6_Node000006_Node000007" class="edge">
<title>Node6&#45;&gt;Node7</title>
<g id="a_edge6_Node000006_Node000007"><a xlink:title=" ">
<path fill="none" stroke="#63b8ff" d="M680.18,-121.63C678.25,-104.78 673.61,-82.52 662.5,-66 649.75,-47.04 627.24,-32.88 611.19,-24.56"/>
<polygon fill="#63b8ff" stroke="#63b8ff" points="676.71,-122.15 681.09,-131.8 683.68,-121.53 676.71,-122.15"/>
</a>
</g>
</g>
<!-- Node8 -->
<g id="Node000008" class="node">
<title>Node8</title>
<g id="a_Node000008"><a xlink:href="PipelineCompletionHandler_8cpp.html" target="_top" xlink:title=" ">
<polygon fill="white" stroke="#666666" points="797,-30 642,-30 642,0 797,0 797,-30"/>
<text text-anchor="start" x="650" y="-18" font-family="Helvetica,sans-Serif" font-size="10.00">services/PipelineCompletion</text>
<text text-anchor="middle" x="719.5" y="-7" font-family="Helvetica,sans-Serif" font-size="10.00">Handler.cpp</text>
</a>
</g>
</g>
<!-- Node6&#45;&gt;Node8 -->
<g id="edge7_Node000006_Node000008" class="edge">
<title>Node6&#45;&gt;Node8</title>
<g id="a_edge7_Node000006_Node000008"><a xlink:title=" ">
<path fill="none" stroke="#63b8ff" d="M688.51,-122.04C696.38,-95.08 708.92,-52.21 715.37,-30.14"/>
<polygon fill="#63b8ff" stroke="#63b8ff" points="685.09,-121.26 685.64,-131.84 691.8,-123.22 685.09,-121.26"/>
</a>
</g>
</g>
<!-- Node9 -->
<g id="Node000009" class="node">
<title>Node9</title>
<g id="a_Node000009"><a xlink:href="ComponentListViewModel_8cpp.html" target="_top" xlink:title=" ">
<polygon fill="white" stroke="#666666" points="911.5,-96 747.5,-96 747.5,-66 911.5,-66 911.5,-96"/>
<text text-anchor="start" x="755.5" y="-84" font-family="Helvetica,sans-Serif" font-size="10.00">ui/viewmodels/ComponentList</text>
<text text-anchor="middle" x="829.5" y="-73" font-family="Helvetica,sans-Serif" font-size="10.00">ViewModel.cpp</text>
</a>
</g>
</g>
<!-- Node6&#45;&gt;Node9 -->
<g id="edge8_Node000006_Node000009" class="edge">
<title>Node6&#45;&gt;Node9</title>
<g id="a_edge8_Node000006_Node000009"><a xlink:title=" ">
<path fill="none" stroke="#63b8ff" d="M723.31,-127.92C746.7,-117.8 775.42,-105.38 797.1,-96.01"/>
<polygon fill="#63b8ff" stroke="#63b8ff" points="721.77,-124.77 713.98,-131.95 724.55,-131.2 721.77,-124.77"/>
</a>
</g>
</g>
<!-- Node6&#45;&gt;Node10 -->
<g id="edge9_Node000006_Node000010" class="edge">
<title>Node6&#45;&gt;Node10</title>
<g id="a_edge9_Node000006_Node000010"><a xlink:title=" ">
<path fill="none" stroke="#63b8ff" d="M648.32,-126.69C631.34,-116.82 611.05,-105.01 595.58,-96.01"/>
<polygon fill="#63b8ff" stroke="#63b8ff" points="646.96,-129.95 657.36,-131.95 650.48,-123.9 646.96,-129.95"/>
</a>
</g>
</g>
<!-- Node10&#45;&gt;Node7 -->
<g id="edge10_Node000010_Node000007" class="edge">
<title>Node10&#45;&gt;Node7</title>
<g id="a_edge10_Node000010_Node000007"><a xlink:title=" ">
<path fill="none" stroke="#63b8ff" d="M579.28,-56.28C582.88,-45.31 586.94,-32.94 589.6,-24.84"/>
<polygon fill="#63b8ff" stroke="#63b8ff" points="575.95,-55.2 576.16,-65.8 582.6,-57.39 575.95,-55.2"/>
</a>
</g>
</g>
<!-- Node10&#45;&gt;Node8 -->
<g id="edge11_Node000010_Node000008" class="edge">
<title>Node10&#45;&gt;Node8</title>
<g id="a_edge11_Node000010_Node000008"><a xlink:title=" ">
<path fill="none" stroke="#63b8ff" d="M613.31,-61.92C636.7,-51.8 665.42,-39.38 687.1,-30.01"/>
<polygon fill="#63b8ff" stroke="#63b8ff" points="611.77,-58.77 603.98,-65.95 614.55,-65.2 611.77,-58.77"/>
</a>
</g>
</g>
<!-- Node11 -->
<g id="Node000011" class="node">
<title>Node11</title>
<g id="a_Node000011"><a xlink:href="ExportProgressViewModel_8cpp.html" target="_top" xlink:title=" ">
<polygon fill="white" stroke="#666666" points="543.5,-30 379.5,-30 379.5,0 543.5,0 543.5,-30"/>
<text text-anchor="start" x="387.5" y="-18" font-family="Helvetica,sans-Serif" font-size="10.00">ui/viewmodels/ExportProgress</text>
<text text-anchor="middle" x="461.5" y="-7" font-family="Helvetica,sans-Serif" font-size="10.00">ViewModel.cpp</text>
</a>
</g>
</g>
<!-- Node10&#45;&gt;Node11 -->
<g id="edge12_Node000010_Node000011" class="edge">
<title>Node10&#45;&gt;Node11</title>
<g id="a_edge12_Node000010_Node000011"><a xlink:title=" ">
<path fill="none" stroke="#63b8ff" d="M538.32,-60.69C521.34,-50.82 501.05,-39.01 485.58,-30.01"/>
<polygon fill="#63b8ff" stroke="#63b8ff" points="536.96,-63.95 547.36,-65.95 540.48,-57.9 536.96,-63.95"/>
</a>
</g>
</g>
</g>
</svg>
