<?xml version="1.0" encoding="UTF-8" standalone="no"?>
<!DOCTYPE svg PUBLIC "-//W3C//DTD SVG 1.1//EN"
 "http://www.w3.org/Graphics/SVG/1.1/DTD/svg11.dtd">
<!-- Generated by graphviz version 2.43.0 (0)
 -->
<!-- Title: services/LcscImageService.h Pages: 1 -->
<svg width="549pt" height="280pt"
 viewBox="0.00 0.00 548.50 280.00" xmlns="http://www.w3.org/2000/svg" xmlns:xlink="http://www.w3.org/1999/xlink">
<g id="graph0" class="graph" transform="scale(1 1) rotate(0) translate(4 276)">
<title>services/LcscImageService.h</title>
<!-- Node1 -->
<g id="Node000001" class="node">
<title>Node1</title>
<g id="a_Node000001"><a xlink:title=" ">
<polygon fill="#999999" stroke="#666666" points="443,-272 286,-272 286,-253 443,-253 443,-272"/>
<text text-anchor="middle" x="364.5" y="-260" font-family="Helvetica,sans-Serif" font-size="10.00">services/LcscImageService.h</text>
</a>
</g>
</g>
<!-- Node2 -->
<g id="Node000002" class="node">
<title>Node2</title>
<g id="a_Node000002"><a xlink:href="ComponentService_8h.html" target="_top" xlink:title=" ">
<polygon fill="white" stroke="#666666" points="354,-217 193,-217 193,-198 354,-198 354,-217"/>
<text text-anchor="middle" x="273.5" y="-205" font-family="Helvetica,sans-Serif" font-size="10.00">services/ComponentService.h</text>
</a>
</g>
</g>
<!-- Node1&#45;&gt;Node2 -->
<g id="edge1_Node000001_Node000002" class="edge">
<title>Node1&#45;&gt;Node2</title>
<g id="a_edge1_Node000001_Node000002"><a xlink:title=" ">
<path fill="none" stroke="#63b8ff" d="M340.8,-247.7C324.22,-238.04 302.59,-225.44 288.39,-217.17"/>
<polygon fill="#63b8ff" stroke="#63b8ff" points="339.48,-250.98 349.88,-252.98 343,-244.93 339.48,-250.98"/>
</a>
</g>
</g>
<!-- Node10 -->
<g id="Node000010" class="node">
<title>Node10</title>
<g id="a_Node000010"><a xlink:href="LcscImageService_8cpp.html" target="_top" xlink:title=" ">
<polygon fill="white" stroke="#666666" points="540.5,-217 372.5,-217 372.5,-198 540.5,-198 540.5,-217"/>
<text text-anchor="middle" x="456.5" y="-205" font-family="Helvetica,sans-Serif" font-size="10.00">services/LcscImageService.cpp</text>
</a>
</g>
</g>
<!-- Node1&#45;&gt;Node10 -->
<g id="edge11_Node000001_Node000010" class="edge">
<title>Node1&#45;&gt;Node10</title>
<g id="a_edge11_Node000001_Node000010"><a xlink:title=" ">
<path fill="none" stroke="#63b8ff" d="M387.99,-247.97C404.81,-238.28 426.95,-225.52 441.45,-217.17"/>
<polygon fill="#63b8ff" stroke="#63b8ff" points="386.2,-244.96 379.28,-252.98 389.69,-251.03 386.2,-244.96"/>
</a>
</g>
</g>
<!-- Node3 -->
<g id="Node000003" class="node">
<title>Node3</title>
<g id="a_Node000003"><a xlink:href="ComponentService_8cpp.html" target="_top" xlink:title=" ">
<polygon fill="white" stroke="#666666" points="173,-156.5 0,-156.5 0,-137.5 173,-137.5 173,-156.5"/>
<text text-anchor="middle" x="86.5" y="-144.5" font-family="Helvetica,sans-Serif" font-size="10.00">services/ComponentService.cpp</text>
</a>
</g>
</g>
<!-- Node2&#45;&gt;Node3 -->
<g id="edge2_Node000002_Node000003" class="edge">
<title>Node2&#45;&gt;Node3</title>
<g id="a_edge2_Node000002_Node000003"><a xlink:title=" ">
<path fill="none" stroke="#63b8ff" d="M236.62,-194.96C200.45,-183.65 146.15,-166.66 113.72,-156.52"/>
<polygon fill="#63b8ff" stroke="#63b8ff" points="235.72,-198.35 246.31,-197.99 237.81,-191.67 235.72,-198.35"/>
</a>
</g>
</g>
<!-- Node4 -->
<g id="Node000004" class="node">
<title>Node4</title>
<g id="a_Node000004"><a xlink:href="ComponentListViewModel_8h.html" target="_top" xlink:title=" ">
<polygon fill="white" stroke="#666666" points="355.5,-162 191.5,-162 191.5,-132 355.5,-132 355.5,-162"/>
<text text-anchor="start" x="199.5" y="-150" font-family="Helvetica,sans-Serif" font-size="10.00">ui/viewmodels/ComponentList</text>
<text text-anchor="middle" x="273.5" y="-139" font-family="Helvetica,sans-Serif" font-size="10.00">ViewModel.h</text>
</a>
</g>
</g>
<!-- Node2&#45;&gt;Node4 -->
<g id="edge3_Node000002_Node000004" class="edge">
<title>Node2&#45;&gt;Node4</title>
<g id="a_edge3_Node000002_Node000004"><a xlink:title=" ">
<path fill="none" stroke="#63b8ff" d="M273.5,-187.65C273.5,-179.36 273.5,-169.78 273.5,-162.11"/>
<polygon fill="#63b8ff" stroke="#63b8ff" points="270,-187.87 273.5,-197.87 277,-187.87 270,-187.87"/>
</a>
</g>
</g>
<!-- Node8 -->
<g id="Node000008" class="node">
<title>Node8</title>
<g id="a_Node000008"><a xlink:href="ExportProgressViewModel_8h.html" target="_top" xlink:title=" ">
<polygon fill="white" stroke="#666666" points="537.5,-96 373.5,-96 373.5,-66 537.5,-66 537.5,-96"/>
<text text-anchor="start" x="381.5" y="-84" font-family="Helvetica,sans-Serif" font-size="10.00">ui/viewmodels/ExportProgress</text>
<text text-anchor="middle" x="455.5" y="-73" font-family="Helvetica,sans-Serif" font-size="10.00">ViewModel.h</text>
</a>
</g>
</g>
<!-- Node2&#45;&gt;Node8 -->
<g id="edge10_Node000002_Node000008" class="edge">
<title>Node2&#45;&gt;Node8</title>
<g id="a_edge10_Node000002_Node000008"><a xlink:title=" ">
<path fill="none" stroke="#63b8ff" d="M304.24,-193.93C322.42,-185.91 345.52,-174.65 364.5,-162 394.43,-142.05 424.98,-113.06 441.96,-96"/>
<polygon fill="#63b8ff" stroke="#63b8ff" points="302.76,-190.76 294.97,-197.93 305.53,-197.18 302.76,-190.76"/>
</a>
</g>
</g>
<!-- Node5 -->
<g id="Node000005" class="node">
<title>Node5</title>
<g id="a_Node000005"><a xlink:href="main_8cpp.html" target="_top" xlink:title=" ">
<polygon fill="white" stroke="#666666" points="202.5,-24.5 140.5,-24.5 140.5,-5.5 202.5,-5.5 202.5,-24.5"/>
<text text-anchor="middle" x="171.5" y="-12.5" font-family="Helvetica,sans-Serif" font-size="10.00">main.cpp</text>
</a>
</g>
</g>
<!-- Node4&#45;&gt;Node5 -->
<g id="edge4_Node000004_Node000005" class="edge">
<title>Node4&#45;&gt;Node5</title>
<g id="a_edge4_Node000004_Node000005"><a xlink:title=" ">
<path fill="none" stroke="#63b8ff" d="M185.67,-130.13C120.25,-117.89 41.41,-102.06 36.5,-96 4.41,-56.43 91.23,-31.98 140.37,-21.68"/>
<polygon fill="#63b8ff" stroke="#63b8ff" points="185.16,-133.6 195.63,-131.99 186.44,-126.72 185.16,-133.6"/>
</a>
</g>
</g>
<!-- Node6 -->
<g id="Node000006" class="node">
<title>Node6</title>
<g id="a_Node000006"><a xlink:href="ExportService__Pipeline_8cpp.html" target="_top" xlink:title=" ">
<polygon fill="white" stroke="#666666" points="173.5,-96 45.5,-96 45.5,-66 173.5,-66 173.5,-96"/>
<text text-anchor="start" x="53.5" y="-84" font-family="Helvetica,sans-Serif" font-size="10.00">services/ExportService</text>
<text text-anchor="middle" x="109.5" y="-73" font-family="Helvetica,sans-Serif" font-size="10.00">_Pipeline.cpp</text>
</a>
</g>
</g>
<!-- Node4&#45;&gt;Node6 -->
<g id="edge5_Node000004_Node000006" class="edge">
<title>Node4&#45;&gt;Node6</title>
<g id="a_edge5_Node000004_Node000006"><a xlink:title=" ">
<path fill="none" stroke="#63b8ff" d="M227.86,-128.19C201.81,-118.02 169.63,-105.47 145.41,-96.01"/>
<polygon fill="#63b8ff" stroke="#63b8ff" points="226.92,-131.58 237.51,-131.95 229.47,-125.06 226.92,-131.58"/>
</a>
</g>
</g>
<!-- Node7 -->
<g id="Node000007" class="node">
<title>Node7</title>
<g id="a_Node000007"><a xlink:href="ComponentListViewModel_8cpp.html" target="_top" xlink:title=" ">
<polygon fill="white" stroke="#666666" points="355.5,-96 191.5,-96 191.5,-66 355.5,-66 355.5,-96"/>
<text text-anchor="start" x="199.5" y="-84" font-family="Helvetica,sans-Serif" font-size="10.00">ui/viewmodels/ComponentList</text>
<text text-anchor="middle" x="273.5" y="-73" font-family="Helvetica,sans-Serif" font-size="10.00">ViewModel.cpp</text>
</a>
</g>
</g>
<!-- Node4&#45;&gt;Node7 -->
<g id="edge6_Node000004_Node000007" class="edge">
<title>Node4&#45;&gt;Node7</title>
<g id="a_edge6_Node000004_Node000007"><a xlink:title=" ">
<path fill="none" stroke="#63b8ff" d="M273.5,-121.54C273.5,-112.96 273.5,-103.61 273.5,-96.16"/>
<polygon fill="#63b8ff" stroke="#63b8ff" points="270,-121.8 273.5,-131.8 277,-121.8 270,-121.8"/>
</a>
</g>
</g>
<!-- Node4&#45;&gt;Node8 -->
<g id="edge7_Node000004_Node000008" class="edge">
<title>Node4&#45;&gt;Node8</title>
<g id="a_edge7_Node000004_Node000008"><a xlink:title=" ">
<path fill="none" stroke="#63b8ff" d="M323.01,-128.59C352.11,-118.36 388.41,-105.59 415.65,-96.01"/>
<polygon fill="#63b8ff" stroke="#63b8ff" points="321.71,-125.34 313.44,-131.95 324.04,-131.94 321.71,-125.34"/>
</a>
</g>
</g>
<!-- Node8&#45;&gt;Node5 -->
<g id="edge8_Node000008_Node000005" class="edge">
<title>Node8&#45;&gt;Node5</title>
<g id="a_edge8_Node000008_Node000005"><a xlink:title=" ">
<path fill="none" stroke="#63b8ff" d="M383.27,-63.72C324.94,-50.58 245.71,-32.72 202.59,-23.01"/>
<polygon fill="#63b8ff" stroke="#63b8ff" points="382.65,-67.17 393.17,-65.95 384.19,-60.34 382.65,-67.17"/>
</a>
</g>
</g>
<!-- Node9 -->
<g id="Node000009" class="node">
<title>Node9</title>
<g id="a_Node000009"><a xlink:href="ExportProgressViewModel_8cpp.html" target="_top" xlink:title=" ">
<polygon fill="white" stroke="#666666" points="537.5,-30 373.5,-30 373.5,0 537.5,0 537.5,-30"/>
<text text-anchor="start" x="381.5" y="-18" font-family="Helvetica,sans-Serif" font-size="10.00">ui/viewmodels/ExportProgress</text>
<text text-anchor="middle" x="455.5" y="-7" font-family="Helvetica,sans-Serif" font-size="10.00">ViewModel.cpp</text>
</a>
</g>
</g>
<!-- Node8&#45;&gt;Node9 -->
<g id="edge9_Node000008_Node000009" class="edge">
<title>Node8&#45;&gt;Node9</title>
<g id="a_edge9_Node000008_Node000009"><a xlink:title=" ">
<path fill="none" stroke="#63b8ff" d="M455.5,-55.54C455.5,-46.96 455.5,-37.61 455.5,-30.16"/>
<polygon fill="#63b8ff" stroke="#63b8ff" points="452,-55.8 455.5,-65.8 459,-55.8 452,-55.8"/>
</a>
</g>
</g>
</g>
</svg>
