<?xml version="1.0" encoding="UTF-8" standalone="no"?>
<!DOCTYPE svg PUBLIC "-//W3C//DTD SVG 1.1//EN"
 "http://www.w3.org/Graphics/SVG/1.1/DTD/svg11.dtd">
<!-- Generated by graphviz version 2.43.0 (0)
 -->
<!-- Title: utils/logging/Log.h Pages: 1 -->
<svg width="1672pt" height="467pt"
 viewBox="0.00 0.00 1672.00 467.00" xmlns="http://www.w3.org/2000/svg" xmlns:xlink="http://www.w3.org/1999/xlink">
<g id="graph0" class="graph" transform="scale(1 1) rotate(0) translate(4 463)">
<title>utils/logging/Log.h</title>
<!-- Node1 -->
<g id="Node000001" class="node">
<title>Node1</title>
<g id="a_Node000001"><a xlink:title="EasyKiConverter 日志系统统一入口">
<polygon fill="#999999" stroke="#666666" points="946,-459 840,-459 840,-440 946,-440 946,-459"/>
<text text-anchor="middle" x="893" y="-447" font-family="Helvetica,sans-Serif" font-size="10.00">utils/logging/Log.h</text>
</a>
</g>
</g>
<!-- Node2 -->
<g id="Node000002" class="node">
<title>Node2</title>
<g id="a_Node000002"><a xlink:href="LogLevel_8h.html" target="_top" xlink:title=" ">
<polygon fill="white" stroke="#666666" points="737.5,-74 668.5,-74 668.5,-55 737.5,-55 737.5,-74"/>
<text text-anchor="middle" x="703" y="-62" font-family="Helvetica,sans-Serif" font-size="10.00">LogLevel.h</text>
</a>
</g>
</g>
<!-- Node1&#45;&gt;Node2 -->
<g id="edge1_Node000001_Node000002" class="edge">
<title>Node1&#45;&gt;Node2</title>
<g id="a_edge1_Node000001_Node000002"><a xlink:title=" ">
<path fill="none" stroke="#63b8ff" d="M839.81,-447.69C647.57,-444.08 0,-425.61 0,-340.5 0,-340.5 0,-340.5 0,-173.5 0,-106.66 502.91,-75.63 658.01,-67.64"/>
<polygon fill="#63b8ff" stroke="#63b8ff" points="658.33,-71.13 668.14,-67.13 657.97,-64.14 658.33,-71.13"/>
</a>
</g>
</g>
<!-- Node4 -->
<g id="Node000004" class="node">
<title>Node4</title>
<g id="a_Node000004"><a xlink:href="LogModule_8h.html" target="_top" xlink:title=" ">
<polygon fill="white" stroke="#666666" points="1589.5,-74 1510.5,-74 1510.5,-55 1589.5,-55 1589.5,-74"/>
<text text-anchor="middle" x="1550" y="-62" font-family="Helvetica,sans-Serif" font-size="10.00">LogModule.h</text>
</a>
</g>
</g>
<!-- Node1&#45;&gt;Node4 -->
<g id="edge3_Node000001_Node000004" class="edge">
<title>Node1&#45;&gt;Node4</title>
<g id="a_edge3_Node000001_Node000004"><a xlink:title=" ">
<path fill="none" stroke="#63b8ff" d="M946.3,-446.66C1120.82,-439.92 1664,-413.11 1664,-340.5 1664,-340.5 1664,-340.5 1664,-228.5 1664,-163.83 1603,-106.55 1570.24,-80.46"/>
<polygon fill="#63b8ff" stroke="#63b8ff" points="1572.25,-77.58 1562.2,-74.22 1567.96,-83.12 1572.25,-77.58"/>
</a>
</g>
</g>
<!-- Node7 -->
<g id="Node000007" class="node">
<title>Node7</title>
<g id="a_Node000007"><a xlink:href="LogRecord_8h.html" target="_top" xlink:title=" ">
<polygon fill="white" stroke="#666666" points="940.5,-129 863.5,-129 863.5,-110 940.5,-110 940.5,-129"/>
<text text-anchor="middle" x="902" y="-117" font-family="Helvetica,sans-Serif" font-size="10.00">LogRecord.h</text>
</a>
</g>
</g>
<!-- Node1&#45;&gt;Node7 -->
<g id="edge7_Node000001_Node000007" class="edge">
<title>Node1&#45;&gt;Node7</title>
<g id="a_edge7_Node000001_Node000007"><a xlink:title=" ">
<path fill="none" stroke="#63b8ff" d="M856.98,-439.92C812.03,-426.82 741,-397.15 741,-340.5 741,-340.5 741,-340.5 741,-283.5 741,-209.23 826.65,-156.59 873.01,-133.53"/>
<polygon fill="#63b8ff" stroke="#63b8ff" points="874.78,-136.57 882.26,-129.07 871.73,-130.26 874.78,-136.57"/>
</a>
</g>
</g>
<!-- Node9 -->
<g id="Node000009" class="node">
<title>Node9</title>
<g id="a_Node000009"><a xlink:href="IFormatter_8h.html" target="_top" xlink:title=" ">
<polygon fill="white" stroke="#666666" points="1051,-184 975,-184 975,-165 1051,-165 1051,-184"/>
<text text-anchor="middle" x="1013" y="-172" font-family="Helvetica,sans-Serif" font-size="10.00">IFormatter.h</text>
</a>
</g>
</g>
<!-- Node1&#45;&gt;Node9 -->
<g id="edge13_Node000001_Node000009" class="edge">
<title>Node1&#45;&gt;Node9</title>
<g id="a_edge13_Node000001_Node000009"><a xlink:title=" ">
<path fill="none" stroke="#63b8ff" d="M946.08,-447.02C1066.11,-442.24 1348,-422.3 1348,-340.5 1348,-340.5 1348,-340.5 1348,-283.5 1348,-254.04 1351.34,-239.2 1329,-220 1289.74,-186.26 1139.44,-178.07 1061.11,-176.1"/>
<polygon fill="#63b8ff" stroke="#63b8ff" points="1061.09,-172.6 1051.01,-175.87 1060.93,-179.6 1061.09,-172.6"/>
</a>
</g>
</g>
<!-- Node11 -->
<g id="Node000011" class="node">
<title>Node11</title>
<g id="a_Node000011"><a xlink:href="PatternFormatter_8h.html" target="_top" xlink:title=" ">
<polygon fill="white" stroke="#666666" points="1521.5,-239 1414.5,-239 1414.5,-220 1521.5,-220 1521.5,-239"/>
<text text-anchor="middle" x="1468" y="-227" font-family="Helvetica,sans-Serif" font-size="10.00">PatternFormatter.h</text>
</a>
</g>
</g>
<!-- Node1&#45;&gt;Node11 -->
<g id="edge17_Node000001_Node000011" class="edge">
<title>Node1&#45;&gt;Node11</title>
<g id="a_edge17_Node000001_Node000011"><a xlink:title=" ">
<path fill="none" stroke="#63b8ff" d="M946.18,-449.31C1054,-450.01 1293.85,-446.58 1362,-404 1420.33,-367.56 1451.27,-286.08 1462.73,-249.23"/>
<polygon fill="#63b8ff" stroke="#63b8ff" points="1466.18,-249.91 1465.67,-239.33 1459.47,-247.92 1466.18,-249.91"/>
</a>
</g>
</g>
<!-- Node13 -->
<g id="Node000013" class="node">
<title>Node13</title>
<g id="a_Node000013"><a xlink:href="ConsoleAppender_8h.html" target="_top" xlink:title=" ">
<polygon fill="white" stroke="#666666" points="544,-294 434,-294 434,-275 544,-275 544,-294"/>
<text text-anchor="middle" x="489" y="-282" font-family="Helvetica,sans-Serif" font-size="10.00">ConsoleAppender.h</text>
</a>
</g>
</g>
<!-- Node1&#45;&gt;Node13 -->
<g id="edge21_Node000001_Node000013" class="edge">
<title>Node1&#45;&gt;Node13</title>
<g id="a_edge21_Node000001_Node000013"><a xlink:title=" ">
<path fill="none" stroke="#63b8ff" d="M852.03,-439.93C817.99,-432.23 768.58,-419.74 727,-404 645.3,-373.07 554.32,-323.11 512.44,-299.16"/>
<polygon fill="#63b8ff" stroke="#63b8ff" points="513.98,-296.01 503.57,-294.05 510.49,-302.08 513.98,-296.01"/>
</a>
</g>
</g>
<!-- Node14 -->
<g id="Node000014" class="node">
<title>Node14</title>
<g id="a_Node000014"><a xlink:href="IAppender_8h.html" target="_top" xlink:title=" ">
<polygon fill="white" stroke="#666666" points="881,-239 807,-239 807,-220 881,-220 881,-239"/>
<text text-anchor="middle" x="844" y="-227" font-family="Helvetica,sans-Serif" font-size="10.00">IAppender.h</text>
</a>
</g>
</g>
<!-- Node1&#45;&gt;Node14 -->
<g id="edge44_Node000001_Node000014" class="edge">
<title>Node1&#45;&gt;Node14</title>
<g id="a_edge44_Node000001_Node000014"><a xlink:title=" ">
<path fill="none" stroke="#63b8ff" d="M889.95,-439.82C884.03,-422.66 870.84,-383.11 863,-349 854.98,-314.1 849.16,-272.65 846.21,-249.17"/>
<polygon fill="#63b8ff" stroke="#63b8ff" points="849.68,-248.7 844.99,-239.2 842.73,-249.55 849.68,-248.7"/>
</a>
</g>
</g>
<!-- Node21 -->
<g id="Node000021" class="node">
<title>Node21</title>
<g id="a_Node000021"><a xlink:href="FileAppender_8h.html" target="_top" xlink:title=" ">
<polygon fill="white" stroke="#666666" points="383.5,-294 294.5,-294 294.5,-275 383.5,-275 383.5,-294"/>
<text text-anchor="middle" x="339" y="-282" font-family="Helvetica,sans-Serif" font-size="10.00">FileAppender.h</text>
</a>
</g>
</g>
<!-- Node1&#45;&gt;Node21 -->
<g id="edge35_Node000001_Node000021" class="edge">
<title>Node1&#45;&gt;Node21</title>
<g id="a_edge35_Node000001_Node000021"><a xlink:title=" ">
<path fill="none" stroke="#63b8ff" d="M843.07,-439.95C799.63,-432.06 735.16,-419.28 680,-404 563.81,-371.82 429.69,-321.09 370.19,-297.86"/>
<polygon fill="#63b8ff" stroke="#63b8ff" points="371.22,-294.5 360.63,-294.11 368.67,-301.02 371.22,-294.5"/>
</a>
</g>
</g>
<!-- Node23 -->
<g id="Node000023" class="node">
<title>Node23</title>
<g id="a_Node000023"><a xlink:href="Logger_8h.html" target="_top" xlink:title=" ">
<polygon fill="white" stroke="#666666" points="991,-294 933,-294 933,-275 991,-275 991,-294"/>
<text text-anchor="middle" x="962" y="-282" font-family="Helvetica,sans-Serif" font-size="10.00">Logger.h</text>
</a>
</g>
</g>
<!-- Node1&#45;&gt;Node23 -->
<g id="edge45_Node000001_Node000023" class="edge">
<title>Node1&#45;&gt;Node23</title>
<g id="a_edge45_Node000001_Node000023"><a xlink:title=" ">
<path fill="none" stroke="#63b8ff" d="M946.26,-444.41C973.65,-439.29 1004.81,-428.11 1022,-404 1046.4,-369.77 1005.64,-324.21 980.13,-300.81"/>
<polygon fill="#63b8ff" stroke="#63b8ff" points="982.3,-298.05 972.49,-294.03 977.65,-303.28 982.3,-298.05"/>
</a>
</g>
</g>
<!-- Node28 -->
<g id="Node000028" class="node">
<title>Node28</title>
<g id="a_Node000028"><a xlink:href="LogMacros_8h.html" target="_top" xlink:title=" ">
<polygon fill="white" stroke="#666666" points="950,-349 872,-349 872,-330 950,-330 950,-349"/>
<text text-anchor="middle" x="911" y="-337" font-family="Helvetica,sans-Serif" font-size="10.00">LogMacros.h</text>
</a>
</g>
</g>
<!-- Node1&#45;&gt;Node28 -->
<g id="edge59_Node000001_Node000028" class="edge">
<title>Node1&#45;&gt;Node28</title>
<g id="a_edge59_Node000001_Node000028"><a xlink:title=" ">
<path fill="none" stroke="#63b8ff" d="M894.47,-439.66C897.39,-422.17 903.95,-382.8 907.87,-359.27"/>
<polygon fill="#63b8ff" stroke="#63b8ff" points="911.37,-359.6 909.56,-349.16 904.46,-358.45 911.37,-359.6"/>
</a>
</g>
</g>
<!-- Node29 -->
<g id="Node000029" class="node">
<title>Node29</title>
<g id="a_Node000029"><a xlink:href="QtLogAdapter_8h.html" target="_top" xlink:title=" ">
<polygon fill="white" stroke="#666666" points="1013,-404 921,-404 921,-385 1013,-385 1013,-404"/>
<text text-anchor="middle" x="967" y="-392" font-family="Helvetica,sans-Serif" font-size="10.00">QtLogAdapter.h</text>
</a>
</g>
</g>
<!-- Node1&#45;&gt;Node29 -->
<g id="edge63_Node000001_Node000029" class="edge">
<title>Node1&#45;&gt;Node29</title>
<g id="a_edge63_Node000001_Node000029"><a xlink:title=" ">
<path fill="none" stroke="#63b8ff" d="M904.89,-439.98C916.15,-431.92 933.29,-419.65 946.71,-410.03"/>
<polygon fill="#63b8ff" stroke="#63b8ff" points="948.8,-412.84 954.89,-404.17 944.73,-407.15 948.8,-412.84"/>
</a>
</g>
</g>
<!-- Node3 -->
<g id="Node000003" class="node">
<title>Node3</title>
<g id="a_Node000003"><a xlink:title=" ">
<polygon fill="#e0e0e0" stroke="#999999" points="866.5,-19 813.5,-19 813.5,0 866.5,0 866.5,-19"/>
<text text-anchor="middle" x="840" y="-7" font-family="Helvetica,sans-Serif" font-size="10.00">QString</text>
</a>
</g>
</g>
<!-- Node2&#45;&gt;Node3 -->
<g id="edge2_Node000002_Node000003" class="edge">
<title>Node2&#45;&gt;Node3</title>
<g id="a_edge2_Node000002_Node000003"><a xlink:title=" ">
<path fill="none" stroke="#63b8ff" d="M725.01,-54.98C747.45,-46.3 782.48,-32.75 807.99,-22.88"/>
<polygon fill="#63b8ff" stroke="#63b8ff" points="809.52,-26.04 817.59,-19.17 807,-19.51 809.52,-26.04"/>
</a>
</g>
</g>
<!-- Node4&#45;&gt;Node3 -->
<g id="edge4_Node000004_Node000003" class="edge">
<title>Node4&#45;&gt;Node3</title>
<g id="a_edge4_Node000004_Node000003"><a xlink:title=" ">
<path fill="none" stroke="#63b8ff" d="M1510.31,-60.54C1384.87,-51.17 998.13,-22.3 876.8,-13.25"/>
<polygon fill="#63b8ff" stroke="#63b8ff" points="876.79,-9.74 866.56,-12.48 876.27,-16.72 876.79,-9.74"/>
</a>
</g>
</g>
<!-- Node5 -->
<g id="Node000005" class="node">
<title>Node5</title>
<g id="a_Node000005"><a xlink:title=" ">
<polygon fill="#e0e0e0" stroke="#999999" points="1543,-19 1473,-19 1473,0 1543,0 1543,-19"/>
<text text-anchor="middle" x="1508" y="-7" font-family="Helvetica,sans-Serif" font-size="10.00">QStringList</text>
</a>
</g>
</g>
<!-- Node4&#45;&gt;Node5 -->
<g id="edge5_Node000004_Node000005" class="edge">
<title>Node4&#45;&gt;Node5</title>
<g id="a_edge5_Node000004_Node000005"><a xlink:title=" ">
<path fill="none" stroke="#63b8ff" d="M1543.06,-54.75C1537.13,-47.26 1528.43,-36.28 1521.18,-27.13"/>
<polygon fill="#63b8ff" stroke="#63b8ff" points="1523.76,-24.75 1514.81,-19.09 1518.27,-29.1 1523.76,-24.75"/>
</a>
</g>
</g>
<!-- Node6 -->
<g id="Node000006" class="node">
<title>Node6</title>
<g id="a_Node000006"><a xlink:title=" ">
<polygon fill="#e0e0e0" stroke="#999999" points="1620.5,-19 1561.5,-19 1561.5,0 1620.5,0 1620.5,-19"/>
<text text-anchor="middle" x="1591" y="-7" font-family="Helvetica,sans-Serif" font-size="10.00">QtGlobal</text>
</a>
</g>
</g>
<!-- Node4&#45;&gt;Node6 -->
<g id="edge6_Node000004_Node000006" class="edge">
<title>Node4&#45;&gt;Node6</title>
<g id="a_edge6_Node000004_Node000006"><a xlink:title=" ">
<path fill="none" stroke="#63b8ff" d="M1556.77,-54.75C1562.56,-47.26 1571.06,-36.28 1578.14,-27.13"/>
<polygon fill="#63b8ff" stroke="#63b8ff" points="1581.01,-29.14 1584.36,-19.09 1575.47,-24.86 1581.01,-29.14"/>
</a>
</g>
</g>
<!-- Node7&#45;&gt;Node2 -->
<g id="edge8_Node000007_Node000002" class="edge">
<title>Node7&#45;&gt;Node2</title>
<g id="a_edge8_Node000007_Node000002"><a xlink:title=" ">
<path fill="none" stroke="#63b8ff" d="M870.03,-109.98C836.18,-100.97 782.6,-86.7 745.29,-76.76"/>
<polygon fill="#63b8ff" stroke="#63b8ff" points="745.79,-73.27 735.22,-74.08 743.99,-80.04 745.79,-73.27"/>
</a>
</g>
</g>
<!-- Node7&#45;&gt;Node3 -->
<g id="edge11_Node000007_Node000003" class="edge">
<title>Node7&#45;&gt;Node3</title>
<g id="a_edge11_Node000007_Node000003"><a xlink:title=" ">
<path fill="none" stroke="#63b8ff" d="M890.94,-109.74C881.22,-101.48 867.36,-88.28 859,-74 850.91,-60.17 846,-42.61 843.2,-29.45"/>
<polygon fill="#63b8ff" stroke="#63b8ff" points="846.57,-28.41 841.26,-19.24 839.69,-29.72 846.57,-28.41"/>
</a>
</g>
</g>
<!-- Node7&#45;&gt;Node4 -->
<g id="edge9_Node000007_Node000004" class="edge">
<title>Node7&#45;&gt;Node4</title>
<g id="a_edge9_Node000007_Node000004"><a xlink:title=" ">
<path fill="none" stroke="#63b8ff" d="M940.51,-114.5C955.35,-113.01 972.46,-111.36 988,-110 1198.91,-91.59 1252.08,-92.29 1463,-74 1475.05,-72.95 1488.03,-71.74 1500.19,-70.55"/>
<polygon fill="#63b8ff" stroke="#63b8ff" points="1500.56,-74.04 1510.17,-69.57 1499.88,-67.07 1500.56,-74.04"/>
</a>
</g>
</g>
<!-- Node7&#45;&gt;Node6 -->
<g id="edge12_Node000007_Node000006" class="edge">
<title>Node7&#45;&gt;Node6</title>
<g id="a_edge12_Node000007_Node000006"><a xlink:title=" ">
<path fill="none" stroke="#63b8ff" d="M940.6,-113.45C1040.08,-100.26 1313.43,-62.84 1551.36,-19.02"/>
<polygon fill="#63b8ff" stroke="#63b8ff" points="1552.03,-22.45 1561.23,-17.19 1550.76,-15.57 1552.03,-22.45"/>
</a>
</g>
</g>
<!-- Node8 -->
<g id="Node000008" class="node">
<title>Node8</title>
<g id="a_Node000008"><a xlink:title=" ">
<polygon fill="#e0e0e0" stroke="#999999" points="940,-74 868,-74 868,-55 940,-55 940,-74"/>
<text text-anchor="middle" x="904" y="-62" font-family="Helvetica,sans-Serif" font-size="10.00">QDateTime</text>
</a>
</g>
</g>
<!-- Node7&#45;&gt;Node8 -->
<g id="edge10_Node000007_Node000008" class="edge">
<title>Node7&#45;&gt;Node8</title>
<g id="a_edge10_Node000007_Node000008"><a xlink:title=" ">
<path fill="none" stroke="#63b8ff" d="M902.33,-109.75C902.59,-102.8 902.97,-92.85 903.3,-84.13"/>
<polygon fill="#63b8ff" stroke="#63b8ff" points="906.8,-84.21 903.68,-74.09 899.8,-83.95 906.8,-84.21"/>
</a>
</g>
</g>
<!-- Node9&#45;&gt;Node3 -->
<g id="edge16_Node000009_Node000003" class="edge">
<title>Node9&#45;&gt;Node3</title>
<g id="a_edge16_Node000009_Node000003"><a xlink:title=" ">
<path fill="none" stroke="#63b8ff" d="M1007.95,-164.67C1002.85,-155.72 994.78,-141.45 988,-129 970.23,-96.35 976.54,-79.98 949,-55 928.56,-36.46 899.36,-25.1 876.33,-18.5"/>
<polygon fill="#63b8ff" stroke="#63b8ff" points="877.12,-15.09 866.55,-15.88 875.3,-21.85 877.12,-15.09"/>
</a>
</g>
</g>
<!-- Node9&#45;&gt;Node7 -->
<g id="edge14_Node000009_Node000007" class="edge">
<title>Node9&#45;&gt;Node7</title>
<g id="a_edge14_Node000009_Node000007"><a xlink:title=" ">
<path fill="none" stroke="#63b8ff" d="M995.17,-164.98C977.39,-156.5 949.85,-143.35 929.32,-133.54"/>
<polygon fill="#63b8ff" stroke="#63b8ff" points="930.69,-130.32 920.16,-129.17 927.67,-136.64 930.69,-130.32"/>
</a>
</g>
</g>
<!-- Node10 -->
<g id="Node000010" class="node">
<title>Node10</title>
<g id="a_Node000010"><a xlink:title=" ">
<polygon fill="#e0e0e0" stroke="#999999" points="1089,-129 997,-129 997,-110 1089,-110 1089,-129"/>
<text text-anchor="middle" x="1043" y="-117" font-family="Helvetica,sans-Serif" font-size="10.00">QSharedPointer</text>
</a>
</g>
</g>
<!-- Node9&#45;&gt;Node10 -->
<g id="edge15_Node000009_Node000010" class="edge">
<title>Node9&#45;&gt;Node10</title>
<g id="a_edge15_Node000009_Node000010"><a xlink:title=" ">
<path fill="none" stroke="#63b8ff" d="M1017.95,-164.75C1022.06,-157.49 1028.03,-146.95 1033.1,-137.98"/>
<polygon fill="#63b8ff" stroke="#63b8ff" points="1036.26,-139.52 1038.14,-129.09 1030.17,-136.07 1036.26,-139.52"/>
</a>
</g>
</g>
<!-- Node11&#45;&gt;Node3 -->
<g id="edge20_Node000011_Node000003" class="edge">
<title>Node11&#45;&gt;Node3</title>
<g id="a_edge20_Node000011_Node000003"><a xlink:title=" ">
<path fill="none" stroke="#63b8ff" d="M1451.3,-219.98C1425.64,-207.09 1374.78,-182.28 1330,-165 1163.81,-100.86 958.71,-42.77 876.55,-20.32"/>
<polygon fill="#63b8ff" stroke="#63b8ff" points="877.26,-16.89 866.7,-17.64 875.43,-23.64 877.26,-16.89"/>
</a>
</g>
</g>
<!-- Node11&#45;&gt;Node9 -->
<g id="edge18_Node000011_Node000009" class="edge">
<title>Node11&#45;&gt;Node9</title>
<g id="a_edge18_Node000011_Node000009"><a xlink:title=" ">
<path fill="none" stroke="#63b8ff" d="M1414.47,-222.26C1325.08,-211.85 1146.8,-191.09 1061.13,-181.11"/>
<polygon fill="#63b8ff" stroke="#63b8ff" points="1061.5,-177.63 1051.16,-179.94 1060.69,-184.58 1061.5,-177.63"/>
</a>
</g>
</g>
<!-- Node12 -->
<g id="Node000012" class="node">
<title>Node12</title>
<g id="a_Node000012"><a xlink:title=" ">
<polygon fill="#e0e0e0" stroke="#999999" points="1521.5,-184 1406.5,-184 1406.5,-165 1521.5,-165 1521.5,-184"/>
<text text-anchor="middle" x="1464" y="-172" font-family="Helvetica,sans-Serif" font-size="10.00">QRegularExpression</text>
</a>
</g>
</g>
<!-- Node11&#45;&gt;Node12 -->
<g id="edge19_Node000011_Node000012" class="edge">
<title>Node11&#45;&gt;Node12</title>
<g id="a_edge19_Node000011_Node000012"><a xlink:title=" ">
<path fill="none" stroke="#63b8ff" d="M1467.34,-219.75C1466.82,-212.8 1466.06,-202.85 1465.41,-194.13"/>
<polygon fill="#63b8ff" stroke="#63b8ff" points="1468.89,-193.8 1464.65,-184.09 1461.91,-194.32 1468.89,-193.8"/>
</a>
</g>
</g>
<!-- Node13&#45;&gt;Node2 -->
<g id="edge27_Node000013_Node000002" class="edge">
<title>Node13&#45;&gt;Node2</title>
<g id="a_edge27_Node000013_Node000002"><a xlink:title=" ">
<path fill="none" stroke="#63b8ff" d="M493.14,-274.73C499.42,-261.94 512.19,-237.76 527,-220 575.75,-161.51 647.35,-105.92 682.29,-80.28"/>
<polygon fill="#63b8ff" stroke="#63b8ff" points="684.7,-82.86 690.74,-74.15 680.59,-77.19 684.7,-82.86"/>
</a>
</g>
</g>
<!-- Node13&#45;&gt;Node3 -->
<g id="edge32_Node000013_Node000003" class="edge">
<title>Node13&#45;&gt;Node3</title>
<g id="a_edge32_Node000013_Node000003"><a xlink:title=" ">
<path fill="none" stroke="#63b8ff" d="M490.74,-274.85C493.52,-262.2 499.74,-238.21 510,-220 530.54,-183.57 639.69,-66.37 659,-55 704.24,-28.36 764.84,-17.62 803.16,-13.32"/>
<polygon fill="#63b8ff" stroke="#63b8ff" points="803.75,-16.77 813.34,-12.27 803.04,-9.81 803.75,-16.77"/>
</a>
</g>
</g>
<!-- Node13&#45;&gt;Node14 -->
<g id="edge22_Node000013_Node000014" class="edge">
<title>Node13&#45;&gt;Node14</title>
<g id="a_edge22_Node000013_Node000014"><a xlink:title=" ">
<path fill="none" stroke="#63b8ff" d="M544.08,-275.28C613.4,-264.93 731.3,-247.33 796.72,-237.56"/>
<polygon fill="#63b8ff" stroke="#63b8ff" points="797.38,-241 806.76,-236.06 796.35,-234.08 797.38,-241"/>
</a>
</g>
</g>
<!-- Node15 -->
<g id="Node000015" class="node">
<title>Node15</title>
<g id="a_Node000015"><a xlink:title=" ">
<polygon fill="#e0e0e0" stroke="#999999" points="607.5,-239 536.5,-239 536.5,-220 607.5,-220 607.5,-239"/>
<text text-anchor="middle" x="572" y="-227" font-family="Helvetica,sans-Serif" font-size="10.00">QAtomicInt</text>
</a>
</g>
</g>
<!-- Node13&#45;&gt;Node15 -->
<g id="edge28_Node000013_Node000015" class="edge">
<title>Node13&#45;&gt;Node15</title>
<g id="a_edge28_Node000013_Node000015"><a xlink:title=" ">
<path fill="none" stroke="#63b8ff" d="M502.34,-274.98C515.09,-266.84 534.55,-254.41 549.67,-244.76"/>
<polygon fill="#63b8ff" stroke="#63b8ff" points="551.88,-247.5 558.42,-239.17 548.11,-241.6 551.88,-247.5"/>
</a>
</g>
</g>
<!-- Node16 -->
<g id="Node000016" class="node">
<title>Node16</title>
<g id="a_Node000016"><a xlink:title=" ">
<polygon fill="#e0e0e0" stroke="#999999" points="674.5,-239 625.5,-239 625.5,-220 674.5,-220 674.5,-239"/>
<text text-anchor="middle" x="650" y="-227" font-family="Helvetica,sans-Serif" font-size="10.00">QHash</text>
</a>
</g>
</g>
<!-- Node13&#45;&gt;Node16 -->
<g id="edge29_Node000013_Node000016" class="edge">
<title>Node13&#45;&gt;Node16</title>
<g id="a_edge29_Node000013_Node000016"><a xlink:title=" ">
<path fill="none" stroke="#63b8ff" d="M514.87,-274.98C542.18,-265.99 585.38,-251.77 615.56,-241.84"/>
<polygon fill="#63b8ff" stroke="#63b8ff" points="616.85,-245.1 625.25,-238.65 614.66,-238.45 616.85,-245.1"/>
</a>
</g>
</g>
<!-- Node17 -->
<g id="Node000017" class="node">
<title>Node17</title>
<g id="a_Node000017"><a xlink:title=" ">
<polygon fill="#e0e0e0" stroke="#999999" points="441.5,-239 386.5,-239 386.5,-220 441.5,-220 441.5,-239"/>
<text text-anchor="middle" x="414" y="-227" font-family="Helvetica,sans-Serif" font-size="10.00">QMutex</text>
</a>
</g>
</g>
<!-- Node13&#45;&gt;Node17 -->
<g id="edge30_Node000013_Node000017" class="edge">
<title>Node13&#45;&gt;Node17</title>
<g id="a_edge30_Node000013_Node000017"><a xlink:title=" ">
<path fill="none" stroke="#63b8ff" d="M476.95,-274.98C465.54,-266.92 448.17,-254.65 434.57,-245.03"/>
<polygon fill="#63b8ff" stroke="#63b8ff" points="436.46,-242.08 426.27,-239.17 432.42,-247.8 436.46,-242.08"/>
</a>
</g>
</g>
<!-- Node18 -->
<g id="Node000018" class="node">
<title>Node18</title>
<g id="a_Node000018"><a xlink:title=" ">
<polygon fill="#e0e0e0" stroke="#999999" points="292,-239 236,-239 236,-220 292,-220 292,-239"/>
<text text-anchor="middle" x="264" y="-227" font-family="Helvetica,sans-Serif" font-size="10.00">QQueue</text>
</a>
</g>
</g>
<!-- Node13&#45;&gt;Node18 -->
<g id="edge31_Node000013_Node000018" class="edge">
<title>Node13&#45;&gt;Node18</title>
<g id="a_edge31_Node000013_Node000018"><a xlink:title=" ">
<path fill="none" stroke="#63b8ff" d="M452.85,-274.98C411.54,-265.25 344.21,-249.39 302.1,-239.47"/>
<polygon fill="#63b8ff" stroke="#63b8ff" points="302.76,-236.03 292.23,-237.15 301.16,-242.85 302.76,-236.03"/>
</a>
</g>
</g>
<!-- Node19 -->
<g id="Node000019" class="node">
<title>Node19</title>
<g id="a_Node000019"><a xlink:title=" ">
<polygon fill="#e0e0e0" stroke="#999999" points="368,-239 310,-239 310,-220 368,-220 368,-239"/>
<text text-anchor="middle" x="339" y="-227" font-family="Helvetica,sans-Serif" font-size="10.00">QThread</text>
</a>
</g>
</g>
<!-- Node13&#45;&gt;Node19 -->
<g id="edge33_Node000013_Node000019" class="edge">
<title>Node13&#45;&gt;Node19</title>
<g id="a_edge33_Node000013_Node000019"><a xlink:title=" ">
<path fill="none" stroke="#63b8ff" d="M464.9,-274.98C440.12,-266.23 401.3,-252.51 373.31,-242.62"/>
<polygon fill="#63b8ff" stroke="#63b8ff" points="374.13,-239.2 363.54,-239.17 371.8,-245.8 374.13,-239.2"/>
</a>
</g>
</g>
<!-- Node20 -->
<g id="Node000020" class="node">
<title>Node20</title>
<g id="a_Node000020"><a xlink:title=" ">
<polygon fill="#e0e0e0" stroke="#999999" points="218,-239 126,-239 126,-220 218,-220 218,-239"/>
<text text-anchor="middle" x="172" y="-227" font-family="Helvetica,sans-Serif" font-size="10.00">QWaitCondition</text>
</a>
</g>
</g>
<!-- Node13&#45;&gt;Node20 -->
<g id="edge34_Node000013_Node000020" class="edge">
<title>Node13&#45;&gt;Node20</title>
<g id="a_edge34_Node000013_Node000020"><a xlink:title=" ">
<path fill="none" stroke="#63b8ff" d="M438.07,-274.98C380.66,-265.39 287.6,-249.83 228.14,-239.89"/>
<polygon fill="#63b8ff" stroke="#63b8ff" points="228.61,-236.42 218.17,-238.22 227.45,-243.32 228.61,-236.42"/>
</a>
</g>
</g>
<!-- Node14&#45;&gt;Node3 -->
<g id="edge26_Node000014_Node000003" class="edge">
<title>Node14&#45;&gt;Node3</title>
<g id="a_edge26_Node000014_Node000003"><a xlink:title=" ">
<path fill="none" stroke="#63b8ff" d="M843.84,-219.95C843.26,-187.95 841.18,-74.68 840.35,-29.4"/>
<polygon fill="#63b8ff" stroke="#63b8ff" points="843.84,-29.16 840.16,-19.22 836.84,-29.29 843.84,-29.16"/>
</a>
</g>
</g>
<!-- Node14&#45;&gt;Node7 -->
<g id="edge24_Node000014_Node000007" class="edge">
<title>Node14&#45;&gt;Node7</title>
<g id="a_edge24_Node000014_Node000007"><a xlink:title=" ">
<path fill="none" stroke="#63b8ff" d="M848.75,-219.66C858.31,-201.85 880.05,-161.37 892.6,-138.01"/>
<polygon fill="#63b8ff" stroke="#63b8ff" points="895.7,-139.62 897.35,-129.16 889.54,-136.31 895.7,-139.62"/>
</a>
</g>
</g>
<!-- Node14&#45;&gt;Node9 -->
<g id="edge23_Node000014_Node000009" class="edge">
<title>Node14&#45;&gt;Node9</title>
<g id="a_edge23_Node000014_Node000009"><a xlink:title=" ">
<path fill="none" stroke="#63b8ff" d="M871.15,-219.98C899.53,-211.09 944.23,-197.07 975.86,-187.15"/>
<polygon fill="#63b8ff" stroke="#63b8ff" points="977.14,-190.41 985.63,-184.08 975.05,-183.73 977.14,-190.41"/>
</a>
</g>
</g>
<!-- Node14&#45;&gt;Node10 -->
<g id="edge25_Node000014_Node000010" class="edge">
<title>Node14&#45;&gt;Node10</title>
<g id="a_edge25_Node000014_Node000010"><a xlink:title=" ">
<path fill="none" stroke="#63b8ff" d="M859.95,-219.84C894.6,-201.04 976.98,-156.33 1018.37,-133.87"/>
<polygon fill="#63b8ff" stroke="#63b8ff" points="1020.13,-136.89 1027.25,-129.05 1016.79,-130.74 1020.13,-136.89"/>
</a>
</g>
</g>
<!-- Node21&#45;&gt;Node2 -->
<g id="edge37_Node000021_Node000002" class="edge">
<title>Node21&#45;&gt;Node2</title>
<g id="a_edge37_Node000021_Node000002"><a xlink:title=" ">
<path fill="none" stroke="#63b8ff" d="M294.43,-281.05C236.18,-276.82 138.99,-265.83 117,-239 111.65,-232.47 111.85,-226.69 117,-220 184.22,-132.76 533.44,-84.88 658.44,-70.33"/>
<polygon fill="#63b8ff" stroke="#63b8ff" points="658.9,-73.8 668.44,-69.18 658.1,-66.84 658.9,-73.8"/>
</a>
</g>
</g>
<!-- Node21&#45;&gt;Node14 -->
<g id="edge36_Node000021_Node000014" class="edge">
<title>Node21&#45;&gt;Node14</title>
<g id="a_edge36_Node000021_Node000014"><a xlink:title=" ">
<path fill="none" stroke="#63b8ff" d="M383.82,-278.8C478.84,-268.82 699.78,-245.64 796.84,-235.45"/>
<polygon fill="#63b8ff" stroke="#63b8ff" points="797.36,-238.91 806.94,-234.39 796.63,-231.95 797.36,-238.91"/>
</a>
</g>
</g>
<!-- Node21&#45;&gt;Node15 -->
<g id="edge38_Node000021_Node000015" class="edge">
<title>Node21&#45;&gt;Node15</title>
<g id="a_edge38_Node000021_Node000015"><a xlink:title=" ">
<path fill="none" stroke="#63b8ff" d="M376.44,-274.98C417.25,-265.7 482.58,-250.84 526.37,-240.88"/>
<polygon fill="#63b8ff" stroke="#63b8ff" points="527.21,-244.28 536.19,-238.65 525.66,-237.45 527.21,-244.28"/>
</a>
</g>
</g>
<!-- Node21&#45;&gt;Node17 -->
<g id="edge40_Node000021_Node000017" class="edge">
<title>Node21&#45;&gt;Node17</title>
<g id="a_edge40_Node000021_Node000017"><a xlink:title=" ">
<path fill="none" stroke="#63b8ff" d="M351.05,-274.98C362.46,-266.92 379.83,-254.65 393.43,-245.03"/>
<polygon fill="#63b8ff" stroke="#63b8ff" points="395.58,-247.8 401.73,-239.17 391.54,-242.08 395.58,-247.8"/>
</a>
</g>
</g>
<!-- Node21&#45;&gt;Node18 -->
<g id="edge41_Node000021_Node000018" class="edge">
<title>Node21&#45;&gt;Node18</title>
<g id="a_edge41_Node000021_Node000018"><a xlink:title=" ">
<path fill="none" stroke="#63b8ff" d="M326.95,-274.98C315.54,-266.92 298.17,-254.65 284.57,-245.03"/>
<polygon fill="#63b8ff" stroke="#63b8ff" points="286.46,-242.08 276.27,-239.17 282.42,-247.8 286.46,-242.08"/>
</a>
</g>
</g>
<!-- Node21&#45;&gt;Node19 -->
<g id="edge42_Node000021_Node000019" class="edge">
<title>Node21&#45;&gt;Node19</title>
<g id="a_edge42_Node000021_Node000019"><a xlink:title=" ">
<path fill="none" stroke="#63b8ff" d="M339,-274.75C339,-267.8 339,-257.85 339,-249.13"/>
<polygon fill="#63b8ff" stroke="#63b8ff" points="342.5,-249.09 339,-239.09 335.5,-249.09 342.5,-249.09"/>
</a>
</g>
</g>
<!-- Node21&#45;&gt;Node20 -->
<g id="edge43_Node000021_Node000020" class="edge">
<title>Node21&#45;&gt;Node20</title>
<g id="a_edge43_Node000021_Node000020"><a xlink:title=" ">
<path fill="none" stroke="#63b8ff" d="M312.17,-274.98C284.13,-266.09 239.95,-252.07 208.7,-242.15"/>
<polygon fill="#63b8ff" stroke="#63b8ff" points="209.63,-238.77 199.04,-239.08 207.51,-245.44 209.63,-238.77"/>
</a>
</g>
</g>
<!-- Node22 -->
<g id="Node000022" class="node">
<title>Node22</title>
<g id="a_Node000022"><a xlink:title=" ">
<polygon fill="#e0e0e0" stroke="#999999" points="69.5,-239 28.5,-239 28.5,-220 69.5,-220 69.5,-239"/>
<text text-anchor="middle" x="49" y="-227" font-family="Helvetica,sans-Serif" font-size="10.00">QFile</text>
</a>
</g>
</g>
<!-- Node21&#45;&gt;Node22 -->
<g id="edge39_Node000021_Node000022" class="edge">
<title>Node21&#45;&gt;Node22</title>
<g id="a_edge39_Node000021_Node000022"><a xlink:title=" ">
<path fill="none" stroke="#63b8ff" d="M294.15,-276.58C243.09,-268.5 157.25,-254.27 84,-239 82.55,-238.7 81.06,-238.38 79.56,-238.05"/>
<polygon fill="#63b8ff" stroke="#63b8ff" points="80.21,-234.6 69.68,-235.76 78.63,-241.42 80.21,-234.6"/>
</a>
</g>
</g>
<!-- Node23&#45;&gt;Node2 -->
<g id="edge48_Node000023_Node000002" class="edge">
<title>Node23&#45;&gt;Node2</title>
<g id="a_edge48_Node000023_Node000002"><a xlink:title=" ">
<path fill="none" stroke="#63b8ff" d="M932.87,-282.37C897.49,-279.59 837.62,-270.22 798,-239 771.01,-217.73 728.17,-123.69 710.75,-83.65"/>
<polygon fill="#63b8ff" stroke="#63b8ff" points="713.89,-82.1 706.71,-74.3 707.46,-84.87 713.89,-82.1"/>
</a>
</g>
</g>
<!-- Node23&#45;&gt;Node4 -->
<g id="edge49_Node000023_Node000004" class="edge">
<title>Node23&#45;&gt;Node4</title>
<g id="a_edge49_Node000023_Node000004"><a xlink:title=" ">
<path fill="none" stroke="#63b8ff" d="M991.34,-283.34C1102.17,-282.44 1490.97,-276.63 1530,-239 1572.15,-198.36 1562.09,-120.31 1554.6,-84.41"/>
<polygon fill="#63b8ff" stroke="#63b8ff" points="1557.95,-83.33 1552.33,-74.34 1551.12,-84.87 1557.95,-83.33"/>
</a>
</g>
</g>
<!-- Node23&#45;&gt;Node7 -->
<g id="edge50_Node000023_Node000007" class="edge">
<title>Node23&#45;&gt;Node7</title>
<g id="a_edge50_Node000023_Node000007"><a xlink:title=" ">
<path fill="none" stroke="#63b8ff" d="M958.77,-274.74C949.33,-249.09 921.61,-173.78 908.73,-138.78"/>
<polygon fill="#63b8ff" stroke="#63b8ff" points="911.98,-137.48 905.24,-129.31 905.41,-139.9 911.98,-137.48"/>
</a>
</g>
</g>
<!-- Node23&#45;&gt;Node9 -->
<g id="edge47_Node000023_Node000009" class="edge">
<title>Node23&#45;&gt;Node9</title>
<g id="a_edge47_Node000023_Node000009"><a xlink:title=" ">
<path fill="none" stroke="#63b8ff" d="M960.62,-274.79C959.02,-262.09 957.57,-238.01 966,-220 971.53,-208.19 981.7,-197.95 991.17,-190.27"/>
<polygon fill="#63b8ff" stroke="#63b8ff" points="993.31,-193.04 999.17,-184.22 989.09,-187.46 993.31,-193.04"/>
</a>
</g>
</g>
<!-- Node23&#45;&gt;Node10 -->
<g id="edge57_Node000023_Node000010" class="edge">
<title>Node23&#45;&gt;Node10</title>
<g id="a_edge57_Node000023_Node000010"><a xlink:title=" ">
<path fill="none" stroke="#63b8ff" d="M991.13,-282.15C1074.01,-278.01 1306.65,-264.22 1329,-239 1397.75,-161.41 1200.56,-133.47 1099.13,-124.41"/>
<polygon fill="#63b8ff" stroke="#63b8ff" points="1099.3,-120.91 1089.03,-123.54 1098.7,-127.89 1099.3,-120.91"/>
</a>
</g>
</g>
<!-- Node23&#45;&gt;Node14 -->
<g id="edge46_Node000023_Node000014" class="edge">
<title>Node23&#45;&gt;Node14</title>
<g id="a_edge46_Node000023_Node000014"><a xlink:title=" ">
<path fill="none" stroke="#63b8ff" d="M943.04,-274.98C923.97,-266.42 894.34,-253.11 872.45,-243.28"/>
<polygon fill="#63b8ff" stroke="#63b8ff" points="873.86,-240.07 863.3,-239.17 870.99,-246.46 873.86,-240.07"/>
</a>
</g>
</g>
<!-- Node23&#45;&gt;Node15 -->
<g id="edge51_Node000023_Node000015" class="edge">
<title>Node23&#45;&gt;Node15</title>
<g id="a_edge51_Node000023_Node000015"><a xlink:title=" ">
<path fill="none" stroke="#63b8ff" d="M932.75,-280.37C874.61,-274.01 740.24,-258.63 617.46,-239.15"/>
<polygon fill="#63b8ff" stroke="#63b8ff" points="617.93,-235.68 607.51,-237.56 616.83,-242.59 617.93,-235.68"/>
</a>
</g>
</g>
<!-- Node23&#45;&gt;Node16 -->
<g id="edge52_Node000023_Node000016" class="edge">
<title>Node23&#45;&gt;Node16</title>
<g id="a_edge52_Node000023_Node000016"><a xlink:title=" ">
<path fill="none" stroke="#63b8ff" d="M932.93,-278.56C875.3,-268.77 746.79,-246.94 684.79,-236.41"/>
<polygon fill="#63b8ff" stroke="#63b8ff" points="685.16,-232.92 674.72,-234.7 683.99,-239.82 685.16,-232.92"/>
</a>
</g>
</g>
<!-- Node23&#45;&gt;Node17 -->
<g id="edge54_Node000023_Node000017" class="edge">
<title>Node23&#45;&gt;Node17</title>
<g id="a_edge54_Node000023_Node000017"><a xlink:title=" ">
<path fill="none" stroke="#63b8ff" d="M932.92,-280.69C840.72,-271.77 554.89,-244.13 451.67,-234.14"/>
<polygon fill="#63b8ff" stroke="#63b8ff" points="451.98,-230.66 441.69,-233.18 451.31,-237.62 451.98,-230.66"/>
</a>
</g>
</g>
<!-- Node24 -->
<g id="Node000024" class="node">
<title>Node24</title>
<g id="a_Node000024"><a xlink:title=" ">
<polygon fill="#e0e0e0" stroke="#999999" points="1129.5,-239 1088.5,-239 1088.5,-220 1129.5,-220 1129.5,-239"/>
<text text-anchor="middle" x="1109" y="-227" font-family="Helvetica,sans-Serif" font-size="10.00">QList</text>
</a>
</g>
</g>
<!-- Node23&#45;&gt;Node24 -->
<g id="edge53_Node000023_Node000024" class="edge">
<title>Node23&#45;&gt;Node24</title>
<g id="a_edge53_Node000023_Node000024"><a xlink:title=" ">
<path fill="none" stroke="#63b8ff" d="M985.62,-274.98C1010.92,-265.86 1051.14,-251.36 1078.75,-241.41"/>
<polygon fill="#63b8ff" stroke="#63b8ff" points="1080.07,-244.65 1088.29,-237.97 1077.7,-238.07 1080.07,-244.65"/>
</a>
</g>
</g>
<!-- Node25 -->
<g id="Node000025" class="node">
<title>Node25</title>
<g id="a_Node000025"><a xlink:title=" ">
<polygon fill="#e0e0e0" stroke="#999999" points="1204,-239 1148,-239 1148,-220 1204,-220 1204,-239"/>
<text text-anchor="middle" x="1176" y="-227" font-family="Helvetica,sans-Serif" font-size="10.00">QObject</text>
</a>
</g>
</g>
<!-- Node23&#45;&gt;Node25 -->
<g id="edge55_Node000023_Node000025" class="edge">
<title>Node23&#45;&gt;Node25</title>
<g id="a_edge55_Node000023_Node000025"><a xlink:title=" ">
<path fill="none" stroke="#63b8ff" d="M991.31,-276.24C1029.38,-266.81 1095.92,-250.33 1137.88,-239.94"/>
<polygon fill="#63b8ff" stroke="#63b8ff" points="1138.86,-243.3 1147.73,-237.5 1137.18,-236.51 1138.86,-243.3"/>
</a>
</g>
</g>
<!-- Node26 -->
<g id="Node000026" class="node">
<title>Node26</title>
<g id="a_Node000026"><a xlink:title=" ">
<polygon fill="#e0e0e0" stroke="#999999" points="1320,-239 1222,-239 1222,-220 1320,-220 1320,-239"/>
<text text-anchor="middle" x="1271" y="-227" font-family="Helvetica,sans-Serif" font-size="10.00">QReadWriteLock</text>
</a>
</g>
</g>
<!-- Node23&#45;&gt;Node26 -->
<g id="edge56_Node000023_Node000026" class="edge">
<title>Node23&#45;&gt;Node26</title>
<g id="a_edge56_Node000023_Node000026"><a xlink:title=" ">
<path fill="none" stroke="#63b8ff" d="M991.07,-278.51C1041.44,-269.87 1145.89,-251.96 1211.98,-240.62"/>
<polygon fill="#63b8ff" stroke="#63b8ff" points="1212.58,-244.07 1221.85,-238.93 1211.4,-237.17 1212.58,-244.07"/>
</a>
</g>
</g>
<!-- Node27 -->
<g id="Node000027" class="node">
<title>Node27</title>
<g id="a_Node000027"><a xlink:title=" ">
<polygon fill="#e0e0e0" stroke="#999999" points="1070.5,-239 975.5,-239 975.5,-220 1070.5,-220 1070.5,-239"/>
<text text-anchor="middle" x="1023" y="-227" font-family="Helvetica,sans-Serif" font-size="10.00">QThreadStorage</text>
</a>
</g>
</g>
<!-- Node23&#45;&gt;Node27 -->
<g id="edge58_Node000023_Node000027" class="edge">
<title>Node23&#45;&gt;Node27</title>
<g id="a_edge58_Node000023_Node000027"><a xlink:title=" ">
<path fill="none" stroke="#63b8ff" d="M971.8,-274.98C980.82,-267.15 994.41,-255.34 1005.32,-245.86"/>
<polygon fill="#63b8ff" stroke="#63b8ff" points="1007.77,-248.37 1013.02,-239.17 1003.18,-243.09 1007.77,-248.37"/>
</a>
</g>
</g>
<!-- Node28&#45;&gt;Node2 -->
<g id="edge60_Node000028_Node000002" class="edge">
<title>Node28&#45;&gt;Node2</title>
<g id="a_edge60_Node000028_Node000002"><a xlink:title=" ">
<path fill="none" stroke="#63b8ff" d="M895.89,-329.98C869.47,-314.54 814.25,-279.7 778,-239 736.23,-192.11 715,-118.37 706.94,-84.13"/>
<polygon fill="#63b8ff" stroke="#63b8ff" points="710.3,-83.12 704.7,-74.12 703.47,-84.65 710.3,-83.12"/>
</a>
</g>
</g>
<!-- Node28&#45;&gt;Node4 -->
<g id="edge61_Node000028_Node000004" class="edge">
<title>Node28&#45;&gt;Node4</title>
<g id="a_edge61_Node000028_Node000004"><a xlink:title=" ">
<path fill="none" stroke="#63b8ff" d="M950.32,-336.41C1094.81,-328.22 1588,-295.52 1588,-230.5 1588,-230.5 1588,-230.5 1588,-173.5 1588,-144.6 1584.07,-137.09 1574,-110 1570.52,-100.64 1565.4,-90.81 1560.77,-82.78"/>
<polygon fill="#63b8ff" stroke="#63b8ff" points="1563.67,-80.81 1555.53,-74.03 1557.67,-84.4 1563.67,-80.81"/>
</a>
</g>
</g>
<!-- Node28&#45;&gt;Node23 -->
<g id="edge62_Node000028_Node000023" class="edge">
<title>Node28&#45;&gt;Node23</title>
<g id="a_edge62_Node000028_Node000023"><a xlink:title=" ">
<path fill="none" stroke="#63b8ff" d="M919.42,-329.75C926.77,-322.11 937.63,-310.82 946.54,-301.56"/>
<polygon fill="#63b8ff" stroke="#63b8ff" points="949.32,-303.72 953.74,-294.09 944.28,-298.87 949.32,-303.72"/>
</a>
</g>
</g>
<!-- Node29&#45;&gt;Node6 -->
<g id="edge67_Node000029_Node000006" class="edge">
<title>Node29&#45;&gt;Node6</title>
<g id="a_edge67_Node000029_Node000006"><a xlink:title=" ">
<path fill="none" stroke="#63b8ff" d="M1013.21,-389.99C1147.88,-378.66 1534.79,-337.88 1602,-239 1646.78,-173.13 1614.65,-70.24 1598.63,-28.75"/>
<polygon fill="#63b8ff" stroke="#63b8ff" points="1601.84,-27.36 1594.87,-19.38 1595.34,-29.96 1601.84,-27.36"/>
</a>
</g>
</g>
<!-- Node29&#45;&gt;Node15 -->
<g id="edge66_Node000029_Node000015" class="edge">
<title>Node29&#45;&gt;Node15</title>
<g id="a_edge66_Node000029_Node000015"><a xlink:title=" ">
<path fill="none" stroke="#63b8ff" d="M946.32,-384.97C881.15,-358.07 679.8,-274.98 602.58,-243.12"/>
<polygon fill="#63b8ff" stroke="#63b8ff" points="603.53,-239.73 592.95,-239.15 600.86,-246.2 603.53,-239.73"/>
</a>
</g>
</g>
<!-- Node29&#45;&gt;Node23 -->
<g id="edge65_Node000029_Node000023" class="edge">
<title>Node29&#45;&gt;Node23</title>
<g id="a_edge65_Node000029_Node000023"><a xlink:title=" ">
<path fill="none" stroke="#63b8ff" d="M966.59,-384.66C965.78,-367.17 963.96,-327.8 962.87,-304.27"/>
<polygon fill="#63b8ff" stroke="#63b8ff" points="966.36,-303.99 962.4,-294.16 959.37,-304.31 966.36,-303.99"/>
</a>
</g>
</g>
<!-- Node29&#45;&gt;Node28 -->
<g id="edge64_Node000029_Node000028" class="edge">
<title>Node29&#45;&gt;Node28</title>
<g id="a_edge64_Node000029_Node000028"><a xlink:title=" ">
<path fill="none" stroke="#63b8ff" d="M958,-384.98C949.81,-377.23 937.49,-365.58 927.53,-356.14"/>
<polygon fill="#63b8ff" stroke="#63b8ff" points="929.83,-353.5 920.16,-349.17 925.02,-358.59 929.83,-353.5"/>
</a>
</g>
</g>
</g>
</svg>
