<?xml version="1.0" encoding="UTF-8" standalone="no"?>
<!DOCTYPE svg PUBLIC "-//W3C//DTD SVG 1.1//EN"
 "http://www.w3.org/Graphics/SVG/1.1/DTD/svg11.dtd">
<!-- Generated by graphviz version 2.43.0 (0)
 -->
<!-- Title: utils/logging/Log.h Pages: 1 -->
<svg width="1672pt" height="467pt"
 viewBox="0.00 0.00 1672.00 467.00" xmlns="http://www.w3.org/2000/svg" xmlns:xlink="http://www.w3.org/1999/xlink">
<g id="graph0" class="graph" transform="scale(1 1) rotate(0) translate(4 463)">
<title>utils/logging/Log.h</title>
<!-- Node1 -->
<g id="Node000001" class="node">
<title>Node1</title>
<g id="a_Node000001"><a xlink:title="EasyKiConverter 日志系统统一入口">
<polygon fill="#999999" stroke="#666666" points="997,-459 891,-459 891,-440 997,-440 997,-459"/>
<text text-anchor="middle" x="944" y="-447" font-family="Helvetica,sans-Serif" font-size="10.00">utils/logging/Log.h</text>
</a>
</g>
</g>
<!-- Node2 -->
<g id="Node000002" class="node">
<title>Node2</title>
<g id="a_Node000002"><a xlink:href="LogLevel_8h.html" target="_top" xlink:title=" ">
<polygon fill="white" stroke="#666666" points="737.5,-74 668.5,-74 668.5,-55 737.5,-55 737.5,-74"/>
<text text-anchor="middle" x="703" y="-62" font-family="Helvetica,sans-Serif" font-size="10.00">LogLevel.h</text>
</a>
</g>
</g>
<!-- Node1&#45;&gt;Node2 -->
<g id="edge1_Node000001_Node000002" class="edge">
<title>Node1&#45;&gt;Node2</title>
<g id="a_edge1_Node000001_Node000002"><a xlink:title=" ">
<path fill="none" stroke="#63b8ff" d="M890.88,-448.05C691.63,-445.66 0,-430.87 0,-340.5 0,-340.5 0,-340.5 0,-173.5 0,-106.66 502.91,-75.63 658.01,-67.64"/>
<polygon fill="#63b8ff" stroke="#63b8ff" points="658.33,-71.13 668.14,-67.13 657.97,-64.14 658.33,-71.13"/>
</a>
</g>
</g>
<!-- Node4 -->
<g id="Node000004" class="node">
<title>Node4</title>
<g id="a_Node000004"><a xlink:href="LogModule_8h.html" target="_top" xlink:title=" ">
<polygon fill="white" stroke="#666666" points="1589.5,-74 1510.5,-74 1510.5,-55 1589.5,-55 1589.5,-74"/>
<text text-anchor="middle" x="1550" y="-62" font-family="Helvetica,sans-Serif" font-size="10.00">LogModule.h</text>
</a>
</g>
</g>
<!-- Node1&#45;&gt;Node4 -->
<g id="edge3_Node000001_Node000004" class="edge">
<title>Node1&#45;&gt;Node4</title>
<g id="a_edge3_Node000001_Node000004"><a xlink:title=" ">
<path fill="none" stroke="#63b8ff" d="M997.24,-446.12C1163.8,-437.98 1664,-407.93 1664,-340.5 1664,-340.5 1664,-340.5 1664,-173.5 1664,-127.47 1614.42,-95.18 1580.65,-78.53"/>
<polygon fill="#63b8ff" stroke="#63b8ff" points="1581.71,-75.16 1571.18,-74.05 1578.72,-81.49 1581.71,-75.16"/>
</a>
</g>
</g>
<!-- Node7 -->
<g id="Node000007" class="node">
<title>Node7</title>
<g id="a_Node000007"><a xlink:href="LogRecord_8h.html" target="_top" xlink:title=" ">
<polygon fill="white" stroke="#666666" points="1224.5,-129 1147.5,-129 1147.5,-110 1224.5,-110 1224.5,-129"/>
<text text-anchor="middle" x="1186" y="-117" font-family="Helvetica,sans-Serif" font-size="10.00">LogRecord.h</text>
</a>
</g>
</g>
<!-- Node1&#45;&gt;Node7 -->
<g id="edge7_Node000001_Node000007" class="edge">
<title>Node1&#45;&gt;Node7</title>
<g id="a_edge7_Node000001_Node000007"><a xlink:title=" ">
<path fill="none" stroke="#63b8ff" d="M997.32,-446.64C1114.87,-441.08 1386,-419.69 1386,-340.5 1386,-340.5 1386,-340.5 1386,-283.5 1386,-201.14 1282.83,-153 1224.69,-132.42"/>
<polygon fill="#63b8ff" stroke="#63b8ff" points="1225.68,-129.05 1215.08,-129.12 1223.4,-135.67 1225.68,-129.05"/>
</a>
</g>
</g>
<!-- Node9 -->
<g id="Node000009" class="node">
<title>Node9</title>
<g id="a_Node000009"><a xlink:href="IFormatter_8h.html" target="_top" xlink:title=" ">
<polygon fill="white" stroke="#666666" points="1035,-184 959,-184 959,-165 1035,-165 1035,-184"/>
<text text-anchor="middle" x="997" y="-172" font-family="Helvetica,sans-Serif" font-size="10.00">IFormatter.h</text>
</a>
</g>
</g>
<!-- Node1&#45;&gt;Node9 -->
<g id="edge13_Node000001_Node000009" class="edge">
<title>Node1&#45;&gt;Node9</title>
<g id="a_edge13_Node000001_Node000009"><a xlink:title=" ">
<path fill="none" stroke="#63b8ff" d="M997.23,-445.42C1106.93,-437.61 1348,-412.29 1348,-340.5 1348,-340.5 1348,-340.5 1348,-283.5 1348,-245.28 1323.71,-238.01 1290,-220 1248.58,-197.87 1117.28,-184.68 1045.32,-178.92"/>
<polygon fill="#63b8ff" stroke="#63b8ff" points="1045.39,-175.42 1035.15,-178.13 1044.85,-182.4 1045.39,-175.42"/>
</a>
</g>
</g>
<!-- Node11 -->
<g id="Node000011" class="node">
<title>Node11</title>
<g id="a_Node000011"><a xlink:href="PatternFormatter_8h.html" target="_top" xlink:title=" ">
<polygon fill="white" stroke="#666666" points="1521.5,-239 1414.5,-239 1414.5,-220 1521.5,-220 1521.5,-239"/>
<text text-anchor="middle" x="1468" y="-227" font-family="Helvetica,sans-Serif" font-size="10.00">PatternFormatter.h</text>
</a>
</g>
</g>
<!-- Node1&#45;&gt;Node11 -->
<g id="edge17_Node000001_Node000011" class="edge">
<title>Node1&#45;&gt;Node11</title>
<g id="a_edge17_Node000001_Node000011"><a xlink:title=" ">
<path fill="none" stroke="#63b8ff" d="M997.06,-446.41C1110.4,-441.52 1368.43,-427.86 1400,-404 1450.07,-366.15 1463.3,-286.03 1466.78,-249.44"/>
<polygon fill="#63b8ff" stroke="#63b8ff" points="1470.29,-249.44 1467.6,-239.2 1463.31,-248.89 1470.29,-249.44"/>
</a>
</g>
</g>
<!-- Node13 -->
<g id="Node000013" class="node">
<title>Node13</title>
<g id="a_Node000013"><a xlink:href="ConsoleAppender_8h.html" target="_top" xlink:title=" ">
<polygon fill="white" stroke="#666666" points="538,-294 428,-294 428,-275 538,-275 538,-294"/>
<text text-anchor="middle" x="483" y="-282" font-family="Helvetica,sans-Serif" font-size="10.00">ConsoleAppender.h</text>
</a>
</g>
</g>
<!-- Node1&#45;&gt;Node13 -->
<g id="edge21_Node000001_Node000013" class="edge">
<title>Node1&#45;&gt;Node13</title>
<g id="a_edge21_Node000001_Node000013"><a xlink:title=" ">
<path fill="none" stroke="#63b8ff" d="M916.19,-439.98C888.05,-431.27 843.34,-417.18 805,-404 697.92,-367.18 572.33,-319.7 514.75,-297.7"/>
<polygon fill="#63b8ff" stroke="#63b8ff" points="515.73,-294.32 505.13,-294.02 513.22,-300.86 515.73,-294.32"/>
</a>
</g>
</g>
<!-- Node14 -->
<g id="Node000014" class="node">
<title>Node14</title>
<g id="a_Node000014"><a xlink:href="IAppender_8h.html" target="_top" xlink:title=" ">
<polygon fill="white" stroke="#666666" points="843,-239 769,-239 769,-220 843,-220 843,-239"/>
<text text-anchor="middle" x="806" y="-227" font-family="Helvetica,sans-Serif" font-size="10.00">IAppender.h</text>
</a>
</g>
</g>
<!-- Node1&#45;&gt;Node14 -->
<g id="edge44_Node000001_Node000014" class="edge">
<title>Node1&#45;&gt;Node14</title>
<g id="a_edge44_Node000001_Node000014"><a xlink:title=" ">
<path fill="none" stroke="#63b8ff" d="M936.93,-439.85C929.83,-431.04 918.73,-416.87 910,-404 872.46,-348.67 833.23,-279.67 815.59,-247.94"/>
<polygon fill="#63b8ff" stroke="#63b8ff" points="818.56,-246.07 810.65,-239.01 812.43,-249.46 818.56,-246.07"/>
</a>
</g>
</g>
<!-- Node21 -->
<g id="Node000021" class="node">
<title>Node21</title>
<g id="a_Node000021"><a xlink:href="FileAppender_8h.html" target="_top" xlink:title=" ">
<polygon fill="white" stroke="#666666" points="383.5,-294 294.5,-294 294.5,-275 383.5,-275 383.5,-294"/>
<text text-anchor="middle" x="339" y="-282" font-family="Helvetica,sans-Serif" font-size="10.00">FileAppender.h</text>
</a>
</g>
</g>
<!-- Node1&#45;&gt;Node21 -->
<g id="edge35_Node000001_Node000021" class="edge">
<title>Node1&#45;&gt;Node21</title>
<g id="a_edge35_Node000001_Node000021"><a xlink:title=" ">
<path fill="none" stroke="#63b8ff" d="M904.3,-440C865.17,-431.46 803.76,-417.66 751,-404 612.28,-368.08 449.18,-319.17 376.84,-297.12"/>
<polygon fill="#63b8ff" stroke="#63b8ff" points="377.42,-293.64 366.83,-294.06 375.38,-300.33 377.42,-293.64"/>
</a>
</g>
</g>
<!-- Node23 -->
<g id="Node000023" class="node">
<title>Node23</title>
<g id="a_Node000023"><a xlink:href="Logger_8h.html" target="_top" xlink:title=" ">
<polygon fill="white" stroke="#666666" points="959,-294 901,-294 901,-275 959,-275 959,-294"/>
<text text-anchor="middle" x="930" y="-282" font-family="Helvetica,sans-Serif" font-size="10.00">Logger.h</text>
</a>
</g>
</g>
<!-- Node1&#45;&gt;Node23 -->
<g id="edge45_Node000001_Node000023" class="edge">
<title>Node1&#45;&gt;Node23</title>
<g id="a_edge45_Node000001_Node000023"><a xlink:title=" ">
<path fill="none" stroke="#63b8ff" d="M939.05,-439.81C929.75,-422.96 910,-384.37 903,-349 901.36,-340.72 900.73,-338.13 903,-330 905.76,-320.12 911.39,-310.25 916.79,-302.32"/>
<polygon fill="#63b8ff" stroke="#63b8ff" points="919.78,-304.17 922.85,-294.03 914.13,-300.04 919.78,-304.17"/>
</a>
</g>
</g>
<!-- Node28 -->
<g id="Node000028" class="node">
<title>Node28</title>
<g id="a_Node000028"><a xlink:href="LogMacros_8h.html" target="_top" xlink:title=" ">
<polygon fill="white" stroke="#666666" points="990,-349 912,-349 912,-330 990,-330 990,-349"/>
<text text-anchor="middle" x="951" y="-337" font-family="Helvetica,sans-Serif" font-size="10.00">LogMacros.h</text>
</a>
</g>
</g>
<!-- Node1&#45;&gt;Node28 -->
<g id="edge59_Node000001_Node000028" class="edge">
<title>Node1&#45;&gt;Node28</title>
<g id="a_edge59_Node000001_Node000028"><a xlink:title=" ">
<path fill="none" stroke="#63b8ff" d="M944.57,-439.66C945.71,-422.17 948.26,-382.8 949.78,-359.27"/>
<polygon fill="#63b8ff" stroke="#63b8ff" points="953.28,-359.36 950.44,-349.16 946.3,-358.91 953.28,-359.36"/>
</a>
</g>
</g>
<!-- Node29 -->
<g id="Node000029" class="node">
<title>Node29</title>
<g id="a_Node000029"><a xlink:href="QtLogAdapter_8h.html" target="_top" xlink:title=" ">
<polygon fill="white" stroke="#666666" points="1064,-404 972,-404 972,-385 1064,-385 1064,-404"/>
<text text-anchor="middle" x="1018" y="-392" font-family="Helvetica,sans-Serif" font-size="10.00">QtLogAdapter.h</text>
</a>
</g>
</g>
<!-- Node1&#45;&gt;Node29 -->
<g id="edge63_Node000001_Node000029" class="edge">
<title>Node1&#45;&gt;Node29</title>
<g id="a_edge63_Node000001_Node000029"><a xlink:title=" ">
<path fill="none" stroke="#63b8ff" d="M955.89,-439.98C967.15,-431.92 984.29,-419.65 997.71,-410.03"/>
<polygon fill="#63b8ff" stroke="#63b8ff" points="999.8,-412.84 1005.89,-404.17 995.73,-407.15 999.8,-412.84"/>
</a>
</g>
</g>
<!-- Node3 -->
<g id="Node000003" class="node">
<title>Node3</title>
<g id="a_Node000003"><a xlink:title=" ">
<polygon fill="#e0e0e0" stroke="#999999" points="1023.5,-19 970.5,-19 970.5,0 1023.5,0 1023.5,-19"/>
<text text-anchor="middle" x="997" y="-7" font-family="Helvetica,sans-Serif" font-size="10.00">QString</text>
</a>
</g>
</g>
<!-- Node2&#45;&gt;Node3 -->
<g id="edge2_Node000002_Node000003" class="edge">
<title>Node2&#45;&gt;Node3</title>
<g id="a_edge2_Node000002_Node000003"><a xlink:title=" ">
<path fill="none" stroke="#63b8ff" d="M737.59,-57.26C793.46,-47.19 903.08,-27.43 960.28,-17.12"/>
<polygon fill="#63b8ff" stroke="#63b8ff" points="961.11,-20.53 970.33,-15.31 959.87,-13.64 961.11,-20.53"/>
</a>
</g>
</g>
<!-- Node4&#45;&gt;Node3 -->
<g id="edge4_Node000004_Node000003" class="edge">
<title>Node4&#45;&gt;Node3</title>
<g id="a_edge4_Node000004_Node000003"><a xlink:title=" ">
<path fill="none" stroke="#63b8ff" d="M1510.23,-59.69C1407.36,-49.83 1133.62,-23.59 1033.95,-14.04"/>
<polygon fill="#63b8ff" stroke="#63b8ff" points="1034.06,-10.54 1023.77,-13.07 1033.39,-17.5 1034.06,-10.54"/>
</a>
</g>
</g>
<!-- Node5 -->
<g id="Node000005" class="node">
<title>Node5</title>
<g id="a_Node000005"><a xlink:title=" ">
<polygon fill="#e0e0e0" stroke="#999999" points="1626,-19 1556,-19 1556,0 1626,0 1626,-19"/>
<text text-anchor="middle" x="1591" y="-7" font-family="Helvetica,sans-Serif" font-size="10.00">QStringList</text>
</a>
</g>
</g>
<!-- Node4&#45;&gt;Node5 -->
<g id="edge5_Node000004_Node000005" class="edge">
<title>Node4&#45;&gt;Node5</title>
<g id="a_edge5_Node000004_Node000005"><a xlink:title=" ">
<path fill="none" stroke="#63b8ff" d="M1556.77,-54.75C1562.56,-47.26 1571.06,-36.28 1578.14,-27.13"/>
<polygon fill="#63b8ff" stroke="#63b8ff" points="1581.01,-29.14 1584.36,-19.09 1575.47,-24.86 1581.01,-29.14"/>
</a>
</g>
</g>
<!-- Node6 -->
<g id="Node000006" class="node">
<title>Node6</title>
<g id="a_Node000006"><a xlink:title=" ">
<polygon fill="#e0e0e0" stroke="#999999" points="1537.5,-19 1478.5,-19 1478.5,0 1537.5,0 1537.5,-19"/>
<text text-anchor="middle" x="1508" y="-7" font-family="Helvetica,sans-Serif" font-size="10.00">QtGlobal</text>
</a>
</g>
</g>
<!-- Node4&#45;&gt;Node6 -->
<g id="edge6_Node000004_Node000006" class="edge">
<title>Node4&#45;&gt;Node6</title>
<g id="a_edge6_Node000004_Node000006"><a xlink:title=" ">
<path fill="none" stroke="#63b8ff" d="M1543.06,-54.75C1537.13,-47.26 1528.43,-36.28 1521.18,-27.13"/>
<polygon fill="#63b8ff" stroke="#63b8ff" points="1523.76,-24.75 1514.81,-19.09 1518.27,-29.1 1523.76,-24.75"/>
</a>
</g>
</g>
<!-- Node7&#45;&gt;Node2 -->
<g id="edge8_Node000007_Node000002" class="edge">
<title>Node7&#45;&gt;Node2</title>
<g id="a_edge8_Node000007_Node000002"><a xlink:title=" ">
<path fill="none" stroke="#63b8ff" d="M1147.29,-114.25C1058.72,-104.53 841.71,-80.72 747.67,-70.4"/>
<polygon fill="#63b8ff" stroke="#63b8ff" points="747.95,-66.91 737.62,-69.3 747.18,-73.87 747.95,-66.91"/>
</a>
</g>
</g>
<!-- Node7&#45;&gt;Node3 -->
<g id="edge11_Node000007_Node000003" class="edge">
<title>Node7&#45;&gt;Node3</title>
<g id="a_edge11_Node000007_Node000003"><a xlink:title=" ">
<path fill="none" stroke="#63b8ff" d="M1170.85,-109.84C1138.01,-91.08 1060.04,-46.52 1020.64,-24.01"/>
<polygon fill="#63b8ff" stroke="#63b8ff" points="1022.38,-20.97 1011.96,-19.05 1018.9,-27.05 1022.38,-20.97"/>
</a>
</g>
</g>
<!-- Node7&#45;&gt;Node4 -->
<g id="edge9_Node000007_Node000004" class="edge">
<title>Node7&#45;&gt;Node4</title>
<g id="a_edge9_Node000007_Node000004"><a xlink:title=" ">
<path fill="none" stroke="#63b8ff" d="M1224.61,-112.88C1291.1,-103.2 1427.13,-83.39 1500.49,-72.71"/>
<polygon fill="#63b8ff" stroke="#63b8ff" points="1501.02,-76.17 1510.41,-71.26 1500.01,-69.24 1501.02,-76.17"/>
</a>
</g>
</g>
<!-- Node7&#45;&gt;Node6 -->
<g id="edge12_Node000007_Node000006" class="edge">
<title>Node7&#45;&gt;Node6</title>
<g id="a_edge12_Node000007_Node000006"><a xlink:title=" ">
<path fill="none" stroke="#63b8ff" d="M1211.54,-109.94C1268.72,-90.76 1407.17,-44.32 1472.61,-22.37"/>
<polygon fill="#63b8ff" stroke="#63b8ff" points="1474.09,-25.56 1482.46,-19.07 1471.87,-18.93 1474.09,-25.56"/>
</a>
</g>
</g>
<!-- Node8 -->
<g id="Node000008" class="node">
<title>Node8</title>
<g id="a_Node000008"><a xlink:title=" ">
<polygon fill="#e0e0e0" stroke="#999999" points="1222,-74 1150,-74 1150,-55 1222,-55 1222,-74"/>
<text text-anchor="middle" x="1186" y="-62" font-family="Helvetica,sans-Serif" font-size="10.00">QDateTime</text>
</a>
</g>
</g>
<!-- Node7&#45;&gt;Node8 -->
<g id="edge10_Node000007_Node000008" class="edge">
<title>Node7&#45;&gt;Node8</title>
<g id="a_edge10_Node000007_Node000008"><a xlink:title=" ">
<path fill="none" stroke="#63b8ff" d="M1186,-109.75C1186,-102.8 1186,-92.85 1186,-84.13"/>
<polygon fill="#63b8ff" stroke="#63b8ff" points="1189.5,-84.09 1186,-74.09 1182.5,-84.09 1189.5,-84.09"/>
</a>
</g>
</g>
<!-- Node9&#45;&gt;Node3 -->
<g id="edge16_Node000009_Node000003" class="edge">
<title>Node9&#45;&gt;Node3</title>
<g id="a_edge16_Node000009_Node000003"><a xlink:title=" ">
<path fill="none" stroke="#63b8ff" d="M997,-164.74C997,-139.31 997,-65.08 997,-29.69"/>
<polygon fill="#63b8ff" stroke="#63b8ff" points="1000.5,-29.31 997,-19.31 993.5,-29.31 1000.5,-29.31"/>
</a>
</g>
</g>
<!-- Node9&#45;&gt;Node7 -->
<g id="edge14_Node000009_Node000007" class="edge">
<title>Node9&#45;&gt;Node7</title>
<g id="a_edge14_Node000009_Node000007"><a xlink:title=" ">
<path fill="none" stroke="#63b8ff" d="M1027.37,-164.98C1059.37,-156.01 1109.96,-141.82 1145.38,-131.89"/>
<polygon fill="#63b8ff" stroke="#63b8ff" points="1146.71,-135.15 1155.4,-129.08 1144.82,-128.41 1146.71,-135.15"/>
</a>
</g>
</g>
<!-- Node10 -->
<g id="Node000010" class="node">
<title>Node10</title>
<g id="a_Node000010"><a xlink:title=" ">
<polygon fill="#e0e0e0" stroke="#999999" points="939,-129 847,-129 847,-110 939,-110 939,-129"/>
<text text-anchor="middle" x="893" y="-117" font-family="Helvetica,sans-Serif" font-size="10.00">QSharedPointer</text>
</a>
</g>
</g>
<!-- Node9&#45;&gt;Node10 -->
<g id="edge15_Node000009_Node000010" class="edge">
<title>Node9&#45;&gt;Node10</title>
<g id="a_edge15_Node000009_Node000010"><a xlink:title=" ">
<path fill="none" stroke="#63b8ff" d="M980.29,-164.98C963.79,-156.57 938.3,-143.59 919.12,-133.81"/>
<polygon fill="#63b8ff" stroke="#63b8ff" points="920.51,-130.59 910.01,-129.17 917.33,-136.83 920.51,-130.59"/>
</a>
</g>
</g>
<!-- Node11&#45;&gt;Node3 -->
<g id="edge20_Node000011_Node000003" class="edge">
<title>Node11&#45;&gt;Node3</title>
<g id="a_edge20_Node000011_Node000003"><a xlink:title=" ">
<path fill="none" stroke="#63b8ff" d="M1453.31,-219.88C1438.75,-211.21 1415.96,-197.26 1397,-184 1320.43,-130.45 1316.15,-93.46 1231,-55 1165.66,-25.48 1081.48,-15.54 1033.96,-12.19"/>
<polygon fill="#63b8ff" stroke="#63b8ff" points="1034.04,-8.69 1023.83,-11.54 1033.59,-15.67 1034.04,-8.69"/>
</a>
</g>
</g>
<!-- Node11&#45;&gt;Node9 -->
<g id="edge18_Node000011_Node000009" class="edge">
<title>Node11&#45;&gt;Node9</title>
<g id="a_edge18_Node000011_Node000009"><a xlink:title=" ">
<path fill="none" stroke="#63b8ff" d="M1414.43,-222.47C1322.01,-212.07 1134,-190.92 1045.33,-180.94"/>
<polygon fill="#63b8ff" stroke="#63b8ff" points="1045.61,-177.45 1035.28,-179.81 1044.83,-184.4 1045.61,-177.45"/>
</a>
</g>
</g>
<!-- Node12 -->
<g id="Node000012" class="node">
<title>Node12</title>
<g id="a_Node000012"><a xlink:title=" ">
<polygon fill="#e0e0e0" stroke="#999999" points="1521.5,-184 1406.5,-184 1406.5,-165 1521.5,-165 1521.5,-184"/>
<text text-anchor="middle" x="1464" y="-172" font-family="Helvetica,sans-Serif" font-size="10.00">QRegularExpression</text>
</a>
</g>
</g>
<!-- Node11&#45;&gt;Node12 -->
<g id="edge19_Node000011_Node000012" class="edge">
<title>Node11&#45;&gt;Node12</title>
<g id="a_edge19_Node000011_Node000012"><a xlink:title=" ">
<path fill="none" stroke="#63b8ff" d="M1467.34,-219.75C1466.82,-212.8 1466.06,-202.85 1465.41,-194.13"/>
<polygon fill="#63b8ff" stroke="#63b8ff" points="1468.89,-193.8 1464.65,-184.09 1461.91,-194.32 1468.89,-193.8"/>
</a>
</g>
</g>
<!-- Node13&#45;&gt;Node2 -->
<g id="edge27_Node000013_Node000002" class="edge">
<title>Node13&#45;&gt;Node2</title>
<g id="a_edge27_Node000013_Node000002"><a xlink:title=" ">
<path fill="none" stroke="#63b8ff" d="M488.08,-274.8C495.71,-262.09 510.93,-238.02 527,-220 577.92,-162.89 649.08,-106.26 683.21,-80.26"/>
<polygon fill="#63b8ff" stroke="#63b8ff" points="685.56,-82.87 691.43,-74.05 681.34,-77.28 685.56,-82.87"/>
</a>
</g>
</g>
<!-- Node13&#45;&gt;Node3 -->
<g id="edge32_Node000013_Node000003" class="edge">
<title>Node13&#45;&gt;Node3</title>
<g id="a_edge32_Node000013_Node000003"><a xlink:title=" ">
<path fill="none" stroke="#63b8ff" d="M462.63,-274.9C447.42,-267.5 427.23,-255.4 415,-239 397.38,-215.39 396,-204.96 396,-175.5 396,-175.5 396,-175.5 396,-118.5 396,-60.89 829.38,-23.24 960.11,-13.2"/>
<polygon fill="#63b8ff" stroke="#63b8ff" points="960.69,-16.66 970.4,-12.42 960.16,-9.68 960.69,-16.66"/>
</a>
</g>
</g>
<!-- Node13&#45;&gt;Node14 -->
<g id="edge22_Node000013_Node000014" class="edge">
<title>Node13&#45;&gt;Node14</title>
<g id="a_edge22_Node000013_Node000014"><a xlink:title=" ">
<path fill="none" stroke="#63b8ff" d="M534.9,-274.98C596.76,-264.83 699.26,-248.01 758.92,-238.22"/>
<polygon fill="#63b8ff" stroke="#63b8ff" points="759.53,-241.67 768.83,-236.6 758.4,-234.76 759.53,-241.67"/>
</a>
</g>
</g>
<!-- Node15 -->
<g id="Node000015" class="node">
<title>Node15</title>
<g id="a_Node000015"><a xlink:title=" ">
<polygon fill="#e0e0e0" stroke="#999999" points="607.5,-239 536.5,-239 536.5,-220 607.5,-220 607.5,-239"/>
<text text-anchor="middle" x="572" y="-227" font-family="Helvetica,sans-Serif" font-size="10.00">QAtomicInt</text>
</a>
</g>
</g>
<!-- Node13&#45;&gt;Node15 -->
<g id="edge28_Node000013_Node000015" class="edge">
<title>Node13&#45;&gt;Node15</title>
<g id="a_edge28_Node000013_Node000015"><a xlink:title=" ">
<path fill="none" stroke="#63b8ff" d="M497.3,-274.98C511.1,-266.77 532.24,-254.18 548.51,-244.49"/>
<polygon fill="#63b8ff" stroke="#63b8ff" points="550.64,-247.29 557.44,-239.17 547.06,-241.28 550.64,-247.29"/>
</a>
</g>
</g>
<!-- Node16 -->
<g id="Node000016" class="node">
<title>Node16</title>
<g id="a_Node000016"><a xlink:title=" ">
<polygon fill="#e0e0e0" stroke="#999999" points="674.5,-239 625.5,-239 625.5,-220 674.5,-220 674.5,-239"/>
<text text-anchor="middle" x="650" y="-227" font-family="Helvetica,sans-Serif" font-size="10.00">QHash</text>
</a>
</g>
</g>
<!-- Node13&#45;&gt;Node16 -->
<g id="edge29_Node000013_Node000016" class="edge">
<title>Node13&#45;&gt;Node16</title>
<g id="a_edge29_Node000013_Node000016"><a xlink:title=" ">
<path fill="none" stroke="#63b8ff" d="M509.83,-274.98C538.62,-265.85 584.42,-251.31 615.78,-241.36"/>
<polygon fill="#63b8ff" stroke="#63b8ff" points="616.94,-244.66 625.41,-238.3 614.82,-237.99 616.94,-244.66"/>
</a>
</g>
</g>
<!-- Node17 -->
<g id="Node000017" class="node">
<title>Node17</title>
<g id="a_Node000017"><a xlink:title=" ">
<polygon fill="#e0e0e0" stroke="#999999" points="479.5,-239 424.5,-239 424.5,-220 479.5,-220 479.5,-239"/>
<text text-anchor="middle" x="452" y="-227" font-family="Helvetica,sans-Serif" font-size="10.00">QMutex</text>
</a>
</g>
</g>
<!-- Node13&#45;&gt;Node17 -->
<g id="edge30_Node000013_Node000017" class="edge">
<title>Node13&#45;&gt;Node17</title>
<g id="a_edge30_Node000013_Node000017"><a xlink:title=" ">
<path fill="none" stroke="#63b8ff" d="M477.88,-274.75C473.64,-267.49 467.47,-256.95 462.22,-247.98"/>
<polygon fill="#63b8ff" stroke="#63b8ff" points="465.09,-245.95 457.02,-239.09 459.05,-249.49 465.09,-245.95"/>
</a>
</g>
</g>
<!-- Node18 -->
<g id="Node000018" class="node">
<title>Node18</title>
<g id="a_Node000018"><a xlink:title=" ">
<polygon fill="#e0e0e0" stroke="#999999" points="292,-239 236,-239 236,-220 292,-220 292,-239"/>
<text text-anchor="middle" x="264" y="-227" font-family="Helvetica,sans-Serif" font-size="10.00">QQueue</text>
</a>
</g>
</g>
<!-- Node13&#45;&gt;Node18 -->
<g id="edge31_Node000013_Node000018" class="edge">
<title>Node13&#45;&gt;Node18</title>
<g id="a_edge31_Node000013_Node000018"><a xlink:title=" ">
<path fill="none" stroke="#63b8ff" d="M447.81,-274.98C407.91,-265.33 343.07,-249.64 302.03,-239.7"/>
<polygon fill="#63b8ff" stroke="#63b8ff" points="302.68,-236.26 292.14,-237.31 301.03,-243.06 302.68,-236.26"/>
</a>
</g>
</g>
<!-- Node19 -->
<g id="Node000019" class="node">
<title>Node19</title>
<g id="a_Node000019"><a xlink:title=" ">
<polygon fill="#e0e0e0" stroke="#999999" points="368,-239 310,-239 310,-220 368,-220 368,-239"/>
<text text-anchor="middle" x="339" y="-227" font-family="Helvetica,sans-Serif" font-size="10.00">QThread</text>
</a>
</g>
</g>
<!-- Node13&#45;&gt;Node19 -->
<g id="edge33_Node000013_Node000019" class="edge">
<title>Node13&#45;&gt;Node19</title>
<g id="a_edge33_Node000013_Node000019"><a xlink:title=" ">
<path fill="none" stroke="#63b8ff" d="M459.86,-274.98C436.18,-266.27 399.13,-252.63 372.29,-242.75"/>
<polygon fill="#63b8ff" stroke="#63b8ff" points="373.15,-239.34 362.56,-239.17 370.73,-245.91 373.15,-239.34"/>
</a>
</g>
</g>
<!-- Node20 -->
<g id="Node000020" class="node">
<title>Node20</title>
<g id="a_Node000020"><a xlink:title=" ">
<polygon fill="#e0e0e0" stroke="#999999" points="218,-239 126,-239 126,-220 218,-220 218,-239"/>
<text text-anchor="middle" x="172" y="-227" font-family="Helvetica,sans-Serif" font-size="10.00">QWaitCondition</text>
</a>
</g>
</g>
<!-- Node13&#45;&gt;Node20 -->
<g id="edge34_Node000013_Node000020" class="edge">
<title>Node13&#45;&gt;Node20</title>
<g id="a_edge34_Node000013_Node000020"><a xlink:title=" ">
<path fill="none" stroke="#63b8ff" d="M433.03,-274.98C377.15,-265.46 286.84,-250.07 228.45,-240.12"/>
<polygon fill="#63b8ff" stroke="#63b8ff" points="228.74,-236.62 218.29,-238.39 227.56,-243.52 228.74,-236.62"/>
</a>
</g>
</g>
<!-- Node14&#45;&gt;Node3 -->
<g id="edge26_Node000014_Node000003" class="edge">
<title>Node14&#45;&gt;Node3</title>
<g id="a_edge26_Node000014_Node000003"><a xlink:title=" ">
<path fill="none" stroke="#63b8ff" d="M806.24,-219.83C807.21,-198.9 812.25,-144.76 838,-110 869.99,-66.83 926.79,-37.98 963.13,-22.92"/>
<polygon fill="#63b8ff" stroke="#63b8ff" points="964.82,-26.01 972.8,-19.04 962.22,-19.51 964.82,-26.01"/>
</a>
</g>
</g>
<!-- Node14&#45;&gt;Node7 -->
<g id="edge24_Node000014_Node000007" class="edge">
<title>Node14&#45;&gt;Node7</title>
<g id="a_edge24_Node000014_Node000007"><a xlink:title=" ">
<path fill="none" stroke="#63b8ff" d="M822.37,-219.79C848.6,-206.18 901.98,-179.9 950,-165 1013.25,-145.37 1088.87,-132.97 1137.16,-126.38"/>
<polygon fill="#63b8ff" stroke="#63b8ff" points="1137.88,-129.82 1147.33,-125.03 1136.96,-122.88 1137.88,-129.82"/>
</a>
</g>
</g>
<!-- Node14&#45;&gt;Node9 -->
<g id="edge23_Node000014_Node000009" class="edge">
<title>Node14&#45;&gt;Node9</title>
<g id="a_edge23_Node000014_Node000009"><a xlink:title=" ">
<path fill="none" stroke="#63b8ff" d="M836.69,-219.98C869.17,-210.97 920.6,-196.7 956.41,-186.76"/>
<polygon fill="#63b8ff" stroke="#63b8ff" points="957.37,-190.13 966.07,-184.08 955.5,-183.38 957.37,-190.13"/>
</a>
</g>
</g>
<!-- Node14&#45;&gt;Node10 -->
<g id="edge25_Node000014_Node000010" class="edge">
<title>Node14&#45;&gt;Node10</title>
<g id="a_edge25_Node000014_Node000010"><a xlink:title=" ">
<path fill="none" stroke="#63b8ff" d="M809.64,-219.68C815.2,-206.83 826.69,-182.57 841,-165 850.03,-153.91 862.05,-143.42 872.27,-135.41"/>
<polygon fill="#63b8ff" stroke="#63b8ff" points="874.46,-138.14 880.32,-129.31 870.23,-132.56 874.46,-138.14"/>
</a>
</g>
</g>
<!-- Node21&#45;&gt;Node2 -->
<g id="edge37_Node000021_Node000002" class="edge">
<title>Node21&#45;&gt;Node2</title>
<g id="a_edge37_Node000021_Node000002"><a xlink:title=" ">
<path fill="none" stroke="#63b8ff" d="M294.43,-281.05C236.18,-276.82 138.99,-265.83 117,-239 111.65,-232.47 111.85,-226.69 117,-220 184.22,-132.76 533.44,-84.88 658.44,-70.33"/>
<polygon fill="#63b8ff" stroke="#63b8ff" points="658.9,-73.8 668.44,-69.18 658.1,-66.84 658.9,-73.8"/>
</a>
</g>
</g>
<!-- Node21&#45;&gt;Node14 -->
<g id="edge36_Node000021_Node000014" class="edge">
<title>Node21&#45;&gt;Node14</title>
<g id="a_edge36_Node000021_Node000014"><a xlink:title=" ">
<path fill="none" stroke="#63b8ff" d="M383.78,-278.42C472.26,-268.38 668.71,-246.08 758.98,-235.84"/>
<polygon fill="#63b8ff" stroke="#63b8ff" points="759.39,-239.31 768.93,-234.71 758.6,-232.36 759.39,-239.31"/>
</a>
</g>
</g>
<!-- Node21&#45;&gt;Node15 -->
<g id="edge38_Node000021_Node000015" class="edge">
<title>Node21&#45;&gt;Node15</title>
<g id="a_edge38_Node000021_Node000015"><a xlink:title=" ">
<path fill="none" stroke="#63b8ff" d="M376.44,-274.98C417.25,-265.7 482.58,-250.84 526.37,-240.88"/>
<polygon fill="#63b8ff" stroke="#63b8ff" points="527.21,-244.28 536.19,-238.65 525.66,-237.45 527.21,-244.28"/>
</a>
</g>
</g>
<!-- Node21&#45;&gt;Node17 -->
<g id="edge40_Node000021_Node000017" class="edge">
<title>Node21&#45;&gt;Node17</title>
<g id="a_edge40_Node000021_Node000017"><a xlink:title=" ">
<path fill="none" stroke="#63b8ff" d="M357.16,-274.98C375.25,-266.5 403.28,-253.35 424.19,-243.54"/>
<polygon fill="#63b8ff" stroke="#63b8ff" points="425.95,-246.59 433.51,-239.17 422.97,-240.25 425.95,-246.59"/>
</a>
</g>
</g>
<!-- Node21&#45;&gt;Node18 -->
<g id="edge41_Node000021_Node000018" class="edge">
<title>Node21&#45;&gt;Node18</title>
<g id="a_edge41_Node000021_Node000018"><a xlink:title=" ">
<path fill="none" stroke="#63b8ff" d="M326.95,-274.98C315.54,-266.92 298.17,-254.65 284.57,-245.03"/>
<polygon fill="#63b8ff" stroke="#63b8ff" points="286.46,-242.08 276.27,-239.17 282.42,-247.8 286.46,-242.08"/>
</a>
</g>
</g>
<!-- Node21&#45;&gt;Node19 -->
<g id="edge42_Node000021_Node000019" class="edge">
<title>Node21&#45;&gt;Node19</title>
<g id="a_edge42_Node000021_Node000019"><a xlink:title=" ">
<path fill="none" stroke="#63b8ff" d="M339,-274.75C339,-267.8 339,-257.85 339,-249.13"/>
<polygon fill="#63b8ff" stroke="#63b8ff" points="342.5,-249.09 339,-239.09 335.5,-249.09 342.5,-249.09"/>
</a>
</g>
</g>
<!-- Node21&#45;&gt;Node20 -->
<g id="edge43_Node000021_Node000020" class="edge">
<title>Node21&#45;&gt;Node20</title>
<g id="a_edge43_Node000021_Node000020"><a xlink:title=" ">
<path fill="none" stroke="#63b8ff" d="M312.17,-274.98C284.13,-266.09 239.95,-252.07 208.7,-242.15"/>
<polygon fill="#63b8ff" stroke="#63b8ff" points="209.63,-238.77 199.04,-239.08 207.51,-245.44 209.63,-238.77"/>
</a>
</g>
</g>
<!-- Node22 -->
<g id="Node000022" class="node">
<title>Node22</title>
<g id="a_Node000022"><a xlink:title=" ">
<polygon fill="#e0e0e0" stroke="#999999" points="69.5,-239 28.5,-239 28.5,-220 69.5,-220 69.5,-239"/>
<text text-anchor="middle" x="49" y="-227" font-family="Helvetica,sans-Serif" font-size="10.00">QFile</text>
</a>
</g>
</g>
<!-- Node21&#45;&gt;Node22 -->
<g id="edge39_Node000021_Node000022" class="edge">
<title>Node21&#45;&gt;Node22</title>
<g id="a_edge39_Node000021_Node000022"><a xlink:title=" ">
<path fill="none" stroke="#63b8ff" d="M294.15,-276.58C243.09,-268.5 157.25,-254.27 84,-239 82.55,-238.7 81.06,-238.38 79.56,-238.05"/>
<polygon fill="#63b8ff" stroke="#63b8ff" points="80.21,-234.6 69.68,-235.76 78.63,-241.42 80.21,-234.6"/>
</a>
</g>
</g>
<!-- Node23&#45;&gt;Node2 -->
<g id="edge48_Node000023_Node000002" class="edge">
<title>Node23&#45;&gt;Node2</title>
<g id="a_edge48_Node000023_Node000002"><a xlink:title=" ">
<path fill="none" stroke="#63b8ff" d="M900.75,-283.92C863.31,-282.86 798.67,-275.37 760,-239 757.06,-236.23 722.7,-127.98 708.79,-83.9"/>
<polygon fill="#63b8ff" stroke="#63b8ff" points="712.07,-82.66 705.73,-74.17 705.39,-84.76 712.07,-82.66"/>
</a>
</g>
</g>
<!-- Node23&#45;&gt;Node4 -->
<g id="edge49_Node000023_Node000004" class="edge">
<title>Node23&#45;&gt;Node4</title>
<g id="a_edge49_Node000023_Node000004"><a xlink:title=" ">
<path fill="none" stroke="#63b8ff" d="M959.02,-283.47C1073.35,-283.07 1488.46,-278.88 1530,-239 1572.24,-198.45 1562.13,-120.36 1554.62,-84.43"/>
<polygon fill="#63b8ff" stroke="#63b8ff" points="1557.96,-83.33 1552.34,-74.35 1551.13,-84.87 1557.96,-83.33"/>
</a>
</g>
</g>
<!-- Node23&#45;&gt;Node7 -->
<g id="edge50_Node000023_Node000007" class="edge">
<title>Node23&#45;&gt;Node7</title>
<g id="a_edge50_Node000023_Node000007"><a xlink:title=" ">
<path fill="none" stroke="#63b8ff" d="M959.16,-282.07C1040.97,-277.78 1268.15,-263.71 1290,-239 1323.64,-200.95 1253.88,-155.8 1212.94,-133.84"/>
<polygon fill="#63b8ff" stroke="#63b8ff" points="1214.44,-130.68 1203.96,-129.14 1211.2,-136.88 1214.44,-130.68"/>
</a>
</g>
</g>
<!-- Node23&#45;&gt;Node9 -->
<g id="edge47_Node000023_Node000009" class="edge">
<title>Node23&#45;&gt;Node9</title>
<g id="a_edge47_Node000023_Node000009"><a xlink:title=" ">
<path fill="none" stroke="#63b8ff" d="M927.06,-274.64C923.35,-261.74 918.5,-237.43 928,-220 935.65,-205.97 949.83,-195.69 963.36,-188.57"/>
<polygon fill="#63b8ff" stroke="#63b8ff" points="965.05,-191.64 972.53,-184.14 962.01,-185.34 965.05,-191.64"/>
</a>
</g>
</g>
<!-- Node23&#45;&gt;Node10 -->
<g id="edge57_Node000023_Node000010" class="edge">
<title>Node23&#45;&gt;Node10</title>
<g id="a_edge57_Node000023_Node000010"><a xlink:title=" ">
<path fill="none" stroke="#63b8ff" d="M927.82,-274.99C925.56,-266.04 921.93,-251.56 919,-239 910.78,-203.75 901.88,-162.41 896.91,-139.06"/>
<polygon fill="#63b8ff" stroke="#63b8ff" points="900.31,-138.2 894.81,-129.14 893.46,-139.65 900.31,-138.2"/>
</a>
</g>
</g>
<!-- Node23&#45;&gt;Node14 -->
<g id="edge46_Node000023_Node000014" class="edge">
<title>Node23&#45;&gt;Node14</title>
<g id="a_edge46_Node000023_Node000014"><a xlink:title=" ">
<path fill="none" stroke="#63b8ff" d="M910.08,-274.98C889.95,-266.38 858.62,-252.99 835.59,-243.15"/>
<polygon fill="#63b8ff" stroke="#63b8ff" points="836.86,-239.88 826.29,-239.17 834.1,-246.32 836.86,-239.88"/>
</a>
</g>
</g>
<!-- Node23&#45;&gt;Node15 -->
<g id="edge51_Node000023_Node000015" class="edge">
<title>Node23&#45;&gt;Node15</title>
<g id="a_edge51_Node000023_Node000015"><a xlink:title=" ">
<path fill="none" stroke="#63b8ff" d="M900.92,-279.87C847.03,-273.05 727.79,-257.44 617.48,-239.18"/>
<polygon fill="#63b8ff" stroke="#63b8ff" points="617.95,-235.71 607.51,-237.52 616.8,-242.62 617.95,-235.71"/>
</a>
</g>
</g>
<!-- Node23&#45;&gt;Node16 -->
<g id="edge52_Node000023_Node000016" class="edge">
<title>Node23&#45;&gt;Node16</title>
<g id="a_edge52_Node000023_Node000016"><a xlink:title=" ">
<path fill="none" stroke="#63b8ff" d="M900.83,-277.98C848.85,-268.14 740.46,-247.62 684.73,-237.07"/>
<polygon fill="#63b8ff" stroke="#63b8ff" points="685.12,-233.59 674.64,-235.16 683.82,-240.46 685.12,-233.59"/>
</a>
</g>
</g>
<!-- Node23&#45;&gt;Node17 -->
<g id="edge54_Node000023_Node000017" class="edge">
<title>Node23&#45;&gt;Node17</title>
<g id="a_edge54_Node000023_Node000017"><a xlink:title=" ">
<path fill="none" stroke="#63b8ff" d="M900.67,-280.29C834.18,-273.01 666.91,-254.65 527,-239 514.91,-237.65 501.73,-236.16 489.84,-234.81"/>
<polygon fill="#63b8ff" stroke="#63b8ff" points="490.11,-231.32 479.78,-233.67 489.32,-238.27 490.11,-231.32"/>
</a>
</g>
</g>
<!-- Node24 -->
<g id="Node000024" class="node">
<title>Node24</title>
<g id="a_Node000024"><a xlink:title=" ">
<polygon fill="#e0e0e0" stroke="#999999" points="1281.5,-239 1240.5,-239 1240.5,-220 1281.5,-220 1281.5,-239"/>
<text text-anchor="middle" x="1261" y="-227" font-family="Helvetica,sans-Serif" font-size="10.00">QList</text>
</a>
</g>
</g>
<!-- Node23&#45;&gt;Node24 -->
<g id="edge53_Node000023_Node000024" class="edge">
<title>Node23&#45;&gt;Node24</title>
<g id="a_edge53_Node000023_Node000024"><a xlink:title=" ">
<path fill="none" stroke="#63b8ff" d="M959.28,-280.45C1011.71,-274.7 1125.21,-261.04 1230.59,-238.81"/>
<polygon fill="#63b8ff" stroke="#63b8ff" points="1231.38,-242.22 1240.43,-236.71 1229.92,-235.38 1231.38,-242.22"/>
</a>
</g>
</g>
<!-- Node25 -->
<g id="Node000025" class="node">
<title>Node25</title>
<g id="a_Node000025"><a xlink:title=" ">
<polygon fill="#e0e0e0" stroke="#999999" points="993,-239 937,-239 937,-220 993,-220 993,-239"/>
<text text-anchor="middle" x="965" y="-227" font-family="Helvetica,sans-Serif" font-size="10.00">QObject</text>
</a>
</g>
</g>
<!-- Node23&#45;&gt;Node25 -->
<g id="edge55_Node000023_Node000025" class="edge">
<title>Node23&#45;&gt;Node25</title>
<g id="a_edge55_Node000023_Node000025"><a xlink:title=" ">
<path fill="none" stroke="#63b8ff" d="M935.78,-274.75C940.62,-267.42 947.68,-256.73 953.64,-247.7"/>
<polygon fill="#63b8ff" stroke="#63b8ff" points="956.74,-249.36 959.33,-239.09 950.9,-245.5 956.74,-249.36"/>
</a>
</g>
</g>
<!-- Node26 -->
<g id="Node000026" class="node">
<title>Node26</title>
<g id="a_Node000026"><a xlink:title=" ">
<polygon fill="#e0e0e0" stroke="#999999" points="1109,-239 1011,-239 1011,-220 1109,-220 1109,-239"/>
<text text-anchor="middle" x="1060" y="-227" font-family="Helvetica,sans-Serif" font-size="10.00">QReadWriteLock</text>
</a>
</g>
</g>
<!-- Node23&#45;&gt;Node26 -->
<g id="edge56_Node000023_Node000026" class="edge">
<title>Node23&#45;&gt;Node26</title>
<g id="a_edge56_Node000023_Node000026"><a xlink:title=" ">
<path fill="none" stroke="#63b8ff" d="M950.89,-274.98C972.08,-266.34 1005.13,-252.87 1029.3,-243.02"/>
<polygon fill="#63b8ff" stroke="#63b8ff" points="1030.79,-246.19 1038.73,-239.17 1028.15,-239.7 1030.79,-246.19"/>
</a>
</g>
</g>
<!-- Node27 -->
<g id="Node000027" class="node">
<title>Node27</title>
<g id="a_Node000027"><a xlink:title=" ">
<polygon fill="#e0e0e0" stroke="#999999" points="1222.5,-239 1127.5,-239 1127.5,-220 1222.5,-220 1222.5,-239"/>
<text text-anchor="middle" x="1175" y="-227" font-family="Helvetica,sans-Serif" font-size="10.00">QThreadStorage</text>
</a>
</g>
</g>
<!-- Node23&#45;&gt;Node27 -->
<g id="edge58_Node000023_Node000027" class="edge">
<title>Node23&#45;&gt;Node27</title>
<g id="a_edge58_Node000023_Node000027"><a xlink:title=" ">
<path fill="none" stroke="#63b8ff" d="M959.07,-277.21C1000.1,-268.34 1075.56,-252.01 1125.51,-241.21"/>
<polygon fill="#63b8ff" stroke="#63b8ff" points="1126.42,-244.59 1135.45,-239.05 1124.94,-237.75 1126.42,-244.59"/>
</a>
</g>
</g>
<!-- Node28&#45;&gt;Node2 -->
<g id="edge60_Node000028_Node000002" class="edge">
<title>Node28&#45;&gt;Node2</title>
<g id="a_edge60_Node000028_Node000002"><a xlink:title=" ">
<path fill="none" stroke="#63b8ff" d="M911.98,-338.52C842.14,-336.29 703,-320.55 703,-230.5 703,-230.5 703,-230.5 703,-173.5 703,-142.19 703,-105.77 703,-84.23"/>
<polygon fill="#63b8ff" stroke="#63b8ff" points="706.5,-84.18 703,-74.18 699.5,-84.18 706.5,-84.18"/>
</a>
</g>
</g>
<!-- Node28&#45;&gt;Node4 -->
<g id="edge61_Node000028_Node000004" class="edge">
<title>Node28&#45;&gt;Node4</title>
<g id="a_edge61_Node000028_Node000004"><a xlink:title=" ">
<path fill="none" stroke="#63b8ff" d="M990.37,-336.01C1129.25,-326.72 1588,-291.42 1588,-230.5 1588,-230.5 1588,-230.5 1588,-173.5 1588,-144.6 1584.07,-137.09 1574,-110 1570.52,-100.64 1565.4,-90.81 1560.77,-82.78"/>
<polygon fill="#63b8ff" stroke="#63b8ff" points="1563.67,-80.81 1555.53,-74.03 1557.67,-84.4 1563.67,-80.81"/>
</a>
</g>
</g>
<!-- Node28&#45;&gt;Node23 -->
<g id="edge62_Node000028_Node000023" class="edge">
<title>Node28&#45;&gt;Node23</title>
<g id="a_edge62_Node000028_Node000023"><a xlink:title=" ">
<path fill="none" stroke="#63b8ff" d="M947.53,-329.75C944.72,-322.65 940.66,-312.4 937.15,-303.56"/>
<polygon fill="#63b8ff" stroke="#63b8ff" points="940.34,-302.1 933.4,-294.09 933.83,-304.68 940.34,-302.1"/>
</a>
</g>
</g>
<!-- Node29&#45;&gt;Node6 -->
<g id="edge66_Node000029_Node000006" class="edge">
<title>Node29&#45;&gt;Node6</title>
<g id="a_edge66_Node000029_Node000006"><a xlink:title=" ">
<path fill="none" stroke="#63b8ff" d="M1064.2,-391.07C1206.08,-382.36 1626,-346.75 1626,-230.5 1626,-230.5 1626,-230.5 1626,-118.5 1626,-87.66 1619.33,-77.28 1598,-55 1583.97,-40.34 1564.08,-29.81 1546.57,-22.68"/>
<polygon fill="#63b8ff" stroke="#63b8ff" points="1547.73,-19.38 1537.14,-19.07 1545.22,-25.92 1547.73,-19.38"/>
</a>
</g>
</g>
<!-- Node29&#45;&gt;Node23 -->
<g id="edge65_Node000029_Node000023" class="edge">
<title>Node29&#45;&gt;Node23</title>
<g id="a_edge65_Node000029_Node000023"><a xlink:title=" ">
<path fill="none" stroke="#63b8ff" d="M1017.31,-384.85C1015.88,-371.77 1011.58,-346.74 999,-330 988.91,-316.57 973.5,-306.08 959.79,-298.66"/>
<polygon fill="#63b8ff" stroke="#63b8ff" points="961.17,-295.44 950.66,-294.02 957.99,-301.68 961.17,-295.44"/>
</a>
</g>
</g>
<!-- Node29&#45;&gt;Node28 -->
<g id="edge64_Node000029_Node000028" class="edge">
<title>Node29&#45;&gt;Node28</title>
<g id="a_edge64_Node000029_Node000028"><a xlink:title=" ">
<path fill="none" stroke="#63b8ff" d="M1007.24,-384.98C997.23,-377.07 982.11,-365.11 970.07,-355.58"/>
<polygon fill="#63b8ff" stroke="#63b8ff" points="971.97,-352.63 961.96,-349.17 967.63,-358.12 971.97,-352.63"/>
</a>
</g>
</g>
</g>
</svg>
