<?xml version="1.0" encoding="UTF-8" standalone="no"?>
<!DOCTYPE svg PUBLIC "-//W3C//DTD SVG 1.1//EN"
 "http://www.w3.org/Graphics/SVG/1.1/DTD/svg11.dtd">
<!-- Generated by graphviz version 2.43.0 (0)
 -->
<!-- Title: utils/logging/Logger.h Pages: 1 -->
<svg width="829pt" height="258pt"
 viewBox="0.00 0.00 829.00 258.00" xmlns="http://www.w3.org/2000/svg" xmlns:xlink="http://www.w3.org/1999/xlink">
<g id="graph0" class="graph" transform="scale(1 1) rotate(0) translate(4 254)">
<title>utils/logging/Logger.h</title>
<!-- Node1 -->
<g id="Node000001" class="node">
<title>Node1</title>
<g id="a_Node000001"><a xlink:title=" ">
<polygon fill="#999999" stroke="#666666" points="490.5,-250 369.5,-250 369.5,-231 490.5,-231 490.5,-250"/>
<text text-anchor="middle" x="430" y="-238" font-family="Helvetica,sans-Serif" font-size="10.00">utils/logging/Logger.h</text>
</a>
</g>
</g>
<!-- Node2 -->
<g id="Node000002" class="node">
<title>Node2</title>
<g id="a_Node000002"><a xlink:href="Log_8h.html" target="_top" xlink:title="EasyKiConverter 日志系统统一入口">
<polygon fill="white" stroke="#666666" points="106,-74 0,-74 0,-55 106,-55 106,-74"/>
<text text-anchor="middle" x="53" y="-62" font-family="Helvetica,sans-Serif" font-size="10.00">utils/logging/Log.h</text>
</a>
</g>
</g>
<!-- Node1&#45;&gt;Node2 -->
<g id="edge1_Node000001_Node000002" class="edge">
<title>Node1&#45;&gt;Node2</title>
<g id="a_edge1_Node000001_Node000002"><a xlink:title=" ">
<path fill="none" stroke="#63b8ff" d="M359.29,-231.08C260.78,-217.73 90.1,-188.17 53,-140 38.16,-120.74 45.12,-89.59 49.86,-74.4"/>
<polygon fill="#63b8ff" stroke="#63b8ff" points="359.09,-234.59 369.47,-232.44 360.02,-227.65 359.09,-234.59"/>
</a>
</g>
</g>
<!-- Node4 -->
<g id="Node000004" class="node">
<title>Node4</title>
<g id="a_Node000004"><a xlink:href="LogMacros_8h.html" target="_top" xlink:title=" ">
<polygon fill="white" stroke="#666666" points="451.5,-195 310.5,-195 310.5,-176 451.5,-176 451.5,-195"/>
<text text-anchor="middle" x="381" y="-183" font-family="Helvetica,sans-Serif" font-size="10.00">utils/logging/LogMacros.h</text>
</a>
</g>
</g>
<!-- Node1&#45;&gt;Node4 -->
<g id="edge3_Node000001_Node000004" class="edge">
<title>Node1&#45;&gt;Node4</title>
<g id="a_edge3_Node000001_Node000004"><a xlink:title=" ">
<path fill="none" stroke="#63b8ff" d="M414.97,-223.24C406.38,-213.95 395.96,-202.68 388.94,-195.09"/>
<polygon fill="#63b8ff" stroke="#63b8ff" points="412.55,-225.78 421.91,-230.75 417.69,-221.03 412.55,-225.78"/>
</a>
</g>
</g>
<!-- Node8 -->
<g id="Node000008" class="node">
<title>Node8</title>
<g id="a_Node000008"><a xlink:href="QtLogAdapter_8h.html" target="_top" xlink:title=" ">
<polygon fill="white" stroke="#666666" points="815.5,-134.5 660.5,-134.5 660.5,-115.5 815.5,-115.5 815.5,-134.5"/>
<text text-anchor="middle" x="738" y="-122.5" font-family="Helvetica,sans-Serif" font-size="10.00">utils/logging/QtLogAdapter.h</text>
</a>
</g>
</g>
<!-- Node1&#45;&gt;Node8 -->
<g id="edge12_Node000001_Node000008" class="edge">
<title>Node1&#45;&gt;Node8</title>
<g id="a_edge12_Node000001_Node000008"><a xlink:title=" ">
<path fill="none" stroke="#63b8ff" d="M443.15,-223.17C455.87,-208.52 476.49,-187.58 499,-176 515.85,-167.34 625.69,-146.39 690.45,-134.54"/>
<polygon fill="#63b8ff" stroke="#63b8ff" points="440.36,-221.05 436.62,-230.96 445.72,-225.55 440.36,-221.05"/>
</a>
</g>
</g>
<!-- Node10 -->
<g id="Node000010" class="node">
<title>Node10</title>
<g id="a_Node000010"><a xlink:href="Logger_8cpp.html" target="_top" xlink:title=" ">
<polygon fill="white" stroke="#666666" points="640,-195 508,-195 508,-176 640,-176 640,-195"/>
<text text-anchor="middle" x="574" y="-183" font-family="Helvetica,sans-Serif" font-size="10.00">utils/logging/Logger.cpp</text>
</a>
</g>
</g>
<!-- Node1&#45;&gt;Node10 -->
<g id="edge11_Node000001_Node000010" class="edge">
<title>Node1&#45;&gt;Node10</title>
<g id="a_edge11_Node000001_Node000010"><a xlink:title=" ">
<path fill="none" stroke="#63b8ff" d="M462.82,-227.42C489.53,-217.59 526.6,-203.95 550.44,-195.17"/>
<polygon fill="#63b8ff" stroke="#63b8ff" points="461.31,-224.25 453.14,-230.98 463.73,-230.82 461.31,-224.25"/>
</a>
</g>
</g>
<!-- Node3 -->
<g id="Node000003" class="node">
<title>Node3</title>
<g id="a_Node000003"><a xlink:href="main_8cpp.html" target="_top" xlink:title=" ">
<polygon fill="white" stroke="#666666" points="84,-19 22,-19 22,0 84,0 84,-19"/>
<text text-anchor="middle" x="53" y="-7" font-family="Helvetica,sans-Serif" font-size="10.00">main.cpp</text>
</a>
</g>
</g>
<!-- Node2&#45;&gt;Node3 -->
<g id="edge2_Node000002_Node000003" class="edge">
<title>Node2&#45;&gt;Node3</title>
<g id="a_edge2_Node000002_Node000003"><a xlink:title=" ">
<path fill="none" stroke="#63b8ff" d="M53,-44.66C53,-35.93 53,-25.99 53,-19.09"/>
<polygon fill="#63b8ff" stroke="#63b8ff" points="49.5,-44.75 53,-54.75 56.5,-44.75 49.5,-44.75"/>
</a>
</g>
</g>
<!-- Node4&#45;&gt;Node2 -->
<g id="edge7_Node000004_Node000002" class="edge">
<title>Node4&#45;&gt;Node2</title>
<g id="a_edge7_Node000004_Node000002"><a xlink:title=" ">
<path fill="none" stroke="#63b8ff" d="M300.28,-182.8C220.16,-179.41 104.72,-169.4 72,-140 53.04,-122.96 51.79,-89.88 52.39,-74.17"/>
<polygon fill="#63b8ff" stroke="#63b8ff" points="300.22,-186.3 310.35,-183.19 300.5,-179.3 300.22,-186.3"/>
</a>
</g>
</g>
<!-- Node5 -->
<g id="Node000005" class="node">
<title>Node5</title>
<g id="a_Node000005"><a xlink:href="ComponentCacheService_8cpp.html" target="_top" xlink:title=" ">
<polygon fill="white" stroke="#666666" points="284.5,-134.5 81.5,-134.5 81.5,-115.5 284.5,-115.5 284.5,-134.5"/>
<text text-anchor="middle" x="183" y="-122.5" font-family="Helvetica,sans-Serif" font-size="10.00">services/ComponentCacheService.cpp</text>
</a>
</g>
</g>
<!-- Node4&#45;&gt;Node5 -->
<g id="edge4_Node000004_Node000005" class="edge">
<title>Node4&#45;&gt;Node5</title>
<g id="a_edge4_Node000004_Node000005"><a xlink:title=" ">
<path fill="none" stroke="#63b8ff" d="M342.44,-173.11C304.15,-161.79 246.3,-144.7 211.83,-134.52"/>
<polygon fill="#63b8ff" stroke="#63b8ff" points="341.63,-176.52 352.21,-175.99 343.61,-169.8 341.63,-176.52"/>
</a>
</g>
</g>
<!-- Node6 -->
<g id="Node000006" class="node">
<title>Node6</title>
<g id="a_Node000006"><a xlink:href="ExportReportGenerator_8cpp.html" target="_top" xlink:title=" ">
<polygon fill="white" stroke="#666666" points="460,-140 302,-140 302,-110 460,-110 460,-140"/>
<text text-anchor="start" x="310" y="-128" font-family="Helvetica,sans-Serif" font-size="10.00">services/export/ExportReport</text>
<text text-anchor="middle" x="381" y="-117" font-family="Helvetica,sans-Serif" font-size="10.00">Generator.cpp</text>
</a>
</g>
</g>
<!-- Node4&#45;&gt;Node6 -->
<g id="edge5_Node000004_Node000006" class="edge">
<title>Node4&#45;&gt;Node6</title>
<g id="a_edge5_Node000004_Node000006"><a xlink:title=" ">
<path fill="none" stroke="#63b8ff" d="M381,-165.65C381,-157.36 381,-147.78 381,-140.11"/>
<polygon fill="#63b8ff" stroke="#63b8ff" points="377.5,-165.87 381,-175.87 384.5,-165.87 377.5,-165.87"/>
</a>
</g>
</g>
<!-- Node7 -->
<g id="Node000007" class="node">
<title>Node7</title>
<g id="a_Node000007"><a xlink:href="ExportProgressViewModel_8cpp.html" target="_top" xlink:title=" ">
<polygon fill="white" stroke="#666666" points="642,-140 478,-140 478,-110 642,-110 642,-140"/>
<text text-anchor="start" x="486" y="-128" font-family="Helvetica,sans-Serif" font-size="10.00">ui/viewmodels/ExportProgress</text>
<text text-anchor="middle" x="560" y="-117" font-family="Helvetica,sans-Serif" font-size="10.00">ViewModel.cpp</text>
</a>
</g>
</g>
<!-- Node4&#45;&gt;Node7 -->
<g id="edge6_Node000004_Node000007" class="edge">
<title>Node4&#45;&gt;Node7</title>
<g id="a_edge6_Node000004_Node000007"><a xlink:title=" ">
<path fill="none" stroke="#63b8ff" d="M416.71,-172.83C445.57,-163.4 486.3,-150.09 516.97,-140.06"/>
<polygon fill="#63b8ff" stroke="#63b8ff" points="415.45,-169.56 407.03,-175.99 417.62,-176.21 415.45,-169.56"/>
</a>
</g>
</g>
<!-- Node4&#45;&gt;Node8 -->
<g id="edge8_Node000004_Node000008" class="edge">
<title>Node4&#45;&gt;Node8</title>
<g id="a_edge8_Node000004_Node000008"><a xlink:title=" ">
<path fill="none" stroke="#63b8ff" d="M443.17,-174.31C511.97,-163.04 621.62,-145.07 686.03,-134.52"/>
<polygon fill="#63b8ff" stroke="#63b8ff" points="442.21,-170.92 432.91,-175.99 443.35,-177.83 442.21,-170.92"/>
</a>
</g>
</g>
<!-- Node8&#45;&gt;Node2 -->
<g id="edge9_Node000008_Node000002" class="edge">
<title>Node8&#45;&gt;Node2</title>
<g id="a_edge9_Node000008_Node000002"><a xlink:title=" ">
<path fill="none" stroke="#63b8ff" d="M679.88,-113.94C670.25,-112.48 660.36,-111.1 651,-110 450.67,-86.47 211.04,-73.07 106.35,-67.94"/>
<polygon fill="#63b8ff" stroke="#63b8ff" points="679.36,-117.41 689.78,-115.49 680.44,-110.49 679.36,-117.41"/>
</a>
</g>
</g>
<!-- Node9 -->
<g id="Node000009" class="node">
<title>Node9</title>
<g id="a_Node000009"><a xlink:href="QtLogAdapter_8cpp.html" target="_top" xlink:title=" ">
<polygon fill="white" stroke="#666666" points="821,-74 655,-74 655,-55 821,-55 821,-74"/>
<text text-anchor="middle" x="738" y="-62" font-family="Helvetica,sans-Serif" font-size="10.00">utils/logging/QtLogAdapter.cpp</text>
</a>
</g>
</g>
<!-- Node8&#45;&gt;Node9 -->
<g id="edge10_Node000008_Node000009" class="edge">
<title>Node8&#45;&gt;Node9</title>
<g id="a_edge10_Node000008_Node000009"><a xlink:title=" ">
<path fill="none" stroke="#63b8ff" d="M738,-105.16C738,-94.74 738,-82.3 738,-74.17"/>
<polygon fill="#63b8ff" stroke="#63b8ff" points="734.5,-105.37 738,-115.37 741.5,-105.37 734.5,-105.37"/>
</a>
</g>
</g>
</g>
</svg>
