<?xml version="1.0" encoding="UTF-8" standalone="no"?>
<!DOCTYPE svg PUBLIC "-//W3C//DTD SVG 1.1//EN"
 "http://www.w3.org/Graphics/SVG/1.1/DTD/svg11.dtd">
<!-- Generated by graphviz version 2.43.0 (0)
 -->
<!-- Title: utils/logging/Logger.cpp Pages: 1 -->
<svg width="1192pt" height="357pt"
 viewBox="0.00 0.00 1191.50 357.00" xmlns="http://www.w3.org/2000/svg" xmlns:xlink="http://www.w3.org/1999/xlink">
<g id="graph0" class="graph" transform="scale(1 1) rotate(0) translate(4 353)">
<title>utils/logging/Logger.cpp</title>
<!-- Node1 -->
<g id="Node000001" class="node">
<title>Node1</title>
<g id="a_Node000001"><a xlink:title=" ">
<polygon fill="#999999" stroke="#666666" points="777.5,-349 645.5,-349 645.5,-330 777.5,-330 777.5,-349"/>
<text text-anchor="middle" x="711.5" y="-337" font-family="Helvetica,sans-Serif" font-size="10.00">utils/logging/Logger.cpp</text>
</a>
</g>
</g>
<!-- Node2 -->
<g id="Node000002" class="node">
<title>Node2</title>
<g id="a_Node000002"><a xlink:href="Logger_8h.html" target="_top" xlink:title=" ">
<polygon fill="white" stroke="#666666" points="650.5,-294 592.5,-294 592.5,-275 650.5,-275 650.5,-294"/>
<text text-anchor="middle" x="621.5" y="-282" font-family="Helvetica,sans-Serif" font-size="10.00">Logger.h</text>
</a>
</g>
</g>
<!-- Node1&#45;&gt;Node2 -->
<g id="edge1_Node000001_Node000002" class="edge">
<title>Node1&#45;&gt;Node2</title>
<g id="a_edge1_Node000001_Node000002"><a xlink:title=" ">
<path fill="none" stroke="#63b8ff" d="M697.04,-329.98C683.08,-321.77 661.71,-309.18 645.25,-299.49"/>
<polygon fill="#63b8ff" stroke="#63b8ff" points="646.62,-296.23 636.22,-294.17 643.06,-302.26 646.62,-296.23"/>
</a>
</g>
</g>
<!-- Node11 -->
<g id="Node000011" class="node">
<title>Node11</title>
<g id="a_Node000011"><a xlink:title=" ">
<polygon fill="#e0e0e0" stroke="#999999" points="873.5,-74 801.5,-74 801.5,-55 873.5,-55 873.5,-74"/>
<text text-anchor="middle" x="837.5" y="-62" font-family="Helvetica,sans-Serif" font-size="10.00">QDateTime</text>
</a>
</g>
</g>
<!-- Node1&#45;&gt;Node11 -->
<g id="edge35_Node000001_Node000011" class="edge">
<title>Node1&#45;&gt;Node11</title>
<g id="a_edge35_Node000001_Node000011"><a xlink:title=" ">
<path fill="none" stroke="#63b8ff" d="M645.45,-338.73C503.37,-337.44 181.5,-324.17 181.5,-230.5 181.5,-230.5 181.5,-230.5 181.5,-173.5 181.5,-111.65 641.43,-77.66 791.07,-68.23"/>
<polygon fill="#63b8ff" stroke="#63b8ff" points="791.53,-71.71 801.3,-67.6 791.1,-64.73 791.53,-71.71"/>
</a>
</g>
</g>
<!-- Node20 -->
<g id="Node000020" class="node">
<title>Node20</title>
<g id="a_Node000020"><a xlink:href="PatternFormatter_8h.html" target="_top" xlink:title=" ">
<polygon fill="white" stroke="#666666" points="153,-239 46,-239 46,-220 153,-220 153,-239"/>
<text text-anchor="middle" x="99.5" y="-227" font-family="Helvetica,sans-Serif" font-size="10.00">PatternFormatter.h</text>
</a>
</g>
</g>
<!-- Node1&#45;&gt;Node20 -->
<g id="edge31_Node000001_Node000020" class="edge">
<title>Node1&#45;&gt;Node20</title>
<g id="a_edge31_Node000001_Node000020"><a xlink:title=" ">
<path fill="none" stroke="#63b8ff" d="M645.05,-338.47C519.24,-337.53 251.35,-331.08 167.5,-294 144.53,-283.84 124.38,-262.6 112.09,-247.48"/>
<polygon fill="#63b8ff" stroke="#63b8ff" points="114.72,-245.16 105.81,-239.42 109.2,-249.46 114.72,-245.16"/>
</a>
</g>
</g>
<!-- Node22 -->
<g id="Node000022" class="node">
<title>Node22</title>
<g id="a_Node000022"><a xlink:title=" ">
<polygon fill="#e0e0e0" stroke="#999999" points="754.5,-294 668.5,-294 668.5,-275 754.5,-275 754.5,-294"/>
<text text-anchor="middle" x="711.5" y="-282" font-family="Helvetica,sans-Serif" font-size="10.00">QMutexLocker</text>
</a>
</g>
</g>
<!-- Node1&#45;&gt;Node22 -->
<g id="edge36_Node000001_Node000022" class="edge">
<title>Node1&#45;&gt;Node22</title>
<g id="a_edge36_Node000001_Node000022"><a xlink:title=" ">
<path fill="none" stroke="#63b8ff" d="M711.5,-329.75C711.5,-322.8 711.5,-312.85 711.5,-304.13"/>
<polygon fill="#63b8ff" stroke="#63b8ff" points="715,-304.09 711.5,-294.09 708,-304.09 715,-304.09"/>
</a>
</g>
</g>
<!-- Node23 -->
<g id="Node000023" class="node">
<title>Node23</title>
<g id="a_Node000023"><a xlink:title=" ">
<polygon fill="#e0e0e0" stroke="#999999" points="852.5,-294 772.5,-294 772.5,-275 852.5,-275 852.5,-294"/>
<text text-anchor="middle" x="812.5" y="-282" font-family="Helvetica,sans-Serif" font-size="10.00">QReadLocker</text>
</a>
</g>
</g>
<!-- Node1&#45;&gt;Node23 -->
<g id="edge37_Node000001_Node000023" class="edge">
<title>Node1&#45;&gt;Node23</title>
<g id="a_edge37_Node000001_Node000023"><a xlink:title=" ">
<path fill="none" stroke="#63b8ff" d="M727.73,-329.98C743.68,-321.61 768.28,-308.7 786.88,-298.95"/>
<polygon fill="#63b8ff" stroke="#63b8ff" points="788.75,-301.92 795.98,-294.17 785.5,-295.72 788.75,-301.92"/>
</a>
</g>
</g>
<!-- Node24 -->
<g id="Node000024" class="node">
<title>Node24</title>
<g id="a_Node000024"><a xlink:title=" ">
<polygon fill="#e0e0e0" stroke="#999999" points="928.5,-294 870.5,-294 870.5,-275 928.5,-275 928.5,-294"/>
<text text-anchor="middle" x="899.5" y="-282" font-family="Helvetica,sans-Serif" font-size="10.00">QThread</text>
</a>
</g>
</g>
<!-- Node1&#45;&gt;Node24 -->
<g id="edge38_Node000001_Node000024" class="edge">
<title>Node1&#45;&gt;Node24</title>
<g id="a_edge38_Node000001_Node000024"><a xlink:title=" ">
<path fill="none" stroke="#63b8ff" d="M741.71,-329.98C773.92,-320.9 825.06,-306.49 860.35,-296.54"/>
<polygon fill="#63b8ff" stroke="#63b8ff" points="861.62,-299.81 870.3,-293.73 859.72,-293.08 861.62,-299.81"/>
</a>
</g>
</g>
<!-- Node25 -->
<g id="Node000025" class="node">
<title>Node25</title>
<g id="a_Node000025"><a xlink:title=" ">
<polygon fill="#e0e0e0" stroke="#999999" points="1028.5,-294 946.5,-294 946.5,-275 1028.5,-275 1028.5,-294"/>
<text text-anchor="middle" x="987.5" y="-282" font-family="Helvetica,sans-Serif" font-size="10.00">QWriteLocker</text>
</a>
</g>
</g>
<!-- Node1&#45;&gt;Node25 -->
<g id="edge39_Node000001_Node000025" class="edge">
<title>Node1&#45;&gt;Node25</title>
<g id="a_edge39_Node000001_Node000025"><a xlink:title=" ">
<path fill="none" stroke="#63b8ff" d="M755.84,-329.98C805.13,-320.52 884.59,-305.26 936.44,-295.31"/>
<polygon fill="#63b8ff" stroke="#63b8ff" points="937.26,-298.71 946.42,-293.39 935.94,-291.84 937.26,-298.71"/>
</a>
</g>
</g>
<!-- Node3 -->
<g id="Node000003" class="node">
<title>Node3</title>
<g id="a_Node000003"><a xlink:href="IAppender_8h.html" target="_top" xlink:title=" ">
<polygon fill="white" stroke="#666666" points="952.5,-239 878.5,-239 878.5,-220 952.5,-220 952.5,-239"/>
<text text-anchor="middle" x="915.5" y="-227" font-family="Helvetica,sans-Serif" font-size="10.00">IAppender.h</text>
</a>
</g>
</g>
<!-- Node2&#45;&gt;Node3 -->
<g id="edge2_Node000002_Node000003" class="edge">
<title>Node2&#45;&gt;Node3</title>
<g id="a_edge2_Node000002_Node000003"><a xlink:title=" ">
<path fill="none" stroke="#63b8ff" d="M650.52,-276.86C653.55,-276.21 656.58,-275.58 659.5,-275 698.58,-267.24 805.64,-249 868.24,-238.44"/>
<polygon fill="#63b8ff" stroke="#63b8ff" points="868.98,-241.86 878.26,-236.75 867.82,-234.96 868.98,-241.86"/>
</a>
</g>
</g>
<!-- Node4 -->
<g id="Node000004" class="node">
<title>Node4</title>
<g id="a_Node000004"><a xlink:href="IFormatter_8h.html" target="_top" xlink:title=" ">
<polygon fill="white" stroke="#666666" points="876.5,-184 800.5,-184 800.5,-165 876.5,-165 876.5,-184"/>
<text text-anchor="middle" x="838.5" y="-172" font-family="Helvetica,sans-Serif" font-size="10.00">IFormatter.h</text>
</a>
</g>
</g>
<!-- Node2&#45;&gt;Node4 -->
<g id="edge19_Node000002_Node000004" class="edge">
<title>Node2&#45;&gt;Node4</title>
<g id="a_edge19_Node000002_Node000004"><a xlink:title=" ">
<path fill="none" stroke="#63b8ff" d="M650.54,-276.98C653.57,-276.31 656.59,-275.64 659.5,-275 733.66,-258.71 773.5,-293.37 826.5,-239 837.87,-227.34 840.2,-208.48 840.09,-194.34"/>
<polygon fill="#63b8ff" stroke="#63b8ff" points="843.58,-194.06 839.61,-184.24 836.59,-194.39 843.58,-194.06"/>
</a>
</g>
</g>
<!-- Node5 -->
<g id="Node000005" class="node">
<title>Node5</title>
<g id="a_Node000005"><a xlink:href="LogRecord_8h.html" target="_top" xlink:title=" ">
<polygon fill="white" stroke="#666666" points="1007,-129 930,-129 930,-110 1007,-110 1007,-129"/>
<text text-anchor="middle" x="968.5" y="-117" font-family="Helvetica,sans-Serif" font-size="10.00">LogRecord.h</text>
</a>
</g>
</g>
<!-- Node2&#45;&gt;Node5 -->
<g id="edge22_Node000002_Node000005" class="edge">
<title>Node2&#45;&gt;Node5</title>
<g id="a_edge22_Node000002_Node000005"><a xlink:title=" ">
<path fill="none" stroke="#63b8ff" d="M650.9,-276.61C653.8,-276.03 656.7,-275.48 659.5,-275 726.12,-263.61 915.16,-288.19 961.5,-239 986.85,-212.09 980.11,-164.71 973.81,-138.76"/>
<polygon fill="#63b8ff" stroke="#63b8ff" points="977.18,-137.84 971.23,-129.07 970.42,-139.64 977.18,-137.84"/>
</a>
</g>
</g>
<!-- Node6 -->
<g id="Node000006" class="node">
<title>Node6</title>
<g id="a_Node000006"><a xlink:href="LogLevel_8h.html" target="_top" xlink:title=" ">
<polygon fill="white" stroke="#666666" points="999,-74 930,-74 930,-55 999,-55 999,-74"/>
<text text-anchor="middle" x="964.5" y="-62" font-family="Helvetica,sans-Serif" font-size="10.00">LogLevel.h</text>
</a>
</g>
</g>
<!-- Node2&#45;&gt;Node6 -->
<g id="edge20_Node000002_Node000006" class="edge">
<title>Node2&#45;&gt;Node6</title>
<g id="a_edge20_Node000002_Node000006"><a xlink:title=" ">
<path fill="none" stroke="#63b8ff" d="M650.73,-276.87C698.42,-265.92 788.1,-244.69 792.5,-239 812.62,-212.98 775.03,-193.47 791.5,-165 819.05,-117.38 878.97,-90.56 920.51,-77.05"/>
<polygon fill="#63b8ff" stroke="#63b8ff" points="921.62,-80.37 930.12,-74.05 919.53,-73.69 921.62,-80.37"/>
</a>
</g>
</g>
<!-- Node8 -->
<g id="Node000008" class="node">
<title>Node8</title>
<g id="a_Node000008"><a xlink:href="LogModule_8h.html" target="_top" xlink:title=" ">
<polygon fill="white" stroke="#666666" points="1173,-74 1094,-74 1094,-55 1173,-55 1173,-74"/>
<text text-anchor="middle" x="1133.5" y="-62" font-family="Helvetica,sans-Serif" font-size="10.00">LogModule.h</text>
</a>
</g>
</g>
<!-- Node2&#45;&gt;Node8 -->
<g id="edge21_Node000002_Node000008" class="edge">
<title>Node2&#45;&gt;Node8</title>
<g id="a_edge21_Node000002_Node000008"><a xlink:title=" ">
<path fill="none" stroke="#63b8ff" d="M650.89,-276.57C653.79,-275.99 656.7,-275.46 659.5,-275 812.53,-250.03 865.09,-302.6 1006.5,-239 1072.48,-209.32 1093.78,-193.53 1126.5,-129 1133.48,-115.23 1134.94,-97.66 1134.82,-84.49"/>
<polygon fill="#63b8ff" stroke="#63b8ff" points="1138.31,-84.11 1134.4,-74.26 1131.31,-84.39 1138.31,-84.11"/>
</a>
</g>
</g>
<!-- Node12 -->
<g id="Node000012" class="node">
<title>Node12</title>
<g id="a_Node000012"><a xlink:title=" ">
<polygon fill="#e0e0e0" stroke="#999999" points="1117.5,-129 1025.5,-129 1025.5,-110 1117.5,-110 1117.5,-129"/>
<text text-anchor="middle" x="1071.5" y="-117" font-family="Helvetica,sans-Serif" font-size="10.00">QSharedPointer</text>
</a>
</g>
</g>
<!-- Node2&#45;&gt;Node12 -->
<g id="edge29_Node000002_Node000012" class="edge">
<title>Node2&#45;&gt;Node12</title>
<g id="a_edge29_Node000002_Node000012"><a xlink:title=" ">
<path fill="none" stroke="#63b8ff" d="M650.9,-276.59C653.8,-276.01 656.7,-275.47 659.5,-275 730.3,-263.15 917.99,-274.28 980.5,-239 1021.76,-215.71 1050.47,-165.33 1063.53,-138.37"/>
<polygon fill="#63b8ff" stroke="#63b8ff" points="1066.71,-139.83 1067.77,-129.29 1060.37,-136.87 1066.71,-139.83"/>
</a>
</g>
</g>
<!-- Node13 -->
<g id="Node000013" class="node">
<title>Node13</title>
<g id="a_Node000013"><a xlink:title=" ">
<polygon fill="#e0e0e0" stroke="#999999" points="281,-239 210,-239 210,-220 281,-220 281,-239"/>
<text text-anchor="middle" x="245.5" y="-227" font-family="Helvetica,sans-Serif" font-size="10.00">QAtomicInt</text>
</a>
</g>
</g>
<!-- Node2&#45;&gt;Node13 -->
<g id="edge23_Node000002_Node000013" class="edge">
<title>Node2&#45;&gt;Node13</title>
<g id="a_edge23_Node000002_Node000013"><a xlink:title=" ">
<path fill="none" stroke="#63b8ff" d="M592.1,-280.14C535.73,-273.56 408.33,-258.11 291.22,-239.2"/>
<polygon fill="#63b8ff" stroke="#63b8ff" points="291.44,-235.69 281.01,-237.54 290.32,-242.6 291.44,-235.69"/>
</a>
</g>
</g>
<!-- Node14 -->
<g id="Node000014" class="node">
<title>Node14</title>
<g id="a_Node000014"><a xlink:title=" ">
<polygon fill="#e0e0e0" stroke="#999999" points="348,-239 299,-239 299,-220 348,-220 348,-239"/>
<text text-anchor="middle" x="323.5" y="-227" font-family="Helvetica,sans-Serif" font-size="10.00">QHash</text>
</a>
</g>
</g>
<!-- Node2&#45;&gt;Node14 -->
<g id="edge24_Node000002_Node000014" class="edge">
<title>Node2&#45;&gt;Node14</title>
<g id="a_edge24_Node000002_Node000014"><a xlink:title=" ">
<path fill="none" stroke="#63b8ff" d="M592.33,-279.44C545.08,-272.68 448.7,-258.14 358.18,-239.22"/>
<polygon fill="#63b8ff" stroke="#63b8ff" points="358.82,-235.78 348.31,-237.13 357.37,-242.63 358.82,-235.78"/>
</a>
</g>
</g>
<!-- Node15 -->
<g id="Node000015" class="node">
<title>Node15</title>
<g id="a_Node000015"><a xlink:title=" ">
<polygon fill="#e0e0e0" stroke="#999999" points="407,-239 366,-239 366,-220 407,-220 407,-239"/>
<text text-anchor="middle" x="386.5" y="-227" font-family="Helvetica,sans-Serif" font-size="10.00">QList</text>
</a>
</g>
</g>
<!-- Node2&#45;&gt;Node15 -->
<g id="edge25_Node000002_Node000015" class="edge">
<title>Node2&#45;&gt;Node15</title>
<g id="a_edge25_Node000002_Node000015"><a xlink:title=" ">
<path fill="none" stroke="#63b8ff" d="M592.35,-277.89C554.17,-270.4 484.97,-256.31 417.05,-239.26"/>
<polygon fill="#63b8ff" stroke="#63b8ff" points="417.6,-235.79 407.04,-236.72 415.88,-242.57 417.6,-235.79"/>
</a>
</g>
</g>
<!-- Node16 -->
<g id="Node000016" class="node">
<title>Node16</title>
<g id="a_Node000016"><a xlink:title=" ">
<polygon fill="#e0e0e0" stroke="#999999" points="480,-239 425,-239 425,-220 480,-220 480,-239"/>
<text text-anchor="middle" x="452.5" y="-227" font-family="Helvetica,sans-Serif" font-size="10.00">QMutex</text>
</a>
</g>
</g>
<!-- Node2&#45;&gt;Node16 -->
<g id="edge26_Node000002_Node000016" class="edge">
<title>Node2&#45;&gt;Node16</title>
<g id="a_edge26_Node000002_Node000016"><a xlink:title=" ">
<path fill="none" stroke="#63b8ff" d="M594.35,-274.98C565.97,-266.09 521.27,-252.07 489.64,-242.15"/>
<polygon fill="#63b8ff" stroke="#63b8ff" points="490.45,-238.73 479.87,-239.08 488.36,-245.41 490.45,-238.73"/>
</a>
</g>
</g>
<!-- Node17 -->
<g id="Node000017" class="node">
<title>Node17</title>
<g id="a_Node000017"><a xlink:title=" ">
<polygon fill="#e0e0e0" stroke="#999999" points="554.5,-239 498.5,-239 498.5,-220 554.5,-220 554.5,-239"/>
<text text-anchor="middle" x="526.5" y="-227" font-family="Helvetica,sans-Serif" font-size="10.00">QObject</text>
</a>
</g>
</g>
<!-- Node2&#45;&gt;Node17 -->
<g id="edge27_Node000002_Node000017" class="edge">
<title>Node2&#45;&gt;Node17</title>
<g id="a_edge27_Node000002_Node000017"><a xlink:title=" ">
<path fill="none" stroke="#63b8ff" d="M606.24,-274.98C591.37,-266.69 568.52,-253.94 551.08,-244.22"/>
<polygon fill="#63b8ff" stroke="#63b8ff" points="552.48,-240.99 542.04,-239.17 549.07,-247.1 552.48,-240.99"/>
</a>
</g>
</g>
<!-- Node18 -->
<g id="Node000018" class="node">
<title>Node18</title>
<g id="a_Node000018"><a xlink:title=" ">
<polygon fill="#e0e0e0" stroke="#999999" points="670.5,-239 572.5,-239 572.5,-220 670.5,-220 670.5,-239"/>
<text text-anchor="middle" x="621.5" y="-227" font-family="Helvetica,sans-Serif" font-size="10.00">QReadWriteLock</text>
</a>
</g>
</g>
<!-- Node2&#45;&gt;Node18 -->
<g id="edge28_Node000002_Node000018" class="edge">
<title>Node2&#45;&gt;Node18</title>
<g id="a_edge28_Node000002_Node000018"><a xlink:title=" ">
<path fill="none" stroke="#63b8ff" d="M621.5,-274.75C621.5,-267.8 621.5,-257.85 621.5,-249.13"/>
<polygon fill="#63b8ff" stroke="#63b8ff" points="625,-249.09 621.5,-239.09 618,-249.09 625,-249.09"/>
</a>
</g>
</g>
<!-- Node19 -->
<g id="Node000019" class="node">
<title>Node19</title>
<g id="a_Node000019"><a xlink:title=" ">
<polygon fill="#e0e0e0" stroke="#999999" points="784,-239 689,-239 689,-220 784,-220 784,-239"/>
<text text-anchor="middle" x="736.5" y="-227" font-family="Helvetica,sans-Serif" font-size="10.00">QThreadStorage</text>
</a>
</g>
</g>
<!-- Node2&#45;&gt;Node19 -->
<g id="edge30_Node000002_Node000019" class="edge">
<title>Node2&#45;&gt;Node19</title>
<g id="a_edge30_Node000002_Node000019"><a xlink:title=" ">
<path fill="none" stroke="#63b8ff" d="M639.98,-274.98C658.48,-266.46 687.18,-253.23 708.48,-243.41"/>
<polygon fill="#63b8ff" stroke="#63b8ff" points="710.07,-246.53 717.69,-239.17 707.14,-240.18 710.07,-246.53"/>
</a>
</g>
</g>
<!-- Node3&#45;&gt;Node4 -->
<g id="edge3_Node000003_Node000004" class="edge">
<title>Node3&#45;&gt;Node4</title>
<g id="a_edge3_Node000003_Node000004"><a xlink:title=" ">
<path fill="none" stroke="#63b8ff" d="M903.13,-219.98C891.41,-211.92 873.58,-199.65 859.61,-190.03"/>
<polygon fill="#63b8ff" stroke="#63b8ff" points="861.32,-186.96 851.1,-184.17 857.35,-192.72 861.32,-186.96"/>
</a>
</g>
</g>
<!-- Node3&#45;&gt;Node5 -->
<g id="edge16_Node000003_Node000005" class="edge">
<title>Node3&#45;&gt;Node5</title>
<g id="a_edge16_Node000003_Node000005"><a xlink:title=" ">
<path fill="none" stroke="#63b8ff" d="M919.84,-219.66C928.54,-201.93 948.27,-161.73 959.76,-138.32"/>
<polygon fill="#63b8ff" stroke="#63b8ff" points="962.99,-139.68 964.25,-129.16 956.7,-136.59 962.99,-139.68"/>
</a>
</g>
</g>
<!-- Node7 -->
<g id="Node000007" class="node">
<title>Node7</title>
<g id="a_Node000007"><a xlink:title=" ">
<polygon fill="#e0e0e0" stroke="#999999" points="960,-19 907,-19 907,0 960,0 960,-19"/>
<text text-anchor="middle" x="933.5" y="-7" font-family="Helvetica,sans-Serif" font-size="10.00">QString</text>
</a>
</g>
</g>
<!-- Node3&#45;&gt;Node7 -->
<g id="edge18_Node000003_Node000007" class="edge">
<title>Node3&#45;&gt;Node7</title>
<g id="a_edge18_Node000003_Node000007"><a xlink:title=" ">
<path fill="none" stroke="#63b8ff" d="M914.97,-219.76C913.59,-194.21 910.64,-117.51 920.5,-55 921.88,-46.25 924.47,-36.81 926.98,-28.88"/>
<polygon fill="#63b8ff" stroke="#63b8ff" points="930.36,-29.81 930.23,-19.21 923.73,-27.58 930.36,-29.81"/>
</a>
</g>
</g>
<!-- Node3&#45;&gt;Node12 -->
<g id="edge17_Node000003_Node000012" class="edge">
<title>Node3&#45;&gt;Node12</title>
<g id="a_edge17_Node000003_Node000012"><a xlink:title=" ">
<path fill="none" stroke="#63b8ff" d="M928,-219.84C954.7,-201.36 1017.54,-157.86 1050.49,-135.05"/>
<polygon fill="#63b8ff" stroke="#63b8ff" points="1052.71,-137.77 1058.94,-129.2 1048.72,-132.01 1052.71,-137.77"/>
</a>
</g>
</g>
<!-- Node4&#45;&gt;Node5 -->
<g id="edge4_Node000004_Node000005" class="edge">
<title>Node4&#45;&gt;Node5</title>
<g id="a_edge4_Node000004_Node000005"><a xlink:title=" ">
<path fill="none" stroke="#63b8ff" d="M859.39,-164.98C880.58,-156.34 913.63,-142.87 937.8,-133.02"/>
<polygon fill="#63b8ff" stroke="#63b8ff" points="939.29,-136.19 947.23,-129.17 936.65,-129.7 939.29,-136.19"/>
</a>
</g>
</g>
<!-- Node4&#45;&gt;Node7 -->
<g id="edge15_Node000004_Node000007" class="edge">
<title>Node4&#45;&gt;Node7</title>
<g id="a_edge15_Node000004_Node000007"><a xlink:title=" ">
<path fill="none" stroke="#63b8ff" d="M829.71,-164.71C810.02,-143.95 766.15,-90.95 792.5,-55 816.19,-22.68 863.42,-13.23 896.67,-10.78"/>
<polygon fill="#63b8ff" stroke="#63b8ff" points="897.14,-14.26 906.93,-10.21 896.75,-7.27 897.14,-14.26"/>
</a>
</g>
</g>
<!-- Node4&#45;&gt;Node12 -->
<g id="edge14_Node000004_Node000012" class="edge">
<title>Node4&#45;&gt;Node12</title>
<g id="a_edge14_Node000004_Node000012"><a xlink:title=" ">
<path fill="none" stroke="#63b8ff" d="M875.94,-164.98C916.15,-155.84 980.18,-141.27 1023.94,-131.32"/>
<polygon fill="#63b8ff" stroke="#63b8ff" points="1024.8,-134.71 1033.77,-129.08 1023.24,-127.89 1024.8,-134.71"/>
</a>
</g>
</g>
<!-- Node5&#45;&gt;Node6 -->
<g id="edge5_Node000005_Node000006" class="edge">
<title>Node5&#45;&gt;Node6</title>
<g id="a_edge5_Node000005_Node000006"><a xlink:title=" ">
<path fill="none" stroke="#63b8ff" d="M967.84,-109.75C967.32,-102.8 966.56,-92.85 965.91,-84.13"/>
<polygon fill="#63b8ff" stroke="#63b8ff" points="969.39,-83.8 965.15,-74.09 962.41,-84.32 969.39,-83.8"/>
</a>
</g>
</g>
<!-- Node5&#45;&gt;Node7 -->
<g id="edge12_Node000005_Node000007" class="edge">
<title>Node5&#45;&gt;Node7</title>
<g id="a_edge12_Node000005_Node000007"><a xlink:title=" ">
<path fill="none" stroke="#63b8ff" d="M980.84,-109.82C996.42,-97.72 1019.91,-75.04 1008.5,-55 1000.02,-40.11 984.37,-29.68 969.56,-22.69"/>
<polygon fill="#63b8ff" stroke="#63b8ff" points="970.59,-19.32 960.02,-18.58 967.82,-25.75 970.59,-19.32"/>
</a>
</g>
</g>
<!-- Node5&#45;&gt;Node8 -->
<g id="edge7_Node000005_Node000008" class="edge">
<title>Node5&#45;&gt;Node8</title>
<g id="a_edge7_Node000005_Node000008"><a xlink:title=" ">
<path fill="none" stroke="#63b8ff" d="M995.01,-109.98C1022.71,-101.09 1066.36,-87.07 1097.24,-77.15"/>
<polygon fill="#63b8ff" stroke="#63b8ff" points="1098.33,-80.47 1106.78,-74.08 1096.19,-73.81 1098.33,-80.47"/>
</a>
</g>
</g>
<!-- Node10 -->
<g id="Node000010" class="node">
<title>Node10</title>
<g id="a_Node000010"><a xlink:title=" ">
<polygon fill="#e0e0e0" stroke="#999999" points="1095,-19 1036,-19 1036,0 1095,0 1095,-19"/>
<text text-anchor="middle" x="1065.5" y="-7" font-family="Helvetica,sans-Serif" font-size="10.00">QtGlobal</text>
</a>
</g>
</g>
<!-- Node5&#45;&gt;Node10 -->
<g id="edge13_Node000005_Node000010" class="edge">
<title>Node5&#45;&gt;Node10</title>
<g id="a_edge13_Node000005_Node000010"><a xlink:title=" ">
<path fill="none" stroke="#63b8ff" d="M981.22,-109.93C993.01,-101.6 1010.62,-88.18 1023.5,-74 1036.25,-59.97 1047.9,-41.72 1055.67,-28.39"/>
<polygon fill="#63b8ff" stroke="#63b8ff" points="1058.94,-29.74 1060.82,-19.31 1052.85,-26.28 1058.94,-29.74"/>
</a>
</g>
</g>
<!-- Node5&#45;&gt;Node11 -->
<g id="edge11_Node000005_Node000011" class="edge">
<title>Node5&#45;&gt;Node11</title>
<g id="a_edge11_Node000005_Node000011"><a xlink:title=" ">
<path fill="none" stroke="#63b8ff" d="M947.45,-109.98C926.09,-101.34 892.8,-87.87 868.44,-78.02"/>
<polygon fill="#63b8ff" stroke="#63b8ff" points="869.51,-74.68 858.93,-74.17 866.89,-81.17 869.51,-74.68"/>
</a>
</g>
</g>
<!-- Node6&#45;&gt;Node7 -->
<g id="edge6_Node000006_Node000007" class="edge">
<title>Node6&#45;&gt;Node7</title>
<g id="a_edge6_Node000006_Node000007"><a xlink:title=" ">
<path fill="none" stroke="#63b8ff" d="M959.38,-54.75C955.14,-47.49 948.97,-36.95 943.72,-27.98"/>
<polygon fill="#63b8ff" stroke="#63b8ff" points="946.59,-25.95 938.52,-19.09 940.55,-29.49 946.59,-25.95"/>
</a>
</g>
</g>
<!-- Node8&#45;&gt;Node7 -->
<g id="edge8_Node000008_Node000007" class="edge">
<title>Node8&#45;&gt;Node7</title>
<g id="a_edge8_Node000008_Node000007"><a xlink:title=" ">
<path fill="none" stroke="#63b8ff" d="M1101.37,-54.98C1065.54,-45.49 1007.7,-30.16 970.14,-20.21"/>
<polygon fill="#63b8ff" stroke="#63b8ff" points="970.68,-16.73 960.11,-17.55 968.88,-23.5 970.68,-16.73"/>
</a>
</g>
</g>
<!-- Node9 -->
<g id="Node000009" class="node">
<title>Node9</title>
<g id="a_Node000009"><a xlink:title=" ">
<polygon fill="#e0e0e0" stroke="#999999" points="1183.5,-19 1113.5,-19 1113.5,0 1183.5,0 1183.5,-19"/>
<text text-anchor="middle" x="1148.5" y="-7" font-family="Helvetica,sans-Serif" font-size="10.00">QStringList</text>
</a>
</g>
</g>
<!-- Node8&#45;&gt;Node9 -->
<g id="edge9_Node000008_Node000009" class="edge">
<title>Node8&#45;&gt;Node9</title>
<g id="a_edge9_Node000008_Node000009"><a xlink:title=" ">
<path fill="none" stroke="#63b8ff" d="M1135.98,-54.75C1137.96,-47.72 1140.82,-37.62 1143.31,-28.84"/>
<polygon fill="#63b8ff" stroke="#63b8ff" points="1146.71,-29.66 1146.07,-19.09 1139.98,-27.76 1146.71,-29.66"/>
</a>
</g>
</g>
<!-- Node8&#45;&gt;Node10 -->
<g id="edge10_Node000008_Node000010" class="edge">
<title>Node8&#45;&gt;Node10</title>
<g id="a_edge10_Node000008_Node000010"><a xlink:title=" ">
<path fill="none" stroke="#63b8ff" d="M1122.57,-54.98C1112.42,-47.07 1097.08,-35.11 1084.85,-25.58"/>
<polygon fill="#63b8ff" stroke="#63b8ff" points="1086.66,-22.56 1076.62,-19.17 1082.36,-28.08 1086.66,-22.56"/>
</a>
</g>
</g>
<!-- Node20&#45;&gt;Node4 -->
<g id="edge32_Node000020_Node000004" class="edge">
<title>Node20&#45;&gt;Node4</title>
<g id="a_edge32_Node000020_Node000004"><a xlink:title=" ">
<path fill="none" stroke="#63b8ff" d="M153.22,-223.84C168.49,-222.55 185.15,-221.18 200.5,-220 420.67,-203.06 683.8,-185.58 790.27,-178.63"/>
<polygon fill="#63b8ff" stroke="#63b8ff" points="790.62,-182.11 800.37,-177.97 790.17,-175.13 790.62,-182.11"/>
</a>
</g>
</g>
<!-- Node20&#45;&gt;Node7 -->
<g id="edge34_Node000020_Node000007" class="edge">
<title>Node20&#45;&gt;Node7</title>
<g id="a_edge34_Node000020_Node000007"><a xlink:title=" ">
<path fill="none" stroke="#63b8ff" d="M104.17,-219.89C118.66,-193.21 162.25,-113.51 167.5,-110 289.19,-28.61 760.5,-13.68 896.54,-11.04"/>
<polygon fill="#63b8ff" stroke="#63b8ff" points="896.91,-14.54 906.84,-10.85 896.78,-7.54 896.91,-14.54"/>
</a>
</g>
</g>
<!-- Node21 -->
<g id="Node000021" class="node">
<title>Node21</title>
<g id="a_Node000021"><a xlink:title=" ">
<polygon fill="#e0e0e0" stroke="#999999" points="115,-184 0,-184 0,-165 115,-165 115,-184"/>
<text text-anchor="middle" x="57.5" y="-172" font-family="Helvetica,sans-Serif" font-size="10.00">QRegularExpression</text>
</a>
</g>
</g>
<!-- Node20&#45;&gt;Node21 -->
<g id="edge33_Node000020_Node000021" class="edge">
<title>Node20&#45;&gt;Node21</title>
<g id="a_edge33_Node000020_Node000021"><a xlink:title=" ">
<path fill="none" stroke="#63b8ff" d="M92.56,-219.75C86.63,-212.26 77.93,-201.28 70.68,-192.13"/>
<polygon fill="#63b8ff" stroke="#63b8ff" points="73.26,-189.75 64.31,-184.09 67.77,-194.1 73.26,-189.75"/>
</a>
</g>
</g>
</g>
</svg>
