<?xml version="1.0" encoding="UTF-8" standalone="no"?>
<!DOCTYPE svg PUBLIC "-//W3C//DTD SVG 1.1//EN"
 "http://www.w3.org/Graphics/SVG/1.1/DTD/svg11.dtd">
<!-- Generated by graphviz version 2.43.0 (0)
 -->
<!-- Title: utils/logging/Logger.h Pages: 1 -->
<svg width="400pt" height="247pt"
 viewBox="0.00 0.00 400.00 247.00" xmlns="http://www.w3.org/2000/svg" xmlns:xlink="http://www.w3.org/1999/xlink">
<g id="graph0" class="graph" transform="scale(1 1) rotate(0) translate(4 243)">
<title>utils/logging/Logger.h</title>
<!-- Node1 -->
<g id="Node000001" class="node">
<title>Node1</title>
<g id="a_Node000001"><a xlink:title=" ">
<polygon fill="#999999" stroke="#666666" points="242.5,-239 121.5,-239 121.5,-220 242.5,-220 242.5,-239"/>
<text text-anchor="middle" x="182" y="-227" font-family="Helvetica,sans-Serif" font-size="10.00">utils/logging/Logger.h</text>
</a>
</g>
</g>
<!-- Node2 -->
<g id="Node000002" class="node">
<title>Node2</title>
<g id="a_Node000002"><a xlink:href="Log_8h.html" target="_top" xlink:title="EasyKiConverter 日志系统统一入口">
<polygon fill="white" stroke="#666666" points="106,-74 0,-74 0,-55 106,-55 106,-74"/>
<text text-anchor="middle" x="53" y="-62" font-family="Helvetica,sans-Serif" font-size="10.00">utils/logging/Log.h</text>
</a>
</g>
</g>
<!-- Node1&#45;&gt;Node2 -->
<g id="edge1_Node000001_Node000002" class="edge">
<title>Node1&#45;&gt;Node2</title>
<g id="a_edge1_Node000001_Node000002"><a xlink:title=" ">
<path fill="none" stroke="#63b8ff" d="M111.52,-220.42C89.13,-214.15 66.66,-203.16 53,-184 28.76,-149.99 42.96,-95.41 49.88,-74.26"/>
<polygon fill="#63b8ff" stroke="#63b8ff" points="110.88,-223.87 121.43,-222.91 112.58,-217.08 110.88,-223.87"/>
</a>
</g>
</g>
<!-- Node4 -->
<g id="Node000004" class="node">
<title>Node4</title>
<g id="a_Node000004"><a xlink:href="LogMacros_8h.html" target="_top" xlink:title=" ">
<polygon fill="white" stroke="#666666" points="203.5,-184 62.5,-184 62.5,-165 203.5,-165 203.5,-184"/>
<text text-anchor="middle" x="133" y="-172" font-family="Helvetica,sans-Serif" font-size="10.00">utils/logging/LogMacros.h</text>
</a>
</g>
</g>
<!-- Node1&#45;&gt;Node4 -->
<g id="edge3_Node000001_Node000004" class="edge">
<title>Node1&#45;&gt;Node4</title>
<g id="a_edge3_Node000001_Node000004"><a xlink:title=" ">
<path fill="none" stroke="#63b8ff" d="M166.97,-212.24C158.38,-202.95 147.96,-191.68 140.94,-184.09"/>
<polygon fill="#63b8ff" stroke="#63b8ff" points="164.55,-214.78 173.91,-219.75 169.69,-210.03 164.55,-214.78"/>
</a>
</g>
</g>
<!-- Node5 -->
<g id="Node000005" class="node">
<title>Node5</title>
<g id="a_Node000005"><a xlink:href="QtLogAdapter_8h.html" target="_top" xlink:title=" ">
<polygon fill="white" stroke="#666666" points="276.5,-129 121.5,-129 121.5,-110 276.5,-110 276.5,-129"/>
<text text-anchor="middle" x="199" y="-117" font-family="Helvetica,sans-Serif" font-size="10.00">utils/logging/QtLogAdapter.h</text>
</a>
</g>
</g>
<!-- Node1&#45;&gt;Node5 -->
<g id="edge9_Node000001_Node000005" class="edge">
<title>Node1&#45;&gt;Node5</title>
<g id="a_edge9_Node000001_Node000005"><a xlink:title=" ">
<path fill="none" stroke="#63b8ff" d="M196.97,-212.18C203.22,-204.28 209.77,-194.29 213,-184 219.02,-164.83 209.9,-141.62 203.78,-129.25"/>
<polygon fill="#63b8ff" stroke="#63b8ff" points="194.27,-209.96 190.48,-219.85 199.61,-214.48 194.27,-209.96"/>
</a>
</g>
</g>
<!-- Node7 -->
<g id="Node000007" class="node">
<title>Node7</title>
<g id="a_Node000007"><a xlink:href="Logger_8cpp.html" target="_top" xlink:title=" ">
<polygon fill="white" stroke="#666666" points="392,-184 260,-184 260,-165 392,-165 392,-184"/>
<text text-anchor="middle" x="326" y="-172" font-family="Helvetica,sans-Serif" font-size="10.00">utils/logging/Logger.cpp</text>
</a>
</g>
</g>
<!-- Node1&#45;&gt;Node7 -->
<g id="edge8_Node000001_Node000007" class="edge">
<title>Node1&#45;&gt;Node7</title>
<g id="a_edge8_Node000001_Node000007"><a xlink:title=" ">
<path fill="none" stroke="#63b8ff" d="M214.82,-216.42C241.53,-206.59 278.6,-192.95 302.44,-184.17"/>
<polygon fill="#63b8ff" stroke="#63b8ff" points="213.31,-213.25 205.14,-219.98 215.73,-219.82 213.31,-213.25"/>
</a>
</g>
</g>
<!-- Node3 -->
<g id="Node000003" class="node">
<title>Node3</title>
<g id="a_Node000003"><a xlink:href="main_8cpp.html" target="_top" xlink:title=" ">
<polygon fill="white" stroke="#666666" points="84,-19 22,-19 22,0 84,0 84,-19"/>
<text text-anchor="middle" x="53" y="-7" font-family="Helvetica,sans-Serif" font-size="10.00">main.cpp</text>
</a>
</g>
</g>
<!-- Node2&#45;&gt;Node3 -->
<g id="edge2_Node000002_Node000003" class="edge">
<title>Node2&#45;&gt;Node3</title>
<g id="a_edge2_Node000002_Node000003"><a xlink:title=" ">
<path fill="none" stroke="#63b8ff" d="M53,-44.66C53,-35.93 53,-25.99 53,-19.09"/>
<polygon fill="#63b8ff" stroke="#63b8ff" points="49.5,-44.75 53,-54.75 56.5,-44.75 49.5,-44.75"/>
</a>
</g>
</g>
<!-- Node4&#45;&gt;Node2 -->
<g id="edge4_Node000004_Node000002" class="edge">
<title>Node4&#45;&gt;Node2</title>
<g id="a_edge4_Node000004_Node000002"><a xlink:title=" ">
<path fill="none" stroke="#63b8ff" d="M120.32,-156.38C103,-133.01 72.61,-91.97 59.41,-74.16"/>
<polygon fill="#63b8ff" stroke="#63b8ff" points="117.69,-158.71 126.45,-164.66 123.31,-154.54 117.69,-158.71"/>
</a>
</g>
</g>
<!-- Node4&#45;&gt;Node5 -->
<g id="edge5_Node000004_Node000005" class="edge">
<title>Node4&#45;&gt;Node5</title>
<g id="a_edge5_Node000004_Node000005"><a xlink:title=" ">
<path fill="none" stroke="#63b8ff" d="M151.55,-158.6C163.38,-149.11 178.29,-137.13 188.2,-129.17"/>
<polygon fill="#63b8ff" stroke="#63b8ff" points="149.21,-155.99 143.6,-164.98 153.59,-161.45 149.21,-155.99"/>
</a>
</g>
</g>
<!-- Node5&#45;&gt;Node2 -->
<g id="edge6_Node000005_Node000002" class="edge">
<title>Node5&#45;&gt;Node2</title>
<g id="a_edge6_Node000005_Node000002"><a xlink:title=" ">
<path fill="none" stroke="#63b8ff" d="M166.08,-106.55C138.97,-96.71 101.17,-82.98 76.88,-74.17"/>
<polygon fill="#63b8ff" stroke="#63b8ff" points="164.95,-109.86 175.54,-109.98 167.34,-103.28 164.95,-109.86"/>
</a>
</g>
</g>
<!-- Node6 -->
<g id="Node000006" class="node">
<title>Node6</title>
<g id="a_Node000006"><a xlink:href="QtLogAdapter_8cpp.html" target="_top" xlink:title=" ">
<polygon fill="white" stroke="#666666" points="290,-74 124,-74 124,-55 290,-55 290,-74"/>
<text text-anchor="middle" x="207" y="-62" font-family="Helvetica,sans-Serif" font-size="10.00">utils/logging/QtLogAdapter.cpp</text>
</a>
</g>
</g>
<!-- Node5&#45;&gt;Node6 -->
<g id="edge7_Node000005_Node000006" class="edge">
<title>Node5&#45;&gt;Node6</title>
<g id="a_edge7_Node000005_Node000006"><a xlink:title=" ">
<path fill="none" stroke="#63b8ff" d="M201.84,-99.66C203.16,-90.93 204.66,-80.99 205.7,-74.09"/>
<polygon fill="#63b8ff" stroke="#63b8ff" points="198.35,-99.34 200.32,-109.75 205.27,-100.38 198.35,-99.34"/>
</a>
</g>
</g>
</g>
</svg>
