<?xml version="1.0" encoding="UTF-8" standalone="no"?>
<!DOCTYPE svg PUBLIC "-//W3C//DTD SVG 1.1//EN"
 "http://www.w3.org/Graphics/SVG/1.1/DTD/svg11.dtd">
<!-- Generated by graphviz version 2.43.0 (0)
 -->
<!-- Title: utils/logging/Logger.h Pages: 1 -->
<svg width="951pt" height="302pt"
 viewBox="0.00 0.00 950.53 302.00" xmlns="http://www.w3.org/2000/svg" xmlns:xlink="http://www.w3.org/1999/xlink">
<g id="graph0" class="graph" transform="scale(1 1) rotate(0) translate(4 298)">
<title>utils/logging/Logger.h</title>
<!-- Node1 -->
<g id="Node000001" class="node">
<title>Node1</title>
<g id="a_Node000001"><a xlink:title=" ">
<polygon fill="#999999" stroke="#666666" points="464.53,-294 343.53,-294 343.53,-275 464.53,-275 464.53,-294"/>
<text text-anchor="middle" x="404.03" y="-282" font-family="Helvetica,sans-Serif" font-size="10.00">utils/logging/Logger.h</text>
</a>
</g>
</g>
<!-- Node2 -->
<g id="Node000002" class="node">
<title>Node2</title>
<g id="a_Node000002"><a xlink:href="IAppender_8h.html" target="_top" xlink:title=" ">
<polygon fill="white" stroke="#666666" points="235.03,-239 161.03,-239 161.03,-220 235.03,-220 235.03,-239"/>
<text text-anchor="middle" x="198.03" y="-227" font-family="Helvetica,sans-Serif" font-size="10.00">IAppender.h</text>
</a>
</g>
</g>
<!-- Node1&#45;&gt;Node2 -->
<g id="edge1_Node000001_Node000002" class="edge">
<title>Node1&#45;&gt;Node2</title>
<g id="a_edge1_Node000001_Node000002"><a xlink:title=" ">
<path fill="none" stroke="#63b8ff" d="M370.93,-274.98C335.75,-265.93 279.96,-251.58 241.31,-241.64"/>
<polygon fill="#63b8ff" stroke="#63b8ff" points="241.94,-238.18 231.39,-239.08 240.2,-244.96 241.94,-238.18"/>
</a>
</g>
</g>
<!-- Node3 -->
<g id="Node000003" class="node">
<title>Node3</title>
<g id="a_Node000003"><a xlink:href="IFormatter_8h.html" target="_top" xlink:title=" ">
<polygon fill="white" stroke="#666666" points="236.03,-184 160.03,-184 160.03,-165 236.03,-165 236.03,-184"/>
<text text-anchor="middle" x="198.03" y="-172" font-family="Helvetica,sans-Serif" font-size="10.00">IFormatter.h</text>
</a>
</g>
</g>
<!-- Node1&#45;&gt;Node3 -->
<g id="edge18_Node000001_Node000003" class="edge">
<title>Node1&#45;&gt;Node3</title>
<g id="a_edge18_Node000001_Node000003"><a xlink:title=" ">
<path fill="none" stroke="#63b8ff" d="M375.99,-274.92C351.96,-267.07 316.76,-254.34 288.03,-239 261.74,-224.97 234.11,-204.49 216.51,-190.61"/>
<polygon fill="#63b8ff" stroke="#63b8ff" points="218.27,-187.54 208.28,-184.03 213.9,-193.01 218.27,-187.54"/>
</a>
</g>
</g>
<!-- Node4 -->
<g id="Node000004" class="node">
<title>Node4</title>
<g id="a_Node000004"><a xlink:href="LogRecord_8h.html" target="_top" xlink:title=" ">
<polygon fill="white" stroke="#666666" points="307.53,-129 230.53,-129 230.53,-110 307.53,-110 307.53,-129"/>
<text text-anchor="middle" x="269.03" y="-117" font-family="Helvetica,sans-Serif" font-size="10.00">LogRecord.h</text>
</a>
</g>
</g>
<!-- Node1&#45;&gt;Node4 -->
<g id="edge21_Node000001_Node000004" class="edge">
<title>Node1&#45;&gt;Node4</title>
<g id="a_edge21_Node000001_Node000004"><a xlink:title=" ">
<path fill="none" stroke="#63b8ff" d="M381.45,-274.98C364.42,-267.62 341.44,-255.54 326.03,-239 298.5,-209.47 281.81,-164.2 274.11,-139.02"/>
<polygon fill="#63b8ff" stroke="#63b8ff" points="277.43,-137.9 271.28,-129.28 270.71,-139.85 277.43,-137.9"/>
</a>
</g>
</g>
<!-- Node5 -->
<g id="Node000005" class="node">
<title>Node5</title>
<g id="a_Node000005"><a xlink:href="LogLevel_8h.html" target="_top" xlink:title=" ">
<polygon fill="white" stroke="#666666" points="171.53,-74 102.53,-74 102.53,-55 171.53,-55 171.53,-74"/>
<text text-anchor="middle" x="137.03" y="-62" font-family="Helvetica,sans-Serif" font-size="10.00">LogLevel.h</text>
</a>
</g>
</g>
<!-- Node1&#45;&gt;Node5 -->
<g id="edge19_Node000001_Node000005" class="edge">
<title>Node1&#45;&gt;Node5</title>
<g id="a_edge19_Node000001_Node000005"><a xlink:title=" ">
<path fill="none" stroke="#63b8ff" d="M343.27,-284.08C283.79,-282.37 192.02,-273.57 121.03,-239 56.57,-207.61 31.62,-194.75 3.03,-129 -13.96,-89.93 47.01,-74.84 92.25,-69.05"/>
<polygon fill="#63b8ff" stroke="#63b8ff" points="92.67,-72.52 102.2,-67.89 91.86,-65.57 92.67,-72.52"/>
</a>
</g>
</g>
<!-- Node7 -->
<g id="Node000007" class="node">
<title>Node7</title>
<g id="a_Node000007"><a xlink:href="LogModule_8h.html" target="_top" xlink:title=" ">
<polygon fill="white" stroke="#666666" points="473.53,-74 394.53,-74 394.53,-55 473.53,-55 473.53,-74"/>
<text text-anchor="middle" x="434.03" y="-62" font-family="Helvetica,sans-Serif" font-size="10.00">LogModule.h</text>
</a>
</g>
</g>
<!-- Node1&#45;&gt;Node7 -->
<g id="edge20_Node000001_Node000007" class="edge">
<title>Node1&#45;&gt;Node7</title>
<g id="a_edge20_Node000001_Node000007"><a xlink:title=" ">
<path fill="none" stroke="#63b8ff" d="M391.25,-275C380.64,-267.1 366.31,-254.27 360.03,-239 356.82,-231.19 358.16,-228.23 360.03,-220 372.17,-166.56 405.17,-110 422.72,-82.5"/>
<polygon fill="#63b8ff" stroke="#63b8ff" points="425.7,-84.33 428.22,-74.04 419.83,-80.52 425.7,-84.33"/>
</a>
</g>
</g>
<!-- Node11 -->
<g id="Node000011" class="node">
<title>Node11</title>
<g id="a_Node000011"><a xlink:title=" ">
<polygon fill="#e0e0e0" stroke="#999999" points="104.03,-129 12.03,-129 12.03,-110 104.03,-110 104.03,-129"/>
<text text-anchor="middle" x="58.03" y="-117" font-family="Helvetica,sans-Serif" font-size="10.00">QSharedPointer</text>
</a>
</g>
</g>
<!-- Node1&#45;&gt;Node11 -->
<g id="edge28_Node000001_Node000011" class="edge">
<title>Node1&#45;&gt;Node11</title>
<g id="a_edge28_Node000001_Node000011"><a xlink:title=" ">
<path fill="none" stroke="#63b8ff" d="M343.37,-282.64C290.27,-279.66 212.4,-269.75 152.03,-239 109.08,-217.12 79.4,-165.7 66.03,-138.34"/>
<polygon fill="#63b8ff" stroke="#63b8ff" points="69.14,-136.72 61.72,-129.15 62.8,-139.69 69.14,-136.72"/>
</a>
</g>
</g>
<!-- Node12 -->
<g id="Node000012" class="node">
<title>Node12</title>
<g id="a_Node000012"><a xlink:title=" ">
<polygon fill="#e0e0e0" stroke="#999999" points="439.53,-239 368.53,-239 368.53,-220 439.53,-220 439.53,-239"/>
<text text-anchor="middle" x="404.03" y="-227" font-family="Helvetica,sans-Serif" font-size="10.00">QAtomicInt</text>
</a>
</g>
</g>
<!-- Node1&#45;&gt;Node12 -->
<g id="edge22_Node000001_Node000012" class="edge">
<title>Node1&#45;&gt;Node12</title>
<g id="a_edge22_Node000001_Node000012"><a xlink:title=" ">
<path fill="none" stroke="#63b8ff" d="M404.03,-274.75C404.03,-267.8 404.03,-257.85 404.03,-249.13"/>
<polygon fill="#63b8ff" stroke="#63b8ff" points="407.53,-249.09 404.03,-239.09 400.53,-249.09 407.53,-249.09"/>
</a>
</g>
</g>
<!-- Node13 -->
<g id="Node000013" class="node">
<title>Node13</title>
<g id="a_Node000013"><a xlink:title=" ">
<polygon fill="#e0e0e0" stroke="#999999" points="506.53,-239 457.53,-239 457.53,-220 506.53,-220 506.53,-239"/>
<text text-anchor="middle" x="482.03" y="-227" font-family="Helvetica,sans-Serif" font-size="10.00">QHash</text>
</a>
</g>
</g>
<!-- Node1&#45;&gt;Node13 -->
<g id="edge23_Node000001_Node000013" class="edge">
<title>Node1&#45;&gt;Node13</title>
<g id="a_edge23_Node000001_Node000013"><a xlink:title=" ">
<path fill="none" stroke="#63b8ff" d="M416.56,-274.98C428.43,-266.92 446.49,-254.65 460.64,-245.03"/>
<polygon fill="#63b8ff" stroke="#63b8ff" points="462.97,-247.69 469.27,-239.17 459.03,-241.9 462.97,-247.69"/>
</a>
</g>
</g>
<!-- Node14 -->
<g id="Node000014" class="node">
<title>Node14</title>
<g id="a_Node000014"><a xlink:title=" ">
<polygon fill="#e0e0e0" stroke="#999999" points="565.53,-239 524.53,-239 524.53,-220 565.53,-220 565.53,-239"/>
<text text-anchor="middle" x="545.03" y="-227" font-family="Helvetica,sans-Serif" font-size="10.00">QList</text>
</a>
</g>
</g>
<!-- Node1&#45;&gt;Node14 -->
<g id="edge24_Node000001_Node000014" class="edge">
<title>Node1&#45;&gt;Node14</title>
<g id="a_edge24_Node000001_Node000014"><a xlink:title=" ">
<path fill="none" stroke="#63b8ff" d="M426.68,-274.98C450.57,-266.01 488.32,-251.82 514.75,-241.88"/>
<polygon fill="#63b8ff" stroke="#63b8ff" points="516.14,-245.1 524.27,-238.3 513.68,-238.55 516.14,-245.1"/>
</a>
</g>
</g>
<!-- Node15 -->
<g id="Node000015" class="node">
<title>Node15</title>
<g id="a_Node000015"><a xlink:title=" ">
<polygon fill="#e0e0e0" stroke="#999999" points="638.53,-239 583.53,-239 583.53,-220 638.53,-220 638.53,-239"/>
<text text-anchor="middle" x="611.03" y="-227" font-family="Helvetica,sans-Serif" font-size="10.00">QMutex</text>
</a>
</g>
</g>
<!-- Node1&#45;&gt;Node15 -->
<g id="edge25_Node000001_Node000015" class="edge">
<title>Node1&#45;&gt;Node15</title>
<g id="a_edge25_Node000001_Node000015"><a xlink:title=" ">
<path fill="none" stroke="#63b8ff" d="M437.29,-274.98C474.53,-265.45 534.75,-250.03 573.61,-240.08"/>
<polygon fill="#63b8ff" stroke="#63b8ff" points="574.66,-243.42 583.48,-237.55 572.93,-236.64 574.66,-243.42"/>
</a>
</g>
</g>
<!-- Node16 -->
<g id="Node000016" class="node">
<title>Node16</title>
<g id="a_Node000016"><a xlink:title=" ">
<polygon fill="#e0e0e0" stroke="#999999" points="713.03,-239 657.03,-239 657.03,-220 713.03,-220 713.03,-239"/>
<text text-anchor="middle" x="685.03" y="-227" font-family="Helvetica,sans-Serif" font-size="10.00">QObject</text>
</a>
</g>
</g>
<!-- Node1&#45;&gt;Node16 -->
<g id="edge26_Node000001_Node000016" class="edge">
<title>Node1&#45;&gt;Node16</title>
<g id="a_edge26_Node000001_Node000016"><a xlink:title=" ">
<path fill="none" stroke="#63b8ff" d="M454.63,-274.96C501.85,-266.84 574.5,-253.95 646.61,-239.22"/>
<polygon fill="#63b8ff" stroke="#63b8ff" points="647.69,-242.57 656.78,-237.13 646.28,-235.71 647.69,-242.57"/>
</a>
</g>
</g>
<!-- Node17 -->
<g id="Node000017" class="node">
<title>Node17</title>
<g id="a_Node000017"><a xlink:title=" ">
<polygon fill="#e0e0e0" stroke="#999999" points="829.03,-239 731.03,-239 731.03,-220 829.03,-220 829.03,-239"/>
<text text-anchor="middle" x="780.03" y="-227" font-family="Helvetica,sans-Serif" font-size="10.00">QReadWriteLock</text>
</a>
</g>
</g>
<!-- Node1&#45;&gt;Node17 -->
<g id="edge27_Node000001_Node000017" class="edge">
<title>Node1&#45;&gt;Node17</title>
<g id="a_edge27_Node000001_Node000017"><a xlink:title=" ">
<path fill="none" stroke="#63b8ff" d="M464.71,-275.13C526.53,-266.57 625.45,-252.81 720.87,-239.16"/>
<polygon fill="#63b8ff" stroke="#63b8ff" points="721.58,-242.59 730.99,-237.71 720.59,-235.66 721.58,-242.59"/>
</a>
</g>
</g>
<!-- Node18 -->
<g id="Node000018" class="node">
<title>Node18</title>
<g id="a_Node000018"><a xlink:title=" ">
<polygon fill="#e0e0e0" stroke="#999999" points="942.53,-239 847.53,-239 847.53,-220 942.53,-220 942.53,-239"/>
<text text-anchor="middle" x="895.03" y="-227" font-family="Helvetica,sans-Serif" font-size="10.00">QThreadStorage</text>
</a>
</g>
</g>
<!-- Node1&#45;&gt;Node18 -->
<g id="edge29_Node000001_Node000018" class="edge">
<title>Node1&#45;&gt;Node18</title>
<g id="a_edge29_Node000001_Node000018"><a xlink:title=" ">
<path fill="none" stroke="#63b8ff" d="M464.87,-278.15C546.94,-270.73 697.91,-256.4 837.44,-239.02"/>
<polygon fill="#63b8ff" stroke="#63b8ff" points="837.98,-242.48 847.47,-237.76 837.11,-235.53 837.98,-242.48"/>
</a>
</g>
</g>
<!-- Node2&#45;&gt;Node3 -->
<g id="edge2_Node000002_Node000003" class="edge">
<title>Node2&#45;&gt;Node3</title>
<g id="a_edge2_Node000002_Node000003"><a xlink:title=" ">
<path fill="none" stroke="#63b8ff" d="M198.03,-219.75C198.03,-212.8 198.03,-202.85 198.03,-194.13"/>
<polygon fill="#63b8ff" stroke="#63b8ff" points="201.53,-194.09 198.03,-184.09 194.53,-194.09 201.53,-194.09"/>
</a>
</g>
</g>
<!-- Node2&#45;&gt;Node4 -->
<g id="edge15_Node000002_Node000004" class="edge">
<title>Node2&#45;&gt;Node4</title>
<g id="a_edge15_Node000002_Node000004"><a xlink:title=" ">
<path fill="none" stroke="#63b8ff" d="M209.9,-219.8C220.38,-211.58 235.44,-198.41 245.03,-184 254.21,-170.2 260.55,-152.4 264.39,-139.16"/>
<polygon fill="#63b8ff" stroke="#63b8ff" points="267.83,-139.86 267.05,-129.3 261.07,-138.04 267.83,-139.86"/>
</a>
</g>
</g>
<!-- Node6 -->
<g id="Node000006" class="node">
<title>Node6</title>
<g id="a_Node000006"><a xlink:title=" ">
<polygon fill="#e0e0e0" stroke="#999999" points="226.53,-19 173.53,-19 173.53,0 226.53,0 226.53,-19"/>
<text text-anchor="middle" x="200.03" y="-7" font-family="Helvetica,sans-Serif" font-size="10.00">QString</text>
</a>
</g>
</g>
<!-- Node2&#45;&gt;Node6 -->
<g id="edge17_Node000002_Node000006" class="edge">
<title>Node2&#45;&gt;Node6</title>
<g id="a_edge17_Node000002_Node000006"><a xlink:title=" ">
<path fill="none" stroke="#63b8ff" d="M186.93,-219.85C176.7,-211.48 161.55,-198.02 151.03,-184 128.84,-154.42 130.45,-142.61 113.03,-110 104.4,-93.86 97.62,-91.72 93.03,-74 90.91,-65.83 88.34,-62.02 93.03,-55 108.56,-31.72 138.82,-20.6 163.2,-15.3"/>
<polygon fill="#63b8ff" stroke="#63b8ff" points="164.07,-18.69 173.23,-13.36 162.75,-11.82 164.07,-18.69"/>
</a>
</g>
</g>
<!-- Node2&#45;&gt;Node11 -->
<g id="edge16_Node000002_Node000011" class="edge">
<title>Node2&#45;&gt;Node11</title>
<g id="a_edge16_Node000002_Node000011"><a xlink:title=" ">
<path fill="none" stroke="#63b8ff" d="M178.92,-219.93C162.05,-211.9 137.23,-198.92 118.03,-184 100.15,-170.1 82.72,-150.82 71.29,-137.16"/>
<polygon fill="#63b8ff" stroke="#63b8ff" points="73.75,-134.63 64.71,-129.1 68.33,-139.06 73.75,-134.63"/>
</a>
</g>
</g>
<!-- Node3&#45;&gt;Node4 -->
<g id="edge3_Node000003_Node000004" class="edge">
<title>Node3&#45;&gt;Node4</title>
<g id="a_edge3_Node000003_Node000004"><a xlink:title=" ">
<path fill="none" stroke="#63b8ff" d="M209.44,-164.98C220.14,-157 236.37,-144.88 249.19,-135.31"/>
<polygon fill="#63b8ff" stroke="#63b8ff" points="251.49,-137.96 257.41,-129.17 247.31,-132.35 251.49,-137.96"/>
</a>
</g>
</g>
<!-- Node3&#45;&gt;Node6 -->
<g id="edge14_Node000003_Node000006" class="edge">
<title>Node3&#45;&gt;Node6</title>
<g id="a_edge14_Node000003_Node000006"><a xlink:title=" ">
<path fill="none" stroke="#63b8ff" d="M198.14,-164.74C198.45,-139.31 199.36,-65.08 199.79,-29.69"/>
<polygon fill="#63b8ff" stroke="#63b8ff" points="203.3,-29.35 199.92,-19.31 196.3,-29.26 203.3,-29.35"/>
</a>
</g>
</g>
<!-- Node3&#45;&gt;Node11 -->
<g id="edge13_Node000003_Node000011" class="edge">
<title>Node3&#45;&gt;Node11</title>
<g id="a_edge13_Node000003_Node000011"><a xlink:title=" ">
<path fill="none" stroke="#63b8ff" d="M175.54,-164.98C152.51,-156.27 116.49,-142.63 90.4,-132.75"/>
<polygon fill="#63b8ff" stroke="#63b8ff" points="91.52,-129.44 80.93,-129.17 89.05,-135.98 91.52,-129.44"/>
</a>
</g>
</g>
<!-- Node4&#45;&gt;Node5 -->
<g id="edge4_Node000004_Node000005" class="edge">
<title>Node4&#45;&gt;Node5</title>
<g id="a_edge4_Node000004_Node000005"><a xlink:title=" ">
<path fill="none" stroke="#63b8ff" d="M247.82,-109.98C226.3,-101.34 192.75,-87.87 168.2,-78.02"/>
<polygon fill="#63b8ff" stroke="#63b8ff" points="169.21,-74.65 158.62,-74.17 166.6,-81.14 169.21,-74.65"/>
</a>
</g>
</g>
<!-- Node4&#45;&gt;Node6 -->
<g id="edge11_Node000004_Node000006" class="edge">
<title>Node4&#45;&gt;Node6</title>
<g id="a_edge11_Node000004_Node000006"><a xlink:title=" ">
<path fill="none" stroke="#63b8ff" d="M263.38,-109.66C251.95,-91.77 225.91,-51 211.01,-27.69"/>
<polygon fill="#63b8ff" stroke="#63b8ff" points="213.89,-25.7 205.56,-19.16 208,-29.47 213.89,-25.7"/>
</a>
</g>
</g>
<!-- Node4&#45;&gt;Node7 -->
<g id="edge6_Node000004_Node000007" class="edge">
<title>Node4&#45;&gt;Node7</title>
<g id="a_edge6_Node000004_Node000007"><a xlink:title=" ">
<path fill="none" stroke="#63b8ff" d="M295.54,-109.98C323.24,-101.09 366.89,-87.07 397.77,-77.15"/>
<polygon fill="#63b8ff" stroke="#63b8ff" points="398.86,-80.47 407.31,-74.08 396.72,-73.81 398.86,-80.47"/>
</a>
</g>
</g>
<!-- Node9 -->
<g id="Node000009" class="node">
<title>Node9</title>
<g id="a_Node000009"><a xlink:title=" ">
<polygon fill="#e0e0e0" stroke="#999999" points="395.53,-19 336.53,-19 336.53,0 395.53,0 395.53,-19"/>
<text text-anchor="middle" x="366.03" y="-7" font-family="Helvetica,sans-Serif" font-size="10.00">QtGlobal</text>
</a>
</g>
</g>
<!-- Node4&#45;&gt;Node9 -->
<g id="edge12_Node000004_Node000009" class="edge">
<title>Node4&#45;&gt;Node9</title>
<g id="a_edge12_Node000004_Node000009"><a xlink:title=" ">
<path fill="none" stroke="#63b8ff" d="M294.2,-109.89C311.39,-102.79 333.45,-91.09 347.03,-74 357.21,-61.19 361.94,-43.02 364.14,-29.4"/>
<polygon fill="#63b8ff" stroke="#63b8ff" points="367.64,-29.61 365.45,-19.24 360.7,-28.71 367.64,-29.61"/>
</a>
</g>
</g>
<!-- Node10 -->
<g id="Node000010" class="node">
<title>Node10</title>
<g id="a_Node000010"><a xlink:title=" ">
<polygon fill="#e0e0e0" stroke="#999999" points="338.03,-74 266.03,-74 266.03,-55 338.03,-55 338.03,-74"/>
<text text-anchor="middle" x="302.03" y="-62" font-family="Helvetica,sans-Serif" font-size="10.00">QDateTime</text>
</a>
</g>
</g>
<!-- Node4&#45;&gt;Node10 -->
<g id="edge10_Node000004_Node000010" class="edge">
<title>Node4&#45;&gt;Node10</title>
<g id="a_edge10_Node000004_Node000010"><a xlink:title=" ">
<path fill="none" stroke="#63b8ff" d="M274.48,-109.75C279.04,-102.42 285.7,-91.73 291.32,-82.7"/>
<polygon fill="#63b8ff" stroke="#63b8ff" points="294.37,-84.43 296.68,-74.09 288.42,-80.73 294.37,-84.43"/>
</a>
</g>
</g>
<!-- Node5&#45;&gt;Node6 -->
<g id="edge5_Node000005_Node000006" class="edge">
<title>Node5&#45;&gt;Node6</title>
<g id="a_edge5_Node000005_Node000006"><a xlink:title=" ">
<path fill="none" stroke="#63b8ff" d="M147.15,-54.98C156.46,-47.15 170.5,-35.34 181.77,-25.86"/>
<polygon fill="#63b8ff" stroke="#63b8ff" points="184.32,-28.29 189.72,-19.17 179.82,-22.93 184.32,-28.29"/>
</a>
</g>
</g>
<!-- Node7&#45;&gt;Node6 -->
<g id="edge7_Node000007_Node000006" class="edge">
<title>Node7&#45;&gt;Node6</title>
<g id="a_edge7_Node000007_Node000006"><a xlink:title=" ">
<path fill="none" stroke="#63b8ff" d="M396.43,-54.98C352.42,-45.02 280.02,-28.62 236.5,-18.76"/>
<polygon fill="#63b8ff" stroke="#63b8ff" points="237.14,-15.32 226.62,-16.52 235.6,-22.14 237.14,-15.32"/>
</a>
</g>
</g>
<!-- Node8 -->
<g id="Node000008" class="node">
<title>Node8</title>
<g id="a_Node000008"><a xlink:title=" ">
<polygon fill="#e0e0e0" stroke="#999999" points="484.03,-19 414.03,-19 414.03,0 484.03,0 484.03,-19"/>
<text text-anchor="middle" x="449.03" y="-7" font-family="Helvetica,sans-Serif" font-size="10.00">QStringList</text>
</a>
</g>
</g>
<!-- Node7&#45;&gt;Node8 -->
<g id="edge8_Node000007_Node000008" class="edge">
<title>Node7&#45;&gt;Node8</title>
<g id="a_edge8_Node000007_Node000008"><a xlink:title=" ">
<path fill="none" stroke="#63b8ff" d="M436.51,-54.75C438.49,-47.72 441.35,-37.62 443.84,-28.84"/>
<polygon fill="#63b8ff" stroke="#63b8ff" points="447.24,-29.66 446.6,-19.09 440.51,-27.76 447.24,-29.66"/>
</a>
</g>
</g>
<!-- Node7&#45;&gt;Node9 -->
<g id="edge9_Node000007_Node000009" class="edge">
<title>Node7&#45;&gt;Node9</title>
<g id="a_edge9_Node000007_Node000009"><a xlink:title=" ">
<path fill="none" stroke="#63b8ff" d="M423.1,-54.98C412.95,-47.07 397.61,-35.11 385.38,-25.58"/>
<polygon fill="#63b8ff" stroke="#63b8ff" points="387.19,-22.56 377.15,-19.17 382.89,-28.08 387.19,-22.56"/>
</a>
</g>
</g>
</g>
</svg>
