<?xml version="1.0" encoding="UTF-8" standalone="no"?>
<!DOCTYPE svg PUBLIC "-//W3C//DTD SVG 1.1//EN"
 "http://www.w3.org/Graphics/SVG/1.1/DTD/svg11.dtd">
<!-- Generated by graphviz version 2.43.0 (0)
 -->
<!-- Title: utils/logging/LogLevel.h Pages: 1 -->
<svg width="1738pt" height="478pt"
 viewBox="0.00 0.00 1738.00 478.00" xmlns="http://www.w3.org/2000/svg" xmlns:xlink="http://www.w3.org/1999/xlink">
<g id="graph0" class="graph" transform="scale(1 1) rotate(0) translate(4 474)">
<title>utils/logging/LogLevel.h</title>
<!-- Node1 -->
<g id="Node000001" class="node">
<title>Node1</title>
<g id="a_Node000001"><a xlink:title=" ">
<polygon fill="#999999" stroke="#666666" points="1506,-470 1374,-470 1374,-451 1506,-451 1506,-470"/>
<text text-anchor="middle" x="1440" y="-458" font-family="Helvetica,sans-Serif" font-size="10.00">utils/logging/LogLevel.h</text>
</a>
</g>
</g>
<!-- Node2 -->
<g id="Node000002" class="node">
<title>Node2</title>
<g id="a_Node000002"><a xlink:href="ConsoleAppender_8h.html" target="_top" xlink:title=" ">
<polygon fill="white" stroke="#666666" points="1637.5,-250 1464.5,-250 1464.5,-231 1637.5,-231 1637.5,-250"/>
<text text-anchor="middle" x="1551" y="-238" font-family="Helvetica,sans-Serif" font-size="10.00">utils/logging/ConsoleAppender.h</text>
</a>
</g>
</g>
<!-- Node1&#45;&gt;Node2 -->
<g id="edge1_Node000001_Node000002" class="edge">
<title>Node1&#45;&gt;Node2</title>
<g id="a_edge1_Node000001_Node000002"><a xlink:title=" ">
<path fill="none" stroke="#63b8ff" d="M1450.55,-442.13C1455.4,-433.97 1461.14,-424.07 1466,-415 1499.28,-352.92 1535.16,-275.94 1546.98,-250.28"/>
<polygon fill="#63b8ff" stroke="#63b8ff" points="1447.52,-440.37 1445.37,-450.74 1453.52,-443.97 1447.52,-440.37"/>
</a>
</g>
</g>
<!-- Node4 -->
<g id="Node000004" class="node">
<title>Node4</title>
<g id="a_Node000004"><a xlink:href="Log_8h.html" target="_top" xlink:title="EasyKiConverter 日志系统统一入口">
<polygon fill="white" stroke="#666666" points="1319,-74 1213,-74 1213,-55 1319,-55 1319,-74"/>
<text text-anchor="middle" x="1266" y="-62" font-family="Helvetica,sans-Serif" font-size="10.00">utils/logging/Log.h</text>
</a>
</g>
</g>
<!-- Node1&#45;&gt;Node4 -->
<g id="edge8_Node000001_Node000004" class="edge">
<title>Node1&#45;&gt;Node4</title>
<g id="a_edge8_Node000001_Node000004"><a xlink:title=" ">
<path fill="none" stroke="#63b8ff" d="M1502.7,-449.16C1587.97,-433.29 1730,-399.63 1730,-351.5 1730,-351.5 1730,-351.5 1730,-184.5 1730,-100.51 1441.1,-74.97 1319.23,-67.94"/>
<polygon fill="#63b8ff" stroke="#63b8ff" points="1502.06,-445.72 1492.85,-450.96 1503.32,-452.6 1502.06,-445.72"/>
</a>
</g>
</g>
<!-- Node6 -->
<g id="Node000006" class="node">
<title>Node6</title>
<g id="a_Node000006"><a xlink:href="FileAppender_8h.html" target="_top" xlink:title=" ">
<polygon fill="white" stroke="#666666" points="1364,-250 1212,-250 1212,-231 1364,-231 1364,-250"/>
<text text-anchor="middle" x="1288" y="-238" font-family="Helvetica,sans-Serif" font-size="10.00">utils/logging/FileAppender.h</text>
</a>
</g>
</g>
<!-- Node1&#45;&gt;Node6 -->
<g id="edge5_Node000001_Node000006" class="edge">
<title>Node1&#45;&gt;Node6</title>
<g id="a_edge5_Node000001_Node000006"><a xlink:title=" ">
<path fill="none" stroke="#63b8ff" d="M1428.17,-442.53C1397.62,-398.72 1316.9,-282.94 1294.08,-250.22"/>
<polygon fill="#63b8ff" stroke="#63b8ff" points="1425.45,-444.75 1434.04,-450.95 1431.19,-440.75 1425.45,-444.75"/>
</a>
</g>
</g>
<!-- Node8 -->
<g id="Node000008" class="node">
<title>Node8</title>
<g id="a_Node000008"><a xlink:href="LogMacros_8h.html" target="_top" xlink:title=" ">
<polygon fill="white" stroke="#666666" points="660.5,-195 519.5,-195 519.5,-176 660.5,-176 660.5,-195"/>
<text text-anchor="middle" x="590" y="-183" font-family="Helvetica,sans-Serif" font-size="10.00">utils/logging/LogMacros.h</text>
</a>
</g>
</g>
<!-- Node1&#45;&gt;Node8 -->
<g id="edge9_Node000001_Node000008" class="edge">
<title>Node1&#45;&gt;Node8</title>
<g id="a_edge9_Node000001_Node000008"><a xlink:title=" ">
<path fill="none" stroke="#63b8ff" d="M1363.54,-456.81C1167.63,-448.91 663,-421.74 663,-351.5 663,-351.5 663,-351.5 663,-294.5 663,-251.05 621.94,-212.02 601.41,-195.23"/>
<polygon fill="#63b8ff" stroke="#63b8ff" points="1363.62,-460.32 1373.75,-457.22 1363.9,-453.32 1363.62,-460.32"/>
</a>
</g>
</g>
<!-- Node14 -->
<g id="Node000014" class="node">
<title>Node14</title>
<g id="a_Node000014"><a xlink:href="LogRecord_8h.html" target="_top" xlink:title=" ">
<polygon fill="white" stroke="#666666" points="1334,-415 1194,-415 1194,-396 1334,-396 1334,-415"/>
<text text-anchor="middle" x="1264" y="-403" font-family="Helvetica,sans-Serif" font-size="10.00">utils/logging/LogRecord.h</text>
</a>
</g>
</g>
<!-- Node1&#45;&gt;Node14 -->
<g id="edge17_Node000001_Node000014" class="edge">
<title>Node1&#45;&gt;Node14</title>
<g id="a_edge17_Node000001_Node000014"><a xlink:title=" ">
<path fill="none" stroke="#63b8ff" d="M1402,-448.06C1369.1,-438.15 1322.26,-424.04 1292.5,-415.08"/>
<polygon fill="#63b8ff" stroke="#63b8ff" points="1401.14,-451.45 1411.72,-450.98 1403.16,-444.75 1401.14,-451.45"/>
</a>
</g>
</g>
<!-- Node16 -->
<g id="Node000016" class="node">
<title>Node16</title>
<g id="a_Node000016"><a xlink:href="Logger_8h.html" target="_top" xlink:title=" ">
<polygon fill="white" stroke="#666666" points="887.5,-250 766.5,-250 766.5,-231 887.5,-231 887.5,-250"/>
<text text-anchor="middle" x="827" y="-238" font-family="Helvetica,sans-Serif" font-size="10.00">utils/logging/Logger.h</text>
</a>
</g>
</g>
<!-- Node1&#45;&gt;Node16 -->
<g id="edge37_Node000001_Node000016" class="edge">
<title>Node1&#45;&gt;Node16</title>
<g id="a_edge37_Node000001_Node000016"><a xlink:title=" ">
<path fill="none" stroke="#63b8ff" d="M1363.85,-451.57C1312.5,-444.93 1243.67,-433.49 1185,-415 1075.01,-380.34 1053.48,-355.9 950,-305 911.4,-286.01 866.64,-262.53 843.21,-250.12"/>
<polygon fill="#63b8ff" stroke="#63b8ff" points="1363.52,-455.06 1373.88,-452.84 1364.4,-448.11 1363.52,-455.06"/>
</a>
</g>
</g>
<!-- Node3 -->
<g id="Node000003" class="node">
<title>Node3</title>
<g id="a_Node000003"><a xlink:href="ConsoleAppender_8cpp.html" target="_top" xlink:title=" ">
<polygon fill="white" stroke="#666666" points="1664.5,-195 1479.5,-195 1479.5,-176 1664.5,-176 1664.5,-195"/>
<text text-anchor="middle" x="1572" y="-183" font-family="Helvetica,sans-Serif" font-size="10.00">utils/logging/ConsoleAppender.cpp</text>
</a>
</g>
</g>
<!-- Node2&#45;&gt;Node3 -->
<g id="edge2_Node000002_Node000003" class="edge">
<title>Node2&#45;&gt;Node3</title>
<g id="a_edge2_Node000002_Node000003"><a xlink:title=" ">
<path fill="none" stroke="#63b8ff" d="M1558.24,-221.24C1561.75,-212.37 1565.8,-202.14 1568.6,-195.09"/>
<polygon fill="#63b8ff" stroke="#63b8ff" points="1554.9,-220.16 1554.47,-230.75 1561.41,-222.74 1554.9,-220.16"/>
</a>
</g>
</g>
<!-- Node2&#45;&gt;Node4 -->
<g id="edge3_Node000002_Node000004" class="edge">
<title>Node2&#45;&gt;Node4</title>
<g id="a_edge3_Node000002_Node000004"><a xlink:title=" ">
<path fill="none" stroke="#63b8ff" d="M1518.15,-226.67C1502.39,-219.25 1484.14,-208.66 1471,-195 1441.66,-164.48 1460.78,-136.79 1428,-110 1397.29,-84.9 1353.49,-73.91 1319.17,-69.12"/>
<polygon fill="#63b8ff" stroke="#63b8ff" points="1517.01,-229.99 1527.57,-230.87 1519.87,-223.6 1517.01,-229.99"/>
</a>
</g>
</g>
<!-- Node5 -->
<g id="Node000005" class="node">
<title>Node5</title>
<g id="a_Node000005"><a xlink:href="main_8cpp.html" target="_top" xlink:title=" ">
<polygon fill="white" stroke="#666666" points="1297,-19 1235,-19 1235,0 1297,0 1297,-19"/>
<text text-anchor="middle" x="1266" y="-7" font-family="Helvetica,sans-Serif" font-size="10.00">main.cpp</text>
</a>
</g>
</g>
<!-- Node4&#45;&gt;Node5 -->
<g id="edge4_Node000004_Node000005" class="edge">
<title>Node4&#45;&gt;Node5</title>
<g id="a_edge4_Node000004_Node000005"><a xlink:title=" ">
<path fill="none" stroke="#63b8ff" d="M1266,-44.66C1266,-35.93 1266,-25.99 1266,-19.09"/>
<polygon fill="#63b8ff" stroke="#63b8ff" points="1262.5,-44.75 1266,-54.75 1269.5,-44.75 1262.5,-44.75"/>
</a>
</g>
</g>
<!-- Node6&#45;&gt;Node4 -->
<g id="edge7_Node000006_Node000004" class="edge">
<title>Node6&#45;&gt;Node4</title>
<g id="a_edge7_Node000006_Node000004"><a xlink:title=" ">
<path fill="none" stroke="#63b8ff" d="M1321.64,-226.43C1335.17,-219.31 1349.35,-209.03 1357,-195 1361.04,-187.59 1359.85,-183.95 1357,-176 1340.8,-130.85 1297.31,-90.97 1276.88,-74.08"/>
<polygon fill="#63b8ff" stroke="#63b8ff" points="1319.95,-223.36 1312.47,-230.86 1322.99,-229.66 1319.95,-223.36"/>
</a>
</g>
</g>
<!-- Node7 -->
<g id="Node000007" class="node">
<title>Node7</title>
<g id="a_Node000007"><a xlink:href="FileAppender_8cpp.html" target="_top" xlink:title=" ">
<polygon fill="white" stroke="#666666" points="1347.5,-195 1184.5,-195 1184.5,-176 1347.5,-176 1347.5,-195"/>
<text text-anchor="middle" x="1266" y="-183" font-family="Helvetica,sans-Serif" font-size="10.00">utils/logging/FileAppender.cpp</text>
</a>
</g>
</g>
<!-- Node6&#45;&gt;Node7 -->
<g id="edge6_Node000006_Node000007" class="edge">
<title>Node6&#45;&gt;Node7</title>
<g id="a_edge6_Node000006_Node000007"><a xlink:title=" ">
<path fill="none" stroke="#63b8ff" d="M1280.42,-221.24C1276.74,-212.37 1272.49,-202.14 1269.57,-195.09"/>
<polygon fill="#63b8ff" stroke="#63b8ff" points="1277.3,-222.85 1284.37,-230.75 1283.77,-220.17 1277.3,-222.85"/>
</a>
</g>
</g>
<!-- Node8&#45;&gt;Node4 -->
<g id="edge13_Node000008_Node000004" class="edge">
<title>Node8&#45;&gt;Node4</title>
<g id="a_edge13_Node000008_Node000004"><a xlink:title=" ">
<path fill="none" stroke="#63b8ff" d="M589.1,-165.87C589.38,-148.55 592.84,-123.45 609,-110 654.96,-71.73 1064.74,-66.29 1212.87,-65.58"/>
<polygon fill="#63b8ff" stroke="#63b8ff" points="585.6,-166 589.28,-175.93 592.6,-165.87 585.6,-166"/>
</a>
</g>
</g>
<!-- Node9 -->
<g id="Node000009" class="node">
<title>Node9</title>
<g id="a_Node000009"><a xlink:href="ComponentCacheService_8cpp.html" target="_top" xlink:title=" ">
<polygon fill="white" stroke="#666666" points="561.5,-134.5 358.5,-134.5 358.5,-115.5 561.5,-115.5 561.5,-134.5"/>
<text text-anchor="middle" x="460" y="-122.5" font-family="Helvetica,sans-Serif" font-size="10.00">services/ComponentCacheService.cpp</text>
</a>
</g>
</g>
<!-- Node8&#45;&gt;Node9 -->
<g id="edge10_Node000008_Node000009" class="edge">
<title>Node8&#45;&gt;Node9</title>
<g id="a_edge10_Node000008_Node000009"><a xlink:title=" ">
<path fill="none" stroke="#63b8ff" d="M561.74,-171.78C536.65,-160.49 500.69,-144.31 478.93,-134.52"/>
<polygon fill="#63b8ff" stroke="#63b8ff" points="560.54,-175.08 571.1,-175.99 563.41,-168.7 560.54,-175.08"/>
</a>
</g>
</g>
<!-- Node10 -->
<g id="Node000010" class="node">
<title>Node10</title>
<g id="a_Node000010"><a xlink:href="ExportReportGenerator_8cpp.html" target="_top" xlink:title=" ">
<polygon fill="white" stroke="#666666" points="158,-140 0,-140 0,-110 158,-110 158,-140"/>
<text text-anchor="start" x="8" y="-128" font-family="Helvetica,sans-Serif" font-size="10.00">services/export/ExportReport</text>
<text text-anchor="middle" x="79" y="-117" font-family="Helvetica,sans-Serif" font-size="10.00">Generator.cpp</text>
</a>
</g>
</g>
<!-- Node8&#45;&gt;Node10 -->
<g id="edge11_Node000008_Node000010" class="edge">
<title>Node8&#45;&gt;Node10</title>
<g id="a_edge11_Node000008_Node000010"><a xlink:title=" ">
<path fill="none" stroke="#63b8ff" d="M509.01,-177.26C423.75,-169.35 285.71,-155.68 167,-140 164.09,-139.62 161.12,-139.21 158.13,-138.79"/>
<polygon fill="#63b8ff" stroke="#63b8ff" points="508.86,-180.77 519.14,-178.2 509.5,-173.8 508.86,-180.77"/>
</a>
</g>
</g>
<!-- Node11 -->
<g id="Node000011" class="node">
<title>Node11</title>
<g id="a_Node000011"><a xlink:href="ExportProgressViewModel_8cpp.html" target="_top" xlink:title=" ">
<polygon fill="white" stroke="#666666" points="340,-140 176,-140 176,-110 340,-110 340,-140"/>
<text text-anchor="start" x="184" y="-128" font-family="Helvetica,sans-Serif" font-size="10.00">ui/viewmodels/ExportProgress</text>
<text text-anchor="middle" x="258" y="-117" font-family="Helvetica,sans-Serif" font-size="10.00">ViewModel.cpp</text>
</a>
</g>
</g>
<!-- Node8&#45;&gt;Node11 -->
<g id="edge12_Node000008_Node000011" class="edge">
<title>Node8&#45;&gt;Node11</title>
<g id="a_edge12_Node000008_Node000011"><a xlink:title=" ">
<path fill="none" stroke="#63b8ff" d="M531.65,-174.22C477.76,-164.72 397.25,-150.54 337.5,-140.01"/>
<polygon fill="#63b8ff" stroke="#63b8ff" points="531.27,-177.71 541.72,-175.99 532.48,-170.81 531.27,-177.71"/>
</a>
</g>
</g>
<!-- Node12 -->
<g id="Node000012" class="node">
<title>Node12</title>
<g id="a_Node000012"><a xlink:href="QtLogAdapter_8h.html" target="_top" xlink:title=" ">
<polygon fill="white" stroke="#666666" points="773.5,-134.5 618.5,-134.5 618.5,-115.5 773.5,-115.5 773.5,-134.5"/>
<text text-anchor="middle" x="696" y="-122.5" font-family="Helvetica,sans-Serif" font-size="10.00">utils/logging/QtLogAdapter.h</text>
</a>
</g>
</g>
<!-- Node8&#45;&gt;Node12 -->
<g id="edge14_Node000008_Node000012" class="edge">
<title>Node8&#45;&gt;Node12</title>
<g id="a_edge14_Node000008_Node000012"><a xlink:title=" ">
<path fill="none" stroke="#63b8ff" d="M614.6,-170.92C634.86,-159.74 662.97,-144.23 680.3,-134.67"/>
<polygon fill="#63b8ff" stroke="#63b8ff" points="612.7,-167.97 605.64,-175.87 616.09,-174.1 612.7,-167.97"/>
</a>
</g>
</g>
<!-- Node12&#45;&gt;Node4 -->
<g id="edge15_Node000012_Node000004" class="edge">
<title>Node12&#45;&gt;Node4</title>
<g id="a_edge15_Node000012_Node000004"><a xlink:title=" ">
<path fill="none" stroke="#63b8ff" d="M758.6,-113.97C768.42,-112.55 778.48,-111.17 788,-110 941.87,-91.15 1124.48,-76.2 1212.84,-69.43"/>
<polygon fill="#63b8ff" stroke="#63b8ff" points="757.85,-110.55 748.47,-115.48 758.88,-117.47 757.85,-110.55"/>
</a>
</g>
</g>
<!-- Node13 -->
<g id="Node000013" class="node">
<title>Node13</title>
<g id="a_Node000013"><a xlink:href="QtLogAdapter_8cpp.html" target="_top" xlink:title=" ">
<polygon fill="white" stroke="#666666" points="779,-74 613,-74 613,-55 779,-55 779,-74"/>
<text text-anchor="middle" x="696" y="-62" font-family="Helvetica,sans-Serif" font-size="10.00">utils/logging/QtLogAdapter.cpp</text>
</a>
</g>
</g>
<!-- Node12&#45;&gt;Node13 -->
<g id="edge16_Node000012_Node000013" class="edge">
<title>Node12&#45;&gt;Node13</title>
<g id="a_edge16_Node000012_Node000013"><a xlink:title=" ">
<path fill="none" stroke="#63b8ff" d="M696,-105.16C696,-94.74 696,-82.3 696,-74.17"/>
<polygon fill="#63b8ff" stroke="#63b8ff" points="692.5,-105.37 696,-115.37 699.5,-105.37 692.5,-105.37"/>
</a>
</g>
</g>
<!-- Node14&#45;&gt;Node4 -->
<g id="edge35_Node000014_Node000004" class="edge">
<title>Node14&#45;&gt;Node4</title>
<g id="a_edge35_Node000014_Node000004"><a xlink:title=" ">
<path fill="none" stroke="#63b8ff" d="M1333.93,-394.29C1474.55,-370.81 1770.22,-304.82 1674,-176 1631.46,-119.04 1419.61,-85.01 1319.09,-71.82"/>
<polygon fill="#63b8ff" stroke="#63b8ff" points="1332.98,-390.9 1323.68,-395.97 1334.11,-397.81 1332.98,-390.9"/>
</a>
</g>
</g>
<!-- Node15 -->
<g id="Node000015" class="node">
<title>Node15</title>
<g id="a_Node000015"><a xlink:href="IAppender_8h.html" target="_top" xlink:title=" ">
<polygon fill="white" stroke="#666666" points="1235.5,-305 1098.5,-305 1098.5,-286 1235.5,-286 1235.5,-305"/>
<text text-anchor="middle" x="1167" y="-293" font-family="Helvetica,sans-Serif" font-size="10.00">utils/logging/IAppender.h</text>
</a>
</g>
</g>
<!-- Node14&#45;&gt;Node15 -->
<g id="edge18_Node000014_Node000015" class="edge">
<title>Node14&#45;&gt;Node15</title>
<g id="a_edge18_Node000014_Node000015"><a xlink:title=" ">
<path fill="none" stroke="#63b8ff" d="M1229.6,-391.82C1214.3,-384.61 1197.25,-374.15 1186,-360 1172.97,-343.6 1168.86,-318.43 1167.58,-305.24"/>
<polygon fill="#63b8ff" stroke="#63b8ff" points="1228.27,-395.06 1238.83,-395.89 1231.1,-388.66 1228.27,-395.06"/>
</a>
</g>
</g>
<!-- Node14&#45;&gt;Node16 -->
<g id="edge36_Node000014_Node000016" class="edge">
<title>Node14&#45;&gt;Node16</title>
<g id="a_edge36_Node000014_Node000016"><a xlink:title=" ">
<path fill="none" stroke="#63b8ff" d="M1231.55,-392.39C1147.17,-360.92 922.45,-277.1 849.92,-250.05"/>
<polygon fill="#63b8ff" stroke="#63b8ff" points="1230.53,-395.75 1241.12,-395.97 1232.97,-389.19 1230.53,-395.75"/>
</a>
</g>
</g>
<!-- Node18 -->
<g id="Node000018" class="node">
<title>Node18</title>
<g id="a_Node000018"><a xlink:href="IFormatter_8h.html" target="_top" xlink:title=" ">
<polygon fill="white" stroke="#666666" points="1333.5,-360 1194.5,-360 1194.5,-341 1333.5,-341 1333.5,-360"/>
<text text-anchor="middle" x="1264" y="-348" font-family="Helvetica,sans-Serif" font-size="10.00">utils/logging/IFormatter.h</text>
</a>
</g>
</g>
<!-- Node14&#45;&gt;Node18 -->
<g id="edge27_Node000014_Node000018" class="edge">
<title>Node14&#45;&gt;Node18</title>
<g id="a_edge27_Node000014_Node000018"><a xlink:title=" ">
<path fill="none" stroke="#63b8ff" d="M1264,-385.66C1264,-376.93 1264,-366.99 1264,-360.09"/>
<polygon fill="#63b8ff" stroke="#63b8ff" points="1260.5,-385.75 1264,-395.75 1267.5,-385.75 1260.5,-385.75"/>
</a>
</g>
</g>
<!-- Node15&#45;&gt;Node2 -->
<g id="edge19_Node000015_Node000002" class="edge">
<title>Node15&#45;&gt;Node2</title>
<g id="a_edge19_Node000015_Node000002"><a xlink:title=" ">
<path fill="none" stroke="#63b8ff" d="M1238.61,-284.62C1310.69,-274.67 1420.73,-259.48 1489.14,-250.04"/>
<polygon fill="#63b8ff" stroke="#63b8ff" points="1238.12,-281.15 1228.7,-285.98 1239.08,-288.08 1238.12,-281.15"/>
</a>
</g>
</g>
<!-- Node15&#45;&gt;Node4 -->
<g id="edge21_Node000015_Node000004" class="edge">
<title>Node15&#45;&gt;Node4</title>
<g id="a_edge21_Node000015_Node000004"><a xlink:title=" ">
<path fill="none" stroke="#63b8ff" d="M1091.25,-284.32C1008.26,-269.85 892.46,-237.94 937,-176 1000.32,-87.94 1137.25,-69.09 1212.97,-65.65"/>
<polygon fill="#63b8ff" stroke="#63b8ff" points="1090.75,-287.78 1101.2,-285.99 1091.92,-280.88 1090.75,-287.78"/>
</a>
</g>
</g>
<!-- Node15&#45;&gt;Node6 -->
<g id="edge20_Node000015_Node000006" class="edge">
<title>Node15&#45;&gt;Node6</title>
<g id="a_edge20_Node000015_Node000006"><a xlink:title=" ">
<path fill="none" stroke="#63b8ff" d="M1195.77,-281.9C1218.12,-272.11 1248.52,-258.79 1268.21,-250.17"/>
<polygon fill="#63b8ff" stroke="#63b8ff" points="1194.2,-278.77 1186.44,-285.98 1197,-285.18 1194.2,-278.77"/>
</a>
</g>
</g>
<!-- Node15&#45;&gt;Node16 -->
<g id="edge22_Node000015_Node000016" class="edge">
<title>Node15&#45;&gt;Node16</title>
<g id="a_edge22_Node000015_Node000016"><a xlink:title=" ">
<path fill="none" stroke="#63b8ff" d="M1102.42,-284.43C1038.58,-274.48 941.97,-259.42 881.77,-250.04"/>
<polygon fill="#63b8ff" stroke="#63b8ff" points="1101.95,-287.9 1112.37,-285.98 1103.03,-280.99 1101.95,-287.9"/>
</a>
</g>
</g>
<!-- Node16&#45;&gt;Node4 -->
<g id="edge23_Node000016_Node000004" class="edge">
<title>Node16&#45;&gt;Node4</title>
<g id="a_edge23_Node000016_Node000004"><a xlink:title=" ">
<path fill="none" stroke="#63b8ff" d="M790.56,-227.11C763.84,-215.91 734.55,-197.86 749,-176 800,-98.86 1091.02,-74.7 1212.62,-67.9"/>
<polygon fill="#63b8ff" stroke="#63b8ff" points="789.62,-230.5 800.21,-230.92 792.19,-223.99 789.62,-230.5"/>
</a>
</g>
</g>
<!-- Node16&#45;&gt;Node8 -->
<g id="edge24_Node000016_Node000008" class="edge">
<title>Node16&#45;&gt;Node8</title>
<g id="a_edge24_Node000016_Node000008"><a xlink:title=" ">
<path fill="none" stroke="#63b8ff" d="M778.94,-228.75C734.53,-218.82 669.4,-204.26 628.38,-195.08"/>
<polygon fill="#63b8ff" stroke="#63b8ff" points="778.4,-232.22 788.92,-230.98 779.93,-225.39 778.4,-232.22"/>
</a>
</g>
</g>
<!-- Node16&#45;&gt;Node12 -->
<g id="edge26_Node000016_Node000012" class="edge">
<title>Node16&#45;&gt;Node12</title>
<g id="a_edge26_Node000016_Node000012"><a xlink:title=" ">
<path fill="none" stroke="#63b8ff" d="M771.39,-227.99C751.52,-221.35 730.49,-211 716,-195 700.43,-177.8 696.93,-149.17 696.18,-134.8"/>
<polygon fill="#63b8ff" stroke="#63b8ff" points="770.43,-231.36 781.02,-230.96 772.5,-224.67 770.43,-231.36"/>
</a>
</g>
</g>
<!-- Node17 -->
<g id="Node000017" class="node">
<title>Node17</title>
<g id="a_Node000017"><a xlink:href="Logger_8cpp.html" target="_top" xlink:title=" ">
<polygon fill="white" stroke="#666666" points="890,-195 758,-195 758,-176 890,-176 890,-195"/>
<text text-anchor="middle" x="824" y="-183" font-family="Helvetica,sans-Serif" font-size="10.00">utils/logging/Logger.cpp</text>
</a>
</g>
</g>
<!-- Node16&#45;&gt;Node17 -->
<g id="edge25_Node000016_Node000017" class="edge">
<title>Node16&#45;&gt;Node17</title>
<g id="a_edge25_Node000016_Node000017"><a xlink:title=" ">
<path fill="none" stroke="#63b8ff" d="M825.93,-220.66C825.44,-211.93 824.88,-201.99 824.49,-195.09"/>
<polygon fill="#63b8ff" stroke="#63b8ff" points="822.44,-220.96 826.5,-230.75 829.43,-220.57 822.44,-220.96"/>
</a>
</g>
</g>
<!-- Node18&#45;&gt;Node4 -->
<g id="edge29_Node000018_Node000004" class="edge">
<title>Node18&#45;&gt;Node4</title>
<g id="a_edge29_Node000018_Node000004"><a xlink:title=" ">
<path fill="none" stroke="#63b8ff" d="M1308.5,-337.97C1352.72,-323.51 1414,-294.01 1414,-241.5 1414,-241.5 1414,-241.5 1414,-184.5 1414,-123.83 1337.54,-88.9 1294.54,-74.05"/>
<polygon fill="#63b8ff" stroke="#63b8ff" points="1307.3,-334.68 1298.79,-341 1309.38,-341.36 1307.3,-334.68"/>
</a>
</g>
</g>
<!-- Node18&#45;&gt;Node15 -->
<g id="edge28_Node000018_Node000015" class="edge">
<title>Node18&#45;&gt;Node15</title>
<g id="a_edge28_Node000018_Node000015"><a xlink:title=" ">
<path fill="none" stroke="#63b8ff" d="M1239.23,-335.97C1221.5,-326.28 1198.15,-313.52 1182.87,-305.17"/>
<polygon fill="#63b8ff" stroke="#63b8ff" points="1237.96,-339.26 1248.42,-340.98 1241.32,-333.12 1237.96,-339.26"/>
</a>
</g>
</g>
<!-- Node18&#45;&gt;Node16 -->
<g id="edge30_Node000018_Node000016" class="edge">
<title>Node18&#45;&gt;Node16</title>
<g id="a_edge30_Node000018_Node000016"><a xlink:title=" ">
<path fill="none" stroke="#63b8ff" d="M1219.48,-338.5C1132.21,-316.93 940.31,-269.5 861.66,-250.07"/>
<polygon fill="#63b8ff" stroke="#63b8ff" points="1218.8,-341.93 1229.34,-340.94 1220.48,-335.14 1218.8,-341.93"/>
</a>
</g>
</g>
<!-- Node19 -->
<g id="Node000019" class="node">
<title>Node19</title>
<g id="a_Node000019"><a xlink:href="PatternFormatter_8h.html" target="_top" xlink:title=" ">
<polygon fill="white" stroke="#666666" points="1158,-250 988,-250 988,-231 1158,-231 1158,-250"/>
<text text-anchor="middle" x="1073" y="-238" font-family="Helvetica,sans-Serif" font-size="10.00">utils/logging/PatternFormatter.h</text>
</a>
</g>
</g>
<!-- Node18&#45;&gt;Node19 -->
<g id="edge31_Node000018_Node000019" class="edge">
<title>Node18&#45;&gt;Node19</title>
<g id="a_edge31_Node000018_Node000019"><a xlink:title=" ">
<path fill="none" stroke="#63b8ff" d="M1263.17,-330.62C1261.53,-316.46 1257.03,-297.59 1245,-286 1221.78,-263.64 1188.86,-252.12 1158.03,-246.32"/>
<polygon fill="#63b8ff" stroke="#63b8ff" points="1259.69,-331.04 1263.96,-340.74 1266.67,-330.5 1259.69,-331.04"/>
</a>
</g>
</g>
<!-- Node19&#45;&gt;Node4 -->
<g id="edge32_Node000019_Node000004" class="edge">
<title>Node19&#45;&gt;Node4</title>
<g id="a_edge32_Node000019_Node000004"><a xlink:title=" ">
<path fill="none" stroke="#63b8ff" d="M1095.3,-225.43C1107.94,-217.1 1123.81,-206.05 1137,-195 1186.62,-153.42 1239.07,-95.87 1258.34,-74.21"/>
<polygon fill="#63b8ff" stroke="#63b8ff" points="1093.24,-222.59 1086.75,-230.97 1097.05,-228.46 1093.24,-222.59"/>
</a>
</g>
</g>
<!-- Node19&#45;&gt;Node17 -->
<g id="edge33_Node000019_Node000017" class="edge">
<title>Node19&#45;&gt;Node17</title>
<g id="a_edge33_Node000019_Node000017"><a xlink:title=" ">
<path fill="none" stroke="#63b8ff" d="M1023.1,-228.88C976.43,-218.94 907.61,-204.3 864.32,-195.08"/>
<polygon fill="#63b8ff" stroke="#63b8ff" points="1022.48,-232.33 1032.99,-230.98 1023.94,-225.48 1022.48,-232.33"/>
</a>
</g>
</g>
<!-- Node20 -->
<g id="Node000020" class="node">
<title>Node20</title>
<g id="a_Node000020"><a xlink:href="PatternFormatter_8cpp.html" target="_top" xlink:title=" ">
<polygon fill="white" stroke="#666666" points="1128,-195 946,-195 946,-176 1128,-176 1128,-195"/>
<text text-anchor="middle" x="1037" y="-183" font-family="Helvetica,sans-Serif" font-size="10.00">utils/logging/PatternFormatter.cpp</text>
</a>
</g>
</g>
<!-- Node19&#45;&gt;Node20 -->
<g id="edge34_Node000019_Node000020" class="edge">
<title>Node19&#45;&gt;Node20</title>
<g id="a_edge34_Node000019_Node000020"><a xlink:title=" ">
<path fill="none" stroke="#63b8ff" d="M1061.38,-222.39C1055.18,-213.27 1047.83,-202.45 1042.83,-195.09"/>
<polygon fill="#63b8ff" stroke="#63b8ff" points="1058.54,-224.44 1067.06,-230.75 1064.33,-220.51 1058.54,-224.44"/>
</a>
</g>
</g>
</g>
</svg>
