<?xml version="1.0" encoding="UTF-8" standalone="no"?>
<!DOCTYPE svg PUBLIC "-//W3C//DTD SVG 1.1//EN"
 "http://www.w3.org/Graphics/SVG/1.1/DTD/svg11.dtd">
<!-- Generated by graphviz version 2.43.0 (0)
 -->
<!-- Title: utils/logging/LogLevel.h Pages: 1 -->
<svg width="1344pt" height="478pt"
 viewBox="0.00 0.00 1344.00 478.00" xmlns="http://www.w3.org/2000/svg" xmlns:xlink="http://www.w3.org/1999/xlink">
<g id="graph0" class="graph" transform="scale(1 1) rotate(0) translate(4 474)">
<title>utils/logging/LogLevel.h</title>
<!-- Node1 -->
<g id="Node000001" class="node">
<title>Node1</title>
<g id="a_Node000001"><a xlink:title=" ">
<polygon fill="#999999" stroke="#666666" points="963,-470 831,-470 831,-451 963,-451 963,-470"/>
<text text-anchor="middle" x="897" y="-458" font-family="Helvetica,sans-Serif" font-size="10.00">utils/logging/LogLevel.h</text>
</a>
</g>
</g>
<!-- Node2 -->
<g id="Node000002" class="node">
<title>Node2</title>
<g id="a_Node000002"><a xlink:href="ConsoleAppender_8h.html" target="_top" xlink:title=" ">
<polygon fill="white" stroke="#666666" points="1209.5,-250 1036.5,-250 1036.5,-231 1209.5,-231 1209.5,-250"/>
<text text-anchor="middle" x="1123" y="-238" font-family="Helvetica,sans-Serif" font-size="10.00">utils/logging/ConsoleAppender.h</text>
</a>
</g>
</g>
<!-- Node1&#45;&gt;Node2 -->
<g id="edge1_Node000001_Node000002" class="edge">
<title>Node1&#45;&gt;Node2</title>
<g id="a_edge1_Node000001_Node000002"><a xlink:title=" ">
<path fill="none" stroke="#63b8ff" d="M914.44,-443.96C923.86,-435.48 935.66,-424.76 946,-415 1011.72,-352.99 1088.73,-275.96 1114.28,-250.29"/>
<polygon fill="#63b8ff" stroke="#63b8ff" points="911.98,-441.46 906.86,-450.74 916.65,-446.68 911.98,-441.46"/>
</a>
</g>
</g>
<!-- Node4 -->
<g id="Node000004" class="node">
<title>Node4</title>
<g id="a_Node000004"><a xlink:href="Log_8h.html" target="_top" xlink:title="EasyKiConverter 日志系统统一入口">
<polygon fill="white" stroke="#666666" points="834,-74 728,-74 728,-55 834,-55 834,-74"/>
<text text-anchor="middle" x="781" y="-62" font-family="Helvetica,sans-Serif" font-size="10.00">utils/logging/Log.h</text>
</a>
</g>
</g>
<!-- Node1&#45;&gt;Node4 -->
<g id="edge8_Node000001_Node000004" class="edge">
<title>Node1&#45;&gt;Node4</title>
<g id="a_edge8_Node000001_Node000004"><a xlink:title=" ">
<path fill="none" stroke="#63b8ff" d="M973.54,-456.3C1099.33,-448.93 1336,-425.27 1336,-351.5 1336,-351.5 1336,-351.5 1336,-184.5 1336,-82.51 973.13,-67.65 834.22,-65.7"/>
<polygon fill="#63b8ff" stroke="#63b8ff" points="972.98,-452.83 963.2,-456.88 973.38,-459.81 972.98,-452.83"/>
</a>
</g>
</g>
<!-- Node6 -->
<g id="Node000006" class="node">
<title>Node6</title>
<g id="a_Node000006"><a xlink:href="FileAppender_8h.html" target="_top" xlink:title=" ">
<polygon fill="white" stroke="#666666" points="1018,-250 866,-250 866,-231 1018,-231 1018,-250"/>
<text text-anchor="middle" x="942" y="-238" font-family="Helvetica,sans-Serif" font-size="10.00">utils/logging/FileAppender.h</text>
</a>
</g>
</g>
<!-- Node1&#45;&gt;Node6 -->
<g id="edge5_Node000001_Node000006" class="edge">
<title>Node1&#45;&gt;Node6</title>
<g id="a_edge5_Node000001_Node000006"><a xlink:title=" ">
<path fill="none" stroke="#63b8ff" d="M909.19,-442.2C927.74,-414.69 962.24,-358.6 975,-305 976.96,-296.79 977.65,-294.02 975,-286 970.29,-271.75 959.07,-258.34 951.02,-250.04"/>
<polygon fill="#63b8ff" stroke="#63b8ff" points="906.13,-440.46 903.35,-450.68 911.9,-444.42 906.13,-440.46"/>
</a>
</g>
</g>
<!-- Node8 -->
<g id="Node000008" class="node">
<title>Node8</title>
<g id="a_Node000008"><a xlink:href="LogMacros_8h.html" target="_top" xlink:title=" ">
<polygon fill="white" stroke="#666666" points="269.5,-195 128.5,-195 128.5,-176 269.5,-176 269.5,-195"/>
<text text-anchor="middle" x="199" y="-183" font-family="Helvetica,sans-Serif" font-size="10.00">utils/logging/LogMacros.h</text>
</a>
</g>
</g>
<!-- Node1&#45;&gt;Node8 -->
<g id="edge9_Node000001_Node000008" class="edge">
<title>Node1&#45;&gt;Node8</title>
<g id="a_edge9_Node000001_Node000008"><a xlink:title=" ">
<path fill="none" stroke="#63b8ff" d="M820.74,-454.46C651.42,-442.26 259,-407.89 259,-351.5 259,-351.5 259,-351.5 259,-294.5 259,-252.89 224.54,-212.32 207.85,-195.11"/>
<polygon fill="#63b8ff" stroke="#63b8ff" points="820.6,-457.96 830.83,-455.18 821.1,-450.98 820.6,-457.96"/>
</a>
</g>
</g>
<!-- Node12 -->
<g id="Node000012" class="node">
<title>Node12</title>
<g id="a_Node000012"><a xlink:href="LogRecord_8h.html" target="_top" xlink:title=" ">
<polygon fill="white" stroke="#666666" points="870,-415 730,-415 730,-396 870,-396 870,-415"/>
<text text-anchor="middle" x="800" y="-403" font-family="Helvetica,sans-Serif" font-size="10.00">utils/logging/LogRecord.h</text>
</a>
</g>
</g>
<!-- Node1&#45;&gt;Node12 -->
<g id="edge15_Node000001_Node000012" class="edge">
<title>Node1&#45;&gt;Node12</title>
<g id="a_edge15_Node000001_Node000012"><a xlink:title=" ">
<path fill="none" stroke="#63b8ff" d="M872.23,-445.97C854.5,-436.28 831.15,-423.52 815.87,-415.17"/>
<polygon fill="#63b8ff" stroke="#63b8ff" points="870.96,-449.26 881.42,-450.98 874.32,-443.12 870.96,-449.26"/>
</a>
</g>
</g>
<!-- Node14 -->
<g id="Node000014" class="node">
<title>Node14</title>
<g id="a_Node000014"><a xlink:href="Logger_8h.html" target="_top" xlink:title=" ">
<polygon fill="white" stroke="#666666" points="503.5,-250 382.5,-250 382.5,-231 503.5,-231 503.5,-250"/>
<text text-anchor="middle" x="443" y="-238" font-family="Helvetica,sans-Serif" font-size="10.00">utils/logging/Logger.h</text>
</a>
</g>
</g>
<!-- Node1&#45;&gt;Node14 -->
<g id="edge35_Node000001_Node000014" class="edge">
<title>Node1&#45;&gt;Node14</title>
<g id="a_edge35_Node000001_Node000014"><a xlink:title=" ">
<path fill="none" stroke="#63b8ff" d="M845.13,-448.73C780.96,-434.17 669.48,-404.75 582,-360 541.61,-339.34 530.05,-334.99 496,-305 476.39,-287.73 457.87,-262.92 448.81,-250.02"/>
<polygon fill="#63b8ff" stroke="#63b8ff" points="844.49,-452.18 855.01,-450.94 846.02,-445.35 844.49,-452.18"/>
</a>
</g>
</g>
<!-- Node3 -->
<g id="Node000003" class="node">
<title>Node3</title>
<g id="a_Node000003"><a xlink:href="ConsoleAppender_8cpp.html" target="_top" xlink:title=" ">
<polygon fill="white" stroke="#666666" points="1308.5,-195 1123.5,-195 1123.5,-176 1308.5,-176 1308.5,-195"/>
<text text-anchor="middle" x="1216" y="-183" font-family="Helvetica,sans-Serif" font-size="10.00">utils/logging/ConsoleAppender.cpp</text>
</a>
</g>
</g>
<!-- Node2&#45;&gt;Node3 -->
<g id="edge2_Node000002_Node000003" class="edge">
<title>Node2&#45;&gt;Node3</title>
<g id="a_edge2_Node000002_Node000003"><a xlink:title=" ">
<path fill="none" stroke="#63b8ff" d="M1146.75,-225.97C1163.75,-216.28 1186.13,-203.52 1200.79,-195.17"/>
<polygon fill="#63b8ff" stroke="#63b8ff" points="1144.9,-222.99 1137.94,-230.98 1148.36,-229.07 1144.9,-222.99"/>
</a>
</g>
</g>
<!-- Node2&#45;&gt;Node4 -->
<g id="edge3_Node000002_Node000004" class="edge">
<title>Node2&#45;&gt;Node4</title>
<g id="a_edge3_Node000002_Node000004"><a xlink:title=" ">
<path fill="none" stroke="#63b8ff" d="M1113.92,-221.66C1105.91,-207.54 1093.04,-188.21 1077,-176 1000.29,-117.61 889.4,-87.31 827.41,-74.06"/>
<polygon fill="#63b8ff" stroke="#63b8ff" points="1111.04,-223.71 1118.86,-230.86 1117.21,-220.39 1111.04,-223.71"/>
</a>
</g>
</g>
<!-- Node5 -->
<g id="Node000005" class="node">
<title>Node5</title>
<g id="a_Node000005"><a xlink:href="main_8cpp.html" target="_top" xlink:title=" ">
<polygon fill="white" stroke="#666666" points="812,-19 750,-19 750,0 812,0 812,-19"/>
<text text-anchor="middle" x="781" y="-7" font-family="Helvetica,sans-Serif" font-size="10.00">main.cpp</text>
</a>
</g>
</g>
<!-- Node4&#45;&gt;Node5 -->
<g id="edge4_Node000004_Node000005" class="edge">
<title>Node4&#45;&gt;Node5</title>
<g id="a_edge4_Node000004_Node000005"><a xlink:title=" ">
<path fill="none" stroke="#63b8ff" d="M781,-44.66C781,-35.93 781,-25.99 781,-19.09"/>
<polygon fill="#63b8ff" stroke="#63b8ff" points="777.5,-44.75 781,-54.75 784.5,-44.75 777.5,-44.75"/>
</a>
</g>
</g>
<!-- Node6&#45;&gt;Node4 -->
<g id="edge7_Node000006_Node000004" class="edge">
<title>Node6&#45;&gt;Node4</title>
<g id="a_edge7_Node000006_Node000004"><a xlink:title=" ">
<path fill="none" stroke="#63b8ff" d="M923.46,-224.11C914.47,-216.04 903.92,-205.65 896,-195 870.6,-160.87 880.82,-141.29 852,-110 837.41,-94.16 815.96,-81.76 800.46,-74.12"/>
<polygon fill="#63b8ff" stroke="#63b8ff" points="921.32,-226.89 931.16,-230.8 925.91,-221.6 921.32,-226.89"/>
</a>
</g>
</g>
<!-- Node7 -->
<g id="Node000007" class="node">
<title>Node7</title>
<g id="a_Node000007"><a xlink:href="FileAppender_8cpp.html" target="_top" xlink:title=" ">
<polygon fill="white" stroke="#666666" points="1067.5,-195 904.5,-195 904.5,-176 1067.5,-176 1067.5,-195"/>
<text text-anchor="middle" x="986" y="-183" font-family="Helvetica,sans-Serif" font-size="10.00">utils/logging/FileAppender.cpp</text>
</a>
</g>
</g>
<!-- Node6&#45;&gt;Node7 -->
<g id="edge6_Node000006_Node000007" class="edge">
<title>Node6&#45;&gt;Node7</title>
<g id="a_edge6_Node000006_Node000007"><a xlink:title=" ">
<path fill="none" stroke="#63b8ff" d="M955.73,-222.96C963.4,-213.72 972.63,-202.6 978.87,-195.09"/>
<polygon fill="#63b8ff" stroke="#63b8ff" points="952.96,-220.82 949.27,-230.75 958.35,-225.29 952.96,-220.82"/>
</a>
</g>
</g>
<!-- Node8&#45;&gt;Node4 -->
<g id="edge11_Node000008_Node000004" class="edge">
<title>Node8&#45;&gt;Node4</title>
<g id="a_edge11_Node000008_Node000004"><a xlink:title=" ">
<path fill="none" stroke="#63b8ff" d="M196.2,-165.84C194.79,-148.7 195.9,-123.91 211,-110 248.5,-75.45 593.09,-67.69 727.59,-65.98"/>
<polygon fill="#63b8ff" stroke="#63b8ff" points="192.73,-166.28 197.37,-175.81 199.68,-165.47 192.73,-166.28"/>
</a>
</g>
</g>
<!-- Node9 -->
<g id="Node000009" class="node">
<title>Node9</title>
<g id="a_Node000009"><a xlink:href="ExportProgressViewModel_8cpp.html" target="_top" xlink:title=" ">
<polygon fill="white" stroke="#666666" points="164,-140 0,-140 0,-110 164,-110 164,-140"/>
<text text-anchor="start" x="8" y="-128" font-family="Helvetica,sans-Serif" font-size="10.00">ui/viewmodels/ExportProgress</text>
<text text-anchor="middle" x="82" y="-117" font-family="Helvetica,sans-Serif" font-size="10.00">ViewModel.cpp</text>
</a>
</g>
</g>
<!-- Node8&#45;&gt;Node9 -->
<g id="edge10_Node000008_Node000009" class="edge">
<title>Node8&#45;&gt;Node9</title>
<g id="a_edge10_Node000008_Node000009"><a xlink:title=" ">
<path fill="none" stroke="#63b8ff" d="M172.92,-171.46C154.35,-162.18 129.42,-149.71 110.36,-140.18"/>
<polygon fill="#63b8ff" stroke="#63b8ff" points="171.48,-174.65 181.99,-175.99 174.61,-168.39 171.48,-174.65"/>
</a>
</g>
</g>
<!-- Node10 -->
<g id="Node000010" class="node">
<title>Node10</title>
<g id="a_Node000010"><a xlink:href="QtLogAdapter_8h.html" target="_top" xlink:title=" ">
<polygon fill="white" stroke="#666666" points="375.5,-134.5 220.5,-134.5 220.5,-115.5 375.5,-115.5 375.5,-134.5"/>
<text text-anchor="middle" x="298" y="-122.5" font-family="Helvetica,sans-Serif" font-size="10.00">utils/logging/QtLogAdapter.h</text>
</a>
</g>
</g>
<!-- Node8&#45;&gt;Node10 -->
<g id="edge12_Node000008_Node000010" class="edge">
<title>Node8&#45;&gt;Node10</title>
<g id="a_edge12_Node000008_Node000010"><a xlink:title=" ">
<path fill="none" stroke="#63b8ff" d="M222.23,-170.77C241.13,-159.6 267.22,-144.19 283.33,-134.67"/>
<polygon fill="#63b8ff" stroke="#63b8ff" points="220.44,-167.77 213.61,-175.87 224,-173.79 220.44,-167.77"/>
</a>
</g>
</g>
<!-- Node10&#45;&gt;Node4 -->
<g id="edge13_Node000010_Node000004" class="edge">
<title>Node10&#45;&gt;Node4</title>
<g id="a_edge13_Node000010_Node000004"><a xlink:title=" ">
<path fill="none" stroke="#63b8ff" d="M362.03,-113.94C371.4,-112.56 380.94,-111.2 390,-110 510.55,-93.97 652.49,-78.72 727.8,-70.91"/>
<polygon fill="#63b8ff" stroke="#63b8ff" points="361.32,-110.51 351.95,-115.44 362.36,-117.43 361.32,-110.51"/>
</a>
</g>
</g>
<!-- Node11 -->
<g id="Node000011" class="node">
<title>Node11</title>
<g id="a_Node000011"><a xlink:href="QtLogAdapter_8cpp.html" target="_top" xlink:title=" ">
<polygon fill="white" stroke="#666666" points="381,-74 215,-74 215,-55 381,-55 381,-74"/>
<text text-anchor="middle" x="298" y="-62" font-family="Helvetica,sans-Serif" font-size="10.00">utils/logging/QtLogAdapter.cpp</text>
</a>
</g>
</g>
<!-- Node10&#45;&gt;Node11 -->
<g id="edge14_Node000010_Node000011" class="edge">
<title>Node10&#45;&gt;Node11</title>
<g id="a_edge14_Node000010_Node000011"><a xlink:title=" ">
<path fill="none" stroke="#63b8ff" d="M298,-105.16C298,-94.74 298,-82.3 298,-74.17"/>
<polygon fill="#63b8ff" stroke="#63b8ff" points="294.5,-105.37 298,-115.37 301.5,-105.37 294.5,-105.37"/>
</a>
</g>
</g>
<!-- Node12&#45;&gt;Node4 -->
<g id="edge33_Node000012_Node000004" class="edge">
<title>Node12&#45;&gt;Node4</title>
<g id="a_edge33_Node000012_Node000004"><a xlink:title=" ">
<path fill="none" stroke="#63b8ff" d="M800,-385.77C800,-364.23 800,-327.81 800,-296.5 800,-296.5 800,-296.5 800,-184.5 800,-142.66 788.4,-93.56 783.33,-74.09"/>
<polygon fill="#63b8ff" stroke="#63b8ff" points="796.5,-385.82 800,-395.82 803.5,-385.82 796.5,-385.82"/>
</a>
</g>
</g>
<!-- Node13 -->
<g id="Node000013" class="node">
<title>Node13</title>
<g id="a_Node000013"><a xlink:href="IAppender_8h.html" target="_top" xlink:title=" ">
<polygon fill="white" stroke="#666666" points="965.5,-305 828.5,-305 828.5,-286 965.5,-286 965.5,-305"/>
<text text-anchor="middle" x="897" y="-293" font-family="Helvetica,sans-Serif" font-size="10.00">utils/logging/IAppender.h</text>
</a>
</g>
</g>
<!-- Node12&#45;&gt;Node13 -->
<g id="edge16_Node000012_Node000013" class="edge">
<title>Node12&#45;&gt;Node13</title>
<g id="a_edge16_Node000012_Node000013"><a xlink:title=" ">
<path fill="none" stroke="#63b8ff" d="M814.82,-388C835.72,-364.73 873.08,-323.13 889.22,-305.16"/>
<polygon fill="#63b8ff" stroke="#63b8ff" points="812.02,-385.88 807.94,-395.66 817.22,-390.56 812.02,-385.88"/>
</a>
</g>
</g>
<!-- Node12&#45;&gt;Node14 -->
<g id="edge34_Node000012_Node000014" class="edge">
<title>Node12&#45;&gt;Node14</title>
<g id="a_edge34_Node000012_Node000014"><a xlink:title=" ">
<path fill="none" stroke="#63b8ff" d="M737.74,-394.01C703.29,-386.92 660.25,-375.91 624,-360 553.5,-329.05 479.84,-271.68 453.29,-250.05"/>
<polygon fill="#63b8ff" stroke="#63b8ff" points="737.18,-397.47 747.68,-396 738.56,-390.6 737.18,-397.47"/>
</a>
</g>
</g>
<!-- Node16 -->
<g id="Node000016" class="node">
<title>Node16</title>
<g id="a_Node000016"><a xlink:href="IFormatter_8h.html" target="_top" xlink:title=" ">
<polygon fill="white" stroke="#666666" points="771.5,-360 632.5,-360 632.5,-341 771.5,-341 771.5,-360"/>
<text text-anchor="middle" x="702" y="-348" font-family="Helvetica,sans-Serif" font-size="10.00">utils/logging/IFormatter.h</text>
</a>
</g>
</g>
<!-- Node12&#45;&gt;Node16 -->
<g id="edge25_Node000012_Node000016" class="edge">
<title>Node12&#45;&gt;Node16</title>
<g id="a_edge25_Node000012_Node000016"><a xlink:title=" ">
<path fill="none" stroke="#63b8ff" d="M774.97,-390.97C757.06,-381.28 733.47,-368.52 718.03,-360.17"/>
<polygon fill="#63b8ff" stroke="#63b8ff" points="773.79,-394.31 784.25,-395.98 777.12,-388.15 773.79,-394.31"/>
</a>
</g>
</g>
<!-- Node13&#45;&gt;Node2 -->
<g id="edge17_Node000013_Node000002" class="edge">
<title>Node13&#45;&gt;Node2</title>
<g id="a_edge17_Node000013_Node000002"><a xlink:title=" ">
<path fill="none" stroke="#63b8ff" d="M943.09,-283.69C985.44,-273.76 1047.36,-259.24 1086.4,-250.08"/>
<polygon fill="#63b8ff" stroke="#63b8ff" points="942.25,-280.29 933.31,-285.98 943.85,-287.11 942.25,-280.29"/>
</a>
</g>
</g>
<!-- Node13&#45;&gt;Node4 -->
<g id="edge19_Node000013_Node000004" class="edge">
<title>Node13&#45;&gt;Node4</title>
<g id="a_edge19_Node000013_Node000004"><a xlink:title=" ">
<path fill="none" stroke="#63b8ff" d="M879.72,-278.74C871.86,-270.78 862.99,-260.58 857,-250 824.94,-193.35 843.37,-168.09 814,-110 807.14,-96.44 796.18,-82.67 788.79,-74.11"/>
<polygon fill="#63b8ff" stroke="#63b8ff" points="877.49,-281.45 887.11,-285.89 882.36,-276.42 877.49,-281.45"/>
</a>
</g>
</g>
<!-- Node13&#45;&gt;Node6 -->
<g id="edge18_Node000013_Node000006" class="edge">
<title>Node13&#45;&gt;Node6</title>
<g id="a_edge18_Node000013_Node000006"><a xlink:title=" ">
<path fill="none" stroke="#63b8ff" d="M911.05,-277.96C918.89,-268.72 928.33,-257.6 934.71,-250.09"/>
<polygon fill="#63b8ff" stroke="#63b8ff" points="908.24,-275.86 904.43,-285.75 913.57,-280.39 908.24,-275.86"/>
</a>
</g>
</g>
<!-- Node13&#45;&gt;Node14 -->
<g id="edge20_Node000013_Node000014" class="edge">
<title>Node13&#45;&gt;Node14</title>
<g id="a_edge20_Node000013_Node000014"><a xlink:title=" ">
<path fill="none" stroke="#63b8ff" d="M817.95,-285.27C728.43,-274.82 584.53,-258.02 503.51,-248.56"/>
<polygon fill="#63b8ff" stroke="#63b8ff" points="817.71,-288.77 828.05,-286.45 818.52,-281.81 817.71,-288.77"/>
</a>
</g>
</g>
<!-- Node14&#45;&gt;Node4 -->
<g id="edge21_Node000014_Node000004" class="edge">
<title>Node14&#45;&gt;Node4</title>
<g id="a_edge21_Node000014_Node000004"><a xlink:title=" ">
<path fill="none" stroke="#63b8ff" d="M402,-227.69C371.6,-216.78 338.11,-198.82 355,-176 399.37,-116.04 623.87,-83.27 727.91,-71.09"/>
<polygon fill="#63b8ff" stroke="#63b8ff" points="401.11,-231.08 411.7,-230.98 403.36,-224.45 401.11,-231.08"/>
</a>
</g>
</g>
<!-- Node14&#45;&gt;Node8 -->
<g id="edge22_Node000014_Node000008" class="edge">
<title>Node14&#45;&gt;Node8</title>
<g id="a_edge22_Node000014_Node000008"><a xlink:title=" ">
<path fill="none" stroke="#63b8ff" d="M393.81,-228.82C348.08,-218.88 280.84,-204.28 238.51,-195.08"/>
<polygon fill="#63b8ff" stroke="#63b8ff" points="393.28,-232.28 403.8,-230.98 394.77,-225.44 393.28,-232.28"/>
</a>
</g>
</g>
<!-- Node14&#45;&gt;Node10 -->
<g id="edge24_Node000014_Node000010" class="edge">
<title>Node14&#45;&gt;Node10</title>
<g id="a_edge24_Node000014_Node000010"><a xlink:title=" ">
<path fill="none" stroke="#63b8ff" d="M381.62,-228.22C360.41,-221.64 337.98,-211.27 322,-195 305.47,-178.17 300.29,-149.37 298.69,-134.88"/>
<polygon fill="#63b8ff" stroke="#63b8ff" points="380.68,-231.59 391.26,-230.99 382.61,-224.87 380.68,-231.59"/>
</a>
</g>
</g>
<!-- Node15 -->
<g id="Node000015" class="node">
<title>Node15</title>
<g id="a_Node000015"><a xlink:href="Logger_8cpp.html" target="_top" xlink:title=" ">
<polygon fill="white" stroke="#666666" points="496,-195 364,-195 364,-176 496,-176 496,-195"/>
<text text-anchor="middle" x="430" y="-183" font-family="Helvetica,sans-Serif" font-size="10.00">utils/logging/Logger.cpp</text>
</a>
</g>
</g>
<!-- Node14&#45;&gt;Node15 -->
<g id="edge23_Node000014_Node000015" class="edge">
<title>Node14&#45;&gt;Node15</title>
<g id="a_edge23_Node000014_Node000015"><a xlink:title=" ">
<path fill="none" stroke="#63b8ff" d="M438.45,-220.95C436.29,-212.15 433.82,-202.06 432.11,-195.09"/>
<polygon fill="#63b8ff" stroke="#63b8ff" points="435.07,-221.87 440.85,-230.75 441.87,-220.2 435.07,-221.87"/>
</a>
</g>
</g>
<!-- Node16&#45;&gt;Node4 -->
<g id="edge27_Node000016_Node000004" class="edge">
<title>Node16&#45;&gt;Node4</title>
<g id="a_edge27_Node000016_Node000004"><a xlink:title=" ">
<path fill="none" stroke="#63b8ff" d="M717.84,-333.38C735.62,-313.52 762,-277.91 762,-241.5 762,-241.5 762,-241.5 762,-184.5 762,-142.66 773.6,-93.56 778.67,-74.09"/>
<polygon fill="#63b8ff" stroke="#63b8ff" points="715.11,-331.18 710.85,-340.89 720.23,-335.95 715.11,-331.18"/>
</a>
</g>
</g>
<!-- Node16&#45;&gt;Node13 -->
<g id="edge26_Node000016_Node000013" class="edge">
<title>Node16&#45;&gt;Node13</title>
<g id="a_edge26_Node000016_Node000013"><a xlink:title=" ">
<path fill="none" stroke="#63b8ff" d="M743.17,-338.31C779.66,-328.39 832.17,-314.12 865.42,-305.08"/>
<polygon fill="#63b8ff" stroke="#63b8ff" points="742.06,-334.98 733.33,-340.98 743.9,-341.74 742.06,-334.98"/>
</a>
</g>
</g>
<!-- Node16&#45;&gt;Node14 -->
<g id="edge28_Node000016_Node000014" class="edge">
<title>Node16&#45;&gt;Node14</title>
<g id="a_edge28_Node000016_Node000014"><a xlink:title=" ">
<path fill="none" stroke="#63b8ff" d="M679.92,-335.68C657.06,-321.79 619.99,-300.42 586,-286 549.74,-270.61 506.31,-257.85 476.9,-250"/>
<polygon fill="#63b8ff" stroke="#63b8ff" points="678.16,-338.71 688.52,-340.96 681.83,-332.74 678.16,-338.71"/>
</a>
</g>
</g>
<!-- Node17 -->
<g id="Node000017" class="node">
<title>Node17</title>
<g id="a_Node000017"><a xlink:href="PatternFormatter_8h.html" target="_top" xlink:title=" ">
<polygon fill="white" stroke="#666666" points="716,-250 546,-250 546,-231 716,-231 716,-250"/>
<text text-anchor="middle" x="631" y="-238" font-family="Helvetica,sans-Serif" font-size="10.00">utils/logging/PatternFormatter.h</text>
</a>
</g>
</g>
<!-- Node16&#45;&gt;Node17 -->
<g id="edge29_Node000016_Node000017" class="edge">
<title>Node16&#45;&gt;Node17</title>
<g id="a_edge29_Node000016_Node000017"><a xlink:title=" ">
<path fill="none" stroke="#63b8ff" d="M690.54,-332.07C675.14,-308.64 648.35,-267.89 636.69,-250.16"/>
<polygon fill="#63b8ff" stroke="#63b8ff" points="687.77,-334.23 696.19,-340.66 693.62,-330.38 687.77,-334.23"/>
</a>
</g>
</g>
<!-- Node17&#45;&gt;Node4 -->
<g id="edge30_Node000017_Node000004" class="edge">
<title>Node17&#45;&gt;Node4</title>
<g id="a_edge30_Node000017_Node000004"><a xlink:title=" ">
<path fill="none" stroke="#63b8ff" d="M589.1,-227.64C559.67,-217.01 528.02,-199.47 543,-176 583.5,-112.54 670.88,-84.97 727.75,-73.39"/>
<polygon fill="#63b8ff" stroke="#63b8ff" points="588.33,-231.07 598.92,-230.97 590.58,-224.44 588.33,-231.07"/>
</a>
</g>
</g>
<!-- Node17&#45;&gt;Node15 -->
<g id="edge31_Node000017_Node000015" class="edge">
<title>Node17&#45;&gt;Node15</title>
<g id="a_edge31_Node000017_Node000015"><a xlink:title=" ">
<path fill="none" stroke="#63b8ff" d="M588.57,-228.31C550.96,-218.39 496.83,-204.12 462.55,-195.08"/>
<polygon fill="#63b8ff" stroke="#63b8ff" points="588.14,-231.82 598.71,-230.98 589.93,-225.05 588.14,-231.82"/>
</a>
</g>
</g>
<!-- Node18 -->
<g id="Node000018" class="node">
<title>Node18</title>
<g id="a_Node000018"><a xlink:href="PatternFormatter_8cpp.html" target="_top" xlink:title=" ">
<polygon fill="white" stroke="#666666" points="734,-195 552,-195 552,-176 734,-176 734,-195"/>
<text text-anchor="middle" x="643" y="-183" font-family="Helvetica,sans-Serif" font-size="10.00">utils/logging/PatternFormatter.cpp</text>
</a>
</g>
</g>
<!-- Node17&#45;&gt;Node18 -->
<g id="edge32_Node000017_Node000018" class="edge">
<title>Node17&#45;&gt;Node18</title>
<g id="a_edge32_Node000017_Node000018"><a xlink:title=" ">
<path fill="none" stroke="#63b8ff" d="M635.2,-220.95C637.19,-212.15 639.48,-202.06 641.06,-195.09"/>
<polygon fill="#63b8ff" stroke="#63b8ff" points="631.78,-220.22 632.98,-230.75 638.6,-221.77 631.78,-220.22"/>
</a>
</g>
</g>
</g>
</svg>
