<?xml version="1.0" encoding="UTF-8" standalone="no"?>
<!DOCTYPE svg PUBLIC "-//W3C//DTD SVG 1.1//EN"
 "http://www.w3.org/Graphics/SVG/1.1/DTD/svg11.dtd">
<!-- Generated by graphviz version 2.43.0 (0)
 -->
<!-- Title: utils/logging/LogLevel.h Pages: 1 -->
<svg width="1235pt" height="467pt"
 viewBox="0.00 0.00 1235.00 467.00" xmlns="http://www.w3.org/2000/svg" xmlns:xlink="http://www.w3.org/1999/xlink">
<g id="graph0" class="graph" transform="scale(1 1) rotate(0) translate(4 463)">
<title>utils/logging/LogLevel.h</title>
<!-- Node1 -->
<g id="Node000001" class="node">
<title>Node1</title>
<g id="a_Node000001"><a xlink:title=" ">
<polygon fill="#999999" stroke="#666666" points="559,-459 427,-459 427,-440 559,-440 559,-459"/>
<text text-anchor="middle" x="493" y="-447" font-family="Helvetica,sans-Serif" font-size="10.00">utils/logging/LogLevel.h</text>
</a>
</g>
</g>
<!-- Node2 -->
<g id="Node000002" class="node">
<title>Node2</title>
<g id="a_Node000002"><a xlink:href="ConsoleAppender_8h.html" target="_top" xlink:title=" ">
<polygon fill="white" stroke="#666666" points="268.5,-239 95.5,-239 95.5,-220 268.5,-220 268.5,-239"/>
<text text-anchor="middle" x="182" y="-227" font-family="Helvetica,sans-Serif" font-size="10.00">utils/logging/ConsoleAppender.h</text>
</a>
</g>
</g>
<!-- Node1&#45;&gt;Node2 -->
<g id="edge1_Node000001_Node000002" class="edge">
<title>Node1&#45;&gt;Node2</title>
<g id="a_edge1_Node000001_Node000002"><a xlink:title=" ">
<path fill="none" stroke="#63b8ff" d="M472.59,-434.19C413.27,-392.61 242.1,-272.63 194.45,-239.22"/>
<polygon fill="#63b8ff" stroke="#63b8ff" points="470.61,-437.08 480.81,-439.95 474.63,-431.35 470.61,-437.08"/>
</a>
</g>
</g>
<!-- Node4 -->
<g id="Node000004" class="node">
<title>Node4</title>
<g id="a_Node000004"><a xlink:href="Log_8h.html" target="_top" xlink:title="EasyKiConverter 日志系统统一入口">
<polygon fill="white" stroke="#666666" points="608,-74 502,-74 502,-55 608,-55 608,-74"/>
<text text-anchor="middle" x="555" y="-62" font-family="Helvetica,sans-Serif" font-size="10.00">utils/logging/Log.h</text>
</a>
</g>
</g>
<!-- Node1&#45;&gt;Node4 -->
<g id="edge8_Node000001_Node000004" class="edge">
<title>Node1&#45;&gt;Node4</title>
<g id="a_edge8_Node000001_Node000004"><a xlink:title=" ">
<path fill="none" stroke="#63b8ff" d="M416.64,-447.42C278.22,-443.37 0,-424.75 0,-340.5 0,-340.5 0,-340.5 0,-173.5 0,-71.9 362.87,-63.99 501.78,-64.69"/>
<polygon fill="#63b8ff" stroke="#63b8ff" points="416.68,-450.92 426.77,-447.69 416.87,-443.92 416.68,-450.92"/>
</a>
</g>
</g>
<!-- Node6 -->
<g id="Node000006" class="node">
<title>Node6</title>
<g id="a_Node000006"><a xlink:href="FileAppender_8h.html" target="_top" xlink:title=" ">
<polygon fill="white" stroke="#666666" points="464,-239 312,-239 312,-220 464,-220 464,-239"/>
<text text-anchor="middle" x="388" y="-227" font-family="Helvetica,sans-Serif" font-size="10.00">utils/logging/FileAppender.h</text>
</a>
</g>
</g>
<!-- Node1&#45;&gt;Node6 -->
<g id="edge5_Node000001_Node000006" class="edge">
<title>Node1&#45;&gt;Node6</title>
<g id="a_edge5_Node000001_Node000006"><a xlink:title=" ">
<path fill="none" stroke="#63b8ff" d="M481.71,-431.18C463.88,-403.26 428.99,-346.12 407,-294 399.04,-275.13 392.96,-251.8 390,-239.34"/>
<polygon fill="#63b8ff" stroke="#63b8ff" points="478.89,-433.28 487.25,-439.79 484.78,-429.49 478.89,-433.28"/>
</a>
</g>
</g>
<!-- Node8 -->
<g id="Node000008" class="node">
<title>Node8</title>
<g id="a_Node000008"><a xlink:href="LogMacros_8h.html" target="_top" xlink:title=" ">
<polygon fill="white" stroke="#666666" points="1169.5,-184 1028.5,-184 1028.5,-165 1169.5,-165 1169.5,-184"/>
<text text-anchor="middle" x="1099" y="-172" font-family="Helvetica,sans-Serif" font-size="10.00">utils/logging/LogMacros.h</text>
</a>
</g>
</g>
<!-- Node1&#45;&gt;Node8 -->
<g id="edge9_Node000001_Node000008" class="edge">
<title>Node1&#45;&gt;Node8</title>
<g id="a_edge9_Node000001_Node000008"><a xlink:title=" ">
<path fill="none" stroke="#63b8ff" d="M569.27,-442.02C725.64,-427.72 1068,-390.66 1068,-340.5 1068,-340.5 1068,-340.5 1068,-283.5 1068,-245.27 1086.17,-202.27 1094.69,-184.22"/>
<polygon fill="#63b8ff" stroke="#63b8ff" points="568.88,-438.54 559.24,-442.93 569.52,-445.51 568.88,-438.54"/>
</a>
</g>
</g>
<!-- Node11 -->
<g id="Node000011" class="node">
<title>Node11</title>
<g id="a_Node000011"><a xlink:href="LogRecord_8h.html" target="_top" xlink:title=" ">
<polygon fill="white" stroke="#666666" points="718,-404 578,-404 578,-385 718,-385 718,-404"/>
<text text-anchor="middle" x="648" y="-392" font-family="Helvetica,sans-Serif" font-size="10.00">utils/logging/LogRecord.h</text>
</a>
</g>
</g>
<!-- Node1&#45;&gt;Node11 -->
<g id="edge14_Node000001_Node000011" class="edge">
<title>Node1&#45;&gt;Node11</title>
<g id="a_edge14_Node000001_Node000011"><a xlink:title=" ">
<path fill="none" stroke="#63b8ff" d="M527.6,-436.67C556.5,-426.79 597.03,-412.93 622.9,-404.08"/>
<polygon fill="#63b8ff" stroke="#63b8ff" points="526.23,-433.44 517.9,-439.98 528.5,-440.06 526.23,-433.44"/>
</a>
</g>
</g>
<!-- Node13 -->
<g id="Node000013" class="node">
<title>Node13</title>
<g id="a_Node000013"><a xlink:href="Logger_8h.html" target="_top" xlink:title=" ">
<polygon fill="white" stroke="#666666" points="949.5,-239 828.5,-239 828.5,-220 949.5,-220 949.5,-239"/>
<text text-anchor="middle" x="889" y="-227" font-family="Helvetica,sans-Serif" font-size="10.00">utils/logging/Logger.h</text>
</a>
</g>
</g>
<!-- Node1&#45;&gt;Node13 -->
<g id="edge34_Node000001_Node000013" class="edge">
<title>Node1&#45;&gt;Node13</title>
<g id="a_edge34_Node000001_Node000013"><a xlink:title=" ">
<path fill="none" stroke="#63b8ff" d="M569.1,-445.73C616.89,-441.24 678.44,-430.27 727,-404 804.93,-361.84 866.23,-268.12 883.86,-239.18"/>
<polygon fill="#63b8ff" stroke="#63b8ff" points="568.79,-442.24 559.13,-446.59 569.39,-449.22 568.79,-442.24"/>
</a>
</g>
</g>
<!-- Node3 -->
<g id="Node000003" class="node">
<title>Node3</title>
<g id="a_Node000003"><a xlink:href="ConsoleAppender_8cpp.html" target="_top" xlink:title=" ">
<polygon fill="white" stroke="#666666" points="250.5,-184 65.5,-184 65.5,-165 250.5,-165 250.5,-184"/>
<text text-anchor="middle" x="158" y="-172" font-family="Helvetica,sans-Serif" font-size="10.00">utils/logging/ConsoleAppender.cpp</text>
</a>
</g>
</g>
<!-- Node2&#45;&gt;Node3 -->
<g id="edge2_Node000002_Node000003" class="edge">
<title>Node2&#45;&gt;Node3</title>
<g id="a_edge2_Node000002_Node000003"><a xlink:title=" ">
<path fill="none" stroke="#63b8ff" d="M173.86,-210.53C169.82,-201.6 165.12,-191.22 161.89,-184.09"/>
<polygon fill="#63b8ff" stroke="#63b8ff" points="170.72,-212.08 178.04,-219.75 177.1,-209.19 170.72,-212.08"/>
</a>
</g>
</g>
<!-- Node2&#45;&gt;Node4 -->
<g id="edge3_Node000002_Node000004" class="edge">
<title>Node2&#45;&gt;Node4</title>
<g id="a_edge3_Node000002_Node000004"><a xlink:title=" ">
<path fill="none" stroke="#63b8ff" d="M115.47,-217.78C74.66,-208.31 34.08,-191.75 56,-165 111.98,-96.67 385.06,-74.37 501.85,-67.89"/>
<polygon fill="#63b8ff" stroke="#63b8ff" points="114.74,-221.2 125.26,-219.92 116.24,-214.37 114.74,-221.2"/>
</a>
</g>
</g>
<!-- Node5 -->
<g id="Node000005" class="node">
<title>Node5</title>
<g id="a_Node000005"><a xlink:href="main_8cpp.html" target="_top" xlink:title=" ">
<polygon fill="white" stroke="#666666" points="586,-19 524,-19 524,0 586,0 586,-19"/>
<text text-anchor="middle" x="555" y="-7" font-family="Helvetica,sans-Serif" font-size="10.00">main.cpp</text>
</a>
</g>
</g>
<!-- Node4&#45;&gt;Node5 -->
<g id="edge4_Node000004_Node000005" class="edge">
<title>Node4&#45;&gt;Node5</title>
<g id="a_edge4_Node000004_Node000005"><a xlink:title=" ">
<path fill="none" stroke="#63b8ff" d="M555,-44.66C555,-35.93 555,-25.99 555,-19.09"/>
<polygon fill="#63b8ff" stroke="#63b8ff" points="551.5,-44.75 555,-54.75 558.5,-44.75 551.5,-44.75"/>
</a>
</g>
</g>
<!-- Node6&#45;&gt;Node4 -->
<g id="edge7_Node000006_Node000004" class="edge">
<title>Node6&#45;&gt;Node4</title>
<g id="a_edge7_Node000006_Node000004"><a xlink:title=" ">
<path fill="none" stroke="#63b8ff" d="M344.74,-216.78C314,-206.16 280.82,-188.58 297,-165 342.9,-98.1 440.64,-76.17 501.76,-68.98"/>
<polygon fill="#63b8ff" stroke="#63b8ff" points="343.97,-220.21 354.56,-219.98 346.14,-213.55 343.97,-220.21"/>
</a>
</g>
</g>
<!-- Node7 -->
<g id="Node000007" class="node">
<title>Node7</title>
<g id="a_Node000007"><a xlink:href="FileAppender_8cpp.html" target="_top" xlink:title=" ">
<polygon fill="white" stroke="#666666" points="469.5,-184 306.5,-184 306.5,-165 469.5,-165 469.5,-184"/>
<text text-anchor="middle" x="388" y="-172" font-family="Helvetica,sans-Serif" font-size="10.00">utils/logging/FileAppender.cpp</text>
</a>
</g>
</g>
<!-- Node6&#45;&gt;Node7 -->
<g id="edge6_Node000006_Node000007" class="edge">
<title>Node6&#45;&gt;Node7</title>
<g id="a_edge6_Node000006_Node000007"><a xlink:title=" ">
<path fill="none" stroke="#63b8ff" d="M388,-209.66C388,-200.93 388,-190.99 388,-184.09"/>
<polygon fill="#63b8ff" stroke="#63b8ff" points="384.5,-209.75 388,-219.75 391.5,-209.75 384.5,-209.75"/>
</a>
</g>
</g>
<!-- Node8&#45;&gt;Node4 -->
<g id="edge10_Node000008_Node000004" class="edge">
<title>Node8&#45;&gt;Node4</title>
<g id="a_edge10_Node000008_Node000004"><a xlink:title=" ">
<path fill="none" stroke="#63b8ff" d="M1083.22,-157.44C1067.29,-142.34 1041.21,-120.53 1014,-110 941.2,-81.84 712.99,-70.76 608.36,-67.08"/>
<polygon fill="#63b8ff" stroke="#63b8ff" points="1080.98,-160.14 1090.58,-164.63 1085.87,-155.13 1080.98,-160.14"/>
</a>
</g>
</g>
<!-- Node9 -->
<g id="Node000009" class="node">
<title>Node9</title>
<g id="a_Node000009"><a xlink:href="QtLogAdapter_8h.html" target="_top" xlink:title=" ">
<polygon fill="white" stroke="#666666" points="1221.5,-129 1066.5,-129 1066.5,-110 1221.5,-110 1221.5,-129"/>
<text text-anchor="middle" x="1144" y="-117" font-family="Helvetica,sans-Serif" font-size="10.00">utils/logging/QtLogAdapter.h</text>
</a>
</g>
</g>
<!-- Node8&#45;&gt;Node9 -->
<g id="edge11_Node000008_Node000009" class="edge">
<title>Node8&#45;&gt;Node9</title>
<g id="a_edge11_Node000008_Node000009"><a xlink:title=" ">
<path fill="none" stroke="#63b8ff" d="M1113.05,-156.96C1120.89,-147.72 1130.33,-136.6 1136.71,-129.09"/>
<polygon fill="#63b8ff" stroke="#63b8ff" points="1110.24,-154.86 1106.43,-164.75 1115.57,-159.39 1110.24,-154.86"/>
</a>
</g>
</g>
<!-- Node9&#45;&gt;Node4 -->
<g id="edge12_Node000009_Node000004" class="edge">
<title>Node9&#45;&gt;Node4</title>
<g id="a_edge12_Node000009_Node000004"><a xlink:title=" ">
<path fill="none" stroke="#63b8ff" d="M1055.94,-110.36C1054.62,-110.24 1053.3,-110.12 1052,-110 890.45,-95.3 699.33,-78.3 608.33,-70.22"/>
<polygon fill="#63b8ff" stroke="#63b8ff" points="1055.92,-113.87 1066.2,-111.3 1056.56,-106.9 1055.92,-113.87"/>
</a>
</g>
</g>
<!-- Node10 -->
<g id="Node000010" class="node">
<title>Node10</title>
<g id="a_Node000010"><a xlink:href="QtLogAdapter_8cpp.html" target="_top" xlink:title=" ">
<polygon fill="white" stroke="#666666" points="1227,-74 1061,-74 1061,-55 1227,-55 1227,-74"/>
<text text-anchor="middle" x="1144" y="-62" font-family="Helvetica,sans-Serif" font-size="10.00">utils/logging/QtLogAdapter.cpp</text>
</a>
</g>
</g>
<!-- Node9&#45;&gt;Node10 -->
<g id="edge13_Node000009_Node000010" class="edge">
<title>Node9&#45;&gt;Node10</title>
<g id="a_edge13_Node000009_Node000010"><a xlink:title=" ">
<path fill="none" stroke="#63b8ff" d="M1144,-99.66C1144,-90.93 1144,-80.99 1144,-74.09"/>
<polygon fill="#63b8ff" stroke="#63b8ff" points="1140.5,-99.75 1144,-109.75 1147.5,-99.75 1140.5,-99.75"/>
</a>
</g>
</g>
<!-- Node11&#45;&gt;Node4 -->
<g id="edge32_Node000011_Node000004" class="edge">
<title>Node11&#45;&gt;Node4</title>
<g id="a_edge32_Node000011_Node000004"><a xlink:title=" ">
<path fill="none" stroke="#63b8ff" d="M728.55,-390.51C832.45,-381.85 1000,-349.44 1000,-230.5 1000,-230.5 1000,-230.5 1000,-173.5 1000,-93.7 726.35,-72.64 608.24,-67.27"/>
<polygon fill="#63b8ff" stroke="#63b8ff" points="728.09,-387.04 718.39,-391.3 728.63,-394.02 728.09,-387.04"/>
</a>
</g>
</g>
<!-- Node12 -->
<g id="Node000012" class="node">
<title>Node12</title>
<g id="a_Node000012"><a xlink:href="IAppender_8h.html" target="_top" xlink:title=" ">
<polygon fill="white" stroke="#666666" points="553.5,-294 416.5,-294 416.5,-275 553.5,-275 553.5,-294"/>
<text text-anchor="middle" x="485" y="-282" font-family="Helvetica,sans-Serif" font-size="10.00">utils/logging/IAppender.h</text>
</a>
</g>
</g>
<!-- Node11&#45;&gt;Node12 -->
<g id="edge15_Node000011_Node000012" class="edge">
<title>Node11&#45;&gt;Node12</title>
<g id="a_edge15_Node000011_Node000012"><a xlink:title=" ">
<path fill="none" stroke="#63b8ff" d="M622.17,-380.09C606.48,-371.66 586.23,-360.29 569,-349 541.48,-330.96 511.13,-306.9 495.54,-294.2"/>
<polygon fill="#63b8ff" stroke="#63b8ff" points="620.8,-383.33 631.28,-384.92 624.09,-377.14 620.8,-383.33"/>
</a>
</g>
</g>
<!-- Node11&#45;&gt;Node13 -->
<g id="edge33_Node000011_Node000013" class="edge">
<title>Node11&#45;&gt;Node13</title>
<g id="a_edge33_Node000011_Node000013"><a xlink:title=" ">
<path fill="none" stroke="#63b8ff" d="M673.12,-380.09C688.62,-371.59 708.76,-360.14 726,-349 785.07,-310.84 851.87,-259.55 877.84,-239.28"/>
<polygon fill="#63b8ff" stroke="#63b8ff" points="671.26,-377.12 664.14,-384.97 674.6,-383.27 671.26,-377.12"/>
</a>
</g>
</g>
<!-- Node15 -->
<g id="Node000015" class="node">
<title>Node15</title>
<g id="a_Node000015"><a xlink:href="IFormatter_8h.html" target="_top" xlink:title=" ">
<polygon fill="white" stroke="#666666" points="717.5,-349 578.5,-349 578.5,-330 717.5,-330 717.5,-349"/>
<text text-anchor="middle" x="648" y="-337" font-family="Helvetica,sans-Serif" font-size="10.00">utils/logging/IFormatter.h</text>
</a>
</g>
</g>
<!-- Node11&#45;&gt;Node15 -->
<g id="edge24_Node000011_Node000015" class="edge">
<title>Node11&#45;&gt;Node15</title>
<g id="a_edge24_Node000011_Node000015"><a xlink:title=" ">
<path fill="none" stroke="#63b8ff" d="M648,-374.66C648,-365.93 648,-355.99 648,-349.09"/>
<polygon fill="#63b8ff" stroke="#63b8ff" points="644.5,-374.75 648,-384.75 651.5,-374.75 644.5,-374.75"/>
</a>
</g>
</g>
<!-- Node12&#45;&gt;Node2 -->
<g id="edge16_Node000012_Node000002" class="edge">
<title>Node12&#45;&gt;Node2</title>
<g id="a_edge16_Node000012_Node000002"><a xlink:title=" ">
<path fill="none" stroke="#63b8ff" d="M426.39,-273.25C369.49,-263.3 284.13,-248.36 230.81,-239.04"/>
<polygon fill="#63b8ff" stroke="#63b8ff" points="425.86,-276.71 436.32,-274.98 427.07,-269.81 425.86,-276.71"/>
</a>
</g>
</g>
<!-- Node12&#45;&gt;Node4 -->
<g id="edge18_Node000012_Node000004" class="edge">
<title>Node12&#45;&gt;Node4</title>
<g id="a_edge18_Node000012_Node000004"><a xlink:title=" ">
<path fill="none" stroke="#63b8ff" d="M490.81,-265.42C505.14,-220.79 541.78,-106.67 552.2,-74.22"/>
<polygon fill="#63b8ff" stroke="#63b8ff" points="487.47,-264.36 487.74,-274.95 494.13,-266.5 487.47,-264.36"/>
</a>
</g>
</g>
<!-- Node12&#45;&gt;Node6 -->
<g id="edge17_Node000012_Node000006" class="edge">
<title>Node12&#45;&gt;Node6</title>
<g id="a_edge17_Node000012_Node000006"><a xlink:title=" ">
<path fill="none" stroke="#63b8ff" d="M460.23,-269.97C442.5,-260.28 419.15,-247.52 403.87,-239.17"/>
<polygon fill="#63b8ff" stroke="#63b8ff" points="458.96,-273.26 469.42,-274.98 462.32,-267.12 458.96,-273.26"/>
</a>
</g>
</g>
<!-- Node12&#45;&gt;Node13 -->
<g id="edge19_Node000012_Node000013" class="edge">
<title>Node12&#45;&gt;Node13</title>
<g id="a_edge19_Node000012_Node000013"><a xlink:title=" ">
<path fill="none" stroke="#63b8ff" d="M560.07,-273.65C637.43,-263.5 756.55,-247.88 828.22,-238.47"/>
<polygon fill="#63b8ff" stroke="#63b8ff" points="559.37,-270.21 549.91,-274.98 560.28,-277.15 559.37,-270.21"/>
</a>
</g>
</g>
<!-- Node13&#45;&gt;Node4 -->
<g id="edge20_Node000013_Node000004" class="edge">
<title>Node13&#45;&gt;Node4</title>
<g id="a_edge20_Node000013_Node000004"><a xlink:title=" ">
<path fill="none" stroke="#63b8ff" d="M914.32,-214.72C934.29,-202.06 956.68,-182.63 943,-165 902.13,-112.32 704.8,-82.74 608.33,-71.2"/>
<polygon fill="#63b8ff" stroke="#63b8ff" points="912.51,-211.73 905.74,-219.87 916.11,-217.73 912.51,-211.73"/>
</a>
</g>
</g>
<!-- Node13&#45;&gt;Node8 -->
<g id="edge21_Node000013_Node000008" class="edge">
<title>Node13&#45;&gt;Node8</title>
<g id="a_edge21_Node000013_Node000008"><a xlink:title=" ">
<path fill="none" stroke="#63b8ff" d="M932.58,-217.5C971.9,-207.58 1028.95,-193.18 1065,-184.08"/>
<polygon fill="#63b8ff" stroke="#63b8ff" points="931.58,-214.14 922.74,-219.98 933.29,-220.93 931.58,-214.14"/>
</a>
</g>
</g>
<!-- Node13&#45;&gt;Node9 -->
<g id="edge23_Node000013_Node000009" class="edge">
<title>Node13&#45;&gt;Node9</title>
<g id="a_edge23_Node000013_Node000009"><a xlink:title=" ">
<path fill="none" stroke="#63b8ff" d="M959.73,-227.81C1036.33,-225.38 1151.3,-216.28 1179,-184 1193.84,-166.71 1170.2,-142.13 1155.07,-129.21"/>
<polygon fill="#63b8ff" stroke="#63b8ff" points="959.56,-224.31 949.66,-228.1 959.76,-231.31 959.56,-224.31"/>
</a>
</g>
</g>
<!-- Node14 -->
<g id="Node000014" class="node">
<title>Node14</title>
<g id="a_Node000014"><a xlink:href="Logger_8cpp.html" target="_top" xlink:title=" ">
<polygon fill="white" stroke="#666666" points="934,-184 802,-184 802,-165 934,-165 934,-184"/>
<text text-anchor="middle" x="868" y="-172" font-family="Helvetica,sans-Serif" font-size="10.00">utils/logging/Logger.cpp</text>
</a>
</g>
</g>
<!-- Node13&#45;&gt;Node14 -->
<g id="edge22_Node000013_Node000014" class="edge">
<title>Node13&#45;&gt;Node14</title>
<g id="a_edge22_Node000013_Node000014"><a xlink:title=" ">
<path fill="none" stroke="#63b8ff" d="M881.76,-210.24C878.25,-201.37 874.2,-191.14 871.4,-184.09"/>
<polygon fill="#63b8ff" stroke="#63b8ff" points="878.59,-211.74 885.53,-219.75 885.1,-209.16 878.59,-211.74"/>
</a>
</g>
</g>
<!-- Node15&#45;&gt;Node4 -->
<g id="edge26_Node000015_Node000004" class="edge">
<title>Node15&#45;&gt;Node4</title>
<g id="a_edge26_Node000015_Node000004"><a xlink:title=" ">
<path fill="none" stroke="#63b8ff" d="M634,-321.8C606.85,-288.07 548.16,-208.24 531,-129 529.21,-120.75 528.93,-118.19 531,-110 534.39,-96.55 542.74,-82.75 548.63,-74.16"/>
<polygon fill="#63b8ff" stroke="#63b8ff" points="631.43,-324.19 640.48,-329.71 636.85,-319.76 631.43,-324.19"/>
</a>
</g>
</g>
<!-- Node15&#45;&gt;Node12 -->
<g id="edge25_Node000015_Node000012" class="edge">
<title>Node15&#45;&gt;Node12</title>
<g id="a_edge25_Node000015_Node000012"><a xlink:title=" ">
<path fill="none" stroke="#63b8ff" d="M612.01,-326.8C581.59,-316.91 538.72,-302.97 511.39,-294.08"/>
<polygon fill="#63b8ff" stroke="#63b8ff" points="611.22,-330.22 621.81,-329.98 613.38,-323.56 611.22,-330.22"/>
</a>
</g>
</g>
<!-- Node15&#45;&gt;Node13 -->
<g id="edge27_Node000015_Node000013" class="edge">
<title>Node15&#45;&gt;Node13</title>
<g id="a_edge27_Node000015_Node000013"><a xlink:title=" ">
<path fill="none" stroke="#63b8ff" d="M665.7,-323.55C683.3,-309.33 711.55,-288.22 739,-275 774,-258.15 816.7,-246.24 847.58,-239"/>
<polygon fill="#63b8ff" stroke="#63b8ff" points="663.47,-320.85 657.97,-329.91 667.91,-326.26 663.47,-320.85"/>
</a>
</g>
</g>
<!-- Node16 -->
<g id="Node000016" class="node">
<title>Node16</title>
<g id="a_Node000016"><a xlink:href="PatternFormatter_8h.html" target="_top" xlink:title=" ">
<polygon fill="white" stroke="#666666" points="760,-239 590,-239 590,-220 760,-220 760,-239"/>
<text text-anchor="middle" x="675" y="-227" font-family="Helvetica,sans-Serif" font-size="10.00">utils/logging/PatternFormatter.h</text>
</a>
</g>
</g>
<!-- Node15&#45;&gt;Node16 -->
<g id="edge28_Node000015_Node000016" class="edge">
<title>Node15&#45;&gt;Node16</title>
<g id="a_edge28_Node000015_Node000016"><a xlink:title=" ">
<path fill="none" stroke="#63b8ff" d="M652.67,-319.8C658.57,-296.2 668.48,-256.58 672.84,-239.16"/>
<polygon fill="#63b8ff" stroke="#63b8ff" points="649.24,-319.11 650.21,-329.66 656.03,-320.81 649.24,-319.11"/>
</a>
</g>
</g>
<!-- Node16&#45;&gt;Node4 -->
<g id="edge29_Node000016_Node000004" class="edge">
<title>Node16&#45;&gt;Node4</title>
<g id="a_edge29_Node000016_Node000004"><a xlink:title=" ">
<path fill="none" stroke="#63b8ff" d="M638.64,-215.95C622.67,-208.8 604.9,-198.36 593,-184 565.02,-150.23 557.52,-95.5 555.61,-74.29"/>
<polygon fill="#63b8ff" stroke="#63b8ff" points="637.7,-219.35 648.27,-219.97 640.4,-212.89 637.7,-219.35"/>
</a>
</g>
</g>
<!-- Node16&#45;&gt;Node14 -->
<g id="edge30_Node000016_Node000014" class="edge">
<title>Node16&#45;&gt;Node14</title>
<g id="a_edge30_Node000016_Node000014"><a xlink:title=" ">
<path fill="none" stroke="#63b8ff" d="M715.75,-217.31C751.86,-207.39 803.83,-193.12 836.75,-184.08"/>
<polygon fill="#63b8ff" stroke="#63b8ff" points="714.72,-213.96 706.01,-219.98 716.58,-220.71 714.72,-213.96"/>
</a>
</g>
</g>
<!-- Node17 -->
<g id="Node000017" class="node">
<title>Node17</title>
<g id="a_Node000017"><a xlink:href="PatternFormatter_8cpp.html" target="_top" xlink:title=" ">
<polygon fill="white" stroke="#666666" points="784,-184 602,-184 602,-165 784,-165 784,-184"/>
<text text-anchor="middle" x="693" y="-172" font-family="Helvetica,sans-Serif" font-size="10.00">utils/logging/PatternFormatter.cpp</text>
</a>
</g>
</g>
<!-- Node16&#45;&gt;Node17 -->
<g id="edge31_Node000016_Node000017" class="edge">
<title>Node16&#45;&gt;Node17</title>
<g id="a_edge31_Node000016_Node000017"><a xlink:title=" ">
<path fill="none" stroke="#63b8ff" d="M681.2,-210.24C684.21,-201.37 687.69,-191.14 690.08,-184.09"/>
<polygon fill="#63b8ff" stroke="#63b8ff" points="677.87,-209.15 677.97,-219.75 684.5,-211.4 677.87,-209.15"/>
</a>
</g>
</g>
</g>
</svg>
