<?xml version="1.0" encoding="UTF-8" standalone="no"?>
<!DOCTYPE svg PUBLIC "-//W3C//DTD SVG 1.1//EN"
 "http://www.w3.org/Graphics/SVG/1.1/DTD/svg11.dtd">
<!-- Generated by graphviz version 2.43.0 (0)
 -->
<!-- Title: utils/logging/LogModule.h Pages: 1 -->
<svg width="1231pt" height="467pt"
 viewBox="0.00 0.00 1231.00 467.00" xmlns="http://www.w3.org/2000/svg" xmlns:xlink="http://www.w3.org/1999/xlink">
<g id="graph0" class="graph" transform="scale(1 1) rotate(0) translate(4 463)">
<title>utils/logging/LogModule.h</title>
<!-- Node1 -->
<g id="Node000001" class="node">
<title>Node1</title>
<g id="a_Node000001"><a xlink:title=" ">
<polygon fill="#999999" stroke="#666666" points="619,-459 477,-459 477,-440 619,-440 619,-459"/>
<text text-anchor="middle" x="548" y="-447" font-family="Helvetica,sans-Serif" font-size="10.00">utils/logging/LogModule.h</text>
</a>
</g>
</g>
<!-- Node2 -->
<g id="Node000002" class="node">
<title>Node2</title>
<g id="a_Node000002"><a xlink:href="Log_8h.html" target="_top" xlink:title="EasyKiConverter 日志系统统一入口">
<polygon fill="white" stroke="#666666" points="721,-74 615,-74 615,-55 721,-55 721,-74"/>
<text text-anchor="middle" x="668" y="-62" font-family="Helvetica,sans-Serif" font-size="10.00">utils/logging/Log.h</text>
</a>
</g>
</g>
<!-- Node1&#45;&gt;Node2 -->
<g id="edge1_Node000001_Node000002" class="edge">
<title>Node1&#45;&gt;Node2</title>
<g id="a_edge1_Node000001_Node000002"><a xlink:title=" ">
<path fill="none" stroke="#63b8ff" d="M629.47,-443.86C809.02,-432.54 1223,-399.98 1223,-340.5 1223,-340.5 1223,-340.5 1223,-173.5 1223,-71.9 860.13,-63.99 721.22,-64.69"/>
<polygon fill="#63b8ff" stroke="#63b8ff" points="629.04,-440.38 619.28,-444.49 629.48,-447.36 629.04,-440.38"/>
</a>
</g>
</g>
<!-- Node4 -->
<g id="Node000004" class="node">
<title>Node4</title>
<g id="a_Node000004"><a xlink:href="LogMacros_8h.html" target="_top" xlink:title=" ">
<polygon fill="white" stroke="#666666" points="156.5,-184 15.5,-184 15.5,-165 156.5,-165 156.5,-184"/>
<text text-anchor="middle" x="86" y="-172" font-family="Helvetica,sans-Serif" font-size="10.00">utils/logging/LogMacros.h</text>
</a>
</g>
</g>
<!-- Node1&#45;&gt;Node4 -->
<g id="edge3_Node000001_Node000004" class="edge">
<title>Node1&#45;&gt;Node4</title>
<g id="a_edge3_Node000001_Node000004"><a xlink:title=" ">
<path fill="none" stroke="#63b8ff" d="M466.55,-443.12C349.07,-433.09 146,-406.24 146,-340.5 146,-340.5 146,-340.5 146,-283.5 146,-241.89 111.54,-201.32 94.85,-184.11"/>
<polygon fill="#63b8ff" stroke="#63b8ff" points="466.34,-446.62 476.59,-443.96 466.92,-439.64 466.34,-446.62"/>
</a>
</g>
</g>
<!-- Node7 -->
<g id="Node000007" class="node">
<title>Node7</title>
<g id="a_Node000007"><a xlink:href="LogRecord_8h.html" target="_top" xlink:title=" ">
<polygon fill="white" stroke="#666666" points="695,-404 555,-404 555,-385 695,-385 695,-404"/>
<text text-anchor="middle" x="625" y="-392" font-family="Helvetica,sans-Serif" font-size="10.00">utils/logging/LogRecord.h</text>
</a>
</g>
</g>
<!-- Node1&#45;&gt;Node7 -->
<g id="edge8_Node000001_Node000007" class="edge">
<title>Node1&#45;&gt;Node7</title>
<g id="a_edge8_Node000001_Node000007"><a xlink:title=" ">
<path fill="none" stroke="#63b8ff" d="M568.85,-434.15C582.76,-424.57 600.61,-412.29 612.4,-404.17"/>
<polygon fill="#63b8ff" stroke="#63b8ff" points="566.62,-431.43 560.37,-439.98 570.59,-437.2 566.62,-431.43"/>
</a>
</g>
</g>
<!-- Node13 -->
<g id="Node000013" class="node">
<title>Node13</title>
<g id="a_Node000013"><a xlink:href="Logger_8h.html" target="_top" xlink:title=" ">
<polygon fill="white" stroke="#666666" points="390.5,-239 269.5,-239 269.5,-220 390.5,-220 390.5,-239"/>
<text text-anchor="middle" x="330" y="-227" font-family="Helvetica,sans-Serif" font-size="10.00">utils/logging/Logger.h</text>
</a>
</g>
</g>
<!-- Node1&#45;&gt;Node13 -->
<g id="edge32_Node000001_Node000013" class="edge">
<title>Node1&#45;&gt;Node13</title>
<g id="a_edge32_Node000001_Node000013"><a xlink:title=" ">
<path fill="none" stroke="#63b8ff" d="M532.12,-432.62C489.17,-389.67 371.72,-272.22 338.72,-239.22"/>
<polygon fill="#63b8ff" stroke="#63b8ff" points="529.91,-435.36 539.45,-439.95 534.86,-430.41 529.91,-435.36"/>
</a>
</g>
</g>
<!-- Node3 -->
<g id="Node000003" class="node">
<title>Node3</title>
<g id="a_Node000003"><a xlink:href="main_8cpp.html" target="_top" xlink:title=" ">
<polygon fill="white" stroke="#666666" points="699,-19 637,-19 637,0 699,0 699,-19"/>
<text text-anchor="middle" x="668" y="-7" font-family="Helvetica,sans-Serif" font-size="10.00">main.cpp</text>
</a>
</g>
</g>
<!-- Node2&#45;&gt;Node3 -->
<g id="edge2_Node000002_Node000003" class="edge">
<title>Node2&#45;&gt;Node3</title>
<g id="a_edge2_Node000002_Node000003"><a xlink:title=" ">
<path fill="none" stroke="#63b8ff" d="M668,-44.66C668,-35.93 668,-25.99 668,-19.09"/>
<polygon fill="#63b8ff" stroke="#63b8ff" points="664.5,-44.75 668,-54.75 671.5,-44.75 664.5,-44.75"/>
</a>
</g>
</g>
<!-- Node4&#45;&gt;Node2 -->
<g id="edge4_Node000004_Node000002" class="edge">
<title>Node4&#45;&gt;Node2</title>
<g id="a_edge4_Node000004_Node000002"><a xlink:title=" ">
<path fill="none" stroke="#63b8ff" d="M110.4,-159.96C141.13,-143.14 192.39,-115.94 213,-110 287.17,-88.63 511.28,-74.04 614.68,-68.27"/>
<polygon fill="#63b8ff" stroke="#63b8ff" points="108.66,-156.92 101.58,-164.81 112.03,-163.05 108.66,-156.92"/>
</a>
</g>
</g>
<!-- Node5 -->
<g id="Node000005" class="node">
<title>Node5</title>
<g id="a_Node000005"><a xlink:href="QtLogAdapter_8h.html" target="_top" xlink:title=" ">
<polygon fill="white" stroke="#666666" points="160.5,-129 5.5,-129 5.5,-110 160.5,-110 160.5,-129"/>
<text text-anchor="middle" x="83" y="-117" font-family="Helvetica,sans-Serif" font-size="10.00">utils/logging/QtLogAdapter.h</text>
</a>
</g>
</g>
<!-- Node4&#45;&gt;Node5 -->
<g id="edge5_Node000004_Node000005" class="edge">
<title>Node4&#45;&gt;Node5</title>
<g id="a_edge5_Node000004_Node000005"><a xlink:title=" ">
<path fill="none" stroke="#63b8ff" d="M84.93,-154.66C84.44,-145.93 83.88,-135.99 83.49,-129.09"/>
<polygon fill="#63b8ff" stroke="#63b8ff" points="81.44,-154.96 85.5,-164.75 88.43,-154.57 81.44,-154.96"/>
</a>
</g>
</g>
<!-- Node5&#45;&gt;Node2 -->
<g id="edge6_Node000005_Node000002" class="edge">
<title>Node5&#45;&gt;Node2</title>
<g id="a_edge6_Node000005_Node000002"><a xlink:title=" ">
<path fill="none" stroke="#63b8ff" d="M171.06,-110.36C172.38,-110.24 173.7,-110.12 175,-110 335.04,-95.38 524.33,-78.38 614.74,-70.27"/>
<polygon fill="#63b8ff" stroke="#63b8ff" points="170.44,-106.9 160.8,-111.3 171.08,-113.87 170.44,-106.9"/>
</a>
</g>
</g>
<!-- Node6 -->
<g id="Node000006" class="node">
<title>Node6</title>
<g id="a_Node000006"><a xlink:href="QtLogAdapter_8cpp.html" target="_top" xlink:title=" ">
<polygon fill="white" stroke="#666666" points="166,-74 0,-74 0,-55 166,-55 166,-74"/>
<text text-anchor="middle" x="83" y="-62" font-family="Helvetica,sans-Serif" font-size="10.00">utils/logging/QtLogAdapter.cpp</text>
</a>
</g>
</g>
<!-- Node5&#45;&gt;Node6 -->
<g id="edge7_Node000005_Node000006" class="edge">
<title>Node5&#45;&gt;Node6</title>
<g id="a_edge7_Node000005_Node000006"><a xlink:title=" ">
<path fill="none" stroke="#63b8ff" d="M83,-99.66C83,-90.93 83,-80.99 83,-74.09"/>
<polygon fill="#63b8ff" stroke="#63b8ff" points="79.5,-99.75 83,-109.75 86.5,-99.75 79.5,-99.75"/>
</a>
</g>
</g>
<!-- Node7&#45;&gt;Node2 -->
<g id="edge30_Node000007_Node000002" class="edge">
<title>Node7&#45;&gt;Node2</title>
<g id="a_edge30_Node000007_Node000002"><a xlink:title=" ">
<path fill="none" stroke="#63b8ff" d="M705.48,-394.47C860.42,-394.16 1185,-381.99 1185,-285.5 1185,-285.5 1185,-285.5 1185,-173.5 1185,-79.51 853.47,-66.8 721.38,-65.46"/>
<polygon fill="#63b8ff" stroke="#63b8ff" points="705.07,-390.97 695.07,-394.47 705.08,-397.97 705.07,-390.97"/>
</a>
</g>
</g>
<!-- Node8 -->
<g id="Node000008" class="node">
<title>Node8</title>
<g id="a_Node000008"><a xlink:href="IAppender_8h.html" target="_top" xlink:title=" ">
<polygon fill="white" stroke="#666666" points="818.5,-294 681.5,-294 681.5,-275 818.5,-275 818.5,-294"/>
<text text-anchor="middle" x="750" y="-282" font-family="Helvetica,sans-Serif" font-size="10.00">utils/logging/IAppender.h</text>
</a>
</g>
</g>
<!-- Node7&#45;&gt;Node8 -->
<g id="edge9_Node000007_Node000008" class="edge">
<title>Node7&#45;&gt;Node8</title>
<g id="a_edge9_Node000007_Node000008"><a xlink:title=" ">
<path fill="none" stroke="#63b8ff" d="M654.97,-380.46C670.63,-372.73 689.51,-361.93 704,-349 722.49,-332.51 737.94,-307.37 745.33,-294.22"/>
<polygon fill="#63b8ff" stroke="#63b8ff" points="653.23,-377.41 645.69,-384.86 656.23,-383.73 653.23,-377.41"/>
</a>
</g>
</g>
<!-- Node7&#45;&gt;Node13 -->
<g id="edge31_Node000007_Node000013" class="edge">
<title>Node7&#45;&gt;Node13</title>
<g id="a_edge31_Node000007_Node000013"><a xlink:title=" ">
<path fill="none" stroke="#63b8ff" d="M600.83,-379.81C585.4,-371.05 564.99,-359.41 547,-349 490.79,-316.46 478.21,-305.73 421,-275 396.37,-261.77 367.23,-247.81 348.68,-239.13"/>
<polygon fill="#63b8ff" stroke="#63b8ff" points="599.3,-382.97 609.72,-384.86 602.75,-376.88 599.3,-382.97"/>
</a>
</g>
</g>
<!-- Node15 -->
<g id="Node000015" class="node">
<title>Node15</title>
<g id="a_Node000015"><a xlink:href="IFormatter_8h.html" target="_top" xlink:title=" ">
<polygon fill="white" stroke="#666666" points="694.5,-349 555.5,-349 555.5,-330 694.5,-330 694.5,-349"/>
<text text-anchor="middle" x="625" y="-337" font-family="Helvetica,sans-Serif" font-size="10.00">utils/logging/IFormatter.h</text>
</a>
</g>
</g>
<!-- Node7&#45;&gt;Node15 -->
<g id="edge22_Node000007_Node000015" class="edge">
<title>Node7&#45;&gt;Node15</title>
<g id="a_edge22_Node000007_Node000015"><a xlink:title=" ">
<path fill="none" stroke="#63b8ff" d="M625,-374.66C625,-365.93 625,-355.99 625,-349.09"/>
<polygon fill="#63b8ff" stroke="#63b8ff" points="621.5,-374.75 625,-384.75 628.5,-374.75 621.5,-374.75"/>
</a>
</g>
</g>
<!-- Node8&#45;&gt;Node2 -->
<g id="edge16_Node000008_Node000002" class="edge">
<title>Node8&#45;&gt;Node2</title>
<g id="a_edge16_Node000008_Node000002"><a xlink:title=" ">
<path fill="none" stroke="#63b8ff" d="M786.23,-271.44C836.81,-252.56 919.06,-213.14 888,-165 851.41,-108.29 773.83,-83.56 721.29,-73.01"/>
<polygon fill="#63b8ff" stroke="#63b8ff" points="784.79,-268.24 776.58,-274.94 787.18,-274.82 784.79,-268.24"/>
</a>
</g>
</g>
<!-- Node9 -->
<g id="Node000009" class="node">
<title>Node9</title>
<g id="a_Node000009"><a xlink:href="ConsoleAppender_8h.html" target="_top" xlink:title=" ">
<polygon fill="white" stroke="#666666" points="1108.5,-239 935.5,-239 935.5,-220 1108.5,-220 1108.5,-239"/>
<text text-anchor="middle" x="1022" y="-227" font-family="Helvetica,sans-Serif" font-size="10.00">utils/logging/ConsoleAppender.h</text>
</a>
</g>
</g>
<!-- Node8&#45;&gt;Node9 -->
<g id="edge10_Node000008_Node000009" class="edge">
<title>Node8&#45;&gt;Node9</title>
<g id="a_edge10_Node000008_Node000009"><a xlink:title=" ">
<path fill="none" stroke="#63b8ff" d="M803.55,-273.07C854.55,-263.13 930.37,-248.35 977.96,-239.08"/>
<polygon fill="#63b8ff" stroke="#63b8ff" points="802.85,-269.64 793.7,-274.98 804.19,-276.51 802.85,-269.64"/>
</a>
</g>
</g>
<!-- Node11 -->
<g id="Node000011" class="node">
<title>Node11</title>
<g id="a_Node000011"><a xlink:href="FileAppender_8h.html" target="_top" xlink:title=" ">
<polygon fill="white" stroke="#666666" points="829,-239 677,-239 677,-220 829,-220 829,-239"/>
<text text-anchor="middle" x="753" y="-227" font-family="Helvetica,sans-Serif" font-size="10.00">utils/logging/FileAppender.h</text>
</a>
</g>
</g>
<!-- Node8&#45;&gt;Node11 -->
<g id="edge13_Node000008_Node000011" class="edge">
<title>Node8&#45;&gt;Node11</title>
<g id="a_edge13_Node000008_Node000011"><a xlink:title=" ">
<path fill="none" stroke="#63b8ff" d="M751.07,-264.66C751.56,-255.93 752.12,-245.99 752.51,-239.09"/>
<polygon fill="#63b8ff" stroke="#63b8ff" points="747.57,-264.57 750.5,-274.75 754.56,-264.96 747.57,-264.57"/>
</a>
</g>
</g>
<!-- Node8&#45;&gt;Node13 -->
<g id="edge17_Node000008_Node000013" class="edge">
<title>Node8&#45;&gt;Node13</title>
<g id="a_edge17_Node000008_Node000013"><a xlink:title=" ">
<path fill="none" stroke="#63b8ff" d="M672.34,-273.7C591.08,-263.45 465.17,-247.56 390.83,-238.18"/>
<polygon fill="#63b8ff" stroke="#63b8ff" points="672.16,-277.21 682.52,-274.98 673.04,-270.26 672.16,-277.21"/>
</a>
</g>
</g>
<!-- Node9&#45;&gt;Node2 -->
<g id="edge12_Node000009_Node000002" class="edge">
<title>Node9&#45;&gt;Node2</title>
<g id="a_edge12_Node000009_Node000002"><a xlink:title=" ">
<path fill="none" stroke="#63b8ff" d="M999.23,-214.15C987.77,-206.19 974.19,-195.58 964,-184 938.88,-155.44 952.19,-131.77 921,-110 889.46,-87.99 785.55,-75.44 721.12,-69.59"/>
<polygon fill="#63b8ff" stroke="#63b8ff" points="997.6,-217.27 1007.86,-219.93 1001.5,-211.45 997.6,-217.27"/>
</a>
</g>
</g>
<!-- Node10 -->
<g id="Node000010" class="node">
<title>Node10</title>
<g id="a_Node000010"><a xlink:href="ConsoleAppender_8cpp.html" target="_top" xlink:title=" ">
<polygon fill="white" stroke="#666666" points="1157.5,-184 972.5,-184 972.5,-165 1157.5,-165 1157.5,-184"/>
<text text-anchor="middle" x="1065" y="-172" font-family="Helvetica,sans-Serif" font-size="10.00">utils/logging/ConsoleAppender.cpp</text>
</a>
</g>
</g>
<!-- Node9&#45;&gt;Node10 -->
<g id="edge11_Node000009_Node000010" class="edge">
<title>Node9&#45;&gt;Node10</title>
<g id="a_edge11_Node000009_Node000010"><a xlink:title=" ">
<path fill="none" stroke="#63b8ff" d="M1035.42,-211.96C1042.91,-202.72 1051.94,-191.6 1058.03,-184.09"/>
<polygon fill="#63b8ff" stroke="#63b8ff" points="1032.68,-209.78 1029.1,-219.75 1038.12,-214.19 1032.68,-209.78"/>
</a>
</g>
</g>
<!-- Node11&#45;&gt;Node2 -->
<g id="edge15_Node000011_Node000002" class="edge">
<title>Node11&#45;&gt;Node2</title>
<g id="a_edge15_Node000011_Node000002"><a xlink:title=" ">
<path fill="none" stroke="#63b8ff" d="M733.36,-213.31C724.27,-205.42 713.96,-195.1 707,-184 683.76,-146.93 672.91,-94.58 669.37,-74.15"/>
<polygon fill="#63b8ff" stroke="#63b8ff" points="731.31,-216.16 741.24,-219.84 735.77,-210.77 731.31,-216.16"/>
</a>
</g>
</g>
<!-- Node12 -->
<g id="Node000012" class="node">
<title>Node12</title>
<g id="a_Node000012"><a xlink:href="FileAppender_8cpp.html" target="_top" xlink:title=" ">
<polygon fill="white" stroke="#666666" points="878.5,-184 715.5,-184 715.5,-165 878.5,-165 878.5,-184"/>
<text text-anchor="middle" x="797" y="-172" font-family="Helvetica,sans-Serif" font-size="10.00">utils/logging/FileAppender.cpp</text>
</a>
</g>
</g>
<!-- Node11&#45;&gt;Node12 -->
<g id="edge14_Node000011_Node000012" class="edge">
<title>Node11&#45;&gt;Node12</title>
<g id="a_edge14_Node000011_Node000012"><a xlink:title=" ">
<path fill="none" stroke="#63b8ff" d="M766.73,-211.96C774.4,-202.72 783.63,-191.6 789.87,-184.09"/>
<polygon fill="#63b8ff" stroke="#63b8ff" points="763.96,-209.82 760.27,-219.75 769.35,-214.29 763.96,-209.82"/>
</a>
</g>
</g>
<!-- Node13&#45;&gt;Node2 -->
<g id="edge18_Node000013_Node000002" class="edge">
<title>Node13&#45;&gt;Node2</title>
<g id="a_edge18_Node000013_Node000002"><a xlink:title=" ">
<path fill="none" stroke="#63b8ff" d="M289.25,-216.66C258.51,-205.62 224.41,-187.5 242,-165 287.6,-106.66 510.9,-79.46 614.73,-69.82"/>
<polygon fill="#63b8ff" stroke="#63b8ff" points="288.45,-220.08 299.04,-219.99 290.7,-213.45 288.45,-220.08"/>
</a>
</g>
</g>
<!-- Node13&#45;&gt;Node4 -->
<g id="edge19_Node000013_Node000004" class="edge">
<title>Node13&#45;&gt;Node4</title>
<g id="a_edge19_Node000013_Node000004"><a xlink:title=" ">
<path fill="none" stroke="#63b8ff" d="M280.81,-217.82C235.08,-207.88 167.84,-193.28 125.51,-184.08"/>
<polygon fill="#63b8ff" stroke="#63b8ff" points="280.28,-221.28 290.8,-219.98 281.77,-214.44 280.28,-221.28"/>
</a>
</g>
</g>
<!-- Node13&#45;&gt;Node5 -->
<g id="edge21_Node000013_Node000005" class="edge">
<title>Node13&#45;&gt;Node5</title>
<g id="a_edge21_Node000013_Node000005"><a xlink:title=" ">
<path fill="none" stroke="#63b8ff" d="M294.63,-216.69C270.27,-208.27 237.33,-196.3 209,-184 168.33,-166.34 122.18,-141.91 98.64,-129.11"/>
<polygon fill="#63b8ff" stroke="#63b8ff" points="293.58,-220.03 304.17,-219.96 295.85,-213.41 293.58,-220.03"/>
</a>
</g>
</g>
<!-- Node14 -->
<g id="Node000014" class="node">
<title>Node14</title>
<g id="a_Node000014"><a xlink:href="Logger_8cpp.html" target="_top" xlink:title=" ">
<polygon fill="white" stroke="#666666" points="383,-184 251,-184 251,-165 383,-165 383,-184"/>
<text text-anchor="middle" x="317" y="-172" font-family="Helvetica,sans-Serif" font-size="10.00">utils/logging/Logger.cpp</text>
</a>
</g>
</g>
<!-- Node13&#45;&gt;Node14 -->
<g id="edge20_Node000013_Node000014" class="edge">
<title>Node13&#45;&gt;Node14</title>
<g id="a_edge20_Node000013_Node000014"><a xlink:title=" ">
<path fill="none" stroke="#63b8ff" d="M325.45,-209.95C323.29,-201.15 320.82,-191.06 319.11,-184.09"/>
<polygon fill="#63b8ff" stroke="#63b8ff" points="322.07,-210.87 327.85,-219.75 328.87,-209.2 322.07,-210.87"/>
</a>
</g>
</g>
<!-- Node15&#45;&gt;Node2 -->
<g id="edge24_Node000015_Node000002" class="edge">
<title>Node15&#45;&gt;Node2</title>
<g id="a_edge24_Node000015_Node000002"><a xlink:title=" ">
<path fill="none" stroke="#63b8ff" d="M631.59,-320.34C638.69,-299.09 649,-262.72 649,-230.5 649,-230.5 649,-230.5 649,-173.5 649,-136 660.25,-92.26 665.44,-74.09"/>
<polygon fill="#63b8ff" stroke="#63b8ff" points="628.22,-319.37 628.24,-329.96 634.83,-321.67 628.22,-319.37"/>
</a>
</g>
</g>
<!-- Node15&#45;&gt;Node8 -->
<g id="edge23_Node000015_Node000008" class="edge">
<title>Node15&#45;&gt;Node8</title>
<g id="a_edge23_Node000015_Node000008"><a xlink:title=" ">
<path fill="none" stroke="#63b8ff" d="M654.41,-326.03C677.53,-316.23 709.13,-302.83 729.55,-294.17"/>
<polygon fill="#63b8ff" stroke="#63b8ff" points="652.92,-322.86 645.08,-329.98 655.66,-329.3 652.92,-322.86"/>
</a>
</g>
</g>
<!-- Node15&#45;&gt;Node13 -->
<g id="edge25_Node000015_Node000013" class="edge">
<title>Node15&#45;&gt;Node13</title>
<g id="a_edge25_Node000015_Node000013"><a xlink:title=" ">
<path fill="none" stroke="#63b8ff" d="M598.25,-325.46C569.65,-311.82 522.77,-290.29 481,-275 441.22,-260.44 394.26,-247.2 363.39,-239.01"/>
<polygon fill="#63b8ff" stroke="#63b8ff" points="597.04,-328.76 607.56,-329.94 600.07,-322.45 597.04,-328.76"/>
</a>
</g>
</g>
<!-- Node16 -->
<g id="Node000016" class="node">
<title>Node16</title>
<g id="a_Node000016"><a xlink:href="PatternFormatter_8h.html" target="_top" xlink:title=" ">
<polygon fill="white" stroke="#666666" points="603,-239 433,-239 433,-220 603,-220 603,-239"/>
<text text-anchor="middle" x="518" y="-227" font-family="Helvetica,sans-Serif" font-size="10.00">utils/logging/PatternFormatter.h</text>
</a>
</g>
</g>
<!-- Node15&#45;&gt;Node16 -->
<g id="edge26_Node000015_Node000016" class="edge">
<title>Node15&#45;&gt;Node16</title>
<g id="a_edge26_Node000015_Node000016"><a xlink:title=" ">
<path fill="none" stroke="#63b8ff" d="M608.95,-322.3C585.96,-299.1 544.46,-257.21 526.58,-239.16"/>
<polygon fill="#63b8ff" stroke="#63b8ff" points="606.72,-325.02 616.24,-329.66 611.69,-320.09 606.72,-325.02"/>
</a>
</g>
</g>
<!-- Node16&#45;&gt;Node2 -->
<g id="edge27_Node000016_Node000002" class="edge">
<title>Node16&#45;&gt;Node2</title>
<g id="a_edge27_Node000016_Node000002"><a xlink:title=" ">
<path fill="none" stroke="#63b8ff" d="M476.51,-216.72C446.76,-206.02 414.45,-188.35 430,-165 471.02,-103.4 558.25,-79.87 614.94,-70.92"/>
<polygon fill="#63b8ff" stroke="#63b8ff" points="475.42,-220.04 486.02,-219.94 477.67,-213.41 475.42,-220.04"/>
</a>
</g>
</g>
<!-- Node16&#45;&gt;Node14 -->
<g id="edge28_Node000016_Node000014" class="edge">
<title>Node16&#45;&gt;Node14</title>
<g id="a_edge28_Node000016_Node000014"><a xlink:title=" ">
<path fill="none" stroke="#63b8ff" d="M475.57,-217.31C437.96,-207.39 383.83,-193.12 349.55,-184.08"/>
<polygon fill="#63b8ff" stroke="#63b8ff" points="475.14,-220.82 485.71,-219.98 476.93,-214.05 475.14,-220.82"/>
</a>
</g>
</g>
<!-- Node17 -->
<g id="Node000017" class="node">
<title>Node17</title>
<g id="a_Node000017"><a xlink:href="PatternFormatter_8cpp.html" target="_top" xlink:title=" ">
<polygon fill="white" stroke="#666666" points="621,-184 439,-184 439,-165 621,-165 621,-184"/>
<text text-anchor="middle" x="530" y="-172" font-family="Helvetica,sans-Serif" font-size="10.00">utils/logging/PatternFormatter.cpp</text>
</a>
</g>
</g>
<!-- Node16&#45;&gt;Node17 -->
<g id="edge29_Node000016_Node000017" class="edge">
<title>Node16&#45;&gt;Node17</title>
<g id="a_edge29_Node000016_Node000017"><a xlink:title=" ">
<path fill="none" stroke="#63b8ff" d="M522.2,-209.95C524.19,-201.15 526.48,-191.06 528.06,-184.09"/>
<polygon fill="#63b8ff" stroke="#63b8ff" points="518.78,-209.22 519.98,-219.75 525.6,-210.77 518.78,-209.22"/>
</a>
</g>
</g>
</g>
</svg>
