<?xml version="1.0" encoding="UTF-8" standalone="no"?>
<!DOCTYPE svg PUBLIC "-//W3C//DTD SVG 1.1//EN"
 "http://www.w3.org/Graphics/SVG/1.1/DTD/svg11.dtd">
<!-- Generated by graphviz version 2.43.0 (0)
 -->
<!-- Title: utils/logging/LogModule.h Pages: 1 -->
<svg width="1810pt" height="478pt"
 viewBox="0.00 0.00 1809.50 478.00" xmlns="http://www.w3.org/2000/svg" xmlns:xlink="http://www.w3.org/1999/xlink">
<g id="graph0" class="graph" transform="scale(1 1) rotate(0) translate(4 474)">
<title>utils/logging/LogModule.h</title>
<!-- Node1 -->
<g id="Node000001" class="node">
<title>Node1</title>
<g id="a_Node000001"><a xlink:title=" ">
<polygon fill="#999999" stroke="#666666" points="1062,-470 920,-470 920,-451 1062,-451 1062,-470"/>
<text text-anchor="middle" x="991" y="-458" font-family="Helvetica,sans-Serif" font-size="10.00">utils/logging/LogModule.h</text>
</a>
</g>
</g>
<!-- Node2 -->
<g id="Node000002" class="node">
<title>Node2</title>
<g id="a_Node000002"><a xlink:href="Log_8h.html" target="_top" xlink:title="EasyKiConverter 日志系统统一入口">
<polygon fill="white" stroke="#666666" points="708,-74 602,-74 602,-55 708,-55 708,-74"/>
<text text-anchor="middle" x="655" y="-62" font-family="Helvetica,sans-Serif" font-size="10.00">utils/logging/Log.h</text>
</a>
</g>
</g>
<!-- Node1&#45;&gt;Node2 -->
<g id="edge1_Node000001_Node000002" class="edge">
<title>Node1&#45;&gt;Node2</title>
<g id="a_edge1_Node000001_Node000002"><a xlink:title=" ">
<path fill="none" stroke="#63b8ff" d="M909.45,-459.12C672.36,-456.95 0,-442.73 0,-351.5 0,-351.5 0,-351.5 0,-184.5 0,-128 49.99,-129.55 103,-110 193.54,-76.61 481.53,-68.22 601.62,-66.16"/>
<polygon fill="#63b8ff" stroke="#63b8ff" points="909.7,-462.62 919.73,-459.21 909.76,-455.62 909.7,-462.62"/>
</a>
</g>
</g>
<!-- Node4 -->
<g id="Node000004" class="node">
<title>Node4</title>
<g id="a_Node000004"><a xlink:href="LogMacros_8h.html" target="_top" xlink:title=" ">
<polygon fill="white" stroke="#666666" points="1282.5,-195 1141.5,-195 1141.5,-176 1282.5,-176 1282.5,-195"/>
<text text-anchor="middle" x="1212" y="-183" font-family="Helvetica,sans-Serif" font-size="10.00">utils/logging/LogMacros.h</text>
</a>
</g>
</g>
<!-- Node1&#45;&gt;Node4 -->
<g id="edge3_Node000001_Node000004" class="edge">
<title>Node1&#45;&gt;Node4</title>
<g id="a_edge3_Node000001_Node000004"><a xlink:title=" ">
<path fill="none" stroke="#63b8ff" d="M1040.4,-448.13C1087.08,-434.11 1150,-405.24 1150,-351.5 1150,-351.5 1150,-351.5 1150,-294.5 1150,-252.56 1185.61,-212.16 1202.85,-195.06"/>
<polygon fill="#63b8ff" stroke="#63b8ff" points="1039.36,-444.78 1030.71,-450.9 1041.29,-451.51 1039.36,-444.78"/>
</a>
</g>
</g>
<!-- Node10 -->
<g id="Node000010" class="node">
<title>Node10</title>
<g id="a_Node000010"><a xlink:href="LogRecord_8h.html" target="_top" xlink:title=" ">
<polygon fill="white" stroke="#666666" points="936,-415 796,-415 796,-396 936,-396 936,-415"/>
<text text-anchor="middle" x="866" y="-403" font-family="Helvetica,sans-Serif" font-size="10.00">utils/logging/LogRecord.h</text>
</a>
</g>
</g>
<!-- Node1&#45;&gt;Node10 -->
<g id="edge11_Node000001_Node000010" class="edge">
<title>Node1&#45;&gt;Node10</title>
<g id="a_edge11_Node000001_Node000010"><a xlink:title=" ">
<path fill="none" stroke="#63b8ff" d="M961.59,-447.03C938.47,-437.23 906.87,-423.83 886.45,-415.17"/>
<polygon fill="#63b8ff" stroke="#63b8ff" points="960.34,-450.3 970.92,-450.98 963.08,-443.86 960.34,-450.3"/>
</a>
</g>
</g>
<!-- Node16 -->
<g id="Node000016" class="node">
<title>Node16</title>
<g id="a_Node000016"><a xlink:href="Logger_8h.html" target="_top" xlink:title=" ">
<polygon fill="white" stroke="#666666" points="1060.5,-250 939.5,-250 939.5,-231 1060.5,-231 1060.5,-250"/>
<text text-anchor="middle" x="1000" y="-238" font-family="Helvetica,sans-Serif" font-size="10.00">utils/logging/Logger.h</text>
</a>
</g>
</g>
<!-- Node1&#45;&gt;Node16 -->
<g id="edge35_Node000001_Node000016" class="edge">
<title>Node1&#45;&gt;Node16</title>
<g id="a_edge35_Node000001_Node000016"><a xlink:title=" ">
<path fill="none" stroke="#63b8ff" d="M991.77,-440.85C993.63,-395.82 998.31,-282.53 999.64,-250.22"/>
<polygon fill="#63b8ff" stroke="#63b8ff" points="988.27,-440.82 991.35,-450.95 995.26,-441.11 988.27,-440.82"/>
</a>
</g>
</g>
<!-- Node3 -->
<g id="Node000003" class="node">
<title>Node3</title>
<g id="a_Node000003"><a xlink:href="main_8cpp.html" target="_top" xlink:title=" ">
<polygon fill="white" stroke="#666666" points="686,-19 624,-19 624,0 686,0 686,-19"/>
<text text-anchor="middle" x="655" y="-7" font-family="Helvetica,sans-Serif" font-size="10.00">main.cpp</text>
</a>
</g>
</g>
<!-- Node2&#45;&gt;Node3 -->
<g id="edge2_Node000002_Node000003" class="edge">
<title>Node2&#45;&gt;Node3</title>
<g id="a_edge2_Node000002_Node000003"><a xlink:title=" ">
<path fill="none" stroke="#63b8ff" d="M655,-44.66C655,-35.93 655,-25.99 655,-19.09"/>
<polygon fill="#63b8ff" stroke="#63b8ff" points="651.5,-44.75 655,-54.75 658.5,-44.75 651.5,-44.75"/>
</a>
</g>
</g>
<!-- Node4&#45;&gt;Node2 -->
<g id="edge7_Node000004_Node000002" class="edge">
<title>Node4&#45;&gt;Node2</title>
<g id="a_edge7_Node000004_Node000002"><a xlink:title=" ">
<path fill="none" stroke="#63b8ff" d="M1212.59,-165.9C1212.03,-148.6 1208.19,-123.52 1192,-110 1155.42,-79.46 836.9,-69.35 708.41,-66.49"/>
<polygon fill="#63b8ff" stroke="#63b8ff" points="1209.09,-165.95 1212.58,-175.95 1216.09,-165.95 1209.09,-165.95"/>
</a>
</g>
</g>
<!-- Node5 -->
<g id="Node000005" class="node">
<title>Node5</title>
<g id="a_Node000005"><a xlink:href="ComponentCacheService_8cpp.html" target="_top" xlink:title=" ">
<polygon fill="white" stroke="#666666" points="1801.5,-134.5 1598.5,-134.5 1598.5,-115.5 1801.5,-115.5 1801.5,-134.5"/>
<text text-anchor="middle" x="1700" y="-122.5" font-family="Helvetica,sans-Serif" font-size="10.00">services/ComponentCacheService.cpp</text>
</a>
</g>
</g>
<!-- Node4&#45;&gt;Node5 -->
<g id="edge4_Node000004_Node000005" class="edge">
<title>Node4&#45;&gt;Node5</title>
<g id="a_edge4_Node000004_Node000005"><a xlink:title=" ">
<path fill="none" stroke="#63b8ff" d="M1292.57,-175.18C1368.92,-166.3 1486.79,-152.48 1589,-140 1603.27,-138.26 1618.56,-136.35 1633.1,-134.53"/>
<polygon fill="#63b8ff" stroke="#63b8ff" points="1292.07,-171.71 1282.55,-176.34 1292.88,-178.67 1292.07,-171.71"/>
</a>
</g>
</g>
<!-- Node6 -->
<g id="Node000006" class="node">
<title>Node6</title>
<g id="a_Node000006"><a xlink:href="ExportReportGenerator_8cpp.html" target="_top" xlink:title=" ">
<polygon fill="white" stroke="#666666" points="1398,-140 1240,-140 1240,-110 1398,-110 1398,-140"/>
<text text-anchor="start" x="1248" y="-128" font-family="Helvetica,sans-Serif" font-size="10.00">services/export/ExportReport</text>
<text text-anchor="middle" x="1319" y="-117" font-family="Helvetica,sans-Serif" font-size="10.00">Generator.cpp</text>
</a>
</g>
</g>
<!-- Node4&#45;&gt;Node6 -->
<g id="edge5_Node000004_Node000006" class="edge">
<title>Node4&#45;&gt;Node6</title>
<g id="a_edge5_Node000004_Node000006"><a xlink:title=" ">
<path fill="none" stroke="#63b8ff" d="M1237.03,-170.81C1253.92,-161.58 1276.14,-149.43 1293.18,-140.11"/>
<polygon fill="#63b8ff" stroke="#63b8ff" points="1234.88,-168 1227.79,-175.87 1238.24,-174.14 1234.88,-168"/>
</a>
</g>
</g>
<!-- Node7 -->
<g id="Node000007" class="node">
<title>Node7</title>
<g id="a_Node000007"><a xlink:href="ExportProgressViewModel_8cpp.html" target="_top" xlink:title=" ">
<polygon fill="white" stroke="#666666" points="1580,-140 1416,-140 1416,-110 1580,-110 1580,-140"/>
<text text-anchor="start" x="1424" y="-128" font-family="Helvetica,sans-Serif" font-size="10.00">ui/viewmodels/ExportProgress</text>
<text text-anchor="middle" x="1498" y="-117" font-family="Helvetica,sans-Serif" font-size="10.00">ViewModel.cpp</text>
</a>
</g>
</g>
<!-- Node4&#45;&gt;Node7 -->
<g id="edge6_Node000004_Node000007" class="edge">
<title>Node4&#45;&gt;Node7</title>
<g id="a_edge6_Node000004_Node000007"><a xlink:title=" ">
<path fill="none" stroke="#63b8ff" d="M1263.43,-173.98C1309.84,-164.49 1378.47,-150.45 1429.52,-140.01"/>
<polygon fill="#63b8ff" stroke="#63b8ff" points="1262.68,-170.56 1253.59,-175.99 1264.09,-177.42 1262.68,-170.56"/>
</a>
</g>
</g>
<!-- Node8 -->
<g id="Node000008" class="node">
<title>Node8</title>
<g id="a_Node000008"><a xlink:href="QtLogAdapter_8h.html" target="_top" xlink:title=" ">
<polygon fill="white" stroke="#666666" points="1183.5,-134.5 1028.5,-134.5 1028.5,-115.5 1183.5,-115.5 1183.5,-134.5"/>
<text text-anchor="middle" x="1106" y="-122.5" font-family="Helvetica,sans-Serif" font-size="10.00">utils/logging/QtLogAdapter.h</text>
</a>
</g>
</g>
<!-- Node4&#45;&gt;Node8 -->
<g id="edge8_Node000004_Node000008" class="edge">
<title>Node4&#45;&gt;Node8</title>
<g id="a_edge8_Node000004_Node000008"><a xlink:title=" ">
<path fill="none" stroke="#63b8ff" d="M1187.4,-170.92C1167.14,-159.74 1139.03,-144.23 1121.7,-134.67"/>
<polygon fill="#63b8ff" stroke="#63b8ff" points="1185.91,-174.1 1196.36,-175.87 1189.3,-167.97 1185.91,-174.1"/>
</a>
</g>
</g>
<!-- Node8&#45;&gt;Node2 -->
<g id="edge9_Node000008_Node000002" class="edge">
<title>Node8&#45;&gt;Node2</title>
<g id="a_edge9_Node000008_Node000002"><a xlink:title=" ">
<path fill="none" stroke="#63b8ff" d="M1041.6,-113.97C1032.34,-112.59 1022.93,-111.23 1014,-110 905.59,-95.04 778.44,-79.83 708.28,-71.64"/>
<polygon fill="#63b8ff" stroke="#63b8ff" points="1041.14,-117.44 1051.55,-115.46 1042.18,-110.52 1041.14,-117.44"/>
</a>
</g>
</g>
<!-- Node9 -->
<g id="Node000009" class="node">
<title>Node9</title>
<g id="a_Node000009"><a xlink:href="QtLogAdapter_8cpp.html" target="_top" xlink:title=" ">
<polygon fill="white" stroke="#666666" points="1189,-74 1023,-74 1023,-55 1189,-55 1189,-74"/>
<text text-anchor="middle" x="1106" y="-62" font-family="Helvetica,sans-Serif" font-size="10.00">utils/logging/QtLogAdapter.cpp</text>
</a>
</g>
</g>
<!-- Node8&#45;&gt;Node9 -->
<g id="edge10_Node000008_Node000009" class="edge">
<title>Node8&#45;&gt;Node9</title>
<g id="a_edge10_Node000008_Node000009"><a xlink:title=" ">
<path fill="none" stroke="#63b8ff" d="M1106,-105.16C1106,-94.74 1106,-82.3 1106,-74.17"/>
<polygon fill="#63b8ff" stroke="#63b8ff" points="1102.5,-105.37 1106,-115.37 1109.5,-105.37 1102.5,-105.37"/>
</a>
</g>
</g>
<!-- Node10&#45;&gt;Node2 -->
<g id="edge33_Node000010_Node000002" class="edge">
<title>Node10&#45;&gt;Node2</title>
<g id="a_edge33_Node000010_Node000002"><a xlink:title=" ">
<path fill="none" stroke="#63b8ff" d="M786.27,-394.52C688.61,-380.02 536,-348.97 536,-296.5 536,-296.5 536,-296.5 536,-184.5 536,-128.99 601.55,-90.33 635.35,-74.08"/>
<polygon fill="#63b8ff" stroke="#63b8ff" points="786.02,-398.02 796.42,-396 787.03,-391.09 786.02,-398.02"/>
</a>
</g>
</g>
<!-- Node11 -->
<g id="Node000011" class="node">
<title>Node11</title>
<g id="a_Node000011"><a xlink:href="IAppender_8h.html" target="_top" xlink:title=" ">
<polygon fill="white" stroke="#666666" points="500.5,-305 363.5,-305 363.5,-286 500.5,-286 500.5,-305"/>
<text text-anchor="middle" x="432" y="-293" font-family="Helvetica,sans-Serif" font-size="10.00">utils/logging/IAppender.h</text>
</a>
</g>
</g>
<!-- Node10&#45;&gt;Node11 -->
<g id="edge12_Node000010_Node000011" class="edge">
<title>Node10&#45;&gt;Node11</title>
<g id="a_edge12_Node000010_Node000011"><a xlink:title=" ">
<path fill="none" stroke="#63b8ff" d="M785.41,-404.93C713.92,-402.81 607.84,-393.45 522,-360 488.86,-347.09 456.37,-319.42 441.07,-305.25"/>
<polygon fill="#63b8ff" stroke="#63b8ff" points="785.61,-408.44 795.7,-405.19 785.79,-401.44 785.61,-408.44"/>
</a>
</g>
</g>
<!-- Node10&#45;&gt;Node16 -->
<g id="edge34_Node000010_Node000016" class="edge">
<title>Node10&#45;&gt;Node16</title>
<g id="a_edge34_Node000010_Node000016"><a xlink:title=" ">
<path fill="none" stroke="#63b8ff" d="M898.18,-391.65C913.58,-384.23 931.37,-373.64 944,-360 975.38,-326.1 992.21,-271.45 997.83,-250.28"/>
<polygon fill="#63b8ff" stroke="#63b8ff" points="896.61,-388.52 888.97,-395.86 899.52,-394.89 896.61,-388.52"/>
</a>
</g>
</g>
<!-- Node18 -->
<g id="Node000018" class="node">
<title>Node18</title>
<g id="a_Node000018"><a xlink:href="IFormatter_8h.html" target="_top" xlink:title=" ">
<polygon fill="white" stroke="#666666" points="935.5,-360 796.5,-360 796.5,-341 935.5,-341 935.5,-360"/>
<text text-anchor="middle" x="866" y="-348" font-family="Helvetica,sans-Serif" font-size="10.00">utils/logging/IFormatter.h</text>
</a>
</g>
</g>
<!-- Node10&#45;&gt;Node18 -->
<g id="edge25_Node000010_Node000018" class="edge">
<title>Node10&#45;&gt;Node18</title>
<g id="a_edge25_Node000010_Node000018"><a xlink:title=" ">
<path fill="none" stroke="#63b8ff" d="M866,-385.66C866,-376.93 866,-366.99 866,-360.09"/>
<polygon fill="#63b8ff" stroke="#63b8ff" points="862.5,-385.75 866,-395.75 869.5,-385.75 862.5,-385.75"/>
</a>
</g>
</g>
<!-- Node11&#45;&gt;Node2 -->
<g id="edge19_Node000011_Node000002" class="edge">
<title>Node11&#45;&gt;Node2</title>
<g id="a_edge19_Node000011_Node000002"><a xlink:title=" ">
<path fill="none" stroke="#63b8ff" d="M389.52,-282.49C372.18,-275.59 353.36,-265.2 341,-250 301.13,-200.96 313.65,-145.42 366,-110 403.52,-84.61 529.22,-72.99 601.89,-68.28"/>
<polygon fill="#63b8ff" stroke="#63b8ff" points="388.35,-285.79 398.94,-285.97 390.77,-279.22 388.35,-285.79"/>
</a>
</g>
</g>
<!-- Node12 -->
<g id="Node000012" class="node">
<title>Node12</title>
<g id="a_Node000012"><a xlink:href="ConsoleAppender_8h.html" target="_top" xlink:title=" ">
<polygon fill="white" stroke="#666666" points="244.5,-250 71.5,-250 71.5,-231 244.5,-231 244.5,-250"/>
<text text-anchor="middle" x="158" y="-238" font-family="Helvetica,sans-Serif" font-size="10.00">utils/logging/ConsoleAppender.h</text>
</a>
</g>
</g>
<!-- Node11&#45;&gt;Node12 -->
<g id="edge13_Node000011_Node000012" class="edge">
<title>Node11&#45;&gt;Node12</title>
<g id="a_edge13_Node000011_Node000012"><a xlink:title=" ">
<path fill="none" stroke="#63b8ff" d="M378.05,-284.07C326.69,-274.13 250.3,-259.35 202.37,-250.08"/>
<polygon fill="#63b8ff" stroke="#63b8ff" points="377.49,-287.52 387.98,-285.98 378.82,-280.65 377.49,-287.52"/>
</a>
</g>
</g>
<!-- Node14 -->
<g id="Node000014" class="node">
<title>Node14</title>
<g id="a_Node000014"><a xlink:href="FileAppender_8h.html" target="_top" xlink:title=" ">
<polygon fill="white" stroke="#666666" points="502,-250 350,-250 350,-231 502,-231 502,-250"/>
<text text-anchor="middle" x="426" y="-238" font-family="Helvetica,sans-Serif" font-size="10.00">utils/logging/FileAppender.h</text>
</a>
</g>
</g>
<!-- Node11&#45;&gt;Node14 -->
<g id="edge16_Node000011_Node000014" class="edge">
<title>Node11&#45;&gt;Node14</title>
<g id="a_edge16_Node000011_Node000014"><a xlink:title=" ">
<path fill="none" stroke="#63b8ff" d="M429.87,-275.66C428.88,-266.93 427.75,-256.99 426.97,-250.09"/>
<polygon fill="#63b8ff" stroke="#63b8ff" points="426.41,-276.21 431.01,-285.75 433.36,-275.42 426.41,-276.21"/>
</a>
</g>
</g>
<!-- Node11&#45;&gt;Node16 -->
<g id="edge20_Node000011_Node000016" class="edge">
<title>Node11&#45;&gt;Node16</title>
<g id="a_edge20_Node000011_Node000016"><a xlink:title=" ">
<path fill="none" stroke="#63b8ff" d="M510.63,-287.16C625.31,-276.46 836.01,-256.8 939.46,-247.15"/>
<polygon fill="#63b8ff" stroke="#63b8ff" points="510.15,-283.69 500.51,-288.11 510.8,-290.66 510.15,-283.69"/>
</a>
</g>
</g>
<!-- Node12&#45;&gt;Node2 -->
<g id="edge15_Node000012_Node000002" class="edge">
<title>Node12&#45;&gt;Node2</title>
<g id="a_edge15_Node000012_Node000002"><a xlink:title=" ">
<path fill="none" stroke="#63b8ff" d="M108.1,-228.13C73.98,-217.9 37.95,-200.67 56,-176 120.17,-88.32 467.3,-70.2 601.76,-66.47"/>
<polygon fill="#63b8ff" stroke="#63b8ff" points="107.52,-231.6 118.09,-230.95 109.42,-224.86 107.52,-231.6"/>
</a>
</g>
</g>
<!-- Node13 -->
<g id="Node000013" class="node">
<title>Node13</title>
<g id="a_Node000013"><a xlink:href="ConsoleAppender_8cpp.html" target="_top" xlink:title=" ">
<polygon fill="white" stroke="#666666" points="250.5,-195 65.5,-195 65.5,-176 250.5,-176 250.5,-195"/>
<text text-anchor="middle" x="158" y="-183" font-family="Helvetica,sans-Serif" font-size="10.00">utils/logging/ConsoleAppender.cpp</text>
</a>
</g>
</g>
<!-- Node12&#45;&gt;Node13 -->
<g id="edge14_Node000012_Node000013" class="edge">
<title>Node12&#45;&gt;Node13</title>
<g id="a_edge14_Node000012_Node000013"><a xlink:title=" ">
<path fill="none" stroke="#63b8ff" d="M158,-220.66C158,-211.93 158,-201.99 158,-195.09"/>
<polygon fill="#63b8ff" stroke="#63b8ff" points="154.5,-220.75 158,-230.75 161.5,-220.75 154.5,-220.75"/>
</a>
</g>
</g>
<!-- Node14&#45;&gt;Node2 -->
<g id="edge18_Node000014_Node000002" class="edge">
<title>Node14&#45;&gt;Node2</title>
<g id="a_edge18_Node000014_Node000002"><a xlink:title=" ">
<path fill="none" stroke="#63b8ff" d="M382.84,-227.75C351.92,-217.07 318.43,-199.41 335,-176 395.68,-90.24 527.63,-70.37 601.75,-66.18"/>
<polygon fill="#63b8ff" stroke="#63b8ff" points="382.13,-231.2 392.72,-230.97 384.3,-224.54 382.13,-231.2"/>
</a>
</g>
</g>
<!-- Node15 -->
<g id="Node000015" class="node">
<title>Node15</title>
<g id="a_Node000015"><a xlink:href="FileAppender_8cpp.html" target="_top" xlink:title=" ">
<polygon fill="white" stroke="#666666" points="507.5,-195 344.5,-195 344.5,-176 507.5,-176 507.5,-195"/>
<text text-anchor="middle" x="426" y="-183" font-family="Helvetica,sans-Serif" font-size="10.00">utils/logging/FileAppender.cpp</text>
</a>
</g>
</g>
<!-- Node14&#45;&gt;Node15 -->
<g id="edge17_Node000014_Node000015" class="edge">
<title>Node14&#45;&gt;Node15</title>
<g id="a_edge17_Node000014_Node000015"><a xlink:title=" ">
<path fill="none" stroke="#63b8ff" d="M426,-220.66C426,-211.93 426,-201.99 426,-195.09"/>
<polygon fill="#63b8ff" stroke="#63b8ff" points="422.5,-220.75 426,-230.75 429.5,-220.75 422.5,-220.75"/>
</a>
</g>
</g>
<!-- Node16&#45;&gt;Node2 -->
<g id="edge21_Node000016_Node000002" class="edge">
<title>Node16&#45;&gt;Node2</title>
<g id="a_edge21_Node000016_Node000002"><a xlink:title=" ">
<path fill="none" stroke="#63b8ff" d="M1002.69,-220.47C1005.53,-192.04 1006.08,-138.74 976,-110 938.58,-74.24 789.12,-66.9 708.01,-65.59"/>
<polygon fill="#63b8ff" stroke="#63b8ff" points="999.18,-220.33 1001.46,-230.68 1006.13,-221.17 999.18,-220.33"/>
</a>
</g>
</g>
<!-- Node16&#45;&gt;Node4 -->
<g id="edge22_Node000016_Node000004" class="edge">
<title>Node16&#45;&gt;Node4</title>
<g id="a_edge22_Node000016_Node000004"><a xlink:title=" ">
<path fill="none" stroke="#63b8ff" d="M1044,-228.5C1083.69,-218.58 1141.28,-204.18 1177.67,-195.08"/>
<polygon fill="#63b8ff" stroke="#63b8ff" points="1042.91,-225.16 1034.06,-230.98 1044.61,-231.95 1042.91,-225.16"/>
</a>
</g>
</g>
<!-- Node16&#45;&gt;Node8 -->
<g id="edge24_Node000016_Node000008" class="edge">
<title>Node16&#45;&gt;Node8</title>
<g id="a_edge24_Node000016_Node000008"><a xlink:title=" ">
<path fill="none" stroke="#63b8ff" d="M1014.85,-223.6C1037.57,-199.27 1080.2,-153.62 1097.94,-134.63"/>
<polygon fill="#63b8ff" stroke="#63b8ff" points="1012.23,-221.27 1007.97,-230.97 1017.35,-226.05 1012.23,-221.27"/>
</a>
</g>
</g>
<!-- Node17 -->
<g id="Node000017" class="node">
<title>Node17</title>
<g id="a_Node000017"><a xlink:href="Logger_8cpp.html" target="_top" xlink:title=" ">
<polygon fill="white" stroke="#666666" points="934,-195 802,-195 802,-176 934,-176 934,-195"/>
<text text-anchor="middle" x="868" y="-183" font-family="Helvetica,sans-Serif" font-size="10.00">utils/logging/Logger.cpp</text>
</a>
</g>
</g>
<!-- Node16&#45;&gt;Node17 -->
<g id="edge23_Node000016_Node000017" class="edge">
<title>Node16&#45;&gt;Node17</title>
<g id="a_edge23_Node000016_Node000017"><a xlink:title=" ">
<path fill="none" stroke="#63b8ff" d="M969.27,-227.16C944.83,-217.35 911.26,-203.87 889.59,-195.17"/>
<polygon fill="#63b8ff" stroke="#63b8ff" points="968.21,-230.51 978.79,-230.98 970.82,-224.01 968.21,-230.51"/>
</a>
</g>
</g>
<!-- Node18&#45;&gt;Node2 -->
<g id="edge27_Node000018_Node000002" class="edge">
<title>Node18&#45;&gt;Node2</title>
<g id="a_edge27_Node000018_Node000002"><a xlink:title=" ">
<path fill="none" stroke="#63b8ff" d="M875.96,-332.09C895.23,-298.02 936.31,-223.41 943,-195 944.93,-186.78 947.78,-182.96 943,-176 890.14,-99.1 775.81,-75.69 708.18,-68.58"/>
<polygon fill="#63b8ff" stroke="#63b8ff" points="872.84,-330.49 870.94,-340.91 878.93,-333.95 872.84,-330.49"/>
</a>
</g>
</g>
<!-- Node18&#45;&gt;Node11 -->
<g id="edge26_Node000018_Node000011" class="edge">
<title>Node18&#45;&gt;Node11</title>
<g id="a_edge26_Node000018_Node000011"><a xlink:title=" ">
<path fill="none" stroke="#63b8ff" d="M786.27,-339.76C704.45,-329.77 578.45,-314.38 500.84,-304.91"/>
<polygon fill="#63b8ff" stroke="#63b8ff" points="785.92,-343.25 796.27,-340.98 786.77,-336.3 785.92,-343.25"/>
</a>
</g>
</g>
<!-- Node18&#45;&gt;Node16 -->
<g id="edge28_Node000018_Node000016" class="edge">
<title>Node18&#45;&gt;Node16</title>
<g id="a_edge28_Node000018_Node000016"><a xlink:title=" ">
<path fill="none" stroke="#63b8ff" d="M886.01,-334.84C897.54,-326.29 912.22,-315.21 925,-305 948.72,-286.04 975.71,-262.75 989.96,-250.31"/>
<polygon fill="#63b8ff" stroke="#63b8ff" points="883.87,-332.07 877.9,-340.83 888.03,-337.7 883.87,-332.07"/>
</a>
</g>
</g>
<!-- Node19 -->
<g id="Node000019" class="node">
<title>Node19</title>
<g id="a_Node000019"><a xlink:href="PatternFormatter_8h.html" target="_top" xlink:title=" ">
<polygon fill="white" stroke="#666666" points="871,-250 701,-250 701,-231 871,-231 871,-250"/>
<text text-anchor="middle" x="786" y="-238" font-family="Helvetica,sans-Serif" font-size="10.00">utils/logging/PatternFormatter.h</text>
</a>
</g>
</g>
<!-- Node18&#45;&gt;Node19 -->
<g id="edge29_Node000018_Node000019" class="edge">
<title>Node18&#45;&gt;Node19</title>
<g id="a_edge29_Node000018_Node000019"><a xlink:title=" ">
<path fill="none" stroke="#63b8ff" d="M853.32,-332.38C836,-309.01 805.61,-267.97 792.41,-250.16"/>
<polygon fill="#63b8ff" stroke="#63b8ff" points="850.69,-334.71 859.45,-340.66 856.31,-330.54 850.69,-334.71"/>
</a>
</g>
</g>
<!-- Node19&#45;&gt;Node2 -->
<g id="edge30_Node000019_Node000002" class="edge">
<title>Node19&#45;&gt;Node2</title>
<g id="a_edge30_Node000019_Node000002"><a xlink:title=" ">
<path fill="none" stroke="#63b8ff" d="M778.84,-221.53C773.24,-208.4 764.76,-190.43 755,-176 726.73,-134.21 683.5,-91.97 664.51,-74.21"/>
<polygon fill="#63b8ff" stroke="#63b8ff" points="775.65,-222.96 782.7,-230.87 782.12,-220.29 775.65,-222.96"/>
</a>
</g>
</g>
<!-- Node19&#45;&gt;Node17 -->
<g id="edge31_Node000019_Node000017" class="edge">
<title>Node19&#45;&gt;Node17</title>
<g id="a_edge31_Node000019_Node000017"><a xlink:title=" ">
<path fill="none" stroke="#63b8ff" d="M807.78,-225.42C822.66,-215.81 841.91,-203.37 854.59,-195.17"/>
<polygon fill="#63b8ff" stroke="#63b8ff" points="805.67,-222.62 799.17,-230.98 809.47,-228.5 805.67,-222.62"/>
</a>
</g>
</g>
<!-- Node20 -->
<g id="Node000020" class="node">
<title>Node20</title>
<g id="a_Node000020"><a xlink:href="PatternFormatter_8cpp.html" target="_top" xlink:title=" ">
<polygon fill="white" stroke="#666666" points="746,-195 564,-195 564,-176 746,-176 746,-195"/>
<text text-anchor="middle" x="655" y="-183" font-family="Helvetica,sans-Serif" font-size="10.00">utils/logging/PatternFormatter.cpp</text>
</a>
</g>
</g>
<!-- Node19&#45;&gt;Node20 -->
<g id="edge32_Node000019_Node000020" class="edge">
<title>Node19&#45;&gt;Node20</title>
<g id="a_edge32_Node000019_Node000020"><a xlink:title=" ">
<path fill="none" stroke="#63b8ff" d="M755.5,-227.16C731.25,-217.35 697.93,-203.87 676.43,-195.17"/>
<polygon fill="#63b8ff" stroke="#63b8ff" points="754.37,-230.48 764.95,-230.98 757,-223.99 754.37,-230.48"/>
</a>
</g>
</g>
</g>
</svg>
