<?xml version="1.0" encoding="UTF-8" standalone="no"?>
<!DOCTYPE svg PUBLIC "-//W3C//DTD SVG 1.1//EN"
 "http://www.w3.org/Graphics/SVG/1.1/DTD/svg11.dtd">
<!-- Generated by graphviz version 2.43.0 (0)
 -->
<!-- Title: utils/logging/LogMacros.h Pages: 1 -->
<svg width="1020pt" height="357pt"
 viewBox="0.00 0.00 1020.00 357.00" xmlns="http://www.w3.org/2000/svg" xmlns:xlink="http://www.w3.org/1999/xlink">
<g id="graph0" class="graph" transform="scale(1 1) rotate(0) translate(4 353)">
<title>utils/logging/LogMacros.h</title>
<!-- Node1 -->
<g id="Node000001" class="node">
<title>Node1</title>
<g id="a_Node000001"><a xlink:title=" ">
<polygon fill="#999999" stroke="#666666" points="548.5,-349 407.5,-349 407.5,-330 548.5,-330 548.5,-349"/>
<text text-anchor="middle" x="478" y="-337" font-family="Helvetica,sans-Serif" font-size="10.00">utils/logging/LogMacros.h</text>
</a>
</g>
</g>
<!-- Node2 -->
<g id="Node000002" class="node">
<title>Node2</title>
<g id="a_Node000002"><a xlink:href="LogLevel_8h.html" target="_top" xlink:title=" ">
<polygon fill="white" stroke="#666666" points="347.5,-74 278.5,-74 278.5,-55 347.5,-55 347.5,-74"/>
<text text-anchor="middle" x="313" y="-62" font-family="Helvetica,sans-Serif" font-size="10.00">LogLevel.h</text>
</a>
</g>
</g>
<!-- Node1&#45;&gt;Node2 -->
<g id="edge1_Node000001_Node000002" class="edge">
<title>Node1&#45;&gt;Node2</title>
<g id="a_edge1_Node000001_Node000002"><a xlink:title=" ">
<path fill="none" stroke="#63b8ff" d="M407.47,-337.09C274.51,-332.5 0,-313.03 0,-230.5 0,-230.5 0,-230.5 0,-173.5 0,-117.43 181.74,-84.1 268.25,-71.41"/>
<polygon fill="#63b8ff" stroke="#63b8ff" points="268.91,-74.85 278.31,-69.97 267.91,-67.93 268.91,-74.85"/>
</a>
</g>
</g>
<!-- Node4 -->
<g id="Node000004" class="node">
<title>Node4</title>
<g id="a_Node000004"><a xlink:href="LogModule_8h.html" target="_top" xlink:title=" ">
<polygon fill="white" stroke="#666666" points="1001.5,-74 922.5,-74 922.5,-55 1001.5,-55 1001.5,-74"/>
<text text-anchor="middle" x="962" y="-62" font-family="Helvetica,sans-Serif" font-size="10.00">LogModule.h</text>
</a>
</g>
</g>
<!-- Node1&#45;&gt;Node4 -->
<g id="edge3_Node000001_Node000004" class="edge">
<title>Node1&#45;&gt;Node4</title>
<g id="a_edge3_Node000001_Node000004"><a xlink:title=" ">
<path fill="none" stroke="#63b8ff" d="M548.6,-337.22C682.48,-332.86 960,-313.79 960,-230.5 960,-230.5 960,-230.5 960,-173.5 960,-142.18 960.85,-105.77 961.44,-84.23"/>
<polygon fill="#63b8ff" stroke="#63b8ff" points="964.94,-84.27 961.73,-74.18 957.95,-84.07 964.94,-84.27"/>
</a>
</g>
</g>
<!-- Node7 -->
<g id="Node000007" class="node">
<title>Node7</title>
<g id="a_Node000007"><a xlink:href="Logger_8h.html" target="_top" xlink:title=" ">
<polygon fill="white" stroke="#666666" points="507,-294 449,-294 449,-275 507,-275 507,-294"/>
<text text-anchor="middle" x="478" y="-282" font-family="Helvetica,sans-Serif" font-size="10.00">Logger.h</text>
</a>
</g>
</g>
<!-- Node1&#45;&gt;Node7 -->
<g id="edge7_Node000001_Node000007" class="edge">
<title>Node1&#45;&gt;Node7</title>
<g id="a_edge7_Node000001_Node000007"><a xlink:title=" ">
<path fill="none" stroke="#63b8ff" d="M478,-329.75C478,-322.8 478,-312.85 478,-304.13"/>
<polygon fill="#63b8ff" stroke="#63b8ff" points="481.5,-304.09 478,-294.09 474.5,-304.09 481.5,-304.09"/>
</a>
</g>
</g>
<!-- Node3 -->
<g id="Node000003" class="node">
<title>Node3</title>
<g id="a_Node000003"><a xlink:title=" ">
<polygon fill="#e0e0e0" stroke="#999999" points="754.5,-19 701.5,-19 701.5,0 754.5,0 754.5,-19"/>
<text text-anchor="middle" x="728" y="-7" font-family="Helvetica,sans-Serif" font-size="10.00">QString</text>
</a>
</g>
</g>
<!-- Node2&#45;&gt;Node3 -->
<g id="edge2_Node000002_Node000003" class="edge">
<title>Node2&#45;&gt;Node3</title>
<g id="a_edge2_Node000002_Node000003"><a xlink:title=" ">
<path fill="none" stroke="#63b8ff" d="M347.67,-59.07C425.23,-49.17 612.13,-25.3 691.44,-15.17"/>
<polygon fill="#63b8ff" stroke="#63b8ff" points="691.97,-18.63 701.45,-13.89 691.09,-11.69 691.97,-18.63"/>
</a>
</g>
</g>
<!-- Node4&#45;&gt;Node3 -->
<g id="edge4_Node000004_Node000003" class="edge">
<title>Node4&#45;&gt;Node3</title>
<g id="a_edge4_Node000004_Node000003"><a xlink:title=" ">
<path fill="none" stroke="#63b8ff" d="M924.4,-54.98C880.39,-45.02 807.99,-28.62 764.47,-18.76"/>
<polygon fill="#63b8ff" stroke="#63b8ff" points="765.11,-15.32 754.59,-16.52 763.57,-22.14 765.11,-15.32"/>
</a>
</g>
</g>
<!-- Node5 -->
<g id="Node000005" class="node">
<title>Node5</title>
<g id="a_Node000005"><a xlink:title=" ">
<polygon fill="#e0e0e0" stroke="#999999" points="1012,-19 942,-19 942,0 1012,0 1012,-19"/>
<text text-anchor="middle" x="977" y="-7" font-family="Helvetica,sans-Serif" font-size="10.00">QStringList</text>
</a>
</g>
</g>
<!-- Node4&#45;&gt;Node5 -->
<g id="edge5_Node000004_Node000005" class="edge">
<title>Node4&#45;&gt;Node5</title>
<g id="a_edge5_Node000004_Node000005"><a xlink:title=" ">
<path fill="none" stroke="#63b8ff" d="M964.48,-54.75C966.46,-47.72 969.32,-37.62 971.81,-28.84"/>
<polygon fill="#63b8ff" stroke="#63b8ff" points="975.21,-29.66 974.57,-19.09 968.48,-27.76 975.21,-29.66"/>
</a>
</g>
</g>
<!-- Node6 -->
<g id="Node000006" class="node">
<title>Node6</title>
<g id="a_Node000006"><a xlink:title=" ">
<polygon fill="#e0e0e0" stroke="#999999" points="923.5,-19 864.5,-19 864.5,0 923.5,0 923.5,-19"/>
<text text-anchor="middle" x="894" y="-7" font-family="Helvetica,sans-Serif" font-size="10.00">QtGlobal</text>
</a>
</g>
</g>
<!-- Node4&#45;&gt;Node6 -->
<g id="edge6_Node000004_Node000006" class="edge">
<title>Node4&#45;&gt;Node6</title>
<g id="a_edge6_Node000004_Node000006"><a xlink:title=" ">
<path fill="none" stroke="#63b8ff" d="M951.07,-54.98C940.92,-47.07 925.58,-35.11 913.35,-25.58"/>
<polygon fill="#63b8ff" stroke="#63b8ff" points="915.16,-22.56 905.12,-19.17 910.86,-28.08 915.16,-22.56"/>
</a>
</g>
</g>
<!-- Node7&#45;&gt;Node2 -->
<g id="edge22_Node000007_Node000002" class="edge">
<title>Node7&#45;&gt;Node2</title>
<g id="a_edge22_Node000007_Node000002"><a xlink:title=" ">
<path fill="none" stroke="#63b8ff" d="M448.89,-282.63C357.89,-279.61 83.21,-268.13 57,-239 -14.14,-159.95 178.06,-99.36 268.68,-75.99"/>
<polygon fill="#63b8ff" stroke="#63b8ff" points="269.6,-79.37 278.43,-73.52 267.88,-72.58 269.6,-79.37"/>
</a>
</g>
</g>
<!-- Node7&#45;&gt;Node4 -->
<g id="edge23_Node000007_Node000004" class="edge">
<title>Node7&#45;&gt;Node4</title>
<g id="a_edge23_Node000007_Node000004"><a xlink:title=" ">
<path fill="none" stroke="#63b8ff" d="M507.11,-282.49C579.95,-279.55 768.14,-269.15 822,-239 888.09,-202.01 934.94,-120.19 953.35,-83.7"/>
<polygon fill="#63b8ff" stroke="#63b8ff" points="956.7,-84.82 957.97,-74.3 950.42,-81.73 956.7,-84.82"/>
</a>
</g>
</g>
<!-- Node8 -->
<g id="Node000008" class="node">
<title>Node8</title>
<g id="a_Node000008"><a xlink:href="IAppender_8h.html" target="_top" xlink:title=" ">
<polygon fill="white" stroke="#666666" points="771,-239 697,-239 697,-220 771,-220 771,-239"/>
<text text-anchor="middle" x="734" y="-227" font-family="Helvetica,sans-Serif" font-size="10.00">IAppender.h</text>
</a>
</g>
</g>
<!-- Node7&#45;&gt;Node8 -->
<g id="edge8_Node000007_Node000008" class="edge">
<title>Node7&#45;&gt;Node8</title>
<g id="a_edge8_Node000007_Node000008"><a xlink:title=" ">
<path fill="none" stroke="#63b8ff" d="M507.37,-277.42C551.2,-268.35 634.19,-251.16 686.66,-240.3"/>
<polygon fill="#63b8ff" stroke="#63b8ff" points="687.64,-243.67 696.72,-238.22 686.22,-236.82 687.64,-243.67"/>
</a>
</g>
</g>
<!-- Node9 -->
<g id="Node000009" class="node">
<title>Node9</title>
<g id="a_Node000009"><a xlink:href="IFormatter_8h.html" target="_top" xlink:title=" ">
<polygon fill="white" stroke="#666666" points="804,-184 728,-184 728,-165 804,-165 804,-184"/>
<text text-anchor="middle" x="766" y="-172" font-family="Helvetica,sans-Serif" font-size="10.00">IFormatter.h</text>
</a>
</g>
</g>
<!-- Node7&#45;&gt;Node9 -->
<g id="edge21_Node000007_Node000009" class="edge">
<title>Node7&#45;&gt;Node9</title>
<g id="a_edge21_Node000007_Node000009"><a xlink:title=" ">
<path fill="none" stroke="#63b8ff" d="M507.21,-283.8C575.96,-283.83 744.89,-279.66 780,-239 791.03,-226.23 784.4,-206.72 776.98,-192.69"/>
<polygon fill="#63b8ff" stroke="#63b8ff" points="779.98,-190.89 771.92,-184.01 773.93,-194.41 779.98,-190.89"/>
</a>
</g>
</g>
<!-- Node10 -->
<g id="Node000010" class="node">
<title>Node10</title>
<g id="a_Node000010"><a xlink:href="LogRecord_8h.html" target="_top" xlink:title=" ">
<polygon fill="white" stroke="#666666" points="871.5,-129 794.5,-129 794.5,-110 871.5,-110 871.5,-129"/>
<text text-anchor="middle" x="833" y="-117" font-family="Helvetica,sans-Serif" font-size="10.00">LogRecord.h</text>
</a>
</g>
</g>
<!-- Node7&#45;&gt;Node10 -->
<g id="edge24_Node000007_Node000010" class="edge">
<title>Node7&#45;&gt;Node10</title>
<g id="a_edge24_Node000007_Node000010"><a xlink:title=" ">
<path fill="none" stroke="#63b8ff" d="M507.19,-282.47C576.56,-279.56 749.06,-269.38 797,-239 821.68,-223.36 824.65,-212 833,-184 837.34,-169.46 837.01,-152.19 835.78,-139.34"/>
<polygon fill="#63b8ff" stroke="#63b8ff" points="839.25,-138.86 834.56,-129.36 832.3,-139.71 839.25,-138.86"/>
</a>
</g>
</g>
<!-- Node12 -->
<g id="Node000012" class="node">
<title>Node12</title>
<g id="a_Node000012"><a xlink:title=" ">
<polygon fill="#e0e0e0" stroke="#999999" points="738,-129 646,-129 646,-110 738,-110 738,-129"/>
<text text-anchor="middle" x="692" y="-117" font-family="Helvetica,sans-Serif" font-size="10.00">QSharedPointer</text>
</a>
</g>
</g>
<!-- Node7&#45;&gt;Node12 -->
<g id="edge31_Node000007_Node000012" class="edge">
<title>Node7&#45;&gt;Node12</title>
<g id="a_edge31_Node000007_Node000012"><a xlink:title=" ">
<path fill="none" stroke="#63b8ff" d="M507.25,-283.79C544.72,-282.58 609.53,-274.94 649,-239 677.9,-212.69 687.4,-165.42 690.51,-139.24"/>
<polygon fill="#63b8ff" stroke="#63b8ff" points="694.01,-139.44 691.51,-129.14 687.04,-138.74 694.01,-139.44"/>
</a>
</g>
</g>
<!-- Node13 -->
<g id="Node000013" class="node">
<title>Node13</title>
<g id="a_Node000013"><a xlink:title=" ">
<polygon fill="#e0e0e0" stroke="#999999" points="137.5,-239 66.5,-239 66.5,-220 137.5,-220 137.5,-239"/>
<text text-anchor="middle" x="102" y="-227" font-family="Helvetica,sans-Serif" font-size="10.00">QAtomicInt</text>
</a>
</g>
</g>
<!-- Node7&#45;&gt;Node13 -->
<g id="edge25_Node000007_Node000013" class="edge">
<title>Node7&#45;&gt;Node13</title>
<g id="a_edge25_Node000007_Node000013"><a xlink:title=" ">
<path fill="none" stroke="#63b8ff" d="M448.6,-280.14C392.23,-273.56 264.83,-258.11 147.72,-239.2"/>
<polygon fill="#63b8ff" stroke="#63b8ff" points="147.94,-235.69 137.51,-237.54 146.82,-242.6 147.94,-235.69"/>
</a>
</g>
</g>
<!-- Node14 -->
<g id="Node000014" class="node">
<title>Node14</title>
<g id="a_Node000014"><a xlink:title=" ">
<polygon fill="#e0e0e0" stroke="#999999" points="204.5,-239 155.5,-239 155.5,-220 204.5,-220 204.5,-239"/>
<text text-anchor="middle" x="180" y="-227" font-family="Helvetica,sans-Serif" font-size="10.00">QHash</text>
</a>
</g>
</g>
<!-- Node7&#45;&gt;Node14 -->
<g id="edge26_Node000007_Node000014" class="edge">
<title>Node7&#45;&gt;Node14</title>
<g id="a_edge26_Node000007_Node000014"><a xlink:title=" ">
<path fill="none" stroke="#63b8ff" d="M448.83,-279.44C401.58,-272.68 305.2,-258.14 214.68,-239.22"/>
<polygon fill="#63b8ff" stroke="#63b8ff" points="215.32,-235.78 204.81,-237.13 213.87,-242.63 215.32,-235.78"/>
</a>
</g>
</g>
<!-- Node15 -->
<g id="Node000015" class="node">
<title>Node15</title>
<g id="a_Node000015"><a xlink:title=" ">
<polygon fill="#e0e0e0" stroke="#999999" points="263.5,-239 222.5,-239 222.5,-220 263.5,-220 263.5,-239"/>
<text text-anchor="middle" x="243" y="-227" font-family="Helvetica,sans-Serif" font-size="10.00">QList</text>
</a>
</g>
</g>
<!-- Node7&#45;&gt;Node15 -->
<g id="edge27_Node000007_Node000015" class="edge">
<title>Node7&#45;&gt;Node15</title>
<g id="a_edge27_Node000007_Node000015"><a xlink:title=" ">
<path fill="none" stroke="#63b8ff" d="M448.85,-277.89C410.67,-270.4 341.47,-256.31 273.55,-239.26"/>
<polygon fill="#63b8ff" stroke="#63b8ff" points="274.1,-235.79 263.54,-236.72 272.38,-242.57 274.1,-235.79"/>
</a>
</g>
</g>
<!-- Node16 -->
<g id="Node000016" class="node">
<title>Node16</title>
<g id="a_Node000016"><a xlink:title=" ">
<polygon fill="#e0e0e0" stroke="#999999" points="336.5,-239 281.5,-239 281.5,-220 336.5,-220 336.5,-239"/>
<text text-anchor="middle" x="309" y="-227" font-family="Helvetica,sans-Serif" font-size="10.00">QMutex</text>
</a>
</g>
</g>
<!-- Node7&#45;&gt;Node16 -->
<g id="edge28_Node000007_Node000016" class="edge">
<title>Node7&#45;&gt;Node16</title>
<g id="a_edge28_Node000007_Node000016"><a xlink:title=" ">
<path fill="none" stroke="#63b8ff" d="M450.85,-274.98C422.47,-266.09 377.77,-252.07 346.14,-242.15"/>
<polygon fill="#63b8ff" stroke="#63b8ff" points="346.95,-238.73 336.37,-239.08 344.86,-245.41 346.95,-238.73"/>
</a>
</g>
</g>
<!-- Node17 -->
<g id="Node000017" class="node">
<title>Node17</title>
<g id="a_Node000017"><a xlink:title=" ">
<polygon fill="#e0e0e0" stroke="#999999" points="411,-239 355,-239 355,-220 411,-220 411,-239"/>
<text text-anchor="middle" x="383" y="-227" font-family="Helvetica,sans-Serif" font-size="10.00">QObject</text>
</a>
</g>
</g>
<!-- Node7&#45;&gt;Node17 -->
<g id="edge29_Node000007_Node000017" class="edge">
<title>Node7&#45;&gt;Node17</title>
<g id="a_edge29_Node000007_Node000017"><a xlink:title=" ">
<path fill="none" stroke="#63b8ff" d="M462.74,-274.98C447.87,-266.69 425.02,-253.94 407.58,-244.22"/>
<polygon fill="#63b8ff" stroke="#63b8ff" points="408.98,-240.99 398.54,-239.17 405.57,-247.1 408.98,-240.99"/>
</a>
</g>
</g>
<!-- Node18 -->
<g id="Node000018" class="node">
<title>Node18</title>
<g id="a_Node000018"><a xlink:title=" ">
<polygon fill="#e0e0e0" stroke="#999999" points="527,-239 429,-239 429,-220 527,-220 527,-239"/>
<text text-anchor="middle" x="478" y="-227" font-family="Helvetica,sans-Serif" font-size="10.00">QReadWriteLock</text>
</a>
</g>
</g>
<!-- Node7&#45;&gt;Node18 -->
<g id="edge30_Node000007_Node000018" class="edge">
<title>Node7&#45;&gt;Node18</title>
<g id="a_edge30_Node000007_Node000018"><a xlink:title=" ">
<path fill="none" stroke="#63b8ff" d="M478,-274.75C478,-267.8 478,-257.85 478,-249.13"/>
<polygon fill="#63b8ff" stroke="#63b8ff" points="481.5,-249.09 478,-239.09 474.5,-249.09 481.5,-249.09"/>
</a>
</g>
</g>
<!-- Node19 -->
<g id="Node000019" class="node">
<title>Node19</title>
<g id="a_Node000019"><a xlink:title=" ">
<polygon fill="#e0e0e0" stroke="#999999" points="640.5,-239 545.5,-239 545.5,-220 640.5,-220 640.5,-239"/>
<text text-anchor="middle" x="593" y="-227" font-family="Helvetica,sans-Serif" font-size="10.00">QThreadStorage</text>
</a>
</g>
</g>
<!-- Node7&#45;&gt;Node19 -->
<g id="edge32_Node000007_Node000019" class="edge">
<title>Node7&#45;&gt;Node19</title>
<g id="a_edge32_Node000007_Node000019"><a xlink:title=" ">
<path fill="none" stroke="#63b8ff" d="M496.48,-274.98C514.98,-266.46 543.68,-253.23 564.98,-243.41"/>
<polygon fill="#63b8ff" stroke="#63b8ff" points="566.57,-246.53 574.19,-239.17 563.64,-240.18 566.57,-246.53"/>
</a>
</g>
</g>
<!-- Node8&#45;&gt;Node3 -->
<g id="edge20_Node000008_Node000003" class="edge">
<title>Node8&#45;&gt;Node3</title>
<g id="a_edge20_Node000008_Node000003"><a xlink:title=" ">
<path fill="none" stroke="#63b8ff" d="M720.36,-219.82C697.92,-204.62 654,-170.79 637,-129 619.49,-85.95 671.06,-45.12 703.59,-24.49"/>
<polygon fill="#63b8ff" stroke="#63b8ff" points="705.49,-27.43 712.19,-19.22 701.83,-21.46 705.49,-27.43"/>
</a>
</g>
</g>
<!-- Node8&#45;&gt;Node9 -->
<g id="edge9_Node000008_Node000009" class="edge">
<title>Node8&#45;&gt;Node9</title>
<g id="a_edge9_Node000008_Node000009"><a xlink:title=" ">
<path fill="none" stroke="#63b8ff" d="M739.28,-219.75C743.71,-212.42 750.16,-201.73 755.62,-192.7"/>
<polygon fill="#63b8ff" stroke="#63b8ff" points="758.64,-194.46 760.81,-184.09 752.65,-190.84 758.64,-194.46"/>
</a>
</g>
</g>
<!-- Node8&#45;&gt;Node10 -->
<g id="edge18_Node000008_Node000010" class="edge">
<title>Node8&#45;&gt;Node10</title>
<g id="a_edge18_Node000008_Node000010"><a xlink:title=" ">
<path fill="none" stroke="#63b8ff" d="M759.41,-219.91C776.79,-212.82 799.12,-201.12 813,-184 823.35,-171.24 828.37,-153.06 830.79,-139.42"/>
<polygon fill="#63b8ff" stroke="#63b8ff" points="834.3,-139.65 832.27,-129.25 827.37,-138.65 834.3,-139.65"/>
</a>
</g>
</g>
<!-- Node8&#45;&gt;Node12 -->
<g id="edge19_Node000008_Node000012" class="edge">
<title>Node8&#45;&gt;Node12</title>
<g id="a_edge19_Node000008_Node000012"><a xlink:title=" ">
<path fill="none" stroke="#63b8ff" d="M730.56,-219.66C723.7,-202.01 708.17,-162.09 699.05,-138.64"/>
<polygon fill="#63b8ff" stroke="#63b8ff" points="702.25,-137.21 695.37,-129.16 695.73,-139.75 702.25,-137.21"/>
</a>
</g>
</g>
<!-- Node9&#45;&gt;Node3 -->
<g id="edge17_Node000009_Node000003" class="edge">
<title>Node9&#45;&gt;Node3</title>
<g id="a_edge17_Node000009_Node000003"><a xlink:title=" ">
<path fill="none" stroke="#63b8ff" d="M763.96,-164.74C758,-139.2 740.57,-64.43 732.37,-29.23"/>
<polygon fill="#63b8ff" stroke="#63b8ff" points="735.73,-28.25 730.05,-19.31 728.92,-29.84 735.73,-28.25"/>
</a>
</g>
</g>
<!-- Node9&#45;&gt;Node10 -->
<g id="edge10_Node000009_Node000010" class="edge">
<title>Node9&#45;&gt;Node10</title>
<g id="a_edge10_Node000009_Node000010"><a xlink:title=" ">
<path fill="none" stroke="#63b8ff" d="M776.76,-164.98C786.77,-157.07 801.89,-145.11 813.93,-135.58"/>
<polygon fill="#63b8ff" stroke="#63b8ff" points="816.37,-138.12 822.04,-129.17 812.03,-132.63 816.37,-138.12"/>
</a>
</g>
</g>
<!-- Node9&#45;&gt;Node12 -->
<g id="edge16_Node000009_Node000012" class="edge">
<title>Node9&#45;&gt;Node12</title>
<g id="a_edge16_Node000009_Node000012"><a xlink:title=" ">
<path fill="none" stroke="#63b8ff" d="M754.11,-164.98C742.85,-156.92 725.71,-144.65 712.29,-135.03"/>
<polygon fill="#63b8ff" stroke="#63b8ff" points="714.27,-132.15 704.11,-129.17 710.2,-137.84 714.27,-132.15"/>
</a>
</g>
</g>
<!-- Node10&#45;&gt;Node2 -->
<g id="edge11_Node000010_Node000002" class="edge">
<title>Node10&#45;&gt;Node2</title>
<g id="a_edge11_Node000010_Node000002"><a xlink:title=" ">
<path fill="none" stroke="#63b8ff" d="M794.34,-114.56C700,-104.94 458.38,-80.32 357.89,-70.08"/>
<polygon fill="#63b8ff" stroke="#63b8ff" points="358.07,-66.58 347.77,-69.04 357.36,-73.54 358.07,-66.58"/>
</a>
</g>
</g>
<!-- Node10&#45;&gt;Node3 -->
<g id="edge14_Node000010_Node000003" class="edge">
<title>Node10&#45;&gt;Node3</title>
<g id="a_edge14_Node000010_Node000003"><a xlink:title=" ">
<path fill="none" stroke="#63b8ff" d="M823.19,-109.89C813.31,-101.1 797.75,-86.96 785,-74 769.83,-58.58 753.42,-40.09 742.12,-27.05"/>
<polygon fill="#63b8ff" stroke="#63b8ff" points="744.67,-24.66 735.5,-19.36 739.37,-29.22 744.67,-24.66"/>
</a>
</g>
</g>
<!-- Node10&#45;&gt;Node4 -->
<g id="edge12_Node000010_Node000004" class="edge">
<title>Node10&#45;&gt;Node4</title>
<g id="a_edge12_Node000010_Node000004"><a xlink:title=" ">
<path fill="none" stroke="#63b8ff" d="M853.73,-109.98C874.76,-101.34 907.55,-87.87 931.54,-78.02"/>
<polygon fill="#63b8ff" stroke="#63b8ff" points="932.98,-81.21 940.9,-74.17 930.32,-74.73 932.98,-81.21"/>
</a>
</g>
</g>
<!-- Node10&#45;&gt;Node6 -->
<g id="edge15_Node000010_Node000006" class="edge">
<title>Node10&#45;&gt;Node6</title>
<g id="a_edge15_Node000010_Node000006"><a xlink:title=" ">
<path fill="none" stroke="#63b8ff" d="M843.79,-109.68C853.28,-101.39 866.82,-88.17 875,-74 883.01,-60.13 887.93,-42.56 890.75,-29.43"/>
<polygon fill="#63b8ff" stroke="#63b8ff" points="894.26,-29.71 892.71,-19.22 887.38,-28.38 894.26,-29.71"/>
</a>
</g>
</g>
<!-- Node11 -->
<g id="Node000011" class="node">
<title>Node11</title>
<g id="a_Node000011"><a xlink:title=" ">
<polygon fill="#e0e0e0" stroke="#999999" points="866,-74 794,-74 794,-55 866,-55 866,-74"/>
<text text-anchor="middle" x="830" y="-62" font-family="Helvetica,sans-Serif" font-size="10.00">QDateTime</text>
</a>
</g>
</g>
<!-- Node10&#45;&gt;Node11 -->
<g id="edge13_Node000010_Node000011" class="edge">
<title>Node10&#45;&gt;Node11</title>
<g id="a_edge13_Node000010_Node000011"><a xlink:title=" ">
<path fill="none" stroke="#63b8ff" d="M832.5,-109.75C832.11,-102.8 831.55,-92.85 831.05,-84.13"/>
<polygon fill="#63b8ff" stroke="#63b8ff" points="834.55,-83.88 830.49,-74.09 827.56,-84.27 834.55,-83.88"/>
</a>
</g>
</g>
</g>
</svg>
