<?xml version="1.0" encoding="UTF-8" standalone="no"?>
<!DOCTYPE svg PUBLIC "-//W3C//DTD SVG 1.1//EN"
 "http://www.w3.org/Graphics/SVG/1.1/DTD/svg11.dtd">
<!-- Generated by graphviz version 2.43.0 (0)
 -->
<!-- Title: utils/logging/LogRecord.h Pages: 1 -->
<svg width="1595pt" height="423pt"
 viewBox="0.00 0.00 1595.00 423.00" xmlns="http://www.w3.org/2000/svg" xmlns:xlink="http://www.w3.org/1999/xlink">
<g id="graph0" class="graph" transform="scale(1 1) rotate(0) translate(4 419)">
<title>utils/logging/LogRecord.h</title>
<!-- Node1 -->
<g id="Node000001" class="node">
<title>Node1</title>
<g id="a_Node000001"><a xlink:title=" ">
<polygon fill="#999999" stroke="#666666" points="693,-415 553,-415 553,-396 693,-396 693,-415"/>
<text text-anchor="middle" x="623" y="-403" font-family="Helvetica,sans-Serif" font-size="10.00">utils/logging/LogRecord.h</text>
</a>
</g>
</g>
<!-- Node2 -->
<g id="Node000002" class="node">
<title>Node2</title>
<g id="a_Node000002"><a xlink:href="IAppender_8h.html" target="_top" xlink:title=" ">
<polygon fill="white" stroke="#666666" points="617.5,-305 480.5,-305 480.5,-286 617.5,-286 617.5,-305"/>
<text text-anchor="middle" x="549" y="-293" font-family="Helvetica,sans-Serif" font-size="10.00">utils/logging/IAppender.h</text>
</a>
</g>
</g>
<!-- Node1&#45;&gt;Node2 -->
<g id="edge1_Node000001_Node000002" class="edge">
<title>Node1&#45;&gt;Node2</title>
<g id="a_edge1_Node000001_Node000002"><a xlink:title=" ">
<path fill="none" stroke="#63b8ff" d="M611.27,-387.38C595.25,-364.01 567.14,-322.97 554.93,-305.16"/>
<polygon fill="#63b8ff" stroke="#63b8ff" points="608.4,-389.39 616.94,-395.66 614.18,-385.43 608.4,-389.39"/>
</a>
</g>
</g>
<!-- Node5 -->
<g id="Node000005" class="node">
<title>Node5</title>
<g id="a_Node000005"><a xlink:href="Log_8h.html" target="_top" xlink:title="EasyKiConverter 日志系统统一入口">
<polygon fill="white" stroke="#666666" points="488,-74 382,-74 382,-55 488,-55 488,-74"/>
<text text-anchor="middle" x="435" y="-62" font-family="Helvetica,sans-Serif" font-size="10.00">utils/logging/Log.h</text>
</a>
</g>
</g>
<!-- Node1&#45;&gt;Node5 -->
<g id="edge30_Node000001_Node000005" class="edge">
<title>Node1&#45;&gt;Node5</title>
<g id="a_edge30_Node000001_Node000005"><a xlink:title=" ">
<path fill="none" stroke="#63b8ff" d="M542.69,-398.84C374.36,-385.89 0,-350.96 0,-296.5 0,-296.5 0,-296.5 0,-184.5 0,-106.2 265.5,-77.61 381.66,-68.85"/>
<polygon fill="#63b8ff" stroke="#63b8ff" points="542.51,-402.33 552.75,-399.6 543.04,-395.35 542.51,-402.33"/>
</a>
</g>
</g>
<!-- Node9 -->
<g id="Node000009" class="node">
<title>Node9</title>
<g id="a_Node000009"><a xlink:href="Logger_8h.html" target="_top" xlink:title=" ">
<polygon fill="white" stroke="#666666" points="833.5,-250 712.5,-250 712.5,-231 833.5,-231 833.5,-250"/>
<text text-anchor="middle" x="773" y="-238" font-family="Helvetica,sans-Serif" font-size="10.00">utils/logging/Logger.h</text>
</a>
</g>
</g>
<!-- Node1&#45;&gt;Node9 -->
<g id="edge31_Node000001_Node000009" class="edge">
<title>Node1&#45;&gt;Node9</title>
<g id="a_edge31_Node000001_Node000009"><a xlink:title=" ">
<path fill="none" stroke="#63b8ff" d="M638.13,-388.05C669.53,-353.93 740.83,-276.45 764.9,-250.31"/>
<polygon fill="#63b8ff" stroke="#63b8ff" points="635.26,-386.01 631.06,-395.74 640.41,-390.75 635.26,-386.01"/>
</a>
</g>
</g>
<!-- Node17 -->
<g id="Node000017" class="node">
<title>Node17</title>
<g id="a_Node000017"><a xlink:href="IFormatter_8h.html" target="_top" xlink:title=" ">
<polygon fill="white" stroke="#666666" points="842.5,-360 703.5,-360 703.5,-341 842.5,-341 842.5,-360"/>
<text text-anchor="middle" x="773" y="-348" font-family="Helvetica,sans-Serif" font-size="10.00">utils/logging/IFormatter.h</text>
</a>
</g>
</g>
<!-- Node1&#45;&gt;Node17 -->
<g id="edge22_Node000001_Node000017" class="edge">
<title>Node1&#45;&gt;Node17</title>
<g id="a_edge22_Node000001_Node000017"><a xlink:title=" ">
<path fill="none" stroke="#63b8ff" d="M656.82,-392.55C684.68,-382.71 723.51,-368.98 748.46,-360.17"/>
<polygon fill="#63b8ff" stroke="#63b8ff" points="655.36,-389.35 647.1,-395.98 657.69,-395.95 655.36,-389.35"/>
</a>
</g>
</g>
<!-- Node3 -->
<g id="Node000003" class="node">
<title>Node3</title>
<g id="a_Node000003"><a xlink:href="ConsoleAppender_8h.html" target="_top" xlink:title=" ">
<polygon fill="white" stroke="#666666" points="584.5,-250 411.5,-250 411.5,-231 584.5,-231 584.5,-250"/>
<text text-anchor="middle" x="498" y="-238" font-family="Helvetica,sans-Serif" font-size="10.00">utils/logging/ConsoleAppender.h</text>
</a>
</g>
</g>
<!-- Node2&#45;&gt;Node3 -->
<g id="edge2_Node000002_Node000003" class="edge">
<title>Node2&#45;&gt;Node3</title>
<g id="a_edge2_Node000002_Node000003"><a xlink:title=" ">
<path fill="none" stroke="#63b8ff" d="M533.62,-278.52C524.63,-269.18 513.64,-257.75 506.26,-250.09"/>
<polygon fill="#63b8ff" stroke="#63b8ff" points="531.12,-280.97 540.58,-285.75 536.17,-276.12 531.12,-280.97"/>
</a>
</g>
</g>
<!-- Node2&#45;&gt;Node5 -->
<g id="edge9_Node000002_Node000005" class="edge">
<title>Node2&#45;&gt;Node5</title>
<g id="a_edge9_Node000002_Node000005"><a xlink:title=" ">
<path fill="none" stroke="#63b8ff" d="M470.16,-290.21C405.39,-281.95 317.76,-258.8 276,-195 237.88,-136.77 350.71,-91.95 406.17,-74.02"/>
<polygon fill="#63b8ff" stroke="#63b8ff" points="470.01,-293.71 480.35,-291.41 470.83,-286.76 470.01,-293.71"/>
</a>
</g>
</g>
<!-- Node7 -->
<g id="Node000007" class="node">
<title>Node7</title>
<g id="a_Node000007"><a xlink:href="FileAppender_8h.html" target="_top" xlink:title=" ">
<polygon fill="white" stroke="#666666" points="230,-250 78,-250 78,-231 230,-231 230,-250"/>
<text text-anchor="middle" x="154" y="-238" font-family="Helvetica,sans-Serif" font-size="10.00">utils/logging/FileAppender.h</text>
</a>
</g>
</g>
<!-- Node2&#45;&gt;Node7 -->
<g id="edge6_Node000002_Node000007" class="edge">
<title>Node2&#45;&gt;Node7</title>
<g id="a_edge6_Node000002_Node000007"><a xlink:title=" ">
<path fill="none" stroke="#63b8ff" d="M475.34,-284.62C401.19,-274.67 288,-259.48 217.63,-250.04"/>
<polygon fill="#63b8ff" stroke="#63b8ff" points="475.16,-288.12 485.54,-285.98 476.09,-281.19 475.16,-288.12"/>
</a>
</g>
</g>
<!-- Node2&#45;&gt;Node9 -->
<g id="edge10_Node000002_Node000009" class="edge">
<title>Node2&#45;&gt;Node9</title>
<g id="a_edge10_Node000002_Node000009"><a xlink:title=" ">
<path fill="none" stroke="#63b8ff" d="M594.95,-283.63C636.91,-273.7 698.12,-259.22 736.73,-250.08"/>
<polygon fill="#63b8ff" stroke="#63b8ff" points="593.91,-280.28 584.99,-285.98 595.53,-287.09 593.91,-280.28"/>
</a>
</g>
</g>
<!-- Node4 -->
<g id="Node000004" class="node">
<title>Node4</title>
<g id="a_Node000004"><a xlink:href="ConsoleAppender_8cpp.html" target="_top" xlink:title=" ">
<polygon fill="white" stroke="#666666" points="470.5,-195 285.5,-195 285.5,-176 470.5,-176 470.5,-195"/>
<text text-anchor="middle" x="378" y="-183" font-family="Helvetica,sans-Serif" font-size="10.00">utils/logging/ConsoleAppender.cpp</text>
</a>
</g>
</g>
<!-- Node3&#45;&gt;Node4 -->
<g id="edge3_Node000003_Node000004" class="edge">
<title>Node3&#45;&gt;Node4</title>
<g id="a_edge3_Node000003_Node000004"><a xlink:title=" ">
<path fill="none" stroke="#63b8ff" d="M469.47,-226.9C447.3,-217.11 417.15,-203.79 397.63,-195.17"/>
<polygon fill="#63b8ff" stroke="#63b8ff" points="468.16,-230.15 478.72,-230.98 470.99,-223.74 468.16,-230.15"/>
</a>
</g>
</g>
<!-- Node3&#45;&gt;Node5 -->
<g id="edge4_Node000003_Node000005" class="edge">
<title>Node3&#45;&gt;Node5</title>
<g id="a_edge4_Node000003_Node000005"><a xlink:title=" ">
<path fill="none" stroke="#63b8ff" d="M495.97,-220.71C493.7,-207.14 488.94,-189 479,-176 460.57,-151.9 435.75,-166.51 421,-140 409.1,-118.61 421.88,-88.97 429.76,-74.37"/>
<polygon fill="#63b8ff" stroke="#63b8ff" points="492.53,-221.38 497.34,-230.82 499.46,-220.44 492.53,-221.38"/>
</a>
</g>
</g>
<!-- Node6 -->
<g id="Node000006" class="node">
<title>Node6</title>
<g id="a_Node000006"><a xlink:href="main_8cpp.html" target="_top" xlink:title=" ">
<polygon fill="white" stroke="#666666" points="466,-19 404,-19 404,0 466,0 466,-19"/>
<text text-anchor="middle" x="435" y="-7" font-family="Helvetica,sans-Serif" font-size="10.00">main.cpp</text>
</a>
</g>
</g>
<!-- Node5&#45;&gt;Node6 -->
<g id="edge5_Node000005_Node000006" class="edge">
<title>Node5&#45;&gt;Node6</title>
<g id="a_edge5_Node000005_Node000006"><a xlink:title=" ">
<path fill="none" stroke="#63b8ff" d="M435,-44.66C435,-35.93 435,-25.99 435,-19.09"/>
<polygon fill="#63b8ff" stroke="#63b8ff" points="431.5,-44.75 435,-54.75 438.5,-44.75 431.5,-44.75"/>
</a>
</g>
</g>
<!-- Node7&#45;&gt;Node5 -->
<g id="edge8_Node000007_Node000005" class="edge">
<title>Node7&#45;&gt;Node5</title>
<g id="a_edge8_Node000007_Node000005"><a xlink:title=" ">
<path fill="none" stroke="#63b8ff" d="M172.54,-224.11C181.53,-216.04 192.08,-205.65 200,-195 225.4,-160.87 210.42,-136.12 244,-110 283.37,-79.38 340.23,-69.23 381.67,-66.15"/>
<polygon fill="#63b8ff" stroke="#63b8ff" points="170.09,-221.6 164.84,-230.8 174.68,-226.89 170.09,-221.6"/>
</a>
</g>
</g>
<!-- Node8 -->
<g id="Node000008" class="node">
<title>Node8</title>
<g id="a_Node000008"><a xlink:href="FileAppender_8cpp.html" target="_top" xlink:title=" ">
<polygon fill="white" stroke="#666666" points="191.5,-195 28.5,-195 28.5,-176 191.5,-176 191.5,-195"/>
<text text-anchor="middle" x="110" y="-183" font-family="Helvetica,sans-Serif" font-size="10.00">utils/logging/FileAppender.cpp</text>
</a>
</g>
</g>
<!-- Node7&#45;&gt;Node8 -->
<g id="edge7_Node000007_Node000008" class="edge">
<title>Node7&#45;&gt;Node8</title>
<g id="a_edge7_Node000007_Node000008"><a xlink:title=" ">
<path fill="none" stroke="#63b8ff" d="M140.27,-222.96C132.6,-213.72 123.37,-202.6 117.13,-195.09"/>
<polygon fill="#63b8ff" stroke="#63b8ff" points="137.65,-225.29 146.73,-230.75 143.04,-220.82 137.65,-225.29"/>
</a>
</g>
</g>
<!-- Node9&#45;&gt;Node5 -->
<g id="edge11_Node000009_Node000005" class="edge">
<title>Node9&#45;&gt;Node5</title>
<g id="a_edge11_Node000009_Node000005"><a xlink:title=" ">
<path fill="none" stroke="#63b8ff" d="M701.98,-235.9C630.57,-228.47 522.02,-206.19 457,-140 439.04,-121.72 435.62,-89.54 435.05,-74.16"/>
<polygon fill="#63b8ff" stroke="#63b8ff" points="701.94,-239.41 712.23,-236.89 702.62,-232.44 701.94,-239.41"/>
</a>
</g>
</g>
<!-- Node10 -->
<g id="Node000010" class="node">
<title>Node10</title>
<g id="a_Node000010"><a xlink:href="LogMacros_8h.html" target="_top" xlink:title=" ">
<polygon fill="white" stroke="#666666" points="845.5,-195 704.5,-195 704.5,-176 845.5,-176 845.5,-195"/>
<text text-anchor="middle" x="775" y="-183" font-family="Helvetica,sans-Serif" font-size="10.00">utils/logging/LogMacros.h</text>
</a>
</g>
</g>
<!-- Node9&#45;&gt;Node10 -->
<g id="edge12_Node000009_Node000010" class="edge">
<title>Node9&#45;&gt;Node10</title>
<g id="a_edge12_Node000009_Node000010"><a xlink:title=" ">
<path fill="none" stroke="#63b8ff" d="M773.71,-220.66C774.04,-211.93 774.42,-201.99 774.68,-195.09"/>
<polygon fill="#63b8ff" stroke="#63b8ff" points="770.21,-220.62 773.33,-230.75 777.2,-220.89 770.21,-220.62"/>
</a>
</g>
</g>
<!-- Node14 -->
<g id="Node000014" class="node">
<title>Node14</title>
<g id="a_Node000014"><a xlink:href="QtLogAdapter_8h.html" target="_top" xlink:title=" ">
<polygon fill="white" stroke="#666666" points="1235.5,-134.5 1080.5,-134.5 1080.5,-115.5 1235.5,-115.5 1235.5,-134.5"/>
<text text-anchor="middle" x="1158" y="-122.5" font-family="Helvetica,sans-Serif" font-size="10.00">utils/logging/QtLogAdapter.h</text>
</a>
</g>
</g>
<!-- Node9&#45;&gt;Node14 -->
<g id="edge21_Node000009_Node000014" class="edge">
<title>Node9&#45;&gt;Node14</title>
<g id="a_edge21_Node000009_Node000014"><a xlink:title=" ">
<path fill="none" stroke="#63b8ff" d="M811.75,-228.08C888.99,-205.31 1060.55,-154.73 1128.99,-134.55"/>
<polygon fill="#63b8ff" stroke="#63b8ff" points="810.54,-224.78 801.94,-230.97 812.52,-231.5 810.54,-224.78"/>
</a>
</g>
</g>
<!-- Node16 -->
<g id="Node000016" class="node">
<title>Node16</title>
<g id="a_Node000016"><a xlink:href="Logger_8cpp.html" target="_top" xlink:title=" ">
<polygon fill="white" stroke="#666666" points="1349,-195 1217,-195 1217,-176 1349,-176 1349,-195"/>
<text text-anchor="middle" x="1283" y="-183" font-family="Helvetica,sans-Serif" font-size="10.00">utils/logging/Logger.cpp</text>
</a>
</g>
</g>
<!-- Node9&#45;&gt;Node16 -->
<g id="edge20_Node000009_Node000016" class="edge">
<title>Node9&#45;&gt;Node16</title>
<g id="a_edge20_Node000009_Node000016"><a xlink:title=" ">
<path fill="none" stroke="#63b8ff" d="M843.69,-232.15C942.52,-221.88 1120.65,-203.37 1216.93,-193.37"/>
<polygon fill="#63b8ff" stroke="#63b8ff" points="843.09,-228.7 833.51,-233.21 843.81,-235.66 843.09,-228.7"/>
</a>
</g>
</g>
<!-- Node10&#45;&gt;Node5 -->
<g id="edge16_Node000010_Node000005" class="edge">
<title>Node10&#45;&gt;Node5</title>
<g id="a_edge16_Node000010_Node000005"><a xlink:title=" ">
<path fill="none" stroke="#63b8ff" d="M693.9,-178.47C622.63,-171.96 525.25,-159.79 492,-140 465.13,-124.01 446.5,-90.1 438.87,-74.14"/>
<polygon fill="#63b8ff" stroke="#63b8ff" points="693.94,-181.98 704.21,-179.38 694.56,-175.01 693.94,-181.98"/>
</a>
</g>
</g>
<!-- Node11 -->
<g id="Node000011" class="node">
<title>Node11</title>
<g id="a_Node000011"><a xlink:href="ComponentCacheService_8cpp.html" target="_top" xlink:title=" ">
<polygon fill="white" stroke="#666666" points="704.5,-134.5 501.5,-134.5 501.5,-115.5 704.5,-115.5 704.5,-134.5"/>
<text text-anchor="middle" x="603" y="-122.5" font-family="Helvetica,sans-Serif" font-size="10.00">services/ComponentCacheService.cpp</text>
</a>
</g>
</g>
<!-- Node10&#45;&gt;Node11 -->
<g id="edge13_Node000010_Node000011" class="edge">
<title>Node10&#45;&gt;Node11</title>
<g id="a_edge13_Node000010_Node000011"><a xlink:title=" ">
<path fill="none" stroke="#63b8ff" d="M740.22,-172.67C706.96,-161.36 657.61,-144.57 628.04,-134.52"/>
<polygon fill="#63b8ff" stroke="#63b8ff" points="739.4,-176.09 749.99,-175.99 741.65,-169.46 739.4,-176.09"/>
</a>
</g>
</g>
<!-- Node12 -->
<g id="Node000012" class="node">
<title>Node12</title>
<g id="a_Node000012"><a xlink:href="ExportReportGenerator_8cpp.html" target="_top" xlink:title=" ">
<polygon fill="white" stroke="#666666" points="880,-140 722,-140 722,-110 880,-110 880,-140"/>
<text text-anchor="start" x="730" y="-128" font-family="Helvetica,sans-Serif" font-size="10.00">services/export/ExportReport</text>
<text text-anchor="middle" x="801" y="-117" font-family="Helvetica,sans-Serif" font-size="10.00">Generator.cpp</text>
</a>
</g>
</g>
<!-- Node10&#45;&gt;Node12 -->
<g id="edge14_Node000010_Node000012" class="edge">
<title>Node10&#45;&gt;Node12</title>
<g id="a_edge14_Node000010_Node000012"><a xlink:title=" ">
<path fill="none" stroke="#63b8ff" d="M783,-166.5C786.77,-158.01 791.2,-148.04 794.73,-140.11"/>
<polygon fill="#63b8ff" stroke="#63b8ff" points="779.7,-165.31 778.84,-175.87 786.1,-168.15 779.7,-165.31"/>
</a>
</g>
</g>
<!-- Node13 -->
<g id="Node000013" class="node">
<title>Node13</title>
<g id="a_Node000013"><a xlink:href="ExportProgressViewModel_8cpp.html" target="_top" xlink:title=" ">
<polygon fill="white" stroke="#666666" points="1062,-140 898,-140 898,-110 1062,-110 1062,-140"/>
<text text-anchor="start" x="906" y="-128" font-family="Helvetica,sans-Serif" font-size="10.00">ui/viewmodels/ExportProgress</text>
<text text-anchor="middle" x="980" y="-117" font-family="Helvetica,sans-Serif" font-size="10.00">ViewModel.cpp</text>
</a>
</g>
</g>
<!-- Node10&#45;&gt;Node13 -->
<g id="edge15_Node000010_Node000013" class="edge">
<title>Node10&#45;&gt;Node13</title>
<g id="a_edge15_Node000010_Node000013"><a xlink:title=" ">
<path fill="none" stroke="#63b8ff" d="M814.6,-173.2C847.73,-163.75 895.14,-150.22 930.72,-140.06"/>
<polygon fill="#63b8ff" stroke="#63b8ff" points="813.46,-169.88 804.81,-175.99 815.39,-176.62 813.46,-169.88"/>
</a>
</g>
</g>
<!-- Node10&#45;&gt;Node14 -->
<g id="edge17_Node000010_Node000014" class="edge">
<title>Node10&#45;&gt;Node14</title>
<g id="a_edge17_Node000010_Node000014"><a xlink:title=" ">
<path fill="none" stroke="#63b8ff" d="M842.99,-174.48C903,-165.59 992.85,-152.16 1071,-140 1082.19,-138.26 1094.17,-136.35 1105.57,-134.53"/>
<polygon fill="#63b8ff" stroke="#63b8ff" points="842.26,-171.05 832.88,-175.98 843.28,-177.98 842.26,-171.05"/>
</a>
</g>
</g>
<!-- Node14&#45;&gt;Node5 -->
<g id="edge18_Node000014_Node000005" class="edge">
<title>Node14&#45;&gt;Node5</title>
<g id="a_edge18_Node000014_Node000005"><a xlink:title=" ">
<path fill="none" stroke="#63b8ff" d="M1099.88,-113.91C1090.26,-112.45 1080.36,-111.08 1071,-110 855.75,-85.2 597.82,-72.31 488.34,-67.61"/>
<polygon fill="#63b8ff" stroke="#63b8ff" points="1099.37,-117.37 1109.79,-115.45 1100.45,-110.45 1099.37,-117.37"/>
</a>
</g>
</g>
<!-- Node15 -->
<g id="Node000015" class="node">
<title>Node15</title>
<g id="a_Node000015"><a xlink:href="QtLogAdapter_8cpp.html" target="_top" xlink:title=" ">
<polygon fill="white" stroke="#666666" points="1241,-74 1075,-74 1075,-55 1241,-55 1241,-74"/>
<text text-anchor="middle" x="1158" y="-62" font-family="Helvetica,sans-Serif" font-size="10.00">utils/logging/QtLogAdapter.cpp</text>
</a>
</g>
</g>
<!-- Node14&#45;&gt;Node15 -->
<g id="edge19_Node000014_Node000015" class="edge">
<title>Node14&#45;&gt;Node15</title>
<g id="a_edge19_Node000014_Node000015"><a xlink:title=" ">
<path fill="none" stroke="#63b8ff" d="M1158,-105.16C1158,-94.74 1158,-82.3 1158,-74.17"/>
<polygon fill="#63b8ff" stroke="#63b8ff" points="1154.5,-105.37 1158,-115.37 1161.5,-105.37 1154.5,-105.37"/>
</a>
</g>
</g>
<!-- Node17&#45;&gt;Node2 -->
<g id="edge23_Node000017_Node000002" class="edge">
<title>Node17&#45;&gt;Node2</title>
<g id="a_edge23_Node000017_Node000002"><a xlink:title=" ">
<path fill="none" stroke="#63b8ff" d="M727.05,-338.63C685.09,-328.7 623.88,-314.22 585.27,-305.08"/>
<polygon fill="#63b8ff" stroke="#63b8ff" points="726.47,-342.09 737.01,-340.98 728.09,-335.28 726.47,-342.09"/>
</a>
</g>
</g>
<!-- Node17&#45;&gt;Node5 -->
<g id="edge24_Node000017_Node000005" class="edge">
<title>Node17&#45;&gt;Node5</title>
<g id="a_edge24_Node000017_Node000005"><a xlink:title=" ">
<path fill="none" stroke="#63b8ff" d="M812.54,-338.01C916.75,-306.85 1194.39,-217.83 1245,-140 1252.27,-128.82 1254.17,-119.68 1245,-110 1218.95,-82.48 664.05,-69.78 488.06,-66.43"/>
<polygon fill="#63b8ff" stroke="#63b8ff" points="811.31,-334.72 802.72,-340.93 813.31,-341.43 811.31,-334.72"/>
</a>
</g>
</g>
<!-- Node17&#45;&gt;Node9 -->
<g id="edge25_Node000017_Node000009" class="edge">
<title>Node17&#45;&gt;Node9</title>
<g id="a_edge25_Node000017_Node000009"><a xlink:title=" ">
<path fill="none" stroke="#63b8ff" d="M773,-330.48C773,-306.84 773,-267.5 773,-250.16"/>
<polygon fill="#63b8ff" stroke="#63b8ff" points="769.5,-330.66 773,-340.66 776.5,-330.66 769.5,-330.66"/>
</a>
</g>
</g>
<!-- Node18 -->
<g id="Node000018" class="node">
<title>Node18</title>
<g id="a_Node000018"><a xlink:href="PatternFormatter_8h.html" target="_top" xlink:title=" ">
<polygon fill="white" stroke="#666666" points="1424,-250 1254,-250 1254,-231 1424,-231 1424,-250"/>
<text text-anchor="middle" x="1339" y="-238" font-family="Helvetica,sans-Serif" font-size="10.00">utils/logging/PatternFormatter.h</text>
</a>
</g>
</g>
<!-- Node17&#45;&gt;Node18 -->
<g id="edge26_Node000017_Node000018" class="edge">
<title>Node17&#45;&gt;Node18</title>
<g id="a_edge26_Node000017_Node000018"><a xlink:title=" ">
<path fill="none" stroke="#63b8ff" d="M852.95,-349.13C940.41,-346.91 1084.02,-337.93 1203,-305 1249.96,-292 1300.88,-264.11 1324.92,-250.02"/>
<polygon fill="#63b8ff" stroke="#63b8ff" points="852.74,-345.63 842.83,-349.36 852.91,-352.63 852.74,-345.63"/>
</a>
</g>
</g>
<!-- Node18&#45;&gt;Node5 -->
<g id="edge27_Node000018_Node000005" class="edge">
<title>Node18&#45;&gt;Node5</title>
<g id="a_edge27_Node000018_Node000005"><a xlink:title=" ">
<path fill="none" stroke="#63b8ff" d="M1350.87,-222.13C1358.22,-209.06 1365.04,-190.93 1358,-176 1338.35,-134.31 1320.95,-126.72 1278,-110 1204.72,-81.47 661.79,-69.5 488.2,-66.38"/>
<polygon fill="#63b8ff" stroke="#63b8ff" points="1347.67,-220.65 1345.36,-230.99 1353.62,-224.34 1347.67,-220.65"/>
</a>
</g>
</g>
<!-- Node18&#45;&gt;Node16 -->
<g id="edge28_Node000018_Node000016" class="edge">
<title>Node18&#45;&gt;Node16</title>
<g id="a_edge28_Node000018_Node000016"><a xlink:title=" ">
<path fill="none" stroke="#63b8ff" d="M1322.67,-224.04C1312.74,-214.64 1300.41,-202.98 1292.16,-195.17"/>
<polygon fill="#63b8ff" stroke="#63b8ff" points="1320.33,-226.65 1330,-230.98 1325.15,-221.57 1320.33,-226.65"/>
</a>
</g>
</g>
<!-- Node19 -->
<g id="Node000019" class="node">
<title>Node19</title>
<g id="a_Node000019"><a xlink:href="PatternFormatter_8cpp.html" target="_top" xlink:title=" ">
<polygon fill="white" stroke="#666666" points="1587,-195 1405,-195 1405,-176 1587,-176 1587,-195"/>
<text text-anchor="middle" x="1496" y="-183" font-family="Helvetica,sans-Serif" font-size="10.00">utils/logging/PatternFormatter.cpp</text>
</a>
</g>
</g>
<!-- Node18&#45;&gt;Node19 -->
<g id="edge29_Node000018_Node000019" class="edge">
<title>Node18&#45;&gt;Node19</title>
<g id="a_edge29_Node000018_Node000019"><a xlink:title=" ">
<path fill="none" stroke="#63b8ff" d="M1374.05,-227.67C1403.32,-217.79 1444.37,-203.93 1470.58,-195.08"/>
<polygon fill="#63b8ff" stroke="#63b8ff" points="1372.58,-224.47 1364.22,-230.98 1374.82,-231.1 1372.58,-224.47"/>
</a>
</g>
</g>
</g>
</svg>
