<?xml version="1.0" encoding="UTF-8" standalone="no"?>
<!DOCTYPE svg PUBLIC "-//W3C//DTD SVG 1.1//EN"
 "http://www.w3.org/Graphics/SVG/1.1/DTD/svg11.dtd">
<!-- Generated by graphviz version 2.43.0 (0)
 -->
<!-- Title: workers/MediaFetchWorker.h Pages: 1 -->
<svg width="1213pt" height="302pt"
 viewBox="0.00 0.00 1213.00 302.00" xmlns="http://www.w3.org/2000/svg" xmlns:xlink="http://www.w3.org/1999/xlink">
<g id="graph0" class="graph" transform="scale(1 1) rotate(0) translate(4 298)">
<title>workers/MediaFetchWorker.h</title>
<!-- Node1 -->
<g id="Node000001" class="node">
<title>Node1</title>
<g id="a_Node000001"><a xlink:title=" ">
<polygon fill="#999999" stroke="#666666" points="1002,-294 846,-294 846,-275 1002,-275 1002,-294"/>
<text text-anchor="middle" x="924" y="-282" font-family="Helvetica,sans-Serif" font-size="10.00">workers/MediaFetchWorker.h</text>
</a>
</g>
</g>
<!-- Node2 -->
<g id="Node000002" class="node">
<title>Node2</title>
<g id="a_Node000002"><a xlink:href="ComponentExportStatus_8h.html" target="_top" xlink:title=" ">
<polygon fill="white" stroke="#666666" points="519.5,-239 336.5,-239 336.5,-220 519.5,-220 519.5,-239"/>
<text text-anchor="middle" x="428" y="-227" font-family="Helvetica,sans-Serif" font-size="10.00">models/ComponentExportStatus.h</text>
</a>
</g>
</g>
<!-- Node1&#45;&gt;Node2 -->
<g id="edge1_Node000001_Node000002" class="edge">
<title>Node1&#45;&gt;Node2</title>
<g id="a_edge1_Node000001_Node000002"><a xlink:title=" ">
<path fill="none" stroke="#63b8ff" d="M845.95,-275.16C756.85,-265.64 611.36,-250.09 517.67,-240.08"/>
<polygon fill="#63b8ff" stroke="#63b8ff" points="517.96,-236.59 507.64,-239.01 517.21,-243.55 517.96,-236.59"/>
</a>
</g>
</g>
<!-- Node6 -->
<g id="Node000006" class="node">
<title>Node6</title>
<g id="a_Node000006"><a xlink:title=" ">
<polygon fill="#e0e0e0" stroke="#999999" points="223.5,-19 150.5,-19 150.5,0 223.5,0 223.5,-19"/>
<text text-anchor="middle" x="187" y="-7" font-family="Helvetica,sans-Serif" font-size="10.00">QByteArray</text>
</a>
</g>
</g>
<!-- Node1&#45;&gt;Node6 -->
<g id="edge35_Node000001_Node000006" class="edge">
<title>Node1&#45;&gt;Node6</title>
<g id="a_edge35_Node000001_Node000006"><a xlink:title=" ">
<path fill="none" stroke="#63b8ff" d="M845.62,-282.51C622.51,-278.67 0,-260.34 0,-175.5 0,-175.5 0,-175.5 0,-118.5 0,-53.91 84.69,-27.34 140.08,-16.87"/>
<polygon fill="#63b8ff" stroke="#63b8ff" points="140.82,-20.3 150.05,-15.1 139.6,-13.41 140.82,-20.3"/>
</a>
</g>
</g>
<!-- Node8 -->
<g id="Node000008" class="node">
<title>Node8</title>
<g id="a_Node000008"><a xlink:title=" ">
<polygon fill="#e0e0e0" stroke="#999999" points="708.5,-19 655.5,-19 655.5,0 708.5,0 708.5,-19"/>
<text text-anchor="middle" x="682" y="-7" font-family="Helvetica,sans-Serif" font-size="10.00">QString</text>
</a>
</g>
</g>
<!-- Node1&#45;&gt;Node8 -->
<g id="edge40_Node000001_Node000008" class="edge">
<title>Node1&#45;&gt;Node8</title>
<g id="a_edge40_Node000001_Node000008"><a xlink:title=" ">
<path fill="none" stroke="#63b8ff" d="M926.56,-274.91C931.75,-256.74 943,-213 943,-175.5 943,-175.5 943,-175.5 943,-118.5 943,-22.68 790.96,-10.22 718.96,-9.68"/>
<polygon fill="#63b8ff" stroke="#63b8ff" points="718.95,-6.18 708.95,-9.68 718.95,-13.18 718.95,-6.18"/>
</a>
</g>
</g>
<!-- Node10 -->
<g id="Node000010" class="node">
<title>Node10</title>
<g id="a_Node000010"><a xlink:title=" ">
<polygon fill="#e0e0e0" stroke="#999999" points="768.5,-74 727.5,-74 727.5,-55 768.5,-55 768.5,-74"/>
<text text-anchor="middle" x="748" y="-62" font-family="Helvetica,sans-Serif" font-size="10.00">QList</text>
</a>
</g>
</g>
<!-- Node1&#45;&gt;Node10 -->
<g id="edge37_Node000001_Node000010" class="edge">
<title>Node1&#45;&gt;Node10</title>
<g id="a_edge37_Node000001_Node000010"><a xlink:title=" ">
<path fill="none" stroke="#63b8ff" d="M923.1,-274.93C920.57,-254.21 911.78,-200.48 886,-165 856.9,-124.93 806.73,-94.67 775.56,-78.56"/>
<polygon fill="#63b8ff" stroke="#63b8ff" points="777.05,-75.39 766.55,-74.01 773.9,-81.64 777.05,-75.39"/>
</a>
</g>
</g>
<!-- Node16 -->
<g id="Node000016" class="node">
<title>Node16</title>
<g id="a_Node000016"><a xlink:title=" ">
<polygon fill="#e0e0e0" stroke="#999999" points="876.5,-184 785.5,-184 785.5,-165 876.5,-165 876.5,-184"/>
<text text-anchor="middle" x="831" y="-172" font-family="Helvetica,sans-Serif" font-size="10.00">QElapsedTimer</text>
</a>
</g>
</g>
<!-- Node1&#45;&gt;Node16 -->
<g id="edge36_Node000001_Node000016" class="edge">
<title>Node1&#45;&gt;Node16</title>
<g id="a_edge36_Node000001_Node000016"><a xlink:title=" ">
<path fill="none" stroke="#63b8ff" d="M916.39,-274.66C900.78,-256.54 864.94,-214.91 845.01,-191.77"/>
<polygon fill="#63b8ff" stroke="#63b8ff" points="847.63,-189.45 838.46,-184.16 842.33,-194.02 847.63,-189.45"/>
</a>
</g>
</g>
<!-- Node19 -->
<g id="Node000019" class="node">
<title>Node19</title>
<g id="a_Node000019"><a xlink:title=" ">
<polygon fill="#e0e0e0" stroke="#999999" points="1042.5,-239 971.5,-239 971.5,-220 1042.5,-220 1042.5,-239"/>
<text text-anchor="middle" x="1007" y="-227" font-family="Helvetica,sans-Serif" font-size="10.00">QAtomicInt</text>
</a>
</g>
</g>
<!-- Node1&#45;&gt;Node19 -->
<g id="edge34_Node000001_Node000019" class="edge">
<title>Node1&#45;&gt;Node19</title>
<g id="a_edge34_Node000001_Node000019"><a xlink:title=" ">
<path fill="none" stroke="#63b8ff" d="M937.34,-274.98C950.09,-266.84 969.55,-254.41 984.67,-244.76"/>
<polygon fill="#63b8ff" stroke="#63b8ff" points="986.88,-247.5 993.42,-239.17 983.11,-241.6 986.88,-247.5"/>
</a>
</g>
</g>
<!-- Node20 -->
<g id="Node000020" class="node">
<title>Node20</title>
<g id="a_Node000020"><a xlink:title=" ">
<polygon fill="#e0e0e0" stroke="#999999" points="1117,-239 1061,-239 1061,-220 1117,-220 1117,-239"/>
<text text-anchor="middle" x="1089" y="-227" font-family="Helvetica,sans-Serif" font-size="10.00">QObject</text>
</a>
</g>
</g>
<!-- Node1&#45;&gt;Node20 -->
<g id="edge38_Node000001_Node000020" class="edge">
<title>Node1&#45;&gt;Node20</title>
<g id="a_edge38_Node000001_Node000020"><a xlink:title=" ">
<path fill="none" stroke="#63b8ff" d="M950.51,-274.98C978.21,-266.09 1021.86,-252.07 1052.74,-242.15"/>
<polygon fill="#63b8ff" stroke="#63b8ff" points="1053.83,-245.47 1062.28,-239.08 1051.69,-238.81 1053.83,-245.47"/>
</a>
</g>
</g>
<!-- Node21 -->
<g id="Node000021" class="node">
<title>Node21</title>
<g id="a_Node000021"><a xlink:title=" ">
<polygon fill="#e0e0e0" stroke="#999999" points="1205,-239 1135,-239 1135,-220 1205,-220 1205,-239"/>
<text text-anchor="middle" x="1170" y="-227" font-family="Helvetica,sans-Serif" font-size="10.00">QRunnable</text>
</a>
</g>
</g>
<!-- Node1&#45;&gt;Node21 -->
<g id="edge39_Node000001_Node000021" class="edge">
<title>Node1&#45;&gt;Node21</title>
<g id="a_edge39_Node000001_Node000021"><a xlink:title=" ">
<path fill="none" stroke="#63b8ff" d="M963.52,-274.98C1007.59,-265.49 1078.73,-250.16 1124.92,-240.21"/>
<polygon fill="#63b8ff" stroke="#63b8ff" points="1125.92,-243.58 1134.96,-238.05 1124.44,-236.73 1125.92,-243.58"/>
</a>
</g>
</g>
<!-- Node3 -->
<g id="Node000003" class="node">
<title>Node3</title>
<g id="a_Node000003"><a xlink:href="ComponentData_8h.html" target="_top" xlink:title=" ">
<polygon fill="white" stroke="#666666" points="500,-184 356,-184 356,-165 500,-165 500,-184"/>
<text text-anchor="middle" x="428" y="-172" font-family="Helvetica,sans-Serif" font-size="10.00">models/ComponentData.h</text>
</a>
</g>
</g>
<!-- Node2&#45;&gt;Node3 -->
<g id="edge2_Node000002_Node000003" class="edge">
<title>Node2&#45;&gt;Node3</title>
<g id="a_edge2_Node000002_Node000003"><a xlink:title=" ">
<path fill="none" stroke="#63b8ff" d="M428,-219.75C428,-212.8 428,-202.85 428,-194.13"/>
<polygon fill="#63b8ff" stroke="#63b8ff" points="431.5,-194.09 428,-184.09 424.5,-194.09 431.5,-194.09"/>
</a>
</g>
</g>
<!-- Node4 -->
<g id="Node000004" class="node">
<title>Node4</title>
<g id="a_Node000004"><a xlink:href="FootprintData_8h.html" target="_top" xlink:title=" ">
<polygon fill="white" stroke="#666666" points="561,-129 469,-129 469,-110 561,-110 561,-129"/>
<text text-anchor="middle" x="515" y="-117" font-family="Helvetica,sans-Serif" font-size="10.00">FootprintData.h</text>
</a>
</g>
</g>
<!-- Node2&#45;&gt;Node4 -->
<g id="edge25_Node000002_Node000004" class="edge">
<title>Node2&#45;&gt;Node4</title>
<g id="a_edge25_Node000002_Node000004"><a xlink:title=" ">
<path fill="none" stroke="#63b8ff" d="M458.01,-219.9C475.88,-213.15 497.28,-201.83 509,-184 517.65,-170.84 518.54,-152.71 517.62,-139.19"/>
<polygon fill="#63b8ff" stroke="#63b8ff" points="521.09,-138.7 516.56,-129.13 514.13,-139.44 521.09,-138.7"/>
</a>
</g>
</g>
<!-- Node5 -->
<g id="Node000005" class="node">
<title>Node5</title>
<g id="a_Node000005"><a xlink:href="Model3DData_8h.html" target="_top" xlink:title=" ">
<polygon fill="white" stroke="#666666" points="394,-74 302,-74 302,-55 394,-55 394,-74"/>
<text text-anchor="middle" x="348" y="-62" font-family="Helvetica,sans-Serif" font-size="10.00">Model3DData.h</text>
</a>
</g>
</g>
<!-- Node2&#45;&gt;Node5 -->
<g id="edge26_Node000002_Node000005" class="edge">
<title>Node2&#45;&gt;Node5</title>
<g id="a_edge26_Node000002_Node000005"><a xlink:title=" ">
<path fill="none" stroke="#63b8ff" d="M405.11,-219.88C383.21,-211.42 349.4,-197.82 321,-184 298.54,-173.08 235.62,-150.55 223,-129 204.59,-97.56 250.43,-81.18 291.69,-72.99"/>
<polygon fill="#63b8ff" stroke="#63b8ff" points="292.56,-76.39 301.76,-71.13 291.29,-69.51 292.56,-76.39"/>
</a>
</g>
</g>
<!-- Node2&#45;&gt;Node8 -->
<g id="edge33_Node000002_Node000008" class="edge">
<title>Node2&#45;&gt;Node8</title>
<g id="a_edge33_Node000002_Node000008"><a xlink:title=" ">
<path fill="none" stroke="#63b8ff" d="M519.66,-226.75C624.63,-219.13 791.55,-188.46 865,-74 899.51,-20.22 781.98,-11.29 719.09,-10.26"/>
<polygon fill="#63b8ff" stroke="#63b8ff" points="718.8,-6.76 708.77,-10.16 718.73,-13.76 718.8,-6.76"/>
</a>
</g>
</g>
<!-- Node12 -->
<g id="Node000012" class="node">
<title>Node12</title>
<g id="a_Node000012"><a xlink:href="SymbolData_8h.html" target="_top" xlink:title=" ">
<polygon fill="white" stroke="#666666" points="736,-129 650,-129 650,-110 736,-110 736,-129"/>
<text text-anchor="middle" x="693" y="-117" font-family="Helvetica,sans-Serif" font-size="10.00">SymbolData.h</text>
</a>
</g>
</g>
<!-- Node2&#45;&gt;Node12 -->
<g id="edge27_Node000002_Node000012" class="edge">
<title>Node2&#45;&gt;Node12</title>
<g id="a_edge27_Node000002_Node000012"><a xlink:title=" ">
<path fill="none" stroke="#63b8ff" d="M449.24,-219.84C496.07,-200.76 608.32,-155.01 662.6,-132.89"/>
<polygon fill="#63b8ff" stroke="#63b8ff" points="664.09,-136.06 672.03,-129.05 661.45,-129.58 664.09,-136.06"/>
</a>
</g>
</g>
<!-- Node14 -->
<g id="Node000014" class="node">
<title>Node14</title>
<g id="a_Node000014"><a xlink:title=" ">
<polygon fill="#e0e0e0" stroke="#999999" points="324,-129 232,-129 232,-110 324,-110 324,-129"/>
<text text-anchor="middle" x="278" y="-117" font-family="Helvetica,sans-Serif" font-size="10.00">QSharedPointer</text>
</a>
</g>
</g>
<!-- Node2&#45;&gt;Node14 -->
<g id="edge32_Node000002_Node000014" class="edge">
<title>Node2&#45;&gt;Node14</title>
<g id="a_edge32_Node000002_Node000014"><a xlink:title=" ">
<path fill="none" stroke="#63b8ff" d="M409.55,-219.96C392.63,-211.77 367.2,-198.51 347,-184 326.89,-169.55 306.31,-149.84 292.92,-136.24"/>
<polygon fill="#63b8ff" stroke="#63b8ff" points="295.4,-133.77 285.93,-129.02 290.37,-138.63 295.4,-133.77"/>
</a>
</g>
</g>
<!-- Node15 -->
<g id="Node000015" class="node">
<title>Node15</title>
<g id="a_Node000015"><a xlink:title=" ">
<polygon fill="#e0e0e0" stroke="#999999" points="84,-184 28,-184 28,-165 84,-165 84,-184"/>
<text text-anchor="middle" x="56" y="-172" font-family="Helvetica,sans-Serif" font-size="10.00">QDebug</text>
</a>
</g>
</g>
<!-- Node2&#45;&gt;Node15 -->
<g id="edge28_Node000002_Node000015" class="edge">
<title>Node2&#45;&gt;Node15</title>
<g id="a_edge28_Node000002_Node000015"><a xlink:title=" ">
<path fill="none" stroke="#63b8ff" d="M347.8,-219.99C282.12,-212.52 186.6,-200.54 94.3,-184.09"/>
<polygon fill="#63b8ff" stroke="#63b8ff" points="94.69,-180.6 84.23,-182.27 93.45,-187.49 94.69,-180.6"/>
</a>
</g>
</g>
<!-- Node2&#45;&gt;Node16 -->
<g id="edge29_Node000002_Node000016" class="edge">
<title>Node2&#45;&gt;Node16</title>
<g id="a_edge29_Node000002_Node000016"><a xlink:title=" ">
<path fill="none" stroke="#63b8ff" d="M495.39,-219.99C564.58,-211.2 675.35,-196.98 771,-184 772.47,-183.8 773.95,-183.6 775.45,-183.39"/>
<polygon fill="#63b8ff" stroke="#63b8ff" points="776.04,-186.84 785.47,-182.01 775.09,-179.91 776.04,-186.84"/>
</a>
</g>
</g>
<!-- Node17 -->
<g id="Node000017" class="node">
<title>Node17</title>
<g id="a_Node000017"><a xlink:title=" ">
<polygon fill="#e0e0e0" stroke="#999999" points="157.5,-184 102.5,-184 102.5,-165 157.5,-165 157.5,-184"/>
<text text-anchor="middle" x="130" y="-172" font-family="Helvetica,sans-Serif" font-size="10.00">QMutex</text>
</a>
</g>
</g>
<!-- Node2&#45;&gt;Node17 -->
<g id="edge30_Node000002_Node000017" class="edge">
<title>Node2&#45;&gt;Node17</title>
<g id="a_edge30_Node000002_Node000017"><a xlink:title=" ">
<path fill="none" stroke="#63b8ff" d="M372.59,-219.99C321.81,-211.98 244.33,-199.23 167.67,-184.04"/>
<polygon fill="#63b8ff" stroke="#63b8ff" points="168.34,-180.6 157.84,-182.08 166.97,-187.47 168.34,-180.6"/>
</a>
</g>
</g>
<!-- Node18 -->
<g id="Node000018" class="node">
<title>Node18</title>
<g id="a_Node000018"><a xlink:title=" ">
<polygon fill="#e0e0e0" stroke="#999999" points="262,-184 176,-184 176,-165 262,-165 262,-184"/>
<text text-anchor="middle" x="219" y="-172" font-family="Helvetica,sans-Serif" font-size="10.00">QMutexLocker</text>
</a>
</g>
</g>
<!-- Node2&#45;&gt;Node18 -->
<g id="edge31_Node000002_Node000018" class="edge">
<title>Node2&#45;&gt;Node18</title>
<g id="a_edge31_Node000002_Node000018"><a xlink:title=" ">
<path fill="none" stroke="#63b8ff" d="M394.42,-219.98C358.65,-210.91 301.88,-196.52 262.66,-186.57"/>
<polygon fill="#63b8ff" stroke="#63b8ff" points="263.4,-183.15 252.84,-184.08 261.68,-189.93 263.4,-183.15"/>
</a>
</g>
</g>
<!-- Node3&#45;&gt;Node4 -->
<g id="edge3_Node000003_Node000004" class="edge">
<title>Node3&#45;&gt;Node4</title>
<g id="a_edge3_Node000003_Node000004"><a xlink:title=" ">
<path fill="none" stroke="#63b8ff" d="M441.98,-164.98C455.47,-156.77 476.13,-144.18 492.04,-134.49"/>
<polygon fill="#63b8ff" stroke="#63b8ff" points="494.05,-137.36 500.77,-129.17 490.41,-131.38 494.05,-137.36"/>
</a>
</g>
</g>
<!-- Node3&#45;&gt;Node5 -->
<g id="edge13_Node000003_Node000005" class="edge">
<title>Node3&#45;&gt;Node5</title>
<g id="a_edge13_Node000003_Node000005"><a xlink:title=" ">
<path fill="none" stroke="#63b8ff" d="M421.45,-164.66C408.14,-146.69 377.73,-105.64 360.51,-82.38"/>
<polygon fill="#63b8ff" stroke="#63b8ff" points="363.18,-80.11 354.41,-74.16 357.55,-84.28 363.18,-80.11"/>
</a>
</g>
</g>
<!-- Node7 -->
<g id="Node000007" class="node">
<title>Node7</title>
<g id="a_Node000007"><a xlink:title=" ">
<polygon fill="#e0e0e0" stroke="#999999" points="419,-19 343,-19 343,0 419,0 419,-19"/>
<text text-anchor="middle" x="381" y="-7" font-family="Helvetica,sans-Serif" font-size="10.00">QJsonObject</text>
</a>
</g>
</g>
<!-- Node3&#45;&gt;Node7 -->
<g id="edge22_Node000003_Node000007" class="edge">
<title>Node3&#45;&gt;Node7</title>
<g id="a_edge22_Node000003_Node000007"><a xlink:title=" ">
<path fill="none" stroke="#63b8ff" d="M414.86,-164.81C382.25,-143.11 299.73,-87.32 293,-74 280.76,-49.78 310.15,-32.72 338.19,-22.42"/>
<polygon fill="#63b8ff" stroke="#63b8ff" points="339.66,-25.61 347.99,-19.06 337.39,-18.99 339.66,-25.61"/>
</a>
</g>
</g>
<!-- Node3&#45;&gt;Node8 -->
<g id="edge24_Node000003_Node000008" class="edge">
<title>Node3&#45;&gt;Node8</title>
<g id="a_edge24_Node000003_Node000008"><a xlink:title=" ">
<path fill="none" stroke="#63b8ff" d="M430.85,-164.79C438.71,-142.28 463.04,-81.99 506,-55 549.05,-27.95 607.74,-17.32 645.26,-13.16"/>
<polygon fill="#63b8ff" stroke="#63b8ff" points="645.65,-16.64 655.25,-12.15 644.95,-9.67 645.65,-16.64"/>
</a>
</g>
</g>
<!-- Node9 -->
<g id="Node000009" class="node">
<title>Node9</title>
<g id="a_Node000009"><a xlink:title=" ">
<polygon fill="#e0e0e0" stroke="#999999" points="670.5,-74 599.5,-74 599.5,-55 670.5,-55 670.5,-74"/>
<text text-anchor="middle" x="635" y="-62" font-family="Helvetica,sans-Serif" font-size="10.00">QJsonArray</text>
</a>
</g>
</g>
<!-- Node3&#45;&gt;Node9 -->
<g id="edge21_Node000003_Node000009" class="edge">
<title>Node3&#45;&gt;Node9</title>
<g id="a_edge21_Node000003_Node000009"><a xlink:title=" ">
<path fill="none" stroke="#63b8ff" d="M473.44,-164.99C502.49,-158.2 540.17,-146.83 570,-129 590.63,-116.67 609.73,-96.52 621.81,-82.23"/>
<polygon fill="#63b8ff" stroke="#63b8ff" points="624.75,-84.16 628.38,-74.21 619.34,-79.73 624.75,-84.16"/>
</a>
</g>
</g>
<!-- Node3&#45;&gt;Node12 -->
<g id="edge14_Node000003_Node000012" class="edge">
<title>Node3&#45;&gt;Node12</title>
<g id="a_edge14_Node000003_Node000012"><a xlink:title=" ">
<path fill="none" stroke="#63b8ff" d="M470.58,-164.98C516.7,-155.76 590.36,-141.03 640.16,-131.07"/>
<polygon fill="#63b8ff" stroke="#63b8ff" points="640.97,-134.48 650.09,-129.08 639.6,-127.61 640.97,-134.48"/>
</a>
</g>
</g>
<!-- Node3&#45;&gt;Node14 -->
<g id="edge23_Node000003_Node000014" class="edge">
<title>Node3&#45;&gt;Node14</title>
<g id="a_edge23_Node000003_Node000014"><a xlink:title=" ">
<path fill="none" stroke="#63b8ff" d="M403.9,-164.98C379.12,-156.23 340.3,-142.51 312.31,-132.62"/>
<polygon fill="#63b8ff" stroke="#63b8ff" points="313.13,-129.2 302.54,-129.17 310.8,-135.8 313.13,-129.2"/>
</a>
</g>
</g>
<!-- Node4&#45;&gt;Node5 -->
<g id="edge4_Node000004_Node000005" class="edge">
<title>Node4&#45;&gt;Node5</title>
<g id="a_edge4_Node000004_Node000005"><a xlink:title=" ">
<path fill="none" stroke="#63b8ff" d="M488.17,-109.98C460.13,-101.09 415.95,-87.07 384.7,-77.15"/>
<polygon fill="#63b8ff" stroke="#63b8ff" points="385.63,-73.77 375.04,-74.08 383.51,-80.44 385.63,-73.77"/>
</a>
</g>
</g>
<!-- Node4&#45;&gt;Node7 -->
<g id="edge9_Node000004_Node000007" class="edge">
<title>Node4&#45;&gt;Node7</title>
<g id="a_edge9_Node000004_Node000007"><a xlink:title=" ">
<path fill="none" stroke="#63b8ff" d="M504.03,-109.66C481.15,-91.22 428.08,-48.45 399.7,-25.57"/>
<polygon fill="#63b8ff" stroke="#63b8ff" points="401.73,-22.71 391.74,-19.16 397.33,-28.16 401.73,-22.71"/>
</a>
</g>
</g>
<!-- Node4&#45;&gt;Node8 -->
<g id="edge12_Node000004_Node000008" class="edge">
<title>Node4&#45;&gt;Node8</title>
<g id="a_edge12_Node000004_Node000008"><a xlink:title=" ">
<path fill="none" stroke="#63b8ff" d="M512.28,-109.6C508.79,-96.2 504.54,-70.74 517,-55 532.81,-35.02 601.66,-21.82 645.27,-15.3"/>
<polygon fill="#63b8ff" stroke="#63b8ff" points="645.84,-18.75 655.24,-13.86 644.84,-11.82 645.84,-18.75"/>
</a>
</g>
</g>
<!-- Node4&#45;&gt;Node9 -->
<g id="edge8_Node000004_Node000009" class="edge">
<title>Node4&#45;&gt;Node9</title>
<g id="a_edge8_Node000004_Node000009"><a xlink:title=" ">
<path fill="none" stroke="#63b8ff" d="M534.28,-109.98C553.67,-101.42 583.81,-88.11 606.07,-78.28"/>
<polygon fill="#63b8ff" stroke="#63b8ff" points="607.64,-81.41 615.37,-74.17 604.81,-75.01 607.64,-81.41"/>
</a>
</g>
</g>
<!-- Node4&#45;&gt;Node10 -->
<g id="edge10_Node000004_Node000010" class="edge">
<title>Node4&#45;&gt;Node10</title>
<g id="a_edge10_Node000004_Node000010"><a xlink:title=" ">
<path fill="none" stroke="#63b8ff" d="M552.44,-109.98C598.31,-99.55 675.15,-82.07 717.57,-72.42"/>
<polygon fill="#63b8ff" stroke="#63b8ff" points="718.35,-75.84 727.32,-70.2 716.79,-69.01 718.35,-75.84"/>
</a>
</g>
</g>
<!-- Node11 -->
<g id="Node000011" class="node">
<title>Node11</title>
<g id="a_Node000011"><a xlink:title=" ">
<polygon fill="#e0e0e0" stroke="#999999" points="581.5,-74 526.5,-74 526.5,-55 581.5,-55 581.5,-74"/>
<text text-anchor="middle" x="554" y="-62" font-family="Helvetica,sans-Serif" font-size="10.00">QPointF</text>
</a>
</g>
</g>
<!-- Node4&#45;&gt;Node11 -->
<g id="edge11_Node000004_Node000011" class="edge">
<title>Node4&#45;&gt;Node11</title>
<g id="a_edge11_Node000004_Node000011"><a xlink:title=" ">
<path fill="none" stroke="#63b8ff" d="M521.44,-109.75C526.89,-102.34 534.86,-91.5 541.56,-82.41"/>
<polygon fill="#63b8ff" stroke="#63b8ff" points="544.57,-84.22 547.68,-74.09 538.93,-80.07 544.57,-84.22"/>
</a>
</g>
</g>
<!-- Node5&#45;&gt;Node6 -->
<g id="edge5_Node000005_Node000006" class="edge">
<title>Node5&#45;&gt;Node6</title>
<g id="a_edge5_Node000005_Node000006"><a xlink:title=" ">
<path fill="none" stroke="#63b8ff" d="M322.13,-54.98C295.22,-46.13 252.88,-32.19 222.77,-22.28"/>
<polygon fill="#63b8ff" stroke="#63b8ff" points="223.66,-18.88 213.07,-19.08 221.47,-25.53 223.66,-18.88"/>
</a>
</g>
</g>
<!-- Node5&#45;&gt;Node7 -->
<g id="edge6_Node000005_Node000007" class="edge">
<title>Node5&#45;&gt;Node7</title>
<g id="a_edge6_Node000005_Node000007"><a xlink:title=" ">
<path fill="none" stroke="#63b8ff" d="M353.45,-54.75C358.01,-47.42 364.67,-36.73 370.29,-27.7"/>
<polygon fill="#63b8ff" stroke="#63b8ff" points="373.34,-29.43 375.65,-19.09 367.4,-25.73 373.34,-29.43"/>
</a>
</g>
</g>
<!-- Node5&#45;&gt;Node8 -->
<g id="edge7_Node000005_Node000008" class="edge">
<title>Node5&#45;&gt;Node8</title>
<g id="a_edge7_Node000005_Node000008"><a xlink:title=" ">
<path fill="none" stroke="#63b8ff" d="M394.09,-56.19C461.08,-45.56 584.02,-26.05 645.28,-16.33"/>
<polygon fill="#63b8ff" stroke="#63b8ff" points="645.95,-19.77 655.27,-14.74 644.85,-12.85 645.95,-19.77"/>
</a>
</g>
</g>
<!-- Node12&#45;&gt;Node7 -->
<g id="edge16_Node000012_Node000007" class="edge">
<title>Node12&#45;&gt;Node7</title>
<g id="a_edge16_Node000012_Node000007"><a xlink:title=" ">
<path fill="none" stroke="#63b8ff" d="M693.9,-109.62C694.77,-95.78 694.18,-69.17 679,-55 643.71,-22.06 504.41,-13.49 429.41,-11.27"/>
<polygon fill="#63b8ff" stroke="#63b8ff" points="429.37,-7.76 419.28,-10.99 429.18,-14.76 429.37,-7.76"/>
</a>
</g>
</g>
<!-- Node12&#45;&gt;Node8 -->
<g id="edge20_Node000012_Node000008" class="edge">
<title>Node12&#45;&gt;Node8</title>
<g id="a_edge20_Node000012_Node000008"><a xlink:title=" ">
<path fill="none" stroke="#63b8ff" d="M736.17,-115.84C792.26,-110.73 879.51,-96.07 848,-55 832.36,-34.62 762.66,-21.52 718.69,-15.13"/>
<polygon fill="#63b8ff" stroke="#63b8ff" points="719.05,-11.65 708.66,-13.72 718.07,-18.58 719.05,-11.65"/>
</a>
</g>
</g>
<!-- Node12&#45;&gt;Node9 -->
<g id="edge15_Node000012_Node000009" class="edge">
<title>Node12&#45;&gt;Node9</title>
<g id="a_edge15_Node000012_Node000009"><a xlink:title=" ">
<path fill="none" stroke="#63b8ff" d="M683.68,-109.98C675.19,-102.23 662.44,-90.58 652.12,-81.14"/>
<polygon fill="#63b8ff" stroke="#63b8ff" points="654.23,-78.33 644.49,-74.17 649.51,-83.5 654.23,-78.33"/>
</a>
</g>
</g>
<!-- Node12&#45;&gt;Node10 -->
<g id="edge17_Node000012_Node000010" class="edge">
<title>Node12&#45;&gt;Node10</title>
<g id="a_edge17_Node000012_Node000010"><a xlink:title=" ">
<path fill="none" stroke="#63b8ff" d="M702.08,-109.75C710.09,-102.03 721.96,-90.6 731.62,-81.28"/>
<polygon fill="#63b8ff" stroke="#63b8ff" points="734.31,-83.55 739.09,-74.09 729.46,-78.51 734.31,-83.55"/>
</a>
</g>
</g>
<!-- Node12&#45;&gt;Node11 -->
<g id="edge18_Node000012_Node000011" class="edge">
<title>Node12&#45;&gt;Node11</title>
<g id="a_edge18_Node000012_Node000011"><a xlink:title=" ">
<path fill="none" stroke="#63b8ff" d="M670.67,-109.98C647.8,-101.27 612.04,-87.63 586.14,-77.75"/>
<polygon fill="#63b8ff" stroke="#63b8ff" points="587.33,-74.46 576.74,-74.17 584.84,-81 587.33,-74.46"/>
</a>
</g>
</g>
<!-- Node13 -->
<g id="Node000013" class="node">
<title>Node13</title>
<g id="a_Node000013"><a xlink:title=" ">
<polygon fill="#e0e0e0" stroke="#999999" points="839,-74 787,-74 787,-55 839,-55 839,-74"/>
<text text-anchor="middle" x="813" y="-62" font-family="Helvetica,sans-Serif" font-size="10.00">QRectF</text>
</a>
</g>
</g>
<!-- Node12&#45;&gt;Node13 -->
<g id="edge19_Node000012_Node000013" class="edge">
<title>Node12&#45;&gt;Node13</title>
<g id="a_edge19_Node000012_Node000013"><a xlink:title=" ">
<path fill="none" stroke="#63b8ff" d="M712.28,-109.98C731.67,-101.42 761.81,-88.11 784.07,-78.28"/>
<polygon fill="#63b8ff" stroke="#63b8ff" points="785.64,-81.41 793.37,-74.17 782.81,-75.01 785.64,-81.41"/>
</a>
</g>
</g>
</g>
</svg>
