<?xml version="1.0" encoding="UTF-8" standalone="no"?>
<!DOCTYPE svg PUBLIC "-//W3C//DTD SVG 1.1//EN"
 "http://www.w3.org/Graphics/SVG/1.1/DTD/svg11.dtd">
<!-- Generated by graphviz version 2.43.0 (0)
 -->
<!-- Title: services/export/Model3DExportStage.h Pages: 1 -->
<svg width="328pt" height="104pt"
 viewBox="0.00 0.00 327.50 104.00" xmlns="http://www.w3.org/2000/svg" xmlns:xlink="http://www.w3.org/1999/xlink">
<g id="graph0" class="graph" transform="scale(1 1) rotate(0) translate(4 100)">
<title>services/export/Model3DExportStage.h</title>
<!-- Node1 -->
<g id="Node000001" class="node">
<title>Node1</title>
<g id="a_Node000001"><a xlink:title=" ">
<polygon fill="#999999" stroke="#666666" points="254,-96 84,-96 84,-66 254,-66 254,-96"/>
<text text-anchor="start" x="92" y="-84" font-family="Helvetica,sans-Serif" font-size="10.00">services/export/Model3DExport</text>
<text text-anchor="middle" x="169" y="-73" font-family="Helvetica,sans-Serif" font-size="10.00">Stage.h</text>
</a>
</g>
</g>
<!-- Node2 -->
<g id="Node000002" class="node">
<title>Node2</title>
<g id="a_Node000002"><a xlink:href="Model3DExportStage_8cpp.html" target="_top" xlink:title=" ">
<polygon fill="white" stroke="#666666" points="170,-30 0,-30 0,0 170,0 170,-30"/>
<text text-anchor="start" x="8" y="-18" font-family="Helvetica,sans-Serif" font-size="10.00">services/export/Model3DExport</text>
<text text-anchor="middle" x="85" y="-7" font-family="Helvetica,sans-Serif" font-size="10.00">Stage.cpp</text>
</a>
</g>
</g>
<!-- Node1&#45;&gt;Node2 -->
<g id="edge1_Node000001_Node000002" class="edge">
<title>Node1&#45;&gt;Node2</title>
<g id="a_edge1_Node000001_Node000002"><a xlink:title=" ">
<path fill="none" stroke="#63b8ff" d="M142.06,-59.48C129.51,-49.91 114.89,-38.77 103.59,-30.16"/>
<polygon fill="#63b8ff" stroke="#63b8ff" points="140.28,-62.52 150.36,-65.8 144.52,-56.95 140.28,-62.52"/>
</a>
</g>
</g>
<!-- Node3 -->
<g id="Node000003" class="node">
<title>Node3</title>
<g id="a_Node000003"><a xlink:href="ParallelExportService_8cpp.html" target="_top" xlink:title=" ">
<polygon fill="white" stroke="#666666" points="319.5,-30 188.5,-30 188.5,0 319.5,0 319.5,-30"/>
<text text-anchor="start" x="196.5" y="-18" font-family="Helvetica,sans-Serif" font-size="10.00">services/export/Parallel</text>
<text text-anchor="middle" x="254" y="-7" font-family="Helvetica,sans-Serif" font-size="10.00">ExportService.cpp</text>
</a>
</g>
</g>
<!-- Node1&#45;&gt;Node3 -->
<g id="edge2_Node000001_Node000003" class="edge">
<title>Node1&#45;&gt;Node3</title>
<g id="a_edge2_Node000001_Node000003"><a xlink:title=" ">
<path fill="none" stroke="#63b8ff" d="M195.89,-59.75C208.67,-50.13 223.64,-38.86 235.19,-30.16"/>
<polygon fill="#63b8ff" stroke="#63b8ff" points="193.75,-56.99 187.86,-65.8 197.96,-62.58 193.75,-56.99"/>
</a>
</g>
</g>
</g>
</svg>
