<?xml version="1.0" encoding="UTF-8" standalone="no"?>
<!DOCTYPE svg PUBLIC "-//W3C//DTD SVG 1.1//EN"
 "http://www.w3.org/Graphics/SVG/1.1/DTD/svg11.dtd">
<!-- Generated by graphviz version 2.43.0 (0)
 -->
<!-- Title: core/utils/NetworkUtils.h Pages: 1 -->
<svg width="875pt" height="137pt"
 viewBox="0.00 0.00 874.50 137.00" xmlns="http://www.w3.org/2000/svg" xmlns:xlink="http://www.w3.org/1999/xlink">
<g id="graph0" class="graph" transform="scale(1 1) rotate(0) translate(4 133)">
<title>core/utils/NetworkUtils.h</title>
<!-- Node1 -->
<g id="Node000001" class="node">
<title>Node1</title>
<g id="a_Node000001"><a xlink:title=" ">
<polygon fill="#999999" stroke="#666666" points="513.5,-129 376.5,-129 376.5,-110 513.5,-110 513.5,-129"/>
<text text-anchor="middle" x="445" y="-117" font-family="Helvetica,sans-Serif" font-size="10.00">core/utils/NetworkUtils.h</text>
</a>
</g>
</g>
<!-- Node2 -->
<g id="Node000002" class="node">
<title>Node2</title>
<g id="a_Node000002"><a xlink:href="EasyedaApi_8cpp.html" target="_top" xlink:title=" ">
<polygon fill="white" stroke="#666666" points="162,-74 0,-74 0,-55 162,-55 162,-74"/>
<text text-anchor="middle" x="81" y="-62" font-family="Helvetica,sans-Serif" font-size="10.00">core/easyeda/EasyedaApi.cpp</text>
</a>
</g>
</g>
<!-- Node1&#45;&gt;Node2 -->
<g id="edge1_Node000001_Node000002" class="edge">
<title>Node1&#45;&gt;Node2</title>
<g id="a_edge1_Node000001_Node000002"><a xlink:title=" ">
<path fill="none" stroke="#63b8ff" d="M376.28,-108.49C307.94,-98.54 204.22,-83.44 139.64,-74.04"/>
<polygon fill="#63b8ff" stroke="#63b8ff" points="376.12,-112.01 386.52,-109.98 377.13,-105.08 376.12,-112.01"/>
</a>
</g>
</g>
<!-- Node3 -->
<g id="Node000003" class="node">
<title>Node3</title>
<g id="a_Node000003"><a xlink:href="JLCDatasheet_8h.html" target="_top" xlink:title=" ">
<polygon fill="white" stroke="#666666" points="339.5,-74 180.5,-74 180.5,-55 339.5,-55 339.5,-74"/>
<text text-anchor="middle" x="260" y="-62" font-family="Helvetica,sans-Serif" font-size="10.00">core/easyeda/JLCDatasheet.h</text>
</a>
</g>
</g>
<!-- Node1&#45;&gt;Node3 -->
<g id="edge2_Node000001_Node000003" class="edge">
<title>Node1&#45;&gt;Node3</title>
<g id="a_edge2_Node000001_Node000003"><a xlink:title=" ">
<path fill="none" stroke="#63b8ff" d="M405.5,-107.18C370.9,-97.27 321.37,-83.08 289.96,-74.08"/>
<polygon fill="#63b8ff" stroke="#63b8ff" points="404.7,-110.6 415.28,-109.98 406.63,-103.87 404.7,-110.6"/>
</a>
</g>
</g>
<!-- Node5 -->
<g id="Node000005" class="node">
<title>Node5</title>
<g id="a_Node000005"><a xlink:href="Exporter3DModel_8cpp.html" target="_top" xlink:title=" ">
<polygon fill="white" stroke="#666666" points="532.5,-74 357.5,-74 357.5,-55 532.5,-55 532.5,-74"/>
<text text-anchor="middle" x="445" y="-62" font-family="Helvetica,sans-Serif" font-size="10.00">core/kicad/Exporter3DModel.cpp</text>
</a>
</g>
</g>
<!-- Node1&#45;&gt;Node5 -->
<g id="edge4_Node000001_Node000005" class="edge">
<title>Node1&#45;&gt;Node5</title>
<g id="a_edge4_Node000001_Node000005"><a xlink:title=" ">
<path fill="none" stroke="#63b8ff" d="M445,-99.66C445,-90.93 445,-80.99 445,-74.09"/>
<polygon fill="#63b8ff" stroke="#63b8ff" points="441.5,-99.75 445,-109.75 448.5,-99.75 441.5,-99.75"/>
</a>
</g>
</g>
<!-- Node6 -->
<g id="Node000006" class="node">
<title>Node6</title>
<g id="a_Node000006"><a xlink:href="NetworkUtils_8cpp.html" target="_top" xlink:title=" ">
<polygon fill="white" stroke="#666666" points="699.5,-74 550.5,-74 550.5,-55 699.5,-55 699.5,-74"/>
<text text-anchor="middle" x="625" y="-62" font-family="Helvetica,sans-Serif" font-size="10.00">core/utils/NetworkUtils.cpp</text>
</a>
</g>
</g>
<!-- Node1&#45;&gt;Node6 -->
<g id="edge5_Node000001_Node000006" class="edge">
<title>Node1&#45;&gt;Node6</title>
<g id="a_edge5_Node000001_Node000006"><a xlink:title=" ">
<path fill="none" stroke="#63b8ff" d="M483.87,-107.06C517.51,-97.15 565.42,-83.04 595.85,-74.08"/>
<polygon fill="#63b8ff" stroke="#63b8ff" points="482.52,-103.8 473.92,-109.98 484.5,-110.52 482.52,-103.8"/>
</a>
</g>
</g>
<!-- Node7 -->
<g id="Node000007" class="node">
<title>Node7</title>
<g id="a_Node000007"><a xlink:href="ProcessWorker_8cpp.html" target="_top" xlink:title=" ">
<polygon fill="white" stroke="#666666" points="866.5,-74 717.5,-74 717.5,-55 866.5,-55 866.5,-74"/>
<text text-anchor="middle" x="792" y="-62" font-family="Helvetica,sans-Serif" font-size="10.00">workers/ProcessWorker.cpp</text>
</a>
</g>
</g>
<!-- Node1&#45;&gt;Node7 -->
<g id="edge6_Node000001_Node000007" class="edge">
<title>Node1&#45;&gt;Node7</title>
<g id="a_edge6_Node000001_Node000007"><a xlink:title=" ">
<path fill="none" stroke="#63b8ff" d="M510.91,-108.43C576.07,-98.48 674.66,-83.42 736.1,-74.04"/>
<polygon fill="#63b8ff" stroke="#63b8ff" points="510.11,-105.01 500.75,-109.98 511.17,-111.93 510.11,-105.01"/>
</a>
</g>
</g>
<!-- Node4 -->
<g id="Node000004" class="node">
<title>Node4</title>
<g id="a_Node000004"><a xlink:href="JLCDatasheet_8cpp.html" target="_top" xlink:title=" ">
<polygon fill="white" stroke="#666666" points="345,-19 175,-19 175,0 345,0 345,-19"/>
<text text-anchor="middle" x="260" y="-7" font-family="Helvetica,sans-Serif" font-size="10.00">core/easyeda/JLCDatasheet.cpp</text>
</a>
</g>
</g>
<!-- Node3&#45;&gt;Node4 -->
<g id="edge3_Node000003_Node000004" class="edge">
<title>Node3&#45;&gt;Node4</title>
<g id="a_edge3_Node000003_Node000004"><a xlink:title=" ">
<path fill="none" stroke="#63b8ff" d="M260,-44.66C260,-35.93 260,-25.99 260,-19.09"/>
<polygon fill="#63b8ff" stroke="#63b8ff" points="256.5,-44.75 260,-54.75 263.5,-44.75 256.5,-44.75"/>
</a>
</g>
</g>
</g>
</svg>
