<?xml version="1.0" encoding="UTF-8" standalone="no"?>
<!DOCTYPE svg PUBLIC "-//W3C//DTD SVG 1.1//EN"
 "http://www.w3.org/Graphics/SVG/1.1/DTD/svg11.dtd">
<!-- Generated by graphviz version 2.43.0 (0)
 -->
<!-- Title: core/network/NetworkClient.cpp Pages: 1 -->
<svg width="1506pt" height="247pt"
 viewBox="0.00 0.00 1506.00 247.00" xmlns="http://www.w3.org/2000/svg" xmlns:xlink="http://www.w3.org/1999/xlink">
<g id="graph0" class="graph" transform="scale(1 1) rotate(0) translate(4 243)">
<title>core/network/NetworkClient.cpp</title>
<!-- Node1 -->
<g id="Node000001" class="node">
<title>Node1</title>
<g id="a_Node000001"><a xlink:title=" ">
<polygon fill="#999999" stroke="#666666" points="944.5,-239 771.5,-239 771.5,-220 944.5,-220 944.5,-239"/>
<text text-anchor="middle" x="858" y="-227" font-family="Helvetica,sans-Serif" font-size="10.00">core/network/NetworkClient.cpp</text>
</a>
</g>
</g>
<!-- Node2 -->
<g id="Node000002" class="node">
<title>Node2</title>
<g id="a_Node000002"><a xlink:href="NetworkClient_8h.html" target="_top" xlink:title=" ">
<polygon fill="white" stroke="#666666" points="791.5,-184 696.5,-184 696.5,-165 791.5,-165 791.5,-184"/>
<text text-anchor="middle" x="744" y="-172" font-family="Helvetica,sans-Serif" font-size="10.00">NetworkClient.h</text>
</a>
</g>
</g>
<!-- Node1&#45;&gt;Node2 -->
<g id="edge1_Node000001_Node000002" class="edge">
<title>Node1&#45;&gt;Node2</title>
<g id="a_edge1_Node000001_Node000002"><a xlink:title=" ">
<path fill="none" stroke="#63b8ff" d="M839.68,-219.98C821.34,-211.46 792.89,-198.23 771.77,-188.41"/>
<polygon fill="#63b8ff" stroke="#63b8ff" points="773.19,-185.21 762.65,-184.17 770.24,-191.56 773.19,-185.21"/>
</a>
</g>
</g>
<!-- Node10 -->
<g id="Node000010" class="node">
<title>Node10</title>
<g id="a_Node000010"><a xlink:title=" ">
<polygon fill="#e0e0e0" stroke="#999999" points="359,-74 217,-74 217,-55 359,-55 359,-74"/>
<text text-anchor="middle" x="288" y="-62" font-family="Helvetica,sans-Serif" font-size="10.00">QNetworkAccessManager</text>
</a>
</g>
</g>
<!-- Node1&#45;&gt;Node10 -->
<g id="edge45_Node000001_Node000010" class="edge">
<title>Node1&#45;&gt;Node10</title>
<g id="a_edge45_Node000001_Node000010"><a xlink:title=" ">
<path fill="none" stroke="#63b8ff" d="M771.16,-226.52C652.62,-222.8 446.99,-212.35 378,-184 342.37,-169.36 333.24,-160.46 311,-129 301.48,-115.54 295.48,-97.7 292,-84.36"/>
<polygon fill="#63b8ff" stroke="#63b8ff" points="295.36,-83.34 289.66,-74.41 288.54,-84.95 295.36,-83.34"/>
</a>
</g>
</g>
<!-- Node11 -->
<g id="Node000011" class="node">
<title>Node11</title>
<g id="a_Node000011"><a xlink:title=" ">
<polygon fill="#e0e0e0" stroke="#999999" points="198.5,-74 105.5,-74 105.5,-55 198.5,-55 198.5,-74"/>
<text text-anchor="middle" x="152" y="-62" font-family="Helvetica,sans-Serif" font-size="10.00">QNetworkReply</text>
</a>
</g>
</g>
<!-- Node1&#45;&gt;Node11 -->
<g id="edge46_Node000001_Node000011" class="edge">
<title>Node1&#45;&gt;Node11</title>
<g id="a_edge46_Node000001_Node000011"><a xlink:title=" ">
<path fill="none" stroke="#63b8ff" d="M771.48,-226.05C645.14,-221.63 416.77,-210.22 339,-184 270.09,-160.77 200.89,-107.14 169.47,-80.74"/>
<polygon fill="#63b8ff" stroke="#63b8ff" points="171.52,-77.89 161.64,-74.07 166.98,-83.22 171.52,-77.89"/>
</a>
</g>
</g>
<!-- Node15 -->
<g id="Node000015" class="node">
<title>Node15</title>
<g id="a_Node000015"><a xlink:title=" ">
<polygon fill="#e0e0e0" stroke="#999999" points="482.5,-74 377.5,-74 377.5,-55 482.5,-55 482.5,-74"/>
<text text-anchor="middle" x="430" y="-62" font-family="Helvetica,sans-Serif" font-size="10.00">QNetworkRequest</text>
</a>
</g>
</g>
<!-- Node1&#45;&gt;Node15 -->
<g id="edge47_Node000001_Node000015" class="edge">
<title>Node1&#45;&gt;Node15</title>
<g id="a_edge47_Node000001_Node000015"><a xlink:title=" ">
<path fill="none" stroke="#63b8ff" d="M771.44,-225.45C634.21,-218.6 376.42,-196.82 320,-129 299.22,-104.03 338.79,-86.76 376.13,-76.61"/>
<polygon fill="#63b8ff" stroke="#63b8ff" points="377.24,-79.94 386.05,-74.06 375.49,-73.16 377.24,-79.94"/>
</a>
</g>
</g>
<!-- Node18 -->
<g id="Node000018" class="node">
<title>Node18</title>
<g id="a_Node000018"><a xlink:title=" ">
<polygon fill="#e0e0e0" stroke="#999999" points="1345.5,-74 1292.5,-74 1292.5,-55 1345.5,-55 1345.5,-74"/>
<text text-anchor="middle" x="1319" y="-62" font-family="Helvetica,sans-Serif" font-size="10.00">QTimer</text>
</a>
</g>
</g>
<!-- Node1&#45;&gt;Node18 -->
<g id="edge49_Node000001_Node000018" class="edge">
<title>Node1&#45;&gt;Node18</title>
<g id="a_edge49_Node000001_Node000018"><a xlink:title=" ">
<path fill="none" stroke="#63b8ff" d="M855.26,-219.75C851.59,-206.09 847.02,-179.73 861,-165 916.66,-106.37 1146.83,-156.09 1223,-129 1253.26,-118.24 1283.36,-95.96 1301.57,-80.87"/>
<polygon fill="#63b8ff" stroke="#63b8ff" points="1304.16,-83.27 1309.51,-74.12 1299.62,-77.94 1304.16,-83.27"/>
</a>
</g>
</g>
<!-- Node26 -->
<g id="Node000026" class="node">
<title>Node26</title>
<g id="a_Node000026"><a xlink:href="GzipUtils_8h.html" target="_top" xlink:title=" ">
<polygon fill="white" stroke="#666666" points="1411,-129 1293,-129 1293,-110 1411,-110 1411,-129"/>
<text text-anchor="middle" x="1352" y="-117" font-family="Helvetica,sans-Serif" font-size="10.00">core/utils/GzipUtils.h</text>
</a>
</g>
</g>
<!-- Node1&#45;&gt;Node26 -->
<g id="edge34_Node000001_Node000026" class="edge">
<title>Node1&#45;&gt;Node26</title>
<g id="a_edge34_Node000001_Node000026"><a xlink:title=" ">
<path fill="none" stroke="#63b8ff" d="M857.77,-219.9C857.92,-205.94 860.45,-178.57 877,-165 878.94,-163.41 1151.26,-138.62 1282.64,-126.75"/>
<polygon fill="#63b8ff" stroke="#63b8ff" points="1282.97,-130.24 1292.62,-125.85 1282.34,-123.26 1282.97,-130.24"/>
</a>
</g>
</g>
<!-- Node27 -->
<g id="Node000027" class="node">
<title>Node27</title>
<g id="a_Node000027"><a xlink:href="UrlUtils_8h.html" target="_top" xlink:title=" ">
<polygon fill="white" stroke="#666666" points="110,-184 0,-184 0,-165 110,-165 110,-184"/>
<text text-anchor="middle" x="55" y="-172" font-family="Helvetica,sans-Serif" font-size="10.00">core/utils/UrlUtils.h</text>
</a>
</g>
</g>
<!-- Node1&#45;&gt;Node27 -->
<g id="edge36_Node000001_Node000027" class="edge">
<title>Node1&#45;&gt;Node27</title>
<g id="a_edge36_Node000001_Node000027"><a xlink:title=" ">
<path fill="none" stroke="#63b8ff" d="M771.45,-224.61C635.1,-218.17 362.02,-203.98 131,-184 127.52,-183.7 123.96,-183.37 120.36,-183.02"/>
<polygon fill="#63b8ff" stroke="#63b8ff" points="120.48,-179.52 110.18,-182 119.78,-186.48 120.48,-179.52"/>
</a>
</g>
</g>
<!-- Node29 -->
<g id="Node000029" class="node">
<title>Node29</title>
<g id="a_Node000029"><a xlink:title=" ">
<polygon fill="#e0e0e0" stroke="#999999" points="159,-129 89,-129 89,-110 159,-110 159,-129"/>
<text text-anchor="middle" x="124" y="-117" font-family="Helvetica,sans-Serif" font-size="10.00">QStringList</text>
</a>
</g>
</g>
<!-- Node1&#45;&gt;Node29 -->
<g id="edge48_Node000001_Node000029" class="edge">
<title>Node1&#45;&gt;Node29</title>
<g id="a_edge48_Node000001_Node000029"><a xlink:title=" ">
<path fill="none" stroke="#63b8ff" d="M771.25,-226.83C598.7,-222.95 224.55,-211.44 173,-184 154.42,-174.11 140.7,-153.77 132.58,-138.76"/>
<polygon fill="#63b8ff" stroke="#63b8ff" points="135.49,-136.76 127.86,-129.42 129.25,-139.92 135.49,-136.76"/>
</a>
</g>
</g>
<!-- Node30 -->
<g id="Node000030" class="node">
<title>Node30</title>
<g id="a_Node000030"><a xlink:title=" ">
<polygon fill="#e0e0e0" stroke="#999999" points="987.5,-184 886.5,-184 886.5,-165 987.5,-165 987.5,-184"/>
<text text-anchor="middle" x="937" y="-172" font-family="Helvetica,sans-Serif" font-size="10.00">QCoreApplication</text>
</a>
</g>
</g>
<!-- Node1&#45;&gt;Node30 -->
<g id="edge40_Node000001_Node000030" class="edge">
<title>Node1&#45;&gt;Node30</title>
<g id="a_edge40_Node000001_Node000030"><a xlink:title=" ">
<path fill="none" stroke="#63b8ff" d="M870.69,-219.98C882.83,-211.84 901.36,-199.41 915.75,-189.76"/>
<polygon fill="#63b8ff" stroke="#63b8ff" points="917.72,-192.65 924.08,-184.17 913.82,-186.84 917.72,-192.65"/>
</a>
</g>
</g>
<!-- Node31 -->
<g id="Node000031" class="node">
<title>Node31</title>
<g id="a_Node000031"><a xlink:title=" ">
<polygon fill="#e0e0e0" stroke="#999999" points="1078,-184 1006,-184 1006,-165 1078,-165 1078,-184"/>
<text text-anchor="middle" x="1042" y="-172" font-family="Helvetica,sans-Serif" font-size="10.00">QDateTime</text>
</a>
</g>
</g>
<!-- Node1&#45;&gt;Node31 -->
<g id="edge41_Node000001_Node000031" class="edge">
<title>Node1&#45;&gt;Node31</title>
<g id="a_edge41_Node000001_Node000031"><a xlink:title=" ">
<path fill="none" stroke="#63b8ff" d="M887.56,-219.98C918.72,-211.01 967.97,-196.82 1002.46,-186.89"/>
<polygon fill="#63b8ff" stroke="#63b8ff" points="1003.57,-190.21 1012.21,-184.08 1001.63,-183.49 1003.57,-190.21"/>
</a>
</g>
</g>
<!-- Node32 -->
<g id="Node000032" class="node">
<title>Node32</title>
<g id="a_Node000032"><a xlink:title=" ">
<polygon fill="#e0e0e0" stroke="#999999" points="1152,-184 1096,-184 1096,-165 1152,-165 1152,-184"/>
<text text-anchor="middle" x="1124" y="-172" font-family="Helvetica,sans-Serif" font-size="10.00">QDebug</text>
</a>
</g>
</g>
<!-- Node1&#45;&gt;Node32 -->
<g id="edge42_Node000001_Node000032" class="edge">
<title>Node1&#45;&gt;Node32</title>
<g id="a_edge42_Node000001_Node000032"><a xlink:title=" ">
<path fill="none" stroke="#63b8ff" d="M904.58,-219.93C948.75,-211.69 1017.21,-198.65 1085.65,-184.23"/>
<polygon fill="#63b8ff" stroke="#63b8ff" points="1086.68,-187.59 1095.74,-182.1 1085.23,-180.74 1086.68,-187.59"/>
</a>
</g>
</g>
<!-- Node33 -->
<g id="Node000033" class="node">
<title>Node33</title>
<g id="a_Node000033"><a xlink:title=" ">
<polygon fill="#e0e0e0" stroke="#999999" points="1261.5,-184 1170.5,-184 1170.5,-165 1261.5,-165 1261.5,-184"/>
<text text-anchor="middle" x="1216" y="-172" font-family="Helvetica,sans-Serif" font-size="10.00">QElapsedTimer</text>
</a>
</g>
</g>
<!-- Node1&#45;&gt;Node33 -->
<g id="edge43_Node000001_Node000033" class="edge">
<title>Node1&#45;&gt;Node33</title>
<g id="a_edge43_Node000001_Node000033"><a xlink:title=" ">
<path fill="none" stroke="#63b8ff" d="M916.96,-219.98C975.88,-211.42 1069.36,-197.78 1160.44,-184.07"/>
<polygon fill="#63b8ff" stroke="#63b8ff" points="1161.02,-187.53 1170.39,-182.58 1159.98,-180.61 1161.02,-187.53"/>
</a>
</g>
</g>
<!-- Node34 -->
<g id="Node000034" class="node">
<title>Node34</title>
<g id="a_Node000034"><a xlink:title=" ">
<polygon fill="#e0e0e0" stroke="#999999" points="1360,-184 1280,-184 1280,-165 1360,-165 1360,-184"/>
<text text-anchor="middle" x="1320" y="-172" font-family="Helvetica,sans-Serif" font-size="10.00">QMetaObject</text>
</a>
</g>
</g>
<!-- Node1&#45;&gt;Node34 -->
<g id="edge44_Node000001_Node000034" class="edge">
<title>Node1&#45;&gt;Node34</title>
<g id="a_edge44_Node000001_Node000034"><a xlink:title=" ">
<path fill="none" stroke="#63b8ff" d="M944.6,-220.69C1028.1,-212.8 1157.94,-199.56 1270,-184 1270.1,-183.99 1270.2,-183.97 1270.3,-183.96"/>
<polygon fill="#63b8ff" stroke="#63b8ff" points="1270.54,-187.46 1279.92,-182.53 1269.51,-180.54 1270.54,-187.46"/>
</a>
</g>
</g>
<!-- Node35 -->
<g id="Node000035" class="node">
<title>Node35</title>
<g id="a_Node000035"><a xlink:title=" ">
<polygon fill="#e0e0e0" stroke="#999999" points="1422,-184 1378,-184 1378,-165 1422,-165 1422,-184"/>
<text text-anchor="middle" x="1400" y="-172" font-family="Helvetica,sans-Serif" font-size="10.00">limits</text>
</a>
</g>
</g>
<!-- Node1&#45;&gt;Node35 -->
<g id="edge50_Node000001_Node000035" class="edge">
<title>Node1&#45;&gt;Node35</title>
<g id="a_edge50_Node000001_Node000035"><a xlink:title=" ">
<path fill="none" stroke="#63b8ff" d="M944.52,-225.73C1044.46,-221.46 1213.83,-210.92 1367.65,-183.92"/>
<polygon fill="#63b8ff" stroke="#63b8ff" points="1368.53,-187.32 1377.76,-182.12 1367.3,-180.43 1368.53,-187.32"/>
</a>
</g>
</g>
<!-- Node36 -->
<g id="Node000036" class="node">
<title>Node36</title>
<g id="a_Node000036"><a xlink:title=" ">
<polygon fill="#e0e0e0" stroke="#999999" points="1498,-184 1440,-184 1440,-165 1498,-165 1498,-184"/>
<text text-anchor="middle" x="1469" y="-172" font-family="Helvetica,sans-Serif" font-size="10.00">memory</text>
</a>
</g>
</g>
<!-- Node1&#45;&gt;Node36 -->
<g id="edge51_Node000001_Node000036" class="edge">
<title>Node1&#45;&gt;Node36</title>
<g id="a_edge51_Node000001_Node000036"><a xlink:title=" ">
<path fill="none" stroke="#63b8ff" d="M944.83,-225.61C1055.37,-221.07 1252.32,-210.08 1429.59,-184"/>
<polygon fill="#63b8ff" stroke="#63b8ff" points="1430.24,-187.44 1439.62,-182.51 1429.21,-180.52 1430.24,-187.44"/>
</a>
</g>
</g>
<!-- Node3 -->
<g id="Node000003" class="node">
<title>Node3</title>
<g id="a_Node000003"><a xlink:href="AsyncNetworkRequest_8h.html" target="_top" xlink:title=" ">
<polygon fill="white" stroke="#666666" points="946,-129 810,-129 810,-110 946,-110 946,-129"/>
<text text-anchor="middle" x="878" y="-117" font-family="Helvetica,sans-Serif" font-size="10.00">AsyncNetworkRequest.h</text>
</a>
</g>
</g>
<!-- Node2&#45;&gt;Node3 -->
<g id="edge2_Node000002_Node000003" class="edge">
<title>Node2&#45;&gt;Node3</title>
<g id="a_edge2_Node000002_Node000003"><a xlink:title=" ">
<path fill="none" stroke="#63b8ff" d="M765.53,-164.98C787.47,-156.3 821.74,-142.75 846.69,-132.88"/>
<polygon fill="#63b8ff" stroke="#63b8ff" points="848.07,-136.1 856.08,-129.17 845.49,-129.59 848.07,-136.1"/>
</a>
</g>
</g>
<!-- Node4 -->
<g id="Node000004" class="node">
<title>Node4</title>
<g id="a_Node000004"><a xlink:href="INetworkClient_8h.html" target="_top" xlink:title=" ">
<polygon fill="white" stroke="#666666" points="665.5,-74 500.5,-74 500.5,-55 665.5,-55 665.5,-74"/>
<text text-anchor="middle" x="583" y="-62" font-family="Helvetica,sans-Serif" font-size="10.00">core/network/INetworkClient.h</text>
</a>
</g>
</g>
<!-- Node2&#45;&gt;Node4 -->
<g id="edge20_Node000002_Node000004" class="edge">
<title>Node2&#45;&gt;Node4</title>
<g id="a_edge20_Node000002_Node000004"><a xlink:title=" ">
<path fill="none" stroke="#63b8ff" d="M749.99,-164.72C758.22,-151.47 770.61,-126.22 758,-110 745.6,-94.05 701.34,-82.88 660.43,-75.72"/>
<polygon fill="#63b8ff" stroke="#63b8ff" points="660.84,-72.24 650.4,-74.03 659.68,-79.15 660.84,-72.24"/>
</a>
</g>
</g>
<!-- Node2&#45;&gt;Node11 -->
<g id="edge26_Node000002_Node000011" class="edge">
<title>Node2&#45;&gt;Node11</title>
<g id="a_edge26_Node000002_Node000011"><a xlink:title=" ">
<path fill="none" stroke="#63b8ff" d="M696.28,-172.47C617.08,-169.87 453.95,-160.78 320,-129 268.86,-116.87 212.23,-93.18 179.51,-78.42"/>
<polygon fill="#63b8ff" stroke="#63b8ff" points="180.71,-75.11 170.16,-74.14 177.8,-81.48 180.71,-75.11"/>
</a>
</g>
</g>
<!-- Node14 -->
<g id="Node000014" class="node">
<title>Node14</title>
<g id="a_Node000014"><a xlink:title=" ">
<polygon fill="#e0e0e0" stroke="#999999" points="1169.5,-74 1114.5,-74 1114.5,-55 1169.5,-55 1169.5,-74"/>
<text text-anchor="middle" x="1142" y="-62" font-family="Helvetica,sans-Serif" font-size="10.00">QMutex</text>
</a>
</g>
</g>
<!-- Node2&#45;&gt;Node14 -->
<g id="edge25_Node000002_Node000014" class="edge">
<title>Node2&#45;&gt;Node14</title>
<g id="a_edge25_Node000002_Node000014"><a xlink:title=" ">
<path fill="none" stroke="#63b8ff" d="M791.72,-166.65C854.66,-157.37 961.92,-140.62 1000,-129 1042.74,-115.95 1089.56,-93.24 1117.33,-78.81"/>
<polygon fill="#63b8ff" stroke="#63b8ff" points="1119.1,-81.83 1126.32,-74.08 1115.84,-75.64 1119.1,-81.83"/>
</a>
</g>
</g>
<!-- Node2&#45;&gt;Node15 -->
<g id="edge27_Node000002_Node000015" class="edge">
<title>Node2&#45;&gt;Node15</title>
<g id="a_edge27_Node000002_Node000015"><a xlink:title=" ">
<path fill="none" stroke="#63b8ff" d="M744.13,-164.55C743.81,-150.61 740.99,-123.88 725,-110 722.8,-108.09 578.43,-86.95 492.5,-74.51"/>
<polygon fill="#63b8ff" stroke="#63b8ff" points="492.98,-71.04 482.58,-73.07 491.98,-77.97 492.98,-71.04"/>
</a>
</g>
</g>
<!-- Node16 -->
<g id="Node000016" class="node">
<title>Node16</title>
<g id="a_Node000016"><a xlink:title=" ">
<polygon fill="#e0e0e0" stroke="#999999" points="965,-74 909,-74 909,-55 965,-55 965,-74"/>
<text text-anchor="middle" x="937" y="-62" font-family="Helvetica,sans-Serif" font-size="10.00">QObject</text>
</a>
</g>
</g>
<!-- Node2&#45;&gt;Node16 -->
<g id="edge28_Node000002_Node000016" class="edge">
<title>Node2&#45;&gt;Node16</title>
<g id="a_edge28_Node000002_Node000016"><a xlink:title=" ">
<path fill="none" stroke="#63b8ff" d="M791.67,-166.66C850.68,-157.71 944.73,-141.67 955,-129 965.67,-115.84 958.01,-96.7 949.63,-82.87"/>
<polygon fill="#63b8ff" stroke="#63b8ff" points="952.38,-80.69 943.94,-74.29 946.55,-84.56 952.38,-80.69"/>
</a>
</g>
</g>
<!-- Node17 -->
<g id="Node000017" class="node">
<title>Node17</title>
<g id="a_Node000017"><a xlink:title=" ">
<polygon fill="#e0e0e0" stroke="#999999" points="1096.5,-74 983.5,-74 983.5,-55 1096.5,-55 1096.5,-74"/>
<text text-anchor="middle" x="1040" y="-62" font-family="Helvetica,sans-Serif" font-size="10.00">QRandomGenerator</text>
</a>
</g>
</g>
<!-- Node2&#45;&gt;Node17 -->
<g id="edge31_Node000002_Node000017" class="edge">
<title>Node2&#45;&gt;Node17</title>
<g id="a_edge31_Node000002_Node000017"><a xlink:title=" ">
<path fill="none" stroke="#63b8ff" d="M791.72,-165.63C853.78,-155.18 956.15,-137.09 972,-129 994.37,-117.58 1014.65,-96.61 1027.13,-81.9"/>
<polygon fill="#63b8ff" stroke="#63b8ff" points="1029.9,-84.04 1033.53,-74.08 1024.49,-79.6 1029.9,-84.04"/>
</a>
</g>
</g>
<!-- Node19 -->
<g id="Node000019" class="node">
<title>Node19</title>
<g id="a_Node000019"><a xlink:href="TestableSingleton_8h.html" target="_top" xlink:title=" ">
<polygon fill="white" stroke="#666666" points="1214,-129 1078,-129 1078,-110 1214,-110 1214,-129"/>
<text text-anchor="middle" x="1146" y="-117" font-family="Helvetica,sans-Serif" font-size="10.00">utils/TestableSingleton.h</text>
</a>
</g>
</g>
<!-- Node2&#45;&gt;Node19 -->
<g id="edge21_Node000002_Node000019" class="edge">
<title>Node2&#45;&gt;Node19</title>
<g id="a_edge21_Node000002_Node000019"><a xlink:title=" ">
<path fill="none" stroke="#63b8ff" d="M791.72,-166.93C796.55,-166.27 801.37,-165.62 806,-165 896.5,-152.87 1000.6,-139.3 1069.52,-130.37"/>
<polygon fill="#63b8ff" stroke="#63b8ff" points="1070.38,-133.79 1079.85,-129.04 1069.48,-126.85 1070.38,-133.79"/>
</a>
</g>
</g>
<!-- Node21 -->
<g id="Node000021" class="node">
<title>Node21</title>
<g id="a_Node000021"><a xlink:title=" ">
<polygon fill="#e0e0e0" stroke="#999999" points="378.5,-129 329.5,-129 329.5,-110 378.5,-110 378.5,-129"/>
<text text-anchor="middle" x="354" y="-117" font-family="Helvetica,sans-Serif" font-size="10.00">QHash</text>
</a>
</g>
</g>
<!-- Node2&#45;&gt;Node21 -->
<g id="edge24_Node000002_Node000021" class="edge">
<title>Node2&#45;&gt;Node21</title>
<g id="a_edge24_Node000002_Node000021"><a xlink:title=" ">
<path fill="none" stroke="#63b8ff" d="M696.35,-169.52C629.56,-163.5 504.19,-150.66 388.85,-129.15"/>
<polygon fill="#63b8ff" stroke="#63b8ff" points="389.27,-125.67 378.79,-127.25 387.96,-132.55 389.27,-125.67"/>
</a>
</g>
</g>
<!-- Node22 -->
<g id="Node000022" class="node">
<title>Node22</title>
<g id="a_Node000022"><a xlink:title=" ">
<polygon fill="#e0e0e0" stroke="#999999" points="455.5,-129 396.5,-129 396.5,-110 455.5,-110 455.5,-129"/>
<text text-anchor="middle" x="426" y="-117" font-family="Helvetica,sans-Serif" font-size="10.00">QPointer</text>
</a>
</g>
</g>
<!-- Node2&#45;&gt;Node22 -->
<g id="edge29_Node000002_Node000022" class="edge">
<title>Node2&#45;&gt;Node22</title>
<g id="a_edge29_Node000002_Node000022"><a xlink:title=" ">
<path fill="none" stroke="#63b8ff" d="M696.47,-166.75C642.89,-158.96 552.96,-145.33 465.83,-129.06"/>
<polygon fill="#63b8ff" stroke="#63b8ff" points="466.25,-125.58 455.78,-127.17 464.96,-132.46 466.25,-125.58"/>
</a>
</g>
</g>
<!-- Node23 -->
<g id="Node000023" class="node">
<title>Node23</title>
<g id="a_Node000023"><a xlink:title=" ">
<polygon fill="#e0e0e0" stroke="#999999" points="530,-129 474,-129 474,-110 530,-110 530,-129"/>
<text text-anchor="middle" x="502" y="-117" font-family="Helvetica,sans-Serif" font-size="10.00">QQueue</text>
</a>
</g>
</g>
<!-- Node2&#45;&gt;Node23 -->
<g id="edge30_Node000002_Node000023" class="edge">
<title>Node2&#45;&gt;Node23</title>
<g id="a_edge30_Node000002_Node000023"><a xlink:title=" ">
<path fill="none" stroke="#63b8ff" d="M703.9,-164.95C664.65,-156.54 602.9,-143.22 540.32,-129.28"/>
<polygon fill="#63b8ff" stroke="#63b8ff" points="540.8,-125.8 530.27,-127.03 539.27,-132.63 540.8,-125.8"/>
</a>
</g>
</g>
<!-- Node24 -->
<g id="Node000024" class="node">
<title>Node24</title>
<g id="a_Node000024"><a xlink:title=" ">
<polygon fill="#e0e0e0" stroke="#999999" points="606,-129 548,-129 548,-110 606,-110 606,-129"/>
<text text-anchor="middle" x="577" y="-117" font-family="Helvetica,sans-Serif" font-size="10.00">QThread</text>
</a>
</g>
</g>
<!-- Node2&#45;&gt;Node24 -->
<g id="edge32_Node000002_Node000024" class="edge">
<title>Node2&#45;&gt;Node24</title>
<g id="a_edge32_Node000002_Node000024"><a xlink:title=" ">
<path fill="none" stroke="#63b8ff" d="M717.17,-164.98C689.13,-156.09 644.95,-142.07 613.7,-132.15"/>
<polygon fill="#63b8ff" stroke="#63b8ff" points="614.63,-128.77 604.04,-129.08 612.51,-135.44 614.63,-128.77"/>
</a>
</g>
</g>
<!-- Node25 -->
<g id="Node000025" class="node">
<title>Node25</title>
<g id="a_Node000025"><a xlink:title=" ">
<polygon fill="#e0e0e0" stroke="#999999" points="716,-129 624,-129 624,-110 716,-110 716,-129"/>
<text text-anchor="middle" x="670" y="-117" font-family="Helvetica,sans-Serif" font-size="10.00">QWaitCondition</text>
</a>
</g>
</g>
<!-- Node2&#45;&gt;Node25 -->
<g id="edge33_Node000002_Node000025" class="edge">
<title>Node2&#45;&gt;Node25</title>
<g id="a_edge33_Node000002_Node000025"><a xlink:title=" ">
<path fill="none" stroke="#63b8ff" d="M732.11,-164.98C720.85,-156.92 703.71,-144.65 690.29,-135.03"/>
<polygon fill="#63b8ff" stroke="#63b8ff" points="692.27,-132.15 682.11,-129.17 688.2,-137.84 692.27,-132.15"/>
</a>
</g>
</g>
<!-- Node3&#45;&gt;Node4 -->
<g id="edge3_Node000003_Node000004" class="edge">
<title>Node3&#45;&gt;Node4</title>
<g id="a_edge3_Node000003_Node000004"><a xlink:title=" ">
<path fill="none" stroke="#63b8ff" d="M830.6,-109.98C778.93,-100.7 696.23,-85.84 640.79,-75.88"/>
<polygon fill="#63b8ff" stroke="#63b8ff" points="641.23,-72.41 630.77,-74.08 639.99,-79.3 641.23,-72.41"/>
</a>
</g>
</g>
<!-- Node5 -->
<g id="Node000005" class="node">
<title>Node5</title>
<g id="a_Node000005"><a xlink:title=" ">
<polygon fill="#e0e0e0" stroke="#999999" points="917.5,-19 844.5,-19 844.5,0 917.5,0 917.5,-19"/>
<text text-anchor="middle" x="881" y="-7" font-family="Helvetica,sans-Serif" font-size="10.00">QByteArray</text>
</a>
</g>
</g>
<!-- Node3&#45;&gt;Node5 -->
<g id="edge12_Node000003_Node000005" class="edge">
<title>Node3&#45;&gt;Node5</title>
<g id="a_edge12_Node000003_Node000005"><a xlink:title=" ">
<path fill="none" stroke="#63b8ff" d="M878.25,-109.66C878.73,-92.17 879.82,-52.8 880.48,-29.27"/>
<polygon fill="#63b8ff" stroke="#63b8ff" points="883.98,-29.25 880.76,-19.16 876.98,-29.06 883.98,-29.25"/>
</a>
</g>
</g>
<!-- Node7 -->
<g id="Node000007" class="node">
<title>Node7</title>
<g id="a_Node000007"><a xlink:title=" ">
<polygon fill="#e0e0e0" stroke="#999999" points="690,-19 652,-19 652,0 690,0 690,-19"/>
<text text-anchor="middle" x="671" y="-7" font-family="Helvetica,sans-Serif" font-size="10.00">QUrl</text>
</a>
</g>
</g>
<!-- Node3&#45;&gt;Node7 -->
<g id="edge19_Node000003_Node000007" class="edge">
<title>Node3&#45;&gt;Node7</title>
<g id="a_edge19_Node000003_Node000007"><a xlink:title=" ">
<path fill="none" stroke="#63b8ff" d="M809.79,-111.35C778.04,-105.35 741.15,-94.31 713,-74 697.13,-62.55 685.57,-43.1 678.64,-28.74"/>
<polygon fill="#63b8ff" stroke="#63b8ff" points="681.72,-27.05 674.42,-19.37 675.33,-29.92 681.72,-27.05"/>
</a>
</g>
</g>
<!-- Node3&#45;&gt;Node10 -->
<g id="edge9_Node000003_Node000010" class="edge">
<title>Node3&#45;&gt;Node10</title>
<g id="a_edge9_Node000003_Node000010"><a xlink:title=" ">
<path fill="none" stroke="#63b8ff" d="M809.91,-112.97C714.09,-105.09 533.72,-89.94 369.39,-74.12"/>
<polygon fill="#63b8ff" stroke="#63b8ff" points="369.38,-70.6 359.09,-73.12 368.71,-77.57 369.38,-70.6"/>
</a>
</g>
</g>
<!-- Node3&#45;&gt;Node11 -->
<g id="edge10_Node000003_Node000011" class="edge">
<title>Node3&#45;&gt;Node11</title>
<g id="a_edge10_Node000003_Node000011"><a xlink:title=" ">
<path fill="none" stroke="#63b8ff" d="M809.74,-114.7C667.21,-106.65 340.97,-87.58 209,-73.98"/>
<polygon fill="#63b8ff" stroke="#63b8ff" points="209.03,-70.47 198.71,-72.89 208.29,-77.43 209.03,-70.47"/>
</a>
</g>
</g>
<!-- Node12 -->
<g id="Node000012" class="node">
<title>Node12</title>
<g id="a_Node000012"><a xlink:title=" ">
<polygon fill="#e0e0e0" stroke="#999999" points="793.5,-74 722.5,-74 722.5,-55 793.5,-55 793.5,-74"/>
<text text-anchor="middle" x="758" y="-62" font-family="Helvetica,sans-Serif" font-size="10.00">QAtomicInt</text>
</a>
</g>
</g>
<!-- Node3&#45;&gt;Node12 -->
<g id="edge11_Node000003_Node000012" class="edge">
<title>Node3&#45;&gt;Node12</title>
<g id="a_edge11_Node000003_Node000012"><a xlink:title=" ">
<path fill="none" stroke="#63b8ff" d="M858.72,-109.98C839.33,-101.42 809.19,-88.11 786.93,-78.28"/>
<polygon fill="#63b8ff" stroke="#63b8ff" points="788.19,-75.01 777.63,-74.17 785.36,-81.41 788.19,-75.01"/>
</a>
</g>
</g>
<!-- Node13 -->
<g id="Node000013" class="node">
<title>Node13</title>
<g id="a_Node000013"><a xlink:title=" ">
<polygon fill="#e0e0e0" stroke="#999999" points="852.5,-74 811.5,-74 811.5,-55 852.5,-55 852.5,-74"/>
<text text-anchor="middle" x="832" y="-62" font-family="Helvetica,sans-Serif" font-size="10.00">QList</text>
</a>
</g>
</g>
<!-- Node3&#45;&gt;Node13 -->
<g id="edge13_Node000003_Node000013" class="edge">
<title>Node3&#45;&gt;Node13</title>
<g id="a_edge13_Node000003_Node000013"><a xlink:title=" ">
<path fill="none" stroke="#63b8ff" d="M870.4,-109.75C863.84,-102.18 854.18,-91.05 846.19,-81.84"/>
<polygon fill="#63b8ff" stroke="#63b8ff" points="848.65,-79.35 839.45,-74.09 843.37,-83.94 848.65,-79.35"/>
</a>
</g>
</g>
<!-- Node3&#45;&gt;Node14 -->
<g id="edge14_Node000003_Node000014" class="edge">
<title>Node3&#45;&gt;Node14</title>
<g id="a_edge14_Node000003_Node000014"><a xlink:title=" ">
<path fill="none" stroke="#63b8ff" d="M923.74,-109.98C967.5,-101.73 1035.59,-88.63 1104.04,-74.15"/>
<polygon fill="#63b8ff" stroke="#63b8ff" points="1105.09,-77.5 1114.14,-72 1103.63,-70.66 1105.09,-77.5"/>
</a>
</g>
</g>
<!-- Node3&#45;&gt;Node15 -->
<g id="edge15_Node000003_Node000015" class="edge">
<title>Node3&#45;&gt;Node15</title>
<g id="a_edge15_Node000003_Node000015"><a xlink:title=" ">
<path fill="none" stroke="#63b8ff" d="M809.78,-111.16C734.61,-102.95 609.85,-89 492.78,-74.2"/>
<polygon fill="#63b8ff" stroke="#63b8ff" points="492.92,-70.69 482.56,-72.91 492.04,-77.64 492.92,-70.69"/>
</a>
</g>
</g>
<!-- Node3&#45;&gt;Node16 -->
<g id="edge16_Node000003_Node000016" class="edge">
<title>Node3&#45;&gt;Node16</title>
<g id="a_edge16_Node000003_Node000016"><a xlink:title=" ">
<path fill="none" stroke="#63b8ff" d="M887.48,-109.98C896.2,-102.15 909.34,-90.34 919.9,-80.86"/>
<polygon fill="#63b8ff" stroke="#63b8ff" points="922.25,-83.46 927.35,-74.17 917.57,-78.25 922.25,-83.46"/>
</a>
</g>
</g>
<!-- Node3&#45;&gt;Node17 -->
<g id="edge17_Node000003_Node000017" class="edge">
<title>Node3&#45;&gt;Node17</title>
<g id="a_edge17_Node000003_Node000017"><a xlink:title=" ">
<path fill="none" stroke="#63b8ff" d="M904.03,-109.98C931.11,-101.13 973.71,-87.19 1004.01,-77.28"/>
<polygon fill="#63b8ff" stroke="#63b8ff" points="1005.35,-80.52 1013.77,-74.08 1003.18,-73.87 1005.35,-80.52"/>
</a>
</g>
</g>
<!-- Node3&#45;&gt;Node18 -->
<g id="edge18_Node000003_Node000018" class="edge">
<title>Node3&#45;&gt;Node18</title>
<g id="a_edge18_Node000003_Node000018"><a xlink:title=" ">
<path fill="none" stroke="#63b8ff" d="M946.07,-113.58C1024.71,-107.32 1158.1,-94.95 1282.27,-73.91"/>
<polygon fill="#63b8ff" stroke="#63b8ff" points="1283.07,-77.32 1292.34,-72.18 1281.89,-70.42 1283.07,-77.32"/>
</a>
</g>
</g>
<!-- Node4&#45;&gt;Node5 -->
<g id="edge4_Node000004_Node000005" class="edge">
<title>Node4&#45;&gt;Node5</title>
<g id="a_edge4_Node000004_Node000005"><a xlink:title=" ">
<path fill="none" stroke="#63b8ff" d="M630.88,-54.98C686.79,-45.04 778.68,-28.7 834.15,-18.83"/>
<polygon fill="#63b8ff" stroke="#63b8ff" points="834.83,-22.27 844.06,-17.07 833.61,-15.37 834.83,-22.27"/>
</a>
</g>
</g>
<!-- Node6 -->
<g id="Node000006" class="node">
<title>Node6</title>
<g id="a_Node000006"><a xlink:title=" ">
<polygon fill="#e0e0e0" stroke="#999999" points="257.5,-19 204.5,-19 204.5,0 257.5,0 257.5,-19"/>
<text text-anchor="middle" x="231" y="-7" font-family="Helvetica,sans-Serif" font-size="10.00">QString</text>
</a>
</g>
</g>
<!-- Node4&#45;&gt;Node6 -->
<g id="edge5_Node000004_Node000006" class="edge">
<title>Node4&#45;&gt;Node6</title>
<g id="a_edge5_Node000004_Node000006"><a xlink:title=" ">
<path fill="none" stroke="#63b8ff" d="M526.45,-54.98C453.7,-44.03 329.39,-25.31 267.81,-16.04"/>
<polygon fill="#63b8ff" stroke="#63b8ff" points="268.18,-12.56 257.77,-14.53 267.14,-19.48 268.18,-12.56"/>
</a>
</g>
</g>
<!-- Node4&#45;&gt;Node7 -->
<g id="edge6_Node000004_Node000007" class="edge">
<title>Node4&#45;&gt;Node7</title>
<g id="a_edge6_Node000004_Node000007"><a xlink:title=" ">
<path fill="none" stroke="#63b8ff" d="M597.14,-54.98C610.79,-46.77 631.69,-34.18 647.78,-24.49"/>
<polygon fill="#63b8ff" stroke="#63b8ff" points="649.84,-27.33 656.6,-19.17 646.23,-21.33 649.84,-27.33"/>
</a>
</g>
</g>
<!-- Node8 -->
<g id="Node000008" class="node">
<title>Node8</title>
<g id="a_Node000008"><a xlink:title=" ">
<polygon fill="#e0e0e0" stroke="#999999" points="621.5,-19 566.5,-19 566.5,0 621.5,0 621.5,-19"/>
<text text-anchor="middle" x="594" y="-7" font-family="Helvetica,sans-Serif" font-size="10.00">QVector</text>
</a>
</g>
</g>
<!-- Node4&#45;&gt;Node8 -->
<g id="edge7_Node000004_Node000008" class="edge">
<title>Node4&#45;&gt;Node8</title>
<g id="a_edge7_Node000004_Node000008"><a xlink:title=" ">
<path fill="none" stroke="#63b8ff" d="M584.82,-54.75C586.26,-47.8 588.32,-37.85 590.13,-29.13"/>
<polygon fill="#63b8ff" stroke="#63b8ff" points="593.61,-29.59 592.22,-19.09 586.76,-28.17 593.61,-29.59"/>
</a>
</g>
</g>
<!-- Node9 -->
<g id="Node000009" class="node">
<title>Node9</title>
<g id="a_Node000009"><a xlink:title=" ">
<polygon fill="#e0e0e0" stroke="#999999" points="548.5,-19 489.5,-19 489.5,0 548.5,0 548.5,-19"/>
<text text-anchor="middle" x="519" y="-7" font-family="Helvetica,sans-Serif" font-size="10.00">QtGlobal</text>
</a>
</g>
</g>
<!-- Node4&#45;&gt;Node9 -->
<g id="edge8_Node000004_Node000009" class="edge">
<title>Node4&#45;&gt;Node9</title>
<g id="a_edge8_Node000004_Node000009"><a xlink:title=" ">
<path fill="none" stroke="#63b8ff" d="M572.72,-54.98C563.16,-47.07 548.72,-35.11 537.22,-25.58"/>
<polygon fill="#63b8ff" stroke="#63b8ff" points="539.4,-22.85 529.47,-19.17 534.94,-28.24 539.4,-22.85"/>
</a>
</g>
</g>
<!-- Node19&#45;&gt;Node14 -->
<g id="edge22_Node000019_Node000014" class="edge">
<title>Node19&#45;&gt;Node14</title>
<g id="a_edge22_Node000019_Node000014"><a xlink:title=" ">
<path fill="none" stroke="#63b8ff" d="M1145.34,-109.75C1144.82,-102.8 1144.06,-92.85 1143.41,-84.13"/>
<polygon fill="#63b8ff" stroke="#63b8ff" points="1146.89,-83.8 1142.65,-74.09 1139.91,-84.32 1146.89,-83.8"/>
</a>
</g>
</g>
<!-- Node20 -->
<g id="Node000020" class="node">
<title>Node20</title>
<g id="a_Node000020"><a xlink:title=" ">
<polygon fill="#e0e0e0" stroke="#999999" points="1274,-74 1188,-74 1188,-55 1274,-55 1274,-74"/>
<text text-anchor="middle" x="1231" y="-62" font-family="Helvetica,sans-Serif" font-size="10.00">QMutexLocker</text>
</a>
</g>
</g>
<!-- Node19&#45;&gt;Node20 -->
<g id="edge23_Node000019_Node000020" class="edge">
<title>Node19&#45;&gt;Node20</title>
<g id="a_edge23_Node000019_Node000020"><a xlink:title=" ">
<path fill="none" stroke="#63b8ff" d="M1159.66,-109.98C1172.84,-101.77 1193.03,-89.18 1208.57,-79.49"/>
<polygon fill="#63b8ff" stroke="#63b8ff" points="1210.46,-82.43 1217.09,-74.17 1206.76,-76.49 1210.46,-82.43"/>
</a>
</g>
</g>
<!-- Node26&#45;&gt;Node5 -->
<g id="edge35_Node000026_Node000005" class="edge">
<title>Node26&#45;&gt;Node5</title>
<g id="a_edge35_Node000026_Node000005"><a xlink:title=" ">
<path fill="none" stroke="#63b8ff" d="M1355.63,-109.82C1360.65,-96.25 1367.66,-70.01 1354,-55 1325.67,-23.87 1041.78,-14.09 927.9,-11.41"/>
<polygon fill="#63b8ff" stroke="#63b8ff" points="927.82,-7.9 917.75,-11.18 927.66,-14.9 927.82,-7.9"/>
</a>
</g>
</g>
<!-- Node27&#45;&gt;Node6 -->
<g id="edge38_Node000027_Node000006" class="edge">
<title>Node27&#45;&gt;Node6</title>
<g id="a_edge38_Node000027_Node000006"><a xlink:title=" ">
<path fill="none" stroke="#63b8ff" d="M44.91,-164.91C31.9,-152.74 12.07,-129.76 22,-110 54.34,-45.67 143.77,-22.65 194.55,-14.63"/>
<polygon fill="#63b8ff" stroke="#63b8ff" points="195.08,-18.09 204.47,-13.17 194.06,-11.16 195.08,-18.09"/>
</a>
</g>
</g>
<!-- Node28 -->
<g id="Node000028" class="node">
<title>Node28</title>
<g id="a_Node000028"><a xlink:title=" ">
<polygon fill="#e0e0e0" stroke="#999999" points="71,-129 31,-129 31,-110 71,-110 71,-129"/>
<text text-anchor="middle" x="51" y="-117" font-family="Helvetica,sans-Serif" font-size="10.00">QSet</text>
</a>
</g>
</g>
<!-- Node27&#45;&gt;Node28 -->
<g id="edge37_Node000027_Node000028" class="edge">
<title>Node27&#45;&gt;Node28</title>
<g id="a_edge37_Node000027_Node000028"><a xlink:title=" ">
<path fill="none" stroke="#63b8ff" d="M54.34,-164.75C53.82,-157.8 53.06,-147.85 52.41,-139.13"/>
<polygon fill="#63b8ff" stroke="#63b8ff" points="55.89,-138.8 51.65,-129.09 48.91,-139.32 55.89,-138.8"/>
</a>
</g>
</g>
<!-- Node27&#45;&gt;Node29 -->
<g id="edge39_Node000027_Node000029" class="edge">
<title>Node27&#45;&gt;Node29</title>
<g id="a_edge39_Node000027_Node000029"><a xlink:title=" ">
<path fill="none" stroke="#63b8ff" d="M66.09,-164.98C76.49,-157 92.26,-144.88 104.72,-135.31"/>
<polygon fill="#63b8ff" stroke="#63b8ff" points="106.91,-138.04 112.71,-129.17 102.65,-132.49 106.91,-138.04"/>
</a>
</g>
</g>
</g>
</svg>
