<?xml version="1.0" encoding="UTF-8" standalone="no"?>
<!DOCTYPE svg PUBLIC "-//W3C//DTD SVG 1.1//EN"
 "http://www.w3.org/Graphics/SVG/1.1/DTD/svg11.dtd">
<!-- Generated by graphviz version 2.43.0 (0)
 -->
<!-- Title: core/utils/NetworkUtils.cpp Pages: 1 -->
<svg width="944pt" height="192pt"
 viewBox="0.00 0.00 944.00 192.00" xmlns="http://www.w3.org/2000/svg" xmlns:xlink="http://www.w3.org/1999/xlink">
<g id="graph0" class="graph" transform="scale(1 1) rotate(0) translate(4 188)">
<title>core/utils/NetworkUtils.cpp</title>
<!-- Node1 -->
<g id="Node000001" class="node">
<title>Node1</title>
<g id="a_Node000001"><a xlink:title=" ">
<polygon fill="#999999" stroke="#666666" points="619,-184 470,-184 470,-165 619,-165 619,-184"/>
<text text-anchor="middle" x="544.5" y="-172" font-family="Helvetica,sans-Serif" font-size="10.00">core/utils/NetworkUtils.cpp</text>
</a>
</g>
</g>
<!-- Node2 -->
<g id="Node000002" class="node">
<title>Node2</title>
<g id="a_Node000002"><a xlink:href="NetworkUtils_8h.html" target="_top" xlink:title=" ">
<polygon fill="white" stroke="#666666" points="380,-129 291,-129 291,-110 380,-110 380,-129"/>
<text text-anchor="middle" x="335.5" y="-117" font-family="Helvetica,sans-Serif" font-size="10.00">NetworkUtils.h</text>
</a>
</g>
</g>
<!-- Node1&#45;&gt;Node2 -->
<g id="edge1_Node000001_Node000002" class="edge">
<title>Node1&#45;&gt;Node2</title>
<g id="a_edge1_Node000001_Node000002"><a xlink:title=" ">
<path fill="none" stroke="#63b8ff" d="M510.92,-164.98C475.15,-155.91 418.38,-141.52 379.16,-131.57"/>
<polygon fill="#63b8ff" stroke="#63b8ff" points="379.9,-128.15 369.34,-129.08 378.18,-134.93 379.9,-128.15"/>
</a>
</g>
</g>
<!-- Node4 -->
<g id="Node000004" class="node">
<title>Node4</title>
<g id="a_Node000004"><a xlink:title=" ">
<polygon fill="#e0e0e0" stroke="#999999" points="73,-19 0,-19 0,0 73,0 73,-19"/>
<text text-anchor="middle" x="36.5" y="-7" font-family="Helvetica,sans-Serif" font-size="10.00">QByteArray</text>
</a>
</g>
</g>
<!-- Node1&#45;&gt;Node4 -->
<g id="edge15_Node000001_Node000004" class="edge">
<title>Node1&#45;&gt;Node4</title>
<g id="a_edge15_Node000001_Node000004"><a xlink:title=" ">
<path fill="none" stroke="#63b8ff" d="M469.98,-169.92C343.14,-162.12 93.72,-138.74 39.5,-74 29.21,-61.72 29.63,-42.94 31.92,-28.99"/>
<polygon fill="#63b8ff" stroke="#63b8ff" points="35.37,-29.55 33.98,-19.05 28.52,-28.13 35.37,-29.55"/>
</a>
</g>
</g>
<!-- Node12 -->
<g id="Node000012" class="node">
<title>Node12</title>
<g id="a_Node000012"><a xlink:title=" ">
<polygon fill="#e0e0e0" stroke="#999999" points="451,-129 398,-129 398,-110 451,-110 451,-129"/>
<text text-anchor="middle" x="424.5" y="-117" font-family="Helvetica,sans-Serif" font-size="10.00">QBuffer</text>
</a>
</g>
</g>
<!-- Node1&#45;&gt;Node12 -->
<g id="edge14_Node000001_Node000012" class="edge">
<title>Node1&#45;&gt;Node12</title>
<g id="a_edge14_Node000001_Node000012"><a xlink:title=" ">
<path fill="none" stroke="#63b8ff" d="M525.22,-164.98C505.83,-156.42 475.69,-143.11 453.43,-133.28"/>
<polygon fill="#63b8ff" stroke="#63b8ff" points="454.69,-130.01 444.13,-129.17 451.86,-136.41 454.69,-130.01"/>
</a>
</g>
</g>
<!-- Node13 -->
<g id="Node000013" class="node">
<title>Node13</title>
<g id="a_Node000013"><a xlink:title=" ">
<polygon fill="#e0e0e0" stroke="#999999" points="525.5,-129 469.5,-129 469.5,-110 525.5,-110 525.5,-129"/>
<text text-anchor="middle" x="497.5" y="-117" font-family="Helvetica,sans-Serif" font-size="10.00">QDebug</text>
</a>
</g>
</g>
<!-- Node1&#45;&gt;Node13 -->
<g id="edge16_Node000001_Node000013" class="edge">
<title>Node1&#45;&gt;Node13</title>
<g id="a_edge16_Node000001_Node000013"><a xlink:title=" ">
<path fill="none" stroke="#63b8ff" d="M536.74,-164.75C530.03,-157.18 520.16,-146.05 511.99,-136.84"/>
<polygon fill="#63b8ff" stroke="#63b8ff" points="514.37,-134.25 505.12,-129.09 509.13,-138.89 514.37,-134.25"/>
</a>
</g>
</g>
<!-- Node14 -->
<g id="Node000014" class="node">
<title>Node14</title>
<g id="a_Node000014"><a xlink:title=" ">
<polygon fill="#e0e0e0" stroke="#999999" points="639,-129 544,-129 544,-110 639,-110 639,-129"/>
<text text-anchor="middle" x="591.5" y="-117" font-family="Helvetica,sans-Serif" font-size="10.00">QJsonDocument</text>
</a>
</g>
</g>
<!-- Node1&#45;&gt;Node14 -->
<g id="edge17_Node000001_Node000014" class="edge">
<title>Node1&#45;&gt;Node14</title>
<g id="a_edge17_Node000001_Node000014"><a xlink:title=" ">
<path fill="none" stroke="#63b8ff" d="M552.26,-164.75C558.97,-157.18 568.84,-146.05 577.01,-136.84"/>
<polygon fill="#63b8ff" stroke="#63b8ff" points="579.87,-138.89 583.88,-129.09 574.63,-134.25 579.87,-138.89"/>
</a>
</g>
</g>
<!-- Node15 -->
<g id="Node000015" class="node">
<title>Node15</title>
<g id="a_Node000015"><a xlink:title=" ">
<polygon fill="#e0e0e0" stroke="#999999" points="751.5,-129 657.5,-129 657.5,-110 751.5,-110 751.5,-129"/>
<text text-anchor="middle" x="704.5" y="-117" font-family="Helvetica,sans-Serif" font-size="10.00">QJsonParseError</text>
</a>
</g>
</g>
<!-- Node1&#45;&gt;Node15 -->
<g id="edge18_Node000001_Node000015" class="edge">
<title>Node1&#45;&gt;Node15</title>
<g id="a_edge18_Node000001_Node000015"><a xlink:title=" ">
<path fill="none" stroke="#63b8ff" d="M570.21,-164.98C596.95,-156.13 639.03,-142.19 668.95,-132.28"/>
<polygon fill="#63b8ff" stroke="#63b8ff" points="670.2,-135.55 678.59,-129.08 668,-128.9 670.2,-135.55"/>
</a>
</g>
</g>
<!-- Node16 -->
<g id="Node000016" class="node">
<title>Node16</title>
<g id="a_Node000016"><a xlink:title=" ">
<polygon fill="#e0e0e0" stroke="#999999" points="875,-129 770,-129 770,-110 875,-110 875,-129"/>
<text text-anchor="middle" x="822.5" y="-117" font-family="Helvetica,sans-Serif" font-size="10.00">QNetworkRequest</text>
</a>
</g>
</g>
<!-- Node1&#45;&gt;Node16 -->
<g id="edge19_Node000001_Node000016" class="edge">
<title>Node1&#45;&gt;Node16</title>
<g id="a_edge19_Node000001_Node000016"><a xlink:title=" ">
<path fill="none" stroke="#63b8ff" d="M589.17,-164.98C637.66,-155.74 715.15,-140.97 767.39,-131.01"/>
<polygon fill="#63b8ff" stroke="#63b8ff" points="768.32,-134.39 777.48,-129.08 767.01,-127.52 768.32,-134.39"/>
</a>
</g>
</g>
<!-- Node17 -->
<g id="Node000017" class="node">
<title>Node17</title>
<g id="a_Node000017"><a xlink:title=" ">
<polygon fill="#e0e0e0" stroke="#999999" points="936,-129 893,-129 893,-110 936,-110 936,-129"/>
<text text-anchor="middle" x="914.5" y="-117" font-family="Helvetica,sans-Serif" font-size="10.00">zlib.h</text>
</a>
</g>
</g>
<!-- Node1&#45;&gt;Node17 -->
<g id="edge20_Node000001_Node000017" class="edge">
<title>Node1&#45;&gt;Node17</title>
<g id="a_edge20_Node000001_Node000017"><a xlink:title=" ">
<path fill="none" stroke="#63b8ff" d="M619.31,-166.88C686.25,-160.23 787.15,-148.43 883.1,-129.03"/>
<polygon fill="#63b8ff" stroke="#63b8ff" points="883.87,-132.45 892.96,-127.01 882.46,-125.59 883.87,-132.45"/>
</a>
</g>
</g>
<!-- Node3 -->
<g id="Node000003" class="node">
<title>Node3</title>
<g id="a_Node000003"><a xlink:href="INetworkAdapter_8h.html" target="_top" xlink:title=" ">
<polygon fill="white" stroke="#666666" points="665,-74 510,-74 510,-55 665,-55 665,-74"/>
<text text-anchor="middle" x="587.5" y="-62" font-family="Helvetica,sans-Serif" font-size="10.00">core/utils/INetworkAdapter.h</text>
</a>
</g>
</g>
<!-- Node2&#45;&gt;Node3 -->
<g id="edge2_Node000002_Node000003" class="edge">
<title>Node2&#45;&gt;Node3</title>
<g id="a_edge2_Node000002_Node000003"><a xlink:title=" ">
<path fill="none" stroke="#63b8ff" d="M375.99,-109.98C419.67,-100.8 489.31,-86.15 536.65,-76.19"/>
<polygon fill="#63b8ff" stroke="#63b8ff" points="537.63,-79.57 546.69,-74.08 536.19,-72.72 537.63,-79.57"/>
</a>
</g>
</g>
<!-- Node2&#45;&gt;Node4 -->
<g id="edge7_Node000002_Node000004" class="edge">
<title>Node2&#45;&gt;Node4</title>
<g id="a_edge7_Node000002_Node000004"><a xlink:title=" ">
<path fill="none" stroke="#63b8ff" d="M290.74,-117.05C220.73,-113.87 89.76,-103.98 55.5,-74 42.93,-63 38.5,-44.05 37.03,-29.71"/>
<polygon fill="#63b8ff" stroke="#63b8ff" points="40.51,-29.19 36.38,-19.43 33.52,-29.64 40.51,-29.19"/>
</a>
</g>
</g>
<!-- Node5 -->
<g id="Node000005" class="node">
<title>Node5</title>
<g id="a_Node000005"><a xlink:title=" ">
<polygon fill="#e0e0e0" stroke="#999999" points="530.5,-19 454.5,-19 454.5,0 530.5,0 530.5,-19"/>
<text text-anchor="middle" x="492.5" y="-7" font-family="Helvetica,sans-Serif" font-size="10.00">QJsonObject</text>
</a>
</g>
</g>
<!-- Node2&#45;&gt;Node5 -->
<g id="edge8_Node000002_Node000005" class="edge">
<title>Node2&#45;&gt;Node5</title>
<g id="a_edge8_Node000002_Node000005"><a xlink:title=" ">
<path fill="none" stroke="#63b8ff" d="M380.06,-111.5C406.35,-105.4 438.81,-94.22 461.5,-74 474.93,-62.03 483.14,-42.94 487.71,-28.81"/>
<polygon fill="#63b8ff" stroke="#63b8ff" points="491.08,-29.76 490.52,-19.18 484.36,-27.8 491.08,-29.76"/>
</a>
</g>
</g>
<!-- Node6 -->
<g id="Node000006" class="node">
<title>Node6</title>
<g id="a_Node000006"><a xlink:title=" ">
<polygon fill="#e0e0e0" stroke="#999999" points="704.5,-19 648.5,-19 648.5,0 704.5,0 704.5,-19"/>
<text text-anchor="middle" x="676.5" y="-7" font-family="Helvetica,sans-Serif" font-size="10.00">QObject</text>
</a>
</g>
</g>
<!-- Node2&#45;&gt;Node6 -->
<g id="edge12_Node000002_Node000006" class="edge">
<title>Node2&#45;&gt;Node6</title>
<g id="a_edge12_Node000002_Node000006"><a xlink:title=" ">
<path fill="none" stroke="#63b8ff" d="M380.02,-111.25C382.89,-110.82 385.73,-110.4 388.5,-110 451.91,-100.93 631.38,-121.37 674.5,-74 685.28,-62.16 684.48,-43.32 681.76,-29.24"/>
<polygon fill="#63b8ff" stroke="#63b8ff" points="685.09,-28.09 679.36,-19.18 678.28,-29.72 685.09,-28.09"/>
</a>
</g>
</g>
<!-- Node8 -->
<g id="Node000008" class="node">
<title>Node8</title>
<g id="a_Node000008"><a xlink:title=" ">
<polygon fill="#e0e0e0" stroke="#999999" points="110,-74 65,-74 65,-55 110,-55 110,-74"/>
<text text-anchor="middle" x="87.5" y="-62" font-family="Helvetica,sans-Serif" font-size="10.00">QMap</text>
</a>
</g>
</g>
<!-- Node2&#45;&gt;Node8 -->
<g id="edge9_Node000002_Node000008" class="edge">
<title>Node2&#45;&gt;Node8</title>
<g id="a_edge9_Node000002_Node000008"><a xlink:title=" ">
<path fill="none" stroke="#63b8ff" d="M290.66,-110.03C249,-101.99 185.01,-89.2 120.17,-74.05"/>
<polygon fill="#63b8ff" stroke="#63b8ff" points="120.72,-70.58 110.19,-71.7 119.12,-77.39 120.72,-70.58"/>
</a>
</g>
</g>
<!-- Node9 -->
<g id="Node000009" class="node">
<title>Node9</title>
<g id="a_Node000009"><a xlink:title=" ">
<polygon fill="#e0e0e0" stroke="#999999" points="270.5,-74 128.5,-74 128.5,-55 270.5,-55 270.5,-74"/>
<text text-anchor="middle" x="199.5" y="-62" font-family="Helvetica,sans-Serif" font-size="10.00">QNetworkAccessManager</text>
</a>
</g>
</g>
<!-- Node2&#45;&gt;Node9 -->
<g id="edge10_Node000002_Node000009" class="edge">
<title>Node2&#45;&gt;Node9</title>
<g id="a_edge10_Node000002_Node000009"><a xlink:title=" ">
<path fill="none" stroke="#63b8ff" d="M313.65,-109.98C291.38,-101.3 256.6,-87.75 231.28,-77.88"/>
<polygon fill="#63b8ff" stroke="#63b8ff" points="232.34,-74.54 221.75,-74.17 229.79,-81.06 232.34,-74.54"/>
</a>
</g>
</g>
<!-- Node10 -->
<g id="Node000010" class="node">
<title>Node10</title>
<g id="a_Node000010"><a xlink:title=" ">
<polygon fill="#e0e0e0" stroke="#999999" points="382,-74 289,-74 289,-55 382,-55 382,-74"/>
<text text-anchor="middle" x="335.5" y="-62" font-family="Helvetica,sans-Serif" font-size="10.00">QNetworkReply</text>
</a>
</g>
</g>
<!-- Node2&#45;&gt;Node10 -->
<g id="edge11_Node000002_Node000010" class="edge">
<title>Node2&#45;&gt;Node10</title>
<g id="a_edge11_Node000002_Node000010"><a xlink:title=" ">
<path fill="none" stroke="#63b8ff" d="M335.5,-109.75C335.5,-102.8 335.5,-92.85 335.5,-84.13"/>
<polygon fill="#63b8ff" stroke="#63b8ff" points="339,-84.09 335.5,-74.09 332,-84.09 339,-84.09"/>
</a>
</g>
</g>
<!-- Node11 -->
<g id="Node000011" class="node">
<title>Node11</title>
<g id="a_Node000011"><a xlink:title=" ">
<polygon fill="#e0e0e0" stroke="#999999" points="453,-74 400,-74 400,-55 453,-55 453,-74"/>
<text text-anchor="middle" x="426.5" y="-62" font-family="Helvetica,sans-Serif" font-size="10.00">QTimer</text>
</a>
</g>
</g>
<!-- Node2&#45;&gt;Node11 -->
<g id="edge13_Node000002_Node000011" class="edge">
<title>Node2&#45;&gt;Node11</title>
<g id="a_edge13_Node000002_Node000011"><a xlink:title=" ">
<path fill="none" stroke="#63b8ff" d="M350.12,-109.98C364.36,-101.69 386.25,-88.94 402.95,-79.22"/>
<polygon fill="#63b8ff" stroke="#63b8ff" points="404.73,-82.23 411.61,-74.17 401.21,-76.18 404.73,-82.23"/>
</a>
</g>
</g>
<!-- Node3&#45;&gt;Node4 -->
<g id="edge3_Node000003_Node000004" class="edge">
<title>Node3&#45;&gt;Node4</title>
<g id="a_edge3_Node000003_Node000004"><a xlink:title=" ">
<path fill="none" stroke="#63b8ff" d="M509.72,-56.02C393.49,-44.84 178.03,-24.11 83.27,-15"/>
<polygon fill="#63b8ff" stroke="#63b8ff" points="83.43,-11.5 73.14,-14.02 82.76,-18.47 83.43,-11.5"/>
</a>
</g>
</g>
<!-- Node3&#45;&gt;Node5 -->
<g id="edge4_Node000003_Node000005" class="edge">
<title>Node3&#45;&gt;Node5</title>
<g id="a_edge4_Node000003_Node000005"><a xlink:title=" ">
<path fill="none" stroke="#63b8ff" d="M572.24,-54.98C557.37,-46.69 534.52,-33.94 517.08,-24.22"/>
<polygon fill="#63b8ff" stroke="#63b8ff" points="518.48,-20.99 508.04,-19.17 515.07,-27.1 518.48,-20.99"/>
</a>
</g>
</g>
<!-- Node3&#45;&gt;Node6 -->
<g id="edge5_Node000003_Node000006" class="edge">
<title>Node3&#45;&gt;Node6</title>
<g id="a_edge5_Node000003_Node000006"><a xlink:title=" ">
<path fill="none" stroke="#63b8ff" d="M601.8,-54.98C615.6,-46.77 636.74,-34.18 653.01,-24.49"/>
<polygon fill="#63b8ff" stroke="#63b8ff" points="655.14,-27.29 661.94,-19.17 651.56,-21.28 655.14,-27.29"/>
</a>
</g>
</g>
<!-- Node7 -->
<g id="Node000007" class="node">
<title>Node7</title>
<g id="a_Node000007"><a xlink:title=" ">
<polygon fill="#e0e0e0" stroke="#999999" points="614,-19 561,-19 561,0 614,0 614,-19"/>
<text text-anchor="middle" x="587.5" y="-7" font-family="Helvetica,sans-Serif" font-size="10.00">QString</text>
</a>
</g>
</g>
<!-- Node3&#45;&gt;Node7 -->
<g id="edge6_Node000003_Node000007" class="edge">
<title>Node3&#45;&gt;Node7</title>
<g id="a_edge6_Node000003_Node000007"><a xlink:title=" ">
<path fill="none" stroke="#63b8ff" d="M587.5,-54.75C587.5,-47.8 587.5,-37.85 587.5,-29.13"/>
<polygon fill="#63b8ff" stroke="#63b8ff" points="591,-29.09 587.5,-19.09 584,-29.09 591,-29.09"/>
</a>
</g>
</g>
</g>
</svg>
