<?xml version="1.0" encoding="UTF-8" standalone="no"?>
<!DOCTYPE svg PUBLIC "-//W3C//DTD SVG 1.1//EN"
 "http://www.w3.org/Graphics/SVG/1.1/DTD/svg11.dtd">
<!-- Generated by graphviz version 2.43.0 (0)
 -->
<!-- Title: workers/NetworkWorker.cpp Pages: 1 -->
<svg width="1956pt" height="258pt"
 viewBox="0.00 0.00 1955.50 258.00" xmlns="http://www.w3.org/2000/svg" xmlns:xlink="http://www.w3.org/1999/xlink">
<g id="graph0" class="graph" transform="scale(1 1) rotate(0) translate(4 254)">
<title>workers/NetworkWorker.cpp</title>
<!-- Node1 -->
<g id="Node000001" class="node">
<title>Node1</title>
<g id="a_Node000001"><a xlink:title=" ">
<polygon fill="#999999" stroke="#666666" points="1360,-250 1208,-250 1208,-231 1360,-231 1360,-250"/>
<text text-anchor="middle" x="1284" y="-238" font-family="Helvetica,sans-Serif" font-size="10.00">workers/NetworkWorker.cpp</text>
</a>
</g>
</g>
<!-- Node2 -->
<g id="Node000002" class="node">
<title>Node2</title>
<g id="a_Node000002"><a xlink:href="NetworkWorker_8h.html" target="_top" xlink:title=" ">
<polygon fill="white" stroke="#666666" points="451,-195 351,-195 351,-176 451,-176 451,-195"/>
<text text-anchor="middle" x="401" y="-183" font-family="Helvetica,sans-Serif" font-size="10.00">NetworkWorker.h</text>
</a>
</g>
</g>
<!-- Node1&#45;&gt;Node2 -->
<g id="edge1_Node000001_Node000002" class="edge">
<title>Node1&#45;&gt;Node2</title>
<g id="a_edge1_Node000001_Node000002"><a xlink:title=" ">
<path fill="none" stroke="#63b8ff" d="M1207.95,-234.94C1035.59,-224.59 618.04,-199.53 461.56,-190.14"/>
<polygon fill="#63b8ff" stroke="#63b8ff" points="461.39,-186.62 451.2,-189.51 460.97,-193.61 461.39,-186.62"/>
</a>
</g>
</g>
<!-- Node12 -->
<g id="Node000012" class="node">
<title>Node12</title>
<g id="a_Node000012"><a xlink:title=" ">
<polygon fill="#e0e0e0" stroke="#999999" points="439,-134.5 363,-134.5 363,-115.5 439,-115.5 439,-134.5"/>
<text text-anchor="middle" x="401" y="-122.5" font-family="Helvetica,sans-Serif" font-size="10.00">QJsonObject</text>
</a>
</g>
</g>
<!-- Node1&#45;&gt;Node12 -->
<g id="edge56_Node000001_Node000012" class="edge">
<title>Node1&#45;&gt;Node12</title>
<g id="a_edge56_Node000001_Node000012"><a xlink:title=" ">
<path fill="none" stroke="#63b8ff" d="M1207.95,-236.43C1059.3,-229.14 720.55,-206.11 444,-140 440.97,-139.27 437.84,-138.44 434.72,-137.54"/>
<polygon fill="#63b8ff" stroke="#63b8ff" points="435.5,-134.12 424.91,-134.54 433.45,-140.81 435.5,-134.12"/>
</a>
</g>
</g>
<!-- Node14 -->
<g id="Node000014" class="node">
<title>Node14</title>
<g id="a_Node000014"><a xlink:href="AsyncNetworkRequest_8h.html" target="_top" xlink:title=" ">
<polygon fill="white" stroke="#666666" points="649,-140 495,-140 495,-110 649,-110 649,-140"/>
<text text-anchor="start" x="503" y="-128" font-family="Helvetica,sans-Serif" font-size="10.00">core/network/AsyncNetwork</text>
<text text-anchor="middle" x="572" y="-117" font-family="Helvetica,sans-Serif" font-size="10.00">Request.h</text>
</a>
</g>
</g>
<!-- Node1&#45;&gt;Node14 -->
<g id="edge13_Node000001_Node000014" class="edge">
<title>Node1&#45;&gt;Node14</title>
<g id="a_edge13_Node000001_Node000014"><a xlink:title=" ">
<path fill="none" stroke="#63b8ff" d="M1207.78,-232.71C1130.28,-225.32 1006.88,-212.22 901,-195 810.46,-180.28 707.07,-157.62 640.75,-142.33"/>
<polygon fill="#63b8ff" stroke="#63b8ff" points="641.36,-138.88 630.83,-140.03 639.79,-145.7 641.36,-138.88"/>
</a>
</g>
</g>
<!-- Node17 -->
<g id="Node000017" class="node">
<title>Node17</title>
<g id="a_Node000017"><a xlink:title=" ">
<polygon fill="#e0e0e0" stroke="#999999" points="204.5,-74 133.5,-74 133.5,-55 204.5,-55 204.5,-74"/>
<text text-anchor="middle" x="169" y="-62" font-family="Helvetica,sans-Serif" font-size="10.00">QAtomicInt</text>
</a>
</g>
</g>
<!-- Node1&#45;&gt;Node17 -->
<g id="edge50_Node000001_Node000017" class="edge">
<title>Node1&#45;&gt;Node17</title>
<g id="a_edge50_Node000001_Node000017"><a xlink:title=" ">
<path fill="none" stroke="#63b8ff" d="M1207.98,-239.4C1014.3,-238.59 506.03,-232.8 342,-195 281.66,-181.09 260.69,-180.67 214,-140 196.24,-124.53 183.43,-100.28 176.12,-83.68"/>
<polygon fill="#63b8ff" stroke="#63b8ff" points="179.18,-81.93 172.11,-74.04 172.72,-84.62 179.18,-81.93"/>
</a>
</g>
</g>
<!-- Node22 -->
<g id="Node000022" class="node">
<title>Node22</title>
<g id="a_Node000022"><a xlink:href="NetworkClient_8h.html" target="_top" xlink:title=" ">
<polygon fill="white" stroke="#666666" points="1072,-195 910,-195 910,-176 1072,-176 1072,-195"/>
<text text-anchor="middle" x="991" y="-183" font-family="Helvetica,sans-Serif" font-size="10.00">core/network/NetworkClient.h</text>
</a>
</g>
</g>
<!-- Node1&#45;&gt;Node22 -->
<g id="edge26_Node000001_Node000022" class="edge">
<title>Node1&#45;&gt;Node22</title>
<g id="a_edge26_Node000001_Node000022"><a xlink:title=" ">
<path fill="none" stroke="#63b8ff" d="M1236.92,-230.98C1185.6,-221.7 1103.46,-206.84 1048.4,-196.88"/>
<polygon fill="#63b8ff" stroke="#63b8ff" points="1048.91,-193.42 1038.44,-195.08 1047.66,-200.31 1048.91,-193.42"/>
</a>
</g>
</g>
<!-- Node24 -->
<g id="Node000024" class="node">
<title>Node24</title>
<g id="a_Node000024"><a xlink:title=" ">
<polygon fill="#e0e0e0" stroke="#999999" points="1505,-74 1419,-74 1419,-55 1505,-55 1505,-74"/>
<text text-anchor="middle" x="1462" y="-62" font-family="Helvetica,sans-Serif" font-size="10.00">QMutexLocker</text>
</a>
</g>
</g>
<!-- Node1&#45;&gt;Node24 -->
<g id="edge57_Node000001_Node000024" class="edge">
<title>Node1&#45;&gt;Node24</title>
<g id="a_edge57_Node000001_Node000024"><a xlink:title=" ">
<path fill="none" stroke="#63b8ff" d="M1310.66,-230.97C1336.2,-222.57 1375.66,-209.01 1409,-195 1426.78,-187.53 1429.76,-182.26 1448,-176 1521.46,-150.8 1570.06,-200.31 1619,-140 1651.1,-100.44 1572.54,-80.65 1515.35,-71.77"/>
<polygon fill="#63b8ff" stroke="#63b8ff" points="1515.71,-68.28 1505.3,-70.28 1514.68,-75.21 1515.71,-68.28"/>
</a>
</g>
</g>
<!-- Node29 -->
<g id="Node000029" class="node">
<title>Node29</title>
<g id="a_Node000029"><a xlink:title=" ">
<polygon fill="#e0e0e0" stroke="#999999" points="1474,-134.5 1382,-134.5 1382,-115.5 1474,-115.5 1474,-134.5"/>
<text text-anchor="middle" x="1428" y="-122.5" font-family="Helvetica,sans-Serif" font-size="10.00">QWaitCondition</text>
</a>
</g>
</g>
<!-- Node1&#45;&gt;Node29 -->
<g id="edge58_Node000001_Node000029" class="edge">
<title>Node1&#45;&gt;Node29</title>
<g id="a_edge58_Node000001_Node000029"><a xlink:title=" ">
<path fill="none" stroke="#63b8ff" d="M1274.38,-230.64C1261.55,-217.75 1241.89,-193.44 1255,-176 1259.01,-170.67 1334.62,-150.21 1384.55,-137.17"/>
<polygon fill="#63b8ff" stroke="#63b8ff" points="1385.67,-140.49 1394.47,-134.59 1383.91,-133.72 1385.67,-140.49"/>
</a>
</g>
</g>
<!-- Node30 -->
<g id="Node000030" class="node">
<title>Node30</title>
<g id="a_Node000030"><a xlink:href="GzipUtils_8h.html" target="_top" xlink:title=" ">
<polygon fill="white" stroke="#666666" points="118,-195 0,-195 0,-176 118,-176 118,-195"/>
<text text-anchor="middle" x="59" y="-183" font-family="Helvetica,sans-Serif" font-size="10.00">core/utils/GzipUtils.h</text>
</a>
</g>
</g>
<!-- Node1&#45;&gt;Node30 -->
<g id="edge42_Node000001_Node000030" class="edge">
<title>Node1&#45;&gt;Node30</title>
<g id="a_edge42_Node000001_Node000030"><a xlink:title=" ">
<path fill="none" stroke="#63b8ff" d="M1207.9,-237.55C1026.87,-232.69 556.37,-218.67 164,-195 152.49,-194.31 140.29,-193.44 128.42,-192.52"/>
<polygon fill="#63b8ff" stroke="#63b8ff" points="128.35,-189.01 118.11,-191.71 127.81,-195.99 128.35,-189.01"/>
</a>
</g>
</g>
<!-- Node31 -->
<g id="Node000031" class="node">
<title>Node31</title>
<g id="a_Node000031"><a xlink:href="ConfigService_8h.html" target="_top" xlink:title=" ">
<polygon fill="white" stroke="#666666" points="1400,-195 1264,-195 1264,-176 1400,-176 1400,-195"/>
<text text-anchor="middle" x="1332" y="-183" font-family="Helvetica,sans-Serif" font-size="10.00">services/ConfigService.h</text>
</a>
</g>
</g>
<!-- Node1&#45;&gt;Node31 -->
<g id="edge44_Node000001_Node000031" class="edge">
<title>Node1&#45;&gt;Node31</title>
<g id="a_edge44_Node000001_Node000031"><a xlink:title=" ">
<path fill="none" stroke="#63b8ff" d="M1291.93,-230.75C1298.85,-223.11 1309.07,-211.82 1317.45,-202.56"/>
<polygon fill="#63b8ff" stroke="#63b8ff" points="1320.1,-204.85 1324.22,-195.09 1314.91,-200.15 1320.1,-204.85"/>
</a>
</g>
</g>
<!-- Node33 -->
<g id="Node000033" class="node">
<title>Node33</title>
<g id="a_Node000033"><a xlink:title=" ">
<polygon fill="#e0e0e0" stroke="#999999" points="1557.5,-195 1456.5,-195 1456.5,-176 1557.5,-176 1557.5,-195"/>
<text text-anchor="middle" x="1507" y="-183" font-family="Helvetica,sans-Serif" font-size="10.00">QCoreApplication</text>
</a>
</g>
</g>
<!-- Node1&#45;&gt;Node33 -->
<g id="edge51_Node000001_Node000033" class="edge">
<title>Node1&#45;&gt;Node33</title>
<g id="a_edge51_Node000001_Node000033"><a xlink:title=" ">
<path fill="none" stroke="#63b8ff" d="M1319.83,-230.98C1358.16,-221.87 1419.08,-207.4 1460.95,-197.45"/>
<polygon fill="#63b8ff" stroke="#63b8ff" points="1461.97,-200.8 1470.89,-195.08 1460.35,-193.99 1461.97,-200.8"/>
</a>
</g>
</g>
<!-- Node34 -->
<g id="Node000034" class="node">
<title>Node34</title>
<g id="a_Node000034"><a xlink:title=" ">
<polygon fill="#e0e0e0" stroke="#999999" points="1632,-195 1576,-195 1576,-176 1632,-176 1632,-195"/>
<text text-anchor="middle" x="1604" y="-183" font-family="Helvetica,sans-Serif" font-size="10.00">QDebug</text>
</a>
</g>
</g>
<!-- Node1&#45;&gt;Node34 -->
<g id="edge52_Node000001_Node000034" class="edge">
<title>Node1&#45;&gt;Node34</title>
<g id="a_edge52_Node000001_Node000034"><a xlink:title=" ">
<path fill="none" stroke="#63b8ff" d="M1346.33,-230.98C1401.57,-223.13 1484.63,-210.63 1565.87,-195.11"/>
<polygon fill="#63b8ff" stroke="#63b8ff" points="1566.6,-198.53 1575.76,-193.2 1565.28,-191.66 1566.6,-198.53"/>
</a>
</g>
</g>
<!-- Node35 -->
<g id="Node000035" class="node">
<title>Node35</title>
<g id="a_Node000035"><a xlink:title=" ">
<polygon fill="#e0e0e0" stroke="#999999" points="1741.5,-195 1650.5,-195 1650.5,-176 1741.5,-176 1741.5,-195"/>
<text text-anchor="middle" x="1696" y="-183" font-family="Helvetica,sans-Serif" font-size="10.00">QElapsedTimer</text>
</a>
</g>
</g>
<!-- Node1&#45;&gt;Node35 -->
<g id="edge53_Node000001_Node000035" class="edge">
<title>Node1&#45;&gt;Node35</title>
<g id="a_edge53_Node000001_Node000035"><a xlink:title=" ">
<path fill="none" stroke="#63b8ff" d="M1357.58,-230.97C1427.57,-222.7 1536.07,-209.52 1640.32,-195.06"/>
<polygon fill="#63b8ff" stroke="#63b8ff" points="1640.98,-198.5 1650.4,-193.65 1640.01,-191.57 1640.98,-198.5"/>
</a>
</g>
</g>
<!-- Node36 -->
<g id="Node000036" class="node">
<title>Node36</title>
<g id="a_Node000036"><a xlink:title=" ">
<polygon fill="#e0e0e0" stroke="#999999" points="1834.5,-195 1759.5,-195 1759.5,-176 1834.5,-176 1834.5,-195"/>
<text text-anchor="middle" x="1797" y="-183" font-family="Helvetica,sans-Serif" font-size="10.00">QEventLoop</text>
</a>
</g>
</g>
<!-- Node1&#45;&gt;Node36 -->
<g id="edge54_Node000001_Node000036" class="edge">
<title>Node1&#45;&gt;Node36</title>
<g id="a_edge54_Node000001_Node000036"><a xlink:title=" ">
<path fill="none" stroke="#63b8ff" d="M1360.27,-234.3C1450.76,-227.66 1606.37,-214.79 1749.13,-195.15"/>
<polygon fill="#63b8ff" stroke="#63b8ff" points="1749.97,-198.57 1759.39,-193.73 1749,-191.64 1749.97,-198.57"/>
</a>
</g>
</g>
<!-- Node37 -->
<g id="Node000037" class="node">
<title>Node37</title>
<g id="a_Node000037"><a xlink:title=" ">
<polygon fill="#e0e0e0" stroke="#999999" points="1947.5,-195 1852.5,-195 1852.5,-176 1947.5,-176 1947.5,-195"/>
<text text-anchor="middle" x="1900" y="-183" font-family="Helvetica,sans-Serif" font-size="10.00">QJsonDocument</text>
</a>
</g>
</g>
<!-- Node1&#45;&gt;Node37 -->
<g id="edge55_Node000001_Node000037" class="edge">
<title>Node1&#45;&gt;Node37</title>
<g id="a_edge55_Node000001_Node000037"><a xlink:title=" ">
<path fill="none" stroke="#63b8ff" d="M1360.25,-235.17C1466.17,-228.77 1664.03,-215.42 1842.28,-195.12"/>
<polygon fill="#63b8ff" stroke="#63b8ff" points="1842.84,-198.58 1852.37,-193.97 1842.04,-191.63 1842.84,-198.58"/>
</a>
</g>
</g>
<!-- Node3 -->
<g id="Node000003" class="node">
<title>Node3</title>
<g id="a_Node000003"><a xlink:href="BaseWorker_8h.html" target="_top" xlink:title=" ">
<polygon fill="white" stroke="#666666" points="306.5,-134.5 223.5,-134.5 223.5,-115.5 306.5,-115.5 306.5,-134.5"/>
<text text-anchor="middle" x="265" y="-122.5" font-family="Helvetica,sans-Serif" font-size="10.00">BaseWorker.h</text>
</a>
</g>
</g>
<!-- Node2&#45;&gt;Node3 -->
<g id="edge2_Node000002_Node000003" class="edge">
<title>Node2&#45;&gt;Node3</title>
<g id="a_edge2_Node000002_Node000003"><a xlink:title=" ">
<path fill="none" stroke="#63b8ff" d="M381.22,-175.99C358.36,-166.16 320.51,-149.88 294.24,-138.58"/>
<polygon fill="#63b8ff" stroke="#63b8ff" points="295.37,-135.25 284.8,-134.52 292.6,-141.68 295.37,-135.25"/>
</a>
</g>
</g>
<!-- Node6 -->
<g id="Node000006" class="node">
<title>Node6</title>
<g id="a_Node000006"><a xlink:href="INetworkClient_8h.html" target="_top" xlink:title=" ">
<polygon fill="white" stroke="#666666" points="426.5,-74 261.5,-74 261.5,-55 426.5,-55 426.5,-74"/>
<text text-anchor="middle" x="344" y="-62" font-family="Helvetica,sans-Serif" font-size="10.00">core/network/INetworkClient.h</text>
</a>
</g>
</g>
<!-- Node2&#45;&gt;Node6 -->
<g id="edge5_Node000002_Node000006" class="edge">
<title>Node2&#45;&gt;Node6</title>
<g id="a_edge5_Node000002_Node000006"><a xlink:title=" ">
<path fill="none" stroke="#63b8ff" d="M387.88,-175.96C376.89,-168.04 361.78,-155.2 354,-140 345.1,-122.61 343.19,-100.09 343.14,-84.38"/>
<polygon fill="#63b8ff" stroke="#63b8ff" points="346.64,-84.39 343.35,-74.32 339.64,-84.24 346.64,-84.39"/>
</a>
</g>
</g>
<!-- Node2&#45;&gt;Node12 -->
<g id="edge11_Node000002_Node000012" class="edge">
<title>Node2&#45;&gt;Node12</title>
<g id="a_edge11_Node000002_Node000012"><a xlink:title=" ">
<path fill="none" stroke="#63b8ff" d="M401,-175.87C401,-167.75 401,-155.31 401,-144.89"/>
<polygon fill="#63b8ff" stroke="#63b8ff" points="404.5,-144.67 401,-134.67 397.5,-144.67 404.5,-144.67"/>
</a>
</g>
</g>
<!-- Node13 -->
<g id="Node000013" class="node">
<title>Node13</title>
<g id="a_Node000013"><a xlink:title=" ">
<polygon fill="#e0e0e0" stroke="#999999" points="1268.5,-74 1213.5,-74 1213.5,-55 1268.5,-55 1268.5,-74"/>
<text text-anchor="middle" x="1241" y="-62" font-family="Helvetica,sans-Serif" font-size="10.00">QMutex</text>
</a>
</g>
</g>
<!-- Node2&#45;&gt;Node13 -->
<g id="edge12_Node000002_Node000013" class="edge">
<title>Node2&#45;&gt;Node13</title>
<g id="a_edge12_Node000002_Node000013"><a xlink:title=" ">
<path fill="none" stroke="#63b8ff" d="M451.47,-177.04C503.47,-169.06 586.75,-155.43 658,-140 709.62,-128.82 720.93,-118.89 773,-110 959.67,-78.12 1012.91,-103.33 1203.13,-74.08"/>
<polygon fill="#63b8ff" stroke="#63b8ff" points="1203.84,-77.51 1213.17,-72.5 1202.75,-70.59 1203.84,-77.51"/>
</a>
</g>
</g>
<!-- Node4 -->
<g id="Node000004" class="node">
<title>Node4</title>
<g id="a_Node000004"><a xlink:title=" ">
<polygon fill="#e0e0e0" stroke="#999999" points="1084,-74 1028,-74 1028,-55 1084,-55 1084,-74"/>
<text text-anchor="middle" x="1056" y="-62" font-family="Helvetica,sans-Serif" font-size="10.00">QObject</text>
</a>
</g>
</g>
<!-- Node3&#45;&gt;Node4 -->
<g id="edge3_Node000003_Node000004" class="edge">
<title>Node3&#45;&gt;Node4</title>
<g id="a_edge3_Node000003_Node000004"><a xlink:title=" ">
<path fill="none" stroke="#63b8ff" d="M306.54,-116.57C321.46,-114.14 338.44,-111.64 354,-110 645.05,-79.31 724.14,-114.48 1017.72,-73.91"/>
<polygon fill="#63b8ff" stroke="#63b8ff" points="1018.39,-77.35 1027.81,-72.5 1017.42,-70.42 1018.39,-77.35"/>
</a>
</g>
</g>
<!-- Node5 -->
<g id="Node000005" class="node">
<title>Node5</title>
<g id="a_Node000005"><a xlink:title=" ">
<polygon fill="#e0e0e0" stroke="#999999" points="115,-74 45,-74 45,-55 115,-55 115,-74"/>
<text text-anchor="middle" x="80" y="-62" font-family="Helvetica,sans-Serif" font-size="10.00">QRunnable</text>
</a>
</g>
</g>
<!-- Node3&#45;&gt;Node5 -->
<g id="edge4_Node000003_Node000005" class="edge">
<title>Node3&#45;&gt;Node5</title>
<g id="a_edge4_Node000003_Node000005"><a xlink:title=" ">
<path fill="none" stroke="#63b8ff" d="M238.1,-115.49C206.04,-105.36 152.32,-88.37 116.52,-77.05"/>
<polygon fill="#63b8ff" stroke="#63b8ff" points="117.52,-73.69 106.93,-74.02 115.41,-80.37 117.52,-73.69"/>
</a>
</g>
</g>
<!-- Node7 -->
<g id="Node000007" class="node">
<title>Node7</title>
<g id="a_Node000007"><a xlink:title=" ">
<polygon fill="#e0e0e0" stroke="#999999" points="269.5,-19 196.5,-19 196.5,0 269.5,0 269.5,-19"/>
<text text-anchor="middle" x="233" y="-7" font-family="Helvetica,sans-Serif" font-size="10.00">QByteArray</text>
</a>
</g>
</g>
<!-- Node6&#45;&gt;Node7 -->
<g id="edge6_Node000006_Node000007" class="edge">
<title>Node6&#45;&gt;Node7</title>
<g id="a_edge6_Node000006_Node000007"><a xlink:title=" ">
<path fill="none" stroke="#63b8ff" d="M326.17,-54.98C308.39,-46.5 280.85,-33.35 260.32,-23.54"/>
<polygon fill="#63b8ff" stroke="#63b8ff" points="261.69,-20.32 251.16,-19.17 258.67,-26.64 261.69,-20.32"/>
</a>
</g>
</g>
<!-- Node8 -->
<g id="Node000008" class="node">
<title>Node8</title>
<g id="a_Node000008"><a xlink:title=" ">
<polygon fill="#e0e0e0" stroke="#999999" points="1168.5,-19 1115.5,-19 1115.5,0 1168.5,0 1168.5,-19"/>
<text text-anchor="middle" x="1142" y="-7" font-family="Helvetica,sans-Serif" font-size="10.00">QString</text>
</a>
</g>
</g>
<!-- Node6&#45;&gt;Node8 -->
<g id="edge7_Node000006_Node000008" class="edge">
<title>Node6&#45;&gt;Node8</title>
<g id="a_edge7_Node000006_Node000008"><a xlink:title=" ">
<path fill="none" stroke="#63b8ff" d="M426.74,-55.74C429.87,-55.48 432.96,-55.24 436,-55 691.99,-35.11 1000.73,-18.03 1105.33,-12.43"/>
<polygon fill="#63b8ff" stroke="#63b8ff" points="1105.57,-15.92 1115.37,-11.9 1105.2,-8.93 1105.57,-15.92"/>
</a>
</g>
</g>
<!-- Node9 -->
<g id="Node000009" class="node">
<title>Node9</title>
<g id="a_Node000009"><a xlink:title=" ">
<polygon fill="#e0e0e0" stroke="#999999" points="627,-19 589,-19 589,0 627,0 627,-19"/>
<text text-anchor="middle" x="608" y="-7" font-family="Helvetica,sans-Serif" font-size="10.00">QUrl</text>
</a>
</g>
</g>
<!-- Node6&#45;&gt;Node9 -->
<g id="edge8_Node000006_Node000009" class="edge">
<title>Node6&#45;&gt;Node9</title>
<g id="a_edge8_Node000006_Node000009"><a xlink:title=" ">
<path fill="none" stroke="#63b8ff" d="M386.42,-54.98C440.37,-44.15 532.13,-25.73 578.83,-16.36"/>
<polygon fill="#63b8ff" stroke="#63b8ff" points="579.77,-19.74 588.88,-14.34 578.39,-12.87 579.77,-19.74"/>
</a>
</g>
</g>
<!-- Node10 -->
<g id="Node000010" class="node">
<title>Node10</title>
<g id="a_Node000010"><a xlink:title=" ">
<polygon fill="#e0e0e0" stroke="#999999" points="356.5,-19 301.5,-19 301.5,0 356.5,0 356.5,-19"/>
<text text-anchor="middle" x="329" y="-7" font-family="Helvetica,sans-Serif" font-size="10.00">QVector</text>
</a>
</g>
</g>
<!-- Node6&#45;&gt;Node10 -->
<g id="edge9_Node000006_Node000010" class="edge">
<title>Node6&#45;&gt;Node10</title>
<g id="a_edge9_Node000006_Node000010"><a xlink:title=" ">
<path fill="none" stroke="#63b8ff" d="M341.52,-54.75C339.54,-47.72 336.68,-37.62 334.19,-28.84"/>
<polygon fill="#63b8ff" stroke="#63b8ff" points="337.52,-27.76 331.43,-19.09 330.79,-29.66 337.52,-27.76"/>
</a>
</g>
</g>
<!-- Node11 -->
<g id="Node000011" class="node">
<title>Node11</title>
<g id="a_Node000011"><a xlink:title=" ">
<polygon fill="#e0e0e0" stroke="#999999" points="433.5,-19 374.5,-19 374.5,0 433.5,0 433.5,-19"/>
<text text-anchor="middle" x="404" y="-7" font-family="Helvetica,sans-Serif" font-size="10.00">QtGlobal</text>
</a>
</g>
</g>
<!-- Node6&#45;&gt;Node11 -->
<g id="edge10_Node000006_Node000011" class="edge">
<title>Node6&#45;&gt;Node11</title>
<g id="a_edge10_Node000006_Node000011"><a xlink:title=" ">
<path fill="none" stroke="#63b8ff" d="M353.64,-54.98C362.51,-47.15 375.87,-35.34 386.61,-25.86"/>
<polygon fill="#63b8ff" stroke="#63b8ff" points="389.01,-28.41 394.18,-19.17 384.37,-23.17 389.01,-28.41"/>
</a>
</g>
</g>
<!-- Node14&#45;&gt;Node4 -->
<g id="edge22_Node000014_Node000004" class="edge">
<title>Node14&#45;&gt;Node4</title>
<g id="a_edge22_Node000014_Node000004"><a xlink:title=" ">
<path fill="none" stroke="#63b8ff" d="M649.48,-115.57C762.77,-103.2 965.17,-80.99 1017.65,-73.84"/>
<polygon fill="#63b8ff" stroke="#63b8ff" points="1018.41,-77.27 1027.79,-72.33 1017.38,-70.34 1018.41,-77.27"/>
</a>
</g>
</g>
<!-- Node14&#45;&gt;Node6 -->
<g id="edge14_Node000014_Node000006" class="edge">
<title>Node14&#45;&gt;Node6</title>
<g id="a_edge14_Node000014_Node000006"><a xlink:title=" ">
<path fill="none" stroke="#63b8ff" d="M517.39,-109.99C477.53,-99.76 424.23,-86.09 387.3,-76.61"/>
<polygon fill="#63b8ff" stroke="#63b8ff" points="387.89,-73.15 377.34,-74.05 386.15,-79.93 387.89,-73.15"/>
</a>
</g>
</g>
<!-- Node14&#45;&gt;Node7 -->
<g id="edge18_Node000014_Node000007" class="edge">
<title>Node14&#45;&gt;Node7</title>
<g id="a_edge18_Node000014_Node000007"><a xlink:title=" ">
<path fill="none" stroke="#63b8ff" d="M494.99,-114.06C403.25,-101.9 261.14,-81.97 252,-74 239.41,-63.01 234.99,-44.07 233.52,-29.72"/>
<polygon fill="#63b8ff" stroke="#63b8ff" points="237,-29.2 232.88,-19.44 230.01,-29.64 237,-29.2"/>
</a>
</g>
</g>
<!-- Node14&#45;&gt;Node9 -->
<g id="edge25_Node000014_Node000009" class="edge">
<title>Node14&#45;&gt;Node9</title>
<g id="a_edge25_Node000014_Node000009"><a xlink:title=" ">
<path fill="none" stroke="#63b8ff" d="M641.07,-109.92C676.92,-101.05 715.42,-88.55 726,-74 751.03,-39.56 679.98,-21.91 637.42,-14.65"/>
<polygon fill="#63b8ff" stroke="#63b8ff" points="637.72,-11.15 627.29,-13.02 636.61,-18.06 637.72,-11.15"/>
</a>
</g>
</g>
<!-- Node14&#45;&gt;Node13 -->
<g id="edge20_Node000014_Node000013" class="edge">
<title>Node14&#45;&gt;Node13</title>
<g id="a_edge20_Node000014_Node000013"><a xlink:title=" ">
<path fill="none" stroke="#63b8ff" d="M649.04,-115.17C666.13,-113.34 684.17,-111.51 701,-110 921.39,-90.18 981.26,-107.39 1203.17,-74.06"/>
<polygon fill="#63b8ff" stroke="#63b8ff" points="1203.82,-77.5 1213.18,-72.53 1202.77,-70.58 1203.82,-77.5"/>
</a>
</g>
</g>
<!-- Node15 -->
<g id="Node000015" class="node">
<title>Node15</title>
<g id="a_Node000015"><a xlink:title=" ">
<polygon fill="#e0e0e0" stroke="#999999" points="717,-74 575,-74 575,-55 717,-55 717,-74"/>
<text text-anchor="middle" x="646" y="-62" font-family="Helvetica,sans-Serif" font-size="10.00">QNetworkAccessManager</text>
</a>
</g>
</g>
<!-- Node14&#45;&gt;Node15 -->
<g id="edge15_Node000014_Node000015" class="edge">
<title>Node14&#45;&gt;Node15</title>
<g id="a_edge15_Node000014_Node000015"><a xlink:title=" ">
<path fill="none" stroke="#63b8ff" d="M589.91,-109.84C601.09,-101 615.48,-89.63 626.88,-80.62"/>
<polygon fill="#63b8ff" stroke="#63b8ff" points="629.24,-83.21 634.91,-74.27 624.9,-77.72 629.24,-83.21"/>
</a>
</g>
</g>
<!-- Node16 -->
<g id="Node000016" class="node">
<title>Node16</title>
<g id="a_Node000016"><a xlink:title=" ">
<polygon fill="#e0e0e0" stroke="#999999" points="1195.5,-74 1102.5,-74 1102.5,-55 1195.5,-55 1195.5,-74"/>
<text text-anchor="middle" x="1149" y="-62" font-family="Helvetica,sans-Serif" font-size="10.00">QNetworkReply</text>
</a>
</g>
</g>
<!-- Node14&#45;&gt;Node16 -->
<g id="edge16_Node000014_Node000016" class="edge">
<title>Node14&#45;&gt;Node16</title>
<g id="a_edge16_Node000014_Node000016"><a xlink:title=" ">
<path fill="none" stroke="#63b8ff" d="M649.06,-115.43C666.16,-113.58 684.19,-111.68 701,-110 871.85,-92.88 917.64,-95.05 1092.24,-74.02"/>
<polygon fill="#63b8ff" stroke="#63b8ff" points="1092.77,-77.48 1102.28,-72.8 1091.93,-70.53 1092.77,-77.48"/>
</a>
</g>
</g>
<!-- Node14&#45;&gt;Node17 -->
<g id="edge17_Node000014_Node000017" class="edge">
<title>Node14&#45;&gt;Node17</title>
<g id="a_edge17_Node000014_Node000017"><a xlink:title=" ">
<path fill="none" stroke="#63b8ff" d="M494.78,-113.69C423.21,-103.98 313.8,-88.77 219,-74 217.7,-73.8 216.39,-73.59 215.06,-73.38"/>
<polygon fill="#63b8ff" stroke="#63b8ff" points="215.19,-69.85 204.76,-71.7 214.07,-76.76 215.19,-69.85"/>
</a>
</g>
</g>
<!-- Node18 -->
<g id="Node000018" class="node">
<title>Node18</title>
<g id="a_Node000018"><a xlink:title=" ">
<polygon fill="#e0e0e0" stroke="#999999" points="485.5,-74 444.5,-74 444.5,-55 485.5,-55 485.5,-74"/>
<text text-anchor="middle" x="465" y="-62" font-family="Helvetica,sans-Serif" font-size="10.00">QList</text>
</a>
</g>
</g>
<!-- Node14&#45;&gt;Node18 -->
<g id="edge19_Node000014_Node000018" class="edge">
<title>Node14&#45;&gt;Node18</title>
<g id="a_edge19_Node000014_Node000018"><a xlink:title=" ">
<path fill="none" stroke="#63b8ff" d="M546.37,-109.99C529.16,-100.58 506.6,-88.24 489.6,-78.95"/>
<polygon fill="#63b8ff" stroke="#63b8ff" points="491.25,-75.87 480.8,-74.14 487.9,-82.01 491.25,-75.87"/>
</a>
</g>
</g>
<!-- Node19 -->
<g id="Node000019" class="node">
<title>Node19</title>
<g id="a_Node000019"><a xlink:title=" ">
<polygon fill="#e0e0e0" stroke="#999999" points="878.5,-74 773.5,-74 773.5,-55 878.5,-55 878.5,-74"/>
<text text-anchor="middle" x="826" y="-62" font-family="Helvetica,sans-Serif" font-size="10.00">QNetworkRequest</text>
</a>
</g>
</g>
<!-- Node14&#45;&gt;Node19 -->
<g id="edge21_Node000014_Node000019" class="edge">
<title>Node14&#45;&gt;Node19</title>
<g id="a_edge21_Node000014_Node000019"><a xlink:title=" ">
<path fill="none" stroke="#63b8ff" d="M632.84,-109.99C677.72,-99.65 737.89,-85.79 779.08,-76.31"/>
<polygon fill="#63b8ff" stroke="#63b8ff" points="779.9,-79.71 788.86,-74.05 778.33,-72.89 779.9,-79.71"/>
</a>
</g>
</g>
<!-- Node20 -->
<g id="Node000020" class="node">
<title>Node20</title>
<g id="a_Node000020"><a xlink:title=" ">
<polygon fill="#e0e0e0" stroke="#999999" points="1009.5,-74 896.5,-74 896.5,-55 1009.5,-55 1009.5,-74"/>
<text text-anchor="middle" x="953" y="-62" font-family="Helvetica,sans-Serif" font-size="10.00">QRandomGenerator</text>
</a>
</g>
</g>
<!-- Node14&#45;&gt;Node20 -->
<g id="edge23_Node000014_Node000020" class="edge">
<title>Node14&#45;&gt;Node20</title>
<g id="a_edge23_Node000014_Node000020"><a xlink:title=" ">
<path fill="none" stroke="#63b8ff" d="M649.1,-112.16C719.21,-101.4 821.55,-85.68 887.71,-75.52"/>
<polygon fill="#63b8ff" stroke="#63b8ff" points="888.25,-78.98 897.61,-74.01 887.19,-72.06 888.25,-78.98"/>
</a>
</g>
</g>
<!-- Node21 -->
<g id="Node000021" class="node">
<title>Node21</title>
<g id="a_Node000021"><a xlink:title=" ">
<polygon fill="#e0e0e0" stroke="#999999" points="556.5,-74 503.5,-74 503.5,-55 556.5,-55 556.5,-74"/>
<text text-anchor="middle" x="530" y="-62" font-family="Helvetica,sans-Serif" font-size="10.00">QTimer</text>
</a>
</g>
</g>
<!-- Node14&#45;&gt;Node21 -->
<g id="edge24_Node000014_Node000021" class="edge">
<title>Node14&#45;&gt;Node21</title>
<g id="a_edge24_Node000014_Node000021"><a xlink:title=" ">
<path fill="none" stroke="#63b8ff" d="M561.83,-109.84C555.92,-101.61 548.44,-91.18 542.21,-82.51"/>
<polygon fill="#63b8ff" stroke="#63b8ff" points="544.97,-80.35 536.29,-74.27 539.28,-84.43 544.97,-80.35"/>
</a>
</g>
</g>
<!-- Node22&#45;&gt;Node4 -->
<g id="edge36_Node000022_Node000004" class="edge">
<title>Node22&#45;&gt;Node4</title>
<g id="a_edge36_Node000022_Node000004"><a xlink:title=" ">
<path fill="none" stroke="#63b8ff" d="M1019.39,-175.92C1036.46,-169.13 1056.81,-157.77 1067,-140 1076.92,-122.69 1071.11,-99.55 1064.79,-83.68"/>
<polygon fill="#63b8ff" stroke="#63b8ff" points="1067.96,-82.18 1060.73,-74.43 1061.55,-85 1067.96,-82.18"/>
</a>
</g>
</g>
<!-- Node22&#45;&gt;Node6 -->
<g id="edge28_Node000022_Node000006" class="edge">
<title>Node22&#45;&gt;Node6</title>
<g id="a_edge28_Node000022_Node000006"><a xlink:title=" ">
<path fill="none" stroke="#63b8ff" d="M909.99,-182.97C787.36,-179.72 560.95,-169.77 486,-140 466,-132.06 466.5,-120.99 448,-110 425.85,-96.83 399.08,-85.47 378.25,-77.53"/>
<polygon fill="#63b8ff" stroke="#63b8ff" points="379.43,-74.23 368.84,-74.01 376.99,-80.79 379.43,-74.23"/>
</a>
</g>
</g>
<!-- Node22&#45;&gt;Node13 -->
<g id="edge33_Node000022_Node000013" class="edge">
<title>Node22&#45;&gt;Node13</title>
<g id="a_edge33_Node000022_Node000013"><a xlink:title=" ">
<path fill="none" stroke="#63b8ff" d="M1018.45,-175.9C1043.34,-167.76 1080.79,-154.62 1112,-140 1151.04,-121.71 1193.94,-95.65 1219.11,-79.69"/>
<polygon fill="#63b8ff" stroke="#63b8ff" points="1221.31,-82.45 1227.85,-74.11 1217.54,-76.55 1221.31,-82.45"/>
</a>
</g>
</g>
<!-- Node22&#45;&gt;Node14 -->
<g id="edge27_Node000022_Node000014" class="edge">
<title>Node22&#45;&gt;Node14</title>
<g id="a_edge27_Node000022_Node000014"><a xlink:title=" ">
<path fill="none" stroke="#63b8ff" d="M925.61,-175.98C859.37,-167.26 754,-153.17 663,-140 661.89,-139.84 660.78,-139.68 659.66,-139.51"/>
<polygon fill="#63b8ff" stroke="#63b8ff" points="659.83,-136 649.43,-138.01 658.82,-142.93 659.83,-136"/>
</a>
</g>
</g>
<!-- Node22&#45;&gt;Node16 -->
<g id="edge34_Node000022_Node000016" class="edge">
<title>Node22&#45;&gt;Node16</title>
<g id="a_edge34_Node000022_Node000016"><a xlink:title=" ">
<path fill="none" stroke="#63b8ff" d="M1015.13,-175.89C1034.59,-168.25 1062.07,-155.85 1083,-140 1104.85,-123.45 1124.96,-98.81 1137.1,-82.45"/>
<polygon fill="#63b8ff" stroke="#63b8ff" points="1139.96,-84.48 1142.99,-74.33 1134.29,-80.37 1139.96,-84.48"/>
</a>
</g>
</g>
<!-- Node22&#45;&gt;Node19 -->
<g id="edge35_Node000022_Node000019" class="edge">
<title>Node22&#45;&gt;Node19</title>
<g id="a_edge35_Node000022_Node000019"><a xlink:title=" ">
<path fill="none" stroke="#63b8ff" d="M909.71,-179.44C851.66,-173.92 780.68,-162.66 762,-140 753.52,-129.71 755.82,-121.82 762,-110 769.11,-96.39 782.49,-86.1 795.19,-78.87"/>
<polygon fill="#63b8ff" stroke="#63b8ff" points="796.98,-81.88 804.21,-74.13 793.73,-75.68 796.98,-81.88"/>
</a>
</g>
</g>
<!-- Node22&#45;&gt;Node20 -->
<g id="edge39_Node000022_Node000020" class="edge">
<title>Node22&#45;&gt;Node20</title>
<g id="a_edge39_Node000022_Node000020"><a xlink:title=" ">
<path fill="none" stroke="#63b8ff" d="M909.84,-178.49C855.29,-172.57 790.31,-161.21 773,-140 764.57,-129.67 764.78,-120.5 773,-110 780.75,-100.1 846.08,-85.71 895.83,-76"/>
<polygon fill="#63b8ff" stroke="#63b8ff" points="896.71,-79.39 905.86,-74.06 895.38,-72.52 896.71,-79.39"/>
</a>
</g>
</g>
<!-- Node23 -->
<g id="Node000023" class="node">
<title>Node23</title>
<g id="a_Node000023"><a xlink:href="TestableSingleton_8h.html" target="_top" xlink:title=" ">
<polygon fill="white" stroke="#666666" points="1364,-134.5 1228,-134.5 1228,-115.5 1364,-115.5 1364,-134.5"/>
<text text-anchor="middle" x="1296" y="-122.5" font-family="Helvetica,sans-Serif" font-size="10.00">utils/TestableSingleton.h</text>
</a>
</g>
</g>
<!-- Node22&#45;&gt;Node23 -->
<g id="edge29_Node000022_Node000023" class="edge">
<title>Node22&#45;&gt;Node23</title>
<g id="a_edge29_Node000022_Node000023"><a xlink:title=" ">
<path fill="none" stroke="#63b8ff" d="M1035.35,-175.99C1090.01,-165.51 1182.87,-147.7 1241.74,-136.41"/>
<polygon fill="#63b8ff" stroke="#63b8ff" points="1242.44,-139.84 1251.6,-134.52 1241.12,-132.96 1242.44,-139.84"/>
</a>
</g>
</g>
<!-- Node25 -->
<g id="Node000025" class="node">
<title>Node25</title>
<g id="a_Node000025"><a xlink:title=" ">
<polygon fill="#e0e0e0" stroke="#999999" points="830.5,-134.5 781.5,-134.5 781.5,-115.5 830.5,-115.5 830.5,-134.5"/>
<text text-anchor="middle" x="806" y="-122.5" font-family="Helvetica,sans-Serif" font-size="10.00">QHash</text>
</a>
</g>
</g>
<!-- Node22&#45;&gt;Node25 -->
<g id="edge32_Node000022_Node000025" class="edge">
<title>Node22&#45;&gt;Node25</title>
<g id="a_edge32_Node000022_Node000025"><a xlink:title=" ">
<path fill="none" stroke="#63b8ff" d="M958.58,-176C927.79,-167.67 880.34,-154.21 840,-140 838.57,-139.5 837.11,-138.97 835.65,-138.42"/>
<polygon fill="#63b8ff" stroke="#63b8ff" points="836.59,-135.03 826,-134.64 834.04,-141.55 836.59,-135.03"/>
</a>
</g>
</g>
<!-- Node26 -->
<g id="Node000026" class="node">
<title>Node26</title>
<g id="a_Node000026"><a xlink:title=" ">
<polygon fill="#e0e0e0" stroke="#999999" points="907.5,-134.5 848.5,-134.5 848.5,-115.5 907.5,-115.5 907.5,-134.5"/>
<text text-anchor="middle" x="878" y="-122.5" font-family="Helvetica,sans-Serif" font-size="10.00">QPointer</text>
</a>
</g>
</g>
<!-- Node22&#45;&gt;Node26 -->
<g id="edge37_Node000022_Node000026" class="edge">
<title>Node22&#45;&gt;Node26</title>
<g id="a_edge37_Node000022_Node000026"><a xlink:title=" ">
<path fill="none" stroke="#63b8ff" d="M974.33,-175.87C955.72,-166.23 925.38,-150.53 903.72,-139.31"/>
<polygon fill="#63b8ff" stroke="#63b8ff" points="905.23,-136.16 894.74,-134.67 902.01,-142.37 905.23,-136.16"/>
</a>
</g>
</g>
<!-- Node27 -->
<g id="Node000027" class="node">
<title>Node27</title>
<g id="a_Node000027"><a xlink:title=" ">
<polygon fill="#e0e0e0" stroke="#999999" points="982,-134.5 926,-134.5 926,-115.5 982,-115.5 982,-134.5"/>
<text text-anchor="middle" x="954" y="-122.5" font-family="Helvetica,sans-Serif" font-size="10.00">QQueue</text>
</a>
</g>
</g>
<!-- Node22&#45;&gt;Node27 -->
<g id="edge38_Node000022_Node000027" class="edge">
<title>Node22&#45;&gt;Node27</title>
<g id="a_edge38_Node000022_Node000027"><a xlink:title=" ">
<path fill="none" stroke="#63b8ff" d="M985.54,-175.87C980.13,-167.31 971.69,-153.97 964.9,-143.24"/>
<polygon fill="#63b8ff" stroke="#63b8ff" points="967.79,-141.25 959.48,-134.67 961.87,-144.99 967.79,-141.25"/>
</a>
</g>
</g>
<!-- Node28 -->
<g id="Node000028" class="node">
<title>Node28</title>
<g id="a_Node000028"><a xlink:title=" ">
<polygon fill="#e0e0e0" stroke="#999999" points="1058,-134.5 1000,-134.5 1000,-115.5 1058,-115.5 1058,-134.5"/>
<text text-anchor="middle" x="1029" y="-122.5" font-family="Helvetica,sans-Serif" font-size="10.00">QThread</text>
</a>
</g>
</g>
<!-- Node22&#45;&gt;Node28 -->
<g id="edge40_Node000022_Node000028" class="edge">
<title>Node22&#45;&gt;Node28</title>
<g id="a_edge40_Node000022_Node000028"><a xlink:title=" ">
<path fill="none" stroke="#63b8ff" d="M996.61,-175.87C1002.16,-167.31 1010.83,-153.97 1017.8,-143.24"/>
<polygon fill="#63b8ff" stroke="#63b8ff" points="1020.86,-144.96 1023.37,-134.67 1014.99,-141.15 1020.86,-144.96"/>
</a>
</g>
</g>
<!-- Node22&#45;&gt;Node29 -->
<g id="edge41_Node000022_Node000029" class="edge">
<title>Node22&#45;&gt;Node29</title>
<g id="a_edge41_Node000022_Node000029"><a xlink:title=" ">
<path fill="none" stroke="#63b8ff" d="M1072.32,-178.19C1149.98,-171.42 1270.08,-159.01 1373,-140 1377.77,-139.12 1382.75,-138.06 1387.67,-136.92"/>
<polygon fill="#63b8ff" stroke="#63b8ff" points="1388.72,-140.26 1397.61,-134.5 1387.07,-133.46 1388.72,-140.26"/>
</a>
</g>
</g>
<!-- Node23&#45;&gt;Node13 -->
<g id="edge30_Node000023_Node000013" class="edge">
<title>Node23&#45;&gt;Node13</title>
<g id="a_edge30_Node000023_Node000013"><a xlink:title=" ">
<path fill="none" stroke="#63b8ff" d="M1287.88,-115.37C1279.6,-106.55 1266.53,-92.66 1256.3,-81.77"/>
<polygon fill="#63b8ff" stroke="#63b8ff" points="1258.55,-79.06 1249.15,-74.17 1253.45,-83.85 1258.55,-79.06"/>
</a>
</g>
</g>
<!-- Node23&#45;&gt;Node24 -->
<g id="edge31_Node000023_Node000024" class="edge">
<title>Node23&#45;&gt;Node24</title>
<g id="a_edge31_Node000023_Node000024"><a xlink:title=" ">
<path fill="none" stroke="#63b8ff" d="M1320.14,-115.49C1348.54,-105.49 1395.88,-88.8 1427.99,-77.49"/>
<polygon fill="#63b8ff" stroke="#63b8ff" points="1429.56,-80.64 1437.83,-74.02 1427.24,-74.04 1429.56,-80.64"/>
</a>
</g>
</g>
<!-- Node30&#45;&gt;Node7 -->
<g id="edge43_Node000030_Node000007" class="edge">
<title>Node30&#45;&gt;Node7</title>
<g id="a_edge43_Node000030_Node000007"><a xlink:title=" ">
<path fill="none" stroke="#63b8ff" d="M53.35,-175.81C39.42,-153.21 6.63,-91.74 36,-55 54.47,-31.89 134.19,-19.91 186.39,-14.43"/>
<polygon fill="#63b8ff" stroke="#63b8ff" points="186.83,-17.9 196.43,-13.42 186.13,-10.94 186.83,-17.9"/>
</a>
</g>
</g>
<!-- Node31&#45;&gt;Node4 -->
<g id="edge47_Node000031_Node000004" class="edge">
<title>Node31&#45;&gt;Node4</title>
<g id="a_edge47_Node000031_Node000004"><a xlink:title=" ">
<path fill="none" stroke="#63b8ff" d="M1309.34,-175.99C1286.43,-167.28 1250.05,-153.2 1219,-140 1170.73,-119.48 1115.36,-93.69 1083.16,-78.46"/>
<polygon fill="#63b8ff" stroke="#63b8ff" points="1084.49,-75.21 1073.95,-74.09 1081.49,-81.53 1084.49,-75.21"/>
</a>
</g>
</g>
<!-- Node31&#45;&gt;Node8 -->
<g id="edge48_Node000031_Node000008" class="edge">
<title>Node31&#45;&gt;Node8</title>
<g id="a_edge48_Node000031_Node000008"><a xlink:title=" ">
<path fill="none" stroke="#63b8ff" d="M1400.22,-178.55C1480.55,-170.85 1604.91,-156.44 1619,-140 1627.68,-129.88 1625.9,-121.41 1619,-110 1573.11,-34.15 1282.65,-15.81 1178.83,-11.65"/>
<polygon fill="#63b8ff" stroke="#63b8ff" points="1178.66,-8.14 1168.53,-11.26 1178.39,-15.13 1178.66,-8.14"/>
</a>
</g>
</g>
<!-- Node31&#45;&gt;Node12 -->
<g id="edge45_Node000031_Node000012" class="edge">
<title>Node31&#45;&gt;Node12</title>
<g id="a_edge45_Node000031_Node000012"><a xlink:title=" ">
<path fill="none" stroke="#63b8ff" d="M1263.76,-181.89C1090.42,-175.1 636.24,-156.27 486,-140 474.15,-138.72 461.45,-136.88 449.57,-134.95"/>
<polygon fill="#63b8ff" stroke="#63b8ff" points="449.82,-131.44 439.38,-133.25 448.67,-138.35 449.82,-131.44"/>
</a>
</g>
</g>
<!-- Node31&#45;&gt;Node13 -->
<g id="edge46_Node000031_Node000013" class="edge">
<title>Node31&#45;&gt;Node13</title>
<g id="a_edge46_Node000031_Node000013"><a xlink:title=" ">
<path fill="none" stroke="#63b8ff" d="M1392.91,-176C1446.88,-165.93 1512.84,-145.83 1483,-110 1457.48,-79.36 1340.47,-69.74 1278.99,-66.78"/>
<polygon fill="#63b8ff" stroke="#63b8ff" points="1279.05,-63.28 1268.91,-66.33 1278.74,-70.27 1279.05,-63.28"/>
</a>
</g>
</g>
<!-- Node32 -->
<g id="Node000032" class="node">
<title>Node32</title>
<g id="a_Node000032"><a xlink:title=" ">
<polygon fill="#e0e0e0" stroke="#999999" points="1610,-134.5 1530,-134.5 1530,-115.5 1610,-115.5 1610,-134.5"/>
<text text-anchor="middle" x="1570" y="-122.5" font-family="Helvetica,sans-Serif" font-size="10.00">QVariantMap</text>
</a>
</g>
</g>
<!-- Node31&#45;&gt;Node32 -->
<g id="edge49_Node000031_Node000032" class="edge">
<title>Node31&#45;&gt;Node32</title>
<g id="a_edge49_Node000031_Node000032"><a xlink:title=" ">
<path fill="none" stroke="#63b8ff" d="M1368.01,-175.98C1405.13,-167.14 1464.67,-152.86 1516,-140 1519.8,-139.05 1523.75,-138.05 1527.71,-137.04"/>
<polygon fill="#63b8ff" stroke="#63b8ff" points="1528.66,-140.41 1537.47,-134.53 1526.91,-133.63 1528.66,-140.41"/>
</a>
</g>
</g>
</g>
</svg>
