<?xml version="1.0" encoding="UTF-8" standalone="no"?>
<!DOCTYPE svg PUBLIC "-//W3C//DTD SVG 1.1//EN"
 "http://www.w3.org/Graphics/SVG/1.1/DTD/svg11.dtd">
<!-- Generated by graphviz version 2.43.0 (0)
 -->
<!-- Title: workers/NetworkWorker.cpp Pages: 1 -->
<svg width="1357pt" height="137pt"
 viewBox="0.00 0.00 1356.50 137.00" xmlns="http://www.w3.org/2000/svg" xmlns:xlink="http://www.w3.org/1999/xlink">
<g id="graph0" class="graph" transform="scale(1 1) rotate(0) translate(4 133)">
<title>workers/NetworkWorker.cpp</title>
<!-- Node1 -->
<g id="Node000001" class="node">
<title>Node1</title>
<g id="a_Node000001"><a xlink:title=" ">
<polygon fill="#999999" stroke="#666666" points="748,-129 596,-129 596,-110 748,-110 748,-129"/>
<text text-anchor="middle" x="672" y="-117" font-family="Helvetica,sans-Serif" font-size="10.00">workers/NetworkWorker.cpp</text>
</a>
</g>
</g>
<!-- Node2 -->
<g id="Node000002" class="node">
<title>Node2</title>
<g id="a_Node000002"><a xlink:href="NetworkWorker_8h.html" target="_top" xlink:title=" ">
<polygon fill="white" stroke="#666666" points="466,-74 366,-74 366,-55 466,-55 466,-74"/>
<text text-anchor="middle" x="416" y="-62" font-family="Helvetica,sans-Serif" font-size="10.00">NetworkWorker.h</text>
</a>
</g>
</g>
<!-- Node1&#45;&gt;Node2 -->
<g id="edge1_Node000001_Node000002" class="edge">
<title>Node1&#45;&gt;Node2</title>
<g id="a_edge1_Node000001_Node000002"><a xlink:title=" ">
<path fill="none" stroke="#63b8ff" d="M630.87,-109.98C586.4,-100.78 515.45,-86.09 467.35,-76.13"/>
<polygon fill="#63b8ff" stroke="#63b8ff" points="467.96,-72.68 457.45,-74.08 466.54,-79.54 467.96,-72.68"/>
</a>
</g>
</g>
<!-- Node3 -->
<g id="Node000003" class="node">
<title>Node3</title>
<g id="a_Node000003"><a xlink:title=" ">
<polygon fill="#e0e0e0" stroke="#999999" points="76,-19 0,-19 0,0 76,0 76,-19"/>
<text text-anchor="middle" x="38" y="-7" font-family="Helvetica,sans-Serif" font-size="10.00">QJsonObject</text>
</a>
</g>
</g>
<!-- Node1&#45;&gt;Node3 -->
<g id="edge19_Node000001_Node000003" class="edge">
<title>Node1&#45;&gt;Node3</title>
<g id="a_edge19_Node000001_Node000003"><a xlink:title=" ">
<path fill="none" stroke="#63b8ff" d="M595.83,-119.24C498.16,-118.46 324.32,-111.23 181,-74 137.02,-62.58 89.46,-38.97 61.78,-23.98"/>
<polygon fill="#63b8ff" stroke="#63b8ff" points="63.3,-20.82 52.85,-19.07 59.93,-26.96 63.3,-20.82"/>
</a>
</g>
</g>
<!-- Node5 -->
<g id="Node000005" class="node">
<title>Node5</title>
<g id="a_Node000005"><a xlink:title=" ">
<polygon fill="#e0e0e0" stroke="#999999" points="645.5,-19 552.5,-19 552.5,0 645.5,0 645.5,-19"/>
<text text-anchor="middle" x="599" y="-7" font-family="Helvetica,sans-Serif" font-size="10.00">QNetworkReply</text>
</a>
</g>
</g>
<!-- Node1&#45;&gt;Node5 -->
<g id="edge22_Node000001_Node000005" class="edge">
<title>Node1&#45;&gt;Node5</title>
<g id="a_edge22_Node000001_Node000005"><a xlink:title=" ">
<path fill="none" stroke="#63b8ff" d="M597.84,-109.95C575.98,-103.57 554.36,-92.65 541,-74 527.74,-55.5 550.84,-36.51 571.7,-24.18"/>
<polygon fill="#63b8ff" stroke="#63b8ff" points="573.66,-27.1 580.68,-19.17 570.25,-20.99 573.66,-27.1"/>
</a>
</g>
</g>
<!-- Node9 -->
<g id="Node000009" class="node">
<title>Node9</title>
<g id="a_Node000009"><a xlink:title=" ">
<polygon fill="#e0e0e0" stroke="#999999" points="716.5,-19 663.5,-19 663.5,0 716.5,0 716.5,-19"/>
<text text-anchor="middle" x="690" y="-7" font-family="Helvetica,sans-Serif" font-size="10.00">QTimer</text>
</a>
</g>
</g>
<!-- Node1&#45;&gt;Node9 -->
<g id="edge25_Node000001_Node000009" class="edge">
<title>Node1&#45;&gt;Node9</title>
<g id="a_edge25_Node000001_Node000009"><a xlink:title=" ">
<path fill="none" stroke="#63b8ff" d="M617.79,-110C576.38,-101.05 529.74,-84.13 551,-55 557.22,-46.47 614.22,-30.2 653.27,-19.87"/>
<polygon fill="#63b8ff" stroke="#63b8ff" points="654.47,-23.17 663.26,-17.25 652.7,-16.4 654.47,-23.17"/>
</a>
</g>
</g>
<!-- Node10 -->
<g id="Node000010" class="node">
<title>Node10</title>
<g id="a_Node000010"><a xlink:href="EasyedaApi_8h.html" target="_top" xlink:title=" ">
<polygon fill="white" stroke="#666666" points="341.5,-74 190.5,-74 190.5,-55 341.5,-55 341.5,-74"/>
<text text-anchor="middle" x="266" y="-62" font-family="Helvetica,sans-Serif" font-size="10.00">core/easyeda/EasyedaApi.h</text>
</a>
</g>
</g>
<!-- Node1&#45;&gt;Node10 -->
<g id="edge9_Node000001_Node000010" class="edge">
<title>Node1&#45;&gt;Node10</title>
<g id="a_edge9_Node000001_Node000010"><a xlink:title=" ">
<path fill="none" stroke="#63b8ff" d="M606.77,-109.98C534.37,-100.53 417.7,-85.3 341.43,-75.35"/>
<polygon fill="#63b8ff" stroke="#63b8ff" points="341.77,-71.86 331.41,-74.04 340.87,-78.8 341.77,-71.86"/>
</a>
</g>
</g>
<!-- Node13 -->
<g id="Node000013" class="node">
<title>Node13</title>
<g id="a_Node000013"><a xlink:title=" ">
<polygon fill="#e0e0e0" stroke="#999999" points="616,-74 560,-74 560,-55 616,-55 616,-74"/>
<text text-anchor="middle" x="588" y="-62" font-family="Helvetica,sans-Serif" font-size="10.00">QDebug</text>
</a>
</g>
</g>
<!-- Node1&#45;&gt;Node13 -->
<g id="edge16_Node000001_Node000013" class="edge">
<title>Node1&#45;&gt;Node13</title>
<g id="a_edge16_Node000001_Node000013"><a xlink:title=" ">
<path fill="none" stroke="#63b8ff" d="M658.5,-109.98C645.6,-101.84 625.9,-89.41 610.6,-79.76"/>
<polygon fill="#63b8ff" stroke="#63b8ff" points="612.07,-76.55 601.74,-74.17 608.33,-82.47 612.07,-76.55"/>
</a>
</g>
</g>
<!-- Node14 -->
<g id="Node000014" class="node">
<title>Node14</title>
<g id="a_Node000014"><a xlink:title=" ">
<polygon fill="#e0e0e0" stroke="#999999" points="709.5,-74 634.5,-74 634.5,-55 709.5,-55 709.5,-74"/>
<text text-anchor="middle" x="672" y="-62" font-family="Helvetica,sans-Serif" font-size="10.00">QEventLoop</text>
</a>
</g>
</g>
<!-- Node1&#45;&gt;Node14 -->
<g id="edge17_Node000001_Node000014" class="edge">
<title>Node1&#45;&gt;Node14</title>
<g id="a_edge17_Node000001_Node000014"><a xlink:title=" ">
<path fill="none" stroke="#63b8ff" d="M672,-109.75C672,-102.8 672,-92.85 672,-84.13"/>
<polygon fill="#63b8ff" stroke="#63b8ff" points="675.5,-84.09 672,-74.09 668.5,-84.09 675.5,-84.09"/>
</a>
</g>
</g>
<!-- Node15 -->
<g id="Node000015" class="node">
<title>Node15</title>
<g id="a_Node000015"><a xlink:title=" ">
<polygon fill="#e0e0e0" stroke="#999999" points="822.5,-74 727.5,-74 727.5,-55 822.5,-55 822.5,-74"/>
<text text-anchor="middle" x="775" y="-62" font-family="Helvetica,sans-Serif" font-size="10.00">QJsonDocument</text>
</a>
</g>
</g>
<!-- Node1&#45;&gt;Node15 -->
<g id="edge18_Node000001_Node000015" class="edge">
<title>Node1&#45;&gt;Node15</title>
<g id="a_edge18_Node000001_Node000015"><a xlink:title=" ">
<path fill="none" stroke="#63b8ff" d="M688.55,-109.98C704.89,-101.57 730.13,-88.59 749.13,-78.81"/>
<polygon fill="#63b8ff" stroke="#63b8ff" points="750.86,-81.86 758.15,-74.17 747.66,-75.63 750.86,-81.86"/>
</a>
</g>
</g>
<!-- Node16 -->
<g id="Node000016" class="node">
<title>Node16</title>
<g id="a_Node000016"><a xlink:title=" ">
<polygon fill="#e0e0e0" stroke="#999999" points="927,-74 841,-74 841,-55 927,-55 927,-74"/>
<text text-anchor="middle" x="884" y="-62" font-family="Helvetica,sans-Serif" font-size="10.00">QMutexLocker</text>
</a>
</g>
</g>
<!-- Node1&#45;&gt;Node16 -->
<g id="edge20_Node000001_Node000016" class="edge">
<title>Node1&#45;&gt;Node16</title>
<g id="a_edge20_Node000001_Node000016"><a xlink:title=" ">
<path fill="none" stroke="#63b8ff" d="M706.06,-109.98C742.42,-100.89 800.17,-86.46 839.97,-76.51"/>
<polygon fill="#63b8ff" stroke="#63b8ff" points="840.82,-79.9 849.67,-74.08 839.12,-73.11 840.82,-79.9"/>
</a>
</g>
</g>
<!-- Node17 -->
<g id="Node000017" class="node">
<title>Node17</title>
<g id="a_Node000017"><a xlink:title=" ">
<polygon fill="#e0e0e0" stroke="#999999" points="1087,-74 945,-74 945,-55 1087,-55 1087,-74"/>
<text text-anchor="middle" x="1016" y="-62" font-family="Helvetica,sans-Serif" font-size="10.00">QNetworkAccessManager</text>
</a>
</g>
</g>
<!-- Node1&#45;&gt;Node17 -->
<g id="edge21_Node000001_Node000017" class="edge">
<title>Node1&#45;&gt;Node17</title>
<g id="a_edge21_Node000001_Node000017"><a xlink:title=" ">
<path fill="none" stroke="#63b8ff" d="M727.27,-109.98C788.11,-100.61 885.86,-85.55 950.5,-75.59"/>
<polygon fill="#63b8ff" stroke="#63b8ff" points="951.23,-79.02 960.58,-74.04 950.17,-72.1 951.23,-79.02"/>
</a>
</g>
</g>
<!-- Node18 -->
<g id="Node000018" class="node">
<title>Node18</title>
<g id="a_Node000018"><a xlink:title=" ">
<polygon fill="#e0e0e0" stroke="#999999" points="1210.5,-74 1105.5,-74 1105.5,-55 1210.5,-55 1210.5,-74"/>
<text text-anchor="middle" x="1158" y="-62" font-family="Helvetica,sans-Serif" font-size="10.00">QNetworkRequest</text>
</a>
</g>
</g>
<!-- Node1&#45;&gt;Node18 -->
<g id="edge23_Node000001_Node000018" class="edge">
<title>Node1&#45;&gt;Node18</title>
<g id="a_edge23_Node000001_Node000018"><a xlink:title=" ">
<path fill="none" stroke="#63b8ff" d="M748.29,-111.23C831.08,-103.17 967.43,-89.41 1095.28,-74.05"/>
<polygon fill="#63b8ff" stroke="#63b8ff" points="1095.74,-77.52 1105.25,-72.85 1094.9,-70.57 1095.74,-77.52"/>
</a>
</g>
</g>
<!-- Node19 -->
<g id="Node000019" class="node">
<title>Node19</title>
<g id="a_Node000019"><a xlink:title=" ">
<polygon fill="#e0e0e0" stroke="#999999" points="1287,-74 1229,-74 1229,-55 1287,-55 1287,-74"/>
<text text-anchor="middle" x="1258" y="-62" font-family="Helvetica,sans-Serif" font-size="10.00">QThread</text>
</a>
</g>
</g>
<!-- Node1&#45;&gt;Node19 -->
<g id="edge24_Node000001_Node000019" class="edge">
<title>Node1&#45;&gt;Node19</title>
<g id="a_edge24_Node000001_Node000019"><a xlink:title=" ">
<path fill="none" stroke="#63b8ff" d="M748.18,-115.66C852.36,-111.03 1045.2,-99.81 1218.55,-74.01"/>
<polygon fill="#63b8ff" stroke="#63b8ff" points="1219.25,-77.45 1228.62,-72.5 1218.21,-70.53 1219.25,-77.45"/>
</a>
</g>
</g>
<!-- Node20 -->
<g id="Node000020" class="node">
<title>Node20</title>
<g id="a_Node000020"><a xlink:title=" ">
<polygon fill="#e0e0e0" stroke="#999999" points="1348.5,-74 1305.5,-74 1305.5,-55 1348.5,-55 1348.5,-74"/>
<text text-anchor="middle" x="1327" y="-62" font-family="Helvetica,sans-Serif" font-size="10.00">zlib.h</text>
</a>
</g>
</g>
<!-- Node1&#45;&gt;Node20 -->
<g id="edge26_Node000001_Node000020" class="edge">
<title>Node1&#45;&gt;Node20</title>
<g id="a_edge26_Node000001_Node000020"><a xlink:title=" ">
<path fill="none" stroke="#63b8ff" d="M748.46,-117.87C864.78,-115.84 1093.12,-107.69 1295.52,-73.68"/>
<polygon fill="#63b8ff" stroke="#63b8ff" points="1296.17,-77.12 1305.44,-71.99 1295,-70.22 1296.17,-77.12"/>
</a>
</g>
</g>
<!-- Node2&#45;&gt;Node3 -->
<g id="edge2_Node000002_Node000003" class="edge">
<title>Node2&#45;&gt;Node3</title>
<g id="a_edge2_Node000002_Node000003"><a xlink:title=" ">
<path fill="none" stroke="#63b8ff" d="M365.97,-57.06C291.24,-47.39 152.96,-29.31 86.26,-19.12"/>
<polygon fill="#63b8ff" stroke="#63b8ff" points="86.61,-15.63 76.2,-17.56 85.54,-22.55 86.61,-15.63"/>
</a>
</g>
</g>
<!-- Node4 -->
<g id="Node000004" class="node">
<title>Node4</title>
<g id="a_Node000004"><a xlink:title=" ">
<polygon fill="#e0e0e0" stroke="#999999" points="293.5,-19 238.5,-19 238.5,0 293.5,0 293.5,-19"/>
<text text-anchor="middle" x="266" y="-7" font-family="Helvetica,sans-Serif" font-size="10.00">QMutex</text>
</a>
</g>
</g>
<!-- Node2&#45;&gt;Node4 -->
<g id="edge3_Node000002_Node000004" class="edge">
<title>Node2&#45;&gt;Node4</title>
<g id="a_edge3_Node000002_Node000004"><a xlink:title=" ">
<path fill="none" stroke="#63b8ff" d="M391.9,-54.98C367.12,-46.23 328.3,-32.51 300.31,-22.62"/>
<polygon fill="#63b8ff" stroke="#63b8ff" points="301.13,-19.2 290.54,-19.17 298.8,-25.8 301.13,-19.2"/>
</a>
</g>
</g>
<!-- Node2&#45;&gt;Node5 -->
<g id="edge4_Node000002_Node000005" class="edge">
<title>Node2&#45;&gt;Node5</title>
<g id="a_edge4_Node000002_Node000005"><a xlink:title=" ">
<path fill="none" stroke="#63b8ff" d="M445.4,-54.98C476.39,-46.01 525.38,-31.82 559.67,-21.89"/>
<polygon fill="#63b8ff" stroke="#63b8ff" points="560.74,-25.23 569.37,-19.08 558.79,-18.5 560.74,-25.23"/>
</a>
</g>
</g>
<!-- Node6 -->
<g id="Node000006" class="node">
<title>Node6</title>
<g id="a_Node000006"><a xlink:title=" ">
<polygon fill="#e0e0e0" stroke="#999999" points="368,-19 312,-19 312,0 368,0 368,-19"/>
<text text-anchor="middle" x="340" y="-7" font-family="Helvetica,sans-Serif" font-size="10.00">QObject</text>
</a>
</g>
</g>
<!-- Node2&#45;&gt;Node6 -->
<g id="edge5_Node000002_Node000006" class="edge">
<title>Node2&#45;&gt;Node6</title>
<g id="a_edge5_Node000002_Node000006"><a xlink:title=" ">
<path fill="none" stroke="#63b8ff" d="M403.79,-54.98C392.22,-46.92 374.62,-34.65 360.84,-25.03"/>
<polygon fill="#63b8ff" stroke="#63b8ff" points="362.64,-22.02 352.43,-19.17 358.63,-27.76 362.64,-22.02"/>
</a>
</g>
</g>
<!-- Node7 -->
<g id="Node000007" class="node">
<title>Node7</title>
<g id="a_Node000007"><a xlink:title=" ">
<polygon fill="#e0e0e0" stroke="#999999" points="445.5,-19 386.5,-19 386.5,0 445.5,0 445.5,-19"/>
<text text-anchor="middle" x="416" y="-7" font-family="Helvetica,sans-Serif" font-size="10.00">QPointer</text>
</a>
</g>
</g>
<!-- Node2&#45;&gt;Node7 -->
<g id="edge6_Node000002_Node000007" class="edge">
<title>Node2&#45;&gt;Node7</title>
<g id="a_edge6_Node000002_Node000007"><a xlink:title=" ">
<path fill="none" stroke="#63b8ff" d="M416,-54.75C416,-47.8 416,-37.85 416,-29.13"/>
<polygon fill="#63b8ff" stroke="#63b8ff" points="419.5,-29.09 416,-19.09 412.5,-29.09 419.5,-29.09"/>
</a>
</g>
</g>
<!-- Node8 -->
<g id="Node000008" class="node">
<title>Node8</title>
<g id="a_Node000008"><a xlink:title=" ">
<polygon fill="#e0e0e0" stroke="#999999" points="534,-19 464,-19 464,0 534,0 534,-19"/>
<text text-anchor="middle" x="499" y="-7" font-family="Helvetica,sans-Serif" font-size="10.00">QRunnable</text>
</a>
</g>
</g>
<!-- Node2&#45;&gt;Node8 -->
<g id="edge7_Node000002_Node000008" class="edge">
<title>Node2&#45;&gt;Node8</title>
<g id="a_edge7_Node000002_Node000008"><a xlink:title=" ">
<path fill="none" stroke="#63b8ff" d="M429.34,-54.98C442.09,-46.84 461.55,-34.41 476.67,-24.76"/>
<polygon fill="#63b8ff" stroke="#63b8ff" points="478.88,-27.5 485.42,-19.17 475.11,-21.6 478.88,-27.5"/>
</a>
</g>
</g>
<!-- Node2&#45;&gt;Node9 -->
<g id="edge8_Node000002_Node000009" class="edge">
<title>Node2&#45;&gt;Node9</title>
<g id="a_edge8_Node000002_Node000009"><a xlink:title=" ">
<path fill="none" stroke="#63b8ff" d="M466.05,-54.99C512.34,-46.94 583.27,-34.15 653.39,-19.26"/>
<polygon fill="#63b8ff" stroke="#63b8ff" points="654.23,-22.66 663.28,-17.15 652.77,-15.82 654.23,-22.66"/>
</a>
</g>
</g>
<!-- Node10&#45;&gt;Node3 -->
<g id="edge10_Node000010_Node000003" class="edge">
<title>Node10&#45;&gt;Node3</title>
<g id="a_edge10_Node000010_Node000003"><a xlink:title=" ">
<path fill="none" stroke="#63b8ff" d="M229.37,-54.98C190.09,-45.86 127.63,-31.33 84.81,-21.38"/>
<polygon fill="#63b8ff" stroke="#63b8ff" points="85.45,-17.94 74.92,-19.08 83.87,-24.76 85.45,-17.94"/>
</a>
</g>
</g>
<!-- Node10&#45;&gt;Node4 -->
<g id="edge11_Node000010_Node000004" class="edge">
<title>Node10&#45;&gt;Node4</title>
<g id="a_edge11_Node000010_Node000004"><a xlink:title=" ">
<path fill="none" stroke="#63b8ff" d="M266,-54.75C266,-47.8 266,-37.85 266,-29.13"/>
<polygon fill="#63b8ff" stroke="#63b8ff" points="269.5,-29.09 266,-19.09 262.5,-29.09 269.5,-29.09"/>
</a>
</g>
</g>
<!-- Node10&#45;&gt;Node6 -->
<g id="edge12_Node000010_Node000006" class="edge">
<title>Node10&#45;&gt;Node6</title>
<g id="a_edge12_Node000010_Node000006"><a xlink:title=" ">
<path fill="none" stroke="#63b8ff" d="M277.89,-54.98C289.15,-46.92 306.29,-34.65 319.71,-25.03"/>
<polygon fill="#63b8ff" stroke="#63b8ff" points="321.8,-27.84 327.89,-19.17 317.73,-22.15 321.8,-27.84"/>
</a>
</g>
</g>
<!-- Node10&#45;&gt;Node7 -->
<g id="edge13_Node000010_Node000007" class="edge">
<title>Node10&#45;&gt;Node7</title>
<g id="a_edge13_Node000010_Node000007"><a xlink:title=" ">
<path fill="none" stroke="#63b8ff" d="M290.1,-54.98C314.88,-46.23 353.7,-32.51 381.69,-22.62"/>
<polygon fill="#63b8ff" stroke="#63b8ff" points="383.2,-25.8 391.46,-19.17 380.87,-19.2 383.2,-25.8"/>
</a>
</g>
</g>
<!-- Node11 -->
<g id="Node000011" class="node">
<title>Node11</title>
<g id="a_Node000011"><a xlink:title=" ">
<polygon fill="#e0e0e0" stroke="#999999" points="147.5,-19 94.5,-19 94.5,0 147.5,0 147.5,-19"/>
<text text-anchor="middle" x="121" y="-7" font-family="Helvetica,sans-Serif" font-size="10.00">QString</text>
</a>
</g>
</g>
<!-- Node10&#45;&gt;Node11 -->
<g id="edge14_Node000010_Node000011" class="edge">
<title>Node10&#45;&gt;Node11</title>
<g id="a_edge14_Node000010_Node000011"><a xlink:title=" ">
<path fill="none" stroke="#63b8ff" d="M242.7,-54.98C218.75,-46.23 181.22,-32.51 154.17,-22.62"/>
<polygon fill="#63b8ff" stroke="#63b8ff" points="155.31,-19.32 144.72,-19.17 152.91,-25.89 155.31,-19.32"/>
</a>
</g>
</g>
<!-- Node12 -->
<g id="Node000012" class="node">
<title>Node12</title>
<g id="a_Node000012"><a xlink:title=" ">
<polygon fill="#e0e0e0" stroke="#999999" points="220.5,-19 165.5,-19 165.5,0 220.5,0 220.5,-19"/>
<text text-anchor="middle" x="193" y="-7" font-family="Helvetica,sans-Serif" font-size="10.00">QVector</text>
</a>
</g>
</g>
<!-- Node10&#45;&gt;Node12 -->
<g id="edge15_Node000010_Node000012" class="edge">
<title>Node10&#45;&gt;Node12</title>
<g id="a_edge15_Node000010_Node000012"><a xlink:title=" ">
<path fill="none" stroke="#63b8ff" d="M254.27,-54.98C243.27,-47 226.58,-34.88 213.4,-25.31"/>
<polygon fill="#63b8ff" stroke="#63b8ff" points="215.09,-22.21 204.94,-19.17 210.98,-27.88 215.09,-22.21"/>
</a>
</g>
</g>
</g>
</svg>
