<?xml version="1.0" encoding="UTF-8" standalone="no"?>
<!DOCTYPE svg PUBLIC "-//W3C//DTD SVG 1.1//EN"
 "http://www.w3.org/Graphics/SVG/1.1/DTD/svg11.dtd">
<!-- Generated by graphviz version 2.43.0 (0)
 -->
<!-- Title: services/export/ParallelExportService.h Pages: 1 -->
<svg width="1321pt" height="170pt"
 viewBox="0.00 0.00 1320.50 170.00" xmlns="http://www.w3.org/2000/svg" xmlns:xlink="http://www.w3.org/1999/xlink">
<g id="graph0" class="graph" transform="scale(1 1) rotate(0) translate(4 166)">
<title>services/export/ParallelExportService.h</title>
<!-- Node1 -->
<g id="Node000001" class="node">
<title>Node1</title>
<g id="a_Node000001"><a xlink:title=" ">
<polygon fill="#999999" stroke="#666666" points="639.5,-162 508.5,-162 508.5,-132 639.5,-132 639.5,-162"/>
<text text-anchor="start" x="516.5" y="-150" font-family="Helvetica,sans-Serif" font-size="10.00">services/export/Parallel</text>
<text text-anchor="middle" x="574" y="-139" font-family="Helvetica,sans-Serif" font-size="10.00">ExportService.h</text>
</a>
</g>
</g>
<!-- Node2 -->
<g id="Node000002" class="node">
<title>Node2</title>
<g id="a_Node000002"><a xlink:href="main_8cpp.html" target="_top" xlink:title=" ">
<polygon fill="white" stroke="#666666" points="450,-24.5 388,-24.5 388,-5.5 450,-5.5 450,-24.5"/>
<text text-anchor="middle" x="419" y="-12.5" font-family="Helvetica,sans-Serif" font-size="10.00">main.cpp</text>
</a>
</g>
</g>
<!-- Node1&#45;&gt;Node2 -->
<g id="edge1_Node000001_Node000002" class="edge">
<title>Node1&#45;&gt;Node2</title>
<g id="a_edge1_Node000001_Node000002"><a xlink:title=" ">
<path fill="none" stroke="#63b8ff" d="M498.25,-135.96C472.97,-128.83 446.96,-116.69 430,-96 412.94,-75.18 415.28,-40.59 417.52,-24.6"/>
<polygon fill="#63b8ff" stroke="#63b8ff" points="497.7,-139.43 508.26,-138.54 499.45,-132.65 497.7,-139.43"/>
</a>
</g>
</g>
<!-- Node3 -->
<g id="Node000003" class="node">
<title>Node3</title>
<g id="a_Node000003"><a xlink:href="ParallelExportService_8cpp.html" target="_top" xlink:title=" ">
<polygon fill="white" stroke="#666666" points="200.5,-96 69.5,-96 69.5,-66 200.5,-66 200.5,-96"/>
<text text-anchor="start" x="77.5" y="-84" font-family="Helvetica,sans-Serif" font-size="10.00">services/export/Parallel</text>
<text text-anchor="middle" x="135" y="-73" font-family="Helvetica,sans-Serif" font-size="10.00">ExportService.cpp</text>
</a>
</g>
</g>
<!-- Node1&#45;&gt;Node3 -->
<g id="edge2_Node000001_Node000003" class="edge">
<title>Node1&#45;&gt;Node3</title>
<g id="a_edge2_Node000001_Node000003"><a xlink:title=" ">
<path fill="none" stroke="#63b8ff" d="M498.31,-136.68C424.57,-127.35 309.38,-112.09 210,-96 206.99,-95.51 203.92,-95 200.82,-94.47"/>
<polygon fill="#63b8ff" stroke="#63b8ff" points="498.07,-140.18 508.43,-137.96 498.95,-133.23 498.07,-140.18"/>
</a>
</g>
</g>
<!-- Node4 -->
<g id="Node000004" class="node">
<title>Node4</title>
<g id="a_Node000004"><a xlink:href="ExportProgressViewModel_8cpp.html" target="_top" xlink:title=" ">
<polygon fill="white" stroke="#666666" points="164,-30 0,-30 0,0 164,0 164,-30"/>
<text text-anchor="start" x="8" y="-18" font-family="Helvetica,sans-Serif" font-size="10.00">ui/viewmodels/ExportProgress</text>
<text text-anchor="middle" x="82" y="-7" font-family="Helvetica,sans-Serif" font-size="10.00">ViewModel.cpp</text>
</a>
</g>
</g>
<!-- Node1&#45;&gt;Node4 -->
<g id="edge3_Node000001_Node000004" class="edge">
<title>Node1&#45;&gt;Node4</title>
<g id="a_edge3_Node000001_Node000004"><a xlink:title=" ">
<path fill="none" stroke="#63b8ff" d="M498.07,-144.13C362.19,-140 88.85,-127.79 60,-96 43.35,-77.65 59,-47.85 71.07,-30.26"/>
<polygon fill="#63b8ff" stroke="#63b8ff" points="498.31,-147.64 508.4,-144.44 498.51,-140.64 498.31,-147.64"/>
</a>
</g>
</g>
<!-- Node5 -->
<g id="Node000005" class="node">
<title>Node5</title>
<g id="a_Node000005"><a xlink:href="ExportProgressViewModel_8h.html" target="_top" xlink:title=" ">
<polygon fill="white" stroke="#666666" points="383,-96 219,-96 219,-66 383,-66 383,-96"/>
<text text-anchor="start" x="227" y="-84" font-family="Helvetica,sans-Serif" font-size="10.00">ui/viewmodels/ExportProgress</text>
<text text-anchor="middle" x="301" y="-73" font-family="Helvetica,sans-Serif" font-size="10.00">ViewModel.h</text>
</a>
</g>
</g>
<!-- Node1&#45;&gt;Node5 -->
<g id="edge4_Node000001_Node000005" class="edge">
<title>Node1&#45;&gt;Node5</title>
<g id="a_edge4_Node000001_Node000005"><a xlink:title=" ">
<path fill="none" stroke="#63b8ff" d="M504.25,-129.65C459.89,-119.25 403.06,-105.93 360.77,-96.01"/>
<polygon fill="#63b8ff" stroke="#63b8ff" points="503.55,-133.08 514.09,-131.95 505.15,-126.26 503.55,-133.08"/>
</a>
</g>
</g>
<!-- Node7 -->
<g id="Node000007" class="node">
<title>Node7</title>
<g id="a_Node000007"><a xlink:href="ExportSettingsViewModel_8cpp.html" target="_top" xlink:title=" ">
<polygon fill="white" stroke="#666666" points="674,-30 512,-30 512,0 674,0 674,-30"/>
<text text-anchor="start" x="520" y="-18" font-family="Helvetica,sans-Serif" font-size="10.00">ui/viewmodels/ExportSettings</text>
<text text-anchor="middle" x="593" y="-7" font-family="Helvetica,sans-Serif" font-size="10.00">ViewModel.cpp</text>
</a>
</g>
</g>
<!-- Node1&#45;&gt;Node7 -->
<g id="edge8_Node000001_Node000007" class="edge">
<title>Node1&#45;&gt;Node7</title>
<g id="a_edge8_Node000001_Node000007"><a xlink:title=" ">
<path fill="none" stroke="#63b8ff" d="M594.54,-123.76C600.76,-115.64 606.78,-105.97 610,-96 617.28,-73.43 607.83,-46.26 600.37,-30.1"/>
<polygon fill="#63b8ff" stroke="#63b8ff" points="591.73,-121.67 588.11,-131.63 597.15,-126.11 591.73,-121.67"/>
</a>
</g>
</g>
<!-- Node8 -->
<g id="Node000008" class="node">
<title>Node8</title>
<g id="a_Node000008"><a xlink:href="ExportSettingsViewModel_8h.html" target="_top" xlink:title=" ">
<polygon fill="white" stroke="#666666" points="601,-96 439,-96 439,-66 601,-66 601,-96"/>
<text text-anchor="start" x="447" y="-84" font-family="Helvetica,sans-Serif" font-size="10.00">ui/viewmodels/ExportSettings</text>
<text text-anchor="middle" x="520" y="-73" font-family="Helvetica,sans-Serif" font-size="10.00">ViewModel.h</text>
</a>
</g>
</g>
<!-- Node1&#45;&gt;Node8 -->
<g id="edge9_Node000001_Node000008" class="edge">
<title>Node1&#45;&gt;Node8</title>
<g id="a_edge9_Node000001_Node000008"><a xlink:title=" ">
<path fill="none" stroke="#63b8ff" d="M555.51,-124.09C547.72,-114.85 538.87,-104.36 531.95,-96.16"/>
<polygon fill="#63b8ff" stroke="#63b8ff" points="552.89,-126.41 562.02,-131.8 558.24,-121.9 552.89,-126.41"/>
</a>
</g>
</g>
<!-- Node9 -->
<g id="Node000009" class="node">
<title>Node9</title>
<g id="a_Node000009"><a xlink:href="BatchConverter_8cpp.html" target="_top" xlink:title=" ">
<polygon fill="white" stroke="#666666" points="807,-90.5 657,-90.5 657,-71.5 807,-71.5 807,-90.5"/>
<text text-anchor="middle" x="732" y="-78.5" font-family="Helvetica,sans-Serif" font-size="10.00">utils/cli/BatchConverter.cpp</text>
</a>
</g>
</g>
<!-- Node1&#45;&gt;Node9 -->
<g id="edge12_Node000001_Node000009" class="edge">
<title>Node1&#45;&gt;Node9</title>
<g id="a_edge12_Node000001_Node000009"><a xlink:title=" ">
<path fill="none" stroke="#63b8ff" d="M618.19,-128.1C648.52,-115.82 687.4,-100.06 710.97,-90.52"/>
<polygon fill="#63b8ff" stroke="#63b8ff" points="616.63,-124.96 608.67,-131.95 619.26,-131.44 616.63,-124.96"/>
</a>
</g>
</g>
<!-- Node10 -->
<g id="Node000010" class="node">
<title>Node10</title>
<g id="a_Node000010"><a xlink:href="BomConverter_8cpp.html" target="_top" xlink:title=" ">
<polygon fill="white" stroke="#666666" points="970.5,-90.5 825.5,-90.5 825.5,-71.5 970.5,-71.5 970.5,-90.5"/>
<text text-anchor="middle" x="898" y="-78.5" font-family="Helvetica,sans-Serif" font-size="10.00">utils/cli/BomConverter.cpp</text>
</a>
</g>
</g>
<!-- Node1&#45;&gt;Node10 -->
<g id="edge13_Node000001_Node000010" class="edge">
<title>Node1&#45;&gt;Node10</title>
<g id="a_edge13_Node000001_Node000010"><a xlink:title=" ">
<path fill="none" stroke="#63b8ff" d="M649.58,-131.07C713.36,-118.47 802.43,-100.88 854.77,-90.54"/>
<polygon fill="#63b8ff" stroke="#63b8ff" points="648.7,-127.68 639.57,-133.05 650.05,-134.54 648.7,-127.68"/>
</a>
</g>
</g>
<!-- Node11 -->
<g id="Node000011" class="node">
<title>Node11</title>
<g id="a_Node000011"><a xlink:href="CliContext_8cpp.html" target="_top" xlink:title=" ">
<polygon fill="white" stroke="#666666" points="1115,-90.5 989,-90.5 989,-71.5 1115,-71.5 1115,-90.5"/>
<text text-anchor="middle" x="1052" y="-78.5" font-family="Helvetica,sans-Serif" font-size="10.00">utils/cli/CliContext.cpp</text>
</a>
</g>
</g>
<!-- Node1&#45;&gt;Node11 -->
<g id="edge14_Node000001_Node000011" class="edge">
<title>Node1&#45;&gt;Node11</title>
<g id="a_edge14_Node000001_Node000011"><a xlink:title=" ">
<path fill="none" stroke="#63b8ff" d="M649.79,-138.26C731.51,-129.54 865.31,-114.19 980,-96 989.94,-94.42 1000.6,-92.49 1010.59,-90.56"/>
<polygon fill="#63b8ff" stroke="#63b8ff" points="649.17,-134.8 639.59,-139.34 649.91,-141.77 649.17,-134.8"/>
</a>
</g>
</g>
<!-- Node12 -->
<g id="Node000012" class="node">
<title>Node12</title>
<g id="a_Node000012"><a xlink:href="ComponentConverter_8cpp.html" target="_top" xlink:title=" ">
<polygon fill="white" stroke="#666666" points="1312.5,-90.5 1133.5,-90.5 1133.5,-71.5 1312.5,-71.5 1312.5,-90.5"/>
<text text-anchor="middle" x="1223" y="-78.5" font-family="Helvetica,sans-Serif" font-size="10.00">utils/cli/ComponentConverter.cpp</text>
</a>
</g>
</g>
<!-- Node1&#45;&gt;Node12 -->
<g id="edge15_Node000001_Node000012" class="edge">
<title>Node1&#45;&gt;Node12</title>
<g id="a_edge15_Node000001_Node000012"><a xlink:title=" ">
<path fill="none" stroke="#63b8ff" d="M649.7,-140.32C755.86,-132.08 954.93,-115.63 1124,-96 1137.71,-94.41 1152.45,-92.46 1166.26,-90.52"/>
<polygon fill="#63b8ff" stroke="#63b8ff" points="649.42,-136.83 639.72,-141.09 649.96,-143.81 649.42,-136.83"/>
</a>
</g>
</g>
<!-- Node5&#45;&gt;Node2 -->
<g id="edge5_Node000005_Node000002" class="edge">
<title>Node5&#45;&gt;Node2</title>
<g id="a_edge5_Node000005_Node000002"><a xlink:title=" ">
<path fill="none" stroke="#63b8ff" d="M335.78,-61.14C358.15,-49 386.15,-33.82 403.3,-24.52"/>
<polygon fill="#63b8ff" stroke="#63b8ff" points="334.02,-58.11 326.9,-65.95 337.35,-64.26 334.02,-58.11"/>
</a>
</g>
</g>
<!-- Node5&#45;&gt;Node4 -->
<g id="edge7_Node000005_Node000004" class="edge">
<title>Node5&#45;&gt;Node4</title>
<g id="a_edge7_Node000005_Node000004"><a xlink:title=" ">
<path fill="none" stroke="#63b8ff" d="M243.24,-63.12C207.93,-52.8 163.3,-39.76 129.95,-30.01"/>
<polygon fill="#63b8ff" stroke="#63b8ff" points="242.36,-66.51 252.94,-65.95 244.32,-59.79 242.36,-66.51"/>
</a>
</g>
</g>
<!-- Node6 -->
<g id="Node000006" class="node">
<title>Node6</title>
<g id="a_Node000006"><a xlink:href="PipelineCompletionHandler_8cpp.html" target="_top" xlink:title=" ">
<polygon fill="white" stroke="#666666" points="369.5,-30 214.5,-30 214.5,0 369.5,0 369.5,-30"/>
<text text-anchor="start" x="222.5" y="-18" font-family="Helvetica,sans-Serif" font-size="10.00">services/PipelineCompletion</text>
<text text-anchor="middle" x="292" y="-7" font-family="Helvetica,sans-Serif" font-size="10.00">Handler.cpp</text>
</a>
</g>
</g>
<!-- Node5&#45;&gt;Node6 -->
<g id="edge6_Node000005_Node000006" class="edge">
<title>Node5&#45;&gt;Node6</title>
<g id="a_edge6_Node000005_Node000006"><a xlink:title=" ">
<path fill="none" stroke="#63b8ff" d="M297.6,-55.83C296.38,-47.17 295.05,-37.7 293.99,-30.16"/>
<polygon fill="#63b8ff" stroke="#63b8ff" points="294.14,-56.38 299,-65.8 301.08,-55.41 294.14,-56.38"/>
</a>
</g>
</g>
<!-- Node8&#45;&gt;Node2 -->
<g id="edge10_Node000008_Node000002" class="edge">
<title>Node8&#45;&gt;Node2</title>
<g id="a_edge10_Node000008_Node000002"><a xlink:title=" ">
<path fill="none" stroke="#63b8ff" d="M489.01,-60.36C470.17,-48.42 447.05,-33.77 432.66,-24.66"/>
<polygon fill="#63b8ff" stroke="#63b8ff" points="487.26,-63.4 497.58,-65.8 491.01,-57.49 487.26,-63.4"/>
</a>
</g>
</g>
<!-- Node8&#45;&gt;Node7 -->
<g id="edge11_Node000008_Node000007" class="edge">
<title>Node8&#45;&gt;Node7</title>
<g id="a_edge11_Node000008_Node000007"><a xlink:title=" ">
<path fill="none" stroke="#63b8ff" d="M543.72,-59.2C554.56,-49.7 567.12,-38.69 576.84,-30.16"/>
<polygon fill="#63b8ff" stroke="#63b8ff" points="541.41,-56.57 536.2,-65.8 546.03,-61.84 541.41,-56.57"/>
</a>
</g>
</g>
</g>
</svg>
