<?xml version="1.0" encoding="UTF-8" standalone="no"?>
<!DOCTYPE svg PUBLIC "-//W3C//DTD SVG 1.1//EN"
 "http://www.w3.org/Graphics/SVG/1.1/DTD/svg11.dtd">
<!-- Generated by graphviz version 2.43.0 (0)
 -->
<!-- Title: services/ParallelFetchContext.cpp Pages: 1 -->
<svg width="844pt" height="247pt"
 viewBox="0.00 0.00 843.63 247.00" xmlns="http://www.w3.org/2000/svg" xmlns:xlink="http://www.w3.org/1999/xlink">
<g id="graph0" class="graph" transform="scale(1 1) rotate(0) translate(4 243)">
<title>services/ParallelFetchContext.cpp</title>
<!-- Node1 -->
<g id="Node000001" class="node">
<title>Node1</title>
<g id="a_Node000001"><a xlink:title=" ">
<polygon fill="#999999" stroke="#666666" points="577.5,-239 396.5,-239 396.5,-220 577.5,-220 577.5,-239"/>
<text text-anchor="middle" x="487" y="-227" font-family="Helvetica,sans-Serif" font-size="10.00">services/ParallelFetchContext.cpp</text>
</a>
</g>
</g>
<!-- Node2 -->
<g id="Node000002" class="node">
<title>Node2</title>
<g id="a_Node000002"><a xlink:href="ParallelFetchContext_8h.html" target="_top" xlink:title=" ">
<polygon fill="white" stroke="#666666" points="228,-184 102,-184 102,-165 228,-165 228,-184"/>
<text text-anchor="middle" x="165" y="-172" font-family="Helvetica,sans-Serif" font-size="10.00">ParallelFetchContext.h</text>
</a>
</g>
</g>
<!-- Node1&#45;&gt;Node2 -->
<g id="edge1_Node000001_Node000002" class="edge">
<title>Node1&#45;&gt;Node2</title>
<g id="a_edge1_Node000001_Node000002"><a xlink:title=" ">
<path fill="none" stroke="#63b8ff" d="M435.27,-219.98C378.55,-210.65 287.57,-195.67 227.06,-185.71"/>
<polygon fill="#63b8ff" stroke="#63b8ff" points="227.31,-182.21 216.87,-184.04 226.17,-189.12 227.31,-182.21"/>
</a>
</g>
</g>
<!-- Node7 -->
<g id="Node000007" class="node">
<title>Node7</title>
<g id="a_Node000007"><a xlink:href="ComponentData_8h.html" target="_top" xlink:title=" ">
<polygon fill="white" stroke="#666666" points="539.5,-184 434.5,-184 434.5,-165 539.5,-165 539.5,-184"/>
<text text-anchor="middle" x="487" y="-172" font-family="Helvetica,sans-Serif" font-size="10.00">ComponentData.h</text>
</a>
</g>
</g>
<!-- Node1&#45;&gt;Node7 -->
<g id="edge6_Node000001_Node000007" class="edge">
<title>Node1&#45;&gt;Node7</title>
<g id="a_edge6_Node000001_Node000007"><a xlink:title=" ">
<path fill="none" stroke="#63b8ff" d="M487,-219.75C487,-212.8 487,-202.85 487,-194.13"/>
<polygon fill="#63b8ff" stroke="#63b8ff" points="490.5,-194.09 487,-184.09 483.5,-194.09 490.5,-194.09"/>
</a>
</g>
</g>
<!-- Node18 -->
<g id="Node000018" class="node">
<title>Node18</title>
<g id="a_Node000018"><a xlink:title=" ">
<polygon fill="#e0e0e0" stroke="#999999" points="644,-184 558,-184 558,-165 644,-165 644,-184"/>
<text text-anchor="middle" x="601" y="-172" font-family="Helvetica,sans-Serif" font-size="10.00">QMutexLocker</text>
</a>
</g>
</g>
<!-- Node1&#45;&gt;Node18 -->
<g id="edge29_Node000001_Node000018" class="edge">
<title>Node1&#45;&gt;Node18</title>
<g id="a_edge29_Node000001_Node000018"><a xlink:title=" ">
<path fill="none" stroke="#63b8ff" d="M505.32,-219.98C523.66,-211.46 552.11,-198.23 573.23,-188.41"/>
<polygon fill="#63b8ff" stroke="#63b8ff" points="574.76,-191.56 582.35,-184.17 571.81,-185.21 574.76,-191.56"/>
</a>
</g>
</g>
<!-- Node3 -->
<g id="Node000003" class="node">
<title>Node3</title>
<g id="a_Node000003"><a xlink:title=" ">
<polygon fill="#e0e0e0" stroke="#999999" points="119.5,-129 74.5,-129 74.5,-110 119.5,-110 119.5,-129"/>
<text text-anchor="middle" x="97" y="-117" font-family="Helvetica,sans-Serif" font-size="10.00">QMap</text>
</a>
</g>
</g>
<!-- Node2&#45;&gt;Node3 -->
<g id="edge2_Node000002_Node000003" class="edge">
<title>Node2&#45;&gt;Node3</title>
<g id="a_edge2_Node000002_Node000003"><a xlink:title=" ">
<path fill="none" stroke="#63b8ff" d="M154.07,-164.98C143.92,-157.07 128.58,-145.11 116.35,-135.58"/>
<polygon fill="#63b8ff" stroke="#63b8ff" points="118.16,-132.56 108.12,-129.17 113.86,-138.08 118.16,-132.56"/>
</a>
</g>
</g>
<!-- Node4 -->
<g id="Node000004" class="node">
<title>Node4</title>
<g id="a_Node000004"><a xlink:title=" ">
<polygon fill="#e0e0e0" stroke="#999999" points="192.5,-129 137.5,-129 137.5,-110 192.5,-110 192.5,-129"/>
<text text-anchor="middle" x="165" y="-117" font-family="Helvetica,sans-Serif" font-size="10.00">QMutex</text>
</a>
</g>
</g>
<!-- Node2&#45;&gt;Node4 -->
<g id="edge3_Node000002_Node000004" class="edge">
<title>Node2&#45;&gt;Node4</title>
<g id="a_edge3_Node000002_Node000004"><a xlink:title=" ">
<path fill="none" stroke="#63b8ff" d="M165,-164.75C165,-157.8 165,-147.85 165,-139.13"/>
<polygon fill="#63b8ff" stroke="#63b8ff" points="168.5,-139.09 165,-129.09 161.5,-139.09 168.5,-139.09"/>
</a>
</g>
</g>
<!-- Node5 -->
<g id="Node000005" class="node">
<title>Node5</title>
<g id="a_Node000005"><a xlink:title=" ">
<polygon fill="#e0e0e0" stroke="#999999" points="56,-129 0,-129 0,-110 56,-110 56,-129"/>
<text text-anchor="middle" x="28" y="-117" font-family="Helvetica,sans-Serif" font-size="10.00">QObject</text>
</a>
</g>
</g>
<!-- Node2&#45;&gt;Node5 -->
<g id="edge4_Node000002_Node000005" class="edge">
<title>Node2&#45;&gt;Node5</title>
<g id="a_edge4_Node000002_Node000005"><a xlink:title=" ">
<path fill="none" stroke="#63b8ff" d="M142.99,-164.98C120.55,-156.3 85.52,-142.75 60.01,-132.88"/>
<polygon fill="#63b8ff" stroke="#63b8ff" points="61,-129.51 50.41,-129.17 58.48,-136.04 61,-129.51"/>
</a>
</g>
</g>
<!-- Node6 -->
<g id="Node000006" class="node">
<title>Node6</title>
<g id="a_Node000006"><a xlink:title=" ">
<polygon fill="#e0e0e0" stroke="#999999" points="393.5,-19 340.5,-19 340.5,0 393.5,0 393.5,-19"/>
<text text-anchor="middle" x="367" y="-7" font-family="Helvetica,sans-Serif" font-size="10.00">QString</text>
</a>
</g>
</g>
<!-- Node2&#45;&gt;Node6 -->
<g id="edge5_Node000002_Node000006" class="edge">
<title>Node2&#45;&gt;Node6</title>
<g id="a_edge5_Node000002_Node000006"><a xlink:title=" ">
<path fill="none" stroke="#63b8ff" d="M171.91,-164.96C192.78,-139.21 254.51,-63.56 266,-55 285.55,-40.45 310.6,-29.37 330.87,-21.91"/>
<polygon fill="#63b8ff" stroke="#63b8ff" points="332.13,-25.17 340.38,-18.54 329.79,-18.58 332.13,-25.17"/>
</a>
</g>
</g>
<!-- Node7&#45;&gt;Node6 -->
<g id="edge28_Node000007_Node000006" class="edge">
<title>Node7&#45;&gt;Node6</title>
<g id="a_edge28_Node000007_Node000006"><a xlink:title=" ">
<path fill="none" stroke="#63b8ff" d="M434.44,-168C383.13,-161.55 309.95,-149.09 290,-129 266.53,-105.35 260.48,-83.34 278,-55 289.52,-36.35 311.49,-25.26 330.71,-18.81"/>
<polygon fill="#63b8ff" stroke="#63b8ff" points="331.9,-22.11 340.45,-15.85 329.86,-15.41 331.9,-22.11"/>
</a>
</g>
</g>
<!-- Node8 -->
<g id="Node000008" class="node">
<title>Node8</title>
<g id="a_Node000008"><a xlink:href="FootprintData_8h.html" target="_top" xlink:title=" ">
<polygon fill="white" stroke="#666666" points="655,-129 563,-129 563,-110 655,-110 655,-129"/>
<text text-anchor="middle" x="609" y="-117" font-family="Helvetica,sans-Serif" font-size="10.00">FootprintData.h</text>
</a>
</g>
</g>
<!-- Node7&#45;&gt;Node8 -->
<g id="edge7_Node000007_Node000008" class="edge">
<title>Node7&#45;&gt;Node8</title>
<g id="a_edge7_Node000007_Node000008"><a xlink:title=" ">
<path fill="none" stroke="#63b8ff" d="M506.6,-164.98C526.32,-156.42 556.95,-143.11 579.58,-133.28"/>
<polygon fill="#63b8ff" stroke="#63b8ff" points="581.26,-136.37 589.04,-129.17 578.48,-129.94 581.26,-136.37"/>
</a>
</g>
</g>
<!-- Node9 -->
<g id="Node000009" class="node">
<title>Node9</title>
<g id="a_Node000009"><a xlink:href="Model3DData_8h.html" target="_top" xlink:title=" ">
<polygon fill="white" stroke="#666666" points="823,-74 731,-74 731,-55 823,-55 823,-74"/>
<text text-anchor="middle" x="777" y="-62" font-family="Helvetica,sans-Serif" font-size="10.00">Model3DData.h</text>
</a>
</g>
</g>
<!-- Node7&#45;&gt;Node9 -->
<g id="edge17_Node000007_Node000009" class="edge">
<title>Node7&#45;&gt;Node9</title>
<g id="a_edge17_Node000007_Node000009"><a xlink:title=" ">
<path fill="none" stroke="#63b8ff" d="M535.41,-164.95C571.61,-157.69 621.91,-145.77 664,-129 697.66,-115.59 733.67,-93.93 755.77,-79.7"/>
<polygon fill="#63b8ff" stroke="#63b8ff" points="757.88,-82.51 764.34,-74.11 754.05,-76.64 757.88,-82.51"/>
</a>
</g>
</g>
<!-- Node11 -->
<g id="Node000011" class="node">
<title>Node11</title>
<g id="a_Node000011"><a xlink:title=" ">
<polygon fill="#e0e0e0" stroke="#999999" points="741,-19 665,-19 665,0 741,0 741,-19"/>
<text text-anchor="middle" x="703" y="-7" font-family="Helvetica,sans-Serif" font-size="10.00">QJsonObject</text>
</a>
</g>
</g>
<!-- Node7&#45;&gt;Node11 -->
<g id="edge26_Node000007_Node000011" class="edge">
<title>Node7&#45;&gt;Node11</title>
<g id="a_edge26_Node000007_Node000011"><a xlink:title=" ">
<path fill="none" stroke="#63b8ff" d="M539.87,-164.99C582.74,-157.45 644.45,-145.13 697,-129 758.94,-109.99 795.85,-127.76 832,-74 836.71,-66.99 836.9,-61.88 832,-55 822.22,-41.28 783.46,-29.06 750.96,-20.92"/>
<polygon fill="#63b8ff" stroke="#63b8ff" points="751.66,-17.49 741.11,-18.52 750,-24.29 751.66,-17.49"/>
</a>
</g>
</g>
<!-- Node12 -->
<g id="Node000012" class="node">
<title>Node12</title>
<g id="a_Node000012"><a xlink:title=" ">
<polygon fill="#e0e0e0" stroke="#999999" points="504.5,-74 433.5,-74 433.5,-55 504.5,-55 504.5,-74"/>
<text text-anchor="middle" x="469" y="-62" font-family="Helvetica,sans-Serif" font-size="10.00">QJsonArray</text>
</a>
</g>
</g>
<!-- Node7&#45;&gt;Node12 -->
<g id="edge25_Node000007_Node000012" class="edge">
<title>Node7&#45;&gt;Node12</title>
<g id="a_edge25_Node000007_Node000012"><a xlink:title=" ">
<path fill="none" stroke="#63b8ff" d="M492.62,-164.75C499.83,-152.4 510.64,-129.2 504,-110 500.33,-99.38 492.96,-89.38 485.92,-81.55"/>
<polygon fill="#63b8ff" stroke="#63b8ff" points="488.34,-79.02 478.88,-74.25 483.3,-83.88 488.34,-79.02"/>
</a>
</g>
</g>
<!-- Node15 -->
<g id="Node000015" class="node">
<title>Node15</title>
<g id="a_Node000015"><a xlink:href="SymbolData_8h.html" target="_top" xlink:title=" ">
<polygon fill="white" stroke="#666666" points="495,-129 409,-129 409,-110 495,-110 495,-129"/>
<text text-anchor="middle" x="452" y="-117" font-family="Helvetica,sans-Serif" font-size="10.00">SymbolData.h</text>
</a>
</g>
</g>
<!-- Node7&#45;&gt;Node15 -->
<g id="edge18_Node000007_Node000015" class="edge">
<title>Node7&#45;&gt;Node15</title>
<g id="a_edge18_Node000007_Node000015"><a xlink:title=" ">
<path fill="none" stroke="#63b8ff" d="M481.22,-164.75C476.38,-157.42 469.32,-146.73 463.36,-137.7"/>
<polygon fill="#63b8ff" stroke="#63b8ff" points="466.1,-135.5 457.67,-129.09 460.26,-139.36 466.1,-135.5"/>
</a>
</g>
</g>
<!-- Node17 -->
<g id="Node000017" class="node">
<title>Node17</title>
<g id="a_Node000017"><a xlink:title=" ">
<polygon fill="#e0e0e0" stroke="#999999" points="391,-129 299,-129 299,-110 391,-110 391,-129"/>
<text text-anchor="middle" x="345" y="-117" font-family="Helvetica,sans-Serif" font-size="10.00">QSharedPointer</text>
</a>
</g>
</g>
<!-- Node7&#45;&gt;Node17 -->
<g id="edge27_Node000007_Node000017" class="edge">
<title>Node7&#45;&gt;Node17</title>
<g id="a_edge27_Node000007_Node000017"><a xlink:title=" ">
<path fill="none" stroke="#63b8ff" d="M464.19,-164.98C440.83,-156.27 404.3,-142.63 377.83,-132.75"/>
<polygon fill="#63b8ff" stroke="#63b8ff" points="378.82,-129.39 368.23,-129.17 376.37,-135.95 378.82,-129.39"/>
</a>
</g>
</g>
<!-- Node8&#45;&gt;Node6 -->
<g id="edge16_Node000008_Node000006" class="edge">
<title>Node8&#45;&gt;Node6</title>
<g id="a_edge16_Node000008_Node000006"><a xlink:title=" ">
<path fill="none" stroke="#63b8ff" d="M620.53,-109.87C636.29,-97.04 660.99,-72.57 646,-55 615.33,-19.05 472.76,-12.01 404.12,-10.72"/>
<polygon fill="#63b8ff" stroke="#63b8ff" points="403.82,-7.22 393.77,-10.56 403.71,-14.22 403.82,-7.22"/>
</a>
</g>
</g>
<!-- Node8&#45;&gt;Node9 -->
<g id="edge8_Node000008_Node000009" class="edge">
<title>Node8&#45;&gt;Node9</title>
<g id="a_edge8_Node000008_Node000009"><a xlink:title=" ">
<path fill="none" stroke="#63b8ff" d="M635.99,-109.98C664.2,-101.09 708.64,-87.07 740.08,-77.15"/>
<polygon fill="#63b8ff" stroke="#63b8ff" points="741.31,-80.43 749.8,-74.08 739.21,-73.75 741.31,-80.43"/>
</a>
</g>
</g>
<!-- Node8&#45;&gt;Node11 -->
<g id="edge13_Node000008_Node000011" class="edge">
<title>Node8&#45;&gt;Node11</title>
<g id="a_edge13_Node000008_Node000011"><a xlink:title=" ">
<path fill="none" stroke="#63b8ff" d="M629.32,-109.95C644.83,-102.49 665.73,-90.31 679,-74 689.58,-61 695.81,-42.85 699.26,-29.29"/>
<polygon fill="#63b8ff" stroke="#63b8ff" points="702.75,-29.7 701.54,-19.18 695.92,-28.16 702.75,-29.7"/>
</a>
</g>
</g>
<!-- Node8&#45;&gt;Node12 -->
<g id="edge12_Node000008_Node000012" class="edge">
<title>Node8&#45;&gt;Node12</title>
<g id="a_edge12_Node000008_Node000012"><a xlink:title=" ">
<path fill="none" stroke="#63b8ff" d="M586.51,-109.98C563.48,-101.27 527.46,-87.63 501.37,-77.75"/>
<polygon fill="#63b8ff" stroke="#63b8ff" points="502.49,-74.44 491.9,-74.17 500.02,-80.98 502.49,-74.44"/>
</a>
</g>
</g>
<!-- Node13 -->
<g id="Node000013" class="node">
<title>Node13</title>
<g id="a_Node000013"><a xlink:title=" ">
<polygon fill="#e0e0e0" stroke="#999999" points="563.5,-74 522.5,-74 522.5,-55 563.5,-55 563.5,-74"/>
<text text-anchor="middle" x="543" y="-62" font-family="Helvetica,sans-Serif" font-size="10.00">QList</text>
</a>
</g>
</g>
<!-- Node8&#45;&gt;Node13 -->
<g id="edge14_Node000008_Node000013" class="edge">
<title>Node8&#45;&gt;Node13</title>
<g id="a_edge14_Node000008_Node000013"><a xlink:title=" ">
<path fill="none" stroke="#63b8ff" d="M598.4,-109.98C588.54,-102.07 573.65,-90.11 561.78,-80.58"/>
<polygon fill="#63b8ff" stroke="#63b8ff" points="563.79,-77.7 553.8,-74.17 559.4,-83.16 563.79,-77.7"/>
</a>
</g>
</g>
<!-- Node14 -->
<g id="Node000014" class="node">
<title>Node14</title>
<g id="a_Node000014"><a xlink:title=" ">
<polygon fill="#e0e0e0" stroke="#999999" points="636.5,-74 581.5,-74 581.5,-55 636.5,-55 636.5,-74"/>
<text text-anchor="middle" x="609" y="-62" font-family="Helvetica,sans-Serif" font-size="10.00">QPointF</text>
</a>
</g>
</g>
<!-- Node8&#45;&gt;Node14 -->
<g id="edge15_Node000008_Node000014" class="edge">
<title>Node8&#45;&gt;Node14</title>
<g id="a_edge15_Node000008_Node000014"><a xlink:title=" ">
<path fill="none" stroke="#63b8ff" d="M609,-109.75C609,-102.8 609,-92.85 609,-84.13"/>
<polygon fill="#63b8ff" stroke="#63b8ff" points="612.5,-84.09 609,-74.09 605.5,-84.09 612.5,-84.09"/>
</a>
</g>
</g>
<!-- Node9&#45;&gt;Node6 -->
<g id="edge11_Node000009_Node000006" class="edge">
<title>Node9&#45;&gt;Node6</title>
<g id="a_edge11_Node000009_Node000006"><a xlink:title=" ">
<path fill="none" stroke="#63b8ff" d="M730.76,-57.52C648.63,-46.91 478.87,-24.96 403.93,-15.27"/>
<polygon fill="#63b8ff" stroke="#63b8ff" points="403.95,-11.75 393.58,-13.94 403.05,-18.69 403.95,-11.75"/>
</a>
</g>
</g>
<!-- Node10 -->
<g id="Node000010" class="node">
<title>Node10</title>
<g id="a_Node000010"><a xlink:title=" ">
<polygon fill="#e0e0e0" stroke="#999999" points="832.5,-19 759.5,-19 759.5,0 832.5,0 832.5,-19"/>
<text text-anchor="middle" x="796" y="-7" font-family="Helvetica,sans-Serif" font-size="10.00">QByteArray</text>
</a>
</g>
</g>
<!-- Node9&#45;&gt;Node10 -->
<g id="edge9_Node000009_Node000010" class="edge">
<title>Node9&#45;&gt;Node10</title>
<g id="a_edge9_Node000009_Node000010"><a xlink:title=" ">
<path fill="none" stroke="#63b8ff" d="M780.14,-54.75C782.68,-47.65 786.36,-37.4 789.53,-28.56"/>
<polygon fill="#63b8ff" stroke="#63b8ff" points="792.84,-29.68 792.92,-19.09 786.25,-27.32 792.84,-29.68"/>
</a>
</g>
</g>
<!-- Node9&#45;&gt;Node11 -->
<g id="edge10_Node000009_Node000011" class="edge">
<title>Node9&#45;&gt;Node11</title>
<g id="a_edge10_Node000009_Node000011"><a xlink:title=" ">
<path fill="none" stroke="#63b8ff" d="M765.11,-54.98C753.85,-46.92 736.71,-34.65 723.29,-25.03"/>
<polygon fill="#63b8ff" stroke="#63b8ff" points="725.27,-22.15 715.11,-19.17 721.2,-27.84 725.27,-22.15"/>
</a>
</g>
</g>
<!-- Node15&#45;&gt;Node6 -->
<g id="edge24_Node000015_Node000006" class="edge">
<title>Node15&#45;&gt;Node6</title>
<g id="a_edge24_Node000015_Node000006"><a xlink:title=" ">
<path fill="none" stroke="#63b8ff" d="M435.41,-109.98C421.81,-102.23 402.91,-89.64 391,-74 380.85,-60.67 374.57,-42.56 370.99,-29.09"/>
<polygon fill="#63b8ff" stroke="#63b8ff" points="374.33,-27.99 368.6,-19.07 367.52,-29.61 374.33,-27.99"/>
</a>
</g>
</g>
<!-- Node15&#45;&gt;Node11 -->
<g id="edge20_Node000015_Node000011" class="edge">
<title>Node15&#45;&gt;Node11</title>
<g id="a_edge20_Node000015_Node000011"><a xlink:title=" ">
<path fill="none" stroke="#63b8ff" d="M442.99,-109.81C430.47,-96.69 410.85,-71.59 425,-55 453.94,-21.06 582.93,-12.89 654.59,-11"/>
<polygon fill="#63b8ff" stroke="#63b8ff" points="654.82,-14.5 664.73,-10.77 654.65,-7.5 654.82,-14.5"/>
</a>
</g>
</g>
<!-- Node15&#45;&gt;Node12 -->
<g id="edge19_Node000015_Node000012" class="edge">
<title>Node15&#45;&gt;Node12</title>
<g id="a_edge19_Node000015_Node000012"><a xlink:title=" ">
<path fill="none" stroke="#63b8ff" d="M454.81,-109.75C457.06,-102.72 460.3,-92.62 463.12,-83.84"/>
<polygon fill="#63b8ff" stroke="#63b8ff" points="466.52,-84.68 466.25,-74.09 459.86,-82.54 466.52,-84.68"/>
</a>
</g>
</g>
<!-- Node15&#45;&gt;Node13 -->
<g id="edge21_Node000015_Node000013" class="edge">
<title>Node15&#45;&gt;Node13</title>
<g id="a_edge21_Node000015_Node000013"><a xlink:title=" ">
<path fill="none" stroke="#63b8ff" d="M466.62,-109.98C480.86,-101.69 502.75,-88.94 519.45,-79.22"/>
<polygon fill="#63b8ff" stroke="#63b8ff" points="521.23,-82.23 528.11,-74.17 517.71,-76.18 521.23,-82.23"/>
</a>
</g>
</g>
<!-- Node15&#45;&gt;Node14 -->
<g id="edge22_Node000015_Node000014" class="edge">
<title>Node15&#45;&gt;Node14</title>
<g id="a_edge22_Node000015_Node000014"><a xlink:title=" ">
<path fill="none" stroke="#63b8ff" d="M477.22,-109.98C503.36,-101.16 544.4,-87.31 573.73,-77.41"/>
<polygon fill="#63b8ff" stroke="#63b8ff" points="575.22,-80.6 583.58,-74.08 572.98,-73.96 575.22,-80.6"/>
</a>
</g>
</g>
<!-- Node16 -->
<g id="Node000016" class="node">
<title>Node16</title>
<g id="a_Node000016"><a xlink:title=" ">
<polygon fill="#e0e0e0" stroke="#999999" points="339,-74 287,-74 287,-55 339,-55 339,-74"/>
<text text-anchor="middle" x="313" y="-62" font-family="Helvetica,sans-Serif" font-size="10.00">QRectF</text>
</a>
</g>
</g>
<!-- Node15&#45;&gt;Node16 -->
<g id="edge23_Node000015_Node000016" class="edge">
<title>Node15&#45;&gt;Node16</title>
<g id="a_edge23_Node000015_Node000016"><a xlink:title=" ">
<path fill="none" stroke="#63b8ff" d="M429.67,-109.98C406.8,-101.27 371.04,-87.63 345.14,-77.75"/>
<polygon fill="#63b8ff" stroke="#63b8ff" points="346.33,-74.46 335.74,-74.17 343.84,-81 346.33,-74.46"/>
</a>
</g>
</g>
</g>
</svg>
