<?xml version="1.0" encoding="UTF-8" standalone="no"?>
<!DOCTYPE svg PUBLIC "-//W3C//DTD SVG 1.1//EN"
 "http://www.w3.org/Graphics/SVG/1.1/DTD/svg11.dtd">
<!-- Generated by graphviz version 2.43.0 (0)
 -->
<!-- Title: utils/PathSecurity.h Pages: 1 -->
<svg width="754pt" height="93pt"
 viewBox="0.00 0.00 753.50 93.00" xmlns="http://www.w3.org/2000/svg" xmlns:xlink="http://www.w3.org/1999/xlink">
<g id="graph0" class="graph" transform="scale(1 1) rotate(0) translate(4 89)">
<title>utils/PathSecurity.h</title>
<!-- Node1 -->
<g id="Node000001" class="node">
<title>Node1</title>
<g id="a_Node000001"><a xlink:title=" ">
<polygon fill="#999999" stroke="#666666" points="436.5,-85 327.5,-85 327.5,-66 436.5,-66 436.5,-85"/>
<text text-anchor="middle" x="382" y="-73" font-family="Helvetica,sans-Serif" font-size="10.00">utils/PathSecurity.h</text>
</a>
</g>
</g>
<!-- Node2 -->
<g id="Node000002" class="node">
<title>Node2</title>
<g id="a_Node000002"><a xlink:href="ExportService_8cpp.html" target="_top" xlink:title=" ">
<polygon fill="white" stroke="#666666" points="148,-24.5 0,-24.5 0,-5.5 148,-5.5 148,-24.5"/>
<text text-anchor="middle" x="74" y="-12.5" font-family="Helvetica,sans-Serif" font-size="10.00">services/ExportService.cpp</text>
</a>
</g>
</g>
<!-- Node1&#45;&gt;Node2 -->
<g id="edge1_Node000001_Node000002" class="edge">
<title>Node1&#45;&gt;Node2</title>
<g id="a_edge1_Node000001_Node000002"><a xlink:title=" ">
<path fill="none" stroke="#63b8ff" d="M327.26,-64.1C267.84,-52.82 174.07,-35.01 118.84,-24.52"/>
<polygon fill="#63b8ff" stroke="#63b8ff" points="326.74,-67.57 337.21,-65.99 328.04,-60.69 326.74,-67.57"/>
</a>
</g>
</g>
<!-- Node3 -->
<g id="Node000003" class="node">
<title>Node3</title>
<g id="a_Node000003"><a xlink:href="ExportService__Pipeline_8cpp.html" target="_top" xlink:title=" ">
<polygon fill="white" stroke="#666666" points="294,-30 166,-30 166,0 294,0 294,-30"/>
<text text-anchor="start" x="174" y="-18" font-family="Helvetica,sans-Serif" font-size="10.00">services/ExportService</text>
<text text-anchor="middle" x="230" y="-7" font-family="Helvetica,sans-Serif" font-size="10.00">_Pipeline.cpp</text>
</a>
</g>
</g>
<!-- Node1&#45;&gt;Node3 -->
<g id="edge2_Node000001_Node000003" class="edge">
<title>Node1&#45;&gt;Node3</title>
<g id="a_edge2_Node000001_Node000003"><a xlink:title=" ">
<path fill="none" stroke="#63b8ff" d="M350.39,-62.33C325.96,-52.93 292.13,-39.91 266.54,-30.06"/>
<polygon fill="#63b8ff" stroke="#63b8ff" points="349.31,-65.67 359.9,-65.99 351.82,-59.14 349.31,-65.67"/>
</a>
</g>
</g>
<!-- Node4 -->
<g id="Node000004" class="node">
<title>Node4</title>
<g id="a_Node000004"><a xlink:href="PipelineCleanup_8cpp.html" target="_top" xlink:title=" ">
<polygon fill="white" stroke="#666666" points="452,-30 312,-30 312,0 452,0 452,-30"/>
<text text-anchor="start" x="320" y="-18" font-family="Helvetica,sans-Serif" font-size="10.00">services/pipeline/cleanup</text>
<text text-anchor="middle" x="382" y="-7" font-family="Helvetica,sans-Serif" font-size="10.00">/PipelineCleanup.cpp</text>
</a>
</g>
</g>
<!-- Node1&#45;&gt;Node4 -->
<g id="edge3_Node000001_Node000004" class="edge">
<title>Node1&#45;&gt;Node4</title>
<g id="a_edge3_Node000001_Node000004"><a xlink:title=" ">
<path fill="none" stroke="#63b8ff" d="M382,-55.65C382,-47.36 382,-37.78 382,-30.11"/>
<polygon fill="#63b8ff" stroke="#63b8ff" points="378.5,-55.87 382,-65.87 385.5,-55.87 378.5,-55.87"/>
</a>
</g>
</g>
<!-- Node5 -->
<g id="Node000005" class="node">
<title>Node5</title>
<g id="a_Node000005"><a xlink:href="PathSecurity_8cpp.html" target="_top" xlink:title=" ">
<polygon fill="white" stroke="#666666" points="590,-24.5 470,-24.5 470,-5.5 590,-5.5 590,-24.5"/>
<text text-anchor="middle" x="530" y="-12.5" font-family="Helvetica,sans-Serif" font-size="10.00">utils/PathSecurity.cpp</text>
</a>
</g>
</g>
<!-- Node1&#45;&gt;Node5 -->
<g id="edge4_Node000001_Node000005" class="edge">
<title>Node1&#45;&gt;Node5</title>
<g id="a_edge4_Node000001_Node000005"><a xlink:title=" ">
<path fill="none" stroke="#63b8ff" d="M413.04,-62.23C441.64,-50.92 483.34,-34.44 508.45,-24.52"/>
<polygon fill="#63b8ff" stroke="#63b8ff" points="411.53,-59.06 403.52,-65.99 414.11,-65.57 411.53,-59.06"/>
</a>
</g>
</g>
<!-- Node6 -->
<g id="Node000006" class="node">
<title>Node6</title>
<g id="a_Node000006"><a xlink:href="WriteWorker_8cpp.html" target="_top" xlink:title=" ">
<polygon fill="white" stroke="#666666" points="745.5,-24.5 608.5,-24.5 608.5,-5.5 745.5,-5.5 745.5,-24.5"/>
<text text-anchor="middle" x="677" y="-12.5" font-family="Helvetica,sans-Serif" font-size="10.00">workers/WriteWorker.cpp</text>
</a>
</g>
</g>
<!-- Node1&#45;&gt;Node6 -->
<g id="edge5_Node000001_Node000006" class="edge">
<title>Node1&#45;&gt;Node6</title>
<g id="a_edge5_Node000001_Node000006"><a xlink:title=" ">
<path fill="none" stroke="#63b8ff" d="M434.78,-64.03C491.71,-52.74 581.27,-34.98 634.05,-24.52"/>
<polygon fill="#63b8ff" stroke="#63b8ff" points="434.02,-60.62 424.9,-65.99 435.39,-67.48 434.02,-60.62"/>
</a>
</g>
</g>
</g>
</svg>
