<?xml version="1.0" encoding="UTF-8" standalone="no"?>
<!DOCTYPE svg PUBLIC "-//W3C//DTD SVG 1.1//EN"
 "http://www.w3.org/Graphics/SVG/1.1/DTD/svg11.dtd">
<!-- Generated by graphviz version 2.43.0 (0)
 -->
<!-- Title: utils/PathSecurity.h Pages: 1 -->
<svg width="1177pt" height="93pt"
 viewBox="0.00 0.00 1177.00 93.00" xmlns="http://www.w3.org/2000/svg" xmlns:xlink="http://www.w3.org/1999/xlink">
<g id="graph0" class="graph" transform="scale(1 1) rotate(0) translate(4 89)">
<title>utils/PathSecurity.h</title>
<!-- Node1 -->
<g id="Node000001" class="node">
<title>Node1</title>
<g id="a_Node000001"><a xlink:title=" ">
<polygon fill="#999999" stroke="#666666" points="705,-85 596,-85 596,-66 705,-66 705,-85"/>
<text text-anchor="middle" x="650.5" y="-73" font-family="Helvetica,sans-Serif" font-size="10.00">utils/PathSecurity.h</text>
</a>
</g>
</g>
<!-- Node2 -->
<g id="Node000002" class="node">
<title>Node2</title>
<g id="a_Node000002"><a xlink:href="ExporterFootprint_8cpp.html" target="_top" xlink:title=" ">
<polygon fill="white" stroke="#666666" points="175,-24.5 0,-24.5 0,-5.5 175,-5.5 175,-24.5"/>
<text text-anchor="middle" x="87.5" y="-12.5" font-family="Helvetica,sans-Serif" font-size="10.00">core/kicad/ExporterFootprint.cpp</text>
</a>
</g>
</g>
<!-- Node1&#45;&gt;Node2 -->
<g id="edge1_Node000001_Node000002" class="edge">
<title>Node1&#45;&gt;Node2</title>
<g id="a_edge1_Node000001_Node000002"><a xlink:title=" ">
<path fill="none" stroke="#63b8ff" d="M585.82,-69.31C495.75,-61.87 327.47,-47.13 184.5,-30 171.15,-28.4 156.81,-26.46 143.35,-24.53"/>
<polygon fill="#63b8ff" stroke="#63b8ff" points="585.63,-72.81 595.88,-70.14 586.21,-65.83 585.63,-72.81"/>
</a>
</g>
</g>
<!-- Node3 -->
<g id="Node000003" class="node">
<title>Node3</title>
<g id="a_Node000003"><a xlink:href="Model3DExportStage_8cpp.html" target="_top" xlink:title=" ">
<polygon fill="white" stroke="#666666" points="363.5,-30 193.5,-30 193.5,0 363.5,0 363.5,-30"/>
<text text-anchor="start" x="201.5" y="-18" font-family="Helvetica,sans-Serif" font-size="10.00">services/export/Model3DExport</text>
<text text-anchor="middle" x="278.5" y="-7" font-family="Helvetica,sans-Serif" font-size="10.00">Stage.cpp</text>
</a>
</g>
</g>
<!-- Node1&#45;&gt;Node3 -->
<g id="edge2_Node000001_Node000003" class="edge">
<title>Node1&#45;&gt;Node3</title>
<g id="a_edge2_Node000001_Node000003"><a xlink:title=" ">
<path fill="none" stroke="#63b8ff" d="M586.43,-64.42C524.87,-54.74 431.45,-40.05 363.65,-29.39"/>
<polygon fill="#63b8ff" stroke="#63b8ff" points="585.99,-67.9 596.41,-65.99 587.07,-60.98 585.99,-67.9"/>
</a>
</g>
</g>
<!-- Node4 -->
<g id="Node000004" class="node">
<title>Node4</title>
<g id="a_Node000004"><a xlink:href="Model3DExportWorker_8cpp.html" target="_top" xlink:title=" ">
<polygon fill="white" stroke="#666666" points="551.5,-30 381.5,-30 381.5,0 551.5,0 551.5,-30"/>
<text text-anchor="start" x="389.5" y="-18" font-family="Helvetica,sans-Serif" font-size="10.00">services/export/Model3DExport</text>
<text text-anchor="middle" x="466.5" y="-7" font-family="Helvetica,sans-Serif" font-size="10.00">Worker.cpp</text>
</a>
</g>
</g>
<!-- Node1&#45;&gt;Node4 -->
<g id="edge3_Node000001_Node000004" class="edge">
<title>Node1&#45;&gt;Node4</title>
<g id="a_edge3_Node000001_Node000004"><a xlink:title=" ">
<path fill="none" stroke="#63b8ff" d="M614.18,-62.95C584.49,-53.51 542.39,-40.13 510.74,-30.06"/>
<polygon fill="#63b8ff" stroke="#63b8ff" points="613.15,-66.3 623.74,-65.99 615.28,-59.63 613.15,-66.3"/>
</a>
</g>
</g>
<!-- Node5 -->
<g id="Node000005" class="node">
<title>Node5</title>
<g id="a_Node000005"><a xlink:href="ExportSettingsViewModel_8cpp.html" target="_top" xlink:title=" ">
<polygon fill="white" stroke="#666666" points="731.5,-30 569.5,-30 569.5,0 731.5,0 731.5,-30"/>
<text text-anchor="start" x="577.5" y="-18" font-family="Helvetica,sans-Serif" font-size="10.00">ui/viewmodels/ExportSettings</text>
<text text-anchor="middle" x="650.5" y="-7" font-family="Helvetica,sans-Serif" font-size="10.00">ViewModel.cpp</text>
</a>
</g>
</g>
<!-- Node1&#45;&gt;Node5 -->
<g id="edge4_Node000001_Node000005" class="edge">
<title>Node1&#45;&gt;Node5</title>
<g id="a_edge4_Node000001_Node000005"><a xlink:title=" ">
<path fill="none" stroke="#63b8ff" d="M650.5,-55.65C650.5,-47.36 650.5,-37.78 650.5,-30.11"/>
<polygon fill="#63b8ff" stroke="#63b8ff" points="647,-55.87 650.5,-65.87 654,-55.87 647,-55.87"/>
</a>
</g>
</g>
<!-- Node6 -->
<g id="Node000006" class="node">
<title>Node6</title>
<g id="a_Node000006"><a xlink:href="PathSecurity_8cpp.html" target="_top" xlink:title=" ">
<polygon fill="white" stroke="#666666" points="869.5,-24.5 749.5,-24.5 749.5,-5.5 869.5,-5.5 869.5,-24.5"/>
<text text-anchor="middle" x="809.5" y="-12.5" font-family="Helvetica,sans-Serif" font-size="10.00">utils/PathSecurity.cpp</text>
</a>
</g>
</g>
<!-- Node1&#45;&gt;Node6 -->
<g id="edge5_Node000001_Node000006" class="edge">
<title>Node1&#45;&gt;Node6</title>
<g id="a_edge5_Node000001_Node000006"><a xlink:title=" ">
<path fill="none" stroke="#63b8ff" d="M683.05,-62.52C713.79,-51.21 759.14,-34.53 786.35,-24.52"/>
<polygon fill="#63b8ff" stroke="#63b8ff" points="681.8,-59.26 673.62,-65.99 684.21,-65.83 681.8,-59.26"/>
</a>
</g>
</g>
<!-- Node7 -->
<g id="Node000007" class="node">
<title>Node7</title>
<g id="a_Node000007"><a xlink:href="CliContext_8cpp.html" target="_top" xlink:title=" ">
<polygon fill="white" stroke="#666666" points="1013.5,-24.5 887.5,-24.5 887.5,-5.5 1013.5,-5.5 1013.5,-24.5"/>
<text text-anchor="middle" x="950.5" y="-12.5" font-family="Helvetica,sans-Serif" font-size="10.00">utils/cli/CliContext.cpp</text>
</a>
</g>
</g>
<!-- Node1&#45;&gt;Node7 -->
<g id="edge6_Node000001_Node000007" class="edge">
<title>Node1&#45;&gt;Node7</title>
<g id="a_edge6_Node000001_Node000007"><a xlink:title=" ">
<path fill="none" stroke="#63b8ff" d="M704.18,-64.03C762.07,-52.74 853.14,-34.98 906.82,-24.52"/>
<polygon fill="#63b8ff" stroke="#63b8ff" points="703.27,-60.64 694.12,-65.99 704.61,-67.51 703.27,-60.64"/>
</a>
</g>
</g>
<!-- Node8 -->
<g id="Node000008" class="node">
<title>Node8</title>
<g id="a_Node000008"><a xlink:href="WriteWorker_8cpp.html" target="_top" xlink:title=" ">
<polygon fill="white" stroke="#666666" points="1169,-24.5 1032,-24.5 1032,-5.5 1169,-5.5 1169,-24.5"/>
<text text-anchor="middle" x="1100.5" y="-12.5" font-family="Helvetica,sans-Serif" font-size="10.00">workers/WriteWorker.cpp</text>
</a>
</g>
</g>
<!-- Node1&#45;&gt;Node8 -->
<g id="edge7_Node000001_Node000008" class="edge">
<title>Node1&#45;&gt;Node8</title>
<g id="a_edge7_Node000001_Node000008"><a xlink:title=" ">
<path fill="none" stroke="#63b8ff" d="M715.3,-67.91C789.65,-60.08 915.13,-46.04 1022.5,-30 1033.25,-28.39 1044.79,-26.45 1055.62,-24.52"/>
<polygon fill="#63b8ff" stroke="#63b8ff" points="714.74,-64.45 705.16,-68.97 715.47,-71.41 714.74,-64.45"/>
</a>
</g>
</g>
</g>
</svg>
