<?xml version="1.0" encoding="UTF-8" standalone="no"?>
<!DOCTYPE svg PUBLIC "-//W3C//DTD SVG 1.1//EN"
 "http://www.w3.org/Graphics/SVG/1.1/DTD/svg11.dtd">
<!-- Generated by graphviz version 2.43.0 (0)
 -->
<!-- Title: utils/PathSecurity.h Pages: 1 -->
<svg width="596pt" height="93pt"
 viewBox="0.00 0.00 595.50 93.00" xmlns="http://www.w3.org/2000/svg" xmlns:xlink="http://www.w3.org/1999/xlink">
<g id="graph0" class="graph" transform="scale(1 1) rotate(0) translate(4 89)">
<title>utils/PathSecurity.h</title>
<!-- Node1 -->
<g id="Node000001" class="node">
<title>Node1</title>
<g id="a_Node000001"><a xlink:title=" ">
<polygon fill="#999999" stroke="#666666" points="355.5,-85 246.5,-85 246.5,-66 355.5,-66 355.5,-85"/>
<text text-anchor="middle" x="301" y="-73" font-family="Helvetica,sans-Serif" font-size="10.00">utils/PathSecurity.h</text>
</a>
</g>
</g>
<!-- Node2 -->
<g id="Node000002" class="node">
<title>Node2</title>
<g id="a_Node000002"><a xlink:href="ExportService_8cpp.html" target="_top" xlink:title=" ">
<polygon fill="white" stroke="#666666" points="148,-24.5 0,-24.5 0,-5.5 148,-5.5 148,-24.5"/>
<text text-anchor="middle" x="74" y="-12.5" font-family="Helvetica,sans-Serif" font-size="10.00">services/ExportService.cpp</text>
</a>
</g>
</g>
<!-- Node1&#45;&gt;Node2 -->
<g id="edge1_Node000001_Node000002" class="edge">
<title>Node1&#45;&gt;Node2</title>
<g id="a_edge1_Node000001_Node000002"><a xlink:title=" ">
<path fill="none" stroke="#63b8ff" d="M258.19,-63.47C214.3,-52.16 146.99,-34.81 107.05,-24.52"/>
<polygon fill="#63b8ff" stroke="#63b8ff" points="257.44,-66.89 267.99,-65.99 259.18,-60.11 257.44,-66.89"/>
</a>
</g>
</g>
<!-- Node3 -->
<g id="Node000003" class="node">
<title>Node3</title>
<g id="a_Node000003"><a xlink:href="ExportService__Pipeline_8cpp.html" target="_top" xlink:title=" ">
<polygon fill="white" stroke="#666666" points="294,-30 166,-30 166,0 294,0 294,-30"/>
<text text-anchor="start" x="174" y="-18" font-family="Helvetica,sans-Serif" font-size="10.00">services/ExportService</text>
<text text-anchor="middle" x="230" y="-7" font-family="Helvetica,sans-Serif" font-size="10.00">_Pipeline.cpp</text>
</a>
</g>
</g>
<!-- Node1&#45;&gt;Node3 -->
<g id="edge2_Node000001_Node000003" class="edge">
<title>Node1&#45;&gt;Node3</title>
<g id="a_edge2_Node000001_Node000003"><a xlink:title=" ">
<path fill="none" stroke="#63b8ff" d="M282.8,-59.5C271.82,-50.45 257.91,-39 247.13,-30.11"/>
<polygon fill="#63b8ff" stroke="#63b8ff" points="280.58,-62.21 290.52,-65.87 285.03,-56.81 280.58,-62.21"/>
</a>
</g>
</g>
<!-- Node4 -->
<g id="Node000004" class="node">
<title>Node4</title>
<g id="a_Node000004"><a xlink:href="PathSecurity_8cpp.html" target="_top" xlink:title=" ">
<polygon fill="white" stroke="#666666" points="432,-24.5 312,-24.5 312,-5.5 432,-5.5 432,-24.5"/>
<text text-anchor="middle" x="372" y="-12.5" font-family="Helvetica,sans-Serif" font-size="10.00">utils/PathSecurity.cpp</text>
</a>
</g>
</g>
<!-- Node1&#45;&gt;Node4 -->
<g id="edge3_Node000001_Node000004" class="edge">
<title>Node1&#45;&gt;Node4</title>
<g id="a_edge3_Node000001_Node000004"><a xlink:title=" ">
<path fill="none" stroke="#63b8ff" d="M319.54,-59.22C332.9,-48.21 350.45,-33.75 361.48,-24.67"/>
<polygon fill="#63b8ff" stroke="#63b8ff" points="316.97,-56.81 311.48,-65.87 321.42,-62.21 316.97,-56.81"/>
</a>
</g>
</g>
<!-- Node5 -->
<g id="Node000005" class="node">
<title>Node5</title>
<g id="a_Node000005"><a xlink:href="WriteWorker_8cpp.html" target="_top" xlink:title=" ">
<polygon fill="white" stroke="#666666" points="587.5,-24.5 450.5,-24.5 450.5,-5.5 587.5,-5.5 587.5,-24.5"/>
<text text-anchor="middle" x="519" y="-12.5" font-family="Helvetica,sans-Serif" font-size="10.00">workers/WriteWorker.cpp</text>
</a>
</g>
</g>
<!-- Node1&#45;&gt;Node5 -->
<g id="edge4_Node000001_Node000005" class="edge">
<title>Node1&#45;&gt;Node5</title>
<g id="a_edge4_Node000001_Node000005"><a xlink:title=" ">
<path fill="none" stroke="#63b8ff" d="M342.38,-63.4C384.53,-52.08 448.98,-34.79 487.26,-24.52"/>
<polygon fill="#63b8ff" stroke="#63b8ff" points="341.45,-60.02 332.7,-65.99 343.26,-66.78 341.45,-60.02"/>
</a>
</g>
</g>
</g>
</svg>
