<?xml version="1.0" encoding="UTF-8" standalone="no"?>
<!DOCTYPE svg PUBLIC "-//W3C//DTD SVG 1.1//EN"
 "http://www.w3.org/Graphics/SVG/1.1/DTD/svg11.dtd">
<!-- Generated by graphviz version 2.43.0 (0)
 -->
<!-- Title: utils/logging/PatternFormatter.h Pages: 1 -->
<svg width="390pt" height="247pt"
 viewBox="0.00 0.00 390.00 247.00" xmlns="http://www.w3.org/2000/svg" xmlns:xlink="http://www.w3.org/1999/xlink">
<g id="graph0" class="graph" transform="scale(1 1) rotate(0) translate(4 243)">
<title>utils/logging/PatternFormatter.h</title>
<!-- Node1 -->
<g id="Node000001" class="node">
<title>Node1</title>
<g id="a_Node000001"><a xlink:title=" ">
<polygon fill="#999999" stroke="#666666" points="170,-239 0,-239 0,-220 170,-220 170,-239"/>
<text text-anchor="middle" x="85" y="-227" font-family="Helvetica,sans-Serif" font-size="10.00">utils/logging/PatternFormatter.h</text>
</a>
</g>
</g>
<!-- Node2 -->
<g id="Node000002" class="node">
<title>Node2</title>
<g id="a_Node000002"><a xlink:href="IFormatter_8h.html" target="_top" xlink:title=" ">
<polygon fill="white" stroke="#666666" points="123,-184 47,-184 47,-165 123,-165 123,-184"/>
<text text-anchor="middle" x="85" y="-172" font-family="Helvetica,sans-Serif" font-size="10.00">IFormatter.h</text>
</a>
</g>
</g>
<!-- Node1&#45;&gt;Node2 -->
<g id="edge1_Node000001_Node000002" class="edge">
<title>Node1&#45;&gt;Node2</title>
<g id="a_edge1_Node000001_Node000002"><a xlink:title=" ">
<path fill="none" stroke="#63b8ff" d="M85,-219.75C85,-212.8 85,-202.85 85,-194.13"/>
<polygon fill="#63b8ff" stroke="#63b8ff" points="88.5,-194.09 85,-184.09 81.5,-194.09 88.5,-194.09"/>
</a>
</g>
</g>
<!-- Node5 -->
<g id="Node000005" class="node">
<title>Node5</title>
<g id="a_Node000005"><a xlink:title=" ">
<polygon fill="#e0e0e0" stroke="#999999" points="85.5,-19 32.5,-19 32.5,0 85.5,0 85.5,-19"/>
<text text-anchor="middle" x="59" y="-7" font-family="Helvetica,sans-Serif" font-size="10.00">QString</text>
</a>
</g>
</g>
<!-- Node1&#45;&gt;Node5 -->
<g id="edge15_Node000001_Node000005" class="edge">
<title>Node1&#45;&gt;Node5</title>
<g id="a_edge15_Node000001_Node000005"><a xlink:title=" ">
<path fill="none" stroke="#63b8ff" d="M70.93,-219.89C59.65,-212.1 44.66,-199.48 38,-184 15.27,-131.17 37.72,-61.44 50.9,-28.81"/>
<polygon fill="#63b8ff" stroke="#63b8ff" points="54.27,-29.82 54.94,-19.25 47.82,-27.1 54.27,-29.82"/>
</a>
</g>
</g>
<!-- Node11 -->
<g id="Node000011" class="node">
<title>Node11</title>
<g id="a_Node000011"><a xlink:title=" ">
<polygon fill="#e0e0e0" stroke="#999999" points="256.5,-184 141.5,-184 141.5,-165 256.5,-165 256.5,-184"/>
<text text-anchor="middle" x="199" y="-172" font-family="Helvetica,sans-Serif" font-size="10.00">QRegularExpression</text>
</a>
</g>
</g>
<!-- Node1&#45;&gt;Node11 -->
<g id="edge14_Node000001_Node000011" class="edge">
<title>Node1&#45;&gt;Node11</title>
<g id="a_edge14_Node000001_Node000011"><a xlink:title=" ">
<path fill="none" stroke="#63b8ff" d="M103.32,-219.98C121.66,-211.46 150.11,-198.23 171.23,-188.41"/>
<polygon fill="#63b8ff" stroke="#63b8ff" points="172.76,-191.56 180.35,-184.17 169.81,-185.21 172.76,-191.56"/>
</a>
</g>
</g>
<!-- Node3 -->
<g id="Node000003" class="node">
<title>Node3</title>
<g id="a_Node000003"><a xlink:href="LogRecord_8h.html" target="_top" xlink:title=" ">
<polygon fill="white" stroke="#666666" points="160.5,-129 83.5,-129 83.5,-110 160.5,-110 160.5,-129"/>
<text text-anchor="middle" x="122" y="-117" font-family="Helvetica,sans-Serif" font-size="10.00">LogRecord.h</text>
</a>
</g>
</g>
<!-- Node2&#45;&gt;Node3 -->
<g id="edge2_Node000002_Node000003" class="edge">
<title>Node2&#45;&gt;Node3</title>
<g id="a_edge2_Node000002_Node000003"><a xlink:title=" ">
<path fill="none" stroke="#63b8ff" d="M91.11,-164.75C96.28,-157.34 103.85,-146.5 110.19,-137.41"/>
<polygon fill="#63b8ff" stroke="#63b8ff" points="113.15,-139.29 116,-129.09 107.41,-135.29 113.15,-139.29"/>
</a>
</g>
</g>
<!-- Node2&#45;&gt;Node5 -->
<g id="edge13_Node000002_Node000005" class="edge">
<title>Node2&#45;&gt;Node5</title>
<g id="a_edge13_Node000002_Node000005"><a xlink:title=" ">
<path fill="none" stroke="#63b8ff" d="M82.55,-164.69C80.13,-155.75 76.45,-141.5 74,-129 67.18,-94.18 62.78,-52.97 60.61,-29.47"/>
<polygon fill="#63b8ff" stroke="#63b8ff" points="64.06,-28.84 59.7,-19.19 57.09,-29.46 64.06,-28.84"/>
</a>
</g>
</g>
<!-- Node10 -->
<g id="Node000010" class="node">
<title>Node10</title>
<g id="a_Node000010"><a xlink:title=" ">
<polygon fill="#e0e0e0" stroke="#999999" points="271,-129 179,-129 179,-110 271,-110 271,-129"/>
<text text-anchor="middle" x="225" y="-117" font-family="Helvetica,sans-Serif" font-size="10.00">QSharedPointer</text>
</a>
</g>
</g>
<!-- Node2&#45;&gt;Node10 -->
<g id="edge12_Node000002_Node000010" class="edge">
<title>Node2&#45;&gt;Node10</title>
<g id="a_edge12_Node000002_Node000010"><a xlink:title=" ">
<path fill="none" stroke="#63b8ff" d="M107.49,-164.98C130.52,-156.27 166.54,-142.63 192.63,-132.75"/>
<polygon fill="#63b8ff" stroke="#63b8ff" points="193.98,-135.98 202.1,-129.17 191.51,-129.44 193.98,-135.98"/>
</a>
</g>
</g>
<!-- Node4 -->
<g id="Node000004" class="node">
<title>Node4</title>
<g id="a_Node000004"><a xlink:href="LogLevel_8h.html" target="_top" xlink:title=" ">
<polygon fill="white" stroke="#666666" points="156.5,-74 87.5,-74 87.5,-55 156.5,-55 156.5,-74"/>
<text text-anchor="middle" x="122" y="-62" font-family="Helvetica,sans-Serif" font-size="10.00">LogLevel.h</text>
</a>
</g>
</g>
<!-- Node3&#45;&gt;Node4 -->
<g id="edge3_Node000003_Node000004" class="edge">
<title>Node3&#45;&gt;Node4</title>
<g id="a_edge3_Node000003_Node000004"><a xlink:title=" ">
<path fill="none" stroke="#63b8ff" d="M122,-109.75C122,-102.8 122,-92.85 122,-84.13"/>
<polygon fill="#63b8ff" stroke="#63b8ff" points="125.5,-84.09 122,-74.09 118.5,-84.09 125.5,-84.09"/>
</a>
</g>
</g>
<!-- Node3&#45;&gt;Node5 -->
<g id="edge10_Node000003_Node000005" class="edge">
<title>Node3&#45;&gt;Node5</title>
<g id="a_edge10_Node000003_Node000005"><a xlink:title=" ">
<path fill="none" stroke="#63b8ff" d="M110.68,-109.79C100.72,-101.57 86.53,-88.39 78,-74 69.83,-60.22 64.93,-42.65 62.15,-29.48"/>
<polygon fill="#63b8ff" stroke="#63b8ff" points="65.52,-28.44 60.24,-19.26 58.64,-29.73 65.52,-28.44"/>
</a>
</g>
</g>
<!-- Node6 -->
<g id="Node000006" class="node">
<title>Node6</title>
<g id="a_Node000006"><a xlink:href="LogModule_8h.html" target="_top" xlink:title=" ">
<polygon fill="white" stroke="#666666" points="253.5,-74 174.5,-74 174.5,-55 253.5,-55 253.5,-74"/>
<text text-anchor="middle" x="214" y="-62" font-family="Helvetica,sans-Serif" font-size="10.00">LogModule.h</text>
</a>
</g>
</g>
<!-- Node3&#45;&gt;Node6 -->
<g id="edge5_Node000003_Node000006" class="edge">
<title>Node3&#45;&gt;Node6</title>
<g id="a_edge5_Node000003_Node000006"><a xlink:title=" ">
<path fill="none" stroke="#63b8ff" d="M136.78,-109.98C151.18,-101.69 173.31,-88.94 190.19,-79.22"/>
<polygon fill="#63b8ff" stroke="#63b8ff" points="192.03,-82.19 198.95,-74.17 188.54,-76.13 192.03,-82.19"/>
</a>
</g>
</g>
<!-- Node8 -->
<g id="Node000008" class="node">
<title>Node8</title>
<g id="a_Node000008"><a xlink:title=" ">
<polygon fill="#e0e0e0" stroke="#999999" points="311.5,-19 252.5,-19 252.5,0 311.5,0 311.5,-19"/>
<text text-anchor="middle" x="282" y="-7" font-family="Helvetica,sans-Serif" font-size="10.00">QtGlobal</text>
</a>
</g>
</g>
<!-- Node3&#45;&gt;Node8 -->
<g id="edge11_Node000003_Node000008" class="edge">
<title>Node3&#45;&gt;Node8</title>
<g id="a_edge11_Node000003_Node000008"><a xlink:title=" ">
<path fill="none" stroke="#63b8ff" d="M160.56,-110.44C196.83,-102.13 247.64,-88.4 262,-74 273.85,-62.12 278.69,-43.29 280.66,-29.21"/>
<polygon fill="#63b8ff" stroke="#63b8ff" points="284.15,-29.48 281.71,-19.17 277.19,-28.75 284.15,-29.48"/>
</a>
</g>
</g>
<!-- Node9 -->
<g id="Node000009" class="node">
<title>Node9</title>
<g id="a_Node000009"><a xlink:title=" ">
<polygon fill="#e0e0e0" stroke="#999999" points="382,-74 310,-74 310,-55 382,-55 382,-74"/>
<text text-anchor="middle" x="346" y="-62" font-family="Helvetica,sans-Serif" font-size="10.00">QDateTime</text>
</a>
</g>
</g>
<!-- Node3&#45;&gt;Node9 -->
<g id="edge9_Node000003_Node000009" class="edge">
<title>Node3&#45;&gt;Node9</title>
<g id="a_edge9_Node000003_Node000009"><a xlink:title=" ">
<path fill="none" stroke="#63b8ff" d="M157.99,-109.98C196.49,-100.87 257.69,-86.4 299.74,-76.45"/>
<polygon fill="#63b8ff" stroke="#63b8ff" points="300.8,-79.79 309.73,-74.08 299.19,-72.98 300.8,-79.79"/>
</a>
</g>
</g>
<!-- Node4&#45;&gt;Node5 -->
<g id="edge4_Node000004_Node000005" class="edge">
<title>Node4&#45;&gt;Node5</title>
<g id="a_edge4_Node000004_Node000005"><a xlink:title=" ">
<path fill="none" stroke="#63b8ff" d="M111.88,-54.98C102.56,-47.15 88.53,-35.34 77.26,-25.86"/>
<polygon fill="#63b8ff" stroke="#63b8ff" points="79.21,-22.93 69.31,-19.17 74.71,-28.29 79.21,-22.93"/>
</a>
</g>
</g>
<!-- Node6&#45;&gt;Node5 -->
<g id="edge6_Node000006_Node000005" class="edge">
<title>Node6&#45;&gt;Node5</title>
<g id="a_edge6_Node000006_Node000005"><a xlink:title=" ">
<path fill="none" stroke="#63b8ff" d="M189.1,-54.98C163.3,-46.16 122.78,-32.31 93.82,-22.41"/>
<polygon fill="#63b8ff" stroke="#63b8ff" points="94.69,-19.01 84.1,-19.08 92.43,-25.63 94.69,-19.01"/>
</a>
</g>
</g>
<!-- Node7 -->
<g id="Node000007" class="node">
<title>Node7</title>
<g id="a_Node000007"><a xlink:title=" ">
<polygon fill="#e0e0e0" stroke="#999999" points="234,-19 164,-19 164,0 234,0 234,-19"/>
<text text-anchor="middle" x="199" y="-7" font-family="Helvetica,sans-Serif" font-size="10.00">QStringList</text>
</a>
</g>
</g>
<!-- Node6&#45;&gt;Node7 -->
<g id="edge7_Node000006_Node000007" class="edge">
<title>Node6&#45;&gt;Node7</title>
<g id="a_edge7_Node000006_Node000007"><a xlink:title=" ">
<path fill="none" stroke="#63b8ff" d="M211.52,-54.75C209.54,-47.72 206.68,-37.62 204.19,-28.84"/>
<polygon fill="#63b8ff" stroke="#63b8ff" points="207.52,-27.76 201.43,-19.09 200.79,-29.66 207.52,-27.76"/>
</a>
</g>
</g>
<!-- Node6&#45;&gt;Node8 -->
<g id="edge8_Node000006_Node000008" class="edge">
<title>Node6&#45;&gt;Node8</title>
<g id="a_edge8_Node000006_Node000008"><a xlink:title=" ">
<path fill="none" stroke="#63b8ff" d="M224.93,-54.98C235.08,-47.07 250.42,-35.11 262.65,-25.58"/>
<polygon fill="#63b8ff" stroke="#63b8ff" points="265.14,-28.08 270.88,-19.17 260.84,-22.56 265.14,-28.08"/>
</a>
</g>
</g>
</g>
</svg>
