<?xml version="1.0" encoding="UTF-8" standalone="no"?>
<!DOCTYPE svg PUBLIC "-//W3C//DTD SVG 1.1//EN"
 "http://www.w3.org/Graphics/SVG/1.1/DTD/svg11.dtd">
<!-- Generated by graphviz version 2.43.0 (0)
 -->
<!-- Title: utils/logging/PatternFormatter.cpp Pages: 1 -->
<svg width="506pt" height="302pt"
 viewBox="0.00 0.00 505.73 302.00" xmlns="http://www.w3.org/2000/svg" xmlns:xlink="http://www.w3.org/1999/xlink">
<g id="graph0" class="graph" transform="scale(1 1) rotate(0) translate(4 298)">
<title>utils/logging/PatternFormatter.cpp</title>
<!-- Node1 -->
<g id="Node000001" class="node">
<title>Node1</title>
<g id="a_Node000001"><a xlink:title=" ">
<polygon fill="#999999" stroke="#666666" points="340.73,-294 158.73,-294 158.73,-275 340.73,-275 340.73,-294"/>
<text text-anchor="middle" x="249.73" y="-282" font-family="Helvetica,sans-Serif" font-size="10.00">utils/logging/PatternFormatter.cpp</text>
</a>
</g>
</g>
<!-- Node2 -->
<g id="Node000002" class="node">
<title>Node2</title>
<g id="a_Node000002"><a xlink:href="PatternFormatter_8h.html" target="_top" xlink:title=" ">
<polygon fill="white" stroke="#666666" points="205.23,-239 98.23,-239 98.23,-220 205.23,-220 205.23,-239"/>
<text text-anchor="middle" x="151.73" y="-227" font-family="Helvetica,sans-Serif" font-size="10.00">PatternFormatter.h</text>
</a>
</g>
</g>
<!-- Node1&#45;&gt;Node2 -->
<g id="edge1_Node000001_Node000002" class="edge">
<title>Node1&#45;&gt;Node2</title>
<g id="a_edge1_Node000001_Node000002"><a xlink:title=" ">
<path fill="none" stroke="#63b8ff" d="M233.99,-274.98C218.51,-266.61 194.64,-253.7 176.6,-243.95"/>
<polygon fill="#63b8ff" stroke="#63b8ff" points="178.23,-240.85 167.77,-239.17 174.9,-247.01 178.23,-240.85"/>
</a>
</g>
</g>
<!-- Node10 -->
<g id="Node000010" class="node">
<title>Node10</title>
<g id="a_Node000010"><a xlink:title=" ">
<polygon fill="#e0e0e0" stroke="#999999" points="497.73,-74 425.73,-74 425.73,-55 497.73,-55 497.73,-74"/>
<text text-anchor="middle" x="461.73" y="-62" font-family="Helvetica,sans-Serif" font-size="10.00">QDateTime</text>
</a>
</g>
</g>
<!-- Node1&#45;&gt;Node10 -->
<g id="edge17_Node000001_Node000010" class="edge">
<title>Node1&#45;&gt;Node10</title>
<g id="a_edge17_Node000001_Node000010"><a xlink:title=" ">
<path fill="none" stroke="#63b8ff" d="M258.05,-274.95C289.83,-242.27 404.04,-124.83 446.07,-81.61"/>
<polygon fill="#63b8ff" stroke="#63b8ff" points="448.79,-83.83 453.25,-74.22 443.77,-78.95 448.79,-83.83"/>
</a>
</g>
</g>
<!-- Node12 -->
<g id="Node000012" class="node">
<title>Node12</title>
<g id="a_Node000012"><a xlink:title=" ">
<polygon fill="#e0e0e0" stroke="#999999" points="307.23,-184 192.23,-184 192.23,-165 307.23,-165 307.23,-184"/>
<text text-anchor="middle" x="249.73" y="-172" font-family="Helvetica,sans-Serif" font-size="10.00">QRegularExpression</text>
</a>
</g>
</g>
<!-- Node1&#45;&gt;Node12 -->
<g id="edge18_Node000001_Node000012" class="edge">
<title>Node1&#45;&gt;Node12</title>
<g id="a_edge18_Node000001_Node000012"><a xlink:title=" ">
<path fill="none" stroke="#63b8ff" d="M249.73,-274.66C249.73,-257.17 249.73,-217.8 249.73,-194.27"/>
<polygon fill="#63b8ff" stroke="#63b8ff" points="253.23,-194.16 249.73,-184.16 246.23,-194.16 253.23,-194.16"/>
</a>
</g>
</g>
<!-- Node3 -->
<g id="Node000003" class="node">
<title>Node3</title>
<g id="a_Node000003"><a xlink:href="IFormatter_8h.html" target="_top" xlink:title=" ">
<polygon fill="white" stroke="#666666" points="173.73,-184 97.73,-184 97.73,-165 173.73,-165 173.73,-184"/>
<text text-anchor="middle" x="135.73" y="-172" font-family="Helvetica,sans-Serif" font-size="10.00">IFormatter.h</text>
</a>
</g>
</g>
<!-- Node2&#45;&gt;Node3 -->
<g id="edge2_Node000002_Node000003" class="edge">
<title>Node2&#45;&gt;Node3</title>
<g id="a_edge2_Node000002_Node000003"><a xlink:title=" ">
<path fill="none" stroke="#63b8ff" d="M149.09,-219.75C146.97,-212.72 143.92,-202.62 141.27,-193.84"/>
<polygon fill="#63b8ff" stroke="#63b8ff" points="144.57,-192.65 138.33,-184.09 137.87,-194.67 144.57,-192.65"/>
</a>
</g>
</g>
<!-- Node6 -->
<g id="Node000006" class="node">
<title>Node6</title>
<g id="a_Node000006"><a xlink:title=" ">
<polygon fill="#e0e0e0" stroke="#999999" points="225.23,-19 172.23,-19 172.23,0 225.23,0 225.23,-19"/>
<text text-anchor="middle" x="198.73" y="-7" font-family="Helvetica,sans-Serif" font-size="10.00">QString</text>
</a>
</g>
</g>
<!-- Node2&#45;&gt;Node6 -->
<g id="edge16_Node000002_Node000006" class="edge">
<title>Node2&#45;&gt;Node6</title>
<g id="a_edge16_Node000002_Node000006"><a xlink:title=" ">
<path fill="none" stroke="#63b8ff" d="M123,-219.98C72.08,-203.32 -25.7,-163.33 6.73,-110 40.56,-54.38 116.64,-28.46 162.22,-17.52"/>
<polygon fill="#63b8ff" stroke="#63b8ff" points="163.04,-20.93 172.01,-15.29 161.48,-14.1 163.04,-20.93"/>
</a>
</g>
</g>
<!-- Node2&#45;&gt;Node12 -->
<g id="edge15_Node000002_Node000012" class="edge">
<title>Node2&#45;&gt;Node12</title>
<g id="a_edge15_Node000002_Node000012"><a xlink:title=" ">
<path fill="none" stroke="#63b8ff" d="M167.48,-219.98C182.96,-211.61 206.83,-198.7 224.87,-188.95"/>
<polygon fill="#63b8ff" stroke="#63b8ff" points="226.57,-192.01 233.7,-184.17 223.24,-185.85 226.57,-192.01"/>
</a>
</g>
</g>
<!-- Node4 -->
<g id="Node000004" class="node">
<title>Node4</title>
<g id="a_Node000004"><a xlink:href="LogRecord_8h.html" target="_top" xlink:title=" ">
<polygon fill="white" stroke="#666666" points="338.23,-129 261.23,-129 261.23,-110 338.23,-110 338.23,-129"/>
<text text-anchor="middle" x="299.73" y="-117" font-family="Helvetica,sans-Serif" font-size="10.00">LogRecord.h</text>
</a>
</g>
</g>
<!-- Node3&#45;&gt;Node4 -->
<g id="edge3_Node000003_Node000004" class="edge">
<title>Node3&#45;&gt;Node4</title>
<g id="a_edge3_Node000003_Node000004"><a xlink:title=" ">
<path fill="none" stroke="#63b8ff" d="M162.08,-164.98C189.5,-156.13 232.63,-142.19 263.3,-132.28"/>
<polygon fill="#63b8ff" stroke="#63b8ff" points="264.74,-135.49 273.18,-129.08 262.59,-128.83 264.74,-135.49"/>
</a>
</g>
</g>
<!-- Node3&#45;&gt;Node6 -->
<g id="edge14_Node000003_Node000006" class="edge">
<title>Node3&#45;&gt;Node6</title>
<g id="a_edge14_Node000003_Node000006"><a xlink:title=" ">
<path fill="none" stroke="#63b8ff" d="M135.37,-164.92C134.87,-144.62 135.7,-92.54 154.73,-55 160.45,-43.72 170.07,-33.5 178.85,-25.71"/>
<polygon fill="#63b8ff" stroke="#63b8ff" points="181.12,-28.37 186.55,-19.27 176.63,-23 181.12,-28.37"/>
</a>
</g>
</g>
<!-- Node11 -->
<g id="Node000011" class="node">
<title>Node11</title>
<g id="a_Node000011"><a xlink:title=" ">
<polygon fill="#e0e0e0" stroke="#999999" points="107.73,-129 15.73,-129 15.73,-110 107.73,-110 107.73,-129"/>
<text text-anchor="middle" x="61.73" y="-117" font-family="Helvetica,sans-Serif" font-size="10.00">QSharedPointer</text>
</a>
</g>
</g>
<!-- Node3&#45;&gt;Node11 -->
<g id="edge13_Node000003_Node000011" class="edge">
<title>Node3&#45;&gt;Node11</title>
<g id="a_edge13_Node000003_Node000011"><a xlink:title=" ">
<path fill="none" stroke="#63b8ff" d="M123.85,-164.98C112.58,-156.92 95.45,-144.65 82.03,-135.03"/>
<polygon fill="#63b8ff" stroke="#63b8ff" points="84.01,-132.15 73.84,-129.17 79.93,-137.84 84.01,-132.15"/>
</a>
</g>
</g>
<!-- Node5 -->
<g id="Node000005" class="node">
<title>Node5</title>
<g id="a_Node000005"><a xlink:href="LogLevel_8h.html" target="_top" xlink:title=" ">
<polygon fill="white" stroke="#666666" points="233.23,-74 164.23,-74 164.23,-55 233.23,-55 233.23,-74"/>
<text text-anchor="middle" x="198.73" y="-62" font-family="Helvetica,sans-Serif" font-size="10.00">LogLevel.h</text>
</a>
</g>
</g>
<!-- Node4&#45;&gt;Node5 -->
<g id="edge4_Node000004_Node000005" class="edge">
<title>Node4&#45;&gt;Node5</title>
<g id="a_edge4_Node000004_Node000005"><a xlink:title=" ">
<path fill="none" stroke="#63b8ff" d="M283.51,-109.98C267.55,-101.61 242.96,-88.7 224.36,-78.95"/>
<polygon fill="#63b8ff" stroke="#63b8ff" points="225.74,-75.72 215.26,-74.17 222.49,-81.92 225.74,-75.72"/>
</a>
</g>
</g>
<!-- Node4&#45;&gt;Node6 -->
<g id="edge11_Node000004_Node000006" class="edge">
<title>Node4&#45;&gt;Node6</title>
<g id="a_edge11_Node000004_Node000006"><a xlink:title=" ">
<path fill="none" stroke="#63b8ff" d="M291.93,-109.8C280.86,-97.5 259.93,-74.37 241.73,-55 232.82,-45.51 222.7,-35.02 214.52,-26.62"/>
<polygon fill="#63b8ff" stroke="#63b8ff" points="216.86,-24.01 207.37,-19.29 211.85,-28.9 216.86,-24.01"/>
</a>
</g>
</g>
<!-- Node7 -->
<g id="Node000007" class="node">
<title>Node7</title>
<g id="a_Node000007"><a xlink:href="LogModule_8h.html" target="_top" xlink:title=" ">
<polygon fill="white" stroke="#666666" points="369.23,-74 290.23,-74 290.23,-55 369.23,-55 369.23,-74"/>
<text text-anchor="middle" x="329.73" y="-62" font-family="Helvetica,sans-Serif" font-size="10.00">LogModule.h</text>
</a>
</g>
</g>
<!-- Node4&#45;&gt;Node7 -->
<g id="edge6_Node000004_Node000007" class="edge">
<title>Node4&#45;&gt;Node7</title>
<g id="a_edge6_Node000004_Node000007"><a xlink:title=" ">
<path fill="none" stroke="#63b8ff" d="M304.69,-109.75C308.8,-102.49 314.76,-91.95 319.84,-82.98"/>
<polygon fill="#63b8ff" stroke="#63b8ff" points="322.99,-84.52 324.87,-74.09 316.9,-81.07 322.99,-84.52"/>
</a>
</g>
</g>
<!-- Node9 -->
<g id="Node000009" class="node">
<title>Node9</title>
<g id="a_Node000009"><a xlink:title=" ">
<polygon fill="#e0e0e0" stroke="#999999" points="427.23,-19 368.23,-19 368.23,0 427.23,0 427.23,-19"/>
<text text-anchor="middle" x="397.73" y="-7" font-family="Helvetica,sans-Serif" font-size="10.00">QtGlobal</text>
</a>
</g>
</g>
<!-- Node4&#45;&gt;Node9 -->
<g id="edge12_Node000004_Node000009" class="edge">
<title>Node4&#45;&gt;Node9</title>
<g id="a_edge12_Node000004_Node000009"><a xlink:title=" ">
<path fill="none" stroke="#63b8ff" d="M325.22,-109.97C342.64,-102.91 364.98,-91.22 378.73,-74 388.95,-61.22 393.68,-43.05 395.86,-29.41"/>
<polygon fill="#63b8ff" stroke="#63b8ff" points="399.37,-29.61 397.17,-19.25 392.42,-28.72 399.37,-29.61"/>
</a>
</g>
</g>
<!-- Node4&#45;&gt;Node10 -->
<g id="edge10_Node000004_Node000010" class="edge">
<title>Node4&#45;&gt;Node10</title>
<g id="a_edge10_Node000004_Node000010"><a xlink:title=" ">
<path fill="none" stroke="#63b8ff" d="M325.76,-109.98C352.84,-101.13 395.44,-87.19 425.74,-77.28"/>
<polygon fill="#63b8ff" stroke="#63b8ff" points="427.09,-80.52 435.5,-74.08 424.91,-73.87 427.09,-80.52"/>
</a>
</g>
</g>
<!-- Node5&#45;&gt;Node6 -->
<g id="edge5_Node000005_Node000006" class="edge">
<title>Node5&#45;&gt;Node6</title>
<g id="a_edge5_Node000005_Node000006"><a xlink:title=" ">
<path fill="none" stroke="#63b8ff" d="M198.73,-54.75C198.73,-47.8 198.73,-37.85 198.73,-29.13"/>
<polygon fill="#63b8ff" stroke="#63b8ff" points="202.23,-29.09 198.73,-19.09 195.23,-29.09 202.23,-29.09"/>
</a>
</g>
</g>
<!-- Node7&#45;&gt;Node6 -->
<g id="edge7_Node000007_Node000006" class="edge">
<title>Node7&#45;&gt;Node6</title>
<g id="a_edge7_Node000007_Node000006"><a xlink:title=" ">
<path fill="none" stroke="#63b8ff" d="M308.69,-54.98C287.33,-46.34 254.03,-32.87 229.67,-23.02"/>
<polygon fill="#63b8ff" stroke="#63b8ff" points="230.75,-19.68 220.17,-19.17 228.12,-26.17 230.75,-19.68"/>
</a>
</g>
</g>
<!-- Node8 -->
<g id="Node000008" class="node">
<title>Node8</title>
<g id="a_Node000008"><a xlink:title=" ">
<polygon fill="#e0e0e0" stroke="#999999" points="349.73,-19 279.73,-19 279.73,0 349.73,0 349.73,-19"/>
<text text-anchor="middle" x="314.73" y="-7" font-family="Helvetica,sans-Serif" font-size="10.00">QStringList</text>
</a>
</g>
</g>
<!-- Node7&#45;&gt;Node8 -->
<g id="edge8_Node000007_Node000008" class="edge">
<title>Node7&#45;&gt;Node8</title>
<g id="a_edge8_Node000007_Node000008"><a xlink:title=" ">
<path fill="none" stroke="#63b8ff" d="M327.26,-54.75C325.27,-47.72 322.41,-37.62 319.93,-28.84"/>
<polygon fill="#63b8ff" stroke="#63b8ff" points="323.26,-27.76 317.17,-19.09 316.52,-29.66 323.26,-27.76"/>
</a>
</g>
</g>
<!-- Node7&#45;&gt;Node9 -->
<g id="edge9_Node000007_Node000009" class="edge">
<title>Node7&#45;&gt;Node9</title>
<g id="a_edge9_Node000007_Node000009"><a xlink:title=" ">
<path fill="none" stroke="#63b8ff" d="M340.66,-54.98C350.81,-47.07 366.16,-35.11 378.38,-25.58"/>
<polygon fill="#63b8ff" stroke="#63b8ff" points="380.87,-28.08 386.61,-19.17 376.57,-22.56 380.87,-28.08"/>
</a>
</g>
</g>
</g>
</svg>
