<?xml version="1.0" encoding="UTF-8" standalone="no"?>
<!DOCTYPE svg PUBLIC "-//W3C//DTD SVG 1.1//EN"
 "http://www.w3.org/Graphics/SVG/1.1/DTD/svg11.dtd">
<!-- Generated by graphviz version 2.43.0 (0)
 -->
<!-- Title: services/pipeline/queue/PipelineQueueManager.h Pages: 1 -->
<svg width="616pt" height="302pt"
 viewBox="0.00 0.00 615.50 302.00" xmlns="http://www.w3.org/2000/svg" xmlns:xlink="http://www.w3.org/1999/xlink">
<g id="graph0" class="graph" transform="scale(1 1) rotate(0) translate(4 298)">
<title>services/pipeline/queue/PipelineQueueManager.h</title>
<!-- Node1 -->
<g id="Node000001" class="node">
<title>Node1</title>
<g id="a_Node000001"><a xlink:title=" ">
<polygon fill="#999999" stroke="#666666" points="354,-294 213,-294 213,-264 354,-264 354,-294"/>
<text text-anchor="start" x="221" y="-282" font-family="Helvetica,sans-Serif" font-size="10.00">services/pipeline/queue</text>
<text text-anchor="middle" x="283.5" y="-271" font-family="Helvetica,sans-Serif" font-size="10.00">/PipelineQueueManager.h</text>
</a>
</g>
</g>
<!-- Node2 -->
<g id="Node000002" class="node">
<title>Node2</title>
<g id="a_Node000002"><a xlink:href="ExportService__Pipeline_8h.html" target="_top" xlink:title=" ">
<polygon fill="white" stroke="#666666" points="371.5,-162 243.5,-162 243.5,-132 371.5,-132 371.5,-162"/>
<text text-anchor="start" x="251.5" y="-150" font-family="Helvetica,sans-Serif" font-size="10.00">services/ExportService</text>
<text text-anchor="middle" x="307.5" y="-139" font-family="Helvetica,sans-Serif" font-size="10.00">_Pipeline.h</text>
</a>
</g>
</g>
<!-- Node1&#45;&gt;Node2 -->
<g id="edge1_Node000001_Node000002" class="edge">
<title>Node1&#45;&gt;Node2</title>
<g id="a_edge1_Node000001_Node000002"><a xlink:title=" ">
<path fill="none" stroke="#63b8ff" d="M302.27,-255.63C308,-247.46 313.56,-237.8 316.5,-228 323.21,-205.65 317.34,-178.41 312.44,-162.18"/>
<polygon fill="#63b8ff" stroke="#63b8ff" points="299.31,-253.75 296.11,-263.85 304.91,-257.95 299.31,-253.75"/>
</a>
</g>
</g>
<!-- Node8 -->
<g id="Node000008" class="node">
<title>Node8</title>
<g id="a_Node000008"><a xlink:href="PipelineQueueManager_8cpp.html" target="_top" xlink:title=" ">
<polygon fill="white" stroke="#666666" points="307.5,-228 155.5,-228 155.5,-198 307.5,-198 307.5,-228"/>
<text text-anchor="start" x="163.5" y="-216" font-family="Helvetica,sans-Serif" font-size="10.00">services/pipeline/queue</text>
<text text-anchor="middle" x="231.5" y="-205" font-family="Helvetica,sans-Serif" font-size="10.00">/PipelineQueueManager.cpp</text>
</a>
</g>
</g>
<!-- Node1&#45;&gt;Node8 -->
<g id="edge9_Node000001_Node000008" class="edge">
<title>Node1&#45;&gt;Node8</title>
<g id="a_edge9_Node000001_Node000008"><a xlink:title=" ">
<path fill="none" stroke="#63b8ff" d="M265.47,-255.81C258.02,-246.64 249.6,-236.28 243.01,-228.16"/>
<polygon fill="#63b8ff" stroke="#63b8ff" points="262.94,-258.24 271.96,-263.8 268.37,-253.83 262.94,-258.24"/>
</a>
</g>
</g>
<!-- Node9 -->
<g id="Node000009" class="node">
<title>Node9</title>
<g id="a_Node000009"><a xlink:href="ProcessStageHandler_8h.html" target="_top" xlink:title=" ">
<polygon fill="white" stroke="#666666" points="137,-228 6,-228 6,-198 137,-198 137,-228"/>
<text text-anchor="start" x="14" y="-216" font-family="Helvetica,sans-Serif" font-size="10.00">services/pipeline/stage</text>
<text text-anchor="middle" x="71.5" y="-205" font-family="Helvetica,sans-Serif" font-size="10.00">/ProcessStageHandler.h</text>
</a>
</g>
</g>
<!-- Node1&#45;&gt;Node9 -->
<g id="edge10_Node000001_Node000009" class="edge">
<title>Node1&#45;&gt;Node9</title>
<g id="a_edge10_Node000001_Node000009"><a xlink:title=" ">
<path fill="none" stroke="#63b8ff" d="M227.15,-260.99C193.04,-250.69 150.06,-237.72 117.92,-228.01"/>
<polygon fill="#63b8ff" stroke="#63b8ff" points="226.39,-264.42 236.98,-263.95 228.41,-257.71 226.39,-264.42"/>
</a>
</g>
</g>
<!-- Node11 -->
<g id="Node000011" class="node">
<title>Node11</title>
<g id="a_Node000011"><a xlink:href="WriteStageHandler_8h.html" target="_top" xlink:title=" ">
<polygon fill="white" stroke="#666666" points="493,-228 364,-228 364,-198 493,-198 493,-228"/>
<text text-anchor="start" x="372" y="-216" font-family="Helvetica,sans-Serif" font-size="10.00">services/pipeline/stage</text>
<text text-anchor="middle" x="428.5" y="-205" font-family="Helvetica,sans-Serif" font-size="10.00">/WriteStageHandler.h</text>
</a>
</g>
</g>
<!-- Node1&#45;&gt;Node11 -->
<g id="edge13_Node000001_Node000011" class="edge">
<title>Node1&#45;&gt;Node11</title>
<g id="a_edge13_Node000001_Node000011"><a xlink:title=" ">
<path fill="none" stroke="#63b8ff" d="M324.77,-259.78C347.63,-249.69 375.62,-237.34 396.75,-228.01"/>
<polygon fill="#63b8ff" stroke="#63b8ff" points="323.06,-256.71 315.32,-263.95 325.88,-263.12 323.06,-256.71"/>
</a>
</g>
</g>
<!-- Node3 -->
<g id="Node000003" class="node">
<title>Node3</title>
<g id="a_Node000003"><a xlink:href="main_8cpp.html" target="_top" xlink:title=" ">
<polygon fill="white" stroke="#666666" points="200.5,-24.5 138.5,-24.5 138.5,-5.5 200.5,-5.5 200.5,-24.5"/>
<text text-anchor="middle" x="169.5" y="-12.5" font-family="Helvetica,sans-Serif" font-size="10.00">main.cpp</text>
</a>
</g>
</g>
<!-- Node2&#45;&gt;Node3 -->
<g id="edge2_Node000002_Node000003" class="edge">
<title>Node2&#45;&gt;Node3</title>
<g id="a_edge2_Node000002_Node000003"><a xlink:title=" ">
<path fill="none" stroke="#63b8ff" d="M233.38,-140.39C171.69,-134 90.79,-121.02 70.5,-96 45.31,-64.94 105.23,-37.81 142.5,-24.58"/>
<polygon fill="#63b8ff" stroke="#63b8ff" points="233.2,-143.89 243.49,-141.4 233.89,-136.93 233.2,-143.89"/>
</a>
</g>
</g>
<!-- Node4 -->
<g id="Node000004" class="node">
<title>Node4</title>
<g id="a_Node000004"><a xlink:href="ExportService__Pipeline_8cpp.html" target="_top" xlink:title=" ">
<polygon fill="white" stroke="#666666" points="207.5,-96 79.5,-96 79.5,-66 207.5,-66 207.5,-96"/>
<text text-anchor="start" x="87.5" y="-84" font-family="Helvetica,sans-Serif" font-size="10.00">services/ExportService</text>
<text text-anchor="middle" x="143.5" y="-73" font-family="Helvetica,sans-Serif" font-size="10.00">_Pipeline.cpp</text>
</a>
</g>
</g>
<!-- Node2&#45;&gt;Node4 -->
<g id="edge3_Node000002_Node000004" class="edge">
<title>Node2&#45;&gt;Node4</title>
<g id="a_edge3_Node000002_Node000004"><a xlink:title=" ">
<path fill="none" stroke="#63b8ff" d="M261.86,-128.19C235.81,-118.02 203.63,-105.47 179.41,-96.01"/>
<polygon fill="#63b8ff" stroke="#63b8ff" points="260.92,-131.58 271.51,-131.95 263.47,-125.06 260.92,-131.58"/>
</a>
</g>
</g>
<!-- Node5 -->
<g id="Node000005" class="node">
<title>Node5</title>
<g id="a_Node000005"><a xlink:href="ExportProgressViewModel_8cpp.html" target="_top" xlink:title=" ">
<polygon fill="white" stroke="#666666" points="444.5,-30 280.5,-30 280.5,0 444.5,0 444.5,-30"/>
<text text-anchor="start" x="288.5" y="-18" font-family="Helvetica,sans-Serif" font-size="10.00">ui/viewmodels/ExportProgress</text>
<text text-anchor="middle" x="362.5" y="-7" font-family="Helvetica,sans-Serif" font-size="10.00">ViewModel.cpp</text>
</a>
</g>
</g>
<!-- Node2&#45;&gt;Node5 -->
<g id="edge4_Node000002_Node000005" class="edge">
<title>Node2&#45;&gt;Node5</title>
<g id="a_edge4_Node000002_Node000005"><a xlink:title=" ">
<path fill="none" stroke="#63b8ff" d="M362.92,-127.45C376.97,-119.97 390.37,-109.75 398.5,-96 411.53,-73.98 391.95,-46.41 376.96,-30.05"/>
<polygon fill="#63b8ff" stroke="#63b8ff" points="361.09,-124.45 353.64,-131.99 364.16,-130.74 361.09,-124.45"/>
</a>
</g>
</g>
<!-- Node6 -->
<g id="Node000006" class="node">
<title>Node6</title>
<g id="a_Node000006"><a xlink:href="ExportProgressViewModel_8h.html" target="_top" xlink:title=" ">
<polygon fill="white" stroke="#666666" points="389.5,-96 225.5,-96 225.5,-66 389.5,-66 389.5,-96"/>
<text text-anchor="start" x="233.5" y="-84" font-family="Helvetica,sans-Serif" font-size="10.00">ui/viewmodels/ExportProgress</text>
<text text-anchor="middle" x="307.5" y="-73" font-family="Helvetica,sans-Serif" font-size="10.00">ViewModel.h</text>
</a>
</g>
</g>
<!-- Node2&#45;&gt;Node6 -->
<g id="edge5_Node000002_Node000006" class="edge">
<title>Node2&#45;&gt;Node6</title>
<g id="a_edge5_Node000002_Node000006"><a xlink:title=" ">
<path fill="none" stroke="#63b8ff" d="M307.5,-121.54C307.5,-112.96 307.5,-103.61 307.5,-96.16"/>
<polygon fill="#63b8ff" stroke="#63b8ff" points="304,-121.8 307.5,-131.8 311,-121.8 304,-121.8"/>
</a>
</g>
</g>
<!-- Node7 -->
<g id="Node000007" class="node">
<title>Node7</title>
<g id="a_Node000007"><a xlink:href="ExportSettingsViewModel_8cpp.html" target="_top" xlink:title=" ">
<polygon fill="white" stroke="#666666" points="607.5,-96 445.5,-96 445.5,-66 607.5,-66 607.5,-96"/>
<text text-anchor="start" x="453.5" y="-84" font-family="Helvetica,sans-Serif" font-size="10.00">ui/viewmodels/ExportSettings</text>
<text text-anchor="middle" x="526.5" y="-73" font-family="Helvetica,sans-Serif" font-size="10.00">ViewModel.cpp</text>
</a>
</g>
</g>
<!-- Node2&#45;&gt;Node7 -->
<g id="edge8_Node000002_Node000007" class="edge">
<title>Node2&#45;&gt;Node7</title>
<g id="a_edge8_Node000002_Node000007"><a xlink:title=" ">
<path fill="none" stroke="#63b8ff" d="M365.26,-129.12C400.57,-118.8 445.2,-105.76 478.55,-96.01"/>
<polygon fill="#63b8ff" stroke="#63b8ff" points="364.18,-125.79 355.56,-131.95 366.14,-132.51 364.18,-125.79"/>
</a>
</g>
</g>
<!-- Node6&#45;&gt;Node3 -->
<g id="edge6_Node000006_Node000003" class="edge">
<title>Node6&#45;&gt;Node3</title>
<g id="a_edge6_Node000006_Node000003"><a xlink:title=" ">
<path fill="none" stroke="#63b8ff" d="M267.87,-61.62C241.53,-49.41 208.18,-33.94 187.87,-24.52"/>
<polygon fill="#63b8ff" stroke="#63b8ff" points="266.67,-64.92 277.22,-65.95 269.62,-58.57 266.67,-64.92"/>
</a>
</g>
</g>
<!-- Node6&#45;&gt;Node5 -->
<g id="edge7_Node000006_Node000005" class="edge">
<title>Node6&#45;&gt;Node5</title>
<g id="a_edge7_Node000006_Node000005"><a xlink:title=" ">
<path fill="none" stroke="#63b8ff" d="M326.33,-58.09C334.27,-48.85 343.28,-38.36 350.33,-30.16"/>
<polygon fill="#63b8ff" stroke="#63b8ff" points="323.57,-55.93 319.71,-65.8 328.88,-60.49 323.57,-55.93"/>
</a>
</g>
</g>
<!-- Node9&#45;&gt;Node2 -->
<g id="edge11_Node000009_Node000002" class="edge">
<title>Node9&#45;&gt;Node2</title>
<g id="a_edge11_Node000009_Node000002"><a xlink:title=" ">
<path fill="none" stroke="#63b8ff" d="M133.25,-195.25C171.38,-184.91 219.74,-171.8 255.83,-162.01"/>
<polygon fill="#63b8ff" stroke="#63b8ff" points="132.03,-191.96 123.29,-197.95 133.86,-198.72 132.03,-191.96"/>
</a>
</g>
</g>
<!-- Node10 -->
<g id="Node000010" class="node">
<title>Node10</title>
<g id="a_Node000010"><a xlink:href="ProcessStageHandler_8cpp.html" target="_top" xlink:title=" ">
<polygon fill="white" stroke="#666666" points="143,-162 0,-162 0,-132 143,-132 143,-162"/>
<text text-anchor="start" x="8" y="-150" font-family="Helvetica,sans-Serif" font-size="10.00">services/pipeline/stage</text>
<text text-anchor="middle" x="71.5" y="-139" font-family="Helvetica,sans-Serif" font-size="10.00">/ProcessStageHandler.cpp</text>
</a>
</g>
</g>
<!-- Node9&#45;&gt;Node10 -->
<g id="edge12_Node000009_Node000010" class="edge">
<title>Node9&#45;&gt;Node10</title>
<g id="a_edge12_Node000009_Node000010"><a xlink:title=" ">
<path fill="none" stroke="#63b8ff" d="M71.5,-187.54C71.5,-178.96 71.5,-169.61 71.5,-162.16"/>
<polygon fill="#63b8ff" stroke="#63b8ff" points="68,-187.8 71.5,-197.8 75,-187.8 68,-187.8"/>
</a>
</g>
</g>
<!-- Node11&#45;&gt;Node2 -->
<g id="edge14_Node000011_Node000002" class="edge">
<title>Node11&#45;&gt;Node2</title>
<g id="a_edge14_Node000011_Node000002"><a xlink:title=" ">
<path fill="none" stroke="#63b8ff" d="M393.03,-193.24C374.15,-183.25 351.32,-171.18 333.99,-162.01"/>
<polygon fill="#63b8ff" stroke="#63b8ff" points="391.47,-196.37 401.95,-197.95 394.74,-190.19 391.47,-196.37"/>
</a>
</g>
</g>
<!-- Node12 -->
<g id="Node000012" class="node">
<title>Node12</title>
<g id="a_Node000012"><a xlink:href="WriteStageHandler_8cpp.html" target="_top" xlink:title=" ">
<polygon fill="white" stroke="#666666" points="521,-162 390,-162 390,-132 521,-132 521,-162"/>
<text text-anchor="start" x="398" y="-150" font-family="Helvetica,sans-Serif" font-size="10.00">services/pipeline/stage</text>
<text text-anchor="middle" x="455.5" y="-139" font-family="Helvetica,sans-Serif" font-size="10.00">/WriteStageHandler.cpp</text>
</a>
</g>
</g>
<!-- Node11&#45;&gt;Node12 -->
<g id="edge15_Node000011_Node000012" class="edge">
<title>Node11&#45;&gt;Node12</title>
<g id="a_edge15_Node000011_Node000012"><a xlink:title=" ">
<path fill="none" stroke="#63b8ff" d="M438.46,-188.39C442.17,-179.59 446.28,-169.86 449.52,-162.16"/>
<polygon fill="#63b8ff" stroke="#63b8ff" points="435.15,-187.22 434.49,-197.8 441.6,-189.94 435.15,-187.22"/>
</a>
</g>
</g>
</g>
</svg>
