<?xml version="1.0" encoding="UTF-8" standalone="no"?>
<!DOCTYPE svg PUBLIC "-//W3C//DTD SVG 1.1//EN"
 "http://www.w3.org/Graphics/SVG/1.1/DTD/svg11.dtd">
<!-- Generated by graphviz version 2.43.0 (0)
 -->
<!-- Title: services/pipeline/cleanup/PipelineCleanup.h Pages: 1 -->
<svg width="724pt" height="335pt"
 viewBox="0.00 0.00 724.47 335.00" xmlns="http://www.w3.org/2000/svg" xmlns:xlink="http://www.w3.org/1999/xlink">
<g id="graph0" class="graph" transform="scale(1 1) rotate(0) translate(4 331)">
<title>services/pipeline/cleanup/PipelineCleanup.h</title>
<!-- Node1 -->
<g id="Node000001" class="node">
<title>Node1</title>
<g id="a_Node000001"><a xlink:title=" ">
<polygon fill="#999999" stroke="#666666" points="212,-327 72,-327 72,-297 212,-297 212,-327"/>
<text text-anchor="start" x="80" y="-315" font-family="Helvetica,sans-Serif" font-size="10.00">services/pipeline/cleanup</text>
<text text-anchor="middle" x="142" y="-304" font-family="Helvetica,sans-Serif" font-size="10.00">/PipelineCleanup.h</text>
</a>
</g>
</g>
<!-- Node2 -->
<g id="Node000002" class="node">
<title>Node2</title>
<g id="a_Node000002"><a xlink:href="ComponentData_8h.html" target="_top" xlink:title=" ">
<polygon fill="white" stroke="#666666" points="541.5,-195 402.5,-195 402.5,-165 541.5,-165 541.5,-195"/>
<text text-anchor="start" x="410.5" y="-183" font-family="Helvetica,sans-Serif" font-size="10.00">../../../models/Component</text>
<text text-anchor="middle" x="472" y="-172" font-family="Helvetica,sans-Serif" font-size="10.00">Data.h</text>
</a>
</g>
</g>
<!-- Node1&#45;&gt;Node2 -->
<g id="edge1_Node000001_Node000002" class="edge">
<title>Node1&#45;&gt;Node2</title>
<g id="a_edge1_Node000001_Node000002"><a xlink:title=" ">
<path fill="none" stroke="#63b8ff" d="M212.44,-299.57C249.57,-291.83 295.14,-279.56 333,-261 352.64,-251.37 353.47,-242.61 372,-231 390.63,-219.33 412.35,-208.2 430.78,-199.41"/>
<polygon fill="#63b8ff" stroke="#63b8ff" points="432.52,-202.46 440.08,-195.04 429.54,-196.13 432.52,-202.46"/>
</a>
</g>
</g>
<!-- Node7 -->
<g id="Node000007" class="node">
<title>Node7</title>
<g id="a_Node000007"><a xlink:title=" ">
<polygon fill="#e0e0e0" stroke="#999999" points="185.5,-19 132.5,-19 132.5,0 185.5,0 185.5,-19"/>
<text text-anchor="middle" x="159" y="-7" font-family="Helvetica,sans-Serif" font-size="10.00">QString</text>
</a>
</g>
</g>
<!-- Node1&#45;&gt;Node7 -->
<g id="edge36_Node000001_Node000007" class="edge">
<title>Node1&#45;&gt;Node7</title>
<g id="a_edge36_Node000001_Node000007"><a xlink:title=" ">
<path fill="none" stroke="#63b8ff" d="M106.53,-296.93C64.47,-277.64 0,-238.66 0,-181 0,-181 0,-181 0,-118.5 0,-59.59 75.62,-30.57 122.56,-18.23"/>
<polygon fill="#63b8ff" stroke="#63b8ff" points="123.53,-21.59 132.39,-15.78 121.84,-14.8 123.53,-21.59"/>
</a>
</g>
</g>
<!-- Node9 -->
<g id="Node000009" class="node">
<title>Node9</title>
<g id="a_Node000009"><a xlink:title=" ">
<polygon fill="#e0e0e0" stroke="#999999" points="355.5,-74 314.5,-74 314.5,-55 355.5,-55 355.5,-74"/>
<text text-anchor="middle" x="335" y="-62" font-family="Helvetica,sans-Serif" font-size="10.00">QList</text>
</a>
</g>
</g>
<!-- Node1&#45;&gt;Node9 -->
<g id="edge33_Node000001_Node000009" class="edge">
<title>Node1&#45;&gt;Node9</title>
<g id="a_edge33_Node000001_Node000009"><a xlink:title=" ">
<path fill="none" stroke="#63b8ff" d="M131.67,-296.97C106.81,-261.38 49.1,-166.44 96,-110 102.65,-102 240.73,-79.94 303.92,-70.21"/>
<polygon fill="#63b8ff" stroke="#63b8ff" points="304.74,-73.63 314.09,-68.65 303.68,-66.71 304.74,-73.63"/>
</a>
</g>
</g>
<!-- Node13 -->
<g id="Node000013" class="node">
<title>Node13</title>
<g id="a_Node000013"><a xlink:title=" ">
<polygon fill="#e0e0e0" stroke="#999999" points="197,-129 105,-129 105,-110 197,-110 197,-129"/>
<text text-anchor="middle" x="151" y="-117" font-family="Helvetica,sans-Serif" font-size="10.00">QSharedPointer</text>
</a>
</g>
</g>
<!-- Node1&#45;&gt;Node13 -->
<g id="edge35_Node000001_Node000013" class="edge">
<title>Node1&#45;&gt;Node13</title>
<g id="a_edge35_Node000001_Node000013"><a xlink:title=" ">
<path fill="none" stroke="#63b8ff" d="M142.66,-296.99C144.25,-263.35 148.29,-177.97 150.1,-139.64"/>
<polygon fill="#63b8ff" stroke="#63b8ff" points="153.61,-139.52 150.58,-129.36 146.61,-139.19 153.61,-139.52"/>
</a>
</g>
</g>
<!-- Node14 -->
<g id="Node000014" class="node">
<title>Node14</title>
<g id="a_Node000014"><a xlink:href="ComponentExportStatus_8h.html" target="_top" xlink:title=" ">
<polygon fill="white" stroke="#666666" points="323.5,-261 184.5,-261 184.5,-231 323.5,-231 323.5,-261"/>
<text text-anchor="start" x="192.5" y="-249" font-family="Helvetica,sans-Serif" font-size="10.00">../../../models/Component</text>
<text text-anchor="middle" x="254" y="-238" font-family="Helvetica,sans-Serif" font-size="10.00">ExportStatus.h</text>
</a>
</g>
</g>
<!-- Node1&#45;&gt;Node14 -->
<g id="edge24_Node000001_Node000014" class="edge">
<title>Node1&#45;&gt;Node14</title>
<g id="a_edge24_Node000001_Node000014"><a xlink:title=" ">
<path fill="none" stroke="#63b8ff" d="M166.58,-296.95C182.48,-287.87 203.38,-275.93 220.76,-266"/>
<polygon fill="#63b8ff" stroke="#63b8ff" points="222.53,-269.01 229.48,-261.01 219.06,-262.93 222.53,-269.01"/>
</a>
</g>
</g>
<!-- Node17 -->
<g id="Node000017" class="node">
<title>Node17</title>
<g id="a_Node000017"><a xlink:title=" ">
<polygon fill="#e0e0e0" stroke="#999999" points="425.5,-255.5 380.5,-255.5 380.5,-236.5 425.5,-236.5 425.5,-255.5"/>
<text text-anchor="middle" x="403" y="-243.5" font-family="Helvetica,sans-Serif" font-size="10.00">QMap</text>
</a>
</g>
</g>
<!-- Node1&#45;&gt;Node17 -->
<g id="edge34_Node000001_Node000017" class="edge">
<title>Node1&#45;&gt;Node17</title>
<g id="a_edge34_Node000001_Node000017"><a xlink:title=" ">
<path fill="none" stroke="#63b8ff" d="M212.03,-298.03C256.53,-289.14 315.13,-276.22 366,-261 368.14,-260.36 370.33,-259.66 372.53,-258.92"/>
<polygon fill="#63b8ff" stroke="#63b8ff" points="373.8,-262.18 382.05,-255.52 371.45,-255.59 373.8,-262.18"/>
</a>
</g>
</g>
<!-- Node3 -->
<g id="Node000003" class="node">
<title>Node3</title>
<g id="a_Node000003"><a xlink:href="FootprintData_8h.html" target="_top" xlink:title=" ">
<polygon fill="white" stroke="#666666" points="592,-129 500,-129 500,-110 592,-110 592,-129"/>
<text text-anchor="middle" x="546" y="-117" font-family="Helvetica,sans-Serif" font-size="10.00">FootprintData.h</text>
</a>
</g>
</g>
<!-- Node2&#45;&gt;Node3 -->
<g id="edge2_Node000002_Node000003" class="edge">
<title>Node2&#45;&gt;Node3</title>
<g id="a_edge2_Node000002_Node000003"><a xlink:title=" ">
<path fill="none" stroke="#63b8ff" d="M489.91,-164.84C501.09,-156 515.48,-144.63 526.88,-135.62"/>
<polygon fill="#63b8ff" stroke="#63b8ff" points="529.24,-138.21 534.91,-129.27 524.9,-132.72 529.24,-138.21"/>
</a>
</g>
</g>
<!-- Node4 -->
<g id="Node000004" class="node">
<title>Node4</title>
<g id="a_Node000004"><a xlink:href="Model3DData_8h.html" target="_top" xlink:title=" ">
<polygon fill="white" stroke="#666666" points="704,-74 612,-74 612,-55 704,-55 704,-74"/>
<text text-anchor="middle" x="658" y="-62" font-family="Helvetica,sans-Serif" font-size="10.00">Model3DData.h</text>
</a>
</g>
</g>
<!-- Node2&#45;&gt;Node4 -->
<g id="edge12_Node000002_Node000004" class="edge">
<title>Node2&#45;&gt;Node4</title>
<g id="a_edge12_Node000002_Node000004"><a xlink:title=" ">
<path fill="none" stroke="#63b8ff" d="M524.34,-164.91C548.95,-156.79 577.88,-144.97 601,-129 619.4,-116.29 635.92,-96.49 646.37,-82.39"/>
<polygon fill="#63b8ff" stroke="#63b8ff" points="649.36,-84.23 652.33,-74.07 643.66,-80.16 649.36,-84.23"/>
</a>
</g>
</g>
<!-- Node6 -->
<g id="Node000006" class="node">
<title>Node6</title>
<g id="a_Node000006"><a xlink:title=" ">
<polygon fill="#e0e0e0" stroke="#999999" points="622,-19 546,-19 546,0 622,0 622,-19"/>
<text text-anchor="middle" x="584" y="-7" font-family="Helvetica,sans-Serif" font-size="10.00">QJsonObject</text>
</a>
</g>
</g>
<!-- Node2&#45;&gt;Node6 -->
<g id="edge21_Node000002_Node000006" class="edge">
<title>Node2&#45;&gt;Node6</title>
<g id="a_edge21_Node000002_Node000006"><a xlink:title=" ">
<path fill="none" stroke="#63b8ff" d="M541.78,-171.24C600.2,-160.48 679.26,-134.87 713,-74 717.09,-66.61 717.9,-61.88 713,-55 703.22,-41.28 664.46,-29.06 631.96,-20.92"/>
<polygon fill="#63b8ff" stroke="#63b8ff" points="632.66,-17.49 622.11,-18.52 631,-24.29 632.66,-17.49"/>
</a>
</g>
</g>
<!-- Node2&#45;&gt;Node7 -->
<g id="edge23_Node000002_Node000007" class="edge">
<title>Node2&#45;&gt;Node7</title>
<g id="a_edge23_Node000002_Node000007"><a xlink:title=" ">
<path fill="none" stroke="#63b8ff" d="M411.21,-164.97C334.04,-145.93 207.17,-110.12 176,-74 165.4,-61.71 161.33,-43.49 159.81,-29.71"/>
<polygon fill="#63b8ff" stroke="#63b8ff" points="163.27,-29.12 159.04,-19.41 156.29,-29.64 163.27,-29.12"/>
</a>
</g>
</g>
<!-- Node8 -->
<g id="Node000008" class="node">
<title>Node8</title>
<g id="a_Node000008"><a xlink:title=" ">
<polygon fill="#e0e0e0" stroke="#999999" points="517.5,-74 446.5,-74 446.5,-55 517.5,-55 517.5,-74"/>
<text text-anchor="middle" x="482" y="-62" font-family="Helvetica,sans-Serif" font-size="10.00">QJsonArray</text>
</a>
</g>
</g>
<!-- Node2&#45;&gt;Node8 -->
<g id="edge20_Node000002_Node000008" class="edge">
<title>Node2&#45;&gt;Node8</title>
<g id="a_edge20_Node000002_Node000008"><a xlink:title=" ">
<path fill="none" stroke="#63b8ff" d="M473.27,-164.63C475.06,-144.21 478.36,-106.81 480.35,-84.24"/>
<polygon fill="#63b8ff" stroke="#63b8ff" points="483.84,-84.5 481.23,-74.23 476.87,-83.88 483.84,-84.5"/>
</a>
</g>
</g>
<!-- Node11 -->
<g id="Node000011" class="node">
<title>Node11</title>
<g id="a_Node000011"><a xlink:href="SymbolData_8h.html" target="_top" xlink:title=" ">
<polygon fill="white" stroke="#666666" points="398,-129 312,-129 312,-110 398,-110 398,-129"/>
<text text-anchor="middle" x="355" y="-117" font-family="Helvetica,sans-Serif" font-size="10.00">SymbolData.h</text>
</a>
</g>
</g>
<!-- Node2&#45;&gt;Node11 -->
<g id="edge13_Node000002_Node000011" class="edge">
<title>Node2&#45;&gt;Node11</title>
<g id="a_edge13_Node000002_Node000011"><a xlink:title=" ">
<path fill="none" stroke="#63b8ff" d="M443.98,-164.99C424.98,-155.49 400.03,-143.02 381.39,-133.69"/>
<polygon fill="#63b8ff" stroke="#63b8ff" points="382.79,-130.48 372.28,-129.14 379.66,-136.74 382.79,-130.48"/>
</a>
</g>
</g>
<!-- Node2&#45;&gt;Node13 -->
<g id="edge22_Node000002_Node000013" class="edge">
<title>Node2&#45;&gt;Node13</title>
<g id="a_edge22_Node000002_Node000013"><a xlink:title=" ">
<path fill="none" stroke="#63b8ff" d="M402.35,-166.31C343.97,-155.67 261.68,-140.67 207.38,-130.77"/>
<polygon fill="#63b8ff" stroke="#63b8ff" points="207.71,-127.28 197.24,-128.93 206.45,-134.16 207.71,-127.28"/>
</a>
</g>
</g>
<!-- Node3&#45;&gt;Node4 -->
<g id="edge3_Node000003_Node000004" class="edge">
<title>Node3&#45;&gt;Node4</title>
<g id="a_edge3_Node000003_Node000004"><a xlink:title=" ">
<path fill="none" stroke="#63b8ff" d="M563.99,-109.98C581.93,-101.5 609.72,-88.35 630.43,-78.54"/>
<polygon fill="#63b8ff" stroke="#63b8ff" points="632.14,-81.61 639.68,-74.17 629.14,-75.28 632.14,-81.61"/>
</a>
</g>
</g>
<!-- Node3&#45;&gt;Node6 -->
<g id="edge8_Node000003_Node000006" class="edge">
<title>Node3&#45;&gt;Node6</title>
<g id="a_edge8_Node000003_Node000006"><a xlink:title=" ">
<path fill="none" stroke="#63b8ff" d="M549.11,-109.66C555.32,-92.01 569.37,-52.09 577.62,-28.64"/>
<polygon fill="#63b8ff" stroke="#63b8ff" points="580.94,-29.75 580.95,-19.16 574.33,-27.43 580.94,-29.75"/>
</a>
</g>
</g>
<!-- Node3&#45;&gt;Node7 -->
<g id="edge11_Node000003_Node000007" class="edge">
<title>Node3&#45;&gt;Node7</title>
<g id="a_edge11_Node000003_Node000007"><a xlink:title=" ">
<path fill="none" stroke="#63b8ff" d="M546.19,-109.95C545.98,-96.06 543.37,-68.79 527,-55 477.56,-13.34 279,-9.66 195.88,-10.01"/>
<polygon fill="#63b8ff" stroke="#63b8ff" points="195.62,-6.51 185.64,-10.07 195.66,-13.51 195.62,-6.51"/>
</a>
</g>
</g>
<!-- Node3&#45;&gt;Node8 -->
<g id="edge7_Node000003_Node000008" class="edge">
<title>Node3&#45;&gt;Node8</title>
<g id="a_edge7_Node000003_Node000008"><a xlink:title=" ">
<path fill="none" stroke="#63b8ff" d="M535.72,-109.98C526.16,-102.07 511.72,-90.11 500.22,-80.58"/>
<polygon fill="#63b8ff" stroke="#63b8ff" points="502.4,-77.85 492.47,-74.17 497.94,-83.24 502.4,-77.85"/>
</a>
</g>
</g>
<!-- Node3&#45;&gt;Node9 -->
<g id="edge9_Node000003_Node000009" class="edge">
<title>Node3&#45;&gt;Node9</title>
<g id="a_edge9_Node000003_Node000009"><a xlink:title=" ">
<path fill="none" stroke="#63b8ff" d="M509.5,-109.92C474.88,-101.7 421.18,-88.72 365.34,-74.02"/>
<polygon fill="#63b8ff" stroke="#63b8ff" points="366.19,-70.62 355.63,-71.45 364.4,-77.39 366.19,-70.62"/>
</a>
</g>
</g>
<!-- Node10 -->
<g id="Node000010" class="node">
<title>Node10</title>
<g id="a_Node000010"><a xlink:title=" ">
<polygon fill="#e0e0e0" stroke="#999999" points="428.5,-74 373.5,-74 373.5,-55 428.5,-55 428.5,-74"/>
<text text-anchor="middle" x="401" y="-62" font-family="Helvetica,sans-Serif" font-size="10.00">QPointF</text>
</a>
</g>
</g>
<!-- Node3&#45;&gt;Node10 -->
<g id="edge10_Node000003_Node000010" class="edge">
<title>Node3&#45;&gt;Node10</title>
<g id="a_edge10_Node000003_Node000010"><a xlink:title=" ">
<path fill="none" stroke="#63b8ff" d="M522.7,-109.98C498.75,-101.23 461.22,-87.51 434.17,-77.62"/>
<polygon fill="#63b8ff" stroke="#63b8ff" points="435.31,-74.32 424.72,-74.17 432.91,-80.89 435.31,-74.32"/>
</a>
</g>
</g>
<!-- Node5 -->
<g id="Node000005" class="node">
<title>Node5</title>
<g id="a_Node000005"><a xlink:title=" ">
<polygon fill="#e0e0e0" stroke="#999999" points="713.5,-19 640.5,-19 640.5,0 713.5,0 713.5,-19"/>
<text text-anchor="middle" x="677" y="-7" font-family="Helvetica,sans-Serif" font-size="10.00">QByteArray</text>
</a>
</g>
</g>
<!-- Node4&#45;&gt;Node5 -->
<g id="edge4_Node000004_Node000005" class="edge">
<title>Node4&#45;&gt;Node5</title>
<g id="a_edge4_Node000004_Node000005"><a xlink:title=" ">
<path fill="none" stroke="#63b8ff" d="M661.14,-54.75C663.68,-47.65 667.36,-37.4 670.53,-28.56"/>
<polygon fill="#63b8ff" stroke="#63b8ff" points="673.84,-29.68 673.92,-19.09 667.25,-27.32 673.84,-29.68"/>
</a>
</g>
</g>
<!-- Node4&#45;&gt;Node6 -->
<g id="edge5_Node000004_Node000006" class="edge">
<title>Node4&#45;&gt;Node6</title>
<g id="a_edge5_Node000004_Node000006"><a xlink:title=" ">
<path fill="none" stroke="#63b8ff" d="M646.11,-54.98C634.85,-46.92 617.71,-34.65 604.29,-25.03"/>
<polygon fill="#63b8ff" stroke="#63b8ff" points="606.27,-22.15 596.11,-19.17 602.2,-27.84 606.27,-22.15"/>
</a>
</g>
</g>
<!-- Node4&#45;&gt;Node7 -->
<g id="edge6_Node000004_Node000007" class="edge">
<title>Node4&#45;&gt;Node7</title>
<g id="a_edge6_Node000004_Node000007"><a xlink:title=" ">
<path fill="none" stroke="#63b8ff" d="M611.95,-58.61C513.76,-48.18 285.5,-23.94 195.97,-14.43"/>
<polygon fill="#63b8ff" stroke="#63b8ff" points="196.08,-10.92 185.76,-13.34 195.34,-17.88 196.08,-10.92"/>
</a>
</g>
</g>
<!-- Node11&#45;&gt;Node6 -->
<g id="edge15_Node000011_Node000006" class="edge">
<title>Node11&#45;&gt;Node6</title>
<g id="a_edge15_Node000011_Node000006"><a xlink:title=" ">
<path fill="none" stroke="#63b8ff" d="M339.98,-109.87C320.23,-97.46 289.83,-73.97 306,-55 334.94,-21.06 463.93,-12.89 535.59,-11"/>
<polygon fill="#63b8ff" stroke="#63b8ff" points="535.82,-14.5 545.73,-10.77 535.65,-7.5 535.82,-14.5"/>
</a>
</g>
</g>
<!-- Node11&#45;&gt;Node7 -->
<g id="edge19_Node000011_Node000007" class="edge">
<title>Node11&#45;&gt;Node7</title>
<g id="a_edge19_Node000011_Node000007"><a xlink:title=" ">
<path fill="none" stroke="#63b8ff" d="M311.9,-115.06C277.75,-110.42 230.39,-99.54 197,-74 181.89,-62.44 171.55,-43.01 165.51,-28.68"/>
<polygon fill="#63b8ff" stroke="#63b8ff" points="168.76,-27.38 161.87,-19.33 162.24,-29.92 168.76,-27.38"/>
</a>
</g>
</g>
<!-- Node11&#45;&gt;Node8 -->
<g id="edge14_Node000011_Node000008" class="edge">
<title>Node11&#45;&gt;Node8</title>
<g id="a_edge14_Node000011_Node000008"><a xlink:title=" ">
<path fill="none" stroke="#63b8ff" d="M375.4,-109.98C396.02,-101.38 428.11,-87.99 451.69,-78.15"/>
<polygon fill="#63b8ff" stroke="#63b8ff" points="453.34,-81.25 461.22,-74.17 450.65,-74.79 453.34,-81.25"/>
</a>
</g>
</g>
<!-- Node11&#45;&gt;Node9 -->
<g id="edge16_Node000011_Node000009" class="edge">
<title>Node11&#45;&gt;Node9</title>
<g id="a_edge16_Node000011_Node000009"><a xlink:title=" ">
<path fill="none" stroke="#63b8ff" d="M351.7,-109.75C349.02,-102.65 345.15,-92.4 341.81,-83.56"/>
<polygon fill="#63b8ff" stroke="#63b8ff" points="345.05,-82.21 338.24,-74.09 338.5,-84.68 345.05,-82.21"/>
</a>
</g>
</g>
<!-- Node11&#45;&gt;Node10 -->
<g id="edge17_Node000011_Node000010" class="edge">
<title>Node11&#45;&gt;Node10</title>
<g id="a_edge17_Node000011_Node000010"><a xlink:title=" ">
<path fill="none" stroke="#63b8ff" d="M362.6,-109.75C369.16,-102.18 378.82,-91.05 386.81,-81.84"/>
<polygon fill="#63b8ff" stroke="#63b8ff" points="389.63,-83.94 393.55,-74.09 384.35,-79.35 389.63,-83.94"/>
</a>
</g>
</g>
<!-- Node12 -->
<g id="Node000012" class="node">
<title>Node12</title>
<g id="a_Node000012"><a xlink:title=" ">
<polygon fill="#e0e0e0" stroke="#999999" points="258,-74 206,-74 206,-55 258,-55 258,-74"/>
<text text-anchor="middle" x="232" y="-62" font-family="Helvetica,sans-Serif" font-size="10.00">QRectF</text>
</a>
</g>
</g>
<!-- Node11&#45;&gt;Node12 -->
<g id="edge18_Node000011_Node000012" class="edge">
<title>Node11&#45;&gt;Node12</title>
<g id="a_edge18_Node000011_Node000012"><a xlink:title=" ">
<path fill="none" stroke="#63b8ff" d="M335.24,-109.98C315.27,-101.38 284.2,-87.99 261.35,-78.15"/>
<polygon fill="#63b8ff" stroke="#63b8ff" points="262.69,-74.91 252.12,-74.17 259.92,-81.34 262.69,-74.91"/>
</a>
</g>
</g>
<!-- Node14&#45;&gt;Node2 -->
<g id="edge25_Node000014_Node000002" class="edge">
<title>Node14&#45;&gt;Node2</title>
<g id="a_edge25_Node000014_Node000002"><a xlink:title=" ">
<path fill="none" stroke="#63b8ff" d="M301.84,-230.95C335.06,-221.2 379.5,-208.16 414.63,-197.84"/>
<polygon fill="#63b8ff" stroke="#63b8ff" points="415.66,-201.19 424.27,-195.01 413.69,-194.47 415.66,-201.19"/>
</a>
</g>
</g>
<!-- Node14&#45;&gt;Node3 -->
<g id="edge26_Node000014_Node000003" class="edge">
<title>Node14&#45;&gt;Node3</title>
<g id="a_edge26_Node000014_Node000003"><a xlink:title=" ">
<path fill="none" stroke="#63b8ff" d="M323.63,-235.57C409.09,-223.66 543.66,-203.68 551,-195 564.05,-179.57 559.35,-155.32 553.69,-138.7"/>
<polygon fill="#63b8ff" stroke="#63b8ff" points="556.84,-137.14 550,-129.05 550.3,-139.64 556.84,-137.14"/>
</a>
</g>
</g>
<!-- Node14&#45;&gt;Node4 -->
<g id="edge27_Node000014_Node000004" class="edge">
<title>Node14&#45;&gt;Node4</title>
<g id="a_edge27_Node000014_Node000004"><a xlink:title=" ">
<path fill="none" stroke="#63b8ff" d="M323.79,-236.53C410.03,-225.66 548.01,-206.81 569,-195 613.26,-170.11 640.21,-112.95 651.62,-83.61"/>
<polygon fill="#63b8ff" stroke="#63b8ff" points="654.93,-84.76 655.13,-74.17 648.37,-82.32 654.93,-84.76"/>
</a>
</g>
</g>
<!-- Node14&#45;&gt;Node7 -->
<g id="edge32_Node000014_Node000007" class="edge">
<title>Node14&#45;&gt;Node7</title>
<g id="a_edge32_Node000014_Node000007"><a xlink:title=" ">
<path fill="none" stroke="#63b8ff" d="M214.62,-230.93C174.47,-214 115.4,-181.15 96,-129 81.54,-90.13 117.65,-48.02 141,-25.97"/>
<polygon fill="#63b8ff" stroke="#63b8ff" points="143.57,-28.36 148.62,-19.04 138.86,-23.18 143.57,-28.36"/>
</a>
</g>
</g>
<!-- Node14&#45;&gt;Node11 -->
<g id="edge28_Node000014_Node000011" class="edge">
<title>Node14&#45;&gt;Node11</title>
<g id="a_edge28_Node000014_Node000011"><a xlink:title=" ">
<path fill="none" stroke="#63b8ff" d="M308.25,-230.9C326.3,-223.34 344.47,-211.96 355,-195 365.42,-178.21 363.41,-154.94 360.09,-138.89"/>
<polygon fill="#63b8ff" stroke="#63b8ff" points="363.47,-138 357.71,-129.1 356.67,-139.65 363.47,-138"/>
</a>
</g>
</g>
<!-- Node14&#45;&gt;Node13 -->
<g id="edge31_Node000014_Node000013" class="edge">
<title>Node14&#45;&gt;Node13</title>
<g id="a_edge31_Node000014_Node000013"><a xlink:title=" ">
<path fill="none" stroke="#63b8ff" d="M218.06,-230.9C201.51,-222.72 182.94,-210.86 171,-195 158.81,-178.82 154.05,-155.74 152.18,-139.58"/>
<polygon fill="#63b8ff" stroke="#63b8ff" points="155.64,-138.88 151.28,-129.22 148.66,-139.49 155.64,-138.88"/>
</a>
</g>
</g>
<!-- Node15 -->
<g id="Node000015" class="node">
<title>Node15</title>
<g id="a_Node000015"><a xlink:title=" ">
<polygon fill="#e0e0e0" stroke="#999999" points="236,-189.5 180,-189.5 180,-170.5 236,-170.5 236,-189.5"/>
<text text-anchor="middle" x="208" y="-177.5" font-family="Helvetica,sans-Serif" font-size="10.00">QDebug</text>
</a>
</g>
</g>
<!-- Node14&#45;&gt;Node15 -->
<g id="edge29_Node000014_Node000015" class="edge">
<title>Node14&#45;&gt;Node15</title>
<g id="a_edge29_Node000014_Node000015"><a xlink:title=" ">
<path fill="none" stroke="#63b8ff" d="M243.79,-230.8C236.83,-221.11 227.58,-208.24 220.23,-198.01"/>
<polygon fill="#63b8ff" stroke="#63b8ff" points="223.04,-195.92 214.36,-189.84 217.35,-200.01 223.04,-195.92"/>
</a>
</g>
</g>
<!-- Node16 -->
<g id="Node000016" class="node">
<title>Node16</title>
<g id="a_Node000016"><a xlink:title=" ">
<polygon fill="#e0e0e0" stroke="#999999" points="345.5,-189.5 254.5,-189.5 254.5,-170.5 345.5,-170.5 345.5,-189.5"/>
<text text-anchor="middle" x="300" y="-177.5" font-family="Helvetica,sans-Serif" font-size="10.00">QElapsedTimer</text>
</a>
</g>
</g>
<!-- Node14&#45;&gt;Node16 -->
<g id="edge30_Node000014_Node000016" class="edge">
<title>Node14&#45;&gt;Node16</title>
<g id="a_edge30_Node000014_Node000016"><a xlink:title=" ">
<path fill="none" stroke="#63b8ff" d="M264.21,-230.8C271.17,-221.11 280.42,-208.24 287.77,-198.01"/>
<polygon fill="#63b8ff" stroke="#63b8ff" points="290.65,-200.01 293.64,-189.84 284.96,-195.92 290.65,-200.01"/>
</a>
</g>
</g>
</g>
</svg>
