<?xml version="1.0" encoding="UTF-8" standalone="no"?>
<!DOCTYPE svg PUBLIC "-//W3C//DTD SVG 1.1//EN"
 "http://www.w3.org/Graphics/SVG/1.1/DTD/svg11.dtd">
<!-- Generated by graphviz version 2.43.0 (0)
 -->
<!-- Title: services/PipelineCompletionHandler.h Pages: 1 -->
<svg width="495pt" height="148pt"
 viewBox="0.00 0.00 494.50 148.00" xmlns="http://www.w3.org/2000/svg" xmlns:xlink="http://www.w3.org/1999/xlink">
<g id="graph0" class="graph" transform="scale(1 1) rotate(0) translate(4 144)">
<title>services/PipelineCompletionHandler.h</title>
<!-- Node1 -->
<g id="Node000001" class="node">
<title>Node1</title>
<g id="a_Node000001"><a xlink:title=" ">
<polygon fill="#999999" stroke="#666666" points="374.5,-140 219.5,-140 219.5,-110 374.5,-110 374.5,-140"/>
<text text-anchor="start" x="227.5" y="-128" font-family="Helvetica,sans-Serif" font-size="10.00">services/PipelineCompletion</text>
<text text-anchor="middle" x="297" y="-117" font-family="Helvetica,sans-Serif" font-size="10.00">Handler.h</text>
</a>
</g>
</g>
<!-- Node2 -->
<g id="Node000002" class="node">
<title>Node2</title>
<g id="a_Node000002"><a xlink:href="ExportProgress_8h.html" target="_top" xlink:title=" ">
<polygon fill="white" stroke="#666666" points="241,-74 107,-74 107,-55 241,-55 241,-74"/>
<text text-anchor="middle" x="174" y="-62" font-family="Helvetica,sans-Serif" font-size="10.00">export/ExportProgress.h</text>
</a>
</g>
</g>
<!-- Node1&#45;&gt;Node2 -->
<g id="edge1_Node000001_Node000002" class="edge">
<title>Node1&#45;&gt;Node2</title>
<g id="a_edge1_Node000001_Node000002"><a xlink:title=" ">
<path fill="none" stroke="#63b8ff" d="M267.54,-109.99C247.38,-100.4 220.86,-87.79 201.2,-78.44"/>
<polygon fill="#63b8ff" stroke="#63b8ff" points="202.7,-75.27 192.16,-74.14 199.69,-81.6 202.7,-75.27"/>
</a>
</g>
</g>
<!-- Node6 -->
<g id="Node000006" class="node">
<title>Node6</title>
<g id="a_Node000006"><a xlink:title=" ">
<polygon fill="#e0e0e0" stroke="#999999" points="295.5,-19 242.5,-19 242.5,0 295.5,0 295.5,-19"/>
<text text-anchor="middle" x="269" y="-7" font-family="Helvetica,sans-Serif" font-size="10.00">QString</text>
</a>
</g>
</g>
<!-- Node1&#45;&gt;Node6 -->
<g id="edge8_Node000001_Node000006" class="edge">
<title>Node1&#45;&gt;Node6</title>
<g id="a_edge8_Node000001_Node000006"><a xlink:title=" ">
<path fill="none" stroke="#63b8ff" d="M293.45,-109.63C288.42,-89.21 279.19,-51.81 273.62,-29.24"/>
<polygon fill="#63b8ff" stroke="#63b8ff" points="276.95,-28.1 271.15,-19.23 270.15,-29.78 276.95,-28.1"/>
</a>
</g>
</g>
<!-- Node7 -->
<g id="Node000007" class="node">
<title>Node7</title>
<g id="a_Node000007"><a xlink:title=" ">
<polygon fill="#e0e0e0" stroke="#999999" points="353,-74 297,-74 297,-55 353,-55 353,-74"/>
<text text-anchor="middle" x="325" y="-62" font-family="Helvetica,sans-Serif" font-size="10.00">QObject</text>
</a>
</g>
</g>
<!-- Node1&#45;&gt;Node7 -->
<g id="edge6_Node000001_Node000007" class="edge">
<title>Node1&#45;&gt;Node7</title>
<g id="a_edge6_Node000001_Node000007"><a xlink:title=" ">
<path fill="none" stroke="#63b8ff" d="M303.78,-109.84C307.59,-101.87 312.39,-91.84 316.46,-83.33"/>
<polygon fill="#63b8ff" stroke="#63b8ff" points="319.64,-84.8 320.8,-74.27 313.33,-81.77 319.64,-84.8"/>
</a>
</g>
</g>
<!-- Node8 -->
<g id="Node000008" class="node">
<title>Node8</title>
<g id="a_Node000008"><a xlink:title=" ">
<polygon fill="#e0e0e0" stroke="#999999" points="486.5,-74 371.5,-74 371.5,-55 486.5,-55 486.5,-74"/>
<text text-anchor="middle" x="429" y="-62" font-family="Helvetica,sans-Serif" font-size="10.00">QRegularExpression</text>
</a>
</g>
</g>
<!-- Node1&#45;&gt;Node8 -->
<g id="edge7_Node000001_Node000008" class="edge">
<title>Node1&#45;&gt;Node8</title>
<g id="a_edge7_Node000001_Node000008"><a xlink:title=" ">
<path fill="none" stroke="#63b8ff" d="M328.62,-109.99C350.35,-100.36 378.97,-87.67 400.09,-78.31"/>
<polygon fill="#63b8ff" stroke="#63b8ff" points="401.78,-81.39 409.51,-74.14 398.95,-74.99 401.78,-81.39"/>
</a>
</g>
</g>
<!-- Node3 -->
<g id="Node000003" class="node">
<title>Node3</title>
<g id="a_Node000003"><a xlink:title=" ">
<polygon fill="#e0e0e0" stroke="#999999" points="72,-19 0,-19 0,0 72,0 72,-19"/>
<text text-anchor="middle" x="36" y="-7" font-family="Helvetica,sans-Serif" font-size="10.00">QDateTime</text>
</a>
</g>
</g>
<!-- Node2&#45;&gt;Node3 -->
<g id="edge2_Node000002_Node000003" class="edge">
<title>Node2&#45;&gt;Node3</title>
<g id="a_edge2_Node000002_Node000003"><a xlink:title=" ">
<path fill="none" stroke="#63b8ff" d="M151.83,-54.98C129.23,-46.3 93.94,-32.75 68.25,-22.88"/>
<polygon fill="#63b8ff" stroke="#63b8ff" points="69.17,-19.49 58.58,-19.17 66.66,-26.02 69.17,-19.49"/>
</a>
</g>
</g>
<!-- Node4 -->
<g id="Node000004" class="node">
<title>Node4</title>
<g id="a_Node000004"><a xlink:title=" ">
<polygon fill="#e0e0e0" stroke="#999999" points="135.5,-19 90.5,-19 90.5,0 135.5,0 135.5,-19"/>
<text text-anchor="middle" x="113" y="-7" font-family="Helvetica,sans-Serif" font-size="10.00">QMap</text>
</a>
</g>
</g>
<!-- Node2&#45;&gt;Node4 -->
<g id="edge3_Node000002_Node000004" class="edge">
<title>Node2&#45;&gt;Node4</title>
<g id="a_edge3_Node000002_Node000004"><a xlink:title=" ">
<path fill="none" stroke="#63b8ff" d="M164.2,-54.98C155.18,-47.15 141.59,-35.34 130.68,-25.86"/>
<polygon fill="#63b8ff" stroke="#63b8ff" points="132.82,-23.09 122.98,-19.17 128.23,-28.37 132.82,-23.09"/>
</a>
</g>
</g>
<!-- Node5 -->
<g id="Node000005" class="node">
<title>Node5</title>
<g id="a_Node000005"><a xlink:title=" ">
<polygon fill="#e0e0e0" stroke="#999999" points="224.5,-19 153.5,-19 153.5,0 224.5,0 224.5,-19"/>
<text text-anchor="middle" x="189" y="-7" font-family="Helvetica,sans-Serif" font-size="10.00">QMetaType</text>
</a>
</g>
</g>
<!-- Node2&#45;&gt;Node5 -->
<g id="edge4_Node000002_Node000005" class="edge">
<title>Node2&#45;&gt;Node5</title>
<g id="a_edge4_Node000002_Node000005"><a xlink:title=" ">
<path fill="none" stroke="#63b8ff" d="M176.48,-54.75C178.46,-47.72 181.32,-37.62 183.81,-28.84"/>
<polygon fill="#63b8ff" stroke="#63b8ff" points="187.21,-29.66 186.57,-19.09 180.48,-27.76 187.21,-29.66"/>
</a>
</g>
</g>
<!-- Node2&#45;&gt;Node6 -->
<g id="edge5_Node000002_Node000006" class="edge">
<title>Node2&#45;&gt;Node6</title>
<g id="a_edge5_Node000002_Node000006"><a xlink:title=" ">
<path fill="none" stroke="#63b8ff" d="M189.26,-54.98C204.13,-46.69 226.98,-33.94 244.42,-24.22"/>
<polygon fill="#63b8ff" stroke="#63b8ff" points="246.43,-27.1 253.46,-19.17 243.02,-20.99 246.43,-27.1"/>
</a>
</g>
</g>
</g>
</svg>
