<?xml version="1.0" encoding="UTF-8" standalone="no"?>
<!DOCTYPE svg PUBLIC "-//W3C//DTD SVG 1.1//EN"
 "http://www.w3.org/Graphics/SVG/1.1/DTD/svg11.dtd">
<!-- Generated by graphviz version 2.43.0 (0)
 -->
<!-- Title: services/pipeline/cleanup/PipelineCleanup.cpp Pages: 1 -->
<svg width="938pt" height="390pt"
 viewBox="0.00 0.00 937.50 390.00" xmlns="http://www.w3.org/2000/svg" xmlns:xlink="http://www.w3.org/1999/xlink">
<g id="graph0" class="graph" transform="scale(1 1) rotate(0) translate(4 386)">
<title>services/pipeline/cleanup/PipelineCleanup.cpp</title>
<!-- Node1 -->
<g id="Node000001" class="node">
<title>Node1</title>
<g id="a_Node000001"><a xlink:title=" ">
<polygon fill="#999999" stroke="#666666" points="862,-382 722,-382 722,-352 862,-352 862,-382"/>
<text text-anchor="start" x="730" y="-370" font-family="Helvetica,sans-Serif" font-size="10.00">services/pipeline/cleanup</text>
<text text-anchor="middle" x="792" y="-359" font-family="Helvetica,sans-Serif" font-size="10.00">/PipelineCleanup.cpp</text>
</a>
</g>
</g>
<!-- Node2 -->
<g id="Node000002" class="node">
<title>Node2</title>
<g id="a_Node000002"><a xlink:href="PipelineCleanup_8h.html" target="_top" xlink:title=" ">
<polygon fill="white" stroke="#666666" points="472,-316 368,-316 368,-297 472,-297 472,-316"/>
<text text-anchor="middle" x="420" y="-304" font-family="Helvetica,sans-Serif" font-size="10.00">PipelineCleanup.h</text>
</a>
</g>
</g>
<!-- Node1&#45;&gt;Node2 -->
<g id="edge1_Node000001_Node000002" class="edge">
<title>Node1&#45;&gt;Node2</title>
<g id="a_edge1_Node000001_Node000002"><a xlink:title=" ">
<path fill="none" stroke="#63b8ff" d="M721.59,-354.93C652.61,-344.08 548.49,-327.71 482.4,-317.31"/>
<polygon fill="#63b8ff" stroke="#63b8ff" points="482.56,-313.79 472.13,-315.7 481.47,-320.71 482.56,-313.79"/>
</a>
</g>
</g>
<!-- Node16 -->
<g id="Node000016" class="node">
<title>Node16</title>
<g id="a_Node000016"><a xlink:title=" ">
<polygon fill="#e0e0e0" stroke="#999999" points="838,-189.5 782,-189.5 782,-170.5 838,-170.5 838,-189.5"/>
<text text-anchor="middle" x="810" y="-177.5" font-family="Helvetica,sans-Serif" font-size="10.00">QDebug</text>
</a>
</g>
</g>
<!-- Node1&#45;&gt;Node16 -->
<g id="edge41_Node000001_Node000016" class="edge">
<title>Node1&#45;&gt;Node16</title>
<g id="a_edge41_Node000001_Node000016"><a xlink:title=" ">
<path fill="none" stroke="#63b8ff" d="M793.38,-351.79C796.59,-318.81 804.55,-237.05 808.16,-199.9"/>
<polygon fill="#63b8ff" stroke="#63b8ff" points="811.69,-199.82 809.17,-189.53 804.72,-199.14 811.69,-199.82"/>
</a>
</g>
</g>
<!-- Node19 -->
<g id="Node000019" class="node">
<title>Node19</title>
<g id="a_Node000019"><a xlink:href="PathSecurity_8h.html" target="_top" xlink:title=" ">
<polygon fill="white" stroke="#666666" points="929.5,-316 820.5,-316 820.5,-297 929.5,-297 929.5,-316"/>
<text text-anchor="middle" x="875" y="-304" font-family="Helvetica,sans-Serif" font-size="10.00">utils/PathSecurity.h</text>
</a>
</g>
</g>
<!-- Node1&#45;&gt;Node19 -->
<g id="edge38_Node000001_Node000019" class="edge">
<title>Node1&#45;&gt;Node19</title>
<g id="a_edge38_Node000001_Node000019"><a xlink:title=" ">
<path fill="none" stroke="#63b8ff" d="M812.09,-351.84C824.88,-342.83 841.4,-331.18 854.3,-322.09"/>
<polygon fill="#63b8ff" stroke="#63b8ff" points="856.41,-324.89 862.56,-316.27 852.37,-319.17 856.41,-324.89"/>
</a>
</g>
</g>
<!-- Node3 -->
<g id="Node000003" class="node">
<title>Node3</title>
<g id="a_Node000003"><a xlink:href="ComponentData_8h.html" target="_top" xlink:title=" ">
<polygon fill="white" stroke="#666666" points="317.5,-195 178.5,-195 178.5,-165 317.5,-165 317.5,-195"/>
<text text-anchor="start" x="186.5" y="-183" font-family="Helvetica,sans-Serif" font-size="10.00">../../../models/Component</text>
<text text-anchor="middle" x="248" y="-172" font-family="Helvetica,sans-Serif" font-size="10.00">Data.h</text>
</a>
</g>
</g>
<!-- Node2&#45;&gt;Node3 -->
<g id="edge2_Node000002_Node000003" class="edge">
<title>Node2&#45;&gt;Node3</title>
<g id="a_edge2_Node000002_Node000003"><a xlink:title=" ">
<path fill="none" stroke="#63b8ff" d="M367.7,-300.42C338.07,-295.03 302.21,-283.91 278,-261 262.57,-246.39 255.01,-223.08 251.35,-205.38"/>
<polygon fill="#63b8ff" stroke="#63b8ff" points="254.74,-204.44 249.54,-195.21 247.85,-205.67 254.74,-204.44"/>
</a>
</g>
</g>
<!-- Node8 -->
<g id="Node000008" class="node">
<title>Node8</title>
<g id="a_Node000008"><a xlink:title=" ">
<polygon fill="#e0e0e0" stroke="#999999" points="704.5,-19 651.5,-19 651.5,0 704.5,0 704.5,-19"/>
<text text-anchor="middle" x="678" y="-7" font-family="Helvetica,sans-Serif" font-size="10.00">QString</text>
</a>
</g>
</g>
<!-- Node2&#45;&gt;Node8 -->
<g id="edge37_Node000002_Node000008" class="edge">
<title>Node2&#45;&gt;Node8</title>
<g id="a_edge37_Node000002_Node000008"><a xlink:title=" ">
<path fill="none" stroke="#63b8ff" d="M472.19,-297.19C566.12,-280.74 754,-240.41 754,-181 754,-181 754,-181 754,-118.5 754,-79.47 720.39,-44.58 697.87,-25.6"/>
<polygon fill="#63b8ff" stroke="#63b8ff" points="699.85,-22.7 689.88,-19.12 695.44,-28.14 699.85,-22.7"/>
</a>
</g>
</g>
<!-- Node10 -->
<g id="Node000010" class="node">
<title>Node10</title>
<g id="a_Node000010"><a xlink:title=" ">
<polygon fill="#e0e0e0" stroke="#999999" points="541.5,-74 500.5,-74 500.5,-55 541.5,-55 541.5,-74"/>
<text text-anchor="middle" x="521" y="-62" font-family="Helvetica,sans-Serif" font-size="10.00">QList</text>
</a>
</g>
</g>
<!-- Node2&#45;&gt;Node10 -->
<g id="edge34_Node000002_Node000010" class="edge">
<title>Node2&#45;&gt;Node10</title>
<g id="a_edge34_Node000002_Node000010"><a xlink:title=" ">
<path fill="none" stroke="#63b8ff" d="M446.56,-296.92C464.02,-289.94 485.95,-278.37 499,-261 540.15,-206.22 536.82,-178.17 530,-110 529.15,-101.47 527.39,-92.16 525.66,-84.27"/>
<polygon fill="#63b8ff" stroke="#63b8ff" points="529.01,-83.22 523.32,-74.29 522.2,-84.82 529.01,-83.22"/>
</a>
</g>
</g>
<!-- Node14 -->
<g id="Node000014" class="node">
<title>Node14</title>
<g id="a_Node000014"><a xlink:title=" ">
<polygon fill="#e0e0e0" stroke="#999999" points="92,-129 0,-129 0,-110 92,-110 92,-129"/>
<text text-anchor="middle" x="46" y="-117" font-family="Helvetica,sans-Serif" font-size="10.00">QSharedPointer</text>
</a>
</g>
</g>
<!-- Node2&#45;&gt;Node14 -->
<g id="edge36_Node000002_Node000014" class="edge">
<title>Node2&#45;&gt;Node14</title>
<g id="a_edge36_Node000002_Node000014"><a xlink:title=" ">
<path fill="none" stroke="#63b8ff" d="M367.85,-303.89C291.65,-298.66 150.24,-277.63 70,-195 55.39,-179.95 49.67,-155.96 47.43,-139.28"/>
<polygon fill="#63b8ff" stroke="#63b8ff" points="50.89,-138.69 46.38,-129.11 43.93,-139.42 50.89,-138.69"/>
</a>
</g>
</g>
<!-- Node15 -->
<g id="Node000015" class="node">
<title>Node15</title>
<g id="a_Node000015"><a xlink:href="ComponentExportStatus_8h.html" target="_top" xlink:title=" ">
<polygon fill="white" stroke="#666666" points="489.5,-261 350.5,-261 350.5,-231 489.5,-231 489.5,-261"/>
<text text-anchor="start" x="358.5" y="-249" font-family="Helvetica,sans-Serif" font-size="10.00">../../../models/Component</text>
<text text-anchor="middle" x="420" y="-238" font-family="Helvetica,sans-Serif" font-size="10.00">ExportStatus.h</text>
</a>
</g>
</g>
<!-- Node2&#45;&gt;Node15 -->
<g id="edge25_Node000002_Node000015" class="edge">
<title>Node2&#45;&gt;Node15</title>
<g id="a_edge25_Node000002_Node000015"><a xlink:title=" ">
<path fill="none" stroke="#63b8ff" d="M420,-296.87C420,-290.11 420,-280.35 420,-271.26"/>
<polygon fill="#63b8ff" stroke="#63b8ff" points="423.5,-271.11 420,-261.11 416.5,-271.11 423.5,-271.11"/>
</a>
</g>
</g>
<!-- Node18 -->
<g id="Node000018" class="node">
<title>Node18</title>
<g id="a_Node000018"><a xlink:title=" ">
<polygon fill="#e0e0e0" stroke="#999999" points="332.5,-255.5 287.5,-255.5 287.5,-236.5 332.5,-236.5 332.5,-255.5"/>
<text text-anchor="middle" x="310" y="-243.5" font-family="Helvetica,sans-Serif" font-size="10.00">QMap</text>
</a>
</g>
</g>
<!-- Node2&#45;&gt;Node18 -->
<g id="edge35_Node000002_Node000018" class="edge">
<title>Node2&#45;&gt;Node18</title>
<g id="a_edge35_Node000002_Node000018"><a xlink:title=" ">
<path fill="none" stroke="#63b8ff" d="M403.77,-296.87C385.73,-287.28 356.38,-271.67 335.32,-260.47"/>
<polygon fill="#63b8ff" stroke="#63b8ff" points="336.77,-257.27 326.3,-255.67 333.48,-263.45 336.77,-257.27"/>
</a>
</g>
</g>
<!-- Node4 -->
<g id="Node000004" class="node">
<title>Node4</title>
<g id="a_Node000004"><a xlink:href="FootprintData_8h.html" target="_top" xlink:title=" ">
<polygon fill="white" stroke="#666666" points="392,-129 300,-129 300,-110 392,-110 392,-129"/>
<text text-anchor="middle" x="346" y="-117" font-family="Helvetica,sans-Serif" font-size="10.00">FootprintData.h</text>
</a>
</g>
</g>
<!-- Node3&#45;&gt;Node4 -->
<g id="edge3_Node000003_Node000004" class="edge">
<title>Node3&#45;&gt;Node4</title>
<g id="a_edge3_Node000003_Node000004"><a xlink:title=" ">
<path fill="none" stroke="#63b8ff" d="M271.72,-164.84C287.2,-155.6 307.32,-143.59 322.71,-134.4"/>
<polygon fill="#63b8ff" stroke="#63b8ff" points="324.81,-137.23 331.6,-129.09 321.22,-131.21 324.81,-137.23"/>
</a>
</g>
</g>
<!-- Node5 -->
<g id="Node000005" class="node">
<title>Node5</title>
<g id="a_Node000005"><a xlink:href="Model3DData_8h.html" target="_top" xlink:title=" ">
<polygon fill="white" stroke="#666666" points="206,-74 114,-74 114,-55 206,-55 206,-74"/>
<text text-anchor="middle" x="160" y="-62" font-family="Helvetica,sans-Serif" font-size="10.00">Model3DData.h</text>
</a>
</g>
</g>
<!-- Node3&#45;&gt;Node5 -->
<g id="edge13_Node000003_Node000005" class="edge">
<title>Node3&#45;&gt;Node5</title>
<g id="a_edge13_Node000003_Node000005"><a xlink:title=" ">
<path fill="none" stroke="#63b8ff" d="M236.85,-164.63C220.6,-143.65 190.43,-104.75 173.12,-82.42"/>
<polygon fill="#63b8ff" stroke="#63b8ff" points="175.66,-79.99 166.77,-74.23 170.13,-84.28 175.66,-79.99"/>
</a>
</g>
</g>
<!-- Node7 -->
<g id="Node000007" class="node">
<title>Node7</title>
<g id="a_Node000007"><a xlink:title=" ">
<polygon fill="#e0e0e0" stroke="#999999" points="301,-19 225,-19 225,0 301,0 301,-19"/>
<text text-anchor="middle" x="263" y="-7" font-family="Helvetica,sans-Serif" font-size="10.00">QJsonObject</text>
</a>
</g>
</g>
<!-- Node3&#45;&gt;Node7 -->
<g id="edge22_Node000003_Node000007" class="edge">
<title>Node3&#45;&gt;Node7</title>
<g id="a_edge22_Node000003_Node000007"><a xlink:title=" ">
<path fill="none" stroke="#63b8ff" d="M207.78,-165C154.02,-144.07 69.39,-102.02 105,-55 118.35,-37.37 173.59,-24.76 215.01,-17.56"/>
<polygon fill="#63b8ff" stroke="#63b8ff" points="215.67,-21 224.95,-15.89 214.51,-14.1 215.67,-21"/>
</a>
</g>
</g>
<!-- Node3&#45;&gt;Node8 -->
<g id="edge24_Node000003_Node000008" class="edge">
<title>Node3&#45;&gt;Node8</title>
<g id="a_edge24_Node000003_Node000008"><a xlink:title=" ">
<path fill="none" stroke="#63b8ff" d="M251.12,-164.69C258,-137.19 277.35,-77.66 320,-55 375.11,-25.71 561.4,-15.06 641.21,-11.77"/>
<polygon fill="#63b8ff" stroke="#63b8ff" points="641.44,-15.27 651.29,-11.37 641.16,-8.27 641.44,-15.27"/>
</a>
</g>
</g>
<!-- Node9 -->
<g id="Node000009" class="node">
<title>Node9</title>
<g id="a_Node000009"><a xlink:title=" ">
<polygon fill="#e0e0e0" stroke="#999999" points="409.5,-74 338.5,-74 338.5,-55 409.5,-55 409.5,-74"/>
<text text-anchor="middle" x="374" y="-62" font-family="Helvetica,sans-Serif" font-size="10.00">QJsonArray</text>
</a>
</g>
</g>
<!-- Node3&#45;&gt;Node9 -->
<g id="edge21_Node000003_Node000009" class="edge">
<title>Node3&#45;&gt;Node9</title>
<g id="a_edge21_Node000003_Node000009"><a xlink:title=" ">
<path fill="none" stroke="#63b8ff" d="M254.12,-164.8C261.21,-149.69 274.11,-125.83 291,-110 305.56,-96.36 325.1,-85.61 341.57,-78.09"/>
<polygon fill="#63b8ff" stroke="#63b8ff" points="343.08,-81.25 350.85,-74.05 340.28,-74.84 343.08,-81.25"/>
</a>
</g>
</g>
<!-- Node12 -->
<g id="Node000012" class="node">
<title>Node12</title>
<g id="a_Node000012"><a xlink:href="SymbolData_8h.html" target="_top" xlink:title=" ">
<polygon fill="white" stroke="#666666" points="521,-129 435,-129 435,-110 521,-110 521,-129"/>
<text text-anchor="middle" x="478" y="-117" font-family="Helvetica,sans-Serif" font-size="10.00">SymbolData.h</text>
</a>
</g>
</g>
<!-- Node3&#45;&gt;Node12 -->
<g id="edge14_Node000003_Node000012" class="edge">
<title>Node3&#45;&gt;Node12</title>
<g id="a_edge14_Node000003_Node000012"><a xlink:title=" ">
<path fill="none" stroke="#63b8ff" d="M303.09,-164.99C343.3,-154.76 397.06,-141.09 434.32,-131.61"/>
<polygon fill="#63b8ff" stroke="#63b8ff" points="435.54,-134.91 444.37,-129.05 433.82,-128.13 435.54,-134.91"/>
</a>
</g>
</g>
<!-- Node3&#45;&gt;Node14 -->
<g id="edge23_Node000003_Node000014" class="edge">
<title>Node3&#45;&gt;Node14</title>
<g id="a_edge23_Node000003_Node000014"><a xlink:title=" ">
<path fill="none" stroke="#63b8ff" d="M199.62,-164.99C164.6,-154.85 117.89,-141.32 85.2,-131.85"/>
<polygon fill="#63b8ff" stroke="#63b8ff" points="86.11,-128.47 75.54,-129.05 84.17,-135.2 86.11,-128.47"/>
</a>
</g>
</g>
<!-- Node4&#45;&gt;Node5 -->
<g id="edge4_Node000004_Node000005" class="edge">
<title>Node4&#45;&gt;Node5</title>
<g id="a_edge4_Node000004_Node000005"><a xlink:title=" ">
<path fill="none" stroke="#63b8ff" d="M316.12,-109.98C284.62,-101.01 234.83,-86.82 199.97,-76.89"/>
<polygon fill="#63b8ff" stroke="#63b8ff" points="200.69,-73.46 190.12,-74.08 198.78,-80.19 200.69,-73.46"/>
</a>
</g>
</g>
<!-- Node4&#45;&gt;Node7 -->
<g id="edge9_Node000004_Node000007" class="edge">
<title>Node4&#45;&gt;Node7</title>
<g id="a_edge9_Node000004_Node000007"><a xlink:title=" ">
<path fill="none" stroke="#63b8ff" d="M334.17,-109.98C323.27,-101.7 307.13,-88.31 296,-74 285.16,-60.07 276.19,-42.06 270.35,-28.77"/>
<polygon fill="#63b8ff" stroke="#63b8ff" points="273.47,-27.16 266.37,-19.3 267.02,-29.88 273.47,-27.16"/>
</a>
</g>
</g>
<!-- Node4&#45;&gt;Node8 -->
<g id="edge12_Node000004_Node000008" class="edge">
<title>Node4&#45;&gt;Node8</title>
<g id="a_edge12_Node000004_Node000008"><a xlink:title=" ">
<path fill="none" stroke="#63b8ff" d="M339.43,-110C329.98,-96.67 315.12,-70.76 329,-55 349.44,-31.79 556.02,-17.45 641.39,-12.47"/>
<polygon fill="#63b8ff" stroke="#63b8ff" points="641.63,-15.97 651.41,-11.9 641.23,-8.98 641.63,-15.97"/>
</a>
</g>
</g>
<!-- Node4&#45;&gt;Node9 -->
<g id="edge8_Node000004_Node000009" class="edge">
<title>Node4&#45;&gt;Node9</title>
<g id="a_edge8_Node000004_Node000009"><a xlink:title=" ">
<path fill="none" stroke="#63b8ff" d="M350.62,-109.75C354.46,-102.49 360.02,-91.95 364.76,-82.98"/>
<polygon fill="#63b8ff" stroke="#63b8ff" points="367.89,-84.57 369.46,-74.09 361.7,-81.3 367.89,-84.57"/>
</a>
</g>
</g>
<!-- Node4&#45;&gt;Node10 -->
<g id="edge10_Node000004_Node000010" class="edge">
<title>Node4&#45;&gt;Node10</title>
<g id="a_edge10_Node000004_Node000010"><a xlink:title=" ">
<path fill="none" stroke="#63b8ff" d="M374.12,-109.98C405.94,-100.35 457.6,-84.7 490.41,-74.76"/>
<polygon fill="#63b8ff" stroke="#63b8ff" points="491.79,-78 500.35,-71.75 489.76,-71.3 491.79,-78"/>
</a>
</g>
</g>
<!-- Node11 -->
<g id="Node000011" class="node">
<title>Node11</title>
<g id="a_Node000011"><a xlink:title=" ">
<polygon fill="#e0e0e0" stroke="#999999" points="482.5,-74 427.5,-74 427.5,-55 482.5,-55 482.5,-74"/>
<text text-anchor="middle" x="455" y="-62" font-family="Helvetica,sans-Serif" font-size="10.00">QPointF</text>
</a>
</g>
</g>
<!-- Node4&#45;&gt;Node11 -->
<g id="edge11_Node000004_Node000011" class="edge">
<title>Node4&#45;&gt;Node11</title>
<g id="a_edge11_Node000004_Node000011"><a xlink:title=" ">
<path fill="none" stroke="#63b8ff" d="M363.51,-109.98C380.97,-101.5 408.01,-88.35 428.17,-78.54"/>
<polygon fill="#63b8ff" stroke="#63b8ff" points="429.71,-81.69 437.17,-74.17 426.64,-75.4 429.71,-81.69"/>
</a>
</g>
</g>
<!-- Node6 -->
<g id="Node000006" class="node">
<title>Node6</title>
<g id="a_Node000006"><a xlink:title=" ">
<polygon fill="#e0e0e0" stroke="#999999" points="196.5,-19 123.5,-19 123.5,0 196.5,0 196.5,-19"/>
<text text-anchor="middle" x="160" y="-7" font-family="Helvetica,sans-Serif" font-size="10.00">QByteArray</text>
</a>
</g>
</g>
<!-- Node5&#45;&gt;Node6 -->
<g id="edge5_Node000005_Node000006" class="edge">
<title>Node5&#45;&gt;Node6</title>
<g id="a_edge5_Node000005_Node000006"><a xlink:title=" ">
<path fill="none" stroke="#63b8ff" d="M160,-54.75C160,-47.8 160,-37.85 160,-29.13"/>
<polygon fill="#63b8ff" stroke="#63b8ff" points="163.5,-29.09 160,-19.09 156.5,-29.09 163.5,-29.09"/>
</a>
</g>
</g>
<!-- Node5&#45;&gt;Node7 -->
<g id="edge6_Node000005_Node000007" class="edge">
<title>Node5&#45;&gt;Node7</title>
<g id="a_edge6_Node000005_Node000007"><a xlink:title=" ">
<path fill="none" stroke="#63b8ff" d="M176.55,-54.98C192.89,-46.57 218.13,-33.59 237.13,-23.81"/>
<polygon fill="#63b8ff" stroke="#63b8ff" points="238.86,-26.86 246.15,-19.17 235.66,-20.63 238.86,-26.86"/>
</a>
</g>
</g>
<!-- Node5&#45;&gt;Node8 -->
<g id="edge7_Node000005_Node000008" class="edge">
<title>Node5&#45;&gt;Node8</title>
<g id="a_edge7_Node000005_Node000008"><a xlink:title=" ">
<path fill="none" stroke="#63b8ff" d="M206.16,-56.75C210.83,-56.13 215.51,-55.54 220,-55 376.26,-36.35 563.22,-20.05 641.12,-13.53"/>
<polygon fill="#63b8ff" stroke="#63b8ff" points="641.69,-16.99 651.37,-12.68 641.11,-10.02 641.69,-16.99"/>
</a>
</g>
</g>
<!-- Node12&#45;&gt;Node7 -->
<g id="edge16_Node000012_Node000007" class="edge">
<title>Node12&#45;&gt;Node7</title>
<g id="a_edge16_Node000012_Node000007"><a xlink:title=" ">
<path fill="none" stroke="#63b8ff" d="M501.53,-109.96C529.46,-98.55 570.02,-77.19 551,-55 520.75,-19.72 385.6,-12.16 311.68,-10.7"/>
<polygon fill="#63b8ff" stroke="#63b8ff" points="311.3,-7.19 301.24,-10.53 311.18,-14.19 311.3,-7.19"/>
</a>
</g>
</g>
<!-- Node12&#45;&gt;Node8 -->
<g id="edge20_Node000012_Node000008" class="edge">
<title>Node12&#45;&gt;Node8</title>
<g id="a_edge20_Node000012_Node000008"><a xlink:title=" ">
<path fill="none" stroke="#63b8ff" d="M521.32,-112.86C568.36,-105.89 639.43,-92.63 659,-74 671.1,-62.48 675.59,-43.61 677.21,-29.42"/>
<polygon fill="#63b8ff" stroke="#63b8ff" points="680.71,-29.52 677.98,-19.28 673.73,-28.99 680.71,-29.52"/>
</a>
</g>
</g>
<!-- Node12&#45;&gt;Node9 -->
<g id="edge15_Node000012_Node000009" class="edge">
<title>Node12&#45;&gt;Node9</title>
<g id="a_edge15_Node000012_Node000009"><a xlink:title=" ">
<path fill="none" stroke="#63b8ff" d="M461.29,-109.98C444.79,-101.57 419.3,-88.59 400.12,-78.81"/>
<polygon fill="#63b8ff" stroke="#63b8ff" points="401.51,-75.59 391.01,-74.17 398.33,-81.83 401.51,-75.59"/>
</a>
</g>
</g>
<!-- Node12&#45;&gt;Node10 -->
<g id="edge17_Node000012_Node000010" class="edge">
<title>Node12&#45;&gt;Node10</title>
<g id="a_edge17_Node000012_Node000010"><a xlink:title=" ">
<path fill="none" stroke="#63b8ff" d="M485.1,-109.75C491.17,-102.26 500.09,-91.28 507.51,-82.13"/>
<polygon fill="#63b8ff" stroke="#63b8ff" points="510.45,-84.06 514.03,-74.09 505.01,-79.65 510.45,-84.06"/>
</a>
</g>
</g>
<!-- Node12&#45;&gt;Node11 -->
<g id="edge18_Node000012_Node000011" class="edge">
<title>Node12&#45;&gt;Node11</title>
<g id="a_edge18_Node000012_Node000011"><a xlink:title=" ">
<path fill="none" stroke="#63b8ff" d="M474.2,-109.75C471.09,-102.57 466.58,-92.18 462.71,-83.27"/>
<polygon fill="#63b8ff" stroke="#63b8ff" points="465.92,-81.87 458.73,-74.09 459.5,-84.66 465.92,-81.87"/>
</a>
</g>
</g>
<!-- Node13 -->
<g id="Node000013" class="node">
<title>Node13</title>
<g id="a_Node000013"><a xlink:title=" ">
<polygon fill="#e0e0e0" stroke="#999999" points="650,-74 598,-74 598,-55 650,-55 650,-74"/>
<text text-anchor="middle" x="624" y="-62" font-family="Helvetica,sans-Serif" font-size="10.00">QRectF</text>
</a>
</g>
</g>
<!-- Node12&#45;&gt;Node13 -->
<g id="edge19_Node000012_Node000013" class="edge">
<title>Node12&#45;&gt;Node13</title>
<g id="a_edge19_Node000012_Node000013"><a xlink:title=" ">
<path fill="none" stroke="#63b8ff" d="M501.46,-109.98C525.58,-101.23 563.37,-87.51 590.6,-77.62"/>
<polygon fill="#63b8ff" stroke="#63b8ff" points="591.91,-80.87 600.12,-74.17 589.52,-74.29 591.91,-80.87"/>
</a>
</g>
</g>
<!-- Node15&#45;&gt;Node3 -->
<g id="edge26_Node000015_Node000003" class="edge">
<title>Node15&#45;&gt;Node3</title>
<g id="a_edge26_Node000015_Node000003"><a xlink:title=" ">
<path fill="none" stroke="#63b8ff" d="M382.25,-230.95C356.6,-221.41 322.48,-208.71 295.05,-198.51"/>
<polygon fill="#63b8ff" stroke="#63b8ff" points="296.25,-195.22 285.66,-195.01 293.81,-201.78 296.25,-195.22"/>
</a>
</g>
</g>
<!-- Node15&#45;&gt;Node4 -->
<g id="edge27_Node000015_Node000004" class="edge">
<title>Node15&#45;&gt;Node4</title>
<g id="a_edge27_Node000015_Node000004"><a xlink:title=" ">
<path fill="none" stroke="#63b8ff" d="M399.16,-230.83C387.48,-221.85 373.58,-209.27 365,-195 354.71,-177.88 349.95,-155.31 347.78,-139.52"/>
<polygon fill="#63b8ff" stroke="#63b8ff" points="351.24,-138.93 346.62,-129.39 344.28,-139.73 351.24,-138.93"/>
</a>
</g>
</g>
<!-- Node15&#45;&gt;Node5 -->
<g id="edge28_Node000015_Node000005" class="edge">
<title>Node15&#45;&gt;Node5</title>
<g id="a_edge28_Node000015_Node000005"><a xlink:title=" ">
<path fill="none" stroke="#63b8ff" d="M350.2,-232.15C277,-218.52 172.05,-198.47 169,-195 141.91,-164.22 148.78,-111.79 155.02,-84.02"/>
<polygon fill="#63b8ff" stroke="#63b8ff" points="158.48,-84.62 157.48,-74.07 151.68,-82.94 158.48,-84.62"/>
</a>
</g>
</g>
<!-- Node15&#45;&gt;Node8 -->
<g id="edge33_Node000015_Node000008" class="edge">
<title>Node15&#45;&gt;Node8</title>
<g id="a_edge33_Node000015_Node000008"><a xlink:title=" ">
<path fill="none" stroke="#63b8ff" d="M463.38,-230.99C524.19,-208.72 632.44,-158.86 678,-74 685.33,-60.34 684.61,-42.53 682.47,-29.24"/>
<polygon fill="#63b8ff" stroke="#63b8ff" points="685.88,-28.46 680.48,-19.34 679.02,-29.84 685.88,-28.46"/>
</a>
</g>
</g>
<!-- Node15&#45;&gt;Node12 -->
<g id="edge29_Node000015_Node000012" class="edge">
<title>Node15&#45;&gt;Node12</title>
<g id="a_edge29_Node000015_Node000012"><a xlink:title=" ">
<path fill="none" stroke="#63b8ff" d="M442.83,-230.81C454.69,-222.08 468.12,-209.73 475,-195 483.19,-177.44 482.83,-154.95 481.12,-139.29"/>
<polygon fill="#63b8ff" stroke="#63b8ff" points="484.57,-138.7 479.73,-129.27 477.63,-139.66 484.57,-138.7"/>
</a>
</g>
</g>
<!-- Node15&#45;&gt;Node14 -->
<g id="edge32_Node000015_Node000014" class="edge">
<title>Node15&#45;&gt;Node14</title>
<g id="a_edge32_Node000015_Node000014"><a xlink:title=" ">
<path fill="none" stroke="#63b8ff" d="M350.23,-232.54C347.11,-232.02 344.02,-231.5 341,-231 236.75,-213.78 197.57,-247.72 106,-195 82.9,-181.7 65.18,-155.79 55.18,-138.32"/>
<polygon fill="#63b8ff" stroke="#63b8ff" points="58.05,-136.27 50.19,-129.16 51.9,-139.61 58.05,-136.27"/>
</a>
</g>
</g>
<!-- Node15&#45;&gt;Node16 -->
<g id="edge30_Node000015_Node000016" class="edge">
<title>Node15&#45;&gt;Node16</title>
<g id="a_edge30_Node000015_Node000016"><a xlink:title=" ">
<path fill="none" stroke="#63b8ff" d="M489.61,-234.04C552.46,-224.09 647.48,-208.88 730,-195 743.6,-192.71 758.5,-190.13 771.7,-187.81"/>
<polygon fill="#63b8ff" stroke="#63b8ff" points="772.64,-191.2 781.88,-186.02 771.42,-184.3 772.64,-191.2"/>
</a>
</g>
</g>
<!-- Node17 -->
<g id="Node000017" class="node">
<title>Node17</title>
<g id="a_Node000017"><a xlink:title=" ">
<polygon fill="#e0e0e0" stroke="#999999" points="465.5,-189.5 374.5,-189.5 374.5,-170.5 465.5,-170.5 465.5,-189.5"/>
<text text-anchor="middle" x="420" y="-177.5" font-family="Helvetica,sans-Serif" font-size="10.00">QElapsedTimer</text>
</a>
</g>
</g>
<!-- Node15&#45;&gt;Node17 -->
<g id="edge31_Node000015_Node000017" class="edge">
<title>Node15&#45;&gt;Node17</title>
<g id="a_edge31_Node000015_Node000017"><a xlink:title=" ">
<path fill="none" stroke="#63b8ff" d="M420,-230.8C420,-221.7 420,-209.79 420,-199.9"/>
<polygon fill="#63b8ff" stroke="#63b8ff" points="423.5,-199.84 420,-189.84 416.5,-199.84 423.5,-199.84"/>
</a>
</g>
</g>
<!-- Node19&#45;&gt;Node8 -->
<g id="edge40_Node000019_Node000008" class="edge">
<title>Node19&#45;&gt;Node8</title>
<g id="a_edge40_Node000019_Node000008"><a xlink:title=" ">
<path fill="none" stroke="#63b8ff" d="M876.31,-296.77C879.22,-276.49 886,-224.61 886,-181 886,-181 886,-181 886,-118.5 886,-42.31 774.71,-19.79 714.94,-13.2"/>
<polygon fill="#63b8ff" stroke="#63b8ff" points="715.07,-9.69 704.77,-12.17 714.37,-16.66 715.07,-9.69"/>
</a>
</g>
</g>
<!-- Node20 -->
<g id="Node000020" class="node">
<title>Node20</title>
<g id="a_Node000020"><a xlink:title=" ">
<polygon fill="#e0e0e0" stroke="#999999" points="858,-255.5 820,-255.5 820,-236.5 858,-236.5 858,-255.5"/>
<text text-anchor="middle" x="839" y="-243.5" font-family="Helvetica,sans-Serif" font-size="10.00">QDir</text>
</a>
</g>
</g>
<!-- Node19&#45;&gt;Node20 -->
<g id="edge39_Node000019_Node000020" class="edge">
<title>Node19&#45;&gt;Node20</title>
<g id="a_edge39_Node000019_Node000020"><a xlink:title=" ">
<path fill="none" stroke="#63b8ff" d="M869.69,-296.87C864.42,-288.31 856.21,-274.97 849.61,-264.24"/>
<polygon fill="#63b8ff" stroke="#63b8ff" points="852.56,-262.35 844.33,-255.67 846.59,-266.02 852.56,-262.35"/>
</a>
</g>
</g>
</g>
</svg>
