<?xml version="1.0" encoding="UTF-8" standalone="no"?>
<!DOCTYPE svg PUBLIC "-//W3C//DTD SVG 1.1//EN"
 "http://www.w3.org/Graphics/SVG/1.1/DTD/svg11.dtd">
<!-- Generated by graphviz version 2.43.0 (0)
 -->
<!-- Title: services/pipeline/queue/PipelineQueueManager.cpp Pages: 1 -->
<svg width="1276pt" height="379pt"
 viewBox="0.00 0.00 1275.50 379.00" xmlns="http://www.w3.org/2000/svg" xmlns:xlink="http://www.w3.org/1999/xlink">
<g id="graph0" class="graph" transform="scale(1 1) rotate(0) translate(4 375)">
<title>services/pipeline/queue/PipelineQueueManager.cpp</title>
<!-- Node1 -->
<g id="Node000001" class="node">
<title>Node1</title>
<g id="a_Node000001"><a xlink:title=" ">
<polygon fill="#999999" stroke="#666666" points="1085.5,-371 933.5,-371 933.5,-341 1085.5,-341 1085.5,-371"/>
<text text-anchor="start" x="941.5" y="-359" font-family="Helvetica,sans-Serif" font-size="10.00">services/pipeline/queue</text>
<text text-anchor="middle" x="1009.5" y="-348" font-family="Helvetica,sans-Serif" font-size="10.00">/PipelineQueueManager.cpp</text>
</a>
</g>
</g>
<!-- Node2 -->
<g id="Node000002" class="node">
<title>Node2</title>
<g id="a_Node000002"><a xlink:href="PipelineQueueManager_8h.html" target="_top" xlink:title=" ">
<polygon fill="white" stroke="#666666" points="492.5,-305 354.5,-305 354.5,-286 492.5,-286 492.5,-305"/>
<text text-anchor="middle" x="423.5" y="-293" font-family="Helvetica,sans-Serif" font-size="10.00">PipelineQueueManager.h</text>
</a>
</g>
</g>
<!-- Node1&#45;&gt;Node2 -->
<g id="edge1_Node000001_Node000002" class="edge">
<title>Node1&#45;&gt;Node2</title>
<g id="a_edge1_Node000001_Node000002"><a xlink:title=" ">
<path fill="none" stroke="#63b8ff" d="M933.49,-347.41C822.12,-336.29 615.57,-315.67 502.51,-304.39"/>
<polygon fill="#63b8ff" stroke="#63b8ff" points="502.83,-300.9 492.54,-303.39 502.14,-307.87 502.83,-300.9"/>
</a>
</g>
</g>
<!-- Node16 -->
<g id="Node000016" class="node">
<title>Node16</title>
<g id="a_Node000016"><a xlink:title=" ">
<polygon fill="#e0e0e0" stroke="#999999" points="1148.5,-184 1092.5,-184 1092.5,-165 1148.5,-165 1148.5,-184"/>
<text text-anchor="middle" x="1120.5" y="-172" font-family="Helvetica,sans-Serif" font-size="10.00">QDebug</text>
</a>
</g>
</g>
<!-- Node1&#45;&gt;Node16 -->
<g id="edge42_Node000001_Node000016" class="edge">
<title>Node1&#45;&gt;Node16</title>
<g id="a_edge42_Node000001_Node000016"><a xlink:title=" ">
<path fill="none" stroke="#63b8ff" d="M982.95,-340.77C962.32,-327.7 939,-307.19 950.5,-286 978.5,-234.41 1042.15,-203.14 1083.13,-187.62"/>
<polygon fill="#63b8ff" stroke="#63b8ff" points="1084.58,-190.81 1092.77,-184.09 1082.18,-184.24 1084.58,-190.81"/>
</a>
</g>
</g>
<!-- Node24 -->
<g id="Node000024" class="node">
<title>Node24</title>
<g id="a_Node000024"><a xlink:title=" ">
<polygon fill="#e0e0e0" stroke="#999999" points="1060,-305 959,-305 959,-286 1060,-286 1060,-305"/>
<text text-anchor="middle" x="1009.5" y="-293" font-family="Helvetica,sans-Serif" font-size="10.00">QCoreApplication</text>
</a>
</g>
</g>
<!-- Node1&#45;&gt;Node24 -->
<g id="edge41_Node000001_Node000024" class="edge">
<title>Node1&#45;&gt;Node24</title>
<g id="a_edge41_Node000001_Node000024"><a xlink:title=" ">
<path fill="none" stroke="#63b8ff" d="M1009.5,-340.84C1009.5,-333.21 1009.5,-323.7 1009.5,-315.45"/>
<polygon fill="#63b8ff" stroke="#63b8ff" points="1013,-315.27 1009.5,-305.27 1006,-315.27 1013,-315.27"/>
</a>
</g>
</g>
<!-- Node25 -->
<g id="Node000025" class="node">
<title>Node25</title>
<g id="a_Node000025"><a xlink:title=" ">
<polygon fill="#e0e0e0" stroke="#999999" points="1191,-305 1078,-305 1078,-286 1191,-286 1191,-305"/>
<text text-anchor="middle" x="1134.5" y="-293" font-family="Helvetica,sans-Serif" font-size="10.00">QRandomGenerator</text>
</a>
</g>
</g>
<!-- Node1&#45;&gt;Node25 -->
<g id="edge43_Node000001_Node000025" class="edge">
<title>Node1&#45;&gt;Node25</title>
<g id="a_edge43_Node000001_Node000025"><a xlink:title=" ">
<path fill="none" stroke="#63b8ff" d="M1039.44,-340.99C1059.92,-331.4 1086.88,-318.79 1106.85,-309.44"/>
<polygon fill="#63b8ff" stroke="#63b8ff" points="1108.47,-312.55 1116.04,-305.14 1105.5,-306.21 1108.47,-312.55"/>
</a>
</g>
</g>
<!-- Node26 -->
<g id="Node000026" class="node">
<title>Node26</title>
<g id="a_Node000026"><a xlink:title=" ">
<polygon fill="#e0e0e0" stroke="#999999" points="1267.5,-305 1209.5,-305 1209.5,-286 1267.5,-286 1267.5,-305"/>
<text text-anchor="middle" x="1238.5" y="-293" font-family="Helvetica,sans-Serif" font-size="10.00">QThread</text>
</a>
</g>
</g>
<!-- Node1&#45;&gt;Node26 -->
<g id="edge44_Node000001_Node000026" class="edge">
<title>Node1&#45;&gt;Node26</title>
<g id="a_edge44_Node000001_Node000026"><a xlink:title=" ">
<path fill="none" stroke="#63b8ff" d="M1064.35,-340.99C1105.96,-330.36 1162.14,-316.01 1199.31,-306.51"/>
<polygon fill="#63b8ff" stroke="#63b8ff" points="1200.43,-309.84 1209.26,-303.97 1198.7,-303.05 1200.43,-309.84"/>
</a>
</g>
</g>
<!-- Node3 -->
<g id="Node000003" class="node">
<title>Node3</title>
<g id="a_Node000003"><a xlink:href="ComponentExportStatus_8h.html" target="_top" xlink:title=" ">
<polygon fill="white" stroke="#666666" points="713,-250 574,-250 574,-220 713,-220 713,-250"/>
<text text-anchor="start" x="582" y="-238" font-family="Helvetica,sans-Serif" font-size="10.00">../../../models/Component</text>
<text text-anchor="middle" x="643.5" y="-227" font-family="Helvetica,sans-Serif" font-size="10.00">ExportStatus.h</text>
</a>
</g>
</g>
<!-- Node2&#45;&gt;Node3 -->
<g id="edge2_Node000002_Node000003" class="edge">
<title>Node2&#45;&gt;Node3</title>
<g id="a_edge2_Node000002_Node000003"><a xlink:title=" ">
<path fill="none" stroke="#63b8ff" d="M455.49,-285.99C488.19,-277.3 539.83,-263.57 580.73,-252.69"/>
<polygon fill="#63b8ff" stroke="#63b8ff" points="581.84,-256.02 590.61,-250.06 580.05,-249.25 581.84,-256.02"/>
</a>
</g>
</g>
<!-- Node15 -->
<g id="Node000015" class="node">
<title>Node15</title>
<g id="a_Node000015"><a xlink:title=" ">
<polygon fill="#e0e0e0" stroke="#999999" points="477.5,-129 385.5,-129 385.5,-110 477.5,-110 477.5,-129"/>
<text text-anchor="middle" x="431.5" y="-117" font-family="Helvetica,sans-Serif" font-size="10.00">QSharedPointer</text>
</a>
</g>
</g>
<!-- Node2&#45;&gt;Node15 -->
<g id="edge40_Node000002_Node000015" class="edge">
<title>Node2&#45;&gt;Node15</title>
<g id="a_edge40_Node000002_Node000015"><a xlink:title=" ">
<path fill="none" stroke="#63b8ff" d="M421.18,-285.71C418.96,-276.79 415.76,-262.55 414.5,-250 413.08,-235.85 414.48,-170.56 415.5,-165 417.15,-156.02 420.39,-146.44 423.52,-138.48"/>
<polygon fill="#63b8ff" stroke="#63b8ff" points="426.8,-139.71 427.44,-129.13 420.35,-137 426.8,-139.71"/>
</a>
</g>
</g>
<!-- Node18 -->
<g id="Node000018" class="node">
<title>Node18</title>
<g id="a_Node000018"><a xlink:href="BoundedThreadSafeQueue_8h.html" target="_top" xlink:title=" ">
<polygon fill="white" stroke="#666666" points="299.5,-250 155.5,-250 155.5,-220 299.5,-220 299.5,-250"/>
<text text-anchor="start" x="163.5" y="-238" font-family="Helvetica,sans-Serif" font-size="10.00">../../../utils/BoundedThread</text>
<text text-anchor="middle" x="227.5" y="-227" font-family="Helvetica,sans-Serif" font-size="10.00">SafeQueue.h</text>
</a>
</g>
</g>
<!-- Node2&#45;&gt;Node18 -->
<g id="edge33_Node000002_Node000018" class="edge">
<title>Node2&#45;&gt;Node18</title>
<g id="a_edge33_Node000002_Node000018"><a xlink:title=" ">
<path fill="none" stroke="#63b8ff" d="M395,-285.99C366.18,-277.39 320.83,-263.86 284.58,-253.04"/>
<polygon fill="#63b8ff" stroke="#63b8ff" points="285.2,-249.57 274.62,-250.06 283.2,-256.28 285.2,-249.57"/>
</a>
</g>
</g>
<!-- Node19 -->
<g id="Node000019" class="node">
<title>Node19</title>
<g id="a_Node000019"><a xlink:title=" ">
<polygon fill="#e0e0e0" stroke="#999999" points="71,-184 0,-184 0,-165 71,-165 71,-184"/>
<text text-anchor="middle" x="35.5" y="-172" font-family="Helvetica,sans-Serif" font-size="10.00">QAtomicInt</text>
</a>
</g>
</g>
<!-- Node2&#45;&gt;Node19 -->
<g id="edge38_Node000002_Node000019" class="edge">
<title>Node2&#45;&gt;Node19</title>
<g id="a_edge38_Node000002_Node000019"><a xlink:title=" ">
<path fill="none" stroke="#63b8ff" d="M354.46,-291.64C297.06,-287.34 214.14,-276.64 146.5,-250 110.06,-235.65 73.43,-207.85 52.69,-190.56"/>
<polygon fill="#63b8ff" stroke="#63b8ff" points="54.96,-187.89 45.07,-184.08 50.42,-193.22 54.96,-187.89"/>
</a>
</g>
</g>
<!-- Node23 -->
<g id="Node000023" class="node">
<title>Node23</title>
<g id="a_Node000023"><a xlink:title=" ">
<polygon fill="#e0e0e0" stroke="#999999" points="479.5,-244.5 423.5,-244.5 423.5,-225.5 479.5,-225.5 479.5,-244.5"/>
<text text-anchor="middle" x="451.5" y="-232.5" font-family="Helvetica,sans-Serif" font-size="10.00">QObject</text>
</a>
</g>
</g>
<!-- Node2&#45;&gt;Node23 -->
<g id="edge39_Node000002_Node000023" class="edge">
<title>Node2&#45;&gt;Node23</title>
<g id="a_edge39_Node000002_Node000023"><a xlink:title=" ">
<path fill="none" stroke="#63b8ff" d="M427.63,-285.87C431.64,-277.49 437.85,-264.51 442.94,-253.89"/>
<polygon fill="#63b8ff" stroke="#63b8ff" points="446.19,-255.2 447.35,-244.67 439.88,-252.18 446.19,-255.2"/>
</a>
</g>
</g>
<!-- Node4 -->
<g id="Node000004" class="node">
<title>Node4</title>
<g id="a_Node000004"><a xlink:href="ComponentData_8h.html" target="_top" xlink:title=" ">
<polygon fill="white" stroke="#666666" points="715.5,-184 571.5,-184 571.5,-165 715.5,-165 715.5,-184"/>
<text text-anchor="middle" x="643.5" y="-172" font-family="Helvetica,sans-Serif" font-size="10.00">models/ComponentData.h</text>
</a>
</g>
</g>
<!-- Node3&#45;&gt;Node4 -->
<g id="edge3_Node000003_Node000004" class="edge">
<title>Node3&#45;&gt;Node4</title>
<g id="a_edge3_Node000003_Node000004"><a xlink:title=" ">
<path fill="none" stroke="#63b8ff" d="M643.5,-219.84C643.5,-212.21 643.5,-202.7 643.5,-194.45"/>
<polygon fill="#63b8ff" stroke="#63b8ff" points="647,-194.27 643.5,-184.27 640,-194.27 647,-194.27"/>
</a>
</g>
</g>
<!-- Node5 -->
<g id="Node000005" class="node">
<title>Node5</title>
<g id="a_Node000005"><a xlink:href="FootprintData_8h.html" target="_top" xlink:title=" ">
<polygon fill="white" stroke="#666666" points="777.5,-129 685.5,-129 685.5,-110 777.5,-110 777.5,-129"/>
<text text-anchor="middle" x="731.5" y="-117" font-family="Helvetica,sans-Serif" font-size="10.00">FootprintData.h</text>
</a>
</g>
</g>
<!-- Node3&#45;&gt;Node5 -->
<g id="edge26_Node000003_Node000005" class="edge">
<title>Node3&#45;&gt;Node5</title>
<g id="a_edge26_Node000003_Node000005"><a xlink:title=" ">
<path fill="none" stroke="#63b8ff" d="M680.91,-219.82C696.97,-211.78 714.34,-200.06 724.5,-184 732.93,-170.67 734.15,-152.56 733.58,-139.09"/>
<polygon fill="#63b8ff" stroke="#63b8ff" points="737.06,-138.77 732.79,-129.07 730.08,-139.32 737.06,-138.77"/>
</a>
</g>
</g>
<!-- Node6 -->
<g id="Node000006" class="node">
<title>Node6</title>
<g id="a_Node000006"><a xlink:href="Model3DData_8h.html" target="_top" xlink:title=" ">
<polygon fill="white" stroke="#666666" points="515.5,-74 423.5,-74 423.5,-55 515.5,-55 515.5,-74"/>
<text text-anchor="middle" x="469.5" y="-62" font-family="Helvetica,sans-Serif" font-size="10.00">Model3DData.h</text>
</a>
</g>
</g>
<!-- Node3&#45;&gt;Node6 -->
<g id="edge27_Node000003_Node000006" class="edge">
<title>Node3&#45;&gt;Node6</title>
<g id="a_edge27_Node000003_Node000006"><a xlink:title=" ">
<path fill="none" stroke="#63b8ff" d="M573.85,-231.73C525.87,-227.21 462.55,-215.16 415.5,-184 384.5,-163.47 356.68,-141.45 376.5,-110 386.23,-94.56 402.97,-84.35 419.59,-77.67"/>
<polygon fill="#63b8ff" stroke="#63b8ff" points="421.11,-80.84 429.3,-74.13 418.71,-74.26 421.11,-80.84"/>
</a>
</g>
</g>
<!-- Node9 -->
<g id="Node000009" class="node">
<title>Node9</title>
<g id="a_Node000009"><a xlink:title=" ">
<polygon fill="#e0e0e0" stroke="#999999" points="774,-19 721,-19 721,0 774,0 774,-19"/>
<text text-anchor="middle" x="747.5" y="-7" font-family="Helvetica,sans-Serif" font-size="10.00">QString</text>
</a>
</g>
</g>
<!-- Node3&#45;&gt;Node9 -->
<g id="edge32_Node000003_Node000009" class="edge">
<title>Node3&#45;&gt;Node9</title>
<g id="a_edge32_Node000003_Node000009"><a xlink:title=" ">
<path fill="none" stroke="#63b8ff" d="M713.05,-229.21C806.9,-218.56 970.93,-184.3 1045.5,-74 1050.23,-67 1051.01,-61.4 1045.5,-55 1012.21,-16.37 856.74,-10.77 784.54,-10.29"/>
<polygon fill="#63b8ff" stroke="#63b8ff" points="784.11,-6.79 774.1,-10.26 784.09,-13.79 784.11,-6.79"/>
</a>
</g>
</g>
<!-- Node13 -->
<g id="Node000013" class="node">
<title>Node13</title>
<g id="a_Node000013"><a xlink:href="SymbolData_8h.html" target="_top" xlink:title=" ">
<polygon fill="white" stroke="#666666" points="893.5,-129 807.5,-129 807.5,-110 893.5,-110 893.5,-129"/>
<text text-anchor="middle" x="850.5" y="-117" font-family="Helvetica,sans-Serif" font-size="10.00">SymbolData.h</text>
</a>
</g>
</g>
<!-- Node3&#45;&gt;Node13 -->
<g id="edge28_Node000003_Node000013" class="edge">
<title>Node3&#45;&gt;Node13</title>
<g id="a_edge28_Node000003_Node000013"><a xlink:title=" ">
<path fill="none" stroke="#63b8ff" d="M672.02,-219.97C691.69,-210.17 718.36,-196.63 741.5,-184 771.61,-167.57 805.68,-147.47 827.59,-134.35"/>
<polygon fill="#63b8ff" stroke="#63b8ff" points="829.42,-137.33 836.19,-129.18 825.81,-131.33 829.42,-137.33"/>
</a>
</g>
</g>
<!-- Node3&#45;&gt;Node15 -->
<g id="edge31_Node000003_Node000015" class="edge">
<title>Node3&#45;&gt;Node15</title>
<g id="a_edge31_Node000003_Node000015"><a xlink:title=" ">
<path fill="none" stroke="#63b8ff" d="M620.55,-219.96C596.8,-205.62 558.5,-182.96 524.5,-165 503.07,-153.68 478.29,-141.89 459.7,-133.29"/>
<polygon fill="#63b8ff" stroke="#63b8ff" points="461.15,-130.1 450.6,-129.1 458.22,-136.46 461.15,-130.1"/>
</a>
</g>
</g>
<!-- Node3&#45;&gt;Node16 -->
<g id="edge29_Node000003_Node000016" class="edge">
<title>Node3&#45;&gt;Node16</title>
<g id="a_edge29_Node000003_Node000016"><a xlink:title=" ">
<path fill="none" stroke="#63b8ff" d="M713.06,-227.85C799.15,-219.81 950.11,-204.33 1078.5,-184 1079.6,-183.83 1080.72,-183.64 1081.85,-183.45"/>
<polygon fill="#63b8ff" stroke="#63b8ff" points="1082.88,-186.82 1092.09,-181.59 1081.63,-179.93 1082.88,-186.82"/>
</a>
</g>
</g>
<!-- Node17 -->
<g id="Node000017" class="node">
<title>Node17</title>
<g id="a_Node000017"><a xlink:title=" ">
<polygon fill="#e0e0e0" stroke="#999999" points="515,-184 424,-184 424,-165 515,-165 515,-184"/>
<text text-anchor="middle" x="469.5" y="-172" font-family="Helvetica,sans-Serif" font-size="10.00">QElapsedTimer</text>
</a>
</g>
</g>
<!-- Node3&#45;&gt;Node17 -->
<g id="edge30_Node000003_Node000017" class="edge">
<title>Node3&#45;&gt;Node17</title>
<g id="a_edge30_Node000003_Node000017"><a xlink:title=" ">
<path fill="none" stroke="#63b8ff" d="M601.82,-219.99C572.18,-210.02 532.81,-196.78 504.73,-187.35"/>
<polygon fill="#63b8ff" stroke="#63b8ff" points="505.54,-183.92 494.94,-184.05 503.3,-190.56 505.54,-183.92"/>
</a>
</g>
</g>
<!-- Node4&#45;&gt;Node5 -->
<g id="edge4_Node000004_Node000005" class="edge">
<title>Node4&#45;&gt;Node5</title>
<g id="a_edge4_Node000004_Node000005"><a xlink:title=" ">
<path fill="none" stroke="#63b8ff" d="M657.64,-164.98C671.29,-156.77 692.19,-144.18 708.28,-134.49"/>
<polygon fill="#63b8ff" stroke="#63b8ff" points="710.34,-137.33 717.1,-129.17 706.73,-131.33 710.34,-137.33"/>
</a>
</g>
</g>
<!-- Node4&#45;&gt;Node6 -->
<g id="edge14_Node000004_Node000006" class="edge">
<title>Node4&#45;&gt;Node6</title>
<g id="a_edge14_Node000004_Node000006"><a xlink:title=" ">
<path fill="none" stroke="#63b8ff" d="M610.95,-164.99C587.09,-157.79 554.61,-145.92 529.5,-129 510.51,-116.21 493.06,-96.43 481.93,-82.34"/>
<polygon fill="#63b8ff" stroke="#63b8ff" points="484.43,-79.86 475.58,-74.04 478.88,-84.11 484.43,-79.86"/>
</a>
</g>
</g>
<!-- Node8 -->
<g id="Node000008" class="node">
<title>Node8</title>
<g id="a_Node000008"><a xlink:title=" ">
<polygon fill="#e0e0e0" stroke="#999999" points="651.5,-19 575.5,-19 575.5,0 651.5,0 651.5,-19"/>
<text text-anchor="middle" x="613.5" y="-7" font-family="Helvetica,sans-Serif" font-size="10.00">QJsonObject</text>
</a>
</g>
</g>
<!-- Node4&#45;&gt;Node8 -->
<g id="edge23_Node000004_Node000008" class="edge">
<title>Node4&#45;&gt;Node8</title>
<g id="a_edge23_Node000004_Node000008"><a xlink:title=" ">
<path fill="none" stroke="#63b8ff" d="M615.11,-164.92C598.04,-158.13 577.69,-146.77 567.5,-129 551.14,-100.47 554.66,-85.28 567.5,-55 572.48,-43.25 582.25,-33.09 591.51,-25.45"/>
<polygon fill="#63b8ff" stroke="#63b8ff" points="593.9,-28.03 599.72,-19.18 589.65,-22.47 593.9,-28.03"/>
</a>
</g>
</g>
<!-- Node4&#45;&gt;Node9 -->
<g id="edge25_Node000004_Node000009" class="edge">
<title>Node4&#45;&gt;Node9</title>
<g id="a_edge25_Node000004_Node000009"><a xlink:title=" ">
<path fill="none" stroke="#63b8ff" d="M635.45,-164.94C616.99,-144.26 575.13,-90.61 601.5,-55 614.6,-37.31 672.2,-23.84 711.01,-16.56"/>
<polygon fill="#63b8ff" stroke="#63b8ff" points="711.71,-19.99 720.92,-14.76 710.46,-13.1 711.71,-19.99"/>
</a>
</g>
</g>
<!-- Node10 -->
<g id="Node000010" class="node">
<title>Node10</title>
<g id="a_Node000010"><a xlink:title=" ">
<polygon fill="#e0e0e0" stroke="#999999" points="681,-74 610,-74 610,-55 681,-55 681,-74"/>
<text text-anchor="middle" x="645.5" y="-62" font-family="Helvetica,sans-Serif" font-size="10.00">QJsonArray</text>
</a>
</g>
</g>
<!-- Node4&#45;&gt;Node10 -->
<g id="edge22_Node000004_Node000010" class="edge">
<title>Node4&#45;&gt;Node10</title>
<g id="a_edge22_Node000004_Node000010"><a xlink:title=" ">
<path fill="none" stroke="#63b8ff" d="M643.66,-164.66C643.99,-147.17 644.72,-107.8 645.15,-84.27"/>
<polygon fill="#63b8ff" stroke="#63b8ff" points="648.65,-84.22 645.34,-74.16 641.66,-84.09 648.65,-84.22"/>
</a>
</g>
</g>
<!-- Node4&#45;&gt;Node13 -->
<g id="edge15_Node000004_Node000013" class="edge">
<title>Node4&#45;&gt;Node13</title>
<g id="a_edge15_Node000004_Node000013"><a xlink:title=" ">
<path fill="none" stroke="#63b8ff" d="M676.76,-164.98C712.11,-155.93 768.17,-141.58 807.01,-131.64"/>
<polygon fill="#63b8ff" stroke="#63b8ff" points="808.16,-134.95 816.98,-129.08 806.43,-128.17 808.16,-134.95"/>
</a>
</g>
</g>
<!-- Node4&#45;&gt;Node15 -->
<g id="edge24_Node000004_Node000015" class="edge">
<title>Node4&#45;&gt;Node15</title>
<g id="a_edge24_Node000004_Node000015"><a xlink:title=" ">
<path fill="none" stroke="#63b8ff" d="M609.44,-164.98C573.08,-155.89 515.33,-141.46 475.53,-131.51"/>
<polygon fill="#63b8ff" stroke="#63b8ff" points="476.38,-128.11 465.83,-129.08 474.68,-134.9 476.38,-128.11"/>
</a>
</g>
</g>
<!-- Node5&#45;&gt;Node6 -->
<g id="edge5_Node000005_Node000006" class="edge">
<title>Node5&#45;&gt;Node6</title>
<g id="a_edge5_Node000005_Node000006"><a xlink:title=" ">
<path fill="none" stroke="#63b8ff" d="M689.41,-109.98C643.8,-100.76 570.98,-86.03 521.75,-76.07"/>
<polygon fill="#63b8ff" stroke="#63b8ff" points="522.42,-72.63 511.92,-74.08 521.03,-79.5 522.42,-72.63"/>
</a>
</g>
</g>
<!-- Node5&#45;&gt;Node8 -->
<g id="edge10_Node000005_Node000008" class="edge">
<title>Node5&#45;&gt;Node8</title>
<g id="a_edge10_Node000005_Node000008"><a xlink:title=" ">
<path fill="none" stroke="#63b8ff" d="M727.54,-109.78C721.22,-96.61 707.8,-71.47 690.5,-55 676.7,-41.86 658.32,-31.05 642.97,-23.38"/>
<polygon fill="#63b8ff" stroke="#63b8ff" points="644.41,-20.18 633.88,-19.01 641.38,-26.49 644.41,-20.18"/>
</a>
</g>
</g>
<!-- Node5&#45;&gt;Node9 -->
<g id="edge13_Node000005_Node000009" class="edge">
<title>Node5&#45;&gt;Node9</title>
<g id="a_edge13_Node000005_Node000009"><a xlink:title=" ">
<path fill="none" stroke="#63b8ff" d="M732.81,-109.66C735.4,-92.17 741.23,-52.8 744.72,-29.27"/>
<polygon fill="#63b8ff" stroke="#63b8ff" points="748.21,-29.56 746.22,-19.16 741.29,-28.54 748.21,-29.56"/>
</a>
</g>
</g>
<!-- Node5&#45;&gt;Node10 -->
<g id="edge9_Node000005_Node000010" class="edge">
<title>Node5&#45;&gt;Node10</title>
<g id="a_edge9_Node000005_Node000010"><a xlink:title=" ">
<path fill="none" stroke="#63b8ff" d="M717.68,-109.98C704.35,-101.77 683.92,-89.18 668.19,-79.49"/>
<polygon fill="#63b8ff" stroke="#63b8ff" points="669.92,-76.44 659.57,-74.17 666.25,-82.4 669.92,-76.44"/>
</a>
</g>
</g>
<!-- Node11 -->
<g id="Node000011" class="node">
<title>Node11</title>
<g id="a_Node000011"><a xlink:title=" ">
<polygon fill="#e0e0e0" stroke="#999999" points="817,-74 776,-74 776,-55 817,-55 817,-74"/>
<text text-anchor="middle" x="796.5" y="-62" font-family="Helvetica,sans-Serif" font-size="10.00">QList</text>
</a>
</g>
</g>
<!-- Node5&#45;&gt;Node11 -->
<g id="edge11_Node000005_Node000011" class="edge">
<title>Node5&#45;&gt;Node11</title>
<g id="a_edge11_Node000005_Node000011"><a xlink:title=" ">
<path fill="none" stroke="#63b8ff" d="M741.94,-109.98C751.65,-102.07 766.32,-90.11 778,-80.58"/>
<polygon fill="#63b8ff" stroke="#63b8ff" points="780.33,-83.2 785.87,-74.17 775.9,-77.78 780.33,-83.2"/>
</a>
</g>
</g>
<!-- Node12 -->
<g id="Node000012" class="node">
<title>Node12</title>
<g id="a_Node000012"><a xlink:title=" ">
<polygon fill="#e0e0e0" stroke="#999999" points="890,-74 835,-74 835,-55 890,-55 890,-74"/>
<text text-anchor="middle" x="862.5" y="-62" font-family="Helvetica,sans-Serif" font-size="10.00">QPointF</text>
</a>
</g>
</g>
<!-- Node5&#45;&gt;Node12 -->
<g id="edge12_Node000005_Node000012" class="edge">
<title>Node5&#45;&gt;Node12</title>
<g id="a_edge12_Node000005_Node000012"><a xlink:title=" ">
<path fill="none" stroke="#63b8ff" d="M752.55,-109.98C773.91,-101.34 807.2,-87.87 831.56,-78.02"/>
<polygon fill="#63b8ff" stroke="#63b8ff" points="833.11,-81.17 841.07,-74.17 830.49,-74.68 833.11,-81.17"/>
</a>
</g>
</g>
<!-- Node7 -->
<g id="Node000007" class="node">
<title>Node7</title>
<g id="a_Node000007"><a xlink:title=" ">
<polygon fill="#e0e0e0" stroke="#999999" points="506,-19 433,-19 433,0 506,0 506,-19"/>
<text text-anchor="middle" x="469.5" y="-7" font-family="Helvetica,sans-Serif" font-size="10.00">QByteArray</text>
</a>
</g>
</g>
<!-- Node6&#45;&gt;Node7 -->
<g id="edge6_Node000006_Node000007" class="edge">
<title>Node6&#45;&gt;Node7</title>
<g id="a_edge6_Node000006_Node000007"><a xlink:title=" ">
<path fill="none" stroke="#63b8ff" d="M469.5,-54.75C469.5,-47.8 469.5,-37.85 469.5,-29.13"/>
<polygon fill="#63b8ff" stroke="#63b8ff" points="473,-29.09 469.5,-19.09 466,-29.09 473,-29.09"/>
</a>
</g>
</g>
<!-- Node6&#45;&gt;Node8 -->
<g id="edge7_Node000006_Node000008" class="edge">
<title>Node6&#45;&gt;Node8</title>
<g id="a_edge7_Node000006_Node000008"><a xlink:title=" ">
<path fill="none" stroke="#63b8ff" d="M492.64,-54.98C516.32,-46.27 553.37,-32.63 580.21,-22.75"/>
<polygon fill="#63b8ff" stroke="#63b8ff" points="581.77,-25.91 589.94,-19.17 579.35,-19.34 581.77,-25.91"/>
</a>
</g>
</g>
<!-- Node6&#45;&gt;Node9 -->
<g id="edge8_Node000006_Node000009" class="edge">
<title>Node6&#45;&gt;Node9</title>
<g id="a_edge8_Node000006_Node000009"><a xlink:title=" ">
<path fill="none" stroke="#63b8ff" d="M514.17,-54.98C568.87,-44.55 660.5,-27.09 711.12,-17.44"/>
<polygon fill="#63b8ff" stroke="#63b8ff" points="711.81,-20.87 720.98,-15.56 710.5,-13.99 711.81,-20.87"/>
</a>
</g>
</g>
<!-- Node13&#45;&gt;Node8 -->
<g id="edge17_Node000013_Node000008" class="edge">
<title>Node13&#45;&gt;Node8</title>
<g id="a_edge17_Node000013_Node000008"><a xlink:title=" ">
<path fill="none" stroke="#63b8ff" d="M865.53,-109.86C885.3,-97.43 915.71,-73.93 899.5,-55 884.25,-37.19 739.25,-21.7 661.77,-14.61"/>
<polygon fill="#63b8ff" stroke="#63b8ff" points="662.04,-11.12 651.76,-13.71 661.41,-18.09 662.04,-11.12"/>
</a>
</g>
</g>
<!-- Node13&#45;&gt;Node9 -->
<g id="edge21_Node000013_Node000009" class="edge">
<title>Node13&#45;&gt;Node9</title>
<g id="a_edge21_Node000013_Node000009"><a xlink:title=" ">
<path fill="none" stroke="#63b8ff" d="M878.46,-109.96C909.07,-99.16 951.44,-79.04 932.5,-55 914.4,-32.04 832.88,-19.55 784.3,-14.04"/>
<polygon fill="#63b8ff" stroke="#63b8ff" points="784.5,-10.54 774.18,-12.93 783.74,-17.5 784.5,-10.54"/>
</a>
</g>
</g>
<!-- Node13&#45;&gt;Node10 -->
<g id="edge16_Node000013_Node000010" class="edge">
<title>Node13&#45;&gt;Node10</title>
<g id="a_edge16_Node000013_Node000010"><a xlink:title=" ">
<path fill="none" stroke="#63b8ff" d="M817.56,-109.98C782.55,-100.93 727.03,-86.58 688.57,-76.64"/>
<polygon fill="#63b8ff" stroke="#63b8ff" points="689.25,-73.2 678.69,-74.08 687.5,-79.97 689.25,-73.2"/>
</a>
</g>
</g>
<!-- Node13&#45;&gt;Node11 -->
<g id="edge18_Node000013_Node000011" class="edge">
<title>Node13&#45;&gt;Node11</title>
<g id="a_edge18_Node000013_Node000011"><a xlink:title=" ">
<path fill="none" stroke="#63b8ff" d="M841.58,-109.75C833.72,-102.03 822.07,-90.6 812.58,-81.28"/>
<polygon fill="#63b8ff" stroke="#63b8ff" points="814.84,-78.6 805.25,-74.09 809.94,-83.59 814.84,-78.6"/>
</a>
</g>
</g>
<!-- Node13&#45;&gt;Node12 -->
<g id="edge19_Node000013_Node000012" class="edge">
<title>Node13&#45;&gt;Node12</title>
<g id="a_edge19_Node000013_Node000012"><a xlink:title=" ">
<path fill="none" stroke="#63b8ff" d="M852.48,-109.75C854.07,-102.72 856.36,-92.62 858.35,-83.84"/>
<polygon fill="#63b8ff" stroke="#63b8ff" points="861.76,-84.62 860.56,-74.09 854.93,-83.07 861.76,-84.62"/>
</a>
</g>
</g>
<!-- Node14 -->
<g id="Node000014" class="node">
<title>Node14</title>
<g id="a_Node000014"><a xlink:title=" ">
<polygon fill="#e0e0e0" stroke="#999999" points="1036.5,-74 984.5,-74 984.5,-55 1036.5,-55 1036.5,-74"/>
<text text-anchor="middle" x="1010.5" y="-62" font-family="Helvetica,sans-Serif" font-size="10.00">QRectF</text>
</a>
</g>
</g>
<!-- Node13&#45;&gt;Node14 -->
<g id="edge20_Node000013_Node000014" class="edge">
<title>Node13&#45;&gt;Node14</title>
<g id="a_edge20_Node000013_Node000014"><a xlink:title=" ">
<path fill="none" stroke="#63b8ff" d="M876.21,-109.98C902.95,-101.13 945.03,-87.19 974.95,-77.28"/>
<polygon fill="#63b8ff" stroke="#63b8ff" points="976.2,-80.55 984.59,-74.08 974,-73.9 976.2,-80.55"/>
</a>
</g>
</g>
<!-- Node18&#45;&gt;Node19 -->
<g id="edge34_Node000018_Node000019" class="edge">
<title>Node18&#45;&gt;Node19</title>
<g id="a_edge34_Node000018_Node000019"><a xlink:title=" ">
<path fill="none" stroke="#63b8ff" d="M181.51,-219.99C148.38,-209.89 104.21,-196.44 73.16,-186.98"/>
<polygon fill="#63b8ff" stroke="#63b8ff" points="74.16,-183.62 63.57,-184.05 72.12,-190.32 74.16,-183.62"/>
</a>
</g>
</g>
<!-- Node20 -->
<g id="Node000020" class="node">
<title>Node20</title>
<g id="a_Node000020"><a xlink:title=" ">
<polygon fill="#e0e0e0" stroke="#999999" points="255,-184 200,-184 200,-165 255,-165 255,-184"/>
<text text-anchor="middle" x="227.5" y="-172" font-family="Helvetica,sans-Serif" font-size="10.00">QMutex</text>
</a>
</g>
</g>
<!-- Node18&#45;&gt;Node20 -->
<g id="edge35_Node000018_Node000020" class="edge">
<title>Node18&#45;&gt;Node20</title>
<g id="a_edge35_Node000018_Node000020"><a xlink:title=" ">
<path fill="none" stroke="#63b8ff" d="M227.5,-219.84C227.5,-212.21 227.5,-202.7 227.5,-194.45"/>
<polygon fill="#63b8ff" stroke="#63b8ff" points="231,-194.27 227.5,-184.27 224,-194.27 231,-194.27"/>
</a>
</g>
</g>
<!-- Node21 -->
<g id="Node000021" class="node">
<title>Node21</title>
<g id="a_Node000021"><a xlink:title=" ">
<polygon fill="#e0e0e0" stroke="#999999" points="329.5,-184 273.5,-184 273.5,-165 329.5,-165 329.5,-184"/>
<text text-anchor="middle" x="301.5" y="-172" font-family="Helvetica,sans-Serif" font-size="10.00">QQueue</text>
</a>
</g>
</g>
<!-- Node18&#45;&gt;Node21 -->
<g id="edge36_Node000018_Node000021" class="edge">
<title>Node18&#45;&gt;Node21</title>
<g id="a_edge36_Node000018_Node000021"><a xlink:title=" ">
<path fill="none" stroke="#63b8ff" d="M245.41,-219.84C256.59,-211 270.98,-199.63 282.38,-190.62"/>
<polygon fill="#63b8ff" stroke="#63b8ff" points="284.74,-193.21 290.41,-184.27 280.4,-187.72 284.74,-193.21"/>
</a>
</g>
</g>
<!-- Node22 -->
<g id="Node000022" class="node">
<title>Node22</title>
<g id="a_Node000022"><a xlink:title=" ">
<polygon fill="#e0e0e0" stroke="#999999" points="181.5,-184 89.5,-184 89.5,-165 181.5,-165 181.5,-184"/>
<text text-anchor="middle" x="135.5" y="-172" font-family="Helvetica,sans-Serif" font-size="10.00">QWaitCondition</text>
</a>
</g>
</g>
<!-- Node18&#45;&gt;Node22 -->
<g id="edge37_Node000018_Node000022" class="edge">
<title>Node18&#45;&gt;Node22</title>
<g id="a_edge37_Node000018_Node000022"><a xlink:title=" ">
<path fill="none" stroke="#63b8ff" d="M205.23,-219.84C190.83,-210.68 172.17,-198.82 157.77,-189.66"/>
<polygon fill="#63b8ff" stroke="#63b8ff" points="159.33,-186.51 149.02,-184.09 155.58,-192.41 159.33,-186.51"/>
</a>
</g>
</g>
</g>
</svg>
