<?xml version="1.0" encoding="UTF-8" standalone="no"?>
<!DOCTYPE svg PUBLIC "-//W3C//DTD SVG 1.1//EN"
 "http://www.w3.org/Graphics/SVG/1.1/DTD/svg11.dtd">
<!-- Generated by graphviz version 2.43.0 (0)
 -->
<!-- Title: services/pipeline/queue/PipelineQueueManager.h Pages: 1 -->
<svg width="1146pt" height="324pt"
 viewBox="0.00 0.00 1146.00 324.00" xmlns="http://www.w3.org/2000/svg" xmlns:xlink="http://www.w3.org/1999/xlink">
<g id="graph0" class="graph" transform="scale(1 1) rotate(0) translate(4 320)">
<title>services/pipeline/queue/PipelineQueueManager.h</title>
<!-- Node1 -->
<g id="Node000001" class="node">
<title>Node1</title>
<g id="a_Node000001"><a xlink:title=" ">
<polygon fill="#999999" stroke="#666666" points="896.5,-316 755.5,-316 755.5,-286 896.5,-286 896.5,-316"/>
<text text-anchor="start" x="763.5" y="-304" font-family="Helvetica,sans-Serif" font-size="10.00">services/pipeline/queue</text>
<text text-anchor="middle" x="826" y="-293" font-family="Helvetica,sans-Serif" font-size="10.00">/PipelineQueueManager.h</text>
</a>
</g>
</g>
<!-- Node2 -->
<g id="Node000002" class="node">
<title>Node2</title>
<g id="a_Node000002"><a xlink:href="ComponentExportStatus_8h.html" target="_top" xlink:title=" ">
<polygon fill="white" stroke="#666666" points="629.5,-250 490.5,-250 490.5,-220 629.5,-220 629.5,-250"/>
<text text-anchor="start" x="498.5" y="-238" font-family="Helvetica,sans-Serif" font-size="10.00">../../../models/Component</text>
<text text-anchor="middle" x="560" y="-227" font-family="Helvetica,sans-Serif" font-size="10.00">ExportStatus.h</text>
</a>
</g>
</g>
<!-- Node1&#45;&gt;Node2 -->
<g id="edge1_Node000001_Node000002" class="edge">
<title>Node1&#45;&gt;Node2</title>
<g id="a_edge1_Node000001_Node000002"><a xlink:title=" ">
<path fill="none" stroke="#63b8ff" d="M767.63,-285.95C726.48,-276.06 671.25,-262.77 628.09,-252.38"/>
<polygon fill="#63b8ff" stroke="#63b8ff" points="628.78,-248.95 618.24,-250.01 627.14,-255.75 628.78,-248.95"/>
</a>
</g>
</g>
<!-- Node14 -->
<g id="Node000014" class="node">
<title>Node14</title>
<g id="a_Node000014"><a xlink:title=" ">
<polygon fill="#e0e0e0" stroke="#999999" points="92,-129 0,-129 0,-110 92,-110 92,-129"/>
<text text-anchor="middle" x="46" y="-117" font-family="Helvetica,sans-Serif" font-size="10.00">QSharedPointer</text>
</a>
</g>
</g>
<!-- Node1&#45;&gt;Node14 -->
<g id="edge39_Node000001_Node000014" class="edge">
<title>Node1&#45;&gt;Node14</title>
<g id="a_edge39_Node000001_Node000014"><a xlink:title=" ">
<path fill="none" stroke="#63b8ff" d="M755.4,-297.22C590.36,-289.46 185.2,-262.68 78,-184 63.25,-173.17 54.85,-153.6 50.4,-139.03"/>
<polygon fill="#63b8ff" stroke="#63b8ff" points="53.7,-137.84 47.72,-129.1 46.94,-139.67 53.7,-137.84"/>
</a>
</g>
</g>
<!-- Node17 -->
<g id="Node000017" class="node">
<title>Node17</title>
<g id="a_Node000017"><a xlink:href="BoundedThreadSafeQueue_8h.html" target="_top" xlink:title=" ">
<polygon fill="white" stroke="#666666" points="998,-250 854,-250 854,-220 998,-220 998,-250"/>
<text text-anchor="start" x="862" y="-238" font-family="Helvetica,sans-Serif" font-size="10.00">../../../utils/BoundedThread</text>
<text text-anchor="middle" x="926" y="-227" font-family="Helvetica,sans-Serif" font-size="10.00">SafeQueue.h</text>
</a>
</g>
</g>
<!-- Node1&#45;&gt;Node17 -->
<g id="edge32_Node000001_Node000017" class="edge">
<title>Node1&#45;&gt;Node17</title>
<g id="a_edge32_Node000001_Node000017"><a xlink:title=" ">
<path fill="none" stroke="#63b8ff" d="M848.19,-285.8C862.05,-276.93 880.07,-265.39 895.29,-255.66"/>
<polygon fill="#63b8ff" stroke="#63b8ff" points="897.33,-258.5 903.87,-250.16 893.56,-252.61 897.33,-258.5"/>
</a>
</g>
</g>
<!-- Node18 -->
<g id="Node000018" class="node">
<title>Node18</title>
<g id="a_Node000018"><a xlink:title=" ">
<polygon fill="#e0e0e0" stroke="#999999" points="880.5,-184 809.5,-184 809.5,-165 880.5,-165 880.5,-184"/>
<text text-anchor="middle" x="845" y="-172" font-family="Helvetica,sans-Serif" font-size="10.00">QAtomicInt</text>
</a>
</g>
</g>
<!-- Node1&#45;&gt;Node18 -->
<g id="edge37_Node000001_Node000018" class="edge">
<title>Node1&#45;&gt;Node18</title>
<g id="a_edge37_Node000001_Node000018"><a xlink:title=" ">
<path fill="none" stroke="#63b8ff" d="M828.18,-285.72C831.63,-263.12 838.34,-219.12 842.16,-194.09"/>
<polygon fill="#63b8ff" stroke="#63b8ff" points="845.64,-194.48 843.69,-184.07 838.72,-193.43 845.64,-194.48"/>
</a>
</g>
</g>
<!-- Node22 -->
<g id="Node000022" class="node">
<title>Node22</title>
<g id="a_Node000022"><a xlink:title=" ">
<polygon fill="#e0e0e0" stroke="#999999" points="1072,-244.5 1016,-244.5 1016,-225.5 1072,-225.5 1072,-244.5"/>
<text text-anchor="middle" x="1044" y="-232.5" font-family="Helvetica,sans-Serif" font-size="10.00">QObject</text>
</a>
</g>
</g>
<!-- Node1&#45;&gt;Node22 -->
<g id="edge38_Node000001_Node000022" class="edge">
<title>Node1&#45;&gt;Node22</title>
<g id="a_edge38_Node000001_Node000022"><a xlink:title=" ">
<path fill="none" stroke="#63b8ff" d="M881.85,-286C917.83,-276.62 965.47,-263.56 1007,-250 1008.86,-249.39 1010.77,-248.75 1012.68,-248.08"/>
<polygon fill="#63b8ff" stroke="#63b8ff" points="1014,-251.33 1022.21,-244.63 1011.61,-244.74 1014,-251.33"/>
</a>
</g>
</g>
<!-- Node3 -->
<g id="Node000003" class="node">
<title>Node3</title>
<g id="a_Node000003"><a xlink:href="ComponentData_8h.html" target="_top" xlink:title=" ">
<polygon fill="white" stroke="#666666" points="532,-184 388,-184 388,-165 532,-165 532,-184"/>
<text text-anchor="middle" x="460" y="-172" font-family="Helvetica,sans-Serif" font-size="10.00">models/ComponentData.h</text>
</a>
</g>
</g>
<!-- Node2&#45;&gt;Node3 -->
<g id="edge2_Node000002_Node000003" class="edge">
<title>Node2&#45;&gt;Node3</title>
<g id="a_edge2_Node000002_Node000003"><a xlink:title=" ">
<path fill="none" stroke="#63b8ff" d="M536.05,-219.99C520.11,-210.66 499.27,-198.47 483.44,-189.21"/>
<polygon fill="#63b8ff" stroke="#63b8ff" points="485.17,-186.17 474.77,-184.14 481.63,-192.21 485.17,-186.17"/>
</a>
</g>
</g>
<!-- Node4 -->
<g id="Node000004" class="node">
<title>Node4</title>
<g id="a_Node000004"><a xlink:href="FootprintData_8h.html" target="_top" xlink:title=" ">
<polygon fill="white" stroke="#666666" points="600,-129 508,-129 508,-110 600,-110 600,-129"/>
<text text-anchor="middle" x="554" y="-117" font-family="Helvetica,sans-Serif" font-size="10.00">FootprintData.h</text>
</a>
</g>
</g>
<!-- Node2&#45;&gt;Node4 -->
<g id="edge25_Node000002_Node000004" class="edge">
<title>Node2&#45;&gt;Node4</title>
<g id="a_edge25_Node000002_Node000004"><a xlink:title=" ">
<path fill="none" stroke="#63b8ff" d="M559.24,-219.63C558.16,-199.21 556.18,-161.81 554.99,-139.24"/>
<polygon fill="#63b8ff" stroke="#63b8ff" points="558.48,-139.03 554.46,-129.23 551.49,-139.4 558.48,-139.03"/>
</a>
</g>
</g>
<!-- Node5 -->
<g id="Node000005" class="node">
<title>Node5</title>
<g id="a_Node000005"><a xlink:href="Model3DData_8h.html" target="_top" xlink:title=" ">
<polygon fill="white" stroke="#666666" points="760,-74 668,-74 668,-55 760,-55 760,-74"/>
<text text-anchor="middle" x="714" y="-62" font-family="Helvetica,sans-Serif" font-size="10.00">Model3DData.h</text>
</a>
</g>
</g>
<!-- Node2&#45;&gt;Node5 -->
<g id="edge26_Node000002_Node000005" class="edge">
<title>Node2&#45;&gt;Node5</title>
<g id="a_edge26_Node000002_Node000005"><a xlink:title=" ">
<path fill="none" stroke="#63b8ff" d="M569.63,-219.98C580.18,-205.24 598.13,-181.89 617,-165 638.77,-145.52 651.29,-149.61 672,-129 685.72,-115.35 697.49,-96.53 705.05,-82.93"/>
<polygon fill="#63b8ff" stroke="#63b8ff" points="708.14,-84.56 709.77,-74.1 701.97,-81.26 708.14,-84.56"/>
</a>
</g>
</g>
<!-- Node8 -->
<g id="Node000008" class="node">
<title>Node8</title>
<g id="a_Node000008"><a xlink:title=" ">
<polygon fill="#e0e0e0" stroke="#999999" points="292.5,-19 239.5,-19 239.5,0 292.5,0 292.5,-19"/>
<text text-anchor="middle" x="266" y="-7" font-family="Helvetica,sans-Serif" font-size="10.00">QString</text>
</a>
</g>
</g>
<!-- Node2&#45;&gt;Node8 -->
<g id="edge31_Node000002_Node000008" class="edge">
<title>Node2&#45;&gt;Node8</title>
<g id="a_edge31_Node000002_Node000008"><a xlink:title=" ">
<path fill="none" stroke="#63b8ff" d="M490.18,-227.96C413.94,-218.24 291.6,-193.16 208,-129 178.67,-106.49 150.1,-86.16 170,-55 183.06,-34.55 208.2,-23.36 229.48,-17.31"/>
<polygon fill="#63b8ff" stroke="#63b8ff" points="230.41,-20.68 239.23,-14.81 228.67,-13.9 230.41,-20.68"/>
</a>
</g>
</g>
<!-- Node12 -->
<g id="Node000012" class="node">
<title>Node12</title>
<g id="a_Node000012"><a xlink:href="SymbolData_8h.html" target="_top" xlink:title=" ">
<polygon fill="white" stroke="#666666" points="397,-129 311,-129 311,-110 397,-110 397,-129"/>
<text text-anchor="middle" x="354" y="-117" font-family="Helvetica,sans-Serif" font-size="10.00">SymbolData.h</text>
</a>
</g>
</g>
<!-- Node2&#45;&gt;Node12 -->
<g id="edge27_Node000002_Node000012" class="edge">
<title>Node2&#45;&gt;Node12</title>
<g id="a_edge27_Node000002_Node000012"><a xlink:title=" ">
<path fill="none" stroke="#63b8ff" d="M490.12,-229.53C453.16,-223.81 409.29,-211.26 379,-184 366.21,-172.5 359.89,-153.62 356.81,-139.43"/>
<polygon fill="#63b8ff" stroke="#63b8ff" points="360.2,-138.5 354.97,-129.28 353.31,-139.75 360.2,-138.5"/>
</a>
</g>
</g>
<!-- Node2&#45;&gt;Node14 -->
<g id="edge30_Node000002_Node000014" class="edge">
<title>Node2&#45;&gt;Node14</title>
<g id="a_edge30_Node000002_Node000014"><a xlink:title=" ">
<path fill="none" stroke="#63b8ff" d="M490.21,-232.15C380.08,-228.27 171.76,-216.72 106,-184 85.08,-173.59 67.62,-152.72 57.02,-137.74"/>
<polygon fill="#63b8ff" stroke="#63b8ff" points="59.83,-135.66 51.34,-129.33 54.03,-139.57 59.83,-135.66"/>
</a>
</g>
</g>
<!-- Node15 -->
<g id="Node000015" class="node">
<title>Node15</title>
<g id="a_Node000015"><a xlink:title=" ">
<polygon fill="#e0e0e0" stroke="#999999" points="682,-184 626,-184 626,-165 682,-165 682,-184"/>
<text text-anchor="middle" x="654" y="-172" font-family="Helvetica,sans-Serif" font-size="10.00">QDebug</text>
</a>
</g>
</g>
<!-- Node2&#45;&gt;Node15 -->
<g id="edge28_Node000002_Node000015" class="edge">
<title>Node2&#45;&gt;Node15</title>
<g id="a_edge28_Node000002_Node000015"><a xlink:title=" ">
<path fill="none" stroke="#63b8ff" d="M582.75,-219.84C597.6,-210.6 616.9,-198.59 631.66,-189.4"/>
<polygon fill="#63b8ff" stroke="#63b8ff" points="633.55,-192.35 640.19,-184.09 629.85,-186.41 633.55,-192.35"/>
</a>
</g>
</g>
<!-- Node16 -->
<g id="Node000016" class="node">
<title>Node16</title>
<g id="a_Node000016"><a xlink:title=" ">
<polygon fill="#e0e0e0" stroke="#999999" points="791.5,-184 700.5,-184 700.5,-165 791.5,-165 791.5,-184"/>
<text text-anchor="middle" x="746" y="-172" font-family="Helvetica,sans-Serif" font-size="10.00">QElapsedTimer</text>
</a>
</g>
</g>
<!-- Node2&#45;&gt;Node16 -->
<g id="edge29_Node000002_Node000016" class="edge">
<title>Node2&#45;&gt;Node16</title>
<g id="a_edge29_Node000002_Node000016"><a xlink:title=" ">
<path fill="none" stroke="#63b8ff" d="M604.55,-219.99C636.51,-209.94 679.06,-196.55 709.12,-187.1"/>
<polygon fill="#63b8ff" stroke="#63b8ff" points="710.31,-190.39 718.8,-184.05 708.21,-183.72 710.31,-190.39"/>
</a>
</g>
</g>
<!-- Node3&#45;&gt;Node4 -->
<g id="edge3_Node000003_Node000004" class="edge">
<title>Node3&#45;&gt;Node4</title>
<g id="a_edge3_Node000003_Node000004"><a xlink:title=" ">
<path fill="none" stroke="#63b8ff" d="M475.1,-164.98C489.82,-156.69 512.42,-143.94 529.67,-134.22"/>
<polygon fill="#63b8ff" stroke="#63b8ff" points="531.63,-137.13 538.62,-129.17 528.19,-131.03 531.63,-137.13"/>
</a>
</g>
</g>
<!-- Node3&#45;&gt;Node5 -->
<g id="edge13_Node000003_Node000005" class="edge">
<title>Node3&#45;&gt;Node5</title>
<g id="a_edge13_Node000003_Node000005"><a xlink:title=" ">
<path fill="none" stroke="#63b8ff" d="M531.55,-164.96C567.19,-158.6 610.02,-147.66 645,-129 667.09,-117.22 687.55,-96.67 700.36,-82.14"/>
<polygon fill="#63b8ff" stroke="#63b8ff" points="703.14,-84.28 706.97,-74.4 697.81,-79.73 703.14,-84.28"/>
</a>
</g>
</g>
<!-- Node7 -->
<g id="Node000007" class="node">
<title>Node7</title>
<g id="a_Node000007"><a xlink:title=" ">
<polygon fill="#e0e0e0" stroke="#999999" points="649,-19 573,-19 573,0 649,0 649,-19"/>
<text text-anchor="middle" x="611" y="-7" font-family="Helvetica,sans-Serif" font-size="10.00">QJsonObject</text>
</a>
</g>
</g>
<!-- Node3&#45;&gt;Node7 -->
<g id="edge22_Node000003_Node000007" class="edge">
<title>Node3&#45;&gt;Node7</title>
<g id="a_edge22_Node000003_Node000007"><a xlink:title=" ">
<path fill="none" stroke="#63b8ff" d="M532.22,-169.75C560.75,-164.31 590.98,-152.77 609,-129 631.09,-99.86 623.48,-54.08 616.75,-28.8"/>
<polygon fill="#63b8ff" stroke="#63b8ff" points="620.07,-27.67 613.92,-19.04 613.35,-29.62 620.07,-27.67"/>
</a>
</g>
</g>
<!-- Node3&#45;&gt;Node8 -->
<g id="edge24_Node000003_Node000008" class="edge">
<title>Node3&#45;&gt;Node8</title>
<g id="a_edge24_Node000003_Node000008"><a xlink:title=" ">
<path fill="none" stroke="#63b8ff" d="M387.75,-171.28C319.84,-164.8 222.11,-143.13 177,-74 160.62,-48.9 198.31,-30.6 229.6,-20.27"/>
<polygon fill="#63b8ff" stroke="#63b8ff" points="230.95,-23.51 239.46,-17.19 228.87,-16.83 230.95,-23.51"/>
</a>
</g>
</g>
<!-- Node9 -->
<g id="Node000009" class="node">
<title>Node9</title>
<g id="a_Node000009"><a xlink:title=" ">
<polygon fill="#e0e0e0" stroke="#999999" points="535.5,-74 464.5,-74 464.5,-55 535.5,-55 535.5,-74"/>
<text text-anchor="middle" x="500" y="-62" font-family="Helvetica,sans-Serif" font-size="10.00">QJsonArray</text>
</a>
</g>
</g>
<!-- Node3&#45;&gt;Node9 -->
<g id="edge21_Node000003_Node000009" class="edge">
<title>Node3&#45;&gt;Node9</title>
<g id="a_edge21_Node000003_Node000009"><a xlink:title=" ">
<path fill="none" stroke="#63b8ff" d="M463.27,-164.66C469.81,-147.01 484.6,-107.09 493.28,-83.64"/>
<polygon fill="#63b8ff" stroke="#63b8ff" points="496.6,-84.75 496.79,-74.16 490.04,-82.32 496.6,-84.75"/>
</a>
</g>
</g>
<!-- Node3&#45;&gt;Node12 -->
<g id="edge14_Node000003_Node000012" class="edge">
<title>Node3&#45;&gt;Node12</title>
<g id="a_edge14_Node000003_Node000012"><a xlink:title=" ">
<path fill="none" stroke="#63b8ff" d="M442.97,-164.98C426.07,-156.54 399.94,-143.47 380.36,-133.68"/>
<polygon fill="#63b8ff" stroke="#63b8ff" points="381.85,-130.51 371.34,-129.17 378.72,-136.77 381.85,-130.51"/>
</a>
</g>
</g>
<!-- Node3&#45;&gt;Node14 -->
<g id="edge23_Node000003_Node000014" class="edge">
<title>Node3&#45;&gt;Node14</title>
<g id="a_edge23_Node000003_Node000014"><a xlink:title=" ">
<path fill="none" stroke="#63b8ff" d="M393.48,-164.98C312.82,-154.66 178.27,-137.43 102.44,-127.73"/>
<polygon fill="#63b8ff" stroke="#63b8ff" points="102.5,-124.21 92.14,-126.41 101.62,-131.15 102.5,-124.21"/>
</a>
</g>
</g>
<!-- Node4&#45;&gt;Node5 -->
<g id="edge4_Node000004_Node000005" class="edge">
<title>Node4&#45;&gt;Node5</title>
<g id="a_edge4_Node000004_Node000005"><a xlink:title=" ">
<path fill="none" stroke="#63b8ff" d="M579.71,-109.98C606.45,-101.13 648.53,-87.19 678.45,-77.28"/>
<polygon fill="#63b8ff" stroke="#63b8ff" points="679.7,-80.55 688.09,-74.08 677.5,-73.9 679.7,-80.55"/>
</a>
</g>
</g>
<!-- Node4&#45;&gt;Node7 -->
<g id="edge9_Node000004_Node000007" class="edge">
<title>Node4&#45;&gt;Node7</title>
<g id="a_edge9_Node000004_Node000007"><a xlink:title=" ">
<path fill="none" stroke="#63b8ff" d="M558.64,-109.99C563.5,-101.05 571.35,-86.57 578,-74 586.17,-58.58 595.3,-40.96 601.89,-28.21"/>
<polygon fill="#63b8ff" stroke="#63b8ff" points="605.09,-29.64 606.56,-19.15 598.87,-26.43 605.09,-29.64"/>
</a>
</g>
</g>
<!-- Node4&#45;&gt;Node8 -->
<g id="edge12_Node000004_Node000008" class="edge">
<title>Node4&#45;&gt;Node8</title>
<g id="a_edge12_Node000004_Node000008"><a xlink:title=" ">
<path fill="none" stroke="#63b8ff" d="M555.51,-109.71C557.32,-95.98 558.5,-69.54 544,-55 510.82,-21.74 370.74,-13.34 302.99,-11.22"/>
<polygon fill="#63b8ff" stroke="#63b8ff" points="302.87,-7.71 292.77,-10.93 302.67,-14.71 302.87,-7.71"/>
</a>
</g>
</g>
<!-- Node4&#45;&gt;Node9 -->
<g id="edge8_Node000004_Node000009" class="edge">
<title>Node4&#45;&gt;Node9</title>
<g id="a_edge8_Node000004_Node000009"><a xlink:title=" ">
<path fill="none" stroke="#63b8ff" d="M545.08,-109.75C537.22,-102.03 525.57,-90.6 516.08,-81.28"/>
<polygon fill="#63b8ff" stroke="#63b8ff" points="518.34,-78.6 508.75,-74.09 513.44,-83.59 518.34,-78.6"/>
</a>
</g>
</g>
<!-- Node10 -->
<g id="Node000010" class="node">
<title>Node10</title>
<g id="a_Node000010"><a xlink:title=" ">
<polygon fill="#e0e0e0" stroke="#999999" points="373.5,-74 332.5,-74 332.5,-55 373.5,-55 373.5,-74"/>
<text text-anchor="middle" x="353" y="-62" font-family="Helvetica,sans-Serif" font-size="10.00">QList</text>
</a>
</g>
</g>
<!-- Node4&#45;&gt;Node10 -->
<g id="edge10_Node000004_Node000010" class="edge">
<title>Node4&#45;&gt;Node10</title>
<g id="a_edge10_Node000004_Node000010"><a xlink:title=" ">
<path fill="none" stroke="#63b8ff" d="M519.65,-109.96C486.91,-101.74 435.98,-88.76 383.4,-74.33"/>
<polygon fill="#63b8ff" stroke="#63b8ff" points="384.14,-70.9 373.57,-71.62 382.28,-77.65 384.14,-70.9"/>
</a>
</g>
</g>
<!-- Node11 -->
<g id="Node000011" class="node">
<title>Node11</title>
<g id="a_Node000011"><a xlink:title=" ">
<polygon fill="#e0e0e0" stroke="#999999" points="446.5,-74 391.5,-74 391.5,-55 446.5,-55 446.5,-74"/>
<text text-anchor="middle" x="419" y="-62" font-family="Helvetica,sans-Serif" font-size="10.00">QPointF</text>
</a>
</g>
</g>
<!-- Node4&#45;&gt;Node11 -->
<g id="edge11_Node000004_Node000011" class="edge">
<title>Node4&#45;&gt;Node11</title>
<g id="a_edge11_Node000004_Node000011"><a xlink:title=" ">
<path fill="none" stroke="#63b8ff" d="M532.31,-109.98C510.2,-101.3 475.68,-87.75 450.55,-77.88"/>
<polygon fill="#63b8ff" stroke="#63b8ff" points="451.67,-74.57 441.08,-74.17 449.11,-81.08 451.67,-74.57"/>
</a>
</g>
</g>
<!-- Node6 -->
<g id="Node000006" class="node">
<title>Node6</title>
<g id="a_Node000006"><a xlink:title=" ">
<polygon fill="#e0e0e0" stroke="#999999" points="750.5,-19 677.5,-19 677.5,0 750.5,0 750.5,-19"/>
<text text-anchor="middle" x="714" y="-7" font-family="Helvetica,sans-Serif" font-size="10.00">QByteArray</text>
</a>
</g>
</g>
<!-- Node5&#45;&gt;Node6 -->
<g id="edge5_Node000005_Node000006" class="edge">
<title>Node5&#45;&gt;Node6</title>
<g id="a_edge5_Node000005_Node000006"><a xlink:title=" ">
<path fill="none" stroke="#63b8ff" d="M714,-54.75C714,-47.8 714,-37.85 714,-29.13"/>
<polygon fill="#63b8ff" stroke="#63b8ff" points="717.5,-29.09 714,-19.09 710.5,-29.09 717.5,-29.09"/>
</a>
</g>
</g>
<!-- Node5&#45;&gt;Node7 -->
<g id="edge6_Node000005_Node000007" class="edge">
<title>Node5&#45;&gt;Node7</title>
<g id="a_edge6_Node000005_Node000007"><a xlink:title=" ">
<path fill="none" stroke="#63b8ff" d="M697.45,-54.98C681.11,-46.57 655.87,-33.59 636.87,-23.81"/>
<polygon fill="#63b8ff" stroke="#63b8ff" points="638.34,-20.63 627.85,-19.17 635.14,-26.86 638.34,-20.63"/>
</a>
</g>
</g>
<!-- Node5&#45;&gt;Node8 -->
<g id="edge7_Node000005_Node000008" class="edge">
<title>Node5&#45;&gt;Node8</title>
<g id="a_edge7_Node000005_Node000008"><a xlink:title=" ">
<path fill="none" stroke="#63b8ff" d="M667.74,-58.03C578.52,-47.47 384.31,-24.5 302.98,-14.88"/>
<polygon fill="#63b8ff" stroke="#63b8ff" points="303.07,-11.36 292.73,-13.66 302.25,-18.31 303.07,-11.36"/>
</a>
</g>
</g>
<!-- Node12&#45;&gt;Node7 -->
<g id="edge16_Node000012_Node000007" class="edge">
<title>Node12&#45;&gt;Node7</title>
<g id="a_edge16_Node000012_Node000007"><a xlink:title=" ">
<path fill="none" stroke="#63b8ff" d="M344.08,-109.9C330.27,-96.89 308.47,-71.95 323,-55 353.25,-19.72 488.4,-12.16 562.32,-10.7"/>
<polygon fill="#63b8ff" stroke="#63b8ff" points="562.82,-14.19 572.76,-10.53 562.7,-7.19 562.82,-14.19"/>
</a>
</g>
</g>
<!-- Node12&#45;&gt;Node8 -->
<g id="edge20_Node000012_Node000008" class="edge">
<title>Node12&#45;&gt;Node8</title>
<g id="a_edge20_Node000012_Node000008"><a xlink:title=" ">
<path fill="none" stroke="#63b8ff" d="M336.02,-109.86C321.78,-102.2 302.32,-89.79 290,-74 279.7,-60.79 273.43,-42.66 269.9,-29.16"/>
<polygon fill="#63b8ff" stroke="#63b8ff" points="273.24,-28.05 267.55,-19.11 266.42,-29.64 273.24,-28.05"/>
</a>
</g>
</g>
<!-- Node12&#45;&gt;Node9 -->
<g id="edge15_Node000012_Node000009" class="edge">
<title>Node12&#45;&gt;Node9</title>
<g id="a_edge15_Node000012_Node000009"><a xlink:title=" ">
<path fill="none" stroke="#63b8ff" d="M377.46,-109.98C401.58,-101.23 439.37,-87.51 466.6,-77.62"/>
<polygon fill="#63b8ff" stroke="#63b8ff" points="467.91,-80.87 476.12,-74.17 465.52,-74.29 467.91,-80.87"/>
</a>
</g>
</g>
<!-- Node12&#45;&gt;Node10 -->
<g id="edge17_Node000012_Node000010" class="edge">
<title>Node12&#45;&gt;Node10</title>
<g id="a_edge17_Node000012_Node000010"><a xlink:title=" ">
<path fill="none" stroke="#63b8ff" d="M353.83,-109.75C353.7,-102.8 353.52,-92.85 353.35,-84.13"/>
<polygon fill="#63b8ff" stroke="#63b8ff" points="356.85,-84.02 353.16,-74.09 349.85,-84.15 356.85,-84.02"/>
</a>
</g>
</g>
<!-- Node12&#45;&gt;Node11 -->
<g id="edge18_Node000012_Node000011" class="edge">
<title>Node12&#45;&gt;Node11</title>
<g id="a_edge18_Node000012_Node000011"><a xlink:title=" ">
<path fill="none" stroke="#63b8ff" d="M364.44,-109.98C374.15,-102.07 388.82,-90.11 400.5,-80.58"/>
<polygon fill="#63b8ff" stroke="#63b8ff" points="402.83,-83.2 408.37,-74.17 398.4,-77.78 402.83,-83.2"/>
</a>
</g>
</g>
<!-- Node13 -->
<g id="Node000013" class="node">
<title>Node13</title>
<g id="a_Node000013"><a xlink:title=" ">
<polygon fill="#e0e0e0" stroke="#999999" points="238,-74 186,-74 186,-55 238,-55 238,-74"/>
<text text-anchor="middle" x="212" y="-62" font-family="Helvetica,sans-Serif" font-size="10.00">QRectF</text>
</a>
</g>
</g>
<!-- Node12&#45;&gt;Node13 -->
<g id="edge19_Node000012_Node000013" class="edge">
<title>Node12&#45;&gt;Node13</title>
<g id="a_edge19_Node000012_Node000013"><a xlink:title=" ">
<path fill="none" stroke="#63b8ff" d="M331.19,-109.98C307.83,-101.27 271.3,-87.63 244.83,-77.75"/>
<polygon fill="#63b8ff" stroke="#63b8ff" points="245.82,-74.39 235.23,-74.17 243.37,-80.95 245.82,-74.39"/>
</a>
</g>
</g>
<!-- Node17&#45;&gt;Node18 -->
<g id="edge33_Node000017_Node000018" class="edge">
<title>Node17&#45;&gt;Node18</title>
<g id="a_edge33_Node000017_Node000018"><a xlink:title=" ">
<path fill="none" stroke="#63b8ff" d="M906.39,-219.84C894.03,-210.91 878.1,-199.41 865.57,-190.35"/>
<polygon fill="#63b8ff" stroke="#63b8ff" points="867.29,-187.28 857.14,-184.27 863.2,-192.96 867.29,-187.28"/>
</a>
</g>
</g>
<!-- Node19 -->
<g id="Node000019" class="node">
<title>Node19</title>
<g id="a_Node000019"><a xlink:title=" ">
<polygon fill="#e0e0e0" stroke="#999999" points="953.5,-184 898.5,-184 898.5,-165 953.5,-165 953.5,-184"/>
<text text-anchor="middle" x="926" y="-172" font-family="Helvetica,sans-Serif" font-size="10.00">QMutex</text>
</a>
</g>
</g>
<!-- Node17&#45;&gt;Node19 -->
<g id="edge34_Node000017_Node000019" class="edge">
<title>Node17&#45;&gt;Node19</title>
<g id="a_edge34_Node000017_Node000019"><a xlink:title=" ">
<path fill="none" stroke="#63b8ff" d="M926,-219.84C926,-212.21 926,-202.7 926,-194.45"/>
<polygon fill="#63b8ff" stroke="#63b8ff" points="929.5,-194.27 926,-184.27 922.5,-194.27 929.5,-194.27"/>
</a>
</g>
</g>
<!-- Node20 -->
<g id="Node000020" class="node">
<title>Node20</title>
<g id="a_Node000020"><a xlink:title=" ">
<polygon fill="#e0e0e0" stroke="#999999" points="1028,-184 972,-184 972,-165 1028,-165 1028,-184"/>
<text text-anchor="middle" x="1000" y="-172" font-family="Helvetica,sans-Serif" font-size="10.00">QQueue</text>
</a>
</g>
</g>
<!-- Node17&#45;&gt;Node20 -->
<g id="edge35_Node000017_Node000020" class="edge">
<title>Node17&#45;&gt;Node20</title>
<g id="a_edge35_Node000017_Node000020"><a xlink:title=" ">
<path fill="none" stroke="#63b8ff" d="M943.91,-219.84C955.09,-211 969.48,-199.63 980.88,-190.62"/>
<polygon fill="#63b8ff" stroke="#63b8ff" points="983.24,-193.21 988.91,-184.27 978.9,-187.72 983.24,-193.21"/>
</a>
</g>
</g>
<!-- Node21 -->
<g id="Node000021" class="node">
<title>Node21</title>
<g id="a_Node000021"><a xlink:title=" ">
<polygon fill="#e0e0e0" stroke="#999999" points="1138,-184 1046,-184 1046,-165 1138,-165 1138,-184"/>
<text text-anchor="middle" x="1092" y="-172" font-family="Helvetica,sans-Serif" font-size="10.00">QWaitCondition</text>
</a>
</g>
</g>
<!-- Node17&#45;&gt;Node21 -->
<g id="edge36_Node000017_Node000021" class="edge">
<title>Node17&#45;&gt;Node21</title>
<g id="a_edge36_Node000017_Node000021"><a xlink:title=" ">
<path fill="none" stroke="#63b8ff" d="M965.76,-219.99C993.83,-210.1 1031.05,-196.98 1057.79,-187.56"/>
<polygon fill="#63b8ff" stroke="#63b8ff" points="1059.22,-190.76 1067.49,-184.14 1056.89,-184.16 1059.22,-190.76"/>
</a>
</g>
</g>
</g>
</svg>
