<?xml version="1.0" encoding="UTF-8" standalone="no"?>
<!DOCTYPE svg PUBLIC "-//W3C//DTD SVG 1.1//EN"
 "http://www.w3.org/Graphics/SVG/1.1/DTD/svg11.dtd">
<!-- Generated by graphviz version 2.43.0 (0)
 -->
<!-- Title: services/pipeline/stats/PipelineStatistics.h Pages: 1 -->
<svg width="1087pt" height="324pt"
 viewBox="0.00 0.00 1086.50 324.00" xmlns="http://www.w3.org/2000/svg" xmlns:xlink="http://www.w3.org/1999/xlink">
<g id="graph0" class="graph" transform="scale(1 1) rotate(0) translate(4 320)">
<title>services/pipeline/stats/PipelineStatistics.h</title>
<!-- Node1 -->
<g id="Node000001" class="node">
<title>Node1</title>
<g id="a_Node000001"><a xlink:title=" ">
<polygon fill="#999999" stroke="#666666" points="914,-316 788,-316 788,-286 914,-286 914,-316"/>
<text text-anchor="start" x="796" y="-304" font-family="Helvetica,sans-Serif" font-size="10.00">services/pipeline/stats</text>
<text text-anchor="middle" x="851" y="-293" font-family="Helvetica,sans-Serif" font-size="10.00">/PipelineStatistics.h</text>
</a>
</g>
</g>
<!-- Node2 -->
<g id="Node000002" class="node">
<title>Node2</title>
<g id="a_Node000002"><a xlink:href="ExportService_8h.html" target="_top" xlink:title=" ">
<polygon fill="white" stroke="#666666" points="505.5,-244.5 394.5,-244.5 394.5,-225.5 505.5,-225.5 505.5,-244.5"/>
<text text-anchor="middle" x="450" y="-232.5" font-family="Helvetica,sans-Serif" font-size="10.00">../../ExportService.h</text>
</a>
</g>
</g>
<!-- Node1&#45;&gt;Node2 -->
<g id="edge1_Node000001_Node000002" class="edge">
<title>Node1&#45;&gt;Node2</title>
<g id="a_edge1_Node000001_Node000002"><a xlink:title=" ">
<path fill="none" stroke="#63b8ff" d="M787.9,-289.93C713.02,-277.98 588.85,-258.16 513.7,-246.17"/>
<polygon fill="#63b8ff" stroke="#63b8ff" points="513.86,-242.65 503.43,-244.53 512.76,-249.56 513.86,-242.65"/>
</a>
</g>
</g>
<!-- Node8 -->
<g id="Node000008" class="node">
<title>Node8</title>
<g id="a_Node000008"><a xlink:title=" ">
<polygon fill="#e0e0e0" stroke="#999999" points="425.5,-19 372.5,-19 372.5,0 425.5,0 425.5,-19"/>
<text text-anchor="middle" x="399" y="-7" font-family="Helvetica,sans-Serif" font-size="10.00">QString</text>
</a>
</g>
</g>
<!-- Node1&#45;&gt;Node8 -->
<g id="edge37_Node000001_Node000008" class="edge">
<title>Node1&#45;&gt;Node8</title>
<g id="a_edge37_Node000001_Node000008"><a xlink:title=" ">
<path fill="none" stroke="#63b8ff" d="M858.33,-285.86C869.37,-263.21 889,-217.08 889,-175.5 889,-175.5 889,-175.5 889,-118.5 889,-25.78 550.16,-12.58 436.02,-10.77"/>
<polygon fill="#63b8ff" stroke="#63b8ff" points="435.74,-7.26 425.69,-10.63 435.64,-14.26 435.74,-7.26"/>
</a>
</g>
</g>
<!-- Node10 -->
<g id="Node000010" class="node">
<title>Node10</title>
<g id="a_Node000010"><a xlink:title=" ">
<polygon fill="#e0e0e0" stroke="#999999" points="613.5,-74 572.5,-74 572.5,-55 613.5,-55 613.5,-74"/>
<text text-anchor="middle" x="593" y="-62" font-family="Helvetica,sans-Serif" font-size="10.00">QList</text>
</a>
</g>
</g>
<!-- Node1&#45;&gt;Node10 -->
<g id="edge35_Node000001_Node000010" class="edge">
<title>Node1&#45;&gt;Node10</title>
<g id="a_edge35_Node000001_Node000010"><a xlink:title=" ">
<path fill="none" stroke="#63b8ff" d="M851.42,-285.63C851.42,-258.35 847.42,-198.77 815,-165 761.43,-109.2 670.88,-82.31 623.69,-71.53"/>
<polygon fill="#63b8ff" stroke="#63b8ff" points="624.28,-68.08 613.76,-69.35 622.78,-74.91 624.28,-68.08"/>
</a>
</g>
</g>
<!-- Node14 -->
<g id="Node000014" class="node">
<title>Node14</title>
<g id="a_Node000014"><a xlink:title=" ">
<polygon fill="#e0e0e0" stroke="#999999" points="596,-129 504,-129 504,-110 596,-110 596,-129"/>
<text text-anchor="middle" x="550" y="-117" font-family="Helvetica,sans-Serif" font-size="10.00">QSharedPointer</text>
</a>
</g>
</g>
<!-- Node1&#45;&gt;Node14 -->
<g id="edge36_Node000001_Node000014" class="edge">
<title>Node1&#45;&gt;Node14</title>
<g id="a_edge36_Node000001_Node000014"><a xlink:title=" ">
<path fill="none" stroke="#63b8ff" d="M846.86,-285.73C837.47,-254.36 813.85,-180.91 794,-165 765.72,-142.32 669.09,-130.23 606.25,-124.6"/>
<polygon fill="#63b8ff" stroke="#63b8ff" points="606.35,-121.1 596.09,-123.72 605.75,-128.07 606.35,-121.1"/>
</a>
</g>
</g>
<!-- Node20 -->
<g id="Node000020" class="node">
<title>Node20</title>
<g id="a_Node000020"><a xlink:title=" ">
<polygon fill="#e0e0e0" stroke="#999999" points="1078.5,-250 917.5,-250 917.5,-220 1078.5,-220 1078.5,-250"/>
<text text-anchor="start" x="925.5" y="-238" font-family="Helvetica,sans-Serif" font-size="10.00">../../models/ComponentExport</text>
<text text-anchor="middle" x="998" y="-227" font-family="Helvetica,sans-Serif" font-size="10.00">Status.h</text>
</a>
</g>
</g>
<!-- Node1&#45;&gt;Node20 -->
<g id="edge34_Node000001_Node000020" class="edge">
<title>Node1&#45;&gt;Node20</title>
<g id="a_edge34_Node000001_Node000020"><a xlink:title=" ">
<path fill="none" stroke="#63b8ff" d="M883.26,-285.95C904.8,-276.58 933.33,-264.16 956.55,-254.05"/>
<polygon fill="#63b8ff" stroke="#63b8ff" points="958.04,-257.21 965.82,-250.01 955.25,-250.8 958.04,-257.21"/>
</a>
</g>
</g>
<!-- Node3 -->
<g id="Node000003" class="node">
<title>Node3</title>
<g id="a_Node000003"><a xlink:href="ComponentData_8h.html" target="_top" xlink:title=" ">
<polygon fill="white" stroke="#666666" points="384,-184 240,-184 240,-165 384,-165 384,-184"/>
<text text-anchor="middle" x="312" y="-172" font-family="Helvetica,sans-Serif" font-size="10.00">models/ComponentData.h</text>
</a>
</g>
</g>
<!-- Node2&#45;&gt;Node3 -->
<g id="edge2_Node000002_Node000003" class="edge">
<title>Node2&#45;&gt;Node3</title>
<g id="a_edge2_Node000002_Node000003"><a xlink:title=" ">
<path fill="none" stroke="#63b8ff" d="M429.93,-225.49C406.63,-215.62 367.99,-199.23 341.32,-187.93"/>
<polygon fill="#63b8ff" stroke="#63b8ff" points="342.66,-184.7 332.09,-184.02 339.93,-191.14 342.66,-184.7"/>
</a>
</g>
</g>
<!-- Node4 -->
<g id="Node000004" class="node">
<title>Node4</title>
<g id="a_Node000004"><a xlink:href="FootprintData_8h.html" target="_top" xlink:title=" ">
<polygon fill="white" stroke="#666666" points="258,-129 166,-129 166,-110 258,-110 258,-129"/>
<text text-anchor="middle" x="212" y="-117" font-family="Helvetica,sans-Serif" font-size="10.00">FootprintData.h</text>
</a>
</g>
</g>
<!-- Node2&#45;&gt;Node4 -->
<g id="edge25_Node000002_Node000004" class="edge">
<title>Node2&#45;&gt;Node4</title>
<g id="a_edge25_Node000002_Node000004"><a xlink:title=" ">
<path fill="none" stroke="#63b8ff" d="M394.26,-227.7C337.41,-220.18 254.31,-205.82 231,-184 218.8,-172.58 214.33,-153.69 212.74,-139.48"/>
<polygon fill="#63b8ff" stroke="#63b8ff" points="216.22,-139.03 211.99,-129.31 209.24,-139.54 216.22,-139.03"/>
</a>
</g>
</g>
<!-- Node5 -->
<g id="Node000005" class="node">
<title>Node5</title>
<g id="a_Node000005"><a xlink:href="Model3DData_8h.html" target="_top" xlink:title=" ">
<polygon fill="white" stroke="#666666" points="92,-74 0,-74 0,-55 92,-55 92,-74"/>
<text text-anchor="middle" x="46" y="-62" font-family="Helvetica,sans-Serif" font-size="10.00">Model3DData.h</text>
</a>
</g>
</g>
<!-- Node2&#45;&gt;Node5 -->
<g id="edge26_Node000002_Node000005" class="edge">
<title>Node2&#45;&gt;Node5</title>
<g id="a_edge26_Node000002_Node000005"><a xlink:title=" ">
<path fill="none" stroke="#63b8ff" d="M394.44,-232.76C306.53,-229.73 140.63,-219.36 95,-184 63.28,-159.42 51.94,-110.71 48,-84.03"/>
<polygon fill="#63b8ff" stroke="#63b8ff" points="51.47,-83.56 46.73,-74.08 44.53,-84.44 51.47,-83.56"/>
</a>
</g>
</g>
<!-- Node2&#45;&gt;Node8 -->
<g id="edge31_Node000002_Node000008" class="edge">
<title>Node2&#45;&gt;Node8</title>
<g id="a_edge31_Node000002_Node000008"><a xlink:title=" ">
<path fill="none" stroke="#63b8ff" d="M449.8,-225.46C449.93,-210.94 452.4,-181.44 469,-165 513.43,-121.01 559.89,-172.3 605,-129 629.35,-105.63 643.4,-81.09 622,-55 598.84,-26.77 492.71,-16.1 435.61,-12.36"/>
<polygon fill="#63b8ff" stroke="#63b8ff" points="435.75,-8.86 425.55,-11.73 435.32,-15.84 435.75,-8.86"/>
</a>
</g>
</g>
<!-- Node12 -->
<g id="Node000012" class="node">
<title>Node12</title>
<g id="a_Node000012"><a xlink:href="SymbolData_8h.html" target="_top" xlink:title=" ">
<polygon fill="white" stroke="#666666" points="467,-129 381,-129 381,-110 467,-110 467,-129"/>
<text text-anchor="middle" x="424" y="-117" font-family="Helvetica,sans-Serif" font-size="10.00">SymbolData.h</text>
</a>
</g>
</g>
<!-- Node2&#45;&gt;Node12 -->
<g id="edge27_Node000002_Node000012" class="edge">
<title>Node2&#45;&gt;Node12</title>
<g id="a_edge27_Node000002_Node000012"><a xlink:title=" ">
<path fill="none" stroke="#63b8ff" d="M447.29,-225.21C444.28,-215.27 439.41,-198.57 436,-184 432.52,-169.11 429.34,-152.08 427.13,-139.41"/>
<polygon fill="#63b8ff" stroke="#63b8ff" points="430.52,-138.45 425.4,-129.18 423.62,-139.62 430.52,-138.45"/>
</a>
</g>
</g>
<!-- Node15 -->
<g id="Node000015" class="node">
<title>Node15</title>
<g id="a_Node000015"><a xlink:title=" ">
<polygon fill="#e0e0e0" stroke="#999999" points="549.5,-184 478.5,-184 478.5,-165 549.5,-165 549.5,-184"/>
<text text-anchor="middle" x="514" y="-172" font-family="Helvetica,sans-Serif" font-size="10.00">QAtomicInt</text>
</a>
</g>
</g>
<!-- Node2&#45;&gt;Node15 -->
<g id="edge28_Node000002_Node000015" class="edge">
<title>Node2&#45;&gt;Node15</title>
<g id="a_edge28_Node000002_Node000015"><a xlink:title=" ">
<path fill="none" stroke="#63b8ff" d="M459.44,-225.37C469.27,-216.38 484.89,-202.11 496.89,-191.14"/>
<polygon fill="#63b8ff" stroke="#63b8ff" points="499.5,-193.5 504.52,-184.17 494.78,-188.33 499.5,-193.5"/>
</a>
</g>
</g>
<!-- Node16 -->
<g id="Node000016" class="node">
<title>Node16</title>
<g id="a_Node000016"><a xlink:title=" ">
<polygon fill="#e0e0e0" stroke="#999999" points="622.5,-184 567.5,-184 567.5,-165 622.5,-165 622.5,-184"/>
<text text-anchor="middle" x="595" y="-172" font-family="Helvetica,sans-Serif" font-size="10.00">QMutex</text>
</a>
</g>
</g>
<!-- Node2&#45;&gt;Node16 -->
<g id="edge29_Node000002_Node000016" class="edge">
<title>Node2&#45;&gt;Node16</title>
<g id="a_edge29_Node000002_Node000016"><a xlink:title=" ">
<path fill="none" stroke="#63b8ff" d="M471.08,-225.49C495.68,-215.57 536.53,-199.09 564.56,-187.78"/>
<polygon fill="#63b8ff" stroke="#63b8ff" points="565.93,-191 573.89,-184.02 563.31,-184.51 565.93,-191"/>
</a>
</g>
</g>
<!-- Node17 -->
<g id="Node000017" class="node">
<title>Node17</title>
<g id="a_Node000017"><a xlink:title=" ">
<polygon fill="#e0e0e0" stroke="#999999" points="697,-184 641,-184 641,-165 697,-165 697,-184"/>
<text text-anchor="middle" x="669" y="-172" font-family="Helvetica,sans-Serif" font-size="10.00">QObject</text>
</a>
</g>
</g>
<!-- Node2&#45;&gt;Node17 -->
<g id="edge30_Node000002_Node000017" class="edge">
<title>Node2&#45;&gt;Node17</title>
<g id="a_edge30_Node000002_Node000017"><a xlink:title=" ">
<path fill="none" stroke="#63b8ff" d="M481.84,-225.49C521.41,-214.93 588.84,-196.91 631.04,-185.64"/>
<polygon fill="#63b8ff" stroke="#63b8ff" points="632.18,-188.96 640.94,-183 630.38,-182.19 632.18,-188.96"/>
</a>
</g>
</g>
<!-- Node18 -->
<g id="Node000018" class="node">
<title>Node18</title>
<g id="a_Node000018"><a xlink:title=" ">
<polygon fill="#e0e0e0" stroke="#999999" points="785,-184 715,-184 715,-165 785,-165 785,-184"/>
<text text-anchor="middle" x="750" y="-172" font-family="Helvetica,sans-Serif" font-size="10.00">QStringList</text>
</a>
</g>
</g>
<!-- Node2&#45;&gt;Node18 -->
<g id="edge32_Node000002_Node000018" class="edge">
<title>Node2&#45;&gt;Node18</title>
<g id="a_edge32_Node000002_Node000018"><a xlink:title=" ">
<path fill="none" stroke="#63b8ff" d="M493.62,-225.49C550.04,-214.49 647.82,-195.43 704.93,-184.29"/>
<polygon fill="#63b8ff" stroke="#63b8ff" points="705.61,-187.72 714.76,-182.37 704.27,-180.85 705.61,-187.72"/>
</a>
</g>
</g>
<!-- Node19 -->
<g id="Node000019" class="node">
<title>Node19</title>
<g id="a_Node000019"><a xlink:title=" ">
<polygon fill="#e0e0e0" stroke="#999999" points="183.5,-184 104.5,-184 104.5,-165 183.5,-165 183.5,-184"/>
<text text-anchor="middle" x="144" y="-172" font-family="Helvetica,sans-Serif" font-size="10.00">QThreadPool</text>
</a>
</g>
</g>
<!-- Node2&#45;&gt;Node19 -->
<g id="edge33_Node000002_Node000019" class="edge">
<title>Node2&#45;&gt;Node19</title>
<g id="a_edge33_Node000002_Node000019"><a xlink:title=" ">
<path fill="none" stroke="#63b8ff" d="M405.5,-225.49C349.21,-214.73 252.54,-196.25 193.83,-185.03"/>
<polygon fill="#63b8ff" stroke="#63b8ff" points="194.16,-181.53 183.68,-183.09 192.85,-188.4 194.16,-181.53"/>
</a>
</g>
</g>
<!-- Node3&#45;&gt;Node4 -->
<g id="edge3_Node000003_Node000004" class="edge">
<title>Node3&#45;&gt;Node4</title>
<g id="a_edge3_Node000003_Node000004"><a xlink:title=" ">
<path fill="none" stroke="#63b8ff" d="M295.93,-164.98C280.14,-156.61 255.78,-143.7 237.37,-133.95"/>
<polygon fill="#63b8ff" stroke="#63b8ff" points="238.83,-130.76 228.36,-129.17 235.56,-136.95 238.83,-130.76"/>
</a>
</g>
</g>
<!-- Node3&#45;&gt;Node5 -->
<g id="edge13_Node000003_Node000005" class="edge">
<title>Node3&#45;&gt;Node5</title>
<g id="a_edge13_Node000003_Node000005"><a xlink:title=" ">
<path fill="none" stroke="#63b8ff" d="M239.6,-168.5C198.3,-163.12 146.8,-152 106,-129 85.65,-117.53 68.07,-96.87 57.29,-82.24"/>
<polygon fill="#63b8ff" stroke="#63b8ff" points="60.12,-80.19 51.49,-74.04 54.41,-84.23 60.12,-80.19"/>
</a>
</g>
</g>
<!-- Node7 -->
<g id="Node000007" class="node">
<title>Node7</title>
<g id="a_Node000007"><a xlink:title=" ">
<polygon fill="#e0e0e0" stroke="#999999" points="187,-19 111,-19 111,0 187,0 187,-19"/>
<text text-anchor="middle" x="149" y="-7" font-family="Helvetica,sans-Serif" font-size="10.00">QJsonObject</text>
</a>
</g>
</g>
<!-- Node3&#45;&gt;Node7 -->
<g id="edge22_Node000003_Node000007" class="edge">
<title>Node3&#45;&gt;Node7</title>
<g id="a_edge22_Node000003_Node000007"><a xlink:title=" ">
<path fill="none" stroke="#63b8ff" d="M239.94,-170.47C209.69,-165.27 176.96,-153.72 157,-129 133.98,-100.49 139.06,-54.46 144.33,-28.97"/>
<polygon fill="#63b8ff" stroke="#63b8ff" points="147.76,-29.66 146.58,-19.13 140.94,-28.1 147.76,-29.66"/>
</a>
</g>
</g>
<!-- Node3&#45;&gt;Node8 -->
<g id="edge24_Node000003_Node000008" class="edge">
<title>Node3&#45;&gt;Node8</title>
<g id="a_edge24_Node000003_Node000008"><a xlink:title=" ">
<path fill="none" stroke="#63b8ff" d="M312.43,-164.71C313.8,-143.96 319.55,-90.99 343,-55 351.03,-42.69 363.6,-32.25 374.8,-24.58"/>
<polygon fill="#63b8ff" stroke="#63b8ff" points="376.88,-27.41 383.38,-19.04 373.08,-21.53 376.88,-27.41"/>
</a>
</g>
</g>
<!-- Node9 -->
<g id="Node000009" class="node">
<title>Node9</title>
<g id="a_Node000009"><a xlink:title=" ">
<polygon fill="#e0e0e0" stroke="#999999" points="295.5,-74 224.5,-74 224.5,-55 295.5,-55 295.5,-74"/>
<text text-anchor="middle" x="260" y="-62" font-family="Helvetica,sans-Serif" font-size="10.00">QJsonArray</text>
</a>
</g>
</g>
<!-- Node3&#45;&gt;Node9 -->
<g id="edge21_Node000003_Node000009" class="edge">
<title>Node3&#45;&gt;Node9</title>
<g id="a_edge21_Node000003_Node000009"><a xlink:title=" ">
<path fill="none" stroke="#63b8ff" d="M307.74,-164.66C299.21,-146.93 279.85,-106.73 268.58,-83.32"/>
<polygon fill="#63b8ff" stroke="#63b8ff" points="271.66,-81.65 264.17,-74.16 265.35,-84.69 271.66,-81.65"/>
</a>
</g>
</g>
<!-- Node3&#45;&gt;Node12 -->
<g id="edge14_Node000003_Node000012" class="edge">
<title>Node3&#45;&gt;Node12</title>
<g id="a_edge14_Node000003_Node000012"><a xlink:title=" ">
<path fill="none" stroke="#63b8ff" d="M329.99,-164.98C347.93,-156.5 375.72,-143.35 396.43,-133.54"/>
<polygon fill="#63b8ff" stroke="#63b8ff" points="398.14,-136.61 405.68,-129.17 395.14,-130.28 398.14,-136.61"/>
</a>
</g>
</g>
<!-- Node3&#45;&gt;Node14 -->
<g id="edge23_Node000003_Node000014" class="edge">
<title>Node3&#45;&gt;Node14</title>
<g id="a_edge23_Node000003_Node000014"><a xlink:title=" ">
<path fill="none" stroke="#63b8ff" d="M350.24,-164.98C391.41,-155.82 456.99,-141.21 501.7,-131.26"/>
<polygon fill="#63b8ff" stroke="#63b8ff" points="502.46,-134.67 511.46,-129.08 500.94,-127.84 502.46,-134.67"/>
</a>
</g>
</g>
<!-- Node4&#45;&gt;Node5 -->
<g id="edge4_Node000004_Node000005" class="edge">
<title>Node4&#45;&gt;Node5</title>
<g id="a_edge4_Node000004_Node000005"><a xlink:title=" ">
<path fill="none" stroke="#63b8ff" d="M185.33,-109.98C157.46,-101.09 113.55,-87.07 82.48,-77.15"/>
<polygon fill="#63b8ff" stroke="#63b8ff" points="83.47,-73.79 72.88,-74.08 81.34,-80.46 83.47,-73.79"/>
</a>
</g>
</g>
<!-- Node4&#45;&gt;Node7 -->
<g id="edge9_Node000004_Node000007" class="edge">
<title>Node4&#45;&gt;Node7</title>
<g id="a_edge9_Node000004_Node000007"><a xlink:title=" ">
<path fill="none" stroke="#63b8ff" d="M205.72,-109.83C199.43,-100.99 189.62,-86.82 182,-74 173.08,-59 164.02,-41.34 157.65,-28.46"/>
<polygon fill="#63b8ff" stroke="#63b8ff" points="160.71,-26.75 153.18,-19.3 154.42,-29.82 160.71,-26.75"/>
</a>
</g>
</g>
<!-- Node4&#45;&gt;Node8 -->
<g id="edge12_Node000004_Node000008" class="edge">
<title>Node4&#45;&gt;Node8</title>
<g id="a_edge12_Node000004_Node000008"><a xlink:title=" ">
<path fill="none" stroke="#63b8ff" d="M209.51,-109.97C206.18,-96.61 202.07,-70.66 215,-55 233.47,-32.63 313.98,-19.95 362.17,-14.23"/>
<polygon fill="#63b8ff" stroke="#63b8ff" points="362.68,-17.7 372.22,-13.09 361.88,-10.74 362.68,-17.7"/>
</a>
</g>
</g>
<!-- Node4&#45;&gt;Node9 -->
<g id="edge8_Node000004_Node000009" class="edge">
<title>Node4&#45;&gt;Node9</title>
<g id="a_edge8_Node000004_Node000009"><a xlink:title=" ">
<path fill="none" stroke="#63b8ff" d="M219.93,-109.75C226.85,-102.11 237.07,-90.82 245.45,-81.56"/>
<polygon fill="#63b8ff" stroke="#63b8ff" points="248.1,-83.85 252.22,-74.09 242.91,-79.15 248.1,-83.85"/>
</a>
</g>
</g>
<!-- Node4&#45;&gt;Node10 -->
<g id="edge10_Node000004_Node000010" class="edge">
<title>Node4&#45;&gt;Node10</title>
<g id="a_edge10_Node000004_Node000010"><a xlink:title=" ">
<path fill="none" stroke="#63b8ff" d="M258.07,-114.88C323.6,-109.24 447.54,-96.79 562.42,-73.8"/>
<polygon fill="#63b8ff" stroke="#63b8ff" points="563.34,-77.19 572.44,-71.76 561.95,-70.33 563.34,-77.19"/>
</a>
</g>
</g>
<!-- Node11 -->
<g id="Node000011" class="node">
<title>Node11</title>
<g id="a_Node000011"><a xlink:title=" ">
<polygon fill="#e0e0e0" stroke="#999999" points="407.5,-74 352.5,-74 352.5,-55 407.5,-55 407.5,-74"/>
<text text-anchor="middle" x="380" y="-62" font-family="Helvetica,sans-Serif" font-size="10.00">QPointF</text>
</a>
</g>
</g>
<!-- Node4&#45;&gt;Node11 -->
<g id="edge11_Node000004_Node000011" class="edge">
<title>Node4&#45;&gt;Node11</title>
<g id="a_edge11_Node000004_Node000011"><a xlink:title=" ">
<path fill="none" stroke="#63b8ff" d="M238.99,-109.98C267.2,-101.09 311.64,-87.07 343.08,-77.15"/>
<polygon fill="#63b8ff" stroke="#63b8ff" points="344.31,-80.43 352.8,-74.08 342.21,-73.75 344.31,-80.43"/>
</a>
</g>
</g>
<!-- Node6 -->
<g id="Node000006" class="node">
<title>Node6</title>
<g id="a_Node000006"><a xlink:title=" ">
<polygon fill="#e0e0e0" stroke="#999999" points="82.5,-19 9.5,-19 9.5,0 82.5,0 82.5,-19"/>
<text text-anchor="middle" x="46" y="-7" font-family="Helvetica,sans-Serif" font-size="10.00">QByteArray</text>
</a>
</g>
</g>
<!-- Node5&#45;&gt;Node6 -->
<g id="edge5_Node000005_Node000006" class="edge">
<title>Node5&#45;&gt;Node6</title>
<g id="a_edge5_Node000005_Node000006"><a xlink:title=" ">
<path fill="none" stroke="#63b8ff" d="M46,-54.75C46,-47.8 46,-37.85 46,-29.13"/>
<polygon fill="#63b8ff" stroke="#63b8ff" points="49.5,-29.09 46,-19.09 42.5,-29.09 49.5,-29.09"/>
</a>
</g>
</g>
<!-- Node5&#45;&gt;Node7 -->
<g id="edge6_Node000005_Node000007" class="edge">
<title>Node5&#45;&gt;Node7</title>
<g id="a_edge6_Node000005_Node000007"><a xlink:title=" ">
<path fill="none" stroke="#63b8ff" d="M62.55,-54.98C78.89,-46.57 104.13,-33.59 123.13,-23.81"/>
<polygon fill="#63b8ff" stroke="#63b8ff" points="124.86,-26.86 132.15,-19.17 121.66,-20.63 124.86,-26.86"/>
</a>
</g>
</g>
<!-- Node5&#45;&gt;Node8 -->
<g id="edge7_Node000005_Node000008" class="edge">
<title>Node5&#45;&gt;Node8</title>
<g id="a_edge7_Node000005_Node000008"><a xlink:title=" ">
<path fill="none" stroke="#63b8ff" d="M92.15,-56.57C162.96,-45.94 297.02,-25.81 361.93,-16.07"/>
<polygon fill="#63b8ff" stroke="#63b8ff" points="362.74,-19.48 372.11,-14.54 361.7,-12.56 362.74,-19.48"/>
</a>
</g>
</g>
<!-- Node12&#45;&gt;Node7 -->
<g id="edge16_Node000012_Node000007" class="edge">
<title>Node12&#45;&gt;Node7</title>
<g id="a_edge16_Node000012_Node000007"><a xlink:title=" ">
<path fill="none" stroke="#63b8ff" d="M425.82,-109.75C428.1,-96.1 430.17,-69.74 416,-55 386.62,-24.42 265.95,-14.84 197.32,-11.85"/>
<polygon fill="#63b8ff" stroke="#63b8ff" points="197.32,-8.35 187.18,-11.44 197.03,-15.34 197.32,-8.35"/>
</a>
</g>
</g>
<!-- Node12&#45;&gt;Node8 -->
<g id="edge20_Node000012_Node000008" class="edge">
<title>Node12&#45;&gt;Node8</title>
<g id="a_edge20_Node000012_Node000008"><a xlink:title=" ">
<path fill="none" stroke="#63b8ff" d="M432.21,-109.78C442.78,-97.46 458.78,-74.3 450,-55 444.38,-42.63 433.43,-32.36 423.11,-24.81"/>
<polygon fill="#63b8ff" stroke="#63b8ff" points="424.97,-21.84 414.73,-19.12 421.04,-27.63 424.97,-21.84"/>
</a>
</g>
</g>
<!-- Node12&#45;&gt;Node9 -->
<g id="edge15_Node000012_Node000009" class="edge">
<title>Node12&#45;&gt;Node9</title>
<g id="a_edge15_Node000012_Node000009"><a xlink:title=" ">
<path fill="none" stroke="#63b8ff" d="M397.65,-109.98C370.24,-101.13 327.11,-87.19 296.44,-77.28"/>
<polygon fill="#63b8ff" stroke="#63b8ff" points="297.15,-73.83 286.56,-74.08 295,-80.49 297.15,-73.83"/>
</a>
</g>
</g>
<!-- Node12&#45;&gt;Node10 -->
<g id="edge17_Node000012_Node000010" class="edge">
<title>Node12&#45;&gt;Node10</title>
<g id="a_edge17_Node000012_Node000010"><a xlink:title=" ">
<path fill="none" stroke="#63b8ff" d="M451.15,-109.98C481.63,-100.43 530.96,-84.96 562.67,-75.01"/>
<polygon fill="#63b8ff" stroke="#63b8ff" points="563.81,-78.32 572.31,-71.99 561.72,-71.64 563.81,-78.32"/>
</a>
</g>
</g>
<!-- Node12&#45;&gt;Node11 -->
<g id="edge18_Node000012_Node000011" class="edge">
<title>Node12&#45;&gt;Node11</title>
<g id="a_edge18_Node000012_Node000011"><a xlink:title=" ">
<path fill="none" stroke="#63b8ff" d="M416.73,-109.75C410.46,-102.18 401.21,-91.05 393.57,-81.84"/>
<polygon fill="#63b8ff" stroke="#63b8ff" points="396.21,-79.55 387.13,-74.09 390.83,-84.02 396.21,-79.55"/>
</a>
</g>
</g>
<!-- Node13 -->
<g id="Node000013" class="node">
<title>Node13</title>
<g id="a_Node000013"><a xlink:title=" ">
<polygon fill="#e0e0e0" stroke="#999999" points="554,-74 502,-74 502,-55 554,-55 554,-74"/>
<text text-anchor="middle" x="528" y="-62" font-family="Helvetica,sans-Serif" font-size="10.00">QRectF</text>
</a>
</g>
</g>
<!-- Node12&#45;&gt;Node13 -->
<g id="edge19_Node000012_Node000013" class="edge">
<title>Node12&#45;&gt;Node13</title>
<g id="a_edge19_Node000012_Node000013"><a xlink:title=" ">
<path fill="none" stroke="#63b8ff" d="M440.71,-109.98C457.21,-101.57 482.7,-88.59 501.88,-78.81"/>
<polygon fill="#63b8ff" stroke="#63b8ff" points="503.67,-81.83 510.99,-74.17 500.49,-75.59 503.67,-81.83"/>
</a>
</g>
</g>
</g>
</svg>
