<?xml version="1.0" encoding="UTF-8" standalone="no"?>
<!DOCTYPE svg PUBLIC "-//W3C//DTD SVG 1.1//EN"
 "http://www.w3.org/Graphics/SVG/1.1/DTD/svg11.dtd">
<!-- Generated by graphviz version 2.43.0 (0)
 -->
<!-- Title: services/pipeline/stats/PipelineStatistics.cpp Pages: 1 -->
<svg width="1061pt" height="379pt"
 viewBox="0.00 0.00 1061.00 379.00" xmlns="http://www.w3.org/2000/svg" xmlns:xlink="http://www.w3.org/1999/xlink">
<g id="graph0" class="graph" transform="scale(1 1) rotate(0) translate(4 375)">
<title>services/pipeline/stats/PipelineStatistics.cpp</title>
<!-- Node1 -->
<g id="Node000001" class="node">
<title>Node1</title>
<g id="a_Node000001"><a xlink:title=" ">
<polygon fill="#999999" stroke="#666666" points="857,-371 731,-371 731,-341 857,-341 857,-371"/>
<text text-anchor="start" x="739" y="-359" font-family="Helvetica,sans-Serif" font-size="10.00">services/pipeline/stats</text>
<text text-anchor="middle" x="794" y="-348" font-family="Helvetica,sans-Serif" font-size="10.00">/PipelineStatistics.cpp</text>
</a>
</g>
</g>
<!-- Node2 -->
<g id="Node000002" class="node">
<title>Node2</title>
<g id="a_Node000002"><a xlink:href="PipelineStatistics_8h.html" target="_top" xlink:title=" ">
<polygon fill="white" stroke="#666666" points="658,-305 548,-305 548,-286 658,-286 658,-305"/>
<text text-anchor="middle" x="603" y="-293" font-family="Helvetica,sans-Serif" font-size="10.00">PipelineStatistics.h</text>
</a>
</g>
</g>
<!-- Node1&#45;&gt;Node2 -->
<g id="edge1_Node000001_Node000002" class="edge">
<title>Node1&#45;&gt;Node2</title>
<g id="a_edge1_Node000001_Node000002"><a xlink:title=" ">
<path fill="none" stroke="#63b8ff" d="M748.25,-340.99C715.43,-330.94 671.73,-317.55 640.87,-308.1"/>
<polygon fill="#63b8ff" stroke="#63b8ff" points="641.51,-304.64 630.93,-305.05 639.46,-311.33 641.51,-304.64"/>
</a>
</g>
</g>
<!-- Node8 -->
<g id="Node000008" class="node">
<title>Node8</title>
<g id="a_Node000008"><a xlink:title=" ">
<polygon fill="#e0e0e0" stroke="#999999" points="205,-19 129,-19 129,0 205,0 205,-19"/>
<text text-anchor="middle" x="167" y="-7" font-family="Helvetica,sans-Serif" font-size="10.00">QJsonObject</text>
</a>
</g>
</g>
<!-- Node1&#45;&gt;Node8 -->
<g id="edge43_Node000001_Node000008" class="edge">
<title>Node1&#45;&gt;Node8</title>
<g id="a_edge43_Node000001_Node000008"><a xlink:title=" ">
<path fill="none" stroke="#63b8ff" d="M730.7,-352.16C542.59,-342.89 0,-309.74 0,-236 0,-236 0,-236 0,-118.5 0,-61.49 69.48,-33.09 118.81,-20.11"/>
<polygon fill="#63b8ff" stroke="#63b8ff" points="119.83,-23.46 128.69,-17.65 118.14,-16.67 119.83,-23.46"/>
</a>
</g>
</g>
<!-- Node22 -->
<g id="Node000022" class="node">
<title>Node22</title>
<g id="a_Node000022"><a xlink:title=" ">
<polygon fill="#e0e0e0" stroke="#999999" points="748,-305 676,-305 676,-286 748,-286 748,-305"/>
<text text-anchor="middle" x="712" y="-293" font-family="Helvetica,sans-Serif" font-size="10.00">QDateTime</text>
</a>
</g>
</g>
<!-- Node1&#45;&gt;Node22 -->
<g id="edge39_Node000001_Node000022" class="edge">
<title>Node1&#45;&gt;Node22</title>
<g id="a_edge39_Node000001_Node000022"><a xlink:title=" ">
<path fill="none" stroke="#63b8ff" d="M774.15,-340.84C761.52,-331.83 745.2,-320.18 732.45,-311.09"/>
<polygon fill="#63b8ff" stroke="#63b8ff" points="734.46,-308.22 724.29,-305.27 730.4,-313.92 734.46,-308.22"/>
</a>
</g>
</g>
<!-- Node23 -->
<g id="Node000023" class="node">
<title>Node23</title>
<g id="a_Node000023"><a xlink:title=" ">
<polygon fill="#e0e0e0" stroke="#999999" points="822,-305 766,-305 766,-286 822,-286 822,-305"/>
<text text-anchor="middle" x="794" y="-293" font-family="Helvetica,sans-Serif" font-size="10.00">QDebug</text>
</a>
</g>
</g>
<!-- Node1&#45;&gt;Node23 -->
<g id="edge40_Node000001_Node000023" class="edge">
<title>Node1&#45;&gt;Node23</title>
<g id="a_edge40_Node000001_Node000023"><a xlink:title=" ">
<path fill="none" stroke="#63b8ff" d="M794,-340.84C794,-333.21 794,-323.7 794,-315.45"/>
<polygon fill="#63b8ff" stroke="#63b8ff" points="797.5,-315.27 794,-305.27 790.5,-315.27 797.5,-315.27"/>
</a>
</g>
</g>
<!-- Node24 -->
<g id="Node000024" class="node">
<title>Node24</title>
<g id="a_Node000024"><a xlink:title=" ">
<polygon fill="#e0e0e0" stroke="#999999" points="881.5,-305 840.5,-305 840.5,-286 881.5,-286 881.5,-305"/>
<text text-anchor="middle" x="861" y="-293" font-family="Helvetica,sans-Serif" font-size="10.00">QFile</text>
</a>
</g>
</g>
<!-- Node1&#45;&gt;Node24 -->
<g id="edge41_Node000001_Node000024" class="edge">
<title>Node1&#45;&gt;Node24</title>
<g id="a_edge41_Node000001_Node000024"><a xlink:title=" ">
<path fill="none" stroke="#63b8ff" d="M810.22,-340.84C820.24,-332.09 833.11,-320.85 843.38,-311.88"/>
<polygon fill="#63b8ff" stroke="#63b8ff" points="845.73,-314.48 850.96,-305.27 841.13,-309.21 845.73,-314.48"/>
</a>
</g>
</g>
<!-- Node25 -->
<g id="Node000025" class="node">
<title>Node25</title>
<g id="a_Node000025"><a xlink:title=" ">
<polygon fill="#e0e0e0" stroke="#999999" points="994.5,-305 899.5,-305 899.5,-286 994.5,-286 994.5,-305"/>
<text text-anchor="middle" x="947" y="-293" font-family="Helvetica,sans-Serif" font-size="10.00">QJsonDocument</text>
</a>
</g>
</g>
<!-- Node1&#45;&gt;Node25 -->
<g id="edge42_Node000001_Node000025" class="edge">
<title>Node1&#45;&gt;Node25</title>
<g id="a_edge42_Node000001_Node000025"><a xlink:title=" ">
<path fill="none" stroke="#63b8ff" d="M830.65,-340.99C856.29,-331.18 890.22,-318.21 914.82,-308.81"/>
<polygon fill="#63b8ff" stroke="#63b8ff" points="916.31,-311.98 924.41,-305.14 913.81,-305.44 916.31,-311.98"/>
</a>
</g>
</g>
<!-- Node26 -->
<g id="Node000026" class="node">
<title>Node26</title>
<g id="a_Node000026"><a xlink:title=" ">
<polygon fill="#e0e0e0" stroke="#999999" points="1053,-305 1013,-305 1013,-286 1053,-286 1053,-305"/>
<text text-anchor="middle" x="1033" y="-293" font-family="Helvetica,sans-Serif" font-size="10.00">QSet</text>
</a>
</g>
</g>
<!-- Node1&#45;&gt;Node26 -->
<g id="edge44_Node000001_Node000026" class="edge">
<title>Node1&#45;&gt;Node26</title>
<g id="a_edge44_Node000001_Node000026"><a xlink:title=" ">
<path fill="none" stroke="#63b8ff" d="M856.7,-340.96C896.18,-331.91 948.42,-319.57 1002.92,-305.19"/>
<polygon fill="#63b8ff" stroke="#63b8ff" points="1003.99,-308.53 1012.76,-302.58 1002.19,-301.76 1003.99,-308.53"/>
</a>
</g>
</g>
<!-- Node3 -->
<g id="Node000003" class="node">
<title>Node3</title>
<g id="a_Node000003"><a xlink:href="ExportService_8h.html" target="_top" xlink:title=" ">
<polygon fill="white" stroke="#666666" points="581.5,-244.5 470.5,-244.5 470.5,-225.5 581.5,-225.5 581.5,-244.5"/>
<text text-anchor="middle" x="526" y="-232.5" font-family="Helvetica,sans-Serif" font-size="10.00">../../ExportService.h</text>
</a>
</g>
</g>
<!-- Node2&#45;&gt;Node3 -->
<g id="edge2_Node000002_Node000003" class="edge">
<title>Node2&#45;&gt;Node3</title>
<g id="a_edge2_Node000002_Node000003"><a xlink:title=" ">
<path fill="none" stroke="#63b8ff" d="M591.64,-285.87C579.58,-276.71 560.3,-262.06 545.75,-251.01"/>
<polygon fill="#63b8ff" stroke="#63b8ff" points="547.49,-247.93 537.41,-244.67 543.25,-253.5 547.49,-247.93"/>
</a>
</g>
</g>
<!-- Node9 -->
<g id="Node000009" class="node">
<title>Node9</title>
<g id="a_Node000009"><a xlink:title=" ">
<polygon fill="#e0e0e0" stroke="#999999" points="638.5,-19 585.5,-19 585.5,0 638.5,0 638.5,-19"/>
<text text-anchor="middle" x="612" y="-7" font-family="Helvetica,sans-Serif" font-size="10.00">QString</text>
</a>
</g>
</g>
<!-- Node2&#45;&gt;Node9 -->
<g id="edge38_Node000002_Node000009" class="edge">
<title>Node2&#45;&gt;Node9</title>
<g id="a_edge38_Node000002_Node000009"><a xlink:title=" ">
<path fill="none" stroke="#63b8ff" d="M651.39,-285.95C699.91,-276.92 770.92,-262.31 796,-250 842.92,-226.97 887,-227.77 887,-175.5 887,-175.5 887,-175.5 887,-118.5 887,-56.98 821.12,-77.86 764,-55 743.03,-46.61 686.36,-30.65 648.45,-20.31"/>
<polygon fill="#63b8ff" stroke="#63b8ff" points="649.35,-16.92 638.78,-17.67 647.51,-23.68 649.35,-16.92"/>
</a>
</g>
</g>
<!-- Node11 -->
<g id="Node000011" class="node">
<title>Node11</title>
<g id="a_Node000011"><a xlink:title=" ">
<polygon fill="#e0e0e0" stroke="#999999" points="583.5,-74 542.5,-74 542.5,-55 583.5,-55 583.5,-74"/>
<text text-anchor="middle" x="563" y="-62" font-family="Helvetica,sans-Serif" font-size="10.00">QList</text>
</a>
</g>
</g>
<!-- Node2&#45;&gt;Node11 -->
<g id="edge36_Node000002_Node000011" class="edge">
<title>Node2&#45;&gt;Node11</title>
<g id="a_edge36_Node000002_Node000011"><a xlink:title=" ">
<path fill="none" stroke="#63b8ff" d="M656.33,-285.94C698.73,-278.13 753.55,-265.47 770,-250 798.43,-223.27 813.4,-197.63 792,-165 747.39,-96.98 645.14,-75.22 593.71,-68.44"/>
<polygon fill="#63b8ff" stroke="#63b8ff" points="593.9,-64.94 583.55,-67.22 593.06,-71.89 593.9,-64.94"/>
</a>
</g>
</g>
<!-- Node15 -->
<g id="Node000015" class="node">
<title>Node15</title>
<g id="a_Node000015"><a xlink:title=" ">
<polygon fill="#e0e0e0" stroke="#999999" points="120,-129 28,-129 28,-110 120,-110 120,-129"/>
<text text-anchor="middle" x="74" y="-117" font-family="Helvetica,sans-Serif" font-size="10.00">QSharedPointer</text>
</a>
</g>
</g>
<!-- Node2&#45;&gt;Node15 -->
<g id="edge37_Node000002_Node000015" class="edge">
<title>Node2&#45;&gt;Node15</title>
<g id="a_edge37_Node000002_Node000015"><a xlink:title=" ">
<path fill="none" stroke="#63b8ff" d="M547.8,-289.57C429.95,-277.95 159.08,-245.15 93,-184 80.74,-172.65 76.27,-153.75 74.71,-139.51"/>
<polygon fill="#63b8ff" stroke="#63b8ff" points="78.18,-139.05 73.98,-129.33 71.2,-139.56 78.18,-139.05"/>
</a>
</g>
</g>
<!-- Node21 -->
<g id="Node000021" class="node">
<title>Node21</title>
<g id="a_Node000021"><a xlink:title=" ">
<polygon fill="#e0e0e0" stroke="#999999" points="760.5,-250 599.5,-250 599.5,-220 760.5,-220 760.5,-250"/>
<text text-anchor="start" x="607.5" y="-238" font-family="Helvetica,sans-Serif" font-size="10.00">../../models/ComponentExport</text>
<text text-anchor="middle" x="680" y="-227" font-family="Helvetica,sans-Serif" font-size="10.00">Status.h</text>
</a>
</g>
</g>
<!-- Node2&#45;&gt;Node21 -->
<g id="edge35_Node000002_Node000021" class="edge">
<title>Node2&#45;&gt;Node21</title>
<g id="a_edge35_Node000002_Node000021"><a xlink:title=" ">
<path fill="none" stroke="#63b8ff" d="M614.36,-285.87C624.62,-278.08 640.1,-266.32 653.45,-256.17"/>
<polygon fill="#63b8ff" stroke="#63b8ff" points="655.58,-258.95 661.42,-250.11 651.34,-253.38 655.58,-258.95"/>
</a>
</g>
</g>
<!-- Node4 -->
<g id="Node000004" class="node">
<title>Node4</title>
<g id="a_Node000004"><a xlink:href="ComponentData_8h.html" target="_top" xlink:title=" ">
<polygon fill="white" stroke="#666666" points="246,-184 102,-184 102,-165 246,-165 246,-184"/>
<text text-anchor="middle" x="174" y="-172" font-family="Helvetica,sans-Serif" font-size="10.00">models/ComponentData.h</text>
</a>
</g>
</g>
<!-- Node3&#45;&gt;Node4 -->
<g id="edge3_Node000003_Node000004" class="edge">
<title>Node3&#45;&gt;Node4</title>
<g id="a_edge3_Node000003_Node000004"><a xlink:title=" ">
<path fill="none" stroke="#63b8ff" d="M474.82,-225.49C411.34,-214.94 303.23,-196.98 235.37,-185.7"/>
<polygon fill="#63b8ff" stroke="#63b8ff" points="235.68,-182.2 225.25,-184.02 234.54,-189.11 235.68,-182.2"/>
</a>
</g>
</g>
<!-- Node5 -->
<g id="Node000005" class="node">
<title>Node5</title>
<g id="a_Node000005"><a xlink:href="FootprintData_8h.html" target="_top" xlink:title=" ">
<polygon fill="white" stroke="#666666" points="563,-129 471,-129 471,-110 563,-110 563,-129"/>
<text text-anchor="middle" x="517" y="-117" font-family="Helvetica,sans-Serif" font-size="10.00">FootprintData.h</text>
</a>
</g>
</g>
<!-- Node3&#45;&gt;Node5 -->
<g id="edge26_Node000003_Node000005" class="edge">
<title>Node3&#45;&gt;Node5</title>
<g id="a_edge26_Node000003_Node000005"><a xlink:title=" ">
<path fill="none" stroke="#63b8ff" d="M533.77,-225.14C544.24,-212.07 560.72,-186.83 553,-165 549.25,-154.41 541.79,-144.49 534.63,-136.71"/>
<polygon fill="#63b8ff" stroke="#63b8ff" points="536.69,-133.82 527.16,-129.19 531.72,-138.76 536.69,-133.82"/>
</a>
</g>
</g>
<!-- Node6 -->
<g id="Node000006" class="node">
<title>Node6</title>
<g id="a_Node000006"><a xlink:href="Model3DData_8h.html" target="_top" xlink:title=" ">
<polygon fill="white" stroke="#666666" points="732,-74 640,-74 640,-55 732,-55 732,-74"/>
<text text-anchor="middle" x="686" y="-62" font-family="Helvetica,sans-Serif" font-size="10.00">Model3DData.h</text>
</a>
</g>
</g>
<!-- Node3&#45;&gt;Node6 -->
<g id="edge27_Node000003_Node000006" class="edge">
<title>Node3&#45;&gt;Node6</title>
<g id="a_edge27_Node000003_Node000006"><a xlink:title=" ">
<path fill="none" stroke="#63b8ff" d="M534.15,-225.41C559.51,-198.71 637.23,-116.86 670.56,-81.76"/>
<polygon fill="#63b8ff" stroke="#63b8ff" points="673.32,-83.93 677.67,-74.27 668.25,-79.11 673.32,-83.93"/>
</a>
</g>
</g>
<!-- Node3&#45;&gt;Node9 -->
<g id="edge32_Node000003_Node000009" class="edge">
<title>Node3&#45;&gt;Node9</title>
<g id="a_edge32_Node000003_Node000009"><a xlink:title=" ">
<path fill="none" stroke="#63b8ff" d="M564.45,-225.49C573.17,-223.62 582.39,-221.7 591,-220 635.52,-211.22 762.88,-218.8 792,-184 823.06,-146.88 867.66,-169.36 741,-55 727.14,-42.48 681.41,-28.5 648.33,-19.61"/>
<polygon fill="#63b8ff" stroke="#63b8ff" points="649.08,-16.19 638.52,-17.02 647.29,-22.96 649.08,-16.19"/>
</a>
</g>
</g>
<!-- Node13 -->
<g id="Node000013" class="node">
<title>Node13</title>
<g id="a_Node000013"><a xlink:href="SymbolData_8h.html" target="_top" xlink:title=" ">
<polygon fill="white" stroke="#666666" points="357,-129 271,-129 271,-110 357,-110 357,-129"/>
<text text-anchor="middle" x="314" y="-117" font-family="Helvetica,sans-Serif" font-size="10.00">SymbolData.h</text>
</a>
</g>
</g>
<!-- Node3&#45;&gt;Node13 -->
<g id="edge28_Node000003_Node000013" class="edge">
<title>Node3&#45;&gt;Node13</title>
<g id="a_edge28_Node000003_Node000013"><a xlink:title=" ">
<path fill="none" stroke="#63b8ff" d="M470.35,-229.94C408.64,-224.15 314.88,-211.07 293,-184 282.1,-170.52 291.06,-151.16 300.42,-137.37"/>
<polygon fill="#63b8ff" stroke="#63b8ff" points="303.3,-139.36 306.42,-129.23 297.67,-135.2 303.3,-139.36"/>
</a>
</g>
</g>
<!-- Node16 -->
<g id="Node000016" class="node">
<title>Node16</title>
<g id="a_Node000016"><a xlink:title=" ">
<polygon fill="#e0e0e0" stroke="#999999" points="709.5,-184 638.5,-184 638.5,-165 709.5,-165 709.5,-184"/>
<text text-anchor="middle" x="674" y="-172" font-family="Helvetica,sans-Serif" font-size="10.00">QAtomicInt</text>
</a>
</g>
</g>
<!-- Node3&#45;&gt;Node16 -->
<g id="edge29_Node000003_Node000016" class="edge">
<title>Node3&#45;&gt;Node16</title>
<g id="a_edge29_Node000003_Node000016"><a xlink:title=" ">
<path fill="none" stroke="#63b8ff" d="M547.52,-225.49C572.62,-215.57 614.32,-199.09 642.93,-187.78"/>
<polygon fill="#63b8ff" stroke="#63b8ff" points="644.44,-190.95 652.45,-184.02 641.87,-184.44 644.44,-190.95"/>
</a>
</g>
</g>
<!-- Node17 -->
<g id="Node000017" class="node">
<title>Node17</title>
<g id="a_Node000017"><a xlink:title=" ">
<polygon fill="#e0e0e0" stroke="#999999" points="782.5,-184 727.5,-184 727.5,-165 782.5,-165 782.5,-184"/>
<text text-anchor="middle" x="755" y="-172" font-family="Helvetica,sans-Serif" font-size="10.00">QMutex</text>
</a>
</g>
</g>
<!-- Node3&#45;&gt;Node17 -->
<g id="edge30_Node000003_Node000017" class="edge">
<title>Node3&#45;&gt;Node17</title>
<g id="a_edge30_Node000003_Node000017"><a xlink:title=" ">
<path fill="none" stroke="#63b8ff" d="M559.3,-225.49C601.42,-214.73 673.74,-196.26 717.69,-185.03"/>
<polygon fill="#63b8ff" stroke="#63b8ff" points="718.59,-188.41 727.41,-182.55 716.86,-181.63 718.59,-188.41"/>
</a>
</g>
</g>
<!-- Node18 -->
<g id="Node000018" class="node">
<title>Node18</title>
<g id="a_Node000018"><a xlink:title=" ">
<polygon fill="#e0e0e0" stroke="#999999" points="358,-184 302,-184 302,-165 358,-165 358,-184"/>
<text text-anchor="middle" x="330" y="-172" font-family="Helvetica,sans-Serif" font-size="10.00">QObject</text>
</a>
</g>
</g>
<!-- Node3&#45;&gt;Node18 -->
<g id="edge31_Node000003_Node000018" class="edge">
<title>Node3&#45;&gt;Node18</title>
<g id="a_edge31_Node000003_Node000018"><a xlink:title=" ">
<path fill="none" stroke="#63b8ff" d="M497.5,-225.49C463.29,-215.28 405.8,-198.12 367.88,-186.81"/>
<polygon fill="#63b8ff" stroke="#63b8ff" points="368.8,-183.43 358.22,-183.92 366.8,-190.14 368.8,-183.43"/>
</a>
</g>
</g>
<!-- Node19 -->
<g id="Node000019" class="node">
<title>Node19</title>
<g id="a_Node000019"><a xlink:title=" ">
<polygon fill="#e0e0e0" stroke="#999999" points="446,-184 376,-184 376,-165 446,-165 446,-184"/>
<text text-anchor="middle" x="411" y="-172" font-family="Helvetica,sans-Serif" font-size="10.00">QStringList</text>
</a>
</g>
</g>
<!-- Node3&#45;&gt;Node19 -->
<g id="edge33_Node000003_Node000019" class="edge">
<title>Node3&#45;&gt;Node19</title>
<g id="a_edge33_Node000003_Node000019"><a xlink:title=" ">
<path fill="none" stroke="#63b8ff" d="M509.03,-225.37C490.09,-215.73 459.21,-200.03 437.17,-188.81"/>
<polygon fill="#63b8ff" stroke="#63b8ff" points="438.54,-185.58 428.04,-184.17 435.36,-191.82 438.54,-185.58"/>
</a>
</g>
</g>
<!-- Node20 -->
<g id="Node000020" class="node">
<title>Node20</title>
<g id="a_Node000020"><a xlink:title=" ">
<polygon fill="#e0e0e0" stroke="#999999" points="543.5,-184 464.5,-184 464.5,-165 543.5,-165 543.5,-184"/>
<text text-anchor="middle" x="504" y="-172" font-family="Helvetica,sans-Serif" font-size="10.00">QThreadPool</text>
</a>
</g>
</g>
<!-- Node3&#45;&gt;Node20 -->
<g id="edge34_Node000003_Node000020" class="edge">
<title>Node3&#45;&gt;Node20</title>
<g id="a_edge34_Node000003_Node000020"><a xlink:title=" ">
<path fill="none" stroke="#63b8ff" d="M522.75,-225.37C519.63,-217.07 514.82,-204.28 510.85,-193.72"/>
<polygon fill="#63b8ff" stroke="#63b8ff" points="514.06,-192.3 507.26,-184.17 507.5,-194.76 514.06,-192.3"/>
</a>
</g>
</g>
<!-- Node4&#45;&gt;Node5 -->
<g id="edge4_Node000004_Node000005" class="edge">
<title>Node4&#45;&gt;Node5</title>
<g id="a_edge4_Node000004_Node000005"><a xlink:title=" ">
<path fill="none" stroke="#63b8ff" d="M229.11,-164.98C292.74,-155.15 396.85,-139.07 460.9,-129.17"/>
<polygon fill="#63b8ff" stroke="#63b8ff" points="461.48,-132.62 470.83,-127.63 460.41,-125.7 461.48,-132.62"/>
</a>
</g>
</g>
<!-- Node4&#45;&gt;Node6 -->
<g id="edge14_Node000004_Node000006" class="edge">
<title>Node4&#45;&gt;Node6</title>
<g id="a_edge14_Node000004_Node000006"><a xlink:title=" ">
<path fill="none" stroke="#63b8ff" d="M246.11,-166.99C352.38,-157.17 541.79,-138.67 572,-129 607.3,-117.7 644.05,-94.9 665.97,-79.92"/>
<polygon fill="#63b8ff" stroke="#63b8ff" points="668.21,-82.63 674.41,-74.04 664.21,-76.89 668.21,-82.63"/>
</a>
</g>
</g>
<!-- Node4&#45;&gt;Node8 -->
<g id="edge23_Node000004_Node000008" class="edge">
<title>Node4&#45;&gt;Node8</title>
<g id="a_edge23_Node000004_Node000008"><a xlink:title=" ">
<path fill="none" stroke="#63b8ff" d="M173.62,-164.74C172.53,-139.31 169.34,-65.08 167.82,-29.69"/>
<polygon fill="#63b8ff" stroke="#63b8ff" points="171.3,-29.15 167.38,-19.31 164.31,-29.45 171.3,-29.15"/>
</a>
</g>
</g>
<!-- Node4&#45;&gt;Node9 -->
<g id="edge25_Node000004_Node000009" class="edge">
<title>Node4&#45;&gt;Node9</title>
<g id="a_edge25_Node000004_Node000009"><a xlink:title=" ">
<path fill="none" stroke="#63b8ff" d="M176.45,-164.76C183.61,-139.79 205.23,-69.06 224,-55 278.9,-13.88 489.35,-9.96 575.21,-10.13"/>
<polygon fill="#63b8ff" stroke="#63b8ff" points="575.26,-13.63 585.28,-10.16 575.29,-6.63 575.26,-13.63"/>
</a>
</g>
</g>
<!-- Node10 -->
<g id="Node000010" class="node">
<title>Node10</title>
<g id="a_Node000010"><a xlink:title=" ">
<polygon fill="#e0e0e0" stroke="#999999" points="412.5,-74 341.5,-74 341.5,-55 412.5,-55 412.5,-74"/>
<text text-anchor="middle" x="377" y="-62" font-family="Helvetica,sans-Serif" font-size="10.00">QJsonArray</text>
</a>
</g>
</g>
<!-- Node4&#45;&gt;Node10 -->
<g id="edge22_Node000004_Node000010" class="edge">
<title>Node4&#45;&gt;Node10</title>
<g id="a_edge22_Node000004_Node000010"><a xlink:title=" ">
<path fill="none" stroke="#63b8ff" d="M183.99,-164.97C199.75,-151.83 231.7,-126.44 262,-110 286.75,-96.57 316.43,-85.19 339.43,-77.31"/>
<polygon fill="#63b8ff" stroke="#63b8ff" points="340.8,-80.54 349.17,-74.04 338.58,-73.9 340.8,-80.54"/>
</a>
</g>
</g>
<!-- Node4&#45;&gt;Node13 -->
<g id="edge15_Node000004_Node000013" class="edge">
<title>Node4&#45;&gt;Node13</title>
<g id="a_edge15_Node000004_Node000013"><a xlink:title=" ">
<path fill="none" stroke="#63b8ff" d="M196.49,-164.98C219.52,-156.27 255.54,-142.63 281.63,-132.75"/>
<polygon fill="#63b8ff" stroke="#63b8ff" points="282.98,-135.98 291.1,-129.17 280.51,-129.44 282.98,-135.98"/>
</a>
</g>
</g>
<!-- Node4&#45;&gt;Node15 -->
<g id="edge24_Node000004_Node000015" class="edge">
<title>Node4&#45;&gt;Node15</title>
<g id="a_edge24_Node000004_Node000015"><a xlink:title=" ">
<path fill="none" stroke="#63b8ff" d="M157.93,-164.98C142.14,-156.61 117.78,-143.7 99.37,-133.95"/>
<polygon fill="#63b8ff" stroke="#63b8ff" points="100.83,-130.76 90.36,-129.17 97.56,-136.95 100.83,-130.76"/>
</a>
</g>
</g>
<!-- Node5&#45;&gt;Node6 -->
<g id="edge5_Node000005_Node000006" class="edge">
<title>Node5&#45;&gt;Node6</title>
<g id="a_edge5_Node000005_Node000006"><a xlink:title=" ">
<path fill="none" stroke="#63b8ff" d="M544.15,-109.98C572.53,-101.09 617.23,-87.07 648.86,-77.15"/>
<polygon fill="#63b8ff" stroke="#63b8ff" points="650.14,-80.41 658.63,-74.08 648.05,-73.73 650.14,-80.41"/>
</a>
</g>
</g>
<!-- Node5&#45;&gt;Node8 -->
<g id="edge10_Node000005_Node000008" class="edge">
<title>Node5&#45;&gt;Node8</title>
<g id="a_edge10_Node000005_Node000008"><a xlink:title=" ">
<path fill="none" stroke="#63b8ff" d="M516.73,-109.94C515.8,-96.04 511.79,-68.75 495,-55 453.24,-20.81 296.21,-12.84 215.52,-11.01"/>
<polygon fill="#63b8ff" stroke="#63b8ff" points="215.2,-7.51 205.13,-10.8 215.06,-14.5 215.2,-7.51"/>
</a>
</g>
</g>
<!-- Node5&#45;&gt;Node9 -->
<g id="edge13_Node000005_Node000009" class="edge">
<title>Node5&#45;&gt;Node9</title>
<g id="a_edge13_Node000005_Node000009"><a xlink:title=" ">
<path fill="none" stroke="#63b8ff" d="M541.17,-109.89C557.98,-102.73 579.68,-90.95 593,-74 603.11,-61.13 607.85,-42.97 610.07,-29.36"/>
<polygon fill="#63b8ff" stroke="#63b8ff" points="613.57,-29.59 611.4,-19.22 606.63,-28.68 613.57,-29.59"/>
</a>
</g>
</g>
<!-- Node5&#45;&gt;Node10 -->
<g id="edge9_Node000005_Node000010" class="edge">
<title>Node5&#45;&gt;Node10</title>
<g id="a_edge9_Node000005_Node000010"><a xlink:title=" ">
<path fill="none" stroke="#63b8ff" d="M494.51,-109.98C471.48,-101.27 435.46,-87.63 409.37,-77.75"/>
<polygon fill="#63b8ff" stroke="#63b8ff" points="410.49,-74.44 399.9,-74.17 408.02,-80.98 410.49,-74.44"/>
</a>
</g>
</g>
<!-- Node5&#45;&gt;Node11 -->
<g id="edge11_Node000005_Node000011" class="edge">
<title>Node5&#45;&gt;Node11</title>
<g id="a_edge11_Node000005_Node000011"><a xlink:title=" ">
<path fill="none" stroke="#63b8ff" d="M524.6,-109.75C531.16,-102.18 540.82,-91.05 548.81,-81.84"/>
<polygon fill="#63b8ff" stroke="#63b8ff" points="551.63,-83.94 555.55,-74.09 546.35,-79.35 551.63,-83.94"/>
</a>
</g>
</g>
<!-- Node12 -->
<g id="Node000012" class="node">
<title>Node12</title>
<g id="a_Node000012"><a xlink:title=" ">
<polygon fill="#e0e0e0" stroke="#999999" points="485.5,-74 430.5,-74 430.5,-55 485.5,-55 485.5,-74"/>
<text text-anchor="middle" x="458" y="-62" font-family="Helvetica,sans-Serif" font-size="10.00">QPointF</text>
</a>
</g>
</g>
<!-- Node5&#45;&gt;Node12 -->
<g id="edge12_Node000005_Node000012" class="edge">
<title>Node5&#45;&gt;Node12</title>
<g id="a_edge12_Node000005_Node000012"><a xlink:title=" ">
<path fill="none" stroke="#63b8ff" d="M507.52,-109.98C498.8,-102.15 485.66,-90.34 475.1,-80.86"/>
<polygon fill="#63b8ff" stroke="#63b8ff" points="477.43,-78.25 467.65,-74.17 472.75,-83.46 477.43,-78.25"/>
</a>
</g>
</g>
<!-- Node7 -->
<g id="Node000007" class="node">
<title>Node7</title>
<g id="a_Node000007"><a xlink:title=" ">
<polygon fill="#e0e0e0" stroke="#999999" points="729.5,-19 656.5,-19 656.5,0 729.5,0 729.5,-19"/>
<text text-anchor="middle" x="693" y="-7" font-family="Helvetica,sans-Serif" font-size="10.00">QByteArray</text>
</a>
</g>
</g>
<!-- Node6&#45;&gt;Node7 -->
<g id="edge6_Node000006_Node000007" class="edge">
<title>Node6&#45;&gt;Node7</title>
<g id="a_edge6_Node000006_Node000007"><a xlink:title=" ">
<path fill="none" stroke="#63b8ff" d="M687.16,-54.75C688.07,-47.8 689.39,-37.85 690.54,-29.13"/>
<polygon fill="#63b8ff" stroke="#63b8ff" points="694.03,-29.46 691.87,-19.09 687.09,-28.54 694.03,-29.46"/>
</a>
</g>
</g>
<!-- Node6&#45;&gt;Node8 -->
<g id="edge7_Node000006_Node000008" class="edge">
<title>Node6&#45;&gt;Node8</title>
<g id="a_edge7_Node000006_Node000008"><a xlink:title=" ">
<path fill="none" stroke="#63b8ff" d="M639.94,-58.8C542.18,-48.81 314.76,-25.59 215.17,-15.42"/>
<polygon fill="#63b8ff" stroke="#63b8ff" points="215.39,-11.92 205.08,-14.39 214.68,-18.89 215.39,-11.92"/>
</a>
</g>
</g>
<!-- Node6&#45;&gt;Node9 -->
<g id="edge8_Node000006_Node000009" class="edge">
<title>Node6&#45;&gt;Node9</title>
<g id="a_edge8_Node000006_Node000009"><a xlink:title=" ">
<path fill="none" stroke="#63b8ff" d="M674.11,-54.98C662.85,-46.92 645.71,-34.65 632.29,-25.03"/>
<polygon fill="#63b8ff" stroke="#63b8ff" points="634.27,-22.15 624.11,-19.17 630.2,-27.84 634.27,-22.15"/>
</a>
</g>
</g>
<!-- Node13&#45;&gt;Node8 -->
<g id="edge17_Node000013_Node000008" class="edge">
<title>Node13&#45;&gt;Node8</title>
<g id="a_edge17_Node000013_Node000008"><a xlink:title=" ">
<path fill="none" stroke="#63b8ff" d="M290.82,-109.91C271.78,-102.2 244.69,-89.7 224,-74 206.38,-60.63 189.93,-41.26 179.27,-27.43"/>
<polygon fill="#63b8ff" stroke="#63b8ff" points="181.95,-25.17 173.15,-19.26 176.35,-29.37 181.95,-25.17"/>
</a>
</g>
</g>
<!-- Node13&#45;&gt;Node9 -->
<g id="edge21_Node000013_Node000009" class="edge">
<title>Node13&#45;&gt;Node9</title>
<g id="a_edge21_Node000013_Node000009"><a xlink:title=" ">
<path fill="none" stroke="#63b8ff" d="M313.88,-109.57C314.22,-95.65 317.07,-68.95 333,-55 368.47,-23.95 507.97,-14.44 575.28,-11.63"/>
<polygon fill="#63b8ff" stroke="#63b8ff" points="575.58,-15.12 585.43,-11.23 575.3,-8.12 575.58,-15.12"/>
</a>
</g>
</g>
<!-- Node13&#45;&gt;Node10 -->
<g id="edge16_Node000013_Node000010" class="edge">
<title>Node13&#45;&gt;Node10</title>
<g id="a_edge16_Node000013_Node000010"><a xlink:title=" ">
<path fill="none" stroke="#63b8ff" d="M324.12,-109.98C333.44,-102.15 347.47,-90.34 358.74,-80.86"/>
<polygon fill="#63b8ff" stroke="#63b8ff" points="361.29,-83.29 366.69,-74.17 356.79,-77.93 361.29,-83.29"/>
</a>
</g>
</g>
<!-- Node13&#45;&gt;Node11 -->
<g id="edge18_Node000013_Node000011" class="edge">
<title>Node13&#45;&gt;Node11</title>
<g id="a_edge18_Node000013_Node000011"><a xlink:title=" ">
<path fill="none" stroke="#63b8ff" d="M354.01,-109.98C403.64,-99.42 487.2,-81.63 532.16,-72.06"/>
<polygon fill="#63b8ff" stroke="#63b8ff" points="533.14,-75.43 542.19,-69.93 531.68,-68.59 533.14,-75.43"/>
</a>
</g>
</g>
<!-- Node13&#45;&gt;Node12 -->
<g id="edge19_Node000013_Node000012" class="edge">
<title>Node13&#45;&gt;Node12</title>
<g id="a_edge19_Node000013_Node000012"><a xlink:title=" ">
<path fill="none" stroke="#63b8ff" d="M337.14,-109.98C360.82,-101.27 397.87,-87.63 424.71,-77.75"/>
<polygon fill="#63b8ff" stroke="#63b8ff" points="426.27,-80.91 434.44,-74.17 423.85,-74.34 426.27,-80.91"/>
</a>
</g>
</g>
<!-- Node14 -->
<g id="Node000014" class="node">
<title>Node14</title>
<g id="a_Node000014"><a xlink:title=" ">
<polygon fill="#e0e0e0" stroke="#999999" points="285,-74 233,-74 233,-55 285,-55 285,-74"/>
<text text-anchor="middle" x="259" y="-62" font-family="Helvetica,sans-Serif" font-size="10.00">QRectF</text>
</a>
</g>
</g>
<!-- Node13&#45;&gt;Node14 -->
<g id="edge20_Node000013_Node000014" class="edge">
<title>Node13&#45;&gt;Node14</title>
<g id="a_edge20_Node000013_Node000014"><a xlink:title=" ">
<path fill="none" stroke="#63b8ff" d="M304.92,-109.75C296.91,-102.03 285.04,-90.6 275.38,-81.28"/>
<polygon fill="#63b8ff" stroke="#63b8ff" points="277.54,-78.51 267.91,-74.09 272.69,-83.55 277.54,-78.51"/>
</a>
</g>
</g>
</g>
</svg>
