<?xml version="1.0" encoding="UTF-8" standalone="no"?>
<!DOCTYPE svg PUBLIC "-//W3C//DTD SVG 1.1//EN"
 "http://www.w3.org/Graphics/SVG/1.1/DTD/svg11.dtd">
<!-- Generated by graphviz version 2.43.0 (0)
 -->
<!-- Title: services/pipeline/stats/PipelineStatistics.cpp Pages: 1 -->
<svg width="1458pt" height="379pt"
 viewBox="0.00 0.00 1458.00 379.00" xmlns="http://www.w3.org/2000/svg" xmlns:xlink="http://www.w3.org/1999/xlink">
<g id="graph0" class="graph" transform="scale(1 1) rotate(0) translate(4 375)">
<title>services/pipeline/stats/PipelineStatistics.cpp</title>
<!-- Node1 -->
<g id="Node000001" class="node">
<title>Node1</title>
<g id="a_Node000001"><a xlink:title=" ">
<polygon fill="#999999" stroke="#666666" points="1254,-371 1128,-371 1128,-341 1254,-341 1254,-371"/>
<text text-anchor="start" x="1136" y="-359" font-family="Helvetica,sans-Serif" font-size="10.00">services/pipeline/stats</text>
<text text-anchor="middle" x="1191" y="-348" font-family="Helvetica,sans-Serif" font-size="10.00">/PipelineStatistics.cpp</text>
</a>
</g>
</g>
<!-- Node2 -->
<g id="Node000002" class="node">
<title>Node2</title>
<g id="a_Node000002"><a xlink:href="PipelineStatistics_8h.html" target="_top" xlink:title=" ">
<polygon fill="white" stroke="#666666" points="224,-305 114,-305 114,-286 224,-286 224,-305"/>
<text text-anchor="middle" x="169" y="-293" font-family="Helvetica,sans-Serif" font-size="10.00">PipelineStatistics.h</text>
</a>
</g>
</g>
<!-- Node1&#45;&gt;Node2 -->
<g id="edge1_Node000001_Node000002" class="edge">
<title>Node1&#45;&gt;Node2</title>
<g id="a_edge1_Node000001_Node000002"><a xlink:title=" ">
<path fill="none" stroke="#63b8ff" d="M1127.84,-351.38C945.46,-340.95 419.26,-310.82 234.26,-300.24"/>
<polygon fill="#63b8ff" stroke="#63b8ff" points="234.32,-296.73 224.14,-299.66 233.92,-303.72 234.32,-296.73"/>
</a>
</g>
</g>
<!-- Node8 -->
<g id="Node000008" class="node">
<title>Node8</title>
<g id="a_Node000008"><a xlink:title=" ">
<polygon fill="#e0e0e0" stroke="#999999" points="925,-19 849,-19 849,0 925,0 925,-19"/>
<text text-anchor="middle" x="887" y="-7" font-family="Helvetica,sans-Serif" font-size="10.00">QJsonObject</text>
</a>
</g>
</g>
<!-- Node1&#45;&gt;Node8 -->
<g id="edge44_Node000001_Node000008" class="edge">
<title>Node1&#45;&gt;Node8</title>
<g id="a_edge44_Node000001_Node000008"><a xlink:title=" ">
<path fill="none" stroke="#63b8ff" d="M1127.93,-342.65C1104.99,-335.24 1080.63,-323.5 1064,-305 1042.74,-281.34 1045,-267.81 1045,-236 1045,-236 1045,-236 1045,-118.5 1045,-89.04 1046.63,-76.03 1026,-55 1013.12,-41.87 970.15,-29.32 935.36,-20.92"/>
<polygon fill="#63b8ff" stroke="#63b8ff" points="935.87,-17.44 925.33,-18.55 934.26,-24.26 935.87,-17.44"/>
</a>
</g>
</g>
<!-- Node23 -->
<g id="Node000023" class="node">
<title>Node23</title>
<g id="a_Node000023"><a xlink:title=" ">
<polygon fill="#e0e0e0" stroke="#999999" points="1145,-305 1073,-305 1073,-286 1145,-286 1145,-305"/>
<text text-anchor="middle" x="1109" y="-293" font-family="Helvetica,sans-Serif" font-size="10.00">QDateTime</text>
</a>
</g>
</g>
<!-- Node1&#45;&gt;Node23 -->
<g id="edge40_Node000001_Node000023" class="edge">
<title>Node1&#45;&gt;Node23</title>
<g id="a_edge40_Node000001_Node000023"><a xlink:title=" ">
<path fill="none" stroke="#63b8ff" d="M1171.15,-340.84C1158.52,-331.83 1142.2,-320.18 1129.45,-311.09"/>
<polygon fill="#63b8ff" stroke="#63b8ff" points="1131.46,-308.22 1121.29,-305.27 1127.4,-313.92 1131.46,-308.22"/>
</a>
</g>
</g>
<!-- Node24 -->
<g id="Node000024" class="node">
<title>Node24</title>
<g id="a_Node000024"><a xlink:title=" ">
<polygon fill="#e0e0e0" stroke="#999999" points="1219,-305 1163,-305 1163,-286 1219,-286 1219,-305"/>
<text text-anchor="middle" x="1191" y="-293" font-family="Helvetica,sans-Serif" font-size="10.00">QDebug</text>
</a>
</g>
</g>
<!-- Node1&#45;&gt;Node24 -->
<g id="edge41_Node000001_Node000024" class="edge">
<title>Node1&#45;&gt;Node24</title>
<g id="a_edge41_Node000001_Node000024"><a xlink:title=" ">
<path fill="none" stroke="#63b8ff" d="M1191,-340.84C1191,-333.21 1191,-323.7 1191,-315.45"/>
<polygon fill="#63b8ff" stroke="#63b8ff" points="1194.5,-315.27 1191,-305.27 1187.5,-315.27 1194.5,-315.27"/>
</a>
</g>
</g>
<!-- Node25 -->
<g id="Node000025" class="node">
<title>Node25</title>
<g id="a_Node000025"><a xlink:title=" ">
<polygon fill="#e0e0e0" stroke="#999999" points="1278.5,-305 1237.5,-305 1237.5,-286 1278.5,-286 1278.5,-305"/>
<text text-anchor="middle" x="1258" y="-293" font-family="Helvetica,sans-Serif" font-size="10.00">QFile</text>
</a>
</g>
</g>
<!-- Node1&#45;&gt;Node25 -->
<g id="edge42_Node000001_Node000025" class="edge">
<title>Node1&#45;&gt;Node25</title>
<g id="a_edge42_Node000001_Node000025"><a xlink:title=" ">
<path fill="none" stroke="#63b8ff" d="M1207.22,-340.84C1217.24,-332.09 1230.11,-320.85 1240.38,-311.88"/>
<polygon fill="#63b8ff" stroke="#63b8ff" points="1242.73,-314.48 1247.96,-305.27 1238.13,-309.21 1242.73,-314.48"/>
</a>
</g>
</g>
<!-- Node26 -->
<g id="Node000026" class="node">
<title>Node26</title>
<g id="a_Node000026"><a xlink:title=" ">
<polygon fill="#e0e0e0" stroke="#999999" points="1391.5,-305 1296.5,-305 1296.5,-286 1391.5,-286 1391.5,-305"/>
<text text-anchor="middle" x="1344" y="-293" font-family="Helvetica,sans-Serif" font-size="10.00">QJsonDocument</text>
</a>
</g>
</g>
<!-- Node1&#45;&gt;Node26 -->
<g id="edge43_Node000001_Node000026" class="edge">
<title>Node1&#45;&gt;Node26</title>
<g id="a_edge43_Node000001_Node000026"><a xlink:title=" ">
<path fill="none" stroke="#63b8ff" d="M1227.65,-340.99C1253.29,-331.18 1287.22,-318.21 1311.82,-308.81"/>
<polygon fill="#63b8ff" stroke="#63b8ff" points="1313.31,-311.98 1321.41,-305.14 1310.81,-305.44 1313.31,-311.98"/>
</a>
</g>
</g>
<!-- Node27 -->
<g id="Node000027" class="node">
<title>Node27</title>
<g id="a_Node000027"><a xlink:title=" ">
<polygon fill="#e0e0e0" stroke="#999999" points="1450,-305 1410,-305 1410,-286 1450,-286 1450,-305"/>
<text text-anchor="middle" x="1430" y="-293" font-family="Helvetica,sans-Serif" font-size="10.00">QSet</text>
</a>
</g>
</g>
<!-- Node1&#45;&gt;Node27 -->
<g id="edge45_Node000001_Node000027" class="edge">
<title>Node1&#45;&gt;Node27</title>
<g id="a_edge45_Node000001_Node000027"><a xlink:title=" ">
<path fill="none" stroke="#63b8ff" d="M1253.7,-340.96C1293.18,-331.91 1345.42,-319.57 1399.92,-305.19"/>
<polygon fill="#63b8ff" stroke="#63b8ff" points="1400.99,-308.53 1409.76,-302.58 1399.19,-301.76 1400.99,-308.53"/>
</a>
</g>
</g>
<!-- Node3 -->
<g id="Node000003" class="node">
<title>Node3</title>
<g id="a_Node000003"><a xlink:href="ExportService_8h.html" target="_top" xlink:title=" ">
<polygon fill="white" stroke="#666666" points="588.5,-244.5 477.5,-244.5 477.5,-225.5 588.5,-225.5 588.5,-244.5"/>
<text text-anchor="middle" x="533" y="-232.5" font-family="Helvetica,sans-Serif" font-size="10.00">../../ExportService.h</text>
</a>
</g>
</g>
<!-- Node2&#45;&gt;Node3 -->
<g id="edge2_Node000002_Node000003" class="edge">
<title>Node2&#45;&gt;Node3</title>
<g id="a_edge2_Node000002_Node000003"><a xlink:title=" ">
<path fill="none" stroke="#63b8ff" d="M221.93,-285.99C287.71,-275.42 399.82,-257.4 469.97,-246.13"/>
<polygon fill="#63b8ff" stroke="#63b8ff" points="470.69,-249.56 480.01,-244.52 469.58,-242.65 470.69,-249.56"/>
</a>
</g>
</g>
<!-- Node9 -->
<g id="Node000009" class="node">
<title>Node9</title>
<g id="a_Node000009"><a xlink:title=" ">
<polygon fill="#e0e0e0" stroke="#999999" points="489.5,-19 436.5,-19 436.5,0 489.5,0 489.5,-19"/>
<text text-anchor="middle" x="463" y="-7" font-family="Helvetica,sans-Serif" font-size="10.00">QString</text>
</a>
</g>
</g>
<!-- Node2&#45;&gt;Node9 -->
<g id="edge39_Node000002_Node000009" class="edge">
<title>Node2&#45;&gt;Node9</title>
<g id="a_edge39_Node000002_Node000009"><a xlink:title=" ">
<path fill="none" stroke="#63b8ff" d="M131.91,-286C82.16,-272.14 0,-239.55 0,-175.5 0,-175.5 0,-175.5 0,-118.5 0,-31.13 316.62,-14.41 426.21,-11.23"/>
<polygon fill="#63b8ff" stroke="#63b8ff" points="426.54,-14.73 436.44,-10.96 426.35,-7.73 426.54,-14.73"/>
</a>
</g>
</g>
<!-- Node11 -->
<g id="Node000011" class="node">
<title>Node11</title>
<g id="a_Node000011"><a xlink:title=" ">
<polygon fill="#e0e0e0" stroke="#999999" points="483.5,-74 442.5,-74 442.5,-55 483.5,-55 483.5,-74"/>
<text text-anchor="middle" x="463" y="-62" font-family="Helvetica,sans-Serif" font-size="10.00">QList</text>
</a>
</g>
</g>
<!-- Node2&#45;&gt;Node11 -->
<g id="edge37_Node000002_Node000011" class="edge">
<title>Node2&#45;&gt;Node11</title>
<g id="a_edge37_Node000002_Node000011"><a xlink:title=" ">
<path fill="none" stroke="#63b8ff" d="M153.87,-285.73C142.19,-277.99 126.88,-265.55 120,-250 104.71,-215.46 103.49,-198.98 120,-165 137.3,-129.41 153.77,-125.91 190,-110 272.1,-73.95 379.67,-66.81 431.88,-65.59"/>
<polygon fill="#63b8ff" stroke="#63b8ff" points="432.21,-69.09 442.15,-65.41 432.09,-62.09 432.21,-69.09"/>
</a>
</g>
</g>
<!-- Node15 -->
<g id="Node000015" class="node">
<title>Node15</title>
<g id="a_Node000015"><a xlink:title=" ">
<polygon fill="#e0e0e0" stroke="#999999" points="291,-129 199,-129 199,-110 291,-110 291,-129"/>
<text text-anchor="middle" x="245" y="-117" font-family="Helvetica,sans-Serif" font-size="10.00">QSharedPointer</text>
</a>
</g>
</g>
<!-- Node2&#45;&gt;Node15 -->
<g id="edge38_Node000002_Node000015" class="edge">
<title>Node2&#45;&gt;Node15</title>
<g id="a_edge38_Node000002_Node000015"><a xlink:title=" ">
<path fill="none" stroke="#63b8ff" d="M158.84,-285.81C150.1,-277.6 138.1,-264.43 133,-250 120.4,-214.39 111.78,-196.26 133,-165 145.73,-146.24 167.75,-135.39 188.91,-129.12"/>
<polygon fill="#63b8ff" stroke="#63b8ff" points="190.09,-132.42 198.86,-126.46 188.29,-125.66 190.09,-132.42"/>
</a>
</g>
</g>
<!-- Node22 -->
<g id="Node000022" class="node">
<title>Node22</title>
<g id="a_Node000022"><a xlink:title=" ">
<polygon fill="#e0e0e0" stroke="#999999" points="303.5,-250 142.5,-250 142.5,-220 303.5,-220 303.5,-250"/>
<text text-anchor="start" x="150.5" y="-238" font-family="Helvetica,sans-Serif" font-size="10.00">../../models/ComponentExport</text>
<text text-anchor="middle" x="223" y="-227" font-family="Helvetica,sans-Serif" font-size="10.00">Status.h</text>
</a>
</g>
</g>
<!-- Node2&#45;&gt;Node22 -->
<g id="edge36_Node000002_Node000022" class="edge">
<title>Node2&#45;&gt;Node22</title>
<g id="a_edge36_Node000002_Node000022"><a xlink:title=" ">
<path fill="none" stroke="#63b8ff" d="M176.97,-285.87C183.82,-278.44 194,-267.42 203.05,-257.62"/>
<polygon fill="#63b8ff" stroke="#63b8ff" points="205.76,-259.84 209.97,-250.11 200.62,-255.09 205.76,-259.84"/>
</a>
</g>
</g>
<!-- Node4 -->
<g id="Node000004" class="node">
<title>Node4</title>
<g id="a_Node000004"><a xlink:href="ComponentData_8h.html" target="_top" xlink:title=" ">
<polygon fill="white" stroke="#666666" points="907,-184 763,-184 763,-165 907,-165 907,-184"/>
<text text-anchor="middle" x="835" y="-172" font-family="Helvetica,sans-Serif" font-size="10.00">models/ComponentData.h</text>
</a>
</g>
</g>
<!-- Node3&#45;&gt;Node4 -->
<g id="edge3_Node000003_Node000004" class="edge">
<title>Node3&#45;&gt;Node4</title>
<g id="a_edge3_Node000003_Node000004"><a xlink:title=" ">
<path fill="none" stroke="#63b8ff" d="M576.91,-225.49C630.93,-215.03 722.61,-197.27 780.91,-185.98"/>
<polygon fill="#63b8ff" stroke="#63b8ff" points="781.88,-189.35 791.03,-184.02 780.55,-182.48 781.88,-189.35"/>
</a>
</g>
</g>
<!-- Node5 -->
<g id="Node000005" class="node">
<title>Node5</title>
<g id="a_Node000005"><a xlink:href="FootprintData_8h.html" target="_top" xlink:title=" ">
<polygon fill="white" stroke="#666666" points="868,-129 776,-129 776,-110 868,-110 868,-129"/>
<text text-anchor="middle" x="822" y="-117" font-family="Helvetica,sans-Serif" font-size="10.00">FootprintData.h</text>
</a>
</g>
</g>
<!-- Node3&#45;&gt;Node5 -->
<g id="edge26_Node000003_Node000005" class="edge">
<title>Node3&#45;&gt;Node5</title>
<g id="a_edge26_Node000003_Node000005"><a xlink:title=" ">
<path fill="none" stroke="#63b8ff" d="M588.86,-230.72C689.94,-224.22 894.76,-208.19 916,-184 935.87,-161.37 898.47,-143.12 865.12,-132.09"/>
<polygon fill="#63b8ff" stroke="#63b8ff" points="866.01,-128.7 855.42,-129.04 863.91,-135.38 866.01,-128.7"/>
</a>
</g>
</g>
<!-- Node6 -->
<g id="Node000006" class="node">
<title>Node6</title>
<g id="a_Node000006"><a xlink:href="Model3DData_8h.html" target="_top" xlink:title=" ">
<polygon fill="white" stroke="#666666" points="1017,-74 925,-74 925,-55 1017,-55 1017,-74"/>
<text text-anchor="middle" x="971" y="-62" font-family="Helvetica,sans-Serif" font-size="10.00">Model3DData.h</text>
</a>
</g>
</g>
<!-- Node3&#45;&gt;Node6 -->
<g id="edge27_Node000003_Node000006" class="edge">
<title>Node3&#45;&gt;Node6</title>
<g id="a_edge27_Node000003_Node000006"><a xlink:title=" ">
<path fill="none" stroke="#63b8ff" d="M588.68,-234.15C685.81,-233.28 880.8,-226.15 932,-184 962.01,-159.3 969.11,-111 970.67,-84.33"/>
<polygon fill="#63b8ff" stroke="#63b8ff" points="974.18,-84.17 971.06,-74.05 967.19,-83.91 974.18,-84.17"/>
</a>
</g>
</g>
<!-- Node3&#45;&gt;Node9 -->
<g id="edge33_Node000003_Node000009" class="edge">
<title>Node3&#45;&gt;Node9</title>
<g id="a_edge33_Node000003_Node000009"><a xlink:title=" ">
<path fill="none" stroke="#63b8ff" d="M477.12,-231.05C372.47,-224.96 155.41,-209.38 133,-184 43.03,-82.08 322.83,-30.61 426.2,-15.41"/>
<polygon fill="#63b8ff" stroke="#63b8ff" points="426.81,-18.86 436.21,-13.98 425.81,-11.93 426.81,-18.86"/>
</a>
</g>
</g>
<!-- Node13 -->
<g id="Node000013" class="node">
<title>Node13</title>
<g id="a_Node000013"><a xlink:href="SymbolData_8h.html" target="_top" xlink:title=" ">
<polygon fill="white" stroke="#666666" points="678,-129 592,-129 592,-110 678,-110 678,-129"/>
<text text-anchor="middle" x="635" y="-117" font-family="Helvetica,sans-Serif" font-size="10.00">SymbolData.h</text>
</a>
</g>
</g>
<!-- Node3&#45;&gt;Node13 -->
<g id="edge28_Node000003_Node000013" class="edge">
<title>Node3&#45;&gt;Node13</title>
<g id="a_edge28_Node000003_Node000013"><a xlink:title=" ">
<path fill="none" stroke="#63b8ff" d="M588.75,-226.27C636.69,-218.34 700.51,-204.29 716,-184 732.56,-162.31 700.53,-143.9 671.99,-132.57"/>
<polygon fill="#63b8ff" stroke="#63b8ff" points="673.11,-129.26 662.52,-129.01 670.65,-135.81 673.11,-129.26"/>
</a>
</g>
</g>
<!-- Node16 -->
<g id="Node000016" class="node">
<title>Node16</title>
<g id="a_Node000016"><a xlink:title=" ">
<polygon fill="#e0e0e0" stroke="#999999" points="213.5,-184 142.5,-184 142.5,-165 213.5,-165 213.5,-184"/>
<text text-anchor="middle" x="178" y="-172" font-family="Helvetica,sans-Serif" font-size="10.00">QAtomicInt</text>
</a>
</g>
</g>
<!-- Node3&#45;&gt;Node16 -->
<g id="edge29_Node000003_Node000016" class="edge">
<title>Node3&#45;&gt;Node16</title>
<g id="a_edge29_Node000003_Node000016"><a xlink:title=" ">
<path fill="none" stroke="#63b8ff" d="M477.49,-225.5C417.52,-216.23 318.9,-200.67 223.91,-184.12"/>
<polygon fill="#63b8ff" stroke="#63b8ff" points="224.3,-180.63 213.85,-182.36 223.09,-187.53 224.3,-180.63"/>
</a>
</g>
</g>
<!-- Node17 -->
<g id="Node000017" class="node">
<title>Node17</title>
<g id="a_Node000017"><a xlink:title=" ">
<polygon fill="#e0e0e0" stroke="#999999" points="286.5,-184 231.5,-184 231.5,-165 286.5,-165 286.5,-184"/>
<text text-anchor="middle" x="259" y="-172" font-family="Helvetica,sans-Serif" font-size="10.00">QMutex</text>
</a>
</g>
</g>
<!-- Node3&#45;&gt;Node17 -->
<g id="edge30_Node000003_Node000017" class="edge">
<title>Node3&#45;&gt;Node17</title>
<g id="a_edge30_Node000003_Node000017"><a xlink:title=" ">
<path fill="none" stroke="#63b8ff" d="M491.42,-225.46C446.1,-216.1 371.16,-200.48 296.87,-184.16"/>
<polygon fill="#63b8ff" stroke="#63b8ff" points="297.39,-180.69 286.87,-181.96 295.88,-187.53 297.39,-180.69"/>
</a>
</g>
</g>
<!-- Node18 -->
<g id="Node000018" class="node">
<title>Node18</title>
<g id="a_Node000018"><a xlink:title=" ">
<polygon fill="#e0e0e0" stroke="#999999" points="447,-184 305,-184 305,-165 447,-165 447,-184"/>
<text text-anchor="middle" x="376" y="-172" font-family="Helvetica,sans-Serif" font-size="10.00">QNetworkAccessManager</text>
</a>
</g>
</g>
<!-- Node3&#45;&gt;Node18 -->
<g id="edge31_Node000003_Node000018" class="edge">
<title>Node3&#45;&gt;Node18</title>
<g id="a_edge31_Node000003_Node000018"><a xlink:title=" ">
<path fill="none" stroke="#63b8ff" d="M510.17,-225.49C483.43,-215.53 438.92,-198.95 408.56,-187.63"/>
<polygon fill="#63b8ff" stroke="#63b8ff" points="409.45,-184.23 398.86,-184.02 407.01,-190.79 409.45,-184.23"/>
</a>
</g>
</g>
<!-- Node19 -->
<g id="Node000019" class="node">
<title>Node19</title>
<g id="a_Node000019"><a xlink:title=" ">
<polygon fill="#e0e0e0" stroke="#999999" points="521,-184 465,-184 465,-165 521,-165 521,-184"/>
<text text-anchor="middle" x="493" y="-172" font-family="Helvetica,sans-Serif" font-size="10.00">QObject</text>
</a>
</g>
</g>
<!-- Node3&#45;&gt;Node19 -->
<g id="edge32_Node000003_Node000019" class="edge">
<title>Node3&#45;&gt;Node19</title>
<g id="a_edge32_Node000003_Node000019"><a xlink:title=" ">
<path fill="none" stroke="#63b8ff" d="M527.1,-225.37C521.25,-216.81 512.13,-203.47 504.79,-192.74"/>
<polygon fill="#63b8ff" stroke="#63b8ff" points="507.46,-190.45 498.93,-184.17 501.68,-194.4 507.46,-190.45"/>
</a>
</g>
</g>
<!-- Node20 -->
<g id="Node000020" class="node">
<title>Node20</title>
<g id="a_Node000020"><a xlink:title=" ">
<polygon fill="#e0e0e0" stroke="#999999" points="609,-184 539,-184 539,-165 609,-165 609,-184"/>
<text text-anchor="middle" x="574" y="-172" font-family="Helvetica,sans-Serif" font-size="10.00">QStringList</text>
</a>
</g>
</g>
<!-- Node3&#45;&gt;Node20 -->
<g id="edge34_Node000003_Node000020" class="edge">
<title>Node3&#45;&gt;Node20</title>
<g id="a_edge34_Node000003_Node000020"><a xlink:title=" ">
<path fill="none" stroke="#63b8ff" d="M539.05,-225.37C545.11,-216.73 554.59,-203.2 562.14,-192.42"/>
<polygon fill="#63b8ff" stroke="#63b8ff" points="565.05,-194.37 567.93,-184.17 559.32,-190.35 565.05,-194.37"/>
</a>
</g>
</g>
<!-- Node21 -->
<g id="Node000021" class="node">
<title>Node21</title>
<g id="a_Node000021"><a xlink:title=" ">
<polygon fill="#e0e0e0" stroke="#999999" points="706.5,-184 627.5,-184 627.5,-165 706.5,-165 706.5,-184"/>
<text text-anchor="middle" x="667" y="-172" font-family="Helvetica,sans-Serif" font-size="10.00">QThreadPool</text>
</a>
</g>
</g>
<!-- Node3&#45;&gt;Node21 -->
<g id="edge35_Node000003_Node000021" class="edge">
<title>Node3&#45;&gt;Node21</title>
<g id="a_edge35_Node000003_Node000021"><a xlink:title=" ">
<path fill="none" stroke="#63b8ff" d="M552.48,-225.49C575.01,-215.66 612.31,-199.38 638.19,-188.08"/>
<polygon fill="#63b8ff" stroke="#63b8ff" points="639.73,-191.23 647.49,-184.02 636.93,-184.81 639.73,-191.23"/>
</a>
</g>
</g>
<!-- Node4&#45;&gt;Node5 -->
<g id="edge4_Node000004_Node000005" class="edge">
<title>Node4&#45;&gt;Node5</title>
<g id="a_edge4_Node000004_Node000005"><a xlink:title=" ">
<path fill="none" stroke="#63b8ff" d="M832.85,-164.75C831.13,-157.72 828.65,-147.62 826.5,-138.84"/>
<polygon fill="#63b8ff" stroke="#63b8ff" points="829.89,-137.97 824.11,-129.09 823.09,-139.63 829.89,-137.97"/>
</a>
</g>
</g>
<!-- Node4&#45;&gt;Node6 -->
<g id="edge14_Node000004_Node000006" class="edge">
<title>Node4&#45;&gt;Node6</title>
<g id="a_edge14_Node000004_Node000006"><a xlink:title=" ">
<path fill="none" stroke="#63b8ff" d="M852.8,-164.91C868.81,-156.78 892.57,-143.65 911,-129 928.72,-114.91 946.18,-95.66 957.66,-82.05"/>
<polygon fill="#63b8ff" stroke="#63b8ff" points="960.6,-83.98 964.27,-74.04 955.21,-79.52 960.6,-83.98"/>
</a>
</g>
</g>
<!-- Node4&#45;&gt;Node8 -->
<g id="edge23_Node000004_Node000008" class="edge">
<title>Node4&#45;&gt;Node8</title>
<g id="a_edge23_Node000004_Node000008"><a xlink:title=" ">
<path fill="none" stroke="#63b8ff" d="M846.9,-164.73C856.84,-156.67 870.41,-143.74 877,-129 891.63,-96.28 891.01,-53.45 889.1,-29.26"/>
<polygon fill="#63b8ff" stroke="#63b8ff" points="892.56,-28.63 888.12,-19.01 885.59,-29.3 892.56,-28.63"/>
</a>
</g>
</g>
<!-- Node4&#45;&gt;Node9 -->
<g id="edge25_Node000004_Node000009" class="edge">
<title>Node4&#45;&gt;Node9</title>
<g id="a_edge25_Node000004_Node000009"><a xlink:title=" ">
<path fill="none" stroke="#63b8ff" d="M762.77,-166.74C657.74,-155.18 471.27,-127.48 434,-74 423.67,-59.18 435.2,-40.09 446.64,-26.72"/>
<polygon fill="#63b8ff" stroke="#63b8ff" points="449.34,-28.96 453.55,-19.23 444.2,-24.21 449.34,-28.96"/>
</a>
</g>
</g>
<!-- Node10 -->
<g id="Node000010" class="node">
<title>Node10</title>
<g id="a_Node000010"><a xlink:title=" ">
<polygon fill="#e0e0e0" stroke="#999999" points="719.5,-74 648.5,-74 648.5,-55 719.5,-55 719.5,-74"/>
<text text-anchor="middle" x="684" y="-62" font-family="Helvetica,sans-Serif" font-size="10.00">QJsonArray</text>
</a>
</g>
</g>
<!-- Node4&#45;&gt;Node10 -->
<g id="edge22_Node000004_Node000010" class="edge">
<title>Node4&#45;&gt;Node10</title>
<g id="a_edge22_Node000004_Node000010"><a xlink:title=" ">
<path fill="none" stroke="#63b8ff" d="M821.26,-164.92C807.38,-156.17 785.42,-142.05 767,-129 744.43,-113.02 719.31,-93.55 702.68,-80.42"/>
<polygon fill="#63b8ff" stroke="#63b8ff" points="704.83,-77.66 694.82,-74.18 700.48,-83.14 704.83,-77.66"/>
</a>
</g>
</g>
<!-- Node4&#45;&gt;Node13 -->
<g id="edge15_Node000004_Node000013" class="edge">
<title>Node4&#45;&gt;Node13</title>
<g id="a_edge15_Node000004_Node000013"><a xlink:title=" ">
<path fill="none" stroke="#63b8ff" d="M802.87,-164.98C768.85,-155.97 715,-141.7 677.5,-131.76"/>
<polygon fill="#63b8ff" stroke="#63b8ff" points="677.95,-128.26 667.39,-129.08 676.16,-135.03 677.95,-128.26"/>
</a>
</g>
</g>
<!-- Node4&#45;&gt;Node15 -->
<g id="edge24_Node000004_Node000015" class="edge">
<title>Node4&#45;&gt;Node15</title>
<g id="a_edge24_Node000004_Node000015"><a xlink:title=" ">
<path fill="none" stroke="#63b8ff" d="M762.95,-167.03C643.98,-156.34 408.92,-135.23 301.26,-125.55"/>
<polygon fill="#63b8ff" stroke="#63b8ff" points="301.52,-122.06 291.24,-124.65 300.89,-129.03 301.52,-122.06"/>
</a>
</g>
</g>
<!-- Node5&#45;&gt;Node6 -->
<g id="edge5_Node000005_Node000006" class="edge">
<title>Node5&#45;&gt;Node6</title>
<g id="a_edge5_Node000005_Node000006"><a xlink:title=" ">
<path fill="none" stroke="#63b8ff" d="M845.94,-109.98C870.56,-101.23 909.12,-87.51 936.92,-77.62"/>
<polygon fill="#63b8ff" stroke="#63b8ff" points="938.38,-80.82 946.62,-74.17 936.03,-74.22 938.38,-80.82"/>
</a>
</g>
</g>
<!-- Node5&#45;&gt;Node8 -->
<g id="edge10_Node000005_Node000008" class="edge">
<title>Node5&#45;&gt;Node8</title>
<g id="a_edge10_Node000005_Node000008"><a xlink:title=" ">
<path fill="none" stroke="#63b8ff" d="M827.32,-109.66C838.04,-91.85 862.4,-51.37 876.46,-28.01"/>
<polygon fill="#63b8ff" stroke="#63b8ff" points="879.63,-29.53 881.79,-19.16 873.63,-25.92 879.63,-29.53"/>
</a>
</g>
</g>
<!-- Node5&#45;&gt;Node9 -->
<g id="edge13_Node000005_Node000009" class="edge">
<title>Node5&#45;&gt;Node9</title>
<g id="a_edge13_Node000005_Node000009"><a xlink:title=" ">
<path fill="none" stroke="#63b8ff" d="M822.03,-109.95C821.56,-96.08 818.47,-68.82 802,-55 756.89,-17.15 578.06,-11.24 499.89,-10.5"/>
<polygon fill="#63b8ff" stroke="#63b8ff" points="499.58,-6.99 489.55,-10.42 499.53,-13.99 499.58,-6.99"/>
</a>
</g>
</g>
<!-- Node5&#45;&gt;Node10 -->
<g id="edge9_Node000005_Node000010" class="edge">
<title>Node5&#45;&gt;Node10</title>
<g id="a_edge9_Node000005_Node000010"><a xlink:title=" ">
<path fill="none" stroke="#63b8ff" d="M799.83,-109.98C777.23,-101.3 741.94,-87.75 716.25,-77.88"/>
<polygon fill="#63b8ff" stroke="#63b8ff" points="717.17,-74.49 706.58,-74.17 714.66,-81.02 717.17,-74.49"/>
</a>
</g>
</g>
<!-- Node5&#45;&gt;Node11 -->
<g id="edge11_Node000005_Node000011" class="edge">
<title>Node5&#45;&gt;Node11</title>
<g id="a_edge11_Node000005_Node000011"><a xlink:title=" ">
<path fill="none" stroke="#63b8ff" d="M775.8,-111.68C701.33,-100.69 556.73,-79.34 493.66,-70.03"/>
<polygon fill="#63b8ff" stroke="#63b8ff" points="493.96,-66.53 483.56,-68.54 492.94,-73.46 493.96,-66.53"/>
</a>
</g>
</g>
<!-- Node12 -->
<g id="Node000012" class="node">
<title>Node12</title>
<g id="a_Node000012"><a xlink:title=" ">
<polygon fill="#e0e0e0" stroke="#999999" points="792.5,-74 737.5,-74 737.5,-55 792.5,-55 792.5,-74"/>
<text text-anchor="middle" x="765" y="-62" font-family="Helvetica,sans-Serif" font-size="10.00">QPointF</text>
</a>
</g>
</g>
<!-- Node5&#45;&gt;Node12 -->
<g id="edge12_Node000005_Node000012" class="edge">
<title>Node5&#45;&gt;Node12</title>
<g id="a_edge12_Node000005_Node000012"><a xlink:title=" ">
<path fill="none" stroke="#63b8ff" d="M812.84,-109.98C804.5,-102.23 791.97,-90.58 781.82,-81.14"/>
<polygon fill="#63b8ff" stroke="#63b8ff" points="784.03,-78.42 774.32,-74.17 779.26,-83.54 784.03,-78.42"/>
</a>
</g>
</g>
<!-- Node7 -->
<g id="Node000007" class="node">
<title>Node7</title>
<g id="a_Node000007"><a xlink:title=" ">
<polygon fill="#e0e0e0" stroke="#999999" points="1016.5,-19 943.5,-19 943.5,0 1016.5,0 1016.5,-19"/>
<text text-anchor="middle" x="980" y="-7" font-family="Helvetica,sans-Serif" font-size="10.00">QByteArray</text>
</a>
</g>
</g>
<!-- Node6&#45;&gt;Node7 -->
<g id="edge6_Node000006_Node000007" class="edge">
<title>Node6&#45;&gt;Node7</title>
<g id="a_edge6_Node000006_Node000007"><a xlink:title=" ">
<path fill="none" stroke="#63b8ff" d="M972.49,-54.75C973.67,-47.8 975.36,-37.85 976.84,-29.13"/>
<polygon fill="#63b8ff" stroke="#63b8ff" points="980.32,-29.53 978.54,-19.09 973.42,-28.36 980.32,-29.53"/>
</a>
</g>
</g>
<!-- Node6&#45;&gt;Node8 -->
<g id="edge7_Node000006_Node000008" class="edge">
<title>Node6&#45;&gt;Node8</title>
<g id="a_edge7_Node000006_Node000008"><a xlink:title=" ">
<path fill="none" stroke="#63b8ff" d="M957.5,-54.98C944.6,-46.84 924.9,-34.41 909.6,-24.76"/>
<polygon fill="#63b8ff" stroke="#63b8ff" points="911.07,-21.55 900.74,-19.17 907.33,-27.47 911.07,-21.55"/>
</a>
</g>
</g>
<!-- Node6&#45;&gt;Node9 -->
<g id="edge8_Node000006_Node000009" class="edge">
<title>Node6&#45;&gt;Node9</title>
<g id="a_edge8_Node000006_Node000009"><a xlink:title=" ">
<path fill="none" stroke="#63b8ff" d="M924.57,-58.66C824.56,-48.22 590.49,-23.8 499.8,-14.34"/>
<polygon fill="#63b8ff" stroke="#63b8ff" points="500.03,-10.84 489.72,-13.29 499.31,-17.81 500.03,-10.84"/>
</a>
</g>
</g>
<!-- Node13&#45;&gt;Node8 -->
<g id="edge17_Node000013_Node000008" class="edge">
<title>Node13&#45;&gt;Node8</title>
<g id="a_edge17_Node000013_Node000008"><a xlink:title=" ">
<path fill="none" stroke="#63b8ff" d="M632.72,-109.84C629.74,-96.29 626.35,-70.09 640,-55 665.9,-26.39 774.22,-16.06 838.5,-12.42"/>
<polygon fill="#63b8ff" stroke="#63b8ff" points="839,-15.9 848.8,-11.87 838.63,-8.91 839,-15.9"/>
</a>
</g>
</g>
<!-- Node13&#45;&gt;Node9 -->
<g id="edge21_Node000013_Node000009" class="edge">
<title>Node13&#45;&gt;Node9</title>
<g id="a_edge21_Node000013_Node000009"><a xlink:title=" ">
<path fill="none" stroke="#63b8ff" d="M608.09,-109.9C586.3,-102.27 555.35,-89.87 531,-74 510.41,-60.58 490.28,-40.68 477.33,-26.75"/>
<polygon fill="#63b8ff" stroke="#63b8ff" points="479.9,-24.37 470.59,-19.33 474.72,-29.08 479.9,-24.37"/>
</a>
</g>
</g>
<!-- Node13&#45;&gt;Node10 -->
<g id="edge16_Node000013_Node000010" class="edge">
<title>Node13&#45;&gt;Node10</title>
<g id="a_edge16_Node000013_Node000010"><a xlink:title=" ">
<path fill="none" stroke="#63b8ff" d="M643.09,-109.75C650.16,-102.11 660.59,-90.82 669.15,-81.56"/>
<polygon fill="#63b8ff" stroke="#63b8ff" points="671.84,-83.81 676.06,-74.09 666.7,-79.06 671.84,-83.81"/>
</a>
</g>
</g>
<!-- Node13&#45;&gt;Node11 -->
<g id="edge18_Node000013_Node000011" class="edge">
<title>Node13&#45;&gt;Node11</title>
<g id="a_edge18_Node000013_Node000011"><a xlink:title=" ">
<path fill="none" stroke="#63b8ff" d="M607.37,-109.98C576.17,-100.37 525.59,-84.79 493.33,-74.85"/>
<polygon fill="#63b8ff" stroke="#63b8ff" points="494.14,-71.43 483.55,-71.83 492.08,-78.12 494.14,-71.43"/>
</a>
</g>
</g>
<!-- Node13&#45;&gt;Node12 -->
<g id="edge19_Node000013_Node000012" class="edge">
<title>Node13&#45;&gt;Node12</title>
<g id="a_edge19_Node000013_Node000012"><a xlink:title=" ">
<path fill="none" stroke="#63b8ff" d="M655.89,-109.98C677.08,-101.34 710.13,-87.87 734.3,-78.02"/>
<polygon fill="#63b8ff" stroke="#63b8ff" points="735.79,-81.19 743.73,-74.17 733.15,-74.7 735.79,-81.19"/>
</a>
</g>
</g>
<!-- Node14 -->
<g id="Node000014" class="node">
<title>Node14</title>
<g id="a_Node000014"><a xlink:title=" ">
<polygon fill="#e0e0e0" stroke="#999999" points="592,-74 540,-74 540,-55 592,-55 592,-74"/>
<text text-anchor="middle" x="566" y="-62" font-family="Helvetica,sans-Serif" font-size="10.00">QRectF</text>
</a>
</g>
</g>
<!-- Node13&#45;&gt;Node14 -->
<g id="edge20_Node000013_Node000014" class="edge">
<title>Node13&#45;&gt;Node14</title>
<g id="a_edge20_Node000013_Node000014"><a xlink:title=" ">
<path fill="none" stroke="#63b8ff" d="M623.91,-109.98C613.51,-102 597.74,-89.88 585.28,-80.31"/>
<polygon fill="#63b8ff" stroke="#63b8ff" points="587.35,-77.49 577.29,-74.17 583.09,-83.04 587.35,-77.49"/>
</a>
</g>
</g>
</g>
</svg>
