<?xml version="1.0" encoding="UTF-8" standalone="no"?>
<!DOCTYPE svg PUBLIC "-//W3C//DTD SVG 1.1//EN"
 "http://www.w3.org/Graphics/SVG/1.1/DTD/svg11.dtd">
<!-- Generated by graphviz version 2.43.0 (0)
 -->
<!-- Title: services/export/PreviewImagesExportStage.h Pages: 1 -->
<svg width="328pt" height="104pt"
 viewBox="0.00 0.00 327.50 104.00" xmlns="http://www.w3.org/2000/svg" xmlns:xlink="http://www.w3.org/1999/xlink">
<g id="graph0" class="graph" transform="scale(1 1) rotate(0) translate(4 100)">
<title>services/export/PreviewImagesExportStage.h</title>
<!-- Node1 -->
<g id="Node000001" class="node">
<title>Node1</title>
<g id="a_Node000001"><a xlink:title=" ">
<polygon fill="#999999" stroke="#666666" points="234.5,-96 64.5,-96 64.5,-66 234.5,-66 234.5,-96"/>
<text text-anchor="start" x="72.5" y="-84" font-family="Helvetica,sans-Serif" font-size="10.00">services/export/PreviewImages</text>
<text text-anchor="middle" x="149.5" y="-73" font-family="Helvetica,sans-Serif" font-size="10.00">ExportStage.h</text>
</a>
</g>
</g>
<!-- Node2 -->
<g id="Node000002" class="node">
<title>Node2</title>
<g id="a_Node000002"><a xlink:href="ParallelExportService_8cpp.html" target="_top" xlink:title=" ">
<polygon fill="white" stroke="#666666" points="131,-30 0,-30 0,0 131,0 131,-30"/>
<text text-anchor="start" x="8" y="-18" font-family="Helvetica,sans-Serif" font-size="10.00">services/export/Parallel</text>
<text text-anchor="middle" x="65.5" y="-7" font-family="Helvetica,sans-Serif" font-size="10.00">ExportService.cpp</text>
</a>
</g>
</g>
<!-- Node1&#45;&gt;Node2 -->
<g id="edge1_Node000001_Node000002" class="edge">
<title>Node1&#45;&gt;Node2</title>
<g id="a_edge1_Node000001_Node000002"><a xlink:title=" ">
<path fill="none" stroke="#63b8ff" d="M122.56,-59.48C110.01,-49.91 95.39,-38.77 84.09,-30.16"/>
<polygon fill="#63b8ff" stroke="#63b8ff" points="120.78,-62.52 130.86,-65.8 125.02,-56.95 120.78,-62.52"/>
</a>
</g>
</g>
<!-- Node3 -->
<g id="Node000003" class="node">
<title>Node3</title>
<g id="a_Node000003"><a xlink:href="PreviewImagesExportStage_8cpp.html" target="_top" xlink:title=" ">
<polygon fill="white" stroke="#666666" points="319.5,-30 149.5,-30 149.5,0 319.5,0 319.5,-30"/>
<text text-anchor="start" x="157.5" y="-18" font-family="Helvetica,sans-Serif" font-size="10.00">services/export/PreviewImages</text>
<text text-anchor="middle" x="234.5" y="-7" font-family="Helvetica,sans-Serif" font-size="10.00">ExportStage.cpp</text>
</a>
</g>
</g>
<!-- Node1&#45;&gt;Node3 -->
<g id="edge2_Node000001_Node000003" class="edge">
<title>Node1&#45;&gt;Node3</title>
<g id="a_edge2_Node000001_Node000003"><a xlink:title=" ">
<path fill="none" stroke="#63b8ff" d="M176.39,-59.75C189.17,-50.13 204.14,-38.86 215.69,-30.16"/>
<polygon fill="#63b8ff" stroke="#63b8ff" points="174.25,-56.99 168.36,-65.8 178.46,-62.58 174.25,-56.99"/>
</a>
</g>
</g>
</g>
</svg>
