<?xml version="1.0" encoding="UTF-8" standalone="no"?>
<!DOCTYPE svg PUBLIC "-//W3C//DTD SVG 1.1//EN"
 "http://www.w3.org/Graphics/SVG/1.1/DTD/svg11.dtd">
<!-- Generated by graphviz version 2.43.0 (0)
 -->
<!-- Title: services/export/PreviewImagesExportStage.cpp Pages: 1 -->
<svg width="1982pt" height="258pt"
 viewBox="0.00 0.00 1981.85 258.00" xmlns="http://www.w3.org/2000/svg" xmlns:xlink="http://www.w3.org/1999/xlink">
<g id="graph0" class="graph" transform="scale(1 1) rotate(0) translate(4 254)">
<title>services/export/PreviewImagesExportStage.cpp</title>
<!-- Node1 -->
<g id="Node000001" class="node">
<title>Node1</title>
<g id="a_Node000001"><a xlink:title=" ">
<polygon fill="#999999" stroke="#666666" points="1275,-250 1105,-250 1105,-220 1275,-220 1275,-250"/>
<text text-anchor="start" x="1113" y="-238" font-family="Helvetica,sans-Serif" font-size="10.00">services/export/PreviewImages</text>
<text text-anchor="middle" x="1190" y="-227" font-family="Helvetica,sans-Serif" font-size="10.00">ExportStage.cpp</text>
</a>
</g>
</g>
<!-- Node2 -->
<g id="Node000002" class="node">
<title>Node2</title>
<g id="a_Node000002"><a xlink:href="PreviewImagesExportStage_8h.html" target="_top" xlink:title=" ">
<polygon fill="white" stroke="#666666" points="733,-184 573,-184 573,-165 733,-165 733,-184"/>
<text text-anchor="middle" x="653" y="-172" font-family="Helvetica,sans-Serif" font-size="10.00">PreviewImagesExportStage.h</text>
</a>
</g>
</g>
<!-- Node1&#45;&gt;Node2 -->
<g id="edge1_Node000001_Node000002" class="edge">
<title>Node1&#45;&gt;Node2</title>
<g id="a_edge1_Node000001_Node000002"><a xlink:title=" ">
<path fill="none" stroke="#63b8ff" d="M1104.91,-224.73C1005.55,-213.91 842.01,-196.09 741.3,-185.12"/>
<polygon fill="#63b8ff" stroke="#63b8ff" points="741.47,-181.62 731.15,-184.01 740.71,-188.58 741.47,-181.62"/>
</a>
</g>
</g>
<!-- Node19 -->
<g id="Node000019" class="node">
<title>Node19</title>
<g id="a_Node000019"><a xlink:title=" ">
<polygon fill="#e0e0e0" stroke="#999999" points="955,-74 917,-74 917,-55 955,-55 955,-74"/>
<text text-anchor="middle" x="936" y="-62" font-family="Helvetica,sans-Serif" font-size="10.00">QDir</text>
</a>
</g>
</g>
<!-- Node1&#45;&gt;Node19 -->
<g id="edge64_Node000001_Node000019" class="edge">
<title>Node1&#45;&gt;Node19</title>
<g id="a_edge64_Node000001_Node000019"><a xlink:title=" ">
<path fill="none" stroke="#63b8ff" d="M1168.78,-219.92C1120.95,-188.19 1005.18,-111.39 957.28,-79.62"/>
<polygon fill="#63b8ff" stroke="#63b8ff" points="959.18,-76.67 948.91,-74.06 955.31,-82.51 959.18,-76.67"/>
</a>
</g>
</g>
<!-- Node20 -->
<g id="Node000020" class="node">
<title>Node20</title>
<g id="a_Node000020"><a xlink:title=" ">
<polygon fill="#e0e0e0" stroke="#999999" points="1143,-74 1083,-74 1083,-55 1143,-55 1143,-74"/>
<text text-anchor="middle" x="1113" y="-62" font-family="Helvetica,sans-Serif" font-size="10.00">QFileInfo</text>
</a>
</g>
</g>
<!-- Node1&#45;&gt;Node20 -->
<g id="edge65_Node000001_Node000020" class="edge">
<title>Node1&#45;&gt;Node20</title>
<g id="a_edge65_Node000001_Node000020"><a xlink:title=" ">
<path fill="none" stroke="#63b8ff" d="M1171.13,-219.79C1148.74,-201.61 1112.59,-167.79 1098,-129 1092.4,-114.11 1097.46,-96.44 1103.17,-83.53"/>
<polygon fill="#63b8ff" stroke="#63b8ff" points="1106.42,-84.85 1107.69,-74.34 1100.14,-81.76 1106.42,-84.85"/>
</a>
</g>
</g>
<!-- Node22 -->
<g id="Node000022" class="node">
<title>Node22</title>
<g id="a_Node000022"><a xlink:href="PreviewImagesExportWorker_8h.html" target="_top" xlink:title=" ">
<polygon fill="white" stroke="#666666" points="1272.5,-129 1107.5,-129 1107.5,-110 1272.5,-110 1272.5,-129"/>
<text text-anchor="middle" x="1190" y="-117" font-family="Helvetica,sans-Serif" font-size="10.00">PreviewImagesExportWorker.h</text>
</a>
</g>
</g>
<!-- Node1&#45;&gt;Node22 -->
<g id="edge28_Node000001_Node000022" class="edge">
<title>Node1&#45;&gt;Node22</title>
<g id="a_edge28_Node000001_Node000022"><a xlink:title=" ">
<path fill="none" stroke="#63b8ff" d="M1190,-219.63C1190,-199.21 1190,-161.81 1190,-139.24"/>
<polygon fill="#63b8ff" stroke="#63b8ff" points="1193.5,-139.23 1190,-129.23 1186.5,-139.23 1193.5,-139.23"/>
</a>
</g>
</g>
<!-- Node25 -->
<g id="Node000025" class="node">
<title>Node25</title>
<g id="a_Node000025"><a xlink:href="ComponentData_8h.html" target="_top" xlink:title=" ">
<polygon fill="white" stroke="#666666" points="1504,-184 1360,-184 1360,-165 1504,-165 1504,-184"/>
<text text-anchor="middle" x="1432" y="-172" font-family="Helvetica,sans-Serif" font-size="10.00">models/ComponentData.h</text>
</a>
</g>
</g>
<!-- Node1&#45;&gt;Node25 -->
<g id="edge40_Node000001_Node000025" class="edge">
<title>Node1&#45;&gt;Node25</title>
<g id="a_edge40_Node000001_Node000025"><a xlink:title=" ">
<path fill="none" stroke="#63b8ff" d="M1247.97,-219.99C1290.54,-209.7 1347.57,-195.91 1386.8,-186.43"/>
<polygon fill="#63b8ff" stroke="#63b8ff" points="1387.72,-189.81 1396.62,-184.05 1386.07,-183 1387.72,-189.81"/>
</a>
</g>
</g>
<!-- Node35 -->
<g id="Node000035" class="node">
<title>Node35</title>
<g id="a_Node000035"><a xlink:title=" ">
<polygon fill="#e0e0e0" stroke="#999999" points="1578,-184 1522,-184 1522,-165 1578,-165 1578,-184"/>
<text text-anchor="middle" x="1550" y="-172" font-family="Helvetica,sans-Serif" font-size="10.00">QDebug</text>
</a>
</g>
</g>
<!-- Node1&#45;&gt;Node35 -->
<g id="edge63_Node000001_Node000035" class="edge">
<title>Node1&#45;&gt;Node35</title>
<g id="a_edge63_Node000001_Node000035"><a xlink:title=" ">
<path fill="none" stroke="#63b8ff" d="M1275.3,-222.51C1338.16,-213.64 1425.95,-200.43 1511.84,-184.11"/>
<polygon fill="#63b8ff" stroke="#63b8ff" points="1512.6,-187.53 1521.76,-182.21 1511.28,-180.65 1512.6,-187.53"/>
</a>
</g>
</g>
<!-- Node36 -->
<g id="Node000036" class="node">
<title>Node36</title>
<g id="a_Node000036"><a xlink:title=" ">
<polygon fill="#e0e0e0" stroke="#999999" points="1655.5,-184 1596.5,-184 1596.5,-165 1655.5,-165 1655.5,-184"/>
<text text-anchor="middle" x="1626" y="-172" font-family="Helvetica,sans-Serif" font-size="10.00">QPointer</text>
</a>
</g>
</g>
<!-- Node1&#45;&gt;Node36 -->
<g id="edge66_Node000001_Node000036" class="edge">
<title>Node1&#45;&gt;Node36</title>
<g id="a_edge66_Node000001_Node000036"><a xlink:title=" ">
<path fill="none" stroke="#63b8ff" d="M1275.13,-225.5C1353.45,-217.17 1473.02,-203.18 1586.35,-183.97"/>
<polygon fill="#63b8ff" stroke="#63b8ff" points="1586.98,-187.41 1596.24,-182.27 1585.8,-180.51 1586.98,-187.41"/>
</a>
</g>
</g>
<!-- Node3 -->
<g id="Node000003" class="node">
<title>Node3</title>
<g id="a_Node000003"><a xlink:href="ExportProgress_8h.html" target="_top" xlink:title=" ">
<polygon fill="white" stroke="#666666" points="396.5,-74 297.5,-74 297.5,-55 396.5,-55 396.5,-74"/>
<text text-anchor="middle" x="347" y="-62" font-family="Helvetica,sans-Serif" font-size="10.00">ExportProgress.h</text>
</a>
</g>
</g>
<!-- Node2&#45;&gt;Node3 -->
<g id="edge2_Node000002_Node000003" class="edge">
<title>Node2&#45;&gt;Node3</title>
<g id="a_edge2_Node000002_Node000003"><a xlink:title=" ">
<path fill="none" stroke="#63b8ff" d="M574.07,-164.96C532.38,-158.54 481.06,-147.55 438,-129 410.02,-116.95 381.89,-95.56 364.47,-80.96"/>
<polygon fill="#63b8ff" stroke="#63b8ff" points="366.69,-78.26 356.82,-74.42 362.14,-83.58 366.69,-78.26"/>
</a>
</g>
</g>
<!-- Node8 -->
<g id="Node000008" class="node">
<title>Node8</title>
<g id="a_Node000008"><a xlink:href="ExportTypeStage_8h.html" target="_top" xlink:title=" ">
<polygon fill="white" stroke="#666666" points="554.5,-129 447.5,-129 447.5,-110 554.5,-110 554.5,-129"/>
<text text-anchor="middle" x="501" y="-117" font-family="Helvetica,sans-Serif" font-size="10.00">ExportTypeStage.h</text>
</a>
</g>
</g>
<!-- Node2&#45;&gt;Node8 -->
<g id="edge7_Node000002_Node000008" class="edge">
<title>Node2&#45;&gt;Node8</title>
<g id="a_edge7_Node000002_Node000008"><a xlink:title=" ">
<path fill="none" stroke="#63b8ff" d="M628.58,-164.98C603.28,-156.16 563.55,-142.31 535.14,-132.41"/>
<polygon fill="#63b8ff" stroke="#63b8ff" points="536.21,-129.07 525.61,-129.08 533.9,-135.68 536.21,-129.07"/>
</a>
</g>
</g>
<!-- Node18 -->
<g id="Node000018" class="node">
<title>Node18</title>
<g id="a_Node000018"><a xlink:href="TempFileManager_8h.html" target="_top" xlink:title=" ">
<polygon fill="white" stroke="#666666" points="860.5,-129 749.5,-129 749.5,-110 860.5,-110 860.5,-129"/>
<text text-anchor="middle" x="805" y="-117" font-family="Helvetica,sans-Serif" font-size="10.00">TempFileManager.h</text>
</a>
</g>
</g>
<!-- Node2&#45;&gt;Node18 -->
<g id="edge20_Node000002_Node000018" class="edge">
<title>Node2&#45;&gt;Node18</title>
<g id="a_edge20_Node000002_Node000018"><a xlink:title=" ">
<path fill="none" stroke="#63b8ff" d="M677.42,-164.98C702.72,-156.16 742.45,-142.31 770.86,-132.41"/>
<polygon fill="#63b8ff" stroke="#63b8ff" points="772.1,-135.68 780.39,-129.08 769.79,-129.07 772.1,-135.68"/>
</a>
</g>
</g>
<!-- Node4 -->
<g id="Node000004" class="node">
<title>Node4</title>
<g id="a_Node000004"><a xlink:title=" ">
<polygon fill="#e0e0e0" stroke="#999999" points="338,-19 266,-19 266,0 338,0 338,-19"/>
<text text-anchor="middle" x="302" y="-7" font-family="Helvetica,sans-Serif" font-size="10.00">QDateTime</text>
</a>
</g>
</g>
<!-- Node3&#45;&gt;Node4 -->
<g id="edge3_Node000003_Node000004" class="edge">
<title>Node3&#45;&gt;Node4</title>
<g id="a_edge3_Node000003_Node000004"><a xlink:title=" ">
<path fill="none" stroke="#63b8ff" d="M339.57,-54.75C333.15,-47.18 323.69,-36.05 315.88,-26.84"/>
<polygon fill="#63b8ff" stroke="#63b8ff" points="318.43,-24.45 309.29,-19.09 313.1,-28.98 318.43,-24.45"/>
</a>
</g>
</g>
<!-- Node5 -->
<g id="Node000005" class="node">
<title>Node5</title>
<g id="a_Node000005"><a xlink:title=" ">
<polygon fill="#e0e0e0" stroke="#999999" points="206.5,-19 161.5,-19 161.5,0 206.5,0 206.5,-19"/>
<text text-anchor="middle" x="184" y="-7" font-family="Helvetica,sans-Serif" font-size="10.00">QMap</text>
</a>
</g>
</g>
<!-- Node3&#45;&gt;Node5 -->
<g id="edge4_Node000003_Node000005" class="edge">
<title>Node3&#45;&gt;Node5</title>
<g id="a_edge4_Node000003_Node000005"><a xlink:title=" ">
<path fill="none" stroke="#63b8ff" d="M320.81,-54.98C292.43,-45.76 247.11,-31.02 216.48,-21.06"/>
<polygon fill="#63b8ff" stroke="#63b8ff" points="217.3,-17.65 206.71,-17.88 215.13,-24.3 217.3,-17.65"/>
</a>
</g>
</g>
<!-- Node6 -->
<g id="Node000006" class="node">
<title>Node6</title>
<g id="a_Node000006"><a xlink:title=" ">
<polygon fill="#e0e0e0" stroke="#999999" points="427.5,-19 356.5,-19 356.5,0 427.5,0 427.5,-19"/>
<text text-anchor="middle" x="392" y="-7" font-family="Helvetica,sans-Serif" font-size="10.00">QMetaType</text>
</a>
</g>
</g>
<!-- Node3&#45;&gt;Node6 -->
<g id="edge5_Node000003_Node000006" class="edge">
<title>Node3&#45;&gt;Node6</title>
<g id="a_edge5_Node000003_Node000006"><a xlink:title=" ">
<path fill="none" stroke="#63b8ff" d="M354.43,-54.75C360.85,-47.18 370.31,-36.05 378.12,-26.84"/>
<polygon fill="#63b8ff" stroke="#63b8ff" points="380.9,-28.98 384.71,-19.09 375.57,-24.45 380.9,-28.98"/>
</a>
</g>
</g>
<!-- Node7 -->
<g id="Node000007" class="node">
<title>Node7</title>
<g id="a_Node000007"><a xlink:title=" ">
<polygon fill="#e0e0e0" stroke="#999999" points="1385.5,-19 1332.5,-19 1332.5,0 1385.5,0 1385.5,-19"/>
<text text-anchor="middle" x="1359" y="-7" font-family="Helvetica,sans-Serif" font-size="10.00">QString</text>
</a>
</g>
</g>
<!-- Node3&#45;&gt;Node7 -->
<g id="edge6_Node000003_Node000007" class="edge">
<title>Node3&#45;&gt;Node7</title>
<g id="a_edge6_Node000003_Node000007"><a xlink:title=" ">
<path fill="none" stroke="#63b8ff" d="M396.53,-55.99C399.73,-55.62 402.91,-55.29 406,-55 796.67,-18.98 896.93,-50.34 1288,-19 1299.16,-18.11 1311.27,-16.79 1322.27,-15.45"/>
<polygon fill="#63b8ff" stroke="#63b8ff" points="1322.93,-18.9 1332.41,-14.18 1322.06,-11.95 1322.93,-18.9"/>
</a>
</g>
</g>
<!-- Node8&#45;&gt;Node3 -->
<g id="edge8_Node000008_Node000003" class="edge">
<title>Node8&#45;&gt;Node3</title>
<g id="a_edge8_Node000008_Node000003"><a xlink:title=" ">
<path fill="none" stroke="#63b8ff" d="M476.26,-109.98C450.63,-101.16 410.37,-87.31 381.59,-77.41"/>
<polygon fill="#63b8ff" stroke="#63b8ff" points="382.53,-74.03 371.94,-74.08 380.25,-80.65 382.53,-74.03"/>
</a>
</g>
</g>
<!-- Node8&#45;&gt;Node5 -->
<g id="edge9_Node000008_Node000005" class="edge">
<title>Node8&#45;&gt;Node5</title>
<g id="a_edge9_Node000008_Node000005"><a xlink:title=" ">
<path fill="none" stroke="#63b8ff" d="M447.37,-116.17C346.93,-111.26 138.6,-98.24 117,-74 100.36,-55.32 128.91,-35.82 153.73,-23.44"/>
<polygon fill="#63b8ff" stroke="#63b8ff" points="155.43,-26.51 162.96,-19.06 152.43,-20.18 155.43,-26.51"/>
</a>
</g>
</g>
<!-- Node8&#45;&gt;Node7 -->
<g id="edge15_Node000008_Node000007" class="edge">
<title>Node8&#45;&gt;Node7</title>
<g id="a_edge15_Node000008_Node000007"><a xlink:title=" ">
<path fill="none" stroke="#63b8ff" d="M505.61,-109.97C513.9,-95.61 532.85,-66.97 558,-55 631.33,-20.1 1207.08,-25.83 1288,-19 1299.16,-18.06 1311.26,-16.73 1322.27,-15.39"/>
<polygon fill="#63b8ff" stroke="#63b8ff" points="1322.92,-18.84 1332.41,-14.13 1322.05,-11.89 1322.92,-18.84"/>
</a>
</g>
</g>
<!-- Node9 -->
<g id="Node000009" class="node">
<title>Node9</title>
<g id="a_Node000009"><a xlink:title=" ">
<polygon fill="#e0e0e0" stroke="#999999" points="622.5,-74 567.5,-74 567.5,-55 622.5,-55 622.5,-74"/>
<text text-anchor="middle" x="595" y="-62" font-family="Helvetica,sans-Serif" font-size="10.00">QMutex</text>
</a>
</g>
</g>
<!-- Node8&#45;&gt;Node9 -->
<g id="edge10_Node000008_Node000009" class="edge">
<title>Node8&#45;&gt;Node9</title>
<g id="a_edge10_Node000008_Node000009"><a xlink:title=" ">
<path fill="none" stroke="#63b8ff" d="M516.1,-109.98C530.82,-101.69 553.42,-88.94 570.67,-79.22"/>
<polygon fill="#63b8ff" stroke="#63b8ff" points="572.63,-82.13 579.62,-74.17 569.19,-76.03 572.63,-82.13"/>
</a>
</g>
</g>
<!-- Node10 -->
<g id="Node000010" class="node">
<title>Node10</title>
<g id="a_Node000010"><a xlink:title=" ">
<polygon fill="#e0e0e0" stroke="#999999" points="980,-19 924,-19 924,0 980,0 980,-19"/>
<text text-anchor="middle" x="952" y="-7" font-family="Helvetica,sans-Serif" font-size="10.00">QObject</text>
</a>
</g>
</g>
<!-- Node8&#45;&gt;Node10 -->
<g id="edge11_Node000008_Node000010" class="edge">
<title>Node8&#45;&gt;Node10</title>
<g id="a_edge11_Node000008_Node000010"><a xlink:title=" ">
<path fill="none" stroke="#63b8ff" d="M501.51,-109.85C502.84,-95.84 507.64,-68.38 525,-55 555.47,-31.51 814.56,-16.96 913.66,-12.21"/>
<polygon fill="#63b8ff" stroke="#63b8ff" points="914.02,-15.7 923.84,-11.73 913.69,-8.71 914.02,-15.7"/>
</a>
</g>
</g>
<!-- Node11 -->
<g id="Node000011" class="node">
<title>Node11</title>
<g id="a_Node000011"><a xlink:title=" ">
<polygon fill="#e0e0e0" stroke="#999999" points="279,-74 223,-74 223,-55 279,-55 279,-74"/>
<text text-anchor="middle" x="251" y="-62" font-family="Helvetica,sans-Serif" font-size="10.00">QQueue</text>
</a>
</g>
</g>
<!-- Node8&#45;&gt;Node11 -->
<g id="edge12_Node000008_Node000011" class="edge">
<title>Node8&#45;&gt;Node11</title>
<g id="a_edge12_Node000008_Node000011"><a xlink:title=" ">
<path fill="none" stroke="#63b8ff" d="M458.92,-109.96C418.01,-101.61 353.87,-88.36 289.23,-74.24"/>
<polygon fill="#63b8ff" stroke="#63b8ff" points="289.79,-70.78 279.27,-72.05 288.29,-77.61 289.79,-70.78"/>
</a>
</g>
</g>
<!-- Node12 -->
<g id="Node000012" class="node">
<title>Node12</title>
<g id="a_Node000012"><a xlink:title=" ">
<polygon fill="#e0e0e0" stroke="#999999" points="681,-74 641,-74 641,-55 681,-55 681,-74"/>
<text text-anchor="middle" x="661" y="-62" font-family="Helvetica,sans-Serif" font-size="10.00">QSet</text>
</a>
</g>
</g>
<!-- Node8&#45;&gt;Node12 -->
<g id="edge13_Node000008_Node000012" class="edge">
<title>Node8&#45;&gt;Node12</title>
<g id="a_edge13_Node000008_Node000012"><a xlink:title=" ">
<path fill="none" stroke="#63b8ff" d="M526.71,-109.98C555.28,-100.52 601.34,-85.26 631.4,-75.31"/>
<polygon fill="#63b8ff" stroke="#63b8ff" points="632.54,-78.62 640.93,-72.15 630.33,-71.97 632.54,-78.62"/>
</a>
</g>
</g>
<!-- Node13 -->
<g id="Node000013" class="node">
<title>Node13</title>
<g id="a_Node000013"><a xlink:title=" ">
<polygon fill="#e0e0e0" stroke="#999999" points="1065,-74 973,-74 973,-55 1065,-55 1065,-74"/>
<text text-anchor="middle" x="1019" y="-62" font-family="Helvetica,sans-Serif" font-size="10.00">QSharedPointer</text>
</a>
</g>
</g>
<!-- Node8&#45;&gt;Node13 -->
<g id="edge14_Node000008_Node000013" class="edge">
<title>Node8&#45;&gt;Node13</title>
<g id="a_edge14_Node000008_Node000013"><a xlink:title=" ">
<path fill="none" stroke="#63b8ff" d="M554.58,-114.36C639.08,-107.6 808.68,-93.15 962.69,-74.1"/>
<polygon fill="#63b8ff" stroke="#63b8ff" points="963.32,-77.55 972.81,-72.84 962.46,-70.6 963.32,-77.55"/>
</a>
</g>
</g>
<!-- Node14 -->
<g id="Node000014" class="node">
<title>Node14</title>
<g id="a_Node000014"><a xlink:title=" ">
<polygon fill="#e0e0e0" stroke="#999999" points="70,-74 0,-74 0,-55 70,-55 70,-74"/>
<text text-anchor="middle" x="35" y="-62" font-family="Helvetica,sans-Serif" font-size="10.00">QStringList</text>
</a>
</g>
</g>
<!-- Node8&#45;&gt;Node14 -->
<g id="edge16_Node000008_Node000014" class="edge">
<title>Node8&#45;&gt;Node14</title>
<g id="a_edge16_Node000008_Node000014"><a xlink:title=" ">
<path fill="none" stroke="#63b8ff" d="M447.21,-113.89C367.65,-106.82 213.97,-92.19 84,-74 82.73,-73.82 81.43,-73.64 80.13,-73.44"/>
<polygon fill="#63b8ff" stroke="#63b8ff" points="80.44,-69.95 70.02,-71.86 79.36,-76.86 80.44,-69.95"/>
</a>
</g>
</g>
<!-- Node15 -->
<g id="Node000015" class="node">
<title>Node15</title>
<g id="a_Node000015"><a xlink:title=" ">
<polygon fill="#e0e0e0" stroke="#999999" points="473,-74 415,-74 415,-55 473,-55 473,-74"/>
<text text-anchor="middle" x="444" y="-62" font-family="Helvetica,sans-Serif" font-size="10.00">QThread</text>
</a>
</g>
</g>
<!-- Node8&#45;&gt;Node15 -->
<g id="edge17_Node000008_Node000015" class="edge">
<title>Node8&#45;&gt;Node15</title>
<g id="a_edge17_Node000008_Node000015"><a xlink:title=" ">
<path fill="none" stroke="#63b8ff" d="M491.84,-109.98C483.5,-102.23 470.97,-90.58 460.82,-81.14"/>
<polygon fill="#63b8ff" stroke="#63b8ff" points="463.03,-78.42 453.32,-74.17 458.26,-83.54 463.03,-78.42"/>
</a>
</g>
</g>
<!-- Node16 -->
<g id="Node000016" class="node">
<title>Node16</title>
<g id="a_Node000016"><a xlink:title=" ">
<polygon fill="#e0e0e0" stroke="#999999" points="205.5,-74 126.5,-74 126.5,-55 205.5,-55 205.5,-74"/>
<text text-anchor="middle" x="166" y="-62" font-family="Helvetica,sans-Serif" font-size="10.00">QThreadPool</text>
</a>
</g>
</g>
<!-- Node8&#45;&gt;Node16 -->
<g id="edge18_Node000008_Node000016" class="edge">
<title>Node8&#45;&gt;Node16</title>
<g id="a_edge18_Node000008_Node000016"><a xlink:title=" ">
<path fill="none" stroke="#63b8ff" d="M447.26,-110.52C391.69,-102.19 302.15,-88.54 215.54,-74.23"/>
<polygon fill="#63b8ff" stroke="#63b8ff" points="215.98,-70.75 205.54,-72.57 214.83,-77.66 215.98,-70.75"/>
</a>
</g>
</g>
<!-- Node17 -->
<g id="Node000017" class="node">
<title>Node17</title>
<g id="a_Node000017"><a xlink:title=" ">
<polygon fill="#e0e0e0" stroke="#999999" points="749,-74 699,-74 699,-55 749,-55 749,-74"/>
<text text-anchor="middle" x="724" y="-62" font-family="Helvetica,sans-Serif" font-size="10.00">atomic</text>
</a>
</g>
</g>
<!-- Node8&#45;&gt;Node17 -->
<g id="edge19_Node000008_Node000017" class="edge">
<title>Node8&#45;&gt;Node17</title>
<g id="a_edge19_Node000008_Node000017"><a xlink:title=" ">
<path fill="none" stroke="#63b8ff" d="M537.98,-109.95C574.09,-101.57 630.87,-88.29 689.04,-74.21"/>
<polygon fill="#63b8ff" stroke="#63b8ff" points="689.87,-77.61 698.76,-71.85 688.22,-70.81 689.87,-77.61"/>
</a>
</g>
</g>
<!-- Node18&#45;&gt;Node7 -->
<g id="edge26_Node000018_Node000007" class="edge">
<title>Node18&#45;&gt;Node7</title>
<g id="a_edge26_Node000018_Node000007"><a xlink:title=" ">
<path fill="none" stroke="#63b8ff" d="M817.51,-109.78C840.5,-93.92 888.88,-61.41 908,-55 1068.85,-1.08 1119.32,-37.08 1288,-19 1299.13,-17.81 1311.23,-16.4 1322.24,-15.08"/>
<polygon fill="#63b8ff" stroke="#63b8ff" points="1322.88,-18.52 1332.38,-13.84 1322.03,-11.58 1322.88,-18.52"/>
</a>
</g>
</g>
<!-- Node18&#45;&gt;Node9 -->
<g id="edge23_Node000018_Node000009" class="edge">
<title>Node18&#45;&gt;Node9</title>
<g id="a_edge23_Node000018_Node000009"><a xlink:title=" ">
<path fill="none" stroke="#63b8ff" d="M771.26,-109.98C733.29,-100.4 671.78,-84.88 632.38,-74.93"/>
<polygon fill="#63b8ff" stroke="#63b8ff" points="633.17,-71.52 622.62,-72.47 631.46,-78.31 633.17,-71.52"/>
</a>
</g>
</g>
<!-- Node18&#45;&gt;Node10 -->
<g id="edge24_Node000018_Node000010" class="edge">
<title>Node18&#45;&gt;Node10</title>
<g id="a_edge24_Node000018_Node000010"><a xlink:title=" ">
<path fill="none" stroke="#63b8ff" d="M800.12,-109.7C793.49,-96.45 783.79,-71.18 796,-55 810.19,-36.19 872.47,-22.96 913.92,-16.05"/>
<polygon fill="#63b8ff" stroke="#63b8ff" points="914.65,-19.48 923.97,-14.43 913.54,-12.57 914.65,-19.48"/>
</a>
</g>
</g>
<!-- Node18&#45;&gt;Node12 -->
<g id="edge25_Node000018_Node000012" class="edge">
<title>Node18&#45;&gt;Node12</title>
<g id="a_edge25_Node000018_Node000012"><a xlink:title=" ">
<path fill="none" stroke="#63b8ff" d="M781.86,-109.98C757.19,-100.9 718.02,-86.49 690.99,-76.54"/>
<polygon fill="#63b8ff" stroke="#63b8ff" points="691.88,-73.14 681.29,-72.97 689.46,-79.71 691.88,-73.14"/>
</a>
</g>
</g>
<!-- Node18&#45;&gt;Node19 -->
<g id="edge21_Node000018_Node000019" class="edge">
<title>Node18&#45;&gt;Node19</title>
<g id="a_edge21_Node000018_Node000019"><a xlink:title=" ">
<path fill="none" stroke="#63b8ff" d="M826.05,-109.98C848.04,-101.09 882.7,-87.07 907.22,-77.15"/>
<polygon fill="#63b8ff" stroke="#63b8ff" points="908.75,-80.3 916.71,-73.3 906.13,-73.81 908.75,-80.3"/>
</a>
</g>
</g>
<!-- Node18&#45;&gt;Node20 -->
<g id="edge22_Node000018_Node000020" class="edge">
<title>Node18&#45;&gt;Node20</title>
<g id="a_edge22_Node000018_Node000020"><a xlink:title=" ">
<path fill="none" stroke="#63b8ff" d="M860.53,-110.16C912.79,-102.11 993.47,-89.21 1072.65,-74.18"/>
<polygon fill="#63b8ff" stroke="#63b8ff" points="1073.63,-77.56 1082.8,-72.24 1072.32,-70.68 1073.63,-77.56"/>
</a>
</g>
</g>
<!-- Node21 -->
<g id="Node000021" class="node">
<title>Node21</title>
<g id="a_Node000021"><a xlink:title=" ">
<polygon fill="#e0e0e0" stroke="#999999" points="860.5,-74 805.5,-74 805.5,-55 860.5,-55 860.5,-74"/>
<text text-anchor="middle" x="833" y="-62" font-family="Helvetica,sans-Serif" font-size="10.00">QVector</text>
</a>
</g>
</g>
<!-- Node18&#45;&gt;Node21 -->
<g id="edge27_Node000018_Node000021" class="edge">
<title>Node18&#45;&gt;Node21</title>
<g id="a_edge27_Node000018_Node000021"><a xlink:title=" ">
<path fill="none" stroke="#63b8ff" d="M809.62,-109.75C813.46,-102.49 819.02,-91.95 823.76,-82.98"/>
<polygon fill="#63b8ff" stroke="#63b8ff" points="826.89,-84.57 828.46,-74.09 820.7,-81.3 826.89,-84.57"/>
</a>
</g>
</g>
<!-- Node22&#45;&gt;Node3 -->
<g id="edge29_Node000022_Node000003" class="edge">
<title>Node22&#45;&gt;Node3</title>
<g id="a_edge29_Node000022_Node000003"><a xlink:title=" ">
<path fill="none" stroke="#63b8ff" d="M1107.42,-116.16C966.11,-111.64 668.7,-99.86 406.63,-73.96"/>
<polygon fill="#63b8ff" stroke="#63b8ff" points="406.83,-70.46 396.54,-72.95 406.14,-77.43 406.83,-70.46"/>
</a>
</g>
</g>
<!-- Node22&#45;&gt;Node7 -->
<g id="edge38_Node000022_Node000007" class="edge">
<title>Node22&#45;&gt;Node7</title>
<g id="a_edge38_Node000022_Node000007"><a xlink:title=" ">
<path fill="none" stroke="#63b8ff" d="M1269.74,-109.96C1295.03,-103.62 1321.25,-92.71 1340,-74 1351.83,-62.2 1356.35,-43.36 1358.05,-29.26"/>
<polygon fill="#63b8ff" stroke="#63b8ff" points="1361.55,-29.45 1358.89,-19.19 1354.57,-28.87 1361.55,-29.45"/>
</a>
</g>
</g>
<!-- Node22&#45;&gt;Node10 -->
<g id="edge35_Node000022_Node000010" class="edge">
<title>Node22&#45;&gt;Node10</title>
<g id="a_edge35_Node000022_Node000010"><a xlink:title=" ">
<path fill="none" stroke="#63b8ff" d="M1187.38,-109.99C1182.66,-96.17 1171.38,-68.99 1152,-55 1103.91,-20.28 1033.61,-11.91 990.44,-10.3"/>
<polygon fill="#63b8ff" stroke="#63b8ff" points="990.43,-6.79 980.34,-10.02 990.24,-13.79 990.43,-6.79"/>
</a>
</g>
</g>
<!-- Node22&#45;&gt;Node13 -->
<g id="edge37_Node000022_Node000013" class="edge">
<title>Node22&#45;&gt;Node13</title>
<g id="a_edge37_Node000022_Node000013"><a xlink:title=" ">
<path fill="none" stroke="#63b8ff" d="M1162.53,-109.98C1133.82,-101.09 1088.58,-87.07 1056.58,-77.15"/>
<polygon fill="#63b8ff" stroke="#63b8ff" points="1057.28,-73.7 1046.69,-74.08 1055.2,-80.39 1057.28,-73.7"/>
</a>
</g>
</g>
<!-- Node22&#45;&gt;Node17 -->
<g id="edge39_Node000022_Node000017" class="edge">
<title>Node22&#45;&gt;Node17</title>
<g id="a_edge39_Node000022_Node000017"><a xlink:title=" ">
<path fill="none" stroke="#63b8ff" d="M1113.72,-110C1034.34,-101.13 906.44,-86.76 796,-74 784.13,-72.63 771.16,-71.11 759.54,-69.73"/>
<polygon fill="#63b8ff" stroke="#63b8ff" points="759.66,-66.22 749.32,-68.52 758.84,-73.17 759.66,-66.22"/>
</a>
</g>
</g>
<!-- Node22&#45;&gt;Node20 -->
<g id="edge34_Node000022_Node000020" class="edge">
<title>Node22&#45;&gt;Node20</title>
<g id="a_edge34_Node000022_Node000020"><a xlink:title=" ">
<path fill="none" stroke="#63b8ff" d="M1177.63,-109.98C1165.91,-101.92 1148.08,-89.65 1134.11,-80.03"/>
<polygon fill="#63b8ff" stroke="#63b8ff" points="1135.82,-76.96 1125.6,-74.17 1131.85,-82.72 1135.82,-76.96"/>
</a>
</g>
</g>
<!-- Node23 -->
<g id="Node000023" class="node">
<title>Node23</title>
<g id="a_Node000023"><a xlink:href="IExportWorker_8h.html" target="_top" xlink:title=" ">
<polygon fill="white" stroke="#666666" points="1330.5,-74 1237.5,-74 1237.5,-55 1330.5,-55 1330.5,-74"/>
<text text-anchor="middle" x="1284" y="-62" font-family="Helvetica,sans-Serif" font-size="10.00">IExportWorker.h</text>
</a>
</g>
</g>
<!-- Node22&#45;&gt;Node23 -->
<g id="edge30_Node000022_Node000023" class="edge">
<title>Node22&#45;&gt;Node23</title>
<g id="a_edge30_Node000022_Node000023"><a xlink:title=" ">
<path fill="none" stroke="#63b8ff" d="M1205.1,-109.98C1219.82,-101.69 1242.42,-88.94 1259.67,-79.22"/>
<polygon fill="#63b8ff" stroke="#63b8ff" points="1261.63,-82.13 1268.62,-74.17 1258.19,-76.03 1261.63,-82.13"/>
</a>
</g>
</g>
<!-- Node24 -->
<g id="Node000024" class="node">
<title>Node24</title>
<g id="a_Node000024"><a xlink:title=" ">
<polygon fill="#e0e0e0" stroke="#999999" points="1279,-19 1209,-19 1209,0 1279,0 1279,-19"/>
<text text-anchor="middle" x="1244" y="-7" font-family="Helvetica,sans-Serif" font-size="10.00">QRunnable</text>
</a>
</g>
</g>
<!-- Node22&#45;&gt;Node24 -->
<g id="edge36_Node000022_Node000024" class="edge">
<title>Node22&#45;&gt;Node24</title>
<g id="a_edge36_Node000022_Node000024"><a xlink:title=" ">
<path fill="none" stroke="#63b8ff" d="M1194.42,-109.66C1203.28,-91.93 1223.39,-51.73 1235.09,-28.32"/>
<polygon fill="#63b8ff" stroke="#63b8ff" points="1238.33,-29.67 1239.67,-19.16 1232.07,-26.54 1238.33,-29.67"/>
</a>
</g>
</g>
<!-- Node23&#45;&gt;Node7 -->
<g id="edge33_Node000023_Node000007" class="edge">
<title>Node23&#45;&gt;Node7</title>
<g id="a_edge33_Node000023_Node000007"><a xlink:title=" ">
<path fill="none" stroke="#63b8ff" d="M1296.05,-54.98C1307.46,-46.92 1324.83,-34.65 1338.43,-25.03"/>
<polygon fill="#63b8ff" stroke="#63b8ff" points="1340.58,-27.8 1346.73,-19.17 1336.54,-22.08 1340.58,-27.8"/>
</a>
</g>
</g>
<!-- Node23&#45;&gt;Node10 -->
<g id="edge31_Node000023_Node000010" class="edge">
<title>Node23&#45;&gt;Node10</title>
<g id="a_edge31_Node000023_Node000010"><a xlink:title=" ">
<path fill="none" stroke="#63b8ff" d="M1237.49,-56.07C1171.36,-45.52 1051.41,-26.37 990.18,-16.6"/>
<polygon fill="#63b8ff" stroke="#63b8ff" points="990.59,-13.12 980.17,-15 989.49,-20.03 990.59,-13.12"/>
</a>
</g>
</g>
<!-- Node23&#45;&gt;Node24 -->
<g id="edge32_Node000023_Node000024" class="edge">
<title>Node23&#45;&gt;Node24</title>
<g id="a_edge32_Node000023_Node000024"><a xlink:title=" ">
<path fill="none" stroke="#63b8ff" d="M1277.39,-54.75C1271.74,-47.26 1263.46,-36.28 1256.55,-27.13"/>
<polygon fill="#63b8ff" stroke="#63b8ff" points="1259.3,-24.96 1250.48,-19.09 1253.71,-29.18 1259.3,-24.96"/>
</a>
</g>
</g>
<!-- Node25&#45;&gt;Node7 -->
<g id="edge62_Node000025_Node000007" class="edge">
<title>Node25&#45;&gt;Node7</title>
<g id="a_edge62_Node000025_Node000007"><a xlink:title=" ">
<path fill="none" stroke="#63b8ff" d="M1428.08,-164.74C1416.59,-139.09 1382.86,-63.78 1367.19,-28.78"/>
<polygon fill="#63b8ff" stroke="#63b8ff" points="1370.23,-27 1362.94,-19.31 1363.84,-29.86 1370.23,-27"/>
</a>
</g>
</g>
<!-- Node25&#45;&gt;Node13 -->
<g id="edge61_Node000025_Node000013" class="edge">
<title>Node25&#45;&gt;Node13</title>
<g id="a_edge61_Node000025_Node000013"><a xlink:title=" ">
<path fill="none" stroke="#63b8ff" d="M1359.72,-168.44C1276,-161.78 1143.71,-148.58 1098,-129 1072.62,-118.13 1048.66,-96.72 1033.93,-81.78"/>
<polygon fill="#63b8ff" stroke="#63b8ff" points="1036.18,-79.07 1026.74,-74.26 1031.12,-83.9 1036.18,-79.07"/>
</a>
</g>
</g>
<!-- Node26 -->
<g id="Node000026" class="node">
<title>Node26</title>
<g id="a_Node000026"><a xlink:href="FootprintData_8h.html" target="_top" xlink:title=" ">
<polygon fill="white" stroke="#666666" points="1619,-129 1527,-129 1527,-110 1619,-110 1619,-129"/>
<text text-anchor="middle" x="1573" y="-117" font-family="Helvetica,sans-Serif" font-size="10.00">FootprintData.h</text>
</a>
</g>
</g>
<!-- Node25&#45;&gt;Node26 -->
<g id="edge41_Node000025_Node000026" class="edge">
<title>Node25&#45;&gt;Node26</title>
<g id="a_edge41_Node000025_Node000026"><a xlink:title=" ">
<path fill="none" stroke="#63b8ff" d="M1454.65,-164.98C1477.85,-156.27 1514.12,-142.63 1540.4,-132.75"/>
<polygon fill="#63b8ff" stroke="#63b8ff" points="1541.8,-135.97 1549.93,-129.17 1539.34,-129.41 1541.8,-135.97"/>
</a>
</g>
</g>
<!-- Node27 -->
<g id="Node000027" class="node">
<title>Node27</title>
<g id="a_Node000027"><a xlink:href="Model3DData_8h.html" target="_top" xlink:title=" ">
<polygon fill="white" stroke="#666666" points="1555,-74 1463,-74 1463,-55 1555,-55 1555,-74"/>
<text text-anchor="middle" x="1509" y="-62" font-family="Helvetica,sans-Serif" font-size="10.00">Model3DData.h</text>
</a>
</g>
</g>
<!-- Node25&#45;&gt;Node27 -->
<g id="edge51_Node000025_Node000027" class="edge">
<title>Node25&#45;&gt;Node27</title>
<g id="a_edge51_Node000025_Node000027"><a xlink:title=" ">
<path fill="none" stroke="#63b8ff" d="M1438.3,-164.66C1451.11,-146.69 1480.38,-105.64 1496.96,-82.38"/>
<polygon fill="#63b8ff" stroke="#63b8ff" points="1499.87,-84.33 1502.83,-74.16 1494.17,-80.27 1499.87,-84.33"/>
</a>
</g>
</g>
<!-- Node29 -->
<g id="Node000029" class="node">
<title>Node29</title>
<g id="a_Node000029"><a xlink:title=" ">
<polygon fill="#e0e0e0" stroke="#999999" points="1779,-19 1703,-19 1703,0 1779,0 1779,-19"/>
<text text-anchor="middle" x="1741" y="-7" font-family="Helvetica,sans-Serif" font-size="10.00">QJsonObject</text>
</a>
</g>
</g>
<!-- Node25&#45;&gt;Node29 -->
<g id="edge60_Node000025_Node000029" class="edge">
<title>Node25&#45;&gt;Node29</title>
<g id="a_edge60_Node000025_Node000029"><a xlink:title=" ">
<path fill="none" stroke="#63b8ff" d="M1504.39,-165.85C1619.2,-153.68 1830.99,-131.07 1839,-129 1900.13,-113.18 1935.04,-126.59 1970,-74 1974.67,-66.97 1975.37,-61.52 1970,-55 1947.53,-27.75 1849.39,-16.97 1789.11,-12.87"/>
<polygon fill="#63b8ff" stroke="#63b8ff" points="1789.25,-9.38 1779.05,-12.23 1788.81,-16.36 1789.25,-9.38"/>
</a>
</g>
</g>
<!-- Node30 -->
<g id="Node000030" class="node">
<title>Node30</title>
<g id="a_Node000030"><a xlink:title=" ">
<polygon fill="#e0e0e0" stroke="#999999" points="1682.5,-74 1611.5,-74 1611.5,-55 1682.5,-55 1682.5,-74"/>
<text text-anchor="middle" x="1647" y="-62" font-family="Helvetica,sans-Serif" font-size="10.00">QJsonArray</text>
</a>
</g>
</g>
<!-- Node25&#45;&gt;Node30 -->
<g id="edge59_Node000025_Node000030" class="edge">
<title>Node25&#45;&gt;Node30</title>
<g id="a_edge59_Node000025_Node000030"><a xlink:title=" ">
<path fill="none" stroke="#63b8ff" d="M1502.96,-164.99C1551.37,-157.8 1609.87,-145.95 1628,-129 1640.21,-117.59 1644.68,-98.7 1646.26,-84.48"/>
<polygon fill="#63b8ff" stroke="#63b8ff" points="1649.77,-84.54 1647.01,-74.31 1642.79,-84.03 1649.77,-84.54"/>
</a>
</g>
</g>
<!-- Node33 -->
<g id="Node000033" class="node">
<title>Node33</title>
<g id="a_Node000033"><a xlink:href="SymbolData_8h.html" target="_top" xlink:title=" ">
<polygon fill="white" stroke="#666666" points="1830,-129 1744,-129 1744,-110 1830,-110 1830,-129"/>
<text text-anchor="middle" x="1787" y="-117" font-family="Helvetica,sans-Serif" font-size="10.00">SymbolData.h</text>
</a>
</g>
</g>
<!-- Node25&#45;&gt;Node33 -->
<g id="edge52_Node000025_Node000033" class="edge">
<title>Node25&#45;&gt;Node33</title>
<g id="a_edge52_Node000025_Node000033"><a xlink:title=" ">
<path fill="none" stroke="#63b8ff" d="M1489.04,-164.98C1556.48,-154.92 1667.85,-138.29 1733.64,-128.47"/>
<polygon fill="#63b8ff" stroke="#63b8ff" points="1734.42,-131.89 1743.8,-126.95 1733.39,-124.97 1734.42,-131.89"/>
</a>
</g>
</g>
<!-- Node26&#45;&gt;Node7 -->
<g id="edge50_Node000026_Node000007" class="edge">
<title>Node26&#45;&gt;Node7</title>
<g id="a_edge50_Node000026_Node000007"><a xlink:title=" ">
<path fill="none" stroke="#63b8ff" d="M1544.32,-109.85C1519.72,-101.94 1483.64,-89.19 1454,-74 1426.23,-59.77 1396.73,-39.06 1378.1,-25.2"/>
<polygon fill="#63b8ff" stroke="#63b8ff" points="1379.98,-22.23 1369.89,-19.01 1375.76,-27.82 1379.98,-22.23"/>
</a>
</g>
</g>
<!-- Node26&#45;&gt;Node27 -->
<g id="edge42_Node000026_Node000027" class="edge">
<title>Node26&#45;&gt;Node27</title>
<g id="a_edge42_Node000026_Node000027"><a xlink:title=" ">
<path fill="none" stroke="#63b8ff" d="M1562.72,-109.98C1553.16,-102.07 1538.72,-90.11 1527.22,-80.58"/>
<polygon fill="#63b8ff" stroke="#63b8ff" points="1529.4,-77.85 1519.47,-74.17 1524.94,-83.24 1529.4,-77.85"/>
</a>
</g>
</g>
<!-- Node26&#45;&gt;Node29 -->
<g id="edge47_Node000026_Node000029" class="edge">
<title>Node26&#45;&gt;Node29</title>
<g id="a_edge47_Node000026_Node000029"><a xlink:title=" ">
<path fill="none" stroke="#63b8ff" d="M1574.78,-109.77C1578.02,-96.13 1586.14,-69.8 1603,-55 1628.04,-33.01 1664.09,-21.86 1693.06,-16.22"/>
<polygon fill="#63b8ff" stroke="#63b8ff" points="1693.76,-19.65 1702.99,-14.45 1692.53,-12.76 1693.76,-19.65"/>
</a>
</g>
</g>
<!-- Node26&#45;&gt;Node30 -->
<g id="edge46_Node000026_Node000030" class="edge">
<title>Node26&#45;&gt;Node30</title>
<g id="a_edge46_Node000026_Node000030"><a xlink:title=" ">
<path fill="none" stroke="#63b8ff" d="M1584.89,-109.98C1596.15,-101.92 1613.29,-89.65 1626.71,-80.03"/>
<polygon fill="#63b8ff" stroke="#63b8ff" points="1628.8,-82.84 1634.89,-74.17 1624.73,-77.15 1628.8,-82.84"/>
</a>
</g>
</g>
<!-- Node31 -->
<g id="Node000031" class="node">
<title>Node31</title>
<g id="a_Node000031"><a xlink:title=" ">
<polygon fill="#e0e0e0" stroke="#999999" points="1741.5,-74 1700.5,-74 1700.5,-55 1741.5,-55 1741.5,-74"/>
<text text-anchor="middle" x="1721" y="-62" font-family="Helvetica,sans-Serif" font-size="10.00">QList</text>
</a>
</g>
</g>
<!-- Node26&#45;&gt;Node31 -->
<g id="edge48_Node000026_Node000031" class="edge">
<title>Node26&#45;&gt;Node31</title>
<g id="a_edge48_Node000026_Node000031"><a xlink:title=" ">
<path fill="none" stroke="#63b8ff" d="M1596.78,-109.98C1622.25,-100.86 1662.75,-86.36 1690.54,-76.41"/>
<polygon fill="#63b8ff" stroke="#63b8ff" points="1691.92,-79.63 1700.15,-72.97 1689.56,-73.04 1691.92,-79.63"/>
</a>
</g>
</g>
<!-- Node32 -->
<g id="Node000032" class="node">
<title>Node32</title>
<g id="a_Node000032"><a xlink:title=" ">
<polygon fill="#e0e0e0" stroke="#999999" points="1814.5,-74 1759.5,-74 1759.5,-55 1814.5,-55 1814.5,-74"/>
<text text-anchor="middle" x="1787" y="-62" font-family="Helvetica,sans-Serif" font-size="10.00">QPointF</text>
</a>
</g>
</g>
<!-- Node26&#45;&gt;Node32 -->
<g id="edge49_Node000026_Node000032" class="edge">
<title>Node26&#45;&gt;Node32</title>
<g id="a_edge49_Node000026_Node000032"><a xlink:title=" ">
<path fill="none" stroke="#63b8ff" d="M1607.38,-109.98C1646.18,-100.37 1709.11,-84.79 1749.25,-74.85"/>
<polygon fill="#63b8ff" stroke="#63b8ff" points="1750.31,-78.19 1759.18,-72.39 1748.63,-71.4 1750.31,-78.19"/>
</a>
</g>
</g>
<!-- Node27&#45;&gt;Node7 -->
<g id="edge45_Node000027_Node000007" class="edge">
<title>Node27&#45;&gt;Node7</title>
<g id="a_edge45_Node000027_Node000007"><a xlink:title=" ">
<path fill="none" stroke="#63b8ff" d="M1484.9,-54.98C1460.12,-46.23 1421.3,-32.51 1393.31,-22.62"/>
<polygon fill="#63b8ff" stroke="#63b8ff" points="1394.13,-19.2 1383.54,-19.17 1391.8,-25.8 1394.13,-19.2"/>
</a>
</g>
</g>
<!-- Node28 -->
<g id="Node000028" class="node">
<title>Node28</title>
<g id="a_Node000028"><a xlink:title=" ">
<polygon fill="#e0e0e0" stroke="#999999" points="1545.5,-19 1472.5,-19 1472.5,0 1545.5,0 1545.5,-19"/>
<text text-anchor="middle" x="1509" y="-7" font-family="Helvetica,sans-Serif" font-size="10.00">QByteArray</text>
</a>
</g>
</g>
<!-- Node27&#45;&gt;Node28 -->
<g id="edge43_Node000027_Node000028" class="edge">
<title>Node27&#45;&gt;Node28</title>
<g id="a_edge43_Node000027_Node000028"><a xlink:title=" ">
<path fill="none" stroke="#63b8ff" d="M1509,-54.75C1509,-47.8 1509,-37.85 1509,-29.13"/>
<polygon fill="#63b8ff" stroke="#63b8ff" points="1512.5,-29.09 1509,-19.09 1505.5,-29.09 1512.5,-29.09"/>
</a>
</g>
</g>
<!-- Node27&#45;&gt;Node29 -->
<g id="edge44_Node000027_Node000029" class="edge">
<title>Node27&#45;&gt;Node29</title>
<g id="a_edge44_Node000027_Node000029"><a xlink:title=" ">
<path fill="none" stroke="#63b8ff" d="M1546.27,-54.98C1586.32,-45.84 1650.07,-31.27 1693.64,-21.32"/>
<polygon fill="#63b8ff" stroke="#63b8ff" points="1694.46,-24.72 1703.43,-19.08 1692.9,-17.9 1694.46,-24.72"/>
</a>
</g>
</g>
<!-- Node33&#45;&gt;Node7 -->
<g id="edge58_Node000033_Node000007" class="edge">
<title>Node33&#45;&gt;Node7</title>
<g id="a_edge58_Node000033_Node000007"><a xlink:title=" ">
<path fill="none" stroke="#63b8ff" d="M1798.4,-109.96C1814.33,-97.03 1839.62,-72.18 1824,-55 1820.4,-51.03 1505.48,-23.26 1396,-13.71"/>
<polygon fill="#63b8ff" stroke="#63b8ff" points="1396.04,-10.2 1385.77,-12.82 1395.43,-17.18 1396.04,-10.2"/>
</a>
</g>
</g>
<!-- Node33&#45;&gt;Node29 -->
<g id="edge54_Node000033_Node000029" class="edge">
<title>Node33&#45;&gt;Node29</title>
<g id="a_edge54_Node000033_Node000029"><a xlink:title=" ">
<path fill="none" stroke="#63b8ff" d="M1809.83,-109.99C1835.89,-98.93 1872.99,-78.26 1857,-55 1841.75,-32.82 1813.8,-21.69 1789.16,-16.1"/>
<polygon fill="#63b8ff" stroke="#63b8ff" points="1789.69,-12.64 1779.2,-14.1 1788.31,-19.5 1789.69,-12.64"/>
</a>
</g>
</g>
<!-- Node33&#45;&gt;Node30 -->
<g id="edge53_Node000033_Node000030" class="edge">
<title>Node33&#45;&gt;Node30</title>
<g id="a_edge53_Node000033_Node000030"><a xlink:title=" ">
<path fill="none" stroke="#63b8ff" d="M1764.51,-109.98C1741.48,-101.27 1705.46,-87.63 1679.37,-77.75"/>
<polygon fill="#63b8ff" stroke="#63b8ff" points="1680.49,-74.44 1669.9,-74.17 1678.02,-80.98 1680.49,-74.44"/>
</a>
</g>
</g>
<!-- Node33&#45;&gt;Node31 -->
<g id="edge55_Node000033_Node000031" class="edge">
<title>Node33&#45;&gt;Node31</title>
<g id="a_edge55_Node000033_Node000031"><a xlink:title=" ">
<path fill="none" stroke="#63b8ff" d="M1776.4,-109.98C1766.54,-102.07 1751.65,-90.11 1739.78,-80.58"/>
<polygon fill="#63b8ff" stroke="#63b8ff" points="1741.79,-77.7 1731.8,-74.17 1737.4,-83.16 1741.79,-77.7"/>
</a>
</g>
</g>
<!-- Node33&#45;&gt;Node32 -->
<g id="edge56_Node000033_Node000032" class="edge">
<title>Node33&#45;&gt;Node32</title>
<g id="a_edge56_Node000033_Node000032"><a xlink:title=" ">
<path fill="none" stroke="#63b8ff" d="M1787,-109.75C1787,-102.8 1787,-92.85 1787,-84.13"/>
<polygon fill="#63b8ff" stroke="#63b8ff" points="1790.5,-84.09 1787,-74.09 1783.5,-84.09 1790.5,-84.09"/>
</a>
</g>
</g>
<!-- Node34 -->
<g id="Node000034" class="node">
<title>Node34</title>
<g id="a_Node000034"><a xlink:title=" ">
<polygon fill="#e0e0e0" stroke="#999999" points="1961,-74 1909,-74 1909,-55 1961,-55 1961,-74"/>
<text text-anchor="middle" x="1935" y="-62" font-family="Helvetica,sans-Serif" font-size="10.00">QRectF</text>
</a>
</g>
</g>
<!-- Node33&#45;&gt;Node34 -->
<g id="edge57_Node000033_Node000034" class="edge">
<title>Node33&#45;&gt;Node34</title>
<g id="a_edge57_Node000033_Node000034"><a xlink:title=" ">
<path fill="none" stroke="#63b8ff" d="M1810.78,-109.98C1835.23,-101.23 1873.53,-87.51 1901.15,-77.62"/>
<polygon fill="#63b8ff" stroke="#63b8ff" points="1902.55,-80.84 1910.79,-74.17 1900.19,-74.25 1902.55,-80.84"/>
</a>
</g>
</g>
</g>
</svg>
