<?xml version="1.0" encoding="UTF-8" standalone="no"?>
<!DOCTYPE svg PUBLIC "-//W3C//DTD SVG 1.1//EN"
 "http://www.w3.org/Graphics/SVG/1.1/DTD/svg11.dtd">
<!-- Generated by graphviz version 2.43.0 (0)
 -->
<!-- Title: services/PreviewImageExporter.cpp Pages: 1 -->
<svg width="1737pt" height="247pt"
 viewBox="0.00 0.00 1737.00 247.00" xmlns="http://www.w3.org/2000/svg" xmlns:xlink="http://www.w3.org/1999/xlink">
<g id="graph0" class="graph" transform="scale(1 1) rotate(0) translate(4 243)">
<title>services/PreviewImageExporter.cpp</title>
<!-- Node1 -->
<g id="Node000001" class="node">
<title>Node1</title>
<g id="a_Node000001"><a xlink:title=" ">
<polygon fill="#999999" stroke="#666666" points="1280.5,-239 1089.5,-239 1089.5,-220 1280.5,-220 1280.5,-239"/>
<text text-anchor="middle" x="1185" y="-227" font-family="Helvetica,sans-Serif" font-size="10.00">services/PreviewImageExporter.cpp</text>
</a>
</g>
</g>
<!-- Node2 -->
<g id="Node000002" class="node">
<title>Node2</title>
<g id="a_Node000002"><a xlink:href="PreviewImageExporter_8h.html" target="_top" xlink:title=" ">
<polygon fill="white" stroke="#666666" points="405,-129 269,-129 269,-110 405,-110 405,-129"/>
<text text-anchor="middle" x="337" y="-117" font-family="Helvetica,sans-Serif" font-size="10.00">PreviewImageExporter.h</text>
</a>
</g>
</g>
<!-- Node1&#45;&gt;Node2 -->
<g id="edge1_Node000001_Node000002" class="edge">
<title>Node1&#45;&gt;Node2</title>
<g id="a_edge1_Node000001_Node000002"><a xlink:title=" ">
<path fill="none" stroke="#63b8ff" d="M1089.31,-226.97C968.98,-223.8 756.41,-214.03 577,-184 503.14,-171.64 418.98,-146.8 372.53,-132.12"/>
<polygon fill="#63b8ff" stroke="#63b8ff" points="373.52,-128.77 362.93,-129.06 371.4,-135.44 373.52,-128.77"/>
</a>
</g>
</g>
<!-- Node8 -->
<g id="Node000008" class="node">
<title>Node8</title>
<g id="a_Node000008"><a xlink:title=" ">
<polygon fill="#e0e0e0" stroke="#999999" points="392,-74 354,-74 354,-55 392,-55 392,-74"/>
<text text-anchor="middle" x="373" y="-62" font-family="Helvetica,sans-Serif" font-size="10.00">QDir</text>
</a>
</g>
</g>
<!-- Node1&#45;&gt;Node8 -->
<g id="edge45_Node000001_Node000008" class="edge">
<title>Node1&#45;&gt;Node8</title>
<g id="a_edge45_Node000001_Node000008"><a xlink:title=" ">
<path fill="none" stroke="#63b8ff" d="M1136.86,-219.99C1043.4,-203.38 830.97,-165.06 653,-129 543.83,-106.88 513.63,-103.1 402.18,-74.15"/>
<polygon fill="#63b8ff" stroke="#63b8ff" points="402.78,-70.69 392.22,-71.56 401.02,-77.47 402.78,-70.69"/>
</a>
</g>
</g>
<!-- Node11 -->
<g id="Node000011" class="node">
<title>Node11</title>
<g id="a_Node000011"><a xlink:href="NetworkClient_8h.html" target="_top" xlink:title=" ">
<polygon fill="white" stroke="#666666" points="1203,-184 1041,-184 1041,-165 1203,-165 1203,-184"/>
<text text-anchor="middle" x="1122" y="-172" font-family="Helvetica,sans-Serif" font-size="10.00">core/network/NetworkClient.h</text>
</a>
</g>
</g>
<!-- Node1&#45;&gt;Node11 -->
<g id="edge11_Node000001_Node000011" class="edge">
<title>Node1&#45;&gt;Node11</title>
<g id="a_edge11_Node000001_Node000011"><a xlink:title=" ">
<path fill="none" stroke="#63b8ff" d="M1174.88,-219.98C1165.56,-212.15 1151.53,-200.34 1140.26,-190.86"/>
<polygon fill="#63b8ff" stroke="#63b8ff" points="1142.21,-187.93 1132.31,-184.17 1137.71,-193.29 1142.21,-187.93"/>
</a>
</g>
</g>
<!-- Node33 -->
<g id="Node000033" class="node">
<title>Node33</title>
<g id="a_Node000033"><a xlink:title=" ">
<polygon fill="#e0e0e0" stroke="#999999" points="1277,-184 1221,-184 1221,-165 1277,-165 1277,-184"/>
<text text-anchor="middle" x="1249" y="-172" font-family="Helvetica,sans-Serif" font-size="10.00">QDebug</text>
</a>
</g>
</g>
<!-- Node1&#45;&gt;Node33 -->
<g id="edge44_Node000001_Node000033" class="edge">
<title>Node1&#45;&gt;Node33</title>
<g id="a_edge44_Node000001_Node000033"><a xlink:title=" ">
<path fill="none" stroke="#63b8ff" d="M1195.28,-219.98C1204.84,-212.07 1219.28,-200.11 1230.78,-190.58"/>
<polygon fill="#63b8ff" stroke="#63b8ff" points="1233.06,-193.24 1238.53,-184.17 1228.6,-187.85 1233.06,-193.24"/>
</a>
</g>
</g>
<!-- Node34 -->
<g id="Node000034" class="node">
<title>Node34</title>
<g id="a_Node000034"><a xlink:title=" ">
<polygon fill="#e0e0e0" stroke="#999999" points="1336.5,-184 1295.5,-184 1295.5,-165 1336.5,-165 1336.5,-184"/>
<text text-anchor="middle" x="1316" y="-172" font-family="Helvetica,sans-Serif" font-size="10.00">QFile</text>
</a>
</g>
</g>
<!-- Node1&#45;&gt;Node34 -->
<g id="edge46_Node000001_Node000034" class="edge">
<title>Node1&#45;&gt;Node34</title>
<g id="a_edge46_Node000001_Node000034"><a xlink:title=" ">
<path fill="none" stroke="#63b8ff" d="M1206.05,-219.98C1227.66,-211.24 1261.5,-197.55 1285.93,-187.67"/>
<polygon fill="#63b8ff" stroke="#63b8ff" points="1287.48,-190.81 1295.44,-183.82 1284.85,-184.33 1287.48,-190.81"/>
</a>
</g>
</g>
<!-- Node35 -->
<g id="Node000035" class="node">
<title>Node35</title>
<g id="a_Node000035"><a xlink:title=" ">
<polygon fill="#e0e0e0" stroke="#999999" points="1415,-184 1355,-184 1355,-165 1415,-165 1415,-184"/>
<text text-anchor="middle" x="1385" y="-172" font-family="Helvetica,sans-Serif" font-size="10.00">QFileInfo</text>
</a>
</g>
</g>
<!-- Node1&#45;&gt;Node35 -->
<g id="edge47_Node000001_Node000035" class="edge">
<title>Node1&#45;&gt;Node35</title>
<g id="a_edge47_Node000001_Node000035"><a xlink:title=" ">
<path fill="none" stroke="#63b8ff" d="M1217.13,-219.98C1251.85,-210.78 1307.24,-196.11 1344.82,-186.15"/>
<polygon fill="#63b8ff" stroke="#63b8ff" points="1346.14,-189.42 1354.91,-183.47 1344.35,-182.65 1346.14,-189.42"/>
</a>
</g>
</g>
<!-- Node3 -->
<g id="Node000003" class="node">
<title>Node3</title>
<g id="a_Node000003"><a xlink:href="ExportProgress_8h.html" target="_top" xlink:title=" ">
<polygon fill="white" stroke="#666666" points="210,-74 76,-74 76,-55 210,-55 210,-74"/>
<text text-anchor="middle" x="143" y="-62" font-family="Helvetica,sans-Serif" font-size="10.00">export/ExportProgress.h</text>
</a>
</g>
</g>
<!-- Node2&#45;&gt;Node3 -->
<g id="edge2_Node000002_Node000003" class="edge">
<title>Node2&#45;&gt;Node3</title>
<g id="a_edge2_Node000002_Node000003"><a xlink:title=" ">
<path fill="none" stroke="#63b8ff" d="M305.83,-109.98C272.84,-100.97 220.6,-86.7 184.23,-76.76"/>
<polygon fill="#63b8ff" stroke="#63b8ff" points="184.98,-73.34 174.41,-74.08 183.14,-80.09 184.98,-73.34"/>
</a>
</g>
</g>
<!-- Node7 -->
<g id="Node000007" class="node">
<title>Node7</title>
<g id="a_Node000007"><a xlink:title=" ">
<polygon fill="#e0e0e0" stroke="#999999" points="295.5,-19 242.5,-19 242.5,0 295.5,0 295.5,-19"/>
<text text-anchor="middle" x="269" y="-7" font-family="Helvetica,sans-Serif" font-size="10.00">QString</text>
</a>
</g>
</g>
<!-- Node2&#45;&gt;Node7 -->
<g id="edge9_Node000002_Node000007" class="edge">
<title>Node2&#45;&gt;Node7</title>
<g id="a_edge9_Node000002_Node000007"><a xlink:title=" ">
<path fill="none" stroke="#63b8ff" d="M305.95,-109.87C288.25,-103.18 267.55,-91.95 257,-74 248.84,-60.13 253.59,-41.87 259.35,-28.49"/>
<polygon fill="#63b8ff" stroke="#63b8ff" points="262.56,-29.89 263.75,-19.36 256.25,-26.85 262.56,-29.89"/>
</a>
</g>
</g>
<!-- Node2&#45;&gt;Node8 -->
<g id="edge7_Node000002_Node000008" class="edge">
<title>Node2&#45;&gt;Node8</title>
<g id="a_edge7_Node000002_Node000008"><a xlink:title=" ">
<path fill="none" stroke="#63b8ff" d="M342.94,-109.75C347.98,-102.34 355.34,-91.5 361.51,-82.41"/>
<polygon fill="#63b8ff" stroke="#63b8ff" points="364.44,-84.33 367.17,-74.09 358.65,-80.39 364.44,-84.33"/>
</a>
</g>
</g>
<!-- Node9 -->
<g id="Node000009" class="node">
<title>Node9</title>
<g id="a_Node000009"><a xlink:title=" ">
<polygon fill="#e0e0e0" stroke="#999999" points="466,-74 410,-74 410,-55 466,-55 466,-74"/>
<text text-anchor="middle" x="438" y="-62" font-family="Helvetica,sans-Serif" font-size="10.00">QObject</text>
</a>
</g>
</g>
<!-- Node2&#45;&gt;Node9 -->
<g id="edge8_Node000002_Node000009" class="edge">
<title>Node2&#45;&gt;Node9</title>
<g id="a_edge8_Node000002_Node000009"><a xlink:title=" ">
<path fill="none" stroke="#63b8ff" d="M353.23,-109.98C369.18,-101.61 393.78,-88.7 412.38,-78.95"/>
<polygon fill="#63b8ff" stroke="#63b8ff" points="414.25,-81.92 421.48,-74.17 411,-75.72 414.25,-81.92"/>
</a>
</g>
</g>
<!-- Node10 -->
<g id="Node000010" class="node">
<title>Node10</title>
<g id="a_Node000010"><a xlink:title=" ">
<polygon fill="#e0e0e0" stroke="#999999" points="336,-74 266,-74 266,-55 336,-55 336,-74"/>
<text text-anchor="middle" x="301" y="-62" font-family="Helvetica,sans-Serif" font-size="10.00">QStringList</text>
</a>
</g>
</g>
<!-- Node2&#45;&gt;Node10 -->
<g id="edge10_Node000002_Node000010" class="edge">
<title>Node2&#45;&gt;Node10</title>
<g id="a_edge10_Node000002_Node000010"><a xlink:title=" ">
<path fill="none" stroke="#63b8ff" d="M331.06,-109.75C326.02,-102.34 318.66,-91.5 312.49,-82.41"/>
<polygon fill="#63b8ff" stroke="#63b8ff" points="315.35,-80.39 306.83,-74.09 309.56,-84.33 315.35,-80.39"/>
</a>
</g>
</g>
<!-- Node4 -->
<g id="Node000004" class="node">
<title>Node4</title>
<g id="a_Node000004"><a xlink:title=" ">
<polygon fill="#e0e0e0" stroke="#999999" points="72,-19 0,-19 0,0 72,0 72,-19"/>
<text text-anchor="middle" x="36" y="-7" font-family="Helvetica,sans-Serif" font-size="10.00">QDateTime</text>
</a>
</g>
</g>
<!-- Node3&#45;&gt;Node4 -->
<g id="edge3_Node000003_Node000004" class="edge">
<title>Node3&#45;&gt;Node4</title>
<g id="a_edge3_Node000003_Node000004"><a xlink:title=" ">
<path fill="none" stroke="#63b8ff" d="M125.81,-54.98C108.75,-46.54 82.37,-33.47 62.6,-23.68"/>
<polygon fill="#63b8ff" stroke="#63b8ff" points="64.02,-20.47 53.5,-19.17 60.91,-26.75 64.02,-20.47"/>
</a>
</g>
</g>
<!-- Node5 -->
<g id="Node000005" class="node">
<title>Node5</title>
<g id="a_Node000005"><a xlink:title=" ">
<polygon fill="#e0e0e0" stroke="#999999" points="135.5,-19 90.5,-19 90.5,0 135.5,0 135.5,-19"/>
<text text-anchor="middle" x="113" y="-7" font-family="Helvetica,sans-Serif" font-size="10.00">QMap</text>
</a>
</g>
</g>
<!-- Node3&#45;&gt;Node5 -->
<g id="edge4_Node000003_Node000005" class="edge">
<title>Node3&#45;&gt;Node5</title>
<g id="a_edge4_Node000003_Node000005"><a xlink:title=" ">
<path fill="none" stroke="#63b8ff" d="M138.05,-54.75C133.94,-47.49 127.97,-36.95 122.9,-27.98"/>
<polygon fill="#63b8ff" stroke="#63b8ff" points="125.83,-26.07 117.86,-19.09 119.74,-29.52 125.83,-26.07"/>
</a>
</g>
</g>
<!-- Node6 -->
<g id="Node000006" class="node">
<title>Node6</title>
<g id="a_Node000006"><a xlink:title=" ">
<polygon fill="#e0e0e0" stroke="#999999" points="224.5,-19 153.5,-19 153.5,0 224.5,0 224.5,-19"/>
<text text-anchor="middle" x="189" y="-7" font-family="Helvetica,sans-Serif" font-size="10.00">QMetaType</text>
</a>
</g>
</g>
<!-- Node3&#45;&gt;Node6 -->
<g id="edge5_Node000003_Node000006" class="edge">
<title>Node3&#45;&gt;Node6</title>
<g id="a_edge5_Node000003_Node000006"><a xlink:title=" ">
<path fill="none" stroke="#63b8ff" d="M150.6,-54.75C157.16,-47.18 166.82,-36.05 174.81,-26.84"/>
<polygon fill="#63b8ff" stroke="#63b8ff" points="177.63,-28.94 181.55,-19.09 172.35,-24.35 177.63,-28.94"/>
</a>
</g>
</g>
<!-- Node3&#45;&gt;Node7 -->
<g id="edge6_Node000003_Node000007" class="edge">
<title>Node3&#45;&gt;Node7</title>
<g id="a_edge6_Node000003_Node000007"><a xlink:title=" ">
<path fill="none" stroke="#63b8ff" d="M163.24,-54.98C183.7,-46.38 215.53,-32.99 238.93,-23.15"/>
<polygon fill="#63b8ff" stroke="#63b8ff" points="240.53,-26.27 248.39,-19.17 237.81,-19.82 240.53,-26.27"/>
</a>
</g>
</g>
<!-- Node11&#45;&gt;Node9 -->
<g id="edge38_Node000011_Node000009" class="edge">
<title>Node11&#45;&gt;Node9</title>
<g id="a_edge38_Node000011_Node000009"><a xlink:title=" ">
<path fill="none" stroke="#63b8ff" d="M1041.55,-165C969.25,-156.99 860.27,-144 766,-129 660.68,-112.24 537.45,-86.8 476.37,-73.79"/>
<polygon fill="#63b8ff" stroke="#63b8ff" points="476.92,-70.33 466.4,-71.66 475.45,-77.18 476.92,-70.33"/>
</a>
</g>
</g>
<!-- Node12 -->
<g id="Node000012" class="node">
<title>Node12</title>
<g id="a_Node000012"><a xlink:href="AsyncNetworkRequest_8h.html" target="_top" xlink:title=" ">
<polygon fill="white" stroke="#666666" points="1056,-129 920,-129 920,-110 1056,-110 1056,-129"/>
<text text-anchor="middle" x="988" y="-117" font-family="Helvetica,sans-Serif" font-size="10.00">AsyncNetworkRequest.h</text>
</a>
</g>
</g>
<!-- Node11&#45;&gt;Node12 -->
<g id="edge12_Node000011_Node000012" class="edge">
<title>Node11&#45;&gt;Node12</title>
<g id="a_edge12_Node000011_Node000012"><a xlink:title=" ">
<path fill="none" stroke="#63b8ff" d="M1100.47,-164.98C1078.53,-156.3 1044.26,-142.75 1019.31,-132.88"/>
<polygon fill="#63b8ff" stroke="#63b8ff" points="1020.51,-129.59 1009.92,-129.17 1017.93,-136.1 1020.51,-129.59"/>
</a>
</g>
</g>
<!-- Node13 -->
<g id="Node000013" class="node">
<title>Node13</title>
<g id="a_Node000013"><a xlink:href="INetworkClient_8h.html" target="_top" xlink:title=" ">
<polygon fill="white" stroke="#666666" points="687.5,-74 522.5,-74 522.5,-55 687.5,-55 687.5,-74"/>
<text text-anchor="middle" x="605" y="-62" font-family="Helvetica,sans-Serif" font-size="10.00">core/network/INetworkClient.h</text>
</a>
</g>
</g>
<!-- Node11&#45;&gt;Node13 -->
<g id="edge30_Node000011_Node000013" class="edge">
<title>Node11&#45;&gt;Node13</title>
<g id="a_edge30_Node000011_Node000013"><a xlink:title=" ">
<path fill="none" stroke="#63b8ff" d="M1061.09,-164.96C1006.38,-156.93 923.99,-143.93 853,-129 778.9,-113.41 693.58,-90.45 644.8,-76.83"/>
<polygon fill="#63b8ff" stroke="#63b8ff" points="645.54,-73.4 634.96,-74.07 643.65,-80.14 645.54,-73.4"/>
</a>
</g>
</g>
<!-- Node19 -->
<g id="Node000019" class="node">
<title>Node19</title>
<g id="a_Node000019"><a xlink:title=" ">
<polygon fill="#e0e0e0" stroke="#999999" points="798.5,-74 705.5,-74 705.5,-55 798.5,-55 798.5,-74"/>
<text text-anchor="middle" x="752" y="-62" font-family="Helvetica,sans-Serif" font-size="10.00">QNetworkReply</text>
</a>
</g>
</g>
<!-- Node11&#45;&gt;Node19 -->
<g id="edge36_Node000011_Node000019" class="edge">
<title>Node11&#45;&gt;Node19</title>
<g id="a_edge36_Node000011_Node000019"><a xlink:title=" ">
<path fill="none" stroke="#63b8ff" d="M1069.34,-164.99C1026.27,-157.42 964.03,-145.05 911,-129 864.02,-114.78 811.49,-92.48 780.12,-78.45"/>
<polygon fill="#63b8ff" stroke="#63b8ff" points="781.27,-75.13 770.71,-74.2 778.39,-81.51 781.27,-75.13"/>
</a>
</g>
</g>
<!-- Node22 -->
<g id="Node000022" class="node">
<title>Node22</title>
<g id="a_Node000022"><a xlink:title=" ">
<polygon fill="#e0e0e0" stroke="#999999" points="1543.5,-74 1488.5,-74 1488.5,-55 1543.5,-55 1543.5,-74"/>
<text text-anchor="middle" x="1516" y="-62" font-family="Helvetica,sans-Serif" font-size="10.00">QMutex</text>
</a>
</g>
</g>
<!-- Node11&#45;&gt;Node22 -->
<g id="edge35_Node000011_Node000022" class="edge">
<title>Node11&#45;&gt;Node22</title>
<g id="a_edge35_Node000011_Node000022"><a xlink:title=" ">
<path fill="none" stroke="#63b8ff" d="M1126.97,-164.7C1135.54,-150.47 1154.55,-122.7 1179,-110 1295.64,-49.4 1344.91,-95.16 1478,-74.11"/>
<polygon fill="#63b8ff" stroke="#63b8ff" points="1478.88,-77.51 1488.16,-72.4 1477.71,-70.61 1478.88,-77.51"/>
</a>
</g>
</g>
<!-- Node23 -->
<g id="Node000023" class="node">
<title>Node23</title>
<g id="a_Node000023"><a xlink:title=" ">
<polygon fill="#e0e0e0" stroke="#999999" points="1339.5,-74 1234.5,-74 1234.5,-55 1339.5,-55 1339.5,-74"/>
<text text-anchor="middle" x="1287" y="-62" font-family="Helvetica,sans-Serif" font-size="10.00">QNetworkRequest</text>
</a>
</g>
</g>
<!-- Node11&#45;&gt;Node23 -->
<g id="edge37_Node000011_Node000023" class="edge">
<title>Node11&#45;&gt;Node23</title>
<g id="a_edge37_Node000011_Node000023"><a xlink:title=" ">
<path fill="none" stroke="#63b8ff" d="M1115.99,-164.71C1107.76,-151.45 1095.35,-126.19 1108,-110 1115.7,-100.15 1180.68,-85.75 1230.14,-76.02"/>
<polygon fill="#63b8ff" stroke="#63b8ff" points="1230.98,-79.42 1240.12,-74.08 1229.64,-72.55 1230.98,-79.42"/>
</a>
</g>
</g>
<!-- Node24 -->
<g id="Node000024" class="node">
<title>Node24</title>
<g id="a_Node000024"><a xlink:title=" ">
<polygon fill="#e0e0e0" stroke="#999999" points="1470.5,-74 1357.5,-74 1357.5,-55 1470.5,-55 1470.5,-74"/>
<text text-anchor="middle" x="1414" y="-62" font-family="Helvetica,sans-Serif" font-size="10.00">QRandomGenerator</text>
</a>
</g>
</g>
<!-- Node11&#45;&gt;Node24 -->
<g id="edge41_Node000011_Node000024" class="edge">
<title>Node11&#45;&gt;Node24</title>
<g id="a_edge41_Node000011_Node000024"><a xlink:title=" ">
<path fill="none" stroke="#63b8ff" d="M1122.6,-164.97C1124.06,-151.12 1129.05,-123.9 1146,-110 1153.79,-103.61 1270.52,-85.93 1347.33,-74.88"/>
<polygon fill="#63b8ff" stroke="#63b8ff" points="1348.02,-78.32 1357.42,-73.43 1347.03,-71.39 1348.02,-78.32"/>
</a>
</g>
</g>
<!-- Node26 -->
<g id="Node000026" class="node">
<title>Node26</title>
<g id="a_Node000026"><a xlink:href="TestableSingleton_8h.html" target="_top" xlink:title=" ">
<polygon fill="white" stroke="#666666" points="1324,-129 1188,-129 1188,-110 1324,-110 1324,-129"/>
<text text-anchor="middle" x="1256" y="-117" font-family="Helvetica,sans-Serif" font-size="10.00">utils/TestableSingleton.h</text>
</a>
</g>
</g>
<!-- Node11&#45;&gt;Node26 -->
<g id="edge31_Node000011_Node000026" class="edge">
<title>Node11&#45;&gt;Node26</title>
<g id="a_edge31_Node000011_Node000026"><a xlink:title=" ">
<path fill="none" stroke="#63b8ff" d="M1143.53,-164.98C1165.47,-156.3 1199.74,-142.75 1224.69,-132.88"/>
<polygon fill="#63b8ff" stroke="#63b8ff" points="1226.07,-136.1 1234.08,-129.17 1223.49,-129.59 1226.07,-136.1"/>
</a>
</g>
</g>
<!-- Node28 -->
<g id="Node000028" class="node">
<title>Node28</title>
<g id="a_Node000028"><a xlink:title=" ">
<polygon fill="#e0e0e0" stroke="#999999" points="1391.5,-129 1342.5,-129 1342.5,-110 1391.5,-110 1391.5,-129"/>
<text text-anchor="middle" x="1367" y="-117" font-family="Helvetica,sans-Serif" font-size="10.00">QHash</text>
</a>
</g>
</g>
<!-- Node11&#45;&gt;Node28 -->
<g id="edge34_Node000011_Node000028" class="edge">
<title>Node11&#45;&gt;Node28</title>
<g id="a_edge34_Node000011_Node000028"><a xlink:title=" ">
<path fill="none" stroke="#63b8ff" d="M1164.94,-164.93C1205.56,-156.71 1268.48,-143.71 1332.31,-129.09"/>
<polygon fill="#63b8ff" stroke="#63b8ff" points="1333.18,-132.48 1342.14,-126.83 1331.61,-125.66 1333.18,-132.48"/>
</a>
</g>
</g>
<!-- Node29 -->
<g id="Node000029" class="node">
<title>Node29</title>
<g id="a_Node000029"><a xlink:title=" ">
<polygon fill="#e0e0e0" stroke="#999999" points="1468.5,-129 1409.5,-129 1409.5,-110 1468.5,-110 1468.5,-129"/>
<text text-anchor="middle" x="1439" y="-117" font-family="Helvetica,sans-Serif" font-size="10.00">QPointer</text>
</a>
</g>
</g>
<!-- Node11&#45;&gt;Node29 -->
<g id="edge39_Node000011_Node000029" class="edge">
<title>Node11&#45;&gt;Node29</title>
<g id="a_edge39_Node000011_Node000029"><a xlink:title=" ">
<path fill="none" stroke="#63b8ff" d="M1182.33,-164.98C1236.64,-157.06 1318.88,-144.45 1398.91,-129.31"/>
<polygon fill="#63b8ff" stroke="#63b8ff" points="1400,-132.67 1409.17,-127.36 1398.69,-125.79 1400,-132.67"/>
</a>
</g>
</g>
<!-- Node30 -->
<g id="Node000030" class="node">
<title>Node30</title>
<g id="a_Node000030"><a xlink:title=" ">
<polygon fill="#e0e0e0" stroke="#999999" points="1543,-129 1487,-129 1487,-110 1543,-110 1543,-129"/>
<text text-anchor="middle" x="1515" y="-117" font-family="Helvetica,sans-Serif" font-size="10.00">QQueue</text>
</a>
</g>
</g>
<!-- Node11&#45;&gt;Node30 -->
<g id="edge40_Node000011_Node000030" class="edge">
<title>Node11&#45;&gt;Node30</title>
<g id="a_edge40_Node000011_Node000030"><a xlink:title=" ">
<path fill="none" stroke="#63b8ff" d="M1203.3,-165.71C1273.35,-158.45 1377.35,-146.38 1476.85,-129.04"/>
<polygon fill="#63b8ff" stroke="#63b8ff" points="1477.54,-132.48 1486.78,-127.29 1476.32,-125.58 1477.54,-132.48"/>
</a>
</g>
</g>
<!-- Node31 -->
<g id="Node000031" class="node">
<title>Node31</title>
<g id="a_Node000031"><a xlink:title=" ">
<polygon fill="#e0e0e0" stroke="#999999" points="1619,-129 1561,-129 1561,-110 1619,-110 1619,-129"/>
<text text-anchor="middle" x="1590" y="-117" font-family="Helvetica,sans-Serif" font-size="10.00">QThread</text>
</a>
</g>
</g>
<!-- Node11&#45;&gt;Node31 -->
<g id="edge42_Node000011_Node000031" class="edge">
<title>Node11&#45;&gt;Node31</title>
<g id="a_edge42_Node000011_Node000031"><a xlink:title=" ">
<path fill="none" stroke="#63b8ff" d="M1203.42,-165.59C1311.1,-155.06 1493.14,-136.98 1550.58,-128.94"/>
<polygon fill="#63b8ff" stroke="#63b8ff" points="1551.24,-132.38 1560.61,-127.43 1550.2,-125.46 1551.24,-132.38"/>
</a>
</g>
</g>
<!-- Node32 -->
<g id="Node000032" class="node">
<title>Node32</title>
<g id="a_Node000032"><a xlink:title=" ">
<polygon fill="#e0e0e0" stroke="#999999" points="1729,-129 1637,-129 1637,-110 1729,-110 1729,-129"/>
<text text-anchor="middle" x="1683" y="-117" font-family="Helvetica,sans-Serif" font-size="10.00">QWaitCondition</text>
</a>
</g>
</g>
<!-- Node11&#45;&gt;Node32 -->
<g id="edge43_Node000011_Node000032" class="edge">
<title>Node11&#45;&gt;Node32</title>
<g id="a_edge43_Node000011_Node000032"><a xlink:title=" ">
<path fill="none" stroke="#63b8ff" d="M1203.43,-165.78C1206.32,-165.52 1209.19,-165.25 1212,-165 1393.58,-148.57 1442.06,-151.09 1626.77,-129.07"/>
<polygon fill="#63b8ff" stroke="#63b8ff" points="1627.31,-132.53 1636.82,-127.87 1626.47,-125.58 1627.31,-132.53"/>
</a>
</g>
</g>
<!-- Node12&#45;&gt;Node9 -->
<g id="edge26_Node000012_Node000009" class="edge">
<title>Node12&#45;&gt;Node9</title>
<g id="a_edge26_Node000012_Node000009"><a xlink:title=" ">
<path fill="none" stroke="#63b8ff" d="M919.93,-114.97C822.2,-109.36 636.62,-96.64 480,-74 478.9,-73.84 477.78,-73.67 476.65,-73.49"/>
<polygon fill="#63b8ff" stroke="#63b8ff" points="476.85,-69.97 466.39,-71.7 475.64,-76.87 476.85,-69.97"/>
</a>
</g>
</g>
<!-- Node12&#45;&gt;Node13 -->
<g id="edge13_Node000012_Node000013" class="edge">
<title>Node12&#45;&gt;Node13</title>
<g id="a_edge13_Node000012_Node000013"><a xlink:title=" ">
<path fill="none" stroke="#63b8ff" d="M926.46,-109.98C858.44,-100.57 749,-85.43 677.04,-75.47"/>
<polygon fill="#63b8ff" stroke="#63b8ff" points="677.09,-71.94 666.7,-74.04 676.13,-78.88 677.09,-71.94"/>
</a>
</g>
</g>
<!-- Node14 -->
<g id="Node000014" class="node">
<title>Node14</title>
<g id="a_Node000014"><a xlink:title=" ">
<polygon fill="#e0e0e0" stroke="#999999" points="537.5,-19 464.5,-19 464.5,0 537.5,0 537.5,-19"/>
<text text-anchor="middle" x="501" y="-7" font-family="Helvetica,sans-Serif" font-size="10.00">QByteArray</text>
</a>
</g>
</g>
<!-- Node12&#45;&gt;Node14 -->
<g id="edge22_Node000012_Node000014" class="edge">
<title>Node12&#45;&gt;Node14</title>
<g id="a_edge22_Node000012_Node000014"><a xlink:title=" ">
<path fill="none" stroke="#63b8ff" d="M919.78,-116.58C795.54,-112.45 542.43,-100.8 513,-74 500.96,-63.03 498.71,-44.08 499.03,-29.73"/>
<polygon fill="#63b8ff" stroke="#63b8ff" points="502.54,-29.65 499.69,-19.44 495.56,-29.2 502.54,-29.65"/>
</a>
</g>
</g>
<!-- Node15 -->
<g id="Node000015" class="node">
<title>Node15</title>
<g id="a_Node000015"><a xlink:title=" ">
<polygon fill="#e0e0e0" stroke="#999999" points="805,-19 767,-19 767,0 805,0 805,-19"/>
<text text-anchor="middle" x="786" y="-7" font-family="Helvetica,sans-Serif" font-size="10.00">QUrl</text>
</a>
</g>
</g>
<!-- Node12&#45;&gt;Node15 -->
<g id="edge29_Node000012_Node000015" class="edge">
<title>Node12&#45;&gt;Node15</title>
<g id="a_edge29_Node000012_Node000015"><a xlink:title=" ">
<path fill="none" stroke="#63b8ff" d="M940.35,-109.94C911.49,-103.26 874.81,-92.01 846,-74 826.59,-61.86 809.21,-41.96 798.21,-27.68"/>
<polygon fill="#63b8ff" stroke="#63b8ff" points="800.72,-25.18 791.95,-19.23 795.1,-29.35 800.72,-25.18"/>
</a>
</g>
</g>
<!-- Node18 -->
<g id="Node000018" class="node">
<title>Node18</title>
<g id="a_Node000018"><a xlink:title=" ">
<polygon fill="#e0e0e0" stroke="#999999" points="997,-74 855,-74 855,-55 997,-55 997,-74"/>
<text text-anchor="middle" x="926" y="-62" font-family="Helvetica,sans-Serif" font-size="10.00">QNetworkAccessManager</text>
</a>
</g>
</g>
<!-- Node12&#45;&gt;Node18 -->
<g id="edge19_Node000012_Node000018" class="edge">
<title>Node12&#45;&gt;Node18</title>
<g id="a_edge19_Node000012_Node000018"><a xlink:title=" ">
<path fill="none" stroke="#63b8ff" d="M978.04,-109.98C968.87,-102.15 955.06,-90.34 943.97,-80.86"/>
<polygon fill="#63b8ff" stroke="#63b8ff" points="946.02,-78.01 936.14,-74.17 941.47,-83.33 946.02,-78.01"/>
</a>
</g>
</g>
<!-- Node12&#45;&gt;Node19 -->
<g id="edge20_Node000012_Node000019" class="edge">
<title>Node12&#45;&gt;Node19</title>
<g id="a_edge20_Node000012_Node000019"><a xlink:title=" ">
<path fill="none" stroke="#63b8ff" d="M950.08,-109.98C909.35,-100.84 844.5,-86.27 800.18,-76.32"/>
<polygon fill="#63b8ff" stroke="#63b8ff" points="800.74,-72.86 790.21,-74.08 799.2,-79.69 800.74,-72.86"/>
</a>
</g>
</g>
<!-- Node20 -->
<g id="Node000020" class="node">
<title>Node20</title>
<g id="a_Node000020"><a xlink:title=" ">
<polygon fill="#e0e0e0" stroke="#999999" points="1086.5,-74 1015.5,-74 1015.5,-55 1086.5,-55 1086.5,-74"/>
<text text-anchor="middle" x="1051" y="-62" font-family="Helvetica,sans-Serif" font-size="10.00">QAtomicInt</text>
</a>
</g>
</g>
<!-- Node12&#45;&gt;Node20 -->
<g id="edge21_Node000012_Node000020" class="edge">
<title>Node12&#45;&gt;Node20</title>
<g id="a_edge21_Node000012_Node000020"><a xlink:title=" ">
<path fill="none" stroke="#63b8ff" d="M998.12,-109.98C1007.44,-102.15 1021.47,-90.34 1032.74,-80.86"/>
<polygon fill="#63b8ff" stroke="#63b8ff" points="1035.29,-83.29 1040.69,-74.17 1030.79,-77.93 1035.29,-83.29"/>
</a>
</g>
</g>
<!-- Node21 -->
<g id="Node000021" class="node">
<title>Node21</title>
<g id="a_Node000021"><a xlink:title=" ">
<polygon fill="#e0e0e0" stroke="#999999" points="1145.5,-74 1104.5,-74 1104.5,-55 1145.5,-55 1145.5,-74"/>
<text text-anchor="middle" x="1125" y="-62" font-family="Helvetica,sans-Serif" font-size="10.00">QList</text>
</a>
</g>
</g>
<!-- Node12&#45;&gt;Node21 -->
<g id="edge23_Node000012_Node000021" class="edge">
<title>Node12&#45;&gt;Node21</title>
<g id="a_edge23_Node000012_Node000021"><a xlink:title=" ">
<path fill="none" stroke="#63b8ff" d="M1010.01,-109.98C1032.98,-101.1 1069.16,-87.1 1094.79,-77.19"/>
<polygon fill="#63b8ff" stroke="#63b8ff" points="1096.32,-80.35 1104.39,-73.47 1093.8,-73.82 1096.32,-80.35"/>
</a>
</g>
</g>
<!-- Node12&#45;&gt;Node22 -->
<g id="edge24_Node000012_Node000022" class="edge">
<title>Node12&#45;&gt;Node22</title>
<g id="a_edge24_Node000012_Node000022"><a xlink:title=" ">
<path fill="none" stroke="#63b8ff" d="M1056.03,-115.4C1149.27,-110.47 1322.11,-98.92 1477.93,-74.13"/>
<polygon fill="#63b8ff" stroke="#63b8ff" points="1478.86,-77.53 1488.17,-72.48 1477.74,-70.62 1478.86,-77.53"/>
</a>
</g>
</g>
<!-- Node12&#45;&gt;Node23 -->
<g id="edge25_Node000012_Node000023" class="edge">
<title>Node12&#45;&gt;Node23</title>
<g id="a_edge25_Node000012_Node000023"><a xlink:title=" ">
<path fill="none" stroke="#63b8ff" d="M1036.04,-109.98C1088.41,-100.7 1172.24,-85.84 1228.43,-75.88"/>
<polygon fill="#63b8ff" stroke="#63b8ff" points="1229.35,-79.27 1238.58,-74.08 1228.13,-72.38 1229.35,-79.27"/>
</a>
</g>
</g>
<!-- Node12&#45;&gt;Node24 -->
<g id="edge27_Node000012_Node000024" class="edge">
<title>Node12&#45;&gt;Node24</title>
<g id="a_edge27_Node000012_Node000024"><a xlink:title=" ">
<path fill="none" stroke="#63b8ff" d="M1056.22,-110.24C1126.62,-101.69 1239.93,-87.82 1347.25,-74.22"/>
<polygon fill="#63b8ff" stroke="#63b8ff" points="1347.8,-77.67 1357.28,-72.94 1346.92,-70.73 1347.8,-77.67"/>
</a>
</g>
</g>
<!-- Node25 -->
<g id="Node000025" class="node">
<title>Node25</title>
<g id="a_Node000025"><a xlink:title=" ">
<polygon fill="#e0e0e0" stroke="#999999" points="1216.5,-74 1163.5,-74 1163.5,-55 1216.5,-55 1216.5,-74"/>
<text text-anchor="middle" x="1190" y="-62" font-family="Helvetica,sans-Serif" font-size="10.00">QTimer</text>
</a>
</g>
</g>
<!-- Node12&#45;&gt;Node25 -->
<g id="edge28_Node000012_Node000025" class="edge">
<title>Node12&#45;&gt;Node25</title>
<g id="a_edge28_Node000012_Node000025"><a xlink:title=" ">
<path fill="none" stroke="#63b8ff" d="M1020.45,-109.98C1056.75,-100.46 1115.39,-85.08 1153.32,-75.12"/>
<polygon fill="#63b8ff" stroke="#63b8ff" points="1154.65,-78.39 1163.43,-72.47 1152.87,-71.62 1154.65,-78.39"/>
</a>
</g>
</g>
<!-- Node13&#45;&gt;Node7 -->
<g id="edge15_Node000013_Node000007" class="edge">
<title>Node13&#45;&gt;Node7</title>
<g id="a_edge15_Node000013_Node000007"><a xlink:title=" ">
<path fill="none" stroke="#63b8ff" d="M551.02,-54.98C482.24,-44.14 365.2,-25.67 305.85,-16.31"/>
<polygon fill="#63b8ff" stroke="#63b8ff" points="306.23,-12.83 295.81,-14.73 305.14,-19.74 306.23,-12.83"/>
</a>
</g>
</g>
<!-- Node13&#45;&gt;Node14 -->
<g id="edge14_Node000013_Node000014" class="edge">
<title>Node13&#45;&gt;Node14</title>
<g id="a_edge14_Node000013_Node000014"><a xlink:title=" ">
<path fill="none" stroke="#63b8ff" d="M588.29,-54.98C571.79,-46.57 546.3,-33.59 527.12,-23.81"/>
<polygon fill="#63b8ff" stroke="#63b8ff" points="528.51,-20.59 518.01,-19.17 525.33,-26.83 528.51,-20.59"/>
</a>
</g>
</g>
<!-- Node13&#45;&gt;Node15 -->
<g id="edge16_Node000013_Node000015" class="edge">
<title>Node13&#45;&gt;Node15</title>
<g id="a_edge16_Node000013_Node000015"><a xlink:title=" ">
<path fill="none" stroke="#63b8ff" d="M634.08,-54.98C667.95,-45.07 723.55,-28.79 757.27,-18.91"/>
<polygon fill="#63b8ff" stroke="#63b8ff" points="758.37,-22.24 766.99,-16.07 756.4,-15.52 758.37,-22.24"/>
</a>
</g>
</g>
<!-- Node16 -->
<g id="Node000016" class="node">
<title>Node16</title>
<g id="a_Node000016"><a xlink:title=" ">
<polygon fill="#e0e0e0" stroke="#999999" points="624.5,-19 569.5,-19 569.5,0 624.5,0 624.5,-19"/>
<text text-anchor="middle" x="597" y="-7" font-family="Helvetica,sans-Serif" font-size="10.00">QVector</text>
</a>
</g>
</g>
<!-- Node13&#45;&gt;Node16 -->
<g id="edge17_Node000013_Node000016" class="edge">
<title>Node13&#45;&gt;Node16</title>
<g id="a_edge17_Node000013_Node000016"><a xlink:title=" ">
<path fill="none" stroke="#63b8ff" d="M603.68,-54.75C602.63,-47.8 601.13,-37.85 599.81,-29.13"/>
<polygon fill="#63b8ff" stroke="#63b8ff" points="603.25,-28.45 598.3,-19.09 596.33,-29.5 603.25,-28.45"/>
</a>
</g>
</g>
<!-- Node17 -->
<g id="Node000017" class="node">
<title>Node17</title>
<g id="a_Node000017"><a xlink:title=" ">
<polygon fill="#e0e0e0" stroke="#999999" points="701.5,-19 642.5,-19 642.5,0 701.5,0 701.5,-19"/>
<text text-anchor="middle" x="672" y="-7" font-family="Helvetica,sans-Serif" font-size="10.00">QtGlobal</text>
</a>
</g>
</g>
<!-- Node13&#45;&gt;Node17 -->
<g id="edge18_Node000013_Node000017" class="edge">
<title>Node13&#45;&gt;Node17</title>
<g id="a_edge18_Node000013_Node000017"><a xlink:title=" ">
<path fill="none" stroke="#63b8ff" d="M615.76,-54.98C625.77,-47.07 640.89,-35.11 652.93,-25.58"/>
<polygon fill="#63b8ff" stroke="#63b8ff" points="655.37,-28.12 661.04,-19.17 651.03,-22.63 655.37,-28.12"/>
</a>
</g>
</g>
<!-- Node26&#45;&gt;Node22 -->
<g id="edge32_Node000026_Node000022" class="edge">
<title>Node26&#45;&gt;Node22</title>
<g id="a_edge32_Node000026_Node000022"><a xlink:title=" ">
<path fill="none" stroke="#63b8ff" d="M1301.57,-109.94C1344.78,-101.72 1411.75,-88.68 1478.3,-74.32"/>
<polygon fill="#63b8ff" stroke="#63b8ff" points="1479.08,-77.73 1488.11,-72.19 1477.6,-70.89 1479.08,-77.73"/>
</a>
</g>
</g>
<!-- Node27 -->
<g id="Node000027" class="node">
<title>Node27</title>
<g id="a_Node000027"><a xlink:title=" ">
<polygon fill="#e0e0e0" stroke="#999999" points="1648,-74 1562,-74 1562,-55 1648,-55 1648,-74"/>
<text text-anchor="middle" x="1605" y="-62" font-family="Helvetica,sans-Serif" font-size="10.00">QMutexLocker</text>
</a>
</g>
</g>
<!-- Node26&#45;&gt;Node27 -->
<g id="edge33_Node000026_Node000027" class="edge">
<title>Node26&#45;&gt;Node27</title>
<g id="a_edge33_Node000026_Node000027"><a xlink:title=" ">
<path fill="none" stroke="#63b8ff" d="M1314.36,-109.99C1372.11,-101.52 1463.31,-87.99 1551.92,-74.15"/>
<polygon fill="#63b8ff" stroke="#63b8ff" points="1552.54,-77.6 1561.88,-72.59 1551.46,-70.68 1552.54,-77.6"/>
</a>
</g>
</g>
</g>
</svg>
