<?xml version="1.0" encoding="UTF-8" standalone="no"?>
<!DOCTYPE svg PUBLIC "-//W3C//DTD SVG 1.1//EN"
 "http://www.w3.org/Graphics/SVG/1.1/DTD/svg11.dtd">
<!-- Generated by graphviz version 2.43.0 (0)
 -->
<!-- Title: workers/ProcessWorker.h Pages: 1 -->
<svg width="574pt" height="291pt"
 viewBox="0.00 0.00 574.00 291.00" xmlns="http://www.w3.org/2000/svg" xmlns:xlink="http://www.w3.org/1999/xlink">
<g id="graph0" class="graph" transform="scale(1 1) rotate(0) translate(4 287)">
<title>workers/ProcessWorker.h</title>
<!-- Node1 -->
<g id="Node000001" class="node">
<title>Node1</title>
<g id="a_Node000001"><a xlink:title=" ">
<polygon fill="#999999" stroke="#666666" points="307.5,-283 170.5,-283 170.5,-264 307.5,-264 307.5,-283"/>
<text text-anchor="middle" x="239" y="-271" font-family="Helvetica,sans-Serif" font-size="10.00">workers/ProcessWorker.h</text>
</a>
</g>
</g>
<!-- Node2 -->
<g id="Node000002" class="node">
<title>Node2</title>
<g id="a_Node000002"><a xlink:href="ExportService__Pipeline_8cpp.html" target="_top" xlink:title=" ">
<polygon fill="white" stroke="#666666" points="128,-96 0,-96 0,-66 128,-66 128,-96"/>
<text text-anchor="start" x="8" y="-84" font-family="Helvetica,sans-Serif" font-size="10.00">services/ExportService</text>
<text text-anchor="middle" x="64" y="-73" font-family="Helvetica,sans-Serif" font-size="10.00">_Pipeline.cpp</text>
</a>
</g>
</g>
<!-- Node1&#45;&gt;Node2 -->
<g id="edge1_Node000001_Node000002" class="edge">
<title>Node1&#45;&gt;Node2</title>
<g id="a_edge1_Node000001_Node000002"><a xlink:title=" ">
<path fill="none" stroke="#63b8ff" d="M210.32,-259.27C195.45,-251.51 177.59,-240.74 164,-228 120.51,-187.25 85.51,-124.42 71.1,-96.37"/>
<polygon fill="#63b8ff" stroke="#63b8ff" points="209.09,-262.56 219.6,-263.92 212.23,-256.3 209.09,-262.56"/>
</a>
</g>
</g>
<!-- Node3 -->
<g id="Node000003" class="node">
<title>Node3</title>
<g id="a_Node000003"><a xlink:href="ProcessStageHandler_8h.html" target="_top" xlink:title=" ">
<polygon fill="white" stroke="#666666" points="304.5,-228 173.5,-228 173.5,-198 304.5,-198 304.5,-228"/>
<text text-anchor="start" x="181.5" y="-216" font-family="Helvetica,sans-Serif" font-size="10.00">services/pipeline/stage</text>
<text text-anchor="middle" x="239" y="-205" font-family="Helvetica,sans-Serif" font-size="10.00">/ProcessStageHandler.h</text>
</a>
</g>
</g>
<!-- Node1&#45;&gt;Node3 -->
<g id="edge2_Node000001_Node000003" class="edge">
<title>Node1&#45;&gt;Node3</title>
<g id="a_edge2_Node000001_Node000003"><a xlink:title=" ">
<path fill="none" stroke="#63b8ff" d="M239,-253.65C239,-245.36 239,-235.78 239,-228.11"/>
<polygon fill="#63b8ff" stroke="#63b8ff" points="235.5,-253.87 239,-263.87 242.5,-253.87 235.5,-253.87"/>
</a>
</g>
</g>
<!-- Node10 -->
<g id="Node000010" class="node">
<title>Node10</title>
<g id="a_Node000010"><a xlink:href="ProcessWorker_8cpp.html" target="_top" xlink:title=" ">
<polygon fill="white" stroke="#666666" points="471.5,-222.5 322.5,-222.5 322.5,-203.5 471.5,-203.5 471.5,-222.5"/>
<text text-anchor="middle" x="397" y="-210.5" font-family="Helvetica,sans-Serif" font-size="10.00">workers/ProcessWorker.cpp</text>
</a>
</g>
</g>
<!-- Node1&#45;&gt;Node10 -->
<g id="edge12_Node000001_Node000010" class="edge">
<title>Node1&#45;&gt;Node10</title>
<g id="a_edge12_Node000001_Node000010"><a xlink:title=" ">
<path fill="none" stroke="#63b8ff" d="M271.74,-260.38C302.28,-249.07 347.07,-232.49 374,-222.52"/>
<polygon fill="#63b8ff" stroke="#63b8ff" points="270.14,-257.24 261.97,-263.99 272.57,-263.8 270.14,-257.24"/>
</a>
</g>
</g>
<!-- Node4 -->
<g id="Node000004" class="node">
<title>Node4</title>
<g id="a_Node000004"><a xlink:href="ExportService__Pipeline_8h.html" target="_top" xlink:title=" ">
<polygon fill="white" stroke="#666666" points="303,-162 175,-162 175,-132 303,-132 303,-162"/>
<text text-anchor="start" x="183" y="-150" font-family="Helvetica,sans-Serif" font-size="10.00">services/ExportService</text>
<text text-anchor="middle" x="239" y="-139" font-family="Helvetica,sans-Serif" font-size="10.00">_Pipeline.h</text>
</a>
</g>
</g>
<!-- Node3&#45;&gt;Node4 -->
<g id="edge3_Node000003_Node000004" class="edge">
<title>Node3&#45;&gt;Node4</title>
<g id="a_edge3_Node000003_Node000004"><a xlink:title=" ">
<path fill="none" stroke="#63b8ff" d="M239,-187.54C239,-178.96 239,-169.61 239,-162.16"/>
<polygon fill="#63b8ff" stroke="#63b8ff" points="235.5,-187.8 239,-197.8 242.5,-187.8 235.5,-187.8"/>
</a>
</g>
</g>
<!-- Node9 -->
<g id="Node000009" class="node">
<title>Node9</title>
<g id="a_Node000009"><a xlink:href="ProcessStageHandler_8cpp.html" target="_top" xlink:title=" ">
<polygon fill="white" stroke="#666666" points="464.5,-162 321.5,-162 321.5,-132 464.5,-132 464.5,-162"/>
<text text-anchor="start" x="329.5" y="-150" font-family="Helvetica,sans-Serif" font-size="10.00">services/pipeline/stage</text>
<text text-anchor="middle" x="393" y="-139" font-family="Helvetica,sans-Serif" font-size="10.00">/ProcessStageHandler.cpp</text>
</a>
</g>
</g>
<!-- Node3&#45;&gt;Node9 -->
<g id="edge11_Node000003_Node000009" class="edge">
<title>Node3&#45;&gt;Node9</title>
<g id="a_edge11_Node000003_Node000009"><a xlink:title=" ">
<path fill="none" stroke="#63b8ff" d="M282.18,-194.05C306.58,-183.91 336.63,-171.43 359.28,-162.01"/>
<polygon fill="#63b8ff" stroke="#63b8ff" points="280.69,-190.89 272.8,-197.95 283.37,-197.35 280.69,-190.89"/>
</a>
</g>
</g>
<!-- Node4&#45;&gt;Node2 -->
<g id="edge5_Node000004_Node000002" class="edge">
<title>Node4&#45;&gt;Node2</title>
<g id="a_edge5_Node000004_Node000002"><a xlink:title=" ">
<path fill="none" stroke="#63b8ff" d="M191.03,-128.46C163.11,-118.25 128.4,-105.55 102.31,-96.01"/>
<polygon fill="#63b8ff" stroke="#63b8ff" points="190,-131.81 200.6,-131.95 192.41,-125.23 190,-131.81"/>
</a>
</g>
</g>
<!-- Node5 -->
<g id="Node000005" class="node">
<title>Node5</title>
<g id="a_Node000005"><a xlink:href="main_8cpp.html" target="_top" xlink:title=" ">
<polygon fill="white" stroke="#666666" points="231,-24.5 169,-24.5 169,-5.5 231,-5.5 231,-24.5"/>
<text text-anchor="middle" x="200" y="-12.5" font-family="Helvetica,sans-Serif" font-size="10.00">main.cpp</text>
</a>
</g>
</g>
<!-- Node4&#45;&gt;Node5 -->
<g id="edge4_Node000004_Node000005" class="edge">
<title>Node4&#45;&gt;Node5</title>
<g id="a_edge4_Node000004_Node000005"><a xlink:title=" ">
<path fill="none" stroke="#63b8ff" d="M202.61,-126.37C191.68,-118.49 181.01,-108.32 175,-96 163.01,-71.41 182.11,-39.79 193.11,-24.73"/>
<polygon fill="#63b8ff" stroke="#63b8ff" points="200.69,-129.3 210.95,-131.95 204.59,-123.48 200.69,-129.3"/>
</a>
</g>
</g>
<!-- Node6 -->
<g id="Node000006" class="node">
<title>Node6</title>
<g id="a_Node000006"><a xlink:href="ExportProgressViewModel_8cpp.html" target="_top" xlink:title=" ">
<polygon fill="white" stroke="#666666" points="435,-30 271,-30 271,0 435,0 435,-30"/>
<text text-anchor="start" x="279" y="-18" font-family="Helvetica,sans-Serif" font-size="10.00">ui/viewmodels/ExportProgress</text>
<text text-anchor="middle" x="353" y="-7" font-family="Helvetica,sans-Serif" font-size="10.00">ViewModel.cpp</text>
</a>
</g>
</g>
<!-- Node4&#45;&gt;Node6 -->
<g id="edge6_Node000004_Node000006" class="edge">
<title>Node4&#45;&gt;Node6</title>
<g id="a_edge6_Node000004_Node000006"><a xlink:title=" ">
<path fill="none" stroke="#63b8ff" d="M312.76,-129.93C330.12,-122.52 346.58,-111.73 357,-96 370.13,-76.17 363.94,-47.14 358.37,-30.05"/>
<polygon fill="#63b8ff" stroke="#63b8ff" points="311.11,-126.82 303.05,-133.7 313.64,-133.34 311.11,-126.82"/>
</a>
</g>
</g>
<!-- Node7 -->
<g id="Node000007" class="node">
<title>Node7</title>
<g id="a_Node000007"><a xlink:href="ExportProgressViewModel_8h.html" target="_top" xlink:title=" ">
<polygon fill="white" stroke="#666666" points="348,-96 184,-96 184,-66 348,-66 348,-96"/>
<text text-anchor="start" x="192" y="-84" font-family="Helvetica,sans-Serif" font-size="10.00">ui/viewmodels/ExportProgress</text>
<text text-anchor="middle" x="266" y="-73" font-family="Helvetica,sans-Serif" font-size="10.00">ViewModel.h</text>
</a>
</g>
</g>
<!-- Node4&#45;&gt;Node7 -->
<g id="edge7_Node000004_Node000007" class="edge">
<title>Node4&#45;&gt;Node7</title>
<g id="a_edge7_Node000004_Node000007"><a xlink:title=" ">
<path fill="none" stroke="#63b8ff" d="M248.96,-122.39C252.67,-113.59 256.78,-103.86 260.02,-96.16"/>
<polygon fill="#63b8ff" stroke="#63b8ff" points="245.65,-121.22 244.99,-131.8 252.1,-123.94 245.65,-121.22"/>
</a>
</g>
</g>
<!-- Node8 -->
<g id="Node000008" class="node">
<title>Node8</title>
<g id="a_Node000008"><a xlink:href="ExportSettingsViewModel_8cpp.html" target="_top" xlink:title=" ">
<polygon fill="white" stroke="#666666" points="566,-96 404,-96 404,-66 566,-66 566,-96"/>
<text text-anchor="start" x="412" y="-84" font-family="Helvetica,sans-Serif" font-size="10.00">ui/viewmodels/ExportSettings</text>
<text text-anchor="middle" x="485" y="-73" font-family="Helvetica,sans-Serif" font-size="10.00">ViewModel.cpp</text>
</a>
</g>
</g>
<!-- Node4&#45;&gt;Node8 -->
<g id="edge10_Node000004_Node000008" class="edge">
<title>Node4&#45;&gt;Node8</title>
<g id="a_edge10_Node000004_Node000008"><a xlink:title=" ">
<path fill="none" stroke="#63b8ff" d="M302.86,-129.39C342.68,-119.03 393.36,-105.84 431.14,-96.01"/>
<polygon fill="#63b8ff" stroke="#63b8ff" points="301.78,-126.05 292.99,-131.95 303.54,-132.82 301.78,-126.05"/>
</a>
</g>
</g>
<!-- Node7&#45;&gt;Node5 -->
<g id="edge8_Node000007_Node000005" class="edge">
<title>Node7&#45;&gt;Node5</title>
<g id="a_edge8_Node000007_Node000005"><a xlink:title=" ">
<path fill="none" stroke="#63b8ff" d="M243.94,-58.6C232.07,-47.1 218.07,-33.52 209.12,-24.84"/>
<polygon fill="#63b8ff" stroke="#63b8ff" points="241.74,-61.35 251.35,-65.8 246.61,-56.32 241.74,-61.35"/>
</a>
</g>
</g>
<!-- Node7&#45;&gt;Node6 -->
<g id="edge9_Node000007_Node000006" class="edge">
<title>Node7&#45;&gt;Node6</title>
<g id="a_edge9_Node000007_Node000006"><a xlink:title=" ">
<path fill="none" stroke="#63b8ff" d="M293.52,-59.75C306.61,-50.13 321.93,-38.86 333.75,-30.16"/>
<polygon fill="#63b8ff" stroke="#63b8ff" points="291.29,-57.05 285.31,-65.8 295.44,-62.69 291.29,-57.05"/>
</a>
</g>
</g>
</g>
</svg>
