<?xml version="1.0" encoding="UTF-8" standalone="no"?>
<!DOCTYPE svg PUBLIC "-//W3C//DTD SVG 1.1//EN"
 "http://www.w3.org/Graphics/SVG/1.1/DTD/svg11.dtd">
<!-- Generated by graphviz version 2.43.0 (0)
 -->
<!-- Title: services/pipeline/stage/ProcessStageHandler.h Pages: 1 -->
<svg width="551pt" height="236pt"
 viewBox="0.00 0.00 551.37 236.00" xmlns="http://www.w3.org/2000/svg" xmlns:xlink="http://www.w3.org/1999/xlink">
<g id="graph0" class="graph" transform="scale(1 1) rotate(0) translate(4 232)">
<title>services/pipeline/stage/ProcessStageHandler.h</title>
<!-- Node1 -->
<g id="Node000001" class="node">
<title>Node1</title>
<g id="a_Node000001"><a xlink:title=" ">
<polygon fill="#999999" stroke="#666666" points="385.87,-228 254.87,-228 254.87,-198 385.87,-198 385.87,-228"/>
<text text-anchor="start" x="262.87" y="-216" font-family="Helvetica,sans-Serif" font-size="10.00">services/pipeline/stage</text>
<text text-anchor="middle" x="320.37" y="-205" font-family="Helvetica,sans-Serif" font-size="10.00">/ProcessStageHandler.h</text>
</a>
</g>
</g>
<!-- Node2 -->
<g id="Node000002" class="node">
<title>Node2</title>
<g id="a_Node000002"><a xlink:href="ExportService__Pipeline_8h.html" target="_top" xlink:title=" ">
<polygon fill="white" stroke="#666666" points="307.37,-162 179.37,-162 179.37,-132 307.37,-132 307.37,-162"/>
<text text-anchor="start" x="187.37" y="-150" font-family="Helvetica,sans-Serif" font-size="10.00">services/ExportService</text>
<text text-anchor="middle" x="243.37" y="-139" font-family="Helvetica,sans-Serif" font-size="10.00">_Pipeline.h</text>
</a>
</g>
</g>
<!-- Node1&#45;&gt;Node2 -->
<g id="edge1_Node000001_Node000002" class="edge">
<title>Node1&#45;&gt;Node2</title>
<g id="a_edge1_Node000001_Node000002"><a xlink:title=" ">
<path fill="none" stroke="#63b8ff" d="M295.35,-191.2C283.91,-181.7 270.67,-170.69 260.41,-162.16"/>
<polygon fill="#63b8ff" stroke="#63b8ff" points="293.35,-194.1 303.28,-197.8 297.83,-188.71 293.35,-194.1"/>
</a>
</g>
</g>
<!-- Node8 -->
<g id="Node000008" class="node">
<title>Node8</title>
<g id="a_Node000008"><a xlink:href="ProcessStageHandler_8cpp.html" target="_top" xlink:title=" ">
<polygon fill="white" stroke="#666666" points="468.87,-162 325.87,-162 325.87,-132 468.87,-132 468.87,-162"/>
<text text-anchor="start" x="333.87" y="-150" font-family="Helvetica,sans-Serif" font-size="10.00">services/pipeline/stage</text>
<text text-anchor="middle" x="397.37" y="-139" font-family="Helvetica,sans-Serif" font-size="10.00">/ProcessStageHandler.cpp</text>
</a>
</g>
</g>
<!-- Node1&#45;&gt;Node8 -->
<g id="edge9_Node000001_Node000008" class="edge">
<title>Node1&#45;&gt;Node8</title>
<g id="a_edge9_Node000001_Node000008"><a xlink:title=" ">
<path fill="none" stroke="#63b8ff" d="M345.39,-191.2C356.82,-181.7 370.07,-170.69 380.33,-162.16"/>
<polygon fill="#63b8ff" stroke="#63b8ff" points="342.91,-188.71 337.46,-197.8 347.38,-194.1 342.91,-188.71"/>
</a>
</g>
</g>
<!-- Node3 -->
<g id="Node000003" class="node">
<title>Node3</title>
<g id="a_Node000003"><a xlink:href="main_8cpp.html" target="_top" xlink:title=" ">
<polygon fill="white" stroke="#666666" points="136.37,-24.5 74.37,-24.5 74.37,-5.5 136.37,-5.5 136.37,-24.5"/>
<text text-anchor="middle" x="105.37" y="-12.5" font-family="Helvetica,sans-Serif" font-size="10.00">main.cpp</text>
</a>
</g>
</g>
<!-- Node2&#45;&gt;Node3 -->
<g id="edge2_Node000002_Node000003" class="edge">
<title>Node2&#45;&gt;Node3</title>
<g id="a_edge2_Node000002_Node000003"><a xlink:title=" ">
<path fill="none" stroke="#63b8ff" d="M169.25,-140.39C107.56,-134 26.66,-121.02 6.37,-96 -18.83,-64.94 41.1,-37.81 78.37,-24.58"/>
<polygon fill="#63b8ff" stroke="#63b8ff" points="169.06,-143.89 179.36,-141.4 169.76,-136.93 169.06,-143.89"/>
</a>
</g>
</g>
<!-- Node4 -->
<g id="Node000004" class="node">
<title>Node4</title>
<g id="a_Node000004"><a xlink:href="ExportService__Pipeline_8cpp.html" target="_top" xlink:title=" ">
<polygon fill="white" stroke="#666666" points="143.37,-96 15.37,-96 15.37,-66 143.37,-66 143.37,-96"/>
<text text-anchor="start" x="23.37" y="-84" font-family="Helvetica,sans-Serif" font-size="10.00">services/ExportService</text>
<text text-anchor="middle" x="79.37" y="-73" font-family="Helvetica,sans-Serif" font-size="10.00">_Pipeline.cpp</text>
</a>
</g>
</g>
<!-- Node2&#45;&gt;Node4 -->
<g id="edge3_Node000002_Node000004" class="edge">
<title>Node2&#45;&gt;Node4</title>
<g id="a_edge3_Node000002_Node000004"><a xlink:title=" ">
<path fill="none" stroke="#63b8ff" d="M197.73,-128.19C171.68,-118.02 139.5,-105.47 115.28,-96.01"/>
<polygon fill="#63b8ff" stroke="#63b8ff" points="196.79,-131.58 207.38,-131.95 199.33,-125.06 196.79,-131.58"/>
</a>
</g>
</g>
<!-- Node5 -->
<g id="Node000005" class="node">
<title>Node5</title>
<g id="a_Node000005"><a xlink:href="ExportProgressViewModel_8cpp.html" target="_top" xlink:title=" ">
<polygon fill="white" stroke="#666666" points="380.37,-30 216.37,-30 216.37,0 380.37,0 380.37,-30"/>
<text text-anchor="start" x="224.37" y="-18" font-family="Helvetica,sans-Serif" font-size="10.00">ui/viewmodels/ExportProgress</text>
<text text-anchor="middle" x="298.37" y="-7" font-family="Helvetica,sans-Serif" font-size="10.00">ViewModel.cpp</text>
</a>
</g>
</g>
<!-- Node2&#45;&gt;Node5 -->
<g id="edge4_Node000002_Node000005" class="edge">
<title>Node2&#45;&gt;Node5</title>
<g id="a_edge4_Node000002_Node000005"><a xlink:title=" ">
<path fill="none" stroke="#63b8ff" d="M298.79,-127.45C312.84,-119.97 326.24,-109.75 334.37,-96 347.4,-73.98 327.82,-46.41 312.82,-30.05"/>
<polygon fill="#63b8ff" stroke="#63b8ff" points="296.95,-124.45 289.51,-131.99 300.03,-130.74 296.95,-124.45"/>
</a>
</g>
</g>
<!-- Node6 -->
<g id="Node000006" class="node">
<title>Node6</title>
<g id="a_Node000006"><a xlink:href="ExportProgressViewModel_8h.html" target="_top" xlink:title=" ">
<polygon fill="white" stroke="#666666" points="325.37,-96 161.37,-96 161.37,-66 325.37,-66 325.37,-96"/>
<text text-anchor="start" x="169.37" y="-84" font-family="Helvetica,sans-Serif" font-size="10.00">ui/viewmodels/ExportProgress</text>
<text text-anchor="middle" x="243.37" y="-73" font-family="Helvetica,sans-Serif" font-size="10.00">ViewModel.h</text>
</a>
</g>
</g>
<!-- Node2&#45;&gt;Node6 -->
<g id="edge5_Node000002_Node000006" class="edge">
<title>Node2&#45;&gt;Node6</title>
<g id="a_edge5_Node000002_Node000006"><a xlink:title=" ">
<path fill="none" stroke="#63b8ff" d="M243.37,-121.54C243.37,-112.96 243.37,-103.61 243.37,-96.16"/>
<polygon fill="#63b8ff" stroke="#63b8ff" points="239.87,-121.8 243.37,-131.8 246.87,-121.8 239.87,-121.8"/>
</a>
</g>
</g>
<!-- Node7 -->
<g id="Node000007" class="node">
<title>Node7</title>
<g id="a_Node000007"><a xlink:href="ExportSettingsViewModel_8cpp.html" target="_top" xlink:title=" ">
<polygon fill="white" stroke="#666666" points="543.37,-96 381.37,-96 381.37,-66 543.37,-66 543.37,-96"/>
<text text-anchor="start" x="389.37" y="-84" font-family="Helvetica,sans-Serif" font-size="10.00">ui/viewmodels/ExportSettings</text>
<text text-anchor="middle" x="462.37" y="-73" font-family="Helvetica,sans-Serif" font-size="10.00">ViewModel.cpp</text>
</a>
</g>
</g>
<!-- Node2&#45;&gt;Node7 -->
<g id="edge8_Node000002_Node000007" class="edge">
<title>Node2&#45;&gt;Node7</title>
<g id="a_edge8_Node000002_Node000007"><a xlink:title=" ">
<path fill="none" stroke="#63b8ff" d="M301.12,-129.12C336.44,-118.8 381.07,-105.76 414.42,-96.01"/>
<polygon fill="#63b8ff" stroke="#63b8ff" points="300.05,-125.79 291.43,-131.95 302.01,-132.51 300.05,-125.79"/>
</a>
</g>
</g>
<!-- Node6&#45;&gt;Node3 -->
<g id="edge6_Node000006_Node000003" class="edge">
<title>Node6&#45;&gt;Node3</title>
<g id="a_edge6_Node000006_Node000003"><a xlink:title=" ">
<path fill="none" stroke="#63b8ff" d="M203.74,-61.62C177.4,-49.41 144.05,-33.94 123.73,-24.52"/>
<polygon fill="#63b8ff" stroke="#63b8ff" points="202.54,-64.92 213.08,-65.95 205.48,-58.57 202.54,-64.92"/>
</a>
</g>
</g>
<!-- Node6&#45;&gt;Node5 -->
<g id="edge7_Node000006_Node000005" class="edge">
<title>Node6&#45;&gt;Node5</title>
<g id="a_edge7_Node000006_Node000005"><a xlink:title=" ">
<path fill="none" stroke="#63b8ff" d="M262.2,-58.09C270.14,-48.85 279.15,-38.36 286.2,-30.16"/>
<polygon fill="#63b8ff" stroke="#63b8ff" points="259.44,-55.93 255.57,-65.8 264.75,-60.49 259.44,-55.93"/>
</a>
</g>
</g>
</g>
</svg>
