<?xml version="1.0" encoding="UTF-8" standalone="no"?>
<!DOCTYPE svg PUBLIC "-//W3C//DTD SVG 1.1//EN"
 "http://www.w3.org/Graphics/SVG/1.1/DTD/svg11.dtd">
<!-- Generated by graphviz version 2.43.0 (0)
 -->
<!-- Title: services/pipeline/stage/ProcessStageHandler.h Pages: 1 -->
<svg width="1003pt" height="390pt"
 viewBox="0.00 0.00 1002.79 390.00" xmlns="http://www.w3.org/2000/svg" xmlns:xlink="http://www.w3.org/1999/xlink">
<g id="graph0" class="graph" transform="scale(1 1) rotate(0) translate(4 386)">
<title>services/pipeline/stage/ProcessStageHandler.h</title>
<!-- Node1 -->
<g id="Node000001" class="node">
<title>Node1</title>
<g id="a_Node000001"><a xlink:title=" ">
<polygon fill="#999999" stroke="#666666" points="781.79,-382 650.79,-382 650.79,-352 781.79,-352 781.79,-382"/>
<text text-anchor="start" x="658.79" y="-370" font-family="Helvetica,sans-Serif" font-size="10.00">services/pipeline/stage</text>
<text text-anchor="middle" x="716.29" y="-359" font-family="Helvetica,sans-Serif" font-size="10.00">/ProcessStageHandler.h</text>
</a>
</g>
</g>
<!-- Node2 -->
<g id="Node000002" class="node">
<title>Node2</title>
<g id="a_Node000002"><a xlink:href="ComponentExportStatus_8h.html" target="_top" xlink:title=" ">
<polygon fill="white" stroke="#666666" points="480.79,-250 341.79,-250 341.79,-220 480.79,-220 480.79,-250"/>
<text text-anchor="start" x="349.79" y="-238" font-family="Helvetica,sans-Serif" font-size="10.00">../../../models/Component</text>
<text text-anchor="middle" x="411.29" y="-227" font-family="Helvetica,sans-Serif" font-size="10.00">ExportStatus.h</text>
</a>
</g>
</g>
<!-- Node1&#45;&gt;Node2 -->
<g id="edge1_Node000001_Node000002" class="edge">
<title>Node1&#45;&gt;Node2</title>
<g id="a_edge1_Node000001_Node000002"><a xlink:title=" ">
<path fill="none" stroke="#63b8ff" d="M650.74,-352.2C616.93,-343.89 575.49,-331.82 540.29,-316 517.69,-305.84 514.32,-299.12 493.29,-286 477.01,-275.84 458.79,-264.71 443.67,-255.53"/>
<polygon fill="#63b8ff" stroke="#63b8ff" points="445.06,-252.29 434.7,-250.1 441.44,-258.27 445.06,-252.29"/>
</a>
</g>
</g>
<!-- Node17 -->
<g id="Node000017" class="node">
<title>Node17</title>
<g id="a_Node000017"><a xlink:href="ProcessWorker_8h.html" target="_top" xlink:title=" ">
<polygon fill="white" stroke="#666666" points="484.29,-316 362.29,-316 362.29,-286 484.29,-286 484.29,-316"/>
<text text-anchor="start" x="370.29" y="-304" font-family="Helvetica,sans-Serif" font-size="10.00">../../../workers/Process</text>
<text text-anchor="middle" x="423.29" y="-293" font-family="Helvetica,sans-Serif" font-size="10.00">Worker.h</text>
</a>
</g>
</g>
<!-- Node1&#45;&gt;Node17 -->
<g id="edge32_Node000001_Node000017" class="edge">
<title>Node1&#45;&gt;Node17</title>
<g id="a_edge32_Node000001_Node000017"><a xlink:title=" ">
<path fill="none" stroke="#63b8ff" d="M651.99,-351.95C605.44,-341.79 542.52,-328.04 494.45,-317.54"/>
<polygon fill="#63b8ff" stroke="#63b8ff" points="494.95,-314.07 484.44,-315.36 493.46,-320.91 494.95,-314.07"/>
</a>
</g>
</g>
<!-- Node20 -->
<g id="Node000020" class="node">
<title>Node20</title>
<g id="a_Node000020"><a xlink:href="PipelineQueueManager_8h.html" target="_top" xlink:title=" ">
<polygon fill="white" stroke="#666666" points="729.29,-310.5 549.29,-310.5 549.29,-291.5 729.29,-291.5 729.29,-310.5"/>
<text text-anchor="middle" x="639.29" y="-298.5" font-family="Helvetica,sans-Serif" font-size="10.00">../queue/PipelineQueueManager.h</text>
</a>
</g>
</g>
<!-- Node1&#45;&gt;Node20 -->
<g id="edge36_Node000001_Node000020" class="edge">
<title>Node1&#45;&gt;Node20</title>
<g id="a_edge36_Node000001_Node000020"><a xlink:title=" ">
<path fill="none" stroke="#63b8ff" d="M699.2,-351.8C686.96,-341.62 670.49,-327.93 657.92,-317.48"/>
<polygon fill="#63b8ff" stroke="#63b8ff" points="659.86,-314.54 649.93,-310.84 655.39,-319.93 659.86,-314.54"/>
</a>
</g>
</g>
<!-- Node26 -->
<g id="Node000026" class="node">
<title>Node26</title>
<g id="a_Node000026"><a xlink:href="StageHandler_8h.html" target="_top" xlink:title=" ">
<polygon fill="white" stroke="#666666" points="838.79,-310.5 747.79,-310.5 747.79,-291.5 838.79,-291.5 838.79,-310.5"/>
<text text-anchor="middle" x="793.29" y="-298.5" font-family="Helvetica,sans-Serif" font-size="10.00">StageHandler.h</text>
</a>
</g>
</g>
<!-- Node1&#45;&gt;Node26 -->
<g id="edge46_Node000001_Node000026" class="edge">
<title>Node1&#45;&gt;Node26</title>
<g id="a_edge46_Node000001_Node000026"><a xlink:title=" ">
<path fill="none" stroke="#63b8ff" d="M733.38,-351.8C745.62,-341.62 762.09,-327.93 774.67,-317.48"/>
<polygon fill="#63b8ff" stroke="#63b8ff" points="777.2,-319.93 782.65,-310.84 772.72,-314.54 777.2,-319.93"/>
</a>
</g>
</g>
<!-- Node27 -->
<g id="Node000027" class="node">
<title>Node27</title>
<g id="a_Node000027"><a xlink:title=" ">
<polygon fill="#e0e0e0" stroke="#999999" points="897.29,-310.5 857.29,-310.5 857.29,-291.5 897.29,-291.5 897.29,-310.5"/>
<text text-anchor="middle" x="877.29" y="-298.5" font-family="Helvetica,sans-Serif" font-size="10.00">QSet</text>
</a>
</g>
</g>
<!-- Node1&#45;&gt;Node27 -->
<g id="edge50_Node000001_Node000027" class="edge">
<title>Node1&#45;&gt;Node27</title>
<g id="a_edge50_Node000001_Node000027"><a xlink:title=" ">
<path fill="none" stroke="#63b8ff" d="M756.22,-351.91C782.59,-342.35 817.78,-329.11 848.29,-316 849.15,-315.63 850.01,-315.25 850.88,-314.87"/>
<polygon fill="#63b8ff" stroke="#63b8ff" points="852.63,-317.92 860.23,-310.54 849.69,-311.56 852.63,-317.92"/>
</a>
</g>
</g>
<!-- Node28 -->
<g id="Node000028" class="node">
<title>Node28</title>
<g id="a_Node000028"><a xlink:title=" ">
<polygon fill="#e0e0e0" stroke="#999999" points="994.79,-310.5 915.79,-310.5 915.79,-291.5 994.79,-291.5 994.79,-310.5"/>
<text text-anchor="middle" x="955.29" y="-298.5" font-family="Helvetica,sans-Serif" font-size="10.00">QThreadPool</text>
</a>
</g>
</g>
<!-- Node1&#45;&gt;Node28 -->
<g id="edge51_Node000001_Node000028" class="edge">
<title>Node1&#45;&gt;Node28</title>
<g id="a_edge51_Node000001_Node000028"><a xlink:title=" ">
<path fill="none" stroke="#63b8ff" d="M770.84,-351.97C808.86,-342.11 860.73,-328.5 906.29,-316 909.45,-315.13 912.72,-314.23 916,-313.31"/>
<polygon fill="#63b8ff" stroke="#63b8ff" points="917.11,-316.63 925.78,-310.54 915.21,-309.89 917.11,-316.63"/>
</a>
</g>
</g>
<!-- Node3 -->
<g id="Node000003" class="node">
<title>Node3</title>
<g id="a_Node000003"><a xlink:href="ComponentData_8h.html" target="_top" xlink:title=" ">
<polygon fill="white" stroke="#666666" points="482.29,-184 338.29,-184 338.29,-165 482.29,-165 482.29,-184"/>
<text text-anchor="middle" x="410.29" y="-172" font-family="Helvetica,sans-Serif" font-size="10.00">models/ComponentData.h</text>
</a>
</g>
</g>
<!-- Node2&#45;&gt;Node3 -->
<g id="edge2_Node000002_Node000003" class="edge">
<title>Node2&#45;&gt;Node3</title>
<g id="a_edge2_Node000002_Node000003"><a xlink:title=" ">
<path fill="none" stroke="#63b8ff" d="M411.05,-219.84C410.92,-212.21 410.76,-202.7 410.62,-194.45"/>
<polygon fill="#63b8ff" stroke="#63b8ff" points="414.11,-194.2 410.44,-184.27 407.11,-194.32 414.11,-194.2"/>
</a>
</g>
</g>
<!-- Node4 -->
<g id="Node000004" class="node">
<title>Node4</title>
<g id="a_Node000004"><a xlink:href="FootprintData_8h.html" target="_top" xlink:title=" ">
<polygon fill="white" stroke="#666666" points="331.29,-129 239.29,-129 239.29,-110 331.29,-110 331.29,-129"/>
<text text-anchor="middle" x="285.29" y="-117" font-family="Helvetica,sans-Serif" font-size="10.00">FootprintData.h</text>
</a>
</g>
</g>
<!-- Node2&#45;&gt;Node4 -->
<g id="edge25_Node000002_Node000004" class="edge">
<title>Node2&#45;&gt;Node4</title>
<g id="a_edge25_Node000002_Node000004"><a xlink:title=" ">
<path fill="none" stroke="#63b8ff" d="M381.94,-219.98C365.32,-211.14 344.82,-198.64 329.29,-184 315,-170.52 302.66,-151.68 294.72,-138.03"/>
<polygon fill="#63b8ff" stroke="#63b8ff" points="297.69,-136.16 289.74,-129.15 291.58,-139.59 297.69,-136.16"/>
</a>
</g>
</g>
<!-- Node5 -->
<g id="Node000005" class="node">
<title>Node5</title>
<g id="a_Node000005"><a xlink:href="Model3DData_8h.html" target="_top" xlink:title=" ">
<polygon fill="white" stroke="#666666" points="593.29,-74 501.29,-74 501.29,-55 593.29,-55 593.29,-74"/>
<text text-anchor="middle" x="547.29" y="-62" font-family="Helvetica,sans-Serif" font-size="10.00">Model3DData.h</text>
</a>
</g>
</g>
<!-- Node2&#45;&gt;Node5 -->
<g id="edge26_Node000002_Node000005" class="edge">
<title>Node2&#45;&gt;Node5</title>
<g id="a_edge26_Node000002_Node000005"><a xlink:title=" ">
<path fill="none" stroke="#63b8ff" d="M442.4,-219.93C458.6,-211.38 477.8,-199.18 491.29,-184 505.36,-168.17 528.58,-112.71 540.2,-83.62"/>
<polygon fill="#63b8ff" stroke="#63b8ff" points="543.5,-84.81 543.92,-74.22 536.99,-82.23 543.5,-84.81"/>
</a>
</g>
</g>
<!-- Node8 -->
<g id="Node000008" class="node">
<title>Node8</title>
<g id="a_Node000008"><a xlink:title=" ">
<polygon fill="#e0e0e0" stroke="#999999" points="295.79,-19 242.79,-19 242.79,0 295.79,0 295.79,-19"/>
<text text-anchor="middle" x="269.29" y="-7" font-family="Helvetica,sans-Serif" font-size="10.00">QString</text>
</a>
</g>
</g>
<!-- Node2&#45;&gt;Node8 -->
<g id="edge31_Node000002_Node000008" class="edge">
<title>Node2&#45;&gt;Node8</title>
<g id="a_edge31_Node000002_Node000008"><a xlink:title=" ">
<path fill="none" stroke="#63b8ff" d="M341.53,-221.48C338.41,-220.97 335.32,-220.48 332.29,-220 215.74,-201.7 167.77,-248.97 69.29,-184 21.7,-152.6 18.51,-128.95 3.29,-74 1.04,-65.86 -2.16,-61.44 3.29,-55 32.17,-20.9 165.86,-12.91 232.01,-11.05"/>
<polygon fill="#63b8ff" stroke="#63b8ff" points="232.49,-14.54 242.4,-10.8 232.32,-7.54 232.49,-14.54"/>
</a>
</g>
</g>
<!-- Node12 -->
<g id="Node000012" class="node">
<title>Node12</title>
<g id="a_Node000012"><a xlink:href="SymbolData_8h.html" target="_top" xlink:title=" ">
<polygon fill="white" stroke="#666666" points="209.29,-129 123.29,-129 123.29,-110 209.29,-110 209.29,-129"/>
<text text-anchor="middle" x="166.29" y="-117" font-family="Helvetica,sans-Serif" font-size="10.00">SymbolData.h</text>
</a>
</g>
</g>
<!-- Node2&#45;&gt;Node12 -->
<g id="edge27_Node000002_Node000012" class="edge">
<title>Node2&#45;&gt;Node12</title>
<g id="a_edge27_Node000002_Node000012"><a xlink:title=" ">
<path fill="none" stroke="#63b8ff" d="M380.76,-219.85C332.74,-197.61 240.28,-154.77 194.04,-133.36"/>
<polygon fill="#63b8ff" stroke="#63b8ff" points="195.45,-130.15 184.91,-129.12 192.51,-136.5 195.45,-130.15"/>
</a>
</g>
</g>
<!-- Node14 -->
<g id="Node000014" class="node">
<title>Node14</title>
<g id="a_Node000014"><a xlink:title=" ">
<polygon fill="#e0e0e0" stroke="#999999" points="631.29,-129 539.29,-129 539.29,-110 631.29,-110 631.29,-129"/>
<text text-anchor="middle" x="585.29" y="-117" font-family="Helvetica,sans-Serif" font-size="10.00">QSharedPointer</text>
</a>
</g>
</g>
<!-- Node2&#45;&gt;Node14 -->
<g id="edge30_Node000002_Node000014" class="edge">
<title>Node2&#45;&gt;Node14</title>
<g id="a_edge30_Node000002_Node000014"><a xlink:title=" ">
<path fill="none" stroke="#63b8ff" d="M453.33,-219.9C475.53,-211.37 502.59,-199.2 524.29,-184 543.16,-170.78 560.96,-151.12 572.4,-137.18"/>
<polygon fill="#63b8ff" stroke="#63b8ff" points="575.15,-139.35 578.66,-129.35 569.68,-134.98 575.15,-139.35"/>
</a>
</g>
</g>
<!-- Node15 -->
<g id="Node000015" class="node">
<title>Node15</title>
<g id="a_Node000015"><a xlink:title=" ">
<polygon fill="#e0e0e0" stroke="#999999" points="134.29,-184 78.29,-184 78.29,-165 134.29,-165 134.29,-184"/>
<text text-anchor="middle" x="106.29" y="-172" font-family="Helvetica,sans-Serif" font-size="10.00">QDebug</text>
</a>
</g>
</g>
<!-- Node2&#45;&gt;Node15 -->
<g id="edge28_Node000002_Node000015" class="edge">
<title>Node2&#45;&gt;Node15</title>
<g id="a_edge28_Node000002_Node000015"><a xlink:title=" ">
<path fill="none" stroke="#63b8ff" d="M341.51,-221.32C279.72,-210.03 193.09,-194.06 144.58,-184.19"/>
<polygon fill="#63b8ff" stroke="#63b8ff" points="145.05,-180.71 134.55,-182.12 143.63,-187.57 145.05,-180.71"/>
</a>
</g>
</g>
<!-- Node16 -->
<g id="Node000016" class="node">
<title>Node16</title>
<g id="a_Node000016"><a xlink:title=" ">
<polygon fill="#e0e0e0" stroke="#999999" points="243.79,-184 152.79,-184 152.79,-165 243.79,-165 243.79,-184"/>
<text text-anchor="middle" x="198.29" y="-172" font-family="Helvetica,sans-Serif" font-size="10.00">QElapsedTimer</text>
</a>
</g>
</g>
<!-- Node2&#45;&gt;Node16 -->
<g id="edge29_Node000002_Node000016" class="edge">
<title>Node2&#45;&gt;Node16</title>
<g id="a_edge29_Node000002_Node000016"><a xlink:title=" ">
<path fill="none" stroke="#63b8ff" d="M360.27,-219.99C323.2,-209.8 273.67,-196.2 239.18,-186.73"/>
<polygon fill="#63b8ff" stroke="#63b8ff" points="240.01,-183.33 229.44,-184.05 238.15,-190.08 240.01,-183.33"/>
</a>
</g>
</g>
<!-- Node3&#45;&gt;Node4 -->
<g id="edge3_Node000003_Node000004" class="edge">
<title>Node3&#45;&gt;Node4</title>
<g id="a_edge3_Node000003_Node000004"><a xlink:title=" ">
<path fill="none" stroke="#63b8ff" d="M390.21,-164.98C369.92,-156.38 338.34,-142.99 315.12,-133.15"/>
<polygon fill="#63b8ff" stroke="#63b8ff" points="316.31,-129.85 305.74,-129.17 313.58,-136.3 316.31,-129.85"/>
</a>
</g>
</g>
<!-- Node3&#45;&gt;Node5 -->
<g id="edge13_Node000003_Node000005" class="edge">
<title>Node3&#45;&gt;Node5</title>
<g id="a_edge13_Node000003_Node000005"><a xlink:title=" ">
<path fill="none" stroke="#63b8ff" d="M421.5,-164.66C444.9,-146.22 499.16,-103.45 528.18,-80.57"/>
<polygon fill="#63b8ff" stroke="#63b8ff" points="530.62,-83.1 536.31,-74.16 526.29,-77.6 530.62,-83.1"/>
</a>
</g>
</g>
<!-- Node7 -->
<g id="Node000007" class="node">
<title>Node7</title>
<g id="a_Node000007"><a xlink:title=" ">
<polygon fill="#e0e0e0" stroke="#999999" points="482.29,-19 406.29,-19 406.29,0 482.29,0 482.29,-19"/>
<text text-anchor="middle" x="444.29" y="-7" font-family="Helvetica,sans-Serif" font-size="10.00">QJsonObject</text>
</a>
</g>
</g>
<!-- Node3&#45;&gt;Node7 -->
<g id="edge22_Node000003_Node000007" class="edge">
<title>Node3&#45;&gt;Node7</title>
<g id="a_edge22_Node000003_Node000007"><a xlink:title=" ">
<path fill="none" stroke="#63b8ff" d="M412.12,-164.74C417.45,-139.2 433.04,-64.43 440.38,-29.23"/>
<polygon fill="#63b8ff" stroke="#63b8ff" points="443.84,-29.81 442.45,-19.31 436.99,-28.38 443.84,-29.81"/>
</a>
</g>
</g>
<!-- Node3&#45;&gt;Node8 -->
<g id="edge24_Node000003_Node000008" class="edge">
<title>Node3&#45;&gt;Node8</title>
<g id="a_edge24_Node000003_Node000008"><a xlink:title=" ">
<path fill="none" stroke="#63b8ff" d="M410.34,-164.85C409.99,-143.49 406.21,-87.59 377.29,-55 359,-34.39 329.7,-23.12 306.23,-17.08"/>
<polygon fill="#63b8ff" stroke="#63b8ff" points="306.78,-13.62 296.24,-14.73 305.18,-20.43 306.78,-13.62"/>
</a>
</g>
</g>
<!-- Node9 -->
<g id="Node000009" class="node">
<title>Node9</title>
<g id="a_Node000009"><a xlink:title=" ">
<polygon fill="#e0e0e0" stroke="#999999" points="368.79,-74 297.79,-74 297.79,-55 368.79,-55 368.79,-74"/>
<text text-anchor="middle" x="333.29" y="-62" font-family="Helvetica,sans-Serif" font-size="10.00">QJsonArray</text>
</a>
</g>
</g>
<!-- Node3&#45;&gt;Node9 -->
<g id="edge21_Node000003_Node000009" class="edge">
<title>Node3&#45;&gt;Node9</title>
<g id="a_edge21_Node000003_Node000009"><a xlink:title=" ">
<path fill="none" stroke="#63b8ff" d="M403.99,-164.66C391.18,-146.69 361.91,-105.64 345.33,-82.38"/>
<polygon fill="#63b8ff" stroke="#63b8ff" points="348.12,-80.27 339.46,-74.16 342.42,-84.33 348.12,-80.27"/>
</a>
</g>
</g>
<!-- Node3&#45;&gt;Node12 -->
<g id="edge14_Node000003_Node000012" class="edge">
<title>Node3&#45;&gt;Node12</title>
<g id="a_edge14_Node000003_Node000012"><a xlink:title=" ">
<path fill="none" stroke="#63b8ff" d="M371.09,-164.98C328.88,-155.82 261.64,-141.21 215.81,-131.26"/>
<polygon fill="#63b8ff" stroke="#63b8ff" points="216.32,-127.78 205.8,-129.08 214.83,-134.63 216.32,-127.78"/>
</a>
</g>
</g>
<!-- Node3&#45;&gt;Node14 -->
<g id="edge23_Node000003_Node000014" class="edge">
<title>Node3&#45;&gt;Node14</title>
<g id="a_edge23_Node000003_Node000014"><a xlink:title=" ">
<path fill="none" stroke="#63b8ff" d="M438.41,-164.98C467.92,-156.05 514.48,-141.94 547.26,-132.02"/>
<polygon fill="#63b8ff" stroke="#63b8ff" points="548.4,-135.33 556.95,-129.08 546.37,-128.63 548.4,-135.33"/>
</a>
</g>
</g>
<!-- Node4&#45;&gt;Node5 -->
<g id="edge4_Node000004_Node000005" class="edge">
<title>Node4&#45;&gt;Node5</title>
<g id="a_edge4_Node000004_Node000005"><a xlink:title=" ">
<path fill="none" stroke="#63b8ff" d="M327.39,-109.98C372.99,-100.76 445.82,-86.03 495.04,-76.07"/>
<polygon fill="#63b8ff" stroke="#63b8ff" points="495.76,-79.5 504.87,-74.08 494.37,-72.63 495.76,-79.5"/>
</a>
</g>
</g>
<!-- Node4&#45;&gt;Node7 -->
<g id="edge9_Node000004_Node000007" class="edge">
<title>Node4&#45;&gt;Node7</title>
<g id="a_edge9_Node000004_Node000007"><a xlink:title=" ">
<path fill="none" stroke="#63b8ff" d="M307.9,-109.87C327.2,-101.97 355.25,-89.23 377.29,-74 397.16,-60.27 416.86,-40.7 429.7,-26.92"/>
<polygon fill="#63b8ff" stroke="#63b8ff" points="432.59,-28.94 436.75,-19.19 427.42,-24.22 432.59,-28.94"/>
</a>
</g>
</g>
<!-- Node4&#45;&gt;Node8 -->
<g id="edge12_Node000004_Node000008" class="edge">
<title>Node4&#45;&gt;Node8</title>
<g id="a_edge12_Node000004_Node000008"><a xlink:title=" ">
<path fill="none" stroke="#63b8ff" d="M283.98,-109.66C281.39,-92.17 275.56,-52.8 272.07,-29.27"/>
<polygon fill="#63b8ff" stroke="#63b8ff" points="275.5,-28.54 270.57,-19.16 268.58,-29.56 275.5,-28.54"/>
</a>
</g>
</g>
<!-- Node4&#45;&gt;Node9 -->
<g id="edge8_Node000004_Node000009" class="edge">
<title>Node4&#45;&gt;Node9</title>
<g id="a_edge8_Node000004_Node000009"><a xlink:title=" ">
<path fill="none" stroke="#63b8ff" d="M293.22,-109.75C300.14,-102.11 310.36,-90.82 318.74,-81.56"/>
<polygon fill="#63b8ff" stroke="#63b8ff" points="321.39,-83.85 325.51,-74.09 316.21,-79.15 321.39,-83.85"/>
</a>
</g>
</g>
<!-- Node10 -->
<g id="Node000010" class="node">
<title>Node10</title>
<g id="a_Node000010"><a xlink:title=" ">
<polygon fill="#e0e0e0" stroke="#999999" points="240.79,-74 199.79,-74 199.79,-55 240.79,-55 240.79,-74"/>
<text text-anchor="middle" x="220.29" y="-62" font-family="Helvetica,sans-Serif" font-size="10.00">QList</text>
</a>
</g>
</g>
<!-- Node4&#45;&gt;Node10 -->
<g id="edge10_Node000004_Node000010" class="edge">
<title>Node4&#45;&gt;Node10</title>
<g id="a_edge10_Node000004_Node000010"><a xlink:title=" ">
<path fill="none" stroke="#63b8ff" d="M274.85,-109.98C265.15,-102.07 250.48,-90.11 238.79,-80.58"/>
<polygon fill="#63b8ff" stroke="#63b8ff" points="240.89,-77.78 230.93,-74.17 236.46,-83.2 240.89,-77.78"/>
</a>
</g>
</g>
<!-- Node11 -->
<g id="Node000011" class="node">
<title>Node11</title>
<g id="a_Node000011"><a xlink:title=" ">
<polygon fill="#e0e0e0" stroke="#999999" points="181.79,-74 126.79,-74 126.79,-55 181.79,-55 181.79,-74"/>
<text text-anchor="middle" x="154.29" y="-62" font-family="Helvetica,sans-Serif" font-size="10.00">QPointF</text>
</a>
</g>
</g>
<!-- Node4&#45;&gt;Node11 -->
<g id="edge11_Node000004_Node000011" class="edge">
<title>Node4&#45;&gt;Node11</title>
<g id="a_edge11_Node000004_Node000011"><a xlink:title=" ">
<path fill="none" stroke="#63b8ff" d="M264.24,-109.98C242.89,-101.34 209.59,-87.87 185.23,-78.02"/>
<polygon fill="#63b8ff" stroke="#63b8ff" points="186.3,-74.68 175.72,-74.17 183.68,-81.17 186.3,-74.68"/>
</a>
</g>
</g>
<!-- Node6 -->
<g id="Node000006" class="node">
<title>Node6</title>
<g id="a_Node000006"><a xlink:title=" ">
<polygon fill="#e0e0e0" stroke="#999999" points="583.79,-19 510.79,-19 510.79,0 583.79,0 583.79,-19"/>
<text text-anchor="middle" x="547.29" y="-7" font-family="Helvetica,sans-Serif" font-size="10.00">QByteArray</text>
</a>
</g>
</g>
<!-- Node5&#45;&gt;Node6 -->
<g id="edge5_Node000005_Node000006" class="edge">
<title>Node5&#45;&gt;Node6</title>
<g id="a_edge5_Node000005_Node000006"><a xlink:title=" ">
<path fill="none" stroke="#63b8ff" d="M547.29,-54.75C547.29,-47.8 547.29,-37.85 547.29,-29.13"/>
<polygon fill="#63b8ff" stroke="#63b8ff" points="550.79,-29.09 547.29,-19.09 543.79,-29.09 550.79,-29.09"/>
</a>
</g>
</g>
<!-- Node5&#45;&gt;Node7 -->
<g id="edge6_Node000005_Node000007" class="edge">
<title>Node5&#45;&gt;Node7</title>
<g id="a_edge6_Node000005_Node000007"><a xlink:title=" ">
<path fill="none" stroke="#63b8ff" d="M530.74,-54.98C514.4,-46.57 489.16,-33.59 470.16,-23.81"/>
<polygon fill="#63b8ff" stroke="#63b8ff" points="471.63,-20.63 461.14,-19.17 468.43,-26.86 471.63,-20.63"/>
</a>
</g>
</g>
<!-- Node5&#45;&gt;Node8 -->
<g id="edge7_Node000005_Node000008" class="edge">
<title>Node5&#45;&gt;Node8</title>
<g id="a_edge7_Node000005_Node000008"><a xlink:title=" ">
<path fill="none" stroke="#63b8ff" d="M502.63,-54.98C447.92,-44.55 356.29,-27.09 305.67,-17.44"/>
<polygon fill="#63b8ff" stroke="#63b8ff" points="306.29,-13.99 295.82,-15.56 304.98,-20.87 306.29,-13.99"/>
</a>
</g>
</g>
<!-- Node12&#45;&gt;Node7 -->
<g id="edge16_Node000012_Node000007" class="edge">
<title>Node12&#45;&gt;Node7</title>
<g id="a_edge16_Node000012_Node000007"><a xlink:title=" ">
<path fill="none" stroke="#63b8ff" d="M122.9,-111.22C79.11,-102.07 21.38,-83.98 47.29,-55 58.8,-42.13 292.68,-22.35 395.97,-14.2"/>
<polygon fill="#63b8ff" stroke="#63b8ff" points="396.44,-17.68 406.14,-13.41 395.89,-10.7 396.44,-17.68"/>
</a>
</g>
</g>
<!-- Node12&#45;&gt;Node8 -->
<g id="edge20_Node000012_Node000008" class="edge">
<title>Node12&#45;&gt;Node8</title>
<g id="a_edge20_Node000012_Node000008"><a xlink:title=" ">
<path fill="none" stroke="#63b8ff" d="M122.97,-115.21C67.33,-109.36 -18.37,-93.86 14.29,-55 41.75,-22.33 168.82,-13.64 232.59,-11.33"/>
<polygon fill="#63b8ff" stroke="#63b8ff" points="232.74,-14.83 242.62,-11.01 232.51,-7.84 232.74,-14.83"/>
</a>
</g>
</g>
<!-- Node12&#45;&gt;Node9 -->
<g id="edge15_Node000012_Node000009" class="edge">
<title>Node12&#45;&gt;Node9</title>
<g id="a_edge15_Node000012_Node000009"><a xlink:title=" ">
<path fill="none" stroke="#63b8ff" d="M193.12,-109.98C221.16,-101.09 265.34,-87.07 296.59,-77.15"/>
<polygon fill="#63b8ff" stroke="#63b8ff" points="297.78,-80.44 306.25,-74.08 295.66,-73.77 297.78,-80.44"/>
</a>
</g>
</g>
<!-- Node12&#45;&gt;Node10 -->
<g id="edge17_Node000012_Node000010" class="edge">
<title>Node12&#45;&gt;Node10</title>
<g id="a_edge17_Node000012_Node000010"><a xlink:title=" ">
<path fill="none" stroke="#63b8ff" d="M175.21,-109.75C183.07,-102.03 194.72,-90.6 204.21,-81.28"/>
<polygon fill="#63b8ff" stroke="#63b8ff" points="206.86,-83.59 211.54,-74.09 201.95,-78.6 206.86,-83.59"/>
</a>
</g>
</g>
<!-- Node12&#45;&gt;Node11 -->
<g id="edge18_Node000012_Node000011" class="edge">
<title>Node12&#45;&gt;Node11</title>
<g id="a_edge18_Node000012_Node000011"><a xlink:title=" ">
<path fill="none" stroke="#63b8ff" d="M164.31,-109.75C162.72,-102.72 160.43,-92.62 158.45,-83.84"/>
<polygon fill="#63b8ff" stroke="#63b8ff" points="161.86,-83.07 156.24,-74.09 155.03,-84.62 161.86,-83.07"/>
</a>
</g>
</g>
<!-- Node13 -->
<g id="Node000013" class="node">
<title>Node13</title>
<g id="a_Node000013"><a xlink:title=" ">
<polygon fill="#e0e0e0" stroke="#999999" points="108.29,-74 56.29,-74 56.29,-55 108.29,-55 108.29,-74"/>
<text text-anchor="middle" x="82.29" y="-62" font-family="Helvetica,sans-Serif" font-size="10.00">QRectF</text>
</a>
</g>
</g>
<!-- Node12&#45;&gt;Node13 -->
<g id="edge19_Node000012_Node000013" class="edge">
<title>Node12&#45;&gt;Node13</title>
<g id="a_edge19_Node000012_Node000013"><a xlink:title=" ">
<path fill="none" stroke="#63b8ff" d="M152.8,-109.98C139.89,-101.84 120.19,-89.41 104.89,-79.76"/>
<polygon fill="#63b8ff" stroke="#63b8ff" points="106.36,-76.55 96.03,-74.17 102.62,-82.47 106.36,-76.55"/>
</a>
</g>
</g>
<!-- Node17&#45;&gt;Node2 -->
<g id="edge33_Node000017_Node000002" class="edge">
<title>Node17&#45;&gt;Node2</title>
<g id="a_edge33_Node000017_Node000002"><a xlink:title=" ">
<path fill="none" stroke="#63b8ff" d="M420.63,-285.8C419.21,-278.26 417.44,-268.78 415.82,-260.13"/>
<polygon fill="#63b8ff" stroke="#63b8ff" points="419.23,-259.35 413.95,-250.16 412.35,-260.64 419.23,-259.35"/>
</a>
</g>
</g>
<!-- Node18 -->
<g id="Node000018" class="node">
<title>Node18</title>
<g id="a_Node000018"><a xlink:title=" ">
<polygon fill="#e0e0e0" stroke="#999999" points="668.29,-244.5 612.29,-244.5 612.29,-225.5 668.29,-225.5 668.29,-244.5"/>
<text text-anchor="middle" x="640.29" y="-232.5" font-family="Helvetica,sans-Serif" font-size="10.00">QObject</text>
</a>
</g>
</g>
<!-- Node17&#45;&gt;Node18 -->
<g id="edge34_Node000017_Node000018" class="edge">
<title>Node17&#45;&gt;Node18</title>
<g id="a_edge34_Node000017_Node000018"><a xlink:title=" ">
<path fill="none" stroke="#63b8ff" d="M470.91,-285.95C510.37,-274.32 565.71,-258 602.26,-247.22"/>
<polygon fill="#63b8ff" stroke="#63b8ff" points="603.43,-250.52 612.04,-244.33 601.45,-243.81 603.43,-250.52"/>
</a>
</g>
</g>
<!-- Node19 -->
<g id="Node000019" class="node">
<title>Node19</title>
<g id="a_Node000019"><a xlink:title=" ">
<polygon fill="#e0e0e0" stroke="#999999" points="323.29,-244.5 253.29,-244.5 253.29,-225.5 323.29,-225.5 323.29,-244.5"/>
<text text-anchor="middle" x="288.29" y="-232.5" font-family="Helvetica,sans-Serif" font-size="10.00">QRunnable</text>
</a>
</g>
</g>
<!-- Node17&#45;&gt;Node19 -->
<g id="edge35_Node000017_Node000019" class="edge">
<title>Node17&#45;&gt;Node19</title>
<g id="a_edge35_Node000017_Node000019"><a xlink:title=" ">
<path fill="none" stroke="#63b8ff" d="M393.67,-285.95C370.3,-274.88 337.99,-259.56 315.33,-248.82"/>
<polygon fill="#63b8ff" stroke="#63b8ff" points="316.79,-245.64 306.26,-244.52 313.79,-251.96 316.79,-245.64"/>
</a>
</g>
</g>
<!-- Node20&#45;&gt;Node2 -->
<g id="edge37_Node000020_Node000002" class="edge">
<title>Node20&#45;&gt;Node2</title>
<g id="a_edge37_Node000020_Node000002"><a xlink:title=" ">
<path fill="none" stroke="#63b8ff" d="M608.54,-291.37C573.51,-281.54 515.42,-265.23 471.33,-252.85"/>
<polygon fill="#63b8ff" stroke="#63b8ff" points="472.15,-249.45 461.58,-250.12 470.26,-256.19 472.15,-249.45"/>
</a>
</g>
</g>
<!-- Node20&#45;&gt;Node14 -->
<g id="edge45_Node000020_Node000014" class="edge">
<title>Node20&#45;&gt;Node14</title>
<g id="a_edge45_Node000020_Node000014"><a xlink:title=" ">
<path fill="none" stroke="#63b8ff" d="M630.9,-291.23C622.44,-281.84 609.74,-266.09 603.29,-250 588.36,-212.72 585.47,-165.13 585.11,-139.27"/>
<polygon fill="#63b8ff" stroke="#63b8ff" points="588.61,-139.03 585.09,-129.04 581.61,-139.05 588.61,-139.03"/>
</a>
</g>
</g>
<!-- Node20&#45;&gt;Node18 -->
<g id="edge44_Node000020_Node000018" class="edge">
<title>Node20&#45;&gt;Node18</title>
<g id="a_edge44_Node000020_Node000018"><a xlink:title=" ">
<path fill="none" stroke="#63b8ff" d="M639.43,-291.37C639.57,-282.16 639.8,-267.29 639.99,-255.27"/>
<polygon fill="#63b8ff" stroke="#63b8ff" points="643.5,-254.96 640.15,-244.91 636.5,-254.85 643.5,-254.96"/>
</a>
</g>
</g>
<!-- Node21 -->
<g id="Node000021" class="node">
<title>Node21</title>
<g id="a_Node000021"><a xlink:href="BoundedThreadSafeQueue_8h.html" target="_top" xlink:title=" ">
<polygon fill="white" stroke="#666666" points="830.29,-250 686.29,-250 686.29,-220 830.29,-220 830.29,-250"/>
<text text-anchor="start" x="694.29" y="-238" font-family="Helvetica,sans-Serif" font-size="10.00">../../../utils/BoundedThread</text>
<text text-anchor="middle" x="758.29" y="-227" font-family="Helvetica,sans-Serif" font-size="10.00">SafeQueue.h</text>
</a>
</g>
</g>
<!-- Node20&#45;&gt;Node21 -->
<g id="edge38_Node000020_Node000021" class="edge">
<title>Node20&#45;&gt;Node21</title>
<g id="a_edge38_Node000020_Node000021"><a xlink:title=" ">
<path fill="none" stroke="#63b8ff" d="M655.34,-291.37C672.63,-282.07 700.67,-266.99 723.12,-254.91"/>
<polygon fill="#63b8ff" stroke="#63b8ff" points="724.9,-257.93 732.05,-250.12 721.58,-251.77 724.9,-257.93"/>
</a>
</g>
</g>
<!-- Node22 -->
<g id="Node000022" class="node">
<title>Node22</title>
<g id="a_Node000022"><a xlink:title=" ">
<polygon fill="#e0e0e0" stroke="#999999" points="888.79,-184 817.79,-184 817.79,-165 888.79,-165 888.79,-184"/>
<text text-anchor="middle" x="853.29" y="-172" font-family="Helvetica,sans-Serif" font-size="10.00">QAtomicInt</text>
</a>
</g>
</g>
<!-- Node20&#45;&gt;Node22 -->
<g id="edge43_Node000020_Node000022" class="edge">
<title>Node20&#45;&gt;Node22</title>
<g id="a_edge43_Node000020_Node000022"><a xlink:title=" ">
<path fill="none" stroke="#63b8ff" d="M704.04,-291.47C755.16,-283.39 820.85,-269.57 839.29,-250 853.23,-235.22 855.45,-211.17 855.01,-194.41"/>
<polygon fill="#63b8ff" stroke="#63b8ff" points="858.49,-193.95 854.4,-184.17 851.5,-194.36 858.49,-193.95"/>
</a>
</g>
</g>
<!-- Node21&#45;&gt;Node22 -->
<g id="edge39_Node000021_Node000022" class="edge">
<title>Node21&#45;&gt;Node22</title>
<g id="a_edge39_Node000021_Node000022"><a xlink:title=" ">
<path fill="none" stroke="#63b8ff" d="M781.29,-219.84C796.3,-210.6 815.8,-198.59 830.72,-189.4"/>
<polygon fill="#63b8ff" stroke="#63b8ff" points="832.65,-192.32 839.33,-184.09 828.98,-186.36 832.65,-192.32"/>
</a>
</g>
</g>
<!-- Node23 -->
<g id="Node000023" class="node">
<title>Node23</title>
<g id="a_Node000023"><a xlink:title=" ">
<polygon fill="#e0e0e0" stroke="#999999" points="961.79,-184 906.79,-184 906.79,-165 961.79,-165 961.79,-184"/>
<text text-anchor="middle" x="934.29" y="-172" font-family="Helvetica,sans-Serif" font-size="10.00">QMutex</text>
</a>
</g>
</g>
<!-- Node21&#45;&gt;Node23 -->
<g id="edge40_Node000021_Node000023" class="edge">
<title>Node21&#45;&gt;Node23</title>
<g id="a_edge40_Node000021_Node000023"><a xlink:title=" ">
<path fill="none" stroke="#63b8ff" d="M800.45,-219.99C830.56,-209.98 870.61,-196.67 899.03,-187.22"/>
<polygon fill="#63b8ff" stroke="#63b8ff" points="900.17,-190.53 908.56,-184.05 897.96,-183.89 900.17,-190.53"/>
</a>
</g>
</g>
<!-- Node24 -->
<g id="Node000024" class="node">
<title>Node24</title>
<g id="a_Node000024"><a xlink:title=" ">
<polygon fill="#e0e0e0" stroke="#999999" points="793.29,-184 737.29,-184 737.29,-165 793.29,-165 793.29,-184"/>
<text text-anchor="middle" x="765.29" y="-172" font-family="Helvetica,sans-Serif" font-size="10.00">QQueue</text>
</a>
</g>
</g>
<!-- Node21&#45;&gt;Node24 -->
<g id="edge41_Node000021_Node000024" class="edge">
<title>Node21&#45;&gt;Node24</title>
<g id="a_edge41_Node000021_Node000024"><a xlink:title=" ">
<path fill="none" stroke="#63b8ff" d="M759.99,-219.84C760.9,-212.21 762.04,-202.7 763.02,-194.45"/>
<polygon fill="#63b8ff" stroke="#63b8ff" points="766.53,-194.61 764.24,-184.27 759.58,-193.78 766.53,-194.61"/>
</a>
</g>
</g>
<!-- Node25 -->
<g id="Node000025" class="node">
<title>Node25</title>
<g id="a_Node000025"><a xlink:title=" ">
<polygon fill="#e0e0e0" stroke="#999999" points="719.29,-184 627.29,-184 627.29,-165 719.29,-165 719.29,-184"/>
<text text-anchor="middle" x="673.29" y="-172" font-family="Helvetica,sans-Serif" font-size="10.00">QWaitCondition</text>
</a>
</g>
</g>
<!-- Node21&#45;&gt;Node25 -->
<g id="edge42_Node000021_Node000025" class="edge">
<title>Node21&#45;&gt;Node25</title>
<g id="a_edge42_Node000021_Node000025"><a xlink:title=" ">
<path fill="none" stroke="#63b8ff" d="M737.72,-219.84C724.62,-210.83 707.7,-199.18 694.49,-190.09"/>
<polygon fill="#63b8ff" stroke="#63b8ff" points="696.25,-187.05 686.03,-184.27 692.28,-192.82 696.25,-187.05"/>
</a>
</g>
</g>
<!-- Node26&#45;&gt;Node18 -->
<g id="edge49_Node000026_Node000018" class="edge">
<title>Node26&#45;&gt;Node18</title>
<g id="a_edge49_Node000026_Node000018"><a xlink:title=" ">
<path fill="none" stroke="#63b8ff" d="M772.66,-291.37C746.42,-280.39 700.91,-261.36 670.7,-248.72"/>
<polygon fill="#63b8ff" stroke="#63b8ff" points="671.66,-245.33 661.09,-244.7 668.96,-251.79 671.66,-245.33"/>
</a>
</g>
</g>
<!-- Node26&#45;&gt;Node22 -->
<g id="edge47_Node000026_Node000022" class="edge">
<title>Node26&#45;&gt;Node22</title>
<g id="a_edge47_Node000026_Node000022"><a xlink:title=" ">
<path fill="none" stroke="#63b8ff" d="M818.95,-291.42C837.43,-283.74 861.02,-270.48 872.29,-250 882.21,-231.99 873.31,-208.68 864.65,-192.97"/>
<polygon fill="#63b8ff" stroke="#63b8ff" points="867.6,-191.07 859.46,-184.29 861.59,-194.67 867.6,-191.07"/>
</a>
</g>
</g>
<!-- Node26&#45;&gt;Node23 -->
<g id="edge48_Node000026_Node000023" class="edge">
<title>Node26&#45;&gt;Node23</title>
<g id="a_edge48_Node000026_Node000023"><a xlink:title=" ">
<path fill="none" stroke="#63b8ff" d="M817.74,-291.36C838.36,-283.15 867.72,-269.21 888.29,-250 905.43,-234 918.61,-210.24 926.39,-193.88"/>
<polygon fill="#63b8ff" stroke="#63b8ff" points="929.76,-194.9 930.7,-184.35 923.39,-192.01 929.76,-194.9"/>
</a>
</g>
</g>
</g>
</svg>
