<?xml version="1.0" encoding="UTF-8" standalone="no"?>
<!DOCTYPE svg PUBLIC "-//W3C//DTD SVG 1.1//EN"
 "http://www.w3.org/Graphics/SVG/1.1/DTD/svg11.dtd">
<!-- Generated by graphviz version 2.43.0 (0)
 -->
<!-- Title: workers/ProcessWorker.cpp Pages: 1 -->
<svg width="1779pt" height="357pt"
 viewBox="0.00 0.00 1779.00 357.00" xmlns="http://www.w3.org/2000/svg" xmlns:xlink="http://www.w3.org/1999/xlink">
<g id="graph0" class="graph" transform="scale(1 1) rotate(0) translate(4 353)">
<title>workers/ProcessWorker.cpp</title>
<!-- Node1 -->
<g id="Node000001" class="node">
<title>Node1</title>
<g id="a_Node000001"><a xlink:title=" ">
<polygon fill="#999999" stroke="#666666" points="1163,-349 1014,-349 1014,-330 1163,-330 1163,-349"/>
<text text-anchor="middle" x="1088.5" y="-337" font-family="Helvetica,sans-Serif" font-size="10.00">workers/ProcessWorker.cpp</text>
</a>
</g>
</g>
<!-- Node2 -->
<g id="Node000002" class="node">
<title>Node2</title>
<g id="a_Node000002"><a xlink:href="ProcessWorker_8h.html" target="_top" xlink:title=" ">
<polygon fill="white" stroke="#666666" points="1136.5,-294 1040.5,-294 1040.5,-275 1136.5,-275 1136.5,-294"/>
<text text-anchor="middle" x="1088.5" y="-282" font-family="Helvetica,sans-Serif" font-size="10.00">ProcessWorker.h</text>
</a>
</g>
</g>
<!-- Node1&#45;&gt;Node2 -->
<g id="edge1_Node000001_Node000002" class="edge">
<title>Node1&#45;&gt;Node2</title>
<g id="a_edge1_Node000001_Node000002"><a xlink:title=" ">
<path fill="none" stroke="#63b8ff" d="M1088.5,-329.75C1088.5,-322.8 1088.5,-312.85 1088.5,-304.13"/>
<polygon fill="#63b8ff" stroke="#63b8ff" points="1092,-304.09 1088.5,-294.09 1085,-304.09 1092,-304.09"/>
</a>
</g>
</g>
<!-- Node8 -->
<g id="Node000008" class="node">
<title>Node8</title>
<g id="a_Node000008"><a xlink:title=" ">
<polygon fill="#e0e0e0" stroke="#999999" points="1091.5,-19 1015.5,-19 1015.5,0 1091.5,0 1091.5,-19"/>
<text text-anchor="middle" x="1053.5" y="-7" font-family="Helvetica,sans-Serif" font-size="10.00">QJsonObject</text>
</a>
</g>
</g>
<!-- Node1&#45;&gt;Node8 -->
<g id="edge63_Node000001_Node000008" class="edge">
<title>Node1&#45;&gt;Node8</title>
<g id="a_edge63_Node000001_Node000008"><a xlink:title=" ">
<path fill="none" stroke="#63b8ff" d="M1163.02,-339.45C1315.21,-339.38 1647.5,-328.05 1647.5,-230.5 1647.5,-230.5 1647.5,-230.5 1647.5,-118.5 1647.5,-67.71 1600.39,-71.89 1552.5,-55 1531.43,-47.57 1222.61,-23.39 1101.62,-14.14"/>
<polygon fill="#63b8ff" stroke="#63b8ff" points="1101.76,-10.64 1091.53,-13.37 1101.23,-17.62 1101.76,-10.64"/>
</a>
</g>
</g>
<!-- Node16 -->
<g id="Node000016" class="node">
<title>Node16</title>
<g id="a_Node000016"><a xlink:title=" ">
<polygon fill="#e0e0e0" stroke="#999999" points="1619.5,-184 1563.5,-184 1563.5,-165 1619.5,-165 1619.5,-184"/>
<text text-anchor="middle" x="1591.5" y="-172" font-family="Helvetica,sans-Serif" font-size="10.00">QDebug</text>
</a>
</g>
</g>
<!-- Node1&#45;&gt;Node16 -->
<g id="edge61_Node000001_Node000016" class="edge">
<title>Node1&#45;&gt;Node16</title>
<g id="a_edge61_Node000001_Node000016"><a xlink:title=" ">
<path fill="none" stroke="#63b8ff" d="M1114.84,-329.97C1198.69,-302.79 1459.56,-218.26 1555.56,-187.15"/>
<polygon fill="#63b8ff" stroke="#63b8ff" points="1556.69,-190.46 1565.12,-184.05 1554.53,-183.8 1556.69,-190.46"/>
</a>
</g>
</g>
<!-- Node20 -->
<g id="Node000020" class="node">
<title>Node20</title>
<g id="a_Node000020"><a xlink:href="EasyedaApi_8h.html" target="_top" xlink:title=" ">
<polygon fill="white" stroke="#666666" points="180,-74 29,-74 29,-55 180,-55 180,-74"/>
<text text-anchor="middle" x="104.5" y="-62" font-family="Helvetica,sans-Serif" font-size="10.00">core/easyeda/EasyedaApi.h</text>
</a>
</g>
</g>
<!-- Node1&#45;&gt;Node20 -->
<g id="edge35_Node000001_Node000020" class="edge">
<title>Node1&#45;&gt;Node20</title>
<g id="a_edge35_Node000001_Node000020"><a xlink:title=" ">
<path fill="none" stroke="#63b8ff" d="M1013.76,-336.26C813.95,-329.3 282.5,-303.87 282.5,-230.5 282.5,-230.5 282.5,-230.5 282.5,-173.5 282.5,-117.3 216.84,-89.53 165.28,-76.38"/>
<polygon fill="#63b8ff" stroke="#63b8ff" points="166.05,-72.97 155.51,-74.02 164.4,-79.77 166.05,-72.97"/>
</a>
</g>
</g>
<!-- Node24 -->
<g id="Node000024" class="node">
<title>Node24</title>
<g id="a_Node000024"><a xlink:href="EasyedaImporter_8h.html" target="_top" xlink:title=" ">
<polygon fill="white" stroke="#666666" points="993.5,-184 817.5,-184 817.5,-165 993.5,-165 993.5,-184"/>
<text text-anchor="middle" x="905.5" y="-172" font-family="Helvetica,sans-Serif" font-size="10.00">core/easyeda/EasyedaImporter.h</text>
</a>
</g>
</g>
<!-- Node1&#45;&gt;Node24 -->
<g id="edge42_Node000001_Node000024" class="edge">
<title>Node1&#45;&gt;Node24</title>
<g id="a_edge42_Node000001_Node000024"><a xlink:title=" ">
<path fill="none" stroke="#63b8ff" d="M1076.9,-329.94C1065.2,-321.19 1046.75,-307.08 1031.5,-294 990.51,-258.85 944.94,-214.62 921.45,-191.41"/>
<polygon fill="#63b8ff" stroke="#63b8ff" points="923.67,-188.68 914.1,-184.12 918.74,-193.65 923.67,-188.68"/>
</a>
</g>
</g>
<!-- Node25 -->
<g id="Node000025" class="node">
<title>Node25</title>
<g id="a_Node000025"><a xlink:href="NetworkUtils_8h.html" target="_top" xlink:title=" ">
<polygon fill="white" stroke="#666666" points="625,-129 488,-129 488,-110 625,-110 625,-129"/>
<text text-anchor="middle" x="556.5" y="-117" font-family="Helvetica,sans-Serif" font-size="10.00">core/utils/NetworkUtils.h</text>
</a>
</g>
</g>
<!-- Node1&#45;&gt;Node25 -->
<g id="edge48_Node000001_Node000025" class="edge">
<title>Node1&#45;&gt;Node25</title>
<g id="a_edge48_Node000001_Node000025"><a xlink:title=" ">
<path fill="none" stroke="#63b8ff" d="M1013.73,-338.1C919.03,-334.19 754.36,-315.73 639.5,-239 601.68,-213.74 575.84,-164.94 563.95,-138.53"/>
<polygon fill="#63b8ff" stroke="#63b8ff" points="567.02,-136.8 559.84,-129.01 560.59,-139.57 567.02,-136.8"/>
</a>
</g>
</g>
<!-- Node31 -->
<g id="Node000031" class="node">
<title>Node31</title>
<g id="a_Node000031"><a xlink:title=" ">
<polygon fill="#e0e0e0" stroke="#999999" points="1771,-294 1676,-294 1676,-275 1771,-275 1771,-294"/>
<text text-anchor="middle" x="1723.5" y="-282" font-family="Helvetica,sans-Serif" font-size="10.00">QJsonDocument</text>
</a>
</g>
</g>
<!-- Node1&#45;&gt;Node31 -->
<g id="edge62_Node000001_Node000031" class="edge">
<title>Node1&#45;&gt;Node31</title>
<g id="a_edge62_Node000001_Node000031"><a xlink:title=" ">
<path fill="none" stroke="#63b8ff" d="M1163.26,-334.1C1272.77,-327.34 1483.17,-313.13 1661.5,-294 1662.81,-293.86 1664.13,-293.71 1665.46,-293.56"/>
<polygon fill="#63b8ff" stroke="#63b8ff" points="1666.29,-296.99 1675.81,-292.33 1665.46,-290.04 1666.29,-296.99"/>
</a>
</g>
</g>
<!-- Node3 -->
<g id="Node000003" class="node">
<title>Node3</title>
<g id="a_Node000003"><a xlink:href="ComponentExportStatus_8h.html" target="_top" xlink:title=" ">
<polygon fill="white" stroke="#666666" points="1361,-239 1178,-239 1178,-220 1361,-220 1361,-239"/>
<text text-anchor="middle" x="1269.5" y="-227" font-family="Helvetica,sans-Serif" font-size="10.00">models/ComponentExportStatus.h</text>
</a>
</g>
</g>
<!-- Node2&#45;&gt;Node3 -->
<g id="edge2_Node000002_Node000003" class="edge">
<title>Node2&#45;&gt;Node3</title>
<g id="a_edge2_Node000002_Node000003"><a xlink:title=" ">
<path fill="none" stroke="#63b8ff" d="M1117.58,-274.98C1148.1,-266.05 1196.26,-251.94 1230.16,-242.02"/>
<polygon fill="#63b8ff" stroke="#63b8ff" points="1231.58,-245.25 1240.19,-239.08 1229.61,-238.53 1231.58,-245.25"/>
</a>
</g>
</g>
<!-- Node18 -->
<g id="Node000018" class="node">
<title>Node18</title>
<g id="a_Node000018"><a xlink:title=" ">
<polygon fill="#e0e0e0" stroke="#999999" points="681.5,-19 625.5,-19 625.5,0 681.5,0 681.5,-19"/>
<text text-anchor="middle" x="653.5" y="-7" font-family="Helvetica,sans-Serif" font-size="10.00">QObject</text>
</a>
</g>
</g>
<!-- Node2&#45;&gt;Node18 -->
<g id="edge33_Node000002_Node000018" class="edge">
<title>Node2&#45;&gt;Node18</title>
<g id="a_edge33_Node000002_Node000018"><a xlink:title=" ">
<path fill="none" stroke="#63b8ff" d="M1040.29,-281.69C927.03,-276.11 653.5,-254.48 653.5,-175.5 653.5,-175.5 653.5,-175.5 653.5,-118.5 653.5,-87.19 653.5,-50.77 653.5,-29.23"/>
<polygon fill="#63b8ff" stroke="#63b8ff" points="657,-29.18 653.5,-19.18 650,-29.18 657,-29.18"/>
</a>
</g>
</g>
<!-- Node19 -->
<g id="Node000019" class="node">
<title>Node19</title>
<g id="a_Node000019"><a xlink:title=" ">
<polygon fill="#e0e0e0" stroke="#999999" points="1123.5,-239 1053.5,-239 1053.5,-220 1123.5,-220 1123.5,-239"/>
<text text-anchor="middle" x="1088.5" y="-227" font-family="Helvetica,sans-Serif" font-size="10.00">QRunnable</text>
</a>
</g>
</g>
<!-- Node2&#45;&gt;Node19 -->
<g id="edge34_Node000002_Node000019" class="edge">
<title>Node2&#45;&gt;Node19</title>
<g id="a_edge34_Node000002_Node000019"><a xlink:title=" ">
<path fill="none" stroke="#63b8ff" d="M1088.5,-274.75C1088.5,-267.8 1088.5,-257.85 1088.5,-249.13"/>
<polygon fill="#63b8ff" stroke="#63b8ff" points="1092,-249.09 1088.5,-239.09 1085,-249.09 1092,-249.09"/>
</a>
</g>
</g>
<!-- Node4 -->
<g id="Node000004" class="node">
<title>Node4</title>
<g id="a_Node000004"><a xlink:href="ComponentData_8h.html" target="_top" xlink:title=" ">
<polygon fill="white" stroke="#666666" points="1341.5,-184 1197.5,-184 1197.5,-165 1341.5,-165 1341.5,-184"/>
<text text-anchor="middle" x="1269.5" y="-172" font-family="Helvetica,sans-Serif" font-size="10.00">models/ComponentData.h</text>
</a>
</g>
</g>
<!-- Node3&#45;&gt;Node4 -->
<g id="edge3_Node000003_Node000004" class="edge">
<title>Node3&#45;&gt;Node4</title>
<g id="a_edge3_Node000003_Node000004"><a xlink:title=" ">
<path fill="none" stroke="#63b8ff" d="M1269.5,-219.75C1269.5,-212.8 1269.5,-202.85 1269.5,-194.13"/>
<polygon fill="#63b8ff" stroke="#63b8ff" points="1273,-194.09 1269.5,-184.09 1266,-194.09 1273,-194.09"/>
</a>
</g>
</g>
<!-- Node5 -->
<g id="Node000005" class="node">
<title>Node5</title>
<g id="a_Node000005"><a xlink:href="FootprintData_8h.html" target="_top" xlink:title=" ">
<polygon fill="white" stroke="#666666" points="1308.5,-129 1216.5,-129 1216.5,-110 1308.5,-110 1308.5,-129"/>
<text text-anchor="middle" x="1262.5" y="-117" font-family="Helvetica,sans-Serif" font-size="10.00">FootprintData.h</text>
</a>
</g>
</g>
<!-- Node3&#45;&gt;Node5 -->
<g id="edge26_Node000003_Node000005" class="edge">
<title>Node3&#45;&gt;Node5</title>
<g id="a_edge26_Node000003_Node000005"><a xlink:title=" ">
<path fill="none" stroke="#63b8ff" d="M1297.99,-219.94C1327.13,-209.58 1366.08,-190.34 1350.5,-165 1341.05,-149.64 1324.48,-139.39 1308.25,-132.64"/>
<polygon fill="#63b8ff" stroke="#63b8ff" points="1309.38,-129.32 1298.79,-129.06 1306.9,-135.87 1309.38,-129.32"/>
</a>
</g>
</g>
<!-- Node6 -->
<g id="Node000006" class="node">
<title>Node6</title>
<g id="a_Node000006"><a xlink:href="Model3DData_8h.html" target="_top" xlink:title=" ">
<polygon fill="white" stroke="#666666" points="1099.5,-74 1007.5,-74 1007.5,-55 1099.5,-55 1099.5,-74"/>
<text text-anchor="middle" x="1053.5" y="-62" font-family="Helvetica,sans-Serif" font-size="10.00">Model3DData.h</text>
</a>
</g>
</g>
<!-- Node3&#45;&gt;Node6 -->
<g id="edge27_Node000003_Node000006" class="edge">
<title>Node3&#45;&gt;Node6</title>
<g id="a_edge27_Node000003_Node000006"><a xlink:title=" ">
<path fill="none" stroke="#63b8ff" d="M1251.13,-219.85C1234.26,-211.58 1208.86,-198.28 1188.5,-184 1142.15,-151.51 1093.67,-105.53 1069.38,-81.52"/>
<polygon fill="#63b8ff" stroke="#63b8ff" points="1071.65,-78.85 1062.1,-74.27 1066.71,-83.81 1071.65,-78.85"/>
</a>
</g>
</g>
<!-- Node9 -->
<g id="Node000009" class="node">
<title>Node9</title>
<g id="a_Node000009"><a xlink:title=" ">
<polygon fill="#e0e0e0" stroke="#999999" points="1230,-19 1177,-19 1177,0 1230,0 1230,-19"/>
<text text-anchor="middle" x="1203.5" y="-7" font-family="Helvetica,sans-Serif" font-size="10.00">QString</text>
</a>
</g>
</g>
<!-- Node3&#45;&gt;Node9 -->
<g id="edge32_Node000003_Node000009" class="edge">
<title>Node3&#45;&gt;Node9</title>
<g id="a_edge32_Node000003_Node000009"><a xlink:title=" ">
<path fill="none" stroke="#63b8ff" d="M1326.03,-219.94C1438.69,-200.68 1673.55,-148.15 1590.5,-55 1567.4,-29.09 1332.38,-16.11 1240.26,-11.99"/>
<polygon fill="#63b8ff" stroke="#63b8ff" points="1240.41,-8.5 1230.26,-11.56 1240.1,-15.49 1240.41,-8.5"/>
</a>
</g>
</g>
<!-- Node13 -->
<g id="Node000013" class="node">
<title>Node13</title>
<g id="a_Node000013"><a xlink:href="SymbolData_8h.html" target="_top" xlink:title=" ">
<polygon fill="white" stroke="#666666" points="1450.5,-129 1364.5,-129 1364.5,-110 1450.5,-110 1450.5,-129"/>
<text text-anchor="middle" x="1407.5" y="-117" font-family="Helvetica,sans-Serif" font-size="10.00">SymbolData.h</text>
</a>
</g>
</g>
<!-- Node3&#45;&gt;Node13 -->
<g id="edge28_Node000003_Node000013" class="edge">
<title>Node3&#45;&gt;Node13</title>
<g id="a_edge28_Node000003_Node000013"><a xlink:title=" ">
<path fill="none" stroke="#63b8ff" d="M1298.68,-219.98C1319.33,-212.87 1346.75,-201.1 1366.5,-184 1381.03,-171.42 1392.35,-152.45 1399.38,-138.52"/>
<polygon fill="#63b8ff" stroke="#63b8ff" points="1402.57,-139.96 1403.73,-129.43 1396.26,-136.94 1402.57,-139.96"/>
</a>
</g>
</g>
<!-- Node15 -->
<g id="Node000015" class="node">
<title>Node15</title>
<g id="a_Node000015"><a xlink:title=" ">
<polygon fill="#e0e0e0" stroke="#999999" points="1084.5,-129 992.5,-129 992.5,-110 1084.5,-110 1084.5,-129"/>
<text text-anchor="middle" x="1038.5" y="-117" font-family="Helvetica,sans-Serif" font-size="10.00">QSharedPointer</text>
</a>
</g>
</g>
<!-- Node3&#45;&gt;Node15 -->
<g id="edge31_Node000003_Node000015" class="edge">
<title>Node3&#45;&gt;Node15</title>
<g id="a_edge31_Node000003_Node000015"><a xlink:title=" ">
<path fill="none" stroke="#63b8ff" d="M1177.79,-222.19C1122.1,-216.26 1058.38,-205.01 1040.5,-184 1030.12,-171.81 1030.87,-153.02 1033.47,-139.04"/>
<polygon fill="#63b8ff" stroke="#63b8ff" points="1036.93,-139.61 1035.76,-129.08 1030.11,-138.03 1036.93,-139.61"/>
</a>
</g>
</g>
<!-- Node3&#45;&gt;Node16 -->
<g id="edge29_Node000003_Node000016" class="edge">
<title>Node3&#45;&gt;Node16</title>
<g id="a_edge29_Node000003_Node000016"><a xlink:title=" ">
<path fill="none" stroke="#63b8ff" d="M1327.81,-219.96C1384.53,-211.49 1473.09,-197.8 1549.5,-184 1550.6,-183.8 1551.71,-183.6 1552.84,-183.39"/>
<polygon fill="#63b8ff" stroke="#63b8ff" points="1553.9,-186.75 1563.06,-181.42 1552.58,-179.87 1553.9,-186.75"/>
</a>
</g>
</g>
<!-- Node17 -->
<g id="Node000017" class="node">
<title>Node17</title>
<g id="a_Node000017"><a xlink:title=" ">
<polygon fill="#e0e0e0" stroke="#999999" points="1141,-184 1050,-184 1050,-165 1141,-165 1141,-184"/>
<text text-anchor="middle" x="1095.5" y="-172" font-family="Helvetica,sans-Serif" font-size="10.00">QElapsedTimer</text>
</a>
</g>
</g>
<!-- Node3&#45;&gt;Node17 -->
<g id="edge30_Node000003_Node000017" class="edge">
<title>Node3&#45;&gt;Node17</title>
<g id="a_edge30_Node000003_Node000017"><a xlink:title=" ">
<path fill="none" stroke="#63b8ff" d="M1241.54,-219.98C1212.2,-211.05 1165.9,-196.94 1133.31,-187.02"/>
<polygon fill="#63b8ff" stroke="#63b8ff" points="1134.26,-183.65 1123.68,-184.08 1132.22,-190.34 1134.26,-183.65"/>
</a>
</g>
</g>
<!-- Node4&#45;&gt;Node5 -->
<g id="edge4_Node000004_Node000005" class="edge">
<title>Node4&#45;&gt;Node5</title>
<g id="a_edge4_Node000004_Node000005"><a xlink:title=" ">
<path fill="none" stroke="#63b8ff" d="M1268.34,-164.75C1267.43,-157.8 1266.11,-147.85 1264.96,-139.13"/>
<polygon fill="#63b8ff" stroke="#63b8ff" points="1268.41,-138.54 1263.63,-129.09 1261.47,-139.46 1268.41,-138.54"/>
</a>
</g>
</g>
<!-- Node4&#45;&gt;Node6 -->
<g id="edge14_Node000004_Node000006" class="edge">
<title>Node4&#45;&gt;Node6</title>
<g id="a_edge14_Node000004_Node000006"><a xlink:title=" ">
<path fill="none" stroke="#63b8ff" d="M1250.45,-164.89C1231.19,-156.1 1200.6,-141.95 1174.5,-129 1140.92,-112.33 1102.69,-92.05 1078.35,-78.96"/>
<polygon fill="#63b8ff" stroke="#63b8ff" points="1079.89,-75.82 1069.43,-74.15 1076.57,-81.98 1079.89,-75.82"/>
</a>
</g>
</g>
<!-- Node4&#45;&gt;Node8 -->
<g id="edge23_Node000004_Node000008" class="edge">
<title>Node4&#45;&gt;Node8</title>
<g id="a_edge23_Node000004_Node000008"><a xlink:title=" ">
<path fill="none" stroke="#63b8ff" d="M1257.06,-164.76C1244.48,-155.87 1224.51,-141.65 1207.5,-129 1158.43,-92.52 1101.65,-48.3 1072.67,-25.58"/>
<polygon fill="#63b8ff" stroke="#63b8ff" points="1074.64,-22.67 1064.61,-19.25 1070.31,-28.18 1074.64,-22.67"/>
</a>
</g>
</g>
<!-- Node4&#45;&gt;Node9 -->
<g id="edge25_Node000004_Node000009" class="edge">
<title>Node4&#45;&gt;Node9</title>
<g id="a_edge25_Node000004_Node000009"><a xlink:title=" ">
<path fill="none" stroke="#63b8ff" d="M1341.57,-169.19C1451.02,-160.09 1639.5,-132.87 1570.5,-55 1548.8,-30.51 1328.72,-16.79 1240.14,-12.23"/>
<polygon fill="#63b8ff" stroke="#63b8ff" points="1240.18,-8.73 1230.01,-11.72 1239.82,-15.72 1240.18,-8.73"/>
</a>
</g>
</g>
<!-- Node10 -->
<g id="Node000010" class="node">
<title>Node10</title>
<g id="a_Node000010"><a xlink:title=" ">
<polygon fill="#e0e0e0" stroke="#999999" points="1303,-74 1232,-74 1232,-55 1303,-55 1303,-74"/>
<text text-anchor="middle" x="1267.5" y="-62" font-family="Helvetica,sans-Serif" font-size="10.00">QJsonArray</text>
</a>
</g>
</g>
<!-- Node4&#45;&gt;Node10 -->
<g id="edge22_Node000004_Node000010" class="edge">
<title>Node4&#45;&gt;Node10</title>
<g id="a_edge22_Node000004_Node000010"><a xlink:title=" ">
<path fill="none" stroke="#63b8ff" d="M1284.15,-164.88C1301.63,-153.39 1327.34,-131.94 1317.5,-110 1312,-97.74 1301.27,-87.48 1291.15,-79.91"/>
<polygon fill="#63b8ff" stroke="#63b8ff" points="1293.14,-77.03 1282.93,-74.2 1289.15,-82.78 1293.14,-77.03"/>
</a>
</g>
</g>
<!-- Node4&#45;&gt;Node13 -->
<g id="edge15_Node000004_Node000013" class="edge">
<title>Node4&#45;&gt;Node13</title>
<g id="a_edge15_Node000004_Node000013"><a xlink:title=" ">
<path fill="none" stroke="#63b8ff" d="M1291.67,-164.98C1314.27,-156.3 1349.56,-142.75 1375.25,-132.88"/>
<polygon fill="#63b8ff" stroke="#63b8ff" points="1376.84,-136.02 1384.92,-129.17 1374.33,-129.49 1376.84,-136.02"/>
</a>
</g>
</g>
<!-- Node4&#45;&gt;Node15 -->
<g id="edge24_Node000004_Node000015" class="edge">
<title>Node4&#45;&gt;Node15</title>
<g id="a_edge24_Node000004_Node000015"><a xlink:title=" ">
<path fill="none" stroke="#63b8ff" d="M1232.39,-164.98C1192.51,-155.84 1129.04,-141.27 1085.66,-131.32"/>
<polygon fill="#63b8ff" stroke="#63b8ff" points="1086.43,-127.91 1075.91,-129.08 1084.87,-134.73 1086.43,-127.91"/>
</a>
</g>
</g>
<!-- Node5&#45;&gt;Node6 -->
<g id="edge5_Node000005_Node000006" class="edge">
<title>Node5&#45;&gt;Node6</title>
<g id="a_edge5_Node000005_Node000006"><a xlink:title=" ">
<path fill="none" stroke="#63b8ff" d="M1228.92,-109.98C1193.15,-100.91 1136.38,-86.52 1097.16,-76.57"/>
<polygon fill="#63b8ff" stroke="#63b8ff" points="1097.9,-73.15 1087.34,-74.08 1096.18,-79.93 1097.9,-73.15"/>
</a>
</g>
</g>
<!-- Node5&#45;&gt;Node8 -->
<g id="edge10_Node000005_Node000008" class="edge">
<title>Node5&#45;&gt;Node8</title>
<g id="a_edge10_Node000005_Node000008"><a xlink:title=" ">
<path fill="none" stroke="#63b8ff" d="M1246.1,-109.79C1222.87,-97.49 1179.04,-74.34 1141.5,-55 1120.83,-44.35 1097.31,-32.47 1079.8,-23.67"/>
<polygon fill="#63b8ff" stroke="#63b8ff" points="1081.25,-20.48 1070.74,-19.12 1078.11,-26.74 1081.25,-20.48"/>
</a>
</g>
</g>
<!-- Node5&#45;&gt;Node9 -->
<g id="edge13_Node000005_Node000009" class="edge">
<title>Node5&#45;&gt;Node9</title>
<g id="a_edge13_Node000005_Node000009"><a xlink:title=" ">
<path fill="none" stroke="#63b8ff" d="M1252.59,-109.9C1243.55,-101.56 1230.43,-88.13 1222.5,-74 1214.66,-60.03 1209.73,-42.47 1206.86,-29.37"/>
<polygon fill="#63b8ff" stroke="#63b8ff" points="1210.22,-28.32 1204.85,-19.19 1203.35,-29.68 1210.22,-28.32"/>
</a>
</g>
</g>
<!-- Node5&#45;&gt;Node10 -->
<g id="edge9_Node000005_Node000010" class="edge">
<title>Node5&#45;&gt;Node10</title>
<g id="a_edge9_Node000005_Node000010"><a xlink:title=" ">
<path fill="none" stroke="#63b8ff" d="M1263.33,-109.75C1263.98,-102.8 1264.92,-92.85 1265.74,-84.13"/>
<polygon fill="#63b8ff" stroke="#63b8ff" points="1269.23,-84.37 1266.69,-74.09 1262.27,-83.72 1269.23,-84.37"/>
</a>
</g>
</g>
<!-- Node11 -->
<g id="Node000011" class="node">
<title>Node11</title>
<g id="a_Node000011"><a xlink:title=" ">
<polygon fill="#e0e0e0" stroke="#999999" points="1362,-74 1321,-74 1321,-55 1362,-55 1362,-74"/>
<text text-anchor="middle" x="1341.5" y="-62" font-family="Helvetica,sans-Serif" font-size="10.00">QList</text>
</a>
</g>
</g>
<!-- Node5&#45;&gt;Node11 -->
<g id="edge11_Node000005_Node000011" class="edge">
<title>Node5&#45;&gt;Node11</title>
<g id="a_edge11_Node000005_Node000011"><a xlink:title=" ">
<path fill="none" stroke="#63b8ff" d="M1275.19,-109.98C1287.33,-101.84 1305.86,-89.41 1320.25,-79.76"/>
<polygon fill="#63b8ff" stroke="#63b8ff" points="1322.22,-82.65 1328.58,-74.17 1318.32,-76.84 1322.22,-82.65"/>
</a>
</g>
</g>
<!-- Node12 -->
<g id="Node000012" class="node">
<title>Node12</title>
<g id="a_Node000012"><a xlink:title=" ">
<polygon fill="#e0e0e0" stroke="#999999" points="1435,-74 1380,-74 1380,-55 1435,-55 1435,-74"/>
<text text-anchor="middle" x="1407.5" y="-62" font-family="Helvetica,sans-Serif" font-size="10.00">QPointF</text>
</a>
</g>
</g>
<!-- Node5&#45;&gt;Node12 -->
<g id="edge12_Node000005_Node000012" class="edge">
<title>Node5&#45;&gt;Node12</title>
<g id="a_edge12_Node000005_Node000012"><a xlink:title=" ">
<path fill="none" stroke="#63b8ff" d="M1285.8,-109.98C1309.75,-101.23 1347.28,-87.51 1374.33,-77.62"/>
<polygon fill="#63b8ff" stroke="#63b8ff" points="1375.59,-80.89 1383.78,-74.17 1373.19,-74.32 1375.59,-80.89"/>
</a>
</g>
</g>
<!-- Node7 -->
<g id="Node000007" class="node">
<title>Node7</title>
<g id="a_Node000007"><a xlink:title=" ">
<polygon fill="#e0e0e0" stroke="#999999" points="872,-19 799,-19 799,0 872,0 872,-19"/>
<text text-anchor="middle" x="835.5" y="-7" font-family="Helvetica,sans-Serif" font-size="10.00">QByteArray</text>
</a>
</g>
</g>
<!-- Node6&#45;&gt;Node7 -->
<g id="edge6_Node000006_Node000007" class="edge">
<title>Node6&#45;&gt;Node7</title>
<g id="a_edge6_Node000006_Node000007"><a xlink:title=" ">
<path fill="none" stroke="#63b8ff" d="M1018.47,-54.98C981,-45.87 921.45,-31.4 880.52,-21.45"/>
<polygon fill="#63b8ff" stroke="#63b8ff" points="881.34,-18.04 870.8,-19.08 879.69,-24.85 881.34,-18.04"/>
</a>
</g>
</g>
<!-- Node6&#45;&gt;Node8 -->
<g id="edge7_Node000006_Node000008" class="edge">
<title>Node6&#45;&gt;Node8</title>
<g id="a_edge7_Node000006_Node000008"><a xlink:title=" ">
<path fill="none" stroke="#63b8ff" d="M1053.5,-54.75C1053.5,-47.8 1053.5,-37.85 1053.5,-29.13"/>
<polygon fill="#63b8ff" stroke="#63b8ff" points="1057,-29.09 1053.5,-19.09 1050,-29.09 1057,-29.09"/>
</a>
</g>
</g>
<!-- Node6&#45;&gt;Node9 -->
<g id="edge8_Node000006_Node000009" class="edge">
<title>Node6&#45;&gt;Node9</title>
<g id="a_edge8_Node000006_Node000009"><a xlink:title=" ">
<path fill="none" stroke="#63b8ff" d="M1077.6,-54.98C1102.38,-46.23 1141.2,-32.51 1169.19,-22.62"/>
<polygon fill="#63b8ff" stroke="#63b8ff" points="1170.7,-25.8 1178.96,-19.17 1168.37,-19.2 1170.7,-25.8"/>
</a>
</g>
</g>
<!-- Node13&#45;&gt;Node8 -->
<g id="edge17_Node000013_Node000008" class="edge">
<title>Node13&#45;&gt;Node8</title>
<g id="a_edge17_Node000013_Node000008"><a xlink:title=" ">
<path fill="none" stroke="#63b8ff" d="M1418.63,-109.96C1434.18,-97.04 1458.86,-72.21 1443.5,-55 1432.23,-42.37 1203.56,-22.54 1101.71,-14.3"/>
<polygon fill="#63b8ff" stroke="#63b8ff" points="1101.93,-10.8 1091.68,-13.49 1101.37,-17.78 1101.93,-10.8"/>
</a>
</g>
</g>
<!-- Node13&#45;&gt;Node9 -->
<g id="edge21_Node000013_Node000009" class="edge">
<title>Node13&#45;&gt;Node9</title>
<g id="a_edge21_Node000013_Node000009"><a xlink:title=" ">
<path fill="none" stroke="#63b8ff" d="M1450.95,-114.35C1504.4,-107.61 1584.37,-91.2 1552.5,-55 1532.06,-31.79 1325.48,-17.45 1240.11,-12.47"/>
<polygon fill="#63b8ff" stroke="#63b8ff" points="1240.27,-8.98 1230.09,-11.9 1239.87,-15.97 1240.27,-8.98"/>
</a>
</g>
</g>
<!-- Node13&#45;&gt;Node10 -->
<g id="edge16_Node000013_Node000010" class="edge">
<title>Node13&#45;&gt;Node10</title>
<g id="a_edge16_Node000013_Node000010"><a xlink:title=" ">
<path fill="none" stroke="#63b8ff" d="M1385.01,-109.98C1361.98,-101.27 1325.96,-87.63 1299.87,-77.75"/>
<polygon fill="#63b8ff" stroke="#63b8ff" points="1300.99,-74.44 1290.4,-74.17 1298.52,-80.98 1300.99,-74.44"/>
</a>
</g>
</g>
<!-- Node13&#45;&gt;Node11 -->
<g id="edge18_Node000013_Node000011" class="edge">
<title>Node13&#45;&gt;Node11</title>
<g id="a_edge18_Node000013_Node000011"><a xlink:title=" ">
<path fill="none" stroke="#63b8ff" d="M1396.9,-109.98C1387.04,-102.07 1372.15,-90.11 1360.28,-80.58"/>
<polygon fill="#63b8ff" stroke="#63b8ff" points="1362.29,-77.7 1352.3,-74.17 1357.9,-83.16 1362.29,-77.7"/>
</a>
</g>
</g>
<!-- Node13&#45;&gt;Node12 -->
<g id="edge19_Node000013_Node000012" class="edge">
<title>Node13&#45;&gt;Node12</title>
<g id="a_edge19_Node000013_Node000012"><a xlink:title=" ">
<path fill="none" stroke="#63b8ff" d="M1407.5,-109.75C1407.5,-102.8 1407.5,-92.85 1407.5,-84.13"/>
<polygon fill="#63b8ff" stroke="#63b8ff" points="1411,-84.09 1407.5,-74.09 1404,-84.09 1411,-84.09"/>
</a>
</g>
</g>
<!-- Node14 -->
<g id="Node000014" class="node">
<title>Node14</title>
<g id="a_Node000014"><a xlink:title=" ">
<polygon fill="#e0e0e0" stroke="#999999" points="1543.5,-74 1491.5,-74 1491.5,-55 1543.5,-55 1543.5,-74"/>
<text text-anchor="middle" x="1517.5" y="-62" font-family="Helvetica,sans-Serif" font-size="10.00">QRectF</text>
</a>
</g>
</g>
<!-- Node13&#45;&gt;Node14 -->
<g id="edge20_Node000013_Node000014" class="edge">
<title>Node13&#45;&gt;Node14</title>
<g id="a_edge20_Node000013_Node000014"><a xlink:title=" ">
<path fill="none" stroke="#63b8ff" d="M1425.17,-109.98C1442.79,-101.5 1470.08,-88.35 1490.43,-78.54"/>
<polygon fill="#63b8ff" stroke="#63b8ff" points="1492.02,-81.66 1499.51,-74.17 1488.98,-75.36 1492.02,-81.66"/>
</a>
</g>
</g>
<!-- Node20&#45;&gt;Node8 -->
<g id="edge36_Node000020_Node000008" class="edge">
<title>Node20&#45;&gt;Node8</title>
<g id="a_edge36_Node000020_Node000008"><a xlink:title=" ">
<path fill="none" stroke="#63b8ff" d="M180.27,-58.08C195.89,-57.02 212.22,-55.94 227.5,-55 522.72,-36.85 877.56,-19.1 1005,-12.86"/>
<polygon fill="#63b8ff" stroke="#63b8ff" points="1005.38,-16.34 1015.2,-12.36 1005.04,-9.35 1005.38,-16.34"/>
</a>
</g>
</g>
<!-- Node20&#45;&gt;Node9 -->
<g id="edge40_Node000020_Node000009" class="edge">
<title>Node20&#45;&gt;Node9</title>
<g id="a_edge40_Node000020_Node000009"><a xlink:title=" ">
<path fill="none" stroke="#63b8ff" d="M180.26,-57.93C195.88,-56.88 212.22,-55.84 227.5,-55 615.24,-33.61 712.91,-42.97 1100.5,-19 1122.51,-17.64 1147.13,-15.62 1166.78,-13.9"/>
<polygon fill="#63b8ff" stroke="#63b8ff" points="1167.2,-17.38 1176.85,-13 1166.57,-10.4 1167.2,-17.38"/>
</a>
</g>
</g>
<!-- Node20&#45;&gt;Node18 -->
<g id="edge38_Node000020_Node000018" class="edge">
<title>Node20&#45;&gt;Node18</title>
<g id="a_edge38_Node000020_Node000018"><a xlink:title=" ">
<path fill="none" stroke="#63b8ff" d="M180.26,-56.19C299.24,-44.7 525.59,-22.85 615.4,-14.18"/>
<polygon fill="#63b8ff" stroke="#63b8ff" points="615.79,-17.66 625.41,-13.21 615.12,-10.69 615.79,-17.66"/>
</a>
</g>
</g>
<!-- Node21 -->
<g id="Node000021" class="node">
<title>Node21</title>
<g id="a_Node000021"><a xlink:title=" ">
<polygon fill="#e0e0e0" stroke="#999999" points="205,-19 150,-19 150,0 205,0 205,-19"/>
<text text-anchor="middle" x="177.5" y="-7" font-family="Helvetica,sans-Serif" font-size="10.00">QMutex</text>
</a>
</g>
</g>
<!-- Node20&#45;&gt;Node21 -->
<g id="edge37_Node000020_Node000021" class="edge">
<title>Node20&#45;&gt;Node21</title>
<g id="a_edge37_Node000020_Node000021"><a xlink:title=" ">
<path fill="none" stroke="#63b8ff" d="M116.23,-54.98C127.23,-47 143.92,-34.88 157.1,-25.31"/>
<polygon fill="#63b8ff" stroke="#63b8ff" points="159.52,-27.88 165.56,-19.17 155.41,-22.21 159.52,-27.88"/>
</a>
</g>
</g>
<!-- Node22 -->
<g id="Node000022" class="node">
<title>Node22</title>
<g id="a_Node000022"><a xlink:title=" ">
<polygon fill="#e0e0e0" stroke="#999999" points="59,-19 0,-19 0,0 59,0 59,-19"/>
<text text-anchor="middle" x="29.5" y="-7" font-family="Helvetica,sans-Serif" font-size="10.00">QPointer</text>
</a>
</g>
</g>
<!-- Node20&#45;&gt;Node22 -->
<g id="edge39_Node000020_Node000022" class="edge">
<title>Node20&#45;&gt;Node22</title>
<g id="a_edge39_Node000020_Node000022"><a xlink:title=" ">
<path fill="none" stroke="#63b8ff" d="M92.45,-54.98C81.04,-46.92 63.67,-34.65 50.07,-25.03"/>
<polygon fill="#63b8ff" stroke="#63b8ff" points="51.96,-22.08 41.77,-19.17 47.92,-27.8 51.96,-22.08"/>
</a>
</g>
</g>
<!-- Node23 -->
<g id="Node000023" class="node">
<title>Node23</title>
<g id="a_Node000023"><a xlink:title=" ">
<polygon fill="#e0e0e0" stroke="#999999" points="132,-19 77,-19 77,0 132,0 132,-19"/>
<text text-anchor="middle" x="104.5" y="-7" font-family="Helvetica,sans-Serif" font-size="10.00">QVector</text>
</a>
</g>
</g>
<!-- Node20&#45;&gt;Node23 -->
<g id="edge41_Node000020_Node000023" class="edge">
<title>Node20&#45;&gt;Node23</title>
<g id="a_edge41_Node000020_Node000023"><a xlink:title=" ">
<path fill="none" stroke="#63b8ff" d="M104.5,-54.75C104.5,-47.8 104.5,-37.85 104.5,-29.13"/>
<polygon fill="#63b8ff" stroke="#63b8ff" points="108,-29.09 104.5,-19.09 101,-29.09 108,-29.09"/>
</a>
</g>
</g>
<!-- Node24&#45;&gt;Node5 -->
<g id="edge43_Node000024_Node000005" class="edge">
<title>Node24&#45;&gt;Node5</title>
<g id="a_edge43_Node000024_Node000005"><a xlink:title=" ">
<path fill="none" stroke="#63b8ff" d="M962.86,-164.98C1029.74,-155.05 1139.6,-138.75 1206.08,-128.88"/>
<polygon fill="#63b8ff" stroke="#63b8ff" points="1206.98,-132.28 1216.36,-127.35 1205.96,-125.36 1206.98,-132.28"/>
</a>
</g>
</g>
<!-- Node24&#45;&gt;Node8 -->
<g id="edge45_Node000024_Node000008" class="edge">
<title>Node24&#45;&gt;Node8</title>
<g id="a_edge45_Node000024_Node000008"><a xlink:title=" ">
<path fill="none" stroke="#63b8ff" d="M911.22,-164.93C924.95,-144.66 961.42,-92.63 998.5,-55 1009.11,-44.23 1022.23,-33.53 1033,-25.32"/>
<polygon fill="#63b8ff" stroke="#63b8ff" points="1035.12,-28.11 1041.04,-19.32 1030.93,-22.5 1035.12,-28.11"/>
</a>
</g>
</g>
<!-- Node24&#45;&gt;Node13 -->
<g id="edge44_Node000024_Node000013" class="edge">
<title>Node24&#45;&gt;Node13</title>
<g id="a_edge44_Node000024_Node000013"><a xlink:title=" ">
<path fill="none" stroke="#63b8ff" d="M986.15,-164.98C1089.6,-154.06 1266.12,-135.43 1354.21,-126.13"/>
<polygon fill="#63b8ff" stroke="#63b8ff" points="1354.67,-129.6 1364.25,-125.07 1353.94,-122.64 1354.67,-129.6"/>
</a>
</g>
</g>
<!-- Node24&#45;&gt;Node15 -->
<g id="edge47_Node000024_Node000015" class="edge">
<title>Node24&#45;&gt;Node15</title>
<g id="a_edge47_Node000024_Node000015"><a xlink:title=" ">
<path fill="none" stroke="#63b8ff" d="M926.87,-164.98C948.65,-156.3 982.66,-142.75 1007.42,-132.88"/>
<polygon fill="#63b8ff" stroke="#63b8ff" points="1008.75,-136.12 1016.74,-129.17 1006.16,-129.62 1008.75,-136.12"/>
</a>
</g>
</g>
<!-- Node24&#45;&gt;Node18 -->
<g id="edge46_Node000024_Node000018" class="edge">
<title>Node24&#45;&gt;Node18</title>
<g id="a_edge46_Node000024_Node000018"><a xlink:title=" ">
<path fill="none" stroke="#63b8ff" d="M891.57,-164.83C864.08,-147.68 800.97,-108.15 748.5,-74 722.81,-57.28 693.52,-37.61 674.34,-24.64"/>
<polygon fill="#63b8ff" stroke="#63b8ff" points="676.28,-21.73 666.04,-19.02 672.36,-27.52 676.28,-21.73"/>
</a>
</g>
</g>
<!-- Node25&#45;&gt;Node7 -->
<g id="edge54_Node000025_Node000007" class="edge">
<title>Node25&#45;&gt;Node7</title>
<g id="a_edge54_Node000025_Node000007"><a xlink:title=" ">
<path fill="none" stroke="#63b8ff" d="M578.86,-109.84C628.26,-90.72 746.84,-44.82 803.85,-22.75"/>
<polygon fill="#63b8ff" stroke="#63b8ff" points="805.36,-25.92 813.42,-19.05 802.83,-19.39 805.36,-25.92"/>
</a>
</g>
</g>
<!-- Node25&#45;&gt;Node8 -->
<g id="edge55_Node000025_Node000008" class="edge">
<title>Node25&#45;&gt;Node8</title>
<g id="a_edge55_Node000025_Node000008"><a xlink:title=" ">
<path fill="none" stroke="#63b8ff" d="M625.11,-116.79C699.49,-113.41 821.03,-103.42 921.5,-74 932.38,-70.82 992.1,-41.28 1027.37,-23.64"/>
<polygon fill="#63b8ff" stroke="#63b8ff" points="1029.24,-26.61 1036.61,-19 1026.11,-20.36 1029.24,-26.61"/>
</a>
</g>
</g>
<!-- Node25&#45;&gt;Node18 -->
<g id="edge59_Node000025_Node000018" class="edge">
<title>Node25&#45;&gt;Node18</title>
<g id="a_edge59_Node000025_Node000018"><a xlink:title=" ">
<path fill="none" stroke="#63b8ff" d="M487.76,-119.36C401.43,-118.79 260.59,-111.87 227.5,-74 221.94,-67.64 221.85,-61.27 227.5,-55 253.22,-26.45 515.17,-14.99 615.08,-11.64"/>
<polygon fill="#63b8ff" stroke="#63b8ff" points="615.45,-15.13 625.33,-11.3 615.22,-8.13 615.45,-15.13"/>
</a>
</g>
</g>
<!-- Node26 -->
<g id="Node000026" class="node">
<title>Node26</title>
<g id="a_Node000026"><a xlink:href="INetworkAdapter_8h.html" target="_top" xlink:title=" ">
<polygon fill="white" stroke="#666666" points="913,-74 758,-74 758,-55 913,-55 913,-74"/>
<text text-anchor="middle" x="835.5" y="-62" font-family="Helvetica,sans-Serif" font-size="10.00">core/utils/INetworkAdapter.h</text>
</a>
</g>
</g>
<!-- Node25&#45;&gt;Node26 -->
<g id="edge49_Node000025_Node000026" class="edge">
<title>Node25&#45;&gt;Node26</title>
<g id="a_edge49_Node000025_Node000026"><a xlink:title=" ">
<path fill="none" stroke="#63b8ff" d="M601.33,-109.98C649.99,-100.74 727.76,-85.97 780.19,-76.01"/>
<polygon fill="#63b8ff" stroke="#63b8ff" points="781.15,-79.39 790.32,-74.08 779.84,-72.51 781.15,-79.39"/>
</a>
</g>
</g>
<!-- Node27 -->
<g id="Node000027" class="node">
<title>Node27</title>
<g id="a_Node000027"><a xlink:title=" ">
<polygon fill="#e0e0e0" stroke="#999999" points="282,-74 237,-74 237,-55 282,-55 282,-74"/>
<text text-anchor="middle" x="259.5" y="-62" font-family="Helvetica,sans-Serif" font-size="10.00">QMap</text>
</a>
</g>
</g>
<!-- Node25&#45;&gt;Node27 -->
<g id="edge56_Node000025_Node000027" class="edge">
<title>Node25&#45;&gt;Node27</title>
<g id="a_edge56_Node000025_Node000027"><a xlink:title=" ">
<path fill="none" stroke="#63b8ff" d="M495.94,-109.97C444.35,-102.34 368.05,-90.17 292.35,-74"/>
<polygon fill="#63b8ff" stroke="#63b8ff" points="292.68,-70.49 282.16,-71.8 291.2,-77.33 292.68,-70.49"/>
</a>
</g>
</g>
<!-- Node28 -->
<g id="Node000028" class="node">
<title>Node28</title>
<g id="a_Node000028"><a xlink:title=" ">
<polygon fill="#e0e0e0" stroke="#999999" points="442.5,-74 300.5,-74 300.5,-55 442.5,-55 442.5,-74"/>
<text text-anchor="middle" x="371.5" y="-62" font-family="Helvetica,sans-Serif" font-size="10.00">QNetworkAccessManager</text>
</a>
</g>
</g>
<!-- Node25&#45;&gt;Node28 -->
<g id="edge57_Node000025_Node000028" class="edge">
<title>Node25&#45;&gt;Node28</title>
<g id="a_edge57_Node000025_Node000028"><a xlink:title=" ">
<path fill="none" stroke="#63b8ff" d="M526.78,-109.98C495.45,-101.01 445.93,-86.82 411.26,-76.89"/>
<polygon fill="#63b8ff" stroke="#63b8ff" points="412.03,-73.47 401.46,-74.08 410.11,-80.2 412.03,-73.47"/>
</a>
</g>
</g>
<!-- Node29 -->
<g id="Node000029" class="node">
<title>Node29</title>
<g id="a_Node000029"><a xlink:title=" ">
<polygon fill="#e0e0e0" stroke="#999999" points="554,-74 461,-74 461,-55 554,-55 554,-74"/>
<text text-anchor="middle" x="507.5" y="-62" font-family="Helvetica,sans-Serif" font-size="10.00">QNetworkReply</text>
</a>
</g>
</g>
<!-- Node25&#45;&gt;Node29 -->
<g id="edge58_Node000025_Node000029" class="edge">
<title>Node25&#45;&gt;Node29</title>
<g id="a_edge58_Node000025_Node000029"><a xlink:title=" ">
<path fill="none" stroke="#63b8ff" d="M548.41,-109.75C541.34,-102.11 530.91,-90.82 522.35,-81.56"/>
<polygon fill="#63b8ff" stroke="#63b8ff" points="524.8,-79.06 515.44,-74.09 519.66,-83.81 524.8,-79.06"/>
</a>
</g>
</g>
<!-- Node30 -->
<g id="Node000030" class="node">
<title>Node30</title>
<g id="a_Node000030"><a xlink:title=" ">
<polygon fill="#e0e0e0" stroke="#999999" points="625,-74 572,-74 572,-55 625,-55 625,-74"/>
<text text-anchor="middle" x="598.5" y="-62" font-family="Helvetica,sans-Serif" font-size="10.00">QTimer</text>
</a>
</g>
</g>
<!-- Node25&#45;&gt;Node30 -->
<g id="edge60_Node000025_Node000030" class="edge">
<title>Node25&#45;&gt;Node30</title>
<g id="a_edge60_Node000025_Node000030"><a xlink:title=" ">
<path fill="none" stroke="#63b8ff" d="M563.44,-109.75C569.37,-102.26 578.07,-91.28 585.32,-82.13"/>
<polygon fill="#63b8ff" stroke="#63b8ff" points="588.23,-84.1 591.69,-74.09 582.74,-79.75 588.23,-84.1"/>
</a>
</g>
</g>
<!-- Node26&#45;&gt;Node7 -->
<g id="edge50_Node000026_Node000007" class="edge">
<title>Node26&#45;&gt;Node7</title>
<g id="a_edge50_Node000026_Node000007"><a xlink:title=" ">
<path fill="none" stroke="#63b8ff" d="M835.5,-54.75C835.5,-47.8 835.5,-37.85 835.5,-29.13"/>
<polygon fill="#63b8ff" stroke="#63b8ff" points="839,-29.09 835.5,-19.09 832,-29.09 839,-29.09"/>
</a>
</g>
</g>
<!-- Node26&#45;&gt;Node8 -->
<g id="edge51_Node000026_Node000008" class="edge">
<title>Node26&#45;&gt;Node8</title>
<g id="a_edge51_Node000026_Node000008"><a xlink:title=" ">
<path fill="none" stroke="#63b8ff" d="M870.53,-54.98C908,-45.87 967.55,-31.4 1008.48,-21.45"/>
<polygon fill="#63b8ff" stroke="#63b8ff" points="1009.31,-24.85 1018.2,-19.08 1007.66,-18.04 1009.31,-24.85"/>
</a>
</g>
</g>
<!-- Node26&#45;&gt;Node9 -->
<g id="edge53_Node000026_Node000009" class="edge">
<title>Node26&#45;&gt;Node9</title>
<g id="a_edge53_Node000026_Node000009"><a xlink:title=" ">
<path fill="none" stroke="#63b8ff" d="M894.63,-54.98C971.42,-43.92 1103.15,-24.95 1166.86,-15.78"/>
<polygon fill="#63b8ff" stroke="#63b8ff" points="1167.45,-19.23 1176.85,-14.34 1166.45,-12.3 1167.45,-19.23"/>
</a>
</g>
</g>
<!-- Node26&#45;&gt;Node18 -->
<g id="edge52_Node000026_Node000018" class="edge">
<title>Node26&#45;&gt;Node18</title>
<g id="a_edge52_Node000026_Node000018"><a xlink:title=" ">
<path fill="none" stroke="#63b8ff" d="M806.26,-54.98C775.07,-45.9 725.56,-31.49 691.41,-21.54"/>
<polygon fill="#63b8ff" stroke="#63b8ff" points="692.35,-18.17 681.77,-18.73 690.39,-24.89 692.35,-18.17"/>
</a>
</g>
</g>
</g>
</svg>
