<?xml version="1.0" encoding="UTF-8" standalone="no"?>
<!DOCTYPE svg PUBLIC "-//W3C//DTD SVG 1.1//EN"
 "http://www.w3.org/Graphics/SVG/1.1/DTD/svg11.dtd">
<!-- Generated by graphviz version 2.43.0 (0)
 -->
<!-- Title: services/pipeline/stage/ProcessStageHandler.cpp Pages: 1 -->
<svg width="1157pt" height="445pt"
 viewBox="0.00 0.00 1156.50 445.00" xmlns="http://www.w3.org/2000/svg" xmlns:xlink="http://www.w3.org/1999/xlink">
<g id="graph0" class="graph" transform="scale(1 1) rotate(0) translate(4 441)">
<title>services/pipeline/stage/ProcessStageHandler.cpp</title>
<!-- Node1 -->
<g id="Node000001" class="node">
<title>Node1</title>
<g id="a_Node000001"><a xlink:title=" ">
<polygon fill="#999999" stroke="#666666" points="919,-437 776,-437 776,-407 919,-407 919,-437"/>
<text text-anchor="start" x="784" y="-425" font-family="Helvetica,sans-Serif" font-size="10.00">services/pipeline/stage</text>
<text text-anchor="middle" x="847.5" y="-414" font-family="Helvetica,sans-Serif" font-size="10.00">/ProcessStageHandler.cpp</text>
</a>
</g>
</g>
<!-- Node2 -->
<g id="Node000002" class="node">
<title>Node2</title>
<g id="a_Node000002"><a xlink:href="ProcessStageHandler_8h.html" target="_top" xlink:title=" ">
<polygon fill="white" stroke="#666666" points="665.5,-371 537.5,-371 537.5,-352 665.5,-352 665.5,-371"/>
<text text-anchor="middle" x="601.5" y="-359" font-family="Helvetica,sans-Serif" font-size="10.00">ProcessStageHandler.h</text>
</a>
</g>
</g>
<!-- Node1&#45;&gt;Node2 -->
<g id="edge1_Node000001_Node000002" class="edge">
<title>Node1&#45;&gt;Node2</title>
<g id="a_edge1_Node000001_Node000002"><a xlink:title=" ">
<path fill="none" stroke="#63b8ff" d="M788.58,-406.99C745.3,-396.7 687.33,-382.91 647.45,-373.43"/>
<polygon fill="#63b8ff" stroke="#63b8ff" points="648.01,-369.96 637.47,-371.05 646.39,-376.77 648.01,-369.96"/>
</a>
</g>
</g>
<!-- Node16 -->
<g id="Node000016" class="node">
<title>Node16</title>
<g id="a_Node000016"><a xlink:title=" ">
<polygon fill="#e0e0e0" stroke="#999999" points="1148.5,-184 1092.5,-184 1092.5,-165 1148.5,-165 1148.5,-184"/>
<text text-anchor="middle" x="1120.5" y="-172" font-family="Helvetica,sans-Serif" font-size="10.00">QDebug</text>
</a>
</g>
</g>
<!-- Node1&#45;&gt;Node16 -->
<g id="edge53_Node000001_Node000016" class="edge">
<title>Node1&#45;&gt;Node16</title>
<g id="a_edge53_Node000001_Node000016"><a xlink:title=" ">
<path fill="none" stroke="#63b8ff" d="M863.36,-406.74C911.23,-363.69 1054.02,-235.28 1103.44,-190.84"/>
<polygon fill="#63b8ff" stroke="#63b8ff" points="1105.95,-193.29 1111.04,-184 1101.27,-188.09 1105.95,-193.29"/>
</a>
</g>
</g>
<!-- Node20 -->
<g id="Node000020" class="node">
<title>Node20</title>
<g id="a_Node000020"><a xlink:title=" ">
<polygon fill="#e0e0e0" stroke="#999999" points="848.5,-244.5 778.5,-244.5 778.5,-225.5 848.5,-225.5 848.5,-244.5"/>
<text text-anchor="middle" x="813.5" y="-232.5" font-family="Helvetica,sans-Serif" font-size="10.00">QRunnable</text>
</a>
</g>
</g>
<!-- Node1&#45;&gt;Node20 -->
<g id="edge54_Node000001_Node000020" class="edge">
<title>Node1&#45;&gt;Node20</title>
<g id="a_edge54_Node000001_Node000020"><a xlink:title=" ">
<path fill="none" stroke="#63b8ff" d="M846.21,-406.69C843.8,-381.9 838.02,-329.47 828.5,-286 826.19,-275.44 822.77,-263.86 819.78,-254.51"/>
<polygon fill="#63b8ff" stroke="#63b8ff" points="823.02,-253.15 816.56,-244.75 816.37,-255.34 823.02,-253.15"/>
</a>
</g>
</g>
<!-- Node3 -->
<g id="Node000003" class="node">
<title>Node3</title>
<g id="a_Node000003"><a xlink:href="ComponentExportStatus_8h.html" target="_top" xlink:title=" ">
<polygon fill="white" stroke="#666666" points="739,-250 600,-250 600,-220 739,-220 739,-250"/>
<text text-anchor="start" x="608" y="-238" font-family="Helvetica,sans-Serif" font-size="10.00">../../../models/Component</text>
<text text-anchor="middle" x="669.5" y="-227" font-family="Helvetica,sans-Serif" font-size="10.00">ExportStatus.h</text>
</a>
</g>
</g>
<!-- Node2&#45;&gt;Node3 -->
<g id="edge2_Node000002_Node000003" class="edge">
<title>Node2&#45;&gt;Node3</title>
<g id="a_edge2_Node000002_Node000003"><a xlink:title=" ">
<path fill="none" stroke="#63b8ff" d="M614.48,-351.8C625.43,-343.77 640.71,-330.87 649.5,-316 659.6,-298.92 664.63,-276.88 667.11,-260.26"/>
<polygon fill="#63b8ff" stroke="#63b8ff" points="670.6,-260.59 668.41,-250.22 663.66,-259.69 670.6,-260.59"/>
</a>
</g>
</g>
<!-- Node18 -->
<g id="Node000018" class="node">
<title>Node18</title>
<g id="a_Node000018"><a xlink:href="ProcessWorker_8h.html" target="_top" xlink:title=" ">
<polygon fill="white" stroke="#666666" points="819.5,-316 697.5,-316 697.5,-286 819.5,-286 819.5,-316"/>
<text text-anchor="start" x="705.5" y="-304" font-family="Helvetica,sans-Serif" font-size="10.00">../../../workers/Process</text>
<text text-anchor="middle" x="758.5" y="-293" font-family="Helvetica,sans-Serif" font-size="10.00">Worker.h</text>
</a>
</g>
</g>
<!-- Node2&#45;&gt;Node18 -->
<g id="edge33_Node000002_Node000018" class="edge">
<title>Node2&#45;&gt;Node18</title>
<g id="a_edge33_Node000002_Node000018"><a xlink:title=" ">
<path fill="none" stroke="#63b8ff" d="M624.33,-351.99C647.02,-343.54 682.5,-330.32 711.28,-319.59"/>
<polygon fill="#63b8ff" stroke="#63b8ff" points="712.61,-322.84 720.75,-316.06 710.16,-316.28 712.61,-322.84"/>
</a>
</g>
</g>
<!-- Node21 -->
<g id="Node000021" class="node">
<title>Node21</title>
<g id="a_Node000021"><a xlink:href="PipelineQueueManager_8h.html" target="_top" xlink:title=" ">
<polygon fill="white" stroke="#666666" points="485.5,-310.5 305.5,-310.5 305.5,-291.5 485.5,-291.5 485.5,-310.5"/>
<text text-anchor="middle" x="395.5" y="-298.5" font-family="Helvetica,sans-Serif" font-size="10.00">../queue/PipelineQueueManager.h</text>
</a>
</g>
</g>
<!-- Node2&#45;&gt;Node21 -->
<g id="edge37_Node000002_Node000021" class="edge">
<title>Node2&#45;&gt;Node21</title>
<g id="a_edge37_Node000002_Node000021"><a xlink:title=" ">
<path fill="none" stroke="#63b8ff" d="M571.55,-351.99C535.54,-341.77 475,-324.58 435.15,-313.26"/>
<polygon fill="#63b8ff" stroke="#63b8ff" points="436.07,-309.88 425.49,-310.52 434.15,-316.62 436.07,-309.88"/>
</a>
</g>
</g>
<!-- Node27 -->
<g id="Node000027" class="node">
<title>Node27</title>
<g id="a_Node000027"><a xlink:href="StageHandler_8h.html" target="_top" xlink:title=" ">
<polygon fill="white" stroke="#666666" points="287,-310.5 196,-310.5 196,-291.5 287,-291.5 287,-310.5"/>
<text text-anchor="middle" x="241.5" y="-298.5" font-family="Helvetica,sans-Serif" font-size="10.00">StageHandler.h</text>
</a>
</g>
</g>
<!-- Node2&#45;&gt;Node27 -->
<g id="edge47_Node000002_Node000027" class="edge">
<title>Node2&#45;&gt;Node27</title>
<g id="a_edge47_Node000002_Node000027"><a xlink:title=" ">
<path fill="none" stroke="#63b8ff" d="M537.49,-353.13C475.55,-345.54 379.15,-332.5 296.5,-316 292.03,-315.11 287.38,-314.08 282.76,-313"/>
<polygon fill="#63b8ff" stroke="#63b8ff" points="283.33,-309.53 272.78,-310.56 281.67,-316.33 283.33,-309.53"/>
</a>
</g>
</g>
<!-- Node28 -->
<g id="Node000028" class="node">
<title>Node28</title>
<g id="a_Node000028"><a xlink:title=" ">
<polygon fill="#e0e0e0" stroke="#999999" points="543.5,-310.5 503.5,-310.5 503.5,-291.5 543.5,-291.5 543.5,-310.5"/>
<text text-anchor="middle" x="523.5" y="-298.5" font-family="Helvetica,sans-Serif" font-size="10.00">QSet</text>
</a>
</g>
</g>
<!-- Node2&#45;&gt;Node28 -->
<g id="edge51_Node000002_Node000028" class="edge">
<title>Node2&#45;&gt;Node28</title>
<g id="a_edge51_Node000002_Node000028"><a xlink:title=" ">
<path fill="none" stroke="#63b8ff" d="M589.99,-351.87C577.66,-342.62 557.88,-327.78 543.09,-316.69"/>
<polygon fill="#63b8ff" stroke="#63b8ff" points="545.16,-313.87 535.06,-310.67 540.96,-319.47 545.16,-313.87"/>
</a>
</g>
</g>
<!-- Node29 -->
<g id="Node000029" class="node">
<title>Node29</title>
<g id="a_Node000029"><a xlink:title=" ">
<polygon fill="#e0e0e0" stroke="#999999" points="641,-310.5 562,-310.5 562,-291.5 641,-291.5 641,-310.5"/>
<text text-anchor="middle" x="601.5" y="-298.5" font-family="Helvetica,sans-Serif" font-size="10.00">QThreadPool</text>
</a>
</g>
</g>
<!-- Node2&#45;&gt;Node29 -->
<g id="edge52_Node000002_Node000029" class="edge">
<title>Node2&#45;&gt;Node29</title>
<g id="a_edge52_Node000002_Node000029"><a xlink:title=" ">
<path fill="none" stroke="#63b8ff" d="M601.5,-351.87C601.5,-343.75 601.5,-331.31 601.5,-320.89"/>
<polygon fill="#63b8ff" stroke="#63b8ff" points="605,-320.67 601.5,-310.67 598,-320.67 605,-320.67"/>
</a>
</g>
</g>
<!-- Node4 -->
<g id="Node000004" class="node">
<title>Node4</title>
<g id="a_Node000004"><a xlink:href="ComponentData_8h.html" target="_top" xlink:title=" ">
<polygon fill="white" stroke="#666666" points="715.5,-184 571.5,-184 571.5,-165 715.5,-165 715.5,-184"/>
<text text-anchor="middle" x="643.5" y="-172" font-family="Helvetica,sans-Serif" font-size="10.00">models/ComponentData.h</text>
</a>
</g>
</g>
<!-- Node3&#45;&gt;Node4 -->
<g id="edge3_Node000003_Node000004" class="edge">
<title>Node3&#45;&gt;Node4</title>
<g id="a_edge3_Node000003_Node000004"><a xlink:title=" ">
<path fill="none" stroke="#63b8ff" d="M663.21,-219.84C659.7,-211.95 655.3,-202.05 651.55,-193.61"/>
<polygon fill="#63b8ff" stroke="#63b8ff" points="654.66,-191.98 647.4,-184.27 648.26,-194.83 654.66,-191.98"/>
</a>
</g>
</g>
<!-- Node5 -->
<g id="Node000005" class="node">
<title>Node5</title>
<g id="a_Node000005"><a xlink:href="FootprintData_8h.html" target="_top" xlink:title=" ">
<polygon fill="white" stroke="#666666" points="777.5,-129 685.5,-129 685.5,-110 777.5,-110 777.5,-129"/>
<text text-anchor="middle" x="731.5" y="-117" font-family="Helvetica,sans-Serif" font-size="10.00">FootprintData.h</text>
</a>
</g>
</g>
<!-- Node3&#45;&gt;Node5 -->
<g id="edge26_Node000003_Node000005" class="edge">
<title>Node3&#45;&gt;Node5</title>
<g id="a_edge26_Node000003_Node000005"><a xlink:title=" ">
<path fill="none" stroke="#63b8ff" d="M691.65,-219.83C703.46,-211.02 717.06,-198.6 724.5,-184 731.51,-170.24 732.97,-152.67 732.84,-139.5"/>
<polygon fill="#63b8ff" stroke="#63b8ff" points="736.32,-139.11 732.41,-129.26 729.33,-139.4 736.32,-139.11"/>
</a>
</g>
</g>
<!-- Node6 -->
<g id="Node000006" class="node">
<title>Node6</title>
<g id="a_Node000006"><a xlink:href="Model3DData_8h.html" target="_top" xlink:title=" ">
<polygon fill="white" stroke="#666666" points="515.5,-74 423.5,-74 423.5,-55 515.5,-55 515.5,-74"/>
<text text-anchor="middle" x="469.5" y="-62" font-family="Helvetica,sans-Serif" font-size="10.00">Model3DData.h</text>
</a>
</g>
</g>
<!-- Node3&#45;&gt;Node6 -->
<g id="edge27_Node000003_Node000006" class="edge">
<title>Node3&#45;&gt;Node6</title>
<g id="a_edge27_Node000003_Node000006"><a xlink:title=" ">
<path fill="none" stroke="#63b8ff" d="M599.72,-226.29C535.03,-218.09 444.41,-203.59 414.5,-184 383.57,-163.74 356.79,-141.28 376.5,-110 386.23,-94.56 402.97,-84.35 419.59,-77.67"/>
<polygon fill="#63b8ff" stroke="#63b8ff" points="421.11,-80.84 429.3,-74.13 418.71,-74.26 421.11,-80.84"/>
</a>
</g>
</g>
<!-- Node9 -->
<g id="Node000009" class="node">
<title>Node9</title>
<g id="a_Node000009"><a xlink:title=" ">
<polygon fill="#e0e0e0" stroke="#999999" points="774,-19 721,-19 721,0 774,0 774,-19"/>
<text text-anchor="middle" x="747.5" y="-7" font-family="Helvetica,sans-Serif" font-size="10.00">QString</text>
</a>
</g>
</g>
<!-- Node3&#45;&gt;Node9 -->
<g id="edge32_Node000003_Node000009" class="edge">
<title>Node3&#45;&gt;Node9</title>
<g id="a_edge32_Node000003_Node000009"><a xlink:title=" ">
<path fill="none" stroke="#63b8ff" d="M720.11,-219.97C813.71,-192.89 1007.79,-131.03 1045.5,-74 1050.16,-66.96 1051.01,-61.4 1045.5,-55 1012.21,-16.37 856.74,-10.77 784.54,-10.29"/>
<polygon fill="#63b8ff" stroke="#63b8ff" points="784.11,-6.79 774.1,-10.26 784.09,-13.79 784.11,-6.79"/>
</a>
</g>
</g>
<!-- Node13 -->
<g id="Node000013" class="node">
<title>Node13</title>
<g id="a_Node000013"><a xlink:href="SymbolData_8h.html" target="_top" xlink:title=" ">
<polygon fill="white" stroke="#666666" points="893.5,-129 807.5,-129 807.5,-110 893.5,-110 893.5,-129"/>
<text text-anchor="middle" x="850.5" y="-117" font-family="Helvetica,sans-Serif" font-size="10.00">SymbolData.h</text>
</a>
</g>
</g>
<!-- Node3&#45;&gt;Node13 -->
<g id="edge28_Node000003_Node000013" class="edge">
<title>Node3&#45;&gt;Node13</title>
<g id="a_edge28_Node000003_Node000013"><a xlink:title=" ">
<path fill="none" stroke="#63b8ff" d="M692.06,-219.85C726.85,-198.03 793.23,-156.41 828,-134.61"/>
<polygon fill="#63b8ff" stroke="#63b8ff" points="829.9,-137.55 836.51,-129.27 826.18,-131.62 829.9,-137.55"/>
</a>
</g>
</g>
<!-- Node15 -->
<g id="Node000015" class="node">
<title>Node15</title>
<g id="a_Node000015"><a xlink:title=" ">
<polygon fill="#e0e0e0" stroke="#999999" points="477.5,-129 385.5,-129 385.5,-110 477.5,-110 477.5,-129"/>
<text text-anchor="middle" x="431.5" y="-117" font-family="Helvetica,sans-Serif" font-size="10.00">QSharedPointer</text>
</a>
</g>
</g>
<!-- Node3&#45;&gt;Node15 -->
<g id="edge31_Node000003_Node000015" class="edge">
<title>Node3&#45;&gt;Node15</title>
<g id="a_edge31_Node000003_Node000015"><a xlink:title=" ">
<path fill="none" stroke="#63b8ff" d="M639,-219.91C617.56,-209.96 588.22,-196.27 562.5,-184 545.1,-175.7 540.85,-173.42 523.5,-165 501.58,-154.36 476.71,-142.33 458.35,-133.46"/>
<polygon fill="#63b8ff" stroke="#63b8ff" points="459.67,-130.21 449.14,-129.02 456.63,-136.52 459.67,-130.21"/>
</a>
</g>
</g>
<!-- Node3&#45;&gt;Node16 -->
<g id="edge29_Node000003_Node000016" class="edge">
<title>Node3&#45;&gt;Node16</title>
<g id="a_edge29_Node000003_Node000016"><a xlink:title=" ">
<path fill="none" stroke="#63b8ff" d="M739.14,-224.04C749.32,-222.65 759.68,-221.26 769.5,-220 906.64,-202.41 941.96,-205.73 1078.5,-184 1079.6,-183.82 1080.72,-183.64 1081.85,-183.45"/>
<polygon fill="#63b8ff" stroke="#63b8ff" points="1082.88,-186.82 1092.09,-181.58 1081.63,-179.93 1082.88,-186.82"/>
</a>
</g>
</g>
<!-- Node17 -->
<g id="Node000017" class="node">
<title>Node17</title>
<g id="a_Node000017"><a xlink:title=" ">
<polygon fill="#e0e0e0" stroke="#999999" points="515,-184 424,-184 424,-165 515,-165 515,-184"/>
<text text-anchor="middle" x="469.5" y="-172" font-family="Helvetica,sans-Serif" font-size="10.00">QElapsedTimer</text>
</a>
</g>
</g>
<!-- Node3&#45;&gt;Node17 -->
<g id="edge30_Node000003_Node000017" class="edge">
<title>Node3&#45;&gt;Node17</title>
<g id="a_edge30_Node000003_Node000017"><a xlink:title=" ">
<path fill="none" stroke="#63b8ff" d="M621.6,-219.99C587.08,-209.89 541.08,-196.44 508.73,-186.98"/>
<polygon fill="#63b8ff" stroke="#63b8ff" points="509.32,-183.5 498.74,-184.05 507.36,-190.22 509.32,-183.5"/>
</a>
</g>
</g>
<!-- Node4&#45;&gt;Node5 -->
<g id="edge4_Node000004_Node000005" class="edge">
<title>Node4&#45;&gt;Node5</title>
<g id="a_edge4_Node000004_Node000005"><a xlink:title=" ">
<path fill="none" stroke="#63b8ff" d="M657.64,-164.98C671.29,-156.77 692.19,-144.18 708.28,-134.49"/>
<polygon fill="#63b8ff" stroke="#63b8ff" points="710.34,-137.33 717.1,-129.17 706.73,-131.33 710.34,-137.33"/>
</a>
</g>
</g>
<!-- Node4&#45;&gt;Node6 -->
<g id="edge14_Node000004_Node000006" class="edge">
<title>Node4&#45;&gt;Node6</title>
<g id="a_edge14_Node000004_Node000006"><a xlink:title=" ">
<path fill="none" stroke="#63b8ff" d="M610.95,-164.99C587.09,-157.79 554.61,-145.92 529.5,-129 510.51,-116.21 493.06,-96.43 481.93,-82.34"/>
<polygon fill="#63b8ff" stroke="#63b8ff" points="484.43,-79.86 475.58,-74.04 478.88,-84.11 484.43,-79.86"/>
</a>
</g>
</g>
<!-- Node8 -->
<g id="Node000008" class="node">
<title>Node8</title>
<g id="a_Node000008"><a xlink:title=" ">
<polygon fill="#e0e0e0" stroke="#999999" points="651.5,-19 575.5,-19 575.5,0 651.5,0 651.5,-19"/>
<text text-anchor="middle" x="613.5" y="-7" font-family="Helvetica,sans-Serif" font-size="10.00">QJsonObject</text>
</a>
</g>
</g>
<!-- Node4&#45;&gt;Node8 -->
<g id="edge23_Node000004_Node000008" class="edge">
<title>Node4&#45;&gt;Node8</title>
<g id="a_edge23_Node000004_Node000008"><a xlink:title=" ">
<path fill="none" stroke="#63b8ff" d="M615.11,-164.92C598.04,-158.13 577.69,-146.77 567.5,-129 551.14,-100.47 554.66,-85.28 567.5,-55 572.48,-43.25 582.25,-33.09 591.51,-25.45"/>
<polygon fill="#63b8ff" stroke="#63b8ff" points="593.9,-28.03 599.72,-19.18 589.65,-22.47 593.9,-28.03"/>
</a>
</g>
</g>
<!-- Node4&#45;&gt;Node9 -->
<g id="edge25_Node000004_Node000009" class="edge">
<title>Node4&#45;&gt;Node9</title>
<g id="a_edge25_Node000004_Node000009"><a xlink:title=" ">
<path fill="none" stroke="#63b8ff" d="M635.33,-164.95C616.58,-144.29 574.02,-90.68 600.5,-55 613.7,-37.21 671.69,-23.77 710.77,-16.52"/>
<polygon fill="#63b8ff" stroke="#63b8ff" points="711.52,-19.94 720.74,-14.73 710.28,-13.05 711.52,-19.94"/>
</a>
</g>
</g>
<!-- Node10 -->
<g id="Node000010" class="node">
<title>Node10</title>
<g id="a_Node000010"><a xlink:title=" ">
<polygon fill="#e0e0e0" stroke="#999999" points="681,-74 610,-74 610,-55 681,-55 681,-74"/>
<text text-anchor="middle" x="645.5" y="-62" font-family="Helvetica,sans-Serif" font-size="10.00">QJsonArray</text>
</a>
</g>
</g>
<!-- Node4&#45;&gt;Node10 -->
<g id="edge22_Node000004_Node000010" class="edge">
<title>Node4&#45;&gt;Node10</title>
<g id="a_edge22_Node000004_Node000010"><a xlink:title=" ">
<path fill="none" stroke="#63b8ff" d="M643.66,-164.66C643.99,-147.17 644.72,-107.8 645.15,-84.27"/>
<polygon fill="#63b8ff" stroke="#63b8ff" points="648.65,-84.22 645.34,-74.16 641.66,-84.09 648.65,-84.22"/>
</a>
</g>
</g>
<!-- Node4&#45;&gt;Node13 -->
<g id="edge15_Node000004_Node000013" class="edge">
<title>Node4&#45;&gt;Node13</title>
<g id="a_edge15_Node000004_Node000013"><a xlink:title=" ">
<path fill="none" stroke="#63b8ff" d="M676.76,-164.98C712.11,-155.93 768.17,-141.58 807.01,-131.64"/>
<polygon fill="#63b8ff" stroke="#63b8ff" points="808.16,-134.95 816.98,-129.08 806.43,-128.17 808.16,-134.95"/>
</a>
</g>
</g>
<!-- Node4&#45;&gt;Node15 -->
<g id="edge24_Node000004_Node000015" class="edge">
<title>Node4&#45;&gt;Node15</title>
<g id="a_edge24_Node000004_Node000015"><a xlink:title=" ">
<path fill="none" stroke="#63b8ff" d="M609.44,-164.98C573.08,-155.89 515.33,-141.46 475.53,-131.51"/>
<polygon fill="#63b8ff" stroke="#63b8ff" points="476.38,-128.11 465.83,-129.08 474.68,-134.9 476.38,-128.11"/>
</a>
</g>
</g>
<!-- Node5&#45;&gt;Node6 -->
<g id="edge5_Node000005_Node000006" class="edge">
<title>Node5&#45;&gt;Node6</title>
<g id="a_edge5_Node000005_Node000006"><a xlink:title=" ">
<path fill="none" stroke="#63b8ff" d="M689.41,-109.98C643.8,-100.76 570.98,-86.03 521.75,-76.07"/>
<polygon fill="#63b8ff" stroke="#63b8ff" points="522.42,-72.63 511.92,-74.08 521.03,-79.5 522.42,-72.63"/>
</a>
</g>
</g>
<!-- Node5&#45;&gt;Node8 -->
<g id="edge10_Node000005_Node000008" class="edge">
<title>Node5&#45;&gt;Node8</title>
<g id="a_edge10_Node000005_Node000008"><a xlink:title=" ">
<path fill="none" stroke="#63b8ff" d="M727.38,-109.8C720.83,-96.66 706.97,-71.54 689.5,-55 675.93,-42.15 657.99,-31.43 642.95,-23.73"/>
<polygon fill="#63b8ff" stroke="#63b8ff" points="644.08,-20.38 633.56,-19.11 640.99,-26.67 644.08,-20.38"/>
</a>
</g>
</g>
<!-- Node5&#45;&gt;Node9 -->
<g id="edge13_Node000005_Node000009" class="edge">
<title>Node5&#45;&gt;Node9</title>
<g id="a_edge13_Node000005_Node000009"><a xlink:title=" ">
<path fill="none" stroke="#63b8ff" d="M732.81,-109.66C735.4,-92.17 741.23,-52.8 744.72,-29.27"/>
<polygon fill="#63b8ff" stroke="#63b8ff" points="748.21,-29.56 746.22,-19.16 741.29,-28.54 748.21,-29.56"/>
</a>
</g>
</g>
<!-- Node5&#45;&gt;Node10 -->
<g id="edge9_Node000005_Node000010" class="edge">
<title>Node5&#45;&gt;Node10</title>
<g id="a_edge9_Node000005_Node000010"><a xlink:title=" ">
<path fill="none" stroke="#63b8ff" d="M717.68,-109.98C704.35,-101.77 683.92,-89.18 668.19,-79.49"/>
<polygon fill="#63b8ff" stroke="#63b8ff" points="669.92,-76.44 659.57,-74.17 666.25,-82.4 669.92,-76.44"/>
</a>
</g>
</g>
<!-- Node11 -->
<g id="Node000011" class="node">
<title>Node11</title>
<g id="a_Node000011"><a xlink:title=" ">
<polygon fill="#e0e0e0" stroke="#999999" points="817,-74 776,-74 776,-55 817,-55 817,-74"/>
<text text-anchor="middle" x="796.5" y="-62" font-family="Helvetica,sans-Serif" font-size="10.00">QList</text>
</a>
</g>
</g>
<!-- Node5&#45;&gt;Node11 -->
<g id="edge11_Node000005_Node000011" class="edge">
<title>Node5&#45;&gt;Node11</title>
<g id="a_edge11_Node000005_Node000011"><a xlink:title=" ">
<path fill="none" stroke="#63b8ff" d="M741.94,-109.98C751.65,-102.07 766.32,-90.11 778,-80.58"/>
<polygon fill="#63b8ff" stroke="#63b8ff" points="780.33,-83.2 785.87,-74.17 775.9,-77.78 780.33,-83.2"/>
</a>
</g>
</g>
<!-- Node12 -->
<g id="Node000012" class="node">
<title>Node12</title>
<g id="a_Node000012"><a xlink:title=" ">
<polygon fill="#e0e0e0" stroke="#999999" points="890,-74 835,-74 835,-55 890,-55 890,-74"/>
<text text-anchor="middle" x="862.5" y="-62" font-family="Helvetica,sans-Serif" font-size="10.00">QPointF</text>
</a>
</g>
</g>
<!-- Node5&#45;&gt;Node12 -->
<g id="edge12_Node000005_Node000012" class="edge">
<title>Node5&#45;&gt;Node12</title>
<g id="a_edge12_Node000005_Node000012"><a xlink:title=" ">
<path fill="none" stroke="#63b8ff" d="M752.55,-109.98C773.91,-101.34 807.2,-87.87 831.56,-78.02"/>
<polygon fill="#63b8ff" stroke="#63b8ff" points="833.11,-81.17 841.07,-74.17 830.49,-74.68 833.11,-81.17"/>
</a>
</g>
</g>
<!-- Node7 -->
<g id="Node000007" class="node">
<title>Node7</title>
<g id="a_Node000007"><a xlink:title=" ">
<polygon fill="#e0e0e0" stroke="#999999" points="506,-19 433,-19 433,0 506,0 506,-19"/>
<text text-anchor="middle" x="469.5" y="-7" font-family="Helvetica,sans-Serif" font-size="10.00">QByteArray</text>
</a>
</g>
</g>
<!-- Node6&#45;&gt;Node7 -->
<g id="edge6_Node000006_Node000007" class="edge">
<title>Node6&#45;&gt;Node7</title>
<g id="a_edge6_Node000006_Node000007"><a xlink:title=" ">
<path fill="none" stroke="#63b8ff" d="M469.5,-54.75C469.5,-47.8 469.5,-37.85 469.5,-29.13"/>
<polygon fill="#63b8ff" stroke="#63b8ff" points="473,-29.09 469.5,-19.09 466,-29.09 473,-29.09"/>
</a>
</g>
</g>
<!-- Node6&#45;&gt;Node8 -->
<g id="edge7_Node000006_Node000008" class="edge">
<title>Node6&#45;&gt;Node8</title>
<g id="a_edge7_Node000006_Node000008"><a xlink:title=" ">
<path fill="none" stroke="#63b8ff" d="M492.64,-54.98C516.32,-46.27 553.37,-32.63 580.21,-22.75"/>
<polygon fill="#63b8ff" stroke="#63b8ff" points="581.77,-25.91 589.94,-19.17 579.35,-19.34 581.77,-25.91"/>
</a>
</g>
</g>
<!-- Node6&#45;&gt;Node9 -->
<g id="edge8_Node000006_Node000009" class="edge">
<title>Node6&#45;&gt;Node9</title>
<g id="a_edge8_Node000006_Node000009"><a xlink:title=" ">
<path fill="none" stroke="#63b8ff" d="M514.17,-54.98C568.87,-44.55 660.5,-27.09 711.12,-17.44"/>
<polygon fill="#63b8ff" stroke="#63b8ff" points="711.81,-20.87 720.98,-15.56 710.5,-13.99 711.81,-20.87"/>
</a>
</g>
</g>
<!-- Node13&#45;&gt;Node8 -->
<g id="edge17_Node000013_Node000008" class="edge">
<title>Node13&#45;&gt;Node8</title>
<g id="a_edge17_Node000013_Node000008"><a xlink:title=" ">
<path fill="none" stroke="#63b8ff" d="M865.28,-109.82C884.71,-97.35 914.59,-73.79 898.5,-55 883.31,-37.25 738.81,-21.73 661.6,-14.62"/>
<polygon fill="#63b8ff" stroke="#63b8ff" points="661.91,-11.14 651.63,-13.72 661.27,-18.11 661.91,-11.14"/>
</a>
</g>
</g>
<!-- Node13&#45;&gt;Node9 -->
<g id="edge21_Node000013_Node000009" class="edge">
<title>Node13&#45;&gt;Node9</title>
<g id="a_edge21_Node000013_Node000009"><a xlink:title=" ">
<path fill="none" stroke="#63b8ff" d="M878.46,-109.96C909.07,-99.16 951.44,-79.04 932.5,-55 914.4,-32.04 832.88,-19.55 784.3,-14.04"/>
<polygon fill="#63b8ff" stroke="#63b8ff" points="784.5,-10.54 774.18,-12.93 783.74,-17.5 784.5,-10.54"/>
</a>
</g>
</g>
<!-- Node13&#45;&gt;Node10 -->
<g id="edge16_Node000013_Node000010" class="edge">
<title>Node13&#45;&gt;Node10</title>
<g id="a_edge16_Node000013_Node000010"><a xlink:title=" ">
<path fill="none" stroke="#63b8ff" d="M817.56,-109.98C782.55,-100.93 727.03,-86.58 688.57,-76.64"/>
<polygon fill="#63b8ff" stroke="#63b8ff" points="689.25,-73.2 678.69,-74.08 687.5,-79.97 689.25,-73.2"/>
</a>
</g>
</g>
<!-- Node13&#45;&gt;Node11 -->
<g id="edge18_Node000013_Node000011" class="edge">
<title>Node13&#45;&gt;Node11</title>
<g id="a_edge18_Node000013_Node000011"><a xlink:title=" ">
<path fill="none" stroke="#63b8ff" d="M841.58,-109.75C833.72,-102.03 822.07,-90.6 812.58,-81.28"/>
<polygon fill="#63b8ff" stroke="#63b8ff" points="814.84,-78.6 805.25,-74.09 809.94,-83.59 814.84,-78.6"/>
</a>
</g>
</g>
<!-- Node13&#45;&gt;Node12 -->
<g id="edge19_Node000013_Node000012" class="edge">
<title>Node13&#45;&gt;Node12</title>
<g id="a_edge19_Node000013_Node000012"><a xlink:title=" ">
<path fill="none" stroke="#63b8ff" d="M852.48,-109.75C854.07,-102.72 856.36,-92.62 858.35,-83.84"/>
<polygon fill="#63b8ff" stroke="#63b8ff" points="861.76,-84.62 860.56,-74.09 854.93,-83.07 861.76,-84.62"/>
</a>
</g>
</g>
<!-- Node14 -->
<g id="Node000014" class="node">
<title>Node14</title>
<g id="a_Node000014"><a xlink:title=" ">
<polygon fill="#e0e0e0" stroke="#999999" points="1036.5,-74 984.5,-74 984.5,-55 1036.5,-55 1036.5,-74"/>
<text text-anchor="middle" x="1010.5" y="-62" font-family="Helvetica,sans-Serif" font-size="10.00">QRectF</text>
</a>
</g>
</g>
<!-- Node13&#45;&gt;Node14 -->
<g id="edge20_Node000013_Node000014" class="edge">
<title>Node13&#45;&gt;Node14</title>
<g id="a_edge20_Node000013_Node000014"><a xlink:title=" ">
<path fill="none" stroke="#63b8ff" d="M876.21,-109.98C902.95,-101.13 945.03,-87.19 974.95,-77.28"/>
<polygon fill="#63b8ff" stroke="#63b8ff" points="976.2,-80.55 984.59,-74.08 974,-73.9 976.2,-80.55"/>
</a>
</g>
</g>
<!-- Node18&#45;&gt;Node3 -->
<g id="edge34_Node000018_Node000003" class="edge">
<title>Node18&#45;&gt;Node3</title>
<g id="a_edge34_Node000018_Node000003"><a xlink:title=" ">
<path fill="none" stroke="#63b8ff" d="M738.75,-285.8C726.65,-277.1 710.97,-265.82 697.59,-256.2"/>
<polygon fill="#63b8ff" stroke="#63b8ff" points="699.36,-253.16 689.2,-250.16 695.27,-258.84 699.36,-253.16"/>
</a>
</g>
</g>
<!-- Node19 -->
<g id="Node000019" class="node">
<title>Node19</title>
<g id="a_Node000019"><a xlink:title=" ">
<polygon fill="#e0e0e0" stroke="#999999" points="479.5,-244.5 423.5,-244.5 423.5,-225.5 479.5,-225.5 479.5,-244.5"/>
<text text-anchor="middle" x="451.5" y="-232.5" font-family="Helvetica,sans-Serif" font-size="10.00">QObject</text>
</a>
</g>
</g>
<!-- Node18&#45;&gt;Node19 -->
<g id="edge35_Node000018_Node000019" class="edge">
<title>Node18&#45;&gt;Node19</title>
<g id="a_edge35_Node000018_Node000019"><a xlink:title=" ">
<path fill="none" stroke="#63b8ff" d="M697.48,-287.28C635.51,-274.36 541.49,-254.76 489.47,-243.91"/>
<polygon fill="#63b8ff" stroke="#63b8ff" points="490.15,-240.48 479.64,-241.87 488.72,-247.33 490.15,-240.48"/>
</a>
</g>
</g>
<!-- Node18&#45;&gt;Node20 -->
<g id="edge36_Node000018_Node000020" class="edge">
<title>Node18&#45;&gt;Node20</title>
<g id="a_edge36_Node000018_Node000020"><a xlink:title=" ">
<path fill="none" stroke="#63b8ff" d="M770.71,-285.8C779.11,-276.01 790.31,-262.98 799.15,-252.7"/>
<polygon fill="#63b8ff" stroke="#63b8ff" points="802.04,-254.71 805.9,-244.84 796.73,-250.15 802.04,-254.71"/>
</a>
</g>
</g>
<!-- Node21&#45;&gt;Node3 -->
<g id="edge38_Node000021_Node000003" class="edge">
<title>Node21&#45;&gt;Node3</title>
<g id="a_edge38_Node000021_Node000003"><a xlink:title=" ">
<path fill="none" stroke="#63b8ff" d="M432.17,-291.44C474.86,-281.46 546.33,-264.77 599.71,-252.3"/>
<polygon fill="#63b8ff" stroke="#63b8ff" points="600.51,-255.71 609.46,-250.02 598.92,-248.89 600.51,-255.71"/>
</a>
</g>
</g>
<!-- Node21&#45;&gt;Node15 -->
<g id="edge46_Node000021_Node000015" class="edge">
<title>Node21&#45;&gt;Node15</title>
<g id="a_edge46_Node000021_Node000015"><a xlink:title=" ">
<path fill="none" stroke="#63b8ff" d="M396.04,-291.34C397.54,-269.72 402.44,-211.75 414.5,-165 416.8,-156.09 420.31,-146.52 423.54,-138.55"/>
<polygon fill="#63b8ff" stroke="#63b8ff" points="426.84,-139.75 427.52,-129.17 420.39,-137.02 426.84,-139.75"/>
</a>
</g>
</g>
<!-- Node21&#45;&gt;Node19 -->
<g id="edge45_Node000021_Node000019" class="edge">
<title>Node21&#45;&gt;Node19</title>
<g id="a_edge45_Node000021_Node000019"><a xlink:title=" ">
<path fill="none" stroke="#63b8ff" d="M403.05,-291.37C411.69,-281.5 426.03,-265.11 436.87,-252.72"/>
<polygon fill="#63b8ff" stroke="#63b8ff" points="439.76,-254.74 443.71,-244.91 434.49,-250.13 439.76,-254.74"/>
</a>
</g>
</g>
<!-- Node22 -->
<g id="Node000022" class="node">
<title>Node22</title>
<g id="a_Node000022"><a xlink:href="BoundedThreadSafeQueue_8h.html" target="_top" xlink:title=" ">
<polygon fill="white" stroke="#666666" points="265.5,-250 121.5,-250 121.5,-220 265.5,-220 265.5,-250"/>
<text text-anchor="start" x="129.5" y="-238" font-family="Helvetica,sans-Serif" font-size="10.00">../../../utils/BoundedThread</text>
<text text-anchor="middle" x="193.5" y="-227" font-family="Helvetica,sans-Serif" font-size="10.00">SafeQueue.h</text>
</a>
</g>
</g>
<!-- Node21&#45;&gt;Node22 -->
<g id="edge39_Node000021_Node000022" class="edge">
<title>Node21&#45;&gt;Node22</title>
<g id="a_edge39_Node000021_Node000022"><a xlink:title=" ">
<path fill="none" stroke="#63b8ff" d="M368.26,-291.37C337.48,-281.62 286.62,-265.5 247.68,-253.16"/>
<polygon fill="#63b8ff" stroke="#63b8ff" points="248.64,-249.8 238.05,-250.12 246.53,-256.47 248.64,-249.8"/>
</a>
</g>
</g>
<!-- Node23 -->
<g id="Node000023" class="node">
<title>Node23</title>
<g id="a_Node000023"><a xlink:title=" ">
<polygon fill="#e0e0e0" stroke="#999999" points="329,-184 258,-184 258,-165 329,-165 329,-184"/>
<text text-anchor="middle" x="293.5" y="-172" font-family="Helvetica,sans-Serif" font-size="10.00">QAtomicInt</text>
</a>
</g>
</g>
<!-- Node21&#45;&gt;Node23 -->
<g id="edge44_Node000021_Node000023" class="edge">
<title>Node21&#45;&gt;Node23</title>
<g id="a_edge44_Node000021_Node000023"><a xlink:title=" ">
<path fill="none" stroke="#63b8ff" d="M388.49,-291.44C371.75,-271.01 329.2,-219.07 307.18,-192.19"/>
<polygon fill="#63b8ff" stroke="#63b8ff" points="309.6,-189.63 300.56,-184.12 304.19,-194.07 309.6,-189.63"/>
</a>
</g>
</g>
<!-- Node22&#45;&gt;Node23 -->
<g id="edge40_Node000022_Node000023" class="edge">
<title>Node22&#45;&gt;Node23</title>
<g id="a_edge40_Node000022_Node000023"><a xlink:title=" ">
<path fill="none" stroke="#63b8ff" d="M217.45,-219.99C233.39,-210.66 254.23,-198.47 270.06,-189.21"/>
<polygon fill="#63b8ff" stroke="#63b8ff" points="271.87,-192.21 278.73,-184.14 268.33,-186.17 271.87,-192.21"/>
</a>
</g>
</g>
<!-- Node24 -->
<g id="Node000024" class="node">
<title>Node24</title>
<g id="a_Node000024"><a xlink:title=" ">
<polygon fill="#e0e0e0" stroke="#999999" points="55,-184 0,-184 0,-165 55,-165 55,-184"/>
<text text-anchor="middle" x="27.5" y="-172" font-family="Helvetica,sans-Serif" font-size="10.00">QMutex</text>
</a>
</g>
</g>
<!-- Node22&#45;&gt;Node24 -->
<g id="edge41_Node000022_Node000024" class="edge">
<title>Node22&#45;&gt;Node24</title>
<g id="a_edge41_Node000022_Node000024"><a xlink:title=" ">
<path fill="none" stroke="#63b8ff" d="M153.74,-219.99C125.67,-210.1 88.45,-196.98 61.71,-187.56"/>
<polygon fill="#63b8ff" stroke="#63b8ff" points="62.61,-184.16 52.01,-184.14 60.28,-190.76 62.61,-184.16"/>
</a>
</g>
</g>
<!-- Node25 -->
<g id="Node000025" class="node">
<title>Node25</title>
<g id="a_Node000025"><a xlink:title=" ">
<polygon fill="#e0e0e0" stroke="#999999" points="239.5,-184 183.5,-184 183.5,-165 239.5,-165 239.5,-184"/>
<text text-anchor="middle" x="211.5" y="-172" font-family="Helvetica,sans-Serif" font-size="10.00">QQueue</text>
</a>
</g>
</g>
<!-- Node22&#45;&gt;Node25 -->
<g id="edge42_Node000022_Node000025" class="edge">
<title>Node22&#45;&gt;Node25</title>
<g id="a_edge42_Node000022_Node000025"><a xlink:title=" ">
<path fill="none" stroke="#63b8ff" d="M197.86,-219.84C200.26,-212.04 203.26,-202.27 205.84,-193.89"/>
<polygon fill="#63b8ff" stroke="#63b8ff" points="209.21,-194.85 208.8,-184.27 202.52,-192.79 209.21,-194.85"/>
</a>
</g>
</g>
<!-- Node26 -->
<g id="Node000026" class="node">
<title>Node26</title>
<g id="a_Node000026"><a xlink:title=" ">
<polygon fill="#e0e0e0" stroke="#999999" points="165.5,-184 73.5,-184 73.5,-165 165.5,-165 165.5,-184"/>
<text text-anchor="middle" x="119.5" y="-172" font-family="Helvetica,sans-Serif" font-size="10.00">QWaitCondition</text>
</a>
</g>
</g>
<!-- Node22&#45;&gt;Node26 -->
<g id="edge43_Node000022_Node000026" class="edge">
<title>Node22&#45;&gt;Node26</title>
<g id="a_edge43_Node000022_Node000026"><a xlink:title=" ">
<path fill="none" stroke="#63b8ff" d="M175.59,-219.84C164.41,-211 150.02,-199.63 138.62,-190.62"/>
<polygon fill="#63b8ff" stroke="#63b8ff" points="140.6,-187.72 130.59,-184.27 136.26,-193.21 140.6,-187.72"/>
</a>
</g>
</g>
<!-- Node27&#45;&gt;Node19 -->
<g id="edge50_Node000027_Node000019" class="edge">
<title>Node27&#45;&gt;Node19</title>
<g id="a_edge50_Node000027_Node000019"><a xlink:title=" ">
<path fill="none" stroke="#63b8ff" d="M269.82,-291.37C306.95,-280.05 372.21,-260.16 413.58,-247.56"/>
<polygon fill="#63b8ff" stroke="#63b8ff" points="414.75,-250.86 423.29,-244.6 412.71,-244.16 414.75,-250.86"/>
</a>
</g>
</g>
<!-- Node27&#45;&gt;Node23 -->
<g id="edge48_Node000027_Node000023" class="edge">
<title>Node27&#45;&gt;Node23</title>
<g id="a_edge48_Node000027_Node000023"><a xlink:title=" ">
<path fill="none" stroke="#63b8ff" d="M248.55,-291.31C256,-281.73 267.6,-265.6 274.5,-250 282.5,-231.91 287.61,-209.79 290.49,-194.38"/>
<polygon fill="#63b8ff" stroke="#63b8ff" points="294.02,-194.52 292.27,-184.07 287.12,-193.33 294.02,-194.52"/>
</a>
</g>
</g>
<!-- Node27&#45;&gt;Node24 -->
<g id="edge49_Node000027_Node000024" class="edge">
<title>Node27&#45;&gt;Node24</title>
<g id="a_edge49_Node000027_Node000024"><a xlink:title=" ">
<path fill="none" stroke="#63b8ff" d="M210.92,-291.48C183.87,-283.18 143.93,-269.04 112.5,-250 85.39,-233.57 58.64,-208.21 42.6,-191.73"/>
<polygon fill="#63b8ff" stroke="#63b8ff" points="45.07,-189.24 35.63,-184.43 40,-194.08 45.07,-189.24"/>
</a>
</g>
</g>
</g>
</svg>
