<?xml version="1.0" encoding="UTF-8" standalone="no"?>
<!DOCTYPE svg PUBLIC "-//W3C//DTD SVG 1.1//EN"
 "http://www.w3.org/Graphics/SVG/1.1/DTD/svg11.dtd">
<!-- Generated by graphviz version 2.43.0 (0)
 -->
<!-- Title: workers/ProcessWorker.cpp Pages: 1 -->
<svg width="1417pt" height="357pt"
 viewBox="0.00 0.00 1417.27 357.00" xmlns="http://www.w3.org/2000/svg" xmlns:xlink="http://www.w3.org/1999/xlink">
<g id="graph0" class="graph" transform="scale(1 1) rotate(0) translate(4 353)">
<title>workers/ProcessWorker.cpp</title>
<!-- Node1 -->
<g id="Node000001" class="node">
<title>Node1</title>
<g id="a_Node000001"><a xlink:title=" ">
<polygon fill="#999999" stroke="#666666" points="1239.27,-349 1090.27,-349 1090.27,-330 1239.27,-330 1239.27,-349"/>
<text text-anchor="middle" x="1164.77" y="-337" font-family="Helvetica,sans-Serif" font-size="10.00">workers/ProcessWorker.cpp</text>
</a>
</g>
</g>
<!-- Node2 -->
<g id="Node000002" class="node">
<title>Node2</title>
<g id="a_Node000002"><a xlink:href="ProcessWorker_8h.html" target="_top" xlink:title=" ">
<polygon fill="white" stroke="#666666" points="697.77,-294 601.77,-294 601.77,-275 697.77,-275 697.77,-294"/>
<text text-anchor="middle" x="649.77" y="-282" font-family="Helvetica,sans-Serif" font-size="10.00">ProcessWorker.h</text>
</a>
</g>
</g>
<!-- Node1&#45;&gt;Node2 -->
<g id="edge1_Node000001_Node000002" class="edge">
<title>Node1&#45;&gt;Node2</title>
<g id="a_edge1_Node000001_Node000002"><a xlink:title=" ">
<path fill="none" stroke="#63b8ff" d="M1090.16,-330.82C986.72,-320.18 801.88,-301.15 707.98,-291.49"/>
<polygon fill="#63b8ff" stroke="#63b8ff" points="708.11,-287.99 697.81,-290.44 707.4,-294.95 708.11,-287.99"/>
</a>
</g>
</g>
<!-- Node8 -->
<g id="Node000008" class="node">
<title>Node8</title>
<g id="a_Node000008"><a xlink:title=" ">
<polygon fill="#e0e0e0" stroke="#999999" points="1029.77,-19 953.77,-19 953.77,0 1029.77,0 1029.77,-19"/>
<text text-anchor="middle" x="991.77" y="-7" font-family="Helvetica,sans-Serif" font-size="10.00">QJsonObject</text>
</a>
</g>
</g>
<!-- Node1&#45;&gt;Node8 -->
<g id="edge58_Node000001_Node000008" class="edge">
<title>Node1&#45;&gt;Node8</title>
<g id="a_edge58_Node000001_Node000008"><a xlink:title=" ">
<path fill="none" stroke="#63b8ff" d="M1188.1,-329.97C1223.26,-315.44 1285.77,-282.31 1285.77,-230.5 1285.77,-230.5 1285.77,-230.5 1285.77,-118.5 1285.77,-66.76 1123.29,-32.26 1039.91,-17.96"/>
<polygon fill="#63b8ff" stroke="#63b8ff" points="1040.35,-14.49 1029.91,-16.28 1039.19,-21.39 1040.35,-14.49"/>
</a>
</g>
</g>
<!-- Node16 -->
<g id="Node000016" class="node">
<title>Node16</title>
<g id="a_Node000016"><a xlink:title=" ">
<polygon fill="#e0e0e0" stroke="#999999" points="1257.77,-184 1201.77,-184 1201.77,-165 1257.77,-165 1257.77,-184"/>
<text text-anchor="middle" x="1229.77" y="-172" font-family="Helvetica,sans-Serif" font-size="10.00">QDebug</text>
</a>
</g>
</g>
<!-- Node1&#45;&gt;Node16 -->
<g id="edge56_Node000001_Node000016" class="edge">
<title>Node1&#45;&gt;Node16</title>
<g id="a_edge56_Node000001_Node000016"><a xlink:title=" ">
<path fill="none" stroke="#63b8ff" d="M1168.27,-329.74C1178.5,-304.09 1208.52,-228.78 1222.48,-193.78"/>
<polygon fill="#63b8ff" stroke="#63b8ff" points="1225.81,-194.89 1226.26,-184.31 1219.31,-192.3 1225.81,-194.89"/>
</a>
</g>
</g>
<!-- Node22 -->
<g id="Node000022" class="node">
<title>Node22</title>
<g id="a_Node000022"><a xlink:href="EasyedaApi_8h.html" target="_top" xlink:title=" ">
<polygon fill="white" stroke="#666666" points="342.27,-184 191.27,-184 191.27,-165 342.27,-165 342.27,-184"/>
<text text-anchor="middle" x="266.77" y="-172" font-family="Helvetica,sans-Serif" font-size="10.00">core/easyeda/EasyedaApi.h</text>
</a>
</g>
</g>
<!-- Node1&#45;&gt;Node22 -->
<g id="edge37_Node000001_Node000022" class="edge">
<title>Node1&#45;&gt;Node22</title>
<g id="a_edge37_Node000001_Node000022"><a xlink:title=" ">
<path fill="none" stroke="#63b8ff" d="M1090.26,-339.09C980.19,-338.54 768.25,-331.98 592.77,-294 478.12,-269.18 349.19,-213.52 294.1,-188.32"/>
<polygon fill="#63b8ff" stroke="#63b8ff" points="295.54,-185.13 284.99,-184.13 292.61,-191.49 295.54,-185.13"/>
</a>
</g>
</g>
<!-- Node28 -->
<g id="Node000028" class="node">
<title>Node28</title>
<g id="a_Node000028"><a xlink:href="EasyedaImporter_8h.html" target="_top" xlink:title=" ">
<polygon fill="white" stroke="#666666" points="1145.77,-184 969.77,-184 969.77,-165 1145.77,-165 1145.77,-184"/>
<text text-anchor="middle" x="1057.77" y="-172" font-family="Helvetica,sans-Serif" font-size="10.00">core/easyeda/EasyedaImporter.h</text>
</a>
</g>
</g>
<!-- Node1&#45;&gt;Node28 -->
<g id="edge50_Node000001_Node000028" class="edge">
<title>Node1&#45;&gt;Node28</title>
<g id="a_edge50_Node000001_Node000028"><a xlink:title=" ">
<path fill="none" stroke="#63b8ff" d="M1159.02,-329.74C1142.04,-303.87 1091.89,-227.48 1069.18,-192.88"/>
<polygon fill="#63b8ff" stroke="#63b8ff" points="1071.97,-190.75 1063.55,-184.31 1066.12,-194.59 1071.97,-190.75"/>
</a>
</g>
</g>
<!-- Node29 -->
<g id="Node000029" class="node">
<title>Node29</title>
<g id="a_Node000029"><a xlink:title=" ">
<polygon fill="#e0e0e0" stroke="#999999" points="1409.27,-294 1314.27,-294 1314.27,-275 1409.27,-275 1409.27,-294"/>
<text text-anchor="middle" x="1361.77" y="-282" font-family="Helvetica,sans-Serif" font-size="10.00">QJsonDocument</text>
</a>
</g>
</g>
<!-- Node1&#45;&gt;Node29 -->
<g id="edge57_Node000001_Node000029" class="edge">
<title>Node1&#45;&gt;Node29</title>
<g id="a_edge57_Node000001_Node000029"><a xlink:title=" ">
<path fill="none" stroke="#63b8ff" d="M1196.42,-329.98C1229.93,-320.97 1282.97,-306.7 1319.91,-296.76"/>
<polygon fill="#63b8ff" stroke="#63b8ff" points="1321.13,-300.06 1329.87,-294.08 1319.31,-293.3 1321.13,-300.06"/>
</a>
</g>
</g>
<!-- Node3 -->
<g id="Node000003" class="node">
<title>Node3</title>
<g id="a_Node000003"><a xlink:href="ComponentExportStatus_8h.html" target="_top" xlink:title=" ">
<polygon fill="white" stroke="#666666" points="814.27,-239 631.27,-239 631.27,-220 814.27,-220 814.27,-239"/>
<text text-anchor="middle" x="722.77" y="-227" font-family="Helvetica,sans-Serif" font-size="10.00">models/ComponentExportStatus.h</text>
</a>
</g>
</g>
<!-- Node2&#45;&gt;Node3 -->
<g id="edge2_Node000002_Node000003" class="edge">
<title>Node2&#45;&gt;Node3</title>
<g id="a_edge2_Node000002_Node000003"><a xlink:title=" ">
<path fill="none" stroke="#63b8ff" d="M661.5,-274.98C672.5,-267 689.19,-254.88 702.38,-245.31"/>
<polygon fill="#63b8ff" stroke="#63b8ff" points="704.79,-247.88 710.83,-239.17 700.68,-242.21 704.79,-247.88"/>
</a>
</g>
</g>
<!-- Node20 -->
<g id="Node000020" class="node">
<title>Node20</title>
<g id="a_Node000020"><a xlink:title=" ">
<polygon fill="#e0e0e0" stroke="#999999" points="477.77,-129 421.77,-129 421.77,-110 477.77,-110 477.77,-129"/>
<text text-anchor="middle" x="449.77" y="-117" font-family="Helvetica,sans-Serif" font-size="10.00">QObject</text>
</a>
</g>
</g>
<!-- Node2&#45;&gt;Node20 -->
<g id="edge35_Node000002_Node000020" class="edge">
<title>Node2&#45;&gt;Node20</title>
<g id="a_edge35_Node000002_Node000020"><a xlink:title=" ">
<path fill="none" stroke="#63b8ff" d="M601.67,-276.81C550.23,-266.75 471.51,-242.22 437.77,-184 429.7,-170.08 434.44,-151.82 440.17,-138.46"/>
<polygon fill="#63b8ff" stroke="#63b8ff" points="443.37,-139.88 444.55,-129.35 437.06,-136.84 443.37,-139.88"/>
</a>
</g>
</g>
<!-- Node21 -->
<g id="Node000021" class="node">
<title>Node21</title>
<g id="a_Node000021"><a xlink:title=" ">
<polygon fill="#e0e0e0" stroke="#999999" points="612.77,-239 542.77,-239 542.77,-220 612.77,-220 612.77,-239"/>
<text text-anchor="middle" x="577.77" y="-227" font-family="Helvetica,sans-Serif" font-size="10.00">QRunnable</text>
</a>
</g>
</g>
<!-- Node2&#45;&gt;Node21 -->
<g id="edge36_Node000002_Node000021" class="edge">
<title>Node2&#45;&gt;Node21</title>
<g id="a_edge36_Node000002_Node000021"><a xlink:title=" ">
<path fill="none" stroke="#63b8ff" d="M638.2,-274.98C627.35,-267 610.89,-254.88 597.89,-245.31"/>
<polygon fill="#63b8ff" stroke="#63b8ff" points="599.68,-242.28 589.55,-239.17 595.53,-247.92 599.68,-242.28"/>
</a>
</g>
</g>
<!-- Node4 -->
<g id="Node000004" class="node">
<title>Node4</title>
<g id="a_Node000004"><a xlink:href="ComponentData_8h.html" target="_top" xlink:title=" ">
<polygon fill="white" stroke="#666666" points="913.77,-184 769.77,-184 769.77,-165 913.77,-165 913.77,-184"/>
<text text-anchor="middle" x="841.77" y="-172" font-family="Helvetica,sans-Serif" font-size="10.00">models/ComponentData.h</text>
</a>
</g>
</g>
<!-- Node3&#45;&gt;Node4 -->
<g id="edge3_Node000003_Node000004" class="edge">
<title>Node3&#45;&gt;Node4</title>
<g id="a_edge3_Node000003_Node000004"><a xlink:title=" ">
<path fill="none" stroke="#63b8ff" d="M741.89,-219.98C761.12,-211.42 791.01,-198.11 813.08,-188.28"/>
<polygon fill="#63b8ff" stroke="#63b8ff" points="814.59,-191.44 822.31,-184.17 811.75,-185.04 814.59,-191.44"/>
</a>
</g>
</g>
<!-- Node5 -->
<g id="Node000005" class="node">
<title>Node5</title>
<g id="a_Node000005"><a xlink:href="FootprintData_8h.html" target="_top" xlink:title=" ">
<polygon fill="white" stroke="#666666" points="795.77,-129 703.77,-129 703.77,-110 795.77,-110 795.77,-129"/>
<text text-anchor="middle" x="749.77" y="-117" font-family="Helvetica,sans-Serif" font-size="10.00">FootprintData.h</text>
</a>
</g>
</g>
<!-- Node3&#45;&gt;Node5 -->
<g id="edge26_Node000003_Node000005" class="edge">
<title>Node3&#45;&gt;Node5</title>
<g id="a_edge26_Node000003_Node000005"><a xlink:title=" ">
<path fill="none" stroke="#63b8ff" d="M724.98,-219.66C729.37,-202.09 739.29,-162.45 745.16,-138.95"/>
<polygon fill="#63b8ff" stroke="#63b8ff" points="748.58,-139.71 747.61,-129.16 741.79,-138.01 748.58,-139.71"/>
</a>
</g>
</g>
<!-- Node6 -->
<g id="Node000006" class="node">
<title>Node6</title>
<g id="a_Node000006"><a xlink:href="Model3DData_8h.html" target="_top" xlink:title=" ">
<polygon fill="white" stroke="#666666" points="627.77,-74 535.77,-74 535.77,-55 627.77,-55 627.77,-74"/>
<text text-anchor="middle" x="581.77" y="-62" font-family="Helvetica,sans-Serif" font-size="10.00">Model3DData.h</text>
</a>
</g>
</g>
<!-- Node3&#45;&gt;Node6 -->
<g id="edge27_Node000003_Node000006" class="edge">
<title>Node3&#45;&gt;Node6</title>
<g id="a_edge27_Node000003_Node000006"><a xlink:title=" ">
<path fill="none" stroke="#63b8ff" d="M718.52,-219.82C712.1,-207.15 699.15,-183.11 684.77,-165 658.57,-131.99 621.91,-99.07 600.13,-80.6"/>
<polygon fill="#63b8ff" stroke="#63b8ff" points="602.21,-77.78 592.3,-74.04 597.72,-83.14 602.21,-77.78"/>
</a>
</g>
</g>
<!-- Node9 -->
<g id="Node000009" class="node">
<title>Node9</title>
<g id="a_Node000009"><a xlink:title=" ">
<polygon fill="#e0e0e0" stroke="#999999" points="534.27,-19 481.27,-19 481.27,0 534.27,0 534.27,-19"/>
<text text-anchor="middle" x="507.77" y="-7" font-family="Helvetica,sans-Serif" font-size="10.00">QString</text>
</a>
</g>
</g>
<!-- Node3&#45;&gt;Node9 -->
<g id="edge34_Node000003_Node000009" class="edge">
<title>Node3&#45;&gt;Node9</title>
<g id="a_edge34_Node000003_Node000009"><a xlink:title=" ">
<path fill="none" stroke="#63b8ff" d="M646.21,-219.96C576.29,-211.38 482.1,-197.51 470.77,-184 458.44,-169.3 485.97,-131.64 486.77,-129 497.28,-94.66 503.14,-53.02 505.86,-29.35"/>
<polygon fill="#63b8ff" stroke="#63b8ff" points="509.35,-29.61 506.95,-19.29 502.4,-28.86 509.35,-29.61"/>
</a>
</g>
</g>
<!-- Node13 -->
<g id="Node000013" class="node">
<title>Node13</title>
<g id="a_Node000013"><a xlink:href="SymbolData_8h.html" target="_top" xlink:title=" ">
<polygon fill="white" stroke="#666666" points="984.77,-129 898.77,-129 898.77,-110 984.77,-110 984.77,-129"/>
<text text-anchor="middle" x="941.77" y="-117" font-family="Helvetica,sans-Serif" font-size="10.00">SymbolData.h</text>
</a>
</g>
</g>
<!-- Node3&#45;&gt;Node13 -->
<g id="edge28_Node000003_Node000013" class="edge">
<title>Node3&#45;&gt;Node13</title>
<g id="a_edge28_Node000003_Node000013"><a xlink:title=" ">
<path fill="none" stroke="#63b8ff" d="M796.48,-219.97C845.61,-212.85 904.41,-201.08 922.77,-184 935,-172.62 939.47,-153.72 941.05,-139.5"/>
<polygon fill="#63b8ff" stroke="#63b8ff" points="944.55,-139.55 941.79,-129.32 937.57,-139.04 944.55,-139.55"/>
</a>
</g>
</g>
<!-- Node15 -->
<g id="Node000015" class="node">
<title>Node15</title>
<g id="a_Node000015"><a xlink:title=" ">
<polygon fill="#e0e0e0" stroke="#999999" points="1257.77,-129 1165.77,-129 1165.77,-110 1257.77,-110 1257.77,-129"/>
<text text-anchor="middle" x="1211.77" y="-117" font-family="Helvetica,sans-Serif" font-size="10.00">QSharedPointer</text>
</a>
</g>
</g>
<!-- Node3&#45;&gt;Node15 -->
<g id="edge33_Node000003_Node000015" class="edge">
<title>Node3&#45;&gt;Node15</title>
<g id="a_edge33_Node000003_Node000015"><a xlink:title=" ">
<path fill="none" stroke="#63b8ff" d="M814.55,-226.73C923.37,-223.31 1097.24,-213.29 1154.77,-184 1174.91,-173.74 1191.3,-153.16 1201.24,-138.2"/>
<polygon fill="#63b8ff" stroke="#63b8ff" points="1204.45,-139.67 1206.83,-129.34 1198.53,-135.93 1204.45,-139.67"/>
</a>
</g>
</g>
<!-- Node3&#45;&gt;Node16 -->
<g id="edge29_Node000003_Node000016" class="edge">
<title>Node3&#45;&gt;Node16</title>
<g id="a_edge29_Node000003_Node000016"><a xlink:title=" ">
<path fill="none" stroke="#63b8ff" d="M814.44,-222.56C908.47,-215.81 1058.82,-203.17 1187.77,-184 1188.88,-183.84 1189.99,-183.66 1191.12,-183.48"/>
<polygon fill="#63b8ff" stroke="#63b8ff" points="1192.14,-186.85 1201.38,-181.66 1190.92,-179.96 1192.14,-186.85"/>
</a>
</g>
</g>
<!-- Node17 -->
<g id="Node000017" class="node">
<title>Node17</title>
<g id="a_Node000017"><a xlink:title=" ">
<polygon fill="#e0e0e0" stroke="#999999" points="571.27,-184 480.27,-184 480.27,-165 571.27,-165 571.27,-184"/>
<text text-anchor="middle" x="525.77" y="-172" font-family="Helvetica,sans-Serif" font-size="10.00">QElapsedTimer</text>
</a>
</g>
</g>
<!-- Node3&#45;&gt;Node17 -->
<g id="edge30_Node000003_Node000017" class="edge">
<title>Node3&#45;&gt;Node17</title>
<g id="a_edge30_Node000003_Node000017"><a xlink:title=" ">
<path fill="none" stroke="#63b8ff" d="M691.12,-219.98C657.62,-210.97 604.58,-196.7 567.63,-186.76"/>
<polygon fill="#63b8ff" stroke="#63b8ff" points="568.24,-183.3 557.67,-184.08 566.42,-190.06 568.24,-183.3"/>
</a>
</g>
</g>
<!-- Node18 -->
<g id="Node000018" class="node">
<title>Node18</title>
<g id="a_Node000018"><a xlink:title=" ">
<polygon fill="#e0e0e0" stroke="#999999" points="403.27,-129 348.27,-129 348.27,-110 403.27,-110 403.27,-129"/>
<text text-anchor="middle" x="375.77" y="-117" font-family="Helvetica,sans-Serif" font-size="10.00">QMutex</text>
</a>
</g>
</g>
<!-- Node3&#45;&gt;Node18 -->
<g id="edge31_Node000003_Node000018" class="edge">
<title>Node3&#45;&gt;Node18</title>
<g id="a_edge31_Node000003_Node000018"><a xlink:title=" ">
<path fill="none" stroke="#63b8ff" d="M630.99,-220.49C560.82,-213.2 470.71,-200.99 437.77,-184 416.68,-173.12 398.52,-152.35 387.41,-137.52"/>
<polygon fill="#63b8ff" stroke="#63b8ff" points="390.11,-135.28 381.43,-129.2 384.42,-139.36 390.11,-135.28"/>
</a>
</g>
</g>
<!-- Node19 -->
<g id="Node000019" class="node">
<title>Node19</title>
<g id="a_Node000019"><a xlink:title=" ">
<polygon fill="#e0e0e0" stroke="#999999" points="675.77,-184 589.77,-184 589.77,-165 675.77,-165 675.77,-184"/>
<text text-anchor="middle" x="632.77" y="-172" font-family="Helvetica,sans-Serif" font-size="10.00">QMutexLocker</text>
</a>
</g>
</g>
<!-- Node3&#45;&gt;Node19 -->
<g id="edge32_Node000003_Node000019" class="edge">
<title>Node3&#45;&gt;Node19</title>
<g id="a_edge32_Node000003_Node000019"><a xlink:title=" ">
<path fill="none" stroke="#63b8ff" d="M708.31,-219.98C694.36,-211.77 672.98,-199.18 656.52,-189.49"/>
<polygon fill="#63b8ff" stroke="#63b8ff" points="657.89,-186.23 647.5,-184.17 654.34,-192.26 657.89,-186.23"/>
</a>
</g>
</g>
<!-- Node4&#45;&gt;Node5 -->
<g id="edge4_Node000004_Node000005" class="edge">
<title>Node4&#45;&gt;Node5</title>
<g id="a_edge4_Node000004_Node000005"><a xlink:title=" ">
<path fill="none" stroke="#63b8ff" d="M826.99,-164.98C812.59,-156.69 790.46,-143.94 773.58,-134.22"/>
<polygon fill="#63b8ff" stroke="#63b8ff" points="775.23,-131.13 764.82,-129.17 771.74,-137.19 775.23,-131.13"/>
</a>
</g>
</g>
<!-- Node4&#45;&gt;Node6 -->
<g id="edge14_Node000004_Node000006" class="edge">
<title>Node4&#45;&gt;Node6</title>
<g id="a_edge14_Node000004_Node000006"><a xlink:title=" ">
<path fill="none" stroke="#63b8ff" d="M805.96,-165C775.71,-157.27 731.57,-144.68 694.77,-129 661.62,-114.87 625.73,-93.57 603.5,-79.6"/>
<polygon fill="#63b8ff" stroke="#63b8ff" points="605.17,-76.52 594.86,-74.11 601.42,-82.43 605.17,-76.52"/>
</a>
</g>
</g>
<!-- Node4&#45;&gt;Node8 -->
<g id="edge23_Node000004_Node000008" class="edge">
<title>Node4&#45;&gt;Node8</title>
<g id="a_edge23_Node000004_Node000008"><a xlink:title=" ">
<path fill="none" stroke="#63b8ff" d="M914.04,-166.82C971.78,-157.06 1048.24,-133.05 1080.77,-74 1094.1,-49.8 1063.51,-32.59 1034.62,-22.25"/>
<polygon fill="#63b8ff" stroke="#63b8ff" points="1035.55,-18.87 1024.96,-19 1033.33,-25.5 1035.55,-18.87"/>
</a>
</g>
</g>
<!-- Node4&#45;&gt;Node9 -->
<g id="edge25_Node000004_Node000009" class="edge">
<title>Node4&#45;&gt;Node9</title>
<g id="a_edge25_Node000004_Node000009"><a xlink:title=" ">
<path fill="none" stroke="#63b8ff" d="M769.46,-171.15C697.14,-164.72 588.1,-143.22 526.77,-74 515.92,-61.75 511.26,-43.52 509.27,-29.73"/>
<polygon fill="#63b8ff" stroke="#63b8ff" points="512.7,-28.98 508.14,-19.42 505.75,-29.74 512.7,-28.98"/>
</a>
</g>
</g>
<!-- Node10 -->
<g id="Node000010" class="node">
<title>Node10</title>
<g id="a_Node000010"><a xlink:title=" ">
<polygon fill="#e0e0e0" stroke="#999999" points="866.27,-74 795.27,-74 795.27,-55 866.27,-55 866.27,-74"/>
<text text-anchor="middle" x="830.77" y="-62" font-family="Helvetica,sans-Serif" font-size="10.00">QJsonArray</text>
</a>
</g>
</g>
<!-- Node4&#45;&gt;Node10 -->
<g id="edge22_Node000004_Node000010" class="edge">
<title>Node4&#45;&gt;Node10</title>
<g id="a_edge22_Node000004_Node000010"><a xlink:title=" ">
<path fill="none" stroke="#63b8ff" d="M840.87,-164.66C839.09,-147.17 835.08,-107.8 832.68,-84.27"/>
<polygon fill="#63b8ff" stroke="#63b8ff" points="836.15,-83.75 831.65,-74.16 829.19,-84.46 836.15,-83.75"/>
</a>
</g>
</g>
<!-- Node4&#45;&gt;Node13 -->
<g id="edge15_Node000004_Node000013" class="edge">
<title>Node4&#45;&gt;Node13</title>
<g id="a_edge15_Node000004_Node000013"><a xlink:title=" ">
<path fill="none" stroke="#63b8ff" d="M857.84,-164.98C873.64,-156.61 897.99,-143.7 916.4,-133.95"/>
<polygon fill="#63b8ff" stroke="#63b8ff" points="918.22,-136.95 925.41,-129.17 914.94,-130.76 918.22,-136.95"/>
</a>
</g>
</g>
<!-- Node4&#45;&gt;Node15 -->
<g id="edge24_Node000004_Node000015" class="edge">
<title>Node4&#45;&gt;Node15</title>
<g id="a_edge24_Node000004_Node000015"><a xlink:title=" ">
<path fill="none" stroke="#63b8ff" d="M901.22,-164.98C971.27,-154.95 1086.78,-138.4 1155.44,-128.57"/>
<polygon fill="#63b8ff" stroke="#63b8ff" points="1156.23,-131.99 1165.63,-127.11 1155.24,-125.06 1156.23,-131.99"/>
</a>
</g>
</g>
<!-- Node5&#45;&gt;Node6 -->
<g id="edge5_Node000005_Node000006" class="edge">
<title>Node5&#45;&gt;Node6</title>
<g id="a_edge5_Node000005_Node000006"><a xlink:title=" ">
<path fill="none" stroke="#63b8ff" d="M722.78,-109.98C694.57,-101.09 650.13,-87.07 618.69,-77.15"/>
<polygon fill="#63b8ff" stroke="#63b8ff" points="619.57,-73.75 608.98,-74.08 617.46,-80.43 619.57,-73.75"/>
</a>
</g>
</g>
<!-- Node5&#45;&gt;Node8 -->
<g id="edge10_Node000005_Node000008" class="edge">
<title>Node5&#45;&gt;Node8</title>
<g id="a_edge10_Node000005_Node000008"><a xlink:title=" ">
<path fill="none" stroke="#63b8ff" d="M738.25,-109.87C722.49,-97.04 697.78,-72.57 712.77,-55 741.86,-20.9 871.62,-12.81 943.48,-10.97"/>
<polygon fill="#63b8ff" stroke="#63b8ff" points="943.72,-14.47 953.64,-10.74 943.56,-7.47 943.72,-14.47"/>
</a>
</g>
</g>
<!-- Node5&#45;&gt;Node9 -->
<g id="edge13_Node000005_Node000009" class="edge">
<title>Node5&#45;&gt;Node9</title>
<g id="a_edge13_Node000005_Node000009"><a xlink:title=" ">
<path fill="none" stroke="#63b8ff" d="M736.27,-109.86C715.49,-96.79 674.13,-71.78 636.77,-55 606.44,-41.38 570.58,-29.31 544.39,-21.2"/>
<polygon fill="#63b8ff" stroke="#63b8ff" points="545.08,-17.75 534.5,-18.18 543.04,-24.45 545.08,-17.75"/>
</a>
</g>
</g>
<!-- Node5&#45;&gt;Node10 -->
<g id="edge9_Node000005_Node000010" class="edge">
<title>Node5&#45;&gt;Node10</title>
<g id="a_edge9_Node000005_Node000010"><a xlink:title=" ">
<path fill="none" stroke="#63b8ff" d="M762.79,-109.98C775.23,-101.84 794.23,-89.41 808.98,-79.76"/>
<polygon fill="#63b8ff" stroke="#63b8ff" points="811.07,-82.57 817.52,-74.17 807.24,-76.72 811.07,-82.57"/>
</a>
</g>
</g>
<!-- Node11 -->
<g id="Node000011" class="node">
<title>Node11</title>
<g id="a_Node000011"><a xlink:title=" ">
<polygon fill="#e0e0e0" stroke="#999999" points="925.27,-74 884.27,-74 884.27,-55 925.27,-55 925.27,-74"/>
<text text-anchor="middle" x="904.77" y="-62" font-family="Helvetica,sans-Serif" font-size="10.00">QList</text>
</a>
</g>
</g>
<!-- Node5&#45;&gt;Node11 -->
<g id="edge11_Node000005_Node000011" class="edge">
<title>Node5&#45;&gt;Node11</title>
<g id="a_edge11_Node000005_Node000011"><a xlink:title=" ">
<path fill="none" stroke="#63b8ff" d="M774.68,-109.98C801.77,-100.72 845.12,-85.9 874.25,-75.94"/>
<polygon fill="#63b8ff" stroke="#63b8ff" points="875.58,-79.18 883.91,-72.63 873.31,-72.56 875.58,-79.18"/>
</a>
</g>
</g>
<!-- Node12 -->
<g id="Node000012" class="node">
<title>Node12</title>
<g id="a_Node000012"><a xlink:title=" ">
<polygon fill="#e0e0e0" stroke="#999999" points="777.27,-74 722.27,-74 722.27,-55 777.27,-55 777.27,-74"/>
<text text-anchor="middle" x="749.77" y="-62" font-family="Helvetica,sans-Serif" font-size="10.00">QPointF</text>
</a>
</g>
</g>
<!-- Node5&#45;&gt;Node12 -->
<g id="edge12_Node000005_Node000012" class="edge">
<title>Node5&#45;&gt;Node12</title>
<g id="a_edge12_Node000005_Node000012"><a xlink:title=" ">
<path fill="none" stroke="#63b8ff" d="M749.77,-109.75C749.77,-102.8 749.77,-92.85 749.77,-84.13"/>
<polygon fill="#63b8ff" stroke="#63b8ff" points="753.27,-84.09 749.77,-74.09 746.27,-84.09 753.27,-84.09"/>
</a>
</g>
</g>
<!-- Node7 -->
<g id="Node000007" class="node">
<title>Node7</title>
<g id="a_Node000007"><a xlink:title=" ">
<polygon fill="#e0e0e0" stroke="#999999" points="311.27,-19 238.27,-19 238.27,0 311.27,0 311.27,-19"/>
<text text-anchor="middle" x="274.77" y="-7" font-family="Helvetica,sans-Serif" font-size="10.00">QByteArray</text>
</a>
</g>
</g>
<!-- Node6&#45;&gt;Node7 -->
<g id="edge6_Node000006_Node000007" class="edge">
<title>Node6&#45;&gt;Node7</title>
<g id="a_edge6_Node000006_Node000007"><a xlink:title=" ">
<path fill="none" stroke="#63b8ff" d="M535.48,-55.51C477.64,-45.52 379.25,-28.54 321.31,-18.53"/>
<polygon fill="#63b8ff" stroke="#63b8ff" points="321.77,-15.06 311.32,-16.81 320.58,-21.96 321.77,-15.06"/>
</a>
</g>
</g>
<!-- Node6&#45;&gt;Node8 -->
<g id="edge7_Node000006_Node000008" class="edge">
<title>Node6&#45;&gt;Node8</title>
<g id="a_edge7_Node000006_Node000008"><a xlink:title=" ">
<path fill="none" stroke="#63b8ff" d="M628.01,-57.52C706.17,-47.42 863.69,-27.06 943.32,-16.76"/>
<polygon fill="#63b8ff" stroke="#63b8ff" points="944.1,-20.19 953.57,-15.44 943.2,-13.25 944.1,-20.19"/>
</a>
</g>
</g>
<!-- Node6&#45;&gt;Node9 -->
<g id="edge8_Node000006_Node000009" class="edge">
<title>Node6&#45;&gt;Node9</title>
<g id="a_edge8_Node000006_Node000009"><a xlink:title=" ">
<path fill="none" stroke="#63b8ff" d="M569.88,-54.98C558.62,-46.92 541.49,-34.65 528.06,-25.03"/>
<polygon fill="#63b8ff" stroke="#63b8ff" points="530.05,-22.15 519.88,-19.17 525.97,-27.84 530.05,-22.15"/>
</a>
</g>
</g>
<!-- Node13&#45;&gt;Node8 -->
<g id="edge17_Node000013_Node000008" class="edge">
<title>Node13&#45;&gt;Node8</title>
<g id="a_edge17_Node000013_Node000008"><a xlink:title=" ">
<path fill="none" stroke="#63b8ff" d="M947.4,-109.87C952.99,-101.07 961.61,-86.92 967.77,-74 974.83,-59.21 981.3,-41.75 985.74,-28.88"/>
<polygon fill="#63b8ff" stroke="#63b8ff" points="989.09,-29.91 988.96,-19.32 982.45,-27.68 989.09,-29.91"/>
</a>
</g>
</g>
<!-- Node13&#45;&gt;Node9 -->
<g id="edge21_Node000013_Node000009" class="edge">
<title>Node13&#45;&gt;Node9</title>
<g id="a_edge21_Node000013_Node000009"><a xlink:title=" ">
<path fill="none" stroke="#63b8ff" d="M943.7,-109.65C946.12,-95.85 948.38,-69.3 933.77,-55 906.18,-27.99 642.99,-15.52 544.62,-11.77"/>
<polygon fill="#63b8ff" stroke="#63b8ff" points="544.67,-8.27 534.54,-11.4 544.41,-15.27 544.67,-8.27"/>
</a>
</g>
</g>
<!-- Node13&#45;&gt;Node10 -->
<g id="edge16_Node000013_Node000010" class="edge">
<title>Node13&#45;&gt;Node10</title>
<g id="a_edge16_Node000013_Node000010"><a xlink:title=" ">
<path fill="none" stroke="#63b8ff" d="M923.94,-109.98C906.16,-101.5 878.63,-88.35 858.09,-78.54"/>
<polygon fill="#63b8ff" stroke="#63b8ff" points="859.46,-75.32 848.93,-74.17 856.45,-81.64 859.46,-75.32"/>
</a>
</g>
</g>
<!-- Node13&#45;&gt;Node11 -->
<g id="edge18_Node000013_Node000011" class="edge">
<title>Node13&#45;&gt;Node11</title>
<g id="a_edge18_Node000013_Node000011"><a xlink:title=" ">
<path fill="none" stroke="#63b8ff" d="M935.66,-109.75C930.49,-102.34 922.93,-91.5 916.58,-82.41"/>
<polygon fill="#63b8ff" stroke="#63b8ff" points="919.36,-80.29 910.77,-74.09 913.62,-84.29 919.36,-80.29"/>
</a>
</g>
</g>
<!-- Node13&#45;&gt;Node12 -->
<g id="edge19_Node000013_Node000012" class="edge">
<title>Node13&#45;&gt;Node12</title>
<g id="a_edge19_Node000013_Node000012"><a xlink:title=" ">
<path fill="none" stroke="#63b8ff" d="M910.92,-109.98C877.21,-100.68 823.18,-85.76 787.1,-75.8"/>
<polygon fill="#63b8ff" stroke="#63b8ff" points="788,-72.42 777.43,-73.13 786.14,-79.17 788,-72.42"/>
</a>
</g>
</g>
<!-- Node14 -->
<g id="Node000014" class="node">
<title>Node14</title>
<g id="a_Node000014"><a xlink:title=" ">
<polygon fill="#e0e0e0" stroke="#999999" points="1071.77,-74 1019.77,-74 1019.77,-55 1071.77,-55 1071.77,-74"/>
<text text-anchor="middle" x="1045.77" y="-62" font-family="Helvetica,sans-Serif" font-size="10.00">QRectF</text>
</a>
</g>
</g>
<!-- Node13&#45;&gt;Node14 -->
<g id="edge20_Node000013_Node000014" class="edge">
<title>Node13&#45;&gt;Node14</title>
<g id="a_edge20_Node000013_Node000014"><a xlink:title=" ">
<path fill="none" stroke="#63b8ff" d="M958.48,-109.98C974.99,-101.57 1000.47,-88.59 1019.65,-78.81"/>
<polygon fill="#63b8ff" stroke="#63b8ff" points="1021.44,-81.83 1028.76,-74.17 1018.26,-75.59 1021.44,-81.83"/>
</a>
</g>
</g>
<!-- Node22&#45;&gt;Node8 -->
<g id="edge44_Node000022_Node000008" class="edge">
<title>Node22&#45;&gt;Node8</title>
<g id="a_edge44_Node000022_Node000008"><a xlink:title=" ">
<path fill="none" stroke="#63b8ff" d="M274.28,-164.77C286.47,-151.13 311.91,-124.8 338.77,-110 415.02,-67.98 441.28,-71.44 526.77,-55 677.19,-26.07 858.77,-15.61 943.65,-12.11"/>
<polygon fill="#63b8ff" stroke="#63b8ff" points="943.9,-15.6 953.76,-11.7 943.63,-8.61 943.9,-15.6"/>
</a>
</g>
</g>
<!-- Node22&#45;&gt;Node9 -->
<g id="edge48_Node000022_Node000009" class="edge">
<title>Node22&#45;&gt;Node9</title>
<g id="a_edge48_Node000022_Node000009"><a xlink:title=" ">
<path fill="none" stroke="#63b8ff" d="M191.26,-167.64C131.2,-161.5 53.46,-149.77 29.77,-129 4.33,-106.68 -11.07,-79.98 11.77,-55 27.26,-38.06 358.48,-18.6 470.86,-12.46"/>
<polygon fill="#63b8ff" stroke="#63b8ff" points="471.24,-15.94 481.03,-11.91 470.86,-8.95 471.24,-15.94"/>
</a>
</g>
</g>
<!-- Node22&#45;&gt;Node18 -->
<g id="edge45_Node000022_Node000018" class="edge">
<title>Node22&#45;&gt;Node18</title>
<g id="a_edge45_Node000022_Node000018"><a xlink:title=" ">
<path fill="none" stroke="#63b8ff" d="M284.29,-164.98C301.74,-156.5 328.78,-143.35 348.94,-133.54"/>
<polygon fill="#63b8ff" stroke="#63b8ff" points="350.48,-136.69 357.94,-129.17 347.42,-130.4 350.48,-136.69"/>
</a>
</g>
</g>
<!-- Node22&#45;&gt;Node20 -->
<g id="edge46_Node000022_Node000020" class="edge">
<title>Node22&#45;&gt;Node20</title>
<g id="a_edge46_Node000022_Node000020"><a xlink:title=" ">
<path fill="none" stroke="#63b8ff" d="M296.17,-164.98C327.62,-155.88 377.61,-141.4 411.96,-131.45"/>
<polygon fill="#63b8ff" stroke="#63b8ff" points="413.01,-134.79 421.65,-128.65 411.07,-128.07 413.01,-134.79"/>
</a>
</g>
</g>
<!-- Node23 -->
<g id="Node000023" class="node">
<title>Node23</title>
<g id="a_Node000023"><a xlink:href="INetworkClient_8h.html" target="_top" xlink:title=" ">
<polygon fill="white" stroke="#666666" points="214.27,-129 49.27,-129 49.27,-110 214.27,-110 214.27,-129"/>
<text text-anchor="middle" x="131.77" y="-117" font-family="Helvetica,sans-Serif" font-size="10.00">core/network/INetworkClient.h</text>
</a>
</g>
</g>
<!-- Node22&#45;&gt;Node23 -->
<g id="edge38_Node000022_Node000023" class="edge">
<title>Node22&#45;&gt;Node23</title>
<g id="a_edge38_Node000022_Node000023"><a xlink:title=" ">
<path fill="none" stroke="#63b8ff" d="M245.08,-164.98C222.97,-156.3 188.45,-142.75 163.32,-132.88"/>
<polygon fill="#63b8ff" stroke="#63b8ff" points="164.44,-129.57 153.86,-129.17 161.89,-136.08 164.44,-129.57"/>
</a>
</g>
</g>
<!-- Node25 -->
<g id="Node000025" class="node">
<title>Node25</title>
<g id="a_Node000025"><a xlink:title=" ">
<polygon fill="#e0e0e0" stroke="#999999" points="76.27,-74 21.27,-74 21.27,-55 76.27,-55 76.27,-74"/>
<text text-anchor="middle" x="48.77" y="-62" font-family="Helvetica,sans-Serif" font-size="10.00">QVector</text>
</a>
</g>
</g>
<!-- Node22&#45;&gt;Node25 -->
<g id="edge49_Node000022_Node000025" class="edge">
<title>Node22&#45;&gt;Node25</title>
<g id="a_edge49_Node000022_Node000025"><a xlink:title=" ">
<path fill="none" stroke="#63b8ff" d="M191.21,-168.81C132.81,-163.42 58.82,-152.14 39.77,-129 29.41,-116.41 33.85,-97.44 39.55,-83.51"/>
<polygon fill="#63b8ff" stroke="#63b8ff" points="42.73,-84.98 43.72,-74.43 36.37,-82.05 42.73,-84.98"/>
</a>
</g>
</g>
<!-- Node27 -->
<g id="Node000027" class="node">
<title>Node27</title>
<g id="a_Node000027"><a xlink:title=" ">
<polygon fill="#e0e0e0" stroke="#999999" points="291.27,-129 232.27,-129 232.27,-110 291.27,-110 291.27,-129"/>
<text text-anchor="middle" x="261.77" y="-117" font-family="Helvetica,sans-Serif" font-size="10.00">QPointer</text>
</a>
</g>
</g>
<!-- Node22&#45;&gt;Node27 -->
<g id="edge47_Node000022_Node000027" class="edge">
<title>Node22&#45;&gt;Node27</title>
<g id="a_edge47_Node000022_Node000027"><a xlink:title=" ">
<path fill="none" stroke="#63b8ff" d="M265.95,-164.75C265.29,-157.8 264.35,-147.85 263.53,-139.13"/>
<polygon fill="#63b8ff" stroke="#63b8ff" points="267.01,-138.72 262.58,-129.09 260.04,-139.37 267.01,-138.72"/>
</a>
</g>
</g>
<!-- Node23&#45;&gt;Node7 -->
<g id="edge39_Node000023_Node000007" class="edge">
<title>Node23&#45;&gt;Node7</title>
<g id="a_edge39_Node000023_Node000007"><a xlink:title=" ">
<path fill="none" stroke="#63b8ff" d="M130.55,-109.98C129.15,-96.62 128.51,-70.68 141.77,-55 163.01,-29.89 198.86,-18.89 228,-14.1"/>
<polygon fill="#63b8ff" stroke="#63b8ff" points="228.59,-17.55 237.99,-12.65 227.59,-10.62 228.59,-17.55"/>
</a>
</g>
</g>
<!-- Node23&#45;&gt;Node9 -->
<g id="edge40_Node000023_Node000009" class="edge">
<title>Node23&#45;&gt;Node9</title>
<g id="a_edge40_Node000023_Node000009"><a xlink:title=" ">
<path fill="none" stroke="#63b8ff" d="M161.59,-109.94C229.77,-90.35 396.89,-42.35 471.16,-21.02"/>
<polygon fill="#63b8ff" stroke="#63b8ff" points="472.36,-24.31 481.01,-18.19 470.43,-17.58 472.36,-24.31"/>
</a>
</g>
</g>
<!-- Node24 -->
<g id="Node000024" class="node">
<title>Node24</title>
<g id="a_Node000024"><a xlink:title=" ">
<polygon fill="#e0e0e0" stroke="#999999" points="188.77,-74 150.77,-74 150.77,-55 188.77,-55 188.77,-74"/>
<text text-anchor="middle" x="169.77" y="-62" font-family="Helvetica,sans-Serif" font-size="10.00">QUrl</text>
</a>
</g>
</g>
<!-- Node23&#45;&gt;Node24 -->
<g id="edge41_Node000023_Node000024" class="edge">
<title>Node23&#45;&gt;Node24</title>
<g id="a_edge41_Node000023_Node000024"><a xlink:title=" ">
<path fill="none" stroke="#63b8ff" d="M138.05,-109.75C143.36,-102.34 151.13,-91.5 157.65,-82.41"/>
<polygon fill="#63b8ff" stroke="#63b8ff" points="160.63,-84.26 163.61,-74.09 154.94,-80.18 160.63,-84.26"/>
</a>
</g>
</g>
<!-- Node23&#45;&gt;Node25 -->
<g id="edge42_Node000023_Node000025" class="edge">
<title>Node23&#45;&gt;Node25</title>
<g id="a_edge42_Node000023_Node000025"><a xlink:title=" ">
<path fill="none" stroke="#63b8ff" d="M118.44,-109.98C105.69,-101.84 86.22,-89.41 71.1,-79.76"/>
<polygon fill="#63b8ff" stroke="#63b8ff" points="72.66,-76.6 62.35,-74.17 68.89,-82.5 72.66,-76.6"/>
</a>
</g>
</g>
<!-- Node26 -->
<g id="Node000026" class="node">
<title>Node26</title>
<g id="a_Node000026"><a xlink:title=" ">
<polygon fill="#e0e0e0" stroke="#999999" points="266.27,-74 207.27,-74 207.27,-55 266.27,-55 266.27,-74"/>
<text text-anchor="middle" x="236.77" y="-62" font-family="Helvetica,sans-Serif" font-size="10.00">QtGlobal</text>
</a>
</g>
</g>
<!-- Node23&#45;&gt;Node26 -->
<g id="edge43_Node000023_Node000026" class="edge">
<title>Node23&#45;&gt;Node26</title>
<g id="a_edge43_Node000023_Node000026"><a xlink:title=" ">
<path fill="none" stroke="#63b8ff" d="M148.64,-109.98C165.38,-101.54 191.27,-88.47 210.66,-78.68"/>
<polygon fill="#63b8ff" stroke="#63b8ff" points="212.25,-81.8 219.6,-74.17 209.09,-75.55 212.25,-81.8"/>
</a>
</g>
</g>
<!-- Node28&#45;&gt;Node5 -->
<g id="edge51_Node000028_Node000005" class="edge">
<title>Node28&#45;&gt;Node5</title>
<g id="a_edge51_Node000028_Node000005"><a xlink:title=" ">
<path fill="none" stroke="#63b8ff" d="M1008.29,-164.98C953.1,-155.49 864.02,-140.16 806.18,-130.21"/>
<polygon fill="#63b8ff" stroke="#63b8ff" points="806.56,-126.72 796.11,-128.47 805.37,-133.62 806.56,-126.72"/>
</a>
</g>
</g>
<!-- Node28&#45;&gt;Node8 -->
<g id="edge53_Node000028_Node000008" class="edge">
<title>Node28&#45;&gt;Node8</title>
<g id="a_edge53_Node000028_Node000008"><a xlink:title=" ">
<path fill="none" stroke="#63b8ff" d="M1075.54,-164.96C1088.79,-157.51 1105.89,-145.33 1113.77,-129 1128.07,-99.38 1132.63,-81.95 1113.77,-55 1097.1,-31.17 1066.24,-20.05 1039.74,-14.89"/>
<polygon fill="#63b8ff" stroke="#63b8ff" points="1040.28,-11.43 1029.83,-13.19 1039.09,-18.33 1040.28,-11.43"/>
</a>
</g>
</g>
<!-- Node28&#45;&gt;Node13 -->
<g id="edge52_Node000028_Node000013" class="edge">
<title>Node28&#45;&gt;Node13</title>
<g id="a_edge52_Node000028_Node000013"><a xlink:title=" ">
<path fill="none" stroke="#63b8ff" d="M1039.13,-164.98C1020.47,-156.46 991.52,-143.23 970.03,-133.41"/>
<polygon fill="#63b8ff" stroke="#63b8ff" points="971.3,-130.14 960.75,-129.17 968.39,-136.51 971.3,-130.14"/>
</a>
</g>
</g>
<!-- Node28&#45;&gt;Node15 -->
<g id="edge55_Node000028_Node000015" class="edge">
<title>Node28&#45;&gt;Node15</title>
<g id="a_edge55_Node000028_Node000015"><a xlink:title=" ">
<path fill="none" stroke="#63b8ff" d="M1082.52,-164.98C1108.15,-156.16 1148.4,-142.31 1177.18,-132.41"/>
<polygon fill="#63b8ff" stroke="#63b8ff" points="1178.52,-135.65 1186.84,-129.08 1176.24,-129.03 1178.52,-135.65"/>
</a>
</g>
</g>
<!-- Node28&#45;&gt;Node20 -->
<g id="edge54_Node000028_Node000020" class="edge">
<title>Node28&#45;&gt;Node20</title>
<g id="a_edge54_Node000028_Node000020"><a xlink:title=" ">
<path fill="none" stroke="#63b8ff" d="M969.69,-165.82C835.03,-154.08 583.56,-132.16 487.97,-123.83"/>
<polygon fill="#63b8ff" stroke="#63b8ff" points="488.16,-120.33 477.9,-122.95 487.55,-127.31 488.16,-120.33"/>
</a>
</g>
</g>
</g>
</svg>
