<?xml version="1.0" encoding="UTF-8" standalone="no"?>
<!DOCTYPE svg PUBLIC "-//W3C//DTD SVG 1.1//EN"
 "http://www.w3.org/Graphics/SVG/1.1/DTD/svg11.dtd">
<!-- Generated by graphviz version 2.43.0 (0)
 -->
<!-- Title: services/pipeline/stage/StageHandler.h Pages: 1 -->
<svg width="596pt" height="302pt"
 viewBox="0.00 0.00 596.00 302.00" xmlns="http://www.w3.org/2000/svg" xmlns:xlink="http://www.w3.org/1999/xlink">
<g id="graph0" class="graph" transform="scale(1 1) rotate(0) translate(4 298)">
<title>services/pipeline/stage/StageHandler.h</title>
<!-- Node1 -->
<g id="Node000001" class="node">
<title>Node1</title>
<g id="a_Node000001"><a xlink:title=" ">
<polygon fill="#999999" stroke="#666666" points="364,-294 235,-294 235,-264 364,-264 364,-294"/>
<text text-anchor="start" x="243" y="-282" font-family="Helvetica,sans-Serif" font-size="10.00">services/pipeline/stage</text>
<text text-anchor="middle" x="299.5" y="-271" font-family="Helvetica,sans-Serif" font-size="10.00">/StageHandler.h</text>
</a>
</g>
</g>
<!-- Node2 -->
<g id="Node000002" class="node">
<title>Node2</title>
<g id="a_Node000002"><a xlink:href="FetchStageHandler_8h.html" target="_top" xlink:title=" ">
<polygon fill="white" stroke="#666666" points="511,-228 382,-228 382,-198 511,-198 511,-228"/>
<text text-anchor="start" x="390" y="-216" font-family="Helvetica,sans-Serif" font-size="10.00">services/pipeline/stage</text>
<text text-anchor="middle" x="446.5" y="-205" font-family="Helvetica,sans-Serif" font-size="10.00">/FetchStageHandler.h</text>
</a>
</g>
</g>
<!-- Node1&#45;&gt;Node2 -->
<g id="edge1_Node000001_Node000002" class="edge">
<title>Node1&#45;&gt;Node2</title>
<g id="a_edge1_Node000001_Node000002"><a xlink:title=" ">
<path fill="none" stroke="#63b8ff" d="M341.03,-259.92C364.26,-249.8 392.79,-237.38 414.32,-228.01"/>
<polygon fill="#63b8ff" stroke="#63b8ff" points="339.53,-256.75 331.76,-263.95 342.33,-263.17 339.53,-256.75"/>
</a>
</g>
</g>
<!-- Node10 -->
<g id="Node000010" class="node">
<title>Node10</title>
<g id="a_Node000010"><a xlink:href="ProcessStageHandler_8h.html" target="_top" xlink:title=" ">
<polygon fill="white" stroke="#666666" points="217,-228 86,-228 86,-198 217,-198 217,-228"/>
<text text-anchor="start" x="94" y="-216" font-family="Helvetica,sans-Serif" font-size="10.00">services/pipeline/stage</text>
<text text-anchor="middle" x="151.5" y="-205" font-family="Helvetica,sans-Serif" font-size="10.00">/ProcessStageHandler.h</text>
</a>
</g>
</g>
<!-- Node1&#45;&gt;Node10 -->
<g id="edge11_Node000001_Node000010" class="edge">
<title>Node1&#45;&gt;Node10</title>
<g id="a_edge11_Node000001_Node000010"><a xlink:title=" ">
<path fill="none" stroke="#63b8ff" d="M257.69,-259.92C234.3,-249.8 205.58,-237.38 183.9,-228.01"/>
<polygon fill="#63b8ff" stroke="#63b8ff" points="256.45,-263.2 267.02,-263.95 259.23,-256.77 256.45,-263.2"/>
</a>
</g>
</g>
<!-- Node12 -->
<g id="Node000012" class="node">
<title>Node12</title>
<g id="a_Node000012"><a xlink:href="WriteStageHandler_8h.html" target="_top" xlink:title=" ">
<polygon fill="white" stroke="#666666" points="364,-228 235,-228 235,-198 364,-198 364,-228"/>
<text text-anchor="start" x="243" y="-216" font-family="Helvetica,sans-Serif" font-size="10.00">services/pipeline/stage</text>
<text text-anchor="middle" x="299.5" y="-205" font-family="Helvetica,sans-Serif" font-size="10.00">/WriteStageHandler.h</text>
</a>
</g>
</g>
<!-- Node1&#45;&gt;Node12 -->
<g id="edge14_Node000001_Node000012" class="edge">
<title>Node1&#45;&gt;Node12</title>
<g id="a_edge14_Node000001_Node000012"><a xlink:title=" ">
<path fill="none" stroke="#63b8ff" d="M299.5,-253.54C299.5,-244.96 299.5,-235.61 299.5,-228.16"/>
<polygon fill="#63b8ff" stroke="#63b8ff" points="296,-253.8 299.5,-263.8 303,-253.8 296,-253.8"/>
</a>
</g>
</g>
<!-- Node3 -->
<g id="Node000003" class="node">
<title>Node3</title>
<g id="a_Node000003"><a xlink:href="ExportService__Pipeline_8h.html" target="_top" xlink:title=" ">
<polygon fill="white" stroke="#666666" points="289.5,-162 161.5,-162 161.5,-132 289.5,-132 289.5,-162"/>
<text text-anchor="start" x="169.5" y="-150" font-family="Helvetica,sans-Serif" font-size="10.00">services/ExportService</text>
<text text-anchor="middle" x="225.5" y="-139" font-family="Helvetica,sans-Serif" font-size="10.00">_Pipeline.h</text>
</a>
</g>
</g>
<!-- Node2&#45;&gt;Node3 -->
<g id="edge2_Node000002_Node000003" class="edge">
<title>Node2&#45;&gt;Node3</title>
<g id="a_edge2_Node000002_Node000003"><a xlink:title=" ">
<path fill="none" stroke="#63b8ff" d="M388.22,-195.12C352.58,-184.8 307.54,-171.76 273.89,-162.01"/>
<polygon fill="#63b8ff" stroke="#63b8ff" points="387.42,-198.54 398,-197.95 389.37,-191.81 387.42,-198.54"/>
</a>
</g>
</g>
<!-- Node9 -->
<g id="Node000009" class="node">
<title>Node9</title>
<g id="a_Node000009"><a xlink:href="FetchStageHandler_8cpp.html" target="_top" xlink:title=" ">
<polygon fill="white" stroke="#666666" points="588,-162 457,-162 457,-132 588,-132 588,-162"/>
<text text-anchor="start" x="465" y="-150" font-family="Helvetica,sans-Serif" font-size="10.00">services/pipeline/stage</text>
<text text-anchor="middle" x="522.5" y="-139" font-family="Helvetica,sans-Serif" font-size="10.00">/FetchStageHandler.cpp</text>
</a>
</g>
</g>
<!-- Node2&#45;&gt;Node9 -->
<g id="edge10_Node000002_Node000009" class="edge">
<title>Node2&#45;&gt;Node9</title>
<g id="a_edge10_Node000002_Node000009"><a xlink:title=" ">
<path fill="none" stroke="#63b8ff" d="M471.2,-191.2C482.48,-181.7 495.55,-170.69 505.68,-162.16"/>
<polygon fill="#63b8ff" stroke="#63b8ff" points="468.76,-188.68 463.37,-197.8 473.27,-194.03 468.76,-188.68"/>
</a>
</g>
</g>
<!-- Node4 -->
<g id="Node000004" class="node">
<title>Node4</title>
<g id="a_Node000004"><a xlink:href="main_8cpp.html" target="_top" xlink:title=" ">
<polygon fill="white" stroke="#666666" points="80.5,-24.5 18.5,-24.5 18.5,-5.5 80.5,-5.5 80.5,-24.5"/>
<text text-anchor="middle" x="49.5" y="-12.5" font-family="Helvetica,sans-Serif" font-size="10.00">main.cpp</text>
</a>
</g>
</g>
<!-- Node3&#45;&gt;Node4 -->
<g id="edge3_Node000003_Node000004" class="edge">
<title>Node3&#45;&gt;Node4</title>
<g id="a_edge3_Node000003_Node000004"><a xlink:title=" ">
<path fill="none" stroke="#63b8ff" d="M151.46,-129.82C95.87,-117.31 28.62,-101.27 24.5,-96 7.38,-74.1 29.72,-40.35 42.17,-24.62"/>
<polygon fill="#63b8ff" stroke="#63b8ff" points="150.81,-133.26 161.34,-132.03 152.34,-126.43 150.81,-133.26"/>
</a>
</g>
</g>
<!-- Node5 -->
<g id="Node000005" class="node">
<title>Node5</title>
<g id="a_Node000005"><a xlink:href="ExportService__Pipeline_8cpp.html" target="_top" xlink:title=" ">
<polygon fill="white" stroke="#666666" points="381.5,-96 253.5,-96 253.5,-66 381.5,-66 381.5,-96"/>
<text text-anchor="start" x="261.5" y="-84" font-family="Helvetica,sans-Serif" font-size="10.00">services/ExportService</text>
<text text-anchor="middle" x="317.5" y="-73" font-family="Helvetica,sans-Serif" font-size="10.00">_Pipeline.cpp</text>
</a>
</g>
</g>
<!-- Node3&#45;&gt;Node5 -->
<g id="edge4_Node000003_Node000005" class="edge">
<title>Node3&#45;&gt;Node5</title>
<g id="a_edge4_Node000003_Node000005"><a xlink:title=" ">
<path fill="none" stroke="#63b8ff" d="M254.21,-126.03C268.13,-116.34 284.53,-104.94 297.14,-96.16"/>
<polygon fill="#63b8ff" stroke="#63b8ff" points="252.13,-123.21 245.92,-131.8 256.13,-128.96 252.13,-123.21"/>
</a>
</g>
</g>
<!-- Node6 -->
<g id="Node000006" class="node">
<title>Node6</title>
<g id="a_Node000006"><a xlink:href="ExportProgressViewModel_8cpp.html" target="_top" xlink:title=" ">
<polygon fill="white" stroke="#666666" points="284.5,-30 120.5,-30 120.5,0 284.5,0 284.5,-30"/>
<text text-anchor="start" x="128.5" y="-18" font-family="Helvetica,sans-Serif" font-size="10.00">ui/viewmodels/ExportProgress</text>
<text text-anchor="middle" x="202.5" y="-7" font-family="Helvetica,sans-Serif" font-size="10.00">ViewModel.cpp</text>
</a>
</g>
</g>
<!-- Node3&#45;&gt;Node6 -->
<g id="edge5_Node000003_Node000006" class="edge">
<title>Node3&#45;&gt;Node6</title>
<g id="a_edge5_Node000003_Node000006"><a xlink:title=" ">
<path fill="none" stroke="#63b8ff" d="M221.2,-121.68C216.42,-94.7 208.89,-52.11 205,-30.14"/>
<polygon fill="#63b8ff" stroke="#63b8ff" points="217.81,-122.6 222.99,-131.84 224.7,-121.38 217.81,-122.6"/>
</a>
</g>
</g>
<!-- Node7 -->
<g id="Node000007" class="node">
<title>Node7</title>
<g id="a_Node000007"><a xlink:href="ExportProgressViewModel_8h.html" target="_top" xlink:title=" ">
<polygon fill="white" stroke="#666666" points="197.5,-96 33.5,-96 33.5,-66 197.5,-66 197.5,-96"/>
<text text-anchor="start" x="41.5" y="-84" font-family="Helvetica,sans-Serif" font-size="10.00">ui/viewmodels/ExportProgress</text>
<text text-anchor="middle" x="115.5" y="-73" font-family="Helvetica,sans-Serif" font-size="10.00">ViewModel.h</text>
</a>
</g>
</g>
<!-- Node3&#45;&gt;Node7 -->
<g id="edge6_Node000003_Node000007" class="edge">
<title>Node3&#45;&gt;Node7</title>
<g id="a_edge6_Node000003_Node000007"><a xlink:title=" ">
<path fill="none" stroke="#63b8ff" d="M192.32,-126.69C175.34,-116.82 155.05,-105.01 139.58,-96.01"/>
<polygon fill="#63b8ff" stroke="#63b8ff" points="190.96,-129.95 201.36,-131.95 194.48,-123.9 190.96,-129.95"/>
</a>
</g>
</g>
<!-- Node8 -->
<g id="Node000008" class="node">
<title>Node8</title>
<g id="a_Node000008"><a xlink:href="ExportSettingsViewModel_8cpp.html" target="_top" xlink:title=" ">
<polygon fill="white" stroke="#666666" points="561.5,-96 399.5,-96 399.5,-66 561.5,-66 561.5,-96"/>
<text text-anchor="start" x="407.5" y="-84" font-family="Helvetica,sans-Serif" font-size="10.00">ui/viewmodels/ExportSettings</text>
<text text-anchor="middle" x="480.5" y="-73" font-family="Helvetica,sans-Serif" font-size="10.00">ViewModel.cpp</text>
</a>
</g>
</g>
<!-- Node3&#45;&gt;Node8 -->
<g id="edge9_Node000003_Node000008" class="edge">
<title>Node3&#45;&gt;Node8</title>
<g id="a_edge9_Node000003_Node000008"><a xlink:title=" ">
<path fill="none" stroke="#63b8ff" d="M291.17,-129.52C332.53,-119.14 385.34,-105.88 424.67,-96.01"/>
<polygon fill="#63b8ff" stroke="#63b8ff" points="290.31,-126.13 281.46,-131.95 292.01,-132.92 290.31,-126.13"/>
</a>
</g>
</g>
<!-- Node7&#45;&gt;Node4 -->
<g id="edge7_Node000007_Node000004" class="edge">
<title>Node7&#45;&gt;Node4</title>
<g id="a_edge7_Node000007_Node000004"><a xlink:title=" ">
<path fill="none" stroke="#63b8ff" d="M93.44,-58.6C81.57,-47.1 67.57,-33.52 58.62,-24.84"/>
<polygon fill="#63b8ff" stroke="#63b8ff" points="91.24,-61.35 100.85,-65.8 96.11,-56.32 91.24,-61.35"/>
</a>
</g>
</g>
<!-- Node7&#45;&gt;Node6 -->
<g id="edge8_Node000007_Node000006" class="edge">
<title>Node7&#45;&gt;Node6</title>
<g id="a_edge8_Node000007_Node000006"><a xlink:title=" ">
<path fill="none" stroke="#63b8ff" d="M143.02,-59.75C156.11,-50.13 171.43,-38.86 183.25,-30.16"/>
<polygon fill="#63b8ff" stroke="#63b8ff" points="140.79,-57.05 134.81,-65.8 144.94,-62.69 140.79,-57.05"/>
</a>
</g>
</g>
<!-- Node10&#45;&gt;Node3 -->
<g id="edge12_Node000010_Node000003" class="edge">
<title>Node10&#45;&gt;Node3</title>
<g id="a_edge12_Node000010_Node000003"><a xlink:title=" ">
<path fill="none" stroke="#63b8ff" d="M175.55,-191.2C186.53,-181.7 199.26,-170.69 209.12,-162.16"/>
<polygon fill="#63b8ff" stroke="#63b8ff" points="173.2,-188.61 167.92,-197.8 177.78,-193.9 173.2,-188.61"/>
</a>
</g>
</g>
<!-- Node11 -->
<g id="Node000011" class="node">
<title>Node11</title>
<g id="a_Node000011"><a xlink:href="ProcessStageHandler_8cpp.html" target="_top" xlink:title=" ">
<polygon fill="white" stroke="#666666" points="143,-162 0,-162 0,-132 143,-132 143,-162"/>
<text text-anchor="start" x="8" y="-150" font-family="Helvetica,sans-Serif" font-size="10.00">services/pipeline/stage</text>
<text text-anchor="middle" x="71.5" y="-139" font-family="Helvetica,sans-Serif" font-size="10.00">/ProcessStageHandler.cpp</text>
</a>
</g>
</g>
<!-- Node10&#45;&gt;Node11 -->
<g id="edge13_Node000010_Node000011" class="edge">
<title>Node10&#45;&gt;Node11</title>
<g id="a_edge13_Node000010_Node000011"><a xlink:title=" ">
<path fill="none" stroke="#63b8ff" d="M125.85,-191.48C113.89,-181.91 99.97,-170.77 89.2,-162.16"/>
<polygon fill="#63b8ff" stroke="#63b8ff" points="123.75,-194.28 133.75,-197.8 128.12,-188.82 123.75,-194.28"/>
</a>
</g>
</g>
<!-- Node12&#45;&gt;Node3 -->
<g id="edge15_Node000012_Node000003" class="edge">
<title>Node12&#45;&gt;Node3</title>
<g id="a_edge15_Node000012_Node000003"><a xlink:title=" ">
<path fill="none" stroke="#63b8ff" d="M275.45,-191.2C264.47,-181.7 251.74,-170.69 241.88,-162.16"/>
<polygon fill="#63b8ff" stroke="#63b8ff" points="273.22,-193.9 283.08,-197.8 277.8,-188.61 273.22,-193.9"/>
</a>
</g>
</g>
<!-- Node13 -->
<g id="Node000013" class="node">
<title>Node13</title>
<g id="a_Node000013"><a xlink:href="WriteStageHandler_8cpp.html" target="_top" xlink:title=" ">
<polygon fill="white" stroke="#666666" points="439,-162 308,-162 308,-132 439,-132 439,-162"/>
<text text-anchor="start" x="316" y="-150" font-family="Helvetica,sans-Serif" font-size="10.00">services/pipeline/stage</text>
<text text-anchor="middle" x="373.5" y="-139" font-family="Helvetica,sans-Serif" font-size="10.00">/WriteStageHandler.cpp</text>
</a>
</g>
</g>
<!-- Node12&#45;&gt;Node13 -->
<g id="edge16_Node000012_Node000013" class="edge">
<title>Node12&#45;&gt;Node13</title>
<g id="a_edge16_Node000012_Node000013"><a xlink:title=" ">
<path fill="none" stroke="#63b8ff" d="M323.55,-191.2C334.53,-181.7 347.26,-170.69 357.12,-162.16"/>
<polygon fill="#63b8ff" stroke="#63b8ff" points="321.2,-188.61 315.92,-197.8 325.78,-193.9 321.2,-188.61"/>
</a>
</g>
</g>
</g>
</svg>
