<?xml version="1.0" encoding="UTF-8" standalone="no"?>
<!DOCTYPE svg PUBLIC "-//W3C//DTD SVG 1.1//EN"
 "http://www.w3.org/Graphics/SVG/1.1/DTD/svg11.dtd">
<!-- Generated by graphviz version 2.43.0 (0)
 -->
<!-- Title: EasyKiConverter::ComponentService::FetchingComponent Pages: 1 -->
<svg width="185pt" height="584pt"
 viewBox="0.00 0.00 185.00 584.00" xmlns="http://www.w3.org/2000/svg" xmlns:xlink="http://www.w3.org/1999/xlink">
<g id="graph0" class="graph" transform="scale(1 1) rotate(0) translate(4 580)">
<title>EasyKiConverter::ComponentService::FetchingComponent</title>
<!-- Node1 -->
<g id="Node000001" class="node">
<title>Node1</title>
<g id="a_Node000001"><a xlink:title=" ">
<polygon fill="#999999" stroke="transparent" points="165.5,-180 11.5,-180 11.5,0 165.5,0 165.5,-180"/>
<text text-anchor="start" x="16.5" y="-168" font-family="Helvetica,sans-Serif" font-size="10.00">EasyKiConverter::Component</text>
<text text-anchor="start" x="18.5" y="-157" font-family="Helvetica,sans-Serif" font-size="10.00">Service::FetchingComponent</text>
<text text-anchor="start" x="18" y="-142" font-family="Helvetica,sans-Serif" font-size="10.00">+</text>
<text text-anchor="start" x="33.5" y="-142" font-family="Helvetica,sans-Serif" font-size="10.00">componentId</text>
<text text-anchor="start" x="18" y="-127" font-family="Helvetica,sans-Serif" font-size="10.00">+</text>
<text text-anchor="start" x="33.5" y="-127" font-family="Helvetica,sans-Serif" font-size="10.00">hasComponentInfo</text>
<text text-anchor="start" x="18" y="-112" font-family="Helvetica,sans-Serif" font-size="10.00">+</text>
<text text-anchor="start" x="33.5" y="-112" font-family="Helvetica,sans-Serif" font-size="10.00">hasCadData</text>
<text text-anchor="start" x="18" y="-97" font-family="Helvetica,sans-Serif" font-size="10.00">+</text>
<text text-anchor="start" x="33.5" y="-97" font-family="Helvetica,sans-Serif" font-size="10.00">fetch3DModel</text>
<text text-anchor="start" x="18" y="-82" font-family="Helvetica,sans-Serif" font-size="10.00">+</text>
<text text-anchor="start" x="33.5" y="-82" font-family="Helvetica,sans-Serif" font-size="10.00">hasTriggeredLcscFetch</text>
<text text-anchor="start" x="18" y="-67" font-family="Helvetica,sans-Serif" font-size="10.00">+</text>
<text text-anchor="start" x="33.5" y="-67" font-family="Helvetica,sans-Serif" font-size="10.00">requestActive</text>
<text text-anchor="start" x="18" y="-52" font-family="Helvetica,sans-Serif" font-size="10.00">+</text>
<text text-anchor="start" x="33.5" y="-52" font-family="Helvetica,sans-Serif" font-size="10.00">errorMessage</text>
<text text-anchor="start" x="18" y="-37" font-family="Helvetica,sans-Serif" font-size="10.00">+</text>
<text text-anchor="start" x="33.5" y="-37" font-family="Helvetica,sans-Serif" font-size="10.00">pendingAsyncDownloads</text>
<text text-anchor="start" x="18" y="-22" font-family="Helvetica,sans-Serif" font-size="10.00">+</text>
<text text-anchor="start" x="33.5" y="-22" font-family="Helvetica,sans-Serif" font-size="10.00">cacheGeneration</text>
<text text-anchor="start" x="86.5" y="-7" font-family="Helvetica,sans-Serif" font-size="10.00"> </text>
<polygon fill="#666666" stroke="#666666" points="11.5,-152 11.5,-152 165.5,-152 165.5,-152 11.5,-152"/>
<polygon fill="#666666" stroke="#666666" points="11.5,-17 11.5,-17 31.5,-17 31.5,-17 11.5,-17"/>
<polygon fill="#666666" stroke="#666666" points="31.5,-17 31.5,-17 165.5,-17 165.5,-17 31.5,-17"/>
<polygon fill="none" stroke="#666666" points="11.5,0 11.5,-180 165.5,-180 165.5,0 11.5,0"/>
</a>
</g>
</g>
<!-- Node2 -->
<g id="Node000002" class="node">
<title>Node2</title>
<g id="a_Node000002"><a xlink:href="classEasyKiConverter_1_1ComponentData.html" target="_top" xlink:title="元件数据">
<polygon fill="white" stroke="transparent" points="177,-576 0,-576 0,-227 177,-227 177,-576"/>
<text text-anchor="start" x="5.5" y="-563.5" font-family="Helvetica,sans-Serif" font-size="10.00">EasyKiConverter::ComponentData</text>
<text text-anchor="start" x="21" y="-548.5" font-family="Helvetica,sans-Serif" font-size="10.00">&#45;</text>
<text text-anchor="start" x="45.5" y="-548.5" font-family="Helvetica,sans-Serif" font-size="10.00">m_lcscId</text>
<text text-anchor="start" x="21" y="-533.5" font-family="Helvetica,sans-Serif" font-size="10.00">&#45;</text>
<text text-anchor="start" x="45.5" y="-533.5" font-family="Helvetica,sans-Serif" font-size="10.00">m_name</text>
<text text-anchor="start" x="21" y="-518.5" font-family="Helvetica,sans-Serif" font-size="10.00">&#45;</text>
<text text-anchor="start" x="45.5" y="-518.5" font-family="Helvetica,sans-Serif" font-size="10.00">m_prefix</text>
<text text-anchor="start" x="21" y="-503.5" font-family="Helvetica,sans-Serif" font-size="10.00">&#45;</text>
<text text-anchor="start" x="45.5" y="-503.5" font-family="Helvetica,sans-Serif" font-size="10.00">m_package</text>
<text text-anchor="start" x="21" y="-488.5" font-family="Helvetica,sans-Serif" font-size="10.00">&#45;</text>
<text text-anchor="start" x="45.5" y="-488.5" font-family="Helvetica,sans-Serif" font-size="10.00">m_manufacturer</text>
<text text-anchor="start" x="21" y="-473.5" font-family="Helvetica,sans-Serif" font-size="10.00">&#45;</text>
<text text-anchor="start" x="45.5" y="-473.5" font-family="Helvetica,sans-Serif" font-size="10.00">m_manufacturerPart</text>
<text text-anchor="start" x="21" y="-458.5" font-family="Helvetica,sans-Serif" font-size="10.00">&#45;</text>
<text text-anchor="start" x="45.5" y="-458.5" font-family="Helvetica,sans-Serif" font-size="10.00">m_datasheet</text>
<text text-anchor="start" x="21" y="-443.5" font-family="Helvetica,sans-Serif" font-size="10.00">&#45;</text>
<text text-anchor="start" x="45.5" y="-443.5" font-family="Helvetica,sans-Serif" font-size="10.00">m_datasheetData</text>
<text text-anchor="start" x="21" y="-428.5" font-family="Helvetica,sans-Serif" font-size="10.00">&#45;</text>
<text text-anchor="start" x="45.5" y="-428.5" font-family="Helvetica,sans-Serif" font-size="10.00">m_datasheetFormat</text>
<text text-anchor="start" x="21" y="-413.5" font-family="Helvetica,sans-Serif" font-size="10.00">&#45;</text>
<text text-anchor="start" x="45.5" y="-413.5" font-family="Helvetica,sans-Serif" font-size="10.00">m_previewImages</text>
<text text-anchor="start" x="45.5" y="-398.5" font-family="Helvetica,sans-Serif" font-size="10.00">和 7 更多...</text>
<text text-anchor="start" x="18.5" y="-383.5" font-family="Helvetica,sans-Serif" font-size="10.00">+</text>
<text text-anchor="start" x="45.5" y="-383.5" font-family="Helvetica,sans-Serif" font-size="10.00">ComponentData()</text>
<text text-anchor="start" x="18.5" y="-368.5" font-family="Helvetica,sans-Serif" font-size="10.00">+</text>
<text text-anchor="start" x="45.5" y="-368.5" font-family="Helvetica,sans-Serif" font-size="10.00">~ComponentData()</text>
<text text-anchor="start" x="18.5" y="-353.5" font-family="Helvetica,sans-Serif" font-size="10.00">+</text>
<text text-anchor="start" x="45.5" y="-353.5" font-family="Helvetica,sans-Serif" font-size="10.00">lcscId()</text>
<text text-anchor="start" x="18.5" y="-338.5" font-family="Helvetica,sans-Serif" font-size="10.00">+</text>
<text text-anchor="start" x="45.5" y="-338.5" font-family="Helvetica,sans-Serif" font-size="10.00">setLcscId()</text>
<text text-anchor="start" x="18.5" y="-323.5" font-family="Helvetica,sans-Serif" font-size="10.00">+</text>
<text text-anchor="start" x="45.5" y="-323.5" font-family="Helvetica,sans-Serif" font-size="10.00">name()</text>
<text text-anchor="start" x="18.5" y="-308.5" font-family="Helvetica,sans-Serif" font-size="10.00">+</text>
<text text-anchor="start" x="45.5" y="-308.5" font-family="Helvetica,sans-Serif" font-size="10.00">setName()</text>
<text text-anchor="start" x="18.5" y="-293.5" font-family="Helvetica,sans-Serif" font-size="10.00">+</text>
<text text-anchor="start" x="45.5" y="-293.5" font-family="Helvetica,sans-Serif" font-size="10.00">prefix()</text>
<text text-anchor="start" x="18.5" y="-278.5" font-family="Helvetica,sans-Serif" font-size="10.00">+</text>
<text text-anchor="start" x="45.5" y="-278.5" font-family="Helvetica,sans-Serif" font-size="10.00">setPrefix()</text>
<text text-anchor="start" x="18.5" y="-263.5" font-family="Helvetica,sans-Serif" font-size="10.00">+</text>
<text text-anchor="start" x="45.5" y="-263.5" font-family="Helvetica,sans-Serif" font-size="10.00">package()</text>
<text text-anchor="start" x="18.5" y="-248.5" font-family="Helvetica,sans-Serif" font-size="10.00">+</text>
<text text-anchor="start" x="45.5" y="-248.5" font-family="Helvetica,sans-Serif" font-size="10.00">setPackage()</text>
<text text-anchor="start" x="45.5" y="-233.5" font-family="Helvetica,sans-Serif" font-size="10.00">和 33 更多...</text>
<polygon fill="#666666" stroke="#666666" points="0.5,-558.5 0.5,-558.5 177.5,-558.5 177.5,-558.5 0.5,-558.5"/>
<polygon fill="#666666" stroke="#666666" points="0.5,-393.5 0.5,-393.5 43.5,-393.5 43.5,-393.5 0.5,-393.5"/>
<polygon fill="#666666" stroke="#666666" points="43.5,-393.5 43.5,-393.5 177.5,-393.5 177.5,-393.5 43.5,-393.5"/>
<polygon fill="none" stroke="#666666" points="0,-227 0,-576 177,-576 177,-227 0,-227"/>
</a>
</g>
</g>
<!-- Node2&#45;&gt;Node1 -->
<g id="edge1_Node000001_Node000002" class="edge">
<title>Node2&#45;&gt;Node1</title>
<g id="a_edge1_Node000001_Node000002"><a xlink:title=" ">
<path fill="none" stroke="#63b8ff" d="M88.5,-226.75C88.5,-215.14 88.5,-203.67 88.5,-192.61"/>
<polygon fill="none" stroke="#63b8ff" points="88.5,-192.32 84.5,-186.32 88.5,-180.32 92.5,-186.32 88.5,-192.32"/>
</a>
</g>
<text text-anchor="middle" x="105.5" y="-201" font-family="Helvetica,sans-Serif" font-size="10.00" fill="grey"> +data</text>
</g>
</g>
</svg>
