<?xml version="1.0" encoding="UTF-8" standalone="no"?>
<!DOCTYPE svg PUBLIC "-//W3C//DTD SVG 1.1//EN"
 "http://www.w3.org/Graphics/SVG/1.1/DTD/svg11.dtd">
<!-- Generated by graphviz version 2.43.0 (0)
 -->
<!-- Title: EasyKiConverter::NetworkClient::PendingAsyncRequest Pages: 1 -->
<svg width="161pt" height="128pt"
 viewBox="0.00 0.00 161.00 128.00" xmlns="http://www.w3.org/2000/svg" xmlns:xlink="http://www.w3.org/1999/xlink">
<g id="graph0" class="graph" transform="scale(1 1) rotate(0) translate(4 124)">
<title>EasyKiConverter::NetworkClient::PendingAsyncRequest</title>
<!-- Node1 -->
<g id="Node000001" class="node">
<title>Node1</title>
<g id="a_Node000001"><a xlink:title=" ">
<polygon fill="#999999" stroke="transparent" points="153,-120 0,-120 0,0 153,0 153,-120"/>
<text text-anchor="start" x="5.5" y="-108" font-family="Helvetica,sans-Serif" font-size="10.00">EasyKiConverter::Network</text>
<text text-anchor="start" x="5.5" y="-97" font-family="Helvetica,sans-Serif" font-size="10.00">Client::PendingAsyncRequest</text>
<text text-anchor="start" x="19" y="-82" font-family="Helvetica,sans-Serif" font-size="10.00">+</text>
<text text-anchor="start" x="46.5" y="-82" font-family="Helvetica,sans-Serif" font-size="10.00">request</text>
<text text-anchor="start" x="19" y="-67" font-family="Helvetica,sans-Serif" font-size="10.00">+</text>
<text text-anchor="start" x="46.5" y="-67" font-family="Helvetica,sans-Serif" font-size="10.00">resourceType</text>
<text text-anchor="start" x="19" y="-52" font-family="Helvetica,sans-Serif" font-size="10.00">+</text>
<text text-anchor="start" x="46.5" y="-52" font-family="Helvetica,sans-Serif" font-size="10.00">priority</text>
<text text-anchor="start" x="19" y="-37" font-family="Helvetica,sans-Serif" font-size="10.00">+</text>
<text text-anchor="start" x="46.5" y="-37" font-family="Helvetica,sans-Serif" font-size="10.00">sequence</text>
<text text-anchor="start" x="19" y="-22" font-family="Helvetica,sans-Serif" font-size="10.00">+</text>
<text text-anchor="start" x="46.5" y="-22" font-family="Helvetica,sans-Serif" font-size="10.00">enqueuedAtMs</text>
<text text-anchor="start" x="75" y="-7" font-family="Helvetica,sans-Serif" font-size="10.00"> </text>
<polygon fill="#666666" stroke="#666666" points="0.5,-92 0.5,-92 153.5,-92 153.5,-92 0.5,-92"/>
<polygon fill="#666666" stroke="#666666" points="0.5,-17 0.5,-17 44.5,-17 44.5,-17 0.5,-17"/>
<polygon fill="#666666" stroke="#666666" points="44.5,-17 44.5,-17 153.5,-17 153.5,-17 44.5,-17"/>
<polygon fill="none" stroke="#666666" points="0,0 0,-120 153,-120 153,0 0,0"/>
</a>
</g>
</g>
</g>
</svg>
