<?xml version="1.0" encoding="UTF-8" standalone="no"?>
<!DOCTYPE svg PUBLIC "-//W3C//DTD SVG 1.1//EN"
 "http://www.w3.org/Graphics/SVG/1.1/DTD/svg11.dtd">
<!-- Generated by graphviz version 2.43.0 (0)
 -->
<!-- Title: EasyKiConverter::ExportOptions Pages: 1 -->
<svg width="175pt" height="192pt"
 viewBox="0.00 0.00 175.00 192.00" xmlns="http://www.w3.org/2000/svg" xmlns:xlink="http://www.w3.org/1999/xlink">
<g id="graph0" class="graph" transform="scale(1 1) rotate(0) translate(4 188)">
<title>EasyKiConverter::ExportOptions</title>
<!-- Node1 -->
<g id="Node000001" class="node">
<title>Node1</title>
<g id="a_Node000001"><a xlink:title="导出选项结构">
<polygon fill="#999999" stroke="transparent" points="167,-184 0,-184 0,0 167,0 167,-184"/>
<text text-anchor="start" x="5.5" y="-172" font-family="Helvetica,sans-Serif" font-size="10.00">EasyKiConverter::ExportOptions</text>
<text text-anchor="start" x="13.5" y="-157" font-family="Helvetica,sans-Serif" font-size="10.00">+</text>
<text text-anchor="start" x="35.5" y="-157" font-family="Helvetica,sans-Serif" font-size="10.00">outputPath</text>
<text text-anchor="start" x="13.5" y="-142" font-family="Helvetica,sans-Serif" font-size="10.00">+</text>
<text text-anchor="start" x="35.5" y="-142" font-family="Helvetica,sans-Serif" font-size="10.00">libName</text>
<text text-anchor="start" x="13.5" y="-127" font-family="Helvetica,sans-Serif" font-size="10.00">+</text>
<text text-anchor="start" x="35.5" y="-127" font-family="Helvetica,sans-Serif" font-size="10.00">exportSymbol</text>
<text text-anchor="start" x="13.5" y="-112" font-family="Helvetica,sans-Serif" font-size="10.00">+</text>
<text text-anchor="start" x="35.5" y="-112" font-family="Helvetica,sans-Serif" font-size="10.00">exportFootprint</text>
<text text-anchor="start" x="13.5" y="-97" font-family="Helvetica,sans-Serif" font-size="10.00">+</text>
<text text-anchor="start" x="35.5" y="-97" font-family="Helvetica,sans-Serif" font-size="10.00">exportModel3D</text>
<text text-anchor="start" x="13.5" y="-82" font-family="Helvetica,sans-Serif" font-size="10.00">+</text>
<text text-anchor="start" x="35.5" y="-82" font-family="Helvetica,sans-Serif" font-size="10.00">exportPreviewImages</text>
<text text-anchor="start" x="13.5" y="-67" font-family="Helvetica,sans-Serif" font-size="10.00">+</text>
<text text-anchor="start" x="35.5" y="-67" font-family="Helvetica,sans-Serif" font-size="10.00">exportDatasheet</text>
<text text-anchor="start" x="13.5" y="-52" font-family="Helvetica,sans-Serif" font-size="10.00">+</text>
<text text-anchor="start" x="35.5" y="-52" font-family="Helvetica,sans-Serif" font-size="10.00">overwriteExistingFiles</text>
<text text-anchor="start" x="13.5" y="-37" font-family="Helvetica,sans-Serif" font-size="10.00">+</text>
<text text-anchor="start" x="35.5" y="-37" font-family="Helvetica,sans-Serif" font-size="10.00">updateMode</text>
<text text-anchor="start" x="13.5" y="-22" font-family="Helvetica,sans-Serif" font-size="10.00">+</text>
<text text-anchor="start" x="35.5" y="-22" font-family="Helvetica,sans-Serif" font-size="10.00">debugMode</text>
<text text-anchor="start" x="13.5" y="-7" font-family="Helvetica,sans-Serif" font-size="10.00">+</text>
<text text-anchor="start" x="35.5" y="-7" font-family="Helvetica,sans-Serif" font-size="10.00">ExportOptions()</text>
<polygon fill="#666666" stroke="#666666" points="0.5,-167 0.5,-167 167.5,-167 167.5,-167 0.5,-167"/>
<polygon fill="#666666" stroke="#666666" points="0.5,-17 0.5,-17 33.5,-17 33.5,-17 0.5,-17"/>
<polygon fill="#666666" stroke="#666666" points="33.5,-17 33.5,-17 167.5,-17 167.5,-17 33.5,-17"/>
<polygon fill="none" stroke="#666666" points="0,0 0,-184 167,-184 167,0 0,0"/>
</a>
</g>
</g>
</g>
</svg>
