<?xml version="1.0" encoding="UTF-8" standalone="no"?>
<!DOCTYPE svg PUBLIC "-//W3C//DTD SVG 1.1//EN"
 "http://www.w3.org/Graphics/SVG/1.1/DTD/svg11.dtd">
<!-- Generated by graphviz version 2.43.0 (0)
 -->
<!-- Title: EasyKiConverter::SymbolBBox Pages: 1 -->
<svg width="168pt" height="102pt"
 viewBox="0.00 0.00 168.00 102.00" xmlns="http://www.w3.org/2000/svg" xmlns:xlink="http://www.w3.org/1999/xlink">
<g id="graph0" class="graph" transform="scale(1 1) rotate(0) translate(4 98)">
<title>EasyKiConverter::SymbolBBox</title>
<!-- Node1 -->
<g id="Node000001" class="node">
<title>Node1</title>
<g id="a_Node000001"><a xlink:title="边界">
<polygon fill="#999999" stroke="transparent" points="160,-94 0,-94 0,0 160,0 160,-94"/>
<text text-anchor="start" x="5" y="-82" font-family="Helvetica,sans-Serif" font-size="10.00">EasyKiConverter::SymbolBBox</text>
<text text-anchor="start" x="31" y="-67" font-family="Helvetica,sans-Serif" font-size="10.00">+</text>
<text text-anchor="start" x="71" y="-67" font-family="Helvetica,sans-Serif" font-size="10.00">x</text>
<text text-anchor="start" x="31" y="-52" font-family="Helvetica,sans-Serif" font-size="10.00">+</text>
<text text-anchor="start" x="71" y="-52" font-family="Helvetica,sans-Serif" font-size="10.00">y</text>
<text text-anchor="start" x="31" y="-37" font-family="Helvetica,sans-Serif" font-size="10.00">+</text>
<text text-anchor="start" x="71" y="-37" font-family="Helvetica,sans-Serif" font-size="10.00">width</text>
<text text-anchor="start" x="31" y="-22" font-family="Helvetica,sans-Serif" font-size="10.00">+</text>
<text text-anchor="start" x="71" y="-22" font-family="Helvetica,sans-Serif" font-size="10.00">height</text>
<text text-anchor="start" x="78" y="-7" font-family="Helvetica,sans-Serif" font-size="10.00"> </text>
<polygon fill="#666666" stroke="#666666" points="0,-77 0,-77 160,-77 160,-77 0,-77"/>
<polygon fill="#666666" stroke="#666666" points="0,-17 0,-17 69,-17 69,-17 0,-17"/>
<polygon fill="#666666" stroke="#666666" points="69,-17 69,-17 160,-17 160,-17 69,-17"/>
<polygon fill="none" stroke="#666666" points="0,0 0,-94 160,-94 160,0 0,0"/>
</a>
</g>
</g>
</g>
</svg>
