<?xml version="1.0" encoding="UTF-8" standalone="no"?>
<!DOCTYPE svg PUBLIC "-//W3C//DTD SVG 1.1//EN"
 "http://www.w3.org/Graphics/SVG/1.1/DTD/svg11.dtd">
<!-- Generated by graphviz version 2.43.0 (0)
 -->
<!-- Title: EasyKiConverter::SymbolText Pages: 1 -->
<svg width="163pt" height="207pt"
 viewBox="0.00 0.00 163.00 207.00" xmlns="http://www.w3.org/2000/svg" xmlns:xlink="http://www.w3.org/1999/xlink">
<g id="graph0" class="graph" transform="scale(1 1) rotate(0) translate(4 203)">
<title>EasyKiConverter::SymbolText</title>
<!-- Node1 -->
<g id="Node000001" class="node">
<title>Node1</title>
<g id="a_Node000001"><a xlink:title="文本">
<polygon fill="#999999" stroke="transparent" points="155,-199 0,-199 0,0 155,0 155,-199"/>
<text text-anchor="start" x="5.5" y="-186.5" font-family="Helvetica,sans-Serif" font-size="10.00">EasyKiConverter::SymbolText</text>
<text text-anchor="start" x="23" y="-171.5" font-family="Helvetica,sans-Serif" font-size="10.00">+</text>
<text text-anchor="start" x="54.5" y="-171.5" font-family="Helvetica,sans-Serif" font-size="10.00">mark</text>
<text text-anchor="start" x="23" y="-156.5" font-family="Helvetica,sans-Serif" font-size="10.00">+</text>
<text text-anchor="start" x="54.5" y="-156.5" font-family="Helvetica,sans-Serif" font-size="10.00">posX</text>
<text text-anchor="start" x="23" y="-141.5" font-family="Helvetica,sans-Serif" font-size="10.00">+</text>
<text text-anchor="start" x="54.5" y="-141.5" font-family="Helvetica,sans-Serif" font-size="10.00">posY</text>
<text text-anchor="start" x="23" y="-126.5" font-family="Helvetica,sans-Serif" font-size="10.00">+</text>
<text text-anchor="start" x="54.5" y="-126.5" font-family="Helvetica,sans-Serif" font-size="10.00">rotation</text>
<text text-anchor="start" x="23" y="-111.5" font-family="Helvetica,sans-Serif" font-size="10.00">+</text>
<text text-anchor="start" x="54.5" y="-111.5" font-family="Helvetica,sans-Serif" font-size="10.00">color</text>
<text text-anchor="start" x="23" y="-96.5" font-family="Helvetica,sans-Serif" font-size="10.00">+</text>
<text text-anchor="start" x="54.5" y="-96.5" font-family="Helvetica,sans-Serif" font-size="10.00">font</text>
<text text-anchor="start" x="23" y="-81.5" font-family="Helvetica,sans-Serif" font-size="10.00">+</text>
<text text-anchor="start" x="54.5" y="-81.5" font-family="Helvetica,sans-Serif" font-size="10.00">textSize</text>
<text text-anchor="start" x="23" y="-66.5" font-family="Helvetica,sans-Serif" font-size="10.00">+</text>
<text text-anchor="start" x="54.5" y="-66.5" font-family="Helvetica,sans-Serif" font-size="10.00">bold</text>
<text text-anchor="start" x="23" y="-51.5" font-family="Helvetica,sans-Serif" font-size="10.00">+</text>
<text text-anchor="start" x="54.5" y="-51.5" font-family="Helvetica,sans-Serif" font-size="10.00">italic</text>
<text text-anchor="start" x="23" y="-36.5" font-family="Helvetica,sans-Serif" font-size="10.00">+</text>
<text text-anchor="start" x="54.5" y="-36.5" font-family="Helvetica,sans-Serif" font-size="10.00">baseline</text>
<text text-anchor="start" x="54.5" y="-21.5" font-family="Helvetica,sans-Serif" font-size="10.00">和 6 更多...</text>
<text text-anchor="start" x="76" y="-6.5" font-family="Helvetica,sans-Serif" font-size="10.00"> </text>
<polygon fill="#666666" stroke="#666666" points="0.5,-181.5 0.5,-181.5 155.5,-181.5 155.5,-181.5 0.5,-181.5"/>
<polygon fill="#666666" stroke="#666666" points="0.5,-16.5 0.5,-16.5 52.5,-16.5 52.5,-16.5 0.5,-16.5"/>
<polygon fill="#666666" stroke="#666666" points="52.5,-16.5 52.5,-16.5 155.5,-16.5 155.5,-16.5 52.5,-16.5"/>
<polygon fill="none" stroke="#666666" points="0,0 0,-199 155,-199 155,0 0,0"/>
</a>
</g>
</g>
</g>
</svg>
