<?xml version="1.0" encoding="UTF-8" standalone="no"?>
<!DOCTYPE svg PUBLIC "-//W3C//DTD SVG 1.1//EN"
 "http://www.w3.org/Graphics/SVG/1.1/DTD/svg11.dtd">
<!-- Generated by graphviz version 2.43.0 (0)
 -->
<!-- Title: EasyKiConverter::SymbolEllipse Pages: 1 -->
<svg width="175pt" height="192pt"
 viewBox="0.00 0.00 175.00 192.00" xmlns="http://www.w3.org/2000/svg" xmlns:xlink="http://www.w3.org/1999/xlink">
<g id="graph0" class="graph" transform="scale(1 1) rotate(0) translate(4 188)">
<title>EasyKiConverter::SymbolEllipse</title>
<!-- Node1 -->
<g id="Node000001" class="node">
<title>Node1</title>
<g id="a_Node000001"><a xlink:title="椭圆">
<polygon fill="#999999" stroke="transparent" points="167,-184 0,-184 0,0 167,0 167,-184"/>
<text text-anchor="start" x="5.5" y="-172" font-family="Helvetica,sans-Serif" font-size="10.00">EasyKiConverter::SymbolEllipse</text>
<text text-anchor="start" x="26" y="-157" font-family="Helvetica,sans-Serif" font-size="10.00">+</text>
<text text-anchor="start" x="60.5" y="-157" font-family="Helvetica,sans-Serif" font-size="10.00">centerX</text>
<text text-anchor="start" x="26" y="-142" font-family="Helvetica,sans-Serif" font-size="10.00">+</text>
<text text-anchor="start" x="60.5" y="-142" font-family="Helvetica,sans-Serif" font-size="10.00">centerY</text>
<text text-anchor="start" x="26" y="-127" font-family="Helvetica,sans-Serif" font-size="10.00">+</text>
<text text-anchor="start" x="60.5" y="-127" font-family="Helvetica,sans-Serif" font-size="10.00">radiusX</text>
<text text-anchor="start" x="26" y="-112" font-family="Helvetica,sans-Serif" font-size="10.00">+</text>
<text text-anchor="start" x="60.5" y="-112" font-family="Helvetica,sans-Serif" font-size="10.00">radiusY</text>
<text text-anchor="start" x="26" y="-97" font-family="Helvetica,sans-Serif" font-size="10.00">+</text>
<text text-anchor="start" x="60.5" y="-97" font-family="Helvetica,sans-Serif" font-size="10.00">strokeColor</text>
<text text-anchor="start" x="26" y="-82" font-family="Helvetica,sans-Serif" font-size="10.00">+</text>
<text text-anchor="start" x="60.5" y="-82" font-family="Helvetica,sans-Serif" font-size="10.00">strokeWidth</text>
<text text-anchor="start" x="26" y="-67" font-family="Helvetica,sans-Serif" font-size="10.00">+</text>
<text text-anchor="start" x="60.5" y="-67" font-family="Helvetica,sans-Serif" font-size="10.00">strokeStyle</text>
<text text-anchor="start" x="26" y="-52" font-family="Helvetica,sans-Serif" font-size="10.00">+</text>
<text text-anchor="start" x="60.5" y="-52" font-family="Helvetica,sans-Serif" font-size="10.00">fillColor</text>
<text text-anchor="start" x="26" y="-37" font-family="Helvetica,sans-Serif" font-size="10.00">+</text>
<text text-anchor="start" x="60.5" y="-37" font-family="Helvetica,sans-Serif" font-size="10.00">id</text>
<text text-anchor="start" x="26" y="-22" font-family="Helvetica,sans-Serif" font-size="10.00">+</text>
<text text-anchor="start" x="60.5" y="-22" font-family="Helvetica,sans-Serif" font-size="10.00">isLocked</text>
<text text-anchor="start" x="82" y="-7" font-family="Helvetica,sans-Serif" font-size="10.00"> </text>
<polygon fill="#666666" stroke="#666666" points="0.5,-167 0.5,-167 167.5,-167 167.5,-167 0.5,-167"/>
<polygon fill="#666666" stroke="#666666" points="0.5,-17 0.5,-17 58.5,-17 58.5,-17 0.5,-17"/>
<polygon fill="#666666" stroke="#666666" points="58.5,-17 58.5,-17 167.5,-17 167.5,-17 58.5,-17"/>
<polygon fill="none" stroke="#666666" points="0,0 0,-184 167,-184 167,0 0,0"/>
</a>
</g>
</g>
</g>
</svg>
