<?xml version="1.0" encoding="UTF-8" standalone="no"?>
<!DOCTYPE svg PUBLIC "-//W3C//DTD SVG 1.1//EN"
 "http://www.w3.org/Graphics/SVG/1.1/DTD/svg11.dtd">
<!-- Generated by graphviz version 2.43.0 (0)
 -->
<!-- Title: EasyKiConverter::FootprintSolidRegion Pages: 1 -->
<svg width="149pt" height="143pt"
 viewBox="0.00 0.00 149.00 143.00" xmlns="http://www.w3.org/2000/svg" xmlns:xlink="http://www.w3.org/1999/xlink">
<g id="graph0" class="graph" transform="scale(1 1) rotate(0) translate(4 139)">
<title>EasyKiConverter::FootprintSolidRegion</title>
<!-- Node1 -->
<g id="Node000001" class="node">
<title>Node1</title>
<g id="a_Node000001"><a xlink:title="实体填充区域，用于禁止布线区或元件占位区">
<polygon fill="#999999" stroke="transparent" points="141,-135 0,-135 0,0 141,0 141,-135"/>
<text text-anchor="start" x="5.5" y="-122.5" font-family="Helvetica,sans-Serif" font-size="10.00">EasyKiConverter::Footprint</text>
<text text-anchor="start" x="42" y="-111.5" font-family="Helvetica,sans-Serif" font-size="10.00">SolidRegion</text>
<text text-anchor="start" x="22" y="-96.5" font-family="Helvetica,sans-Serif" font-size="10.00">+</text>
<text text-anchor="start" x="52.5" y="-96.5" font-family="Helvetica,sans-Serif" font-size="10.00">path</text>
<text text-anchor="start" x="22" y="-81.5" font-family="Helvetica,sans-Serif" font-size="10.00">+</text>
<text text-anchor="start" x="52.5" y="-81.5" font-family="Helvetica,sans-Serif" font-size="10.00">layerId</text>
<text text-anchor="start" x="22" y="-66.5" font-family="Helvetica,sans-Serif" font-size="10.00">+</text>
<text text-anchor="start" x="52.5" y="-66.5" font-family="Helvetica,sans-Serif" font-size="10.00">fillStyle</text>
<text text-anchor="start" x="22" y="-51.5" font-family="Helvetica,sans-Serif" font-size="10.00">+</text>
<text text-anchor="start" x="52.5" y="-51.5" font-family="Helvetica,sans-Serif" font-size="10.00">id</text>
<text text-anchor="start" x="22" y="-36.5" font-family="Helvetica,sans-Serif" font-size="10.00">+</text>
<text text-anchor="start" x="52.5" y="-36.5" font-family="Helvetica,sans-Serif" font-size="10.00">isKeepOut</text>
<text text-anchor="start" x="22" y="-21.5" font-family="Helvetica,sans-Serif" font-size="10.00">+</text>
<text text-anchor="start" x="52.5" y="-21.5" font-family="Helvetica,sans-Serif" font-size="10.00">isLocked</text>
<text text-anchor="start" x="69" y="-6.5" font-family="Helvetica,sans-Serif" font-size="10.00"> </text>
<polygon fill="#666666" stroke="#666666" points="0.5,-106.5 0.5,-106.5 141.5,-106.5 141.5,-106.5 0.5,-106.5"/>
<polygon fill="#666666" stroke="#666666" points="0.5,-16.5 0.5,-16.5 50.5,-16.5 50.5,-16.5 0.5,-16.5"/>
<polygon fill="#666666" stroke="#666666" points="50.5,-16.5 50.5,-16.5 141.5,-16.5 141.5,-16.5 50.5,-16.5"/>
<polygon fill="none" stroke="#666666" points="0,0 0,-135 141,-135 141,0 0,0"/>
</a>
</g>
</g>
</g>
</svg>
