<?xml version="1.0" encoding="UTF-8" standalone="no"?>
<!DOCTYPE svg PUBLIC "-//W3C//DTD SVG 1.1//EN"
 "http://www.w3.org/Graphics/SVG/1.1/DTD/svg11.dtd">
<!-- Generated by graphviz version 2.43.0 (0)
 -->
<!-- Title: EasyKiConverter::ExportOverallProgress Pages: 1 -->
<svg width="181pt" height="385pt"
 viewBox="0.00 0.00 181.00 385.00" xmlns="http://www.w3.org/2000/svg" xmlns:xlink="http://www.w3.org/1999/xlink">
<g id="graph0" class="graph" transform="scale(1 1) rotate(0) translate(4 381)">
<title>EasyKiConverter::ExportOverallProgress</title>
<!-- Node1 -->
<g id="Node000001" class="node">
<title>Node1</title>
<g id="a_Node000001"><a xlink:title="整体导出进度">
<polygon fill="#999999" stroke="transparent" points="164,-165 0,-165 0,0 164,0 164,-165"/>
<text text-anchor="start" x="5" y="-152.5" font-family="Helvetica,sans-Serif" font-size="10.00">EasyKiConverter::ExportOverall</text>
<text text-anchor="start" x="60.5" y="-141.5" font-family="Helvetica,sans-Serif" font-size="10.00">Progress</text>
<text text-anchor="start" x="15" y="-126.5" font-family="Helvetica,sans-Serif" font-size="10.00">+</text>
<text text-anchor="start" x="39" y="-126.5" font-family="Helvetica,sans-Serif" font-size="10.00">currentStage</text>
<text text-anchor="start" x="15" y="-111.5" font-family="Helvetica,sans-Serif" font-size="10.00">+</text>
<text text-anchor="start" x="39" y="-111.5" font-family="Helvetica,sans-Serif" font-size="10.00">totalComponents</text>
<text text-anchor="start" x="15" y="-96.5" font-family="Helvetica,sans-Serif" font-size="10.00">+</text>
<text text-anchor="start" x="39" y="-96.5" font-family="Helvetica,sans-Serif" font-size="10.00">exportTypeProgress</text>
<text text-anchor="start" x="15" y="-81.5" font-family="Helvetica,sans-Serif" font-size="10.00">+</text>
<text text-anchor="start" x="39" y="-81.5" font-family="Helvetica,sans-Serif" font-size="10.00">startTime</text>
<text text-anchor="start" x="15" y="-66.5" font-family="Helvetica,sans-Serif" font-size="10.00">+</text>
<text text-anchor="start" x="39" y="-66.5" font-family="Helvetica,sans-Serif" font-size="10.00">endTime</text>
<text text-anchor="start" x="15" y="-51.5" font-family="Helvetica,sans-Serif" font-size="10.00">+</text>
<text text-anchor="start" x="39" y="-51.5" font-family="Helvetica,sans-Serif" font-size="10.00">totalSuccessCount()</text>
<text text-anchor="start" x="15" y="-36.5" font-family="Helvetica,sans-Serif" font-size="10.00">+</text>
<text text-anchor="start" x="39" y="-36.5" font-family="Helvetica,sans-Serif" font-size="10.00">totalFailedCount()</text>
<text text-anchor="start" x="15" y="-21.5" font-family="Helvetica,sans-Serif" font-size="10.00">+</text>
<text text-anchor="start" x="39" y="-21.5" font-family="Helvetica,sans-Serif" font-size="10.00">isComplete()</text>
<text text-anchor="start" x="15" y="-6.5" font-family="Helvetica,sans-Serif" font-size="10.00">+</text>
<text text-anchor="start" x="39" y="-6.5" font-family="Helvetica,sans-Serif" font-size="10.00">overallPercentage()</text>
<polygon fill="#666666" stroke="#666666" points="0,-136.5 0,-136.5 164,-136.5 164,-136.5 0,-136.5"/>
<polygon fill="#666666" stroke="#666666" points="0,-61.5 0,-61.5 37,-61.5 37,-61.5 0,-61.5"/>
<polygon fill="#666666" stroke="#666666" points="37,-61.5 37,-61.5 164,-61.5 164,-61.5 37,-61.5"/>
<polygon fill="none" stroke="#666666" points="0,0 0,-165 164,-165 164,0 0,0"/>
</a>
</g>
</g>
<!-- Node2 -->
<g id="Node000002" class="node">
<title>Node2</title>
<g id="a_Node000002"><a xlink:href="structEasyKiConverter_1_1PreloadProgress.html" target="_top" xlink:title="预加载阶段进度">
<polygon fill="white" stroke="transparent" points="149,-377 15,-377 15,-212 149,-212 149,-377"/>
<text text-anchor="start" x="20" y="-364.5" font-family="Helvetica,sans-Serif" font-size="10.00">EasyKiConverter::Preload</text>
<text text-anchor="start" x="60.5" y="-353.5" font-family="Helvetica,sans-Serif" font-size="10.00">Progress</text>
<text text-anchor="start" x="22" y="-338.5" font-family="Helvetica,sans-Serif" font-size="10.00">+</text>
<text text-anchor="start" x="38" y="-338.5" font-family="Helvetica,sans-Serif" font-size="10.00">totalCount</text>
<text text-anchor="start" x="22" y="-323.5" font-family="Helvetica,sans-Serif" font-size="10.00">+</text>
<text text-anchor="start" x="38" y="-323.5" font-family="Helvetica,sans-Serif" font-size="10.00">completedCount</text>
<text text-anchor="start" x="22" y="-308.5" font-family="Helvetica,sans-Serif" font-size="10.00">+</text>
<text text-anchor="start" x="38" y="-308.5" font-family="Helvetica,sans-Serif" font-size="10.00">successCount</text>
<text text-anchor="start" x="22" y="-293.5" font-family="Helvetica,sans-Serif" font-size="10.00">+</text>
<text text-anchor="start" x="38" y="-293.5" font-family="Helvetica,sans-Serif" font-size="10.00">failedCount</text>
<text text-anchor="start" x="22" y="-278.5" font-family="Helvetica,sans-Serif" font-size="10.00">+</text>
<text text-anchor="start" x="38" y="-278.5" font-family="Helvetica,sans-Serif" font-size="10.00">inProgressCount</text>
<text text-anchor="start" x="22" y="-263.5" font-family="Helvetica,sans-Serif" font-size="10.00">+</text>
<text text-anchor="start" x="38" y="-263.5" font-family="Helvetica,sans-Serif" font-size="10.00">currentComponentId</text>
<text text-anchor="start" x="22" y="-248.5" font-family="Helvetica,sans-Serif" font-size="10.00">+</text>
<text text-anchor="start" x="38" y="-248.5" font-family="Helvetica,sans-Serif" font-size="10.00">failedComponents</text>
<text text-anchor="start" x="22" y="-233.5" font-family="Helvetica,sans-Serif" font-size="10.00">+</text>
<text text-anchor="start" x="38" y="-233.5" font-family="Helvetica,sans-Serif" font-size="10.00">percentage()</text>
<text text-anchor="start" x="22" y="-218.5" font-family="Helvetica,sans-Serif" font-size="10.00">+</text>
<text text-anchor="start" x="38" y="-218.5" font-family="Helvetica,sans-Serif" font-size="10.00">isComplete()</text>
<polygon fill="#666666" stroke="#666666" points="15,-348.5 15,-348.5 149,-348.5 149,-348.5 15,-348.5"/>
<polygon fill="#666666" stroke="#666666" points="15,-243.5 15,-243.5 36,-243.5 36,-243.5 15,-243.5"/>
<polygon fill="#666666" stroke="#666666" points="36,-243.5 36,-243.5 149,-243.5 149,-243.5 36,-243.5"/>
<polygon fill="none" stroke="#666666" points="15,-212 15,-377 149,-377 149,-212 15,-212"/>
</a>
</g>
</g>
<!-- Node2&#45;&gt;Node1 -->
<g id="edge1_Node000001_Node000002" class="edge">
<title>Node2&#45;&gt;Node1</title>
<g id="a_edge1_Node000001_Node000002"><a xlink:title=" ">
<path fill="none" stroke="#63b8ff" d="M82,-211.71C82,-200.46 82,-188.84 82,-177.39"/>
<polygon fill="none" stroke="#63b8ff" points="82,-177.07 78,-171.07 82,-165.07 86,-171.07 82,-177.07"/>
</a>
</g>
<text text-anchor="middle" x="127.5" y="-186" font-family="Helvetica,sans-Serif" font-size="10.00" fill="grey"> +preloadProgress</text>
</g>
</g>
</svg>
