<?xml version="1.0" encoding="UTF-8" standalone="no"?>
<!DOCTYPE svg PUBLIC "-//W3C//DTD SVG 1.1//EN"
 "http://www.w3.org/Graphics/SVG/1.1/DTD/svg11.dtd">
<!-- Generated by graphviz version 2.43.0 (0)
 -->
<!-- Title: EasyKiConverter::GeometryUtils::SvgArcEndpoints Pages: 1 -->
<svg width="154pt" height="113pt"
 viewBox="0.00 0.00 154.00 113.00" xmlns="http://www.w3.org/2000/svg" xmlns:xlink="http://www.w3.org/1999/xlink">
<g id="graph0" class="graph" transform="scale(1 1) rotate(0) translate(4 109)">
<title>EasyKiConverter::GeometryUtils::SvgArcEndpoints</title>
<!-- Node1 -->
<g id="Node000001" class="node">
<title>Node1</title>
<g id="a_Node000001"><a xlink:title="SVG 弧端点计算结">
<polygon fill="#999999" stroke="transparent" points="146,-105 0,-105 0,0 146,0 146,-105"/>
<text text-anchor="start" x="5" y="-92.5" font-family="Helvetica,sans-Serif" font-size="10.00">EasyKiConverter::Geometry</text>
<text text-anchor="start" x="17.5" y="-81.5" font-family="Helvetica,sans-Serif" font-size="10.00">Utils::SvgArcEndpoints</text>
<text text-anchor="start" x="12.5" y="-66.5" font-family="Helvetica,sans-Serif" font-size="10.00">+</text>
<text text-anchor="start" x="34" y="-66.5" font-family="Helvetica,sans-Serif" font-size="10.00">x1</text>
<text text-anchor="start" x="12.5" y="-51.5" font-family="Helvetica,sans-Serif" font-size="10.00">+</text>
<text text-anchor="start" x="34" y="-51.5" font-family="Helvetica,sans-Serif" font-size="10.00">y1</text>
<text text-anchor="start" x="12.5" y="-36.5" font-family="Helvetica,sans-Serif" font-size="10.00">+</text>
<text text-anchor="start" x="34" y="-36.5" font-family="Helvetica,sans-Serif" font-size="10.00">x2</text>
<text text-anchor="start" x="12.5" y="-21.5" font-family="Helvetica,sans-Serif" font-size="10.00">+</text>
<text text-anchor="start" x="34" y="-21.5" font-family="Helvetica,sans-Serif" font-size="10.00">y2</text>
<text text-anchor="start" x="12.5" y="-6.5" font-family="Helvetica,sans-Serif" font-size="10.00">+</text>
<text text-anchor="start" x="34" y="-6.5" font-family="Helvetica,sans-Serif" font-size="10.00">SvgArcEndpoints()</text>
<polygon fill="#666666" stroke="#666666" points="0,-76.5 0,-76.5 146,-76.5 146,-76.5 0,-76.5"/>
<polygon fill="#666666" stroke="#666666" points="0,-16.5 0,-16.5 32,-16.5 32,-16.5 0,-16.5"/>
<polygon fill="#666666" stroke="#666666" points="32,-16.5 32,-16.5 146,-16.5 146,-16.5 32,-16.5"/>
<polygon fill="none" stroke="#666666" points="0,0 0,-105 146,-105 146,0 0,0"/>
</a>
</g>
</g>
</g>
</svg>
