<?xml version="1.0" encoding="UTF-8" standalone="no"?>
<!DOCTYPE svg PUBLIC "-//W3C//DTD SVG 1.1//EN"
 "http://www.w3.org/Graphics/SVG/1.1/DTD/svg11.dtd">
<!-- Generated by graphviz version 2.43.0 (0)
 -->
<!-- Title: EasyKiConverter::CadParseResult Pages: 1 -->
<svg width="187pt" height="509pt"
 viewBox="0.00 0.00 186.50 509.00" xmlns="http://www.w3.org/2000/svg" xmlns:xlink="http://www.w3.org/1999/xlink">
<g id="graph0" class="graph" transform="scale(1 1) rotate(0) translate(4 505)">
<title>EasyKiConverter::CadParseResult</title>
<!-- Node1 -->
<g id="Node000001" class="node">
<title>Node1</title>
<g id="a_Node000001"><a xlink:title=" ">
<polygon fill="#999999" stroke="transparent" points="160,-105 17,-105 17,0 160,0 160,-105"/>
<text text-anchor="start" x="22.5" y="-92.5" font-family="Helvetica,sans-Serif" font-size="10.00">EasyKiConverter::CadParse</text>
<text text-anchor="start" x="73.5" y="-81.5" font-family="Helvetica,sans-Serif" font-size="10.00">Result</text>
<text text-anchor="start" x="35" y="-66.5" font-family="Helvetica,sans-Serif" font-size="10.00">+</text>
<text text-anchor="start" x="61.5" y="-66.5" font-family="Helvetica,sans-Serif" font-size="10.00">componentId</text>
<text text-anchor="start" x="35" y="-51.5" font-family="Helvetica,sans-Serif" font-size="10.00">+</text>
<text text-anchor="start" x="61.5" y="-51.5" font-family="Helvetica,sans-Serif" font-size="10.00">resultData</text>
<text text-anchor="start" x="35" y="-36.5" font-family="Helvetica,sans-Serif" font-size="10.00">+</text>
<text text-anchor="start" x="61.5" y="-36.5" font-family="Helvetica,sans-Serif" font-size="10.00">errorMessage</text>
<text text-anchor="start" x="35" y="-21.5" font-family="Helvetica,sans-Serif" font-size="10.00">+</text>
<text text-anchor="start" x="61.5" y="-21.5" font-family="Helvetica,sans-Serif" font-size="10.00">success</text>
<text text-anchor="start" x="87" y="-6.5" font-family="Helvetica,sans-Serif" font-size="10.00"> </text>
<polygon fill="#666666" stroke="#666666" points="17.5,-76.5 17.5,-76.5 160.5,-76.5 160.5,-76.5 17.5,-76.5"/>
<polygon fill="#666666" stroke="#666666" points="17.5,-16.5 17.5,-16.5 59.5,-16.5 59.5,-16.5 17.5,-16.5"/>
<polygon fill="#666666" stroke="#666666" points="59.5,-16.5 59.5,-16.5 160.5,-16.5 160.5,-16.5 59.5,-16.5"/>
<polygon fill="none" stroke="#666666" points="17,0 17,-105 160,-105 160,0 17,0"/>
</a>
</g>
</g>
<!-- Node2 -->
<g id="Node000002" class="node">
<title>Node2</title>
<g id="a_Node000002"><a xlink:href="classEasyKiConverter_1_1ComponentData.html" target="_top" xlink:title="元件数据">
<polygon fill="white" stroke="transparent" points="177,-501 0,-501 0,-152 177,-152 177,-501"/>
<text text-anchor="start" x="5.5" y="-488.5" font-family="Helvetica,sans-Serif" font-size="10.00">EasyKiConverter::ComponentData</text>
<text text-anchor="start" x="21" y="-473.5" font-family="Helvetica,sans-Serif" font-size="10.00">&#45;</text>
<text text-anchor="start" x="45.5" y="-473.5" font-family="Helvetica,sans-Serif" font-size="10.00">m_lcscId</text>
<text text-anchor="start" x="21" y="-458.5" font-family="Helvetica,sans-Serif" font-size="10.00">&#45;</text>
<text text-anchor="start" x="45.5" y="-458.5" font-family="Helvetica,sans-Serif" font-size="10.00">m_name</text>
<text text-anchor="start" x="21" y="-443.5" font-family="Helvetica,sans-Serif" font-size="10.00">&#45;</text>
<text text-anchor="start" x="45.5" y="-443.5" font-family="Helvetica,sans-Serif" font-size="10.00">m_prefix</text>
<text text-anchor="start" x="21" y="-428.5" font-family="Helvetica,sans-Serif" font-size="10.00">&#45;</text>
<text text-anchor="start" x="45.5" y="-428.5" font-family="Helvetica,sans-Serif" font-size="10.00">m_package</text>
<text text-anchor="start" x="21" y="-413.5" font-family="Helvetica,sans-Serif" font-size="10.00">&#45;</text>
<text text-anchor="start" x="45.5" y="-413.5" font-family="Helvetica,sans-Serif" font-size="10.00">m_manufacturer</text>
<text text-anchor="start" x="21" y="-398.5" font-family="Helvetica,sans-Serif" font-size="10.00">&#45;</text>
<text text-anchor="start" x="45.5" y="-398.5" font-family="Helvetica,sans-Serif" font-size="10.00">m_manufacturerPart</text>
<text text-anchor="start" x="21" y="-383.5" font-family="Helvetica,sans-Serif" font-size="10.00">&#45;</text>
<text text-anchor="start" x="45.5" y="-383.5" font-family="Helvetica,sans-Serif" font-size="10.00">m_datasheet</text>
<text text-anchor="start" x="21" y="-368.5" font-family="Helvetica,sans-Serif" font-size="10.00">&#45;</text>
<text text-anchor="start" x="45.5" y="-368.5" font-family="Helvetica,sans-Serif" font-size="10.00">m_datasheetData</text>
<text text-anchor="start" x="21" y="-353.5" font-family="Helvetica,sans-Serif" font-size="10.00">&#45;</text>
<text text-anchor="start" x="45.5" y="-353.5" font-family="Helvetica,sans-Serif" font-size="10.00">m_datasheetFormat</text>
<text text-anchor="start" x="21" y="-338.5" font-family="Helvetica,sans-Serif" font-size="10.00">&#45;</text>
<text text-anchor="start" x="45.5" y="-338.5" font-family="Helvetica,sans-Serif" font-size="10.00">m_previewImages</text>
<text text-anchor="start" x="45.5" y="-323.5" font-family="Helvetica,sans-Serif" font-size="10.00">和 7 更多...</text>
<text text-anchor="start" x="18.5" y="-308.5" font-family="Helvetica,sans-Serif" font-size="10.00">+</text>
<text text-anchor="start" x="45.5" y="-308.5" font-family="Helvetica,sans-Serif" font-size="10.00">ComponentData()</text>
<text text-anchor="start" x="18.5" y="-293.5" font-family="Helvetica,sans-Serif" font-size="10.00">+</text>
<text text-anchor="start" x="45.5" y="-293.5" font-family="Helvetica,sans-Serif" font-size="10.00">~ComponentData()</text>
<text text-anchor="start" x="18.5" y="-278.5" font-family="Helvetica,sans-Serif" font-size="10.00">+</text>
<text text-anchor="start" x="45.5" y="-278.5" font-family="Helvetica,sans-Serif" font-size="10.00">lcscId()</text>
<text text-anchor="start" x="18.5" y="-263.5" font-family="Helvetica,sans-Serif" font-size="10.00">+</text>
<text text-anchor="start" x="45.5" y="-263.5" font-family="Helvetica,sans-Serif" font-size="10.00">setLcscId()</text>
<text text-anchor="start" x="18.5" y="-248.5" font-family="Helvetica,sans-Serif" font-size="10.00">+</text>
<text text-anchor="start" x="45.5" y="-248.5" font-family="Helvetica,sans-Serif" font-size="10.00">name()</text>
<text text-anchor="start" x="18.5" y="-233.5" font-family="Helvetica,sans-Serif" font-size="10.00">+</text>
<text text-anchor="start" x="45.5" y="-233.5" font-family="Helvetica,sans-Serif" font-size="10.00">setName()</text>
<text text-anchor="start" x="18.5" y="-218.5" font-family="Helvetica,sans-Serif" font-size="10.00">+</text>
<text text-anchor="start" x="45.5" y="-218.5" font-family="Helvetica,sans-Serif" font-size="10.00">prefix()</text>
<text text-anchor="start" x="18.5" y="-203.5" font-family="Helvetica,sans-Serif" font-size="10.00">+</text>
<text text-anchor="start" x="45.5" y="-203.5" font-family="Helvetica,sans-Serif" font-size="10.00">setPrefix()</text>
<text text-anchor="start" x="18.5" y="-188.5" font-family="Helvetica,sans-Serif" font-size="10.00">+</text>
<text text-anchor="start" x="45.5" y="-188.5" font-family="Helvetica,sans-Serif" font-size="10.00">package()</text>
<text text-anchor="start" x="18.5" y="-173.5" font-family="Helvetica,sans-Serif" font-size="10.00">+</text>
<text text-anchor="start" x="45.5" y="-173.5" font-family="Helvetica,sans-Serif" font-size="10.00">setPackage()</text>
<text text-anchor="start" x="45.5" y="-158.5" font-family="Helvetica,sans-Serif" font-size="10.00">和 33 更多...</text>
<polygon fill="#666666" stroke="#666666" points="0.5,-483.5 0.5,-483.5 177.5,-483.5 177.5,-483.5 0.5,-483.5"/>
<polygon fill="#666666" stroke="#666666" points="0.5,-318.5 0.5,-318.5 43.5,-318.5 43.5,-318.5 0.5,-318.5"/>
<polygon fill="#666666" stroke="#666666" points="43.5,-318.5 43.5,-318.5 177.5,-318.5 177.5,-318.5 43.5,-318.5"/>
<polygon fill="none" stroke="#666666" points="0,-152 0,-501 177,-501 177,-152 0,-152"/>
</a>
</g>
</g>
<!-- Node2&#45;&gt;Node1 -->
<g id="edge1_Node000001_Node000002" class="edge">
<title>Node2&#45;&gt;Node1</title>
<g id="a_edge1_Node000001_Node000002"><a xlink:title=" ">
<path fill="none" stroke="#63b8ff" d="M88.5,-151.7C88.5,-139.65 88.5,-128.03 88.5,-117.26"/>
<polygon fill="none" stroke="#63b8ff" points="88.5,-117.04 84.5,-111.04 88.5,-105.04 92.5,-111.04 88.5,-117.04"/>
</a>
</g>
<text text-anchor="middle" x="133.5" y="-126" font-family="Helvetica,sans-Serif" font-size="10.00" fill="grey"> +componentData</text>
</g>
</g>
</svg>
