<?xml version="1.0" encoding="UTF-8" standalone="no"?>
<!DOCTYPE svg PUBLIC "-//W3C//DTD SVG 1.1//EN"
 "http://www.w3.org/Graphics/SVG/1.1/DTD/svg11.dtd">
<!-- Generated by graphviz version 2.43.0 (0)
 -->
<!-- Title: EasyKiConverter::NetworkDiagnostic Pages: 1 -->
<svg width="147pt" height="218pt"
 viewBox="0.00 0.00 147.00 218.00" xmlns="http://www.w3.org/2000/svg" xmlns:xlink="http://www.w3.org/1999/xlink">
<g id="graph0" class="graph" transform="scale(1 1) rotate(0) translate(4 214)">
<title>EasyKiConverter::NetworkDiagnostic</title>
<!-- Node1 -->
<g id="Node000001" class="node">
<title>Node1</title>
<g id="a_Node000001"><a xlink:title="网络请求的统一诊断信息">
<polygon fill="#999999" stroke="transparent" points="139,-210 0,-210 0,0 139,0 139,-210"/>
<text text-anchor="start" x="5.5" y="-198" font-family="Helvetica,sans-Serif" font-size="10.00">EasyKiConverter::Network</text>
<text text-anchor="start" x="44" y="-187" font-family="Helvetica,sans-Serif" font-size="10.00">Diagnostic</text>
<text text-anchor="start" x="10.5" y="-172" font-family="Helvetica,sans-Serif" font-size="10.00">+</text>
<text text-anchor="start" x="29.5" y="-172" font-family="Helvetica,sans-Serif" font-size="10.00">url</text>
<text text-anchor="start" x="10.5" y="-157" font-family="Helvetica,sans-Serif" font-size="10.00">+</text>
<text text-anchor="start" x="29.5" y="-157" font-family="Helvetica,sans-Serif" font-size="10.00">host</text>
<text text-anchor="start" x="10.5" y="-142" font-family="Helvetica,sans-Serif" font-size="10.00">+</text>
<text text-anchor="start" x="29.5" y="-142" font-family="Helvetica,sans-Serif" font-size="10.00">resourceType</text>
<text text-anchor="start" x="10.5" y="-127" font-family="Helvetica,sans-Serif" font-size="10.00">+</text>
<text text-anchor="start" x="29.5" y="-127" font-family="Helvetica,sans-Serif" font-size="10.00">profileName</text>
<text text-anchor="start" x="10.5" y="-112" font-family="Helvetica,sans-Serif" font-size="10.00">+</text>
<text text-anchor="start" x="29.5" y="-112" font-family="Helvetica,sans-Serif" font-size="10.00">statusCode</text>
<text text-anchor="start" x="10.5" y="-97" font-family="Helvetica,sans-Serif" font-size="10.00">+</text>
<text text-anchor="start" x="29.5" y="-97" font-family="Helvetica,sans-Serif" font-size="10.00">errorType</text>
<text text-anchor="start" x="10.5" y="-82" font-family="Helvetica,sans-Serif" font-size="10.00">+</text>
<text text-anchor="start" x="29.5" y="-82" font-family="Helvetica,sans-Serif" font-size="10.00">errorMessage</text>
<text text-anchor="start" x="10.5" y="-67" font-family="Helvetica,sans-Serif" font-size="10.00">+</text>
<text text-anchor="start" x="29.5" y="-67" font-family="Helvetica,sans-Serif" font-size="10.00">retryCount</text>
<text text-anchor="start" x="10.5" y="-52" font-family="Helvetica,sans-Serif" font-size="10.00">+</text>
<text text-anchor="start" x="29.5" y="-52" font-family="Helvetica,sans-Serif" font-size="10.00">latencyMs</text>
<text text-anchor="start" x="10.5" y="-37" font-family="Helvetica,sans-Serif" font-size="10.00">+</text>
<text text-anchor="start" x="29.5" y="-37" font-family="Helvetica,sans-Serif" font-size="10.00">totalElapsedMs</text>
<text text-anchor="start" x="29.5" y="-22" font-family="Helvetica,sans-Serif" font-size="10.00">和 10 更多...</text>
<text text-anchor="start" x="10.5" y="-7" font-family="Helvetica,sans-Serif" font-size="10.00">+</text>
<text text-anchor="start" x="29.5" y="-7" font-family="Helvetica,sans-Serif" font-size="10.00">errorTypeToString()</text>
<polygon fill="#666666" stroke="#666666" points="0.5,-182 0.5,-182 139.5,-182 139.5,-182 0.5,-182"/>
<polygon fill="#666666" stroke="#666666" points="0.5,-17 0.5,-17 27.5,-17 27.5,-17 0.5,-17"/>
<polygon fill="#666666" stroke="#666666" points="27.5,-17 27.5,-17 139.5,-17 139.5,-17 27.5,-17"/>
<polygon fill="none" stroke="#666666" points="0,0 0,-210 139,-210 139,0 0,0"/>
</a>
</g>
</g>
</g>
</svg>
