<?xml version="1.0" encoding="UTF-8" standalone="no"?>
<!DOCTYPE svg PUBLIC "-//W3C//DTD SVG 1.1//EN"
 "http://www.w3.org/Graphics/SVG/1.1/DTD/svg11.dtd">
<!-- Generated by graphviz version 2.43.0 (0)
 -->
<!-- Title: EasyKiConverter::GeometryUtils::SvgArcResult Pages: 1 -->
<svg width="154pt" height="291pt"
 viewBox="0.00 0.00 154.00 291.00" xmlns="http://www.w3.org/2000/svg" xmlns:xlink="http://www.w3.org/1999/xlink">
<g id="graph0" class="graph" transform="scale(1 1) rotate(0) translate(4 287)">
<title>EasyKiConverter::GeometryUtils::SvgArcResult</title>
<!-- Node1 -->
<g id="Node000001" class="node">
<title>Node1</title>
<g id="a_Node000001"><a xlink:title="SVG 弧计算结果结构体">
<polygon fill="#999999" stroke="transparent" points="146,-150 0,-150 0,0 146,0 146,-150"/>
<text text-anchor="start" x="5" y="-138" font-family="Helvetica,sans-Serif" font-size="10.00">EasyKiConverter::Geometry</text>
<text text-anchor="start" x="26" y="-127" font-family="Helvetica,sans-Serif" font-size="10.00">Utils::SvgArcResult</text>
<text text-anchor="start" x="17" y="-112" font-family="Helvetica,sans-Serif" font-size="10.00">+</text>
<text text-anchor="start" x="43" y="-112" font-family="Helvetica,sans-Serif" font-size="10.00">cx</text>
<text text-anchor="start" x="17" y="-97" font-family="Helvetica,sans-Serif" font-size="10.00">+</text>
<text text-anchor="start" x="43" y="-97" font-family="Helvetica,sans-Serif" font-size="10.00">cy</text>
<text text-anchor="start" x="17" y="-82" font-family="Helvetica,sans-Serif" font-size="10.00">+</text>
<text text-anchor="start" x="43" y="-82" font-family="Helvetica,sans-Serif" font-size="10.00">rx</text>
<text text-anchor="start" x="17" y="-67" font-family="Helvetica,sans-Serif" font-size="10.00">+</text>
<text text-anchor="start" x="43" y="-67" font-family="Helvetica,sans-Serif" font-size="10.00">ry</text>
<text text-anchor="start" x="17" y="-52" font-family="Helvetica,sans-Serif" font-size="10.00">+</text>
<text text-anchor="start" x="43" y="-52" font-family="Helvetica,sans-Serif" font-size="10.00">startAngle</text>
<text text-anchor="start" x="17" y="-37" font-family="Helvetica,sans-Serif" font-size="10.00">+</text>
<text text-anchor="start" x="43" y="-37" font-family="Helvetica,sans-Serif" font-size="10.00">deltaAngle</text>
<text text-anchor="start" x="17" y="-22" font-family="Helvetica,sans-Serif" font-size="10.00">+</text>
<text text-anchor="start" x="43" y="-22" font-family="Helvetica,sans-Serif" font-size="10.00">xRotate</text>
<text text-anchor="start" x="17" y="-7" font-family="Helvetica,sans-Serif" font-size="10.00">+</text>
<text text-anchor="start" x="43" y="-7" font-family="Helvetica,sans-Serif" font-size="10.00">SvgArcResult()</text>
<polygon fill="#666666" stroke="#666666" points="0,-122 0,-122 146,-122 146,-122 0,-122"/>
<polygon fill="#666666" stroke="#666666" points="0,-17 0,-17 41,-17 41,-17 0,-17"/>
<polygon fill="#666666" stroke="#666666" points="41,-17 41,-17 146,-17 146,-17 41,-17"/>
<polygon fill="none" stroke="#666666" points="0,0 0,-150 146,-150 146,0 0,0"/>
</a>
</g>
</g>
<!-- Node2 -->
<g id="Node000002" class="node">
<title>Node2</title>
<g id="a_Node000002"><a xlink:href="structEasyKiConverter_1_1GeometryUtils_1_1SvgPoint.html" target="_top" xlink:title="SVG 点结构体">
<polygon fill="white" stroke="transparent" points="146,-283 0,-283 0,-208 146,-208 146,-283"/>
<text text-anchor="start" x="5" y="-270.5" font-family="Helvetica,sans-Serif" font-size="10.00">EasyKiConverter::Geometry</text>
<text text-anchor="start" x="37" y="-259.5" font-family="Helvetica,sans-Serif" font-size="10.00">Utils::SvgPoint</text>
<text text-anchor="start" x="22.5" y="-244.5" font-family="Helvetica,sans-Serif" font-size="10.00">+</text>
<text text-anchor="start" x="54" y="-244.5" font-family="Helvetica,sans-Serif" font-size="10.00">x</text>
<text text-anchor="start" x="22.5" y="-229.5" font-family="Helvetica,sans-Serif" font-size="10.00">+</text>
<text text-anchor="start" x="54" y="-229.5" font-family="Helvetica,sans-Serif" font-size="10.00">y</text>
<text text-anchor="start" x="22.5" y="-214.5" font-family="Helvetica,sans-Serif" font-size="10.00">+</text>
<text text-anchor="start" x="54" y="-214.5" font-family="Helvetica,sans-Serif" font-size="10.00">SvgPoint()</text>
<polygon fill="#666666" stroke="#666666" points="0,-254.5 0,-254.5 146,-254.5 146,-254.5 0,-254.5"/>
<polygon fill="#666666" stroke="#666666" points="0,-224.5 0,-224.5 52,-224.5 52,-224.5 0,-224.5"/>
<polygon fill="#666666" stroke="#666666" points="52,-224.5 52,-224.5 146,-224.5 146,-224.5 52,-224.5"/>
<polygon fill="none" stroke="#666666" points="0,-208 0,-283 146,-283 146,-208 0,-208"/>
</a>
</g>
</g>
<!-- Node2&#45;&gt;Node1 -->
<g id="edge1_Node000001_Node000002" class="edge">
<title>Node2&#45;&gt;Node1</title>
<g id="a_edge1_Node000001_Node000002"><a xlink:title=" ">
<path fill="none" stroke="#63b8ff" d="M73,-207.94C73,-194.44 73,-178.51 73,-162.47"/>
<polygon fill="none" stroke="#63b8ff" points="73,-162.22 69,-156.22 73,-150.22 77,-156.22 73,-162.22"/>
</a>
</g>
<text text-anchor="middle" x="93.5" y="-182" font-family="Helvetica,sans-Serif" font-size="10.00" fill="grey"> +endPt</text>
<text text-anchor="middle" x="93.5" y="-171" font-family="Helvetica,sans-Serif" font-size="10.00" fill="grey">+startPt</text>
</g>
</g>
</svg>
