<?xml version="1.0" encoding="UTF-8" standalone="no"?>
<!DOCTYPE svg PUBLIC "-//W3C//DTD SVG 1.1//EN"
 "http://www.w3.org/Graphics/SVG/1.1/DTD/svg11.dtd">
<!-- Generated by graphviz version 2.43.0 (0)
 -->
<!-- Title: EasyKiConverter::ObjectVisibility Pages: 1 -->
<svg width="180pt" height="87pt"
 viewBox="0.00 0.00 180.00 87.00" xmlns="http://www.w3.org/2000/svg" xmlns:xlink="http://www.w3.org/1999/xlink">
<g id="graph0" class="graph" transform="scale(1 1) rotate(0) translate(4 83)">
<title>EasyKiConverter::ObjectVisibility</title>
<!-- Node1 -->
<g id="Node000001" class="node">
<title>Node1</title>
<g id="a_Node000001"><a xlink:title="对象类型可见性配">
<polygon fill="#999999" stroke="transparent" points="172,-79 0,-79 0,0 172,0 172,-79"/>
<text text-anchor="start" x="5" y="-66.5" font-family="Helvetica,sans-Serif" font-size="10.00">EasyKiConverter::ObjectVisibility</text>
<text text-anchor="start" x="28.5" y="-51.5" font-family="Helvetica,sans-Serif" font-size="10.00">+</text>
<text text-anchor="start" x="66" y="-51.5" font-family="Helvetica,sans-Serif" font-size="10.00">objectType</text>
<text text-anchor="start" x="28.5" y="-36.5" font-family="Helvetica,sans-Serif" font-size="10.00">+</text>
<text text-anchor="start" x="66" y="-36.5" font-family="Helvetica,sans-Serif" font-size="10.00">isEnabled</text>
<text text-anchor="start" x="28.5" y="-21.5" font-family="Helvetica,sans-Serif" font-size="10.00">+</text>
<text text-anchor="start" x="66" y="-21.5" font-family="Helvetica,sans-Serif" font-size="10.00">isVisible</text>
<text text-anchor="start" x="84" y="-6.5" font-family="Helvetica,sans-Serif" font-size="10.00"> </text>
<polygon fill="#666666" stroke="#666666" points="0,-61.5 0,-61.5 172,-61.5 172,-61.5 0,-61.5"/>
<polygon fill="#666666" stroke="#666666" points="0,-16.5 0,-16.5 64,-16.5 64,-16.5 0,-16.5"/>
<polygon fill="#666666" stroke="#666666" points="64,-16.5 64,-16.5 172,-16.5 172,-16.5 64,-16.5"/>
<polygon fill="none" stroke="#666666" points="0,0 0,-79 172,-79 172,0 0,0"/>
</a>
</g>
</g>
</g>
</svg>
