<?xml version="1.0" encoding="UTF-8" standalone="no"?>
<!DOCTYPE svg PUBLIC "-//W3C//DTD SVG 1.1//EN"
 "http://www.w3.org/Graphics/SVG/1.1/DTD/svg11.dtd">
<!-- Generated by graphviz version 2.43.0 (0)
 -->
<!-- Title: EasyKiConverter::FootprintText Pages: 1 -->
<svg width="169pt" height="252pt"
 viewBox="0.00 0.00 169.00 252.00" xmlns="http://www.w3.org/2000/svg" xmlns:xlink="http://www.w3.org/1999/xlink">
<g id="graph0" class="graph" transform="scale(1 1) rotate(0) translate(4 248)">
<title>EasyKiConverter::FootprintText</title>
<!-- Node1 -->
<g id="Node000001" class="node">
<title>Node1</title>
<g id="a_Node000001"><a xlink:title=" ">
<polygon fill="#999999" stroke="transparent" points="161,-244 0,-244 0,0 161,0 161,-244"/>
<text text-anchor="start" x="5.5" y="-232" font-family="Helvetica,sans-Serif" font-size="10.00">EasyKiConverter::FootprintText</text>
<text text-anchor="start" x="24.5" y="-217" font-family="Helvetica,sans-Serif" font-size="10.00">+</text>
<text text-anchor="start" x="57.5" y="-217" font-family="Helvetica,sans-Serif" font-size="10.00">type</text>
<text text-anchor="start" x="24.5" y="-202" font-family="Helvetica,sans-Serif" font-size="10.00">+</text>
<text text-anchor="start" x="57.5" y="-202" font-family="Helvetica,sans-Serif" font-size="10.00">centerX</text>
<text text-anchor="start" x="24.5" y="-187" font-family="Helvetica,sans-Serif" font-size="10.00">+</text>
<text text-anchor="start" x="57.5" y="-187" font-family="Helvetica,sans-Serif" font-size="10.00">centerY</text>
<text text-anchor="start" x="24.5" y="-172" font-family="Helvetica,sans-Serif" font-size="10.00">+</text>
<text text-anchor="start" x="57.5" y="-172" font-family="Helvetica,sans-Serif" font-size="10.00">strokeWidth</text>
<text text-anchor="start" x="24.5" y="-157" font-family="Helvetica,sans-Serif" font-size="10.00">+</text>
<text text-anchor="start" x="57.5" y="-157" font-family="Helvetica,sans-Serif" font-size="10.00">rotation</text>
<text text-anchor="start" x="24.5" y="-142" font-family="Helvetica,sans-Serif" font-size="10.00">+</text>
<text text-anchor="start" x="57.5" y="-142" font-family="Helvetica,sans-Serif" font-size="10.00">mirror</text>
<text text-anchor="start" x="24.5" y="-127" font-family="Helvetica,sans-Serif" font-size="10.00">+</text>
<text text-anchor="start" x="57.5" y="-127" font-family="Helvetica,sans-Serif" font-size="10.00">layerId</text>
<text text-anchor="start" x="24.5" y="-112" font-family="Helvetica,sans-Serif" font-size="10.00">+</text>
<text text-anchor="start" x="57.5" y="-112" font-family="Helvetica,sans-Serif" font-size="10.00">net</text>
<text text-anchor="start" x="24.5" y="-97" font-family="Helvetica,sans-Serif" font-size="10.00">+</text>
<text text-anchor="start" x="57.5" y="-97" font-family="Helvetica,sans-Serif" font-size="10.00">fontSize</text>
<text text-anchor="start" x="24.5" y="-82" font-family="Helvetica,sans-Serif" font-size="10.00">+</text>
<text text-anchor="start" x="57.5" y="-82" font-family="Helvetica,sans-Serif" font-size="10.00">text</text>
<text text-anchor="start" x="24.5" y="-67" font-family="Helvetica,sans-Serif" font-size="10.00">+</text>
<text text-anchor="start" x="57.5" y="-67" font-family="Helvetica,sans-Serif" font-size="10.00">textPath</text>
<text text-anchor="start" x="24.5" y="-52" font-family="Helvetica,sans-Serif" font-size="10.00">+</text>
<text text-anchor="start" x="57.5" y="-52" font-family="Helvetica,sans-Serif" font-size="10.00">isDisplayed</text>
<text text-anchor="start" x="24.5" y="-37" font-family="Helvetica,sans-Serif" font-size="10.00">+</text>
<text text-anchor="start" x="57.5" y="-37" font-family="Helvetica,sans-Serif" font-size="10.00">id</text>
<text text-anchor="start" x="24.5" y="-22" font-family="Helvetica,sans-Serif" font-size="10.00">+</text>
<text text-anchor="start" x="57.5" y="-22" font-family="Helvetica,sans-Serif" font-size="10.00">isLocked</text>
<text text-anchor="start" x="79" y="-7" font-family="Helvetica,sans-Serif" font-size="10.00"> </text>
<polygon fill="#666666" stroke="#666666" points="0.5,-227 0.5,-227 161.5,-227 161.5,-227 0.5,-227"/>
<polygon fill="#666666" stroke="#666666" points="0.5,-17 0.5,-17 55.5,-17 55.5,-17 0.5,-17"/>
<polygon fill="#666666" stroke="#666666" points="55.5,-17 55.5,-17 161.5,-17 161.5,-17 55.5,-17"/>
<polygon fill="none" stroke="#666666" points="0,0 0,-244 161,-244 161,0 0,0"/>
</a>
</g>
</g>
</g>
</svg>
