<?xml version="1.0" encoding="UTF-8" standalone="no"?>
<!DOCTYPE svg PUBLIC "-//W3C//DTD SVG 1.1//EN"
 "http://www.w3.org/Graphics/SVG/1.1/DTD/svg11.dtd">
<!-- Generated by graphviz version 2.43.0 (0)
 -->
<!-- Title: EasyKiConverter::SymbolArc Pages: 1 -->
<svg width="158pt" height="162pt"
 viewBox="0.00 0.00 158.00 162.00" xmlns="http://www.w3.org/2000/svg" xmlns:xlink="http://www.w3.org/1999/xlink">
<g id="graph0" class="graph" transform="scale(1 1) rotate(0) translate(4 158)">
<title>EasyKiConverter::SymbolArc</title>
<!-- Node1 -->
<g id="Node000001" class="node">
<title>Node1</title>
<g id="a_Node000001"><a xlink:title="圆弧">
<polygon fill="#999999" stroke="transparent" points="150,-154 0,-154 0,0 150,0 150,-154"/>
<text text-anchor="start" x="5" y="-142" font-family="Helvetica,sans-Serif" font-size="10.00">EasyKiConverter::SymbolArc</text>
<text text-anchor="start" x="21.5" y="-127" font-family="Helvetica,sans-Serif" font-size="10.00">+</text>
<text text-anchor="start" x="52" y="-127" font-family="Helvetica,sans-Serif" font-size="10.00">path</text>
<text text-anchor="start" x="21.5" y="-112" font-family="Helvetica,sans-Serif" font-size="10.00">+</text>
<text text-anchor="start" x="52" y="-112" font-family="Helvetica,sans-Serif" font-size="10.00">helperDots</text>
<text text-anchor="start" x="21.5" y="-97" font-family="Helvetica,sans-Serif" font-size="10.00">+</text>
<text text-anchor="start" x="52" y="-97" font-family="Helvetica,sans-Serif" font-size="10.00">strokeColor</text>
<text text-anchor="start" x="21.5" y="-82" font-family="Helvetica,sans-Serif" font-size="10.00">+</text>
<text text-anchor="start" x="52" y="-82" font-family="Helvetica,sans-Serif" font-size="10.00">strokeWidth</text>
<text text-anchor="start" x="21.5" y="-67" font-family="Helvetica,sans-Serif" font-size="10.00">+</text>
<text text-anchor="start" x="52" y="-67" font-family="Helvetica,sans-Serif" font-size="10.00">strokeStyle</text>
<text text-anchor="start" x="21.5" y="-52" font-family="Helvetica,sans-Serif" font-size="10.00">+</text>
<text text-anchor="start" x="52" y="-52" font-family="Helvetica,sans-Serif" font-size="10.00">fillColor</text>
<text text-anchor="start" x="21.5" y="-37" font-family="Helvetica,sans-Serif" font-size="10.00">+</text>
<text text-anchor="start" x="52" y="-37" font-family="Helvetica,sans-Serif" font-size="10.00">id</text>
<text text-anchor="start" x="21.5" y="-22" font-family="Helvetica,sans-Serif" font-size="10.00">+</text>
<text text-anchor="start" x="52" y="-22" font-family="Helvetica,sans-Serif" font-size="10.00">isLocked</text>
<text text-anchor="start" x="73" y="-7" font-family="Helvetica,sans-Serif" font-size="10.00"> </text>
<polygon fill="#666666" stroke="#666666" points="0,-137 0,-137 150,-137 150,-137 0,-137"/>
<polygon fill="#666666" stroke="#666666" points="0,-17 0,-17 50,-17 50,-17 0,-17"/>
<polygon fill="#666666" stroke="#666666" points="50,-17 50,-17 150,-17 150,-17 50,-17"/>
<polygon fill="none" stroke="#666666" points="0,0 0,-154 150,-154 150,0 0,0"/>
</a>
</g>
</g>
</g>
</svg>
