<?xml version="1.0" encoding="UTF-8" standalone="no"?>
<!DOCTYPE svg PUBLIC "-//W3C//DTD SVG 1.1//EN"
 "http://www.w3.org/Graphics/SVG/1.1/DTD/svg11.dtd">
<!-- Generated by graphviz version 2.43.0 (0)
 -->
<!-- Title: EasyKiConverter::CadFetchTaskResult Pages: 1 -->
<svg width="187pt" height="646pt"
 viewBox="0.00 0.00 186.50 646.00" xmlns="http://www.w3.org/2000/svg" xmlns:xlink="http://www.w3.org/1999/xlink">
<g id="graph0" class="graph" transform="scale(1 1) rotate(0) translate(4 642)">
<title>EasyKiConverter::CadFetchTaskResult</title>
<!-- Node1 -->
<g id="Node000001" class="node">
<title>Node1</title>
<g id="a_Node000001"><a xlink:title=" ">
<polygon fill="#999999" stroke="transparent" points="160,-90 17,-90 17,0 160,0 160,-90"/>
<text text-anchor="start" x="22.5" y="-78" font-family="Helvetica,sans-Serif" font-size="10.00">EasyKiConverter::CadFetch</text>
<text text-anchor="start" x="62.5" y="-67" font-family="Helvetica,sans-Serif" font-size="10.00">TaskResult</text>
<text text-anchor="start" x="35" y="-52" font-family="Helvetica,sans-Serif" font-size="10.00">+</text>
<text text-anchor="start" x="61.5" y="-52" font-family="Helvetica,sans-Serif" font-size="10.00">componentId</text>
<text text-anchor="start" x="35" y="-37" font-family="Helvetica,sans-Serif" font-size="10.00">+</text>
<text text-anchor="start" x="61.5" y="-37" font-family="Helvetica,sans-Serif" font-size="10.00">errorMessage</text>
<text text-anchor="start" x="35" y="-22" font-family="Helvetica,sans-Serif" font-size="10.00">+</text>
<text text-anchor="start" x="61.5" y="-22" font-family="Helvetica,sans-Serif" font-size="10.00">success</text>
<text text-anchor="start" x="87" y="-7" font-family="Helvetica,sans-Serif" font-size="10.00"> </text>
<polygon fill="#666666" stroke="#666666" points="17.5,-62 17.5,-62 160.5,-62 160.5,-62 17.5,-62"/>
<polygon fill="#666666" stroke="#666666" points="17.5,-17 17.5,-17 59.5,-17 59.5,-17 17.5,-17"/>
<polygon fill="#666666" stroke="#666666" points="59.5,-17 59.5,-17 160.5,-17 160.5,-17 59.5,-17"/>
<polygon fill="none" stroke="#666666" points="17,0 17,-90 160,-90 160,0 17,0"/>
</a>
</g>
</g>
<!-- Node2 -->
<g id="Node000002" class="node">
<title>Node2</title>
<g id="a_Node000002"><a xlink:href="structEasyKiConverter_1_1CadParseResult.html" target="_top" xlink:title=" ">
<polygon fill="white" stroke="transparent" points="160,-242 17,-242 17,-137 160,-137 160,-242"/>
<text text-anchor="start" x="22.5" y="-229.5" font-family="Helvetica,sans-Serif" font-size="10.00">EasyKiConverter::CadParse</text>
<text text-anchor="start" x="73.5" y="-218.5" font-family="Helvetica,sans-Serif" font-size="10.00">Result</text>
<text text-anchor="start" x="35" y="-203.5" font-family="Helvetica,sans-Serif" font-size="10.00">+</text>
<text text-anchor="start" x="61.5" y="-203.5" font-family="Helvetica,sans-Serif" font-size="10.00">componentId</text>
<text text-anchor="start" x="35" y="-188.5" font-family="Helvetica,sans-Serif" font-size="10.00">+</text>
<text text-anchor="start" x="61.5" y="-188.5" font-family="Helvetica,sans-Serif" font-size="10.00">resultData</text>
<text text-anchor="start" x="35" y="-173.5" font-family="Helvetica,sans-Serif" font-size="10.00">+</text>
<text text-anchor="start" x="61.5" y="-173.5" font-family="Helvetica,sans-Serif" font-size="10.00">errorMessage</text>
<text text-anchor="start" x="35" y="-158.5" font-family="Helvetica,sans-Serif" font-size="10.00">+</text>
<text text-anchor="start" x="61.5" y="-158.5" font-family="Helvetica,sans-Serif" font-size="10.00">success</text>
<text text-anchor="start" x="87" y="-143.5" font-family="Helvetica,sans-Serif" font-size="10.00"> </text>
<polygon fill="#666666" stroke="#666666" points="17.5,-213.5 17.5,-213.5 160.5,-213.5 160.5,-213.5 17.5,-213.5"/>
<polygon fill="#666666" stroke="#666666" points="17.5,-153.5 17.5,-153.5 59.5,-153.5 59.5,-153.5 17.5,-153.5"/>
<polygon fill="#666666" stroke="#666666" points="59.5,-153.5 59.5,-153.5 160.5,-153.5 160.5,-153.5 59.5,-153.5"/>
<polygon fill="none" stroke="#666666" points="17,-137 17,-242 160,-242 160,-137 17,-137"/>
</a>
</g>
</g>
<!-- Node2&#45;&gt;Node1 -->
<g id="edge1_Node000001_Node000002" class="edge">
<title>Node2&#45;&gt;Node1</title>
<g id="a_edge1_Node000001_Node000002"><a xlink:title=" ">
<path fill="none" stroke="#63b8ff" d="M88.5,-136.65C88.5,-125.43 88.5,-113.52 88.5,-102.14"/>
<polygon fill="none" stroke="#63b8ff" points="88.5,-102.06 84.5,-96.06 88.5,-90.06 92.5,-96.06 88.5,-102.06"/>
</a>
</g>
<text text-anchor="middle" x="111" y="-111" font-family="Helvetica,sans-Serif" font-size="10.00" fill="grey"> +parsed</text>
</g>
<!-- Node3 -->
<g id="Node000003" class="node">
<title>Node3</title>
<g id="a_Node000003"><a xlink:href="classEasyKiConverter_1_1ComponentData.html" target="_top" xlink:title="元件数据">
<polygon fill="white" stroke="transparent" points="177,-638 0,-638 0,-289 177,-289 177,-638"/>
<text text-anchor="start" x="5.5" y="-625.5" font-family="Helvetica,sans-Serif" font-size="10.00">EasyKiConverter::ComponentData</text>
<text text-anchor="start" x="21" y="-610.5" font-family="Helvetica,sans-Serif" font-size="10.00">&#45;</text>
<text text-anchor="start" x="45.5" y="-610.5" font-family="Helvetica,sans-Serif" font-size="10.00">m_lcscId</text>
<text text-anchor="start" x="21" y="-595.5" font-family="Helvetica,sans-Serif" font-size="10.00">&#45;</text>
<text text-anchor="start" x="45.5" y="-595.5" font-family="Helvetica,sans-Serif" font-size="10.00">m_name</text>
<text text-anchor="start" x="21" y="-580.5" font-family="Helvetica,sans-Serif" font-size="10.00">&#45;</text>
<text text-anchor="start" x="45.5" y="-580.5" font-family="Helvetica,sans-Serif" font-size="10.00">m_prefix</text>
<text text-anchor="start" x="21" y="-565.5" font-family="Helvetica,sans-Serif" font-size="10.00">&#45;</text>
<text text-anchor="start" x="45.5" y="-565.5" font-family="Helvetica,sans-Serif" font-size="10.00">m_package</text>
<text text-anchor="start" x="21" y="-550.5" font-family="Helvetica,sans-Serif" font-size="10.00">&#45;</text>
<text text-anchor="start" x="45.5" y="-550.5" font-family="Helvetica,sans-Serif" font-size="10.00">m_manufacturer</text>
<text text-anchor="start" x="21" y="-535.5" font-family="Helvetica,sans-Serif" font-size="10.00">&#45;</text>
<text text-anchor="start" x="45.5" y="-535.5" font-family="Helvetica,sans-Serif" font-size="10.00">m_manufacturerPart</text>
<text text-anchor="start" x="21" y="-520.5" font-family="Helvetica,sans-Serif" font-size="10.00">&#45;</text>
<text text-anchor="start" x="45.5" y="-520.5" font-family="Helvetica,sans-Serif" font-size="10.00">m_datasheet</text>
<text text-anchor="start" x="21" y="-505.5" font-family="Helvetica,sans-Serif" font-size="10.00">&#45;</text>
<text text-anchor="start" x="45.5" y="-505.5" font-family="Helvetica,sans-Serif" font-size="10.00">m_datasheetData</text>
<text text-anchor="start" x="21" y="-490.5" font-family="Helvetica,sans-Serif" font-size="10.00">&#45;</text>
<text text-anchor="start" x="45.5" y="-490.5" font-family="Helvetica,sans-Serif" font-size="10.00">m_datasheetFormat</text>
<text text-anchor="start" x="21" y="-475.5" font-family="Helvetica,sans-Serif" font-size="10.00">&#45;</text>
<text text-anchor="start" x="45.5" y="-475.5" font-family="Helvetica,sans-Serif" font-size="10.00">m_previewImages</text>
<text text-anchor="start" x="45.5" y="-460.5" font-family="Helvetica,sans-Serif" font-size="10.00">和 7 更多...</text>
<text text-anchor="start" x="18.5" y="-445.5" font-family="Helvetica,sans-Serif" font-size="10.00">+</text>
<text text-anchor="start" x="45.5" y="-445.5" font-family="Helvetica,sans-Serif" font-size="10.00">ComponentData()</text>
<text text-anchor="start" x="18.5" y="-430.5" font-family="Helvetica,sans-Serif" font-size="10.00">+</text>
<text text-anchor="start" x="45.5" y="-430.5" font-family="Helvetica,sans-Serif" font-size="10.00">~ComponentData()</text>
<text text-anchor="start" x="18.5" y="-415.5" font-family="Helvetica,sans-Serif" font-size="10.00">+</text>
<text text-anchor="start" x="45.5" y="-415.5" font-family="Helvetica,sans-Serif" font-size="10.00">lcscId()</text>
<text text-anchor="start" x="18.5" y="-400.5" font-family="Helvetica,sans-Serif" font-size="10.00">+</text>
<text text-anchor="start" x="45.5" y="-400.5" font-family="Helvetica,sans-Serif" font-size="10.00">setLcscId()</text>
<text text-anchor="start" x="18.5" y="-385.5" font-family="Helvetica,sans-Serif" font-size="10.00">+</text>
<text text-anchor="start" x="45.5" y="-385.5" font-family="Helvetica,sans-Serif" font-size="10.00">name()</text>
<text text-anchor="start" x="18.5" y="-370.5" font-family="Helvetica,sans-Serif" font-size="10.00">+</text>
<text text-anchor="start" x="45.5" y="-370.5" font-family="Helvetica,sans-Serif" font-size="10.00">setName()</text>
<text text-anchor="start" x="18.5" y="-355.5" font-family="Helvetica,sans-Serif" font-size="10.00">+</text>
<text text-anchor="start" x="45.5" y="-355.5" font-family="Helvetica,sans-Serif" font-size="10.00">prefix()</text>
<text text-anchor="start" x="18.5" y="-340.5" font-family="Helvetica,sans-Serif" font-size="10.00">+</text>
<text text-anchor="start" x="45.5" y="-340.5" font-family="Helvetica,sans-Serif" font-size="10.00">setPrefix()</text>
<text text-anchor="start" x="18.5" y="-325.5" font-family="Helvetica,sans-Serif" font-size="10.00">+</text>
<text text-anchor="start" x="45.5" y="-325.5" font-family="Helvetica,sans-Serif" font-size="10.00">package()</text>
<text text-anchor="start" x="18.5" y="-310.5" font-family="Helvetica,sans-Serif" font-size="10.00">+</text>
<text text-anchor="start" x="45.5" y="-310.5" font-family="Helvetica,sans-Serif" font-size="10.00">setPackage()</text>
<text text-anchor="start" x="45.5" y="-295.5" font-family="Helvetica,sans-Serif" font-size="10.00">和 33 更多...</text>
<polygon fill="#666666" stroke="#666666" points="0.5,-620.5 0.5,-620.5 177.5,-620.5 177.5,-620.5 0.5,-620.5"/>
<polygon fill="#666666" stroke="#666666" points="0.5,-455.5 0.5,-455.5 43.5,-455.5 43.5,-455.5 0.5,-455.5"/>
<polygon fill="#666666" stroke="#666666" points="43.5,-455.5 43.5,-455.5 177.5,-455.5 177.5,-455.5 43.5,-455.5"/>
<polygon fill="none" stroke="#666666" points="0,-289 0,-638 177,-638 177,-289 0,-289"/>
</a>
</g>
</g>
<!-- Node3&#45;&gt;Node2 -->
<g id="edge2_Node000002_Node000003" class="edge">
<title>Node3&#45;&gt;Node2</title>
<g id="a_edge2_Node000002_Node000003"><a xlink:title=" ">
<path fill="none" stroke="#63b8ff" d="M88.5,-288.7C88.5,-276.65 88.5,-265.03 88.5,-254.26"/>
<polygon fill="none" stroke="#63b8ff" points="88.5,-254.04 84.5,-248.04 88.5,-242.04 92.5,-248.04 88.5,-254.04"/>
</a>
</g>
<text text-anchor="middle" x="133.5" y="-263" font-family="Helvetica,sans-Serif" font-size="10.00" fill="grey"> +componentData</text>
</g>
</g>
</svg>
