<?xml version="1.0" encoding="UTF-8" standalone="no"?>
<!DOCTYPE svg PUBLIC "-//W3C//DTD SVG 1.1//EN"
 "http://www.w3.org/Graphics/SVG/1.1/DTD/svg11.dtd">
<!-- Generated by graphviz version 2.43.0 (0)
 -->
<!-- Title: EasyKiConverter::ExportItemStatus Pages: 1 -->
<svg width="160pt" height="218pt"
 viewBox="0.00 0.00 160.00 218.00" xmlns="http://www.w3.org/2000/svg" xmlns:xlink="http://www.w3.org/1999/xlink">
<g id="graph0" class="graph" transform="scale(1 1) rotate(0) translate(4 214)">
<title>EasyKiConverter::ExportItemStatus</title>
<!-- Node1 -->
<g id="Node000001" class="node">
<title>Node1</title>
<g id="a_Node000001"><a xlink:title="单个导出项的状态信息">
<polygon fill="#999999" stroke="transparent" points="152,-210 0,-210 0,0 152,0 152,-210"/>
<text text-anchor="start" x="5" y="-198" font-family="Helvetica,sans-Serif" font-size="10.00">EasyKiConverter::ExportItem</text>
<text text-anchor="start" x="60.5" y="-187" font-family="Helvetica,sans-Serif" font-size="10.00">Status</text>
<text text-anchor="start" x="17.5" y="-172" font-family="Helvetica,sans-Serif" font-size="10.00">+</text>
<text text-anchor="start" x="44" y="-172" font-family="Helvetica,sans-Serif" font-size="10.00">status</text>
<text text-anchor="start" x="17.5" y="-157" font-family="Helvetica,sans-Serif" font-size="10.00">+</text>
<text text-anchor="start" x="44" y="-157" font-family="Helvetica,sans-Serif" font-size="10.00">errorMessage</text>
<text text-anchor="start" x="17.5" y="-142" font-family="Helvetica,sans-Serif" font-size="10.00">+</text>
<text text-anchor="start" x="44" y="-142" font-family="Helvetica,sans-Serif" font-size="10.00">filePath</text>
<text text-anchor="start" x="17.5" y="-127" font-family="Helvetica,sans-Serif" font-size="10.00">+</text>
<text text-anchor="start" x="44" y="-127" font-family="Helvetica,sans-Serif" font-size="10.00">bytesProcessed</text>
<text text-anchor="start" x="17.5" y="-112" font-family="Helvetica,sans-Serif" font-size="10.00">+</text>
<text text-anchor="start" x="44" y="-112" font-family="Helvetica,sans-Serif" font-size="10.00">totalBytes</text>
<text text-anchor="start" x="17.5" y="-97" font-family="Helvetica,sans-Serif" font-size="10.00">+</text>
<text text-anchor="start" x="44" y="-97" font-family="Helvetica,sans-Serif" font-size="10.00">startTime</text>
<text text-anchor="start" x="17.5" y="-82" font-family="Helvetica,sans-Serif" font-size="10.00">+</text>
<text text-anchor="start" x="44" y="-82" font-family="Helvetica,sans-Serif" font-size="10.00">endTime</text>
<text text-anchor="start" x="17.5" y="-67" font-family="Helvetica,sans-Serif" font-size="10.00">+</text>
<text text-anchor="start" x="44" y="-67" font-family="Helvetica,sans-Serif" font-size="10.00">retryCount</text>
<text text-anchor="start" x="17.5" y="-52" font-family="Helvetica,sans-Serif" font-size="10.00">+</text>
<text text-anchor="start" x="44" y="-52" font-family="Helvetica,sans-Serif" font-size="10.00">isComplete()</text>
<text text-anchor="start" x="17.5" y="-37" font-family="Helvetica,sans-Serif" font-size="10.00">+</text>
<text text-anchor="start" x="44" y="-37" font-family="Helvetica,sans-Serif" font-size="10.00">isSuccess()</text>
<text text-anchor="start" x="17.5" y="-22" font-family="Helvetica,sans-Serif" font-size="10.00">+</text>
<text text-anchor="start" x="44" y="-22" font-family="Helvetica,sans-Serif" font-size="10.00">durationMs()</text>
<text text-anchor="start" x="17.5" y="-7" font-family="Helvetica,sans-Serif" font-size="10.00">+</text>
<text text-anchor="start" x="44" y="-7" font-family="Helvetica,sans-Serif" font-size="10.00">percentage()</text>
<polygon fill="#666666" stroke="#666666" points="0,-182 0,-182 152,-182 152,-182 0,-182"/>
<polygon fill="#666666" stroke="#666666" points="0,-62 0,-62 42,-62 42,-62 0,-62"/>
<polygon fill="#666666" stroke="#666666" points="42,-62 42,-62 152,-62 152,-62 42,-62"/>
<polygon fill="none" stroke="#666666" points="0,0 0,-210 152,-210 152,0 0,0"/>
</a>
</g>
</g>
</g>
</svg>
