<?xml version="1.0" encoding="UTF-8" standalone="no"?>
<!DOCTYPE svg PUBLIC "-//W3C//DTD SVG 1.1//EN"
 "http://www.w3.org/Graphics/SVG/1.1/DTD/svg11.dtd">
<!-- Generated by graphviz version 2.43.0 (0)
 -->
<!-- Title: EasyKiConverter::NetworkClient::MutableResourceStats Pages: 1 -->
<svg width="163pt" height="340pt"
 viewBox="0.00 0.00 163.00 340.00" xmlns="http://www.w3.org/2000/svg" xmlns:xlink="http://www.w3.org/1999/xlink">
<g id="graph0" class="graph" transform="scale(1 1) rotate(0) translate(4 336)">
<title>EasyKiConverter::NetworkClient::MutableResourceStats</title>
<!-- Node1 -->
<g id="Node000001" class="node">
<title>Node1</title>
<g id="a_Node000001"><a xlink:title=" ">
<polygon fill="#999999" stroke="transparent" points="155,-75 0,-75 0,0 155,0 155,-75"/>
<text text-anchor="start" x="5.5" y="-62.5" font-family="Helvetica,sans-Serif" font-size="10.00">EasyKiConverter::Network</text>
<text text-anchor="start" x="5.5" y="-51.5" font-family="Helvetica,sans-Serif" font-size="10.00">Client::MutableResourceStats</text>
<text text-anchor="start" x="13.5" y="-36.5" font-family="Helvetica,sans-Serif" font-size="10.00">+</text>
<text text-anchor="start" x="35.5" y="-36.5" font-family="Helvetica,sans-Serif" font-size="10.00">totalQueueDelayMs</text>
<text text-anchor="start" x="13.5" y="-21.5" font-family="Helvetica,sans-Serif" font-size="10.00">+</text>
<text text-anchor="start" x="35.5" y="-21.5" font-family="Helvetica,sans-Serif" font-size="10.00">totalLatencyMs</text>
<text text-anchor="start" x="76" y="-6.5" font-family="Helvetica,sans-Serif" font-size="10.00"> </text>
<polygon fill="#666666" stroke="#666666" points="0.5,-46.5 0.5,-46.5 155.5,-46.5 155.5,-46.5 0.5,-46.5"/>
<polygon fill="#666666" stroke="#666666" points="0.5,-16.5 0.5,-16.5 33.5,-16.5 33.5,-16.5 0.5,-16.5"/>
<polygon fill="#666666" stroke="#666666" points="33.5,-16.5 33.5,-16.5 155.5,-16.5 155.5,-16.5 33.5,-16.5"/>
<polygon fill="none" stroke="#666666" points="0,0 0,-75 155,-75 155,0 0,0"/>
</a>
</g>
</g>
<!-- Node2 -->
<g id="Node000002" class="node">
<title>Node2</title>
<g id="a_Node000002"><a xlink:href="structEasyKiConverter_1_1NetworkResourceStats.html" target="_top" xlink:title=" ">
<polygon fill="white" stroke="transparent" points="147,-332 8,-332 8,-122 147,-122 147,-332"/>
<text text-anchor="start" x="13.5" y="-320" font-family="Helvetica,sans-Serif" font-size="10.00">EasyKiConverter::Network</text>
<text text-anchor="start" x="43" y="-309" font-family="Helvetica,sans-Serif" font-size="10.00">ResourceStats</text>
<text text-anchor="start" x="15" y="-294" font-family="Helvetica,sans-Serif" font-size="10.00">+</text>
<text text-anchor="start" x="30.5" y="-294" font-family="Helvetica,sans-Serif" font-size="10.00">resourceType</text>
<text text-anchor="start" x="15" y="-279" font-family="Helvetica,sans-Serif" font-size="10.00">+</text>
<text text-anchor="start" x="30.5" y="-279" font-family="Helvetica,sans-Serif" font-size="10.00">profileName</text>
<text text-anchor="start" x="15" y="-264" font-family="Helvetica,sans-Serif" font-size="10.00">+</text>
<text text-anchor="start" x="30.5" y="-264" font-family="Helvetica,sans-Serif" font-size="10.00">queuedRequests</text>
<text text-anchor="start" x="15" y="-249" font-family="Helvetica,sans-Serif" font-size="10.00">+</text>
<text text-anchor="start" x="30.5" y="-249" font-family="Helvetica,sans-Serif" font-size="10.00">activeRequests</text>
<text text-anchor="start" x="15" y="-234" font-family="Helvetica,sans-Serif" font-size="10.00">+</text>
<text text-anchor="start" x="30.5" y="-234" font-family="Helvetica,sans-Serif" font-size="10.00">peakQueuedRequests</text>
<text text-anchor="start" x="15" y="-219" font-family="Helvetica,sans-Serif" font-size="10.00">+</text>
<text text-anchor="start" x="30.5" y="-219" font-family="Helvetica,sans-Serif" font-size="10.00">peakActiveRequests</text>
<text text-anchor="start" x="15" y="-204" font-family="Helvetica,sans-Serif" font-size="10.00">+</text>
<text text-anchor="start" x="30.5" y="-204" font-family="Helvetica,sans-Serif" font-size="10.00">maxConcurrent</text>
<text text-anchor="start" x="15" y="-189" font-family="Helvetica,sans-Serif" font-size="10.00">+</text>
<text text-anchor="start" x="30.5" y="-189" font-family="Helvetica,sans-Serif" font-size="10.00">backpressureEvents</text>
<text text-anchor="start" x="15" y="-174" font-family="Helvetica,sans-Serif" font-size="10.00">+</text>
<text text-anchor="start" x="30.5" y="-174" font-family="Helvetica,sans-Serif" font-size="10.00">startedRequests</text>
<text text-anchor="start" x="15" y="-159" font-family="Helvetica,sans-Serif" font-size="10.00">+</text>
<text text-anchor="start" x="30.5" y="-159" font-family="Helvetica,sans-Serif" font-size="10.00">completedRequests</text>
<text text-anchor="start" x="30.5" y="-144" font-family="Helvetica,sans-Serif" font-size="10.00">和 12 更多...</text>
<text text-anchor="start" x="76" y="-129" font-family="Helvetica,sans-Serif" font-size="10.00"> </text>
<polygon fill="#666666" stroke="#666666" points="8.5,-304 8.5,-304 147.5,-304 147.5,-304 8.5,-304"/>
<polygon fill="#666666" stroke="#666666" points="8.5,-139 8.5,-139 28.5,-139 28.5,-139 8.5,-139"/>
<polygon fill="#666666" stroke="#666666" points="28.5,-139 28.5,-139 147.5,-139 147.5,-139 28.5,-139"/>
<polygon fill="none" stroke="#666666" points="8,-122 8,-332 147,-332 147,-122 8,-122"/>
</a>
</g>
</g>
<!-- Node2&#45;&gt;Node1 -->
<g id="edge1_Node000001_Node000002" class="edge">
<title>Node2&#45;&gt;Node1</title>
<g id="a_edge1_Node000001_Node000002"><a xlink:title=" ">
<path fill="none" stroke="#63b8ff" d="M77.5,-121.83C77.5,-109.84 77.5,-98.07 77.5,-87.33"/>
<polygon fill="none" stroke="#63b8ff" points="77.5,-87.25 73.5,-81.25 77.5,-75.25 81.5,-81.25 77.5,-87.25"/>
</a>
</g>
<text text-anchor="middle" x="105.5" y="-96" font-family="Helvetica,sans-Serif" font-size="10.00" fill="grey"> +snapshot</text>
</g>
</g>
</svg>
