<?xml version="1.0" encoding="UTF-8" standalone="no"?>
<!DOCTYPE svg PUBLIC "-//W3C//DTD SVG 1.1//EN"
 "http://www.w3.org/Graphics/SVG/1.1/DTD/svg11.dtd">
<!-- Generated by graphviz version 2.43.0 (0)
 -->
<!-- Title: core/utils/SvgPathParser.h Pages: 1 -->
<svg width="870pt" height="93pt"
 viewBox="0.00 0.00 870.00 93.00" xmlns="http://www.w3.org/2000/svg" xmlns:xlink="http://www.w3.org/1999/xlink">
<g id="graph0" class="graph" transform="scale(1 1) rotate(0) translate(4 89)">
<title>core/utils/SvgPathParser.h</title>
<!-- Node1 -->
<g id="Node000001" class="node">
<title>Node1</title>
<g id="a_Node000001"><a xlink:title=" ">
<polygon fill="#999999" stroke="#666666" points="512.5,-85 370.5,-85 370.5,-66 512.5,-66 512.5,-85"/>
<text text-anchor="middle" x="441.5" y="-73" font-family="Helvetica,sans-Serif" font-size="10.00">core/utils/SvgPathParser.h</text>
</a>
</g>
</g>
<!-- Node2 -->
<g id="Node000002" class="node">
<title>Node2</title>
<g id="a_Node000002"><a xlink:href="EasyedaSymbolImporter_8cpp.html" target="_top" xlink:title=" ">
<polygon fill="white" stroke="#666666" points="163,-30 0,-30 0,0 163,0 163,-30"/>
<text text-anchor="start" x="8" y="-18" font-family="Helvetica,sans-Serif" font-size="10.00">core/easyeda/EasyedaSymbol</text>
<text text-anchor="middle" x="81.5" y="-7" font-family="Helvetica,sans-Serif" font-size="10.00">Importer.cpp</text>
</a>
</g>
</g>
<!-- Node1&#45;&gt;Node2 -->
<g id="edge1_Node000001_Node000002" class="edge">
<title>Node1&#45;&gt;Node2</title>
<g id="a_edge1_Node000001_Node000002"><a xlink:title=" ">
<path fill="none" stroke="#63b8ff" d="M379.1,-64.36C319.31,-54.64 228.74,-39.93 163.22,-29.28"/>
<polygon fill="#63b8ff" stroke="#63b8ff" points="378.72,-67.84 389.15,-65.99 379.84,-60.93 378.72,-67.84"/>
</a>
</g>
</g>
<!-- Node3 -->
<g id="Node000003" class="node">
<title>Node3</title>
<g id="a_Node000003"><a xlink:href="ExporterSymbol_8cpp.html" target="_top" xlink:title=" ">
<polygon fill="white" stroke="#666666" points="349.5,-24.5 181.5,-24.5 181.5,-5.5 349.5,-5.5 349.5,-24.5"/>
<text text-anchor="middle" x="265.5" y="-12.5" font-family="Helvetica,sans-Serif" font-size="10.00">core/kicad/ExporterSymbol.cpp</text>
</a>
</g>
</g>
<!-- Node1&#45;&gt;Node3 -->
<g id="edge2_Node000001_Node000003" class="edge">
<title>Node1&#45;&gt;Node3</title>
<g id="a_edge2_Node000001_Node000003"><a xlink:title=" ">
<path fill="none" stroke="#63b8ff" d="M406.35,-62.82C372.31,-51.5 321.51,-34.62 291.12,-24.52"/>
<polygon fill="#63b8ff" stroke="#63b8ff" points="405.31,-66.16 415.91,-65.99 407.52,-59.52 405.31,-66.16"/>
</a>
</g>
</g>
<!-- Node4 -->
<g id="Node000004" class="node">
<title>Node4</title>
<g id="a_Node000004"><a xlink:href="SymbolGraphicsGenerator_8cpp.html" target="_top" xlink:title=" ">
<polygon fill="white" stroke="#666666" points="516,-30 367,-30 367,0 516,0 516,-30"/>
<text text-anchor="start" x="375" y="-18" font-family="Helvetica,sans-Serif" font-size="10.00">core/kicad/SymbolGraphics</text>
<text text-anchor="middle" x="441.5" y="-7" font-family="Helvetica,sans-Serif" font-size="10.00">Generator.cpp</text>
</a>
</g>
</g>
<!-- Node1&#45;&gt;Node4 -->
<g id="edge3_Node000001_Node000004" class="edge">
<title>Node1&#45;&gt;Node4</title>
<g id="a_edge3_Node000001_Node000004"><a xlink:title=" ">
<path fill="none" stroke="#63b8ff" d="M441.5,-55.65C441.5,-47.36 441.5,-37.78 441.5,-30.11"/>
<polygon fill="#63b8ff" stroke="#63b8ff" points="438,-55.87 441.5,-65.87 445,-55.87 438,-55.87"/>
</a>
</g>
</g>
<!-- Node5 -->
<g id="Node000005" class="node">
<title>Node5</title>
<g id="a_Node000005"><a xlink:href="GeometryUtils_8cpp.html" target="_top" xlink:title=" ">
<polygon fill="white" stroke="#666666" points="690.5,-24.5 534.5,-24.5 534.5,-5.5 690.5,-5.5 690.5,-24.5"/>
<text text-anchor="middle" x="612.5" y="-12.5" font-family="Helvetica,sans-Serif" font-size="10.00">core/utils/GeometryUtils.cpp</text>
</a>
</g>
</g>
<!-- Node1&#45;&gt;Node5 -->
<g id="edge4_Node000001_Node000005" class="edge">
<title>Node1&#45;&gt;Node5</title>
<g id="a_edge4_Node000001_Node000005"><a xlink:title=" ">
<path fill="none" stroke="#63b8ff" d="M476.08,-62.67C509.15,-51.36 558.21,-34.57 587.61,-24.52"/>
<polygon fill="#63b8ff" stroke="#63b8ff" points="474.69,-59.45 466.36,-65.99 476.96,-66.07 474.69,-59.45"/>
</a>
</g>
</g>
<!-- Node6 -->
<g id="Node000006" class="node">
<title>Node6</title>
<g id="a_Node000006"><a xlink:href="SvgPathParser_8cpp.html" target="_top" xlink:title=" ">
<polygon fill="white" stroke="#666666" points="862,-24.5 709,-24.5 709,-5.5 862,-5.5 862,-24.5"/>
<text text-anchor="middle" x="785.5" y="-12.5" font-family="Helvetica,sans-Serif" font-size="10.00">core/utils/SvgPathParser.cpp</text>
</a>
</g>
</g>
<!-- Node1&#45;&gt;Node6 -->
<g id="edge5_Node000001_Node000006" class="edge">
<title>Node1&#45;&gt;Node6</title>
<g id="a_edge5_Node000001_Node000006"><a xlink:title=" ">
<path fill="none" stroke="#63b8ff" d="M501.41,-64.31C567.7,-53.04 673.36,-35.07 735.42,-24.52"/>
<polygon fill="#63b8ff" stroke="#63b8ff" points="500.79,-60.87 491.52,-65.99 501.97,-67.77 500.79,-60.87"/>
</a>
</g>
</g>
</g>
</svg>
