<?xml version="1.0" encoding="UTF-8" standalone="no"?>
<!DOCTYPE svg PUBLIC "-//W3C//DTD SVG 1.1//EN"
 "http://www.w3.org/Graphics/SVG/1.1/DTD/svg11.dtd">
<!-- Generated by graphviz version 2.43.0 (0)
 -->
<!-- Title: core/utils/SvgPathParser.h Pages: 1 -->
<svg width="514pt" height="93pt"
 viewBox="0.00 0.00 513.50 93.00" xmlns="http://www.w3.org/2000/svg" xmlns:xlink="http://www.w3.org/1999/xlink">
<g id="graph0" class="graph" transform="scale(1 1) rotate(0) translate(4 89)">
<title>core/utils/SvgPathParser.h</title>
<!-- Node1 -->
<g id="Node000001" class="node">
<title>Node1</title>
<g id="a_Node000001"><a xlink:title=" ">
<polygon fill="#999999" stroke="#666666" points="331,-85 189,-85 189,-66 331,-66 331,-85"/>
<text text-anchor="middle" x="260" y="-73" font-family="Helvetica,sans-Serif" font-size="10.00">core/utils/SvgPathParser.h</text>
</a>
</g>
</g>
<!-- Node2 -->
<g id="Node000002" class="node">
<title>Node2</title>
<g id="a_Node000002"><a xlink:href="ExporterSymbol_8cpp.html" target="_top" xlink:title=" ">
<polygon fill="white" stroke="#666666" points="168,-24.5 0,-24.5 0,-5.5 168,-5.5 168,-24.5"/>
<text text-anchor="middle" x="84" y="-12.5" font-family="Helvetica,sans-Serif" font-size="10.00">core/kicad/ExporterSymbol.cpp</text>
</a>
</g>
</g>
<!-- Node1&#45;&gt;Node2 -->
<g id="edge1_Node000001_Node000002" class="edge">
<title>Node1&#45;&gt;Node2</title>
<g id="a_edge1_Node000001_Node000002"><a xlink:title=" ">
<path fill="none" stroke="#63b8ff" d="M224.85,-62.82C190.81,-51.5 140.01,-34.62 109.62,-24.52"/>
<polygon fill="#63b8ff" stroke="#63b8ff" points="223.81,-66.16 234.41,-65.99 226.02,-59.52 223.81,-66.16"/>
</a>
</g>
</g>
<!-- Node3 -->
<g id="Node000003" class="node">
<title>Node3</title>
<g id="a_Node000003"><a xlink:href="SymbolGraphicsGenerator_8cpp.html" target="_top" xlink:title=" ">
<polygon fill="white" stroke="#666666" points="334.5,-30 185.5,-30 185.5,0 334.5,0 334.5,-30"/>
<text text-anchor="start" x="193.5" y="-18" font-family="Helvetica,sans-Serif" font-size="10.00">core/kicad/SymbolGraphics</text>
<text text-anchor="middle" x="260" y="-7" font-family="Helvetica,sans-Serif" font-size="10.00">Generator.cpp</text>
</a>
</g>
</g>
<!-- Node1&#45;&gt;Node3 -->
<g id="edge2_Node000001_Node000003" class="edge">
<title>Node1&#45;&gt;Node3</title>
<g id="a_edge2_Node000001_Node000003"><a xlink:title=" ">
<path fill="none" stroke="#63b8ff" d="M260,-55.65C260,-47.36 260,-37.78 260,-30.11"/>
<polygon fill="#63b8ff" stroke="#63b8ff" points="256.5,-55.87 260,-65.87 263.5,-55.87 256.5,-55.87"/>
</a>
</g>
</g>
<!-- Node4 -->
<g id="Node000004" class="node">
<title>Node4</title>
<g id="a_Node000004"><a xlink:href="SvgPathParser_8cpp.html" target="_top" xlink:title=" ">
<polygon fill="white" stroke="#666666" points="505.5,-24.5 352.5,-24.5 352.5,-5.5 505.5,-5.5 505.5,-24.5"/>
<text text-anchor="middle" x="429" y="-12.5" font-family="Helvetica,sans-Serif" font-size="10.00">core/utils/SvgPathParser.cpp</text>
</a>
</g>
</g>
<!-- Node1&#45;&gt;Node4 -->
<g id="edge3_Node000001_Node000004" class="edge">
<title>Node1&#45;&gt;Node4</title>
<g id="a_edge3_Node000001_Node000004"><a xlink:title=" ">
<path fill="none" stroke="#63b8ff" d="M294.17,-62.67C326.86,-51.36 375.35,-34.57 404.4,-24.52"/>
<polygon fill="#63b8ff" stroke="#63b8ff" points="292.88,-59.41 284.57,-65.99 295.17,-66.03 292.88,-59.41"/>
</a>
</g>
</g>
</g>
</svg>
