<?xml version="1.0" encoding="UTF-8" standalone="no"?>
<!DOCTYPE svg PUBLIC "-//W3C//DTD SVG 1.1//EN"
 "http://www.w3.org/Graphics/SVG/1.1/DTD/svg11.dtd">
<!-- Generated by graphviz version 2.43.0 (0)
 -->
<!-- Title: core/kicad/SymbolGraphicsGenerator.h Pages: 1 -->
<svg width="1242pt" height="434pt"
 viewBox="0.00 0.00 1242.00 434.00" xmlns="http://www.w3.org/2000/svg" xmlns:xlink="http://www.w3.org/1999/xlink">
<g id="graph0" class="graph" transform="scale(1 1) rotate(0) translate(4 430)">
<title>core/kicad/SymbolGraphicsGenerator.h</title>
<!-- Node1 -->
<g id="Node000001" class="node">
<title>Node1</title>
<g id="a_Node000001"><a xlink:title=" ">
<polygon fill="#999999" stroke="#666666" points="667.5,-426 518.5,-426 518.5,-396 667.5,-396 667.5,-426"/>
<text text-anchor="start" x="526.5" y="-414" font-family="Helvetica,sans-Serif" font-size="10.00">core/kicad/SymbolGraphics</text>
<text text-anchor="middle" x="593" y="-403" font-family="Helvetica,sans-Serif" font-size="10.00">Generator.h</text>
</a>
</g>
</g>
<!-- Node2 -->
<g id="Node000002" class="node">
<title>Node2</title>
<g id="a_Node000002"><a xlink:href="ExporterSymbol_8h.html" target="_top" xlink:title=" ">
<polygon fill="white" stroke="#666666" points="586.5,-354.5 429.5,-354.5 429.5,-335.5 586.5,-335.5 586.5,-354.5"/>
<text text-anchor="middle" x="508" y="-342.5" font-family="Helvetica,sans-Serif" font-size="10.00">core/kicad/ExporterSymbol.h</text>
</a>
</g>
</g>
<!-- Node1&#45;&gt;Node2 -->
<g id="edge1_Node000001_Node000002" class="edge">
<title>Node1&#45;&gt;Node2</title>
<g id="a_edge1_Node000001_Node000002"><a xlink:title=" ">
<path fill="none" stroke="#63b8ff" d="M565.89,-389.58C550.33,-377.87 531.6,-363.77 519.75,-354.84"/>
<polygon fill="#63b8ff" stroke="#63b8ff" points="564.04,-392.58 574.14,-395.8 568.25,-386.99 564.04,-392.58"/>
</a>
</g>
</g>
<!-- Node17 -->
<g id="Node000017" class="node">
<title>Node17</title>
<g id="a_Node000017"><a xlink:href="SymbolGraphicsGenerator_8cpp.html" target="_top" xlink:title=" ">
<polygon fill="white" stroke="#666666" points="753.5,-360 604.5,-360 604.5,-330 753.5,-330 753.5,-360"/>
<text text-anchor="start" x="612.5" y="-348" font-family="Helvetica,sans-Serif" font-size="10.00">core/kicad/SymbolGraphics</text>
<text text-anchor="middle" x="679" y="-337" font-family="Helvetica,sans-Serif" font-size="10.00">Generator.cpp</text>
</a>
</g>
</g>
<!-- Node1&#45;&gt;Node17 -->
<g id="edge20_Node000001_Node000017" class="edge">
<title>Node1&#45;&gt;Node17</title>
<g id="a_edge20_Node000001_Node000017"><a xlink:title=" ">
<path fill="none" stroke="#63b8ff" d="M620.21,-389.75C633.14,-380.13 648.29,-368.86 659.97,-360.16"/>
<polygon fill="#63b8ff" stroke="#63b8ff" points="618.02,-387.02 612.09,-395.8 622.2,-392.63 618.02,-387.02"/>
</a>
</g>
</g>
<!-- Node3 -->
<g id="Node000003" class="node">
<title>Node3</title>
<g id="a_Node000003"><a xlink:href="ExporterSymbol_8cpp.html" target="_top" xlink:title=" ">
<polygon fill="white" stroke="#666666" points="168,-288.5 0,-288.5 0,-269.5 168,-269.5 168,-288.5"/>
<text text-anchor="middle" x="84" y="-276.5" font-family="Helvetica,sans-Serif" font-size="10.00">core/kicad/ExporterSymbol.cpp</text>
</a>
</g>
</g>
<!-- Node2&#45;&gt;Node3 -->
<g id="edge2_Node000002_Node000003" class="edge">
<title>Node2&#45;&gt;Node3</title>
<g id="a_edge2_Node000002_Node000003"><a xlink:title=" ">
<path fill="none" stroke="#63b8ff" d="M441.18,-333.91C358.23,-321.39 218.21,-300.26 140.41,-288.51"/>
<polygon fill="#63b8ff" stroke="#63b8ff" points="440.85,-337.4 451.26,-335.44 441.89,-330.48 440.85,-337.4"/>
</a>
</g>
</g>
<!-- Node4 -->
<g id="Node000004" class="node">
<title>Node4</title>
<g id="a_Node000004"><a xlink:href="ComponentExportTask_8cpp.html" target="_top" xlink:title=" ">
<polygon fill="white" stroke="#666666" points="334,-294 186,-294 186,-264 334,-264 334,-294"/>
<text text-anchor="start" x="194" y="-282" font-family="Helvetica,sans-Serif" font-size="10.00">services/ComponentExport</text>
<text text-anchor="middle" x="260" y="-271" font-family="Helvetica,sans-Serif" font-size="10.00">Task.cpp</text>
</a>
</g>
</g>
<!-- Node2&#45;&gt;Node4 -->
<g id="edge3_Node000002_Node000004" class="edge">
<title>Node2&#45;&gt;Node4</title>
<g id="a_edge3_Node000002_Node000004"><a xlink:title=" ">
<path fill="none" stroke="#63b8ff" d="M464.94,-332.89C423.16,-322.1 359.59,-305.7 314.35,-294.02"/>
<polygon fill="#63b8ff" stroke="#63b8ff" points="464.25,-336.33 474.81,-335.44 466,-329.55 464.25,-336.33"/>
</a>
</g>
</g>
<!-- Node5 -->
<g id="Node000005" class="node">
<title>Node5</title>
<g id="a_Node000005"><a xlink:href="ExportService_8cpp.html" target="_top" xlink:title=" ">
<polygon fill="white" stroke="#666666" points="500,-288.5 352,-288.5 352,-269.5 500,-269.5 500,-288.5"/>
<text text-anchor="middle" x="426" y="-276.5" font-family="Helvetica,sans-Serif" font-size="10.00">services/ExportService.cpp</text>
</a>
</g>
</g>
<!-- Node2&#45;&gt;Node5 -->
<g id="edge4_Node000002_Node000005" class="edge">
<title>Node2&#45;&gt;Node5</title>
<g id="a_edge4_Node000002_Node000005"><a xlink:title=" ">
<path fill="none" stroke="#63b8ff" d="M488.77,-328.99C472.71,-316.46 450.39,-299.04 437.15,-288.7"/>
<polygon fill="#63b8ff" stroke="#63b8ff" points="486.9,-331.98 496.94,-335.37 491.21,-326.46 486.9,-331.98"/>
</a>
</g>
</g>
<!-- Node6 -->
<g id="Node000006" class="node">
<title>Node6</title>
<g id="a_Node000006"><a xlink:href="ExportWorker_8cpp.html" target="_top" xlink:title=" ">
<polygon fill="white" stroke="#666666" points="661.5,-288.5 518.5,-288.5 518.5,-269.5 661.5,-269.5 661.5,-288.5"/>
<text text-anchor="middle" x="590" y="-276.5" font-family="Helvetica,sans-Serif" font-size="10.00">workers/ExportWorker.cpp</text>
</a>
</g>
</g>
<!-- Node2&#45;&gt;Node6 -->
<g id="edge5_Node000002_Node000006" class="edge">
<title>Node2&#45;&gt;Node6</title>
<g id="a_edge5_Node000002_Node000006"><a xlink:title=" ">
<path fill="none" stroke="#63b8ff" d="M527.23,-328.99C543.29,-316.46 565.61,-299.04 578.85,-288.7"/>
<polygon fill="#63b8ff" stroke="#63b8ff" points="524.79,-326.46 519.06,-335.37 529.1,-331.98 524.79,-326.46"/>
</a>
</g>
</g>
<!-- Node7 -->
<g id="Node000007" class="node">
<title>Node7</title>
<g id="a_Node000007"><a xlink:href="WriteWorker_8cpp.html" target="_top" xlink:title=" ">
<polygon fill="white" stroke="#666666" points="757.5,-222.5 620.5,-222.5 620.5,-203.5 757.5,-203.5 757.5,-222.5"/>
<text text-anchor="middle" x="689" y="-210.5" font-family="Helvetica,sans-Serif" font-size="10.00">workers/WriteWorker.cpp</text>
</a>
</g>
</g>
<!-- Node2&#45;&gt;Node7 -->
<g id="edge6_Node000002_Node000007" class="edge">
<title>Node2&#45;&gt;Node7</title>
<g id="a_edge6_Node000002_Node000007"><a xlink:title=" ">
<path fill="none" stroke="#63b8ff" d="M562.38,-333.27C603.43,-324.09 655.14,-309.88 670,-294 688.73,-273.99 690.05,-238.99 689.54,-222.75"/>
<polygon fill="#63b8ff" stroke="#63b8ff" points="561.49,-329.88 552.47,-335.43 562.99,-336.72 561.49,-329.88"/>
</a>
</g>
</g>
<!-- Node8 -->
<g id="Node000008" class="node">
<title>Node8</title>
<g id="a_Node000008"><a xlink:href="WriteWorker_8h.html" target="_top" xlink:title=" ">
<polygon fill="white" stroke="#666666" points="847,-288.5 721,-288.5 721,-269.5 847,-269.5 847,-288.5"/>
<text text-anchor="middle" x="784" y="-276.5" font-family="Helvetica,sans-Serif" font-size="10.00">workers/WriteWorker.h</text>
</a>
</g>
</g>
<!-- Node2&#45;&gt;Node8 -->
<g id="edge7_Node000002_Node000008" class="edge">
<title>Node2&#45;&gt;Node8</title>
<g id="a_edge7_Node000002_Node000008"><a xlink:title=" ">
<path fill="none" stroke="#63b8ff" d="M555,-333.1C609.37,-320.49 697.72,-300.01 747.28,-288.51"/>
<polygon fill="#63b8ff" stroke="#63b8ff" points="553.89,-329.77 544.94,-335.44 555.47,-336.59 553.89,-329.77"/>
</a>
</g>
</g>
<!-- Node8&#45;&gt;Node7 -->
<g id="edge19_Node000008_Node000007" class="edge">
<title>Node8&#45;&gt;Node7</title>
<g id="a_edge19_Node000008_Node000007"><a xlink:title=" ">
<path fill="none" stroke="#63b8ff" d="M762.74,-263.68C744.08,-251.11 717.54,-233.23 701.91,-222.7"/>
<polygon fill="#63b8ff" stroke="#63b8ff" points="760.94,-266.68 771.19,-269.37 764.85,-260.88 760.94,-266.68"/>
</a>
</g>
</g>
<!-- Node9 -->
<g id="Node000009" class="node">
<title>Node9</title>
<g id="a_Node000009"><a xlink:href="ExportService__Pipeline_8cpp.html" target="_top" xlink:title=" ">
<polygon fill="white" stroke="#666666" points="796,-96 668,-96 668,-66 796,-66 796,-96"/>
<text text-anchor="start" x="676" y="-84" font-family="Helvetica,sans-Serif" font-size="10.00">services/ExportService</text>
<text text-anchor="middle" x="732" y="-73" font-family="Helvetica,sans-Serif" font-size="10.00">_Pipeline.cpp</text>
</a>
</g>
</g>
<!-- Node8&#45;&gt;Node9 -->
<g id="edge8_Node000008_Node000009" class="edge">
<title>Node8&#45;&gt;Node9</title>
<g id="a_edge8_Node000008_Node000009"><a xlink:title=" ">
<path fill="none" stroke="#63b8ff" d="M780.46,-259.19C777.29,-242.91 772.33,-218.78 767,-198 757.48,-160.92 743.81,-117.93 736.7,-96.18"/>
<polygon fill="#63b8ff" stroke="#63b8ff" points="777.04,-259.9 782.35,-269.06 783.91,-258.59 777.04,-259.9"/>
</a>
</g>
</g>
<!-- Node10 -->
<g id="Node000010" class="node">
<title>Node10</title>
<g id="a_Node000010"><a xlink:href="WriteStageHandler_8h.html" target="_top" xlink:title=" ">
<polygon fill="white" stroke="#666666" points="970.5,-228 841.5,-228 841.5,-198 970.5,-198 970.5,-228"/>
<text text-anchor="start" x="849.5" y="-216" font-family="Helvetica,sans-Serif" font-size="10.00">services/pipeline/stage</text>
<text text-anchor="middle" x="906" y="-205" font-family="Helvetica,sans-Serif" font-size="10.00">/WriteStageHandler.h</text>
</a>
</g>
</g>
<!-- Node8&#45;&gt;Node10 -->
<g id="edge9_Node000008_Node000010" class="edge">
<title>Node8&#45;&gt;Node10</title>
<g id="a_edge9_Node000008_Node000010"><a xlink:title=" ">
<path fill="none" stroke="#63b8ff" d="M809.46,-264.64C829.84,-253.95 858.34,-239 879.09,-228.12"/>
<polygon fill="#63b8ff" stroke="#63b8ff" points="807.68,-261.62 800.45,-269.37 810.93,-267.82 807.68,-261.62"/>
</a>
</g>
</g>
<!-- Node11 -->
<g id="Node000011" class="node">
<title>Node11</title>
<g id="a_Node000011"><a xlink:href="ExportService__Pipeline_8h.html" target="_top" xlink:title=" ">
<polygon fill="white" stroke="#666666" points="970,-162 842,-162 842,-132 970,-132 970,-162"/>
<text text-anchor="start" x="850" y="-150" font-family="Helvetica,sans-Serif" font-size="10.00">services/ExportService</text>
<text text-anchor="middle" x="906" y="-139" font-family="Helvetica,sans-Serif" font-size="10.00">_Pipeline.h</text>
</a>
</g>
</g>
<!-- Node10&#45;&gt;Node11 -->
<g id="edge10_Node000010_Node000011" class="edge">
<title>Node10&#45;&gt;Node11</title>
<g id="a_edge10_Node000010_Node000011"><a xlink:title=" ">
<path fill="none" stroke="#63b8ff" d="M906,-187.54C906,-178.96 906,-169.61 906,-162.16"/>
<polygon fill="#63b8ff" stroke="#63b8ff" points="902.5,-187.8 906,-197.8 909.5,-187.8 902.5,-187.8"/>
</a>
</g>
</g>
<!-- Node16 -->
<g id="Node000016" class="node">
<title>Node16</title>
<g id="a_Node000016"><a xlink:href="WriteStageHandler_8cpp.html" target="_top" xlink:title=" ">
<polygon fill="white" stroke="#666666" points="1119.5,-162 988.5,-162 988.5,-132 1119.5,-132 1119.5,-162"/>
<text text-anchor="start" x="996.5" y="-150" font-family="Helvetica,sans-Serif" font-size="10.00">services/pipeline/stage</text>
<text text-anchor="middle" x="1054" y="-139" font-family="Helvetica,sans-Serif" font-size="10.00">/WriteStageHandler.cpp</text>
</a>
</g>
</g>
<!-- Node10&#45;&gt;Node16 -->
<g id="edge18_Node000010_Node000016" class="edge">
<title>Node10&#45;&gt;Node16</title>
<g id="a_edge18_Node000010_Node000016"><a xlink:title=" ">
<path fill="none" stroke="#63b8ff" d="M947.81,-193.92C971.2,-183.8 999.92,-171.38 1021.6,-162.01"/>
<polygon fill="#63b8ff" stroke="#63b8ff" points="946.27,-190.77 938.48,-197.95 949.05,-197.2 946.27,-190.77"/>
</a>
</g>
</g>
<!-- Node11&#45;&gt;Node9 -->
<g id="edge12_Node000011_Node000009" class="edge">
<title>Node11&#45;&gt;Node9</title>
<g id="a_edge12_Node000011_Node000009"><a xlink:title=" ">
<path fill="none" stroke="#63b8ff" d="M858.3,-128.46C830.54,-118.25 796.03,-105.55 770.1,-96.01"/>
<polygon fill="#63b8ff" stroke="#63b8ff" points="857.22,-131.79 867.81,-131.95 859.64,-125.22 857.22,-131.79"/>
</a>
</g>
</g>
<!-- Node12 -->
<g id="Node000012" class="node">
<title>Node12</title>
<g id="a_Node000012"><a xlink:href="main_8cpp.html" target="_top" xlink:title=" ">
<polygon fill="white" stroke="#666666" points="899,-24.5 837,-24.5 837,-5.5 899,-5.5 899,-24.5"/>
<text text-anchor="middle" x="868" y="-12.5" font-family="Helvetica,sans-Serif" font-size="10.00">main.cpp</text>
</a>
</g>
</g>
<!-- Node11&#45;&gt;Node12 -->
<g id="edge11_Node000011_Node000012" class="edge">
<title>Node11&#45;&gt;Node12</title>
<g id="a_edge11_Node000011_Node000012"><a xlink:title=" ">
<path fill="none" stroke="#63b8ff" d="M869.85,-126.03C859.2,-118.18 848.85,-108.1 843,-96 831.1,-71.37 850.16,-39.77 861.13,-24.72"/>
<polygon fill="#63b8ff" stroke="#63b8ff" points="868.15,-129.1 878.38,-131.85 872.09,-123.32 868.15,-129.1"/>
</a>
</g>
</g>
<!-- Node13 -->
<g id="Node000013" class="node">
<title>Node13</title>
<g id="a_Node000013"><a xlink:href="ExportProgressViewModel_8cpp.html" target="_top" xlink:title=" ">
<polygon fill="white" stroke="#666666" points="1103,-30 939,-30 939,0 1103,0 1103,-30"/>
<text text-anchor="start" x="947" y="-18" font-family="Helvetica,sans-Serif" font-size="10.00">ui/viewmodels/ExportProgress</text>
<text text-anchor="middle" x="1021" y="-7" font-family="Helvetica,sans-Serif" font-size="10.00">ViewModel.cpp</text>
</a>
</g>
</g>
<!-- Node11&#45;&gt;Node13 -->
<g id="edge13_Node000011_Node000013" class="edge">
<title>Node11&#45;&gt;Node13</title>
<g id="a_edge13_Node000011_Node000013"><a xlink:title=" ">
<path fill="none" stroke="#63b8ff" d="M979.62,-130.37C997.4,-122.96 1014.33,-112.05 1025,-96 1038.16,-76.19 1031.96,-47.15 1026.38,-30.05"/>
<polygon fill="#63b8ff" stroke="#63b8ff" points="978.37,-127.11 970.27,-133.94 980.86,-133.65 978.37,-127.11"/>
</a>
</g>
</g>
<!-- Node14 -->
<g id="Node000014" class="node">
<title>Node14</title>
<g id="a_Node000014"><a xlink:href="ExportProgressViewModel_8h.html" target="_top" xlink:title=" ">
<polygon fill="white" stroke="#666666" points="1016,-96 852,-96 852,-66 1016,-66 1016,-96"/>
<text text-anchor="start" x="860" y="-84" font-family="Helvetica,sans-Serif" font-size="10.00">ui/viewmodels/ExportProgress</text>
<text text-anchor="middle" x="934" y="-73" font-family="Helvetica,sans-Serif" font-size="10.00">ViewModel.h</text>
</a>
</g>
</g>
<!-- Node11&#45;&gt;Node14 -->
<g id="edge14_Node000011_Node000014" class="edge">
<title>Node11&#45;&gt;Node14</title>
<g id="a_edge14_Node000011_Node000014"><a xlink:title=" ">
<path fill="none" stroke="#63b8ff" d="M916.33,-122.39C920.18,-113.59 924.43,-103.86 927.8,-96.16"/>
<polygon fill="#63b8ff" stroke="#63b8ff" points="913.02,-121.23 912.21,-131.8 919.43,-124.04 913.02,-121.23"/>
</a>
</g>
</g>
<!-- Node15 -->
<g id="Node000015" class="node">
<title>Node15</title>
<g id="a_Node000015"><a xlink:href="ExportSettingsViewModel_8cpp.html" target="_top" xlink:title=" ">
<polygon fill="white" stroke="#666666" points="1234,-96 1072,-96 1072,-66 1234,-66 1234,-96"/>
<text text-anchor="start" x="1080" y="-84" font-family="Helvetica,sans-Serif" font-size="10.00">ui/viewmodels/ExportSettings</text>
<text text-anchor="middle" x="1153" y="-73" font-family="Helvetica,sans-Serif" font-size="10.00">ViewModel.cpp</text>
</a>
</g>
</g>
<!-- Node11&#45;&gt;Node15 -->
<g id="edge17_Node000011_Node000015" class="edge">
<title>Node11&#45;&gt;Node15</title>
<g id="a_edge17_Node000011_Node000015"><a xlink:title=" ">
<path fill="none" stroke="#63b8ff" d="M970.12,-129.39C1010.1,-119.03 1060.98,-105.84 1098.92,-96.01"/>
<polygon fill="#63b8ff" stroke="#63b8ff" points="969.01,-126.06 960.21,-131.95 970.76,-132.83 969.01,-126.06"/>
</a>
</g>
</g>
<!-- Node14&#45;&gt;Node12 -->
<g id="edge15_Node000014_Node000012" class="edge">
<title>Node14&#45;&gt;Node12</title>
<g id="a_edge15_Node000014_Node000012"><a xlink:title=" ">
<path fill="none" stroke="#63b8ff" d="M911.94,-58.6C900.07,-47.1 886.07,-33.52 877.12,-24.84"/>
<polygon fill="#63b8ff" stroke="#63b8ff" points="909.74,-61.35 919.35,-65.8 914.61,-56.32 909.74,-61.35"/>
</a>
</g>
</g>
<!-- Node14&#45;&gt;Node13 -->
<g id="edge16_Node000014_Node000013" class="edge">
<title>Node14&#45;&gt;Node13</title>
<g id="a_edge16_Node000014_Node000013"><a xlink:title=" ">
<path fill="none" stroke="#63b8ff" d="M961.52,-59.75C974.61,-50.13 989.93,-38.86 1001.75,-30.16"/>
<polygon fill="#63b8ff" stroke="#63b8ff" points="959.29,-57.05 953.31,-65.8 963.44,-62.69 959.29,-57.05"/>
</a>
</g>
</g>
</g>
</svg>
