<?xml version="1.0" encoding="UTF-8" standalone="no"?>
<!DOCTYPE svg PUBLIC "-//W3C//DTD SVG 1.1//EN"
 "http://www.w3.org/Graphics/SVG/1.1/DTD/svg11.dtd">
<!-- Generated by graphviz version 2.43.0 (0)
 -->
<!-- Title: core/kicad/SymbolGraphicsGenerator.h Pages: 1 -->
<svg width="721pt" height="225pt"
 viewBox="0.00 0.00 721.00 225.00" xmlns="http://www.w3.org/2000/svg" xmlns:xlink="http://www.w3.org/1999/xlink">
<g id="graph0" class="graph" transform="scale(1 1) rotate(0) translate(4 221)">
<title>core/kicad/SymbolGraphicsGenerator.h</title>
<!-- Node1 -->
<g id="Node000001" class="node">
<title>Node1</title>
<g id="a_Node000001"><a xlink:title=" ">
<polygon fill="#999999" stroke="#666666" points="608.5,-217 459.5,-217 459.5,-187 608.5,-187 608.5,-217"/>
<text text-anchor="start" x="467.5" y="-205" font-family="Helvetica,sans-Serif" font-size="10.00">core/kicad/SymbolGraphics</text>
<text text-anchor="middle" x="534" y="-194" font-family="Helvetica,sans-Serif" font-size="10.00">Generator.h</text>
</a>
</g>
</g>
<!-- Node2 -->
<g id="Node000002" class="node">
<title>Node2</title>
<g id="a_Node000002"><a xlink:href="ExporterSymbol_8h.html" target="_top" xlink:title=" ">
<polygon fill="white" stroke="#666666" points="527.5,-145.5 370.5,-145.5 370.5,-126.5 527.5,-126.5 527.5,-145.5"/>
<text text-anchor="middle" x="449" y="-133.5" font-family="Helvetica,sans-Serif" font-size="10.00">core/kicad/ExporterSymbol.h</text>
</a>
</g>
</g>
<!-- Node1&#45;&gt;Node2 -->
<g id="edge1_Node000001_Node000002" class="edge">
<title>Node1&#45;&gt;Node2</title>
<g id="a_edge1_Node000001_Node000002"><a xlink:title=" ">
<path fill="none" stroke="#63b8ff" d="M506.89,-180.58C491.33,-168.87 472.6,-154.77 460.75,-145.84"/>
<polygon fill="#63b8ff" stroke="#63b8ff" points="505.04,-183.58 515.14,-186.8 509.25,-177.99 505.04,-183.58"/>
</a>
</g>
</g>
<!-- Node8 -->
<g id="Node000008" class="node">
<title>Node8</title>
<g id="a_Node000008"><a xlink:href="SymbolGraphicsGenerator_8cpp.html" target="_top" xlink:title=" ">
<polygon fill="white" stroke="#666666" points="694.5,-151 545.5,-151 545.5,-121 694.5,-121 694.5,-151"/>
<text text-anchor="start" x="553.5" y="-139" font-family="Helvetica,sans-Serif" font-size="10.00">core/kicad/SymbolGraphics</text>
<text text-anchor="middle" x="620" y="-128" font-family="Helvetica,sans-Serif" font-size="10.00">Generator.cpp</text>
</a>
</g>
</g>
<!-- Node1&#45;&gt;Node8 -->
<g id="edge8_Node000001_Node000008" class="edge">
<title>Node1&#45;&gt;Node8</title>
<g id="a_edge8_Node000001_Node000008"><a xlink:title=" ">
<path fill="none" stroke="#63b8ff" d="M561.21,-180.75C574.14,-171.13 589.29,-159.86 600.97,-151.16"/>
<polygon fill="#63b8ff" stroke="#63b8ff" points="559.02,-178.02 553.09,-186.8 563.2,-183.63 559.02,-178.02"/>
</a>
</g>
</g>
<!-- Node3 -->
<g id="Node000003" class="node">
<title>Node3</title>
<g id="a_Node000003"><a xlink:href="ExporterSymbol_8cpp.html" target="_top" xlink:title=" ">
<polygon fill="white" stroke="#666666" points="168,-79.5 0,-79.5 0,-60.5 168,-60.5 168,-79.5"/>
<text text-anchor="middle" x="84" y="-67.5" font-family="Helvetica,sans-Serif" font-size="10.00">core/kicad/ExporterSymbol.cpp</text>
</a>
</g>
</g>
<!-- Node2&#45;&gt;Node3 -->
<g id="edge2_Node000002_Node000003" class="edge">
<title>Node2&#45;&gt;Node3</title>
<g id="a_edge2_Node000002_Node000003"><a xlink:title=" ">
<path fill="none" stroke="#63b8ff" d="M389.95,-124.65C318.36,-112.09 199.06,-91.17 132.56,-79.51"/>
<polygon fill="#63b8ff" stroke="#63b8ff" points="389.7,-128.16 400.15,-126.44 390.91,-121.26 389.7,-128.16"/>
</a>
</g>
</g>
<!-- Node4 -->
<g id="Node000004" class="node">
<title>Node4</title>
<g id="a_Node000004"><a xlink:href="SymbolExportStage_8cpp.html" target="_top" xlink:title=" ">
<polygon fill="white" stroke="#666666" points="349.5,-85 186.5,-85 186.5,-55 349.5,-55 349.5,-85"/>
<text text-anchor="start" x="194.5" y="-73" font-family="Helvetica,sans-Serif" font-size="10.00">services/export/SymbolExport</text>
<text text-anchor="middle" x="268" y="-62" font-family="Helvetica,sans-Serif" font-size="10.00">Stage.cpp</text>
</a>
</g>
</g>
<!-- Node2&#45;&gt;Node4 -->
<g id="edge3_Node000002_Node000004" class="edge">
<title>Node2&#45;&gt;Node4</title>
<g id="a_edge3_Node000002_Node000004"><a xlink:title=" ">
<path fill="none" stroke="#63b8ff" d="M414.86,-122.93C384.46,-112.18 339.96,-96.44 307.92,-85.12"/>
<polygon fill="#63b8ff" stroke="#63b8ff" points="413.99,-126.33 424.59,-126.37 416.33,-119.74 413.99,-126.33"/>
</a>
</g>
</g>
<!-- Node5 -->
<g id="Node000005" class="node">
<title>Node5</title>
<g id="a_Node000005"><a xlink:href="SymbolExportWorker_8cpp.html" target="_top" xlink:title=" ">
<polygon fill="white" stroke="#666666" points="530.5,-85 367.5,-85 367.5,-55 530.5,-55 530.5,-85"/>
<text text-anchor="start" x="375.5" y="-73" font-family="Helvetica,sans-Serif" font-size="10.00">services/export/SymbolExport</text>
<text text-anchor="middle" x="449" y="-62" font-family="Helvetica,sans-Serif" font-size="10.00">Worker.cpp</text>
</a>
</g>
</g>
<!-- Node2&#45;&gt;Node5 -->
<g id="edge4_Node000002_Node000005" class="edge">
<title>Node2&#45;&gt;Node5</title>
<g id="a_edge4_Node000002_Node000005"><a xlink:title=" ">
<path fill="none" stroke="#63b8ff" d="M449,-116.35C449,-106.47 449,-94.51 449,-85.36"/>
<polygon fill="#63b8ff" stroke="#63b8ff" points="445.5,-116.37 449,-126.37 452.5,-116.37 445.5,-116.37"/>
</a>
</g>
</g>
<!-- Node6 -->
<g id="Node000006" class="node">
<title>Node6</title>
<g id="a_Node000006"><a xlink:href="WriteWorker_8cpp.html" target="_top" xlink:title=" ">
<polygon fill="white" stroke="#666666" points="672.5,-19 535.5,-19 535.5,0 672.5,0 672.5,-19"/>
<text text-anchor="middle" x="604" y="-7" font-family="Helvetica,sans-Serif" font-size="10.00">workers/WriteWorker.cpp</text>
</a>
</g>
</g>
<!-- Node2&#45;&gt;Node6 -->
<g id="edge5_Node000002_Node000006" class="edge">
<title>Node2&#45;&gt;Node6</title>
<g id="a_edge5_Node000002_Node000006"><a xlink:title=" ">
<path fill="none" stroke="#63b8ff" d="M478.65,-122.07C497.3,-113.15 521.29,-100.19 540,-85 564.89,-64.8 587.74,-34.09 598.12,-19.2"/>
<polygon fill="#63b8ff" stroke="#63b8ff" points="477.03,-118.96 469.44,-126.35 479.99,-125.31 477.03,-118.96"/>
</a>
</g>
</g>
<!-- Node7 -->
<g id="Node000007" class="node">
<title>Node7</title>
<g id="a_Node000007"><a xlink:href="WriteWorker_8h.html" target="_top" xlink:title=" ">
<polygon fill="white" stroke="#666666" points="713,-79.5 587,-79.5 587,-60.5 713,-60.5 713,-79.5"/>
<text text-anchor="middle" x="650" y="-67.5" font-family="Helvetica,sans-Serif" font-size="10.00">workers/WriteWorker.h</text>
</a>
</g>
</g>
<!-- Node2&#45;&gt;Node7 -->
<g id="edge6_Node000002_Node000007" class="edge">
<title>Node2&#45;&gt;Node7</title>
<g id="a_edge6_Node000002_Node000007"><a xlink:title=" ">
<path fill="none" stroke="#63b8ff" d="M485.67,-123.32C525.32,-110.7 587.59,-90.87 623,-79.6"/>
<polygon fill="#63b8ff" stroke="#63b8ff" points="484.57,-120 476.11,-126.37 486.7,-126.67 484.57,-120"/>
</a>
</g>
</g>
<!-- Node7&#45;&gt;Node6 -->
<g id="edge7_Node000007_Node000006" class="edge">
<title>Node7&#45;&gt;Node6</title>
<g id="a_edge7_Node000007_Node000006"><a xlink:title=" ">
<path fill="none" stroke="#63b8ff" d="M636.99,-52.45C628.47,-41.62 617.69,-27.91 610.82,-19.17"/>
<polygon fill="#63b8ff" stroke="#63b8ff" points="634.28,-54.67 643.21,-60.37 639.78,-50.34 634.28,-54.67"/>
</a>
</g>
</g>
</g>
</svg>
