<?xml version="1.0" encoding="UTF-8" standalone="no"?>
<!DOCTYPE svg PUBLIC "-//W3C//DTD SVG 1.1//EN"
 "http://www.w3.org/Graphics/SVG/1.1/DTD/svg11.dtd">
<!-- Generated by graphviz version 2.43.0 (0)
 -->
<!-- Title: services/export/SymbolExportStage.h Pages: 1 -->
<svg width="1214pt" height="203pt"
 viewBox="0.00 0.00 1213.50 203.00" xmlns="http://www.w3.org/2000/svg" xmlns:xlink="http://www.w3.org/1999/xlink">
<g id="graph0" class="graph" transform="scale(1 1) rotate(0) translate(4 199)">
<title>services/export/SymbolExportStage.h</title>
<!-- Node1 -->
<g id="Node000001" class="node">
<title>Node1</title>
<g id="a_Node000001"><a xlink:title=" ">
<polygon fill="#999999" stroke="#666666" points="716.5,-195 553.5,-195 553.5,-165 716.5,-165 716.5,-195"/>
<text text-anchor="start" x="561.5" y="-183" font-family="Helvetica,sans-Serif" font-size="10.00">services/export/SymbolExport</text>
<text text-anchor="middle" x="635" y="-172" font-family="Helvetica,sans-Serif" font-size="10.00">Stage.h</text>
</a>
</g>
</g>
<!-- Node2 -->
<g id="Node000002" class="node">
<title>Node2</title>
<g id="a_Node000002"><a xlink:href="ExportProgress_8h.html" target="_top" xlink:title=" ">
<polygon fill="white" stroke="#666666" points="164.5,-74 65.5,-74 65.5,-55 164.5,-55 164.5,-74"/>
<text text-anchor="middle" x="115" y="-62" font-family="Helvetica,sans-Serif" font-size="10.00">ExportProgress.h</text>
</a>
</g>
</g>
<!-- Node1&#45;&gt;Node2 -->
<g id="edge1_Node000001_Node000002" class="edge">
<title>Node1&#45;&gt;Node2</title>
<g id="a_edge1_Node000001_Node000002"><a xlink:title=" ">
<path fill="none" stroke="#63b8ff" d="M570.72,-164.97C465.45,-141.99 258.6,-96.84 164.14,-76.23"/>
<polygon fill="#63b8ff" stroke="#63b8ff" points="164.79,-72.78 154.27,-74.07 163.3,-79.62 164.79,-72.78"/>
</a>
</g>
</g>
<!-- Node7 -->
<g id="Node000007" class="node">
<title>Node7</title>
<g id="a_Node000007"><a xlink:href="ExportTypeStage_8h.html" target="_top" xlink:title=" ">
<polygon fill="white" stroke="#666666" points="599.5,-129 492.5,-129 492.5,-110 599.5,-110 599.5,-129"/>
<text text-anchor="middle" x="546" y="-117" font-family="Helvetica,sans-Serif" font-size="10.00">ExportTypeStage.h</text>
</a>
</g>
</g>
<!-- Node1&#45;&gt;Node7 -->
<g id="edge6_Node000001_Node000007" class="edge">
<title>Node1&#45;&gt;Node7</title>
<g id="a_edge6_Node000001_Node000007"><a xlink:title=" ">
<path fill="none" stroke="#63b8ff" d="M613.46,-164.84C599.53,-155.68 581.47,-143.82 567.55,-134.66"/>
<polygon fill="#63b8ff" stroke="#63b8ff" points="569.35,-131.66 559.08,-129.09 565.51,-137.51 569.35,-131.66"/>
</a>
</g>
</g>
<!-- Node14 -->
<g id="Node000014" class="node">
<title>Node14</title>
<g id="a_Node000014"><a xlink:title=" ">
<polygon fill="#e0e0e0" stroke="#999999" points="754,-74 696,-74 696,-55 754,-55 754,-74"/>
<text text-anchor="middle" x="725" y="-62" font-family="Helvetica,sans-Serif" font-size="10.00">QThread</text>
</a>
</g>
</g>
<!-- Node1&#45;&gt;Node14 -->
<g id="edge27_Node000001_Node000014" class="edge">
<title>Node1&#45;&gt;Node14</title>
<g id="a_edge27_Node000001_Node000014"><a xlink:title=" ">
<path fill="none" stroke="#63b8ff" d="M646.4,-164.63C663.1,-143.56 694.15,-104.4 711.82,-82.13"/>
<polygon fill="#63b8ff" stroke="#63b8ff" points="714.61,-84.24 718.08,-74.23 709.12,-79.89 714.61,-84.24"/>
</a>
</g>
</g>
<!-- Node17 -->
<g id="Node000017" class="node">
<title>Node17</title>
<g id="a_Node000017"><a xlink:href="TempFileManager_8h.html" target="_top" xlink:title=" ">
<polygon fill="white" stroke="#666666" points="1019.5,-129 908.5,-129 908.5,-110 1019.5,-110 1019.5,-129"/>
<text text-anchor="middle" x="964" y="-117" font-family="Helvetica,sans-Serif" font-size="10.00">TempFileManager.h</text>
</a>
</g>
</g>
<!-- Node1&#45;&gt;Node17 -->
<g id="edge19_Node000001_Node000017" class="edge">
<title>Node1&#45;&gt;Node17</title>
<g id="a_edge19_Node000001_Node000017"><a xlink:title=" ">
<path fill="none" stroke="#63b8ff" d="M713.8,-164.99C772.92,-154.48 852.52,-140.32 905.91,-130.83"/>
<polygon fill="#63b8ff" stroke="#63b8ff" points="906.66,-134.25 915.9,-129.05 905.44,-127.36 906.66,-134.25"/>
</a>
</g>
</g>
<!-- Node3 -->
<g id="Node000003" class="node">
<title>Node3</title>
<g id="a_Node000003"><a xlink:title=" ">
<polygon fill="#e0e0e0" stroke="#999999" points="72,-19 0,-19 0,0 72,0 72,-19"/>
<text text-anchor="middle" x="36" y="-7" font-family="Helvetica,sans-Serif" font-size="10.00">QDateTime</text>
</a>
</g>
</g>
<!-- Node2&#45;&gt;Node3 -->
<g id="edge2_Node000002_Node000003" class="edge">
<title>Node2&#45;&gt;Node3</title>
<g id="a_edge2_Node000002_Node000003"><a xlink:title=" ">
<path fill="none" stroke="#63b8ff" d="M102.31,-54.98C90.17,-46.84 71.64,-34.41 57.25,-24.76"/>
<polygon fill="#63b8ff" stroke="#63b8ff" points="59.18,-21.84 48.92,-19.17 55.28,-27.65 59.18,-21.84"/>
</a>
</g>
</g>
<!-- Node4 -->
<g id="Node000004" class="node">
<title>Node4</title>
<g id="a_Node000004"><a xlink:title=" ">
<polygon fill="#e0e0e0" stroke="#999999" points="244.5,-19 199.5,-19 199.5,0 244.5,0 244.5,-19"/>
<text text-anchor="middle" x="222" y="-7" font-family="Helvetica,sans-Serif" font-size="10.00">QMap</text>
</a>
</g>
</g>
<!-- Node2&#45;&gt;Node4 -->
<g id="edge3_Node000002_Node000004" class="edge">
<title>Node2&#45;&gt;Node4</title>
<g id="a_edge3_Node000002_Node000004"><a xlink:title=" ">
<path fill="none" stroke="#63b8ff" d="M132.19,-54.98C149.25,-46.54 175.63,-33.47 195.4,-23.68"/>
<polygon fill="#63b8ff" stroke="#63b8ff" points="197.09,-26.75 204.5,-19.17 193.98,-20.47 197.09,-26.75"/>
</a>
</g>
</g>
<!-- Node5 -->
<g id="Node000005" class="node">
<title>Node5</title>
<g id="a_Node000005"><a xlink:title=" ">
<polygon fill="#e0e0e0" stroke="#999999" points="161.5,-19 90.5,-19 90.5,0 161.5,0 161.5,-19"/>
<text text-anchor="middle" x="126" y="-7" font-family="Helvetica,sans-Serif" font-size="10.00">QMetaType</text>
</a>
</g>
</g>
<!-- Node2&#45;&gt;Node5 -->
<g id="edge4_Node000002_Node000005" class="edge">
<title>Node2&#45;&gt;Node5</title>
<g id="a_edge4_Node000002_Node000005"><a xlink:title=" ">
<path fill="none" stroke="#63b8ff" d="M116.82,-54.75C118.26,-47.8 120.32,-37.85 122.13,-29.13"/>
<polygon fill="#63b8ff" stroke="#63b8ff" points="125.61,-29.59 124.22,-19.09 118.76,-28.17 125.61,-29.59"/>
</a>
</g>
</g>
<!-- Node6 -->
<g id="Node000006" class="node">
<title>Node6</title>
<g id="a_Node000006"><a xlink:title=" ">
<polygon fill="#e0e0e0" stroke="#999999" points="325.5,-19 272.5,-19 272.5,0 325.5,0 325.5,-19"/>
<text text-anchor="middle" x="299" y="-7" font-family="Helvetica,sans-Serif" font-size="10.00">QString</text>
</a>
</g>
</g>
<!-- Node2&#45;&gt;Node6 -->
<g id="edge5_Node000002_Node000006" class="edge">
<title>Node2&#45;&gt;Node6</title>
<g id="a_edge5_Node000002_Node000006"><a xlink:title=" ">
<path fill="none" stroke="#63b8ff" d="M144.56,-54.98C176.74,-45.72 228.21,-30.89 262.79,-20.93"/>
<polygon fill="#63b8ff" stroke="#63b8ff" points="263.86,-24.27 272.5,-18.13 261.92,-17.54 263.86,-24.27"/>
</a>
</g>
</g>
<!-- Node7&#45;&gt;Node2 -->
<g id="edge7_Node000007_Node000002" class="edge">
<title>Node7&#45;&gt;Node2</title>
<g id="a_edge7_Node000007_Node000002"><a xlink:title=" ">
<path fill="none" stroke="#63b8ff" d="M492.35,-112.49C421.98,-104.52 294.39,-89.75 174.64,-74.05"/>
<polygon fill="#63b8ff" stroke="#63b8ff" points="174.93,-70.56 164.56,-72.73 174.02,-77.5 174.93,-70.56"/>
</a>
</g>
</g>
<!-- Node7&#45;&gt;Node4 -->
<g id="edge8_Node000007_Node000004" class="edge">
<title>Node7&#45;&gt;Node4</title>
<g id="a_edge8_Node000007_Node000004"><a xlink:title=" ">
<path fill="none" stroke="#63b8ff" d="M492.15,-116.05C441.39,-112.05 364.21,-101.55 303,-74 277.43,-62.49 252.77,-41.23 237.51,-26.5"/>
<polygon fill="#63b8ff" stroke="#63b8ff" points="239.62,-23.65 230.06,-19.09 234.68,-28.62 239.62,-23.65"/>
</a>
</g>
</g>
<!-- Node7&#45;&gt;Node6 -->
<g id="edge14_Node000007_Node000006" class="edge">
<title>Node7&#45;&gt;Node6</title>
<g id="a_edge14_Node000007_Node000006"><a xlink:title=" ">
<path fill="none" stroke="#63b8ff" d="M492.33,-114.38C433.18,-108.77 343.06,-96.72 318,-74 305.62,-62.78 301.17,-43.86 299.64,-29.59"/>
<polygon fill="#63b8ff" stroke="#63b8ff" points="303.12,-29.11 298.94,-19.37 296.13,-29.58 303.12,-29.11"/>
</a>
</g>
</g>
<!-- Node8 -->
<g id="Node000008" class="node">
<title>Node8</title>
<g id="a_Node000008"><a xlink:title=" ">
<polygon fill="#e0e0e0" stroke="#999999" points="827.5,-74 772.5,-74 772.5,-55 827.5,-55 827.5,-74"/>
<text text-anchor="middle" x="800" y="-62" font-family="Helvetica,sans-Serif" font-size="10.00">QMutex</text>
</a>
</g>
</g>
<!-- Node7&#45;&gt;Node8 -->
<g id="edge9_Node000007_Node000008" class="edge">
<title>Node7&#45;&gt;Node8</title>
<g id="a_edge9_Node000007_Node000008"><a xlink:title=" ">
<path fill="none" stroke="#63b8ff" d="M589.29,-109.93C631,-101.61 696.12,-88.44 761.99,-74.18"/>
<polygon fill="#63b8ff" stroke="#63b8ff" points="763.11,-77.52 772.14,-71.98 761.62,-70.68 763.11,-77.52"/>
</a>
</g>
</g>
<!-- Node9 -->
<g id="Node000009" class="node">
<title>Node9</title>
<g id="a_Node000009"><a xlink:title=" ">
<polygon fill="#e0e0e0" stroke="#999999" points="902,-74 846,-74 846,-55 902,-55 902,-74"/>
<text text-anchor="middle" x="874" y="-62" font-family="Helvetica,sans-Serif" font-size="10.00">QObject</text>
</a>
</g>
</g>
<!-- Node7&#45;&gt;Node9 -->
<g id="edge10_Node000007_Node000009" class="edge">
<title>Node7&#45;&gt;Node9</title>
<g id="a_edge10_Node000007_Node000009"><a xlink:title=" ">
<path fill="none" stroke="#63b8ff" d="M599.57,-111.52C655.99,-103.9 747.63,-90.75 835.86,-74.1"/>
<polygon fill="#63b8ff" stroke="#63b8ff" points="836.6,-77.52 845.76,-72.21 835.29,-70.65 836.6,-77.52"/>
</a>
</g>
</g>
<!-- Node10 -->
<g id="Node000010" class="node">
<title>Node10</title>
<g id="a_Node000010"><a xlink:title=" ">
<polygon fill="#e0e0e0" stroke="#999999" points="383,-74 327,-74 327,-55 383,-55 383,-74"/>
<text text-anchor="middle" x="355" y="-62" font-family="Helvetica,sans-Serif" font-size="10.00">QQueue</text>
</a>
</g>
</g>
<!-- Node7&#45;&gt;Node10 -->
<g id="edge11_Node000007_Node000010" class="edge">
<title>Node7&#45;&gt;Node10</title>
<g id="a_edge11_Node000007_Node000010"><a xlink:title=" ">
<path fill="none" stroke="#63b8ff" d="M515.31,-109.98C482.1,-100.77 429.1,-86.06 393.21,-76.1"/>
<polygon fill="#63b8ff" stroke="#63b8ff" points="393.69,-72.6 383.12,-73.3 391.82,-79.35 393.69,-72.6"/>
</a>
</g>
</g>
<!-- Node11 -->
<g id="Node000011" class="node">
<title>Node11</title>
<g id="a_Node000011"><a xlink:title=" ">
<polygon fill="#e0e0e0" stroke="#999999" points="960,-74 920,-74 920,-55 960,-55 960,-74"/>
<text text-anchor="middle" x="940" y="-62" font-family="Helvetica,sans-Serif" font-size="10.00">QSet</text>
</a>
</g>
</g>
<!-- Node7&#45;&gt;Node11 -->
<g id="edge12_Node000007_Node000011" class="edge">
<title>Node7&#45;&gt;Node11</title>
<g id="a_edge12_Node000007_Node000011"><a xlink:title=" ">
<path fill="none" stroke="#63b8ff" d="M599.64,-114.73C669.17,-109.22 794.25,-97.25 909.75,-73.94"/>
<polygon fill="#63b8ff" stroke="#63b8ff" points="910.73,-77.31 919.83,-71.87 909.33,-70.45 910.73,-77.31"/>
</a>
</g>
</g>
<!-- Node12 -->
<g id="Node000012" class="node">
<title>Node12</title>
<g id="a_Node000012"><a xlink:title=" ">
<polygon fill="#e0e0e0" stroke="#999999" points="493,-74 401,-74 401,-55 493,-55 493,-74"/>
<text text-anchor="middle" x="447" y="-62" font-family="Helvetica,sans-Serif" font-size="10.00">QSharedPointer</text>
</a>
</g>
</g>
<!-- Node7&#45;&gt;Node12 -->
<g id="edge13_Node000007_Node000012" class="edge">
<title>Node7&#45;&gt;Node12</title>
<g id="a_edge13_Node000007_Node000012"><a xlink:title=" ">
<path fill="none" stroke="#63b8ff" d="M530.09,-109.98C514.45,-101.61 490.34,-88.7 472.12,-78.95"/>
<polygon fill="#63b8ff" stroke="#63b8ff" points="473.66,-75.8 463.2,-74.17 470.36,-81.98 473.66,-75.8"/>
</a>
</g>
</g>
<!-- Node13 -->
<g id="Node000013" class="node">
<title>Node13</title>
<g id="a_Node000013"><a xlink:title=" ">
<polygon fill="#e0e0e0" stroke="#999999" points="581,-74 511,-74 511,-55 581,-55 581,-74"/>
<text text-anchor="middle" x="546" y="-62" font-family="Helvetica,sans-Serif" font-size="10.00">QStringList</text>
</a>
</g>
</g>
<!-- Node7&#45;&gt;Node13 -->
<g id="edge15_Node000007_Node000013" class="edge">
<title>Node7&#45;&gt;Node13</title>
<g id="a_edge15_Node000007_Node000013"><a xlink:title=" ">
<path fill="none" stroke="#63b8ff" d="M546,-109.75C546,-102.8 546,-92.85 546,-84.13"/>
<polygon fill="#63b8ff" stroke="#63b8ff" points="549.5,-84.09 546,-74.09 542.5,-84.09 549.5,-84.09"/>
</a>
</g>
</g>
<!-- Node7&#45;&gt;Node14 -->
<g id="edge16_Node000007_Node000014" class="edge">
<title>Node7&#45;&gt;Node14</title>
<g id="a_edge16_Node000007_Node000014"><a xlink:title=" ">
<path fill="none" stroke="#63b8ff" d="M574.76,-109.98C604.94,-101.05 652.57,-86.94 686.1,-77.02"/>
<polygon fill="#63b8ff" stroke="#63b8ff" points="687.42,-80.28 696.02,-74.08 685.43,-73.57 687.42,-80.28"/>
</a>
</g>
</g>
<!-- Node15 -->
<g id="Node000015" class="node">
<title>Node15</title>
<g id="a_Node000015"><a xlink:title=" ">
<polygon fill="#e0e0e0" stroke="#999999" points="678.5,-74 599.5,-74 599.5,-55 678.5,-55 678.5,-74"/>
<text text-anchor="middle" x="639" y="-62" font-family="Helvetica,sans-Serif" font-size="10.00">QThreadPool</text>
</a>
</g>
</g>
<!-- Node7&#45;&gt;Node15 -->
<g id="edge17_Node000007_Node000015" class="edge">
<title>Node7&#45;&gt;Node15</title>
<g id="a_edge17_Node000007_Node000015"><a xlink:title=" ">
<path fill="none" stroke="#63b8ff" d="M560.94,-109.98C575.5,-101.69 597.87,-88.94 614.93,-79.22"/>
<polygon fill="#63b8ff" stroke="#63b8ff" points="616.83,-82.16 623.79,-74.17 613.36,-76.08 616.83,-82.16"/>
</a>
</g>
</g>
<!-- Node16 -->
<g id="Node000016" class="node">
<title>Node16</title>
<g id="a_Node000016"><a xlink:title=" ">
<polygon fill="#e0e0e0" stroke="#999999" points="233,-74 183,-74 183,-55 233,-55 233,-74"/>
<text text-anchor="middle" x="208" y="-62" font-family="Helvetica,sans-Serif" font-size="10.00">atomic</text>
</a>
</g>
</g>
<!-- Node7&#45;&gt;Node16 -->
<g id="edge18_Node000007_Node000016" class="edge">
<title>Node7&#45;&gt;Node16</title>
<g id="a_edge18_Node000007_Node000016"><a xlink:title=" ">
<path fill="none" stroke="#63b8ff" d="M492.35,-111.62C432.37,-103.66 332.44,-89.65 247,-74 245.73,-73.77 244.45,-73.53 243.15,-73.27"/>
<polygon fill="#63b8ff" stroke="#63b8ff" points="243.62,-69.8 233.13,-71.23 242.23,-76.66 243.62,-69.8"/>
</a>
</g>
</g>
<!-- Node17&#45;&gt;Node6 -->
<g id="edge25_Node000017_Node000006" class="edge">
<title>Node17&#45;&gt;Node6</title>
<g id="a_edge25_Node000017_Node000006"><a xlink:title=" ">
<path fill="none" stroke="#63b8ff" d="M968.26,-109.78C974.24,-96.16 982.9,-69.86 969,-55 925.57,-8.59 469.86,-8.96 335.86,-10.09"/>
<polygon fill="#63b8ff" stroke="#63b8ff" points="335.67,-6.59 325.7,-10.18 335.73,-13.59 335.67,-6.59"/>
</a>
</g>
</g>
<!-- Node17&#45;&gt;Node8 -->
<g id="edge22_Node000017_Node000008" class="edge">
<title>Node17&#45;&gt;Node8</title>
<g id="a_edge22_Node000017_Node000008"><a xlink:title=" ">
<path fill="none" stroke="#63b8ff" d="M937.65,-109.98C910.24,-101.13 867.11,-87.19 836.44,-77.28"/>
<polygon fill="#63b8ff" stroke="#63b8ff" points="837.15,-73.83 826.56,-74.08 835,-80.49 837.15,-73.83"/>
</a>
</g>
</g>
<!-- Node17&#45;&gt;Node9 -->
<g id="edge23_Node000017_Node000009" class="edge">
<title>Node17&#45;&gt;Node9</title>
<g id="a_edge23_Node000017_Node000009"><a xlink:title=" ">
<path fill="none" stroke="#63b8ff" d="M949.54,-109.98C935.58,-101.77 914.21,-89.18 897.75,-79.49"/>
<polygon fill="#63b8ff" stroke="#63b8ff" points="899.12,-76.23 888.72,-74.17 895.56,-82.26 899.12,-76.23"/>
</a>
</g>
</g>
<!-- Node17&#45;&gt;Node11 -->
<g id="edge24_Node000017_Node000011" class="edge">
<title>Node17&#45;&gt;Node11</title>
<g id="a_edge24_Node000017_Node000011"><a xlink:title=" ">
<path fill="none" stroke="#63b8ff" d="M960.04,-109.75C956.79,-102.57 952.08,-92.18 948.05,-83.27"/>
<polygon fill="#63b8ff" stroke="#63b8ff" points="951.2,-81.75 943.89,-74.09 944.83,-84.64 951.2,-81.75"/>
</a>
</g>
</g>
<!-- Node18 -->
<g id="Node000018" class="node">
<title>Node18</title>
<g id="a_Node000018"><a xlink:title=" ">
<polygon fill="#e0e0e0" stroke="#999999" points="1054,-74 1016,-74 1016,-55 1054,-55 1054,-74"/>
<text text-anchor="middle" x="1035" y="-62" font-family="Helvetica,sans-Serif" font-size="10.00">QDir</text>
</a>
</g>
</g>
<!-- Node17&#45;&gt;Node18 -->
<g id="edge20_Node000017_Node000018" class="edge">
<title>Node17&#45;&gt;Node18</title>
<g id="a_edge20_Node000017_Node000018"><a xlink:title=" ">
<path fill="none" stroke="#63b8ff" d="M975.41,-109.98C986.11,-102 1002.34,-89.88 1015.16,-80.31"/>
<polygon fill="#63b8ff" stroke="#63b8ff" points="1017.47,-82.96 1023.39,-74.17 1013.28,-77.35 1017.47,-82.96"/>
</a>
</g>
</g>
<!-- Node19 -->
<g id="Node000019" class="node">
<title>Node19</title>
<g id="a_Node000019"><a xlink:title=" ">
<polygon fill="#e0e0e0" stroke="#999999" points="1132,-74 1072,-74 1072,-55 1132,-55 1132,-74"/>
<text text-anchor="middle" x="1102" y="-62" font-family="Helvetica,sans-Serif" font-size="10.00">QFileInfo</text>
</a>
</g>
</g>
<!-- Node17&#45;&gt;Node19 -->
<g id="edge21_Node000017_Node000019" class="edge">
<title>Node17&#45;&gt;Node19</title>
<g id="a_edge21_Node000017_Node000019"><a xlink:title=" ">
<path fill="none" stroke="#63b8ff" d="M986.17,-109.98C1008.77,-101.3 1044.06,-87.75 1069.75,-77.88"/>
<polygon fill="#63b8ff" stroke="#63b8ff" points="1071.34,-81.02 1079.42,-74.17 1068.83,-74.49 1071.34,-81.02"/>
</a>
</g>
</g>
<!-- Node20 -->
<g id="Node000020" class="node">
<title>Node20</title>
<g id="a_Node000020"><a xlink:title=" ">
<polygon fill="#e0e0e0" stroke="#999999" points="1205.5,-74 1150.5,-74 1150.5,-55 1205.5,-55 1205.5,-74"/>
<text text-anchor="middle" x="1178" y="-62" font-family="Helvetica,sans-Serif" font-size="10.00">QVector</text>
</a>
</g>
</g>
<!-- Node17&#45;&gt;Node20 -->
<g id="edge26_Node000017_Node000020" class="edge">
<title>Node17&#45;&gt;Node20</title>
<g id="a_edge26_Node000017_Node000020"><a xlink:title=" ">
<path fill="none" stroke="#63b8ff" d="M998.38,-109.98C1037.18,-100.37 1100.11,-84.79 1140.25,-74.85"/>
<polygon fill="#63b8ff" stroke="#63b8ff" points="1141.31,-78.19 1150.18,-72.39 1139.63,-71.4 1141.31,-78.19"/>
</a>
</g>
</g>
</g>
</svg>
