<?xml version="1.0" encoding="UTF-8" standalone="no"?>
<!DOCTYPE svg PUBLIC "-//W3C//DTD SVG 1.1//EN"
 "http://www.w3.org/Graphics/SVG/1.1/DTD/svg11.dtd">
<!-- Generated by graphviz version 2.43.0 (0)
 -->
<!-- Title: models/SymbolDataSerializer.cpp Pages: 1 -->
<svg width="572pt" height="192pt"
 viewBox="0.00 0.00 571.50 192.00" xmlns="http://www.w3.org/2000/svg" xmlns:xlink="http://www.w3.org/1999/xlink">
<g id="graph0" class="graph" transform="scale(1 1) rotate(0) translate(4 188)">
<title>models/SymbolDataSerializer.cpp</title>
<!-- Node1 -->
<g id="Node000001" class="node">
<title>Node1</title>
<g id="a_Node000001"><a xlink:title=" ">
<polygon fill="#999999" stroke="#666666" points="371,-184 190,-184 190,-165 371,-165 371,-184"/>
<text text-anchor="middle" x="280.5" y="-172" font-family="Helvetica,sans-Serif" font-size="10.00">models/SymbolDataSerializer.cpp</text>
</a>
</g>
</g>
<!-- Node2 -->
<g id="Node000002" class="node">
<title>Node2</title>
<g id="a_Node000002"><a xlink:href="SymbolDataSerializer_8h.html" target="_top" xlink:title=" ">
<polygon fill="white" stroke="#666666" points="194,-129 63,-129 63,-110 194,-110 194,-129"/>
<text text-anchor="middle" x="128.5" y="-117" font-family="Helvetica,sans-Serif" font-size="10.00">SymbolDataSerializer.h</text>
</a>
</g>
</g>
<!-- Node1&#45;&gt;Node2 -->
<g id="edge1_Node000001_Node000002" class="edge">
<title>Node1&#45;&gt;Node2</title>
<g id="a_edge1_Node000001_Node000002"><a xlink:title=" ">
<path fill="none" stroke="#63b8ff" d="M256.08,-164.98C230.78,-156.16 191.05,-142.31 162.64,-132.41"/>
<polygon fill="#63b8ff" stroke="#63b8ff" points="163.71,-129.07 153.11,-129.08 161.4,-135.68 163.71,-129.07"/>
</a>
</g>
</g>
<!-- Node4 -->
<g id="Node000004" class="node">
<title>Node4</title>
<g id="a_Node000004"><a xlink:title=" ">
<polygon fill="#e0e0e0" stroke="#999999" points="71,-19 0,-19 0,0 71,0 71,-19"/>
<text text-anchor="middle" x="35.5" y="-7" font-family="Helvetica,sans-Serif" font-size="10.00">QJsonArray</text>
</a>
</g>
</g>
<!-- Node1&#45;&gt;Node4 -->
<g id="edge15_Node000001_Node000004" class="edge">
<title>Node1&#45;&gt;Node4</title>
<g id="a_edge15_Node000001_Node000004"><a xlink:title=" ">
<path fill="none" stroke="#63b8ff" d="M189.78,-166.3C135.05,-160 72.36,-148.68 53.5,-129 27.79,-102.17 29.19,-55.11 32.39,-29.1"/>
<polygon fill="#63b8ff" stroke="#63b8ff" points="35.87,-29.47 33.84,-19.07 28.94,-28.46 35.87,-29.47"/>
</a>
</g>
</g>
<!-- Node10 -->
<g id="Node000010" class="node">
<title>Node10</title>
<g id="a_Node000010"><a xlink:href="SymbolPinSerializer_8h.html" target="_top" xlink:title=" ">
<polygon fill="white" stroke="#666666" points="489.5,-129 367.5,-129 367.5,-110 489.5,-110 489.5,-129"/>
<text text-anchor="middle" x="428.5" y="-117" font-family="Helvetica,sans-Serif" font-size="10.00">SymbolPinSerializer.h</text>
</a>
</g>
</g>
<!-- Node1&#45;&gt;Node10 -->
<g id="edge10_Node000001_Node000010" class="edge">
<title>Node1&#45;&gt;Node10</title>
<g id="a_edge10_Node000001_Node000010"><a xlink:title=" ">
<path fill="none" stroke="#63b8ff" d="M304.28,-164.98C328.73,-156.23 367.03,-142.51 394.65,-132.62"/>
<polygon fill="#63b8ff" stroke="#63b8ff" points="396.05,-135.84 404.29,-129.17 393.69,-129.25 396.05,-135.84"/>
</a>
</g>
</g>
<!-- Node11 -->
<g id="Node000011" class="node">
<title>Node11</title>
<g id="a_Node000011"><a xlink:href="SymbolShapeSerializer_8h.html" target="_top" xlink:title=" ">
<polygon fill="white" stroke="#666666" points="349,-129 212,-129 212,-110 349,-110 349,-129"/>
<text text-anchor="middle" x="280.5" y="-117" font-family="Helvetica,sans-Serif" font-size="10.00">SymbolShapeSerializer.h</text>
</a>
</g>
</g>
<!-- Node1&#45;&gt;Node11 -->
<g id="edge12_Node000001_Node000011" class="edge">
<title>Node1&#45;&gt;Node11</title>
<g id="a_edge12_Node000001_Node000011"><a xlink:title=" ">
<path fill="none" stroke="#63b8ff" d="M280.5,-164.75C280.5,-157.8 280.5,-147.85 280.5,-139.13"/>
<polygon fill="#63b8ff" stroke="#63b8ff" points="284,-139.09 280.5,-129.09 277,-139.09 284,-139.09"/>
</a>
</g>
</g>
<!-- Node12 -->
<g id="Node000012" class="node">
<title>Node12</title>
<g id="a_Node000012"><a xlink:title=" ">
<polygon fill="#e0e0e0" stroke="#999999" points="563.5,-129 507.5,-129 507.5,-110 563.5,-110 563.5,-129"/>
<text text-anchor="middle" x="535.5" y="-117" font-family="Helvetica,sans-Serif" font-size="10.00">QDebug</text>
</a>
</g>
</g>
<!-- Node1&#45;&gt;Node12 -->
<g id="edge14_Node000001_Node000012" class="edge">
<title>Node1&#45;&gt;Node12</title>
<g id="a_edge14_Node000001_Node000012"><a xlink:title=" ">
<path fill="none" stroke="#63b8ff" d="M324,-164.95C365.89,-156.63 431.32,-143.47 497.1,-129.26"/>
<polygon fill="#63b8ff" stroke="#63b8ff" points="498.2,-132.61 507.23,-127.07 496.72,-125.77 498.2,-132.61"/>
</a>
</g>
</g>
<!-- Node3 -->
<g id="Node000003" class="node">
<title>Node3</title>
<g id="a_Node000003"><a xlink:href="SymbolData_8h.html" target="_top" xlink:title=" ">
<polygon fill="white" stroke="#666666" points="323.5,-74 237.5,-74 237.5,-55 323.5,-55 323.5,-74"/>
<text text-anchor="middle" x="280.5" y="-62" font-family="Helvetica,sans-Serif" font-size="10.00">SymbolData.h</text>
</a>
</g>
</g>
<!-- Node2&#45;&gt;Node3 -->
<g id="edge2_Node000002_Node000003" class="edge">
<title>Node2&#45;&gt;Node3</title>
<g id="a_edge2_Node000002_Node000003"><a xlink:title=" ">
<path fill="none" stroke="#63b8ff" d="M152.92,-109.98C178.22,-101.16 217.95,-87.31 246.36,-77.41"/>
<polygon fill="#63b8ff" stroke="#63b8ff" points="247.6,-80.68 255.89,-74.08 245.29,-74.07 247.6,-80.68"/>
</a>
</g>
</g>
<!-- Node5 -->
<g id="Node000005" class="node">
<title>Node5</title>
<g id="a_Node000005"><a xlink:title=" ">
<polygon fill="#e0e0e0" stroke="#999999" points="166.5,-19 90.5,-19 90.5,0 166.5,0 166.5,-19"/>
<text text-anchor="middle" x="128.5" y="-7" font-family="Helvetica,sans-Serif" font-size="10.00">QJsonObject</text>
</a>
</g>
</g>
<!-- Node2&#45;&gt;Node5 -->
<g id="edge9_Node000002_Node000005" class="edge">
<title>Node2&#45;&gt;Node5</title>
<g id="a_edge9_Node000002_Node000005"><a xlink:title=" ">
<path fill="none" stroke="#63b8ff" d="M128.5,-109.66C128.5,-92.17 128.5,-52.8 128.5,-29.27"/>
<polygon fill="#63b8ff" stroke="#63b8ff" points="132,-29.16 128.5,-19.16 125,-29.16 132,-29.16"/>
</a>
</g>
</g>
<!-- Node3&#45;&gt;Node4 -->
<g id="edge3_Node000003_Node000004" class="edge">
<title>Node3&#45;&gt;Node4</title>
<g id="a_edge3_Node000003_Node000004"><a xlink:title=" ">
<path fill="none" stroke="#63b8ff" d="M241.14,-54.98C197.5,-45.54 127.21,-30.34 81.19,-20.38"/>
<polygon fill="#63b8ff" stroke="#63b8ff" points="81.69,-16.91 71.18,-18.22 80.21,-23.75 81.69,-16.91"/>
</a>
</g>
</g>
<!-- Node3&#45;&gt;Node5 -->
<g id="edge4_Node000003_Node000005" class="edge">
<title>Node3&#45;&gt;Node5</title>
<g id="a_edge4_Node000003_Node000005"><a xlink:title=" ">
<path fill="none" stroke="#63b8ff" d="M256.08,-54.98C230.78,-46.16 191.05,-32.31 162.64,-22.41"/>
<polygon fill="#63b8ff" stroke="#63b8ff" points="163.71,-19.07 153.11,-19.08 161.4,-25.68 163.71,-19.07"/>
</a>
</g>
</g>
<!-- Node6 -->
<g id="Node000006" class="node">
<title>Node6</title>
<g id="a_Node000006"><a xlink:title=" ">
<polygon fill="#e0e0e0" stroke="#999999" points="367,-19 326,-19 326,0 367,0 367,-19"/>
<text text-anchor="middle" x="346.5" y="-7" font-family="Helvetica,sans-Serif" font-size="10.00">QList</text>
</a>
</g>
</g>
<!-- Node3&#45;&gt;Node6 -->
<g id="edge5_Node000003_Node000006" class="edge">
<title>Node3&#45;&gt;Node6</title>
<g id="a_edge5_Node000003_Node000006"><a xlink:title=" ">
<path fill="none" stroke="#63b8ff" d="M291.1,-54.98C300.96,-47.07 315.85,-35.11 327.72,-25.58"/>
<polygon fill="#63b8ff" stroke="#63b8ff" points="330.1,-28.16 335.7,-19.17 325.71,-22.7 330.1,-28.16"/>
</a>
</g>
</g>
<!-- Node7 -->
<g id="Node000007" class="node">
<title>Node7</title>
<g id="a_Node000007"><a xlink:title=" ">
<polygon fill="#e0e0e0" stroke="#999999" points="440,-19 385,-19 385,0 440,0 440,-19"/>
<text text-anchor="middle" x="412.5" y="-7" font-family="Helvetica,sans-Serif" font-size="10.00">QPointF</text>
</a>
</g>
</g>
<!-- Node3&#45;&gt;Node7 -->
<g id="edge6_Node000003_Node000007" class="edge">
<title>Node3&#45;&gt;Node7</title>
<g id="a_edge6_Node000003_Node000007"><a xlink:title=" ">
<path fill="none" stroke="#63b8ff" d="M301.71,-54.98C323.23,-46.34 356.78,-32.87 381.33,-23.02"/>
<polygon fill="#63b8ff" stroke="#63b8ff" points="382.93,-26.14 390.91,-19.17 380.32,-19.65 382.93,-26.14"/>
</a>
</g>
</g>
<!-- Node8 -->
<g id="Node000008" class="node">
<title>Node8</title>
<g id="a_Node000008"><a xlink:title=" ">
<polygon fill="#e0e0e0" stroke="#999999" points="236.5,-19 184.5,-19 184.5,0 236.5,0 236.5,-19"/>
<text text-anchor="middle" x="210.5" y="-7" font-family="Helvetica,sans-Serif" font-size="10.00">QRectF</text>
</a>
</g>
</g>
<!-- Node3&#45;&gt;Node8 -->
<g id="edge7_Node000003_Node000008" class="edge">
<title>Node3&#45;&gt;Node8</title>
<g id="a_edge7_Node000003_Node000008"><a xlink:title=" ">
<path fill="none" stroke="#63b8ff" d="M269.25,-54.98C258.7,-47 242.7,-34.88 230.06,-25.31"/>
<polygon fill="#63b8ff" stroke="#63b8ff" points="232.04,-22.42 221.95,-19.17 227.81,-28 232.04,-22.42"/>
</a>
</g>
</g>
<!-- Node9 -->
<g id="Node000009" class="node">
<title>Node9</title>
<g id="a_Node000009"><a xlink:title=" ">
<polygon fill="#e0e0e0" stroke="#999999" points="308,-19 255,-19 255,0 308,0 308,-19"/>
<text text-anchor="middle" x="281.5" y="-7" font-family="Helvetica,sans-Serif" font-size="10.00">QString</text>
</a>
</g>
</g>
<!-- Node3&#45;&gt;Node9 -->
<g id="edge8_Node000003_Node000009" class="edge">
<title>Node3&#45;&gt;Node9</title>
<g id="a_edge8_Node000003_Node000009"><a xlink:title=" ">
<path fill="none" stroke="#63b8ff" d="M280.67,-54.75C280.8,-47.8 280.98,-37.85 281.15,-29.13"/>
<polygon fill="#63b8ff" stroke="#63b8ff" points="284.65,-29.15 281.34,-19.09 277.65,-29.02 284.65,-29.15"/>
</a>
</g>
</g>
<!-- Node10&#45;&gt;Node3 -->
<g id="edge11_Node000010_Node000003" class="edge">
<title>Node10&#45;&gt;Node3</title>
<g id="a_edge11_Node000010_Node000003"><a xlink:title=" ">
<path fill="none" stroke="#63b8ff" d="M404.72,-109.98C380.27,-101.23 341.97,-87.51 314.35,-77.62"/>
<polygon fill="#63b8ff" stroke="#63b8ff" points="315.31,-74.25 304.71,-74.17 312.95,-80.84 315.31,-74.25"/>
</a>
</g>
</g>
<!-- Node11&#45;&gt;Node3 -->
<g id="edge13_Node000011_Node000003" class="edge">
<title>Node11&#45;&gt;Node3</title>
<g id="a_edge13_Node000011_Node000003"><a xlink:title=" ">
<path fill="none" stroke="#63b8ff" d="M280.5,-109.75C280.5,-102.8 280.5,-92.85 280.5,-84.13"/>
<polygon fill="#63b8ff" stroke="#63b8ff" points="284,-84.09 280.5,-74.09 277,-84.09 284,-84.09"/>
</a>
</g>
</g>
</g>
</svg>
