<?xml version="1.0" encoding="UTF-8" standalone="no"?>
<!DOCTYPE svg PUBLIC "-//W3C//DTD SVG 1.1//EN"
 "http://www.w3.org/Graphics/SVG/1.1/DTD/svg11.dtd">
<!-- Generated by graphviz version 2.43.0 (0)
 -->
<!-- Title: core/kicad/SymbolGraphicsGenerator.h Pages: 1 -->
<svg width="913pt" height="236pt"
 viewBox="0.00 0.00 913.00 236.00" xmlns="http://www.w3.org/2000/svg" xmlns:xlink="http://www.w3.org/1999/xlink">
<g id="graph0" class="graph" transform="scale(1 1) rotate(0) translate(4 232)">
<title>core/kicad/SymbolGraphicsGenerator.h</title>
<!-- Node1 -->
<g id="Node000001" class="node">
<title>Node1</title>
<g id="a_Node000001"><a xlink:title=" ">
<polygon fill="#999999" stroke="#666666" points="667.5,-228 518.5,-228 518.5,-198 667.5,-198 667.5,-228"/>
<text text-anchor="start" x="526.5" y="-216" font-family="Helvetica,sans-Serif" font-size="10.00">core/kicad/SymbolGraphics</text>
<text text-anchor="middle" x="593" y="-205" font-family="Helvetica,sans-Serif" font-size="10.00">Generator.h</text>
</a>
</g>
</g>
<!-- Node2 -->
<g id="Node000002" class="node">
<title>Node2</title>
<g id="a_Node000002"><a xlink:href="ExporterSymbol_8h.html" target="_top" xlink:title=" ">
<polygon fill="white" stroke="#666666" points="586.5,-156.5 429.5,-156.5 429.5,-137.5 586.5,-137.5 586.5,-156.5"/>
<text text-anchor="middle" x="508" y="-144.5" font-family="Helvetica,sans-Serif" font-size="10.00">core/kicad/ExporterSymbol.h</text>
</a>
</g>
</g>
<!-- Node1&#45;&gt;Node2 -->
<g id="edge1_Node000001_Node000002" class="edge">
<title>Node1&#45;&gt;Node2</title>
<g id="a_edge1_Node000001_Node000002"><a xlink:title=" ">
<path fill="none" stroke="#63b8ff" d="M565.89,-191.58C550.33,-179.87 531.6,-165.77 519.75,-156.84"/>
<polygon fill="#63b8ff" stroke="#63b8ff" points="564.04,-194.58 574.14,-197.8 568.25,-188.99 564.04,-194.58"/>
</a>
</g>
</g>
<!-- Node10 -->
<g id="Node000010" class="node">
<title>Node10</title>
<g id="a_Node000010"><a xlink:href="SymbolGraphicsGenerator_8cpp.html" target="_top" xlink:title=" ">
<polygon fill="white" stroke="#666666" points="753.5,-162 604.5,-162 604.5,-132 753.5,-132 753.5,-162"/>
<text text-anchor="start" x="612.5" y="-150" font-family="Helvetica,sans-Serif" font-size="10.00">core/kicad/SymbolGraphics</text>
<text text-anchor="middle" x="679" y="-139" font-family="Helvetica,sans-Serif" font-size="10.00">Generator.cpp</text>
</a>
</g>
</g>
<!-- Node1&#45;&gt;Node10 -->
<g id="edge10_Node000001_Node000010" class="edge">
<title>Node1&#45;&gt;Node10</title>
<g id="a_edge10_Node000001_Node000010"><a xlink:title=" ">
<path fill="none" stroke="#63b8ff" d="M620.21,-191.75C633.14,-182.13 648.29,-170.86 659.97,-162.16"/>
<polygon fill="#63b8ff" stroke="#63b8ff" points="618.02,-189.02 612.09,-197.8 622.2,-194.63 618.02,-189.02"/>
</a>
</g>
</g>
<!-- Node3 -->
<g id="Node000003" class="node">
<title>Node3</title>
<g id="a_Node000003"><a xlink:href="ExporterSymbol_8cpp.html" target="_top" xlink:title=" ">
<polygon fill="white" stroke="#666666" points="168,-90.5 0,-90.5 0,-71.5 168,-71.5 168,-90.5"/>
<text text-anchor="middle" x="84" y="-78.5" font-family="Helvetica,sans-Serif" font-size="10.00">core/kicad/ExporterSymbol.cpp</text>
</a>
</g>
</g>
<!-- Node2&#45;&gt;Node3 -->
<g id="edge2_Node000002_Node000003" class="edge">
<title>Node2&#45;&gt;Node3</title>
<g id="a_edge2_Node000002_Node000003"><a xlink:title=" ">
<path fill="none" stroke="#63b8ff" d="M441.18,-135.91C358.23,-123.39 218.21,-102.26 140.41,-90.51"/>
<polygon fill="#63b8ff" stroke="#63b8ff" points="440.85,-139.4 451.26,-137.44 441.89,-132.48 440.85,-139.4"/>
</a>
</g>
</g>
<!-- Node4 -->
<g id="Node000004" class="node">
<title>Node4</title>
<g id="a_Node000004"><a xlink:href="ComponentExportTask_8cpp.html" target="_top" xlink:title=" ">
<polygon fill="white" stroke="#666666" points="334,-96 186,-96 186,-66 334,-66 334,-96"/>
<text text-anchor="start" x="194" y="-84" font-family="Helvetica,sans-Serif" font-size="10.00">services/ComponentExport</text>
<text text-anchor="middle" x="260" y="-73" font-family="Helvetica,sans-Serif" font-size="10.00">Task.cpp</text>
</a>
</g>
</g>
<!-- Node2&#45;&gt;Node4 -->
<g id="edge3_Node000002_Node000004" class="edge">
<title>Node2&#45;&gt;Node4</title>
<g id="a_edge3_Node000002_Node000004"><a xlink:title=" ">
<path fill="none" stroke="#63b8ff" d="M464.94,-134.89C423.16,-124.1 359.59,-107.7 314.35,-96.02"/>
<polygon fill="#63b8ff" stroke="#63b8ff" points="464.25,-138.33 474.81,-137.44 466,-131.55 464.25,-138.33"/>
</a>
</g>
</g>
<!-- Node5 -->
<g id="Node000005" class="node">
<title>Node5</title>
<g id="a_Node000005"><a xlink:href="ExportService_8cpp.html" target="_top" xlink:title=" ">
<polygon fill="white" stroke="#666666" points="500,-90.5 352,-90.5 352,-71.5 500,-71.5 500,-90.5"/>
<text text-anchor="middle" x="426" y="-78.5" font-family="Helvetica,sans-Serif" font-size="10.00">services/ExportService.cpp</text>
</a>
</g>
</g>
<!-- Node2&#45;&gt;Node5 -->
<g id="edge4_Node000002_Node000005" class="edge">
<title>Node2&#45;&gt;Node5</title>
<g id="a_edge4_Node000002_Node000005"><a xlink:title=" ">
<path fill="none" stroke="#63b8ff" d="M488.77,-130.99C472.71,-118.46 450.39,-101.04 437.15,-90.7"/>
<polygon fill="#63b8ff" stroke="#63b8ff" points="486.9,-133.98 496.94,-137.37 491.21,-128.46 486.9,-133.98"/>
</a>
</g>
</g>
<!-- Node6 -->
<g id="Node000006" class="node">
<title>Node6</title>
<g id="a_Node000006"><a xlink:href="ExportWorker_8cpp.html" target="_top" xlink:title=" ">
<polygon fill="white" stroke="#666666" points="661.5,-90.5 518.5,-90.5 518.5,-71.5 661.5,-71.5 661.5,-90.5"/>
<text text-anchor="middle" x="590" y="-78.5" font-family="Helvetica,sans-Serif" font-size="10.00">workers/ExportWorker.cpp</text>
</a>
</g>
</g>
<!-- Node2&#45;&gt;Node6 -->
<g id="edge5_Node000002_Node000006" class="edge">
<title>Node2&#45;&gt;Node6</title>
<g id="a_edge5_Node000002_Node000006"><a xlink:title=" ">
<path fill="none" stroke="#63b8ff" d="M527.23,-130.99C543.29,-118.46 565.61,-101.04 578.85,-90.7"/>
<polygon fill="#63b8ff" stroke="#63b8ff" points="524.79,-128.46 519.06,-137.37 529.1,-133.98 524.79,-128.46"/>
</a>
</g>
</g>
<!-- Node7 -->
<g id="Node000007" class="node">
<title>Node7</title>
<g id="a_Node000007"><a xlink:href="WriteWorker_8cpp.html" target="_top" xlink:title=" ">
<polygon fill="white" stroke="#666666" points="758.5,-24.5 621.5,-24.5 621.5,-5.5 758.5,-5.5 758.5,-24.5"/>
<text text-anchor="middle" x="690" y="-12.5" font-family="Helvetica,sans-Serif" font-size="10.00">workers/WriteWorker.cpp</text>
</a>
</g>
</g>
<!-- Node2&#45;&gt;Node7 -->
<g id="edge6_Node000002_Node000007" class="edge">
<title>Node2&#45;&gt;Node7</title>
<g id="a_edge6_Node000002_Node000007"><a xlink:title=" ">
<path fill="none" stroke="#63b8ff" d="M562.71,-135.31C604.01,-126.16 656.04,-111.96 671,-96 689.75,-76 691.06,-41 690.55,-24.75"/>
<polygon fill="#63b8ff" stroke="#63b8ff" points="561.77,-131.93 552.74,-137.47 563.26,-138.77 561.77,-131.93"/>
</a>
</g>
</g>
<!-- Node8 -->
<g id="Node000008" class="node">
<title>Node8</title>
<g id="a_Node000008"><a xlink:href="WriteWorker_8h.html" target="_top" xlink:title=" ">
<polygon fill="white" stroke="#666666" points="844,-90.5 718,-90.5 718,-71.5 844,-71.5 844,-90.5"/>
<text text-anchor="middle" x="781" y="-78.5" font-family="Helvetica,sans-Serif" font-size="10.00">workers/WriteWorker.h</text>
</a>
</g>
</g>
<!-- Node2&#45;&gt;Node8 -->
<g id="edge7_Node000002_Node000008" class="edge">
<title>Node2&#45;&gt;Node8</title>
<g id="a_edge7_Node000002_Node000008"><a xlink:title=" ">
<path fill="none" stroke="#63b8ff" d="M554.49,-135.1C608.26,-122.49 695.66,-102.01 744.68,-90.51"/>
<polygon fill="#63b8ff" stroke="#63b8ff" points="553.47,-131.74 544.53,-137.44 555.07,-138.56 553.47,-131.74"/>
</a>
</g>
</g>
<!-- Node8&#45;&gt;Node7 -->
<g id="edge9_Node000008_Node000007" class="edge">
<title>Node8&#45;&gt;Node7</title>
<g id="a_edge9_Node000008_Node000007"><a xlink:title=" ">
<path fill="none" stroke="#63b8ff" d="M760.15,-65.33C742.3,-52.78 717.2,-35.13 702.37,-24.7"/>
<polygon fill="#63b8ff" stroke="#63b8ff" points="758.53,-68.48 768.73,-71.37 762.56,-62.75 758.53,-68.48"/>
</a>
</g>
</g>
<!-- Node9 -->
<g id="Node000009" class="node">
<title>Node9</title>
<g id="a_Node000009"><a xlink:href="ExportService__Pipeline_8cpp.html" target="_top" xlink:title=" ">
<polygon fill="white" stroke="#666666" points="905,-30 777,-30 777,0 905,0 905,-30"/>
<text text-anchor="start" x="785" y="-18" font-family="Helvetica,sans-Serif" font-size="10.00">services/ExportService</text>
<text text-anchor="middle" x="841" y="-7" font-family="Helvetica,sans-Serif" font-size="10.00">_Pipeline.cpp</text>
</a>
</g>
</g>
<!-- Node8&#45;&gt;Node9 -->
<g id="edge8_Node000008_Node000009" class="edge">
<title>Node8&#45;&gt;Node9</title>
<g id="a_edge8_Node000008_Node000009"><a xlink:title=" ">
<path fill="none" stroke="#63b8ff" d="M796.14,-63.85C805.8,-53.54 818.22,-40.3 827.54,-30.36"/>
<polygon fill="#63b8ff" stroke="#63b8ff" points="793.38,-61.68 789.09,-71.37 798.48,-66.47 793.38,-61.68"/>
</a>
</g>
</g>
</g>
</svg>
