<?xml version="1.0" encoding="UTF-8" standalone="no"?>
<!DOCTYPE svg PUBLIC "-//W3C//DTD SVG 1.1//EN"
 "http://www.w3.org/Graphics/SVG/1.1/DTD/svg11.dtd">
<!-- Generated by graphviz version 2.43.0 (0)
 -->
<!-- Title: core/kicad/SymbolGraphicsGenerator.cpp Pages: 1 -->
<svg width="806pt" height="203pt"
 viewBox="0.00 0.00 805.50 203.00" xmlns="http://www.w3.org/2000/svg" xmlns:xlink="http://www.w3.org/1999/xlink">
<g id="graph0" class="graph" transform="scale(1 1) rotate(0) translate(4 199)">
<title>core/kicad/SymbolGraphicsGenerator.cpp</title>
<!-- Node1 -->
<g id="Node000001" class="node">
<title>Node1</title>
<g id="a_Node000001"><a xlink:title=" ">
<polygon fill="#999999" stroke="#666666" points="603.5,-195 454.5,-195 454.5,-165 603.5,-165 603.5,-195"/>
<text text-anchor="start" x="462.5" y="-183" font-family="Helvetica,sans-Serif" font-size="10.00">core/kicad/SymbolGraphics</text>
<text text-anchor="middle" x="529" y="-172" font-family="Helvetica,sans-Serif" font-size="10.00">Generator.cpp</text>
</a>
</g>
</g>
<!-- Node2 -->
<g id="Node000002" class="node">
<title>Node2</title>
<g id="a_Node000002"><a xlink:href="SymbolGraphicsGenerator_8h.html" target="_top" xlink:title=" ">
<polygon fill="white" stroke="#666666" points="349.5,-129 196.5,-129 196.5,-110 349.5,-110 349.5,-129"/>
<text text-anchor="middle" x="273" y="-117" font-family="Helvetica,sans-Serif" font-size="10.00">SymbolGraphicsGenerator.h</text>
</a>
</g>
</g>
<!-- Node1&#45;&gt;Node2 -->
<g id="edge1_Node000001_Node000002" class="edge">
<title>Node1&#45;&gt;Node2</title>
<g id="a_edge1_Node000001_Node000002"><a xlink:title=" ">
<path fill="none" stroke="#63b8ff" d="M467.68,-164.99C422.45,-154.65 361.8,-140.79 320.29,-131.31"/>
<polygon fill="#63b8ff" stroke="#63b8ff" points="320.96,-127.87 310.43,-129.05 319.4,-134.69 320.96,-127.87"/>
</a>
</g>
</g>
<!-- Node10 -->
<g id="Node000010" class="node">
<title>Node10</title>
<g id="a_Node000010"><a xlink:href="GeometryUtils_8h.html" target="_top" xlink:title=" ">
<polygon fill="white" stroke="#666666" points="551.5,-129 406.5,-129 406.5,-110 551.5,-110 551.5,-129"/>
<text text-anchor="middle" x="479" y="-117" font-family="Helvetica,sans-Serif" font-size="10.00">core/utils/GeometryUtils.h</text>
</a>
</g>
</g>
<!-- Node1&#45;&gt;Node10 -->
<g id="edge10_Node000001_Node000010" class="edge">
<title>Node1&#45;&gt;Node10</title>
<g id="a_edge10_Node000001_Node000010"><a xlink:title=" ">
<path fill="none" stroke="#63b8ff" d="M516.9,-164.84C509.71,-156.43 500.57,-145.74 493.07,-136.96"/>
<polygon fill="#63b8ff" stroke="#63b8ff" points="495.65,-134.59 486.49,-129.27 490.33,-139.14 495.65,-134.59"/>
</a>
</g>
</g>
<!-- Node11 -->
<g id="Node000011" class="node">
<title>Node11</title>
<g id="a_Node000011"><a xlink:title=" ">
<polygon fill="#e0e0e0" stroke="#999999" points="579.5,-74 532.5,-74 532.5,-55 579.5,-55 579.5,-74"/>
<text text-anchor="middle" x="556" y="-62" font-family="Helvetica,sans-Serif" font-size="10.00">cmath</text>
</a>
</g>
</g>
<!-- Node1&#45;&gt;Node11 -->
<g id="edge19_Node000001_Node000011" class="edge">
<title>Node1&#45;&gt;Node11</title>
<g id="a_edge19_Node000001_Node000011"><a xlink:title=" ">
<path fill="none" stroke="#63b8ff" d="M541.23,-164.79C548.54,-155.33 557.12,-142.25 561,-129 565.28,-114.39 563.51,-97.13 560.96,-84.29"/>
<polygon fill="#63b8ff" stroke="#63b8ff" points="564.32,-83.28 558.65,-74.33 557.5,-84.86 564.32,-83.28"/>
</a>
</g>
</g>
<!-- Node12 -->
<g id="Node000012" class="node">
<title>Node12</title>
<g id="a_Node000012"><a xlink:href="SvgPathParser_8h.html" target="_top" xlink:title=" ">
<polygon fill="white" stroke="#666666" points="450,-74 308,-74 308,-55 450,-55 450,-74"/>
<text text-anchor="middle" x="379" y="-62" font-family="Helvetica,sans-Serif" font-size="10.00">core/utils/SvgPathParser.h</text>
</a>
</g>
</g>
<!-- Node1&#45;&gt;Node12 -->
<g id="edge13_Node000001_Node000012" class="edge">
<title>Node1&#45;&gt;Node12</title>
<g id="a_edge13_Node000001_Node000012"><a xlink:title=" ">
<path fill="none" stroke="#63b8ff" d="M458.09,-164.89C436.3,-157.44 413.9,-146.12 398,-129 386.74,-116.88 382.14,-98.35 380.26,-84.43"/>
<polygon fill="#63b8ff" stroke="#63b8ff" points="383.71,-83.67 379.24,-74.06 376.74,-84.36 383.71,-83.67"/>
</a>
</g>
</g>
<!-- Node13 -->
<g id="Node000013" class="node">
<title>Node13</title>
<g id="a_Node000013"><a xlink:title=" ">
<polygon fill="#e0e0e0" stroke="#999999" points="664,-129 608,-129 608,-110 664,-110 664,-129"/>
<text text-anchor="middle" x="636" y="-117" font-family="Helvetica,sans-Serif" font-size="10.00">QDebug</text>
</a>
</g>
</g>
<!-- Node1&#45;&gt;Node13 -->
<g id="edge17_Node000001_Node000013" class="edge">
<title>Node1&#45;&gt;Node13</title>
<g id="a_edge17_Node000001_Node000013"><a xlink:title=" ">
<path fill="none" stroke="#63b8ff" d="M554.63,-164.99C571.84,-155.58 594.4,-143.24 611.4,-133.95"/>
<polygon fill="#63b8ff" stroke="#63b8ff" points="613.1,-137.01 620.2,-129.14 609.75,-130.87 613.1,-137.01"/>
</a>
</g>
</g>
<!-- Node14 -->
<g id="Node000014" class="node">
<title>Node14</title>
<g id="a_Node000014"><a xlink:title=" ">
<polygon fill="#e0e0e0" stroke="#999999" points="797.5,-129 682.5,-129 682.5,-110 797.5,-110 797.5,-129"/>
<text text-anchor="middle" x="740" y="-117" font-family="Helvetica,sans-Serif" font-size="10.00">QRegularExpression</text>
</a>
</g>
</g>
<!-- Node1&#45;&gt;Node14 -->
<g id="edge18_Node000001_Node000014" class="edge">
<title>Node1&#45;&gt;Node14</title>
<g id="a_edge18_Node000001_Node000014"><a xlink:title=" ">
<path fill="none" stroke="#63b8ff" d="M579.54,-164.99C616.27,-154.8 665.33,-141.2 699.49,-131.73"/>
<polygon fill="#63b8ff" stroke="#63b8ff" points="700.45,-135.1 709.15,-129.05 698.58,-128.35 700.45,-135.1"/>
</a>
</g>
</g>
<!-- Node3 -->
<g id="Node000003" class="node">
<title>Node3</title>
<g id="a_Node000003"><a xlink:href="SymbolData_8h.html" target="_top" xlink:title=" ">
<polygon fill="white" stroke="#666666" points="251.5,-74 126.5,-74 126.5,-55 251.5,-55 251.5,-74"/>
<text text-anchor="middle" x="189" y="-62" font-family="Helvetica,sans-Serif" font-size="10.00">models/SymbolData.h</text>
</a>
</g>
</g>
<!-- Node2&#45;&gt;Node3 -->
<g id="edge2_Node000002_Node000003" class="edge">
<title>Node2&#45;&gt;Node3</title>
<g id="a_edge2_Node000002_Node000003"><a xlink:title=" ">
<path fill="none" stroke="#63b8ff" d="M259.5,-109.98C246.6,-101.84 226.9,-89.41 211.6,-79.76"/>
<polygon fill="#63b8ff" stroke="#63b8ff" points="213.07,-76.55 202.74,-74.17 209.33,-82.47 213.07,-76.55"/>
</a>
</g>
</g>
<!-- Node9 -->
<g id="Node000009" class="node">
<title>Node9</title>
<g id="a_Node000009"><a xlink:title=" ">
<polygon fill="#e0e0e0" stroke="#999999" points="306.5,-19 253.5,-19 253.5,0 306.5,0 306.5,-19"/>
<text text-anchor="middle" x="280" y="-7" font-family="Helvetica,sans-Serif" font-size="10.00">QString</text>
</a>
</g>
</g>
<!-- Node2&#45;&gt;Node9 -->
<g id="edge9_Node000002_Node000009" class="edge">
<title>Node2&#45;&gt;Node9</title>
<g id="a_edge9_Node000002_Node000009"><a xlink:title=" ">
<path fill="none" stroke="#63b8ff" d="M273.57,-109.66C274.71,-92.17 277.26,-52.8 278.78,-29.27"/>
<polygon fill="#63b8ff" stroke="#63b8ff" points="282.28,-29.36 279.44,-19.16 275.3,-28.91 282.28,-29.36"/>
</a>
</g>
</g>
<!-- Node4 -->
<g id="Node000004" class="node">
<title>Node4</title>
<g id="a_Node000004"><a xlink:title=" ">
<polygon fill="#e0e0e0" stroke="#999999" points="235.5,-19 164.5,-19 164.5,0 235.5,0 235.5,-19"/>
<text text-anchor="middle" x="200" y="-7" font-family="Helvetica,sans-Serif" font-size="10.00">QJsonArray</text>
</a>
</g>
</g>
<!-- Node3&#45;&gt;Node4 -->
<g id="edge3_Node000003_Node000004" class="edge">
<title>Node3&#45;&gt;Node4</title>
<g id="a_edge3_Node000003_Node000004"><a xlink:title=" ">
<path fill="none" stroke="#63b8ff" d="M190.82,-54.75C192.26,-47.8 194.32,-37.85 196.13,-29.13"/>
<polygon fill="#63b8ff" stroke="#63b8ff" points="199.61,-29.59 198.22,-19.09 192.76,-28.17 199.61,-29.59"/>
</a>
</g>
</g>
<!-- Node5 -->
<g id="Node000005" class="node">
<title>Node5</title>
<g id="a_Node000005"><a xlink:title=" ">
<polygon fill="#e0e0e0" stroke="#999999" points="76,-19 0,-19 0,0 76,0 76,-19"/>
<text text-anchor="middle" x="38" y="-7" font-family="Helvetica,sans-Serif" font-size="10.00">QJsonObject</text>
</a>
</g>
</g>
<!-- Node3&#45;&gt;Node5 -->
<g id="edge4_Node000003_Node000005" class="edge">
<title>Node3&#45;&gt;Node5</title>
<g id="a_edge4_Node000003_Node000005"><a xlink:title=" ">
<path fill="none" stroke="#63b8ff" d="M164.74,-54.98C139.68,-46.19 100.37,-32.39 72.17,-22.49"/>
<polygon fill="#63b8ff" stroke="#63b8ff" points="73.3,-19.18 62.7,-19.17 70.98,-25.78 73.3,-19.18"/>
</a>
</g>
</g>
<!-- Node6 -->
<g id="Node000006" class="node">
<title>Node6</title>
<g id="a_Node000006"><a xlink:title=" ">
<polygon fill="#e0e0e0" stroke="#999999" points="365.5,-19 324.5,-19 324.5,0 365.5,0 365.5,-19"/>
<text text-anchor="middle" x="345" y="-7" font-family="Helvetica,sans-Serif" font-size="10.00">QList</text>
</a>
</g>
</g>
<!-- Node3&#45;&gt;Node6 -->
<g id="edge5_Node000003_Node000006" class="edge">
<title>Node3&#45;&gt;Node6</title>
<g id="a_edge5_Node000003_Node000006"><a xlink:title=" ">
<path fill="none" stroke="#63b8ff" d="M214.06,-54.98C241.49,-45.67 285.45,-30.73 314.77,-20.77"/>
<polygon fill="#63b8ff" stroke="#63b8ff" points="316.14,-24 324.48,-17.47 313.89,-17.37 316.14,-24"/>
</a>
</g>
</g>
<!-- Node7 -->
<g id="Node000007" class="node">
<title>Node7</title>
<g id="a_Node000007"><a xlink:title=" ">
<polygon fill="#e0e0e0" stroke="#999999" points="438.5,-19 383.5,-19 383.5,0 438.5,0 438.5,-19"/>
<text text-anchor="middle" x="411" y="-7" font-family="Helvetica,sans-Serif" font-size="10.00">QPointF</text>
</a>
</g>
</g>
<!-- Node3&#45;&gt;Node7 -->
<g id="edge6_Node000003_Node000007" class="edge">
<title>Node3&#45;&gt;Node7</title>
<g id="a_edge6_Node000003_Node000007"><a xlink:title=" ">
<path fill="none" stroke="#63b8ff" d="M224.67,-54.98C265.54,-45.23 332.23,-29.31 373.75,-19.39"/>
<polygon fill="#63b8ff" stroke="#63b8ff" points="374.57,-22.8 383.48,-17.07 372.94,-15.99 374.57,-22.8"/>
</a>
</g>
</g>
<!-- Node8 -->
<g id="Node000008" class="node">
<title>Node8</title>
<g id="a_Node000008"><a xlink:title=" ">
<polygon fill="#e0e0e0" stroke="#999999" points="146,-19 94,-19 94,0 146,0 146,-19"/>
<text text-anchor="middle" x="120" y="-7" font-family="Helvetica,sans-Serif" font-size="10.00">QRectF</text>
</a>
</g>
</g>
<!-- Node3&#45;&gt;Node8 -->
<g id="edge7_Node000003_Node000008" class="edge">
<title>Node3&#45;&gt;Node8</title>
<g id="a_edge7_Node000003_Node000008"><a xlink:title=" ">
<path fill="none" stroke="#63b8ff" d="M177.91,-54.98C167.51,-47 151.74,-34.88 139.28,-25.31"/>
<polygon fill="#63b8ff" stroke="#63b8ff" points="141.35,-22.49 131.29,-19.17 137.09,-28.04 141.35,-22.49"/>
</a>
</g>
</g>
<!-- Node3&#45;&gt;Node9 -->
<g id="edge8_Node000003_Node000009" class="edge">
<title>Node3&#45;&gt;Node9</title>
<g id="a_edge8_Node000003_Node000009"><a xlink:title=" ">
<path fill="none" stroke="#63b8ff" d="M203.62,-54.98C217.86,-46.69 239.75,-33.94 256.45,-24.22"/>
<polygon fill="#63b8ff" stroke="#63b8ff" points="258.23,-27.23 265.11,-19.17 254.71,-21.18 258.23,-27.23"/>
</a>
</g>
</g>
<!-- Node10&#45;&gt;Node7 -->
<g id="edge11_Node000010_Node000007" class="edge">
<title>Node10&#45;&gt;Node7</title>
<g id="a_edge11_Node000010_Node000007"><a xlink:title=" ">
<path fill="none" stroke="#63b8ff" d="M477.7,-109.68C475.49,-96.83 470.12,-72.58 459,-55 451.76,-43.56 440.87,-33.13 431.29,-25.25"/>
<polygon fill="#63b8ff" stroke="#63b8ff" points="433.36,-22.43 423.33,-19.02 429.05,-27.94 433.36,-22.43"/>
</a>
</g>
</g>
<!-- Node10&#45;&gt;Node11 -->
<g id="edge12_Node000010_Node000011" class="edge">
<title>Node10&#45;&gt;Node11</title>
<g id="a_edge12_Node000010_Node000011"><a xlink:title=" ">
<path fill="none" stroke="#63b8ff" d="M491.37,-109.98C503.09,-101.92 520.92,-89.65 534.89,-80.03"/>
<polygon fill="#63b8ff" stroke="#63b8ff" points="537.15,-82.72 543.4,-74.17 533.18,-76.96 537.15,-82.72"/>
</a>
</g>
</g>
<!-- Node12&#45;&gt;Node6 -->
<g id="edge14_Node000012_Node000006" class="edge">
<title>Node12&#45;&gt;Node6</title>
<g id="a_edge14_Node000012_Node000006"><a xlink:title=" ">
<path fill="none" stroke="#63b8ff" d="M373.39,-54.75C368.68,-47.42 361.83,-36.73 356.03,-27.7"/>
<polygon fill="#63b8ff" stroke="#63b8ff" points="358.86,-25.62 350.51,-19.09 352.96,-29.4 358.86,-25.62"/>
</a>
</g>
</g>
<!-- Node12&#45;&gt;Node7 -->
<g id="edge15_Node000012_Node000007" class="edge">
<title>Node12&#45;&gt;Node7</title>
<g id="a_edge15_Node000012_Node000007"><a xlink:title=" ">
<path fill="none" stroke="#63b8ff" d="M384.28,-54.75C388.71,-47.42 395.16,-36.73 400.62,-27.7"/>
<polygon fill="#63b8ff" stroke="#63b8ff" points="403.64,-29.46 405.81,-19.09 397.65,-25.84 403.64,-29.46"/>
</a>
</g>
</g>
<!-- Node12&#45;&gt;Node9 -->
<g id="edge16_Node000012_Node000009" class="edge">
<title>Node12&#45;&gt;Node9</title>
<g id="a_edge16_Node000012_Node000009"><a xlink:title=" ">
<path fill="none" stroke="#63b8ff" d="M363.09,-54.98C347.45,-46.61 323.34,-33.7 305.12,-23.95"/>
<polygon fill="#63b8ff" stroke="#63b8ff" points="306.66,-20.8 296.2,-19.17 303.36,-26.98 306.66,-20.8"/>
</a>
</g>
</g>
</g>
</svg>
