<?xml version="1.0" encoding="UTF-8" standalone="no"?>
<!DOCTYPE svg PUBLIC "-//W3C//DTD SVG 1.1//EN"
 "http://www.w3.org/Graphics/SVG/1.1/DTD/svg11.dtd">
<!-- Generated by graphviz version 2.43.0 (0)
 -->
<!-- Title: services/export/SymbolExportStage.cpp Pages: 1 -->
<svg width="1986pt" height="258pt"
 viewBox="0.00 0.00 1986.35 258.00" xmlns="http://www.w3.org/2000/svg" xmlns:xlink="http://www.w3.org/1999/xlink">
<g id="graph0" class="graph" transform="scale(1 1) rotate(0) translate(4 254)">
<title>services/export/SymbolExportStage.cpp</title>
<!-- Node1 -->
<g id="Node000001" class="node">
<title>Node1</title>
<g id="a_Node000001"><a xlink:title=" ">
<polygon fill="#999999" stroke="#666666" points="1063.35,-250 900.35,-250 900.35,-220 1063.35,-220 1063.35,-250"/>
<text text-anchor="start" x="908.35" y="-238" font-family="Helvetica,sans-Serif" font-size="10.00">services/export/SymbolExport</text>
<text text-anchor="middle" x="981.85" y="-227" font-family="Helvetica,sans-Serif" font-size="10.00">Stage.cpp</text>
</a>
</g>
</g>
<!-- Node2 -->
<g id="Node000002" class="node">
<title>Node2</title>
<g id="a_Node000002"><a xlink:href="SymbolExportStage_8h.html" target="_top" xlink:title=" ">
<polygon fill="white" stroke="#666666" points="748.85,-184 626.85,-184 626.85,-165 748.85,-165 748.85,-184"/>
<text text-anchor="middle" x="687.85" y="-172" font-family="Helvetica,sans-Serif" font-size="10.00">SymbolExportStage.h</text>
</a>
</g>
</g>
<!-- Node1&#45;&gt;Node2 -->
<g id="edge1_Node000001_Node000002" class="edge">
<title>Node1&#45;&gt;Node2</title>
<g id="a_edge1_Node000001_Node000002"><a xlink:title=" ">
<path fill="none" stroke="#63b8ff" d="M911.43,-219.99C858.93,-209.54 788.36,-195.5 740.65,-186.01"/>
<polygon fill="#63b8ff" stroke="#63b8ff" points="741.33,-182.57 730.84,-184.05 739.96,-189.44 741.33,-182.57"/>
</a>
</g>
</g>
<!-- Node4 -->
<g id="Node000004" class="node">
<title>Node4</title>
<g id="a_Node000004"><a xlink:title=" ">
<polygon fill="#e0e0e0" stroke="#999999" points="81.85,-19 9.85,-19 9.85,0 81.85,0 81.85,-19"/>
<text text-anchor="middle" x="45.85" y="-7" font-family="Helvetica,sans-Serif" font-size="10.00">QDateTime</text>
</a>
</g>
</g>
<!-- Node1&#45;&gt;Node4 -->
<g id="edge69_Node000001_Node000004" class="edge">
<title>Node1&#45;&gt;Node4</title>
<g id="a_edge69_Node000001_Node000004"><a xlink:title=" ">
<path fill="none" stroke="#63b8ff" d="M900.33,-233.59C774.93,-231.67 527.66,-222.75 321.85,-184 174.88,-156.33 87.77,-197.79 3.85,-74 -7.29,-57.57 9.1,-38.56 24.55,-25.66"/>
<polygon fill="#63b8ff" stroke="#63b8ff" points="27.12,-28.08 32.85,-19.17 22.82,-22.57 27.12,-28.08"/>
</a>
</g>
</g>
<!-- Node15 -->
<g id="Node000015" class="node">
<title>Node15</title>
<g id="a_Node000015"><a xlink:title=" ">
<polygon fill="#e0e0e0" stroke="#999999" points="983.85,-74 925.85,-74 925.85,-55 983.85,-55 983.85,-74"/>
<text text-anchor="middle" x="954.85" y="-62" font-family="Helvetica,sans-Serif" font-size="10.00">QThread</text>
</a>
</g>
</g>
<!-- Node1&#45;&gt;Node15 -->
<g id="edge75_Node000001_Node000015" class="edge">
<title>Node1&#45;&gt;Node15</title>
<g id="a_edge75_Node000001_Node000015"><a xlink:title=" ">
<path fill="none" stroke="#63b8ff" d="M911.07,-219.88C891.9,-212.47 873.3,-201.18 861.85,-184 843.61,-156.63 844.32,-137.83 861.85,-110 873.77,-91.09 896.19,-80.04 916.04,-73.68"/>
<polygon fill="#63b8ff" stroke="#63b8ff" points="917.18,-76.99 925.81,-70.84 915.23,-70.27 917.18,-76.99"/>
</a>
</g>
</g>
<!-- Node16 -->
<g id="Node000016" class="node">
<title>Node16</title>
<g id="a_Node000016"><a xlink:title=" ">
<polygon fill="#e0e0e0" stroke="#999999" points="1081.35,-74 1002.35,-74 1002.35,-55 1081.35,-55 1081.35,-74"/>
<text text-anchor="middle" x="1041.85" y="-62" font-family="Helvetica,sans-Serif" font-size="10.00">QThreadPool</text>
</a>
</g>
</g>
<!-- Node1&#45;&gt;Node16 -->
<g id="edge76_Node000001_Node000016" class="edge">
<title>Node1&#45;&gt;Node16</title>
<g id="a_edge76_Node000001_Node000016"><a xlink:title=" ">
<path fill="none" stroke="#63b8ff" d="M959.07,-219.88C924.52,-196.68 865.78,-149.17 894.85,-110 901.11,-101.57 955.31,-86.67 996.1,-76.45"/>
<polygon fill="#63b8ff" stroke="#63b8ff" points="997.01,-79.83 1005.88,-74.02 995.33,-73.03 997.01,-79.83"/>
</a>
</g>
</g>
<!-- Node19 -->
<g id="Node000019" class="node">
<title>Node19</title>
<g id="a_Node000019"><a xlink:title=" ">
<polygon fill="#e0e0e0" stroke="#999999" points="50.85,-74 12.85,-74 12.85,-55 50.85,-55 50.85,-74"/>
<text text-anchor="middle" x="31.85" y="-62" font-family="Helvetica,sans-Serif" font-size="10.00">QDir</text>
</a>
</g>
</g>
<!-- Node1&#45;&gt;Node19 -->
<g id="edge71_Node000001_Node000019" class="edge">
<title>Node1&#45;&gt;Node19</title>
<g id="a_edge71_Node000001_Node000019"><a xlink:title=" ">
<path fill="none" stroke="#63b8ff" d="M899.89,-230.54C790.52,-225.03 591.06,-211.92 422.85,-184 321.29,-167.14 296.12,-159.67 197.85,-129 148.73,-113.67 93.17,-91.37 60.4,-77.68"/>
<polygon fill="#63b8ff" stroke="#63b8ff" points="61.57,-74.38 50.99,-73.73 58.86,-80.83 61.57,-74.38"/>
</a>
</g>
</g>
<!-- Node20 -->
<g id="Node000020" class="node">
<title>Node20</title>
<g id="a_Node000020"><a xlink:title=" ">
<polygon fill="#e0e0e0" stroke="#999999" points="128.85,-74 68.85,-74 68.85,-55 128.85,-55 128.85,-74"/>
<text text-anchor="middle" x="98.85" y="-62" font-family="Helvetica,sans-Serif" font-size="10.00">QFileInfo</text>
</a>
</g>
</g>
<!-- Node1&#45;&gt;Node20 -->
<g id="edge73_Node000001_Node000020" class="edge">
<title>Node1&#45;&gt;Node20</title>
<g id="a_edge73_Node000001_Node000020"><a xlink:title=" ">
<path fill="none" stroke="#63b8ff" d="M900.31,-228.6C765.03,-218.21 486.54,-190.77 258.85,-129 210.7,-115.94 157.31,-92.91 125.99,-78.47"/>
<polygon fill="#63b8ff" stroke="#63b8ff" points="127.17,-75.16 116.63,-74.1 124.22,-81.5 127.17,-75.16"/>
</a>
</g>
</g>
<!-- Node22 -->
<g id="Node000022" class="node">
<title>Node22</title>
<g id="a_Node000022"><a xlink:href="DebugExportHelper_8h.html" target="_top" xlink:title=" ">
<polygon fill="white" stroke="#666666" points="1447.85,-74 1327.85,-74 1327.85,-55 1447.85,-55 1447.85,-74"/>
<text text-anchor="middle" x="1387.85" y="-62" font-family="Helvetica,sans-Serif" font-size="10.00">DebugExportHelper.h</text>
</a>
</g>
</g>
<!-- Node1&#45;&gt;Node22 -->
<g id="edge29_Node000001_Node000022" class="edge">
<title>Node1&#45;&gt;Node22</title>
<g id="a_edge29_Node000001_Node000022"><a xlink:title=" ">
<path fill="none" stroke="#63b8ff" d="M1063.68,-233.88C1132.68,-230.97 1232.58,-220 1311.85,-184 1346.31,-168.35 1358.04,-161.84 1376.85,-129 1384.59,-115.48 1387.16,-97.89 1387.9,-84.65"/>
<polygon fill="#63b8ff" stroke="#63b8ff" points="1391.41,-84.43 1388.16,-74.35 1384.41,-84.25 1391.41,-84.43"/>
</a>
</g>
</g>
<!-- Node27 -->
<g id="Node000027" class="node">
<title>Node27</title>
<g id="a_Node000027"><a xlink:href="KiCadLibraryTableManager_8h.html" target="_top" xlink:title=" ">
<polygon fill="white" stroke="#666666" points="1059.35,-129 904.35,-129 904.35,-110 1059.35,-110 1059.35,-129"/>
<text text-anchor="middle" x="981.85" y="-117" font-family="Helvetica,sans-Serif" font-size="10.00">KiCadLibraryTableManager.h</text>
</a>
</g>
</g>
<!-- Node1&#45;&gt;Node27 -->
<g id="edge36_Node000001_Node000027" class="edge">
<title>Node1&#45;&gt;Node27</title>
<g id="a_edge36_Node000001_Node000027"><a xlink:title=" ">
<path fill="none" stroke="#63b8ff" d="M981.85,-219.63C981.85,-199.21 981.85,-161.81 981.85,-139.24"/>
<polygon fill="#63b8ff" stroke="#63b8ff" points="985.35,-139.23 981.85,-129.23 978.35,-139.23 985.35,-139.23"/>
</a>
</g>
</g>
<!-- Node28 -->
<g id="Node000028" class="node">
<title>Node28</title>
<g id="a_Node000028"><a xlink:href="ExporterSymbol_8h.html" target="_top" xlink:title=" ">
<polygon fill="white" stroke="#666666" points="1302.35,-184 1145.35,-184 1145.35,-165 1302.35,-165 1302.35,-184"/>
<text text-anchor="middle" x="1223.85" y="-172" font-family="Helvetica,sans-Serif" font-size="10.00">core/kicad/ExporterSymbol.h</text>
</a>
</g>
</g>
<!-- Node1&#45;&gt;Node28 -->
<g id="edge38_Node000001_Node000028" class="edge">
<title>Node1&#45;&gt;Node28</title>
<g id="a_edge38_Node000001_Node000028"><a xlink:title=" ">
<path fill="none" stroke="#63b8ff" d="M1039.81,-219.99C1082.39,-209.7 1139.42,-195.91 1178.65,-186.43"/>
<polygon fill="#63b8ff" stroke="#63b8ff" points="1179.57,-189.81 1188.47,-184.05 1177.92,-183 1179.57,-189.81"/>
</a>
</g>
</g>
<!-- Node35 -->
<g id="Node000035" class="node">
<title>Node35</title>
<g id="a_Node000035"><a xlink:href="ComponentData_8h.html" target="_top" xlink:title=" ">
<polygon fill="white" stroke="#666666" points="1676.85,-184 1532.85,-184 1532.85,-165 1676.85,-165 1676.85,-184"/>
<text text-anchor="middle" x="1604.85" y="-172" font-family="Helvetica,sans-Serif" font-size="10.00">models/ComponentData.h</text>
</a>
</g>
</g>
<!-- Node1&#45;&gt;Node35 -->
<g id="edge52_Node000001_Node000035" class="edge">
<title>Node1&#45;&gt;Node35</title>
<g id="a_edge52_Node000001_Node000035"><a xlink:title=" ">
<path fill="none" stroke="#63b8ff" d="M1063.74,-226.52C1169.06,-216.87 1357.61,-199.47 1518.85,-184 1519.97,-183.89 1521.1,-183.78 1522.23,-183.67"/>
<polygon fill="#63b8ff" stroke="#63b8ff" points="1522.97,-187.12 1532.59,-182.67 1522.3,-180.15 1522.97,-187.12"/>
</a>
</g>
</g>
<!-- Node38 -->
<g id="Node000038" class="node">
<title>Node38</title>
<g id="a_Node000038"><a xlink:title=" ">
<polygon fill="#e0e0e0" stroke="#999999" points="1750.85,-184 1694.85,-184 1694.85,-165 1750.85,-165 1750.85,-184"/>
<text text-anchor="middle" x="1722.85" y="-172" font-family="Helvetica,sans-Serif" font-size="10.00">QDebug</text>
</a>
</g>
</g>
<!-- Node1&#45;&gt;Node38 -->
<g id="edge70_Node000001_Node000038" class="edge">
<title>Node1&#45;&gt;Node38</title>
<g id="a_edge70_Node000001_Node000038"><a xlink:title=" ">
<path fill="none" stroke="#63b8ff" d="M1063.6,-232.3C1193.42,-228.69 1454.73,-217.73 1684.76,-183.92"/>
<polygon fill="#63b8ff" stroke="#63b8ff" points="1685.28,-187.38 1694.65,-182.45 1684.25,-180.46 1685.28,-187.38"/>
</a>
</g>
</g>
<!-- Node39 -->
<g id="Node000039" class="node">
<title>Node39</title>
<g id="a_Node000039"><a xlink:title=" ">
<polygon fill="#e0e0e0" stroke="#999999" points="1810.35,-184 1769.35,-184 1769.35,-165 1810.35,-165 1810.35,-184"/>
<text text-anchor="middle" x="1789.85" y="-172" font-family="Helvetica,sans-Serif" font-size="10.00">QFile</text>
</a>
</g>
</g>
<!-- Node1&#45;&gt;Node39 -->
<g id="edge72_Node000001_Node000039" class="edge">
<title>Node1&#45;&gt;Node39</title>
<g id="a_edge72_Node000001_Node000039"><a xlink:title=" ">
<path fill="none" stroke="#63b8ff" d="M1063.43,-234.41C1204.03,-233.89 1500.91,-227.34 1759.37,-183.64"/>
<polygon fill="#63b8ff" stroke="#63b8ff" points="1760.06,-187.07 1769.32,-181.93 1758.88,-180.17 1760.06,-187.07"/>
</a>
</g>
</g>
<!-- Node40 -->
<g id="Node000040" class="node">
<title>Node40</title>
<g id="a_Node000040"><a xlink:title=" ">
<polygon fill="#e0e0e0" stroke="#999999" points="1914.85,-184 1828.85,-184 1828.85,-165 1914.85,-165 1914.85,-184"/>
<text text-anchor="middle" x="1871.85" y="-172" font-family="Helvetica,sans-Serif" font-size="10.00">QMutexLocker</text>
</a>
</g>
</g>
<!-- Node1&#45;&gt;Node40 -->
<g id="edge74_Node000001_Node000040" class="edge">
<title>Node1&#45;&gt;Node40</title>
<g id="a_edge74_Node000001_Node000040"><a xlink:title=" ">
<path fill="none" stroke="#63b8ff" d="M1063.57,-231.9C1211.98,-227.48 1535.84,-215.04 1818.72,-184"/>
<polygon fill="#63b8ff" stroke="#63b8ff" points="1819.21,-187.47 1828.77,-182.89 1818.44,-180.51 1819.21,-187.47"/>
</a>
</g>
</g>
<!-- Node3 -->
<g id="Node000003" class="node">
<title>Node3</title>
<g id="a_Node000003"><a xlink:href="ExportProgress_8h.html" target="_top" xlink:title=" ">
<polygon fill="white" stroke="#666666" points="246.35,-74 147.35,-74 147.35,-55 246.35,-55 246.35,-74"/>
<text text-anchor="middle" x="196.85" y="-62" font-family="Helvetica,sans-Serif" font-size="10.00">ExportProgress.h</text>
</a>
</g>
</g>
<!-- Node2&#45;&gt;Node3 -->
<g id="edge2_Node000002_Node000003" class="edge">
<title>Node2&#45;&gt;Node3</title>
<g id="a_edge2_Node000002_Node000003"><a xlink:title=" ">
<path fill="none" stroke="#63b8ff" d="M626.58,-174.4C548.94,-173.76 411.96,-166.64 301.85,-129 269.01,-117.78 235.45,-95.13 215.38,-80.13"/>
<polygon fill="#63b8ff" stroke="#63b8ff" points="217.48,-77.33 207.41,-74.04 213.23,-82.89 217.48,-77.33"/>
</a>
</g>
</g>
<!-- Node8 -->
<g id="Node000008" class="node">
<title>Node8</title>
<g id="a_Node000008"><a xlink:href="ExportTypeStage_8h.html" target="_top" xlink:title=" ">
<polygon fill="white" stroke="#666666" points="741.35,-129 634.35,-129 634.35,-110 741.35,-110 741.35,-129"/>
<text text-anchor="middle" x="687.85" y="-117" font-family="Helvetica,sans-Serif" font-size="10.00">ExportTypeStage.h</text>
</a>
</g>
</g>
<!-- Node2&#45;&gt;Node8 -->
<g id="edge7_Node000002_Node000008" class="edge">
<title>Node2&#45;&gt;Node8</title>
<g id="a_edge7_Node000002_Node000008"><a xlink:title=" ">
<path fill="none" stroke="#63b8ff" d="M687.85,-164.75C687.85,-157.8 687.85,-147.85 687.85,-139.13"/>
<polygon fill="#63b8ff" stroke="#63b8ff" points="691.35,-139.09 687.85,-129.09 684.35,-139.09 691.35,-139.09"/>
</a>
</g>
</g>
<!-- Node2&#45;&gt;Node15 -->
<g id="edge28_Node000002_Node000015" class="edge">
<title>Node2&#45;&gt;Node15</title>
<g id="a_edge28_Node000002_Node000015"><a xlink:title=" ">
<path fill="none" stroke="#63b8ff" d="M704.76,-164.87C730.22,-152.05 780.09,-127.59 823.85,-110 854.88,-97.53 890.9,-85.46 917.31,-77.05"/>
<polygon fill="#63b8ff" stroke="#63b8ff" points="918.45,-80.36 926.93,-74.01 916.34,-73.68 918.45,-80.36"/>
</a>
</g>
</g>
<!-- Node18 -->
<g id="Node000018" class="node">
<title>Node18</title>
<g id="a_Node000018"><a xlink:href="TempFileManager_8h.html" target="_top" xlink:title=" ">
<polygon fill="white" stroke="#666666" points="422.35,-129 311.35,-129 311.35,-110 422.35,-110 422.35,-129"/>
<text text-anchor="middle" x="366.85" y="-117" font-family="Helvetica,sans-Serif" font-size="10.00">TempFileManager.h</text>
</a>
</g>
</g>
<!-- Node2&#45;&gt;Node18 -->
<g id="edge20_Node000002_Node000018" class="edge">
<title>Node2&#45;&gt;Node18</title>
<g id="a_edge20_Node000002_Node000018"><a xlink:title=" ">
<path fill="none" stroke="#63b8ff" d="M636.28,-164.98C579.73,-155.65 489.04,-140.67 428.71,-130.71"/>
<polygon fill="#63b8ff" stroke="#63b8ff" points="429,-127.21 418.56,-129.04 427.86,-134.12 429,-127.21"/>
</a>
</g>
</g>
<!-- Node3&#45;&gt;Node4 -->
<g id="edge3_Node000003_Node000004" class="edge">
<title>Node3&#45;&gt;Node4</title>
<g id="a_edge3_Node000003_Node000004"><a xlink:title=" ">
<path fill="none" stroke="#63b8ff" d="M172.59,-54.98C147.53,-46.19 108.22,-32.39 80.02,-22.49"/>
<polygon fill="#63b8ff" stroke="#63b8ff" points="81.15,-19.18 70.55,-19.17 78.83,-25.78 81.15,-19.18"/>
</a>
</g>
</g>
<!-- Node5 -->
<g id="Node000005" class="node">
<title>Node5</title>
<g id="a_Node000005"><a xlink:title=" ">
<polygon fill="#e0e0e0" stroke="#999999" points="488.35,-19 443.35,-19 443.35,0 488.35,0 488.35,-19"/>
<text text-anchor="middle" x="465.85" y="-7" font-family="Helvetica,sans-Serif" font-size="10.00">QMap</text>
</a>
</g>
</g>
<!-- Node3&#45;&gt;Node5 -->
<g id="edge4_Node000003_Node000005" class="edge">
<title>Node3&#45;&gt;Node5</title>
<g id="a_edge4_Node000003_Node000005"><a xlink:title=" ">
<path fill="none" stroke="#63b8ff" d="M240.07,-54.98C293.89,-44.38 384.64,-26.5 433.07,-16.96"/>
<polygon fill="#63b8ff" stroke="#63b8ff" points="433.89,-20.36 443.02,-15 432.53,-13.5 433.89,-20.36"/>
</a>
</g>
</g>
<!-- Node6 -->
<g id="Node000006" class="node">
<title>Node6</title>
<g id="a_Node000006"><a xlink:title=" ">
<polygon fill="#e0e0e0" stroke="#999999" points="232.35,-19 161.35,-19 161.35,0 232.35,0 232.35,-19"/>
<text text-anchor="middle" x="196.85" y="-7" font-family="Helvetica,sans-Serif" font-size="10.00">QMetaType</text>
</a>
</g>
</g>
<!-- Node3&#45;&gt;Node6 -->
<g id="edge5_Node000003_Node000006" class="edge">
<title>Node3&#45;&gt;Node6</title>
<g id="a_edge5_Node000003_Node000006"><a xlink:title=" ">
<path fill="none" stroke="#63b8ff" d="M196.85,-54.75C196.85,-47.8 196.85,-37.85 196.85,-29.13"/>
<polygon fill="#63b8ff" stroke="#63b8ff" points="200.35,-29.09 196.85,-19.09 193.35,-29.09 200.35,-29.09"/>
</a>
</g>
</g>
<!-- Node7 -->
<g id="Node000007" class="node">
<title>Node7</title>
<g id="a_Node000007"><a xlink:title=" ">
<polygon fill="#e0e0e0" stroke="#999999" points="1204.35,-19 1151.35,-19 1151.35,0 1204.35,0 1204.35,-19"/>
<text text-anchor="middle" x="1177.85" y="-7" font-family="Helvetica,sans-Serif" font-size="10.00">QString</text>
</a>
</g>
</g>
<!-- Node3&#45;&gt;Node7 -->
<g id="edge6_Node000003_Node000007" class="edge">
<title>Node3&#45;&gt;Node7</title>
<g id="a_edge6_Node000003_Node000007"><a xlink:title=" ">
<path fill="none" stroke="#63b8ff" d="M246.42,-56.5C251.29,-55.94 256.16,-55.42 260.85,-55 602.11,-24.11 1016.9,-13.72 1141.06,-11.18"/>
<polygon fill="#63b8ff" stroke="#63b8ff" points="1141.23,-14.68 1151.16,-10.98 1141.09,-7.68 1141.23,-14.68"/>
</a>
</g>
</g>
<!-- Node8&#45;&gt;Node3 -->
<g id="edge8_Node000008_Node000003" class="edge">
<title>Node8&#45;&gt;Node3</title>
<g id="a_edge8_Node000008_Node000003"><a xlink:title=" ">
<path fill="none" stroke="#63b8ff" d="M633.9,-112.68C541.36,-102.69 353.05,-82.36 256.64,-71.95"/>
<polygon fill="#63b8ff" stroke="#63b8ff" points="256.8,-68.45 246.48,-70.86 256.04,-75.41 256.8,-68.45"/>
</a>
</g>
</g>
<!-- Node8&#45;&gt;Node5 -->
<g id="edge9_Node000008_Node000005" class="edge">
<title>Node8&#45;&gt;Node5</title>
<g id="a_edge9_Node000008_Node000005"><a xlink:title=" ">
<path fill="none" stroke="#63b8ff" d="M683.76,-109.6C676.91,-95.72 661.8,-69.07 640.85,-55 597.38,-25.81 536.15,-15.77 498.83,-12.31"/>
<polygon fill="#63b8ff" stroke="#63b8ff" points="498.77,-8.8 488.52,-11.47 498.2,-15.77 498.77,-8.8"/>
</a>
</g>
</g>
<!-- Node8&#45;&gt;Node7 -->
<g id="edge15_Node000008_Node000007" class="edge">
<title>Node8&#45;&gt;Node7</title>
<g id="a_edge15_Node000008_Node000007"><a xlink:title=" ">
<path fill="none" stroke="#63b8ff" d="M721.99,-109.96C753.28,-101.82 800.69,-88.64 840.85,-74 860.48,-66.84 863.79,-60.84 883.85,-55 973.96,-28.78 1084.34,-17.36 1140.77,-12.94"/>
<polygon fill="#63b8ff" stroke="#63b8ff" points="1141.28,-16.41 1150.99,-12.17 1140.75,-9.43 1141.28,-16.41"/>
</a>
</g>
</g>
<!-- Node9 -->
<g id="Node000009" class="node">
<title>Node9</title>
<g id="a_Node000009"><a xlink:title=" ">
<polygon fill="#e0e0e0" stroke="#999999" points="431.35,-74 376.35,-74 376.35,-55 431.35,-55 431.35,-74"/>
<text text-anchor="middle" x="403.85" y="-62" font-family="Helvetica,sans-Serif" font-size="10.00">QMutex</text>
</a>
</g>
</g>
<!-- Node8&#45;&gt;Node9 -->
<g id="edge10_Node000008_Node000009" class="edge">
<title>Node8&#45;&gt;Node9</title>
<g id="a_edge10_Node000008_Node000009"><a xlink:title=" ">
<path fill="none" stroke="#63b8ff" d="M636.15,-109.92C588.23,-101.81 514.73,-88.94 441.55,-74.06"/>
<polygon fill="#63b8ff" stroke="#63b8ff" points="442.2,-70.62 431.7,-72.05 440.79,-77.48 442.2,-70.62"/>
</a>
</g>
</g>
<!-- Node10 -->
<g id="Node000010" class="node">
<title>Node10</title>
<g id="a_Node000010"><a xlink:title=" ">
<polygon fill="#e0e0e0" stroke="#999999" points="505.85,-74 449.85,-74 449.85,-55 505.85,-55 505.85,-74"/>
<text text-anchor="middle" x="477.85" y="-62" font-family="Helvetica,sans-Serif" font-size="10.00">QObject</text>
</a>
</g>
</g>
<!-- Node8&#45;&gt;Node10 -->
<g id="edge11_Node000008_Node000010" class="edge">
<title>Node8&#45;&gt;Node10</title>
<g id="a_edge11_Node000008_Node000010"><a xlink:title=" ">
<path fill="none" stroke="#63b8ff" d="M654.11,-109.98C616.35,-100.46 555.32,-85.05 515.89,-75.1"/>
<polygon fill="#63b8ff" stroke="#63b8ff" points="516.67,-71.69 506.12,-72.63 514.96,-78.48 516.67,-71.69"/>
</a>
</g>
</g>
<!-- Node11 -->
<g id="Node000011" class="node">
<title>Node11</title>
<g id="a_Node000011"><a xlink:title=" ">
<polygon fill="#e0e0e0" stroke="#999999" points="743.85,-74 687.85,-74 687.85,-55 743.85,-55 743.85,-74"/>
<text text-anchor="middle" x="715.85" y="-62" font-family="Helvetica,sans-Serif" font-size="10.00">QQueue</text>
</a>
</g>
</g>
<!-- Node8&#45;&gt;Node11 -->
<g id="edge12_Node000008_Node000011" class="edge">
<title>Node8&#45;&gt;Node11</title>
<g id="a_edge12_Node000008_Node000011"><a xlink:title=" ">
<path fill="none" stroke="#63b8ff" d="M692.47,-109.75C696.31,-102.49 701.87,-91.95 706.61,-82.98"/>
<polygon fill="#63b8ff" stroke="#63b8ff" points="709.74,-84.57 711.31,-74.09 703.55,-81.3 709.74,-84.57"/>
</a>
</g>
</g>
<!-- Node12 -->
<g id="Node000012" class="node">
<title>Node12</title>
<g id="a_Node000012"><a xlink:title=" ">
<polygon fill="#e0e0e0" stroke="#999999" points="563.85,-74 523.85,-74 523.85,-55 563.85,-55 563.85,-74"/>
<text text-anchor="middle" x="543.85" y="-62" font-family="Helvetica,sans-Serif" font-size="10.00">QSet</text>
</a>
</g>
</g>
<!-- Node8&#45;&gt;Node12 -->
<g id="edge13_Node000008_Node000012" class="edge">
<title>Node8&#45;&gt;Node12</title>
<g id="a_edge13_Node000008_Node000012"><a xlink:title=" ">
<path fill="none" stroke="#63b8ff" d="M664.71,-109.98C640.04,-100.9 600.87,-86.49 573.84,-76.54"/>
<polygon fill="#63b8ff" stroke="#63b8ff" points="574.73,-73.14 564.14,-72.97 572.31,-79.71 574.73,-73.14"/>
</a>
</g>
</g>
<!-- Node13 -->
<g id="Node000013" class="node">
<title>Node13</title>
<g id="a_Node000013"><a xlink:title=" ">
<polygon fill="#e0e0e0" stroke="#999999" points="1314.85,-19 1222.85,-19 1222.85,0 1314.85,0 1314.85,-19"/>
<text text-anchor="middle" x="1268.85" y="-7" font-family="Helvetica,sans-Serif" font-size="10.00">QSharedPointer</text>
</a>
</g>
</g>
<!-- Node8&#45;&gt;Node13 -->
<g id="edge14_Node000008_Node000013" class="edge">
<title>Node8&#45;&gt;Node13</title>
<g id="a_edge14_Node000008_Node000013"><a xlink:title=" ">
<path fill="none" stroke="#63b8ff" d="M736.82,-109.94C775.46,-102.47 830.41,-90.29 876.85,-74 895.42,-67.49 897.95,-60.48 916.85,-55 1041.44,-18.9 1080.24,-36.25 1212.54,-19.11"/>
<polygon fill="#63b8ff" stroke="#63b8ff" points="1213.2,-22.55 1222.65,-17.75 1212.28,-15.61 1213.2,-22.55"/>
</a>
</g>
</g>
<!-- Node14 -->
<g id="Node000014" class="node">
<title>Node14</title>
<g id="a_Node000014"><a xlink:title=" ">
<polygon fill="#e0e0e0" stroke="#999999" points="831.85,-74 761.85,-74 761.85,-55 831.85,-55 831.85,-74"/>
<text text-anchor="middle" x="796.85" y="-62" font-family="Helvetica,sans-Serif" font-size="10.00">QStringList</text>
</a>
</g>
</g>
<!-- Node8&#45;&gt;Node14 -->
<g id="edge16_Node000008_Node000014" class="edge">
<title>Node8&#45;&gt;Node14</title>
<g id="a_edge16_Node000008_Node000014"><a xlink:title=" ">
<path fill="none" stroke="#63b8ff" d="M705.36,-109.98C722.82,-101.5 749.86,-88.35 770.02,-78.54"/>
<polygon fill="#63b8ff" stroke="#63b8ff" points="771.56,-81.69 779.02,-74.17 768.49,-75.4 771.56,-81.69"/>
</a>
</g>
</g>
<!-- Node8&#45;&gt;Node15 -->
<g id="edge17_Node000008_Node000015" class="edge">
<title>Node8&#45;&gt;Node15</title>
<g id="a_edge17_Node000008_Node000015"><a xlink:title=" ">
<path fill="none" stroke="#63b8ff" d="M730.75,-109.98C781.81,-99.85 866.34,-83.07 915.69,-73.27"/>
<polygon fill="#63b8ff" stroke="#63b8ff" points="916.54,-76.67 925.67,-71.29 915.18,-69.81 916.54,-76.67"/>
</a>
</g>
</g>
<!-- Node8&#45;&gt;Node16 -->
<g id="edge18_Node000008_Node000016" class="edge">
<title>Node8&#45;&gt;Node16</title>
<g id="a_edge18_Node000008_Node000016"><a xlink:title=" ">
<path fill="none" stroke="#63b8ff" d="M741.36,-111.14C800.23,-102.94 897.9,-89.04 992.28,-74.05"/>
<polygon fill="#63b8ff" stroke="#63b8ff" points="992.96,-77.49 1002.28,-72.46 991.86,-70.58 992.96,-77.49"/>
</a>
</g>
</g>
<!-- Node17 -->
<g id="Node000017" class="node">
<title>Node17</title>
<g id="a_Node000017"><a xlink:title=" ">
<polygon fill="#e0e0e0" stroke="#999999" points="631.85,-74 581.85,-74 581.85,-55 631.85,-55 631.85,-74"/>
<text text-anchor="middle" x="606.85" y="-62" font-family="Helvetica,sans-Serif" font-size="10.00">atomic</text>
</a>
</g>
</g>
<!-- Node8&#45;&gt;Node17 -->
<g id="edge19_Node000008_Node000017" class="edge">
<title>Node8&#45;&gt;Node17</title>
<g id="a_edge19_Node000008_Node000017"><a xlink:title=" ">
<path fill="none" stroke="#63b8ff" d="M674.84,-109.98C662.39,-101.84 643.39,-89.41 628.64,-79.76"/>
<polygon fill="#63b8ff" stroke="#63b8ff" points="630.38,-76.72 620.1,-74.17 626.55,-82.57 630.38,-76.72"/>
</a>
</g>
</g>
<!-- Node18&#45;&gt;Node7 -->
<g id="edge26_Node000018_Node000007" class="edge">
<title>Node18&#45;&gt;Node7</title>
<g id="a_edge26_Node000018_Node000007"><a xlink:title=" ">
<path fill="none" stroke="#63b8ff" d="M343.47,-109.85C315.14,-98.15 273.59,-76.3 293.85,-55 323.48,-23.84 977.11,-13.15 1140.89,-10.96"/>
<polygon fill="#63b8ff" stroke="#63b8ff" points="1141.01,-14.45 1150.96,-10.82 1140.92,-7.45 1141.01,-14.45"/>
</a>
</g>
</g>
<!-- Node18&#45;&gt;Node9 -->
<g id="edge23_Node000018_Node000009" class="edge">
<title>Node18&#45;&gt;Node9</title>
<g id="a_edge23_Node000018_Node000009"><a xlink:title=" ">
<path fill="none" stroke="#63b8ff" d="M372.96,-109.75C378.13,-102.34 385.7,-91.5 392.04,-82.41"/>
<polygon fill="#63b8ff" stroke="#63b8ff" points="395,-84.29 397.85,-74.09 389.26,-80.29 395,-84.29"/>
</a>
</g>
</g>
<!-- Node18&#45;&gt;Node10 -->
<g id="edge24_Node000018_Node000010" class="edge">
<title>Node18&#45;&gt;Node10</title>
<g id="a_edge24_Node000018_Node000010"><a xlink:title=" ">
<path fill="none" stroke="#63b8ff" d="M384.68,-109.98C402.46,-101.5 430,-88.35 450.53,-78.54"/>
<polygon fill="#63b8ff" stroke="#63b8ff" points="452.17,-81.64 459.69,-74.17 449.16,-75.32 452.17,-81.64"/>
</a>
</g>
</g>
<!-- Node18&#45;&gt;Node12 -->
<g id="edge25_Node000018_Node000012" class="edge">
<title>Node18&#45;&gt;Node12</title>
<g id="a_edge25_Node000018_Node000012"><a xlink:title=" ">
<path fill="none" stroke="#63b8ff" d="M395.29,-109.98C427.88,-100.23 481.04,-84.31 514.15,-74.39"/>
<polygon fill="#63b8ff" stroke="#63b8ff" points="515.16,-77.74 523.74,-71.52 513.16,-71.04 515.16,-77.74"/>
</a>
</g>
</g>
<!-- Node18&#45;&gt;Node19 -->
<g id="edge21_Node000018_Node000019" class="edge">
<title>Node18&#45;&gt;Node19</title>
<g id="a_edge21_Node000018_Node000019"><a xlink:title=" ">
<path fill="none" stroke="#63b8ff" d="M311.21,-112.99C251.47,-106.5 153.68,-94.24 60.86,-73.93"/>
<polygon fill="#63b8ff" stroke="#63b8ff" points="61.55,-70.49 51.03,-71.74 60.03,-77.33 61.55,-70.49"/>
</a>
</g>
</g>
<!-- Node18&#45;&gt;Node20 -->
<g id="edge22_Node000018_Node000020" class="edge">
<title>Node18&#45;&gt;Node20</title>
<g id="a_edge22_Node000018_Node000020"><a xlink:title=" ">
<path fill="none" stroke="#63b8ff" d="M321.17,-109.94C277.07,-101.6 208.15,-88.39 139.23,-74.25"/>
<polygon fill="#63b8ff" stroke="#63b8ff" points="139.57,-70.75 129.07,-72.16 138.16,-77.6 139.57,-70.75"/>
</a>
</g>
</g>
<!-- Node21 -->
<g id="Node000021" class="node">
<title>Node21</title>
<g id="a_Node000021"><a xlink:title=" ">
<polygon fill="#e0e0e0" stroke="#999999" points="358.35,-74 303.35,-74 303.35,-55 358.35,-55 358.35,-74"/>
<text text-anchor="middle" x="330.85" y="-62" font-family="Helvetica,sans-Serif" font-size="10.00">QVector</text>
</a>
</g>
</g>
<!-- Node18&#45;&gt;Node21 -->
<g id="edge27_Node000018_Node000021" class="edge">
<title>Node18&#45;&gt;Node21</title>
<g id="a_edge27_Node000018_Node000021"><a xlink:title=" ">
<path fill="none" stroke="#63b8ff" d="M360.9,-109.75C355.87,-102.34 348.51,-91.5 342.34,-82.41"/>
<polygon fill="#63b8ff" stroke="#63b8ff" points="345.2,-80.39 336.68,-74.09 339.41,-84.33 345.2,-80.39"/>
</a>
</g>
</g>
<!-- Node22&#45;&gt;Node7 -->
<g id="edge35_Node000022_Node000007" class="edge">
<title>Node22&#45;&gt;Node7</title>
<g id="a_edge35_Node000022_Node000007"><a xlink:title=" ">
<path fill="none" stroke="#63b8ff" d="M1354.11,-54.98C1315.82,-45.32 1253.59,-29.62 1214.24,-19.68"/>
<polygon fill="#63b8ff" stroke="#63b8ff" points="1215.06,-16.28 1204.51,-17.23 1213.35,-23.07 1215.06,-16.28"/>
</a>
</g>
</g>
<!-- Node22&#45;&gt;Node13 -->
<g id="edge34_Node000022_Node000013" class="edge">
<title>Node22&#45;&gt;Node13</title>
<g id="a_edge34_Node000022_Node000013"><a xlink:title=" ">
<path fill="none" stroke="#63b8ff" d="M1368.73,-54.98C1349.5,-46.42 1319.62,-33.11 1297.54,-23.28"/>
<polygon fill="#63b8ff" stroke="#63b8ff" points="1298.88,-20.04 1288.32,-19.17 1296.03,-26.44 1298.88,-20.04"/>
</a>
</g>
</g>
<!-- Node23 -->
<g id="Node000023" class="node">
<title>Node23</title>
<g id="a_Node000023"><a xlink:title=" ">
<polygon fill="#e0e0e0" stroke="#999999" points="1537.35,-19 1464.35,-19 1464.35,0 1537.35,0 1537.35,-19"/>
<text text-anchor="middle" x="1500.85" y="-7" font-family="Helvetica,sans-Serif" font-size="10.00">QByteArray</text>
</a>
</g>
</g>
<!-- Node22&#45;&gt;Node23 -->
<g id="edge30_Node000022_Node000023" class="edge">
<title>Node22&#45;&gt;Node23</title>
<g id="a_edge30_Node000022_Node000023"><a xlink:title=" ">
<path fill="none" stroke="#63b8ff" d="M1406,-54.98C1424.1,-46.5 1452.13,-33.35 1473.04,-23.54"/>
<polygon fill="#63b8ff" stroke="#63b8ff" points="1474.8,-26.59 1482.36,-19.17 1471.82,-20.25 1474.8,-26.59"/>
</a>
</g>
</g>
<!-- Node24 -->
<g id="Node000024" class="node">
<title>Node24</title>
<g id="a_Node000024"><a xlink:title=" ">
<polygon fill="#e0e0e0" stroke="#999999" points="1836.35,-19 1765.35,-19 1765.35,0 1836.35,0 1836.35,-19"/>
<text text-anchor="middle" x="1800.85" y="-7" font-family="Helvetica,sans-Serif" font-size="10.00">QJsonArray</text>
</a>
</g>
</g>
<!-- Node22&#45;&gt;Node24 -->
<g id="edge31_Node000022_Node000024" class="edge">
<title>Node22&#45;&gt;Node24</title>
<g id="a_edge31_Node000022_Node000024"><a xlink:title=" ">
<path fill="none" stroke="#63b8ff" d="M1448.16,-56.89C1520.1,-48.81 1643.94,-34.33 1749.85,-19 1751.56,-18.75 1753.3,-18.49 1755.06,-18.23"/>
<polygon fill="#63b8ff" stroke="#63b8ff" points="1755.87,-21.64 1765.21,-16.64 1754.79,-14.73 1755.87,-21.64"/>
</a>
</g>
</g>
<!-- Node25 -->
<g id="Node000025" class="node">
<title>Node25</title>
<g id="a_Node000025"><a xlink:title=" ">
<polygon fill="#e0e0e0" stroke="#999999" points="1435.35,-19 1340.35,-19 1340.35,0 1435.35,0 1435.35,-19"/>
<text text-anchor="middle" x="1387.85" y="-7" font-family="Helvetica,sans-Serif" font-size="10.00">QJsonDocument</text>
</a>
</g>
</g>
<!-- Node22&#45;&gt;Node25 -->
<g id="edge32_Node000022_Node000025" class="edge">
<title>Node22&#45;&gt;Node25</title>
<g id="a_edge32_Node000022_Node000025"><a xlink:title=" ">
<path fill="none" stroke="#63b8ff" d="M1387.85,-54.75C1387.85,-47.8 1387.85,-37.85 1387.85,-29.13"/>
<polygon fill="#63b8ff" stroke="#63b8ff" points="1391.35,-29.09 1387.85,-19.09 1384.35,-29.09 1391.35,-29.09"/>
</a>
</g>
</g>
<!-- Node26 -->
<g id="Node000026" class="node">
<title>Node26</title>
<g id="a_Node000026"><a xlink:title=" ">
<polygon fill="#e0e0e0" stroke="#999999" points="1641.85,-19 1565.85,-19 1565.85,0 1641.85,0 1641.85,-19"/>
<text text-anchor="middle" x="1603.85" y="-7" font-family="Helvetica,sans-Serif" font-size="10.00">QJsonObject</text>
</a>
</g>
</g>
<!-- Node22&#45;&gt;Node26 -->
<g id="edge33_Node000022_Node000026" class="edge">
<title>Node22&#45;&gt;Node26</title>
<g id="a_edge33_Node000022_Node000026"><a xlink:title=" ">
<path fill="none" stroke="#63b8ff" d="M1422.55,-54.98C1459.6,-45.89 1518.44,-31.46 1558.98,-21.51"/>
<polygon fill="#63b8ff" stroke="#63b8ff" points="1560,-24.86 1568.87,-19.08 1558.33,-18.07 1560,-24.86"/>
</a>
</g>
</g>
<!-- Node27&#45;&gt;Node7 -->
<g id="edge37_Node000027_Node000007" class="edge">
<title>Node27&#45;&gt;Node7</title>
<g id="a_edge37_Node000027_Node000007"><a xlink:title=" ">
<path fill="none" stroke="#63b8ff" d="M1007.5,-109.86C1029.89,-101.87 1062.92,-88.99 1089.85,-74 1115.36,-59.8 1142.24,-39.52 1159.47,-25.72"/>
<polygon fill="#63b8ff" stroke="#63b8ff" points="1161.99,-28.19 1167.55,-19.17 1157.58,-22.75 1161.99,-28.19"/>
</a>
</g>
</g>
<!-- Node28&#45;&gt;Node7 -->
<g id="edge50_Node000028_Node000007" class="edge">
<title>Node28&#45;&gt;Node7</title>
<g id="a_edge50_Node000028_Node000007"><a xlink:title=" ">
<path fill="none" stroke="#63b8ff" d="M1163.27,-164.92C1141.81,-158.65 1119.8,-147.79 1106.85,-129 1094.02,-110.39 1138.58,-54.94 1162.97,-26.99"/>
<polygon fill="#63b8ff" stroke="#63b8ff" points="1165.79,-29.08 1169.8,-19.27 1160.55,-24.44 1165.79,-29.08"/>
</a>
</g>
</g>
<!-- Node28&#45;&gt;Node26 -->
<g id="edge49_Node000028_Node000026" class="edge">
<title>Node28&#45;&gt;Node26</title>
<g id="a_edge49_Node000028_Node000026"><a xlink:title=" ">
<path fill="none" stroke="#63b8ff" d="M1264.23,-164.99C1295.72,-157.59 1340.12,-145.47 1376.85,-129 1433.33,-103.67 1439.77,-83.25 1494.85,-55 1519.3,-42.46 1548.12,-30.82 1569.99,-22.59"/>
<polygon fill="#63b8ff" stroke="#63b8ff" points="1571.34,-25.82 1579.5,-19.06 1568.91,-19.26 1571.34,-25.82"/>
</a>
</g>
</g>
<!-- Node29 -->
<g id="Node000029" class="node">
<title>Node29</title>
<g id="a_Node000029"><a xlink:href="SymbolGraphicsGenerator_8h.html" target="_top" xlink:title=" ">
<polygon fill="white" stroke="#666666" points="1367.35,-129 1214.35,-129 1214.35,-110 1367.35,-110 1367.35,-129"/>
<text text-anchor="middle" x="1290.85" y="-117" font-family="Helvetica,sans-Serif" font-size="10.00">SymbolGraphicsGenerator.h</text>
</a>
</g>
</g>
<!-- Node28&#45;&gt;Node29 -->
<g id="edge39_Node000028_Node000029" class="edge">
<title>Node28&#45;&gt;Node29</title>
<g id="a_edge39_Node000028_Node000029"><a xlink:title=" ">
<path fill="none" stroke="#63b8ff" d="M1234.61,-164.98C1244.62,-157.07 1259.74,-145.11 1271.78,-135.58"/>
<polygon fill="#63b8ff" stroke="#63b8ff" points="1274.22,-138.12 1279.89,-129.17 1269.87,-132.63 1274.22,-138.12"/>
</a>
</g>
</g>
<!-- Node30 -->
<g id="Node000030" class="node">
<title>Node30</title>
<g id="a_Node000030"><a xlink:href="SymbolData_8h.html" target="_top" xlink:title=" ">
<polygon fill="white" stroke="#666666" points="1777.35,-74 1652.35,-74 1652.35,-55 1777.35,-55 1777.35,-74"/>
<text text-anchor="middle" x="1714.85" y="-62" font-family="Helvetica,sans-Serif" font-size="10.00">models/SymbolData.h</text>
</a>
</g>
</g>
<!-- Node28&#45;&gt;Node30 -->
<g id="edge48_Node000028_Node000030" class="edge">
<title>Node28&#45;&gt;Node30</title>
<g id="a_edge48_Node000028_Node000030"><a xlink:title=" ">
<path fill="none" stroke="#63b8ff" d="M1284.55,-164.99C1337.87,-157.09 1417.4,-144.26 1485.85,-129 1554.36,-113.73 1632.95,-90.71 1677.96,-76.98"/>
<polygon fill="#63b8ff" stroke="#63b8ff" points="1679.05,-80.31 1687.58,-74.04 1677,-73.62 1679.05,-80.31"/>
</a>
</g>
</g>
<!-- Node34 -->
<g id="Node000034" class="node">
<title>Node34</title>
<g id="a_Node000034"><a xlink:title=" ">
<polygon fill="#e0e0e0" stroke="#999999" points="1195.85,-129 1115.85,-129 1115.85,-110 1195.85,-110 1195.85,-129"/>
<text text-anchor="middle" x="1155.85" y="-117" font-family="Helvetica,sans-Serif" font-size="10.00">QTextStream</text>
</a>
</g>
</g>
<!-- Node28&#45;&gt;Node34 -->
<g id="edge51_Node000028_Node000034" class="edge">
<title>Node28&#45;&gt;Node34</title>
<g id="a_edge51_Node000028_Node000034"><a xlink:title=" ">
<path fill="none" stroke="#63b8ff" d="M1212.92,-164.98C1202.77,-157.07 1187.43,-145.11 1175.2,-135.58"/>
<polygon fill="#63b8ff" stroke="#63b8ff" points="1177.01,-132.56 1166.97,-129.17 1172.71,-138.08 1177.01,-132.56"/>
</a>
</g>
</g>
<!-- Node29&#45;&gt;Node7 -->
<g id="edge47_Node000029_Node000007" class="edge">
<title>Node29&#45;&gt;Node7</title>
<g id="a_edge47_Node000029_Node000007"><a xlink:title=" ">
<path fill="none" stroke="#63b8ff" d="M1267.12,-109.95C1249.52,-102.63 1225.89,-90.63 1209.85,-74 1197.54,-61.24 1188.97,-42.82 1183.82,-29.09"/>
<polygon fill="#63b8ff" stroke="#63b8ff" points="1187,-27.59 1180.41,-19.3 1180.39,-29.89 1187,-27.59"/>
</a>
</g>
</g>
<!-- Node29&#45;&gt;Node30 -->
<g id="edge40_Node000029_Node000030" class="edge">
<title>Node29&#45;&gt;Node30</title>
<g id="a_edge40_Node000029_Node000030"><a xlink:title=" ">
<path fill="none" stroke="#63b8ff" d="M1358.97,-109.98C1436.53,-100.29 1562.74,-84.51 1642.16,-74.59"/>
<polygon fill="#63b8ff" stroke="#63b8ff" points="1642.59,-78.06 1652.08,-73.35 1641.72,-71.11 1642.59,-78.06"/>
</a>
</g>
</g>
<!-- Node30&#45;&gt;Node7 -->
<g id="edge46_Node000030_Node000007" class="edge">
<title>Node30&#45;&gt;Node7</title>
<g id="a_edge46_Node000030_Node000007"><a xlink:title=" ">
<path fill="none" stroke="#63b8ff" d="M1652.15,-58.44C1533.91,-48.82 1284.29,-28.16 1214.44,-18.71"/>
<polygon fill="#63b8ff" stroke="#63b8ff" points="1214.9,-15.24 1204.5,-17.24 1213.88,-22.17 1214.9,-15.24"/>
</a>
</g>
</g>
<!-- Node30&#45;&gt;Node24 -->
<g id="edge41_Node000030_Node000024" class="edge">
<title>Node30&#45;&gt;Node24</title>
<g id="a_edge41_Node000030_Node000024"><a xlink:title=" ">
<path fill="none" stroke="#63b8ff" d="M1728.67,-54.98C1742,-46.77 1762.43,-34.18 1778.15,-24.49"/>
<polygon fill="#63b8ff" stroke="#63b8ff" points="1780.1,-27.4 1786.78,-19.17 1776.43,-21.44 1780.1,-27.4"/>
</a>
</g>
</g>
<!-- Node30&#45;&gt;Node26 -->
<g id="edge42_Node000030_Node000026" class="edge">
<title>Node30&#45;&gt;Node26</title>
<g id="a_edge42_Node000030_Node000026"><a xlink:title=" ">
<path fill="none" stroke="#63b8ff" d="M1697.02,-54.98C1679.24,-46.5 1651.7,-33.35 1631.17,-23.54"/>
<polygon fill="#63b8ff" stroke="#63b8ff" points="1632.54,-20.32 1622.01,-19.17 1629.52,-26.64 1632.54,-20.32"/>
</a>
</g>
</g>
<!-- Node31 -->
<g id="Node000031" class="node">
<title>Node31</title>
<g id="a_Node000031"><a xlink:title=" ">
<polygon fill="#e0e0e0" stroke="#999999" points="1898.35,-19 1857.35,-19 1857.35,0 1898.35,0 1898.35,-19"/>
<text text-anchor="middle" x="1877.85" y="-7" font-family="Helvetica,sans-Serif" font-size="10.00">QList</text>
</a>
</g>
</g>
<!-- Node30&#45;&gt;Node31 -->
<g id="edge43_Node000030_Node000031" class="edge">
<title>Node30&#45;&gt;Node31</title>
<g id="a_edge43_Node000030_Node000031"><a xlink:title=" ">
<path fill="none" stroke="#63b8ff" d="M1741.04,-54.98C1769.98,-45.57 1816.55,-30.43 1847.18,-20.47"/>
<polygon fill="#63b8ff" stroke="#63b8ff" points="1848.48,-23.73 1856.91,-17.31 1846.32,-17.07 1848.48,-23.73"/>
</a>
</g>
</g>
<!-- Node32 -->
<g id="Node000032" class="node">
<title>Node32</title>
<g id="a_Node000032"><a xlink:title=" ">
<polygon fill="#e0e0e0" stroke="#999999" points="1978.35,-19 1923.35,-19 1923.35,0 1978.35,0 1978.35,-19"/>
<text text-anchor="middle" x="1950.85" y="-7" font-family="Helvetica,sans-Serif" font-size="10.00">QPointF</text>
</a>
</g>
</g>
<!-- Node30&#45;&gt;Node32 -->
<g id="edge44_Node000030_Node000032" class="edge">
<title>Node30&#45;&gt;Node32</title>
<g id="a_edge44_Node000030_Node000032"><a xlink:title=" ">
<path fill="none" stroke="#63b8ff" d="M1752.77,-54.98C1796.92,-45.07 1869.38,-28.8 1913.35,-18.92"/>
<polygon fill="#63b8ff" stroke="#63b8ff" points="1914.36,-22.28 1923.35,-16.68 1912.82,-15.45 1914.36,-22.28"/>
</a>
</g>
</g>
<!-- Node33 -->
<g id="Node000033" class="node">
<title>Node33</title>
<g id="a_Node000033"><a xlink:title=" ">
<polygon fill="#e0e0e0" stroke="#999999" points="1740.85,-19 1688.85,-19 1688.85,0 1740.85,0 1740.85,-19"/>
<text text-anchor="middle" x="1714.85" y="-7" font-family="Helvetica,sans-Serif" font-size="10.00">QRectF</text>
</a>
</g>
</g>
<!-- Node30&#45;&gt;Node33 -->
<g id="edge45_Node000030_Node000033" class="edge">
<title>Node30&#45;&gt;Node33</title>
<g id="a_edge45_Node000030_Node000033"><a xlink:title=" ">
<path fill="none" stroke="#63b8ff" d="M1714.85,-54.75C1714.85,-47.8 1714.85,-37.85 1714.85,-29.13"/>
<polygon fill="#63b8ff" stroke="#63b8ff" points="1718.35,-29.09 1714.85,-19.09 1711.35,-29.09 1718.35,-29.09"/>
</a>
</g>
</g>
<!-- Node35&#45;&gt;Node7 -->
<g id="edge68_Node000035_Node000007" class="edge">
<title>Node35&#45;&gt;Node7</title>
<g id="a_edge68_Node000035_Node000007"><a xlink:title=" ">
<path fill="none" stroke="#63b8ff" d="M1554.32,-165C1515.49,-157.67 1460.89,-145.64 1414.85,-129 1397.09,-122.58 1393.94,-118.02 1376.85,-110 1340.82,-93.09 1330.59,-91.51 1294.85,-74 1262.01,-57.92 1225.08,-37.46 1201.65,-24.18"/>
<polygon fill="#63b8ff" stroke="#63b8ff" points="1203.21,-21.04 1192.78,-19.13 1199.74,-27.12 1203.21,-21.04"/>
</a>
</g>
</g>
<!-- Node35&#45;&gt;Node13 -->
<g id="edge67_Node000035_Node000013" class="edge">
<title>Node35&#45;&gt;Node13</title>
<g id="a_edge67_Node000035_Node000013"><a xlink:title=" ">
<path fill="none" stroke="#63b8ff" d="M1579.14,-164.99C1510.95,-142.37 1329.95,-81.92 1318.85,-74 1301.77,-61.82 1287.59,-42.21 1278.74,-28"/>
<polygon fill="#63b8ff" stroke="#63b8ff" points="1281.62,-26 1273.5,-19.19 1275.6,-29.57 1281.62,-26"/>
</a>
</g>
</g>
<!-- Node35&#45;&gt;Node24 -->
<g id="edge65_Node000035_Node000024" class="edge">
<title>Node35&#45;&gt;Node24</title>
<g id="a_edge65_Node000035_Node000024"><a xlink:title=" ">
<path fill="none" stroke="#63b8ff" d="M1676.97,-165.72C1748.47,-157.26 1849.02,-143.07 1860.85,-129 1888.16,-96.54 1845.23,-49.53 1818.91,-25.65"/>
<polygon fill="#63b8ff" stroke="#63b8ff" points="1821.2,-23 1811.37,-19.03 1816.57,-28.26 1821.2,-23"/>
</a>
</g>
</g>
<!-- Node35&#45;&gt;Node26 -->
<g id="edge66_Node000035_Node000026" class="edge">
<title>Node35&#45;&gt;Node26</title>
<g id="a_edge66_Node000035_Node000026"><a xlink:title=" ">
<path fill="none" stroke="#63b8ff" d="M1604.92,-164.88C1605.05,-145.33 1605.31,-96.14 1604.85,-55 1604.75,-46.49 1604.56,-37.07 1604.36,-29.09"/>
<polygon fill="#63b8ff" stroke="#63b8ff" points="1607.86,-28.94 1604.1,-19.03 1600.86,-29.12 1607.86,-28.94"/>
</a>
</g>
</g>
<!-- Node35&#45;&gt;Node30 -->
<g id="edge64_Node000035_Node000030" class="edge">
<title>Node35&#45;&gt;Node30</title>
<g id="a_edge64_Node000035_Node000030"><a xlink:title=" ">
<path fill="none" stroke="#63b8ff" d="M1613.85,-164.66C1632.48,-146.38 1675.45,-104.18 1698.89,-81.17"/>
<polygon fill="#63b8ff" stroke="#63b8ff" points="1701.35,-83.66 1706.03,-74.16 1696.44,-78.67 1701.35,-83.66"/>
</a>
</g>
</g>
<!-- Node36 -->
<g id="Node000036" class="node">
<title>Node36</title>
<g id="a_Node000036"><a xlink:href="FootprintData_8h.html" target="_top" xlink:title=" ">
<polygon fill="white" stroke="#666666" points="1851.85,-129 1759.85,-129 1759.85,-110 1851.85,-110 1851.85,-129"/>
<text text-anchor="middle" x="1805.85" y="-117" font-family="Helvetica,sans-Serif" font-size="10.00">FootprintData.h</text>
</a>
</g>
</g>
<!-- Node35&#45;&gt;Node36 -->
<g id="edge53_Node000035_Node000036" class="edge">
<title>Node35&#45;&gt;Node36</title>
<g id="a_edge53_Node000035_Node000036"><a xlink:title=" ">
<path fill="none" stroke="#63b8ff" d="M1637.14,-164.98C1671.47,-155.93 1725.91,-141.58 1763.62,-131.64"/>
<polygon fill="#63b8ff" stroke="#63b8ff" points="1764.52,-135.02 1773.3,-129.08 1762.74,-128.25 1764.52,-135.02"/>
</a>
</g>
</g>
<!-- Node37 -->
<g id="Node000037" class="node">
<title>Node37</title>
<g id="a_Node000037"><a xlink:href="Model3DData_8h.html" target="_top" xlink:title=" ">
<polygon fill="white" stroke="#666666" points="1595.85,-74 1503.85,-74 1503.85,-55 1595.85,-55 1595.85,-74"/>
<text text-anchor="middle" x="1549.85" y="-62" font-family="Helvetica,sans-Serif" font-size="10.00">Model3DData.h</text>
</a>
</g>
</g>
<!-- Node35&#45;&gt;Node37 -->
<g id="edge63_Node000035_Node000037" class="edge">
<title>Node35&#45;&gt;Node37</title>
<g id="a_edge63_Node000035_Node000037"><a xlink:title=" ">
<path fill="none" stroke="#63b8ff" d="M1600.35,-164.66C1591.32,-146.93 1570.84,-106.73 1558.92,-83.32"/>
<polygon fill="#63b8ff" stroke="#63b8ff" points="1561.92,-81.48 1554.26,-74.16 1555.68,-84.66 1561.92,-81.48"/>
</a>
</g>
</g>
<!-- Node36&#45;&gt;Node7 -->
<g id="edge62_Node000036_Node000007" class="edge">
<title>Node36&#45;&gt;Node7</title>
<g id="a_edge62_Node000036_Node000007"><a xlink:title=" ">
<path fill="none" stroke="#63b8ff" d="M1759.66,-119.32C1672.12,-119.77 1476.7,-115.51 1318.85,-74 1275.42,-62.58 1228.54,-38.97 1201.27,-23.98"/>
<polygon fill="#63b8ff" stroke="#63b8ff" points="1202.91,-20.89 1192.48,-19.07 1199.5,-27 1202.91,-20.89"/>
</a>
</g>
</g>
<!-- Node36&#45;&gt;Node24 -->
<g id="edge58_Node000036_Node000024" class="edge">
<title>Node36&#45;&gt;Node24</title>
<g id="a_edge58_Node000036_Node000024"><a xlink:title=" ">
<path fill="none" stroke="#63b8ff" d="M1810.08,-109.89C1815.53,-97.7 1823.88,-74.69 1819.85,-55 1817.96,-45.74 1814.06,-36.03 1810.28,-28.04"/>
<polygon fill="#63b8ff" stroke="#63b8ff" points="1813.36,-26.37 1805.72,-19.02 1807.11,-29.53 1813.36,-26.37"/>
</a>
</g>
</g>
<!-- Node36&#45;&gt;Node26 -->
<g id="edge59_Node000036_Node000026" class="edge">
<title>Node36&#45;&gt;Node26</title>
<g id="a_edge59_Node000036_Node000026"><a xlink:title=" ">
<path fill="none" stroke="#63b8ff" d="M1805.83,-109.72C1805.3,-96 1802.21,-69.58 1786.85,-55 1767.68,-36.81 1699.76,-23.85 1652.3,-16.77"/>
<polygon fill="#63b8ff" stroke="#63b8ff" points="1652.61,-13.27 1642.21,-15.3 1651.6,-20.2 1652.61,-13.27"/>
</a>
</g>
</g>
<!-- Node36&#45;&gt;Node31 -->
<g id="edge60_Node000036_Node000031" class="edge">
<title>Node36&#45;&gt;Node31</title>
<g id="a_edge60_Node000036_Node000031"><a xlink:title=" ">
<path fill="none" stroke="#63b8ff" d="M1811.74,-109.66C1823.67,-91.77 1850.85,-51 1866.39,-27.69"/>
<polygon fill="#63b8ff" stroke="#63b8ff" points="1869.44,-29.42 1872.08,-19.16 1863.62,-25.54 1869.44,-29.42"/>
</a>
</g>
</g>
<!-- Node36&#45;&gt;Node32 -->
<g id="edge61_Node000036_Node000032" class="edge">
<title>Node36&#45;&gt;Node32</title>
<g id="a_edge61_Node000036_Node000032"><a xlink:title=" ">
<path fill="none" stroke="#63b8ff" d="M1817.72,-109.66C1842.59,-91.14 1900.4,-48.08 1931.01,-25.28"/>
<polygon fill="#63b8ff" stroke="#63b8ff" points="1933.3,-27.94 1939.22,-19.16 1929.11,-22.32 1933.3,-27.94"/>
</a>
</g>
</g>
<!-- Node36&#45;&gt;Node37 -->
<g id="edge54_Node000036_Node000037" class="edge">
<title>Node36&#45;&gt;Node37</title>
<g id="a_edge54_Node000036_Node000037"><a xlink:title=" ">
<path fill="none" stroke="#63b8ff" d="M1764.72,-109.98C1720.25,-100.78 1649.3,-86.09 1601.2,-76.13"/>
<polygon fill="#63b8ff" stroke="#63b8ff" points="1601.8,-72.68 1591.3,-74.08 1600.39,-79.54 1601.8,-72.68"/>
</a>
</g>
</g>
<!-- Node37&#45;&gt;Node7 -->
<g id="edge57_Node000037_Node000007" class="edge">
<title>Node37&#45;&gt;Node7</title>
<g id="a_edge57_Node000037_Node000007"><a xlink:title=" ">
<path fill="none" stroke="#63b8ff" d="M1503.7,-58.87C1440.63,-52.21 1323.82,-38.73 1214.41,-18.92"/>
<polygon fill="#63b8ff" stroke="#63b8ff" points="1214.99,-15.47 1204.52,-17.11 1213.73,-22.36 1214.99,-15.47"/>
</a>
</g>
</g>
<!-- Node37&#45;&gt;Node23 -->
<g id="edge55_Node000037_Node000023" class="edge">
<title>Node37&#45;&gt;Node23</title>
<g id="a_edge55_Node000037_Node000023"><a xlink:title=" ">
<path fill="none" stroke="#63b8ff" d="M1541.76,-54.75C1534.69,-47.11 1524.26,-35.82 1515.7,-26.56"/>
<polygon fill="#63b8ff" stroke="#63b8ff" points="1518.15,-24.06 1508.79,-19.09 1513.01,-28.81 1518.15,-24.06"/>
</a>
</g>
</g>
<!-- Node37&#45;&gt;Node26 -->
<g id="edge56_Node000037_Node000026" class="edge">
<title>Node37&#45;&gt;Node26</title>
<g id="a_edge56_Node000037_Node000026"><a xlink:title=" ">
<path fill="none" stroke="#63b8ff" d="M1558.77,-54.75C1566.63,-47.03 1578.28,-35.6 1587.77,-26.28"/>
<polygon fill="#63b8ff" stroke="#63b8ff" points="1590.41,-28.59 1595.1,-19.09 1585.51,-23.6 1590.41,-28.59"/>
</a>
</g>
</g>
</g>
</svg>
