<?xml version="1.0" encoding="UTF-8" standalone="no"?>
<!DOCTYPE svg PUBLIC "-//W3C//DTD SVG 1.1//EN"
 "http://www.w3.org/Graphics/SVG/1.1/DTD/svg11.dtd">
<!-- Generated by graphviz version 2.43.0 (0)
 -->
<!-- Title: services/export/TempFileManager.h Pages: 1 -->
<svg width="1104pt" height="170pt"
 viewBox="0.00 0.00 1104.00 170.00" xmlns="http://www.w3.org/2000/svg" xmlns:xlink="http://www.w3.org/1999/xlink">
<g id="graph0" class="graph" transform="scale(1 1) rotate(0) translate(4 166)">
<title>services/export/TempFileManager.h</title>
<!-- Node1 -->
<g id="Node000001" class="node">
<title>Node1</title>
<g id="a_Node000001"><a xlink:title=" ">
<polygon fill="#999999" stroke="#666666" points="554,-162 416,-162 416,-132 554,-132 554,-162"/>
<text text-anchor="start" x="424" y="-150" font-family="Helvetica,sans-Serif" font-size="10.00">services/export/TempFile</text>
<text text-anchor="middle" x="485" y="-139" font-family="Helvetica,sans-Serif" font-size="10.00">Manager.h</text>
</a>
</g>
</g>
<!-- Node2 -->
<g id="Node000002" class="node">
<title>Node2</title>
<g id="a_Node000002"><a xlink:href="main_8cpp.html" target="_top" xlink:title=" ">
<polygon fill="white" stroke="#666666" points="62,-90.5 0,-90.5 0,-71.5 62,-71.5 62,-90.5"/>
<text text-anchor="middle" x="31" y="-78.5" font-family="Helvetica,sans-Serif" font-size="10.00">main.cpp</text>
</a>
</g>
</g>
<!-- Node1&#45;&gt;Node2 -->
<g id="edge1_Node000001_Node000002" class="edge">
<title>Node1&#45;&gt;Node2</title>
<g id="a_edge1_Node000001_Node000002"><a xlink:title=" ">
<path fill="none" stroke="#63b8ff" d="M405.74,-141.54C321.75,-135.63 185.69,-122.66 71,-96 64.98,-94.6 58.6,-92.61 52.75,-90.57"/>
<polygon fill="#63b8ff" stroke="#63b8ff" points="405.5,-145.03 415.71,-142.23 405.98,-138.05 405.5,-145.03"/>
</a>
</g>
</g>
<!-- Node3 -->
<g id="Node000003" class="node">
<title>Node3</title>
<g id="a_Node000003"><a xlink:href="DatasheetExportStage_8h.html" target="_top" xlink:title=" ">
<polygon fill="white" stroke="#666666" points="225.5,-96 80.5,-96 80.5,-66 225.5,-66 225.5,-96"/>
<text text-anchor="start" x="88.5" y="-84" font-family="Helvetica,sans-Serif" font-size="10.00">services/export/Datasheet</text>
<text text-anchor="middle" x="153" y="-73" font-family="Helvetica,sans-Serif" font-size="10.00">ExportStage.h</text>
</a>
</g>
</g>
<!-- Node1&#45;&gt;Node3 -->
<g id="edge2_Node000001_Node000003" class="edge">
<title>Node1&#45;&gt;Node3</title>
<g id="a_edge2_Node000001_Node000003"><a xlink:title=" ">
<path fill="none" stroke="#63b8ff" d="M405.8,-130.73C351.06,-120.18 278.79,-106.25 225.55,-95.99"/>
<polygon fill="#63b8ff" stroke="#63b8ff" points="405.32,-134.21 415.81,-132.66 406.65,-127.33 405.32,-134.21"/>
</a>
</g>
</g>
<!-- Node6 -->
<g id="Node000006" class="node">
<title>Node6</title>
<g id="a_Node000006"><a xlink:href="FootprintExportStage_8h.html" target="_top" xlink:title=" ">
<polygon fill="white" stroke="#666666" points="382,-96 244,-96 244,-66 382,-66 382,-96"/>
<text text-anchor="start" x="252" y="-84" font-family="Helvetica,sans-Serif" font-size="10.00">services/export/Footprint</text>
<text text-anchor="middle" x="313" y="-73" font-family="Helvetica,sans-Serif" font-size="10.00">ExportStage.h</text>
</a>
</g>
</g>
<!-- Node1&#45;&gt;Node6 -->
<g id="edge5_Node000001_Node000006" class="edge">
<title>Node1&#45;&gt;Node6</title>
<g id="a_edge5_Node000001_Node000006"><a xlink:title=" ">
<path fill="none" stroke="#63b8ff" d="M437.85,-128.46C410.41,-118.25 376.29,-105.55 350.66,-96.01"/>
<polygon fill="#63b8ff" stroke="#63b8ff" points="436.66,-131.75 447.25,-131.95 439.1,-125.19 436.66,-131.75"/>
</a>
</g>
</g>
<!-- Node8 -->
<g id="Node000008" class="node">
<title>Node8</title>
<g id="a_Node000008"><a xlink:href="Model3DExportStage_8h.html" target="_top" xlink:title=" ">
<polygon fill="white" stroke="#666666" points="570,-96 400,-96 400,-66 570,-66 570,-96"/>
<text text-anchor="start" x="408" y="-84" font-family="Helvetica,sans-Serif" font-size="10.00">services/export/Model3DExport</text>
<text text-anchor="middle" x="485" y="-73" font-family="Helvetica,sans-Serif" font-size="10.00">Stage.h</text>
</a>
</g>
</g>
<!-- Node1&#45;&gt;Node8 -->
<g id="edge8_Node000001_Node000008" class="edge">
<title>Node1&#45;&gt;Node8</title>
<g id="a_edge8_Node000001_Node000008"><a xlink:title=" ">
<path fill="none" stroke="#63b8ff" d="M485,-121.54C485,-112.96 485,-103.61 485,-96.16"/>
<polygon fill="#63b8ff" stroke="#63b8ff" points="481.5,-121.8 485,-131.8 488.5,-121.8 481.5,-121.8"/>
</a>
</g>
</g>
<!-- Node10 -->
<g id="Node000010" class="node">
<title>Node10</title>
<g id="a_Node000010"><a xlink:href="PreviewImagesExportStage_8h.html" target="_top" xlink:title=" ">
<polygon fill="white" stroke="#666666" points="758,-96 588,-96 588,-66 758,-66 758,-96"/>
<text text-anchor="start" x="596" y="-84" font-family="Helvetica,sans-Serif" font-size="10.00">services/export/PreviewImages</text>
<text text-anchor="middle" x="673" y="-73" font-family="Helvetica,sans-Serif" font-size="10.00">ExportStage.h</text>
</a>
</g>
</g>
<!-- Node1&#45;&gt;Node10 -->
<g id="edge11_Node000001_Node000010" class="edge">
<title>Node1&#45;&gt;Node10</title>
<g id="a_edge11_Node000001_Node000010"><a xlink:title=" ">
<path fill="none" stroke="#63b8ff" d="M535.75,-128.72C565.87,-118.47 603.58,-105.63 631.84,-96.01"/>
<polygon fill="#63b8ff" stroke="#63b8ff" points="534.6,-125.42 526.26,-131.95 536.85,-132.05 534.6,-125.42"/>
</a>
</g>
</g>
<!-- Node12 -->
<g id="Node000012" class="node">
<title>Node12</title>
<g id="a_Node000012"><a xlink:href="SymbolExportStage_8h.html" target="_top" xlink:title=" ">
<polygon fill="white" stroke="#666666" points="939.5,-96 776.5,-96 776.5,-66 939.5,-66 939.5,-96"/>
<text text-anchor="start" x="784.5" y="-84" font-family="Helvetica,sans-Serif" font-size="10.00">services/export/SymbolExport</text>
<text text-anchor="middle" x="858" y="-73" font-family="Helvetica,sans-Serif" font-size="10.00">Stage.h</text>
</a>
</g>
</g>
<!-- Node1&#45;&gt;Node12 -->
<g id="edge14_Node000001_Node000012" class="edge">
<title>Node1&#45;&gt;Node12</title>
<g id="a_edge14_Node000001_Node000012"><a xlink:title=" ">
<path fill="none" stroke="#63b8ff" d="M564.47,-132.36C626.89,-121.65 713.47,-106.8 776.42,-96"/>
<polygon fill="#63b8ff" stroke="#63b8ff" points="563.55,-128.97 554.28,-134.11 564.73,-135.87 563.55,-128.97"/>
</a>
</g>
</g>
<!-- Node14 -->
<g id="Node000014" class="node">
<title>Node14</title>
<g id="a_Node000014"><a xlink:href="TempFileManager_8cpp.html" target="_top" xlink:title=" ">
<polygon fill="white" stroke="#666666" points="1096,-96 958,-96 958,-66 1096,-66 1096,-96"/>
<text text-anchor="start" x="966" y="-84" font-family="Helvetica,sans-Serif" font-size="10.00">services/export/TempFile</text>
<text text-anchor="middle" x="1027" y="-73" font-family="Helvetica,sans-Serif" font-size="10.00">Manager.cpp</text>
</a>
</g>
</g>
<!-- Node1&#45;&gt;Node14 -->
<g id="edge17_Node000001_Node000014" class="edge">
<title>Node1&#45;&gt;Node14</title>
<g id="a_edge17_Node000001_Node000014"><a xlink:title=" ">
<path fill="none" stroke="#63b8ff" d="M564.5,-139.15C657.08,-130.77 814.49,-115.29 949,-96 951.86,-95.59 954.78,-95.15 957.72,-94.7"/>
<polygon fill="#63b8ff" stroke="#63b8ff" points="564.01,-135.68 554.37,-140.06 564.64,-142.65 564.01,-135.68"/>
</a>
</g>
</g>
<!-- Node4 -->
<g id="Node000004" class="node">
<title>Node4</title>
<g id="a_Node000004"><a xlink:href="DatasheetExportStage_8cpp.html" target="_top" xlink:title=" ">
<polygon fill="white" stroke="#666666" points="150.5,-30 5.5,-30 5.5,0 150.5,0 150.5,-30"/>
<text text-anchor="start" x="13.5" y="-18" font-family="Helvetica,sans-Serif" font-size="10.00">services/export/Datasheet</text>
<text text-anchor="middle" x="78" y="-7" font-family="Helvetica,sans-Serif" font-size="10.00">ExportStage.cpp</text>
</a>
</g>
</g>
<!-- Node3&#45;&gt;Node4 -->
<g id="edge3_Node000003_Node000004" class="edge">
<title>Node3&#45;&gt;Node4</title>
<g id="a_edge3_Node000003_Node000004"><a xlink:title=" ">
<path fill="none" stroke="#63b8ff" d="M128.63,-59.2C117.49,-49.7 104.59,-38.69 94.6,-30.16"/>
<polygon fill="#63b8ff" stroke="#63b8ff" points="126.48,-61.97 136.36,-65.8 131.02,-56.64 126.48,-61.97"/>
</a>
</g>
</g>
<!-- Node5 -->
<g id="Node000005" class="node">
<title>Node5</title>
<g id="a_Node000005"><a xlink:href="ParallelExportService_8cpp.html" target="_top" xlink:title=" ">
<polygon fill="white" stroke="#666666" points="456.5,-30 325.5,-30 325.5,0 456.5,0 456.5,-30"/>
<text text-anchor="start" x="333.5" y="-18" font-family="Helvetica,sans-Serif" font-size="10.00">services/export/Parallel</text>
<text text-anchor="middle" x="391" y="-7" font-family="Helvetica,sans-Serif" font-size="10.00">ExportService.cpp</text>
</a>
</g>
</g>
<!-- Node3&#45;&gt;Node5 -->
<g id="edge4_Node000003_Node000005" class="edge">
<title>Node3&#45;&gt;Node5</title>
<g id="a_edge4_Node000003_Node000005"><a xlink:title=" ">
<path fill="none" stroke="#63b8ff" d="M215.28,-63.25C253.73,-52.91 302.49,-39.8 338.89,-30.01"/>
<polygon fill="#63b8ff" stroke="#63b8ff" points="213.98,-59.98 205.23,-65.95 215.8,-66.74 213.98,-59.98"/>
</a>
</g>
</g>
<!-- Node6&#45;&gt;Node5 -->
<g id="edge7_Node000006_Node000005" class="edge">
<title>Node6&#45;&gt;Node5</title>
<g id="a_edge7_Node000006_Node000005"><a xlink:title=" ">
<path fill="none" stroke="#63b8ff" d="M338.35,-59.2C349.93,-49.7 363.35,-38.69 373.74,-30.16"/>
<polygon fill="#63b8ff" stroke="#63b8ff" points="335.82,-56.75 330.31,-65.8 340.26,-62.16 335.82,-56.75"/>
</a>
</g>
</g>
<!-- Node7 -->
<g id="Node000007" class="node">
<title>Node7</title>
<g id="a_Node000007"><a xlink:href="FootprintExportStage_8cpp.html" target="_top" xlink:title=" ">
<polygon fill="white" stroke="#666666" points="307,-30 169,-30 169,0 307,0 307,-30"/>
<text text-anchor="start" x="177" y="-18" font-family="Helvetica,sans-Serif" font-size="10.00">services/export/Footprint</text>
<text text-anchor="middle" x="238" y="-7" font-family="Helvetica,sans-Serif" font-size="10.00">ExportStage.cpp</text>
</a>
</g>
</g>
<!-- Node6&#45;&gt;Node7 -->
<g id="edge6_Node000006_Node000007" class="edge">
<title>Node6&#45;&gt;Node7</title>
<g id="a_edge6_Node000006_Node000007"><a xlink:title=" ">
<path fill="none" stroke="#63b8ff" d="M288.63,-59.2C277.49,-49.7 264.59,-38.69 254.6,-30.16"/>
<polygon fill="#63b8ff" stroke="#63b8ff" points="286.48,-61.97 296.36,-65.8 291.02,-56.64 286.48,-61.97"/>
</a>
</g>
</g>
<!-- Node8&#45;&gt;Node5 -->
<g id="edge10_Node000008_Node000005" class="edge">
<title>Node8&#45;&gt;Node5</title>
<g id="a_edge10_Node000008_Node000005"><a xlink:title=" ">
<path fill="none" stroke="#63b8ff" d="M455.67,-60.03C441.44,-50.34 424.69,-38.94 411.8,-30.16"/>
<polygon fill="#63b8ff" stroke="#63b8ff" points="453.9,-63.06 464.14,-65.8 457.84,-57.28 453.9,-63.06"/>
</a>
</g>
</g>
<!-- Node9 -->
<g id="Node000009" class="node">
<title>Node9</title>
<g id="a_Node000009"><a xlink:href="Model3DExportStage_8cpp.html" target="_top" xlink:title=" ">
<polygon fill="white" stroke="#666666" points="645,-30 475,-30 475,0 645,0 645,-30"/>
<text text-anchor="start" x="483" y="-18" font-family="Helvetica,sans-Serif" font-size="10.00">services/export/Model3DExport</text>
<text text-anchor="middle" x="560" y="-7" font-family="Helvetica,sans-Serif" font-size="10.00">Stage.cpp</text>
</a>
</g>
</g>
<!-- Node8&#45;&gt;Node9 -->
<g id="edge9_Node000008_Node000009" class="edge">
<title>Node8&#45;&gt;Node9</title>
<g id="a_edge9_Node000008_Node000009"><a xlink:title=" ">
<path fill="none" stroke="#63b8ff" d="M509.37,-59.2C520.51,-49.7 533.41,-38.69 543.4,-30.16"/>
<polygon fill="#63b8ff" stroke="#63b8ff" points="506.98,-56.64 501.64,-65.8 511.52,-61.97 506.98,-56.64"/>
</a>
</g>
</g>
<!-- Node10&#45;&gt;Node5 -->
<g id="edge12_Node000010_Node000005" class="edge">
<title>Node10&#45;&gt;Node5</title>
<g id="a_edge12_Node000010_Node000005"><a xlink:title=" ">
<path fill="none" stroke="#63b8ff" d="M601.24,-63.71C555.38,-53.31 496.51,-39.95 452.74,-30.01"/>
<polygon fill="#63b8ff" stroke="#63b8ff" points="600.59,-67.15 611.11,-65.95 602.14,-60.33 600.59,-67.15"/>
</a>
</g>
</g>
<!-- Node11 -->
<g id="Node000011" class="node">
<title>Node11</title>
<g id="a_Node000011"><a xlink:href="PreviewImagesExportStage_8cpp.html" target="_top" xlink:title=" ">
<polygon fill="white" stroke="#666666" points="833,-30 663,-30 663,0 833,0 833,-30"/>
<text text-anchor="start" x="671" y="-18" font-family="Helvetica,sans-Serif" font-size="10.00">services/export/PreviewImages</text>
<text text-anchor="middle" x="748" y="-7" font-family="Helvetica,sans-Serif" font-size="10.00">ExportStage.cpp</text>
</a>
</g>
</g>
<!-- Node10&#45;&gt;Node11 -->
<g id="edge13_Node000010_Node000011" class="edge">
<title>Node10&#45;&gt;Node11</title>
<g id="a_edge13_Node000010_Node000011"><a xlink:title=" ">
<path fill="none" stroke="#63b8ff" d="M697.37,-59.2C708.51,-49.7 721.41,-38.69 731.4,-30.16"/>
<polygon fill="#63b8ff" stroke="#63b8ff" points="694.98,-56.64 689.64,-65.8 699.52,-61.97 694.98,-56.64"/>
</a>
</g>
</g>
<!-- Node12&#45;&gt;Node5 -->
<g id="edge15_Node000012_Node000005" class="edge">
<title>Node12&#45;&gt;Node5</title>
<g id="a_edge15_Node000012_Node000005"><a xlink:title=" ">
<path fill="none" stroke="#63b8ff" d="M765.91,-65.89C631.77,-47.87 595.93,-49.87 466,-30 462.99,-29.54 459.91,-29.05 456.81,-28.54"/>
<polygon fill="#63b8ff" stroke="#63b8ff" points="765.79,-69.4 776.17,-67.28 766.73,-62.47 765.79,-69.4"/>
</a>
</g>
</g>
<!-- Node13 -->
<g id="Node000013" class="node">
<title>Node13</title>
<g id="a_Node000013"><a xlink:href="SymbolExportStage_8cpp.html" target="_top" xlink:title=" ">
<polygon fill="white" stroke="#666666" points="1014.5,-30 851.5,-30 851.5,0 1014.5,0 1014.5,-30"/>
<text text-anchor="start" x="859.5" y="-18" font-family="Helvetica,sans-Serif" font-size="10.00">services/export/SymbolExport</text>
<text text-anchor="middle" x="933" y="-7" font-family="Helvetica,sans-Serif" font-size="10.00">Stage.cpp</text>
</a>
</g>
</g>
<!-- Node12&#45;&gt;Node13 -->
<g id="edge16_Node000012_Node000013" class="edge">
<title>Node12&#45;&gt;Node13</title>
<g id="a_edge16_Node000012_Node000013"><a xlink:title=" ">
<path fill="none" stroke="#63b8ff" d="M882.37,-59.2C893.51,-49.7 906.41,-38.69 916.4,-30.16"/>
<polygon fill="#63b8ff" stroke="#63b8ff" points="879.98,-56.64 874.64,-65.8 884.52,-61.97 879.98,-56.64"/>
</a>
</g>
</g>
</g>
</svg>
