<?xml version="1.0" encoding="UTF-8" standalone="no"?>
<!DOCTYPE svg PUBLIC "-//W3C//DTD SVG 1.1//EN"
 "http://www.w3.org/Graphics/SVG/1.1/DTD/svg11.dtd">
<!-- Generated by graphviz version 2.43.0 (0)
 -->
<!-- Title: utils/TestableSingleton.h Pages: 1 -->
<svg width="3895pt" height="467pt"
 viewBox="0.00 0.00 3895.00 467.00" xmlns="http://www.w3.org/2000/svg" xmlns:xlink="http://www.w3.org/1999/xlink">
<g id="graph0" class="graph" transform="scale(1 1) rotate(0) translate(4 463)">
<title>utils/TestableSingleton.h</title>
<!-- Node1 -->
<g id="Node000001" class="node">
<title>Node1</title>
<g id="a_Node000001"><a xlink:title=" ">
<polygon fill="#999999" stroke="#666666" points="2759,-459 2623,-459 2623,-440 2759,-440 2759,-459"/>
<text text-anchor="middle" x="2691" y="-447" font-family="Helvetica,sans-Serif" font-size="10.00">utils/TestableSingleton.h</text>
</a>
</g>
</g>
<!-- Node2 -->
<g id="Node000002" class="node">
<title>Node2</title>
<g id="a_Node000002"><a xlink:href="NetworkClient_8h.html" target="_top" xlink:title=" ">
<polygon fill="white" stroke="#666666" points="2772,-404 2610,-404 2610,-385 2772,-385 2772,-404"/>
<text text-anchor="middle" x="2691" y="-392" font-family="Helvetica,sans-Serif" font-size="10.00">core/network/NetworkClient.h</text>
</a>
</g>
</g>
<!-- Node1&#45;&gt;Node2 -->
<g id="edge1_Node000001_Node000002" class="edge">
<title>Node1&#45;&gt;Node2</title>
<g id="a_edge1_Node000001_Node000002"><a xlink:title=" ">
<path fill="none" stroke="#63b8ff" d="M2691,-429.66C2691,-420.93 2691,-410.99 2691,-404.09"/>
<polygon fill="#63b8ff" stroke="#63b8ff" points="2687.5,-429.75 2691,-439.75 2694.5,-429.75 2687.5,-429.75"/>
</a>
</g>
</g>
<!-- Node3 -->
<g id="Node000003" class="node">
<title>Node3</title>
<g id="a_Node000003"><a xlink:href="EasyedaApi_8cpp.html" target="_top" xlink:title=" ">
<polygon fill="white" stroke="#666666" points="162,-343.5 0,-343.5 0,-324.5 162,-324.5 162,-343.5"/>
<text text-anchor="middle" x="81" y="-331.5" font-family="Helvetica,sans-Serif" font-size="10.00">core/easyeda/EasyedaApi.cpp</text>
</a>
</g>
</g>
<!-- Node2&#45;&gt;Node3 -->
<g id="edge2_Node000002_Node000003" class="edge">
<title>Node2&#45;&gt;Node3</title>
<g id="a_edge2_Node000002_Node000003"><a xlink:title=" ">
<path fill="none" stroke="#63b8ff" d="M2599.54,-393.56C2206.23,-393.57 656.73,-390.87 171,-349 156.98,-347.79 141.83,-345.73 128.03,-343.56"/>
<polygon fill="#63b8ff" stroke="#63b8ff" points="2599.73,-397.06 2609.73,-393.56 2599.73,-390.06 2599.73,-397.06"/>
</a>
</g>
</g>
<!-- Node4 -->
<g id="Node000004" class="node">
<title>Node4</title>
<g id="a_Node000004"><a xlink:href="JLCDatasheet_8cpp.html" target="_top" xlink:title=" ">
<polygon fill="white" stroke="#666666" points="350,-343.5 180,-343.5 180,-324.5 350,-324.5 350,-343.5"/>
<text text-anchor="middle" x="265" y="-331.5" font-family="Helvetica,sans-Serif" font-size="10.00">core/easyeda/JLCDatasheet.cpp</text>
</a>
</g>
</g>
<!-- Node2&#45;&gt;Node4 -->
<g id="edge3_Node000002_Node000004" class="edge">
<title>Node2&#45;&gt;Node4</title>
<g id="a_edge3_Node000002_Node000004"><a xlink:title=" ">
<path fill="none" stroke="#63b8ff" d="M2599.65,-393.33C2225.11,-392.39 805.88,-386.39 359,-349 344.37,-347.78 328.55,-345.71 314.13,-343.54"/>
<polygon fill="#63b8ff" stroke="#63b8ff" points="2599.88,-396.83 2609.89,-393.36 2599.9,-389.83 2599.88,-396.83"/>
</a>
</g>
</g>
<!-- Node5 -->
<g id="Node000005" class="node">
<title>Node5</title>
<g id="a_Node000005"><a xlink:href="Exporter3DModel_8cpp.html" target="_top" xlink:title=" ">
<polygon fill="white" stroke="#666666" points="543.5,-343.5 368.5,-343.5 368.5,-324.5 543.5,-324.5 543.5,-343.5"/>
<text text-anchor="middle" x="456" y="-331.5" font-family="Helvetica,sans-Serif" font-size="10.00">core/kicad/Exporter3DModel.cpp</text>
</a>
</g>
</g>
<!-- Node2&#45;&gt;Node5 -->
<g id="edge4_Node000002_Node000005" class="edge">
<title>Node2&#45;&gt;Node5</title>
<g id="a_edge4_Node000002_Node000005"><a xlink:title=" ">
<path fill="none" stroke="#63b8ff" d="M2599.64,-393.11C2244.98,-391.36 958.98,-382.78 552,-349 537.06,-347.76 520.91,-345.69 506.19,-343.52"/>
<polygon fill="#63b8ff" stroke="#63b8ff" points="2599.84,-396.61 2609.86,-393.16 2599.88,-389.61 2599.84,-396.61"/>
</a>
</g>
</g>
<!-- Node6 -->
<g id="Node000006" class="node">
<title>Node6</title>
<g id="a_Node000006"><a xlink:href="NetworkClient_8cpp.html" target="_top" xlink:title=" ">
<polygon fill="white" stroke="#666666" points="734.5,-343.5 561.5,-343.5 561.5,-324.5 734.5,-324.5 734.5,-343.5"/>
<text text-anchor="middle" x="648" y="-331.5" font-family="Helvetica,sans-Serif" font-size="10.00">core/network/NetworkClient.cpp</text>
</a>
</g>
</g>
<!-- Node2&#45;&gt;Node6 -->
<g id="edge5_Node000002_Node000006" class="edge">
<title>Node2&#45;&gt;Node6</title>
<g id="a_edge5_Node000002_Node000006"><a xlink:title=" ">
<path fill="none" stroke="#63b8ff" d="M2599.8,-392.8C2266.6,-390.03 1115.5,-378.5 749,-349 733.38,-347.74 716.49,-345.68 701.08,-343.52"/>
<polygon fill="#63b8ff" stroke="#63b8ff" points="2599.86,-396.3 2609.89,-392.88 2599.92,-389.3 2599.86,-396.3"/>
</a>
</g>
</g>
<!-- Node7 -->
<g id="Node000007" class="node">
<title>Node7</title>
<g id="a_Node000007"><a xlink:href="main_8cpp.html" target="_top" xlink:title=" ">
<polygon fill="white" stroke="#666666" points="2367,-24.5 2305,-24.5 2305,-5.5 2367,-5.5 2367,-24.5"/>
<text text-anchor="middle" x="2336" y="-12.5" font-family="Helvetica,sans-Serif" font-size="10.00">main.cpp</text>
</a>
</g>
</g>
<!-- Node2&#45;&gt;Node7 -->
<g id="edge6_Node000002_Node000007" class="edge">
<title>Node2&#45;&gt;Node7</title>
<g id="a_edge6_Node000002_Node000007"><a xlink:title=" ">
<path fill="none" stroke="#63b8ff" d="M2708.5,-377.81C2730.94,-355.87 2767,-313.66 2767,-269 2767,-269 2767,-269 2767,-146 2767,-62.47 2466.52,-27.8 2367.34,-18.63"/>
<polygon fill="#63b8ff" stroke="#63b8ff" points="2705.81,-375.54 2700.94,-384.95 2710.61,-380.63 2705.81,-375.54"/>
</a>
</g>
</g>
<!-- Node8 -->
<g id="Node000008" class="node">
<title>Node8</title>
<g id="a_Node000008"><a xlink:href="CadDataLoader_8cpp.html" target="_top" xlink:title=" ">
<polygon fill="white" stroke="#666666" points="946.5,-343.5 791.5,-343.5 791.5,-324.5 946.5,-324.5 946.5,-343.5"/>
<text text-anchor="middle" x="869" y="-331.5" font-family="Helvetica,sans-Serif" font-size="10.00">services/CadDataLoader.cpp</text>
</a>
</g>
</g>
<!-- Node2&#45;&gt;Node8 -->
<g id="edge7_Node000002_Node000008" class="edge">
<title>Node2&#45;&gt;Node8</title>
<g id="a_edge7_Node000002_Node000008"><a xlink:title=" ">
<path fill="none" stroke="#63b8ff" d="M2599.51,-392.66C2290.01,-389.59 1283.64,-377.58 961,-349 946.84,-347.75 931.54,-345.7 917.56,-343.55"/>
<polygon fill="#63b8ff" stroke="#63b8ff" points="2599.75,-396.16 2609.78,-392.76 2599.81,-389.16 2599.75,-396.16"/>
</a>
</g>
</g>
<!-- Node9 -->
<g id="Node000009" class="node">
<title>Node9</title>
<g id="a_Node000009"><a xlink:href="ComponentCacheService_8cpp.html" target="_top" xlink:title=" ">
<polygon fill="white" stroke="#666666" points="1032.5,-156.5 829.5,-156.5 829.5,-137.5 1032.5,-137.5 1032.5,-156.5"/>
<text text-anchor="middle" x="931" y="-144.5" font-family="Helvetica,sans-Serif" font-size="10.00">services/ComponentCacheService.cpp</text>
</a>
</g>
</g>
<!-- Node2&#45;&gt;Node9 -->
<g id="edge8_Node000002_Node000009" class="edge">
<title>Node2&#45;&gt;Node9</title>
<g id="a_edge8_Node000002_Node000009"><a xlink:title=" ">
<path fill="none" stroke="#63b8ff" d="M2599.88,-393.09C2224.26,-391.19 814.12,-381.88 782,-349 716.74,-282.2 866.19,-185.83 915.74,-156.68"/>
<polygon fill="#63b8ff" stroke="#63b8ff" points="2599.87,-396.59 2609.89,-393.14 2599.91,-389.59 2599.87,-396.59"/>
</a>
</g>
</g>
<!-- Node10 -->
<g id="Node000010" class="node">
<title>Node10</title>
<g id="a_Node000010"><a xlink:href="ComponentCacheService_8h.html" target="_top" xlink:title=" ">
<polygon fill="white" stroke="#666666" points="1714.5,-343.5 1523.5,-343.5 1523.5,-324.5 1714.5,-324.5 1714.5,-343.5"/>
<text text-anchor="middle" x="1619" y="-331.5" font-family="Helvetica,sans-Serif" font-size="10.00">services/ComponentCacheService.h</text>
</a>
</g>
</g>
<!-- Node2&#45;&gt;Node10 -->
<g id="edge9_Node000002_Node000010" class="edge">
<title>Node2&#45;&gt;Node10</title>
<g id="a_edge9_Node000002_Node000010"><a xlink:title=" ">
<path fill="none" stroke="#63b8ff" d="M2599.76,-388.52C2398.87,-377.56 1919.92,-351.42 1714.85,-340.23"/>
<polygon fill="#63b8ff" stroke="#63b8ff" points="2599.81,-392.03 2609.99,-389.08 2600.19,-385.04 2599.81,-392.03"/>
</a>
</g>
</g>
<!-- Node14 -->
<g id="Node000014" class="node">
<title>Node14</title>
<g id="a_Node000014"><a xlink:href="ComponentService_8cpp.html" target="_top" xlink:title=" ">
<polygon fill="white" stroke="#666666" points="2458.5,-156.5 2285.5,-156.5 2285.5,-137.5 2458.5,-137.5 2458.5,-156.5"/>
<text text-anchor="middle" x="2372" y="-144.5" font-family="Helvetica,sans-Serif" font-size="10.00">services/ComponentService.cpp</text>
</a>
</g>
</g>
<!-- Node2&#45;&gt;Node14 -->
<g id="edge45_Node000002_Node000014" class="edge">
<title>Node2&#45;&gt;Node14</title>
<g id="a_edge45_Node000002_Node000014"><a xlink:title=" ">
<path fill="none" stroke="#63b8ff" d="M2682.74,-375.36C2668.66,-346.16 2637.46,-288.44 2596,-253 2536.58,-202.21 2448.43,-170.57 2402.44,-156.52"/>
<polygon fill="#63b8ff" stroke="#63b8ff" points="2679.73,-377.17 2687.14,-384.73 2686.06,-374.19 2679.73,-377.17"/>
</a>
</g>
</g>
<!-- Node15 -->
<g id="Node000015" class="node">
<title>Node15</title>
<g id="a_Node000015"><a xlink:href="ParallelExportService_8cpp.html" target="_top" xlink:title=" ">
<polygon fill="white" stroke="#666666" points="2738.5,-162 2607.5,-162 2607.5,-132 2738.5,-132 2738.5,-162"/>
<text text-anchor="start" x="2615.5" y="-150" font-family="Helvetica,sans-Serif" font-size="10.00">services/export/Parallel</text>
<text text-anchor="middle" x="2673" y="-139" font-family="Helvetica,sans-Serif" font-size="10.00">ExportService.cpp</text>
</a>
</g>
</g>
<!-- Node2&#45;&gt;Node15 -->
<g id="edge51_Node000002_Node000015" class="edge">
<title>Node2&#45;&gt;Node15</title>
<g id="a_edge51_Node000002_Node000015"><a xlink:title=" ">
<path fill="none" stroke="#63b8ff" d="M2698.15,-375.18C2700.87,-367.26 2703.65,-357.81 2705,-349 2711.48,-306.83 2711.29,-295.2 2705,-253 2700.03,-219.64 2686.63,-182.21 2678.84,-162.29"/>
<polygon fill="#63b8ff" stroke="#63b8ff" points="2694.77,-374.23 2694.6,-384.82 2701.34,-376.65 2694.77,-374.23"/>
</a>
</g>
</g>
<!-- Node26 -->
<g id="Node000026" class="node">
<title>Node26</title>
<g id="a_Node000026"><a xlink:href="LcscImageService_8cpp.html" target="_top" xlink:title=" ">
<polygon fill="white" stroke="#666666" points="1158,-217 990,-217 990,-198 1158,-198 1158,-217"/>
<text text-anchor="middle" x="1074" y="-205" font-family="Helvetica,sans-Serif" font-size="10.00">services/LcscImageService.cpp</text>
</a>
</g>
</g>
<!-- Node2&#45;&gt;Node26 -->
<g id="edge47_Node000002_Node000026" class="edge">
<title>Node2&#45;&gt;Node26</title>
<g id="a_edge47_Node000002_Node000026"><a xlink:title=" ">
<path fill="none" stroke="#63b8ff" d="M2599.76,-391.39C2242.26,-382.69 953.5,-346.96 896,-283 862.4,-245.63 929.29,-226.48 990.44,-217.02"/>
<polygon fill="#63b8ff" stroke="#63b8ff" points="2599.73,-394.89 2609.81,-391.64 2599.9,-387.89 2599.73,-394.89"/>
</a>
</g>
</g>
<!-- Node34 -->
<g id="Node000034" class="node">
<title>Node34</title>
<g id="a_Node000034"><a xlink:href="DatasheetExporter_8cpp.html" target="_top" xlink:title=" ">
<polygon fill="white" stroke="#666666" points="2966.5,-343.5 2795.5,-343.5 2795.5,-324.5 2966.5,-324.5 2966.5,-343.5"/>
<text text-anchor="middle" x="2881" y="-331.5" font-family="Helvetica,sans-Serif" font-size="10.00">services/DatasheetExporter.cpp</text>
</a>
</g>
</g>
<!-- Node2&#45;&gt;Node34 -->
<g id="edge46_Node000002_Node000034" class="edge">
<title>Node2&#45;&gt;Node34</title>
<g id="a_edge46_Node000002_Node000034"><a xlink:title=" ">
<path fill="none" stroke="#63b8ff" d="M2728.47,-381.96C2765.22,-370.65 2820.4,-353.66 2853.34,-343.52"/>
<polygon fill="#63b8ff" stroke="#63b8ff" points="2727.15,-378.71 2718.63,-384.99 2729.21,-385.4 2727.15,-378.71"/>
</a>
</g>
</g>
<!-- Node35 -->
<g id="Node000035" class="node">
<title>Node35</title>
<g id="a_Node000035"><a xlink:href="PreviewImageExporter_8cpp.html" target="_top" xlink:title=" ">
<polygon fill="white" stroke="#666666" points="3175.5,-343.5 2984.5,-343.5 2984.5,-324.5 3175.5,-324.5 3175.5,-343.5"/>
<text text-anchor="middle" x="3080" y="-331.5" font-family="Helvetica,sans-Serif" font-size="10.00">services/PreviewImageExporter.cpp</text>
</a>
</g>
</g>
<!-- Node2&#45;&gt;Node35 -->
<g id="edge48_Node000002_Node000035" class="edge">
<title>Node2&#45;&gt;Node35</title>
<g id="a_edge48_Node000002_Node000035"><a xlink:title=" ">
<path fill="none" stroke="#63b8ff" d="M2757.82,-383.45C2832.73,-372.19 2952.9,-354.11 3023.37,-343.52"/>
<polygon fill="#63b8ff" stroke="#63b8ff" points="2756.93,-380.05 2747.56,-384.99 2757.97,-386.97 2756.93,-380.05"/>
</a>
</g>
</g>
<!-- Node36 -->
<g id="Node000036" class="node">
<title>Node36</title>
<g id="a_Node000036"><a xlink:href="UpdateCheckerService_8cpp.html" target="_top" xlink:title=" ">
<polygon fill="white" stroke="#666666" points="3384.5,-343.5 3193.5,-343.5 3193.5,-324.5 3384.5,-324.5 3384.5,-343.5"/>
<text text-anchor="middle" x="3289" y="-331.5" font-family="Helvetica,sans-Serif" font-size="10.00">services/UpdateCheckerService.cpp</text>
</a>
</g>
</g>
<!-- Node2&#45;&gt;Node36 -->
<g id="edge49_Node000002_Node000036" class="edge">
<title>Node2&#45;&gt;Node36</title>
<g id="a_edge49_Node000002_Node000036"><a xlink:title=" ">
<path fill="none" stroke="#63b8ff" d="M2782.4,-386.48C2881.65,-378.57 3044.77,-364.75 3185,-349 3199.3,-347.39 3214.68,-345.45 3229.11,-343.52"/>
<polygon fill="#63b8ff" stroke="#63b8ff" points="2782.1,-382.99 2772.41,-387.27 2782.65,-389.97 2782.1,-382.99"/>
</a>
</g>
</g>
<!-- Node37 -->
<g id="Node000037" class="node">
<title>Node37</title>
<g id="a_Node000037"><a xlink:href="ExportReportGenerator_8cpp.html" target="_top" xlink:title=" ">
<polygon fill="white" stroke="#666666" points="3561,-349 3403,-349 3403,-319 3561,-319 3561,-349"/>
<text text-anchor="start" x="3411" y="-337" font-family="Helvetica,sans-Serif" font-size="10.00">services/export/ExportReport</text>
<text text-anchor="middle" x="3482" y="-326" font-family="Helvetica,sans-Serif" font-size="10.00">Generator.cpp</text>
</a>
</g>
</g>
<!-- Node2&#45;&gt;Node37 -->
<g id="edge50_Node000002_Node000037" class="edge">
<title>Node2&#45;&gt;Node37</title>
<g id="a_edge50_Node000002_Node000037"><a xlink:title=" ">
<path fill="none" stroke="#63b8ff" d="M2782.38,-390.48C2916.72,-385.4 3175.29,-373.26 3394,-349 3396.92,-348.68 3399.89,-348.32 3402.89,-347.95"/>
<polygon fill="#63b8ff" stroke="#63b8ff" points="2782,-386.99 2772.14,-390.86 2782.26,-393.98 2782,-386.99"/>
</a>
</g>
</g>
<!-- Node38 -->
<g id="Node000038" class="node">
<title>Node38</title>
<g id="a_Node000038"><a xlink:href="FetchWorker_8cpp.html" target="_top" xlink:title=" ">
<polygon fill="white" stroke="#666666" points="3716.5,-343.5 3579.5,-343.5 3579.5,-324.5 3716.5,-324.5 3716.5,-343.5"/>
<text text-anchor="middle" x="3648" y="-331.5" font-family="Helvetica,sans-Serif" font-size="10.00">workers/FetchWorker.cpp</text>
</a>
</g>
</g>
<!-- Node2&#45;&gt;Node38 -->
<g id="edge52_Node000002_Node000038" class="edge">
<title>Node2&#45;&gt;Node38</title>
<g id="a_edge52_Node000002_Node000038"><a xlink:title=" ">
<path fill="none" stroke="#63b8ff" d="M2782.46,-392.69C2942.57,-390.42 3283.87,-381.79 3570,-349 3581.76,-347.65 3594.41,-345.63 3606.04,-343.54"/>
<polygon fill="#63b8ff" stroke="#63b8ff" points="2782.13,-389.19 2772.17,-392.83 2782.22,-396.19 2782.13,-389.19"/>
</a>
</g>
</g>
<!-- Node39 -->
<g id="Node000039" class="node">
<title>Node39</title>
<g id="a_Node000039"><a xlink:href="NetworkWorker_8cpp.html" target="_top" xlink:title=" ">
<polygon fill="white" stroke="#666666" points="3887,-343.5 3735,-343.5 3735,-324.5 3887,-324.5 3887,-343.5"/>
<text text-anchor="middle" x="3811" y="-331.5" font-family="Helvetica,sans-Serif" font-size="10.00">workers/NetworkWorker.cpp</text>
</a>
</g>
</g>
<!-- Node2&#45;&gt;Node39 -->
<g id="edge53_Node000002_Node000039" class="edge">
<title>Node2&#45;&gt;Node39</title>
<g id="a_edge53_Node000002_Node000039"><a xlink:title=" ">
<path fill="none" stroke="#63b8ff" d="M2782.35,-393.26C2963.05,-391.96 3378.75,-384.93 3726,-349 3738.79,-347.68 3752.58,-345.66 3765.26,-343.57"/>
<polygon fill="#63b8ff" stroke="#63b8ff" points="2782.07,-389.76 2772.09,-393.32 2782.12,-396.76 2782.07,-389.76"/>
</a>
</g>
</g>
<!-- Node10&#45;&gt;Node7 -->
<g id="edge10_Node000010_Node000007" class="edge">
<title>Node10&#45;&gt;Node7</title>
<g id="a_edge10_Node000010_Node000007"><a xlink:title=" ">
<path fill="none" stroke="#63b8ff" d="M1724.6,-331.46C1971.19,-327.34 2566.36,-314.2 2596,-283 2693.71,-180.16 2433.34,-57.63 2356.58,-24.57"/>
<polygon fill="#63b8ff" stroke="#63b8ff" points="1724.49,-327.96 1714.55,-331.62 1724.6,-334.96 1724.49,-327.96"/>
</a>
</g>
</g>
<!-- Node10&#45;&gt;Node9 -->
<g id="edge13_Node000010_Node000009" class="edge">
<title>Node10&#45;&gt;Node9</title>
<g id="a_edge13_Node000010_Node000009"><a xlink:title=" ">
<path fill="none" stroke="#63b8ff" d="M1513.21,-333.47C1322.56,-333.19 937.17,-327.11 896,-283 861.64,-246.18 906.22,-180.07 924.15,-156.58"/>
<polygon fill="#63b8ff" stroke="#63b8ff" points="1513.26,-336.97 1523.26,-333.47 1513.26,-329.97 1513.26,-336.97"/>
</a>
</g>
</g>
<!-- Node11 -->
<g id="Node000011" class="node">
<title>Node11</title>
<g id="a_Node000011"><a xlink:href="CacheRepository_8h.html" target="_top" xlink:title=" ">
<polygon fill="white" stroke="#666666" points="1867,-277.5 1717,-277.5 1717,-258.5 1867,-258.5 1867,-277.5"/>
<text text-anchor="middle" x="1792" y="-265.5" font-family="Helvetica,sans-Serif" font-size="10.00">services/CacheRepository.h</text>
</a>
</g>
</g>
<!-- Node10&#45;&gt;Node11 -->
<g id="edge11_Node000010_Node000011" class="edge">
<title>Node10&#45;&gt;Node11</title>
<g id="a_edge11_Node000010_Node000011"><a xlink:title=" ">
<path fill="none" stroke="#63b8ff" d="M1651.87,-320.84C1686.05,-308.2 1738.67,-288.73 1768.76,-277.6"/>
<polygon fill="#63b8ff" stroke="#63b8ff" points="1650.5,-317.62 1642.33,-324.37 1652.92,-324.18 1650.5,-317.62"/>
</a>
</g>
</g>
<!-- Node12 -->
<g id="Node000012" class="node">
<title>Node12</title>
<g id="a_Node000012"><a xlink:href="MediaFetchWorker_8cpp.html" target="_top" xlink:title=" ">
<polygon fill="white" stroke="#666666" points="1875.5,-217 1708.5,-217 1708.5,-198 1875.5,-198 1875.5,-217"/>
<text text-anchor="middle" x="1792" y="-205" font-family="Helvetica,sans-Serif" font-size="10.00">workers/MediaFetchWorker.cpp</text>
</a>
</g>
</g>
<!-- Node10&#45;&gt;Node12 -->
<g id="edge44_Node000010_Node000012" class="edge">
<title>Node10&#45;&gt;Node12</title>
<g id="a_edge44_Node000010_Node000012"><a xlink:title=" ">
<path fill="none" stroke="#63b8ff" d="M1512.96,-330.35C1424.09,-324.44 1318.86,-306.45 1367,-253 1369.84,-249.85 1585.5,-228.49 1708.47,-216.55"/>
<polygon fill="#63b8ff" stroke="#63b8ff" points="1512.95,-333.86 1523.15,-330.98 1513.38,-326.87 1512.95,-333.86"/>
</a>
</g>
</g>
<!-- Node13 -->
<g id="Node000013" class="node">
<title>Node13</title>
<g id="a_Node000013"><a xlink:href="ComponentService_8h.html" target="_top" xlink:title=" ">
<polygon fill="white" stroke="#666666" points="1690.5,-217 1529.5,-217 1529.5,-198 1690.5,-198 1690.5,-217"/>
<text text-anchor="middle" x="1610" y="-205" font-family="Helvetica,sans-Serif" font-size="10.00">services/ComponentService.h</text>
</a>
</g>
</g>
<!-- Node10&#45;&gt;Node13 -->
<g id="edge14_Node000010_Node000013" class="edge">
<title>Node10&#45;&gt;Node13</title>
<g id="a_edge14_Node000010_Node000013"><a xlink:title=" ">
<path fill="none" stroke="#63b8ff" d="M1513.17,-328.39C1441.58,-322.8 1356.04,-310.41 1333,-283 1324.42,-272.79 1324.35,-263.15 1333,-253 1357.84,-223.85 1456.68,-213.72 1529.24,-210.24"/>
<polygon fill="#63b8ff" stroke="#63b8ff" points="1512.93,-331.89 1523.17,-329.14 1513.46,-324.9 1512.93,-331.89"/>
</a>
</g>
</g>
<!-- Node10&#45;&gt;Node15 -->
<g id="edge40_Node000010_Node000015" class="edge">
<title>Node10&#45;&gt;Node15</title>
<g id="a_edge40_Node000010_Node000015"><a xlink:title=" ">
<path fill="none" stroke="#63b8ff" d="M1724.79,-330.97C1976.65,-325.71 2593.53,-310.11 2629,-283 2667.19,-253.81 2672.73,-190.76 2673.2,-162.37"/>
<polygon fill="#63b8ff" stroke="#63b8ff" points="1724.46,-327.48 1714.53,-331.18 1724.6,-334.47 1724.46,-327.48"/>
</a>
</g>
</g>
<!-- Node17 -->
<g id="Node000017" class="node">
<title>Node17</title>
<g id="a_Node000017"><a xlink:href="PipelineCompletionHandler_8cpp.html" target="_top" xlink:title=" ">
<polygon fill="white" stroke="#666666" points="1730.5,-30 1575.5,-30 1575.5,0 1730.5,0 1730.5,-30"/>
<text text-anchor="start" x="1583.5" y="-18" font-family="Helvetica,sans-Serif" font-size="10.00">services/PipelineCompletion</text>
<text text-anchor="middle" x="1653" y="-7" font-family="Helvetica,sans-Serif" font-size="10.00">Handler.cpp</text>
</a>
</g>
</g>
<!-- Node10&#45;&gt;Node17 -->
<g id="edge34_Node000010_Node000017" class="edge">
<title>Node10&#45;&gt;Node17</title>
<g id="a_edge34_Node000010_Node000017"><a xlink:title=" ">
<path fill="none" stroke="#63b8ff" d="M1513.34,-331.62C1321.61,-328.28 931.34,-317.3 880,-283 819.95,-242.88 772.59,-186.47 820,-132 869.34,-75.31 1378.05,-34.78 1575.37,-21.08"/>
<polygon fill="#63b8ff" stroke="#63b8ff" points="1513.38,-335.12 1523.44,-331.79 1513.5,-328.12 1513.38,-335.12"/>
</a>
</g>
</g>
<!-- Node19 -->
<g id="Node000019" class="node">
<title>Node19</title>
<g id="a_Node000019"><a xlink:href="ExportProgressViewModel_8h.html" target="_top" xlink:title=" ">
<polygon fill="white" stroke="#666666" points="1824,-96 1660,-96 1660,-66 1824,-66 1824,-96"/>
<text text-anchor="start" x="1668" y="-84" font-family="Helvetica,sans-Serif" font-size="10.00">ui/viewmodels/ExportProgress</text>
<text text-anchor="middle" x="1742" y="-73" font-family="Helvetica,sans-Serif" font-size="10.00">ViewModel.h</text>
</a>
</g>
</g>
<!-- Node10&#45;&gt;Node19 -->
<g id="edge42_Node000010_Node000019" class="edge">
<title>Node10&#45;&gt;Node19</title>
<g id="a_edge42_Node000010_Node000019"><a xlink:title=" ">
<path fill="none" stroke="#63b8ff" d="M1513.08,-327C1439.77,-320.69 1350.62,-308.02 1323,-283 1272.08,-236.89 1244.17,-183.18 1290,-132 1314.18,-105 1536.22,-91.01 1659.84,-85.26"/>
<polygon fill="#63b8ff" stroke="#63b8ff" points="1513.05,-330.51 1523.31,-327.85 1513.63,-323.53 1513.05,-330.51"/>
</a>
</g>
</g>
<!-- Node25 -->
<g id="Node000025" class="node">
<title>Node25</title>
<g id="a_Node000025"><a xlink:href="LcscImageService_8h.html" target="_top" xlink:title=" ">
<polygon fill="white" stroke="#666666" points="1242.5,-277.5 1085.5,-277.5 1085.5,-258.5 1242.5,-258.5 1242.5,-277.5"/>
<text text-anchor="middle" x="1164" y="-265.5" font-family="Helvetica,sans-Serif" font-size="10.00">services/LcscImageService.h</text>
</a>
</g>
</g>
<!-- Node10&#45;&gt;Node25 -->
<g id="edge31_Node000010_Node000025" class="edge">
<title>Node10&#45;&gt;Node25</title>
<g id="a_edge31_Node000010_Node000025"><a xlink:title=" ">
<path fill="none" stroke="#63b8ff" d="M1545.5,-323.11C1472.33,-313.21 1356.85,-297.41 1257,-283 1245.04,-281.27 1232.23,-279.38 1220.05,-277.55"/>
<polygon fill="#63b8ff" stroke="#63b8ff" points="1545.16,-326.6 1555.54,-324.47 1546.1,-319.66 1545.16,-326.6"/>
</a>
</g>
</g>
<!-- Node27 -->
<g id="Node000027" class="node">
<title>Node27</title>
<g id="a_Node000027"><a xlink:href="DatasheetExportWorker_8cpp.html" target="_top" xlink:title=" ">
<polygon fill="white" stroke="#666666" points="1520.5,-283 1375.5,-283 1375.5,-253 1520.5,-253 1520.5,-283"/>
<text text-anchor="start" x="1383.5" y="-271" font-family="Helvetica,sans-Serif" font-size="10.00">services/export/Datasheet</text>
<text text-anchor="middle" x="1448" y="-260" font-family="Helvetica,sans-Serif" font-size="10.00">ExportWorker.cpp</text>
</a>
</g>
</g>
<!-- Node10&#45;&gt;Node27 -->
<g id="edge35_Node000010_Node000027" class="edge">
<title>Node10&#45;&gt;Node27</title>
<g id="a_edge35_Node000010_Node000027"><a xlink:title=" ">
<path fill="none" stroke="#63b8ff" d="M1586.37,-320.79C1557.66,-310.04 1515.85,-294.4 1485.72,-283.12"/>
<polygon fill="#63b8ff" stroke="#63b8ff" points="1585.35,-324.14 1595.94,-324.37 1587.8,-317.59 1585.35,-324.14"/>
</a>
</g>
</g>
<!-- Node28 -->
<g id="Node000028" class="node">
<title>Node28</title>
<g id="a_Node000028"><a xlink:href="ExportWorkerHelpers_8cpp.html" target="_top" xlink:title=" ">
<polygon fill="white" stroke="#666666" points="1699,-283 1539,-283 1539,-253 1699,-253 1699,-283"/>
<text text-anchor="start" x="1547" y="-271" font-family="Helvetica,sans-Serif" font-size="10.00">services/export/ExportWorker</text>
<text text-anchor="middle" x="1619" y="-260" font-family="Helvetica,sans-Serif" font-size="10.00">Helpers.cpp</text>
</a>
</g>
</g>
<!-- Node10&#45;&gt;Node28 -->
<g id="edge36_Node000010_Node000028" class="edge">
<title>Node10&#45;&gt;Node28</title>
<g id="a_edge36_Node000010_Node000028"><a xlink:title=" ">
<path fill="none" stroke="#63b8ff" d="M1619,-314.35C1619,-304.47 1619,-292.51 1619,-283.36"/>
<polygon fill="#63b8ff" stroke="#63b8ff" points="1615.5,-314.37 1619,-324.37 1622.5,-314.37 1615.5,-314.37"/>
</a>
</g>
</g>
<!-- Node29 -->
<g id="Node000029" class="node">
<title>Node29</title>
<g id="a_Node000029"><a xlink:href="FootprintExportStage_8cpp.html" target="_top" xlink:title=" ">
<polygon fill="white" stroke="#666666" points="2023,-283 1885,-283 1885,-253 2023,-253 2023,-283"/>
<text text-anchor="start" x="1893" y="-271" font-family="Helvetica,sans-Serif" font-size="10.00">services/export/Footprint</text>
<text text-anchor="middle" x="1954" y="-260" font-family="Helvetica,sans-Serif" font-size="10.00">ExportStage.cpp</text>
</a>
</g>
</g>
<!-- Node10&#45;&gt;Node29 -->
<g id="edge37_Node000010_Node000029" class="edge">
<title>Node10&#45;&gt;Node29</title>
<g id="a_edge37_Node000010_Node000029"><a xlink:title=" ">
<path fill="none" stroke="#63b8ff" d="M1673.84,-322.52C1731.44,-311.52 1822.18,-294.18 1884.7,-282.24"/>
<polygon fill="#63b8ff" stroke="#63b8ff" points="1673,-319.12 1663.83,-324.44 1674.31,-326 1673,-319.12"/>
</a>
</g>
</g>
<!-- Node30 -->
<g id="Node000030" class="node">
<title>Node30</title>
<g id="a_Node000030"><a xlink:href="Model3DExportStage_8cpp.html" target="_top" xlink:title=" ">
<polygon fill="white" stroke="#666666" points="2211,-283 2041,-283 2041,-253 2211,-253 2211,-283"/>
<text text-anchor="start" x="2049" y="-271" font-family="Helvetica,sans-Serif" font-size="10.00">services/export/Model3DExport</text>
<text text-anchor="middle" x="2126" y="-260" font-family="Helvetica,sans-Serif" font-size="10.00">Stage.cpp</text>
</a>
</g>
</g>
<!-- Node10&#45;&gt;Node30 -->
<g id="edge38_Node000010_Node000030" class="edge">
<title>Node10&#45;&gt;Node30</title>
<g id="a_edge38_Node000010_Node000030"><a xlink:title=" ">
<path fill="none" stroke="#63b8ff" d="M1704.4,-323.35C1787.97,-313.75 1918.86,-298.27 2032,-283 2034.94,-282.6 2037.94,-282.19 2040.96,-281.77"/>
<polygon fill="#63b8ff" stroke="#63b8ff" points="1703.98,-319.88 1694.44,-324.49 1704.78,-326.83 1703.98,-319.88"/>
</a>
</g>
</g>
<!-- Node31 -->
<g id="Node000031" class="node">
<title>Node31</title>
<g id="a_Node000031"><a xlink:href="Model3DExportWorker_8cpp.html" target="_top" xlink:title=" ">
<polygon fill="white" stroke="#666666" points="2399,-283 2229,-283 2229,-253 2399,-253 2399,-283"/>
<text text-anchor="start" x="2237" y="-271" font-family="Helvetica,sans-Serif" font-size="10.00">services/export/Model3DExport</text>
<text text-anchor="middle" x="2314" y="-260" font-family="Helvetica,sans-Serif" font-size="10.00">Worker.cpp</text>
</a>
</g>
</g>
<!-- Node10&#45;&gt;Node31 -->
<g id="edge39_Node000010_Node000031" class="edge">
<title>Node10&#45;&gt;Node31</title>
<g id="a_edge39_Node000010_Node000031"><a xlink:title=" ">
<path fill="none" stroke="#63b8ff" d="M1724.99,-326.27C1845.23,-318.15 2047.06,-303.05 2220,-283 2222.95,-282.66 2225.95,-282.29 2228.98,-281.92"/>
<polygon fill="#63b8ff" stroke="#63b8ff" points="1724.43,-322.8 1714.69,-326.96 1724.9,-329.78 1724.43,-322.8"/>
</a>
</g>
</g>
<!-- Node32 -->
<g id="Node000032" class="node">
<title>Node32</title>
<g id="a_Node000032"><a xlink:href="PreviewImagesExportWorker_8cpp.html" target="_top" xlink:title=" ">
<polygon fill="white" stroke="#666666" points="2587,-283 2417,-283 2417,-253 2587,-253 2587,-283"/>
<text text-anchor="start" x="2425" y="-271" font-family="Helvetica,sans-Serif" font-size="10.00">services/export/PreviewImages</text>
<text text-anchor="middle" x="2502" y="-260" font-family="Helvetica,sans-Serif" font-size="10.00">ExportWorker.cpp</text>
</a>
</g>
</g>
<!-- Node10&#45;&gt;Node32 -->
<g id="edge41_Node000010_Node000032" class="edge">
<title>Node10&#45;&gt;Node32</title>
<g id="a_edge41_Node000010_Node000032"><a xlink:title=" ">
<path fill="none" stroke="#63b8ff" d="M1724.79,-329.14C1876.42,-322.96 2164.17,-308.84 2408,-283 2410.95,-282.69 2413.96,-282.35 2416.99,-281.99"/>
<polygon fill="#63b8ff" stroke="#63b8ff" points="1724.41,-325.65 1714.56,-329.55 1724.69,-332.65 1724.41,-325.65"/>
</a>
</g>
</g>
<!-- Node33 -->
<g id="Node000033" class="node">
<title>Node33</title>
<g id="a_Node000033"><a xlink:href="ExportSettingsViewModel_8cpp.html" target="_top" xlink:title=" ">
<polygon fill="white" stroke="#666666" points="1067,-283 905,-283 905,-253 1067,-253 1067,-283"/>
<text text-anchor="start" x="913" y="-271" font-family="Helvetica,sans-Serif" font-size="10.00">ui/viewmodels/ExportSettings</text>
<text text-anchor="middle" x="986" y="-260" font-family="Helvetica,sans-Serif" font-size="10.00">ViewModel.cpp</text>
</a>
</g>
</g>
<!-- Node10&#45;&gt;Node33 -->
<g id="edge43_Node000010_Node000033" class="edge">
<title>Node10&#45;&gt;Node33</title>
<g id="a_edge43_Node000010_Node000033"><a xlink:title=" ">
<path fill="none" stroke="#63b8ff" d="M1513.1,-325.22C1403.51,-316.7 1227.47,-301.74 1076,-283 1073.18,-282.65 1070.3,-282.28 1067.4,-281.9"/>
<polygon fill="#63b8ff" stroke="#63b8ff" points="1512.93,-328.72 1523.17,-326 1513.47,-321.74 1512.93,-328.72"/>
</a>
</g>
</g>
<!-- Node11&#45;&gt;Node12 -->
<g id="edge12_Node000011_Node000012" class="edge">
<title>Node11&#45;&gt;Node12</title>
<g id="a_edge12_Node000011_Node000012"><a xlink:title=" ">
<path fill="none" stroke="#63b8ff" d="M1792,-248.16C1792,-237.74 1792,-225.3 1792,-217.17"/>
<polygon fill="#63b8ff" stroke="#63b8ff" points="1788.5,-248.37 1792,-258.37 1795.5,-248.37 1788.5,-248.37"/>
</a>
</g>
</g>
<!-- Node13&#45;&gt;Node9 -->
<g id="edge15_Node000013_Node000009" class="edge">
<title>Node13&#45;&gt;Node9</title>
<g id="a_edge15_Node000013_Node000009"><a xlink:title=" ">
<path fill="none" stroke="#63b8ff" d="M1519.34,-198.69C1392.08,-187.72 1161.36,-167.85 1029.84,-156.52"/>
<polygon fill="#63b8ff" stroke="#63b8ff" points="1519.18,-202.19 1529.44,-199.56 1519.78,-195.21 1519.18,-202.19"/>
</a>
</g>
</g>
<!-- Node13&#45;&gt;Node14 -->
<g id="edge16_Node000013_Node000014" class="edge">
<title>Node13&#45;&gt;Node14</title>
<g id="a_edge16_Node000013_Node000014"><a xlink:title=" ">
<path fill="none" stroke="#63b8ff" d="M1701,-197.93C1916.61,-179.8 1972.15,-177.77 2184,-162 2217.13,-159.53 2253.54,-156.82 2285.43,-154.45"/>
<polygon fill="#63b8ff" stroke="#63b8ff" points="1700.62,-194.45 1690.95,-198.78 1701.2,-201.43 1700.62,-194.45"/>
</a>
</g>
</g>
<!-- Node13&#45;&gt;Node15 -->
<g id="edge17_Node000013_Node000015" class="edge">
<title>Node13&#45;&gt;Node15</title>
<g id="a_edge17_Node000013_Node000015"><a xlink:title=" ">
<path fill="none" stroke="#63b8ff" d="M1701.11,-197.96C2042.56,-174.08 2130.19,-181.45 2468,-162 2514.65,-159.31 2567.24,-155.71 2607.47,-152.83"/>
<polygon fill="#63b8ff" stroke="#63b8ff" points="1700.67,-194.48 1690.94,-198.67 1701.16,-201.46 1700.67,-194.48"/>
</a>
</g>
</g>
<!-- Node16 -->
<g id="Node000016" class="node">
<title>Node16</title>
<g id="a_Node000016"><a xlink:href="ComponentListViewModel_8h.html" target="_top" xlink:title=" ">
<polygon fill="white" stroke="#666666" points="2175,-162 2011,-162 2011,-132 2175,-132 2175,-162"/>
<text text-anchor="start" x="2019" y="-150" font-family="Helvetica,sans-Serif" font-size="10.00">ui/viewmodels/ComponentList</text>
<text text-anchor="middle" x="2093" y="-139" font-family="Helvetica,sans-Serif" font-size="10.00">ViewModel.h</text>
</a>
</g>
</g>
<!-- Node13&#45;&gt;Node16 -->
<g id="edge18_Node000013_Node000016" class="edge">
<title>Node13&#45;&gt;Node16</title>
<g id="a_edge18_Node000013_Node000016"><a xlink:title=" ">
<path fill="none" stroke="#63b8ff" d="M1700.81,-197.22C1780.34,-188.85 1898.97,-175.77 2002,-162 2004.85,-161.62 2007.75,-161.22 2010.68,-160.81"/>
<polygon fill="#63b8ff" stroke="#63b8ff" points="1700.4,-193.75 1690.82,-198.27 1701.13,-200.71 1700.4,-193.75"/>
</a>
</g>
</g>
<!-- Node13&#45;&gt;Node19 -->
<g id="edge26_Node000013_Node000019" class="edge">
<title>Node13&#45;&gt;Node19</title>
<g id="a_edge26_Node000013_Node000019"><a xlink:title=" ">
<path fill="none" stroke="#63b8ff" d="M1626.58,-190.86C1652.47,-166.44 1702.1,-119.64 1726.99,-96.16"/>
<polygon fill="#63b8ff" stroke="#63b8ff" points="1623.95,-188.54 1619.07,-197.94 1628.75,-193.63 1623.95,-188.54"/>
</a>
</g>
</g>
<!-- Node21 -->
<g id="Node000021" class="node">
<title>Node21</title>
<g id="a_Node000021"><a xlink:href="BatchConverter_8cpp.html" target="_top" xlink:title=" ">
<polygon fill="white" stroke="#666666" points="1647,-156.5 1497,-156.5 1497,-137.5 1647,-137.5 1647,-156.5"/>
<text text-anchor="middle" x="1572" y="-144.5" font-family="Helvetica,sans-Serif" font-size="10.00">utils/cli/BatchConverter.cpp</text>
</a>
</g>
</g>
<!-- Node13&#45;&gt;Node21 -->
<g id="edge27_Node000013_Node000021" class="edge">
<title>Node13&#45;&gt;Node21</title>
<g id="a_edge27_Node000013_Node000021"><a xlink:title=" ">
<path fill="none" stroke="#63b8ff" d="M1598.83,-189.3C1591.86,-178.58 1583.2,-165.23 1577.63,-156.67"/>
<polygon fill="#63b8ff" stroke="#63b8ff" points="1596.01,-191.39 1604.39,-197.87 1601.88,-187.58 1596.01,-191.39"/>
</a>
</g>
</g>
<!-- Node22 -->
<g id="Node000022" class="node">
<title>Node22</title>
<g id="a_Node000022"><a xlink:href="BomConverter_8cpp.html" target="_top" xlink:title=" ">
<polygon fill="white" stroke="#666666" points="1848.5,-156.5 1703.5,-156.5 1703.5,-137.5 1848.5,-137.5 1848.5,-156.5"/>
<text text-anchor="middle" x="1776" y="-144.5" font-family="Helvetica,sans-Serif" font-size="10.00">utils/cli/BomConverter.cpp</text>
</a>
</g>
</g>
<!-- Node13&#45;&gt;Node22 -->
<g id="edge28_Node000013_Node000022" class="edge">
<title>Node13&#45;&gt;Node22</title>
<g id="a_edge28_Node000013_Node000022"><a xlink:title=" ">
<path fill="none" stroke="#63b8ff" d="M1643.98,-194.52C1676.08,-183.21 1723.42,-166.53 1751.83,-156.52"/>
<polygon fill="#63b8ff" stroke="#63b8ff" points="1642.41,-191.37 1634.14,-197.99 1644.73,-197.97 1642.41,-191.37"/>
</a>
</g>
</g>
<!-- Node23 -->
<g id="Node000023" class="node">
<title>Node23</title>
<g id="a_Node000023"><a xlink:href="CliContext_8cpp.html" target="_top" xlink:title=" ">
<polygon fill="white" stroke="#666666" points="1993,-156.5 1867,-156.5 1867,-137.5 1993,-137.5 1993,-156.5"/>
<text text-anchor="middle" x="1930" y="-144.5" font-family="Helvetica,sans-Serif" font-size="10.00">utils/cli/CliContext.cpp</text>
</a>
</g>
</g>
<!-- Node13&#45;&gt;Node23 -->
<g id="edge29_Node000013_Node000023" class="edge">
<title>Node13&#45;&gt;Node23</title>
<g id="a_edge29_Node000013_Node000023"><a xlink:title=" ">
<path fill="none" stroke="#63b8ff" d="M1669.02,-196.16C1719.29,-187.29 1793.44,-174.07 1858,-162 1867.26,-160.27 1877.19,-158.37 1886.62,-156.54"/>
<polygon fill="#63b8ff" stroke="#63b8ff" points="1668.22,-192.75 1658.98,-197.93 1669.43,-199.64 1668.22,-192.75"/>
</a>
</g>
</g>
<!-- Node24 -->
<g id="Node000024" class="node">
<title>Node24</title>
<g id="a_Node000024"><a xlink:href="ComponentConverter_8cpp.html" target="_top" xlink:title=" ">
<polygon fill="white" stroke="#666666" points="1478.5,-156.5 1299.5,-156.5 1299.5,-137.5 1478.5,-137.5 1478.5,-156.5"/>
<text text-anchor="middle" x="1389" y="-144.5" font-family="Helvetica,sans-Serif" font-size="10.00">utils/cli/ComponentConverter.cpp</text>
</a>
</g>
</g>
<!-- Node13&#45;&gt;Node24 -->
<g id="edge30_Node000013_Node000024" class="edge">
<title>Node13&#45;&gt;Node24</title>
<g id="a_edge30_Node000013_Node000024"><a xlink:title=" ">
<path fill="none" stroke="#63b8ff" d="M1568.05,-195.4C1525.32,-184.08 1459.98,-166.79 1421.17,-156.52"/>
<polygon fill="#63b8ff" stroke="#63b8ff" points="1567.3,-198.82 1577.86,-197.99 1569.09,-192.05 1567.3,-198.82"/>
</a>
</g>
</g>
<!-- Node16&#45;&gt;Node7 -->
<g id="edge19_Node000016_Node000007" class="edge">
<title>Node16&#45;&gt;Node7</title>
<g id="a_edge19_Node000016_Node000007"><a xlink:title=" ">
<path fill="none" stroke="#63b8ff" d="M2092.34,-121.48C2093.23,-103.7 2097.44,-80.36 2112,-66 2139.02,-39.35 2249.86,-24.67 2304.82,-18.91"/>
<polygon fill="#63b8ff" stroke="#63b8ff" points="2088.84,-121.63 2092.15,-131.69 2095.83,-121.76 2088.84,-121.63"/>
</a>
</g>
</g>
<!-- Node16&#45;&gt;Node17 -->
<g id="edge20_Node000016_Node000017" class="edge">
<title>Node16&#45;&gt;Node17</title>
<g id="a_edge20_Node000016_Node000017"><a xlink:title=" ">
<path fill="none" stroke="#63b8ff" d="M2038.71,-128.82C1986.2,-112.31 1904.32,-86.87 1833,-66 1790.04,-53.43 1741.09,-39.88 1705.09,-30.06"/>
<polygon fill="#63b8ff" stroke="#63b8ff" points="2037.9,-132.23 2048.49,-131.89 2040,-125.55 2037.9,-132.23"/>
</a>
</g>
</g>
<!-- Node18 -->
<g id="Node000018" class="node">
<title>Node18</title>
<g id="a_Node000018"><a xlink:href="ComponentListViewModel_8cpp.html" target="_top" xlink:title=" ">
<polygon fill="white" stroke="#666666" points="2285,-96 2121,-96 2121,-66 2285,-66 2285,-96"/>
<text text-anchor="start" x="2129" y="-84" font-family="Helvetica,sans-Serif" font-size="10.00">ui/viewmodels/ComponentList</text>
<text text-anchor="middle" x="2203" y="-73" font-family="Helvetica,sans-Serif" font-size="10.00">ViewModel.cpp</text>
</a>
</g>
</g>
<!-- Node16&#45;&gt;Node18 -->
<g id="edge21_Node000016_Node000018" class="edge">
<title>Node16&#45;&gt;Node18</title>
<g id="a_edge21_Node000016_Node000018"><a xlink:title=" ">
<path fill="none" stroke="#63b8ff" d="M2126.18,-126.69C2143.16,-116.82 2163.45,-105.01 2178.92,-96.01"/>
<polygon fill="#63b8ff" stroke="#63b8ff" points="2124.02,-123.9 2117.14,-131.95 2127.54,-129.95 2124.02,-123.9"/>
</a>
</g>
</g>
<!-- Node16&#45;&gt;Node19 -->
<g id="edge22_Node000016_Node000019" class="edge">
<title>Node16&#45;&gt;Node19</title>
<g id="a_edge22_Node000016_Node000019"><a xlink:title=" ">
<path fill="none" stroke="#63b8ff" d="M2005.83,-130.11C1948.44,-119.64 1874.01,-106.07 1818.85,-96.01"/>
<polygon fill="#63b8ff" stroke="#63b8ff" points="2005.51,-133.6 2015.97,-131.95 2006.76,-126.72 2005.51,-133.6"/>
</a>
</g>
</g>
<!-- Node19&#45;&gt;Node7 -->
<g id="edge23_Node000019_Node000007" class="edge">
<title>Node19&#45;&gt;Node7</title>
<g id="a_edge23_Node000019_Node000007"><a xlink:title=" ">
<path fill="none" stroke="#63b8ff" d="M1834.27,-70.06C1970.23,-55.41 2217.65,-28.75 2304.69,-19.37"/>
<polygon fill="#63b8ff" stroke="#63b8ff" points="1833.85,-66.58 1824.28,-71.13 1834.6,-73.54 1833.85,-66.58"/>
</a>
</g>
</g>
<!-- Node19&#45;&gt;Node17 -->
<g id="edge24_Node000019_Node000017" class="edge">
<title>Node19&#45;&gt;Node17</title>
<g id="a_edge24_Node000019_Node000017"><a xlink:title=" ">
<path fill="none" stroke="#63b8ff" d="M1713.84,-59.75C1700.46,-50.13 1684.78,-38.86 1672.7,-30.16"/>
<polygon fill="#63b8ff" stroke="#63b8ff" points="1712.09,-62.8 1722.25,-65.8 1716.17,-57.12 1712.09,-62.8"/>
</a>
</g>
</g>
<!-- Node20 -->
<g id="Node000020" class="node">
<title>Node20</title>
<g id="a_Node000020"><a xlink:href="ExportProgressViewModel_8cpp.html" target="_top" xlink:title=" ">
<polygon fill="white" stroke="#666666" points="1913,-30 1749,-30 1749,0 1913,0 1913,-30"/>
<text text-anchor="start" x="1757" y="-18" font-family="Helvetica,sans-Serif" font-size="10.00">ui/viewmodels/ExportProgress</text>
<text text-anchor="middle" x="1831" y="-7" font-family="Helvetica,sans-Serif" font-size="10.00">ViewModel.cpp</text>
</a>
</g>
</g>
<!-- Node19&#45;&gt;Node20 -->
<g id="edge25_Node000019_Node000020" class="edge">
<title>Node19&#45;&gt;Node20</title>
<g id="a_edge25_Node000019_Node000020"><a xlink:title=" ">
<path fill="none" stroke="#63b8ff" d="M1770.16,-59.75C1783.54,-50.13 1799.22,-38.86 1811.3,-30.16"/>
<polygon fill="#63b8ff" stroke="#63b8ff" points="1767.83,-57.12 1761.75,-65.8 1771.91,-62.8 1767.83,-57.12"/>
</a>
</g>
</g>
<!-- Node25&#45;&gt;Node13 -->
<g id="edge32_Node000025_Node000013" class="edge">
<title>Node25&#45;&gt;Node13</title>
<g id="a_edge32_Node000025_Node000013"><a xlink:title=" ">
<path fill="none" stroke="#63b8ff" d="M1238.78,-257.19C1324.52,-245.94 1463.69,-227.69 1545.07,-217.02"/>
<polygon fill="#63b8ff" stroke="#63b8ff" points="1238.31,-253.72 1228.85,-258.49 1239.22,-260.66 1238.31,-253.72"/>
</a>
</g>
</g>
<!-- Node25&#45;&gt;Node26 -->
<g id="edge33_Node000025_Node000026" class="edge">
<title>Node25&#45;&gt;Node26</title>
<g id="a_edge33_Node000025_Node000026"><a xlink:title=" ">
<path fill="none" stroke="#63b8ff" d="M1141.94,-252.66C1124.84,-241.55 1101.71,-226.51 1087.33,-217.17"/>
<polygon fill="#63b8ff" stroke="#63b8ff" points="1140.43,-255.85 1150.72,-258.37 1144.24,-249.98 1140.43,-255.85"/>
</a>
</g>
</g>
</g>
</svg>
