<?xml version="1.0" encoding="UTF-8" standalone="no"?>
<!DOCTYPE svg PUBLIC "-//W3C//DTD SVG 1.1//EN"
 "http://www.w3.org/Graphics/SVG/1.1/DTD/svg11.dtd">
<!-- Generated by graphviz version 2.43.0 (0)
 -->
<!-- Title: ui/viewmodels/ThemeSettingsViewModel.h Pages: 1 -->
<svg width="401pt" height="148pt"
 viewBox="0.00 0.00 401.00 148.00" xmlns="http://www.w3.org/2000/svg" xmlns:xlink="http://www.w3.org/1999/xlink">
<g id="graph0" class="graph" transform="scale(1 1) rotate(0) translate(4 144)">
<title>ui/viewmodels/ThemeSettingsViewModel.h</title>
<!-- Node1 -->
<g id="Node000001" class="node">
<title>Node1</title>
<g id="a_Node000001"><a xlink:title=" ">
<polygon fill="#999999" stroke="#666666" points="361,-140 197,-140 197,-110 361,-110 361,-140"/>
<text text-anchor="start" x="205" y="-128" font-family="Helvetica,sans-Serif" font-size="10.00">ui/viewmodels/ThemeSettings</text>
<text text-anchor="middle" x="279" y="-117" font-family="Helvetica,sans-Serif" font-size="10.00">ViewModel.h</text>
</a>
</g>
</g>
<!-- Node2 -->
<g id="Node000002" class="node">
<title>Node2</title>
<g id="a_Node000002"><a xlink:href="ConfigService_8h.html" target="_top" xlink:title=" ">
<polygon fill="white" stroke="#666666" points="299,-74 163,-74 163,-55 299,-55 299,-74"/>
<text text-anchor="middle" x="231" y="-62" font-family="Helvetica,sans-Serif" font-size="10.00">services/ConfigService.h</text>
</a>
</g>
</g>
<!-- Node1&#45;&gt;Node2 -->
<g id="edge1_Node000001_Node000002" class="edge">
<title>Node1&#45;&gt;Node2</title>
<g id="a_edge1_Node000001_Node000002"><a xlink:title=" ">
<path fill="none" stroke="#63b8ff" d="M267.38,-109.84C260.56,-101.52 251.89,-90.96 244.73,-82.23"/>
<polygon fill="#63b8ff" stroke="#63b8ff" points="247.24,-79.78 238.19,-74.27 241.83,-84.22 247.24,-79.78"/>
</a>
</g>
</g>
<!-- Node5 -->
<g id="Node000005" class="node">
<title>Node5</title>
<g id="a_Node000005"><a xlink:title=" ">
<polygon fill="#e0e0e0" stroke="#999999" points="393,-19 337,-19 337,0 393,0 393,-19"/>
<text text-anchor="middle" x="365" y="-7" font-family="Helvetica,sans-Serif" font-size="10.00">QObject</text>
</a>
</g>
</g>
<!-- Node1&#45;&gt;Node5 -->
<g id="edge7_Node000001_Node000005" class="edge">
<title>Node1&#45;&gt;Node5</title>
<g id="a_edge7_Node000001_Node000005"><a xlink:title=" ">
<path fill="none" stroke="#63b8ff" d="M289.89,-109.63C305.78,-88.65 335.26,-49.75 352.18,-27.42"/>
<polygon fill="#63b8ff" stroke="#63b8ff" points="355.14,-29.31 358.39,-19.23 349.56,-25.09 355.14,-29.31"/>
</a>
</g>
</g>
<!-- Node3 -->
<g id="Node000003" class="node">
<title>Node3</title>
<g id="a_Node000003"><a xlink:title=" ">
<polygon fill="#e0e0e0" stroke="#999999" points="76,-19 0,-19 0,0 76,0 76,-19"/>
<text text-anchor="middle" x="38" y="-7" font-family="Helvetica,sans-Serif" font-size="10.00">QJsonObject</text>
</a>
</g>
</g>
<!-- Node2&#45;&gt;Node3 -->
<g id="edge2_Node000002_Node000003" class="edge">
<title>Node2&#45;&gt;Node3</title>
<g id="a_edge2_Node000002_Node000003"><a xlink:title=" ">
<path fill="none" stroke="#63b8ff" d="M199.99,-54.98C167.17,-45.97 115.2,-31.7 79.01,-21.76"/>
<polygon fill="#63b8ff" stroke="#63b8ff" points="79.82,-18.36 69.25,-19.08 77.97,-25.11 79.82,-18.36"/>
</a>
</g>
</g>
<!-- Node4 -->
<g id="Node000004" class="node">
<title>Node4</title>
<g id="a_Node000004"><a xlink:title=" ">
<polygon fill="#e0e0e0" stroke="#999999" points="149.5,-19 94.5,-19 94.5,0 149.5,0 149.5,-19"/>
<text text-anchor="middle" x="122" y="-7" font-family="Helvetica,sans-Serif" font-size="10.00">QMutex</text>
</a>
</g>
</g>
<!-- Node2&#45;&gt;Node4 -->
<g id="edge3_Node000002_Node000004" class="edge">
<title>Node2&#45;&gt;Node4</title>
<g id="a_edge3_Node000002_Node000004"><a xlink:title=" ">
<path fill="none" stroke="#63b8ff" d="M213.49,-54.98C196.03,-46.5 168.99,-33.35 148.83,-23.54"/>
<polygon fill="#63b8ff" stroke="#63b8ff" points="150.36,-20.4 139.83,-19.17 147.29,-26.69 150.36,-20.4"/>
</a>
</g>
</g>
<!-- Node2&#45;&gt;Node5 -->
<g id="edge4_Node000002_Node000005" class="edge">
<title>Node2&#45;&gt;Node5</title>
<g id="a_edge4_Node000002_Node000005"><a xlink:title=" ">
<path fill="none" stroke="#63b8ff" d="M252.53,-54.98C274.47,-46.3 308.74,-32.75 333.69,-22.88"/>
<polygon fill="#63b8ff" stroke="#63b8ff" points="335.07,-26.1 343.08,-19.17 332.49,-19.59 335.07,-26.1"/>
</a>
</g>
</g>
<!-- Node6 -->
<g id="Node000006" class="node">
<title>Node6</title>
<g id="a_Node000006"><a xlink:title=" ">
<polygon fill="#e0e0e0" stroke="#999999" points="220.5,-19 167.5,-19 167.5,0 220.5,0 220.5,-19"/>
<text text-anchor="middle" x="194" y="-7" font-family="Helvetica,sans-Serif" font-size="10.00">QString</text>
</a>
</g>
</g>
<!-- Node2&#45;&gt;Node6 -->
<g id="edge5_Node000002_Node000006" class="edge">
<title>Node2&#45;&gt;Node6</title>
<g id="a_edge5_Node000002_Node000006"><a xlink:title=" ">
<path fill="none" stroke="#63b8ff" d="M224.89,-54.75C219.72,-47.34 212.15,-36.5 205.81,-27.41"/>
<polygon fill="#63b8ff" stroke="#63b8ff" points="208.59,-25.29 200,-19.09 202.85,-29.29 208.59,-25.29"/>
</a>
</g>
</g>
<!-- Node7 -->
<g id="Node000007" class="node">
<title>Node7</title>
<g id="a_Node000007"><a xlink:title=" ">
<polygon fill="#e0e0e0" stroke="#999999" points="319,-19 239,-19 239,0 319,0 319,-19"/>
<text text-anchor="middle" x="279" y="-7" font-family="Helvetica,sans-Serif" font-size="10.00">QVariantMap</text>
</a>
</g>
</g>
<!-- Node2&#45;&gt;Node7 -->
<g id="edge6_Node000002_Node000007" class="edge">
<title>Node2&#45;&gt;Node7</title>
<g id="a_edge6_Node000002_Node000007"><a xlink:title=" ">
<path fill="none" stroke="#63b8ff" d="M238.93,-54.75C245.85,-47.11 256.07,-35.82 264.45,-26.56"/>
<polygon fill="#63b8ff" stroke="#63b8ff" points="267.1,-28.85 271.22,-19.09 261.91,-24.15 267.1,-28.85"/>
</a>
</g>
</g>
</g>
</svg>
