<?xml version="1.0" encoding="UTF-8" standalone="no"?>
<!DOCTYPE svg PUBLIC "-//W3C//DTD SVG 1.1//EN"
 "http://www.w3.org/Graphics/SVG/1.1/DTD/svg11.dtd">
<!-- Generated by graphviz version 2.43.0 (0)
 -->
<!-- Title: ui/viewmodels/ThemeSettingsViewModel.h Pages: 1 -->
<svg width="309pt" height="148pt"
 viewBox="0.00 0.00 309.00 148.00" xmlns="http://www.w3.org/2000/svg" xmlns:xlink="http://www.w3.org/1999/xlink">
<g id="graph0" class="graph" transform="scale(1 1) rotate(0) translate(4 144)">
<title>ui/viewmodels/ThemeSettingsViewModel.h</title>
<!-- Node1 -->
<g id="Node000001" class="node">
<title>Node1</title>
<g id="a_Node000001"><a xlink:title=" ">
<polygon fill="#999999" stroke="#666666" points="301,-140 137,-140 137,-110 301,-110 301,-140"/>
<text text-anchor="start" x="145" y="-128" font-family="Helvetica,sans-Serif" font-size="10.00">ui/viewmodels/ThemeSettings</text>
<text text-anchor="middle" x="219" y="-117" font-family="Helvetica,sans-Serif" font-size="10.00">ViewModel.h</text>
</a>
</g>
</g>
<!-- Node2 -->
<g id="Node000002" class="node">
<title>Node2</title>
<g id="a_Node000002"><a xlink:href="ConfigService_8h.html" target="_top" xlink:title=" ">
<polygon fill="white" stroke="#666666" points="239,-74 103,-74 103,-55 239,-55 239,-74"/>
<text text-anchor="middle" x="171" y="-62" font-family="Helvetica,sans-Serif" font-size="10.00">services/ConfigService.h</text>
</a>
</g>
</g>
<!-- Node1&#45;&gt;Node2 -->
<g id="edge1_Node000001_Node000002" class="edge">
<title>Node1&#45;&gt;Node2</title>
<g id="a_edge1_Node000001_Node000002"><a xlink:title=" ">
<path fill="none" stroke="#63b8ff" d="M207.38,-109.84C200.56,-101.52 191.89,-90.96 184.73,-82.23"/>
<polygon fill="#63b8ff" stroke="#63b8ff" points="187.24,-79.78 178.19,-74.27 181.83,-84.22 187.24,-79.78"/>
</a>
</g>
</g>
<!-- Node5 -->
<g id="Node000005" class="node">
<title>Node5</title>
<g id="a_Node000005"><a xlink:title=" ">
<polygon fill="#e0e0e0" stroke="#999999" points="295,-19 239,-19 239,0 295,0 295,-19"/>
<text text-anchor="middle" x="267" y="-7" font-family="Helvetica,sans-Serif" font-size="10.00">QObject</text>
</a>
</g>
</g>
<!-- Node1&#45;&gt;Node5 -->
<g id="edge6_Node000001_Node000005" class="edge">
<title>Node1&#45;&gt;Node5</title>
<g id="a_edge6_Node000001_Node000005"><a xlink:title=" ">
<path fill="none" stroke="#63b8ff" d="M228.57,-109.6C234.74,-99.85 242.58,-86.53 248,-74 254.29,-59.46 259.31,-42.19 262.6,-29.34"/>
<polygon fill="#63b8ff" stroke="#63b8ff" points="266.07,-29.9 265.05,-19.36 259.27,-28.24 266.07,-29.9"/>
</a>
</g>
</g>
<!-- Node3 -->
<g id="Node000003" class="node">
<title>Node3</title>
<g id="a_Node000003"><a xlink:title=" ">
<polygon fill="#e0e0e0" stroke="#999999" points="76,-19 0,-19 0,0 76,0 76,-19"/>
<text text-anchor="middle" x="38" y="-7" font-family="Helvetica,sans-Serif" font-size="10.00">QJsonObject</text>
</a>
</g>
</g>
<!-- Node2&#45;&gt;Node3 -->
<g id="edge2_Node000002_Node000003" class="edge">
<title>Node2&#45;&gt;Node3</title>
<g id="a_edge2_Node000002_Node000003"><a xlink:title=" ">
<path fill="none" stroke="#63b8ff" d="M149.63,-54.98C127.85,-46.3 93.84,-32.75 69.08,-22.88"/>
<polygon fill="#63b8ff" stroke="#63b8ff" points="70.34,-19.62 59.76,-19.17 67.75,-26.12 70.34,-19.62"/>
</a>
</g>
</g>
<!-- Node4 -->
<g id="Node000004" class="node">
<title>Node4</title>
<g id="a_Node000004"><a xlink:title=" ">
<polygon fill="#e0e0e0" stroke="#999999" points="149.5,-19 94.5,-19 94.5,0 149.5,0 149.5,-19"/>
<text text-anchor="middle" x="122" y="-7" font-family="Helvetica,sans-Serif" font-size="10.00">QMutex</text>
</a>
</g>
</g>
<!-- Node2&#45;&gt;Node4 -->
<g id="edge3_Node000002_Node000004" class="edge">
<title>Node2&#45;&gt;Node4</title>
<g id="a_edge3_Node000002_Node000004"><a xlink:title=" ">
<path fill="none" stroke="#63b8ff" d="M162.91,-54.75C155.84,-47.11 145.41,-35.82 136.85,-26.56"/>
<polygon fill="#63b8ff" stroke="#63b8ff" points="139.3,-24.06 129.94,-19.09 134.16,-28.81 139.3,-24.06"/>
</a>
</g>
</g>
<!-- Node2&#45;&gt;Node5 -->
<g id="edge4_Node000002_Node000005" class="edge">
<title>Node2&#45;&gt;Node5</title>
<g id="a_edge4_Node000002_Node000005"><a xlink:title=" ">
<path fill="none" stroke="#63b8ff" d="M186.42,-54.98C201.45,-46.69 224.54,-33.94 242.16,-24.22"/>
<polygon fill="#63b8ff" stroke="#63b8ff" points="244.23,-27.07 251.3,-19.17 240.85,-20.94 244.23,-27.07"/>
</a>
</g>
</g>
<!-- Node6 -->
<g id="Node000006" class="node">
<title>Node6</title>
<g id="a_Node000006"><a xlink:title=" ">
<polygon fill="#e0e0e0" stroke="#999999" points="220.5,-19 167.5,-19 167.5,0 220.5,0 220.5,-19"/>
<text text-anchor="middle" x="194" y="-7" font-family="Helvetica,sans-Serif" font-size="10.00">QString</text>
</a>
</g>
</g>
<!-- Node2&#45;&gt;Node6 -->
<g id="edge5_Node000002_Node000006" class="edge">
<title>Node2&#45;&gt;Node6</title>
<g id="a_edge5_Node000002_Node000006"><a xlink:title=" ">
<path fill="none" stroke="#63b8ff" d="M174.8,-54.75C177.91,-47.57 182.42,-37.18 186.29,-28.27"/>
<polygon fill="#63b8ff" stroke="#63b8ff" points="189.5,-29.66 190.27,-19.09 183.08,-26.87 189.5,-29.66"/>
</a>
</g>
</g>
</g>
</svg>
