<?xml version="1.0" encoding="UTF-8" standalone="no"?>
<!DOCTYPE svg PUBLIC "-//W3C//DTD SVG 1.1//EN"
 "http://www.w3.org/Graphics/SVG/1.1/DTD/svg11.dtd">
<!-- Generated by graphviz version 2.43.0 (0)
 -->
<!-- Title: ui/viewmodels/ThemeSettingsViewModel.h Pages: 1 -->
<svg width="252pt" height="104pt"
 viewBox="0.00 0.00 252.00 104.00" xmlns="http://www.w3.org/2000/svg" xmlns:xlink="http://www.w3.org/1999/xlink">
<g id="graph0" class="graph" transform="scale(1 1) rotate(0) translate(4 100)">
<title>ui/viewmodels/ThemeSettingsViewModel.h</title>
<!-- Node1 -->
<g id="Node000001" class="node">
<title>Node1</title>
<g id="a_Node000001"><a xlink:title=" ">
<polygon fill="#999999" stroke="#666666" points="178,-96 14,-96 14,-66 178,-66 178,-96"/>
<text text-anchor="start" x="22" y="-84" font-family="Helvetica,sans-Serif" font-size="10.00">ui/viewmodels/ThemeSettings</text>
<text text-anchor="middle" x="96" y="-73" font-family="Helvetica,sans-Serif" font-size="10.00">ViewModel.h</text>
</a>
</g>
</g>
<!-- Node2 -->
<g id="Node000002" class="node">
<title>Node2</title>
<g id="a_Node000002"><a xlink:href="main_8cpp.html" target="_top" xlink:title=" ">
<polygon fill="white" stroke="#666666" points="62,-24.5 0,-24.5 0,-5.5 62,-5.5 62,-24.5"/>
<text text-anchor="middle" x="31" y="-12.5" font-family="Helvetica,sans-Serif" font-size="10.00">main.cpp</text>
</a>
</g>
</g>
<!-- Node1&#45;&gt;Node2 -->
<g id="edge1_Node000001_Node000002" class="edge">
<title>Node1&#45;&gt;Node2</title>
<g id="a_edge1_Node000001_Node000002"><a xlink:title=" ">
<path fill="none" stroke="#63b8ff" d="M74.27,-58.6C62.58,-47.1 48.8,-33.52 39.98,-24.84"/>
<polygon fill="#63b8ff" stroke="#63b8ff" points="71.99,-61.27 81.57,-65.8 76.9,-56.29 71.99,-61.27"/>
</a>
</g>
</g>
<!-- Node3 -->
<g id="Node000003" class="node">
<title>Node3</title>
<g id="a_Node000003"><a xlink:href="ThemeSettingsViewModel_8cpp.html" target="_top" xlink:title=" ">
<polygon fill="white" stroke="#666666" points="244,-30 80,-30 80,0 244,0 244,-30"/>
<text text-anchor="start" x="88" y="-18" font-family="Helvetica,sans-Serif" font-size="10.00">ui/viewmodels/ThemeSettings</text>
<text text-anchor="middle" x="162" y="-7" font-family="Helvetica,sans-Serif" font-size="10.00">ViewModel.cpp</text>
</a>
</g>
</g>
<!-- Node1&#45;&gt;Node3 -->
<g id="edge2_Node000001_Node000003" class="edge">
<title>Node1&#45;&gt;Node3</title>
<g id="a_edge2_Node000001_Node000003"><a xlink:title=" ">
<path fill="none" stroke="#63b8ff" d="M118.02,-58.65C127.69,-49.27 138.77,-38.53 147.39,-30.16"/>
<polygon fill="#63b8ff" stroke="#63b8ff" points="115.39,-56.32 110.65,-65.8 120.26,-61.35 115.39,-56.32"/>
</a>
</g>
</g>
</g>
</svg>
