<?xml version="1.0" encoding="UTF-8" standalone="no"?>
<!DOCTYPE svg PUBLIC "-//W3C//DTD SVG 1.1//EN"
 "http://www.w3.org/Graphics/SVG/1.1/DTD/svg11.dtd">
<!-- Generated by graphviz version 2.43.0 (0)
 -->
<!-- Title: services/UpdateCheckerService.h Pages: 1 -->
<svg width="1160pt" height="203pt"
 viewBox="0.00 0.00 1159.73 203.00" xmlns="http://www.w3.org/2000/svg" xmlns:xlink="http://www.w3.org/1999/xlink">
<g id="graph0" class="graph" transform="scale(1 1) rotate(0) translate(4 199)">
<title>services/UpdateCheckerService.h</title>
<!-- Node1 -->
<g id="Node000001" class="node">
<title>Node1</title>
<g id="a_Node000001"><a xlink:title=" ">
<polygon fill="#999999" stroke="#666666" points="702.23,-195 523.23,-195 523.23,-176 702.23,-176 702.23,-195"/>
<text text-anchor="middle" x="612.73" y="-183" font-family="Helvetica,sans-Serif" font-size="10.00">services/UpdateCheckerService.h</text>
</a>
</g>
</g>
<!-- Node2 -->
<g id="Node000002" class="node">
<title>Node2</title>
<g id="a_Node000002"><a xlink:href="AsyncNetworkRequest_8h.html" target="_top" xlink:title=" ">
<polygon fill="white" stroke="#666666" points="689.73,-140 535.73,-140 535.73,-110 689.73,-110 689.73,-140"/>
<text text-anchor="start" x="543.73" y="-128" font-family="Helvetica,sans-Serif" font-size="10.00">core/network/AsyncNetwork</text>
<text text-anchor="middle" x="612.73" y="-117" font-family="Helvetica,sans-Serif" font-size="10.00">Request.h</text>
</a>
</g>
</g>
<!-- Node1&#45;&gt;Node2 -->
<g id="edge1_Node000001_Node000002" class="edge">
<title>Node1&#45;&gt;Node2</title>
<g id="a_edge1_Node000001_Node000002"><a xlink:title=" ">
<path fill="none" stroke="#63b8ff" d="M612.73,-175.87C612.73,-169.11 612.73,-159.35 612.73,-150.26"/>
<polygon fill="#63b8ff" stroke="#63b8ff" points="616.23,-150.11 612.73,-140.11 609.23,-150.11 616.23,-150.11"/>
</a>
</g>
</g>
<!-- Node5 -->
<g id="Node000005" class="node">
<title>Node5</title>
<g id="a_Node000005"><a xlink:title=" ">
<polygon fill="#e0e0e0" stroke="#999999" points="226.23,-19 173.23,-19 173.23,0 226.23,0 226.23,-19"/>
<text text-anchor="middle" x="199.73" y="-7" font-family="Helvetica,sans-Serif" font-size="10.00">QString</text>
</a>
</g>
</g>
<!-- Node1&#45;&gt;Node5 -->
<g id="edge20_Node000001_Node000005" class="edge">
<title>Node1&#45;&gt;Node5</title>
<g id="a_edge20_Node000001_Node000005"><a xlink:title=" ">
<path fill="none" stroke="#63b8ff" d="M523.23,-181.64C371.32,-174.7 73.2,-151.33 8.73,-74 -34.49,-22.15 96.26,-12.39 163.05,-10.73"/>
<polygon fill="#63b8ff" stroke="#63b8ff" points="163.26,-14.22 173.18,-10.52 163.12,-7.23 163.26,-14.22"/>
</a>
</g>
</g>
<!-- Node15 -->
<g id="Node000015" class="node">
<title>Node15</title>
<g id="a_Node000015"><a xlink:title=" ">
<polygon fill="#e0e0e0" stroke="#999999" points="1151.73,-74 1095.73,-74 1095.73,-55 1151.73,-55 1151.73,-74"/>
<text text-anchor="middle" x="1123.73" y="-62" font-family="Helvetica,sans-Serif" font-size="10.00">QObject</text>
</a>
</g>
</g>
<!-- Node1&#45;&gt;Node15 -->
<g id="edge19_Node000001_Node000015" class="edge">
<title>Node1&#45;&gt;Node15</title>
<g id="a_edge19_Node000001_Node000015"><a xlink:title=" ">
<path fill="none" stroke="#63b8ff" d="M649.48,-175.94C743.32,-154.09 991.05,-96.4 1085.98,-74.29"/>
<polygon fill="#63b8ff" stroke="#63b8ff" points="1086.79,-77.7 1095.73,-72.02 1085.2,-70.88 1086.79,-77.7"/>
</a>
</g>
</g>
<!-- Node3 -->
<g id="Node000003" class="node">
<title>Node3</title>
<g id="a_Node000003"><a xlink:href="INetworkClient_8h.html" target="_top" xlink:title=" ">
<polygon fill="white" stroke="#666666" points="640.23,-74 475.23,-74 475.23,-55 640.23,-55 640.23,-74"/>
<text text-anchor="middle" x="557.73" y="-62" font-family="Helvetica,sans-Serif" font-size="10.00">core/network/INetworkClient.h</text>
</a>
</g>
</g>
<!-- Node2&#45;&gt;Node3 -->
<g id="edge2_Node000002_Node000003" class="edge">
<title>Node2&#45;&gt;Node3</title>
<g id="a_edge2_Node000002_Node000003"><a xlink:title=" ">
<path fill="none" stroke="#63b8ff" d="M599.42,-109.84C591.44,-101.35 581.26,-90.52 572.95,-81.69"/>
<polygon fill="#63b8ff" stroke="#63b8ff" points="575.37,-79.15 565.98,-74.27 570.27,-83.95 575.37,-79.15"/>
</a>
</g>
</g>
<!-- Node4 -->
<g id="Node000004" class="node">
<title>Node4</title>
<g id="a_Node000004"><a xlink:title=" ">
<polygon fill="#e0e0e0" stroke="#999999" points="673.23,-19 600.23,-19 600.23,0 673.23,0 673.23,-19"/>
<text text-anchor="middle" x="636.73" y="-7" font-family="Helvetica,sans-Serif" font-size="10.00">QByteArray</text>
</a>
</g>
</g>
<!-- Node2&#45;&gt;Node4 -->
<g id="edge11_Node000002_Node000004" class="edge">
<title>Node2&#45;&gt;Node4</title>
<g id="a_edge11_Node000002_Node000004"><a xlink:title=" ">
<path fill="none" stroke="#63b8ff" d="M626.84,-109.63C634.96,-100.31 644.4,-87.44 648.73,-74 653.52,-59.15 649.57,-41.7 644.96,-28.85"/>
<polygon fill="#63b8ff" stroke="#63b8ff" points="648.09,-27.26 641.1,-19.3 641.6,-29.88 648.09,-27.26"/>
</a>
</g>
</g>
<!-- Node6 -->
<g id="Node000006" class="node">
<title>Node6</title>
<g id="a_Node000006"><a xlink:title=" ">
<polygon fill="#e0e0e0" stroke="#999999" points="729.73,-19 691.73,-19 691.73,0 729.73,0 729.73,-19"/>
<text text-anchor="middle" x="710.73" y="-7" font-family="Helvetica,sans-Serif" font-size="10.00">QUrl</text>
</a>
</g>
</g>
<!-- Node2&#45;&gt;Node6 -->
<g id="edge18_Node000002_Node000006" class="edge">
<title>Node2&#45;&gt;Node6</title>
<g id="a_edge18_Node000002_Node000006"><a xlink:title=" ">
<path fill="none" stroke="#63b8ff" d="M628.93,-109.81C639.58,-100.16 653.55,-86.85 664.73,-74 677.68,-59.12 690.7,-40.75 699.57,-27.61"/>
<polygon fill="#63b8ff" stroke="#63b8ff" points="702.61,-29.35 705.23,-19.08 696.78,-25.47 702.61,-29.35"/>
</a>
</g>
</g>
<!-- Node9 -->
<g id="Node000009" class="node">
<title>Node9</title>
<g id="a_Node000009"><a xlink:title=" ">
<polygon fill="#e0e0e0" stroke="#999999" points="876.73,-74 734.73,-74 734.73,-55 876.73,-55 876.73,-74"/>
<text text-anchor="middle" x="805.73" y="-62" font-family="Helvetica,sans-Serif" font-size="10.00">QNetworkAccessManager</text>
</a>
</g>
</g>
<!-- Node2&#45;&gt;Node9 -->
<g id="edge8_Node000002_Node000009" class="edge">
<title>Node2&#45;&gt;Node9</title>
<g id="a_edge8_Node000002_Node000009"><a xlink:title=" ">
<path fill="none" stroke="#63b8ff" d="M658.96,-109.99C692.27,-99.89 736.66,-86.44 767.87,-76.98"/>
<polygon fill="#63b8ff" stroke="#63b8ff" points="768.96,-80.3 777.51,-74.05 766.93,-73.6 768.96,-80.3"/>
</a>
</g>
</g>
<!-- Node10 -->
<g id="Node000010" class="node">
<title>Node10</title>
<g id="a_Node000010"><a xlink:title=" ">
<polygon fill="#e0e0e0" stroke="#999999" points="988.23,-74 895.23,-74 895.23,-55 988.23,-55 988.23,-74"/>
<text text-anchor="middle" x="941.73" y="-62" font-family="Helvetica,sans-Serif" font-size="10.00">QNetworkReply</text>
</a>
</g>
</g>
<!-- Node2&#45;&gt;Node10 -->
<g id="edge9_Node000002_Node000010" class="edge">
<title>Node2&#45;&gt;Node10</title>
<g id="a_edge9_Node000002_Node000010"><a xlink:title=" ">
<path fill="none" stroke="#63b8ff" d="M689.87,-110.28C749.64,-99.66 831.1,-85.17 884.99,-75.59"/>
<polygon fill="#63b8ff" stroke="#63b8ff" points="885.82,-79 895.06,-73.8 884.6,-72.1 885.82,-79"/>
</a>
</g>
</g>
<!-- Node11 -->
<g id="Node000011" class="node">
<title>Node11</title>
<g id="a_Node000011"><a xlink:title=" ">
<polygon fill="#e0e0e0" stroke="#999999" points="1077.23,-74 1006.23,-74 1006.23,-55 1077.23,-55 1077.23,-74"/>
<text text-anchor="middle" x="1041.73" y="-62" font-family="Helvetica,sans-Serif" font-size="10.00">QAtomicInt</text>
</a>
</g>
</g>
<!-- Node2&#45;&gt;Node11 -->
<g id="edge10_Node000002_Node000011" class="edge">
<title>Node2&#45;&gt;Node11</title>
<g id="a_edge10_Node000002_Node000011"><a xlink:title=" ">
<path fill="none" stroke="#63b8ff" d="M689.78,-115.28C765.17,-106.45 883.49,-91.8 995.76,-74.07"/>
<polygon fill="#63b8ff" stroke="#63b8ff" points="996.58,-77.49 1005.9,-72.46 995.48,-70.57 996.58,-77.49"/>
</a>
</g>
</g>
<!-- Node12 -->
<g id="Node000012" class="node">
<title>Node12</title>
<g id="a_Node000012"><a xlink:title=" ">
<polygon fill="#e0e0e0" stroke="#999999" points="59.23,-74 18.23,-74 18.23,-55 59.23,-55 59.23,-74"/>
<text text-anchor="middle" x="38.73" y="-62" font-family="Helvetica,sans-Serif" font-size="10.00">QList</text>
</a>
</g>
</g>
<!-- Node2&#45;&gt;Node12 -->
<g id="edge12_Node000002_Node000012" class="edge">
<title>Node2&#45;&gt;Node12</title>
<g id="a_edge12_Node000002_Node000012"><a xlink:title=" ">
<path fill="none" stroke="#63b8ff" d="M535.36,-121.61C431.14,-117.35 239.93,-105.84 69.43,-74"/>
<polygon fill="#63b8ff" stroke="#63b8ff" points="70,-70.54 59.52,-72.12 68.7,-77.42 70,-70.54"/>
</a>
</g>
</g>
<!-- Node13 -->
<g id="Node000013" class="node">
<title>Node13</title>
<g id="a_Node000013"><a xlink:title=" ">
<polygon fill="#e0e0e0" stroke="#999999" points="132.23,-74 77.23,-74 77.23,-55 132.23,-55 132.23,-74"/>
<text text-anchor="middle" x="104.73" y="-62" font-family="Helvetica,sans-Serif" font-size="10.00">QMutex</text>
</a>
</g>
</g>
<!-- Node2&#45;&gt;Node13 -->
<g id="edge13_Node000002_Node000013" class="edge">
<title>Node2&#45;&gt;Node13</title>
<g id="a_edge13_Node000002_Node000013"><a xlink:title=" ">
<path fill="none" stroke="#63b8ff" d="M535.48,-118.83C443.77,-112.01 286.11,-98.16 142.45,-74.11"/>
<polygon fill="#63b8ff" stroke="#63b8ff" points="143.01,-70.66 132.57,-72.44 141.85,-77.56 143.01,-70.66"/>
</a>
</g>
</g>
<!-- Node14 -->
<g id="Node000014" class="node">
<title>Node14</title>
<g id="a_Node000014"><a xlink:title=" ">
<polygon fill="#e0e0e0" stroke="#999999" points="255.23,-74 150.23,-74 150.23,-55 255.23,-55 255.23,-74"/>
<text text-anchor="middle" x="202.73" y="-62" font-family="Helvetica,sans-Serif" font-size="10.00">QNetworkRequest</text>
</a>
</g>
</g>
<!-- Node2&#45;&gt;Node14 -->
<g id="edge14_Node000002_Node000014" class="edge">
<title>Node2&#45;&gt;Node14</title>
<g id="a_edge14_Node000002_Node000014"><a xlink:title=" ">
<path fill="none" stroke="#63b8ff" d="M535.62,-113C457.41,-101.84 337.86,-84.78 265.33,-74.43"/>
<polygon fill="#63b8ff" stroke="#63b8ff" points="265.81,-70.96 255.41,-73.02 264.82,-77.89 265.81,-70.96"/>
</a>
</g>
</g>
<!-- Node2&#45;&gt;Node15 -->
<g id="edge15_Node000002_Node000015" class="edge">
<title>Node2&#45;&gt;Node15</title>
<g id="a_edge15_Node000002_Node000015"><a xlink:title=" ">
<path fill="none" stroke="#63b8ff" d="M689.88,-118.74C781.89,-111.82 940.46,-97.85 1085.54,-74.01"/>
<polygon fill="#63b8ff" stroke="#63b8ff" points="1086.23,-77.44 1095.52,-72.35 1085.08,-70.54 1086.23,-77.44"/>
</a>
</g>
</g>
<!-- Node16 -->
<g id="Node000016" class="node">
<title>Node16</title>
<g id="a_Node000016"><a xlink:title=" ">
<polygon fill="#e0e0e0" stroke="#999999" points="386.23,-74 273.23,-74 273.23,-55 386.23,-55 386.23,-74"/>
<text text-anchor="middle" x="329.73" y="-62" font-family="Helvetica,sans-Serif" font-size="10.00">QRandomGenerator</text>
</a>
</g>
</g>
<!-- Node2&#45;&gt;Node16 -->
<g id="edge16_Node000002_Node000016" class="edge">
<title>Node2&#45;&gt;Node16</title>
<g id="a_edge16_Node000002_Node000016"><a xlink:title=" ">
<path fill="none" stroke="#63b8ff" d="M544.95,-109.99C494.63,-99.59 427.05,-85.62 381.14,-76.13"/>
<polygon fill="#63b8ff" stroke="#63b8ff" points="381.61,-72.65 371.11,-74.05 380.2,-79.51 381.61,-72.65"/>
</a>
</g>
</g>
<!-- Node17 -->
<g id="Node000017" class="node">
<title>Node17</title>
<g id="a_Node000017"><a xlink:title=" ">
<polygon fill="#e0e0e0" stroke="#999999" points="457.23,-74 404.23,-74 404.23,-55 457.23,-55 457.23,-74"/>
<text text-anchor="middle" x="430.73" y="-62" font-family="Helvetica,sans-Serif" font-size="10.00">QTimer</text>
</a>
</g>
</g>
<!-- Node2&#45;&gt;Node17 -->
<g id="edge17_Node000002_Node000017" class="edge">
<title>Node2&#45;&gt;Node17</title>
<g id="a_edge17_Node000002_Node000017"><a xlink:title=" ">
<path fill="none" stroke="#63b8ff" d="M569.14,-109.99C538,-99.98 496.59,-86.67 467.2,-77.22"/>
<polygon fill="#63b8ff" stroke="#63b8ff" points="467.94,-73.78 457.34,-74.05 465.79,-80.45 467.94,-73.78"/>
</a>
</g>
</g>
<!-- Node3&#45;&gt;Node4 -->
<g id="edge3_Node000003_Node000004" class="edge">
<title>Node3&#45;&gt;Node4</title>
<g id="a_edge3_Node000003_Node000004"><a xlink:title=" ">
<path fill="none" stroke="#63b8ff" d="M570.43,-54.98C582.56,-46.84 601.09,-34.41 615.48,-24.76"/>
<polygon fill="#63b8ff" stroke="#63b8ff" points="617.46,-27.65 623.81,-19.17 613.56,-21.84 617.46,-27.65"/>
</a>
</g>
</g>
<!-- Node3&#45;&gt;Node5 -->
<g id="edge4_Node000003_Node000005" class="edge">
<title>Node3&#45;&gt;Node5</title>
<g id="a_edge4_Node000003_Node000005"><a xlink:title=" ">
<path fill="none" stroke="#63b8ff" d="M500.21,-54.98C426.04,-44 299.16,-25.22 236.7,-15.97"/>
<polygon fill="#63b8ff" stroke="#63b8ff" points="236.93,-12.47 226.53,-14.47 235.9,-19.39 236.93,-12.47"/>
</a>
</g>
</g>
<!-- Node3&#45;&gt;Node6 -->
<g id="edge5_Node000003_Node000006" class="edge">
<title>Node3&#45;&gt;Node6</title>
<g id="a_edge5_Node000003_Node000006"><a xlink:title=" ">
<path fill="none" stroke="#63b8ff" d="M582.32,-54.98C609.52,-45.56 653.3,-30.39 682.05,-20.44"/>
<polygon fill="#63b8ff" stroke="#63b8ff" points="683.24,-23.73 691.54,-17.15 680.95,-17.11 683.24,-23.73"/>
</a>
</g>
</g>
<!-- Node7 -->
<g id="Node000007" class="node">
<title>Node7</title>
<g id="a_Node000007"><a xlink:title=" ">
<polygon fill="#e0e0e0" stroke="#999999" points="505.23,-19 450.23,-19 450.23,0 505.23,0 505.23,-19"/>
<text text-anchor="middle" x="477.73" y="-7" font-family="Helvetica,sans-Serif" font-size="10.00">QVector</text>
</a>
</g>
</g>
<!-- Node3&#45;&gt;Node7 -->
<g id="edge6_Node000003_Node000007" class="edge">
<title>Node3&#45;&gt;Node7</title>
<g id="a_edge6_Node000003_Node000007"><a xlink:title=" ">
<path fill="none" stroke="#63b8ff" d="M544.88,-54.98C532.59,-46.84 513.83,-34.41 499.26,-24.76"/>
<polygon fill="#63b8ff" stroke="#63b8ff" points="501.09,-21.78 490.82,-19.17 497.22,-27.61 501.09,-21.78"/>
</a>
</g>
</g>
<!-- Node8 -->
<g id="Node000008" class="node">
<title>Node8</title>
<g id="a_Node000008"><a xlink:title=" ">
<polygon fill="#e0e0e0" stroke="#999999" points="582.23,-19 523.23,-19 523.23,0 582.23,0 582.23,-19"/>
<text text-anchor="middle" x="552.73" y="-7" font-family="Helvetica,sans-Serif" font-size="10.00">QtGlobal</text>
</a>
</g>
</g>
<!-- Node3&#45;&gt;Node8 -->
<g id="edge7_Node000003_Node000008" class="edge">
<title>Node3&#45;&gt;Node8</title>
<g id="a_edge7_Node000003_Node000008"><a xlink:title=" ">
<path fill="none" stroke="#63b8ff" d="M556.91,-54.75C556.25,-47.8 555.31,-37.85 554.49,-29.13"/>
<polygon fill="#63b8ff" stroke="#63b8ff" points="557.97,-28.72 553.54,-19.09 551,-29.37 557.97,-28.72"/>
</a>
</g>
</g>
</g>
</svg>
