<?xml version="1.0" encoding="UTF-8" standalone="no"?>
<!DOCTYPE svg PUBLIC "-//W3C//DTD SVG 1.1//EN"
 "http://www.w3.org/Graphics/SVG/1.1/DTD/svg11.dtd">
<!-- Generated by graphviz version 2.43.0 (0)
 -->
<!-- Title: services/UpdateCheckerService.cpp Pages: 1 -->
<svg width="1622pt" height="258pt"
 viewBox="0.00 0.00 1622.00 258.00" xmlns="http://www.w3.org/2000/svg" xmlns:xlink="http://www.w3.org/1999/xlink">
<g id="graph0" class="graph" transform="scale(1 1) rotate(0) translate(4 254)">
<title>services/UpdateCheckerService.cpp</title>
<!-- Node1 -->
<g id="Node000001" class="node">
<title>Node1</title>
<g id="a_Node000001"><a xlink:title=" ">
<polygon fill="#999999" stroke="#666666" points="915.5,-250 724.5,-250 724.5,-231 915.5,-231 915.5,-250"/>
<text text-anchor="middle" x="820" y="-238" font-family="Helvetica,sans-Serif" font-size="10.00">services/UpdateCheckerService.cpp</text>
</a>
</g>
</g>
<!-- Node2 -->
<g id="Node000002" class="node">
<title>Node2</title>
<g id="a_Node000002"><a xlink:href="UpdateCheckerService_8h.html" target="_top" xlink:title=" ">
<polygon fill="white" stroke="#666666" points="591,-195 455,-195 455,-176 591,-176 591,-195"/>
<text text-anchor="middle" x="523" y="-183" font-family="Helvetica,sans-Serif" font-size="10.00">UpdateCheckerService.h</text>
</a>
</g>
</g>
<!-- Node1&#45;&gt;Node2 -->
<g id="edge1_Node000001_Node000002" class="edge">
<title>Node1&#45;&gt;Node2</title>
<g id="a_edge1_Node000001_Node000002"><a xlink:title=" ">
<path fill="none" stroke="#63b8ff" d="M772.28,-230.98C720.26,-221.7 637,-206.84 581.18,-196.88"/>
<polygon fill="#63b8ff" stroke="#63b8ff" points="581.55,-193.39 571.09,-195.08 580.32,-200.28 581.55,-193.39"/>
</a>
</g>
</g>
<!-- Node7 -->
<g id="Node000007" class="node">
<title>Node7</title>
<g id="a_Node000007"><a xlink:title=" ">
<polygon fill="#e0e0e0" stroke="#999999" points="409,-19 371,-19 371,0 409,0 409,-19"/>
<text text-anchor="middle" x="390" y="-7" font-family="Helvetica,sans-Serif" font-size="10.00">QUrl</text>
</a>
</g>
</g>
<!-- Node1&#45;&gt;Node7 -->
<g id="edge48_Node000001_Node000007" class="edge">
<title>Node1&#45;&gt;Node7</title>
<g id="a_edge48_Node000001_Node000007"><a xlink:title=" ">
<path fill="none" stroke="#63b8ff" d="M724.18,-234.17C630.33,-227.86 494.55,-215.54 446,-195 367.43,-161.76 333.67,-151.02 297,-74 282.67,-43.9 328.7,-25.72 361.04,-16.94"/>
<polygon fill="#63b8ff" stroke="#63b8ff" points="362.13,-20.27 370.96,-14.42 360.41,-13.49 362.13,-20.27"/>
</a>
</g>
</g>
<!-- Node19 -->
<g id="Node000019" class="node">
<title>Node19</title>
<g id="a_Node000019"><a xlink:href="ConfigService_8h.html" target="_top" xlink:title=" ">
<polygon fill="white" stroke="#666666" points="250,-134.5 158,-134.5 158,-115.5 250,-115.5 250,-134.5"/>
<text text-anchor="middle" x="204" y="-122.5" font-family="Helvetica,sans-Serif" font-size="10.00">ConfigService.h</text>
</a>
</g>
</g>
<!-- Node1&#45;&gt;Node19 -->
<g id="edge22_Node000001_Node000019" class="edge">
<title>Node1&#45;&gt;Node19</title>
<g id="a_edge22_Node000001_Node000019"><a xlink:title=" ">
<path fill="none" stroke="#63b8ff" d="M724.37,-240.45C587.1,-240.37 342.13,-234.44 264,-195 241.49,-183.64 223.82,-159.81 213.64,-143.37"/>
<polygon fill="#63b8ff" stroke="#63b8ff" points="216.62,-141.53 208.54,-134.68 210.59,-145.08 216.62,-141.53"/>
</a>
</g>
</g>
<!-- Node20 -->
<g id="Node000020" class="node">
<title>Node20</title>
<g id="a_Node000020"><a xlink:title=" ">
<polygon fill="#e0e0e0" stroke="#999999" points="76,-74 0,-74 0,-55 76,-55 76,-74"/>
<text text-anchor="middle" x="38" y="-62" font-family="Helvetica,sans-Serif" font-size="10.00">QJsonObject</text>
</a>
</g>
</g>
<!-- Node1&#45;&gt;Node20 -->
<g id="edge46_Node000001_Node000020" class="edge">
<title>Node1&#45;&gt;Node20</title>
<g id="a_edge46_Node000001_Node000020"><a xlink:title=" ">
<path fill="none" stroke="#63b8ff" d="M724.44,-236.29C583.37,-230.86 326.43,-218.12 237,-195 180.2,-180.32 165.65,-172.78 117,-140 91.97,-123.14 67.35,-98.23 52.42,-81.93"/>
<polygon fill="#63b8ff" stroke="#63b8ff" points="54.83,-79.38 45.54,-74.28 49.62,-84.06 54.83,-79.38"/>
</a>
</g>
</g>
<!-- Node22 -->
<g id="Node000022" class="node">
<title>Node22</title>
<g id="a_Node000022"><a xlink:href="NetworkClient_8h.html" target="_top" xlink:title=" ">
<polygon fill="white" stroke="#666666" points="1050,-195 888,-195 888,-176 1050,-176 1050,-195"/>
<text text-anchor="middle" x="969" y="-183" font-family="Helvetica,sans-Serif" font-size="10.00">core/network/NetworkClient.h</text>
</a>
</g>
</g>
<!-- Node1&#45;&gt;Node22 -->
<g id="edge28_Node000001_Node000022" class="edge">
<title>Node1&#45;&gt;Node22</title>
<g id="a_edge28_Node000001_Node000022"><a xlink:title=" ">
<path fill="none" stroke="#63b8ff" d="M843.94,-230.98C868.56,-222.23 907.12,-208.51 934.92,-198.62"/>
<polygon fill="#63b8ff" stroke="#63b8ff" points="936.38,-201.82 944.62,-195.17 934.03,-195.22 936.38,-201.82"/>
</a>
</g>
</g>
<!-- Node30 -->
<g id="Node000030" class="node">
<title>Node30</title>
<g id="a_Node000030"><a xlink:title=" ">
<polygon fill="#e0e0e0" stroke="#999999" points="1169.5,-195 1068.5,-195 1068.5,-176 1169.5,-176 1169.5,-195"/>
<text text-anchor="middle" x="1119" y="-183" font-family="Helvetica,sans-Serif" font-size="10.00">QCoreApplication</text>
</a>
</g>
</g>
<!-- Node1&#45;&gt;Node30 -->
<g id="edge44_Node000001_Node000030" class="edge">
<title>Node1&#45;&gt;Node30</title>
<g id="a_edge44_Node000001_Node000030"><a xlink:title=" ">
<path fill="none" stroke="#63b8ff" d="M868.04,-230.98C920.41,-221.7 1004.24,-206.84 1060.43,-196.88"/>
<polygon fill="#63b8ff" stroke="#63b8ff" points="1061.35,-200.27 1070.58,-195.08 1060.13,-193.38 1061.35,-200.27"/>
</a>
</g>
</g>
<!-- Node31 -->
<g id="Node000031" class="node">
<title>Node31</title>
<g id="a_Node000031"><a xlink:title=" ">
<polygon fill="#e0e0e0" stroke="#999999" points="1282.5,-195 1187.5,-195 1187.5,-176 1282.5,-176 1282.5,-195"/>
<text text-anchor="middle" x="1235" y="-183" font-family="Helvetica,sans-Serif" font-size="10.00">QJsonDocument</text>
</a>
</g>
</g>
<!-- Node1&#45;&gt;Node31 -->
<g id="edge45_Node000001_Node000031" class="edge">
<title>Node1&#45;&gt;Node31</title>
<g id="a_edge45_Node000001_Node000031"><a xlink:title=" ">
<path fill="none" stroke="#63b8ff" d="M893.65,-230.97C964,-222.68 1073.3,-209.45 1177.31,-195.2"/>
<polygon fill="#63b8ff" stroke="#63b8ff" points="1177.92,-198.65 1187.35,-193.82 1176.97,-191.72 1177.92,-198.65"/>
</a>
</g>
</g>
<!-- Node32 -->
<g id="Node000032" class="node">
<title>Node32</title>
<g id="a_Node000032"><a xlink:title=" ">
<polygon fill="#e0e0e0" stroke="#999999" points="1415.5,-195 1300.5,-195 1300.5,-176 1415.5,-176 1415.5,-195"/>
<text text-anchor="middle" x="1358" y="-183" font-family="Helvetica,sans-Serif" font-size="10.00">QRegularExpression</text>
</a>
</g>
</g>
<!-- Node1&#45;&gt;Node32 -->
<g id="edge47_Node000001_Node000032" class="edge">
<title>Node1&#45;&gt;Node32</title>
<g id="a_edge47_Node000001_Node000032"><a xlink:title=" ">
<path fill="none" stroke="#63b8ff" d="M915.92,-231.42C1009.03,-223.36 1154.62,-210.17 1290.26,-195.16"/>
<polygon fill="#63b8ff" stroke="#63b8ff" points="1290.87,-198.62 1300.42,-194.03 1290.1,-191.66 1290.87,-198.62"/>
</a>
</g>
</g>
<!-- Node3 -->
<g id="Node000003" class="node">
<title>Node3</title>
<g id="a_Node000003"><a xlink:href="AsyncNetworkRequest_8h.html" target="_top" xlink:title=" ">
<polygon fill="white" stroke="#666666" points="847,-140 693,-140 693,-110 847,-110 847,-140"/>
<text text-anchor="start" x="701" y="-128" font-family="Helvetica,sans-Serif" font-size="10.00">core/network/AsyncNetwork</text>
<text text-anchor="middle" x="770" y="-117" font-family="Helvetica,sans-Serif" font-size="10.00">Request.h</text>
</a>
</g>
</g>
<!-- Node2&#45;&gt;Node3 -->
<g id="edge2_Node000002_Node000003" class="edge">
<title>Node2&#45;&gt;Node3</title>
<g id="a_edge2_Node000002_Node000003"><a xlink:title=" ">
<path fill="none" stroke="#63b8ff" d="M558.92,-175.99C595.94,-167.23 654.59,-153.33 700.69,-142.42"/>
<polygon fill="#63b8ff" stroke="#63b8ff" points="701.69,-145.77 710.62,-140.06 700.08,-138.96 701.69,-145.77"/>
</a>
</g>
</g>
<!-- Node6 -->
<g id="Node000006" class="node">
<title>Node6</title>
<g id="a_Node000006"><a xlink:title=" ">
<polygon fill="#e0e0e0" stroke="#999999" points="266.5,-19 213.5,-19 213.5,0 266.5,0 266.5,-19"/>
<text text-anchor="middle" x="240" y="-7" font-family="Helvetica,sans-Serif" font-size="10.00">QString</text>
</a>
</g>
</g>
<!-- Node2&#45;&gt;Node6 -->
<g id="edge21_Node000002_Node000006" class="edge">
<title>Node2&#45;&gt;Node6</title>
<g id="a_edge21_Node000002_Node000006"><a xlink:title=" ">
<path fill="none" stroke="#63b8ff" d="M454.82,-184.55C360.19,-183.28 195.41,-175.79 149,-140 117.72,-115.87 100.57,-87.52 123,-55 140.94,-28.98 176.25,-18.16 203.41,-13.67"/>
<polygon fill="#63b8ff" stroke="#63b8ff" points="203.97,-17.13 213.37,-12.24 202.97,-10.2 203.97,-17.13"/>
</a>
</g>
</g>
<!-- Node16 -->
<g id="Node000016" class="node">
<title>Node16</title>
<g id="a_Node000016"><a xlink:title=" ">
<polygon fill="#e0e0e0" stroke="#999999" points="362,-74 306,-74 306,-55 362,-55 362,-74"/>
<text text-anchor="middle" x="334" y="-62" font-family="Helvetica,sans-Serif" font-size="10.00">QObject</text>
</a>
</g>
</g>
<!-- Node2&#45;&gt;Node16 -->
<g id="edge20_Node000002_Node000016" class="edge">
<title>Node2&#45;&gt;Node16</title>
<g id="a_edge20_Node000002_Node000016"><a xlink:title=" ">
<path fill="none" stroke="#63b8ff" d="M509.41,-175.94C477.2,-155.66 395.99,-104.53 356.4,-79.6"/>
<polygon fill="#63b8ff" stroke="#63b8ff" points="358.05,-76.51 347.72,-74.14 354.32,-82.43 358.05,-76.51"/>
</a>
</g>
</g>
<!-- Node4 -->
<g id="Node000004" class="node">
<title>Node4</title>
<g id="a_Node000004"><a xlink:href="INetworkClient_8h.html" target="_top" xlink:title=" ">
<polygon fill="white" stroke="#666666" points="1132.5,-74 967.5,-74 967.5,-55 1132.5,-55 1132.5,-74"/>
<text text-anchor="middle" x="1050" y="-62" font-family="Helvetica,sans-Serif" font-size="10.00">core/network/INetworkClient.h</text>
</a>
</g>
</g>
<!-- Node3&#45;&gt;Node4 -->
<g id="edge3_Node000003_Node000004" class="edge">
<title>Node3&#45;&gt;Node4</title>
<g id="a_edge3_Node000003_Node000004"><a xlink:title=" ">
<path fill="none" stroke="#63b8ff" d="M837.07,-109.99C886.85,-99.59 953.71,-85.62 999.14,-76.13"/>
<polygon fill="#63b8ff" stroke="#63b8ff" points="999.99,-79.52 1009.06,-74.05 998.56,-72.67 999.99,-79.52"/>
</a>
</g>
</g>
<!-- Node5 -->
<g id="Node000005" class="node">
<title>Node5</title>
<g id="a_Node000005"><a xlink:title=" ">
<polygon fill="#e0e0e0" stroke="#999999" points="905.5,-19 832.5,-19 832.5,0 905.5,0 905.5,-19"/>
<text text-anchor="middle" x="869" y="-7" font-family="Helvetica,sans-Serif" font-size="10.00">QByteArray</text>
</a>
</g>
</g>
<!-- Node3&#45;&gt;Node5 -->
<g id="edge12_Node000003_Node000005" class="edge">
<title>Node3&#45;&gt;Node5</title>
<g id="a_edge12_Node000003_Node000005"><a xlink:title=" ">
<path fill="none" stroke="#63b8ff" d="M781.59,-109.83C793.17,-95.77 811.56,-73.68 828,-55 836.42,-45.44 846.06,-34.95 853.87,-26.56"/>
<polygon fill="#63b8ff" stroke="#63b8ff" points="856.43,-28.95 860.71,-19.26 851.32,-24.17 856.43,-28.95"/>
</a>
</g>
</g>
<!-- Node3&#45;&gt;Node7 -->
<g id="edge19_Node000003_Node000007" class="edge">
<title>Node3&#45;&gt;Node7</title>
<g id="a_edge19_Node000003_Node000007"><a xlink:title=" ">
<path fill="none" stroke="#63b8ff" d="M692.89,-117.75C593.3,-109.01 430.16,-92.15 409,-74 396.18,-63.01 391.81,-43.75 390.42,-29.31"/>
<polygon fill="#63b8ff" stroke="#63b8ff" points="393.9,-28.81 389.84,-19.02 386.91,-29.2 393.9,-28.81"/>
</a>
</g>
</g>
<!-- Node10 -->
<g id="Node000010" class="node">
<title>Node10</title>
<g id="a_Node000010"><a xlink:title=" ">
<polygon fill="#e0e0e0" stroke="#999999" points="560,-74 418,-74 418,-55 560,-55 560,-74"/>
<text text-anchor="middle" x="489" y="-62" font-family="Helvetica,sans-Serif" font-size="10.00">QNetworkAccessManager</text>
</a>
</g>
</g>
<!-- Node3&#45;&gt;Node10 -->
<g id="edge9_Node000003_Node000010" class="edge">
<title>Node3&#45;&gt;Node10</title>
<g id="a_edge9_Node000003_Node000010"><a xlink:title=" ">
<path fill="none" stroke="#63b8ff" d="M702.69,-109.99C652.73,-99.59 585.63,-85.62 540.04,-76.13"/>
<polygon fill="#63b8ff" stroke="#63b8ff" points="540.59,-72.67 530.09,-74.05 539.16,-79.52 540.59,-72.67"/>
</a>
</g>
</g>
<!-- Node11 -->
<g id="Node000011" class="node">
<title>Node11</title>
<g id="a_Node000011"><a xlink:title=" ">
<polygon fill="#e0e0e0" stroke="#999999" points="1243.5,-74 1150.5,-74 1150.5,-55 1243.5,-55 1243.5,-74"/>
<text text-anchor="middle" x="1197" y="-62" font-family="Helvetica,sans-Serif" font-size="10.00">QNetworkReply</text>
</a>
</g>
</g>
<!-- Node3&#45;&gt;Node11 -->
<g id="edge10_Node000003_Node000011" class="edge">
<title>Node3&#45;&gt;Node11</title>
<g id="a_edge10_Node000003_Node000011"><a xlink:title=" ">
<path fill="none" stroke="#63b8ff" d="M847.01,-114.1C920,-104.61 1033,-89.66 1140.45,-74.2"/>
<polygon fill="#63b8ff" stroke="#63b8ff" points="1141.1,-77.64 1150.5,-72.75 1140.1,-70.72 1141.1,-77.64"/>
</a>
</g>
</g>
<!-- Node12 -->
<g id="Node000012" class="node">
<title>Node12</title>
<g id="a_Node000012"><a xlink:title=" ">
<polygon fill="#e0e0e0" stroke="#999999" points="649.5,-74 578.5,-74 578.5,-55 649.5,-55 649.5,-74"/>
<text text-anchor="middle" x="614" y="-62" font-family="Helvetica,sans-Serif" font-size="10.00">QAtomicInt</text>
</a>
</g>
</g>
<!-- Node3&#45;&gt;Node12 -->
<g id="edge11_Node000003_Node000012" class="edge">
<title>Node3&#45;&gt;Node12</title>
<g id="a_edge11_Node000003_Node000012"><a xlink:title=" ">
<path fill="none" stroke="#63b8ff" d="M732.63,-109.99C706.37,-100.14 671.59,-87.1 646.48,-77.68"/>
<polygon fill="#63b8ff" stroke="#63b8ff" points="647.63,-74.37 637.04,-74.14 645.17,-80.93 647.63,-74.37"/>
</a>
</g>
</g>
<!-- Node13 -->
<g id="Node000013" class="node">
<title>Node13</title>
<g id="a_Node000013"><a xlink:title=" ">
<polygon fill="#e0e0e0" stroke="#999999" points="708.5,-74 667.5,-74 667.5,-55 708.5,-55 708.5,-74"/>
<text text-anchor="middle" x="688" y="-62" font-family="Helvetica,sans-Serif" font-size="10.00">QList</text>
</a>
</g>
</g>
<!-- Node3&#45;&gt;Node13 -->
<g id="edge13_Node000003_Node000013" class="edge">
<title>Node3&#45;&gt;Node13</title>
<g id="a_edge13_Node000003_Node000013"><a xlink:title=" ">
<path fill="none" stroke="#63b8ff" d="M750.15,-109.84C737.52,-100.83 721.2,-89.18 708.45,-80.09"/>
<polygon fill="#63b8ff" stroke="#63b8ff" points="710.46,-77.22 700.29,-74.27 706.4,-82.92 710.46,-77.22"/>
</a>
</g>
</g>
<!-- Node14 -->
<g id="Node000014" class="node">
<title>Node14</title>
<g id="a_Node000014"><a xlink:title=" ">
<polygon fill="#e0e0e0" stroke="#999999" points="1439.5,-74 1384.5,-74 1384.5,-55 1439.5,-55 1439.5,-74"/>
<text text-anchor="middle" x="1412" y="-62" font-family="Helvetica,sans-Serif" font-size="10.00">QMutex</text>
</a>
</g>
</g>
<!-- Node3&#45;&gt;Node14 -->
<g id="edge14_Node000003_Node000014" class="edge">
<title>Node3&#45;&gt;Node14</title>
<g id="a_edge14_Node000003_Node000014"><a xlink:title=" ">
<path fill="none" stroke="#63b8ff" d="M847.01,-119.09C982.5,-110.22 1259.33,-90.98 1374.22,-74.03"/>
<polygon fill="#63b8ff" stroke="#63b8ff" points="1374.82,-77.48 1384.17,-72.5 1373.76,-70.56 1374.82,-77.48"/>
</a>
</g>
</g>
<!-- Node15 -->
<g id="Node000015" class="node">
<title>Node15</title>
<g id="a_Node000015"><a xlink:title=" ">
<polygon fill="#e0e0e0" stroke="#999999" points="1366.5,-74 1261.5,-74 1261.5,-55 1366.5,-55 1366.5,-74"/>
<text text-anchor="middle" x="1314" y="-62" font-family="Helvetica,sans-Serif" font-size="10.00">QNetworkRequest</text>
</a>
</g>
</g>
<!-- Node3&#45;&gt;Node15 -->
<g id="edge15_Node000003_Node000015" class="edge">
<title>Node3&#45;&gt;Node15</title>
<g id="a_edge15_Node000003_Node000015"><a xlink:title=" ">
<path fill="none" stroke="#63b8ff" d="M847.05,-116.87C940.32,-108.05 1102.41,-92.11 1251.21,-74.18"/>
<polygon fill="#63b8ff" stroke="#63b8ff" points="1251.94,-77.62 1261.44,-72.94 1251.09,-70.67 1251.94,-77.62"/>
</a>
</g>
</g>
<!-- Node3&#45;&gt;Node16 -->
<g id="edge16_Node000003_Node000016" class="edge">
<title>Node3&#45;&gt;Node16</title>
<g id="a_edge16_Node000003_Node000016"><a xlink:title=" ">
<path fill="none" stroke="#63b8ff" d="M692.75,-115.89C613.14,-107.14 485.54,-92.01 376,-74 374.9,-73.82 373.78,-73.63 372.66,-73.43"/>
<polygon fill="#63b8ff" stroke="#63b8ff" points="372.88,-69.92 362.41,-71.54 371.61,-76.8 372.88,-69.92"/>
</a>
</g>
</g>
<!-- Node17 -->
<g id="Node000017" class="node">
<title>Node17</title>
<g id="a_Node000017"><a xlink:title=" ">
<polygon fill="#e0e0e0" stroke="#999999" points="949.5,-74 836.5,-74 836.5,-55 949.5,-55 949.5,-74"/>
<text text-anchor="middle" x="893" y="-62" font-family="Helvetica,sans-Serif" font-size="10.00">QRandomGenerator</text>
</a>
</g>
</g>
<!-- Node3&#45;&gt;Node17 -->
<g id="edge17_Node000003_Node000017" class="edge">
<title>Node3&#45;&gt;Node17</title>
<g id="a_edge17_Node000003_Node000017"><a xlink:title=" ">
<path fill="none" stroke="#63b8ff" d="M799.46,-109.99C819.62,-100.4 846.14,-87.79 865.8,-78.44"/>
<polygon fill="#63b8ff" stroke="#63b8ff" points="867.31,-81.6 874.84,-74.14 864.3,-75.27 867.31,-81.6"/>
</a>
</g>
</g>
<!-- Node18 -->
<g id="Node000018" class="node">
<title>Node18</title>
<g id="a_Node000018"><a xlink:title=" ">
<polygon fill="#e0e0e0" stroke="#999999" points="779.5,-74 726.5,-74 726.5,-55 779.5,-55 779.5,-74"/>
<text text-anchor="middle" x="753" y="-62" font-family="Helvetica,sans-Serif" font-size="10.00">QTimer</text>
</a>
</g>
</g>
<!-- Node3&#45;&gt;Node18 -->
<g id="edge18_Node000003_Node000018" class="edge">
<title>Node3&#45;&gt;Node18</title>
<g id="a_edge18_Node000003_Node000018"><a xlink:title=" ">
<path fill="none" stroke="#63b8ff" d="M765.88,-109.84C763.62,-102.04 760.78,-92.27 758.34,-83.89"/>
<polygon fill="#63b8ff" stroke="#63b8ff" points="761.7,-82.89 755.55,-74.27 754.98,-84.85 761.7,-82.89"/>
</a>
</g>
</g>
<!-- Node4&#45;&gt;Node5 -->
<g id="edge4_Node000004_Node000005" class="edge">
<title>Node4&#45;&gt;Node5</title>
<g id="a_edge4_Node000004_Node000005"><a xlink:title=" ">
<path fill="none" stroke="#63b8ff" d="M1020.92,-54.98C990.4,-46.05 942.24,-31.94 908.34,-22.02"/>
<polygon fill="#63b8ff" stroke="#63b8ff" points="908.89,-18.53 898.31,-19.08 906.92,-25.25 908.89,-18.53"/>
</a>
</g>
</g>
<!-- Node4&#45;&gt;Node6 -->
<g id="edge5_Node000004_Node000006" class="edge">
<title>Node4&#45;&gt;Node6</title>
<g id="a_edge5_Node000004_Node000006"><a xlink:title=" ">
<path fill="none" stroke="#63b8ff" d="M967.18,-55.65C964.42,-55.42 961.69,-55.21 959,-55 693.97,-34.64 627.26,-36.24 362,-19 333.39,-17.14 301.02,-14.88 276.82,-13.16"/>
<polygon fill="#63b8ff" stroke="#63b8ff" points="276.87,-9.65 266.65,-12.43 276.38,-16.63 276.87,-9.65"/>
</a>
</g>
</g>
<!-- Node4&#45;&gt;Node7 -->
<g id="edge6_Node000004_Node000007" class="edge">
<title>Node4&#45;&gt;Node7</title>
<g id="a_edge6_Node000004_Node000007"><a xlink:title=" ">
<path fill="none" stroke="#63b8ff" d="M967.18,-55.71C964.42,-55.47 961.69,-55.23 959,-55 752.35,-37.27 503.22,-18.78 419.24,-12.63"/>
<polygon fill="#63b8ff" stroke="#63b8ff" points="419.39,-9.13 409.17,-11.89 418.88,-16.11 419.39,-9.13"/>
</a>
</g>
</g>
<!-- Node8 -->
<g id="Node000008" class="node">
<title>Node8</title>
<g id="a_Node000008"><a xlink:title=" ">
<polygon fill="#e0e0e0" stroke="#999999" points="1039.5,-19 984.5,-19 984.5,0 1039.5,0 1039.5,-19"/>
<text text-anchor="middle" x="1012" y="-7" font-family="Helvetica,sans-Serif" font-size="10.00">QVector</text>
</a>
</g>
</g>
<!-- Node4&#45;&gt;Node8 -->
<g id="edge7_Node000004_Node000008" class="edge">
<title>Node4&#45;&gt;Node8</title>
<g id="a_edge7_Node000004_Node000008"><a xlink:title=" ">
<path fill="none" stroke="#63b8ff" d="M1043.73,-54.75C1038.41,-47.34 1030.64,-36.5 1024.12,-27.41"/>
<polygon fill="#63b8ff" stroke="#63b8ff" points="1026.83,-25.18 1018.16,-19.09 1021.14,-29.26 1026.83,-25.18"/>
</a>
</g>
</g>
<!-- Node9 -->
<g id="Node000009" class="node">
<title>Node9</title>
<g id="a_Node000009"><a xlink:title=" ">
<polygon fill="#e0e0e0" stroke="#999999" points="1116.5,-19 1057.5,-19 1057.5,0 1116.5,0 1116.5,-19"/>
<text text-anchor="middle" x="1087" y="-7" font-family="Helvetica,sans-Serif" font-size="10.00">QtGlobal</text>
</a>
</g>
</g>
<!-- Node4&#45;&gt;Node9 -->
<g id="edge8_Node000004_Node000009" class="edge">
<title>Node4&#45;&gt;Node9</title>
<g id="a_edge8_Node000004_Node000009"><a xlink:title=" ">
<path fill="none" stroke="#63b8ff" d="M1056.11,-54.75C1061.28,-47.34 1068.85,-36.5 1075.19,-27.41"/>
<polygon fill="#63b8ff" stroke="#63b8ff" points="1078.15,-29.29 1081,-19.09 1072.41,-25.29 1078.15,-29.29"/>
</a>
</g>
</g>
<!-- Node19&#45;&gt;Node6 -->
<g id="edge26_Node000019_Node000006" class="edge">
<title>Node19&#45;&gt;Node6</title>
<g id="a_edge26_Node000019_Node000006"><a xlink:title=" ">
<path fill="none" stroke="#63b8ff" d="M207.11,-115.18C210.6,-105.22 216.37,-88.5 221,-74 225.82,-58.91 230.95,-41.68 234.66,-28.99"/>
<polygon fill="#63b8ff" stroke="#63b8ff" points="238.09,-29.74 237.52,-19.16 231.37,-27.79 238.09,-29.74"/>
</a>
</g>
</g>
<!-- Node19&#45;&gt;Node14 -->
<g id="edge24_Node000019_Node000014" class="edge">
<title>Node19&#45;&gt;Node14</title>
<g id="a_edge24_Node000019_Node000014"><a xlink:title=" ">
<path fill="none" stroke="#63b8ff" d="M250.08,-122.55C448.2,-116.25 1224.02,-90.86 1374.12,-73.87"/>
<polygon fill="#63b8ff" stroke="#63b8ff" points="1374.7,-77.33 1384.19,-72.62 1373.83,-70.38 1374.7,-77.33"/>
</a>
</g>
</g>
<!-- Node19&#45;&gt;Node16 -->
<g id="edge25_Node000019_Node000016" class="edge">
<title>Node19&#45;&gt;Node16</title>
<g id="a_edge25_Node000019_Node000016"><a xlink:title=" ">
<path fill="none" stroke="#63b8ff" d="M222.9,-115.49C244.66,-105.7 280.62,-89.52 305.71,-78.23"/>
<polygon fill="#63b8ff" stroke="#63b8ff" points="307.39,-81.31 315.07,-74.02 304.52,-74.93 307.39,-81.31"/>
</a>
</g>
</g>
<!-- Node19&#45;&gt;Node20 -->
<g id="edge23_Node000019_Node000020" class="edge">
<title>Node19&#45;&gt;Node20</title>
<g id="a_edge23_Node000019_Node000020"><a xlink:title=" ">
<path fill="none" stroke="#63b8ff" d="M179.86,-115.49C151.46,-105.49 104.12,-88.8 72.01,-77.49"/>
<polygon fill="#63b8ff" stroke="#63b8ff" points="72.76,-74.04 62.17,-74.02 70.44,-80.64 72.76,-74.04"/>
</a>
</g>
</g>
<!-- Node21 -->
<g id="Node000021" class="node">
<title>Node21</title>
<g id="a_Node000021"><a xlink:title=" ">
<polygon fill="#e0e0e0" stroke="#999999" points="212,-74 132,-74 132,-55 212,-55 212,-74"/>
<text text-anchor="middle" x="172" y="-62" font-family="Helvetica,sans-Serif" font-size="10.00">QVariantMap</text>
</a>
</g>
</g>
<!-- Node19&#45;&gt;Node21 -->
<g id="edge27_Node000019_Node000021" class="edge">
<title>Node19&#45;&gt;Node21</title>
<g id="a_edge27_Node000019_Node000021"><a xlink:title=" ">
<path fill="none" stroke="#63b8ff" d="M199.28,-115.37C194.65,-106.9 187.45,-93.74 181.61,-83.07"/>
<polygon fill="#63b8ff" stroke="#63b8ff" points="184.61,-81.26 176.74,-74.17 178.47,-84.62 184.61,-81.26"/>
</a>
</g>
</g>
<!-- Node22&#45;&gt;Node3 -->
<g id="edge29_Node000022_Node000003" class="edge">
<title>Node22&#45;&gt;Node3</title>
<g id="a_edge29_Node000022_Node000003"><a xlink:title=" ">
<path fill="none" stroke="#63b8ff" d="M940.06,-175.99C910.67,-167.35 864.36,-153.74 827.48,-142.9"/>
<polygon fill="#63b8ff" stroke="#63b8ff" points="828.42,-139.53 817.84,-140.06 826.45,-146.24 828.42,-139.53"/>
</a>
</g>
</g>
<!-- Node22&#45;&gt;Node4 -->
<g id="edge30_Node000022_Node000004" class="edge">
<title>Node22&#45;&gt;Node4</title>
<g id="a_edge30_Node000022_Node000004"><a xlink:title=" ">
<path fill="none" stroke="#63b8ff" d="M963.75,-175.94C955.5,-161.27 941.72,-130.88 955,-110 964.88,-94.45 981.79,-84.25 998.62,-77.58"/>
<polygon fill="#63b8ff" stroke="#63b8ff" points="1000.24,-80.72 1008.47,-74.06 997.88,-74.13 1000.24,-80.72"/>
</a>
</g>
</g>
<!-- Node22&#45;&gt;Node11 -->
<g id="edge36_Node000022_Node000011" class="edge">
<title>Node22&#45;&gt;Node11</title>
<g id="a_edge36_Node000022_Node000011"><a xlink:title=" ">
<path fill="none" stroke="#63b8ff" d="M969.14,-175.9C969.88,-160.33 973.78,-127.44 993,-110 1003.95,-100.06 1083.85,-84.71 1140.33,-74.88"/>
<polygon fill="#63b8ff" stroke="#63b8ff" points="1140.97,-78.33 1150.23,-73.18 1139.78,-71.43 1140.97,-78.33"/>
</a>
</g>
</g>
<!-- Node22&#45;&gt;Node14 -->
<g id="edge35_Node000022_Node000014" class="edge">
<title>Node22&#45;&gt;Node14</title>
<g id="a_edge35_Node000022_Node000014"><a xlink:title=" ">
<path fill="none" stroke="#63b8ff" d="M980.88,-175.8C992.89,-166.95 1011.92,-152.76 1028,-140 1044.32,-127.06 1044.86,-118.2 1064,-110 1189.3,-56.31 1236.3,-96.11 1374.08,-74.11"/>
<polygon fill="#63b8ff" stroke="#63b8ff" points="1374.88,-77.52 1384.16,-72.41 1373.72,-70.62 1374.88,-77.52"/>
</a>
</g>
</g>
<!-- Node22&#45;&gt;Node15 -->
<g id="edge37_Node000022_Node000015" class="edge">
<title>Node22&#45;&gt;Node15</title>
<g id="a_edge37_Node000022_Node000015"><a xlink:title=" ">
<path fill="none" stroke="#63b8ff" d="M973.42,-175.85C982.08,-159.88 1002.9,-125.95 1031,-110 1035.79,-107.28 1169.41,-87.02 1251.31,-74.8"/>
<polygon fill="#63b8ff" stroke="#63b8ff" points="1251.9,-78.25 1261.27,-73.31 1250.86,-71.33 1251.9,-78.25"/>
</a>
</g>
</g>
<!-- Node22&#45;&gt;Node16 -->
<g id="edge38_Node000022_Node000016" class="edge">
<title>Node22&#45;&gt;Node16</title>
<g id="a_edge38_Node000022_Node000016"><a xlink:title=" ">
<path fill="none" stroke="#63b8ff" d="M908.24,-176C850.42,-167.68 761.07,-154.21 684,-140 569.99,-118.98 436.22,-89.02 372.07,-74.32"/>
<polygon fill="#63b8ff" stroke="#63b8ff" points="372.55,-70.84 362.02,-72.01 370.99,-77.66 372.55,-70.84"/>
</a>
</g>
</g>
<!-- Node22&#45;&gt;Node17 -->
<g id="edge41_Node000022_Node000017" class="edge">
<title>Node22&#45;&gt;Node17</title>
<g id="a_edge41_Node000022_Node000017"><a xlink:title=" ">
<path fill="none" stroke="#63b8ff" d="M955.18,-175.88C943.46,-167.9 927.01,-155.03 917,-140 905.73,-123.07 899.43,-100.47 896.15,-84.62"/>
<polygon fill="#63b8ff" stroke="#63b8ff" points="899.53,-83.64 894.26,-74.45 892.64,-84.92 899.53,-83.64"/>
</a>
</g>
</g>
<!-- Node23 -->
<g id="Node000023" class="node">
<title>Node23</title>
<g id="a_Node000023"><a xlink:href="TestableSingleton_8h.html" target="_top" xlink:title=" ">
<polygon fill="white" stroke="#666666" points="1209,-134.5 1073,-134.5 1073,-115.5 1209,-115.5 1209,-134.5"/>
<text text-anchor="middle" x="1141" y="-122.5" font-family="Helvetica,sans-Serif" font-size="10.00">utils/TestableSingleton.h</text>
</a>
</g>
</g>
<!-- Node22&#45;&gt;Node23 -->
<g id="edge31_Node000022_Node000023" class="edge">
<title>Node22&#45;&gt;Node23</title>
<g id="a_edge31_Node000022_Node000023"><a xlink:title=" ">
<path fill="none" stroke="#63b8ff" d="M994.01,-175.99C1023.56,-165.94 1072.91,-149.16 1106.19,-137.84"/>
<polygon fill="#63b8ff" stroke="#63b8ff" points="1107.62,-141.05 1115.96,-134.52 1105.37,-134.42 1107.62,-141.05"/>
</a>
</g>
</g>
<!-- Node25 -->
<g id="Node000025" class="node">
<title>Node25</title>
<g id="a_Node000025"><a xlink:title=" ">
<polygon fill="#e0e0e0" stroke="#999999" points="1276.5,-134.5 1227.5,-134.5 1227.5,-115.5 1276.5,-115.5 1276.5,-134.5"/>
<text text-anchor="middle" x="1252" y="-122.5" font-family="Helvetica,sans-Serif" font-size="10.00">QHash</text>
</a>
</g>
</g>
<!-- Node22&#45;&gt;Node25 -->
<g id="edge34_Node000022_Node000025" class="edge">
<title>Node22&#45;&gt;Node25</title>
<g id="a_edge34_Node000022_Node000025"><a xlink:title=" ">
<path fill="none" stroke="#63b8ff" d="M1039.69,-175.97C1090.04,-168.91 1158.98,-157.21 1218,-140 1219.88,-139.45 1221.81,-138.83 1223.73,-138.17"/>
<polygon fill="#63b8ff" stroke="#63b8ff" points="1225.08,-141.4 1233.2,-134.58 1222.6,-134.85 1225.08,-141.4"/>
</a>
</g>
</g>
<!-- Node26 -->
<g id="Node000026" class="node">
<title>Node26</title>
<g id="a_Node000026"><a xlink:title=" ">
<polygon fill="#e0e0e0" stroke="#999999" points="1353.5,-134.5 1294.5,-134.5 1294.5,-115.5 1353.5,-115.5 1353.5,-134.5"/>
<text text-anchor="middle" x="1324" y="-122.5" font-family="Helvetica,sans-Serif" font-size="10.00">QPointer</text>
</a>
</g>
</g>
<!-- Node22&#45;&gt;Node26 -->
<g id="edge39_Node000022_Node000026" class="edge">
<title>Node22&#45;&gt;Node26</title>
<g id="a_edge39_Node000022_Node000026"><a xlink:title=" ">
<path fill="none" stroke="#63b8ff" d="M1042.76,-175.99C1121.62,-166.57 1241.33,-151.23 1286,-140 1288.51,-139.37 1291.08,-138.63 1293.64,-137.83"/>
<polygon fill="#63b8ff" stroke="#63b8ff" points="1295.01,-141.06 1303.35,-134.52 1292.75,-134.44 1295.01,-141.06"/>
</a>
</g>
</g>
<!-- Node27 -->
<g id="Node000027" class="node">
<title>Node27</title>
<g id="a_Node000027"><a xlink:title=" ">
<polygon fill="#e0e0e0" stroke="#999999" points="1428,-134.5 1372,-134.5 1372,-115.5 1428,-115.5 1428,-134.5"/>
<text text-anchor="middle" x="1400" y="-122.5" font-family="Helvetica,sans-Serif" font-size="10.00">QQueue</text>
</a>
</g>
</g>
<!-- Node22&#45;&gt;Node27 -->
<g id="edge40_Node000022_Node000027" class="edge">
<title>Node22&#45;&gt;Node27</title>
<g id="a_edge40_Node000022_Node000027"><a xlink:title=" ">
<path fill="none" stroke="#63b8ff" d="M1050.4,-176.4C1156.88,-165.64 1333.43,-147.14 1363,-140 1365.45,-139.41 1367.96,-138.7 1370.47,-137.91"/>
<polygon fill="#63b8ff" stroke="#63b8ff" points="1371.63,-141.21 1379.93,-134.63 1369.34,-134.6 1371.63,-141.21"/>
</a>
</g>
</g>
<!-- Node28 -->
<g id="Node000028" class="node">
<title>Node28</title>
<g id="a_Node000028"><a xlink:title=" ">
<polygon fill="#e0e0e0" stroke="#999999" points="1504,-134.5 1446,-134.5 1446,-115.5 1504,-115.5 1504,-134.5"/>
<text text-anchor="middle" x="1475" y="-122.5" font-family="Helvetica,sans-Serif" font-size="10.00">QThread</text>
</a>
</g>
</g>
<!-- Node22&#45;&gt;Node28 -->
<g id="edge42_Node000022_Node000028" class="edge">
<title>Node22&#45;&gt;Node28</title>
<g id="a_edge42_Node000022_Node000028"><a xlink:title=" ">
<path fill="none" stroke="#63b8ff" d="M1050.06,-176.92C1182.79,-164.5 1432.33,-141.06 1437,-140 1439.67,-139.39 1442.41,-138.64 1445.13,-137.81"/>
<polygon fill="#63b8ff" stroke="#63b8ff" points="1446.43,-141.07 1454.78,-134.55 1444.19,-134.44 1446.43,-141.07"/>
</a>
</g>
</g>
<!-- Node29 -->
<g id="Node000029" class="node">
<title>Node29</title>
<g id="a_Node000029"><a xlink:title=" ">
<polygon fill="#e0e0e0" stroke="#999999" points="1614,-134.5 1522,-134.5 1522,-115.5 1614,-115.5 1614,-134.5"/>
<text text-anchor="middle" x="1568" y="-122.5" font-family="Helvetica,sans-Serif" font-size="10.00">QWaitCondition</text>
</a>
</g>
</g>
<!-- Node22&#45;&gt;Node29 -->
<g id="edge43_Node000022_Node000029" class="edge">
<title>Node22&#45;&gt;Node29</title>
<g id="a_edge43_Node000022_Node000029"><a xlink:title=" ">
<path fill="none" stroke="#63b8ff" d="M1050.36,-176.84C1053.62,-176.56 1056.84,-176.27 1060,-176 1261.22,-158.61 1313.75,-173.03 1513,-140 1518.03,-139.17 1523.28,-138.1 1528.45,-136.92"/>
<polygon fill="#63b8ff" stroke="#63b8ff" points="1529.32,-140.31 1538.22,-134.56 1527.68,-133.51 1529.32,-140.31"/>
</a>
</g>
</g>
<!-- Node23&#45;&gt;Node14 -->
<g id="edge32_Node000023_Node000014" class="edge">
<title>Node23&#45;&gt;Node14</title>
<g id="a_edge32_Node000023_Node000014"><a xlink:title=" ">
<path fill="none" stroke="#63b8ff" d="M1182.66,-115.43C1227.66,-106.1 1301.73,-90.57 1374.68,-74.26"/>
<polygon fill="#63b8ff" stroke="#63b8ff" points="1375.51,-77.66 1384.5,-72.06 1373.97,-70.83 1375.51,-77.66"/>
</a>
</g>
</g>
<!-- Node24 -->
<g id="Node000024" class="node">
<title>Node24</title>
<g id="a_Node000024"><a xlink:title=" ">
<polygon fill="#e0e0e0" stroke="#999999" points="1544,-74 1458,-74 1458,-55 1544,-55 1544,-74"/>
<text text-anchor="middle" x="1501" y="-62" font-family="Helvetica,sans-Serif" font-size="10.00">QMutexLocker</text>
</a>
</g>
</g>
<!-- Node23&#45;&gt;Node24 -->
<g id="edge33_Node000023_Node000024" class="edge">
<title>Node23&#45;&gt;Node24</title>
<g id="a_edge33_Node000023_Node000024"><a xlink:title=" ">
<path fill="none" stroke="#63b8ff" d="M1187.58,-115.46C1197.92,-113.62 1208.82,-111.71 1219,-110 1317.85,-93.4 1345.15,-90.52 1447.71,-74.2"/>
<polygon fill="#63b8ff" stroke="#63b8ff" points="1448.55,-77.61 1457.87,-72.57 1447.45,-70.69 1448.55,-77.61"/>
</a>
</g>
</g>
</g>
</svg>
