<?xml version="1.0" encoding="UTF-8" standalone="no"?>
<!DOCTYPE svg PUBLIC "-//W3C//DTD SVG 1.1//EN"
 "http://www.w3.org/Graphics/SVG/1.1/DTD/svg11.dtd">
<!-- Generated by graphviz version 2.43.0 (0)
 -->
<!-- Title: core/utils/UrlUtils.h Pages: 1 -->
<svg width="1266pt" height="93pt"
 viewBox="0.00 0.00 1266.00 93.00" xmlns="http://www.w3.org/2000/svg" xmlns:xlink="http://www.w3.org/1999/xlink">
<g id="graph0" class="graph" transform="scale(1 1) rotate(0) translate(4 89)">
<title>core/utils/UrlUtils.h</title>
<!-- Node1 -->
<g id="Node000001" class="node">
<title>Node1</title>
<g id="a_Node000001"><a xlink:title=" ">
<polygon fill="#999999" stroke="#666666" points="637,-85 527,-85 527,-66 637,-66 637,-85"/>
<text text-anchor="middle" x="582" y="-73" font-family="Helvetica,sans-Serif" font-size="10.00">core/utils/UrlUtils.h</text>
</a>
</g>
</g>
<!-- Node2 -->
<g id="Node000002" class="node">
<title>Node2</title>
<g id="a_Node000002"><a xlink:href="AsyncNetworkRequest_8cpp.html" target="_top" xlink:title=" ">
<polygon fill="white" stroke="#666666" points="154,-30 0,-30 0,0 154,0 154,-30"/>
<text text-anchor="start" x="8" y="-18" font-family="Helvetica,sans-Serif" font-size="10.00">core/network/AsyncNetwork</text>
<text text-anchor="middle" x="77" y="-7" font-family="Helvetica,sans-Serif" font-size="10.00">Request.cpp</text>
</a>
</g>
</g>
<!-- Node1&#45;&gt;Node2 -->
<g id="edge1_Node000001_Node000002" class="edge">
<title>Node1&#45;&gt;Node2</title>
<g id="a_edge1_Node000001_Node000002"><a xlink:title=" ">
<path fill="none" stroke="#63b8ff" d="M517,-68.73C434.51,-61.14 287.93,-46.79 163,-30 160.15,-29.62 157.25,-29.21 154.32,-28.8"/>
<polygon fill="#63b8ff" stroke="#63b8ff" points="516.7,-72.21 526.98,-69.64 517.34,-65.24 516.7,-72.21"/>
</a>
</g>
</g>
<!-- Node3 -->
<g id="Node000003" class="node">
<title>Node3</title>
<g id="a_Node000003"><a xlink:href="NetworkClient_8cpp.html" target="_top" xlink:title=" ">
<polygon fill="white" stroke="#666666" points="345.5,-24.5 172.5,-24.5 172.5,-5.5 345.5,-5.5 345.5,-24.5"/>
<text text-anchor="middle" x="259" y="-12.5" font-family="Helvetica,sans-Serif" font-size="10.00">core/network/NetworkClient.cpp</text>
</a>
</g>
</g>
<!-- Node1&#45;&gt;Node3 -->
<g id="edge2_Node000001_Node000003" class="edge">
<title>Node1&#45;&gt;Node3</title>
<g id="a_edge2_Node000001_Node000003"><a xlink:title=" ">
<path fill="none" stroke="#63b8ff" d="M524.98,-64.17C462.69,-52.89 364.06,-35.03 306.02,-24.52"/>
<polygon fill="#63b8ff" stroke="#63b8ff" points="524.57,-67.66 535.03,-65.99 525.82,-60.77 524.57,-67.66"/>
</a>
</g>
</g>
<!-- Node4 -->
<g id="Node000004" class="node">
<title>Node4</title>
<g id="a_Node000004"><a xlink:href="UrlUtils_8cpp.html" target="_top" xlink:title=" ">
<polygon fill="white" stroke="#666666" points="486,-24.5 364,-24.5 364,-5.5 486,-5.5 486,-24.5"/>
<text text-anchor="middle" x="425" y="-12.5" font-family="Helvetica,sans-Serif" font-size="10.00">core/utils/UrlUtils.cpp</text>
</a>
</g>
</g>
<!-- Node1&#45;&gt;Node4 -->
<g id="edge3_Node000001_Node000004" class="edge">
<title>Node1&#45;&gt;Node4</title>
<g id="a_edge3_Node000001_Node000004"><a xlink:title=" ">
<path fill="none" stroke="#63b8ff" d="M549.47,-62.38C519.12,-51.07 474.61,-34.49 447.86,-24.52"/>
<polygon fill="#63b8ff" stroke="#63b8ff" points="548.58,-65.78 559.17,-65.99 551.02,-59.22 548.58,-65.78"/>
</a>
</g>
</g>
<!-- Node5 -->
<g id="Node000005" class="node">
<title>Node5</title>
<g id="a_Node000005"><a xlink:href="CadDataLoader_8cpp.html" target="_top" xlink:title=" ">
<polygon fill="white" stroke="#666666" points="659.5,-24.5 504.5,-24.5 504.5,-5.5 659.5,-5.5 659.5,-24.5"/>
<text text-anchor="middle" x="582" y="-12.5" font-family="Helvetica,sans-Serif" font-size="10.00">services/CadDataLoader.cpp</text>
</a>
</g>
</g>
<!-- Node1&#45;&gt;Node5 -->
<g id="edge4_Node000001_Node000005" class="edge">
<title>Node1&#45;&gt;Node5</title>
<g id="a_edge4_Node000001_Node000005"><a xlink:title=" ">
<path fill="none" stroke="#63b8ff" d="M582,-55.66C582,-45.24 582,-32.8 582,-24.67"/>
<polygon fill="#63b8ff" stroke="#63b8ff" points="578.5,-55.87 582,-65.87 585.5,-55.87 578.5,-55.87"/>
</a>
</g>
</g>
<!-- Node6 -->
<g id="Node000006" class="node">
<title>Node6</title>
<g id="a_Node000006"><a xlink:href="ComponentCacheService_8cpp.html" target="_top" xlink:title=" ">
<polygon fill="white" stroke="#666666" points="880.5,-24.5 677.5,-24.5 677.5,-5.5 880.5,-5.5 880.5,-24.5"/>
<text text-anchor="middle" x="779" y="-12.5" font-family="Helvetica,sans-Serif" font-size="10.00">services/ComponentCacheService.cpp</text>
</a>
</g>
</g>
<!-- Node1&#45;&gt;Node6 -->
<g id="edge5_Node000001_Node000006" class="edge">
<title>Node1&#45;&gt;Node6</title>
<g id="a_edge5_Node000001_Node000006"><a xlink:title=" ">
<path fill="none" stroke="#63b8ff" d="M620.36,-63.11C658.47,-51.79 716.02,-34.7 750.32,-24.52"/>
<polygon fill="#63b8ff" stroke="#63b8ff" points="619.24,-59.79 610.65,-65.99 621.23,-66.5 619.24,-59.79"/>
</a>
</g>
</g>
<!-- Node7 -->
<g id="Node000007" class="node">
<title>Node7</title>
<g id="a_Node000007"><a xlink:href="ComponentService_8cpp.html" target="_top" xlink:title=" ">
<polygon fill="white" stroke="#666666" points="1071.5,-24.5 898.5,-24.5 898.5,-5.5 1071.5,-5.5 1071.5,-24.5"/>
<text text-anchor="middle" x="985" y="-12.5" font-family="Helvetica,sans-Serif" font-size="10.00">services/ComponentService.cpp</text>
</a>
</g>
</g>
<!-- Node1&#45;&gt;Node7 -->
<g id="edge6_Node000001_Node000007" class="edge">
<title>Node1&#45;&gt;Node7</title>
<g id="a_edge6_Node000001_Node000007"><a xlink:title=" ">
<path fill="none" stroke="#63b8ff" d="M647.17,-65.14C709.52,-56.17 806.19,-42.23 890,-30 902.12,-28.23 915.12,-26.32 927.48,-24.5"/>
<polygon fill="#63b8ff" stroke="#63b8ff" points="646.49,-61.7 637.09,-66.59 647.48,-68.63 646.49,-61.7"/>
</a>
</g>
</g>
<!-- Node8 -->
<g id="Node000008" class="node">
<title>Node8</title>
<g id="a_Node000008"><a xlink:href="LcscImageService_8cpp.html" target="_top" xlink:title=" ">
<polygon fill="white" stroke="#666666" points="1258,-24.5 1090,-24.5 1090,-5.5 1258,-5.5 1258,-24.5"/>
<text text-anchor="middle" x="1174" y="-12.5" font-family="Helvetica,sans-Serif" font-size="10.00">services/LcscImageService.cpp</text>
</a>
</g>
</g>
<!-- Node1&#45;&gt;Node8 -->
<g id="edge7_Node000001_Node000008" class="edge">
<title>Node1&#45;&gt;Node8</title>
<g id="a_edge7_Node000001_Node000008"><a xlink:title=" ">
<path fill="none" stroke="#63b8ff" d="M647.2,-69.95C742.61,-63 925.81,-48.58 1081,-30 1093.97,-28.45 1107.92,-26.5 1120.96,-24.55"/>
<polygon fill="#63b8ff" stroke="#63b8ff" points="646.84,-66.47 637.12,-70.68 647.35,-73.45 646.84,-66.47"/>
</a>
</g>
</g>
</g>
</svg>
