<?xml version="1.0" encoding="UTF-8" standalone="no"?>
<!DOCTYPE svg PUBLIC "-//W3C//DTD SVG 1.1//EN"
 "http://www.w3.org/Graphics/SVG/1.1/DTD/svg11.dtd">
<!-- Generated by graphviz version 2.43.0 (0)
 -->
<!-- Title: workers/WriteWorker.h Pages: 1 -->
<svg width="1402pt" height="302pt"
 viewBox="0.00 0.00 1402.45 302.00" xmlns="http://www.w3.org/2000/svg" xmlns:xlink="http://www.w3.org/1999/xlink">
<g id="graph0" class="graph" transform="scale(1 1) rotate(0) translate(4 298)">
<title>workers/WriteWorker.h</title>
<!-- Node1 -->
<g id="Node000001" class="node">
<title>Node1</title>
<g id="a_Node000001"><a xlink:title=" ">
<polygon fill="#999999" stroke="#666666" points="737,-294 611,-294 611,-275 737,-275 737,-294"/>
<text text-anchor="middle" x="674" y="-282" font-family="Helvetica,sans-Serif" font-size="10.00">workers/WriteWorker.h</text>
</a>
</g>
</g>
<!-- Node2 -->
<g id="Node000002" class="node">
<title>Node2</title>
<g id="a_Node000002"><a xlink:href="Exporter3DModel_8h.html" target="_top" xlink:title=" ">
<polygon fill="white" stroke="#666666" points="164,-239 0,-239 0,-220 164,-220 164,-239"/>
<text text-anchor="middle" x="82" y="-227" font-family="Helvetica,sans-Serif" font-size="10.00">core/kicad/Exporter3DModel.h</text>
</a>
</g>
</g>
<!-- Node1&#45;&gt;Node2 -->
<g id="edge1_Node000001_Node000002" class="edge">
<title>Node1&#45;&gt;Node2</title>
<g id="a_edge1_Node000001_Node000002"><a xlink:title=" ">
<path fill="none" stroke="#63b8ff" d="M610.93,-277.85C506.17,-268.47 295.84,-249.64 174.35,-238.77"/>
<polygon fill="#63b8ff" stroke="#63b8ff" points="174.59,-235.28 164.32,-237.87 173.97,-242.25 174.59,-235.28"/>
</a>
</g>
</g>
<!-- Node7 -->
<g id="Node000007" class="node">
<title>Node7</title>
<g id="a_Node000007"><a xlink:title=" ">
<polygon fill="#e0e0e0" stroke="#999999" points="166,-184 110,-184 110,-165 166,-165 166,-184"/>
<text text-anchor="middle" x="138" y="-172" font-family="Helvetica,sans-Serif" font-size="10.00">QObject</text>
</a>
</g>
</g>
<!-- Node1&#45;&gt;Node7 -->
<g id="edge57_Node000001_Node000007" class="edge">
<title>Node1&#45;&gt;Node7</title>
<g id="a_edge57_Node000001_Node000007"><a xlink:title=" ">
<path fill="none" stroke="#63b8ff" d="M610.91,-280.9C535.84,-276.68 407.18,-265.91 300,-239 250.83,-226.65 196.5,-203.2 164.91,-188.51"/>
<polygon fill="#63b8ff" stroke="#63b8ff" points="166.03,-185.17 155.49,-184.08 163.05,-191.5 166.03,-185.17"/>
</a>
</g>
</g>
<!-- Node8 -->
<g id="Node000008" class="node">
<title>Node8</title>
<g id="a_Node000008"><a xlink:href="ExporterFootprint_8h.html" target="_top" xlink:title=" ">
<polygon fill="white" stroke="#666666" points="473,-239 309,-239 309,-220 473,-220 473,-239"/>
<text text-anchor="middle" x="391" y="-227" font-family="Helvetica,sans-Serif" font-size="10.00">core/kicad/ExporterFootprint.h</text>
</a>
</g>
</g>
<!-- Node1&#45;&gt;Node8 -->
<g id="edge9_Node000001_Node000008" class="edge">
<title>Node1&#45;&gt;Node8</title>
<g id="a_edge9_Node000001_Node000008"><a xlink:title=" ">
<path fill="none" stroke="#63b8ff" d="M628.53,-274.98C579.06,-265.72 499.95,-250.9 446.77,-240.94"/>
<polygon fill="#63b8ff" stroke="#63b8ff" points="447.3,-237.48 436.83,-239.08 446.01,-244.36 447.3,-237.48"/>
</a>
</g>
</g>
<!-- Node15 -->
<g id="Node000015" class="node">
<title>Node15</title>
<g id="a_Node000015"><a xlink:href="ExporterSymbol_8h.html" target="_top" xlink:title=" ">
<polygon fill="white" stroke="#666666" points="752.5,-239 595.5,-239 595.5,-220 752.5,-220 752.5,-239"/>
<text text-anchor="middle" x="674" y="-227" font-family="Helvetica,sans-Serif" font-size="10.00">core/kicad/ExporterSymbol.h</text>
</a>
</g>
</g>
<!-- Node1&#45;&gt;Node15 -->
<g id="edge25_Node000001_Node000015" class="edge">
<title>Node1&#45;&gt;Node15</title>
<g id="a_edge25_Node000001_Node000015"><a xlink:title=" ">
<path fill="none" stroke="#63b8ff" d="M674,-274.75C674,-267.8 674,-257.85 674,-249.13"/>
<polygon fill="#63b8ff" stroke="#63b8ff" points="677.5,-249.09 674,-239.09 670.5,-249.09 677.5,-249.09"/>
</a>
</g>
</g>
<!-- Node19 -->
<g id="Node000019" class="node">
<title>Node19</title>
<g id="a_Node000019"><a xlink:href="ComponentExportStatus_8h.html" target="_top" xlink:title=" ">
<polygon fill="white" stroke="#666666" points="1147.5,-239 964.5,-239 964.5,-220 1147.5,-220 1147.5,-239"/>
<text text-anchor="middle" x="1056" y="-227" font-family="Helvetica,sans-Serif" font-size="10.00">models/ComponentExportStatus.h</text>
</a>
</g>
</g>
<!-- Node1&#45;&gt;Node19 -->
<g id="edge40_Node000001_Node000019" class="edge">
<title>Node1&#45;&gt;Node19</title>
<g id="a_edge40_Node000001_Node000019"><a xlink:title=" ">
<path fill="none" stroke="#63b8ff" d="M735.37,-274.98C803.22,-265.57 912.37,-250.43 984.15,-240.47"/>
<polygon fill="#63b8ff" stroke="#63b8ff" points="985.04,-243.88 994.46,-239.04 984.07,-236.95 985.04,-243.88"/>
</a>
</g>
</g>
<!-- Node24 -->
<g id="Node000024" class="node">
<title>Node24</title>
<g id="a_Node000024"><a xlink:title=" ">
<polygon fill="#e0e0e0" stroke="#999999" points="1220.5,-239 1165.5,-239 1165.5,-220 1220.5,-220 1220.5,-239"/>
<text text-anchor="middle" x="1193" y="-227" font-family="Helvetica,sans-Serif" font-size="10.00">QMutex</text>
</a>
</g>
</g>
<!-- Node1&#45;&gt;Node24 -->
<g id="edge56_Node000001_Node000024" class="edge">
<title>Node1&#45;&gt;Node24</title>
<g id="a_edge56_Node000001_Node000024"><a xlink:title=" ">
<path fill="none" stroke="#63b8ff" d="M737.26,-280.5C827.89,-275.58 1000.01,-263.91 1154.99,-239.13"/>
<polygon fill="#63b8ff" stroke="#63b8ff" points="1155.86,-242.53 1165.17,-237.48 1154.74,-235.62 1155.86,-242.53"/>
</a>
</g>
</g>
<!-- Node25 -->
<g id="Node000025" class="node">
<title>Node25</title>
<g id="a_Node000025"><a xlink:title=" ">
<polygon fill="#e0e0e0" stroke="#999999" points="1309,-239 1239,-239 1239,-220 1309,-220 1309,-239"/>
<text text-anchor="middle" x="1274" y="-227" font-family="Helvetica,sans-Serif" font-size="10.00">QRunnable</text>
</a>
</g>
</g>
<!-- Node1&#45;&gt;Node25 -->
<g id="edge58_Node000001_Node000025" class="edge">
<title>Node1&#45;&gt;Node25</title>
<g id="a_edge58_Node000001_Node000025"><a xlink:title=" ">
<path fill="none" stroke="#63b8ff" d="M737.2,-280.73C838.74,-275.77 1044.64,-263.65 1228.85,-239"/>
<polygon fill="#63b8ff" stroke="#63b8ff" points="1229.55,-242.44 1238.99,-237.63 1228.61,-235.5 1229.55,-242.44"/>
</a>
</g>
</g>
<!-- Node3 -->
<g id="Node000003" class="node">
<title>Node3</title>
<g id="a_Node000003"><a xlink:href="Model3DData_8h.html" target="_top" xlink:title=" ">
<polygon fill="white" stroke="#666666" points="639.5,-74 508.5,-74 508.5,-55 639.5,-55 639.5,-74"/>
<text text-anchor="middle" x="574" y="-62" font-family="Helvetica,sans-Serif" font-size="10.00">models/Model3DData.h</text>
</a>
</g>
</g>
<!-- Node2&#45;&gt;Node3 -->
<g id="edge2_Node000002_Node000003" class="edge">
<title>Node2&#45;&gt;Node3</title>
<g id="a_edge2_Node000002_Node000003"><a xlink:title=" ">
<path fill="none" stroke="#63b8ff" d="M81.97,-219.66C82.42,-205.87 85.42,-179.33 101,-165 158.08,-112.49 379.37,-83.93 497.95,-72.12"/>
<polygon fill="#63b8ff" stroke="#63b8ff" points="498.44,-75.58 508.05,-71.12 497.76,-68.62 498.44,-75.58"/>
</a>
</g>
</g>
<!-- Node4 -->
<g id="Node000004" class="node">
<title>Node4</title>
<g id="a_Node000004"><a xlink:title=" ">
<polygon fill="#e0e0e0" stroke="#999999" points="289.5,-19 216.5,-19 216.5,0 289.5,0 289.5,-19"/>
<text text-anchor="middle" x="253" y="-7" font-family="Helvetica,sans-Serif" font-size="10.00">QByteArray</text>
</a>
</g>
</g>
<!-- Node2&#45;&gt;Node4 -->
<g id="edge6_Node000002_Node000004" class="edge">
<title>Node2&#45;&gt;Node4</title>
<g id="a_edge6_Node000002_Node000004"><a xlink:title=" ">
<path fill="none" stroke="#63b8ff" d="M65.97,-219.95C53.59,-212.35 37.35,-199.97 30,-184 6.02,-131.92 -6.36,-99.33 30,-55 51.85,-28.36 147.55,-17.36 206.25,-13.06"/>
<polygon fill="#63b8ff" stroke="#63b8ff" points="206.67,-16.54 216.4,-12.35 206.18,-9.56 206.67,-16.54"/>
</a>
</g>
</g>
<!-- Node6 -->
<g id="Node000006" class="node">
<title>Node6</title>
<g id="a_Node000006"><a xlink:title=" ">
<polygon fill="#e0e0e0" stroke="#999999" points="553.5,-19 500.5,-19 500.5,0 553.5,0 553.5,-19"/>
<text text-anchor="middle" x="527" y="-7" font-family="Helvetica,sans-Serif" font-size="10.00">QString</text>
</a>
</g>
</g>
<!-- Node2&#45;&gt;Node6 -->
<g id="edge8_Node000002_Node000006" class="edge">
<title>Node2&#45;&gt;Node6</title>
<g id="a_edge8_Node000002_Node000006"><a xlink:title=" ">
<path fill="none" stroke="#63b8ff" d="M79.98,-219.95C77.44,-207.01 74.54,-182.15 85,-165 136.01,-81.37 183.94,-88.5 276,-55 349.19,-28.37 440.37,-17.32 490.21,-13.02"/>
<polygon fill="#63b8ff" stroke="#63b8ff" points="490.52,-16.51 500.2,-12.2 489.95,-9.53 490.52,-16.51"/>
</a>
</g>
</g>
<!-- Node2&#45;&gt;Node7 -->
<g id="edge7_Node000002_Node000007" class="edge">
<title>Node2&#45;&gt;Node7</title>
<g id="a_edge7_Node000002_Node000007"><a xlink:title=" ">
<path fill="none" stroke="#63b8ff" d="M91,-219.98C99.19,-212.23 111.51,-200.58 121.47,-191.14"/>
<polygon fill="#63b8ff" stroke="#63b8ff" points="123.98,-193.59 128.84,-184.17 119.17,-188.5 123.98,-193.59"/>
</a>
</g>
</g>
<!-- Node3&#45;&gt;Node4 -->
<g id="edge3_Node000003_Node000004" class="edge">
<title>Node3&#45;&gt;Node4</title>
<g id="a_edge3_Node000003_Node000004"><a xlink:title=" ">
<path fill="none" stroke="#63b8ff" d="M522.43,-54.98C461.07,-44.85 359.5,-28.08 300.15,-18.29"/>
<polygon fill="#63b8ff" stroke="#63b8ff" points="300.37,-14.77 289.94,-16.6 299.23,-21.68 300.37,-14.77"/>
</a>
</g>
</g>
<!-- Node5 -->
<g id="Node000005" class="node">
<title>Node5</title>
<g id="a_Node000005"><a xlink:title=" ">
<polygon fill="#e0e0e0" stroke="#999999" points="947,-19 871,-19 871,0 947,0 947,-19"/>
<text text-anchor="middle" x="909" y="-7" font-family="Helvetica,sans-Serif" font-size="10.00">QJsonObject</text>
</a>
</g>
</g>
<!-- Node3&#45;&gt;Node5 -->
<g id="edge4_Node000003_Node000005" class="edge">
<title>Node3&#45;&gt;Node5</title>
<g id="a_edge4_Node000003_Node000005"><a xlink:title=" ">
<path fill="none" stroke="#63b8ff" d="M627.82,-54.98C692.16,-44.81 798.88,-27.92 860.68,-18.14"/>
<polygon fill="#63b8ff" stroke="#63b8ff" points="861.61,-21.54 870.94,-16.52 860.51,-14.63 861.61,-21.54"/>
</a>
</g>
</g>
<!-- Node3&#45;&gt;Node6 -->
<g id="edge5_Node000003_Node000006" class="edge">
<title>Node3&#45;&gt;Node6</title>
<g id="a_edge5_Node000003_Node000006"><a xlink:title=" ">
<path fill="none" stroke="#63b8ff" d="M566.24,-54.75C559.53,-47.18 549.66,-36.05 541.49,-26.84"/>
<polygon fill="#63b8ff" stroke="#63b8ff" points="543.87,-24.25 534.62,-19.09 538.63,-28.89 543.87,-24.25"/>
</a>
</g>
</g>
<!-- Node8&#45;&gt;Node3 -->
<g id="edge20_Node000008_Node000003" class="edge">
<title>Node8&#45;&gt;Node3</title>
<g id="a_edge20_Node000008_Node000003"><a xlink:title=" ">
<path fill="none" stroke="#63b8ff" d="M400.64,-219.86C414.28,-207.64 440.03,-184.59 462,-165 495.57,-135.08 534.89,-100.18 556.87,-80.68"/>
<polygon fill="#63b8ff" stroke="#63b8ff" points="559.24,-83.26 564.4,-74.01 554.6,-78.02 559.24,-83.26"/>
</a>
</g>
</g>
<!-- Node8&#45;&gt;Node5 -->
<g id="edge21_Node000008_Node000005" class="edge">
<title>Node8&#45;&gt;Node5</title>
<g id="a_edge21_Node000008_Node000005"><a xlink:title=" ">
<path fill="none" stroke="#63b8ff" d="M315.45,-219.96C272.56,-211.68 231.06,-195.65 251,-165 316.74,-63.92 382.56,-86.32 499,-55 626.45,-20.71 782.93,-12.73 860.56,-10.95"/>
<polygon fill="#63b8ff" stroke="#63b8ff" points="861.05,-14.44 870.97,-10.74 860.9,-7.44 861.05,-14.44"/>
</a>
</g>
</g>
<!-- Node8&#45;&gt;Node6 -->
<g id="edge23_Node000008_Node000006" class="edge">
<title>Node8&#45;&gt;Node6</title>
<g id="a_edge23_Node000008_Node000006"><a xlink:title=" ">
<path fill="none" stroke="#63b8ff" d="M324.82,-219.94C281.79,-212.86 231.3,-201.16 218,-184 212.83,-177.33 215.16,-172.95 218,-165 239.24,-105.51 253.91,-87.63 308,-55 365.17,-20.51 444.45,-12.28 490.27,-10.59"/>
<polygon fill="#63b8ff" stroke="#63b8ff" points="490.45,-14.09 500.34,-10.31 490.25,-7.09 490.45,-14.09"/>
</a>
</g>
</g>
<!-- Node8&#45;&gt;Node7 -->
<g id="edge22_Node000008_Node000007" class="edge">
<title>Node8&#45;&gt;Node7</title>
<g id="a_edge22_Node000008_Node000007"><a xlink:title=" ">
<path fill="none" stroke="#63b8ff" d="M350.35,-219.98C302.3,-209.92 222.97,-193.3 176.07,-183.48"/>
<polygon fill="#63b8ff" stroke="#63b8ff" points="176.52,-179.99 166.02,-181.37 175.09,-186.84 176.52,-179.99"/>
</a>
</g>
</g>
<!-- Node9 -->
<g id="Node000009" class="node">
<title>Node9</title>
<g id="a_Node000009"><a xlink:href="FootprintGraphicsGenerator_8h.html" target="_top" xlink:title=" ">
<polygon fill="white" stroke="#666666" points="420,-184 260,-184 260,-165 420,-165 420,-184"/>
<text text-anchor="middle" x="340" y="-172" font-family="Helvetica,sans-Serif" font-size="10.00">FootprintGraphicsGenerator.h</text>
</a>
</g>
</g>
<!-- Node8&#45;&gt;Node9 -->
<g id="edge10_Node000008_Node000009" class="edge">
<title>Node8&#45;&gt;Node9</title>
<g id="a_edge10_Node000008_Node000009"><a xlink:title=" ">
<path fill="none" stroke="#63b8ff" d="M382.58,-219.75C375.23,-212.11 364.37,-200.82 355.46,-191.56"/>
<polygon fill="#63b8ff" stroke="#63b8ff" points="357.72,-188.87 348.26,-184.09 352.68,-193.72 357.72,-188.87"/>
</a>
</g>
</g>
<!-- Node10 -->
<g id="Node000010" class="node">
<title>Node10</title>
<g id="a_Node000010"><a xlink:href="FootprintData_8h.html" target="_top" xlink:title=" ">
<polygon fill="white" stroke="#666666" points="826.5,-129 695.5,-129 695.5,-110 826.5,-110 826.5,-129"/>
<text text-anchor="middle" x="761" y="-117" font-family="Helvetica,sans-Serif" font-size="10.00">models/FootprintData.h</text>
</a>
</g>
</g>
<!-- Node8&#45;&gt;Node10 -->
<g id="edge19_Node000008_Node000010" class="edge">
<title>Node8&#45;&gt;Node10</title>
<g id="a_edge19_Node000008_Node000010"><a xlink:title=" ">
<path fill="none" stroke="#63b8ff" d="M403.33,-219.78C423.55,-205.92 465.49,-178.98 505,-165 563.61,-144.26 633.3,-132.95 685.16,-126.93"/>
<polygon fill="#63b8ff" stroke="#63b8ff" points="685.74,-130.39 695.29,-125.8 684.96,-123.43 685.74,-130.39"/>
</a>
</g>
</g>
<!-- Node14 -->
<g id="Node000014" class="node">
<title>Node14</title>
<g id="a_Node000014"><a xlink:title=" ">
<polygon fill="#e0e0e0" stroke="#999999" points="594,-184 514,-184 514,-165 594,-165 594,-184"/>
<text text-anchor="middle" x="554" y="-172" font-family="Helvetica,sans-Serif" font-size="10.00">QTextStream</text>
</a>
</g>
</g>
<!-- Node8&#45;&gt;Node14 -->
<g id="edge24_Node000008_Node000014" class="edge">
<title>Node8&#45;&gt;Node14</title>
<g id="a_edge24_Node000008_Node000014"><a xlink:title=" ">
<path fill="none" stroke="#63b8ff" d="M417.19,-219.98C444.44,-211.13 487.3,-197.19 517.78,-187.28"/>
<polygon fill="#63b8ff" stroke="#63b8ff" points="519.18,-190.5 527.61,-184.08 517.01,-183.85 519.18,-190.5"/>
</a>
</g>
</g>
<!-- Node9&#45;&gt;Node6 -->
<g id="edge18_Node000009_Node000006" class="edge">
<title>Node9&#45;&gt;Node6</title>
<g id="a_edge18_Node000009_Node000006"><a xlink:title=" ">
<path fill="none" stroke="#63b8ff" d="M334.55,-164.92C321.83,-143.7 293.25,-88.11 320,-55 341.01,-29 436.65,-17.48 490.27,-12.99"/>
<polygon fill="#63b8ff" stroke="#63b8ff" points="490.71,-16.47 500.4,-12.19 490.15,-9.49 490.71,-16.47"/>
</a>
</g>
</g>
<!-- Node9&#45;&gt;Node10 -->
<g id="edge11_Node000009_Node000010" class="edge">
<title>Node9&#45;&gt;Node10</title>
<g id="a_edge11_Node000009_Node000010"><a xlink:title=" ">
<path fill="none" stroke="#63b8ff" d="M407.64,-164.98C483.38,-155.45 605.85,-140.03 684.89,-130.08"/>
<polygon fill="#63b8ff" stroke="#63b8ff" points="685.78,-133.5 695.26,-128.78 684.9,-126.55 685.78,-133.5"/>
</a>
</g>
</g>
<!-- Node10&#45;&gt;Node3 -->
<g id="edge12_Node000010_Node000003" class="edge">
<title>Node10&#45;&gt;Node3</title>
<g id="a_edge12_Node000010_Node000003"><a xlink:title=" ">
<path fill="none" stroke="#63b8ff" d="M730.96,-109.98C699.29,-101.01 649.23,-86.82 614.19,-76.89"/>
<polygon fill="#63b8ff" stroke="#63b8ff" points="614.86,-73.44 604.28,-74.08 612.95,-80.18 614.86,-73.44"/>
</a>
</g>
</g>
<!-- Node10&#45;&gt;Node5 -->
<g id="edge14_Node000010_Node000005" class="edge">
<title>Node10&#45;&gt;Node5</title>
<g id="a_edge14_Node000010_Node000005"><a xlink:title=" ">
<path fill="none" stroke="#63b8ff" d="M749.89,-109.98C734.68,-97.3 710.81,-73.03 725,-55 741.6,-33.9 811.96,-21.61 860.69,-15.48"/>
<polygon fill="#63b8ff" stroke="#63b8ff" points="861.23,-18.94 870.74,-14.26 860.39,-11.99 861.23,-18.94"/>
</a>
</g>
</g>
<!-- Node10&#45;&gt;Node6 -->
<g id="edge17_Node000010_Node000006" class="edge">
<title>Node10&#45;&gt;Node6</title>
<g id="a_edge17_Node000010_Node000006"><a xlink:title=" ">
<path fill="none" stroke="#63b8ff" d="M747.46,-109.95C726.61,-97.01 685.19,-72.16 648,-55 620.31,-42.23 587.83,-30.45 563.49,-22.22"/>
<polygon fill="#63b8ff" stroke="#63b8ff" points="564.52,-18.88 553.93,-19.03 562.31,-25.52 564.52,-18.88"/>
</a>
</g>
</g>
<!-- Node11 -->
<g id="Node000011" class="node">
<title>Node11</title>
<g id="a_Node000011"><a xlink:title=" ">
<polygon fill="#e0e0e0" stroke="#999999" points="937.5,-74 866.5,-74 866.5,-55 937.5,-55 937.5,-74"/>
<text text-anchor="middle" x="902" y="-62" font-family="Helvetica,sans-Serif" font-size="10.00">QJsonArray</text>
</a>
</g>
</g>
<!-- Node10&#45;&gt;Node11 -->
<g id="edge13_Node000010_Node000011" class="edge">
<title>Node10&#45;&gt;Node11</title>
<g id="a_edge13_Node000010_Node000011"><a xlink:title=" ">
<path fill="none" stroke="#63b8ff" d="M783.65,-109.98C806.85,-101.27 843.12,-87.63 869.4,-77.75"/>
<polygon fill="#63b8ff" stroke="#63b8ff" points="870.8,-80.97 878.93,-74.17 868.34,-74.41 870.8,-80.97"/>
</a>
</g>
</g>
<!-- Node12 -->
<g id="Node000012" class="node">
<title>Node12</title>
<g id="a_Node000012"><a xlink:title=" ">
<polygon fill="#e0e0e0" stroke="#999999" points="775.5,-74 734.5,-74 734.5,-55 775.5,-55 775.5,-74"/>
<text text-anchor="middle" x="755" y="-62" font-family="Helvetica,sans-Serif" font-size="10.00">QList</text>
</a>
</g>
</g>
<!-- Node10&#45;&gt;Node12 -->
<g id="edge15_Node000010_Node000012" class="edge">
<title>Node10&#45;&gt;Node12</title>
<g id="a_edge15_Node000010_Node000012"><a xlink:title=" ">
<path fill="none" stroke="#63b8ff" d="M760.01,-109.75C759.22,-102.8 758.1,-92.85 757.11,-84.13"/>
<polygon fill="#63b8ff" stroke="#63b8ff" points="760.58,-83.63 755.97,-74.09 753.62,-84.42 760.58,-83.63"/>
</a>
</g>
</g>
<!-- Node13 -->
<g id="Node000013" class="node">
<title>Node13</title>
<g id="a_Node000013"><a xlink:title=" ">
<polygon fill="#e0e0e0" stroke="#999999" points="848.5,-74 793.5,-74 793.5,-55 848.5,-55 848.5,-74"/>
<text text-anchor="middle" x="821" y="-62" font-family="Helvetica,sans-Serif" font-size="10.00">QPointF</text>
</a>
</g>
</g>
<!-- Node10&#45;&gt;Node13 -->
<g id="edge16_Node000010_Node000013" class="edge">
<title>Node10&#45;&gt;Node13</title>
<g id="a_edge16_Node000010_Node000013"><a xlink:title=" ">
<path fill="none" stroke="#63b8ff" d="M770.64,-109.98C779.51,-102.15 792.87,-90.34 803.61,-80.86"/>
<polygon fill="#63b8ff" stroke="#63b8ff" points="806.01,-83.41 811.18,-74.17 801.37,-78.17 806.01,-83.41"/>
</a>
</g>
</g>
<!-- Node15&#45;&gt;Node5 -->
<g id="edge36_Node000015_Node000005" class="edge">
<title>Node15&#45;&gt;Node5</title>
<g id="a_edge36_Node000015_Node000005"><a xlink:title=" ">
<path fill="none" stroke="#63b8ff" d="M712.64,-219.94C805.18,-198.5 1034.63,-139.51 1072,-74 1097.99,-28.43 1014.68,-15.45 957.75,-11.82"/>
<polygon fill="#63b8ff" stroke="#63b8ff" points="957.64,-8.31 947.46,-11.25 957.25,-15.3 957.64,-8.31"/>
</a>
</g>
</g>
<!-- Node15&#45;&gt;Node6 -->
<g id="edge38_Node000015_Node000006" class="edge">
<title>Node15&#45;&gt;Node6</title>
<g id="a_edge38_Node000015_Node000006"><a xlink:title=" ">
<path fill="none" stroke="#63b8ff" d="M665.88,-219.87C653.31,-206.83 627.94,-181.84 603,-165 573.02,-144.76 557.38,-152.64 530,-129 507.51,-109.58 500.85,-102.36 492,-74 489.49,-65.94 489.24,-62.98 492,-55 495.67,-44.38 503.04,-34.38 510.08,-26.55"/>
<polygon fill="#63b8ff" stroke="#63b8ff" points="512.7,-28.88 517.12,-19.25 507.66,-24.02 512.7,-28.88"/>
</a>
</g>
</g>
<!-- Node15&#45;&gt;Node7 -->
<g id="edge37_Node000015_Node000007" class="edge">
<title>Node15&#45;&gt;Node7</title>
<g id="a_edge37_Node000015_Node000007"><a xlink:title=" ">
<path fill="none" stroke="#63b8ff" d="M595.49,-220.74C478.55,-209.17 263.07,-187.87 175.99,-179.26"/>
<polygon fill="#63b8ff" stroke="#63b8ff" points="176.32,-175.77 166.02,-178.27 175.63,-182.74 176.32,-175.77"/>
</a>
</g>
</g>
<!-- Node15&#45;&gt;Node14 -->
<g id="edge39_Node000015_Node000014" class="edge">
<title>Node15&#45;&gt;Node14</title>
<g id="a_edge39_Node000015_Node000014"><a xlink:title=" ">
<path fill="none" stroke="#63b8ff" d="M654.72,-219.98C635.33,-211.42 605.19,-198.11 582.93,-188.28"/>
<polygon fill="#63b8ff" stroke="#63b8ff" points="584.19,-185.01 573.63,-184.17 581.36,-191.41 584.19,-185.01"/>
</a>
</g>
</g>
<!-- Node16 -->
<g id="Node000016" class="node">
<title>Node16</title>
<g id="a_Node000016"><a xlink:href="SymbolGraphicsGenerator_8h.html" target="_top" xlink:title=" ">
<polygon fill="white" stroke="#666666" points="803.5,-184 650.5,-184 650.5,-165 803.5,-165 803.5,-184"/>
<text text-anchor="middle" x="727" y="-172" font-family="Helvetica,sans-Serif" font-size="10.00">SymbolGraphicsGenerator.h</text>
</a>
</g>
</g>
<!-- Node15&#45;&gt;Node16 -->
<g id="edge26_Node000015_Node000016" class="edge">
<title>Node15&#45;&gt;Node16</title>
<g id="a_edge26_Node000015_Node000016"><a xlink:title=" ">
<path fill="none" stroke="#63b8ff" d="M682.75,-219.75C690.47,-212.03 701.9,-200.6 711.22,-191.28"/>
<polygon fill="#63b8ff" stroke="#63b8ff" points="713.81,-193.64 718.41,-184.09 708.86,-188.69 713.81,-193.64"/>
</a>
</g>
</g>
<!-- Node17 -->
<g id="Node000017" class="node">
<title>Node17</title>
<g id="a_Node000017"><a xlink:href="SymbolData_8h.html" target="_top" xlink:title=" ">
<polygon fill="white" stroke="#666666" points="969.5,-129 844.5,-129 844.5,-110 969.5,-110 969.5,-129"/>
<text text-anchor="middle" x="907" y="-117" font-family="Helvetica,sans-Serif" font-size="10.00">models/SymbolData.h</text>
</a>
</g>
</g>
<!-- Node15&#45;&gt;Node17 -->
<g id="edge35_Node000015_Node000017" class="edge">
<title>Node15&#45;&gt;Node17</title>
<g id="a_edge35_Node000015_Node000017"><a xlink:title=" ">
<path fill="none" stroke="#63b8ff" d="M709.63,-219.93C738.13,-212.4 778.69,-200.11 812,-184 840.08,-170.41 869.52,-149.56 888.04,-135.49"/>
<polygon fill="#63b8ff" stroke="#63b8ff" points="890.42,-138.07 896.2,-129.19 886.15,-132.53 890.42,-138.07"/>
</a>
</g>
</g>
<!-- Node16&#45;&gt;Node6 -->
<g id="edge34_Node000016_Node000006" class="edge">
<title>Node16&#45;&gt;Node6</title>
<g id="a_edge34_Node000016_Node000006"><a xlink:title=" ">
<path fill="none" stroke="#63b8ff" d="M661.8,-164.99C607.65,-154.07 534.04,-129.39 499,-74 489.49,-58.97 500.26,-40.15 511.09,-26.92"/>
<polygon fill="#63b8ff" stroke="#63b8ff" points="513.98,-28.93 518,-19.12 508.74,-24.28 513.98,-28.93"/>
</a>
</g>
</g>
<!-- Node16&#45;&gt;Node17 -->
<g id="edge27_Node000016_Node000017" class="edge">
<title>Node16&#45;&gt;Node17</title>
<g id="a_edge27_Node000016_Node000017"><a xlink:title=" ">
<path fill="none" stroke="#63b8ff" d="M755.92,-164.98C786.27,-156.05 834.17,-141.94 867.88,-132.02"/>
<polygon fill="#63b8ff" stroke="#63b8ff" points="869.25,-135.26 877.85,-129.08 867.27,-128.55 869.25,-135.26"/>
</a>
</g>
</g>
<!-- Node17&#45;&gt;Node5 -->
<g id="edge29_Node000017_Node000005" class="edge">
<title>Node17&#45;&gt;Node5</title>
<g id="a_edge29_Node000017_Node000005"><a xlink:title=" ">
<path fill="none" stroke="#63b8ff" d="M957.47,-109.93C995.54,-102.32 1043.15,-89.93 1055,-74 1082.91,-36.47 1010.13,-20.81 957.58,-14.5"/>
<polygon fill="#63b8ff" stroke="#63b8ff" points="957.7,-11 947.37,-13.36 956.92,-17.95 957.7,-11"/>
</a>
</g>
</g>
<!-- Node17&#45;&gt;Node6 -->
<g id="edge33_Node000017_Node000006" class="edge">
<title>Node17&#45;&gt;Node6</title>
<g id="a_edge33_Node000017_Node000006"><a xlink:title=" ">
<path fill="none" stroke="#63b8ff" d="M919.35,-109.86C936.25,-97.02 962.77,-72.53 947,-55 921.56,-26.73 661.5,-15.05 563.81,-11.64"/>
<polygon fill="#63b8ff" stroke="#63b8ff" points="563.65,-8.14 553.53,-11.29 563.41,-15.13 563.65,-8.14"/>
</a>
</g>
</g>
<!-- Node17&#45;&gt;Node11 -->
<g id="edge28_Node000017_Node000011" class="edge">
<title>Node17&#45;&gt;Node11</title>
<g id="a_edge28_Node000017_Node000011"><a xlink:title=" ">
<path fill="none" stroke="#63b8ff" d="M906.17,-109.75C905.52,-102.8 904.58,-92.85 903.76,-84.13"/>
<polygon fill="#63b8ff" stroke="#63b8ff" points="907.23,-83.72 902.81,-74.09 900.27,-84.37 907.23,-83.72"/>
</a>
</g>
</g>
<!-- Node17&#45;&gt;Node12 -->
<g id="edge30_Node000017_Node000012" class="edge">
<title>Node17&#45;&gt;Node12</title>
<g id="a_edge30_Node000017_Node000012"><a xlink:title=" ">
<path fill="none" stroke="#63b8ff" d="M882.58,-109.98C856.15,-100.77 813.98,-86.07 785.42,-76.11"/>
<polygon fill="#63b8ff" stroke="#63b8ff" points="786.53,-72.79 775.94,-72.8 784.23,-79.4 786.53,-72.79"/>
</a>
</g>
</g>
<!-- Node17&#45;&gt;Node13 -->
<g id="edge31_Node000017_Node000013" class="edge">
<title>Node17&#45;&gt;Node13</title>
<g id="a_edge31_Node000017_Node000013"><a xlink:title=" ">
<path fill="none" stroke="#63b8ff" d="M893.18,-109.98C879.85,-101.77 859.42,-89.18 843.69,-79.49"/>
<polygon fill="#63b8ff" stroke="#63b8ff" points="845.42,-76.44 835.07,-74.17 841.75,-82.4 845.42,-76.44"/>
</a>
</g>
</g>
<!-- Node18 -->
<g id="Node000018" class="node">
<title>Node18</title>
<g id="a_Node000018"><a xlink:title=" ">
<polygon fill="#e0e0e0" stroke="#999999" points="1046,-74 994,-74 994,-55 1046,-55 1046,-74"/>
<text text-anchor="middle" x="1020" y="-62" font-family="Helvetica,sans-Serif" font-size="10.00">QRectF</text>
</a>
</g>
</g>
<!-- Node17&#45;&gt;Node18 -->
<g id="edge32_Node000017_Node000018" class="edge">
<title>Node17&#45;&gt;Node18</title>
<g id="a_edge32_Node000017_Node000018"><a xlink:title=" ">
<path fill="none" stroke="#63b8ff" d="M925.16,-109.98C943.25,-101.5 971.28,-88.35 992.19,-78.54"/>
<polygon fill="#63b8ff" stroke="#63b8ff" points="993.95,-81.59 1001.51,-74.17 990.97,-75.25 993.95,-81.59"/>
</a>
</g>
</g>
<!-- Node19&#45;&gt;Node3 -->
<g id="edge50_Node000019_Node000003" class="edge">
<title>Node19&#45;&gt;Node3</title>
<g id="a_edge50_Node000019_Node000003"><a xlink:title=" ">
<path fill="none" stroke="#63b8ff" d="M1024.9,-219.97C978.63,-207.38 888.85,-183.33 812,-165 738.57,-147.49 713.37,-163.07 646,-129 622.87,-117.31 601.28,-96.39 587.89,-81.77"/>
<polygon fill="#63b8ff" stroke="#63b8ff" points="590.25,-79.17 581,-74.01 585.02,-83.81 590.25,-79.17"/>
</a>
</g>
</g>
<!-- Node19&#45;&gt;Node6 -->
<g id="edge55_Node000019_Node000006" class="edge">
<title>Node19&#45;&gt;Node6</title>
<g id="a_edge55_Node000019_Node000006"><a xlink:title=" ">
<path fill="none" stroke="#63b8ff" d="M1139.8,-219.99C1235.16,-209.9 1378.88,-193.29 1387,-184 1408.27,-159.68 1379.32,-127.47 1355,-110 1255.88,-38.82 1206.83,-72.1 1086,-55 890.32,-27.31 653.48,-15.55 563.8,-11.87"/>
<polygon fill="#63b8ff" stroke="#63b8ff" points="563.74,-8.37 553.6,-11.46 563.46,-15.36 563.74,-8.37"/>
</a>
</g>
</g>
<!-- Node19&#45;&gt;Node10 -->
<g id="edge49_Node000019_Node000010" class="edge">
<title>Node19&#45;&gt;Node10</title>
<g id="a_edge49_Node000019_Node000010"><a xlink:title=" ">
<path fill="none" stroke="#63b8ff" d="M1056.11,-219.57C1055.77,-205.66 1052.92,-178.96 1037,-165 1029.37,-158.31 913.78,-141.35 834.63,-130.41"/>
<polygon fill="#63b8ff" stroke="#63b8ff" points="835.07,-126.93 824.69,-129.04 834.12,-133.87 835.07,-126.93"/>
</a>
</g>
</g>
<!-- Node19&#45;&gt;Node17 -->
<g id="edge51_Node000019_Node000017" class="edge">
<title>Node19&#45;&gt;Node17</title>
<g id="a_edge51_Node000019_Node000017"><a xlink:title=" ">
<path fill="none" stroke="#63b8ff" d="M1061.96,-219.74C1070.13,-206.54 1082.47,-181.33 1070,-165 1058.27,-149.64 1015.46,-138.31 976.65,-130.92"/>
<polygon fill="#63b8ff" stroke="#63b8ff" points="976.84,-127.4 966.37,-129.04 975.57,-134.28 976.84,-127.4"/>
</a>
</g>
</g>
<!-- Node20 -->
<g id="Node000020" class="node">
<title>Node20</title>
<g id="a_Node000020"><a xlink:href="ComponentData_8h.html" target="_top" xlink:title=" ">
<polygon fill="white" stroke="#666666" points="1266,-184 1122,-184 1122,-165 1266,-165 1266,-184"/>
<text text-anchor="middle" x="1194" y="-172" font-family="Helvetica,sans-Serif" font-size="10.00">models/ComponentData.h</text>
</a>
</g>
</g>
<!-- Node19&#45;&gt;Node20 -->
<g id="edge41_Node000019_Node000020" class="edge">
<title>Node19&#45;&gt;Node20</title>
<g id="a_edge41_Node000019_Node000020"><a xlink:title=" ">
<path fill="none" stroke="#63b8ff" d="M1078.17,-219.98C1100.77,-211.3 1136.06,-197.75 1161.75,-187.88"/>
<polygon fill="#63b8ff" stroke="#63b8ff" points="1163.34,-191.02 1171.42,-184.17 1160.83,-184.49 1163.34,-191.02"/>
</a>
</g>
</g>
<!-- Node21 -->
<g id="Node000021" class="node">
<title>Node21</title>
<g id="a_Node000021"><a xlink:title=" ">
<polygon fill="#e0e0e0" stroke="#999999" points="1346,-129 1254,-129 1254,-110 1346,-110 1346,-129"/>
<text text-anchor="middle" x="1300" y="-117" font-family="Helvetica,sans-Serif" font-size="10.00">QSharedPointer</text>
</a>
</g>
</g>
<!-- Node19&#45;&gt;Node21 -->
<g id="edge54_Node000019_Node000021" class="edge">
<title>Node19&#45;&gt;Node21</title>
<g id="a_edge54_Node000019_Node000021"><a xlink:title=" ">
<path fill="none" stroke="#63b8ff" d="M1138.48,-219.97C1191.55,-212.96 1254.34,-201.33 1275,-184 1288.18,-172.94 1294.45,-154 1297.41,-139.68"/>
<polygon fill="#63b8ff" stroke="#63b8ff" points="1300.93,-139.86 1299.14,-129.42 1294.03,-138.7 1300.93,-139.86"/>
</a>
</g>
</g>
<!-- Node22 -->
<g id="Node000022" class="node">
<title>Node22</title>
<g id="a_Node000022"><a xlink:title=" ">
<polygon fill="#e0e0e0" stroke="#999999" points="1378,-184 1322,-184 1322,-165 1378,-165 1378,-184"/>
<text text-anchor="middle" x="1350" y="-172" font-family="Helvetica,sans-Serif" font-size="10.00">QDebug</text>
</a>
</g>
</g>
<!-- Node19&#45;&gt;Node22 -->
<g id="edge52_Node000019_Node000022" class="edge">
<title>Node19&#45;&gt;Node22</title>
<g id="a_edge52_Node000019_Node000022"><a xlink:title=" ">
<path fill="none" stroke="#63b8ff" d="M1106.75,-219.92C1157.69,-211.22 1238.38,-197.19 1308,-184 1309.1,-183.79 1310.21,-183.58 1311.33,-183.36"/>
<polygon fill="#63b8ff" stroke="#63b8ff" points="1312.41,-186.72 1321.55,-181.36 1311.07,-179.85 1312.41,-186.72"/>
</a>
</g>
</g>
<!-- Node23 -->
<g id="Node000023" class="node">
<title>Node23</title>
<g id="a_Node000023"><a xlink:title=" ">
<polygon fill="#e0e0e0" stroke="#999999" points="1027.5,-184 936.5,-184 936.5,-165 1027.5,-165 1027.5,-184"/>
<text text-anchor="middle" x="982" y="-172" font-family="Helvetica,sans-Serif" font-size="10.00">QElapsedTimer</text>
</a>
</g>
</g>
<!-- Node19&#45;&gt;Node23 -->
<g id="edge53_Node000019_Node000023" class="edge">
<title>Node19&#45;&gt;Node23</title>
<g id="a_edge53_Node000019_Node000023"><a xlink:title=" ">
<path fill="none" stroke="#63b8ff" d="M1044.11,-219.98C1032.85,-211.92 1015.71,-199.65 1002.29,-190.03"/>
<polygon fill="#63b8ff" stroke="#63b8ff" points="1004.27,-187.15 994.11,-184.17 1000.2,-192.84 1004.27,-187.15"/>
</a>
</g>
</g>
<!-- Node20&#45;&gt;Node3 -->
<g id="edge43_Node000020_Node000003" class="edge">
<title>Node20&#45;&gt;Node3</title>
<g id="a_edge43_Node000020_Node000003"><a xlink:title=" ">
<path fill="none" stroke="#63b8ff" d="M1121.98,-168.9C991.69,-160.32 726.55,-141.61 686,-129 667.67,-123.3 623.52,-96.67 596.45,-79.75"/>
<polygon fill="#63b8ff" stroke="#63b8ff" points="597.99,-76.58 587.66,-74.23 594.26,-82.51 597.99,-76.58"/>
</a>
</g>
</g>
<!-- Node20&#45;&gt;Node5 -->
<g id="edge46_Node000020_Node000005" class="edge">
<title>Node20&#45;&gt;Node5</title>
<g id="a_edge46_Node000020_Node000005"><a xlink:title=" ">
<path fill="none" stroke="#63b8ff" d="M1194.7,-164.79C1195.95,-142.78 1195.9,-84.58 1164,-55 1134.64,-27.77 1022.58,-16.89 957.19,-12.79"/>
<polygon fill="#63b8ff" stroke="#63b8ff" points="957.3,-9.29 947.11,-12.18 956.89,-16.27 957.3,-9.29"/>
</a>
</g>
</g>
<!-- Node20&#45;&gt;Node6 -->
<g id="edge48_Node000020_Node000006" class="edge">
<title>Node20&#45;&gt;Node6</title>
<g id="a_edge48_Node000020_Node000006"><a xlink:title=" ">
<path fill="none" stroke="#63b8ff" d="M1187.33,-164.91C1169.07,-142.15 1115.59,-80.26 1055,-55 965.93,-17.87 668.25,-11.71 563.69,-10.7"/>
<polygon fill="#63b8ff" stroke="#63b8ff" points="563.64,-7.2 553.61,-10.61 563.58,-14.2 563.64,-7.2"/>
</a>
</g>
</g>
<!-- Node20&#45;&gt;Node10 -->
<g id="edge42_Node000020_Node000010" class="edge">
<title>Node20&#45;&gt;Node10</title>
<g id="a_edge42_Node000020_Node000010"><a xlink:title=" ">
<path fill="none" stroke="#63b8ff" d="M1124.43,-164.98C1045.8,-155.36 918.2,-139.74 837,-129.8"/>
<polygon fill="#63b8ff" stroke="#63b8ff" points="837.2,-126.3 826.85,-128.56 836.35,-133.25 837.2,-126.3"/>
</a>
</g>
</g>
<!-- Node20&#45;&gt;Node11 -->
<g id="edge45_Node000020_Node000011" class="edge">
<title>Node20&#45;&gt;Node11</title>
<g id="a_edge45_Node000020_Node000011"><a xlink:title=" ">
<path fill="none" stroke="#63b8ff" d="M1166.63,-164.95C1139.42,-156.33 1096.59,-142.42 1060,-129 1014.92,-112.47 963.44,-91.36 931.83,-78.13"/>
<polygon fill="#63b8ff" stroke="#63b8ff" points="932.87,-74.77 922.3,-74.12 930.16,-81.22 932.87,-74.77"/>
</a>
</g>
</g>
<!-- Node20&#45;&gt;Node17 -->
<g id="edge44_Node000020_Node000017" class="edge">
<title>Node20&#45;&gt;Node17</title>
<g id="a_edge44_Node000020_Node000017"><a xlink:title=" ">
<path fill="none" stroke="#63b8ff" d="M1147.89,-164.98C1097.72,-155.72 1017.49,-140.9 963.56,-130.94"/>
<polygon fill="#63b8ff" stroke="#63b8ff" points="963.94,-127.46 953.47,-129.08 962.67,-134.34 963.94,-127.46"/>
</a>
</g>
</g>
<!-- Node20&#45;&gt;Node21 -->
<g id="edge47_Node000020_Node000021" class="edge">
<title>Node20&#45;&gt;Node21</title>
<g id="a_edge47_Node000020_Node000021"><a xlink:title=" ">
<path fill="none" stroke="#63b8ff" d="M1211.03,-164.98C1227.93,-156.54 1254.06,-143.47 1273.64,-133.68"/>
<polygon fill="#63b8ff" stroke="#63b8ff" points="1275.28,-136.77 1282.66,-129.17 1272.15,-130.51 1275.28,-136.77"/>
</a>
</g>
</g>
</g>
</svg>
