<?xml version="1.0" encoding="UTF-8" standalone="no"?>
<!DOCTYPE svg PUBLIC "-//W3C//DTD SVG 1.1//EN"
 "http://www.w3.org/Graphics/SVG/1.1/DTD/svg11.dtd">
<!-- Generated by graphviz version 2.43.0 (0)
 -->
<!-- Title: workers/WriteWorker.cpp Pages: 1 -->
<svg width="2125pt" height="357pt"
 viewBox="0.00 0.00 2125.00 357.00" xmlns="http://www.w3.org/2000/svg" xmlns:xlink="http://www.w3.org/1999/xlink">
<g id="graph0" class="graph" transform="scale(1 1) rotate(0) translate(4 353)">
<title>workers/WriteWorker.cpp</title>
<!-- Node1 -->
<g id="Node000001" class="node">
<title>Node1</title>
<g id="a_Node000001"><a xlink:title=" ">
<polygon fill="#999999" stroke="#666666" points="1377.5,-349 1240.5,-349 1240.5,-330 1377.5,-330 1377.5,-349"/>
<text text-anchor="middle" x="1309" y="-337" font-family="Helvetica,sans-Serif" font-size="10.00">workers/WriteWorker.cpp</text>
</a>
</g>
</g>
<!-- Node2 -->
<g id="Node000002" class="node">
<title>Node2</title>
<g id="a_Node000002"><a xlink:href="WriteWorker_8h.html" target="_top" xlink:title=" ">
<polygon fill="white" stroke="#666666" points="978.5,-294 893.5,-294 893.5,-275 978.5,-275 978.5,-294"/>
<text text-anchor="middle" x="936" y="-282" font-family="Helvetica,sans-Serif" font-size="10.00">WriteWorker.h</text>
</a>
</g>
</g>
<!-- Node1&#45;&gt;Node2 -->
<g id="edge1_Node000001_Node000002" class="edge">
<title>Node1&#45;&gt;Node2</title>
<g id="a_edge1_Node000001_Node000002"><a xlink:title=" ">
<path fill="none" stroke="#63b8ff" d="M1249.07,-329.98C1177.09,-319.76 1057.47,-302.76 988.81,-293"/>
<polygon fill="#63b8ff" stroke="#63b8ff" points="989.04,-289.5 978.65,-291.56 988.06,-296.43 989.04,-289.5"/>
</a>
</g>
</g>
<!-- Node3 -->
<g id="Node000003" class="node">
<title>Node3</title>
<g id="a_Node000003"><a xlink:href="Exporter3DModel_8h.html" target="_top" xlink:title=" ">
<polygon fill="white" stroke="#666666" points="578,-239 414,-239 414,-220 578,-220 578,-239"/>
<text text-anchor="middle" x="496" y="-227" font-family="Helvetica,sans-Serif" font-size="10.00">core/kicad/Exporter3DModel.h</text>
</a>
</g>
</g>
<!-- Node1&#45;&gt;Node3 -->
<g id="edge60_Node000001_Node000003" class="edge">
<title>Node1&#45;&gt;Node3</title>
<g id="a_edge60_Node000001_Node000003"><a xlink:title=" ">
<path fill="none" stroke="#63b8ff" d="M1240.37,-334.91C1143.27,-329.27 960.41,-316.57 806,-294 710.93,-280.1 601.09,-255.56 541.02,-241.4"/>
<polygon fill="#63b8ff" stroke="#63b8ff" points="541.64,-237.95 531.1,-239.05 540.03,-244.76 541.64,-237.95"/>
</a>
</g>
</g>
<!-- Node6 -->
<g id="Node000006" class="node">
<title>Node6</title>
<g id="a_Node000006"><a xlink:title=" ">
<polygon fill="#e0e0e0" stroke="#999999" points="496,-19 420,-19 420,0 496,0 496,-19"/>
<text text-anchor="middle" x="458" y="-7" font-family="Helvetica,sans-Serif" font-size="10.00">QJsonObject</text>
</a>
</g>
</g>
<!-- Node1&#45;&gt;Node6 -->
<g id="edge77_Node000001_Node000006" class="edge">
<title>Node1&#45;&gt;Node6</title>
<g id="a_edge77_Node000001_Node000006"><a xlink:title=" ">
<path fill="none" stroke="#63b8ff" d="M1240.47,-336.47C971.13,-328.05 0,-293.35 0,-230.5 0,-230.5 0,-230.5 0,-118.5 0,-35.04 291.78,-16 409.56,-11.72"/>
<polygon fill="#63b8ff" stroke="#63b8ff" points="409.86,-15.21 419.74,-11.37 409.62,-8.22 409.86,-15.21"/>
</a>
</g>
</g>
<!-- Node9 -->
<g id="Node000009" class="node">
<title>Node9</title>
<g id="a_Node000009"><a xlink:href="ExporterFootprint_8h.html" target="_top" xlink:title=" ">
<polygon fill="white" stroke="#666666" points="760,-239 596,-239 596,-220 760,-220 760,-239"/>
<text text-anchor="middle" x="678" y="-227" font-family="Helvetica,sans-Serif" font-size="10.00">core/kicad/ExporterFootprint.h</text>
</a>
</g>
</g>
<!-- Node1&#45;&gt;Node9 -->
<g id="edge61_Node000001_Node000009" class="edge">
<title>Node1&#45;&gt;Node9</title>
<g id="a_edge61_Node000001_Node000009"><a xlink:title=" ">
<path fill="none" stroke="#63b8ff" d="M1240.29,-335.42C1155.73,-330.7 1008.11,-319.37 884,-294 821.13,-281.15 750.06,-257.02 709.98,-242.49"/>
<polygon fill="#63b8ff" stroke="#63b8ff" points="711.08,-239.17 700.49,-239.02 708.68,-245.74 711.08,-239.17"/>
</a>
</g>
</g>
<!-- Node16 -->
<g id="Node000016" class="node">
<title>Node16</title>
<g id="a_Node000016"><a xlink:href="ExporterSymbol_8h.html" target="_top" xlink:title=" ">
<polygon fill="white" stroke="#666666" points="1061.5,-239 904.5,-239 904.5,-220 1061.5,-220 1061.5,-239"/>
<text text-anchor="middle" x="983" y="-227" font-family="Helvetica,sans-Serif" font-size="10.00">core/kicad/ExporterSymbol.h</text>
</a>
</g>
</g>
<!-- Node1&#45;&gt;Node16 -->
<g id="edge62_Node000001_Node000016" class="edge">
<title>Node1&#45;&gt;Node16</title>
<g id="a_edge62_Node000001_Node000016"><a xlink:title=" ">
<path fill="none" stroke="#63b8ff" d="M1283.15,-329.94C1225.13,-310.72 1084.51,-264.13 1018.42,-242.24"/>
<polygon fill="#63b8ff" stroke="#63b8ff" points="1019.45,-238.89 1008.86,-239.07 1017.25,-245.53 1019.45,-238.89"/>
</a>
</g>
</g>
<!-- Node23 -->
<g id="Node000023" class="node">
<title>Node23</title>
<g id="a_Node000023"><a xlink:title=" ">
<polygon fill="#e0e0e0" stroke="#999999" points="1830,-184 1774,-184 1774,-165 1830,-165 1830,-184"/>
<text text-anchor="middle" x="1802" y="-172" font-family="Helvetica,sans-Serif" font-size="10.00">QDebug</text>
</a>
</g>
</g>
<!-- Node1&#45;&gt;Node23 -->
<g id="edge73_Node000001_Node000023" class="edge">
<title>Node1&#45;&gt;Node23</title>
<g id="a_edge73_Node000001_Node000023"><a xlink:title=" ">
<path fill="none" stroke="#63b8ff" d="M1310.6,-329.76C1313.2,-317.02 1319.2,-292.89 1330,-275 1347.54,-245.94 1352.42,-234.73 1383,-220 1457.19,-184.26 1665.88,-196.64 1763.82,-183.84"/>
<polygon fill="#63b8ff" stroke="#63b8ff" points="1764.4,-187.29 1773.79,-182.38 1763.39,-180.37 1764.4,-187.29"/>
</a>
</g>
</g>
<!-- Node25 -->
<g id="Node000025" class="node">
<title>Node25</title>
<g id="a_Node000025"><a xlink:title=" ">
<polygon fill="#e0e0e0" stroke="#999999" points="1335.5,-239 1280.5,-239 1280.5,-220 1335.5,-220 1335.5,-239"/>
<text text-anchor="middle" x="1308" y="-227" font-family="Helvetica,sans-Serif" font-size="10.00">QMutex</text>
</a>
</g>
</g>
<!-- Node1&#45;&gt;Node25 -->
<g id="edge78_Node000001_Node000025" class="edge">
<title>Node1&#45;&gt;Node25</title>
<g id="a_edge78_Node000001_Node000025"><a xlink:title=" ">
<path fill="none" stroke="#63b8ff" d="M1299.98,-329.96C1291.93,-321.66 1280.71,-308.25 1276,-294 1270.46,-277.24 1281.1,-259.39 1291.56,-246.9"/>
<polygon fill="#63b8ff" stroke="#63b8ff" points="1294.44,-248.94 1298.58,-239.18 1289.26,-244.22 1294.44,-248.94"/>
</a>
</g>
</g>
<!-- Node27 -->
<g id="Node000027" class="node">
<title>Node27</title>
<g id="a_Node000027"><a xlink:href="FootprintDataSerializer_8h.html" target="_top" xlink:title=" ">
<polygon fill="white" stroke="#666666" points="242,-184 66,-184 66,-165 242,-165 242,-184"/>
<text text-anchor="middle" x="154" y="-172" font-family="Helvetica,sans-Serif" font-size="10.00">models/FootprintDataSerializer.h</text>
</a>
</g>
</g>
<!-- Node1&#45;&gt;Node27 -->
<g id="edge63_Node000001_Node000027" class="edge">
<title>Node1&#45;&gt;Node27</title>
<g id="a_edge63_Node000001_Node000027"><a xlink:title=" ">
<path fill="none" stroke="#63b8ff" d="M1240.39,-337.73C1065.56,-335.3 606.7,-326 458,-294 350.31,-270.83 230.81,-214.48 179.58,-188.73"/>
<polygon fill="#63b8ff" stroke="#63b8ff" points="181.05,-185.55 170.55,-184.15 177.89,-191.8 181.05,-185.55"/>
</a>
</g>
</g>
<!-- Node28 -->
<g id="Node000028" class="node">
<title>Node28</title>
<g id="a_Node000028"><a xlink:href="SymbolDataSerializer_8h.html" target="_top" xlink:title=" ">
<polygon fill="white" stroke="#666666" points="468,-184 298,-184 298,-165 468,-165 468,-184"/>
<text text-anchor="middle" x="383" y="-172" font-family="Helvetica,sans-Serif" font-size="10.00">models/SymbolDataSerializer.h</text>
</a>
</g>
</g>
<!-- Node1&#45;&gt;Node28 -->
<g id="edge66_Node000001_Node000028" class="edge">
<title>Node1&#45;&gt;Node28</title>
<g id="a_edge66_Node000001_Node000028"><a xlink:title=" ">
<path fill="none" stroke="#63b8ff" d="M1240.25,-335.97C1127.18,-331.26 895.03,-319.23 700,-294 567.73,-276.89 506.07,-326.02 405,-239 392.16,-227.95 386.81,-209.01 384.58,-194.68"/>
<polygon fill="#63b8ff" stroke="#63b8ff" points="388.02,-193.95 383.38,-184.42 381.07,-194.76 388.02,-193.95"/>
</a>
</g>
</g>
<!-- Node29 -->
<g id="Node000029" class="node">
<title>Node29</title>
<g id="a_Node000029"><a xlink:href="PathSecurity_8h.html" target="_top" xlink:title=" ">
<polygon fill="white" stroke="#666666" points="1465.5,-294 1356.5,-294 1356.5,-275 1465.5,-275 1465.5,-294"/>
<text text-anchor="middle" x="1411" y="-282" font-family="Helvetica,sans-Serif" font-size="10.00">utils/PathSecurity.h</text>
</a>
</g>
</g>
<!-- Node1&#45;&gt;Node29 -->
<g id="edge69_Node000001_Node000029" class="edge">
<title>Node1&#45;&gt;Node29</title>
<g id="a_edge69_Node000001_Node000029"><a xlink:title=" ">
<path fill="none" stroke="#63b8ff" d="M1325.39,-329.98C1341.57,-321.57 1366.57,-308.59 1385.38,-298.81"/>
<polygon fill="#63b8ff" stroke="#63b8ff" points="1387.05,-301.89 1394.31,-294.17 1383.83,-295.68 1387.05,-301.89"/>
</a>
</g>
</g>
<!-- Node30 -->
<g id="Node000030" class="node">
<title>Node30</title>
<g id="a_Node000030"><a xlink:title=" ">
<polygon fill="#e0e0e0" stroke="#999999" points="1430,-239 1392,-239 1392,-220 1430,-220 1430,-239"/>
<text text-anchor="middle" x="1411" y="-227" font-family="Helvetica,sans-Serif" font-size="10.00">QDir</text>
</a>
</g>
</g>
<!-- Node1&#45;&gt;Node30 -->
<g id="edge74_Node000001_Node000030" class="edge">
<title>Node1&#45;&gt;Node30</title>
<g id="a_edge74_Node000001_Node000030"><a xlink:title=" ">
<path fill="none" stroke="#63b8ff" d="M1312.85,-329.96C1318.98,-317.02 1331.89,-292.18 1348,-275 1359.28,-262.97 1374.28,-252.22 1386.81,-244.3"/>
<polygon fill="#63b8ff" stroke="#63b8ff" points="1388.7,-247.25 1395.42,-239.06 1385.06,-241.27 1388.7,-247.25"/>
</a>
</g>
</g>
<!-- Node31 -->
<g id="Node000031" class="node">
<title>Node31</title>
<g id="a_Node000031"><a xlink:title=" ">
<polygon fill="#e0e0e0" stroke="#999999" points="1556,-294 1484,-294 1484,-275 1556,-275 1556,-294"/>
<text text-anchor="middle" x="1520" y="-282" font-family="Helvetica,sans-Serif" font-size="10.00">QDateTime</text>
</a>
</g>
</g>
<!-- Node1&#45;&gt;Node31 -->
<g id="edge72_Node000001_Node000031" class="edge">
<title>Node1&#45;&gt;Node31</title>
<g id="a_edge72_Node000001_Node000031"><a xlink:title=" ">
<path fill="none" stroke="#63b8ff" d="M1342.9,-329.98C1379.02,-320.91 1436.32,-306.52 1475.92,-296.57"/>
<polygon fill="#63b8ff" stroke="#63b8ff" points="1476.99,-299.91 1485.83,-294.08 1475.28,-293.12 1476.99,-299.91"/>
</a>
</g>
</g>
<!-- Node32 -->
<g id="Node000032" class="node">
<title>Node32</title>
<g id="a_Node000032"><a xlink:title=" ">
<polygon fill="#e0e0e0" stroke="#999999" points="1615.5,-294 1574.5,-294 1574.5,-275 1615.5,-275 1615.5,-294"/>
<text text-anchor="middle" x="1595" y="-282" font-family="Helvetica,sans-Serif" font-size="10.00">QFile</text>
</a>
</g>
</g>
<!-- Node1&#45;&gt;Node32 -->
<g id="edge75_Node000001_Node000032" class="edge">
<title>Node1&#45;&gt;Node32</title>
<g id="a_edge75_Node000001_Node000032"><a xlink:title=" ">
<path fill="none" stroke="#63b8ff" d="M1368.32,-329.98C1418.19,-322.41 1491.51,-310.33 1564.58,-293.88"/>
<polygon fill="#63b8ff" stroke="#63b8ff" points="1565.44,-297.27 1574.42,-291.64 1563.89,-290.45 1565.44,-297.27"/>
</a>
</g>
</g>
<!-- Node33 -->
<g id="Node000033" class="node">
<title>Node33</title>
<g id="a_Node000033"><a xlink:title=" ">
<polygon fill="#e0e0e0" stroke="#999999" points="1728.5,-294 1633.5,-294 1633.5,-275 1728.5,-275 1728.5,-294"/>
<text text-anchor="middle" x="1681" y="-282" font-family="Helvetica,sans-Serif" font-size="10.00">QJsonDocument</text>
</a>
</g>
</g>
<!-- Node1&#45;&gt;Node33 -->
<g id="edge76_Node000001_Node000033" class="edge">
<title>Node1&#45;&gt;Node33</title>
<g id="a_edge76_Node000001_Node000033"><a xlink:title=" ">
<path fill="none" stroke="#63b8ff" d="M1370.79,-330C1432.33,-321.49 1529.8,-307.88 1623.42,-294.22"/>
<polygon fill="#63b8ff" stroke="#63b8ff" points="1623.96,-297.68 1633.35,-292.77 1622.95,-290.75 1623.96,-297.68"/>
</a>
</g>
</g>
<!-- Node34 -->
<g id="Node000034" class="node">
<title>Node34</title>
<g id="a_Node000034"><a xlink:title=" ">
<polygon fill="#e0e0e0" stroke="#999999" points="1833,-294 1747,-294 1747,-275 1833,-275 1833,-294"/>
<text text-anchor="middle" x="1790" y="-282" font-family="Helvetica,sans-Serif" font-size="10.00">QMutexLocker</text>
</a>
</g>
</g>
<!-- Node1&#45;&gt;Node34 -->
<g id="edge79_Node000001_Node000034" class="edge">
<title>Node1&#45;&gt;Node34</title>
<g id="a_edge79_Node000001_Node000034"><a xlink:title=" ">
<path fill="none" stroke="#63b8ff" d="M1377.5,-332.64C1460.24,-325.29 1603.86,-311.63 1736.93,-294.07"/>
<polygon fill="#63b8ff" stroke="#63b8ff" points="1737.45,-297.53 1746.9,-292.75 1736.52,-290.59 1737.45,-297.53"/>
</a>
</g>
</g>
<!-- Node35 -->
<g id="Node000035" class="node">
<title>Node35</title>
<g id="a_Node000035"><a xlink:title=" ">
<polygon fill="#e0e0e0" stroke="#999999" points="1909,-294 1851,-294 1851,-275 1909,-275 1909,-294"/>
<text text-anchor="middle" x="1880" y="-282" font-family="Helvetica,sans-Serif" font-size="10.00">QThread</text>
</a>
</g>
</g>
<!-- Node1&#45;&gt;Node35 -->
<g id="edge80_Node000001_Node000035" class="edge">
<title>Node1&#45;&gt;Node35</title>
<g id="a_edge80_Node000001_Node000035"><a xlink:title=" ">
<path fill="none" stroke="#63b8ff" d="M1377.5,-335.78C1477.36,-331.15 1668.85,-319.77 1840.64,-294.01"/>
<polygon fill="#63b8ff" stroke="#63b8ff" points="1841.26,-297.45 1850.62,-292.49 1840.2,-290.53 1841.26,-297.45"/>
</a>
</g>
</g>
<!-- Node36 -->
<g id="Node000036" class="node">
<title>Node36</title>
<g id="a_Node000036"><a xlink:title=" ">
<polygon fill="#e0e0e0" stroke="#999999" points="2006.5,-294 1927.5,-294 1927.5,-275 2006.5,-275 2006.5,-294"/>
<text text-anchor="middle" x="1967" y="-282" font-family="Helvetica,sans-Serif" font-size="10.00">QThreadPool</text>
</a>
</g>
</g>
<!-- Node1&#45;&gt;Node36 -->
<g id="edge81_Node000001_Node000036" class="edge">
<title>Node1&#45;&gt;Node36</title>
<g id="a_edge81_Node000001_Node000036"><a xlink:title=" ">
<path fill="none" stroke="#63b8ff" d="M1377.71,-335.69C1488.86,-330.67 1715.15,-318.42 1917.25,-293.95"/>
<polygon fill="#63b8ff" stroke="#63b8ff" points="1917.97,-297.39 1927.47,-292.7 1917.12,-290.44 1917.97,-297.39"/>
</a>
</g>
</g>
<!-- Node37 -->
<g id="Node000037" class="node">
<title>Node37</title>
<g id="a_Node000037"><a xlink:title=" ">
<polygon fill="#e0e0e0" stroke="#999999" points="2117,-294 2025,-294 2025,-275 2117,-275 2117,-294"/>
<text text-anchor="middle" x="2071" y="-282" font-family="Helvetica,sans-Serif" font-size="10.00">QWaitCondition</text>
</a>
</g>
</g>
<!-- Node1&#45;&gt;Node37 -->
<g id="edge82_Node000001_Node000037" class="edge">
<title>Node1&#45;&gt;Node37</title>
<g id="a_edge82_Node000001_Node000037"><a xlink:title=" ">
<path fill="none" stroke="#63b8ff" d="M1377.92,-336.23C1502.85,-331.67 1775.2,-319.64 2014.88,-294.02"/>
<polygon fill="#63b8ff" stroke="#63b8ff" points="2015.26,-297.5 2024.83,-292.95 2014.51,-290.54 2015.26,-297.5"/>
</a>
</g>
</g>
<!-- Node2&#45;&gt;Node3 -->
<g id="edge2_Node000002_Node000003" class="edge">
<title>Node2&#45;&gt;Node3</title>
<g id="a_edge2_Node000002_Node000003"><a xlink:title=" ">
<path fill="none" stroke="#63b8ff" d="M893.41,-278.37C820.37,-269.57 670.08,-251.47 576.69,-240.22"/>
<polygon fill="#63b8ff" stroke="#63b8ff" points="577.07,-236.74 566.72,-239.02 576.23,-243.69 577.07,-236.74"/>
</a>
</g>
</g>
<!-- Node8 -->
<g id="Node000008" class="node">
<title>Node8</title>
<g id="a_Node000008"><a xlink:title=" ">
<polygon fill="#e0e0e0" stroke="#999999" points="694,-184 638,-184 638,-165 694,-165 694,-184"/>
<text text-anchor="middle" x="666" y="-172" font-family="Helvetica,sans-Serif" font-size="10.00">QObject</text>
</a>
</g>
</g>
<!-- Node2&#45;&gt;Node8 -->
<g id="edge58_Node000002_Node000008" class="edge">
<title>Node2&#45;&gt;Node8</title>
<g id="a_edge58_Node000002_Node000008"><a xlink:title=" ">
<path fill="none" stroke="#63b8ff" d="M907.92,-274.99C881.52,-266.71 841.07,-253.32 807,-239 789.59,-231.68 786.12,-227.97 769,-220 744.72,-208.7 716.81,-196.7 696.17,-188.01"/>
<polygon fill="#63b8ff" stroke="#63b8ff" points="697.25,-184.67 686.67,-184.03 694.54,-191.12 697.25,-184.67"/>
</a>
</g>
</g>
<!-- Node2&#45;&gt;Node9 -->
<g id="edge10_Node000002_Node000009" class="edge">
<title>Node2&#45;&gt;Node9</title>
<g id="a_edge10_Node000002_Node000009"><a xlink:title=" ">
<path fill="none" stroke="#63b8ff" d="M894.55,-274.98C849.73,-265.78 778.23,-251.09 729.75,-241.13"/>
<polygon fill="#63b8ff" stroke="#63b8ff" points="730.28,-237.67 719.78,-239.08 728.87,-244.52 730.28,-237.67"/>
</a>
</g>
</g>
<!-- Node2&#45;&gt;Node16 -->
<g id="edge26_Node000002_Node000016" class="edge">
<title>Node2&#45;&gt;Node16</title>
<g id="a_edge26_Node000002_Node000016"><a xlink:title=" ">
<path fill="none" stroke="#63b8ff" d="M943.76,-274.75C950.47,-267.18 960.34,-256.05 968.51,-246.84"/>
<polygon fill="#63b8ff" stroke="#63b8ff" points="971.37,-248.89 975.38,-239.09 966.13,-244.25 971.37,-248.89"/>
</a>
</g>
</g>
<!-- Node20 -->
<g id="Node000020" class="node">
<title>Node20</title>
<g id="a_Node000020"><a xlink:href="ComponentExportStatus_8h.html" target="_top" xlink:title=" ">
<polygon fill="white" stroke="#666666" points="1262.5,-239 1079.5,-239 1079.5,-220 1262.5,-220 1262.5,-239"/>
<text text-anchor="middle" x="1171" y="-227" font-family="Helvetica,sans-Serif" font-size="10.00">models/ComponentExportStatus.h</text>
</a>
</g>
</g>
<!-- Node2&#45;&gt;Node20 -->
<g id="edge41_Node000002_Node000020" class="edge">
<title>Node2&#45;&gt;Node20</title>
<g id="a_edge41_Node000002_Node000020"><a xlink:title=" ">
<path fill="none" stroke="#63b8ff" d="M973.76,-274.98C1014.32,-265.84 1078.89,-251.27 1123.03,-241.32"/>
<polygon fill="#63b8ff" stroke="#63b8ff" points="1123.96,-244.7 1132.95,-239.08 1122.42,-237.87 1123.96,-244.7"/>
</a>
</g>
</g>
<!-- Node2&#45;&gt;Node25 -->
<g id="edge57_Node000002_Node000025" class="edge">
<title>Node2&#45;&gt;Node25</title>
<g id="a_edge57_Node000002_Node000025"><a xlink:title=" ">
<path fill="none" stroke="#63b8ff" d="M978.65,-279.24C1040.78,-272.72 1160,-259.08 1270.2,-239.19"/>
<polygon fill="#63b8ff" stroke="#63b8ff" points="1270.94,-242.61 1280.15,-237.37 1269.68,-235.72 1270.94,-242.61"/>
</a>
</g>
</g>
<!-- Node26 -->
<g id="Node000026" class="node">
<title>Node26</title>
<g id="a_Node000026"><a xlink:title=" ">
<polygon fill="#e0e0e0" stroke="#999999" points="886,-239 816,-239 816,-220 886,-220 886,-239"/>
<text text-anchor="middle" x="851" y="-227" font-family="Helvetica,sans-Serif" font-size="10.00">QRunnable</text>
</a>
</g>
</g>
<!-- Node2&#45;&gt;Node26 -->
<g id="edge59_Node000002_Node000026" class="edge">
<title>Node2&#45;&gt;Node26</title>
<g id="a_edge59_Node000002_Node000026"><a xlink:title=" ">
<path fill="none" stroke="#63b8ff" d="M922.34,-274.98C909.16,-266.77 888.97,-254.18 873.43,-244.49"/>
<polygon fill="#63b8ff" stroke="#63b8ff" points="875.24,-241.49 864.91,-239.17 871.54,-247.43 875.24,-241.49"/>
</a>
</g>
</g>
<!-- Node4 -->
<g id="Node000004" class="node">
<title>Node4</title>
<g id="a_Node000004"><a xlink:href="Model3DData_8h.html" target="_top" xlink:title=" ">
<polygon fill="white" stroke="#666666" points="638.5,-74 507.5,-74 507.5,-55 638.5,-55 638.5,-74"/>
<text text-anchor="middle" x="573" y="-62" font-family="Helvetica,sans-Serif" font-size="10.00">models/Model3DData.h</text>
</a>
</g>
</g>
<!-- Node3&#45;&gt;Node4 -->
<g id="edge3_Node000003_Node000004" class="edge">
<title>Node3&#45;&gt;Node4</title>
<g id="a_edge3_Node000003_Node000004"><a xlink:title=" ">
<path fill="none" stroke="#63b8ff" d="M495.86,-219.77C495.92,-199.16 498.34,-146.45 520,-110 527.19,-97.9 538.91,-87.55 549.49,-79.89"/>
<polygon fill="#63b8ff" stroke="#63b8ff" points="551.7,-82.62 558,-74.1 547.76,-76.83 551.7,-82.62"/>
</a>
</g>
</g>
<!-- Node5 -->
<g id="Node000005" class="node">
<title>Node5</title>
<g id="a_Node000005"><a xlink:title=" ">
<polygon fill="#e0e0e0" stroke="#999999" points="238.5,-19 165.5,-19 165.5,0 238.5,0 238.5,-19"/>
<text text-anchor="middle" x="202" y="-7" font-family="Helvetica,sans-Serif" font-size="10.00">QByteArray</text>
</a>
</g>
</g>
<!-- Node3&#45;&gt;Node5 -->
<g id="edge7_Node000003_Node000005" class="edge">
<title>Node3&#45;&gt;Node5</title>
<g id="a_edge7_Node000003_Node000005"><a xlink:title=" ">
<path fill="none" stroke="#63b8ff" d="M413.52,-226C292.98,-221.47 80.4,-209.9 57,-184 4.61,-126.03 121.35,-53.32 175.89,-23.83"/>
<polygon fill="#63b8ff" stroke="#63b8ff" points="177.79,-26.78 184.99,-19 174.51,-20.6 177.79,-26.78"/>
</a>
</g>
</g>
<!-- Node7 -->
<g id="Node000007" class="node">
<title>Node7</title>
<g id="a_Node000007"><a xlink:title=" ">
<polygon fill="#e0e0e0" stroke="#999999" points="1367.5,-19 1314.5,-19 1314.5,0 1367.5,0 1367.5,-19"/>
<text text-anchor="middle" x="1341" y="-7" font-family="Helvetica,sans-Serif" font-size="10.00">QString</text>
</a>
</g>
</g>
<!-- Node3&#45;&gt;Node7 -->
<g id="edge9_Node000003_Node000007" class="edge">
<title>Node3&#45;&gt;Node7</title>
<g id="a_edge9_Node000003_Node000007"><a xlink:title=" ">
<path fill="none" stroke="#63b8ff" d="M506.68,-219.96C544.03,-190.64 673.29,-93.8 798,-55 892.85,-25.49 1197.58,-14.45 1303.95,-11.43"/>
<polygon fill="#63b8ff" stroke="#63b8ff" points="1304.29,-14.93 1314.19,-11.15 1304.09,-7.93 1304.29,-14.93"/>
</a>
</g>
</g>
<!-- Node3&#45;&gt;Node8 -->
<g id="edge8_Node000003_Node000008" class="edge">
<title>Node3&#45;&gt;Node8</title>
<g id="a_edge8_Node000003_Node000008"><a xlink:title=" ">
<path fill="none" stroke="#63b8ff" d="M523.31,-219.98C551.85,-211.09 596.83,-197.07 628.64,-187.15"/>
<polygon fill="#63b8ff" stroke="#63b8ff" points="629.97,-190.4 638.47,-184.08 627.88,-183.72 629.97,-190.4"/>
</a>
</g>
</g>
<!-- Node4&#45;&gt;Node5 -->
<g id="edge4_Node000004_Node000005" class="edge">
<title>Node4&#45;&gt;Node5</title>
<g id="a_edge4_Node000004_Node000005"><a xlink:title=" ">
<path fill="none" stroke="#63b8ff" d="M513.39,-54.98C439.8,-44.47 316.16,-26.81 248.95,-17.21"/>
<polygon fill="#63b8ff" stroke="#63b8ff" points="249.05,-13.69 238.66,-15.74 248.06,-20.62 249.05,-13.69"/>
</a>
</g>
</g>
<!-- Node4&#45;&gt;Node6 -->
<g id="edge5_Node000004_Node000006" class="edge">
<title>Node4&#45;&gt;Node6</title>
<g id="a_edge5_Node000004_Node000006"><a xlink:title=" ">
<path fill="none" stroke="#63b8ff" d="M554.52,-54.98C536.02,-46.46 507.32,-33.23 486.02,-23.41"/>
<polygon fill="#63b8ff" stroke="#63b8ff" points="487.36,-20.18 476.81,-19.17 484.43,-26.53 487.36,-20.18"/>
</a>
</g>
</g>
<!-- Node4&#45;&gt;Node7 -->
<g id="edge6_Node000004_Node000007" class="edge">
<title>Node4&#45;&gt;Node7</title>
<g id="a_edge6_Node000004_Node000007"><a xlink:title=" ">
<path fill="none" stroke="#63b8ff" d="M638.78,-58.77C656.09,-57.53 674.75,-56.21 692,-55 925.17,-38.68 1205.5,-19.66 1304.34,-12.98"/>
<polygon fill="#63b8ff" stroke="#63b8ff" points="1304.67,-16.46 1314.42,-12.3 1304.2,-9.48 1304.67,-16.46"/>
</a>
</g>
</g>
<!-- Node9&#45;&gt;Node4 -->
<g id="edge21_Node000009_Node000004" class="edge">
<title>Node9&#45;&gt;Node4</title>
<g id="a_edge21_Node000009_Node000004"><a xlink:title=" ">
<path fill="none" stroke="#63b8ff" d="M663.11,-219.98C650.43,-212.06 632.49,-199.23 621,-184 597.46,-152.81 583.6,-108.48 577.23,-83.83"/>
<polygon fill="#63b8ff" stroke="#63b8ff" points="580.61,-82.89 574.83,-74.01 573.81,-84.55 580.61,-82.89"/>
</a>
</g>
</g>
<!-- Node9&#45;&gt;Node6 -->
<g id="edge22_Node000009_Node000006" class="edge">
<title>Node9&#45;&gt;Node6</title>
<g id="a_edge22_Node000009_Node000006"><a xlink:title=" ">
<path fill="none" stroke="#63b8ff" d="M595.91,-220.48C483.28,-209.28 294.08,-189.69 289,-184 233.33,-121.6 366.13,-51.45 428.18,-23.25"/>
<polygon fill="#63b8ff" stroke="#63b8ff" points="429.79,-26.36 437.49,-19.09 426.94,-19.97 429.79,-26.36"/>
</a>
</g>
</g>
<!-- Node9&#45;&gt;Node7 -->
<g id="edge24_Node000009_Node000007" class="edge">
<title>Node9&#45;&gt;Node7</title>
<g id="a_edge24_Node000009_Node000007"><a xlink:title=" ">
<path fill="none" stroke="#63b8ff" d="M760.23,-222.94C775.76,-221.93 791.88,-220.91 807,-220 843.54,-217.8 1439.83,-210.59 1465,-184 1515.7,-130.45 1412.46,-55.21 1364.12,-24.44"/>
<polygon fill="#63b8ff" stroke="#63b8ff" points="1365.85,-21.39 1355.51,-19.06 1362.14,-27.33 1365.85,-21.39"/>
</a>
</g>
</g>
<!-- Node9&#45;&gt;Node8 -->
<g id="edge23_Node000009_Node000008" class="edge">
<title>Node9&#45;&gt;Node8</title>
<g id="a_edge23_Node000009_Node000008"><a xlink:title=" ">
<path fill="none" stroke="#63b8ff" d="M676.02,-219.75C674.43,-212.72 672.14,-202.62 670.15,-193.84"/>
<polygon fill="#63b8ff" stroke="#63b8ff" points="673.57,-193.07 667.94,-184.09 666.74,-194.62 673.57,-193.07"/>
</a>
</g>
</g>
<!-- Node10 -->
<g id="Node000010" class="node">
<title>Node10</title>
<g id="a_Node000010"><a xlink:href="FootprintGraphicsGenerator_8h.html" target="_top" xlink:title=" ">
<polygon fill="white" stroke="#666666" points="1246,-184 1086,-184 1086,-165 1246,-165 1246,-184"/>
<text text-anchor="middle" x="1166" y="-172" font-family="Helvetica,sans-Serif" font-size="10.00">FootprintGraphicsGenerator.h</text>
</a>
</g>
</g>
<!-- Node9&#45;&gt;Node10 -->
<g id="edge11_Node000009_Node000010" class="edge">
<title>Node9&#45;&gt;Node10</title>
<g id="a_edge11_Node000009_Node000010"><a xlink:title=" ">
<path fill="none" stroke="#63b8ff" d="M756.41,-219.98C844.05,-210.47 985.67,-195.08 1077.3,-185.13"/>
<polygon fill="#63b8ff" stroke="#63b8ff" points="1077.82,-188.6 1087.38,-184.04 1077.07,-181.64 1077.82,-188.6"/>
</a>
</g>
</g>
<!-- Node11 -->
<g id="Node000011" class="node">
<title>Node11</title>
<g id="a_Node000011"><a xlink:href="FootprintData_8h.html" target="_top" xlink:title=" ">
<polygon fill="white" stroke="#666666" points="916.5,-129 785.5,-129 785.5,-110 916.5,-110 916.5,-129"/>
<text text-anchor="middle" x="851" y="-117" font-family="Helvetica,sans-Serif" font-size="10.00">models/FootprintData.h</text>
</a>
</g>
</g>
<!-- Node9&#45;&gt;Node11 -->
<g id="edge20_Node000009_Node000011" class="edge">
<title>Node9&#45;&gt;Node11</title>
<g id="a_edge20_Node000009_Node000011"><a xlink:title=" ">
<path fill="none" stroke="#63b8ff" d="M663.08,-219.95C643.45,-207.64 613.2,-184.28 629,-165 647.39,-142.56 718.4,-131.2 775.23,-125.61"/>
<polygon fill="#63b8ff" stroke="#63b8ff" points="775.67,-129.08 785.29,-124.66 775.01,-122.11 775.67,-129.08"/>
</a>
</g>
</g>
<!-- Node15 -->
<g id="Node000015" class="node">
<title>Node15</title>
<g id="a_Node000015"><a xlink:title=" ">
<polygon fill="#e0e0e0" stroke="#999999" points="792,-184 712,-184 712,-165 792,-165 792,-184"/>
<text text-anchor="middle" x="752" y="-172" font-family="Helvetica,sans-Serif" font-size="10.00">QTextStream</text>
</a>
</g>
</g>
<!-- Node9&#45;&gt;Node15 -->
<g id="edge25_Node000009_Node000015" class="edge">
<title>Node9&#45;&gt;Node15</title>
<g id="a_edge25_Node000009_Node000015"><a xlink:title=" ">
<path fill="none" stroke="#63b8ff" d="M689.89,-219.98C701.15,-211.92 718.29,-199.65 731.71,-190.03"/>
<polygon fill="#63b8ff" stroke="#63b8ff" points="733.8,-192.84 739.89,-184.17 729.73,-187.15 733.8,-192.84"/>
</a>
</g>
</g>
<!-- Node10&#45;&gt;Node7 -->
<g id="edge19_Node000010_Node000007" class="edge">
<title>Node10&#45;&gt;Node7</title>
<g id="a_edge19_Node000010_Node000007"><a xlink:title=" ">
<path fill="none" stroke="#63b8ff" d="M1246.33,-167.98C1274.01,-162.02 1302.84,-150.59 1322,-129 1346.58,-101.31 1346.19,-54.96 1343.65,-29.2"/>
<polygon fill="#63b8ff" stroke="#63b8ff" points="1347.12,-28.76 1342.46,-19.25 1340.17,-29.59 1347.12,-28.76"/>
</a>
</g>
</g>
<!-- Node10&#45;&gt;Node11 -->
<g id="edge12_Node000010_Node000011" class="edge">
<title>Node10&#45;&gt;Node11</title>
<g id="a_edge12_Node000010_Node000011"><a xlink:title=" ">
<path fill="none" stroke="#63b8ff" d="M1115.39,-164.98C1059.9,-155.65 970.91,-140.67 911.71,-130.71"/>
<polygon fill="#63b8ff" stroke="#63b8ff" points="912.19,-127.25 901.75,-129.04 911.03,-134.15 912.19,-127.25"/>
</a>
</g>
</g>
<!-- Node11&#45;&gt;Node4 -->
<g id="edge13_Node000011_Node000004" class="edge">
<title>Node11&#45;&gt;Node4</title>
<g id="a_edge13_Node000011_Node000004"><a xlink:title=" ">
<path fill="none" stroke="#63b8ff" d="M806.33,-109.98C757.84,-100.74 680.35,-85.97 628.11,-76.01"/>
<polygon fill="#63b8ff" stroke="#63b8ff" points="628.49,-72.52 618.02,-74.08 627.18,-79.39 628.49,-72.52"/>
</a>
</g>
</g>
<!-- Node11&#45;&gt;Node6 -->
<g id="edge15_Node000011_Node000006" class="edge">
<title>Node11&#45;&gt;Node6</title>
<g id="a_edge15_Node000011_Node000006"><a xlink:title=" ">
<path fill="none" stroke="#63b8ff" d="M831.32,-109.9C800.16,-96.56 737.31,-70.77 682,-55 622.27,-37.97 551.76,-25.12 506.04,-17.71"/>
<polygon fill="#63b8ff" stroke="#63b8ff" points="506.53,-14.24 496.1,-16.12 505.42,-21.16 506.53,-14.24"/>
</a>
</g>
</g>
<!-- Node11&#45;&gt;Node7 -->
<g id="edge18_Node000011_Node000007" class="edge">
<title>Node11&#45;&gt;Node7</title>
<g id="a_edge18_Node000011_Node000007"><a xlink:title=" ">
<path fill="none" stroke="#63b8ff" d="M837.41,-109.98C818.79,-97.29 789.44,-73 806,-55 839.66,-18.42 1188.77,-11.9 1304.19,-10.75"/>
<polygon fill="#63b8ff" stroke="#63b8ff" points="1304.33,-14.25 1314.3,-10.65 1304.26,-7.25 1304.33,-14.25"/>
</a>
</g>
</g>
<!-- Node12 -->
<g id="Node000012" class="node">
<title>Node12</title>
<g id="a_Node000012"><a xlink:title=" ">
<polygon fill="#e0e0e0" stroke="#999999" points="886.5,-74 815.5,-74 815.5,-55 886.5,-55 886.5,-74"/>
<text text-anchor="middle" x="851" y="-62" font-family="Helvetica,sans-Serif" font-size="10.00">QJsonArray</text>
</a>
</g>
</g>
<!-- Node11&#45;&gt;Node12 -->
<g id="edge14_Node000011_Node000012" class="edge">
<title>Node11&#45;&gt;Node12</title>
<g id="a_edge14_Node000011_Node000012"><a xlink:title=" ">
<path fill="none" stroke="#63b8ff" d="M851,-109.75C851,-102.8 851,-92.85 851,-84.13"/>
<polygon fill="#63b8ff" stroke="#63b8ff" points="854.5,-84.09 851,-74.09 847.5,-84.09 854.5,-84.09"/>
</a>
</g>
</g>
<!-- Node13 -->
<g id="Node000013" class="node">
<title>Node13</title>
<g id="a_Node000013"><a xlink:title=" ">
<polygon fill="#e0e0e0" stroke="#999999" points="1018.5,-74 977.5,-74 977.5,-55 1018.5,-55 1018.5,-74"/>
<text text-anchor="middle" x="998" y="-62" font-family="Helvetica,sans-Serif" font-size="10.00">QList</text>
</a>
</g>
</g>
<!-- Node11&#45;&gt;Node13 -->
<g id="edge16_Node000011_Node000013" class="edge">
<title>Node11&#45;&gt;Node13</title>
<g id="a_edge16_Node000011_Node000013"><a xlink:title=" ">
<path fill="none" stroke="#63b8ff" d="M874.62,-109.98C899.92,-100.86 940.14,-86.36 967.75,-76.41"/>
<polygon fill="#63b8ff" stroke="#63b8ff" points="969.07,-79.65 977.29,-72.97 966.7,-73.07 969.07,-79.65"/>
</a>
</g>
</g>
<!-- Node14 -->
<g id="Node000014" class="node">
<title>Node14</title>
<g id="a_Node000014"><a xlink:title=" ">
<polygon fill="#e0e0e0" stroke="#999999" points="959.5,-74 904.5,-74 904.5,-55 959.5,-55 959.5,-74"/>
<text text-anchor="middle" x="932" y="-62" font-family="Helvetica,sans-Serif" font-size="10.00">QPointF</text>
</a>
</g>
</g>
<!-- Node11&#45;&gt;Node14 -->
<g id="edge17_Node000011_Node000014" class="edge">
<title>Node11&#45;&gt;Node14</title>
<g id="a_edge17_Node000011_Node000014"><a xlink:title=" ">
<path fill="none" stroke="#63b8ff" d="M864.01,-109.98C876.46,-101.84 895.46,-89.41 910.21,-79.76"/>
<polygon fill="#63b8ff" stroke="#63b8ff" points="912.3,-82.57 918.75,-74.17 908.46,-76.72 912.3,-82.57"/>
</a>
</g>
</g>
<!-- Node16&#45;&gt;Node6 -->
<g id="edge37_Node000016_Node000006" class="edge">
<title>Node16&#45;&gt;Node6</title>
<g id="a_edge37_Node000016_Node000006"><a xlink:title=" ">
<path fill="none" stroke="#63b8ff" d="M945.73,-219.93C915.07,-212.28 870.83,-199.84 834,-184 818.45,-177.31 816.83,-170.99 801,-165 669.48,-115.27 604.62,-165.67 498,-74 483.37,-61.42 472.28,-42.15 465.53,-28.14"/>
<polygon fill="#63b8ff" stroke="#63b8ff" points="468.72,-26.69 461.4,-19.03 462.35,-29.59 468.72,-26.69"/>
</a>
</g>
</g>
<!-- Node16&#45;&gt;Node7 -->
<g id="edge39_Node000016_Node000007" class="edge">
<title>Node16&#45;&gt;Node7</title>
<g id="a_edge39_Node000016_Node000007"><a xlink:title=" ">
<path fill="none" stroke="#63b8ff" d="M1061.68,-220.83C1064.82,-220.54 1067.94,-220.27 1071,-220 1122.63,-215.51 1500.8,-222.03 1536,-184 1574.94,-141.92 1571.75,-99.82 1536,-55 1516.6,-30.67 1428.76,-18.59 1377.84,-13.54"/>
<polygon fill="#63b8ff" stroke="#63b8ff" points="1377.86,-10.03 1367.57,-12.57 1377.2,-16.99 1377.86,-10.03"/>
</a>
</g>
</g>
<!-- Node16&#45;&gt;Node8 -->
<g id="edge38_Node000016_Node000008" class="edge">
<title>Node16&#45;&gt;Node8</title>
<g id="a_edge38_Node000016_Node000008"><a xlink:title=" ">
<path fill="none" stroke="#63b8ff" d="M921.61,-219.97C867.08,-212.12 784.97,-199.61 704.55,-184.19"/>
<polygon fill="#63b8ff" stroke="#63b8ff" points="704.72,-180.66 694.24,-182.2 703.39,-187.53 704.72,-180.66"/>
</a>
</g>
</g>
<!-- Node16&#45;&gt;Node15 -->
<g id="edge40_Node000016_Node000015" class="edge">
<title>Node16&#45;&gt;Node15</title>
<g id="a_edge40_Node000016_Node000015"><a xlink:title=" ">
<path fill="none" stroke="#63b8ff" d="M945.89,-219.98C906.01,-210.84 842.54,-196.27 799.16,-186.32"/>
<polygon fill="#63b8ff" stroke="#63b8ff" points="799.93,-182.91 789.41,-184.08 798.37,-189.73 799.93,-182.91"/>
</a>
</g>
</g>
<!-- Node17 -->
<g id="Node000017" class="node">
<title>Node17</title>
<g id="a_Node000017"><a xlink:href="SymbolGraphicsGenerator_8h.html" target="_top" xlink:title=" ">
<polygon fill="white" stroke="#666666" points="1455.5,-184 1302.5,-184 1302.5,-165 1455.5,-165 1455.5,-184"/>
<text text-anchor="middle" x="1379" y="-172" font-family="Helvetica,sans-Serif" font-size="10.00">SymbolGraphicsGenerator.h</text>
</a>
</g>
</g>
<!-- Node16&#45;&gt;Node17 -->
<g id="edge27_Node000016_Node000017" class="edge">
<title>Node16&#45;&gt;Node17</title>
<g id="a_edge27_Node000016_Node000017"><a xlink:title=" ">
<path fill="none" stroke="#63b8ff" d="M1046.62,-219.98C1117.1,-210.55 1230.57,-195.36 1304.98,-185.41"/>
<polygon fill="#63b8ff" stroke="#63b8ff" points="1305.76,-188.83 1315.21,-184.04 1304.83,-181.9 1305.76,-188.83"/>
</a>
</g>
</g>
<!-- Node18 -->
<g id="Node000018" class="node">
<title>Node18</title>
<g id="a_Node000018"><a xlink:href="SymbolData_8h.html" target="_top" xlink:title=" ">
<polygon fill="white" stroke="#666666" points="1109.5,-129 984.5,-129 984.5,-110 1109.5,-110 1109.5,-129"/>
<text text-anchor="middle" x="1047" y="-117" font-family="Helvetica,sans-Serif" font-size="10.00">models/SymbolData.h</text>
</a>
</g>
</g>
<!-- Node16&#45;&gt;Node18 -->
<g id="edge36_Node000016_Node000018" class="edge">
<title>Node16&#45;&gt;Node18</title>
<g id="a_edge36_Node000016_Node000018"><a xlink:title=" ">
<path fill="none" stroke="#63b8ff" d="M1061.71,-220.8C1137.51,-212.58 1242.49,-198.72 1255,-184 1295.74,-136.05 1195.28,-123.62 1120.2,-120.78"/>
<polygon fill="#63b8ff" stroke="#63b8ff" points="1119.9,-117.27 1109.79,-120.44 1119.67,-124.27 1119.9,-117.27"/>
</a>
</g>
</g>
<!-- Node17&#45;&gt;Node7 -->
<g id="edge35_Node000017_Node000007" class="edge">
<title>Node17&#45;&gt;Node7</title>
<g id="a_edge35_Node000017_Node000007"><a xlink:title=" ">
<path fill="none" stroke="#63b8ff" d="M1377.56,-164.81C1374.23,-145.11 1365.48,-95.65 1355,-55 1352.78,-46.37 1349.88,-36.94 1347.3,-28.99"/>
<polygon fill="#63b8ff" stroke="#63b8ff" points="1350.54,-27.67 1344.06,-19.29 1343.9,-29.88 1350.54,-27.67"/>
</a>
</g>
</g>
<!-- Node17&#45;&gt;Node18 -->
<g id="edge28_Node000017_Node000018" class="edge">
<title>Node17&#45;&gt;Node18</title>
<g id="a_edge28_Node000017_Node000018"><a xlink:title=" ">
<path fill="none" stroke="#63b8ff" d="M1325.66,-164.98C1267.06,-155.63 1172.99,-140.61 1110.6,-130.65"/>
<polygon fill="#63b8ff" stroke="#63b8ff" points="1110.91,-127.16 1100.48,-129.04 1109.81,-134.07 1110.91,-127.16"/>
</a>
</g>
</g>
<!-- Node18&#45;&gt;Node6 -->
<g id="edge30_Node000018_Node000006" class="edge">
<title>Node18&#45;&gt;Node6</title>
<g id="a_edge30_Node000018_Node000006"><a xlink:title=" ">
<path fill="none" stroke="#63b8ff" d="M1047.11,-109.85C1046.76,-95.84 1043.83,-68.38 1027,-55 986.7,-22.95 636.68,-13.61 506.5,-11.23"/>
<polygon fill="#63b8ff" stroke="#63b8ff" points="506.48,-7.73 496.42,-11.05 506.35,-14.73 506.48,-7.73"/>
</a>
</g>
</g>
<!-- Node18&#45;&gt;Node7 -->
<g id="edge34_Node000018_Node000007" class="edge">
<title>Node18&#45;&gt;Node7</title>
<g id="a_edge34_Node000018_Node000007"><a xlink:title=" ">
<path fill="none" stroke="#63b8ff" d="M1063.81,-109.94C1093.97,-94.67 1156.26,-63.52 1179,-55 1221.02,-39.27 1271.05,-26.37 1304.28,-18.59"/>
<polygon fill="#63b8ff" stroke="#63b8ff" points="1305.49,-21.9 1314.44,-16.24 1303.91,-15.08 1305.49,-21.9"/>
</a>
</g>
</g>
<!-- Node18&#45;&gt;Node12 -->
<g id="edge29_Node000018_Node000012" class="edge">
<title>Node18&#45;&gt;Node12</title>
<g id="a_edge29_Node000018_Node000012"><a xlink:title=" ">
<path fill="none" stroke="#63b8ff" d="M1015.51,-109.98C982.18,-100.97 929.4,-86.7 892.65,-76.76"/>
<polygon fill="#63b8ff" stroke="#63b8ff" points="893.3,-73.31 882.74,-74.08 891.48,-80.07 893.3,-73.31"/>
</a>
</g>
</g>
<!-- Node18&#45;&gt;Node13 -->
<g id="edge31_Node000018_Node000013" class="edge">
<title>Node18&#45;&gt;Node13</title>
<g id="a_edge31_Node000018_Node000013"><a xlink:title=" ">
<path fill="none" stroke="#63b8ff" d="M1038.91,-109.75C1031.84,-102.11 1021.41,-90.82 1012.85,-81.56"/>
<polygon fill="#63b8ff" stroke="#63b8ff" points="1015.3,-79.06 1005.94,-74.09 1010.16,-83.81 1015.3,-79.06"/>
</a>
</g>
</g>
<!-- Node18&#45;&gt;Node14 -->
<g id="edge32_Node000018_Node000014" class="edge">
<title>Node18&#45;&gt;Node14</title>
<g id="a_edge32_Node000018_Node000014"><a xlink:title=" ">
<path fill="none" stroke="#63b8ff" d="M1028.52,-109.98C1010.02,-101.46 981.32,-88.23 960.02,-78.41"/>
<polygon fill="#63b8ff" stroke="#63b8ff" points="961.36,-75.18 950.81,-74.17 958.43,-81.53 961.36,-75.18"/>
</a>
</g>
</g>
<!-- Node19 -->
<g id="Node000019" class="node">
<title>Node19</title>
<g id="a_Node000019"><a xlink:title=" ">
<polygon fill="#e0e0e0" stroke="#999999" points="1127,-74 1075,-74 1075,-55 1127,-55 1127,-74"/>
<text text-anchor="middle" x="1101" y="-62" font-family="Helvetica,sans-Serif" font-size="10.00">QRectF</text>
</a>
</g>
</g>
<!-- Node18&#45;&gt;Node19 -->
<g id="edge33_Node000018_Node000019" class="edge">
<title>Node18&#45;&gt;Node19</title>
<g id="a_edge33_Node000018_Node000019"><a xlink:title=" ">
<path fill="none" stroke="#63b8ff" d="M1055.92,-109.75C1063.78,-102.03 1075.43,-90.6 1084.92,-81.28"/>
<polygon fill="#63b8ff" stroke="#63b8ff" points="1087.56,-83.59 1092.25,-74.09 1082.66,-78.6 1087.56,-83.59"/>
</a>
</g>
</g>
<!-- Node20&#45;&gt;Node4 -->
<g id="edge51_Node000020_Node000004" class="edge">
<title>Node20&#45;&gt;Node4</title>
<g id="a_edge51_Node000020_Node000004"><a xlink:title=" ">
<path fill="none" stroke="#63b8ff" d="M1088.75,-219.97C1031.35,-212.98 953.28,-201.37 886,-184 862.18,-177.85 857.66,-171.75 834,-165 758.47,-143.47 732.87,-160.67 661,-129 633.99,-117.09 607.07,-95.97 590.26,-81.38"/>
<polygon fill="#63b8ff" stroke="#63b8ff" points="592.24,-78.46 582.44,-74.43 587.59,-83.69 592.24,-78.46"/>
</a>
</g>
</g>
<!-- Node20&#45;&gt;Node7 -->
<g id="edge56_Node000020_Node000007" class="edge">
<title>Node20&#45;&gt;Node7</title>
<g id="a_edge56_Node000020_Node000007"><a xlink:title=" ">
<path fill="none" stroke="#63b8ff" d="M1262.72,-220.78C1390.23,-209.84 1606.19,-190.43 1612,-184 1650.45,-141.47 1649.11,-98.7 1612,-55 1582.41,-20.16 1445.12,-12.54 1378.06,-10.92"/>
<polygon fill="#63b8ff" stroke="#63b8ff" points="1378,-7.42 1367.93,-10.71 1377.85,-14.41 1378,-7.42"/>
</a>
</g>
</g>
<!-- Node20&#45;&gt;Node11 -->
<g id="edge50_Node000020_Node000011" class="edge">
<title>Node20&#45;&gt;Node11</title>
<g id="a_edge50_Node000020_Node000011"><a xlink:title=" ">
<path fill="none" stroke="#63b8ff" d="M1091.77,-219.99C1028.34,-212.22 945.16,-199.58 915,-184 893.58,-172.94 874.77,-152.2 863.18,-137.43"/>
<polygon fill="#63b8ff" stroke="#63b8ff" points="865.75,-135.03 856.94,-129.15 860.16,-139.24 865.75,-135.03"/>
</a>
</g>
</g>
<!-- Node20&#45;&gt;Node18 -->
<g id="edge52_Node000020_Node000018" class="edge">
<title>Node20&#45;&gt;Node18</title>
<g id="a_edge52_Node000020_Node000018"><a xlink:title=" ">
<path fill="none" stroke="#63b8ff" d="M1262.58,-220.61C1343.86,-212.66 1451.77,-199.39 1465,-184 1470.51,-177.6 1470.65,-171.28 1465,-165 1453.62,-152.34 1236.7,-134.49 1119.96,-125.74"/>
<polygon fill="#63b8ff" stroke="#63b8ff" points="1119.9,-122.23 1109.67,-124.98 1119.38,-129.21 1119.9,-122.23"/>
</a>
</g>
</g>
<!-- Node21 -->
<g id="Node000021" class="node">
<title>Node21</title>
<g id="a_Node000021"><a xlink:href="ComponentData_8h.html" target="_top" xlink:title=" ">
<polygon fill="white" stroke="#666666" points="1068,-184 924,-184 924,-165 1068,-165 1068,-184"/>
<text text-anchor="middle" x="996" y="-172" font-family="Helvetica,sans-Serif" font-size="10.00">models/ComponentData.h</text>
</a>
</g>
</g>
<!-- Node20&#45;&gt;Node21 -->
<g id="edge42_Node000020_Node000021" class="edge">
<title>Node20&#45;&gt;Node21</title>
<g id="a_edge42_Node000020_Node000021"><a xlink:title=" ">
<path fill="none" stroke="#63b8ff" d="M1142.88,-219.98C1113.38,-211.05 1066.81,-196.94 1034.03,-187.02"/>
<polygon fill="#63b8ff" stroke="#63b8ff" points="1034.92,-183.63 1024.34,-184.08 1032.89,-190.33 1034.92,-183.63"/>
</a>
</g>
</g>
<!-- Node22 -->
<g id="Node000022" class="node">
<title>Node22</title>
<g id="a_Node000022"><a xlink:title=" ">
<polygon fill="#e0e0e0" stroke="#999999" points="1313,-129 1221,-129 1221,-110 1313,-110 1313,-129"/>
<text text-anchor="middle" x="1267" y="-117" font-family="Helvetica,sans-Serif" font-size="10.00">QSharedPointer</text>
</a>
</g>
</g>
<!-- Node20&#45;&gt;Node22 -->
<g id="edge55_Node000020_Node000022" class="edge">
<title>Node20&#45;&gt;Node22</title>
<g id="a_edge55_Node000020_Node000022"><a xlink:title=" ">
<path fill="none" stroke="#63b8ff" d="M1253.79,-219.96C1348,-209.83 1489.98,-193.18 1498,-184 1503.55,-177.64 1503.38,-171.51 1498,-165 1476.28,-138.69 1384.51,-127.77 1323.38,-123.35"/>
<polygon fill="#63b8ff" stroke="#63b8ff" points="1323.31,-119.84 1313.1,-122.65 1322.84,-126.83 1323.31,-119.84"/>
</a>
</g>
</g>
<!-- Node20&#45;&gt;Node23 -->
<g id="edge53_Node000020_Node000023" class="edge">
<title>Node20&#45;&gt;Node23</title>
<g id="a_edge53_Node000020_Node000023"><a xlink:title=" ">
<path fill="none" stroke="#63b8ff" d="M1262.65,-220.74C1265.81,-220.49 1268.93,-220.24 1272,-220 1487.7,-203.05 1546,-216.28 1763.65,-183.97"/>
<polygon fill="#63b8ff" stroke="#63b8ff" points="1764.43,-187.39 1773.8,-182.45 1763.39,-180.47 1764.43,-187.39"/>
</a>
</g>
</g>
<!-- Node24 -->
<g id="Node000024" class="node">
<title>Node24</title>
<g id="a_Node000024"><a xlink:title=" ">
<polygon fill="#e0e0e0" stroke="#999999" points="1755.5,-184 1664.5,-184 1664.5,-165 1755.5,-165 1755.5,-184"/>
<text text-anchor="middle" x="1710" y="-172" font-family="Helvetica,sans-Serif" font-size="10.00">QElapsedTimer</text>
</a>
</g>
</g>
<!-- Node20&#45;&gt;Node24 -->
<g id="edge54_Node000020_Node000024" class="edge">
<title>Node20&#45;&gt;Node24</title>
<g id="a_edge54_Node000020_Node000024"><a xlink:title=" ">
<path fill="none" stroke="#63b8ff" d="M1262.72,-220.51C1380.23,-210.18 1577.42,-192.51 1650,-184 1651.47,-183.83 1652.96,-183.65 1654.46,-183.46"/>
<polygon fill="#63b8ff" stroke="#63b8ff" points="1655.02,-186.92 1664.49,-182.18 1654.13,-179.98 1655.02,-186.92"/>
</a>
</g>
</g>
<!-- Node21&#45;&gt;Node4 -->
<g id="edge44_Node000021_Node000004" class="edge">
<title>Node21&#45;&gt;Node4</title>
<g id="a_edge44_Node000021_Node000004"><a xlink:title=" ">
<path fill="none" stroke="#63b8ff" d="M923.74,-168.22C864.49,-162.5 778.95,-151.07 707,-129 685.5,-122.4 630.91,-95.22 598.43,-78.64"/>
<polygon fill="#63b8ff" stroke="#63b8ff" points="600,-75.51 589.51,-74.06 596.81,-81.74 600,-75.51"/>
</a>
</g>
</g>
<!-- Node21&#45;&gt;Node6 -->
<g id="edge47_Node000021_Node000006" class="edge">
<title>Node21&#45;&gt;Node6</title>
<g id="a_edge47_Node000021_Node000006"><a xlink:title=" ">
<path fill="none" stroke="#63b8ff" d="M924.54,-164.98C880.69,-158.31 823.95,-147.06 776,-129 760.54,-123.18 662.37,-61.07 647,-55 600.8,-36.76 545.18,-24.78 506.28,-17.89"/>
<polygon fill="#63b8ff" stroke="#63b8ff" points="506.72,-14.41 496.27,-16.16 505.53,-21.31 506.72,-14.41"/>
</a>
</g>
</g>
<!-- Node21&#45;&gt;Node7 -->
<g id="edge49_Node000021_Node000007" class="edge">
<title>Node21&#45;&gt;Node7</title>
<g id="a_edge49_Node000021_Node000007"><a xlink:title=" ">
<path fill="none" stroke="#63b8ff" d="M1023.31,-164.87C1048.53,-156.61 1086.84,-143.31 1119,-129 1193.83,-95.7 1278.11,-47.62 1317.88,-24.27"/>
<polygon fill="#63b8ff" stroke="#63b8ff" points="1319.72,-27.25 1326.56,-19.15 1316.16,-21.22 1319.72,-27.25"/>
</a>
</g>
</g>
<!-- Node21&#45;&gt;Node11 -->
<g id="edge43_Node000021_Node000011" class="edge">
<title>Node21&#45;&gt;Node11</title>
<g id="a_edge43_Node000021_Node000011"><a xlink:title=" ">
<path fill="none" stroke="#63b8ff" d="M972.7,-164.98C948.75,-156.23 911.22,-142.51 884.17,-132.62"/>
<polygon fill="#63b8ff" stroke="#63b8ff" points="885.31,-129.32 874.72,-129.17 882.91,-135.89 885.31,-129.32"/>
</a>
</g>
</g>
<!-- Node21&#45;&gt;Node12 -->
<g id="edge46_Node000021_Node000012" class="edge">
<title>Node21&#45;&gt;Node12</title>
<g id="a_edge46_Node000021_Node000012"><a xlink:title=" ">
<path fill="none" stroke="#63b8ff" d="M987.28,-164.71C974.32,-151.89 948.95,-127.67 925,-110 909.46,-98.54 890.83,-87.35 876.15,-79.05"/>
<polygon fill="#63b8ff" stroke="#63b8ff" points="877.58,-75.85 867.14,-74.05 874.18,-81.97 877.58,-75.85"/>
</a>
</g>
</g>
<!-- Node21&#45;&gt;Node18 -->
<g id="edge45_Node000021_Node000018" class="edge">
<title>Node21&#45;&gt;Node18</title>
<g id="a_edge45_Node000021_Node000018"><a xlink:title=" ">
<path fill="none" stroke="#63b8ff" d="M1004.42,-164.75C1011.77,-157.11 1022.63,-145.82 1031.54,-136.56"/>
<polygon fill="#63b8ff" stroke="#63b8ff" points="1034.32,-138.72 1038.74,-129.09 1029.28,-133.87 1034.32,-138.72"/>
</a>
</g>
</g>
<!-- Node21&#45;&gt;Node22 -->
<g id="edge48_Node000021_Node000022" class="edge">
<title>Node21&#45;&gt;Node22</title>
<g id="a_edge48_Node000021_Node000022"><a xlink:title=" ">
<path fill="none" stroke="#63b8ff" d="M1039.54,-164.98C1086.81,-155.74 1162.35,-140.97 1213.28,-131.01"/>
<polygon fill="#63b8ff" stroke="#63b8ff" points="1213.98,-134.44 1223.12,-129.08 1212.63,-127.57 1213.98,-134.44"/>
</a>
</g>
</g>
<!-- Node27&#45;&gt;Node6 -->
<g id="edge65_Node000027_Node000006" class="edge">
<title>Node27&#45;&gt;Node6</title>
<g id="a_edge65_Node000027_Node000006"><a xlink:title=" ">
<path fill="none" stroke="#63b8ff" d="M158.66,-164.99C171.2,-142.93 207.99,-83.68 256,-55 303.28,-26.76 366.4,-16.38 409.42,-12.6"/>
<polygon fill="#63b8ff" stroke="#63b8ff" points="409.94,-16.07 419.63,-11.8 409.39,-9.1 409.94,-16.07"/>
</a>
</g>
</g>
<!-- Node27&#45;&gt;Node11 -->
<g id="edge64_Node000027_Node000011" class="edge">
<title>Node27&#45;&gt;Node11</title>
<g id="a_edge64_Node000027_Node000011"><a xlink:title=" ">
<path fill="none" stroke="#63b8ff" d="M242.28,-166.79C380.3,-156.29 644.85,-136.18 774.95,-126.28"/>
<polygon fill="#63b8ff" stroke="#63b8ff" points="775.51,-129.75 785.22,-125.5 774.98,-122.77 775.51,-129.75"/>
</a>
</g>
</g>
<!-- Node28&#45;&gt;Node6 -->
<g id="edge68_Node000028_Node000006" class="edge">
<title>Node28&#45;&gt;Node6</title>
<g id="a_edge68_Node000028_Node000006"><a xlink:title=" ">
<path fill="none" stroke="#63b8ff" d="M387.03,-164.74C398.83,-139.09 433.48,-63.78 449.59,-28.78"/>
<polygon fill="#63b8ff" stroke="#63b8ff" points="452.95,-29.85 453.95,-19.31 446.59,-26.93 452.95,-29.85"/>
</a>
</g>
</g>
<!-- Node28&#45;&gt;Node18 -->
<g id="edge67_Node000028_Node000018" class="edge">
<title>Node28&#45;&gt;Node18</title>
<g id="a_edge67_Node000028_Node000018"><a xlink:title=" ">
<path fill="none" stroke="#63b8ff" d="M468.11,-166.71C599.66,-156.21 850.12,-136.21 973.95,-126.33"/>
<polygon fill="#63b8ff" stroke="#63b8ff" points="974.4,-129.81 984.09,-125.52 973.84,-122.83 974.4,-129.81"/>
</a>
</g>
</g>
<!-- Node29&#45;&gt;Node7 -->
<g id="edge71_Node000029_Node000007" class="edge">
<title>Node29&#45;&gt;Node7</title>
<g id="a_edge71_Node000029_Node000007"><a xlink:title=" ">
<path fill="none" stroke="#63b8ff" d="M1465.81,-275.99C1585.17,-258.88 1858,-215.42 1858,-175.5 1858,-175.5 1858,-175.5 1858,-118.5 1858,-20.26 1495.77,-10.81 1377.71,-10.34"/>
<polygon fill="#63b8ff" stroke="#63b8ff" points="1377.71,-6.84 1367.71,-10.32 1377.7,-13.84 1377.71,-6.84"/>
</a>
</g>
</g>
<!-- Node29&#45;&gt;Node30 -->
<g id="edge70_Node000029_Node000030" class="edge">
<title>Node29&#45;&gt;Node30</title>
<g id="a_edge70_Node000029_Node000030"><a xlink:title=" ">
<path fill="none" stroke="#63b8ff" d="M1411,-274.75C1411,-267.8 1411,-257.85 1411,-249.13"/>
<polygon fill="#63b8ff" stroke="#63b8ff" points="1414.5,-249.09 1411,-239.09 1407.5,-249.09 1414.5,-249.09"/>
</a>
</g>
</g>
</g>
</svg>
