<?xml version="1.0" encoding="UTF-8"?>
<svg width="256" height="256" viewBox="0 0 256 256" xmlns="http://www.w3.org/2000/svg">
  <!-- Flatpak compliant icon - light theme -->
  <!-- Canvas: 256x256, Safe area: 208x208 (24px margin) -->
  
  <rect width="256" height="256" rx="20" fill="#FFFFFF"/>
  
  <g fill="#000000">
    <path d="M90.65,53.18L144.28,53.18L144.28,79.86L102.77,79.86Q86.60,79.86 79.21,82.10Q71.79,84.35 66.87,90.86L66.87,90.86Q63.50,95.35 62.26,99.83Q61.01,104.32 60.14,115.10L60.14,115.10L144.28,115.10L144.28,141.81L60.14,141.81Q61.91,161.10 71.57,168.61Q81.20,176.12 104.33,176.12L104.33,176.12L144.28,176.12L144.28,202.83L102.77,202.83Q85.94,202.83 73.13,200.80L73.13,200.80Q52.94,197.44 41.07,183.07L41.07,183.07Q23.99,162.44 23.99,127.23L23.99,127.23Q23.99,88.18 48.01,66.40L48.01,66.40Q56.30,59.01 65.62,56.08Q74.94,53.18 90.65,53.18L90.65,53.18ZM99.84,53.18L131.69,53.18L131.69,202.83L99.84,202.83L99.84,53.18ZM187.13,202.83L132.81,127.23L190.03,53.18L232.01,53.18L169.40,127.23L229.08,202.83L187.13,202.83Z"/>
  </g>
</svg>